<svg width="190.226" height="100.795" viewBox="-7 -18.5 65 65">
    <g stroke-width=".718">
        <path class="ATA_svg__ATA_svg__ATA_svg__ATA_svg__color-main ATA_svg__ATA_svg__ATA_svg__ATA_svg__color-green" fill="#fff" d="M33.766 6.96L5.027 11.49s.75-2.143 1.258-3.154c.498-.99 1.054-1.964 1.746-2.83.733-.918 1.6-1.732 2.516-2.467 1.02-.82 2.113-1.568 3.288-2.144C14.8.424 15.834.087 16.88-.156a15.232 15.232 0 013.247-.404c1.36-.017 2.74.074 4.06.404 1.235.31 2.408.856 3.531 1.456.963.514 1.88 1.124 2.72 1.82.743.615 1.405 1.327 2.03 2.062.475.56 1.298 1.779 1.298 1.779z"/>
        <path class="ATA_svg__ATA_svg__ATA_svg__ATA_svg__color-main ATA_svg__ATA_svg__ATA_svg__ATA_svg__color-green" fill="#057a00" d="M32.663 7.116L6.248 11.28s.689-1.97 1.157-2.9c.457-.91.968-1.805 1.604-2.601.674-.843 1.47-1.591 2.313-2.267.937-.753 1.942-1.441 3.022-1.97.886-.434 1.837-.743 2.798-.966a14 14 0 012.985-.372c1.25-.015 2.519.068 3.731.372 1.136.284 2.214.787 3.246 1.338a15.012 15.012 0 012.5 1.672c.683.566 1.292 1.22 1.865 1.896.437.514 1.194 1.635 1.194 1.635z"/>
        <path class="ATA_svg__ATA_svg__ATA_svg__ATA_svg__color-red" fill="#fff" d="M17.324 19.852l28.871-4.55s-.753 2.153-1.264 3.17c-.5.994-1.058 1.972-1.754 2.843-.736.921-1.607 1.739-2.528 2.478-1.024.822-2.122 1.575-3.303 2.153-.968.474-2.007.812-3.058 1.056a15.302 15.302 0 01-3.262.406c-1.366.017-2.753-.075-4.078-.406-1.242-.31-2.42-.86-3.548-1.462a16.408 16.408 0 01-2.732-1.828c-.747-.619-1.412-1.334-2.04-2.072-.477-.563-1.304-1.788-1.304-1.788z"/>
        <path class="ATA_svg__ATA_svg__ATA_svg__ATA_svg__color-red" fill="#ff000b" d="M18.488 19.754l26.415-4.163s-.689 1.97-1.156 2.9c-.458.91-.969 1.805-1.605 2.601-.673.843-1.47 1.591-2.313 2.267-.937.753-1.941 1.441-3.022 1.97-.886.434-1.837.743-2.798.966a14 14 0 01-2.985.372c-1.25.015-2.519-.068-3.731-.372-1.136-.284-2.214-.787-3.246-1.338a15.012 15.012 0 01-2.5-1.672c-.683-.566-1.291-1.22-1.865-1.896-.437-.514-1.194-1.635-1.194-1.635z"/>
        <path fill="#fff" fill-rule="evenodd" stroke="#020100" stroke-width=".538" d="M95.814 69.255l35.212-5.74v7.266l-35.212 5.74z" paint-order="stroke markers fill" transform="matrix(1.39569 0 0 1.39036 -132.917 -83.858)"/>
        <text style="line-height:1.25;-inkscape-font-specification:'Bodoni MT Bold'" stroke-width=".19" x="83.329" y="88.687" font-family="Bodoni MT" font-size="5.997" font-weight="700" letter-spacing="0" transform="matrix(1.3785 -.2175 .21833 1.37324 -132.917 -83.858)" word-spacing="0">
            <tspan x="83.329" y="88.687" font-size="5.292" font-style="italic" rotate="0 0 0 0 0 0 0 0 0 0" style="-inkscape-font-specification:'Bodoni MT Bold Italic'">ARCHIMEDE</tspan>
        </text>
    </g>
</svg>
