<svg width="50mm" height="50mm" viewBox="-10 -10 70 70">
    <circle class="RCS_svg__RCS_svg__RCS_svg__RCS_svg__color-white RCS_svg__RCS_svg__RCS_svg__RCS_svg__color-stroke-main RCS_svg__RCS_svg__RCS_svg__RCS_svg__color-stroke-orange" fill="#fff" stroke="#fff" stroke-width="1.085" cx="25" cy="25" r="26.411"/>
    <g stroke-width=".994">
        <g fill-rule="evenodd" transform="translate(-161.357 -83.577) scale(1.00616)">
            <circle class="RCS_svg__RCS_svg__RCS_svg__RCS_svg__color-white RCS_svg__RCS_svg__RCS_svg__RCS_svg__color-stroke-main RCS_svg__RCS_svg__RCS_svg__RCS_svg__color-stroke-orange" fill="#fff" stroke="#f47e42" cx="185.216" cy="107.912" r="24.35"/>
            <circle class="RCS_svg__RCS_svg__RCS_svg__RCS_svg__color-main RCS_svg__RCS_svg__RCS_svg__RCS_svg__color-orange" fill="#f47e42" cx="185.216" cy="107.912" r="21.75"/>
        </g>
        <path stroke="#fff" stroke-width=".5" d="M27.567 30.121c-.072-.103-.157-.201-.203-.318-.04-.1-.048-.211-.058-.319-.002-.315 0-.63 0-.955.01-.108.018-.219.058-.319.04-.096.127-.167.174-.26.142-.284.219-.596.318-.898.073-.22.117-.45.203-.665.088-.22.175-.448.318-.637a2.43 2.43 0 01.637-.58c.265-.165.584-.219.869-.347.177-.08.346-.175.52-.26.183-.09.355-.207.55-.26.096-.027.296-.03.296-.03h9.144s.193-.015.288 0c.12.02.243.057.347.116.137.095.215.251.29.376.04.127.024.265.029.398.005.143 0 .427 0 .427v.427s.032.289 0 .427a.633.633 0 01-.116.232c-.087.114-.186.234-.319.29-.174.072-.564.028-.564.028H36.96s-.379 0-.565.03c-.148.023-.31.031-.434.115-.2.135-.325.364-.434.58-.09.18-.164.377-.174.578-.011.246.057.494.145.724.068.178.182.335.29.492.067.1.222.285.222.285l.187.192c1.875 1.923 3.8 3.786 5.71 5.657.064.063.12.122.174.188.08.1.17.2.22.319.041.1.048.21.058.318.009.106 0 .318 0 .318v.637s-.001.22-.041.319c-.04.1-.14.165-.19.26-.149.28-.22.596-.32.898-.072.22-.116.45-.202.666-.088.22-.175.447-.318.636a2.402 2.402 0 01-.637.58 3.014 3.014 0 01-.869.347c-.17.042-.353.008-.52.058-.198.058-.352.224-.55.278-.054.015-.11.01-.166.011-.055.002-.164 0-.164 0H28.16s-.242-.009-.362-.029c-.117-.02-.238-.038-.347-.087a.494.494 0 01-.174-.115.584.584 0 01-.115-.232c-.034-.121-.03-.376-.03-.376v-1.13s.07-.228.145-.318a.685.685 0 01.29-.202c.112-.04.356-.03.356-.03h5.347s.31-.055.434-.144c.196-.141.322-.365.434-.58.1-.188.195-.394.203-.607.009-.239-.088-.472-.174-.695a2.341 2.341 0 00-.26-.492 3.023 3.023 0 00-.252-.285 264.091 264.091 0 00-5.748-5.71 325.602 325.602 0 00-.34-.327s0 0 0 0z"/>
        <path stroke="#fff" stroke-width=".5" d="M24.221 30.038c.04.21.106.424.232.595.125.171.312.291.496.397.184.106.387.186.595.232.188.04.577.033.577.033h8.074s.393-.024.577.033a.937.937 0 01.33.198c.107.093.265.331.265.331v1.588s-.177.263-.297.363a1.05 1.05 0 01-.364.199c-.13.039-.404.033-.404.033H22.178s-.271-.01-.404-.033a5.569 5.569 0 01-1.158-.33 6.938 6.938 0 01-1.224-.695 4.352 4.352 0 01-.727-.596c-.195-.207-.398-.427-.496-.694-.045-.123-.033-.39-.033-.39V19.23s-.014-.276.033-.402c.098-.267.301-.487.496-.694a4.29 4.29 0 01.727-.596 6.938 6.938 0 011.224-.694c.37-.156.763-.26 1.158-.331.133-.024.404-.033.404-.033h12.124s.274-.006.404.033c.132.04.257.11.364.198.12.1.238.219.297.364.05.123.033.397.033.397v.794s.016.273-.033.397a.917.917 0 01-.264.33.937.937 0 01-.331.199c-.184.057-.577.033-.577.033h-8.074s-.389-.008-.577.033a2.09 2.09 0 00-.595.232c-.184.105-.37.226-.496.397s-.232.595-.232.595v9.258s-.018.201 0 .299z"/>
        <path stroke="#fff" stroke-width=".5" d="M10.89 5.88s-.32.187-.43.331c-.072.095-.133.331-.133.331V22.44s.095.291.199.397c.13.135.497.265.497.265h5.365v-5.696h5.266l5.762 5.696h2.203s.243.05.314-.027c.043-.046 0-.188 0-.188v-.646l-4.868-4.835h1.523s.298-.112.43-.199c.42-.273.762-.65 1.127-.993.239-.225.513-.424.695-.696.207-.308.431-1.026.431-1.026l-.033-5.962s-.21-.547-.365-.795a5.064 5.064 0 00-.762-.927 3.687 3.687 0 00-.761-.596c-.278-.155-.894-.331-.894-.331zm5.928 2.384h8.71s.577.172.795.365c.253.223.53.86.53.86-.056 1.303.111 2.679.032 3.941-.131.301-.5.427-.728.663-.201.208-.303.534-.563.662-3.066.056-6.162.008-9.24 0l.034-5.96s.005-.268.083-.365c.08-.1.347-.166.347-.166z"/>
        <path fill="none" stroke="#fff" stroke-width=".5" d="M16.818 8.264h8.71s.577.172.795.365c.253.223.53.86.53.86-.056 1.303.111 2.679.032 3.941-.131.301-.5.427-.728.663-.201.208-.303.534-.563.662-3.066.056-6.162.008-9.24 0l.034-5.96s.005-.268.083-.365c.08-.1.347-.166.347-.166z"/>
    </g>
</svg>
