<svg width="50mm" height="120.569" viewBox="-7.5 -16.5 65 65">
    <path class="SFA_svg__SFA_svg__SFA_svg__SFA_svg__color-main SFA_svg__SFA_svg__SFA_svg__SFA_svg__color-pink" fill="#fff" d="M51.46 16.3L25.02-.982-1.42 16.301l26.44 16.528z"/>
    <g stroke-width=".604">
        <g stroke="#000" transform="translate(-80.564 -138.901) scale(1.65666)">
            <path class="SFA_svg__SFA_svg__SFA_svg__SFA_svg__color-main SFA_svg__SFA_svg__SFA_svg__SFA_svg__color-pink" fill="#ec0b7f" stroke-width=".302" d="M78.531 93.684l-14.81-9.66-14.81 9.66 14.81 9.238z"/>
            <rect fill="#fff" fill-rule="evenodd" stroke-width=".453" width="22.333" height="13.272" x="52.555" y="86.835" paint-order="stroke markers fill" rx=".2" ry=".2"/>
        </g>
        <text font-style="italic" style="line-height:1.25;-inkscape-font-specification:'Bell MT Italic'" stroke-width=".16" x="53.097" y="95.007" font-family="Bell MT" font-size="4.586" font-weight="400" letter-spacing="0" transform="translate(-80.564 -138.901) scale(1.65666)" word-spacing="0">
            <tspan x="53.097" y="95.007" font-family="Calisto MT" style="-inkscape-font-specification:'Calisto MT Italic'">AKRAGAS</tspan>
        </text>
        <g transform="translate(-80.564 -138.869) scale(1.65666)">
            <rect fill="#000016" fill-rule="evenodd" width=".586" height="2.638" x="72.206" y="87.658" rx=".1" ry=".1"/>
            <rect fill="#000016" fill-rule="evenodd" width=".586" height="2.638" x="70.857" y="87.658" rx=".1" ry=".1"/>
            <rect fill="#000016" fill-rule="evenodd" width=".586" height="2.638" x="69.508" y="87.658" rx=".1" ry=".1"/>
            <rect fill="#000016" fill-rule="evenodd" width=".586" height="2.638" x="68.158" y="87.658" rx=".1" ry=".1"/>
            <rect fill="#000016" fill-rule="evenodd" width=".586" height="2.638" x="66.809" y="87.658" rx=".1" ry=".1"/>
            <rect fill="#000016" fill-rule="evenodd" width=".586" height="2.638" x="65.46" y="87.658" rx=".1" ry=".1"/>
            <rect fill="#000016" fill-rule="evenodd" width=".586" height="2.638" x="64.111" y="87.658" rx=".1" ry=".1"/>
            <rect fill="#000016" fill-rule="evenodd" width=".586" height="2.638" x="62.762" y="87.658" rx=".1" ry=".1"/>
            <rect fill="#000016" fill-rule="evenodd" width=".586" height="2.638" x="61.412" y="87.658" rx=".1" ry=".1"/>
            <rect fill="#000016" fill-rule="evenodd" width=".586" height="2.638" x="60.063" y="87.658" rx=".1" ry=".1"/>
            <rect fill="#000016" fill-rule="evenodd" width=".586" height="2.638" x="58.714" y="87.658" rx=".1" ry=".1"/>
            <rect fill="#000016" fill-rule="evenodd" width=".586" height="2.638" x="57.365" y="87.658" rx=".1" ry=".1"/>
            <rect fill="#000016" fill-rule="evenodd" width=".586" height="2.638" x="56.016" y="87.658" rx=".1" ry=".1"/>
            <rect fill="#000016" fill-rule="evenodd" width=".586" height="2.638" x="54.667" y="87.658" rx=".1" ry=".1"/>
            <rect fill="#000016" fill-rule="evenodd" width=".586" height="2.638" x="53.317" y="87.658" rx=".1" ry=".1"/>
            <rect fill="#000016" fill-rule="evenodd" width=".586" height="2.638" x="73.555" y="87.658" rx=".1" ry=".1"/>
            <path fill="none" stroke="#000" stroke-width=".181" d="M52.475 88.301h22.413m-22.413 1.351h22.413"/>
        </g>
        <g transform="translate(-80.564 -124.042) scale(1.65666)">
            <rect fill="#000016" fill-rule="evenodd" width=".586" height="2.638" x="72.206" y="87.658" rx=".1" ry=".1"/>
            <rect fill="#000016" fill-rule="evenodd" width=".586" height="2.638" x="70.857" y="87.658" rx=".1" ry=".1"/>
            <rect fill="#000016" fill-rule="evenodd" width=".586" height="2.638" x="69.508" y="87.658" rx=".1" ry=".1"/>
            <rect fill="#000016" fill-rule="evenodd" width=".586" height="2.638" x="68.158" y="87.658" rx=".1" ry=".1"/>
            <rect fill="#000016" fill-rule="evenodd" width=".586" height="2.638" x="66.809" y="87.658" rx=".1" ry=".1"/>
            <rect fill="#000016" fill-rule="evenodd" width=".586" height="2.638" x="65.46" y="87.658" rx=".1" ry=".1"/>
            <rect fill="#000016" fill-rule="evenodd" width=".586" height="2.638" x="64.111" y="87.658" rx=".1" ry=".1"/>
            <rect fill="#000016" fill-rule="evenodd" width=".586" height="2.638" x="62.762" y="87.658" rx=".1" ry=".1"/>
            <rect fill="#000016" fill-rule="evenodd" width=".586" height="2.638" x="61.412" y="87.658" rx=".1" ry=".1"/>
            <rect fill="#000016" fill-rule="evenodd" width=".586" height="2.638" x="60.063" y="87.658" rx=".1" ry=".1"/>
            <rect fill="#000016" fill-rule="evenodd" width=".586" height="2.638" x="58.714" y="87.658" rx=".1" ry=".1"/>
            <rect fill="#000016" fill-rule="evenodd" width=".586" height="2.638" x="57.365" y="87.658" rx=".1" ry=".1"/>
            <rect fill="#000016" fill-rule="evenodd" width=".586" height="2.638" x="56.016" y="87.658" rx=".1" ry=".1"/>
            <rect fill="#000016" fill-rule="evenodd" width=".586" height="2.638" x="54.667" y="87.658" rx=".1" ry=".1"/>
            <rect fill="#000016" fill-rule="evenodd" width=".586" height="2.638" x="53.317" y="87.658" rx=".1" ry=".1"/>
            <rect fill="#000016" fill-rule="evenodd" width=".586" height="2.638" x="73.555" y="87.658" rx=".1" ry=".1"/>
            <path fill="none" stroke="#000" stroke-width=".181" d="M52.475 88.301h22.413m-22.413 1.351h22.413"/>
        </g>
    </g>
</svg>
