<svg xmlns="http://www.w3.org/2000/svg" width="200" height="200" viewBox="0 0 200 200">
  <circle class="color-orange color-main" fill="#f58121" cx="100" cy="100" r="100"/>
  <path class="color-white" fill="#fff" d="M33.67 137.233c-1.998-.258-6.935-2.556-10.97-5.107-8.71-5.505-14.34-14.246-16.579-25.732-2.452-12.585-.137-19.104 10.62-29.899 4.87-4.885 8.853-9.91 8.853-11.167 0-1.257.71-2.747 1.577-3.312 1.152-.75 1.387 1.768.873 9.345l-.704 10.373 5.766-6.527c5.507-6.234 6.113-6.527 13.478-6.527 7.971 0 12.07.967 12.07 2.847 0 .597-1.52 2.814-3.378 4.927-2.846 3.237-4.545 3.842-10.78 3.842-8.825 0-12.258 3.011-14.76 12.945-2.355 9.346-2.45 28.242-.159 31.153 3.116 3.958 17.295 3.194 25.428-1.37 3.663-2.055 6.921-3.461 7.241-3.124.727.766-5.582 7.511-11.478 12.275-4.8 3.876-11.315 5.804-17.098 5.058zm-9.152-48.585c-.797-14.18-2.352-14.92-6.616-3.152-3.239 8.938-2.105 23.306 2.36 29.904l3.265 4.827.852-9.438c.469-5.19.531-15.154.139-22.14zm81.094 44.486-6.076-4.977-3.647 4.605c-3.37 4.255-4.136 4.546-10.1 3.837-10.532-1.25-20.248-11.107-20.248-20.539 0-2.274 2.514-6.483 6.872-11.51l6.871-7.925-2.705-8.288-2.705-8.288 4.337-3.87c7.724-6.891 8.62-7.406 12.973-7.453 6.79-.073 11.55 4.809 11.55 11.847 0 4.916-.898 6.82-5.51 11.681-3.03 3.195-5.51 6.094-5.51 6.443 0 2.244 11.537 17.961 12.847 17.503.89-.312 2.219-2.361 2.954-4.555 1.146-3.418.86-4.37-1.998-6.642-2.997-2.383-3.133-2.924-1.338-5.33 3.315-4.442 4.387-4.811 14.052-4.834 9.575-.022 10.514.678 7.872 5.881-1.042 2.052-2.897 2.809-6.887 2.809-4.732 0-5.468.437-5.509 3.267-.025 1.797-1.2 5.84-2.612 8.986-1.41 3.145-2.251 6.581-1.867 7.635.893 2.455 6.251 3.885 9.937 2.652 4.268-1.428 3.465.935-2.311 6.799l-5.166 5.243zm-11.944-4.35c3.554-1.437 2.54-5.27-3.973-15.02-3.383-5.064-6.44-9.929-6.793-10.81-.987-2.46-7.725 6.09-7.67 9.731.066 4.244 2.63 8.853 6.84 12.286 5.272 4.3 8.096 5.229 11.596 3.813zm.621-39.886c2.78-5.22 1.133-10.737-3.852-12.914-7.192-3.14-8.827.861-4.745 11.614 2.552 6.725 5.473 7.167 8.597 1.3zm37.43 43.927-4.66-4.101 3.334-2.488c1.834-1.368 5.97-4.427 9.19-6.798 3.22-2.371 5.854-5.356 5.854-6.633 0-1.278 1.55-4.264 3.444-6.637 2.871-3.597 3.443-5.826 3.443-13.416 0-6.973-.589-9.663-2.519-11.505-3.118-2.974-8.483-3.095-12.026-.27-3.725 2.97-4.74 2.738-4.74-1.084 0-4.904 3.525-9.324 8.937-11.207 5.924-2.06 9.81-.912 15.228 4.503l4.191 4.189 6.777-7.253c3.728-3.99 7.218-7.253 7.756-7.253.539 0 .634 4.801.213 10.669-1.099 15.316.596 29.672 3.856 32.659 1.448 1.326 3.872 3.555 5.387 4.952 3.81 3.515 3.483 5.693-.689 4.59-2.761-.731-3.443-.37-3.443 1.827 0 4.046 3.9 9.193 6.965 9.193 4.026 0 3.23 2.306-1.962 5.69-8.199 5.34-10.051 4.35-13.363-7.142l-2.929-10.165h-8.127c-7.133 0-8.972.64-15.019 5.219-3.79 2.87-6.89 5.653-6.89 6.185 0 .531 1.298 1.82 2.884 2.865 2.758 1.815 2.779 2.023.475 4.705-3.296 3.84-6.089 3.527-11.568-1.294zm36.1-38.371c-.804-15.688-2.146-19.887-4.378-13.7-.81 2.248-1.474 5.901-1.474 8.118 0 2.217-.923 7.239-2.052 11.159-1.128 3.92-2.058 7.291-2.066 7.491-.01.2 2.387.363 5.322.363h5.337z"/>
</svg>
