<svg xmlns="http://www.w3.org/2000/svg" width="200" height="200" viewBox="0 0 200 200">
  <path class="color-yellow color-main" fill="#fcea18" d="M100 0A100 100 0 0 0 0 100a100 100 0 0 0 100 100 100 100 0 0 0 100-100A100 100 0 0 0 100 0zM30.738 34.746c1.186-.036 2.299.659 3.225 2.072.916 1.399.961 2.077.334 5.137-.268 1.307-.401 2.237-.402 3.078l2.738.424c4.357.676 12.513.408 19.496-.64 8.324-1.25 13.176-1.175 24.115.38 8.168 1.161 9.867 1.226 14.77.559 7.201-.98 12.965-.446 23.785 2.205 12.06 2.955 15.747 3.386 29.088 3.4 12.11.014 18.512.765 27.38 3.221 2.574.713 4.916 1.439 5.204 1.611.287.173-.68.914-2.15 1.647-3.87 1.93-10.014 7.886-15.64 15.166-5.32 6.886-9.756 11.206-14.146 13.78-2.492 1.46-2.677 1.716-1.666 2.302 10.11 5.863 15.044 10.776 25.43 25.332l7.326 10.267-6.703.399c-3.686.218-8.527.706-10.758 1.086-5.678.966-10.962.867-15.312-.287-4.132-1.096-8.41-.863-12.827.699-5.278 1.867-11.37 1.867-18.933.004-7.511-1.85-8.298-1.818-16.26.685-6.697 2.106-14.568 2.558-21.564 1.237-8.664-1.636-14.103-1.87-18.993-.815-2.402.518-4.83 1.125-5.396 1.35a1.423 1.423 0 0 1-1.098-.02c.304 1.987.58 3.834.79 5.383.96 7.092 1.546 10.098 6.238 32.004 2.622 12.244 2.6 12.484-1.301 13.264-1.475.295-2.307.046-3.598-1.078-1.64-1.43-1.852-2.527-9.465-48.883-4.283-26.082-8.75-53.035-9.927-59.899-1.178-6.863-2.47-14.725-2.87-17.47-.806-5.531-1.57-7.384-3.968-9.625-2.173-2.03-2.099-4.348.21-6.56.959-.919 1.926-1.387 2.848-1.415zm3.205 11.152c.088.727.283 1.457.608 2.391 1.365 3.92 7.396 28.262 9.97 40.246 1.83 8.519 4.685 24.353 6.598 36.266a268.486 268.486 0 0 1-.082-9.38c.116-16.722-1.203-27.131-5.07-40.026-1.739-5.798-5.7-15.288-8.403-20.131-1.2-2.15-2.558-5.338-3.02-7.084l-.6-2.282zm67.586 16.344c-1.549-.099-4.477 1.779-19.513 11.91-10.141 6.833-18.438 12.632-18.438 12.885 0 .372 27.45 22.979 34.608 28.502 1.016.785 2.335 1.299 2.931 1.143.596-.156 9.367-6.701 19.488-14.545 10.122-7.844 18.348-14.46 18.282-14.703-.188-.683-34.845-24.305-36.748-25.047a1.978 1.978 0 0 0-.61-.145zm-.582.215c.133-.012.268-.011.408.004.937.101 2.154.849 5.041 2.72 10.747 6.966 32.186 21.77 32.186 22.225 0 .6-17.91 14.761-31.197 24.666-6.69 4.988-6.364 4.818-7.912 4.104-1.328-.613-24.68-19.563-34.61-28.086l-1.183-1.018.515-.418c2.42-1.966 25.119-17.417 31.463-21.416 1.701-1.072 3.505-2.135 4.01-2.365.497-.226.881-.38 1.28-.416zm1.014 4c-.981 0-3.548 1.472-8.615 4.943a7585.11 7585.11 0 0 1-12.926 8.82c-9.904 6.746-10.027 6.839-10.027 7.514 0 .622.679 1.233 9.582 8.614 12.936 10.724 20.61 16.683 21.484 16.683.157 0 .928-.415 1.713-.922 2.135-1.378 5.818-4.152 13.125-9.884 3.615-2.837 7.877-6.149 9.47-7.36 5.469-4.156 6.754-5.3 6.977-6.562-.257 1.13-1.683 2.434-5.265 5.1-2.625 1.951-9.302 7.148-14.838 11.548-5.537 4.4-10.592 7.993-11.233 7.983-.64-.01-7.481-5.216-15.203-11.569C78.484 95.013 71.641 89.295 71 88.658c-1.136-1.128-1.02-1.255 4.68-5.07 3.214-2.152 10.298-6.984 15.74-10.74 8.744-6.036 10.062-6.755 11.324-6.18.786.358 5.031 3.243 9.436 6.41 4.404 3.167 9.557 6.6 11.45 7.627 4.52 2.453 8.594 5.364 9.005 6.434.07.185.117.363.14.54-.027-.564-.248-.901-1.158-1.76-1.393-1.314-3.62-2.837-6.963-4.755-2.984-1.713-6.761-4.222-13.687-9.094-6.528-4.591-8.169-5.613-9.006-5.613zm4.236 14.691c-.435-.056-.78.224-1.02.848-.422 1.102 2.88 8.462 5.143 11.46 1.809 2.395 2.732 2.513 4.817.622 1.448-1.314 5.386-9.758 5.386-11.55 0-1.358-1.845-1.616-3.144-.44-.674.61-1.225 1.41-1.225 1.781 0 .37-.765 2.14-1.703 3.93l-1.527 2.916c.366-.235.785-1.236 1.654-3.02.945-1.94 1.719-3.7 1.719-3.914 0-.568 1.629-2.102 2.416-2.275 1.015-.223 1.596.185 1.596 1.123 0 .958-1.138 3.952-2.659 6.994-1.512 3.026-2.326 4.229-3.355 4.967-1.236.886-1.95.809-3.055-.334-1.716-1.776-4.235-6.41-5.44-10.004-.63-1.882-.65-2.044-.32-2.549.459-.7.612-.681 1.602.186 1.043.913 2.169 2.65 3.852 5.94.833 1.629 1.26 2.575 1.615 2.849l-2.31-4.43c-1.688-3.234-3.084-4.976-4.042-5.1zm-19.025.079a4.946 4.946 0 0 0-1.25.154c-1.583.397-1.588.426-1.588 7.275v6.88l4.836-.184c4.693-.177 4.834-.229 4.834-1.743 0-1.382-.293-1.58-2.586-1.748l-2.588-.19-.223-4.907c-.122-2.7-.42-5.106-.66-5.346-.12-.12-.408-.185-.775-.191zm.033.197c.884.102.973.51 1.287 5.894l.262 4.48 2.076.138c2.668.175 2.961.332 2.961 1.578 0 .575-.133 1.076-.326 1.236-.282.234-5.255.638-8.213.668l-.852.008.079-6.406c.042-3.524.16-6.582.261-6.795.221-.468 1.568-.905 2.465-.801zm45.574 6.308c.01.098-.005.196-.011.293.005-.075.02-.146.02-.224 0-.025-.008-.044-.009-.069zm-33.502 4.63c-1.533 0-2.123 1.093-1.195 2.212.925 1.115 2.276 1.179 2.643.127.442-1.269-.221-2.34-1.448-2.34zm22.11.085c-.688-.088-1.43.252-1.65 1.094-.406 1.55.059 2.045 1.697 1.81.796-.114 1.273-.648 1.273-1.43 0-.87-.633-1.386-1.32-1.474zm-.186.082c.168 0 .337.078.611.23.74.412.947 1.523.387 2.083-.462.462-1.963.477-2.34.023-.418-.504-.003-1.695.735-2.107.271-.152.439-.229.607-.229zm-21.82.016c.39.033.746.168.95.392.489.541.468 1.66-.04 2.12-.491.444-.642.446-1.426.021-1.074-.583-1.43-1.891-.633-2.318.335-.18.76-.248 1.149-.215z"/>
  <path class="color-red" fill="red" d="M51.4 128.724c-.248-.4-.412-6.387-.364-13.302.117-16.723-1.202-27.131-5.07-40.027-1.738-5.797-5.7-15.288-8.402-20.132-1.2-2.15-2.558-5.338-3.019-7.084l-.837-3.175 2.924.453c4.358.676 12.513.408 19.496-.641 8.325-1.25 13.178-1.174 24.117.381 8.167 1.161 9.865 1.225 14.768.559 7.201-.98 12.967-.446 23.786 2.205 12.061 2.955 15.748 3.385 29.089 3.4 12.11.014 18.51.766 27.38 3.222 2.573.713 4.914 1.437 5.202 1.61.288.172-.68.913-2.15 1.646-3.87 1.93-10.012 7.887-15.638 15.167-5.322 6.886-9.757 11.206-14.147 13.78-2.492 1.46-2.676 1.715-1.665 2.301 10.109 5.863 15.042 10.778 25.428 25.334l7.326 10.267-6.702.397c-3.686.218-8.527.708-10.758 1.087-5.678.966-10.961.867-15.312-.287-4.132-1.096-8.412-.863-12.827.699-5.28 1.867-11.37 1.868-18.933.005-7.511-1.85-8.297-1.818-16.26.685-6.696 2.105-14.568 2.556-21.564 1.235-8.663-1.636-14.103-1.869-18.993-.814-2.402.518-4.83 1.126-5.396 1.35-.566.225-1.232.08-1.48-.32zm69.205-26.588c10.121-7.844 18.348-14.46 18.282-14.702-.187-.683-34.845-24.304-36.748-25.047-1.57-.612-2.938.187-20.123 11.766-10.14 6.833-18.437 12.63-18.437 12.884 0 .372 27.45 22.978 34.606 28.501 1.017.785 2.336 1.3 2.933 1.143.596-.156 9.365-6.7 19.487-14.545z"/>
  <path class="color-black" d="M86.205 101.365c-7.721-6.353-14.563-12.07-15.204-12.707-1.136-1.128-1.02-1.254 4.68-5.07 3.214-2.151 10.297-6.985 15.74-10.741 8.744-6.035 10.06-6.754 11.323-6.179.785.358 5.031 3.242 9.436 6.41 4.404 3.166 9.557 6.599 11.45 7.627 4.52 2.453 8.594 5.364 9.004 6.433.595 1.55-.328 2.673-5.156 6.264-2.624 1.952-9.301 7.15-14.838 11.55-5.537 4.4-10.591 7.992-11.231 7.982-.64-.01-7.482-5.216-15.204-11.569zm7.8-7.755c0-1.383-.294-1.581-2.588-1.748l-2.587-.19-.223-4.908c-.122-2.7-.42-5.106-.66-5.346-.24-.24-1.15-.257-2.025-.038-1.582.397-1.589.427-1.589 7.277v6.878l4.836-.183c4.693-.177 4.836-.228 4.836-1.742zm6.72 1.092c.442-1.269-.22-2.34-1.447-2.34-1.533 0-2.124 1.093-1.195 2.211.925 1.115 2.274 1.18 2.641.129zm14.412-.624c1.449-1.314 5.386-9.758 5.386-11.55 0-1.358-1.844-1.616-3.143-.44-.674.61-1.225 1.411-1.225 1.782 0 .37-.767 2.138-1.704 3.929l-1.705 3.255-2.507-4.805c-2.454-4.704-4.295-6.251-5.062-4.253-.423 1.101 2.88 8.461 5.143 11.458 1.808 2.396 2.732 2.515 4.817.624zm7.57-.156c0-1.74-2.53-2.065-2.971-.38-.405 1.549.06 2.045 1.697 1.81.797-.114 1.274-.65 1.274-1.43zM53.91 178.598c-1.641-1.429-1.854-2.526-9.466-48.882-4.283-26.082-8.75-53.037-9.928-59.9-1.178-6.864-2.469-14.726-2.869-17.471-.806-5.53-1.57-7.383-3.97-9.624-2.172-2.03-2.097-4.347.213-6.56 2.19-2.098 4.426-1.856 6.072.657.917 1.398.96 2.077.334 5.137-.602 2.937-.56 3.996.255 6.334 1.365 3.92 7.395 28.262 9.97 40.246 2.395 11.15 6.56 34.894 8.048 45.873.96 7.092 1.547 10.1 6.239 32.005 2.622 12.243 2.599 12.483-1.302 13.263-1.475.295-2.305.046-3.596-1.078z"/>
  <path class="color-white" fill="#fff" d="M99.473 116.175c-1.328-.612-24.68-19.563-34.61-28.086l-1.183-1.016.515-.418c2.42-1.967 25.118-17.417 31.462-21.416 1.701-1.072 3.506-2.137 4.011-2.366 1.769-.803 2.107-.687 6.728 2.308 10.746 6.965 32.186 21.77 32.186 22.226 0 .6-17.911 14.76-31.198 24.665-6.69 4.988-6.362 4.818-7.911 4.103zm3.698-4.065c2.135-1.378 5.82-4.154 13.127-9.886 3.615-2.837 7.877-6.149 9.47-7.36 6.177-4.694 7.02-5.542 7.02-7.064 0-.649-.193-.96-1.17-1.881-1.393-1.315-3.622-2.836-6.964-4.754-2.985-1.713-6.762-4.223-13.688-9.094-6.528-4.592-8.168-5.614-9.005-5.614-.981 0-3.548 1.473-8.616 4.944a7829.92 7829.92 0 0 1-12.925 8.82c-9.904 6.745-10.028 6.838-10.028 7.513 0 .622.68 1.233 9.582 8.613 12.936 10.724 20.61 16.684 21.484 16.684.157 0 .928-.415 1.713-.921z"/>
  <path class="color-white" fill="#fff" d="M84.479 89.02c.042-3.524.16-6.582.26-6.795.222-.468 1.57-.906 2.467-.802.884.103.973.511 1.287 5.895l.262 4.482 2.076.136c2.668.175 2.96.33 2.96 1.577 0 .576-.132 1.077-.325 1.237-.282.234-5.257.638-8.214.668l-.851.008zm14.387 6.059c-1.074-.583-1.432-1.892-.633-2.319.67-.358 1.69-.272 2.097.177.49.54.469 1.661-.039 2.12-.491.445-.641.447-1.425.022zm12.375-.823c-1.716-1.775-4.235-6.408-5.44-10.003-.63-1.882-.65-2.045-.32-2.55.458-.699.61-.681 1.6.186 1.043.913 2.17 2.65 3.853 5.94 2.015 3.938 1.655 3.95 3.645-.133.945-1.94 1.719-3.703 1.719-3.916 0-.568 1.628-2.1 2.415-2.273 1.016-.223 1.596.185 1.596 1.122 0 .958-1.138 3.952-2.659 6.994-1.512 3.026-2.325 4.23-3.355 4.968-1.236.886-1.95.808-3.054-.335zm8.618.609c-.418-.504-.003-1.695.735-2.108.543-.304.67-.303 1.219.002.74.412.945 1.523.386 2.083-.462.462-1.963.477-2.34.023z"/>
</svg>
