<svg xmlns="http://www.w3.org/2000/svg" width="200" height="200" viewBox="0 0 200 200">
  <path class="color-black" d="M85.861 195.907c-12.66-1.857-22.85-5.173-34.522-11.234l-9.957-5.17-11.556-11.043-11.557-11.042-5.72-10.48c-3.146-5.765-7.08-15.532-8.74-21.706L.786 114.007V90.191l3.021-11.225c1.662-6.173 5.611-15.94 8.777-21.705L18.34 46.78l11.573-11.056 11.572-11.056 12.969-6.035c7.133-3.319 17.078-7.024 22.1-8.233l9.13-2.198 13.847.021 13.848.022 9.958 2.223c34.531 7.712 63.355 34.474 72.942 67.727l2.695 9.346-.03 16.014-.03 16.013-4.201 11.632c-5.72 15.84-13.3 27.32-25.573 38.733l-10.326 9.603-11.995 5.92c-19.343 9.548-41.375 13.325-60.96 10.451zm38.225-5.73c6.58-1.599 16.513-5.303 22.075-8.232l10.112-5.325 11.656-11.165 11.655-11.165 5.563-10.81c3.06-5.945 6.685-15.06 8.057-20.254l2.496-9.444-.71-15.304-.71-15.304-3.944-10.637c-5.199-14.019-14.748-27.69-26.255-37.59l-9.34-8.036-12.255-5.742-12.255-5.743-11.489-2.3-11.49-2.3-12.254.778-12.255.777-12.255 3.701-12.255 3.701-9.411 5.868c-10.816 6.744-25.655 21.243-31.587 30.862-2.239 3.63-5.926 11.769-8.194 18.086L4.917 86.086l-.128 14.557-.129 14.558 2.06 8.007c3.045 11.83 11.266 27.195 19.985 37.353l7.696 8.965 11.45 7.278c18.308 11.637 32.371 15.844 53.88 16.121l12.393.16zm-28.214-6.07-.108-6.793-1.915-.735c-1.053-.403 1.015-.786 4.596-.849l6.51-.115v11.647l4.213.102 4.212.103-3.063 1.25c-1.685.689-3.926 1.298-4.979 1.354l-1.915.102v-11.646h-4.595l-.108 3.276c-.06 1.801-.7 4.585-1.424 6.186l-1.317 2.912zM84.1 182.874l1.059-6.29-1.974-1.19-1.974-1.19 4.122-.024c2.267-.014 4.549.633 5.07 1.434l.946 1.456h-4.776v5.009c0 2.755-.795 5.476-1.766 6.046l-1.765 1.037zm29.48 2.568c-.508-1.802-.933-5.077-.945-7.28l-.02-4.002 4.212.092 4.213.092-3.545 1.352-3.546 1.35 1.02 1.568c.56.862 1.961 1.224 3.113.804 1.151-.42 2.501-.137 2.999.628l.905 1.393h-6.308v4.367l4.213.103 4.212.102-3.063 1.251c-4.955 2.024-6.481 1.651-7.46-1.82zm-37.99 1.088c-1.075-1.022 2.037-11.654 3.911-13.366l1.302-1.188-1.144 5.095c-1.617 7.208-3.016 10.46-4.069 9.459zm-7.123-2.34-3.554-1.277 1.077-3.285c2.374-7.24 3.861-10.198 4.718-9.384.495.47.11 3.012-.858 5.647l-1.757 4.791 2.617 1.819c3.438 2.389 2.232 3.297-2.243 1.689zm59.424-4.282c-.925-1.643-1.466-4.427-1.203-6.187l.48-3.2 4.212-.462 4.213-.46v3.301l-2.883-.87-2.882-.869-.942 2.333c-1.196 2.963 1.546 7.944 4.372 7.944 3.317 0 4.226-2.575 1.433-4.06l-2.497-1.329 2.523-.92 2.524-.92.871 2.159c.48 1.187.476 3.142-.01 4.342l-.881 2.184h-7.648l-1.682-2.986zm-74.251-2.216-3.061-2.198 3.566-6.126 3.567-6.127-5.427 5.823c-2.984 3.203-5.452 5.136-5.484 4.295-.031-.84.799-2.342 1.845-3.336l1.902-1.808-2.285-1.368-2.285-1.368-1.9 2.414c-1.044 1.328-2.336 1.999-2.87 1.49-.536-.508.88-3.016 3.144-5.573l4.117-4.65-2.011-1.244-2.012-1.244-4.045 4.495c-2.225 2.472-4.444 3.882-4.932 3.132-.487-.75.836-2.9 2.942-4.78 2.105-1.879 3.484-4.267 3.064-5.306-1.15-2.848.96-2.278 5.597 1.512l4.158 3.399-1.784 1.694-1.783 1.695 1.773 1.686 1.773 1.685 2.179-1.718 2.178-1.718 4.77 2.58c5.247 2.838 6.73 5.854 1.595 3.242-4.417-2.247-5.545-.57-2.07 3.078l2.884 3.03-4.17-.995-4.172-.995v1.66c0 .912 1.034 2.036 2.298 2.497 2.344.855 3.232 3.475 1.149 3.391-.632-.023-2.527-1.035-4.21-2.244zm85.123-3.333c-3.527-6.571-3.754-7.478-1.871-7.478 1.698 0 7.111 11.418 5.94 12.53-.494.47-2.325-1.804-4.069-5.052zm4.864-2.78c-.905-3.759-1.312-7.347-.905-7.973.408-.627 3.24.818 6.295 3.211 6.865 5.378 8.58 4.48 2.66-1.392-4.963-4.923-4.202-7.115 1.598-4.604 5.695 2.466 6.236 2.103 2.5-1.676l-3.33-3.368 4.832-4.274 4.83-4.275-.886 2.38-.887 2.38 4.464 4.065c2.455 2.236 4.12 4.392 3.698 4.792-.421.4-2.77-1.097-5.22-3.328l-4.456-4.056-1.696.996-1.696.996 3.87 4.37c2.127 2.403 3.869 4.958 3.869 5.678v1.308l-3.93-1.42c-5.32-1.922-5.964-1.794-3.746.745 1.04 1.191 1.463 3.224.94 4.519l-.95 2.353-2.479-.904c-2.722-.993-7.113 1.68-5.878 3.578.425.654.183 1.537-.539 1.96-.722.425-2.053-2.303-2.958-6.062zm2.97-3.558-1.813-1.723v1.505c0 1.943 1.812 3.664 2.834 2.693.435-.414-.024-1.527-1.021-2.475zm-59.838 3.042c-4.532-.715-12.63-3.291-17.994-5.725l-9.755-4.424-8.95-7.874-8.948-7.873-5.03-8.969c-6.45-11.499-9.212-21.498-9.235-33.43-.036-19.13 7.216-35.868 21.504-49.632C62.412 39.592 79.448 33 100.464 32.967l11.594-.017 8.32 2.32c25.576 7.13 45.06 27.026 51.338 52.422l2.482 10.04-.927 9.79c-1.675 17.68-11.337 36.337-24.436 47.182-3.492 2.891-11.174 7.445-17.072 10.118l-10.723 4.862-9.957 1.499c-11.267 1.696-12.87 1.688-24.324-.12zm33.324-5.47c12.772-3.777 21.075-8.701 30.298-17.968 8.731-8.773 12.78-15.476 16.446-27.23l2.467-7.906V91.44l-2.902-8.861c-7.803-23.826-29.275-41.325-56.054-45.684l-9.982-1.625-11.105 1.768-11.104 1.769-9.648 4.604-9.648 4.604-8.946 9.088c-10.71 10.88-16.223 21.335-18.668 35.408l-1.813 10.431 1.915 10.183c4.822 25.644 24.39 46.174 50.638 53.125 3.791 1.005 11.83 1.885 17.863 1.956l10.97.13zm2.973-15.604-2.58-2.465-6.612 1.675-6.611 1.676-14.553-.554c-8.004-.305-15.216-.634-16.027-.732-.81-.097.787-1.979 3.55-4.18l5.023-4.004.28-14.558.28-14.558h-4.595l.248 6.915.248 6.915h-9.534l1.838-1.747 1.838-1.747v-19.463l-3.667-2.283-3.666-2.284-1.084 15.766-1.084 15.766 1.731 3.074c.952 1.691 3.5 3.496 5.662 4.012l3.931.937-2.06 1.241c-1.133.683-3.784 1.272-5.89 1.31-2.106.038-5.168 1.03-6.803 2.206-3.261 2.344-9.398 2.858-10.675.894-.445-.683.905-1.985 3-2.891l3.807-1.65-.409-36.735-.41-36.736-3.487-1.651-3.487-1.652 2.167-1.709 2.167-1.71 4 1.733 3.999 1.731 8.044-1.671c4.424-.92 9.415-1.85 11.09-2.07 4.22-.55 4.66-4.688.878-8.281l-3.158-3.001h2.973c1.636 0 3.4-.655 3.92-1.456 1.062-1.633 16.518-2.015 18.166-.45.582.555-1.19 1.701-3.94 2.549l-4.998 1.54-2.108 4.185-2.108 4.184 6.382 5.278 6.382 5.278 1.955 6.391 1.955 6.391-4.666 8.167c-2.566 4.492-4.472 9.6-4.235 11.352.237 1.753-.656 4.763-1.985 6.69l-2.416 3.504 2.296 5.22c1.262 2.872 3.021 5.648 3.91 6.17l1.614.948-.443-13.587-.442-13.586 4.596-1.456 4.596-1.456.448-12.19.448-12.192-2.572-2.7-2.571-2.7 2.518-.918 2.518-.919 3.764 2.344 3.764 2.344h23.086l3.064-2.912 3.064-2.911v9.343c0 5.139.449 10.456.998 11.816l.998 2.472-3.173-1.614c-1.746-.888-3.948-3.843-4.894-6.567l-1.72-4.953-3.38-.861c-1.86-.474-5.278-.87-7.595-.882l-4.213-.02-3.063 2.912-3.064 2.911v17.47h1.492c.821 0 2.588 2.011 3.926 4.47l2.432 4.47 2.301-1.815 2.3-1.814-.882-3.345-.884-3.345 2.199.802c1.209.44 2.621 1.85 3.139 3.131l.94 2.33-2.229 2.118-2.228 2.118 1.608 3.354c1.72 3.586.756 7.906-1.763 7.906-.842 0-1.194-.837-.78-1.861.413-1.024-.17-3.06-1.296-4.523l-2.048-2.662-2.734 3.965-2.734 3.965 2.61 5.498c1.434 3.024 4.088 6.208 5.896 7.076l3.288 1.576-5.274-.33-5.273-.33-1.605-5.095-1.606-5.095-.48 8.583-.481 8.583 1.55 1.473 1.55 1.473 2.363-1.863 2.362-1.864v4.724h10.604l3.106-3.168c1.708-1.743 3.505-4.363 3.993-5.823 1.86-5.568 2.958-2.274 2.474 7.417l-.504 10.079-2.943-2.797-2.943-2.797h-15.15l-.468 6.618-.466 6.617zm-5.583-7.354c4.27-3.673 3.368-4.784-2.613-3.214-5.785 1.518-11.437.574-11.437-1.91 0-.832 1.014-1.143 2.254-.691 1.24.452 3.307-.18 4.595-1.404l2.343-2.226v-20.173h-4.995l.761 6.415.761 6.414-4.394.613-4.393.612-2.096-2.295c-1.152-1.263-2.52-3.279-3.038-4.48-.519-1.2-.764 2.958-.546 9.242l.398 11.426 2.936 2.04 2.936 2.04h13.726zm-42-44.52-.631-1.8 5.865-2.496 5.866-2.496V60.61H83.46c-7.706 0-18.334 7.246-18.334 12.5 0 .913 1.692 3.268 3.759 5.232l3.759 3.573-3.078 2.504-3.078 2.504 1.072 3.22c1.504 4.522 5.298 9.772 7.061 9.772.816 0 1.2-.81.852-1.8zm23.355-12.03c0-3.508-.676-6.775-1.5-7.26l-1.501-.881 1.798-2.736 1.798-2.736-1.797-3.748c-.988-2.06-2.328-3.748-2.978-3.75-1.21-.004-.862 23.937.397 27.39 1.407 3.861 3.783-.082 3.783-6.278zm-86.249 42.02c-.588-.558-1.069-2.474-1.069-4.256v-3.241l2.668-.973 2.667-.973 2.56 3.004 2.56 3.004 2.432-.887c1.338-.488 2.432-.243 2.432.543s-1.895 1.793-4.212 2.237c-2.317.444-5.283 1.202-6.591 1.683-1.308.482-2.859.418-3.447-.14zm5.059-4.17c0-1.2-.649-2.183-1.442-2.183-1.931 0-3.315 2.273-2.09 3.436 1.724 1.64 3.532.999 3.532-1.252zm160.464-2.3-2.68-1.483v-6.938l3.174-.958c1.746-.526 4.802-.57 6.791-.095l3.617.863 1.056 3.161 1.056 3.161-2.778 1.931c-3.287 2.284-6.55 2.398-10.236.358zm9.286-3.87c-.558-2.755-4.622-4.047-8.399-2.67l-2.38.868 1.891 2.167c1.041 1.191 3.582 2.166 5.647 2.166h3.754zm-177.41-1.69c0-1.244 7.418-3.096 12.064-3.013l2.49.042-2.298 1.212c-3.587 1.89-12.255 3.133-12.255 1.757zm-1.41-9.245c.066-2.602.468-3.912.893-2.911l.773 1.82 7.149.167 7.148.168-6.064 1.108c-3.336.61-6.323 1.845-6.638 2.744-1.215 3.464-3.377 1.413-3.261-3.095zm170.105.475c-2.554-1.5-1.716-5.894 1.49-7.812 3.243-1.94 9.987-.228 11.23 2.852l.992 2.455-2.403 2.283-2.403 2.283.432-3.574.431-3.574-2.77-.546c-1.524-.301-3.842-.156-5.151.321l-2.381.868 1.923 2.202c2.28 2.611 1.468 3.92-1.39 2.242zM8.447 95.548c0-2.402.689-4.367 1.532-4.367.842 0 1.531.655 1.531 1.456 0 .8 1.896 1.465 4.213 1.478 2.317.012 5.247.657 6.51 1.433l2.298 1.411-6.51.023-6.51.022v1.456c0 .8-.69 1.455-1.532 1.455-.843 0-1.532-1.965-1.532-4.367zm169.035-7.03c3.399-3.568 3.195-4.608-.911-4.66l-3.447-.044 2.298-1.225c1.263-.674 4.93-1.675 8.146-2.224l5.848-1-.487 4.817-.486 4.815h-4.077c-2.242 0-4.597.492-5.234 1.092-2.51 2.37-4.027.926-1.65-1.57zm10.195-3.888c0-1.201-1.034-2.184-2.298-2.184s-2.298.983-2.298 2.184c0 1.2 1.034 2.184 2.298 2.184s2.298-.983 2.298-2.184zM21.088 87.229c3.847-4.064 1.302-5.43-2.985-1.603l-3.592 3.207-2.323-2.207-2.322-2.207.986-2.442c.542-1.343 2.03-2.442 3.308-2.442h2.321l-1.938 2.219c-1.065 1.22-1.443 2.688-.838 3.263.604.574 1.77-.097 2.592-1.491l1.493-2.536h7.71l-.484 3.991-.485 3.991-3.063.546-3.064.545zM19.556 76.58l-6.507-2.747 1.775-3.7c1.797-3.75 4.949-4.852 6.602-2.309.498.766 1.807 1.063 2.909.662 1.102-.402 2.818.202 3.814 1.342l1.81 2.073-1.527 3.816c-.84 2.1-1.716 3.77-1.948 3.714-.231-.057-3.349-1.34-6.928-2.85zm7.273-3.683c0-2.402-2.42-2.808-3.83-.642-1.249 1.92.583 4.647 2.404 3.577.784-.46 1.426-1.781 1.426-2.935zm-6.127-1.491c0-2.571-3.298-2.123-4.245.576-.333.95.485 1.729 1.82 1.729 1.333 0 2.425-1.038 2.425-2.305zm153.716 5.466c3.394-3.565 3.198-5.121-.528-4.195-1.685.418-3.064.238-3.064-.4 0-1.327 12.3-6.287 13.281-5.355.354.336.785 2.492.958 4.79l.314 4.18-3.83.488c-2.106.269-4.484 1.088-5.285 1.821-2.745 2.514-4.382 1.334-1.845-1.33zm8.663-5.345c0-1.201-.649-2.184-1.441-2.184-1.932 0-3.316 2.274-2.092 3.437 1.725 1.64 3.533.998 3.533-1.253zM24.914 64.144c-2.317-1.194-4.212-2.86-4.212-3.7v-1.527l5.24 3.077 5.24 3.078 1.02-1.567c1.268-1.95-1.626-5.405-5.511-6.576-1.61-.486-2.926-1.494-2.926-2.24 0-2.308 2.207-1.523 7.442 2.645l5.028 4.004-1.037 2.547c-1.255 3.082-4.642 3.168-10.284.26zM163.51 61.47l-1.681-3.506 5.961-3.75 5.961-3.748 2.333 3.164c2.82 3.827 1.472 5.898-1.406 2.16l-2.025-2.633-.918 1.411c-.505.777-.471 2.518.075 3.87l.993 2.46-3.216-1.909c-3.642-2.161-6.402-.692-3.637 1.936 2.11 2.005 2.376 4.052.527 4.052-.707 0-2.042-1.578-2.967-3.507zM32.598 53.413l-5.003-4.285 3.54-3.358 3.54-3.357 2.607 3.01c1.433 1.654 3.976 3.764 5.65 4.686l3.046 1.678-5.216.044-5.216.044 2.772 2.911 2.773 2.912h-1.745c-.96 0-3.997-1.928-6.748-4.285zm3.135-5.814.67-1.91-2.01.636c-1.106.35-2.312 1.497-2.68 2.548l-.671 1.91 2.01-.637c1.106-.35 2.313-1.496 2.681-2.547zm122.838 7.46c0-1.439 9.726-9.007 11.574-9.007 1.649 0-2.424 4.197-7.225 7.446-2.392 1.618-4.35 2.32-4.35 1.56zm-2.31-5.731c.732-4.94-.414-5.928-3.486-3.009-.997.947-2.294 1.265-2.882.706-.589-.56 1.25-3.292 4.087-6.072l5.156-5.056 2.781 2.391c3.57 3.07 3.559 6.388-.026 7.279-1.544.383-3.6 2.451-4.568 4.594l-1.761 3.898.7-4.731zm6.074-6.087c1.133-1.742-1.749-3.468-3.79-2.27-1.712 1.007-.588 3.625 1.558 3.625.743 0 1.747-.61 2.232-1.355zm-120.127 1.08c-3.393-3.46-3.592-4.15-2.194-7.612l.93-2.303 4.049.092 4.048.092-3.446 1.317c-3.966 1.515-4.468 4.616-1.169 7.218 2.537 2 6.913 1.019 6.913-1.55v-1.658l-2.298.838c-2.59.945-3.162-1.302-.698-2.75 1.675-.983 6.06 1.732 6.06 3.754 0 1.907-4.64 5.749-6.943 5.749-1.171 0-3.534-1.434-5.252-3.186zm101.33-2.028-3.36-2.236 1.493-2.462c.822-1.354 2.758-3.98 4.303-5.835l2.81-3.375 3.744 2.962c2.06 1.63 2.924 2.984 1.92 3.01-1.003.027-2.287-.663-2.853-1.534l-1.03-1.582-1.659 1.577-1.66 1.577 2.982 2.143c3.253 2.338 1.314 3.03-2.34.834l-2.257-1.357-1.08 1.66-1.078 1.659 2.568 1.784c3.817 2.652 1.412 3.781-2.504 1.175zm-89.61-6.795c-3.74-6.01-4.148-9.974-.549-5.33.985 1.27 2.65 2.034 3.702 1.698l1.912-.613-.86-3.882-.862-3.883 3.92 5.823c4.11 6.105 5.39 10.682 1.69 6.041-1.18-1.481-2.884-2.26-3.786-1.73l-1.64.962.938 3.55c1.381 5.23-.122 4.342-4.465-2.636zm73.748-1.142-2.555-1.417 2.404-5.817c2.377-5.75 3.98-6.658 8.708-4.934 3.844 1.401 2.813 3.15-1.406 2.384-4.466-.811-4.96.68-1.15 3.468L136.36 30l-3.661-.344-3.661-.345-.68 1.82-.679 1.82h2.335c1.284 0 2.761.654 3.282 1.455 1.2 1.844-2.259 1.814-5.62-.05zm-55.381-2.498c-.37-.6-.582-3.712-.473-6.915l.198-5.823h4.595l.044 3.264c.024 1.795.59 3.105 1.256 2.912.668-.194 1.935.872 2.816 2.368l1.602 2.721-2.093 1.26c-2.59 1.56-7.044 1.679-7.945.213zm5.086-1.733c0-.754-.69-1.775-1.532-2.27l-1.531-.9v2.27c0 1.248.689 2.27 1.531 2.27s1.532-.617 1.532-1.37zm42.74-1.178-1.608-4.004-1.97 2.548c-3.127 4.046-3.618 3.025-1.926-4.003.868-3.603 2.197-6.551 2.954-6.551h1.378l-1.073 3.275-1.073 3.276 3.005-2.548c1.653-1.401 3.985-2.527 5.182-2.501l2.177.046-2.866 2.062-2.866 2.063 1.02 5.17c1.215 6.148-.073 6.792-2.333 1.167zm-30.267-6.551.217-7.643.932 5.823.931 5.823 3.47.468c4.493.606 2.852 3.172-2.028 3.172h-3.74zm17.768 5.185-2.513-2.387-2.375 1.872-2.375 1.873v-1.584c0-2.353 4.995-11.874 6.23-11.874 1.15 0 4.988 13.117 4.088 13.972-.298.284-1.673-.558-3.055-1.872zm-.581-5.55c-.485-1.2-1.153-2.183-1.484-2.183-.331 0-.602.983-.602 2.184 0 1.2.668 2.184 1.484 2.184s1.087-.983.602-2.184z"/>
</svg>
