<svg xmlns="http://www.w3.org/2000/svg" width="200" height="200" viewBox="0 0 200 200">
  <path class="color-red color-main" fill="red" d="M100-5A105 105 0 0 0-5 100a105 105 0 0 0 105 105 105 105 0 0 0 105-105A105 105 0 0 0 100-5zm61.668 59.709c.387.014.794.042 1.225.084 3.546.346 4.402 1.115 4.765 4.275.317 2.752-.185 3.852-1.752 3.852-1.207 0-2.193-.946-2.193-2.102 0-1.155-.996-2.101-2.213-2.101-1.658 0-2.027.966-1.475 3.853.406 2.119 1.141 6.53 1.635 9.805.569 3.769 1.625 5.953 2.877 5.953 2.414 0 2.609-4.413.297-6.724-1.273-1.274-1.289-2.075-.06-3.303 2.983-2.984 6.134 1.359 5.662 7.804-.386 5.263-.768 5.757-4.74 6.145-2.408.235-5.02-.418-5.9-1.477-.866-1.044-2.284-6.464-3.15-12.043-1.733-11.17-.78-14.235 5.022-14.021zm-16.6 1.207c6.51 0 8.84 1.941 8.84 7.363 0 2.201.702 6.791 1.56 10.2 1.867 7.413.849 11.63-2.197 9.103-1.101-.914-2.196-3.615-2.433-6.002-.237-2.387-1.215-4.598-2.172-4.912-1.298-.426-1.515 1.06-.86 5.846.742 5.407.512 6.416-1.456 6.416-1.285 0-2.578-.787-2.877-1.75-.3-.963-.932-5.218-1.407-9.455-.474-4.238-1.225-9.752-1.67-12.256-.797-4.498-.74-4.553 4.672-4.553zm-8.85 1.4c1.256 0 2.282.585 2.282 1.3 0 .714.682 6.2 1.516 12.19 1.37 9.855 1.277 11.067-.97 12.71-3.26 2.384-6.864 2.301-9.38-.215-1.122-1.123-2.457-6.292-2.986-11.557-.527-5.239-1.295-10.686-1.707-12.105-.564-1.94-.11-2.458 1.836-2.088 2.108.401 2.846 2.557 3.988 11.666 1.153 9.196 1.866 11.264 4.037 11.681 2.142.412 2.488-.111 1.838-2.783-.44-1.81-1.238-7.23-1.77-12.045-.834-7.552-.652-8.754 1.317-8.754zm-27.462 1.4h6.418c7.821 0 8.636 1.225 10 15.04.994 10.07.976 10.146-2.733 11.557-6.274 2.385-10.168 1.772-10.996-1.733-.409-1.733-1.181-8.037-1.716-14.008l-.973-10.855zm-8.082.88c3.704-.016 7.48 1.957 6.812 5.402-.713 3.679-3.507 4.174-4.394.78-1.138-4.352-3.813-3.41-3.813 1.343 0 3.7.484 4.203 4.053 4.203 4.517 0 5.754 1.97 5.754 9.17 0 6.923-7.067 10.178-11.807 5.438-2-2.001-2.2-2.001-2.2 0 0 3.218-5.147 2.703-6.01-.602-.982-3.751-4.888-3.577-5.45.242-.554 3.768-3.946 5.162-3.959 1.627-.005-1.412.74-7.493 1.656-13.511 1.221-8.021 2.351-11.31 4.227-12.313 2.97-1.59 3.908.218 6.76 13 1.607 7.204 1.98 7.747 3.959 5.77 1.978-1.978 2.31-1.903 3.515.8 2.141 4.799 5.358 3.757 4.844-1.568-.368-3.816-1.073-4.625-4.363-5.002-4.402-.505-7.266-5.728-5.97-10.889.667-2.662 3.505-3.878 6.386-3.89zm46.931.521c-1.4 0-2.101 1.402-2.101 4.203 0 2.802.7 4.201 2.101 4.201s2.1-1.4 2.1-4.2c0-2.802-.699-4.204-2.1-4.204zm-106.851.78c4.558.006 4.659.555 5.053 4.677.273 2.86-.285 5.225-1.4 5.932-3.048 1.932-3.958 1.407-3.958-2.283 0-2.586-.742-3.502-2.844-3.502-3.413 0-4.778 2.938-3.582 7.707.714 2.841 1.74 3.498 5.473 3.498 2.528 0 5.353.757 6.277 1.681 1.923 1.923 2.246 16.27.432 19.133-1.954 3.085-13.204 3.753-16.006.951-2.973-2.972-3.055-8.59-.14-9.709 3.857-1.48 4.789-.945 4.789 2.75 0 2.932.583 3.515 3.15 3.15 1.733-.245 3.089-1.233 3.012-2.196-.077-.963-.234-3.642-.35-5.954-.183-3.664-.735-4.203-4.312-4.203-5.78 0-8.504-3.312-8.504-10.338 0-8.601 2.415-11.153 10.67-11.273.847-.012 1.589-.022 2.24-.022zm76.035.623c-1.4 0-2.102 1.4-2.102 4.2 0 2.802.701 4.204 2.102 4.204 1.4 0 2.102-1.402 2.102-4.203 0-2.802-.701-4.201-2.102-4.201zm-45.816.548c4.216-.2 5.673 3.613 6.595 15.338.91 11.566.804 12.353-1.613 11.895-1.866-.354-2.71-1.954-3.023-5.733-.618-7.444-3.067-6.515-3.067 1.164 0 5.345-.406 6.329-2.45 5.94-2.018-.384-2.577-2.445-3.153-11.645-.577-9.2-1.133-11.26-3.15-11.644-2.19-.417-2.452.894-2.452 12.242 0 9.657-.45 12.709-1.869 12.709-1.027 0-2.287-.42-2.8-.934-.514-.513-.934-5.871-.934-11.906 0-10.038-.238-10.973-2.801-10.973-4.409 0-3.423-4.165 1.049-4.43 12.108-.714 14.761-.969 17.685-1.702.722-.181 1.38-.292 1.983-.32zm-.407 3.653c-1.463 0-2.101 1.474-2.101 4.86 0 3.742.483 4.671 2.101 4.05 1.198-.46 2.1-2.548 2.1-4.858 0-2.668-.716-4.052-2.1-4.052zm15.565 4.902-.908 3.502c-1.035 3.987-.215 6.428 1.562 4.65.658-.658.78-2.76.272-4.673l-.926-3.479zm31.601 3.502c-2.046 0-2.436.843-1.943 4.203.345 2.352 1.474 4.201 2.56 4.201 1.225 0 1.942-1.552 1.942-4.2 0-3.136-.65-4.204-2.559-4.204zm49.36 11.469c5.664.099 6.712.942 5.758 2.486-.351.568-6.805 1.46-14.342 1.98-15.5 1.072-89.316 7.444-101.6 8.77-6.73.727-8.054.512-8.054-1.31 0-2.692-.412-2.64 67.935-8.53 28.105-2.421 43.02-3.524 50.303-3.396zm-51.174 16.545c10.227 0 11.71 1.565 12.379 13.05.277 4.764 1.121 12.747 1.877 17.74 1.506 9.956 1.07 12.633-2.053 12.633-2.964 0-3.93-2.186-4.885-11.039-.669-6.208-1.398-7.944-3.51-8.35-2.482-.475-2.604.163-1.755 9.292.761 8.196.548 9.939-1.301 10.648-2.942 1.13-3.057 1.108-4.234-.797-.91-1.473-4.489-32.102-4.676-40.025-.07-2.92.532-3.152 8.158-3.152zm53.494 1.013c2.014.002 3.889.371 4.73 1.213 2.584 2.584 5.357 24.347 3.403 26.701-1.974 2.379-10.932 2.486-11.664.14-.668-2.142-3.569-22.844-3.569-25.47 0-1.566 3.744-2.586 7.1-2.584zm-14.46 1.756c.99-.005 1.757.147 1.757.506 0 .26 1.84 6.602 4.09 14.094 3.29 10.96 3.714 13.766 2.168 14.36-2.5.958-4.858-.544-4.858-3.097 0-3.335-5.351-2.4-5.855 1.024-.246 1.673-1.29 3.32-2.32 3.66-1.527.503-1.691-2.075-.877-13.898.55-7.984 1.273-14.987 1.607-15.565.367-.634 2.636-1.076 4.287-1.084zm-16.616.653c4.277-.137 5.556 3.342 6.787 14.394 1.566 14.056.888 15.8-6.129 15.8-3.72 0-5.041-.724-6.023-3.308-.692-1.82-1.465-8.223-1.717-14.23l-.457-10.92 4.064-1.113c1.343-.368 2.488-.592 3.475-.623zm30.594.78c-2.534 0-2.694.644-1.846 7.354 1.86 14.718 2.409 16.46 5.19 16.46 1.46 0 2.644-.978 2.644-2.182 0-1.2-.722-6.558-1.606-11.907-1.357-8.221-2.035-9.724-4.382-9.724zm-51.291.138c-2.341.188-3.18 3.261-2.34 8.863.528 3.524 1.186 6.408 1.46 6.408s1.499-.384 2.718-.852c3.092-1.186 3.108-12.9.02-14.086-.699-.267-1.318-.377-1.858-.333zm-65.364 1.48c4.169-.08 6.578.43 7.53 1.576.876 1.056 1.891 8.076 2.257 15.602.367 7.525 1.083 16.46 1.592 19.855.885 5.9.773 6.172-2.584 6.172-4.179 0-5.213-2.195-5.213-11.086 0-7.35-.674-8.715-3.728-7.543-1.57.602-1.973 2.975-1.711 10.059.313 8.468.088 9.308-2.592 9.703-1.875.276-3.193-.483-3.654-2.102-.397-1.393-.925-11.357-1.172-22.142l-.45-19.61 7.83-.414c.669-.035 1.3-.059 1.895-.07zm84.604 1.184c-2.67 0-2.767.581-1.83 10.855 1.132 12.414 1.455 13.29 4.633 12.629 1.467-.305 2.254-1.748 2.14-3.928-.099-1.896-.618-7.072-1.152-11.502-.822-6.816-1.404-8.054-3.791-8.054zm-44.621.7c2.314 0 2.303-.045 3.53 14.757.851 10.286.967 10.552 4.595 10.505 2.449-.032 3.891.79 4.215 2.403.41 2.045-.557 2.451-5.832 2.451-3.478 0-6.611-.473-6.961-1.05-.35-.579-.86-7.354-1.133-15.057-.414-11.683-.15-14.008 1.586-14.008zm-7.748.7c2.306 0 3.103 3.896 4.086 19.96.594 9.72.402 10.856-1.828 10.856-2.054 0-2.647-1.661-3.383-9.455-1.477-15.638-1.176-21.361 1.125-21.361zm-13.744 1.47c.556 0 1.324.061 2.168.184 2.592.378 3.423 2.076 5.36 10.953 1.263 5.778 2.73 12.24 3.263 14.358.827 3.292.539 3.851-1.99 3.851-1.782 0-3.253-1.114-3.694-2.8-.998-3.815-5.69-3.635-6.26.24-.625 4.25-3.951 5.03-3.949.926.001-1.798.946-8.626 2.1-15.174 1.153-6.549 2.098-12.108 2.1-12.354 0-.123.345-.183.902-.183zm-20.135 1.483c-1.623.092-1.777 1.44-1.777 6.854 0 6.663.234 7.164 3.152 6.75 2.735-.389 3.152-1.28 3.152-6.75s-.417-6.364-3.152-6.752c-.547-.078-1-.123-1.375-.102zm102.746 3.375c-.525.059-.87 1.104-.87 3.197 0 3.136.66 4.483 2.196 4.483 1.625 0 1.947-.82 1.242-3.153-.92-3.048-1.893-4.602-2.568-4.527zm-81.414 5.623c-.357-.048-.598 1.132-.914 3.809-.436 3.692-.08 5.252 1.199 5.252 1 0 1.775-1.103 1.72-2.451-.053-1.349-.593-3.712-1.198-5.252-.337-.857-.593-1.329-.807-1.358zm104.195 13.418c3.73-.028 4.363.564 4.363 1.754 0 1.858-6.635 2.893-38.17 5.961-8.199.798-9.455.617-9.455-1.373 0-1.262.16-2.308.352-2.324.193-.019 9.174-.942 19.959-2.059 12.392-1.283 19.22-1.931 22.951-1.959zm-73.44 6.973c1.685.066 2.165.58 2.165 1.685 0 2.6-3.477 3.377-20.31 4.541-6.934.48-13.598 1.146-14.81 1.479-1.21.333-2.63.178-3.152-.344-3.103-3.103-.2-4.377 12.008-5.27 7.126-.52 15.952-1.313 19.611-1.761 2.035-.25 3.478-.37 4.489-.33z"/>
  <path class="color-yellow" fill="#fcea18" d="M44.172 150.196c-.397-1.393-.924-11.358-1.171-22.143l-.45-19.61 7.83-.414c5.346-.282 8.336.196 9.423 1.506.876 1.055 1.892 8.076 2.259 15.602.366 7.525 1.083 16.46 1.592 19.855.885 5.9.77 6.173-2.586 6.173-4.179 0-5.211-2.196-5.211-11.087 0-7.35-.675-8.714-3.729-7.542-1.57.602-1.973 2.974-1.711 10.059.312 8.468.088 9.307-2.592 9.702-1.874.276-3.193-.482-3.654-2.101zm10.986-29.847c0-5.47-.417-6.363-3.152-6.75-2.918-.415-3.152.086-3.152 6.75s.234 7.165 3.152 6.75c2.735-.388 3.152-1.28 3.152-6.75zm11.454 29.897c-3.103-3.103-.2-4.378 12.008-5.27 7.126-.52 15.95-1.313 19.61-1.762 5.425-.664 6.653-.414 6.653 1.356 0 2.599-3.476 3.376-20.31 4.541-6.934.48-13.598 1.145-14.81 1.478-1.21.334-2.629.18-3.15-.343zm45.823-4.93c-.91-1.473-4.489-32.102-4.676-40.025-.07-2.92.532-3.151 8.158-3.151 10.227 0 11.71 1.564 12.379 13.05.277 4.763 1.122 12.747 1.877 17.74 1.506 9.956 1.071 12.632-2.052 12.632-2.963 0-3.93-2.186-4.884-11.038-.67-6.209-1.4-7.944-3.51-8.35-2.484-.475-2.604.162-1.756 9.29.762 8.196.549 9.94-1.3 10.65-2.943 1.129-3.059 1.107-4.236-.798zm7.041-24.417c3.092-1.186 3.109-12.902.02-14.087-3.723-1.429-5.23 1.635-4.197 8.53.529 3.524 1.186 6.408 1.461 6.408s1.497-.383 2.716-.85zm13.421 21.354c0-1.262.158-2.307.35-2.323.193-.019 9.175-.943 19.96-2.06 24.784-2.566 27.315-2.585 27.315-.204 0 1.857-6.635 2.894-38.17 5.962-8.199.798-9.455.615-9.455-1.375zm-67.232-2.528c0-1.797.946-8.626 2.1-15.174 1.153-6.548 2.097-12.108 2.098-12.354.001-.246 1.383-.246 3.07 0 2.592.378 3.423 2.076 5.362 10.953 1.261 5.778 2.73 12.24 3.262 14.358.827 3.292.538 3.852-1.991 3.852-1.782 0-3.251-1.116-3.692-2.802-.998-3.815-5.691-3.635-6.262.24-.625 4.251-3.95 5.032-3.947.927zm8.304-10.622c-.054-1.348-.594-3.712-1.2-5.252-.897-2.284-1.215-1.831-1.721 2.45-.436 3.694-.08 5.254 1.2 5.254 1 0 1.775-1.103 1.72-2.452zm9.415 2.802c-1.476-15.638-1.175-21.361 1.125-21.361 2.306 0 3.104 3.895 4.086 19.96.595 9.72.403 10.856-1.827 10.856-2.053 0-2.648-1.662-3.384-9.455zm8.421 7.003c-.35-.577-.86-7.353-1.133-15.057-.414-11.683-.15-14.007 1.585-14.007 2.315 0 2.304-.046 3.53 14.755.852 10.287.968 10.552 4.596 10.505 2.45-.032 3.89.79 4.214 2.404.41 2.045-.556 2.45-5.832 2.45-3.478 0-6.61-.472-6.96-1.05zm41.166-6.46c-.692-1.82-1.465-8.224-1.717-14.23l-.458-10.922 4.065-1.113c7.16-1.961 8.747.168 10.262 13.771 1.566 14.056.889 15.803-6.129 15.803-3.72 0-5.041-.726-6.023-3.31zm8.85-3.75c-.099-1.896-.617-7.071-1.15-11.5-.822-6.817-1.405-8.055-3.792-8.055-2.669 0-2.767.582-1.83 10.856 1.133 12.413 1.454 13.29 4.632 12.629 1.468-.305 2.255-1.75 2.14-3.93zm7.236-7.14c.55-7.984 1.273-14.989 1.607-15.566.587-1.015 6.046-1.537 6.046-.579 0 .26 1.84 6.602 4.09 14.095 3.29 10.96 3.714 13.766 2.167 14.359-2.5.96-4.857-.543-4.857-3.095 0-3.336-5.352-2.4-5.855 1.023-.247 1.673-1.291 3.32-2.322 3.66-1.527.503-1.69-2.075-.876-13.898zm6.89-.159c-1.638-5.419-3.44-6.116-3.44-1.33 0 3.136.66 4.482 2.196 4.482 1.625 0 1.948-.819 1.243-3.152zm9.934 9.805c-.668-2.141-3.569-22.841-3.569-25.467 0-2.506 9.586-3.617 11.831-1.372 2.584 2.584 5.356 24.346 3.401 26.7-1.974 2.38-10.932 2.486-11.663.14zm9.038-3.232c0-1.2-.723-6.557-1.606-11.906-1.358-8.222-2.035-9.724-4.383-9.724-2.534 0-2.695.643-1.847 7.353 1.86 14.718 2.41 16.459 5.19 16.459 1.461 0 2.646-.977 2.646-2.182zm-144.72-29.28c-2.973-2.973-3.054-8.591-.14-9.71 3.858-1.48 4.788-.946 4.788 2.75 0 2.93.585 3.516 3.152 3.151 1.733-.246 3.088-1.235 3.011-2.198-.077-.963-.234-3.642-.35-5.953-.183-3.665-.735-4.202-4.312-4.202-5.78 0-8.504-3.313-8.504-10.338 0-8.602 2.415-11.154 10.67-11.274 6.775-.099 6.843-.056 7.293 4.656.273 2.86-.286 5.224-1.401 5.932-3.047 1.931-3.956 1.407-3.956-2.283 0-2.586-.744-3.502-2.845-3.502-3.413 0-4.78 2.939-3.582 7.707.713 2.842 1.74 3.499 5.473 3.499 2.528 0 5.352.756 6.277 1.68 1.922 1.923 2.246 16.27.432 19.133-1.954 3.084-13.205 3.753-16.007.951zm18.655-1.173c0-2.691-.412-2.64 67.935-8.529 49.964-4.305 58.242-4.44 56.06-.909-.35.568-6.804 1.458-14.341 1.98-15.5 1.071-89.315 7.443-101.6 8.77-6.729.726-8.054.51-8.054-1.312zM53.99 91.4c-.513-.514-.933-5.872-.933-11.906 0-10.039-.239-10.973-2.802-10.973-4.409 0-3.42-4.165 1.05-4.43 12.11-.714 14.761-.97 17.685-1.704 5.772-1.449 7.524 1.618 8.578 15.018.91 11.565.803 12.353-1.613 11.894-1.866-.354-2.71-1.953-3.023-5.732-.617-7.444-3.067-6.514-3.067 1.165 0 5.345-.406 6.329-2.451 5.94-2.017-.384-2.575-2.445-3.152-11.645-.576-9.2-1.134-11.261-3.151-11.645-2.189-.417-2.452.895-2.452 12.242 0 9.658-.448 12.71-1.867 12.71-1.027 0-2.288-.42-2.802-.934zm18.677-21.628c0-2.668-.718-4.052-2.102-4.052-1.463 0-2.1 1.474-2.1 4.858 0 3.744.482 4.674 2.1 4.053 1.198-.46 2.102-2.549 2.102-4.859zM79.66 87.2c-.005-1.413.74-7.493 1.656-13.512 1.221-8.02 2.35-11.308 4.225-12.312 2.97-1.59 3.91.218 6.761 13 1.608 7.204 1.981 7.748 3.959 5.77 1.978-1.978 2.31-1.902 3.515.8 2.141 4.8 5.358 3.758 4.845-1.567-.368-3.816-1.074-4.625-4.364-5.003-4.402-.505-7.267-5.73-5.972-10.89 1.527-6.084 14.387-4.612 13.2 1.512-.712 3.679-3.507 4.176-4.395.781-1.138-4.351-3.81-3.41-3.81 1.344 0 3.7.483 4.202 4.051 4.202 4.517 0 5.753 1.97 5.753 9.17 0 6.923-7.066 10.177-11.806 5.437-2-2-2.201-2-2.201 0 0 3.218-5.145 2.704-6.009-.6-.98-3.751-4.887-3.579-5.45.24-.554 3.768-3.945 5.162-3.958 1.628zm7.397-13.1-.925-3.478-.91 3.502c-1.034 3.987-.214 6.428 1.564 4.65.658-.658.78-2.761.271-4.674zm24.39 9.48c-.41-1.734-1.183-8.038-1.718-14.008l-.973-10.856h6.419c7.82 0 8.635 1.224 9.999 15.04.994 10.07.976 10.145-2.733 11.555-6.275 2.386-10.167 1.773-10.995-1.732zm8.844-5.254c0-3.135-.65-4.202-2.559-4.202-2.046 0-2.435.842-1.942 4.202.345 2.352 1.472 4.203 2.559 4.203 1.224 0 1.942-1.554 1.942-4.203zm-1.4-12.606c0-2.801-.701-4.202-2.102-4.202-1.4 0-2.101 1.4-2.101 4.202 0 2.801.7 4.202 2.101 4.202 1.4 0 2.101-1.4 2.101-4.202zm10.775 17.58c-1.122-1.123-2.458-6.291-2.987-11.556-.526-5.24-1.294-10.687-1.707-12.106-.563-1.94-.108-2.458 1.837-2.088 2.109.402 2.845 2.557 3.987 11.667 1.153 9.196 1.868 11.264 4.039 11.681 2.142.412 2.487-.112 1.837-2.783-.441-1.81-1.237-7.23-1.769-12.045-.834-7.552-.653-8.754 1.315-8.754 1.255 0 2.282.584 2.282 1.299s.682 6.2 1.515 12.192c1.37 9.854 1.279 11.065-.968 12.707-3.26 2.384-6.864 2.302-9.38-.214zm13.806-1.122c-.3-.963-.932-5.217-1.406-9.454-.474-4.238-1.225-9.753-1.67-12.257-.797-4.497-.741-4.552 4.672-4.552 6.51 0 8.84 1.941 8.84 7.364 0 2.2.702 6.79 1.56 10.2 1.867 7.413.85 11.63-2.196 9.103-1.102-.915-2.197-3.616-2.435-6.003-.237-2.387-1.214-4.597-2.17-4.911-1.298-.426-1.516 1.06-.86 5.845.74 5.407.512 6.416-1.456 6.416-1.285 0-2.58-.788-2.88-1.75zm6.234-17.859c0-2.801-.7-4.202-2.101-4.202-1.4 0-2.101 1.4-2.101 4.202s.7 4.202 2.1 4.202c1.402 0 2.102-1.4 2.102-4.202zm10.09 16.453c-.866-1.045-2.284-6.464-3.15-12.042-1.848-11.916-.64-14.61 6.247-13.937 3.546.346 4.401 1.113 4.765 4.274.317 2.75-.184 3.852-1.75 3.852-1.208 0-2.195-.946-2.195-2.102 0-1.155-.995-2.1-2.212-2.1-1.659 0-2.028.964-1.476 3.851.405 2.119 1.141 6.531 1.635 9.805.569 3.77 1.624 5.953 2.877 5.953 2.413 0 2.608-4.411.297-6.723-1.273-1.273-1.288-2.074-.06-3.302 2.984-2.984 6.134 1.358 5.662 7.803-.386 5.263-.768 5.758-4.741 6.146-2.408.235-5.02-.42-5.898-1.478z"/>
</svg>
