<svg xmlns="http://www.w3.org/2000/svg" width="200" height="200" viewBox="0 0 200 200">
    <path class="color-red color-main" fill="red" d="M100-5A105 105 0 00-5 100a105 105 0 00105 105 105 105 0 00105-105A105 105 0 00100-5zm61.66797 59.708984c.38678.014289.79409.041973 1.22461.083985 3.54594.346035 4.40194 1.114681 4.76562 4.27539.31658 2.751389-.18473 3.851563-1.75195 3.851563-1.20676 0-2.19336-.945973-2.19336-2.101563 0-1.155594-.99608-2.101562-2.21289-2.101562-1.65826 0-2.02678.966292-1.47461 3.853515.40518 2.118584 1.14062 6.530508 1.63477 9.804688.56882 3.76892 1.62469 5.953125 2.87695 5.953125 2.4138 0 2.60854-4.412959.29687-6.724609-1.27315-1.27314-1.28868-2.074555-.06054-3.302735 2.98387-2.983875 6.13452 1.359128 5.66211 7.804688-.38572 5.26256-.76715 5.756811-4.74024 6.144531-2.40774.23496-5.02005-.418183-5.89843-1.476562-.86709-1.044781-2.28488-6.464539-3.1504-12.042969-1.73324-11.17103-.78019-14.235819 5.02149-14.021485zm-16.59961 1.207032c6.50955 0 8.83984 1.940958 8.83984 7.363281 0 2.201158.70228 6.790719 1.56055 10.199219 1.86673 7.41347.84827 11.631085-2.19727 9.103515-1.10195-.91453-2.19646-3.614873-2.43359-6.001953-.23712-2.38707-1.2151-4.598049-2.17187-4.912109-1.29757-.42591-1.51537 1.059803-.85938 5.845703.74114 5.40725.51115 6.416016-1.45703 6.416016-1.28449 0-2.57806-.78701-2.87695-1.75-.2989-.963-.93205-5.217909-1.40625-9.455079-.4742-4.23716-1.22587-9.752079-1.66993-12.255859-.79769-4.497646-.74092-4.552734 4.67188-4.552734zm-8.84961 1.40039c1.2551 0 2.28125.584178 2.28125 1.298828 0 .714649.68239 6.200721 1.51562 12.191407 1.37064 9.8545 1.27774 11.066314-.96874 12.708984-3.26034 2.38402-6.86461 2.301396-9.38086-.214844-1.12229-1.12229-2.45747-6.29142-2.98633-11.55664-.52622-5.23905-1.29456-10.686468-1.70703-12.105469-.56398-1.940236-.10919-2.458063 1.83593-2.087891 2.10855.401295 2.84641 2.55673 3.98829 11.666016 1.15282 9.1966 1.86604 11.264241 4.0371 11.681641 2.14166.411749 2.48841-.111874 1.8379-2.783204-.44067-1.80964-1.23766-7.229961-1.76954-12.044922-.83423-7.552155-.65218-8.753906 1.31641-8.753906zm-27.46289 1.400391h6.41797c7.82132 0 8.63611 1.224103 10 15.039062.99423 10.07065.97658 10.146481-2.73242 11.556641-6.27467 2.385628-10.1685 1.772136-10.9961-1.732422-.40934-1.73338-1.1817-8.037252-1.71679-14.007812l-.97266-10.855469zm-8.08203.878906c3.70438-.015896 7.48008 1.957744 6.8125 5.402344-.71298 3.67883-3.50689 4.173647-4.39453.779297-1.138-4.351728-3.812503-3.409102-3.812503 1.34375 0 3.70071.484008 4.203125 4.052733 4.203125 4.51659 0 5.75391 1.970412 5.75391 9.169922 0 6.923118-7.06665 10.177508-11.806643 5.4375-2.00103-2.00102-2.201172-2.00102-2.201172 0 0 3.218148-5.145626 2.702905-6.009766-.601563-.98092-3.75106-4.887258-3.576932-5.449218.242188-.55445 3.768028-3.946245 5.161863-3.958985 1.626953-.005-1.412388.74009-7.492999 1.65625-13.511719 1.22089-8.02077 2.351013-11.308737 4.226563-12.3125 2.96938-1.589164 3.907775.218141 6.759765 13 1.60736 7.20376 1.981185 7.747331 3.958985 5.769531 1.9778-1.9778 2.309495-1.902259 3.515625.800781 2.141106 4.79842 5.357196 3.756881 4.843746-1.568359-.36796-3.81632-1.07314-4.624513-4.36328-5.001953-4.401934-.50499-7.265891-5.728226-5.970701-10.888672.668142-2.662082 3.505536-3.878261 6.386721-3.890625zm46.93164.521485c-1.40071 0-2.10156 1.401691-2.10156 4.203124 0 2.801428.70085 4.201172 2.10156 4.201172 1.40072 0 2.09961-1.399744 2.09961-4.201172 0-2.801434-.69889-4.203125-2.09961-4.203124zm-106.851564.779296c4.558364.006522 4.659081.555105 5.052735 4.677735.2731 2.86006-.284881 5.2244-1.400391 5.93164-3.04691 1.93178-3.957031 1.406937-3.957031-2.283203 0-2.58602-.74247-3.501953-2.84375-3.501953-3.41307 0-4.778811 2.938701-3.582031 7.707031.71323 2.84173 1.739886 3.498047 5.472656 3.498047 2.52762 0 5.352874.757171 6.277344 1.681641 1.922179 1.92218 2.24578 16.269622.43164 19.132812-1.95426 3.084346-13.204229 3.752796-16.005859.951172-2.97277-2.97277-3.054795-8.590714-.140625-9.708984 3.85779-1.48037 4.789062-.94531 4.789062 2.75 0 2.93133.583611 3.514931 3.150391 3.15039 1.73338-.24616 3.088759-1.234275 3.011719-2.197265-.077-.96299-.23402-3.641945-.34961-5.953125-.18322-3.664628-.73512-4.203125-4.3125-4.203125-5.77961 0-8.503906-3.312321-8.503906-10.337891 0-8.601674 2.415232-11.153149 10.669922-11.273437.84698-.012343 1.589039-.022416 2.240234-.021485zm76.035154.623047c-1.40072 0-2.10156 1.399736-2.10156 4.201172 0 2.80143.70084 4.203125 2.10156 4.203125 1.40071 0 2.10156-1.401695 2.10156-4.203125 0-2.801436-.70085-4.201172-2.10156-4.201172zm-45.816404.548828c4.216606-.200378 5.673252 3.613049 6.595703 15.337891.90991 11.565428.803159 12.352861-1.613281 11.894531-1.86561-.35385-2.710027-1.953954-3.023437-5.732422-.61752-7.44463-3.066407-6.515117-3.066407 1.164063 0 5.344748-.406001 6.328593-2.451172 5.939453-2.01738-.38385-2.575943-2.444473-3.152343-11.644531-.57639-9.20007-1.133001-11.260682-3.150391-11.644532-2.18869-.41646-2.451172.894368-2.451172 12.242188 0 9.657148-.45004 12.708984-1.86914 12.708984-1.0272 0-2.287192-.419983-2.800782-.933593-.5136-.5136-.933593-5.8715-.933593-11.90625 0-10.03846-.237792-10.972657-2.800782-10.972657-4.40864 0-3.422432-4.165623 1.048829-4.429687 12.108699-.71512 14.761776-.969309 17.685546-1.703125.721525-.181092 1.38005-.291687 1.982422-.320313zm-.40625 3.652344c-1.4638 0-2.101562 1.474485-2.101562 4.859375 0 3.74323.482802 4.671951 2.101562 4.050781 1.19766-.45959 2.09961-2.547531 2.09961-4.857421 0-2.668221-.71616-4.052735-2.09961-4.052735zm15.564453 4.902344L85.222656 74.125c-1.0349 3.98686-.21514 6.428011 1.5625 4.650391.65821-.65821.780545-2.761139.271485-4.673829l-.925782-3.478515zM117.73242 74.125c-2.0464 0-2.4366.842515-1.94336 4.203125.34521 2.352 1.47354 4.201172 2.56055 4.201172 1.22407 0 1.94141-1.552622 1.94141-4.201172 0-3.13554-.64926-4.203125-2.5586-4.203125zm49.35938 11.46875c5.66456.099258 6.71235.941862 5.75781 2.486328-.35074.56757-6.80453 1.459329-14.3418 1.980469-15.49896 1.07162-89.315547 7.443001-101.599607 8.769531-6.72927.72667-8.054687.511863-8.054687-1.310547 0-2.69119-.411609-2.640157 67.935544-8.529297 28.10459-2.421634 43.01973-3.524101 50.30274-3.396484zm-51.17383 16.54492c10.22664 0 11.7108 1.56544 12.37891 13.05078.27711 4.76371 1.12159 12.74632 1.87695 17.74024 1.50579 9.95543 1.07016 12.63281-2.05274 12.63281-2.96376 0-3.93085-2.18655-4.88476-11.03906-.66899-6.20836-1.39815-7.94475-3.50977-8.34961-2.48297-.47605-2.60427.1622-1.75586 9.29101.76171 8.1957.54866 9.93874-1.30078 10.64844-2.94226 1.12904-3.0572 1.10785-4.23437-.79687-.91036-1.47297-4.4884-32.10266-4.67578-40.02539-.0691-2.91931.53222-3.15235 8.1582-3.15235zm53.49414 1.01367c2.01382.00137 3.88842.37085 4.73047 1.21289 2.58346 2.58346 5.35671 24.34629 3.40234 26.70118-1.97405 2.37858-10.93219 2.48515-11.66406.13867-.66786-2.14125-3.56836-22.84328-3.56836-25.46875 0-1.56619 3.74323-2.58627 7.09961-2.58399zm-14.46094 1.75586c.99043-.00488 1.75781.14646 1.75781.50586 0 .25986 1.84047 6.60172 4.08985 14.09375 3.29081 10.96083 3.71419 13.76605 2.16797 14.35938-2.49965.95919-4.85742-.54353-4.85742-3.09571 0-3.33549-5.35171-2.40011-5.85547 1.02344-.24616 1.67304-1.28943 3.32039-2.32032 3.66016-1.52668.50319-1.69063-2.07556-.87695-13.89844.54943-7.98339 1.27309-14.98669 1.60742-15.56445.36692-.63412 2.63639-1.07585 4.28711-1.08399zm-16.61523.65235c4.27665-.13611 5.55584 3.34222 6.78711 14.39453 1.56589 14.05587.88826 15.80078-6.12891 15.80078-3.72047 0-5.04129-.72536-6.02344-3.30859-.69193-1.81992-1.4648-8.2237-1.71679-14.23047l-.45703-10.91992 4.06445-1.11329c1.3425-.36769 2.48769-.59163 3.47461-.62304zm30.59375.78125c-2.53381 0-2.69409.64279-1.84571 7.35351 1.86065 14.71789 2.40898 16.45899 5.18946 16.45899 1.46109 0 2.64453-.97684 2.64453-2.18164 0-1.19978-.72219-6.55771-1.60547-11.90625-1.35779-8.22173-2.03531-9.72461-4.38281-9.72461zm-51.29102.13672c-2.3408.18892-3.17986 3.26162-2.33984 8.86328.52856 3.52466 1.18596 6.4082 1.46094 6.4082s1.49819-.38405 2.71679-.85156c3.09204-1.18653 3.10804-12.90074.01953-14.08594-.69813-.2679-1.31723-.37758-1.85742-.33398zm-65.363279 1.48046c4.168117-.07972 6.578058.42995 7.529297 1.57618.875869 1.05537 1.891342 8.07597 2.257812 15.60156.36645 7.5256 1.082697 16.46056 1.591797 19.85547.88488 5.90073.772375 6.17187-2.583985 6.17187-4.179299 0-5.21289-2.19484-5.21289-11.08594 0-7.34935-.674536-8.71488-3.728516-7.54296-1.56958.60233-1.972427 2.97444-1.710937 10.05859.31261 8.46839.087873 9.30868-2.591797 9.70313-1.87472.27583-3.193477-.48287-3.654297-2.10157-.39659-1.39309-.924505-11.35707-1.171875-22.14258l-.449219-19.60937 7.830078-.41406c.668157-.03528 1.299086-.05893 1.894532-.07032zm84.603519 1.1836c-2.669 0-2.7674.58178-1.83008 10.85547 1.13255 12.41366 1.45487 13.28978 4.63281 12.6289 1.4675-.30507 2.25467-1.74803 2.14063-3.92773-.0992-1.89577-.6183-7.07218-1.15235-11.50195-.82179-6.81663-1.40417-8.05469-3.79101-8.05469zm-44.621098.70117c2.314131 0 2.303287-.04546 3.529297 14.75586.85213 10.2868.967488 10.55281 4.595701 10.50586 2.4489-.032 3.89159.78962 4.21485 2.40234.40993 2.04506-.55652 2.45117-5.832035 2.45117-3.4778 0-6.610637-.47297-6.960937-1.05078-.350291-.57776-.859853-7.35271-1.132813-15.05664-.4139-11.68222-.150422-14.00781 1.585937-14.00781zm-7.748046.69922c2.30623 0 3.103457 3.89585 4.085937 19.96094.5944 9.71945.402075 10.85547-1.828125 10.85547-2.05314 0-2.646792-1.66177-3.382812-9.45508-1.47694-15.63827-1.17535-21.36133 1.125-21.36133zm-13.744141 1.4707c.556396 0 1.324324.06052 2.167969.1836 2.59254.37814 3.422908 2.07531 5.361328 10.95312 1.26158 5.77792 2.729159 12.23882 3.261719 14.35742.82759 3.29215.538975 3.85156-1.990235 3.85157-1.78124 0-3.252399-1.11454-3.693359-2.80079-.99763-3.81497-5.689546-3.63469-6.259766.24024-.6255 4.25094-3.951629 5.03048-3.949219.92578.001001-1.79758.94613-8.62546 2.09961-15.17383 1.15348-6.54832 2.098559-12.10735 2.099609-12.35351.0005-.12308.345948-.1836.902344-.1836zm-20.134766 1.48242c-1.622853.0923-1.777343 1.43933-1.777343 6.85352 0 6.66382.234783 7.16435 3.152343 6.75 2.73512-.38865 3.152344-1.27979 3.152344-6.75 0-5.47025-.417234-6.36353-3.152344-6.75195-.547042-.07767-1.000495-.12287-1.375-.10157zm102.746091 3.375c-.52502.05855-.86914 1.10358-.86914 3.19727 0 3.1361.65922 4.48242 2.19531 4.48242 1.62511 0 1.947-.81951 1.24219-3.15234-.92097-3.0483-1.89333-4.60262-2.56836-4.52735zm-81.414059 5.62305c-.356765-.04857-.597994 1.13209-.914063 3.80859-.43605 3.69272-.080111 5.25196 1.199219 5.25196 1.0009 0 1.774853-1.10297 1.720703-2.45117-.0542-1.3482-.593629-3.71118-1.199219-5.25196-.336634-.85649-.592581-1.32828-.80664-1.35742zM176.1582 135.91211c3.7306-.02795 4.36328.56365 4.36328 1.75391 0 1.85778-6.63504 2.89278-38.16992 5.96093-8.19911.7977-9.45508.61672-9.45508-1.37304 0-1.26202.15898-2.30819.35157-2.32422.19258-.0183 9.17347-.94181 19.95898-2.0586 12.39158-1.28307 19.22058-1.93104 22.95117-1.95898zm-73.43945 6.97266c1.68433.06661 2.16406.57967 2.16406 1.68554 0 2.59935-3.47655 3.37623-20.310544 4.54102-6.93354.47976-13.597274 1.14521-14.808594 1.47851-1.21131.33338-2.630274.17825-3.152344-.34375-3.10358-3.10358-.199807-4.37747 12.007813-5.26953 7.12614-.52072 15.951958-1.31347 19.611328-1.76172 2.034471-.24923 3.477681-.37004 4.488281-.33007z"/>
    <path class="color-yellow" fill="#fcea18" d="M44.171794 150.19574c-.39659-1.39309-.92347-11.35742-1.17084-22.14293l-.44975-19.61002 7.83014-.41331c5.34525-.28223 8.33551.19547 9.42264 1.50544.87587 1.05537 1.89234 8.07614 2.25881 15.60173.36645 7.5256 1.08285 16.46059 1.59195 19.8555.88488 5.90073.77103 6.17255-2.58533 6.17255-4.1793 0-5.21141-2.19573-5.21141-11.08683 0-7.34936-.6746-8.71391-3.72858-7.54199-1.56958.60233-1.97328 2.97453-1.71179 10.05868.31261 8.46839.0884 9.30788-2.59127 9.70233-1.87472.27584-3.19373-.48236-3.65455-2.10106zm10.98583-29.84686c0-5.47025-.4165-6.3624-3.15161-6.75082-2.91756-.41422-3.15161.0872-3.15161 6.75082 0 6.66382.23405 7.16517 3.15161 6.75082 2.73512-.38865 3.15161-1.28061 3.15161-6.75082zm11.45458 29.89732c-3.10358-3.10358-.20021-4.37784 12.00741-5.2699 7.12614-.52072 15.95065-1.31358 19.61002-1.76183 5.425256-.66462 6.653396-.41421 6.653396 1.35519 0 2.59935-3.47638 3.37669-20.310376 4.54148-6.93354.47976-13.59752 1.14497-14.80884 1.47827-1.21131.33338-2.62954.17902-3.15161-.34298zm45.823086-4.92989c-.91036-1.47297-4.48891-32.10242-4.67629-40.02515-.0691-2.91931.53227-3.1516 8.15825-3.1516 10.22664 0 11.71065 1.56446 12.37876 13.0498.27712 4.76371 1.12185 12.74727 1.87721 17.74119 1.50579 9.95543 1.07115 12.63118-2.05175 12.63118-2.96376 0-3.93102-2.18563-4.88493-11.03814-.66899-6.20836-1.39872-7.94393-3.51034-8.34879-2.48297-.47605-2.60331.16076-1.7549 9.28957.76171 8.1957.54869 9.93971-1.30075 10.64941-2.94226 1.12904-3.05809 1.10725-4.23526-.79747zm7.0407-24.41693c3.09204-1.18653 3.10901-12.90205.0205-14.08725-3.7234-1.42881-5.23088 1.63459-4.19701 8.52894.52856 3.52466 1.18601 6.40853 1.46099 6.40853s1.49701-.38271 2.71561-.85022zm13.42136 21.35403c0-1.26202.1576-2.30761.35019-2.32364.19258-.0183 9.17469-.9428 19.9602-2.05959 24.78316-2.56615 27.31397-2.58511 27.31397-.2046 0 1.85778-6.63464 2.8941-38.16952 5.96225-8.19911.7977-9.45483.61516-9.45483-1.3746zm-67.232436-2.52797c.001-1.79758.94567-8.62608 2.09915-15.17445 1.15348-6.54832 2.09811-12.10749 2.09916-12.35365.001-.24615 1.38244-.24615 3.06973 0 2.59254.37814 3.4232 2.07517 5.36162 10.95298 1.26158 5.77792 2.72952 12.23874 3.26208 14.35734.82759 3.29215.53826 3.85196-1.99095 3.85196-1.78124 0-3.25088-1.11519-3.69184-2.80144-.99763-3.81497-5.69127-3.63471-6.26149.24022-.6255 4.25094-3.94987 5.03147-3.94746.92677zm8.30392-10.6221c-.0542-1.3482-.59393-3.7119-1.19952-5.25268-.89769-2.28397-1.21566-1.83116-1.72137 2.45124-.43605 3.69272-.0798 5.25269 1.19953 5.25269 1.0009 0 1.77551-1.10305 1.72136-2.45125zm9.41562 2.80144c-1.47694-15.63827-1.17562-21.36093 1.12473-21.36093 2.30623 0 3.10359 3.89512 4.08607 19.96021.5944 9.71945.40321 10.85556-1.82699 10.85556-2.05314 0-2.64779-1.66153-3.38381-9.45484zm8.42056 7.00355c-.35029-.57776-.86025-7.35374-1.13321-15.05767-.4139-11.68222-.15075-14.00715 1.58561-14.00715 2.31413 0 2.3035-.0457 3.52951 14.75562.85213 10.2868.9683 10.55232 4.596516 10.50537 2.4489-.032 3.89039.79044 4.21365 2.40316.40993 2.04506-.55638 2.45124-5.831896 2.45124-3.4778 0-6.60988-.47276-6.96018-1.05057zm41.165646-6.46054c-.69193-1.81992-1.46424-8.22361-1.71623-14.23038l-.45816-10.92142 4.0643-1.11314c7.16003-1.96103 8.74709.16852 10.2625 13.77136 1.56589 14.05587.88849 15.80254-6.12868 15.80254-3.72047 0-5.04158-.72573-6.02373-3.30896zm8.851-3.74954c-.0992-1.89577-.61728-7.07123-1.15133-11.501-.82179-6.81663-1.40429-8.05412-3.79113-8.05412-2.669 0-2.76707.58187-1.82975 10.85556 1.13255 12.41366 1.45396 13.29 4.6319 12.62912 1.4675-.30507 2.25435-1.74986 2.14031-3.92956zm7.23563-7.14096c.54943-7.98339 1.2725-14.98799 1.60683-15.56575.58706-1.01458 6.0454-1.53667 6.0454-.57826 0 .25986 1.84039 6.60221 4.08977 14.09424 3.29081 10.96083 3.71437 13.76601 2.16815 14.35934-2.49965.95919-4.85721-.54314-4.85721-3.09532 0-3.33549-5.35186-2.40005-5.85562 1.0235-.24616 1.67304-1.29106 3.31992-2.32195 3.65969-1.52668.50319-1.68905-2.07456-.87537-13.89744zm6.88883-.15802c-1.63728-5.41919-3.43875-6.11629-3.43875-1.33071 0 3.1361.65937 4.48229 2.19546 4.48229 1.6251 0 1.9481-.81875 1.24329-3.15158zm9.93439 9.80499c-.66786-2.14125-3.56813-22.84153-3.56813-25.467 0-2.5059 9.58522-3.61753 11.83067-1.37209 2.58346 2.58346 5.35576 24.34587 3.40139 26.70076-1.97405 2.37858-10.93206 2.48486-11.66393.13838zm9.03832-3.23196c0-1.19978-.72272-6.55755-1.606-11.90609-1.35779-8.22173-2.0351-9.72466-4.3826-9.72466-2.53381 0-2.69532.64307-1.84694 7.35379 1.86065 14.71789 2.40949 16.45839 5.18997 16.45839 1.46109 0 2.64557-.97663 2.64557-2.18143zM30.198374 98.691298c-2.97277-2.97277-3.05324-8.59041-.13907-9.70868 3.85779-1.48037 4.78795-.94632 4.78795 2.74899 0 2.93133.58483 3.51616 3.15161 3.15162 1.73338-.24616 3.08858-1.23551 3.01154-2.1985-.077-.96299-.2346-3.64187-.35019-5.95305-.18322-3.664628-.73482-4.202138-4.3122-4.202138-5.77961 0-8.50435-3.31213-8.50435-10.3377 0-8.601674 2.41507-11.153449 10.66976-11.273737 6.77584-.09874 6.84339-.05562 7.29328 4.655957.2731 2.86006-.28521 5.22436-1.40072 5.9316-3.04691 1.93178-3.95588 1.40722-3.95588-2.28292 0-2.58602-.74411-3.50179-2.84539-3.50179-3.41307 0-4.77898 2.93874-3.5822 7.70707.71323 2.84173 1.74101 3.49865 5.47378 3.49865 2.52762 0 5.35206.75639 6.27653 1.68086 1.92218 1.92218 2.24608 16.269048.43194 19.132238-1.95426 3.084342-13.20476 3.753152-16.00639.95153zm18.65603-1.17253c0-2.69119-.41244-2.63941 67.934716-8.52855 49.96371-4.305128 58.24215-4.439378 56.06035-.90917-.35074.56757-6.80463 1.45833-14.3419 1.97947-15.49896 1.07162-89.314986 7.44319-101.599046 8.76972-6.72927.72667-8.05412.51094-8.05412-1.31147zm5.13596-6.11803c-.5136-.5136-.93381-5.871338-.93381-11.906088 0-10.03846-.23844-10.97227-2.80143-10.97227-4.40864 0-3.42073-4.165575 1.05053-4.429639 12.1087-.71512 14.76053-.970726 17.6843-1.704542 5.7722-1.448731 7.52381 1.617821 8.57804 15.017641.90991 11.565428.80312 12.352768-1.61332 11.894438-1.86561-.35385-2.70907-1.95339-3.02248-5.731858-.61752-7.44463-3.06705-6.51428-3.06705 1.1649 0 5.344748-.40609 6.328658-2.45126 5.939518-2.01738-.38385-2.57521-2.44503-3.15161-11.645088-.57639-9.20007-1.13422-11.26124-3.15161-11.64509-2.18869-.41646-2.45125.89492-2.45125 12.24274 0 9.657148-.44852 12.709148-1.86762 12.709148-1.0272 0-2.28784-.4202-2.80143-.93381zm18.6762-21.627508c0-2.66822-.71762-4.05228-2.10107-4.05228-1.4638 0-2.10107 1.47365-2.10107 4.85854 0 3.74323.48231 4.67346 2.10107 4.05229 1.19766-.45959 2.10107-2.54866 2.10107-4.85855zm6.99433 17.425358c-.005-1.412388.74032-7.492398 1.65648-13.511118 1.22089-8.02077 2.34909-11.308871 4.22464-12.312634 2.96938-1.589164 3.90947.218345 6.76146 13.000204 1.60736 7.20376 1.98061 7.74783 3.95841 5.77003 1.9778-1.9778 2.30928-1.9023 3.51541.80074 2.141106 4.79842 5.357756 3.75735 4.844306-1.56789-.36796-3.81632-1.07346-4.62511-4.3636-5.00255-4.401936-.50499-7.266926-5.72956-5.971736-10.890006 1.52718-6.084759 14.387146-4.611997 13.200336 1.511736-.71298 3.67883-3.50752 4.17548-4.39516.78113-1.138-4.351728-3.811266-3.409422-3.811266 1.34343 0 3.70071.48355 4.20215 4.052276 4.20215 4.51659 0 5.75273 1.97042 5.75273 9.16993 0 6.923118-7.06603 10.177538-11.806026 5.43753-2.00103-2.00102-2.20113-2.00102-2.20113 0 0 3.218148-5.14458 2.704168-6.00872-.6003-.98092-3.75106-4.8878-3.57867-5.44976.24045-.55445 3.768028-3.94591 5.162058-3.95865 1.627148zm7.39624-13.097498l-.92556-3.47764-.90899 3.50179c-1.0349 3.98686-.21428 6.42784 1.56336 4.65022.65821-.65821.78025-2.76168.27119-4.67437zm24.388926 9.47898c-.40934-1.73338-1.18205-8.0366-1.71714-14.00716l-.97287-10.85554h6.4185c7.82132 0 8.63517 1.224071 9.99906 15.03903.99423 10.07065.97647 10.14574-2.73253 11.5559-6.27467 2.385628-10.16742 1.772328-10.99502-1.73223zm8.84485-5.25268c0-3.13554-.6495-4.20215-2.55884-4.20215-2.0464 0-2.43533.84154-1.94209 4.20215.34521 2.352 1.47182 4.20215 2.55883 4.20215 1.22407 0 1.9421-1.5536 1.9421-4.20215zm-1.40072-12.60644c0-2.801436-.70036-4.202151-2.10107-4.202151-1.40072 0-2.10108 1.400715-2.10108 4.202151 0 2.80143.70036 4.20215 2.10108 4.20215 1.40071 0 2.10107-1.40072 2.10107-4.20215zm10.77617 17.57965c-1.12229-1.12229-2.45829-6.29069-2.98715-11.55591-.52622-5.23905-1.29425-10.686537-1.70672-12.105538-.56398-1.940236-.10856-2.457947 1.83656-2.087775 2.10855.401295 2.84534 2.557067 3.98722 11.666353 1.15283 9.1966 1.86756 11.26386 4.03862 11.68126 2.14166.41175 2.48717-.1118 1.83666-2.78313-.44066-1.80964-1.23641-7.22977-1.76829-12.04473-.83423-7.552156-.65364-8.754479 1.31495-8.754479 1.2551 0 2.282.584711 2.282 1.299361 0 .714649.68173 6.200832 1.51496 12.191518 1.37063 9.8545 1.27841 11.06513-.96808 12.7078-3.26033 2.38402-6.86448 2.30151-9.38073-.21473zm13.80536-1.12124c-.2989-.963-.93141-5.21767-1.40561-9.45484-.4742-4.23716-1.22551-9.752478-1.66957-12.256258-.79769-4.497646-.74158-4.552326 4.67122-4.552326 6.50955 0 8.84032 1.941493 8.84032 7.363816 0 2.201158.70223 6.790878 1.5605 10.199378 1.86673 7.41347.84908 11.63142-2.19646 9.10385-1.10195-.91453-2.19755-3.61585-2.43468-6.00293-.23712-2.38707-1.21396-4.59709-2.17073-4.91115-1.29757-.42591-1.51613 1.05927-.86014 5.84517.74114 5.40725.51219 6.41618-1.45599 6.41618-1.28449 0-2.57997-.7879-2.87886-1.75089zm6.23421-17.859127c0-2.801434-.70035-4.202148-2.10107-4.202148-1.40071 0-2.10107 1.400714-2.10107 4.202148 0 2.801427.70036 4.202147 2.10107 4.202147 1.40072 0 2.10107-1.40072 2.10107-4.202147zm10.09095 16.452757c-.86709-1.04478-2.28469-6.46377-3.15021-12.0422-1.84879-11.915765-.64159-14.609113 6.24676-13.936918 3.54594.346035 4.40099 1.112967 4.76467 4.273676.31658 2.751389-.18368 3.851966-1.7509 3.851966-1.20676 0-2.19411-.94548-2.19411-2.10107 0-1.155594-.99556-2.101074-2.21237-2.101074-1.65826 0-2.02786.964743-1.47569 3.851966.40518 2.118584 1.14098 6.530834 1.63513 9.805014.56882 3.76892 1.62415 5.95304 2.87641 5.95304 2.4138 0 2.60875-4.41179.29708-6.72344-1.27315-1.27314-1.28754-2.07417-.0594-3.30235 2.98387-2.983875 6.13395 1.35804 5.66154 7.8036-.38572 5.26256-.76789 5.75797-4.74098 6.14569-2.40774.23496-5.01961-.41952-5.89799-1.4779z"/>
</svg>
