<svg xmlns="http://www.w3.org/2000/svg" width="200" height="200" viewBox="0 0 200 200">
  <circle class="color-blue color-main" fill="#0092c8" cx="100" cy="100" r="100"/>
  <path class="color-white" fill="#fff" d="m97.436 81.054 23.647 3.276c-9.972 19.944-24.644 29.773-43.875 29.773-10.826-.713-20.655-4.416-29.345-11.396-8.69-6.98-13.39-18.661-13.96-35.186.712-13.817 4.986-24.644 12.963-32.62 7.977-7.835 18.091-12.251 30.342-12.821 14.957.142 25.926 3.561 32.621 10.399 6.695 6.837 10.399 12.963 11.111 18.233l-24.359 2.28c-1.567-1.71-3.419-3.134-5.413-4.274-3.419-1.852-6.98-2.707-10.541-2.707-3.704 0-7.123.855-10.684 2.707-3.419 1.852-6.125 4.416-7.977 7.977-1.994 3.561-2.992 7.123-2.992 10.826 0 3.704.855 7.265 2.707 10.684a19.56 19.56 0 0 0 7.977 7.977c3.419 1.852 6.98 2.707 10.826 2.707 3.704 0 7.265-.997 10.684-2.85a21.55 21.55 0 0 0 6.268-4.985zM75.64 132.48c.285-6.553 1.282-10.827 2.849-12.536 18.946 0 35.328-11.396 48.86-34.046 13.248 1.425 22.935 6.41 29.345 14.958 6.268 8.262 9.402 19.373 9.402 33.333 0 7.265-2.28 14.957-6.695 22.65h.142c-9.971 13.817-22.65 20.797-38.176 21.082-27.92-2.564-43.02-17.806-45.727-45.441zm35.47-18.661c-3.419 1.852-6.125 4.416-8.12 7.977-1.851 3.419-2.849 7.122-2.849 10.826 0 3.704.855 7.265 2.707 10.684a19.56 19.56 0 0 0 7.977 7.977c3.419 1.852 6.98 2.707 10.826 2.707 3.704 0 7.265-.855 10.684-2.707a19.56 19.56 0 0 0 7.977-7.977c1.852-3.419 2.85-6.98 2.85-10.684 0-3.846-.998-7.265-2.85-10.826-1.994-3.419-4.7-6.125-8.12-7.977-3.418-1.852-6.98-2.707-10.54-2.707-3.562 0-7.123.855-10.542 2.707zm7.692-50.997h2.992l5.84 10.968h-3.56l-1.283-2.279h-5.698l-.997 2.28h-3.134zm-.854 6.267h3.276l-1.71-3.276zm12.678-6.267 5.84 5.84v-5.84h2.422V73.79h-2.28l-5.84-5.84v5.84h-2.421V62.821zm16.809 0c3.704.284 5.413 1.994 5.413 5.27-.285 3.846-1.852 5.698-4.843 5.698h-6.695V62.821zm-3.419 2.564v5.983h2.992c1.566 0 2.421-.998 2.421-2.85 0-2.136-.712-3.133-2.421-3.133z"/>
</svg>
