<svg xmlns="http://www.w3.org/2000/svg" width="200" height="200" viewBox="0 0 200 200">
  <circle class="color-yellow color-main" fill="#d2c535" cx="100" cy="100" r="100"/>
  <path class="color-black color-reserved-white" d="M100.712 9.687 9.687 100.712c29.772 29.772 60.398 58.975 91.025 89.601 32.479-31.481 59.687-58.832 89.601-89.6-30.769-32.907-55.413-56.838-89.6-91.026z"/>
  <path class="color-black" d="m100.712 190.883-.285-.285c-15.67-15.812-31.624-31.339-47.15-46.438-14.388-14.103-29.345-28.633-43.875-43.163l-.285-.285 91.595-91.595.285.285c7.123 7.122 13.96 13.817 20.37 20.37 24.075 23.932 44.872 44.73 69.231 70.655l.285.285-.285.285c-34.758 35.755-60.826 61.681-89.6 89.601zM10.4 100.713c14.386 14.387 29.2 28.773 43.589 42.877 15.384 14.957 31.196 30.484 46.866 46.154 28.632-27.636 54.416-53.562 89.031-89.032-24.216-25.783-44.872-46.438-68.946-70.37l-20.085-20.086z"/>
  <path class="color-yellow color-main" fill="#d2c535" d="M182.051 100.712c-27.92-29.772-50.285-51.567-81.196-82.478-27.636 27.492-55.129 54.985-82.621 82.478 27.065 27.066 54.843 53.42 82.478 81.197 29.487-28.49 54.131-53.277 81.34-81.197zm-88.176 47.009c-33.761-5.128-51.567-44.16-33.191-72.792 18.803-29.06 60.968-29.487 79.914-.997 6.695 10.114 9.544 23.789 7.265 35.47-2.279 11.823-10.968 24.644-21.225 31.196-8.832 5.698-22.507 8.69-32.763 7.123zm-12.963-24.644s0-2.137.142-5.27h-9.402c-.142-6.696-.284-8.833 0-14.53h9.117c-.142-2.137.285-3.562.143-6.126h-9.26c.143-4.7-.142-9.402 0-13.96h9.26c.142-2.564.142-2.85-.143-5.983H66.097c-.427 15.67-.57 36.182-.427 45.726 6.125 0 15.242.143 15.242.143zm11.396-19.658H100c.142 8.547.142 10.114.142 19.658 1.852.142 2.85 0 4.986 0 0 0-.142-5.128 0-10.826-.427-9.402 1.14-10.542-2.564-11.254 2.992-.997 2.707-2.991 2.564-11.966 0-12.25.285-11.823-10.684-11.823h-6.98l-.427 45.726h5.128c0-9.544.143-22.222.143-19.515zm-.143-20.228h8.12s-.143 8.262 0 13.96h-7.977c0-5.413-.143-7.977-.143-13.96zm23.932-5.84h-4.843c.142 15.526.284 45.583.284 45.583h4.559c0-15.527.285-30.057 0-45.584zm20.94 45.583v-5.128h-8.405c0-4.7-.142-9.686-.142-14.53h8.405c0-2.706.142-2.991 0-5.983h-8.405c.142-5.982.142-7.55 0-14.53 4.843-.142 5.413-.142 8.547 0v-5.555H122.65c-.285 17.236-.143 18.376.142 45.726z"/>
  <path class="color-white color-reserved-gray" fill="#fff" d="M80.912 123.077s0-2.137.142-5.27h-9.402c-.142-6.696-.284-8.833 0-14.53h9.117c-.142-2.137.285-3.562.143-6.126h-9.26c.143-4.7-.142-9.402 0-13.96h9.26c.142-2.564.142-2.85-.143-5.983H66.097c-.427 15.67-.57 36.182-.427 45.726 6.125 0 15.242.143 15.242.143zm24.216-10.826c-.427-9.402 1.14-10.542-2.564-11.254 2.992-.997 2.707-2.991 2.564-11.966 0-12.25.285-11.823-10.684-11.823h-6.98l-.427 45.726h5.128v-19.658h7.693c.142 8.547.142 10.114.142 19.658 1.852.143 2.849 0 4.986 0 .142.143 0-4.985.142-10.683zm-4.843-14.958h-7.977c.142-5.413 0-7.977-.143-13.96h8.12s-.143 8.262 0 13.96zm15.812-19.943h-4.843c.142 15.527.284 45.584.284 45.584h4.559c0-15.527.285-30.057 0-45.584zm20.94 45.584v-5.128h-8.405c0-4.7-.142-9.686-.142-14.53h8.405c0-2.706.142-2.991 0-5.983h-8.405c.142-5.982.142-7.55 0-14.53 4.843-.142 5.413-.142 8.547 0v-5.555H122.65c-.285 17.236-.143 18.376.142 45.726z"/>
</svg>
