<svg xmlns="http://www.w3.org/2000/svg" width="200" height="200" viewBox="0 0 200 200">
  <circle class="color-green color-main" fill="#637f2a" cx="100" cy="100" r="100"/>
  <path class="color-white" fill="#fff" d="M59.61 184.63C48.414 149.715 18.707 56.27 18.929 55.494c14.742-.333 16.183.222 24.386-.111-.554-4.434-3.88-13.523-6.762-25.938 20.84 0 119.716 0 126.921.11-2.106 8.647-3.768 16.184-6.429 24.941 10.31.554 13.524.222 23.722.333-25.495 81.473-30.594 98.1-40.792 129.692-34.807 0-45.448.11-80.365.11zm77.593-3.214c18.29-56.089 23.057-70.167 39.462-123.706H152.28c2.66-10.087 4.323-14.3 7.094-25.606-31.148-.222-96.327.11-118.83.222 2.55 11.084 3.326 13.412 7.095 26.27-10.087.111-13.634-.11-24.497 0 12.193 40.35 27.38 86.351 39.35 122.931 33.366.222 40.017-.11 74.712-.11zm-70.61-3.99C53.07 137.52 48.747 122.334 33.34 74.004c-1.885-5.874-3.215-10.863-3.104-11.195 9.09 0 13.856-.111 23.722 0-2.772-9.866-3.88-12.859-7.538-26.382 41.568-.554 63.405-.333 105.638 0-2.328 10.42-2.771 12.637-6.207 24.94 11.195.555 14.188.333 24.164.666-14.52 48.33-15.297 50.436-36.912 115.393-32.368.221-37.577.11-66.509 0zm21.948-32.257c-3.88-3.88-5.875-5.986-9.311-9.644-.222 13.302.222 14.854.11 28.71 3.437.443 5.987.11 9.201-.111-.222-6.318-.11-12.637 0-18.955zm27.047-24.276c7.094 10.31 8.203 12.304 15.519 22.946 4.101-.111 5.875.221 10.309-.111-7.427-12.748-9.533-16.073-15.74-27.49 1.219-.887 1.33-1.33 3.103-1.996 4.766-1.662 11.417-6.54 14.632-10.641 6.097-7.649 5.431-17.403-1.33-21.394-1.996-1.22-3.437-1.884-19.066-1.44l-17.07.443c-.112 11.084 0 11.971 0 21.504.664.443 7.315-4.212 9.532-6.65-.222-2.107-.443-3.215-.11-5.543h21.393l.776 1.663c1.774 3.658-1.22 7.537-8.646 11.528-2.439 1.22-6.54 4.655-9.755 6.761-6.872 4.545-8.424 4.102-13.08 6.208-.11 14.964-.887 16.96-.443 27.158 3.88.11 5.653.332 9.643.221.111-10.087-.554-12.415.333-23.167zm-48.773-1.33c10.087 10.752 12.526 13.856 23.167 24.276 4.434 0 5.653 0 10.642-.111-7.87-9.533-14.632-17.182-23.5-26.936-.222-3.104.11-5.432 0-10.31-.222 0-2.106.888-3.658 1.553-1.774.665-3.658.887-4.656.665l-1.663-.443V90.632l10.198-.111c11.75-.111 12.526 0 13.413.776.333.332.554 5.653.443 13.745-.11 8.757 0 13.302.444 13.523.887.555 11.417-2.993 17.07-5.875 2.55-1.33 6.762-3.768 9.423-5.542 5.653-3.769 16.073-13.634 15.63-14.854-3.659-.11-6.098 0-10.42-.221l-6.208 4.323c-3.769 2.55-7.981 6.207-9.976 7.205-4.323 2.106-13.524 5.32-13.967 4.877-.111-.11.776-1.44 2.217-2.771 3.769-3.769 5.542-7.87 5.542-12.858 0-4.878-.998-7.649-5.32-10.753-14.743-.443-21.394-.221-38.132-.11-.333 19.509-.111 50.435-.111 61.188 3.547.221 6.207.221 9.422.11.11-10.087.443-14.299 0-23.721zm21.394-26.604c-3.77 0-5.875 0-8.868.111-.111 7.87-.111 14.632-.222 22.946 4.766 4.988 5.21 5.764 8.868 9.311.332-13.08.332-21.061.222-32.368zm.332-26.16c12.637-.665 19.953.222 25.828 1.22 5.542.886 9.2 3.214 11.306 7.205l.554 3.104h9.644l-.11-2.107c.554-5.32-4.656-12.525-11.085-15.407-1.996-.887-5.432-1.885-7.76-2.328-4.323-.665-12.082-.665-37.356-.333-.11 8.203.333 13.524.111 20.95 3.99.222 5.764.222 9.2.222-.11-3.88-.332-8.535-.332-12.526z"/>
</svg>
