<svg xmlns="http://www.w3.org/2000/svg" viewBox="0 0 612 612">
    <path d="M147.8 88.4c7.3-2.1 14.3-3 20.9-2.7 6.6.4 14.2 2.6 22.8 6.8 6-2.6 11-3.9 14.8-3.9 3.9 0 8.8 1.8 14.8 5.5 11.5-6 21.9-8.6 31.2-7.8 12.2 0 21 6.2 26.6 18.8.4 3-1.1 4.1-4.7 3.1-4.4-3.1-8.5-4.7-12.5-4.7s-8.1 2.1-12.5 6.2c2.1 9.7 12.3 39.9 30.8 90.8 19 51.7 38.5 77.4 58.6 77.3-.6 9.9-9.3 15.7-25.9 17.3-5.1 0-9.8-1.6-14.1-4.8-12.1 5.6-23.3 5.6-33.8 0l-17.2 5.2c-7.4 0-14.2-4.6-20.3-13.9l-1.2-3.8c7 2 12.1 2.7 15.3 2.2 5.8 0 9.5-2.6 10.9-7.8l-16.9-53.4c-1.6-5.3-4.8-7.8-9.7-7.5-10.5 1.4-19.2 11.8-26.1 31.2-2.2 3.2-4.4 3.2-6.7 0-5.2-19.8-12-30.2-20.3-31.1-3.1-.6-5.3-.5-6.6.5-3.6.6-9.8 17.6-18.4 50.9 0 7.7 3.1 13.4 9.4 17.2 4.1 1.5 8.2 1.5 12.5 0-2.1 10.3-9.4 15.5-21.9 15.5-7.6 0-14.4-1.7-20.3-5.2-10.4 3.4-20.3 5.2-29.7 5.2-13.3 0-22.7-6.4-28.1-19.2-1.2-3.5.2-4.5 4.4-3 8.5 2.4 15.7 2.9 21.4 1.5 5.7-1.4 9.8-3.2 12.2-5.5 2.4-2.2 12.8-29.1 31.2-80.7l27.7-77.3c-4.3-6.2-8.9-9.9-13.8-11.1-4.4-1-8.9-1.4-13.6-.9-4.7.4-6.2-.8-4.7-3.5 1.7-2.8 6.2-5.3 13.5-7.4zm50.4 34.6l-28.4 71.1H225L198.2 123zm46 75.3l14.2 15.3 3.3-19.8-15.2-16.1-2.3 20.6zM367.9 84.9c11.8 0 20.2 1.2 25.2 3.6 4.9-2 9.5-3 13.9-3 5 0 10.6 1.8 16.7 5.5 9.3-3.2 18.5-4.8 27.7-4.8 24.2 0 40.8 4.2 49.8 12.7 10.2 10 16.2 17.9 18 23.8 9 12.6 17.2 20.8 24.7 24.7l1.1 1.1v1.9c-10.3 8.4-18.3 17-23.9 25.8-4.8 10.5-13.2 21.1-25.3 31.9-8.4 5.4-15.5 9-21.1 10.7s-12.4 2.9-20.3 3.5c-12.8.8-21.6 1-26.4.6v28c0 17.2 3.2 25.8 9.5 25.8h.6l6.7-1.2h1.1c2.8 0 4.2 1.4 4.2 4.2v.6c0 8.1-9.6 13.1-28.8 15-4.8 0-9.2-1-13.3-3-3.8 2-6.9 3-9.5 3-4.4 0-8.8-1.6-13.3-4.8-7.1 3.2-12.5 4.8-16.2 4.8-18.8-1.7-28.1-7.4-28.1-17.3l-.6-3.6c.6-1.7 1.2-2.5 1.9-2.5h1.1l12.7 4.8c9.2-2.3 13.8-6.7 13.8-13.3v-150c-.5-6.5-1.9-9.7-4.2-9.7h-7.8c-1.4 0-4.7 1.2-10.2 3.6h-1.2l-1.7-1.7v-2.5c4.4-12.2 12.2-18.2 23.2-18.2zm22.8 115.3l8.9 16.2h1.2l8.4-16.2-8.4-18h-.6c-6.3 10.1-9.5 16.1-9.5 18zm37.2-85.9v74.8h15c12.6 0 20.2-9.4 22.8-28.3l.6-17.7c-4-21.2-12.3-31.9-25.2-31.9l-13.2 3.1zm-333 230.4c-.2-7.2-2.8-10.2-7.8-9.1-4.4-.7-8.4.3-12.2 3-4.1 1.7-5.8.3-5.3-4.2 5-12.3 13.9-18 26.7-17.2 10.5 0 17.9 1.1 22.2 3.3 11.7-4.8 21.6-3.9 29.8 2.8 10.6-5.2 24.5-7.1 41.6-5.6 13.1 0 24.4 3.7 33.8 11 9.4 7.3 15.5 13.3 18.2 17.7 9.8 16.1 19 25.8 27.5 28.9 1.1 1.6 1.1 3.1 0 4.7-6.2 3.8-11.7 9.4-16.4 16.9s-8.9 12.6-12.7 15.3c-17.7 13.9-30.1 21-37.2 21.6 6.8 4.8 11.6 7.7 14.4 8.8 2.8 1 7.7 1.2 14.7.6-3 6.5-.7 14 7 22.7l30 36.2c6.7 5.6 12 8.8 16.1 9.5 4.1.7 8.8-.6 14.1-4 4.1 0 5.8 2.2 5.3 6.6-2.6 5.2-7.8 8.9-15.6 10.9s-17.4 1.2-28.9-2.5c-8.3 5.1-17.5 5.1-27.5 0-6.6 3.9-16.8 5.1-30.8 3.8-5.9-.7-10.4-2.9-13.3-6.6-1.1-2.2-1.4-4.1-.8-5.7.6-1.6 2.4-2.3 5.4-2s5.4-.2 7.3-1.6c1.9-1.4 1.2-3.9-2.1-7.6l-42.3-55.5-3-.5v38.7c.6 15.4 4.2 23.1 10.6 23.1 8.5-3.2 12.3-1.6 11.4 4.8-2.6 7.3-11 11.8-25.3 13.4-5.8.3-11.5-.7-16.9-3-6.1 4.2-13.7 3.6-22.8-1.6-5.2 2.4-10.3 3.9-15.3 4.5-19.5-1.1-29.2-7.7-29.2-19.7 0-4.4 2.1-5.2 6.2-2.5l9.1 3.9c9.3-2.5 13.9-7.1 13.9-13.9V344.7zm30.7 68.8l-10 18.1 10 17.2 9.2-17.2-9.2-18.1zm27.6-67.1v67.3h13.6c14.6 0 22.8-10.7 24.5-32.2v-7.8c-3.9-20.4-12.6-30.6-26.1-30.6l-12 3.3zm183.1-1.7c-.2-7.2-2.8-10.2-7.8-9.1-4.4-.7-8.4.3-12.2 3-4.1 1.7-5.8.3-5.3-4.2 5-12.3 13.9-18 26.7-17.2 10.5 0 17.9 1.1 22.2 3.3 11.7-4.8 21.6-3.9 29.8 2.8 10.6-5.2 24.5-7.1 41.6-5.6 13.1 0 24.4 3.7 33.8 11 9.4 7.3 15.5 13.3 18.2 17.7 9.8 16.1 19 25.8 27.5 28.9 1.1 1.6 1.1 3.1 0 4.7-6.2 3.8-11.7 9.4-16.4 16.9s-8.9 12.6-12.7 15.3c-17.7 13.9-30.1 21-37.2 21.6 6.8 4.8 11.6 7.7 14.4 8.8 2.8 1 7.7 1.2 14.7.6-3 6.5-.7 14 7 22.7l30 36.2c6.7 5.6 12 8.8 16.1 9.5 4.1.7 8.8-.6 14.1-4 4.1 0 5.8 2.2 5.3 6.6-2.6 5.2-7.8 8.9-15.6 10.9s-17.4 1.2-28.9-2.5c-8.3 5.1-17.5 5.1-27.5 0-6.6 3.9-16.8 5.1-30.8 3.8-5.9-.7-10.4-2.9-13.3-6.6-1.1-2.2-1.4-4.1-.8-5.7.6-1.6 2.4-2.3 5.4-2s5.4-.2 7.3-1.6c1.9-1.4 1.2-3.9-2.1-7.6l-42.3-55.5-3-.5v38.7c.6 15.4 4.2 23.1 10.6 23.1 8.5-3.2 12.3-1.6 11.4 4.8-2.6 7.3-11 11.8-25.3 13.4-5.8.3-11.5-.7-16.9-3-6.1 4.2-13.8 3.6-22.8-1.6-5.2 2.4-10.3 3.9-15.3 4.5-19.5-1.1-29.2-7.7-29.2-19.7 0-4.4 2.1-5.2 6.2-2.5l9.1 3.9c9.3-2.5 13.9-7.1 13.9-13.9V344.7zm30.7 68.8l-10 18.1 10 17.2 9.2-17.2-9.2-18.1zm27.6-67.1v67.3h13.6c14.6 0 22.8-10.7 24.5-32.2v-7.8c-3.9-20.4-12.6-30.6-26.1-30.6l-12 3.3z"/>
</svg>
