<svg xmlns="http://www.w3.org/2000/svg" viewBox="0 0 612 612">
    <path d="M530.5 493.4h-449V118.6h449v374.8zm-8.3-366.5H89.8v358.2h432.4V126.9z"/>
    <path class="color-red" fill="#cb0000" d="M522.2 126.9v358.2H89.8V126.9h432.4zm-35.7 35.6H125.6v286.7h360.9V162.5z"/>
    <path class="color-black" d="M486.5 162.5v286.7H125.6V162.5h360.9zM133.7 441.1h344.6V170.8H133.7v270.3z"/>
    <path fill="#feefb1" d="M133.7 441.1V170.8h344.6v270.3H133.7zm5.9-264.5v258.7h332.7V176.6H139.6z"/>
    <path class="color-black" d="M139.6 176.6h332.7v258.7H139.6V176.6zm18.8 110.8h20c1.1 0 2.3-.2 3.3-.6 3.6-1.9 5.6-4.9 5.6-9.1v-23.6c0-1.5-.2-2.7-1.2-3.6-.9-.8-1.9-1.5-2.7-2.2 2.3-.5 4-2.1 4-5v-24c0-1-.1-1.9-.3-2.8-.9-3.5-4.5-6.9-8.6-6.9-6.1.1-12.1 0-18.2 0h-1.9v77.8zm86.5 67.5c2.6-.7 4.4-2.3 4.3-5.5-.1-7.8 0-15.6 0-23.6 0-1-.1-1.9-.3-2.8-.7-3.5-4.6-7-8.6-6.9-6 .1-11.9 0-17.8 0-.5 0-.8.1-1.3.1v77.9h8.7v-34.5c2.8 0 5.6.2 8.3-.1 1.7-.2 2 .8 2.3 2 .1.3 0 .6 0 1v31.6h8.8c0-11.1-.1-22 .1-33-.2-3.1-1.6-5.4-4.5-6.2zm83.7-80.5c-2.5-.1-4.4.9-5.6 3-1.1 1.9-2 3.9-1 6.2 1.6 3.5 4.4 4.9 8.1 5h7.3c1.8 0 2.4.4 2.6 2.1.2 1.1.2 2.4 0 3.5-.1.5-.6 1.3-1 1.5-1.6.4-3.3.6-4.9.6-2.7.1-3.6-.9-3.5-3.5 0-.1-.1-.2-.2-.3h-8.6c0 1.7-.3 3.5.1 4.9 1 4.4 4.7 7.3 9.2 7.3 3.5.1 6.9-.2 10.3-.2 3.1-.1 6.9-4.2 7.3-6.9.3-2.3.2-4.6.3-6.9.2-4.7-4.3-9.5-9.2-9.3-1.6.1-3.3 0-5 0-2.2.1-4.5-2.3-4.3-4.7.2-1.5.8-2.1 2.3-2.1 2.3 0 4.5-.1 6.9 0 4.4.2 10.6-4.2 10.2-10.2-.4-5.8-.1-11.6-.1-17.4 0-1.2-.2-2.5-.6-3.5-1.3-2.7-2.7-5.4-6.2-5.7-1.8-.2-3.6-.3-5.5-.5 0-2.1 1.4-3.3 3-4.2-.6-1.5-1.3-2.7-2-4.4-1.5 1.5-2.9 2.5-3.8 3.9-.9 1.4-1.1 3.1-1.7 4.8-1.5 0-3.3-.3-4.9.1-3.5.8-6.3 4.8-6.3 8.5v20.4c0 .6.2 1.2.4 1.8 1 2.9 3.4 4.8 6.4 6.2zm62.2 98.8v-21.1c0-4-3.5-9.5-9.1-9.1-3.8.2-7.7.1-11.6.1-.5 0-.9-.1-1.3.2-3.8 1.9-6.2 4.1-6.2 8.8-.1 11.3 0 22.6 0 33.8 0 3.1 1.5 5.4 3.9 7.3 1.5 1 3 1.5 4.7 1.5 4-.1 8.2.4 12.1-.2 3.5-.5 6.4-3 7-6.5.6-3.2.2-6.6.2-10H382v5.7c0 1-.3 2-1.5 2.1-2.3.2-4.7.4-7 .1-2.2-.2-2.3-.6-2.3-3v-.3c.1-2.7.2-5.5.3-8.3 0-.4.1-.7.1-1.2 6.3.1 12.6.1 19.2.1zm-.4-111c0 5.5.1 11.1 0 16.6-.1 3.5 1.5 6.1 4.2 7.7 1.3.7 2.9 1.3 4.4 1.3 4 .2 8.2.5 12.1-.1 4.5-.6 7.5-4.6 7.5-9.4v-33.1c0-4-3.5-9.5-9-9.1-3.9.2-7.8.1-11.7.1-.5 0-1 .1-1.4.2-4 1.8-6.1 4.7-6 9.1v16.7zM258 368.9v17.3c0 1 .2 2.1.6 3 1.8 4 5.1 5.5 9.2 5.6 3 .1 6 .1 9 0 2.5-.1 4.9-1 6.5-2.8 1.7-1.9 2.7-4.2 2.7-6.9-.1-10.8 0-21.6-.1-32.5 0-1.2-.2-2.5-.6-3.5-1.5-3.5-3.5-6-8.2-6-4 .1-7.9 0-11.9 0-.5 0-1 .1-1.4.2-4 1.7-6.1 4.6-6.1 9.1.3 5.5.3 11 .3 16.5zm55.1-81.5v-41c0-3.8-3.8-9.5-9-9.1-5.4.4-10.7.1-16.1.1-.5 0-.8.1-1.2.1v49.9h8.7v-41.6c2.4 0 4.6-.1 6.9.1.5 0 1.3.6 1.5 1.1.3.6.4 1.4.4 2.1v38.3h8.8zm122.8 0v-41.6h5.6c2.7 0 3.1.5 3.1 3.2v38.3h8.8v-41.2c0-3.6-3.7-9.2-8.7-8.9-4.9.3-9.9.1-14.9.1h-2.6v50c2.9.1 5.7.1 8.7.1zm-213.4 0v-50h-8.7v41.2c-2.1 0-4.1.1-6.1 0-2.5-.2-3-.6-3-3.4v-.2c.1-6.5.2-13.1.3-19.6.1-5.8 0-11.7 0-17.6 0-.2-.1-.5-.1-.6h-8.6V279c0 .8.2 1.7.6 2.5 1.8 3.7 4.8 5.6 8.9 5.7 5.4.2 11 .2 16.7.2zm72.1 56.5v41.9c0 2.1 1.2 3.9 2.7 5.3 2.3 2.2 5.2 2.7 8.3 2.7h15.3v-50h-8.7v41.3c-2.1 0-4.1.1-6.1 0-1.3-.1-2.8-.1-3-2V382l.3-21.3c.1-5.2 0-10.4 0-15.6 0-.5-.1-.8-.1-1.3-2.9.1-5.7.1-8.7.1zm-43-134.5v77.9h8.6v-77.9h-8.6zM374 222.2c-1.8 4.2-5.6 4.6-8.9 6.1v8.9h-8.3v8.6h8.4v36.1c0 1.9 1.5 4.6 2.8 4.8 3.4.4 6.8.6 10.2.9v-.4c-.5-.2-1-.2-1.5-.5-2.2-1.2-2.8-3.1-2.8-5.5.1-11.3 0-22.6 0-33.8v-1.7h8.5v-8.6H374v-14.9zm-27.9 121.7v-14.6c-1.9 3.7-5.6 4.2-8.9 5.7v8.9h-8.3v8.6h8.4v36.1c0 1.9 1.5 4.6 2.7 4.8 3.4.4 6.8.6 10.2.9v-.4c-.5-.2-1-.2-1.5-.5-2.2-1.2-2.8-3.1-2.8-5.5.1-11.4 0-22.7 0-34v-1.5h8.5V344c-2.6-.1-5.3-.1-8.3-.1zm-115-106.6v49.9h8.6v-41.1c0-2.4.9-2.6 2.6-2.5.5.1 1 .7 1.5 1.1v-7.6l-12.7.2zm46.4 50.1v-49.9H269v49.9h8.5zm-8.6-77.9v8.6h8.6v-8.6h-8.6z"/>
    <path fill="#fefefe" d="M158.4 287.4v-78h1.9c6.1 0 12.1.1 18.2 0 4-.1 7.7 3.4 8.6 6.9.2.9.3 1.9.3 2.8v24c0 2.9-1.7 4.5-4 5 .8.6 1.9 1.4 2.7 2.2 1 1 1.2 2.3 1.2 3.6-.1 7.8 0 15.7 0 23.6 0 4.2-1.9 7.3-5.6 9.1-1 .5-2.2.6-3.3.6-6.7.2-13.3.2-20 .2zm8.7-43.4c3.1 0 6 .1 8.9 0 1.8 0 2.5-.8 2.5-2.6v-6.5c0-4.5.1-9.1 0-13.6 0-1.2.2-2.9-1.5-3-3.2-.2-6.5-.1-9.8-.1V244zm.1 34.6h8c2.6 0 3.5-.8 3.5-3.4v-19.6c0-.7-.2-1.5-.5-2.2-.1-.2-.5-.5-.8-.6-3.4-.1-6.7 0-10.1 0-.1 8.6-.1 17.1-.1 25.8zm77.7 76.3c2.9.7 4.4 3.1 4.4 6-.2 11-.1 21.9-.1 33h-8.8v-31.6c0-.4.1-.6 0-1-.2-1.2-.5-2.2-2.3-2-2.7.2-5.5.1-8.3.1V394H221v-77.9c.4 0 .8-.1 1.3-.1 6 0 11.9.1 17.8 0 4-.1 7.9 3.5 8.6 6.9.2.9.3 1.9.3 2.8v23.6c.2 3.4-1.5 4.9-4.1 5.6zm-15-4.2c2.7 0 5.4.1 8 0 1.8-.1 2.5-.8 2.5-2.6v-6.5c0-4.5.1-9.1 0-13.6 0-1.2.2-2.9-1.5-3-2.9-.2-5.9-.1-8.9-.1v25.8zm98.7-76.3c-2.9-1.5-5.3-3.4-6.5-6.5-.2-.5-.4-1.2-.4-1.8v-20.4c0-3.5 2.8-7.6 6.3-8.5 1.6-.4 3.5-.1 4.9-.1.6-1.8.9-3.5 1.7-4.8.9-1.5 2.3-2.4 3.8-3.9.7 1.6 1.5 2.9 2 4.4-1.6.9-3 2.1-3 4.2 1.9.2 3.6.2 5.5.5 3.5.4 4.9 3.1 6.2 5.7.5 1 .6 2.4.6 3.5.1 5.8-.2 11.6.1 17.4.4 6-5.9 10.3-10.2 10.2-2.3-.1-4.5 0-6.9 0-1.5 0-2.2.6-2.3 2.1-.2 2.5 2.1 4.8 4.3 4.7 1.6-.1 3.3.1 5 0 5-.2 9.4 4.5 9.2 9.3-.1 2.3-.1 4.6-.3 6.9-.3 2.7-4.2 6.9-7.3 6.9-3.5.2-6.9.4-10.3.2-4.5-.2-8.2-2.9-9.2-7.3-.3-1.5-.1-3.2-.1-4.9h8.6c.1.2.2.2.2.3-.1 2.5.9 3.5 3.5 3.5 1.6-.1 3.3-.3 4.9-.6.5-.1 1-.9 1-1.5.2-1.1.2-2.3 0-3.5-.2-1.6-.8-2.1-2.6-2.1H330c-3.6-.1-6.5-1.5-8.1-5-1-2.3-.2-4.3 1-6.2 1.2-1.8 3.1-2.8 5.7-2.7zm1.7-19.1c0 2.5-.1 5.1 0 7.6.1 1.1.1 2.5 1.9 2.5 2.1 0 4.3.2 6.4.1 1-.1 2.3-.4 2.3-1.9 0-5.2.2-10.4-.1-15.6-.1-1.8-.4-2.5-2.5-2.4-1.9.1-3.8 0-5.6 0-1.7 0-2.2.5-2.2 2.2-.2 2.6-.2 5.1-.2 7.5zm60.5 117.9h-19.3c0 .5-.1.8-.1 1.2-.1 2.7-.2 5.5-.3 8.3v.3c0 2.3.2 2.7 2.3 3 2.3.2 4.7.1 7-.1 1.2-.1 1.5-1 1.5-2.1V378h8.6c0 3.4.5 6.8-.2 10-.6 3.5-3.4 6.1-7 6.5-4 .5-8.1.1-12.1.2-1.8 0-3.3-.5-4.7-1.5-2.4-1.8-3.9-4.1-3.9-7.3V352c0-4.8 2.4-6.9 6.2-8.8.4-.2.8-.2 1.3-.2 3.9 0 7.7.2 11.6-.1 5.6-.4 9.1 5.2 9.1 9.1v21.2zm-8.8-8.5v-10.5c0-2-.6-2.6-2.6-2.6-1.7 0-3.5.1-5.2 0-2.5-.1-3.1.6-3.1 3.1 0 3.3.2 6.5.3 9.8 0 .1.2.2.2.2H382zm8.4-102.5c0-5.5.1-10.9 0-16.5-.1-4.4 2.1-7.4 6-9.1.5-.2.9-.2 1.4-.2 3.9 0 7.8.2 11.7-.1 5.6-.4 9 5.2 9 9.1v33.1c0 4.6-2.9 8.6-7.5 9.4-4 .6-8.1.2-12.1.1-1.5-.1-3.1-.5-4.4-1.3-2.7-1.7-4.3-4.4-4.2-7.7v-16.8zm19.4.2v-14.8c0-2.3-.6-2.7-2.7-2.7-1.6 0-3.2.1-4.8 0-2.6-.1-3.2.5-3.2 3.2v28.2c0 .7.2 1.5.5 2.3.1.2.5.6.7.6 2.3.2 4.5.5 6.6.2 2.5-.3 3-.2 3-3l-.1-14zM258 368.9c0-5.5.1-11.1 0-16.6-.1-4.5 2.1-7.3 6.1-9.1.5-.2.9-.2 1.4-.2h11.9c4.7-.1 6.8 2.5 8.2 6 .5 1.1.6 2.4.6 3.5.1 10.8 0 21.6.1 32.5 0 2.7-1 5.1-2.7 6.9-1.6 1.8-4.1 2.7-6.5 2.8-3 .2-6 .1-9 0-4.1-.2-7.5-1.7-9.2-5.6-.4-.9-.6-2-.6-3l-.3-17.2zm19.3 0v-14.6c0-2.3-.6-2.7-2.7-2.7-1.6 0-3.2.1-4.8 0-2.6-.1-3.2.5-3.2 3.2V383c0 .7.2 1.5.5 2.3.1.2.5.5.6.6 2.4.2 4.7.4 7.1.3 2.1-.1 2.6-.8 2.6-2.9l-.1-14.4zm35.8-81.5h-8.8v-38.3c0-.6 0-1.5-.4-2.1-.3-.5-1-1.1-1.5-1.1-2.3-.2-4.5-.1-6.9-.1v41.6h-8.7v-49.9c.4 0 .8-.1 1.2-.1 5.4 0 10.7.3 16.1-.1 5.2-.3 9 5.3 9 9.1-.1 13.1 0 26.2 0 39.3v1.7zm122.8 0h-8.7v-50h2.6c5 0 10 .2 14.9-.1 5-.3 8.7 5.2 8.7 8.9v41.2h-8.8v-38.3c0-2.7-.5-3.2-3.1-3.2h-5.6v41.5zm-213.4 0c-5.6 0-11.2.1-16.7 0-4-.1-7.1-2-8.9-5.7-.4-.7-.6-1.6-.6-2.5v-41.8h8.6c0 .2.1.4.1.6 0 5.8.1 11.7 0 17.6-.1 6.5-.2 13.1-.3 19.6v.2c0 2.7.4 3.2 3 3.4 2 .2 4 0 6.1 0v-41.2h8.7v49.8zm72.1 56.5h8.7c0 .5.1.8.1 1.3 0 5.2.1 10.4 0 15.6l-.3 21.3v1.2c.2 1.9 1.7 1.9 3 2 2 .2 4 0 6.1 0V344h8.7v50h-15.3c-3.1.1-6-.6-8.3-2.7-1.5-1.5-2.7-3.2-2.7-5.3-.1-14 0-28 0-42.1zm-43-134.5h8.6v77.9h-8.6v-77.9zM374 222.2v14.9h8.5v8.6H374v1.7c0 11.3.1 22.6 0 33.8 0 2.4.6 4.3 2.8 5.5.5.2 1 .3 1.5.5v.4c-3.4-.3-6.8-.5-10.2-.9-1.4-.2-2.8-2.8-2.8-4.8v-36.1h-8.4v-8.6h8.3v-8.9c3.2-1.4 7-1.9 8.8-6.1zm-27.9 121.7h8.5v8.5h-8.5v1.5c0 11.4.1 22.7 0 34 0 2.4.6 4.3 2.8 5.5.5.2 1 .3 1.5.5v.4c-3.4-.3-6.8-.5-10.2-.9-1.4-.2-2.7-2.8-2.7-4.8v-36.1h-8.4v-8.6h8.3V335c3.2-1.5 7-1.9 8.9-5.7-.2 4.9-.2 9.8-.2 14.6zm-115-106.6h12.7v7.6c-.5-.4-.9-1-1.5-1.1-1.7-.2-2.6 0-2.6 2.5v41.1h-8.6v-50.1zm46.4 50.1H269v-49.9h8.6v49.9zm-8.6-77.9h8.6v8.6h-8.6v-8.6z"/>
    <path class="color-black" d="M167.1 244v-25.7c3.3 0 6.5-.2 9.8.1 1.7.1 1.5 1.9 1.5 3 .1 4.5 0 9.1 0 13.6v6.5c0 1.8-.6 2.6-2.5 2.6h-8.8zm.1 34.6v-25.7h10.1c.3 0 .6.3.8.6.2.6.5 1.5.5 2.2v19.6c0 2.5-.8 3.4-3.5 3.4l-7.9-.1zm62.7 72.1V325c3 0 6-.2 8.9.1 1.7.2 1.5 1.9 1.5 3 .1 4.5 0 9.1 0 13.6v6.5c0 1.8-.6 2.6-2.5 2.6-2.6 0-5.2-.1-7.9-.1zm100.4-95.4v-7.5c0-1.6.5-2.2 2.2-2.2 1.9 0 3.8.1 5.6 0 2.3-.1 2.5.6 2.5 2.4.2 5.2.1 10.4.1 15.6 0 1.5-1.3 1.9-2.3 1.9-2.1.2-4.3-.2-6.4-.1-1.9 0-1.9-1.4-1.9-2.5.1-2.5.2-5 .2-7.6zM382 364.7h-10.4c-.1-.1-.2-.1-.2-.2-.2-3.3-.3-6.5-.3-9.8 0-2.5.5-3.2 3.1-3.1 1.7.1 3.5 0 5.2 0 1.9 0 2.6.6 2.6 2.6v10.5zm27.8-102.3v13.9c0 2.9-.5 2.7-3 3-2.2.2-4.4-.1-6.6-.2-.3 0-.6-.3-.7-.6-.2-.7-.5-1.5-.5-2.3V248c0-2.7.6-3.4 3.2-3.2 1.6.1 3.2 0 4.8 0 2.2 0 2.7.6 2.7 2.7l.1 14.9zM277.3 368.9v14.2c0 2.1-.6 2.8-2.6 2.9-2.4.1-4.7-.2-7.1-.3-.2 0-.6-.3-.6-.6-.2-.7-.5-1.5-.5-2.3v-28.2c0-2.7.6-3.4 3.2-3.2 1.6.1 3.2 0 4.8 0 2.2 0 2.7.6 2.7 2.7l.1 14.8z"/>
</svg>
