<svg xmlns="http://www.w3.org/2000/svg" viewBox="0 0 612 612">
    <path class="color-red" fill="#f5030a" d="M54 282.7c4.2-12 7.9-24.3 12.8-36 14.1-35.2 39.1-60.9 72.3-78 29.8-15.5 62.5-23.5 95.4-29.7 10.5-1.9 21.4-1.9 33.8-2.9V179c-18.3 5.4-38.7 9.1-57.2 17.4-28.4 12.8-52.5 32.8-61.2 63.8-9.6 34.2-.7 66.5 20.3 94.9 7.9 10.7 18.4 19.4 27.8 28.9 4.8 3 9.6 5.9 14.5 8.8 18.3 15.1 40.9 18.3 63.2 20.9 17 2 34.2 2.1 51.3 2.2 8.9.1 17.8-1.6 28.6-2.7-1.1 12.6-1.6 23.7-3.4 34.5-.4 2.5-5.4 6.2-8.4 6.3-37.6 1.1-74.9-1.8-112.3-7.5-38.1-5.9-74.1-16.4-107.8-34.6C92 394.8 70.1 369.1 58.2 335c-1.9-5.3-2.9-10.9-4.2-16.3v-36zm503.9 144c-17.2-1.4-34.6-4.9-51.6-3.7-21.3 1.5-42.4 6.8-64.8 10.7-7.4-13.3-15.6-28.2-24.4-43.8 28.5-6.3 54-20.4 77.8-40.4 12.6 27.5 33.8 47.3 54.6 67.6 2.4 2.3 5.6 3.6 8.5 5.4-.1 1.4-.1 2.8-.1 4.2z"/>
    <path class="color-green" fill="#057913" d="M443.6 511.4c-11.5-11.3-23.1-22.6-34.4-34.1-1.9-1.9-4.1-5.7-3.5-7.7 5.7-17.8.3-34.7-7.3-49.7-15.9-31.7-34.3-62.1-51.6-93.2-1.2-2-1.9-4.3-2.9-6.5 17.9-3.7 20.3-3 29.2 12.1 16.4 28 32.6 56.1 48.5 84.5 7.2 12.8 15.3 25.4 19.8 39.1 4.8 14.8 6.1 30.8 8.2 46.4.4 2.9-2.5 6.2-4 9.2-.6-.1-1.3-.1-2-.1zM337.7 100.6c19.4 9.6 26.5 16.7 32.4 34.2-10.8-3.9-20.4-6.1-28.7-10.6-11-5.9-28.1-6.8-38 1.4-9.5 7.9-12.2 18.8-10.7 31.2 3.9 30.9 20.6 56.8 32.4 84.6 3.1 7.4 6.2 15 9.4 23-7.4 2-13.6 3.7-21.1 5.8-7.4-17.2-15.2-34.4-22.2-51.9-5.6-14.2-11.9-28.5-14.6-43.4-7.6-41.8-1-57.9 35.7-74.6 8.5.3 16.9.3 25.4.3z"/>
    <path class="color-green" fill="#057913" d="M274.2 197.4c5.7 14.4 10 25.1 14.5 36.5-10.7 2.1-21.4 4.2-32 6.5-2.6.6-5.7 1.3-7.5 3-6.2 5.6-13.4 11.2-10.4 21.1 3 10.1 12.1 13.4 21.1 13.6 13.5.3 27.2-.8 40.7-2.3 37.4-3.8 74.9-8 111.6 3 12.5 3.8 25 10.1 32.1 22.5 6.8 12 6.9 24.7 1.7 37.4-7.9 19-15 26.2-37.5 37.5-6-10.1-12-20.2-18.3-30.7 1.4-.8 2.4-1.1 3.1-1.6 6.8-4.7 13.9-11.2 11.6-19.3-2.5-9.1-11.7-14.6-21.5-14.4-28.2.8-56.5 3.6-84.7 3.7-23.3.1-47.3.3-69.6-5.1-21.5-5.2-35.9-23.3-36.9-46.2-.8-20.3 7-39.2 27.7-47.7 17.6-6.9 36-11.6 54.3-17.5z"/>
    <path class="color-red" fill="#f5030a" d="M426.6 206.1c-22.7-13.4-47.5-20.1-73.1-24.9-13.5-2.5-27.6-2.5-41.2-4.7-3.8-.6-7.1-4.8-10.3-7.7-.8-.7-.3-2.7-.4-4.1-1.8-30.3-1.8-30.3 28.3-30.3 29.6-.1 57.7 7.4 85.2 17.4 16.7 6 33.1 12.3 50 17.8 16.1 5.2 37.4-5.1 46.5-21.7 2.1-3.9 4.4-7.7 6.9-12.2 11.4 7.4 22.2 14.3 33.7 21.6-21.7 34.8-41 70.2-45.4 113.4-15.8-27.6-38.8-44.8-65.4-57.6-4.9-2.3-9.8-4.6-14.8-7z"/>
    <path class="color-green" fill="#057913" d="M426.6 206.1c4.9 2.4 9.9 4.7 14.8 7 0 1.1.3 2.2-.1 3.1-5.2 14.4-10.4 28.7-15.7 43.4-25.2-16.2-54-19.5-81.9-25.2-11.4-2.3-19.9-4.1-22.1-17.2-1.2-6.8-5.2-13.1-9.1-22.7 14.9 2.1 27.3 3.6 39.7 5.7 19.6 3.2 39.1 7.3 58.7 9.9 5.1.7 10.5-2.5 15.7-4zM278.4 456.6c6.9 3 14.5 5 20.7 9.2 13.2 9 26.9 10.4 40.8 4 14.2-6.6 20-19.6 20.8-34.4.8-13.7.2-27.5.2-41.6-9.7-1.2-19.3-2.4-32.1-3.9 4.7-10.7 7.6-21.3 13.6-29.7 5.4-7.5 13.5-3.7 18.3 2.6 5.7 7.6 11 15.8 14.9 24.4 2.4 5.3 2.5 12 2.3 18.1-.2 10.4-1.6 20.8-2 31.2-1.3 34.9-19.4 51.8-50.4 55.2-19.2 2-35.8-3-47.1-35.1zm-66-63.8c-4.8-3-9.6-5.9-14.5-8.8 1.4-5.2 3.9-10.4 4.1-15.6.5-16.4.2-32.8.2-48.3 22.7 12 45.1 23.8 69.9 36.8-1.1 7.2-2.9 18.2-4.6 29.3-13.7-.7-26.5-1.3-39.3-1.8-6.9-.4-12.7 1.5-15.8 8.4zm76.2-69.6h20.1c-5.9 26.3-11.7 52.4-17.9 78.5-.5 2.3-4.9 4.3-7.8 5-2.4.5-5.2-1.1-10-2.4 5.2-26.7 10.4-53.7 15.6-81.1z"/>
    <path class="color-green" fill="#057913" d="M352 349.5c-33.8 7.5-23.6 38.9-32.7 60.2-4-.9-8.3-1.9-13.5-3.1 3.3-21.4 3.6-43.7 19-61.1 13.2-14.8 18.9-13.6 27.2 4z"/>
    <path class="color-red" fill="#f5030a" d="M383 449.5c1-14.2 1.8-25.4 2.7-39.5 4.9 7.4 9 12 11.2 17.2 2.1 5 5 12.7 2.7 15.8-2.8 3.9-10.4 4.3-16.6 6.5z"/>
    <path class="color-green" fill="#057913" d="M345 185.3c6.7.9 14.3-.6 16.4 9.2-13.3 1.3-17.1-.7-16.4-9.2z"/>
</svg>
