<svg xmlns="http://www.w3.org/2000/svg" viewBox="0 0 612 612">
    <path class="color-black" d="M.3 284.3c.4-1 1.2-2 1.3-3.1.4-20.3 5.2-39.8 10.4-59.4 5.1-19.3 12.7-37.7 21.9-55.4 8.1-15.6 17.5-30.3 28.1-44.3 11.6-15.1 24.3-29.2 38.4-42 15.7-14.2 32.5-27.1 50.8-37.9 20.1-11.8 41.1-21.4 63.4-28.3 14.2-4.3 28.7-7.7 43.2-10.2C279.5 0 301.5-.9 323.4.2c14.7.8 29.3 2.6 43.9 5.9 14.5 3.2 28.8 6.9 42.7 11.8 19.2 6.8 37.5 15.7 54.9 26.3 14.7 9.1 28.7 19.2 41.3 31 9.1 8.6 18.8 16.6 27 26 13.6 15.6 26.2 32 36.7 50 11.9 20.2 21.6 41.1 28.1 63.4 4.1 13.9 6.9 28.4 9.8 42.7 4.5 21.6 4.7 43.6 3.6 65.5-.8 14.7-2.8 29.3-5.8 43.9-4.1 19.7-9.7 38.8-17.3 57-5 11.9-11.6 23-17.7 34.5-6 11.6-13.8 22-21.7 32.4-10.9 14.3-23 27.5-36.2 39.7-15.7 14.6-32.7 27.5-51.2 38.5-20.3 12.2-41.8 22-64.5 28.8-14.1 4.2-28 8.4-42.7 10-7.9.8-15.7 1.7-23.7 2.6-.6.1-1.3.8-1.8 1.3H284c-.6-.4-1.2-1.2-1.8-1.3-8.3-.9-16.8-1.2-24.9-2.7-14.3-2.8-28.7-5.8-42.7-9.8-22.3-6.5-43.2-16.2-63.4-28.1-18.2-10.7-34.8-23.3-50.4-37.2-14.1-12.7-26.9-26.7-38.5-41.8-11.1-14.5-20.7-29.7-29.2-45.8-9.1-17.5-16.5-35.7-21.6-54.7-5.2-19.4-9.8-39-10.4-59.2 0-1-.8-2-1.3-3.1.5-14.6.5-29 .5-43.5zm305.3 299.6c75.2-1.9 140.7-26.3 194.6-77.8 54.2-51.8 83-116.5 85.7-191.4 2.7-77.3-23.5-145.3-76.9-201.3-51.9-54.5-117-83-191.9-85.8-78.2-2.9-147.1 23.2-203.9 77.1-54.5 51.8-83.3 116.9-85.7 192-2.4 77 23.7 144.9 76.9 200.7 54.7 57.2 123.3 84.2 201.2 86.5z"/>
    <path fill="#fefefe" d="M305.6 583.9c-77.9-2.3-146.6-29.3-201.2-86.6C51.2 441.5 25 373.6 27.5 296.6c2.4-75.1 31.1-140.1 85.7-192 56.8-54 125.7-80.1 203.9-77.1 74.8 2.8 140.1 31.3 191.9 85.8 53.3 56 79.6 124.1 76.9 201.3-2.6 74.8-31.3 139.6-85.7 191.4-53.9 51.5-119.4 76.1-194.6 77.9zm-166-119.2v3.7c-4.6 8.8-9.2 17.5-12.8 24.3 4 5 7.2 9.2 11 13.9 5.8-11.3 11-21.5 15.9-31.1 4.2 1.2 7.9 3.7 10.7 2.8 15.3-4.2 25.7-17.9 16.9-34.7-5.4-10.2-14.3-16.9-21.7-25.5-7.2 6.1-14.1 12.2-21 18-2.6 2.2-5.1 4.2-7.7 6.4-4.3 3.5-8.6 6.9-12.9 10.4-3.3 2.6-6.8 5.1-10.1 7.5l-2.6 2.6c-1.8.9-3.5 1.9-5.4 2.9 3.3 3.7 6.1 6.9 9.1 10.1.6 1.2 1.2 2.2 1.8 3.3 3.6-2.6 7.2-5.1 10.7-7.7 2.8-2.4 5.6-4.9 8.3-7.3 2.6-.5 3.8-4.7 7.4-2.4.7 1.1 1.6 2 2.4 2.8zm108.8 15.2c-.9.1-1.7.3-2.6.4-.9.5-2.2.9-2.4 1.7-4 12-7.7 24.2-11.6 36.3-3.7 11.3-7.9 22.4-12.2 34.3 6.7 1.9 12.9 3.7 19.7 5.8 8.1-24.9 16.2-49.8 24.6-75.3-2.6-.5-5.1-1-7.7-1.5-2.6-1.3-4.9-3.6-7.8-1.7zm-23-29.2c.6.8 1.3 1.4 1.9 2.2 6 2.7 11.8 5.6 17.9 7.9 6.9 2.6 14.1 4.3 21.1 6.5 9.6 1.7 19.2 4.2 28.9 4.7 10.9.5 21.7-.8 32.6-1.3 2.4-.4 4.9-.8 7.3-1 15.2-2 29.5-7.2 43.2-13.9 8.6-4.2 16.4-9.5 24.2-14.8 12.9-9 23.3-20.5 33.4-31.9 10.4-11.6 18.2-25.2 24.2-39.9 6.8-16.6 11.1-33.8 12.2-51.5.9-15.7.1-31.3-3.5-46.9-4.1-18.3-10.9-35.3-20.7-51-11.3-18-26.1-32.9-42.5-46-6.9-5.6-15.1-9.8-22.6-14.7-5.6-2.6-11.1-5.1-16.8-7.8-2.6-.9-5.1-1.7-7.7-2.6-13.3-6-27.6-7.8-42-8.6-11.3-.6-22.8.1-34 1.3-7.2.6-14.2 3.2-21.4 4.7-7.7 2.7-15.3 5.4-22.9 8.1-13.7 5.6-26.1 13.7-36.7 23.5-11.1 10.2-22.3 20.6-31.3 33.1-18 24.7-27.9 52.3-30.3 82.4-1.2 14.1-.4 28.1 2.2 42.2 2.8 14.8 7.3 29 13.8 42.6 10.2 21.7 26.2 39.1 43.9 55 2.3 2 4.5 4.3 7 6 6 3.9 12.3 7.8 18.6 11.7zm266-174.1c.1 1.5.3 3.2.4 5.1 3.6-.5 6.8-.8 10-1.4 3.8-.6 7.8-1.5 11.6-2.4 2.9-.1 5.9-.3 9-.4 1.4 6.3 2.9 12.7 4.5 19.7 4.5-1 9-1.9 14.1-3.1-1.2-5-2.3-9.1-3.1-13.3-.4-2.3-1.4-5.8 1.9-6.5 4.1-1 8.4-1 12.7-1.4 1.4 8.3 2.8 16.1 4.3 24.6 6-.8 11.4-1.4 16.6-2-2.4-14.1-4.7-27.8-7.2-42-2.3.5-4.6 1.2-6.9 1.4-10.1 1.4-20.2 2.6-30.3 4-3.6.5-7 1.5-10.6 2.3-10.1 1.3-20.2 2.6-30.4 4 1.3 4.3 2.3 7.9 3.4 11.4zm13 30.6c-3.3-.5-6.5-1-9.7-1.4-.6 5-1.2 9.1-1.7 13-.3 2.7-1.2 5.9 2.9 6.3 5.4.6 10.7.8 16.1 1.2 15.7.9 31.5 1.9 47.2 2.8 3.3.5 6.7 1 10.1 1.7.6-7 1.3-13.2 1.8-19.7-22.9-1.3-44.7-2.6-66.7-3.9zM98.6 364.8c-.8 0-1.5 0-2.3-.1.1-.4.3-.9.5-1 8.3-6 16.8-11.9 24.9-18 1.3-.9 2.4-2.9 2.3-4.3-.4-3.5-1.4-6.8-2.4-10.1-.8-2.3-1.9-3.8-5-3.3-8.7 1.4-17.5 2.6-26.3 3.8-4.9.8-9.7 1.8-14.6 2.7-10.2 1.2-20.5 2.3-31.1 3.6 1.7 6.7 3.2 12.4 4.6 18 11-1.8 20.8-4.7 31.9-5.1-.9 1.4-1.3 1.9-1.5 2.6-6 4.2-11.9 8.4-17.9 12.8-3.1 1.9-6.1 3.8-9 5.6 2.4 7.7 4.6 14.6 6.8 21.5 24.7-7.9 48.7-15.6 73-23.4-1.8-5.1-3.3-9.3-5-13.9-10.5 2.7-19.7 5.6-28.9 8.6zm165 185.4c-.9 4.1-1.8 8.2-2.8 12.7 14.6 1.9 28.4 3.6 42.3 5.4.6-7 1.2-13 1.7-18.8-7.9-1.3-14.8-2.4-22-3.6 2.7-19.6 5.4-38.8 8.1-58.1-3.5-.5-6.3-.9-9.1-1.4h-2.6c-1.9-.6-3.7-1.3-5.9-1.9-.6 3.5-1.4 6.3-1.8 9.2-.9 7-1.7 14.1-2.7 21.1-1.3 8.8-2.6 17.7-4 26.5-.3 3.1-.7 6-1.2 8.9zm199.7-94.6h-2.4c-4.2-2.2-8.6-4.2-12.8-6.4-1.7-.8-3.3-1.7-5-2.4-2.7-1.5-5.1-3.2-7.9-4.3-1-.5-3.1-.4-3.8.4-3.3 2.9-6.3 6.1-10 9.8 8.7 4.3 16.4 8.3 24 12.2 15.6 7.8 32.2 13.9 43.4 28.5.3.3.6.5 1.3 1 3.5-3.6 7-7.2 10.7-10.9-7.8-7.5-14.8-14.5-19.2-24-6.7-14.7-14.3-29-21.4-43-3.7 3.5-7.2 6.8-10.6 10.1 4.5 9.3 9.1 19.1 13.7 29zM97.3 146c-7.4 10.4-14.7 20.6-22.1 30.8 5.4 3.7 10.1 7 15 10.5 2.9-4.2 5.6-8.2 8.2-11.9 16.8 10.4 33.1 20.5 50 31 2.6-3.8 4.7-7.3 6.7-10.2-15.2-12.9-31.9-22.3-47.7-33 2.9-4.7 5.8-9 8.6-13.4-3.5-2.3-6.4-4.3-9.5-6.4-1.5-1.2-3.1-2.4-4.6-3.7-1.7 2.4-3.2 4.3-4.6 6.3zm388 57.7c.4-.4 1-.9 1-1.4 1.7-14.6 21.5-26.2 36.8-14.1 4.9 3.8 7.4 8.7 9.1 14.1 1 3.6 2.2 4.6 5.6 3.1 3.6-1.5 7.3-2.4 11.3-3.7-.5-3.1-.6-6-1.7-8.6-5.6-15-16.2-26.3-34.2-26.5-15.1-.1-28 5.2-38 16.6-7 8.1-11.1 17.3-5.9 28.1 1.4 8.7 7.5 14.8 11.9 21.2 4.7-2.6 9.2-5 13.9-7.5-5.8-5.9-10.2-12.5-9.8-21.3zm-258.6-82c-3.7 1.7-7.4 3.2-11.3 5-3.3-5.6-6.8-11.4-10.4-17.4 5.4-2.9 10.6-5.6 15.7-8.4-2.3-4.6-4.2-8.4-6.3-12.4-5.6 2.7-11 5.4-16.2 7.9-2.3-3.8-4.2-7.2-6.3-10.6 6.8-3.5 13.3-6.9 20-10.2-2.3-4.5-4.2-8.3-6.4-12.9-12.9 3.6-23.3 12.3-35.6 18 13.4 22.6 26.6 44.8 39.9 67.2 3.3-1.9 6.3-3.6 9.3-5.4 5.9-2.8 11.9-5.2 17.5-8.4 2.7-1.5 4.3-4 1-7-1.2-1.2-1.4-3.2-2-4.9-.5-1.4-1-2.8-1.7-4.7-2.8 1.5-5.1 2.8-7.2 4.2zm29.6-24.3c.4-1.3.8-2.7 1.2-4 1.3.9 2.9 1.5 3.7 2.7 5.5 8.4 10.7 17 16.2 26 3.5-.5 6.9-1 10.4-1.5 3.2-.5 4-2.2 2.2-5.1-6-9.3-12.2-18.5-18-27.6 2.3-2 5.2-3.7 6.9-6.3 4.6-7.3 4.1-15-.3-22.4-4.1-6.9-9.6-11.8-17.9-11.4-5.9.3-11.8 2-17.7 3.3-4.2.9-8.4 2.2-12.4 3.2 6.8 24.8 13.3 48.7 20 73 4.5-.6 8.7-1.4 13.7-2-2.7-9.6-5.4-18.7-8-27.9zM334 515.2c-3.3-9.2-6.3-17.1-9.3-25.3-6.4 1.4-12.9-1.5-18.4 1.8 7.8 25.1 15.5 49.4 23.2 74.2 6-.6 11.5-1.3 17.4-1.9 2-12.7 4.2-25.2 6.3-37.7 5.9 9.1 10.7 17.9 15.2 27 1.4 2.7 2.9 3.8 5.8 3.5 4.5-.6 9.1-1.2 14.3-1.8-.6-4-1.4-7.8-1.7-11.8-1-14.5-1.8-29-2.6-43.5-.5-7.8-1-15.5-1.5-24-6.1 2-11.9 4-17.8 6 .9 10.6 1.7 20.8 2.6 32.5-4.2-8.7-7.9-16-11.3-23.4-1.4-3.2-3.5-4.9-6.8-4.1-4.6.9-9.1 2.2-13.3 3.2-.8 7.9-1.5 15.8-2.1 25.3zM320.2 85.3c.3 0 .5 0 .8.1 2.9 12.2 5.9 24.2 9 36.3 5.2.5 10.4 1.2 15.5 1.7 5.1-25.6 10-50.4 15-75.1-6.7-1.3-12.3-2.4-17.8-3.5-2.2 11.9-4.1 23-6.3 34.9-3.6-12.4-6.8-24-10.1-35.6H304v75c5.5.5 10.7 1.2 16.4 1.7-.2-12.5-.2-24-.2-35.5zM51.4 236.7c24.3 7.7 48.9 15.5 73.9 23.4 2.3-4.5 4.6-9 6.9-13.4-9.8-5-20.8-5.9-29.9-12.4 1.8-1.3 3.7-2.6 5.2-2.2 7.4 1.3 14.8 3.3 22.4 4.6 1.4.3 3.8-.9 4.5-2 2.6-4.3 4.5-9.1 6.9-13.9-11.3-1.9-21.9-3.6-32.4-5.5-1.3-.3-3.5-1.2-3.5-2-.5-5.5-4.9-8.2-8.2-11.6-5.6-5.9-12.8-6.8-20.2-4.9-8.6 2.2-13.6 8.4-16.6 16.4-3 7.4-5.8 15.1-9 23.5zm407.7-41.9c14.8-21.7 29.4-43.1 43.5-63.8-6.9-6.9-13.4-13.4-20.1-20.2-21.5 15.1-43.2 30.6-64.9 45.8 4.2 4.3 7.9 8.3 11.9 12.4 6-4.2 12-8.4 17.4-12.3 3.6 3.5 6.8 6.5 10.2 9.8-3.5 5.4-6.9 10.7-10.2 15.9 4.2 4.4 8.1 8.1 12.2 12.4zm-277 319.9c3.6 1.8 9.2 4.7 14.8 7.5-1.7 6-3.2 11.6-4.9 17.4 5 2.4 9.7 4.9 16 7.9 7.4-25.7 12-51.5 18.7-76.9-6.7-3.3-13-6.5-20-10-18.2 18.8-36.5 37.9-54.7 56.7 5.6 3.5 10.5 6.7 13.7 8.6 5.6-3.8 10.4-7.3 16.4-11.2zm286.8.2c-2.4-2.2-4.5-3.7-6.1-5.5-11.5-12.3-23-24.7-34.5-37.1-4.9-5.2-9.5-10.5-14.2-15.7-6.4 3.2-11.9 6.4-17.8 9-2.9 1.3-3.8 3.2-3.2 5.9 1.9 7.8 4.2 15.5 6 23.3 2.8 12 5.2 24.2 8.1 36.2 1.2 4.9 2.7 9.7 4.3 15.2 5.8-2.8 10.9-5.2 16.2-7.8-1.8-7.3-3.6-14.5-5.4-21.6 4.5-2.2 8.7-4.3 12.9-6.4 5.4-2.7 6.4-2.4 9.8 2.2 2.8 3.6 5.9 7 8.7 10.4 5.5-3.2 10.2-5.5 15.2-8.1zm-344.3-398c-4 3.8-7.8 7.7-11.8 11.6.3.4.5.9 1 1.4l48.4 48.4c1.7 1.7 3.8 2.8 5.1 3.7 3.8-3.8 7.2-7 11.4-11.1-8.4-7.9-17-16.1-25.6-24.2 4-3.8 7.3-7 10.5-10.2 8.3 8.1 14.2 18.8 24 25.3 3.8-4 7.2-7.4 10.6-11-16.6-18.5-33.5-37.5-50.4-56.4-4.3 4.5-7.9 8.2-11.4 11.8 5.8 6.4 11.6 12.9 17.4 19.3-3.6 3.6-6.9 6.8-10.9 10.7-5.8-6.4-12.2-12.9-18.3-19.3zM83.9 318.8c9.3.4 19.4-2.7 28-9.2 14.5-10.9 15.3-27.8.4-38.9-17.7-13.2-41.1-13.2-59.1-.1-11.9 8.7-15.7 23.7-3.1 35.9 8.9 8.6 20 12.3 33.8 12.3zM421 67.2c-11.3 19.8-22 38.8-32.7 57.7-1.9 3.3-3.5 6.9-5.1 10.5 4.7 2.3 9.5 4.7 14.2 7 4.1-7.5 8.1-14.7 11.9-21.9 5.2 2.2 10.2 4.5 15.5 6.3 19.2 6.4 31.7-11.5 30.8-26-.5-8.4-5.6-15.1-12.5-19.8-7-4.8-14.3-9-22.1-13.8zm133.4 327.6c1.9-4 3.7-6.8 4.6-9.8 1.7-5.6 4.1-11.5 4-17.3-.3-13-13.3-24.2-24-27.1-9.7-2.6-19.2-4.7-29.3-2.6-10.9 2.3-20.8 6-25.3 17.3-2.6 6.5-4 13.6-2.6 20.7 4.9 1 9.7 2 15 3.1 0-3.1.3-5.6 0-8.1-.8-6.9 2.8-11.1 8.7-13.8 8.8-4.1 17.9-5.1 27.1-2 13.6 4.5 17.3 13.8 12.3 26.2-1.3 3.2-3.1 6.3-4.9 9.7 4.9 1.4 9.6 2.6 14.4 3.7zm-73.3-155c2.6 6.8 4.9 12.9 7.2 18.9 24.4-7.8 48.5-15.6 72.8-23.4-2.6-6.8-4.9-12.8-7.2-18.9-24.6 7.9-48.6 15.6-72.8 23.4z"/>
    <path class="color-black" d="M383 158.8c7.5 4.9 15.7 9.1 22.6 14.7 16.4 13.2 31.2 28.1 42.5 46 9.8 15.7 16.6 32.7 20.7 51 3.5 15.6 4.2 31.2 3.5 46.9-1 17.8-5.4 34.9-12.2 51.5-6 14.7-13.9 28.3-24.2 39.9-10.2 11.4-20.5 23-33.4 31.9-7.8 5.4-15.6 10.6-24.2 14.8-13.7 6.8-28 11.9-43.2 13.9-2.4.4-4.9.8-7.3 1 0-5.5.1-11.1-.1-16.6 0-1.5-.8-3.8-1.8-4.2-4-1.8-8.1-3.3-12.3-4.3-5.5-1.4-6.1-1.9-6.3-7.7v-4.5c.1-3.2-1.4-4.7-4.6-4.6h-8.3c-6.5 0-6.8-.3-7.5-6.5-.5-4.5-1.3-9.1-1.9-13.4-.9-.3-1.3-.4-1.7-.4-2.9 0-6 0-9-.1-6.7-.1-7.8-1.2-7.9-7.8v-45.4c0-8.2 0-8.2 8.1-8.2 13.8 0 12.3 1.3 12.4-12.3 0-7 1.2-8.2 8.2-8.2 9.2 0 18.3-.1 27.5 0 3.8 0 5.5-1.4 5.4-5.2-.1-2.6 0-5.1 0-7.7.1-6.1 1.4-7.5 7.5-7.5 8.7-.1 17.5 0 26.2 0 6.9 0 7.3-.3 7.2-7.2-.3-13.4 0-13.6 13.3-13.3 6.9.1 7.2-.3 7.2-7.2v-88.5c0-6.3-.4-6.7-6.4-6.7-2.6 0-5.1.1-7.7 0-4.5-.3-6.1-1.8-6.4-6.1-.1-2.8-.1-5.5 0-8.3.1-5.1 2.4-7.7 7.4-8.6 2.2-.1 4.4-.6 6.7-1.1z"/>
    <path class="color-black" fill="#010101" d="M383 158.8c-2.3.5-4.5 1-6.8 1.4-5 .9-7.3 3.5-7.4 8.6 0 2.8-.1 5.5 0 8.3.3 4.3 1.8 5.9 6.4 6.1 2.6.1 5.1 0 7.7 0 6 .1 6.4.5 6.4 6.7v88.5c0 6.9-.3 7.3-7.2 7.2-13.4-.3-13.6-.1-13.3 13.3.1 6.9-.3 7.2-7.2 7.2h-26.2c-6 0-7.4 1.4-7.5 7.5 0 2.6-.1 5.1 0 7.7.3 3.8-1.5 5.4-5.4 5.2-9.2-.1-18.3-.1-27.5 0-6.9 0-8.1 1.2-8.2 8.2-.1 13.6 1.5 12.2-12.4 12.3-8.1 0-8.1 0-8.1 8.2v45.4c0 6.7 1.2 7.7 7.9 7.8 2.9 0 6 0 9 .1.4 0 .8.3 1.7.4.6 4.3 1.4 8.8 1.9 13.4.8 6.3 1 6.5 7.5 6.5h8.3c3.2-.1 4.7 1.4 4.6 4.6v4.5c.1 5.6.8 6.1 6.3 7.7 4.2 1.2 8.3 2.6 12.3 4.3 1 .5 1.8 2.8 1.8 4.2.3 5.5.1 11.1.1 16.6-10.9.5-21.7 1.8-32.6 1.3-9.7-.5-19.3-3.1-28.9-4.7.4-4.3 1-8.6 1.3-12.9.3-3.6-1.3-6-5.1-6.5v-2.7c7.4 1.3 14.8 2.3 22.1 4.1 7.4 1.9 14.8 3.5 22.5 1.3-2.4-1.2-4.9-1.9-7.3-2.7-8.6-2.3-15.1-7.5-21-13.8-4.7-5-11.4-9.1-14.3-15-7.5-15.3-13.4-31.3-11-49.1 2-15.1 8.7-28.1 17.7-39.9 8.8-11.5 22-17.3 35.6-21.7 7.9-2.7 16.1-5 23.7-8.6 8.3-4.1 16.2-9.1 23.9-14.5 9-6.1 16.6-13.9 19.6-24.7 2.6-9.2 4.2-18.8 5-28.3.5-6.1-1.3-12.4-2.3-18.5-2.7-15.7-10-28.8-22.5-39-6.9-5.8-15-8.8-23-12.4-7.3-3.3-14.5-5-22.4-5-7.3 0-14.2 2.2-21.2 2.3-15.6.4-29.8 5.8-43.6 11.4-12 4.9-22.5 13.2-32.7 21.4-12.9 10.5-22.3 23.8-31 37.7-13.9 22.3-20.1 46.6-21.1 72.5-.3 5.4.5 11 1.3 16.4 1.3 8.4 2.3 17 4.5 25.2 4.6 16.6 11.4 32.4 21.7 46.4 6.9 9.2 13.2 18.7 22.8 25.6 5.5 4 10.7 8.2 16.1 12.4-.4.5-.9.9-1.3 1.4-1-.3-2.6-1.2-2.8-.9-2.9 3.1-6.5 1.3-9.5.6-4.7-1-8.4.3-12.2 2.9-17.8-15.9-33.6-33.1-43.9-55-6.4-13.6-11-27.8-13.8-42.6-2.6-14.1-3.3-28.1-2.2-42.2 2.4-30.2 12.3-57.7 30.3-82.4 9.1-12.5 20.2-22.8 31.3-33.1 10.6-9.8 23.2-17.8 36.7-23.5 1.9 2 3.8 4.5 6 6.3 1.5 1.3 3.6 2.3 5.5 2.4 3.1 0 6.3-.5 9.2-1.4 4.9-1.5 6.1-5.1 4-10-.8-1.7-1.2-3.5-1.8-5.2 7.2-1.7 14.1-4.1 21.4-4.7 11.3-1.2 22.8-1.9 34-1.3 14.3.8 28.7 2.6 42 8.6-1.7.5-3.5 1.2-5.1 1.5-4.3 1.2-5.6 3.6-5.2 8.6.4 4.5 3.5 4 6.5 4 13.4.1 11.3.5 11.5-11.6 5.7 2.6 11.2 5.2 16.9 7.7z"/>
    <path class="color-black" d="M334 515.2c.8-9.5 1.3-17.4 1.9-25.6 4.2-1 8.8-2.3 13.3-3.2 3.3-.6 5.4 1 6.8 4.1 3.3 7.4 7 14.7 11.3 23.4-.9-11.6-1.7-21.7-2.6-32.5 5.9-1.9 11.6-3.8 17.8-6 .5 8.6 1 16.2 1.5 24 .9 14.5 1.7 29 2.6 43.5.3 3.8 1.2 7.8 1.7 11.8-5.4.6-9.8 1.3-14.3 1.8-2.9.4-4.5-.8-5.8-3.5-4.5-9-9.3-17.8-15.2-27-2 12.5-4.1 25.1-6.3 37.7-5.8.6-11.4 1.3-17.4 1.9-7.8-24.8-15.3-49.2-23.2-74.2 5.5-3.5 11.9-.5 18.4-1.8 3.1 8.6 6 16.5 9.5 25.6zM320.2 85.3v35.4c-5.6-.6-10.9-1.2-16.4-1.7V44h22.3c3.3 11.5 6.5 23.2 10.1 35.6 2.2-11.8 4.1-22.9 6.3-34.9 5.6 1 11.1 2.2 17.8 3.5-5 24.7-9.8 49.5-15 75.1-5.1-.5-10.2-1.2-15.5-1.7-2.9-12-5.9-24.2-9-36.3-.1.1-.4.1-.6 0z"/>
    <path class="color-black" fill="#010101" d="M51.4 236.7c3.2-8.4 6-16.1 9-23.7 3.1-7.9 8.1-14.2 16.6-16.4 7.4-1.9 14.6-1 20.2 4.9 3.3 3.5 7.7 6 8.2 11.6.1.8 2.2 1.8 3.5 2 10.6 1.9 21.2 3.6 32.4 5.5-2.3 4.9-4.3 9.6-6.9 13.9-.6 1.2-3.1 2.3-4.5 2-7.4-1.3-14.8-3.2-22.4-4.6-1.7-.3-3.6 1-5.2 2.2 9.1 6.7 20.1 7.4 29.9 12.4-2.3 4.5-4.6 9-6.9 13.4-25-7.7-49.6-15.5-73.9-23.2zm41-15.5c-.1-.3-.3-1.3-.6-2.3-1.5-3.8-4.3-6.1-8.4-6.3-4.1-.1-6.9 1.8-8.8 5.6-3.6 7-3.6 7.2 3.5 9.5 1.8.6 3.6.9 5.4 1.4 5.1 1.9 9.1-1.2 8.9-7.9zm366.7-26.4c-4.1-4.2-7.9-7.9-12-12.3 3.3-5.2 6.8-10.6 10.2-15.9-3.5-3.3-6.7-6.4-10.2-9.8-5.5 3.8-11.4 8.1-17.4 12.3-4-4.1-7.8-8.1-11.9-12.4 21.6-15.2 43.5-30.7 64.9-45.8 6.7 6.7 13.2 13.3 20.1 20.2-14.3 20.6-28.9 41.9-43.7 63.7zm17.6-57.1c-.5-.5-.9-1-1.4-1.5-5.2 3.8-10.5 7.7-15.7 11.5 2.2 2.4 4 4.2 6 6.4 3.8-5.6 7.4-11 11.1-16.4zm1.8-2.2c-.3-.4-.5-.9-.6-.9-.5.1-1 .4-1.5.6.1.4.4 1 .5.9.5.1 1-.3 1.6-.6z"/>
    <path class="color-black" d="M182.1 514.7c-6 4.1-11 7.4-16.4 11.1-3.1-1.9-8.1-5.1-13.7-8.6 18.3-18.9 36.6-37.9 54.7-56.7 7 3.5 13.4 6.8 20 10-6.7 25.5-11.3 51.3-18.7 76.9-6.3-3.1-11-5.5-16-7.9 1.5-5.6 3.1-11.3 4.9-17.4-5.5-2.8-11.2-5.6-14.8-7.4zm19-5.9c2.4-8.1 4.6-15.6 6.8-23.2-.4-.3-.6-.4-1-.6-5.4 6-10.7 11.9-16.4 18.3 3.3 1.8 6.4 3.3 10.6 5.5z"/>
    <path class="color-black" fill="#010101" d="M468.9 514.9c-5 2.6-9.7 4.9-15.1 7.7-2.8-3.5-5.9-6.8-8.7-10.4-3.6-4.5-4.5-4.9-9.8-2.2-4.2 2-8.4 4.2-12.9 6.4 1.8 7.2 3.6 14.3 5.4 21.6-5.4 2.6-10.5 5-16.2 7.8-1.5-5.5-3.2-10.4-4.3-15.2-2.8-12-5.2-24.2-8.1-36.2-1.8-7.8-4.1-15.5-6-23.3-.6-2.7.3-4.6 3.2-5.9 5.9-2.6 11.4-5.6 17.8-9 4.6 5.2 9.3 10.5 14.2 15.7 11.5 12.4 23 24.7 34.5 37.1 1.5 2.2 3.6 3.8 6 5.9zm-37.7-17.5c-6.1-6.5-12.3-13.2-18.4-19.7-.3.1-.5.3-.8.4 2.3 8.3 4.6 16.8 6.9 25.5 2.4-1.2 4.3-2 6.1-3.1 2.1-1 4.1-2.1 6.2-3.1zM124.6 116.9c6.1 6.4 12.5 13 18.4 19.3 4-4 7.3-7.2 10.9-10.7-5.8-6.4-11.8-12.9-17.4-19.3 3.5-3.6 7-7.3 11.4-11.8 16.9 18.9 33.8 37.7 50.4 56.4-3.5 3.6-6.8 7-10.6 11-9.8-6.5-15.7-17.4-24-25.3-3.3 3.2-6.7 6.4-10.5 10.2 8.6 8.1 17.1 16.2 25.6 24.2-4.2 4.1-7.5 7.3-11.4 11.1-1.3-.9-3.5-2-5.1-3.7-16.2-16-32.2-32.2-48.4-48.4-.4-.4-.8-1-1-1.4 3.9-4 7.8-7.8 11.7-11.6zM83.9 318.8c-13.9 0-24.9-3.7-33.8-12.3-12.7-12.3-8.8-27.2 3.1-35.9 18-13 41.4-13 59.1.1 15 11.1 14.1 28-.4 38.9-8.4 6.6-18.5 9.6-28 9.2zm-1.4-16.6c10.4.3 16-2 21.7-5.2 6.5-3.6 6.5-10.2 0-13.7-3.8-2-8.3-3.2-12.7-4.2-10.2-2.3-20.1-1.3-29.5 3.8-3.2 1.8-3.8 4.1-4.2 6.9-.4 3.3 1 5.6 4.2 7.5 6.7 3.8 13.6 5.2 20.5 4.9zM256.3 97.4c2.6 9.2 5.2 18.3 7.9 27.8-4.9.8-9.2 1.4-13.7 2-6.7-24.3-13.2-48.2-20-73 3.8-1 8.1-2.3 12.4-3.2 5.9-1.3 11.6-2.9 17.7-3.3 8.3-.4 13.9 4.5 17.9 11.4 4.3 7.4 4.7 15.1.3 22.4-1.5 2.6-4.5 4.2-6.9 6.3 6 9.1 12 18.4 18 27.6 1.9 2.9 1.2 4.6-2.2 5.1-3.5.5-6.9 1-10.4 1.5-5.6-9-10.9-17.5-16.2-26-.8-1.3-2.4-1.8-3.7-2.7.4-.6.6-1.9 1.2-2 4.9-.9 4.1-4.5 3.8-7.8-.1-1.4-.8-2.8-1.2-4.2.1-.6-.1-1.5.3-1.8 4.1-3.7 4.7-6.7 2.3-11-2.3-4-5.6-5.2-10.4-3.6-1.5.5-3.1 1.2-4.3 1.7 1 5 2.2 9.8 3.2 14.8-8.2 4.1-8.8 16-1.2 21.6 1.8-1 3.4-2.3 5.2-3.6zM421 67.2c7.8 4.9 15.1 9 22 13.7s12 11.4 12.5 19.8c.9 14.6-11.8 32.4-30.8 26-5.2-1.8-10.2-4.1-15.5-6.3-4 7.2-7.8 14.5-11.9 21.9-4.7-2.3-9.5-4.7-14.2-7 1.7-3.6 3.2-7.2 5.1-10.5C399 106 409.7 87.1 421 67.2zm10.3 21.5c0-4.3 4.7-1.4 6.7-5-3.7-.4-6.9-.8-9.3-1-2.4 2.3-4.1 4.3-6.1 5.9-4.5 3.2-5.1 5.6-2.4 11.6-.4.9-.9 1.7-1.3 2.6-1.2.6-2.4 1.3-3.6 1.9.6.6 1.3 1.2 1.9 1.8.8 4.2 4.7 4 7.5 5 7.8 2.8 11.6 1.5 14.6-4.6 3.8-7.9 3.3-10.1-4.1-15.3-1.3-.8-2.6-1.8-3.9-2.9zm123.1 306.1c-4.7-1.2-9.5-2.3-14.6-3.5 1.8-3.6 3.6-6.5 4.9-9.7 5-12.4 1.4-21.7-12.3-26.2-9.2-3.1-18.4-2-27.1 2-5.8 2.7-9.3 6.9-8.7 13.8.3 2.4 0 5 0 8.1-5.4-1.2-10.1-2-15-3.1-1.4-7.2 0-14.2 2.6-20.7 4.5-11.3 14.3-15 25.3-17.3 10.1-2.2 19.7 0 29.3 2.6 10.7 2.9 23.8 14.1 24 27.1.1 5.8-2.3 11.6-4 17.3-.7 2.8-2.5 5.7-4.4 9.6zM219.1 142.5c-2.9 1.7-6 3.5-9.3 5.4-13.3-22.4-26.5-44.5-39.9-67.2 12.3-5.8 22.5-14.5 35.6-18 2.3 4.5 4.2 8.3 6.4 12.9-6.7 3.5-13.2 6.8-20 10.2 2 3.5 4 6.8 6.3 10.6 5.2-2.6 10.6-5.2 16.2-7.9 2 4 4 7.8 6.3 12.4-5.1 2.8-10.4 5.5-15.7 8.4 3.6 6 7 11.6 10.4 17.4 4-1.7 7.5-3.3 11.3-5v14.7c-3.1 1-5.8 1.9-8.7 2.9.3 1.2.7 2.1 1.1 3.2zm-80.7 293.9c6.9-5.9 13.8-11.9 21-18 7.5 8.6 16.4 15.2 21.7 25.5 8.8 16.8-1.5 30.4-16.9 34.7-2.8.8-6.5-1.7-10.7-2.8-4.9 9.6-10.2 20-15.9 31.1-3.7-4.7-7-9-11-13.9 3.6-6.8 8.2-15.5 12.8-24.3h12.9c-.6-5-2.9-7.4-6.4-9 .4-1.3.9-2.7 1.3-4 2.2 2 4.1 4.2 6.5 6 3.8 2.9 9.2 2.7 12.3-1.2 3.6-4.3 4.3-5.8.9-11-2-3.2-4.9-6-7.3-9.1-4.9 4.1-9.2 7.9-13.7 11.8-.9-1.8-1.8-3.5-2.6-5.2v-6.4c.1-.9.4-1.8.5-2.6h-3.1c-.6-.7-1.4-1.2-2.3-1.6zm9 38.9c-.3.3-.8.4-.9.6 0 .3.3.6.4 1l1.2-.9-.7-.7z"/>
    <path class="color-black" d="M469.7 211.4c-5.1-10.9-1.2-20 5.9-28.1 10-11.4 22.9-16.9 38-16.6 17.8.3 28.5 11.6 34.2 26.5 1 2.7 1 5.6 1.7 8.6-4 1.3-7.8 2.2-11.3 3.7-3.6 1.5-4.6.5-5.6-3.1-1.7-5.4-4.2-10.1-9.1-14.1-15.3-12.3-35.2-.5-36.8 14.1 0 .5-.6.9-1 1.4-4.1 1.2-8.1 2.3-11.3 3.2-2.1 1.8-3.4 3.1-4.7 4.4z"/>
    <path class="color-black" fill="#010101" d="M106.6 143.5c3.1 2 6 4.1 9.5 6.4-2.9 4.5-5.6 8.8-8.6 13.4 15.9 10.6 32.5 20.1 47.7 33-1.9 2.9-4.1 6.4-6.7 10.2-16.9-10.4-33.3-20.5-50-31-2.6 3.7-5.2 7.7-8.2 11.9-5-3.5-9.7-6.8-15-10.5 7.4-10.2 14.7-20.6 22.1-30.8 6.2 2.2 6.8 2.1 9.2-2.6zm341.5 305.7c4.2 2.2 8.6 4.2 12.8 6.4-.4 3.1-1.4 6.3-1.2 9.3.1 1.9 1.9 4.9 3.3 5.1 4 .6 8.3.8 12.3 0 4.6-.9 3.3-5.2 3.2-8.4-.3-3.2-2.8-2.9-5.2-3.3-3.5-.5-6.7-1.7-10-2.6-4.6-9.8-9.2-19.7-13.7-29.2 3.5-3.3 6.9-6.7 10.6-10.1 7 14.1 14.7 28.3 21.4 43 4.3 9.6 11.4 16.5 19.2 24-3.7 3.7-7.2 7.3-10.7 10.9-.6-.5-1.2-.8-1.3-1-11.1-14.6-27.8-20.7-43.4-28.5-7.7-3.8-15.3-7.8-24-12.2 3.7-3.7 6.7-6.9 10-9.8.8-.8 2.8-.8 3.8-.4 2.8 1.2 5.2 2.9 7.9 4.3-3.6 2.3-5.5 7.9-3.3 11.1.9 1.3 3.3 2.8 4.5 2.4 1.5-.5 3.1-2.6 3.6-4.2.7-2.1.2-4.5.2-6.8z"/>
    <path class="color-black" d="M481.1 239.8c24.2-7.8 48.4-15.5 72.8-23.4 2.3 6.1 4.6 12.2 7.2 18.9-24.3 7.8-48.4 15.5-72.8 23.4-2.4-6-4.7-12.1-7.2-18.9z"/>
    <path class="color-black" fill="#010101" d="M518.4 261.2c3.6-.8 7-1.8 10.6-2.3 10.1-1.4 20.2-2.6 30.3-4 2.4-.3 4.7-.9 6.9-1.4 2.4 14.2 4.7 27.9 7.2 42-5.2.6-10.6 1.3-16.6 2-1.5-8.4-2.8-16.2-4.3-24.6-4.2.4-8.6.4-12.7 1.4-3.3.8-2.3 4.2-1.9 6.5.8 4.2 1.9 8.4 3.1 13.3-5.1 1.2-9.6 2-14.1 3.1-1.7-7-3.1-13.3-4.5-19.7.5-3.7 2.7-1.3 4.2-1.2 4.2.4 4.9-2.2 4.9-5.5 0-3.2-.4-6.8-4.5-5.6-5 1.5-6.7-1-8.6-4zm-262.2 220c2.6.5 5.1 1 7.7 1.5-8.3 25.6-16.5 50.5-24.6 75.3-6.8-1.9-13-3.7-19.7-5.8 4.2-11.9 8.3-23 12.2-34.3 4.1-12 7.7-24.2 11.6-36.3.3-.8 1.7-1 2.4-1.7v17.6c-2.4 2.7.4 4 1.7 4.5 2.3.9 4.3-.3 4.7-3.2.9-3.5 1.7-6.8 2.6-10.2 1.5-.3 3.5-.4 1.3-2.6.1-1.4.1-3.2.1-4.8zm8.7 60.2c1.3-8.8 2.7-17.7 4-26.5 1-7 1.7-14.1 2.7-21.1.4-2.8 1-5.6 1.8-9.2 2.2.8 4 1.4 5.9 1.9-1.7 2-3.3 4.1-4.9 5.9 1.4 4.3 1.7 19.2.6 22.9-1.4 4.7 1.2 10 6.5 12.9 4.1-14.1 4.6-27.9.3-41.8 2.8.4 5.6.9 9.1 1.4-2.7 19.3-5.4 38.5-8.1 58.1 7.2 1.2 14.1 2.3 22 3.6-.5 5.6-1 11.8-1.7 18.8-13.8-1.8-27.8-3.6-42.3-5.4 1-4.6 1.9-8.7 2.8-12.7.5 1.5 1.3 3.1 1.4 4.6.4 6.1 1 6.8 7.2 7 4.6.3 9.2.6 13.8 1.2 4.5.5 8.1-1.8 8.4-5.8.4-3.8-2.4-6.8-7.3-6.9-4-.1-7.9.3-11.8.5-3.4-9.3-3.4-9.3-10.4-9.4z"/>
    <path class="color-black" d="M79.4 353.3c.4-.5.6-1 1.5-2.6-10.9.5-20.8 3.5-31.9 5.1-1.4-5.6-2.9-11.4-4.6-18 10.7-1.3 20.8-2.4 31.1-3.6.6.6 1.3 1.9 1.9 1.9 8.7-.1 17.5-.5 26.2-.8.9 0 1.8-.1 2.6.1 2.9 1.2 4.3 3.3 3.8 6.5-.4 2.7-1.3 4.7-4.7 4.9-3.7.3-7.4 1.2-11.4 1.8-.1 1.3-.3 2.6-.5 3.8-1.4 5.8-6.4 7.5-11 3.8-1-.8-1.9-1.9-3-2.9z"/>
    <path class="color-black" fill="#010101" d="M79.4 353.3c1 1 1.9 2.2 3.1 3.1 4.7 3.7 9.7 2 11-3.8.3-1.2.3-2.4.5-3.8 4-.6 7.7-1.5 11.4-1.8 3.5-.1 4.3-2.2 4.7-4.9.5-3.2-.9-5.4-3.8-6.5-.8-.3-1.7-.3-2.6-.1-8.7.3-17.5.6-26.2.8-.6 0-1.3-1.2-1.9-1.9 4.9-.9 9.7-1.9 14.6-2.7 8.8-1.4 17.7-2.4 26.3-3.8 3.1-.5 4.2 1.2 5 3.3 1 3.3 2 6.7 2.4 10.1.1 1.4-1 3.5-2.3 4.3-8.2 6.1-16.6 12-24.9 18-.3.3-.4.8-.5 1-.5 3.2-2.3 3.8-5.4 3.2-4.1-.8-8.2-1-12.4-1.2-5.5-.3-11.1-.3-16.6-.4l-.3-.3c6-4.1 11.9-8.3 17.9-12.6z"/>
    <path class="color-black" fill="#010101" d="M98.6 364.8c9.2-2.9 18.4-5.9 28.8-9.2 1.7 4.6 3.2 9 5 13.9-24.3 7.8-48.4 15.5-73 23.4-2.2-6.9-4.3-13.8-6.8-21.5 2.8-1.8 5.9-3.7 9-5.6l.3.3c-.5 5.5-1.2 11.1-1.3 16.6 0 1.7 1.7 4.1 3.2 4.7 2.3.9 3.6-.9 4.5-3.2 2.8-7.5 3.6-7.7 11.6-6 2.8.5 6.1.8 8.6-.3 3.5-1.4 6.3-1.9 9 .8 5-4.2 5.3-9.3 1.1-13.9zM512 326.3c-5.4-.4-10.7-.5-16.1-1.2-4.1-.5-3.1-3.7-2.9-6.3 6.7-1 9.7-5.8 11.4-11.6 21.9 1.3 43.9 2.6 66.8 3.8-.6 6.5-1.2 12.7-1.8 19.7-3.5-.5-6.8-1.2-10.1-1.7 4.9-2.2 4.6-6.4 3.7-10.4-.9-3.8-4.1-4-7.7-2.9-1.4.4-3.2-1-4.7-1.4-1.8-.4-3.8-.6-5.6-.4-8.3 1.3-16.5 3.6-24.8-.1-.9-.4-2-.3-3.2-.3-4.6.1-6.5 2.6-5.8 7 .2 2.1.6 4 .8 5.8z"/>
    <path class="color-black" d="M512 326.3c-.3-1.9-.6-3.7-.9-5.6-.8-4.3 1.2-6.9 5.8-7 1 0 2.3-.1 3.2.3 8.3 3.7 16.5 1.3 24.8.1 1.8-.3 3.7 0 5.6.4 1.7.3 3.5 1.8 4.7 1.4 3.6-1 6.8-.9 7.7 2.9 1 3.8 1.3 8.2-3.7 10.4-15.7-1-31.4-1.9-47.2-2.9zm6.4-65.1c1.9 3.1 3.7 5.6 8.4 4.2 4.1-1.2 4.5 2.4 4.5 5.6 0 3.3-.6 6-4.9 5.5-1.5-.1-3.7-2.6-4.2 1.2-2.9.1-5.9.3-9 .4-1.9-.9-4-2.4-5.9-2.4-5.4 0-10.6.6-16 1.2-1.2-3.6-2.2-7.3-3.6-11.6 10.4-1.6 20.5-2.9 30.7-4.1zM98.6 364.8c4.2 4.5 3.8 9.6-1.3 14.1-2.7-2.7-5.5-2.3-9-.8-2.4 1-5.9.8-8.6.3-8.1-1.5-8.8-1.4-11.6 6-.9 2.3-2.2 4.2-4.5 3.2-1.5-.6-3.2-3.1-3.2-4.7 0-5.5.8-11.1 1.3-16.6 5.6.1 11.1.1 16.6.4 4.1.3 8.3.4 12.4 1.2 3.1.6 4.9 0 5.4-3.2 1 .1 1.8.1 2.5.1z"/>
    <path class="color-black" fill="#010101" d="M262.6 448c3.8.5 5.4 2.8 5.1 6.5-.4 4.3-.9 8.6-1.3 12.9-7-2.2-14.2-4-21.1-6.5-6.1-2.3-12-5.2-17.9-7.9 5-5 9.8-1.5 14.8.4 1.3-1.9 2.6-3.6 3.7-5.2 5.6-.2 11.1-.2 16.7-.2z"/>
    <path class="color-black" d="M264.9 541.4c6.9.1 6.9.1 10.5 9.6 4-.1 7.9-.5 11.8-.5 4.7.1 7.7 3.1 7.3 6.9-.4 4-4 6.3-8.4 5.8-4.6-.5-9.2-.9-13.8-1.2-6.1-.3-6.7-.9-7.2-7-.1-1.5-.9-3.1-1.4-4.6.4-3.1.8-6 1.2-9z"/>
    <path class="color-black" fill="#010101" d="M469.7 211.4l4.5-4.5c3.1-.9 7.2-2 11.3-3.2-.4 8.8 4 15.3 10.2 21.4-4.7 2.6-9.2 5-13.9 7.5-4.7-6.4-10.7-12.4-12.1-21.2z"/>
    <path class="color-black" d="M281.8 486.7c4.3 13.9 3.7 27.8-.3 41.8-5.5-2.9-7.9-8.2-6.5-12.9 1.2-3.8.8-18.7-.6-22.9 1.5-1.9 3.2-3.8 4.9-5.9.7-.1 1.6-.1 2.5-.1z"/>
    <path class="color-black" fill="#010101" d="M199.8 432.8c3.6-2.7 7.4-3.8 12.2-2.9 2.9.6 6.4 2.3 9.5-.6.4-.4 1.9.5 2.8.9v6.4c.4 4.7.8 9.5 1.3 14.2-6.3-4-12.5-7.8-18.7-11.9-2.6-1.7-4.8-4-7.1-6.1z"/>
    <path class="color-black" d="M117.8 453c4.3-3.5 8.6-6.9 12.9-10.4.4.5.9.9 1.3 1.4 1.3 1.5 2.3 3.5 3.8 4.3 6.8 4.2 7.3 8.2 1.3 13.7-3.5-2.3-4.9 1.9-7.4 2.4-.9-1.3-1.9-2.6-2.8-3.8-1.9-1.4-4-2.6-5.9-4.1-1.1-.8-2-2.2-3.2-3.5zm143.4-307c.6 1.8 1 3.6 1.8 5.2 2.2 4.9.9 8.4-4 10-2.9.9-6.1 1.4-9.2 1.4-1.8 0-4-1.2-5.5-2.4-2.2-1.8-4-4.1-6-6.3 7.5-2.6 15.2-5.3 22.9-7.9zm-4.9-48.6c-1.7 1.3-3.3 2.4-5 3.7-7.8-5.8-7-17.7 1.2-21.6 2.9 3.2 5.9-.5 8.8 0 .4 1.4 1 2.8 1.2 4.2.3 3.3 1 6.9-3.8 7.8-.5.1-.8 1.3-1.2 2-.4 1.2-.8 2.6-1.2 3.9zm207 358.2c3.3.9 6.7 2 10 2.6 2.3.4 5 .1 5.2 3.3s1.4 7.5-3.2 8.4c-4 .8-8.3.6-12.3 0-1.4-.3-3.2-3.2-3.3-5.1-.3-3.1.6-6.3 1.2-9.3.9.1 1.6.1 2.4.1zm-97.1-304.5c-.3 12.2 1.9 11.8-11.5 11.6-2.9 0-6 .4-6.5-4-.5-5 .8-7.4 5.2-8.6 1.7-.5 3.5-1 5.1-1.5 2.6.8 5.2 1.7 7.7 2.5z"/>
    <path class="color-black" fill="#010101" d="M219.1 142.5c-.4-.9-.8-1.9-1.2-3.1 2.9-1 5.8-1.9 8.7-2.9v-14.7c2.2-1.3 4.5-2.7 7.3-4.3.6 1.9 1.2 3.3 1.7 4.7.6 1.7.9 3.7 2 4.9 3.3 3.1 1.7 5.6-1 7-5.6 3-11.6 5.5-17.5 8.4zM117.8 453c1 1.3 2 2.6 3.2 3.6 1.8 1.5 3.8 2.7 5.9 4.1-.8 4.3-4.2 1.9-6.4 2.6-.9-1.7-1.9-4.7-2.8-4.7-1.9.1-4.5 1.3-5.6 2.8-1.3 1.7-1.5 4.3-1.8 6.5-.3 3.3 1.8 4.5 4.9 4.1 2-.3 4.1-.3 6.1-.3-3.6 2.6-7.2 5.1-10.7 7.7 1.4-2.2.5-3.2-1.8-3.3-2.9-3.2-5.8-6.4-9.1-10.1 1.8-1 3.6-1.9 5.4-2.9 4.3 2.7 1.9-1.5 2.6-2.6 3.3-2.4 6.8-4.9 10.1-7.5z"/>
    <path class="color-black" d="M246 491.5v-5.1c.9-2.2 1.7-4.3 2.6-6.5 2.9-1.8 5.2.5 7.8 1.3v5.2c-.4.9-.9 1.7-1.3 2.6-.9 3.5-1.7 6.8-2.6 10.2-2.2-.4-4.2-.9-6.4-1.3v-3.8c-.1-.9-.1-1.7-.1-2.6zM121.4 472c-2 .1-4.1.1-6.1.3-3.1.3-5.1-.9-4.9-4.1.1-2.3.5-4.9 1.8-6.5 1.2-1.5 3.7-2.7 5.6-2.8.8 0 1.8 3.1 2.8 4.7.1 2.6.5 5.5.8 8.4z"/>
    <path class="color-black" fill="#010101" d="M225.4 450.7c-.4-4.7-.8-9.5-1.3-14.2 4 .3 2.7 4 3.3 5.9 2.2 6.3 3.6 7 9.2 3.7.9-.5 1.7-1.2 2.6-1.9 2.3 1.3 4.5 2.6 6.5 3.8-1.2 1.7-2.4 3.3-3.7 5.2-5-1.8-9.8-5.4-14.8-.4-.5-.7-1.2-1.3-1.8-2.1zm-88.3 11.5c6-5.4 5.6-9.5-1.3-13.7-1.5-1-2.6-2.9-3.8-4.3 1.7.9 3.3 2 5 2.4 2 .4 4.3.1 6.5.1.9 1.8 1.8 3.5 2.6 5.2.4 1.2.9 2.3 1.3 3.6-.4 1.3-.9 2.7-1.3 4-2.2 1.7-4.3 3.5-6.5 5.1-.8-.7-1.7-1.6-2.5-2.4z"/>
    <path class="color-black" d="M448.1 449.2c0 2.3.4 4.9-.3 7-.5 1.7-2 3.7-3.6 4.2-1.2.4-3.6-1.2-4.5-2.4-2.2-3.2-.4-8.8 3.3-11.1 1.7.6 3.4 1.4 5.1 2.3z"/>
    <path class="color-black" fill="#010101" d="M504.4 307.2c-1.7 6-4.7 10.6-11.4 11.6.5-4.1 1-8.1 1.7-13 3.1.4 6.5.9 9.7 1.4zM143.5 446.8c-2.2 0-4.3.3-6.5-.1-1.8-.4-3.3-1.5-5-2.4-.4-.5-.9-.9-1.3-1.4 2.6-2.2 5.1-4.2 7.7-6.4.9.5 1.8.9 2.6 1.4l2.6 2.6c-.1 2-.1 4.1-.1 6.3z"/>
    <path class="color-black" d="M139.6 464.7c2.2-1.7 4.3-3.5 6.5-5.1 3.5 1.5 5.8 4 6.4 9h-12.9v-3.9z"/>
    <path class="color-black" fill="#010101" d="M491.4 276.6c5.4-.4 10.6-1.2 16-1.2 1.9 0 4 1.7 5.9 2.4-3.8.8-7.7 1.7-11.6 2.4-3.2.5-6.4.9-10 1.4 0-1.8-.1-3.3-.3-5zM121.4 472c-.3-2.8-.5-5.8-.9-8.6 2.2-.6 5.6 1.8 6.4-2.6.9 1.3 1.9 2.6 2.8 3.8-2.8 2.5-5.5 4.9-8.3 7.4zm-14.8-328.5c-2.2 4.7-2.8 5-9.2 2.7 1.4-2 2.8-4.1 4.5-6.4 1.6 1.2 3.1 2.4 4.7 3.7z"/>
    <path class="color-black" d="M248.4 479.9c-.9 2.2-1.7 4.3-2.6 6.5v-6.1c.9-.2 1.8-.3 2.6-.4zm-140.7-19.2c-.6 1 1.8 5.2-2.6 2.6.8-.9 1.7-1.8 2.6-2.6zm1.2 15.5c2.3.1 3.2 1.2 1.8 3.3-.7-1-1.2-2.2-1.8-3.3z"/>
    <path class="color-red color-reserved-white" fill="#fd0000" d="M225.5 428.7c-5.4-4.1-10.6-8.4-16.1-12.4-9.6-6.8-16-16.4-22.8-25.6-10.5-14.1-17.3-29.7-21.7-46.4-2.3-8.2-3.3-16.8-4.5-25.2-.8-5.4-1.4-10.9-1.3-16.4.9-25.8 7.2-50.3 21.1-72.5 8.7-13.9 18-27.2 31-37.7 10.2-8.3 20.7-16.5 32.7-21.4 13.8-5.6 28-11 43.6-11.4 6.9-.1 13.9-2.4 21.2-2.3 7.9 0 15.1 1.8 22.4 5 8.1 3.6 16.1 6.7 23 12.4 12.4 10.2 19.8 23.2 22.5 39 1 6.1 2.8 12.5 2.3 18.5-.8 9.5-2.4 19.1-5 28.3-2.9 10.7-10.5 18.5-19.6 24.7-7.7 5.2-15.6 10.4-23.9 14.5-7.5 3.7-15.7 5.9-23.7 8.6-13.6 4.6-26.6 10.4-35.6 21.7-9.1 11.6-15.6 24.8-17.7 39.9-2.4 17.8 3.5 33.8 11 49.1 2.9 5.9 9.5 9.8 14.3 15 5.9 6.3 12.5 11.5 21 13.8 2.4.6 5 1.4 7.3 2.7-7.7 2.2-15 .6-22.5-1.3-7.3-1.8-14.7-2.8-22.1-4.1-8.4-3.7-17-7.5-25.5-11.3-3.7-1.6-7.6-3.4-11.4-5.2z"/>
    <path class="color-black" fill="#010101" d="M225.5 428.7c3.8 1.8 7.7 3.6 11.6 5.4 8.4 3.8 17 7.5 25.5 11.3v2.7H246c-2.2-1.3-4.2-2.4-6.5-3.8-.9.6-1.7 1.3-2.6 1.9-5.6 3.3-7.2 2.6-9.2-3.7-.6-2 .6-5.6-3.3-5.9v-6.4c.2-.6.6-1.1 1.1-1.5z"/>
    <path fill="#fefefe" d="M92.4 221.2c.3 6.8-3.7 9.8-9.2 8.1-1.8-.5-3.6-.9-5.4-1.4-7-2.3-6.9-2.6-3.5-9.5 1.9-3.8 4.7-5.8 8.8-5.6 4.2.1 6.9 2.4 8.4 6.3.6.7.7 1.8.9 2.1zm384.3-83.5c-3.6 5.4-7.3 10.7-11.1 16.5-2-2.2-3.8-4.1-6-6.4 5.2-3.8 10.5-7.7 15.7-11.5l1.4 1.4zm1.8-2.2c-.6.3-1.2.5-1.7.6 0 0-.3-.6-.5-.9.5-.3 1-.5 1.5-.6.2 0 .5.7.7.9zM201.1 508.8c-4.2-2.2-7.2-3.7-10.6-5.4 5.6-6.3 11-12.3 16.4-18.3.4.3.6.4 1 .6-2.3 7.5-4.5 15-6.8 23.1zm230.1-11.4c-2 1-4.1 2-6.1 3.1-1.8.9-3.7 1.8-6.1 3.1-2.4-8.7-4.7-17-6.9-25.5.3-.1.5-.3.8-.4 6 6.5 12.2 13.2 18.3 19.7zM82.5 302.2c-6.9.3-13.8-1.2-20.3-5-3.2-1.8-4.6-4.2-4.2-7.5.3-2.8 1-5.2 4.2-6.9 9.5-5.1 19.2-6.3 29.5-3.8 4.3 1 8.8 2.2 12.7 4.2 6.5 3.5 6.5 10.1 0 13.7-5.9 3.3-11.5 5.6-21.9 5.3zM261.2 79.5c-2.9-.5-5.9 3.2-8.8 0-1-5-2.2-9.8-3.2-14.8 1.3-.5 2.8-1.2 4.3-1.7 4.7-1.5 8.1-.4 10.4 3.6 2.4 4.2 1.8 7.3-2.3 11-.5.4-.3 1.3-.4 1.9zm157.6 23.2c.4-.9.9-1.7 1.3-2.6 1.7-2.6 3.7-4.9 4.9-7.7 1.3-3.2 2.9-4.7 6.5-3.8 1.3 1 2.4 2 3.8 2.9 7.4 5.1 8.1 7.4 4.1 15.3-2.9 6-6.8 7.4-14.6 4.6-2.8-1-6.8-.8-7.5-5 .3-1.2 1-2.4 1.5-3.7z"/>
    <path class="color-black" fill="#010101" d="M431.3 88.7c-3.5-.9-5.1.6-6.5 3.8-1.2 2.7-3.2 5.1-4.9 7.7-2.7-6-2-8.4 2.4-11.6 2-1.4 3.7-3.6 6.1-5.9 2.4.3 5.6.6 9.3 1-1.5 3.6-6.4.7-6.4 5zm-12.5 14c-.5 1.3-1.2 2.6-1.7 3.8-.6-.6-1.3-1.2-1.9-1.8 1.2-.7 2.4-1.4 3.6-2z"/>
    <path fill="#fefefe" d="M147.5 455.6c-.4-1.2-.9-2.3-1.3-3.6 4.5-3.8 8.8-7.5 13.7-11.8 2.4 2.9 5.2 5.8 7.3 9.1 3.5 5.4 2.7 6.8-.9 11-3.1 3.8-8.4 4.1-12.3 1.2-2.4-1.7-4.5-4-6.5-5.9z"/>
    <path class="color-black" fill="#010101" d="M143.5 440.4l-2.6-2.6h3.1c-.1.8-.2 1.7-.5 2.6z"/>
    <path class="color-black" d="M147.4 475.3l.8.8-1.2.9c-.1-.4-.5-.8-.4-1 0-.2.5-.5.8-.7zm98.6 22.6c2.2.4 4.2.9 6.4 1.3-.4 2.8-2.3 4-4.7 3.2-1.5-.5-4.3-1.9-1.7-4.5zm8.9-8.9c.4-.9.9-1.7 1.3-2.6 2.2 2.2.3 2.3-1.3 2.6z"/>
</svg>
