<svg xmlns="http://www.w3.org/2000/svg" width="300" height="300.306" overflow="visible" viewBox="0 0 300 300.306">
  <path class="color-white" fill="#FFF" fill-rule="evenodd" d="M179.705 250.19c-22.743 1.527-29.653 15.116-29.653 15.116s-6.86-15.116-29.654-15.116c-12.949 0-30.453-2.38-47.337-16.741C59.017 221.504 50 203.693 50 183.732c0-16.5 5.17-29.695 9.69-40.677 2.134-5.186 4.284-10.18 5.884-15.232 1.49-4.7 2.35-9.03 2.35-13.394 0-8.684-3.534-16.508-9.272-22.174l-6.705-6.622L99.407 35l6.597 3.67c13.021 7.245 28.02 11.383 44 11.383s30.971-4.138 43.993-11.383l6.597-3.67 47.459 50.634-6.705 6.621c-5.738 5.667-9.271 13.49-9.271 22.175 0 4.363.858 8.694 2.35 13.394 1.599 5.051 3.749 10.046 5.884 15.232 4.52 10.982 9.689 24.176 9.689 40.677 0 19.96-9.016 37.772-23.06 49.716-16.885 14.36-34.313 15.873-47.235 16.74z" clip-rule="evenodd"/>
  <path class="color-blue color-main" fill="#00529B" fill-rule="evenodd" d="M150.005 59.725c-17.672 0-34.284-4.58-48.704-12.602l-35.854 38.25c7.501 7.407 12.148 17.68 12.148 29.057 0 22.636-17.923 40.415-17.923 69.302 0 16.98 7.658 32.146 19.656 42.35 28.689 24.399 59.004 5.635 70.667 25.548 11.663-19.912 41.989-1.15 70.677-25.548 11.997-10.204 19.656-25.37 19.656-42.35 0-28.887-17.924-46.666-17.924-69.302 0-11.378 4.648-21.65 12.148-29.057l-35.853-38.25c-14.42 8.022-31.023 12.602-48.694 12.602z" clip-rule="evenodd"/>
  <path class="color-red" fill="#EF3E42" fill-rule="evenodd" d="M74.114 217.534c-7.58-9.2-12.166-20.963-12.166-33.802 0-13.961 4.319-25.267 8.79-36.129 1.15-2.795 2.3-5.54 3.376-8.267v78.184zm13.8 11.914v-90.112h13.826v96.123c-4.59-1.262-9.17-3.157-13.827-6.011zm27.597 8.451v-98.563h13.81v99.53c-2.583-.246-5.3-.409-8.122-.599-1.844-.123-3.784-.19-5.688-.368zm110.367-20.365c7.58-9.2 12.165-20.963 12.165-33.802 0-13.961-4.319-25.267-8.79-36.129-1.15-2.795-2.3-5.54-3.376-8.267l-.001 78.184zm-13.8 11.914v-90.112h-13.827v96.123c4.59-1.262 9.171-3.157 13.827-6.011zm-27.597 8.451v-98.563H170.67v99.53c2.583-.246 5.301-.409 8.123-.599 1.843-.123 3.784-.19 5.688-.368zm-34.485 9.738c-1.963-2.417-4.27-4.162-6.831-5.434V139.336h13.66v102.867c-2.558 1.272-4.866 3.017-6.83 5.434z" clip-rule="evenodd"/>
  <path class="color-white" fill="#FFF" fill-rule="evenodd" d="M87.913 229.467c-2.349-1.44-4.773-3.13-7.112-5.119a54.325 54.325 0 0 1-6.736-6.848l.05.02-.001-78.185h13.8zm27.598 8.362c-4.474-.418-9.073-1.072-13.77-2.363v-96.13h13.77zm13.81 1.037v-99.53h13.844v102.857a26.769 26.769 0 0 0-4.466-1.712c-2.587-.745-5.395-1.2-8.384-1.514zm82.757-9.399c2.35-1.44 4.773-3.13 7.112-5.119a54.319 54.319 0 0 0 6.736-6.848l-.05.02.002-78.185h-13.8zm-27.597 8.362c4.473-.418 9.072-1.072 13.77-2.363v-96.13h-13.77zm-13.811 1.037v-99.53h-13.844v102.857a26.81 26.81 0 0 1 4.467-1.712c2.586-.745 5.395-1.2 8.384-1.514zm16.206-113.75v-21.27h-6.256v21.27zm-10.255-12.387h-8.156v-4.12h8.156v-4.762h-14.459v21.27h6.303v-7.405h8.156zm-18.912 12.387v-21.27h-6.256v21.27zm-54.268-21.273c3.97 0 7.16 3.219 7.16 7.188a7.188 7.188 0 0 1-7.188 7.188h-4.12v6.904H93.45v-21.28h9.991zm20.526 17.617h-7.972l-1.292 3.663h-5.921l7.676-21.28h7.047l7.677 21.28h-5.922zm12.616-6.67c-.081-3.191 2.266-5.379 5.198-5.452 1.47-.037 3.371.731 5.344 1.245v-5.863c-.946-.587-3.51-1.32-5.129-1.32-5.986 0-11.285 4.538-11.285 11.33 0 6.793 5.299 11.346 11.285 11.346 1.618 0 4.183-.734 5.13-1.32v-5.863c-1.974.513-3.875 1.281-5.345 1.245-2.931-.073-5.279-2.261-5.198-5.452zm59.425 0c-.08-3.191 2.266-5.379 5.197-5.452 1.47-.037 3.372.731 5.344 1.245v-5.863c-.946-.587-3.511-1.32-5.128-1.32-5.987 0-11.286 4.538-11.286 11.33 0 6.793 5.299 11.346 11.286 11.346 1.617 0 4.182-.734 5.128-1.32v-5.863c-1.973.513-3.874 1.281-5.344 1.245-2.931-.073-5.278-2.261-5.197-5.452z" clip-rule="evenodd"/>
  <path class="color-blue" fill="#00529B" fill-rule="evenodd" d="M117.723 116.628h4.462l-2.193-6.821h-.05zm-18.43-8.041h3.736c1.234 0 2.226 1 2.226 2.234 0 1.235-1 2.562-2.235 2.562h-3.726z" clip-rule="evenodd"/>
  <path class="color-white" fill="#FFF" fill-rule="evenodd" d="M152.819 95.41V74.14h-6.255v21.27zm3.622-10.599c0-6.175 5.056-11.18 11.292-11.18 6.237 0 11.293 5.005 11.293 11.18s-5.056 11.181-11.293 11.181c-6.235 0-11.292-5.006-11.292-11.18zm40.128-10.671v11.233h-.056l-7.24-11.233h-6.354v21.267h6.021V84.69h.057l7.217 10.721h6.83V74.14zm-61.81 0v11.233h-.056l-7.24-11.233h-6.354v21.267h6.02V84.69h.057l7.218 10.721h6.83V74.14z" clip-rule="evenodd"/>
  <path class="color-blue" fill="#00529B" fill-rule="evenodd" d="M162.411 84.811c0-2.91 2.383-5.27 5.322-5.27s5.322 2.36 5.322 5.27c0 2.91-2.383 5.27-5.322 5.27s-5.322-2.36-5.322-5.27z" clip-rule="evenodd"/>
  <path class="color-white" fill="#FFF" fill-rule="evenodd" d="M109.484 74.122h6.16v11.845c0 2.71-.113 5.393-2.243 7.432-1.79 1.732-4.601 2.347-7.1 2.347-2.5 0-5.311-.615-7.102-2.347-2.13-2.04-2.243-4.721-2.243-7.432V74.122h6.16v10.323c0 2.738-.394 5.727 3.184 5.727 3.579 0 3.184-2.99 3.184-5.727V74.122z" clip-rule="evenodd"/>
  <path class="color-stroke-blue" fill="none" stroke="#00529B" stroke-miterlimit="2.613" stroke-width=".266" d="M115.51 237.83c-4.473-.42-9.072-1.08-13.77-2.371-4.59-1.262-9.17-3.157-13.826-6.01-2.35-1.441-4.773-3.112-7.112-5.1a54.325 54.325 0 0 1-6.737-6.848m0 0 .05.02v.013m0 0c-7.58-9.2-12.167-20.963-12.167-33.802 0-13.961 4.319-25.267 8.79-36.129 1.15-2.795 2.3-5.54 3.376-8.267m0 0h151.764m0 0c1.076 2.727 2.225 5.472 3.375 8.267 4.471 10.862 8.79 22.168 8.79 36.13 0 12.838-4.586 24.6-12.165 33.801m0 0-.002-.014.05-.02m0 0a54.374 54.374 0 0 1-6.736 6.849c-2.34 1.988-4.763 3.678-7.112 5.118a53.006 53.006 0 0 1-13.827 5.992c-4.698 1.291-9.296 1.953-13.77 2.37-1.904.179-3.845.316-5.688.438-2.822.19-5.54.353-8.123.599m0 0-.993.12m0 0c-2.99.315-5.798.77-8.384 1.515a26.596 26.596 0 0 0-4.467 1.711c-2.56 1.273-4.868 3.008-6.83 5.425-1.963-2.417-4.271-4.162-6.832-5.434a26.552 26.552 0 0 0-4.466-1.721c-2.586-.745-5.394-1.2-8.384-1.515m0 0-.993-.101m0 0c-2.583-.246-5.3-.409-8.122-.599-1.844-.123-3.784-.26-5.688-.437"/>
</svg>
