<svg xmlns="http://www.w3.org/2000/svg" xml:space="preserve" width="192" height="192" viewBox="0 0 192 192">
  <g transform="translate(5.999 5.999)scale(4.23336)">
    <circle class="color-brown color-main" fill="#cabb9f" cx="21.26" cy="21.26" r="22.677"/>
    <circle class="color-stroke-white" fill="none" stroke="#181716" stroke-miterlimit="10" stroke-width=".917" cx="21.26" cy="21.26" r="15.591"/>
    <path class="color-stroke-white" fill="none" stroke="#181716" stroke-miterlimit="10" stroke-width=".917" d="M7.68 15.635 26.885 7.68l7.955 19.205-19.205 7.955z"/>
    <path class="color-stroke-white" fill="none" stroke="#181716" stroke-miterlimit="10" stroke-width=".917" d="M7.68 26.885 15.635 7.68l19.205 7.955-7.955 19.205z"/>
    <path class="color-brown color-main color-stroke-white" fill="#cabb9f" stroke="#181716" stroke-miterlimit="10" stroke-width="1.833" d="m6.56 21.26 14.7-14.698L35.957 21.26 21.26 35.958z"/>
    <path class="color-brown color-main color-stroke-white" fill="#cabb9f" stroke="#181716" stroke-miterlimit="10" stroke-width=".688" d="M10.866 10.866h20.787v20.787H10.866z"/>
    <path class="color-white color-stroke-white" fill="#181716" stroke="#181716" stroke-miterlimit="10" stroke-width=".052" d="m14.004 11.51.5 1.398 1.339-.64-.634 1.341 1.399.495-1.397.5.64 1.339-1.342-.635-.494 1.399-.5-1.397-1.339.64.634-1.342-1.399-.494 1.397-.5-.639-1.339 1.341.634zm14.501 14.395.5 1.397 1.339-.639-.634 1.341 1.399.494-1.397.5.639 1.339-1.341-.634-.495 1.399-.5-1.397-1.338.639.634-1.341-1.399-.494 1.397-.5-.64-1.339 1.342.634zm-17.058 2.603 1.397-.5-.64-1.339 1.342.635.494-1.399.5 1.397 1.339-.64-.635 1.341 1.399.495-1.397.5.64 1.339-1.342-.635-.494 1.399-.5-1.397-1.339.64.635-1.341zm14.43-14.289 1.397-.5-.64-1.339 1.341.635.495-1.399.5 1.397 1.339-.64-.635 1.342 1.399.494-1.397.5.64 1.339-1.341-.635-.495 1.4-.5-1.398-1.339.64.635-1.341zM17.504 31.49V11.053h7.512V31.49z"/>
    <path class="color-white color-stroke-white" fill="#181716" stroke="#181716" stroke-miterlimit="10" stroke-width=".052" d="M11.138 17.612h20.243v7.512H11.138z"/>
    <path class="color-brown color-main" fill="#cabb9f" d="m15.255 23.7-.031-4.05-1.023.025.841-.448 2.156-.064q.339 0 .661.101.323.1.538.301a.7.7 0 0 1 .232.478.8.8 0 0 1-.224.584 1.9 1.9 0 0 1-.604.378l-.288.116.288.058q.337.069.615.208.279.14.455.36a.87.87 0 0 1 .194.51q0 .46-.27.797-.27.336-.716.541t-.975.3c-.53.095-.704.095-1.054.095h-.404q-.186 0-.266-.021-.08-.02-.103-.076a.6.6 0 0 1-.022-.193m.827-2.541.539.013q.445 0 .784-.164a.63.63 0 0 0 .383-.517.63.63 0 0 0-.182-.457 1.1 1.1 0 0 0-.461-.271 1.9 1.9 0 0 0-.569-.087h-.494zm.262.358h-.262v1.828q0 .168.059.203t.254.035h.667q.28 0 .546-.11t.434-.307a.67.67 0 0 0 .168-.443 1.03 1.03 0 0 0-.301-.696 1.6 1.6 0 0 0-.688-.391 3.2 3.2 0 0 0-.877-.119m4.833.514-.026 1.617-.827.365v-4.299l-.906.052.431-.303a.7.7 0 0 1 .255-.142 2 2 0 0 1 .335-.058l1.725-.102a2.1 2.1 0 0 1 .974.153q.378.158.623.469.244.31.285.744 0 .304-.241.577-.24.274-.637.481-.396.21-.868.326a3.7 3.7 0 0 1-.899.117h-.224zm.352-2.394-.365.013v2.061q.151.028.388.068.235.04.427.041a1.4 1.4 0 0 0 .546-.129q.264-.12.43-.341a.82.82 0 0 0 .166-.507q-.036-.429-.262-.699-.225-.27-.569-.389a2.3 2.3 0 0 0-.761-.118m3.099 1.445a2 2 0 0 1-.083-.488q.022-.329.097-.43a.7.7 0 0 1 .205-.115q.176-.078.305-.144.13-.067.292-.19.08-.06.245-.201.165-.14.273-.214a.6.6 0 0 1 .199-.099 17 17 0 0 1 .585-.013q.09 0 .236.006a5 5 0 0 0 .207.007l.341.038q.185.021.321.05.137.03.254.087.118.059.186.152v.039q0 .07-.097.193c-.097.123-.146.163-.242.242q-.085.072-.222.216-.136.145-.169.15a.05.05 0 0 1-.019-.039l-.002-.008q-.003-.005-.01-.005a.5.5 0 0 1 .032-.104.3.3 0 0 0 .025-.101q-.046-.14-.977-.281a7 7 0 0 0-1.091.019q-.117.11-.149.456a.6.6 0 0 1 .014.122q0 .168.512.364l.976.386q.582.216.98.553.4.336.4.84a.4.4 0 0 1-.102.28 1.5 1.5 0 0 1-.313.248q-.211.134-.265.177a7 7 0 0 0-.389.36q-.255.251-.335.288a1.1 1.1 0 0 1-.323.106q-.15.022-.403.022-.51 0-.974-.156a1.9 1.9 0 0 1-.748-.435.2.2 0 0 1 .03-.071 1 1 0 0 1 .065-.07l.059-.058.424-.441q.105-.11.154-.109.031 0 .031.037 0 .014-.028.055a.13.13 0 0 0-.028.067q0 .084.246.203t.592.209q.348.09.639.09.588 0 .815-.147.025 0 .025-.174 0-.187-.046-.369c-.046-.182-.078-.217-.14-.286a.7.7 0 0 0-.185-.147 4 4 0 0 0-.456-.218l-1.458-.597q-.433-.177-.511-.352"/>
    <circle class="color-stroke-white" fill="none" stroke="#181716" stroke-miterlimit="10" stroke-width=".5" cx="21.26" cy="21.26" r="19.134"/>
  </g>
</svg>
