<svg xmlns="http://www.w3.org/2000/svg" id="Layer_1" width="192" height="192" x="0" y="0" version="1.1" viewBox="0 0 192 192" xml:space="preserve">
    <style id="style2" type="text/css"/>
    <g id="g44" transform="translate(5.999 5.999) scale(4.23336)">
        <circle id="circle4" class="color-brown color-main" fill="#cabb9f" cx="21.26" cy="21.26" r="22.677"/>
        <circle id="circle6" class="color-stroke-white" fill="none" stroke="#181716" stroke-miterlimit="10" stroke-width=".917" cx="21.26" cy="21.26" r="15.591"/>
        <path id="rect8" class="color-stroke-white" fill="none" stroke="#181716" stroke-miterlimit="10" stroke-width=".917" d="M7.68 15.635L26.885 7.68l7.955 19.205-19.205 7.955z"/>
        <path id="rect10" class="color-stroke-white" fill="none" stroke="#181716" stroke-miterlimit="10" stroke-width=".917" d="M7.68 26.885L15.635 7.68l19.205 7.955-7.955 19.205z"/>
        <path id="rect12" class="color-brown color-main color-stroke-white" fill="#cabb9f" stroke="#181716" stroke-miterlimit="10" stroke-width="1.833" d="M6.56 21.26l14.7-14.698L35.957 21.26 21.26 35.958z"/>
        <path id="rect14" class="color-brown color-main color-stroke-white" fill="#cabb9f" stroke="#181716" stroke-miterlimit="10" stroke-width=".688" d="M10.866 10.866h20.787v20.787H10.866z"/>
        <g id="g20" class="color-white color-stroke-white" fill="#181716" stroke="#181716" stroke-miterlimit="10" stroke-width=".052">
            <path id="polygon16" d="M14.004 11.51l.5 1.398 1.339-.64-.634 1.341 1.399.495-1.397.5.64 1.339-1.342-.635-.494 1.399-.5-1.397-1.339.64.634-1.342-1.399-.494 1.397-.5-.639-1.339 1.341.634z"/>
            <path id="polygon18" d="M28.505 25.905l.5 1.397 1.339-.639-.634 1.341 1.399.494-1.397.5.639 1.339-1.341-.634-.495 1.399-.5-1.397-1.338.639.634-1.341-1.399-.494 1.397-.5-.64-1.339 1.342.634z"/>
        </g>
        <g id="g26" class="color-white color-stroke-white" fill="#181716" stroke="#181716" stroke-miterlimit="10" stroke-width=".052">
            <path id="polygon22" d="M11.447 28.508l1.397-.5-.64-1.339 1.342.635.494-1.399.5 1.397 1.339-.64-.635 1.341 1.399.495-1.397.5.64 1.339-1.342-.635-.494 1.399-.5-1.397-1.339.64.635-1.341z"/>
            <path id="polygon24" d="M25.877 14.219l1.397-.5-.64-1.339 1.341.635.495-1.399.5 1.397 1.339-.64-.635 1.342 1.399.494-1.397.5.64 1.339-1.341-.635-.495 1.4-.5-1.398-1.339.64.635-1.341z"/>
        </g>
        <path id="rect28" class="color-white color-stroke-white" fill="#181716" stroke="#181716" stroke-miterlimit="10" stroke-width=".052" d="M17.504 31.49V11.053h7.512V31.49z"/>
        <path id="rect30" class="color-white color-stroke-white" fill="#181716" stroke="#181716" stroke-miterlimit="10" stroke-width=".052" d="M11.138 17.612h20.243v7.512H11.138z"/>
        <g id="g40">
            <g id="g38" class="color-brown color-main" fill="#cabb9f">
                <path id="path32" d="M15.255 23.7l-.031-4.05-1.023.025.841-.448 2.156-.064c.226 0 .446.033.661.101.215.066.395.167.538.301a.694.694 0 01.232.478.788.788 0 01-.224.584 1.873 1.873 0 01-.604.378l-.288.116.288.058c.225.046.43.115.615.208.186.094.337.213.455.36a.87.87 0 01.194.51c0 .307-.09.572-.27.797-.18.224-.418.404-.716.541-.297.137-.622.236-.975.3s-.704.095-1.054.095h-.404c-.124 0-.213-.007-.266-.021-.053-.014-.087-.039-.103-.076a.624.624 0 01-.022-.193zm.827-2.541l.539.013c.297 0 .558-.055.784-.164a.634.634 0 00.383-.517.626.626 0 00-.182-.457 1.089 1.089 0 00-.461-.271 1.866 1.866 0 00-.569-.087h-.494zm.262.358h-.262v1.828c0 .112.02.18.059.203.039.023.124.035.254.035h.667c.187 0 .369-.037.546-.11.177-.073.322-.176.434-.307a.666.666 0 00.168-.443 1.032 1.032 0 00-.301-.696 1.574 1.574 0 00-.688-.391 3.166 3.166 0 00-.877-.119z"/>
                <path id="path34" d="M21.177 22.031l-.026 1.617-.827.365v-4.299l-.906.052.431-.303a.713.713 0 01.255-.142 2.16 2.16 0 01.335-.058l1.725-.102a2.074 2.074 0 01.974.153c.252.105.46.262.623.469.163.207.258.455.285.744 0 .202-.081.396-.241.577-.16.183-.373.343-.637.481-.264.14-.554.248-.868.326a3.732 3.732 0 01-.899.117h-.224zm.352-2.394l-.365.013v2.061c.101.019.23.041.388.068.157.027.299.041.427.041a1.4 1.4 0 00.546-.129c.176-.08.319-.194.43-.341a.824.824 0 00.166-.507c-.024-.286-.111-.519-.262-.699-.15-.18-.34-.31-.569-.389a2.341 2.341 0 00-.761-.118z"/>
                <path id="path36" d="M24.628 21.082a1.936 1.936 0 01-.083-.488c.015-.22.047-.362.097-.43a.694.694 0 01.205-.115c.117-.052.219-.1.305-.144.086-.045.184-.108.292-.19.053-.041.135-.107.245-.201.11-.093.201-.164.273-.214a.623.623 0 01.199-.099 16.502 16.502 0 01.585-.013c.06 0 .138.002.236.006a4.5 4.5 0 00.207.007l.341.038c.124.014.23.031.321.05.091.02.176.049.254.087.079.039.141.09.186.152v.039c0 .047-.033.111-.097.193s-.146.163-.242.242c-.057.048-.13.12-.222.216-.091.097-.147.146-.169.15a.052.052 0 01-.019-.039.03.03 0 00-.002-.008c-.002-.003-.005-.005-.01-.005a.504.504 0 01.032-.104.292.292 0 00.025-.101c-.031-.093-.356-.187-.977-.281a6.825 6.825 0 00-1.091.019c-.078.073-.128.225-.149.456a.586.586 0 01.014.122c0 .112.171.234.512.364l.976.386c.388.145.714.328.98.553.267.224.4.504.4.84a.404.404 0 01-.102.28 1.536 1.536 0 01-.313.248c-.141.09-.229.148-.265.177a6.5 6.5 0 00-.389.36c-.17.167-.282.264-.335.288a1.086 1.086 0 01-.323.106c-.1.015-.234.022-.403.022-.34 0-.664-.052-.974-.156a1.929 1.929 0 01-.748-.435.155.155 0 01.03-.071.567.567 0 01.065-.07 1.13 1.13 0 00.059-.058l.424-.441c.07-.073.121-.109.154-.109.021 0 .031.012.031.037 0 .01-.009.027-.028.055a.127.127 0 00-.028.067c0 .056.082.123.246.203.164.08.361.149.592.209.232.06.445.09.639.09.392 0 .664-.05.815-.147.017 0 .025-.059.025-.174 0-.125-.016-.247-.046-.369s-.078-.217-.14-.286a.713.713 0 00-.185-.147 4.198 4.198 0 00-.456-.218l-1.458-.597c-.288-.118-.46-.235-.511-.352z"/>
            </g>
        </g>
        <circle id="circle42" class="color-stroke-white" fill="none" stroke="#181716" stroke-miterlimit="10" stroke-width=".5" cx="21.26" cy="21.26" r="19.134"/>
    </g>
</svg>
