<svg xmlns="http://www.w3.org/2000/svg" width="192" height="192" data-name="Layer 1" viewBox="0 0 192 192">
    <g class="color-brown color-main" fill="#4e3e33">
        <path d="M96 172.242A76.242 76.242 0 1019.758 96 76.291 76.291 0 0096 172.242zm0-7.629a68.467 68.467 0 1168.467-68.466A68.467 68.467 0 0196 164.613zm0-7.629a60.544 60.544 0 0023.572-4.89 12.177 12.177 0 00-4.5-9.781c-4.89-3.913-14.964-1.663-15.257-1.516l3.863-45.14V63.773s21.763-.587 21.763-1.027l4.108-18.78c-10.368-7.922-19.513-8.95-33.549-8.95-14.036 0-23.18.979-33.5 9l3.375 19.17s22.447.587 22.496.636V96.05l3.863 45.139a22.692 22.692 0 00-14.671 1.907 12.96 12.96 0 00-4.89 9.243A60.544 60.544 0 0096 156.984zm30.174-8.02a60.886 60.886 0 0012.569-96.245l-10.466 10.955a45.873 45.873 0 01-9.536 71.939zm-60.348 0l7.238-13.351a45.873 45.873 0 01-9.537-71.939L53.062 52.719a60.886 60.886 0 0012.715 96.245z"/>
        <path d="M96 172.487A76.487 76.487 0 11172.487 96 76.585 76.585 0 0196 172.487zm0-152.485A75.998 75.998 0 10171.998 96 76.096 76.096 0 0096 20.002zm0 144.856A68.858 68.858 0 11164.858 96 68.956 68.956 0 0196 164.858zM96 27.63a68.467 68.467 0 1068.467 68.467A68.467 68.467 0 0096 27.63zm0 129.598a60.69 60.69 0 01-23.67-4.89 13.253 13.253 0 015.233-9.44 22.35 22.35 0 0114.671-2.004L88.42 96.098V64.016h-3.472a142.215 142.215 0 01-18.976-.587L62.55 44.161c10.808-8.412 20.345-9.047 33.696-9.047 13.35 0 22.838.635 33.695 9.047l-4.108 18.78c0 .342 0 .488-15.894.977h-5.869v31.984l-3.814 44.797c1.907-.391 10.416-1.956 15.16 1.663a12.52 12.52 0 014.646 9.78A60.69 60.69 0 0196 157.279zm-23.328-5.184a60.593 60.593 0 0046.607 0 11.933 11.933 0 00-4.402-9.243c-4.89-3.913-14.916-1.516-15.014-1.467h-.39v-.392l3.863-45.139V63.772c0-.294 0-.294 6.406-.49 5.38 0 14.28-.44 15.405-.684l4.06-18.486c-9.782-7.58-18.193-8.852-33.207-8.852s-23.474 1.272-33.255 8.852L66.07 62.99c1.467 0 12.911.392 18.535.49h3.864v32.325l3.863 45.482h-.342a22.496 22.496 0 00-14.672 1.858 12.715 12.715 0 00-4.646 8.95zm53.404-2.739l-7.384-13.546a45.58 45.58 0 009.438-71.548l10.613-11.884a60.789 60.789 0 0118.192 43.476 61.522 61.522 0 01-30.956 53.209zm-6.895-13.595l7.091 12.813a60.984 60.984 0 0030.468-52.622 60.25 60.25 0 00-17.997-42.84l-9.781 10.612a46.117 46.117 0 01-9.781 72.037zm-53.257 13.595A61.522 61.522 0 0134.722 96a60.789 60.789 0 0118.193-43.476l10.612 11.15a45.628 45.628 0 009.683 71.743zM53.11 53.062A60.25 60.25 0 0035.26 96a60.984 60.984 0 0030.467 52.524l6.993-12.862a46.117 46.117 0 01-9.536-72.037z"/>
    </g>
    <path class="color-white" fill="#fff" stroke-width="4.89" d="M95.902 50.03l-6.993-6.994 6.993-6.993 6.994 6.993zm-5.38-6.994l5.38 5.38 5.38-5.38-5.38-5.38zM96 153.806l-6.993-6.994L96 139.819l6.993 6.993zm-5.38-6.994l5.38 5.38 5.38-5.38-5.38-5.38zm26.654-86.806l-8.754-8.754 8.754-8.754 8.754 8.754zm-6.75-8.754l6.75 6.749 6.797-6.749-6.749-6.749z"/>
    <path class="color-white" fill="#fff" stroke-width="4.89" d="M108.324 61.375l-10.417-10.66 10.417-10.27 10.466 10.27zm-8.02-10.66l8.02 8.02 8.07-8.02-8.07-7.826zM74.58 59.32l-8.754-8.607 8.754-8.754 8.754 8.754zm-6.75-8.607l6.75 6.75 6.749-6.75-6.75-6.749z"/>
    <path class="color-white" fill="#fff" stroke-width="4.89" d="M83.48 61.375l-10.465-10.66 10.465-10.27 10.466 10.27zm-8.02-10.66l8.02 8.02 8.02-8.02-8.02-7.826zm19.953-2.055h1.125v104.314h-1.125z"/>
    <path class="color-brown color-main" fill="#4e3e33" stroke-width="4.89" d="M106.661 115.562a1.76 1.76 0 01.636-1.027 1.712 1.712 0 011.125-.636 1.37 1.37 0 01.978.391 1.027 1.027 0 010 .734 6.504 6.504 0 010 .685 7.238 7.238 0 000 .782 2.934 2.934 0 000 .783 1.956 1.956 0 00.342.684 10.612 10.612 0 002.592 1.956l1.81 1.125a7.042 7.042 0 00.44-1.516 9.78 9.78 0 000-1.711 3.032 3.032 0 000-1.565l-.88-.392v-.684a4.157 4.157 0 00.782-.685 1.565 1.565 0 011.076-.587 2.347 2.347 0 01.93 0 .734.734 0 01.488.685c0 .733-.293 1.32-.342 1.76a21.47 21.47 0 00-.391 3.522 4.89 4.89 0 000 1.027l1.809-2.103 2.054-2.495-.636-.586a.587.587 0 010-.392 1.467 1.467 0 01.538-1.027 1.858 1.858 0 011.32-.586 1.516 1.516 0 01.832.293 1.272 1.272 0 01.587 1.125q0 .782-2.103 3.032a22.447 22.447 0 01-3.815 3.423v.636a11.786 11.786 0 014.108 2.543 3.472 3.472 0 011.076 2.396 2.2 2.2 0 01-.342 1.32l-.978.93h-.88v-.587a3.472 3.472 0 010-.489 1.32 1.32 0 010-.587 2.005 2.005 0 00.293-.733 1.614 1.614 0 00-.685-1.125 21.176 21.176 0 00-3.276-2.2v1.417a11.884 11.884 0 000 1.223 6.26 6.26 0 000 1.516l.391 1.32a.782.782 0 010 .538l-.88.734h-2.005a.782.782 0 000-.342.734.734 0 010-.294.831.831 0 01.39-.636q.881-.684.881-3.08a4.89 4.89 0 000-1.223l-.636-.783q-1.418 1.516-2.054 2.348a1.81 1.81 0 00-.44.831v.245a1.565 1.565 0 010 .44 2.592 2.592 0 010 .782 11.15 11.15 0 01-.538 1.272H109.4v-1.956a15.356 15.356 0 011.81-2.886l3.08-2.054a11.395 11.395 0 00-2.983-1.858 13.302 13.302 0 01-3.179-1.956 4.89 4.89 0 01-1.467-3.717z"/>
    <path class="color-brown color-main" fill="#4e3e33" stroke-width="4.89" d="M115.464 130.771h-2.298v-.244a.978.978 0 010-.44 1.076 1.076 0 01.489-.832c.538-.391.782-1.37.782-2.885a4.401 4.401 0 000-1.174v-.342c-.831.88-1.37 1.565-1.76 2.005-.392.44-.392.636-.392.685a1.858 1.858 0 010 .489 2.788 2.788 0 010 .88 11.444 11.444 0 01-.538 1.271h-2.2v-2.298a14.671 14.671 0 011.858-2.934l2.983-2.005a13.742 13.742 0 00-2.69-1.614 13.4 13.4 0 01-3.227-2.005 5.184 5.184 0 01-1.565-3.864 1.907 1.907 0 01.684-1.174 1.907 1.907 0 011.272-.733 1.565 1.565 0 011.125.293 1.223 1.223 0 01.293.93 6.358 6.358 0 010 .733 6.455 6.455 0 000 .782 2.592 2.592 0 000 .685 1.663 1.663 0 00.294.587 9.78 9.78 0 002.543 1.907l1.565.978a10.612 10.612 0 00-.392-1.271 9.78 9.78 0 000-1.712v-1.418l-.782-.342v-.978a4.255 4.255 0 00.782-.44 1.76 1.76 0 011.272-.685 2.592 2.592 0 011.027 0 .978.978 0 01.636.929c0 .782-.294 1.37-.343 1.81a21.225 21.225 0 00-.39 3.472v.489l1.466-1.663 1.908-2.299-.49-.44a.831.831 0 01-.293-.587 1.712 1.712 0 01.636-1.222 1.858 1.858 0 012.445-.343 1.516 1.516 0 01.685 1.32c0 .392 0 1.126-2.152 3.18a23.23 23.23 0 01-3.766 3.374v.342a11.933 11.933 0 014.06 2.543 3.717 3.717 0 011.173 2.544 2.445 2.445 0 01-.391 1.467l-.978.978h-1.174v-.587a3.961 3.961 0 010-.538 1.467 1.467 0 010-.685 1.663 1.663 0 000-.587 1.418 1.418 0 00-.587-.929 19.562 19.562 0 00-2.934-2.005v1.027a11.542 11.542 0 000 1.223 6.455 6.455 0 000 1.467l.391 1.32a1.027 1.027 0 01-.293.685 6.015 6.015 0 01-.93.782zm-1.858-.489h1.711l.783-.636a.587.587 0 000-.342l-.391-1.271a6.896 6.896 0 010-1.614 12.52 12.52 0 010-1.272v-1.76h.293a21.029 21.029 0 013.326 2.25 1.858 1.858 0 01.733 1.27 2.054 2.054 0 01-.293.832.978.978 0 000 .49 3.423 3.423 0 000 .44v.293h.587l.929-.88a2.103 2.103 0 00.244-1.125 3.228 3.228 0 00-1.027-2.201 11.64 11.64 0 00-4.059-2.494v-.93a22.496 22.496 0 003.815-3.374c1.76-1.907 2.005-2.592 2.005-2.836a1.027 1.027 0 00-.49-.93 1.37 1.37 0 00-1.858.294 1.272 1.272 0 00-.489.831l.636.587c-.44.636-1.174 1.467-2.054 2.494l-1.81 2.103-.342.343v-.49a5.184 5.184 0 010-1.124 21.714 21.714 0 01.392-3.521c0-.44 0-1.027.342-1.761s0-.293-.391-.44a2.103 2.103 0 00-.832 0 1.32 1.32 0 00-.88.538l-.734.636v.39c.685.294.734.343.832.441.098.098.293.489.293 1.712a10.123 10.123 0 010 1.76 6.553 6.553 0 01-.44 1.614l-1.76-1.125a10.661 10.661 0 01-2.69-2.005 2.152 2.152 0 01-.587-.244 2.983 2.983 0 010-.832 7.434 7.434 0 010-.831 4.89 4.89 0 000-.636.782.782 0 000-.636h-.783a1.516 1.516 0 00-.929.587c-.489.49-.538.783-.538.832a4.597 4.597 0 001.419 3.52 13.058 13.058 0 003.08 1.908 11.542 11.542 0 013.033 1.907l-3.228 2.152a14.671 14.671 0 00-1.712 2.739v1.663h1.37a10.221 10.221 0 00.489-1.076 2.347 2.347 0 000-.685 1.418 1.418 0 000-.342v-.343a1.858 1.858 0 01.489-.978c.39-.538 1.076-1.32 2.054-2.347l.293-.343-.147.587.245.734a4.89 4.89 0 010 1.32c0 1.712-.342 2.788-.978 3.277-.636.489-.294.293-.294.44zm-3.326-35.554a3.423 3.423 0 01.538-1.613q.685-1.174 1.516-1.174l2.054.685 3.62 1.418q1.955.831 1.955 1.125s-.733.929-2.2 2.151l-3.57 2.886a5.966 5.966 0 001.956.88 10.759 10.759 0 003.13.49v1.124l-4.89 3.766-2.202 1.907-.635.538h-.832v-8.558q0-2.495-.342-4.304a6.993 6.993 0 00-.098-1.32zm2.494 0v4.842l2.103-1.516 2.054-1.663a14.671 14.671 0 01-2.103-.733 16.725 16.725 0 00-2.054-.93zm.49 7.825v2.983l1.76-1.027a8.07 8.07 0 001.467-1.271 3.228 3.228 0 01-1.027 0 10.319 10.319 0 00-2.2-.734z"/>
    <path class="color-brown color-main" fill="#4e3e33" stroke-width="4.89" d="M111.747 109.4h-.831v-8.558c0-1.663 0-3.081-.342-4.304v-1.81a3.619 3.619 0 01.586-1.711 2.103 2.103 0 011.712-1.272 12.324 12.324 0 012.152.734l3.619 1.418c1.956.831 2.103 1.125 2.103 1.37 0 .244 0 .635-2.299 2.347l-3.325 2.69a7.091 7.091 0 001.614.684 10.612 10.612 0 003.032.49h.244v1.515l-4.646 3.766-2.2 1.907c-1.272.734-1.272.734-1.419.734zm-.538-.685h.294l.538-.489 2.2-1.907 4.549-3.717v-.538a11.346 11.346 0 01-2.935-.489 6.113 6.113 0 01-2.054-.929l3.815-3.081a11.101 11.101 0 002.103-1.956 6.944 6.944 0 00-1.76-.93l-3.669-1.613-2.005-.685c-.44 0-.88.342-1.271 1.027a3.326 3.326 0 00-.49 1.418 9.78 9.78 0 010 1.223c0 1.223.245 2.64.343 4.304.293 2.494.342 5.281.342 8.411zm1.81-2.885v-3.717h.293a10.515 10.515 0 012.25.587 2.885 2.885 0 00.93 0h.586l-.391.44a8.51 8.51 0 01-1.516 1.32l-1.76 1.028zm.489-3.13v2.298l1.37-.83a7.434 7.434 0 001.075-.832h-.538a10.661 10.661 0 00-1.907-.538zm-.685-2.837v-5.379h.294a16.823 16.823 0 012.347.93 15.16 15.16 0 002.054.684h.44l-.391.293-2.054 1.663-2.103 1.565zm.245-4.89v4.06l1.711-1.272 1.712-1.37-1.663-.587zm-4.255-22.936c0-.245 0-.538.587-.783l1.076-.587h1.956a6.015 6.015 0 010 .783 2.299 2.299 0 010 .733v.538q0 .44 1.418 1.125a42.743 42.743 0 004.108 1.663v-1.174a1.223 1.223 0 00-.293-.636l-.636-.83a2.592 2.592 0 01.685-1.126 2.396 2.396 0 011.858-1.076 1.37 1.37 0 01.93.392 1.223 1.223 0 01.44.978 7.727 7.727 0 00-.49 1.222 5.77 5.77 0 000 1.81l-.489 9.78.538 1.077a2.299 2.299 0 010 .88.978.978 0 01-.391.831 2.69 2.69 0 01-1.565.343h-1.956v-.685s.342-.685.978-1.37a1.418 1.418 0 00.489-.929q0-.538-3.277-1.662a15.698 15.698 0 01-2.298-.88 3.472 3.472 0 000 .635 7.678 7.678 0 000 .783 13.449 13.449 0 00.293 2.543v.587a1.027 1.027 0 01-.587.83 2.69 2.69 0 01-1.467.392 2.152 2.152 0 01-1.027 0s-.293-.44-.293-.88a5.526 5.526 0 00.685-1.565 12.226 12.226 0 00.293-3.13 58.294 58.294 0 00-.685-7.482 11.542 11.542 0 00-.587-2.74c-.146-.195-.244-.39-.293-.39zm3.081 3.57v4.45l1.76.636 3.62 1.32v-4.108l-2.543-1.076z"/>
    <path class="color-brown color-main" fill="#4e3e33" stroke-width="4.89" d="M118.447 88.077h-1.956v-.684s0-.587 1.027-1.516a1.174 1.174 0 00.391-.783s-.293-.44-3.08-1.418l-2.006-.782a2.885 2.885 0 000 .293 6.113 6.113 0 000 .734 13.253 13.253 0 00.245 2.543v.586a1.223 1.223 0 01-.685 1.076 2.934 2.934 0 01-1.614.392 2.299 2.299 0 01-1.173 0c-.294 0-.44-.538-.44-1.076a5.33 5.33 0 00.244-2.494 11.982 11.982 0 00.293-3.033 58.686 58.686 0 00-.293-6.748 11.15 11.15 0 00-.587-2.69v-.636c0-.342 0-.685.734-.978h.244l.832-.44h2.298a5.282 5.282 0 010 .831 2.543 2.543 0 010 .783v.489s0 .342 1.272.88a39.857 39.857 0 003.814 1.516v-.88a1.614 1.614 0 00-.244-.44l-.636-.783s0-.489.733-1.271a2.64 2.64 0 012.054-1.174 1.614 1.614 0 011.076.44 1.467 1.467 0 01.49 1.125 7.58 7.58 0 00-.49 1.174 5.624 5.624 0 000 1.711l-.489 9.781.49 1.027a2.445 2.445 0 01.244.978 1.174 1.174 0 01-.49 1.027 2.885 2.885 0 01-2.298.44zm-1.76-.733h1.81a2.494 2.494 0 001.369-.294.734.734 0 00.293-.635 2.054 2.054 0 000-.783l-.978-.684.489-9.781a5.869 5.869 0 01.244-1.859 7.971 7.971 0 01.49-1.174.978.978 0 00-.343-.733 1.125 1.125 0 00-.733-.294 2.152 2.152 0 00-1.663.979 3.668 3.668 0 00-.587.88l.587.733a1.37 1.37 0 01.342.783l-.293 1.516h-.245a42.303 42.303 0 01-4.108-1.663c-1.076-.538-1.565-.929-1.565-1.32v-.538a2.2 2.2 0 000-.636 4.89 4.89 0 000-.538h-1.663l-.782.391a1.125 1.125 0 00-.44.44 2.054 2.054 0 01.293.538 11.395 11.395 0 01.587 2.837 59.957 59.957 0 01.294 6.7 12.324 12.324 0 01-.294 3.179 6.064 6.064 0 01-.685 1.565v.586a1.858 1.858 0 00.93 0 2.396 2.396 0 001.32-.342c.294 0 .49-.391.49-.587a4.89 4.89 0 010-.587 13.644 13.644 0 01-.294-2.592 8.07 8.07 0 010-.782 4.06 4.06 0 010-.685v-.293h.293a15.894 15.894 0 002.25.88c3.032 1.027 3.423 1.516 3.423 1.907a1.614 1.614 0 01-.538 1.125c-.733.783-.88 1.076-.88 1.174zm1.027-4.89h-.294l-3.619-1.321-1.81-1.076v-4.89h.343l3.277 1.271 2.543 1.076zm-5.429-2.397l1.614.587 3.326 1.223v-3.57l-2.397-.979-2.934-1.124zm-27.68 39.124a13.302 13.302 0 01-3.179 1.956 11.395 11.395 0 00-2.983 1.858l3.228 2.152a15.356 15.356 0 011.81 2.886v1.956H81.72a11.15 11.15 0 01-.538-1.272 2.592 2.592 0 010-.782 1.565 1.565 0 010-.44v-.245a1.81 1.81 0 00-.44-.831q-.587-.783-2.054-2.348l-.245.734a4.89 4.89 0 000 1.223q0 2.396.88 3.08a.831.831 0 01.392.636.734.734 0 010 .294.782.782 0 000 .342H77.71l-.88-.734a.782.782 0 010-.537l.39-1.32a6.26 6.26 0 000-1.517 11.884 11.884 0 000-1.223v-1.418a21.176 21.176 0 00-3.276 2.2 1.614 1.614 0 00-.685 1.126 2.005 2.005 0 00.294.733 1.32 1.32 0 010 .587 3.472 3.472 0 010 .49v.586h-.88l-.979-.93a2.2 2.2 0 01-.342-1.32 3.472 3.472 0 011.076-2.396 11.786 11.786 0 014.108-2.543v-.636a22.447 22.447 0 01-3.815-3.423q-2.103-2.25-2.103-3.032a1.272 1.272 0 01.587-1.125 1.516 1.516 0 01.832-.293 1.858 1.858 0 011.32.586 1.467 1.467 0 01.538 1.027.587.587 0 010 .392l-.636.587 2.054 2.494 1.81 2.103a4.89 4.89 0 000-1.027 21.47 21.47 0 00-.391-3.522c0-.44 0-1.027-.343-1.76a.734.734 0 01.49-.685 2.347 2.347 0 01.928 0 1.565 1.565 0 011.076.587 4.157 4.157 0 00.783.685v.684l-.88.392a3.032 3.032 0 000 1.565 9.78 9.78 0 000 1.711 7.042 7.042 0 00.44 1.516l1.81-1.124a10.612 10.612 0 002.591-1.957 1.956 1.956 0 00.342-.684 2.934 2.934 0 000-.783 7.238 7.238 0 000-.782 6.504 6.504 0 010-.685 1.027 1.027 0 010-.734 1.37 1.37 0 01.93 0 1.712 1.712 0 011.124.636 1.76 1.76 0 01.636 1.027 4.89 4.89 0 01-2.054 3.277z"/>
    <path class="color-brown color-main" fill="#4e3e33" stroke-width="4.89" d="M79.617 130.771H77.22a5.869 5.869 0 01-.93-.782 1.027 1.027 0 01-.293-.685l.391-1.32a6.015 6.015 0 000-1.467 11.542 11.542 0 000-1.223v-1.027a19.562 19.562 0 00-2.934 2.005 1.418 1.418 0 00-.587.93 1.712 1.712 0 000 .586 1.467 1.467 0 010 .685 3.766 3.766 0 010 .538v.587h-1.174l-.978-.93a2.445 2.445 0 01-.391-1.516 3.717 3.717 0 011.174-2.543 11.982 11.982 0 014.059-2.543v-.342a23.23 23.23 0 01-3.766-3.375c-1.907-2.054-2.152-2.836-2.152-3.178a1.516 1.516 0 01.636-1.37 1.907 1.907 0 012.445.343 1.712 1.712 0 01.636 1.222.831.831 0 01-.293.587l-.49.44 1.908 2.299 1.467 1.711v-.489a21.176 21.176 0 00-.391-3.472c0-.44 0-1.027-.343-1.76a.978.978 0 01.636-.978 2.64 2.64 0 011.027 0 1.76 1.76 0 011.272.684 4.157 4.157 0 00.733.636v.978l-.782.342a3.13 3.13 0 000 1.37 9.78 9.78 0 000 1.711 10.612 10.612 0 00.293 1.223l1.565-.978a9.78 9.78 0 002.543-1.907 1.712 1.712 0 00.343-.587 2.64 2.64 0 000-.685 6.602 6.602 0 000-.782 6.21 6.21 0 010-.685 1.223 1.223 0 01.293-.93 1.565 1.565 0 011.125-.293 1.907 1.907 0 011.271.734 1.907 1.907 0 01.685 1.174 5.184 5.184 0 01-1.565 3.863 13.4 13.4 0 01-3.228 2.005 13.742 13.742 0 00-2.69 1.614l2.935 1.956a14.378 14.378 0 011.907 2.983v2.299h-2.2a10.661 10.661 0 01-.538-1.272 2.739 2.739 0 010-.831 1.81 1.81 0 010-.489 2.396 2.396 0 00-.392-.636c-.342-.44-.929-1.125-1.76-2.005v.342a4.401 4.401 0 000 1.125c0 1.516.244 2.494.782 2.886a1.076 1.076 0 01.49.831.978.978 0 010 .44zm-2.152-.489h1.712s0-.293-.294-.44c-.293-.147-.978-1.565-.978-3.277a4.89 4.89 0 010-1.271l.245-.734v-.44l.293.343c.978 1.075 1.663 1.809 2.054 2.347a1.858 1.858 0 01.49.978v.342a1.32 1.32 0 000 .343 2.347 2.347 0 000 .684 8.998 8.998 0 00.488 1.076h1.37v-1.662a13.987 13.987 0 00-1.76-2.74l-3.18-2.102a11.542 11.542 0 013.032-1.907 13.058 13.058 0 003.521-2.641 4.89 4.89 0 001.419-3.521s0-.343-.538-.832a1.516 1.516 0 00-.93-.587h-.782a.782.782 0 000 .587 4.89 4.89 0 000 .636 7.58 7.58 0 010 .831 3.032 3.032 0 010 .832 2.2 2.2 0 01-.391.733 10.661 10.661 0 01-2.69 2.006l-1.76 1.124a6.553 6.553 0 01-.44-1.614 10.123 10.123 0 010-1.76c0-1.223 0-1.565.293-1.712l.782-.391v-.391l-1.467-.832a1.37 1.37 0 00-.88-.538 2.103 2.103 0 00-.832 0c-.342 0-.342.343-.342.49 0 .146.245 1.271.342 1.711a21.665 21.665 0 01.392 3.521 5.184 5.184 0 010 1.125v.49l-.343-.343-2.054-1.565a64.231 64.231 0 01-2.054-2.494l.636-.587a1.272 1.272 0 00-.489-.832 1.37 1.37 0 00-1.858-.293 1.027 1.027 0 00-.49.93c0 .244.245.977 2.006 2.836a22.007 22.007 0 003.814 3.374v.93a11.64 11.64 0 00-4.059 2.493 3.228 3.228 0 00-1.027 2.201 2.005 2.005 0 00.294 1.174l.88.831h.587v-.782a3.961 3.961 0 000-.44.978.978 0 000-.49 1.907 1.907 0 01-.294-.83 1.858 1.858 0 01.734-1.272 21.029 21.029 0 013.325-2.25h.294v1.76a12.52 12.52 0 010 1.272 6.407 6.407 0 010 1.614l-.391 1.272a.587.587 0 000 .342zm4.842-34.184q0 1.81-.343 4.303v8.559h-.831l-.636-.538-2.2-1.907-4.891-3.766v-1.125a10.759 10.759 0 003.13-.489 5.966 5.966 0 001.956-.88l-3.325-2.739q-2.201-1.81-2.201-2.152s.636-.587 1.956-1.125l3.619-1.418 2.054-.684q.831 0 1.516 1.173a3.423 3.423 0 01.538 1.614 6.993 6.993 0 00-.342 1.174zm-4.646-.538a14.671 14.671 0 01-2.103.733l2.054 1.663 2.103 1.516v-3.08q0-1.419.342-1.664a16.725 16.725 0 00-2.347.832zm-.392 7.482a3.228 3.228 0 01-1.027 0 8.07 8.07 0 001.468 1.272l1.76 1.027v-2.983a10.319 10.319 0 00-2.152.684z"/>
    <path class="color-brown color-main" fill="#4e3e33" stroke-width="4.89" d="M81.035 109.4l-.831-.587-2.2-1.907-4.647-3.766v-1.565h.245a10.563 10.563 0 003.032-.489 7.042 7.042 0 001.614-.685l-3.326-2.69c-2.103-1.76-2.298-2.102-2.298-2.347 0-.244 0-.538 2.102-1.37l3.62-1.417a12.324 12.324 0 012.151-.734 2.103 2.103 0 011.712 1.272 3.668 3.668 0 01.587 1.711v1.223c0 1.174-.245 2.64-.343 4.304v8.558h-.342zm-7.238-6.602l4.548 3.717 2.201 1.907.538.489h.293v-8.412c0-1.663 0-3.13.343-4.303a9.78 9.78 0 010-1.223 3.374 3.374 0 00-.49-1.418c-.39-.685-.83-1.027-1.32-1.027l-1.956.684-3.57 1.419a6.993 6.993 0 00-1.76.929 11.15 11.15 0 002.102 1.956l3.815 3.081a6.064 6.064 0 01-2.054.93 11.248 11.248 0 01-2.934.488zm6.016 3.08h-.392l-1.81-1.369a8.558 8.558 0 01-1.515-1.32l-.391-.44h.586a2.983 2.983 0 00.93 0 10.27 10.27 0 012.25-.587h.293zm-2.935-2.493a7.482 7.482 0 001.076.831l1.37.831v-2.298a10.515 10.515 0 00-1.859.489zm3.13-3.473l-.391-.293-2.103-1.565-2.054-1.663-.293-.195h.44a14.965 14.965 0 002.054-.685 17.019 17.019 0 012.347-.93h.05v4.989zm-3.863-3.57l1.711 1.37 1.712 1.271v-4.059l-1.956.783zm7.531-23.767a11.542 11.542 0 00-.587 2.738 58.294 58.294 0 00-.293 6.7 12.226 12.226 0 00.293 3.13 5.526 5.526 0 00.685 1.565c0 .49 0 .783-.294.88a2.152 2.152 0 01-1.027 0 2.69 2.69 0 01-1.467-.39 1.027 1.027 0 01-.587-.832v-.587a13.449 13.449 0 00.294-2.543 7.678 7.678 0 000-.783 3.472 3.472 0 000-.635 15.698 15.698 0 01-2.299.88q-3.276 1.125-3.276 1.663a1.418 1.418 0 00.489.929q.978 1.027.978 1.37v.684h-1.956a2.69 2.69 0 01-1.565-.342.978.978 0 01-.392-.832 2.299 2.299 0 010-.88l.538-1.076-.489-9.781a5.77 5.77 0 000-1.81 7.727 7.727 0 00-.489-1.222 1.223 1.223 0 01.44-.978 1.37 1.37 0 01.93-.391 2.396 2.396 0 011.858 1.075 2.592 2.592 0 01.685 1.125l-.978 1.467a1.223 1.223 0 00-.294.636v1.174a42.743 42.743 0 004.108-1.663q1.418-.685 1.418-1.125v-.538a2.299 2.299 0 010-.733 6.015 6.015 0 010-.783h1.957l1.075.587c.392.245.587.538.587.783 0 .244-.195.195-.342.538zm-6.064 4.303l-2.543 1.076v4.108l3.619-1.32 1.76-.636v-4.45z"/>
    <path class="color-brown color-main" fill="#4e3e33" stroke-width="4.89" d="M82.404 88.077a2.934 2.934 0 01-1.613-.39 1.272 1.272 0 01-.685-1.028v-.636a13.4 13.4 0 00.244-2.543 5.966 5.966 0 000-.733 2.934 2.934 0 000-.294l-2.005.783c-2.836.978-3.08 1.37-3.08 1.418a1.174 1.174 0 00.39.734c.93.978 1.028 1.32 1.028 1.516v.684h-1.908a2.885 2.885 0 01-1.711-.39 1.174 1.174 0 01-.49-1.028 2.494 2.494 0 01.245-.978l.49-1.027-.49-9.78a5.624 5.624 0 000-1.761 7.531 7.531 0 00-.489-1.174 1.467 1.467 0 01.49-1.125 1.614 1.614 0 011.075-.44 2.64 2.64 0 012.054 1.174c.636.782.734 1.075.734 1.271l-.636.783c0 .293-.245.44-.245.489l-.635 1.565a40.59 40.59 0 003.814-1.516c1.027-.49 1.223-.783 1.272-.88v-.49a2.543 2.543 0 010-.782 5.282 5.282 0 010-.832h2.298l.832.44c.489.294.733.636.733.979v.635a11.15 11.15 0 00-.587 2.69 58.686 58.686 0 00-.293 6.651 11.982 11.982 0 00.293 3.032 5.33 5.33 0 00.636 1.516c0 .587 0 .93-.44 1.076a2.299 2.299 0 01-1.32.391zm-1.662-6.406v.293a4.06 4.06 0 010 .685 7.874 7.874 0 010 .782 13.84 13.84 0 01-.294 2.592v.636s0 .343.49.538a2.396 2.396 0 001.32.342 1.858 1.858 0 00.929 0v-.586a6.064 6.064 0 01-.685-1.565 12.324 12.324 0 01-.293-3.18 59.957 59.957 0 01.636-7.041 11.395 11.395 0 01.586-2.837 2.054 2.054 0 01.294-.538 1.174 1.174 0 00-.49-.489l-.782-.391h-1.662a4.89 4.89 0 000 .538 2.2 2.2 0 000 .636v.538c0 .39-.49.83-1.565 1.32a43.036 43.036 0 01-4.108 1.663h-.245l-.293-1.467a1.32 1.32 0 01.342-.832l.587-.733a3.668 3.668 0 00-.587-.88 2.152 2.152 0 00-1.663-.979 1.125 1.125 0 00-.733.294.93.93 0 00-.343.733 7.923 7.923 0 01.49 1.174 5.869 5.869 0 01.244 1.907l.489 9.781-.538 1.076a2.103 2.103 0 000 .783.734.734 0 00.293.635 2.494 2.494 0 001.419.294h1.76v-.49s0-.39-.88-1.173a1.614 1.614 0 01-.538-1.125c0-.391.391-.88 3.423-1.907a15.894 15.894 0 002.25-.88zm-5.575.733l-.245-4.597 2.543-1.075 3.277-1.272h.342v4.89l-1.76.636-3.62 1.32zm0-4.303v3.57l3.325-1.223 1.614-.587V75.95l-2.934 1.125z"/>
    <path class="color-white" fill="#fff" stroke-width="4.89" d="M84.507 63.967h22.839v1.076H84.507zM66.51 142.215a57.072 57.072 0 01-24.941-40.053 56.338 56.338 0 0114.036-43.623l1.565 1.467a55.067 55.067 0 00-13.694 41.911 54.822 54.822 0 0024.013 38.489zm58.1 0l-1.174-1.81a54.822 54.822 0 0024.012-38.488 54.969 54.969 0 00-13.596-41.96l1.565-1.467a57.219 57.219 0 0114.28 43.623 57.072 57.072 0 01-25.088 40.102z"/>
    <path class="color-brown color-main" fill="#4e3e33" stroke-width="4.89" d="M136.741 99.191l-6.155 6.156-6.156-6.156 6.156-6.155z"/>
    <path class="color-brown color-main" fill="#4e3e33" stroke-width="4.89" d="M130.576 105.732l-6.505-6.553 6.554-6.553 6.357 6.357zm-5.82-6.553l5.82 5.82 5.82-5.82-5.82-5.82zm-56.892-.017l-6.156 6.155-6.155-6.155 6.155-6.156z"/>
    <path class="color-brown color-main" fill="#4e3e33" stroke-width="4.89" d="M61.718 105.732l-6.358-6.358 6.553-6.553 6.358 6.358zm-5.82-6.553l5.82 5.82 5.82-5.82-5.82-5.82z"/>
    <circle class="color-stroke-brown color-stroke-main" fill="none" stroke="#4e3e33" stroke-miterlimit="10" stroke-width="4.89" cx="96" cy="96" r="93.555"/>
</svg>
