<svg xmlns="http://www.w3.org/2000/svg" width="2in" height="2in" viewBox="0 0 192 192" xml:space="preserve">
  <g stroke-miterlimit="10" transform="translate(7.045 7.045) scale(4.18416)">
    <circle class="color-pink color-main color-stroke-pink color-stroke-main" fill="#e8358c" stroke="#e8358c" stroke-width=".533" cx="21.26" cy="21.26" r="22.677"/>
    <g class="color-stroke-white" fill="none" stroke="#fff">
      <circle stroke-width=".45" cx="21.26" cy="21.985" r="12.754"/>
      <path stroke-width=".45" d="M21.249 33.373c-6.33 0-11.479-5.149-11.479-11.479 0-6.33 5.149-11.479 11.479-11.479 6.33 0 11.479 5.149 11.479 11.479 0 6.33-5.15 11.479-11.479 11.479z"/>
      <path stroke-width=".75" d="M21.26 5.781 7.087 30.33h28.346z"/>
      <g stroke-width=".25">
        <circle cx="21.26" cy="28.697" r="3.826"/>
        <circle cx="21.26" cy="15.199" r="3.826"/>
      </g>
      <g stroke-width=".25">
        <circle cx="27.105" cy="25.323" r="3.826" transform="rotate(-60 27.105 25.324)"/>
        <circle cx="15.415" cy="18.574" r="3.826" transform="rotate(-60 15.415 18.574)"/>
      </g>
      <g stroke-width=".25">
        <circle cx="27.105" cy="18.574" r="3.826" transform="rotate(-30 27.104 18.575)"/>
        <circle cx="15.415" cy="25.323" r="3.826" transform="rotate(-30 15.414 25.323)"/>
      </g>
      <path stroke-width=".495" d="m21.26 30.141 6.9-11.951h-13.8z"/>
      <path stroke-width=".25" d="m21.368 18.204-3.385 5.862h6.769z"/>
      <path stroke-width=".234" d="m21.368 23.83 1.565-2.712h-3.131z"/>
    </g>
  </g>
  <circle class="color-stroke-white" fill="none" stroke="#fff" stroke-miterlimit="10" stroke-width="2.172" cx="96" cy="96" r="80.06"/>
</svg>
