<svg xmlns="http://www.w3.org/2000/svg" id="Layer_1" width="2in" height="2in" x="0" y="0" version="1.1" viewBox="0 0 192 192" xml:space="preserve">
    <style id="style2" type="text/css"/>
    <g id="g180" transform="translate(5.999 5.999) scale(4.23336)">
        <circle id="circle4" class="color-red color-main" fill="#ab1f2c" cx="21.26" cy="21.26" r="22.677"/>
        <path id="path6" class="color-white color-stroke-white" fill="#fff" stroke="#fff" stroke-miterlimit="10" stroke-width=".23" d="M27.181 35.289c-.019-.028-.021-.068-.03-.103.068-.014.137-.024.204-.042.022-.006.031 0 .044.001l.042-.043c-.007-.01-.017-.014-.017-.035a.377.377 0 01.041-.154l-.143-.252c-.052.007-.12-.026-.181-.041.017-.036.028-.075.052-.106.008-.011.02-.02.029-.03L23.49 27.9c-.001.027-.006.052-.019.067-.121.136-.237.29-.389.379-.097.057-.254.011-.384.011 0 0 0 0 0 0-.052 0-.104-.003-.156.001-.145.01-.158-.082-.168-.194-.007-.081-.058-.14-.156-.122-.099.018-.153-.044-.151-.123.002-.065.052-.182.083-.183a.362.362 0 00.267-.123c.084-.083.182-.066.265.022.035.038.074.074.11.111.067.068.066.059.277.004a.959.959 0 01.303-.019c.01.001.021.01.031.016l-.578-1.019 1.748-3.34.024.045c.008-.036.013-.075.041-.096.012-.009.035-.004.053-.005.079.046.082.202.003.261-.003.002-.009 0-.013.001l.54 1.031c-.017-.062-.003-.145.049-.183.012-.009.048-.01.051-.004.022.041.038.086.067.154-.034.032-.087.111-.112.103-.014-.005-.023-.018-.033-.029l2.109 4.029-.059.365c.058-.026.115-.059.175-.065.037-.004.079.047.119.074l-.12.079a13.062 13.062 0 00-.177-.071l-.155.964 2.066-.692c.007-.013.029-.029.043-.043l.013.024.429-.144.577-.657-1.417-2.501c-.009.106-.046.116-.197.121-.249.008-.273-.013-.273-.239-.001-.22.007-.228.2-.234.03-.001.047.001.07.001L27.2 23.123c-.019-.009-.044-.008-.057-.024a.06.06 0 01-.004-.052c.002-.004.01-.003.013-.007l-.475-.84c-.155-.003-.216-.072-.194-.192.015-.079.056-.131.155-.124.119.009.188.075.155.195-.001.005-.007.009-.01.014h.44c-.02-.039-.037-.079-.081-.106-.002-.001.038-.097.055-.095.07.005.163.01.201.054.032.037.032.098.033.147h2.859c-.009-.027-.025-.049-.018-.085.015-.079.056-.131.154-.124.119.009.188.075.155.195-.001.005-.007.009-.01.014h2.417c.091-.069.192-.108.328-.051.131.003.201.011.235.051h.234c.006-.006.004-.019.011-.023a.06.06 0 01.052.004c.006.004.003.014.008.019h1.322c-.017-.049-.03-.1-.044-.152-.016-.06-.105-.141-.091-.162a.86.86 0 01.224-.205c.033-.021.127-.01.142.015.084.147.155.301.223.455.003.007-.007.028-.017.048h.619c.069-.003.128-.031.192-.047l-.002-.006c-.006-.023-.001-.05-.001-.075 0-.025-.005-.052.001-.075.012-.045.031-.088.047-.131.036.015.078.023.106.048a.42.42 0 01.118.134.946.946 0 00.38-.43.098.098 0 01-.019-.042c-.006-.052-.002-.104-.002-.157 0-.026-.008-.055.002-.078.018-.045.046-.086.069-.128l.025.026c0-.012.006-.023.005-.035-.037-.451-.431-.829-.921-.844h-.949c-.031.024-.061.024-.088 0h-.729c-.045.021-.089.046-.135.051-.028.003-.059-.025-.09-.051h-.696l-.052.048c-.001.001-.041-.029-.046-.048h-7.236l.638-1.218a.46.46 0 01-.017.011l-.196-.079c.065-.026.129-.066.197-.074.022-.002.047.016.072.036l.207-.395-.001-.198v-.232c.002-.124.072-.185.191-.163a.138.138 0 01.092.054l.712-1.361c-.005-.005-.015-.003-.019-.008a.06.06 0 01-.004-.052c.013-.024.046-.026.073-.036l.111-.213a.123.123 0 01-.053-.129c.004-.025.001-.051.001-.076 0-.051-.013-.107.005-.151.01-.027.084-.059.101-.047.04.028.071.067.104.104l1.064-2.032v0c-.044-.01-.091-.02-.128-.044-.009-.006.008-.071.027-.099a.411.411 0 01.104-.104c.028-.019.068-.021.103-.03l.011.053.078-.149-2.552-.854.255.705c.045-.045.094-.081.143-.083.018.018.047.033.052.054.019.085-.034.196-.106.274l.033.09-1.464 2.583c.136.056.267.109.387.164.042.019.079.308.04.364-.044.063-.114.107-.16.168-.045.059-.065.045-.114.027-.195-.075-.122-.356-.322-.425l-.028.049v.316c-.004.242-.005.242-.315.256-.001-.006.002-.011.001-.017l-.016.029c.01.012.018.03.02.065.009.157-.033.235-.19.239h-.002l-.632 1.115-1.294-2.283-.044.038c-.065-.101-.225-.138-.207-.289a.262.262 0 01.048-.108l-.501-.884 1.91-3.648c-.012-.005-.025-.008-.035-.015-.04-.03-.073-.07-.108-.106l-.054-.054.137-.091c.048.024.124.044.155.084l.513-.979c-.009-.05-.007-.108.016-.137a.192.192 0 01.078-.043l1.504-2.873a.182.182 0 01-.195-.065c-.016-.02-.036-.036-.054-.055a9.442 9.442 0 01-.097-.108l.115-.055-2.229-.746.435.928-.423.747a.67.67 0 00.09.004c.036-.001.098.049.106.085.017.073.005.153.005.231 0 .077.013.158-.006.231-.008.034-.073.068-.117.076-.044.008-.131-.005-.136-.026-.026-.099-.08-.185-.131-.272l-.681 1.201c.05.039.102.076.096.155-.023.019-.039.043-.06.05a.181.181 0 01-.143-.016l-.134.236a.145.145 0 01.043.062c.033.12-.036.186-.155.195-.013.001-.018-.007-.03-.008l-1.073 1.893-.004.007-.325.574.013.02c-.008.047-.012.096-.027.141-.007.022-.034.037-.052.055-.008-.02-.013-.04-.022-.06l-.139.246-.185-.326c-.019.023-.02.037-.046.063-.124.128-.151-.02-.217-.06-.134-.082-.1-.215-.1-.341.016-.04.024-.112.053-.121.014-.004.03-.005.045-.008L19.355 9.28a.439.439 0 00.085.259c.163.197.055.396.092.589.008.042-.228.202-.277.195-.119-.202-.183-.022-.274.036-.037.024-.117.025-.151 0a1.346 1.346 0 01-.223-.217c-.06-.07-.001-.248.079-.251.13-.006.26.002.39-.002.129-.004.133-.024.047-.174-.081-.141-.077-.146-.016-.268.025-.051.177-.063.057-.165a.571.571 0 01-.055-.055c-.064-.073-.145-.14-.179-.225-.011-.029.093-.115.156-.16.006-.004.007-.008.012-.012l-.86-1.517c-.026.026-.06.049-.087.046a.374.374 0 01-.192-.08c-.025-.022-.023-.108 0-.146a.717.717 0 01.157-.164c.028-.024.071-.032.107-.047.016.045.034.088.046.134v.002l.365-.737-1.964.66c.011.024.021.049.029.063-.014.129-.156.215-.226.162-.045-.034-.082-.077-.123-.118l-.264.088 1.289 2.463c.01-.021.019-.043.03-.064l.056.056a6.365 6.365 0 00-.046.084l1.365 2.607c.039-.025.073-.055.125-.065.053-.01.138.057.215.132.082.08.139.17.084.267-.026.047-.13.053-.199.074h-.012l.355.677.03.034a.03.03 0 01-.01.004l.702 1.342c.136-.013.299-.002.377.041.018.01.024.04.031.054.029.125-.052.187-.119.263-.021.023-.046.039-.07.059l.004.007-.321.565c.003.003.009.002.011.006-.001.018.004.041-.005.053-.011.015-.035.013-.052.022l-1.277 2.254.018-.015.056.102-.056.056c-.016-.032-.035-.063-.045-.096l-.327.578-.301-.531c-.002-.002-.006-.001-.007-.003a1.193 1.193 0 01-.184-.229c-.013-.022-.006-.06.007-.094l-.247-.436a.21.21 0 01-.144.026c-.018-.003-.048.061-.073.095.044.019.088.056.132.055.146-.003.174.086.161.197-.009.081-.058.136-.156.123a.74.74 0 00-.156-.001c-.157.012-.154.012-.075.164.033.063.078.141.066.201-.011.051-.096.086-.14.121-.068-.035-.147-.056-.148-.079-.006-.138-.075-.23-.163-.328-.029-.032-.005-.166.038-.2.125-.098.104-.222.109-.349.002-.045.028-.127.049-.129.13-.011.237-.101.353-.158l-.438-.774c-.014-.01-.024-.025-.04-.032a.499.499 0 00-.306-.008c-.044.012-.069.116-.093.183-.028.079-.06.144-.16.124-.097-.019-.217.055-.29-.057a.2.2 0 01-.023-.145c.056-.195.359-.238.313-.501.087-.052.175-.103.263-.153l-.597-1.053c-.031-.004-.061-.001-.091-.017a.106.106 0 01-.047-.053c-.025-.065-.001-.084.058-.074l-.058-.101.002.024c.008.079-.045.06-.072.086-.063.061-.058.194-.123.248-.067.056-.183.054-.205.059-.155 0-.246.025-.305-.008-.049-.027-.101-.145-.08-.183.059-.108.158-.193.235-.291.022-.028.024-.072.035-.108l-.138-.041c-.06-.018-.168-.009-.095-.12.096-.147.258-.196.407-.265l-.083-.146.391-1.012-2.552.854.496.948c.019-.016.042-.023.057-.048.042-.069.078-.073.108.001a.26.26 0 01.023.141c-.009.043-.041.096-.078.114l.437.835c.055-.048.156-.068.211-.024.061.048.109.114.168.164.178.151-.056.126-.083.189-.014.032-.051.054-.084.077l1.437 2.744c.032.014.039.033.029.055l.124.237c.006-.002.01-.007.016-.008.123-.023.204.04.19.158-.006.048-.038.09-.062.125l.185.354a.709.709 0 01.26.002c.045.012.067.115.095.178.062.141.148.165.286.081.062-.038.125-.073.188-.109v.233c-.005.209-.005.213-.195.239-.098.013-.207-.023-.278.08-.058.085-.112.06-.165-.006-.035-.044-.079-.083-.113-.128h-1.65v.001a.228.228 0 01-.198.047.18.18 0 01-.067-.049h-3.836l.002.004c.003.013-.032.034-.049.052l-.031-.056h-.811c.052.042.111.079.105.163-.023.019-.039.043-.06.05-.153.044-.243-.032-.225-.195.001-.006.006-.012.009-.017H8.283a.642.642 0 00-.034.051c-.097.014-.151-.01-.186-.051H7.059c.005.019.017.034.012.058-.004.025-.001.051-.001.076 0 .051.013.107-.004.151-.011.028-.083.065-.097.055a.562.562 0 01-.162-.16.33.33 0 01-.042-.155.937.937 0 00-.786.664.31.31 0 01.198.132c.083.144.162.29.242.436-.04.019-.086.062-.127.058a2.419 2.419 0 00-.253-.018.97.97 0 00.892.544h.653c.012-.035.024-.069.039-.119.015.05.027.085.039.119h.388c.003-.004.001-.008.006-.013.113-.11.215-.233.34-.328.042-.032.142-.006.208.016.053.018.035.066-.026.109-.081.057-.139.144-.209.215h3.219c-.049-.036-.088-.088-.057-.159.017-.039.136-.039.209-.046.149-.015.315.048.425-.12.02-.03.091-.027.138-.039.154.078.27.182.286.365h.16c.007-.047 0-.098.016-.14.028-.071.067-.072.11-.022.049.057.11.104.158.162h1.136c.009-.05.021-.08.078-.046.018.011.03.031.046.046h1.313a5.538 5.538 0 01-.019-.119c.007-.046.007-.121.03-.189.024-.073.055-.058.107-.008.165.159.18.196.06.316h.612l-3.648 6.437.418.474c.008-.002.011-.014.02-.014.051-.004.102-.001.197-.001l.153.075c-.033.036-.079.067-.097.109-.006.014-.009.03-.013.045l.797.267c.051-.071.238-.194.294-.181.112.026.297.227.283.325a.173.173 0 01-.014.044l1.091.365-.23-1.319.627-1.197a.165.165 0 01-.053-.115c-.008-.098.045-.14.124-.155.027-.005.042.009.064.011l.516-.985c-.023.012-.046.028-.067.033-.043-.024-.115-.05-.168-.097-.187-.165-.183-.173-.077-.38.044-.086.058-.194.119-.263.038-.044.185-.068.199-.047.076.117.137.244.194.372l.369-.706c-.122.015-.168-.057-.168-.233 0-.151.103-.063.153-.071.075-.013.114.019.138.07l.268-.512a.612.612 0 00-.243-.039c-.111.002-.276.076-.31-.114-.025-.142.166-.342.318-.354.076-.006.154-.001.245-.001.102-.015.175.002.209.089l.173-.331-.001-.001c-.059-.082.014-.219.118-.229h.003l.041-.078.04.077h.068c.025 0 .051-.002.076 0 .088.009.172.156.124.224-.027.038-.062.071-.095.105l.254.486c.018-.053.035-.106.054-.156.002-.006.043-.009.051 0 .068.077.071.284.015.385l.616 1.177c.017-.005.028-.016.052-.014.119.009.188.075.155.195a.188.188 0 01-.067.086l.406.775-.282.497c.091.095.163.223.34.194.023-.004.066.116.114.205-.078.04-.145.106-.193.094-.088-.022-.16-.117-.246-.13-.05-.007-.107.107-.174.133-.028.011-.069.001-.113-.016l-.805 1.421c.054.024.126.023.205.025a.376.376 0 01.197.087c.202.154.203.249.021.432-.037.037-.073.1-.112.102-.07.003-.142-.029-.21-.054-.014-.005-.012-.045-.023-.067-.093-.187-.142-.267-.201-.307l-1.057 1.864c.033.001.067 0 .095.014.042.022.073.068.108.104l.107.107-.243.229c-.054-.053-.129-.108-.175-.181-.01-.016-.007-.039-.013-.057l-1.161 2.049c.029.031.061.058.091.088.092.093.092.094-.081.161-.023.009-.052 0-.076.006-.059.015-.084.134-.15.126l-.683 1.204.298.273c-.004-.028-.016-.054-.01-.078.019-.078.074-.126.164-.111.025.004.051.001.095.001.084-.006.201-.017.207.125.004.118.056.262-.081.345-.013.008-.034.01-.054.012l.003.003 2.552.854-.451-.896.66-1.26c-.014-.006-.035-.005-.045-.015-.055-.051-.039-.179-.054-.273.179-.047.296-.15.316-.343.012-.12.095-.137.179-.126l1.242-2.373v-.001c.014-.045.026-.116.054-.125h.012l.955-1.824 1.441 2.753c.196.01.33.101.379.311.011.046.028.1.061.129.177.151-.007.195-.073.263l1.147 2.19c.014-.02.03-.039.042-.059.018.014.037.027.053.042.037.035.075.068.106.108.024.031.039.071.058.106l-.128.053.236.45-.455.889 2.552-.854.296-.302a.084.084 0 01-.043-.031zm2.14-7.878c.095 0 .148-.008.197.002.078.016.141.057.12.153-.01.046-.021.102-.053.128-.033.027-.1.043-.136.028-.065-.028-.121-.08-.177-.127-.038-.032-.07-.071-.104-.107l.153-.077zm-.258.654l.102.056c-.018.018-.039.052-.052.049-.037-.008-.071-.032-.106-.049l.056-.056zm7.412-7.254c.037-.006.258.163.262.209.001.016-.032.049-.051.051-.069.006-.16.028-.201-.006-.044-.037-.045-.129-.057-.198-.002-.016.03-.037.047-.056zm-.245-.499c.044-.009.095.009.141.023.021.007.037.034.055.052l-.054.054c-.047.008-.097.03-.141.021-.043-.009-.081-.049-.121-.075.04-.026.077-.066.12-.075zm-.466.047c.009.012.01.048.004.051-.041.022-.086.038-.154.067-.032-.034-.111-.087-.103-.112.027-.086.194-.085.253-.006zm-.365.899c.03-.04.07-.073.106-.108l.054-.051c.026.04.069.078.074.12.016.136-.03.187-.152.194l-.131-.049c.016-.036.027-.076.049-.106zm-1.43.311c-.014.012-.045.002-.069.002 0-.023-.009-.055.002-.069.024-.03.059-.051.09-.076.018.018.052.044.049.05a.346.346 0 01-.072.093zm.719-.79c.119.009.177.072.154.234-.037.021-.091.073-.151.08-.118.014-.181-.067-.158-.19.015-.079.056-.131.155-.124zm-.029.685c.009.012.004.035.005.053-.046.079-.202.082-.261.003a.06.06 0 01-.004-.052c.045-.081.202-.083.26-.004zm-.754-.756c.018-.038.075-.081.114-.08.121.003.264-.056.351.076.024.036.025.117 0 .149-.077.098-.187.171-.164.325.002.016-.124.073-.19.071-.078-.002-.128-.063-.117-.157.008-.076.002-.154.002-.232-.001-.051-.016-.11.004-.152zm-.074.864c.016-.011.055-.011.067.001.012.012.003.044.003.068-.031.024-.078.076-.091.069-.096-.056-.031-.101.021-.138zm-1.006-.266c.059-.079.214-.076.261.003-.001.018.004.041-.005.053-.059.079-.216.077-.26-.004a.06.06 0 01.004-.052zm-.663-.263c.016-.047.002-.104.002-.157 0-.105-.009-.211.005-.315.005-.039.06-.099.095-.101.155-.007.312-.002.467.015.026.003.048.08.065.125.083.225-.193.352-.157.565-.213.114-.096.227-.002.344.013.016.01.055 0 .077-.019.045-.046.119-.073.121-.07.004-.201-.017-.204-.042-.032-.222-.285-.374-.198-.632zm-.551.843l.056.102-.056.056c-.018-.035-.041-.069-.049-.106-.003-.013.032-.034.049-.052zm-.504-.442c.035-.037.068-.075.108-.106.031-.025.071-.039.106-.058l.055.131c.008.136-.079.168-.189.156-.043-.005-.081-.046-.122-.07.014-.017.026-.036.042-.053zm-1.919-.13c.044-.061.114-.103.158-.165.046-.065.066-.064.112 0 .07.097.212.153.178.306a.179.179 0 01-.084.111c-.042.019-.1.004-.15.004h-.076c-.139-.004-.217-.147-.138-.256zm-.206-.163c-.001.018.004.041-.005.053-.059.079-.216.077-.26-.004a.06.06 0 01.004-.052c.059-.079.215-.076.261.003zm-.185-.813c.013-.003.034.032.052.049-.035.018-.069.041-.106.049-.013.003-.034-.032-.052-.049.035-.018.069-.041.106-.049zm-.816-4.45c-.026-.04-.075-.08-.074-.12.002-.067.035-.134.074-.266.039.132.072.199.074.266.001.04-.048.08-.074.12zm.395-.633c0 .077.003.154-.002.231-.001.02-.034.056-.046.054a.359.359 0 01-.105-.044c.065-.183-.167-.239-.166-.398.001-.097.047-.151.125-.15.065 0 .16.033.187.081.032.058.007.149.007.226zm.75-.903c.012.003.017.033.026.05-.017.069-.145.087-.253.034a.106.106 0 01-.047-.053c-.028-.072-.002-.094.073-.074.065.018.134.026.201.043zm-.281-.192c-.008.051.075.161-.082.151-.174.01-.241-.041-.231-.181.006-.085.05-.131.136-.135.116-.006.198.036.177.165zm-.831-.83l.112-.111c.019.009.045.014.055.029.106.175.279.097.426.117.021.003.057.037.055.048-.01.038-.026.09-.056.104-.065.032-.146.031-.208.066-.22.123-.218.129-.383-.029-.117-.111-.12-.108-.001-.224zm-.033.657c.084-.01.117-.174.244-.149.045.009.122.033.125.057.018.15.029.303.022.454-.003.078-.06.135-.156.119-.209-.037-.333.032-.345.262-.001.02-.081.042-.127.053-.095.022-.139-.04-.156-.119-.011-.049-.002-.102-.002-.154-.022-.291.069-.485.395-.523zm-.547 2.928c-.003-.019.07-.061.113-.077.112-.044.204.064.193.309-.009.017-.042.106-.097.18-.038.051-.133.125-.153.112-.084-.053-.148-.135-.22-.207.092-.087.192-.165.164-.317zm-.477-2.014c.018-.078.062-.138.156-.116.045.011.102.023.127.055.026.033.035.095.026.138a.282.282 0 01-.076.12c-.05.055-.107.103-.161.154l-.074-.154c0-.095-.009-.148.002-.197zm-.022.501c.053.027.146.044.168.094.023.052-.022.134-.038.203-.036-.015-.076-.024-.106-.046-.04-.03-.073-.07-.108-.106l-.054-.054.138-.091zm-.295 1.942c.006-.188.011-.191.24-.193.102-.001.212-.02.233.123.031.217-.003.288-.158.351-.044.018-.091.031-.132.055-.137.08-.179.076-.183-.026-.002-.051 0-.103 0-.155-.001-.052-.002-.104 0-.155zm-1.974-6.664l-.056-.056.056-.102c.018.018.052.039.049.052-.008.037-.031.071-.049.106zm.259-.32c-.137.025-.182-.052-.182-.236 0-.15.103-.063.153-.071.129-.021.168.062.165.211-.034.025-.081.085-.136.096zm.228-.641c-.031-.052-.084-.103-.086-.155-.001-.044-.08-.165.066-.142.033.005.061.066.083.105.01.019.002.048.002.073l-.065.119zm.539-.919c-.02.041-.038.083-.061.122-.003.005-.038-.001-.049-.012a3.699 3.699 0 01-.204-.211c-.012-.014-.011-.057.001-.069.012-.012.046-.002.071-.003.212-.001.236.015.242.173zm-.703-.656c.166-.168.248-.19.377-.079.202.175.219.238.058.425-.038.045-.001.174-.126.138-.19.041-.279-.109-.371-.221-.067-.084-.019-.182.062-.263zm-.453.647c.16.052.329.098.466.189.06.04.053.182.075.27-.055.057.064.185-.094.166a.65.65 0 01-.211-.054c-.196-.101-.15-.371-.332-.486.033-.031.076-.092.096-.085zm-.045.963c.003-.005.038.001.049.012.07.068.139.137.204.211.012.014.002.048.002.072h-.074c-.212.002-.24-.014-.239-.173 0-.041.034-.083.058-.122zm-6.349-2.018c.002-.019.033-.036.057-.06.07.072.143.142.204.221.009.011-.039.095-.057.094-.069-.005-.162-.01-.198-.054-.034-.041-.012-.133-.006-.201zm-.866 1.337c-.036-.017-.075-.029-.106-.052-.04-.03-.073-.07-.108-.106-.017-.017-.032-.036-.048-.053l.139-.088c.051.028.144.047.165.097.022.052-.025.133-.042.202zm.122-.452c-.073-.073-.164-.137-.213-.224-.027-.049-.009-.164.032-.203.177-.165.072-.171-.084-.203-.137-.028-.163-.174-.066-.286.051-.059.13-.166.16-.155.085.032.184.1.217.179.073.176.016.396.194.545.046.038-.175.35-.24.347zm.596 1.742c-.117.024-.186-.037-.193-.161v-.077c0-.026.004-.052-.001-.077-.016-.098.043-.139.123-.155.117-.024.187.037.193.161.003.051-.005.104.002.155.013.097-.045.138-.124.154zm.092-.634c-.043-.005-.081-.045-.122-.07.014-.018.027-.037.042-.053.035-.037.068-.075.108-.106.031-.025.071-.039.106-.058l.055.131c.008.136-.079.169-.189.156zm.167-.688c0 .019-.035.037-.072.074-.05-.059-.1-.117-.149-.177-.125-.151-.109-.218.106-.306.079-.033.133-.056.138-.149.003-.047.018-.123.046-.132a.337.337 0 01.21-.01c.095.035.082.159.051.204-.112.163-.33.254-.33.496zm.638 2.359c-.198.117-.198.111-.303-.113-.031-.066-.091-.118-.121-.184-.011-.025.018-.091.045-.104.065-.03.151-.022.207-.061.101-.07.186-.163.278-.246.11.11.217.224.331.329.095.087.046.195.045.291-.001.058-.058.114-.1.189-.09-.049-.167-.07-.212-.12-.079-.087-.111-.016-.17.019zm.477.856c-.312.009-.311.009-.305-.224v-.076c0-.025-.009-.056.002-.075.036-.063.076-.118.148-.028.029.037.076.087.113.085.162-.008.249.066.201.215-.02.063-.142.093-.159.103zm-4.172 1.107l.056.056-.056.102c-.018-.018-.052-.039-.049-.052.008-.037.031-.071.049-.106zm-.975 1.234c-.017-.018-.05-.039-.048-.054.011-.07.011-.162.055-.199.041-.035.132-.014.201-.009.019.001.052.034.051.051-.004.046-.221.216-.259.211zm.394-.497c-.013.021-.035.048-.055.05-.076.006-.154.002-.231.002-.077 0-.167.024-.227-.008-.049-.026-.104-.145-.084-.179.114-.191.249-.371.477-.444.022-.007.057-.007.073.006.08.065.112.471.047.573zm.281 1.929a.327.327 0 01-.093-.072c-.012-.014-.011-.054.001-.066.012-.012.052-.012.066-.001.03.024.051.059.076.09-.018.019-.044.052-.05.049zm.142-.614c-.026-.04-.075-.08-.074-.12.002-.067.035-.134.074-.266.039.132.072.199.074.266.001.039-.048.08-.074.12zm1.154-.265c.009.012.004.035.005.053-.046.079-.202.082-.261.003a.06.06 0 01-.004-.052c.044-.081.201-.083.26-.004zm-.093.585c.056.015.096.084.123.109-.001.162-.071.224-.194.201-.079-.015-.131-.056-.124-.155.009-.119.075-.188.195-.155zm-.272-.32c.018.035.041.069.049.106.003.013-.032.034-.049.052-.018-.035-.041-.069-.049-.106-.003-.013.032-.035.049-.052zm.606 2.809c-.104-.152-.185-.092-.279.014-.024.027-.099.028-.142.015-.076-.022-.126-.081-.104-.168.011-.045.03-.111.062-.123.068-.025.146-.02.24-.029.081.01.188.003.272.044.041.02.044.13.05.201.001.013-.095.051-.099.046zm.206-.783c-.047.014-.102.035-.146.023-.294-.082-.332-.074-.428.117-.011.021.004.053-.002.077-.019.081-.057.128-.156.128-.098 0-.149-.045-.155-.127-.009-.114-.026-.201-.17-.194-.153.008-.194-.147-.141-.202.23-.244.12-.534.154-.803.004-.03.059-.057.095-.078.006-.003.035.034.054.052.094.088.193.167.166.325-.017.101.007.21-.006.312-.01.08.004.107.081.077.022-.009.039-.034.056-.054.096-.11.199-.163.323-.04.111.11.222.221-.062.249-.395-.106-.386-.139-.397-.151-.012-.012-.051-.012-.067-.001-.052.037-.117.082-.022.137.013.007.06-.044.486.014.375.105.359.133.337.139zm.474 1.266l-.102-.056c.018-.018.039-.052.052-.049.037.008.071.032.106.049l-.056.056zM6.195 20.942c-.15 0-.063-.103-.071-.153-.021-.129.062-.168.211-.165.025.034.086.081.096.137.026.136-.052.181-.236.181zm.635.155l-.054-.054c-.036-.036-.076-.068-.106-.108-.022-.03-.031-.07-.046-.106l.132-.048c.122.008.167.06.149.197-.004.042-.048.08-.075.119zm1.019.314c-.072.224-.248.369-.456.474-.021.011-.051.001-.092.001-.14.042-.227-.059-.311-.158-.025-.03-.055-.101-.048-.105.217-.156.09-.384.127-.577.015-.08.082-.117.172-.109.091.009.133.051.142.141.009.089.001.232.149.1.086-.077.171-.116.268-.054.111.072.075.206.049.287zm.718-.156c-.018-.035-.041-.069-.049-.106-.003-.013.032-.034.049-.052l.056.102-.056.056zm.338-.5c-.003.006-.039.005-.051-.004-.079-.059-.08-.226.005-.253.026-.008.079.071.112.103-.028.069-.044.113-.066.154zm.688.413c-.031.024-.078.076-.091.069-.095-.056-.03-.101.022-.137.016-.011.046-.002.069-.002v.07zm.456.027c-.113.097-.14.091-.379-.097a.191.191 0 01-.024-.29c.104-.116.211-.232.39-.184.143.002.17.043.191.173.03.179-.054.292-.178.398zm.526.213c-.12.033-.186-.036-.195-.155-.008-.098.045-.14.124-.155.123-.023.194.038.194.201-.027.025-.068.093-.123.109zm.599-.866l.139-.088c.051.028.144.047.165.097.022.053-.025.134-.042.203-.036-.017-.075-.028-.106-.052-.04-.03-.073-.07-.108-.106l-.048-.054zm.348 1.024c-.12.033-.186-.036-.195-.155-.008-.098.045-.14.124-.155.123-.023.194.038.194.201-.027.025-.068.093-.123.109zm.332-.025c-.013.003-.034-.032-.052-.049.035-.018.069-.041.106-.049.013-.003.034.032.052.049-.035.017-.069.041-.106.049zm.084-.907c-.032-.034-.111-.087-.103-.112.027-.085.195-.084.253-.005.009.012.01.048.004.051-.041.022-.086.038-.154.066zm.762.591c-.036-.016-.076-.026-.106-.049-.04-.03-.073-.07-.108-.106l-.051-.054c.04-.026.078-.069.12-.074.136-.016.187.03.194.151a4.046 4.046 0 01-.049.132zm1.117-.913c.044-.009.095.009.141.023.022.007.037.034.055.052l-.054.054c-.047.008-.097.03-.141.021-.043-.009-.081-.049-.121-.075.039-.026.076-.066.12-.075zm-.427.069c.004-.02.03-.041.052-.051.012-.006.045.002.05.013.06.126.074.271.2.37.052.04.004.072-.07.073-.207.004-.241-.024-.241-.267.002-.041-.001-.091.009-.138zm-.009 1.106c0 .025.004.05-.001.073-.01.044-.02.091-.044.128-.006.009-.071-.008-.099-.027a.411.411 0 01-.104-.104c-.019-.028-.021-.068-.03-.103.068-.014.137-.024.204-.042.075-.02.098.001.074.075zm.075-.072c-.151 0-.063-.103-.071-.153-.021-.129.062-.168.211-.166.025.034.086.081.096.137.025.138-.052.182-.236.182zm.242-.559c-.028-.074-.003-.087.074-.077.098.013.204-.014.297.01.049.013.08.097.099.122.006.147-.06.208-.106.149-.085-.11-.207-.108-.315-.15a.103.103 0 01-.049-.054zm.398 1.188c-.049 0-.102.012-.146-.004-.034-.012-.056-.058-.083-.089.04-.022.078-.056.12-.062.043-.006.091.013.133.029.02.008.04.031.048.052.028.074.002.099-.072.074zm.42-1.369c.059-.079.214-.076.261.003-.001.018.004.041-.005.053-.059.079-.216.077-.26-.004-.007-.013-.006-.04.004-.052zm-.156.682c-.008-.026.071-.079.103-.112.069.029.113.045.154.067.007.003.005.039-.004.051-.058.078-.226.079-.253-.006zm.441.687c-.096 0-.149.009-.197-.002-.078-.018-.138-.062-.116-.156.011-.045.023-.102.055-.127.033-.026.094-.035.138-.026a.282.282 0 01.12.076c.055.05.103.107.154.161l-.154.074zm.237-1.105l-.056-.102.056-.056c.018.035.041.069.049.106.003.013-.031.035-.049.052zm-1.578 6.63l-.056-.102.056-.056c.018.035.041.069.049.106.003.013-.032.034-.049.052zm.608-1.082l.102.056c-.018.018-.039.052-.052.049-.037-.008-.071-.032-.106-.049l.056-.056zm.234 1.138c.006.003.005.039-.004.051-.059.079-.226.08-.253-.005-.008-.026.071-.079.103-.112.068.027.112.044.154.066zm-.251.265c.037-.004.079.047.119.074l-.12.079-.196-.079c.066-.027.129-.067.197-.074zm.18 1.25c-.062.031-.151.007-.228.007h-.155c-.025 0-.068.006-.073-.004-.031-.064-.067-.131-.075-.199-.012-.097-.032-.224.084-.263.093-.031.226-.042.302.003.101.06.177.176.234.284.019.033-.039.147-.089.172zm.357-2.387c-.003.006-.039.005-.051-.004-.079-.059-.08-.226.005-.253.026-.008.079.071.112.103-.028.069-.044.113-.066.154zm.924-1.71l.056.056-.056.102c-.018-.018-.052-.039-.049-.052.008-.037.031-.071.049-.106zm-.102 1.41c.069.029.113.045.154.067.006.003.005.039-.004.051-.059.079-.226.08-.253-.005-.008-.026.071-.079.103-.113zm-.611-1.092c.009-.119.075-.188.195-.155.056.015.096.084.123.108-.001.162-.071.224-.194.201-.079-.015-.132-.056-.124-.154zm.215 2.813c-.08-.044-.083-.201-.004-.26.012-.009.035-.004.053-.005.079.046.082.202.003.261a.06.06 0 01-.052.004zm.103 1.052c.035-.018.069-.041.106-.049.013-.003.034.032.052.049-.035.018-.069.041-.106.049-.013.003-.034-.031-.052-.049zm.234.542c-.052.023-.134-.022-.203-.038.015-.036.024-.076.046-.106.03-.04.07-.073.106-.108l.054-.054.091.137c-.027.054-.044.147-.094.169zm.09-2.445a7.332 7.332 0 01-.217.215c-.01.01-.039.011-.052.004-.021-.012-.052-.034-.053-.052a9.573 9.573 0 01.002-.611c.002-.035.061-.068.092-.1.053.004.114-.009.15.014.265.171.285.318.078.53zm.251-1.829l-.102-.056c.018-.017.039-.052.052-.049.037.008.071.032.106.049l-.056.056zm.002-.792c-.018-.001-.041.004-.053-.005-.079-.059-.077-.216.004-.26a.06.06 0 01.052.004c.08.06.077.215-.003.261zm.086 1.493c.045-.016.088-.034.134-.046.024-.006.051-.001.076-.001.051 0 .11-.016.151.005.037.018.08.079.076.115a.374.374 0 01-.08.192c-.022.025-.108.023-.146 0-.063-.038-.115-.1-.164-.157-.025-.029-.032-.071-.047-.108zm.358.895c-.162.022-.224-.035-.234-.154-.008-.098.045-.14.124-.155.123-.023.204.04.19.158-.008.059-.06.114-.08.151zm-.074-3.15a.486.486 0 00-.157 0c-.099.014-.142-.043-.157-.125-.01-.051-.002-.104-.002-.157a.453.453 0 01.199-.466c.02-.014.105.021.104.028-.024.213.221.332.18.563-.022.126-.03.183-.167.157zm.695-2.984c.09-.095.184-.185.276-.278.018-.018.035-.038.052-.057.022.022.039.042.059.058.123.104.21.214.185.396-.025.178-.146.268-.278.331-.108.052-.184-.055-.255-.128-.124-.127-.137-.219-.039-.322zm.168.936c.021.037.073.091.08.151.014.118-.067.181-.19.158-.079-.015-.131-.056-.124-.154.01-.12.073-.178.234-.155zm-.171 2.377c-.182.198-.246.197-.428.012-.074-.076-.07-.074.023-.398.027-.094.013-.2.031-.298.008-.043.05-.08.077-.12.018.018.053.037.052.055-.006.207.161.3.273.431.03.035.046.084.08.148-.03.051-.06.119-.108.17zm.1-.842c.009-.079.059-.138.155-.12-.004-.109.049-.162.158-.158.004.109-.049.162-.158.158v.316c-.148.011-.167-.09-.155-.196zm.3.287c-.018.018-.044.052-.05.049a.327.327 0 01-.093-.072c-.012-.014-.011-.054.001-.066.012-.012.052-.012.066-.001.03.025.051.06.076.09zm-.236 1.468c-.095-.056-.03-.101.022-.137.016-.011.055-.011.067.001.012.012.003.044.003.068-.032.024-.079.076-.092.068zm.222-.192c-.042.021-.087.035-.13.053 0-.128-.005-.256.005-.383.002-.025.062-.046.096-.069.066.102.222.139.215.294-.063.036-.123.073-.186.105zm.174-1.848c-.044.001-.165.08-.142-.066.005-.033.066-.061.105-.083.019-.01.048-.002.073-.002l.12.066c-.053.031-.104.084-.156.085zm.067-1.288c-.085-.027-.084-.195-.005-.253.012-.009.048-.01.051-.004.022.041.038.086.067.154-.034.032-.087.111-.113.103zm.091-2.026c-.044.001-.165.08-.142-.066.005-.033.066-.061.105-.083.019-.01.048-.002.072-.002l.12.066c-.052.03-.103.083-.155.085zm.375.445c-.029-.019.142-.274.184-.276.039-.001.227.249.202.267-.128.089-.128.215-.118.347.005.077-.007.15-.102.141-.023-.002-.052-.083-.054-.128-.006-.129.024-.262-.112-.351zm.18 1.289c-.001.001-.048-.033-.049-.051-.003-.069-.021-.16.015-.201.038-.043.131-.043.201-.052.015-.002.035.033.08.077-.083.077-.164.154-.247.227zm.324-.938c-.018-.035-.041-.069-.049-.106-.003-.013.032-.034.049-.052.018.035.041.069.049.106.003.013-.032.034-.049.052zm1.082 9.663c.056-.081.31-.041.413.041.04.032.087.066.107.11.03.065.051.139.049.209-.001.028-.072.068-.116.076-.075.013-.154.003-.231.003-.052 0-.105.008-.154-.002-.08-.015-.14-.056-.123-.153.015-.097.005-.212.055-.284zm.072.702c.003.013-.032.034-.049.052-.018-.035-.041-.069-.049-.106-.003-.013.032-.034.049-.052.017.035.041.069.049.106zm-1.853 1.701c.005-.022.035-.038.053-.056.019.009.044.013.055.028.072.101.137.129.228.011.034-.044.236.075.269.176.02.061-.016.141-.034.211-.004.016-.043.034-.063.031-.197-.033-.339-.18-.517-.254-.016-.006-.002-.097.009-.147zm-.803.721c.009-.119.072-.177.234-.154.021.037.073.091.08.151.014.118-.067.181-.19.158-.079-.016-.132-.057-.124-.155zm.242 2.047c-.018-.016-.036-.031-.053-.048-.036-.035-.076-.068-.106-.108-.023-.031-.035-.07-.052-.106l.131-.051c.123.008.168.057.154.192-.006.043-.049.081-.074.121zm.353-.16c-.039.001-.08-.048-.12-.074.04-.026.08-.075.12-.074.067.002.134.035.266.074-.131.039-.198.072-.266.074zm.116-1.103c-.024-.028-.032-.07-.047-.106.044-.016.087-.035.131-.047.023-.006.05-.001.075-.001.025 0 .052-.005.075.001.045.012.088.031.131.047-.015.036-.023.078-.047.106-.152.173-.165.173-.318 0zm.305 1.089c-.095-.056-.03-.101.022-.137.016-.011.055-.011.067.001.012.012.003.044.003.068-.032.024-.079.075-.092.068zm.165-.139c-.025 0-.059.01-.071-.003-.012-.012-.013-.056-.001-.069.075-.084.155-.163.234-.244.038.038.063.053.072.074.062.153-.027.244-.234.242zm.321-4.104c-.018-.035-.041-.069-.049-.106-.003-.013.032-.034.049-.052l.056.102-.056.056zm.392 2.996c-.012.012-.046.003-.071.003-.212.002-.24-.014-.239-.173 0-.041.035-.083.058-.122.003-.005.038.001.049.012.07.068.139.137.204.211.012.014.011.057-.001.069zm-.05-3.025c-.037-.008-.071-.032-.106-.049l.056-.056.102.056c-.017.017-.039.051-.052.049zm.054-.481c.015-.079.056-.131.155-.124.119.009.188.075.155.195-.015.056-.084.096-.108.123-.164 0-.225-.07-.202-.194zm.223 1.912c-.095-.056-.03-.101.022-.137.016-.011.046-.002.069-.002v.07c-.031.025-.078.076-.091.069zm.818-.46c-.124.186-.386.128-.499.318-.014.023-.099.003-.15.003-.026 0-.062.01-.075-.003-.013-.013-.013-.065-.001-.073.15-.098.172-.241.158-.404-.014-.152.099-.15.225-.154.121-.029.225.033.309.142.038.052.1.071.033.171zm.092-.361a.06.06 0 01-.004-.052c.044-.08.201-.083.26-.004.009.012.004.035.005.053-.046.079-.202.082-.261.003zm2.254-4.058c-.162.022-.224-.035-.234-.154-.008-.098.045-.14.124-.155.123-.023.204.04.19.158-.008.059-.06.113-.08.151zm.19-1.597c-.162.168-.295.233-.372.152-.074-.078-.075-.339.001-.415.016-.016.042-.02.056-.026.126-.028.199.047.256.128.029.043.165.051.059.161zm-1.334.817c.056.015.096.084.123.108-.001.162-.071.224-.194.201-.079-.015-.131-.056-.124-.155.01-.118.076-.187.195-.154zm-.163-.584c-.003-.013.032-.034.049-.052l.056.102-.056.056c-.017-.035-.041-.069-.049-.106zm.286.022c0-.025-.006-.053.001-.076.014-.045.026-.116.054-.125.064-.019.147-.027.204 0 .065.03.106.109.166.154.058.044.054.065-.008.111-.096.072-.155.211-.308.174a.172.172 0 01-.105-.089c-.018-.042-.004-.099-.004-.149zm.325-1.412c.045-.109.163-.084.304-.082.027.001.09.041.153.07-.066.071-.129.146-.203.21-.013.011-.074-.02-.102-.044-.057-.047-.163-.127-.152-.154zm.066-.409l-.443-.782c-.014 0-.019.006-.045-.002-.066-.085-.149-.18-.214-.286-.016-.026.003-.085.028-.12l-.633-1.117h2.616zm-.73 3.269l-.056.056c-.018-.035-.041-.069-.049-.106-.003-.013.032-.034.049-.052l.056.102zm-.805-5.305c.067.007.131.047.197.074l-.12.079c-.025 0-.055.008-.075-.002-.043-.021-.081-.051-.121-.077.04-.026.083-.078.119-.074zm-.243-1.01c-.035-.041-.014-.132-.009-.201.001-.019.034-.052.051-.051.046.003.216.221.212.259-.018.017-.039.05-.054.048-.07-.011-.163-.011-.2-.055zm.413.477c-.007.022-.034.037-.052.055-.026-.065-.066-.129-.074-.197-.004-.037.047-.079.074-.119l.079.12c-.008.047-.012.096-.027.141zm-.099-.791c-.008-.026.071-.079.103-.112.069.029.113.045.154.067.007.003.005.039-.004.051-.058.078-.226.079-.253-.006zm1.096.631l.056-.102c.018.018.052.039.049.052-.008.037-.032.071-.049.106l-.056-.056zm.772-.694c.007-.067.047-.131.074-.197.026.065.066.129.074.197.004.037-.047.079-.074.119-.027-.04-.078-.082-.074-.119zm.859-2.708c.108-.02.277.311.21.405-.023.032-.084.051-.128.052-.044 0-.113-.02-.126-.05-.029-.065-.029-.142-.045-.235.026-.055.048-.165.089-.172zm-.155-3.171c-.026-.04-.078-.083-.074-.119.007-.067.047-.131.074-.197.026.065.066.129.074.197.004.037-.047.079-.074.119zm.421 6.054c-.076.084-.165.138-.262.091-.047-.023-.065-.124-.077-.192-.013-.075-.003-.153-.003-.23 0-.077-.009-.155.003-.23.007-.044.045-.115.073-.116.069-.004.157.003.206.043.268.219.276.398.06.634zm-.686 2.52c-.017.036-.028.076-.052.106-.046.059-.098.112-.148.168-.03-.03-.053-.045-.065-.066-.052-.09-.027-.233.059-.253.063-.013.138.028.206.045zm.105 1.366c-.041.02-.114.025-.147.001a.782.782 0 01-.214-.211c-.031-.05-.021-.14-.002-.203.023-.076.177-.075.258-.005.154.133.182.177.187.304-.027.038-.045.095-.082.114zm.344 1.242c-.092.053-.233.032-.255-.054-.015-.061.025-.137.04-.206.036.015.076.024.106.046.04.03.068.078.109.104.068.043.071.074 0 .11zm.083-3.656a.06.06 0 01-.004-.052c.044-.08.201-.083.26-.004.009.012.004.035.005.053-.046.079-.202.082-.261.003zm.207-.265c-.018-.035-.041-.069-.049-.106-.003-.013.032-.034.049-.052l.056.102-.056.056zm.109 2.474a.06.06 0 01-.004-.052c.044-.08.201-.083.26-.004.009.012.004.035.005.053-.047.08-.202.083-.261.003zm-.006-2.948c-.199.036-.354-.049-.461-.208-.034-.05-.032-.147-.009-.208.035-.095.155-.081.204-.051.098.059.163.218.284.031.008-.013.049-.022.052-.018.071.102.219.143.223.302.005.116-.05.152-.293.152zm1.156 1.102c-.07-.011-.162-.011-.199-.055-.035-.041-.014-.132-.009-.201.001-.019.034-.052.051-.051.046.003.216.221.212.259-.019.018-.04.051-.055.048zm-.203-1.208c-.003-.013.032-.034.049-.052.018.035.041.069.049.106.003.013-.032.034-.049.052-.018-.035-.041-.068-.049-.106zm.175-.886c-.04-.039-.058-.166-.026-.201.154-.167.314-.324.385-.55a.2.2 0 01.109-.108.418.418 0 01.21-.02c.028.005.052.079.062.125.011.05.002.104.002.235l-.046.216c-.232.01-.338.204-.495.326-.041.032-.162.016-.201-.023zm.213 1.598c-.003.006-.039.005-.051-.004-.079-.059-.08-.226.005-.253.026-.008.079.071.112.103-.028.068-.044.112-.066.154zm.626-.951c-.069.052-.145-.215-.275-.033-.093.129-.242.045-.365.057-.026.002-.086-.073-.082-.108.007-.069.062-.195.073-.193.278.062.427-.123.598-.282.042-.039.156-.048.203-.018.05.032.059.127.033.062.081.333-.069.427-.185.515zm.662 2.552c-.043-.005-.081-.045-.122-.07.014-.018.027-.037.042-.053.035-.037.068-.075.108-.106.031-.025.071-.039.106-.058l.055.131c.008.136-.079.168-.189.156zm-.095-.73c.027-.085.195-.084.253-.005.009.012.01.048.004.051-.041.022-.086.038-.154.067-.033-.034-.111-.087-.103-.113zm.52 1.838l-.056-.102.056-.056c.017.035.041.069.049.106.003.013-.032.035-.049.052zm-.122-2.21c-.249.008-.273-.013-.273-.239-.001-.22.007-.228.2-.234.249-.008.273.013.273.239.001.22-.006.228-.2.234zm1.879 5.023c-.011.009-.095-.039-.094-.057.005-.069.01-.162.054-.198.041-.034.132-.012.201-.006.019.002.036.033.06.057-.073.069-.143.142-.221.204zm.381.029c.024-.006.051-.001.076-.001.051 0 .11-.016.151.005.037.018.08.079.076.115a.374.374 0 01-.08.192c-.022.025-.108.023-.146 0a.717.717 0 01-.164-.157c-.024-.028-.032-.071-.047-.107.045-.016.089-.035.134-.047zm-.479-1.02c.044-.061.108-.106.155-.165.061-.077.108-.061.163.004.048.057.108.106.152.167.049.068-.036.216-.124.224-.025.003-.051 0-.076 0-.051 0-.102.004-.152-.001-.104-.01-.177-.147-.118-.229zm-.374.365l-.102-.056c.018-.018.039-.052.052-.049.037.008.071.032.106.049l-.056.056zm-.028-2.655c.021.037.073.091.08.151.014.118-.067.181-.19.158-.079-.015-.131-.056-.124-.155.01-.119.073-.177.234-.154zm-.468.152l.056.102-.056.056c-.018-.035-.041-.069-.049-.106-.003-.013.031-.034.049-.052zm-.186-2.179c.012-.009.048-.01.051-.004.022.041.038.086.067.154-.034.032-.087.111-.112.103-.086-.027-.085-.195-.006-.253zm.084 1.65l-.056.056c-.018-.035-.041-.069-.049-.106-.003-.013.032-.034.049-.052l.056.102zm-.101 3.115c.108-.124.113-.189-.012-.279-.005-.004.003-.045.014-.05.043-.02.096-.055.132-.043.174.056.302.154.309.364.008.222-.021.262-.244.263h-.076c-.145-.007-.226-.138-.123-.255zm-.113-.849c.018.018.052.039.049.052-.008.037-.032.071-.049.106l-.056-.056.056-.102zm-.132-1.08l.055.131c.008.136-.079.168-.189.156-.043-.005-.081-.045-.122-.07.014-.018.027-.037.042-.053.035-.037.068-.075.108-.106.031-.025.07-.039.106-.058zm-.233-1.71c-.003-.013.032-.034.049-.052l.056.102-.056.056c-.017-.035-.04-.068-.049-.106zm.359-3.36c.018.014.037.027.053.042.037.035.075.068.106.108.025.031.039.071.058.106l-.131.055c-.136.008-.168-.079-.156-.189.005-.043.046-.082.07-.122zm-.42.786c.075-.012.153-.003.286-.003.019.003.097.002.163.03.031.013.045.081.055.126.022.094-.046.167-.115.153-.137-.029-.267-.096-.397-.152-.042-.018-.077-.053-.115-.08.04-.026.079-.067.123-.074zm-.585-1.5c.237-.187.07-.58.381-.71a.205.205 0 01.154.002.17.17 0 01.078.119c.011.103.004.209.004.314 0 .052-.009.107.001.157.07.323-.2.449-.367.632-.009.01-.078-.019-.106-.044-.058-.051-.136-.104-.153-.17-.024-.097-.044-.259.008-.3zm-.094 1.813c.018.018.052.039.049.052-.008.037-.032.071-.049.106l-.056-.056.056-.102zm-.028.503c.012-.009.035-.004.053-.005.079.046.082.202.003.261a.06.06 0 01-.052.004c-.08-.044-.083-.201-.004-.26zm-.076-1.554c-.001.018.004.041-.005.053-.059.079-.216.077-.26-.004a.06.06 0 01.004-.052c.06-.079.215-.076.261.003zm-.71-1.449c.091-.116.146-.078.333-.047.199.033.278.091.244.284-.005.199-.029.214-.228.215a.37.37 0 01-.273-.102c-.127-.113-.168-.233-.076-.35zm-.204.294c.051.008.161-.075.151.082.01.174-.041.241-.181.231-.085-.006-.131-.05-.135-.136-.005-.116.036-.198.165-.177zm-.361.785l.196.079c-.065.026-.129.066-.197.074-.037.004-.079-.047-.119-.074l.12-.079zm-.15-1.37c.009.012.01.048.004.051-.041.022-.086.038-.154.067-.032-.034-.111-.087-.103-.112.027-.085.194-.085.253-.006zm-.128 1.66c.022.126-.085.177-.148.254-.075.09-.172.126-.267.061-.081-.055-.139-.145-.207-.219.157-.079.114-.275.224-.379.014-.013.05-.005.075-.006.114.013.305.184.323.289zm-.317-.446c-.098.008-.14-.045-.155-.124-.023-.123.04-.204.158-.19.06.007.114.059.151.08.023.162-.035.225-.154.234zm.154-.836c.006.065-.046.193-.074.193-.114.002-.203.026-.27.121-.012.017-.036.025-.055.038-.042-.009-.226-.252-.227-.3-.002-.055.17-.305.218-.3a.166.166 0 01.109.072c.072.116.283-.003.299.176zm-.598-1.479c.021-.076.057-.062.108-.003.098.113.231.203.151.483a2.506 2.506 0 00-.05.097l-.108-.108-.054-.054c-.122-.125-.086-.273-.047-.415zm-.184-.763c.009-.022.033-.051.054-.054.1-.016.202-.023.311-.035.068.012.143.023.215.041.018.004.04.035.04.053 0 .073-.303.258-.373.229-.092-.038-.119-.18-.249-.157 0-.026-.007-.055.002-.077zm-.222.081c.071-.013.146-.004.22-.001.001 0 .009.051-.001.068-.06.1-.152.102-.248.072-.021-.006-.052-.044-.05-.049.022-.033.047-.083.079-.09zm.141-2.213c-.018-.018-.052-.039-.049-.052.008-.037.032-.071.049-.106l.056.056-.056.102zm.463-2.528c-.014.012-.054.011-.066-.001-.012-.012-.012-.052-.001-.066.024-.03.059-.051.09-.076.018.018.052.044.049.05a.31.31 0 01-.072.093zm.051-.634c-.039.001-.08-.048-.12-.074.04-.026.08-.075.12-.074.067.002.134.035.266.074-.131.039-.198.072-.266.074zm-.119.706c-.031.024-.078.076-.091.069-.095-.056-.03-.101.022-.137.016-.011.046-.002.069-.002v.07zm.737-2.724c.013-.003.034.032.052.049-.035.018-.069.041-.106.049-.013.003-.034-.032-.052-.049.035-.017.069-.04.106-.049zm-.239.343c.001-.019.034-.052.051-.051.046.003.216.221.212.259-.018.017-.039.05-.054.048-.07-.011-.162-.011-.199-.055-.036-.041-.015-.132-.01-.201zm-.505.893c.123-.012.263.037.338-.097l.061-.061c.057.052.107.114.168.161.097.075.025.118-.023.166-.073.074-.152.143-.218.222-.064.076-.109.062-.168-.003-.069-.077-.148-.146-.218-.222-.029-.031-.048-.072-.072-.109.044-.02.087-.052.132-.057zm-.523 1.599l.056.056c-.035.018-.069.041-.106.049-.013.003-.034-.032-.052-.049l.102-.056zm-.11.534c.103-.117.283-.072.384-.21.057-.077.247-.025.251.051.004.069-.01.159-.054.206-.211.226-.433.44-.652.659-.019-.019-.041-.035-.055-.057-.013-.019-.028-.049-.022-.066.037-.104.079-.205.12-.307-.176-.112-.053-.185.028-.276zm-.062.863c.189 0 .223.044.23.185.007.135-.017.243-.126.342-.083.075-.158.115-.271.107-.129-.008-.109-.139-.182-.199-.093-.077-.075-.177.008-.259.109-.106.193-.277.341-.176zm-.558-1.733c.012-.012.046-.002.071-.003.212-.002.235.014.242.173-.02.041-.038.083-.061.122-.003.005-.038-.001-.049-.012a3.699 3.699 0 01-.204-.211c-.012-.013-.012-.057.001-.069zm-.082.944l.079.12-.079.196c-.026-.065-.066-.129-.074-.197-.003-.036.048-.079.074-.119zm-.219 1.643c.067-.079.137-.167.225-.216.06-.033.154-.006.238-.006.04.039.169-.081.15.078a.56.56 0 01-.056.212c-.107.179-.282.209-.472.183-.087-.012-.147-.179-.085-.251zm.197 1.486c-.033-.022-.052-.084-.053-.127-.001-.044.019-.113.049-.127.064-.03.142-.03.234-.046.054.026.163.046.172.088.022.105-.307.276-.402.212zm.229.396c-.008.037-.032.071-.049.106l-.056-.056.056-.102c.017.017.052.039.049.052zm-.531 1.249a.225.225 0 00.031-.016c.021.022.055.043.054.059a.283.283 0 00.019.154l.016.031c.031.037.083.057.169.051.103-.008.215-.026.308.006.089.03.155.122.235.182.053.041.036.06-.015.113-.141.148-.287.202-.428.161l.885 1.69H20.08l.418-.799-.092-.092c-.057-.054-.107-.115-.167-.165-.095-.077-.035-.118.033-.149.065-.031.137-.046.204-.074.022-.009.037-.035.06-.058.093-.006.136.062.18.124l.791-1.512zm-.676-2.036c.044-.08.201-.083.26-.004.009.012.004.035.005.053-.046.079-.202.082-.261.003a.06.06 0 01-.004-.052zm-.113-2.096c.021-.011.049-.007.074-.011.165-.021.223.226.41.167.011-.003.062.121.047.091.061.25-.007.352-.114.44-.055.046-.092.11-.17.02-.086-.097-.196-.173-.161-.329.026-.115-.024-.2-.115-.267-.048-.036-.038-.077.029-.111zm.048 1.41c.191-.029.236.16.355.237-.039.026-.076.07-.119.076-.184.028-.239-.15-.355-.234l.119-.079zm-.172 1.869c-.092.053-.233.032-.255-.054-.015-.061.025-.137.04-.206.036.015.076.024.106.046.04.03.068.078.109.104.068.043.071.074 0 .11zm-.815-5.812c.03-.04.07-.073.106-.108l.053-.051c.026.04.069.078.074.12.016.136-.03.187-.151.194l-.131-.049c.016-.036.026-.076.049-.106zm-.293.132l-.102-.056c.018-.018.039-.052.052-.049.037.008.071.032.106.049l-.056.056zm.113-.641c-.085-.027-.084-.195-.005-.253.012-.009.048-.01.051-.004.022.041.038.086.067.154-.035.033-.088.111-.113.103zm.203 2.693l-.102-.056c.018-.018.039-.052.052-.049.037.008.071.032.106.049l-.056.056zm-.01-1.067c-.111-.106-.133-.205-.021-.329.046-.051.055-.134.088-.198.027-.052.032-.174.138-.06.071.077.14.161.224.221.132.094.114.222.107.357-.016.039-.022.102-.056.125-.115.079-.346.013-.48-.116zm.442.589c-.036-.059-.079-.157-.053-.202.075-.133.381-.136.46-.003.026.044-.007.161-.052.2-.047.041-.141.03-.189.038-.075-.014-.15-.006-.166-.033zm.098 5.707c-.017.044-.021.107-.053.128-.092.062-.181.043-.26-.042-.085-.091-.206-.164-.157-.314.012-.037.071-.079.111-.082.149-.011.314.138.359.31zm-.625-2.28c.015-.044.145-.098.183-.077.106.059.197.149.281.239.056.059-.036.218-.123.227-.025.003-.051 0-.077 0-.245.006-.348-.133-.264-.389zm-.164 1.461c.009-.088.156-.172.224-.124.061.043.109.103.167.152.065.055.081.103.004.164-.059.047-.105.111-.165.155-.082.059-.219-.014-.229-.118-.005-.05-.001-.101-.001-.152-.001-.026-.003-.052 0-.077zm-.001 2.006c-.035.018-.069.041-.106.049-.013.003-.034-.032-.052-.049l.102-.056.056.056zm-.205 3.237c.019-.01.048-.002.073-.002l.12.066c-.052.031-.103.084-.155.086-.044.001-.165.08-.142-.066.003-.034.064-.062.104-.084zm-.236-1.479c-.008-.026.071-.079.103-.112.069.029.113.045.154.067.006.003.005.039-.004.051-.058.079-.226.08-.253-.006zm.201-.888c-.15 0-.063-.103-.071-.153-.021-.129.062-.168.211-.166.025.034.086.081.096.137.025.138-.052.182-.236.182zm-.235-2.53c.119.009.177.072.154.234-.037.021-.091.073-.151.08-.118.014-.181-.067-.158-.19.015-.079.057-.132.155-.124zm-.237.787c.107-.141.239-.162.399-.157.096.003.137.047.154.125.01.049.002.102.002.153-.005.181-.037.192-.23.205-.15.01-.23-.068-.321-.158-.063-.063-.059-.096-.004-.168zm-.233.715c.021-.076.185-.113.257-.055.077.063.144.14.219.216-.054.052-.114.099-.161.157-.061.075-.104.056-.163-.004-.087-.089-.193-.167-.152-.314zm-.052 1.338c-.04-.008-.102-.061-.101-.092.002-.07.032-.194.061-.198a.497.497 0 00.325-.17c.025-.027.104-.023.149-.007.092.032.118.177.248.155v.078c-.227.081-.412.286-.682.234zm.47 1.872c-.018-.001-.041.004-.053-.005-.079-.059-.077-.216.004-.26a.06.06 0 01.052.004c.079.06.076.215-.003.261zm-.258.29c.003-.035.054-.066.083-.099.091.149.232.168.387.15 0 .025.007.052-.002.074-.008.021-.029.048-.049.053a.512.512 0 01-.112.022c-.303.026-.32-.052-.307-.2zm.233.682l-.056-.056.056-.102c.018.018.052.039.049.052-.008.038-.032.071-.049.106zm.347.916c-.035.037-.074.069-.106.108-.055.066-.114.086-.158.001-.021-.04-.024-.117.001-.146.043-.049.114-.073.164-.102l.141.085c-.014.019-.027.038-.042.054zm.529-.62c-.288.044-.342-.098-.438-.174-.048-.038-.013-.058.02-.113.114-.194.356-.16.505-.313.096-.099.215.072.311.153s.018.119-.027.167c-.072.075-.138.16-.223.217-.078.053-.177.074-.148.063zm.271 2.386c-.079-.015-.131-.056-.124-.154.009-.119.075-.188.195-.155.056.015.096.084.123.109 0 .162-.07.223-.194.2zm-.015 4.076c-.037-.008-.071-.032-.106-.049l.056-.056.102.056c-.018.017-.039.052-.052.049zm.29-1.868c-.153.173-.165.174-.318 0-.024-.028-.032-.07-.047-.106.044-.016.087-.035.131-.047.023-.006.05-.001.075-.001.025 0 .052-.005.075.001.045.012.088.031.131.047-.015.036-.023.078-.047.106zm-.002-3.942c-.018-.035-.041-.069-.049-.106-.003-.013.032-.034.049-.052l.056.102-.056.056zm.52 4.676c-.028.086-.128.164-.216.209-.048.024-.136-.028-.203-.053-.014-.005-.02-.043-.021-.066-.003-.051-.001-.103-.001-.155 0-.077-.01-.156.003-.231.013-.079.061-.138.157-.119.096.019.236-.06.279.055.04.108.039.251.002.36zm.238-1.023c-.051.052-.041.059.005.115.097.115.081.17-.022.177-.025.002-.051 0-.076 0-.051 0-.104.01-.151-.003-.043-.012-.079-.05-.118-.077.092-.085.19-.164.163-.316-.003-.019.071-.065.114-.074a.195.195 0 01.139.023c.122.091-.021.122-.054.155zm.114-1.529c-.023-.038-.024-.116.001-.149a1.11 1.11 0 01.216-.217c.033-.026.098-.03.143-.019.078.019.126.074.111.164-.004.025-.001.051-.001.095.006.084.017.202-.125.207-.119.005-.262.056-.345-.081zm.327 1.414c.006-.021.044-.052.049-.05.034.022.084.048.09.08.013.071.004.146.004.22-.025 0-.054.009-.071-.001-.1-.06-.102-.153-.072-.249zm-.006.495c.031-.037.075-.069.092-.112.096-.233.298-.097.45-.13.013-.003.034.036.055.059-.001.011.002.042-.006.046-.134.059-.276.096-.391.201-.026.023-.131-.041-.2-.064zm.766.939c-.027.047-.125.076-.19.072-.076-.005-.127-.068-.112-.159.004-.025.001-.051.001-.076 0-.051-.013-.107.005-.151.01-.027.084-.059.101-.047a.534.534 0 01.161.16c.032.058.061.154.034.201zm.175.397c.012-.012.052-.012.066-.001.03.024.051.059.076.09-.018.018-.044.052-.05.049a.327.327 0 01-.093-.072c-.011-.014-.011-.055.001-.066zm-.142-.094c.056-.095.101-.03.137.022.011.016.002.046.002.069h-.07c-.024-.031-.076-.078-.069-.091zm.275 1.512c-.086-.007-.131-.05-.136-.135v-.129c.003-.018.007-.092.03-.158.025-.07.053-.05.107 0 .109.103.188.19.18.256-.018.135-.063.176-.181.166zm.256-.318c-.069.04-.091.004-.079-.075.015-.099.025-.215-.114-.235-.104-.015-.219-.009-.194-.158.011-.067.063-.129.104-.187.029-.042.071-.074.11-.113.035.023.072.045.107.071.108.079.133.193.17.317.048.167.044.293-.104.38zm.192-.818c-.036-.015-.076-.024-.106-.046-.04-.03-.073-.07-.108-.106l-.054-.054.137-.091c.053.027.146.044.168.094.024.051-.022.134-.037.203zm.025-.59c-.032-.034-.111-.087-.103-.112.027-.085.195-.084.253-.005.009.012.01.048.004.051-.041.022-.085.038-.154.066zm.102.936c-.018-.035-.041-.069-.049-.106-.003-.013.032-.034.049-.052l.056.102-.056.056zm1.109 1.579c.051 0 .11-.016.151.005.037.018.08.079.076.115a.374.374 0 01-.08.192c-.022.025-.108.023-.146 0a.717.717 0 01-.164-.157c-.024-.028-.032-.071-.047-.107.045-.016.088-.034.134-.046.024-.007.051-.002.076-.002zm-.794 1.105c-.018-.035-.041-.069-.049-.106-.003-.013.032-.034.049-.052.018.035.041.069.049.106.004.013-.031.034-.049.052zm.003-1.581c-.087-.111-.261-.167-.236-.349.006-.042.048-.08.074-.12.081.116.27.161.236.349-.008.043-.049.08-.074.12zm.204-2.416c-.059.079-.226.08-.253-.005-.008-.026.071-.079.103-.112.069.029.113.045.154.067.006.002.005.038-.004.05zm.195.276c.088-.096.122-.012.169.031.075.069.16.133.141.257-.008.051-.001.105-.001.157 0 .052.011.108-.003.157-.012.042-.052.077-.08.115-.019-.019-.034-.044-.056-.055-.188-.086-.133-.323-.276-.44-.047-.037.017-.127.106-.222zm.387 4.984c-.017-.035-.041-.069-.049-.106-.003-.013.032-.034.049-.052l.056.102-.056.056zm.174-1.6c-.04.065-.108.113-.164.169-.156.158-.165.167-.221.109-.069-.071-.176-.118-.184-.237.014-.048.014-.118.045-.138.102-.066.235-.054.329-.166.066-.079.252-.025.254.052a.419.419 0 01-.059.211zm.098-1.562c-.12.033-.186-.036-.195-.155-.008-.098.045-.14.124-.154.123-.023.194.038.194.201-.026.024-.067.092-.123.108zm.225.771l-.102-.056c.018-.018.039-.052.052-.049.037.008.071.032.106.049l-.056.056zm.473 1.579l-.102-.056c.018-.018.039-.052.052-.049.037.008.071.032.106.049l-.056.056zm-.072-.399c-.003-.013.032-.034.049-.052.018.035.041.069.049.106.003.013-.032.034-.049.052-.017-.035-.04-.069-.049-.106zm.191-.983c-.037.037-.068.093-.112.106a.348.348 0 01-.209.007c-.095-.035-.079-.182-.052-.2.196-.127.098-.23-.001-.35-.023-.028.001-.098.013-.147.005-.022.035-.037.084-.087.1.116.2.232.302.346.103.115.101.2-.025.325zm.174.457c-.018-.035-.041-.069-.049-.106-.003-.013.032-.034.049-.052.018.035.041.069.049.106.003.013-.031.035-.049.052zm.876 2.281c-.051.057-.097.097-.163.012-.046-.06-.113-.104-.158-.164-.056-.075.018-.224.113-.234.05-.005.101-.001.152-.001.025 0 .051-.002.076 0 .09.009.177.149.129.219-.042.062-.099.112-.149.168z"/>
        <g id="g178">
            <g id="g176">
                <g id="g174">
                    <g id="g172">
                        <g id="g170" class="color-white" fill="#fff">
                            <path id="path8" d="M41.071 21.115c-.001.183.113.118.136.145-.041-.309-.166-.137-.136-.145z"/>
                            <path id="polygon10" d="M40.595 18.184l-.183-.416.127.371z"/>
                            <path id="path12" d="M39.922 15.412c-.12.311.286.971.343 1.473l-.024.089.214.183c-.179-.585-.474-1.318-.533-1.745z"/>
                            <path id="path14" d="M39.812 13.849c-.04.117-.176-.285.1.343l-.004-.068-.096-.275z"/>
                            <path id="path16" d="M39.908 14.124c.109.281-.006-.209 0 0z"/>
                            <path id="path18" d="M39.326 12.863l.235.329c.006-.093-.138-.418-.05-.313-.213-.353-.217-.256-.185-.016z"/>
                            <path id="path20" d="M39.031 12.589l.115.171c.002-.04-.015-.092-.115-.171z"/>
                            <path id="path22" d="M39.391 13.124l-.244-.364c-.004.065-.061.098.107.169-.071-.006.018.046.137.195z"/>
                            <path id="path24" d="M39.469 13.358c.062.215.128.493-.081.156.29.689.398.53.081-.156z"/>
                            <path id="path26" d="M39.675 15.341c.015.096.031.191.032.291l.127.222c-.056-.113-.095-.552-.159-.513z"/>
                            <path id="path28" d="M38.238 10.643c-.049.002-.027.174-.059.228l.193.224c-.052-.143-.178-.401-.134-.452z"/>
                            <path id="path30" d="M38.179 10.871l-.288-.333c.194.336.261.378.288.333z"/>
                            <path id="polygon32" d="M39.247 13.197l-.507-.694.061.122z"/>
                            <path id="polygon34" d="M37.52 9.399l-.386-.267.157.125z"/>
                            <path id="path36" d="M36.597 8.387c.187.085-.065-.278.105-.165-.216-.217-.444-.363-.647-.493.192.159.364.362.542.658z"/>
                            <path id="path38" d="M35.725 7.503c.097.077.209.148.33.226a2.114 2.114 0 00-.33-.226z"/>
                            <path id="path40" d="M37.497 9.911c.001-.042.018-.133-.106-.346l.005.208.101.138z"/>
                            <path id="path42" d="M37.397 9.78v-.007l-.216-.3.216.307z"/>
                            <path id="path44" d="M37.523 9.946l-.025-.035c-.001.02.002.03.025.035z"/>
                            <path id="path46" d="M38.376 11.573c-.191-.185-.524-.595-.349-.109.165.113.064-.166.349.109z"/>
                            <path id="path48" d="M37.525 10.201c.084.128.147.269.221.403.022-.025.018-.121.111-.031-.111-.125-.211-.256-.332-.372z"/>
                            <path id="polygon50" d="M37.525 10.201l-.093-.142-.072-.016z"/>
                            <path id="path52" d="M36.177 8.168c-.174-.113-.323-.272-.495-.448.16.211.334.422.508.613.053.002.181.042-.013-.165z"/>
                            <path id="path54" d="M36.785 8.94l-.032-.031c.009.027.019.047.032.031z"/>
                            <path id="polygon56" d="M33.944 6.089l.02-.01-.035-.033z"/>
                            <path id="path58" d="M36.202 8.38a.91.91 0 00.321.29 6.284 6.284 0 01-.334-.337c-.023-.002-.034.003.013.047z"/>
                            <path id="path60" d="M35.214 7.051c.061.086.131.182.198.29-.037-.106-.148-.289-.198-.29z"/>
                            <path id="path62" d="M36.739 8.834l.022.02c-.019-.068-.024-.054-.022-.02z"/>
                            <path id="path64" d="M36.739 8.834c-.075-.071-.146-.117-.215-.164.081.09.157.172.23.238a.27.27 0 01-.015-.074z"/>
                            <path id="path66" d="M32.875 6.209c.086-.06.583.133.815.534.371.225.41-.236.253-.654-.044.032-.06.049-.467-.167.105.125.668.756.323.579-.475-.352-.353-.332-.54-.561.109.255-.726-.29-.742-.048l.453.249c-.012.031-.191-.04-.095.068z"/>
                            <path id="path68" d="M34.579 6.681l.148.116c-.145-.158-.228-.294-.381-.55-.268-.17-.343-.182-.382-.168l.674.633z"/>
                            <path id="path70" d="M35.341 7.372c-.178-.032-.555-.281-.441-.008.395.371.334.203.597.402-.615-.631.22.141-.161-.379.132.114.243.226.346.332a7.293 7.293 0 01-.27-.379l.008.02.003.003-.002.001c.015.039.017.055-.006.017a.248.248 0 00-.014-.012c-.016.008-.038.006-.06.003-.155-.208-.005-.053.06-.003.006-.002.015-.001.02-.005l-.001-.003c-.212-.209-.464-.376-.693-.564.124.143.313.286.614.575z"/>
                            <path id="path72" d="M37.563 11.202c-.005-.029.003-.032.01-.038-.042-.04-.061-.053-.01.038z"/>
                            <path id="path74" d="M37.441 10.86c.047.045.115.064.211.246.061.171-.05.03-.079.059.091.088.299.324.147-.038l-.046-.044c-.146-.32-.256-.791-.21-.748a1.25 1.25 0 00-.023.525z"/>
                            <path id="path76" d="M36.45 9.072c-.154-.189-.34-.349-.517-.517l.168.341.036-.054c.246.332.24.222.313.23z"/>
                            <path id="path78" d="M33.904 5.943l.155-.032c-.141-.055-.303-.085-.452-.126z"/>
                            <path id="polygon80" d="M33.218 5.307l-.245-.099.15.167z"/>
                            <path id="path82" d="M5.386 30.658l.133.157a1.717 1.717 0 00-.133-.157z"/>
                            <path id="path84" d="M4.695 29.362l-.065-.008c.057.048.089.063.065.008z"/>
                            <path id="path86" d="M10.834 4.409c-.326.076-.722.129-.62.213l.151.051c.178-.134.331-.211.469-.264z"/>
                            <path id="path88" d="M2.528 17.501l.05-.081a15.73 15.73 0 01-.063-.225c.005.093-.003.195.013.306z"/>
                            <path id="path90" d="M2.992 17.808l-.137.376a2.47 2.47 0 00.137-.376z"/>
                            <path id="path92" d="M10.895 36.38c.086.013.171.027.263.03-.304-.203-.203-.066-.263-.03z"/>
                            <path id="path94" d="M24.076 1.68a4.874 4.874 0 00-.668-.176c.321.12.568.264.668.176z"/>
                            <path id="path96" d="M3.951 30.789c.088.103.139.139.161.123-.089-.106-.149-.161-.161-.123z"/>
                            <path id="path98" d="M22.617 1.453l.143.036c.201-.005.407-.027.649.016a1.374 1.374 0 00-.792-.052z"/>
                            <path id="path100" d="M36.547 31.572l.047-.048c-.011-.015-.027.01-.047.048z"/>
                            <path id="path102" d="M40.735 23.879c-.006.089-.028.233-.047.368a1.87 1.87 0 00.047-.368z"/>
                            <path id="path104" d="M29.829 3.319c.188.082.035.002 0 0z"/>
                            <path id="path106" d="M30.498 4.178c-.045-.006-.082-.005-.1.018a.137.137 0 01.1-.018z"/>
                            <path id="path108" d="M20.603 2.177h-.017c.059.022.049.018.017 0z"/>
                            <path id="path110" d="M30.082 3.503a2.47 2.47 0 00-.22-.146c.034.027.101.072.22.146z"/>
                            <path id="path112" d="M30.071 3.433l.156.089c.033-.007.018-.028-.156-.089z"/>
                            <path id="path114" d="M29.568 3.201c.107.049.203.102.294.156-.033-.025-.045-.038-.033-.037l-.261-.119z"/>
                            <path id="path116" d="M23.721 39.844l.043.005c.186-.079.102-.058-.043-.005z"/>
                            <path id="polygon118" d="M7.675 8.624l-.022.018.012.003z"/>
                            <path id="path120" d="M7.271 9.213c.082-.315.21-.429.382-.571l-.414-.067z"/>
                            <path id="path122" d="M7.484 33.474l-.239-.425c.525.308.752.651.57.221-.156.097-.501-.218-.784-.582-.284-.364-.568-.728-.743-.643l-.124-.3c.051.074.078.073.129.147-.22-.591-.496-.212-.871-.925-.12-.254-.172-.447-.035-.308l-.403-.481c-.083-.16-.006-.151.081.005-.167-.266-.296-.553-.446-.83l.013.001a5.153 5.153 0 01-.431-.451c-.055-.24.09.093.106.017-.101-.146-.215-.288-.308-.44.01-.235.258.131.414.456.134-.589-.291-.348-.438-1.419l.213.442c.094-.373-.109-.701-.169-1.255-.024.137.057 1.143-.226.647-.026-.16-.092-.358-.261-.626.129-.043.024-.321-.076-.679l.18-.022c-.149-.373-.231-.32-.369-.531-.096-.44.015-.557.12-.684-.078-.71-.145.532-.306-.301-.005-.605-.195-.998-.337-1.709.041-.425.113.065.157-.09l-.162-.362c-.001-.091.044-.064.067-.051-.071-.311-.181-.016-.255-.511-.097-.064-.055-.324.021-.638.085-.315.17-.684.073-.997.059-.148.106.079.178.037l-.174-1.435.206-.568c-.199.409-.273-.164-.327-.682-.088.143-.164.266-.205.351.007-.269.012-.54.058-.804.053-.088.093.005.134.147a21.26 21.26 0 00-.006-.151c.136-.262.2-.093.248.123l-.179.252c.078.215.17.415.279.395a1.02 1.02 0 01-.009-.261c.022.056.043.092.064.073.026-.022-.012-.111-.021-.243l.24-.128-.067-.058.373-.946a6.94 6.94 0 01.007-1.143c.039-.405.085-.875.279-1.432.009.32.194.15.347.234-.294.219-.238.867-.48 1.408.125-.286.18-.193.18-.11l.207-1.055c.121.076.172-.173.354-.394-.349.075.173-.791.285-1.223.095.02.136.158-.113.622.447-.421.011-.843.482-1.244-.065.112-.114.165-.099.232.084-.3.527-.9.506-.707l-.065.11c.422-.748 1.506-2.118 1.392-2.383.029.013.145.267.155.341.121-.554.277-1.108.437-1.688.058.242.756.2.365.804.164-.124.334-.305.599-.644-.124.069-.463.026-.338-.119.549-.19.358-.159.964-.447-.183.107-.228-.288.028-.507-.007.072.227.223.161.329.13-.265.265-.531.428-.771-.13.168.139.23.34.192-.106.002.568-.417.723-.572l-.32.148c.757-.523.498-.894 1.306-1.376-.065.116-.028.488.389.281.084-.268.454-1.149 1.182-1.626l.185.014c.181-.125.359-.258.554-.358-.299.364-1.073 1.339-1.504 1.762.342-.09.137.053.596-.178.202-.001-.192.238-.324.307l1.092-.464c-.063-.075.122-.217.312-.357.197-.122.401-.236.35-.302-.394.192-.747.467-1.11.707-.127-.128.437-.862 1.285-1.098.232-.005-.035.371.006.423.079-.098.718-.395.806-.378l-.306.22c.462-.099.648-.514 1.257-.469.196-.038.627.09.632-.027-.357-.131-.594-.759-.415-.972.075-.011 1.093-.07 1.343.03.355.117-.418.471-.113.572.002-.052.169-.142.24-.174.213.012-.058.171.384.08.046-.201.911-.123.188-.193.433-.11.469-.057.988-.095-.18-.115.435-.444.892-.522-.025.05.08.108.13.135.926-.062 1.417.135 2.273.154.076.047.481.132.298.2.124-.018.243-.063.504-.029.481.241-.582-.063-.223.193.045-.106.687-.05 1.071-.062-.085-.187-.857-.164-1.233-.151.021-.236.704-.384 1.636-.352.73.074.278.215.41.202 1.298.402 1.256-.162 2.285.394.376.298-.08.291-.021.429-.564-.16-.821-.387-1.213-.474l.455.191c-.196.001-.583-.059-.778-.154.332.188 2.185.664 3.065 1.24.186.033.496.125.387.004l-.306-.124c-.224-.243.633.118.279-.116.429.132.979.18 1.476.592l.015.211c.014-.05-.301-.304-.479-.348.266.069.706.701 1.069.656l-.316-.332c.423.169 1.031.275 1.443.681-.111-.293-.113-.064-.33-.466.163.389-1.243-.769-.898-.254-.241-.403-.549-.479-.948-.888-.011.058.123.18-.296-.053a.444.444 0 01-.121.002l-.027-.018.021.018c-.023-.001-.025-.001.008.006a.655.655 0 01.18.183c-.273.013-.95-.317-1.206-.365-.242-.146.132-.009.018-.131a2.617 2.617 0 00-.39-.056c.015-.129-.628-.454.028-.292l-.565-.213c-.31-.186-.762-.391-1.066-.43-.27-.098-.736-.046-.469-.079l-.935-.16-.001-.034c-.446-.144-.936-.14-1.428-.194-.494-.044-.993-.149-1.518-.268-.316.016-.641.038-1.163-.023l-.101-.114c-.402.012-1.219-.062-1.387.05-.225-.121-.727-.16-1.247-.05-.523.093-1.071.222-1.43.251l.001.144c-.483.079-.925.26-1.497.458l.07.112c-.48.198-1.295.317-2.068.61.035-.064.236-.124.385-.148-.518.025-.986.268-1.41.56-.428.286-.853.532-1.282.676a1.237 1.237 0 01-.462.278.28.28 0 00.044-.034l-.079.046-.299.103c.096-.023.185-.047.258-.077-.145.091-.359.24-.559.398l-.167-.057-.048.034c-.243.089-.136.158.034.173-.1.081-.173.18-.228.259-.291-.054-.49.459-.851.438-.034.096-.277.305-.504.522-.21.238-.403.486-.373.62-.027-.018-.092.021.007-.071-.225.167-.452.337-.591.554l-.208-.043c-.102.19-.193.387-.27.596-.324.2-.475.276-.321-.091-.453.805-.44.59-.786 1.289l-.064-.1c-.16.221-.301.658-.472.733-.586.33-1.716 2.462-2.504 3.826.218-.07.098.075-.032.267-.121.196-.267.434-.159.509-.103.057-.22.249-.195-.015-.196.783-.56 1.094-.474 1.7-.098.068-.066-.198-.131-.132 0 .068.001.267-.065.336-.065.068-.033-.132-.034-.265-.195.809.018.943.221 1.051-.214.372-.238.581-.131.901-.094.127-.206.352-.155-.153-.049.277-.379 1.709-.185 1.756-.05.084-.034.395-.017.471-.043.635-.062.691-.076 1.315l.038-.173c.193.248.047.516.097 1.018l-.023-.013c-.082 1.16.063.491.016 1.639l.125-.077c.304.065-.02 1.016.194 1.655l.038-.25c.143.332-.147 1.062-.098 1.437-.004.084-.071-.113-.117-.217.076.982.202.077.42.757-.053.154-.287-.093-.158.376.022.255.75 1.224.852 1.888.004-.161.01-.317.204-.042.249.435.33 1.372.771 1.657.016.065.012.095-.003.107.254.303.74 1.028.965 1.155-.175.565 1.594 1.792 1.296 2.019l.82.868-.053.008c.506.574.806.654 1.063.765.11.14-.011.083-.037.09.753.826.9.842 1.76 1.235l-.004.171c.224.106 1.224 1.082 2.27 1.46-.017.009-.05.023-.138.003.598.184 1.201.627 1.785.904.583.272 1.099.471 1.388.306.263.065.542.069.811.102-.994-.297.21-.173-.179-.36.396.071.973.408.484.309l-.069-.044c-.245.204 1.224.424 1.165.569 2.023.382 4.044.561 5.986.399-.081-.058-.161-.111-.242-.178.223-.016.444-.055.666-.082.18.021.257.124-.222.188.267.077.787-.219.791-.265.946-.06-.325.292-.04.254l.389-.075-.092-.01c.299-.145.318-.192.877-.335.363-.051.211.077.353.049.003.014.052.009.217-.05l.833-.197-.375-.071c.344-.166.771-.199.342-.269.315.059 1.063-.204 1.782-.461.703-.296 1.344-.66 1.526-.691.432-.312.847-.621 1.41-.929-.154.054-.33-.052.149-.317.051.444.923-.428 1.438-.495-.216.049.095-.197.375-.433.279-.238.494-.504.184-.386.361-.286.112.089.431-.081.732-.829 1.84-1.614 2.638-2.743-.027-.047-.223.089-.106-.19l.631-.431c.134-.239-.065-.347.328-.676-.071.037-.177.09-.097-.072.818-1.059 1.428-2.3 1.889-3.587.221-.648.479-1.284.648-1.948.202-.655.434-1.302.623-1.967-.151.351-.123.104-.084-.174-.05.177-.12-.023-.192.003.113-.363.249-.728.343-1.1-.174-.223.05-1.22-.122-1.345l.014.359c-.186-.478-.499.636-.764.54.248.549-.523 1.291-.295 2.174-.082.173-.061-.173-.138-.087.093.233.039.487-.127.937l-.014-.059c-.286 1.305-.604 1.815-1.242 3.153l.17-.045c-.156.283-.223.326-.319.447.022.419.402-.808.46-.414-.218.139-.464.648-.708 1.142-.253.488-.567.924-.763.97-.256.419.206-.042-.051.379l-.138.067.025.166c-.179.271-.385.327-.443.301.054-.058.117-.189.162-.259-.33.276-.676.958-.788 1.055l.323-.346c-.704 1.159-1.958 2.231-2.82 3.216l.114-.019c-.691.735-.674.437-1.509 1.146l.023-.036c-.133.193-.374.363-.634.514.196-.205-.52.148-.254-.109-.86.659-.394.374-.912.922l-.198-.02c-.177.19-.174.243-.662.508.37-.277-.383.008.021-.318-1.103.319-1.498.848-2.094.742-.404.455.986-.191.73-.031.269.002-.338.353-.692.452-.349.138-.714-.173-1.595.067.089-.021.09-.044.178-.066-.351 0-.625.295-1.069.224-.203.207-.542.072-.575.302l.831-.178c-.46.129-.874.455-1.684.451.057-.054.285-.149.441-.206-.238-.036-.436.125-.684.066.048-.204 1.015-.197 1.494-.435-.257-.056-.931.305-.711.028-.16.18-.387.205-.643.225-.259-.002-.548-.019-.852.115l.033-.135c-.096.026-.297.099-.478.105l.319-.189c-.495.17-.963-.061-1.438-.026.999.039.222.183.648.276-1.254.142-.71-.372-2.085-.382.186.003.694.118.396.168-.263-.027-.602-.132-.752-.23-.907-.111.121.157-.276.18-.287-.208-.456-.003-.87-.013l.022-.134c-1.013-.283-.333.225-1.237-.102l.434-.083-.49-.076.137-.124c-.542-.035-.712-.065-1.188-.292.085.133-.141.21-.585.052-.273-.186.212-.06-.417-.269.172-.028.36-.072.587.144.042-.032.166-.03.208-.061-.288-.204-.792-.313-1.017-.393.084.036.184.08.229.117a6.207 6.207 0 01-.951-.202c-.115-.112.011-.097.133-.082-.18-.071-.327-.072-.589-.186.115-.067.15-.177.53-.051l-.867-.281c-.035-.065-.352-.322-.228-.305-.385-.32-1.163-.439-1.67-.883-.04-.003-.107-.028-.229-.1-.476-.413-.873-.793-1.499-1.2l-.178-.429c-.459-.356.254.567-.515-.031-.553-.421-.074-.29-.203-.5-.296-.178-.85-.487-1.154-1.059.172.128.259.267.401.402zm-3.69-6.109c.075.122.253.351.213.475-.201-.094-.174-.237-.213-.475zm-.75-10.86c.017.114-.045.265-.141.432.023-.131.066-.278.141-.432zM27.713 2.567l-.017.001c-.296-.164-.192-.104.017-.001zm.628.293c.072.006.074-.013.054-.041-.058.015-.204-.036-.366-.105.033.05.108.103.312.146zm-2.372 37.487l-.138-.001c.283-.113.21-.058.138.001z"/>
                            <path id="path124" d="M2.939 17.769a.118.118 0 01-.082.046c.014.059.04.065.082-.046z"/>
                            <path id="path126" d="M10.847 36.373l.017.014c.014 0 .024-.002.031-.007z"/>
                            <path id="path128" d="M18.05 2.976a.834.834 0 01-.268-.03c0 .033.065.052.268.03z"/>
                            <path id="path130" d="M31.725 4.284l-.4-.201c.188.106.238.172.32.246.009-.032-.04-.115.08-.045z"/>
                            <path id="path132" d="M34.232 7.24c.058.03.099.088.157.117l.031-.057c-.201-.177-.373-.265-.188-.06z"/>
                            <path id="path134" d="M31.833 4.878c-.037.121.233.206.482.381l-.043-.032c.165-.08-.127-.234-.439-.349z"/>
                            <path id="path136" d="M32.374 5.298c.078.052.157.107.227.166.067-.03-.083-.079-.227-.166z"/>
                            <path id="path138" d="M29.183 3.112c.121.091.142-.093.199-.015.208-.068-.962-.253-.199.015z"/>
                            <path id="polygon140" d="M31.822 5.146l-.206.007.221.166z"/>
                            <path id="path142" d="M29.829 4.054l.416.244c.005-.024.066-.01.139.014-.266-.133-.547-.3-.555-.258z"/>
                            <path id="path144" d="M30.383 4.312c.136.073.259.154.346.176-.073-.04-.226-.137-.346-.176z"/>
                            <path id="polygon146" d="M31.149 4.917l-.283-.184.389.282z"/>
                            <path id="path148" d="M24.952 2.357l-.527-.04c-.061.04.076.09.271.101.131-.014.327-.003.256-.061z"/>
                            <path id="path150" d="M26.393 3.106c-.127-.063-.128-.096-.193-.16l-.06.165z"/>
                            <path id="path152" d="M24.926 2.784c-.061.04-.76.025-.118.112.061-.046.574.013.118-.112z"/>
                            <path id="polygon154" d="M17.305 2.615l-.078-.276-.05.311z"/>
                            <path id="path156" d="M11.213 5.887c.545-.25.026-.222.533-.43.086-.131-.415.17-.322.046-.273.248-.456.312-.211.384z"/>
                            <path id="path158" d="M11.424 5.503l.136-.133a.93.93 0 00-.136.133z"/>
                            <path id="polygon160" d="M41.107 21.986l-.11.262.029.148z"/>
                            <path id="path162" d="M40.853 21.601l.187-.094-.153-.247c.004.092.011.272-.034.341z"/>
                            <path id="path164" d="M3.82 26.246l-.049-.016c-.031.07-.013.157.024.332z"/>
                            <path id="polygon166" d="M5.746 30.899l-.054.231.097-.153z"/>
                            <path id="path168" d="M8.646 34.194c-.13-.117-.294-.244-.406-.381.269.269.3.557.406.381z"/>
                        </g>
                    </g>
                </g>
            </g>
        </g>
    </g>
</svg>
