<svg xmlns="http://www.w3.org/2000/svg" id="Layer_1" width="192" height="192" x="0" y="0" version="1.1" viewBox="0 0 192 192" xml:space="preserve">
    <style id="style2" type="text/css"/>
    <g id="g48" transform="translate(8.067 8.067) scale(4.13609)">
        <g id="g46">
            <g id="g44">
                <circle id="circle6" class="color-orange color-main color-stroke-orange color-stroke-main" fill="#f39100" stroke="#f39100" stroke-miterlimit="10" stroke-width="1.067" cx="21.26" cy="21.26" r="22.677"/>
                <g id="g28">
                    <path id="path8" class="color-white" fill="#fff" d="M12.145 17.676c.104-.015.208-.032.312-.044.141-.016.284-.02.423-.041.234-.036.305-.148.265-.415l-.175.043c-.181.044-.36.102-.543.127a.383.383 0 01-.25-.074c-.18-.132-.26-.505-.161-.76.036.053.068.087.084.128.064.159.19.243.348.268a1.56 1.56 0 001.019-.183c.064-.035.195-.096.101-.18-.069-.06-.255-.089-.31-.041-.101.088-.189.093-.271.035a4.423 4.423 0 01-.468-.384c-.109-.102-.045-.211.033-.299.081-.091.179-.05.239.017.346.388.715.333 1.148.138a5.541 5.541 0 011.82-.472c.161-.014.326.012.489.02.276.013.377-.087.315-.355-.05-.22-.143-.43-.209-.646-.062-.204-.093-.419-.297-.551a1.366 1.366 0 00-.727-.202c-.477-.012-.939.08-1.39.217a1.092 1.092 0 00-.685.575c-.138.281-.064.529.208.682.307.172.614.355.992.207.252-.099.469-.242.586-.489a.75.75 0 00.061-.374c-.02-.196-.126-.263-.322-.265-.114-.001-.227-.015-.369-.025.193-.201.648-.242.874-.11.178.104.261.369.177.624a.842.842 0 01-.172.308c-.442.468-1 .656-1.623.534-.724-.142-.978-.909-.524-1.493.147-.189.334-.327.565-.39.612-.167 1.221-.353 1.862-.381.113-.005.227.01.339-.002.185-.02.25-.124.157-.28-.226-.378-.53-.679-.94-.855a.54.54 0 00-.233-.036c-.144.008-.268.068-.313.218-.042.142.06.221.157.291.108.078.223.146.327.236a.487.487 0 01-.498-.151c-.142-.153-.218-.336-.167-.546.012-.051.076-.098.126-.129.249-.156.515-.165.785-.069.542.192.919.573 1.186 1.068.617 1.146 1.348 2.221 2.089 3.287.305.439.73.776 1.194 1.05.109.065.24.108.365.126a.458.458 0 00.272-.06c.159-.094.168-.182.056-.329a3.918 3.918 0 00-1.061-.972.424.424 0 00-.352-.065c-.204.051-.273-.02-.256-.23.004-.045.01-.09.012-.136.017-.293-.039-.362-.337-.406.149-.301-.124-.508-.182-.768.228.001.833.254.98.421-.094.007-.168.021-.24.015-.129-.01-.149.059-.12.157a.566.566 0 00.089.181c.242.313.546.545.924.666a.54.54 0 00.298.012c.392-.116.462-.375.155-.64a7.322 7.322 0 00-1.64-1.055c-.24-.115-.484-.226-.708-.367-.302-.19-.441-.478-.414-.84.027-.365.435-.64.783-.526.138.045.2.158.146.292-.035.086-.093.163-.146.253-.021-.028-.028-.037-.033-.046-.057-.102-.096-.244-.246-.218-.149.026-.196.167-.213.299-.042.312.1.565.334.738.298.221.664.279 1.031.305.03.002.061-.016.144-.038-.134-.06-.235-.086-.31-.144-.066-.052-.104-.14-.154-.213.072-.028.146-.084.215-.079a.974.974 0 01.629.305.484.484 0 01.12.236c.049.271.265.473.491.439.251-.038.397-.281.35-.57-.014-.085.013-.179-.009-.261a.757.757 0 00-.14-.31c-.1-.113-.244-.186-.353-.292-.053-.052-.116-.166-.094-.205.035-.061.136-.098.215-.116.088-.019.184-.004.276-.004l.013-.056c-.071-.05-.142-.101-.214-.15-.208-.141-.461-.232-.556-.5-.006-.018-.033-.031-.051-.043-.559-.366-1.144-.673-1.817-.773-.195-.029-.383-.024-.582.13.266.132.518.098.774.079-.235.212-.494.38-.821.374-.084-.001-.21-.076-.238-.147-.038-.097-.046-.265.013-.33.191-.209.24-.456.276-.717.023-.163.037-.328.076-.487.062-.258.232-.388.497-.416.088-.009.177-.031.261-.061.295-.105.579.023.657.324.025.097.019.252-.041.309-.063.059-.207.032-.316.043l-.044-.087.27-.133c-.252-.162-.744-.073-.855.108-.024.04-.02.109-.006.158.07.243.229.425.447.534.309.153.634.271.949.413.273.123.548.243.809.39.357.201.675.107.826-.275a.934.934 0 00.015-.682c-.105-.292-.408-.393-.619-.399-.056-.002-.119.078-.17.129-.02.02-.017.064-.024.097-.02.105.027.244-.124.285-.113.031-.352-.141-.412-.287-.054-.133-.016-.243.092-.334.273-.231.827-.249 1.122-.04.074.052.161.087.247.133.134-.474-.243-.824-.657-.627-.108-.103-.061-.199.032-.268.118-.086.248-.156.375-.231.078-.046.169-.075.237-.132.062-.052.101-.131.167-.22.144.308.466.347.697.517.169.125.193.179.12.327-.512-.109-.787.134-.669.633.078-.038.156-.064.22-.109.301-.21.772-.228 1.078-.031.125.08.227.178.173.349-.05.156-.272.338-.405.321-.041-.005-.087-.046-.112-.084-.023-.035-.021-.087-.027-.132-.041-.316-.117-.356-.427-.251a.599.599 0 00-.434.552c-.03.314.032.605.311.799a.426.426 0 00.5-.005c.424-.291.917-.414 1.379-.612.241-.103.471-.247.682-.405.148-.111.285-.296.226-.481-.056-.175-.273-.204-.448-.227-.116-.015-.235-.003-.353-.003l-.039.086.23.16c-.116.078-.242.129-.332.041-.061-.06-.084-.198-.067-.291.061-.319.359-.471.663-.364.089.031.184.053.278.064.25.029.415.148.476.394.049.197.069.402.099.603.034.228.102.432.256.618.06.072.056.247.011.341-.037.076-.188.151-.274.138-.186-.03-.366-.108-.541-.183-.09-.038-.165-.112-.242-.186.258.013.513.053.777-.083a.583.583 0 00-.442-.142c-.484.038-.928.204-1.354.426-.146.076-.287.161-.428.246a.973.973 0 00-.301.279c-.1.141-.274.231-.419.338-.089.066-.185.123-.279.183l.011.062c.095 0 .194-.015.285.005.078.017.17.058.212.119.022.031-.035.145-.084.193-.106.102-.233.181-.345.276-.124.105-.197.231-.146.405.014.049 0 .11-.012.162-.069.288.073.547.328.596.234.045.458-.159.505-.438.014-.083.058-.19.123-.231.189-.118.391-.217.596-.303.08-.034.211-.054.239.078.024.113-.051.186-.163.223-.088.029-.17.074-.28.122.326.117 1.146-.129 1.292-.385.093-.162.149-.348.201-.529a.291.291 0 00-.042-.211c-.045-.071-.119-.155-.191-.166-.054-.008-.127.086-.187.141-.023.021-.033.057-.05.086-.15-.107-.228-.271-.173-.385.072-.149.215-.153.353-.142.451.034.706.434.535.893-.067.18-.212.348-.361.476-.152.13-.344.22-.532.296-.59.239-1.103.604-1.621.96-.12.082-.227.19-.319.304-.134.168-.099.313.079.43a.538.538 0 00.516.066c.355-.133.648-.347.883-.643a.654.654 0 00.099-.177c.043-.113.024-.189-.125-.177a.528.528 0 01-.214-.033c.271-.244.617-.302.957-.438-.034.294-.341.498-.171.799-.322.057-.376.133-.336.465.037.302-.018.35-.324.304a.353.353 0 00-.207.035 3.55 3.55 0 00-1.173 1.068c-.028.04-.026.129-.001.173.079.136.217.199.364.158.172-.047.351-.107.496-.207.494-.339.936-.731 1.269-1.241.384-.589.8-1.157 1.18-1.749.248-.385.462-.793.681-1.196.363-.669.922-1.065 1.668-1.18.15-.023.327.034.471.1.234.107.286.388.117.585a.318.318 0 01-.231.092.74.74 0 01-.318-.121c.099-.012.2-.017.297-.038.13-.029.152-.107.065-.207-.17-.195-.4-.276-.608-.135a9.646 9.646 0 00-.952.761c-.117.102-.067.201.096.2.771-.004 1.482.252 2.19.507.204.074.401.219.552.378a.887.887 0 01.207.947c-.126.355-.413.534-.761.574-.58.067-1.104-.092-1.527-.512a.727.727 0 01-.219-.699.403.403 0 01.311-.324c.245-.069.572-.016.759.158-.147.011-.259.026-.371.027-.2.002-.316.095-.339.293a.591.591 0 00.015.218c.151.537.878.831 1.36.554.073-.042.151-.076.227-.115.332-.171.418-.462.223-.781a1.109 1.109 0 00-.643-.504c-.497-.145-1.003-.257-1.526-.206a1.634 1.634 0 00-.502.14.594.594 0 00-.351.45c-.036.182-.116.355-.175.532a2.713 2.713 0 00-.072.244c-.063.28.029.41.307.371.575-.081 1.116.065 1.653.223.336.099.666.224.99.359a.54.54 0 00.587-.08c.085-.066.162-.148.256-.196.058-.029.164-.038.208-.003.076.059.156.172.061.263a4.254 4.254 0 01-.533.433c-.041.028-.143-.03-.216-.051-.029-.009-.061-.045-.081-.039-.091.03-.179.072-.268.109.059.061.109.142.18.18.261.137.545.188.84.172.225-.012.41-.089.494-.321.007-.02.024-.038.039-.055.006-.007.02-.007.031-.009.122.233-.007.703-.242.775-.14.043-.309.005-.463-.017-.105-.015-.204-.065-.306-.099-.109-.036-.161-.019-.139.116.028.173.122.261.29.278.147.015.294.024.441.04.098.011.195.03.293.045l.039.076c-.045.023-.1.036-.134.071a.751.751 0 00-.159.202c-.088.188-.2.241-.379.133-.184-.11-.351-.25-.535-.362-.187-.114-.305-.07-.349.146-.103.497-.44.702-.903.757a1.466 1.466 0 01-.919-.182c-.419-.238-.648-.813-.496-1.269.051-.153.14-.295.222-.436.021-.036.087-.072.124-.065.035.007.077.067.084.109.024.144.045.284-.055.421-.144.199-.13.415-.007.624.22.375.777.608 1.198.501.346-.087.652-.51.688-.948.052-.639-.279-1.107-.895-1.291-.21-.063-.404-.182-.616-.233-.427-.102-.856-.062-1.279.056-.541.15-1.05.357-1.419.821.232-.005.466-.122.724-.012-.096.151-.223.238-.375.245-.413.019-.736.206-1.011.497-.164.173-.32.354-.487.524-.087.088-.196.154-.287.239a.744.744 0 00-.157.193c-.059.118-.006.197.126.174.433-.076.823-.263 1.07-.629.105-.156.21-.187.354-.175.099.008.195.058.292.089-.055.092-.089.211-.168.271-.133.101-.293.166-.438.244.156.168.381.192.589.052.311-.211.471-.684.354-1.041-.011-.034-.016-.079-.003-.109.073-.167.317-.3.508-.285a.507.507 0 01.444.367c.057.212-.056.37-.268.378-.365.014-.56.235-.527.601.023.258.121.476.314.698-.199.204-.683.237-.93.035.132-.024.24-.037.344-.064.047-.012.117-.051.121-.084a.203.203 0 00-.064-.156c-.186-.148-.793-.128-.956.039-.044.045-.04.149-.037.224.002.036.053.07.084.103.236.256.167.59-.156.714a1.224 1.224 0 01-.899-.006c-.278-.107-.297-.296-.06-.492.17.314.344.398.635.3.151-.051.285-.129.297-.311.008-.124-.141-.286-.301-.335-.415-.127-.802-.07-1.136.211-.38.319-.596.735-.599 1.231-.009 1.447-.003 2.895.002 4.343.001.21.033.419.034.629a.434.434 0 00.204.388c.2.128.41.239.617.356.197.111.402.21.591.335a.704.704 0 01.326.552.183.183 0 00.02.081c.127.208.247.421.386.62.192.276.44.325.781.145l-.547-.257a.564.564 0 01.567.148c.113.105.102.193-.027.274-.269.169-.885.132-1.115-.09-.081-.078-.112-.212-.158-.323-.029-.071-.024-.164-.068-.221a1.339 1.339 0 00-.902-.523c-.075-.01-.156.03-.236.075.374.157.524.472.676.795.085.181.206.348.331.506.042.053.146.057.222.083a19.888 19.888 0 00-.048-.212c.184.036.34.153.315.268-.04.187-.21.2-.353.193a2.01 2.01 0 01-.546-.093c-.196-.067-.249-.198-.224-.404a.613.613 0 00-.362-.618c-.257-.121-.584-.085-.75.086a.399.399 0 00-.092.426c.036.112.089.221.149.323.064.108.159.2.292.113.142-.093.081-.201-.017-.297l.029-.041c.093.05.221.078.268.156.039.064.016.217-.038.276-.158.172-.33.345-.529.463-.143.085-.195.177-.152.309.07.217.049.396-.124.557-.044.041-.039.132-.079.184-.04.052-.107.114-.164.115-.055.001-.126-.058-.164-.11a1.382 1.382 0 01-.191-.333.6.6 0 01-.03-.308c.051-.274.033-.29-.198-.44a1.815 1.815 0 01-.458-.42c-.178-.237-.077-.4.247-.414-.025.032-.057.054-.057.076-.001.072-.016.173.023.207.042.037.155.039.209.008.183-.105.316-.526.243-.718-.077-.202-.351-.327-.62-.282-.391.065-.6.333-.565.729.015.172-.074.28-.215.353a.99.99 0 01-.712.077c-.078-.02-.196-.115-.192-.168.005-.082.092-.167.16-.235.034-.034.102-.035.159-.052l-.11.243a.473.473 0 00.389-.218c.081-.115.15-.241.205-.371.143-.334.298-.654.683-.784l-.006-.051c-.068-.019-.139-.061-.204-.054a1.311 1.311 0 00-.943.542.384.384 0 00-.058.207.424.424 0 01-.254.392 1.196 1.196 0 01-.959.047c-.201-.072-.213-.205-.047-.337a.583.583 0 01.531-.114l-.541.253c.28.174.541.157.711-.071.204-.274.394-.557.497-.897.049-.161.182-.309.308-.431.107-.103.256-.164.391-.235.165-.087.335-.166.504-.247.339-.162.505-.4.526-.806.08-1.584.052-3.168.018-4.751a1.613 1.613 0 00-.574-1.212 1.13 1.13 0 00-1.144-.238.616.616 0 00-.259.179c-.1.113-.086.241.024.35.273.271.692.183.845-.225.066.115.152.199.153.284.001.074-.08.181-.153.216-.327.159-.67.169-1.004.02-.286-.127-.339-.441-.127-.677.203-.227.167-.357-.129-.436-.229-.061-.463-.075-.685.017-.065.027-.139.108-.149.173-.015.106.089.103.169.112.094.011.186.033.294.052-.2.199-.685.18-.934-.024.214-.221.323-.486.319-.794-.004-.314-.179-.493-.495-.51-.256-.014-.379-.198-.279-.432a.49.49 0 01.449-.313c.182-.011.421.133.488.29a.145.145 0 010 .092.97.97 0 00.294 1.015c.213.178.456.169.637-.009-.157-.09-.327-.17-.474-.28-.065-.049-.086-.157-.127-.238.08-.032.157-.074.239-.092a.395.395 0 01.202.009c.059.02.11.07.159.112.177.155.336.336.53.463.162.105.362.154.55.214.048.015.14-.004.163-.04.024-.037-.001-.116-.022-.17a.352.352 0 00-.09-.121c-.241-.231-.495-.449-.723-.692-.309-.33-.647-.575-1.123-.601-.125-.007-.244-.118-.357-.209.259-.144.507-.024.774-.004-.82-.774-1.763-1.096-2.86-.86-.282.061-.555.195-.815.33-.725.378-.795 1.382-.201 1.944a.78.78 0 00.428.179c.426.046.778-.122 1.038-.462a.549.549 0 00.015-.695c-.102-.147-.064-.295-.031-.441.021-.097.094-.098.169-.038.266.214.378.82.204 1.105a.228.228 0 00-.031.078c-.053.313-.262.495-.533.615a1.5 1.5 0 01-1.08.068c-.32-.1-.536-.304-.612-.645-.063-.284-.177-.33-.418-.173-.157.102-.301.224-.461.32-.204.124-.318.074-.41-.146a.537.537 0 00-.113-.156c-.041-.043-.093-.075-.14-.112l.01-.059zm13.216-2.707c.011.046.018.109.042.165.045.108.138.121.182.019a2.57 2.57 0 00.153-.479c.023-.11-.044-.158-.153-.107-.165.075-.208.223-.224.402zm-8.248-.091l.037-.02c-.062-.108-.113-.223-.19-.319-.032-.039-.118-.035-.179-.051-.01.062-.038.128-.027.186.019.104.053.208.098.303.031.065.093.114.141.171.04-.068.082-.135.118-.205.01-.016.002-.042.002-.065z"/>
                    <path id="path10" class="color-white" fill="#fff" d="M19.952 8.509l.471-1.192a745.51 745.51 0 00-1.211-.719l.006-.037h.532c.278 0 .556-.006.834.005.12.005.168-.041.207-.146.127-.349.265-.695.416-1.089.147.378.286.709.404 1.046.053.152.129.205.292.2.43-.013.861-.004 1.345-.004l-1.267.761.481 1.207c-.063-.031-.101-.046-.135-.067-.335-.201-.673-.4-1.004-.608-.096-.06-.164-.057-.259.003-.359.227-.724.444-1.086.664a.195.195 0 00-.026-.024z"/>
                    <path id="path12" class="color-white" fill="#fff" d="M8.23 11.533c.454 0 .908-.005 1.362.003.118.002.166-.038.204-.145.129-.356.271-.708.418-1.09.145.37.287.71.41 1.056.049.139.111.191.265.186a14.79 14.79 0 011.327.022l-1.227.738.482 1.208c-.062-.03-.099-.046-.133-.066-.335-.202-.672-.401-1.004-.609-.093-.058-.161-.064-.258-.003-.359.228-.724.445-1.135.696l.488-1.243-1.215-.724.016-.029z"/>
                    <path id="path14" class="color-white" fill="#fff" d="M7.264 18.326l.469-1.192-1.213-.722.007-.034h.583c.267 0 .534-.004.8.002.101.002.149-.03.184-.127.13-.356.271-.709.421-1.097.038.091.066.154.091.218.118.3.239.6.351.903.033.09.079.119.173.117.386-.009.772-.009 1.157-.013a.496.496 0 01.224.036l-.369.223c-.238.143-.473.292-.717.424-.119.064-.126.127-.077.241.124.286.235.577.351.866.02.051.038.103.074.2l-.653-.393c-.165-.099-.333-.194-.494-.301-.089-.059-.157-.052-.245.004-.36.226-.724.444-1.087.665l-.03-.02z"/>
                    <path id="path16" class="color-white" fill="#fff" d="M34.13 11.568l-1.222.733.469 1.173-.023.027-.32-.194c-.267-.161-.536-.318-.8-.484-.084-.053-.145-.05-.227.002-.365.228-.734.45-1.147.702l.489-1.243-1.217-.724.006-.03h1.145c.376 0 .376 0 .514-.358l.33-.857c.033.066.057.105.073.147.122.311.247.621.36.935.039.108.092.145.209.142.408-.01.817-.007 1.225-.009h.126l.01.038z"/>
                    <path id="path18" class="color-white" fill="#fff" d="M34.03 15.214l.465 1.186h1.488a.36.36 0 01.017.034l-1.217.729.465 1.167-.028.027c-.089-.053-.179-.105-.268-.159-.272-.164-.548-.322-.813-.496-.108-.071-.185-.06-.288.005-.354.225-.715.439-1.116.684l.489-1.243-1.239-.737c.086-.008.131-.015.176-.015.397 0 .795-.005 1.192.005.134.003.201-.033.247-.164.121-.346.259-.685.39-1.027l.04.004z"/>
                    <path id="path20" class="color-white" fill="#fff" d="M27.802 6.881c.147.374.292.711.41 1.058.053.154.129.192.281.188.43-.01.86-.004 1.302.025l-1.218.729.467 1.174-.027.024c-.225-.136-.45-.273-.676-.408-.18-.107-.361-.294-.542-.295-.18-.001-.363.183-.542.29-.229.136-.455.276-.72.438.036-.102.058-.168.083-.232.116-.295.23-.592.352-.884.039-.093.024-.139-.064-.189-.32-.183-.635-.374-.952-.562a.361.361 0 01-.133-.123h.227c.38.001.761-.002 1.141.005.102.002.149-.033.184-.128.133-.36.275-.717.427-1.11z"/>
                    <path id="path22" class="color-white" fill="#fff" d="M13.295 10.05c.135-.341.266-.684.409-1.021.052-.122.039-.186-.083-.254-.356-.199-.704-.412-1.098-.644.089-.009.134-.017.179-.017.408 0 .817-.002 1.225.004.107.002.159-.03.196-.135.129-.357.27-.709.42-1.096.035.082.061.139.084.197.114.29.233.578.336.872.044.126.101.176.241.171.385-.013.771-.007 1.157-.009.055 0 .11 0 .176.033l-1.217.73.467 1.173-.026.024-.413-.248c-.102-.061-.204-.123-.307-.183-.171-.099-.343-.274-.513-.272-.172.002-.342.179-.511.281-.233.14-.464.281-.696.422a.664.664 0 00-.026-.028z"/>
                    <path id="path24" class="color-orange color-main" fill="#f39100" d="M25.361 14.969c.015-.179.058-.327.224-.403.11-.05.177-.002.153.107a2.52 2.52 0 01-.153.479c-.044.102-.137.089-.182-.019-.023-.055-.03-.118-.042-.164z"/>
                    <path id="path26" class="color-orange color-main" fill="#f39100" d="M17.113 14.878c0 .022.008.049-.001.067-.037.07-.078.137-.118.205-.048-.056-.11-.106-.141-.171a1.193 1.193 0 01-.098-.303c-.011-.058.017-.124.027-.186.061.016.147.011.179.051.077.095.128.211.19.319-.013.005-.026.012-.038.018z"/>
                </g>
                <g id="g32">
                    <path id="path30" class="color-white" fill="#fff" d="M17.69 35.096l-.2.079c-.077-.028-.146-.095-.206-.2l-.064-.14-.063-.14h-4.301c-.02.052-.049.111-.085.176a3.281 3.281 0 01-.134.218l-.133.049a.394.394 0 01-.255-.212c0-.255.129-.414.388-.479l.364-.049.358-.049a36.474 36.474 0 01-.267-.355l-.267-.355a2.714 2.714 0 01-.225-.343 2.322 2.322 0 01-.146-.319 2.54 2.54 0 01-.133-.873c0-.744.261-1.365.782-1.862.514-.485 1.147-.728 1.899-.728.76 0 1.405.241 1.935.722.55.49.825 1.113.825 1.869 0 .445-.119.859-.358 1.244-.129.182-.257.36-.383.534-.125.174-.251.352-.376.534l.1-.003c.042-.002.086-.003.13-.003.044 0 .087-.001.127-.003l.097-.003c.186 0 .325.028.419.085.125.077.206.21.242.4zm-3.154-5.236c-.494.133-.856.503-1.086 1.11-.174.449-.261.991-.261 1.626 0 .38.075.74.224 1.08.194.449.455.673.783.673a.49.49 0 00.218-.042l.121-.176V29.86zm1.965.789c-.259-.526-.653-.825-1.183-.898.008.21.015.432.021.667a81.29 81.29 0 01.009 2.153 84.67 84.67 0 00-.006.898v.516c0 .109.041.208.121.297a.374.374 0 00.285.133c.376 0 .661-.291.855-.873.142-.433.212-.888.212-1.365.001-.598-.104-1.108-.314-1.528z"/>
                </g>
                <g id="g36">
                    <path id="path34" class="color-white" fill="#fff" d="M23.272 31.735a.962.962 0 01-.576.212 2.3 2.3 0 01-.576-.109 2.305 2.305 0 00-.582-.109c-.635 0-1.104.22-1.407.661-.263.384-.394.908-.394 1.571 0 .606.099 1.054.297 1.341.234.356.639.534 1.213.534.457 0 .811-.194 1.062-.583.21-.331.315-.738.315-1.219 0-.376-.085-.69-.255-.94-.194-.283-.471-.425-.831-.425a.884.884 0 00-.528.176c-.174.125-.261.283-.261.473 0 .097.047.198.14.303a.661.661 0 00.291.2l.182-.091.176-.413a.604.604 0 01.073.285c0 .473-.02.789-.061.946-.093.36-.289.573-.589.637v-.358l.176-.097.042-.121a5.87 5.87 0 01-.437-.564 1.244 1.244 0 01-.212-.661c0-.283.097-.522.291-.716a.974.974 0 01.716-.291c.538 0 .967.142 1.286.425.344.295.516.706.516 1.231 0 .623-.218 1.13-.656 1.523-.421.372-.946.558-1.577.558-.68 0-1.236-.21-1.668-.631-.425-.424-.637-.979-.637-1.662 0-.587.212-1.071.637-1.456.319-.291.804-.552 1.456-.782-.255-.287-.688-.431-1.298-.431-.255 0-.439.041-.552.121-.105.077-.186.241-.243.491a.378.378 0 00.237.079c.048 0 .143-.03.285-.091l.085.03.049.097a.505.505 0 01-.17.245.411.411 0 01-.267.106.37.37 0 01-.334-.188.73.73 0 01-.103-.388c0-.518.297-.777.892-.777.056 0 .124.003.203.009a1172.308 1172.308 0 01.54.042c.071.006.126.009.167.009l.088-.124c.03-.043.063-.082.097-.118a.448.448 0 01.113-.088.286.286 0 01.139-.033c.162 0 .366.087.613.261l.328.242.328.243c.259.174.483.261.673.261.138 0 .255-.02.352-.061a1.56 1.56 0 00.121-.179 3.93 3.93 0 00.103-.191l-.17-.042-.248.121c-.142-.004-.241-.055-.297-.152a.66.66 0 01.085-.328c.069-.117.16-.176.273-.176.133 0 .263.075.388.225.126.141.188.283.188.424-.001.197-.097.367-.287.513z"/>
                </g>
                <g id="g40">
                    <path id="path38" class="color-white" fill="#fff" d="M29.209 33.994c-.17.141-.271.247-.303.315.008.033.03.083.067.152.036.069.083.154.14.255.109.19.164.295.164.315 0 .02-.02.063-.061.127l-.073.036c-.214-.036-.408-.317-.582-.843-.271-.833-.439-1.313-.504-1.438-.255-.506-.59-.758-1.007-.758a.54.54 0 00-.237.052.651.651 0 00-.194.139.752.752 0 00-.139.207.893.893 0 00-.073.246h-.218v-.576c.113-.129.329-.281.649-.455.352-.19.578-.333.679-.43a.89.89 0 00.322-.692.963.963 0 00-.164-.497c-.121-.194-.257-.291-.407-.291-.598 0-.997.279-1.195.837-.113.315-.17.849-.17 1.602 0 .679.063 1.183.188 1.51.202.534.581.791 1.135.771-.024-.077 0-.156.073-.237l.133-.024.11.115-.018.146a.811.811 0 01-.188.176c-.105.081-.18.121-.224.121-.215 0-.57-.083-1.068-.248-.498-.166-.951-.249-1.359-.249a.38.38 0 01-.039.091.229.229 0 00-.033.103c0 .008.015.037.046.088.03.051.045.094.045.131l-.018.097a.698.698 0 01-.212.133.747.747 0 01-.118-.042c-.047-.02-.1-.044-.161-.073a2.395 2.395 0 00-.079-.176c0-.182.093-.336.279-.461l.255-.146c.085-.049.172-.099.261-.152.186-.125.279-.277.279-.455V31.15c-.275 0-.506-.026-.691-.079-.3-.085-.449-.226-.449-.425 0-.024.028-.089.085-.194l.194-.091.176.079.018.176.025.248a.186.186 0 00.042.012l.091.018a.417.417 0 00.127.024c-.041 0 .04-.018.242-.055.223-.222.416-.406.58-.552.164-.146.298-.257.403-.334.396-.271.809-.406 1.237-.406.352 0 .661.103.928.309.287.226.431.507.431.843 0 .473-.354.827-1.062 1.061l.006.091c.271.134.542.269.813.407.316.162.552.328.71.498.206.226.309.501.309.825a.527.527 0 01-.196.389z"/>
                </g>
                <circle id="circle42" class="color-stroke-white" fill="none" stroke="#fff" stroke-miterlimit="10" stroke-width=".482" cx="21.26" cy="21.26" r="19.134"/>
            </g>
        </g>
    </g>
</svg>
