<svg xmlns="http://www.w3.org/2000/svg" xml:space="preserve" width="192" height="192" viewBox="0 0 192 192">
  <g transform="translate(8.067 8.067)scale(4.13609)">
    <circle class="color-orange color-main color-stroke-orange color-stroke-main" fill="#f39100" stroke="#f39100" stroke-miterlimit="10" stroke-width="1.067" cx="21.26" cy="21.26" r="22.677"/>
    <path class="color-white" fill="#fff" d="M12.145 17.676q.156-.024.312-.044c.141-.016.284-.02.423-.041.234-.036.305-.148.265-.415l-.175.043c-.181.044-.36.102-.543.127a.38.38 0 0 1-.25-.074c-.18-.132-.26-.505-.161-.76.036.053.068.087.084.128.064.159.19.243.348.268a1.56 1.56 0 0 0 1.019-.183c.064-.035.195-.096.101-.18-.069-.06-.255-.089-.31-.041-.101.088-.189.093-.271.035a4.4 4.4 0 0 1-.468-.384c-.109-.102-.045-.211.033-.299.081-.091.179-.05.239.017.346.388.715.333 1.148.138a5.5 5.5 0 0 1 1.82-.472c.161-.014.326.012.489.02.276.013.377-.087.315-.355-.05-.22-.143-.43-.209-.646-.062-.204-.093-.419-.297-.551a1.37 1.37 0 0 0-.727-.202c-.477-.012-.939.08-1.39.217a1.1 1.1 0 0 0-.685.575c-.138.281-.064.529.208.682.307.172.614.355.992.207.252-.099.469-.242.586-.489a.75.75 0 0 0 .061-.374c-.02-.196-.126-.263-.322-.265-.114-.001-.227-.015-.369-.025.193-.201.648-.242.874-.11.178.104.261.369.177.624a.8.8 0 0 1-.172.308c-.442.468-1 .656-1.623.534-.724-.142-.978-.909-.524-1.493.147-.189.334-.327.565-.39.612-.167 1.221-.353 1.862-.381.113-.005.227.01.339-.002.185-.02.25-.124.157-.28-.226-.378-.53-.679-.94-.855a.54.54 0 0 0-.233-.036c-.144.008-.268.068-.313.218-.042.142.06.221.157.291.108.078.223.146.327.236a.49.49 0 0 1-.498-.151c-.142-.153-.218-.336-.167-.546.012-.051.076-.098.126-.129.249-.156.515-.165.785-.069.542.192.919.573 1.186 1.068.617 1.146 1.348 2.221 2.089 3.287.305.439.73.776 1.194 1.05.109.065.24.108.365.126a.46.46 0 0 0 .272-.06c.159-.094.168-.182.056-.329a3.9 3.9 0 0 0-1.061-.972.42.42 0 0 0-.352-.065c-.204.051-.273-.02-.256-.23q.008-.067.012-.136c.017-.293-.039-.362-.337-.406.149-.301-.124-.508-.182-.768.228.001.833.254.98.421-.094.007-.168.021-.24.015-.129-.01-.149.059-.12.157a.6.6 0 0 0 .089.181c.242.313.546.545.924.666a.54.54 0 0 0 .298.012c.392-.116.462-.375.155-.64a7.3 7.3 0 0 0-1.64-1.055c-.24-.115-.484-.226-.708-.367-.302-.19-.441-.478-.414-.84.027-.365.435-.64.783-.526.138.045.2.158.146.292-.035.086-.093.163-.146.253-.021-.028-.028-.037-.033-.046-.057-.102-.096-.244-.246-.218-.149.026-.196.167-.213.299-.042.312.1.565.334.738.298.221.664.279 1.031.305.03.002.061-.016.144-.038-.134-.06-.235-.086-.31-.144-.066-.052-.104-.14-.154-.213.072-.028.146-.084.215-.079a.97.97 0 0 1 .629.305.5.5 0 0 1 .12.236c.049.271.265.473.491.439.251-.038.397-.281.35-.57-.014-.085.013-.179-.009-.261a.8.8 0 0 0-.14-.31c-.1-.113-.244-.186-.353-.292-.053-.052-.116-.166-.094-.205.035-.061.136-.098.215-.116.088-.019.184-.004.276-.004l.013-.056q-.106-.076-.214-.15c-.208-.141-.461-.232-.556-.5-.006-.018-.033-.031-.051-.043-.559-.366-1.144-.673-1.817-.773-.195-.029-.383-.024-.582.13.266.132.518.098.774.079-.235.212-.494.38-.821.374-.084-.001-.21-.076-.238-.147-.038-.097-.046-.265.013-.33.191-.209.24-.456.276-.717.023-.163.037-.328.076-.487.062-.258.232-.388.497-.416q.134-.015.261-.061c.295-.105.579.023.657.324.025.097.019.252-.041.309-.063.059-.207.032-.316.043l-.044-.087.27-.133c-.252-.162-.744-.073-.855.108-.024.04-.02.109-.006.158.07.243.229.425.447.534.309.153.634.271.949.413.273.123.548.243.809.39.357.201.675.107.826-.275a.93.93 0 0 0 .015-.682c-.105-.292-.408-.393-.619-.399-.056-.002-.119.078-.17.129-.02.02-.017.064-.024.097-.02.105.027.244-.124.285-.113.031-.352-.141-.412-.287-.054-.133-.016-.243.092-.334.273-.231.827-.249 1.122-.04.074.052.161.087.247.133.134-.474-.243-.824-.657-.627-.108-.103-.061-.199.032-.268.118-.086.248-.156.375-.231.078-.046.169-.075.237-.132.062-.052.101-.131.167-.22.144.308.466.347.697.517.169.125.193.179.12.327-.512-.109-.787.134-.669.633.078-.038.156-.064.22-.109.301-.21.772-.228 1.078-.031.125.08.227.178.173.349-.05.156-.272.338-.405.321-.041-.005-.087-.046-.112-.084-.023-.035-.021-.087-.027-.132-.041-.316-.117-.356-.427-.251a.6.6 0 0 0-.434.552c-.03.314.032.605.311.799a.43.43 0 0 0 .5-.005c.424-.291.917-.414 1.379-.612.241-.103.471-.247.682-.405.148-.111.285-.296.226-.481-.056-.175-.273-.204-.448-.227-.116-.015-.235-.003-.353-.003l-.039.086.23.16c-.116.078-.242.129-.332.041-.061-.06-.084-.198-.067-.291.061-.319.359-.471.663-.364q.135.047.278.064c.25.029.415.148.476.394.049.197.069.402.099.603.034.228.102.432.256.618.06.072.056.247.011.341-.037.076-.188.151-.274.138-.186-.03-.366-.108-.541-.183-.09-.038-.165-.112-.242-.186.258.013.513.053.777-.083a.58.58 0 0 0-.442-.142c-.484.038-.928.204-1.354.426-.146.076-.287.161-.428.246a1 1 0 0 0-.301.279c-.1.141-.274.231-.419.338-.089.066-.185.123-.279.183l.011.062c.095 0 .194-.015.285.005.078.017.17.058.212.119.022.031-.035.145-.084.193-.106.102-.233.181-.345.276-.124.105-.197.231-.146.405.014.049 0 .11-.012.162-.069.288.073.547.328.596.234.045.458-.159.505-.438.014-.083.058-.19.123-.231.189-.118.391-.217.596-.303.08-.034.211-.054.239.078.024.113-.051.186-.163.223-.088.029-.17.074-.28.122.326.117 1.146-.129 1.292-.385.093-.162.149-.348.201-.529a.3.3 0 0 0-.042-.211c-.045-.071-.119-.155-.191-.166-.054-.008-.127.086-.187.141-.023.021-.033.057-.05.086-.15-.107-.228-.271-.173-.385.072-.149.215-.153.353-.142.451.034.706.434.535.893-.067.18-.212.348-.361.476-.152.13-.344.22-.532.296-.59.239-1.103.604-1.621.96-.12.082-.227.19-.319.304-.134.168-.099.313.079.43a.54.54 0 0 0 .516.066q.532-.2.883-.643a.7.7 0 0 0 .099-.177c.043-.113.024-.189-.125-.177a.5.5 0 0 1-.214-.033c.271-.244.617-.302.957-.438-.034.294-.341.498-.171.799-.322.057-.376.133-.336.465.037.302-.018.35-.324.304a.35.35 0 0 0-.207.035 3.55 3.55 0 0 0-1.173 1.068c-.028.04-.026.129-.001.173.079.136.217.199.364.158.172-.047.351-.107.496-.207.494-.339.936-.731 1.269-1.241.384-.589.8-1.157 1.18-1.749.248-.385.462-.793.681-1.196.363-.669.922-1.065 1.668-1.18.15-.023.327.034.471.1.234.107.286.388.117.585a.32.32 0 0 1-.231.092.74.74 0 0 1-.318-.121c.099-.012.2-.017.297-.038.13-.029.152-.107.065-.207-.17-.195-.4-.276-.608-.135a10 10 0 0 0-.952.761c-.117.102-.067.201.096.2.771-.004 1.482.252 2.19.507.204.074.401.219.552.378a.89.89 0 0 1 .207.947c-.126.355-.413.534-.761.574-.58.067-1.104-.092-1.527-.512a.73.73 0 0 1-.219-.699.4.4 0 0 1 .311-.324c.245-.069.572-.016.759.158-.147.011-.259.026-.371.027-.2.002-.316.095-.339.293a.6.6 0 0 0 .015.218c.151.537.878.831 1.36.554.073-.042.151-.076.227-.115.332-.171.418-.462.223-.781a1.1 1.1 0 0 0-.643-.504c-.497-.145-1.003-.257-1.526-.206a1.6 1.6 0 0 0-.502.14.6.6 0 0 0-.351.45c-.036.182-.116.355-.175.532a3 3 0 0 0-.072.244c-.063.28.029.41.307.371.575-.081 1.116.065 1.653.223.336.099.666.224.99.359a.54.54 0 0 0 .587-.08c.085-.066.162-.148.256-.196.058-.029.164-.038.208-.003.076.059.156.172.061.263a4 4 0 0 1-.533.433c-.041.028-.143-.03-.216-.051-.029-.009-.061-.045-.081-.039-.091.03-.179.072-.268.109.059.061.109.142.18.18.261.137.545.188.84.172.225-.012.41-.089.494-.321.007-.02.024-.038.039-.055.006-.007.02-.007.031-.009.122.233-.007.703-.242.775-.14.043-.309.005-.463-.017-.105-.015-.204-.065-.306-.099-.109-.036-.161-.019-.139.116.028.173.122.261.29.278.147.015.294.024.441.04.098.011.195.03.293.045l.039.076c-.045.023-.1.036-.134.071a.8.8 0 0 0-.159.202c-.088.188-.2.241-.379.133-.184-.11-.351-.25-.535-.362-.187-.114-.305-.07-.349.146-.103.497-.44.702-.903.757a1.47 1.47 0 0 1-.919-.182c-.419-.238-.648-.813-.496-1.269.051-.153.14-.295.222-.436.021-.036.087-.072.124-.065.035.007.077.067.084.109.024.144.045.284-.055.421-.144.199-.13.415-.007.624.22.375.777.608 1.198.501.346-.087.652-.51.688-.948.052-.639-.279-1.107-.895-1.291-.21-.063-.404-.182-.616-.233-.427-.102-.856-.062-1.279.056-.541.15-1.05.357-1.419.821.232-.005.466-.122.724-.012-.096.151-.223.238-.375.245-.413.019-.736.206-1.011.497-.164.173-.32.354-.487.524-.087.088-.196.154-.287.239a.7.7 0 0 0-.157.193c-.059.118-.006.197.126.174.433-.076.823-.263 1.07-.629.105-.156.21-.187.354-.175.099.008.195.058.292.089-.055.092-.089.211-.168.271-.133.101-.293.166-.438.244.156.168.381.192.589.052.311-.211.471-.684.354-1.041-.011-.034-.016-.079-.003-.109.073-.167.317-.3.508-.285a.51.51 0 0 1 .444.367c.057.212-.056.37-.268.378-.365.014-.56.235-.527.601.023.258.121.476.314.698-.199.204-.683.237-.93.035.132-.024.24-.037.344-.064.047-.012.117-.051.121-.084a.2.2 0 0 0-.064-.156c-.186-.148-.793-.128-.956.039-.044.045-.04.149-.037.224.002.036.053.07.084.103.236.256.167.59-.156.714a1.22 1.22 0 0 1-.899-.006c-.278-.107-.297-.296-.06-.492.17.314.344.398.635.3.151-.051.285-.129.297-.311.008-.124-.141-.286-.301-.335-.415-.127-.802-.07-1.136.211-.38.319-.596.735-.599 1.231-.009 1.447-.003 2.895.002 4.343.001.21.033.419.034.629a.43.43 0 0 0 .204.388c.2.128.41.239.617.356.197.111.402.21.591.335a.7.7 0 0 1 .326.552.2.2 0 0 0 .02.081c.127.208.247.421.386.62.192.276.44.325.781.145l-.547-.257a.56.56 0 0 1 .567.148c.113.105.102.193-.027.274-.269.169-.885.132-1.115-.09-.081-.078-.112-.212-.158-.323-.029-.071-.024-.164-.068-.221a1.34 1.34 0 0 0-.902-.523c-.075-.01-.156.03-.236.075.374.157.524.472.676.795.085.181.206.348.331.506.042.053.146.057.222.083l-.048-.212c.184.036.34.153.315.268-.04.187-.21.2-.353.193a2 2 0 0 1-.546-.093c-.196-.067-.249-.198-.224-.404a.61.61 0 0 0-.362-.618c-.257-.121-.584-.085-.75.086a.4.4 0 0 0-.092.426c.036.112.089.221.149.323.064.108.159.2.292.113.142-.093.081-.201-.017-.297l.029-.041c.093.05.221.078.268.156.039.064.016.217-.038.276-.158.172-.33.345-.529.463-.143.085-.195.177-.152.309.07.217.049.396-.124.557-.044.041-.039.132-.079.184s-.107.114-.164.115c-.055.001-.126-.058-.164-.11a1.4 1.4 0 0 1-.191-.333.6.6 0 0 1-.03-.308c.051-.274.033-.29-.198-.44a1.8 1.8 0 0 1-.458-.42c-.178-.237-.077-.4.247-.414-.025.032-.057.054-.057.076-.001.072-.016.173.023.207.042.037.155.039.209.008.183-.105.316-.526.243-.718-.077-.202-.351-.327-.62-.282-.391.065-.6.333-.565.729.015.172-.074.28-.215.353a1 1 0 0 1-.712.077c-.078-.02-.196-.115-.192-.168.005-.082.092-.167.16-.235.034-.034.102-.035.159-.052l-.11.243a.47.47 0 0 0 .389-.218q.122-.174.205-.371c.143-.334.298-.654.683-.784l-.006-.051c-.068-.019-.139-.061-.204-.054a1.31 1.31 0 0 0-.943.542.4.4 0 0 0-.058.207.42.42 0 0 1-.254.392 1.2 1.2 0 0 1-.959.047c-.201-.072-.213-.205-.047-.337a.58.58 0 0 1 .531-.114l-.541.253c.28.174.541.157.711-.071.204-.274.394-.557.497-.897.049-.161.182-.309.308-.431.107-.103.256-.164.391-.235.165-.087.335-.166.504-.247.339-.162.505-.4.526-.806.08-1.584.052-3.168.018-4.751a1.61 1.61 0 0 0-.574-1.212 1.13 1.13 0 0 0-1.144-.238.6.6 0 0 0-.259.179c-.1.113-.086.241.024.35.273.271.692.183.845-.225.066.115.152.199.153.284.001.074-.08.181-.153.216-.327.159-.67.169-1.004.02-.286-.127-.339-.441-.127-.677.203-.227.167-.357-.129-.436-.229-.061-.463-.075-.685.017-.065.027-.139.108-.149.173-.015.106.089.103.169.112.094.011.186.033.294.052-.2.199-.685.18-.934-.024.214-.221.323-.486.319-.794-.004-.314-.179-.493-.495-.51-.256-.014-.379-.198-.279-.432a.49.49 0 0 1 .449-.313c.182-.011.421.133.488.29a.14.14 0 0 1 0 .092.97.97 0 0 0 .294 1.015c.213.178.456.169.637-.009-.157-.09-.327-.17-.474-.28-.065-.049-.086-.157-.127-.238.08-.032.157-.074.239-.092a.4.4 0 0 1 .202.009c.059.02.11.07.159.112.177.155.336.336.53.463.162.105.362.154.55.214.048.015.14-.004.163-.04.024-.037-.001-.116-.022-.17a.4.4 0 0 0-.09-.121c-.241-.231-.495-.449-.723-.692-.309-.33-.647-.575-1.123-.601-.125-.007-.244-.118-.357-.209.259-.144.507-.024.774-.004-.82-.774-1.763-1.096-2.86-.86-.282.061-.555.195-.815.33-.725.378-.795 1.382-.201 1.944a.8.8 0 0 0 .428.179c.426.046.778-.122 1.038-.462a.55.55 0 0 0 .015-.695c-.102-.147-.064-.295-.031-.441.021-.097.094-.098.169-.038.266.214.378.82.204 1.105a.2.2 0 0 0-.031.078c-.053.313-.262.495-.533.615a1.5 1.5 0 0 1-1.08.068c-.32-.1-.536-.304-.612-.645-.063-.284-.177-.33-.418-.173-.157.102-.301.224-.461.32-.204.124-.318.074-.41-.146a.5.5 0 0 0-.113-.156c-.041-.043-.093-.075-.14-.112zm13.216-2.707c.011.046.018.109.042.165.045.108.138.121.182.019a2.6 2.6 0 0 0 .153-.479c.023-.11-.044-.158-.153-.107-.165.075-.208.223-.224.402m-8.248-.091.037-.02c-.062-.108-.113-.223-.19-.319-.032-.039-.118-.035-.179-.051-.01.062-.038.128-.027.186.019.104.053.208.098.303.031.065.093.114.141.171.04-.068.082-.135.118-.205.01-.016.002-.042.002-.065m2.839-6.369.471-1.192-1.211-.719.006-.037h.532c.278 0 .556-.006.834.005.12.005.168-.041.207-.146.127-.349.265-.695.416-1.089.147.378.286.709.404 1.046.053.152.129.205.292.2.43-.013.861-.004 1.345-.004l-1.267.761.481 1.207c-.063-.031-.101-.046-.135-.067-.335-.201-.673-.4-1.004-.608-.096-.06-.164-.057-.259.003-.359.227-.724.444-1.086.664zM8.23 11.533c.454 0 .908-.005 1.362.003.118.002.166-.038.204-.145.129-.356.271-.708.418-1.09.145.37.287.71.41 1.056.049.139.111.191.265.186a15 15 0 0 1 1.327.022l-1.227.738.482 1.208c-.062-.03-.099-.046-.133-.066-.335-.202-.672-.401-1.004-.609-.093-.058-.161-.064-.258-.003-.359.228-.724.445-1.135.696l.488-1.243-1.215-.724zm-.966 6.793.469-1.192-1.213-.722.007-.034h.583c.267 0 .534-.004.8.002.101.002.149-.03.184-.127.13-.356.271-.709.421-1.097.038.091.066.154.091.218.118.3.239.6.351.903.033.09.079.119.173.117.386-.009.772-.009 1.157-.013a.5.5 0 0 1 .224.036l-.369.223c-.238.143-.473.292-.717.424-.119.064-.126.127-.077.241.124.286.235.577.351.866.02.051.038.103.074.2l-.653-.393c-.165-.099-.333-.194-.494-.301-.089-.059-.157-.052-.245.004-.36.226-.724.444-1.087.665zm26.866-6.758-1.222.733.469 1.173-.023.027-.32-.194c-.267-.161-.536-.318-.8-.484-.084-.053-.145-.05-.227.002-.365.228-.734.45-1.147.702l.489-1.243-1.217-.724.006-.03h1.145c.376 0 .376 0 .514-.358l.33-.857c.033.066.057.105.073.147.122.311.247.621.36.935.039.108.092.145.209.142.408-.01.817-.007 1.225-.009h.126zm-.1 3.646.465 1.186h1.488l.017.034-1.217.729.465 1.167-.028.027-.268-.159c-.272-.164-.548-.322-.813-.496-.108-.071-.185-.06-.288.005-.354.225-.715.439-1.116.684l.489-1.243-1.239-.737c.086-.008.131-.015.176-.015.397 0 .795-.005 1.192.005.134.003.201-.033.247-.164.121-.346.259-.685.39-1.027zm-6.228-8.333c.147.374.292.711.41 1.058.053.154.129.192.281.188.43-.01.86-.004 1.302.025l-1.218.729.467 1.174-.027.024q-.337-.205-.676-.408c-.18-.107-.361-.294-.542-.295-.18-.001-.363.183-.542.29-.229.136-.455.276-.72.438.036-.102.058-.168.083-.232.116-.295.23-.592.352-.884.039-.093.024-.139-.064-.189-.32-.183-.635-.374-.952-.562a.36.36 0 0 1-.133-.123h.227c.38.001.761-.002 1.141.005.102.002.149-.033.184-.128.133-.36.275-.717.427-1.11M13.295 10.05c.135-.341.266-.684.409-1.021.052-.122.039-.186-.083-.254-.356-.199-.704-.412-1.098-.644.089-.009.134-.017.179-.017.408 0 .817-.002 1.225.004.107.002.159-.03.196-.135.129-.357.27-.709.42-1.096.035.082.061.139.084.197.114.29.233.578.336.872.044.126.101.176.241.171.385-.013.771-.007 1.157-.009.055 0 .11 0 .176.033l-1.217.73.467 1.173-.026.024-.413-.248-.307-.183c-.171-.099-.343-.274-.513-.272-.172.002-.342.179-.511.281q-.349.21-.696.422z"/>
    <path class="color-orange color-main" fill="#f39100" d="M25.361 14.969c.015-.179.058-.327.224-.403.11-.05.177-.002.153.107a2.5 2.5 0 0 1-.153.479c-.044.102-.137.089-.182-.019-.023-.055-.03-.118-.042-.164m-8.248-.091c0 .022.008.049-.001.067q-.057.104-.118.205c-.048-.056-.11-.106-.141-.171a1.2 1.2 0 0 1-.098-.303c-.011-.058.017-.124.027-.186.061.016.147.011.179.051.077.095.128.211.19.319q-.02.008-.038.018"/>
    <path class="color-white" fill="#fff" d="m17.69 35.096-.2.079q-.116-.042-.206-.2l-.064-.14-.063-.14h-4.301q-.03.078-.085.176a3 3 0 0 1-.134.218l-.133.049a.4.4 0 0 1-.255-.212q0-.382.388-.479l.364-.049.358-.049-.267-.355-.267-.355a3 3 0 0 1-.225-.343 2.3 2.3 0 0 1-.146-.319 2.5 2.5 0 0 1-.133-.873q0-1.116.782-1.862.771-.728 1.899-.728 1.14 0 1.935.722.825.735.825 1.869 0 .667-.358 1.244-.194.273-.383.534-.188.261-.376.534l.1-.003q.063-.003.13-.003t.127-.003l.097-.003q.278 0 .419.085.188.115.242.4zm-3.154-5.236q-.741.2-1.086 1.11-.261.674-.261 1.626 0 .57.224 1.08.291.673.783.673a.5.5 0 0 0 .218-.042l.121-.176zm1.965.789q-.388-.789-1.183-.898.012.315.021.667a81 81 0 0 1 .009 2.153 85 85 0 0 0-.006.898v.516q0 .163.121.297a.37.37 0 0 0 .285.133q.564 0 .855-.873.212-.65.212-1.365.001-.898-.314-1.528m6.771 1.086a.96.96 0 0 1-.576.212 2.3 2.3 0 0 1-.576-.109 2.3 2.3 0 0 0-.582-.109q-.953 0-1.407.661-.394.576-.394 1.571 0 .91.297 1.341.352.534 1.213.534.686 0 1.062-.583.315-.497.315-1.219 0-.564-.255-.94-.291-.425-.831-.425a.9.9 0 0 0-.528.176q-.261.188-.261.473 0 .146.14.303a.66.66 0 0 0 .291.2l.182-.091.176-.413a.6.6 0 0 1 .073.285q0 .71-.061.946-.14.54-.589.637v-.358l.176-.097.042-.121a6 6 0 0 1-.437-.564 1.24 1.24 0 0 1-.212-.661q0-.425.291-.716a.97.97 0 0 1 .716-.291q.807 0 1.286.425.516.443.516 1.231 0 .934-.656 1.523-.631.558-1.577.558-1.02 0-1.668-.631-.637-.637-.637-1.662 0-.88.637-1.456.478-.437 1.456-.782-.383-.43-1.298-.431-.383 0-.552.121-.157.116-.243.491a.38.38 0 0 0 .237.079q.072 0 .285-.091l.085.03.049.097a.5.5 0 0 1-.17.245.4.4 0 0 1-.267.106.37.37 0 0 1-.334-.188.73.73 0 0 1-.103-.388q0-.777.892-.777.084 0 .203.009l.54.042q.106.009.167.009l.088-.124q.046-.064.097-.118a.5.5 0 0 1 .113-.088.3.3 0 0 1 .139-.033q.243 0 .613.261l.328.242.328.243q.388.261.673.261.207 0 .352-.061a2 2 0 0 0 .121-.179 4 4 0 0 0 .103-.191l-.17-.042-.248.121q-.213-.006-.297-.152a.66.66 0 0 1 .085-.328q.103-.176.273-.176.2 0 .388.225.189.212.188.424-.002.295-.287.513m5.937 2.259q-.255.212-.303.315.012.049.067.152.054.104.14.255.164.285.164.315t-.061.127l-.073.036q-.321-.054-.582-.843-.407-1.25-.504-1.438-.382-.759-1.007-.758a.54.54 0 0 0-.237.052.7.7 0 0 0-.194.139.8.8 0 0 0-.139.207 1 1 0 0 0-.073.246h-.218v-.576q.17-.194.649-.455.528-.285.679-.43a.89.89 0 0 0 .322-.692.96.96 0 0 0-.164-.497q-.182-.291-.407-.291-.898 0-1.195.837-.17.473-.17 1.602 0 1.019.188 1.51.303.801 1.135.771-.036-.116.073-.237l.133-.024.11.115-.018.146a.8.8 0 0 1-.188.176q-.158.121-.224.121-.322 0-1.068-.248-.747-.249-1.359-.249a.4.4 0 0 1-.039.091.2.2 0 0 0-.033.103q0 .012.046.088.045.076.045.131l-.018.097a.7.7 0 0 1-.212.133 1 1 0 0 1-.118-.042q-.07-.03-.161-.073a2 2 0 0 0-.079-.176q0-.273.279-.461l.255-.146q.128-.073.261-.152.279-.188.279-.455V31.15q-.413 0-.691-.079-.45-.127-.449-.425 0-.036.085-.194l.194-.091.176.079.018.176.025.248a.2.2 0 0 0 .042.012l.091.018a.4.4 0 0 0 .127.024q-.061 0 .242-.055.334-.333.58-.552t.403-.334q.595-.406 1.237-.406.528 0 .928.309.43.339.431.843 0 .71-1.062 1.061l.006.091q.406.2.813.407.474.243.71.498.309.339.309.825a.53.53 0 0 1-.196.389"/>
    <circle class="color-stroke-white" fill="none" stroke="#fff" stroke-miterlimit="10" stroke-width=".482" cx="21.26" cy="21.26" r="19.134"/>
  </g>
</svg>
