<svg xmlns="http://www.w3.org/2000/svg" xml:space="preserve" width="192" height="192" viewBox="0 0 192 192">
  <g transform="translate(5.999 5.999)scale(4.23336)">
    <circle class="color-violet color-main" fill="#7d388d" cx="21.26" cy="21.26" r="22.677"/>
    <ellipse class="color-white" fill="#fff" cx="21.264" cy="21.245" rx="12.423" ry="12.683"/>
    <g class="color-white" fill="#fff">
      <path d="M3.141 18.438a1.801 1.84 0 0 1-.216-.216q-.112-.145-.102-.225.012-.076.233-.209a.628.642 0 0 1 .704.03q.2.16.31.254.187.172.21.19.443.289 1.278.776.91.524 1.162.559a.683.697 0 0 0 .43-.079q.21-.147.236-.346a.352.36 0 0 0-.127-.345.87.89 0 0 0-.252-.204q.319.045.452.246.13.204.083.562a1.016 1.037 0 0 1-.2.528q-.14.158-.456.114-.17-.025-.635-.3a48.72 49.739 0 0 1-.918-.59 18.195 18.575 0 0 1-.534-.392l-.226.06q-.151.042-.289.092a6 6 0 0 0-.719.253q-.361.156-.38.227a1.062 1.084 0 0 0 .078.54 1.937 1.977 0 0 1-.341-.4q-.2-.277-.184-.378.02-.16.249-.255.19-.085.722-.27.441-.15.628-.241a1.74 1.777 0 0 0-.222-.148.845.863 0 0 0-.33-.115.66.673 0 0 0-.644.282m-.506-2.651q-.08.123-.316.075-.122-.07-.073-.317.069-.13.31-.079.126.083.079.321m2.507 1.223a1.249 1.275 0 0 0-.077.188 3.197 3.263 0 0 0-.05.279 4.757 4.856 0 0 1-.06.271q-.035.127-.077.16l-1.73-.477-.1-.488.544.151a1.635 1.669 0 0 0-.165-.32 1.716 1.752 0 0 1-.184-.369.608.62 0 0 1-.006-.35.968.989 0 0 1 .369-.443.59.603 0 0 1 .51-.089q.194.054.443.37.284.34.431.645.18.36.152.472M3.6 16.458q-.045.174-.004.274a1.03 1.05 0 0 0 .166.244.677.691 0 0 1 .146.204l.909.25a1.2 1.225 0 0 1 .026-.373.836.853 0 0 1 .124-.285q.027-.105-.19-.37-.201-.27-.407-.338a.46.47 0 0 0-.355.039 4.3 4.39 0 0 0-.274.185 11.716 11.961 0 0 1-.14.17zm-.585-3.19q-.078-.19-.065-.235.018-.048.092-.09a.161.165 0 0 1 .11.001q.104.036.164.24.087.252.088.524a2.83 2.89 0 0 1-.116-.117l-.083-.083a1.024 1.045 0 0 1-.065-.067zm2.143 2.114q.06.105.13.235a.55.561 0 0 1 .067.271l-1.626-.77q-.011-.076-.024-.15-.014-.075-.02-.128a1.294 1.32 0 0 1-.018-.163l.699.33a5.857 5.98 0 0 0-.128-.409 2.33 2.378 0 0 1-.158-.546.887.906 0 0 1 .07-.48q.154-.337.633-.393.003-.015-.047-.253a2.708 2.764 0 0 1-.048-.372.855.873 0 0 1 .077-.33.55.561 0 0 1 .258-.284.84.857 0 0 1 .352-.1.64.654 0 0 1 .318.04q.17.082.37.378.201.336.311.643.117.352.098.537a2.326 2.374 0 0 1-.159-.423.958.978 0 0 0-.162-.346.937.957 0 0 0-.303-.212.56.571 0 0 0-.526.03q-.271.159-.348.329-.085.186-.073.262.025.069.134.12l.126.06a.842.86 0 0 1 .238.184q.053.069.268.59.203.482.195.736a2.34 2.39 0 0 1-.166-.445A1.28 1.307 0 0 0 5.543 14a.955.975 0 0 0-.302-.21.56.571 0 0 0-.526.03q-.27.159-.352.337a.59.602 0 0 0-.015.53q.115.296.195.402zm.287-3.992.008-.133.006-.13.012-.17.604.474a2.525 2.578 0 0 0-.027-.44 4.352 4.443 0 0 1-.042-.562.93.949 0 0 1 .184-.443q.207-.278.686-.254a.61.622 0 0 0 .015-.252 2 2 0 0 1 .039-.367.74.755 0 0 1 .14-.3.618.63 0 0 1 .312-.23.975.996 0 0 1 .363-.022q.203.034.306.115.164.127.271.453.13.348.174.69.037.357-.02.545a11.941 12.19 0 0 1-.064-.448.842.86 0 0 0-.078-.367 1.063 1.085 0 0 0-.257-.276.538.549 0 0 0-.517-.078q-.301.086-.412.233-.13.172-.12.245.017.088.1.153l.11.086a.702.716 0 0 1 .192.221q.053.133.135.635.099.54.033.763a2.83 2.89 0 0 1-.074-.45.908.926 0 0 0-.08-.376.9.92 0 0 0-.245-.265q-.218-.172-.516-.077-.303.085-.421.246a.572.584 0 0 0-.116.373.9.9 0 0 0 .044.384q.038.167.058.182L8.59 13.38q.164.127.263.448.105.282.15.667.037.352-.013.453a4.584 4.68 0 0 1-.04-.412 2.343 2.392 0 0 0-.072-.36.735.75 0 0 0-.213-.263zm2.62-5.282q.006-.207.04-.24.032-.036.12-.042a.18.184 0 0 1 .099.05q.078.076.047.288a1.438 1.469 0 0 1-.137.51 1.67 1.705 0 0 1-.057-.156l-.04-.11a.718.733 0 0 1-.033-.09zm2.345-.483q.307-.274.585-.568a1.459 1.49 0 0 1-.177.62 1.226 1.251 0 0 1-.27.392L9.337 7.141q.07-.053.42-.176.315-.096.735-.004.445.08.863.571.55.65.464 1.257a1.728 1.764 0 0 1-.619 1.09q-.964.855-1.752-.072a1.21 1.235 0 0 1-.325-.776q-.02-.423.336-.738a.742.758 0 0 1 .56-.18.7.7 0 0 1 .51.24.618.63 0 0 1 .06.737 1.074 1.097 0 0 0-.228-.536q-.214-.249-.44-.274a.65.664 0 0 0-.433.163q-.18.16-.208.497-.046.337.226.658a1.113 1.137 0 0 0 .791.408 1.043 1.065 0 0 0 .836-.275q.762-.675-.134-1.732-.566-.666-1.134-.76a1.145 1.168 0 0 0-.516.045 1.333 1.36 0 0 0-.471.274q-.342.303-.39.611-.03.315.089.77a1.208 1.233 0 0 1-.283-.677 1.5 1.5 0 0 1 .132-.698q.158-.323.45-.58l.803-.71z"/>
      <path d="M13.353 3.881a9 9 0 0 0 .677-.452 1.49 1.521 0 0 1-.283.578 1.205 1.23 0 0 1-.336.336l-1.38.833q.08-.039.447-.096.323-.035.722.13.422.161.747.72.429.74.235 1.323-.204.598-.8.96-1.101.662-1.712-.393a1.215 1.24 0 0 1-.184-.823q.055-.419.462-.665a.742.758 0 0 1 .584-.075.704.72 0 0 1 .458.33.614.626 0 0 1-.07.736 1.054 1.076 0 0 0-.13-.57q-.165-.285-.383-.35a.653.667 0 0 0-.453.08q-.206.124-.294.45-.108.322.107.69a1.116 1.14 0 0 0 .705.548 1.042 1.063 0 0 0 .87-.118q.869-.523.172-1.727-.438-.758-.98-.957a1.173 1.197 0 0 0-.517-.05 1.338 1.366 0 0 0-.51.183q-.39.235-.49.528a2.114 2.159 0 0 0-.05.773 1.197 1.222 0 0 1-.158-.717q.034-.334.252-.666.215-.285.544-.486l.916-.552zm1.627-1.775q-.056-.14.085-.194a.196.2 0 0 1 .11-.005q.06.004.151.092a.937.957 0 0 1 .404.338l-.05-.006a6.52 6.655 0 0 0-.103-.008 1.838 1.876 0 0 1-.354-.06q-.195-.026-.244-.157zm.506-.32q-.079-.212.054-.264.136-.054.21.143.059.156.08.336a.702.716 0 0 1 0 .297l-.024-.025a.309.315 0 0 1-.03-.038l-.03-.046a1.34 1.369 0 0 1-.26-.404zm.55-.124q.054-.165.137-.2.039-.014.114.02a.138.141 0 0 1 .08.083q.034.087-.078.282a1.7 1.7 0 0 1-.338.401q.004-.066.01-.102l.006-.083a.787.803 0 0 1 .015-.176 1.196 1.221 0 0 1 .054-.225m-.573 3.161a3.904 3.985 0 0 1-.096.25.524.535 0 0 1-.164.224l-.45-1.77.1-.114c.03-.04.06-.07.086-.099a1.173 1.197 0 0 1 .112-.118l.194.76q.028-.03.229-.36.135-.267.313-.472a.884.903 0 0 1 .407-.25q.352-.094.7.247a1.76 1.798 0 0 0 .16-.198 2.5 2.5 0 0 1 .251-.274.853.871 0 0 1 .3-.149.563.575 0 0 1 .379.024.855.873 0 0 1 .3.211.637.65 0 0 1 .171.277q.046.186-.051.53a3.524 3.598 0 0 1-.289.655q-.192.316-.344.417.087-.199.22-.394a.98 1.001 0 0 0 .158-.345 1.017 1.038 0 0 0-.034-.371.56.572 0 0 0-.356-.397q-.293-.113-.47-.065-.194.051-.245.11-.037.06-.006.183l.035.136a.815.832 0 0 1 .013.304q-.02.086-.275.585-.236.468-.434.624a2.4 2.4 0 0 1 .232-.415 1.237 1.262 0 0 0 .146-.325.962.982 0 0 0-.035-.37.555.567 0 0 0-.355-.396q-.293-.113-.478-.064a.586.599 0 0 0-.41.325 1.917 1.957 0 0 0-.182.41zm3.214-2.311.106-.078.101-.078.136-.098.026.777a3 3 0 0 0 .317-.301q.27-.287.396-.392a.95.97 0 0 1 .451-.135q.343-.011.63.38a.688.702 0 0 0 .2-.148q.164-.13.304-.203a.746.762 0 0 1 .314-.079.61.622 0 0 1 .373.098.928.947 0 0 1 .248.274.673.687 0 0 1 .108.314q.007.209-.172.502a3 3 0 0 1-.413.575 1.394 1.423 0 0 1-.424.33 8.736 8.919 0 0 1 .3-.335.874.892 0 0 0 .228-.295 1.063 1.085 0 0 0 .046-.377q-.008-.282-.27-.457-.259-.182-.437-.177-.215.006-.261.061a.247.252 0 0 0-.053.177l.005.141a.687.701 0 0 1-.044.292q-.067.126-.393.51-.346.422-.557.512.073-.11.294-.345a.918.938 0 0 0 .233-.302.921.94 0 0 0 .048-.361.54.55 0 0 0-.271-.457q-.258-.182-.454-.177a.596.608 0 0 0-.356.146.895.914 0 0 0-.263.278q-.104.133-.103.159l.1 3.01q.006.21-.172.494a2.74 2.797 0 0 1-.409.54q-.243.252-.35.277.107-.123.286-.292a2 2 0 0 0 .225-.286.759.774 0 0 0 .064-.336zm5.238 1.123c.038-.14.14-.286.314-.438q.292-.268.561-.423.284-.151.501-.183a6.296 6.427 0 0 1-.383.233 1.279 1.305 0 0 0-.306.215.917.936 0 0 0-.153.347q-.073.26.126.519.189.244.363.293.221.063.27.028.072-.042.102-.154l.037-.133a.695.71 0 0 1 .123-.265q.129-.115.53-.379.456-.284.68-.314a2 2 0 0 1-.387.242.99 1.01 0 0 0-.304.216.996 1.016 0 0 0-.153.339q-.069.259.126.518.19.244.383.299.177.05.395-.018a1.422 1.452 0 0 0 .335-.19.65.664 0 0 0 .145-.132l.157-.59q.016-.056.157-.164a1.295 1.322 0 0 1 .38-.185l-1.048 3.886q-.046.176-.304.41a3.6 3.6 0 0 1-.576.367 1.662 1.697 0 0 1-.452.182 3 3 0 0 1 .337-.216 1.331 1.36 0 0 0 .32-.211.477.487 0 0 0 .166-.275l.806-2.997a2.15 2.194 0 0 0-.391.195 2.993 3.056 0 0 1-.492.244.83.848 0 0 1-.474.004q-.33-.093-.486-.563a1.384 1.413 0 0 0-.227.083 2.855 2.915 0 0 1-.356.1.712.727 0 0 1-.326-.012.607.62 0 0 1-.417-.369.67.683 0 0 1-.079-.509m5.549.875a2 2 0 0 1 .268-.145q.17-.065.242-.029.066.034.124.29a.616.63 0 0 1-.053.447.666.68 0 0 1-.19.229q-.213.144-.332.22a12.074 12.326 0 0 0-.242.147q-.406.343-1.116 1.004-.768.725-.877.96a.695.71 0 0 0-.059.441q.074.249.251.336a.35.35 0 0 0 .362-.018.9.9 0 0 0 .266-.181q-.14.297-.367.362-.23.065-.548-.091a.99 1.01 0 0 1-.43-.358q-.106-.182.032-.477.073-.157.474-.526.145-.132.831-.712.444-.342.531-.398l.012-.24a3.779 3.858 0 0 0 .005-.308 6.239 6.37 0 0 0-.017-.777q-.035-.4-.096-.44a1.044 1.066 0 0 0-.53-.088 2 2 0 0 1 .481-.212q.317-.104.41-.06.143.068.16.32.022.21.03.783.003.48.032.686a1.53 1.563 0 0 0 .205-.17.867.885 0 0 0 .209-.286.657.67 0 0 0-.068-.71zm2.907-.066q.197-.044.237-.02.043.024.07.107a.184.188 0 0 1-.024.111q-.052.097-.261.12a1.476 1.507 0 0 1-.518-.01q.02-.018.134-.095.063-.042.095-.068l.077-.052zm.104 1.646q.166.122.507.29.35.18.43.24a.773.79 0 0 1 .219.23l-1.134 1.6-.402-.175.456-.645a2.071 2.114 0 0 0-.421.054 3.898 3.98 0 0 1-.54.046.779.795 0 0 1-.443-.154.634.647 0 0 1-.163-.243.838.856 0 0 1-.104-.503q-.588.114-.9-.117a.566.578 0 0 1-.249-.485q-.018-.33.096-.494a.786.802 0 0 1 .273-.261 2 2 0 0 1 .262-.108q.09-.001.206-.022.506-.153.738-.115a.926.946 0 0 1 .416.165l.132.123.203.192q.196.205.418.382m-1.026-.593q-.283-.208-.553-.13a.817.834 0 0 0-.462.308.557.568 0 0 0-.085.476q.063.277.158.376l.11.128a.51.52 0 0 0 .282.078q.224-.318.336-.401a1.055 1.077 0 0 1 .438-.152q.162-.03.286-.063l.222-.058zm1.59 1.095a2.011 2.053 0 0 0-.795-.38q-.365-.068-.644.324a.65.664 0 0 0-.095.448.59.59 0 0 0 .251.465.631.644 0 0 0 .266.122.687.701 0 0 0 .3-.025q.21-.042.286-.047l.421-.596a.2.205 0 0 1 .07-.049.303.31 0 0 1 .082-.055l.035-.032.026-.023zm4.237 1.488q.986.003 1.168.254.102.139-.224.485a5.173 5.28 0 0 1-.553.558q-.09.09-.588.524c-.306.243.072-.086-.156.159a8.776 8.96 0 0 0-.755.901 6 6 0 0 1-.239.316q-.227.274-.259.39a.25.256 0 0 0 .041.246.534.545 0 0 0 .205.159l.069.044.05.032.024.01.02.01a.03.03 0 0 0 .022.014l.095.072q-.62.144-.985-.352-.24-.328-.119-.598.119-.25.485-.643.348-.383.446-.618a8 8 0 0 1-.34.025l-.44.026q-.755.06-1.117.01-.453-.032-.602-.24-.143-.194.222-.474a.753.769 0 0 1 .761-.067.474.484 0 0 1-.111.062l-.117.09q-.2.151-.088.307.11.15.454.177.366.022.43.001a5.784 5.905 0 0 1 .594-.037 3.048 3.111 0 0 1 .226-.015c.065-.002.136-.006.205-.01a.623.636 0 0 0 .208-.094l.11-.091.161-.139.258-.23q.147-.132.197-.183c.095-.082-.348.311-.036.026a4.64 4.736 0 0 0 .32-.292q.496-.506.407-.626a.282.288 0 0 0-.115-.087 1.823 1.861 0 0 0-.1-.037.753.769 0 0 1-.083-.034 1.902 1.941 0 0 0-.151-.031m1.408 3.616q.129-.078.2.053a.213.217 0 0 1 .025.11q.006.06-.065.166a.908.926 0 0 1-.259.463l-.001-.051-.01-.107a1.883 1.922 0 0 1-.002-.365q-.007-.197.112-.27zm.394.457q.19-.115.263.01.075.13-.103.236a1.364 1.392 0 0 1-.31.136.725.74 0 0 1-.287.048l.019-.029.032-.037.04-.039a1.268 1.294 0 0 1 .346-.325m.21.533q.171.027.216.103.021.037 0 .12a.138.141 0 0 1-.067.095q-.081.048-.285-.032a1.655 1.69 0 0 1-.445-.274 2.006 2.048 0 0 0 .18-.015.664.678 0 0 1 .172-.014 1.231 1.257 0 0 1 .23.017z"/>
      <path d="M36.015 13.363a1.043 1.065 0 0 0-.067-.19 2.343 2.392 0 0 0-.147-.24 3.43 3.503 0 0 1-.132-.243q-.059-.118-.049-.172l1.597-.83.394.295-.502.262q.079.047.335.124.197.05.377.148a.633.646 0 0 1 .237.257q.094.282.018.58a.592.604 0 0 1-.32.416q-.179.093-.571.029a3.1 3.165 0 0 1-.744-.184q-.376-.15-.426-.252m1.506-.644q-.08-.16-.18-.205a1.135 1.159 0 0 0-.282-.069.612.625 0 0 1-.24-.051l-.84.435a1.138 1.162 0 0 1 .227.296.9.9 0 0 1 .096.295q.047.096.382.146.326.06.527-.029a.465.474 0 0 0 .237-.27 5 5 0 0 0 .08-.326 3.77 3.848 0 0 1-.007-.222m2.535 2.002q.185.087.203.13.02.048-.009.13a.182.185 0 0 1-.083.075q-.1.044-.279-.068a1.485 1.516 0 0 1-.407-.328 3 3 0 0 1 .16.007l.119.006a.813.83 0 0 1 .093.005q.005-.001.203.043m-2.988-.133a5.07 5.176 0 0 1-.249-.087.512.523 0 0 1-.226-.156l1.712-.54.116.096a4.036 4.12 0 0 1 .223.192l-.737.231q.03.027.363.217.266.127.475.298a.889.907 0 0 1 .263.405q.105.354-.211.724.007.014.2.157.148.109.28.243a.85.868 0 0 1 .159.297.56.571 0 0 1-.005.387.836.853 0 0 1-.194.317.631.644 0 0 1-.264.185q-.18.057-.522-.029a3.49 3.562 0 0 1-.653-.262q-.316-.182-.424-.332.2.08.396.207.233.137.345.145a.944.964 0 0 0 .362-.05.563.575 0 0 0 .371-.381q.097-.304.042-.483-.06-.196-.116-.244-.063-.033-.18.002l-.13.042a.82.838 0 0 1-.3.026q-.082-.012-.584-.253-.47-.22-.63-.415.252.105.416.217a1.254 1.28 0 0 0 .327.136.975.996 0 0 0 .361-.051.56.572 0 0 0 .372-.38q.095-.303.039-.491a.586.599 0 0 0-.336-.404 1.926 1.966 0 0 0-.41-.166zm.078 5.485q-.135-.026-.407-.21a2.89 2.95 0 0 1-.454-.435.9.92 0 0 1-.234-.482.624.637 0 0 1 .179-.554q.217-.258.448-.287a1.368 1.397 0 0 1 .423.004 1.07 1.092 0 0 1 .35.169l.265.177q-.03-.235.035-.35.069-.125.322-.16.299-.038.98.333.619.323 1.303.821.646.466.735.602a6.916 7.06 0 0 1-.245-.143l-.23-.14a19.105 19.504 0 0 0-.458-.258l-.289-.155a4.857 4.959 0 0 0-.734-.325q-.326-.134-.54-.105-.436.059-.39.422a.187.19 0 0 0 .02.056.238.243 0 0 0 .028.097.36.368 0 0 1 .02.083 1.26 1.286 0 0 1-.342-.286 1.85 1.889 0 0 0-.367-.361.693.708 0 0 0-.43-.064q-.213.028-.416.284a.718.733 0 0 0-.163.542.604.617 0 0 0 .107.301q.06.086.24.227a1.273 1.3 0 0 1 .244.197m2.169 4.413q.093.081.212.222.109.147.095.228-.013.076-.236.203a.649.662 0 0 1-.706-.047q-.194-.165-.302-.263a6.818 6.961 0 0 0-.207-.195q-.436-.3-1.258-.809-.899-.544-1.15-.586a.7.715 0 0 0-.431.066q-.211.144-.245.342a.355.362 0 0 0 .119.35.943.962 0 0 0 .248.209q-.318-.052-.444-.258-.129-.204-.07-.562a.991 1.012 0 0 1 .213-.523q.143-.154.458-.102.167.028.628.315.166.105.904.611.449.338.527.407l.226-.056q.152-.039.292-.084.406-.106.725-.236.366-.147.385-.218a1.038 1.06 0 0 0-.067-.542q.17.152.334.41.188.282.172.383-.024.16-.255.247a10 10 0 0 1-.726.253 6 6 0 0 0-.634.224 1.5 1.5 0 0 0 .218.154.837.855 0 0 0 .328.123.657.67 0 0 0 .647-.266m.453 2.639q.083-.122.315-.067.123.073.067.318-.072.129-.313.072-.121-.086-.07-.323zm-2.482-1.277a.964.985 0 0 0 .078-.186q.023-.082.05-.278a3.914 3.996 0 0 1 .065-.27q.035-.127.078-.16l1.726.493.096.49-.543-.156q.026.09.164.322.112.175.18.37a.612.625 0 0 1 .003.353.975.996 0 0 1-.371.44.599.611 0 0 1-.511.084q-.194-.055-.442-.375a3.193 3.26 0 0 1-.425-.65q-.18-.364-.148-.477m1.535.569q.047-.172.005-.273a1.01 1.032 0 0 0-.163-.246.647.661 0 0 1-.144-.206l-.908-.26a1.143 1.167 0 0 1-.028.374.84.857 0 0 1-.126.283q-.028.103.186.373.199.27.406.342a.45.45 0 0 0 .352-.036q.051-.026.276-.183zm.499 3.248q.075.193.06.235-.018.048-.094.088a.165.169 0 0 1-.109-.004q-.1-.038-.158-.244a1.457 1.488 0 0 1-.076-.524q.019.016.114.118l.081.085.064.069q0 .007.119.177zm-2.082-2.197q-.057-.104-.124-.237a.53.54 0 0 1-.06-.274l1.609.807.02.15q.012.075.016.13a1.19 1.214 0 0 1 .015.163l-.692-.347q.004.042.12.412.108.278.145.55a.87.888 0 0 1-.08.478q-.161.334-.64.379-.003.018.04.254.034.183.041.372a.87.888 0 0 1-.083.33.553.564 0 0 1-.264.276.845.863 0 0 1-.353.094.627.64 0 0 1-.317-.05q-.169-.085-.36-.384a3.446 3.518 0 0 1-.297-.65q-.11-.355-.087-.538.092.197.15.427a.989 1.01 0 0 0 .154.349q.102.117.298.215a.558.57 0 0 0 .525-.018q.275-.152.356-.322.089-.184.08-.261-.024-.068-.132-.123l-.124-.063a.82.838 0 0 1-.235-.189q-.053-.068-.256-.595-.194-.487-.18-.742.112.251.158.45a1.268 1.294 0 0 0 .146.326.962.982 0 0 0 .298.215.554.566 0 0 0 .526-.018q.275-.153.359-.329a.592.604 0 0 0 .027-.53 1.927 1.968 0 0 0-.187-.406zm-.381 3.999q-.005.075-.012.134l-.008.13-.014.17-.593-.488a2.682 2.738 0 0 0 .018.44q.035.398.03.564a.958.978 0 0 1-.194.438q-.214.273-.693.238a.623.636 0 0 0-.021.252q-.01.21-.048.366a.744.76 0 0 1-.146.296.608.62 0 0 1-.315.224.986 1.007 0 0 1-.366.014.699.714 0 0 1-.302-.122q-.16-.132-.26-.46a3.065 3.13 0 0 1-.159-.695 1.45 1.481 0 0 1 .031-.544q.02.114.055.449a.878.896 0 0 0 .069.37q.085.144.25.281a.538.549 0 0 0 .515.089q.305-.08.417-.221.134-.17.126-.244a.248.253 0 0 0-.097-.156l-.107-.087a.708.723 0 0 1-.187-.226 4.15 4.237 0 0 1-.122-.637q-.086-.543-.015-.763.036.126.062.452a.94.96 0 0 0 .073.377.947.967 0 0 0 .239.273q.214.175.516.088.303-.078.428-.235a.582.595 0 0 0 .124-.37.894.913 0 0 0-.035-.385q-.035-.165-.055-.181l-2.3-1.888q-.16-.131-.254-.454a2.602 2.656 0 0 1-.134-.67q-.03-.353.023-.452.02.165.029.414.013.153.063.36a.752.767 0 0 0 .208.267zm-2.732 5.217q-.014.206-.045.24-.036.036-.123.04a.179.183 0 0 1-.097-.052q-.077-.079-.041-.29.03-.265.149-.508.012.023.053.157a1.276 1.303 0 0 0 .039.112l.028.09zm-2.355.427a8.56 8.74 0 0 0-.598.556q.043-.375.19-.615a1.219 1.245 0 0 1 .279-.386l1.235-1.044q-.073.052-.425.166-.315.09-.733-.013-.444-.09-.85-.591-.537-.66-.437-1.268.109-.626.644-1.076.982-.832 1.748.112a1.205 1.23 0 0 1 .31.781q.009.424-.354.73a.737.752 0 0 1-.565.168.702.716 0 0 1-.504-.25.619.632 0 0 1-.142-.398.638.651 0 0 1 .096-.343 1.092 1.115 0 0 0 .217.544q.205.253.433.285a.65.664 0 0 0 .435-.154q.184-.154.22-.492.056-.334-.212-.664a1.108 1.131 0 0 0-.782-.426 1.043 1.065 0 0 0-.84.256q-.778.657.096 1.733.55.677 1.117.787a1.151 1.175 0 0 0 .517-.034 1.34 1.368 0 0 0 .477-.264q.349-.294.402-.601.04-.316-.071-.772a1.21 1.236 0 0 1 .268.685 1.5 1.5 0 0 1-.148.695 1.873 1.912 0 0 1-.462.57l-.818.693z"/>
      <path d="M28.792 38.789a8.745 8.927 0 0 0-.686.437q.108-.362.295-.572a1.205 1.23 0 0 1 .343-.327l1.398-.8a2.221 2.268 0 0 1-.447.083 1.482 1.513 0 0 1-.72-.148q-.42-.17-.731-.737-.411-.748-.206-1.327.218-.595.822-.942 1.114-.636 1.701.433a1.207 1.232 0 0 1 .166.826q-.062.418-.476.655a.74.755 0 0 1-.585.06.702.716 0 0 1-.451-.34.64.64 0 0 1-.069-.414.605.618 0 0 1 .156-.32 1.086 1.109 0 0 0 .118.574q.157.287.375.36a.656.67 0 0 0 .456-.07q.207-.119.304-.445.11-.319-.092-.69a1.12 1.144 0 0 0-.694-.565 1.039 1.06 0 0 0-.87.097q-.882.504-.212 1.723.422.768.96.979a1.178 1.203 0 0 0 .516.063q.263-.03.515-.171.394-.227.502-.519.093-.303.067-.771.184.374.142.721a1.5 1.5 0 0 1-.267.657 1.842 1.88 0 0 1-.557.475l-.926.53zm-2.736 2.155q-.057.166-.14.195-.038.014-.114-.022a.129.131 0 0 1-.077-.086q-.032-.088.084-.279a1.76 1.798 0 0 1 .346-.394l-.01.102-.009.083a.763.779 0 0 1-.019.176 1.131 1.155 0 0 1-.06.225zm.554-.11q.075.214-.06.262-.138.051-.205-.148a1.354 1.383 0 0 1-.072-.336.708.723 0 0 1 .007-.297l.024.025a.557.568 0 0 1 .057.086 1.3 1.327 0 0 1 .25.408zm.515-.309q.05.141-.09.191a.192.196 0 0 1-.108.004q-.06-.006-.149-.095a.948.968 0 0 1-.208-.131.79.806 0 0 1-.187-.216.5.51 0 0 1 .05.007l.103.01q.128.008.352.067.19.03.237.163m-.427-2.728q.044-.11.102-.247a.542.553 0 0 1 .17-.222l.41 1.78-.1.112-.089.095a1.143 1.167 0 0 1-.115.115l-.176-.764a4.906 5.008 0 0 0-.235.353q-.142.263-.324.465a.861.88 0 0 1-.413.24q-.356.084-.692-.265-.017.009-.167.194a2.616 2.67 0 0 1-.257.268.88.899 0 0 1-.302.143.56.571 0 0 1-.377-.032.857.875 0 0 1-.295-.219.61.622 0 0 1-.164-.28q-.044-.188.064-.529a3.59 3.664 0 0 1 .302-.647q.201-.31.353-.41a2.4 2.4 0 0 1-.227.39 1.025 1.047 0 0 0-.168.342 1.002 1.023 0 0 0 .025.372.558.57 0 0 0 .348.404q.291.12.468.076.196-.047.249-.104.036-.06.008-.182l-.031-.137a.838.856 0 0 1-.006-.306q.02-.084.288-.578.247-.463.448-.612-.119.248-.241.41a1.246 1.272 0 0 0-.153.321.941.961 0 0 0 .024.372.56.572 0 0 0 .348.404q.29.119.477.073a.58.592 0 0 0 .417-.315q.157-.275.19-.405zm-3.271 2.236-.107.076a6.93 7.074 0 0 0-.104.076l-.137.096-.008-.779a3 3 0 0 0-.324.295 4.838 4.94 0 0 1-.406.38.947.967 0 0 1-.455.124q-.343.004-.62-.395a.653.667 0 0 0-.204.144 1.953 1.994 0 0 1-.307.196.737.752 0 0 1-.318.072.614.626 0 0 1-.37-.107.958.978 0 0 1-.241-.279.658.672 0 0 1-.1-.315q-.001-.21.184-.498.19-.319.425-.564a1.395 1.424 0 0 1 .434-.32 10.904 11.131 0 0 1-.307.328.887.906 0 0 0-.235.288 1.019 1.04 0 0 0-.054.377.54.55 0 0 0 .258.464q.255.188.434.188.213-.003.264-.054a.244.249 0 0 0 .057-.176l-.003-.141a.8.8 0 0 1 .051-.292q.071-.125.405-.5.357-.415.57-.498a2.892 2.952 0 0 1-.303.337.948.968 0 0 0-.24.298.905.924 0 0 0-.054.36.536.548 0 0 0 .26.462q.253.191.45.188a.582.595 0 0 0 .359-.135.921.94 0 0 0 .27-.273.565.577 0 0 0 .103-.159l-.033-3.013q-.001-.208.182-.49.152-.258.422-.529.248-.246.358-.27a4.556 4.652 0 0 1-.296.287 2.3 2.3 0 0 0-.231.28.761.777 0 0 0-.072.334zm-5.247-1.228q-.064.207-.329.427a3.278 3.346 0 0 1-.576.401 1.612 1.646 0 0 1-.508.164q.12-.078.393-.219a1.254 1.28 0 0 0 .313-.205.928.947 0 0 0 .167-.34q.078-.257-.106-.522-.181-.252-.354-.307-.217-.07-.27-.038-.072.04-.106.15l-.04.13a.688.702 0 0 1-.135.261 5 5 0 0 1-.544.358q-.465.266-.691.288.197-.143.394-.227a1.019 1.04 0 0 0 .313-.203.993 1.014 0 0 0 .164-.334q.079-.257-.106-.522a.787.803 0 0 0-.372-.313.704.72 0 0 0-.397.002 1.428 1.457 0 0 0-.339.178q-.143.103-.149.127l-.18.582q-.018.057-.162.16a1.268 1.294 0 0 1-.388.17l1.187-3.843q.053-.174.32-.4.303-.216.589-.343a1.7 1.7 0 0 1 .459-.166 2.697 2.753 0 0 1-.344.203 1.4 1.4 0 0 0-.33.2.478.488 0 0 0-.174.27l-.916 2.963q.094-.019.398-.18.327-.173.5-.224a.832.849 0 0 1 .474.014q.327.106.466.58a1.273 1.3 0 0 0 .23-.074 2.899 2.96 0 0 1 .36-.085.748.763 0 0 1 .326.024.603.615 0 0 1 .403.386q.134.277.06.507m-5.473-1.012a1.856 1.894 0 0 1-.271.138q-.172.061-.241.025-.067-.034-.118-.292a.637.65 0 0 1 .259-.67q.213-.138.335-.215.223-.124.244-.142a33 33 0 0 0 1.138-.978q.782-.706.897-.939a.74.74 0 0 0 .067-.44q-.068-.25-.243-.34a.354.36 0 0 0-.36.009.962.982 0 0 0-.272.175q.147-.293.376-.354.23-.06.547.104a.994 1.015 0 0 1 .422.367q.101.186-.043.475-.078.157-.485.516a39.55 40.377 0 0 1-.846.693q-.452.331-.54.387l-.017.238a3.286 3.355 0 0 0-.01.308 5.911 6.034 0 0 0 0 .776q.025.401.087.442a1.052 1.074 0 0 0 .527.101 1.92 1.96 0 0 1-.484.2q-.319.096-.41.05-.142-.072-.154-.323a9.116 9.306 0 0 1-.014-.784 5.81 5.932 0 0 0-.018-.684 1.77 1.807 0 0 0-.208.164.825.842 0 0 0-.214.282.654.668 0 0 0 .049.711m-2.93-.013q-.197.038-.238.014-.042-.027-.068-.11a.187.19 0 0 1 .024-.11q.057-.096.266-.112a1.476 1.507 0 0 1 .517.021 1.35 1.377 0 0 1-.135.093 1.829 1.867 0 0 0-.097.066q-.033.023-.08.051zm-.061-1.646a3.53 3.604 0 0 0-.501-.303 4 4 0 0 1-.426-.25.775.791 0 0 1-.212-.234l1.169-1.572.398.185-.47.633q.083.013.421-.043a4 4 0 0 1 .54-.033.75.75 0 0 1 .44.165.615.628 0 0 1 .158.246.83.848 0 0 1 .092.505q.59-.102.895.138a.58.58 0 0 1 .239.49q.012.332-.107.492a.787.803 0 0 1-.28.255 1.799 1.836 0 0 1-.265.101q-.09 0-.207.017-.509.14-.74.097a.895.914 0 0 1-.411-.174 34.584 35.307 0 0 1-.129-.128l-.198-.196a4.543 4.638 0 0 0-.406-.391m-.553-.515q.415.32.786.398.364.08.651-.31a.637.65 0 0 0 .105-.443.573.585 0 0 0-.239-.47.64.653 0 0 0-.262-.129.684.698 0 0 0-.302.018 3.965 4.047 0 0 1-.288.04l-.436.585a.167.17 0 0 1-.072.047.305.311 0 0 1-.082.054l-.037.03-.024.024zm1.566 1.133q.277.214.551.144a.818.835 0 0 0 .466-.3.554.566 0 0 0 .096-.472q-.054-.281-.15-.379l-.107-.131a.519.53 0 0 0-.28-.083 2.02 2.062 0 0 1-.344.392 1.043 1.065 0 0 1-.44.141 4 4 0 0 0-.289.056l-.225.052zm-6.054-2.615q-.986-.027-1.164-.282c-.066-.096-.003-.273.236-.481.005-.005.444-.336.783-.617a7 7 0 0 0 .818-.715q.31-.293.776-.884a8 8 0 0 1 .246-.31q.235-.27.267-.382a.255.26 0 0 0-.034-.25.542.553 0 0 0-.201-.163 1.31 1.337 0 0 0-.068-.045l-.049-.033-.026-.01-.019-.01q-.009-.014-.021-.015a1.417 1.446 0 0 0-.094-.075q.625-.127.977.377.232.332.104.6-.125.248-.5.63-.356.375-.46.607a37.83 38.621 0 0 1 .779-.032q.758-.041 1.117.018.451.045.597.253.14.2-.234.47a.764.78 0 0 1-.36.13.702.716 0 0 1-.401-.081.444.454 0 0 1 .112-.06l.12-.087q.205-.147.096-.305-.106-.153-.449-.188-.367-.033-.43-.013-.365.03-.596.024a3.6 3.675 0 0 1-.227.01l-.204.005a.616.63 0 0 0-.21.09 2.487 2.539 0 0 1-.114.087l-.164.134a34.937 35.668 0 0 0-.466.401 66.726 68.12 0 0 0-.945.819c.005-.004-.096.1-.038.181a.27.277 0 0 0 .114.09l.099.037a.978.998 0 0 1 .08.036 1 1 0 0 0 .153.039m-1.62-4.749q-.171-.03-.213-.107-.02-.037.003-.12a.135.138 0 0 1 .069-.092q.08-.046.284.039a1.7 1.7 0 0 1 .439.282l-.1.007a6.18 6.31 0 0 1-.08.004.656.67 0 0 1-.173.01 1.182 1.207 0 0 1-.23-.023zm.199.538q-.195.11-.264-.016-.073-.13.108-.233.143-.08.313-.128a.71.725 0 0 1 .288-.042l-.021.028a.223.228 0 0 1-.033.037l-.04.038a1.27 1.296 0 0 1-.351.316m.384.466q-.127.074-.199-.056a.203.207 0 0 1-.021-.11q-.006-.061.067-.166a.853.871 0 0 1 .091-.23.798.814 0 0 1 .175-.226l.003.051a2.169 2.214 0 0 1 .002.47q.002.2-.118.267"/>
      <path d="M6.345 28.788a1.078 1.1 0 0 0 .063.191q.037.077.143.243.062.113.125.248.057.12.044.173l-1.615.792-.387-.301.51-.25a1.617 1.651 0 0 0-.333-.13 1.564 1.597 0 0 1-.375-.158.616.63 0 0 1-.23-.262.98 1.001 0 0 1-.004-.58.593.606 0 0 1 .329-.408q.181-.09.572-.015.432.068.74.2.369.152.418.257m-1.521.609q.078.162.173.208a1.097 1.12 0 0 0 .282.075.664.678 0 0 1 .24.057l.85-.416a1.128 1.152 0 0 1-.22-.3.852.87 0 0 1-.09-.298q-.045-.095-.38-.155-.325-.068-.526.017a.46.47 0 0 0-.243.265 5 5 0 0 0-.09.324q.007.108.004.223m-2.493-2.059q-.18-.092-.199-.134-.018-.048.012-.13a.157.16 0 0 1 .084-.07q.1-.043.278.072.228.131.4.336a1.486 1.517 0 0 1-.162-.01l-.116-.008a1.464 1.495 0 0 1-.094-.008 7.313 7.466 0 0 0-.203-.048m2.982.197q.112.04.247.093a.542.553 0 0 1 .224.162l-1.724.499-.114-.098-.098-.084a1.26 1.286 0 0 1-.119-.112l.741-.215a5.49 5.604 0 0 0-.358-.225 2.3 2.348 0 0 1-.468-.309.868.886 0 0 1-.253-.41q-.1-.356.227-.72a2.104 2.147 0 0 0-.198-.16 2.587 2.641 0 0 1-.273-.249.898.917 0 0 1-.155-.301.565.577 0 0 1 .015-.387.822.84 0 0 1 .2-.311.601.614 0 0 1 .268-.18q.182-.053.521.04.369.12.647.278.314.19.418.341a2.499 2.551 0 0 1-.39-.215.966.986 0 0 0-.343-.154.978.998 0 0 0-.363.043.557.568 0 0 0-.38.372q-.103.3-.054.481.056.198.114.248.062.034.179.001l.133-.039a.84.857 0 0 1 .299-.019q.084.016.578.268.465.229.62.429a2.328 2.377 0 0 1-.411-.227 1.233 1.258 0 0 0-.322-.144.971.991 0 0 0-.362.043.555.567 0 0 0-.38.372q-.104.3-.052.49a.593.606 0 0 0 .328.412q.275.146.405.175zm.047-5.488q.133.027.4.219.267.22.444.445a.897.915 0 0 1 .223.488.626.639 0 0 1-.19.549q-.222.252-.456.278a1.386 1.415 0 0 1-.422-.014 1.145 1.168 0 0 1-.347-.177l-.259-.182q.024.234-.045.348-.07.125-.325.15-.3.033-.97-.352a10.213 10.426 0 0 1-1.286-.853q-.636-.48-.72-.618.07.039.239.148l.228.144a3.115 3.18 0 0 0 .197.121l.255.147.284.163q.365.21.726.342a1.122 1.145 0 0 0 .538.117q.438-.048.398-.413a.164.167 0 0 0-.019-.058.209.213 0 0 0-.025-.096.302.308 0 0 1-.018-.084 1.327 1.355 0 0 1 .335.294q.222.279.357.37a.7.7 0 0 0 .428.074q.212-.022.423-.274a.725.74 0 0 0 .174-.539.61.622 0 0 0-.098-.303 1.252 1.278 0 0 0-.235-.232 1.395 1.424 0 0 1-.234-.202"/>
    </g>
    <path class="color-violet color-main color-stroke-violet color-stroke-main" fill="#7d388d" stroke="#7d388d" stroke-miterlimit="10" stroke-width=".097" d="M24.231 19.799c-.057.262-.11.514-.168.765-.081.355-.245.678-.399 1.004a7 7 0 0 1-.786 1.326c-.172.223-.164.413-.082.66.166.5.192 1.014.072 1.533-.039.166-.057.337-.091.505-.084.418-.245.81-.45 1.18-.148.268-.327.518-.498.772-.085.126-.189.24-.276.365-.022.032-.024.088-.017.13.044.273.125.544.133.818.009.308-.059.615-.217.89-.107.186-.297.19-.396.002a2.1 2.1 0 0 1-.2-.63c-.06-.33.017-.638.076-.953.008-.042.033-.082.038-.125.006-.041.011-.091-.008-.124a1.4 1.4 0 0 0-.175-.252c-.395-.433-.663-.943-.881-1.479a4.6 4.6 0 0 1-.261-1.035c-.044-.293-.092-.582-.073-.881.02-.304.077-.6.188-.883a.34.34 0 0 0-.037-.347c-.144-.211-.299-.417-.422-.64a27 27 0 0 1-.662-1.282 3.7 3.7 0 0 1-.328-1.175c-.006-.046-.001-.093-.001-.177-.049.049-.072.075-.099.098-.095.083-.185.175-.289.245-.111.075-.228.041-.322-.044-.106-.095-.197-.214-.156-.363.038-.137.127-.262.288-.26.095.001.188.056.303.094.002-.003.024-.027.034-.055.101-.306.146-.616.084-.938-.05-.257-.079-.52-.147-.772-.073-.269-.186-.526-.271-.792-.114-.355-.31-.667-.507-.978-.14-.221-.304-.428-.456-.642a.48.48 0 0 1-.092-.401c.039-.157.164-.233.324-.202.164.032.33.07.487.128.369.137.744.266 1.097.438.352.172.681.39 1.018.592q.182.111.357.233c.074.051.105-.004.142-.049.129-.159.25-.324.386-.476.15-.168.31-.328.47-.487.092-.091.115-.182.057-.301a2.2 2.2 0 0 1-.207-1.118c.015-.225.098-.45.306-.595.094-.065.181-.066.273-.001.21.148.293.376.306.607.022.396-.036.787-.228 1.146-.041.076.01.188.088.269.241.253.475.512.71.772.053.059.096.128.142.194.047.066.09.073.162.022.459-.325.93-.635 1.448-.855.439-.186.895-.335 1.345-.495a.6.6 0 0 1 .227-.023c.192.017.273.159.243.349-.025.162-.11.286-.205.405q-.42.525-.716 1.125a5.4 5.4 0 0 0-.298.781 7 7 0 0 0-.216.835c-.044.239-.046.485-.063.728-.011.163.033.316.084.469.041.125.057.135.172.074q.278-.147.438.038a.32.32 0 0 1 .01.413c-.111.144-.27.2-.409.121-.125-.071-.235-.168-.351-.254-.019-.013-.036-.031-.048-.042zm-.636-1.449-.036.004c-.052.087-.101.176-.156.261a92 92 0 0 1-1.015 1.531c-.033.047-.041.075-.015.133q.138.315.249.64c.06.179.103.364.147.548q.05.203.082.408c.02.125-.032.17-.146.135q-.082-.027-.163-.06l-.282-.11-.018.026.307.931.049.03c.016-.033.029-.069.049-.1.172-.264.369-.516.514-.794.216-.416.401-.848.589-1.277.107-.245.149-.509.159-.777.015-.403-.068-.791-.173-1.176-.034-.123-.094-.237-.141-.353zm-4.664-.013c-.023.041-.039.067-.052.095-.158.339-.221.703-.266 1.068-.035.287-.037.582.056.857.121.357.269.706.414 1.055.182.439.445.832.708 1.225.04.06.096.108.162.182l.325-.997c-.163.065-.303.123-.444.176q-.22.08-.173-.149c.035-.171.079-.341.116-.512.079-.372.192-.732.362-1.074a.11.11 0 0 0-.005-.096c-.105-.158-.22-.309-.324-.467-.185-.28-.364-.563-.546-.845-.108-.165-.215-.334-.333-.518zm5.365-2.264c-.07.029-.109.039-.142.06-.047.028-.087.067-.133.096-.464.295-.859.67-1.21 1.086-.268.317-.497.667-.737 1.006-.073.103-.14.216-.123.354.04.33.011.656-.061.979a.1.1 0 0 0 .023.077c.045.052.098.098.147.147.092.091.137.096.21-.008q.218-.313.422-.637c.288-.451.597-.892.851-1.362.25-.464.446-.958.659-1.441.043-.1.057-.214.094-.357zm-3.742 2.675c.033-.152-.023-.285-.104-.404-.324-.473-.631-.958-1.052-1.357-.334-.317-.673-.627-1.067-.87-.022-.014-.053-.014-.08-.021-.005.026-.018.055-.012.079.02.088.038.179.071.263.089.228.175.458.282.677.191.394.385.786.598 1.168.127.228.294.434.437.654.175.269.34.545.517.814.047.071.109.14.179.187.056.037.304-.213.292-.286-.051-.3-.113-.598-.061-.904zm.168 2.832-.035-.005c-.016.027-.036.052-.047.081q-.071.2-.138.401c-.105.307-.212.613-.311.922a.25.25 0 0 0 .008.166.8.8 0 0 0 .142.22q.417.463.839.924.074.081.149 0c.222-.246.448-.49.666-.74q.164-.19.309-.395a.18.18 0 0 0 .024-.143 60 60 0 0 0-.383-1.151c-.034-.099-.083-.194-.125-.29l-.032.006c-.006.026-.019.051-.018.077.015.447-.02.89-.128 1.324-.069.275-.155.546-.241.817-.02.065-.067.14-.149.115-.057-.018-.125-.067-.147-.12a4 4 0 0 1-.163-.485c-.061-.24-.127-.481-.157-.726-.036-.293-.036-.59-.053-.885 0-.038-.006-.076-.01-.113zm.52 6.1c.058-.066.099-.107.134-.152.275-.353.387-.762.41-1.2.005-.087.02-.178 0-.261a10 10 0 0 0-.218-.8c-.041-.124-.124-.237-.202-.345-.056-.079-.162-.074-.229-.001-.049.053-.105.108-.132.173-.143.337-.279.684-.289 1.049-.012.416.056.83.289 1.194.071.112.151.219.237.343zm.01-7.412c.028-.036.042-.056.058-.074.017-.019.041-.032.053-.053.206-.363.315-.752.303-1.17-.005-.16-.041-.318-.054-.478a7.7 7.7 0 0 0-.281-1.599c-.015-.051-.043-.099-.077-.178-.034.069-.057.103-.067.14-.055.21-.118.419-.158.633-.054.29-.082.585-.135.875-.074.407-.081.813.01 1.217.057.25.177.471.348.687zm1.213 3.232c-.02.014-.044.024-.059.041l-.825.934c-.057.064-.061.123-.009.195.074.104.157.207.205.323.214.515.341 1.044.238 1.607-.006.034.013.074.024.129.583-.778.819-2.611.426-3.229zm-2.023 3.213.031-.005c.006-.033.024-.067.017-.097-.057-.276-.029-.546.012-.824.059-.405.183-.778.426-1.108.062-.084.054-.144-.015-.219-.153-.166-.298-.339-.447-.509l-.37-.417c-.035-.039-.072-.052-.086.009-.055.233-.133.465-.149.702a5 5 0 0 0 .031.872c.025.23.083.458.151.68.064.208.157.407.243.608.045.106.104.206.156.308zm3.6-8.044.03-.003c.023-.165.037-.332.072-.494.055-.251.127-.498.19-.748a6 6 0 0 1 .486-1.281c.118-.23.257-.449.377-.678.074-.142.037-.211-.12-.192a2.6 2.6 0 0 0-.6.138q-.422.159-.822.37c-.292.154-.571.332-.853.503-.051.031-.089.081-.13.12l.29.384c.016-.008.031-.011.041-.02.229-.187.451-.382.687-.56q.363-.272.746-.515c.119-.076.233.004.215.144-.012.097-.03.196-.063.288a9 9 0 0 1-.251.628q-.233.518-.488 1.026c-.068.135-.146.255-.015.391.009.01.011.027.017.04zm-5.598.034.044-.083q.132-.286.257-.576c.013-.031.004-.08-.011-.112-.039-.082-.091-.158-.13-.241-.193-.408-.392-.814-.57-1.229-.083-.193-.127-.403-.176-.608-.011-.045.014-.118.049-.151.051-.049.123-.051.19-.004.235.166.476.322.705.496.232.176.453.367.678.554.044.036.074.051.113-.009q.094-.14.2-.272c.037-.046.046-.078-.008-.116-.143-.1-.278-.212-.428-.301-.211-.126-.434-.232-.648-.354a4 4 0 0 0-1.024-.386 1.3 1.3 0 0 0-.321-.033c-.075 0-.112.055-.082.13q.047.116.107.226c.154.285.33.56.459.856.131.301.228.619.32.936.083.288.142.584.207.877.028.122.044.247.069.4zm3.241-1.803c.186-.169.36-.329.536-.487.043-.038.071-.072.023-.127q-.449-.522-.899-1.042c-.055-.064-.129-.059-.181.001a81 81 0 0 0-.897 1.043c-.018.021-.021.085-.004.101.182.172.368.338.57.519.119-.4.212-.809.455-1.188zm-.427 3.848c-.155.219-.272.425-.276.687-.005.347.01.692.076 1.033.029.153.073.304.117.453.008.028.055.061.083.061.027-.001.066-.036.078-.066.023-.053.032-.112.042-.169.049-.257.106-.512.14-.77.02-.154-.009-.315.005-.471.025-.286-.109-.51-.265-.758zM20 21.576l.034.016.233-.138c.314-.187.599-.406.758-.749.023-.05.036-.127.015-.172-.074-.157-.164-.307-.25-.458-.03-.054-.077-.063-.115-.016-.099.119-.212.233-.283.368-.164.311-.314.631-.357.988-.007.054-.023.107-.035.161zm2.489.021c.005-.041.016-.07.011-.096-.03-.138-.049-.28-.099-.411a8 8 0 0 0-.305-.709c-.057-.114-.152-.211-.239-.308-.069-.077-.124-.038-.167.041-.057.105-.123.206-.177.313-.04.079-.095.161-.049.257.214.439.602.683 1.025.913zm-.591-3.506c.025-.013.034-.015.038-.02q.388-.506.772-1.017a.13.13 0 0 0 .006-.113 3 3 0 0 0-.186-.269c-.057-.074-.125-.102-.2-.02-.175.19-.352.378-.52.574-.03.035-.039.103-.033.153.019.152.05.302.076.453zm-1.29.002c.045-.261.09-.51.129-.76a.16.16 0 0 0-.037-.11q-.27-.293-.543-.584c-.054-.058-.104-.044-.148.007q-.08.096-.157.195c-.116.148-.114.163.019.299q.039.038.073.082l.609.827c.012.016.031.025.055.044zm.877-4.162c-.029-.148-.048-.274-.079-.397-.019-.075-.053-.144-.152-.144-.098 0-.133.067-.154.142-.1.345-.067.684.06 1.015.013.033.068.068.105.069.029.001.078-.044.086-.076.051-.207.093-.416.134-.609zm-.091 14.895c-.022-.16-.042-.326-.069-.491-.005-.027-.042-.067-.065-.067-.025 0-.068.034-.074.06-.068.286-.093.575-.014.863.007.026.055.058.083.057s.075-.034.08-.06c.026-.115.04-.234.059-.362z" transform="matrix(1.35448 0 0 1.38279 -7.532 -8.153)"/>
    <circle class="color-white" fill="#fff" cx="6.448" cy="21.175" r=".667" transform="rotate(-27.482 6.448 21.174)"/>
    <circle class="color-white" fill="#fff" cx="36.034" cy="21.175" r=".667" transform="rotate(-27.482 36.032 21.174)"/>
  </g>
</svg>
