<svg xmlns="http://www.w3.org/2000/svg" id="Layer_1" width="192" height="192" x="0" y="0" version="1.1" viewBox="0 0 192 192" xml:space="preserve">
    <style id="style2" type="text/css"/>
    <g id="g106" transform="translate(5.999 5.999) scale(4.23336)">
        <circle id="circle4" class="color-violet color-main" fill="#7d388d" stroke-width="1" cx="21.26" cy="21.26" r="22.677"/>
        <ellipse id="circle6" class="color-white" fill="#fff" stroke-width="1.369" cx="21.264" cy="21.245" rx="12.423" ry="12.683"/>
        <g id="g96" class="color-white" fill="#fff" transform="matrix(1.35448 0 0 1.38279 -7.532 -8.153)">
            <path id="path8" d="M7.88 19.23a1.33 1.33 0 01-.16-.156c-.054-.07-.08-.125-.075-.163.006-.037.063-.087.172-.151a.464.464 0 01.52.021c.098.078.174.139.228.184.093.083.144.129.156.137.218.14.532.327.943.562.448.253.734.387.858.404a.504.504 0 00.317-.057c.104-.071.162-.154.175-.25a.26.26 0 00-.094-.25.643.643 0 00-.186-.147c.157.021.268.081.334.178.064.098.084.233.061.406a.75.75 0 01-.148.382c-.069.076-.18.103-.336.082-.084-.011-.24-.084-.469-.217a35.97 35.97 0 01-.678-.426 13.433 13.433 0 01-.394-.284l-.167.044c-.074.02-.146.042-.213.066-.2.056-.377.117-.531.183-.178.075-.272.13-.281.164a.784.784 0 00.058.391 1.43 1.43 0 01-.252-.29c-.098-.133-.143-.224-.136-.273.01-.078.072-.138.184-.184.094-.041.27-.107.533-.196.217-.072.372-.13.464-.174a1.285 1.285 0 00-.164-.107.624.624 0 00-.244-.083.487.487 0 00-.475.204z"/>
            <path id="path10" d="M7.506 17.313c-.04.059-.117.077-.233.054-.06-.033-.078-.11-.054-.229.034-.063.11-.081.229-.057.062.04.081.117.058.232z"/>
            <path id="path12" d="M9.357 18.197a.922.922 0 00-.057.136 2.36 2.36 0 00-.036.202 3.512 3.512 0 01-.045.196c-.017.061-.036.1-.057.116l-1.277-.345-.074-.353.402.109a1.207 1.207 0 00-.122-.231 1.267 1.267 0 01-.136-.267.449.449 0 01-.004-.254.715.715 0 01.272-.32.436.436 0 01.376-.064c.096.025.205.115.328.267.139.164.246.32.318.467.088.173.126.288.112.341zm-1.138-.399c-.023.084-.024.15-.003.198a.76.76 0 00.122.177.5.5 0 01.108.147l.671.181a.886.886 0 01.019-.27.617.617 0 01.092-.206c.013-.05-.033-.14-.14-.268-.099-.129-.2-.211-.301-.244a.34.34 0 00-.262.028 3.175 3.175 0 00-.202.134 8.65 8.65 0 01-.104.123z"/>
            <path id="path14" d="M7.787 15.491c-.039-.091-.055-.148-.048-.17.009-.023.031-.045.068-.065a.119.119 0 01.081.001c.051.017.091.075.121.174.043.121.065.247.065.378a2.09 2.09 0 01-.086-.084l-.061-.06a.756.756 0 01-.048-.049l-.092-.125z"/>
            <path id="path16" d="M9.369 17.02c.03.05.061.107.096.17a.406.406 0 01.049.196l-1.2-.557c-.006-.037-.011-.073-.018-.108-.007-.036-.011-.067-.015-.093a.955.955 0 01-.013-.118l.516.239a4.324 4.324 0 00-.094-.296 1.72 1.72 0 01-.117-.395.655.655 0 01.052-.347c.076-.163.231-.257.467-.284.002-.008-.011-.069-.035-.183a1.999 1.999 0 01-.035-.269.631.631 0 01.057-.239.406.406 0 01.19-.205.62.62 0 01.26-.073.473.473 0 01.235.03c.083.039.175.13.273.273.099.162.176.317.23.465.057.17.081.299.072.388a1.717 1.717 0 01-.117-.306.707.707 0 00-.12-.25.692.692 0 00-.224-.153.413.413 0 00-.388.021c-.133.077-.22.156-.257.238-.042.09-.06.153-.054.19.012.033.046.062.099.087l.093.043a.622.622 0 01.176.133c.026.033.092.175.198.426.1.233.148.411.144.533a1.728 1.728 0 01-.123-.322.945.945 0 00-.113-.233.705.705 0 00-.223-.151.413.413 0 00-.388.021c-.133.077-.22.158-.26.244a.435.435 0 00-.011.383c.057.142.104.24.144.291z"/>
            <path id="path18" d="M9.581 14.133l.006-.096.004-.094.009-.123.446.343a1.864 1.864 0 00-.02-.319 3.213 3.213 0 01-.031-.406.686.686 0 01.136-.32c.102-.134.271-.196.506-.184a.45.45 0 00.011-.182c.003-.101.012-.19.029-.266a.546.546 0 01.104-.216.456.456 0 01.23-.167.72.72 0 01.268-.016c.1.017.175.044.226.083.08.061.147.171.2.328.064.168.106.334.128.499.018.172.014.304-.014.394a8.816 8.816 0 01-.048-.324.622.622 0 00-.057-.265.785.785 0 00-.19-.2.397.397 0 00-.382-.056c-.148.041-.25.097-.304.168-.064.083-.093.142-.089.177.009.043.034.08.074.111l.081.062a.518.518 0 01.142.16c.026.064.059.217.1.459.049.261.057.445.024.552a2.09 2.09 0 01-.054-.325.67.67 0 00-.06-.272.665.665 0 00-.18-.192c-.108-.083-.234-.101-.381-.056-.149.041-.253.101-.311.178a.422.422 0 00-.086.27c-.009.1.002.192.033.278.018.08.033.124.043.131l1.729 1.326c.08.061.145.169.194.324.052.136.089.297.111.482.018.17.015.279-.01.328a3.384 3.384 0 01-.029-.298 1.73 1.73 0 00-.054-.26.543.543 0 00-.157-.191z"/>
            <path id="path20" d="M11.515 10.313c.003-.1.013-.157.029-.173.017-.018.046-.028.089-.031a.133.133 0 01.073.036c.039.037.05.107.035.209a1.062 1.062 0 01-.101.369 1.233 1.233 0 01-.042-.113l-.03-.08a.53.53 0 01-.024-.065l-.029-.152z"/>
            <path id="path22" d="M13.246 9.964c.152-.132.296-.27.432-.411a1.077 1.077 0 01-.13.448.905.905 0 01-.2.284l-.894.775c.035-.026.138-.067.311-.127.154-.046.335-.047.542-.003.219.039.431.176.637.413.271.313.385.616.343.909a1.276 1.276 0 01-.457.788c-.474.412-.906.395-1.294-.052a.893.893 0 01-.24-.561c-.01-.204.073-.382.248-.534a.548.548 0 01.414-.13c.159.01.284.068.376.174a.456.456 0 01.045.533.793.793 0 00-.169-.388c-.105-.12-.213-.186-.324-.198a.48.48 0 00-.32.118c-.088.077-.14.197-.154.359-.023.162.033.321.167.476a.822.822 0 00.584.295.77.77 0 00.617-.199c.375-.325.342-.743-.099-1.252-.278-.321-.557-.504-.837-.55a.845.845 0 00-.381.033.984.984 0 00-.348.198c-.168.146-.264.293-.288.442-.015.152.007.337.066.557a.892.892 0 01-.209-.49c-.012-.161.021-.33.098-.505.078-.156.188-.295.332-.419l.593-.514z"/>
            <path id="path24" d="M15.419 8.703c.174-.103.34-.212.5-.327a1.1 1.1 0 01-.209.418.89.89 0 01-.248.243l-1.019.602c.039-.019.15-.041.33-.069.16-.017.337.014.533.094.208.078.392.251.552.521.21.357.269.675.173.956-.1.288-.297.52-.591.694-.542.32-.962.225-1.263-.284a.897.897 0 01-.136-.595c.027-.202.14-.362.341-.481a.548.548 0 01.431-.054.52.52 0 01.338.238.453.453 0 01-.051.533.778.778 0 00-.097-.413c-.08-.137-.175-.221-.282-.253a.482.482 0 00-.335.058c-.101.06-.174.169-.217.326-.053.155-.026.321.079.499a.824.824 0 00.521.396.769.769 0 00.642-.085c.428-.252.47-.669.127-1.249-.215-.365-.458-.596-.724-.692a.866.866 0 00-.381-.037.988.988 0 00-.377.133c-.192.113-.313.241-.362.382a1.561 1.561 0 00-.036.559.884.884 0 01-.117-.519c.017-.161.079-.321.186-.481.106-.138.239-.255.402-.352l.676-.399z"/>
            <path id="path26" d="M16.62 7.419c-.027-.067-.006-.114.063-.14a.145.145 0 01.081-.004c.03.002.067.024.112.067a.692.692 0 01.298.244l-.037-.004a4.813 4.813 0 00-.076-.006 1.357 1.357 0 01-.261-.043c-.097-.013-.156-.051-.18-.114zm.374-.232c-.039-.102-.025-.165.04-.19.067-.026.119.008.155.103.029.075.048.156.059.243a.518.518 0 010 .215l-.018-.018a.228.228 0 01-.022-.028l-.022-.033a.99.99 0 01-.192-.292zm.406-.089c.027-.08.06-.128.101-.144.019-.007.048-.003.084.014a.102.102 0 01.06.06c.016.042-.003.11-.058.204-.062.103-.145.2-.25.29.003-.032.004-.057.007-.074l.005-.06a.581.581 0 01.011-.127.883.883 0 01.04-.163z"/>
            <path id="path28" d="M16.977 9.384a2.882 2.882 0 01-.071.181.387.387 0 01-.121.162l-.332-1.28.073-.083c.023-.028.045-.051.064-.071a.866.866 0 01.083-.086l.143.55c.014-.014.07-.101.169-.261.067-.128.144-.242.231-.341a.653.653 0 01.301-.181c.173-.045.345.015.516.179a1.3 1.3 0 00.119-.143c.056-.07.118-.136.185-.198a.63.63 0 01.221-.108.416.416 0 01.28.017.631.631 0 01.222.153.47.47 0 01.126.2c.023.09.01.218-.038.384a2.602 2.602 0 01-.213.473c-.095.153-.179.253-.254.302.043-.096.097-.191.162-.285a.724.724 0 00.117-.25.751.751 0 00-.025-.268.414.414 0 00-.263-.287c-.144-.054-.26-.07-.347-.047-.096.025-.156.051-.181.079-.018.03-.019.074-.004.133l.026.098a.602.602 0 01.009.22c-.009.041-.077.182-.203.423-.116.226-.223.376-.32.451.056-.121.113-.221.171-.3a.913.913 0 00.108-.235.71.71 0 00-.026-.268.41.41 0 00-.262-.286c-.144-.054-.262-.07-.353-.046a.433.433 0 00-.303.235 1.415 1.415 0 00-.134.297z"/>
            <path id="path30" d="M19.35 7.713l.078-.057.075-.056.1-.071.019.562c.033-.02.11-.093.234-.218.133-.138.231-.233.293-.283a.702.702 0 01.333-.098c.169-.005.323.086.465.275a.508.508 0 00.148-.107c.08-.063.154-.112.224-.147a.551.551 0 01.232-.057.45.45 0 01.275.071.685.685 0 01.183.198.497.497 0 01.08.227c.004.101-.04.221-.127.363-.09.156-.191.294-.305.416a1.029 1.029 0 01-.313.239 6.45 6.45 0 01.221-.243.645.645 0 00.169-.213.785.785 0 00.034-.273c-.004-.136-.071-.246-.2-.33-.127-.088-.234-.131-.322-.128-.106.003-.17.018-.193.044a.182.182 0 00-.039.128l.004.102a.507.507 0 01-.033.211c-.033.061-.13.184-.29.369-.17.204-.308.327-.411.37.036-.053.108-.136.217-.249a.678.678 0 00.172-.219.68.68 0 00.035-.261.398.398 0 00-.2-.33c-.127-.088-.238-.131-.335-.128a.44.44 0 00-.263.105.661.661 0 00-.194.201c-.052.064-.076.103-.076.115l.074 2.177c.003.101-.04.22-.127.357a2.023 2.023 0 01-.302.391c-.12.122-.206.188-.259.2.053-.059.124-.13.212-.211.052-.053.107-.122.166-.207a.56.56 0 00.047-.243z"/>
            <path id="path32" d="M23.217 8.525c.028-.101.104-.207.232-.317.144-.129.282-.231.414-.306.14-.073.263-.117.37-.132a4.648 4.648 0 01-.283.168.944.944 0 00-.226.156.677.677 0 00-.113.251c-.036.125-.004.25.093.375.093.118.183.188.268.212.109.03.176.037.2.02.035-.02.06-.057.075-.111l.027-.096a.513.513 0 01.091-.192c.063-.056.194-.147.392-.274.224-.137.391-.213.502-.227-.095.073-.19.131-.286.175a.731.731 0 00-.225.156.735.735 0 00-.113.245c-.034.125-.003.25.093.375.093.117.188.19.283.216.087.024.185.02.292-.013a1.05 1.05 0 00.247-.137.48.48 0 00.107-.096l.116-.426c.008-.027.047-.067.116-.119a.956.956 0 01.281-.134l-.774 2.81c-.023.086-.098.184-.225.297-.146.11-.288.198-.425.265a1.227 1.227 0 01-.334.132c.041-.033.124-.085.249-.156a.983.983 0 00.236-.153.352.352 0 00.123-.199l.595-2.167a1.587 1.587 0 00-.289.141 2.21 2.21 0 01-.363.176.613.613 0 01-.35.003c-.162-.044-.282-.181-.359-.407a1.022 1.022 0 00-.167.06 2.108 2.108 0 01-.263.072.526.526 0 01-.241-.008.448.448 0 01-.308-.267.494.494 0 01-.058-.368z"/>
            <path id="path34" d="M27.314 9.157c.05-.033.116-.068.198-.104.084-.031.142-.039.178-.021.033.016.063.086.092.209a.455.455 0 01-.039.324.492.492 0 01-.141.165c-.104.07-.186.123-.245.16a8.914 8.914 0 00-.178.106c-.2.165-.475.407-.824.726-.378.349-.594.581-.648.694a.513.513 0 00-.043.319c.036.12.097.201.185.243.093.044.182.04.267-.013.1-.05.166-.094.197-.131-.069.143-.16.23-.271.262-.113.031-.248.01-.405-.066a.731.731 0 01-.318-.259c-.052-.088-.043-.203.024-.345.036-.076.153-.203.35-.38.072-.064.276-.235.614-.515.218-.165.349-.261.392-.288l.009-.173a2.79 2.79 0 00.003-.223 4.606 4.606 0 00-.012-.562c-.017-.193-.041-.299-.071-.318a.771.771 0 00-.391-.064c.095-.06.213-.111.355-.153.156-.05.257-.065.302-.044.071.033.11.111.118.232.011.101.019.29.023.566.001.231.009.396.023.496a1.13 1.13 0 00.152-.123.64.64 0 00.154-.207.485.485 0 00-.05-.513z"/>
            <path id="path36" d="M29.46 9.11c.097-.021.156-.026.175-.015.021.012.039.038.051.078a.136.136 0 01-.017.08c-.025.047-.09.075-.193.087a1.09 1.09 0 01-.382-.007c.01-.009.043-.032.099-.069.031-.02.054-.037.07-.049.017-.012.035-.025.057-.038l.14-.067z"/>
            <path id="path38" d="M29.537 10.3c.081.059.207.129.374.21.172.086.278.144.318.173a.571.571 0 01.161.167l-.837 1.157-.297-.127.337-.466a1.529 1.529 0 00-.311.039 2.878 2.878 0 01-.398.033.575.575 0 01-.328-.111.468.468 0 01-.12-.176.619.619 0 01-.077-.364c-.289.055-.511.027-.664-.084a.418.418 0 01-.184-.351c-.009-.159.015-.278.071-.357a.58.58 0 01.201-.189c.057-.028.121-.054.194-.078.044-.001.094-.006.152-.016.249-.074.431-.101.545-.083a.684.684 0 01.307.119l.097.089.15.139c.097.099.2.191.309.276zm-.758-.429c-.139-.1-.275-.131-.408-.093a.603.603 0 00-.341.222.411.411 0 00-.063.344c.031.134.07.224.117.272l.081.093a.376.376 0 00.208.056c.111-.153.193-.25.248-.29a.779.779 0 01.324-.11c.079-.014.15-.029.211-.045l.164-.042zm1.174.792a1.485 1.485 0 00-.587-.275c-.179-.033-.338.046-.475.235a.48.48 0 00-.07.324c.007.14.069.252.185.336a.466.466 0 00.196.088.507.507 0 00.222-.018c.103-.02.174-.031.211-.034l.311-.431a.148.148 0 01.052-.035.224.224 0 01.06-.04l.026-.023.019-.017z"/>
            <path id="path40" d="M33.081 11.739c.485.002.774.063.863.184.05.067-.005.184-.166.351a3.819 3.819 0 01-.408.403c-.044.043-.19.17-.434.379-.226.176.053-.062-.115.115a6.479 6.479 0 00-.558.652c-.02.031-.079.107-.176.228-.112.133-.175.227-.191.282a.185.185 0 00.03.178.394.394 0 00.151.115l.051.032.037.023.018.007.015.007c.004.007.01.01.016.011l.07.052c-.306.07-.548-.016-.727-.255-.118-.158-.148-.302-.088-.432.058-.121.178-.276.358-.465.171-.185.281-.333.329-.447-.033.004-.117.01-.251.018l-.324.019c-.372.029-.647.031-.825.007-.223-.016-.371-.073-.445-.173-.07-.094-.016-.208.164-.343a.556.556 0 01.562-.049.35.35 0 01-.082.045l-.086.065c-.099.073-.121.148-.065.222.054.073.166.115.335.128.18.011.286.011.317.001a4.27 4.27 0 01.439-.027 2.25 2.25 0 01.167-.011c.048-.001.1-.004.151-.007a.46.46 0 00.154-.068l.081-.066.119-.1.19-.166c.072-.064.121-.108.146-.133.07-.059-.257.225-.027.019a3.425 3.425 0 00.236-.211c.244-.244.345-.395.301-.453a.208.208 0 00-.085-.063 1.346 1.346 0 00-.074-.027.556.556 0 01-.061-.024 1.404 1.404 0 00-.112-.023z"/>
            <path id="path42" d="M34.121 14.354c.063-.037.112-.024.148.039a.157.157 0 01.018.079c.003.029-.013.069-.048.12a.67.67 0 01-.191.335l-.001-.037-.007-.077a1.39 1.39 0 01-.002-.264c-.003-.095.024-.16.083-.195zm.291.331c.093-.056.159-.053.194.007.037.063.012.119-.076.171a1.007 1.007 0 01-.229.098.535.535 0 01-.212.035l.014-.021.024-.027.029-.028a.936.936 0 01.256-.235zm.155.385c.084.013.137.038.159.075.011.018.01.047 0 .086a.102.102 0 01-.049.069c-.04.023-.11.016-.211-.023a1.222 1.222 0 01-.328-.198 1.481 1.481 0 00.133-.011.49.49 0 01.127-.01.909.909 0 01.169.012z"/>
            <path id="path44" d="M32.15 15.56a.77.77 0 00-.049-.138 1.73 1.73 0 00-.109-.173 2.533 2.533 0 01-.097-.176c-.03-.057-.041-.098-.036-.124l1.179-.6.291.213-.371.189c.039.023.121.053.247.09.097.024.191.06.279.107a.467.467 0 01.175.186c.046.136.05.276.013.42a.437.437 0 01-.236.3c-.088.045-.229.052-.422.021a2.289 2.289 0 01-.549-.133c-.185-.073-.29-.133-.315-.182zm1.112-.466c-.04-.077-.083-.126-.132-.148a.838.838 0 00-.209-.05.452.452 0 01-.177-.037l-.62.315a.84.84 0 01.167.214c.04.078.064.15.071.213.023.046.118.081.282.106.161.029.29.022.389-.021a.343.343 0 00.175-.196c.009-.026.029-.104.06-.235a2.783 2.783 0 01-.006-.161z"/>
            <path id="path46" d="M35.134 16.542c.091.042.14.073.15.094.009.023.007.054-.007.094a.134.134 0 01-.061.054c-.05.021-.118.005-.206-.049a1.096 1.096 0 01-.301-.237c.013-.001.053.001.119.005l.087.004a.6.6 0 01.069.004c.002-.001.053.01.15.031z"/>
            <path id="path48" d="M32.928 16.446a3.743 3.743 0 01-.184-.063.378.378 0 01-.167-.113l1.264-.39.086.069a2.98 2.98 0 01.164.139l-.544.167c.015.013.104.065.268.157.131.061.248.133.351.215a.656.656 0 01.194.293c.052.171 0 .346-.156.524.004.007.053.044.148.113.072.053.142.111.206.176a.628.628 0 01.118.215.413.413 0 01-.004.28.617.617 0 01-.143.229.466.466 0 01-.195.134c-.088.027-.217.02-.385-.021a2.576 2.576 0 01-.482-.19c-.156-.087-.261-.168-.313-.24.098.039.196.088.292.15.115.066.2.101.255.105a.697.697 0 00.267-.037.416.416 0 00.274-.275c.047-.146.058-.263.031-.349-.029-.094-.058-.154-.086-.177-.031-.016-.075-.016-.132.002l-.097.03a.606.606 0 01-.221.019c-.04-.006-.185-.067-.431-.183-.231-.106-.386-.206-.465-.3.124.05.226.103.307.157a.926.926 0 00.241.098.72.72 0 00.267-.037.414.414 0 00.274-.275c.047-.146.057-.264.029-.355a.433.433 0 00-.248-.292 1.422 1.422 0 00-.302-.12z"/>
            <path id="path50" d="M32.985 20.412c-.066-.012-.166-.063-.3-.151a2.134 2.134 0 01-.335-.315.665.665 0 01-.173-.349.461.461 0 01.132-.4c.107-.124.217-.194.331-.208a1.01 1.01 0 01.312.003.79.79 0 01.259.122l.195.128c-.015-.113-.006-.197.026-.253.034-.06.113-.099.238-.115.147-.019.387.061.723.24.304.155.626.354.962.594.318.224.499.37.543.435a5.106 5.106 0 01-.181-.103l-.17-.101a14.105 14.105 0 00-.338-.187l-.213-.112a3.586 3.586 0 00-.542-.235c-.161-.065-.293-.09-.399-.076-.214.028-.311.13-.288.305a.138.138 0 00.015.041.176.176 0 00.021.07.266.266 0 01.014.06.93.93 0 01-.252-.207 1.366 1.366 0 00-.271-.261.512.512 0 00-.318-.046c-.104.013-.206.082-.307.205a.53.53 0 00-.12.392.446.446 0 00.079.218c.03.041.089.096.177.164a.94.94 0 01.18.142z"/>
            <path id="path52" d="M34.587 23.604c.046.039.097.092.156.16.054.071.077.126.07.165-.006.037-.064.086-.174.147a.479.479 0 01-.521-.034c-.096-.08-.17-.143-.223-.19a5.034 5.034 0 00-.153-.141c-.215-.145-.524-.34-.929-.585-.442-.263-.725-.404-.849-.424a.517.517 0 00-.318.048c-.104.069-.164.151-.181.247a.262.262 0 00.088.253.696.696 0 00.183.151c-.156-.025-.266-.087-.328-.186-.063-.098-.08-.235-.052-.407a.732.732 0 01.158-.378c.071-.074.183-.099.338-.074.083.014.237.09.464.228.081.051.304.198.667.442.221.163.35.261.389.294l.167-.04c.075-.019.147-.039.216-.061.2-.051.378-.108.535-.171.18-.071.275-.123.284-.157a.766.766 0 00-.049-.392c.084.073.166.172.246.296.093.136.135.228.127.277-.011.077-.075.137-.188.179-.094.039-.272.1-.536.183-.22.067-.375.121-.468.162.024.023.077.06.161.111a.618.618 0 00.242.089.485.485 0 00.478-.192z"/>
            <path id="path54" d="M34.921 25.512c.041-.059.119-.074.233-.048.06.035.077.111.049.23-.035.062-.112.079-.231.052-.06-.042-.077-.119-.051-.234z"/>
            <path id="path56" d="M33.089 24.589a.712.712 0 00.057-.135c.012-.039.024-.107.037-.201a2.89 2.89 0 01.048-.195c.017-.061.037-.1.058-.116l1.274.357.071.354-.401-.113c.013.044.053.121.121.233.055.084.1.173.133.268a.452.452 0 01.002.255.72.72 0 01-.274.318.442.442 0 01-.377.061c-.096-.027-.204-.117-.326-.271a2.357 2.357 0 01-.314-.47c-.088-.176-.125-.291-.109-.345zm1.133.411c.023-.083.024-.149.004-.197a.746.746 0 00-.121-.178.478.478 0 01-.106-.149l-.67-.188a.844.844 0 01-.021.27.62.62 0 01-.093.205c-.014.05.032.139.137.27.098.13.198.213.3.247.093.026.18.017.26-.026.025-.012.093-.057.204-.132.034-.04.069-.081.106-.122z"/>
            <path id="path58" d="M34.591 27.349c.036.093.051.149.044.17-.009.023-.032.045-.07.064a.122.122 0 01-.08-.003c-.05-.019-.089-.077-.117-.177a1.076 1.076 0 01-.056-.379c.01.008.037.037.084.086.025.027.046.047.06.061.014.014.03.03.047.05 0 .003.03.046.088.128z"/>
            <path id="path60" d="M33.053 25.76c-.027-.05-.059-.107-.091-.171a.391.391 0 01-.044-.198l1.187.583.015.109c.006.036.01.067.012.094a.878.878 0 01.011.118l-.511-.251c.002.02.031.119.088.298.054.134.089.266.108.397a.642.642 0 01-.06.346c-.079.161-.236.253-.472.274-.002.009.009.07.03.184.016.088.027.178.03.269a.642.642 0 01-.061.238.408.408 0 01-.195.2.624.624 0 01-.261.068.463.463 0 01-.234-.036c-.083-.041-.171-.134-.265-.278a2.544 2.544 0 01-.22-.47c-.054-.171-.075-.301-.064-.389.045.095.082.198.11.309a.73.73 0 00.114.252c.05.057.124.109.22.156a.412.412 0 00.388-.013c.135-.074.223-.151.263-.233.043-.089.063-.152.059-.189-.012-.033-.044-.062-.098-.089l-.091-.045a.606.606 0 01-.174-.137c-.026-.033-.088-.176-.189-.43-.095-.235-.139-.414-.132-.537.055.121.093.23.116.325a.936.936 0 00.108.236.71.71 0 00.22.156.409.409 0 00.388-.013c.135-.074.224-.153.265-.238a.437.437 0 00.02-.383 1.423 1.423 0 00-.138-.294z"/>
            <path id="path62" d="M32.772 28.652c-.003.037-.005.069-.009.097l-.006.094-.01.123-.438-.353a1.98 1.98 0 00.013.319c.018.192.025.327.023.407a.707.707 0 01-.144.317c-.105.132-.275.189-.511.172a.46.46 0 00-.016.182c-.005.101-.016.19-.035.265a.549.549 0 01-.108.214.449.449 0 01-.233.162.728.728 0 01-.27.01.516.516 0 01-.223-.088c-.078-.064-.143-.175-.192-.333a2.263 2.263 0 01-.117-.502 1.071 1.071 0 01.023-.394c.01.055.023.163.04.325a.648.648 0 00.051.267c.042.07.103.138.185.204a.397.397 0 00.38.064c.15-.038.253-.092.308-.16.066-.082.097-.14.093-.176a.183.183 0 00-.072-.113l-.079-.063a.523.523 0 01-.138-.163 3.064 3.064 0 01-.09-.461c-.042-.261-.046-.446-.011-.552.017.061.033.17.046.327a.694.694 0 00.054.273.699.699 0 00.176.197c.106.085.233.106.381.064.149-.038.255-.095.316-.17a.43.43 0 00.092-.267.66.66 0 00-.026-.279c-.017-.08-.031-.124-.041-.131l-1.698-1.365c-.079-.063-.141-.173-.187-.329a1.921 1.921 0 01-.099-.484c-.015-.17-.009-.279.017-.327.01.079.017.179.021.299.006.074.022.161.047.26a.555.555 0 00.153.194z"/>
            <path id="path64" d="M30.755 32.425c-.007.099-.017.157-.033.173-.018.018-.048.027-.091.029a.132.132 0 01-.072-.037c-.038-.038-.047-.108-.03-.21.015-.128.052-.25.11-.367.006.011.019.049.039.113a.942.942 0 00.029.081l.021.066.027.152z"/>
            <path id="path66" d="M29.017 32.734a6.32 6.32 0 00-.442.402c.021-.181.068-.329.14-.445a.9.9 0 01.206-.279l.912-.755c-.036.025-.14.065-.314.12-.155.043-.335.04-.541-.009-.219-.044-.427-.186-.628-.428-.264-.318-.371-.624-.322-.917.053-.301.212-.561.475-.778.483-.401.914-.374 1.291.081a.89.89 0 01.228.565c.005.204-.082.38-.261.528a.544.544 0 01-.417.121.518.518 0 01-.372-.181.457.457 0 01-.105-.287.471.471 0 01.071-.248.806.806 0 00.16.393c.101.122.208.19.32.206a.48.48 0 00.321-.111c.091-.074.145-.194.163-.356.027-.161-.025-.321-.157-.48a.818.818 0 00-.577-.308.77.77 0 00-.621.185c-.382.317-.359.734.071 1.253.271.327.545.516.825.569a.85.85 0 00.382-.024.989.989 0 00.352-.191c.171-.142.271-.287.297-.435.02-.152.001-.338-.053-.558a.894.894 0 01.198.495c.008.161-.028.329-.109.503a1.383 1.383 0 01-.341.412l-.604.501z"/>
            <path id="path68" d="M26.818 33.947a6.456 6.456 0 00-.507.316c.053-.174.126-.312.218-.413a.89.89 0 01.253-.237l1.032-.579a1.64 1.64 0 01-.33.061 1.094 1.094 0 01-.531-.107c-.207-.082-.387-.26-.54-.533-.202-.361-.253-.681-.152-.96.107-.287.309-.513.607-.681.548-.307.967-.203 1.256.313a.891.891 0 01.122.597c-.031.202-.148.36-.351.474a.546.546 0 01-.432.044.518.518 0 01-.333-.246c-.051-.091-.068-.192-.051-.3a.447.447 0 01.115-.231.802.802 0 00.087.415c.077.138.17.225.277.26a.484.484 0 00.337-.051c.102-.058.177-.164.224-.321.055-.154.032-.321-.068-.5a.827.827 0 00-.512-.408.767.767 0 00-.643.07c-.434.243-.485.658-.156 1.246.208.37.444.607.709.708a.87.87 0 00.381.046c.129-.014.256-.056.38-.124.194-.11.318-.234.371-.375.046-.146.062-.332.049-.558.091.18.126.354.105.522-.021.161-.087.32-.197.475a1.36 1.36 0 01-.411.343l-.684.384z"/>
            <path id="path70" d="M24.798 35.506c-.028.08-.063.127-.103.141-.019.007-.048.001-.085-.016a.095.095 0 01-.057-.062c-.016-.042.006-.11.062-.202a1.3 1.3 0 01.256-.285c-.003.032-.005.057-.008.074l-.006.06a.563.563 0 01-.014.127.835.835 0 01-.045.163zm.409-.08c.037.103.022.166-.044.19-.069.024-.118-.011-.152-.107a1 1 0 01-.053-.243.523.523 0 01.005-.215l.018.018a.411.411 0 01.042.062.96.96 0 01.184.295zm.38-.223c.024.068.002.114-.066.138a.142.142 0 01-.08.003c-.03-.003-.067-.026-.11-.069a.7.7 0 01-.154-.095.583.583 0 01-.138-.156.369.369 0 01.037.005l.076.007c.063.004.15.021.26.049.093.015.152.054.175.118z"/>
            <path id="path72" d="M25.272 33.23c.021-.053.047-.113.075-.179a.4.4 0 01.125-.16l.303 1.287-.074.081-.065.069a.844.844 0 01-.085.083l-.13-.553a3.622 3.622 0 00-.174.256c-.07.127-.149.238-.239.336a.636.636 0 01-.305.173c-.175.041-.345-.023-.511-.191-.008.004-.049.05-.123.14a1.931 1.931 0 01-.19.194.65.65 0 01-.223.103.413.413 0 01-.278-.023.633.633 0 01-.218-.158.45.45 0 01-.121-.203c-.021-.09-.006-.218.047-.382a2.65 2.65 0 01.223-.468c.099-.15.186-.249.261-.297-.045.096-.101.19-.168.282a.757.757 0 00-.124.248.74.74 0 00.019.269.412.412 0 00.257.292c.143.058.258.076.345.055.096-.023.158-.048.184-.075.018-.03.02-.073.006-.132l-.023-.099a.619.619 0 01-.004-.221c.01-.04.08-.18.212-.418.121-.223.232-.371.331-.443-.058.12-.118.218-.178.296a.92.92 0 00-.113.233.695.695 0 00.018.269.414.414 0 00.257.292c.142.057.26.075.352.053a.428.428 0 00.308-.228c.077-.133.124-.23.14-.293z"/>
            <path id="path74" d="M22.857 34.847l-.079.055a5.116 5.116 0 00-.077.055l-.101.069-.006-.563c-.033.019-.113.09-.239.213a3.572 3.572 0 01-.3.275.699.699 0 01-.336.09c-.169.001-.321-.093-.458-.286a.482.482 0 00-.15.104 1.442 1.442 0 01-.227.142.544.544 0 01-.235.052.453.453 0 01-.273-.077.707.707 0 01-.178-.202.486.486 0 01-.073-.228c-.001-.101.044-.221.135-.36.094-.153.198-.29.314-.408a1.03 1.03 0 01.32-.232 8.05 8.05 0 01-.226.238.655.655 0 00-.174.208.752.752 0 00-.04.273.398.398 0 00.191.335c.125.091.232.137.32.136.105-.001.17-.014.195-.039a.18.18 0 00.042-.127l-.002-.102c0-.078.012-.148.038-.211.035-.06.134-.181.299-.362.176-.199.315-.32.42-.36a2.135 2.135 0 01-.223.244.7.7 0 00-.177.215.668.668 0 00-.04.26.396.396 0 00.192.335c.124.092.235.137.332.136a.43.43 0 00.265-.098.68.68 0 00.199-.197.417.417 0 00.076-.115l-.024-2.179c-.001-.101.044-.218.134-.354.075-.125.179-.252.312-.383.122-.119.21-.184.264-.195a3.364 3.364 0 01-.218.207c-.053.052-.11.12-.171.203a.562.562 0 00-.053.241z"/>
            <path id="path76" d="M18.983 33.959c-.031.1-.113.203-.243.309a2.42 2.42 0 01-.425.29 1.19 1.19 0 01-.375.118c.059-.037.156-.09.29-.158a.926.926 0 00.231-.148.685.685 0 00.123-.246c.039-.124.013-.25-.078-.378-.09-.121-.176-.195-.261-.222-.107-.034-.174-.043-.199-.027-.036.019-.062.055-.079.108l-.03.094a.508.508 0 01-.099.189c-.064.053-.198.14-.402.259-.228.128-.398.198-.51.208.097-.069.194-.123.291-.164a.752.752 0 00.231-.147.733.733 0 00.121-.241c.039-.124.013-.25-.078-.378a.581.581 0 00-.275-.226.52.52 0 00-.293.001 1.054 1.054 0 00-.25.129c-.07.05-.107.08-.11.092l-.133.421c-.009.027-.049.066-.12.115a.936.936 0 01-.286.123l.876-2.779c.027-.084.105-.181.236-.289.15-.104.294-.187.435-.248.141-.068.254-.108.339-.12a1.991 1.991 0 01-.254.147c-.1.044-.18.092-.243.144a.353.353 0 00-.129.196l-.676 2.142c.046-.009.144-.052.294-.13.161-.083.284-.137.369-.162a.614.614 0 01.35.01c.161.051.275.191.344.42a.94.94 0 00.169-.054 2.14 2.14 0 01.266-.061.552.552 0 01.241.017.445.445 0 01.298.279c.065.133.08.256.044.367z"/>
            <path id="path78" d="M14.942 33.227a1.37 1.37 0 01-.2.1c-.084.029-.144.036-.178.018-.033-.017-.062-.087-.087-.211a.47.47 0 01.191-.485c.105-.067.187-.118.248-.155.109-.06.169-.094.18-.103.203-.16.483-.396.84-.707.385-.341.606-.567.662-.679.05-.1.067-.205.05-.318-.034-.121-.093-.203-.18-.247a.261.261 0 00-.266.007.71.71 0 00-.2.127c.072-.141.164-.227.277-.256.113-.03.248-.004.404.075a.734.734 0 01.312.265c.05.09.039.204-.032.344-.039.076-.157.2-.358.373a29.2 29.2 0 01-.625.501c-.222.16-.355.253-.398.28l-.013.172a2.426 2.426 0 00-.007.223 4.364 4.364 0 000 .561c.013.193.033.3.064.32a.777.777 0 00.389.073 1.418 1.418 0 01-.357.144c-.157.047-.259.059-.303.037-.07-.035-.108-.113-.114-.234a6.73 6.73 0 01-.01-.567 4.29 4.29 0 00-.013-.495 1.307 1.307 0 00-.154.119.609.609 0 00-.158.204.483.483 0 00.036.514z"/>
            <path id="path80" d="M12.779 33.217c-.097.019-.156.022-.176.011-.021-.013-.037-.04-.05-.08a.138.138 0 01.018-.079c.028-.047.094-.073.196-.081a1.09 1.09 0 01.382.015.996.996 0 01-.1.067 1.35 1.35 0 00-.071.048c-.017.011-.036.024-.059.037-.001 0-.048.02-.14.062z"/>
            <path id="path82" d="M12.734 32.027a2.606 2.606 0 00-.37-.219c-.17-.09-.274-.15-.314-.18a.572.572 0 01-.157-.17l.863-1.137.294.134-.347.458c.041.006.145-.004.311-.031.196-.021.33-.029.398-.024.12.005.228.045.325.119a.454.454 0 01.117.178.613.613 0 01.068.365c.29-.048.511-.016.661.1.12.091.178.209.176.355.006.16-.02.278-.079.355a.581.581 0 01-.206.185 1.328 1.328 0 01-.196.073c-.044 0-.095.004-.153.012-.25.068-.433.091-.546.07a.661.661 0 01-.304-.126 25.533 25.533 0 01-.095-.092l-.146-.142a3.354 3.354 0 00-.3-.283zm-.408-.372c.204.154.397.251.58.288.179.038.339-.037.481-.224a.47.47 0 00.077-.321.423.423 0 00-.176-.34.472.472 0 00-.194-.093.505.505 0 00-.223.013 2.927 2.927 0 01-.212.029l-.322.423a.123.123 0 01-.053.034.225.225 0 01-.061.039l-.027.022-.018.017zm1.156.819c.136.104.272.138.407.104a.604.604 0 00.344-.216.409.409 0 00.071-.342c-.027-.135-.064-.227-.111-.274l-.079-.095a.383.383 0 00-.207-.06 1.491 1.491 0 01-.254.284.77.77 0 01-.325.102c-.079.012-.15.026-.213.04l-.166.038z"/>
            <path id="path84" d="M9.012 30.583c-.485-.013-.772-.081-.859-.204-.049-.069-.002-.197.174-.348.004-.003.328-.243.578-.446.231-.171.431-.343.604-.517.153-.141.343-.354.573-.639.022-.03.082-.105.182-.224.115-.13.181-.223.197-.277a.188.188 0 00-.025-.18.4.4 0 00-.149-.118.967.967 0 00-.05-.033l-.036-.024-.019-.007a.037.037 0 01-.014-.007c-.005-.007-.01-.01-.016-.011a1.046 1.046 0 00-.069-.054c.308-.061.548.029.721.272.114.161.14.305.077.434-.061.119-.184.272-.369.456-.175.18-.289.327-.34.439a27.93 27.93 0 01.575-.023c.374-.02.648-.016.825.013.222.021.37.082.441.183.069.096.011.209-.173.339a.564.564 0 01-.266.095.518.518 0 01-.296-.059.328.328 0 01.083-.043l.088-.063c.101-.071.125-.145.071-.221-.052-.073-.163-.119-.331-.136-.181-.016-.286-.019-.318-.009-.179.014-.326.02-.44.017a2.658 2.658 0 01-.167.007l-.151.004a.455.455 0 00-.155.065 1.836 1.836 0 01-.084.063l-.121.097a25.794 25.794 0 00-.344.29 49.263 49.263 0 00-.698.592c.004-.003-.071.072-.028.131a.2.2 0 00.084.065l.073.027a.722.722 0 01.059.026c.053.015.09.025.113.028z"/>
            <path id="path86" d="M7.816 27.149c-.084-.014-.136-.041-.157-.078-.01-.018-.009-.046.002-.086a.1.1 0 01.051-.067c.039-.022.11-.013.21.028.111.047.22.115.324.204l-.074.005a4.563 4.563 0 01-.059.003.484.484 0 01-.128.007.873.873 0 01-.169-.016zm.147.389c-.096.053-.161.049-.195-.012-.035-.063-.009-.119.08-.168.07-.039.147-.07.231-.093a.524.524 0 01.213-.03l-.016.02a.165.165 0 01-.024.027l-.03.027a.937.937 0 01-.259.229zm.284.337c-.063.036-.112.021-.147-.041a.15.15 0 01-.016-.079c-.003-.03.014-.07.05-.12a.63.63 0 01.067-.167.589.589 0 01.129-.163l.002.037a1.601 1.601 0 01.002.34c.001.096-.028.16-.087.193z"/>
            <path id="path88" d="M10.245 26.715a.796.796 0 00.047.138c.018.037.053.096.105.176.031.054.061.114.093.179.028.057.038.1.032.125l-1.192.573-.286-.218.376-.18a1.194 1.194 0 00-.245-.095 1.155 1.155 0 01-.277-.114.455.455 0 01-.17-.189.724.724 0 01-.003-.42.438.438 0 01.243-.295c.089-.043.23-.047.422-.011.213.033.395.081.547.145.181.073.284.135.308.186zm-1.123.44c.038.078.081.128.128.151a.81.81 0 00.208.054.49.49 0 01.178.041l.627-.301a.833.833 0 01-.163-.217.629.629 0 01-.066-.215c-.023-.046-.115-.083-.28-.112-.16-.033-.29-.029-.389.012a.34.34 0 00-.179.192c-.01.026-.032.104-.066.234.003.052.003.106.002.161z"/>
            <path id="path90" d="M7.282 25.666c-.088-.044-.138-.077-.147-.097-.009-.023-.006-.054.009-.094a.116.116 0 01.062-.051c.049-.02.118-.003.205.053.113.063.21.144.295.243a1.097 1.097 0 01-.119-.007c-.037-.004-.066-.005-.086-.006a1.081 1.081 0 01-.069-.006 5.399 5.399 0 00-.15-.035z"/>
            <path id="path92" d="M9.483 25.809c.055.019.116.041.183.067a.4.4 0 01.165.117l-1.273.361-.084-.071-.072-.061a.93.93 0 01-.088-.081l.547-.155a4.053 4.053 0 00-.264-.163 1.698 1.698 0 01-.346-.223.641.641 0 01-.187-.297c-.049-.172.007-.345.168-.52a1.553 1.553 0 00-.146-.116 1.91 1.91 0 01-.202-.18.663.663 0 01-.114-.218.417.417 0 01.011-.28.607.607 0 01.148-.225.444.444 0 01.197-.13c.09-.025.218-.016.385.029.181.058.341.125.478.201.154.091.257.174.308.247a1.845 1.845 0 01-.288-.156.713.713 0 00-.253-.111.722.722 0 00-.268.031.411.411 0 00-.28.269c-.051.145-.064.261-.04.348.027.095.056.155.084.179.03.017.075.017.132.001l.098-.028a.62.62 0 01.221-.014c.041.007.183.072.427.194.229.11.381.214.458.31a1.719 1.719 0 01-.304-.164.91.91 0 00-.238-.104.717.717 0 00-.267.031.41.41 0 00-.281.269c-.051.145-.063.263-.038.354a.438.438 0 00.242.298c.136.07.235.113.299.127z"/>
            <path id="path94" d="M9.518 21.84c.065.013.164.066.296.158.131.106.24.214.327.322a.662.662 0 01.165.353.462.462 0 01-.141.397c-.109.122-.221.188-.336.201a1.023 1.023 0 01-.312-.01.845.845 0 01-.256-.128l-.191-.132c.012.113.001.197-.033.252-.035.06-.114.097-.24.109-.147.016-.387-.07-.717-.255a7.54 7.54 0 01-.949-.617c-.313-.232-.49-.381-.532-.447.034.019.094.054.177.107l.168.104a2.3 2.3 0 00.146.088l.188.106.21.118c.18.101.358.183.536.247a.828.828 0 00.397.085c.216-.023.313-.123.294-.299a.121.121 0 00-.014-.042.154.154 0 00-.019-.069.223.223 0 01-.013-.061.98.98 0 01.247.213c.11.134.197.223.264.267.084.049.19.067.316.054.105-.011.208-.077.312-.198a.535.535 0 00.129-.39.45.45 0 00-.073-.219.924.924 0 00-.173-.168 1.03 1.03 0 01-.173-.146z"/>
        </g>
        <g id="g100" transform="matrix(1.35448 0 0 1.38279 -7.532 -8.153)">
            <path id="path98" class="color-violet color-main color-stroke-violet color-stroke-main" fill="#7d388d" stroke="#7d388d" stroke-miterlimit="10" stroke-width=".097" d="M24.231 19.799c-.057.262-.11.514-.168.765-.081.355-.245.678-.399 1.004a7.16 7.16 0 01-.786 1.326c-.172.223-.164.413-.082.66.166.5.192 1.014.072 1.533-.039.166-.057.337-.091.505-.084.418-.245.81-.45 1.18-.148.268-.327.518-.498.772-.085.126-.189.24-.276.365-.022.032-.024.088-.017.13.044.273.125.544.133.818.009.308-.059.615-.217.89-.107.186-.297.19-.396.002a2.137 2.137 0 01-.2-.63c-.06-.33.017-.638.076-.953.008-.042.033-.082.038-.125.006-.041.011-.091-.008-.124a1.418 1.418 0 00-.175-.252c-.395-.433-.663-.943-.881-1.479a4.554 4.554 0 01-.261-1.035c-.044-.293-.092-.582-.073-.881.02-.304.077-.6.188-.883a.343.343 0 00-.037-.347c-.144-.211-.299-.417-.422-.64a26.754 26.754 0 01-.662-1.282 3.681 3.681 0 01-.328-1.175c-.006-.046-.001-.093-.001-.177-.049.049-.072.075-.099.098-.095.083-.185.175-.289.245-.111.075-.228.041-.322-.044-.106-.095-.197-.214-.156-.363.038-.137.127-.262.288-.26.095.001.188.056.303.094.002-.003.024-.027.034-.055.101-.306.146-.616.084-.938-.05-.257-.079-.52-.147-.772-.073-.269-.186-.526-.271-.792-.114-.355-.31-.667-.507-.978-.14-.221-.304-.428-.456-.642a.479.479 0 01-.092-.401c.039-.157.164-.233.324-.202.164.032.33.07.487.128.369.137.744.266 1.097.438.352.172.681.39 1.018.592.122.073.24.153.357.233.074.051.105-.004.142-.049.129-.159.25-.324.386-.476.15-.168.31-.328.47-.487.092-.091.115-.182.057-.301a2.2 2.2 0 01-.207-1.118c.015-.225.098-.45.306-.595.094-.065.181-.066.273-.001.21.148.293.376.306.607.022.396-.036.787-.228 1.146-.041.076.01.188.088.269.241.253.475.512.71.772.053.059.096.128.142.194.047.066.09.073.162.022.459-.325.93-.635 1.448-.855.439-.186.895-.335 1.345-.495a.56.56 0 01.227-.023c.192.017.273.159.243.349-.025.162-.11.286-.205.405-.28.349-.518.726-.716 1.125a5.443 5.443 0 00-.298.781 6.69 6.69 0 00-.216.835c-.044.239-.046.485-.063.728-.011.163.033.316.084.469.041.125.057.135.172.074.186-.098.331-.086.438.038a.317.317 0 01.01.413c-.111.144-.27.2-.409.121-.125-.071-.235-.168-.351-.254-.019-.013-.036-.031-.048-.042zm-.636-1.449l-.036.004c-.052.087-.101.176-.156.261a92.04 92.04 0 01-1.015 1.531c-.033.047-.041.075-.015.133.091.21.176.423.249.64.06.179.103.364.147.548.033.135.06.271.082.408.02.125-.032.17-.146.135-.055-.017-.109-.039-.163-.06a32.783 32.783 0 01-.282-.11l-.018.026.307.931.049.03c.016-.033.029-.069.049-.1.172-.264.369-.516.514-.794.216-.416.401-.848.589-1.277.107-.245.149-.509.159-.777.015-.403-.068-.791-.173-1.176-.034-.123-.094-.237-.141-.353zm-4.664-.013c-.023.041-.039.067-.052.095-.158.339-.221.703-.266 1.068-.035.287-.037.582.056.857.121.357.269.706.414 1.055.182.439.445.832.708 1.225.04.06.096.108.162.182l.325-.997c-.163.065-.303.123-.444.176-.145.054-.205.003-.173-.149.035-.171.079-.341.116-.512.079-.372.192-.732.362-1.074a.111.111 0 00-.005-.096c-.105-.158-.22-.309-.324-.467-.185-.28-.364-.563-.546-.845-.108-.165-.215-.334-.333-.518zm5.365-2.264c-.07.029-.109.039-.142.06-.047.028-.087.067-.133.096-.464.295-.859.67-1.21 1.086-.268.317-.497.667-.737 1.006-.073.103-.14.216-.123.354.04.33.011.656-.061.979a.101.101 0 00.023.077c.045.052.098.098.147.147.092.091.137.096.21-.008.146-.208.285-.422.422-.637.288-.451.597-.892.851-1.362.25-.464.446-.958.659-1.441.043-.1.057-.214.094-.357zm-3.742 2.675c.033-.152-.023-.285-.104-.404-.324-.473-.631-.958-1.052-1.357-.334-.317-.673-.627-1.067-.87-.022-.014-.053-.014-.08-.021-.005.026-.018.055-.012.079.02.088.038.179.071.263.089.228.175.458.282.677.191.394.385.786.598 1.168.127.228.294.434.437.654.175.269.34.545.517.814.047.071.109.14.179.187.056.037.304-.213.292-.286-.051-.3-.113-.598-.061-.904zm.168 2.832l-.035-.005c-.016.027-.036.052-.047.081-.048.133-.093.267-.138.401-.105.307-.212.613-.311.922a.25.25 0 00.008.166.837.837 0 00.142.22c.277.31.559.616.839.924.049.053.099.055.149 0 .222-.246.448-.49.666-.74.11-.126.212-.259.309-.395a.18.18 0 00.024-.143 59.656 59.656 0 00-.383-1.151c-.034-.099-.083-.194-.125-.29l-.032.006c-.006.026-.019.051-.018.077.015.447-.02.89-.128 1.324-.069.275-.155.546-.241.817-.02.065-.067.14-.149.115-.057-.018-.125-.067-.147-.12a3.588 3.588 0 01-.163-.485c-.061-.24-.127-.481-.157-.726-.036-.293-.036-.59-.053-.885 0-.038-.006-.076-.01-.113zm.52 6.1c.058-.066.099-.107.134-.152.275-.353.387-.762.41-1.2.005-.087.02-.178 0-.261a9.541 9.541 0 00-.218-.8c-.041-.124-.124-.237-.202-.345-.056-.079-.162-.074-.229-.001-.049.053-.105.108-.132.173-.143.337-.279.684-.289 1.049-.012.416.056.83.289 1.194.071.112.151.219.237.343zm.01-7.412c.028-.036.042-.056.058-.074.017-.019.041-.032.053-.053.206-.363.315-.752.303-1.17-.005-.16-.041-.318-.054-.478a7.744 7.744 0 00-.281-1.599c-.015-.051-.043-.099-.077-.178-.034.069-.057.103-.067.14-.055.21-.118.419-.158.633-.054.29-.082.585-.135.875-.074.407-.081.813.01 1.217.057.25.177.471.348.687zm1.213 3.232c-.02.014-.044.024-.059.041l-.825.934c-.057.064-.061.123-.009.195.074.104.157.207.205.323.214.515.341 1.044.238 1.607-.006.034.013.074.024.129.583-.778.819-2.611.426-3.229zm-2.023 3.213a.333.333 0 01.031-.005c.006-.033.024-.067.017-.097-.057-.276-.029-.546.012-.824.059-.405.183-.778.426-1.108.062-.084.054-.144-.015-.219-.153-.166-.298-.339-.447-.509l-.37-.417c-.035-.039-.072-.052-.086.009-.055.233-.133.465-.149.702a4.89 4.89 0 00.031.872c.025.23.083.458.151.68.064.208.157.407.243.608.045.106.104.206.156.308zm3.6-8.044l.03-.003c.023-.165.037-.332.072-.494.055-.251.127-.498.19-.748a5.92 5.92 0 01.486-1.281c.118-.23.257-.449.377-.678.074-.142.037-.211-.12-.192a2.563 2.563 0 00-.6.138c-.281.105-.556.23-.822.37-.292.154-.571.332-.853.503-.051.031-.089.081-.13.12l.29.384c.016-.008.031-.011.041-.02.229-.187.451-.382.687-.56.241-.182.492-.352.746-.515.119-.076.233.004.215.144-.012.097-.03.196-.063.288a8.738 8.738 0 01-.251.628c-.156.345-.317.688-.488 1.026-.068.135-.146.255-.015.391.009.01.011.027.017.04l.191.459zm-5.598.034l.044-.083c.087-.191.175-.382.257-.576.013-.031.004-.08-.011-.112-.039-.082-.091-.158-.13-.241-.193-.408-.392-.814-.57-1.229-.083-.193-.127-.403-.176-.608-.011-.045.014-.118.049-.151.051-.049.123-.051.19-.004.235.166.476.322.705.496.232.176.453.367.678.554.044.036.074.051.113-.009.062-.094.13-.184.2-.272.037-.046.046-.078-.008-.116-.143-.1-.278-.212-.428-.301-.211-.126-.434-.232-.648-.354a3.962 3.962 0 00-1.024-.386 1.331 1.331 0 00-.321-.033c-.075 0-.112.055-.082.13.031.077.067.153.107.226.154.285.33.56.459.856.131.301.228.619.32.936.083.288.142.584.207.877.028.122.044.247.069.4zm3.241-1.803c.186-.169.36-.329.536-.487.043-.038.071-.072.023-.127-.3-.347-.598-.696-.899-1.042-.055-.064-.129-.059-.181.001a80.78 80.78 0 00-.897 1.043c-.018.021-.021.085-.004.101.182.172.368.338.57.519.119-.4.212-.809.455-1.188l.397 1.18zm-.427 3.848c-.155.219-.272.425-.276.687-.005.347.01.692.076 1.033.029.153.073.304.117.453.008.028.055.061.083.061.027-.001.066-.036.078-.066.023-.053.032-.112.042-.169.049-.257.106-.512.14-.77.02-.154-.009-.315.005-.471.025-.286-.109-.51-.265-.758zM20 21.576l.034.016.233-.138c.314-.187.599-.406.758-.749.023-.05.036-.127.015-.172-.074-.157-.164-.307-.25-.458-.03-.054-.077-.063-.115-.016-.099.119-.212.233-.283.368-.164.311-.314.631-.357.988-.007.054-.023.107-.035.161zm2.489.021c.005-.041.016-.07.011-.096-.03-.138-.049-.28-.099-.411a7.528 7.528 0 00-.305-.709c-.057-.114-.152-.211-.239-.308-.069-.077-.124-.038-.167.041-.057.105-.123.206-.177.313-.04.079-.095.161-.049.257.214.439.602.683 1.025.913zm-.591-3.506c.025-.013.034-.015.038-.02.258-.338.517-.676.772-1.017a.128.128 0 00.006-.113 2.739 2.739 0 00-.186-.269c-.057-.074-.125-.102-.2-.02-.175.19-.352.378-.52.574-.03.035-.039.103-.033.153.019.152.05.302.076.453l.047.259zm-1.29.002c.045-.261.09-.51.129-.76a.155.155 0 00-.037-.11c-.179-.197-.362-.389-.543-.584-.054-.058-.104-.044-.148.007-.055.063-.105.13-.157.195-.116.148-.114.163.019.299.025.026.051.052.073.082.203.275.405.552.609.827.012.016.031.025.055.044zm.877-4.162c-.029-.148-.048-.274-.079-.397-.019-.075-.053-.144-.152-.144-.098 0-.133.067-.154.142-.1.345-.067.684.06 1.015.013.033.068.068.105.069.029.001.078-.044.086-.076.051-.207.093-.416.134-.609zm-.091 14.895c-.022-.16-.042-.326-.069-.491-.005-.027-.042-.067-.065-.067-.025 0-.068.034-.074.06-.068.286-.093.575-.014.863.007.026.055.058.083.057.028-.001.075-.034.08-.06.026-.115.04-.234.059-.362z"/>
        </g>
        <circle id="ellipse102" class="color-white" fill="#fff" cx="6.448" cy="21.175" r=".667" transform="rotate(-27.482 6.448 21.174)"/>
        <circle id="ellipse104" class="color-white" fill="#fff" cx="36.034" cy="21.175" r=".667" transform="rotate(-27.482 36.032 21.174)"/>
    </g>
</svg>
