<svg xmlns="http://www.w3.org/2000/svg" width="192" height="192" viewBox="0 0 192 192" xml:space="preserve">
  <g transform="translate(5.999 5.999) scale(4.23336)">
    <circle class="color-violet color-main" fill="#7d388d" cx="21.26" cy="21.26" r="22.677"/>
    <ellipse class="color-white" fill="#fff" cx="21.264" cy="21.245" rx="12.423" ry="12.683"/>
    <g class="color-white" fill="#fff">
      <path d="M3.141 18.438a1.801 1.84 0 0 1-.216-.216c-.074-.096-.109-.173-.102-.225.008-.051.085-.12.233-.209a.628.642 0 0 1 .704.03c.133.107.236.191.31.254.125.114.194.178.21.19.296.193.721.451 1.278.776.607.35.994.535 1.162.559a.683.697 0 0 0 .43-.079c.14-.098.219-.213.236-.346a.352.36 0 0 0-.127-.345.87.89 0 0 0-.252-.204c.213.03.363.112.452.246.087.136.114.323.083.562a1.016 1.037 0 0 1-.2.528c-.094.105-.244.143-.456.114-.113-.016-.325-.117-.635-.3a48.72 49.739 0 0 1-.918-.59 18.195 18.575 0 0 1-.534-.392l-.226.06c-.1.028-.198.059-.289.092a5.78 5.78 0 0 0-.719.253c-.24.104-.368.18-.38.227a1.062 1.084 0 0 0 .078.54 1.937 1.977 0 0 1-.341-.4c-.133-.185-.194-.31-.184-.378.013-.108.097-.191.249-.255.127-.056.366-.148.722-.27.294-.1.504-.18.628-.241a1.74 1.777 0 0 0-.222-.148.845.863 0 0 0-.33-.115.66.673 0 0 0-.644.282zm-.506-2.651c-.054.082-.159.107-.316.075-.081-.046-.106-.152-.073-.317.046-.087.149-.112.31-.079.084.056.11.162.079.321zm2.507 1.223a1.249 1.275 0 0 0-.077.188 3.197 3.263 0 0 0-.05.279 4.757 4.856 0 0 1-.06.271c-.023.084-.049.138-.077.16l-1.73-.477-.1-.488.544.151a1.635 1.669 0 0 0-.165-.32 1.716 1.752 0 0 1-.184-.369.608.62 0 0 1-.006-.35.968.989 0 0 1 .369-.443.59.603 0 0 1 .51-.089c.13.035.277.16.443.37.189.226.334.442.431.645.12.24.17.398.152.472zM3.6 16.458c-.03.116-.032.207-.004.274a1.03 1.05 0 0 0 .166.244.677.691 0 0 1 .146.204l.909.25a1.2 1.225 0 0 1 .026-.373.836.853 0 0 1 .124-.285c.018-.07-.045-.194-.19-.37-.134-.18-.27-.293-.407-.338a.46.47 0 0 0-.355.039 4.3 4.39 0 0 0-.274.185 11.716 11.961 0 0 1-.14.17zm-.585-3.19c-.052-.126-.074-.205-.065-.235.013-.032.042-.062.092-.09a.161.165 0 0 1 .11.001c.07.024.123.104.164.24.058.168.088.342.088.524a2.83 2.89 0 0 1-.116-.117l-.083-.083a1.024 1.045 0 0 1-.065-.067l-.125-.173zm2.143 2.114c.04.07.083.148.13.235a.55.561 0 0 1 .067.271l-1.626-.77c-.008-.051-.015-.101-.024-.15-.01-.05-.015-.092-.02-.128a1.294 1.32 0 0 1-.018-.163l.699.33a5.857 5.98 0 0 0-.128-.409 2.33 2.378 0 0 1-.158-.546.887.906 0 0 1 .07-.48c.103-.225.313-.355.633-.393.003-.01-.015-.095-.047-.253a2.708 2.764 0 0 1-.048-.372.855.873 0 0 1 .077-.33.55.561 0 0 1 .258-.284.84.857 0 0 1 .352-.1.64.654 0 0 1 .318.04c.113.055.237.18.37.378.134.224.238.439.311.643.078.235.11.414.098.537a2.326 2.374 0 0 1-.159-.423.958.978 0 0 0-.162-.346.937.957 0 0 0-.303-.212.56.571 0 0 0-.526.03c-.18.106-.298.215-.348.329-.057.124-.081.211-.073.262.016.046.062.086.134.12l.126.06a.842.86 0 0 1 .238.184c.035.046.125.242.268.59.136.321.2.567.195.736a2.34 2.39 0 0 1-.166-.445A1.28 1.307 0 0 0 5.543 14a.955.975 0 0 0-.302-.21.56.571 0 0 0-.526.03c-.18.106-.298.218-.352.337a.59.602 0 0 0-.015.53c.077.196.141.332.195.402zm.287-3.992.008-.133.006-.13.012-.17.604.474a2.525 2.578 0 0 0-.027-.44 4.352 4.443 0 0 1-.042-.562.93.949 0 0 1 .184-.443c.138-.185.367-.27.686-.254a.61.622 0 0 0 .015-.252 2.02 2.02 0 0 1 .039-.367.74.755 0 0 1 .14-.3.618.63 0 0 1 .312-.23.975.996 0 0 1 .363-.022c.136.023.237.06.306.115.109.084.2.236.271.453.087.232.144.462.174.69.024.238.019.42-.02.545a11.941 12.19 0 0 1-.064-.448.842.86 0 0 0-.078-.367 1.063 1.085 0 0 0-.257-.276.538.549 0 0 0-.517-.078c-.2.057-.339.135-.412.233-.087.115-.126.196-.12.245.011.059.045.11.1.153l.11.086a.702.716 0 0 1 .192.221c.035.089.08.3.135.635.066.36.077.615.033.763a2.83 2.89 0 0 1-.074-.45.908.926 0 0 0-.08-.376.9.92 0 0 0-.245-.265c-.146-.115-.317-.14-.516-.077-.202.056-.342.14-.421.246a.572.584 0 0 0-.116.373.9.9 0 0 0 .044.384c.025.111.045.172.058.182L8.59 13.38c.109.085.197.234.263.448.07.188.12.41.15.667.025.235.02.386-.013.453a4.584 4.68 0 0 1-.04-.412 2.343 2.392 0 0 0-.072-.36.735.75 0 0 0-.213-.263zm2.62-5.282c.004-.139.017-.217.04-.24.022-.024.061-.038.12-.042a.18.184 0 0 1 .099.05c.052.05.067.147.047.288a1.438 1.469 0 0 1-.137.51 1.67 1.705 0 0 1-.057-.156l-.04-.11a.718.733 0 0 1-.033-.09l-.04-.21zm2.345-.483c.205-.182.4-.373.585-.568a1.459 1.49 0 0 1-.177.62 1.226 1.251 0 0 1-.27.392L9.337 7.141c.047-.036.187-.093.42-.176.21-.064.455-.065.735-.004.297.054.584.243.863.571.367.433.521.852.464 1.257a1.728 1.764 0 0 1-.619 1.09c-.642.57-1.227.546-1.752-.072a1.21 1.235 0 0 1-.325-.776c-.014-.282.099-.528.336-.738a.742.758 0 0 1 .56-.18.695.695 0 0 1 .51.24.618.63 0 0 1 .06.737 1.074 1.097 0 0 0-.228-.536c-.143-.166-.289-.257-.44-.274a.65.664 0 0 0-.433.163c-.119.107-.19.273-.208.497-.031.224.045.444.226.658a1.113 1.137 0 0 0 .791.408 1.043 1.065 0 0 0 .836-.275c.508-.45.463-1.028-.134-1.732-.377-.444-.755-.697-1.134-.76a1.145 1.168 0 0 0-.516.045 1.333 1.36 0 0 0-.471.274c-.228.202-.358.405-.39.611-.02.21.009.466.089.77a1.208 1.233 0 0 1-.283-.677 1.486 1.486 0 0 1 .132-.698c.106-.216.255-.408.45-.58l.803-.71z"/>
      <path d="M13.353 3.881a9.09 9.09 0 0 0 .677-.452 1.49 1.521 0 0 1-.283.578 1.205 1.23 0 0 1-.336.336l-1.38.833c.053-.027.203-.057.447-.096.216-.023.456.02.722.13.281.108.53.347.747.72.285.494.365.934.235 1.323-.136.398-.403.719-.8.96-.735.442-1.304.31-1.712-.393a1.215 1.24 0 0 1-.184-.823c.037-.28.19-.5.462-.665a.742.758 0 0 1 .584-.075.704.72 0 0 1 .458.33.614.626 0 0 1-.07.736 1.054 1.076 0 0 0-.13-.57c-.11-.19-.238-.307-.383-.35a.653.667 0 0 0-.453.08c-.137.082-.236.233-.294.45-.072.215-.036.444.107.69a1.116 1.14 0 0 0 .705.548 1.042 1.063 0 0 0 .87-.118c.58-.348.636-.925.172-1.727-.291-.505-.62-.824-.98-.957a1.173 1.197 0 0 0-.517-.05 1.338 1.366 0 0 0-.51.183c-.26.156-.424.333-.49.528a2.114 2.159 0 0 0-.05.773 1.197 1.222 0 0 1-.158-.717c.023-.223.107-.444.252-.666.144-.19.324-.352.544-.486l.916-.552zm1.627-1.775c-.037-.093-.009-.158.085-.194a.196.2 0 0 1 .11-.005c.04.003.09.033.151.092a.937.957 0 0 1 .404.338l-.05-.006a6.52 6.655 0 0 0-.103-.008 1.838 1.876 0 0 1-.354-.06c-.131-.017-.211-.07-.244-.157zm.506-.32c-.053-.142-.034-.229.054-.264.091-.036.161.011.21.143.04.104.065.216.08.336a.702.716 0 0 1 0 .297l-.024-.025a.309.315 0 0 1-.03-.038l-.03-.046a1.34 1.369 0 0 1-.26-.404zm.55-.124c.037-.11.081-.177.137-.2.025-.009.065-.003.114.02a.138.141 0 0 1 .08.083c.022.058-.003.152-.078.282a1.646 1.646 0 0 1-.338.401c.004-.044.005-.078.01-.102l.006-.083a.787.803 0 0 1 .015-.176 1.196 1.221 0 0 1 .054-.225zm-.573 3.161a3.904 3.985 0 0 1-.096.25.524.535 0 0 1-.164.224l-.45-1.77.1-.114c.03-.04.06-.07.086-.099a1.173 1.197 0 0 1 .112-.118l.194.76c.019-.02.095-.14.229-.36.09-.178.195-.335.313-.472a.884.903 0 0 1 .407-.25c.235-.063.468.02.7.247a1.76 1.798 0 0 0 .16-.198 2.49 2.49 0 0 1 .251-.274.853.871 0 0 1 .3-.149.563.575 0 0 1 .379.024.855.873 0 0 1 .3.211.637.65 0 0 1 .171.277c.031.124.014.301-.051.53a3.524 3.598 0 0 1-.289.655c-.129.211-.242.35-.344.417.058-.132.131-.264.22-.394a.98 1.001 0 0 0 .158-.345 1.017 1.038 0 0 0-.034-.371.56.572 0 0 0-.356-.397c-.195-.075-.352-.097-.47-.065-.13.035-.211.07-.245.11-.025.04-.026.102-.006.183l.035.136a.815.832 0 0 1 .013.304c-.013.057-.105.252-.275.585-.157.312-.302.52-.434.624a2.39 2.39 0 0 1 .232-.415 1.237 1.262 0 0 0 .146-.325.962.982 0 0 0-.035-.37.555.567 0 0 0-.355-.396c-.195-.075-.355-.097-.478-.064a.586.599 0 0 0-.41.325 1.917 1.957 0 0 0-.182.41zm3.214-2.311.106-.078.101-.078.136-.098.026.777a2.82 2.82 0 0 0 .317-.301c.18-.191.312-.322.396-.392a.95.97 0 0 1 .451-.135c.23-.007.438.119.63.38a.688.702 0 0 0 .2-.148c.11-.087.21-.155.304-.203a.746.762 0 0 1 .314-.079.61.622 0 0 1 .373.098.928.947 0 0 1 .248.274.673.687 0 0 1 .108.314c.006.14-.054.306-.172.502a3.115 3.115 0 0 1-.413.575 1.394 1.423 0 0 1-.424.33 8.736 8.919 0 0 1 .3-.335.874.892 0 0 0 .228-.295 1.063 1.085 0 0 0 .046-.377c-.005-.188-.096-.34-.27-.457-.173-.121-.318-.18-.437-.177-.143.004-.23.025-.261.061a.247.252 0 0 0-.053.177l.005.141a.687.701 0 0 1-.044.292c-.045.084-.176.254-.393.51-.23.282-.417.452-.557.512.049-.073.147-.188.294-.345a.918.938 0 0 0 .233-.302.921.94 0 0 0 .048-.361.54.55 0 0 0-.271-.457c-.172-.121-.323-.18-.454-.177a.596.608 0 0 0-.356.146.895.914 0 0 0-.263.278c-.07.088-.103.142-.103.159l.1 3.01c.004.14-.054.304-.172.494a2.74 2.797 0 0 1-.409.54c-.162.169-.279.26-.35.277.071-.082.167-.18.286-.292a2.21 2.21 0 0 0 .225-.286.759.774 0 0 0 .064-.336zm5.238 1.123c.038-.14.14-.286.314-.438.195-.178.382-.32.561-.423.19-.101.356-.162.501-.183a6.296 6.427 0 0 1-.383.233 1.279 1.305 0 0 0-.306.215.917.936 0 0 0-.153.347c-.05.173-.006.346.126.519.126.163.247.26.363.293.147.042.238.051.27.028.048-.028.082-.08.102-.154l.037-.133a.695.71 0 0 1 .123-.265c.085-.077.263-.203.53-.379.304-.19.53-.294.68-.314a1.99 1.99 0 0 1-.387.242.99 1.01 0 0 0-.304.216.996 1.016 0 0 0-.153.339c-.046.173-.004.345.126.518.126.162.254.263.383.299.118.033.25.028.395-.018a1.422 1.452 0 0 0 .335-.19.65.664 0 0 0 .145-.132l.157-.59c.01-.037.064-.092.157-.164a1.295 1.322 0 0 1 .38-.185l-1.048 3.886c-.03.118-.132.254-.304.41a3.56 3.56 0 0 1-.576.367 1.662 1.697 0 0 1-.452.182 2.97 2.97 0 0 1 .337-.216 1.331 1.36 0 0 0 .32-.211.477.487 0 0 0 .166-.275l.806-2.997a2.15 2.194 0 0 0-.391.195 2.993 3.056 0 0 1-.492.244.83.848 0 0 1-.474.004c-.22-.061-.382-.25-.486-.563a1.384 1.413 0 0 0-.227.083 2.855 2.915 0 0 1-.356.1.712.727 0 0 1-.326-.012.607.62 0 0 1-.417-.369.67.683 0 0 1-.079-.509zm5.549.875a1.82 1.82 0 0 1 .268-.145c.114-.042.193-.054.242-.029.044.022.085.12.124.29a.616.63 0 0 1-.053.447.666.68 0 0 1-.19.229c-.142.096-.253.17-.332.22a12.074 12.326 0 0 0-.242.147c-.27.229-.643.563-1.116 1.004-.512.483-.804.804-.877.96a.695.71 0 0 0-.059.441c.05.166.132.278.251.336a.35.35 0 0 0 .362-.018.891.891 0 0 0 .266-.181c-.093.198-.216.318-.367.362-.153.043-.336.014-.548-.091a.99 1.01 0 0 1-.43-.358c-.071-.122-.06-.28.032-.477.048-.105.207-.28.474-.526.097-.088.373-.325.831-.712.296-.228.473-.36.531-.398l.012-.24a3.779 3.858 0 0 0 .005-.308 6.239 6.37 0 0 0-.017-.777c-.023-.267-.055-.413-.096-.44a1.044 1.066 0 0 0-.53-.088 1.9 1.9 0 0 1 .481-.212c.212-.069.348-.09.41-.06.096.045.148.153.16.32.014.14.025.401.03.783.002.32.013.548.032.686a1.53 1.563 0 0 0 .205-.17.867.885 0 0 0 .209-.286.657.67 0 0 0-.068-.71zm2.907-.066c.131-.029.211-.036.237-.02.028.016.053.052.07.107a.184.188 0 0 1-.024.111c-.034.065-.122.104-.261.12a1.476 1.507 0 0 1-.518-.01c.014-.012.058-.044.134-.095.042-.027.073-.051.095-.068.023-.016.048-.034.077-.052l.19-.093zm.104 1.646c.11.081.28.178.507.29.233.119.376.2.43.24a.773.79 0 0 1 .219.23l-1.134 1.6-.402-.175.456-.645a2.071 2.114 0 0 0-.421.054 3.898 3.98 0 0 1-.54.046.779.795 0 0 1-.443-.154.634.647 0 0 1-.163-.243.838.856 0 0 1-.104-.503c-.392.076-.692.037-.9-.117a.566.578 0 0 1-.249-.485c-.012-.22.02-.384.096-.494a.786.802 0 0 1 .273-.261 1.92 1.92 0 0 1 .262-.108c.06-.001.128-.008.206-.022.337-.102.584-.14.738-.115a.926.946 0 0 1 .416.165l.132.123.203.192c.131.137.27.264.418.382zm-1.026-.593c-.189-.139-.373-.182-.553-.13a.817.834 0 0 0-.462.308.557.568 0 0 0-.085.476c.042.185.095.31.158.376l.11.128a.51.52 0 0 0 .282.078c.15-.212.261-.346.336-.401a1.055 1.077 0 0 1 .438-.152c.107-.02.204-.04.286-.063l.222-.058zm1.59 1.095a2.011 2.053 0 0 0-.795-.38c-.243-.046-.458.063-.644.324a.65.664 0 0 0-.095.448.59.59 0 0 0 .251.465.631.644 0 0 0 .266.122.687.701 0 0 0 .3-.025c.14-.028.236-.043.286-.047l.421-.596a.2.205 0 0 1 .07-.049.303.31 0 0 1 .082-.055l.035-.032.026-.023zm4.237 1.488c.656.002 1.048.087 1.168.254.068.093-.006.254-.224.485a5.173 5.28 0 0 1-.553.558c-.06.06-.257.235-.588.524-.306.243.072-.086-.156.159a8.776 8.96 0 0 0-.755.901 5.8 5.8 0 0 1-.239.316c-.152.183-.237.313-.259.39a.25.256 0 0 0 .041.246.534.545 0 0 0 .205.159l.069.044.05.032.024.01.02.01a.03.03 0 0 0 .022.014l.095.072c-.414.097-.742-.022-.985-.352-.16-.219-.2-.418-.119-.598.079-.167.241-.381.485-.643.232-.256.38-.46.446-.618a7.877 7.877 0 0 1-.34.025l-.44.026c-.503.04-.876.043-1.117.01-.302-.022-.502-.101-.602-.24-.095-.13-.022-.287.222-.474a.753.769 0 0 1 .761-.067.474.484 0 0 1-.111.062l-.117.09c-.134.1-.163.204-.088.307.074.1.225.159.454.177.244.015.388.015.43.001a5.784 5.905 0 0 1 .594-.037 3.048 3.111 0 0 1 .226-.015c.065-.002.136-.006.205-.01a.623.636 0 0 0 .208-.094l.11-.091.161-.139.258-.23c.097-.088.164-.149.197-.183.095-.082-.348.311-.036.026a4.64 4.736 0 0 0 .32-.292c.33-.337.467-.546.407-.626a.282.288 0 0 0-.115-.087 1.823 1.861 0 0 0-.1-.037.753.769 0 0 1-.083-.034 1.902 1.941 0 0 0-.151-.031zm1.408 3.616c.086-.052.152-.034.2.053a.213.217 0 0 1 .025.11c.004.04-.018.095-.065.166a.908.926 0 0 1-.259.463l-.001-.051-.01-.107a1.883 1.922 0 0 1-.002-.365c-.004-.131.032-.221.112-.27zm.394.457c.126-.077.216-.073.263.01.05.087.016.165-.103.236a1.364 1.392 0 0 1-.31.136.725.74 0 0 1-.287.048l.019-.029.032-.037.04-.039a1.268 1.294 0 0 1 .346-.325zm.21.533c.114.018.186.052.216.103.015.025.013.065 0 .12a.138.141 0 0 1-.067.095c-.054.031-.149.022-.285-.032a1.655 1.69 0 0 1-.445-.274 2.006 2.048 0 0 0 .18-.015.664.678 0 0 1 .172-.014 1.231 1.257 0 0 1 .23.017z"/>
      <path d="M36.015 13.363a1.043 1.065 0 0 0-.067-.19 2.343 2.392 0 0 0-.147-.24 3.43 3.503 0 0 1-.132-.243c-.04-.079-.055-.136-.049-.172l1.597-.83.394.295-.502.262c.053.031.164.073.335.124.13.033.258.083.377.148a.633.646 0 0 1 .237.257c.063.188.068.382.018.58a.592.604 0 0 1-.32.416c-.119.062-.31.072-.571.029a3.1 3.165 0 0 1-.744-.184c-.25-.101-.393-.184-.426-.252zm1.506-.644c-.054-.107-.113-.174-.18-.205a1.135 1.159 0 0 0-.282-.069.612.625 0 0 1-.24-.051l-.84.435a1.138 1.162 0 0 1 .227.296.889.889 0 0 1 .096.295c.03.064.16.112.382.146.218.04.392.03.527-.029a.465.474 0 0 0 .237-.27 5.27 5.27 0 0 0 .08-.326 3.77 3.848 0 0 1-.007-.222zm2.535 2.002c.124.058.19.101.203.13.013.032.01.075-.009.13a.182.185 0 0 1-.083.075c-.067.029-.16.007-.279-.068a1.485 1.516 0 0 1-.407-.328 2.66 2.66 0 0 1 .16.007l.119.006a.813.83 0 0 1 .093.005c.003-.001.072.014.203.043zm-2.988-.133a5.07 5.176 0 0 1-.249-.087.512.523 0 0 1-.226-.156l1.712-.54.116.096a4.036 4.12 0 0 1 .223.192l-.737.231c.02.018.14.09.363.217.177.085.336.184.475.298a.889.907 0 0 1 .263.405c.07.236 0 .478-.211.724.005.01.071.061.2.157.098.073.192.153.28.243a.85.868 0 0 1 .159.297.56.571 0 0 1-.005.387.836.853 0 0 1-.194.317.631.644 0 0 1-.264.185c-.12.038-.294.028-.522-.029a3.49 3.562 0 0 1-.653-.262c-.21-.12-.353-.233-.424-.332.133.054.266.121.396.207.156.091.27.14.345.145a.944.964 0 0 0 .362-.05.563.575 0 0 0 .371-.381c.064-.202.079-.364.042-.483-.04-.13-.078-.213-.116-.244-.042-.022-.102-.022-.18.002l-.13.042a.82.838 0 0 1-.3.026c-.054-.008-.25-.092-.584-.253-.313-.146-.523-.285-.63-.415.168.07.307.143.416.217a1.254 1.28 0 0 0 .327.136.975.996 0 0 0 .361-.051.56.572 0 0 0 .372-.38c.063-.202.077-.366.039-.491a.586.599 0 0 0-.336-.404 1.926 1.966 0 0 0-.41-.166zm.078 5.485c-.09-.017-.225-.088-.407-.21a2.89 2.95 0 0 1-.454-.435.9.92 0 0 1-.234-.482.624.637 0 0 1 .179-.554c.145-.171.294-.268.448-.287a1.368 1.397 0 0 1 .423.004 1.07 1.092 0 0 1 .35.169l.265.177c-.02-.157-.008-.273.035-.35.046-.083.153-.137.322-.16.2-.025.525.085.98.333.411.214.848.49 1.303.821.43.31.676.512.735.602a6.916 7.06 0 0 1-.245-.143l-.23-.14a19.105 19.504 0 0 0-.458-.258l-.289-.155a4.857 4.959 0 0 0-.734-.325c-.218-.09-.397-.124-.54-.105-.29.039-.421.18-.39.422a.187.19 0 0 0 .02.056.238.243 0 0 0 .028.097.36.368 0 0 1 .02.083 1.26 1.286 0 0 1-.342-.286 1.85 1.889 0 0 0-.367-.361.693.708 0 0 0-.43-.064c-.142.018-.28.114-.416.284a.718.733 0 0 0-.163.542.604.617 0 0 0 .107.301c.04.057.12.133.24.227a1.273 1.3 0 0 1 .244.197zm2.169 4.413c.063.054.132.128.212.222.073.098.104.174.095.228-.009.05-.087.119-.236.203a.649.662 0 0 1-.706-.047c-.13-.11-.23-.198-.302-.263a6.818 6.961 0 0 0-.207-.195c-.291-.2-.71-.47-1.258-.809-.6-.363-.982-.558-1.15-.586a.7.715 0 0 0-.431.066c-.141.096-.222.21-.245.342a.355.362 0 0 0 .119.35.943.962 0 0 0 .248.209c-.212-.035-.36-.12-.444-.258-.086-.135-.109-.324-.07-.562a.991 1.012 0 0 1 .213-.523c.096-.102.248-.137.458-.102.112.019.32.124.628.315.11.07.412.274.904.611.3.226.474.361.527.407l.226-.056c.101-.026.199-.054.292-.084.271-.07.512-.15.725-.236.244-.099.373-.17.385-.218a1.038 1.06 0 0 0-.067-.542c.114.101.225.238.334.41.126.188.182.315.172.383-.015.106-.102.19-.255.247a9.634 9.634 0 0 1-.726.253 6.196 6.196 0 0 0-.634.224 1.5 1.5 0 0 0 .218.154.837.855 0 0 0 .328.123.657.67 0 0 0 .647-.266zm.453 2.639c.055-.082.161-.103.315-.067.082.049.105.154.067.318-.048.086-.152.11-.313.072-.081-.058-.104-.164-.07-.323zm-2.482-1.277a.964.985 0 0 0 .078-.186c.016-.054.032-.148.05-.278a3.914 3.996 0 0 1 .065-.27c.023-.084.05-.138.078-.16l1.726.493.096.49-.543-.156c.018.06.072.167.164.322.074.116.135.24.18.37a.612.625 0 0 1 .003.353.975.996 0 0 1-.371.44.599.611 0 0 1-.511.084c-.13-.037-.276-.162-.442-.375a3.193 3.26 0 0 1-.425-.65c-.12-.243-.17-.402-.148-.477zm1.535.569c.031-.115.033-.206.005-.273a1.01 1.032 0 0 0-.163-.246.647.661 0 0 1-.144-.206l-.908-.26a1.143 1.167 0 0 1-.028.374.84.857 0 0 1-.126.283c-.019.07.043.192.186.373.132.18.268.295.406.342a.45.45 0 0 0 .352-.036c.034-.017.126-.079.276-.183a7.44 7.44 0 0 1 .144-.168zm.499 3.248c.05.129.07.206.06.235-.012.032-.043.062-.094.088a.165.169 0 0 1-.109-.004c-.067-.026-.12-.106-.158-.244a1.457 1.488 0 0 1-.076-.524c.013.01.05.05.114.118.034.038.062.065.081.085.019.02.04.041.064.069 0 .004.04.064.119.177zm-2.082-2.197c-.037-.07-.08-.148-.124-.237a.53.54 0 0 1-.06-.274l1.609.807.02.15c.008.05.013.093.016.13a1.19 1.214 0 0 1 .015.163l-.692-.347c.003.028.042.165.12.412.072.186.12.368.145.55a.87.888 0 0 1-.08.478c-.108.222-.32.35-.64.379-.003.012.012.097.04.254.022.122.037.246.041.372a.87.888 0 0 1-.083.33.553.564 0 0 1-.264.276.845.863 0 0 1-.353.094.627.64 0 0 1-.317-.05c-.113-.057-.232-.185-.36-.384a3.446 3.518 0 0 1-.297-.65c-.073-.237-.102-.416-.087-.538.061.131.111.274.15.427a.989 1.01 0 0 0 .154.349c.067.078.168.15.298.215a.558.57 0 0 0 .525-.018c.183-.102.302-.208.356-.322.059-.123.086-.21.08-.261-.016-.046-.06-.086-.132-.123l-.124-.063a.82.838 0 0 1-.235-.189c-.036-.046-.12-.243-.256-.595-.13-.325-.189-.572-.18-.742.075.167.127.318.158.45a1.268 1.294 0 0 0 .146.326.962.982 0 0 0 .298.215.554.566 0 0 0 .526-.018c.183-.102.303-.211.359-.329a.592.604 0 0 0 .027-.53 1.927 1.968 0 0 0-.187-.406zm-.381 3.999c-.004.05-.007.095-.012.134l-.008.13-.014.17-.593-.488a2.682 2.738 0 0 0 .018.44c.024.266.033.453.03.564a.958.978 0 0 1-.194.438c-.143.183-.373.261-.693.238a.623.636 0 0 0-.021.252c-.007.14-.022.262-.048.366a.744.76 0 0 1-.146.296.608.62 0 0 1-.315.224.986 1.007 0 0 1-.366.014.699.714 0 0 1-.302-.122c-.106-.088-.194-.242-.26-.46a3.065 3.13 0 0 1-.159-.695 1.45 1.481 0 0 1 .031-.544c.014.076.032.225.055.449a.878.896 0 0 0 .069.37c.057.096.14.19.25.281a.538.549 0 0 0 .515.089c.203-.053.343-.127.417-.221.09-.114.131-.194.126-.244a.248.253 0 0 0-.097-.156l-.107-.087a.708.723 0 0 1-.187-.226 4.15 4.237 0 0 1-.122-.637c-.057-.361-.063-.617-.015-.763.023.084.045.235.062.452a.94.96 0 0 0 .073.377.947.967 0 0 0 .239.273c.143.117.315.146.516.088.202-.052.345-.131.428-.235a.582.595 0 0 0 .124-.37.894.913 0 0 0-.035-.385c-.023-.11-.042-.171-.055-.181l-2.3-1.888c-.107-.087-.191-.239-.254-.454a2.602 2.656 0 0 1-.134-.67c-.02-.235-.012-.386.023-.452.014.11.023.248.029.414.008.102.03.222.063.36a.752.767 0 0 0 .208.267zm-2.732 5.217c-.01.137-.023.217-.045.24-.024.024-.065.037-.123.04a.179.183 0 0 1-.097-.052c-.052-.052-.064-.15-.041-.29.02-.177.07-.346.149-.508.008.015.026.068.053.157a1.276 1.303 0 0 0 .039.112l.028.09.037.211zm-2.355.427a8.56 8.74 0 0 0-.598.556c.029-.25.092-.455.19-.615a1.219 1.245 0 0 1 .279-.386l1.235-1.044c-.049.035-.19.09-.425.166-.21.06-.454.055-.733-.013-.297-.06-.578-.257-.85-.591-.358-.44-.503-.863-.437-1.268.072-.417.288-.776.644-1.076.654-.555 1.238-.517 1.748.112a1.205 1.23 0 0 1 .31.781c.006.282-.112.526-.354.73a.737.752 0 0 1-.565.168.702.716 0 0 1-.504-.25.619.632 0 0 1-.142-.398.638.651 0 0 1 .096-.343 1.092 1.115 0 0 0 .217.544c.136.169.281.263.433.285a.65.664 0 0 0 .435-.154c.123-.102.196-.268.22-.492.037-.223-.033-.444-.212-.664a1.108 1.131 0 0 0-.782-.426 1.043 1.065 0 0 0-.84.256c-.518.438-.487 1.015.096 1.733.367.452.738.713 1.117.787a1.151 1.175 0 0 0 .517-.034 1.34 1.368 0 0 0 .477-.264c.232-.196.367-.397.402-.601.028-.21.002-.468-.071-.772a1.21 1.236 0 0 1 .268.685 1.5 1.5 0 0 1-.148.695 1.873 1.912 0 0 1-.462.57l-.818.693z"/>
      <path d="M28.792 38.789a8.745 8.927 0 0 0-.686.437c.072-.241.17-.432.295-.572a1.205 1.23 0 0 1 .343-.327l1.398-.8a2.221 2.268 0 0 1-.447.083 1.482 1.513 0 0 1-.72-.148c-.28-.113-.524-.359-.731-.737-.274-.499-.343-.941-.206-1.327.145-.397.419-.71.822-.942.742-.424 1.31-.28 1.701.433a1.207 1.232 0 0 1 .166.826c-.042.279-.2.497-.476.655a.74.755 0 0 1-.585.06.702.716 0 0 1-.451-.34.64.64 0 0 1-.069-.414.605.618 0 0 1 .156-.32 1.086 1.109 0 0 0 .118.574c.104.191.23.311.375.36a.656.67 0 0 0 .456-.07c.138-.08.24-.227.304-.445.074-.212.043-.443-.092-.69a1.12 1.144 0 0 0-.694-.565 1.039 1.06 0 0 0-.87.097c-.589.336-.658.91-.212 1.723.282.511.601.839.96.979a1.178 1.203 0 0 0 .516.063c.175-.02.347-.077.515-.171.263-.152.43-.324.502-.519.063-.202.084-.459.067-.771.123.249.17.49.142.721a1.479 1.479 0 0 1-.267.657 1.842 1.88 0 0 1-.557.475l-.926.53zm-2.736 2.155c-.038.111-.085.176-.14.195-.025.01-.064.002-.114-.022a.129.131 0 0 1-.077-.086c-.022-.058.008-.152.084-.279a1.76 1.798 0 0 1 .346-.394l-.01.102-.009.083a.763.779 0 0 1-.019.176 1.131 1.155 0 0 1-.06.225zm.554-.11c.05.142.03.23-.06.262-.093.034-.159-.015-.205-.148a1.354 1.383 0 0 1-.072-.336.708.723 0 0 1 .007-.297l.024.025a.557.568 0 0 1 .057.086 1.3 1.327 0 0 1 .25.408zm.515-.309c.033.094.003.158-.09.191a.192.196 0 0 1-.108.004c-.04-.004-.09-.036-.149-.095a.948.968 0 0 1-.208-.131.79.806 0 0 1-.187-.216.5.51 0 0 1 .05.007l.103.01c.085.005.203.028.352.067.126.02.206.075.237.163zm-.427-2.728c.029-.073.064-.156.102-.247a.542.553 0 0 1 .17-.222l.41 1.78-.1.112-.089.095a1.143 1.167 0 0 1-.115.115l-.176-.764a4.906 5.008 0 0 0-.235.353c-.095.176-.202.33-.324.465a.861.88 0 0 1-.413.24c-.237.056-.468-.032-.692-.265-.011.006-.067.07-.167.194a2.616 2.67 0 0 1-.257.268.88.899 0 0 1-.302.143.56.571 0 0 1-.377-.032.857.875 0 0 1-.295-.219.61.622 0 0 1-.164-.28c-.029-.125-.008-.302.064-.529a3.59 3.664 0 0 1 .302-.647c.134-.207.252-.344.353-.41a2.387 2.387 0 0 1-.227.39 1.025 1.047 0 0 0-.168.342 1.002 1.023 0 0 0 .025.372.558.57 0 0 0 .348.404c.194.08.35.105.468.076.13-.032.214-.066.249-.104.024-.041.027-.1.008-.182l-.031-.137a.838.856 0 0 1-.006-.306c.014-.055.109-.249.288-.578.164-.308.314-.513.448-.612-.079.166-.16.301-.241.41a1.246 1.272 0 0 0-.153.321.941.961 0 0 0 .024.372.56.572 0 0 0 .348.404c.193.079.352.104.477.073a.58.592 0 0 0 .417-.315c.105-.184.168-.318.19-.405zm-3.271 2.236-.107.076a6.93 7.074 0 0 0-.104.076l-.137.096-.008-.779a2.648 2.648 0 0 0-.324.295 4.838 4.94 0 0 1-.406.38.947.967 0 0 1-.455.124c-.229.002-.435-.128-.62-.395a.653.667 0 0 0-.204.144 1.953 1.994 0 0 1-.307.196.737.752 0 0 1-.318.072.614.626 0 0 1-.37-.107.958.978 0 0 1-.241-.279.658.672 0 0 1-.1-.315c0-.14.06-.306.184-.498.127-.212.268-.401.425-.564a1.395 1.424 0 0 1 .434-.32 10.904 11.131 0 0 1-.307.328.887.906 0 0 0-.235.288 1.019 1.04 0 0 0-.054.377.54.55 0 0 0 .258.464c.17.125.314.189.434.188.142-.002.23-.02.264-.054a.244.249 0 0 0 .057-.176l-.003-.141a.77.77 0 0 1 .051-.292c.048-.083.182-.25.405-.5.239-.276.427-.443.57-.498a2.892 2.952 0 0 1-.303.337.948.968 0 0 0-.24.298.905.924 0 0 0-.054.36.536.548 0 0 0 .26.462c.168.128.319.19.45.188a.582.595 0 0 0 .359-.135.921.94 0 0 0 .27-.273.565.577 0 0 0 .103-.159l-.033-3.013c-.001-.14.06-.301.182-.49.101-.172.242-.348.422-.529.165-.164.285-.254.358-.27a4.556 4.652 0 0 1-.296.287 2.32 2.32 0 0 0-.231.28.761.777 0 0 0-.072.334zm-5.247-1.228c-.042.138-.153.28-.329.427a3.278 3.346 0 0 1-.576.401 1.612 1.646 0 0 1-.508.164c.08-.052.212-.125.393-.219a1.254 1.28 0 0 0 .313-.205.928.947 0 0 0 .167-.34c.052-.171.017-.345-.106-.522-.122-.168-.238-.27-.354-.307-.144-.047-.235-.06-.27-.038-.048.027-.083.076-.106.15l-.04.13a.688.702 0 0 1-.135.261 4.778 4.778 0 0 1-.544.358c-.31.177-.54.274-.691.288.131-.096.263-.17.394-.227a1.019 1.04 0 0 0 .313-.203.993 1.014 0 0 0 .164-.334c.053-.171.017-.345-.106-.522a.787.803 0 0 0-.372-.313.704.72 0 0 0-.397.002 1.428 1.457 0 0 0-.339.178c-.095.07-.145.11-.149.127l-.18.582c-.012.038-.066.092-.162.16a1.268 1.294 0 0 1-.388.17l1.187-3.843c.036-.116.142-.25.32-.4.203-.144.398-.258.589-.343a1.66 1.66 0 0 1 .459-.166 2.697 2.753 0 0 1-.344.203 1.405 1.405 0 0 0-.33.2.478.488 0 0 0-.174.27l-.916 2.963c.063-.013.195-.072.398-.18.218-.115.385-.19.5-.224a.832.849 0 0 1 .474.014c.218.07.373.264.466.58a1.273 1.3 0 0 0 .23-.074 2.899 2.96 0 0 1 .36-.085.748.763 0 0 1 .326.024.603.615 0 0 1 .403.386c.089.184.109.354.06.507zm-5.473-1.012a1.856 1.894 0 0 1-.271.138c-.114.04-.195.05-.241.025-.045-.023-.084-.12-.118-.292a.637.65 0 0 1 .259-.67c.142-.093.253-.163.335-.215.148-.083.23-.13.244-.142a32.95 32.95 0 0 0 1.138-.978c.521-.471.82-.784.897-.939a.736.736 0 0 0 .067-.44c-.046-.167-.126-.28-.243-.34a.354.36 0 0 0-.36.009.962.982 0 0 0-.272.175c.098-.195.223-.313.376-.354.153-.041.335-.005.547.104a.994 1.015 0 0 1 .422.367c.068.124.053.282-.043.475-.053.105-.213.277-.485.516a39.55 40.377 0 0 1-.846.693c-.301.221-.481.35-.54.387l-.017.238a3.286 3.355 0 0 0-.01.308 5.911 6.034 0 0 0 0 .776c.018.267.045.415.087.442a1.052 1.074 0 0 0 .527.101 1.92 1.96 0 0 1-.484.2c-.212.064-.35.081-.41.05-.095-.048-.146-.156-.154-.323a9.116 9.306 0 0 1-.014-.784 5.81 5.932 0 0 0-.018-.684 1.77 1.807 0 0 0-.208.164.825.842 0 0 0-.214.282.654.668 0 0 0 .049.711zm-2.93-.013c-.131.025-.211.03-.238.014-.029-.018-.05-.055-.068-.11a.187.19 0 0 1 .024-.11c.038-.065.127-.1.266-.112a1.476 1.507 0 0 1 .517.021 1.35 1.377 0 0 1-.135.093 1.829 1.867 0 0 0-.097.066c-.023.015-.048.033-.08.051l-.19.086zm-.061-1.646a3.53 3.604 0 0 0-.501-.303 4.268 4.268 0 0 1-.426-.25.775.791 0 0 1-.212-.234l1.169-1.572.398.185-.47.633c.055.008.196-.005.421-.043a3.63 3.63 0 0 1 .54-.033.753.753 0 0 1 .44.165.615.628 0 0 1 .158.246.83.848 0 0 1 .092.505c.393-.067.692-.023.895.138a.58.58 0 0 1 .239.49c.008.222-.027.385-.107.492a.787.803 0 0 1-.28.255 1.799 1.836 0 0 1-.265.101c-.06 0-.128.006-.207.017-.339.094-.586.126-.74.097a.895.914 0 0 1-.411-.174 34.584 35.307 0 0 1-.129-.128l-.198-.196a4.543 4.638 0 0 0-.406-.391zm-.553-.515c.277.213.538.347.786.398.242.053.46-.05.651-.31a.637.65 0 0 0 .105-.443.573.585 0 0 0-.239-.47.64.653 0 0 0-.262-.129.684.698 0 0 0-.302.018 3.965 4.047 0 0 1-.288.04l-.436.585a.167.17 0 0 1-.072.047.305.311 0 0 1-.082.054l-.037.03-.024.024zm1.566 1.133c.184.144.369.19.551.144a.818.835 0 0 0 .466-.3.554.566 0 0 0 .096-.472c-.036-.187-.086-.314-.15-.379l-.107-.131a.519.53 0 0 0-.28-.083 2.02 2.062 0 0 1-.344.392 1.043 1.065 0 0 1-.44.141 4.222 4.222 0 0 0-.289.056l-.225.052zm-6.054-2.615c-.657-.018-1.046-.112-1.164-.282-.066-.096-.003-.273.236-.481.005-.005.444-.336.783-.617a7.24 7.24 0 0 0 .818-.715c.207-.195.464-.49.776-.884a7.85 7.85 0 0 1 .246-.31c.156-.18.246-.308.267-.382a.255.26 0 0 0-.034-.25.542.553 0 0 0-.201-.163 1.31 1.337 0 0 0-.068-.045l-.049-.033-.026-.01a.05.051 0 0 1-.019-.01c-.006-.01-.013-.014-.021-.015a1.417 1.446 0 0 0-.094-.075c.417-.084.742.04.977.377.154.222.19.421.104.6-.083.164-.25.376-.5.63-.237.25-.391.452-.46.607a37.83 38.621 0 0 1 .779-.032c.506-.027.877-.022 1.117.018.3.03.501.114.597.253.094.133.015.29-.234.47a.764.78 0 0 1-.36.13.702.716 0 0 1-.401-.081.444.454 0 0 1 .112-.06l.12-.087c.136-.098.169-.2.096-.305-.07-.101-.221-.165-.449-.188-.245-.022-.387-.026-.43-.013-.243.02-.442.028-.596.024a3.6 3.675 0 0 1-.227.01l-.204.005a.616.63 0 0 0-.21.09 2.487 2.539 0 0 1-.114.087l-.164.134a34.937 35.668 0 0 0-.466.401 66.726 68.12 0 0 0-.945.819c.005-.004-.096.1-.038.181a.27.277 0 0 0 .114.09l.099.037a.978.998 0 0 1 .08.036 1.3 1.3 0 0 0 .153.039zm-1.62-4.749c-.114-.019-.185-.056-.213-.107-.014-.025-.012-.064.003-.12a.135.138 0 0 1 .069-.092c.053-.03.149-.018.284.039a1.7 1.7 0 0 1 .439.282l-.1.007a6.18 6.31 0 0 1-.08.004.656.67 0 0 1-.173.01 1.182 1.207 0 0 1-.23-.023zm.199.538c-.13.074-.218.068-.264-.016-.048-.087-.013-.165.108-.233.095-.054.2-.096.313-.128a.71.725 0 0 1 .288-.042l-.021.028a.223.228 0 0 1-.033.037l-.04.038a1.27 1.296 0 0 1-.351.316zm.384.466c-.085.05-.151.03-.199-.056a.203.207 0 0 1-.021-.11c-.004-.041.019-.096.067-.166a.853.871 0 0 1 .091-.23.798.814 0 0 1 .175-.226l.003.051a2.169 2.214 0 0 1 .002.47c.002.133-.038.222-.118.267z"/>
      <path d="M6.345 28.788a1.078 1.1 0 0 0 .063.191c.025.051.072.133.143.243.042.075.082.158.125.248.038.079.052.138.044.173l-1.615.792-.387-.301.51-.25a1.617 1.651 0 0 0-.333-.13 1.564 1.597 0 0 1-.375-.158.616.63 0 0 1-.23-.262.98 1.001 0 0 1-.004-.58.593.606 0 0 1 .329-.408c.12-.06.312-.065.572-.015.288.045.535.112.74.2.246.101.385.187.418.257zm-1.521.609c.051.108.11.177.173.208a1.097 1.12 0 0 0 .282.075.664.678 0 0 1 .24.057l.85-.416a1.128 1.152 0 0 1-.22-.3.852.87 0 0 1-.09-.298c-.031-.063-.156-.115-.38-.155-.216-.045-.392-.04-.526.017a.46.47 0 0 0-.243.265 4.812 4.812 0 0 0-.09.324c.005.072.005.147.004.223zm-2.493-2.059c-.119-.061-.187-.107-.199-.134-.012-.032-.008-.075.012-.13a.157.16 0 0 1 .084-.07c.067-.029.16-.005.278.072.153.087.284.2.4.336a1.486 1.517 0 0 1-.162-.01c-.05-.005-.089-.006-.116-.008a1.464 1.495 0 0 1-.094-.008 7.313 7.466 0 0 0-.203-.048zm2.982.197c.074.027.157.057.247.093a.542.553 0 0 1 .224.162l-1.724.499-.114-.098-.098-.084a1.26 1.286 0 0 1-.119-.112l.741-.215a5.49 5.604 0 0 0-.358-.225 2.3 2.348 0 0 1-.468-.309.868.886 0 0 1-.253-.41c-.067-.238.009-.477.227-.72a2.104 2.147 0 0 0-.198-.16 2.587 2.641 0 0 1-.273-.249.898.917 0 0 1-.155-.301.565.577 0 0 1 .015-.387.822.84 0 0 1 .2-.311.601.614 0 0 1 .268-.18c.121-.035.295-.022.521.04.245.08.462.173.647.278.209.126.349.24.418.341a2.499 2.551 0 0 1-.39-.215.966.986 0 0 0-.343-.154.978.998 0 0 0-.363.043.557.568 0 0 0-.38.372c-.069.2-.086.361-.054.481.037.132.076.215.114.248.04.023.102.023.179.001l.133-.039a.84.857 0 0 1 .299-.019c.056.01.248.1.578.268.31.152.516.296.62.429a2.328 2.377 0 0 1-.411-.227 1.233 1.258 0 0 0-.322-.144.971.991 0 0 0-.362.043.555.567 0 0 0-.38.372c-.07.2-.086.364-.052.49a.593.606 0 0 0 .328.412c.184.097.318.156.405.175zm.047-5.488c.088.018.222.091.4.219.178.146.326.296.444.445a.897.915 0 0 1 .223.488.626.639 0 0 1-.19.549c-.148.169-.3.26-.456.278a1.386 1.415 0 0 1-.422-.014 1.145 1.168 0 0 1-.347-.177l-.259-.182c.016.156.001.272-.045.348-.047.083-.154.134-.325.15-.199.023-.524-.096-.97-.352a10.213 10.426 0 0 1-1.286-.853c-.424-.32-.664-.527-.72-.618.045.026.127.075.239.148l.228.144a3.115 3.18 0 0 0 .197.121l.255.147.284.163c.244.14.485.253.726.342a1.122 1.145 0 0 0 .538.117c.293-.032.424-.17.398-.413a.164.167 0 0 0-.019-.058.209.213 0 0 0-.025-.096.302.308 0 0 1-.018-.084 1.327 1.355 0 0 1 .335.294c.149.186.266.309.357.37a.682.682 0 0 0 .428.074c.142-.015.282-.106.423-.274a.725.74 0 0 0 .174-.539.61.622 0 0 0-.098-.303 1.252 1.278 0 0 0-.235-.232 1.395 1.424 0 0 1-.234-.202z"/>
    </g>
    <path class="color-violet color-main color-stroke-violet color-stroke-main" fill="#7d388d" stroke="#7d388d" stroke-miterlimit="10" stroke-width=".097" d="M24.231 19.799c-.057.262-.11.514-.168.765-.081.355-.245.678-.399 1.004a7.16 7.16 0 0 1-.786 1.326c-.172.223-.164.413-.082.66.166.5.192 1.014.072 1.533-.039.166-.057.337-.091.505-.084.418-.245.81-.45 1.18-.148.268-.327.518-.498.772-.085.126-.189.24-.276.365-.022.032-.024.088-.017.13.044.273.125.544.133.818.009.308-.059.615-.217.89-.107.186-.297.19-.396.002a2.137 2.137 0 0 1-.2-.63c-.06-.33.017-.638.076-.953.008-.042.033-.082.038-.125.006-.041.011-.091-.008-.124a1.418 1.418 0 0 0-.175-.252c-.395-.433-.663-.943-.881-1.479a4.554 4.554 0 0 1-.261-1.035c-.044-.293-.092-.582-.073-.881.02-.304.077-.6.188-.883a.343.343 0 0 0-.037-.347c-.144-.211-.299-.417-.422-.64a26.754 26.754 0 0 1-.662-1.282 3.681 3.681 0 0 1-.328-1.175c-.006-.046-.001-.093-.001-.177-.049.049-.072.075-.099.098-.095.083-.185.175-.289.245-.111.075-.228.041-.322-.044-.106-.095-.197-.214-.156-.363.038-.137.127-.262.288-.26.095.001.188.056.303.094.002-.003.024-.027.034-.055.101-.306.146-.616.084-.938-.05-.257-.079-.52-.147-.772-.073-.269-.186-.526-.271-.792-.114-.355-.31-.667-.507-.978-.14-.221-.304-.428-.456-.642a.479.479 0 0 1-.092-.401c.039-.157.164-.233.324-.202.164.032.33.07.487.128.369.137.744.266 1.097.438.352.172.681.39 1.018.592.122.073.24.153.357.233.074.051.105-.004.142-.049.129-.159.25-.324.386-.476.15-.168.31-.328.47-.487.092-.091.115-.182.057-.301a2.2 2.2 0 0 1-.207-1.118c.015-.225.098-.45.306-.595.094-.065.181-.066.273-.001.21.148.293.376.306.607.022.396-.036.787-.228 1.146-.041.076.01.188.088.269.241.253.475.512.71.772.053.059.096.128.142.194.047.066.09.073.162.022.459-.325.93-.635 1.448-.855.439-.186.895-.335 1.345-.495a.56.56 0 0 1 .227-.023c.192.017.273.159.243.349-.025.162-.11.286-.205.405-.28.349-.518.726-.716 1.125a5.443 5.443 0 0 0-.298.781 6.69 6.69 0 0 0-.216.835c-.044.239-.046.485-.063.728-.011.163.033.316.084.469.041.125.057.135.172.074.186-.098.331-.086.438.038a.317.317 0 0 1 .01.413c-.111.144-.27.2-.409.121-.125-.071-.235-.168-.351-.254-.019-.013-.036-.031-.048-.042zm-.636-1.449-.036.004c-.052.087-.101.176-.156.261a92.04 92.04 0 0 1-1.015 1.531c-.033.047-.041.075-.015.133.091.21.176.423.249.64.06.179.103.364.147.548.033.135.06.271.082.408.02.125-.032.17-.146.135-.055-.017-.109-.039-.163-.06a32.783 32.783 0 0 1-.282-.11l-.018.026.307.931.049.03c.016-.033.029-.069.049-.1.172-.264.369-.516.514-.794.216-.416.401-.848.589-1.277.107-.245.149-.509.159-.777.015-.403-.068-.791-.173-1.176-.034-.123-.094-.237-.141-.353zm-4.664-.013c-.023.041-.039.067-.052.095-.158.339-.221.703-.266 1.068-.035.287-.037.582.056.857.121.357.269.706.414 1.055.182.439.445.832.708 1.225.04.06.096.108.162.182l.325-.997c-.163.065-.303.123-.444.176-.145.054-.205.003-.173-.149.035-.171.079-.341.116-.512.079-.372.192-.732.362-1.074a.111.111 0 0 0-.005-.096c-.105-.158-.22-.309-.324-.467-.185-.28-.364-.563-.546-.845-.108-.165-.215-.334-.333-.518zm5.365-2.264c-.07.029-.109.039-.142.06-.047.028-.087.067-.133.096-.464.295-.859.67-1.21 1.086-.268.317-.497.667-.737 1.006-.073.103-.14.216-.123.354.04.33.011.656-.061.979a.101.101 0 0 0 .023.077c.045.052.098.098.147.147.092.091.137.096.21-.008.146-.208.285-.422.422-.637.288-.451.597-.892.851-1.362.25-.464.446-.958.659-1.441.043-.1.057-.214.094-.357zm-3.742 2.675c.033-.152-.023-.285-.104-.404-.324-.473-.631-.958-1.052-1.357-.334-.317-.673-.627-1.067-.87-.022-.014-.053-.014-.08-.021-.005.026-.018.055-.012.079.02.088.038.179.071.263.089.228.175.458.282.677.191.394.385.786.598 1.168.127.228.294.434.437.654.175.269.34.545.517.814.047.071.109.14.179.187.056.037.304-.213.292-.286-.051-.3-.113-.598-.061-.904zm.168 2.832-.035-.005c-.016.027-.036.052-.047.081-.048.133-.093.267-.138.401-.105.307-.212.613-.311.922a.25.25 0 0 0 .008.166.837.837 0 0 0 .142.22c.277.31.559.616.839.924.049.053.099.055.149 0 .222-.246.448-.49.666-.74.11-.126.212-.259.309-.395a.18.18 0 0 0 .024-.143 59.656 59.656 0 0 0-.383-1.151c-.034-.099-.083-.194-.125-.29l-.032.006c-.006.026-.019.051-.018.077.015.447-.02.89-.128 1.324-.069.275-.155.546-.241.817-.02.065-.067.14-.149.115-.057-.018-.125-.067-.147-.12a3.588 3.588 0 0 1-.163-.485c-.061-.24-.127-.481-.157-.726-.036-.293-.036-.59-.053-.885 0-.038-.006-.076-.01-.113zm.52 6.1c.058-.066.099-.107.134-.152.275-.353.387-.762.41-1.2.005-.087.02-.178 0-.261a9.541 9.541 0 0 0-.218-.8c-.041-.124-.124-.237-.202-.345-.056-.079-.162-.074-.229-.001-.049.053-.105.108-.132.173-.143.337-.279.684-.289 1.049-.012.416.056.83.289 1.194.071.112.151.219.237.343zm.01-7.412c.028-.036.042-.056.058-.074.017-.019.041-.032.053-.053.206-.363.315-.752.303-1.17-.005-.16-.041-.318-.054-.478a7.744 7.744 0 0 0-.281-1.599c-.015-.051-.043-.099-.077-.178-.034.069-.057.103-.067.14-.055.21-.118.419-.158.633-.054.29-.082.585-.135.875-.074.407-.081.813.01 1.217.057.25.177.471.348.687zm1.213 3.232c-.02.014-.044.024-.059.041l-.825.934c-.057.064-.061.123-.009.195.074.104.157.207.205.323.214.515.341 1.044.238 1.607-.006.034.013.074.024.129.583-.778.819-2.611.426-3.229zm-2.023 3.213a.333.333 0 0 1 .031-.005c.006-.033.024-.067.017-.097-.057-.276-.029-.546.012-.824.059-.405.183-.778.426-1.108.062-.084.054-.144-.015-.219-.153-.166-.298-.339-.447-.509l-.37-.417c-.035-.039-.072-.052-.086.009-.055.233-.133.465-.149.702a4.89 4.89 0 0 0 .031.872c.025.23.083.458.151.68.064.208.157.407.243.608.045.106.104.206.156.308zm3.6-8.044.03-.003c.023-.165.037-.332.072-.494.055-.251.127-.498.19-.748a5.92 5.92 0 0 1 .486-1.281c.118-.23.257-.449.377-.678.074-.142.037-.211-.12-.192a2.563 2.563 0 0 0-.6.138c-.281.105-.556.23-.822.37-.292.154-.571.332-.853.503-.051.031-.089.081-.13.12l.29.384c.016-.008.031-.011.041-.02.229-.187.451-.382.687-.56.241-.182.492-.352.746-.515.119-.076.233.004.215.144-.012.097-.03.196-.063.288a8.738 8.738 0 0 1-.251.628c-.156.345-.317.688-.488 1.026-.068.135-.146.255-.015.391.009.01.011.027.017.04l.191.459zm-5.598.034.044-.083c.087-.191.175-.382.257-.576.013-.031.004-.08-.011-.112-.039-.082-.091-.158-.13-.241-.193-.408-.392-.814-.57-1.229-.083-.193-.127-.403-.176-.608-.011-.045.014-.118.049-.151.051-.049.123-.051.19-.004.235.166.476.322.705.496.232.176.453.367.678.554.044.036.074.051.113-.009.062-.094.13-.184.2-.272.037-.046.046-.078-.008-.116-.143-.1-.278-.212-.428-.301-.211-.126-.434-.232-.648-.354a3.962 3.962 0 0 0-1.024-.386 1.331 1.331 0 0 0-.321-.033c-.075 0-.112.055-.082.13.031.077.067.153.107.226.154.285.33.56.459.856.131.301.228.619.32.936.083.288.142.584.207.877.028.122.044.247.069.4zm3.241-1.803c.186-.169.36-.329.536-.487.043-.038.071-.072.023-.127-.3-.347-.598-.696-.899-1.042-.055-.064-.129-.059-.181.001a80.78 80.78 0 0 0-.897 1.043c-.018.021-.021.085-.004.101.182.172.368.338.57.519.119-.4.212-.809.455-1.188l.397 1.18zm-.427 3.848c-.155.219-.272.425-.276.687-.005.347.01.692.076 1.033.029.153.073.304.117.453.008.028.055.061.083.061.027-.001.066-.036.078-.066.023-.053.032-.112.042-.169.049-.257.106-.512.14-.77.02-.154-.009-.315.005-.471.025-.286-.109-.51-.265-.758zM20 21.576l.034.016.233-.138c.314-.187.599-.406.758-.749.023-.05.036-.127.015-.172-.074-.157-.164-.307-.25-.458-.03-.054-.077-.063-.115-.016-.099.119-.212.233-.283.368-.164.311-.314.631-.357.988-.007.054-.023.107-.035.161zm2.489.021c.005-.041.016-.07.011-.096-.03-.138-.049-.28-.099-.411a7.528 7.528 0 0 0-.305-.709c-.057-.114-.152-.211-.239-.308-.069-.077-.124-.038-.167.041-.057.105-.123.206-.177.313-.04.079-.095.161-.049.257.214.439.602.683 1.025.913zm-.591-3.506c.025-.013.034-.015.038-.02.258-.338.517-.676.772-1.017a.128.128 0 0 0 .006-.113 2.739 2.739 0 0 0-.186-.269c-.057-.074-.125-.102-.2-.02-.175.19-.352.378-.52.574-.03.035-.039.103-.033.153.019.152.05.302.076.453l.047.259zm-1.29.002c.045-.261.09-.51.129-.76a.155.155 0 0 0-.037-.11c-.179-.197-.362-.389-.543-.584-.054-.058-.104-.044-.148.007-.055.063-.105.13-.157.195-.116.148-.114.163.019.299.025.026.051.052.073.082.203.275.405.552.609.827.012.016.031.025.055.044zm.877-4.162c-.029-.148-.048-.274-.079-.397-.019-.075-.053-.144-.152-.144-.098 0-.133.067-.154.142-.1.345-.067.684.06 1.015.013.033.068.068.105.069.029.001.078-.044.086-.076.051-.207.093-.416.134-.609zm-.091 14.895c-.022-.16-.042-.326-.069-.491-.005-.027-.042-.067-.065-.067-.025 0-.068.034-.074.06-.068.286-.093.575-.014.863.007.026.055.058.083.057.028-.001.075-.034.08-.06.026-.115.04-.234.059-.362z" transform="matrix(1.35448 0 0 1.38279 -7.532 -8.153)"/>
    <circle class="color-white" fill="#fff" cx="6.448" cy="21.175" r=".667" transform="rotate(-27.482 6.448 21.174)"/>
    <circle class="color-white" fill="#fff" cx="36.034" cy="21.175" r=".667" transform="rotate(-27.482 36.032 21.174)"/>
  </g>
</svg>
