<svg xmlns="http://www.w3.org/2000/svg" xmlns:xlink="http://www.w3.org/1999/xlink" id="Layer_1" width="192.005" height="191.616" x="0" y="0" version="1.1" viewBox="0 0 192.005 191.616" xml:space="preserve">
    <style id="style2" type="text/css"/>
    <g id="g32" transform="translate(5.999 5.61) scale(4.23348)">
        <defs id="defs5">
            <circle id="SVGID_17_" cx="21.26" cy="21.26" r="22.677"/>
        </defs>
        <clipPath id="SVGID_2_">
            <use id="use7" width="100%" height="100%" x="0" y="0" overflow="visible" xlink:href="#SVGID_17_"/>
        </clipPath>
        <circle id="circle10" class="color-lightBlue color-main" fill="#34a9e1" cx="21.26" cy="21.352" r="22.677" clip-path="url(#SVGID_2_)"/>
        <g id="g30" clip-path="url(#SVGID_2_)">
            <path id="path12" class="color-reserved-white color-red" fill="#e3000b" d="M28.628 9.195c0 .696-3.295 2.322-7.36 2.322s-7.36-1.762-7.36-2.322c0-.233 3.295-2.322 7.36-2.322s7.36 2.224 7.36 2.322z"/>
            <path id="path14" class="color-black" fill="#181716" d="M22.343 9.206c0 1.253-.792 2.316-.839 2.269-.327-.327-.838-1.016-.838-2.269 0-1.253.511-1.941.838-2.269.096-.095.839 1.016.839 2.269z"/>
            <path id="rect16" class="color-red" fill="#e3000b" d="M17.293 26.944H25.4V45.52h-8.107z"/>
            <g id="g22" class="color-reserved-white color-black" fill="#181716">
                <path id="path18" d="M28.675 32.609c-.005-.005-.008.024-.01.07.149.11.196.122.01-.07z"/>
                <path id="path20" d="M28.675 28.96c.347-.248.793-.682 1.308-1.322a.504.504 0 00.132-.308c0-.278-.069-4.111-.069-4.388 0-.006-.003-.037-.012-.038-.096-.015-.574 3.317-.914 3.295-.141-.009-.324-.6-.434-.955 0 0-.012-.019-.012-.038V9.353c-.274.364-2.812 15.474-7.21 17.608V47.41h-9.06v.283l13.316.446c0-2.137 1.926-9.188 1.926-9.187 0-.001 1.028-1.358 1.028-2.058 0-.261.48-.49.48-.754 0-.205.274-4.284.274-4.491 0-.366-.754 3.105-.754 2.734 0-.233-.025-1.409-.01-1.703-.394-.287-1.567-1.303-1.567-1.477.001-.77.967-1.808 1.578-2.243z"/>
            </g>
            <g id="g28" class="color-reserved-white color-black" fill="#181716">
                <path id="path24" d="M13.845 32.609c.005-.005.008.024.01.07-.149.11-.196.122-.01-.07z"/>
                <path id="path26" d="M13.845 28.96c-.347-.248-.793-.682-1.308-1.322a.504.504 0 01-.132-.308c0-.278.069-4.111.069-4.388 0-.006.003-.037.012-.038.096-.015.574 3.317.914 3.295.141-.009.324-.6.434-.955 0 0 .012-.019.012-.038V9.353c.274.364 2.812 15.474 7.21 17.608V47.41h9.06v.283l-11.316.446c0-2.137-3.926-9.188-3.926-9.187 0-.001-1.028-1.358-1.028-2.058 0-.261-.48-.49-.48-.754 0-.205-.274-4.284-.274-4.491 0-.366.754 3.105.754 2.734 0-.233.025-1.409.01-1.703.394-.287 1.567-1.303 1.567-1.477-.001-.77-.967-1.808-1.578-2.243z"/>
            </g>
        </g>
    </g>
</svg>
