<svg xmlns="http://www.w3.org/2000/svg" xml:space="preserve" width="192" height="192" viewBox="0 0 192 192">
  <path class="color-main color-green" fill="#529a31" d="M96 29.634c36.593 0 66.367 29.773 66.367 66.366S132.593 162.367 96 162.367 29.634 132.593 29.634 96 59.407 29.634 96 29.634M96 0C42.982 0 0 42.982 0 96s42.982 96 96 96 96-42.981 96-96S149.02 0 96 0"/>
  <g class="color-orange" fill="#f8b131">
    <path d="m130.921 78.627 16.84-10.317-25.108 7.434L140.93 58.4l-23.343 12.674 14.787-21.514-20.066 17.137 10.156-24.52-15.642 20.388 4.813-25.997-10.596 22.217-.673-25.803L94.9 55.737 89.168 31.86l-.644 24.545-10.075-21.12 4.703 25.378L68.17 41.136l10.114 24.426L58.742 48.87 73.78 70.748l-23.194-12.59L69.52 76.125 44.053 68.58l13.915 8.53 8.81 4.407-17.599-1.058-9.75-.767 20.922 7.553 75.527-2.371 16.693-6.024-26.975 2.967z"/>
    <path stroke="#fff" stroke-miterlimit="10" stroke-width=".961" d="M96.678 53.772a27.94 27.94 0 0 0-27.94 27.94h55.88a27.94 27.94 0 0 0-27.94-27.94z"/>
  </g>
  <path class="color-main color-green" fill="#529a31" stroke="#fff" stroke-miterlimit="10" stroke-width="1.058" d="M97.672 181.713c38.926 0 70.482-37.47 70.482-83.69-12.167-7.416-37.237-20.273-70.65-20.23-33.22.042-58.15 12.818-70.309 20.23 7.824 48.502 38.346 83.69 70.477 83.69z"/>
  <path class="color-main color-green" fill="#529a31" d="M96 7.045C46.872 7.045 7.045 46.872 7.045 96S46.872 184.956 96 184.956 184.956 145.128 184.956 96 145.128 7.045 96 7.045m0 154.187c-36.026 0-65.232-29.206-65.232-65.232S59.97 30.768 96 30.768 161.232 59.974 161.232 96 132.026 161.232 96 161.232"/>
  <path class="color-white" fill="#fff" d="M96 186.001c-49.627 0-90.001-40.373-90.001-90S46.373 5.998 96 5.998 186.001 46.373 186.001 96s-40.373 90.001-90 90.001zm0-177.91C47.528 8.09 8.09 47.527 8.09 96c0 48.471 39.438 87.91 87.91 87.91 48.476 0 87.91-39.435 87.91-87.91C183.906 47.527 144.472 8.09 96 8.09zm0 154.191c-36.546 0-66.277-29.735-66.277-66.282S59.453 29.72 96 29.72s66.278 29.73 66.278 66.277S132.547 162.282 96 162.282m0-130.468c-35.395 0-64.186 28.795-64.186 64.186S60.609 160.186 96 160.186s64.186-28.79 64.186-64.186c0-35.39-28.795-64.186-64.186-64.186"/>
  <g class="color-white" fill="#fff">
    <path d="M62.421 136.98a16 16 0 0 1-.16-1.186 1.1 1.1 0 0 0-.073-.373c-.156-.122-.38-.343-.677-.652s-.614-.635-.957-.978a27 27 0 0 0-1.024-.977 7 7 0 0 0-.885-.699.8.8 0 0 1-.233-.207l-.326-.373a3 3 0 0 0-.393-.372.67.67 0 0 0-.398-.161 12 12 0 0 1-1.749-.259 5.5 5.5 0 0 0-2.582-.072q-.699.14-1.816.652c-.932.407-1.732.923-2.4 1.562-.665.636-1.313 1.11-1.935 1.419a7 7 0 0 1 1.143-1.512 31 31 0 0 1 1.304-1.236l1.164-1.024a4 4 0 0 0 .817-.932q.559-.419.952-.698a13 13 0 0 1 1.584-.953c.266-.14.567-.3.91-.49q.795-.326 1.278-.466a3.3 3.3 0 0 1 .91-.14c.31 0 .636.013.978.047.343.03.775.046 1.304.046q.744-.047 1.537.466c.793.513 1.041.77 1.537 1.278.495.512.97 1.059 1.418 1.63.449.572.88 1.1 1.283 1.583s.77.864 1.092 1.143q.488.419.817.233a2.5 2.5 0 0 0 1.185-.906 7.6 7.6 0 0 0 .745-1.325c.203-.465.402-.897.606-1.304a2.24 2.24 0 0 1 .72-.884c-.064 0-.123-.047-.187-.14-.063-.093-.106-.157-.14-.186-.063-.03-.055-.08.022-.14.076-.064.114-.123.114-.186a1.3 1.3 0 0 0-.068-.326.8.8 0 0 0-.165-.326l-.174.042-.512-2.375a1.5 1.5 0 0 1-.745-.419.89.89 0 0 1-.233-.838l-3.26-1.863a8 8 0 0 1-1.84-.49 10 10 0 0 0-1.792-.534 16 16 0 0 0-1.888-.115 50 50 0 0 1-2.56-.118 23 23 0 0 1-2.49-.3c-.78-.14-1.334-.382-1.677-.72a11 11 0 0 1-.165-.585l-.165-.626c-.093-.343-.165-.606-.207-.792a3 3 0 0 1-.093-.512 2 2 0 0 1 .02-.512l.14-.838q.046-.044.022-.233a.5.5 0 0 1 .02-.28l.187-.28q-.045 0-.165-.113c-.076-.08-.114-.132-.114-.166l-.14-.14v-.092a.53.53 0 0 0 .114-.3q.02-.209.072-.26.795-1.441 2.07-3.094c1.275-1.653 1.791-2.159 2.82-3.166s2.095-1.893 3.213-2.655 2.218-1.265 3.306-1.51q.044-.001.233.372l.44.884q.256.516.513 1a2 2 0 0 0 .44.626q1.493 1.446 3.099 2.002 1.604.56 3.513.047a7 7 0 0 0 1.19-.42 21 21 0 0 0 .931-.465 27 27 0 0 1 .932-.465q.488-.235 1.185-.373.047-.046-.047.093a1.7 1.7 0 0 1-.258.305 1.8 1.8 0 0 0-.394.58 81 81 0 0 1-2.26 1.79 22 22 0 0 1-1.842 1.283 10 10 0 0 1-1.604.813 7.7 7.7 0 0 1-1.562.44 8.8 8.8 0 0 1-2.189.094 5.3 5.3 0 0 1-2.002-.606 5.5 5.5 0 0 1-1.097-.559 17 17 0 0 1-.956-.745 2.8 2.8 0 0 1-.534-.63 10.5 10.5 0 0 0-1.418-1.677q-.375-.35-.699-.3l-1.21.651a20 20 0 0 0-1.418 1.118 4.2 4.2 0 0 0-.91 1.096 3.3 3.3 0 0 0-.394 1.326q-.07.741.114 1.77a4.4 4.4 0 0 0 .72 1.743q.531.768 1.375 1.004a1.2 1.2 0 0 1 .373-.119c.123-.013.25.038.373.165h.465a33 33 0 0 1 1.423.072c.232.017.393.021.486.021q.42.096 1.512.165c1.092.069 1.473.119 2.235.212a15.5 15.5 0 0 1 2.096.394c.635.173 1.003.41 1.096.72l.42-.14q.043 0 .393.165c.233.106.52.233.863.372q.513.211.745.352a3.4 3.4 0 0 1 .839.652q.464.464.884.999a8.3 8.3 0 0 1 1.118 1.884q.28.978.394 1.583.114.604.114 1.117a3.5 3.5 0 0 1-.14.957c-.093.326-.22.737-.372 1.236q-.001.046.068.212a.8.8 0 0 1 .071.207 1.02 1.02 0 0 1-.35.906 2.8 2.8 0 0 0-.627.77c-.157.25-.216.466-.187.653q.045.28-.419.745a79 79 0 0 1-5.935 5.634 9.5 9.5 0 0 1-1.655 1.211 1.17 1.17 0 0 1-.678.068.63.63 0 0 1-.44-.351c-.008-.064-.042-.178-.072-.352zm-9.427-23.91q.069.234.165.139c.122-.03.173-.123.14-.28-.035-.156-.11-.215-.234-.186q-.144.094-.071.326zm.207.118q.044.209.233.207c.189-.002.156-.076.093-.233q-.095-.234-.233-.233-.139.05-.093.259m8.966 7.332q.024.185.119.14.279-.184 0-.28-.146-.045-.119.14m8.17 5.61q.047.209.233.164.14-.044.094-.258c-.03-.14-.094-.19-.187-.165q-.183.056-.14.258zm.979-.975c.03.14.11.212.232.212q.139-.14.093-.326c-.046-.186-.093-.157-.186-.093-.123-.004-.17.068-.14.207zm1.003 1.372c.046.123.131.157.254.093q.139-.047.093-.233c-.034-.122-.11-.156-.233-.093q-.184.047-.114.233"/>
    <path d="m75.507 120.753.279-2.282a2.7 2.7 0 0 1 .186-.86 1.5 1.5 0 0 0 .072-.279 5 5 0 0 0 .021-.584c-.093 0-.105-.013-.046-.047a3 3 0 0 1 .233-.093.8.8 0 0 1 .232-.046q.141 0 .047.093v-.932q.42.001.559-.232a3 3 0 0 0 .258-.606q.115-.374.326-.813a2.7 2.7 0 0 1 .813-.91c.03-.03-.09-.093-.352-.186q-.398-.141-.397-.186c-.712.216-1.52.49-2.422.813a26 26 0 0 0-2.421 1.003h-.42q-.094-.514 1-1.257 1.092-.745 3.187-2.003l.792-.512 1.418-.906a68 68 0 0 1 2.26-1.376c.03.03.039.08.022.14l-.047.207q-.024.118.047.187.07.07.351.072c0 .622-.123 1.193-.372 1.722s-.466 1.105-.652 1.723a14.6 14.6 0 0 0-.838 3.612 37 37 0 0 0-.187 3.704c0 .872.106 1.714.326 2.54a7.7 7.7 0 0 0 1.071 2.35 3 3 0 0 0 .233.372l.398.605.394.63a2.3 2.3 0 0 0 .28.395l.113.258a.7.7 0 0 1 .072.258l3.027 3.54q.095.044.513.35c.418.306.448.301.512.301h.14a16 16 0 0 0 1.189-.813c.478-.355.961-.753 1.444-1.185.482-.436.906-.893 1.282-1.376.373-.482.618-.906.745-1.278q.233-.748.326-1.19a4.8 4.8 0 0 0 .115-1.376 7 7 0 0 1-.022-.652v-1.164q-.002-.28.022-.44a4 4 0 0 0 .02-.44v-3.586a18 18 0 0 1-.207-2.468 7.6 7.6 0 0 0-.49-2.515 5 5 0 0 0-.301-.605 26 26 0 0 1-.627-1.236 101 101 0 0 0-.885-1.79q.044-.094.259.067l.465.372.466.394c.14.123.241.174.305.14.25.25.449.457.605.626l.606.673q.278.001.512.212.233.21.398.466.159.26.28.533a3 3 0 0 0 .207.42 3.6 3.6 0 0 0 .326.558 3.2 3.2 0 0 1 .651 1.257q.143.515.233.724c.064.14.115.258.165.352a2.5 2.5 0 0 1 .14.351q.07.21.165.72l.233 1.325q.14.813.14 1.371c0 .22-.034.491-.093.817l-.187 1.025a12 12 0 0 1-.233 1.05 7 7 0 0 0-.186.838 1.9 1.9 0 0 1-.258.626 11 11 0 0 1-.44.674c-.157.22-.297.44-.42.677a1.4 1.4 0 0 0-.186.626c0 .157.19.534.58 1.143.39.61.839 1.24 1.35 1.91a20 20 0 0 0 1.537 1.79c.513.53.906.792 1.19.792.216 0 .457-.004.72-.021a1.07 1.07 0 0 0 .626-.212q1.257-1.208 2.375-2.561a19.5 19.5 0 0 0 1.956-2.82 13.4 13.4 0 0 0 1.283-3.073q.439-1.606.351-3.285a45 45 0 0 0-.305-3.28 22 22 0 0 0-.652-3.167 19.1 19.1 0 0 0-3.052-6.168 20 20 0 0 1-1.698-2.608 19 19 0 0 0-1.096-1.863l-.906-1.21a120 120 0 0 0-.999-1.304 35 35 0 0 1-.957-1.279 17 17 0 0 1-.77-1.19 12 12 0 0 0-.534-.651l-.372-.42c-.11-.122-.165-.203-.165-.232a13 13 0 0 1-.885-.792 221 221 0 0 0-1.63-1.511 50 50 0 0 1-1.609-1.537q-.723-.723-.812-.957a5 5 0 0 0-.72-.652 118 118 0 0 0-1.63-1.325q-.953-.77-2.07-1.63c-1.117-.86-1.418-1.1-2.028-1.583a19 19 0 0 1-1.443-1.236q-.536-.515-.398-.559l5.308 2.98c.064 0 .318.157.77.466l1.677 1.143 2.142 1.465 2.142 1.49c.665.466 1.237.855 1.698 1.164.466.314.728.466.792.466a2.7 2.7 0 0 1 .465.165c.093.047.174.148.233.3 0 .03.013.081.047.14a.7.7 0 0 1-.068.208q-.07.164-.025.207l.745.373a12 12 0 0 1 .978.558q.138.234.232.233.14-.001.094-.046a15 15 0 0 1 .745 1.304c.156.313.296.597.419.863a2.4 2.4 0 0 0 .233.44v.28l.512-.326q1.397.795 2.54 1.981c1.143 1.186 1.443 1.613 2.049 2.468a24 24 0 0 1 1.583 2.536q.673 1.259 1.118 2.189c.292.622.52 1.08.673 1.375.152.297.233.318.233.068a3 3 0 0 0 .046.42 1.7 1.7 0 0 0 .093.418q.046.142.3.72c.17.39.272.627.306.72a.75.75 0 0 1 .02.351 4 4 0 0 0-.02.305c.03.25.093.588.186 1.024a35 35 0 0 1 .466 2.722 8 8 0 0 1-.094 2.96 17 17 0 0 1-.49 1.748 59 59 0 0 1-.7 1.956 35 35 0 0 0-1.04 3.37 4 4 0 0 1-.492.35 2 2 0 0 0-.49.395.45.45 0 0 0-.14.326c-.094.122-.42.436-.978.93s-1.164 1.025-1.816 1.584q-.979.84-1.791 1.558a11 11 0 0 0-.957.91 7 7 0 0 1-1.257 1.025 6.7 6.7 0 0 0-1.21.978 9 9 0 0 1-.627.558 15 15 0 0 0-.745.652 22 22 0 0 1-.906.792l-.792.326v-.186h-.186l-.932-.792q-.278.138-.817-.605a92 92 0 0 1-1.164-1.656 40 40 0 0 0-1.236-1.697c-.406-.525-.728-.792-.978-.792-.093 0-.41.267-.957.792s-1.147 1.126-1.816 1.79a68 68 0 0 1-1.981 1.91 13.5 13.5 0 0 1-1.397 1.185h-.093q-.325 0-.606-.394a51 51 0 0 0-.419-.584 4 4 0 0 1-.326-.372 10 10 0 0 0-.398-.466l-.372-.42-.207-.232a25.8 25.8 0 0 1-3.938-4.983 11.2 11.2 0 0 1-1.557-5.867 20 20 0 0 1 .144-2.273m18.393 1.862q0 .189.14.187.14-.001.14-.187 0-.184-.14-.186-.14.001-.14.186m12.9-14.668q-.141.001-.047.326t.233.326a.6.6 0 0 0 .28-.233q.138-.185 0-.14zm.093.885q-.14 0-.047.093c.03.063.064.089.093.072a.08.08 0 0 0 .047-.072q.046-.094-.093-.093m.3.884q.024.14.119.14.14-.044.14-.14 0-.138-.14-.093-.138-.046-.119.093"/>
    <path d="M112.248 137.33a6 6 0 0 1-.114-.72l-.072-.676c-.157.279-.28.228-.373-.161a11 11 0 0 1-.233-1.444 30 30 0 0 1-.186-2.582q0-.326.186-.373l-.745-.559q.185 0 .186-.186.044-.093-.02-.466a4 4 0 0 1-.073-.465h-.14a19 19 0 0 0-.14-1.863q-.001-.094-.185-.372-.189-.28-.187-.373c.002-.093.026-.241.072-.533a4 4 0 0 1 .119-.58q.001-.045.16-.28a2.3 2.3 0 0 1 .212-.28v-.092a.55.55 0 0 0-.186-.44.5.5 0 0 1-.186-.394v-.42c0-.092.013-.173.046-.232a.6.6 0 0 1 .166-.186l.393-.326h-.419c0-.618.085-1.203.258-1.745a9 9 0 0 0 .347-1.608c0-.064-.004-.25-.02-.56q-.026-.462.02-.558c.046-.096.123-.156.28-.28a1 1 0 0 0 .28-.279q.001-.046-.094-.186c-.095-.14-.093-.157-.093-.186q.001-.185.186-.186-.185-.001-.186-.187v-.186q.001-.046.186-.186l.115-.212q.07-.114.072-.165a.4.4 0 0 0-.072-.207 1.3 1.3 0 0 0-.115-.166v-1.126a6.4 6.4 0 0 1 .373-2.235q0-.046.186-.186c.03-.064.072-.131.114-.208.047-.08.072-.13.072-.165q0-.185-.093-.186l.699-1.35q.044-.091-.115-.047c-.11.03-.24.08-.397.14a7 7 0 0 0-.44.186 1 1 0 0 1-.259.093q-.654 0-1.257.114a9 9 0 0 1-1.677.115 6 6 0 0 0-.393.025c-.204.013-.318-.055-.352-.212a3.4 3.4 0 0 1 .673-.745c.267-.215.55-.427.864-.626q.468-.302 1.024-.677c.556-.375.775-.56 1.211-.932a1.8 1.8 0 0 1 .606-.351q.417-.16.512.118-.139-.373.326-.652c.465-.279.69-.35 1.143-.486l1.304-.398a2.7 2.7 0 0 0 .859-.373 3.2 3.2 0 0 0-.258.957 32 32 0 0 0-.394 4.123 2.4 2.4 0 0 0 1.118-.326q.602-.326 1.236-.791.628-.467 1.257-.906a10 10 0 0 1 1.185-.72q2.052-.932 4.47-.931c.619 0 1.305.03 2.05.093s1.435.216 2.074.465a4 4 0 0 1 1.583 1.097q.628.724.627 1.977a4.06 4.06 0 0 1-.699 2.21 12 12 0 0 1-1.748 2.116 23 23 0 0 1-2.26 1.935 72 72 0 0 1-2.21 1.604q-1.004.7-1.677 1.19-.673.488-.58.677c.373.932.94 1.876 1.698 2.84a34 34 0 0 0 2.328 2.655 60 60 0 0 0 2.117 2.07q.934.864 1.117 1.143.14.096 1.211 1.118c.711.682 1.639 1.545 2.769 2.582a109 109 0 0 0 3.937 3.425c1.49 1.24 3.048 2.439 4.678 3.586s3.289 2.188 4.982 3.12q2.54 1.396 4.869 2.049l.885.046a60 60 0 0 0 3.399.093 4 4 0 0 0 .885-.046q.932-.375 1.35-.559a19 19 0 0 0 .652-.3 4 4 0 0 1 .42-.187q.184-.07.605-.254.511-.232 1.303-.91a9 9 0 0 1 1.584-1.092c.25-.123.309-.093.186.093s-.373.466-.745.838q-.558.56-1.325 1.304c-.767.744-1.025.978-1.537 1.444a31 31 0 0 1-2.493 2.049c-.157.093-.242.19-.259.3a1.6 1.6 0 0 1-.067.305q-.05.139-.233.233c-.183.094-.373.11-.745.14l-.978.677a109 109 0 0 0-.978.673 4 4 0 0 0-.512.212l-1.025.465a16 16 0 0 1-1.583.627 1 1 0 0 0-.258.093 9 9 0 0 1-1.236.423 2 2 0 0 1-.72-.584 2.9 2.9 0 0 0-.72-.627 1.97 1.97 0 0 1-1.07-.838 2.8 2.8 0 0 0-1.118-1.07.8.8 0 0 1-.233-.14 13 13 0 0 1-.885-.699c-.53-.436-1.185-.97-1.977-1.604s-1.638-1.325-2.54-2.075a829 829 0 0 0-4.492-3.674 95 95 0 0 1-.863-.699 64 64 0 0 1-2.701-2.794 307 307 0 0 1-3.332-3.679 271 271 0 0 0-3.564-3.911 61 61 0 0 0-3.467-3.467 28 28 0 0 0-2.98-2.422c-.885-.605-1.588-.863-2.117-.77a4 4 0 0 0-.394.046l-.652.093a3.5 3.5 0 0 0-.626.14q-.28.09-.28.186l-.28 2.282q.374.14.373.699v.791a3.7 3.7 0 0 1-.072.77 3.7 3.7 0 0 0-.067.72h.186q-.002-.236.046-.3.045-.071.28-.072.234 0 .533.533a5.7 5.7 0 0 1 .563 1.211c.076.233.157.483.233.745l.233.745q.114.35.165.44c0 .03.106.166.326.394q.324.348.28.398-.655.56-1.283 1.372a146 146 0 0 1-1.236 1.583 17 17 0 0 1-1.143 1.325q-.534.56-.953.559a.76.76 0 0 1-.44-.14.49.49 0 0 1-.216-.427zm-3.12-25.937q0 .185.14.186.14-.001.14-.186 0-.186-.14-.187-.14.001-.14.187m1.443 15.32q0 .186.14.187.14-.001.14-.187c0-.186-.047-.186-.14-.186q-.14 0-.14.186m.373 2.608q0 .185.14.186.14 0 .14-.186c0-.186-.047-.186-.14-.186q-.14 0-.14.186m0 .559q0 .185.14.186.14 0 .14-.186c0-.186-.047-.186-.14-.186q-.14 0-.14.186m.605-.652c-.093 0-.122.034-.093.093.064.123.123.123.186 0q.046-.091-.093-.093m.14-2.701q0 .185.14.186.14 0 .14-.186c0-.186-.047-.186-.14-.186q-.14 0-.14.186m0 5.774q0 .189.14.187.14.002.14-.187 0-.185-.14-.186-.14.001-.14.186m0 .373q0 .185.14.186.14 0 .14-.186c0-.186-.047-.186-.14-.186q-.14 0-.14.186m.233-22.632q0 .186.14.187.14-.001.14-.187 0-.184-.14-.186-.14.001-.14.186m.186 6.007q0 .186.14.187.14-.001.14-.187 0-.185-.14-.186-.14.001-.14.186m.326 11.968q0 .185.14.186.14 0 .14-.186c0-.186-.047-.186-.14-.186q-.14 0-.14.186m.373 4.843q0 .185.14.186.14 0 .14-.186c0-.186-.047-.186-.14-.186q-.14 0-.14.186m.233-20.163q0 .184.14.186.138-.001.139-.186 0-.186-.14-.187-.14.001-.14.187zm.279 14.948h.28a2 2 0 0 0 .304-.026c.106-.013.165-.097.165-.258v-.093zm1.024-8.802q0 .186.14.187.14-.001.14-.187 0-.185-.14-.186-.14.001-.14.186m.165 2.608q.02.185.352.186h.186l1.863-.232c.123.03.296.017.512-.047a5.7 5.7 0 0 0 1.279-.538l.49-.258q.978-.465 1.49-.626l.957-.3q.441-.141.932-.42a19 19 0 0 0 1.418-.931q.604-.465 1.19-.86a6 6 0 0 0 1.024-.885 3.64 3.64 0 0 0 .957-2.54v-.93a9.5 9.5 0 0 0-2.468-1.584 7.05 7.05 0 0 0-2.934-.652q-1.586-.001-3.28.626a5.63 5.63 0 0 0-2.68 1.977 1.9 1.9 0 0 0-.352.724q-.115.444-.186.906-.07.467-.115.932a19 19 0 0 1-.093.791 2.3 2.3 0 0 1-.232.606 1.16 1.16 0 0 0-.14.605v.28q0 .048.093.186c.093.138.093.156.093.186a4 4 0 0 1-.186 1.185 3.7 3.7 0 0 0-.186 1.143 2.6 2.6 0 0 0 .016.47"/>
  </g>
</svg>
