<svg xmlns="http://www.w3.org/2000/svg" id="Layer_1" width="192" height="192" x="0" y="0" version="1.1" viewBox="0 0 192 192" xml:space="preserve">
    <style id="style2" type="text/css"/>
    <g id="g6" transform="translate(5.999 5.999) scale(4.23336)">
        <path id="path4" class="color-main color-green" fill="#529a31" d="M21.26 5.583c8.644 0 15.677 7.033 15.677 15.677 0 8.644-7.033 15.677-15.677 15.677-8.644 0-15.677-7.033-15.677-15.677 0-8.644 7.033-15.677 15.677-15.677m0-7C8.736-1.417-1.417 8.736-1.417 21.26S8.736 43.937 21.26 43.937 43.937 33.784 43.937 21.26 33.784-1.417 21.26-1.417z"/>
    </g>
    <g id="g34" transform="translate(5.999 5.999) scale(4.23336)">
        <g id="g32">
            <g id="g30">
                <g id="g12" class="color-orange" fill="#f8b131">
                    <path id="polygon8" d="M29.509 17.156l3.978-2.437-5.931 1.756 4.317-4.097-5.514 2.994 3.493-5.082-4.74 4.048 2.399-5.792-3.695 4.816 1.137-6.141-2.503 5.248-.159-6.095L21 11.749l-1.354-5.64-.152 5.798-2.38-4.989 1.111 5.995L14.686 8.3l2.389 5.77-4.616-3.943 3.552 5.168-5.479-2.974 4.473 4.244-6.016-1.782 3.287 2.015 2.081 1.041-4.157-.25-2.303-.181 4.942 1.784 17.841-.56 3.943-1.423-6.372.701z"/>
                    <path id="path10" stroke="#fff" stroke-miterlimit="10" stroke-width=".227" d="M21.42 11.285a6.6 6.6 0 00-6.6 6.6h13.2a6.6 6.6 0 00-6.6-6.6z"/>
                </g>
                <path id="path14" class="color-main color-green" fill="#529a31" stroke="#fff" stroke-miterlimit="10" stroke-width=".25" d="M21.655 41.507c9.195 0 16.649-8.851 16.649-19.769-2.874-1.752-8.796-4.789-16.689-4.779-7.847.01-13.736 3.028-16.608 4.779 1.848 11.457 9.058 19.769 16.648 19.769z"/>
                <g id="g20">
                    <path id="path16" class="color-main color-green" fill="#529a31" d="M21.26.247C9.655.247.247 9.655.247 21.26c0 11.605 9.408 21.013 21.013 21.013 11.605 0 21.013-9.408 21.013-21.013C42.273 9.655 32.865.247 21.26.247zm0 36.422c-8.51 0-15.409-6.899-15.409-15.409 0-8.51 6.898-15.409 15.409-15.409 8.511 0 15.409 6.899 15.409 15.409 0 8.51-6.899 15.409-15.409 15.409z"/>
                    <path id="path18" class="color-white" fill="#fff" d="M21.26 42.52C9.537 42.52 0 32.983 0 21.26S9.537 0 21.26 0s21.26 9.537 21.26 21.26-9.537 21.26-21.26 21.26zm0-42.026C9.81.494.494 9.81.494 21.26c0 11.45 9.316 20.766 20.766 20.766 11.451 0 20.766-9.315 20.766-20.766C42.025 9.81 32.71.494 21.26.494zm0 36.423c-8.633 0-15.656-7.024-15.656-15.657S12.627 5.603 21.26 5.603c8.633 0 15.656 7.023 15.656 15.656 0 8.633-7.023 15.658-15.656 15.658zm0-30.819c-8.361 0-15.162 6.802-15.162 15.162 0 8.36 6.802 15.162 15.162 15.162 8.36 0 15.162-6.801 15.162-15.162 0-8.36-6.802-15.162-15.162-15.162z"/>
                </g>
                <g id="g28" class="color-white" fill="#fff">
                    <path id="path22" d="M13.328 30.94a3.667 3.667 0 01-.038-.28.27.27 0 00-.017-.088c-.037-.029-.09-.081-.16-.154s-.145-.15-.226-.231a6.447 6.447 0 00-.242-.231 1.599 1.599 0 00-.209-.165.185.185 0 01-.055-.049l-.077-.088a.695.695 0 00-.093-.088.158.158 0 00-.094-.038 2.906 2.906 0 01-.413-.061 1.298 1.298 0 00-.61-.017c-.11.022-.253.073-.429.154-.22.096-.409.218-.567.369-.157.15-.31.262-.457.335.074-.132.164-.251.27-.357.106-.106.209-.204.308-.292l.275-.242a.93.93 0 00.193-.22c.088-.066.163-.121.225-.165a3.1 3.1 0 01.374-.225c.063-.033.134-.071.215-.116.125-.051.226-.088.302-.11a.782.782 0 01.215-.033c.073 0 .15.003.231.011.081.007.183.011.308.011.117-.007.238.029.363.11s.246.182.363.302c.117.121.229.25.335.385.106.135.208.26.303.374.095.114.182.204.258.27.077.066.141.084.193.055a.587.587 0 00.28-.214 1.79 1.79 0 00.176-.313c.048-.11.095-.212.143-.308a.53.53 0 01.17-.209c-.015 0-.029-.011-.044-.033-.015-.022-.025-.037-.033-.044-.015-.007-.013-.019.005-.033.018-.015.027-.029.027-.044a.304.304 0 00-.016-.077.182.182 0 00-.039-.077l-.041.01-.121-.561a.35.35 0 01-.176-.099.21.21 0 01-.055-.198l-.77-.44a1.856 1.856 0 01-.435-.116 2.343 2.343 0 00-.423-.126 3.71 3.71 0 00-.446-.027 11.874 11.874 0 01-.605-.028 5.32 5.32 0 01-.588-.071c-.184-.033-.315-.09-.396-.17a2.594 2.594 0 01-.039-.138l-.039-.148c-.022-.081-.039-.143-.049-.187a.761.761 0 01-.022-.121.458.458 0 01.005-.121l.033-.198c.007-.007.009-.025.005-.055a.121.121 0 01.005-.066l.044-.066c-.007 0-.02-.009-.039-.027-.018-.019-.027-.031-.027-.039l-.033-.033v-.022a.126.126 0 00.027-.071c.003-.033.009-.053.017-.061.125-.227.288-.471.489-.731s.423-.51.666-.748c.243-.238.495-.447.759-.627s.524-.299.781-.357c.007 0 .025.029.055.088l.104.209c.04.081.081.16.121.236a.482.482 0 00.104.148c.235.228.479.385.732.473.253.088.529.092.83.011.11-.029.204-.063.281-.099a5.01 5.01 0 00.22-.11 6.44 6.44 0 01.22-.11c.077-.037.17-.066.28-.088.007-.007.004 0-.011.022s-.035.046-.061.072a.424.424 0 00-.093.137c-.198.162-.376.303-.534.423a5.198 5.198 0 01-.435.303 2.373 2.373 0 01-.379.192 1.815 1.815 0 01-.369.104 2.078 2.078 0 01-.517.022 1.26 1.26 0 01-.473-.143 1.309 1.309 0 01-.259-.132 3.922 3.922 0 01-.226-.176.663.663 0 01-.126-.149 2.478 2.478 0 00-.335-.396c-.059-.055-.114-.079-.165-.071l-.286.154a4.71 4.71 0 00-.335.264.985.985 0 00-.215.259.769.769 0 00-.093.313c-.011.117-.002.256.027.418.029.154.086.292.17.412.084.121.192.2.325.237a.273.273 0 01.088-.028c.029-.003.059.009.088.039h.11a7.798 7.798 0 01.336.017c.055.004.093.005.115.005.066.015.185.028.357.039s.348.028.528.05c.18.022.344.053.495.093.15.041.237.097.259.17l.099-.033c.007 0 .038.013.093.039.055.025.123.055.204.088.081.033.139.061.176.083a.797.797 0 01.198.154c.073.073.143.152.209.236a1.965 1.965 0 01.264.445c.044.154.075.279.093.374.018.095.027.183.027.264a.819.819 0 01-.033.226c-.022.077-.052.174-.088.292 0 .007.005.024.016.05a.183.183 0 01.017.049.24.24 0 01-.083.214.662.662 0 00-.148.182c-.037.059-.051.11-.044.154.007.044-.026.103-.099.176A18.617 18.617 0 0114 30.804a2.247 2.247 0 01-.391.286.276.276 0 01-.16.016.148.148 0 01-.104-.083c-.002-.015-.01-.042-.017-.083zm-2.227-5.648c.011.037.024.048.039.033.029-.007.041-.029.033-.066-.008-.037-.026-.051-.055-.044-.023.015-.028.04-.017.077zm.049.028c.007.033.025.049.055.049s.037-.018.022-.055c-.015-.037-.033-.055-.055-.055-.022.008-.029.028-.022.061zm2.118 1.732c.004.029.013.04.028.033.044-.029.044-.051 0-.066-.023-.007-.032.004-.028.033zm1.93 1.325c.007.033.026.046.055.039.022-.007.029-.027.022-.061-.007-.033-.022-.045-.044-.039-.029.009-.04.029-.033.061zm.231-.23c.007.033.026.05.055.05.022-.022.029-.048.022-.077-.007-.029-.022-.037-.044-.022-.029-.001-.04.016-.033.049zm.237.324c.011.029.031.037.06.022.022-.007.029-.026.022-.055-.008-.029-.026-.037-.055-.022-.029.007-.038.026-.027.055z"/>
                    <path id="path24" d="M16.419 27.107l.066-.539a.634.634 0 01.044-.203.351.351 0 00.017-.066c.004-.026.005-.072.005-.138-.022 0-.025-.003-.011-.011a.695.695 0 01.055-.022.19.19 0 01.055-.011c.022 0 .026.007.011.022v-.22c.066 0 .11-.018.132-.055a.703.703 0 00.061-.143c.018-.059.044-.123.077-.192a.635.635 0 01.192-.215c.007-.007-.021-.022-.083-.044-.063-.022-.094-.037-.094-.044-.168.051-.359.116-.572.192a6.212 6.212 0 00-.572.237h-.099c-.015-.081.064-.18.236-.297.172-.117.423-.275.753-.473l.187-.121.335-.214a16.13 16.13 0 01.534-.325c.007.007.009.019.005.033l-.011.049c-.004.019 0 .033.011.044.011.011.039.017.083.017 0 .147-.029.282-.088.407s-.11.261-.154.407a3.442 3.442 0 00-.198.853c-.029.29-.044.581-.044.875 0 .206.025.405.077.6.051.194.135.379.253.555a.808.808 0 00.055.088l.094.143.093.149a.536.536 0 00.066.093l.027.061a.172.172 0 01.017.061l.715.836c.015.007.055.035.121.083s.106.071.121.071h.033c.073-.044.167-.108.281-.192.113-.084.227-.178.341-.28.114-.103.214-.211.303-.325.088-.114.146-.214.176-.302.037-.118.062-.211.077-.281a1.136 1.136 0 00.027-.325 1.756 1.756 0 01-.005-.154v-.275c0-.044.001-.079.005-.104a.935.935 0 00.005-.104v-.847a4.298 4.298 0 01-.049-.583 1.79 1.79 0 00-.116-.594 1.13 1.13 0 00-.071-.143 6.031 6.031 0 01-.148-.292 23.962 23.962 0 00-.209-.423c.007-.015.027-.009.061.016l.11.088.11.093c.033.029.057.041.072.033.059.059.106.108.143.148l.143.159c.044 0 .084.017.121.05.037.033.068.07.094.11.025.041.047.083.066.126a.646.646 0 00.049.099.842.842 0 00.077.132.754.754 0 01.154.297c.022.081.041.138.055.171.015.033.027.061.039.083a.595.595 0 01.033.083c.011.033.024.09.039.17l.055.313c.022.128.033.236.033.324 0 .052-.008.116-.022.193l-.044.242a2.876 2.876 0 01-.055.248 1.663 1.663 0 00-.044.198.451.451 0 01-.061.148 2.56 2.56 0 01-.104.159c-.037.052-.07.104-.099.16a.328.328 0 00-.044.148c0 .037.045.126.137.27.092.144.198.293.319.451.121.158.242.299.363.423.121.125.214.187.281.187.051 0 .108-.001.17-.005a.252.252 0 00.148-.05c.198-.19.385-.392.561-.605.176-.212.33-.434.462-.666.132-.231.233-.473.303-.726.069-.253.097-.512.083-.776a10.664 10.664 0 00-.072-.775 5.17 5.17 0 00-.154-.748 4.52 4.52 0 00-.721-1.457 4.682 4.682 0 01-.401-.616 4.547 4.547 0 00-.259-.44l-.214-.286a28.304 28.304 0 00-.236-.308 8.159 8.159 0 01-.226-.302 4.087 4.087 0 01-.182-.281 2.93 2.93 0 00-.126-.154l-.088-.099c-.026-.029-.039-.048-.039-.055a3.067 3.067 0 01-.209-.187 52.13 52.13 0 00-.385-.357 11.73 11.73 0 01-.38-.363c-.114-.114-.178-.189-.192-.226a1.195 1.195 0 00-.17-.154 27.855 27.855 0 00-.385-.313c-.15-.121-.313-.25-.489-.385s-.335-.26-.479-.374a4.51 4.51 0 01-.341-.292c-.084-.081-.116-.125-.094-.132l1.254.704c.015 0 .075.037.182.11l.396.27.506.346.506.352c.157.11.292.202.401.275.11.074.172.11.187.11a.641.641 0 01.11.039c.022.011.041.035.055.071 0 .007.003.019.011.033a.167.167 0 01-.016.049c-.011.026-.013.042-.006.049l.176.088a2.835 2.835 0 01.231.132c.022.037.04.055.055.055.022 0 .029-.004.022-.011a3.427 3.427 0 01.176.308c.037.074.07.141.099.204a.558.558 0 00.055.104v.066l.121-.077c.22.125.42.281.6.468s.341.381.484.583c.143.202.268.401.374.599.106.198.194.371.264.517.069.147.123.255.159.325.036.07.055.075.055.016a.77.77 0 00.011.099.411.411 0 00.022.099c.007.022.031.079.071.17.04.092.064.148.072.17a.177.177 0 01.005.083.898.898 0 00-.005.072c.007.059.022.139.044.242a8.25 8.25 0 01.11.643 1.877 1.877 0 01-.022.699c-.029.132-.068.27-.116.413-.048.143-.103.297-.165.462a8.218 8.218 0 00-.246.796 1.008 1.008 0 01-.116.083.458.458 0 00-.116.093.106.106 0 00-.033.077c-.022.029-.099.103-.231.22s-.275.242-.429.374c-.154.132-.295.255-.423.368a2.53 2.53 0 00-.226.215 1.682 1.682 0 01-.297.242 1.576 1.576 0 00-.286.231 2.095 2.095 0 01-.148.132 3.46 3.46 0 00-.176.154 5.174 5.174 0 01-.214.187l-.187.077v-.044h-.044l-.22-.187c-.044.022-.108-.026-.193-.143a21.68 21.68 0 01-.275-.391 9.36 9.36 0 00-.292-.401c-.096-.124-.172-.187-.231-.187-.022 0-.097.063-.226.187s-.271.266-.429.423c-.158.158-.313.308-.468.451a3.195 3.195 0 01-.33.28h-.022c-.051 0-.099-.031-.143-.093a12.008 12.008 0 00-.099-.138.98.98 0 01-.077-.088 2.295 2.295 0 00-.094-.11l-.088-.099-.049-.055a6.1 6.1 0 01-.93-1.177 2.646 2.646 0 01-.368-1.386 4.75 4.75 0 01.034-.537zm4.345.44c0 .03.011.044.033.044.022 0 .033-.015.033-.044 0-.029-.011-.044-.033-.044-.022 0-.033.015-.033.044zm3.047-3.465c-.022 0-.026.026-.011.077.015.051.033.077.055.077a.147.147 0 00.066-.055c.022-.029.022-.04 0-.033zm.022.209c-.022 0-.026.007-.011.022.007.015.015.021.022.017a.018.018 0 00.011-.017c.007-.015 0-.022-.022-.022zm.071.209c.004.022.013.033.028.033.022-.007.033-.018.033-.033 0-.022-.011-.029-.033-.022-.022-.007-.031 0-.028.022z"/>
                    <path id="path26" d="M25.098 31.023a1.447 1.447 0 01-.027-.17l-.017-.16c-.037.066-.066.054-.088-.038a2.678 2.678 0 01-.055-.341 7.121 7.121 0 01-.044-.61c0-.051.015-.081.044-.088l-.176-.132c.029 0 .044-.015.044-.044.007-.015.005-.051-.005-.11a.904.904 0 01-.017-.11h-.033a4.534 4.534 0 00-.033-.44c0-.015-.015-.044-.044-.088-.03-.044-.044-.073-.044-.088s.006-.057.017-.126a.945.945 0 01.028-.137c0-.007.013-.029.038-.066a.547.547 0 01.05-.066v-.022a.13.13 0 00-.044-.104.117.117 0 01-.044-.093v-.099c0-.022.003-.041.011-.055a.152.152 0 01.039-.044l.093-.077h-.099c0-.146.02-.284.061-.412a2.12 2.12 0 00.082-.38c0-.015-.001-.059-.005-.132-.004-.073-.002-.117.005-.132s.029-.037.066-.066a.243.243 0 00.066-.066c0-.007-.007-.022-.022-.044s-.022-.037-.022-.044c0-.029.015-.044.044-.044-.029 0-.044-.015-.044-.044v-.044c0-.007.015-.022.044-.044l.027-.05c.011-.018.017-.031.017-.039a.09.09 0 00-.017-.049.304.304 0 00-.027-.039v-.266a1.517 1.517 0 01.088-.528c0-.007.015-.022.044-.044.007-.015.017-.031.027-.049.011-.019.017-.031.017-.039 0-.029-.007-.044-.022-.044l.165-.319c.007-.014-.002-.018-.027-.011-.026.007-.057.019-.094.033a1.714 1.714 0 00-.104.044.223.223 0 01-.061.022c-.103 0-.202.009-.297.027a2.16 2.16 0 01-.396.027 1.44 1.44 0 00-.093.006c-.048.003-.075-.013-.083-.05a.805.805 0 01.159-.176c.063-.051.13-.101.204-.148.074-.047.154-.101.242-.16s.183-.132.286-.22a.426.426 0 01.143-.083c.066-.025.106-.016.121.028-.022-.059.004-.11.077-.154s.163-.083.27-.115l.308-.094a.631.631 0 00.203-.088.756.756 0 00-.061.226 7.658 7.658 0 00-.093.974.568.568 0 00.264-.077c.095-.051.192-.114.292-.187.099-.073.198-.145.297-.214a2.28 2.28 0 01.28-.17c.323-.147.675-.22 1.056-.22.146 0 .308.007.484.022s.339.051.49.11c.15.059.275.145.374.259.099.114.148.27.148.467a.958.958 0 01-.165.522c-.11.172-.248.339-.413.5a5.39 5.39 0 01-.534.457c-.19.143-.365.27-.522.379-.158.11-.29.204-.396.281-.106.077-.152.13-.137.16.088.22.222.443.401.671.18.227.363.436.55.627.187.191.354.354.5.489.147.136.235.226.264.27.022.015.117.103.286.264.168.161.387.365.654.61.268.246.578.516.93.809.352.293.72.576 1.105.847s.777.517 1.177.737c.4.22.783.381 1.15.484l.209.011a14.104 14.104 0 00.803.022.97.97 0 00.209-.011c.147-.059.253-.103.319-.132a4.37 4.37 0 00.154-.071.959.959 0 01.099-.044c.029-.011.077-.031.143-.06.081-.037.183-.108.308-.215a2.13 2.13 0 01.374-.258c.059-.029.073-.022.044.022-.029.044-.088.11-.176.198-.088.088-.192.191-.313.308-.121.117-.242.231-.363.341a7.265 7.265 0 01-.589.484c-.037.022-.057.045-.061.071a.38.38 0 01-.016.072c-.008.022-.026.04-.055.055s-.088.026-.176.033l-.231.16a25.7 25.7 0 00-.231.159.889.889 0 00-.121.05l-.242.11a3.836 3.836 0 01-.374.148.25.25 0 00-.061.022 2.097 2.097 0 01-.292.1.48.48 0 01-.17-.138.675.675 0 00-.17-.148.466.466 0 01-.253-.198.665.665 0 00-.264-.253.192.192 0 01-.055-.033 3.076 3.076 0 01-.209-.165c-.125-.103-.28-.229-.467-.379s-.387-.313-.6-.49a195.85 195.85 0 00-1.061-.868 22.495 22.495 0 01-.204-.165 15.107 15.107 0 01-.638-.66c-.25-.271-.512-.561-.787-.869a64.069 64.069 0 00-.842-.924 14.35 14.35 0 00-.819-.819 6.56 6.56 0 00-.704-.572c-.209-.143-.375-.204-.5-.182a.854.854 0 00-.093.011l-.154.022a.83.83 0 00-.148.033c-.044.014-.066.029-.066.044l-.066.539c.059.022.088.077.088.165v.187a.866.866 0 01-.017.182.867.867 0 00-.016.17h.044c0-.037.003-.061.011-.071.007-.011.029-.017.066-.017.037 0 .079.042.126.126a1.349 1.349 0 01.133.286c.018.055.037.114.055.176l.055.176c.018.055.031.09.039.104 0 .007.025.039.077.093.051.055.073.086.066.094-.103.088-.204.196-.303.324s-.196.253-.292.374a4.092 4.092 0 01-.27.313c-.084.088-.159.132-.225.132a.18.18 0 01-.104-.033.116.116 0 01-.051-.101zm-.737-6.127c0 .029.011.044.033.044.022 0 .033-.015.033-.044 0-.029-.011-.044-.033-.044-.022 0-.033.015-.033.044zm.341 3.619c0 .029.011.044.033.044.022 0 .033-.015.033-.044 0-.029-.011-.044-.033-.044-.022 0-.033.015-.033.044zm.088.616c0 .029.011.044.033.044.022 0 .033-.015.033-.044 0-.029-.011-.044-.033-.044-.022 0-.033.015-.033.044zm0 .132c0 .029.011.044.033.044.022 0 .033-.015.033-.044 0-.029-.011-.044-.033-.044-.022 0-.033.015-.033.044zm.143-.154c-.022 0-.029.008-.022.022.015.029.029.029.044 0 .007-.014 0-.022-.022-.022zm.033-.638c0 .029.011.044.033.044.022 0 .033-.015.033-.044 0-.029-.011-.044-.033-.044-.022 0-.033.015-.033.044zm0 1.364c0 .03.011.044.033.044.022 0 .033-.014.033-.044 0-.029-.011-.044-.033-.044-.022 0-.033.015-.033.044zm0 .088c0 .029.011.044.033.044.022 0 .033-.015.033-.044 0-.029-.011-.044-.033-.044-.022 0-.033.015-.033.044zm.055-5.346c0 .029.011.044.033.044.022 0 .033-.015.033-.044 0-.029-.011-.044-.033-.044-.022 0-.033.015-.033.044zm.044 1.419c0 .029.011.044.033.044.022 0 .033-.015.033-.044 0-.029-.011-.044-.033-.044-.022 0-.033.015-.033.044zm.077 2.827c0 .029.011.044.033.044.022 0 .033-.015.033-.044 0-.029-.011-.044-.033-.044-.022 0-.033.015-.033.044zm.088 1.144c0 .029.011.044.033.044.022 0 .033-.015.033-.044 0-.029-.011-.044-.033-.044-.022 0-.033.015-.033.044zm.055-4.763c0 .029.011.044.033.044.022 0 .033-.015.033-.044 0-.029-.011-.044-.033-.044-.022 0-.033.015-.033.044zm.066 3.531h.066a.476.476 0 00.072-.006c.025-.003.039-.023.039-.061v-.022zm.242-2.079c0 .029.011.044.033.044.022 0 .033-.015.033-.044 0-.029-.011-.044-.033-.044-.022 0-.033.015-.033.044zm.039.616c.003.029.031.044.083.044h.044l.44-.055c.029.007.07.004.121-.011a1.353 1.353 0 00.302-.127l.116-.061c.154-.073.271-.123.352-.148l.226-.071c.069-.022.143-.055.22-.099a4.55 4.55 0 00.335-.22c.095-.073.189-.141.281-.203.091-.063.172-.132.242-.209a.859.859 0 00.226-.6v-.22a2.237 2.237 0 00-.583-.374 1.665 1.665 0 00-.693-.154c-.25 0-.508.049-.775.148a1.33 1.33 0 00-.633.467.44.44 0 00-.083.171c-.018.07-.033.141-.044.214-.011.073-.02.147-.027.22a4.563 4.563 0 01-.022.187.54.54 0 01-.055.143.275.275 0 00-.033.143v.066c0 .008.007.022.022.044s.022.037.022.044a.925.925 0 01-.044.28.866.866 0 00-.044.27.62.62 0 00.004.111z"/>
                </g>
            </g>
        </g>
    </g>
</svg>
