<svg xmlns="http://www.w3.org/2000/svg" width="192" height="192" viewBox="0 0 192 192" xml:space="preserve">
  <path class="color-main color-green" fill="#529a31" d="M96 29.634c36.593 0 66.367 29.773 66.367 66.366S132.593 162.367 96 162.367 29.634 132.593 29.634 96 59.407 29.634 96 29.634M96 0C42.982 0 0 42.982 0 96s42.982 96 96 96 96-42.981 96-96S149.02 0 96 0z"/>
  <g class="color-orange" fill="#f8b131">
    <path d="m130.921 78.627 16.84-10.317-25.108 7.434L140.93 58.4l-23.343 12.674 14.787-21.514-20.066 17.137 10.156-24.52-15.642 20.388 4.813-25.997-10.596 22.217-.673-25.803L94.9 55.737 89.168 31.86l-.644 24.545-10.075-21.12 4.703 25.378L68.17 41.136l10.114 24.426L58.742 48.87 73.78 70.748l-23.194-12.59L69.52 76.125 44.053 68.58l13.915 8.53 8.81 4.407-17.599-1.058-9.75-.767 20.922 7.553 75.527-2.371 16.693-6.024-26.975 2.967z"/>
    <path stroke="#fff" stroke-miterlimit="10" stroke-width=".961" d="M96.678 53.772a27.94 27.94 0 0 0-27.94 27.94h55.88a27.94 27.94 0 0 0-27.94-27.94z"/>
  </g>
  <path class="color-main color-green" fill="#529a31" stroke="#fff" stroke-miterlimit="10" stroke-width="1.058" d="M97.672 181.713c38.926 0 70.482-37.47 70.482-83.69-12.167-7.416-37.237-20.273-70.65-20.23-33.22.042-58.15 12.818-70.309 20.23 7.824 48.502 38.346 83.69 70.477 83.69z"/>
  <path class="color-main color-green" fill="#529a31" d="M96 7.045C46.872 7.045 7.045 46.872 7.045 96S46.872 184.956 96 184.956 184.956 145.128 184.956 96 145.128 7.045 96 7.045zm0 154.187c-36.026 0-65.232-29.206-65.232-65.232 0-36.026 29.202-65.232 65.232-65.232S161.232 59.974 161.232 96c0 36.026-29.206 65.232-65.232 65.232z"/>
  <path class="color-white" fill="#fff" d="M96 186.001c-49.627 0-90.001-40.373-90.001-90S46.373 5.998 96 5.998 186.001 46.373 186.001 96s-40.373 90.001-90 90.001zm0-177.91C47.528 8.09 8.09 47.527 8.09 96c0 48.471 39.438 87.91 87.91 87.91 48.476 0 87.91-39.435 87.91-87.91C183.906 47.527 144.472 8.09 96 8.09zm0 154.191c-36.546 0-66.277-29.735-66.277-66.282S59.453 29.72 96 29.72s66.278 29.73 66.278 66.277S132.547 162.282 96 162.282zm0-130.468c-35.395 0-64.186 28.795-64.186 64.186 0 35.391 28.795 64.186 64.186 64.186 35.391 0 64.186-28.79 64.186-64.186 0-35.39-28.795-64.186-64.186-64.186z"/>
  <g class="color-white" fill="#fff">
    <path d="M62.421 136.98a15.524 15.524 0 0 1-.16-1.186 1.143 1.143 0 0 0-.073-.373c-.156-.122-.38-.343-.677-.652s-.614-.635-.957-.978a27.292 27.292 0 0 0-1.024-.977 6.77 6.77 0 0 0-.885-.699.783.783 0 0 1-.233-.207l-.326-.373a2.942 2.942 0 0 0-.393-.372.669.669 0 0 0-.398-.161 12.302 12.302 0 0 1-1.749-.259 5.495 5.495 0 0 0-2.582-.072c-.466.094-1.071.31-1.816.652-.932.407-1.732.923-2.4 1.562-.665.636-1.313 1.11-1.935 1.419a6.894 6.894 0 0 1 1.143-1.512 30.8 30.8 0 0 1 1.304-1.236l1.164-1.024a3.937 3.937 0 0 0 .817-.932c.372-.279.69-.512.952-.698a13.123 13.123 0 0 1 1.584-.953c.266-.14.567-.3.91-.49.529-.217.957-.373 1.278-.466a3.31 3.31 0 0 1 .91-.14c.31 0 .636.013.978.047.343.03.775.046 1.304.046.496-.03 1.008.123 1.537.466s1.041.77 1.537 1.278c.495.512.97 1.059 1.418 1.63.449.572.88 1.1 1.283 1.583.402.483.77.864 1.092 1.143.326.28.597.356.817.233a2.485 2.485 0 0 0 1.185-.906 7.578 7.578 0 0 0 .745-1.325c.203-.465.402-.897.606-1.304a2.244 2.244 0 0 1 .72-.884c-.064 0-.123-.047-.187-.14-.063-.093-.106-.157-.14-.186-.063-.03-.055-.08.022-.14.076-.064.114-.123.114-.186a1.287 1.287 0 0 0-.068-.326.77.77 0 0 0-.165-.326l-.174.042-.512-2.375a1.482 1.482 0 0 1-.745-.419.889.889 0 0 1-.233-.838l-3.26-1.863a7.857 7.857 0 0 1-1.84-.49 9.919 9.919 0 0 0-1.792-.534 15.706 15.706 0 0 0-1.888-.115 50.267 50.267 0 0 1-2.56-.118 22.521 22.521 0 0 1-2.49-.3c-.78-.14-1.334-.382-1.677-.72a10.981 10.981 0 0 1-.165-.585l-.165-.626c-.093-.343-.165-.606-.207-.792a3.222 3.222 0 0 1-.093-.512 1.939 1.939 0 0 1 .02-.512l.14-.838c.03-.03.039-.106.022-.233a.512.512 0 0 1 .02-.28l.187-.28c-.03 0-.085-.037-.165-.113-.076-.08-.114-.132-.114-.166l-.14-.14v-.092a.533.533 0 0 0 .114-.3c.013-.14.038-.225.072-.26.53-.96 1.22-1.993 2.07-3.094s1.791-2.159 2.82-3.166c1.029-1.008 2.095-1.893 3.213-2.655s2.218-1.265 3.306-1.51c.03 0 .106.122.233.372l.44.884c.17.343.343.678.513 1a2.04 2.04 0 0 0 .44.626c.995.965 2.028 1.63 3.099 2.002 1.07.373 2.24.39 3.513.047a7.106 7.106 0 0 0 1.19-.42 21.21 21.21 0 0 0 .931-.465 27.263 27.263 0 0 1 .932-.465c.326-.157.72-.28 1.185-.373.03-.03.017 0-.047.093s-.148.195-.258.305a1.795 1.795 0 0 0-.394.58 80.68 80.68 0 0 1-2.26 1.79 22.005 22.005 0 0 1-1.842 1.283 10.046 10.046 0 0 1-1.604.813 7.684 7.684 0 0 1-1.562.44 8.797 8.797 0 0 1-2.189.094 5.334 5.334 0 0 1-2.002-.606 5.541 5.541 0 0 1-1.097-.559 16.603 16.603 0 0 1-.956-.745 2.807 2.807 0 0 1-.534-.63 10.49 10.49 0 0 0-1.418-1.677c-.25-.233-.483-.334-.699-.3l-1.21.651a19.94 19.94 0 0 0-1.418 1.118 4.17 4.17 0 0 0-.91 1.096 3.255 3.255 0 0 0-.394 1.326c-.047.495-.009 1.083.114 1.77a4.44 4.44 0 0 0 .72 1.743c.355.512.812.847 1.375 1.004a1.156 1.156 0 0 1 .373-.119c.123-.013.25.038.373.165h.465a33.012 33.012 0 0 1 1.423.072c.232.017.393.021.486.021.28.064.784.119 1.512.165s1.473.119 2.235.212a15.53 15.53 0 0 1 2.096.394c.635.173 1.003.41 1.096.72l.42-.14c.029 0 .16.055.393.165.233.106.52.233.863.372.343.14.589.259.745.352a3.374 3.374 0 0 1 .839.652c.309.309.605.643.884.999a8.319 8.319 0 0 1 1.118 1.884c.186.651.318 1.18.394 1.583.076.402.114.775.114 1.117a3.467 3.467 0 0 1-.14.957c-.093.326-.22.737-.372 1.236 0 .03.021.102.068.212a.775.775 0 0 1 .071.207 1.016 1.016 0 0 1-.35.906 2.802 2.802 0 0 0-.627.77c-.157.25-.216.466-.187.653.03.186-.11.436-.419.745a78.812 78.812 0 0 1-5.935 5.634 9.512 9.512 0 0 1-1.655 1.211 1.168 1.168 0 0 1-.678.068.627.627 0 0 1-.44-.351c-.008-.064-.042-.178-.072-.352zm-9.427-23.91c.046.156.101.202.165.139.122-.03.173-.123.14-.28-.035-.156-.11-.215-.234-.186-.097.064-.118.17-.071.326zm.207.118c.03.14.106.207.233.207s.156-.076.093-.233c-.064-.156-.14-.233-.233-.233-.093.034-.123.119-.093.259zm8.966 7.332c.017.123.055.17.119.14.186-.123.186-.216 0-.28-.098-.03-.136.017-.119.14zm8.17 5.61c.03.139.11.194.233.164.094-.03.123-.114.094-.258-.03-.14-.094-.19-.187-.165-.122.038-.169.123-.14.258zm.979-.975c.03.14.11.212.232.212.093-.093.123-.203.093-.326s-.093-.157-.186-.093c-.123-.004-.17.068-.14.207zm1.003 1.372c.046.123.131.157.254.093.093-.03.123-.11.093-.233-.034-.122-.11-.156-.233-.093-.123.03-.16.11-.114.233z"/>
    <path d="m75.507 120.753.279-2.282a2.684 2.684 0 0 1 .186-.86 1.486 1.486 0 0 0 .072-.279 4.71 4.71 0 0 0 .021-.584c-.093 0-.105-.013-.046-.047a2.942 2.942 0 0 1 .233-.093.804.804 0 0 1 .232-.046c.094 0 .11.03.047.093v-.932c.28 0 .466-.076.559-.232a2.976 2.976 0 0 0 .258-.606c.076-.25.186-.52.326-.813a2.688 2.688 0 0 1 .813-.91c.03-.03-.09-.093-.352-.186-.266-.093-.397-.157-.397-.186-.712.216-1.52.49-2.422.813a26.298 26.298 0 0 0-2.421 1.003h-.42c-.063-.343.271-.762 1-1.257.728-.496 1.79-1.165 3.187-2.003l.792-.512 1.418-.906a68.284 68.284 0 0 1 2.26-1.376c.03.03.039.08.022.14l-.047.207c-.017.08 0 .14.047.187.046.046.165.072.351.072 0 .622-.123 1.193-.372 1.722s-.466 1.105-.652 1.723a14.571 14.571 0 0 0-.838 3.612 37.162 37.162 0 0 0-.187 3.704c0 .872.106 1.714.326 2.54a7.725 7.725 0 0 0 1.071 2.35 3.42 3.42 0 0 0 .233.372l.398.605.394.63a2.27 2.27 0 0 0 .28.395l.113.258a.728.728 0 0 1 .072.258l3.027 3.54c.064.029.233.147.513.35s.448.301.512.301h.14a16.39 16.39 0 0 0 1.189-.813c.478-.355.961-.753 1.444-1.185.482-.436.906-.893 1.282-1.376.373-.482.618-.906.745-1.278.157-.5.263-.894.326-1.19a4.81 4.81 0 0 0 .115-1.376 7.434 7.434 0 0 1-.022-.652v-1.164c0-.186.005-.334.022-.44a3.958 3.958 0 0 0 .02-.44v-3.586a18.195 18.195 0 0 1-.207-2.468 7.578 7.578 0 0 0-.49-2.515 4.784 4.784 0 0 0-.301-.605 25.531 25.531 0 0 1-.627-1.236 101.44 101.44 0 0 0-.885-1.79c.03-.064.115-.039.259.067l.465.372.466.394c.14.123.241.174.305.14.25.25.449.457.605.626l.606.673c.186 0 .355.072.512.212.156.14.288.296.398.466.106.173.199.351.28.533a2.735 2.735 0 0 0 .207.42 3.564 3.564 0 0 0 .326.558 3.192 3.192 0 0 1 .651 1.257c.094.343.174.585.233.724.064.14.115.258.165.352a2.519 2.519 0 0 1 .14.351c.047.14.102.381.165.72l.233 1.325c.093.542.14.999.14 1.371 0 .22-.034.491-.093.817l-.187 1.025a12.175 12.175 0 0 1-.233 1.05 7.04 7.04 0 0 0-.186.838 1.91 1.91 0 0 1-.258.626 10.837 10.837 0 0 1-.44.674c-.157.22-.297.44-.42.677a1.389 1.389 0 0 0-.186.626c0 .157.19.534.58 1.143.39.61.839 1.24 1.35 1.91a19.795 19.795 0 0 0 1.537 1.79c.513.53.906.792 1.19.792.216 0 .457-.004.72-.021a1.067 1.067 0 0 0 .626-.212c.838-.804 1.63-1.66 2.375-2.561a19.533 19.533 0 0 0 1.956-2.82 13.35 13.35 0 0 0 1.283-3.073c.292-1.07.41-2.167.351-3.285a45.145 45.145 0 0 0-.305-3.28 21.886 21.886 0 0 0-.652-3.167 19.135 19.135 0 0 0-3.052-6.168 19.82 19.82 0 0 1-1.698-2.608 19.25 19.25 0 0 0-1.096-1.863l-.906-1.21a119.821 119.821 0 0 0-.999-1.304 34.54 34.54 0 0 1-.957-1.279 17.302 17.302 0 0 1-.77-1.19 12.404 12.404 0 0 0-.534-.651l-.372-.42c-.11-.122-.165-.203-.165-.232a12.984 12.984 0 0 1-.885-.792 220.685 220.685 0 0 0-1.63-1.511 49.657 49.657 0 0 1-1.609-1.537c-.482-.483-.753-.8-.812-.957a5.059 5.059 0 0 0-.72-.652 117.92 117.92 0 0 0-1.63-1.325c-.635-.512-1.325-1.058-2.07-1.63s-1.418-1.1-2.028-1.583a19.092 19.092 0 0 1-1.443-1.236c-.356-.343-.491-.53-.398-.559l5.308 2.98c.064 0 .318.157.77.466l1.677 1.143 2.142 1.465 2.142 1.49c.665.466 1.237.855 1.698 1.164.466.314.728.466.792.466a2.714 2.714 0 0 1 .465.165c.093.047.174.148.233.3 0 .03.013.081.047.14a.707.707 0 0 1-.068.208c-.047.11-.055.178-.025.207l.745.373a12.002 12.002 0 0 1 .978.558c.093.157.169.233.232.233.094 0 .123-.017.094-.046a14.508 14.508 0 0 1 .745 1.304c.156.313.296.597.419.863a2.362 2.362 0 0 0 .233.44v.28l.512-.326c.931.53 1.778 1.19 2.54 1.981s1.443 1.613 2.049 2.468a24.053 24.053 0 0 1 1.583 2.536c.449.838.821 1.57 1.118 2.189.292.622.52 1.08.673 1.375.152.297.233.318.233.068a3.26 3.26 0 0 0 .046.42 1.74 1.74 0 0 0 .093.418c.03.094.132.335.3.72.17.39.272.627.306.72a.75.75 0 0 1 .02.351 3.802 3.802 0 0 0-.02.305c.03.25.093.588.186 1.024a34.925 34.925 0 0 1 .466 2.722 7.946 7.946 0 0 1-.094 2.96 16.952 16.952 0 0 1-.49 1.748 58.622 58.622 0 0 1-.7 1.956 34.79 34.79 0 0 0-1.04 3.37 4.267 4.267 0 0 1-.492.35 1.939 1.939 0 0 0-.49.395.449.449 0 0 0-.14.326c-.094.122-.42.436-.978.93s-1.164 1.025-1.816 1.584c-.652.559-1.25 1.08-1.791 1.558a10.71 10.71 0 0 0-.957.91 7.12 7.12 0 0 1-1.257 1.025 6.672 6.672 0 0 0-1.21.978 8.869 8.869 0 0 1-.627.558 14.647 14.647 0 0 0-.745.652 21.903 21.903 0 0 1-.906.792l-.792.326v-.186h-.186l-.932-.792c-.186.093-.457-.11-.817-.605a91.78 91.78 0 0 1-1.164-1.656 39.624 39.624 0 0 0-1.236-1.697c-.406-.525-.728-.792-.978-.792-.093 0-.41.267-.957.792s-1.147 1.126-1.816 1.79a68.358 68.358 0 0 1-1.981 1.91 13.526 13.526 0 0 1-1.397 1.185h-.093c-.216 0-.42-.131-.606-.394a50.834 50.834 0 0 0-.419-.584 4.149 4.149 0 0 1-.326-.372 9.716 9.716 0 0 0-.398-.466l-.372-.42-.207-.232a25.823 25.823 0 0 1-3.938-4.983 11.201 11.201 0 0 1-1.557-5.867 20.108 20.108 0 0 1 .144-2.273zm18.393 1.862c0 .127.047.187.14.187.093 0 .14-.064.14-.187 0-.122-.047-.186-.14-.186-.093 0-.14.064-.14.186zm12.9-14.668c-.094 0-.11.11-.047.326.063.216.14.326.233.326a.622.622 0 0 0 .28-.233c.092-.123.092-.17 0-.14zm.093.885c-.093 0-.11.03-.047.093.03.063.064.089.093.072a.076.076 0 0 0 .047-.072c.03-.064 0-.093-.093-.093zm.3.884c.017.093.055.14.119.14.093-.03.14-.076.14-.14 0-.093-.047-.122-.14-.093-.093-.03-.131 0-.119.093z"/>
    <path d="M112.248 137.33a6.126 6.126 0 0 1-.114-.72l-.072-.676c-.157.279-.28.228-.373-.161a11.337 11.337 0 0 1-.233-1.444 30.146 30.146 0 0 1-.186-2.582c0-.216.063-.343.186-.373l-.745-.559c.123 0 .186-.063.186-.186.03-.063.022-.216-.02-.466a3.827 3.827 0 0 1-.073-.465h-.14a19.194 19.194 0 0 0-.14-1.863c0-.063-.063-.186-.185-.372-.127-.187-.187-.31-.187-.373s.026-.241.072-.533a4 4 0 0 1 .119-.58c0-.03.055-.123.16-.28a2.316 2.316 0 0 1 .212-.28v-.092a.55.55 0 0 0-.186-.44.495.495 0 0 1-.186-.394v-.42c0-.092.013-.173.046-.232a.643.643 0 0 1 .166-.186l.393-.326h-.419c0-.618.085-1.203.258-1.745a8.975 8.975 0 0 0 .347-1.608c0-.064-.004-.25-.02-.56-.018-.308-.01-.494.02-.558s.123-.156.28-.28a1.029 1.029 0 0 0 .28-.279c0-.03-.03-.093-.094-.186s-.093-.157-.093-.186c0-.123.064-.186.186-.186-.122 0-.186-.064-.186-.187v-.186c0-.03.064-.093.186-.186l.115-.212c.046-.076.072-.131.072-.165a.381.381 0 0 0-.072-.207 1.287 1.287 0 0 0-.115-.166v-1.126a6.422 6.422 0 0 1 .373-2.235c0-.03.063-.093.186-.186.03-.064.072-.131.114-.208.047-.08.072-.13.072-.165 0-.122-.03-.186-.093-.186l.699-1.35c.03-.06-.009-.077-.115-.047-.11.03-.24.08-.397.14a7.256 7.256 0 0 0-.44.186.944.944 0 0 1-.259.093c-.436 0-.855.038-1.257.114a9.144 9.144 0 0 1-1.677.115 6.096 6.096 0 0 0-.393.025c-.204.013-.318-.055-.352-.212a3.408 3.408 0 0 1 .673-.745c.267-.215.55-.427.864-.626.313-.2.652-.428 1.024-.677s.775-.56 1.211-.932a1.803 1.803 0 0 1 .606-.351c.279-.106.448-.068.512.118-.093-.25.017-.465.326-.652s.69-.35 1.143-.486l1.304-.398a2.671 2.671 0 0 0 .859-.373 3.2 3.2 0 0 0-.258.957 32.42 32.42 0 0 0-.394 4.123 2.405 2.405 0 0 0 1.118-.326c.402-.216.812-.482 1.236-.791.419-.31.838-.614 1.257-.906a9.652 9.652 0 0 1 1.185-.72c1.368-.622 2.858-.931 4.47-.931.619 0 1.305.03 2.05.093s1.435.216 2.074.465a3.99 3.99 0 0 1 1.583 1.097c.42.482.627 1.143.627 1.977a4.056 4.056 0 0 1-.699 2.21 12.04 12.04 0 0 1-1.748 2.116 22.818 22.818 0 0 1-2.26 1.935 72.068 72.068 0 0 1-2.21 1.604c-.67.466-1.228.864-1.677 1.19-.448.326-.643.55-.58.677.373.932.94 1.876 1.698 2.84a33.856 33.856 0 0 0 2.328 2.655 60.393 60.393 0 0 0 2.117 2.07c.622.576.995.957 1.117 1.143.094.064.496.436 1.211 1.118.711.682 1.639 1.545 2.769 2.582a108.657 108.657 0 0 0 3.937 3.425c1.49 1.24 3.048 2.439 4.678 3.586s3.289 2.188 4.982 3.12c1.694.931 3.315 1.613 4.869 2.049l.885.046a59.707 59.707 0 0 0 3.399.093 4.106 4.106 0 0 0 .885-.046c.622-.25 1.07-.436 1.35-.559a18.5 18.5 0 0 0 .652-.3 4.06 4.06 0 0 1 .42-.187c.122-.046.325-.131.605-.254.342-.156.774-.457 1.303-.91a9.017 9.017 0 0 1 1.584-1.092c.25-.123.309-.093.186.093s-.373.466-.745.838c-.373.373-.813.809-1.325 1.304s-1.025.978-1.537 1.444a30.755 30.755 0 0 1-2.493 2.049c-.157.093-.242.19-.259.3a1.609 1.609 0 0 1-.067.305c-.034.093-.11.17-.233.233s-.373.11-.745.14l-.978.677a108.797 108.797 0 0 0-.978.673 3.763 3.763 0 0 0-.512.212l-1.025.465a16.24 16.24 0 0 1-1.583.627 1.058 1.058 0 0 0-.258.093 8.877 8.877 0 0 1-1.236.423 2.032 2.032 0 0 1-.72-.584 2.858 2.858 0 0 0-.72-.627 1.973 1.973 0 0 1-1.07-.838 2.815 2.815 0 0 0-1.118-1.07.813.813 0 0 1-.233-.14 13.022 13.022 0 0 1-.885-.699c-.53-.436-1.185-.97-1.977-1.604s-1.638-1.325-2.54-2.075a829.104 829.104 0 0 0-4.492-3.674 95.23 95.23 0 0 1-.863-.699 63.953 63.953 0 0 1-2.701-2.794 307.31 307.31 0 0 1-3.332-3.679 271.227 271.227 0 0 0-3.564-3.911 60.749 60.749 0 0 0-3.467-3.467 27.77 27.77 0 0 0-2.98-2.422c-.885-.605-1.588-.863-2.117-.77a3.615 3.615 0 0 0-.394.046l-.652.093a3.514 3.514 0 0 0-.626.14c-.187.06-.28.123-.28.186l-.28 2.282c.25.093.373.326.373.699v.791a3.666 3.666 0 0 1-.072.77 3.67 3.67 0 0 0-.067.72h.186c0-.156.013-.258.046-.3.03-.047.123-.072.28-.072.156 0 .334.178.533.533a5.71 5.71 0 0 1 .563 1.211c.076.233.157.483.233.745l.233.745c.076.233.131.381.165.44 0 .03.106.166.326.394.216.233.309.364.28.398-.437.373-.864.83-1.283 1.372s-.83 1.07-1.236 1.583a17.323 17.323 0 0 1-1.143 1.325c-.356.373-.674.559-.953.559a.762.762 0 0 1-.44-.14.491.491 0 0 1-.216-.427zm-3.12-25.937c0 .122.046.186.14.186.093 0 .14-.064.14-.186 0-.123-.047-.187-.14-.187-.094 0-.14.064-.14.187zm1.443 15.32c0 .123.047.187.14.187.093 0 .14-.064.14-.187s-.047-.186-.14-.186c-.093 0-.14.063-.14.186zm.373 2.608c0 .123.047.186.14.186.093 0 .14-.063.14-.186s-.047-.186-.14-.186c-.093 0-.14.063-.14.186zm0 .559c0 .123.047.186.14.186.093 0 .14-.063.14-.186s-.047-.186-.14-.186c-.093 0-.14.063-.14.186zm.605-.652c-.093 0-.122.034-.093.093.064.123.123.123.186 0 .03-.06 0-.093-.093-.093zm.14-2.701c0 .123.047.186.14.186.093 0 .14-.063.14-.186s-.047-.186-.14-.186c-.093 0-.14.063-.14.186zm0 5.774c0 .127.047.187.14.187.093 0 .14-.06.14-.187 0-.122-.047-.186-.14-.186-.093 0-.14.064-.14.186zm0 .373c0 .123.047.186.14.186.093 0 .14-.063.14-.186s-.047-.186-.14-.186c-.093 0-.14.063-.14.186zm.233-22.632c0 .123.046.187.14.187.093 0 .14-.064.14-.187 0-.122-.047-.186-.14-.186-.094 0-.14.064-.14.186zm.186 6.007c0 .123.047.187.14.187.093 0 .14-.064.14-.187 0-.122-.047-.186-.14-.186-.093 0-.14.064-.14.186zm.326 11.968c0 .123.047.186.14.186.093 0 .14-.063.14-.186s-.047-.186-.14-.186c-.093 0-.14.063-.14.186zm.373 4.843c0 .123.046.186.14.186.093 0 .14-.063.14-.186s-.047-.186-.14-.186c-.094 0-.14.063-.14.186zm.233-20.163c0 .122.046.186.14.186.092 0 .139-.064.139-.186 0-.123-.047-.187-.14-.187-.093 0-.14.064-.14.187zm.279 14.948h.28a2.015 2.015 0 0 0 .304-.026c.106-.013.165-.097.165-.258v-.093zm1.024-8.802c0 .123.047.187.14.187.093 0 .14-.064.14-.187 0-.122-.047-.186-.14-.186-.093 0-.14.064-.14.186zm.165 2.608c.013.123.132.186.352.186h.186l1.863-.232c.123.03.296.017.512-.047a5.728 5.728 0 0 0 1.279-.538l.49-.258c.653-.309 1.148-.52 1.49-.626l.957-.3c.293-.094.606-.234.932-.42a19.262 19.262 0 0 0 1.418-.931c.402-.31.8-.597 1.19-.86a5.95 5.95 0 0 0 1.024-.885 3.636 3.636 0 0 0 .957-2.54v-.93a9.47 9.47 0 0 0-2.468-1.584 7.049 7.049 0 0 0-2.934-.652c-1.058 0-2.15.207-3.28.626a5.63 5.63 0 0 0-2.68 1.977 1.863 1.863 0 0 0-.352.724c-.076.297-.14.597-.186.906-.047.31-.085.623-.115.932a19.317 19.317 0 0 1-.093.791 2.286 2.286 0 0 1-.232.606 1.164 1.164 0 0 0-.14.605v.28c0 .033.03.093.093.186s.093.156.093.186a3.916 3.916 0 0 1-.186 1.185 3.666 3.666 0 0 0-.186 1.143 2.625 2.625 0 0 0 .016.47z"/>
  </g>
</svg>
