<svg xmlns="http://www.w3.org/2000/svg" viewBox="0 0 170.1 170.1">
    <path fill="#005092" stroke="#292b82" stroke-miterlimit="10" d="M48.6 78.9c1.4 9.1 10.6 8.3 14.8 4.4 2.9-2.7-3.5-10.4 4.9-11.6 12.6-2 4.4-6.1 4.8-9.7.3-2.3 10.1-7.5 2.6-10.7-6.5-2.7-5.8.1-8.5-.5s-10.2.5-10.2.5c-5.7 4.2-12.5 13.9-12.5 13.9l-3.4 12.7 7.5 1z"/>
    <path fill="#181716" d="M168.9 85.1c-.1 9.9-2 19.6-5.7 28.8-2.1 5.2-4.8 10.1-8 14.8-3.5 5-7.2 9.8-11.6 14-5.2 5-10.8 9.4-17.1 12.9-7.5 4.2-15.1 7.7-23.6 9.2-4.4.8-8.8 1.7-13.3 2.1-7.3.6-14.7 0-22-1.4-8.7-1.6-16.9-5.1-24.6-9.5-7.6-4.3-14.3-9.8-20.3-16.2-2.6-2.7-4.7-5.8-6.9-8.8-3.7-5.1-6.6-10.6-9.1-16.4-2.6-6.2-4.1-12.7-5-19.3-.7-5-.6-9.9-.4-14.8.8-12.5 4.3-24 10.2-34.8 3.1-5.7 6.9-10.9 11.3-15.6 2.9-3 5.7-6.2 9.1-8.6 2.9-2.2 5.9-4.2 9.1-6.2 7.3-4.5 15.3-7.6 23.6-9.7 7-1.7 14-2.6 21.2-2.6 7.5.1 15 1 22.2 3 14.6 4.1 27.1 11.3 37.6 22 6.1 6.2 11.2 12.9 15 20.7 3.5 7.1 5.9 14.6 7.2 22.4.7 4.5 1.4 9.2 1.1 14zm-3.8-.7c-.1-2-.2-4.8-.5-7.7-.6-5.9-1.7-11.8-3.8-17.3-4.3-11.8-10.8-22.2-20-30.8-8.4-7.8-17.9-13.7-28.9-17.2-9.3-2.9-18.6-4.9-28.4-4.5-6.5 0-12.9 1-19.3 2.4-6.5 1.5-12.6 4.2-18.5 7.3-5.6 2.9-10.6 6.8-15.3 10.8-4.5 4-8.5 8.5-11.9 13.5-3.5 5-6.4 10.2-8.5 15.9-2.2 6.2-3.6 12.5-4.5 19-1 7.7-1 15.3.5 22.8 1.2 5.8 3 11.4 5.5 16.9 4.9 10.8 11.6 20.4 20.7 28.1 7.6 6.3 15.8 11.3 25.1 14.6 9 3.1 18.3 4.7 27.8 5 3.3.1 6.5-.3 9.8-.8 7-1 13.6-2.9 20.3-5.5 8.1-3.1 15.5-7.8 22.1-13.4 2.6-2.2 4.9-4.9 7.2-7.5 8.3-9.1 14.3-19.3 17.6-31.2 1-3.8 1.7-7.8 2.4-11.8.4-2.6.4-5.2.6-8.6z"/>
    <path fill="#181716" d="M7.6 85.2C7.9 76 9.1 67 12.5 58.5c4.7-11.8 11.8-21.8 21.3-30 7.5-6.4 15.8-11.2 25-14.7 6.6-2.6 13.6-4 20.7-4.7 2.4-.2 4.9-.6 7.2-.2 2.3.3 4.5.3 6.9.7 6.1.7 12.1 1.9 17.8 4 6.1 2.2 11.6 4.9 17 8.5 4.5 3.1 8.7 6.6 12.6 10.5 6.5 6.6 11.6 14.3 15.3 22.8 4.1 9.5 5.9 19.4 5.8 29.7-.1 11.8-2.9 22.8-8.1 33.4-3 6.2-7.3 11.3-11.8 16.3-5 5.7-11.1 10.2-17.6 14.1-9.7 5.7-20.3 9.1-31.3 10.6-2.6.3-5.1.6-7.8.6-7.2.2-14.3-.6-21.3-2.8-4.8-1.5-9.5-2.9-14.1-5.1-5.4-2.6-10.1-6.2-14.9-9.7-4.2-3.1-7.9-6.9-11.2-10.9-5.7-7.1-9.8-15-12.6-23.6-1.3-4-2.6-7.9-3-12.1-.2-3.6-.4-7.2-.8-10.7zM154.8 83c0-4.1-.5-7.8-1.2-11.5-1.4-8.7-4.5-16.8-9.5-24.1-3.1-4.5-6.6-8.7-10.6-12.7-2.9-2.9-6.1-5.4-9.4-7.7-6.3-4.2-13-6.9-20.4-8.7-6.5-1.6-13.2-2.4-19.9-2.4-2.7 0-5.4.5-8 .8-7.1.9-13.9 3.1-20.5 5.9-5.6 2.4-10.7 5.6-15.5 9.5-4.4 3.6-8.3 7.6-11.5 12.2-2.1 3-3.8 6.4-5.6 9.8-2.3 4.5-4.4 9.2-5.6 14.2-1 4.8-1.7 9.7-1.9 14.6-.1 3.3 0 6.5.3 9.7.7 4.9 2 9.8 3.6 14.4 3.3 9.3 8.5 17.3 15.4 24.3 6.3 6.4 13.5 11.6 22 15 4.9 2 9.8 3.8 15.1 4.8 4.4.7 8.8 1.4 13.3 1.4 5.1 0 10.2-.7 15.3-1.7 6.4-1.4 12.5-3.4 18.2-6.5 9.1-5 16.8-11.4 23-19.8 5.5-7.3 9.4-15.4 11.4-24.3 1.4-5.7 1.7-11.5 2-17.2z"/>
    <path fill="none" d="M151.4 81.6c0-36.7-29.7-66.4-66.2-66.4S18.8 44.9 18.8 81.6s29.7 66.2 66.2 66.2 66.4-29.7 66.4-66.2z"/>
    <path fill="none" d="M137.7 90.6c0 30.4-23.5 55.1-52.5 55.1S32.6 121 32.6 90.6s23.5-55.1 52.5-55.1 52.6 24.8 52.6 55.1z"/>
    <path fill="none" stroke="#28221f" stroke-miterlimit="10" stroke-width=".911" d="M100.6 123.8c-2.4-1.2-5.9-2.8-9.9-5.1-4.8-2.8-7.3-4.3-9.9-6.9-5.1-5.1-7.5-10.7-8-13.2-.8-3-5.7-15 2.2-23.5 6.9-7.5 14.1-8.7 13.9-9"/>
    <path fill="none" stroke="#28221f" stroke-miterlimit="10" stroke-width=".911" d="M116.2 117.1c-2.4-1.2-2.6-1.2-6.4-3.5-4.8-2.8-7-4.8-9.9-6.9-6.3-4.5-9.7-9.5-11.1-11.8-3.3-5-3-13.3 2.1-23.6"/>
    <path fill="none" stroke="#28221f" stroke-miterlimit="10" stroke-width="1.633" d="M90.2 123.8l20.3-13.3m-28.3 6.6l23-10.5m-28.5 3.6l21.7-7.1m-24.8.8l22.8-4.5m-25.9-2.5l20.7-1M69 89.8l20.8 1.4m-20-7.7l19.1 2.6m-17-8.3l16 3.2M74 73.6l16.2 3.3m-11.1-7.7l11.6 4.6"/>
    <path fill="none" stroke="#92612c" stroke-miterlimit="10" stroke-width="1.633" d="M91.4 45l4.2 55.3"/>
    <path fill="none" stroke="#008465" stroke-miterlimit="10" stroke-width="1.851" d="M87.5 76.3l6.4-8.1m7.3 6.1l-8.6-6.2"/>
    <path fill="none" stroke="#008465" stroke-miterlimit="10" stroke-width="1.774" d="M84.2 71.3l8.8-9.8m8.2 6.8l-9.5-6.8"/>
    <path fill="none" stroke="#008465" stroke-miterlimit="10" stroke-width="1.411" d="M84.6 63.4l8.5-7.8m7 4.2L92 55.6"/>
    <path fill="none" stroke="#008465" stroke-miterlimit="10" stroke-width="1.12" d="M85.2 56.8l7.2-6.3m6.5 3.9l-7.3-3.9"/>
    <path fill="none" stroke="#008465" stroke-miterlimit="10" d="M87.2 49.9l4.4-5.4m4 3.7L91 44.4"/>
    <path fill="none" stroke="#92612c" stroke-miterlimit="10" stroke-width="1.419" d="M109.6 51.1l-.2 39.7"/>
    <path fill="none" stroke="#008465" stroke-miterlimit="10" stroke-width="1.609" d="M101.6 75.4l8.6-6.8m6.7 5.2l-8-5.3"/>
    <path fill="none" stroke="#008465" stroke-miterlimit="10" stroke-width="1.542" d="M102.1 70.2l7.7-6.6m6.8 5l-8-5.1"/>
    <path fill="none" stroke="#008465" stroke-miterlimit="10" stroke-width="1.226" d="M102.7 63.9l7.6-4.8m5.8 3.1l-6.9-3.1"/>
    <path fill="none" stroke="#008465" stroke-miterlimit="10" stroke-width=".974" d="M103.8 58.7l6.3-3.4m4.5 2.9l-5.4-3.1"/>
    <path fill="none" stroke="#008465" stroke-miterlimit="10" stroke-width=".869" d="M104.8 54.6l4.9-3.9m4.8 4l-5.4-4.1"/>
    <path fill="none" stroke="#92612c" stroke-miterlimit="10" stroke-width="3" d="M95.5 99.4l33-20.9"/>
    <path fill="none" stroke="#92612c" stroke-miterlimit="10" stroke-width="1.851" d="M119.8 109.4l-24.3-10m33.7-15l-27.3 17.7m12.1-14l2.7 3.9m-.2.5l-.6 15.3m.6-15.3l11 3.8"/>
    <path d="M85.7 38c7.5.2 14.6 2 21.1 5.5 5.4 2.8 10 6.5 13.9 11.1 3.5 4.1 6.4 8.6 8 13.7.9 2.9 1.5 5.9 2 8.8.7 4.2.7 8.5.1 12.8-.7 5.5-2.4 10.6-5.1 15.3-6.3 10.9-15.6 18-27.5 21.8-4.5 1.4-9.2 2.3-14 2.1-8.5-.5-16.5-2.2-23.7-6.9-4.1-2.6-7.9-5.5-10.9-9.2-4.3-5.2-7.8-10.9-9.4-17.6-2.1-8.4-2-16.9.6-25.3 1.7-5.9 4.5-11.4 8.7-15.9 7-7.9 15.8-13.4 26.7-15.3 3-.4 6.3-.5 9.5-.9zM128 84.2c-.1-1.6-.2-3-.3-4.5-.3-6.6-2.6-12.7-5.9-18.3-3.5-5.9-8.3-10.6-14.2-14-7.3-4.2-15.1-6.6-23.7-5.9-2.6.2-5.2.2-7.7.8-9.3 1.9-15.4 6.2-17.2 7.5-.6.5-2.6 2-4.9 4.3-2.2 2.3-7.9 8.4-10.7 18.2-1.3 4.7-1.7 9.5-1.4 14.8.5 5.4 1.9 10.5 4.2 15.4 3.3 6.8 8.3 11.9 14.2 16.2 3 2.2 6.5 3.7 10 4.9 6.3 2.1 12.8 3.1 19.4 2.3 6.2-.8 12.1-2.4 17.5-5.8 7-4.3 12.6-9.9 16.3-17.3 2.9-6.1 4.5-12.3 4.4-18.6z"/>
    <path fill="#181716" d="M22.5 99.2c-.3-.4-.8-1.4-1-2.6-.7-3.3 1-5.8 4.2-6.4 3.5-.7 6 1.3 6.7 4.5.3 1.3.2 2.2 0 2.7l-1.6-.1c.1-.5.2-1.3 0-2.1-.4-2.1-2.1-3.4-4.6-2.9-2.3.5-3.5 2.1-3.1 4.4.2.8.5 1.6.8 2l-1.4.5zm11.2.7l-4 1.5 1.6 4.2 4-1.5.7 1.9-10 3.9-.7-1.8 4.4-1.7-1.6-4.2-4.4 1.7-.7-1.9 10-3.9.7 1.8zm4.1 9.3l-9.4 5.1-.9-1.7 9.4-5.1.9 1.7zm1.9 3.2l-3.5 2.5 2.6 3.7 3.5-2.5 1.1 1.6-8.7 6.2-1.1-1.6 3.9-2.7-2.6-3.7-3.9 2.7-1.1-1.6 8.7-6.2 1.1 1.6zm6.2 7.7l-4.4 4.5c-1.5 1.5-1.5 2.8-.6 3.7 1 1 2.3.9 3.8-.6l4.4-4.5 1.4 1.4-4.3 4.4c-2.3 2.4-4.6 2.2-6.4.4-1.8-1.7-2-3.9.4-6.3l4.3-4.4 1.4 1.4zm2.7 12.7l-2.5 2-1.7-1.2 9-6.8 2 1.4-3.2 10.8-1.7-1.2.9-3-2.8-2zm3.4.6l.8-2.6c.2-.7.5-1.4.7-2-.5.4-1 .9-1.6 1.3l-2.2 1.7 2.3 1.6zm8.8-2l-1.8 3.9 4.1 1.9 1.8-3.9 1.8.8-4.5 9.7-1.8-.8 2-4.3-4.1-1.9-2 4.3-1.8-.8 4.5-9.7 1.8.8zm9.2 3.8l-1.6 6c-.5 2 .1 3.2 1.3 3.5 1.4.4 2.4-.4 3-2.4l1.6-6 1.9.5-1.6 5.9c-.8 3.2-2.9 4.2-5.4 3.5-2.4-.6-3.6-2.4-2.7-5.6l1.6-5.9 1.9.5zm8.7 9.6l-1.2 2.9-2-.2 4.4-10.4 2.5.2 2.5 11-2.1-.2-.7-3.1-3.4-.2zm3.2-1.2l-.6-2.7c-.1-.7-.3-1.4-.4-2-.2.6-.4 1.3-.7 1.9l-1.1 2.6 2.8.2zm10.9 1.4l-.5 3.1-2 .3 2-11.1 2.5-.3 4.8 10.2-2.1.3-1.4-2.9-3.3.4zm2.9-1.9l-1.2-2.5c-.3-.6-.6-1.3-.8-1.9-.1.6-.1 1.4-.2 2.1l-.5 2.7 2.7-.4zm3.4-6.9l1.9-.5 2.5 8.7 4.2-1.2.5 1.6-6.1 1.8-3-10.4zm9.8-3.1c.6-.4 1.4-1 2.6-1.6 1.3-.7 2.3-.9 3.2-.7.8.2 1.6.7 2 1.6.5.9.6 1.8.3 2.6-.3 1.1-1.3 1.9-2.5 2.6-.3.2-.6.3-.9.4l1.9 3.6-1.7.9-4.9-9.4zm4 3.5c.2-.1.5-.2.9-.4 1.3-.7 1.8-1.7 1.2-2.8-.5-1.1-1.6-1.2-2.8-.6-.5.2-.8.5-1 .6l1.7 3.2zm8.5-1.9l1 3-1.6 1.2-3.4-10.7 2-1.4 9 6.7-1.7 1.2-2.5-1.9-2.8 1.9zm1.7-3l-2.2-1.7c-.5-.4-1.1-.9-1.6-1.3.2.6.5 1.3.7 1.9l.9 2.6 2.2-1.5zm12.3-5.3c-.2.5-.7 1.4-1.6 2.3-2.4 2.4-5.4 2.3-7.7 0-2.5-2.5-2.2-5.8.1-8 .9-.9 1.8-1.3 2.2-1.5l.8 1.4c-.5.2-1.2.5-1.8 1.2-1.6 1.5-1.7 3.6.1 5.4 1.6 1.7 3.7 1.8 5.4.2.6-.6 1.1-1.2 1.2-1.8l1.3.8zm-5.4-10l8.3 6.8-1.2 1.5-8.3-6.8 1.2-1.5zm1.2-1.4l3.4-5.2 1.3.9-2.3 3.5 2.5 1.6 2.2-3.3 1.3.9-2.2 3.3 3.8 2.5-1.1 1.6-8.9-5.8zm4.9-8.2l9.5 4.9-.9 1.7-9.5-4.9.9-1.7zm13.4-5.1c.1.5-.1 1.6-.5 2.8-1.2 3.2-3.9 4.3-7 3.2-3.3-1.3-4.4-4.3-3.2-7.4.5-1.2 1-2 1.4-2.3l1.3 1c-.4.4-.8 1-1.1 1.8-.8 2-.1 4 2.3 4.9 2.2.8 4.1.1 4.9-2.1.3-.7.4-1.6.4-2.1l1.5.2zM147 89.2c3.5.7 5.1 3.3 4.5 6.2-.6 3-3.2 4.4-6.3 3.8-3.2-.7-5.1-3.1-4.5-6.1.6-3.2 3.3-4.5 6.3-3.9zm-1.5 7.9c2.1.4 4.1-.3 4.4-2.1.4-1.9-1.1-3.2-3.3-3.7-2-.4-4 .2-4.4 2.1-.4 1.9 1.2 3.2 3.3 3.7zM19.8 69.7l3.4-9.3 3 1.1-2.2 5.8 3.6 1.4 2-5.5 2.9 1.1-2 5.5 6.4 2.4-1.3 3.4-15.8-5.9zm19.4-17.1l-3.2 5 3.4 2.2 3.6-5.6 2.7 1.7-5.7 8.7-14.3-9.1 5.4-8.4 2.7 1.7-3.4 5.3 3 1.9 3.2-5 2.6 1.6zm-4.3-9.9c.7-1 1.9-2.3 3.2-3.7 1.7-1.7 3.2-2.6 4.7-2.7 1.3-.1 2.5.4 3.5 1.5 1.5 1.5 1.5 3.6.9 5l.1.1c1.1-.4 2.4-.1 3.8.8 1.7 1 3.6 2.2 4.3 2.5l-2.7 2.6c-.5-.2-1.8-.9-3.6-2-1.8-1.2-2.7-1.1-3.8-.1l-.8.8 4.7 4.8-2.6 2.5-11.7-12.1zm7.7 2.7l1-1c1.3-1.3 1.4-2.7.4-3.8-1.1-1.1-2.4-1-3.6.2-.6.6-.9 1-1.1 1.2l3.3 3.4zm5.3-14.3c.9-.8 2.4-1.8 4-2.7 2.1-1.2 3.7-1.7 5.2-1.5 1.2.2 2.3 1 3.1 2.3 1.1 1.9.6 3.9-.4 5.1v.1c1.2-.2 2.3.5 3.5 1.7 1.4 1.4 2.9 3.1 3.5 3.5l-3.2 1.9c-.5-.3-1.5-1.3-3-2.9-1.4-1.6-2.3-1.8-3.6-1l-1 .4 3.3 5.8-3.1 1.8-8.3-14.5zm6.8 4.5l1.2-.7c1.6-.9 2-2.3 1.3-3.6-.8-1.4-2-1.5-3.5-.7-.8.4-1.2.8-1.4.9l2.4 4.1zm25.2-8.4c1.3 5.4-1 9.5-5.6 10.6-4.7 1.1-8.3-1.9-9.5-6.6-1.2-4.9.9-9.4 5.6-10.5 4.9-1.2 8.4 1.9 9.5 6.5zm-11.3 3c.8 3.2 2.8 5.2 5.2 4.6 2.4-.6 3.2-3.3 2.4-6.5-.7-3-2.7-5.2-5.2-4.6-2.3.5-3.2 3.3-2.4 6.5zm26.6 5.7c-.7.3-2.2.6-4.2.5-5.6-.3-8.3-4.1-8.1-8.9.3-5.8 4.4-8.8 9.3-8.6 1.9.1 3.3.6 4 .9l-.9 3c-.7-.4-1.7-.7-3-.8-2.9-.1-5.3 1.6-5.4 5.4-.2 3.4 1.7 5.6 4.9 5.8 1.1.1 2.3-.1 3.1-.4l.3 3.1zm6.5-2.1l-2.5 3.8-3.6-1.2 10.2-14.5 4.6 1.6-.7 17.7-3.7-1.3.2-4.5-4.5-1.6zm4.8-1.4l.2-3.7c.1-1 .2-2.3.3-3.4-.6.9-1.2 2-1.8 2.9l-2.1 3.1 3.4 1.1zm13.4-4.4c1.1.5 2.6 1.4 4.2 2.5 2 1.4 3.2 2.6 3.6 4.1.3 1.2.1 2.5-.8 3.8-1.2 1.8-3.3 2.2-4.7 1.8v.1c.7 1 .5 2.3 0 3.8-.7 1.9-1.5 4-1.6 4.7l-3.1-2.1c.1-.5.5-1.9 1.3-3.9s.6-2.9-.6-3.7l-.9-.6-3.8 5.5-3-2 9.4-14zm-1.1 8l1.2.8c1.5 1 2.9.8 3.8-.4.9-1.3.5-2.5-.9-3.5-.7-.5-1.2-.7-1.4-.8l-2.7 3.9zm15 2.4c.9.7 2.2 2 3.5 3.4 1.6 1.8 2.4 3.3 2.5 4.8 0 1.3-.5 2.4-1.7 3.5-1.6 1.4-3.7 1.3-5 .6l-.1.1c.4 1.2 0 2.4-.9 3.7-1.1 1.6-2.4 3.5-2.7 4.2l-2.5-2.8c.2-.5 1-1.7 2.2-3.5 1.3-1.7 1.3-2.6.3-3.8l-.7-.8-5 4.4-2.4-2.7 12.5-11.1zm-3.1 7.6l1 1.1c1.2 1.4 2.6 1.5 3.8.6 1.2-1 1.1-2.3 0-3.6-.6-.7-1-1-1.2-1.2l-3.6 3.1zm15.5 8.3l-14.5 8.8-1.9-3.1 14.5-8.8 1.9 3.1zm2.5 4.5l1.4 3.4-12.7 5.2 2.4 6-3 1.2-3.8-9.4 15.7-6.4z"/>
</svg>
