<svg xmlns="http://www.w3.org/2000/svg" viewBox="0 0 500 500">
    <path fill="#9a4993" d="M412.4 174.8c0-6.1-1.3-11.6-4-16.2-2.6-4.6-6.5-8.4-11.7-11.4-43.2-24.9-86.5-49.8-129.7-74.7-11.7-6.7-22.9-6.5-34.5.3-17.2 10.1-103.4 59.5-129 74.4-10.6 6.1-15.7 15.5-15.7 27.7v150.4c0 6 1.3 11.3 3.8 15.9 2.6 4.7 6.6 8.7 11.9 11.8 25.7 14.9 111.8 64.2 129 74.4 11.6 6.8 22.9 7.1 34.5.3 43.2-25 86.5-49.8 129.7-74.7 5.4-3.1 9.3-7 11.9-11.8 2.5-4.6 3.8-9.9 3.8-15.9V174.8"/>
    <path fill="#6a1577" d="M250.5 249.5L91.4 341.1c2.6 4.7 6.6 8.7 11.9 11.8 25.7 14.9 111.8 64.2 129 74.4 11.6 6.8 22.9 7.1 34.5.3 43.2-25 86.5-49.8 129.7-74.7 5.4-3.1 9.3-7 11.9-11.8l-157.9-91.6"/>
    <path fill="#6a1577" d="M203.4 276.6c9.3 16.2 26.7 27.1 46.6 27.1 20.1 0 37.6-11 46.8-27.4l-46.3-26.8-47.1 27.1"/>
    <path fill="#813084" d="M412.4 174.8c0-6.1-1.3-11.6-4-16.2l-157.9 90.9 158.1 91.6c2.5-4.6 3.8-9.9 3.8-15.9V174.8"/>
    <path fill="#fff" d="M296.8 276.3c-9.2 16.3-26.7 27.4-46.8 27.4-20 0-37.4-10.9-46.6-27.1-4.5-7.9-7.1-16.9-7.1-26.6 0-29.7 24-53.7 53.7-53.7 19.8 0 37.1 10.8 46.4 26.8l46.9-27c-18.7-32.2-53.5-53.9-93.4-53.9-59.6 0-107.8 48.3-107.8 107.8 0 19.5 5.2 37.9 14.3 53.7C175 336 210 357.8 250 357.8c40.1 0 75.1-21.9 93.7-54.4l-46.9-27.1"/>
    <g fill="#fff">
        <path d="M345.4 224.5h10.7v51.7h-10.7zm23.7 0h10.7v51.7h-10.7z"/>
        <path d="M336.8 233.2h51.7v10.7h-51.7zm0 23.6h51.7v10.7h-51.7z"/>
    </g>
</svg>
