<svg xmlns="http://www.w3.org/2000/svg" width="227.778" height="250" preserveAspectRatio="xMidYMid" viewBox="-30 -30 32.393 34.8">
  <path fill="#A9B9CB" d="M-1.164-18.46q0-.718-.309-1.263a2.4 2.4 0 0 0-.914-.892c-3.366-1.942-6.735-3.88-10.1-5.824-.907-.524-1.787-.505-2.687.027-1.34.79-8.047 4.637-10.046 5.796-.823.477-1.223 1.207-1.224 2.156v11.72q-.001.702.295 1.24.304.552.928.916c2 1.159 8.707 5.005 10.047 5.796.9.532 1.78.55 2.688.026 3.364-1.944 6.734-3.88 10.1-5.823q.625-.365.928-.916.297-.537.296-1.24l-.001-11.718"/>
  <path fill="#7F8B99" d="M-12.51-26.413c-.905-.523-1.784-.504-2.682.026-1.338.79-8.034 4.626-10.03 5.782-.822.475-1.221 1.203-1.222 2.15v11.69q0 .7.294 1.236a2.4 2.4 0 0 0 .927.913l1.991 1.148 18.477-18.477q-3.877-2.232-7.755-4.468"/>
  <path fill="#FFF" d="m-11.19-14.38 3.934.027c0-1.64-1.66-5.654-6.417-5.654-3.031 0-7.106 1.927-7.106 7.467s3.995 7.347 7.106 7.347c5.038 0 6.243-3.486 6.243-5.457l-3.754-.214s.1 2.279-2.51 2.279c-2.408 0-2.81-2.951-2.81-3.955 0-1.525.543-3.974 2.81-3.974 2.27 0 2.503 2.133 2.503 2.133"/>
</svg>
