<svg xmlns="http://www.w3.org/2000/svg" width="227.77769" height="250" preserveAspectRatio="xMidYMid" viewBox="-30 -30 32.393226 34.799999">
    <path fill="#A9B9CB" d="M-1.16369-18.459237c-.0002-.47829-.10242-.900889-.30902-1.263529-.202959-.356719-.507039-.655569-.914718-.891999-3.365837-1.942608-6.734924-3.879286-10.099571-5.823874-.907109-.524109-1.786669-.505049-2.687058.0267-1.339678.790869-8.047051 4.637365-10.045749 5.796114-.82307.47701-1.223639 1.206949-1.223839 2.155728-.001 3.906746 0 7.813282-.001 11.720128.0002.46773.0981.88212.29559 1.239439.203049.36738.511279.67453.928439.91629 1.998798 1.158748 8.707061 5.004944 10.046439 5.796013.900789.53202 1.780349.55098 2.687748.0267 3.364747-1.944678 6.734044-3.881266 10.10037-5.823874.41716-.24166.72539-.549.92844-.916089.19722-.35732.29529-.77171.29549-1.239539 0 0 0-7.811312-.001-11.718148"/>
    <path fill="#7F8B99" d="M-12.509819-26.413159c-.905619-.522829-1.783699-.503769-2.682608.0266-1.337508.788799-8.033911 4.625315-10.029359 5.781104-.82178.47573-1.221659 1.203789-1.221859 2.150098-.001 3.896576 0 7.793042-.001 11.689708.0002.46654.0979.87985.2951 1.236179.202749.3665.510489.67285.926959.91392a889.67882 889.67882 0 001.990898 1.147588l18.477172-18.477172c-2.585337-1.488698-5.171365-2.976226-7.755023-4.467995"/>
    <path fill="#FFF" d="M-11.190881-14.380851l3.934498.0277c0-1.639309-1.659369-5.653894-6.416725-5.653894-3.031037 0-7.105863 1.926998-7.105863 7.467222 0 5.540134 3.994536 7.346743 7.105863 7.346743 5.038436 0 6.242615-3.486417 6.242615-5.456675l-3.753568-.2146s.10044 2.278878-2.509097 2.278878c-2.408748 0-2.810697-2.950747-2.810697-3.954346 0-1.525539.542479-3.974486 2.810697-3.974486 2.268318 0 2.502277 2.133408 2.502277 2.133408"/>
</svg>
