<svg xmlns="http://www.w3.org/2000/svg" width="249.996" height="250" viewBox="0 0 249.996 250">
  <path fill="#fff" d="M124.997 25C69.861 25 25 69.86 25 124.999 25 180.142 69.86 225 124.997 225c55.138 0 100-44.858 100-100.001 0-55.138-44.862-99.999-100-99.999"/>
  <path fill="#91dc47" d="M121.34 126.797a417.75 417.75 0 0 0-2.916 6.463c-3.629 8.221-7.648 18.226-9.115 24.635-.528 2.283-.854 5.112-.848 8.248 0 1.24.066 2.545.172 3.873a47.863 47.863 0 0 0 16.458 2.932 47.949 47.949 0 0 0 15.065-2.456c-1.113-1.017-2.175-2.103-3.143-3.325-6.421-8.19-10.004-20.19-15.673-40.37M97.631 86.112c-12.264 8.644-20.29 22.9-20.32 39.056.03 15.914 7.814 29.986 19.77 38.665 2.933-12.216 10.285-23.402 21.309-45.823a180.35 180.35 0 0 0-2.236-5.835c-3.054-7.66-7.462-16.558-11.395-20.586-2.006-2.105-4.44-3.924-7.128-5.477"/>
  <path fill="#63b132" d="M166.711 179.971c-6.328-.793-11.55-1.75-16.119-3.361a57.171 57.171 0 0 1-25.501 5.97c-31.706 0-57.407-25.697-57.411-57.412 0-17.209 7.58-32.635 19.574-43.156-3.207-.775-6.553-1.227-9.97-1.22-16.845.158-34.627 9.48-42.03 34.657-.692 3.665-.527 6.436-.527 9.72 0 49.91 40.461 90.37 90.366 90.37 30.564 0 57.563-15.186 73.914-38.412-8.844 2.204-17.348 3.257-24.631 3.28-2.73 0-5.292-.146-7.665-.436"/>
  <path fill="#90b4fe" d="M149.73 162.46c.558.277 1.823.729 3.583 1.228 11.841-8.693 19.536-22.695 19.567-38.52h-.005c-.044-26.384-21.395-47.73-47.784-47.783a47.899 47.899 0 0 0-15.002 2.439c9.702 11.06 14.368 26.863 18.88 44.151l.009.02c.009.015 1.444 4.801 3.908 11.152 2.446 6.342 5.932 14.194 9.734 19.915 2.496 3.835 5.241 6.59 7.11 7.399"/>
  <path fill="#5881d8" d="M125.093 34.797c-30.268 0-57.042 14.901-73.442 37.748 8.535-5.345 17.25-7.273 24.855-7.204 10.505.03 18.763 3.287 22.725 5.515a41.621 41.621 0 0 1 2.756 1.756 57.173 57.173 0 0 1 23.104-4.856c31.71.004 57.415 25.702 57.42 57.412h-.005c0 15.987-6.539 30.442-17.08 40.851 2.587.29 5.347.47 8.165.456 10.008.005 20.826-2.203 28.936-9.024 5.288-4.455 9.718-10.978 12.175-20.757.48-3.777.757-7.617.757-11.525 0-49.907-40.457-90.372-90.366-90.372"/>
</svg>
