<svg xmlns="http://www.w3.org/2000/svg" width="249.99609" height="250" viewBox="0 0 249.99609 250">
    <path fill="#fff" d="M124.99727 25C69.860843 25 25 69.860843 25 124.99883 25 180.1415 69.860843 225 124.99727 225c55.13798 0 99.99883-44.8585 99.99883-100.00117C224.9961 69.860843 180.13525 25 124.99727 25"/>
    <path fill="#91dc47" d="M121.34031 126.79723c-.89842 1.94684-1.88981 4.13429-2.91635 6.46237-3.62884 8.22172-7.64751 18.22621-9.11545 24.63546-.52733 2.28277-.85389 5.11162-.84764 8.24828 0 1.2406.0664 2.54448.17187 3.87258 5.13037 1.88512 10.67167 2.92182 16.45828 2.93197 5.26786-.0102 10.3287-.88045 15.06533-2.45542-1.11326-1.01795-2.17574-2.10308-3.14291-3.32572-6.42175-8.1889-10.00449-20.19023-15.67313-40.36952M97.631397 86.112088c-12.264607 8.643581-20.290232 22.899552-20.3207 39.055482.03047 15.91454 7.814691 29.98614 19.77071 38.66566 2.932753-12.21617 10.284173-23.40189 21.308183-45.82333-.65468-1.7984-1.40076-3.76711-2.2359-5.83504-3.05385-7.66079-7.46157-16.557489-11.39509-20.586317-2.00543-2.104646-4.43897-3.923361-7.127203-5.476455"/>
    <path fill="#63b132" d="M166.7113 179.97119c-6.328-.79295-11.55056-1.74996-16.11922-3.36165-7.68422 3.81555-16.33796 5.97098-25.50106 5.97098-31.705637 0-57.407479-25.69794-57.411385-57.41295 0-17.20825 7.581102-32.634514 19.574618-43.155402-3.20775-.774985-6.552997-1.22732-9.970118-1.22107-16.844983.15859-34.626667 9.481065-42.029648 34.657912-.692174 3.66478-.527333 6.43582-.527333 9.72013 0 49.90918 40.460928 90.37011 90.366206 90.37011 30.56347 0 57.56294-15.18642 73.9134-38.41253-8.84358 2.20386-17.3481 3.25775-24.63077 3.2804-2.72963 0-5.29208-.14609-7.66469-.43593"/>
    <path fill="#90b4fe" d="M149.73038 162.4606c.5578.27655 1.82262.72811 3.58274 1.22732 11.84118-8.6928 19.53634-22.69487 19.56681-38.52035h-.005c-.0442-26.38307-21.39458-47.730313-47.78391-47.782656-5.24521.01016-10.28418.875765-15.00205 2.439015 9.70215 11.059159 14.36768 26.863541 18.88088 44.151481.002.008.006.0141.008.0203.009.0141 1.44372 4.80069 3.90774 11.15135 2.44682 6.34206 5.93269 14.19347 9.73418 19.91523 2.49605 3.8343 5.2413 6.58972 7.1108 7.3983"/>
    <path fill="#5881d8" d="M125.09336 34.797465c-30.268161 0-57.042638 14.90049-73.442318 37.7477 8.53499-5.345208 17.249663-7.273295 24.854983-7.204547 10.504483.03047 18.762915 3.287436 22.725342 5.515518.957013.551551 1.865583 1.14529 2.755413 1.755434 7.07018-3.114002 14.88252-4.855374 23.10424-4.855374 31.70953.0039 57.41528 25.701842 57.41997 57.411374h-.005c0 15.98719-6.53893 30.44238-17.08013 40.85155 2.58745.28984 5.34677.4703 8.16468.45624 10.0084.005 20.82616-2.20386 28.93615-9.02482 5.28818-4.4546 9.71856-10.97713 12.17555-20.75663.48046-3.77727.75701-7.61704.75701-11.52477 0-49.90684-40.45702-90.371675-90.3662-90.371675"/>
</svg>
