<svg xmlns="http://www.w3.org/2000/svg" width="250" height="250" viewBox="0 0 250 250">
    <path fill="#f2f2f2" d="M225 125c0 37.8125-21.25 70.9375-52.1875 87.8125C158.75 220.625 142.1875 225 125 225c-55.3125 0-100-44.6875-100-100 0-37.8125 21.25-70.9375 52.1875-87.8125C91.25 29.375 107.8125 25 125 25c55.3125 0 100 44.6875 100 100z"/>
    <path fill="#2d3a3e" d="M225 125c0 37.8125-21.25 70.9375-52.1875 87.8125-16.5625 3.75-34.6875-1.25-47.8125-14.0625-20.3125-20.3125-20.3125-53.4375 0-73.75s20.3125-53.4375 0-73.75c-13.125-13.125-31.25-17.8125-47.8125-14.0625C91.25 29.375 107.8125 25 125 25c55.3125 0 100 44.6875 100 100z"/>
    <path fill="#2d3a3e" d="M101.25 180.3125c-1.875-2.5-3.4375-5.3125-5.3125-8.125-2.1875-3.75-4.0625-7.8125-5.3125-12.1875-7.5-27.5 12.5-52.8125 25.625-81.25H99.0625s-18.125 29.375-23.4375 51.5625C64.6875 103.125 57.5 78.75 57.5 78.75H41.5625s21.875 73.4375 47.5 107.8125h16.875c-1.5625-1.875-3.125-4.0625-4.6875-6.25z"/>
    <path fill="#f2f2f2" d="M147.1875 68.4375c1.875 2.5 3.4375 5.3125 5.3125 8.125 2.1875 3.75 4.0625 7.8125 5.3125 12.1875 7.5 27.5-12.5 52.8125-25.625 81.25h17.1875s18.125-29.375 23.4375-51.5625C183.75 145.625 190.9375 170 190.9375 170h15.9375S185 96.5625 159.375 62.1875H142.5c1.5625 1.875 3.125 4.0625 4.6875 6.25z"/>
</svg>
