<svg xmlns="http://www.w3.org/2000/svg" width="250" height="250" viewBox="0 0 250 250">
  <path fill="#f2f2f2" d="M225 125c0 37.813-21.25 70.938-52.188 87.813C158.75 220.625 142.188 225 125 225c-55.313 0-100-44.688-100-100 0-37.813 21.25-70.938 52.188-87.813C91.25 29.375 107.811 25 125 25c55.313 0 100 44.688 100 100z"/>
  <path fill="#2d3a3e" d="M225 125c0 37.813-21.25 70.938-52.188 87.813-16.562 3.75-34.687-1.25-47.812-14.063-20.313-20.313-20.313-53.438 0-73.75s20.313-53.438 0-73.75c-13.125-13.125-31.25-17.813-47.813-14.063C91.25 29.375 107.814 25 125 25c55.313 0 100 44.688 100 100z"/>
  <path fill="#2d3a3e" d="M101.25 180.313c-1.875-2.5-3.438-5.313-5.313-8.125-2.187-3.75-4.062-7.813-5.312-12.188-7.5-27.5 12.5-52.813 25.625-81.25H99.062s-18.124 29.375-23.437 51.563C64.687 103.124 57.5 78.75 57.5 78.75H41.562s21.876 73.438 47.5 107.813h16.876c-1.563-1.875-3.126-4.063-4.688-6.25z"/>
  <path fill="#f2f2f2" d="M147.188 68.438c1.875 2.5 3.437 5.312 5.312 8.124 2.188 3.75 4.063 7.813 5.313 12.188 7.5 27.5-12.5 52.813-25.625 81.25h17.187s18.125-29.375 23.438-51.563C183.75 145.625 190.938 170 190.938 170h15.937S185 96.562 159.375 62.187H142.5c1.563 1.876 3.125 4.063 4.688 6.25z"/>
</svg>
