<svg xmlns="http://www.w3.org/2000/svg" width="64" height="64" viewBox="0 0 64 64">
    <path fill="#f2f2f2" d="M64 32c0 12.1-6.8 22.7-16.7 28.1C42.8 62.6 37.5 64 32 64 14.3 64 0 49.7 0 32 0 19.9 6.8 9.3 16.7 3.9 21.2 1.4 26.5 0 32 0c17.7 0 32 14.3 32 32z"/>
    <path fill="#2d3a3e" d="M64 32c0 12.1-6.8 22.7-16.7 28.1-5.3 1.2-11.1-.4-15.3-4.5-6.5-6.5-6.5-17.1 0-23.6s6.5-17.1 0-23.6c-4.2-4.2-10-5.7-15.3-4.5C21.2 1.4 26.5 0 32 0c17.7 0 32 14.3 32 32z"/>
    <path fill="#2d3a3e" d="M24.4 49.7c-.6-.8-1.1-1.7-1.7-2.6-.7-1.2-1.3-2.5-1.7-3.9-2.4-8.8 4-16.9 8.2-26h-5.5s-5.8 9.4-7.5 16.5c-3.5-8.7-5.8-16.5-5.8-16.5H5.3s7 23.5 15.2 34.5h5.4c-.5-.6-1-1.3-1.5-2z"/>
    <path fill="#f2f2f2" d="M39.1 13.9c.6.8 1.1 1.7 1.7 2.6.7 1.2 1.3 2.5 1.7 3.9 2.4 8.8-4 16.9-8.2 26h5.5s5.8-9.4 7.5-16.5c3.5 8.7 5.8 16.5 5.8 16.5h5.1s-7-23.5-15.2-34.5h-5.4c.5.6 1 1.3 1.5 2z"/>
</svg>
