<svg xmlns="http://www.w3.org/2000/svg" width="227.727" height="250" viewBox="-30 -30 272.379 293.56">
  <path fill="#00599C" d="M209.773 175.554c1.668-2.89 2.704-6.144 2.704-9.068V65.014c0-2.924-1.035-6.178-2.704-9.067L106.19 115.75z"/>
  <path fill="#004482" d="m115.394 233.165 87.878-50.736c2.532-1.461 4.833-3.985 6.5-6.875L106.19 115.75 2.606 175.555c1.668 2.889 3.97 5.414 6.5 6.874l87.879 50.736c5.062 2.924 13.347 2.924 18.41 0z"/>
  <path fill="#659AD2" d="M209.773 55.946c-1.668-2.89-3.97-5.414-6.5-6.875l-87.88-50.736c-5.062-2.924-13.347-2.924-18.41 0L9.108 49.07C4.044 51.993-.098 59.168-.098 65.014v101.472c0 2.924 1.036 6.179 2.704 9.068L106.19 115.75z"/>
  <path fill="#FFF" d="M106.19 186.609c-39.072 0-70.859-31.787-70.859-70.859 0-39.071 31.787-70.858 70.858-70.858 25.212 0 48.725 13.567 61.363 35.407l-30.666 17.745c-6.325-10.932-18.088-17.723-30.697-17.723-19.536 0-35.429 15.893-35.429 35.43 0 19.535 15.893 35.429 35.43 35.429 12.61 0 24.373-6.792 30.699-17.725l30.665 17.744c-12.638 21.842-36.151 35.41-61.365 35.41z"/>
  <path fill="#FFF" d="M177.048 111.814h-7.874v-7.873h-7.872v7.873h-7.874v7.872h7.874v7.874h7.872v-7.874h7.874zm29.524 0H198.7v-7.873h-7.873v7.873h-7.873v7.872h7.873v7.874h7.873v-7.874h7.873z"/>
</svg>
