<svg xmlns="http://www.w3.org/2000/svg" width="227.72667" height="250" viewBox="-30 -30 272.37896 293.56033">
    <path fill="#00599C" d="M209.77257 175.5541c1.66795-2.88922 2.70443-6.14453 2.70443-9.06779V65.013687c0-2.92326-1.03509-6.17788-2.70374-9.06709L106.18948 115.75035z"/>
    <path fill="#004482" d="M115.39412 233.1654l87.87824-50.73596c2.53145-1.46163 4.83226-3.98544 6.50021-6.87534l-103.58309-59.80375L2.606387 175.55479c1.66795 2.88921 3.969457 5.41372 6.50021 6.87465l87.87824 50.73596c5.062213 2.92326 13.347073 2.92326 18.409283 0z"/>
    <path fill="#659AD2" d="M209.77326 55.945897c-1.66864-2.8899-3.97015-5.41371-6.5009-6.87534L115.39412-1.665406c-5.06221-2.923254-13.34707-2.923254-18.409283 0L9.106597 49.070557C4.0437 51.993117-.098038 59.167877-.098038 65.013687V166.48631c0 2.92326 1.035782 6.17857 2.704426 9.06779l103.583093-59.80375z"/>
    <path fill="#FFF" d="M106.18948 186.60869c-39.071433 0-70.858347-31.78691-70.858347-70.85834 0-39.071433 31.786914-70.858353 70.858347-70.858353 25.21168 0 48.72484 13.56729 61.36263 35.40695l-30.66568 17.74515c-6.32515-10.93164-18.08833-17.72292-30.69695-17.72292-19.536063 0-35.429173 15.89311-35.429173 35.429173 0 19.53536 15.89311 35.42917 35.429173 35.42917 12.61001 0 24.37319-6.79129 30.69903-17.72501l30.66569 17.74446c-12.6378 21.84174-36.15165 35.40972-61.36472 35.40972z"/>
    <path fill="#FFF" d="M177.04782 111.81354h-7.87361v-7.87292h-7.87222v7.87292h-7.87361v7.87292h7.87361v7.87361h7.87222v-7.87361h7.87361zm29.52431 0h-7.87361v-7.87292h-7.87222v7.87292h-7.87361v7.87292h7.87361v7.87361h7.87222v-7.87361h7.87361z"/>
</svg>
