<svg xmlns="http://www.w3.org/2000/svg" width="227.83051" height="250" viewBox="-30 -30 269.94335 291.08838">
    <path fill="#9a4993" d="M210.32229 65.474947c0-3.95957-.84385-7.52968-2.59645-10.51559-1.68768-2.98591-4.21921-5.45253-7.59459-7.39986-28.04156-16.162843-56.14804-32.32569-84.18961-48.488537-7.59459-4.34904-14.86462-4.219218-22.394302.194733-11.1647 6.556014-67.11801 38.622064-83.735234 48.293804-6.880569 3.95958-10.191032 10.06121-10.191032 17.98036v97.626203c0 3.89466.843843 7.33494 2.46662 10.32085 1.687686 3.05082 4.284127 5.64726 7.724412 7.6595 16.682135 9.67175 72.570534 41.67288 83.735234 48.29381 7.529682 4.41395 14.864622 4.60868 22.394302.19473 28.04157-16.22775 56.14805-32.32569 84.18961-48.48854 3.5052-2.01224 6.03673-4.54377 7.72442-7.6595 1.62277-2.98591 2.46662-6.42619 2.46662-10.32085V65.474947"/>
    <path fill="#6a1577" d="M105.23132 113.96349L1.95787 173.422c1.687686 3.05082 4.284127 5.64726 7.724412 7.6595 16.682135 9.67174 72.570536 41.67288 83.735236 48.29381 7.529682 4.41395 14.864622 4.60868 22.394302.19473 28.04157-16.22776 56.14805-32.32569 84.18961-48.48854 3.5052-2.01224 6.03673-4.54377 7.72441-7.6595l-102.49452-59.45851"/>
    <path fill="#6a1577" d="M74.658228 131.55438c6.03672 10.51559 17.33124 17.59089 30.248542 17.59089 13.04712 0 24.40655-7.14021 30.37836-17.78562l-30.05381-17.39616-30.573092 17.59089"/>
    <path fill="#813084" d="M210.32229 65.474947c0-3.95957-.84385-7.52968-2.59645-10.51559L105.23132 113.96349 207.85567 173.422c1.62277-2.98591 2.46662-6.42619 2.46662-10.32086V65.474947"/>
    <path fill="#fff" d="M135.28513 131.35965c-5.97181 10.5805-17.33124 17.78562-30.37836 17.78562-12.982212 0-24.276732-7.0753-30.248542-17.59089-2.921-5.12797-4.60869-10.96996-4.60869-17.26633 0-19.278583 15.57865-34.857233 34.857232-34.857233 12.85238 0 24.08199 7.0104 30.11872 17.39616l30.44327-17.52598c-12.13836-20.90135-34.7274-34.98705-60.6269-34.98705-38.686982 0-69.974097 31.35203-69.974097 69.974103 0 12.65765 3.375373 24.60128 9.282275 34.85722 12.07345 20.96627 34.79232 35.11687 60.756732 35.11687 26.02932 0 48.74818-14.21551 60.82164-35.3116l-30.44328-17.59089"/>
    <g fill="#fff">
        <path d="M166.831893 97.735732h6.94548v33.559004h-6.94548zm15.383915 0h6.94548v33.559004h-6.94548z"/>
        <path d="M161.249544 103.382992h33.559005v6.94548h-33.559005zm0 15.319004h33.559005v6.94548h-33.559005z"/>
    </g>
</svg>
