<svg xmlns="http://www.w3.org/2000/svg" width="227.831" height="250" viewBox="-30 -30 269.943 291.088">
  <path fill="#9a4993" d="M210.322 65.475c0-3.96-.844-7.53-2.596-10.516-1.688-2.986-4.22-5.452-7.595-7.4-28.041-16.162-56.148-32.325-84.19-48.488-7.594-4.35-14.864-4.22-22.394.195C82.383 5.822 26.43 37.888 9.812 47.559 2.932 51.52-.378 57.621-.378 65.54v97.627c0 3.895.843 7.335 2.466 10.32 1.687 3.052 4.284 5.648 7.724 7.66 16.682 9.672 72.57 41.673 83.735 48.294 7.53 4.414 14.865 4.609 22.395.195 28.041-16.228 56.148-32.326 84.19-48.489 3.504-2.012 6.036-4.543 7.724-7.66 1.622-2.985 2.466-6.425 2.466-10.32V65.475"/>
  <path fill="#6a1577" d="M105.231 113.963 1.958 173.422c1.688 3.05 4.284 5.647 7.724 7.66 16.682 9.671 72.57 41.672 83.736 48.293 7.53 4.414 14.864 4.609 22.394.195 28.041-16.228 56.148-32.326 84.19-48.488 3.505-2.013 6.036-4.544 7.724-7.66L105.23 113.963"/>
  <path fill="#6a1577" d="M74.658 131.554c6.037 10.516 17.331 17.591 30.249 17.591 13.047 0 24.406-7.14 30.378-17.785l-30.054-17.397-30.573 17.591"/>
  <path fill="#813084" d="M210.322 65.475c0-3.96-.844-7.53-2.596-10.516L105.23 113.963l102.625 59.459c1.622-2.986 2.466-6.426 2.466-10.32V65.474"/>
  <path fill="#fff" d="M135.285 131.36c-5.972 10.58-17.331 17.785-30.378 17.785-12.982 0-24.277-7.075-30.249-17.59-2.92-5.129-4.608-10.97-4.608-17.267 0-19.279 15.578-34.857 34.857-34.857 12.852 0 24.082 7.01 30.118 17.396l30.444-17.526C153.33 58.4 130.74 44.314 104.842 44.314c-38.687 0-69.974 31.352-69.974 69.974 0 12.658 3.375 24.601 9.282 34.857 12.073 20.967 34.792 35.117 60.757 35.117 26.03 0 48.748-14.215 60.821-35.311l-30.443-17.591"/>
  <g fill="#fff">
    <path d="M166.832 97.736h6.945v33.559h-6.945zm15.384 0h6.945v33.559h-6.945z"/>
    <path d="M161.25 103.383h33.559v6.945h-33.56zm0 15.319h33.559v6.945h-33.56z"/>
  </g>
</svg>
