<svg xmlns="http://www.w3.org/2000/svg" width="324.60001" height="365.06671" viewBox="0 0 324.60001 365.06671">
    <path fill="#9a4993" d="M324.6 107.21424c0-6.1-1.3-11.600004-4-16.200004-2.6-4.6-6.5-8.4-11.7-11.4-43.2-24.9-86.5-49.8-129.7-74.7-11.7-6.7-22.9-6.5-34.5.3-17.2 10.1-103.4 59.5-129 74.4-10.6 6.1-15.7 15.5-15.7 27.700004v150.4c0 6 1.3 11.3 3.8 15.9 2.6 4.7 6.6 8.7 11.9 11.8 25.7 14.9 111.8 64.2 129 74.4 11.6 6.8 22.9 7.1 34.5.3 43.2-25 86.5-49.8 129.7-74.7 5.4-3.1 9.3-7 11.9-11.8 2.5-4.6 3.8-9.9 3.8-15.9v-150.5"/>
    <path fill="#6a1577" d="M162.7 181.91424l-159.1 91.6c2.6 4.7 6.6 8.7 11.9 11.8 25.7 14.9 111.8 64.2 129 74.4 11.6 6.8 22.9 7.1 34.5.3 43.2-25 86.5-49.8 129.7-74.7 5.4-3.1 9.3-7 11.9-11.8l-157.9-91.6"/>
    <path fill="#6a1577" d="M115.6 209.01424c9.3 16.2 26.7 27.1 46.6 27.1 20.1 0 37.6-11 46.8-27.4l-46.3-26.8-47.1 27.1"/>
    <path fill="#813084" d="M324.6 107.21424c0-6.1-1.3-11.600004-4-16.200004L162.7 181.91424l158.1 91.6c2.5-4.6 3.8-9.9 3.8-15.9v-150.4"/>
    <path fill="#fff" d="M209 208.71424c-9.2 16.3-26.7 27.4-46.8 27.4-20 0-37.4-10.9-46.6-27.1-4.5-7.9-7.1-16.9-7.1-26.6 0-29.7 24-53.7 53.7-53.7 19.8 0 37.1 10.8 46.4 26.8l46.9-27c-18.7-32.200004-53.5-53.900004-93.4-53.900004-59.6 0-107.8 48.300004-107.8 107.800004 0 19.5 5.2 37.9 14.3 53.7 18.6 32.3 53.6 54.1 93.6 54.1 40.1 0 75.1-21.9 93.7-54.4l-46.9-27.1"/>
    <g fill="#fff">
        <path d="M257.6 156.914236h10.7v51.7h-10.7zm23.7 0H292v51.7h-10.7z"/>
        <path d="M249 165.614236h51.7v10.7H249zm0 23.6h51.7v10.7H249z"/>
    </g>
</svg>
