<svg xmlns="http://www.w3.org/2000/svg" width="298.327" height="300" viewBox="0 0 298.327 300">
  <path fill="#00c4b3" d="m104.108 104.45-12.93-12.938.05 93.447.155 4.363c.063 2.062.454 4.375 1.079 6.781l102.422 36.125 25.625-11.344.021-.037L104.102 104.45z"/>
  <path fill="#22d3c5" d="M92.465 196.103h.009a.866.866 0 0 0-.044-.125c.022.047.022.094.032.125zm128.019 24.781-25.625 11.344-102.407-36.125c1.953 7.513 6.288 15.956 10.944 20.563l33.406 33.24 74.338.094 9.312-29.116z"/>
  <g fill="#0075c9">
    <path d="m91.527 91.515-39.822 60.141c-3.306 3.531-1.656 10.819 3.666 16.188l22.987 23.175 14.45 5.093c-.625-2.4-1.018-4.687-1.078-6.78l-.156-4.363-.047-93.447z"/>
    <path d="M195.727 92.719c-2.406-.61-4.712-.994-6.79-1.054l-4.62-.168-93.14.022 129.35 129.331 11.363-25.625-36.156-102.5z"/>
  </g>
  <path fill="#00a8e1" d="M195.609 92.697c.04.015.084.025.118.03v-.012c-.04-.009-.078-.009-.118-.025zm20.671 10.993c-4.703-4.734-13.03-9.062-20.553-10.962l36.157 102.49-11.375 25.626 27.756-8.869.062-76.1-32.05-32.188z"/>
  <path fill="#00c4b3" d="m190.659 78.36-23.125-23c-5.394-5.304-12.682-6.96-16.182-3.66L91.215 91.512l93.14-.022 4.62.17c2.077.062 4.387.443 6.79 1.052l-5.1-14.36zM91.18 91.483"/>
</svg>
