<svg xmlns="http://www.w3.org/2000/svg" width="298.32736" height="299.99994" viewBox="0 0 298.32736 299.99994">
    <path fill="#00c4b3" d="M104.10841 104.4498L91.177144 91.512287l.05 93.447003.15625 4.3625c.0625 2.06251.453126 4.37501 1.078127 6.78126L194.88353 232.2281l25.62504-11.34376.0219-.0375L104.10219 104.4498z"/>
    <path fill="#22d3c5" d="M92.464646 196.10305h.0094c-.0094-.0375-.025-.0812-.04375-.125.02187.0469.02187.0937.03125.125zm128.018924 24.78129l-25.62504 11.34376-102.406384-36.12505c1.953128 7.51251 6.287508 15.95627 10.943764 20.56253l33.4063 33.24067 74.3376.0937 9.31251-29.11566z"/>
    <g fill="#0075c9">
        <path d="M91.527145 91.515412l-39.821929 60.140706c-3.306254 3.531254-1.656252 10.818764 3.66563 16.187521l22.987531 23.175032 14.45002 5.093756c-.625001-2.400003-1.018752-4.687506-1.078127-6.781259l-.15625-4.362506-.046875-93.447z"/>
        <path d="M195.727285 92.718538c-2.406253-.609375-4.712506-.99375-6.790634-1.053126l-4.618756-.16875-93.14075.021875L220.527317 220.84996l11.362516-25.625035-36.156299-102.500138z"/>
    </g>
    <path fill="#00a8e1" d="M195.60853 92.696663c.0406.01563.0844.025.11875.03125v-.0125c-.0406-.0094-.0781-.0094-.11875-.025zm20.67191 10.993767c-4.70313-4.734383-13.03127-9.062514-20.55316-10.962516l36.1563 102.490766-11.37501 25.62503 27.75628-8.86876.0625-76.1001-32.05004-32.18755z"/>
    <path fill="#00c4b3" d="M190.65853 78.359144L167.5335 55.359113c-5.39376-5.303132-12.68127-6.959384-16.18128-3.65938L91.214644 91.512287l93.140746-.02187 4.61876.16875c2.07813.0625 4.38751.443751 6.79063 1.053126l-5.1-14.359394zM91.180269 91.484162"/>
</svg>
