<svg xmlns="http://www.w3.org/2000/svg" fill="#a90533" width="320" height="320.563" viewBox="0 0 160 160.281">
  <path d="M45.681 111.775c-7.762-8.225-12.306-19.588-12.29-33.144-.016-11.987 3.756-22.294 10.234-30.131H30v63.281h15.681zm71.688.006c3.344-3.581 6.344-7.8 9.053-12.625l-15.063-7.5c-5.29 8.603-13.03 16.519-23.728 16.572-15.572-.053-21.687-13.369-21.656-30.51h58.188c.078-1.937.078-2.834 0-3.765.38-10.197-2.322-18.769-7.238-25.444l-.025.02H130v63.252h-12.625zm-50.457-48.75A13.844 13.844 0 0 1 80.85 50.037c7.188.016 12.438 5.235 12.619 12.994H66.916z"/>
</svg>
