<svg xmlns="http://www.w3.org/2000/svg" fill="#a90533" width="320" height="320.56259" viewBox="0 0 160 160.28129">
    <path d="M45.68125 111.775c-7.7625-8.225-12.30625-19.587501-12.290625-33.143751-.01563-11.9875 3.75625-22.29375 10.234375-30.13125H30v63.281251h15.68125zm71.6875.006c3.34375-3.58125 6.34375-7.8 9.05313-12.625001l-15.06251-7.5c-5.29062 8.603371-13.031245 16.519001-23.72812 16.572121-15.571875-.05312-21.6875-13.368746-21.65625-30.509371h58.1875c.0781-1.9375.0781-2.834375 0-3.765625.38125-10.196875-2.32187-18.76875-7.2375-25.44375l-.025.01875H130v63.253126h-12.625zM66.9125 63.031249A13.84375 13.84375 0 0180.85 50.037499c7.1875.01563 12.4375 5.234375 12.61875 12.99375H66.915625z"/>
</svg>
