<svg xmlns="http://www.w3.org/2000/svg" width="249.9985" height="250.00005" preserveAspectRatio="xMidYMid" viewBox="0 0 249.9985 250.00005">
    <path fill="#F6D2A2" stroke-width=".576007" d="M53.478088 133.26965c.286883 5.90979 6.196673 3.15572 8.835997 1.31966 2.524571-1.77867 3.270466-.28688 3.499973-3.72948.172129-2.29506.401636-4.53275.286883-6.82781-3.844233-.34426-7.975348.57377-11.131061 2.86883-1.663922 1.14753-4.647505 4.93439-1.491792 6.3688m117.794162 72.63878c4.53275 2.81145 12.85236 11.30319 6.02454 15.43431-6.54093 5.96716-10.21303-6.59831-15.95069-8.31961 2.46719-3.38522 5.56553-6.48356 9.92615-7.1147zm-81.130513 9.58189c-5.336024.80328-8.319608 5.62291-12.794983 8.0901-4.188491 2.4672-5.795036-.80327-6.139296-1.49179-.631142-.28688-.573766.28688-1.606544-.74589-3.901609-6.1393 4.016361-10.61467 8.147477-13.65564 5.73766-1.14753 9.352386 3.84424 12.393346 7.80322zm106.318843-82.96656c-.28689 5.90979-6.19668 3.15571-8.836 1.31966-2.52457-1.77868-3.27047-.28688-3.49997-3.72948-.17213-2.29506-.40164-4.53275-.28689-6.82782 3.84424-.34426 7.97535.57377 11.13106 2.86883 1.60655 1.14754 4.64751 4.93439 1.4918 6.36881"/>
    <path fill="#69D7E2" stroke-width=".576007" d="M180.79676 60.458736c20.48345-7.22945 4.47538-35.286606-13.36874-22.89326-11.70483-10.040906-27.82766-11.876956-44.75375-11.876956-16.58184 1.319661-32.360403 4.360621-43.376711 13.99989-17.786747-11.475321-34.196455 16.065446-13.311372 23.008016-5.852413 22.721144.803273 45.901284-.114753 69.024054-.860649 20.77033-6.311426 48.59799 5.221271 67.24538 9.811399 15.9507 30.925985 21.63098 48.311095 22.26212 22.20474.80328 49.11437-4.6475 59.90117-26.16373 10.32779-20.48344 7.45896-46.01603 6.1393-68.10602-1.31966-22.3195 1.14753-44.98326-4.64751-66.499494z"/>
    <path stroke-width=".576007" d="M198.00974 129.02378c-.57376-1.2049-1.66392-2.58194-2.6967-3.32784-2.63932-1.89343-6.02454-2.92621-9.52451-3.04096-.11475-3.55735-.22951-7.45896-.22951-12.39334v-4.47538c-.0574-14.11464-.2295-20.31132-1.03278-28.05716-.63114-6.081924-1.60654-11.704834-2.98358-16.983474 4.6475-1.77868 7.68846-4.70488 8.89337-8.49174 1.14753-3.499973.57377-7.458958-1.37704-10.958931-2.00818-3.442596-5.22127-6.024543-8.95075-7.057322-4.01636-1.090155-8.37698-.286883-12.56547 2.524571-3.72948-3.155713-8.03273-5.565531-12.85236-7.401582C146.1413 26.204909 136.21514 25 122.73164 25v.573766L122.67424 25c-14.40153 1.147533-25.073576 3.38522-33.909572 7.688465-3.557349 1.721298-6.713062 3.786856-9.467139 6.196673-4.245868-2.639323-8.663867-3.270466-12.737606-2.008181-3.786855 1.147532-7.057322 3.844232-9.008126 7.344205-1.950804 3.499973-2.409817 7.516334-1.090155 10.958934 1.319661 3.44259 4.360621 6.13929 8.893373 7.80321-1.434415 5.79504-2.180311 11.934344-2.295064 18.704784-.114753 6.59831.172129 11.87695 1.204908 23.81129.745896 8.89337 1.032779 12.96711 1.147532 17.9015-3.901608-.17213-7.803217.86065-10.729424 2.98358-1.032779.7459-2.180311 2.06556-2.6967 3.32784-.745896 1.60655-.459013 3.04096 1.032778 3.90161.229507 2.75408 1.778675 4.01636 4.131115 3.78686 1.721299-.17213 3.786857-1.09016 5.565531-2.35244.401636-.28689.803273-.51639 1.204909-.68852.17213-.0574.286882-.11476.459012-.17213 0 0 .34426-.11476.459013-.17213.17213-.0574.34426-.11476.459013-.22951-.114753 2.6967-.34426 5.50816-.860649 11.93434-.573766 7.22945-.860649 11.18843-.975402 15.60643-.516389 16.40971 1.434415 28.34404 7.286829 37.81118 1.836051 2.98358 4.073738 5.62291 6.713062 8.03273-.51639.34426-2.696701 1.9508-3.38522 2.46719-2.409817 1.83605-4.073738 3.38522-5.049141 5.10652-1.262285 2.23768-1.262285 4.47537.17213 6.82781l.05738.0574.05738.0574c.631143.63114.975402.80327 1.434416.80327h.172129c.05738.11475.114753.17213.17213.28688.172129.28688.344259.51639.516389.7459 1.434415 1.66392 3.442597 2.06556 6.139297.45901 1.434415-.7459 2.467194-1.60655 4.647504-3.4426l.114754-.11475c3.499973-2.98358 5.22127-4.07374 7.803218-4.47537l.918025-.17213c.34426.17213.688519.28688 1.090156.45901 8.147475 3.27047 17.614615 5.04914 27.196505 5.3934 12.39335.45901 24.32768-1.09016 34.42596-4.76226 2.6967-.9754 5.22128-2.12293 7.63109-3.38522 1.49179.57377 2.75408 1.77868 5.1639 4.59013.11475.11475.11475.11475.17213.22951.11475.11475.11475.17213.17213.2295.11475.17213.28688.28689.40163.45902 1.89343 2.23768 3.15572 3.32784 4.59013 3.95898 1.89343.80327 3.72948.40164 5.62291-1.31966 3.32784-2.06556 3.55735-5.27865 1.37704-8.95075-1.54917-2.58195-4.24587-5.27865-6.77044-6.99995 2.98358-2.9262 5.56553-6.42618 7.57371-10.38516 5.50815-11.01631 7.63109-23.86867 7.51633-40.39313-.0574-5.85241-.28688-10.95893-.91802-20.71295v-.28689c.28688.11476.57376.28689.86065.51639 1.77867 1.20491 3.84423 2.18031 5.56553 2.35244 2.35244.22951 3.90161-1.03277 4.13111-3.78685 1.43442-.91803 1.7213-2.35244.9754-3.95899zm-18.24575-93.581239c3.44259.918026 6.42617 3.327844 8.26223 6.540934 1.83605 3.213089 2.35244 6.827815 1.31966 10.040901-1.09016 3.38522-3.84423 6.08192-8.14748 7.68847-.86065-3.09834-1.89343-6.1393-3.04096-9.065505 1.66392-1.434415 2.46719-3.213089 1.14753-5.73766-1.31966-2.52457-3.61472-2.811453-5.96716-2.065558-1.4918-1.950804-3.15572-3.672102-4.87702-5.278647 3.78686-2.409817 7.68847-3.098337 11.3032-2.122935zM57.437074 54.835836c-1.204909-3.09834-.803273-6.770441 1.032778-9.983532 1.836051-3.213089 4.819634-5.73766 8.376983-6.770438 3.672103-1.090156 7.631089-.573767 11.532698 1.721298-2.237687 2.008181-4.245869 4.303245-5.967167 6.827815-2.983583-1.549168-6.024543-1.836051-7.745841 1.319662-1.778675 3.385215.286883 5.508155 3.21309 7.114695-.401636.97541-.803273 2.00818-1.147532 3.04096-.401636 1.26229-.803273 2.58195-1.147532 3.90161-4.188492-1.60654-6.942569-4.07374-8.147478-7.17207zm6.942568 78.204314c-.05738 0-.401636.11475-.401636.17213-.17213.0574-.34426.11475-.516389.2295-.459013.17213-.918025.45902-1.377039.80328-1.606545 1.14753-3.557349 2.00818-5.04914 2.12293-1.721298.17213-2.696701-.57377-2.868831-2.63932 1.204909-.40164 1.721299-.68852 2.180311-1.37704l-.918025-.68852c-.34426.45901-.68852.63114-1.721298.9754-.05738 0-.05738 0-.114754.0574-.918025-.51639-1.090155-1.31967-.573766-2.4672.459013-1.03278 1.491792-2.23768 2.352441-2.86883 2.754077-2.00818 6.426179-2.98358 10.098282-2.75407 0 1.43441.05738 2.86883 0 4.24586 0 .17213 0 .28689-.05738.45902-.05738.80327-.05738 1.14753-.114754 1.54917-.17213 1.66392-.286883 1.89342-.918026 2.18031zm17.327734 86.58129l-.114753.11475c-2.122934 1.83605-3.155713 2.58195-4.475375 3.32784-2.180311 1.31967-3.672102 1.03278-4.704881-.2295-.17213-.17213-.286883-.40164-.401637-.57377-.05738-.0574-.114753-.17213-.172129-.2295v-.0574c.114753-1.03278.516389-1.77868 1.549168-3.38522.05738-.0574.05738-.0574.05738-.11475.631143-.91803.918026-1.43442 1.20491-2.06556l-1.03278-.45901c-.229506.51639-.516389.9754-1.090155 1.89342-.05738.0574-.05738.0574-.05738.11476-1.03278 1.49179-1.491792 2.40981-1.721298 3.44259h-.229507c-.114753-.0574-.286883-.17213-.516389-.40163-2.237688-3.55735-.459013-6.59831 4.590127-10.38517.631143-.45901 2.754077-1.9508 3.327843-2.40982.114754 0 .229507-.0574.34426-.11475 3.098337 2.63933 6.713062 4.93439 10.729425 6.82782 0 .0574.05738.11475.114753.17213-2.352441.57376-4.188492 1.77867-7.401582 4.53275zm96.335314-6.25405c1.77867 2.98358 1.7213 5.3934-.51639 7.05732-.17213-.34426-.28689-.74589-.51639-1.31966 0-.0574 0-.0574-.0574-.11475-.80327-2.18031-1.31966-3.09834-2.29506-4.13112l-.80327.80327c.86064.80328 1.26228 1.66392 2.06555 3.67211 0 .0574 0 .0574.0574.11475.28688.74589.45901 1.20491.63114 1.60654-1.49179 1.26229-2.81145 1.4918-4.18849.86065-1.20491-.51639-2.35244-1.60654-4.18849-3.6721-.11476-.11475-.22951-.28688-.34426-.45901-.0574-.0574-.11475-.11476-.17213-.22951-.11475-.11475-.11475-.11475-.17213-.22951-2.12294-2.46719-3.38522-3.78685-4.76226-4.53275 3.21309-1.83605 6.08192-3.90161 8.66387-6.31142 2.40982 1.77867 5.10652 4.418 6.59831 6.88519zm.80327-18.59002c-4.93439 9.92615-13.65563 16.9261-25.36046 21.17197-9.98353 3.61472-21.80311 5.10651-34.02432 4.6475-21.057216-.74589-39.302972-8.0901-47.852086-21.97524-5.73766-9.23763-7.631088-20.99983-7.114698-37.18004.17213-4.41799.401636-8.37698.975402-15.60643.631143-8.14748.803273-10.49992.975402-14.17202.114753-2.63933.114753-5.33603.05738-8.20486-.114754-5.04914-.401636-9.0655-1.147532-18.07363-1.032779-11.93433-1.319662-17.1556-1.204909-23.69653.17213-8.606494 1.319662-16.180204 3.729479-23.352284 3.901609-11.64745 11.073685-19.508044 21.401473-24.614562 8.663863-4.245869 19.163779-6.426179 33.450549-7.573711 13.36875 0 23.12277 1.204908 31.55713 4.303245 10.09829 3.729479 17.61462 10.270411 22.77851 20.311317 3.32785 8.147481 5.27865 16.926101 6.31143 27.024385.80327 7.68846.9754 13.88514 1.03278 27.9424v4.47538c.0574 6.94257.17213 11.81958.45901 16.69659.11476 1.89343.17213 2.6967.45902 7.22945.63114 9.75402.86064 14.80316.91802 20.65558.11475 16.46708-1.9508 29.14731-7.40158 39.99149zm17.55724-62.82738c-.0574 0-.11475-.0574-.17213-.0574-1.03278-.34426-1.37704-.57376-1.7213-.9754l-.91802.68852c.51639.68852 1.03278.9754 2.18031 1.37704-.22951 2.06556-1.20491 2.81145-2.86883 2.63932-1.49179-.11475-3.4426-1.03278-5.04914-2.12293-.45902-.34426-.91803-.57377-1.37704-.80327-.0574 0-.11476-.0574-.17213-.0574-.22951-3.15571-.22951-3.95899-.34426-5.62291l-.17213-3.09833c3.21309.0574 6.3688 1.03278 8.77862 2.81145.86065.63114 1.89343 1.83605 2.35244 2.86883.57376.9754.45901 1.83605-.51639 2.35244z"/>
    <path fill="#FFF" stroke-width=".576007" d="M131.37281 84.86086c.0574 2.9262.63114 6.13929.11475 9.23763-.80327 1.49179-2.29506 1.66392-3.61473 2.23769-1.83605-.28688-3.38522-1.49179-4.13111-3.21309-.45901-3.49997.11475-6.82782.28688-10.32779 0-.11475 2.18031.0574 4.13112.63114 1.66392.51639 3.21309 1.37704 3.21309 1.43442zm-16.23758.2295c-1.60655 6.08192 2.12293 16.00808 8.26223 7.8606-.45901-3.4426.0574-6.77044.22951-10.15566.0574-.28688-8.43436 1.89343-8.49174 2.29506z"/>
    <path stroke-width=".576007" d="M132.06133 87.55756c-.11476-1.7213-.17213-2.40982-.17213-3.27047v-.40163l-.40164-.11476-7.22945-2.23768v-.40164l-.7459.17213h-.0574v.0574l-8.14748 2.06556-.28688.0574-.11476.28688c-1.26228 3.04096-.9754 7.63109.63115 10.44254 1.83605 3.21309 4.81963 3.27047 7.86059-.40163.86065 1.66392 2.46719 2.81145 4.30324 3.09833h.17213l.17213-.0574c.22951-.11476.45902-.17213.86065-.34426.0574 0 .0574 0 .11476-.0574 1.66392-.57376 2.35244-1.03278 2.9262-2.12293l.0574-.0574v-.11473c.17213-1.03278.22951-2.12294.22951-3.32785 0-.86064-.0574-1.66392-.17213-3.27046zm-9.18026-2.12294c-.0574 1.03278-.11475 1.43442-.17213 2.00819-.11475 2.12293-.11475 3.72947.0574 5.33602-2.6967 3.4426-4.81964 3.4426-6.25405.86065-1.37704-2.40982-1.66392-6.48356-.63115-9.18026l7.22946-1.83605c-.0574.7459-.11476 1.49179-.22951 2.81145zm8.03272 8.49174c-.40163.68852-.91802 1.03278-2.29506 1.49179-.0574 0-.0574 0-.11475.0574-.34426.11475-.57377.22951-.7459.28688-1.54917-.28688-2.86883-1.31966-3.49997-2.75407-.17213-1.54917-.17213-3.15572-.0574-5.27865.0574-.57377.0574-.9754.17213-2.00818.11475-1.31966.17213-2.12294.17213-2.86883l6.25405 1.89343c0 .74589.0574 1.43441.17213 2.9262.11475 1.54917.17213 2.35244.17213 3.27047 0 1.09015-.0574 2.06556-.22951 2.98358z"/>
    <g transform="matrix(.576 0 0 .576 79.2774 37.543332)">
        <path fill="#FFF" d="M2.29105 38.748638c9.164203 35.6607 66.241246 26.496498 64.049806-9.263813C63.750973-13.34786-6.474708-5.080155 2.291051 38.748638"/>
        <path d="M67.336965 29.385214C66.7393 19.025681 62.157198 10.957198 54.58677 5.877043 47.81323 1.294942 38.84825-.498054 29.98288.597665 21.11751 1.792996 12.949415 5.777432 7.570427 12.052918c-5.976654 6.972763-8.267704 16.136965-6.175875 26.69572l.896498-.199222-.896498.199222c9.363424 36.65681 68.133852 27.79144 65.942413-9.363424zM3.187549 38.549416C1.19533 28.488716 3.38677 19.92218 8.96498 13.447471 14.045136 7.570428 21.715175 3.685603 30.1821 2.589883c8.466925-1.09572 16.933852.597666 23.30895 4.980545 7.072373 4.781323 11.355642 12.25214 11.953307 22.113619 2.091829 34.764202-53.39144 43.131517-62.25681 8.86537z"/>
        <ellipse cx="18.029572" cy="32.871593" rx="9.662257" ry="10.459144"/>
        <ellipse fill="#FFF" cx="22.412451" cy="35.262257" rx="2.291051" ry="2.689494"/>
    </g>
    <g transform="matrix(.576 0 0 .576 126.01594 35.309552)">
        <path fill="#FFF" d="M1.19533 35.959533c7.072374 40.940078 74.010896 30.08249 64.348639-11.15642C56.87782-12.25214-1.195331-1.992217 1.19533 35.959533"/>
        <path d="M66.440467 24.603891C57.575097-13.547082-2.19144-3.087938.199222 36.059144v.09961c3.28716 19.324514 20.519844 29.185993 39.545525 25.998444 8.666148-1.494163 16.435798-5.67782 21.515953-11.853696 5.57821-6.873152 7.570428-15.738522 5.179767-25.69961zm-6.67393 24.50428c-4.781323 5.777432-12.052918 9.761868-20.320623 11.15642C21.416342 63.252918 5.279377 53.989105 2.09183 35.859922-.099611-.996108 56.280156-10.857588 64.64747 25.002335c2.19144 9.463035.398443 17.730739-4.880933 24.105836z"/>
        <ellipse cx="17.631128" cy="34.166538" rx="9.463035" ry="10.459144"/>
        <ellipse fill="#FFF" cx="22.014008" cy="36.557198" rx="2.19144" ry="2.689494"/>
    </g>
    <path fill="#F6D2A2" stroke-width=".576007" d="M116.31992 72.695026c-4.53276.40164-8.20486 5.737664-5.85242 9.983534 3.09834 5.62291 10.04091-.51639 14.34415.0574 4.99177.11475 9.06551 5.27865 13.02449.91803 4.418-4.81964-1.89343-9.52452-6.88519-11.590084z"/>
    <path fill="#231F20" stroke-width=".576007" d="M138.40991 76.53927c-1.54917-1.95081-4.24587-3.729484-7.17208-4.934394l-.11475-.0574h-.11475l-14.68841.57377c-5.10652.45901-8.77862 6.368804-6.31143 10.844184.9754 1.72129 2.29506 2.58194 4.07374 2.6967 1.31966.0574 2.6967-.22951 4.81963-.97541.17213-.0574.40164-.11475.68852-.2295 2.86883-.9754 4.01636-1.26229 5.1639-1.09016h.0574c1.37704 0 2.52457.40164 4.70488 1.26229 2.40982.9754 3.15572 1.26228 4.36063 1.37704 1.66392.11475 3.09833-.45902 4.41799-1.89343 2.23769-2.4672 2.12294-5.10652.11476-7.57371zm-.9754 6.77044c-1.09016 1.2049-2.18032 1.60654-3.49998 1.54916-1.03278-.0574-1.7213-.34426-4.01636-1.26228-2.29506-.9754-3.55735-1.31966-5.04914-1.37704-1.43442-.17213-2.63932.11475-5.68028 1.14753-.28689.11476-.51639.17213-.68852.22951-4.1885 1.43441-6.19668 1.31966-7.57371-1.20491-2.06556-3.72948 1.09015-8.77862 5.3934-9.180264l14.51628-.57376c2.75407 1.147534 5.22127 2.811454 6.65568 4.590134 1.7213 2.06555 1.77868 4.13111-.0574 6.08192z"/>
    <path stroke-width=".576007" d="M132.09848 70.227836c-1.77867-6.54093-16.69659-5.56553-16.35233 2.23769.7459 5.795034 18.07363 4.245874 16.35233-2.23769z"/>
</svg>
