<svg xmlns="http://www.w3.org/2000/svg" width="249.999" height="250" preserveAspectRatio="xMidYMid" viewBox="0 0 249.999 250">
  <path fill="#F6D2A2" d="M53.478 133.27c.287 5.91 6.197 3.155 8.836 1.32 2.525-1.78 3.27-.288 3.5-3.73.172-2.295.402-4.533.287-6.828-3.844-.344-7.975.574-11.131 2.869-1.664 1.147-4.648 4.934-1.492 6.369m117.794 72.638c4.533 2.812 12.853 11.304 6.025 15.435-6.541 5.967-10.213-6.599-15.95-8.32 2.466-3.385 5.565-6.483 9.925-7.115zm-81.13 9.582c-5.336.804-8.32 5.623-12.795 8.09-4.189 2.468-5.795-.803-6.14-1.491-.63-.287-.573.287-1.606-.746-3.902-6.14 4.016-10.615 8.147-13.656 5.738-1.147 9.353 3.844 12.394 7.803zm106.319-82.966c-.287 5.91-6.197 3.155-8.836 1.32-2.525-1.78-3.27-.287-3.5-3.73-.173-2.295-.402-4.533-.287-6.828 3.844-.344 7.975.574 11.13 2.869 1.607 1.147 4.648 4.934 1.493 6.369"/>
  <path fill="#69D7E2" d="M180.797 60.459c20.483-7.23 4.475-35.287-13.369-22.894-11.705-10.04-27.828-11.876-44.754-11.876-16.582 1.32-32.36 4.36-43.376 14C61.51 28.212 45.1 55.753 65.986 62.695c-5.852 22.722.803 45.902-.115 69.024-.86 20.77-6.311 48.598 5.222 67.246 9.811 15.95 30.926 21.63 48.31 22.262 22.206.803 49.115-4.648 59.902-26.164 10.328-20.483 7.459-46.016 6.14-68.106-1.32-22.32 1.147-44.983-4.648-66.5z"/>
  <path d="M198.01 129.024c-.574-1.205-1.664-2.582-2.697-3.328-2.64-1.893-6.024-2.926-9.524-3.041-.115-3.557-.23-7.459-.23-12.393v-4.476c-.057-14.114-.23-20.311-1.033-28.057-.63-6.082-1.606-11.705-2.983-16.983 4.647-1.78 7.688-4.705 8.893-8.492 1.148-3.5.574-7.46-1.377-10.959-2.008-3.443-5.221-6.025-8.95-7.057-4.017-1.09-8.378-.287-12.566 2.524-3.73-3.156-8.033-5.565-12.853-7.401C146.141 26.205 136.215 25 122.732 25v.574l-.058-.574c-14.401 1.148-25.073 3.385-33.91 7.688-3.557 1.722-6.712 3.787-9.466 6.197-4.246-2.64-8.664-3.27-12.738-2.008-3.787 1.147-7.057 3.844-9.008 7.344-1.951 3.5-2.41 7.516-1.09 10.96 1.32 3.442 4.36 6.138 8.893 7.802-1.434 5.795-2.18 11.935-2.295 18.705-.115 6.598.172 11.877 1.205 23.811.746 8.894 1.033 12.967 1.147 17.902-3.901-.172-7.803.86-10.729 2.983-1.033.746-2.18 2.066-2.697 3.328-.746 1.607-.459 3.041 1.033 3.902.23 2.754 1.779 4.016 4.131 3.787 1.721-.172 3.787-1.09 5.566-2.353a6.455 6.455 0 0 1 1.205-.688c.172-.058.286-.115.459-.172 0 0 .344-.115.459-.172.172-.058.344-.115.459-.23-.115 2.697-.345 5.508-.861 11.934-.574 7.23-.86 11.189-.975 15.607-.517 16.41 1.434 28.344 7.286 37.811 1.836 2.984 4.074 5.623 6.713 8.033-.516.344-2.696 1.95-3.385 2.467-2.41 1.836-4.073 3.385-5.049 5.106-1.262 2.238-1.262 4.476.172 6.828l.058.058.057.057c.631.631.975.803 1.434.803h.173c.057.115.114.172.172.287.172.287.344.517.516.746 1.434 1.664 3.443 2.066 6.14.46 1.434-.747 2.467-1.607 4.647-3.444l.115-.114c3.5-2.984 5.22-4.074 7.803-4.476l.918-.172c.344.172.688.287 1.09.46 8.147 3.27 17.615 5.048 27.197 5.393 12.393.459 24.327-1.09 34.425-4.763a61.424 61.424 0 0 0 7.632-3.385c1.491.574 2.754 1.779 5.163 4.59.115.115.115.115.173.23.114.115.114.172.172.23.114.171.287.286.401.458 1.894 2.238 3.156 3.328 4.59 3.96 1.894.803 3.73.401 5.623-1.32 3.328-2.066 3.558-5.279 1.377-8.951-1.549-2.582-4.245-5.279-6.77-7 2.984-2.926 5.566-6.426 7.574-10.385 5.508-11.017 7.63-23.869 7.516-40.393-.057-5.853-.287-10.96-.918-20.713v-.287c.287.115.574.287.86.516 1.78 1.205 3.845 2.18 5.566 2.353 2.353.23 3.902-1.033 4.131-3.787 1.435-.918 1.722-2.353.976-3.96zm-18.246-93.581c3.443.918 6.426 3.327 8.262 6.54 1.836 3.214 2.353 6.828 1.32 10.041-1.09 3.386-3.844 6.082-8.148 7.689a93.337 93.337 0 0 0-3.04-9.066c1.663-1.434 2.467-3.213 1.147-5.737-1.32-2.525-3.615-2.812-5.967-2.066-1.492-1.95-3.156-3.672-4.877-5.279 3.787-2.41 7.688-3.098 11.303-2.122zM57.437 54.836c-1.205-3.099-.803-6.77 1.033-9.984 1.836-3.213 4.82-5.737 8.377-6.77 3.672-1.09 7.63-.574 11.533 1.721a37.752 37.752 0 0 0-5.968 6.828c-2.983-1.55-6.024-1.836-7.745 1.32-1.78 3.385.286 5.508 3.213 7.114a47.638 47.638 0 0 0-1.148 3.041 77.405 77.405 0 0 0-1.147 3.902c-4.189-1.607-6.943-4.074-8.148-7.172zm6.943 78.204c-.058 0-.402.115-.402.172-.172.058-.344.115-.516.23-.46.172-.918.459-1.377.803-1.607 1.148-3.558 2.008-5.05 2.123-1.72.172-2.696-.574-2.868-2.64 1.205-.401 1.72-.688 2.18-1.376l-.918-.689c-.344.46-.689.631-1.721.976-.058 0-.058 0-.115.057-.918-.516-1.09-1.32-.574-2.467.46-1.033 1.492-2.238 2.353-2.87 2.754-2.007 6.426-2.983 10.098-2.753 0 1.434.057 2.869 0 4.246 0 .172 0 .287-.058.459-.057.803-.057 1.147-.114 1.549-.172 1.664-.287 1.893-.918 2.18zm17.327 86.581-.114.115c-2.123 1.836-3.156 2.582-4.476 3.328-2.18 1.32-3.672 1.033-4.705-.23-.172-.172-.287-.401-.401-.573-.058-.058-.115-.172-.172-.23v-.057c.114-1.033.516-1.779 1.549-3.385.057-.058.057-.058.057-.115.631-.918.918-1.435 1.205-2.066l-1.033-.459c-.23.517-.516.976-1.09 1.894-.057.057-.057.057-.057.114-1.033 1.492-1.492 2.41-1.722 3.443h-.23c-.114-.057-.286-.172-.515-.402-2.238-3.557-.46-6.598 4.59-10.385.63-.459 2.754-1.95 3.328-2.41.114 0 .229-.057.344-.114 3.098 2.639 6.713 4.934 10.73 6.828 0 .057.057.114.114.172-2.352.573-4.189 1.778-7.402 4.532zm96.336-6.254c1.778 2.984 1.721 5.394-.517 7.058-.172-.345-.287-.746-.516-1.32 0-.057 0-.057-.057-.115-.804-2.18-1.32-3.098-2.296-4.13l-.803.802c.86.804 1.262 1.664 2.066 3.673 0 .057 0 .057.057.114.287.746.46 1.205.631 1.607-1.492 1.262-2.811 1.492-4.188.86-1.205-.516-2.353-1.606-4.189-3.672a3.094 3.094 0 0 1-.344-.459.792.792 0 0 1-.172-.23c-.115-.114-.115-.114-.172-.229-2.123-2.467-3.385-3.786-4.762-4.532 3.213-1.836 6.081-3.902 8.663-6.312 2.41 1.779 5.107 4.418 6.599 6.885zm.803-18.59c-4.934 9.927-13.656 16.926-25.36 21.172-9.984 3.615-21.804 5.107-34.025 4.648-21.057-.746-39.303-8.09-47.852-21.975-5.738-9.238-7.631-21-7.115-37.18.173-4.418.402-8.377.976-15.607.63-8.147.803-10.5.975-14.172.115-2.64.115-5.336.058-8.205-.115-5.049-.402-9.065-1.148-18.073-1.033-11.935-1.32-17.156-1.205-23.697.172-8.606 1.32-16.18 3.73-23.352 3.9-11.648 11.073-19.508 21.4-24.616 8.664-4.246 19.164-6.426 33.45-7.573 13.37 0 23.123 1.204 31.558 4.303 10.098 3.73 17.614 10.27 22.778 20.311 3.328 8.148 5.279 16.926 6.312 27.024.803 7.689.975 13.886 1.032 27.943v4.475c.058 6.943.173 11.82.46 16.697.114 1.893.172 2.697.459 7.23.63 9.753.86 14.802.918 20.655.114 16.467-1.951 29.147-7.402 39.991zm17.557-62.827c-.057 0-.115-.057-.172-.057-1.033-.345-1.377-.574-1.721-.976l-.918.689c.516.688 1.033.975 2.18 1.377-.23 2.065-1.205 2.811-2.869 2.64-1.492-.116-3.442-1.034-5.049-2.124-.459-.344-.918-.574-1.377-.803-.057 0-.115-.058-.172-.058-.23-3.155-.23-3.959-.344-5.622l-.172-3.099c3.213.058 6.368 1.033 8.778 2.812.86.63 1.894 1.836 2.353 2.869.573.975.459 1.836-.517 2.352z"/>
  <path fill="#FFF" d="M131.373 84.86c.057 2.927.63 6.14.115 9.238-.804 1.492-2.296 1.664-3.615 2.238a5.406 5.406 0 0 1-4.131-3.213c-.46-3.5.114-6.828.287-10.328 0-.114 2.18.058 4.13.631 1.665.517 3.214 1.377 3.214 1.435zm-16.238.23c-1.606 6.082 2.123 16.008 8.262 7.861-.459-3.443.058-6.77.23-10.156.057-.287-8.434 1.894-8.492 2.295z"/>
  <path d="M132.061 87.558c-.114-1.722-.172-2.41-.172-3.27v-.403l-.401-.114-7.23-2.238v-.402l-.746.173h-.057v.057l-8.148 2.065-.287.058-.114.287c-1.263 3.04-.976 7.63.63 10.442 1.837 3.213 4.82 3.27 7.861-.401a5.87 5.87 0 0 0 4.304 3.098h.172l.172-.057c.23-.115.459-.173.86-.345.058 0 .058 0 .115-.057 1.664-.574 2.353-1.033 2.927-2.123l.057-.057v-.115c.172-1.033.23-2.123.23-3.328 0-.86-.058-1.664-.173-3.27zm-9.18-2.123c-.057 1.032-.115 1.434-.172 2.008-.115 2.123-.115 3.73.057 5.336-2.696 3.442-4.82 3.442-6.254.86-1.377-2.41-1.664-6.483-.63-9.18l7.229-1.836c-.058.746-.115 1.492-.23 2.812zm8.033 8.491c-.402.689-.918 1.033-2.295 1.492-.058 0-.058 0-.115.058-.344.114-.574.23-.746.286a4.775 4.775 0 0 1-3.5-2.754c-.172-1.549-.172-3.155-.057-5.278.057-.574.057-.976.172-2.008.115-1.32.172-2.123.172-2.87l6.254 1.894c0 .746.057 1.435.172 2.926.115 1.55.172 2.353.172 3.27 0 1.09-.057 2.066-.23 2.984z"/>
  <g transform="matrix(.576 0 0 .576 79.277 37.543)">
    <path fill="#FFF" d="M2.291 38.749c9.164 35.66 66.241 26.496 64.05-9.264C63.75-13.348-6.475-5.08 2.29 38.749"/>
    <path d="M67.337 29.385c-.598-10.36-5.18-18.428-12.75-23.508C47.813 1.295 38.848-.498 29.983.597 21.118 1.794 12.949 5.778 7.57 12.054 1.594 19.026-.697 28.19 1.395 38.749l.896-.2-.896.2c9.363 36.656 68.133 27.791 65.942-9.364zM3.187 38.55c-1.992-10.06.2-18.627 5.778-25.102 5.08-5.877 12.75-9.761 21.217-10.857 8.467-1.096 16.934.598 23.31 4.98 7.071 4.782 11.355 12.253 11.952 22.114 2.092 34.764-53.391 43.132-62.256 8.865z"/>
    <ellipse cx="18.03" cy="32.872" rx="9.662" ry="10.459"/>
    <ellipse fill="#FFF" cx="22.412" cy="35.262" rx="2.291" ry="2.689"/>
  </g>
  <g transform="matrix(.576 0 0 .576 126.016 35.31)">
    <path fill="#FFF" d="M1.195 35.96C8.268 76.9 75.206 66.042 65.544 24.803 56.878-12.252-1.196-1.992 1.195 35.96"/>
    <path d="M66.44 24.604C57.575-13.547-2.19-3.088.2 36.059v.1c3.286 19.324 20.52 29.186 39.545 25.998C48.41 60.663 56.18 56.48 61.26 50.304c5.578-6.874 7.57-15.739 5.18-25.7zm-6.673 24.504c-4.782 5.778-12.053 9.762-20.321 11.157-18.03 2.988-34.167-6.276-37.354-24.405C-.1-.996 56.28-10.858 64.647 25.002c2.192 9.463.399 17.731-4.88 24.106z"/>
    <ellipse cx="17.631" cy="34.167" rx="9.463" ry="10.459"/>
    <ellipse fill="#FFF" cx="22.014" cy="36.557" rx="2.191" ry="2.689"/>
  </g>
  <path fill="#F6D2A2" d="M116.32 72.695c-4.533.402-8.205 5.738-5.852 9.984 3.098 5.622 10.04-.517 14.344.057 4.991.115 9.065 5.279 13.024.918 4.418-4.82-1.893-9.525-6.885-11.59z"/>
  <path fill="#231F20" d="M138.41 76.54c-1.55-1.952-4.246-3.73-7.172-4.935l-.115-.058h-.115l-14.688.574c-5.107.46-8.779 6.37-6.312 10.844.976 1.722 2.296 2.582 4.074 2.697 1.32.058 2.697-.23 4.82-.975.172-.058.402-.115.688-.23 2.87-.975 4.017-1.262 5.164-1.09h.058c1.377 0 2.524.402 4.705 1.262 2.41.976 3.155 1.263 4.36 1.377 1.664.115 3.099-.459 4.418-1.893 2.238-2.467 2.123-5.107.115-7.574zm-.975 6.77c-1.09 1.205-2.18 1.606-3.5 1.549-1.033-.058-1.722-.344-4.017-1.262-2.295-.976-3.557-1.32-5.049-1.377-1.434-.173-2.64.114-5.68 1.147-.287.115-.517.172-.689.23-4.188 1.434-6.196 1.32-7.573-1.205-2.066-3.73 1.09-8.779 5.393-9.18l14.516-.574c2.754 1.147 5.221 2.811 6.656 4.59 1.721 2.065 1.779 4.13-.058 6.082z"/>
  <path d="M132.098 70.228c-1.778-6.541-16.696-5.566-16.352 2.238.746 5.795 18.074 4.245 16.352-2.238z"/>
</svg>
