<svg xmlns="http://www.w3.org/2000/svg" width="256" height="348" preserveAspectRatio="xMidYMid" viewBox="0 0 256 348">
    <path fill="#F6D2A2" d="M3.685603 188.164981c.498055 10.259922 10.757977 5.478599 15.340078 2.29105 4.38288-3.087938 5.67782-.498054 6.076265-6.474708.298832-3.984436.697276-7.869261.498054-11.853697-6.67393-.597665-13.845914.996109-19.324514 4.980545-2.888716 1.992218-8.068482 8.566537-2.589883 11.05681M208.18677 314.272374c7.869261 4.880933 22.312841 19.623346 10.459144 26.79533-11.355642 10.359533-17.730739-11.455253-27.691828-14.443579 4.283268-5.877043 9.662256-11.256032 17.232684-12.351751zM67.336965 330.907393c-9.263813 1.394553-14.44358 9.761868-22.21323 14.045136-7.271595 4.283269-10.0607-1.394552-10.658365-2.589883-1.09572-.498055-.99611.498054-2.789105-1.294942-6.773541-10.658365 6.972762-18.428015 14.144747-23.707393 9.96109-1.992218 16.236575 6.67393 21.515953 13.547082zm184.578988-144.037354c-.498054 10.259922-10.757976 5.478599-15.340078 2.29105-4.382879-3.087937-5.677821-.498054-6.076264-6.474708-.298833-3.984435-.697276-7.86926-.498055-11.853696 6.67393-.597666 13.845915.996109 19.324514 4.980545 2.789105 1.992217 8.068483 8.566537 2.589883 11.056809"/>
    <path fill="#69D7E2" d="M224.722179 61.758755c35.561089-12.550973 7.76965-61.2607-23.209339-39.744747C181.192218 4.5821 153.201556 1.394553 123.816342 1.394553 95.028794 3.685603 67.635798 8.96498 48.510506 25.69961 17.631128 5.77743-10.857588 53.59066 25.400778 65.64358c-10.160311 39.445914 1.394553 79.688716-.199222 119.831906-1.494163 36.059144-10.957198 84.370428 9.064592 116.743969 17.033463 27.691829 53.690272 37.553308 83.872373 38.649027 38.549417 1.394553 85.266926-8.068482 103.993775-45.422568 17.929961-35.561089 12.949416-79.887937 10.658365-118.238132-2.29105-38.748638 1.992218-78.094942-8.068482-115.449027z"/>
    <path d="M254.605447 180.793774c-.996108-2.091828-2.888715-4.48249-4.681712-5.777432-4.582101-3.287159-10.459144-5.080155-16.535408-5.279377-.199222-6.175876-.398444-12.949416-.398444-21.515953v-7.76965c-.099611-24.50428-.398443-35.262257-1.792996-48.709728-1.09572-10.558755-2.789105-20.320622-5.179766-29.484825 8.068482-3.087937 13.34786-8.168093 15.439688-14.742412 1.992218-6.076265.996109-12.949417-2.390661-19.025681-3.486381-5.976654-9.064592-10.459144-15.5393-12.25214-6.972762-1.892607-14.54319-.498055-21.814786 4.38288-6.474708-5.4786-13.945525-9.662258-22.31284-12.849806-14.842024-5.4786-32.074708-7.570428-55.483269-7.570428v.996109l-.099611-.99611c-25.002334 1.992219-43.52996 5.877044-58.870039 13.34786-6.175875 2.988328-11.654474 6.57432-16.435797 10.757977-7.371206-4.5821-15.041245-5.67782-22.113619-3.486381-6.574319 1.992218-12.25214 6.67393-15.63891 12.750195-3.38677 6.076264-4.183658 13.049027-1.892607 19.02568 2.29105 5.976654 7.570428 10.658366 15.439688 13.547082-2.490272 10.0607-3.785214 20.719066-3.984435 32.473152-.199222 11.455253.298832 20.619455 2.091828 41.338521 1.294942 15.439689 1.792996 22.512063 1.992218 31.0786-6.77354-.298833-13.547081 1.494163-18.627237 5.179766-1.792996 1.294942-3.785214 3.585992-4.681712 5.777432-1.294942 2.789105-.796887 5.279377 1.792996 6.773541.398444 4.781323 3.087938 6.972763 7.171984 6.574319 2.988327-.298833 6.57432-1.892607 9.662257-4.084047.697276-.498054 1.394553-.896498 2.091829-1.19533.298833-.099611.498054-.199222.796887-.298833 0 0 .597666-.199222.796887-.298833.298833-.099611.597666-.199222.796887-.398443-.199221 4.681712-.597665 9.562646-1.494163 20.719066-.996109 12.550973-1.494163 19.424124-1.693385 27.094163-.896498 28.488716 2.490272 49.207782 12.650584 65.64358 3.187548 5.179766 7.072373 9.761868 11.654474 13.945525-.896498.597666-4.681712 3.386771-5.877043 4.283269-4.183657 3.187548-7.072373 5.877043-8.765758 8.865369-2.19144 3.884825-2.19144 7.76965.298832 11.853697l.099611.099611.099611.099611c1.09572 1.095719 1.693385 1.394552 2.490273 1.394552h.298832c.099611.199222.199222.298833.298833.498055.298832.498054.597665.896498.896498 1.294941 2.490272 2.888716 5.976654 3.585993 10.658366.796887 2.490272-1.294941 4.283268-2.789105 8.068482-5.976653l.199222-.199222c6.076265-5.179767 9.064591-7.072374 13.547082-7.76965l1.593774-.298833c.597665.298833 1.19533.498055 1.892607.796888 14.144747 5.677821 30.580545 8.765758 47.215564 9.363424 21.515953.796887 42.23502-1.892607 59.766537-8.267705 4.681712-1.693385 9.064592-3.685603 13.248249-5.877042 2.589883.996109 4.781323 3.087937 8.964981 7.968871.199222.199222.199222.199222.298832.398444.199222.199222.199222.298833.298833.398443.199222.298833.498055.498055.697276.796888 3.28716 3.884824 5.4786 5.777431 7.968872 6.873151 3.287159 1.394553 6.474708.697277 9.761868-2.29105 5.777432-3.585992 6.175875-9.164203 2.390661-15.5393-2.689494-4.48249-7.371206-9.164202-11.754085-12.152529 5.179766-5.080156 9.662256-11.15642 13.148638-18.029572 9.562646-19.125292 13.248249-41.438132 13.049027-70.12607-.099611-10.160311-.498055-19.025681-1.593774-35.959533v-.498055c.498054.199222.996109.498055 1.494163.896498 3.087938 2.091829 6.67393 3.785214 9.662257 4.084047 4.084047.398444 6.773541-1.792996 7.171984-6.574319 2.490273-1.593774 2.988327-4.084047 1.693385-6.873152zm-31.676264-162.46537c5.976654 1.593775 11.15642 5.777433 14.343969 11.355643 3.187548 5.57821 4.084046 11.853696 2.29105 17.431906-1.892607 5.877043-6.67393 10.558755-14.144747 13.34786-1.494163-5.378988-3.287159-10.658366-5.279377-15.738521 2.888716-2.490273 4.283268-5.57821 1.992218-9.96109-2.291051-4.382879-6.275487-4.880933-10.359533-3.585992-2.589884-3.38677-5.4786-6.375097-8.466926-9.164202 6.574319-4.183658 13.347859-5.378989 19.623346-3.685603zM10.558755 51.996888C8.466926 46.6179 9.164202 40.242802 12.35175 34.664591c3.187549-5.57821 8.367315-9.96109 14.54319-11.754085 6.375098-1.892607 13.24825-.99611 20.02179 2.988327-3.884824 3.486381-7.371206 7.470817-10.359533 11.853696-5.179766-2.689494-10.459143-3.187549-13.44747 2.29105-3.087938 5.877044.498054 9.562647 5.57821 12.351752-.697276 1.693385-1.394553 3.486381-1.992218 5.279377-.697276 2.19144-1.394553 4.48249-1.992218 6.773541-7.271595-2.789105-12.052918-7.072374-14.144747-12.451362zm12.052918 135.76965c-.09961 0-.697276.199222-.697276.298833-.298833.099611-.597666.199221-.896498.398443-.796887.298833-1.593774.796887-2.390662 1.394553-2.789105 1.992218-6.175875 3.486381-8.765758 3.685603-2.988327.298833-4.681712-.996109-4.980545-4.582101 2.091829-.697277 2.988327-1.195331 3.785214-2.390662l-1.593774-1.195331c-.597666.796888-1.195331 1.09572-2.988327 1.693386-.099611 0-.099611 0-.199222.099611-1.593774-.896498-1.892607-2.291051-.99611-4.283269.796888-1.792996 2.589884-3.884825 4.084048-4.980545 4.781323-3.486381 11.15642-5.179766 17.531517-4.781323 0 2.490273.099611 4.980545 0 7.371207 0 .298832 0 .498054-.09961.796887-.099612 1.394552-.099612 1.992218-.199223 2.689494-.298832 2.888716-.498054 3.287159-1.593774 3.785214zm30.08249 150.31284l-.199221.199222c-3.685603 3.187549-5.4786 4.48249-7.76965 5.777432-3.785214 2.291051-6.375097 1.792996-8.168094-.398443-.298832-.298833-.498054-.697277-.697276-.996109-.09961-.099611-.199222-.298833-.298832-.398444v-.099611c.199221-1.792996.896498-3.087938 2.689494-5.877043.09961-.099611.09961-.099611.09961-.199221 1.09572-1.593775 1.593775-2.490273 2.09183-3.585993l-1.792997-.796887c-.398443.896498-.896498 1.693385-1.892607 3.28716-.09961.099611-.09961.099611-.09961.199221-1.792997 2.589884-2.589884 4.183658-2.988327 5.976654h-.398444c-.199222-.099611-.498055-.298833-.896498-.697276-3.884825-6.175876-.796887-11.455253 7.968871-18.029572 1.09572-.796887 4.781323-3.386771 5.777432-4.183658.199222 0 .398444-.099611.597666-.199221 5.378988 4.582101 11.654474 8.566537 18.627237 11.853696 0 .099611.099611.199222.199222.298833-4.084047.996109-7.271596 3.087937-12.849806 7.86926zm167.246693-10.857587c3.087938 5.179766 2.988327 9.363424-.896498 12.25214-.298833-.597665-.498054-1.294942-.896498-2.291051 0-.099611 0-.099611-.099611-.199221-1.394553-3.785214-2.291051-5.378989-3.984436-7.171985l-1.394552 1.394553c1.494163 1.394552 2.191439 2.888716 3.585992 6.375097 0 .099611 0 .099611.099611.199222.498054 1.294941.796887 2.091829 1.09572 2.789105-2.589884 2.191439-4.880934 2.589883-7.271596 1.494163-2.091828-.896498-4.084046-2.789105-7.271595-6.375097-.199222-.199222-.398444-.498055-.597665-.796887-.099611-.099611-.199222-.199222-.298833-.398444-.199222-.199222-.199222-.199222-.298833-.398443-3.685603-4.283269-5.877043-6.574319-8.267704-7.869261 5.57821-3.187549 10.558755-6.773541 15.041245-10.957199 4.183658 3.087938 8.86537 7.670039 11.455253 11.953308zm1.394553-32.27393c-8.566537 17.232685-23.707393 29.385214-44.028016 36.75642-17.332296 6.275487-37.85214 8.86537-59.069261 8.068483-36.557198-1.294942-68.233463-14.045137-83.075486-38.150973-9.96109-16.037354-13.24825-36.457588-12.351751-64.54786.298833-7.670039.697276-14.543191 1.693385-27.094163 1.09572-14.144748 1.394553-18.228794 1.693385-24.603892.199222-4.582101.199222-9.263813.099611-14.244357-.199222-8.765759-.697276-15.738522-1.992218-31.377432-1.792996-20.719067-2.29105-29.783658-2.091828-41.1393.298832-14.941634 2.29105-28.090272 6.474708-40.541634 6.77354-20.221012 19.224903-33.867705 37.154864-42.733074C80.884047 7.968872 99.11284 4.183658 123.915953 2.19144c23.209339 0 40.143191 2.091828 54.785993 7.470817 17.531517 6.474708 30.580544 17.83035 39.545525 35.262257 5.777432 14.144747 9.164202 29.385214 10.957198 46.916731 1.394553 13.34786 1.693385 24.105837 1.792996 48.510506v7.76965c.099611 12.052918.298833 20.519844.796888 28.98677.199221 3.28716.298832 4.681712.796887 12.550973 1.09572 16.933852 1.494163 25.699611 1.593774 35.859922.199222 28.588327-3.38677 50.602335-12.849805 69.428794zm30.480933-109.07393c-.09961 0-.199221-.099611-.298832-.099611-1.792996-.597665-2.390662-.996109-2.988327-1.693385l-1.593774 1.195331c.896498 1.19533 1.792996 1.693385 3.785214 2.390661-.398444 3.585992-2.091829 4.880934-4.980545 4.582101-2.589883-.199222-5.976654-1.792996-8.765759-3.685603-.796887-.597665-1.593774-.996109-2.390661-1.394552-.099611 0-.199222-.099611-.298833-.099611-.398444-5.4786-.398444-6.873152-.597665-9.761868l-.298833-5.378988c5.57821.099611 11.056809 1.792996 15.240467 4.880934 1.494163 1.095719 3.287159 3.187548 4.084046 4.980544.996109 1.693385.796888 3.187549-.896498 4.084047z"/>
    <path fill="#FFF" d="M138.917784 104.123c.099611 5.080155 1.09572 10.658365.199222 16.037353-1.394552 2.589884-3.984436 2.888716-6.275486 3.884825-3.187549-.498054-5.877043-2.589883-7.171985-5.57821-.796887-6.076264.199222-11.853696.498055-17.92996 0-.199223 3.785214.09961 7.171984 1.09572 2.888716.896497 5.57821 2.39066 5.57821 2.490271zm-28.189883.398443c-2.789105 10.558755 3.685603 27.79144 14.343969 13.646693-.796887-5.976654.09961-11.754086.398444-17.631129.09961-.498054-14.642802 3.28716-14.742413 3.984436z"/>
    <path d="M140.113115 108.804711c-.199222-2.988326-.298833-4.183657-.298833-5.67782v-.697277l-.697276-.199222-12.550973-3.884824v-.697277l-1.294941.298833h-.099611v.09961l-14.144747 3.585993-.498055.099611-.199221.498054c-2.19144 5.279378-1.693386 13.24825 1.09572 18.129183 3.187548 5.57821 8.367315 5.677821 13.646692-.697276 1.494163 2.888716 4.283269 4.880934 7.470817 5.378988h.298833l.298833-.09961c.398443-.199222.796887-.298833 1.494163-.597666.09961 0 .09961 0 .199222-.09961 2.888716-.99611 4.084046-1.792997 5.080155-3.685604l.099611-.09961v-.199223c.298833-1.792996.398444-3.685603.398444-5.777432 0-1.494163-.099611-2.888715-.298833-5.67782zm-15.937743-3.685603c-.099611 1.792996-.199222 2.490273-.298833 3.486382-.199221 3.685603-.199221 6.474708.099611 9.263813-4.681712 5.976654-8.367315 5.976654-10.857587 1.494163-2.390662-4.183657-2.888716-11.25603-1.09572-15.937743l12.550973-3.187548c-.099611 1.294941-.199222 2.589883-.398444 4.880933zm13.945525 14.742413c-.697276 1.19533-1.593774 1.792996-3.984436 2.589883-.09961 0-.09961 0-.199221.099611-.597666.199222-.99611.398444-1.294942.498054-2.689494-.498054-4.980545-2.29105-6.076265-4.781323-.298832-2.689494-.298832-5.478599-.09961-9.164202.09961-.996109.09961-1.693385.298832-3.486381.199222-2.29105.298833-3.685603.298833-4.980545l10.857587 3.28716c0 1.294941.099611 2.490272.298833 5.080155.199222 2.689494.298833 4.084047.298833 5.677821 0 1.892607-.099611 3.585992-.398444 5.179767z"/>
    <g transform="translate(48.475508 21.975564)">
        <path fill="#FFF" d="M2.29105 38.748638c9.164203 35.6607 66.241246 26.496498 64.049806-9.263813C63.750973-13.34786-6.474708-5.080155 2.291051 38.748638"/>
        <path d="M67.336965 29.385214C66.7393 19.025681 62.157198 10.957198 54.58677 5.877043 47.81323 1.294942 38.84825-.498054 29.98288.597665 21.11751 1.792996 12.949415 5.777432 7.570427 12.052918c-5.976654 6.972763-8.267704 16.136965-6.175875 26.69572l.896498-.199222-.896498.199222c9.363424 36.65681 68.133852 27.79144 65.942412-9.363424zM3.187549 38.549416C1.19533 28.488716 3.38677 19.92218 8.96498 13.447471 14.045136 7.570428 21.715175 3.685603 30.1821 2.589883s16.933852.597666 23.30895 4.980545c7.072373 4.781323 11.355642 12.25214 11.953307 22.113619 2.091829 34.764202-53.39144 43.131517-62.25681 8.86537z"/>
        <ellipse cx="18.029572" cy="32.871595" rx="9.662257" ry="10.459144"/>
        <ellipse fill="#FFF" cx="22.412451" cy="35.262257" rx="2.291051" ry="2.689494"/>
    </g>
    <g transform="translate(129.617789 18.097523)">
        <path fill="#FFF" d="M1.19533 35.959533c7.072374 40.940078 74.010896 30.08249 64.348639-11.15642C56.87782-12.25214-1.195331-1.992217 1.19533 35.959533"/>
        <path d="M66.440467 24.603891C57.575097-13.547082-2.19144-3.087938.199222 36.059144v.09961c3.28716 19.324514 20.519844 29.185993 39.545525 25.998444 8.666148-1.494163 16.435798-5.67782 21.515953-11.853696 5.57821-6.873152 7.570428-15.738522 5.179767-25.69961zm-6.67393 24.50428c-4.781323 5.777432-12.052918 9.761868-20.320623 11.15642C21.416342 63.252918 5.279377 53.989105 2.09183 35.859922-.099611-.996108 56.280156-10.857588 64.64747 25.002335c2.19144 9.463035.398443 17.730739-4.880934 24.105836z"/>
        <ellipse cx="17.631128" cy="34.166537" rx="9.463035" ry="10.459144"/>
        <ellipse fill="#FFF" cx="22.014008" cy="36.557198" rx="2.19144" ry="2.689494"/>
    </g>
    <path fill="#F6D2A2" d="M112.784624 83.002045c-7.86926.697276-14.244358 9.96109-10.160311 17.332295 5.378988 9.761868 17.431906-.896498 24.902724.099611 8.666147.199222 15.73852 9.164203 22.611673 1.593775 7.670038-8.367316-3.28716-16.535409-11.953308-20.121401l-25.400778 1.09572z"/>
    <path fill="#231F20" d="M151.134819 89.675975c-2.689495-3.38677-7.371207-6.474708-12.451362-8.566537l-.199222-.099611h-.199222l-25.500389.996109c-8.86537.796887-15.240467 11.05681-10.957198 18.826459 1.693385 2.988327 3.984435 4.48249 7.072373 4.681712 2.29105.09961 4.681712-.398444 8.367315-1.693385.298833-.099611.697277-.199222 1.195331-.398444 4.980545-1.693385 6.972763-2.19144 8.96498-1.892607h.099612c2.390661 0 4.382879.697277 8.168093 2.19144 4.183658 1.693385 5.4786 2.19144 7.570428 2.390661 2.888716.199222 5.378988-.796887 7.670039-3.28716 3.884825-4.283268 3.685603-8.865369.199222-13.148637zm-1.693386 11.754085c-1.892607 2.09183-3.785214 2.789105-6.076264 2.689494-1.792996-.09961-2.988327-.597665-6.972763-2.19144-3.984436-1.693384-6.175875-2.29105-8.765759-2.39066-2.490272-.298833-4.5821.199221-9.861478 1.992217-.498055.199222-.896498.298833-1.195331.398444-7.271595 2.490272-10.757977 2.29105-13.148638-2.091829-3.585992-6.474708 1.892607-15.240467 9.363424-15.937743l25.201556-.99611c4.781323 1.992219 9.064592 4.880935 11.554864 7.968872 2.988327 3.585993 3.087938 7.171985-.09961 10.558755z"/>
    <path d="M140.17762 78.718776c-3.087938-11.355642-28.98677-9.662257-28.389105 3.884825 1.294941 10.0607 31.377432 7.371206 28.389105-3.884825z"/>
</svg>
