<svg xmlns="http://www.w3.org/2000/svg" width="269.9964" height="269.99725" viewBox="0 0 107.99856 107.9989">
    <defs>
        <clipPath id="A">
            <path d="M0 340.156h481.89V0H0zm0 0"/>
        </clipPath>
    </defs>
    <g clip-path="url(#A)" transform="translate(14 25.7648) scale(.16601)">
        <path fill="#666" d="M0 340.156l113.387-170.078L0 0h85.04l113.387 170.078L85.04 340.156zm0 0"/>
        <path fill="#999" d="M113.387 340.156l113.387-170.078L113.387 0h85.04l226.77 340.156h-85.04L269.293 233.86l-70.867 106.297h-85.04zm0 0"/>
        <path fill="#666" d="M387.402 240.945l-37.793-56.7 132.28-.004v56.695H387.4zm-56.692-85.04l-37.797-56.7 188.977-.004v56.695H330.7zm0 0"/>
    </g>
</svg>
