<svg xmlns="http://www.w3.org/2000/svg" width="249.99516" height="250" viewBox="0 0 124.99758 125">
    <path fill="#4e7896" d="M49.467058 89.810185s-3.84379 2.337525 2.671903 3.006282c7.843832 1.00001 12.022001.834384 20.703342-.834384a31.312828 31.312828 0 005.509433 2.671903c-19.531455 8.350084-44.250464-.500005-28.887803-4.843801zm-2.500026-10.853238s-4.175044 3.171908 2.337525 3.84379c8.515714.834384 15.193909 1.00001 26.71903-1.334389a10.187607 10.187607 0 004.006292 2.503151c-23.543997 7.012574-49.925524.668757-33.062847-5.009427zM93.05189 97.988396s2.83753 2.337524-3.171908 4.175044c-11.187618 3.34378-46.919242 4.34379-56.938097 0-3.506287-1.50002 3.171908-3.671914 5.312556-4.006292 2.171897-.500005 3.343785-.500005 3.343785-.500005-3.843791-2.671903-25.547143 5.509427-11.018866 7.843827 39.906669 6.51257 72.80076-2.83753 62.44753-7.512574zM51.273327 67.600578s-18.200191 4.343795-6.512568 5.843811c5.009427.668757 14.859531.500005 24.044002-.165627 7.512579-.668757 15.031407-2.000021 15.031407-2.000021s-2.671903 1.168763-4.509422 2.337525c-18.531444 4.843801-54.100567 2.671903-43.91296-2.337525 8.681341-4.175043 15.862666-3.671913 15.862666-3.671913zm32.562841 18.20019c18.700192-9.687601 10.018855-19.031449 4.006292-17.865812-1.500015.334379-2.171897.668757-2.171897.668757s.500005-1.00001 1.668767-1.334389c11.856374-4.175044 21.20647 12.522006-3.84379 19.03145 0 0 .165627-.165627.334378-.500006zM53.117096 112.18229c18.031439 1.16877 45.584853-.66875 46.250485-9.18759 0 0-1.334389 3.34378-14.859531 5.84381-15.362661 2.83753-34.397235 2.50003-45.584852.66876 0 0 2.337524 2.00002 14.193898 2.6719z"/>
    <path fill="#f58219" d="M72.51105 12.5s10.353233 10.518861-9.850103 26.381527c-16.197045 12.856384-3.671914 20.203336 0 28.553424-9.51885-8.515714-16.362672-16.031418-11.687623-23.040867C57.817146 34.037726 76.686093 29.059549 72.51105 12.5zm-5.312556 47.922378c4.843801 5.509432-1.334389 10.51886-1.334389 10.51886s12.35638-6.343817 6.678195-14.193899c-5.175054-7.512579-9.187596-11.187617 12.522006-23.709623 0 0-34.228483 8.515714-17.865812 27.384662z"/>
</svg>
