<svg xmlns="http://www.w3.org/2000/svg" width="320" height="320" viewBox="0 0 320 320">
  <path fill="#f7df1e" d="M60 60h200v200H60z"/>
  <path d="M194.35 216.25c4.028 6.579 9.27 11.413 18.539 11.413 7.787 0 12.762-3.892 12.762-9.27 0-6.444-5.111-8.726-13.683-12.476l-4.698-2.015c-13.562-5.778-22.572-13.016-22.572-28.318 0-14.095 10.74-24.825 27.524-24.825 11.95 0 20.54 4.158 26.73 15.047l-14.635 9.397c-3.222-5.778-6.698-8.054-12.095-8.054-5.505 0-8.993 3.492-8.993 8.054 0 5.638 3.492 7.92 11.555 11.413l4.699 2.013c15.968 6.847 24.984 13.828 24.984 29.523 0 16.921-13.292 26.19-31.143 26.19-17.454 0-28.73-8.317-34.248-19.218zm-66.391 1.63c2.952 5.237 5.638 9.666 12.095 9.666 6.175 0 10.07-2.416 10.07-11.81v-63.904h18.793v64.158c0 19.46-11.41 28.318-28.063 28.318-15.048 0-23.762-7.787-28.194-17.167z"/>
</svg>
