<svg xmlns="http://www.w3.org/2000/svg" width="249.995" height="250" viewBox="0 0 124.998 125">
  <path fill="#4e7896" d="M49.467 89.81s-3.844 2.338 2.672 3.006c7.844 1 12.022.835 20.703-.834a31.313 31.313 0 0 0 5.51 2.672c-19.532 8.35-44.25-.5-28.888-4.844zm-2.5-10.853s-4.175 3.172 2.338 3.844c8.515.834 15.193 1 26.719-1.335a10.188 10.188 0 0 0 4.006 2.503c-23.544 7.013-49.926.67-33.063-5.009zm46.085 19.031s2.837 2.338-3.172 4.175c-11.188 3.344-46.92 4.344-56.938 0-3.506-1.5 3.172-3.671 5.312-4.006 2.172-.5 3.344-.5 3.344-.5-3.844-2.672-25.547 5.51-11.019 7.844 39.907 6.513 72.801-2.838 62.448-7.513zM51.273 67.601s-18.2 4.343-6.512 5.843c5.01.67 14.86.5 24.044-.165 7.512-.669 15.031-2 15.031-2s-2.672 1.169-4.51 2.337c-18.53 4.844-54.1 2.672-43.912-2.337 8.681-4.175 15.862-3.672 15.862-3.672zm32.563 18.2c18.7-9.688 10.019-19.032 4.006-17.866-1.5.334-2.171.669-2.171.669s.5-1 1.668-1.335c11.857-4.175 21.207 12.522-3.843 19.032 0 0 .165-.166.334-.5zm-30.719 26.381c18.032 1.17 45.585-.668 46.25-9.187 0 0-1.334 3.343-14.859 5.844-15.363 2.837-34.397 2.5-45.585.668 0 0 2.338 2 14.194 2.672z"/>
  <path fill="#f58219" d="M72.511 12.5s10.353 10.519-9.85 26.382c-16.197 12.856-3.672 20.203 0 28.553-9.519-8.516-16.363-16.031-11.688-23.04C57.817 34.037 76.686 29.06 72.511 12.5zm-5.313 47.922c4.844 5.51-1.334 10.52-1.334 10.52s12.356-6.345 6.678-14.195c-5.175-7.512-9.187-11.187 12.522-23.71 0 0-34.228 8.516-17.866 27.385z"/>
</svg>
