<svg xmlns="http://www.w3.org/2000/svg" width="320" height="320" viewBox="0 0 320 320">
    <path fill="#f7df1e" d="M60 60h200v200H60z"/>
    <path d="M194.34921 216.25079c4.02857 6.57778 9.26984 11.4127 18.53968 11.4127 7.7873 0 12.7619-3.89206 12.7619-9.26984 0-6.44444-5.11111-8.72698-13.68254-12.47619l-4.69841-2.01587c-13.5619-5.77778-22.57143-13.01588-22.57143-28.31746 0-14.09524 10.73969-24.8254 27.52381-24.8254 11.94921 0 20.53968 4.15873 26.73016 15.04762l-14.63492 9.39682c-3.22222-5.77777-6.69841-8.05396-12.09524-8.05396-5.50476 0-8.99365 3.49206-8.99365 8.05396 0 5.6381 3.49206 7.92064 11.55556 11.4127l4.69841 2.0127c15.96825 6.84762 24.98413 13.82857 24.98413 29.52381 0 16.92064-13.29207 26.19048-31.14286 26.19048-17.45397 0-28.73016-8.31746-34.24762-19.21905zm-66.39048 1.62858c2.95238 5.23809 5.6381 9.66666 12.09524 9.66666 6.1746 0 10.06984-2.41587 10.06984-11.80952v-63.90476h18.79365v64.15873c0 19.46031-11.40952 28.31746-28.06349 28.31746-15.04762 0-23.76191-7.78731-28.19365-17.16667z"/>
</svg>
