<svg xmlns="http://www.w3.org/2000/svg" width="262.12601" height="280" viewBox="0 0 131.063 140">
    <path d="M111.05675 69.247264s-1.56278-1.897211-1.81282-4.29451c-.25005-2.3973.8939-1.562777.8939-1.562777s-.44695-3.181813-2.68172-5.916673c-2.23477-2.734859-4.63207-5.969806-5.68851-10.270568-1.05644-4.300762-3.013031-6.807455-4.353894-8.539012-1.340862-1.731557-1.897211-5.135284-2.681724-6.363627-.784514-1.228342-.897034-8.010793-6.529282-11.092589-5.632247-3.081795-15.909066.459457-18.9221 2.581707-3.013033 2.122251-5.751018 8.260838-9.37666 10.773783-3.625642 2.512945-6.585541 2.562954-9.48918 7.532584-2.903639 4.96963-3.516247 7.813883-3.375598 10.714397 0 0-2.09412.250044-2.344165-.918913-.250044-1.168957.587604-5.107154 1.172083-6.282362 0 0 .587604.500088.500088 1.006428 0 0 1.759687-3.600638.668869-5.776023 0 0 .587604.125022.875155.418824 0 0 .712626-3.391225.712626-5.607242 0-2.216018-.837648-3.938198-2.303533-4.938375 0 0 1.093944-1.422127-.125022-2.969275 0 0-.543846-1.243971-1.969099-2.719232-1.425252-1.475261-2.500442-2.341039-3.938197-2.297282 0 0 .250044-.543846.500089-.875155 0 0-1.218966.143776-1.634665.700124 0 0-.668868-.406322-.79389-1.368992 0 0-1.172083.334434-1.300231 1.172082 0 0-2.581707-.875154-3.681901 1.925341 0 0 .418824.165655.543846.459457 0 0-.375067.837648-2.009731.96267-1.634664.125022-6.322995 0-7.741996.500089-1.419001.500088-2.009731 1.006428-2.009731 1.594032 0 0-.712626.334434-1.04706 1.884709 0 0-1.112697.543846-1.112697 1.506516 0 .962671.612609.687622.612609.687622s-.668869 1.912839 1.675296 2.037861c0 0 .375067.96267 2.387923.96267 2.012856 0 3.469364.334435 4.313264 1.594033 0 0-.668869 2.512945-3.306836 4.813352a6.313618 6.313618 0 001.172083.04376s-2.303533 1.92534-2.888012 4.728962c0 0 .797016-.793891 1.256473-.750133 0 0-2.888012 7.995166 1.13145 15.909067 0 0 .375066-.793891.543846-.875155 0 0-.165654 2.681725 1.46901 4.77272 0 0 .125023-1.172083.750133-1.594032 0 0 2.50982 4.563308 5.085276 6.613671 2.575456 2.050363 6.510527 3.013033 7.388808 5.107154 0 0 1.381494-1.544024 1.381494-2.550452 0 0 .375067.959545.250045 1.962848 0 0 1.550274-.750133 2.050363-1.168957.500088-.418824 2.681725-1.925341 2.969275.500088.287551 2.42543-2.147255 7.28254.08439 13.314858 0 0-.781388 1.093943-.781388 2.556702s1.115823 2.187888 1.115823 2.856756c0 .668869-.500089 1.900337-.500089 3.181814 0 1.281476 1.172083 3.334965.11252 7.917031-1.059563 4.58206-1.506517 5.81353-2.125376 6.59491-.61886.78139-3.013034 2.12538-2.562954 4.3539 0 0-5.635373.72513-5.582238 2.6786.05313 1.95347 2.906764 2.56295 6.307366 2.56295s4.294511-.71887 4.375775-1.95034c.08126-1.23147-.781388-1.45339 0-2.17539.781388-.722 1.625288-1.56278 1.509642-4.63207-.115645-3.06929 1.393997-5.91667 1.393997-5.91667s-.2813-2.62547.615734-4.24138c.897034-1.61591 3.291208-4.800849 1.675297-9.657959 0 0 .443828.16878 1.000177.218789 0 0-.950168-2.6786.781388-5.916673 1.731557-3.238073 2.625465-9.823614 2.625465-9.823614s3.963202.337559 5.688507 0c0 0-3.794422 7.954533-3.406853 13.939968 0 0-.950168.959545-.950168 2.019107 0 1.059563.562599 2.3973 1.506517 3.344342.943917.947043 4.075721 2.844254 5.804152 4.90712 1.728431 2.06286 2.906765 4.35077 3.406853 4.96963 0 0-1.615911 1.06269-1.172082 2.73486 0 0-1.619037.50009-1.450257 1.89721 0 0-2.344165.0563-3.572507 1.11895-1.228343 1.06269-1.844077 2.45668-.725129 2.90051 1.118948.44383 5.25093.44696 6.641801.44696 1.390871 0 3.013034-1.06269 3.125553-1.78157.11252-.71888-.500088-2.51294-.500088-2.51294s.837648.11252 1.172082-.89391c0 0 1.562777 5.80415 3.963202 5.63537 0 0 .334434-.0531.390694-.55635 0 0 1.115823.2813 1.675297-.2813s1.897211-8.42649-2.844254-8.54214c0 0 .334435-.78138-.562599-1.33773-.897034-.55635 7.813883-11.552049 8.81406-12.502217 0 0-1.228342-9.820489 1.228343-14.565079l4.46329-7.982663s.500089 10.548743 5.300939 18.6408a4.094475 4.094475 0 00.668868 2.734859c-.218789 1.506517-.834523 2.287906-.834523 4.188242 0 1.900336 1.393997 6.919978.05314 12.389698-.268798 1.09394-2.956774 4.35389-2.006606 7.03249 0 0-2.231645 1.28148-2.231645 2.9599 0 1.67842 1.000177 2.00973 1.731557 2.00973.731379 0 1.115822-.72513 1.506517-.72513.390694 0 .950168 1.06269 2.734859 1.06269s3.344341-1.45026 3.344341-2.2879c0-.83765-1.450256-2.23165-1.450256-2.23165s.950166-.89391.950166-2.0066c0-1.1127-1.506514-2.95678-1.506514-5.30094 0-2.34417.487586-6.89497 1.393994-8.876575 1.81282-3.963202 1.61904-7.116885.5626-7.951408 0 0 .55635-2.537949.55635-5.219674 0-2.681725-2.062865-9.851744-.33443-17.078024 0 0 2.06286-3.013033 2.51294-7.757623 0 0 3.73816 7.595094.94704 12.892907-2.79111 5.297813-2.23164 5.25093-2.2879 6.863716-.0563 1.612785.78139 3.853807.78139 3.853807l2.54732-2.587958s-.0313-1.781566 1.19709-3.069294c1.22834-1.287728 2.12538-4.769594 1.56278-5.732265l.89391.656367s.44695-1.675297-.3907-4.125731c0 0 .89704-.446954 1.87533.05313zM77.544563 94.361085l-4.297635 6.919975s-3.350594-1.89721-4.407031-4.019461c-1.056437-2.122251-1.953471-3.459988-2.400425-3.794422 0 0 1.365867-1.844076 1.700301-3.794422 0 0 .600107.04688.937666 1.250222 2.03161-2.550452 3.353719-5.313441 3.72566-8.220206 0 0 .500088.500089.950168.668869 0 0 .05314-2.009731.781389-3.459988.728253-1.450257 2.287905-3.294333 2.512944-6.085452h1.000178s-.837649 6.251106 0 11.608305c.837648 5.357198.556348 7.251284-.500089 8.929706z"/>
</svg>
