<svg xmlns="http://www.w3.org/2000/svg" width="262.126" height="280" viewBox="0 0 131.063 140">
  <path d="M111.057 69.247s-1.563-1.897-1.813-4.294c-.25-2.398.894-1.563.894-1.563s-.447-3.182-2.682-5.917-4.632-5.97-5.688-10.27c-1.057-4.301-3.013-6.808-4.354-8.54-1.341-1.73-1.898-5.135-2.682-6.363-.785-1.228-.897-8.01-6.53-11.092-5.632-3.082-15.908.459-18.921 2.581s-5.751 8.261-9.377 10.774c-3.626 2.513-6.586 2.563-9.49 7.533-2.903 4.97-3.515 7.813-3.375 10.714 0 0-2.094.25-2.344-.919s.588-5.107 1.172-6.282c0 0 .588.5.5 1.006 0 0 1.76-3.6.669-5.776 0 0 .588.125.875.419 0 0 .713-3.391.713-5.607s-.838-3.939-2.304-4.939c0 0 1.094-1.422-.125-2.969 0 0-.544-1.244-1.969-2.72-1.425-1.474-2.5-2.34-3.938-2.296 0 0 .25-.544.5-.876 0 0-1.219.144-1.635.7 0 0-.668-.406-.793-1.368 0 0-1.173.334-1.3 1.172 0 0-2.582-.876-3.683 1.925 0 0 .42.166.544.46 0 0-.375.837-2.01.962-1.634.125-6.323 0-7.742.5-1.419.5-2.01 1.007-2.01 1.594 0 0-.712.335-1.046 1.885 0 0-1.113.544-1.113 1.506 0 .963.613.688.613.688s-.67 1.913 1.675 2.038c0 0 .375.963 2.388.963s3.47.334 4.313 1.594c0 0-.669 2.513-3.307 4.813a6.314 6.314 0 0 0 1.172.044s-2.303 1.925-2.888 4.729c0 0 .797-.794 1.257-.75 0 0-2.888 7.995 1.131 15.909 0 0 .375-.794.544-.876 0 0-.166 2.682 1.47 4.773 0 0 .124-1.172.75-1.594 0 0 2.51 4.563 5.085 6.614 2.575 2.05 6.51 3.013 7.388 5.107 0 0 1.382-1.544 1.382-2.55 0 0 .375.959.25 1.962 0 0 1.55-.75 2.05-1.169.5-.418 2.682-1.925 2.97.5.287 2.426-2.148 7.283.084 13.315 0 0-.781 1.094-.781 2.557s1.115 2.188 1.115 2.857-.5 1.9-.5 3.182c0 1.281 1.172 3.335.113 7.917-1.06 4.582-1.507 5.813-2.126 6.595-.618.78-3.013 2.125-2.563 4.353 0 0-5.635.726-5.582 2.68.053 1.953 2.907 2.562 6.308 2.562s4.294-.719 4.375-1.95c.082-1.232-.781-1.454 0-2.176.782-.722 1.626-1.563 1.51-4.632-.116-3.07 1.394-5.916 1.394-5.916s-.281-2.626.616-4.242 3.29-4.8 1.675-9.658c0 0 .444.169 1 .219 0 0-.95-2.679.782-5.917 1.731-3.238 2.625-9.823 2.625-9.823s3.963.337 5.689 0c0 0-3.795 7.954-3.407 13.94 0 0-.95.96-.95 2.019 0 1.06.562 2.397 1.506 3.344.944.947 4.076 2.844 5.804 4.907 1.729 2.063 2.907 4.351 3.407 4.97 0 0-1.616 1.063-1.172 2.735 0 0-1.62.5-1.45 1.897 0 0-2.344.056-3.573 1.119-1.228 1.063-1.844 2.457-.725 2.9 1.119.444 5.251.447 6.642.447 1.39 0 3.013-1.062 3.125-1.781.113-.72-.5-2.513-.5-2.513s.838.112 1.172-.894c0 0 1.563 5.804 3.964 5.635 0 0 .334-.053.39-.556 0 0 1.116.281 1.676-.281s1.897-8.427-2.845-8.542c0 0 .335-.782-.562-1.338-.897-.557 7.814-11.552 8.814-12.502 0 0-1.229-9.82 1.228-14.566l4.463-7.982s.5 10.549 5.301 18.64a4.094 4.094 0 0 0 .67 2.735c-.22 1.507-.835 2.288-.835 4.189 0 1.9 1.394 6.92.053 12.39-.269 1.093-2.957 4.353-2.007 7.032 0 0-2.231 1.281-2.231 2.96 0 1.678 1 2.01 1.731 2.01.732 0 1.116-.726 1.507-.726.39 0 .95 1.063 2.735 1.063s3.344-1.45 3.344-2.288c0-.837-1.45-2.231-1.45-2.231s.95-.894.95-2.007-1.507-2.957-1.507-5.301c0-2.344.488-6.895 1.394-8.877 1.813-3.963 1.62-7.116.563-7.951 0 0 .556-2.538.556-5.22 0-2.681-2.063-9.851-.334-17.078 0 0 2.063-3.013 2.513-7.757 0 0 3.738 7.595.947 12.893-2.791 5.297-2.232 5.25-2.288 6.863-.056 1.613.781 3.854.781 3.854l2.548-2.588s-.032-1.781 1.197-3.07c1.228-1.287 2.125-4.769 1.562-5.731l.894.656s.447-1.675-.39-4.126c0 0 .897-.447 1.875.053zM77.545 94.361l-4.298 6.92s-3.35-1.897-4.407-4.02c-1.057-2.122-1.954-3.46-2.4-3.794 0 0 1.365-1.844 1.7-3.794 0 0 .6.047.937 1.25 2.032-2.55 3.354-5.313 3.726-8.22 0 0 .5.5.95.669 0 0 .053-2.01.782-3.46.728-1.45 2.288-3.295 2.513-6.086h1s-.838 6.251 0 11.609c.837 5.357.556 7.25-.5 8.93z"/>
</svg>
