<svg xmlns="http://www.w3.org/2000/svg" width="260" height="259.20743" viewBox="0 0 260 259.20742">
    <defs>
        <clipPath id="clipPath3444" clipPathUnits="userSpaceOnUse">
            <path d="M11.52 162C11.52 81.677 135.307 16.561 288 16.561S564.481 81.677 564.481 162c0 80.322-123.788 145.439-276.481 145.439-152.693 0-276.48-65.117-276.48-145.439"/>
        </clipPath>
        <clipPath id="clipPath3468" clipPathUnits="userSpaceOnUse">
            <path d="M0 324h576V0H0z"/>
        </clipPath>
        <clipPath id="clipPath3480" clipPathUnits="userSpaceOnUse">
            <path d="M0 324h576V0H0z"/>
        </clipPath>
        <radialGradient id="radialGradient3452" cx="0" cy="0" r="1" fx="0" fy="0" gradientTransform="matrix(363.05789 0 0 -363.05789 177.52002 256.30713)" gradientUnits="userSpaceOnUse" spreadMethod="pad">
            <stop offset="0" stop-color="#aeb2d5"/>
            <stop offset=".3" stop-color="#aeb2d5"/>
            <stop offset=".75" stop-color="#484c89"/>
            <stop offset="1" stop-color="#484c89"/>
        </radialGradient>
    </defs>
    <g clip-path="url(#clipPath3444)" transform="matrix(.36169 0 0 -.36169 25.833341 188.19735)">
        <path fill="url(#radialGradient3452)" d="M11.52 162C11.52 81.677 135.307 16.561 288 16.561S564.481 81.677 564.481 162c0 80.322-123.788 145.439-276.481 145.439-152.693 0-276.48-65.117-276.48-145.439"/>
    </g>
    <g clip-path="url(#clipPath3468)" transform="matrix(.36169 0 0 -.36169 25.833341 188.19735)">
        <path fill="#777bb3" d="M288 27.3594c146.729 0 265.68 60.281 265.68 134.641 0 74.359-118.951 134.641-265.68 134.641s-265.68-60.282-265.68-134.641c0-74.36 118.951-134.641 265.68-134.641"/>
    </g>
    <g clip-path="url(#clipPath3480)" transform="matrix(.36169 0 0 -.36169 25.833341 188.19735)">
        <path d="M161.7344 145.3066c12.065 0 21.072 2.225 26.771 6.611 5.638 4.341 9.532 11.862 11.573 22.353 1.903 9.806 1.178 16.653-2.154 20.348-3.407 3.774-10.773 5.688-21.893 5.688h-19.281l-10.689-55zm-63.063-67.75c-.895 0-1.745.4-2.314 1.092-.57.691-.801 1.601-.63 2.48l28.328 145.751c.274 1.409 1.509 2.427 2.945 2.427h61.054c19.188 0 33.47-5.21 42.447-15.487 9.025-10.331 11.812-24.772 8.283-42.921-1.436-7.394-3.906-14.261-7.341-20.409-3.439-6.155-7.984-11.85-13.511-16.93-6.616-6.192-14.104-10.682-22.236-13.324-8.003-2.607-18.281-3.929-30.548-3.929h-24.722l-7.06-36.322c-.274-1.41-1.508-2.428-2.944-2.428z"/>
        <path fill="#fff" d="M159.2236 197.3071h16.808c13.421 0 18.083-2.945 19.667-4.7 2.628-2.914 3.124-9.058 1.435-17.767-1.898-9.75-5.416-16.663-10.458-20.545-5.162-3.974-13.554-5.988-24.941-5.988h-12.034zm28.831 35h-61.055c-2.872 0-5.341-2.036-5.889-4.855l-28.328-145.751c-.342-1.759.12-3.578 1.259-4.961 1.14-1.383 2.838-2.183 4.63-2.183h31.75c2.873 0 5.342 2.036 5.89 4.855l6.588 33.895h22.249c12.582 0 23.174 1.372 31.479 4.077 8.541 2.775 16.399 7.48 23.354 13.984 5.752 5.292 10.49 11.232 14.08 17.657 3.591 6.427 6.171 13.594 7.668 21.302 3.715 19.104.697 34.402-8.969 45.466-9.572 10.958-24.614 16.514-44.706 16.514m-45.633-90h19.313c12.801 0 22.336 2.411 28.601 7.234 6.266 4.824 10.492 12.875 12.688 24.157 2.101 10.832 1.144 18.476-2.871 22.929-4.02 4.453-12.059 6.68-24.121 6.68h-21.754l-11.856-61m45.633 84c18.367 0 31.766-4.82 40.188-14.461 8.421-9.641 10.957-23.098 7.597-40.375-1.383-7.117-3.722-13.624-7.015-19.519-3.297-5.899-7.602-11.293-12.922-16.184-6.34-5.933-13.383-10.161-21.133-12.679-7.75-2.525-17.621-3.782-29.621-3.782h-27.196l-7.531-38.75h-31.75l28.328 145.75h61.055"/>
        <path d="M311.583 116.3066c-.896 0-1.745.4-2.314 1.092-.571.691-.802 1.6-.631 2.48l12.531 64.489c1.192 6.133.898 10.535-.827 12.395-1.056 1.137-4.228 3.044-13.607 3.044h-22.702l-15.755-81.072c-.274-1.41-1.509-2.428-2.945-2.428h-31.5c-.896 0-1.745.4-2.315 1.092-.57.691-.801 1.601-.63 2.48l28.328 145.751c.274 1.409 1.509 2.427 2.945 2.427h31.5c.896 0 1.745-.4 2.315-1.091.57-.692.801-1.601.63-2.481l-6.836-35.178h24.422c18.605 0 31.221-3.28 38.569-10.028 7.49-6.884 9.827-17.891 6.947-32.719l-13.18-67.825c-.274-1.41-1.508-2.428-2.945-2.428z"/>
        <path fill="#fff" d="M293.6611 271.0571h-31.5c-2.873 0-5.342-2.036-5.89-4.855l-28.328-145.751c-.342-1.759.12-3.578 1.26-4.961 1.14-1.383 2.838-2.183 4.63-2.183h31.5c2.872 0 5.342 2.036 5.89 4.855l15.283 78.645h20.229c9.363 0 11.328-2 11.407-2.086.568-.611 1.315-3.441.082-9.781l-12.531-64.489c-.342-1.759.12-3.578 1.26-4.961 1.14-1.383 2.838-2.183 4.63-2.183h32c2.872 0 5.342 2.036 5.89 4.855l13.179 67.825c3.093 15.921.447 27.864-7.861 35.5-7.928 7.281-21.208 10.82-40.599 10.82h-20.784l6.143 31.605c.341 1.759-.12 3.579-1.26 4.961-1.14 1.383-2.838 2.184-4.63 2.184m0-6l-7.531-38.75h28.062c17.657 0 29.836-3.082 36.539-9.238 6.703-6.16 8.711-16.141 6.032-29.938l-13.18-67.824h-32l12.531 64.488c1.426 7.336.902 12.34-1.574 15.008-2.477 2.668-7.746 4.004-15.805 4.004h-25.176l-16.226-83.5h-31.5l28.328 145.75h31.5"/>
        <path d="M409.5498 145.3066c12.065 0 21.072 2.225 26.771 6.611 5.638 4.34 9.532 11.861 11.574 22.353 1.903 9.806 1.178 16.653-2.155 20.348-3.407 3.774-10.773 5.688-21.893 5.688h-19.281l-10.689-55zm-63.062-67.75c-.895 0-1.745.4-2.314 1.092-.57.691-.802 1.601-.631 2.48l28.328 145.751c.275 1.409 1.509 2.427 2.946 2.427h61.053c19.189 0 33.47-5.21 42.448-15.487 9.025-10.33 11.811-24.771 8.283-42.921-1.438-7.394-3.907-14.261-7.342-20.409-3.439-6.155-7.984-11.85-13.511-16.93-6.616-6.192-14.104-10.682-22.236-13.324-8.003-2.607-18.281-3.929-30.548-3.929h-24.723l-7.057-36.322c-.275-1.41-1.509-2.428-2.946-2.428z"/>
        <path fill="#fff" d="M407.0391 197.3071h16.808c13.421 0 18.083-2.945 19.667-4.7 2.629-2.914 3.125-9.058 1.435-17.766-1.898-9.751-5.417-16.664-10.458-20.546-5.162-3.974-13.554-5.988-24.941-5.988h-12.033zm28.831 35h-61.054c-2.872 0-5.341-2.036-5.889-4.855l-28.328-145.751c-.342-1.759.12-3.578 1.259-4.961 1.14-1.383 2.838-2.183 4.63-2.183h31.75c2.872 0 5.342 2.036 5.89 4.855l6.587 33.895h22.249c12.582 0 23.174 1.372 31.479 4.077 8.541 2.775 16.401 7.481 23.356 13.986 5.752 5.291 10.488 11.23 14.078 17.655 3.591 6.427 6.171 13.594 7.668 21.302 3.715 19.105.697 34.403-8.969 45.467-9.572 10.957-24.613 16.513-44.706 16.513m-45.632-90h19.312c12.801 0 22.336 2.411 28.601 7.234 6.267 4.824 10.492 12.875 12.688 24.157 2.102 10.832 1.145 18.476-2.871 22.929-4.02 4.453-12.059 6.68-24.121 6.68h-21.754l-11.855-61m45.632 84c18.367 0 31.766-4.82 40.188-14.461 8.422-9.641 10.957-23.098 7.597-40.375-1.383-7.117-3.722-13.624-7.015-19.519-3.297-5.899-7.602-11.293-12.922-16.184-6.34-5.933-13.383-10.161-21.133-12.679-7.75-2.525-17.621-3.782-29.621-3.782h-27.196l-7.53-38.75h-31.75l28.328 145.75h61.054"/>
    </g>
</svg>
