<svg xmlns="http://www.w3.org/2000/svg" xmlns:xlink="http://www.w3.org/1999/xlink" width="290.00031" height="288.95874" version="1.0" viewBox="0 0 290 290">
    <defs>
        <linearGradient id="linearGradient11301">
            <stop offset="0" stop-color="#ffe052"/>
            <stop offset="1" stop-color="#ffc331"/>
        </linearGradient>
        <linearGradient id="linearGradient11307" x1="89.136749" x2="147.77737" y1="111.92053" y2="168.1012" gradientUnits="userSpaceOnUse" xlink:href="#linearGradient11301"/>
        <linearGradient id="linearGradient9515">
            <stop offset="0" stop-color="#387eb8"/>
            <stop offset="1" stop-color="#366994"/>
        </linearGradient>
        <linearGradient id="linearGradient9521" x1="55.549179" x2="110.14919" y1="77.070274" y2="131.85291" gradientUnits="userSpaceOnUse" xlink:href="#linearGradient9515"/>
    </defs>
    <g color="#000">
        <path fill="url(#linearGradient9521)" d="M99.75 67.46875C71.718268 67.468752 73.46875 79.625 73.46875 79.625L73.5 92.21875h26.75V96H62.875s-17.9375-2.034276-17.9375 26.25c-.000002 28.28427 15.65625 27.28125 15.65625 27.28125h9.34375v-13.125S69.433848 120.75 85.34375 120.75H111.875s14.90625.24096 14.90625-14.40625V82.125c0-.000002 2.26318-14.65625-27.03125-14.65625zM85 75.9375c2.661429-.000002 4.8125 2.151071 4.8125 4.8125.000002 2.661429-2.151071 4.8125-4.8125 4.8125-2.661429.000002-4.8125-2.151071-4.8125-4.8125-.000002-2.661429 2.151071-4.8125 4.8125-4.8125z" overflow="visible" transform="translate(-36.393047 -77.202773) scale(1.81125)" style="marker:none"/>
        <path fill="url(#linearGradient11307)" d="M100.5461 177.31485c28.03174 0 26.28125-12.15625 26.28125-12.15625l-.0312-12.59375h-26.75v-3.78125h37.375s17.9375 2.03427 17.9375-26.25001c.00001-28.284267-15.65625-27.281247-15.65625-27.281247h-9.34375v13.124997s.50366 15.65625-15.40625 15.65625H88.421098s-14.90625-.24096-14.90625 14.40626v24.21875s-2.26318 14.65625 27.031252 14.65625zm14.75-8.46875c-2.66143 0-4.8125-2.15107-4.8125-4.8125s2.15107-4.8125 4.8125-4.8125 4.8125 2.15107 4.8125 4.8125c.00001 2.66143-2.15107 4.8125-4.8125 4.8125z" overflow="visible" transform="translate(-36.393047 -77.202773) scale(1.81125)" style="marker:none"/>
    </g>
</svg>
