<svg xmlns="http://www.w3.org/2000/svg" xmlns:xlink="http://www.w3.org/1999/xlink" width="198.13" height="197.58" overflow="visible" viewBox="0 0 198.13 197.58">
    <defs>
        <linearGradient id="XMLID_25_-9" x1="-18.5557" x2="135.0152" y1="155.10451" y2="-2.8093" gradientUnits="userSpaceOnUse">
            <stop offset="0" stop-color="#bd0012"/>
            <stop offset="0" stop-color="#bd0012"/>
            <stop offset=".07" stop-color="#fff"/>
            <stop offset=".17" stop-color="#fff"/>
            <stop offset=".27" stop-color="#c82f1c"/>
            <stop offset=".33" stop-color="#820c01"/>
            <stop offset=".46" stop-color="#a31601"/>
            <stop offset=".72" stop-color="#b31301"/>
            <stop offset=".99" stop-color="#e82609"/>
            <stop offset="1" stop-color="#e82609"/>
        </linearGradient>
        <linearGradient id="XMLID_17_-9" x1="174.0737" x2="132.27631" y1="215.5488" y2="141.7533" gradientUnits="userSpaceOnUse">
            <stop offset="0" stop-color="#fb7655"/>
            <stop offset="0" stop-color="#fb7655"/>
            <stop offset=".41" stop-color="#e42b1e"/>
            <stop offset=".99" stop-color="#900"/>
            <stop offset="1" stop-color="#900"/>
        </linearGradient>
        <linearGradient id="XMLID_19_-4" x1="151.79539" x2="97.929703" y1="217.7852" y2="181.638" gradientUnits="userSpaceOnUse">
            <stop offset="0" stop-color="#871101"/>
            <stop offset="0" stop-color="#871101"/>
            <stop offset=".99" stop-color="#911209"/>
            <stop offset="1" stop-color="#911209"/>
        </linearGradient>
        <linearGradient id="XMLID_20_-9" x1="38.696301" x2="47.046902" y1="127.3906" y2="181.66141" gradientUnits="userSpaceOnUse">
            <stop offset="0" stop-color="#fff"/>
            <stop offset="0" stop-color="#fff"/>
            <stop offset=".23" stop-color="#e57252"/>
            <stop offset=".46" stop-color="#de3b20"/>
            <stop offset=".99" stop-color="#a60003"/>
            <stop offset="1" stop-color="#a60003"/>
        </linearGradient>
        <linearGradient id="XMLID_21_-3" x1="96.132797" x2="99.209602" y1="76.715302" y2="132.1021" gradientUnits="userSpaceOnUse">
            <stop offset="0" stop-color="#fff"/>
            <stop offset="0" stop-color="#fff"/>
            <stop offset=".23" stop-color="#e4714e"/>
            <stop offset=".56" stop-color="#be1a0d"/>
            <stop offset=".99" stop-color="#a80d00"/>
            <stop offset="1" stop-color="#a80d00"/>
        </linearGradient>
        <linearGradient id="XMLID_22_-7" x1="147.103" x2="156.3141" y1="25.521" y2="65.216202" gradientUnits="userSpaceOnUse">
            <stop offset="0" stop-color="#fff"/>
            <stop offset="0" stop-color="#fff"/>
            <stop offset=".18" stop-color="#e46342"/>
            <stop offset=".4" stop-color="#c82410"/>
            <stop offset=".99" stop-color="#a80d00"/>
            <stop offset="1" stop-color="#a80d00"/>
        </linearGradient>
        <linearGradient id="XMLID_23_-9" x1="118.9761" x2="158.66859" y1="11.5415" y2="-8.3048" gradientUnits="userSpaceOnUse">
            <stop offset="0" stop-color="#fff"/>
            <stop offset="0" stop-color="#fff"/>
            <stop offset=".54" stop-color="#c81f11"/>
            <stop offset=".99" stop-color="#bf0905"/>
            <stop offset="1" stop-color="#bf0905"/>
        </linearGradient>
        <linearGradient id="XMLID_24_-3" x1="3.9033" x2="7.1702" y1="113.5547" y2="146.2628" gradientUnits="userSpaceOnUse">
            <stop offset="0" stop-color="#fff"/>
            <stop offset="0" stop-color="#fff"/>
            <stop offset=".31" stop-color="#de4024"/>
            <stop offset=".99" stop-color="#bf190b"/>
            <stop offset="1" stop-color="#bf190b"/>
        </linearGradient>
        <linearGradient id="XMLID_18_-7" x1="194.895" x2="141.0276" y1="153.5576" y2="117.4093" gradientUnits="userSpaceOnUse">
            <stop offset="0" stop-color="#871101"/>
            <stop offset="0" stop-color="#871101"/>
            <stop offset=".99" stop-color="#911209"/>
            <stop offset="1" stop-color="#911209"/>
        </linearGradient>
        <linearGradient id="XMLID_26_-2" x1="99.074699" x2="52.817699" y1="171.0332" y2="159.61659" gradientUnits="userSpaceOnUse">
            <stop offset="0" stop-color="#8c0c01"/>
            <stop offset="0" stop-color="#8c0c01"/>
            <stop offset=".54" stop-color="#990c00"/>
            <stop offset=".99" stop-color="#a80d0e"/>
            <stop offset="1" stop-color="#a80d0e"/>
        </linearGradient>
        <linearGradient id="XMLID_27_-1" x1="178.52589" x2="137.43269" y1="115.5146" y2="78.683998" gradientUnits="userSpaceOnUse">
            <stop offset="0" stop-color="#7e110b"/>
            <stop offset="0" stop-color="#7e110b"/>
            <stop offset=".99" stop-color="#9e0c00"/>
            <stop offset="1" stop-color="#9e0c00"/>
        </linearGradient>
        <linearGradient id="XMLID_28_-1" x1="193.6235" x2="173.15421" y1="47.937" y2="26.053801" gradientUnits="userSpaceOnUse">
            <stop offset="0" stop-color="#79130d"/>
            <stop offset="0" stop-color="#79130d"/>
            <stop offset=".99" stop-color="#9e120b"/>
            <stop offset="1" stop-color="#9e120b"/>
        </linearGradient>
        <linearGradient id="XMLID_32_-0" x1="154.6411" x2="192.039" y1="9.7979" y2="26.305901" gradientUnits="userSpaceOnUse">
            <stop offset="0" stop-color="#b31000"/>
            <stop offset="0" stop-color="#b31000"/>
            <stop offset=".44" stop-color="#910f08"/>
            <stop offset=".99" stop-color="#791c12"/>
            <stop offset="1" stop-color="#791c12"/>
        </linearGradient>
        <linearGradient id="XMLID_31_-6" x1="26.669901" x2="9.9887" y1="197.33591" y2="140.742" gradientUnits="userSpaceOnUse">
            <stop offset="0" stop-color="#8b2114"/>
            <stop offset="0" stop-color="#8b2114"/>
            <stop offset=".43" stop-color="#9e100a"/>
            <stop offset=".99" stop-color="#b3100c"/>
            <stop offset="1" stop-color="#b3100c"/>
        </linearGradient>
        <linearGradient id="linearGradient3448" x1="174.0737" x2="132.27631" y1="215.5488" y2="141.7533" gradientUnits="userSpaceOnUse" xlink:href="#XMLID_17_-9"/>
        <radialGradient id="XMLID_30_-6" cx="74.0923" cy="145.75101" r="66.943703" gradientUnits="userSpaceOnUse">
            <stop offset="0" stop-color="#a30c00"/>
            <stop offset="0" stop-color="#a30c00"/>
            <stop offset=".99" stop-color="#800e08"/>
            <stop offset="1" stop-color="#800e08"/>
        </radialGradient>
        <radialGradient id="XMLID_29_-4" cx="143.8315" cy="79.388199" r="50.357601" gradientUnits="userSpaceOnUse">
            <stop offset="0" stop-color="#a80d00"/>
            <stop offset="0" stop-color="#a80d00"/>
            <stop offset=".99" stop-color="#7e0e08"/>
            <stop offset="1" stop-color="#7e0e08"/>
        </radialGradient>
    </defs>
    <path fill="url(#linearGradient3448)" fill-rule="evenodd" d="M153.5 130.41L40.38 197.58l146.469-9.939L198.13 39.95z" clip-rule="evenodd"/>
    <path fill="url(#XMLID_18_-7)" fill-rule="evenodd" d="M187.089 187.54L174.5 100.65l-34.291 45.28z" clip-rule="evenodd"/>
    <path fill="url(#XMLID_19_-4)" fill-rule="evenodd" d="M187.259 187.54L95.03 180.3l-54.16 17.091z" clip-rule="evenodd"/>
    <path fill="url(#XMLID_20_-9)" fill-rule="evenodd" d="M41 197.41l23.04-75.48-50.7 10.841z" clip-rule="evenodd"/>
    <path fill="url(#XMLID_21_-3)" fill-rule="evenodd" d="M140.2 146.18L119 63.14l-60.67 56.87z" clip-rule="evenodd"/>
    <path fill="url(#XMLID_22_-7)" fill-rule="evenodd" d="M193.32 64.31l-57.35-46.84L120 69.1z" clip-rule="evenodd"/>
    <path fill="url(#XMLID_23_-9)" fill-rule="evenodd" d="M166.5.77l-33.73 18.64L111.49.52z" clip-rule="evenodd"/>
    <path fill="url(#XMLID_24_-3)" fill-rule="evenodd" d="M0 158.09l14.13-25.77-11.43-30.7z" clip-rule="evenodd"/>
    <path fill="#fff" fill-rule="evenodd" d="M1.94 100.65l11.5 32.62 49.97-11.211 57.05-53.02 16.1-51.139L111.209 0l-43.1 16.13C54.53 28.76 28.18 53.75 27.23 54.22c-.94.48-17.4 31.59-25.29 46.43z" clip-rule="evenodd"/>
    <path fill="url(#XMLID_25_-9)" fill-rule="evenodd" d="M42.32 42.05c29.43-29.18 67.37-46.42 81.93-31.73 14.551 14.69-.88 50.39-30.31 79.56s-66.9 47.36-81.45 32.67c-14.56-14.68.4-51.33 29.83-80.5z" clip-rule="evenodd"/>
    <path fill="url(#XMLID_26_-2)" fill-rule="evenodd" d="M41 197.38l22.86-75.72 75.92 24.39c-27.45 25.74-57.98 47.5-98.78 51.33z" clip-rule="evenodd"/>
    <path fill="url(#XMLID_27_-1)" fill-rule="evenodd" d="M120.56 68.89l19.49 77.2c22.93-24.11 43.51-50.03 53.589-82.09l-73.079 4.89z" clip-rule="evenodd"/>
    <path fill="url(#XMLID_28_-1)" fill-rule="evenodd" d="M193.44 64.39c7.8-23.54 9.6-57.31-27.181-63.58l-30.18 16.67 57.361 46.91z" clip-rule="evenodd"/>
    <path fill="#9e1209" fill-rule="evenodd" d="M0 157.75c1.08 38.851 29.11 39.43 41.05 39.771L13.47 133.11 0 157.75z" clip-rule="evenodd"/>
    <path fill="url(#XMLID_29_-4)" fill-rule="evenodd" d="M120.669 69.01c17.62 10.83 53.131 32.58 53.851 32.98 1.119.63 15.31-23.93 18.53-37.81l-72.381 4.83z" clip-rule="evenodd"/>
    <path fill="url(#XMLID_30_-6)" fill-rule="evenodd" d="M63.83 121.66l30.56 58.96c18.07-9.8 32.22-21.74 45.18-34.53l-75.74-24.43z" clip-rule="evenodd"/>
    <path fill="url(#XMLID_31_-6)" fill-rule="evenodd" d="M13.35 133.19l-4.33 51.56c8.17 11.16 19.41 12.13 31.2 11.26-8.53-21.23-25.57-63.68-26.87-62.82z" clip-rule="evenodd"/>
    <path fill="url(#XMLID_32_-0)" fill-rule="evenodd" d="M135.9 17.61l60.71 8.52C193.37 12.4 183.42 3.54 166.46.77L135.9 17.61z" clip-rule="evenodd"/>
</svg>
