<svg xmlns="http://www.w3.org/2000/svg" width="249.99617" height="250" viewBox="19 19 184.02496 184.02778">
    <path stroke-width="1.40659" d="M183.61647 109.20783l-6.18056-3.82593c-.052-.60202-.11112-1.20264-.17582-1.80044l5.31128-4.95401c.54014-.503559.78207-1.249052.63578-1.970633-.14206-.724395-.64984-1.320789-1.34048-1.578195l-6.78961-2.538896c-.1702-.587955-.34883-1.17169-.53169-1.752612l4.23524-5.882363c.43183-.597801.52044-1.375645.23912-2.057842-.28131-.679383-.89599-1.166063-1.6232-1.285624l-7.15955-1.164657c-.2785-.542944-.56826-1.077448-.86083-1.607733l3.0087-6.603943c.30804-.67235.24474-1.454415-.16598-2.064875-.40932-.613274-1.10277-.971954-1.84264-.943823l-7.26644.253187c-.37556-.469802-.75816-.935383-1.14778-1.392525l1.66962-7.077964c.16879-.718768-.0436-1.471294-.56685-1.993139-.51904-.520439-1.27297-.735647-1.99174-.566856l-7.07656 1.668216c-.45854-.388219-.92413-.772218-1.39533-1.147778l.25459-7.266447c.0281-.735647-.33055-1.434723-.94382-1.842634-.61468-.410725-1.39253-.472615-2.06347-.167384l-6.60254 3.010104c-.5331-.292571-1.0676-.582329-1.60773-.86224l-1.16747-7.160953c-.11816-.725801-.60484-1.341888-1.28563-1.623206-.67938-.282725-1.45863-.191296-2.05643.23912L131.24207 47.481c-.57952-.184263-1.16185-.361494-1.7498-.530285l-2.5389-6.79102c-.2574-.692042-.8538-1.199821-1.57819-1.343294-.72299-.142065-1.46708.09846-1.96923.635779l-4.95401 5.315507c-.5978-.06611-1.19982-.126594-1.80044-.175824l-3.82592-6.181966c-.38682-.625933-1.07183-1.007119-1.80888-1.007119s-1.42206.381186-1.80747 1.007119l-3.82592 6.181966c-.60203.04923-1.20405.109714-1.80185.175824l-4.955416-5.315507c-.502153-.537317-1.247646-.777844-1.969227-.635779-.724394.144879-1.320788.651252-1.578195 1.343294l-2.538896 6.79102c-.587955.168791-1.170283.347428-1.751205.530285l-5.885176-4.235245c-.597801-.431823-1.377052-.523251-2.057842-.23912-.679383.281318-1.16747.897405-1.285624 1.623206l-1.16747 7.160953c-.540131.279911-1.074635.568262-1.607733.86224l-6.602537-3.010104c-.670943-.306637-1.453008-.243341-2.063468.167384-.613274.407911-.971954 1.106987-.943823 1.842634l.253187 7.266447c-.469802.37556-.935383.759559-1.395338 1.147778l-7.076558-1.668216c-.718768-.167385-1.4727.04642-1.993139.566856-.523252.521845-.735647 1.274371-.566856 1.993139l1.66681 7.077964c-.386812.458549-.769405.922723-1.144965 1.392525l-7.266447-.253187c-.732834-.0211-1.433316.330549-1.842634.943823-.410725.61046-.472615 1.392525-.167384 2.064875l3.010104 6.603943c-.292571.530285-.582329 1.064789-.86224 1.607733l-7.159547 1.164657c-.727208.118154-1.340481.604834-1.623206 1.285624-.281318.682197-.18989 1.460041.23912 2.057842L47.481 90.787114c-.184263.580922-.3629 1.164657-.531691 1.752612l-6.79102 2.538896c-.68923.257406-1.197009.8538-1.340481 1.578195-.143472.722987.09705 1.467074.635779 1.970633l5.312693 4.95401c-.06611.5978-.125187 1.19982-.175824 1.80044l-6.180559 3.82593c-.625933.38681-1.007119 1.07041-1.007119 1.80887 0 .73846.381186 1.42206 1.007119 1.80747l6.180559 3.82593c.05064.60202.109714 1.20263.175824 1.80043l-5.312693 4.95542c-.538724.50216-.779251 1.24765-.635779 1.96923.143472.72439.651251 1.31938 1.340481 1.57819l6.79102 2.5389c.168791.58796.347428 1.17169.531691 1.75261l-4.235245 5.88377c-.430416.59921-.521845 1.37705-.23912 2.05644.282725.68219.897405 1.16887 1.624612 1.28562l7.158141 1.16466c.279911.54294.566856 1.07745.86224 1.61054l-3.010104 6.60113c-.306637.67095-.243341 1.45161.167384 2.06488.410724.61468 1.1098.97336 1.842634.94382l7.263634-.25459c.378373.47261.759559.93538 1.147778 1.39534l-1.66681 7.07937c-.168791.71736.0436 1.46707.566856 1.98892.519032.52466 1.274371.73424 1.993139.56545l7.076558-1.66681c.459955.39103.925536.77081 1.395338 1.14496l-.253187 7.26786c-.02813.73564.330549 1.43331.943823 1.84404.61046.40932 1.392525.47121 2.063468.16457l6.602537-3.0087c.531691.29539 1.066196.58233 1.607733.86224l1.16747 7.15673c.118154.72862.604834 1.34471 1.285624 1.62462.679384.28272 1.460041.19129 2.057842-.23772l5.882363-4.23805c.580922.18426 1.164657.3643 1.752612.53309l2.538896 6.78821c.257406.68923.8538 1.19982 1.578195 1.34048.722987.14629 1.467074-.0956 1.969227-.63578l4.955422-5.31269c.5978.0689 1.19982.12659 1.80184.18004l3.82593 6.18056c.3854.62312 1.07041 1.00712 1.80746 1.00712.73706 0 1.42207-.38259 1.80888-1.00712l3.82593-6.18056c.60202-.0534 1.20263-.11112 1.80043-.18004l4.95402 5.31269c.50215.54013 1.24764.78207 1.96922.63578.7244-.14207 1.32079-.65125 1.5782-1.34048l2.53889-6.78821c.58796-.16879 1.17169-.34883 1.75262-.53309l5.88376 4.23805c.59781.42901 1.37706.52044 2.05644.23772.68079-.27991 1.16747-.89741 1.28562-1.62462l1.16747-7.15673c.54013-.27991 1.07464-.57107 1.60773-.86224l6.60254 3.0087c.67095.30664 1.4516.24475 2.06347-.16457.61327-.41073.97055-1.10699.94382-1.84404l-.25318-7.26786c.4698-.37556.93538-.75393 1.39393-1.14496l7.07656 1.66681c.71876.16879 1.4727-.0408 1.99173-.56545.52325-.52185.73565-1.27156.56685-1.98892l-1.66681-7.07937c.38822-.45996.77082-.92273 1.14497-1.39534l7.26645.25459c.73283.0295 1.43331-.32914 1.84263-.94382.41073-.61327.47402-1.39393.16598-2.06488l-3.0087-6.60113c.29398-.53309.58233-1.0676.86083-1.61054l7.15955-1.16466c.72862-.11675 1.34189-.60343 1.62321-1.28562.28131-.67939.1927-1.45723-.23912-2.05644l-4.23525-5.88377c.18286-.58092.3615-1.16465.53169-1.75261l6.78962-2.5389c.69063-.25881 1.19982-.8538 1.34048-1.57819.14628-.72299-.0957-1.46707-.63578-1.96923l-5.31129-4.95542c.0647-.5978.12378-1.19982.17583-1.80043l6.18056-3.82593c.62593-.38541 1.00711-1.07042 1.00711-1.80747s-.37978-1.42206-1.00571-1.80887zm-41.36643 51.27163c-2.36025-.50918-3.86108-2.83568-3.35471-5.20297.50496-2.36448 2.83006-3.86954 5.18891-3.36035 2.36026.50497 3.8639 2.83569 3.35753 5.19876s-2.83287 3.86953-5.19173 3.36456zM140.15 146.27571c-2.15348-.46136-4.27181.90866-4.73317 3.06637l-2.19428 10.23998c-6.77133 3.0734-14.29096 4.781-22.21007 4.781-8.10055 0-15.783352-1.79199-22.675647-4.99621l-2.192875-10.23998c-.461361-2.1549-2.579687-3.52773-4.731771-3.06496l-9.040158 1.94109c-1.678063-1.72729-3.239378-3.56711-4.674101-5.50961h43.986902c.49793 0 .82989-.09.82989-.54295v-15.5597c0-.45292-.33196-.54295-.82989-.54295H98.820154v-9.86301h13.913996c1.27015 0 6.79102.3629 8.55629 7.41977.55279 2.17037 1.76668 9.23004 2.59657 11.49043.82707 2.53468 4.19445 7.59841 7.78266 7.59841h21.9189c.24897 0 .51482-.0281.79473-.0788-1.52053 2.06628-3.18874 4.02144-4.98496 5.8486zm-60.837853 13.98995c-2.360259.50919-4.683946-.99586-5.191726-3.36034-.504966-2.3687.995866-4.6938 3.356126-5.20298 2.360259-.50497 4.685353 1.00008 5.191726 3.36456.504966 2.36308-.997273 4.69239-3.356126 5.19876zM62.625762 92.601616c.978987 2.209754-.01688 4.799287-2.22382 5.776868-2.20694.980393-4.789441-.01688-5.768428-2.22804-.978987-2.211161.01688-4.796474 2.22382-5.776868 2.208347-.978987 4.789441.01688 5.768428 2.22804zm-5.128429 12.157164l9.417124-4.18461c2.011425-.893183 2.920082-3.250629 2.026897-5.266274l-1.939688-4.38575h7.627941v34.382704H59.240098c-1.334854-4.69239-2.050809-9.64499-2.050809-14.76358 0-1.95375.105494-3.885.308044-5.78249zm41.325634-3.33925V91.285047h18.164713c.93819 0 6.62504 1.084481 6.62504 5.336605 0 3.530548-4.36184 4.796478-7.94864 4.796478H98.822967zm66.014113 9.12174c0 1.3447-.0492 2.67534-.14769 3.99613h-5.52228c-.55279 0-.77503.3629-.77503.90444v2.53608c0 5.96957-3.36597 7.26785-6.31559 7.5984-2.80896.31648-5.92316-1.17591-6.30716-2.89476-1.65696-9.32007-4.4181-11.3104-8.77853-14.74951 5.41116-3.4363 11.04174-8.505656 11.04174-15.29105 0-7.326931-5.02294-11.941955-8.44658-14.205159-4.8035-3.166236-10.12182-3.800608-11.55654-3.800608H70.917614c7.744689-8.6435 18.240668-14.766389 30.112296-16.994429l6.73194 7.062492c1.52193 1.593667 4.04254 1.652744 5.6348.129406l7.5323-7.204557c15.78335 2.938368 29.14596 12.763404 36.84704 26.242762l-5.15656 11.646571c-.89037 2.015645.0183 4.373091 2.02831 5.266272l9.92771 4.40967c.17161 1.76245.26163 3.5432.26163 5.34785zm-57.07242-58.908015c1.74418-1.671029 4.51094-1.60492 6.18056.142066 1.66681 1.751205 1.60352 4.520782-.14488 6.190406-1.74417 1.671029-4.51093 1.606326-6.18056-.143473-1.6654-1.748392-1.6021-4.517969.14488-6.188999zm51.17177 41.180756c.97758-2.209754 3.56008-3.207027 5.76702-2.226633 2.20694.978987 3.20281 3.567114 2.22382 5.776868-.97758 2.21116-3.56008 3.208433-5.76843 2.228039-2.20412-.978987-3.19999-3.565707-2.22241-5.778274z"/>
</svg>
