<svg xmlns="http://www.w3.org/2000/svg" width="249.996" height="250" viewBox="19 19 184.025 184.028">
  <path d="m183.616 109.208-6.18-3.826a84 84 0 0 0-.176-1.8l5.311-4.955a2.12 2.12 0 0 0 .636-1.97 2.12 2.12 0 0 0-1.34-1.578l-6.79-2.54a79 79 0 0 0-.532-1.752l4.236-5.882a2.127 2.127 0 0 0-1.384-3.344l-7.16-1.164a60 60 0 0 0-.86-1.608l3.008-6.604a2.12 2.12 0 0 0-.166-2.065 2.12 2.12 0 0 0-1.843-.944l-7.266.253q-.564-.706-1.148-1.392l1.67-7.078a2.127 2.127 0 0 0-2.559-2.56l-7.077 1.668a61 61 0 0 0-1.395-1.148l.255-7.266a2.12 2.12 0 0 0-.944-1.843 2.12 2.12 0 0 0-2.064-.167l-6.602 3.01a77 77 0 0 0-1.608-.862l-1.167-7.161a2.128 2.128 0 0 0-3.342-1.384l-5.887 4.235a65 65 0 0 0-1.75-.53l-2.539-6.791a2.12 2.12 0 0 0-1.578-1.344 2.13 2.13 0 0 0-1.969.636l-4.954 5.316q-.899-.1-1.8-.176l-3.826-6.182a2.127 2.127 0 0 0-3.617 0l-3.826 6.182q-.904.076-1.802.176l-4.955-5.316a2.125 2.125 0 0 0-3.547.708l-2.54 6.79q-.88.256-1.75.531l-5.886-4.235a2.12 2.12 0 0 0-2.057-.24 2.13 2.13 0 0 0-1.286 1.624l-1.168 7.16q-.809.422-1.607.863l-6.603-3.01a2.12 2.12 0 0 0-2.063.167 2.12 2.12 0 0 0-.944 1.843l.253 7.266q-.705.565-1.395 1.148L60.956 58.4a2.13 2.13 0 0 0-1.993.567 2.12 2.12 0 0 0-.567 1.993l1.667 7.078q-.582.688-1.145 1.392l-7.266-.253a2.125 2.125 0 0 0-2.01 3.009l3.01 6.604a65 65 0 0 0-.863 1.608l-7.16 1.164a2.128 2.128 0 0 0-1.383 3.344l4.235 5.882a66 66 0 0 0-.532 1.753l-6.79 2.539a2.13 2.13 0 0 0-.705 3.549l5.312 4.953q-.1.898-.176 1.8l-6.18 3.827a2.125 2.125 0 0 0 0 3.616l6.18 3.826q.077.904.176 1.8l-5.312 4.956a2.126 2.126 0 0 0 .704 3.547l6.791 2.54q.255.88.532 1.752l-4.235 5.884a2.125 2.125 0 0 0 1.385 3.342l7.158 1.164q.42.813.863 1.61l-3.01 6.602a2.12 2.12 0 0 0 .167 2.065c.41.615 1.11.973 1.843.944l7.263-.255q.567.708 1.148 1.395l-1.667 7.08a2.12 2.12 0 0 0 .567 1.989 2.12 2.12 0 0 0 1.993.565l7.077-1.667q.69.585 1.395 1.145l-.253 7.268a2.124 2.124 0 0 0 3.007 2.009l6.603-3.009q.796.443 1.607.862l1.168 7.157a2.13 2.13 0 0 0 3.343 1.387l5.883-4.238a66 66 0 0 0 1.752.533l2.54 6.788c.257.69.853 1.2 1.577 1.34a2.12 2.12 0 0 0 1.97-.635l4.955-5.313c.598.07 1.2.127 1.802.18l3.826 6.18a2.13 2.13 0 0 0 3.616 0l3.826-6.18a69 69 0 0 0 1.8-.18l4.955 5.313c.502.54 1.247.782 1.969.636a2.12 2.12 0 0 0 1.578-1.34l2.539-6.789a66 66 0 0 0 1.752-.533l5.884 4.238a2.128 2.128 0 0 0 3.342-1.387l1.168-7.157a84 84 0 0 0 1.607-.862l6.603 3.009a2.123 2.123 0 0 0 3.007-2.009l-.253-7.268q.706-.56 1.394-1.145l7.077 1.667a2.12 2.12 0 0 0 1.991-.565 2.12 2.12 0 0 0 .567-1.99l-1.667-7.079c.389-.46.771-.922 1.145-1.395l7.267.255c.733.03 1.433-.33 1.842-.944a2.12 2.12 0 0 0 .166-2.065l-3.008-6.601q.442-.798.86-1.61l7.16-1.165a2.125 2.125 0 0 0 1.384-3.342l-4.235-5.884q.275-.871.532-1.753l6.79-2.539c.69-.258 1.2-.853 1.34-1.578a2.12 2.12 0 0 0-.636-1.97l-5.311-4.954q.096-.898.176-1.8l6.18-3.827a2.125 2.125 0 0 0 .001-3.616zm-41.366 51.271a4.38 4.38 0 0 1-3.355-5.203 4.366 4.366 0 0 1 5.19-3.36c2.36.505 3.863 2.836 3.357 5.199s-2.833 3.87-5.192 3.364m-2.1-14.203a3.985 3.985 0 0 0-4.733 3.066l-2.194 10.24c-6.772 3.073-14.291 4.781-22.21 4.781a53.65 53.65 0 0 1-22.676-4.996l-2.193-10.24a3.984 3.984 0 0 0-4.732-3.065l-9.04 1.941a54 54 0 0 1-4.674-5.51h43.987c.498 0 .83-.09.83-.543v-15.56c0-.452-.332-.542-.83-.542H98.82v-9.863h13.914c1.27 0 6.791.363 8.556 7.42.553 2.17 1.767 9.23 2.597 11.49.827 2.535 4.194 7.598 7.783 7.598h21.919q.374-.001.794-.078a54 54 0 0 1-4.985 5.848zm-60.838 13.99a4.37 4.37 0 0 1-5.192-3.36 4.38 4.38 0 0 1 3.357-5.204 4.38 4.38 0 0 1 1.836 8.563zM62.626 92.602a4.38 4.38 0 0 1-2.224 5.776 4.37 4.37 0 0 1-5.768-2.228 4.38 4.38 0 0 1 2.223-5.776 4.37 4.37 0 0 1 5.769 2.228m-5.129 12.157 9.417-4.185a3.99 3.99 0 0 0 2.027-5.266l-1.94-4.386h7.629v34.383H59.24a54 54 0 0 1-2.05-14.764c0-1.953.105-3.885.307-5.782m41.326-3.34V91.286h18.165c.938 0 6.625 1.085 6.625 5.337 0 3.53-4.362 4.796-7.949 4.796zm66.014 9.122q0 2.017-.148 3.996h-5.522c-.553 0-.775.363-.775.905v2.536c0 5.97-3.366 7.268-6.316 7.598-2.808.317-5.923-1.176-6.307-2.894-1.657-9.32-4.418-11.31-8.778-14.75 5.411-3.436 11.042-8.506 11.042-15.291 0-7.327-5.023-11.942-8.447-14.205-4.804-3.166-10.122-3.8-11.557-3.8H70.918c7.744-8.644 18.24-14.767 30.112-16.995l6.732 7.062a3.98 3.98 0 0 0 5.635.13l7.532-7.205c15.783 2.939 29.146 12.764 36.847 26.243l-5.157 11.646a3.997 3.997 0 0 0 2.029 5.267l9.927 4.41a55 55 0 0 1 .262 5.347m-57.072-58.908a4.367 4.367 0 0 1 6.18.142 4.38 4.38 0 0 1-.145 6.19 4.365 4.365 0 0 1-6.18-.143 4.383 4.383 0 0 1 .145-6.189m51.171 41.181a4.367 4.367 0 0 1 5.767-2.227 4.38 4.38 0 0 1 2.224 5.777 4.37 4.37 0 0 1-5.768 2.228 4.384 4.384 0 0 1-2.223-5.778"/>
</svg>
