<svg xmlns="http://www.w3.org/2000/svg" width="280" height="279.999" viewBox="0 0 280 279.999">
  <defs>
    <linearGradient id="swift_a" x1="18.753" x2="18.753" y1="0" y2="37.505" gradientTransform="matrix(5.33259 0 0 4.7785 40 50.39)" gradientUnits="userSpaceOnUse">
      <stop offset="0" stop-color="#F88A36"/>
      <stop offset="1" stop-color="#FD2020"/>
    </linearGradient>
  </defs>
  <path fill="url(#swift_a)" d="M190.858 217.209c-23.559 13.61-55.952 15.008-88.541 1.04C75.93 207.022 54.035 187.37 40 164.917c6.737 5.614 14.597 10.106 23.018 14.034 33.655 15.774 67.304 14.694 90.984.04-.015-.015-.025-.025-.035-.04-33.685-25.826-62.317-59.51-83.65-87.017-4.493-4.492-7.862-10.106-11.23-15.158 25.825 23.579 66.81 53.331 81.403 61.756-30.873-32.564-58.385-72.983-57.264-71.862 48.844 49.404 94.321 77.476 94.321 77.476 1.504.848 2.665 1.554 3.6 2.185a73.869 73.869 0 0 0 2.574-7.799c7.86-28.632-1.121-61.196-20.773-88.142 45.472 27.509 72.423 79.157 61.192 122.387a73.46 73.46 0 0 1-.955 3.448c.132.157.263.318.394.485 22.453 28.071 16.28 57.824 13.473 52.21-12.18-23.836-34.73-16.546-46.194-11.71z"/>
</svg>
