<svg xmlns="http://www.w3.org/2000/svg" width="40" height="36" viewBox="0 0 40 36">
    <defs>
        <linearGradient id="a" x1="50%" x2="50%" y2="100%">
            <stop offset="0" stop-color="#F88A36"/>
            <stop offset="1" stop-color="#FD2020"/>
        </linearGradient>
    </defs>
    <path fill="url(#a)" d="M29.885 33.047c-4.667 2.696-11.084 2.973-17.54.206C7.1177 31.029 2.7804 27.136 0 22.688c1.3346 1.112 2.8916 2.002 4.5598 2.78 6.6672 3.125 13.333 2.911 18.024.008-.003-.003-.005-.005-.007-.008-6.673-5.116-12.345-11.789-16.571-17.238-.8901-.8898-1.5574-2.002-2.2247-3.0029 5.1159 4.671 13.235 10.565 16.126 12.234-6.116-6.451-11.566-14.458-11.344-14.236 9.676 9.787 18.685 15.348 18.685 15.348.298.168.528.308.713.433.195-.496.366-1.011.51-1.545 1.557-5.672-.222-12.123-4.115-17.461 9.008 5.4495 14.347 15.681 12.122 24.245-.058.231-.121.459-.189.683.026.031.052.063.078.096 4.448 5.561 3.225 11.455 2.669 10.343-2.413-4.722-6.88-3.278-9.151-2.32z"/>
</svg>
