<svg xmlns="http://www.w3.org/2000/svg" width="280" height="279.99872" viewBox="0 0 280 279.99872">
    <defs>
        <linearGradient id="swift_a" x1="18.752619" x2="18.752619" y1=".000106" y2="37.505344" gradientTransform="matrix(5.33259 0 0 4.7785 40 50.389495)" gradientUnits="userSpaceOnUse">
            <stop offset="0" stop-color="#F88A36"/>
            <stop offset="1" stop-color="#FD2020"/>
        </linearGradient>
    </defs>
    <path fill="url(#swift_a)" d="M190.85789 217.209c-23.55876 13.60926-55.95144 15.00754-88.54099 1.03987C75.929772 207.02224 54.035312 187.37058 40 164.91732c6.73699 5.61331 14.596643 10.10598 23.017628 14.03329 33.655672 15.77483 67.304282 14.69457 90.984192.0404-.0151-.0151-.0252-.0252-.0353-.0404-33.68499-25.8253-62.316941-59.51025-83.649564-87.016511-4.493178-4.491663-7.861673-10.10599-11.230168-15.15848C84.91158 100.35458 125.89637 130.10718 140.48998 138.5322c-30.87324-32.5643-58.384554-72.983215-57.26391-71.862571 48.84393 49.404261 94.32089 77.475891 94.32089 77.475891 1.50429.84805 2.66531 1.55477 3.59918 2.18576.98435-2.50378 1.84755-5.10348 2.57446-7.79908 7.85965-28.63195-1.12065-61.196259-20.7723-88.1422 45.4719 27.508787 72.4229 79.15686 61.19122 122.38747-.29278 1.16608-.6108 2.31701-.95406 3.44775.13124.15649.26249.31802.39374.4846 22.45326 28.07164 16.27962 57.82424 13.47297 52.21092-12.1807-23.83641-34.72988-16.54717-46.19377-11.71124z"/>
</svg>
