<svg xmlns="http://www.w3.org/2000/svg" width="300.85089" height="300" preserveAspectRatio="xMidYMid" viewBox="0 0 300.85089 300">
    <g fill="#2BA977">
        <path d="M142.55208 50h32.747366v150.092198c-16.77382 3.172828-29.122156 4.421184-42.48282 4.421184C92.820066 204.471585 72 186.603072 72 152.285272c0-33.06514 22.084404-54.524445 56.306932-54.524445 5.310583 0 9.356215.417963 14.245148 1.670007zm1.147553 76.479158c-3.835421-1.252659-6.995956-1.670007-11.042202-1.670007-16.562996 0-26.130036 10.103016-26.130036 27.808647 0 17.238497 9.146004 26.75698 25.919825 26.75698 3.623981 0 6.574305-.204064 11.252413-.830393z"/>
        <path d="M228.850899 101.790478v75.149053c0 25.879873-1.938609 38.325323-7.628432 49.055282-5.310583 10.315685-12.306538 16.820535-26.76251 24.005188l-30.387108-14.31952c14.455973-6.718134 21.451928-12.654431 25.919825-21.71377 4.677493-9.264017 6.152655-19.993976 6.152655-48.216283v-63.959335h32.70557zM192.845269 50h32.747366v33.274122h-32.747367z"/>
    </g>
</svg>
