<svg xmlns="http://www.w3.org/2000/svg" width="256" height="326" preserveAspectRatio="xMidYMid" viewBox="0 0 256 326">
    <g fill="#2BA977">
        <path d="M114.78426 0h53.277999v244.191113c-27.290404 5.162172-47.381078 7.193079-69.117404 7.193079C33.873014 251.316268 0 222.24509 0 166.412124c0-53.795267 35.93008-88.70785 91.607987-88.70785 8.639676 0 15.222286.679232 23.176273 2.716932V0zm1.867183 124.426648c-6.239766-2.0377-11.38243-2.716934-17.96504-2.716934-26.94756 0-42.512689 16.437443-42.512689 45.243722 0 28.045536 14.879442 43.532053 42.169845 43.532053 5.896921 0 10.69674-.332825 18.307884-1.351675v-84.707166z"/>
        <path d="M255.186899 84.260571V206.52254c0 42.105664-3.154168 62.353604-12.410963 79.809896-8.639675 16.783852-20.022104 27.366305-43.541221 39.055907l-49.438144-23.297697c23.519117-10.928862 34.901547-20.587558 42.169846-35.326917 7.611142-15.072184 10.011052-32.528476 10.011052-78.444637V84.260572h53.20943zM196.608 0h53.277999v54.134883H196.608V0z"/>
    </g>
</svg>
