<svg xmlns="http://www.w3.org/2000/svg" width="300.851" height="300" preserveAspectRatio="xMidYMid" viewBox="0 0 300.851 300">
  <g fill="#2BA977">
    <path d="M142.552 50H175.3v150.092c-16.773 3.173-29.122 4.421-42.482 4.421C92.82 204.472 72 186.603 72 152.285c0-33.065 22.084-54.524 56.307-54.524 5.31 0 9.356.418 14.245 1.67zm1.148 76.48c-3.836-1.254-6.996-1.67-11.043-1.67-16.563 0-26.13 10.102-26.13 27.808 0 17.238 9.146 26.757 25.92 26.757 3.624 0 6.575-.204 11.253-.83z"/>
    <path d="M228.85 101.79v75.15c0 25.88-1.938 38.325-7.628 49.055-5.31 10.315-12.306 16.82-26.762 24.005l-30.387-14.32c14.456-6.718 21.452-12.654 25.92-21.713 4.677-9.264 6.152-19.994 6.152-48.217v-63.959h32.706zM192.846 50h32.748v33.274h-32.748z"/>
  </g>
</svg>
