<svg xmlns="http://www.w3.org/2000/svg" width="236.06009" height="250" viewBox="0 0 236.06009 250">
    <path fill="#0078d7" stroke-width="3.12548" d="M83.196519 143.73715c0 4.81325.718862 9.18893 2.187839 13.12704 1.562743 3.8756 3.594307 7.34489 6.188459 10.37661 2.594153 3.03172 5.625872 5.62587 9.188923 7.81371 3.43803 2.18784 7.18862 4.00062 11.18924 5.40708a68.854421 68.854421 0 0012.34566 3.188c4.28191.6876 8.43881 1.03141 12.65821 1.03141 5.31332 0 10.25159-.40631 14.93982-1.25019a108.07925 108.07925 0 0013.75213-3.50055c4.50069-1.46897 8.84512-3.21925 13.18954-5.21956l13.37707-6.62602v42.38157c-5.09454 2.50038-10.09531 4.59446-15.09608 6.40724l-15.09609 4.5007c-5.09454 1.25019-10.25159 2.18783-15.53366 2.75042-5.28207.56259-10.68916.87514-16.31503.87514a90.451519 90.451519 0 01-21.72212-2.59415c-6.96983-1.71902-13.502089-4.18815-19.628039-7.43866-6.125949-3.2505-11.720566-7.18861-16.815106-11.81433-5.125794-4.62572-9.470218-9.84527-13.127034-15.62742-3.656817-5.78215-6.469753-12.12688-8.501318-18.94044-1.969055-6.81355-2.96921-14.06468-2.96921-21.75337 0-8.22002 1.125174-16.03373 3.375523-23.50364 2.281604-7.50116 5.500853-14.31472 9.751511-20.56569 4.219404-6.250966 9.376454-11.814329 15.471148-16.658829C82.1026 81.25872 88.947411 77.289355 96.573593 74.22638c-4.156895 4.156894-7.407399 9.063905-9.689002 14.783541-2.344113 5.688382-3.813091 11.408019-4.469443 17.127659h71.198532c0-7.188618-.71886-13.439587-2.18784-18.815421-1.46897-5.375833-3.81309-9.845275-7.09485-13.377073-3.2505-3.563052-7.43865-6.250969-12.5957-8.00124-5.15705-1.781526-11.37676-2.687916-18.65914-2.687916a88.763757 88.763757 0 00-25.785246 3.844345c-8.595082 2.500388-16.752597 6.094695-24.503798 10.626647-7.751201 4.594462-14.877306 10.001551-21.378313 16.19001C34.907785 100.1679 29.438188 106.88769 25 114.17007c.937645-8.43881 2.812936-16.565067 5.407088-24.285013 2.594152-7.719947 6.032185-14.908561 10.157824-21.565843a96.733742 96.733742 0 0114.502248-17.94028c5.532107-5.375833 11.658056-10.00155 18.440358-13.752132 6.782301-3.750581 13.970915-6.782301 21.784626-8.813866C103.10585 26.03141 111.41964 25 120.171 25a87.201015 87.201015 0 0115.31487 1.375214 108.54807 108.54807 0 0114.90856 3.813091c9.6265 3.313013 18.22158 7.93873 25.78525 13.814641 7.56367 5.93842 13.9084 12.689466 19.06545 20.409413 5.15705 7.719946 9.06391 16.252519 11.75182 25.535207 2.68792 9.282689 4.06313 18.940434 4.06313 28.973244v24.81634z"/>
</svg>
