<svg xmlns="http://www.w3.org/2000/svg" width="236.06" height="250" viewBox="0 0 236.06 250">
  <path fill="#0078d7" d="M83.197 143.737c0 4.813.718 9.19 2.187 13.127 1.563 3.876 3.595 7.345 6.189 10.377 2.594 3.032 5.626 5.626 9.189 7.814 3.438 2.187 7.188 4 11.189 5.407a68.854 68.854 0 0 0 12.346 3.188 79.16 79.16 0 0 0 12.658 1.031c5.313 0 10.251-.406 14.94-1.25a108.08 108.08 0 0 0 13.752-3.5c4.5-1.47 8.845-3.22 13.19-5.22l13.376-6.626v42.381a150.41 150.41 0 0 1-15.096 6.407l-15.096 4.501c-5.094 1.25-10.251 2.188-15.533 2.75-5.282.563-10.69.876-16.315.876a90.452 90.452 0 0 1-21.723-2.594c-6.97-1.72-13.502-4.189-19.628-7.44a82.254 82.254 0 0 1-16.815-11.813c-5.126-4.626-9.47-9.846-13.127-15.628s-6.47-12.127-8.501-18.94c-1.97-6.814-2.97-14.065-2.97-21.754 0-8.22 1.126-16.033 3.376-23.503 2.282-7.501 5.501-14.315 9.752-20.566 4.22-6.25 9.376-11.814 15.47-16.659 6.096-4.844 12.94-8.814 20.567-11.877-4.157 4.157-7.408 9.064-9.69 14.784-2.344 5.688-3.813 11.408-4.469 17.128h71.199c0-7.189-.72-13.44-2.188-18.816-1.47-5.376-3.813-9.845-7.095-13.377-3.25-3.563-7.439-6.25-12.596-8.001-5.157-1.782-11.376-2.688-18.659-2.688A88.764 88.764 0 0 0 87.291 67.1c-8.595 2.5-16.753 6.095-24.504 10.627a118.73 118.73 0 0 0-21.378 16.19c-6.501 6.25-11.97 12.97-16.409 20.253.938-8.439 2.813-16.565 5.407-24.285A103.377 103.377 0 0 1 40.565 68.32a96.734 96.734 0 0 1 14.502-17.94c5.532-5.376 11.658-10.002 18.44-13.752 6.783-3.75 13.971-6.782 21.785-8.814A111.707 111.707 0 0 1 120.171 25a87.201 87.201 0 0 1 15.315 1.375 108.548 108.548 0 0 1 14.908 3.813c9.627 3.313 18.222 7.939 25.786 13.815 7.563 5.938 13.908 12.69 19.065 20.41 5.157 7.72 9.064 16.252 11.752 25.535 2.688 9.282 4.063 18.94 4.063 28.973v24.816z"/>
</svg>
