<svg xmlns="http://www.w3.org/2000/svg" width="300" height="297.27338" viewBox="0 0 300 297.27337">
    <g fill="#E04E39" fill-rule="evenodd">
        <path d="M246.603314 163.114642s-4.865208 3.77441-9.14783 3.352965c-4.282623-.421445-2.937719-9.99072-2.937719-9.99072s.92346-8.775968-1.59901-9.513497c-2.516274-.73133-5.62133 2.286958-5.62133 2.286958s-3.861178 4.282623-5.708098 9.742812l-.508213.167338s.588783-9.575473-.08057-11.75707c-.502015-1.090798-5.119315-1.00403-5.875436.92346-.756122 1.933688-4.449961 15.364141-4.704068 20.991669 0 0-7.22034 6.129542-13.511023 7.133572-6.296881 1.010228-7.809124-2.937718-7.809124-2.937718s17.124293-4.784637 16.53551-18.469197c-.582586-13.68456-13.808514-8.621025-15.302164-7.499238-1.450266 1.090798-9.17882 5.751482-11.434789 18.661327-.074372.43384-.210722 2.355132-.210722 2.355132s-6.631558 4.443763-10.325397 5.62133c0 0 10.325397-17.3784-2.262167-25.268094-3.540446-2.130465-6.626134-.170437-8.461433 1.63-1.12721 1.105518 15.260329-16.820605 11.479721-32.860297-1.797338-7.635588-5.615131-8.453686-9.116842-7.214143-5.317641 2.094829-7.3319 5.199885-7.3319 5.199885s-6.885663 9.99072-8.484674 24.852846c-1.592814 14.855929-3.941748 32.82311-3.941748 32.82311s-3.278593 3.191825-6.296881 3.359164c-3.024486.16114-1.679582-8.98669-1.679582-8.98669s2.348935-13.932469 2.187795-16.287601c-.173536-2.348935-.340875-3.607072-3.111254-4.443764-2.77038-.84289-5.794866 2.683612-5.794866 2.683612s-7.970264 12.085549-8.639618 13.932468l-.427642.76232-.415247-.508213s5.62133-16.45494.254106-16.702848c-5.373421-.254107-8.899922 5.875436-8.899922 5.875436s-6.129542 10.244826-6.383649 11.416195l-.415247-.502015s2.516273-11.91821 2.014258-14.862126c-.508213-2.937718-3.272395-2.348935-3.272395-2.348935s-3.5265-.421445-4.44996 1.84692c-.92346 2.268364-4.282623 17.29163-4.704068 22.076269 0 0-8.813154 6.29688-14.60802 6.37745-5.788668.086769-5.199884-3.669048-5.199884-3.669048s21.239577-7.269922 15.444711-21.623836c-2.603041-3.693839-5.62133-4.852812-9.903952-4.772242-4.282623.086768-9.594067 2.696007-13.0338 10.418363-1.648592 3.681444-2.243573 7.183154-2.584448 9.823382 0 0-3.712432.762319-5.72669-.917262-2.020456-1.679582-3.055475 0-3.055475 0s-3.458326 4.412774-.018593 5.751481c3.44593 1.344905 8.813154 1.970874 8.813154 1.970874.495817 2.348935 1.92749 6.346463 6.123344 9.525892 6.296881 4.784638 18.376232-.440038 18.376232-.440038l4.951976-2.776577s.167339 4.542926 3.780608 5.206082c3.607071.663156 5.119314-.012395 11.416195-15.289768 3.69384-7.809124 3.947946-7.38768 3.947946-7.38768.415247-.086767-2.435703 14.855929-1.344905 18.884445 1.090799 4.034714 5.875436 3.61327 5.875436 3.61327s2.603042.502014 4.704068-6.885665c2.094828-7.387679 6.129542-15.53148 6.129542-15.53148.495817 0-1.264334 15.277374 1.419277 20.14878 2.68981 4.871406 9.656044 1.636197 9.656044 1.636197s4.871406-2.454296 5.627527-3.210417c0 0 5.776273 4.920987 13.92627 4.028516 18.22129-3.588479 24.704102-8.435093 24.704102-8.435093s3.129847 7.933078 12.829275 8.670606c11.07532.836692 17.124293-6.129542 17.124293-6.129542s-.086768 4.530531 3.77441 6.129542c3.867375 1.592813 6.464218-7.375284 6.464218-7.375284l6.46422-17.812239c.588783 0 .92346 11.583534 7.307108 13.430453 6.377451 1.84692 14.68859-4.326006 14.68859-4.326006s2.014258-1.109392 1.679582-4.468554c-.340875-3.359163-3.359163-2.107224-3.359163-2.107224zm-168.14407-8.404105c2.262167 2.181597 1.425475 6.879466-2.857148 9.817184-4.276425 2.943916-6.210112 2.355133-6.210112 2.355133.254106-9.99072 6.805093-14.360111 9.06726-12.172317zm83.526636-34.502692c1.425475 7.555017-12.506994 30.052731-12.506994 30.052731.167339-5.038744 5.119315-22.076269 5.119315-22.076269s5.956006-15.53148 7.387679-7.976462zm-13.771328 57.335083s-1.090798-3.69384 2.014258-14.019237c3.111254-10.325397 10.412165-6.29688 10.412165-6.29688s5.038744 3.861177 1.090798 14.186574c-3.941748 10.325397-13.517221 6.129543-13.517221 6.129543zm42.479154-20.22935c3.439733-6.29688 6.129543-2.857147 6.129543-2.857147s2.937718 3.191824-.421445 7.976462c-3.359163 4.784638-8.22437 4.44996-8.22437 4.44996s-.92346-3.278592 2.516272-9.569275z"/>
        <path d="M225.053076 182.79162v-1.205457h.764644c.106135 0 .212271.011621.32383.023242.11156.015494.217695.044158.306787.082894.09529.038736.167339.09529.223118.167339.061977.072823.089867.173536.089867.29594 0 .278898-.08367.457082-.251008.529905-.168113.072824-.385807.106136-.647661.106136zm-.909515-1.913546v4.587086h.909515v-1.959254h.569415l1.11559 1.959254h.955223l-1.227923-2.003412a2.169201 2.169201 0 00.474125-.100713 1.107842 1.107842 0 00.37961-.21692.937405.937405 0 00.256431-.368765c.0674-.151069.09529-.329253.09529-.5423 0-.495817-.156492-.847538-.46328-1.048189-.31221-.206849-.75922-.307562-1.334058-.307562h-1.729938zm-1.456463 2.298579c0-.468703.077471-.89867.240161-1.289126.16114-.390456.37961-.725133.658508-1.010228a2.986525 2.986525 0 01.97614-.669353 3.046178 3.046178 0 011.211654-.240162c.423769 0 .825846.078247 1.199258.240162.37961.161915.703441.385033.982338.669353.278898.285095.497367.619772.664705 1.010228.161916.391231.245585.821198.245585 1.289126a3.385503 3.385503 0 01-.245585 1.295322c-.167338.390457-.385033.73598-.664705 1.021074a2.936169 2.936169 0 01-.982338.675552 2.992723 2.992723 0 01-1.199258.240161 3.047727 3.047727 0 01-1.211654-.240161 2.919125 2.919125 0 01-.97614-.675552 3.184077 3.184077 0 01-.658508-1.021074 3.383954 3.383954 0 01-.240161-1.295322zm-1.121787 0c0 .630617.116982 1.19461.345522 1.696625.234739.508212.5423.937404.92656 1.295323.39123.356368.836691.630617 1.344904.820422a4.50884 4.50884 0 001.591264.28432c.557794 0 1.0877-.094515 1.595912-.28432a4.094367 4.094367 0 001.344905-.821197 4.05718 4.05718 0 00.926558-1.293774c.228541-.50279.340875-1.066782.340875-1.696625 0-.619771-.112334-1.183764-.340875-1.685779a3.972737 3.972737 0 00-2.271463-2.109548 4.39883 4.39883 0 00-1.595912-.290518c-.553146 0-1.083051.09529-1.591264.290518a3.972737 3.972737 0 00-2.271464 2.109548c-.22854.502015-.345522 1.066008-.345522 1.685005z"/>
    </g>
</svg>
