<svg xmlns="http://www.w3.org/2000/svg" width="300" height="297.273" viewBox="0 0 300 297.273">
  <g fill="#E04E39" fill-rule="evenodd">
    <path d="M246.603 163.115s-4.865 3.774-9.148 3.353c-4.282-.422-2.937-9.991-2.937-9.991s.923-8.776-1.6-9.514c-2.516-.73-5.62 2.287-5.62 2.287s-3.862 4.283-5.709 9.743l-.508.167s.589-9.575-.08-11.757c-.502-1.09-5.12-1.004-5.876.924-.756 1.934-4.45 15.364-4.704 20.992 0 0-7.22 6.13-13.511 7.133-6.297 1.01-7.81-2.938-7.81-2.938s17.125-4.784 16.536-18.469c-.582-13.684-13.808-8.62-15.302-7.499-1.45 1.09-9.179 5.751-11.435 18.661-.074.434-.21 2.355-.21 2.355s-6.632 4.444-10.326 5.622c0 0 10.326-17.379-2.262-25.268-3.54-2.13-6.626-.17-8.461 1.63-1.127 1.105 15.26-16.82 11.48-32.86-1.798-7.636-5.616-8.454-9.117-7.215-5.318 2.095-7.332 5.2-7.332 5.2s-6.886 9.99-8.485 24.853c-1.593 14.856-3.942 32.823-3.942 32.823s-3.278 3.192-6.297 3.36c-3.024.16-1.68-8.987-1.68-8.987s2.35-13.933 2.189-16.288c-.174-2.349-.341-3.607-3.112-4.444-2.77-.843-5.795 2.684-5.795 2.684s-7.97 12.085-8.64 13.932l-.427.763-.415-.509s5.621-16.455.254-16.702c-5.373-.255-8.9 5.875-8.9 5.875s-6.13 10.245-6.383 11.416l-.416-.502s2.517-11.918 2.015-14.862c-.509-2.938-3.273-2.349-3.273-2.349s-3.526-.421-4.45 1.847c-.923 2.268-4.282 17.292-4.704 22.076 0 0-8.813 6.297-14.608 6.378-5.789.086-5.2-3.67-5.2-3.67s21.24-7.27 15.445-21.623c-2.603-3.694-5.621-4.853-9.904-4.772-4.283.086-9.594 2.696-13.034 10.418-1.648 3.681-2.243 7.183-2.584 9.823 0 0-3.713.763-5.727-.917-2.02-1.68-3.055 0-3.055 0s-3.459 4.413-.019 5.752c3.446 1.344 8.813 1.97 8.813 1.97.496 2.35 1.928 6.347 6.123 9.526 6.297 4.785 18.377-.44 18.377-.44l4.952-2.776s.167 4.543 3.78 5.206c3.607.663 5.12-.013 11.416-15.29 3.694-7.81 3.948-7.388 3.948-7.388.416-.086-2.435 14.856-1.344 18.885 1.09 4.034 5.875 3.613 5.875 3.613s2.603.502 4.704-6.886c2.095-7.387 6.13-15.531 6.13-15.531.495 0-1.265 15.277 1.419 20.149 2.69 4.871 9.656 1.636 9.656 1.636s4.871-2.454 5.627-3.21c0 0 5.777 4.92 13.927 4.028 18.221-3.588 24.704-8.435 24.704-8.435s3.13 7.933 12.83 8.67c11.074.837 17.123-6.129 17.123-6.129s-.086 4.53 3.775 6.13c3.867 1.592 6.464-7.376 6.464-7.376l6.464-17.812c.589 0 .924 11.584 7.307 13.43 6.378 1.847 14.689-4.326 14.689-4.326s2.014-1.109 1.68-4.468c-.341-3.36-3.36-2.107-3.36-2.107zM78.46 154.71c2.262 2.181 1.426 6.879-2.857 9.817-4.276 2.944-6.21 2.355-6.21 2.355.254-9.99 6.805-14.36 9.067-12.172zm83.527-34.503c1.425 7.555-12.507 30.053-12.507 30.053.167-5.04 5.12-22.077 5.12-22.077s5.955-15.531 7.387-7.976zm-13.771 57.335s-1.091-3.694 2.014-14.02c3.111-10.325 10.412-6.296 10.412-6.296s5.039 3.861 1.09 14.186c-3.941 10.326-13.516 6.13-13.516 6.13zm42.479-20.23c3.44-6.296 6.13-2.857 6.13-2.857s2.937 3.192-.422 7.977c-3.36 4.785-8.225 4.45-8.225 4.45s-.923-3.279 2.517-9.57z"/>
    <path d="M225.053 182.792v-1.206h.765c.106 0 .212.012.324.023.111.016.217.045.306.083a.524.524 0 0 1 .223.168c.062.072.09.173.09.296 0 .278-.083.457-.25.53-.169.072-.386.106-.648.106zm-.91-1.914v4.587h.91v-1.96h.57l1.115 1.96h.955l-1.228-2.003a2.17 2.17 0 0 0 .475-.101 1.108 1.108 0 0 0 .38-.217.937.937 0 0 0 .256-.369 1.32 1.32 0 0 0 .095-.542c0-.496-.157-.847-.463-1.048-.313-.207-.76-.308-1.335-.308h-1.73zm-1.456 2.299c0-.47.078-.899.24-1.29.161-.39.38-.725.659-1.01a2.987 2.987 0 0 1 .976-.67 3.046 3.046 0 0 1 1.212-.24 3.032 3.032 0 0 1 2.181.91c.28.285.498.62.665 1.01.162.392.245.822.245 1.29a3.386 3.386 0 0 1-.245 1.295 3.29 3.29 0 0 1-.665 1.021 2.936 2.936 0 0 1-.982.676 2.993 2.993 0 0 1-1.2.24 3.048 3.048 0 0 1-1.211-.24 2.92 2.92 0 0 1-.976-.676 3.184 3.184 0 0 1-.659-1.021 3.384 3.384 0 0 1-.24-1.295zm-1.122 0c0 .63.117 1.194.346 1.696.235.508.542.938.926 1.296.392.356.837.63 1.345.82a4.509 4.509 0 0 0 1.592.284c.557 0 1.087-.094 1.595-.284a4.094 4.094 0 0 0 1.345-.821 4.057 4.057 0 0 0 .927-1.294c.228-.503.34-1.067.34-1.697 0-.62-.112-1.183-.34-1.685a3.973 3.973 0 0 0-2.272-2.11 4.399 4.399 0 0 0-1.595-.29c-.554 0-1.083.095-1.592.29a3.973 3.973 0 0 0-2.271 2.11 4.03 4.03 0 0 0-.346 1.685z"/>
  </g>
</svg>
