<svg xmlns="http://www.w3.org/2000/svg" width="259" height="100" viewBox="0 0 259 100">
    <g fill="#E04E39" fill-rule="evenodd">
        <path d="M253.817404 68.61447s-6.28 4.872-11.808 4.328c-5.528-.544-3.792-12.896-3.792-12.896s1.192-11.328-2.064-12.28c-3.248-.944-7.256 2.952-7.256 2.952s-4.984 5.528-7.368 12.576l-.656.216s.76-12.36-.104-15.176c-.648-1.408-6.608-1.296-7.584 1.192-.976 2.496-5.744 19.832-6.072 27.096 0 0-9.32 7.912-17.44 9.208-8.128 1.304-10.08-3.792-10.08-3.792s22.104-6.176 21.344-23.84c-.752-17.664-17.824-11.128-19.752-9.68-1.872 1.408-11.848 7.424-14.76 24.088-.096.56-.272 3.04-.272 3.04s-8.56 5.736-13.328 7.256c0 0 13.328-22.432-2.92-32.616-4.569753-2.750773-8.553008-.219987-10.922459 2.103887-1.45506 1.42707 19.698459-21.711887 14.818459-42.415887-2.32-9.856-7.248-10.912-11.768-9.312-6.864 2.704-9.464 6.712-9.464 6.712s-8.888 12.896-10.952 32.08c-2.056 19.176-5.088 42.368-5.088 42.368s-4.232 4.12-8.128 4.336c-3.904.208-2.168-11.6-2.168-11.6s3.032-17.984 2.824-21.024c-.224-3.032-.44-4.656-4.016-5.736-3.576-1.088-7.48 3.464-7.48 3.464s-10.288 15.6-11.152 17.984l-.552.984-.536-.656s7.256-21.24.328-21.56c-6.936-.328-11.488 7.584-11.488 7.584s-7.912 13.224-8.24 14.736l-.536-.648s3.248-15.384 2.6-19.184c-.656-3.792-4.224-3.032-4.224-3.032s-4.552-.544-5.744 2.384c-1.192 2.928-5.528 22.32-6.072 28.496 0 0-11.376 8.128-18.856 8.232-7.472.112-6.712-4.736-6.712-4.736s27.416-9.384 19.936-27.912c-3.36-4.768-7.256-6.264-12.784-6.16-5.528.112-12.384 3.48-16.824 13.448-2.128 4.752-2.896 9.272-3.336 12.68 0 0-4.792.984-7.392-1.184-2.608-2.168-3.944 0-3.944 0s-4.464 5.696-.024 7.424c4.448 1.736 11.376 2.544 11.376 2.544.64 3.032 2.488 8.192 7.904 12.296 8.128 6.176 23.72-.568 23.72-.568l6.392-3.584s.216 5.864 4.88 6.72c4.656.856 6.608-.016 14.736-19.736 4.768-10.08 5.096-9.536 5.096-9.536.536-.112-3.144 19.176-1.736 24.376 1.408 5.208 7.584 4.664 7.584 4.664s3.36.648 6.072-8.888c2.704-9.536 7.912-20.048 7.912-20.048.64 0-1.632 19.72 1.832 26.008 3.472 6.288 12.464 2.112 12.464 2.112s6.288-3.168 7.264-4.144c0 0 7.456 6.352 17.976 5.2 23.52-4.632 31.888-10.888 31.888-10.888s4.04 10.24 16.56 11.192c14.296 1.08 22.104-7.912 22.104-7.912s-.112 5.848 4.872 7.912c4.992 2.056 8.344-9.52 8.344-9.52l8.344-22.992c.76 0 1.192 14.952 9.432 17.336 8.232 2.384 18.96-5.584 18.96-5.584s2.6-1.432 2.168-5.768c-.44-4.336-4.336-2.72-4.336-2.72zm-217.04-10.848c2.92 2.816 1.84 8.88-3.688 12.672-5.52 3.8-8.016 3.04-8.016 3.04.328-12.896 8.784-18.536 11.704-15.712zm107.816-44.536c1.84 9.752-16.144 38.792-16.144 38.792.216-6.504 6.608-28.496 6.608-28.496s7.688-20.048 9.536-10.296zm-17.776 74.008s-1.408-4.768 2.6-18.096c4.016-13.328 13.44-8.128 13.44-8.128s6.504 4.984 1.408 18.312c-5.088 13.328-17.448 7.912-17.448 7.912zm54.832-26.112c4.44-8.128 7.912-3.688 7.912-3.688s3.792 4.12-.544 10.296c-4.336 6.176-10.616 5.744-10.616 5.744s-1.192-4.232 3.248-12.352z"/>
        <path d="M226.000283 94.013338v-1.556062h.986947c.136876 0 .273752.014408.417831.028816.14408.021612.280956.057631.39622.10806.122468.050427.21612.122467.288159.21612.079244.093651.115264.223323.115264.38181 0 .3602-.10806.590728-.324179.68438-.21612.093652-.497076.136876-.835663.136876h-1.044579zm-1.17425-2.47097v5.921681h1.17425v-2.5286h.734807l1.440798 2.5286h1.231883l-1.584878-2.586233c.21612-.021611.417831-.064835.612339-.129671.187304-.064836.352996-.158488.489871-.280956.14408-.122468.25214-.280956.331384-.475463.086448-.194508.122468-.425036.122468-.698787 0-.641156-.201712-1.095007-.597931-1.35435-.403424-.266548-.979743-.39622-1.721754-.39622h-2.233237zm-1.880242 2.968045c0-.605135.100856-1.159842.309772-1.664122.208916-.50428.489871-.936519.850071-1.303922.352995-.367404.778031-.655563 1.260698-.864479.489871-.208916 1.008559-.309772 1.563266-.309772.547503 0 1.066191.100856 1.548858.309772.489871.208916.907703.497075 1.267902.864479.3602.367403.641155.799643.857275 1.303922.208916.50428.316976 1.058987.316976 1.664122 0 .605135-.10806 1.159842-.316976 1.671326-.21612.50428-.497075.950927-.857275 1.31833-.360199.374608-.778031.662767-1.267902.871683-.482667.208916-1.001355.309771-1.548858.309771-.554707 0-1.073395-.100855-1.563266-.309771-.482667-.208916-.907703-.497075-1.260698-.871683-.3602-.367403-.641155-.81405-.850071-1.31833-.208916-.511484-.309772-1.06619-.309772-1.671326zm-1.448002 0c0 .81405.151284 1.541654.446648 2.190013.302567.655563.698787 1.21027 1.195862 1.671326.504279.461055 1.080599.81405 1.736162 1.058987.655563.244935 1.339942.367403 2.053137.367403.720399 0 1.404778-.122468 2.060341-.367403.655563-.244936 1.231883-.597932 1.736162-1.058987.497075-.461056.893295-1.015763 1.195862-1.671326.295364-.64836.439444-1.375962.439444-2.190013 0-.799643-.14408-1.527246-.439444-2.175605-.302567-.655563-.698787-1.21027-1.195862-1.664122-.504279-.461055-1.080599-.81405-1.736162-1.058987-.655563-.25214-1.339942-.374607-2.060341-.374607-.713195 0-1.397574.122468-2.053137.374607-.655563.244936-1.231883.597932-1.736162 1.058987-.497075.453851-.893295 1.008559-1.195862 1.664122-.295364.648359-.446648 1.375962-.446648 2.175605z"/>
    </g>
</svg>
