<svg xmlns="http://www.w3.org/2000/svg" width="250" height="249.599" viewBox="0 0 250 249.599">
  <radialGradient id="firefox_a" cx="-362.061" cy="337.807" r=".456" gradientTransform="matrix(497.0947 0 0 -497.0947 180182.46 167984.99)" gradientUnits="userSpaceOnUse">
    <stop offset="0" stop-color="#fff44f"/>
    <stop offset=".29" stop-color="#ff980e"/>
    <stop offset=".43" stop-color="#ff5d36"/>
    <stop offset=".53" stop-color="#ff3750"/>
    <stop offset=".75" stop-color="#f5156c"/>
    <stop offset=".76" stop-color="#f1136e"/>
    <stop offset=".88" stop-color="#da057a"/>
    <stop offset=".95" stop-color="#d2007f"/>
  </radialGradient>
  <radialGradient id="firefox_b" cx="-362.386" cy="337.788" r=".27" gradientTransform="matrix(497.0947 0 0 -497.0947 180181.59 167984.99)" gradientUnits="userSpaceOnUse">
    <stop offset="0" stop-color="#b5007f"/>
    <stop offset="1" stop-color="#f5156c" stop-opacity="0"/>
  </radialGradient>
  <radialGradient id="firefox_c" cx="-362.022" cy="337.833" r=".536" gradientTransform="matrix(497.0947 0 0 -497.0947 180182.56 167984.99)" gradientUnits="userSpaceOnUse">
    <stop offset="0" stop-color="#fd0" stop-opacity=".6"/>
    <stop offset=".09" stop-color="#ffd702" stop-opacity=".58"/>
    <stop offset=".2" stop-color="#fec606" stop-opacity=".52"/>
    <stop offset=".32" stop-color="#fda90e" stop-opacity=".43"/>
    <stop offset=".45" stop-color="#fc8119" stop-opacity=".3"/>
    <stop offset=".57" stop-color="#fa4e27" stop-opacity=".14"/>
    <stop offset=".66" stop-color="#f92433" stop-opacity="0"/>
  </radialGradient>
  <radialGradient id="firefox_d" cx="-362.207" cy="337.66" r=".691" gradientTransform="matrix(497.0947 0 0 -497.0947 180182.07 167984.99)" gradientUnits="userSpaceOnUse">
    <stop offset=".15" stop-color="#960e18"/>
    <stop offset=".18" stop-color="#b11927" stop-opacity=".74"/>
    <stop offset=".22" stop-color="#db293d" stop-opacity=".34"/>
    <stop offset=".26" stop-color="#f5334b" stop-opacity=".09"/>
    <stop offset=".27" stop-color="#ff3750" stop-opacity="0"/>
  </radialGradient>
  <radialGradient id="firefox_e" cx="-362.259" cy="337.669" r=".691" gradientTransform="matrix(497.0947 0 0 -497.0947 180181.94 167984.99)" gradientUnits="userSpaceOnUse">
    <stop offset=".11" stop-color="#960e18"/>
    <stop offset=".15" stop-color="#b11927" stop-opacity=".74"/>
    <stop offset=".21" stop-color="#db293d" stop-opacity=".34"/>
    <stop offset=".26" stop-color="#f5334b" stop-opacity=".09"/>
    <stop offset=".28" stop-color="#ff3750" stop-opacity="0"/>
  </radialGradient>
  <linearGradient id="firefox_f" x1="-362.233" x2="-362.069" y1="336.537" y2="336.349" gradientTransform="matrix(359.21565 0 0 -237.17621 130270.16 79872.68)" gradientUnits="userSpaceOnUse">
    <stop offset="0" stop-color="#ffbc04"/>
    <stop offset=".17" stop-color="#ffab02" stop-opacity=".62"/>
    <stop offset=".34" stop-color="#ff9b01" stop-opacity=".29"/>
    <stop offset=".45" stop-color="#ff9200" stop-opacity=".08"/>
    <stop offset=".51" stop-color="#ff8e00" stop-opacity="0"/>
  </linearGradient>
  <radialGradient id="firefox_g" cx="-362.038" cy="337.694" r=".478" gradientTransform="matrix(445.64946 0 0 -445.64946 161540.52 150548.35)" gradientUnits="userSpaceOnUse">
    <stop offset="0" stop-color="#ff980e"/>
    <stop offset=".3" stop-color="#ff7139"/>
    <stop offset=".48" stop-color="#ff5b51"/>
    <stop offset=".63" stop-color="#ff4f5e"/>
    <stop offset=".74" stop-color="#ff4055"/>
    <stop offset=".84" stop-color="#ff3750"/>
  </radialGradient>
  <radialGradient id="firefox_h" cx="-362.038" cy="337.694" r=".478" gradientTransform="matrix(445.64946 0 0 -445.64946 161540.52 150548.35)" gradientUnits="userSpaceOnUse">
    <stop offset=".08" stop-color="#ffde08"/>
    <stop offset=".15" stop-color="#ffdb08" stop-opacity=".97"/>
    <stop offset=".25" stop-color="#ffd209" stop-opacity=".88"/>
    <stop offset=".37" stop-color="#ffc40b" stop-opacity=".73"/>
    <stop offset=".51" stop-color="#ffb00d" stop-opacity=".53"/>
    <stop offset=".67" stop-color="#ff970f" stop-opacity=".28"/>
    <stop offset=".82" stop-color="#ff7b12" stop-opacity="0"/>
  </radialGradient>
  <radialGradient id="firefox_i" cx="-361.424" cy="338.456" r=".235" gradientTransform="scale(445.64946 -445.64946) rotate(-75.548 -399.093 -64.32)" gradientUnits="userSpaceOnUse">
    <stop offset=".36" stop-color="#ff3750"/>
    <stop offset=".44" stop-color="#ff4d47" stop-opacity=".63"/>
    <stop offset=".55" stop-color="#ff673d" stop-opacity=".18"/>
    <stop offset=".59" stop-color="#ff7139" stop-opacity="0"/>
  </radialGradient>
  <radialGradient id="firefox_j" cx="-362.187" cy="337.527" r=".234" gradientTransform="matrix(445.64946 0 0 -445.64946 161540.47 150548.35)" gradientUnits="userSpaceOnUse">
    <stop offset=".22" stop-color="#ff3750" stop-opacity=".8"/>
    <stop offset=".27" stop-color="#ff444b" stop-opacity=".63"/>
    <stop offset=".41" stop-color="#ff643e" stop-opacity=".18"/>
    <stop offset=".47" stop-color="#ff7139" stop-opacity="0"/>
  </radialGradient>
  <radialGradient id="firefox_k" cx="-361.875" cy="337.398" r="1.045" gradientTransform="matrix(344.83042 0 0 -344.83042 125026.23 116376.3)" gradientUnits="userSpaceOnUse">
    <stop offset=".05" stop-color="#fff44f"/>
    <stop offset=".46" stop-color="#ff980e"/>
    <stop offset=".52" stop-color="#ff8424"/>
    <stop offset=".59" stop-color="#ff7634"/>
    <stop offset=".64" stop-color="#ff7139"/>
  </radialGradient>
  <linearGradient id="firefox_l" x1="-362.126" x2="-362.33" y1="337.786" y2="337.471" gradientTransform="matrix(498.11356 0 0 -443.22463 180551.49 149776.92)" gradientUnits="userSpaceOnUse">
    <stop offset="0" stop-color="#fff44f" stop-opacity=".8"/>
    <stop offset=".09" stop-color="#fff44f" stop-opacity=".7"/>
    <stop offset=".75" stop-color="#fff44f" stop-opacity="0"/>
  </linearGradient>
  <linearGradient id="firefox_m" x1="-362.155" x2="-362.155" y1="336.813" y2="337.212" gradientTransform="matrix(340.30509 0 0 -311.27095 123383.37 104990.75)" gradientUnits="userSpaceOnUse">
    <stop offset="0" stop-color="#3a8ee6"/>
    <stop offset=".24" stop-color="#5c79f0"/>
    <stop offset=".63" stop-color="#9059ff"/>
    <stop offset="1" stop-color="#c139e6"/>
  </linearGradient>
  <linearGradient id="firefox_n" x1="-362.293" x2="-361.997" y1="337.179" y2="336.908" gradientTransform="matrix(340.30509 0 0 -311.27095 123383.37 104990.75)" gradientUnits="userSpaceOnUse">
    <stop offset=".81" stop-color="#9059ff" stop-opacity="0"/>
    <stop offset="1" stop-color="#6e008b" stop-opacity=".5"/>
  </linearGradient>
  <path fill="url(#firefox_a)" d="M204.988 64.251c-18.122-23.745-46.24-38.43-75.922-39.054-23.12-.313-39.368 6.561-48.428 12.185 12.185-6.874 29.681-10.935 44.99-10.935 39.68.624 82.172 27.494 88.42 75.922 7.186 55.614-31.556 102.167-86.232 102.167-59.988 0-96.543-53.115-87.17-100.605.625-2.5.312-4.687.937-6.874.313-8.435 3.75-21.558 10.623-34.993-6.874 3.437-15.622 14.997-19.996 25.308-6.249 14.997-8.436 33.118-6.561 50.302 0 1.25.312 2.5.312 3.75 6.874 40.929 38.43 73.11 79.36 81.233 40.616 8.123 82.17-9.686 104.353-44.991 22.183-35.305 19.996-80.296-4.686-113.415z"/>
  <path fill="url(#firefox_b)" d="M204.988 64.251c-18.122-23.745-46.24-38.43-75.922-39.054-23.12-.313-39.368 6.561-48.428 12.185 12.185-6.874 29.681-10.935 44.99-10.935 39.68.624 82.172 27.494 88.42 75.922 7.186 55.614-31.556 102.167-86.232 102.167-59.988 0-96.543-53.115-87.17-100.605.625-2.5.312-4.687.937-6.874.313-8.435 3.75-21.558 10.623-34.993-6.874 3.437-15.622 14.997-19.996 25.308-6.249 14.997-8.436 33.118-6.561 50.302 0 1.25.312 2.5.312 3.75 6.874 40.929 38.43 73.11 79.36 81.233 40.616 8.123 82.17-9.686 104.353-44.991 22.183-35.305 19.996-80.296-4.686-113.415z"/>
  <path fill="url(#firefox_c)" d="M204.988 64.251c-18.122-23.745-46.24-38.43-75.922-39.054-23.12-.313-39.368 6.561-48.428 12.185 12.185-6.874 29.681-10.935 44.99-10.935 39.68.624 82.172 27.494 88.42 75.922 7.186 55.614-31.556 102.167-86.232 102.167-59.988 0-96.543-53.115-87.17-100.605.625-2.5.312-4.687.937-6.874.313-8.435 3.75-21.558 10.623-34.993-6.874 3.437-15.622 14.997-19.996 25.308-6.249 14.997-8.436 33.118-6.561 50.302 0 1.25.312 2.5.312 3.75 6.874 40.929 38.43 73.11 79.36 81.233 40.616 8.123 82.17-9.686 104.353-44.991 22.183-35.305 19.996-80.296-4.686-113.415z"/>
  <path fill="url(#firefox_d)" d="M204.988 64.251c-18.122-23.745-46.24-38.43-75.922-39.054-23.12-.313-39.368 6.561-48.428 12.185 12.185-6.874 29.681-10.935 44.99-10.935 39.68.624 82.172 27.494 88.42 75.922 7.186 55.614-31.556 102.167-86.232 102.167-59.988 0-96.543-53.115-87.17-100.605.625-2.5.312-4.687.937-6.874.313-8.435 3.75-21.558 10.623-34.993-6.874 3.437-15.622 14.997-19.996 25.308-6.249 14.997-8.436 33.118-6.561 50.302 0 1.25.312 2.5.312 3.75 6.874 40.929 38.43 73.11 79.36 81.233 40.616 8.123 82.17-9.686 104.353-44.991 22.183-35.305 19.996-80.296-4.686-113.415z"/>
  <path fill="url(#firefox_e)" d="M204.988 64.251c-18.122-23.745-46.24-38.43-75.922-39.054-23.12-.313-39.368 6.561-48.428 12.185 12.185-6.874 29.681-10.935 44.99-10.935 39.68.624 82.172 27.494 88.42 75.922 7.186 55.614-31.556 102.167-86.232 102.167-59.988 0-96.543-53.115-87.17-100.605.625-2.5.312-4.687.937-6.874.313-8.435 3.75-21.558 10.623-34.993-6.874 3.437-15.622 14.997-19.996 25.308-6.249 14.997-8.436 33.118-6.561 50.302 0 1.25.312 2.5.312 3.75 6.874 40.929 38.43 73.11 79.36 81.233 40.616 8.123 82.17-9.686 104.353-44.991 22.183-35.305 19.996-80.296-4.686-113.415z"/>
  <path fill="url(#firefox_f)" d="M214.048 102.369c.938 5.936.938 12.185.625 18.121 3.437-.625 6.561-.937 9.998-1.25-.937-19.683-8.123-38.742-19.996-54.676-17.809-24.058-45.928-38.742-75.61-39.367-23.12-.313-39.367 6.561-48.427 12.185 12.185-6.874 29.681-10.935 44.99-10.935 39.68.312 82.172 27.182 88.42 75.922z"/>
  <path fill="url(#firefox_g)" d="M216.548 99.557c-5.624-50.615-50.927-73.423-90.92-73.11-15.309 0-32.805 3.749-44.99 10.935-3.125 1.874-6.249 4.062-8.748 6.873.312-.312 1.25-.937 2.812-2.187h.312c5.936-4.061 12.497-6.873 19.371-9.06 10.623-3.125 21.87-4.062 32.806-3.75 44.99 2.5 76.86 39.992 78.11 79.672.936 32.806-26.246 59.05-57.177 60.613-22.495 1.25-44.053-9.686-54.364-31.556-2.5-5-4.062-10.31-4.999-15.935-4.999-33.43 17.497-61.862 37.805-69.048-10.935-9.686-38.742-8.749-59.363 6.248-14.997 10.936-24.682 27.495-27.807 47.49-2.5 14.998 0 30.62 5.936 44.68 13.123 30.618 42.18 51.239 75.298 53.426 2.5.313 4.999.313 7.498.313 65.924 0 94.669-49.99 88.42-105.604z"/>
  <path fill="url(#firefox_h)" d="M216.548 99.557c-5.624-50.615-50.927-73.423-90.92-73.11-15.309 0-32.805 3.749-44.99 10.935-3.125 1.874-6.249 4.062-8.748 6.873.312-.312 1.25-.937 2.812-2.187h.312c5.936-4.061 12.497-6.873 19.371-9.06 10.623-3.125 21.87-4.062 32.806-3.75 44.99 2.5 76.86 39.992 78.11 79.672.936 32.806-26.246 59.05-57.177 60.613-22.495 1.25-44.053-9.686-54.364-31.556-2.5-5-4.062-10.31-4.999-15.935-4.999-33.43 17.497-61.862 37.805-69.048-10.935-9.686-38.742-8.749-59.363 6.248-14.997 10.936-24.682 27.495-27.807 47.49-2.5 14.998 0 30.62 5.936 44.68 13.123 30.618 42.18 51.239 75.298 53.426 2.5.313 4.999.313 7.498.313 65.924 0 94.669-49.99 88.42-105.604z"/>
  <path fill="url(#firefox_i)" d="M216.548 99.557c-5.624-50.615-50.927-73.423-90.92-73.11-15.309 0-32.805 3.749-44.99 10.935-3.125 1.874-6.249 4.062-8.748 6.873.312-.312 1.25-.937 2.812-2.187h.312c5.936-4.061 12.497-6.873 19.371-9.06 10.623-3.125 21.87-4.062 32.806-3.75 44.99 2.5 76.86 39.992 78.11 79.672.936 32.806-26.246 59.05-57.177 60.613-22.495 1.25-44.053-9.686-54.364-31.556-2.5-5-4.062-10.31-4.999-15.935-4.999-33.43 17.497-61.862 37.805-69.048-10.935-9.686-38.742-8.749-59.363 6.248-14.997 10.936-24.682 27.495-27.807 47.49-2.5 14.998 0 30.62 5.936 44.68 13.123 30.618 42.18 51.239 75.298 53.426 2.5.313 4.999.313 7.498.313 65.924 0 94.669-49.99 88.42-105.604z" opacity=".53"/>
  <path fill="url(#firefox_j)" d="M216.548 99.557c-5.624-50.615-50.927-73.423-90.92-73.11-15.309 0-32.805 3.749-44.99 10.935-3.125 1.874-6.249 4.062-8.748 6.873.312-.312 1.25-.937 2.812-2.187h.312c5.936-4.061 12.497-6.873 19.371-9.06 10.623-3.125 21.87-4.062 32.806-3.75 44.99 2.5 76.86 39.992 78.11 79.672.936 32.806-26.246 59.05-57.177 60.613-22.495 1.25-44.053-9.686-54.364-31.556-2.5-5-4.062-10.31-4.999-15.935-4.999-33.43 17.497-61.862 37.805-69.048-10.935-9.686-38.742-8.749-59.363 6.248-14.997 10.936-24.682 27.495-27.807 47.49-2.5 14.998 0 30.62 5.936 44.68 13.123 30.618 42.18 51.239 75.298 53.426 2.5.313 4.999.313 7.498.313 65.924 0 94.669-49.99 88.42-105.604z" opacity=".53"/>
  <path fill="url(#firefox_k)" d="M148.124 169.23c42.492-2.5 60.925-37.805 62.175-62.8 1.875-39.054-21.558-81.233-83.108-77.484-10.935-.312-22.496.625-32.806 3.75-6.874 1.874-13.435 4.998-19.371 9.06h-.312c-.938.625-1.875 1.25-2.812 2.187 1.562-1.25 22.807-13.747 52.489-9.686 35.305 4.687 67.799 32.181 67.799 68.112 0 27.807-21.558 49.052-46.866 47.49-37.492-2.187-46.865-40.617-27.494-57.176-5.312-1.25-15.31.938-22.183 11.248-6.249 9.373-5.937 23.433-1.875 33.43 10.31 22.184 31.556 33.431 54.364 31.87z"/>
  <path fill="url(#firefox_l)" d="M204.988 64.251c-2.812-3.436-5.624-6.873-8.749-9.998-2.499-2.499-4.999-4.999-7.81-7.186 1.562 1.563 3.124 2.812 4.686 4.375 5.312 5.936 9.686 12.81 12.185 20.308 5.312 15.934 5 35.618-4.999 50.927-11.872 18.434-31.244 27.495-52.177 27.182h-2.812c-37.492-2.187-46.865-40.617-27.494-57.176-5.312-1.25-15.31.938-22.183 11.248-6.249 9.373-5.937 23.433-1.875 33.43-2.5-4.998-4.062-10.31-4.999-15.934-4.999-32.805 17.497-61.237 37.805-68.423-10.935-9.686-38.742-9.061-59.363 6.248-12.185 8.749-20.62 21.559-25.307 36.556.625-8.436 3.749-20.934 10.31-34.056-6.874 3.437-15.622 14.997-19.996 25.307-6.249 14.997-8.436 33.119-6.561 50.303 0 1.25.312 2.5.312 3.749 6.874 40.93 38.43 73.11 79.36 81.234 40.929 8.123 82.17-9.374 104.353-44.679 22.183-35.305 19.996-80.296-4.686-113.415z"/>
  <path fill="url(#firefox_m)" d="M204.988 71.75a54.332 54.332 0 0 0-12.185-20.308c-6.25-6.874-14.372-12.186-22.808-16.247-7.186-3.437-14.685-6.249-22.496-7.811-13.747-3.124-27.807-3.124-41.554-.313-14.06 3.125-26.557 9.061-34.68 16.872 6.56-3.437 14.684-6.561 20.62-8.123 27.183-6.874 57.489.625 77.797 20.308 4.062 4.062 7.811 8.436 10.936 13.122 12.185 19.996 10.935 44.679 1.562 59.363-7.186 10.936-22.183 21.246-36.555 20.934 21.87 1.25 41.866-8.124 54.364-27.182 9.998-14.997 10.31-34.68 4.999-50.615z"/>
  <path fill="url(#firefox_n)" d="M204.988 71.75a54.332 54.332 0 0 0-12.185-20.308c-6.25-6.874-14.372-12.186-22.808-16.247-7.186-3.437-14.685-6.249-22.496-7.811-13.747-3.124-27.807-3.124-41.554-.313-14.06 3.125-26.557 9.061-34.68 16.872 6.56-3.437 14.684-6.561 20.62-8.123 27.183-6.874 57.489.625 77.797 20.308 4.062 4.062 7.811 8.436 10.936 13.122 12.185 19.996 10.935 44.679 1.562 59.363-7.186 10.936-22.183 21.246-36.555 20.934 21.87 1.25 41.866-8.124 54.364-27.182 9.998-14.997 10.31-34.68 4.999-50.615z"/>
</svg>
