<svg xmlns="http://www.w3.org/2000/svg" width="250" height="249.5992" viewBox="0 0 250 249.5992">
    <radialGradient id="firefox_a" cx="-362.061" cy="337.80701" r=".456" gradientTransform="matrix(497.0947 0 0 -497.0947 180182.46 167984.99)" gradientUnits="userSpaceOnUse">
        <stop offset="0" stop-color="#fff44f"/>
        <stop offset=".29" stop-color="#ff980e"/>
        <stop offset=".43" stop-color="#ff5d36"/>
        <stop offset=".53" stop-color="#ff3750"/>
        <stop offset=".75" stop-color="#f5156c"/>
        <stop offset=".76" stop-color="#f1136e"/>
        <stop offset=".88" stop-color="#da057a"/>
        <stop offset=".95" stop-color="#d2007f"/>
    </radialGradient>
    <radialGradient id="firefox_b" cx="-362.38599" cy="337.78799" r=".27" gradientTransform="matrix(497.0947 0 0 -497.0947 180181.59 167984.99)" gradientUnits="userSpaceOnUse">
        <stop offset="0" stop-color="#b5007f"/>
        <stop offset="1" stop-color="#f5156c" stop-opacity="0"/>
    </radialGradient>
    <radialGradient id="firefox_c" cx="-362.022" cy="337.83301" r=".536" gradientTransform="matrix(497.0947 0 0 -497.0947 180182.56 167984.99)" gradientUnits="userSpaceOnUse">
        <stop offset="0" stop-color="#fd0" stop-opacity=".6"/>
        <stop offset=".09" stop-color="#ffd702" stop-opacity=".58"/>
        <stop offset=".2" stop-color="#fec606" stop-opacity=".52"/>
        <stop offset=".32" stop-color="#fda90e" stop-opacity=".43"/>
        <stop offset=".45" stop-color="#fc8119" stop-opacity=".3"/>
        <stop offset=".57" stop-color="#fa4e27" stop-opacity=".14"/>
        <stop offset=".66" stop-color="#f92433" stop-opacity="0"/>
    </radialGradient>
    <radialGradient id="firefox_d" cx="-362.207" cy="337.66" r=".691" gradientTransform="matrix(497.0947 0 0 -497.0947 180182.07 167984.99)" gradientUnits="userSpaceOnUse">
        <stop offset=".15" stop-color="#960e18"/>
        <stop offset=".18" stop-color="#b11927" stop-opacity=".74"/>
        <stop offset=".22" stop-color="#db293d" stop-opacity=".34"/>
        <stop offset=".26" stop-color="#f5334b" stop-opacity=".09"/>
        <stop offset=".27" stop-color="#ff3750" stop-opacity="0"/>
    </radialGradient>
    <radialGradient id="firefox_e" cx="-362.259" cy="337.66901" r=".691" gradientTransform="matrix(497.0947 0 0 -497.0947 180181.94 167984.99)" gradientUnits="userSpaceOnUse">
        <stop offset=".11" stop-color="#960e18"/>
        <stop offset=".15" stop-color="#b11927" stop-opacity=".74"/>
        <stop offset=".21" stop-color="#db293d" stop-opacity=".34"/>
        <stop offset=".26" stop-color="#f5334b" stop-opacity=".09"/>
        <stop offset=".28" stop-color="#ff3750" stop-opacity="0"/>
    </radialGradient>
    <linearGradient id="firefox_f" x1="-362.233" x2="-362.069" y1="336.53699" y2="336.349" gradientTransform="matrix(359.21565 0 0 -237.17621 130270.16 79872.68)" gradientUnits="userSpaceOnUse">
        <stop offset="0" stop-color="#ffbc04"/>
        <stop offset=".17" stop-color="#ffab02" stop-opacity=".62"/>
        <stop offset=".34" stop-color="#ff9b01" stop-opacity=".29"/>
        <stop offset=".45" stop-color="#ff9200" stop-opacity=".08"/>
        <stop offset=".51" stop-color="#ff8e00" stop-opacity="0"/>
    </linearGradient>
    <radialGradient id="firefox_g" cx="-362.03799" cy="337.694" r=".478" gradientTransform="matrix(445.64946 0 0 -445.64946 161540.52 150548.35)" gradientUnits="userSpaceOnUse">
        <stop offset="0" stop-color="#ff980e"/>
        <stop offset=".3" stop-color="#ff7139"/>
        <stop offset=".48" stop-color="#ff5b51"/>
        <stop offset=".63" stop-color="#ff4f5e"/>
        <stop offset=".74" stop-color="#ff4055"/>
        <stop offset=".84" stop-color="#ff3750"/>
    </radialGradient>
    <radialGradient id="firefox_h" cx="-362.03799" cy="337.694" r=".478" gradientTransform="matrix(445.64946 0 0 -445.64946 161540.52 150548.35)" gradientUnits="userSpaceOnUse">
        <stop offset=".08" stop-color="#ffde08"/>
        <stop offset=".15" stop-color="#ffdb08" stop-opacity=".97"/>
        <stop offset=".25" stop-color="#ffd209" stop-opacity=".88"/>
        <stop offset=".37" stop-color="#ffc40b" stop-opacity=".73"/>
        <stop offset=".51" stop-color="#ffb00d" stop-opacity=".53"/>
        <stop offset=".67" stop-color="#ff970f" stop-opacity=".28"/>
        <stop offset=".82" stop-color="#ff7b12" stop-opacity="0"/>
    </radialGradient>
    <radialGradient id="firefox_i" cx="-361.42401" cy="338.45599" r=".235" gradientTransform="scale(445.64946 -445.64946) rotate(-75.548 -399.092942 -64.32015)" gradientUnits="userSpaceOnUse">
        <stop offset=".36" stop-color="#ff3750"/>
        <stop offset=".44" stop-color="#ff4d47" stop-opacity=".63"/>
        <stop offset=".55" stop-color="#ff673d" stop-opacity=".18"/>
        <stop offset=".59" stop-color="#ff7139" stop-opacity="0"/>
    </radialGradient>
    <radialGradient id="firefox_j" cx="-362.18701" cy="337.52701" r=".234" gradientTransform="matrix(445.64946 0 0 -445.64946 161540.47 150548.35)" gradientUnits="userSpaceOnUse">
        <stop offset=".22" stop-color="#ff3750" stop-opacity=".8"/>
        <stop offset=".27" stop-color="#ff444b" stop-opacity=".63"/>
        <stop offset=".41" stop-color="#ff643e" stop-opacity=".18"/>
        <stop offset=".47" stop-color="#ff7139" stop-opacity="0"/>
    </radialGradient>
    <radialGradient id="firefox_k" cx="-361.875" cy="337.39801" r="1.045" gradientTransform="matrix(344.83042 0 0 -344.83042 125026.23 116376.3)" gradientUnits="userSpaceOnUse">
        <stop offset=".05" stop-color="#fff44f"/>
        <stop offset=".46" stop-color="#ff980e"/>
        <stop offset=".52" stop-color="#ff8424"/>
        <stop offset=".59" stop-color="#ff7634"/>
        <stop offset=".64" stop-color="#ff7139"/>
    </radialGradient>
    <linearGradient id="firefox_l" x1="-362.12601" x2="-362.32999" y1="337.78601" y2="337.47101" gradientTransform="matrix(498.11356 0 0 -443.22463 180551.49 149776.92)" gradientUnits="userSpaceOnUse">
        <stop offset="0" stop-color="#fff44f" stop-opacity=".8"/>
        <stop offset=".09" stop-color="#fff44f" stop-opacity=".7"/>
        <stop offset=".75" stop-color="#fff44f" stop-opacity="0"/>
    </linearGradient>
    <linearGradient id="firefox_m" x1="-362.155" x2="-362.155" y1="336.81299" y2="337.21201" gradientTransform="matrix(340.30509 0 0 -311.27095 123383.37 104990.75)" gradientUnits="userSpaceOnUse">
        <stop offset="0" stop-color="#3a8ee6"/>
        <stop offset=".24" stop-color="#5c79f0"/>
        <stop offset=".63" stop-color="#9059ff"/>
        <stop offset="1" stop-color="#c139e6"/>
    </linearGradient>
    <linearGradient id="firefox_n" x1="-362.293" x2="-361.99701" y1="337.17899" y2="336.90799" gradientTransform="matrix(340.30509 0 0 -311.27095 123383.37 104990.75)" gradientUnits="userSpaceOnUse">
        <stop offset=".81" stop-color="#9059ff" stop-opacity="0"/>
        <stop offset="1" stop-color="#6e008b" stop-opacity=".5"/>
    </linearGradient>
    <path fill="url(#firefox_a)" stroke-width="3.12437" d="M204.98773 64.251435c-18.12135-23.745209-46.24068-38.429746-75.92219-39.05462-23.12033-.312437-39.367056 6.561176-48.427727 12.185042 12.185041-6.873614 29.681507-10.935294 44.990917-10.935294 39.6795.624874 82.17093 27.494453 88.41967 75.922187 7.18605 55.61377-31.55614 102.16689-86.23261 102.16689-59.987893 0-96.543017-53.11429-87.169908-100.60471.624874-2.4995.312437-4.686555.937311-6.873613.312437-8.435798 3.749243-21.558151 10.622856-34.99294-6.873613 3.436806-15.621848 14.996974-19.995965 25.307394-6.248739 14.996979-8.435798 33.118319-6.561176 50.302349 0 1.24975.312437 2.4995.312437 3.74925 6.873613 40.92924 38.429746 73.11025 79.358985 81.23361 40.61681 8.12336 82.17092-9.68555 104.35395-44.99093 22.18303-35.30537 19.99597-80.296296-4.68655-113.414615z"/>
    <path fill="url(#firefox_b)" stroke-width="3.12437" d="M204.98773 64.251435c-18.12135-23.745209-46.24068-38.429746-75.92219-39.05462-23.12033-.312437-39.367056 6.561176-48.427727 12.185042 12.185041-6.873614 29.681507-10.935294 44.990917-10.935294 39.6795.624874 82.17093 27.494453 88.41967 75.922187 7.18605 55.61377-31.55614 102.16689-86.23261 102.16689-59.987893 0-96.543017-53.11429-87.169908-100.60471.624874-2.4995.312437-4.686555.937311-6.873613.312437-8.435798 3.749243-21.558151 10.622856-34.99294-6.873613 3.436806-15.621848 14.996974-19.995965 25.307394-6.248739 14.996979-8.435798 33.118319-6.561176 50.302349 0 1.24975.312437 2.4995.312437 3.74925 6.873613 40.92924 38.429746 73.11025 79.358985 81.23361 40.61681 8.12336 82.17092-9.68555 104.35395-44.99093 22.18303-35.30537 19.99597-80.296296-4.68655-113.414615z"/>
    <path fill="url(#firefox_c)" stroke-width="3.12437" d="M204.98773 64.251435c-18.12135-23.745209-46.24068-38.429746-75.92219-39.05462-23.12033-.312437-39.367056 6.561176-48.427727 12.185042 12.185041-6.873614 29.681507-10.935294 44.990917-10.935294 39.6795.624874 82.17093 27.494453 88.41967 75.922187 7.18605 55.61377-31.55614 102.16689-86.23261 102.16689-59.987893 0-96.543017-53.11429-87.169908-100.60471.624874-2.4995.312437-4.686555.937311-6.873613.312437-8.435798 3.749243-21.558151 10.622856-34.99294-6.873613 3.436806-15.621848 14.996974-19.995965 25.307394-6.248739 14.996979-8.435798 33.118319-6.561176 50.302349 0 1.24975.312437 2.4995.312437 3.74925 6.873613 40.92924 38.429746 73.11025 79.358985 81.23361 40.61681 8.12336 82.17092-9.68555 104.35395-44.99093 22.18303-35.30537 19.99597-80.296296-4.68655-113.414615z"/>
    <path fill="url(#firefox_d)" stroke-width="3.12437" d="M204.98773 64.251435c-18.12135-23.745209-46.24068-38.429746-75.92219-39.05462-23.12033-.312437-39.367056 6.561176-48.427727 12.185042 12.185041-6.873614 29.681507-10.935294 44.990917-10.935294 39.6795.624874 82.17093 27.494453 88.41967 75.922187 7.18605 55.61377-31.55614 102.16689-86.23261 102.16689-59.987893 0-96.543017-53.11429-87.169908-100.60471.624874-2.4995.312437-4.686555.937311-6.873613.312437-8.435798 3.749243-21.558151 10.622856-34.99294-6.873613 3.436806-15.621848 14.996974-19.995965 25.307394-6.248739 14.996979-8.435798 33.118319-6.561176 50.302349 0 1.24975.312437 2.4995.312437 3.74925 6.873613 40.92924 38.429746 73.11025 79.358985 81.23361 40.61681 8.12336 82.17092-9.68555 104.35395-44.99093 22.18303-35.30537 19.99597-80.296296-4.68655-113.414615z"/>
    <path fill="url(#firefox_e)" stroke-width="3.12437" d="M204.98773 64.251435c-18.12135-23.745209-46.24068-38.429746-75.92219-39.05462-23.12033-.312437-39.367056 6.561176-48.427727 12.185042 12.185041-6.873614 29.681507-10.935294 44.990917-10.935294 39.6795.624874 82.17093 27.494453 88.41967 75.922187 7.18605 55.61377-31.55614 102.16689-86.23261 102.16689-59.987893 0-96.543017-53.11429-87.169908-100.60471.624874-2.4995.312437-4.686555.937311-6.873613.312437-8.435798 3.749243-21.558151 10.622856-34.99294-6.873613 3.436806-15.621848 14.996974-19.995965 25.307394-6.248739 14.996979-8.435798 33.118319-6.561176 50.302349 0 1.24975.312437 2.4995.312437 3.74925 6.873613 40.92924 38.429746 73.11025 79.358985 81.23361 40.61681 8.12336 82.17092-9.68555 104.35395-44.99093 22.18303-35.30537 19.99597-80.296296-4.68655-113.414615z"/>
    <path fill="url(#firefox_f)" stroke-width="3.12437" d="M214.0484 102.36875c.93731 5.9363.93731 12.18504.62487 18.12134 3.43681-.62488 6.56118-.93731 9.99799-1.24975-.93731-19.683528-8.12336-38.742183-19.99597-54.676468-17.80891-24.057646-45.92824-38.742183-75.60975-39.367057-23.12033-.312437-39.367056 6.561176-48.427727 12.185042 12.185041-6.873614 29.681507-10.935294 44.990917-10.935294 39.6795.312437 82.17093 27.182016 88.41967 75.922187z"/>
    <path fill="url(#firefox_g)" stroke-width="3.12437" d="M216.5479 99.556812c-5.62387-50.614788-50.92723-73.422686-90.91917-73.110249-15.30941 0-32.805876 3.749243-44.990917 10.935294-3.12437 1.874621-6.248739 4.06168-8.748235 6.873613.312437-.312437 1.249748-.937311 2.811933-2.187059h.312437c5.936302-4.061681 12.497478-6.873613 19.371091-9.060672 10.622861-3.12437 21.870591-4.06168 32.805881-3.749243 44.99092 2.499495 76.8595 39.991931 78.10924 79.671424.93732 32.80588-26.2447 59.05059-57.17596 60.61277-22.49547 1.24975-44.05362-9.68554-54.364035-31.55613-2.499496-4.99899-4.061681-10.31042-4.998991-15.93429-4.998992-33.430751 17.496466-61.862515 37.804876-69.048565-10.9353-9.685546-38.742187-8.748235-59.363026 6.248739-14.996975 10.935294-24.68252 27.494453-27.80689 47.490416-2.499496 14.99698 0 30.61882 5.936302 44.67849 13.122353 30.61882 42.17899 51.23966 75.297304 53.42672 2.4995.31244 4.99899.31244 7.49849.31244 65.9242 0 94.6684-49.98992 88.41967-105.603698z"/>
    <path fill="url(#firefox_h)" stroke-width="3.12437" d="M216.5479 99.556812c-5.62387-50.614788-50.92723-73.422686-90.91917-73.110249-15.30941 0-32.805876 3.749243-44.990917 10.935294-3.12437 1.874621-6.248739 4.06168-8.748235 6.873613.312437-.312437 1.249748-.937311 2.811933-2.187059h.312437c5.936302-4.061681 12.497478-6.873613 19.371091-9.060672 10.622861-3.12437 21.870591-4.06168 32.805881-3.749243 44.99092 2.499495 76.8595 39.991931 78.10924 79.671424.93732 32.80588-26.2447 59.05059-57.17596 60.61277-22.49547 1.24975-44.05362-9.68554-54.364035-31.55613-2.499496-4.99899-4.061681-10.31042-4.998991-15.93429-4.998992-33.430751 17.496466-61.862515 37.804876-69.048565-10.9353-9.685546-38.742187-8.748235-59.363026 6.248739-14.996975 10.935294-24.68252 27.494453-27.80689 47.490416-2.499496 14.99698 0 30.61882 5.936302 44.67849 13.122353 30.61882 42.17899 51.23966 75.297304 53.42672 2.4995.31244 4.99899.31244 7.49849.31244 65.9242 0 94.6684-49.98992 88.41967-105.603698z"/>
    <path fill="url(#firefox_i)" stroke-width="3.12437" d="M216.5479 99.556812c-5.62387-50.614788-50.92723-73.422686-90.91917-73.110249-15.30941 0-32.805876 3.749243-44.990917 10.935294-3.12437 1.874621-6.248739 4.06168-8.748235 6.873613.312437-.312437 1.249748-.937311 2.811933-2.187059h.312437c5.936302-4.061681 12.497478-6.873613 19.371091-9.060672 10.622861-3.12437 21.870591-4.06168 32.805881-3.749243 44.99092 2.499495 76.8595 39.991931 78.10924 79.671424.93732 32.80588-26.2447 59.05059-57.17596 60.61277-22.49547 1.24975-44.05362-9.68554-54.364035-31.55613-2.499496-4.99899-4.061681-10.31042-4.998991-15.93429-4.998992-33.430751 17.496466-61.862515 37.804876-69.048565-10.9353-9.685546-38.742187-8.748235-59.363026 6.248739-14.996975 10.935294-24.68252 27.494453-27.80689 47.490416-2.499496 14.99698 0 30.61882 5.936302 44.67849 13.122353 30.61882 42.17899 51.23966 75.297304 53.42672 2.4995.31244 4.99899.31244 7.49849.31244 65.9242 0 94.6684-49.98992 88.41967-105.603698z" opacity=".53"/>
    <path fill="url(#firefox_j)" stroke-width="3.12437" d="M216.5479 99.556812c-5.62387-50.614788-50.92723-73.422686-90.91917-73.110249-15.30941 0-32.805876 3.749243-44.990917 10.935294-3.12437 1.874621-6.248739 4.06168-8.748235 6.873613.312437-.312437 1.249748-.937311 2.811933-2.187059h.312437c5.936302-4.061681 12.497478-6.873613 19.371091-9.060672 10.622861-3.12437 21.870591-4.06168 32.805881-3.749243 44.99092 2.499495 76.8595 39.991931 78.10924 79.671424.93732 32.80588-26.2447 59.05059-57.17596 60.61277-22.49547 1.24975-44.05362-9.68554-54.364035-31.55613-2.499496-4.99899-4.061681-10.31042-4.998991-15.93429-4.998992-33.430751 17.496466-61.862515 37.804876-69.048565-10.9353-9.685546-38.742187-8.748235-59.363026 6.248739-14.996975 10.935294-24.68252 27.494453-27.80689 47.490416-2.499496 14.99698 0 30.61882 5.936302 44.67849 13.122353 30.61882 42.17899 51.23966 75.297304 53.42672 2.4995.31244 4.99899.31244 7.49849.31244 65.9242 0 94.6684-49.98992 88.41967-105.603698z" opacity=".53"/>
    <path fill="url(#firefox_k)" stroke-width="3.12437" d="M148.1242 169.23025c42.49142-2.49949 60.92521-37.80487 62.17496-62.79982 1.87462-39.054625-21.55816-81.233615-83.10824-77.484371-10.93529-.312437-22.49546.624873-32.805881 3.749243-6.873613 1.874622-13.434789 4.998991-19.371091 9.060672h-.312437c-.937311.624874-1.874622 1.249748-2.811933 2.187059 1.562185-1.249748 22.807898-13.747227 52.489412-9.685546 35.30537 4.686554 67.79882 32.181007 67.79882 68.111263 0 27.80688-21.55815 49.0526-46.86555 47.49041-37.49243-2.18706-46.865541-40.6168-27.49445-57.175961-5.31143-1.249748-15.30941.937311-22.183023 11.247731-6.248739 9.37311-5.936303 23.43277-1.874622 33.43075 10.310415 22.18303 31.556135 33.43076 54.364035 31.86857z"/>
    <path fill="url(#firefox_l)" stroke-width="3.12437" d="M204.98773 64.251435c-2.81193-3.436806-5.62387-6.873613-8.74824-9.997983-2.49949-2.499495-4.99899-4.998991-7.81093-7.18605 1.56219 1.562185 3.12437 2.811933 4.68656 4.374118 5.31143 5.936302 9.68555 12.809915 12.18504 20.308402 5.31143 15.934286 4.999 35.617818-4.99899 50.927228-11.87261 18.43378-31.2437 27.49445-52.17697 27.18201h-2.81194c-37.49243-2.18706-46.865541-40.6168-27.49445-57.175961-5.31143-1.249748-15.30941.937311-22.183023 11.247731-6.248739 9.37311-5.936303 23.43277-1.874622 33.43075-2.499496-4.99899-4.061681-10.31041-4.998991-15.93428-4.998992-32.805881 17.496466-61.237645 37.804876-68.423695-10.9353-9.685546-38.742187-9.060672-59.363026 6.248739-12.185042 8.748235-20.62084 21.55815-25.307394 36.555125.624874-8.435798 3.749243-20.933277 10.310419-34.055629-6.873613 3.436806-15.621848 14.996974-19.995965 25.307394-6.248739 14.996976-8.435798 33.118316-6.561176 50.302346 0 1.24975.312437 2.4995.312437 3.74925 6.873613 40.92924 38.429746 73.11025 79.358985 81.23361 40.92924 8.12336 82.17092-9.37311 104.35395-44.67849 22.18303-35.30537 19.99597-80.296296-4.68655-113.414615z"/>
    <path fill="url(#firefox_m)" stroke-width="3.12437" d="M204.98773 71.749922c-2.4995-7.498487-6.56118-14.3721-12.18505-20.308402-6.24874-6.873613-14.3721-12.185042-22.8079-16.246722-7.18605-3.436807-14.68453-6.248739-22.49546-7.810924-13.74722-3.12437-27.80689-3.12437-41.55411-.312437-14.059667 3.124369-26.557145 9.060672-34.680506 16.871596 6.561176-3.436807 14.684537-6.561176 20.620839-8.123361 27.182017-6.873613 57.488397.624874 77.796807 20.308402 4.06168 4.061681 7.81092 8.435798 10.93529 13.122353 12.18504 19.995966 10.93529 44.678483 1.56219 59.363023-7.18606 10.93529-22.18303 21.24571-36.55513 20.93328 21.87059 1.24974 41.86655-8.12336 54.36404-27.18202 9.99798-14.99697 10.31042-34.680502 4.99899-50.614788z"/>
    <path fill="url(#firefox_n)" stroke-width="3.12437" d="M204.98773 71.749922c-2.4995-7.498487-6.56118-14.3721-12.18505-20.308402-6.24874-6.873613-14.3721-12.185042-22.8079-16.246722-7.18605-3.436807-14.68453-6.248739-22.49546-7.810924-13.74722-3.12437-27.80689-3.12437-41.55411-.312437-14.059667 3.124369-26.557145 9.060672-34.680506 16.871596 6.561176-3.436807 14.684537-6.561176 20.620839-8.123361 27.182017-6.873613 57.488397.624874 77.796807 20.308402 4.06168 4.061681 7.81092 8.435798 10.93529 13.122353 12.18504 19.995966 10.93529 44.678483 1.56219 59.363023-7.18606 10.93529-22.18303 21.24571-36.55513 20.93328 21.87059 1.24974 41.86655-8.12336 54.36404-27.18202 9.99798-14.99697 10.31042-34.680502 4.99899-50.614788z"/>
</svg>
