<svg xmlns="http://www.w3.org/2000/svg" width="300.356" height="300" viewBox="0 0 150.178 150">
  <path fill="#e44d26" d="M39.025 115.006 31 25h88.178l-8.032 89.993L75.033 125z"/>
  <path fill="#f16529" d="m104.268 109.262 6.866-76.902H75.089v84.993z"/>
  <path fill="#ebebeb" d="M75.051 43.397H47.407l2.978 33.383h24.704V65.742H60.482l-1.01-11.304H75.09v-11.04zm.038 50.977-.047.013-12.294-3.32-.781-8.803H50.879l1.547 17.332 22.613 6.25.05-.015z"/>
  <path fill="#fff" d="M75.051 76.78h13.595l-1.25 14.313-12.313 3.322v11.484l22.632-6.272 3.03-33.891H75.09zm27.389-30.42.262-2.963H75.045v11.038h26.663l.22-2.481z"/>
</svg>
