<svg xmlns="http://www.w3.org/2000/svg" width="300.35553" height="300" viewBox="0 0 150.17777 150">
    <path fill="#e44d26" stroke-width="3.1251" d="M39.025251 115.00594L31 25h88.17776l-8.03151 89.99344L75.032626 125z"/>
    <path fill="#f16529" stroke-width="3.1251" d="M104.26792 109.26201l6.86583-76.902405H75.088878v84.993285z"/>
    <path fill="#ebebeb" stroke-width="3.1251" d="M75.051377 43.39745H47.406763l2.978218 33.382293h24.703897V65.741898H60.482171L59.472765 54.43842h15.616113V43.39745zm.0375 50.976593l-.04688.0125-12.294135-3.318853-.781274-8.8034H50.878746l1.546924 17.331791 22.613206 6.250199.05-.0156z"/>
    <path fill="#fff" stroke-width="3.1251" d="M75.051377 76.779743h13.594175L87.395513 91.09269l-12.312885 3.321979V105.8994l22.631957-6.272068 3.031345-33.891684H75.088878zm27.388353-30.4197l.26251-2.962593H75.045127v11.037845h26.663333l.21876-2.481328z"/>
</svg>
