<svg xmlns="http://www.w3.org/2000/svg" width="320" height="320.77777" viewBox="0 0 10.666667 10.692592">
    <path fill="#CB3837" stroke-width=".37037" d="M2 4.1h6.666666v2.222222H5.333333v.37037H3.851852v-.37037H2zm.37037 1.851852h.740741V4.84074h.37037v1.11111h.37037V4.47037h-1.48148zM4.222222 4.47037v1.851852h.74074v-.37037h.740742V4.47037zm.74074.37037h.370371v.740741h-.37037zm1.111112-.37037v1.481482h.74074V4.84074h.370371v1.11111h.37037V4.84074h.370371v1.11111h.37037V4.47037z"/>
    <path fill="#FFF" stroke-width=".37037" d="M2.37037 5.951852h.740741V4.84074h.37037v1.11111h.37037V4.47037h-1.48148zM4.222222 4.47037v1.851852h.74074v-.37037h.740742V4.47037zm1.111111 1.111111h-.37037v-.74074h.37037zm.740741-1.11111v1.48148h.74074v-1.11111h.370371v1.11111h.37037v-1.11111h.370371v1.11111h.37037v-1.48148z"/>
</svg>
