<svg xmlns="http://www.w3.org/2000/svg" width="320" height="320.778" viewBox="0 0 10.667 10.693">
  <path fill="#CB3837" d="M2 4.1h6.667v2.222H5.333v.37H3.852v-.37H2zm.37 1.852h.741V4.84h.37v1.11h.37V4.47h-1.48zM4.222 4.47v1.852h.741v-.37h.74V4.47zm.741.37h.37v.741h-.37zm1.111-.37v1.482h.74V4.84h.371v1.11h.37V4.84h.37v1.11h.371V4.47z"/>
  <path fill="#FFF" d="M2.37 5.952h.741V4.84h.37v1.11h.37V4.47h-1.48zM4.222 4.47v1.852h.741v-.37h.74V4.47zm1.111 1.111h-.37v-.74h.37zm.741-1.11v1.48h.74v-1.11h.371v1.11h.37v-1.11h.37v1.11h.371v-1.48z"/>
</svg>
