<svg xmlns="http://www.w3.org/2000/svg" width="290" height="290.75" aria-labelledby="rails-logo-title" viewBox="0 0 290 290.75001">
    <path fill="#cb2026" stroke-width="3.125" d="M148.125 93.25c-25.75 2.28125-57.3125 25.65625-75.84375 56.53125S51.25 206.75 51.25 206.75h69.59375S107.5 146 151.625 121.375c9.59375-4.65625 40.25-22.125 90.25 14.90625 1.59375-1.3125 3.125-2.375 3.125-2.375s-45.84375-45.75-96.875-40.65625zm48.5625-1a43.125 43.125 0 00-8.5625-3.125l-.34375 5.8125c2.90625.96875 5.71875 2.03125 8.5625 3.125zm-9.09375 30.15625a49.1875 49.1875 0 018.71875 1.0625L196.65625 118a62.5 62.5 0 00-8.71875-1.15625zM155.3125 89.375h.875L154.375 84a70.34375 70.34375 0 00-8.46875.53125l1.6875 5.1875a74.4375 74.4375 0 017.71875-.34375zm4.21875 32.4375l2.03125 6.09375a55.78125 55.78125 0 017.6875-3.125l-1.9375-5.8125a63.96875 63.96875 0 00-7.75 2.875zM119.5 98.5l-3.96875-5.9375c-2.21875 1.15625-4.5 2.375-6.875 3.78125l4.0625 6.25c2.3125-1.5 4.5-2.8125 6.78125-4.09375zm18.0625 39.6875l4.21875 6.25a48.96875 48.96875 0 015.1875-6.25l-3.96875-6a48.78125 48.78125 0 00-5.40625 6.125zm-10.15625 18.75a83.84375 83.84375 0 00-2.65625 9.6875l7.15625 5.65625a70.40625 70.40625 0 011.84375-10.3125zM86.1875 124.84375l-6.25-5.46875c-2.28125 2.21875-4.5 4.40625-6.53125 6.625l6.78125 5.8125a89.28125 89.28125 0 016-6.96875zM59.5625 164.125l-10.15625-3.59375C47.71875 164.34375 45.875 168.75 45 171.125l10.15625 3.71875c1.125-3 2.96875-7.34375 4.40625-10.71875zm63.9375 25a89.59375 89.59375 0 001.0625 11.125l10.59375 3.78125a116.5625 116.5625 0 01-2.125-11.46875z"/>
</svg>
