<svg xmlns="http://www.w3.org/2000/svg" aria-labelledby="rails-logo-title" viewBox="0 0 64 39.28">
    <path fill="#cb2026" d="M33 2.96c-8.24.73-18.34 8.21-24.27 18.09S2 39.28 2 39.28h22.27S20 19.84 34.12 11.96C37.19 10.47 47 4.88 63 16.73c.51-.42 1-.76 1-.76S49.33 1.33 33 2.96zm15.54-.32a13.8 13.8 0 00-2.74-1l-.11 1.86c.93.31 1.83.65 2.74 1zm-2.91 9.65a15.74 15.74 0 012.79.34l.11-1.75a20 20 0 00-2.79-.37zM35.3 1.72h.28L35 0a22.51 22.51 0 00-2.71.17l.54 1.66a23.82 23.82 0 012.47-.11zm1.35 10.38l.65 1.95a17.85 17.85 0 012.46-1l-.62-1.86a20.47 20.47 0 00-2.48.92zM23.84 4.64l-1.27-1.9c-.71.37-1.44.76-2.2 1.21l1.3 2c.74-.48 1.44-.9 2.17-1.31zm5.78 12.7l1.35 2a15.67 15.67 0 011.66-2l-1.27-1.92a15.61 15.61 0 00-1.73 1.96zm-3.25 6a26.83 26.83 0 00-.85 3.1l2.29 1.81a22.53 22.53 0 01.59-3.3zM13.18 13.07l-2-1.75c-.73.71-1.44 1.41-2.09 2.12l2.17 1.86a28.57 28.57 0 011.92-2.23zM4.66 25.64l-3.25-1.15C.87 25.71.28 27.12 0 27.88l3.25 1.19c.36-.96.95-2.35 1.41-3.43zm20.46 8a28.67 28.67 0 00.34 3.56l3.39 1.21a37.3 37.3 0 01-.68-3.67z"/>
</svg>
