<svg xmlns="http://www.w3.org/2000/svg" width="290" height="290.75" aria-labelledby="rails-logo-title" viewBox="0 0 290 290.75">
  <path fill="#cb2026" d="M148.125 93.25c-25.75 2.281-57.313 25.656-75.844 56.531S51.25 206.75 51.25 206.75h69.594S107.5 146 151.625 121.375c9.594-4.656 40.25-22.125 90.25 14.906 1.594-1.312 3.125-2.375 3.125-2.375s-45.844-45.75-96.875-40.656zm48.563-1a43.125 43.125 0 0 0-8.563-3.125l-.344 5.813c2.906.968 5.719 2.03 8.563 3.124zm-9.094 30.156a49.188 49.188 0 0 1 8.719 1.063l.343-5.469a62.5 62.5 0 0 0-8.719-1.156zm-32.281-33.031h.875L154.375 84a70.344 70.344 0 0 0-8.469.531l1.688 5.188a74.438 74.438 0 0 1 7.719-.344zm4.218 32.438 2.031 6.093a55.781 55.781 0 0 1 7.688-3.125l-1.938-5.812a63.969 63.969 0 0 0-7.75 2.875zM119.5 98.5l-3.969-5.938c-2.219 1.157-4.5 2.376-6.875 3.782l4.063 6.25c2.312-1.5 4.5-2.813 6.781-4.094zm18.063 39.688 4.218 6.25a48.969 48.969 0 0 1 5.188-6.25l-3.969-6a48.781 48.781 0 0 0-5.406 6.125zm-10.157 18.75a83.844 83.844 0 0 0-2.656 9.687l7.156 5.656a70.406 70.406 0 0 1 1.844-10.312zm-41.219-32.094-6.25-5.469c-2.28 2.219-4.5 4.406-6.53 6.625l6.78 5.813a89.281 89.281 0 0 1 6-6.97zm-26.624 39.281-10.157-3.594c-1.687 3.813-3.531 8.219-4.406 10.594l10.156 3.719c1.125-3 2.969-7.344 4.407-10.719zm63.937 25a89.594 89.594 0 0 0 1.063 11.125l10.593 3.781a116.563 116.563 0 0 1-2.125-11.469z"/>
</svg>
