<svg xmlns="http://www.w3.org/2000/svg" width="271.77286" height="270" viewBox="0 0 271.77286 270">
    <path fill="#FFF" stroke-width=".228389" d="M135.88643 35l88.38643 49.99429v100.01142L135.88643 235 47.5 185.00571V84.99429z"/>
    <path fill="#8ed6fb" stroke-width=".228389" d="M208.4912 181.55704l-69.68139 39.41989v-30.69544l43.41669-23.88946zm4.77333-4.31655V94.81501l-25.48818 14.73107v52.98618zm-150.25694 4.31655l69.6814 39.41989v-30.69544l-43.43954-23.88946zm-4.77332-4.31655V94.81501l25.48818 14.73107v52.98618zm2.99189-87.76978l71.46283-40.4248V78.7136l-45.79194 25.19128-.36542.20555zm149.04648 0l-71.46283-40.4248V78.7136l45.79193 25.16844.36543.20555z"/>
    <path fill="#1c78c0" stroke-width=".228389" d="M132.68899 183.29279l-42.84573-23.56971v-46.65982l42.84573 24.7345zm6.12082 0l42.84572-23.54687v-46.68266l-42.84572 24.7345zm-3.06041-47.27646zm-43.0056-28.34304l43.0056-23.63823 43.00559 23.63823-43.00559 24.82585z"/>
</svg>
