<svg xmlns="http://www.w3.org/2000/svg" width="271.773" height="270" viewBox="0 0 271.773 270">
  <path fill="#FFF" d="m135.886 35 88.387 49.994v100.012L135.886 235 47.5 185.006V84.994z"/>
  <path fill="#8ed6fb" d="m208.491 181.557-69.681 39.42V190.28l43.416-23.889zm4.774-4.317V94.815l-25.489 14.731v52.986zm-150.257 4.317 69.681 39.42V190.28l-43.44-23.889zm-4.774-4.317V94.815l25.488 14.731v52.986zm2.992-87.77 71.463-40.424v29.668l-45.792 25.19-.365.206zm149.047 0L138.81 49.047v29.668l45.792 25.168.365.206z"/>
  <path fill="#1c78c0" d="m132.689 183.293-42.846-23.57v-46.66l42.846 24.735zm6.12 0 42.847-23.547v-46.683l-42.846 24.735zm-3.06-47.277zm-43.005-28.343 43.005-23.638 43.006 23.638-43.006 24.826z"/>
</svg>
