<svg xmlns="http://www.w3.org/2000/svg" width="250" height="250" viewBox="0 0 250 250">
  <path fill="#2c8ebb" d="M125 25c55.212 0 100 44.788 100 100s-44.788 100-100 100S25 180.212 25 125 69.788 25 125 25z"/>
  <path fill="#fff" d="M193.03 155.309c-.694-5.483-5.327-9.267-11.273-9.19-8.88.117-16.332 4.711-21.274 7.761-1.93 1.197-3.591 2.085-5.02 2.742.31-4.48.039-10.348-2.278-16.796-2.818-7.722-6.602-12.47-9.305-15.212 3.128-4.556 7.413-11.197 9.421-21.467 1.738-8.765 1.197-22.394-2.78-30.039-.81-1.544-2.162-2.664-3.86-3.127-.696-.193-2.008-.58-4.595.154-3.9-8.07-5.251-8.919-6.294-9.614-2.162-1.39-4.71-1.699-7.104-.81-3.205 1.158-5.946 4.247-8.533 9.73-.386.81-.733 1.582-1.042 2.354-4.904.348-12.626 2.124-19.15 9.19-.812.888-2.395 1.544-4.055 2.162h.039c-3.398 1.197-4.942 3.977-6.834 8.996-2.626 7.027.077 13.938 2.741 18.417-3.63 3.243-8.456 8.417-11.004 14.479-3.166 7.49-3.513 14.826-3.398 18.803-2.702 2.857-6.872 8.224-7.335 14.247-.618 8.417 2.432 14.131 3.783 16.216.386.618.811 1.12 1.274 1.622-.154 1.042-.193 2.162.039 3.32.502 2.703 2.2 4.904 4.788 6.294 5.096 2.702 12.2 3.86 17.683 1.12 1.97 2.084 5.56 4.092 12.085 4.092h.386c1.66 0 22.741-1.12 28.88-2.626 2.742-.656 4.634-1.814 5.87-2.857 3.937-1.235 14.825-4.942 25.096-11.583 7.258-4.71 9.768-5.714 15.173-7.027 5.251-1.274 8.533-6.062 7.877-11.351zm-9.188 5.676c-6.178 1.467-9.305 2.818-16.95 7.799-11.93 7.722-24.98 11.313-24.98 11.313s-1.082 1.621-4.21 2.355c-5.405 1.312-25.752 2.432-27.605 2.47-4.981.04-8.031-1.273-8.88-3.32-2.588-6.177 3.706-8.88 3.706-8.88s-1.39-.85-2.201-1.622c-.734-.733-1.506-2.2-1.737-1.66-.966 2.355-1.468 8.108-4.054 10.695-3.553 3.59-10.27 2.394-14.248.309-4.363-2.317.31-7.76.31-7.76s-2.356 1.39-4.248-1.468c-1.699-2.625-3.282-7.104-2.857-12.625.463-6.294 7.49-12.394 7.49-12.394s-1.235-9.305 2.819-18.842c3.668-8.687 13.552-15.675 13.552-15.675s-8.301-9.19-5.212-17.452c2.007-5.406 2.818-5.367 3.475-5.599 2.316-.888 4.556-1.853 6.216-3.668 8.301-8.957 18.88-7.258 18.88-7.258s5.02-15.251 9.653-12.278c1.428.926 6.563 12.355 6.563 12.355s5.483-3.205 6.1-2.008c3.321 6.448 3.707 18.765 2.24 26.255-2.47 12.355-8.649 18.996-11.12 23.166-.579.965 6.641 4.015 11.197 16.641 4.209 11.544.464 21.235 1.12 22.317.116.193.154.27.154.27s4.827.386 14.518-5.599c5.174-3.204 11.313-6.795 18.301-6.872 6.757-.116 7.104 7.799 2.008 9.035z"/>
</svg>
