<svg xmlns="http://www.w3.org/2000/svg" width="250" height="250" viewBox="0 0 250 250">
    <path fill="#2c8ebb" stroke-width=".3861" d="M125 25c55.21236 0 100 44.78764 100 100s-44.78764 100-100 100S25 180.21236 25 125 69.78764 25 125 25z"/>
    <path fill="#fff" stroke-width=".3861" d="M193.03089 155.30888c-.69498-5.48263-5.32819-9.26641-11.27413-9.18919-8.88031.11583-16.33205 4.71043-21.27413 7.76062-1.93051 1.19691-3.59074 2.08494-5.01931 2.74131.30888-4.47876.0386-10.34749-2.27799-16.79537-2.81853-7.722-6.60232-12.47104-9.30502-15.21235 3.12741-4.55598 7.41313-11.19691 9.42085-21.46718 1.73745-8.76448 1.19691-22.39382-2.77992-30.03861-.81082-1.5444-2.16217-2.66409-3.86101-3.12742-.69498-.19305-2.00772-.57915-4.59459.15445-3.89962-8.0695-5.25097-8.91892-6.29344-9.6139-2.16216-1.38997-4.71042-1.69885-7.10425-.81082-3.20463 1.15831-5.94594 4.24711-8.53281 9.72973-.38611.81082-.7336 1.58302-1.04248 2.35522-4.90347.34749-12.62548 2.12355-19.15058 9.18919-.81081.88803-2.39382 1.5444-4.05405 2.16216h.0386c-3.39768 1.19691-4.94208 3.97683-6.83398 8.99614-2.62548 7.02702.0772 13.93822 2.74132 18.41699-3.62935 3.24324-8.4556 8.41698-11.00386 14.47876-3.16603 7.49035-3.51352 14.82625-3.39769 18.80309-2.7027 2.85714-6.87258 8.22394-7.3359 14.2471-.61777 8.41699 2.43243 14.13128 3.78378 16.21622.3861.61776.81081 1.11969 1.27413 1.62162-.15444 1.04247-.19305 2.16216.0386 3.32046.50193 2.70271 2.20077 4.90348 4.78764 6.29344 5.09653 2.7027 12.20078 3.861 17.6834 1.11969 1.96911 2.08494 5.55985 4.09267 12.08494 4.09267h.38611c1.66023 0 22.74131-1.1197 28.8803-2.62549 2.74132-.65637 4.63321-1.81467 5.86873-2.85714 3.93822-1.23552 14.82625-4.94208 25.09652-11.58301 7.25869-4.71043 9.76834-5.71429 15.17375-7.02703 5.25097-1.27413 8.53282-6.06177 7.87645-11.35135zm-9.18919 5.67568c-6.17761 1.46718-9.30502 2.81853-16.94981 7.79922-11.9305 7.72201-24.98069 11.31275-24.98069 11.31275s-1.08108 1.62162-4.2085 2.35521c-5.4054 1.31274-25.75289 2.43243-27.60617 2.47104-4.9807.0386-8.03089-1.27413-8.88031-3.32046-2.58688-6.17761 3.70656-8.88031 3.70656-8.88031s-1.38996-.84942-2.20077-1.62162c-.73359-.73359-1.50579-2.20078-1.73745-1.66024-.96525 2.35522-1.46719 8.10811-4.05406 10.69499-3.55212 3.59073-10.27027 2.39382-14.2471.30888-4.36294-2.31661.30888-7.76062.30888-7.76062s-2.35521 1.38996-4.24711-1.46718c-1.69884-2.62549-3.28185-7.10425-2.85714-12.62549.46332-6.29343 7.49035-12.39382 7.49035-12.39382s-1.23552-9.30502 2.81853-18.8417c3.66795-8.68726 13.55212-15.67567 13.55212-15.67567s-8.30115-9.18919-5.21235-17.45174c2.00772-5.40541 2.81853-5.3668 3.4749-5.59846 2.31661-.88803 4.55599-1.85328 6.21622-3.66795 8.30116-8.95753 18.88031-7.25869 18.88031-7.25869s5.0193-15.25096 9.65251-12.27799c1.42857.92664 6.5637 12.35521 6.5637 12.35521s5.48263-3.20463 6.10039-2.00772c3.32046 6.44788 3.70656 18.76448 2.23938 26.25483-2.47104 12.35521-8.64865 18.99614-11.11969 23.16602-.57915.96525 6.64093 4.01544 11.19691 16.64093 4.2085 11.5444.46332 21.23552 1.11969 22.3166.11583.19305.15444.27027.15444.27027s4.82626.3861 14.51738-5.59846c5.17374-3.20463 11.31274-6.79536 18.30116-6.87258 6.75675-.11583 7.10424 7.79922 2.00772 9.03475z"/>
</svg>
