<svg xmlns="http://www.w3.org/2000/svg" xmlns:xlink="http://www.w3.org/1999/xlink" viewBox="0 0 450 300">
    <path d="M0 0h450v300H0z"/>
    <path fill="#ce1126" d="M0 0h450v150H0z"/>
    <g fill="#f9d616">
        <path d="M231.115 91.82a58.5 58.5 0 11-43.199 103.424l-8.558 10.441a72 72 0 1053.168-127.291z"/>
        <g id="s3">
            <path id="s" d="M302.62435 142.35494a77.996515 77.996515 0 010 15.29066l-14.92776-1.47026a63.002012 63.002012 0 000-12.35016z"/>
            <use transform="rotate(22.5 225 150)" xlink:href="#s"/>
            <use transform="rotate(45 225 150)" xlink:href="#s"/>
        </g>
        <use transform="rotate(-67.5 225 150)" xlink:href="#s3"/>
        <use transform="rotate(67.5 225 150)" xlink:href="#s3"/>
        <path d="M199.32444 114.65618h51.35107l-41.54301 30.18415 15.86748-48.840002 15.86748 48.840002zm88.55425 101.65842c3.83825 3.71431 9.0066 7.37578 12.75511 10.70256 3.74851 3.32676 6.62054 6.09242 8.94528 9.87168 3.40716 5.53889-.41885 11.81196-5.72422 8.12988-2.86905-1.99121-4.67179-7.36658-9.06698-11.81477-3.25536-2.77128-5.82024-5.6765-14.00237-7.07825-.39283-.06729-.50774-.89728-.19886-1.25952z"/>
        <path fill="#000" d="M231.36058 197.84505l20.24733 11.97235 4.40158 17.07818 23.24042-1.76064 10.21171-11.97232-37.85371-26.23352-20.24733 10.91595z"/>
        <path d="M279.66324 223.6894c-26.03525-17.31401-42.59086-26.66318-67.54193-40.85002-9.80157-5.57304-25.02281-19.58191-13.01611-43.02024.75586 15.38724 61.56874 57.62316 87.2651 75.98765z"/>
        <path fill="none" stroke="#000" stroke-linecap="round" stroke-width="1.5" d="M216.08561 167.51949c20.04576 18.89085 45.29004 34.30178 67.812 51.33547"/>
        <circle id="c" fill="#000" cx="290.4" cy="222.297" r="1.008"/>
        <use x="7.41957" y="6.465599" xlink:href="#c"/>
        <use x="13.93812" y="13.090317" xlink:href="#c"/>
    </g>
</svg>
