<svg xmlns="http://www.w3.org/2000/svg" xmlns:xlink="http://www.w3.org/1999/xlink" viewBox="-2100 -1470 4200 2940">
    <defs>
        <path id="D" fill-rule="evenodd" d="M-31.5 0h33a30 30 0 0030-30v-10a30 30 0 00-30-30h-33zm13-13h19a19 19 0 0019-19v-6a19 19 0 00-19-19h-19z"/>
        <path id="E" d="M0 0h63v-13H12v-18h40v-12H12v-14h48v-13H0z" transform="translate(-31.5)"/>
        <path id="e" d="M-26.25 0h52.5v-12h-40.5v-16h33v-12h-33v-11H25v-12h-51.25z"/>
        <path id="M" d="M-31.5 0h12v-48l14 48h11l14-48V0h12v-70H14L0-22l-14-48h-17.5z"/>
        <path id="O" fill-rule="evenodd" d="M0 0a31.5 35 0 000-70A31.5 35 0 000 0m0-13a18.5 22 0 000-44 18.5 22 0 000 44"/>
        <path id="P" fill-rule="evenodd" d="M-31.5 0h13v-26h28a22 22 0 000-44h-40zm13-39h27a9 9 0 000-18h-27z"/>
        <path id="S" d="M-15.75-22C-15.75-15-9-11.5 1-11.5s14.74-3.25 14.75-7.75c0-14.25-46.75-5.25-46.5-30.25C-30.5-71-6-70 3-70s26 4 25.75 21.25H13.5c0-7.5-7-10.25-15-10.25-7.75 0-13.25 1.25-13.25 8.5-.25 11.75 46.25 4 46.25 28.75C31.5-3.5 13.5 0 0 0c-11.5 0-31.55-4.5-31.5-22z"/>
        <use id="star1" transform="scale(31.5)" xlink:href="#star"/>
        <use id="star2" transform="scale(26.25)" xlink:href="#star"/>
        <use id="star3" transform="scale(21)" xlink:href="#star"/>
        <use id="star4" transform="scale(15)" xlink:href="#star"/>
        <use id="star5" transform="scale(10.5)" xlink:href="#star"/>
        <g id="G">
            <clipPath id="gcut">
                <path d="M-31.5 0v-70h63V0zM0-47v12h31.5v-12z"/>
            </clipPath>
            <use clip-path="url(#gcut)" xlink:href="#O"/>
            <path d="M5-35h26.5v10H5z"/>
            <path d="M21.5-35h10V0h-10z"/>
        </g>
        <g id="R">
            <use xlink:href="#P"/>
            <path d="M28 0c0-10 0-32-15-32H-6c22 0 22 22 22 32"/>
        </g>
        <g id="star" fill="#fff">
            <g id="c">
                <path id="t" d="M0-1v1h.5" transform="rotate(18 0 -1)"/>
                <use transform="scale(-1 1)" xlink:href="#t"/>
            </g>
            <use transform="rotate(72)" xlink:href="#c"/>
            <use transform="rotate(-72)" xlink:href="#c"/>
            <use transform="rotate(144)" xlink:href="#c"/>
            <use transform="rotate(216)" xlink:href="#c"/>
        </g>
    </defs>
    <rect fill="#009b3a" width="100%" height="100%" x="-50%" y="-50%"/>
    <path fill="#fedf00" d="M-1743 0L0 1113 1743 0 0-1113z"/>
    <circle fill="#002776" r="735"/>
    <clipPath id="band">
        <circle r="735"/>
    </clipPath>
    <path fill="#fff" d="M-2205 1470a1785 1785 0 013570 0h-105a1680 1680 0 10-3360 0z" clip-path="url(#band)"/>
    <g fill="#009b3a" transform="translate(-420 1470)">
        <use y="-1697.5" transform="rotate(-7)" xlink:href="#O"/>
        <use y="-1697.5" transform="rotate(-4)" xlink:href="#R"/>
        <use y="-1697.5" transform="rotate(-1)" xlink:href="#D"/>
        <use y="-1697.5" transform="rotate(2)" xlink:href="#E"/>
        <use y="-1697.5" transform="rotate(5)" xlink:href="#M"/>
        <use y="-1697.5" transform="rotate(9.75)" xlink:href="#e"/>
        <use y="-1697.5" transform="rotate(14.5)" xlink:href="#P"/>
        <use y="-1697.5" transform="rotate(17.5)" xlink:href="#R"/>
        <use y="-1697.5" transform="rotate(20.5)" xlink:href="#O"/>
        <use y="-1697.5" transform="rotate(23.5)" xlink:href="#G"/>
        <use y="-1697.5" transform="rotate(26.5)" xlink:href="#R"/>
        <use y="-1697.5" transform="rotate(29.5)" xlink:href="#E"/>
        <use y="-1697.5" transform="rotate(32.5)" xlink:href="#S"/>
        <use y="-1697.5" transform="rotate(35.5)" xlink:href="#S"/>
        <use y="-1697.5" transform="rotate(38.5)" xlink:href="#O"/>
    </g>
    <use x="-600" y="-132" xlink:href="#star1"/>
    <use x="-535" y="177" xlink:href="#star1"/>
    <use x="-625" y="243" xlink:href="#star2"/>
    <use x="-463" y="132" xlink:href="#star4"/>
    <use x="-382" y="250" xlink:href="#star2"/>
    <use x="-404" y="323" xlink:href="#star3"/>
    <use x="228" y="-228" xlink:href="#star1"/>
    <use x="515" y="258" xlink:href="#star1"/>
    <use x="617" y="265" xlink:href="#star3"/>
    <use x="545" y="323" xlink:href="#star2"/>
    <use x="368" y="477" xlink:href="#star2"/>
    <use x="367" y="551" xlink:href="#star3"/>
    <use x="441" y="419" xlink:href="#star3"/>
    <use x="500" y="382" xlink:href="#star2"/>
    <use x="365" y="405" xlink:href="#star3"/>
    <use x="-280" y="30" xlink:href="#star2"/>
    <use x="200" y="-37" xlink:href="#star3"/>
    <use y="330" xlink:href="#star1"/>
    <use x="85" y="184" xlink:href="#star2"/>
    <use y="118" xlink:href="#star2"/>
    <use x="-74" y="184" xlink:href="#star3"/>
    <use x="-37" y="235" xlink:href="#star4"/>
    <use x="220" y="495" xlink:href="#star2"/>
    <use x="283" y="430" xlink:href="#star3"/>
    <use x="162" y="412" xlink:href="#star3"/>
    <use x="-295" y="390" xlink:href="#star1"/>
    <use y="575" xlink:href="#star5"/>
</svg>
