<svg xmlns="http://www.w3.org/2000/svg" viewBox="0 0 900 600">
    <path fill="#ffd520" d="M0 0h900v600H0z"/>
    <path fill="#ff4e12" d="M0 600h900V0z"/>
    <g stroke="#000" stroke-width=".5208">
        <g fill="#fff">
            <path d="M481.74 187.59c-4.9875-1.7708-8.2083.805-8.0458 7.2442.15833 6.4392 3.5417 10.142 8.5292 7.7271l-.48334-14.971z"/>
            <path d="M486.12 175.53c-4.1542-3.28-8.0292-1.8738-9.9458 4.2758-1.9167 6.1492.0958 10.742 5.5958 10.058l4.35-14.333z"/>
            <path d="M493.04 163.86c-3.5792-3.9046-7.6292-3.1383-10.508 2.6246-2.875 5.7633-1.625 10.618 3.9167 10.825l6.5917-13.45zm-4.54 56.73c-6.1167 2.2538-6.7625 10.625-2.8958 15.776 3.8625 5.1512 10.946 6.1171 14.808 0l-11.91-15.78z"/>
            <path d="M481.42 202.88c-5.7958-1.9317-11.017 5.8525-11.913 12.878-1.125 8.8538-13.683 11.751-6.7583 25.113 1.4458-8.5317 7.0833-13.2 11.588-13.522 4.5083-.32208 11.271-1.2879 14.167-6.7613l-7.0833-17.708zm18.35 34.45c-6.7625 1.6096-7.7292 10.625-2.9 17.064 4.1333 5.5129 17.063 4.1854 16.742-1.2879l-13.842-15.776zm19.16 54.25c.32084-5.795-9.0125-8.0488-13.521-6.9221-4.5083 1.1271-13.121-.16083-15.133-4.9904-1.6083 3.8638.72501 8.0492 7.2458 10.142 4.9333 1.5846 4.8292 5.1512 3.3792 6.7613 3.7042.64375 14.65.64375 18.029-4.9904z"/>
            <path d="M513.62 254.56c-6.6-2.8975-10.513 1.5158-13.038 5.795-3.7042 6.2783-15.133-1.7704-18.996 6.6004 5.2333-2.2538 10.558 2.5525 13.038 4.1854 7.0833 4.6683 20.767 3.2196 22.7-7.7271l-3.7042-8.8538z"/>
            <path d="M517.48 262.28c-6.6 4.99-9.175 10.946-9.0125 14.971.1625 4.0246 5.7958 12.878 11.913 13.361 3.5417-7.2442 5.3125-22.537-2.9-28.332zm-27.36 31.07c0-2.4146 3.5417-3.3804 5.9542-2.5758 2.4167.805 6.1167 3.2196 4.8292 5.7954l-10.783-3.2196zm-36.39-13.2c-.64167-2.8975 4.025-7.8879 10.304-5.1513 6.275 2.7367 7.0833 8.0492 4.5042 10.142l-14.808-4.9904z"/>
            <path d="M469.02 285.46c-.48333-1.61 4.0375-4.8254 11.754-2.8979 7.725 1.9321 9.6208 6.9067 9.3375 10.786l-21.092-7.8879zm-16.09-5.31c4.025-3.0583 2.5-8.855-1.1292-10.625-6.6-3.2196-4.1833-11.59-8.3708-13.2-4.1833-1.61-8.2083-4.5075-8.3708-7.405-2.0917 4.0242-.80417 7.7271 2.0958 10.303 2.8958 2.5758-2.2542 13.039 1.4458 15.776l14.329 5.1513zm-86.29-2.25c-3.3804-5.3121-11.43-4.3463-14.81-.64375-3.3804 3.7025-2.8975 9.1758.32208 11.59l14.488-10.947zm19.32-7.89c-1.2879-7.0829-9.82-7.8879-14.488-6.1171-4.6683 1.7708-7.8879 8.8538-4.8292 14.005l19.318-7.8879z"/>
            <path d="M398.84 269.04c3.0583-5.9563-2.8975-14.81-9.6588-16.098-5.6446-1.0738-12.315-1.0462-14.488-6.6-1.3683 4.8296 2.2542 7.8879 6.4396 10.625 4.185 2.7367-.80542 9.82 5.9558 13.844l11.752-1.7708z"/>
            <path d="M398.2 269.25c-1.4088-4.2667 1.4488-9.9434 7.2325-9.5454 5.7842.39792 9.08 4.6013 6.53 9.8558l-13.763-.31041z"/>
            <path d="M411.07 269.57c-.79583-4.4221 2.83-9.6404 8.5008-8.435s8.3417 5.83 5.0833 10.675l-13.584-2.2396z"/>
            <path d="M423.86 271.6c-.575-4.4575 3.3083-9.4875 8.9125-8.0013 5.6042 1.4871 8.0417 6.2404 4.5417 10.915l-13.454-2.9142zm-97.14 73.75c-10.786 0-13.42 2.5679-14.971 13.683-1.9317 13.844 16.903 15.454 14.971-13.683z"/>
            <path d="M331.55 330.86c-16.581-6.2783-25.595 19.961-42.015 15.293 5.8754 9.3367 20.118.0167 25.434.96583 9.015 1.61 28.493-1.7708 16.581-16.259zm-10.79 35.9c-8.21-3.7021-17.064 8.8542-15.454 14.327 2.0438 6.9521 20.766 1.2879 15.454-14.327zm-38.31 54.09c4.5075 1.2833 9.9804 3.8625 9.0146 12.554-.96583 8.6917-17.385 26.4-32.195 27.367-14.81.96667-20.123 18.833-32.84 13.842 11.912-2.25 11.912-15.775 21.249-19.958-6.7612-2.4167-10.303 12.879-18.995 12.879-8.6929 0-12.878 13.842-23.503 12.875-10.625-.9625-11.743 16.854-33 17.067-16.259.15834-36.381 19.154-43.625 10.946 15.776-2.2542 22.142-10.996 31.552-20.608 15.132-15.45 32.196-8.5292 37.991-22.213-6.9225 4.6667-14.971 6.9208-22.859 6.7625-9.9017-.20417-20.766 15.775-31.874 8.6917 6.4392-.80416 10.625-3.5417 17.386-10.625 6.9238-7.2542 17.083-2.5667 25.113-9.9792 12.556-11.592 23.342-1.9333 35.415-16.421-3.3808-1.6083-10.625-.48334-17.386 3.0583-6.7613 3.5417-15.454-2.4167-23.181 1.7708.96583-9.4958 18.995-4.0625 30.264-10.625 12.718-7.4042 23.262-5.2333 33.323-4.3458-14.005-.0792-19.478-13.363-38.795-9.5-8.425 1.6875-15.132-11.588-23.503-4.8292.24125-4.9875 9.015-9.0134 18.03-4.1833 9.0146 4.8292 12.648-4.2258 30.586 7.0833 7.405 4.6667 20.122-2.9 28.171 2.0917-1.0462-3.0583-5.6346-4.9917-11.027-4.5875 3.3808-6.9208 25.193-6.0375 34.691.8875z"/>
            <path d="M296.78 410.38c-7.0829-5.4733-16.903 1.1283-23.664-1.4488 0 4.5062 2.2538 11.269 9.6588 13.844 2.2538-1.6083 12.395-10.463 14.005-12.395z"/>
            <path d="M307.89 394.77c-11.108-5.6342-13.039 8.3708-21.732 5.4733.32209 4.0246 3.5417 9.015 10.625 10.142l11.108-15.615z"/>
            <path d="M314.49 382.05c-16.42-6.4392-18.513 9.3367-28.171 6.2779 2.2538 5.4733 16.098 8.3708 23.181 6.4392l4.9904-12.717zm22.53-69.06c-4.3467-6.1171-13.522-1.1267-14.971 6.1171-1.4488 7.2442 2.0925 17.386 8.21 15.132l6.7608-21.249z"/>
            <path d="M348.13 293.67c-7.5658-1.7704-16.259-.96584-15.293 6.4392-2.8979 1.2879-3.7025 10.786 4.1854 12.878l11.108-19.318z"/>
            <path d="M353.12 288.68c-7.405-8.6929-15.663-8.4908-20.283-4.8296-8.5321 6.7613-16.823 2.8979-17.064 9.6588 5.1517-3.9438 9.6588.805 13.844-.64375 4.1854-1.4488 7.2442 6.6 18.835 3.2196l4.6683-7.405zM335.25 418.6c1.1271 2.0917 8.0488 3.0583 11.43-.48334 4.4804-4.6958-.48291-17.709-7.5663-18.675-7.0829-.96583-7.7267 14.65-3.8633 19.158z"/>
            <path d="M327.2 418.92c10.141 3.7 14.488-4.6708 9.0146-9.9813-1.4488 1.7708-6.7613 8.2104-9.0146 9.9813z"/>
            <path d="M289.21 432.76c-1.9321 5.7958-11.913 6.7625-23.181 24.792-11.269 18.029-22.054 10.463-24.791 22.858 13.522-10.946 24.142-3.675 32.195-14.488 12.235-16.421 22.309-14.063 27.045-25.113 6.7608-15.775 36.381-15.454 37.991-40.244-9.9808-1.9321-41.533 24.79-49.259 32.194zm254.03-243.4c12.879 4.1854 13.2 20.927 28.008 26.4 14.813 5.4733 16.263 18.673 28.333 15.454-11.267-3.0588-10.463-16.098-22.213-19.318-13.783-3.7758-18.996-24.791-29.946-28.01m54.898 92.884c2.2542 5.1512 1.9333 14.327-6.1167 16.742 4.3458 2.7367 10.783.16084 14.325-5.795-5.3125 11.751-1.7708 22.376 6.6 24.469-4.025-8.21 4.9917-12.074 2.0958-17.386 5.3125 2.2538 9.9792 9.4979 9.8167 14.005 6.925-7.7271-5.15-18.03-2.8958-25.273l-23.825-6.7613zm-83.39 82.74c-7.8875-6.9221-11.254 1.8096-15.133-1.2075-3.6208-2.8171-8.45-3.2196-10.3-.4025 6.7625.24167 3.4583 5.4733 16.579 6.7613-13.121.88541-10.704 15.535-19.479 14.81 9.3375 8.8538 14.167-7.8879 21.733-5.1512-2.2542.64375 3.5417 5.9562-.48333 13.039 6.5208-.16084 9.175-9.1758 9.9833-13.844l-2.9-14.005zm-173.7 75.18c-2.8979-2.4125-11.269-3.5417-14.488-1.6083-3.2192 1.9292-2.0925 2.4125 1.7708 2.7375 3.8638.32084 8.8525 6.5708.48291 6.9208-3.8633.15834-2.5754 9.4958-10.625 10.142 3.3 4.025 12.718 1.3667 16.098-3.0583-.64375 3.6208 4.1854 6.9208 2.2538 11.267 5.9562.64584 2.495-12.071 11.913-11.429-3.8638.48334-2.2538 9.175 4.5071 6.9208-4.0242 1.9333-1.9317 6.6 2.5758 5.475-2.8975.96667-3.8638 4.6667.16084 6.7625 3.8638-5.3125-.48292-24.308-14.649-34.129zm350.62-177.62c12.321 0 22.308-9.9896 22.308-22.312 0-12.32-9.9875-22.31-22.308-22.31-12.325 0-22.313 9.99-22.313 22.31 0 12.322 9.9875 22.312 22.313 22.312z"/>
            <path d="M579.3 284.02c6.7625-6.4392 17.067-9.6588 24.146-4.8296 7.0833 4.8296 30.588 10.625 42.179 2.5758 11.588-8.0492 17.063-12.235 22.213-11.269 3.8667 5.7954 8.5334 8.5321 14.329 9.015 1.7708 1.9317 8.05 3.5417 11.592 3.0583 5.15 1.2879 11.429-.32166 16.417-5.795 7.7292 1.1267 14.971-4.6683 17.708-13.361 8.2083-.96583 8.6917-10.142 3.5417-16.259-4.8292-.96584-1.125-17.225-18.675-14.005 7.4083 4.5071 1.7708 13.522 7.8917 17.708-4.1875 0-9.5792 1.7708-10.867 8.0488 1.6083-4.3462-.24167-7.2438-1.3708-8.2096.1625-3.7025-8.0458-12.798-15.775-9.4979 5.5542 1.2075 2.4167 10.142 6.4417 13.522-2.9.16125-5.9583 1.61-7.7292 4.1854-2.0917-3.7025-9.4958-7.5658-14.004-7.8879 0-1.2879-.24166-3.8633-.80416-5.1512-2.0125-3.8633-3.7042-8.4508-2.9-14.327-3.8625 4.1854-7.0833 9.9808-9.0125 14.166-6.1167-4.1854-21.25 1.9317-28.333 3.5412-7.0833 1.61-30.908-2.2533-36.383-8.0488-5.4708-5.795-16.096-9.3367-26.075-12.234-13.725-3.9833-13.846-18.995-28.979-29.298-.32083 18.674 28.013 77.914 34.45 84.353zm-157.76 142.3c11.913 0 21.571-9.6583 21.571-21.571s-9.6583-21.57-21.571-21.57-21.571 9.6575-21.571 21.57c0 11.913 9.6575 21.571 21.571 21.571z"/>
            <path d="M370.02 409.74c4.3462 5.6346 11.751 5.3138 14.81 4.8304 2.5758 6.7583 10.785 6.6 14.327 10.3 3.5417 3.7042 15.613 3.3833 19.155 1.2875-3.2167-.32083-7.4033-2.25-11.428-5.6333-4.8579-4.0792-2.5758-12.234-6.4392-15.131 2.8975-3.2196 3.3804-8.5317 2.7367-10.625 3.0588-1.7708 5.3121-4.6683 5.6342-6.1171 5.3129-.32208 9.9796-3.0588 11.913-5.1512 2.7375 2.5754 9.6583-.805 13.363 3.5412.80417-10.625-9.3375-16.259-16.1-12.717-2.7375-1.4488-9.9804-.48292-11.268 1.4488-2.2538-.96584-8.5321 2.2538-11.43 4.3462 3.2196-1.7704 3.7025-7.0829 2.4146-9.0146 2.7367-1.1267 5.7954-4.8292 6.1171-7.5658 3.8638.64375 9.6575-1.9321 12.233-1.2879-4.1833-5.4733-11.105-7.405-18.189-6.9221-7.325.40292-10.463 5.5542-11.429 11.108-4.3467 2.5754-5.7954 11.268-4.1854 14.327-2.4958-.08-4.8296 2.3346-5.7954 3.7025-3.3804-1.4488-8.21-2.4946-11.671-2.4946m1.5314-8.772c-1.4488-4.1854.47-7.9533 1.4488-11.268 2.495-8.4508.96584-10.625-6.6-9.4975-.64375 4.0242 3.2196 17.225 5.1513 20.766z"/>
            <path d="M360.77 352.91c1.9317 1.9317 8.7738 2.8175 9.4979-3.2996.83167-7.0225-2.0121-9.74-8.1292-7.0033-.48292 1.61-1.0471 8.21-1.3688 10.303z"/>
            <path d="M362.22 342.37c2.5758 1.0458 8.13 3.1388 11.188-2.8175 2.5658-4.9954-.80458-8.8538-6.1167-8.5321-1.2883 1.4488-3.8638 6.6004-5.0717 11.35z"/>
            <path d="M366.97 330.54c.64375 1.9317 7.2442 8.3708 12.073 3.7025 4.8296-4.6683 4.8296-11.59-2.4146-14.166-1.9321.32166-7.7271 7.0829-9.6588 10.463z"/>
            <path d="M376.62 320.08c1.4488 4.0242 5.9558 10.946 14.327 7.7267 8.3713-3.2196 4.8296-13.683.96625-15.776-2.2538.16125-11.43 4.3467-15.293 8.0492z"/>
            <path d="M391.92 312.03c-.64417 3.5417 0 13.2 11.429 13.039 11.428-.16083 8.2113-13.522 5.3125-15.454-4.6683 0-12.556.16083-16.742 2.4146z"/>
            <path d="M409.14 310.09c-1.2879 2.7367-4.1896 20.75 18.191 15.776 2.8958-.64375 10.463-17.225-18.191-15.776z"/>
            <path d="M421.37 311.7c-2.25 2.2533 3.5417 20.444 18.675 17.385 15.133-3.0588 2.4167-20.283-18.675-17.385z"/>
            <path d="M434.25 314.44c-2.4125 4.9904 1.2125 19.8 19.883 19.8 16.921 0-.8875-19.478-19.883-19.8z"/>
            <path d="M448.9 318.79c-1.2125 2.7662-2.6958 18.468 19.317 19.8 15.938.96583 12.075-21.571-19.317-19.8z"/>
            <path d="M472.57 325.39c-2.7333 4.8296-5.6333 16.903 18.513 17.869 15.471.61917 5.9583-17.547-18.513-17.869z"/>
            <path d="M492.69 329.09c-3.5417 4.8296-.93333 14.303 8.0458 16.098 11.271 2.2538 12.879-8.3708 5.1542-13.522-7.7292-5.1513-13.2-2.5758-13.2-2.5758z"/>
            <path d="M503.64 331.34c-2.575 4.5075-.97917 15.454 16.096 15.454 3.5417 0 17.067-13.844-16.096-15.454zM371.48 541.27c13.83 0 25.042-11.213 25.042-25.042 0-13.833-11.212-25.046-25.042-25.046-13.831 0-25.043 11.213-25.043 25.046 0 13.829 11.212 25.042 25.043 25.042z"/>
            <path d="M555.15 177.13c-1.9333 1.9317-5.9542 7.7267-6.7625 9.9804-8.3708 25.113 13.975 43.871 27.046 70.83 10.304 21.249 9.0167 54.733-7.0833 75.982-5.5083 7.2683-3.8625 9.3367-10.946 16.742-2.7167 2.8408-5.7958 6.4392-4.8292 16.742 4.5083-1.61 10.946 2.5758 12.233 6.1171 3.2208-1.6096 7.7292-.96584 9.3375.96583 5.4708-2.5754 9.9792-1.2879 14.808 3.8638 4.1875-.64416 8.6958 0 12.879 4.5071 2.2542-4.5071 6.7625-6.1171 9.9792-5.1512-.32083-5.795 5.475-9.9804 10.625-7.7267-1.6083-7.7271 5.475-13.523 12.238-11.269 5.7917-4.5075 17.383-4.8292 23.179 1.9317-10.304-2.8975-9.9792 8.0492-18.675 7.0833 2.2542 6.4392-3.5417 10.142-9.3334 12.234 3.7-1.7708 7.725-3.8633 9.0125-1.6096 3.2208-2.8167 9.6584-1.7708 11.271-.32208 4.2625-1.3679 8.3708-.32208 10.3 4.8292 5.7958 3.5417 9.6583 12.556 5.475 19.318-1.2875-7.0829-6.1167-6.7613-8.05-9.6588-4.5083 1.61-9.0167 1.61-10.304-1.2879-2.575 2.5758-11.267 4.8296-15.129.96584-1.45 5.7954-6.4417 10.625-12.238 10.625 1.6125 4.5071-2.8958 12.236-6.4375 16.098 5.475 2.8958 3.8625 9.3375 2.575 13.2 8.3708 1.2875 1.2875 8.6917 15.775 13.521-7.0792 2.2542-20.925 0-22.858-8.6917-7.0833-.32083-11.913-7.4042-11.588-14.813-5.475-5.15-6.2792-12.554 1.2875-17.705-6.4417 1.9317-9.9834-8.3708-19.321-4.1854-4.6417 2.0825-16.9-1.4488-16.738-5.7954-1.9333 3.2196-13.683 1.9321-15.296-3.5412-3.8625 2.0925-12.879-1.4488-12.717-6.7613-4.9917 2.2538-11.75-1.7708-11.429-6.9221-4.6667-.64375-5.15-4.8292-4.8292-8.3708-4.1875-1.9317-3.0583-5.9563-1.45-10.785-2.8958-3.2196-1.6083-7.7271.64583-11.913-3.2208-3.2196-2.575-7.0829-1.6125-11.59-15.454-1.2879-34.813-5.015-79.2-18.673-66.967-20.605-84.997 27.688-70.187 57.952 17.087 34.919-1.9317 42.5 3.8638 68.579 6.1171 1.2875 9.3367 6.4375 9.015 11.913 3.6208.15834 6.1967 3.5375 4.9088 9.9792 3.0588-.5625 7.0034.32083 9.5788 2.8958 2.2538-4.1833 9.6588-5.15 13.523-.32084 8.3688-.64583 12.556 6.1167 12.235 14.488 4.5042 8.05 2.8958 17.871-1.9333 24.146.48334-3.3792 0-8.2084-.15833-11.104-.3-5.3292-7.7292-6.4417-6.9242-10.788-3.8633.32083-7.5663-1.7708-8.8538-4.6667-2.2538 1.9292-5.4733 2.575-8.21 1.6083 4.3462 1.9333 7.7271 9.6583 6.4392 14.808 2.2538 3.8667 1.7708 10.95-.96583 14.008-1.2879 6.275-6.1171 8.5292-12.395 5.7917 3.5417-2.25 4.8292-6.275 4.6683-9.6583-2.2538-1.9292-3.3804-5.6333-3.5417-7.8875-6.2779.96667-14.971-4.3458-16.574-6.4458-13.831 0-25.043 11.213-25.043 25.046-.64375-5.1542-7.1588-10.229-6.3542-14.575-3.8633-11.913 1.61-23.021 17.386-25.271-1.9317-4.5083 4.8292-9.1792 2.2538-14.329-3.2904-6.5792-9.3367-15.133-18.351-25.113 5.4733-9.3375 3.8633-21.892.64375-29.62-4.6233-11.096-9.015-8.3708-25.435 9.6579-26.76 29.383-62.46 21.25-94.012 40.567-8.3838 5.1333-16.741 7.0833-7.7267-1.9292 9.015-9.0167 32.84-18.029 48.293-25.758 28.94-14.471 53.445-38.635 63.104-85.64 22.697-110.46 106.24-74.05 159.04-53.445 49.571 19.346 40.567-24.469 15.454-50.869-30.183-31.732-24.146-56.664-9.9792-76.626 25.433-3.5412 74.213 5.3125 64.392 13.845z"/>
            <path d="M644.82 448.48c15.217 0 27.554-12.333 27.554-27.55 0-15.218-12.338-27.554-27.554-27.554-15.217 0-27.554 12.336-27.554 27.554 0 15.217 12.338 27.55 27.554 27.55z"/>
        </g>
        <g fill="none">
            <path d="M539.7 178.41c-6.1167 27.045-.96667 39.279 8.05 51.191 18.629 24.621 33.483 80.811 12.233 117.51"/>
            <g stroke-linecap="round">
                <path d="M571.89 315.41c2.575-.96583 7.4042-4.0242 8.5333-9.3367M573.82 303.66c.80417-4.6683 8.0458-6.68 8.2083-11.67m-8.0483-6.53c-.48334-4.8296 7.2458-9.1758 6.1167-14.005M569.8 268.08c-.64584-2.7367 6.4375-7.8879 4.5083-12.234m-9.8183-4.666c-1.45-3.0588 3.3792-6.6004 1.2875-9.82m-9.0175-3.71c-.48334-2.0925 2.4958-6.68.8875-9.4163M549.03 221.72c.64167-.805 3.2208-2.7367 2.1708-5.1513M543.72 210.05c1.0458-.56375 4.1833-1.53 3.7833-3.8633"/>
                <path stroke-linejoin="round" d="M382.58 513.57c-6.4392-2.2542-14.488.96667-16.098 6.4417M371.31 525c.805-5.4708 9.1758-7.8875 11.751-5.3125-5.3121-2.8958-7.8879 7.4042-3.2196 7.7292M423.15 397.67c-3.8625 1.9321-4.9875 9.015 0 14.329m5.79-12.719c-2.7333 2.2538-2.575 9.0146 1.45 10.625-3.3792-2.4146 0-6.6 2.4167-6.7612 2.4125-.16084 4.0208 2.7367 1.125 5.6342M655.12 415.21c-9.0125-2.4125-16.258 8.05-8.05 17.388-.15833-9.0167 6.2792-14.971 14.167-13.363m-3.627 6.235c-2.2167 0-3.4625 1.7333-3.4625 3.4208 0 1.7708 1.5292 3.4625 4.025 3.4625 1.6125 0 2.9-1.85 2.9-3.3M689.4 227.83c1.45 5.4733 9.0167 7.7271 14.971 6.4392m-.001-3.5392c-4.6667.16125-8.5292-4.1854-8.2083-7.8879 0 2.7367 6.2792 4.0246 8.2083 2.2538"/>
                <path d="M384.83 414.57c-1.2875-3.2208 3.8638-6.4404 4.0246-9.4992.16125-3.0583 5.795-5.4729 11.59.32209M397.71 371.11c-1.1267.48292-2.0929 1.1267-3.0588 1.4488M408.82 388.65c-1.3688.0813-4.1854-.08-5.715-1.1271m.085 7.2471c-1.1267.56417-3.6229 1.53-5.0717 1.8521M347.97 492c-.16125 2.9 2.7367 7.0833 4.3462 8.3708M360.53 485.08c-1.61 2.4125-2.5754 6.6-1.61 9.4958m25.59.1642c-2.8979-1.9333-.96583-6.925-1.2879-10.142-.32208-3.2208 3.3808-8.3708 10.625-4.025M357.47 476.39c2.8979-.48333 5.9563-.325 7.8879.47917M394.17 467.21c-1.2875 1.7708-1.6096 3.7042-1.7704 4.9917M407.69 466.89c-2.2538 0-4.1854 1.6083-5.1513 3.2208M376.46 384.47c2.5758.88584 9.2558 4.9904 9.4979 9.2567M403.83 363.54c-7.8875-.16125-10.946-8.21-4.99-8.21M418 374.32c-3.0583 1.2879-1.6083 6.6 2.7375 9.1758M399.16 424.87c-1.5296-1.9292.48291-7.5625 5.4733-5.875m6.2767 64.635c.32-4.9083 6.52-7.8083 9.0158-2.2542M388.05 497.63c-.40292-5.3917 2.3338-7.1625 4.7483-7.4833 2.4146-.32084 5.8767 1.6875 7.4863 5.2292M340.08 501.66c.32208-3.2208 3.0588-6.6 5.9562-6.1167M634.67 358.71c-2.0958 1.53-3.4625 8.3708 4.5042 9.015M622.44 369.98c0 .80459 1.0458 1.9317 1.6917 2.4146M660.43 382.86c-2.0917-1.6096-7.4875 4.9104-2.575 9.6588M609.24 436.95c-1.2083-4.5875 3.0583-5.7958 7.0833-4.8292M598.94 404.43c2.4125-1.6096 4.8292-3.3804 7.8875-4.1854M597.65 422.13c0-3.8625 1.9292-7.0792 3.7-8.0458m10.46-36.3742c-.32083 4.6683 1.6125 9.1758 3.0625 11.59m35.2575-11.27c-2.3375.725-4.4292 1.6096-5.3125 3.5417m2.7325 9.6583c1.1292-.96583 2.4167-2.0925 2.9792-2.8975M708.4 250.69c0 4.5071-5.6333 6.9217-9.3333 4.0242M720.64 250.85c2.4917 1.9317 11.104.0812 9.0917-4.9092M710.17 276.77c-1.7708-.32209-4.8292-2.2538-6.1167-3.8633M727.88 263.41c-2.8958.64375-4.8292 0-6.2792-.64375M682.16 279.51c1.6083 0 5.4708-.64417 8.1292-2.0117M677.33 251.02c-2.0917-.24083-3.625.16125-4.8292.96584M709.77 258.9c-.5625 2.0129-2.0125 5.1512-3.7833 6.5204"/>
                <path stroke-linejoin="round" d="M671.86 265.99c4.025-1.7708 9.0167 11.912 18.675 7.0829m.805-14.1729c-1.2875 1.7708-2.0917 4.5075-2.2542 6.9221"/>
            </g>
            <path d="M498.81 237.98c1.2875-.16083 3.5417-.64375 4.025-2.2538M333.16 387.85c4.8296 2.7367 8.2104 7.405 6.1175 14.327M554.5 223.17c1.45.96583 6.925.96583 9.9833-.16083M568.35 226.39c-.1625 2.2538.48333 10.785-3.8625 12.556m1.6125-1.126c4.025 1.2879 12.075.80459 14.65-6.6m-5.64 6.27c2.0917 3.2196 2.7333 9.4979-3.5417 12.878m5.1517-7.558c4.6667 1.6096 15.454 1.7704 14.325-7.405m-3.695 7.405c3.2208 4.5071 17.388 9.8196 15.133.48292M574.31 255.84c5.4708 1.2879 13.2-2.415 9.9792-12.073M599.74 248.6c.80416 3.7025 18.833 7.5658 16.421-.805m-3.381 4.835c3.3833 7.7267 21.25 7.0829 15.617-3.2196M625.5 257.45c3.5417 4.3467 19.321 1.7708 13.042-8.6929m-.172 8.5329c9.8208 7.405 21.25-3.2196 8.8542-10.947m5.6358 8.537c8.6958 6.9221 19.321-5.6346 11.754-9.1758M584.12 251.98c2.7375.805 8.5333.48292 9.8208-4.5071M591.77 250.85c-.32083 7.325 11.996 10.142 15.133 1.6908M602.8 257.13c2.2542 4.8292 13.038 6.7608 14.808-.16125M615.84 260.19c1.7708 4.8296 11.108 4.3467 13.683-.64375M626.14 262.77c2.8958 6.2779 14.808 6.2779 17.546-2.8979M641.6 263.89c4.6667 2.8979 14.65 1.7708 13.842-7.2438m-1.932 6.4438c6.9208 5.6346 16.742.16125 11.913-9.3367m-.483 16.7367c3.7042-.64375 5.6333-8.0488 1.7708-9.9804M579.14 271.78c7.725-4.1854 9.175-11.268 3.8625-18.19m2.7375 11.11c4.8292 2.8975 14.004-.16083 15.613-7.2442M592.34 265.5c2.7333 3.5413 3.2167 7.8879-.325 11.912m2.575-7.402c8.5292-5.3121 19.154 4.5075 11.267 10.464m-1.447-10.944c1.9333-.48291 5.3125-4.0242 5.6333-8.0488M608.27 273.23c3.5417-3.7025 27.692 3.8638 12.396 11.59m-1.126-21.73c4.6667 1.7708 7.0833 8.3713 0 10.625m6.12 5.475c5.15-5.3121 21.25-1.9317 15.454 4.8296m-3.864-6.9296c2.8958-9.82 20.121-3.7025 14.488.32167M633.71 267.27c.48333 1.9321.64166 6.7613-2.575 9.3371M648.2 265.34c.64167 1.61.48334 4.6683-.96667 6.6004M659.14 265.5c.96666 1.7704 2.575 5.1513-.96667 7.8879M521.35 191.45c.15833 9.1754 3.3792 15.293 15.775 9.4975M525.21 202.4c-6.1167 8.21.80417 17.064 12.879 8.21m-31.719-4.19c8.3708 9.0146 23.342 2.4146 13.683-11.269M530.2 214.15c-1.6125 8.8538 5.6333 10.625 11.588 6.6m-42.818-12.88c1.525 8.9013 10.625 15.937 19.479 10.464m-8.529 1.776c0 12.718 17.546 14.166 21.571.96625M525.21 229.12c5.6333 11.59 17.867 6.9221 21.892-.16084M512.81 210.61c2.2542 5.6342 6.7625 11.913 17.225 7.2442M480.62 207.87c1.45 4.6683 9.8208 10.303 19.479 3.8633M486.57 213.83c-5.1542 7.5658 5.15 14.649 17.546 3.3804M492.69 223.17c2.0917 10.625 6.275 19.157 21.408 5.4733m-7.568 5.4667c5.475 6.7608 13.846 10.946 21.733-.48292"/>
            <path d="M534.06 236.04c-.48333 8.0488 1.125 12.073 7.4042 11.751 4.95-.25334 9.6584-4.1854 12.396-8.3708M540.34 247.8c-.1625 9.1758 7.0792 16.42 20.604 7.0833M545.97 258.58c-2.575 6.9221 5.15 18.19 20.283 12.395M513.94 240.23c-.9625 8.8538 7.2458 14.81 20.446 3.3804M520.38 250.05c.48334 7.2442 8.6917 15.937 20.767 3.3804M526.17 259.23c-.96667 12.395 10.463 15.937 20.121 6.4392M508.95 250.05c2.575.16125 4.6667-2.0925 5.9542-3.7025M514.42 259.06c2.2542.48292 6.1208-1.61 7.4083-4.1854M520.06 273.71c2.575 2.7367 11.267.805 12.392-2.8975m-2.732 2.7375c4.8292 11.268 17.704 10.785 23.017-1.9317m-2.417 4.5117c2.4125 6.6 8.5333 10.785 18.513 8.5317M555.15 282.89c-5.6333 9.1758 1.7708 19.961 14.325 9.3367M558.21 296.57c-.64167 5.795 4.6708 12.395 11.913 13.2m-35.743-30.1c-1.9333 13.039 7.4042 19.318 19.158 12.395M520.7 285.95c3.0583 2.4146 8.5333 2.7367 13.683.805m6.277 7.565c-2.9 10.947 8.3708 18.835 18.029 6.6m-33.639-13.2c.1625 5.6342 5.6375 11.751 15.133 9.9804M566.74 308.97c-6.4417 4.3462-7.7292 12.073 1.2875 17.063M550.96 306.71c.325 6.6 3.3833 10.303 10.625 10.946M541.47 303.33c-9.6583 8.8542-.1625 19.157 11.267 10.464m-4.507 2.736c-3.2208 10.142 8.8542 16.259 15.292 5.9562M528.27 294.96c-3.5417 9.9808.96667 16.581 9.175 15.937M515.55 293.03c.48334 5.9562 5.6333 8.0488 11.429 6.7612m-7.729-.4812c-4.3458 8.3708 2.2542 12.878 10.95 9.6588m26.4 18.6712c-1.45 5.3121-.64583 9.1758 7.2417 10.947m-6.7617-3.377c-9.5 4.3467-10.304 13.523-2.9 19.478m-4.75-29.698c-4.9875 4.5075-4.025 12.314 1.45 15.373m-43.7-44.753c-5.475 5.3933-.24167 20.283 11.829 12.155m19.561 6.675c-7.4083 6.1175-4.025 17.225 8.2083 14.166M526.33 309.77c-3.8625 10.947-.15834 14.81 8.5333 14.971"/>
            <path d="M499.13 295.12c-6.6 4.99-4.8292 12.073-1.9292 15.293 2.8958 3.2196 8.3667 1.7708 10.138-2.4146M485.28 290.78c-7.4042 9.4979 0 20.766 10.467 17.386m29.143 10.784c-7.5667 2.7367-13.338 9.6071-8.6958 15.615 2.7375 3.5417 14.65 4.0246 18.029-9.6588M511.2 310.09c-4.3458 6.2783-2.9 12.235 5.15 15.293m-5.63-3.533c-4.6708 2.5758-7.7292 5.6346-6.6 11.269m-3.86-21.089c-1.7708 7.5663.32083 12.235 4.9875 14.488M500.1 321.04c-7.2458-.48292-10.946 2.5754-8.5333 9.6588m.6433-7.8888c-7.0833-2.5758-8.2125-8.6929-5.1542-15.132m-.9658 9.502c-7.7292.32208-11.108 4.1854-11.108 9.4979"/>
            <path d="M475.62 287.07c-5.6333 2.4146-7.4042 9.9808-5.3125 14.166 2.0958 4.1854 8.6958 4.5075 12.721 1.7708M459.85 281.12c-5.15 5.7954.80417 17.064 9.9834 14.327M446.65 276.61c-4.8292 6.7608.48333 18.03 12.879 14.81m.641 31.39c-1.2875-8.0492 7.0833-13.361 17.388-2.8979M472.57 303.66c-3.0583 2.7367-4.5042 7.0829-4.025 10.625M433.45 272.75c-5.3125 9.015 1.1292 17.225 12.558 14.005m17.222 8.365c-7.5667 7.5658-4.9917 15.132.64167 19.478M458.4 303.98c-11.429.16084-12.071 13.361-2.7333 17.547M449.71 290.78c-4.6667 3.2196-6.1167 12.073 1.9333 15.615m-2.2533 4.185c-4.8292-2.2538-10.625.48292-10.142 6.1171m2.892-5.9571c-4.3458-10.303-17.063-8.5317-15.933 2.0929M445.68 298.02c-2.7333.48291-8.2083 2.0925-10.3 6.2783m.81-17.8683c-5.15 5.795-1.1292 12.717 3.0583 14.166M420.9 270.17c-.96667 6.9221 1.7708 10.303 10.463 9.6588m-7.413-.7988c-3.3833 8.3708 1.125 12.073 9.8167 11.59m-7.8867-1.29c-5.15 6.1171-1.6083 12.718 3.3792 15.454m-5.7892-7.724c-9.175-1.1271-10.625 9.4975-7.5667 14.488"/>
            <path d="M416.06 269.37c-5.6321 2.4146-8.8517 9.4975-5.7933 13.844 3.06 4.3463 9.1767 2.8975 12.556.64375M412.2 285.14c-4.6675 7.0829-.48333 12.395 4.5083 14.488"/>
            <path d="M394.17 268.56c-3.7021 3.8633-1.4488 11.752 7.5663 11.913 7.2579.13 10.946-6.7612 8.6929-11.59M400.45 280.47c-2.8975 6.4392-1.1267 13.361 9.8196 12.234m4.6704 10.146c-6.7608-3.0583-15.776 0-11.912 8.0492m-.968-19.4792c-2.7367 3.8633-1.7708 9.3367 1.2875 12.717m-1.7675-2.417c-4.5075.805-8.8542 3.2196-6.1175 10.303m-.6525-5.793c-5.795-1.7708-13.2 2.4146-8.6929 8.3708m-.9571-5.6308c-4.9904-.80501-10.946 4.5071-6.1171 9.8196M377.11 314.44c-4.5075 1.1271-9.8196 6.2783-5.1517 10.303M399.81 289.17c-6.4392 2.8975-7.0833 10.142-4.0246 15.454M393.04 275.81c-9.6588 3.7025-9.4975 16.581 1.1267 20.605m-4.5067-2.905c-5.795 3.3804-6.9221 9.8196-3.0583 14.005M379.52 270.98c-3.8638 1.2879-3.5417 13.2 6.7613 12.878M368.9 275c-7.7271 5.1513 1.6096 18.19 14.166 8.8538m-6.926 3.2162c-1.1267 5.3125.32209 11.108 8.8542 11.752m-8.3742-4.662c-6.1175 2.2533-7.2442 14.81 3.8633 15.776M357.15 282.73c-7.8879 7.2442 6.4392 13.522 11.752 3.0588M346.2 294.8c-3.8638 4.6683 9.6583 16.903 15.615-3.5417m1.445-.3183c.32167 4.8292 3.2196 7.7267 9.1754 8.0488m-.1554 4.6712c-9.4975 1.4488-12.556 13.361-1.9317 15.937M354.73 302.05c-.32208 4.5071 4.3463 8.2096 9.6588 7.405m4.8312 9.815c-8.6925 1.9317-9.8196 13.2-2.0925 12.556M363.1 342.29c-7.2446-2.1729-7.4054-10.786-.96625-14.005"/>
            <path d="M357.15 334.72c-6.1167 3.7025-3.7021 12.556-.48292 13.844 3.2196 1.2879 5.7954-.32166 6.1175-3.0583M362.3 357.9c.64417 4.1854-14.891 2.5758-6.9217-10.463m-.0883 11.193c-5.2313 8.21 3.3008 14.89 8.6929 7.8883M356.02 368.53c-2.0929 6.6004 5.875 11.35 11.026 6.1983M338.63 306.71c-2.8979 5.9563 11.59 8.2096 12.556-4.0246M334.61 315.57c-2.8975 11.59 18.995 9.1758 13.361-5.7954m.479 7.7254c3.0583 1.7708 12.235 1.9317 14.488-7.8879m-6.598 8.2079c.64375 3.0583 3.3804 6.7608 5.9558 7.8879M345.88 320.88c-.96583 6.2783 5.3121 11.43 12.556 10.947M347 327c-3.5412 4.8296-4.6683 14.166 6.4396 14.81M330.1 328.61c-1.7708 4.9904 8.6929 10.142 14.81 1.9317M326.88 341.32c-.88625 3.7838 8.5317 8.8542 13.844-7.2438m-4.184 8.2138c2.2538 4.0242 9.8196 7.2438 14.488-.64417M343.46 346.48c-1.9317 5.6342 3.3808 10.946 9.8196 9.3367M331.39 345.19c-1.2879 8.0488 8.0488 12.717 13.844 8.5317M325.27 348.73c-2.7362 10.303 10.464 14.166 15.454 6.4388m-3.374 3.0612c.48333 5.7954 9.4983 10.785 16.581 5.9563M321.25 363.06c-.64375 2.5754 10.142 5.1513 11.751-3.8638m-5.471 6.1138c2.5754 6.6004 11.268 8.21 16.259.16125M340.89 368.69c1.1271 6.1171 9.015 9.4975 15.937 5.3121m2.893 2.4179c-1.7704 8.21 6.7613 14.81 12.073 10.303M346.04 374.97c-2.5754 9.015 8.6929 14.166 14.971 9.1758M332.52 370.46c-.64375 8.3708 5.9562 13.361 13.522 9.6583M318.19 371.27c-2.2542 5.4733 9.6588 9.9808 15.293 5.3125M310.78 386.24c3.0588 3.5412 13.683 0 14.649-7.8879m-2.889 5.7879c3.8633 4.5075 13.039 6.9221 16.742-2.7367M336.06 386.4c-.16125 6.9221 12.235 11.913 16.259-.805m14.561 2.495c-1.1271 3.3808 1.53 8.7729 7.0829 9.4167M356.66 386c-.805 3.8633 4.8296 9.2554 10.786 7.0829m1.134 1.6071c-1.6096 4.1854-.24208 10.221 5.3921 10.141M369.14 402.5c-4.1854 3.5412-2.415 9.8204 3.6229 10.062m-5.7929-4.112c-5.9563 4.0225-3.8633 12.877 4.0242 12.398M348.94 391.39c0 8.6929 10.785 9.9804 12.878 1.9317m-4.188 5.1483c-1.61 5.1512 2.5754 10.142 9.1754 8.6929M358.92 460.61c1.4492 2.0958 7.405-1.4458 5.7954-4.9875s-7.9192-1.6167-7.2442 2.0917m5.7888-3.5442c.80459-7.0833-7.5663-8.2083-9.6588-2.0917m3.0588-3.5383c2.0929-3.5417-4.99-8.3708-7.8879-3.2208m2.5779-2.0992c1.9317-5.1542-6.1171-7.4042-6.7613-2.7375M342.82 433.72c.96625-2.575 9.9808-.96667 6.1175 4.3458m6.9225 6.4442c3.5417-3.2208-2.4142-9.8208-6.1171-7.4042M379.68 454.33c-2.8179.32084-5.7158 2.1708-3.6229 8.1292 1.4512 4.1333 7.6471 4.3458 8.5317 1.85"/>
            <path d="M375.58 457.31c-2.7367-1.7708-8.6929 1.2083-5.9562 7.0042 2.0604 4.3625 7.2442 2.575 8.0488.32083M360.2 465.6c1.3675 2.4125 8.2088 1.3708 9.4167-1.2875M364.87 457.63c1.4488-.96667 4.1042.2375 4.6683 1.4458M364.39 417.95c-4.6683 3.0583-1.7708 12.396 5.4733 9.9792M362.94 425.52c-3.7025 2.8958-.32208 11.913 6.6 8.5333m-5.47-.0033c-2.5754 2.575-.0808 9.7375 6.6004 8.3708M363.1 437.59c-1.4492-.64584-5.2325-.1625-6.8425 2.25m2.6625-34.85c-3.5412 3.3804-1.8517 10.304 4.7483 10.866m-6.0383-3.786c-5.0717 2.4958-5.0717 12.554 5.07 12.958m-5.47-1.608c-2.8167 2.2542-1.4488 10.946 5.7954 9.8167m-3.4654-.3167c-1.0471 1.0458-1.2083 3.7042-.32208 4.8292M356.34 429.62c-2.5754.0792-5.9562 1.9333-6.8425 4.5875M344.83 424.87c.96583-2.575 8.9354-2.4125 9.4979 5.1542m.8021-9.0142c-1.1271.24167-3.2996 1.2875-3.8633 3.4625m.4033-27.0425c-3.4617 3.1388-5.1512 13.04 5.3921 14.97m-12.3921 5.47c0-2.6583 7.1642-4.9125 9.6588-.96666M340.08 403.46c1.0458 2.0129 6.0362 4.7496 9.095 2.4958M314.16 387.69c-.16042 4.6683 3.7029 8.8538 9.015 8.21 5.3121-.64417 6.4392-5.3125 4.8292-8.3713M323.98 396.06c-3.5417 4.3463.805 10.464 4.8292 8.6929M328.01 393c2.0929-.805 9.015-1.7708 11.108 1.4488m-33.488-.1588c-1.61 2.4146 8.3712 4.8296 11.751.16083M314 396.86c-.3225 3.2196 1.2875 8.6925 9.4975 6.4392"/>
            <path d="M324.79 408.29c1.2875-2.7367-4.8296-7.2438-9.4979-2.2538-4.6683 4.9904.64375 10.625 3.5417 8.6917M303.38 397.51c-2.4146 4.1854 6.9221 11.833 12.235 4.7496"/>
            <path d="M297.18 404.75c-3.3804 3.4617.805 9.8208 5.8763 7.8875 5.0704-1.9313 4.5875-7.2438 3.3808-8.6113"/>
            <path d="M290.66 411.19c-2.7367 2.4942-.0813 8.3692 3.7025 8.3692 3.7821 0 6.1171-2.975 5.3921-6.7583m6.2754-2.0909c-.48333 3.7021 4.99 6.2771 8.5317 2.8188m.1683-6.7688c.48292-.805.0813-2.1742-.72334-2.8179M284.79 416.18c-3.1383 2.4958 3.6229 9.4167 7.8879 3.0583M309.01 414.81c-2.0129 1.9292 1.2067 7 4.4262 5.4708M297.99 418.35c.48292 3.4583 7.2442 6.0333 11.51.725m-7.81 2.735c-1.0458 2.175 1.0471 5.6375 3.6225 5.1542M365.76 441.7c-2.4942 4.9083 5.4733 10.625 11.269 4.6667m-5.479 2.6533c-1.2067 2.6542.24209 6.3583 2.4146 7.725m-9.9746-2.175c.56417-2.4167 4.0242-4.6708 7.1642-3.5417M359.8 448.21c.48292-2.1708 3.3804-4.3458 5.5542-3.7792M549.35 347.76c-11.429.16125-6.6 18.513 3.2208 14.81m-6.9208-1.28c-2.2542 3.7025 2.0917 9.5788 6.9208 6.1171m-1.2808.7229c-3.3833 5.6342 8.6917 14.246 13.521 5.3921M560.95 376.9c.15834 5.3125 15.613 8.6929 13.363-1.9317m-1.453 5.7917c3.7 6.2779 17.546 6.9221 16.096-2.4146M585.9 384.79c2.9 4.1854 16.421 6.7608 15.938-1.9321M531 331.83c1.9292 4.9904 8.5292 6.7613 15.775 3.8633m-19.955-.3233c4.5083 2.8975-2.0917 16.098-9.0125 10.785m9.0125-2.575c4.9917 2.415 11.108.64417 12.879-6.4392m-3.059 5.4692c.48334 3.7025 5.7958 6.6004 12.717 5.1512M524.24 346.48c6.4417 5.4733-2.8958 16.742-7.0833 11.59m9.5033-7.41c3.0583 2.2538 10.946.96584 11.75-4.9904m-3.54 4.9904c.64583 3.8633 3.7042 5.3121 8.05 5.4733m-18.03-.1633c3.2167 4.5075 11.267 5.7954 14.808-.16083M536.15 359.19c-.32083 4.3467 4.5083 7.8879 9.5 6.9221m-27.04 2.7379c4.1833 2.0925 8.6917-5.795 5.15-11.268m-.32 19.638c4.9917.32208 5.6333-7.2438.96667-11.43M534.87 384.14c4.1875-.96583 2.8958-10.142-7.2458-10.947M547.58 390.91c4.025-1.1271.80417-11.269-10.3-10.625m25.6 14.165c2.7333-4.1854-6.2792-11.268-13.683-7.5658M570.44 400.24c4.9917 1.4488 8.3708-11.751-7.4042-9.6588M579.62 400.24c4.35-1.1267 7.4084-9.015-5.3083-6.4392M589.28 400.89c3.8625 1.9321 5.6333-9.3367-6.1208-6.2779M524.4 365.79c4.8292 2.7367 12.396-.48291 11.75-6.6m-1.93 5.32c1.6125 2.8975.96667 8.5317-2.0917 9.9804M534.7 371.27c3.2208 1.2879 7.5667.16125 10.142-4.99m-4.502 4.99c.9625 2.2538 1.2875 6.7613-.80833 9.015m1.61833-5.155c3.5417 1.9317 7.725-.64417 9.4958-4.3467M548.39 374c2.575 1.61 4.8292 9.1758.48333 12.235M551.29 382.7c3.0583.16083 7.5667.16083 10.463-3.7025m-2.093 2.0925c2.7375.805 5.9542 5.3125 4.8292 9.3371m.1608-1.4571c3.0625-.32209 8.3708-2.415 9.8208-6.1175M573.02 385.27c2.5792 1.4488 4.35 4.5071 4.025 8.0488m-.005-2.5788c3.0583-.16084 5.7958-1.7704 6.6-5.1513m-.8 2.2613c2.2542.805 4.9917 3.3804 5.1542 6.4392m-.3242-1.9392c2.2542-.32209 3.8625-1.7708 5.3125-4.0246m6.1175-.3154c2.9 2.8979-.9625 12.557-6.9208 10.786M537.28 192.9c-5.9583 3.5412-22.863 2.4146-14.492-11.59m16.102 2.09c-11.75 4.6683-26.242-4.3462-11.108-14.166m-4.022-3.214c-9.8208 0-16.421 15.776-3.2167 21.249M485.61 172.62c-2.575 4.99 6.6 10.463 12.879 5.4733 4.8625-3.8662 4.5042-14.327 1.6083-18.352M480.62 184.53c-3.2208 10.624 20.446 11.268 16.742-5.6346M479.33 200.31c.80417 8.0488 22.7 5.4733 15.613-10.786m2.577-4.514c1.7708 2.4146 6.6 6.6 14.808 5.795M501.38 173.58c.725 2.8975 5.6333 5.1512 11.913 2.9788M281.73 418.51c-5.5533 3.9458 2.9788 10.142 6.1171 3.3m-10.4671-.24c-5.5529 3.9417 2.9788 10.138 6.1175 3.2958M272.79 424.55c-5.5546 3.9458 2.9775 10.142 6.1171 3.3m-10.9471-.56c-5.3125 2.8167.88458 9.7375 6.2779 3.6208M262.73 429.95c-5.3125 2.8125.88584 9.7375 6.2783 3.6208M289.7 421.65c-.0813 4.1042 7.7271 5.7958 10.543-.325m-5.633 4.115c-2.4146 3.0583 2.0129 6.8417 4.4275 5.4708M284.22 424.87c-.24208 3.4625 6.5188 5.475 9.8196 1.6917M287.93 428.5c-2.1738 2.8167 2.0925 6.6 4.8292 5.4708M279.72 428.01c.24083 2.7375 4.1042 5.875 8.29 4.1042m-5.8-.4042c-1.61 1.45-.80459 4.8333 1.4488 5.8792M273.84 431.47c-.64375 2.4958 3.6225 6.925 7.9688 4.025m-7.0888-1.125c-2.5754 2.0125-2.2538 5.0708 1.0458 5.4708M268.53 434.05c-.32167 1.6875 1.8521 4.425 4.5888 4.1042M254.76 433.89c-2.5754 1.3667 4.0246 8.3708 8.1288 1.85M248.4 436.78c-3.2196 1.5333 4.7492 9.2584 8.2913 1.3708M269.25 436.46c-2.4958.5625-4.1054 4.1875-2.0129 5.6333M261.12 437.75c-.32208 1.45 2.7367 3.8625 5.2329 2.9792M259.03 438.4c-2.4146 1.5292-1.1271 5.7917 1.6908 5.15m-10.3008-2.34c-2.2538 1.6875-.725 5.0708 2.4146 4.2667m1.6854-4.5067c.0813.88333 2.0929 2.2542 3.7838 1.6917M242.61 439.52c-2.8162 1.2083-2.6554 8.2917 6.8425 4.4292M236.25 442.34c-3.9446 1.9333-2.6567 7.2458 5.9562 2.175m.7238.405c-1.0458.80416-2.1725 4.3458 1.7708 2.975M235.69 446.6c-1.6096 1.45-.5625 4.4292 2.9792 3.3M227.4 447.09c-2.8975 1.6917 3.4604 3.9458 7.7271-.5625M229.33 449.18c-1.2883 1.2875-1.2883 5.0708 2.0925 3.7042M221.12 450.71c-1.9317 1.45 1.3679 3.3833 7.405.725m-4.995 1.365c-2.2538 1.85-2.0129 4.1833 1.2875 3.4583M216.85 453.85c-2.4946 2.2542 1.1267 3.7833 5.4733 1.9292m-5.3933.5708c-4.2667 1.9292-2.415 5.4708.24084 4.1042M359.4 468.66c-.98917 2.1292 2.2538 3.8625 5.3125 3.3792 2.9379-.4625 5.7483-2.8833 3.5413-6.275m.1562 4.1858c2.8975 2.2542 8.0488-.32083 8.0488-3.7042"/>
        </g>
        <g fill="#fff">
            <path d="M545.97 128.83c-12.879-6.4392-39.6-18.352-47.167-8.6929 6.9208-2.8975 27.204.16125 43.946 15.615l3.2208-6.9221z"/>
            <path d="M553.78 128.15c-14.892-17.347-23.663-13.464-34.371-19.439-10.058-5.6142-26.079-6.7612-29.183 2.1671 14.696-7.1575 28.188 3.8488 36.475 5.1804 11.383 1.8279 17.808 10.628 21.138 14.675l5.9417-2.5833zm56.1-2.22c-7.7292-17.708-24.254-13.083-31.554-20.605-10.621-10.946-37.504-21.088-48.613-13.522 24.467-1.2879 34.888 16.865 47.971 23.181 9.3375 4.5075 19.317 14.166 32.196 10.947z"/>
            <path d="M580.91 124c-13.2-16.42-33.488-30.908-42.821-25.435 12.233.64375 16.096 9.1758 24.792 14.649 8.6917 5.4733 4.8292 13.361 18.029 10.786zm-62.79 28.98c-13.846-5.1513-40.888-7.7267-53.446 8.0492 20.929 3.5413 52.479 1.6096 53.446-8.0492z"/>
            <path d="M515.55 159.1c-13.846-6.4392-24.658 2.555-37.671 1.2875-24.788-2.4146-42.496-.96584-44.75 10.947 14.167-12.717 37.992-2.2538 47.65-4.8292 9.6584-2.5758 45.396-.32208 56.663 4.5071-5.7958-7.0829-14.808-9.0146-21.892-11.912zm43.46-36.87c-3.2167-10.625-3.0583-21.893 12.879-21.088-4.025-4.9904-18.833-7.5658-21.25 11.108-17.546-12.878-36.704-15.132-40.242-4.0242 9.0125-7.7271 23.017-2.0929 39.758 16.903 1.45-.805 5.3125-2.4146 8.8542-2.8975z"/>
            <path d="M534.87 136.88c-9.9792-6.4388-23.504-16.903.1625-21.088-10.142-5.4733-24.954-3.0588-23.342 15.615-27.046-10.947-46.467-7.2521-50.55 3.5413-4.5083 11.913 12.238 18.513 15.133 10.947-3.0583 1.2879-13.521-2.2538-8.05-9.015 5.475-6.7608 33.525-1.6854 60.208 12.235 7.4042 3.8633 32.838 3.2196 6.4375-12.235z"/>
            <path d="M527.78 154.59c-7.7-15.722-32.679-1.4488-37.713-16.678-6.8792 22.312 35.521 9.9658 37.713 16.678zm158.89 17.06c5.2375 2.6025 9.7667-1.4888 1.7542-4.6979 5.2417 2.6012 9.8125-1.3925 1.8-4.6029 5.2417 2.6012 9.8125-1.3921 1.8-4.6025-2.1375 2.1517-5.1958 10.04-5.3542 13.903zm2.73-30.26c11.592-12.234-.9625-16.42 13.2-28.976 11.592-10.273 2.2125-17.12 13.204-25.113 3.5417-2.5754 11.267-7.7267 11.913-12.878 4.6667 11.59-14.492 13.2-13.204 31.874.82084 11.89-7.2167 10.851-10.3 30.908-.64583 4.1854-3.5417 13.522-14.813 4.1854z"/>
            <path d="M694.56 146.86c6.4375-13.844 13.829-13.578 17.383-18.995 6.7625-10.303 21.088 1.7708 33.163-7.405-2.0917 13.039-18.35 8.3708-25.433 16.742-7.0833 8.3708-12.879 12.235-25.113 9.6588z"/>
            <path d="M696.17 151.37c11.271-9.015 19.575-3.0008 27.367-7.7271 19.638-11.913 27.529 2.4146 45.075-3.2196-4.6708 11.268-30.588 1.61-41.854 9.9808-11.271 8.3708-50.871 16.42-30.588.96583zm-32.84 64.23c-.1625-5.1513-4.9917-11.752-11.754-12.556-6.7583-.805-9.6583-7.8883-14.808-8.21-5.15-.32209-8.5333-10.625-15.617-10.464-7.0833.16125-9.9792 9.3367 6.6 17.708 16.583 8.3713 34.933 18.03 35.579 13.523zm-20.93 4.35c-7.0833.32209-8.05 10.625-14.808 10.947 9.3334 4.9904 16.096-2.2538 20.925-8.6929l-6.1167-2.2538z"/>
            <path d="M648.2 221.23c-6.1167 5.1513-7.8875 15.937.96667 18.995-5.3125-7.3246 9.3375-10.625 4.8292-17.386l-5.7958-1.6096z"/>
            <path d="M654.31 221.56c-4.8292 9.3367 7.5667 10.463 4.3458 17.547 7.0833-1.61 8.2125-14.971 1.7708-18.513l-6.1167.96625z"/>
            <path d="M606.98 201.59c11.592-.64375 22.192 5.6267 29.3 15.776 4.5083 6.4388 19.638 9.0146 24.792 3.8633 5.15-5.1512 2.2542-16.098-10.625-12.556-3.2208-5.4733-12.558-3.5417-17.063-8.0492-4.5083-4.5071-21.896-17.385-26.404.96584z"/>
            <path stroke-linecap="round" d="M650.45 208.68c-3.0583.64375-4.025 5.9562-2.0958 8.6929M657.05 211.9c.96667 1.6096.32083 3.8633-.1625 4.9904M625.34 202.08c5.9542.32209 7.0833 4.6688 13.521 6.2783"/>
            <path d="M621.4 187.43c20.571 5.1512 36.892 9.6588 47.013 15.454 10.121 5.7954 25.792 7.405 39.504 3.5417 13.713-3.8633 40.154-7.405 38.85 9.6588 7.1875-8.5321-1.9583-17.708-20.242-19.318.32916-8.3708-8.6292-15.937-15.071-10.947 5.9583-.80459 11.1 10.303-.65 14.81 2.2833-8.3708-6.0417-15.937-14.692-12.234 5.55 1.6096 11.163 10.917-1.2542 14.488-7.8375 2.2538-19.263-.64375-27.75-5.795-8.4875-5.1517-56.154-23.825-45.708-9.6588z"/>
            <path d="M673.31 179.06c-6.4375 2.8975-2.2542 9.6588-12.233 13.522-9.9833 3.8633-16.904 12.717-14.65 20.283 6.7625-14.81 18.675-14.166 22.858-19.961 4.1875-5.7954 10.304-14.327 4.025-13.844z"/>
            <path d="M675.08 180.02c-.32083 11.751-9.5708 7.4704-5.9583 23.986 1.1292 5.1512 3.2208 13.522-.32083 21.893 10.383-7.5658 3.7042-23.46 8.3708-29.459 2.2542-2.8975 5.15-7.405 6.2792-11.268-2.4167 6.7608-2.2542 19.318 4.3458 22.537-5.3125-12.557 14.329-22.859.80417-37.347-1.9292 3.5417-8.05 9.8196-13.521 9.6588zm-32.84-11.75c1.6125 2.4146 3.2208 8.5321 1.7708 11.913 3.2208-1.9317 7.8917-6.9221 9.3375-10.303 6.6.96584 9.175 9.1758 2.9 12.717 3.8625 0 10.463 0 14.163-4.3462-4.5042-4.9904-18.508-12.718-28.171-9.9808z"/>
            <path d="M542.11 145.18c-1.0417-.94916-2.8-1.8517-5.9542-2.4996-9.7458-1.9988-4.7125-10.784 3.5833-10.706 17.704-19.317 27.646-4.4262 49.217-10.543 7.55-2.1404 12.733-1.5079 16.846.27167 9.6583-6.4392 20.988-4.64 29.2 2.9262.9125-1.4517 2.1375-2.5592 3.8583-3.0371 7.5625-2.1004 13.679 4.3479 15.771 12.719 5.8958-1.0921 12.629 1.8262 17.058 5.8504 6.1333-3.15 10.358-3.29 11.913-.0512 5.475-2.5758 12.567-4.1908 16.108 4.5021 3.5417 8.6929-8.3708 6.1171-10.304 24.469-1.1917 11.321-13.842 15.776-23.825 9.015-15.967-10.817-31.55-12.557-39.279 3.8633-7.725 16.42-13.779 25.96-32.517 20.605-6.7583-1.9321-15.454.64375-20.925 8.0488-5.475 7.405-13.846.48291-23.825 1.2879 12.554-1.9317 7.7458-5.0896 18.675-5.7954 9.9792-.64375 7.4042-9.9804 13.842-11.268-25.113 6.4392-24.146-2.8979-44.75 3.5412 9.0125-11.59 23.179-5.1513 30.263-11.912-18.675-.32208-27.025-12.522-35.417-7.405-13.2 8.0488-7.4083 30.965-41.854 28.976-16.742-.96583-27.367 1.2879-37.346 11.269 17.388-36.059 41.038-16.249 52.479-27.688 6.7625-6.7613 11.913-11.913 15.454-18.352 1.2458-2.2667 2.9333-3.5621 5.0417-4.0629-28.654-9.015-11.325-23.058 16.688-24.023z"/>
            <path stroke-linecap="round" d="M683.59 140.11c.4375.90542.6625 2.08.6625 3.5325 0 7.0829-10.625 7.405-11.267 17.869-.3375 5.4733-.96666 8.5317-4.6708 7.8879-3.7-.64417-6.9208-6.4392-3.3792-13.2"/>
            <path d="M547.42 134.63c-2.6667-1.8738-5.3333-2.635-7.725-2.6571M605.74 121.65c8.525 3.6908 12.683 12.546 25.067 12.98 11.921.41833 19.321 17.708 39.279 6.4388.54167-.305 1.0708-.58959 1.5833-.85375M635 124.63c-1.7792 2.8292-2.1833 6.7783-1.6958 10.244M596.04 161.03c-15.129 0-18.996 7.7267-18.996 15.132 0 7.405 7.0833 17.064 19.642 17.064 12.554 0 19.317-7.7267 19.317-16.098s-7.7292-16.098-19.963-16.098z"/>
            <path d="M598.77 192.9c-.32084-4.1854-7.8875-3.5417-7.5667-6.7613.32084-3.2196 4.1875-4.5075 4.1875-9.0146 0-4.5075 6.7583-4.8296 9.0125-1.2879 2.2542 3.5412 9.0167 10.463 10.467 6.9221M604.41 175.84c-3.5417 3.5412-5.15 10.785-.48334 16.42m5.31334-10.95c-1.125 2.4146-1.4458 6.1171-.15833 8.3708"/>
            <path fill="none" d="M669.36 169.48c11.833.96583 13.846-12.074 4.9917-12.878M654.8 134.31c-4.1042-5.2313-13.521-7.0021-13.683 4.1054"/>
            <path d="M639.99 151.05c-4.025-9.9808-14.329-11.43-19.804-6.4392-4.5542 4.1533-4.6667 14.971 5.1542 17.225 3.3792-4.0242 9.9792-9.3367 14.65-10.785zm-4.43-6.28c-5.7958-5.1517-14.329 4.5883-6.6 13.522M525.31 169.16c3.8792-.92083 9.55.9775 18.246 5.0675 5.475 2.5758 21.896 8.0492 32.196 2.5758-10.625 3.8633-18.671-12.235-26.721-10.303-8.05 1.9317-22.779 4.9096-28.975-.96625 15.129.96625 23.267-11.021 40.563-.64375 4.8333 2.8975 10.95 4.8296 16.421 4.5075-14.163-17.064-32.838-6.1175-34.771-19.961 8.5333 9.1758 29.379-2.0929 40.004 15.132M545.33 152.01c-1.9917-2.4792-1.0917-4.9504-3.2292-6.9054"/>
        </g>
        <path stroke="none" d="M654.8 134.31c-3.5417-3.7829-11.267-.805-9.0958 6.8421 1.6917-3.5413 5.3125-6.52 9.0958-6.8421zm-21.89 20.62c2.4375-1.7696 4.9542-3.2233 7.075-3.8817-1.1583-2.8642-2.8292-5.0262-4.7583-6.5346-1.8417-1.2721-7.1333 5.8442-2.3167 10.416z"/>
        <path fill="none" stroke-linecap="round" d="M623.4 141.87c-5.7958-3.8633-11.108-3.5413-12.879-.32167-4.1833-.16125-7.6458 2.8975-7.8083 9.0146M611.65 153.14c-6.9208-4.7483-16.421-2.9775-15.775 7.6471m-4.185 6.0329c3.3792-2.7367 8.2083-4.6683 11.913.16125M643.37 156.36c-1.2875 1.7704-2.2542 4.5071-.1625 8.6929-2.575-3.3808-9.0125-3.3808-15.938 5.6338M658.66 155.88c-8.3708.96583-8.2083 6.4388-1.45 8.8538M599.1 135.43c-7.0833-1.4488-12.233 2.7367-2.4125 6.2783M612.62 130.6c-9.9834-2.4146-14.008.16084-9.5 2.4146M583.8 170.69c-.32083 3.5417 1.6083 8.21 7.4042 2.8979M585.74 181.31c0 .96583-.1625 2.0925-.80833 2.8975M562.55 134.14c-6.1167-1.7708-7.2417-7.405-.15834-6.9221M560.46 147.18c-6.7625-2.2538-6.7625-8.8538-1.1292-8.21m13.6892 4.83c-7.8875-1.9321-8.2083-7.4054-2.25-6.6004m3.21-10.1396c-4.1833-.32166-10.625 4.3467.1625 7.0833M585.74 136.4c-9.8208-1.4488-9.6583 2.5758-3.8667 5.1517M593.14 127.06c-7.5667-1.4488-10.142 3.0588-4.9917 4.9904M569.32 154.91c-1.8542-1.5288-3.3792-8.8542 5.4708-6.68m12.8792 4.43c-5.9542-1.61-11.588 4.1854-6.1167 7.5658M595.55 145.74c-6.275-1.1271-11.588.64375-8.2083 2.8975"/>
        <path fill="#fff" d="M654.46 134.31c-3.5375.65541-6.7083 2.7342-8.7625 6.8396"/>
    </g>
</svg>
