<svg viewBox="0 0 600 300">
  <clipPath id="countries-ck-cp">
    <path d="M0 0v75h350v75h-50zm300 0H150v200H0v-50z"/>
  </clipPath>
  <path fill="#00247d" d="M0 0h600v300H0z"/>
  <path stroke="#fff" stroke-width="30" d="m0 0 300 150m0-150L0 150"/>
  <path stroke="#cf142b" stroke-width="20" d="m0 0 300 150m0-150L0 150" clip-path="url(#countries-ck-cp)"/>
  <path stroke="#fff" stroke-width="50" d="M150 0v200M0 75h350"/>
  <path stroke="#cf142b" stroke-width="30" d="M150 0v200M0 75h350"/>
  <path fill="#00247d" d="M300 0v150H0v150h600V0z"/>
  <g transform="translate(450 150)">
    <g id="countries-ck-s1" fill="#fff" transform="translate(0 -102)">
      <g id="countries-ck-c">
        <path id="countries-ck-t" d="M0-22.5V0h12" transform="rotate(18 0 -22.5)"/>
        <use href="#countries-ck-t" transform="scale(-1 1)"/>
      </g>
      <use href="#countries-ck-c" transform="rotate(72)"/>
      <use href="#countries-ck-c" transform="rotate(144)"/>
      <use href="#countries-ck-c" transform="rotate(216)"/>
      <use href="#countries-ck-c" transform="rotate(288)"/>
    </g>
    <g id="countries-ck-s7">
      <use href="#countries-ck-s1" transform="rotate(24)"/>
      <use href="#countries-ck-s1" transform="rotate(48)"/>
      <use href="#countries-ck-s1" transform="rotate(72)"/>
      <use href="#countries-ck-s1" transform="rotate(96)"/>
      <use href="#countries-ck-s1" transform="rotate(120)"/>
      <use href="#countries-ck-s1" transform="rotate(144)"/>
      <use href="#countries-ck-s1" transform="rotate(168)"/>
    </g>
    <use href="#countries-ck-s7" transform="rotate(168)"/>
  </g>
</svg>
