<svg xmlns="http://www.w3.org/2000/svg" xmlns:xlink="http://www.w3.org/1999/xlink" viewBox="0 0 1200 600">
    <path fill="#006b3f" d="M0 0h1200v600H0z"/>
    <path fill="#fcd116" d="M525 0h75v600h-75z"/>
    <path fill="#fcd116" d="M0 225h1200v75H0z"/>
    <path fill="#fff" d="M600 0h75v600h-75z"/>
    <path fill="#fff" d="M0 300h1200v75H0z"/>
    <path d="M575 0h50v600h-50z"/>
    <path d="M0 275h1200v50H0z"/>
    <g fill="#006b3f" transform="translate(600 300)">
        <circle fill="#d41c30" r="150"/>
        <g id="star2">
            <path id="star" stroke="#000" d="M-4.81-118.41L0-132.13l4.37 13.5 14.65.22-11.59 8.85 5.25 15.05L0-103.8l-12.46 8.85 4.81-14.61-11.37-8.63 14.21-.22z"/>
            <use transform="rotate(180)" xlink:href="#star"/>
        </g>
        <use transform="rotate(36)" xlink:href="#star2"/>
        <use transform="rotate(72)" xlink:href="#star2"/>
        <use transform="rotate(108)" xlink:href="#star2"/>
        <use transform="rotate(144)" xlink:href="#star2"/>
        <g stroke="#000" stroke-width="2.5">
            <ellipse cx="680.21" cy="586.13" rx="30.805" ry="189.82" transform="matrix(.28955 -.03018 .01659 .23226 -186.11735 -75.926206)"/>
            <ellipse cx="680.21" cy="586.13" rx="30.805" ry="189.82" transform="matrix(.30626 -.03184 .01669 .23225 -188.73313 -74.886801)"/>
            <ellipse cx="680.21" cy="586.13" rx="30.805" ry="189.82" transform="matrix(.245 -.0259 .0179 .25675 -151.94706 -90.935577)"/>
            <path fill="#9c4a00" stroke-width=".6573" d="M-44.213085 62.564681c7.657331-.318514 4.332103-4.415732 8.199242-6.595651 3.864538-2.177268 9.365358-.736785 11.015564 1.985834 1.650207 2.72262.327013 5.396731 2.450471 5.433299 2.12601.03661 59.928115-2.387638 62.010231-.105265 2.084719 2.27972 2.428307 6.775972.269442 8.524141-2.159263 1.769736-75.234738 2.587907-77.751167.737649-2.516925-1.823297-6.202071-9.529768-6.193783-9.980007z"/>
            <path fill="#fcd116" stroke-width=".6326" d="M-3.376891 68.194919c-.138854 5.775531 8.403574 4.139646 8.520898 8.963368-.257316 5.113576-14.324299.312556-14.459613-9.041677.584869-9.344736 14.353843-13.962233 14.524139-8.624814.126666 4.435124-8.44657 2.927591-8.585424 8.703123z"/>
            <path fill="#fcd116" stroke-width=".6326" d="M1.663706 68.261384c-.138854 5.775531 8.403575 4.139646 8.520898 8.963368-.257316 5.113576-14.324299.312556-14.459613-9.041677.584869-9.344736 14.353843-13.962233 14.524139-8.624814.126666 4.435124-8.44657 2.927591-8.585424 8.703123z"/>
            <path fill="#fcd116" stroke-width=".6326" d="M7.07092 68.057753c-.138853 5.775531 8.403576 4.139646 8.520899 8.963368-.257316 5.113576-14.324299.312556-14.459613-9.041677.584869-9.344736 14.353843-13.962233 14.524139-8.624814.126666 4.435124-8.44657 2.927591-8.585424 8.703123z"/>
            <path fill="#fcd116" stroke-width=".6326" d="M12.111394 68.124255c-.138854 5.775532 8.403575 4.139646 8.520898 8.963369-.257316 5.113576-14.324299.312556-14.459613-9.041677.584869-9.344736 14.353843-13.962233 14.524139-8.624814.126666 4.435124-8.446571 2.927591-8.585424 8.703122z"/>
            <ellipse fill="#9c4a00" stroke-width=".3991" cx="478.38" cy="-41.085999" rx="3.5339" ry="3.403" transform="matrix(1.37992 .02078 -.03062 1.45444 -625.22695 117.20523)"/>
            <ellipse cx="427.11" cy="905" rx="20.814" ry="24.144" transform="matrix(.20742 -.0313 .04226 .39514 -119.97806 -293.41566)"/>
            <ellipse cx="427.11" cy="905" rx="20.814" ry="24.144" transform="matrix(.20742 -.0313 .04226 .39514 -127.33463 -293.99555)"/>
            <ellipse cx="427.11" cy="905" rx="20.814" ry="24.144" transform="matrix(.20742 -.0313 .04226 .39514 -132.603 -303.41129)"/>
            <ellipse cx="427.11" cy="905" rx="20.814" ry="24.144" transform="matrix(.19943 -.03154 .04632 .43593 -125.4075 -340.63478)"/>
            <ellipse cx="427.11" cy="905" rx="20.814" ry="24.144" transform="matrix(.1995 -.03084 .04356 .40874 -112.65072 -316.23218)"/>
            <ellipse cx="427.11" cy="905" rx="20.814" ry="24.144" transform="matrix(.1995 -.03084 .04356 .40874 -118.30405 -319.63879)"/>
            <ellipse cx="427.11" cy="905" rx="20.814" ry="24.144" transform="matrix(.1995 -.03084 .04356 .40874 -125.43742 -324.55362)"/>
            <ellipse cx="427.11" cy="905" rx="20.814" ry="24.144" transform="matrix(.1995 -.03084 .04356 .40874 -132.04249 -327.53171)"/>
            <path fill="#9461c9" stroke-width=".5749" d="M-14.73408-52.686013S-29.389421-39.966852-27.744911-5.54236C-25.899475 29.077562 4.64858 45.351977 4.64858 45.351977s7.785981-9.826932 6.881958-37.643498C9.34733-32.96-5.077878-50.928723-5.077878-50.928723l-9.656202-1.75729z"/>
            <ellipse cx="427.11" cy="905" rx="20.814" ry="24.144" transform="matrix(.20968 .00618 -.02884 .39634 -45.183498 -309.40147)"/>
            <ellipse cx="427.11" cy="905" rx="20.814" ry="24.144" transform="matrix(.20968 .00618 -.02884 .39634 -52.318928 -311.28321)"/>
            <ellipse cx="427.11" cy="905" rx="20.814" ry="24.144" transform="matrix(.20968 .00618 -.02884 .39634 -55.824816 -321.48715)"/>
            <ellipse cx="427.11" cy="905" rx="20.814" ry="24.144" transform="matrix(.20186 .00451 -.03211 .4372 -42.110313 -356.83224)"/>
            <ellipse cx="427.11" cy="905" rx="20.814" ry="24.144" transform="matrix(.2018 .00521 -.02998 .40996 -33.906971 -330.54675)"/>
            <ellipse cx="427.11" cy="905" rx="20.814" ry="24.144" transform="matrix(.2018 .00521 -.02998 .40996 -38.862639 -334.90639)"/>
            <ellipse cx="427.11" cy="905" rx="20.814" ry="24.144" transform="matrix(.2018 .00521 -.02998 .40996 -45.005838 -341.01389)"/>
            <ellipse cx="427.11" cy="905" rx="20.814" ry="24.144" transform="matrix(.2018 .00521 -.02998 .40996 -50.974388 -345.12149)"/>
            <ellipse fill="#d41c30" stroke-width="1pt" cx="624.42" cy="606.11" rx="58.28" ry="186.49" transform="matrix(.19787 -.07643 .08023 .1871 -155.83813 -59.21337)"/>
            <ellipse stroke-width="1.4635" cx="218.13" cy="356.75" rx="10.823" ry="12.905" transform="matrix(.49828 .00887 -.00657 .36896 -99.510833 -162.76931)"/>
            <ellipse stroke-width="1.5462" cx="218.13" cy="356.75" rx="10.823" ry="12.905" transform="matrix(.44637 .00795 -.00657 .36896 -84.135444 -169.29958)"/>
            <ellipse stroke-width="1.5462" cx="218.13" cy="356.75" rx="10.823" ry="12.905" transform="matrix(.44637 .00795 -.00657 .36896 -90.652069 -169.41561)"/>
            <ellipse stroke-width="1.56" cx="218.13" cy="356.75" rx="10.823" ry="12.905" transform="matrix(.46714 .00832 -.00617 .34637 -93.887858 -166.3691)"/>
            <ellipse stroke-width="1.56" cx="218.13" cy="356.75" rx="10.823" ry="12.905" transform="matrix(.46714 .00832 -.00617 .34637 -94.461639 -172.01688)"/>
            <ellipse stroke-width="1.5462" cx="218.13" cy="356.75" rx="10.823" ry="12.905" transform="matrix(.44637 .00795 -.00657 .36896 -96.8782 -173.22007)"/>
            <ellipse stroke-width="1.5623" cx="218.13" cy="356.75" rx="10.823" ry="12.905" transform="matrix(.44637 .00795 -.00644 .36143 -95.468785 -176.63136)"/>
            <ellipse stroke-width="1.4635" cx="218.13" cy="356.75" rx="10.823" ry="12.905" transform="matrix(.49828 .00887 -.00657 .36896 -114.72518 -179.36983)"/>
            <ellipse stroke-width="1.56" cx="218.13" cy="356.75" rx="10.823" ry="12.905" transform="matrix(.46714 .00832 -.00617 .34637 -98.157196 -179.08115)"/>
            <ellipse stroke-width="1.5623" cx="218.13" cy="356.75" rx="10.823" ry="12.905" transform="matrix(.44637 .00795 -.00644 .36143 -100.2913 -183.52126)"/>
            <ellipse stroke-width="1.5462" cx="218.13" cy="356.75" rx="10.823" ry="12.905" transform="matrix(.44637 .00795 -.00657 .36896 -110.48856 -178.90566)"/>
            <ellipse stroke-width="1.5623" cx="218.13" cy="356.75" rx="10.823" ry="12.905" transform="matrix(.44637 .00795 -.00644 .36143 -108.8569 -179.77161)"/>
            <ellipse stroke-width="1.5623" cx="218.13" cy="356.75" rx="10.823" ry="12.905" transform="matrix(.44637 .00795 -.00644 .36143 -106.80676 -183.69602)"/>
            <ellipse stroke-width="2.5449" cx="528.68" cy="564.48" rx="67.438" ry="205.64" transform="matrix(.21932 -.07743 .08683 .20202 -145.01539 -72.55561)"/>
            <ellipse cx="528.68" cy="646.07" rx="13.321" ry="40.796" transform="matrix(.20574 -.09785 .09471 .21196 -137.12211 -77.403485)"/>
            <path stroke-width=".5749" d="M31.462582 7.798675C44.273286 23.396889 42.655575 33.30197 41.319929 41.68219c-4.024887-9.663255-6.222459-15.746276-19.035385-31.347194-12.812925-15.600919-6.41748-26.547548-5.537658-32.316165 1.926581 4.993077 1.90277 14.178926 14.715696 29.779844z"/>
            <path stroke-width=".5749" d="M32.616052 20.397765C45.426756 35.995979 43.809045 45.90106 42.473399 54.28128c-4.024887-9.663255-6.222459-15.746276-19.035385-31.347194-12.812925-15.600919-6.41748-26.547548-5.537658-32.316165 1.926581 4.993077 1.90277 14.178926 14.715696 29.779844z"/>
            <path stroke-width=".5749" d="M33.001502 30.545466c13.120121 15.322429 11.700755 25.259546 10.532914 33.666169-4.21732-9.575489-6.536094-15.610401-19.658489-30.935487-13.122396-15.325086-6.947032-26.404994-6.182714-32.190945 2.026042 4.95098 2.185894 14.135177 15.308289 29.460263z"/>
            <ellipse stroke-width="1.3887" cx="528.68" cy="646.07" rx="13.321" ry="40.796" transform="matrix(.40784 -.1038 .16694 .37767 -299.57061 -196.0302)"/>
            <ellipse stroke-width="1.6398" cx="528.68" cy="646.07" rx="13.321" ry="40.796" transform="matrix(.3669 -.0631 .12978 .31265 -259.00282 -166.87124)"/>
            <ellipse stroke-width="1.6398" cx="528.68" cy="646.07" rx="13.321" ry="40.796" transform="matrix(.36815 -.05532 .12326 .31531 -261.52366 -166.81962)"/>
            <ellipse stroke-width="2.0966" cx="528.68" cy="646.07" rx="13.321" ry="40.796" transform="matrix(.29658 -.05431 .11151 .23308 -211.06958 -135.53834)"/>
            <ellipse stroke-width="2.0966" cx="528.68" cy="646.07" rx="13.321" ry="40.796" transform="matrix(.29952 -.038 .0968 .23873 -208.27027 -143.86531)"/>
            <path stroke-width=".5749" d="M8.61954-15.767835c3.787886 9.255064 5.321314 17.576702 3.420321 18.577351-1.898698.999441-6.513206-5.70037-10.301092-14.955435"/>
            <ellipse stroke-width="2.0966" cx="528.68" cy="646.07" rx="13.321" ry="40.796" transform="matrix(.29952 -.038 .0968 .23873 -208.89375 -154.73721)"/>
            <ellipse stroke-width="2.0966" cx="528.68" cy="646.07" rx="13.321" ry="40.796" transform="matrix(.30032 -.0321 .09144 .24056 -212.194 -155.98718)"/>
            <path stroke-width=".5749" d="M2.025745-28.338145c3.677961 6.253928 5.65813 12.09375 4.418483 13.037247-1.23815.942356-5.227504-3.368272-8.905464-9.622201"/>
            <path stroke-width=".5749" d="M4.572644-32.485105c3.677961 6.253928 5.658129 12.09375 4.418483 13.037247-1.23815.942356-5.227503-3.368272-8.905464-9.622201m15.92777-2.536749c5.124964 8.542601 7.882604 16.520579 6.153303 17.810625-1.727212 1.288488-7.287655-4.598619-12.41262-13.14122"/>
            <path stroke-width=".5749" d="M8.4524-36.082328c3.692698 6.904591 5.686541 13.348237 4.449013 14.385262-1.236034 1.035772-5.23563-3.727092-8.928327-10.631682"/>
            <path fill="#9461c9" stroke-width=".5905" d="M8.124584-46.086178c-2.4652 2.482234-.05083 7.123595 2.205523 8.801039 2.530629 2.294221 16.742134 17.286089 26.768781 4.672222-8.033538-.146108-23.026684-19.004532-28.974304-13.473261z"/>
            <path fill="#9461c9" stroke-width=".5905" d="M6.36899-53.485518c-2.4652 2.482234-.05083 7.123595 2.205523 8.801039 2.530629 2.294221 16.742134 17.286089 26.768781 4.672222-8.033538-.146108-23.026684-19.004532-28.974304-13.473261z"/>
            <path fill="#9461c9" stroke-width=".5905" d="M4.122692-60.575768c-2.465202 2.482234-.05083 7.123595 2.205522 8.801039 2.53063 2.294221 16.742134 17.286089 26.768781 4.672222-8.033538-.146108-23.026684-19.004532-28.974304-13.473261z"/>
            <path fill="#9461c9" stroke-width=".5905" d="M-.758547-68.686568c-2.465202 2.482234-.05083 7.123595 2.205522 8.801039 2.53063 2.294221 16.742134 17.286089 26.768781 4.672222-8.033538-.146108-23.026684-19.004532-28.974303-13.473261z"/>
            <path fill="#9461c9" stroke-width=".6276" d="M-18.271949-76.448224c5.080302-3.778951 14.411653-4.884005 21.68142-1.183186C9.464849-74.664603 19.556776-62.558485 27.1435-59.696463c-5.339994.952539-8.588551.147731-12.001308-1.491593-6.738865 4.879721-9.140169 5.611298-16.00788 6.570161-9.551603 1.377954-17.479684-1.108557-20.266066-6.089426-2.839252-4.699505-1.61543-12.238734 2.859805-15.740903z"/>
            <ellipse fill="#d41c30" cx="287.23" cy="323.04" rx="14.154" ry="14.986" transform="matrix(.3091 .0055 -.00301 .16933 -95.304017 -125.19072)"/>
            <ellipse fill="#fcd116" cx="204.58" cy="348.26" rx="23.254" ry="15.895" transform="matrix(.2458 -.09144 .08132 .21925 -99.445497 -116.289)"/>
            <ellipse fill="#000" stroke="none" cx="283.9" cy="333.86" rx="5.828" ry="5.8279" transform="matrix(.2699 .0048 -.00416 .23342 -82.956029 -148.37388)"/>
            <path fill="#fcd116" stroke-width=".7318" d="M-17.127905-65.514747c.402078 1.948925-1.043505 4.582316-4.180015 5.515002-3.195207 1.322722-5.618416 4.322017-7.016075 9.226342-4.855803-11.183796-1.769609-15.915544 3.387899-17.06567 4.436579-1.414945 7.11029-1.235679 7.808191 2.324326z"/>
            <circle fill="#000" stroke="none" cx="198.98" cy="362.39" r="4.7097" transform="matrix(.23597 -.01236 .01334 .24161 -73.600709 -149.7658)"/>
        </g>
    </g>
</svg>
