<svg xmlns="http://www.w3.org/2000/svg" xmlns:xlink="http://www.w3.org/1999/xlink" viewBox="0 0 1200 600">
    <defs>
        <linearGradient id="gradbase" gradientUnits="userSpaceOnUse">
            <stop offset="0" stop-color="#a43907" stop-opacity=".9961"/>
            <stop offset="1" stop-color="#fff"/>
        </linearGradient>
        <linearGradient id="grad1" x1="826.45044" x2="786.12402" y1="419.93194" y2="396.11032" xlink:href="#gradbase"/>
        <linearGradient id="grad2" x1="851.56865" x2="763.03312" y1="436.06697" y2="419.67318" xlink:href="#gradbase"/>
        <linearGradient id="grad3" x1="1016.1496" x2="974.91928" y1="398.53933" y2="400.94143" xlink:href="#gradbase"/>
        <linearGradient id="grad4" x1="1033.33547" x2="945.904" y1="421.21868" y2="428.64452" xlink:href="#gradbase"/>
        <linearGradient id="grad5" x1="1023.35736" x2="776.64586" y1="445.13212" y2="445.13212" xlink:href="#gradbase"/>
        <linearGradient id="grad6" x1="783.43027" x2="1144.08805" y1="462.50282" y2="465.42083" xlink:href="#gradbase"/>
        <linearGradient id="grad7" x1="1032.1278" x2="1002.94064" y1="442.28699" y2="444.03323" xlink:href="#gradbase"/>
        <linearGradient id="grad8" x1="775.74733" x2="803.90792" y1="471.7178" y2="476.1845" xlink:href="#gradbase"/>
        <linearGradient id="grad9" x1="803.17707" x2="755.30821" y1="466.88819" y2="440.32034" xlink:href="#gradbase"/>
        <clipPath id="c">
            <path d="M0 0v150h700v150H600zm600 0H300v350H0v-50z"/>
        </clipPath>
    </defs>
    <path fill="#00247d" d="M0 0h1200v600H0z"/>
    <path stroke="#fff" stroke-width="60" d="M0 0l600 300m0-300L0 300"/>
    <path stroke="#cf142b" stroke-width="40" d="M0 0l600 300m0-300L0 300" clip-path="url(#c)"/>
    <path stroke="#fff" stroke-width="100" d="M300 0v350M0 150h700"/>
    <path stroke="#cf142b" stroke-width="60" d="M300 0v350M0 150h700"/>
    <path fill="#00247d" d="M0 300h600V0h600v600H0z"/>
    <g stroke="#000" stroke-width="1.8">
        <use stroke="#fff" stroke-width="12" xlink:href="#scroll"/>
        <g id="scroll" stroke-linejoin="bevel">
            <path fill="url(#grad1)" d="M826.45 427.735s-8.53598-13.8843-15.65-12.8926c-7.11256.99174-13.7516 9.91737-14.2266 10.4124-.47347.49666-10.9063-11.4042-10.4329-11.9008.47498-.49508 10.9078-26.2802 16.5985-27.272 5.69065-.99174 17.9773 1.89709 17.9773 2.88882 0 .99174 5.73375 38.7641 5.73375 38.7641z"/>
            <path fill="url(#grad2)" d="M845.419 412.859c0 .99174-2.84532 37.686-15.1751 50.5786-12.3297 12.8926-32.247 20.8265-39.3611 18.843-7.11255-1.98348-23.2361-39.1728-23.2361-39.1728s17.072 17.8513 29.8752 14.8761c12.8047-2.97521 20.3922-25.2901 22.7626-36.1992 2.37186-10.9091.47498-32.2323.47498-32.2323l24.6595 23.3066z"/>
            <path fill="url(#grad3)" d="M973.576 427.735s8.53598-13.8843 15.65-12.8926c7.11256.99174 13.7516 9.91737 14.2266 10.4124.4734.49666 10.9063-11.4042 10.4328-11.9008-.4749-.49508-10.9078-26.2802-16.5984-27.272-5.69065-.99174-17.9773 1.89709-17.9773 2.88882 0 .99174-5.73375 38.7641-5.73375 38.7641z"/>
            <path fill="url(#grad4)" d="M954.608 412.859c0 .99174 2.84532 37.686 15.1751 50.5786 12.3297 12.8926 32.247 20.8265 39.361 18.843 7.1126-1.98348 23.2361-39.1728 23.2361-39.1728s-17.072 17.8513-29.8752 14.8761c-12.8047-2.97521-20.3922-25.2901-22.7626-36.1992-2.37186-10.9091-.47498-32.2323-.47498-32.2323l-24.6595 23.3066z"/>
            <path fill="url(#grad5)" d="M788.945 407.482c-5.69068 6.94218-8.7289 12.308-11.1 16.275-2.3711 3.96694-.97668 9.4873 4.5 17.3625 5.90463 8.48767 54.4484 41.6625 117.675 41.6625 63.2265 0 111.77-33.1748 117.675-41.6625 5.4766-7.87519 6.8336-13.3956 4.4625-17.3625-2.3711-3.96695-5.3719-9.33282-11.0625-16.275 0 10.4124-40.2141 48.0375-111.075 48.0375-70.8609.00002-111.075-37.625-111.075-48.0375z"/>
            <path fill="url(#grad6)" d="M1008.25 476.741c.9485-1.48681 10.9063-18.843 10.9063-18.843l-5.46-4.02724c-1.6768 4.90949-7.8182 6.50738-8.7666 12.4578s4.2688 11.9008 3.3203 10.4124z"/>
            <path fill="url(#grad7)" d="M1018.15 471.371s1.8969-8.42897-4.2673-9.42071c-6.1656-.99173-9.4293 4.71805-8.5359 2.47855.9921-2.48691 4.7422-4.95868 5.2156-13.3877.475-8.43056-.4734-12.8926-.4734-12.8926s2.3703-10.9107 12.3297-9.4223c9.9579 1.4884 10.4329 9.4223 10.4329 12.3975 0 2.97521-.9485 4.46202-.9485 4.46202l-13.7531 25.7852z"/>
            <path fill="url(#grad8)" d="M791.773 476.741c-.949-1.487-10.907-18.843-10.907-18.843l5.45999-4.02724c1.67684 4.90949 7.81819 6.50738 8.76663 12.4578s-4.26874 11.9008-3.3203 10.4124z"/>
            <path fill="url(#grad9)" d="M781.873 471.371s-1.89688-8.42897 4.26723-9.42071c6.16563-.99173 9.42936 4.71805 8.53597 2.47855-.99208-2.48691-4.7422-4.95868-5.21567-13.3877-.47498-8.43056.47347-12.8926.47347-12.8926s-2.37035-10.9107-12.3297-9.4223c-9.95788 1.4884-10.4329 9.4223-10.4329 12.3975 0 2.97521.94844 4.46202.94844 4.46202l13.7532 25.7852z"/>
        </g>
        <path stroke="none" d="M813.43 438.565l-5.16779-3.55994-.60012.95373 1.0182.84192.0874.5064-6.50543 10.3388-.47909.11619-1.14073-.6472-.60011.95374 5.16779 3.55994c1.7705 1.21965 3.2807 1.84224 4.96633 1.66477 2.1944-.22005 4.06492-1.49869 5.5102-3.7956 2.573-4.08915 1.85084-8.10322-2.25661-10.9327zm-2.1551.0781l1.02686.70737c2.8141 1.93856 3.06199 4.64992.75905 8.30989-2.30295 3.65997-4.79294 4.51187-7.60704 2.57332l-1.02686-.70738 6.84799-10.8832zm3.8991 18.6299l10.2685 5.13308 1.71686-3.76452-1.2992-.64945-1.34262 2.06734-.40209.21206-4.43568-2.21733 2.495-5.47071 2.48537 1.2424.1338.42897-.50075 1.60932 1.12889.56432 2.22605-4.88099-1.12889-.56431-.88123 1.42089-.4021.15932-2.48537-1.24239 2.2835-5.00695 3.80416 1.90164.12401.39771-.55685 1.9961 1.33839.66904 1.50666-3.30361-9.63852-4.81815-.47001 1.03059 1.11826.68907.17148.44781-5.11404 11.2134-.45937.18343-1.21422-.47866-.47002 1.03059zm13.612 5.726c1.10133.90962 2.37746 1.60988 3.66831 2.04514 3.30819 1.11547 5.93074-.10665 6.74176-2.74783.40203-1.30927.12479-2.72592-.79298-3.94194-.93036-1.24359-1.89776-1.93807-2.39314-2.57005-.85035-1.06996-1.21179-1.92674-.89833-2.94757.37514-1.22168 1.55506-1.80204 3.02713-1.30568.64543.21763 1.07577.48438 1.37702.80593l.18745.4065-.36563 2.42474 1.45141.48939 1.10408-3.59557c-1.11994-.91756-2.30851-1.61162-3.55962-2.03348-2.88374-.97235-5.34572.30391-6.10202 2.7669-.33434 1.08879-.18493 2.33902.47776 3.51735.6348 1.1206 1.46794 1.81814 2.13759 2.53387 1.18703 1.28181 1.66823 2.32562 1.30052 3.52314-.37514 1.22168-1.61594 1.78318-3.25016 1.23214-.62476-.21066-1.17546-.51966-1.6786-.90929l-.16029-.42066.49527-2.77265-1.53408-.51727-1.23345 4.01689zm10.723 4.154l6.02979 2.03315.33386-1.08727-1.3174-.56586-.21374-.46369 3.63266-11.8302.41824-.20227 1.38557.34388.33387-1.08728-6.02979-2.03316-.33387 1.08728 1.29628.56041.22719.41989-3.63267 11.8302-.43168.24606-1.36444-.33842-.33387 1.08728zm12.953-12.333l-.23018 1.11771 1.19889.38514.26548.39304-2.50447 12.1613-.40647.29156-1.24589-.15694-.23018 1.11771 5.84014 1.29106.23018-1.11771-1.24001-.39261-.25622-.43806 1.05723-5.1337c.12405.0274.2481.0549.35256.0779 2.0909.46223 2.42749 1.5624 2.62266 3.87132.10596 1.16768.0804 2.23648.9697 3.38743.40864.54317 1.11789.98561 2.00909 1.18263.64147.14181 1.35903.22902 2.10708.27591l.2257-1.09598c-.10283-.0227-.18607-.0411-.26932-.0595-1.3874-.3067-1.93731-.78534-2.11449-2.13756-.15871-1.2264-.0697-2.49543-.50599-3.64198-.32473-.83462-.94066-1.42361-1.8829-1.89485 2.43941.0378 3.93433-1.01461 4.36656-3.11342.52174-2.53347-.85301-4.26891-4.06362-4.97867L852.462 454.82zm3.97754 2.23942l.95323.21072c2.00765.44383 2.84759 1.72669 2.46236 3.5973-.43255 2.10036-1.68585 2.82472-3.9008 2.33507-.22851-.0505-.47661-.10536-.74113-.18819l1.22634-5.9549zM865.586 473.888l11.3628.56256.18257-4.16851-1.43933-.0713-.4684 2.45157-.2915.35885-4.90839-.24301.26531-6.0578 2.75023.13616.28257.3412.13837 1.6874 1.24753.0618.23671-5.40479-1.24753-.0618-.28532 1.66801-.3111.31022-2.75024-.13616.24282-5.54426 4.21124.20849.26193.31636.22707 2.06665 1.48102.0733.16021-3.65813-10.664-.52797-.05 1.14119 1.28576.1812.32426.34327-.5438 12.4168-.35488.35571-1.29596.0518-.05 1.14119zm19.976-13.186l-.039 4.12848 1.49873.0179.37128-2.49165.35057-.29889 2.60866.0312-.11983 12.6869-.3735.36844-1.41418.0989-.0108 1.14239 6.49852.0777.0108-1.14239-1.412-.13272-.36645-.37729.11983-12.6869 2.60866.0312.32257.30694.3464 2.50023 1.49874.0179.039-4.12847-12.538-.14991zm13.205.447l.0199 1.1423 1.26256.0954.35417.36677.21614 12.3829-.34115.3789-1.25849.13782.0199 1.14231 6.14838-.10732-.0199-1.14231-1.30534-.0931-.35417-.36677-.10258-5.87653 6.27854-.1096.10257 5.87654-.31889.37852-1.3013.13857.0199 1.1423 6.12782-.10696-.0199-1.14231-1.26252-.0938-.35417-.36677-.21615-12.3829.34116-.37891 1.25845-.1394-.0199-1.14231-6.12782.10696.0199 1.14231 1.30537.0947.33191.36716.0891 5.10707-6.27853.10959-.0892-5.10707.34116-.3789 1.30127-.14016-.0199-1.1423-6.14838.10732zm17.306 15.264l11.6241-1.06432-.3543-4.15727-1.47242.13481-.15864 2.4965-.24986.39724-5.02124.45975-.51488-6.04148 2.81346-.2576.33145.29782.35921 1.65255 1.27621-.11685-.45938-5.39023-1.27621.11685-.074 1.69382-.27608.35185-2.81346.25761-.47124-5.52933 4.30807-.39446.30724.27614.4985 2.01576 1.51507-.13872-.31092-3.64828-10.9092.99887.097 1.13811 1.33054-.004.37411.29391 1.05536 12.3833-.3147.40318-1.31073.23631.097 1.13811zm16.482-18.06l.1778 1.12752 1.36566-.11428.41605.26022 1.9346 12.2681-.30714.4304-1.32936.34448.1778 1.12753 6.43651-1.09951-.1778-1.12752-1.41039.12352-.42321-.30563-.81666-5.17879c.13672-.0233.27523-.047.38857-.0664 2.3044-.39365 3.05412.49466 4.10583 2.56004.53928 1.04166.90964 2.04302 2.24033 2.76132.61756.34319 1.50472.47469 2.48692.3069.70698-.12076 1.47144-.32211 2.25213-.57287l-.17434-1.1056c-.11334.0194-.20508.035-.29683.0507-1.52907.2612-2.26699.0335-2.94708-1.1514-.6148-1.07539-.99257-2.28777-1.85931-3.18021-.64135-.64629-1.48738-.95045-2.62113-1.01731 2.50154-.92425 3.63852-2.48866 3.30465-4.6059-.40302-2.55573-2.44673-3.62504-5.98519-3.02059l-6.93841 1.18524zm4.88592.51304l1.05056-.17946c2.21267-.37798 3.5435.48182 3.84107 2.36886.33413 2.11881-.6774 3.28386-3.11853 3.70086-.25185.043-.52528.0897-.82581.11695l-.94729-6.00721zM951.81 470.606l6.6025-2.07914-.32891-1.09305-1.51294.35511-.46072-.24548-3.57863-11.893.25926-.42401 1.44579-.57827-.3289-1.09304-6.60249 2.07913.3289 1.09305 1.49077-.34646.44747.20145 3.57864 11.893-.24602.46803-1.42362.56963.3289 1.09305zm13.73-12.868l.31433 1.09468 1.67193-.3998.4444.20245 1.30881 4.55813c-.56356.22413-.97784.37842-1.1996.44771-3.41021 1.06553-6.16697-.62955-7.32211-4.6525-1.12284-3.91044.24784-6.87029 3.54979-7.902.64258-.20077 1.27163-.27637 1.94128-.21721l.44702.29773 1.10098 2.23728 1.61693-.50522-1.09053-3.79793c-1.78108.0197-3.42289.26594-4.88616.72314-4.91713 1.53637-7.20583 5.58661-5.89047 10.1676 1.33457 4.64783 5.40358 6.88389 10.0553 5.43045 1.61693-.50521 3.16663-1.33072 4.69929-2.46735l-1.49479-5.20581.26454-.42396 1.25285-.51406-.31432-1.09468-6.46946 2.0214zm3.421-9.351l.49355 1.02007 1.24791-.52701.49129.15867 5.35021 11.0578-.16911.50721-1.14714.73527.49355 1.02007 5.84114-3.08282-.49355-1.02007-1.28951.55074-.49129-.15867-2.53904-5.24769 5.96476-3.14807 2.53904 5.24769-.14796.49605-1.18944.75759.49355 1.02007 5.82-3.07166-.49355-1.02007-1.24722.52842-.49129-.15867-5.35022-11.0578.16912-.50721 1.14645-.73669-.49355-1.02007-5.81999 3.07167.49355 1.02007 1.2902-.54933.47014.16983 2.20658 4.56056-5.96477 3.14807-2.20658-4.56056.16912-.50721 1.18874-.75901-.49355-1.02007-5.84114 3.08283zm14.622-8.45l2.02787 3.54597 1.36886-.85444-.90834-2.3419.16871-.45852 2.38104-1.48624 6.23168 10.8968-.1532.5302-1.23374.9051.56113.98121 5.93381-3.70388-.56113-.98121-1.34597.70516-.52106-.10933-6.23169-10.8969 2.3826-1.48721.44609.0747 1.56227 1.93372 1.37042-.85542-2.02787-3.54597-11.4515 7.14802z"/>
    </g>
    <path fill="#0072c4" stroke="#fff" stroke-width="6" d="M900.011 448.344s-114.465-33.7349-113.798-162.077l.88167-169.649h225.834l.8847 168.675c.6677 128.342-113.802 163.051-113.802 163.051z"/>
    <g fill="#bcbcbc">
        <path d="M802.805 155.04c.18817 0 1.57517-1.31703 2.84532-2.47855 1.77396-.88859 3.41438-2.13739 5.21718-2.97521 1.34299-.77752 3.99711-1.3805 5.21566-1.98347 1.59794-.83623 2.90147-1.79941 4.26875-3.47187.16389-2.21832.47498-3.81145.47498-6.4455 1.88625-.90763 3.56006-1.7883 5.21566-2.48013 2.37338-.66804 2.88781-1.61693 5.21718-1.98348 1.4993-.52363 3.97738-.49666 6.16411-.49666 2.35972 0 3.84839 1.67723 5.96834 2.07392 2.51299 1.01395 3.68602 1.71531 5.69065 3.47187 1.13206 1.43286 1.83618 2.59756 3.76645 3.67657 1.52812.78387 2.95913 1.97078 4.7422 2.47855 1.95758 1.13454 3.69512 1.79147 5.21566 3.47187 1.39307.99015 1.96821 2.46109 3.3203 3.47028 1.56607 1.29958 3.05171 2.46903 4.74221 3.47188 2.03194 1.36145 4.04567 2.39603 7.33713 2.0993 1.7421-.10314 3.61774-.30307 5.69065.0841 2.32026 0 4.58438-.0412 6.63908.49666 2.41891 0 4.37649.32688 6.63909.49508 2.11995.39669 4.28088.49666 6.63908.49666 2.05622.53633 4.31882.49508 6.63909.49508h13.27816c2.41587 0 4.86209.0984 6.63909.49666 2.3931 0 4.45084-.22374 6.63908-.49666 2.57521 0 4.53886-.47128 7.11407-.49508h8.0625c2.06988.56648 4.71489.95524 6.16411 1.98347 1.89839.5411 2.8438 1.4408 4.7422 1.98348 1.45377.74578 3.66174 1.92635 4.7422 3.47028 1.33844 1.39954 2.7133 3.40364 3.79376 5.45535 1.32023 1.90413 1.82253 4.08119 2.84533 6.44549.54175 2.26592.9196 4.42076.94844 6.94216.51443 2.15008.47498 4.51597.47498 6.94215-.54175 2.26116-.66012 4.77779-1.42342 6.94216-.082 2.41984-.56603 4.60959-.94844 6.44708-.42187 2.02949-.91809 3.33541-.94844 5.95042v6.94215c-.16693 2.27703-.66467 3.9495-.94845 6.4455-1.14723 2.16595-2.2459 4.69845-3.31878 7.43882-1.5782 1.09963-2.94699 2.6642-3.79376 3.96694-1.01218.62519-1.59793 1.57409-1.42342 1.98348 1.89536.6601 1.42342 1.97871 1.42342 4.46202.24583 1.91206.43097 4.28271.94844 6.44708.17299 2.36747.67984 3.81461 1.4219 5.45376.74813.97745.89381.49666-.94844.49666-1.37031 1.07425-2.75731.51253-3.31878-1.4884-1.10626-1.33448-1.47046-2.94982-1.89688-5.45376-.26253-2.29607-.62977-4.53343-1.42342-5.95042-.2428-2.79432-.98638-2.76575-3.79377-2.97521-1.3354-1.18373-3.09874-1.4884-5.69064-1.4884-2.58128 0-2.79828-.2634-2.84532 2.48014v6.94215c-.44615 2.01204-1.42494 3.64325-1.89688 5.45376-1.41432 1.03617-2.15031 2.77528-3.79377 3.96695-.78303 2.25164-1.92116 2.64357-4.26874 2.97521-.82097-1.02506-2.15941-2.36272-2.84532-3.47029 1.32782-2.22783 2.48719-2.56423 3.3203-4.95868 1.00763-1.97395 1.59945-3.25448 2.37035-4.95868-1.01218-1.55822-1.92117-2.26116-2.84533-4.46361-.77999-1.1996-1.86046-3.78129-2.37034-5.45376-1.55696-.54268-4.00925-.62995-5.21718-1.4884-2.30054-.53474-2.94396 1.98348-5.68913 1.98348h-6.63908c-2.93637 0-3.66933 1.63914-6.16563 1.4884-.73295.23801-2.51147-.10473-5.21718 0-1.98186.69024-4.36889.49507-6.63908.49507-2.40525-.0301-4.37345-.58393-6.16411-.99174-2.17913-.59662-4.34613-1.20119-6.63908-1.48681-2.78462 0-3.82108.22215-5.69065 1.48681-1.47956.87749-3.6238 2.88318-5.21718 3.96695-.67377 1.64549-1.02431 4.43029-1.89688 6.44708-.50381 1.93428-1.32326 3.16086-1.89688 4.95868-.6419 1.67723-1.24891 3.40364-1.4219 5.95042-.16086 3.34176-.89078 2.93237-2.84532 1.98348-.8149-1.38367-2.11389-2.9054-2.84533-4.46361.43098-2.52298.91658-3.77812.94844-6.4455-.46132-1.92476-1.53875-1.86287-2.84532-.49666 0 2.59597.11989 4.59849-.94844 5.95042-.53416 2.04853-1.39307 2.93396-2.84532 3.96695-.71019 1.84066-2.28688 2.68324-3.79376 3.47187-.24129-.0841 0-.66486 0-1.98347-1.13661-2.26751-.082-4.14943-.082-6.94216.0288-2.50394-.11381-4.16371.61307-6.44708 0-2.40397-1.11536-4.69052-1.47956-6.44549-.88167-1.84225-1.39004-2.75307-3.79377-3.47188-1.68898-.6712-4.12306-1.57884-5.21718-2.97521-1.37637-1.78512-2.25501-2.5198-4.26722-3.47028-2.18217-.79022-3.24139-1.51379-4.7422-2.48014-1.46591-1.61692-2.65716-2.31828-3.32031-4.46202-.98941-1.52489-1.15937-4.35729-1.89688-6.44708-.16085-2.17706-.78455-4.2002-1.4219-5.95042-.28225-2.17706-.62521-3.77018-1.42342-5.95042-.26404-2.03901-.85284-4.17164-1.4219-6.44549 0-2.42618.0394-4.79366-.47498-6.94216v-6.94215c-.34144-2.0041-.46739-4.93806-.94844-6.44708 0-2.69753-.28681-4.22083-.94844-5.95042-1.08502-1.75181-1.17303-2.53726-2.84532-2.97521-1.20794 1.54076-3.1989 2.16912-5.69065 2.48013-1.74058-.39669-4.19742-.65534-6.16562-1.4884-1.90143-.4681-3.20194-1.22023-4.7422-1.98347-.84222-1.2964-1.84832-2.76417-2.84532-3.96695-.2944-2.58962-.85891-3.92251-.94845-6.44549 0-1.89303.0455-.8886 1.89689-3.47187z"/>
        <path fill="#fefefe" d="M830.89 172.905c3.01016-.99728 9.58467-5.8759 13.3643-9.00378 4.30335-2.72739 13.1109.10252 13.4622-7.28709-.53305 2.22171-5.62641 7.74585-8.11654 11.089-5.48978 3.48825 2.68529 7.04297 4.00373 2.05723 2.84772-5.09972 6.46988-10.277 12.1601-12.2836-1.03729 3.67567-1.80247 7.24947.67074 10.5203.88987-1.60958 1.11142-8.21765 1.01654-2.77785-1.79843 3.09405 2.65737 12.1065 2.76993 5.09501.71142-4.43341.442 4.79493 1.79515 6.18455 2.83476 5.46966 2.58586-5.03246 3.21522-7.11238.47597-3.93153.67377-2.89436.0994-.0538-.57065 3.56033.61326-7.43531.82573-1.37487.39079 3.16821-.0413 11.7806 3.02049 4.94723 2.45143-4.06247 3.03655-4.12345.36045-.51803-.87211 1.35908 4.0207-7.40192 2.08539-1.2911-.12835 4.39044.0335 10.9195 2.41805 13.7864 1.83004-2.2556.7635-13.983 2.60342-5.92305.70504 2.27261.021 8.59829 2.99262 3.74338 3.2098-3.78269 4.97961-7.06438 4.63014-12.2524.40126-2.64755 2.01363-6.90493 3.43146-2.21596-.97348 6.11645 5.39407 10.007 4.61587 15.8908 2.85773-4.49568 1.57127-11.1875-.33184-15.4883-.40174-5.09276 7.74442-2.0564 5.71932 2.43583-.2315 3.22891 4.39599 11.5246 4.76657 3.84607.62156-3.6492 2.63103-3.9712 2.19105.10944.83861 2.63565 4.4214 10.3898 4.03435 3.63695.31893-3.67806-.59578-7.55212 1.0582-11.0187 1.17289 2.21486 1.29679 5.61678 2.68143 1.40272 2.83045-.0846 1.11836 7.78332 4.69516 9.46672 1.43727 2.82372 5.01505 7.43827 4.01209 1.35967.55544-3.29147-2.39218-10.095-1.11413-10.9712 3.74549 4.75485 5.12978 11.0333 10.1799 14.8701 4.80966 2.44003.59783-6.74784.33537-9.11604-2.867-1.57623-5.20908-7.70196-1.15198-2.91591 2.34206 4.25118 9.46311 7.97131 11.6877 8.89564-2.12213-1.56996-4.05621-2.15463-.45716.018 2.66474 1.09269-1.58101-6.64142-3.12753-7.95206-1.37513-2.47279-8.07162-6.07864-6.17271-7.7839 5.23969 1.13266 6.77331 6.86107 9.95197 10.4396 1.98126 1.65983 6.75982 5.18605 4.09075-.0764 1.49352-.62278 8.86655 7.55936 7.10936.99791-1.21487-2.82231-7.67666-7.91561-6.96393-8.22312 2.20398 3.19048.87344.90986-.8825-.76238 6.38867.70949 10.1398 7.08678 14.1572 11.1402.50039 1.92977 1.96129 11.3292-.0119 5.16368-4.15457-1.77377 1.603 8.43181-2.93355 7.10807-.20511-2.26067-4.20708-7.00283-2.27102-2.31615 3.33625 6.84409.82153 14.361 1.11885 21.5783.0883 3.55373-.082 7.08496-.33537 10.6211.24069-2.60941.4433-6.95281.0161-1.25452-.14842 3.95896-1.6073-5.71316-3.58581-6.2059-.41055-1.80097-1.96739-10.901-3.2803-5.47185.0104 5.32009 5.14076 10.9028 1.04345 15.5915-1.38269 1.28818-2.11236 4.99701-2.85006 1.1098-2.01798-4.59595-3.30949-9.46095-6.84794-13.2155-1.49315-2.92571-6.61967-10.0186-5.19949-2.5725.88879 3.36447 1.4857 6.77784 1.25569 10.2672-1.99097-5.1616-4.70684-9.96075-7.37811-14.7269.3869 2.22649 3.09039 11.7834.73938 5.58987-1.62661-5.08029-4.24819-10.1509-9.31077-12.4046-1.39782-.17335 3.40031 8.93365 1.55009 8.99929-.44381-2.93678-3.10484-9.47314-5.7487-8.28005.1185 5.24793 2.25357 10.1348 1.03362 15.4864.26607 5.219-3.21916-5.18977-4.3598-6.58553-5.12431-3.13598.37497 8.83935-3.68753 4.20655-3.26935-2.29695-5.01393-4.83396-4.69516-9.11605-6.08182-1.03487-3.73498 5.39502-4.02291 9.05002-.51339 2.77358-2.01069 8.04045-3.70171 8.85003-.70603-4.00858-.14054-8.20487-.32271-12.2908.97716-2.34563-.0982-8.37465-2.94714-5.50964-.48257 5.29352 2.9743 12.0158-.95631 16.3378-2.0801 2.3795-5.9375-3.71409-9.57596-2.08571-4.62086-2.36747-2.72652-9.7724-5.86328-13.6612-3.11725-3.26284-1.65536 13.0789-3.7059 5.3359 1.47374-4.93096-7.51607-6.85911-5.75896-1.60077 2.20795 2.23726 2.60646 5.04299 2.31646 8.01757.62655 3.49911-1.97233 4.5372-2.57748.60989-.24863-4.3276-7.65601-6.12206-6.14058-.43021-3.88245-2.49914-.23824 9.85086-4.99598 6.05452-5.36181-3.7405-8.80139 3.31203-14.6754 1.92791-3.33986.55613-11.3287 1.42615-6.48435-3.42362 4.52943-2.7321 6.44443-10.9898 12.7568-6.76537 4.82565-.28129 9.95052-3.67983 13.8907-6.84495 3.22258-2.17258 1.7812-7.6997-2.16866-4.27267-3.27934 4.92682-12.6992 4.92224-15.524 4.53229 2.79931-2.65078 11.3625-3.04043 9.23663-7.68244-3.14315.25665-8.66152 4.96533-10.4304 2.22426 1.09847-1.20979 4.70733-4.56024.54478-3.09798-5.27085 1.71677-10.9218 1.29897-16.3532.86776-5.4353-5.32188 7.928-3.86431 7.73453-7.36265-1.31761-.10864-6.52147.59403-4.24666-1.31787 4.39919.0865 8.83744.42098 11.992-3.75434 1.90848-1.98275 8.54789-6.5335 6.92454-8.13266-4.8995 2.82138-10.0443 7.60914-16.1838 4.81979 5.27508-3.93443-2.03747-4.27138-5.37085-3.88706-2.42534.74896-9.16747-2.00823-3.40053-1.83108 3.92909.83158 7.83231-4.61133 1.78491-3.56902-1.26541-.38878-2.62461-.14135-3.92934-.21075zm-29.033-7.948c-.23136-2.56198-1.26283-5.10739-.83642-7.69477 1.26199-1.84481 3.00745-3.18724 4.63018-4.70114 2.90484-1.61981 5.66804-3.59092 8.95369-4.38807 2.28115-.69646 4.25854-2.20213 5.7479-4.04248.73309-2.21398-.56236-5.75944 1.51487-6.95213 2.55642-1.39969 5.32409-2.30112 7.92882-3.58637 2.84468-.91895 5.92331-1.06205 8.87362-.70987 2.36179 1.01464 4.75592 1.93853 7.09929 2.99747 2.11924 1.03086 3.67999 2.77694 5.11286 4.5868 1.67465 1.52753 3.77083 2.51915 5.7413 3.60912 1.6371.11322 1.09701 2.23527.058 2.15219-.6743 3.14003-4.59158.47595-5.33677-1.37364.65699-1.21901.38844 2.78457-.86509 2.83893-2.20894.97651-2.14283-2.78465-2.46626-4.2221.28044-1.2152-.67864-2.65619-1.17917-.74693-1.48609 1.6347 1.60134 5.13888-1.62587 4.173-2.39804-.31622-5.07777-.81085-7.16045.77882-1.74322 1.81824 1.88708 2.56492 3.01891 3.44643 1.52572 1.43611 3.56554.0173 5.34179-.15924 2.4299-.83935 5.16356-.40458 7.41596.72101 1.041 2.24835-1.04678 4.48315-3.03758 5.39487-1.85974 1.00879-3.93569 1.44558-6.00856 1.69755-3.03896.13471-2.44922 3.90074-5.40932 4.20221-1.89031.80048-4.01961.9837-6.03641.7181-.39697-1.08631 2.00358-2.80708 2.25276-4.46644 2.17427-2.58539-3.11509-2.11424-2.34758.35068.36642 1.67133-3.29636 4.13969-2.05854 1.29917.0586-1.52756 1.6414-3.89874-1.0236-2.7979-1.45836-.0133-4.44773-.0666-3.62523 2.20009-1.80834.38287-4.12631.42325-5.67717-.47586-.9259-2.4702-3.81144-3.5558-5.62049-1.31137-1.8025 2.38467-4.30551-.74156-6.09503.49461-.0237 2.23527 2.28093 3.40462 4.32116 3.38734 2.06562-.18234 4.18492-.56558 6.26763-.22477 1.91711 2.28659-1.83037 3.00321-3.60897 2.6894-2.39695-.0867-4.54102-1.45657-6.97935-1.26693-1.16492-.16461-3.8206 1.28459-1.31556 1.4787 1.85975.37786 5.66791.25128 4.81789 3.16927-1.45811.67958-3.26393-.0665-4.91285.63698-.96797-.25022-3.87338.5347-2.25582-.29811-.85609-1.48198-2.51249-2.32067-3.61455-3.60462z"/>
        <path d="M812.447 153.269c-.11078 0-1.11233.6966-2.01221 1.40272-1.4735.78863-3.04715 2.13104-4.02442 2.80542-.76938.61567-.76482.88384-1.67533 1.05204 1.59794-.22691 2.30964-.63313 3.68754-1.40272 1.7421-.20945 3.42956-.57917 4.35979-1.40271.87257-.30466-.0652-1.70261-.33537-2.45475zm15.426-16.48c.19272 0 .58576 1.09647 1.33996 1.75339.48256 1.34559.92719 2.29607 1.0061 3.85746.41125-1.71372 1.11385-3.09104 1.34148-4.90949-.52202-.92351-.55693-1.3567-2.01221-1.40271 0 .9473.11077.32846-1.67533.70135zm6.035.351v.35068c0-.94572-.0213-.46334.33537 1.40271.55389 1.1758.67073 2.43729.67073 4.20814.88016-.65693 1.61463-1.96761 2.01222-3.1561 0-2.76893-.37483-2.6055-3.01832-2.80543zm12.407 40.323h.33537c-.98638 0-.43097.0603 1.34147-1.05204 1.14724-.79973 2.08657-1.98188 3.68906-2.45474 1.5524-1.27419 2.74668-1.87082 4.35827-2.45316.78607-.37766 1.47957-1.033 2.34758-.35068-.24887 1.72959-.53568 2.38334-2.01221 3.15451-.76331.99967-1.96517 1.58361-3.0168 2.10407-1.09109.50142-2.29143.52681-2.68295 1.75339-1.82404.83941-2.04863.69818-4.35979-.70135zm6.372 10.168c.5979-.47286 2.69813-2.66261 3.68754-3.50519 1.11992-1.54394 2.25198-2.7245 3.35369-3.50678.97727-1.50427 2.22921-2.51187 3.01831-3.85746.93175-1.17898 1.61766-2.17706 2.68295-3.50519 0 1.53282-.13961 3.56549.33385 4.55722 0 2.11835-.23369 2.69753-1.00458 4.20814-.76179 1.24086-1.32934 2.06281-3.01832 2.80543-1.52358.84416-2.43712 1.14089-3.68906 2.10248-.95451.61408-1.94847 1.22499-3.01831 1.75339-.95907.43001-.51899.24277-2.34607-1.05204zm-10.396 8.065h.33536c-.98637 0-.43248.0603 1.34148-1.05204 1.43101-1.49633 2.57065-2.01679 4.35979-2.80542 1.3612-.10949 3.0077-.46334 4.02442-1.05203.81035-.14916 1.37486-.66487 2.0107 0 1.05315 1.48839 1.34299 1.90889-.33537 2.80542-.80276.71246-2.21859 1.42969-3.35217 1.75339-.83766.72198-2.49478.76641-4.02442 1.05203-1.37031 0-2.1321.16186-2.68295-.70135l2.68295.70135c-1.37031 0-2.1321.16186-4.35979-.70135zm14.419 0v-.35068c0 .97904-.041.46017.67074-1.40271 1.25649-1.96126 1.72995-3.04344 3.35368-3.50678.76027-.96159 2.07747-1.21071 3.68906-1.75339.60396 1.05362.13961 2.28178 0 3.50678-.43856 1.30909-1.63436 2.23259-2.34758 3.1561-1.04556.74261-1.47198 1.45666-3.01832 1.75339-1.27926 0-.60093-.0333-2.34758-1.40271z"/>
        <path fill="#c4c4c2" stroke="#000" stroke-width="1.3578" d="M817.476 151.165c-.74964 0 1.32175-.7807 2.01222-1.05204.55237-1.21706.99093-2.07868 2.01221-2.80384 1.67988.13488 2.50388.64106 3.35368 1.75181 1.41128.40304 1.91965 1.10598 3.68906 1.40271.65708.58076 1.54634.64741 0 1.05203-1.05163.58077-2.37338.70136-4.02443.70136-1.72995.13012-2.9652.5284-4.02442 1.05203-2.24439 0-1.88474.0778-3.01832-2.10406z"/>
        <ellipse fill="#000" cx="138.108" cy="302.603" rx="1.10487" ry="1.10489" transform="matrix(1.5175 0 0 1.58678 612.59226 -330.0498)"/>
    </g>
    <g fill="#005121" stroke="#002b0e" stroke-width="1.9397">
        <path d="M827.872 247.944h1.34148c-4.20501 0-1.69202-.29355 5.36438 5.60927 2.95611-2.57535 2.9212-2.92285 5.36591 1.40271 1.41128 2.46268 1.82556-.25071 4.0229-2.80384 1.05922 5.09515 1.73755 10.4378 5.36591 5.60926 4.14431 0 8.48286-.36019 10.7303 1.40272 2.71634 5.27604 1.82708-.89495 4.02443 1.40271 5.90613.74103 5.79384-5.29667 12.2266-6.85806 3.99863 5.22526 5.74983 1.20437 10.7318-1.40113 3.69968 1.08219 7.18691 6.95168 7.89103 1.24563 3.02894-5.16656 3.29299-4.72702 5.3659 0 2.94548 2.77369 4.1868-1.38685 6.70586-2.80384 4.49031 2.74671 9.49808 3.12754 16.0962 1.40271 1.11689 4.67148 3.93338 2.64516 6.70586 1.40113 5.93345 2.60707 8.00333 3.40522 14.7547 0 3.34458-4.13198 1.45073.11583 4.0229 2.80542 5.0017-1.62327 3.62077-1.9676 9.39033-1.40271 5.79839 0 6.2673-.14598 8.04734-4.20655 2.91361 3.04661 3.96676 5.24272 8.04733 1.40271 6.25213.192 4.31883.82513 8.04886-1.40271 2.75882 6.38837 3.4068 1.77243 6.70586 4.20655-2.17307 5.76159-5.51159 8.46388-9.38881 11.2201-2.57977 4.46837-4.19287 9.29377-9.38882 11.2217-3.79073 4.04311-7.83033 6.38678-12.0718 9.8174-5.81508 1.52013-12.2159 1.40271-18.7791 1.40271h-56.3343c-4.00622 2.09296-10.5588 3.09105-16.0962 4.20655-6.18384 0-13.1932.0762-17.4361-1.40271-2.87568-3.00536-7.91987-6.36457-10.7303-9.8174-2.84381-2.39762-2.92575-7.07704-5.3659-9.8174-2.24439-4.01297-2.93789-10.2918-5.36439-14.0256v-9.8174z"/>
        <path d="M957.978 260.567v1.40271c0-3.92093.16541-1.83749-2.68295 5.60927-.57665 1.80893-1.83922 2.23418-4.02442 2.80542m-5.36463-4.2074h1.34148c-4.9668 4.90474-8.30987 7.16431-9.39033 12.6228l9.39033-12.6228c-4.9668 4.90474-8.30987 7.16431-9.39033 12.6228M927.127 259.165c0 .12535-.18817 5.00311-1.34147 7.01197M921.763 268.982v1.40271-1.40271zm-10.731-8.415h1.34148-1.34148zm-75.113 0c.64039 0 3.27933 4.4525 6.70586 7.01198-.85284 4.10341-2.16396 8.85105 0 12.6228M846.649 268.982c.64038 0 3.27933 4.45409 6.70737 7.01356L846.649 268.982c.64038 0 3.27933 4.45409 6.70737 7.01356v1.40272c0-4.3335-.34447-8.87169 1.33996-11.2217 1.49171 2.63882 3.37493 6.88187 4.02443 2.80543 7.55414-.28245 11.2007-2.50076 16.0962-4.20655 0 2.06281-.31716 1.07107 1.34147 2.80384M967.367 261.97h1.34148c-2.52968 2.20404-4.47057 6.69938-6.70738 9.81741M912.374 257.762h10.7303"/>
    </g>
    <path fill="#fff" d="M824.718 268.429c-16.1311 0-21.4775 16.8577-37.6086 16.8577-.31034 0-.6046-.0255-.90714-.0377v1.02053c-.0608 11.6854.85765 22.57 2.53244 32.7327 14.8808-1.08684 20.4088-16.8577 35.9833-16.8577 16.1311 0 21.5153 16.8955 37.6464 16.8955 16.131 0 21.5153-16.8955 37.6464-16.8955s21.5153 16.8955 37.6464 16.8955 21.5153-16.8955 37.6464-16.8955c15.5338 0 21.0768 15.6596 35.8699 16.8199 1.7721-10.4347 2.7084-21.6456 2.6458-33.6777v-.0377c-.3025.0122-.5968.0377-.9071.0377-16.1311 0-21.4776-16.8577-37.6086-16.8577-16.1311 0-21.5153 16.8577-37.6464 16.8577s-21.5154-16.8577-37.6464-16.8577c-16.1311 0-21.5153 16.8577-37.6464 16.8577s-21.5154-16.8577-37.6464-16.8577zm0 65.805c-12.5486-.00001-18.585 10.1721-28.2348 14.7033 3.37126 9.2945 7.44582 17.7549 11.9818 25.5134 4.58242-3.46521 9.4537-6.46339 16.253-6.46339 16.1311-.00001 21.5153 16.8577 37.6464 16.8577 16.131 0 21.5153-16.8577 37.6464-16.8577 16.1311-.00001 21.5153 16.8577 37.6464 16.8577s21.5153-16.8577 37.6464-16.8577c6.64925 0 11.4555 2.86935 15.9506 6.23661 4.53503-7.72309 8.62643-16.1692 12.0196-25.4-9.49735-4.59095-15.5359-14.5899-27.9702-14.5899-16.1311-.00001-21.5153 16.8577-37.6464 16.8577s-21.5154-16.8577-37.6464-16.8577c-16.1311-.00001-21.5153 16.8577-37.6464 16.8577s-21.5154-16.8577-37.6464-16.8577zm75.293 65.806c-16.1311-.00001-21.5153 16.8955-37.6464 16.8955-15.2555 0-20.902-15.1039-35.114-16.7444 18.9944 21.1594 40.5334 33.9695 55.2223 41.0104 4.96772-3.85569 10.1124 4.68691 17.5381 4.68691 7.37272 0 12.4898-8.58651 17.4247-4.7625 14.5266-7.07257 35.8026-19.9033 54.6932-40.8592-13.7469 2.00976-19.4462 16.6688-34.4714 16.6688-16.1311 0-21.5154-16.8955-37.6464-16.8955z"/>
    <g stroke="#522108">
        <g fill="none">
            <path stroke-width=".7371" d="M800.148 342.754c2.64653-.92192 15.4376-5.07293 15.8792-4.61277.44159.46176 24.702 24.9077 24.702 24.9077l-20.2906 4.15101-20.2906-24.4459z"/>
            <path stroke-width=".7513" d="M848.358 374.785c.37408-5.78836 11.2095-38.709 11.2095-38.709m-7.4725 39.101c0-.36216 8.59483-38.7388 8.59483-38.7388M855.039 375.237c.37279-2.17048 7.14479-38.7986 7.14479-38.7986M851.349 364.293c1.86783 0 5.60476-1.44741 5.60476-1.44741M852.47 359.952c0-.36216 5.60477-1.4474 5.60477-1.4474m-4.85877-3.9786l5.97884-1.08524M855.832 349.823c0 .36216 4.10973.36216 4.10973.36216"/>
            <path stroke-width=".7371" d="M914.897 400.376c-.44159-9.91194-13.2326-66.2848-13.2326-66.2848m8.8206 64.4258c0-.62016-10.146-63.8063-10.146-63.8063m5.735 58.8493c-.44007-3.71671-7.498-58.8493-7.498-58.8493m15.879 57.6113c-2.20494-1.85836-8.82126-4.33687-8.82126-4.33687M911.367 382.41c-2.20493 0-6.61632-2.47852-6.61632-2.47852m5.29332-4.95448c0-.62016-6.61633-2.47852-6.61633-2.47852m5.73433-6.81348l-7.05792-1.85835m3.96992-6.19565c0 .62016-4.85147.62016-4.85147.62016M904.75 350.198c-.88167 0-4.85147 1.23819-4.85147 1.23819M948.797 372.677c-2.20493 0-6.61632-1.84543-6.61632-1.84543M952.326 386.053c-.44159-7.38011-13.2326-49.3536-13.2326-49.3536m8.8216 47.9706c0-.46175-10.146-47.5082-10.146-47.5082m5.735 43.8172c-.44007-2.76734-7.498-43.8173-7.498-43.8173m11.467 29.9803c0-.46175-6.61633-1.84542-6.61633-1.84542m5.73533-5.07258l-7.05792-1.38367m3.96992-4.61333c0 .46176-4.85147.46176-4.85147.46176M942.18 348.693c-.88167 0-4.85147.92192-4.85147.92192"/>
        </g>
        <g fill="#dd8b59" stroke-width=".7371">
            <path d="M895.426 391.646c0-.46175 1.32326-115.771 1.32326-115.771s3.9698-.46175 3.9698 0-.44008 115.31-.88167 115.771c-.4416.46175-4.85299.92192-4.41139 0zm43.23-110.699c0 .92351-.88319 97.3219-.88319 97.3219l-3.08813 3.69085.88319-101.013h3.08813zm-76.753 88.56c.44007-2.76893.44007-86.2526.44007-86.2526l-2.64653-.46175-.44007 85.3306 2.64653 1.38367z"/>
            <path d="M845.141 338.141c1.76486 0 31.7599-5.07293 31.7599-5.07293l-.44159 5.07293-29.5534 3.2291-1.76486-3.2291zm.44-26.752c1.76486.46176 36.1713-9.6857 36.1713-9.6857s0 3.2291-.4416 3.2291c-.44007 0-35.7297 9.6857-35.7297 9.6857v-3.2291zm1.325-13.376c-.44159 1.84543.44008 4.1526.44008 4.1526l28.6718-10.1474s1.32327-2.30718 0-2.30718c-1.32326 0-29.5534 9.22554-29.1118 8.30203zm37.934-6.457c.88167 0 29.5534-9.6857 29.5534-9.6857s.44159 4.15101 0 4.15101c-.44008 0-26.9069 8.30203-26.9069 8.30203l-2.64653-2.76734zm-2.206 11.993s-.88167 4.15101-.44008 4.15101c.44008 0 37.493-10.1474 37.493-10.1474v-2.76735l-37.053 8.76379zm1.323 32.748v3.2275l31.7599-4.61118-.88167-2.30717-30.8782 3.69085zm36.613 2.306l.44007 2.76734s31.7599-4.15102 31.7599-4.61277c0-.46016 0-3.22751-.44008-3.22751-.44159 0-31.3198 5.53469-31.7599 5.07294zm-.442-29.519l.4416 3.22751 37.493-10.6076s.88319-2.76734.4416-2.76734c-.4416 0-37.4946 11.5311-38.3762 10.1474zm3.97-14.76s-.44008 2.76734 0 2.76734c.44159 0 27.7901-6.91835 27.7901-7.38011 0-.46016 2.64653-3.22909.44159-2.76734-2.20645.46175-27.3485 8.76378-28.2317 7.38011z"/>
        </g>
        <path fill="#fecf3e" stroke-width=".7371" d="M864.108 303.549c3.9698-1.38367 1.32327-4.61277 2.20494-4.61277.88319 0 3.9698 2.30559 5.73466.46017 1.76486-1.84384 3.08812-7.37853 2.20645-6.91836-.79468.41547-19.8018 7.55232-23.9258 7.63379 2.58255.99754 10.3417 4.63553 13.7798 3.43717zm61.313-6.458s2.20646 5.53469 4.41139 4.61277c2.20494-.92192 4.41139-2.76734 4.41139-2.76734s1.76486 4.61277 4.85147 3.68926c3.08813-.92192 4.85299-5.99644 4.85299-5.99644s3.0866.92351 4.40987.46175c1.32478-.46175 3.08812-7.84027 3.08812-7.84027l-26.0252 7.84027zm-2.646 44.741c-.44159.92192 2.20646 3.2291 4.41139 3.2291 2.20494 0 3.08813-3.2291 3.52821-2.30718.44159.92351.44159 5.07452 6.17625 3.69085 5.73465-1.38367 5.73465-5.53469 5.73465-5.53469s-1.76486 1.38367 2.20494 1.84384c3.96979.46175 7.93959-5.99644 7.49951-5.99644-.44159 0-28.6718 5.53627-29.555 5.07452zm0-29.981s-4.41139 5.07293-3.08812 11.9913c1.32326 6.91994 3.08812 12.9148 3.52972 12.9148.44159 0 5.29306-9.22395 10.5861-9.6857 5.29306-.46175 14.9975 5.07452 14.9975 5.07452s-1.32326-11.071-.88167-16.1439c.44008-5.07452 7.9396-13.8367 7.9396-13.8367l-33.0832 9.68571zm-76.311 29.981c.44159 0 0 4.15102 3.5282 3.2291 3.52972-.92351 4.41139-3.2291 4.41139-3.2291s.88167 5.07293 5.73466 4.61277c4.85146-.46175 7.49799-5.99644 7.49799-5.99644s.4416 4.15101 3.52972 2.76734c3.08813-1.38367 3.9698-4.61276 3.9698-4.61276l-27.7901 4.15101-.88167-.92192zm0-27.213s-3.9698 1.38367-2.64653 9.6857c1.32326 8.30203 4.41139 12.9148 4.85146 12.9148.4416 0 3.9698-7.84027 9.26286-9.22394 5.29458-1.38526 14.5574 4.15101 14.5574 4.15101s-.88319-7.38011.44159-14.2985c1.32327-6.91994 5.73314-11.9929 5.73314-11.9929s-30.8767 8.76378-32.2 8.76378zm39.258-21.679c1.76486.46175 4.85299 5.07293 6.61633 4.15101 1.76486-.92191 4.41139-3.68926 4.41139-3.68926s-.44159 5.53469 3.08813 4.61118c3.5282-.92192 3.96979-4.61118 3.96979-4.61118s2.64653 1.38367 4.85147 0c2.20645-1.38367 4.41139-8.30361 3.52972-8.30361s-25.5836 8.30361-26.4668 7.84186zm-.882 13.377c0 .92192-4.41139 8.30203-3.08812 15.2204 1.32326 6.91835 3.96979 13.3765 4.41139 13.3765.44159 0 7.05792-7.38011 12.7926-8.76378 5.73313-1.38367 14.1143 4.61277 13.6742 4.61277-.44159 0-2.20645-6.91994-2.20645-11.9929 0-5.07452 6.61633-20.7567 6.61633-20.7567l-32.2 8.30362zm0 33.208c0 .46176 1.32327 3.69085 4.41139 3.69085 3.08661 0 3.52821-3.22909 3.52821-3.22909s-.4416 5.53468 4.41139 5.07452c4.85146-.46176 6.61632-5.53628 6.61632-5.53628s.4416 2.76893 4.41139 1.38526c3.9698-1.38526 9.26286-5.99644 8.82127-5.99644-.44008 0-31.7584 5.99644-32.2 4.61118z"/>
        <g fill="#dd8b59" stroke-width=".7371">
            <path d="M846.464 372.734s4.41139 47.5082 55.1386 46.1245c50.7272-1.38367 64.8415-47.9683 64.8415-47.9683s-21.6138-.92351-22.0554-.92351c-.44007 0-17.644 22.1403-39.6995 21.6786-22.0554-.46175-29.1118-5.99644-33.9648-10.6076-4.85147-4.61277-9.26286-11.5311-9.26286-11.5311l-25.5836-10.6092 1.32326 10.1474 9.26286 3.68927zm136.947-4.935c-.4416-1.38367-1.52813-6.13449-1.52813-6.13449v-5.53468l2.44166-5.60451s-38.3762 5.74891-38.3762 6.21066c0-.53157-.23673 10.925-.23673 10.925l37.6994.13805z"/>
            <path d="M976.149 356.13l-.88167 9.6857h6.17473l-.44007-9.6857H976.149zm-6.617.462l-.44159 10.1459 3.9698-.46017.44159-9.6857h-3.9698zm-6.616 10.146v-7.84028l3.96979-1.38367.4416 7.84028-4.41139 1.38367zm-7.5-.46l.88319-6.91836 4.40987.46017.4416 7.38011-5.73466-.92192zm-8.381 0l.4416-5.99644 4.41139-.46175v6.91836l-4.85299-.46017zm-4.41 3.689l41.9044.92351.44159-3.2291-43.2292-.46175.88319 2.76734zm1.764-11.531c4.85299 0 41.4643-7.38011 41.4643-7.38011s1.32327-4.61118 0-4.61118c-1.32326 0-41.4643 8.76378-41.4643 8.76378v3.22751zm-145.564-16.142l33.5232 17.0658-.88168 2.30559s-32.2015-15.6821-32.2015-16.1439c0-.46016.4416-2.30559-.44007-3.22751z"/>
            <path d="M814.263 337.219c0 1.38368 4.85298 29.5189 4.85298 29.5189s3.08813.46175 3.08813 0c0-.46017-5.29458-29.0571-5.29458-29.0571l-2.64653-.46176z"/>
        </g>
        <g fill="none">
            <path stroke-width=".7513" d="M882.044 389.315c.44159-7.66848 13.2326-51.282 13.2326-51.282m-8.8206 51.801c0-.47979 10.146-51.3216 10.146-51.3216m-6.671 51.4006c.44007-2.87547 8.4343-51.4007 8.4343-51.4007M882.486 383.084c2.20494-1.43773 8.82126-3.35527 8.82126-3.35527M885.574 375.416c2.20493 0 6.61632-1.91753 6.61632-1.91753M886.897 369.665c0-.4798 6.61633-1.91753 6.61633-1.91753M887.779 362.476l7.058-1.438m-3.97-4.793c0 .4798 4.85147.4798 4.85147.4798M892.19 350.494c.88167 0 4.85147.95794 4.85147.95794"/>
            <path stroke-width=".7371" d="M919.474 388.989c.44159-7.38011 13.2326-49.3536 13.2326-49.3536m-8.8216 47.9696c0-.46175 10.146-47.5082 10.146-47.5082m-5.735 43.8172c.44007-2.76734 7.498-43.8173 7.498-43.8173m-15.879 42.8953c2.20494-1.38368 8.82126-3.2291 8.82126-3.2291m-5.73326-4.1509c2.20493 0 6.61632-1.84543 6.61632-1.84543M924.326 370.077c0-.46175 6.61633-1.84542 6.61633-1.84542M925.208 363.159l7.05792-1.38367M928.296 357.162c0 .46176 4.85147.46176 4.85147.46176M929.62 351.628c.88167 0 4.85147.92192 4.85147.92192M877.156 384.068c-.44159-7.42463-13.2326-49.6514-13.2326-49.6514m8.8206 48.2594c0-.46454-10.146-47.7948-10.146-47.7948m5.735 44.0818c-.44007-2.78404-7.498-44.0817-7.498-44.0817m15.879 43.1547c-2.20494-1.39202-8.82126-3.24858-8.82126-3.24858m5.73326-4.17642c-2.20493 0-6.61632-1.85656-6.61632-1.85656m5.29332-3.71144c0-.46454-6.61633-1.85656-6.61633-1.85656m5.73433-5.10344l-7.05792-1.39202M868.333 352.05c0 .46454-4.85147.46454-4.85147.46454M867.01 346.482c-.88167 0-4.85147.92748-4.85147.92748"/>
        </g>
        <path fill="#b6b6b4" stroke-width=".737084" d="M834.995 359.359s-8.82127-1.38367-8.38119.92192c.44159 2.30559 4.41139 4.61277 4.85298 5.99644.44008 1.38367-1.32326 6.45661 1.32327 5.99644 2.64653-.46175 5.29306-2.30718 5.29306-3.69085s-.44159-7.84027-.44159-7.84027L834.995 359.359z"/>
        <g fill="none" stroke-width=".7371">
            <path d="M844.699 372.274c1.32326 0 11.4693 2.30559 11.4693 2.30559l10.5861 14.7602"/>
            <path d="M852.199 374.118c.44008.46175 9.26286 31.3643 51.6089 31.3643S956.3 370.4288 956.3 370.4288"/>
            <path d="M962.916 371.351s-20.2906 46.1245-59.1084 42.8954c-38.8178-3.22751-44.9925-18.4495-48.0807-26.2898-3.08813-7.84186-4.85147-14.2985-4.85147-14.2985M951.888 333.99c.44159-1.38367 1.76486-29.0571 1.76486-29.0571M982.765 347.828l-27.3485-45.2026M899.838 277.258c0-.46175 13.6742 5.99644 13.6742 6.45661 0 .46175 48.5208 67.8031 48.9623 67.8031M938.214 283.714l12.351 5.53627 3.9698 10.1459M861.462 282.793c-.44159 0 13.6742 11.0694 13.6742 11.0694l1.76486 9.22553M813.381 350.134c6.17473-2.76734 48.9623-41.9735 48.9623-41.9735M801.912 342.754c5.29458-4.61277 48.0807-42.4336 48.0807-42.4336m32.2013 6.4566l45.4341 78.8724m-5.3601-46.2564s5.35983 18.5828 10.6529 21.3501c5.29306 2.76734 11.4678 7.38011 11.4678 7.38011"/>
            <path d="M921.656 339.779s3.76493 21.8864 9.058 26.0375c5.29306 4.15101 10.5876 8.76378 10.5876 8.76378M885.067 338.251s5.29306 30.4424 15.8807 37.3607c10.5861 6.91835 19.4074 12.9148 19.4074 12.9148"/>
            <path d="M884.627 337.79s11.4678 23.9858 21.1722 31.3659c9.70445 7.37852 22.9371 14.2985 22.9371 14.2985M847.574 339.635c3.08661 5.53469 2.64653 16.1439 6.17474 19.8332 3.5282 3.69085 8.82278 11.9929 8.82278 11.9929"/>
            <path d="M848.456 340.097c1.76486 2.76735 6.68614 16.5469 9.70446 20.7551 2.20645 3.69084 24.702 27.2133 24.702 27.2133"/>
        </g>
        <g stroke-width=".475">
            <ellipse cx="872.054473" cy="389.218617" rx="3.308315" ry="3.45929"/>
            <ellipse cx="888.816847" cy="396.598727" rx="2.867176" ry="2.998061"/>
            <ellipse cx="909.549017" cy="398.444151" rx="2.867176" ry="2.998061"/>
            <ellipse cx="928.074732" cy="391.294124" rx="2.646652" ry="2.536816"/>
            <ellipse cx="942.190575" cy="382.30026" rx="2.426128" ry="2.998045"/>
        </g>
        <path fill="#ff0101" stroke-width=".7371" d="M859.483 283.363c-1.32326.92351-23.3787 6.45819-20.2906 5.99644 3.0866-.46017 20.7322 4.61277 20.2906 3.22909-.44159-1.38367 0-8.30202 0-9.22553zm37.495-6.918c-.88319 0-13.6758 5.07452-13.2342 5.07452s14.5574 4.15102 14.1158 3.22751c-.4416-.92192-.4416-6.91836-.88167-8.30203zm38.376 4.612c-.88319.46175-15.8807 4.15101-13.2342 4.61277 2.64653.46175 12.7926 4.15101 12.7926 3.22909 0-.9235 0-7.38011.44159-7.84186z"/>
        <g fill="#be1017" stroke-width=".5813" transform="matrix(.04915 -1.29622 1.23825 .05145 0 0)">
            <circle cx="-216.002142" cy="726.376815" r="1.8894"/>
            <circle cx="-212.21777" cy="739.051036" r="1.8894"/>
            <circle cx="-219.249357" cy="732.917906" r="1.8894"/>
            <circle cx="-208.970565" cy="732.509881" r="1.8894"/>
            <circle cx="-214.109961" cy="732.713893" r="1.8894"/>
        </g>
    </g>
</svg>
