<svg viewBox="0 0 500 300">
  <defs>
    <g id="s">
      <g id="c">
        <path id="t" fill="#fcd116" d="M0-1v1h.5" transform="rotate(18 0 -1)"/>
        <use href="#t" transform="scale(-1 1)"/>
      </g>
      <use href="#c" transform="rotate(72)"/>
      <use href="#c" transform="rotate(144)"/>
      <use href="#c" transform="rotate(216)"/>
      <use href="#c" transform="rotate(288)"/>
    </g>
  </defs>
  <path fill="#ce1126" d="M0 0h500v300H0z"/>
  <path fill="#007a5e" d="M42 42h416v216H42z"/>
  <path fill="#fcd116" d="M42 42h416L42 258h416z"/>
  <circle fill="#ce1126" cx="250" cy="150" r="36"/>
  <use href="#s" transform="matrix(33 0 0 33 250 150)"/>
  <use x="-100" href="#s2"/>
  <use id="s2" href="#s" transform="translate(250 21)scale(19.5)"/>
  <use x="100" href="#s2"/>
  <use x="-100" y="258" href="#s2"/>
  <use y="258" href="#s2"/>
  <use x="100" y="258" href="#s2"/>
  <path fill="#ce1126" d="M67.749 150.41c4.504 8.39 13.265 17.52 20.916 20.73.123-8.52-2.9-19.44-7.034-28.14z"/>
  <path fill="#fcd116" d="M60.112 121.63c6.529 13.61-16.933 46.08 22.156 53.69-4.822-6.58-7.931-17.44-6.755-26.16 8.201 3.12 16.83 12.25 20.317 19.23 10.23-37.15-26.24-34.89-35.718-46.76"/>
</svg>
