<svg xmlns="http://www.w3.org/2000/svg" xmlns:xlink="http://www.w3.org/1999/xlink" viewBox="0 0 750 375">
    <defs>
        <linearGradient id="linearGradient795">
            <stop offset="0" stop-color="#d5dfff"/>
            <stop offset="1" stop-color="#FFF"/>
        </linearGradient>
        <linearGradient id="linearGradient783">
            <stop offset="0" stop-color="#474747"/>
            <stop offset="1" stop-color="#f50"/>
        </linearGradient>
        <linearGradient id="linearGradient746" x1="215.83" x2="228.97" y1="102.99" y2="102.99" gradientTransform="matrix(.74087 0 0 1.3286 40.513 .006107)" gradientUnits="userSpaceOnUse" xlink:href="#linearGradient783"/>
        <linearGradient id="linearGradient747" x1="109.34" x2="110.94" y1="218.47" y2="173.45" gradientTransform="matrix(1.5101 0 0 .65184 40.513 .006107)" gradientUnits="userSpaceOnUse" xlink:href="#linearGradient783"/>
        <linearGradient id="linearGradient748" x1="125.91" x2="126.02" y1="316.38" y2="337.23" gradientTransform="matrix(1.2315 0 0 .79928 40.513 .006107)" gradientUnits="userSpaceOnUse">
            <stop offset="0" stop-color="#b50000"/>
            <stop offset="1" stop-color="#ffc500"/>
        </linearGradient>
        <linearGradient id="linearGradient794" x1="117.6" x2="78.221" y1="1040.4" y2="1003.7" gradientTransform="matrix(2.5627 0 0 .38409 40.513 .006107)" gradientUnits="userSpaceOnUse" xlink:href="#linearGradient795"/>
        <linearGradient id="linearGradient800" x1="264.72" x2="255.03" y1="245.98" y2="226.38" gradientTransform="matrix(.88634 0 0 1.1105 40.513 .006107)" gradientUnits="userSpaceOnUse" xlink:href="#linearGradient795"/>
        <linearGradient id="linearGradient801" x1="407.87" x2="456.4" y1="149.38" y2="147.35" gradientTransform="matrix(.55904 0 0 1.7607 40.513 .006107)" gradientUnits="userSpaceOnUse" xlink:href="#linearGradient795"/>
    </defs>
    <path fill="#00247d" d="M0 0h750v375H0z"/>
    <path fill="#FFF" d="M0 0v20.963017l333.073285 166.536642h41.924784v-20.962392L41.924784.000625H0zm374.998069 0v20.962392L41.924784 187.499034H0v-20.962392L333.073285 0h41.924784z"/>
    <path fill="#FFF" d="M156.249195 0v187.499034h62.499679V0h-62.499679zM0 62.499678v62.499678h374.998069V62.499678H0z"/>
    <path fill="#cf142b" d="M0 74.999613v37.499807h374.998069V74.999613H0zM168.749131 0v187.499034h37.499807V0H168.74913zM0 187.499034l124.999356-62.499678h27.949856L27.949856 187.499034H0zM0 0l124.999356 62.499678H97.0495L0 13.975553V0zm222.048857 62.499678L347.048213 0h27.949856L249.998713 62.499678h-27.949856zm152.949212 124.999356l-124.999356-62.499678h27.949856l97.0495 48.52475v13.974928z"/>
    <path fill="#6a4c2d" stroke="#000" stroke-width=".828" d="M552.66837 265.55984s-2.08035 5.48964-3.26646 5.48964-5.48964-2.37222-5.48964-2.37222-3.11742 5.04873-4.75065 5.3406c-1.63323.29808-5.93676-.73899-5.93676-.73899s-4.15449 0-4.30353-.59616c-.14904-.58995.14904-1.77606.14904-1.77606s-5.935518 4.74444-7.271289 4.44636c-1.335771-.29187-5.78772-5.93055-5.78772-5.93055l-.742095 2.96838-8.458641-.29808-7.420329-4.75065s-4.155111 6.82479-4.30353 6.67575-7.271289 1.63323-7.271289 1.63323l-.445257-1.33515-4.748787-2.81934s3.709854-5.19156 3.709854-5.3406-1.781028-.7452-1.781028-.7452l-2.670921 2.22939-5.490882 3.55833-5.490882-2.52126 2.374704-4.45257.296838-3.26646 4.30353-6.52671 52.681914-51.20145 25.97022 47.93499-3.85641 14.39478z"/>
    <path fill="#FFF" stroke="#000" stroke-width=".828" d="M590.09604 268.66484l13.71168-.4968-5.8374-2.88144 52.25094-1.96857-7.38369-2.81313-6.53913-8.86167-27.0756-2.03688s-2.03688-1.54629-5.34681-.77625c-.13662-2.10519-2.6703-4.85001-2.6703-4.85001l-16.66764-1.26684-10.40796 7.10424 7.02972 18.00279 8.93619.84456z"/>
    <path fill="url(#linearGradient747)" stroke="#000" stroke-width="1pt" d="M121.32 150.76l2.22-7.56s3.89-6.56 3.89-9.46c0-2.89 2.9-6.33 2.9-6.33s8.89-2.56 10.78 2.89c9.57-14.46 20.8-.67 20.8-.67l3.11-3.67 6.34-7.78s9.01 8.45 9.12 9.89c.11 1.45 1.55.45 1.55.45l9.79-.78s4.64 3.64 3.67 10.56c3.45 2.04 6.56 14.01 6.56 14.01l-80.73-1.55z" transform="matrix(.621 0 0 .621 461.4 21.482)"/>
    <path fill="#656263" stroke="#000" stroke-width=".828" d="M590.10225 170.96912c1.04949-.63963 4.35321-1.68912 3.94956-6.5205s-4.58919-5.39649-6.92415-5.23503c-2.34117.16146-4.43394 2.1735-4.43394 2.1735l-7.73145-4.91211s3.86883-24.4053 7.97364-25.93296c3.89988-2.81313 4.58919-4.03029 4.58919-4.66992 0-.64584-1.44693-2.26044-1.44693-2.26044l-25.2126-2.9808-23.84019 2.81934s-1.85058 2.81934-1.60839 3.94956c.24219 1.12401.32292 2.33496 4.58919 5.63868 4.72581 3.63285 7.97364 24.48603 7.97364 24.48603s-6.68196 3.29751-7.08561 2.89386c-.40365-.39744-2.41569-.80109-3.46518-.63963-1.04328.16146-4.50846 1.93131-4.50846 6.5205 0 4.5954 3.46518 7.25328 3.46518 7.25328s22.7907-2.65788 26.17515 3.62043c3.30372-7.56999 24.9642-4.91211 27.54135-6.20379z"/>
    <path stroke="#000" stroke-linejoin="round" stroke-opacity=".97854" stroke-width=".77625" d="M614.65659 145.60127s.25461-2.65167 2.14245-3.9123c1.89405-1.26063 14.50656-1.89405 17.53704 0 3.02427 1.89405 4.1607 11.22768 4.1607 11.22768s1.89405 3.27888 2.01825 5.67594.37881 4.0365.37881 4.0365 10.09125 13.12173 10.21545 24.97662c1.13643 8.073.88182 29.64033-2.26665 37.83753-.13041 10.22166-4.41531 16.90362-4.41531 16.90362s1.00602 1.76364.88182 3.65769c-.13041 1.89405-1.13643 3.65769-1.13643 3.65769l14.75496 7.31538-5.42133-2.01825s5.55174 4.66992 5.42133 4.54572c-.1242-.13041-6.17895-2.90628-6.17895-2.90628l3.65769 3.65769c-.1242-.1242-8.95482-4.0365-8.95482-4.0365s4.1607 3.9123 3.9123 3.7881c-.25461-.1242-6.68817-3.15468-6.68817-3.15468s4.0365 4.29111 3.9123 4.0365-5.80014-2.52126-5.80014-2.52126l.2484 2.14245s-4.53951-.25461-4.53951-3.65769c-2.27286-1.26063-3.78189-3.03048-3.78189-3.03048l-10.47006-1.76364-11.8611-35.44668 2.77587-59.91408.75762-3.02427-1.26063-8.073z"/>
    <path fill="#fb0" stroke="#000" stroke-width=".822394" d="M606.73263 337.0742s-6.07338-12.77397-9.09765-12.95406c-2.7324-5.21019 9.49509-47.79216 33.14898-50.22027 13.00374 1.06812 1.06812 14.99094-7.48305 10.70604 1.06812 3.74463 5.3406 9.10386 5.3406 9.10386s-16.92225 7.31538-21.90888 43.36443z"/>
    <path fill="#fb0" stroke="#000" stroke-width=".828" d="M525.30711 338.9372s5.0301-14.54382 8.07921-14.72391c3.05532-.18009-8.07921-48.46905-32.311872-48.82923-13.105584 1.08054-1.077435 15.07788 7.539561 10.76814-1.076814 3.77568-5.385312 9.15975-5.385312 9.15975s17.054523 7.35885 22.078413 43.62525z"/>
    <path fill="#00713d" stroke="#000" stroke-width=".828" d="M547.53891 248.10353c-.0621-.11799-6.01749 1.86921-2.16108 8.35245.29187-2.50884 2.97459-4.03029 2.97459-4.03029s-4.08618 4.85001.23598 8.93619c.52785-3.85641 2.9808-5.07978 2.9808-5.07978s-3.03669 8.93619.05589 10.7433c.35397-3.56454 2.62683-5.13567 2.62683-5.13567s-2.74482 7.99848-.29187 9.80559c.29187-3.03048 2.33496-4.37805 2.33496-4.37805s-1.22337 8.29656 1.9872 8.8803c.0621-2.92491 2.39706-5.78151 2.39706-5.78151s-1.0557 6.7689 3.96819 7.06698c.0621-2.57094.9936-5.48964.9936-5.48964s2.27907 7.17876 5.60763 6.01128c-.05589-2.09898.05589-6.07338 0-6.07338-.0621 0 2.09898 6.831 6.07338 5.55174-.58374-1.93131.22977-4.21038.22977-4.21038s2.10519 4.26627 5.8995 2.86281c.64584-1.28547-.17388-3.79431-.17388-3.79431s5.54553 5.72562 7.24086 2.27907-4.44015-4.61403-4.44015-4.61403h4.14828s-1.34136-3.50244-6.94899-4.26627c1.9251-.87561 3.9123-.22977 3.9123-.22977s-1.16748-4.38426-6.8931-4.85001c2.22318-.75762 4.67613-.22977 4.67613-.22977s-.76383-4.14828-7.06698-5.31576c.9936-1.11159 3.67632-.75762 3.67632-.75762s-2.50884-3.9123-5.37165-3.68253c-2.86281.23598-28.73367-2.62683-28.67157-2.57094z"/>
    <path fill="none" stroke="#3ec26d" stroke-linecap="round" stroke-width=".77625" d="M573.0558 269.18648s2.27907 1.11159 2.22318 2.10519m-.87561-3.9123s2.9187 2.04309 2.86281 3.55833m-.29808-4.61403s2.34117 1.45935 2.45295 3.73842m1.45935-2.80071s1.17369 2.50884.76383 2.97459m1.57734-1.63323c.17388 1.9872-.18009 2.16108-.18009 2.16108m-28.61568-14.7177s2.74482 1.75122 2.51505 4.20417m-2.68893-2.09898s1.28547 1.22337.9936 2.04309m2.39706-4.08618s1.80711 2.50884 1.22337 4.26006m1.86921-2.62683s.81972 1.57734.0621 2.45295m1.39725-1.69533s.9936 1.57734.11799 2.10519m-1.22337 3.09258s2.56473.58374 2.9187 2.50884m-1.40346-4.26006s2.68893.17388 2.9808 3.03669m.58374-4.03029c.05589 0 1.80711 3.09879 1.51524 4.08618m1.93131-3.79431s.69552 2.9808.17388 3.9123m2.04309-2.74482c0 .0621.05589 3.44655.05589 3.44655m-3.44034-8.11647s1.68912.63963 1.57113 2.27907m0-3.80052s2.16108 1.22958 1.93131 3.56454m.58374-4.55193s1.86921 2.21697 1.16748 4.66992m2.09898-4.14828s-.69552 2.74482-.40986 3.85641m2.39706-1.9872s-1.22337.93771-.58374 2.10519m-10.04157 8.58222s.40365 2.10519 0 2.45295m-2.68893-3.67632s1.34136 2.33496.87561 3.50244m-3.73842-3.62043s1.52145 1.75122 1.45935 3.15468m-3.79431-2.80692s1.40346 1.34757 1.28547 2.10519m-2.50884-.0621s1.34136 1.40346 1.27926 1.69533"/>
    <path fill="#FFF" stroke="#000" stroke-width=".828" d="M529.00206 173.49038c6.43977-.11799 12.87954-.22977 19.31931-.34776 0 0 12.76155 0 14.14017 4.14207 2.41569-5.52069 13.45086-5.17293 13.45086-5.17293 6.66954-.22977 13.33908-.45954 20.00241-.68931.11799 16.09632.22977 32.19264.34776 48.28896-3.90609 18.73557-17.47494 31.96287-32.42241 37.59534-17.8227-5.75046-29.08764-20.80971-32.76396-37.9431-.69552-15.28902-1.38483-30.58425-2.07414-45.87327z"/>
    <path fill="#006b00" stroke="#000" stroke-width=".828" d="M535.88274 173.31029l28.13751 74.97954 25.41753-76.61277c-7.8867.50922-24.80274-1.242-26.90172 5.94918-3.25404-6.43356-21.0519-3.83778-26.65332-4.31595z"/>
    <path fill="#ffc900" stroke="#006b00" stroke-linecap="round" stroke-width=".427981" d="M555.03438 213.90506c1.08675.56511 1.0557-20.35017 2.47779-20.99601.40365-1.73259.60858-2.49021 1.1178-4.32837-1.22337-2.16729-6.70059-2.06172-8.73126-.21735.91287 2.9187 1.31652 3.89367 1.31652 3.89367 2.74482 4.44015 2.19834 22.12002 3.81915 21.64806z"/>
    <path fill="#cdad56" stroke="#000" stroke-linejoin="round" stroke-width=".77625" d="M547.49544 52.251308s1.99341-2.259198 2.08035-2.80071c.09315-.542133 9.03555-.903555 14.36373-10.841418 2.9808-5.239998 0-2.168532 0-2.168532l-.18009-2.529954s3.70737-3.522933 2.35359-5.420709c-1.35999-1.896907-.90666 2.439909-3.07395 2.349243s-.9936-4.697865-.9936-4.697865-.18009-.542133-.81351-.813137c-.90666.090355-.63342 1.716568-1.44693 1.897217-.81351.18071-1.53387-3.794497-1.53387-3.794497s-1.35378-1.806861-2.53368 3.884852c.63342 6.053384 4.52088 4.878452 4.52088 8.854218 0 3.975021-3.43413 7.046487-4.42773 7.137153-.9936.090045-.63342-3.342843-.63342-3.342843s-.54027-1.626399-.90045-1.626399 1.9872-.361422 1.62702-4.878576c-.81351-5.420709-1.44693 1.264977-2.89386.9936-1.44693-.270756-.36018-4.96862.18009-5.510754s-.63342-2.80071-3.79431 2.981421c-.27324 2.80071-.63342-.722844-1.26684-.542133-1.08054 2.258577-.90045 3.884976.63342 5.962842 2.26044 2.077866 3.70737 4.155732 3.61422 5.239998-.08694 1.084266-1.26684 3.523554-2.88765 3.523554-1.62702 0 .08694-2.98142 0-3.975642-.09315-.9936-2.80071-4.607199-2.80071-4.607199s-1.90026-3.072087-1.72017-3.162132c.18009-.090666-.18009-.542133-1.08054 2.62-.90666 3.162131-1.99341-2.077867-1.99341-2.077867s-1.26063 3.884355 1.44693 6.233598c-2.07414-.270756-2.25423.542133-2.25423.542133 0 1.084266 2.80071 1.535733 3.16089 3.432888.36018 1.897776-2.89386 2.981421-2.89386 2.981421s1.35999 1.897155 5.14809-1.806489c.09315 2.348622-1.44072 3.975021-1.44072 3.975021 1.26063.571941 2.25423.511704 2.43432 1.987821z"/>
    <path fill="#cdad56" stroke="#000" stroke-linejoin="round" stroke-width=".682417" d="M535.10028 52.251308s-1.68912-2.506977-1.76364-3.000672c-.08073-.493074-8.30898.623484-12.201408-9.413118-2.532438-4.768038 0-1.972917 0-1.972917l.153387-2.302047s-2.694519-3.296268-1.543806-5.022648.67689 2.219454 2.157354 2.227527c1.840023-.081972.843939-4.274964.843939-4.274964s.152766-.493074.690552-.739611c.765072.081972 1.081782 2.555415 1.771092 2.71998s2.11761-2.910627 2.56473-3.543053c.63342-.09048.60858-2.547529 1.60839 2.631425-.53406 5.50827-5.09841 4.439529-5.09841 8.056854 0 3.616704 2.91249 6.411825 3.75705 6.494418.84456.081972.54027-3.041658.54027-3.041658s.45954-1.479843.76383-1.479843c.3105 0-2.68272.574425-2.37222-3.535974.68931-3.848337 2.21697.247779 3.44655.000621 1.22958-.246537-.14283-4.069413.21114-4.653153.08073-.58374 1.88784-3.090717 2.58957 2.441772.22977 2.548584 1.62081-2.193372 2.15487-2.028807.92529 2.054889-.40365 4.799709-1.70775 6.690654-1.91889 1.890324-2.78829 3.96198-2.70756 4.948749.07452.986148.52785 2.212002 1.91268 2.212002 1.37862 0 .46575-1.718928.54027-2.623104s2.37843-3.83157 2.37843-3.83157c.45333-.722223.07452-2.072277.55269-2.696382.75141.008073 1.06191-1.035207 1.82574 1.841886.77004 2.877093 1.68912-1.890945 1.68912-1.890945s1.07433 3.535353-1.22958 5.672835c1.76364-.246537 1.91889.493074 1.91889.493074 0 .986769-.83835 1.39725-1.14885 3.12363s.91908 2.713149.91908 2.713149-1.14885 1.72638-4.37184-1.644408c-.08073 2.137482 1.22958 3.617325 1.22958 3.617325-1.08054.521019-1.91889.46575-2.07414 1.808973z"/>
    <path fill="#ffc900" stroke-width="1pt" d="M584.74302 184.4945c-1.68291-1.52766-1.88163-.19251-2.70756-.53406-.40986-.16767-.72657-.54648-1.08054-.89424-.30429-.31671-.67068-.44712-1.07433-.61479-.15525.45333-.30429.90045-.45954 1.35378s.42849 1.20474.41607 1.88163c-.11799 1.00602-.52785 1.84437-1.79469 2.18592.36018-.71415.56511-.7452.45333-1.62081-.04968-.4347-1.27305-1.21095-1.12401-1.62081.22356-.66447.60858-1.4283.32292-2.09277-.51543.35397-1.19853.16767-1.71396.38502-.44091.19251-.46575 1.00602-1.07433 1.34136-.621.29187-1.99341.14904-3.14226-.50301.70173-.52785 1.27926-.17388 1.98099-.70173.34776-.26703.33534-1.40346.6831-1.67049.35397-.26703 1.19232-.54648 1.54008-.81351-.31671-.36018-.29808-.92529-.61479-1.28547-.3105-.36018-1.70775-.28566-2.02446-.63963-.63342-.72036-.50922-1.66428-1.14264-2.37843 1.63323.58374 1.39725 1.37862 1.80711 1.31652.77004-.3726 1.54008-.44091 1.94373-.27324.40986.17388 1.1799 1.1799 1.58355 1.34757.15525-.45333.37881-1.02465.52785-1.47798.15525-.45333-.6831-1.23579-.53406-1.68912.3105-.90045 1.06812-1.70154 1.37241-2.6082.11178.87561.25461 1.60839.36639 2.47779.05589.4347.91287.66447.96876 1.09917.05589.44091-.44712 1.44693-.39744 1.88784.47196-.09315 1.14885-.03105 1.6146-.1242.47196-.09315.78246-1.1799 1.24821-1.27305.93771-.1863 1.6146-.13041 2.56473.04968-.70173.65205-1.242.60858-1.68291 1.20474-.34776.26703.13662 1.14264-.87561 1.75743-.37881.22356-1.37862-.04347-1.73259.22356.31671.36018.63342.71415.95013 1.07433.3105.36018 1.72638.52785 2.04309.88803.62721.71415.96255 1.57113.78867 2.34117zm-43.26507.73899c1.68291-1.52766 1.88163-.19251 2.71377-.53406.40365-.17388.72036-.55269 1.07433-.89424.30429-.31671.67068-.44712 1.07433-.621.15525.45333.3105.90666.45954 1.35999.15525.45333-.42228 1.19853-.40986 1.87542.11178 1.01223.52164 1.84437 1.78848 2.19213-.36018-.71415-.56511-.75141-.45333-1.62081.05589-.4347 1.27305-1.21095 1.12401-1.62702-.22356-.65826-.60858-1.4283-.32292-2.09277.52164.36018 1.19853.17388 1.72017.38502.4347.19872.46575 1.01223 1.06812 1.34757.62721.29187 1.99962.14904 3.14226-.50301-.70173-.53406-1.27926-.17388-1.98099-.70794-.34776-.26082-.32913-1.40346-.6831-1.66428-.34776-.26703-1.18611-.55269-1.54008-.81972.31671-.35397.29808-.92529.61479-1.28547.31671-.35397 1.71396-.27945 2.02446-.63963.63342-.71415.51543-1.65807 1.14264-2.37843-1.63323.58374-1.39104 1.37862-1.8009 1.32273-.77625-.3726-1.54629-.44712-1.94994-.27324-.40365.16767-1.1799 1.17369-1.58355 1.34757-.15525-.45333-.3726-1.02465-.52785-1.47798s.68931-1.23579.53406-1.68912c-.30429-.90666-1.06812-1.70154-1.37241-2.6082-.11178.8694-.25461 1.60218-.36639 2.47779-.05589.4347-.91287.66447-.96876 1.09917-.04968.4347.45333 1.44693.39744 1.88163-.47196-.09315-1.14885-.03105-1.6146-.11799-.46575-.09936-.77625-1.18611-1.24821-1.27926-.93771-.1863-1.60839-.13041-2.56473.04968.70173.65826 1.242.60858 1.68291 1.21095.34776.26703-.13662 1.14264.87561 1.75743.37881.22356 1.38483-.04347 1.73259.22356-.31671.35397-.63342.71415-.94392 1.07433-.31671.36018-1.73259.52785-2.04309.88182-.63342.72036-.96876 1.57734-.79488 2.34738z"/>
    <path fill="#ffc900" stroke="#006b00" stroke-linecap="round" stroke-linejoin="round" stroke-width=".427981" d="M583.23399 189.32588c-1.52766 1.18611-11.37051 3.67632-11.47608 12.22749-.09936 8.55117 1.72638 10.50111-.09936 10.71846-3.55212 0-4.06134-9.52614-3.96198-13.74894.10557-4.2228.20493-3.57075.20493-3.57075s2.43432.64584 2.2356 2.70756c-.20493 2.05551 2.43432-5.0922 1.52145-7.03593 1.62081 1.62081 3.75705.97497 3.75705.86319 0-.10557-1.21716-1.40346-1.72638-2.37843s1.82574.54027 1.82574.54027.09936-1.62702-1.93131-1.51524c-2.63925 0 .40986-.8694.40986-.8694s1.52145 1.40967 2.53989-.10557c-1.1178-1.19232-2.74482-1.84437-2.74482-1.84437s-1.42209-2.70135-3.34719-3.24162c-2.2356-.54648-1.93131.96876-4.4712.75762-.50301.96876-.50301 1.08054.50922 1.40346-1.72638 1.19232-.81351 3.57075-.81351 3.57075s2.74482-1.18611 2.63925.75762c-.09936 1.94994-1.62081 1.62702-2.63925.4347-.91287-.54027-1.21716.54027-1.21716.54027l1.42209 1.51524s-2.73861-.10557-3.45276 1.73259c1.52145-.10557 2.33496.32913 2.33496.32913s-3.14847 1.40346-3.45276 2.16108-.40365-.86319-.50301-.86319c-.10557 0-3.04911-1.08675-3.04911-1.08675l-1.01844 4.68234s2.03688 2.03067 3.14847 1.37862c1.1178-.64584 3.14847-2.59578 4.36563-2.05551-3.55212 2.70756-7.10424 6.60123-9.03555 7.14771-.50301-.4347-2.22939-2.16729-2.94354-1.3041-.70794.8694-.19872 1.94994.71415 1.84437.91287-.11178-2.94354.86319-2.13624 2.49021.81351 1.62081.71415 1.51524 1.42209 1.08054.71415-.4347-.60858-.54027 2.03067-1.29789s2.53989-1.51524 2.53989-1.51524-.50922 1.18611-1.93131 1.51524c-1.42209.32292-2.53368.32292-2.22939.75762.30429.42849.91287 1.18611.70794 1.62081s2.94354-2.27286 3.75705-.10557c2.13003-.11178 3.55212-2.70756 2.53989-4.2228.09936 1.62081 1.1178 2.16729.50301 2.92491-.60858.75762 4.77549-2.49021 2.13624-4.44015.70794 1.62081.81351 2.92491.81351 2.92491s1.21716-.11178 1.52145-.54648c.30429-.42849-.60858 1.19232-.20493 1.51524.40365.32913 2.33496 2.16729 1.52145 3.46518-.50301-.75762-.60858-1.94994-1.21716-1.83816-.60858.10557-3.14847 1.94994-4.66992 2.05551s1.82574 5.63247 1.82574 5.63247-2.33496-.32913-2.63925-.11178-1.82574-1.94994-2.13003-.64584c-.50922 1.62081.50922.96876.50922.96876s-1.32273-.64584-2.03067.11178c-.71415.75762-1.42209 1.51524-.91287 1.83816.50301.32292 2.73861.32292 3.0429.21735s-2.53989.21735-2.73861.54027c-.20493.32292-.60858 1.51524 0 1.94994s2.13003-.21735 2.22939-.54027c.10557-.32913.20493 1.18611.20493 1.18611s2.63925.21735 2.63925-2.484c0-2.70756.20493 1.94373.20493 1.94373s2.63925.4347 2.73861-2.27286c.10557-2.70135.30429 1.84437.30429 1.84437s1.72638-.54648 1.72638-.97497c0-.4347-.09936 5.40891-1.31652 7.03593-1.93131-1.3041-3.14847.86319-3.14847.86319s.09936 3.13605-.10557 3.89367c-.19872.75762 1.32273-.42849 1.42209-.75762.10557-.32292 1.93131-1.18611 2.03067-1.40346.10557-.21735.60858-1.29789.60858-1.29789s-.40365 1.51524-1.11159 1.73259c-.71415.21114-1.42209.96876-1.1178 1.62081s1.42209 1.08054 1.82574 1.73259c.40365.64584 1.82574-3.7881 1.82574-3.7881l.10557.97497s1.82574-.4347 2.03067-1.29789c.19872-.8694-1.93131-1.62702-.20493-3.03048 1.72638-1.40967 0 1.29789 0 1.29789s.60858 2.05551 1.01223 2.05551c.40986 0 1.42209-3.89988.40986-4.86864-1.01844-.97497 1.52145 1.18611 1.52145 1.18611s1.42209-4.00545-.09936-4.54572c-1.52766-.54027-2.2356-.75762-2.2356-.75762s.81351-1.08054.40365-1.18611c-.40365-.11178 2.13624 2.37843 2.53989 1.72638.40986-.64584 1.01844-2.59578-1.9251-3.67632-2.94975-1.08054-.10557-4.11723-.10557-4.11723s1.83195 2.16729 3.14847.97497c1.31652-1.18611-.09936-1.18611-.09936-1.18611s3.75084-2.38464 3.85641-3.57696c-.71415-.10557-1.93131.11178-1.93131.11178s2.13624-1.40967 1.62702-3.68253c-.81351 1.19232-1.93131 1.19232-1.93131 1.19232s1.83195-1.83816 1.52145-3.57075c-1.11159.86319-1.01223 1.51524-1.72638 1.29789-.70794-.21735-1.9251-7.03593.91908-7.47063 2.83797-.42849 1.31652 3.35961 1.41588 3.35961.10557 0 4.26627-1.73259 0-4.54572 1.01844-.32913 3.14847 1.62081 3.14847 1.62081s-.91287-4.76307-5.48343-1.83816c1.1178-1.19232 1.83195-1.94994 2.74482-1.73259s4.1607-.11178 4.1607-1.08054c-.8073-.65205-2.53368.32292-3.45276 0-.91287-.32913 6.50187-.8694 5.89329-4.54572z"/>
    <path fill="none" stroke="#006b00" stroke-linecap="round" stroke-width="1.25" d="M481.3 118.54s12.25-6.43 18.37 1.54m4.9 12.24c-.31 0-4.29 3.98-5.21 3.98m13.48 8.88s11.32.92 18.67-10.41" transform="matrix(.3316 0 0 .35352 391.45056 150.22772)"/>
    <path fill="none" stroke="#006b00" stroke-linecap="round" stroke-width="1.25" d="M525.08 141.81s.92 6.13 2.76 6.13c1.83 0-3.06 1.53-4.9.3 2.14 2.76 3.37 7.66 0 9.49" transform="matrix(.3316 0 0 .35352 391.45056 150.22772)"/>
    <path fill="#e80000" stroke="#006b00" stroke-linecap="round" stroke-width="1.25" d="M519.26 218.97s-3.98 4.28-8.88 4.59" transform="matrix(.3316 0 0 .35352 391.45056 150.22772)"/>
    <path fill="none" stroke="#006b00" stroke-linecap="round" stroke-width="1.25" d="M523.86 199.37s-2.45-12.24-.92-15.31c.92-3.98 4.9-5.51 7.96-10.71m-8.27 17.14s-3.06 7.35-16.53 4.9m20.21-23.27s.91 9.8-11.33 6.13m-3.68-50.21s-4.9 4.28-3.06 10.1" transform="matrix(.3316 0 0 .35352 391.45056 150.22772)"/>
    <path fill="#006b00" stroke-linecap="round" stroke-width="1.25" d="M567.08668 191.703024s2.132158-.86613 2.54002-1.300964c.404547-.431298 1.117477-1.297429 1.31975-1.947911.202273-.646947-1.422544-1.62267-.610136-3.029338.507341-.649421 1.216955-.7576 2.437226 0 1.216955.756186-1.117476-2.380976-2.334431-2.489154-1.220271-.108532-2.03268.865777-2.334432.649068-.305067-.216356.099479.86613-.407862.86613s1.014682.865778.915203 1.408436c-.102794.54089 1.621502 2.37921 1.522023 2.814042-.102794.431298-2.54002 2.9201-3.047361 3.029691z"/>
    <path fill="#ffc900" stroke="#ffc900" stroke-linecap="round" stroke-linejoin="round" stroke-width="1.25" d="M534.27 97.112c2.79-.636 3.24.07 2.75 2.449-1.31-.66-1.79-1.217-2.75-2.449z" transform="matrix(.3316 0 0 .35352 391.45056 150.22772)"/>
    <path fill="#e80000" stroke="#006b00" stroke-linejoin="round" stroke-width="1.25" d="M514.71 233.52s-1.03 6.41 1.49 6.94c-.13-2.48.54-4.17 1.16-4.83-.54-.25-2.53-2.07-2.65-2.11zm-5.68-7.89c-2.32-.33-6.23 1.59-5.11 3.91 1.89-1.62 3.63.13 4.95-1.52.4-.46.29-1.81.16-2.39zm-.02-4.58s-3.65-.58-4.16 1.95c2.52-.32 3.27-.59 4.11-.06.24-.54.01-1.76.05-1.89z" transform="matrix(.3316 0 0 .35352 391.45056 150.22772)"/>
    <path fill="#e80000" stroke="#006b00" stroke-linejoin="round" stroke-width="1pt" d="M493.54 184.94s2.19.82 2.81 3.06c1.74-1.08 2.57-5.83-2.81-3.06zm-5.42 5.45c.09-.04 4.59-2.77 5.05-.16-.95.95-1.37 1.57-2.11 1.78-.58 0-1.74-1.78-2.94-1.62zm-.45 8.85c.08-.04 2.89-2.52 3.97-.87 1.07 1.66-.87 1.57-.87 1.57s-.99-.45-3.1-.7zm-3.97-49.28c-.04 0-3.6-1.37-5.09 1.11 2.36.29 3.19 1.12 4.26 1.95-.29-1.04-.78-2.61.83-3.06zm-6.9 18.56s.16-4.17 2.14-5.87c1.12.62 1.45 1.61 2.2 2.85-1.49.33-3.48.42-4.34 3.02zm9.5-2.98s-3.92 1.82-2.64 3.81c1.28-1.37 2.69-.95 2.69-.99s0-2.77-.05-2.82z" transform="matrix(.3316 0 0 .35352 391.45056 150.22772)"/>
    <path fill="#ffc900" stroke="#006b00" stroke-linejoin="round" stroke-width="1pt" d="M480.64 125.6c-1.41 1.58 1.74 5.01 5.04 4.51.83-3.72-4.21-5.66-5.04-4.51z" transform="matrix(.3316 0 0 .35352 391.45056 150.22772)"/>
    <path fill="none" stroke-linejoin="round" stroke-width="1pt" d="M550.815295 192.088364c-.228801.618665.67977 1.488332 1.207007 1.2444.212221-.63634-.968259-1.735797-1.207007-1.2444z"/>
    <path fill="#e80000" stroke="#006b00" stroke-linejoin="round" stroke-width="1pt" d="M484.28 122.75s.62 2.94 3.47 2.15c-.45-2.27-2.44-3.97-2.44-3.97-.12.67.41 1.7-1.03 1.82zm1.9 8.52s1.57 1.69 4.67-1.78c-1.4.41-3.88-.83-3.88-.83s0 2.4-.79 2.61z" transform="matrix(.3316 0 0 .35352 391.45056 150.22772)"/>
    <path fill="#ffc900" stroke="#006b00" stroke-linejoin="round" stroke-width="1pt" d="M480.46 118.86c-1.4 1.57.59 3.76 3.89 3.27.83-3.72-3.06-4.42-3.89-3.27z" transform="matrix(.3316 0 0 .35352 391.45056 150.22772)"/>
    <path fill="url(#linearGradient748)" d="M144.62 266.62s7.04-2.01 10.78 1.01c3.73 3.01 3.73.28 3.73.28s5.46 2.01 7.04 1.58-1.15.15 1-1.15c2.16-1.29-4.31.29-4.88-2.44-1.01-1.72.14-3.88-2.15-3.16-1.58-2.01 1-3.44.43-5.6-1.58 1.15-2.45-.43-3.74 2.44-3.01-.57-.43-4.74-3.73-5.17 0 3.02-2.44 3.16-2.59 4.89-1.43 1-7.75 4.74-5.89 7.32z" transform="matrix(.621 0 0 .621 461.4 21.482)"/>
    <path fill="#c01500" stroke="#000" stroke-width=".828" d="M500.910504 329.23718c2.835486-.6831 18.199026 3.39687 24.123366 9.74349-1.26063-11.30841-4.391712-19.97136-4.391712-19.97136s-9.155403-2.61441-10.412307-1.35378c-1.843128 1.93752-7.379343 7.75629-9.319347 11.58165zm-4.683582-52.23852c-1.076814.18009-2.154249.90045-3.231063 2.69514-1.256904 3.04911-2.154249 10.76814-3.94956 12.56283s-3.411153 1.97478-3.411153 3.59559c0 1.6146.18009 5.38407 5.026995 6.81858 4.846905.18009 12.566556-7.71903 12.566556-7.71903s3.94956-4.30974 5.564781-8.97345c-9.334872 3.2292-15.977088-5.39028-12.566556-8.97966z"/>
    <path fill="#c01500" stroke="#000" stroke-width=".822394" d="M631.23729 327.43628c-2.81313-.67689-18.35055 3.37824-24.23142 9.6876 1.24821-11.2401 4.35942-19.85958 4.35942-19.85958 1.08675-.29187 8.98587-2.59578 10.23408-1.34136 1.82574 1.9251 7.71282 7.71282 9.63792 11.51334zm4.35321-51.93423c1.06812.18009 1.44693 1.58355 2.32254 3.37203 1.242 3.03048 2.52747 7.452 4.30974 9.23427 1.78227 1.78848 3.38445 4.42773 3.38445 6.03612s-.3726 3.77568-5.18535 5.20398c-4.80654.18009-11.78037-5.99886-11.78037-5.99886s-3.91851-4.27869-5.52069-8.92377c9.26532 3.21678 15.26418-5.05494 12.46968-8.92377z"/>
    <path fill="#fb0" stroke="#000" stroke-width=".828" d="M490.84161 319.36949s9.69381 6.63849 9.8739 9.69381c26.03232-38.60136 92.45448-50.63013 130.32927-2.69514 5.0301-6.6447 10.23408-8.79336 10.23408-8.79336-39.84957-52.06464-119.20095-45.60003-150.43725 1.79469z"/>
    <g fill="#1e5aa6" stroke="#000" stroke-width="1pt">
        <path stroke-width=".828" d="M589.599236 171.689508l3.79431-.09315-6.77511 8.58222 8.12889 9.48888-15.99075 20.14524 15.0903 18.15804c-1.65807 4.06755-3.58317 7.76871-6.1479 11.1159l-8.66916-9.58203 15.71751-19.59876-12.9168-14.63697 7.76871-23.57937zm-54.20709 1.71396l-4.06755.09315 7.58862 8.21583-8.03574 10.02915 16.71111 18.16425-13.82346 18.51822c1.65807 4.06755 4.0365 8.58222 6.59502 11.9232l8.22204-10.38933-16.8912-18.79146 12.37653-15.71751-8.67537-22.0455z"/>
        <path stroke-width=".828" d="M554.183606 222.189228l-5.9616 7.9488 21.31893 24.66612c3.76326-1.90026 6.71922-4.06755 9.94221-6.68196l-11.1159-12.82986 4.52088-13.28319 6.50187 7.49547-20.32533 25.93296c-3.40308-1.44693-7.16634-3.70737-10.56942-6.50808l10.74951-13.63716-5.06115-13.1031zm-6.59502-12.37653l3.88746 4.88106-2.53368-6.59502-1.35378 1.71396z"/>
        <path stroke-width=".80191" d="M575.415596 214.128648c.08073-.09315 3.13605-4.1607 3.13605-4.1607l-1.18611-1.62081-1.94994 5.78151z"/>
    </g>
    <g font-family="Timmons" font-size="14" font-weight="bold">
        <text x="-328.34363" y="362.39716" transform="matrix(.403 -.473 .473 .403 461.4 21.482)">
            <tspan x="-328.34363" y="362.39716">L</tspan>
        </text>
        <text x="-292.33514" y="384.26642" transform="matrix(.436 -.442 .442 .436 461.4 21.482)">
            <tspan x="-292.33514" y="384.26642">E</tspan>
        </text>
        <text x="-239.78038" y="451.6806" transform="matrix(.4737 -.33822 .35254 .46837 461.4 21.482)">
            <tspan x="-239.78038" y="451.6806">O</tspan>
        </text>
        <text x="-188.5262" y="429.95776" transform="matrix(.51446 -.3478 .3478 .51446 461.4 21.482)">
            <tspan x="-188.5262" y="429.95776">T</tspan>
        </text>
        <text x="-115.42612" y="451.47876" transform="matrix(.56 -.268 .268 .56 461.4 21.482)">
            <tspan x="-115.42612" y="451.47876">E</tspan>
        </text>
        <text x="-94.110794" y="453.04584" transform="matrix(.567 -.252 .252 .567 461.4 21.482)">
            <tspan x="-94.110794" y="453.04584">R</tspan>
        </text>
        <text x="-68.37056" y="454.98212" transform="matrix(.576 -.232 .232 .576 461.4 21.482)">
            <tspan x="-68.37056" y="454.98212">R</tspan>
        </text>
        <text x="112.01579" y="445.66595" transform="matrix(.619 -.052 .052 .619 461.4 21.482)">
            <tspan x="112.01579" y="445.66595">R</tspan>
        </text>
        <text x="180.22531" y="430.7926" transform="matrix(.62 0 0 .62 461.4 21.482)">
            <tspan x="180.22531" y="430.7926">R</tspan>
        </text>
        <text x="414.75919" y="275.21735" transform="matrix(.54 .307 -.307 .54 461.4 21.482)">
            <tspan x="414.75919" y="275.21735">R</tspan>
        </text>
        <text x="483.87762" y="193.05025" transform="matrix(.477 .398 -.398 .477 461.4 21.482)">
            <tspan x="483.87762" y="193.05025">E</tspan>
        </text>
        <text x="309.11557" y="414.02829" transform="matrix(.59837 .11248 -.09645 .5911 461.4 21.482)">
            <tspan x="309.11557" y="414.02829">O</tspan>
        </text>
        <text x="105.05786" y="459.27182" transform="matrix(.56007 -.08172 .08475 .60547 461.4 21.482)">
            <tspan x="105.05786" y="459.27182">O</tspan>
        </text>
        <text x="-45.707756" y="455.83463" transform="matrix(.582 -.215 .215 .582 461.4 21.482)">
            <tspan x="-45.707756" y="455.83463">A</tspan>
        </text>
        <text x="518.34955" y="144.72449" transform="matrix(.4376 .44061 -.44061 .4376 461.4 21.482)">
            <tspan x="518.34955" y="144.72449">A</tspan>
        </text>
        <text x="271.18784" y="388.29758" transform="matrix(.60884 .12228 -.12228 .60884 461.4 21.482)">
            <tspan x="271.18784" y="388.29758">A</tspan>
        </text>
        <text x="40.321587" y="455.1676" transform="matrix(.61 -.115 .115 .61 461.4 21.482)">
            <tspan x="40.321587" y="455.1676">M</tspan>
        </text>
        <text x="94.428757" y="448.07883" transform="matrix(.618 -.064 .064 .618 461.4 21.482)">
            <tspan x="94.428757" y="448.07883">P</tspan>
        </text>
        <text x="155.08846" y="437.60687" transform="matrix(.62 0 0 .62 461.4 21.482)">
            <tspan x="155.08846" y="437.60687">P</tspan>
        </text>
        <text x="405.13382" y="276.66531" transform="matrix(.54 .306 -.306 .54 461.4 21.482)">
            <tspan x="405.13382" y="276.66531">P</tspan>
        </text>
        <text x="232.09538" y="409.79309" transform="rotate(6.588 44.14786 4020.617717) scale(.621)">
            <tspan x="232.09538" y="409.79309">I</tspan>
        </text>
        <text x="530.39215" y="132.08934" transform="matrix(.427 .451 -.451 .427 461.4 21.482)">
            <tspan x="530.39215" y="132.08934">T</tspan>
        </text>
        <text x="464.15771" y="218.51869" transform="matrix(.497 .372 -.372 .497 461.4 21.482)">
            <tspan x="464.15771" y="218.51869">T</tspan>
        </text>
        <text x="313.72498" y="361.96112" transform="matrix(.596 .175 -.175 .596 461.4 21.482)">
            <tspan x="313.72498" y="361.96112">M</tspan>
        </text>
        <text x="513.7041" y="123.24773" transform="matrix(.418 .459 -.459 .418 461.4 21.482)">
            <tspan x="513.7041" y="123.24773">G</tspan>
        </text>
    </g>
    <path fill="none" stroke="#fff700" stroke-linecap="round" stroke-width=".828" d="M620.33874 146.26574s3.75084-3.21057 6.42114-3.30372m-5.88087 2.8566c.08694-.08694 22.38705-3.21057 23.09499-3.92472m-23.00805 4.10481c.08694-.09315 24.97041-2.14245 24.97041-2.14245m-25.05735 2.22939s26.48565-1.24821 28.09404.09315m-28.18719-.18009s25.9578.18009 26.40492.80109m-26.31177-.80109l24.97041 2.0493m-25.23744-1.86921c.08694 0 25.41753 2.22939 27.91395 5.43996m1.33515 4.54572c-.08694-.08694-8.65053-10.25892-29.34225-10.07883m.09315.18009s14.35752.98118 18.90324 5.97402m-18.63621-6.15411s9.27153-1.78227 18.99639 9.90495"/>
    <path fill="url(#linearGradient801)" stroke="#000" stroke-width="1pt" d="M247.4 217.74s20.72.82 20.72 2.85-15.44 5.89-15.64 14.42 11.78 9.14 12.59 19.9c.81 10.77-9.34 12.39-11.37 15.24-2.04 1.42-6.91 16.65-6.3 25.59s3.25 39.2 7.92 45.3c3.66 2.84 9.14 11.98 15.03 9.14 5.89-2.85 1.83-13.2 1.22-16.05-.61-2.84 2.44-7.51 2.44-11.78s-2.24-7.72-2.03-8.73c.2-1.02 16.45 3.86 15.43 19.9-1.01 16.05-7.51 11.17-7.51 11.17s2.03 19.71-3.05 22.35c-9.14 4.87-15.84-1.02-15.84-1.02l.86 4.01-6.95-3.6s-8.94-12.8-10.97-18.49c-2.03-5.68-4.47-31.07-3.66-36.56.81-5.48 1.42-37.58 1.02-39.2-.41-1.63-2.03-28.44-1.02-32.5 1.02-4.06 7.31-21.94 7.11-21.94z" transform="matrix(.621 0 0 .621 461.4 21.482)"/>
    <path fill="#ff7000" stroke="#000" stroke-width=".828" d="M601.16226 153.41966s8.95482-8.70021 14.12775-7.69419c2.64546 0 .1242 1.89405.1242 1.89405s4.53951.37881 5.17293 2.39706c.1242.88182-2.14866 1.13643-2.14866 1.13643s1.89405.37881 2.01825 2.01825c.13041 1.63944-19.17027.3726-19.29447.2484z"/>
    <path fill="none" stroke="#000" stroke-width=".828" d="M601.66527 153.04085s9.58824-1.26063 13.62474-5.29713m-3.9123 2.65167s7.06077-.25461 7.06077.75762"/>
    <path fill="#FFF" stroke="#000" stroke-linejoin="round" stroke-width=".77625" d="M636.47853 253.57454s6.05475-1.39104 7.69419-3.53349c1.01223-.75762 6.30936 7.9488-7.69419 3.53349z"/>
    <path fill="none" stroke="#FFF" stroke-linecap="round" stroke-width=".77625" d="M634.83909 203.4971s.75762 4.66992-1.38483 7.81839c-1.13643 1.26063-4.54572 3.40929-4.54572 4.92453 0 1.50903 1.26063 3.52728 1.01223 5.29713-.25461 1.76364-2.14245 3.53349-2.01825 5.04252 0 1.51524 2.14245 9.58824 1.88784 9.71244m-6.04854-47.92878s-4.79412 1.63944-5.80635 6.43356"/>
    <path fill="#c75b00" stroke="#000" stroke-width=".828" d="M621.71736 150.39539s1.64565 4.53951 6.94278.2484c-3.40929-4.66371-6.94278-.1242-6.94278-.2484z"/>
    <path d="M625.631989 150.204432c0 .243836-.254138.4415-.567625.4415s-.567625-.197664-.567625-.4415c0-.243829.254138-.441493.567625-.441493s.567625.197664.567625.441494z"/>
    <path fill="#FFF" stroke="#000" stroke-width=".828" d="M578.40261 139.85702s10.04778 10.87371 16.54965 10.75572c1.1799 3.19194-2.95596 6.16032-4.60782 7.5762-3.30993-1.06191-6.30315.19251-13.98492-9.25911.47817-6.02991 2.16108-8.83683 2.04309-9.07281zm13.59369-25.29333c1.29789-4.01787 3.89988-7.20981 6.14169-7.56378-.58995-3.07395 4.73202-16.66143 20.21355-21.86541.94392 6.97383-6.61986 13.82967-6.61986 13.82967s22.80933-3.89988 27.41715-9.69381c-.47196 2.60199-5.07978 18.79146-29.42919 18.67347 9.22185 8.74989-2.94975 15.72372-8.15373 13.59369 9.57582-7.3278-2.71377-11.69964-9.56961-6.97383z"/>
    <path fill="#cccccd" stroke="#CCC" stroke-width=".828" d="M599.79606 108.89396c4.60782-2.95596 6.25968-2.95596 10.04778-2.36601-2.71998.35397-2.71998.47196-2.71998.47196s-.23598.35397 1.41588 1.89405c-1.88784-.47817-3.54591-1.54008-8.74368 0z"/>
    <path fill="none" stroke="#000" stroke-width=".828" d="M598.02 106.99991s9.10386-4.8438 14.18364-8.15373"/>
    <path fill="#00F" stroke="#000" stroke-width=".828" d="M590.22024 158.17652s12.53178 3.42792 13.94766-14.53761c-2.71998-7.79976-6.50187-24.58539-.70794-29.42919-5.32197-3.6639-11.10969.11799-11.10969.11799-.35397.82593-5.08599 7.56378 1.29789 19.38141-15.12756-4.01787-8.97966 10.28376-8.97966 10.28376.58995-2.24802 8.62569-4.37184 10.63773 7.09182.82593 2.83797-5.43996 7.20981-5.08599 7.09182z"/>
    <path fill="#00F" stroke="#000" stroke-width=".828" d="M604.28589 143.7569s13.23972-7.09182 12.87954-23.75325c-11.22768.23598-15.24555 14.76738-15.24555 14.76738l2.36601 8.98587z"/>
    <path fill="#FFF" stroke="#000" stroke-width=".828" d="M544.95555 142.93097s-9.80559 8.5077-15.36354 5.78772c-4.13586 2.484-8.980902-1.88784-8.980902-1.88784s5.670972 20.91528 26.002512 5.78772c-.35397-4.60782-1.42209-9.33363-1.65807-9.6876z"/>
    <path fill="#00F" stroke="#000" stroke-width=".828" d="M529.47402 148.36472c.82593-4.37184 4.25385-6.50187 6.97383-2.36601 3.6639.71415 7.3278-14.29542-5.67594-11.81763 3.6639-19.61739-7.324695-26.94519-7.324695-26.94519s-3.89988 21.74742-2.127546 25.76529c1.772955 4.01787-2.599506-7.44579-16.663914-10.63773-.236601 16.43166 15.718752 24.11343 15.718752 24.11343s4.491693 4.13586 9.099513 1.88784z"/>
    <path fill="none" stroke="#000" stroke-width=".828" d="M530.77191 134.06309s-6.14169 5.20398-4.72581 12.2958m-4.60782-13.00374s-1.418364 5.07978 1.654344 12.28959m-2.600127 1.65807s2.836728-4.60782 8.981523 1.29789"/>
    <path fill="#FFF" stroke="#000" stroke-width=".828" d="M521.67426 115.38962c0-.11799-9.336114 0-3.78189 9.45783-4.136481 1.29789-13.354605-4.72581-6.972588-12.76776-20.919006-.47196-29.428569-10.51353-29.428569-19.73538 6.146037 6.38388 20.801016 3.78189 26.00127 7.68177-6.382017-5.90571-5.082264-14.06565-5.082264-14.06565s17.846298 5.32197 21.036996 21.15747c-1.063773 3.07395-1.536354 8.5077-1.772955 8.27172z"/>
    <path fill="none" stroke="#000" stroke-width=".828" d="M507.317982 99.61622c3.444066 3.50244 12.292695 4.55193 16.784388 8.45181"/>
    <path fill="#cccccd" stroke="#CCC" stroke-width=".58859" d="M511.392363 109.95587s7.325937-.94392 9.449136 1.65186c-2.866536 0-3.822255-.70794-7.962462.83214 1.16748-.59616.848907-1.65807 1.486053-1.65807s-2.654154-.82593-2.972727-.82593z"/>
    <path fill="#923f00" stroke="#000" stroke-width=".828" d="M547.91151 52.635086s4.01787-3.54591 8.38971-.354591c-1.97478 5.903847-9.09765 3.6639-9.09765 3.6639s.23598 2.954718-.47196 4.372461c1.42209 1.072467 2.59578 4.609683 2.59578 4.609683s7.3278-1.772955 8.86788 1.418364c2.80692-.387504 4.8438 0 4.8438 0s5.67594-1.418364 7.68177-1.418364c2.01204 0 8.38971 1.654344 8.97966 2.836107.59616 1.181763 2.71998 9.100755 4.14207 8.982144 1.41588-.11799-3.42792 1.890945-4.73202-.11799-1.29789-2.009556-.94392 2.600127-.94392 2.600127s4.01787 4.254471 4.48983 5.199633c.47196.94392-2.47779 8.62569-.23598 13.94766-1.96857.18009-2.12382 2.24181-2.12382 2.24181-.11178 2.34117-3.07395 2.95596-3.07395 2.95596l-.70794-3.19194-2.01204 1.18611.82593-2.484s2.71998-6.61986 2.95596-8.74368c.23598-2.13003-2.484-5.91192-4.60782-5.91192-2.13003 0-3.6639 6.73785-3.6639 6.73785s-1.06191 5.07978-.70794 5.55174-1.42209-1.65186-1.42209-1.65186-.94392 3.07395-1.65186 4.01787-2.24802 1.29789-2.24802 1.29789-1.06191-3.07395-.70794-4.25385 5.79393-5.78772 5.32197-9.09765c-.47817-3.30993 0-2.484-.1242-2.60199-.11799-.11799-2.83176-2.481516-2.94975-3.781269-.11799-1.300374-3.54591 1.654344-8.03574.708561-1.37862 2.402028-1.54008 8.388468-1.54008 8.388468s-.47196 7.20981.47196 8.04195c.95013.82593-2.3598 2.59578-2.3598 2.59578l-2.36601 3.19194s-.82593-2.00583-.82593-1.88784-1.65807 1.1799-1.65807 1.1799l.95013-2.36601c-.0621-1.78848 2.2977-6.67575 2.2977-10.81161s.29808-8.568558.29808-8.568558-4.37184-.236601-4.25385 4.252608c.11799 4.49604-1.06191 4.73202-.82593 6.02991s1.41588 4.96179 1.06191 6.02991c-.35397 1.06191-1.76985 1.41588-1.76985 1.41588l-.35397.58995s-4.37184 2.01204-4.25385 2.83797-.11799-2.36601-.11799-2.36601l-.24219-3.42792s2.60199-1.65186 2.60199-5.78772-.59616-4.72581-.47817-5.66973c.11799-.95013.71415-4.37805.59616-4.73202-.11799-.354591-2.47779.945162-3.19194.945162-.70794 0 1.3041-2.481516 1.54008-4.254471s-2.36601 1.654344-4.48983-.354591c.98739-2.182194 2.47779-2.836728 2.71377-4.491072s-1.65186 1.418364-3.30993.236601c.13662-1.586034 1.77606-2.954718 1.77606-2.954718s-1.34757-.165186-1.89405 0c-1.06191-.354591 1.18611-2.009556 1.3041-4.373082s-1.3041-3.309309-1.3041-3.427299-2.3598-2.127546-2.71377-2.954718-.35397-1.772955-.35397-1.772955-3.90609 2.836728-8.51391-3.190698c4.2228-3.603663 8.74989-.945783 8.74989-.945783s1.1799-3.309309 6.61365-3.072708c5.43996.236601 6.50187 3.309309 6.26589 2.954718z"/>
    <path fill="#00F" stroke="#000" stroke-width=".828" d="M577.64499 113.76881c.09315 0 10.03536.29808 10.13472 5.61384.09936 5.30955-3.04911 3.93714-3.14847 3.93714s-7.28433-.88803-7.28433-.88803l.29808-8.66295z"/>
    <path fill="#fffeff" stroke="#000" stroke-width=".828" d="M567.99465 112.29083s12.40137-.09315 11.71206 5.31576c-.68931 5.41512-3.83778 4.33458-3.83778 4.33458l-6.00507-.4968-1.86921-9.15354z"/>
    <path fill="#00F" stroke="#000" stroke-width=".828" d="M561.0084 111.70088l7.18497.58995s4.32837.58995 4.13586 4.72581c-.19872 4.13586-4.43394 4.23522-4.43394 4.23522l-6.98625-.39744.09936-9.15354z"/>
    <path fill="#FFF" stroke="#000" stroke-width=".828" d="M544.1793 113.76881c-.09936 0-10.04157.29808-10.14093 5.61384-.09315 5.30955 3.05532 3.93714 3.15468 3.93714s7.28433-.88803 7.28433-.88803l-.29808-8.66295z"/>
    <path fill="#00F" stroke="#000" stroke-width=".828" d="M553.82343 112.29083s-12.40137-.09315-11.71206 5.31576c.68931 5.41512 3.83778 4.33458 3.83778 4.33458l6.00507-.4968 1.86921-9.15354z"/>
    <path fill="#FFF" stroke="#000" stroke-width=".828" d="M560.81589 111.70088l-7.18497.58995s-4.33458.58995-4.13586 4.72581 4.42773 4.23522 4.42773 4.23522l6.98625-.39744-.09315-9.15354z"/>
    <path fill="#5e0043" stroke="#000" stroke-width=".828" d="M580.05447 171.45971s5.16672-7.61346 7.34643-6.79995c1.90026.63342.45333 6.52671-.45333 7.07319l-6.8931-.27324zm-35.41563 1.35999c-1.62702-2.26665-3.98682-8.52012-6.16032-6.79995-1.90647.63342-.45333 6.52671.45333 7.07319l5.70699-.27324z"/>
    <path fill="none" stroke="#000" stroke-width=".828" d="M548.06055 157.76045s10.06641 6.20379 13.37013 6.36525 13.77378-8.05437 13.77378-8.05437"/>
    <path fill="#5e0043" stroke="#000" stroke-width=".828" d="M549.02931 133.44209l1.93131-2.41569 9.66897 4.91211 9.82422-4.35321 1.93131 2.01825-10.95444 7.73145-12.40137-7.89291z"/>
    <path fill="#474747" stroke="#474747" stroke-linejoin="round" stroke-width=".77625" d="M541.35375 133.31168c.78246.98739 7.02972 8.58222 8.15994 14.86674 1.12401 6.28452-.64584-8.61948-.64584-8.61948s7.73145 3.7881 7.97364 6.20379 3.69495-.16146 3.86262-.57753l-22.38705-14.53761 3.03669 2.66409zm38.19771-.4347s-8.1351 10.71225-7.16634 22.38705c-1.6767-5.589-.32292-14.81706-.32292-14.81706l-1.76985 1.13022s-1.85058 7.89291-4.19175 9.09765c-.39123-.93771-.31671-1.28547-.31671-1.28547s-2.49642 3.21678-2.9808 3.5397.16146 10.87371.16146 10.87371.83835 7.65072 1.8009 7.56999c-1.09917.53406-2.44674 1.37241-2.44674 1.37241l-.99981-20.41848 2.28528-2.2977s3.06153-3.70116 3.30372-7.3278c-1.32894 1.13022-2.81934 1.45314-2.81934 1.45314s-.40365 5.1543-1.60839 5.87466c-1.21095.72657-1.242 2.07414-1.242 2.07414l-.28566-6.73785 18.59895-12.48831z"/>
    <path fill="none" stroke="#000" stroke-linecap="round" stroke-width=".77625" d="M560.9463 145.27835l1.57734 32.21127"/>
    <path fill="none" stroke="#000" stroke-width=".828" d="M541.1364 160.66052s3.70116 2.17971 5.07357 8.78094c12.07845-.88803 15.86655 3.38445 15.86655 3.38445s9.90495-4.75065 14.50035-3.86883c1.60839-3.37824 6.19758-7.73145 6.19758-7.73145"/>
    <path fill="#b4b6b9" stroke="#000" stroke-width=".828" d="M536.08146 129.08888l24.86484 16.2702 22.39326-15.05925s4.66992-2.57715 4.26627-4.42773c-.39744-1.85679-2.01204-1.13022-2.81934-.8073-.80109.32292-23.43654 16.35093-23.43654 16.35093l-24.08238-15.22692s-1.76985-.5589-2.09277.56511c-.32292 1.13022.66447 1.76985.90666 2.33496z"/>
    <path fill="#474747" stroke="#474747" stroke-linejoin="round" stroke-width=".77625" d="M580.55127 124.86608s-6.36525-2.70135-6.36525-.36018c0 2.33496.18009 2.57715 1.20474 4.07997 1.01844 1.49661-.78246 2.45916-.78246 2.45916s-.24219-.65826-.60237-1.68291c-.36018-1.01844-3.78189-1.7388-4.07997-2.93733-.29808-1.20474.72036-3.12363-1.32273-3.35961-2.03688-.24219-4.01787.83835-4.44015 3.17952s-3.06153 7.79976-3.06153 7.79976l.36018-12.42c4.48362.31671 12.80502 1.29789 19.20753 2.03688-1.91889-.29808.72036.1242.66447.78246-.18009.54027-.84456.59616-.78246.42228zm-22.51125-3.12363c-1.13643 0-6.84342.65826-8.28414 1.50282-1.44072.83835 2.34117 2.15487 1.863 3.29751s-.54027 3.42171-2.34117 2.94354c-1.8009-.48438-7.86186-3.48381-8.04195-4.50225s-1.44072-1.08054-1.44072-1.08054 17.40663-2.34117 18.24498-2.16108z"/>
    <path fill="none" stroke="#000" stroke-width=".828" d="M560.78484 120.31415l-.04347 15.26418m-11.71206-33.24834s-6.97383 11.32083-7.11045 11.66859"/>
    <path fill="url(#linearGradient746)" stroke="#000" stroke-width="1pt" d="M161.8 129.74s4.89 6.67 4.33 8.56c2 1.56 4.23 7.79 4.23 7.79" transform="matrix(.621 0 0 .621 461.4 21.482)"/>
    <path fill="none" stroke="#000" stroke-width=".828" d="M573.6147 101.36123s-6.55776 9.2529-6.35283 9.94221"/>
    <path d="M540.012854 57.363564c-.14852.517403-.98442.717757-1.86706.44745s-1.477728-.908867-1.329198-1.426302c.148521-.517403.98442-.717758 1.86706-.44745s1.477729.908866 1.329198 1.426302zm2.650742-.182574c.14852.517403.98442.717757 1.86706.44745s1.477728-.908867 1.329198-1.426302c-.148521-.517403-.98442-.717758-1.86706-.44745s-1.477729.908866-1.329198 1.426302z"/>
    <path fill="#ff7000" stroke="#000" stroke-linejoin="round" stroke-width=".828" d="M619.43829 248.84873s-2.43432.45954-2.35359.6831c.07452.22977-7.07319.45954-7.22223.22977-.15525-.22977-1.06812 1.21716-1.06812 1.21716l1.14264-.6831s1.74501 1.81953 2.27907 1.67049-.22977.6831-.07452.83835c.14904.14904.6831-.30429.6831-.30429l11.81142-.19872-5.19777-3.45276z"/>
    <path fill="#ff7000" stroke="#000" stroke-linejoin="round" stroke-width=".77625" d="M623.84118 252.52505l-9.65034.27945s-2.42811 2.20455-2.58336 2.7324c-.14904.53406 1.59597.6831 1.59597.6831l.53406 1.82574 1.21716-.45333s8.20341 1.21716 15.73614-.45954c3.80052-1.32894 4.46499-2.92491 1.8009-3.89367-2.65788-.96876-8.57601-.67689-8.65053-.71415z"/>
    <path fill="url(#linearGradient794)" stroke="#000" stroke-width="1pt" d="M208.37 403.93l27.97-1.25-5.21-4.42 75.65-3.05-2.61-6.01-84.7 3.4 10.19 4.76-22.88.68.68 2.38-6-.23s6.68 2.6 6.91 3.74z" transform="matrix(.621 0 0 .621 461.4 21.482)"/>
    <path fill="url(#linearGradient800)" stroke="#000" stroke-width="1pt" d="M239.73 249.42c-2.23-1.11-12-2.44-22.89 4.67l.45 25.11s15.99-8.67 23.77-6.67c-.45-7.78-.45-17.77-1.33-23.11z" transform="matrix(.621 0 0 .621 461.4 21.482)"/>
    <path fill="none" stroke="#000" stroke-width=".828" d="M514.230954 223.71065l-40.958676 40.66308m59.213592-40.365l-33.243372 43.7805m31.759182-55.2069l-44.373555 53.72271m-1.335771-.7452l4.30353-5.04252m49.863816-20.9277l-17.215362 23.74704m-.742095 3.11742l.445257 9.04797m25.37406-27.60345l-18.25119 22.85901m14.99094-1.78227l7.42095-12.1716m-4.60161-2.37222l-8.90514 10.09125m6.23484-19.58634l-6.0858 7.41474m-1.78227-18.25119s-18.549891 27.15633-18.253053 29.38572m16.321743-32.94405c-.44091.29187-16.024905 20.92149-16.024905 20.92149m-.890514 6.52671l-2.819961 3.4155m-3.561435 5.19777l-4.30353 5.63868"/>
    <path fill="#8a9396" stroke="#2b2b2b" stroke-width=".828" d="M512.204631 161.207s-1.256904 3.94956 0 5.92434c1.256283 1.97478 9.155403 17.95311 9.155403 17.95311s5.387796-6.6447 7.362576-6.82479c1.97478-.17388 1.07433 17.23896 1.07433 17.23896s-3.2292 3.04911-5.20398 2.86902c-1.976022-.18009 4.8438 6.82479 4.66371 12.74913s-8.97345 35.36595-12.205134 35.90001c-3.231063.54027 1.436373-5.38407 1.256904-6.99867s-1.077435-.54027-1.795311-2.33496 1.077435-4.48983.717876-6.28452c-.358938-1.79469-1.97478-1.43451-2.154249-2.68893-.179469-1.26063 1.077435-1.6146.897966-3.05532-.179469-1.43451-2.154249-1.07433-1.97478-2.33496.179469-1.25442.358938-.71415.179469-3.04911s-.538407 1.6146-2.513187 1.79469-3.590622 4.66992-3.590622 4.66992-3.94956 5.56416-7.89912 3.04911c2.333718 5.0301.539028 7.18497-.358938 7.35885-.897345.18009.717876 3.94956-1.436373 4.12965s1.615842 8.43939-.897345 9.15975c2.692656 1.25442.538407 2.86902.538407 2.86902s-6.22242.52164-4.846905 8.61948c-18.311427-6.46461-27.287361-17.59293-27.107892-28.90134.179655-11.31462 3.770091-21.54249 12.566556-25.31196 2.513187-9.33984 6.821685-19.39383 6.821685-19.39383s-.717876-4.12965-.179469-6.81858c.539028-2.69514 3.052215-5.38407 3.052215-5.38407s-.359559-6.46461-.179469-9.69381c.179469-3.23541 1.435752-4.66992 1.615221-6.46461s-.538407-10.95444 1.256904-12.56904 5.205843-1.43451 7.001154-2.50884c1.795311-1.08054 4.129029-3.05532 6.462747-2.87523s4.308498 1.79469 4.308498 1.79469 8.797086 0 9.335493 3.40929c.538407 3.4155-1.795311 4.66992-1.795311 4.66992s1.256904 4.85001-4.129029 9.33363z"/>
    <path fill="#cecfcf" stroke="#2b2b2b" stroke-width=".828" d="M504.394396 148.769274c.281712.520425-.36004 1.413343-1.433438 1.994386s-2.1719.630172-2.453625.109725c-.281712-.520425.36004-1.413342 1.433438-1.994385s2.171901-.630172 2.453625-.109726z"/>
    <path d="M502.904046 149.676342c0 .328216-.29866.594295-.667068.594295-.368415 0-.667068-.266079-.667068-.594295 0-.328226.29866-.594296.667068-.594296.368414 0 .667068.26607.667068.594296z"/>
    <path fill="none" stroke="#2b2b2b" stroke-width=".388125" d="M516.029991 155.618s2.180331 9.73728-.426627 16.4565m1.097307-20.71656s4.25385 5.62626 3.704886 12.62493m-3.293163-13.86072c.137241 0 3.567645 3.01806 3.430404 5.07357m-2.606958-6.30936s2.333097 1.64565 2.88144 3.2913"/>
    <path fill="none" stroke="#000" stroke-width=".828" d="M516.837912 147.92381s-8.370459 13.58748-7.272531 22.09518"/>
    <path fill="none" stroke="#2b2b2b" stroke-width=".388125" d="M517.386876 147.51395s-11.115279 6.58881-13.173273 28.1313"/>
    <path fill="none" stroke="#000" stroke-width=".828" d="M516.151707 151.49456l-4.391091 3.2913"/>
    <path fill="none" stroke="#2b2b2b" stroke-width=".388125" d="M500.096994 176.88104s6.174603-25.65972 17.152641-29.36709"/>
    <path fill="#2b2b2b" stroke="#2b2b2b" stroke-width=".828" d="M521.503485 185.52536s5.902605-7.40853 7.275015-7.13529.95634 17.15202.95634 17.15202-4.39047 3.2913-5.34681 3.15468c-.963171-.13662 4.93695 7.96122 4.80033 10.97928s-.27324 3.01806-.27324 3.01806 0-1.78227-1.37241-4.66371-.55269-6.17895-9.469629-13.45086c-2.195856-4.52709 4.391091 2.74482 5.762259 1.64565 1.37241-1.09296-2.469096-10.56321-2.331855-10.69983z"/>
    <path fill="none" stroke="#2b2b2b" stroke-width=".828" d="M511.013553 143.79416s-2.480274.67689-2.818719 1.68912c-.338445 1.01844-1.804005 2.03067-2.593296 1.68912-.789291-.33534-2.255472-1.57734-2.255472-1.57734"/>
    <path fill="#2b2b2b" stroke="#2b2b2b" stroke-linejoin="round" stroke-width=".77625" d="M496.918716 152.47574s-3.721032 3.71979-1.916406 4.17312c1.804005.44712 3.721032-2.93112 3.721032-2.93112s0 5.75046 1.578582 4.8438c1.578582-.90045 6.201306-4.16691 6.201306-4.16691s1.578582-.11799 1.917027 0c.338445.11178 4.2849 3.49002 6.878196 2.25423-1.46556 3.83157-3.157164 4.2849-3.157164 4.2849s-2.706318 3.49623-6.201306 2.70135c-3.495609-.78867-4.397922-2.25423-4.397922-2.25423s-2.931741.22977-3.834054-1.12401c-.901692-1.35378-1.240137-2.14245-1.240137-2.14245s-1.690983 1.68912-2.14245.90045c-.450846-.78867 0-5.41512 2.593296-6.53913z"/>
    <path fill="none" stroke="#2b2b2b" stroke-width=".828" d="M518.004771 147.29039s-6.878196-2.03067-9.246069 1.35378c-2.367873 3.37824-1.804005 5.29713-.563868 5.63247"/>
    <path d="M519.06606 147.09788c0 .810964-.58056 1.468355-1.29671 1.468355s-1.29671-.657391-1.29671-1.468355.58056-1.468355 1.29671-1.468355 1.29671.657391 1.29671 1.468355z"/>
    <path fill="#2b2b2b" stroke="#2b2b2b" stroke-width=".828" d="M499.047504 164.64734s2.805057 4.31595 6.149142 5.50206-2.319435 2.21076-5.66352-.04968c-2.426868-3.2913-1.779786-5.66352-1.779786-5.66352s.647082-.65205 1.294164.21114zm24.002271 25.461s-7.874901-10.94823-10.140309-11.54439c-2.265408-.58995 1.725759-1.07433 4.153248 1.242 2.426868 2.31633-.647082-3.77568-.647082-3.77568l6.634143 14.07807z"/>
    <path fill="#2b2b2b" stroke="#2b2b2b" stroke-linejoin="round" stroke-width=".77625" d="M498.292989 253.37582c3.019923-.8073 16.180776 7.55136 19.147293 9.65655 2.966517 2.09898 9.170928.75141 9.170928.75141s-2.86281 1.72638-4.640112 2.16108c-1.779786.42849 5.285952.42849 5.285952.42849s-16.828479 4.63887-33.926472-4.36563c-1.564299-7.01109 3.667626-8.57601 4.962411-8.6319z"/>
    <path fill="#2b2b2b" stroke="#2b2b2b" stroke-width=".828" d="M517.548336 192.80348s-2.211381-.42849-3.344085-1.72638c-1.132704-1.29168-2.75103-4.47741-4.422762-5.82498-1.672353-1.34757-10.032255-5.93055-13.052799-5.60763s-3.937761-.32292-4.315329-.70173-1.617705.16146-1.402218 1.72638c.216108 1.56492-2.319435 5.01768-1.402218 6.63228.916596 1.62081 5.231925 8.1972 6.095115 8.41455.862569.21735.323541 3.83157.323541 3.83157s3.829086 3.88125 4.80033 4.0986c.970623.21735 1.941246.91908 1.833813 1.83195-.108054.91908-4.207275 5.93676-4.207275 5.93676s-4.422762 2.31633-4.476789 3.61422c-.054027 1.29168 1.078677 3.98682 4.584843 4.85001 3.505545.86319 12.944745.16146 13.430367-.64584.485001-.8073 1.240137-5.66352.916596-6.1479s-2.642976-1.94373-3.829707-1.72638c-1.18611.21735-2.264787 1.18611-2.157354 1.40346.108054.21735-1.671732 1.13022-1.671732.26703s3.505545-4.74444 3.829086-4.42152c.324162.32292 5.285952.8073 6.203169 3.2913.916596 2.47779.916596 4.26006 3.505545 3.99303 2.588949-.27324 6.201927-2.64546 6.524847-7.60725s-2.910627-8.30898-3.71979-8.79336-3.506166-2.10519-3.721653-2.8566c-.216108-.75762-.755136-3.23541-.323541-3.83157z"/>
    <path fill="#2b2b2b" stroke="#2b2b2b" stroke-width=".828" d="M470.892606 214.70615s8.360523-2.16108 10.517877-2.10519c2.157354.04968 10.301769 3.82536 12.675231 6.1479 2.372841 2.31633 7.227198 7.81839 10.409823 7.33401 3.182004-.48438 4.099221-1.13022 4.099221-1.13022l-1.240758 2.37222s-2.588949.70173-3.883113.37881c-1.294785-.32292-3.829707-1.13643-6.364629-3.61422-2.534922-2.484-10.355796-9.17217-16.989939-8.68779-6.634764.49059-10.46385 7.0173-10.46385 7.0173s.054027-3.18573.323541-3.88746-1.402218 1.50903-1.402218 1.50903l2.318814-5.33439z"/>
    <path fill="#2b2b2b" stroke="#2b2b2b" stroke-width=".828" d="M501.69048 221.17697c.054027.04968 2.103948.58995 5.555466.58995 3.452139 0 5.285952-1.50903 5.285952-1.50903l-.215487-1.34757.539028-1.88784s2.642976 2.69514 2.588949 3.23541-1.078677.75762-1.078677.75762l-.377568-1.29789-.916596 1.13643s-5.016438 3.98682-7.766847 3.39687c-2.75103-.59616-5.285952-2.37222-4.584843-2.80692.701109-.42849 1.078677-.26703.970623-.26703zm-12.189609 7.06698s-3.020544-.05589-4.368735.58995-1.833813 1.45935-2.75103 1.34757c-.916596-.10557-1.617705-1.29168-1.348191-1.77606.377568-.75762 2.157354-1.72638 5.555466-1.45935 3.398112.27324 2.91249 1.29789 2.91249 1.29789zm10.571904 8.1972c0-.16146-.216108-4.42152-1.88784-6.1479-1.672353-1.72638-3.721653-1.72638-4.63887-1.51524-.916596.21735 3.398112 2.10519 3.829707 3.34719s1.833813 4.69476 1.456245 5.55795c-.377568.85698-1.078677-2.42811-3.721653-3.34719s-6.310602-.42849-5.555466.75762 3.721653.10557 5.231925 2.63925 2.642976 5.23503 2.642976 5.23503l.485622-1.83816 1.348191-.3726.16146-3.50865.647703-.8073z"/>
    <path fill="#2b2b2b" stroke="#2b2b2b" stroke-linejoin="round" stroke-width=".77625" d="M497.915421 250.24598l-2.75103-5.50206s-.86319-3.50244-3.182004-4.47741c-2.319435-.96876-5.394006-.8073-5.448033.37881s4.962411 2.69514 5.285952 3.34719c.323541.64584.162081 1.72638-.269514 1.77606-.431595.05589-2.642976-.8073-3.77568-.54027-1.132704.27324-1.779786 1.72638-3.452139 1.29789-1.671732-.4347-3.074571-5.76909-2.426868-6.30936.647082-.54027-1.240758.96876-1.618326-.4347s.539649-5.76909-.108054-6.30936c-.647082-.54027-3.775059-2.42811-3.829086-2.80692-.054027-.3726.16146-21.46176 17.799102-3.98682-7.55136-8.95482-10.517877-7.98606-11.920095-8.03574-1.02465 0-7.874901.58995-9.60066 9.32742-1.72638 8.73747-3.77568 3.2913-3.77568 3.2913s-.377568 3.77568 1.456245 4.85622c1.833813 1.07433-.86319 4.20417-.86319 4.20417s-3.289934-8.03574-2.804498-11.54439c-.647268 2.80692-.593304 9.76212 3.559634 17.36937 4.854357 5.12325 9.4392 9.8739 21.628809 15.20829 6.418656-9.8118 6.095115-10.99791 6.095115-11.10969z"/>
    <path fill="#8a9396" stroke="#2b2b2b" stroke-linejoin="round" stroke-width=".77625" d="M486.372894 250.30187s3.559572.42849 4.530195 2.26665c.971244 1.83195 1.402839 4.63887 1.402839 4.63887.593055-1.18611.862569-2.21076 2.0493-3.07395s2.049921-.97497 1.995894-1.62081-3.77568-4.58298-5.66352-4.80033-5.177898 2.0493-5.177898 2.0493-.593055.86319.86319.54027z"/>
    <g fill="none" stroke-linecap="round" stroke-width="1.25">
        <path stroke="#8a9396" stroke-width=".77625" d="M494.503647 259.57961s9.225576 4.20417 24.420204 4.47741"/>
        <path stroke="#2b2b2b" stroke-width=".77625" d="M525.3009 216.75545s-.78867 7.74387-6.744681 23.02047"/>
        <path stroke="#2b2b2b" stroke-linecap="butt" stroke-width=".828" d="M524.11479 221.51852s-1.787859 5.55795-6.749649 9.72486"/>
    </g>
</svg>
