<svg xmlns="http://www.w3.org/2000/svg" viewBox="0 0 820 440">
    <path fill="#c62139" d="M0 0h820v440H0z"/>
    <path fill="#00297b" d="M20 20h780v400H20z"/>
    <path fill="#c62139" d="M410.25782 100.00041s-80.25744 54.71032-80.25744 119.22112c0 64.52113 80.25744 120.7797 80.25744 120.7797s79.74275-51.61896 79.74275-120.7797c0-69.15557-79.74275-119.22112-79.74275-119.22112"/>
    <path fill="#66afeb" d="M477.92277 240.56171c1.76049-6.86395 2.76064-13.99111 2.76064-21.34018 0-61.93036-70.42559-107.86205-70.42559-107.86205s-71.45498 47.48511-71.45498 107.86205c0 7.25102 1.0177 14.31624 2.81329 21.15955l136.30664.18063"/>
    <path fill="#007bde" d="M409.67295 328.12609s55.23621-36.58021 68.22643-87.74501H341.56349c13.18908 50.17908 68.10946 87.74501 68.10946 87.74501"/>
    <path fill="#9c8431" d="M480.33833 226.4519c-12.08365 8.60833-80.08783 4.47447-80.08783 4.47447l-3.80173 9.63534h81.46815c.33923-1.32118.64923-2.64237.92997-3.97903l1.49144-10.13078"/>
    <g fill="#fff100">
        <path d="M406.07592 287.35526c-1.03524-7.20973-32.84109-14.93038-49.72078-14.29559 5.26978 8.2677 11.24142 15.83353 17.24816 22.55813 8.57437-9.20182 32.81185-5.88338 32.47262-8.26254"/>
        <path d="M470.45384 260.54973c-4.04154.14451-11.37595.78962-16.40008 3.40617-7.24668 3.78292-23.4713 7.91677-30.72383 5.84726-7.24669-2.06434-18.64018 4.47447-17.25401 5.84726 2.29858 2.29659 18.97941-.34062 18.97941 14.45558 0 12.38607-19.32449 6.88459-26.9221 12.04546-4.57963 3.10168-7.77308 6.47172-9.5862 8.63928 11.86139 10.97716 21.14931 17.33535 21.14931 17.33535s22.02079-14.58461 41.52074-38.20072l9.17094-12.16932c3.69646-5.41374 7.12386-11.15778 10.06582-17.20632"/>
    </g>
    <g fill="#009270">
        <path d="M405.85951 165.16664s-11.00746-6.45108-26.02137-3.35972c-15.01392 3.09652-18.25415 12.50994-18.25415 12.50994l5.04752-2.31723.12868 2.06434 4.53283-2.83847.12867 2.06434 3.88361-3.60744.63753 2.31723 3.49758-3.09652.2632 1.67728 5.6909-3.6126v2.32238l4.53283-2.0695-.38602 2.19853 8.54513-1.5431s-20.19597 6.70396-22.78115 22.83166l3.87777-4.63446.39187 2.18305 2.4565-4.89766.64922 1.93532 2.19915-4.51575.64338 2.70429 3.36307-4.90282.2632 2.84364 3.87776-5.28989v2.57011l4.14681-4.51576-.12868 3.36489s4.01229-3.36489 5.29903-3.36489l-4.78433 6.1982 1.55579.51609s-3.36892 2.70945-3.62627 3.22554c-.25735.51092 2.205 0 2.205 0s-2.98289 3.09136-3.11157 3.99967c-.12867.90831 1.9418 0 1.9418 0s-2.71969 3.47842-3.10571 4.77896c-.39187 1.29021 1.42125.25288 1.42125.25288s-1.6786 4.12869-1.81312 5.28989c-.12868 1.15087 1.9418-.26321 1.9418-.26321l1.16977 7.09619 2.07047-8.5051 1.29259 1.93532v-6.06918l1.16391 1.02702-.12866-3.98935 1.54994 1.5431-.77205-4.90282 1.67861 1.925-.25735-4.11837 1.67861 1.68244v-5.42407l1.55579 1.40892.25735-3.72615 1.81312.89799s.25735-4.51575 2.33368-4.38673c2.06463.1187 4.65566 2.31723 3.62042 3.34424l1.81313-.5006-.38602 4.37125 1.67861-1.02701-.25735 3.22554 1.42126-.64511-.51469 4.12353 1.68446-1.01669.12282 5.01636 1.93596-1.40892-.12868 5.92467 1.94181-1.53793v4.89766l1.81314-1.2799 1.94765 4.76864-.39186-7.09619 1.42711 1.15604-2.59689-5.02669 1.94766-.2632-2.07633-3.35972 1.94181.1445-2.84252-3.35972 1.93596-.3819-4.2755-3.10168 2.33369-.89799-4.40416-2.84364 1.68446-.64511-3.09987-3.22554 3.23439 1.29022 1.02939-2.06435 3.88361 3.10168v-3.10168l3.36307 4.64478.39188-2.84364 2.59102 3.61777.5147-1.67212 1.81313 3.60744.90072-2.69913 1.81312 3.87065.5147-2.71978 1.68446 4.26288 1.55579-1.68244.77789 4.39189 1.54409-1.68244 1.42126 3.87065 1.81313-1.41924 1.55579 4.3919s4.26963-23.4871-32.3615-23.87932l-10.87294-2.05403"/>
        <path d="M389.03248 144.25998l2.06462 2.57011-1.03523.78446 3.49759 1.93532-.7779 1.41408 3.4976 1.29021-1.29844 1.03734 3.11156 1.79598-2.07047.65543 3.74909 1.80114-.51469 1.67212 3.23438.77929-1.42126 1.15603 3.7491 2.97782 4.27548 2.96234 2.97705-1.02702-1.16976-5.68727s-12.29422-16.77281-21.86872-16.1277"/>
        <path d="M400.29144 128.00326l1.42711 3.34424-1.94765.39223 4.40415 4.38673-3.49758.12902 4.27548 3.34941-2.07633.65542 3.88947 3.87065-2.07634 1.02701 4.01229 3.99967-2.71385 1.02702 4.53283 4.13385-2.59102.13418 2.71385 3.47326-2.4565.77929s2.97705 5.54277 2.84251 7.87032l5.04754.25288s.77788-14.9665.13452-16.90183l-1.29844.90315.38603-5.4189-1.94181 1.16635-.38018-6.45108-1.94766 2.05919-.50884-6.32206-1.42711 2.19853-1.42711-6.1982-1.54994 1.93532-1.42711-3.99451-1.16391 1.5431-3.2344-3.35456"/>
        <path d="M413.36355 165.67757c1.42711-9.03151 10.8788-22.19172 28.6124-22.7078l-4.01814 2.06434 2.33369 1.03218-4.66151 1.68244 2.32782 1.40891-5.56222.39223 2.84253 1.93532-4.13512.51609-3.24024.64511 2.32782 2.1882-4.66149.51093 2.98289 1.55342s-7.3812 2.58043-7.8959 3.35972c0 0 24.85746-6.32206 30.94023 5.40859l-4.79603-2.06435.39188 2.19853-3.36308-2.45141.5147 1.8063-3.49174-1.8063.5147 2.18821-3.62628-2.06435.7779 1.94565-4.66151-2.19853.77789 2.06434-4.01228-1.29021.39187 2.1882-4.01813-.25288.39186 2.58043-12.42873-.2632-1.55578-2.58043"/>
    </g>
    <g fill="#7b4800">
        <path d="M409.56767 173.46015l2.59102-.17031c-1.21071 24.607-.07607 59.88667 3.27534 72.94882 5.6909 22.18655 22.28399 30.73294 26.23194 32.85922 2.24009 1.19732 1.38031 6.18787-3.11157 5.84726-4.4802-.34578-20.13747-11.87515-25.54178-32.51861-7.24084-27.69835-3.7257-76.08145-3.44495-78.96638"/>
        <circle cx="413.755" cy="168.129" r="2.926"/>
        <circle cx="409.094" cy="167.092" r="2.739"/>
        <circle cx="409.094" cy="171.871" r="2.558"/>
        <circle cx="412.586" cy="170.58" r="2.739"/>
    </g>
    <g fill="#7b4800">
        <path fill="#000" d="M384.64001 257.16421h2.92441v-31.48127h-2.92441v31.48127z"/>
        <path d="M394.13849 263.0992s-1.199.2116-3.10572.45416v-2.45658h-1.9418v2.66817c-1.98861.20128-4.39831.36642-6.92501.36642-2.6846 0-5.3926-.19611-7.62685-.42319v-2.5443h-2.14067v2.30174c-1.84822-.23224-3.04138-.43351-3.04138-.43351s-.58488 3.22554 12.62175 3.22554c13.20076 0 12.16553-3.15845 12.16553-3.15845"/>
        <path d="M381.60448 257.07131c10.70333 0 19.68127-1.71341 19.68127-1.71341s1.37446 6.87427-19.68127 6.87427c-21.05574 0-19.33033-5.84209-19.33033-5.84209s8.63284.68123 19.33033.68123"/>
        <path fill="#fff" d="M372.62655 227.47892s16.56969 6.19819 23.13206 27.87898c0 0-15.18937-3.09135-23.82223.34578h-4.83112c0-.01075 8.28777-12.04545 5.52129-28.22476"/>
    </g>
    <path fill="#c62139" d="M374.97192 211.16026h-3.07063c-.2398-1.32118-.81883-2.25013-1.7371-2.76106-.51469-.29417-1.08203-.43351-1.70785-.43351-1.2107 0-2.1933.57286-2.96535 1.75469-.77789 1.16636-1.16391 2.9417-1.16391 5.28989 0 2.37916.42111 4.05128 1.2575 5.05249.83637.9754 1.78973 1.47084 2.86007 1.47084 1.04693 0 1.90086-.38706 2.57347-1.17151.66677-.77413 1.07619-1.80115 1.23995-3.07588h-3.4625v-3.21522h6.22314v10.3527h-2.06463l-.31583-2.41013c-.60243.91864-1.14052 1.56374-1.62013 1.94565-.82468.65543-1.83652.98056-3.04138.98056-1.9769 0-3.60287-.88767-4.86037-2.663-1.31598-1.77534-1.9769-4.21127-1.9769-7.29747 0-3.12232.66677-5.63566 2.0003-7.51937 1.32183-1.88372 3.08232-2.823 5.27564-2.823 1.895 0 3.42155.62447 4.57376 1.86824 1.14637 1.2386 1.81314 2.79202 1.98275 4.65509m14.61619 5.83694v-11.86482h3.17006v11.86482c0 1.32118.12868 2.28626.36847 2.90041.38018 1.07862 1.19901 1.62567 2.47406 1.62567 1.25749 0 2.08218-.54705 2.46234-1.62567.24566-.61415.35678-1.57923.35678-2.90041v-11.86482h3.17591v11.86482c0 2.0437-.24565 3.63841-.73695 4.78928-.92411 2.08499-2.67291 3.13265-5.26393 3.13265-2.58519 0-4.34567-1.03734-5.26979-3.13265-.49129-1.14055-.73695-2.74558-.73695-4.78928M423.125 205.125l-5.34375 19.3125h3.28125l1.03125-3.96875h5.5l.96875 3.96875h3.375l-5.3125-19.3125h-3.5zm1.71875 4.40625l1.875 7.59375h-3.78125l1.90625-7.59375zm26.81199 10.7689l2.6963-15.16777h4.48604v19.29131h-2.90686v-13.04151c0-.3819.00582-.90831.01175-1.58438.00582-.67608.01175-1.19732.01175-1.55858l-2.83083 16.18447h-3.02967l-2.80744-16.18447c0 .36126.00582.8825.01175 1.55858.00582.67607.01175 1.20248.01175 1.58438v13.04151h-2.90686v-19.29131h4.53868l2.71385 15.16777"/>
</svg>
