<svg xmlns="http://www.w3.org/2000/svg" viewBox="0 0 600 300">
    <path fill="#cf142b" d="M0 0h600v300H0z"/>
    <path fill="#f9dd16" fill-opacity=".988235" fill-rule="evenodd" stroke="#000" stroke-width="1.120505" d="M309.845649 214.988938c.101687-.307581.306738-3.479192.204211-3.479192-.102524 0-4.80868-5.524688-4.706153-5.524688.102527 0 6.036484 1.330327 6.036484 1.125273 0-.204211 2.353076-5.831426 2.353076-5.933953 0-.101688 2.864873 6.855015 2.864873 6.855015l5.831426 2.55813-4.092673 3.375827s.921062 6.548276.921062 6.650803c0 .101688-4.092673-3.888458-4.092673-3.888458l-4.501938.511793s-.613484-2.046335-.817695-2.25055z" font-size="12"/>
    <path fill="#fff" fill-rule="evenodd" stroke="#000" stroke-width="1.29999" d="M278.145498 129.010866c-3.887618 2.001795-18.807808 19.05656-20.854146 21.716379-1.714383 3.861569-5.067517 8.746723-8.5215 11.891441-3.686765 2.789239-5.735625 6.599544-5.228034 10.207314-.041179 4.489335 2.475774 7.545812 4.480933 10.70482 1.186621 1.442939 2.783355 2.375768 4.48093 2.48922 3.482554.45969 3.791818 1.53202 5.534775 2.195924 6.865943 9.34844 17.108548 16.242115 24.485448 21.702932 4.701952 2.478295 7.971886 4.95659 9.092122 6.30961 2.159786 4.123767 1.762284 8.145007 1.46647 10.120751-1.825315 6.887795-3.65147 13.775587-5.476786 20.663378-.921062 5.627215 3.969137 4.361598 4.232174 3.236322 2.206852-2.86487 5.50032-.85299 10.206474-17.427058 2.157268-2.904369 4.315375-5.808738 6.472642-8.713107 0 0 2.49006-.995856 2.49006-1.244608 3.78593-4.545643.903414-7.147474-1.245451-7.966009-1.57656-.580704-3.153121-1.16225-4.729685-1.742954 0 0-5.476786-5.47679-5.72554-5.47679-2.602672-7.571026-15.377358-23.734141-18.344758-25.984694-2.053897-2.14046-3.031267-3.052276-4.980958-4.243102-2.997651-1.433694-3.964936-1.900107-5.801175-2.632922-1.528659-.613484-.440363-2.291732.531962-3.059003 10.118232-5.50788 18.138863-11.62924 27.847827-17.85313.497507-.331953.995856-.663905 1.493363-.995857-1.161411-6.638197-2.323662-13.277237-3.485073-19.915434-5.393589-1.908516-10.78802-3.817868-16.18161-5.72638-.848788.580703-1.493362 1.16225-2.240464 1.742957z" font-size="12"/>
    <path fill="#f9dd16" fill-rule="evenodd" stroke-width="1pt" d="M291.684937 233.865658c.051263-.204211 10.128314-2.046335 10.128314-2.046335s-1.176537 3.734668-1.2278 3.734668l-10.02579 3.01782 1.125276-4.706153z" font-size="12"/>
    <path fill="none" stroke="#000" stroke-width="1.120505" d="M265.424594 195.92229c1.943811-5.166682 7.339922-9.257676 10.9645-10.386314" font-size="12"/>
    <path fill="none" stroke="#000" stroke-width="1.239054" d="M291.32273 233.956421c.650458-.183205 3.538858-1.02611 4.380085-1.15721.89753-.210098 1.79086-.445403 2.653935-.723573.995856-.203372 1.619421-.390779 2.653934-.579025.81013-.30926 1.611016-.521038 2.477453-.72357m-13.989883 9.413989c.08404-.112612.770633-.71937 1.263938-1.012665.580708-.183202 2.566537-1.026107 3.31784-1.15721.801726-.210095 1.599252-.445403 2.369884-.72357.889968-.203372 1.446301-.390778 2.370724-.579025.723574-.30926 1.438742-.521038 2.211893-.72357" font-size="12"/>
    <path fill="none" stroke="#000" stroke-width="1.120505" d="M293.590088 197.38456h-.144546c.452966 0 .1748-.037818-.43448.723573-.216817.584905-2.07407 1.88078-3.472469 1.88078-.674828.072273-1.711864.144546-2.387532.144546-.192447 0-.45801-.144546-.651297-.144546m6.945778 27.20241h.722731c.750463 0 1.503448.133621 2.170714.144545.72357 0 1.44714.205055 2.170714.205055.730293.103366 1.610176.069754 2.36568.177322.84711.028578 1.52698.195809 2.408545.195809.710963.0269 1.094179.145388 1.88162.145388l-1.88162-.145388c.710963.0269 1.094179.145388 1.88162.145388m-16.639617 16.783322c.077317-.112612.705922-.719369 1.15721-1.012664.531966-.183206 2.350558-1.026111 3.038833-1.15721.733655-.210095 1.463948-.445404 2.16987-.72357.815174-.203376 1.324448-.390779 2.170715-.579025.663065-.309264 1.317724-.521042 2.025325-.723574m2.98757-20.953308c-.409269 1.188304.121014 1.48664.340354 1.999275.381537.496668 1.355542 1.253854 2.894285 1.736235.593314.159671 1.049642.315984 1.736234.579025.45465.042018.67819.15547 1.012665.28909m-63.229702-48.181771h.144549c-.45381 0-.181524.029418.579024-.579028.469775-.52524.862236-.763067 1.301756-1.301756m7.34328 12.188099c.096643 0 8.417293-4.193518 9.305578-5.089369.629449-.456328 1.105946-.93787 1.871538-1.456386.490784-.256318.842906-.584908 1.302595-.868119.382376-.55381.881566-.888285 1.15721-1.395037.510953-.442882.291613-.92274.705923-1.456386.195812-.546251.56222-1.46647.681552-1.966499m10.597252 6.223048c.04538.299175-.132782 1.221077-.120175 1.922798-.028579.813494-1.074852 3.326245-2.33963 4.076708" font-size="12"/>
    <path fill="none" stroke="#000" stroke-width="1.120505" d="M264.870783 180.320548c.048742 0 1.315202.411792 3.43213 1.063089 2.548047.916018 7.847514 4.255709 8.373593 4.715399.537006.422711 1.497564.800044 1.865654 1.301755.575663.497507.997536 1.07149 1.44714 1.59169.528605.644573.97905 1.189982 1.30176 1.736234 1.609336 1.305117 5.938158 10.341774 6.07682 10.851887.24287.477338.543729 1.142081.72357 1.591686.321027.36977.538688.89249.868119 1.447144.302537.71937.641212 1.04712 1.013504 1.59169.47902.332791 1.124433.964758 1.736234 1.301755.652137.558015 1.263939.784918 1.736235 1.15805.682391.289933 8.308043 5.110377 8.661844 5.35157.69668.559694 2.823694 2.764025 1.33033 4.367478-.63365.542047-1.204272 1.259737-1.74548 1.566479-.551292.552132-1.318563.799204-1.952213 1.084933-3.435492 1.015187-5.185173.651301-5.860845.651301h-.72357m-45.126973-58.419339c.976526.382373.582386.100005 1.461426.500029.590792.258836.979891.26556 1.560595.477337.616003.197491 2.337112.507591 3.164049 1.337893.606757.547931 1.069808 1.010982 1.736234 1.411006.78828.543726 1.35722.785758 2.33459 1.193345.824418.30842 1.74632.650458 2.57998.679873.866436.05042 1.074012.007555 1.90515.007555h2.02617-2.02617 2.02617" font-size="12"/>
    <path fill="#ffe606" fill-rule="evenodd" stroke="#000" stroke-width="1.120505" d="M247.795848 172.931888c2.169871-.144545 5.78689.506753 5.859162.506753.0007 0 4.775064-.072273 4.775064-.072273 2.50855-.242032 3.062361-1.205952 3.47247-1.881623.940392-1.446301 1.59169-1.953053 2.31526-3.03799 1.15721-.868116 2.749738 1.15721 2.82201 1.15721 4.050655 3.834676.795004 8.536628.578186 8.681173-2.025326 1.857249-2.459805 1.977427-3.689288.795846-1.230325-1.447143-1.591689-2.097601-2.604353-2.604353-1.953053-.940392-6.004547-.216819-6.077663-.216819-.072273 0-2.097598.795843-2.097598.795843-.989134.361367-1.61606 1.230323-3.327924 1.518577-1.736235.121015-2.31526-.047902-3.183375-1.446304-1.15721-1.808507-.579029-3.979221 1.158049-4.19604z" font-size="12"/>
    <path fill="#f9dd16" fill-opacity=".988235" fill-rule="evenodd" stroke="#000" stroke-width="1.120505" d="M361.07915 85.1754c-.317945.062103-3.183053 1.437726-3.132803 1.527094.050245.08937-2.459064 6.899177-2.50931 6.80981-.050249-.089371-1.798782-5.913826-1.977524-5.813331-.178008.100082-6.236316.806785-6.325684.85703-.08864.049837 4.571308-5.856783 4.571308-5.856783l-.628046-6.33681 4.948381 1.913031s5.256564-4.012082 5.345935-4.06233c.088637-.049837-1.383707 5.473158-1.383707 5.473158l2.652455 3.673403s-1.483079 1.537638-1.561004 1.815727z" font-size="12"/>
    <path fill="#fff" fill-rule="evenodd" stroke="#000" stroke-width="1.29999" d="M301.670087 154.944262c3.65018 2.407685 25.828553 7.054935 29.149928 7.535133 4.206226-.398114 10.107812.130581 14.541732 1.600148 4.238138 1.846695 8.563598 1.765254 11.459634-.44532 3.933419-2.164264 5.36415-5.856164 7.135074-9.152193.676228-1.741517.706812-3.59051-.02627-5.125847-1.30605-3.26094-.522892-4.056052-.798386-5.900711 4.783894-10.566407 5.77317-22.873124 6.917913-31.979647-.144094-5.313148.413621-9.378047 1.044-11.01762 2.5361-3.903633 6.236124-5.527896 8.103303-6.238324 6.898472-1.784532 13.797355-3.56833 20.695826-5.352858 5.3565-1.954952 1.856676-5.597352.746888-5.275156-3.578781-.519621-3.439157-4.376447-20.192764-.355966-3.588908-.457045-7.17823-.914821-10.76714-1.371866 0 0-2.088406-1.682467-2.305238-1.560554-5.81775-1.072347-6.673017 2.715392-6.333383 4.989655.266462 1.658844.532197 3.318101.798659 4.976946 0 0-2.089875 7.45807-1.967965 7.674903-5.323933 5.979134-13.24911 25.178997-13.756575 28.868568-.24021 3.466999-1.549583 2.840894-1.198497 6.21069.013152 2.633282-.29323.989171.585912 6.41449.214419 1.633152-1.781824 1.506996-2.927158 1.035472-9.759881-6.120468-19.026512-10.111855-29.209941-15.52467-.533176-.27098-1.066765-.542693-1.599941-.813672-5.217152 4.265661-10.43463 8.532466-15.651781 12.798127.97972 5.636789 1.959118 11.274722 2.938838 16.911514.922167.455272 1.744984.732123 2.617314 1.098758z" font-size="12"/>
    <path fill="#f9dd16" fill-rule="evenodd" stroke-width="1pt" d="M386.433809 91.754416c-.20313.055395-6.747486-7.825717-6.747486-7.825717s3.83202-.804749 3.857144-.760065l7.544056 7.260233-4.653714 1.32555z" font-size="12"/>
    <path fill="none" stroke="#000" stroke-width="1.120505" d="M366.229382 133.240396c-5.456302.83775-11.666872-1.860964-14.427031-4.467287" font-size="12"/>
    <path fill="none" stroke="#000" stroke-width="1.239054" d="M386.690434 92.02566c-.478474-.477204-2.628777-2.581854-3.155328-3.250876-.623002-.67939-1.265921-1.342763-1.931375-1.958755-.665328-.768394-1.134288-1.220094-1.805377-2.029596-.666608-.554605-1.243713-1.14893-1.844883-1.804922m15.062178 7.58096c-.139348-.01805-1.004735-.319188-1.502154-.605449-.444288-.416401-2.152255-1.7343-2.634734-2.324945-.576052-.595879-1.172017-1.17574-1.792165-1.711154-.613438-.676092-1.049446-1.06919-1.666582-1.78273-.624188-.479153-1.15928-.998757-1.714736-1.573437" font-size="12"/>
    <path fill="none" stroke="#000" stroke-width="1.120505" d="M353.700492 107.972615c.023891.042487.047363.084243.070838.126-.221992-.39484-.118632-.133835.84365.0241.616111-.097657 2.655901.88617 3.341238 2.10512.393724.55281.964958 1.421345 1.296092 2.010312.094317.16775.09847.470075.193196.638557m20.307608-19.385965c-.023472-.041756-.04695-.083512-.070838-.126.094726.168487-.189044-.336237-.283361-.503988-.367793-.654159-.620344-1.376004-.937839-1.962994-.354612-.630719-.530486-1.361932-.885098-1.99265-.267802-.68724-.728324-1.437735-1.004819-2.14901-.39025-.752404-.57767-1.426991-1.009712-2.195427-.324995-.632912-.409514-1.025023-.795427-1.711413l.795427 1.711413c-.324995-.632912-.409514-1.025023-.795427-1.711413m22.784431 6.279058c-.136052-.012208-.973018-.262782-1.449844-.512418-.420403-.373915-2.046408-1.546037-2.498-2.081739-.54269-.536544-1.105708-1.057803-1.694143-1.536812-.576779-.610895-.989724-.962972-1.568557-1.608382-.594535-.426413-1.099971-.893273-1.6233-1.410817m-19.728626 7.664738c1.236391-.225622 1.23656-.834065 1.575913-1.276496.245946-.575985.42862-1.796086.094982-3.37378-.15159-.595426-.238978-1.069804-.346182-1.797201-.18619-.416898-.196851-.667357-.244299-1.024393m-11.010816 78.72893c-.023472-.041752-.047364-.08424-.070839-.125995.222404.39557.114599.143814-.788494-.22095-.688068-.15208-1.087718-.377618-1.77268-.496737m7.025211-12.374165c-.047363-.084243-7.780578-5.281956-8.996804-5.617207-.706255-.325037-1.359525-.504391-2.18671-.917616-.46395-.302188-.922944-.448087-1.395097-.709991-.670141-.061887-1.20634-.3331-1.783154-.32502-.636458-.228336-.947244.19803-1.615454.098421-.572117.097025-1.553824.228624-2.048168.369661m.230905-12.287184c.238544-.186179 1.12946-.482689 1.73495-.83758.723105-.373775 3.42617-.693226 4.700183.041458" font-size="12"/>
    <path fill="none" stroke="#000" stroke-width="1.120505" d="M352.901161 141.369336c-.023891-.042487-.285614-1.34824-.755374-3.512703-.45029-2.669998-.136364-8.92614.006506-9.610001.105287-.67526-.036558-1.69748.220376-2.264213.151538-.745615.44511-1.394653.678208-2.041504.3028-.776667.557463-1.436604.875458-1.985609.348924-2.042438 6.10445-10.2445 6.481146-10.615369.297056-.445641.729048-1.033673 1.03282-1.410785.164988-.461047.513958-.906954.835986-1.465939.478785-.616268.598495-1.072106.89073-1.66351.055325-.580645.289889-1.452958.283802-2.151402.166804-.84193.064756-1.486423.158538-2.080976-.081704-.736918.382929-9.746434.419777-10.17304.146438-.881575 1.025478-3.81595 3.155041-3.300054.783033.286687 1.688277.432352 2.220893.753782.75146.209955 1.342857.75768 1.902465 1.169981 2.568597 2.497105 3.108898 4.200591 3.440035 4.789557.118206.210239.236407.420477.354613.630719m-28.845146 67.674917c-.023472-.041756-.047367-.084243-.070842-.126.191517.340631.085436.17082-.157775-.575561-.063916-.641828-.26187-1.510063-.361864-2.120038-.129748-.633741-.426706-1.355685-.346185-1.797202-.226931-.643696-.08418-1.175158-.023332-1.812887.180253-.797427.261719-1.374451.283805-2.151405.08763-.953597.017175-1.629352.071601-2.530538-.251266-.741851-.302506-1.362849-.68543-2.103944-.340726-.708906-.60135-1.36451-1.008681-2.088993-.331137-.588963-.661862-1.177194-.992995-1.76616l.992995 1.76616c-.331137-.588963-.661862-1.177194-.992995-1.76616" font-size="12"/>
    <path fill="#f9dd16" fill-rule="evenodd" stroke="#000" stroke-width="1.120505" d="M354.828843 159.874202c-1.18942-1.820583-2.39435-5.292636-2.429771-5.355636-.00035-.0007-2.40319-4.12688-2.40319-4.12688-1.440378-2.068022-2.55202-2.078362-3.341968-2.10471-1.721578-.1109-2.482493-.430267-3.782814-.529275-1.32385-.583258-.3389-2.96401-.37432-3.027007 1.357419-5.410173 7.051537-4.876668 7.283796-4.758511 2.6115.855215 2.929184 1.175043 2.501784 2.825828-.658472 1.781663-1.048362 2.415439-.993789 3.546501.137448 2.163302 2.753748 5.340272 2.789581 5.404006.035418.062996 1.721718 1.438392 1.721718 1.438392.799754.685102 1.864452.805714 2.954675 2.156634.956388 1.454123 1.09292 2.041627.299424 3.483681-1.0093 1.895035-3.184813 2.45488-4.225126 1.046977z" font-size="12"/>
    <path fill="#f9dd16" fill-opacity=".988235" fill-rule="evenodd" stroke="#000" stroke-width=".84038pt" d="M220.480896 109.58751c.226127.231974 2.94648 1.875367 2.993722 1.784374s7.118948-1.722104 7.071706-1.63111c-.047242.090993-3.962153 4.744455-3.780166 4.83894.181242.094096 4.09121 4.775368 4.182203 4.82261.090248.046855-7.403966-.616032-7.403966-.616032l-4.957356 3.996725-1.11027-5.187793s-6.236067-2.199844-6.32706-2.247086c-.090248-.046855 5.336858-1.840577 5.336858-1.840577l1.620168-4.231341s2.098823.398434 2.374161.31129z"/>
    <path fill="#fff" fill-rule="evenodd" stroke="#000" stroke-width="1.299993" d="M311.394021 121.070029c.014711-4.372684-8.246687-25.47295-9.664397-28.514678-2.637232-3.300856-5.42781-8.527766-6.627266-13.042224-.776698-4.55726-3.214315-8.131343-6.650136-9.343228-3.965356-2.10513-7.837767-1.279664-11.565348-.955664-1.827393.388266-3.391023 1.375556-4.273918 2.829897-2.01266 2.878988-3.106866 2.659355-4.499203 3.900336-11.460504 1.786048-22.29827 7.70002-30.54391 11.730871-4.366063 3.03109-8.072286 4.79125-9.789282 5.162028-4.655067.016697-8.0408-2.188985-9.657988-3.361902-5.271923-4.793724-10.543459-9.588193-15.815382-14.381916-4.569808-3.410344-5.699849 1.512926-4.822359 2.264878 1.525737 3.278669-1.777382 5.274627 10.763783 17.088337 1.583639 3.252863 3.16689 6.506473 4.750528 9.759337 0 0-.26353 2.668821-.042759 2.783441 2.289832 5.454581 5.927182 4.09518 7.643787 2.565204 1.241826-1.13164 2.484398-2.26289 3.726223-3.39453 0 0 7.384283-2.337126 7.498903-2.557897 7.918614 1.178657 28.322692-2.708782 31.687387-4.305376 3.032092-1.698259 3.225565-.259853 5.852422-2.399543 2.195807-1.453519.988176-.296552 5.045422-4.004029 1.248842-1.074023 2.236842.66515 2.469778 1.88164.226051 11.51794 1.9631 21.456915 3.013196 32.941546.065371.594499.130354 1.189744.195725 1.784243 6.426621 2.027965 12.854375 4.055571 19.280996 6.083536 4.179068-3.907466 8.359268-7.81529 12.538336-11.722756-.12428-1.020885-.343403-1.860915-.514538-2.791551z"/>
    <path fill="#f9dd16" fill-rule="evenodd" d="M212.094093 84.770992c.157621.139595-2.850801 9.931928-2.850801 9.931928s-2.77244-2.765065-2.748818-2.810562l1.941354-10.288578 3.658265 3.167212z"/>
    <path fill="none" stroke="#000" stroke-width=".84038pt" d="M257.870944 78.948845c3.689823 4.10584 4.834217 10.77998 4.16577 14.51688"/>
    <path fill="none" stroke="#000" stroke-width="1.239056" d="M212.181998 84.408449c-.13712.661704-.719942 3.613582-.991207 4.420586-.2271.893375-.429887 1.794638-.580696 2.6888-.278371.977541-.399371 1.617314-.708981 2.622195-.098817.8615-.279893 1.669877-.499377 2.53217m-1.908794-16.753915c.06122.126474.283357 1.015414.316355 1.58837-.10498.5998-.271918 2.750635-.501749 3.477832-.182954.808349-.341598 1.624585-.449811 2.436702-.229581.883565-.319603 1.46367-.578485 2.370845-.058933.784677-.200511 1.516977-.377013 2.296482" font-size="12"/>
    <path fill="none" stroke="#000" stroke-width=".84038pt" d="M243.595152 103.272227l.066604-.128286c-.208717.402013-.046981.172562-.44198-.71901-.419206-.46194-.713528-2.707378-.069177-3.948472.246802-.63222.660501-1.5859.971834-2.185564.088676-.1708.339326-.339884.42839-.51143m-27.342875-6.369798l-.066604.128287-.266414.513144c-.345796.666044-.811345 1.272757-1.128501 1.859927-.333405.642177-.848798 1.18987-1.182203 1.832047-.428242.600514-.803838 1.396908-1.247427 2.017862-.415686.738651-.87738 1.264985-1.283584 2.047382-.351464.618597-.633205.904105-.99604 1.602967l.99604-1.602967c-.351464.618597-.633205.904105-.99604 1.602967m-7.228216-22.5012c.064319.120507.313174.957982.365533 1.493647-.08252.55654-.1724 2.55895-.373188 3.23021-.15159.747934-.279254 1.504502-.35765 2.25919-.195118.817183-.263455 1.35552-.486325 2.193331-.031052.730977-.14475 1.409576-.291048 2.130904m17.219676 12.306302c-.866051-.910772-1.37517-.577607-1.931206-.61915-.6166.109762-1.73741.625308-2.874546 1.76869-.415096.452996-.76409.785968-1.313908 1.274124-.246784.384143-.450477.530263-.723184.765542m71.896616-33.91595l-.066604.128286c.209104-.40276.057537-.174657.24709.780692.249694.658949.279933 1.116847.555502 1.75514m-14.200679.901241c-.044531.085773-.156704 9.402712.22907 10.603862.114962.768908.322774 1.413688.430197 2.332078.001342.553682.13072 1.0176.170257 1.556076.315325.594546.382159 1.191699.704895 1.669837.157627.657547.684574.683989.967285 1.297584.394578.425482 1.042451 1.17469 1.431245 1.511002m-10.40599 6.53773c-.286432-.097577-1.022537-.680489-1.65113-.992638-.708817-.400198-2.456807-2.486598-2.54007-3.9549"/>
    <path fill="none" stroke="#000" stroke-width=".84038pt" d="M271.972834 85.646255c-.022459.043259-.971481.977512-2.524947 2.556205-1.987058 1.839336-7.392938 5.003815-8.043324 5.258902-.622603.281821-1.400093.960462-2.014973 1.055968-.706795.281667-1.4106.391605-2.07945.55094-.815634.172134-1.507246.320597-2.140745.355304-1.89985.826935-11.914597.504924-12.431221.39294-.535552-.004396-1.264148-.04368-1.746045-.091236-.476096.114533-1.040307.066851-1.684362.103653-.77785-.062963-1.224786.086595-1.87964.166081-.516077.271792-1.37435.553407-1.955338.941107-.795735.321659-1.279018.760086-1.827799 1.007323-.571749.472036-8.36367 5.018728-8.740752 5.221595-.81775.360415-3.754194 1.232457-4.489168-.831753-.189102-.812135-.563128-1.649261-.585988-2.270927-.236-.743688-.101739-1.538495-.063357-2.232524.68201-3.516809 1.811176-4.901998 2.122509-5.501661l.333405-.642177m72.418429-12.940298l-.066604.128286c.180062-.34682.096106-.165049-.395087.447287-.501945.405066-1.119872 1.046293-1.575402 1.464093-.459114.45571-.900421 1.099626-1.313907 1.274125-.414203.542468-.937026.714174-1.503877 1.012631-.765874.28603-1.293241.53397-1.955339.941107-.845787.44907-1.37253.87819-2.156283 1.326324-.482988.616595-.97445.999644-1.384686 1.725974-.406424.67339-.812134 1.250568-1.195105 1.988213l-.933611 1.798245.933611-1.798245-.933611 1.798245m5.969668 37.172286l.133595-.257318c-.246666.475106-.160197.350505.071524-.451463.002242-.961825.230449-2.125436.239981-2.973636.144484-.898392.291187-1.868542.300531-2.778389-.05446-1.064174-.05272-2.017738-.211868-3.044415-.012302-.944757-.122926-1.924463-.150932-2.849914-.017234-.917016-.08571-1.702506-.284526-2.592594-.018414-.666704-.059745-1.58108-.22171-2.398064.08685-.6433-.096205-1.235456-.233072-1.750607-.249134-.991964-.345571-1.570398-.607315-2.598262-.157379-.550419-.312799-1.254165-.550194-2.079062-.085831-.781244-.504142-1.795705-.674305-2.46923-.232262-.495554-.466366-1.166294-.556248-1.755528-.243179-.543833-.589775-1.20764-.684148-1.822878-.256342-.469234-.529017-1.19882-.812433-1.88948-.244327-.567155-.423872-1.266382-.683789-1.821745-.262189-.702365-.58232-1.302246-.74583-2.017767-.250767-.242874-.307605-.509106-.442366-.718264"/>
    <path fill="#f9dd16" fill-rule="evenodd" stroke="#000" stroke-width=".84038pt" d="M286.398087 73.8966c-.871542 1.992389-3.116214 4.902424-3.149515 4.966567-.000388.000746-2.136098 4.271221-2.136098 4.271221-.941077 2.337885-.340772 3.273553.069924 3.94886.850297 1.50103.999941 2.312563 1.629429 3.454654.237247 1.427044-2.294052 1.907205-2.327354 1.971348-5.269762 1.828067-7.942664-3.227908-7.971045-3.48694-.715104-2.653278-.621563-3.094256.99362-3.64099 1.851258-.425113 2.595055-.446113 3.511415-1.111362 1.734528-1.300045 2.959187-5.229193 2.992876-5.294082.033302-.064143.260207-2.228349.260207-2.228349.135054-1.044374-.347282-2.001174.18568-3.65329.692614-1.596688 1.109332-2.032745 2.750435-2.158857 2.138284-.193717 3.7984 1.319643 3.190426 2.96122z"/>
    <path fill="#f9dd16" fill-opacity=".987421" fill-rule="evenodd" stroke="#000" stroke-width="1.120503" d="M279.482531 125.328785c-.79615-.723042 14.9754 5.714725 17.145225 5.787834 2.966676-1.085088 15.192976-11.43015 15.192976-11.43015.120682 1.012678.554087 3.641095 1.73537 4.196232-4.725832 3.834536-9.01861 7.523554-13.744793 11.35739.33791 6.077121-.771314 12.515938 2.314994 19.31645 0 0-3.689018.07171-3.689018 0-3.255613-3.255613-4.41381-18.954054-4.41381-18.954054-5.184424-2.315343-10.369548-4.557578-15.553972-6.872921.747878-.482728 1.350588-1.977085 1.013028-3.400781z" font-size="12"/>
    <path fill="none" stroke="#000" stroke-width="1.120503" d="M294.488013 141.421453c.252208-.182946-2.844944 1.438738-3.640395 1.845909-14.328265 7.643187-21.701754 18.761312-22.161394 19.181425-.24766.473633-.703453 1.105377-1.120768 1.724177-.33581.518758-.817838 1.055705-1.13546 1.580408-.439001.607957-1.36178 1.80848-1.865846 2.34158-.062965.343505.238915-.117535.14027.110886m39.573868-35.868058c-.278093-.140621 2.580844 1.871793 3.306684 2.39265 13.350566 9.245632 26.610184 10.717251 27.194004 10.93378.534499.003497 1.304764.119981 2.045646.208132.615303.061215 1.31281.244162 1.924964.286838.741231.111937 2.23104.383383 2.935893.588018.333712-.101443-.21373-.15846.03428-.1756" font-size="12"/>
</svg>
