<svg xmlns="http://www.w3.org/2000/svg" xmlns:xlink="http://www.w3.org/1999/xlink" viewBox="0 0 600 300">
    <defs>
        <clipPath id="cp">
            <path d="M0 0v75h350v75h-50zm300 0H150v200H0v-50z"/>
        </clipPath>
        <clipPath id="cp2">
            <path d="M0 0h300v150H0z"/>
        </clipPath>
    </defs>
    <path fill="#FFF" d="M0 0h600v300H0z"/>
    <path id="wave" fill="#002b7f" d="M600 260.881c-6.723 4.045-12.499 13.498-30.36 13.498-35.711 0-44.641-19.902-71.427-19.902-17.856 0-26.785 19.902-44.641 19.902-35.715 0-44.643-19.902-71.429-19.902-17.857 0-26.786 19.902-44.643 19.902-35.714 0-44.643-19.902-71.428-19.902-17.858 0-26.786 19.902-44.643 19.902-35.714 0-44.643-19.902-71.429-19.902-17.858 0-26.786 19.902-44.643 19.902-35.714 0-44.643-19.902-71.428-19.902-17.858 0-23.215 14.182-33.929 14.182v25.621c10.714 0 16.071-14.181 33.929-14.181 26.785 0 35.714 19.901 71.428 19.901 17.857 0 26.785-19.901 44.643-19.901 26.785 0 35.715 19.901 71.429 19.901 17.857 0 26.785-19.901 44.643-19.901 26.785 0 35.714 19.901 71.428 19.901 17.857 0 26.786-19.901 44.643-19.901 26.786 0 35.714 19.901 71.429 19.901 17.856 0 26.785-19.901 44.641-19.901 26.786 0 35.716 19.901 71.427 19.901 17.861 0 23.637-5.64 30.36-9.684v-29.435z"/>
    <use transform="translate(0 -49.75348)" xlink:href="#wave"/>
    <use transform="translate(0 -99.50701)" xlink:href="#wave"/>
    <use transform="translate(0 -149.26056)" xlink:href="#wave"/>
    <use transform="translate(0 -199.01404)" xlink:href="#wave"/>
    <use transform="translate(0 -248.76752)" xlink:href="#wave"/>
    <path fill="#FFF" d="M0 0h300v152H0z"/>
    <g clip-path="url(#cp2)">
        <path fill="#00247d" d="M0 0h300v150H0z"/>
        <path stroke="#fff" stroke-width="30" d="M0 0l300 150m0-150L0 150"/>
        <path stroke="#cf142b" stroke-width="20" d="M0 0l300 150m0-150L0 150" clip-path="url(#cp)"/>
        <path stroke="#fff" stroke-width="50" d="M150 0v200M0 75h350"/>
        <path stroke="#cf142b" stroke-width="30" d="M150 0v200M0 75h350"/>
    </g>
    <path fill="#a24300" stroke="#fff" stroke-width="6.935" d="M814.961-301.181L797.244 407.48c0 37.298 80.097 37.298 88.583 0L868.11-301.181h-53.149z" transform="matrix(.12095 0 0 .28726 347.838661 166.046242)"/>
    <g transform="matrix(.43857 0 0 .37683 122.200387 25.05769)">
        <g transform="matrix(-.31451 .10485 -.1383 -.30323 1046.472 373.319)">
            <g id="t3" fill="none" stroke="#000" stroke-width="1">
                <path fill="#006d00" stroke="#fff" stroke-width="8.25" d="M673.2285 325.1613l17.717 70.866 35.433-53.15-17.717 88.583 35.433-35.433-35.433 88.582 35.433-35.433-35.433 88.583 35.433-35.433-35.433 106.299 35.433-35.433-35.433 106.299 35.433-35.433-35.433 106.299-17.716 53.151-17.717 17.72-17.717-17.72-17.716-53.151-35.433-106.299 35.433 35.433-35.433-106.299 35.433 35.433-35.433-106.299 35.433 35.433-35.433-88.583 35.433 35.433-35.433-88.582 35.433 35.433-17.717-88.583 35.433 53.15 17.717-70.866z"/>
                <path d="M673.2285 325.1613v496.067m-70.866-177.17l70.866 106.299 70.866-106.299"/>
                <path d="M602.3625 573.1923l70.866 106.299 70.866-106.299"/>
                <path d="M602.3625 502.3263l70.866 106.299 70.866-106.299"/>
                <path d="M602.3625 449.1763l70.866 88.583 70.866-88.583"/>
                <path d="M602.3625 396.0273l70.866 88.582 70.866-88.582"/>
                <path d="M620.0785 342.8773l53.15 106.299 53.15-106.299"/>
            </g>
        </g>
        <use transform="matrix(.23652 -.28186 .29496 .22762 354.5673 204.654)" xlink:href="#t3"/>
        <use transform="matrix(.15164 .33524 -.3329 .1673 907.5388 -153.4696)" xlink:href="#t3"/>
        <use transform="matrix(-.20952 .30246 -.3147 -.19945 1141.363 167.5798)" xlink:href="#t3"/>
        <use transform="matrix(-.20772 -.25838 .23618 -.23515 689.9856 567.2772)" xlink:href="#t3"/>
        <g transform="matrix(-.36218 -.09947 -.2098 .31773 1222.415 -24.22945)">
            <g id="t2" fill="none" stroke="#000" stroke-width="1">
                <path fill="#006d00" stroke="#fff" stroke-width="8.25" d="M744.0947 425.1968l28.643 70.866 42.223-53.15-10.184 88.583 27.9-35.433-17.716 88.582 25.249-35.433-25.249 88.583 35.433-35.433-35.433 106.299 35.433-35.433-35.433 106.299 35.433-35.433-35.433 106.299-17.716 53.151-17.717 17.72-17.717-17.72-17.716-53.151-35.433-106.299 35.433 35.433-35.433-106.299 35.433 35.433-35.433-106.299 35.433 35.433-45.617-88.583 45.617 35.433-53.15-88.582 42.966 35.433-25.25-88.583 35.433 53.15.001-70.866z"/>
                <path d="M750.6727 460.6298l28.855 124.016v336.618"/>
                <path d="M719.6947 761.8108l59.833 88.582 60.682-88.582"/>
                <path d="M717.9977 690.9448l61.53 88.582 60.682-88.582"/>
                <path d="M718.8457 620.0788l60.682 88.582 59.833-88.582"/>
                <path d="M716.2997 566.9288l63.228 70.866 53.149-70.866"/>
                <path d="M708.6617 513.7798l70.866 70.865 45.406-70.865"/>
                <path d="M719.5887 469.2218l53.15 86.886 35.327-95.478"/>
            </g>
        </g>
        <use transform="matrix(.36088 .10411 .01321 .38053 452.7614 -239.2657)" xlink:href="#t2"/>
        <g fill="none" stroke="#000">
            <path fill="#006d00" stroke="#fff" stroke-width="8.25" d="M354.331 531.496l88.583 88.583 17.716-53.149v88.582l35.433-35.433-17.716 88.583 35.432-35.434-17.716 88.584 35.433-35.433-17.716 106.299 35.433-35.433-35.433 106.299 35.433-35.433-17.717 106.298-17.716 53.151-17.717 17.72-17.717-17.72-17.716-53.151-53.15-82.294 35.434 11.429-35.433-106.299 35.433 35.433-53.15-106.299 35.433 35.433-53.15-88.584 53.15 35.434-70.866-88.583 53.149 35.433-70.866-70.866 70.866 35.433-53.149-88.583z" transform="matrix(.04613 -.36474 .32602 .0648 386.004742 315.20953)"/>
            <path d="M378.962 560.015l63.952 95.497 17.716 53.15 8.859 45.205 8.858 78.811 9.315 70.866 8.401 141.736" transform="matrix(.04613 -.36474 .32602 .0648 386.004742 315.20953)"/>
            <path d="M425.197 903.544l63.665 70.866 50.749-88.583" transform="matrix(.04613 -.36474 .32602 .0648 386.004742 315.20953)"/>
            <path d="M417.082 814.961l70.579 88.583 50.75-88.583" transform="matrix(.04613 -.36474 .32602 .0648 386.004742 315.20953)"/>
            <path d="M407.48 752.443l70.867 80.235 45.948-88.583M372.047 637.796l88.583 70.866 25.831-70.866" transform="matrix(.04613 -.36474 .32602 .0648 386.004742 315.20953)"/>
            <path d="M360.618 602.363l82.296 53.149 10.515-53.149m-63.665 88.582l81.095 70.866 33.946-70.866" transform="matrix(.04613 -.36474 .32602 .0648 386.004742 315.20953)"/>
        </g>
    </g>
    <path fill="#9d9d9d" stroke="#000" stroke-width=".255357" d="M425.300996 222.458027l24.96242-4.478927 26.002606 4.478927-12.065237 5.016247-22.258091.358466-16.641698-5.374713z"/>
    <path fill="#c00" stroke="#000" stroke-width=".412675" d="M450.453163 182.120067c-4.363155 1.516705-9.196495-2.13433-17.064258 3.823808 0 0-13.716462-5.867952-14.75842 7.693977-.0418.548973 2.171063 3.856488 2.479116 3.620129 1.723678-1.323412-.818265 1.284905-.818265 1.661864 0 .38.252826.591026.3382.75848.083853.168972.294626.421799.336679 1.138478.0418.716425-1.554705 2.671143-.880079 3.387568.673106.71668.714906 2.78261.714906 3.372116 0 .589253.422053 2.233384.716679 2.571583.294626.336427.800279 1.178759.800279 1.895184 0 .71668.294626 2.697237.167453 3.20137-.125653.505652.758479 1.138478 1.560531 1.391304.80028.252827 11.130186.432187 25.627673.17936 14.499008-.252826 19.336401 2.041104 25.326713-.13756.925933-.336426 1.094906-1.094905 1.011306-1.516958-.085373-.42028 0-1.76801.252826-2.10621.252826-.336426 1.938758-3.033663 1.600558-3.539316.318186-.28728 2.682543 1.365465 1.176732-.110453-.38608-.378226.216093-4.36138.423826-5.20042.209506-.840558.530986-2.419076.917319-2.712183.388106-.293106-.65816-1.390291-.583933-1.588398.075493-.199626.357453-.818012.750372-1.099718 0 0 .730866-3.426836.280187-5.111247-.44764-1.68593-2.095064-9.26768-12.378357-7.74895 0 0-13.766115-5.29466-17.998043-3.823808z"/>
    <g transform="translate(413.751724 163.795754) scale(.27506)">
        <g stroke-width="1.241" transform="matrix(.49697 -.0446 .08947 .72677 44.70009 100.5425)">
            <g id="t4" fill="#f7d917" stroke="#000">
                <path d="M49.75.125c-5.093.89-15.156 29.245-12.609 38.75 1.763 6.58 4.498 11.12 6.047 13.906-3.405-4.685-11.383-13.75-22.25-13.75-13.664 0-15.431 29.948-15.094 31.875.001.007-.002.026 0 .032.001.004.029.027.031.031.002-.001.029.001.031 0 .613-.715 6.142-13.094 19.657-13.094 8.896 0 15.829 7.035 18.375 10.031-.001.945.022 1.858.031 2.782-2.004 2.828-3.282 9.531-9.469 17.968C27.023 98.852 4.128 99.897.281 100h49.532c.047 0 .109.003.156 0 .022.002.04-.001.062 0 .047.003.109 0 .157 0h49.531c-3.847-.103-27.18-1.148-34.656-11.344-6.188-8.437-7.028-15.14-9.032-17.968.009-.924.032-1.837.032-2.782 2.545-2.996 9.478-10.031 18.375-10.031 13.514 0 19.043 12.379 19.656 13.094.002.001.029-.001.031 0 .002-.004.03-.027.031-.031.002-.006-.001-.025 0-.032.337-1.927-1.43-31.875-15.093-31.875-10.868 0-18.846 9.065-22.25 13.75 1.548-2.786 4.29-8.575 5.718-13.906C65.118 29.219 55.091.132 50 .125c-.08 0-.169-.014-.25 0zm-6.437 52.844c.352.49.662.912.906 1.281.005.008.541 2.977.547 2.984-.003.064 2.627 10.186 2.624 10.25-.264-.392-3.737-13.915-4.077-14.515zm13.375 0c-.341.6-4.033 14.123-4.297 14.515-.003-.064 3.393-13.139 3.39-13.203 0-.01-.437 2.964-.437 2.953.244-.369.991-3.775 1.344-4.265z"/>
                <path d="M42 67.578s4-1.859 8-1.859 8 1.859 8 1.859v4.953s-4-1.859-8-1.859-8 1.859-8 1.859v-4.953z"/>
            </g>
        </g>
        <use transform="matrix(.49538 .0597 -.0636 .7295 168.9189 96.59048)" xlink:href="#t4"/>
        <g fill="#f7d917" stroke="#000" stroke-width=".715">
            <path d="M24.308 134.56l9.69-11.814s.903 1.168 0 0C14.132 97.065 13.127 82.331 15.363 74.87c2.236-7.461 6.709-15.544 18.635-25.493 11.926-9.948 20.156-4.419 31.336-4.419 11.181 0 14.163 2.487 23.852 3.731 9.69 1.243 35.778 2.487 35.778 2.487v-6.84s1.029.192 0 0c-11.518-2.147-26.088 0-35.778-2.487-9.689-2.487-17.889-3.108-28.324-3.108-10.435 0-17.92-3.043-24.628 1.31-6.709 4.352-14.908 11.813-20.871 18.031C9.4 64.3 6.419 76.735 7.164 84.818c.746 8.083 3.727 14.923 8.199 21.14 4.473 6.218 3.727 11.192 5.218 15.544 1.491 4.353 3.727 13.679 3.727 13.058zm214.947 0l-9.69-11.814s-.904 1.168 0 0c19.865-25.681 20.87-40.415 18.634-47.876-2.236-7.461-6.708-15.544-18.634-25.493-11.926-9.948-20.156-4.419-31.337-4.419-11.181 0-14.162 2.487-23.852 3.731-9.69 1.243-35.778 2.487-35.778 2.487v-6.84s-1.029.192 0 0c11.519-2.147 26.088 0 35.778-2.487 9.69-2.487 17.889-3.108 28.324-3.108 10.436 0 17.92-3.043 24.629 1.31 6.708 4.352 14.907 11.813 20.87 18.031 5.963 6.218 8.945 18.653 8.199 26.736-.745 8.083-3.727 14.923-8.199 21.14-4.472 6.218-3.727 11.192-5.217 15.544-1.491 4.353-3.727 13.679-3.727 13.058z"/>
            <path stroke-width=".835" d="M115.553 38.701h34.563v70.894h-34.563z"/>
        </g>
        <g fill="#f7d917" stroke="#000" stroke-width=".5">
            <path d="M119.684-23.799s3.72 3.028 6.575 6.922c2.856 3.893 4.846 8.652 4.846 8.652s-4.759-1.99-8.652-4.846c-3.894-2.855-6.922-6.575-6.922-6.575V6.656s3.028-3.72 6.922-6.575c3.893-2.856 8.652-4.846 8.652-4.846s-1.534 3.927-2.524 8.653c-.891 4.25-8.183 14.064-8.183 14.064l21.303 1.429s-3.542-11.243-4.969-15.493c-1.536-4.578-2.167-8.653-2.167-8.653s4.759 1.99 8.653 4.846c3.893 2.855 6.921 6.575 6.921 6.575v-26.302s-3.028 3.72-6.921 6.575c-3.894 2.856-8.653 4.846-8.653 4.846s1.99-4.759 4.846-8.652c2.855-3.894 6.575-6.922 6.575-6.922h-26.302z"/>
            <path d="M149.977907 23.076a17.143 17.143 0 11-34.286 0 17.143 17.143 0 1134.286 0z"/>
            <path d="M116.074 25.535h34.102s.494-6.596-1.974-9.064h-10.594l-.179-9.888h-10.042l-.179 9.888s-7.127.357-10.41.357c-1.489 4.041-1.26 4.381-1.26 4.381l.536 4.326z"/>
        </g>
        <g fill="#f7d917" stroke="#000" stroke-width=".75">
            <path d="M110.877 107.221s6.212 5.056 10.979 11.557c4.767 6.501 8.09 14.446 8.09 14.446s-7.946-3.323-14.446-8.09c-6.501-4.767-11.557-10.979-11.557-10.979v43.916s5.056-6.211 11.557-10.979c6.5-4.767 14.446-8.09 14.446-8.09s-3.323 7.946-8.09 14.447c-4.767 6.5-10.979 11.557-10.979 11.557h43.916s-6.212-5.057-10.979-11.557c-4.767-6.501-8.09-14.447-8.09-14.447s7.946 3.323 14.446 8.09c6.501 4.768 11.557 10.979 11.557 10.979v-43.916s-5.056 6.212-11.557 10.979c-6.5 4.767-14.446 8.09-14.446 8.09s3.323-7.945 8.09-14.446c4.767-6.501 10.979-11.557 10.979-11.557h-43.916zM27.24 181.78l21.625-3.813s-6.995-3.901-12.819-9.475c-5.824-5.574-10.476-12.822-10.476-12.822s8.402 1.892 15.632 5.458c7.23 3.566 13.288 8.806 13.288 8.806l-7.626-43.249s-3.901 6.995-9.475 12.819c-5.574 5.824-12.822 10.475-12.822 10.475s1.892-8.401 5.458-15.631c3.566-7.23 8.806-13.288 8.806-13.288l-21.625 3.813L27.24 181.78zm199.599-60.72s5.24 6.058 8.806 13.288c3.566 7.23 5.458 15.631 5.458 15.631s-7.248-4.651-12.822-10.475c-5.574-5.824-9.475-12.819-9.475-12.819l-7.626 43.249s6.058-5.24 13.288-8.806c7.23-3.566 15.632-5.458 15.632-5.458s-4.652 7.248-10.476 12.822c-5.823 5.574-12.819 9.475-12.819 9.475l21.625 3.813 10.034-56.907-21.625-3.813z"/>
            <path d="M27.464 179.533l.15 31.506s52.648-17.928 105.296-17.928 105.296 17.928 105.296 17.928v-31.506s-52.685-17.929-105.371-17.929c-52.686 0-105.371 17.929-105.371 17.929z"/>
        </g>
        <g fill="#FFF" stroke="#000">
            <g transform="translate(21.24618 -360.3206) scale(.66123)">
                <path id="c3" d="M2.02 723.052a12.122 12.122 0 11-24.243 0 12.122 12.122 0 1124.243 0z"/>
            </g>
            <use transform="translate(10.96519 -378.6019) scale(.66123)" xlink:href="#c3"/>
            <use transform="translate(8.822333 -400.0304) scale(.66123)" xlink:href="#c3"/>
            <use transform="translate(15.25091 -420.0304) scale(.66123)" xlink:href="#c3"/>
            <use transform="translate(28.82233 -436.459) scale(.66123)" xlink:href="#c3"/>
            <use transform="translate(47.39376 -447.8875) scale(.66123)" xlink:href="#c3"/>
            <use transform="translate(68.10805 -446.459) scale(.66123)" xlink:href="#c3"/>
            <use transform="translate(88.82233 -443.0304) scale(.66123)" xlink:href="#c3"/>
            <use transform="translate(109.5366 -440.8875) scale(.66123)" xlink:href="#c3"/>
            <use transform="matrix(-.66123 0 0 .66123 242.3163 -360.3206)" xlink:href="#c3"/>
            <use transform="matrix(-.66123 0 0 .66123 252.5973 -378.6019)" xlink:href="#c3"/>
            <use transform="matrix(-.66123 0 0 .66123 254.7402 -400.0304)" xlink:href="#c3"/>
            <use transform="matrix(-.66123 0 0 .66123 248.3116 -420.0304)" xlink:href="#c3"/>
            <use transform="matrix(-.66123 0 0 .66123 234.7402 -436.459)" xlink:href="#c3"/>
            <use transform="matrix(-.66123 0 0 .66123 216.1687 -447.8875)" xlink:href="#c3"/>
            <use transform="matrix(-.66123 0 0 .66123 195.4544 -446.459)" xlink:href="#c3"/>
            <use transform="matrix(-.66123 0 0 .66123 174.7402 -443.0304)" xlink:href="#c3"/>
            <use transform="matrix(-.66123 0 0 .66123 154.0259 -440.8875)" xlink:href="#c3"/>
            <g transform="translate(1.040326)">
                <use transform="translate(138.4742 -378.3206) scale(.66123)" xlink:href="#c3"/>
                <use transform="translate(138.4742 -392.6019) scale(.66123)" xlink:href="#c3"/>
                <use transform="translate(138.4742 -404.0304) scale(.66123)" xlink:href="#c3"/>
                <use transform="translate(138.4742 -414.459) scale(.66123)" xlink:href="#c3"/>
                <use transform="translate(138.4742 -447.8875) scale(.66123)" xlink:href="#c3"/>
                <use transform="translate(138.4742 -446.459) scale(.66123)" xlink:href="#c3"/>
                <use transform="translate(138.4742 -439.0304) scale(.66123)" xlink:href="#c3"/>
                <use transform="translate(138.4742 -428.8875) scale(.66123)" xlink:href="#c3"/>
            </g>
        </g>
        <g fill="#FFF" stroke="#000">
            <g transform="translate(-.457137 -2)">
                <path id="circle1" d="M143.571 136.291a10.357 10.357 0 11-20.714 0 10.357 10.357 0 1120.714 0z"/>
            </g>
            <use transform="translate(-108.7143 16.78571)" xlink:href="#circle1"/>
            <use transform="translate(107.2857 16.78571)" xlink:href="#circle1"/>
        </g>
    </g>
    <path fill="#002b7f" stroke="#000" stroke-width=".213051" d="M446.147008 210.404884h8.806362v3.838755h-8.806362z"/>
    <path fill="#3e8225" stroke="#000" stroke-width="1.5" d="M16.043 233.111a22.995 8.556 0 11-45.99 0 22.995 8.556 0 1145.99 0z" transform="matrix(-.1718 -.01744 .00604 .24262 461.520674 156.970292)"/>
    <path fill="#c00" stroke="#000" stroke-width=".275116" d="M421.357361 215.266091l-2.206277 2.206277 2.558917 1.477438 5.951552-1.594478-1.060706-3.370342-5.243486 1.281105zm58.385403 0l2.20653 2.206277-2.55917 1.477438-5.951552-1.594478 1.060706-3.370342 5.243486 1.281105z"/>
    <path fill="#3e8225" stroke="#000" stroke-width="1.5" d="M16.043 233.111a22.995 8.556 0 11-45.99 0 22.995 8.556 0 1145.99 0z" transform="matrix(.1718 -.01744 -.00604 .24262 439.579477 156.970292)"/>
    <g fill="#FFF" stroke="#000" transform="translate(412 157.180634) scale(.25333)">
        <g transform="translate(1.069518 -3.475935)">
            <path id="c2" d="M126.203 214.704a4.278 4.278 0 11-8.556 0 4.278 4.278 0 118.556 0z"/>
        </g>
        <use transform="translate(2.406416 10.16042)" xlink:href="#c2"/>
        <use transform="translate(-52.40642 6.149728)" xlink:href="#c2"/>
        <use transform="translate(-47.05882 18.98396)" xlink:href="#c2"/>
        <use transform="matrix(-1 0 0 1 303.0748 -3.475943)" xlink:href="#c2"/>
        <use transform="matrix(-1 0 0 1 301.7379 10.16041)" xlink:href="#c2"/>
        <use transform="matrix(-1 0 0 1 356.5507 6.14972)" xlink:href="#c2"/>
        <use transform="matrix(-1 0 0 1 351.2031 18.98395)" xlink:href="#c2"/>
    </g>
    <path fill="#fff" stroke="#000" stroke-width=".434208" d="M472.429547 228.266634c.82764-.14364 5.820832-1.330758 6.872164-1.965864-.678425-1.223092-1.895944-2.17993-.948478-1.777891.510212.2166.913772-1.469078-.567213-2.75753-4.29982 1.410305-14.612247 3.987208-27.569977 3.987208-13.260463 0-23.702342-2.712436-28.002163-4.122488-1.480985 1.288452-1.019665 2.75221-1.109092 3.299156-.00076.004307.00076.690332.270813 1.236012 1.457678 1.583584 6.179805 2.364103 7.007697 2.507996 3.889169.675386 7.77859 1.696571 21.824132 1.696571 12.993196 0 18.332696-1.427531 22.222117-2.10317z"/>
    <g transform="translate(391.39361 139.672527) scale(.27506)">
        <path fill="#fff" stroke="#000" stroke-width="1.578" d="M132.906 289.655c-3.009.523-22.147 7.301-25.968 9.61.003.014-.003.045 0 .061.325 1.988-3.322 11.251 2.062 15.935 15.632-5.127 59.525-20.406 106.634-20.406 48.209 0 88.14 15.279 103.772 20.406 5.384-4.684 1.737-13.947 2.063-15.935.003-.016-.004-.047 0-.061-3.822-2.309-22.96-9.087-25.969-9.61-14.14-2.455-28.772-11.586-79.835-11.586-47.237 0-68.619 9.131-82.759 11.586z"/>
        <g transform="matrix(1.38439 -.14324 .15642 1.26776 -86.62648 -64.7552)">
            <g id="t1" fill="#000" stroke="#000">
                <g transform="translate(56.86367 150.9007) scale(.4996)">
                    <path id="a1" d="M115.508 301.56a1.872 1.872 0 11-3.743 0 1.872 1.872 0 113.743 0z"/>
                </g>
                <use transform="translate(55.52674 153.307) scale(.4996)" xlink:href="#a1"/>
                <use transform="translate(57.3984 154.9114) scale(.4996)" xlink:href="#a1"/>
                <path d="M113.518 303.669l8.526-3.166-4.185 2.392 2.686-.083-2.492 1.168 4.001.275-8.536-.586z"/>
            </g>
        </g>
        <use transform="matrix(1.38439 -.14324 .15642 1.26776 -45.03159 -76.65847)" xlink:href="#t1"/>
        <use transform="matrix(1.37843 .19234 -.15163 1.26835 100.1696 -120.8592)" xlink:href="#t1"/>
        <use transform="matrix(1.38439 .14324 .15642 -1.26776 54.4337 659.4577)" xlink:href="#t1"/>
        <use transform="matrix(1.38439 .14324 .15642 -1.26776 96.41226 670.4203)" xlink:href="#t1"/>
    </g>
</svg>
