<svg xmlns="http://www.w3.org/2000/svg" xmlns:xlink="http://www.w3.org/1999/xlink" viewBox="0 0 250 150">
    <clipPath id="c">
        <circle r="25"/>
    </clipPath>
    <path fill="#e8112d" d="M0 0h250v150H0z"/>
    <g transform="translate(125 75)">
        <g id="r20" transform="scale(.25)">
            <g id="r4">
                <path id="r1" fill="#ffef00" d="M-8.4 108C0 130-18 164 0 180c-6-24 14-50 8.4-72s-25.2-22-16.8 0z"/>
                <use transform="rotate(90)" xlink:href="#r1"/>
                <use transform="rotate(180)" xlink:href="#r1"/>
                <use transform="rotate(270)" xlink:href="#r1"/>
            </g>
            <use transform="rotate(18)" xlink:href="#r4"/>
            <use transform="rotate(36)" xlink:href="#r4"/>
            <use transform="rotate(54)" xlink:href="#r4"/>
            <use transform="rotate(72)" xlink:href="#r4"/>
        </g>
        <use transform="rotate(9)" xlink:href="#r20"/>
        <circle fill="#e8112d" r="27"/>
        <circle fill="#ffef00" cy="-1.5" r="22.5"/>
        <g id="x" fill="#e8112d" clip-path="url(#c)">
            <path d="M-23.055236 18a37.755236 37.755236 0 1175.510472 0h.305213a36.260449 36.260449 0 10-72.520898 0z"/>
            <path d="M-17.601203 18a35.301203 35.301203 0 1170.602406 0h.423375a33.924578 33.924578 0 10-67.849156 0z"/>
            <path d="M20.7-15.052356a33.052356 33.052356 0 100 66.104712l1.8-1.232551a31.819805 31.819805 0 110-63.63961z"/>
        </g>
        <use transform="scale(-1 1)" xlink:href="#x"/>
    </g>
</svg>
