<svg xmlns="http://www.w3.org/2000/svg" viewBox="0 0 450 300">
    <path fill="#009543" d="M0 0h450v300H0z"/>
    <path fill="#fff" d="M0 0h450v210H0z"/>
    <path fill="#00209f" d="M0 0h450v90H0z"/>
    <g fill="#fff">
        <path fill="#000" stroke="#000" d="M224.76 95.569c-1.7098.03684-3.3781 1.9308-3.3781 1.9308l.14732 20.233-6.3878 6.692h5.1711l-.0437 11.603-30.591 41.193-4.5222-1.563-7.9041 16.861s19.55 12.242 47.925 11.907c31.144-.37035 48.064-12.471 48.064-12.471l-8.1677-16.644-3.9996 1.7393-30.983-40.979-.0437-11.949h5.1711l-7.0378-6.6088.0416-20.159s-1.7514-1.8203-3.4613-1.7835z"/>
        <path fill="none" stroke="#000" stroke-width="5" d="M235.43 144.01h-21.153s-7.6776-16.176-6.4331-27.485c1.2672-11.515 7.8483-16.963 16.598-17.059 10.345-.11526 15.767 5.0691 17.405 16.598 1.6231 11.424-6.4172 27.947-6.4172 27.947z"/>
        <path d="M187.79 182.57c-.3458.46106-2.8816 5.5326-2.8816 5.5326l4.38-.92211-1.4984-4.6105zm2.53 6.57l-4.6105 1.4984 5.5327 2.19-.92212-3.6884zm2.08-6.46l2.3053 6.8006 5.6479-1.6137-1.4984-3.2274L192.4 182.68zm3.57 9.23l.80685 2.7663 7.4921 1.8442-2.9968-6.3395-5.3021 1.729zm8.3-5.77l2.6511 6.3395 5.6479-2.19-1.8442-2.7663-6.4548-1.3832zm3.69 8.65l.92211 2.4205 8.76 1.2679-3.6884-5.7632-5.9937 2.0747zm8.41-6.8l3.2274 5.6479 8.1837-2.9969-.9221-2.19-10.489-.46106zm4.73 7.72l1.729 2.9969 10.143-.3458-3.8037-5.6479-8.0684 2.9968zm10.72-7.49l2.7663 4.7258 6.4548-3.1121-1.729-2.5358-7.4921.92212zm10.6 3.57l-6.4548 3.2274 1.729 2.7663 8.6448-1.3832-3.919-4.6106zm2.08-4.96l3.3426 4.1495 5.4174-4.2648-1.8442-1.9595L244.5 186.83zm9.91 2.19l-5.1869 3.919 1.3832 2.4205 7.1464-1.8442-3.3426-4.4953zm7.15-8.18l1.2679 1.8442-3.5732 5.3021-3.6884-4.7258 5.9937-2.4205zm2.42 4.61l2.19 4.38-4.38 1.4984-.34579-2.0748 2.5358-3.8037z"/>
    </g>
</svg>
