<svg xmlns="http://www.w3.org/2000/svg" viewBox="-72 -28 144 96">
    <path fill="#cd2a3e" d="M-72-28H72v96H-72z"/>
    <path fill="#006233" d="M-72-13.6H72v67.2H-72z"/>
    <path class="st1" fill="#ffc400" d="M29.999999 2.92c-.08 16.496-13.488 29.84-30 29.84S-29.92 19.416-30 2.92c-.656 2.512-1.008 5.136-1.008 7.84 0 17.12 13.871999 31.008 31.008 31.008 17.135999 0 31.007999-13.872 31.007999-31.008 0-2.704-.352-5.344-1.008-7.84z"/>
    <path fill="#ffc400" d="M-.000001-9.239958L-2.694399-.94852l-8.718241.000318 7.053009 5.12472-2.693771 8.291641 7.053401-5.124185 7.0534 5.124186-2.693771-8.291642 7.053012-5.12472L2.694397-.94852z"/>
</svg>
