<svg xmlns="http://www.w3.org/2000/svg" xmlns:xlink="http://www.w3.org/1999/xlink" viewBox="0 0 2800 1400">
    <path fill="#cc0001" d="M0 0h2800v1400H0z"/>
    <path id="white" fill="#fff" d="M0 1300h2800v100H0z"/>
    <use transform="translate(0 -200)" xlink:href="#white"/>
    <use transform="translate(0 -400)" xlink:href="#white"/>
    <use transform="translate(0 -600)" xlink:href="#white"/>
    <use transform="translate(0 -800)" xlink:href="#white"/>
    <use transform="translate(0 -1000)" xlink:href="#white"/>
    <use transform="translate(0 -1200)" xlink:href="#white"/>
    <path fill="#010066" d="M0 0h1400v800H0z"/>
    <path fill="#fc0" d="M576 100c-166.14644 0-301 134.40553-301 300 0 165.59446 134.85356 299.99999 301 300 60.02725 0 115.95466-17.56434 162.92693-47.78325-27.3531 9.43948-56.70943 14.60239-87.27094 14.60239-147.32689.00001-266.89655-119.1724-266.89655-266.00985s119.56964-266.00985 266.89655-266.00985c32.55804 0 63.74586 5.81475 92.60181 16.46727C696.21698 118.90999 638.30493 100 576 100z"/>
    <path fill="#fc0" d="M1075.167344 556.173952l-126.79018-66.152738 37.487895 135.388324-84.80362-113.253362-26.456842 137.843828-26.020683-137.922776-85.161467 112.997674 37.91598-135.274878-126.998828 65.770931 94.34291-105.834153-143.682512 5.51747 132.084086-55.431665-131.908112-55.8288 143.664373 5.949738-94.007686-106.117496 126.790168 66.152738-37.487883-135.388324 84.80362 113.253362 26.456842-137.843828L901.41609 287.92276l85.161466-112.99766-37.915979 135.274877 126.998828-65.770931-94.34291 105.834141 143.682499-5.517457-132.084073 55.431664 131.908111 55.8288-143.664373-5.949738z"/>
</svg>
