<svg xmlns="http://www.w3.org/2000/svg" viewBox="0 0 900 600">
    <path d="M0 0h900v600H0z"/>
    <path fill="#fff" d="M0 0h900v206.25H0z"/>
    <path fill="#007168" d="M0 0h900v187.5H0z"/>
    <path fill="#fff" d="M0 393.5h900V600H0z"/>
    <path fill="#fce100" d="M0 412.5h900V600H0z"/>
    <path fill="#d21034" d="M0 0v600l393.75-300z"/>
    <path fill="#fce100" d="M204.36959 412.484749l-73.154032-53.559715-73.054966 53.57499 28.332478-86.124488-73.528063-52.923824 90.664469.331863 27.612128-86.283705 27.701238 86.329586 90.593293-.402449-73.54415 53.02277z"/>
    <path fill="#fff" fill-rule="evenodd" stroke="#000" stroke-linecap="round" stroke-linejoin="round" stroke-width="1.57465" d="M67.724013 352.427396h52.698833c4.240214 4.7567 13.700704 6.696667 22.711474-.056687 16.517436-9.044782 48.472727.056687 48.472727.056687l6.292297-6.685328-15.338339-50.339631-5.506231-5.899264s-11.797269-7.078361-34.215228-4.718908c-22.4167 2.359454-30.282385-.786064-30.282385-.786064s-19.663332 2.359453-25.169312 5.11194c-.605295.49003-6.292422 6.292296-6.292422 6.292296z"/>
    <path fill="none" stroke="#000" stroke-linecap="round" stroke-linejoin="round" stroke-width="1.57465" d="M78.342563 339.449771s50.339-6.292296 64.891275 12.977625c-8.218407 5.623386-15.454233 6.086963-23.204024.394292 1.234524-2.05712 18.090824-19.664213 60.957802-13.764949"/>
    <path stroke="#000" stroke-linecap="round" stroke-linejoin="round" stroke-width="1.57465" d="M132.221374 289.11014l-.393032 55.45283m45.226432-54.666765l9.439074 44.047335m-98.586995-44.73892l-5.23829 22.715252"/>
    <path fill-rule="evenodd" stroke="#000" stroke-linecap="round" stroke-linejoin="round" stroke-width="1.57465" d="M33.496818 358.46523l12.393368 14.530858c1.455353.867947 2.748077.812519 4.0408 0l18.367333-22.040043 7.714268-9.55119c1.194465-1.414664 1.575782-2.993092 1.469336-4.407757l14.748034-13.104856c1.206433.083141 1.924977.21919 3.13141.301072-1.425373-.369097-2.471191-1.063202-1.348908-2.625254l3.305881-2.571086 2.571086 3.305502s-3.672836 4.775595-4.04017 4.775595h-4.0408l-7.714268 6.980103 3.372268 2.980495 5.076667 13.917376 6.24531-4.409017-4.041305-14.325524 8.816899-9.55119-3.306763-5.143432 2.204509-2.938925s30.512913 19.210715 42.268611 14.068542c.31745.114634.710482-13.700704.710482-13.700704s-31.591234-3.305503-32.32691-9.55119c-.734416-6.244426 6.980104-6.978843 6.980104-6.978843l-3.306763-4.775594.735676-2.572347 5.51001 6.980103 12.490115-10.653443 73.468072 83.754937c4.010945-1.626297 4.867554-2.607618 5.143432-6.612265-.103297-.100778-71.99924-82.652683-71.99924-82.652683l5.510012-5.87659c1.085878-1.224446 1.467572-1.74471 1.468832-3.6746l8.448935-7.346429c2.540854.87286 4.160852 2.395734 5.510011 4.407505l23.227959-19.685503c.612223.612224 2.471569 1.224447 3.733807.535885l38.402534-36.861016-41.854164 29.56233-1.468832-1.102002c0-1.224573 1.517961-1.52741 0-3.673467-1.626298-1.95143-4.041179 1.836796-4.407757 1.836796-.367838 0-6.057989-2.011015-7.30511-4.55867l-.40941 6.762675-10.653443 9.918397-8.081097-.367334-11.755698 11.387608-1.468832 4.40763 1.83667 3.674601s-6.245687 5.510011-6.245687 5.142173c0-.366578-1.262238-1.623778-1.316406-1.786282l5.357585-4.825983.734416-3.30588-1.787541-2.791286c-.54168.393662-7.39581 7.567258-7.763648 6.831582-.612224-.685287-19.835536-22.40763-19.835536-22.40763l1.100995-4.0408-12.488855-13.591864c-4.553254-1.572004-11.755445-1.83667-13.224782 8.081601-1.144202 2.329598-10.653065.367334-10.653065.367334l-5.142803 1.102128-29.020399 41.142675 16.163203 19.468957 33.0612-41.87709.981446-11.86353 6.93702 7.756467c2.312845.297168 4.516093.323244 6.612266-.734668l19.58737 21.863305-3.261412 3.18205c1.102254 1.224447 1.860605 2.006733 2.96286 3.23118 1.102253-.734416 2.154119-1.61622 3.256373-2.351896.367838.49129.980061 1.422223 1.347899 1.912254-1.641414.89314-2.792797 2.082315-4.43421 2.975456-2.626515-1.711958-5.16233-3.843403-4.969592-7.235826l-11.020022 9.183352-.367838 1.83667-32.693361 27.183476-2.938799.367838-.734668 8.448936 21.306005-17.632287v-2.572347l2.20413 1.83667 16.530034-13.22327s1.102254 1.468833.735675 1.468833c-.367838 0-14.694622 13.22453-14.694622 13.22453l-.366578 1.468832-2.571842 2.204508-1.469462-1.102254-19.83667 17.632287h-2.938672l-11.0204 11.021282c-2.84243.246905-5.305432.547977-7.714267 2.203248z"/>
</svg>
