<svg xmlns="http://www.w3.org/2000/svg" viewBox="0 0 600 300">
    <path fill="#002b7f" d="M0 0h600v300H0z"/>
    <path fill="#ffc61e" d="M0 137.5h600v25H0z"/>
    <path fill="#fff" d="M150 262.5l-6.4705-25.8519L125 255.8012l7.3223-25.6235-25.6236 7.3223 19.1532-18.5295L100 212.5l25.8519-6.4705L106.6987 187.5l25.6236 7.3223L125 169.1988l18.5295 19.1531L150 162.5l6.4705 25.8519L175 169.1988l-7.3223 25.6235 25.6236-7.3223-19.1532 18.5295L200 212.5l-25.8519 6.4705L193.3013 237.5l-25.6236-7.3223L175 255.8012l-18.5295-19.1531L150 262.5z"/>
</svg>
