<svg xmlns="http://www.w3.org/2000/svg" xmlns:xlink="http://www.w3.org/1999/xlink" viewBox="0 0 120 60">
    <clipPath id="t">
        <path d="M0 0v15h70v15H60zm0 30v10h30V0h30z"/>
    </clipPath>
    <path fill="#002868" d="M0 0h120v60H0z"/>
    <g stroke="#cf142b" stroke-width="6">
        <path stroke="#fff" d="M0 0l60 30m0-30L0 30"/>
        <path stroke-width="4" d="M0 0l60 30m0-30L0 30" clip-path="url(#t)"/>
        <path stroke="#fff" stroke-width="10" d="M30 0v40M0 15h70"/>
        <path d="M30 0v40M0 15h70"/>
    </g>
    <path fill="#fcd116" d="M60 0h60v60H0V30h60z"/>
    <g transform="translate(30 15)">
        <g transform="scale(5.1039)">
            <circle fill="#002868" r="1"/>
            <path id="s" fill="#fcd116" d="M0-513674l301930 929245-790463-574305h977066l-790463 574305" transform="scale(0)"/>
        </g>
        <use transform="matrix(3 0 0 3 -17.5 .29)" xlink:href="#s"/>
        <use transform="matrix(3 0 0 3 17.5 .29)" xlink:href="#s"/>
        <use transform="matrix(3 0 0 3 0 10.29)" xlink:href="#s"/>
        <use transform="matrix(3 0 0 3 0 -9.71)" xlink:href="#s"/>
    </g>
</svg>
