<svg xmlns="http://www.w3.org/2000/svg" viewBox="0 0 675 450">
    <path fill="#dc171d" d="M0 0l298.571 225.241H675V0z"/>
    <path fill="#fff" stroke="#fff" d="M0 0l299.005 225.746L0 450z"/>
    <path fill="#012a87" d="M0 450l298.571-224.759H675V450z"/>
    <path fill="#ff0" d="M150.828183 170.285709l.091686-3.483424s-1.870994-2.979748.300246-6.181113c0 0-4.6125-2.439807-3.538467-6.260694 0 0-4.17019-1.066786-3.8639-5.654268 0 0-4.50167-.31228-4.96816-4.144247 0 0-4.50167.741411-6.482485-2.992844 0 0-4.39185.858265-5.63011-2.220204 0 0-4.26893 1.478793-6.801876-2.139616 0 0-4.507715 1.821293-6.396845-1.594638-1.86495 3.403843-6.372665 1.594638-6.372665 1.594638-2.502719 3.605314-6.801875 2.109396-6.801875 2.109396-1.195945 3.090556-5.574696 2.21416-5.574696 2.21416-1.97477 3.735262-6.470395 2.992843-6.470395 2.992843-.4413 3.820887-4.936926 4.133166-4.936926 4.133166.35566 4.59957-3.808486 5.64218-3.808486 5.64218 1.098214 3.81988-3.50824 6.253642-3.50824 6.253642 2.226654 3.219498.373796 6.176077.373796 6.176077l-.103776 3.212446 74.506272.344514"/>
    <path fill="#f9d90f" stroke="#000" stroke-width=".271244" d="M377.175 843.108l.091-3.458s-1.857-2.958.298-6.136c0 0-4.578-2.422-3.512-6.215 0 0-4.139-1.059-3.835-5.613 0 0-4.468-.31-4.931-4.114 0 0-4.468.736-6.434-2.971 0 0-4.359.852-5.588-2.204 0 0-4.237 1.468-6.751-2.124 0 0-4.474 1.808-6.349-1.583-1.851 3.379-6.325 1.583-6.325 1.583-2.484 3.579-6.751 2.094-6.751 2.094-1.187 3.068-5.533 2.198-5.533 2.198-1.96 3.708-6.422 2.971-6.422 2.971-.438 3.793-4.9 4.103-4.9 4.103.353 4.566-3.78 5.601-3.78 5.601 1.09 3.792-3.482 6.208-3.482 6.208 2.21 3.196.371 6.131.371 6.131l-.103 3.189 73.949.342h-.012z" transform="matrix(1.00754 0 0 1.00735 -229.18917 -679.02099)"/>
    <path fill="#dc171d" d="M149.086154 165.93697c-11.70253-1.171551-25.177315-3.948821-35.579116 1.907924-6.973156-4.10899-16.68278-3.858159-24.949611-3.053284-4.48958.80286-9.770076.80286-14.46217 1.569454l-.735502.103758c-8.51267.565124-16.234426-1.950234-23.631754-5.255357 2.348566 13.3313 4.956069 26.994017 6.237654 40.950882 2.790875 20.670867-9.782166 38.02553-4.62459 58.445567 3.07903 9.798515 13.854627 15.495092 23.717396 16.624334 9.549425.56311 19.43033 2.127527 28.268435 4.046533 1.68057.349552 3.673475 1.129242 4.83315 1.630904 2.435214 1.018433 4.21956 2.51435 5.783255 4.115033 5.33591-5.556554 13.155397-7.101833 20.871106-7.91678 13.903996-1.62486 31.046212-.741412 39.558883-13.336336v-.712198c4.62459-6.96584 4.011-17.5924 2.006004-25.485004-.13501-2.753093-.870512-5.18182-1.269496-7.805972-8.494535-22.431719-1.220126-47.65884 2.435215-70.26886-4.4654 2.440814-9.44565 3.593225-14.412802 4.814136-3.96163.527853-8.37766.288103-12.38866.07253l-1.662435-.447265m17.484778 64.37585"/>
    <path fill="#62afe1" d="M166.565894 230.312819c-.055415 1.476778.742554 2.637248 1.03071 4.003218 1.625154 9.805566 3.195903 22.793358-6.899607 28.876758-11.168535 7.100825-25.815085 4.05963-38.73774 7.81806-2.582315.717235-6.138916 3.091564-7.954496 4.77082-1.165719-.766595-2.336476-1.94419-3.83972-2.63624-10.63454-5.654268-24.45894-3.759439-36.461716-6.81373-6.029095-1.906919-12.315111-6.603195-13.842536-12.773227-3.92536-16.18815 5.476965-29.985853 4.36666-46.045061-.717365-12.264513-2.778783-24.037439-5.611974-35.535357 9.38419 4.371909 20.245426 5.101232 30.795335 3.004932 7.81344-1.09197 16.909475-1.116146 24.232246 2.188976 4.03518-1.735668 8.75851-2.51435 13.107034-2.992843 8.26784.803867 17.154306 2.299785 25.667985 2.238336 5.685525-.295154 10.850154-1.938145 15.793125-4.127121-2.93193 19.003699-8.56204 38.908978-1.649336 58.022479"/>
    <path fill="#fff" d="M149.686645 234.10147l-.091686-17.86942h2.201466l-27.31732-17.64176-.04937-9.167912h2.637729l-13.659164-9.780382-13.59166 9.774338h2.630677l.049369 9.160861-27.17022 17.61859 2.17124.012088.091685 17.857333 72.090201.04936"/>
    <path fill="none" stroke="#000" stroke-width="1.164224" d="M376.042 906.458l-.091-17.739h2.185l-27.113-17.513-.049-9.101h2.618l-13.557-9.709-13.49 9.703h2.611l.049 9.094-26.967 17.49 2.155.012.091 17.727 71.551.049.006-.013z" transform="matrix(1.00754 0 0 1.00735 -229.18917 -679.02099)"/>
    <path fill="#fff" d="M158.08345 257.575799l.006044 5.591812-88.005238-.097713-.036271-5.567636 88.042517.074544"/>
    <path fill="none" stroke="#000" stroke-width="1.164224" d="M384.376 929.761l.006 5.551-87.347-.097-.036-5.527 87.384.074h-.006z" transform="matrix(1.00754 0 0 1.00735 -229.18917 -679.02099)"/>
    <path fill="#fff" d="M75.928972 257.238336l-.07355-18.924119 3.563654-.007051-.19647 19.144729.214606-18.990604-5.133396-.147074v-4.059629l78.652283.086632.037279 4.022358h-4.851286l.091686 19.16286-.171281-19.16286h3.612016l.079596 18.947287"/>
    <path fill="none" stroke="#000" stroke-width="1.164224" d="M302.836 929.426l-.073-18.786 3.537-.007-.195 19.005.213-18.852-5.095-.146v-4.03l78.064.086.037 3.993h-4.815l.091 19.023-.17-19.023h3.585l.079 18.809m-58.475-4.698l-.055-13.1h-10.482l.061 13.087 10.476.013m0 0l-.055-13.1h-10.482l.061 13.087 10.476.013m0 0l-.055-13.1h-10.482l.061 13.087 10.476.013m0 0l-.055-13.1h-10.482l.061 13.087 10.476.013m0 0l-.055-13.1h-10.482l.061 13.087 10.476.013m-7.682-10.368l.03 7.609h4.797l-.024-7.609h-4.803m58.925 10.404l-.061-13.087-10.446-.012.049 13.099h10.458m-7.682-10.355l.055 7.585h4.791l-.043-7.585h-4.803m7.603-10.975l-.061-13.101h-10.458l.037 13.101h10.489-.006zm-7.682-10.343l.03 7.597h4.791l-.006-7.597h-4.815m-43.567 10.295l-.073-13.076-10.464-.013.049 13.082h10.489v.007zm-7.683-10.343l.024 7.585 4.803.012-.036-7.597h-4.791m26.651 10.366l-.049-13.076-10.47-.012.043 13.087h10.476m-7.676-10.353l.024 7.585 4.797.024-.03-7.609h-4.791m22.298 10.379l-.073-13.101-10.464-.012.049 13.087 10.489.025m-7.69-10.365l.037 7.609h4.797l-.024-7.609h-4.809" transform="matrix(1.00754 0 0 1.00735 -229.18917 -679.02099)"/>
    <path fill="#fff" d="M129.208478 227.080226l.116874 30.421029-30.561587-.04936-.110828-30.395846 30.549496.024177"/>
    <path fill="none" stroke="#000" stroke-width="1.164224" d="M355.717 899.488l.116 30.199-30.333-.049-.11-30.174 30.321.024h.006zm-30.51 8.62l30.54.024m-30.54-.024l30.54.024m-30.54-.024l30.54.024m-30.54-.024l30.54.024m-30.54-.024l30.54.024m-26.729 21.543l-.103-21.342m23.228 21.354l-.103-21.329m14.75-21.732l-17.081-12.474-19.193-.024-16.947 12.449 53.222.049m-34.797-22.827l.03 7.609 16.144.012-.03-7.609-16.144-.012m0 0l.03 7.609 16.144.012-.03-7.609-16.144-.012" transform="matrix(1.00754 0 0 1.00735 -229.18917 -679.02099)"/>
    <path fill="none" stroke="#000" stroke-width="1.164224" d="M331.994 863.799l.03 7.609 16.144.012-.03-7.609-16.144-.012" transform="matrix(1.00754 0 0 1.00735 -229.18917 -679.02099)"/>
    <path fill="none" stroke="#000" stroke-width="1.164224" d="M336.371 865.686l.024 3.792h7.414l-.024-3.792h-7.414m3.665-10.544l8.979 6.348-17.891-.024 8.912-6.325m0 .001l8.979 6.348-17.891-.024 8.912-6.325m0 .001l8.979 6.348-17.891-.024 8.912-6.325m0 .001l8.979 6.348-17.891-.024 8.912-6.325m0 .001l8.979 6.348-17.891-.024 8.912-6.325" transform="matrix(1.00754 0 0 1.00735 -229.18917 -679.02099)"/>
    <path fill="#fff" d="M149.987898 178.072541c2.570224-.061448 3.232175 10.58425 3.23822 15.857738 2.207512.619522 7.102121 3.69799 9.267316 6.481305l-24.8277-.036265c2.133961-2.74705 6.9923-5.837606 9.181675-6.45612 0-5.28054.540039-15.919187 3.14049-15.857739"/>
    <path fill="none" stroke="#000" stroke-width="1.164224" d="M376.341 850.838c2.551-.061 3.208 10.507 3.214 15.742 2.191.615 7.049 3.671 9.198 6.434l-24.642-.036c2.118-2.727 6.94-5.795 9.113-6.409 0-5.242.536-15.803 3.117-15.742m-49.533 49.508h2.21l-.645 1.186m-1.565-1.186h2.21l-.645 1.186m-1.565-1.186h2.21l-.645 1.186m-1.565-1.186h2.21l-.645 1.186m-1.565-1.186h2.21l-.645 1.186s1.065 1.37.018 2.94l.578 1.09h-2.131l.578-1.035s-1.09-1.82.049-2.995l-.657-1.186m4.505 0h2.21l-.639 1.186s1.065 1.334.006 2.94l.572 1.09h-2.124l.572-1.035s-1.065-1.82.055-2.995l-.651-1.186m4.911 0h2.204l-.657 1.186s1.077 1.37.018 2.94l.578 1.114-2.112-.024.566-1.035s-1.077-1.808.043-2.995l-.645-1.186h.006zm5.546.011h2.222l-.651 1.199s1.065 1.346.006 2.922l.597 1.108h-2.143l.572-1.035s-1.065-1.832.073-2.995l-.67-1.199h-.006zm4.93 0h2.204l-.651 1.199s1.071 1.346.012 2.916l.584 1.114h-2.124l.554-1.035s-1.071-1.82.085-2.995l-.664-1.199m4.901.013l2.204-.012-.651 1.199s1.09 1.346.03 2.922l.554 1.108h-2.131l.572-1.035s-1.065-1.82.073-2.995l-.651-1.187" transform="matrix(1.00754 0 0 1.00735 -229.18917 -679.02099)"/>
    <path fill="#f9d90f" d="M114.077304 296.495858c11.4446.037272 25.519876-2.299785 32.113191-5.708664l14.480306-1.28236.288156 17.666943c-12.26675 6.763363-40.589592 8.215965-46.821201 8.167612-6.237655.04936-34.910112-1.428426-47.232276-8.215965l.159191-17.679031 14.51154 1.306536c6.593314 3.391755 21.097801 5.745937 32.530311 5.745937h-.030226"/>
    <path fill="none" stroke="#000" stroke-width=".271244" d="M340.699 968.397c11.359.037 25.329-2.283 31.873-5.667l14.372-1.273.286 17.538c-12.175 6.714-40.286 8.156-46.471 8.108-6.191.049-34.649-1.418-46.879-8.156l.158-17.55 14.403 1.297c6.544 3.367 20.94 5.704 32.287 5.704h-.03" transform="matrix(1.00754 0 0 1.00735 -229.18917 -679.02099)"/>
    <path fill="#f9d90f" d="M29.629675 221.137855l12.75742 4.05963-3.857856 20.653742-12.076325 1.87569s-2.03623-10.860265 3.17676-26.60115"/>
    <path fill="none" stroke="#000" stroke-width=".271244" d="M256.883 893.589l12.662 4.03-3.829 20.503-11.986 1.862s-2.021-10.781 3.153-26.407v.012z" transform="matrix(1.00754 0 0 1.00735 -229.18917 -679.02099)"/>
    <path fill="#7e7e7e" d="M38.522186 245.623565l-12.07028 2.103351 7.636115-10.860264 4.434165 8.756913"/>
    <path fill="#f9b60f" stroke="#000" stroke-width=".271244" d="M265.709 917.896l-11.98 2.088 7.579-10.781 4.401 8.693" transform="matrix(1.00754 0 0 1.00735 -229.18917 -679.02099)"/>
    <path fill="#f9d90f" d="M21.999605 236.01544l12.296976.888484c.276065 10.419044 1.539515 50.179235 49.022667 52.337991l-1.478056 14.465578c-57.799312.600382-62.19116-48.768942-59.841587-67.692053"/>
    <path fill="none" stroke="#000" stroke-width=".271244" d="M249.31 908.358l12.205.882c.274 10.343 1.528 49.813 48.656 51.956l-1.467 14.36c-57.367.596-61.726-48.413-59.394-67.198zm44.797 70.138l14.384-3.141m-14.384 3.141l14.384-3.141m-14.384 3.141l14.384-3.141m-14.384 3.141l14.384-3.141m-14.384 3.141l14.384-3.141" transform="matrix(1.00754 0 0 1.00735 -229.18917 -679.02099)"/>
    <path fill="#ff0" d="M197.52042 221.284928l-12.708051 4.022358 4.029136 20.622514 12.100506 1.943182s1.944544-10.853212-3.4226-26.600142"/>
    <path fill="#f9d90f" stroke="#000" stroke-width=".271244" d="M423.518 893.735l-12.613 3.993 3.999 20.472 12.01 1.929s1.93-10.774-3.397-26.406v.012z" transform="matrix(1.00754 0 0 1.00735 -229.18917 -679.02099)"/>
    <path fill="#7e7e7e" d="M188.841505 245.715234l12.100506 2.170844-7.73989-10.8653-4.360616 8.694456"/>
    <path fill="#f9b60f" stroke="#000" stroke-width=".271244" d="M414.904 917.987l12.01 2.155-7.682-10.786-4.328 8.631" transform="matrix(1.00754 0 0 1.00735 -229.18917 -679.02099)"/>
    <path fill="#f9d90f" d="M205.290536 236.180645l-12.315111.84114c-.178334 10.405948-1.085116 50.184271-48.569276 52.293667l1.613065 14.45349c57.787222.667874 61.76195-48.677274 59.271322-67.59434"/>
    <path fill="none" stroke="#000" stroke-width=".271244" d="M431.23 908.522l-12.223.835c-.177 10.33-1.077 49.818-48.206 51.912l1.601 14.348c57.355.663 61.3-48.322 58.828-67.101v.005zm-44.194 70.053l-14.421-3.159" transform="matrix(1.00754 0 0 1.00735 -229.18917 -679.02099)"/>
    <path fill="#012a87" d="M106.392827 305.20341c-.325434.208523-.766735.263927-1.27554.238743l-2.29416-.116853.19647-2.862894 2.275016.12189c.447346.03022.803006.116852 1.024664.251837.460444.238743.661951.68097.619635 1.29344-.030226.527853-.214605.87136-.55213 1.07283m-3.85181 4.507902l.226696-3.489468 2.674.184345c.864466.067493 1.508281-.159162 1.944544-.60139.453392-.429131.68714-.993249.717366-1.630902.055415-.742419-.13501-1.349852-.57631-1.797117-.423166-.429132-1.024665-.655786-1.778301-.729323l-3.820577-.238742-.527948 8.215964 1.134485.074544m8.322247-6.862083l2.79692.03022m-2.79692-.03022l2.79692.03022m-2.79692-.03022l2.79692.03022m-2.79692-.03022l2.79692.03022m-2.79692-.03022l2.79692.03022c.405029.037273.72341.085626.957158.196434.42921.202478.631725.607434.631725 1.195727 0 .55203-.15919.92072-.472534 1.14133-.300246.201471-.735501.294147-1.257405.294147l-2.68609-.03022.02418-2.82663m-.043324 7.279127l.024181-3.5076 2.624631.037271c.46649 0 .81006.036265 1.048845.153118.386894.178301.57631.552029.594446 1.066786l.067505 1.380072c.018136.33142.024181.533897.043324.668882.03728.097713.055415.202478.103776.277022h1.41055l-.02418-.178301c-.15919-.085625-.288155-.250831-.34357-.50267-.04937-.15916-.07355-.39891-.08564-.699102l-.024181-1.098013c-.018136-.496625-.103776-.839125-.2942-1.030522-.165237-.22061-.39294-.411-.742555-.527852.39294-.207515.68714-.447265.901745-.742419.202515-.325375.30629-.735367.30629-1.238036 0-.943889-.385885-1.588594-1.171763-1.938145-.423166-.19039-.963205-.28911-1.600975-.300191l-3.943495-.037272-.030227 8.241148h1.134486m8.753472-1.748763c-.50276-.61247-.77278-1.379066-.83424-2.28669-.055414-1.14133.165236-2.011682.68714-2.600983.527948-.637654 1.208035-.94389 2.09769-.99325.895699-.04936 1.6312.238743 2.177284.80286.558175.55203.876557 1.318624.931971 2.275609.030226.919712-.128965 1.73466-.55213 2.451895-.41712.73033-1.110304 1.14133-2.13396 1.165506-1.066981.055405-1.86495-.195426-2.373755-.815955m-1.34909-5.187864c-.52795.815956-.742555 1.759845-.68714 2.901175.079595 1.231991.460444 2.250425 1.17781 3.01702.79696.766595 1.85185 1.15241 3.152579 1.078874 1.392415-.061449 2.44126-.588294 3.15258-1.557367.57631-.876396.852375-1.895837.790916-3.152005-.079596-1.12219-.40503-2.035859-1.011567-2.716829-.766734-.913668-1.88913-1.317616-3.410509-1.256168-1.43473.09167-2.48962.618514-3.170715 1.6853m38.73774-11.851498c.790916-.134985 1.478055-.097713 2.103735.116853.91988.288102 1.539515.969072 1.925401 2.011682l-1.134485.159162c-.244831-.56311-.594446-.949934-1.06698-1.165507-.460445-.20147-1.036755-.251838-1.698706-.153117-.77278.116852-1.392415.502668-1.82767 1.12219-.42921.66183-.558175 1.545278-.36775 2.672505.15919.932808.50276 1.72358 1.06698 2.250425.520896.53994 1.28763.729323 2.288114.588294.748599-.122897 1.34909-.42208 1.772255-.937845.441301-.489573.570266-1.233.423165-2.188976l-2.643774.404955-.13501-.907624 3.679521-.565125.717366 4.35982-.729456.11081-.453391-1.005338c-.306291.454316-.61359.803867-.88361 1.005337-.45339.356603-1.06698.583257-1.833714.693059-.99343.153117-1.90122-.025184-2.72337-.55203-.901745-.668881-1.4841-1.66213-1.70475-3.041196-.238787-1.354888-.024182-2.51435.601498-3.42802.594446-.88244 1.45992-1.397197 2.624631-1.56341m8.322247-.625566l2.637729-.956984c.361705-.133978.675049-.178301.94406-.146066.484626.036264.840286.324367 1.0428.900573.190425.49058.190425.919712-.02418 1.22091-.226696.31228-.582356.539941-1.098214.729324l-2.477531.889492-1.024664-2.637249m2.637729 6.81373l-1.287631-3.305122 2.45335-.883448c.460444-.147073.778825-.226654 1.018619-.20147.435255.054397.766734.31933.987385.820992l.558175 1.258183c.122919.312279.22065.502669.300245.588293.03728.11081.116875.178302.178334.250831l1.330955-.489573-.07355-.178301c-.19647 0-.385886-.11081-.527949-.325375-.103776-.153118-.202515-.373728-.34357-.630603l-.435255-1.03052c-.19647-.447265-.398984-.72328-.631725-.889493-.23274-.128941-.527949-.214566-.876556-.238742.27002-.313287.466489-.626573.540039-.994257.079595-.373728.043324-.790771-.13501-1.256168-.337524-.876397-.957159-1.354889-1.82767-1.416337-.460444-.036265-.987385.061448-1.59493.275007l-3.704709 1.318624 2.99339 7.750568 1.085116-.398912m9.640103-4.107982l-4.704185-6.862083 5.164629-3.293035.570265.828044-4.23165 2.703733 1.447829 2.097307 3.907224-2.51435.533994.80286-3.907224 2.51435 1.594929 2.311873 4.3052-2.7541.570266.80991-5.256315 3.354484m4.120822-12.12852l1.34909-1.48383c.62568-.661831 1.287632-.96303 2.01205-.876397.72341.061448 1.45992.44122 2.24479 1.128234.214605.165206.40503.379772.601499.619522.34357.447264.546084.841139.675049 1.232999.110829.491588.08564.938852-.08564 1.367984-.103777.213559-.288156.465397-.56422.766595l-1.355137 1.471742-4.875466-4.236923m7.12731 3.230578c.957158-1.05369 1.165718-2.188976.607543-3.470328-.325434-.693059-.822149-1.367985-1.50828-1.956278-.864467-.766595-1.766211-1.159463-2.717325-1.231992-1.05489-.080588-1.95059.300191-2.729415 1.15241l-2.300204 2.464992 6.34143 5.53137 2.300205-2.477078m4.915768-6.41079l-7.29859-4.286283.594446-.94389 7.31068 4.262108-.601499.980153m2.859387-4.990422l-7.880946-3.153013 2.324386-5.543459.957159.367684-1.895175 4.568342 2.373754.932808 1.772256-4.20771.90779.374735-1.75412 4.200659 2.655864 1.078874 1.944545-4.62274.957159.36164-2.36771 5.64218m3.624107-9.676626l-8.29202-1.83338.276065-1.281353 7.660295-2.587887-6.728325-1.48383.245839-1.005338 8.29202 1.784021-.263974 1.245087-7.672386 2.643293 6.728325 1.453609-.238786 1.066786m-.663966-10.529853l.103776-1.04261c.47858.013096.883609-.061448 1.1899-.226654.601499-.325374.951114-.943889 1.0428-1.858564.037278-.428125.018135-.80286-.079596-1.159463-.178334-.686007-.56422-1.066786-1.183855-1.128234-.460443-.04936-.790915.061448-1.030709.313286-.214605.288103-.4413.70414-.61359 1.29344l-.37984 1.084919c-.244831.71119-.472534 1.201771-.717366 1.476778-.392939.515765-.94406.693059-1.649336.644706-.754644-.079581-1.367226-.379772-1.80349-.956985-.447345-.527853-.631724-1.281352-.520895-2.21416.07355-.85222.35566-1.569455.85842-2.14566.46649-.527853 1.1899-.77969 2.115826-.68097l-.08564 1.04261c-.453392 0-.816105.07958-1.079072.263925-.47858.263927-.742554.822-.82215 1.636948-.067504.674926.024182 1.128234.28211 1.472749.25793.288102.582357.47144.963205.502668.40503.037272.723411-.091669.944061-.403948.159191-.215573.349615-.68097.607545-1.435477l.373795-1.140322c.18438-.527853.40503-.931801.661951-1.219904.460444-.478492 1.060936-.68097 1.81558-.624558.91988.097713 1.575786.478492 1.91331 1.177594.33148.705147.460445 1.48383.379842 2.367278-.103776.999293-.42921 1.78402-1.03071 2.311873-.601498.538934-1.34909.72328-2.25688.649743m-171.894692-.503677l.190424 1.029514c-.460444.09167-.828194.277022-1.098214.515765-.484625.453308-.64986 1.134278-.484625 2.060035.07355.39186.214605.777676.39294 1.084918.36775.625566.84633.876397 1.453874.777676.447345-.07958.742553-.25083.883609-.570161.13501-.313287.23274-.791779.263974-1.40425l.055414-1.159461c.03728-.717235.116875-1.281352.276065-1.594639.251884-.564117.723411-.913668 1.428686-1.029514.754645-.135993 1.416596.036265 1.98686.465397.576311.398911.95716 1.09197 1.098215 2.011682.178334.84114.097731 1.594639-.23274 2.274601-.31939.662838-.931971 1.066786-1.870995 1.239044l-.184379-1.041603c.435256-.159161.76069-.313286.975295-.527852.36775-.411.47858-1.005338.337524-1.821293-.110829-.662838-.337524-1.09197-.681094-1.306536-.337524-.251838-.675049-.350558-1.0428-.288102-.411074.061448-.681094.288102-.810058.655786-.079596.244786-.141056.7535-.19647 1.53319l-.055414 1.201771c-.030227.564117-.116875 1.030521-.306291 1.349852-.300246.588294-.81006.949933-1.551606 1.066786-.938016.159162-1.662434-.055404-2.177285-.655786-.527949-.588294-.852375-1.29344-1.017611-2.170844-.18438-1.04261-.04937-1.851514.36775-2.501256.423166-.668882 1.09217-1.054698 1.998952-1.183639m-.520896 10.861272l8.107641-2.440815 1.88913 5.708665-.987385.31228-1.54556-4.69124-2.46544.742419 1.428685 4.334636-.94406.300191-1.416596-4.346724-2.74755.820992 1.56974 4.794996-.96925.277022-1.919355-5.81343m3.59388 9.897236l7.457781-3.954865.796961 1.391153-5.12735 5.420563 7.489014-1.281352.77278 1.380072-7.439645 3.930688-.527949-.914675 4.39185-2.310866c.15919-.092677.405029-.227662.760689-.417044.349615-.159162.742554-.374735 1.134485-.577213l-7.45778 1.269264-.546085-.969073 5.091079-5.40243-.244831.122897c-.15919.09167-.435256.226654-.81006.44122-.36775.227662-.643815.367684-.822148.44122l-4.378751 2.348139-.54004-.931801m13.89795 10.997264c-.373795-.085625-.742553-.300191-1.104259-.674926l-1.575786-1.62486 2.12187-1.944189 1.588885 1.619822c.30629.300191.50276.594338.607544.846176.1471.48353 0 .925757-.447346 1.3428-.40503.373728-.810059.527853-1.1899.435177m-5.991816.754507l2.60045-2.38541 1.845806 1.870653c.594446.607433 1.20199.883448 1.83976.87136.649861-.037273 1.208036-.277023 1.698706-.74242.55213-.49058.816104-1.066785.816104-1.6853-.006045-.601389-.28211-1.165506-.790916-1.692351l-2.649819-2.70474-6.17015 5.666355.796961.80286m7.450728 6.621326l4.471444-7.009157 5.286541 3.213454-.55213.834088-4.34248-2.599977-1.343044 2.121484 3.992864 2.421675-.51485.803867-3.99891-2.409586-1.52138 2.372314 4.397894 2.643292-.527948.828044-5.348-3.219498m13.235998-1.355896l2.68609.853227c.379842.115846.655907.26292.840286.429132.34357.325375.435255.790772.23274 1.354889-.165235.49058-.41712.809911-.810058.944896-.349615.060441-.790916.060441-1.306774-.09872l-2.532946-.808904.889655-2.67452m-2.31834 6.88626l1.11635-3.342395 2.502719.815955c.447345.116853.77278.277022.93197.44122.306291.276015.398984.687015.245839 1.196735l-.373796 1.329705c-.08564.325375-.128964.53994-.165236.637654 0 .104764 0 .215573.018136.288102l1.318864.429133.079596-.19039c-.141055-.110809-.22065-.31228-.214605-.56311.030226-.154125.07355-.398911.15919-.68097l.31939-1.066786c.128964-.466404.178333-.815955.061459-1.066786-.097731-.263926-.263975-.503676-.54004-.729323.41712-.074544.778826-.202478 1.085117-.43014.288155-.251837.533994-.601389.681094-1.090962.300246-.889492.13501-1.63191-.527949-2.196028-.33148-.294146-.803006-.545984-1.42264-.778683l-3.753072-1.158455-2.62463 7.81806 1.098213.337464m11.394224-142.282455"/>
    <path fill="#bc715f" d="M68.354317 154.825874c.96925-2.337057 9.94841-8.70856 39.411782-5.918194 0 0 4.98025 3.041197 7.906134 2.649337 1.66848-.215574-.98134.103757-3.158625-1.705448-2.22061-1.808197-2.692136-5.518275 2.3798-5.420562 5.047755.128941 23.94409 1.195727 24.29975 2.894123.33148 1.716528-9.990725 2.43477-13.830445 2.33605-3.857855-.103758-3.410509 1.846476.42921 1.699403 11.99673-.429132 25.090667-4.654975 38.921112 5.126415 1.649337 1.188676-4.17019 1.379065-8.672869-.533896 0 0-12.199244.632617-17.473695-.232699 0 0-4.054324 3.298071-9.33482 2.973704.68714 1.710484-1.95059 8.094075-18.552766 3.292027-2.741505.841139-12.732231 2.514351-11.64107-.453309-2.630676 0-7.243175.846176-7.930315-.65075-.66195-1.470733 8.12074-3.69799 9.660254-5.29162 0 0-18.577954.178301-22.098285-1.104058 0 0-10.959975 2.458946-10.31616.325374"/>
    <path fill="#008830" d="M74.309862 180.837723c.398984-.538933.558175-1.508006 1.404505-1.48383 1.83976.489573 3.09112 3.856144 5.354045 1.673212.803007-.178301 1.110305.914676 1.772256 1.04261.423165 1.870653 1.925401-.379772 3.047796-.251838 2.397936-1.066786 5.366136-1.318624 8.20638-.790772.08564 1.833381-1.34909 3.857152-3.15258 4.899761.03728 1.846477 1.710796 3.030116 1.68057 4.887673-.288155.693058-.04937 1.78402-1.098214 2.011682-1.330955-.238742-2.643774-.379771-3.747026-1.12219-.13501-.134985-.244831-.398911-.527949-.31228-.13501.619523.83424 1.233 1.21408 1.86461-.669003 1.140323-1.7783.097713-2.711278.110809-.276065.655786-.01209 1.48383-.68714 1.906917-1.17781-.036264-1.416595-1.317616-2.140006-1.956278-.742554.80286.520896 1.281352.69923 1.919006-.453391 2.41563-.392939 4.776864-2.80901 6.359415l-1.61911.803867c-.441301-1.21386-.165236-3.054292-.460444-4.323556-.95716 1.557367-1.70475 2.919307-3.109256 4.236923-1.643291-.53994-2.60045-2.477079-2.962156-4.083805-.687139-1.870653-.2942-4.10899 1.183855-5.463879-.50276-.98116-2.226654-.754506-2.471485-2.151704-2.582315-1.68127-4.011 2.943483-5.67948.538933-.54004-2.243373.103776-5.034746 1.729939-6.708965-.361705-.918705-1.563696-.679963-2.275016-1.207815-1.625156-1.380073-3.968684-2.838719-3.85181-5.329901 4.446256-1.679256 9.76403-.447264 12.996206 2.931395"/>
    <path fill="#f9d90f" d="M76.616111 180.586892c-.103776 2.034852 1.37428.551022 2.471486 1.784021-.85842-.337463-1.4841 1.48383-2.324385.44122l-.52795.503676c.306292.698095.901745.790772.28211 1.557367-.91988.349551-1.104259-.80286-1.533469-1.257176-.07355-.20147.141055-.58225-.19647-.717234-.520895.44122-1.06698.601389-1.784345.527852-.19647-.392867-.576311-.907624-.190425-1.207815.705275-.95094 1.797444.3425 2.33043-.325375.085641-.588294-.42921-1.306536.238787-1.711491.460444.07958 1.048845-.17125 1.239269.404955m5.496108 1.668175c.055415.392868-.202514.94389.312336 1.220911.669004-.362646 1.380325-.086632 1.76621.576206-.006044.354588.103777.820992-.361705.99325l-1.0428-.195427c.07355-.202478-.257928-.33142-.386893-.527853-.460444-.14103-.729456.232699-1.073026.459353.25793.392867.852376.607433.71132 1.110102-.613589.61247-.913834-.527853-1.588883-.23975-.460444-.177294.165235-1.134278-.558175-1.422381-.85842 0-.288156 1.409286-1.38637.858264-.392939-.442228-.778825-1.036566-.35566-1.53319.460444-.307243 1.23927-.227662 1.6312.17125.669005-.741412.735502-3.605314 2.336476-1.471742m-6.854266 2.956579c.447346.644705-.097731 1.521102.472534 2.238336.8957-1.673212 1.760165.36164 2.827146.202478.325434.398912.110829.95094.17128 1.40425-1.318864.34955-2.90674.766594-4.07246-.288104l-.325433.373728c.693184.644706 1.34909 1.374029.79696 2.452903-.987385.214566-2.514809.238742-3.011524-.778684-.25793-.839124.601499-1.446557-.306291-2.121483-.655906.815955-.62568 1.907925-1.992906 1.165506-.84633-.466404-1.098214-1.428425-.67505-2.238336.88361-1.392161 2.42917.043316 3.385321-.637654.13501-1.195727-.30629-2.238337.790916-2.900167.938016-.166213 1.37428.538933 1.944544 1.127227"/>
    <path fill="#fff" d="M79.008002 185.939962c-.441301 2.035859-1.97477-.103757-2.692136-.19039.957159-1.698396 1.55765.55203 2.692136.19039m4.777735 2.21416c-1.06698.30019-.901745-1.030521-1.428686-1.55233l.411075-.373727c.386893.466404.681094 1.306535 1.018618 1.926057"/>
    <path fill="#f9d90f" d="M82.337908 187.749166c.30629.705147-.693185 1.270272.15919 1.784021.27002-.226654.6015-.53994.742554-.668882.729456.215574 1.575786.344515 2.0856 1.066786.546084 1.496926-.96925 1.459654-1.82767 1.876697l-.852376-.036264c.202515-.417044-.36775-.594338-.508806-.88244-.392939-.097714-.717365.024176-.938015.354587.190424.95094 1.34909 1.692352.153145 2.538528-1.011566-.066486-2.582314.325374-2.489621-1.07283-.379841-.790772 1.030709-2.011683-.47858-2.060036-.496715 1.066786-1.0428 2.0963-2.336475 1.084919l.15919-1.521102c1.23927.036265 2.705234.25083 3.262401-1.134279.35566-1.005337-.619634-1.932101.251884-2.728917 1.26345-.288103 1.97477.558073 2.618586 1.397198"/>
    <path d="M81.430118 190.035856c.319389.754507-.54004.803867-.944061 1.177595-.546085.043316-.925926-.17125-1.257405-.539941-.244831-.913669.435255-1.005338.957159-1.366977.607544-.251838.85842.453308 1.245314.729323"/>
    <path fill="#fff" d="M80.688571 190.526436c-.13501.178302-.325434.122897-.527948.17125l-.190425-.91266c.40503.036264.931971.165205.717366.74141"/>
</svg>
