<svg xmlns="http://www.w3.org/2000/svg" xmlns:xlink="http://www.w3.org/1999/xlink" viewBox="0 0 1800 900">
    <defs>
        <g id="star">
            <g id="arm">
                <path d="M1 0H0v.5z" transform="translate(0 -.324925)"/>
                <path d="M1 0H0v-.5z" transform="rotate(-36 .499992 -.162463)"/>
            </g>
            <use transform="rotate(72)" xlink:href="#arm"/>
            <use transform="rotate(144)" xlink:href="#arm"/>
            <use transform="rotate(216)" xlink:href="#arm"/>
            <use transform="rotate(288)" xlink:href="#arm"/>
        </g>
    </defs>
    <path fill="#00247d" d="M0 0h1800v900H0z"/>
    <path fill="#fed100" d="M329.37609 777.2654c-17.93436-.14984 168.62343-99.43136 324.76914-226.59977C858.78891 383.99945 1299.541 117.15633 1429.1161 73.7954c13.5433-4.53215-27.7761 23.07308-33.14 32.01541-138.3415 163.74043-27.925 472.72379 144.9726 628.04829 51.99 39.7632 49.3274 41.85082 145.7074 45.7463v9l-1357.28001-11.34zm-11.25106 18.0592s-13.16343 9.4029-13.12495 16.4061c.043 7.7725 14.76557 18.0468 14.76557 18.0468l1338.74505 14.7656 24.6093-16.4062-34.453-21.328-1330.54197-11.4843z"/>
    <g fill="#fff">
        <use transform="matrix(45 0 0 45 342.9565 112.5812)" xlink:href="#star"/>
        <use transform="matrix(37.5 0 0 37.5 521.20459 267.53)" xlink:href="#star"/>
        <use transform="matrix(45 0 0 45 135 321.8075)" xlink:href="#star"/>
        <use transform="matrix(52.5 0 0 52.5 342.9565 652.5812)" xlink:href="#star"/>
    </g>
</svg>
