<svg viewBox="0 0 1200 600">
  <defs>
    <clipPath id="c">
      <path d="M0 0v150h700v150H600zm0 300v100h300V0h300z"/>
    </clipPath>
    <path id="star" fill="#ffce00" d="m0-50.08 29.437 90.596-77.067-55.992h95.26l-77.067 55.993z"/>
    <use id="rats" href="#star" transform="rotate(36)"/>
  </defs>
  <path fill="#00247d" d="M0 0h1200v600H0z"/>
  <path stroke="#fff" stroke-width="60" d="m0 0 600 300M0 300 600 0"/>
  <path stroke="#cf142b" stroke-width="40" d="m0 0 600 300M0 300 600 0" clip-path="url(#c)"/>
  <path stroke="#fff" stroke-width="100" d="M300 0v400M0 150h700"/>
  <path stroke="#cf142b" stroke-width="60" d="M300 0v400M0 150h700"/>
  <path fill="#5b97b1" d="M0 300h600V0h600v600H0z"/>
  <use x="645.34" y="540.994" href="#star"/>
  <use x="788.026" y="504.516" href="#rats"/>
  <use x="788.026" y="382.532" href="#rats"/>
  <use x="914.03" y="473.684" href="#rats"/>
  <use x="914.03" y="208.271" href="#rats"/>
  <use x="996.442" y="390.046" href="#star"/>
  <use x="1019.928" y="172.078" href="#rats"/>
  <use x="1102.836" y="321.554" href="#star"/>
  <use x="1102.836" y="87.486" href="#star"/>
</svg>
