<svg xmlns="http://www.w3.org/2000/svg" xmlns:xlink="http://www.w3.org/1999/xlink" viewBox="0 0 1200 600">
  <defs>
    <clipPath id="c">
      <path d="M0 0v150h700v150H600zm0 300v100h300V0h300z"/>
    </clipPath>
    <path id="star" fill="#ffce00" d="m0-50.08 29.437 90.596-77.067-55.992h95.26l-77.067 55.993z"/>
    <use xlink:href="#star" id="rats" transform="rotate(36)"/>
  </defs>
  <path fill="#00247d" d="M0 0h1200v600H0z"/>
  <path stroke="#fff" stroke-width="60" d="m0 0 600 300M0 300 600 0"/>
  <path stroke="#cf142b" stroke-width="40" d="m0 0 600 300M0 300 600 0" clip-path="url(#c)"/>
  <path stroke="#fff" stroke-width="100" d="M300 0v400M0 150h700"/>
  <path stroke="#cf142b" stroke-width="60" d="M300 0v400M0 150h700"/>
  <path fill="#5b97b1" d="M0 300h600V0h600v600H0z"/>
  <use xlink:href="#star" x="645.34" y="540.994"/>
  <use xlink:href="#rats" x="788.026" y="504.516"/>
  <use xlink:href="#rats" x="788.026" y="382.532"/>
  <use xlink:href="#rats" x="914.03" y="473.684"/>
  <use xlink:href="#rats" x="914.03" y="208.271"/>
  <use xlink:href="#star" x="996.442" y="390.046"/>
  <use xlink:href="#rats" x="1019.928" y="172.078"/>
  <use xlink:href="#star" x="1102.836" y="321.554"/>
  <use xlink:href="#star" x="1102.836" y="87.486"/>
</svg>
