<svg xmlns="http://www.w3.org/2000/svg" style="enable-background:new 0 0 720 720" viewBox="0 0 720 720" xml:space="preserve">
  <path d="M0 453.37c.57-.9 1.3-1.73 1.7-2.7 16.28-39.76 32.53-79.53 48.77-119.3 20.96-51.32 41.9-102.64 62.86-153.96 18-44.08 36.01-88.16 54.02-132.23.52-1.27 1.09-2.52 1.76-4.07C352.75 116.05 536.24 190.94 720 265.93c-56.27 137.74-112.45 275.25-168.7 412.96-3.86-1.55-7.53-3-11.17-4.49-125.23-51.11-250.47-102.22-375.7-153.33-53.6-21.87-107.19-43.76-160.79-65.61-1.15-.47-2.43-.61-3.64-.9v-1.19zm695.35-176.88C523.3 206.27 351.5 136.16 179.52 65.98 128.04 192.01 76.69 317.71 25.24 443.64c172.04 70.21 343.81 140.31 515.83 210.51 51.48-126.02 102.82-251.71 154.28-377.66z"/>
  <path style="fill:#fff" d="M695.35 276.49c-51.46 125.96-102.8 251.64-154.28 377.66-172.01-70.2-343.79-140.3-515.83-210.51 51.45-125.93 102.8-251.63 154.28-377.66C351.5 136.16 523.3 206.27 695.35 276.49zm-511.38-203C133.78 196.36 83.75 318.82 33.6 441.59c167.71 68.44 335.15 136.78 502.8 205.19 50.15-122.76 100.2-245.29 150.38-368.09-167.59-68.39-335.02-136.72-502.81-205.2z"/>
  <path style="fill:#ed1c24" d="M183.97 73.49c167.79 68.47 335.22 136.8 502.8 205.19-50.17 122.81-100.23 245.33-150.38 368.1C368.75 578.36 201.3 510.03 33.6 441.59c50.15-122.77 100.18-245.23 150.37-368.1zm-46.7 300.34c2.02-13.81 4.06-27.41 5.99-41.02 1.93-13.55 3.74-27.12 5.62-40.73h-22.94c-.55 1.39-1.02 2.68-1.56 3.94-7.42 17.28-14.86 34.56-22.27 51.84-7.93 18.47-15.83 36.94-23.77 55.41-.53 1.23-1.22 2.38-1.87 3.63h19.25c1.63-5.72 4.21-10.81 6.26-16.09 2.08-5.35 4.32-10.64 6.5-15.96 2.18-5.31 4.4-10.61 6.56-15.93 2.16-5.32 4.3-10.65 6.39-16 2.04-5.24 4-10.52 6.11-16.09-1.97 13.62-3.96 26.82-5.79 40.05-1.83 13.28-3.49 26.58-5.26 40.14 4.32 0 8.18-.09 12.03.04 1.8.06 2.85-.5 3.76-2.1 2.88-5.08 5.96-10.05 8.95-15.08 10.59-17.78 21.75-35.23 31.43-53.55 1.81-3.42 3.62-6.85 5.56-10.53-8.78 27.24-17.45 54.17-26.11 81.06h19.45c.21-1.31.26-2.45.58-3.5 10.3-33.7 20.63-67.38 30.95-101.07 1.03-3.35 2.06-6.7 3.13-10.19h-22.95c-15.24 27.42-31.98 53.73-46 81.73zm216.11-55.41c-10.49 21.8-20.88 43.38-30.75 63.9 4.56-20.54 9.37-42.2 14.19-63.88h-15.76c-.47 1.18-.77 2.2-1.26 3.12-2.53 4.71-5.15 9.37-7.67 14.09-7.38 13.79-14.74 27.6-22.07 41.42-1.05 1.98-1.89 4.07-2.83 6.11-.08-.04-.15-.07-.23-.11 5.47-21.52 10.95-43.03 16.41-64.54h-17.66c-.13 1.17-.16 2.16-.35 3.12-5.64 27.24-11.29 54.48-16.97 81.71-.25 1.21-.74 2.36-1.14 3.59h17.24c1.8-4.06 4.19-7.53 6.29-11.15 2.18-3.77 4.41-7.52 6.63-11.27 2.17-3.67 4.4-7.29 6.52-10.99 2.16-3.78 4.26-7.6 6.32-11.44 1.97-3.68 3.86-7.4 5.78-11.1.18.07.37.15.55.22-5.22 18.27-7.69 37.08-11.25 55.67h18.16c.33-1.1.45-2.03.85-2.8 3.31-6.31 6.67-12.6 10.02-18.89 11.83-22.24 23.65-44.49 35.5-66.77-5.65-.01-11.28-.01-16.52-.01zm111.35.04c1.18 1.31.37 2.46-.06 3.63-4.46 12.18-8.9 24.36-13.39 36.52-2.85 7.7-5.66 15.42-8.75 23.03-1.1 2.71-2.82 5.22-4.52 7.63-1.4 1.97-3.44 3.22-5.96 3.57-4.55.63-7.04-1.39-6.58-5.92.3-2.92 1.06-5.85 2.06-8.62 6.21-17.22 12.54-34.4 18.86-51.58 1.02-2.78 2.17-5.52 3.28-8.31h-17.24c-.32 1.2-.52 2.33-.9 3.38-4.86 13.4-9.79 26.77-14.6 40.18-2.47 6.89-4.92 13.8-7.04 20.8-.96 3.18-1.46 6.61-1.49 9.94-.07 7.98 4.06 12.97 11.81 14.39 11.37 2.08 21.18-.95 29.06-9.6 4.8-5.27 8.23-11.42 10.76-18.01 4.68-12.19 9.12-24.48 13.64-36.73 2.97-8.05 5.92-16.12 8.92-24.28-5.8-.02-11.62-.02-17.86-.02zm32.13-.12c-.32 1.42-.44 2.55-.82 3.59-3.93 10.78-7.89 21.55-11.85 32.33-6.44 17.53-12.89 35.06-19.36 52.68h16.62c.27-1.18.41-2.3.79-3.32 2.97-8.08 5.98-16.14 8.98-24.21.98-2.63 4.94-7.39 7.85-9.27-.64 12.35-.27 24.54-1.23 36.77h17.97c-.16-1.05-.39-2-.43-2.96-.11-2.67-.13-5.35-.2-8.02-.35-11.98-.67-23.96-1.1-35.94-.07-1.94.42-3.41 1.75-4.79 1.44-1.49 2.74-3.13 4.1-4.71 9.15-10.63 18.29-21.26 27.54-32.01h-18.8c-.71 2.78-2.89 4.59-4.43 6.77-1.6 2.26-3.34 4.43-5.02 6.63-1.68 2.21-3.36 4.41-5.04 6.62-1.74 2.29-3.48 4.57-5.22 6.86-1.68 2.21-3.36 4.42-5.02 6.64-1.59 2.13-3.15 4.28-4.73 6.42 4.7-13.47 9.18-26.9 14.54-40.08h-16.89zM394.71 406.9c-.55-2.35 2.12-19.35 6.61-44.19 2.66-14.73 4.99-29.52 7.45-44.21h-20.45c.14.43.4.8.3.97-16.8 29.13-33.63 58.25-50.5 87.45h16.92c.08-1.94 5.88-13.12 10.67-20.56h16.11c-1.32 6.99-2.61 13.76-3.89 20.54h16.78zm150.13-15.28c3.09-8.27 6.02-16.11 8.97-23.99h19.9c1.77-4.68 3.69-9.24 5.34-14.32h-20.3c2.69-7.04 5.26-13.76 7.83-20.51h20.29c1.72-4.62 3.5-9.39 5.36-14.35h-38.17c1.05 1.43.14 2.6-.27 3.74-6.39 17.47-12.82 34.92-19.24 52.38-3.97 10.79-7.92 21.58-11.87 32.32h38.62c1.97-5.07 3.9-10.07 5.92-15.27h-22.38zm60.61-73.16c-.31 1.36-.42 2.38-.77 3.32-9.93 27.13-19.88 54.26-29.85 81.38-.46 1.25-1.13 2.42-1.72 3.69h39c1.92-5.11 3.78-10.07 5.67-15.1h-22.21c3.06-8.19 6.02-16.1 8.99-24.03h19.46c1.78-4.72 3.53-9.37 5.36-14.22-3.59 0-6.76.04-9.93-.01-3.2-.06-6.42.26-9.89-.25 2.67-6.98 5.24-13.68 7.76-20.26h20.73c1.57-4.64 3.21-9.46 4.93-14.52h-37.53zM414.02 454.12c-10.22.41-19.39 3.35-27.25 9.85-12.16 10.06-17.43 23.05-15.45 38.68 1.03 8.16 5.67 14.01 13.47 17.05 6.16 2.4 12.54 2.49 19 1.6 24.6-3.37 39.5-25.87 35.84-48.88-1.34-8.44-6.55-14.1-14.84-16.45-3.48-.99-7.17-1.25-10.77-1.85zm106.92 1.34c-7.05 21.89-14.01 43.47-21.01 65.2.5.1.87.25 1.23.25 8.52-.09 17.05.01 25.55-.42 3.39-.17 6.93-1.02 10.03-2.4 16.04-7.15 24.93-19.75 26.64-37.11 1.23-12.55-5.15-21.09-17.31-24.37-.48-.13-.96-.24-1.44-.34-7.96-1.56-15.98-.42-23.69-.81zM294.7 225.71l-10.79 30.18h13.32c8.77-23.91 17.46-47.62 26.2-71.46h-13.38c-3.54 9.68-7.03 19.22-10.52 28.75h-14.24c3.58-9.71 7.05-19.14 10.57-28.7h-13.39c-8.77 23.91-17.46 47.57-26.18 71.34h14.39c-.13-.68-.46-1.31-.3-1.76 3.4-9.48 6.85-18.94 10.28-28.36 4.75.01 9.2.01 14.04.01zm37.65 229.74c-3.59 11.11-7.07 21.9-10.56 32.69-3.5 10.8-7 21.59-10.57 32.56h14.27c.12-1.02.08-1.91.33-2.7 2.03-6.31 4.11-12.61 6.17-18.91.27-.84.45-1.98 1.62-1.68.57.14 1.14.98 1.37 1.63 2.49 7.18 4.9 14.38 7.42 21.82 2.25 0 4.62.03 6.99-.01 2.4-.04 4.82.18 7.4-.18-1.61-2.4-8.3-22.1-8.45-24.55.08-.06.15-.15.24-.18.37-.13.75-.25 1.12-.35 6.82-1.92 11.75-6.13 14.52-12.6 1.27-2.97 2.28-6.16 2.77-9.35 1.29-8.43-2.79-14.39-11.04-16.81-7.88-2.32-15.93-.96-23.6-1.38zm-75.68-48.54c1.88-4.9 3.75-9.79 5.7-14.86h-21.62c4.54-12.47 8.89-24.75 13.48-36.93 4.61-12.22 8.7-24.65 13.73-36.68h-16.81c-10.87 29.6-21.67 59.03-32.47 88.47h37.99zm224.3 113.76h12.86c-1.71-21.76-3.41-43.34-5.12-65.06h-9.79c-3.8 5.72-7.75 10.99-11.54 16.36-3.82 5.42-7.7 10.81-11.55 16.21-3.85 5.4-7.7 10.81-11.55 16.21-3.82 5.36-7.64 10.72-11.61 16.28h14.17c2.74-3.9 5.35-7.49 7.82-11.19.94-1.4 2.01-1.91 3.68-1.89 6.44.08 12.88.02 19.32.04.76 0 1.51.15 2.39.25.31 4.31.61 8.43.92 12.79zm-142.3-307.78c2.11-5.54 4.04-10.6 5.96-15.66.41-1.07 1.3-1.06 2.22-1.06 3.37 0 6.74-.05 10.11-.01 1.41.02 2.83.21 4.46.34 1.4-3.81 2.86-7.77 4.42-12.02H335.8c-8.75 23.85-17.43 47.52-26.17 71.31h31.25l4.43-11.93c-3.26 0-6.11.05-8.96-.01-2.82-.06-5.66.3-8.85-.31 2.44-6.54 4.78-12.79 7.13-19.08h15.94c1.38-3.78 2.76-7.55 4.23-11.57h-16.13zM219.32 318.41c-10.87 29.7-21.62 59.17-32.51 88.48h17.42c-.06-.61-.28-1.16-.13-1.57 10.57-28.97 21.18-57.94 31.78-86.91h-16.56zm17.8-62.6c7.19-19.64 14.32-39.1 21.46-58.61 4.22.12 8.14-.34 12.29.37 1.52-4.21 3.08-8.52 4.66-12.89-3.61-.63-35.8-.5-38.12.13-1.56 4.2-3.16 8.48-4.85 13.02 4.37-1 8.24-.56 12.59-.54-7.23 19.76-14.29 39.04-21.42 58.53 4.68-.01 9.1-.01 13.39-.01z"/>
  <path style="fill:#fff" d="M137.27 373.83c14.02-28 30.76-54.31 45.98-81.72h22.95c-1.07 3.49-2.1 6.84-3.13 10.19-10.32 33.69-20.65 67.38-30.95 101.07-.32 1.05-.37 2.18-.58 3.5h-19.45c8.66-26.9 17.34-53.82 26.11-81.06-1.94 3.68-3.75 7.1-5.56 10.53-9.68 18.32-20.84 35.76-31.43 53.55-2.99 5.02-6.06 9.99-8.95 15.08-.91 1.61-1.96 2.16-3.76 2.1-3.85-.12-7.71-.04-12.03-.04 1.77-13.55 3.43-26.86 5.26-40.14 1.82-13.23 3.81-26.44 5.79-40.05-2.11 5.57-4.07 10.85-6.11 16.09-2.08 5.35-4.23 10.68-6.39 16-2.16 5.32-4.38 10.62-6.56 15.93-2.18 5.31-4.42 10.6-6.5 15.96-2.05 5.28-4.63 10.37-6.26 16.09H76.45c.65-1.25 1.35-2.4 1.87-3.63 7.94-18.46 15.84-36.94 23.77-55.41 7.42-17.28 14.85-34.56 22.27-51.84.54-1.26 1.01-2.54 1.56-3.94h22.94c-1.87 13.61-3.69 27.18-5.62 40.73-1.91 13.6-3.95 27.2-5.97 41.01zm216.11-55.41h16.52c-11.85 22.28-23.67 44.53-35.5 66.77-3.35 6.29-6.71 12.58-10.02 18.89-.4.77-.52 1.69-.85 2.8h-18.16c3.56-18.6 6.03-37.41 11.25-55.67-.18-.07-.37-.15-.55-.22-1.92 3.7-3.81 7.42-5.78 11.1-2.06 3.84-4.15 7.66-6.32 11.44-2.12 3.7-4.35 7.32-6.52 10.99-2.22 3.75-4.44 7.5-6.63 11.27-2.1 3.62-4.49 7.09-6.29 11.15h-17.24c.4-1.23.89-2.38 1.14-3.59 5.68-27.23 11.33-54.47 16.97-81.71.2-.95.22-1.94.35-3.12h17.66c-5.47 21.51-10.94 43.02-16.41 64.54.08.04.15.07.23.11.94-2.04 1.78-4.13 2.83-6.11 7.33-13.82 14.69-27.62 22.07-41.42 2.52-4.71 5.14-9.38 7.67-14.09.49-.92.79-1.94 1.26-3.12h15.76c-4.82 21.68-9.62 43.34-14.19 63.88 9.88-20.51 20.26-42.09 30.75-63.89zm111.35.04h17.85c-3 8.16-5.95 16.23-8.92 24.28-4.52 12.25-8.96 24.54-13.64 36.73-2.53 6.59-5.96 12.74-10.76 18.01-7.87 8.65-17.68 11.67-29.06 9.6-7.75-1.41-11.88-6.41-11.81-14.39.03-3.32.53-6.76 1.49-9.94 2.11-7 4.56-13.91 7.04-20.8 4.81-13.41 9.74-26.78 14.6-40.18.38-1.06.58-2.18.9-3.38h17.24c-1.1 2.79-2.25 5.53-3.28 8.31-6.32 17.18-12.64 34.36-18.86 51.58-1 2.77-1.76 5.7-2.06 8.62-.46 4.52 2.03 6.55 6.58 5.92 2.52-.35 4.55-1.6 5.96-3.57 1.71-2.41 3.42-4.91 4.52-7.63 3.09-7.61 5.9-15.32 8.75-23.03 4.5-12.16 8.94-24.34 13.39-36.52.44-1.15 1.26-2.3.07-3.61zm32.13-.12h16.87c-5.36 13.18-9.83 26.61-14.54 40.08 1.58-2.14 3.14-4.29 4.73-6.42 1.66-2.22 3.34-4.43 5.02-6.64 1.74-2.29 3.48-4.57 5.22-6.86 1.68-2.21 3.36-4.41 5.04-6.62 1.68-2.21 3.42-4.37 5.02-6.63 1.54-2.18 3.72-3.99 4.43-6.77h18.8c-9.25 10.75-18.39 21.38-27.54 32.01-1.36 1.58-2.65 3.22-4.1 4.71-1.33 1.37-1.82 2.85-1.75 4.79.43 11.98.75 23.96 1.1 35.94.08 2.67.09 5.35.2 8.02.04.96.27 1.9.43 2.96h-17.97c.96-12.23.59-24.42 1.23-36.77-2.91 1.88-6.87 6.64-7.85 9.27-3 8.07-6.01 16.13-8.98 24.21-.38 1.03-.52 2.14-.79 3.32h-16.62c6.48-17.62 12.92-35.15 19.36-52.68 3.96-10.77 7.92-21.54 11.85-32.33.4-1.05.53-2.17.84-3.59zM394.71 406.9h-16.78c1.29-6.79 2.57-13.56 3.89-20.54h-16.11c-4.79 7.44-10.6 18.62-10.67 20.56h-16.92c16.87-29.2 33.7-58.32 50.5-87.45.1-.17-.16-.53-.3-.97h20.45c-2.46 14.68-4.78 29.48-7.45 44.21-4.49 24.84-7.16 41.84-6.61 44.19zm-2.32-71.68-.48-.06c-2.13 4.35-4.2 8.72-6.4 13.04-2.2 4.32-4.58 8.56-6.78 12.88-2.17 4.25-4.74 8.32-6.62 12.85h12.34c2.66-12.99 5.3-25.85 7.94-38.71zm152.45 56.4h22.38c-2.01 5.2-3.95 10.2-5.92 15.27h-38.62c3.95-10.75 7.91-21.53 11.87-32.32 6.42-17.46 12.85-34.91 19.24-52.38.42-1.14 1.32-2.3.27-3.74h38.17c-1.85 4.97-3.63 9.73-5.36 14.35h-20.29c-2.57 6.74-5.14 13.47-7.83 20.51h20.3c-1.65 5.08-3.57 9.64-5.34 14.32h-19.9c-2.94 7.88-5.88 15.72-8.97 23.99zm60.61-73.16h37.53c-1.72 5.06-3.35 9.88-4.93 14.52h-20.73c-2.52 6.57-5.09 13.28-7.76 20.26 3.48.51 6.7.19 9.89.25 3.17.06 6.33.01 9.93.01-1.83 4.85-3.58 9.5-5.36 14.22h-19.46c-2.97 7.93-5.93 15.85-8.99 24.03h22.21c-1.89 5.02-3.75 9.99-5.67 15.1h-39c.59-1.26 1.26-2.44 1.72-3.69 9.97-27.12 19.92-54.25 29.85-81.38.34-.95.46-1.97.77-3.32zM414.02 454.12c3.6.59 7.29.86 10.77 1.85 8.29 2.35 13.5 8.01 14.84 16.45 3.66 23.01-11.24 45.51-35.84 48.88-6.47.88-12.84.8-19-1.6-7.8-3.04-12.44-8.89-13.47-17.05-1.97-15.63 3.29-28.62 15.45-38.68 7.86-6.5 17.03-9.43 27.25-9.85zm12.23 28.62c-.08-1.28-.05-2.59-.26-3.85-.97-5.72-3.94-9.87-9.6-11.73-3.06-1.01-6.27-1.04-9.41-.45-13.43 2.53-23.71 16.82-21.92 30.35.84 6.37 5.22 11.37 11.41 12.47 2.48.44 5.16.37 7.66-.02 9.81-1.53 21.93-12.17 22.12-26.77zm94.69-27.28c7.7.39 15.73-.74 23.68.82.48.1.97.21 1.44.34 12.17 3.28 18.55 11.82 17.31 24.37-1.71 17.36-10.6 29.96-26.64 37.11a28.78 28.78 0 0 1-10.03 2.4c-8.5.43-17.03.32-25.55.42-.37 0-.73-.14-1.23-.25 7.01-21.74 13.97-43.32 21.02-65.21zm-2.84 51.7c4.61.38 8.71.14 12.78-.78 4.82-1.09 8.74-3.55 11.78-7.45 3.9-4.99 5.9-10.72 6.38-16.95.42-5.53-2.55-10.07-7.57-11.83-3.59-1.26-7.31-1.4-11.21-.95-4.02 12.56-8.02 25.04-12.16 37.96zM294.7 225.71h-14.06c-3.43 9.42-6.88 18.88-10.28 28.36-.16.45.17 1.08.3 1.76h-14.39c8.72-23.77 17.41-47.43 26.18-71.34h13.39c-3.52 9.57-6.99 18.99-10.57 28.7h14.24c3.49-9.53 6.98-19.08 10.52-28.75h13.38c-8.74 23.84-17.43 47.55-26.2 71.46h-13.32c3.61-10.05 7.17-20.01 10.81-30.19zm37.65 229.74c7.67.42 15.72-.94 23.6 1.38 8.25 2.42 12.33 8.39 11.04 16.81-.49 3.19-1.5 6.37-2.77 9.35-2.77 6.47-7.7 10.68-14.52 12.6-.38.11-.75.23-1.12.35-.09.03-.16.12-.24.18.15 2.46 6.83 22.15 8.45 24.55-2.58.36-5 .14-7.4.18-2.37.04-4.73.01-6.99.01-2.52-7.43-4.93-14.64-7.42-21.82-.22-.65-.8-1.49-1.37-1.63-1.17-.3-1.35.84-1.62 1.68-2.07 6.3-4.15 12.6-6.17 18.91-.25.79-.21 1.68-.33 2.7h-14.27c3.56-10.97 7.07-21.77 10.57-32.56 3.5-10.79 6.98-21.58 10.56-32.69zm9.89 11.78c-1.96 6.07-3.84 11.94-5.8 18.02 5.41.57 9.78-.73 13.45-4.19 2.21-2.08 3.18-4.67 3.05-7.72-.1-2.44-1.24-4.13-3.47-5.02-2.21-.87-4.51-1.33-7.23-1.09zm-85.57-60.32h-37.99c10.8-29.44 21.6-58.86 32.47-88.47h16.81c-5.03 12.03-9.12 24.45-13.73 36.68-4.59 12.18-8.94 24.46-13.48 36.93h21.62c-1.95 5.07-3.82 9.96-5.7 14.86zm224.3 113.76c-.31-4.36-.61-8.48-.92-12.78-.88-.1-1.63-.25-2.39-.25-6.44-.02-12.88.05-19.32-.04-1.67-.02-2.74.49-3.68 1.89-2.47 3.69-5.08 7.29-7.82 11.19h-14.17c3.97-5.56 7.79-10.92 11.61-16.28 3.85-5.4 7.7-10.81 11.55-16.21 3.85-5.4 7.73-10.79 11.55-16.21 3.79-5.38 7.74-10.65 11.54-16.36h9.79c1.71 21.72 3.41 43.3 5.12 65.06-4.24-.01-8.56-.01-12.86-.01zm-3.17-42.83c-2.91 2.85-12.19 16.13-12.74 18.05h14.1c-.46-6-.89-11.8-1.36-18.05zM338.67 212.89h16.15c-1.47 4.02-2.84 7.79-4.23 11.57h-15.94c-2.35 6.28-4.69 12.54-7.13 19.08 3.18.62 6.03.25 8.85.31 2.85.06 5.7.01 8.96.01l-4.43 11.93h-31.25c8.73-23.79 17.41-47.46 26.17-71.31h30.04c-1.57 4.26-3.02 8.21-4.42 12.02-1.63-.13-3.04-.33-4.46-.34-3.37-.04-6.74.01-10.11.01-.92 0-1.81-.01-2.22 1.06-1.94 5.06-3.87 10.12-5.98 15.66zM219.32 318.41h16.56a75982.23 75982.23 0 0 0-31.78 86.91c-.15.41.07.96.13 1.57h-17.42c10.88-29.31 21.64-58.78 32.51-88.48zm17.8-62.6h-13.39c7.13-19.49 14.19-38.77 21.42-58.53-4.35-.02-8.22-.46-12.59.54 1.69-4.54 3.29-8.82 4.85-13.02 2.32-.63 34.52-.76 38.12-.13-1.58 4.37-3.13 8.67-4.66 12.89-4.15-.71-8.07-.25-12.29-.37-7.14 19.53-14.26 38.98-21.46 58.62z"/>
  <path style="fill:#ed1c24" d="M392.39 335.22c-2.64 12.86-5.28 25.72-7.94 38.71h-12.34c1.88-4.53 4.45-8.6 6.62-12.85 2.2-4.32 4.58-8.56 6.78-12.88 2.2-4.31 4.27-8.69 6.4-13.04l.48.06zm33.86 147.52c-.19 14.6-12.3 25.24-22.12 26.76-2.5.39-5.18.46-7.66.02-6.19-1.09-10.57-6.09-11.41-12.47-1.79-13.52 8.5-27.82 21.92-30.35 3.13-.59 6.34-.55 9.41.45 5.65 1.86 8.63 6.02 9.6 11.73.21 1.27.18 2.58.26 3.86zm91.85 24.42c4.14-12.92 8.14-25.4 12.17-37.97 3.9-.45 7.62-.3 11.21.95 5.02 1.76 7.99 6.3 7.57 11.83-.48 6.23-2.48 11.96-6.38 16.95-3.05 3.9-6.96 6.35-11.78 7.45-4.09.93-8.19 1.17-12.79.79zm-175.86-39.93c2.72-.24 5.02.22 7.23 1.1 2.23.89 3.37 2.58 3.47 5.02.12 3.04-.84 5.63-3.05 7.72-3.67 3.46-8.04 4.76-13.45 4.19 1.95-6.09 3.84-11.96 5.8-18.03zm135.56 10.61c.47 6.25.9 12.04 1.35 18.05h-14.1c.56-1.92 9.84-15.19 12.75-18.05z"/>
</svg>
