<?xml version="1.0" encoding="utf-8"?>
<!-- Generator: Adobe Illustrator 25.0.0, SVG Export Plug-In . SVG Version: 6.00 Build 0)  -->
<svg version="1.1" id="Layer_1" xmlns="http://www.w3.org/2000/svg" xmlns:xlink="http://www.w3.org/1999/xlink" x="0px" y="0px"
	 viewBox="0 0 720 720" style="enable-background:new 0 0 720 720;" xml:space="preserve">
<style type="text/css">
	.st0{fill:#FFFFFF;}
	.st1{fill:#ED1C24;}
</style>
<g>
	<path d="M0,453.37c0.57-0.9,1.3-1.73,1.7-2.7c16.28-39.76,32.53-79.53,48.77-119.3c20.96-51.32,41.9-102.64,62.86-153.96
		c18-44.08,36.01-88.16,54.02-132.23c0.52-1.27,1.09-2.52,1.76-4.07C352.75,116.05,536.24,190.94,720,265.93
		c-56.27,137.74-112.45,275.25-168.7,412.96c-3.86-1.55-7.53-3-11.17-4.49c-125.23-51.11-250.47-102.22-375.7-153.33
		C110.83,499.2,57.24,477.31,3.64,455.46c-1.15-0.47-2.43-0.61-3.64-0.9C0,454.16,0,453.77,0,453.37z M695.35,276.49
		C523.3,206.27,351.5,136.16,179.52,65.98C128.04,192.01,76.69,317.71,25.24,443.64c172.04,70.21,343.81,140.31,515.83,210.51
		C592.55,528.13,643.89,402.44,695.35,276.49z"/>
	<path class="st0" d="M695.35,276.49c-51.46,125.96-102.8,251.64-154.28,377.66c-172.01-70.2-343.79-140.3-515.83-210.51
		C76.69,317.71,128.04,192.01,179.52,65.98C351.5,136.16,523.3,206.27,695.35,276.49z M183.97,73.49
		C133.78,196.36,83.75,318.82,33.6,441.59c167.71,68.44,335.15,136.78,502.8,205.19c50.15-122.76,100.2-245.29,150.38-368.09
		C519.19,210.3,351.76,141.97,183.97,73.49z"/>
	<path class="st1" d="M183.97,73.49c167.79,68.47,335.22,136.8,502.8,205.19C636.6,401.49,586.54,524.01,536.39,646.78
		C368.75,578.36,201.3,510.03,33.6,441.59C83.75,318.82,133.78,196.36,183.97,73.49z M137.27,373.83
		c2.02-13.81,4.06-27.41,5.99-41.02c1.93-13.55,3.74-27.12,5.62-40.73c-7.55,0-15.26,0-22.94,0c-0.55,1.39-1.02,2.68-1.56,3.94
		c-7.42,17.28-14.86,34.56-22.27,51.84c-7.93,18.47-15.83,36.94-23.77,55.41c-0.53,1.23-1.22,2.38-1.87,3.63c6.55,0,13.13,0,19.25,0
		c1.63-5.72,4.21-10.81,6.26-16.09c2.08-5.35,4.32-10.64,6.5-15.96c2.18-5.31,4.4-10.61,6.56-15.93c2.16-5.32,4.3-10.65,6.39-16
		c2.04-5.24,4-10.52,6.11-16.09c-1.97,13.62-3.96,26.82-5.79,40.05c-1.83,13.28-3.49,26.58-5.26,40.14c4.32,0,8.18-0.09,12.03,0.04
		c1.8,0.06,2.85-0.5,3.76-2.1c2.88-5.08,5.96-10.05,8.95-15.08c10.59-17.78,21.75-35.23,31.43-53.55c1.81-3.42,3.62-6.85,5.56-10.53
		c-8.78,27.24-17.45,54.17-26.11,81.06c6.65,0,13.23,0,19.45,0c0.21-1.31,0.26-2.45,0.58-3.5c10.3-33.7,20.63-67.38,30.95-101.07
		c1.03-3.35,2.06-6.7,3.13-10.19c-7.9,0-15.49,0-22.95,0C168.03,319.52,151.29,345.83,137.27,373.83z M353.38,318.42
		c-10.49,21.8-20.88,43.38-30.75,63.9c4.56-20.54,9.37-42.2,14.19-63.88c-5.41,0-10.75,0-15.76,0c-0.47,1.18-0.77,2.2-1.26,3.12
		c-2.53,4.71-5.15,9.37-7.67,14.09c-7.38,13.79-14.74,27.6-22.07,41.42c-1.05,1.98-1.89,4.07-2.83,6.11
		c-0.08-0.04-0.15-0.07-0.23-0.11c5.47-21.52,10.95-43.03,16.41-64.54c-5.9,0-11.88,0-17.66,0c-0.13,1.17-0.16,2.16-0.35,3.12
		c-5.64,27.24-11.29,54.48-16.97,81.71c-0.25,1.21-0.74,2.36-1.14,3.59c5.83,0,11.76,0,17.24,0c1.8-4.06,4.19-7.53,6.29-11.15
		c2.18-3.77,4.41-7.52,6.63-11.27c2.17-3.67,4.4-7.29,6.52-10.99c2.16-3.78,4.26-7.6,6.32-11.44c1.97-3.68,3.86-7.4,5.78-11.1
		c0.18,0.07,0.37,0.15,0.55,0.22c-5.22,18.27-7.69,37.08-11.25,55.67c6.16,0,12.38,0,18.16,0c0.33-1.1,0.45-2.03,0.85-2.8
		c3.31-6.31,6.67-12.6,10.02-18.89c11.83-22.24,23.65-44.49,35.5-66.77C364.25,318.42,358.62,318.42,353.38,318.42z M464.73,318.46
		c1.18,1.31,0.37,2.46-0.06,3.63c-4.46,12.18-8.9,24.36-13.39,36.52c-2.85,7.7-5.66,15.42-8.75,23.03c-1.1,2.71-2.82,5.22-4.52,7.63
		c-1.4,1.97-3.44,3.22-5.96,3.57c-4.55,0.63-7.04-1.39-6.58-5.92c0.3-2.92,1.06-5.85,2.06-8.62c6.21-17.22,12.54-34.4,18.86-51.58
		c1.02-2.78,2.17-5.52,3.28-8.31c-5.79,0-11.63,0-17.24,0c-0.32,1.2-0.52,2.33-0.9,3.38c-4.86,13.4-9.79,26.77-14.6,40.18
		c-2.47,6.89-4.92,13.8-7.04,20.8c-0.96,3.18-1.46,6.61-1.49,9.94c-0.07,7.98,4.06,12.97,11.81,14.39
		c11.37,2.08,21.18-0.95,29.06-9.6c4.8-5.27,8.23-11.42,10.76-18.01c4.68-12.19,9.12-24.48,13.64-36.73
		c2.97-8.05,5.92-16.12,8.92-24.28C476.79,318.46,470.97,318.46,464.73,318.46z M496.86,318.34c-0.32,1.42-0.44,2.55-0.82,3.59
		c-3.93,10.78-7.89,21.55-11.85,32.33c-6.44,17.53-12.89,35.06-19.36,52.68c5.65,0,11.28,0,16.62,0c0.27-1.18,0.41-2.3,0.79-3.32
		c2.97-8.08,5.98-16.14,8.98-24.21c0.98-2.63,4.94-7.39,7.85-9.27c-0.64,12.35-0.27,24.54-1.23,36.77c5.92,0,12.03,0,17.97,0
		c-0.16-1.05-0.39-2-0.43-2.96c-0.11-2.67-0.13-5.35-0.2-8.02c-0.35-11.98-0.67-23.96-1.1-35.94c-0.07-1.94,0.42-3.41,1.75-4.79
		c1.44-1.49,2.74-3.13,4.1-4.71c9.15-10.63,18.29-21.26,27.54-32.01c-6.37,0-12.66,0-18.8,0c-0.71,2.78-2.89,4.59-4.43,6.77
		c-1.6,2.26-3.34,4.43-5.02,6.63c-1.68,2.21-3.36,4.41-5.04,6.62c-1.74,2.29-3.48,4.57-5.22,6.86c-1.68,2.21-3.36,4.42-5.02,6.64
		c-1.59,2.13-3.15,4.28-4.73,6.42c4.7-13.47,9.18-26.9,14.54-40.08c-0.48,0-1.07,0-1.66,0
		C506.92,318.34,501.77,318.34,496.86,318.34z M394.71,406.9c-0.55-2.35,2.12-19.35,6.61-44.19c2.66-14.73,4.99-29.52,7.45-44.21
		c-6.66,0-13.54,0-20.45,0c0.14,0.43,0.4,0.8,0.3,0.97c-16.8,29.13-33.63,58.25-50.5,87.45c5.66,0,11.29,0,16.92,0
		c0.08-1.94,5.88-13.12,10.67-20.56c5.29,0,10.59,0,16.11,0c-1.32,6.99-2.61,13.76-3.89,20.54
		C383.42,406.9,389.05,406.9,394.71,406.9z M544.84,391.62c3.09-8.27,6.02-16.11,8.97-23.99c6.75,0,13.25,0,19.9,0
		c1.77-4.68,3.69-9.24,5.34-14.32c-6.99,0-13.48,0-20.3,0c2.69-7.04,5.26-13.76,7.83-20.51c6.79,0,13.4,0,20.29,0
		c1.72-4.62,3.5-9.39,5.36-14.35c-12.96,0-25.51,0-38.17,0c1.05,1.43,0.14,2.6-0.27,3.74c-6.39,17.47-12.82,34.92-19.24,52.38
		c-3.97,10.79-7.92,21.58-11.87,32.32c12.77,0,25.63,0,38.62,0c1.97-5.07,3.9-10.07,5.92-15.27
		C559.69,391.62,552.57,391.62,544.84,391.62z M605.45,318.46c-0.31,1.36-0.42,2.38-0.77,3.32c-9.93,27.13-19.88,54.26-29.85,81.38
		c-0.46,1.25-1.13,2.42-1.72,3.69c12.96,0,25.97,0,39,0c1.92-5.11,3.78-10.07,5.67-15.1c-7.5,0-14.66,0-22.21,0
		c3.06-8.19,6.02-16.1,8.99-24.03c6.64,0,12.97,0,19.46,0c1.78-4.72,3.53-9.37,5.36-14.22c-3.59,0-6.76,0.04-9.93-0.01
		c-3.2-0.06-6.42,0.26-9.89-0.25c2.67-6.98,5.24-13.68,7.76-20.26c7.07,0,13.75,0,20.73,0c1.57-4.64,3.21-9.46,4.93-14.52
		C630.09,318.46,617.63,318.46,605.45,318.46z M414.02,454.12c-10.22,0.41-19.39,3.35-27.25,9.85
		c-12.16,10.06-17.43,23.05-15.45,38.68c1.03,8.16,5.67,14.01,13.47,17.05c6.16,2.4,12.54,2.49,19,1.6
		c24.6-3.37,39.5-25.87,35.84-48.88c-1.34-8.44-6.55-14.1-14.84-16.45C421.31,454.98,417.62,454.72,414.02,454.12z M520.94,455.46
		c-7.05,21.89-14.01,43.47-21.01,65.2c0.5,0.1,0.87,0.25,1.23,0.25c8.52-0.09,17.05,0.01,25.55-0.42c3.39-0.17,6.93-1.02,10.03-2.4
		c16.04-7.15,24.93-19.75,26.64-37.11c1.23-12.55-5.15-21.09-17.31-24.37c-0.48-0.13-0.96-0.24-1.44-0.34
		C536.67,454.71,528.65,455.85,520.94,455.46z M294.7,225.71c-3.64,10.18-7.2,20.14-10.79,30.18c4.68,0,9.23,0,13.32,0
		c8.77-23.91,17.46-47.62,26.2-71.46c-4.57,0-9,0-13.38,0c-3.54,9.68-7.03,19.22-10.52,28.75c-4.8,0-9.32,0-14.24,0
		c3.58-9.71,7.05-19.14,10.57-28.7c-4.62,0-9.13,0-13.39,0c-8.77,23.91-17.46,47.57-26.18,71.34c4.82,0,9.61,0,14.39,0
		c-0.13-0.68-0.46-1.31-0.3-1.76c3.4-9.48,6.85-18.94,10.28-28.36C285.41,225.71,289.86,225.71,294.7,225.71z M332.35,455.45
		c-3.59,11.11-7.07,21.9-10.56,32.69c-3.5,10.8-7,21.59-10.57,32.56c4.96,0,9.68,0,14.27,0c0.12-1.02,0.08-1.91,0.33-2.7
		c2.03-6.31,4.11-12.61,6.17-18.91c0.27-0.84,0.45-1.98,1.62-1.68c0.57,0.14,1.14,0.98,1.37,1.63c2.49,7.18,4.9,14.38,7.42,21.82
		c2.25,0,4.62,0.03,6.99-0.01c2.4-0.04,4.82,0.18,7.4-0.18c-1.61-2.4-8.3-22.1-8.45-24.55c0.08-0.06,0.15-0.15,0.24-0.18
		c0.37-0.13,0.75-0.25,1.12-0.35c6.82-1.92,11.75-6.13,14.52-12.6c1.27-2.97,2.28-6.16,2.77-9.35c1.29-8.43-2.79-14.39-11.04-16.81
		C348.07,454.51,340.02,455.87,332.35,455.45z M256.67,406.91c1.88-4.9,3.75-9.79,5.7-14.86c-7.34,0-14.26,0-21.62,0
		c4.54-12.47,8.89-24.75,13.48-36.93c4.61-12.22,8.7-24.65,13.73-36.68c-5.61,0-11.34,0-16.81,0
		c-10.87,29.6-21.67,59.03-32.47,88.47C231.27,406.91,243.84,406.91,256.67,406.91z M480.97,520.67c4.3,0,8.61,0,12.86,0
		c-1.71-21.76-3.41-43.34-5.12-65.06c-3.33,0-6.77,0-9.79,0c-3.8,5.72-7.75,10.99-11.54,16.36c-3.82,5.42-7.7,10.81-11.55,16.21
		c-3.85,5.4-7.7,10.81-11.55,16.21c-3.82,5.36-7.64,10.72-11.61,16.28c4.96,0,9.75,0,14.17,0c2.74-3.9,5.35-7.49,7.82-11.19
		c0.94-1.4,2.01-1.91,3.68-1.89c6.44,0.08,12.88,0.02,19.32,0.04c0.76,0,1.51,0.15,2.39,0.25
		C480.36,512.19,480.66,516.31,480.97,520.67z M338.67,212.89c2.11-5.54,4.04-10.6,5.96-15.66c0.41-1.07,1.3-1.06,2.22-1.06
		c3.37,0,6.74-0.05,10.11-0.01c1.41,0.02,2.83,0.21,4.46,0.34c1.4-3.81,2.86-7.77,4.42-12.02c-10.38,0-20.34,0-30.04,0
		c-8.75,23.85-17.43,47.52-26.17,71.31c10.46,0,20.81,0,31.25,0c1.5-4.04,2.96-7.97,4.43-11.93c-3.26,0-6.11,0.05-8.96-0.01
		c-2.82-0.06-5.66,0.3-8.85-0.31c2.44-6.54,4.78-12.79,7.13-19.08c5.39,0,10.6,0,15.94,0c1.38-3.78,2.76-7.55,4.23-11.57
		C349.37,212.89,344.34,212.89,338.67,212.89z M219.32,318.41c-10.87,29.7-21.62,59.17-32.51,88.48c5.62,0,11.53,0,17.42,0
		c-0.06-0.61-0.28-1.16-0.13-1.57c10.57-28.97,21.18-57.94,31.78-86.91C230.4,318.41,224.76,318.41,219.32,318.41z M237.12,255.81
		c7.19-19.64,14.32-39.1,21.46-58.61c4.22,0.12,8.14-0.34,12.29,0.37c1.52-4.21,3.08-8.52,4.66-12.89
		c-3.61-0.63-35.8-0.5-38.12,0.13c-1.56,4.2-3.16,8.48-4.85,13.02c4.37-1,8.24-0.56,12.59-0.54c-7.23,19.76-14.29,39.04-21.42,58.53
		C228.41,255.81,232.83,255.81,237.12,255.81z"/>
	<path class="st0" d="M137.27,373.83c14.02-28,30.76-54.31,45.98-81.72c7.46,0,15.05,0,22.95,0c-1.07,3.49-2.1,6.84-3.13,10.19
		c-10.32,33.69-20.65,67.38-30.95,101.07c-0.32,1.05-0.37,2.18-0.58,3.5c-6.22,0-12.81,0-19.45,0c8.66-26.9,17.34-53.82,26.11-81.06
		c-1.94,3.68-3.75,7.1-5.56,10.53c-9.68,18.32-20.84,35.76-31.43,53.55c-2.99,5.02-6.06,9.99-8.95,15.08
		c-0.91,1.61-1.96,2.16-3.76,2.1c-3.85-0.12-7.71-0.04-12.03-0.04c1.77-13.55,3.43-26.86,5.26-40.14
		c1.82-13.23,3.81-26.44,5.79-40.05c-2.11,5.57-4.07,10.85-6.11,16.09c-2.08,5.35-4.23,10.68-6.39,16
		c-2.16,5.32-4.38,10.62-6.56,15.93c-2.18,5.31-4.42,10.6-6.5,15.96c-2.05,5.28-4.63,10.37-6.26,16.09c-6.12,0-12.7,0-19.25,0
		c0.65-1.25,1.35-2.4,1.87-3.63c7.94-18.46,15.84-36.94,23.77-55.41c7.42-17.28,14.85-34.56,22.27-51.84
		c0.54-1.26,1.01-2.54,1.56-3.94c7.69,0,15.39,0,22.94,0c-1.87,13.61-3.69,27.18-5.62,40.73
		C141.33,346.42,139.29,360.02,137.27,373.83z"/>
	<path class="st0" d="M353.38,318.42c5.23,0,10.87,0,16.52,0c-11.85,22.28-23.67,44.53-35.5,66.77
		c-3.35,6.29-6.71,12.58-10.02,18.89c-0.4,0.77-0.52,1.69-0.85,2.8c-5.78,0-12,0-18.16,0c3.56-18.6,6.03-37.41,11.25-55.67
		c-0.18-0.07-0.37-0.15-0.55-0.22c-1.92,3.7-3.81,7.42-5.78,11.1c-2.06,3.84-4.15,7.66-6.32,11.44c-2.12,3.7-4.35,7.32-6.52,10.99
		c-2.22,3.75-4.44,7.5-6.63,11.27c-2.1,3.62-4.49,7.09-6.29,11.15c-5.48,0-11.41,0-17.24,0c0.4-1.23,0.89-2.38,1.14-3.59
		c5.68-27.23,11.33-54.47,16.97-81.71c0.2-0.95,0.22-1.94,0.35-3.12c5.77,0,11.76,0,17.66,0c-5.47,21.51-10.94,43.02-16.41,64.54
		c0.08,0.04,0.15,0.07,0.23,0.11c0.94-2.04,1.78-4.13,2.83-6.11c7.33-13.82,14.69-27.62,22.07-41.42c2.52-4.71,5.14-9.38,7.67-14.09
		c0.49-0.92,0.79-1.94,1.26-3.12c5.01,0,10.35,0,15.76,0c-4.82,21.68-9.62,43.34-14.19,63.88
		C332.51,361.8,342.89,340.22,353.38,318.42z"/>
	<path class="st0" d="M464.73,318.46c6.24,0,12.05,0,17.85,0c-3,8.16-5.95,16.23-8.92,24.28c-4.52,12.25-8.96,24.54-13.64,36.73
		c-2.53,6.59-5.96,12.74-10.76,18.01c-7.87,8.65-17.68,11.67-29.06,9.6c-7.75-1.41-11.88-6.41-11.81-14.39
		c0.03-3.32,0.53-6.76,1.49-9.94c2.11-7,4.56-13.91,7.04-20.8c4.81-13.41,9.74-26.78,14.6-40.18c0.38-1.06,0.58-2.18,0.9-3.38
		c5.62,0,11.46,0,17.24,0c-1.1,2.79-2.25,5.53-3.28,8.31c-6.32,17.18-12.64,34.36-18.86,51.58c-1,2.77-1.76,5.7-2.06,8.62
		c-0.46,4.52,2.03,6.55,6.58,5.92c2.52-0.35,4.55-1.6,5.96-3.57c1.71-2.41,3.42-4.91,4.52-7.63c3.09-7.61,5.9-15.32,8.75-23.03
		c4.5-12.16,8.94-24.34,13.39-36.52C465.1,320.92,465.92,319.77,464.73,318.46z"/>
	<path class="st0" d="M496.86,318.34c4.91,0,10.06,0,15.21,0c0.59,0,1.18,0,1.66,0c-5.36,13.18-9.83,26.61-14.54,40.08
		c1.58-2.14,3.14-4.29,4.73-6.42c1.66-2.22,3.34-4.43,5.02-6.64c1.74-2.29,3.48-4.57,5.22-6.86c1.68-2.21,3.36-4.41,5.04-6.62
		c1.68-2.21,3.42-4.37,5.02-6.63c1.54-2.18,3.72-3.99,4.43-6.77c6.14,0,12.44,0,18.8,0c-9.25,10.75-18.39,21.38-27.54,32.01
		c-1.36,1.58-2.65,3.22-4.1,4.71c-1.33,1.37-1.82,2.85-1.75,4.79c0.43,11.98,0.75,23.96,1.1,35.94c0.08,2.67,0.09,5.35,0.2,8.02
		c0.04,0.96,0.27,1.9,0.43,2.96c-5.94,0-12.05,0-17.97,0c0.96-12.23,0.59-24.42,1.23-36.77c-2.91,1.88-6.87,6.64-7.85,9.27
		c-3,8.07-6.01,16.13-8.98,24.21c-0.38,1.03-0.52,2.14-0.79,3.32c-5.35,0-10.98,0-16.62,0c6.48-17.62,12.92-35.15,19.36-52.68
		c3.96-10.77,7.92-21.54,11.85-32.33C496.42,320.88,496.55,319.76,496.86,318.34z"/>
	<path class="st0" d="M394.71,406.9c-5.66,0-11.29,0-16.78,0c1.29-6.79,2.57-13.56,3.89-20.54c-5.52,0-10.82,0-16.11,0
		c-4.79,7.44-10.6,18.62-10.67,20.56c-5.63,0-11.26,0-16.92,0c16.87-29.2,33.7-58.32,50.5-87.45c0.1-0.17-0.16-0.53-0.3-0.97
		c6.91,0,13.79,0,20.45,0c-2.46,14.68-4.78,29.48-7.45,44.21C396.83,387.55,394.16,404.55,394.71,406.9z M392.39,335.22
		c-0.16-0.02-0.32-0.04-0.48-0.06c-2.13,4.35-4.2,8.72-6.4,13.04c-2.2,4.32-4.58,8.56-6.78,12.88c-2.17,4.25-4.74,8.32-6.62,12.85
		c4.3,0,8.24,0,12.34,0C387.11,360.94,389.75,348.08,392.39,335.22z"/>
	<path class="st0" d="M544.84,391.62c7.72,0,14.84,0,22.38,0c-2.01,5.2-3.95,10.2-5.92,15.27c-12.99,0-25.85,0-38.62,0
		c3.95-10.75,7.91-21.53,11.87-32.32c6.42-17.46,12.85-34.91,19.24-52.38c0.42-1.14,1.32-2.3,0.27-3.74c12.66,0,25.21,0,38.17,0
		c-1.85,4.97-3.63,9.73-5.36,14.35c-6.89,0-13.51,0-20.29,0c-2.57,6.74-5.14,13.47-7.83,20.51c6.82,0,13.31,0,20.3,0
		c-1.65,5.08-3.57,9.64-5.34,14.32c-6.65,0-13.15,0-19.9,0C550.87,375.51,547.93,383.35,544.84,391.62z"/>
	<path class="st0" d="M605.45,318.46c12.18,0,24.64,0,37.53,0c-1.72,5.06-3.35,9.88-4.93,14.52c-6.97,0-13.66,0-20.73,0
		c-2.52,6.57-5.09,13.28-7.76,20.26c3.48,0.51,6.7,0.19,9.89,0.25c3.17,0.06,6.33,0.01,9.93,0.01c-1.83,4.85-3.58,9.5-5.36,14.22
		c-6.49,0-12.82,0-19.46,0c-2.97,7.93-5.93,15.85-8.99,24.03c7.55,0,14.71,0,22.21,0c-1.89,5.02-3.75,9.99-5.67,15.1
		c-13.03,0-26.05,0-39,0c0.59-1.26,1.26-2.44,1.72-3.69c9.97-27.12,19.92-54.25,29.85-81.38
		C605.02,320.83,605.14,319.81,605.45,318.46z"/>
	<path class="st0" d="M414.02,454.12c3.6,0.59,7.29,0.86,10.77,1.85c8.29,2.35,13.5,8.01,14.84,16.45
		c3.66,23.01-11.24,45.51-35.84,48.88c-6.47,0.88-12.84,0.8-19-1.6c-7.8-3.04-12.44-8.89-13.47-17.05
		c-1.97-15.63,3.29-28.62,15.45-38.68C394.63,457.47,403.8,454.54,414.02,454.12z M426.25,482.74c-0.08-1.28-0.05-2.59-0.26-3.85
		c-0.97-5.72-3.94-9.87-9.6-11.73c-3.06-1.01-6.27-1.04-9.41-0.45c-13.43,2.53-23.71,16.82-21.92,30.35
		c0.84,6.37,5.22,11.37,11.41,12.47c2.48,0.44,5.16,0.37,7.66-0.02C413.94,507.98,426.06,497.34,426.25,482.74z"/>
	<path class="st0" d="M520.94,455.46c7.7,0.39,15.73-0.74,23.68,0.82c0.48,0.1,0.97,0.21,1.44,0.34
		c12.17,3.28,18.55,11.82,17.31,24.37c-1.71,17.36-10.6,29.96-26.64,37.11c-3.1,1.38-6.65,2.23-10.03,2.4
		c-8.5,0.43-17.03,0.32-25.55,0.42c-0.37,0-0.73-0.14-1.23-0.25C506.93,498.93,513.89,477.35,520.94,455.46z M518.1,507.16
		c4.61,0.38,8.71,0.14,12.78-0.78c4.82-1.09,8.74-3.55,11.78-7.45c3.9-4.99,5.9-10.72,6.38-16.95c0.42-5.53-2.55-10.07-7.57-11.83
		c-3.59-1.26-7.31-1.4-11.21-0.95C526.24,481.76,522.24,494.24,518.1,507.16z"/>
	<path class="st0" d="M294.7,225.71c-4.84,0-9.28,0-14.06,0c-3.43,9.42-6.88,18.88-10.28,28.36c-0.16,0.45,0.17,1.08,0.3,1.76
		c-4.79,0-9.58,0-14.39,0c8.72-23.77,17.41-47.43,26.18-71.34c4.26,0,8.77,0,13.39,0c-3.52,9.57-6.99,18.99-10.57,28.7
		c4.92,0,9.44,0,14.24,0c3.49-9.53,6.98-19.08,10.52-28.75c4.39,0,8.82,0,13.38,0c-8.74,23.84-17.43,47.55-26.2,71.46
		c-4.08,0-8.64,0-13.32,0C287.5,245.85,291.06,235.89,294.7,225.71z"/>
	<path class="st0" d="M332.35,455.45c7.67,0.42,15.72-0.94,23.6,1.38c8.25,2.42,12.33,8.39,11.04,16.81
		c-0.49,3.19-1.5,6.37-2.77,9.35c-2.77,6.47-7.7,10.68-14.52,12.6c-0.38,0.11-0.75,0.23-1.12,0.35c-0.09,0.03-0.16,0.12-0.24,0.18
		c0.15,2.46,6.83,22.15,8.45,24.55c-2.58,0.36-5,0.14-7.4,0.18c-2.37,0.04-4.73,0.01-6.99,0.01c-2.52-7.43-4.93-14.64-7.42-21.82
		c-0.22-0.65-0.8-1.49-1.37-1.63c-1.17-0.3-1.35,0.84-1.62,1.68c-2.07,6.3-4.15,12.6-6.17,18.91c-0.25,0.79-0.21,1.68-0.33,2.7
		c-4.59,0-9.31,0-14.27,0c3.56-10.97,7.07-21.77,10.57-32.56C325.29,477.35,328.77,466.56,332.35,455.45z M342.24,467.23
		c-1.96,6.07-3.84,11.94-5.8,18.02c5.41,0.57,9.78-0.73,13.45-4.19c2.21-2.08,3.18-4.67,3.05-7.72c-0.1-2.44-1.24-4.13-3.47-5.02
		C347.26,467.45,344.96,466.99,342.24,467.23z"/>
	<path class="st0" d="M256.67,406.91c-12.83,0-25.4,0-37.99,0c10.8-29.44,21.6-58.86,32.47-88.47c5.47,0,11.2,0,16.81,0
		c-5.03,12.03-9.12,24.45-13.73,36.68c-4.59,12.18-8.94,24.46-13.48,36.93c7.35,0,14.28,0,21.62,0
		C260.42,397.12,258.55,402.01,256.67,406.91z"/>
	<path class="st0" d="M480.97,520.67c-0.31-4.36-0.61-8.48-0.92-12.78c-0.88-0.1-1.63-0.25-2.39-0.25
		c-6.44-0.02-12.88,0.05-19.32-0.04c-1.67-0.02-2.74,0.49-3.68,1.89c-2.47,3.69-5.08,7.29-7.82,11.19c-4.42,0-9.21,0-14.17,0
		c3.97-5.56,7.79-10.92,11.61-16.28c3.85-5.4,7.7-10.81,11.55-16.21c3.85-5.4,7.73-10.79,11.55-16.21
		c3.79-5.38,7.74-10.65,11.54-16.36c3.02,0,6.46,0,9.79,0c1.71,21.72,3.41,43.3,5.12,65.06
		C489.59,520.67,485.27,520.67,480.97,520.67z M477.8,477.84c-2.91,2.85-12.19,16.13-12.74,18.05c4.6,0,9.19,0,14.1,0
		C478.7,489.89,478.27,484.09,477.8,477.84z"/>
	<path class="st0" d="M338.67,212.89c5.67,0,10.7,0,16.15,0c-1.47,4.02-2.84,7.79-4.23,11.57c-5.35,0-10.56,0-15.94,0
		c-2.35,6.28-4.69,12.54-7.13,19.08c3.18,0.62,6.03,0.25,8.85,0.31c2.85,0.06,5.7,0.01,8.96,0.01c-1.47,3.96-2.93,7.89-4.43,11.93
		c-10.43,0-20.78,0-31.25,0c8.73-23.79,17.41-47.46,26.17-71.31c9.7,0,19.66,0,30.04,0c-1.57,4.26-3.02,8.21-4.42,12.02
		c-1.63-0.13-3.04-0.33-4.46-0.34c-3.37-0.04-6.74,0.01-10.11,0.01c-0.92,0-1.81-0.01-2.22,1.06
		C342.71,202.29,340.78,207.35,338.67,212.89z"/>
	<path class="st0" d="M219.32,318.41c5.44,0,11.08,0,16.56,0c-10.61,28.97-21.21,57.94-31.78,86.91c-0.15,0.41,0.07,0.96,0.13,1.57
		c-5.89,0-11.8,0-17.42,0C197.69,377.58,208.45,348.11,219.32,318.41z"/>
	<path class="st0" d="M237.12,255.81c-4.3,0-8.71,0-13.39,0c7.13-19.49,14.19-38.77,21.42-58.53c-4.35-0.02-8.22-0.46-12.59,0.54
		c1.69-4.54,3.29-8.82,4.85-13.02c2.32-0.63,34.52-0.76,38.12-0.13c-1.58,4.37-3.13,8.67-4.66,12.89
		c-4.15-0.71-8.07-0.25-12.29-0.37C251.44,216.72,244.32,236.17,237.12,255.81z"/>
	<path class="st1" d="M392.39,335.22c-2.64,12.86-5.28,25.72-7.94,38.71c-4.11,0-8.04,0-12.34,0c1.88-4.53,4.45-8.6,6.62-12.85
		c2.2-4.32,4.58-8.56,6.78-12.88c2.2-4.31,4.27-8.69,6.4-13.04C392.07,335.18,392.23,335.2,392.39,335.22z"/>
	<path class="st1" d="M426.25,482.74c-0.19,14.6-12.3,25.24-22.12,26.76c-2.5,0.39-5.18,0.46-7.66,0.02
		c-6.19-1.09-10.57-6.09-11.41-12.47c-1.79-13.52,8.5-27.82,21.92-30.35c3.13-0.59,6.34-0.55,9.41,0.45
		c5.65,1.86,8.63,6.02,9.6,11.73C426.2,480.15,426.17,481.46,426.25,482.74z"/>
	<path class="st1" d="M518.1,507.16c4.14-12.92,8.14-25.4,12.17-37.97c3.9-0.45,7.62-0.3,11.21,0.95c5.02,1.76,7.99,6.3,7.57,11.83
		c-0.48,6.23-2.48,11.96-6.38,16.95c-3.05,3.9-6.96,6.35-11.78,7.45C526.8,507.3,522.7,507.54,518.1,507.16z"/>
	<path class="st1" d="M342.24,467.23c2.72-0.24,5.02,0.22,7.23,1.1c2.23,0.89,3.37,2.58,3.47,5.02c0.12,3.04-0.84,5.63-3.05,7.72
		c-3.67,3.46-8.04,4.76-13.45,4.19C338.39,479.17,340.28,473.3,342.24,467.23z"/>
	<path class="st1" d="M477.8,477.84c0.47,6.25,0.9,12.04,1.35,18.05c-4.9,0-9.5,0-14.1,0C465.61,493.97,474.89,480.7,477.8,477.84z"
		/>
</g>
</svg>
