<svg xmlns="http://www.w3.org/2000/svg" viewBox="0 0 612 612">
    <path fill="#fff" d="M0 89.5h612v432.9H0V89.5zM107.4 212c.7.1 1.5.2 2.2.4 0 6.6-.4 13.3.1 19.9.5 6.9 1.6 13.8 2.7 20.7 2.6 16.5 12.9 27.3 26.4 27.9 26.5 1.2 43-6.2 45-23.9 2.8-24.2 3.7-48.9 2.6-73.2-.5-10.7-5.4-24.3-13.2-30.9-16.2-13.8-48.8-9.4-57.7 14.8-5.2 13.8-5.6 29.4-8.1 44.3zM331 451.3c0 7.3-.7 13.4.2 19.2 1 6.8 1.3 16.5 5.6 19.4 29.9 19.9 63.8 28.2 99.6 27.1 21.9-.7 44.1-1.6 65.6-5.6 26.6-4.9 51.1-16 64-41.8 3.1-6.3 2.6-17-.8-23.3-4.4-8.2-13.8-12.5-23.8-6.5-13.2 7.9-26 16.3-39 24.6.5 1.5 1 3 1.4 4.5 4.6-.7 9.4-.5 13.6-2.2 8.5-3.3 16.4-7.8 24.8-11.4 2.4-1 6.5-1.5 8.2-.2 1.7 1.4 2.8 5.9 1.8 7.8-2.6 5.1-5.5 11.9-10.1 13.9-16.8 7.4-33.9 14.9-51.7 19.2-41.8 10.1-83.7 8.3-124.4-6-11-3.9-20.5-10.2-19.1-25.5.6-6.7-4.4-14-7.1-21.7 7.7-5.8 11-20.4 5.2-31.1-4.8-9-22.2-9.5-40.1-1.1-1.2 24.4-2.4 48.9-3.6 73.2 15.3 1.7 15.3 1.7 17.4-29.4 3.2-.8 6.7-1.7 12.3-3.1zM58.4 328.9c8-3.6 17.9-5 21-10.3 5.2-9-3.2-21-12.9-27.7-12.6-8.7-23.9-4.3-35.8.4-12.2 4.8-21.5 11.9-22.6 26-1.4 16.8-.5 32.7 18.4 40.5 4.4 1.8 8.7 4 13 6.2 16 8.2 18.5 22.4 4.6 38.2-3.4-5.1-6.8-9.4-9.2-14.1-2.2-4.4-3.4-13.3-5-13.3-6.5 0-14.3 1.1-19.1 4.9-3.4 2.7-4.6 10.9-3.4 15.8 5.5 21 13.6 27 37.7 26.1 23.6-.9 38.7-13.3 42.9-37.1 2.9-16.4-9.7-35.4-27.6-43.3-6.9-3.1-13.6-7.6-18.8-13.1-3-3.1-3.3-9.4-3.4-14.2 0-1.9 5.4-5.8 6-5.4 3.8 2.5 7.2 5.7 10.1 9.2 1.7 1.9 1.9 4.9 4.1 11.2zm158.3-110.8c13.6-.7 17 6.6 15.1 22.8-.8 6.9 1.9 17.4 6.8 20.8 5.5 3.8 15.8 2.9 23.2.8 3.4-1 4.7-9.5 8.6-18.5-16.1 8-19.5 1.9-19.1-8.4.5-11.6-.5-22.3-12.7-28 1.1-1.5 1.6-2.3 2.2-2.9 10.3-10.8 13.5-24.6 7.9-34-10-16.6-12.8-17.6-33.7-12.8-3.8.9-8.3-.4-11.8.9-3.6 1.4-9.1 4.7-9.2 7.2-.2 28.6.5 57.2 1.2 85.8.2 6.9 4.2 9.3 10.7 6.2 3.5-1.7 6.8-3.5 10.8-5.6v-34.3zm-120.5 191c9.6-2.7 21 1.4 23.6-10.7 1.9-8.9 2.4-19.2-.4-27.6-3.9-11.3 2.2-11.5 12.8-13.8.8 14.9 1.5 28.8 2.3 42.5 7.3-1 13.7-1.9 18.7-2.6v-99.4c-6.5 1.9-11.4 2.7-15.6 4.7-2.7 1.3-6.1 4.4-6.2 6.8-.7 10.3-.3 20.7-.3 31.9-3.8.7-7.7 1.4-13.4 2.5v-35.8c-9.2.6-20.5-3.6-21 8.5-1.3 30.3-.5 60.7-.5 93zm375.7-248.8c1-.2 2-.5 3-.7 4.3 11.9 8.5 23.7 13.2 36.7 6.7-1.5 13.1-2.9 17.6-3.9V96.7c-9.7 2.3-20.5-1.9-18.9 12.6 1.2 11.1 2.2 22.2 3.3 33.3-.9.2-1.9.4-2.8.7-5.2-13.2-10.3-26.3-15.3-39-6.8.8-11.8 1.4-16.8 2.1v97.7c6.5-1.5 12.2-2.9 16.8-3.9-.1-14.2-.1-27.1-.1-39.9zm20.8 65c-19.7-.6-19.7-.6-19.7 18.4 0 6.4-.2 12.8.1 19.1 1.1 20.9 2.3 41.8 3.6 63.6 5.6-1.6 10.1-2.9 13.9-4V276c.7-.3 1.3-.7 2-1 5.9 14.2 11.8 28.4 17.7 42.5 7.1-1.3 12.8-2.3 16.2-2.9v-80.2c0-19.1 0-19.1-19-12 .9 14.7 1.8 29.6 2.6 44.5-1.2.1-2.5.1-3.7.2-4.5-13.7-8.9-27.5-13.7-41.8zm-254.9 150c18.7 1.9 18.7 1.9 18.8-15 0-5.3-.7-10.8.2-15.9.7-3.7 3.6-6.9 5.5-10.3 3.4 3.3 7.7 6.2 10 10.1 1.5 2.7 0 6.9.3 10.4.4 5.6 1.1 11.1 1.9 18.4 8.4-4.4 13.4-7 18.2-9.5-3.8-13.7 4.5-30.3-12.6-37.9 1.1-2.5 1.2-3.5 1.8-4 9.9-7.5 12.4-18.5 7.6-30.8s-11.7-19.7-26.5-15.5c-9.9 2.8-20.2 4-29.3 5.8 1.4 32.2 2.7 62.8 4.1 94.2zm-11.9-35.6l-1.5-.3c0-4.9.6-9.8-.1-14.6-1-6.4-3-12.6-4.6-18.8-3-11.1-15.9-20.2-26.6-18.8-12.9 1.8-24.2 12-24.5 23.5-.5 19.5.3 39.1-.3 58.6-.4 14.2 9.7 17.5 19.9 19.9 11.1 2.6 28.6-4.8 30.6-12.7 3-12 4.8-24.4 7.1-36.8zm217.6-177.2h.1c0-7.1 1-14.3-.2-21.2-2.1-11.3-3-24.7-15.2-29.9-19.3-8.3-39.4 4.8-40.5 25.7-.8 15.3-.2 30.7-.1 46.1 0 14.8 10.1 27.9 21.6 28.2 15.2.4 33.7-14.8 34.3-28.3.3-6.8 0-13.7 0-20.6zm-14.5 184c-2.2-42.9-4.3-84.8-6.4-126.3-21.6-1-24.4 2.6-19.9 21.8.7 3 .8 6.1.8 9.2.2 33 .1 66 .5 99 .1 6.8 1.9 13.7 3.1 22.2 12-3.3 22.7-6.6 33.5-9.2 17.6-4.2 17.6-4.1 15.2-23.7-8.3 2.1-16.5 4.3-26.8 7zM264.3 144.2c1.7 32.1-1.7 64.5 2.4 97.1 13.4-3.3 23.3-6.7 33.6-8.1 18-2.5 20.4-5.5 15.6-24.3-3.8 1-7.5 2.8-11.2 2.8-6.2-.1-12.3-1.4-18.5-2.1 1-7.9.7-16.1 12.3-17.5 5.6-.7 10.9-4.4 15.9-6.5-1.2-6.4-2.1-11.3-2.9-15.6-8.8 1.7-16.6 3.2-24.5 4.8-1.6-18.2-1.7-18.6 20.6-23.9 8.1-1.9 9.7-6.7 6.7-12.2-1.7-3.1-8.2-5.9-11.7-5.2-12.6 2.6-24.9 6.8-38.3 10.7zm99.1 42c-1 3.2-1.4 6.3-2.7 8.8-1.6 3.1-4 5.8-6.1 8.6-2.4-3.1-5.5-5.9-6.9-9.5-1.6-3.9-2.3-8.5-2.2-12.7.4-12.7.8-25.5 2.4-38.1.3-2.3 6.4-3.9 9.8-5.8 1.2 3.1 2.6 6.1 3.4 9.3.5 1.8.1 3.9.1 6.1h14.2c4.9-14.9 1.6-28.4-7.3-31.4-18.1-5.9-35.9 1.6-38.7 20.6-3.1 20.8-2.2 42.5 0 63.5 1.5 14 22.1 20.4 33.9 13 5.2-3.2 11.3-5 19.4-8.4-.8-8-1.4-19.1-3.2-30.1-.9-5.5-3.8-10.7-5.7-16-7.4 4.1-20.1 1-20.6 15 3.6 2.5 6.8 4.7 10.2 7.1zm175.5 29.3c1.3 24.1 3 46 3.5 67.9.6 27.9.2 27.9 27.3 21.4 3.4-.8 6.6-2.1 10-2.5 12.7-1.7 15.8-9 12.2-22.1-4.6 1.1-8.9 3-13.3 3.1-5.7.1-15.1.5-16.4-2.2-3.4-7.5-1.6-15.7 8.6-18.3 5.4-1.4 10.9-2.6 16.3-3.8v-16.2c-8.4 1.8-15.8 3.3-25.1 5.2-.4-6.7-.7-12.9-1-18.8 28-9 28-9 25.2-26.2-15.8 4.1-31.4 8.3-47.3 12.5zm-220 67.5c0 21-.6 39.7.2 58.4.8 19.5 1.3 19.5 20.3 16.2.7-.1 1.4-.8 1.4-.8v-77.6c2.7-1.1 5.9-3.1 9.2-3.4 9.5-.9 9.6-7.9 7.4-13.4-1-2.6-8.4-4.4-12.5-3.9-9.8 1.2-19.4 5.5-29.2 6-14.7.7-19.8 2.6-14.5 20.5 5.1-.6 10.2-1.2 17.7-2zm119.4 48.1c6.2 0 11 1.1 14.9-.3 3.4-1.3 8.3-5.5 8.3-8.4-.1-25.5-.8-51-2-76.4-.2-4.7-2-11.6-5.3-13.3-3.2-1.7-10.5.6-13.7 3.6-2.8 2.5-2.8 8.4-3.2 12.9-.3 4.3.9 8.6.9 13 .2 22.5.1 45 .1 68.9zm14.3 61.4c1.5 18.7 3 36.8 4.6 56 22.5-1.3 3.6-19.5 15.5-27.3 2.8 7.5 5.4 14.4 8.2 22 13.7-3.3 6.9-12.9 4.9-19.3-1.7-5.2-4.5-7.9-.9-14.5 2.6-4.8-1.1-14-3.9-20.4-1.1-2.6-7.7-4.8-11.2-4.1-6 1.4-11.7 5-17.2 7.6zm121.6 2.8c8.1-2.5 15.1-3.7 21-6.9 4.5-2.5 10.4-7.5 10.6-11.7.8-11.4.5-23.5-2.7-34.3-1.4-4.9-10.8-10.3-16.7-10.4-5.7-.1-16.3 6.3-16.3 9.9-.2 17.3 2.4 34.5 4.1 53.4zm-82.9-.8c1 .4 2.1.8 3.1 1.2 0 6.4-1.5 13.3.4 19.1 2.1 6.3 6.4 15.2 11.5 16.5 8.2 2.2 18.7-1.6 19.6-12.3.9-11.7-.6-23.7-2.2-35.4-1.7-12.5-14-18-23.2-9.6-5 4.7-6.2 13.5-9.2 20.5zm43.2 20c1.2.7 2.5 1.3 3.7 2 4.7-6.5 9.5-12.9 14.9-20.3 2.5 4.9 4.2 8.2 6 11.9 3.9-2.9 7.2-5.3 11.3-8.3-6.8-14.1-13-27.7-20.1-40.9-1.6-3-6.3-4.3-9.6-6.4-2.1 3.3-5.8 6.5-5.9 9.9-.6 17.4-.3 34.8-.3 52.1zm-141.2 56c-5.2-19.5-9.3-35.1-13.7-50.6-.7-2.3-2.9-5.7-4.7-5.9-2.5-.3-7.2 1.6-7.6 3.2-3.9 18.7-7.1 37.6-10.5 56.5l5.1 2.4c2.3-2.4 5.6-4.5 6.8-7.3 2.5-6 4.6-8.7 10.7-3.1 2.6 2.3 7.2 2.6 13.9 4.8zm41-24.8c-1.5-16-2.8-30-4.1-44-1.6-.4-3.2-.9-4.8-1.3-1.9 3.3-5.6 6.6-5.5 9.8.6 16.9 2.2 33.7 3.4 50.7 30.9-7.9 30.9-7.9 26.6-16.9-5.3.5-10.4 1.1-15.6 1.7zm-22.7-39.6c-11.6 2.6-17.5 3.9-14 15.3 3.2 10.5 1.6 22.4 2.9 33.5.4 3.7 3.2 7.1 4.9 10.6 2.1-3.6 5.8-7.2 5.9-10.9.6-15.5.3-31.2.3-48.5z"/>
    <path class="color-black" d="M107.4 212c2.5-14.9 2.9-30.5 8.1-44.4 8.9-24.2 41.5-28.6 57.7-14.8 7.8 6.6 12.7 20.2 13.2 30.9 1.2 24.3.2 49-2.6 73.2-2 17.7-18.6 25.2-45 23.9-13.5-.6-23.8-11.4-26.4-27.9-1.1-6.9-2.2-13.7-2.7-20.7-.5-6.6-.1-13.3-.1-19.9-.8-.1-1.5-.2-2.2-.3zm41-47.5c-3.9 6.5-8 10.2-8 13.8-.1 23.6.6 47.3 1.6 70.9.1 2.6 3.6 5 5.5 7.5 2.5-1.9 6-3.4 7.2-5.9 1.8-3.7 3-8.3 2.8-12.4-.6-20.5-1.4-41-2.8-61.5-.2-3.4-3.2-6.6-6.3-12.4zM331 451.3c-5.6 1.5-9 2.4-12.3 3.2-2.1 31.1-2.1 31.1-17.4 29.4 1.2-24.3 2.4-48.8 3.6-73.2 17.9-8.4 35.3-7.9 40.1 1.1 5.7 10.7 2.5 25.3-5.2 31.1 2.7 7.8 7.7 15 7.1 21.7-1.4 15.3 8.1 21.6 19.1 25.5 40.7 14.3 82.6 16.1 124.4 6 17.8-4.3 34.9-11.8 51.7-19.2 4.6-2 7.5-8.8 10.1-13.9 1-1.9-.1-6.5-1.8-7.8s-5.7-.9-8.2.2c-8.4 3.5-16.3 8-24.8 11.4-4.2 1.6-9 1.5-13.6 2.2-.5-1.5-1-3-1.4-4.5 13-8.2 25.9-16.6 39-24.6 10-6 19.4-1.7 23.8 6.5 3.4 6.3 3.9 17 .8 23.3-12.9 25.8-37.4 36.9-64 41.8-21.5 3.9-43.6 4.9-65.6 5.6-35.8 1.1-69.7-7.2-99.6-27.1-4.3-2.9-4.6-12.7-5.6-19.4-.9-6-.2-12-.2-19.3zm-10.2-9.8c12-4.3 10.8-12.4 10.2-19.8-.2-1.8-3.3-3.4-5.1-5.1-1.7 1.8-4.7 3.4-4.9 5.3-.6 5.9-.2 11.9-.2 19.6zM58.4 328.9c-2.2-6.4-2.5-9.3-4-11.1-2.9-3.5-6.3-6.7-10.1-9.2-.7-.4-6 3.5-6 5.4.1 4.8.4 11.1 3.4 14.2 5.1 5.4 11.9 10 18.8 13.1 17.8 7.9 30.5 26.9 27.6 43.3-4.2 23.7-19.3 36.2-42.9 37.1-24 .9-32.2-5.1-37.7-26.1-1.3-4.9 0-13.1 3.4-15.8 4.8-3.8 12.6-4.9 19.1-4.9 1.6 0 2.8 8.9 5 13.3 2.4 4.8 5.8 9 9.2 14.1 13.9-15.9 11.4-30-4.6-38.2-4.3-2.2-8.5-4.4-13-6.2C7.5 350 6.7 334.1 8 317.3c1.1-14.1 10.4-21.2 22.6-26 12-4.7 23.2-9.1 35.8-.4 9.7 6.7 18.1 18.7 12.9 27.7-3 5.3-12.9 6.7-20.9 10.3zm158.3-110.8v34.4c-3.9 2-7.3 3.9-10.8 5.6-6.6 3.1-10.5.7-10.7-6.2-.7-28.6-1.3-57.2-1.2-85.8 0-2.5 5.6-5.9 9.2-7.2 3.5-1.3 8-.1 11.8-.9 20.9-4.7 23.7-3.8 33.7 12.8 5.6 9.4 2.4 23.2-7.9 34-.6.6-1.1 1.4-2.2 2.9 12.1 5.7 13.1 16.4 12.7 28-.4 10.3 2.9 16.4 19.1 8.4-4 9-5.2 17.6-8.6 18.5-7.3 2.1-17.6 2.9-23.2-.8-4.9-3.4-7.7-13.9-6.8-20.8 1.9-16.2-1.5-23.5-15.1-22.9zm3.7-47.9l-4.5 3.3c.8 9.2 1.5 18.4 2.3 27.6 2.5.2 4.9.3 7.4.5 1.5-7 4.2-14.2 3.9-21.1-.2-3.6-5.9-6.8-9.1-10.3zM96.2 409.1c0-32.3-.8-62.7.4-93.1.5-12 11.8-7.8 21-8.5v35.8c5.6-1 9.6-1.8 13.4-2.5 0-11.1-.4-21.5.3-31.9.2-2.5 3.6-5.5 6.2-6.8 4.2-2.1 9.1-2.9 15.6-4.7v99.4c-5 .7-11.4 1.6-18.7 2.6-.7-13.7-1.5-27.6-2.3-42.5-10.5 2.2-16.6 2.4-12.8 13.8 2.8 8.4 2.3 18.7.4 27.6-2.5 12.2-13.9 8.1-23.5 10.8zm375.7-248.8V200c-4.6 1.1-10.3 2.4-16.8 3.9v-97.7c5-.6 10-1.2 16.8-2.1 5 12.7 10.1 25.9 15.3 39 .9-.2 1.9-.4 2.8-.7-1.1-11.1-2.1-22.2-3.3-33.3-1.5-14.4 9.3-10.3 18.9-12.6v95.7c-4.5 1-10.9 2.5-17.6 3.9-4.7-13-8.9-24.8-13.2-36.7-.9.4-1.9.6-2.9.9zm20.8 65c4.7 14.4 9.2 28.1 13.7 41.8 1.2-.1 2.5-.1 3.7-.2-.9-14.9-1.8-29.8-2.6-44.5 19-7.1 19-7.1 19 12v80.2c-3.4.6-9.1 1.6-16.2 2.9-5.8-14.1-11.7-28.3-17.7-42.5-.7.3-1.3.7-2 1v46.4c-3.8 1.1-8.3 2.4-13.9 4-1.2-21.8-2.5-42.7-3.6-63.6-.3-6.4-.1-12.7-.1-19.1 0-19 0-19 19.7-18.4zm-254.9 150c-1.4-31.4-2.7-62-4.1-94.3 9.1-1.7 19.4-3 29.3-5.8 14.8-4.2 21.7 3.2 26.5 15.5s2.2 23.3-7.6 30.8c-.6.5-.7 1.5-1.8 4 17.1 7.6 8.9 24.2 12.6 37.9-4.8 2.5-9.7 5.1-18.2 9.5-.8-7.3-1.5-12.8-1.9-18.4-.2-3.5 1.3-7.8-.3-10.4-2.3-4-6.6-6.8-10-10.1-1.9 3.4-4.8 6.7-5.5 10.3-.9 5.1-.2 10.6-.2 15.9-.1 17-.1 17-18.8 15.1zm19.3-58c12.7 2.4 13.7-4.1 13.6-14-.1-10.2-3.9-13.2-13.6-11.1v25.1zm-31.2 22.4c-2.3 12.3-4.1 24.8-7.2 36.9-2 7.9-19.5 15.3-30.6 12.7-10.2-2.4-20.3-5.7-19.9-19.9.6-19.5-.2-39.1.3-58.6.3-11.6 11.6-21.8 24.5-23.5 10.7-1.5 23.6 7.6 26.6 18.8 1.7 6.2 3.6 12.4 4.6 18.8.7 4.7.1 9.7.1 14.6.6.1 1.1.2 1.6.2zm-24.1-33.6c-11.4-.7-14.3 1-14.5 9.2-.5 15.6-.5 31.2.2 46.8.1 3 4.7 5.8 7.3 8.7 2.4-2.8 6.7-5.5 6.8-8.4.5-18.8.2-37.6.2-56.3zm241.7-143.6c0 6.9.3 13.7-.1 20.6-.6 13.5-19.1 28.6-34.3 28.3-11.5-.3-21.6-13.4-21.6-28.2 0-15.4-.6-30.8.1-46.1 1-20.8 21.2-33.9 40.5-25.7 12.3 5.3 13.1 18.6 15.2 29.9 1.3 6.8.2 14.1.2 21.2.1 0 .1 0 0 0zm-28.8-35.4c-12.1 8.7-12.4 48.5-.4 65.6 8.9-9.3 9.2-54.8.4-65.6zM429 346.5c10.2-2.7 18.5-4.9 26.8-7.1 2.4 19.7 2.4 19.5-15.2 23.7-10.8 2.6-21.5 5.9-33.5 9.2-1.3-8.6-3-15.4-3.1-22.2-.4-33-.3-66-.5-99 0-3.1-.1-6.2-.8-9.2-4.5-19.3-1.7-22.8 19.9-21.8 2.1 41.6 4.3 83.5 6.4 126.4z"/>
    <path class="color-black" d="M264.3 144.2c13.4-3.9 25.6-8.1 38.2-10.7 3.5-.7 10 2.1 11.7 5.2 3 5.5 1.5 10.2-6.7 12.2-22.3 5.3-22.2 5.7-20.6 23.9 7.9-1.5 15.7-3.1 24.5-4.8.8 4.3 1.7 9.1 2.9 15.6-5 2.1-10.3 5.9-15.9 6.5-11.6 1.3-11.2 9.6-12.3 17.5 6.2.8 12.3 2.1 18.5 2.1 3.7 0 7.5-1.8 11.2-2.8 4.7 18.7 2.3 21.7-15.6 24.3-10.2 1.4-20.2 4.8-33.6 8.1-4-32.7-.6-65-2.3-97.1zm99.1 42c-3.5-2.4-6.7-4.5-10.2-6.9.5-14 13.2-10.9 20.6-15 2 5.3 4.9 10.5 5.7 16 1.7 10.9 2.4 22.1 3.2 30.1-8.2 3.5-14.3 5.2-19.4 8.4-11.8 7.4-32.4 1-33.9-13-2.2-21-3.1-42.7 0-63.5 2.8-19 20.7-26.6 38.7-20.6 8.9 2.9 12.2 16.5 7.3 31.4h-14.2c0-2.2.4-4.3-.1-6.1-.9-3.2-2.3-6.2-3.4-9.3-3.4 1.9-9.5 3.5-9.8 5.8-1.6 12.6-2.1 25.4-2.4 38.1-.1 4.2.6 8.8 2.2 12.7 1.4 3.5 4.6 6.3 6.9 9.5 2.1-2.9 4.4-5.5 6.1-8.6 1.3-2.8 1.8-5.8 2.7-9zm175.5 29.3c15.8-4.2 31.5-8.4 47.4-12.6 2.8 17.2 2.8 17.2-25.2 26.2.3 5.9.7 12.1 1 18.8 9.3-1.9 16.6-3.5 25.1-5.2v16.2c-5.5 1.3-10.9 2.4-16.3 3.8-10.2 2.7-12 10.9-8.6 18.3 1.2 2.7 10.7 2.3 16.4 2.2 4.4-.1 8.7-2 13.3-3.1 3.6 13.1.6 20.4-12.2 22.1-3.4.5-6.7 1.7-10 2.5-27.1 6.5-26.7 6.5-27.3-21.4-.6-21.8-2.3-43.7-3.6-67.8zm-220 67.5c-7.5.8-12.5 1.4-17.7 2-5.3-17.9-.2-19.8 14.5-20.5 9.8-.5 19.4-4.7 29.2-6 4.1-.5 11.4 1.3 12.5 3.9 2.2 5.5 2.1 12.5-7.4 13.4-3.3.3-6.5 2.3-9.2 3.4v77.6s-.6.7-1.4.8c-19 3.3-19.6 3.3-20.3-16.2-.8-18.7-.2-37.5-.2-58.4zm119.4 48.1c0-24 .1-46.5-.1-69 0-4.3-1.2-8.7-.9-13 .3-4.5.4-10.4 3.2-12.9 3.2-3 10.5-5.3 13.7-3.6 3.3 1.7 5.1 8.6 5.3 13.3 1.2 25.5 1.9 50.9 2 76.4 0 2.9-4.8 7.1-8.3 8.4-3.9 1.6-8.7.4-14.9.4zm14.3 61.4c5.6-2.6 11.2-6.3 17.3-7.6 3.4-.7 10 1.5 11.2 4.1 2.8 6.4 6.5 15.6 3.9 20.4-3.7 6.6-.8 9.4.9 14.5 2.1 6.3 8.8 15.9-4.9 19.3-2.8-7.6-5.4-14.5-8.2-22-12 7.8 7 26-15.5 27.3-1.7-19.2-3.2-37.2-4.7-56zm121.6 2.8c-1.7-19-4.4-36.2-4.1-53.3.1-3.7 10.7-10 16.3-9.9 5.9.1 15.2 5.4 16.7 10.4 3.2 10.8 3.4 22.9 2.7 34.3-.3 4.2-6.1 9.2-10.6 11.7-5.9 3.2-12.9 4.3-21 6.8zm10.3-54.7v39.5c3.3-1.6 8.4-3 8.3-4.2-.5-11.3 4.6-23.8-8.3-35.3zm-93.2 53.9c3-6.9 4.2-15.7 9.3-20.4 9.1-8.4 21.4-2.9 23.2 9.6 1.6 11.7 3.1 23.7 2.2 35.4-.9 10.6-11.4 14.4-19.6 12.3-5.1-1.3-9.4-10.2-11.5-16.5-1.9-5.8-.4-12.7-.4-19.1-1.1-.5-2.1-.9-3.2-1.3zm21.1-14.5c-10.9 11.6-8.2 34.9 4.1 38.9-1.3-12.8-2.6-24.8-4.1-38.9zm22.1 34.5c0-17.4-.3-34.7.3-52.1.1-3.4 3.9-6.6 5.9-9.9 3.3 2.1 8 3.4 9.6 6.4 7.1 13.2 13.3 26.8 20.1 40.9-4.1 3-7.4 5.4-11.3 8.3-1.9-3.7-3.6-7-6-11.9-5.4 7.4-10.2 13.9-14.9 20.3-1.2-.6-2.5-1.3-3.7-2zm-141.2 56c-6.7-2.2-11.3-2.5-13.9-4.9-6.1-5.5-8.2-2.9-10.7 3.1-1.2 2.9-4.5 4.9-6.8 7.3l-5.1-2.4c3.4-18.8 6.6-37.7 10.5-56.5.3-1.7 5.1-3.5 7.6-3.2 1.8.2 4.1 3.5 4.7 5.9 4.4 15.6 8.5 31.2 13.7 50.7zm41-24.8c5.2-.6 10.3-1.2 15.6-1.8 4.3 9 4.3 9-26.6 16.9-1.2-16.9-2.8-33.8-3.4-50.7-.1-3.2 3.6-6.5 5.5-9.8 1.6.4 3.2.9 4.8 1.3 1.3 14.1 2.6 28.1 4.1 44.1zm-22.7-39.6c0 17.3.4 33-.3 48.6-.2 3.7-3.8 7.2-5.9 10.9-1.7-3.5-4.5-6.9-4.9-10.6-1.3-11.2.2-23-2.9-33.5-3.5-11.5 2.4-12.8 14-15.4z"/>
    <path fill="#fff" d="M148.4 164.5c3.1 5.8 6.2 8.9 6.4 12.3 1.3 20.5 2.2 41 2.8 61.5.1 4.2-1 8.7-2.8 12.4-1.2 2.5-4.7 4-7.2 5.9-1.9-2.5-5.4-4.9-5.5-7.5-1-23.6-1.6-47.3-1.6-70.9-.1-3.5 3.9-7.2 7.9-13.7zm172.4 277c0-7.7-.4-13.7.2-19.6.2-1.9 3.2-3.5 4.9-5.3 1.8 1.7 4.9 3.3 5.1 5.1.7 7.4 1.9 15.6-10.2 19.8zM220.4 170.2c3.2 3.4 8.9 6.7 9.1 10.3.3 7-2.4 14.1-3.9 21.1-2.5-.2-4.9-.3-7.4-.5-.8-9.2-1.5-18.4-2.3-27.6l4.5-3.3zm36.7 147.1v-25.1c9.8-2.1 13.5.9 13.6 11.1.1 9.9-.9 16.4-13.6 14zm-55.3-11.2c0 18.6.3 37.4-.3 56.2-.1 2.9-4.4 5.6-6.8 8.4-2.5-2.9-7.1-5.7-7.3-8.7-.7-15.6-.7-31.2-.2-46.8.3-8.1 3.2-9.8 14.6-9.1zm212.9-179c8.9 10.8 8.6 56.3-.4 65.6-12-17.1-11.7-56.9.4-65.6zm169.8 213.5c12.9 11.5 7.9 24 8.3 35.3 0 1.2-5 2.6-8.3 4.2v-39.5zM512.4 380c1.5 14.1 2.7 26.1 4.1 38.9-12.3-4-14.9-27.3-4.1-38.9z"/>
</svg>
