<svg xmlns="http://www.w3.org/2000/svg" width="1280pt" height="1280pt" version="1.0" viewBox="0 0 1280 1280">
    <circle class="color-main color-red" fill="#ff2a2a" stroke-linecap="round" stroke-width=".0075" cx="640" cy="640" r="640"/>
    <path fill="#fff" d="M635.894148 32.912936l-3.160166 5.266943 1.915252 3.255929c2.681353 4.309317 2.58559 4.596605-1.723727 2.20254l-3.63898-2.011015-4.979655 3.160166c-2.681353 1.723727-4.883893 3.63898-4.883893 4.309318.095762 1.340676 8.139822 6.320332 10.438124 6.320332.861864 0 2.489828-.670338 3.543217-1.43644 2.96864-2.298302 3.447454-1.627964 1.149151 1.915253-1.244914 1.81949-3.064403 3.351691-4.117792 3.543217-1.053389.191525-2.106777 1.14915-2.298303 2.20254-.191525 1.053388-1.149151 2.489827-2.106777 3.160166-1.053389.670338-1.81949 2.298302-1.81949 3.543216s-.478813 2.58559-1.053388 2.968641c-.574576.38305-.861864 1.915252-.574576 3.734742.287288 1.627964.095763 3.63898-.287288 4.40508-.574576.861864-.38305 2.106777.478813 3.447454.766101 1.149151 1.149151 2.777116.861864 3.543217-.287288.7661.38305 2.298302 1.436439 3.35169 1.149151 1.149152 2.011015 2.394066 2.011015 2.87288 0 .478812.670338 1.532201 1.436439 2.298302 1.244914 1.244914.957626 1.532202-1.915252 2.011015-2.011015.38305-4.309318 1.915252-6.22457 4.117792-2.777116 3.064403-3.064404 3.926267-2.58559 7.756771.287287 2.777116 1.244913 5.075419 2.872878 6.60762 2.20254 2.20254 2.20254 2.58559 1.053388 5.075419-1.532201 2.872878-.7661 6.320332 1.81949 8.42711 1.340677 1.14915 1.149151 5.937281-.287288 5.937281-1.340676 0-5.649994-11.204225-8.235584-21.546587-2.20254-8.618635-3.160166-11.108463-5.649994-13.59829-2.681353-2.681354-3.63898-3.064404-8.714398-3.064404-4.883893 0-6.128807.478813-9.480498 3.064403-2.106778 1.723727-5.554232 3.63898-7.661009 4.40508-10.821175 3.543217-20.110148 9.193211-27.86692 16.85422-9.001685 8.905922-13.789815 17.524557-16.279643 29.207596-3.830505 18.194896 2.20254 42.135548 15.80083 62.820272 3.734742 5.649994 4.883894 8.04406 4.40508 9.767786-.670338 2.681353.957627 4.979656 3.447455 4.979656 3.064403 0 8.714397 11.491513 10.916937 22.312688.38305 2.011015 1.244914 2.777116 3.351691 3.255929 1.627965.287288 3.160167.861863 3.447454 1.340676.574576 1.053389-3.638979 9.384736-8.81016 17.23727-6.128807 9.288973-6.799145 9.576261-6.799145 2.968641 0-11.204225-5.458469-20.588961-15.80083-27.100819-2.777116-1.723727-5.937283-3.830504-6.990671-4.78813-1.053389-.861864-3.255929-1.915252-4.883893-2.20254-3.63898-.766101-4.979656.574576-8.81016 9.001685-2.681354 6.033045-5.937282 10.2466-5.937282 7.756772 0-.670339.670338-1.915253 1.532201-2.681353.766101-.861864 1.244914-2.298303 1.05339-3.25593-.287289-.957625.38305-2.489827 1.340676-3.35169 2.489828-2.298303 2.298302-5.84152-.574576-8.42711-2.011015-1.915252-2.20254-2.489828-1.244914-3.543217 4.883893-5.266943 4.979656-12.736427.095763-17.907608-1.723727-1.81949-1.532202-3.543216.191525-2.106777 1.149151.957626 2.011015.957626 4.309317 0 1.532202-.670339 2.872879-1.532202 2.872879-2.011015 0-1.532202-4.78813-3.926267-6.799146-3.447454-1.627964.38305-1.81949.287288-.957626-.574576 1.340677-1.340676 1.340677-4.02203 0-6.60762-1.053388-1.915252-1.053388-1.915252-3.351691.287288-1.81949 1.723727-2.20254 2.872878-1.81949 4.596605.478813 2.011015.38305 2.20254-.861863 1.149152-1.244914-1.05339-2.106778-1.05339-4.40508-.095763-1.532202.670338-2.872879 1.532202-2.872879 1.915252 0 1.627965 3.926268 4.02203 5.745757 3.543217 2.298303-.574576 2.58559 1.053388.287288 1.915252-5.554231 1.915252-9.097448 11.970326-6.22457 17.23727.766101 1.244914.38305 1.915252-2.106777 3.064403-3.255929 1.627965-4.309318 5.266944-2.58559 8.522873.670338 1.244914.670338 2.106777-.095763 2.872878-.861864.861863-.861864 1.723727 0 3.447454.574575 1.340676.670338 2.681353.287288 2.96864-1.149152.670339-1.915253-1.627964-2.58559-7.948296-.957627-9.001685-2.011016-11.587276-5.45847-12.44914-1.81949-.574575-3.830504-.478812-4.883893 0-.957626.574576-4.78813 1.81949-8.618635 2.777117-20.20591 5.649994-29.111833 21.355062-24.036415 42.805886.766101 3.255929 2.298303 7.756772 3.447454 9.959312 1.053389 2.106777 1.723727 4.692368 1.532202 5.745756-.287288 1.053389 0 2.011015.7661 2.298303 1.43644.574576 4.692369 7.948296 3.830505 8.81016-1.149151 1.149151-17.23727-18.194896-20.58896-24.706753-2.681354-5.266944-3.830505-15.705068-3.830505-35.24064 0-27.196582-1.244914-32.080475-9.384736-36.67708-7.469484-4.213555-13.981341-9.193211-22.504213-17.045745-3.926267-3.63898-8.618635-7.373721-10.2466-8.235585-4.692368-2.489827-12.257614-2.011014-18.290658.957627-6.416095 3.35169-11.970326 4.883893-21.2593 6.128807-8.905922 1.244914-11.587275 2.489827-16.375406 7.756771-7.182196 7.948297-10.150837 18.960997-6.799145 24.898279 3.638979 6.320332.38305 12.449139-9.001686 17.23727-3.255928 1.627964-6.894908 4.500842-9.001685 6.99067-3.63898 4.500843-9.672024 7.37372-15.226255 7.37372-1.43644 0-2.681353.383051-2.681353.861864 0 1.149152 8.522872 4.692368 14.555917 5.937282 2.777115.574576 6.416095 1.915252 8.139822 2.872879 3.064403 1.915252 8.905922 7.852534 10.533887 10.916937 1.340676 2.394065 4.40508 1.149151 9.863548-3.926267 2.394066-2.298303 7.469484-5.649994 11.108463-7.469484 7.182196-3.543216 10.533887-7.277958 12.83219-14.460154.574576-2.106777 2.489828-6.22457 4.213555-9.097448 2.777116-4.979655 2.96864-5.745756 2.96864-15.609305v-10.2466h3.926268c6.703382 0 13.21524 2.585591 18.482183 7.27796 8.04406 7.182195 9.384736 10.438124 10.055075 23.844889.574575 12.353377 2.394065 21.355062 5.266943 27.196581 3.160166 6.033045 15.80083 22.40845 21.450825 27.48387 5.841519 5.362705 13.885578 10.916937 18.577946 12.736426l3.160166 1.244914-2.872878 3.351692c-1.627964 1.723727-2.872878 4.117792-2.872878 5.17118 0 1.149152-.957627 2.20254-2.394066 2.777116-1.340676.478813-2.872878 2.011015-3.543216 3.351692-.861864 1.915252-1.723727 2.394065-4.78813 2.394065-7.565247 0-18.194897 7.948297-21.833876 16.471169-7.086433 16.566931 1.053389 34.283014 19.05676 41.560973 2.20254.861863 4.213554 1.340676 4.500842 1.14915.191525-.287287-.095762-2.394064-.670338-4.78813-2.20254-8.044059.574576-11.683038 8.81016-11.587275 7.852534.095762 14.65168 5.075418 19.152522 13.885578 1.627964 3.160166 2.298303 3.734742 4.02203 3.255929 12.353376-3.447454 22.40845-2.681353 32.272 2.298302 4.979655 2.489828 15.896593 11.299988 15.03473 12.06609-.191526.287287-2.968642-.766102-6.033045-2.20254-7.852534-3.543217-18.290659-4.117793-28.728783-1.43644-18.386421 4.692368-35.815217 5.266944-44.433851 1.43644-5.45847-2.394066-6.99067-4.309318-7.182196-8.618636-.095763-4.117792-.957626-4.596605-6.128807-3.160166-6.511858 1.723727-8.235585 6.033045-5.266944 13.502528 3.255929 8.04406 15.226255 12.06609 32.942338 11.0127 11.874564-.670338 23.366077-2.489827 33.899964-5.266943 8.81016-2.298303 18.865234-2.58559 23.078789-.574576l2.872878 1.43644-3.351691-.766102c-1.81949-.38305-6.320332-.670338-10.055074-.574575-7.852534 0-11.970326 1.81949-19.248285 8.331347-2.58559 2.298302-5.649994 4.692368-6.799145 5.266943-3.064403 1.627965-7.852534 1.340677-12.544902-.7661l-4.117792-1.915253.574576 2.20254c4.213554 14.172867 12.449139 21.738113 23.653364 21.738113 5.649994 0 18.00337-3.255929 18.00337-4.78813 0-.478814-1.053388-1.627965-2.489827-2.489829-1.340677-.861863-3.064403-2.872878-3.830504-4.40508-1.81949-3.543216-.38305-6.894908 4.309317-10.055074 11.0127-7.469483 24.706753-2.96864 26.622006 8.522873.38305 2.777115 0 3.926267-2.489828 6.799145l-2.968641 3.351691 4.117792 1.627965c3.734742 1.436439 4.596605 1.436439 7.565246.191525 3.926267-1.627964 6.99067-7.086433 8.04406-14.555917.670338-4.596605 1.81949-6.60762 3.447454-5.649994.38305.287288.7661 3.63898.7661 7.373721 0 6.799145-2.20254 13.885579-4.692367 15.41778-1.915253 1.244914-.095763 2.489828 3.35169 2.489828 3.926268 0 6.894909-1.340676 9.193211-4.213555 2.394066-2.96864 3.160167-1.244914 3.160167 6.894908 0 8.905923-1.81949 12.161852-9.384736 16.47117-4.692368 2.681352-4.78813 2.777115-2.298303 3.35169 1.43644.383051 2.58559.957627 2.58559 1.340677 0 1.81949-5.458468 7.661009-10.055073 10.821175-4.309318 2.872878-4.979656 3.63898-3.830505 4.596605 1.149151.957626 1.053389 1.532202-.670338 3.926267-1.43644 1.915253-2.394065 2.489828-3.064404 1.81949-.478813-.478813-2.106777-.957626-3.543216-.957626-2.777116 0-5.649994 2.96864-5.649994 5.841519 0 1.149151-.670338 1.43644-2.298303 1.149151-3.351691-.670338-6.60762 2.872879-6.128807 6.511858.287288 2.106777 0 2.872878-1.340676 3.351691-.957627.287288-2.489828 1.532202-3.25593 2.777116-1.340676 2.011015-1.340676 2.681353-.095762 5.075418 1.149152 2.489828 1.149152 2.968641-.478813 4.883893-2.298302 2.968641-2.20254 5.362706.38305 7.948297 2.681354 2.681353 2.968642 9.57626.574576 13.789816-2.872878 4.979655-5.554231 13.789816-5.554231 18.099133 0 2.106777-.670338 4.78813-1.43644 5.84152-1.532201 2.106777-1.915251 1.14915-.478812-1.532202 1.340676-2.489828-.957626-4.117793-4.979656-3.351692-2.489828.478813-3.543217 1.43644-4.78813 4.213555-.957627 2.011015-1.723728 4.117792-1.723728 4.692368 0 1.627964-1.627964 1.436439-2.298302-.38305-.861864-2.106778-2.489828-.670339-2.58559 2.298302 0 1.43644-.287288 2.011015-.574576 1.340677-.766101-2.011015-2.20254-1.244914-2.20254 1.244914 0 1.723727-.38305 2.20254-1.43644 1.81949-1.723726-.67034-1.915252 1.723726-.287287 4.692367.957626 1.915252.957626 2.011015-.574576.7661-2.298303-1.915251-3.160166-.38305-1.340676 2.681354 1.436439 2.58559 1.436439 2.681353-.287288 2.298303-2.20254-.574576-2.298303.478813-.191526 2.777115 1.43644 1.627965 1.43644 1.723727-.574575 1.723727-1.723727 0-1.915252.287288-1.149152 1.81949.861864 1.532202.38305 2.20254-3.543216 4.692368-10.725412 6.894908-19.82286 8.81016-23.940653 4.883893-1.14915-1.053389-3.830504-5.266944-5.841519-9.288973-4.883893-9.672024-7.182196-11.970327-15.705068-15.896594-10.821175-4.883893-12.353377-8.42711-7.661009-17.62032 3.447454-6.799145 9.19321-11.7788 16.183881-13.98134 10.438125-3.25593 14.26863-10.2466 14.26863-25.951668v-8.618635l-5.362707-7.756771c-6.99067-10.150837-7.37372-12.353377-4.117792-25.28133 2.58559-10.342361 2.58559-10.438124 1.053389-16.854219-2.968641-11.970326-10.62965-20.588961-30.356748-34.378777-16.18388-11.39575-23.84489-17.716083-33.995726-28.345732-9.767786-10.342362-15.513543-20.205911-16.662694-28.728783l-.670339-5.171181-3.160166 5.458468c-1.723727 3.064404-3.255929 5.554232-3.447454 5.554232-.191525 0-2.489828-2.968641-5.17118-6.511858-13.119478-17.811845-21.738113-40.603346-25.472855-67.799928-1.915252-13.406765-3.63898-19.056759-6.99067-22.695738-7.565247-7.948297-18.003371 3.830504-22.69574 25.66438-5.075417 23.557601-3.543216 51.328758 4.02203 76.418562 3.734742 12.353377 1.915253 12.44914-6.99067.38305-9.288973-12.544901-19.918623-32.080474-27.771157-51.137233-1.915252-4.596605-4.213555-9.767786-5.266943-11.39575-4.309318-7.086434-11.108463-5.937283-15.992356 2.58559-13.885579 24.61099-11.587276 55.255026 6.320332 84.558384 3.926267 6.320333 4.02203 6.799146 4.02203 14.747442v8.139822l-2.489828-2.298303c-3.63898-3.35169-13.406766-16.088118-21.450825-27.962682-12.44914-18.482183-20.684724-25.66438-26.909293-23.46184-5.075419 1.723728-7.66101 13.789817-5.745757 26.622007 1.43644 9.19321 6.320332 23.749127 12.83219 38.113518 10.916937 24.22794 23.366077 41.273685 41.369447 56.595703l4.78813 4.117792-6.703382-3.543217c-3.638979-1.915252-10.150837-5.937281-14.364391-9.001685-7.948297-5.554231-28.63302-25.66438-42.614362-41.177922-9.57626-10.725413-14.460154-14.460154-18.769471-14.460154-3.734742 0-6.320333 3.064403-8.04406 9.384735-2.872878 11.0127 4.309318 32.846576 17.62032 53.339774 11.491514 17.716083 34.666065 42.5186 52.47791 56.49994 4.02203 3.160166 7.182197 5.84152 6.990671 6.033045-.7661.7661-16.471168-5.266944-26.81353-10.342362-14.077104-6.894908-24.22794-13.59829-39.26267-25.951668-23.07879-19.056759-32.559288-20.301673-32.367763-4.309317.38305 27.579632 45.008427 74.216023 90.878717 94.900746 8.81016 4.02203 9.19321 4.309318 5.84152 4.309318-14.460155 0-49.605033-11.491513-82.451608-27.100819-14.747442-6.894908-21.2593-8.139822-23.940652-4.40508-4.979656 7.086433 2.681353 25.185567 15.992356 37.921994 10.438124 9.959311 35.049115 25.855904 53.339773 34.570302 4.979656 2.394065 15.130493 6.416095 22.504214 8.905923l13.406765 4.596605-8.42711.095763c-20.014385.095762-39.837245-3.734742-67.12959-13.023715-20.397435-6.894908-23.940652-7.373721-27.483868-3.63898-8.42711 8.905923 5.649994 29.590647 30.356747 44.529614 6.22457 3.830505 8.905923 6.128807 9.001685 7.852534 0 .38305-.861863.287288-1.915252-.287288-1.532201-.861863-1.915252-.7661-1.915252.574576 0 .957626.670338 2.394065 1.532202 3.351691 1.436439 1.532202 1.340676 1.627965-.478813 1.149152-2.394065-.574576-2.58559.38305-.38305 2.777115.861863 1.053389 1.053388 1.723727.478812 1.723727-2.106777 0-1.14915 2.777116 1.532202 4.213555 2.394065 1.340677 2.489828 1.43644.478813 1.532202-3.160166 0-2.681353 1.81949.861864 3.351691 1.723727.766101 2.394065 1.340677 1.532201 1.43644-2.777115 0-2.872878 1.915252-.095762 2.96864 1.81949.670339 2.20254 1.244914 1.436439 1.723727-2.011015 1.149152 1.244914 3.255929 4.213555 2.681353 2.011015-.38305 2.20254-.191525 1.149151.766101-.670338.670339-5.937282 2.106778-11.587276 3.255929-15.705068 3.064404-20.684723 6.320332-19.344047 12.544902 1.340677 6.128807 14.364392 14.172866 29.973697 18.386421 5.84152 1.627964 10.62965 2.106777 22.887264 2.298303 12.161851.191525 15.992356.574575 17.716083 1.723727 1.149151.861863 2.96864 1.244914 4.309317.957626 1.627965-.478813 2.872878.191525 5.075418 2.489828 1.532202 1.723727 2.872879 3.447454 2.872879 3.830504 0 .957626-12.83219 8.331347-26.43048 15.130492-14.555917 7.277959-18.769472 11.395751-16.758457 16.279644 2.681353 6.511858 13.023715 9.672024 31.21861 9.672024 10.2466.095762 23.270315-1.81949 29.207597-4.117793 1.053388-.478813 2.872878 2.489828 7.277958 11.778801l5.84152 12.353377-3.160167 4.02203c-4.979656 6.320332-7.565246 12.257614-6.511857 15.226255 2.011014 5.554231 11.108462 6.22457 22.216925 1.723727l5.937282-2.489828.191525 2.58559c.095763 1.43644 0 4.40508-.095762 6.703383-.287288 4.692368 2.872878 12.066089 5.841519 13.694053 1.053388.574576 2.96864.861864 4.213555.574576 2.58559-.478813 4.596605 1.43644 5.55423 5.266944.287289 1.532201 1.149152 2.681353 1.723728 2.681353s.191525 1.053388-1.053389 2.298302c-1.149151 1.244914-2.298302 3.734742-2.681353 5.649994-.670338 4.500843 2.777116 8.331347 7.756772 8.331347 3.160166 0 3.255928.095763 3.926267 4.692368 1.14915 8.331347 7.182195 19.248285 17.045744 30.548273l3.63898 4.213555-6.416096 6.703382-6.416094 6.60762.574575 4.692368c.670338 5.649994 3.543217 11.587276 6.894908 14.172867 2.106778 1.723727 2.394065 2.489827 1.915252 5.266943-1.244914 6.60762 6.703383 17.907608 12.44914 17.907608 1.627964 0 2.394065.574576 2.394065 1.627965 0 .861863 3.447454 4.979655 7.661009 9.097448 6.033044 5.841519 8.331347 7.469483 10.533887 7.469483 2.20254 0 2.872878.478813 3.351691 2.872878 1.244914 5.745757 8.139822 8.235585 16.47117 5.84152l2.96864-.861864-.478813 3.255929c-.670338 3.926267 1.340676 6.703383 5.458469 7.565246l2.58559.574576-3.160166 3.160166c-4.213555 4.213555-4.40508 8.235584-.478813 12.161851 3.351691 3.351692 7.182196 3.63898 12.544902.861864l3.734742-1.915252-.478813 3.160166c-.766101 4.40508 2.872878 9.480498 7.661008 10.725412 8.235585 2.011015 15.03473-6.22457 11.395751-13.789816-.957626-1.915252-3.064403-4.117792-4.883893-4.979656l-3.160166-1.627964 3.447454-2.106777c6.416095-3.926267 7.661009-10.150837 3.160166-15.130493-2.20254-2.298302-8.04406-2.872878-11.299988-1.149151-1.532202.861863-1.723727.574576-1.244914-2.872878.574576-4.309318-1.43644-7.66101-4.692368-7.66101-2.394065 0-2.20254-1.14915.670338-3.830503 1.244914-1.244914 3.064404-4.02203 3.926267-6.320333 1.340677-3.638979 1.43644-4.40508.191526-6.894908-1.340677-2.58559-1.244914-2.96864.861863-5.362706 1.149151-1.436439 2.20254-3.638979 2.20254-4.78813 0-5.171181 6.320332-9.672024 21.546587-15.03473 16.279644-5.745757 43.2847-19.535573 54.871976-28.154207 5.554231-4.02203 5.937282-4.117793 6.894908-2.394066 3.447454 6.416095 1.340676 14.843205-4.596605 18.865234l-3.160167 2.106778 4.117793 1.053389c10.055074 2.777115 16.279643-1.244914 19.056759-12.161852l1.627964-6.511857 1.149152 4.309317c1.053388 3.543217.957626 5.266944-.191526 9.767786l-1.436439 5.554232h3.63898c11.299987 0 19.056759-10.055074 17.811845-23.366077l-.574576-5.84152 3.734742 3.926268c4.78813 5.17118 6.416095 10.438124 5.171181 16.758456-.861863 3.830505-.7661 4.692368.287288 4.692368 2.872878 0 9.097448-4.117792 11.7788-7.852534 6.416096-8.905922 6.22457-19.727097-.670337-32.463525-.191526-.38305 1.532201-.191525 3.926267.287288 9.959311 2.106778 17.62032-4.02203 20.014385-16.088118l.574576-2.968641-6.511858.478813c-6.033044.38305-6.60762.287288-8.139822-1.81949-1.915252-2.777115-2.011014-7.756771-.095762-11.39575 4.309317-8.42711 22.887264-10.821175 35.719453-4.692368 8.905923 4.309317 15.322018 16.758457 14.26863 27.675394-.766102 8.81016-7.469484 19.344047-14.077104 22.0254-4.500843 1.81949-12.353377.766101-14.460155-2.011014-2.489827-3.25593-2.20254-7.277959.670339-11.108463l2.394065-3.160166h-3.160166c-4.309318.095762-10.821175 3.160166-12.736427 6.128807-4.213555 6.416095-3.543217 14.65168 1.532202 17.716083l2.777115 1.723727-3.734742 2.011014c-4.979655 2.777116-9.288973 7.948297-10.533887 12.353377-1.436439 4.883893-1.340676 6.703383.478813 12.736427l1.532202 5.171181 1.244914-2.777115c2.58559-6.22457 8.618635-11.395751 17.907608-15.226255l3.447454-1.532202-.095763 4.213555c-.287287 5.937281 2.681354 9.097448 10.62965 11.491513 1.915252.670338 2.106778.478813 1.627965-1.532202-.766101-3.064403 2.394065-7.661009 7.852534-11.683038 2.489827-1.81949 4.692367-3.160166 4.78813-3.064404.574576.478813-2.394065 8.04406-6.033044 15.322018-6.320333 12.640664-16.47117 23.84489-27.100819 29.590646-11.491513 6.320332-35.527928 9.384736-46.349103 5.937282-9.384736-2.96864-14.65168-9.384736-12.736427-15.609305.670338-2.011015 4.309317-4.02203 7.277958-4.02203 2.777116 0 2.394065-1.053389-1.627964-4.979656-10.533887-10.055074-22.216926-8.522872-28.441496 3.734742-4.117792 8.139822-2.681353 17.62032 3.63898 23.940653l4.02203 4.02203-4.788131.574575c-36.772842 4.500843-54.776213 15.992356-61.862646 39.549958-1.723727 5.649994-2.011015 8.618635-1.723727 14.843204.574575 10.055074 3.160166 15.609306 10.821175 23.174552l5.745756 5.745757v7.182195c.095763 5.171181.574576 7.852534 1.81949 9.767787 3.160166 4.883893 5.937282 5.841519 17.811845 6.511857 12.161852.7661 14.65168 1.43644 18.194896 5.17118 1.915252 2.106778 2.394065 3.830505 2.681353 9.193212.191525 3.734741.766101 6.703382 1.149152 6.703382 1.436439 0 8.522872-5.745756 10.821175-8.81016 6.894907-9.288973 5.55423-19.344047-3.734742-29.399121l-5.171181-5.649994 2.011015-3.447454c1.723727-2.872878 2.011014-4.596605 1.627964-10.2466-.38305-6.416094-.574576-6.99067-3.830504-10.055073-3.25593-2.968641-6.416095-4.213555-14.077104-5.745757-3.064404-.670338-3.064404-.670338-2.489828 2.58559.478813 2.58559.095763 3.926267-1.43644 5.937282-1.723726 2.20254-2.777115 2.58559-6.703382 2.58559-3.543216 0-5.362706-.574575-7.277958-2.20254-2.298303-2.011014-2.58559-2.96864-2.58559-7.948296.095762-6.799145 2.394065-13.023715 6.033044-16.088118 2.489828-2.106778 3.734742-2.20254 18.38642-2.681354 8.522873-.287287 16.375407-.861863 17.333033-1.244913 1.43644-.574576 1.340677-.095763-.670338 2.872878-4.309317 6.320332-4.117792 13.21524.670338 21.833875 4.213555 7.661009 13.406766 9.863549 23.07879 5.649994l4.596605-2.106777-2.106778-3.351692c-5.841519-9.384736 4.40508-19.43981 33.995727-33.42115 7.277958-3.447455 16.85422-8.714398 21.355062-11.778802 10.916937-7.182196 23.366077-19.727097 30.356747-30.45251 7.086433-10.916937 7.182196-11.0127 6.703383-7.086433-.287288 1.81949-.957626 7.086433-1.532202 11.874564-2.20254 17.524557-8.235584 35.527928-15.705068 47.019441-5.554231 8.42711-15.226255 17.524558-22.983026 21.64235-16.758457 8.714398-24.419466 6.799145-24.419466-6.033044 0-4.883893 0-4.883893-2.58559-4.213555-4.979656 1.149151-12.257614 5.937282-15.03473 9.767786-4.883893 6.99067-4.500843 18.865234.7661 23.270314 1.340677 1.053389.574576 1.81949-5.745756 5.937282-12.257614 8.139822-18.482184 18.577946-20.493198 34.570302-2.58559 20.588961 7.277958 35.527929 25.568616 38.975383 7.277959 1.436439 12.927953.7661 19.535573-2.011015 7.661009-3.351692 11.0127-10.150837 8.618635-17.428795-2.58559-7.852534-8.235585-11.204226-15.41778-9.288973-3.926267 1.053388-3.926267 1.053388-2.489828 3.35169 2.106777 3.25593 1.915252 4.979657-.861864 6.799146-3.064403 2.011015-9.57626 1.340677-12.257614-1.340676-6.799145-6.799146.957626-25.185567 13.502528-32.080475l4.692368-2.58559.574576 6.60762c1.340676 16.279644 12.066089 23.84489 26.622005 18.769472 7.182196-2.58559 10.725413-6.990671 11.874564-15.226255.670338-4.02203.574576-4.596606-.7661-4.117793-.861864.287288-3.351692 1.053389-5.554232 1.627965-3.543217.957626-4.309318.861863-6.511858-.766101-2.106777-1.532202-2.489828-2.58559-2.489828-6.60762.095763-6.799146 3.734742-12.257614 13.694054-20.588961 4.596605-3.734742 11.874563-10.342362 16.18388-14.460155l7.852535-7.565246.478813 3.160166c.287288 1.81949.7661 6.128807 1.053388 9.576261.670339 8.139822 3.064404 17.333033 7.469484 28.24997 2.011015 4.78813 3.543217 9.480499 3.543217 10.2466 0 1.723727-3.351692 3.926267-4.692368 3.160166-1.915252-1.244914-7.852534 1.627964-11.587276 5.745756-4.883893 5.362707-7.852534 11.778801-11.0127 24.419466-1.43644 5.362706-3.160166 11.0127-3.926267 12.544902-1.915252 3.734742-5.554232 5.841519-10.150837 5.937282-5.17118.095762-7.756771 3.447454-7.852534 10.055074-.095763 5.554231 2.106777 9.19321 7.182196 11.874563 2.58559 1.340677 4.78813 1.627965 10.916937 1.244914 4.213555-.191525 8.81016-.670338 10.342362-1.053388 2.011015-.574576 2.58559-.38305 2.58559.861863 0 .861864 1.149152 2.777116 2.489829 4.117792 2.106777 2.106778 3.064403 2.394066 6.511857 1.915252 4.02203-.574575 4.02203-.574575 4.117792 2.58559.095763 3.926268 2.298303 8.235585 6.703383 13.119479 1.915252 2.106777 5.266944 7.277958 7.37372 11.39575l3.926268 7.565246 3.543217-6.894908c2.011014-3.830504 5.745756-9.480498 8.331347-12.449139 4.500842-5.458469 7.661008-12.83219 6.416094-14.938967-.478813-.670338.670339-.861864 3.447454-.478813 3.351692.478813 4.596606.191525 6.799146-1.532202 1.436439-1.149151 2.58559-2.96864 2.58559-4.02203 0-1.627964.38305-1.81949 2.681353-1.244913 1.43644.38305 6.033045.861863 10.2466 1.053388 9.001685.574576 12.927952-.957626 16.566931-6.320332 1.81949-2.681353 2.20254-4.213555 1.81949-7.565246-.670339-6.128807-3.351692-9.19321-8.139822-9.288973-4.596605-.095763-8.235585-2.20254-10.150837-5.937282-.670338-1.43644-2.681353-7.661009-4.309317-13.885579-3.447454-13.21524-6.511858-19.344047-12.257614-24.61099-3.63898-3.447454-5.937282-4.40508-9.576261-3.926267-1.915253.287287-5.075419-1.723727-5.075419-3.160167 0-.7661 1.81949-5.745756 3.926267-11.204225 3.830505-9.57626 6.894908-22.695738 8.139822-34.666065l.574576-5.649994 7.756771 7.565246c4.309318 4.213555 11.587276 10.725413 16.183881 14.460155 8.714398 7.182195 12.927953 12.927952 13.885579 18.769471 1.340676 8.139822-2.298303 11.204226-10.342362 8.81016l-4.692368-1.340676v4.309317c0 9.672024 8.235584 16.566932 19.82286 16.566932 11.0127 0 18.482184-8.905923 18.482184-21.929638 0-4.309317.670338-4.596605 4.883893-2.394065 4.883893 2.489828 10.438125 8.139822 13.119478 13.21524 3.351691 6.511857 3.638979 15.80083.574575 18.769472-2.777115 2.872878-9.001685 3.543216-12.257614 1.436439-2.872878-1.915253-3.064403-3.447454-.957626-6.60762 1.627965-2.681354 1.149151-3.160167-4.02203-3.926267-5.362706-.766101-9.863548 1.723727-12.544901 7.182195-5.362707 10.438125.095762 18.960997 13.98134 22.216926 3.926268.861863 6.511858.861863 11.68304 0 14.651678-2.489828 22.695738-9.863549 26.334717-24.036415 1.244914-5.075419 1.340676-7.565246.574576-14.364392-1.915253-16.279643-8.331348-27.196581-20.684724-35.336403-6.320333-4.117792-7.086433-4.883893-5.745757-5.937282 5.266944-4.500842 5.745757-16.18388.861864-23.078789-2.872879-4.02203-10.055074-8.81016-15.03473-9.959311-2.681353-.670338-2.681353-.670338-2.681353 4.213555 0 12.449139-7.469484 14.651679-23.07879 6.703382-19.152521-9.672023-32.750812-31.122848-38.592331-60.809257-1.723727-8.81016-3.351691-23.749127-2.489828-22.695739.38305.478814 3.160166 4.596606 6.320332 9.384736 6.99067 10.821175 19.43981 23.270314 30.165223 30.45251 4.596605 2.968641 14.077103 8.235585 21.163536 11.587276 19.918623 9.480498 28.441495 15.130492 33.421151 21.929638 3.255929 4.500842 3.447454 7.661009.861864 11.970326l-1.915253 3.160166 4.500843 2.011015c10.055074 4.40508 18.865234 1.915252 23.46184-6.60762 4.500842-8.42711 4.40508-16.85422-.38305-22.121163-2.011016-2.20254-2.011016-2.394065-.287289-1.723727 1.05339.478813 9.001686 1.053389 17.524558 1.340676 14.747442.478814 15.896593.574576 18.386421 2.777116 3.543217 2.968641 6.128807 9.863549 6.128807 16.375406 0 4.500843-.287288 5.554232-2.58559 7.469484-4.02203 3.447454-11.299988 3.255929-13.981341-.287288-1.627965-1.915252-1.915253-3.255929-1.43644-5.841519l.670339-3.255929-3.255929.670339c-10.438125 2.106777-14.077104 4.117792-16.662694 9.097448-2.011015 3.926267-1.81949 12.257614.478813 16.662694l1.81949 3.734741-5.171181 5.649994c-11.778801 12.736428-10.150837 26.909294 4.309317 36.485555 1.244914.957626 2.58559 1.627964 2.96864 1.627964.383051 0 .861864-2.96864 1.05339-6.703382.287287-5.362707.7661-7.086434 2.681353-9.193211 3.543216-3.734742 6.033044-4.40508 18.290658-5.171181 12.06609-.670338 14.65168-1.627964 17.811846-6.416095 1.244914-1.915252 1.723727-4.500843 1.723727-9.863549v-7.182195l5.841519-5.745757c7.565246-7.469484 10.2466-13.21524 10.725412-22.40845.957626-17.907609-7.756771-34.47454-22.887264-43.476226-7.948296-4.692368-20.876249-8.81016-33.612676-10.62965-5.554231-.861863-10.62965-1.532201-11.204225-1.532201-.574576 0 .670338-1.532202 2.681353-3.447454 8.522872-7.661009 8.81016-20.972012.670338-29.877934-4.500842-5.075419-12.066089-6.416095-18.099133-3.447454-3.064404 1.532201-10.2466 7.852534-10.2466 9.097448 0 .287287 1.723728.861863 3.830505 1.244913 4.596605.766101 6.320332 3.447454 5.362706 8.618635-.861863 4.309318-5.745756 8.42711-12.736427 10.62965-4.40508 1.43644-7.469483 1.627964-16.471169 1.149151-20.493198-.957626-32.367762-6.128807-44.721139-19.152522-5.745756-6.033044-8.139822-9.672023-12.353376-18.194896-2.872879-5.937281-5.45847-11.683038-5.745757-12.927952l-.574576-2.106777 3.160167 1.915252c5.745756 3.351691 9.672023 8.235584 9.767786 11.970326.095762 2.872878.38305 3.255929 2.011015 2.777116 7.756771-2.298303 11.587275-6.99067 10.438124-12.736427l-.670338-3.064404 4.213555 1.627965c8.618635 3.35169 18.099133 12.066088 18.099133 16.566931 0 3.160166 1.81949-.574576 2.96864-6.128807 1.915253-9.767786-1.340676-16.758457-10.342361-22.504213-4.02203-2.58559-4.02203-2.58559-1.723727-3.63898 1.244914-.574575 3.064403-2.489827 3.926267-4.117792 1.340676-2.681353 1.43644-3.830504.478813-8.044059-.670338-2.777116-2.106777-5.937282-3.255929-6.99067-2.872878-2.681354-8.522872-4.979656-12.257614-4.979656h-2.96864l2.489827 2.96864c3.255929 3.830505 3.351691 8.714398.095763 11.874564-1.81949 1.915253-3.255929 2.394066-7.182196 2.394066-6.033044 0-9.288973-1.627965-13.789816-6.799146-4.979656-5.937282-7.565246-13.406765-6.99067-20.58896 1.340676-18.194897 16.566931-29.30336 35.719453-26.238956 7.469484 1.244914 12.257614 3.734742 14.268629 7.661009 1.915252 3.638979 1.81949 8.618635-.095763 11.39575-1.532201 2.106778-2.106777 2.20254-8.235584 1.723727-5.937282-.478813-6.511858-.38305-6.128807 1.05339.287288.861863 1.053389 3.543216 1.723727 5.93728 1.532202 5.45847 6.99067 11.012701 11.587276 11.874565 1.81949.38305 5.17118.191525 7.37372-.287288 2.106778-.478813 3.734742-.574576 3.63898-.287288-2.777116 5.17118-4.78813 10.62965-5.266944 14.460154-1.149151 9.767786 3.63898 20.20591 11.108463 24.036415 6.033045 3.064404 6.60762 2.681353 5.458469-2.777116-1.244914-6.320332.38305-11.587275 5.17118-16.758456l3.734743-3.926267-.574576 4.883893c-1.532202 13.502528 6.416095 24.323703 18.00337 24.323703 3.351692 0 3.830505-.191526 3.25593-1.627965-1.627965-3.926267-2.298303-8.618635-1.723728-11.7788.957626-5.554232 1.915253-6.416096 2.58559-2.298303 1.244915 6.416095 4.02203 11.587275 7.182197 13.21524 2.96864 1.627964 5.649994 1.915252 14.460154 1.532202 8.331347-.287288 20.397436 4.78813 33.325388 13.885578 4.117792 2.968641 8.905923 5.171181 15.322018 7.182196 6.99067 2.20254 10.533887 3.830504 14.077103 6.799145 7.948297 6.60762 9.480499 7.086433 19.152522 6.799145 14.364392-.478813 17.907608-.478813 25.089804.287288 6.22457.670339 7.373721.478813 11.970326-1.723727 3.351692-1.532201 7.469484-2.58559 12.257614-2.96864 7.66101-.574576 15.322018-2.681354 19.152522-5.362707 1.340677-.957626 4.213555-2.011015 6.511858-2.394065 5.17118-.861864 9.959311-4.883893 13.789816-11.683038 3.064403-5.45847 5.841519-8.522873 12.161851-13.502528 5.362706-4.309318 7.756772-9.288974 7.756772-15.992356 0-4.78813-.38305-5.745757-2.872879-8.331347l-2.96864-2.872879 2.20254-6.416095c1.14915-3.447454 2.681352-7.277958 3.447453-8.42711.861864-1.436438 1.149152-3.255928.766101-5.266943-.38305-1.723727-1.053388-6.320332-1.532202-10.150836-1.14915-9.480499-4.213554-18.099134-8.905922-25.185567-2.20254-3.255929-4.309318-6.416095-4.692368-6.99067-4.78813-7.373721-27.100819-44.625377-29.399121-49.12622l-2.968641-5.937281 2.394065-2.394065 2.298303-2.298303 6.703382 7.756771c15.513543 18.003371 34.761828 31.410136 55.925365 38.87962 11.683038 4.117792 18.290658 3.830504 20.876249-.957626 2.394065-4.596605-.957627-10.150837-19.05676-31.793187-6.033044-7.182195-13.885578-16.949982-17.62032-21.929637-6.99067-9.288973-18.960997-27.005056-18.960997-28.058445 0-.287288 2.968641 2.106777 6.703383 5.362706 17.907608 16.088119 39.166907 28.345733 57.936379 33.421151 15.03473 4.213555 41.369447 3.543217 49.030456-1.149151 3.543217-2.106778 6.99067-6.128807 6.99067-8.04406 0-3.35169-6.416094-8.139821-21.259299-15.896593-18.194896-9.480498-30.931323-17.333032-44.529613-27.483869-9.576261-7.086433-12.544902-10.150837-7.182196-7.37372 4.500843 2.298302 23.270314 8.331346 32.272 10.246598 13.311002 2.968641 33.133863 3.447454 44.529613 1.05339 16.662694-3.447455 30.06946-10.342363 33.995727-17.620321 3.926267-7.373721-1.244914-11.0127-21.2593-14.747442-30.548272-5.745757-49.988082-10.725412-62.054171-16.088119-2.777116-1.244913-2.777116-1.244913 3.830504-1.915252 37.347418-3.830504 67.416878-16.375406 87.143975-36.485554 11.778801-12.066089 15.609306-22.791501 10.055074-28.728783-2.20254-2.394065-2.872878-2.58559-7.661008-2.106778-2.872879.287288-10.62965 2.489828-17.23727 4.883894-23.749127 8.905922-42.710124 12.83219-64.160949 13.59829l-13.885578.478813 13.406765-4.692368c7.373721-2.58559 17.524558-6.60762 22.504213-8.905922 17.333033-8.235585 42.997412-24.802516 52.860961-34.187252 13.59829-12.927953 21.450825-31.218611 16.47117-38.400807-2.681354-3.734742-9.193211-2.489828-23.940653 4.40508-32.942338 15.609306-70.76857 27.86692-82.643133 26.909294-3.351691-.287288-3.255929-.38305 3.351692-2.968641 18.290658-7.182196 42.997411-24.132178 60.713494-41.84826 15.992356-15.896594 25.377092-28.824546 30.356748-42.039787 2.96864-7.852534 3.351691-16.949982.861863-20.684723-1.532202-2.394066-2.106777-2.58559-6.320332-2.20254-5.649994.574575-11.108463 3.926267-24.419466 14.938967-18.865234 15.80083-39.837245 28.058445-58.31943 34.187252-4.117791 1.340676-7.661008 2.394065-7.75677 2.20254-.191526-.191526 2.96864-2.872879 6.99067-6.033045 4.02203-3.160166 12.83219-11.108463 19.631335-17.716083 24.515228-23.653364 40.890634-47.594017 48.07283-69.906705 4.596606-14.65168 3.255929-28.058445-3.255928-31.21861-4.117793-2.106778-7.66101.191524-18.769472 11.874563-22.983026 24.036415-35.815216 36.581317-43.188937 42.039786-7.948297 5.841519-20.301673 13.21524-21.067774 12.544901-.191526-.191525 2.681353-2.872878 6.320332-5.937281 17.141507-14.077104 33.516913-39.454196 44.43385-68.757554 4.883894-13.119478 6.607621-20.972012 6.703384-30.931323.191525-12.736427-2.394066-18.67371-8.139822-18.67371-6.416095 0-13.21524 6.511858-24.802516 23.653365-8.04406 11.874564-17.811846 24.610991-21.450825 27.962682l-2.489828 2.298303v-8.139822c0-7.948296.095763-8.42711 4.02203-14.747442 9.863549-16.088118 15.226255-33.42115 15.226255-49.030456 0-10.821175-.957626-16.566932-4.309318-25.377092-5.266943-13.885578-10.62965-19.43981-16.375406-16.758456-3.064403 1.340676-5.075418 4.692368-9.480498 15.41778-11.683039 28.441495-33.133863 63.203322-36.772842 59.564343-.287288-.287288.670338-4.213555 2.011014-8.81016 9.288973-30.45251 9.288973-65.597388.095763-89.633803-3.255929-8.42711-9.19321-15.03473-13.502528-15.03473-6.320332 0-10.342362 8.42711-12.257614 25.377092-1.81949 16.471169-7.948297 36.868605-15.322018 51.137234-3.830504 7.37372-14.172866 23.078789-15.322017 23.078789-.191526 0-1.723727-2.489828-3.447454-5.554232l-3.160166-5.458468-.670339 4.883893c-2.20254 16.85422-18.194896 34.47454-54.967738 60.426207-10.821175 7.565246-20.20591 17.141507-23.270314 23.366077-1.149151 2.298302-2.489828 6.511857-3.160166 9.384735-.957626 4.692368-.861864 6.320333 1.532202 15.80083 3.064403 12.44914 2.681353 15.800832-2.968641 23.174553-6.60762 8.618634-7.373721 11.0127-6.799146 20.301673.957626 14.938967 4.40508 20.588961 14.460154 23.749127 6.990671 2.20254 13.023715 7.373721 16.279644 13.981341 4.692368 9.288973 3.160166 12.544902-8.522872 18.099134-8.618635 4.02203-9.959312 5.362706-14.843205 15.226255-1.723727 3.447453-4.213555 7.37372-5.554231 8.81016-4.40508 4.78813-12.353377 3.255928-25.185567-4.596606-4.883893-3.064403-5.362706-3.638979-4.117792-4.883893 1.723727-1.723727.861864-3.255929-1.340676-2.489828-1.532202.574576-1.532202.478813.095762-1.340676 2.106778-2.489828 2.106778-3.543217-.287288-2.872878-1.723726.478813-1.723726.287287-.38305-1.81949 1.627964-2.394065 1.053389-4.40508-.957626-3.63898-.861864.287289-1.053389-.287287-.7661-2.489827.38305-2.394065.095762-2.777116-1.149152-2.298303-1.149152.478813-1.43644.191525-.957626-.861863.861863-2.394065-.478813-3.830505-2.298303-2.394065-1.244914 1.053388-1.43644 1.053388-.957626-.287288.287288-.861864.191525-2.106778-.287288-2.872879-.7661-1.14915-1.149151-1.053388-2.20254.38305-1.340676 1.723728-1.43644 1.723728-1.723727-.38305-.38305-2.777115-2.681353-3.638979-2.681353-1.053388 0 1.149151-.670338 2.58559-1.43644 3.447454-.7661.7661-1.436438 1.81949-1.436438 2.298302 0 .38305-1.053389 1.81949-2.298303 2.968641-2.489828 2.298303-2.872878 6.416095-.861863 8.905923.861863.957626.861863 1.723727.191525 2.394065-1.340677 1.340677-4.692368.478813-4.692368-1.244914 0-.670338-.574576-1.627964-1.340677-2.011015-1.627964-.957626-2.106777-3.064403-1.053388-5.362706.574575-1.340676.957626-1.532201 1.532201-.574575.574576 1.053388 1.244914.7661 3.064404-.861864 2.394065-2.298303 2.872878-7.469483.861863-8.714397-.7661-.478813-.478813-1.149152.766101-2.298303 1.053389-.861864 1.627965-2.20254 1.340677-3.064404-.38305-.7661-.191525-1.436439.38305-1.436439.478813 0 1.149152 1.244914 1.532202 2.872879.478813 2.681353 2.489828 4.117792 2.489828 1.81949 0-.67034.7661-1.723728 1.723727-2.394066.957626-.7661 1.149151-1.244914.478813-1.340677-.670338 0-1.244914-.574575-1.244914-1.340676 0-1.627965-6.60762-2.777116-8.139822-1.532202-.861863.766101-1.340676-.287288-1.723727-3.830504-.287288-2.681353-2.011015-7.756772-3.638979-11.299988-3.926267-8.139822-4.309317-14.843205-1.053389-18.099134 2.58559-2.58559 2.681353-4.213554.38305-7.086433-1.627964-1.915252-1.627964-2.394065-.478812-4.883893 1.244914-2.489828 1.244914-3.064403-.191526-5.266943-.861863-1.340677-2.394065-2.58559-3.255928-2.872879-1.244914-.287287-1.532202-1.149151-1.244914-3.255928.574575-3.63898-2.011015-6.60762-5.649994-6.60762-2.011015 0-2.681353-.478814-2.968641-2.011015-.191525-1.149152-1.340677-2.968641-2.777116-3.926267-1.915252-1.532202-2.872878-1.627965-5.075418-.766101-2.298303.861863-2.872878.670338-4.40508-1.149152-1.532202-1.81949-1.627965-2.394065-.478813-3.543216 1.053388-1.053389.478813-1.915252-4.117792-4.979656-6.511858-4.309317-10.916938-10.150836-8.714398-11.491513.7661-.478813 2.011015-.861863 2.777116-.861863.7661 0-.766101-1.340677-3.543217-2.872879-7.565246-4.309317-9.384736-7.565246-9.384736-16.471169 0-8.139822.766101-9.863549 3.160166-6.894908 2.106778 2.681353 5.171181 4.213555 8.522873 4.213555 3.447454 0 5.745756-1.340676 4.117792-2.394065-2.58559-1.627964-4.78813-8.618635-4.78813-15.513543 0-3.734742.38305-7.086433.7661-7.37372 1.627965-.957627 2.777116 1.053388 3.447454 5.649993 1.053389 7.469484 4.117793 12.927953 8.04406 14.555917 2.96864 1.244914 3.830504 1.244914 7.565246-.191525 2.20254-.861864 4.117792-1.723727 4.117792-1.915253 0-.191525-1.244914-1.627964-2.872878-3.160166-3.064404-3.160166-3.447454-5.17118-1.81949-9.480498 3.63898-9.672024 15.992356-12.353377 25.855905-5.745757 4.692368 3.160166 6.128807 6.511858 4.309317 10.055074-.7661 1.532202-2.489828 3.543217-3.830504 4.40508-1.43644.861864-2.489828 1.915253-2.489828 2.394066 0 1.340676 12.257614 4.883893 17.045745 4.883893 10.150836 0 16.566931-4.117792 21.163536-13.694053 1.532202-3.25593 3.064404-6.894908 3.447454-8.04406l.574576-2.20254-4.117792 1.915253c-4.692368 2.106777-9.480499 2.394065-12.544902.7661-1.149151-.574575-4.213555-2.96864-6.799145-5.266943-7.469484-6.703383-11.395751-8.331347-19.727098-8.42711-3.926267 0-8.42711.38305-10.055074.766101-2.298303.670338-2.58559.574576-1.723727-.38305.670338-.670339 4.596605-1.340677 8.714397-1.627965 6.033045-.287288 9.576261.095763 17.524558 2.106778 37.538943 9.384735 63.682136 5.649994 66.555014-9.384736 1.149151-6.416095-1.532202-9.480499-9.097448-10.725412-4.117792-.670339-4.213555-.574576-3.63898 1.532201 1.05339 4.02203-1.723726 8.522873-6.703382 10.821175-4.02203 1.81949-6.128807 2.106778-17.524558 2.106778-10.725412-.095763-14.747441-.478813-23.653364-2.681353-13.023715-3.160167-21.163537-3.351692-29.303359-.574576-3.255929 1.053389-6.511857 2.489828-7.182196 2.96864-.670338.574576-1.436439.861864-1.723727.574576-.861863-.957626 10.150837-10.055074 15.322018-12.544901 7.565246-3.734742 16.471169-5.075419 23.84489-3.734742 3.255929.670338 6.799145 1.436439 7.948297 1.723727 1.723727.478813 2.489827-.38305 4.979655-4.692368 3.926267-6.894908 8.81016-10.916938 15.130493-12.161852 4.02203-.861863 5.649994-.7661 8.42711.38305 4.117792 1.723728 5.17118 4.883894 3.543216 10.916938-.574576 2.394066-.861864 4.500843-.670338 4.78813.7661.766102 6.416095-1.819489 11.970326-5.362705 12.927952-8.522873 17.524558-23.46184 11.587276-37.347418-3.63898-8.522872-14.26863-16.47117-21.833875-16.47117-3.064404 0-3.926267-.478812-4.78813-2.394064-.67034-1.340677-2.20254-2.872879-3.543217-3.351692-1.43644-.574575-2.394066-1.627964-2.394066-2.777115 0-1.05339-1.244914-3.447454-2.872878-5.171181l-2.872878-3.351692 2.96864-1.149151c4.788131-2.011015 13.406766-7.948297 19.152523-13.21524 5.17118-4.78813 18.290658-21.738113 21.355062-27.675394 2.681353-5.266944 4.40508-14.65168 5.075418-27.005056.574576-11.683039.670338-11.874564 4.213555-17.333033 5.745756-8.522872 14.555917-13.406765 24.22794-13.406765h3.926267v9.767786c0 9.19321.191525 10.2466 2.968641 15.609305 1.627964 3.160166 3.543217 7.469484 4.213555 9.576261 2.298303 6.99067 5.554231 10.821175 11.970326 13.789816 3.255929 1.532202 8.42711 4.979656 11.491513 7.661009 6.60762 5.745757 9.001686 6.799145 10.342362 4.309317 2.298303-4.309317 11.108463-11.7788 15.226255-12.83219 9.097448-2.298302 14.460154-4.213554 16.375407-5.841519l2.106777-1.723726-2.489828-.095763c-1.340676 0-4.596605-.670338-7.37372-1.43644-3.734743-1.14915-5.745757-2.489827-8.42711-5.745756-2.011015-2.489828-5.937282-5.649994-9.193211-7.37372-9.480499-5.07542-12.544902-10.725413-8.905923-17.045745 6.128807-10.821175-8.04406-32.463525-21.2593-32.559288-5.17118-.095762-15.896593-2.872878-22.504213-5.937282-7.756771-3.543216-13.789815-3.926267-18.960996-1.244914-1.81949.957627-6.799146 4.979656-11.0127 8.905923-6.320333 5.84152-15.992356 12.927953-25.760143 18.865234-3.734741 2.20254-4.692368 8.522873-5.458468 34.953353-.670339 26.143193-1.244914 30.06946-5.171181 36.868605-3.63898 6.320332-18.290659 23.270314-19.248285 22.216925-.7661-.7661 2.011015-7.565246 3.543217-8.42711.957626-.478812 1.436439-1.532201 1.244914-2.489827-.287288-.957626.574575-4.117792 1.915252-7.086433 10.150836-23.07879 2.20254-44.625377-18.865234-50.658421-3.734742-1.149151-8.139822-2.58559-9.767787-3.255929-1.915252-.7661-3.926267-.957626-5.937281-.38305-3.447454.861863-4.500843 3.447454-5.45847 12.44914-.670338 6.320331-1.436438 8.618634-2.58559 7.948296-.38305-.287288-.287288-1.627965.287288-2.968641.861864-1.723727.861864-2.58559 0-3.447454-.7661-.766101-.7661-1.627964-.095762-2.872878 1.723726-3.25593.670338-6.894908-2.585591-8.522873-2.489828-1.149151-2.872878-1.81949-2.106777-3.064403 2.872878-5.266944-.670339-15.322018-6.128807-17.23727-2.394066-.861864-2.106778-2.489828.191525-1.915252 1.81949.478813 5.745756-1.915252 5.745756-3.543217 0-.38305-1.340676-1.244914-2.872878-1.915252-2.298303-.957626-3.160166-.957626-4.40508.095763-1.244914 1.053388-1.340677.861863-.861863-1.149152.38305-1.723727 0-2.872878-1.81949-4.596605-2.298303-2.20254-2.298303-2.20254-3.351691-.287288-1.340677 2.58559-1.340677 5.266944 0 6.60762.861863.861864.670338 1.053389-.861864.670339-1.81949-.574576-6.894908 2.011014-6.894908 3.447454 0 .38305 1.340677 1.244913 2.872878 1.915252 2.298303.957626 3.160167.957626 4.309318 0 1.723727-1.43644 1.915252.287288.287288 2.106777-4.979656 5.171181-4.883893 12.640665 0 17.907608.957626 1.053389.7661 1.627965-1.244914 3.543217-2.872878 2.58559-3.064404 6.128807-.574576 8.42711.957626.861863 1.627965 2.394065 1.340677 3.35169-.191525.957627.287288 2.394066 1.053388 3.25593 1.627965 1.627964 2.011015 3.543216.670339 3.543216-.478813 0-2.394066-3.351691-4.40508-7.469483-4.78813-9.767787-5.84152-10.916938-9.480499-10.150837-1.627964.287288-3.830504 1.340676-4.883893 2.20254-1.053389.957626-4.213555 3.064403-6.99067 4.78813-10.342362 6.511858-15.800831 15.896594-15.800831 27.100819 0 3.064404-.095763 5.554231-.191525 5.554231-.191525 0-2.011015-2.394065-4.213555-5.266943-4.979656-6.60762-11.874564-19.248285-11.204225-20.397436.287287-.478813 1.81949-1.149151 3.447453-1.43644 2.106778-.478812 2.968641-1.244913 3.351692-3.255928 1.915252-9.672024 8.139822-22.312688 11.108463-22.312688 2.298302 0 3.926267-2.394065 3.255928-4.979656-.478813-1.723727.670339-4.117792 4.40508-9.767786 9.767787-14.938967 15.896594-31.88895 16.758457-47.019442 1.723727-27.675394-14.268629-50.466895-43.188937-61.28807-3.63898-1.340676-8.139822-3.734742-10.055074-5.266943-2.872878-2.298303-4.309317-2.777116-9.097448-2.777116-4.979656 0-5.937282.38305-8.618635 3.064403-2.489828 2.489828-3.447454 4.979656-5.554231 13.502528-2.58559 10.342362-6.99067 21.64235-8.331347 21.64235-1.627965 0-1.627965-4.78813.095762-6.22457 2.489828-2.298302 3.064404-6.033044 1.43644-8.618634-1.340677-2.011015-1.244914-2.298303.861863-4.309318 2.58559-2.394065 3.926267-7.277958 2.96864-10.821175-.7661-3.351691-5.17118-7.277958-8.81016-7.948296-2.777115-.478813-3.064403-.766101-1.819489-2.011015.766101-.766101 1.43644-1.81949 1.43644-2.298303 0-.478813.861863-1.723727 2.011014-2.872878 1.053389-1.053389 1.723727-2.58559 1.43644-3.447454-.287289-.7661.095762-2.298303.861863-3.351691.957626-1.43644 1.053388-2.489828.38305-3.830505-.574575-1.149151-.574575-2.298302 0-3.543216.670338-1.244914.574576-2.298303-.38305-3.543217-.766101-1.053389-1.43644-2.777116-1.43644-3.926267 0-1.149151-.7661-2.681353-1.819489-3.351691-.957626-.670339-1.915252-2.106778-2.106777-3.160166-.191526-1.05339-1.244914-2.011015-2.298303-2.20254-1.053389-.191526-2.872878-1.723727-4.117792-3.543217-2.298303-3.543217-1.81949-4.213555 1.149151-1.915252 1.053389.7661 2.681353 1.436439 3.543217 1.436439 2.298302 0 10.342361-4.979656 10.438124-6.320332 0-.670339-2.20254-2.58559-4.883893-4.309318l-4.979656-3.160166-3.638979 2.011015c-2.106777 1.149151-3.734742 1.915252-3.734742 1.723727 0-.191525.861864-1.915252 2.011015-3.830505l2.011015-3.35169-3.160166-5.266944c-1.723727-2.872879-3.63898-5.266944-4.213555-5.266944-.574576 0-2.394065 2.394065-4.117792 5.266944zm37.538943 232.511617c13.21524 21.546587 36.102504 44.242325 54.68045 54.105874l4.78813 2.58559-8.714397.287289c-10.150837.287287-20.110148-1.532202-27.86692-5.075419l-5.266943-2.394065.670338 4.596605c1.05339 7.182196 4.979656 15.03473 10.150837 19.82286 2.489828 2.394066 5.075418 4.309318 5.649994 4.309318 2.106777 0 .7661 1.627964-2.394065 2.681353-1.915252.766101-5.458469 3.734742-8.618635 7.373721-5.84152 6.60762-9.767786 8.618635-15.41778 7.948297-4.02203-.478813-4.117793.574575-.861864 7.756771l2.489828 5.266944-2.394065 1.915252c-1.244914 1.149151-3.734742 4.40508-5.458469 7.277958-5.362706 9.19321-9.001685 11.587276-12.161851 8.42711-.957627-.957626-1.43644-.957626-2.106778.191525-1.81949 2.777116-.957626 6.60762 2.106778 10.055074 2.96864 3.447454 2.96864 3.543217 1.436439 6.128807-.861864 1.532202-3.064404 6.22457-4.883893 10.533887-4.02203 9.576261-7.182196 13.789816-12.640665 17.333033l-4.213555 2.58559 3.351692 2.298303c3.638979 2.489828 4.02203 4.117792 2.011014 9.001685-1.627964 3.830505-6.128807 10.055074-7.37372 10.055074-1.43644 0-5.84152-5.17118-7.66101-9.097448-2.58559-5.554231-2.298302-7.37372 1.532202-9.959311l3.351692-2.298303-4.309318-2.681353c-5.075418-3.255929-9.288973-8.81016-11.970326-15.80083-1.053389-2.872879-2.96864-7.373722-4.309317-10.055075l-2.489828-4.78813 2.96864-3.447454c2.394066-2.681353 2.872879-4.02203 2.681354-6.799145-.191526-2.58559-.670339-3.447454-1.723727-3.160167-6.703383 1.723727-7.565246 1.149152-13.023715-8.235584-2.106778-3.447454-4.692368-6.99067-5.937282-7.948297l-2.20254-1.723727 1.915252-3.734741c1.149151-2.011015 2.20254-4.979656 2.58559-6.60762.574576-2.872879.478814-2.872879-2.777115-2.489828-5.745757.670338-9.672024-1.340677-15.513543-7.948297-3.160166-3.63898-6.703383-6.60762-8.618635-7.37372-3.734742-1.340677-4.213555-2.298304-1.532202-3.160167 1.05339-.287288 4.117793-2.968641 6.703383-5.84152 3.63898-3.926266 5.362706-6.894907 6.799145-11.587275 2.298303-7.277958 2.58559-11.587276.670339-10.055074-.670339.574576-4.596606 2.20254-8.81016 3.63898-6.22457 2.106776-9.959312 2.681352-19.631336 2.96864l-11.970326.478813 8.522873-5.362706c11.683038-7.373721 18.769471-13.21524 28.920308-23.749127 9.001685-9.288974 16.758457-19.248285 22.599976-29.016071l3.447454-5.745757 29.494884.095763h29.39912zM521.362066 552.520857c.287288.574576 2.011015.861864 3.830505.670339 2.58559-.287288 3.255928 0 3.638979 1.723727.670338 2.489828.095762 4.40508-2.968641 9.19321-2.20254 3.63898-2.20254 3.63898-4.117792 1.723727-1.05339-1.053389-1.915253-2.58559-1.915253-3.351691 0-.766101-.670338-1.43644-1.436439-1.43644-.7661 0-1.436439.574576-1.436439 1.340677 0 .766101-.478813 1.723727-1.149151 2.106778-1.43644.861863-.574576-4.596606 1.532202-9.480499 1.436439-3.543216 2.777115-4.40508 4.02203-2.489828zm241.321777 2.489828c.861864 1.915252 1.723727 4.979656 2.011015 6.703383.478813 2.681353.287288 3.064403-1.053389 2.58559-.861863-.287287-1.532201-1.14915-1.532201-1.915252 0-.7661-.670339-1.340676-1.43644-1.340676-.7661 0-1.436439.7661-1.436439 1.723727 0 .861863-.861863 2.20254-1.915252 2.872878-1.723727 1.053389-2.106777.7661-4.309317-3.63898-3.255929-6.320331-2.58559-9.288972 1.81949-8.81016 1.819489.191526 3.543216-.095762 3.830504-.670338 1.244914-1.915252 2.58559-1.053388 4.02203 2.489828zM500.19853 568.800501c-.478813 1.340677-.095762 2.394065 1.05339 3.255929 1.340676.957626 1.5322 1.532202.670337 2.58559-2.394065 2.872879.670339 10.150837 3.830505 9.097448 1.627964-.478813 3.638979 1.81949 2.96864 3.543217-.287287.861863-.957625 1.532202-1.436439 1.532202-.478813 0-1.340676 1.053388-1.81949 2.394065-1.053388 2.681353-2.96864 3.064403-4.692367 1.053389-.861863-1.05339-.7661-1.43644.38305-1.915253 2.394066-.861863 1.05339-7.086433-2.394065-10.62965-2.96864-3.064403-5.458469-9.097447-3.734742-9.097447.478813 0 .861864.670338.861864 1.436439 0 .7661.38305 1.436439.861863 1.436439 1.05339 0 2.011015-2.394065 2.011015-4.883893 0-.957626.478813-1.81949 1.053389-1.81949s.7661.861864.38305 2.011015zm276.27513.957626c0 .574576-.38305.670338-.957626.38305-.478813-.287287-.957626-1.053388-.957626-1.532201 0-.574576.478813-.670338.957626-.38305.574576.287287.957626 1.053388.957626 1.532201zm-272.444625 9.480499c.287288.478813.095762.957626-.38305.957626-.574576 0-1.05339-.478813-1.05339-.957626 0-.574576.191526-.957626.383051-.957626.287288 0 .7661.38305 1.053389.957626zm272.444625 0c0 .478813-.38305.957626-.957626.957626-.478813 0-.957626-.478813-.957626-.957626 0-.574576.478813-.957626.957626-.957626.574576 0 .957626.38305.957626.957626zm-259.516673 2.872878c0 1.053389-.38305 1.915252-.957626 1.915252-.478813 0-.957626-.861863-.957626-1.915252s.478813-1.915252.957626-1.915252c.574576 0 .957626.861863.957626 1.915252zm247.067534.478813c0 .7661-.38305 1.43644-.861864 1.43644-.478813 0-1.053388-.67034-1.436439-1.43644-.287288-.861864 0-1.43644.861864-1.43644.7661 0 1.436439.67034 1.436439 1.43644zM196.152243 715.221532c2.298302 2.298302 2.394065 3.255929.574575 4.692368-1.81949 1.532201-4.309317.38305-3.734742-1.81949.287288-.957626 0-2.011015-.574575-2.298303-.574576-.38305-1.053389-1.053388-1.053389-1.627964 0-1.532202 2.777116-.957626 4.78813 1.053389zm71.247381 47.68978c-.574575.38305-3.638979 2.681353-6.799145 5.17118-6.22457 4.883894-7.852534 5.45847-8.04406 3.160167-.095762-.766101-.191524-1.915253-.287287-2.489828-.095763-1.053389 14.747442-7.565246 15.705068-6.894908.191525.191525 0 .670338-.574576 1.053389zm41.177923 28.058444c-5.075419 8.04406-20.684724 29.494884-21.450825 29.494884-.287288 0-2.298303-2.394065-4.500843-5.362706l-4.02203-5.362706 8.331348-5.649994c9.001685-6.22457 19.43981-14.460154 23.078789-18.386421 3.830504-4.117792 3.351691-2.106778-1.43644 5.266943zm133.58884 18.099134c-.478812 3.926267-2.011014 15.130492-3.35169 24.802516-2.394066 17.524557-2.489829 23.366076-.191526 28.441495 2.298303 4.883893 5.075418 3.830504 14.364392-5.649994 11.7788-11.970326 21.259299-28.154208 26.717768-45.966053l2.96864-9.480498 7.852535 7.565246c16.949982 16.471169 28.441495 22.216925 32.559287 16.375406 1.81949-2.489828 2.011015-12.353377.478813-18.865234-.478813-2.298303-.7661-4.309318-.574575-4.500843.7661-.7661 13.789815 9.097448 17.716082 13.406766 10.533887 11.39575 11.0127 26.143192 1.149152 34.47454-5.745757 4.78813-20.301674 2.872878-31.984712-4.309318-5.171181-3.255929-10.725412-4.40508-16.279644-3.351692-3.638979.670339-13.502528 8.905923-15.705068 13.21524-.7661 1.340677-3.064403 2.872879-5.745756 3.830505-7.086434 2.58559-12.257614 6.894908-15.130493 12.736427-2.20254 4.596605-2.489828 6.128807-2.106777 12.066089.38305 7.469484-.095763 6.703383 9.959311 14.843205l3.63898 2.96864-1.149152 4.02203c-1.532202 5.075418-7.756771 9.863549-12.161851 9.480498-2.489828-.287287-3.064404-.861863-4.309318-4.883893l-1.532202-4.692368-1.627964 3.543217c-2.58559 5.458469-2.106777 11.778801 1.340677 17.141507 1.532201 2.58559 2.58559 4.979656 2.106777 5.362706-1.627964 1.532202-18.290658 12.257614-23.366077 15.130493-8.618635 4.883893-17.524557 7.852534-23.46184 7.852534-4.500842 0-5.745756-.38305-7.948296-2.681353-1.627964-1.532202-3.351691-4.979656-4.40508-8.331347-2.96864-10.342362-6.894908-14.460154-12.83219-13.311003-2.011014.38305-4.02203-.095763-7.182195-2.011015-4.979656-2.872878-7.756772-2.777116-15.609306.574576-2.394065 1.053388-4.500843 1.723727-4.596605 1.627964-.095763-.191525-2.011015-3.734742-4.213555-7.948297-5.266944-9.959311-10.916938-17.428795-15.03473-19.82286-1.81949-1.053389-3.255928-2.106777-3.255928-2.298302 0-.191526.861863-1.244914 1.915252-2.298303 3.543216-3.543217 2.20254-10.2466-2.58559-12.736427-2.394066-1.340677-2.394066-1.340677 2.106777-1.915252 11.683038-1.627965 27.005056-13.981341 39.933008-32.272 6.320332-8.905923 18.386421-31.410136 22.887264-42.422836 1.244914-3.064404 2.394065-5.171181 2.58559-4.692368.478813 1.532202-6.22457 28.058445-9.767786 38.305044-1.723727 5.17118-4.78813 12.927952-6.799145 17.428795-6.511858 14.268629-4.979656 19.631335 5.266943 18.960997 7.948297-.574576 13.789816-3.830505 22.504214-12.736427 11.204225-11.395751 22.599976-31.601662 32.463524-57.744854 1.532202-3.830505 2.777116-6.894908 2.968641-6.703383.095763.191525-.191525 3.543217-.574575 7.469484zm314.292887-2.777116c-.574576 2.298303-1.053389 7.086433-1.053389 10.62965 0 5.266943.38305 6.894908 1.915252 8.42711 5.075419 5.075418 15.41778-.287289 32.176237-16.566932l7.852534-7.565246 2.968641 9.480498c5.554231 18.00337 14.938967 34.09149 27.005056 46.157578 9.384736 9.480498 11.778801 10.342362 14.077104 5.362706 2.394065-5.17118 2.20254-11.587276-.574576-32.080474-1.627964-11.299988-3.064403-22.504214-3.351691-24.898279-.574576-5.075418-1.149152-6.128807 7.852534 15.03473 11.299988 27.005056 23.653364 45.295714 36.294029 54.105875l2.20254 1.532201-4.596605 6.033045c-5.554232 7.37372-9.576261 16.088118-11.0127 23.557602-.478813 3.064403-1.81949 7.37372-2.777116 9.672023-.957626 2.20254-1.81949 4.883894-1.81949 5.937282 0 .957626-.861863 2.011015-1.81949 2.394066-1.053388.287287-3.255928 2.106777-4.78813 3.926267-2.58559 2.96864-2.96864 4.02203-2.96864 9.097448 0 7.277958 2.011014 11.683038 6.224569 13.694053 4.40508 2.106777 6.894908 5.554231 8.235584 11.491513.957627 4.309317.861864 5.554231-.478813 8.42711-4.02203 8.331347-10.821175 6.511857-23.366076-6.22457-5.554232-5.649994-8.905923-8.331347-11.587276-9.097448-2.394066-.7661-4.883893-2.58559-6.99067-5.266944-4.309318-5.266943-9.384737-12.736427-9.384737-13.789815 0-.478813 2.106778-1.532202 4.596606-2.489828 2.58559-.861864 5.745756-2.489828 7.086433-3.543217 5.362706-4.117792 7.182196-13.789816 3.926267-20.588961l-1.627965-3.543217-1.532201 4.692368c-1.244914 3.926267-1.81949 4.596606-4.117793 4.883893-5.362706.670339-13.885578-7.948296-12.927952-12.927952.191525-.861863 2.872878-3.543216 5.937282-5.937282 6.511857-5.075418 7.086433-6.22457 7.182196-13.98134.095762-11.0127-5.937282-19.152523-17.23727-23.174552-2.777116-1.05339-5.075418-2.58559-5.84152-3.926267-2.20254-4.309318-12.066088-12.544902-15.705067-13.21524-5.554232-1.05339-11.108463.095762-16.279644 3.35169-7.373721 4.500843-15.03473 6.799146-22.504213 6.799146-5.937282 0-6.894908-.287288-9.86355-2.872878-1.819489-1.627965-4.117791-4.979656-4.979655-7.373721-4.78813-12.544902.957626-24.419466 17.23727-35.815216 3.638979-2.58559 6.799145-4.500843 6.99067-4.309318.191526.191525-.095762 2.20254-.574575 4.500843zm-406.12923 5.84152c-3.255928 10.821174-11.39575 26.047429-27.771156 51.903334l-4.117792 6.511857-1.723727-3.351691c-2.011015-3.926267-6.99067-8.331347-9.384736-8.331347-.957626 0-2.394065-.766101-3.351692-1.81949-1.532201-1.627964-1.244913-2.011015 6.416095-7.565246 4.40508-3.255929 11.778801-9.576261 16.375407-14.172866 8.044059-8.04406 21.738112-25.185567 23.84489-29.877935 2.011014-4.309317 1.81949-.191525-.287288 6.703383zm542.016373 8.905922c6.416095 13.59829 17.524558 32.367762 21.738113 36.964367l2.298302 2.58559-6.799145 1.627965c-3.734742.957626-6.894908 1.532202-6.99067 1.340677-2.489828-3.830505-9.001686-20.397436-11.587276-29.590647-5.745757-20.493198-8.81016-34.85759-6.128807-28.728783.574575 1.340677 3.926267 8.42711 7.469483 15.80083zm-568.829903 63.203322c0 .191526-.861864.861864-1.915252 1.43644-1.532202.861863-1.915252.7661-1.915252-.478813 0-.766101.861863-1.43644 1.915252-1.43644 1.053388 0 1.915252.191526 1.915252.478813z"/>
</svg>
