<svg xmlns="http://www.w3.org/2000/svg" width="1280pt" height="1280pt" version="1.0" viewBox="0 0 1280 1280">
  <circle class="color-main color-red" fill="#ff2a2a" cx="640" cy="640" r="640"/>
  <path fill="#fff" d="m635.894 32.913-3.16 5.267 1.915 3.256c2.682 4.31 2.586 4.596-1.723 2.202l-3.64-2.01-4.98 3.16c-2.68 1.723-4.883 3.638-4.883 4.309.096 1.34 8.14 6.32 10.438 6.32.862 0 2.49-.67 3.543-1.436 2.969-2.299 3.448-1.628 1.15 1.915-1.245 1.82-3.065 3.352-4.118 3.543-1.054.192-2.107 1.15-2.299 2.203-.191 1.053-1.149 2.49-2.106 3.16-1.054.67-1.82 2.298-1.82 3.543s-.479 2.586-1.053 2.969c-.575.383-.862 1.915-.575 3.734.287 1.628.096 3.64-.287 4.406-.575.861-.383 2.106.479 3.447.766 1.15 1.149 2.777.862 3.543-.288.766.383 2.299 1.436 3.352 1.15 1.15 2.011 2.394 2.011 2.873 0 .479.67 1.532 1.436 2.298 1.245 1.245.958 1.532-1.915 2.011-2.01.383-4.31 1.915-6.224 4.118-2.778 3.064-3.065 3.926-2.586 7.757.287 2.777 1.245 5.075 2.873 6.607 2.202 2.203 2.202 2.586 1.053 5.076-1.532 2.873-.766 6.32 1.82 8.427 1.34 1.149 1.149 5.937-.288 5.937-1.34 0-5.65-11.204-8.235-21.546-2.203-8.62-3.16-11.109-5.65-13.599-2.681-2.681-3.64-3.064-8.714-3.064-4.884 0-6.13.479-9.481 3.064-2.107 1.724-5.554 3.64-7.661 4.405-10.821 3.544-20.11 9.194-27.867 16.855-9.002 8.905-13.79 17.524-16.28 29.207-3.83 18.195 2.203 42.136 15.801 62.82 3.735 5.65 4.884 8.044 4.405 9.768-.67 2.682.958 4.98 3.448 4.98 3.064 0 8.714 11.491 10.917 22.313.383 2.01 1.245 2.777 3.351 3.255 1.628.288 3.16.862 3.448 1.341.574 1.054-3.64 9.385-8.81 17.237-6.13 9.29-6.8 9.577-6.8 2.97 0-11.205-5.458-20.59-15.8-27.102-2.777-1.723-5.938-3.83-6.99-4.788-1.054-.862-3.257-1.915-4.885-2.202-3.639-.767-4.98.574-8.81 9.001-2.681 6.033-5.937 10.247-5.937 7.757 0-.67.67-1.915 1.532-2.681.766-.862 1.245-2.299 1.053-3.256-.287-.958.383-2.49 1.341-3.352 2.49-2.298 2.298-5.841-.575-8.427-2.01-1.915-2.202-2.49-1.244-3.543 4.883-5.267 4.98-12.737.095-17.908-1.723-1.82-1.532-3.543.192-2.107 1.149.958 2.01.958 4.31 0 1.531-.67 2.872-1.532 2.872-2.01 0-1.533-4.788-3.927-6.8-3.448-1.627.383-1.819.287-.957-.575 1.34-1.34 1.34-4.022 0-6.607-1.053-1.916-1.053-1.916-3.351.287-1.82 1.724-2.203 2.873-1.82 4.597.479 2.01.383 2.202-.862 1.149-1.245-1.054-2.107-1.054-4.405-.096-1.532.67-2.873 1.532-2.873 1.915 0 1.628 3.926 4.022 5.746 3.543 2.298-.574 2.586 1.054.287 1.916-5.554 1.915-9.097 11.97-6.224 17.237.766 1.245.383 1.915-2.107 3.064-3.256 1.628-4.31 5.267-2.586 8.523.67 1.245.67 2.107-.095 2.873-.862.862-.862 1.724 0 3.448.574 1.34.67 2.68.287 2.968-1.15.67-1.915-1.628-2.586-7.948-.957-9.002-2.01-11.587-5.458-12.45-1.82-.574-3.83-.478-4.884 0-.958.575-4.788 1.82-8.619 2.778-20.206 5.65-29.112 21.355-24.036 42.806.766 3.256 2.298 7.757 3.447 9.96 1.054 2.106 1.724 4.691 1.533 5.745-.288 1.053 0 2.01.766 2.298 1.436.575 4.692 7.948 3.83 8.81-1.149 1.15-17.237-18.195-20.589-24.706-2.681-5.267-3.83-15.706-3.83-35.241 0-27.197-1.245-32.08-9.385-36.677-7.47-4.214-13.981-9.193-22.504-17.046-3.927-3.639-8.619-7.374-10.247-8.236-4.692-2.49-12.258-2.01-18.29.958-6.417 3.352-11.97 4.884-21.26 6.129-8.906 1.245-11.587 2.49-16.375 7.757-7.182 7.948-10.151 18.96-6.8 24.898 3.64 6.32.384 12.45-9.001 17.237-3.256 1.628-6.895 4.501-9.002 6.99-3.639 4.502-9.672 7.375-15.226 7.375-1.436 0-2.681.383-2.681.861 0 1.15 8.522 4.693 14.556 5.938 2.777.574 6.416 1.915 8.14 2.873 3.064 1.915 8.905 7.852 10.533 10.917 1.34 2.394 4.405 1.149 9.864-3.927 2.394-2.298 7.47-5.65 11.108-7.47 7.182-3.542 10.534-7.277 12.832-14.46.575-2.106 2.49-6.224 4.214-9.097 2.777-4.98 2.969-5.746 2.969-15.61v-10.246h3.926c6.703 0 13.215 2.586 18.482 7.278 8.044 7.182 9.385 10.438 10.055 23.845.575 12.354 2.394 21.355 5.267 27.197 3.16 6.033 15.8 22.408 21.45 27.484 5.842 5.362 13.887 10.917 18.579 12.736l3.16 1.245-2.873 3.352c-1.628 1.723-2.873 4.117-2.873 5.17 0 1.15-.957 2.203-2.394 2.778-1.34.479-2.873 2.011-3.543 3.352-.862 1.915-1.724 2.394-4.788 2.394-7.565 0-18.195 7.948-21.834 16.47-7.086 16.568 1.053 34.284 19.057 41.562 2.202.862 4.213 1.34 4.5 1.149.192-.287-.095-2.394-.67-4.788-2.202-8.044.575-11.683 8.81-11.587 7.853.095 14.652 5.075 19.153 13.885 1.628 3.16 2.298 3.735 4.022 3.256 12.353-3.447 22.408-2.681 32.272 2.298 4.98 2.49 15.897 11.3 15.035 12.067-.192.287-2.969-.767-6.033-2.203-7.853-3.543-18.291-4.118-28.73-1.436-18.386 4.692-35.814 5.266-44.433 1.436-5.458-2.394-6.99-4.31-7.182-8.619-.096-4.117-.958-4.596-6.129-3.16-6.512 1.724-8.236 6.033-5.267 13.503 3.256 8.044 15.226 12.066 32.942 11.012 11.875-.67 23.366-2.49 33.9-5.267 8.81-2.298 18.866-2.585 23.08-.574l2.872 1.436-3.352-.766c-1.82-.383-6.32-.67-10.055-.574-7.852 0-11.97 1.82-19.248 8.331-2.586 2.298-5.65 4.692-6.8 5.267-3.064 1.628-7.852 1.34-12.544-.766l-4.118-1.915.575 2.202c4.213 14.173 12.449 21.738 23.653 21.738 5.65 0 18.003-3.256 18.003-4.788 0-.479-1.053-1.628-2.49-2.49-1.34-.862-3.064-2.873-3.83-4.405-1.82-3.543-.383-6.895 4.31-10.055 11.012-7.47 24.706-2.969 26.621 8.523.384 2.777 0 3.926-2.49 6.8l-2.968 3.35 4.118 1.629c3.735 1.436 4.596 1.436 7.565.191 3.926-1.628 6.99-7.086 8.044-14.556.67-4.596 1.82-6.607 3.448-5.65.383.288.766 3.64.766 7.374 0 6.8-2.203 13.886-4.693 15.418-1.915 1.245-.095 2.49 3.352 2.49 3.926 0 6.895-1.34 9.193-4.214 2.394-2.968 3.16-1.245 3.16 6.895 0 8.906-1.82 12.162-9.384 16.471-4.693 2.682-4.789 2.777-2.299 3.352 1.437.383 2.586.958 2.586 1.34 0 1.82-5.459 7.662-10.055 10.822-4.31 2.873-4.98 3.639-3.83 4.596 1.148.958 1.053 1.533-.671 3.927-1.436 1.915-2.394 2.49-3.064 1.82-.48-.48-2.107-.958-3.544-.958-2.777 0-5.65 2.968-5.65 5.841 0 1.15-.67 1.436-2.298 1.15-3.352-.671-6.608 2.872-6.129 6.511.288 2.107 0 2.873-1.34 3.352-.958.287-2.49 1.532-3.256 2.777-1.341 2.01-1.341 2.681-.096 5.075 1.149 2.49 1.149 2.969-.479 4.884-2.298 2.969-2.202 5.363.383 7.948 2.681 2.682 2.969 9.577.575 13.79-2.873 4.98-5.555 13.79-5.555 18.1 0 2.106-.67 4.788-1.436 5.84-1.532 2.108-1.915 1.15-.479-1.531 1.34-2.49-.957-4.118-4.98-3.352-2.49.479-3.543 1.436-4.788 4.214-.957 2.01-1.723 4.117-1.723 4.692 0 1.628-1.628 1.436-2.299-.383-.861-2.107-2.49-.67-2.585 2.298 0 1.437-.287 2.011-.575 1.34-.766-2.01-2.202-1.244-2.202 1.246 0 1.724-.383 2.202-1.437 1.82-1.723-.671-1.915 1.723-.287 4.692.958 1.915.958 2.01-.575.766-2.298-1.915-3.16-.383-1.34 2.681 1.436 2.586 1.436 2.681-.288 2.298-2.202-.574-2.298.48-.191 2.778 1.436 1.628 1.436 1.723-.575 1.723-1.723 0-1.915.288-1.149 1.82.862 1.532.383 2.202-3.543 4.692-10.725 6.895-19.823 8.81-23.94 4.884-1.15-1.053-3.831-5.267-5.842-9.289-4.884-9.672-7.182-11.97-15.705-15.897-10.821-4.883-12.354-8.427-7.661-17.62 3.447-6.799 9.193-11.779 16.184-13.981 10.438-3.256 14.268-10.247 14.268-25.952v-8.619l-5.362-7.756c-6.991-10.151-7.374-12.354-4.118-25.282 2.585-10.342 2.585-10.438 1.053-16.854-2.969-11.97-10.63-20.589-30.357-34.379-16.184-11.395-23.845-17.716-33.995-28.345-9.768-10.343-15.514-20.206-16.663-28.73l-.67-5.17-3.16 5.458c-1.724 3.065-3.256 5.554-3.448 5.554-.192 0-2.49-2.968-5.171-6.511-13.12-17.812-21.738-40.604-25.473-67.8-1.915-13.407-3.639-19.057-6.99-22.696-7.566-7.948-18.004 3.83-22.696 25.664-5.076 23.558-3.544 51.329 4.022 76.419 3.734 12.353 1.915 12.449-6.991.383-9.29-12.545-19.919-32.08-27.771-51.137-1.916-4.597-4.214-9.768-5.267-11.396-4.31-7.087-11.109-5.937-15.993 2.585-13.885 24.611-11.587 55.255 6.32 84.559 3.927 6.32 4.023 6.799 4.023 14.747v8.14l-2.49-2.298c-3.639-3.352-13.407-16.088-21.45-27.963-12.45-18.482-20.686-25.664-26.91-23.462-5.076 1.724-7.661 13.79-5.746 26.622 1.437 9.194 6.32 23.75 12.832 38.114 10.917 24.228 23.366 41.274 41.37 56.596l4.788 4.117-6.704-3.543c-3.638-1.915-10.15-5.937-14.364-9.002-7.948-5.554-28.633-25.664-42.614-41.178-9.577-10.725-14.46-14.46-18.77-14.46-3.734 0-6.32 3.065-8.044 9.385-2.873 11.013 4.31 32.847 17.62 53.34 11.492 17.716 34.667 42.518 52.478 56.5 4.022 3.16 7.183 5.841 6.991 6.033-.766.766-16.471-5.267-26.813-10.343-14.078-6.894-24.228-13.598-39.263-25.951-23.079-19.057-32.56-20.302-32.368-4.31.383 27.58 45.009 74.217 90.879 94.901 8.81 4.022 9.193 4.31 5.841 4.31-14.46 0-49.605-11.492-82.451-27.101-14.748-6.895-21.26-8.14-23.94-4.405-4.98 7.086 2.68 25.185 15.991 37.922 10.439 9.959 35.05 25.856 53.34 34.57 4.98 2.394 15.13 6.416 22.504 8.906l13.407 4.596-8.427.096c-20.014.096-39.837-3.735-67.13-13.023-20.397-6.895-23.94-7.374-27.483-3.64-8.427 8.906 5.65 29.591 30.356 44.53 6.225 3.83 8.906 6.129 9.002 7.853 0 .383-.862.287-1.915-.288-1.532-.861-1.915-.766-1.915.575 0 .958.67 2.394 1.532 3.352 1.436 1.532 1.34 1.628-.479 1.149-2.394-.575-2.586.383-.383 2.777.862 1.053 1.053 1.724.479 1.724-2.107 0-1.15 2.777 1.532 4.213 2.394 1.34 2.49 1.437.479 1.532-3.16 0-2.682 1.82.862 3.352 1.723.766 2.394 1.34 1.532 1.437-2.777 0-2.873 1.915-.096 2.968 1.82.67 2.203 1.245 1.436 1.724-2.01 1.15 1.245 3.256 4.214 2.681 2.011-.383 2.203-.191 1.15.766-.671.67-5.938 2.107-11.588 3.256-15.705 3.065-20.685 6.32-19.344 12.545 1.34 6.129 14.364 14.173 29.974 18.387 5.841 1.628 10.63 2.106 22.887 2.298 12.162.191 15.992.575 17.716 1.724 1.15.862 2.969 1.245 4.31.957 1.627-.479 2.872.192 5.075 2.49 1.532 1.724 2.873 3.448 2.873 3.83 0 .958-12.833 8.332-26.43 15.131-14.557 7.278-18.77 11.396-16.76 16.28 2.682 6.512 13.024 9.672 31.22 9.672 10.246.096 23.27-1.82 29.207-4.118 1.053-.479 2.873 2.49 7.278 11.779l5.841 12.353-3.16 4.022c-4.98 6.32-7.565 12.258-6.512 15.226 2.011 5.555 11.109 6.225 22.217 1.724l5.937-2.49.192 2.586c.096 1.436 0 4.405-.096 6.703-.287 4.693 2.873 12.066 5.842 13.694 1.053.575 2.968.862 4.213.575 2.586-.479 4.597 1.436 5.555 5.267.287 1.532 1.149 2.681 1.723 2.681s.192 1.054-1.053 2.299c-1.15 1.244-2.298 3.734-2.681 5.65-.67 4.5 2.777 8.33 7.756 8.33 3.16 0 3.256.097 3.927 4.693 1.149 8.332 7.182 19.249 17.045 30.549l3.64 4.213-6.417 6.703-6.416 6.608.575 4.692c.67 5.65 3.543 11.588 6.895 14.173 2.106 1.724 2.394 2.49 1.915 5.267-1.245 6.608 6.703 17.908 12.449 17.908 1.628 0 2.394.574 2.394 1.628 0 .862 3.447 4.98 7.661 9.097 6.033 5.842 8.331 7.47 10.534 7.47 2.202 0 2.873.479 3.352 2.873 1.245 5.745 8.14 8.235 16.47 5.841l2.97-.862-.48 3.256c-.67 3.926 1.341 6.704 5.46 7.565l2.585.575-3.16 3.16c-4.214 4.214-4.406 8.236-.48 12.162 3.352 3.352 7.183 3.639 12.546.862l3.734-1.915-.478 3.16c-.767 4.405 2.872 9.48 7.66 10.725 8.236 2.011 15.035-6.224 11.396-13.79-.957-1.915-3.064-4.117-4.884-4.98l-3.16-1.627 3.448-2.107c6.416-3.926 7.66-10.15 3.16-15.13-2.203-2.299-8.044-2.873-11.3-1.15-1.532.862-1.724.575-1.245-2.872.575-4.31-1.436-7.661-4.692-7.661-2.394 0-2.203-1.15.67-3.831 1.245-1.245 3.064-4.022 3.926-6.32 1.34-3.64 1.437-4.405.192-6.895-1.341-2.586-1.245-2.969.862-5.363 1.149-1.436 2.202-3.639 2.202-4.788 0-5.171 6.32-9.672 21.547-15.035 16.28-5.746 43.284-19.535 54.872-28.154 5.554-4.022 5.937-4.118 6.895-2.394 3.447 6.416 1.34 14.843-4.597 18.865l-3.16 2.107 4.118 1.053c10.055 2.777 16.28-1.245 19.056-12.162l1.628-6.511 1.15 4.309c1.053 3.543.957 5.267-.192 9.768l-1.436 5.554h3.638c11.3 0 19.057-10.055 17.812-23.366l-.574-5.842 3.735 3.927c4.788 5.17 6.416 10.438 5.17 16.758-.861 3.83-.765 4.692.288 4.692 2.873 0 9.097-4.117 11.779-7.852 6.416-8.906 6.224-19.727-.67-32.464-.192-.383 1.532-.191 3.926.288 9.959 2.106 17.62-4.022 20.014-16.088l.575-2.97-6.512.48c-6.033.383-6.608.287-8.14-1.82-1.915-2.777-2.011-7.757-.096-11.396 4.31-8.427 22.887-10.82 35.72-4.692 8.906 4.31 15.322 16.759 14.268 27.676-.766 8.81-7.47 19.344-14.077 22.025-4.5 1.82-12.353.766-14.46-2.011-2.49-3.256-2.202-7.278.67-11.109l2.394-3.16h-3.16c-4.309.096-10.82 3.16-12.736 6.13-4.214 6.415-3.543 14.65 1.532 17.715l2.777 1.724-3.735 2.01c-4.98 2.778-9.289 7.95-10.533 12.354-1.437 4.884-1.341 6.704.478 12.737l1.533 5.17 1.244-2.776c2.586-6.225 8.62-11.396 17.908-15.226l3.448-1.533-.096 4.214c-.288 5.937 2.681 9.097 10.63 11.491 1.915.67 2.106.48 1.627-1.532-.766-3.064 2.394-7.66 7.853-11.683 2.49-1.82 4.692-3.16 4.788-3.064.575.479-2.394 8.044-6.033 15.322-6.32 12.64-16.471 23.845-27.1 29.59-11.492 6.32-35.529 9.385-46.35 5.938-9.385-2.969-14.652-9.385-12.736-15.61.67-2.01 4.309-4.022 7.278-4.022 2.777 0 2.394-1.053-1.628-4.98-10.534-10.054-22.217-8.522-28.442 3.735-4.118 8.14-2.681 17.62 3.64 23.941l4.021 4.022-4.788.575c-36.773 4.5-54.776 15.992-61.863 39.55-1.723 5.65-2.01 8.618-1.723 14.843.574 10.055 3.16 15.61 10.82 23.174l5.747 5.746v7.182c.095 5.172.574 7.853 1.82 9.768 3.16 4.884 5.936 5.842 17.81 6.512 12.163.766 14.653 1.436 18.196 5.171 1.915 2.107 2.394 3.83 2.681 9.193.192 3.735.766 6.704 1.15 6.704 1.436 0 8.522-5.746 10.82-8.81 6.895-9.29 5.555-19.344-3.734-29.4l-5.171-5.65 2.01-3.447c1.724-2.873 2.012-4.597 1.629-10.247-.383-6.416-.575-6.99-3.83-10.055-3.257-2.968-6.417-4.213-14.078-5.745-3.064-.67-3.064-.67-2.49 2.585.479 2.586.096 3.926-1.436 5.937-1.724 2.203-2.777 2.586-6.704 2.586-3.543 0-5.362-.574-7.278-2.202-2.298-2.011-2.585-2.97-2.585-7.949.096-6.799 2.394-13.023 6.033-16.088 2.49-2.107 3.735-2.202 18.386-2.681 8.523-.288 16.376-.862 17.333-1.245 1.437-.575 1.34-.096-.67 2.873-4.31 6.32-4.118 13.215.67 21.834 4.214 7.66 13.407 9.863 23.079 5.65l4.597-2.107-2.107-3.352c-5.842-9.385 4.405-19.44 33.996-33.421 7.278-3.447 16.854-8.714 21.355-11.779 10.917-7.182 23.366-19.727 30.356-30.452 7.087-10.917 7.183-11.013 6.704-7.087-.287 1.82-.958 7.087-1.532 11.875-2.203 17.524-8.236 35.528-15.705 47.02-5.555 8.426-15.227 17.524-22.984 21.642-16.758 8.714-24.419 6.799-24.419-6.033 0-4.884 0-4.884-2.586-4.214-4.98 1.15-12.257 5.937-15.034 9.768-4.884 6.99-4.501 18.865.766 23.27 1.34 1.053.574 1.82-5.746 5.937-12.258 8.14-18.482 18.578-20.493 34.57-2.586 20.59 7.278 35.529 25.568 38.976 7.278 1.437 12.928.766 19.536-2.01 7.661-3.353 11.013-10.152 8.619-17.43-2.586-7.852-8.236-11.204-15.418-9.289-3.926 1.054-3.926 1.054-2.49 3.352 2.107 3.256 1.915 4.98-.862 6.8-3.064 2.01-9.576 1.34-12.257-1.342-6.8-6.799.957-25.185 13.502-32.08l4.692-2.586.575 6.608c1.34 16.28 12.066 23.845 26.622 18.77 7.182-2.586 10.725-6.991 11.875-15.227.67-4.022.574-4.596-.766-4.118-.862.288-3.352 1.054-5.555 1.628-3.543.958-4.309.862-6.512-.766-2.106-1.532-2.49-2.585-2.49-6.607.096-6.8 3.735-12.258 13.695-20.59 4.596-3.734 11.874-10.342 16.184-14.46l7.852-7.565.479 3.16c.287 1.82.766 6.13 1.053 9.577.67 8.14 3.065 17.333 7.47 28.25 2.01 4.788 3.543 9.48 3.543 10.246 0 1.724-3.352 3.927-4.692 3.16-1.916-1.244-7.853 1.628-11.588 5.746-4.884 5.363-7.852 11.779-11.012 24.42-1.437 5.362-3.16 11.012-3.927 12.545-1.915 3.734-5.554 5.841-10.15 5.937-5.172.096-7.757 3.447-7.853 10.055-.096 5.554 2.107 9.193 7.182 11.875 2.586 1.34 4.788 1.627 10.917 1.244 4.214-.191 8.81-.67 10.343-1.053 2.01-.575 2.585-.383 2.585.862 0 .862 1.15 2.777 2.49 4.118 2.107 2.106 3.064 2.394 6.512 1.915 4.022-.575 4.022-.575 4.118 2.586.095 3.926 2.298 8.235 6.703 13.119 1.915 2.107 5.267 7.278 7.374 11.396l3.926 7.565 3.543-6.895c2.011-3.83 5.746-9.48 8.332-12.449 4.5-5.459 7.66-12.832 6.416-14.939-.48-.67.67-.862 3.447-.479 3.352.479 4.597.192 6.8-1.532 1.436-1.15 2.585-2.969 2.585-4.022 0-1.628.383-1.82 2.681-1.245 1.437.383 6.033.862 10.247 1.053 9.001.575 12.928-.957 16.567-6.32 1.82-2.681 2.202-4.213 1.82-7.565-.671-6.129-3.353-9.193-8.14-9.29-4.597-.095-8.236-2.202-10.151-5.936-.67-1.437-2.682-7.661-4.31-13.886-3.447-13.215-6.512-19.344-12.257-24.611-3.64-3.447-5.938-4.405-9.577-3.926-1.915.287-5.075-1.724-5.075-3.16 0-.767 1.82-5.746 3.926-11.205 3.83-9.576 6.895-22.695 8.14-34.666l.575-5.65 7.756 7.566c4.31 4.213 11.588 10.725 16.184 14.46 8.715 7.182 12.928 12.928 13.886 18.77 1.34 8.139-2.299 11.203-10.343 8.81l-4.692-1.341v4.309c0 9.672 8.236 16.567 19.823 16.567 11.013 0 18.482-8.906 18.482-21.93 0-4.309.67-4.596 4.884-2.394 4.884 2.49 10.438 8.14 13.12 13.215 3.351 6.512 3.638 15.801.574 18.77-2.777 2.873-9.002 3.543-12.258 1.436-2.872-1.915-3.064-3.447-.957-6.607 1.628-2.682 1.149-3.16-4.022-3.927-5.363-.766-9.864 1.724-12.545 7.183-5.363 10.438.096 18.96 13.981 22.217 3.926.861 6.512.861 11.683 0 14.652-2.49 22.696-9.864 26.335-24.037 1.245-5.075 1.34-7.565.575-14.364-1.916-16.28-8.332-27.197-20.685-35.337-6.32-4.117-7.087-4.884-5.746-5.937 5.267-4.5 5.746-16.184.862-23.079-2.873-4.022-10.055-8.81-15.035-9.959-2.681-.67-2.681-.67-2.681 4.214 0 12.449-7.47 14.651-23.079 6.703-19.152-9.672-32.75-31.123-38.592-60.81-1.724-8.81-3.352-23.748-2.49-22.695.383.479 3.16 4.597 6.32 9.385 6.99 10.82 19.44 23.27 30.165 30.452 4.597 2.969 14.078 8.236 21.164 11.587 19.919 9.481 28.441 15.131 33.421 21.93 3.256 4.5 3.448 7.661.862 11.97l-1.915 3.16 4.5 2.012c10.056 4.405 18.866 1.915 23.462-6.608 4.501-8.427 4.406-16.854-.383-22.121-2.01-2.203-2.01-2.394-.287-1.724 1.053.479 9.002 1.053 17.525 1.34 14.747.48 15.896.575 18.386 2.778 3.543 2.969 6.129 9.863 6.129 16.375 0 4.501-.287 5.555-2.586 7.47-4.022 3.447-11.3 3.256-13.981-.288-1.628-1.915-1.915-3.255-1.436-5.841l.67-3.256-3.256.67c-10.438 2.107-14.077 4.118-16.663 9.098-2.01 3.926-1.82 12.257.479 16.663l1.82 3.734-5.172 5.65c-11.778 12.737-10.15 26.91 4.31 36.486 1.245.957 2.585 1.628 2.968 1.628s.862-2.969 1.054-6.704c.287-5.362.766-7.086 2.681-9.193 3.543-3.735 6.033-4.405 18.29-5.171 12.067-.67 14.652-1.628 17.813-6.416 1.244-1.915 1.723-4.5 1.723-9.864v-7.182l5.842-5.746c7.565-7.47 10.246-13.215 10.725-22.408.958-17.908-7.757-34.475-22.887-43.476-7.948-4.693-20.876-8.81-33.613-10.63-5.554-.862-10.63-1.532-11.204-1.532-.575 0 .67-1.532 2.681-3.448 8.523-7.66 8.81-20.972.67-29.878-4.5-5.075-12.065-6.416-18.098-3.447-3.065 1.532-10.247 7.853-10.247 9.097 0 .288 1.724.862 3.83 1.245 4.597.767 6.32 3.448 5.363 8.619-.862 4.31-5.746 8.427-12.736 10.63-4.405 1.436-7.47 1.628-16.471 1.149-20.494-.958-32.368-6.129-44.722-19.153-5.745-6.033-8.14-9.672-12.353-18.195-2.873-5.937-5.458-11.683-5.746-12.928l-.574-2.106 3.16 1.915c5.746 3.352 9.672 8.236 9.768 11.97.095 2.873.383 3.256 2.01 2.777 7.758-2.298 11.588-6.99 10.439-12.736l-.67-3.064 4.213 1.628c8.619 3.351 18.1 12.066 18.1 16.566 0 3.16 1.819-.574 2.968-6.128 1.915-9.768-1.34-16.759-10.343-22.505-4.022-2.585-4.022-2.585-1.723-3.639 1.245-.574 3.064-2.49 3.926-4.117 1.34-2.682 1.436-3.83.479-8.044-.67-2.778-2.107-5.938-3.256-6.991-2.873-2.681-8.523-4.98-12.258-4.98h-2.968l2.49 2.969c3.255 3.83 3.351 8.714.095 11.874-1.82 1.916-3.256 2.395-7.182 2.395-6.033 0-9.289-1.628-13.79-6.8-4.98-5.937-7.565-13.406-6.99-20.589 1.34-18.194 16.567-29.303 35.719-26.239 7.47 1.245 12.258 3.735 14.269 7.661 1.915 3.64 1.82 8.62-.096 11.396-1.532 2.107-2.107 2.203-8.236 1.724-5.937-.479-6.512-.383-6.128 1.053.287.862 1.053 3.544 1.723 5.938 1.532 5.458 6.99 11.012 11.588 11.874 1.819.383 5.17.192 7.373-.287 2.107-.479 3.735-.575 3.64-.287-2.778 5.17-4.789 10.63-5.268 14.46-1.149 9.768 3.64 20.206 11.109 24.036 6.033 3.065 6.607 2.682 5.458-2.777-1.245-6.32.383-11.587 5.171-16.758l3.735-3.927-.574 4.884c-1.533 13.503 6.416 24.324 18.003 24.324 3.352 0 3.83-.192 3.256-1.628-1.628-3.926-2.298-8.619-1.724-11.779.958-5.554 1.915-6.416 2.586-2.298 1.245 6.416 4.022 11.587 7.182 13.215 2.969 1.628 5.65 1.915 14.46 1.532 8.331-.287 20.397 4.788 33.325 13.886 4.118 2.969 8.906 5.171 15.322 7.182 6.991 2.203 10.534 3.83 14.078 6.8 7.948 6.607 9.48 7.086 19.152 6.798 14.364-.478 17.908-.478 25.09.288 6.224.67 7.374.478 11.97-1.724 3.352-1.532 7.47-2.586 12.258-2.969 7.66-.574 15.322-2.681 19.152-5.362 1.341-.958 4.214-2.011 6.512-2.394 5.171-.862 9.96-4.884 13.79-11.683 3.064-5.459 5.842-8.523 12.162-13.503 5.363-4.31 7.757-9.289 7.757-15.992 0-4.789-.383-5.746-2.873-8.332l-2.969-2.873 2.203-6.416c1.149-3.447 2.681-7.278 3.447-8.427.862-1.436 1.15-3.256.766-5.267-.383-1.723-1.053-6.32-1.532-10.15-1.15-9.481-4.214-18.1-8.906-25.186a1325.81 1325.81 0 0 1-4.692-6.99c-4.788-7.375-27.101-44.626-29.4-49.127l-2.968-5.937 2.394-2.394 2.298-2.299 6.704 7.757c15.513 18.003 34.762 31.41 55.925 38.88 11.683 4.117 18.29 3.83 20.876-.958 2.394-4.597-.957-10.15-19.056-31.793-6.033-7.182-13.886-16.95-17.62-21.93-6.991-9.289-18.962-27.005-18.962-28.058 0-.287 2.969 2.107 6.704 5.363 17.907 16.088 39.167 28.345 57.936 33.42 15.035 4.214 41.37 3.544 49.03-1.148 3.544-2.107 6.991-6.13 6.991-8.045 0-3.351-6.416-8.14-21.26-15.896-18.194-9.48-30.93-17.333-44.529-27.484-9.576-7.086-12.545-10.15-7.182-7.374 4.5 2.299 23.27 8.332 32.272 10.247 13.311 2.969 33.134 3.447 44.53 1.053 16.662-3.447 30.07-10.342 33.995-17.62 3.927-7.374-1.245-11.013-21.259-14.748-30.548-5.745-49.988-10.725-62.054-16.088-2.777-1.245-2.777-1.245 3.83-1.915 37.348-3.83 67.417-16.375 87.144-36.485 11.78-12.067 15.61-22.792 10.055-28.73-2.202-2.393-2.872-2.585-7.66-2.106-2.873.287-10.63 2.49-17.238 4.884-23.749 8.906-42.71 12.832-64.16 13.598l-13.886.479 13.406-4.692c7.374-2.586 17.525-6.608 22.505-8.906 17.333-8.236 42.997-24.803 52.86-34.188 13.599-12.927 21.451-31.218 16.472-38.4-2.682-3.735-9.193-2.49-23.94 4.405-32.943 15.609-70.77 27.867-82.644 26.909-3.352-.287-3.256-.383 3.352-2.969 18.29-7.182 42.997-24.132 60.713-41.848 15.993-15.896 25.377-28.824 30.357-42.04 2.969-7.852 3.352-16.95.862-20.684-1.532-2.394-2.107-2.586-6.32-2.203-5.65.575-11.109 3.926-24.42 14.939-18.865 15.8-39.837 28.058-58.32 34.187-4.117 1.341-7.66 2.394-7.756 2.203-.192-.192 2.968-2.873 6.99-6.033s12.833-11.109 19.632-17.716c24.515-23.654 40.89-47.594 48.073-69.907 4.596-14.652 3.256-28.058-3.256-31.219-4.118-2.106-7.661.192-18.77 11.875-22.983 24.036-35.815 36.581-43.189 42.04-7.948 5.841-20.301 13.215-21.068 12.545-.191-.192 2.682-2.873 6.32-5.938 17.142-14.077 33.518-39.454 44.435-68.757 4.884-13.12 6.607-20.972 6.703-30.932.192-12.736-2.394-18.673-8.14-18.673-6.416 0-13.215 6.512-24.802 23.653-8.044 11.875-17.812 24.611-21.451 27.963l-2.49 2.298v-8.14c0-7.948.096-8.427 4.022-14.747 9.864-16.088 15.226-33.421 15.226-49.03 0-10.822-.957-16.568-4.309-25.378-5.267-13.885-10.63-19.44-16.375-16.758-3.065 1.34-5.076 4.692-9.48 15.418-11.684 28.441-33.135 63.203-36.774 59.564-.287-.287.67-4.214 2.011-8.81 9.29-30.453 9.29-65.598.096-89.634-3.256-8.427-9.193-15.035-13.502-15.035-6.32 0-10.343 8.427-12.258 25.377-1.82 16.472-7.948 36.869-15.322 51.138-3.83 7.373-14.173 23.078-15.322 23.078-.192 0-1.724-2.49-3.448-5.554l-3.16-5.458-.67 4.884c-2.203 16.854-18.195 34.474-54.968 60.426-10.821 7.565-20.206 17.141-23.27 23.366-1.15 2.298-2.49 6.512-3.16 9.385-.958 4.692-.862 6.32 1.532 15.8 3.064 12.45 2.681 15.801-2.969 23.175-6.607 8.619-7.373 11.013-6.799 20.302.958 14.939 4.405 20.589 14.46 23.749 6.991 2.202 13.024 7.374 16.28 13.981 4.692 9.29 3.16 12.545-8.523 18.1-8.619 4.021-9.96 5.362-14.843 15.226-1.724 3.447-4.214 7.373-5.554 8.81-4.405 4.788-12.354 3.256-25.186-4.597-4.884-3.064-5.363-3.639-4.118-4.884 1.724-1.724.862-3.256-1.34-2.49-1.533.575-1.533.48.095-1.34 2.107-2.49 2.107-3.544-.287-2.873-1.724.479-1.724.287-.383-1.82 1.628-2.394 1.053-4.405-.958-3.639-.861.288-1.053-.287-.766-2.49.383-2.394.096-2.777-1.149-2.298-1.149.479-1.436.192-.957-.862.861-2.394-.48-3.83-2.299-2.394-1.245 1.054-1.436 1.054-.957-.287.287-.862.191-2.107-.288-2.873-.766-1.149-1.149-1.053-2.202.383-1.34 1.724-1.437 1.724-1.724-.383-.383-2.777-2.681-3.639-2.681-1.053 0 1.149-.67 2.585-1.437 3.447-.766.766-1.436 1.82-1.436 2.298 0 .384-1.054 1.82-2.299 2.97-2.49 2.297-2.872 6.415-.861 8.905.861.958.861 1.724.191 2.394-1.34 1.34-4.692.479-4.692-1.245 0-.67-.575-1.628-1.34-2.01-1.629-.958-2.108-3.065-1.054-5.364.574-1.34.957-1.532 1.532-.574.574 1.053 1.245.766 3.064-.862 2.394-2.298 2.873-7.47.862-8.714-.766-.48-.479-1.15.766-2.299 1.054-.862 1.628-2.202 1.341-3.064-.383-.766-.192-1.437.383-1.437.479 0 1.15 1.245 1.532 2.873.479 2.682 2.49 4.118 2.49 1.82 0-.67.766-1.724 1.724-2.394.957-.766 1.149-1.245.479-1.34-.67 0-1.245-.575-1.245-1.342 0-1.628-6.608-2.777-8.14-1.532-.862.766-1.34-.287-1.724-3.83-.287-2.682-2.01-7.757-3.639-11.3-3.926-8.14-4.31-14.843-1.053-18.1 2.585-2.585 2.681-4.213.383-7.086-1.628-1.915-1.628-2.394-.479-4.884 1.245-2.49 1.245-3.064-.192-5.267-.861-1.34-2.394-2.585-3.255-2.873-1.245-.287-1.533-1.149-1.245-3.255.574-3.64-2.011-6.608-5.65-6.608-2.011 0-2.682-.479-2.969-2.011-.192-1.15-1.34-2.969-2.777-3.926-1.915-1.533-2.873-1.628-5.076-.766-2.298.861-2.872.67-4.405-1.15-1.532-1.82-1.628-2.394-.478-3.543 1.053-1.053.478-1.915-4.118-4.98-6.512-4.309-10.917-10.15-8.715-11.491.766-.479 2.011-.862 2.777-.862.767 0-.766-1.34-3.543-2.873-7.565-4.31-9.384-7.565-9.384-16.47 0-8.14.766-9.864 3.16-6.896 2.106 2.682 5.17 4.214 8.523 4.214 3.447 0 5.745-1.34 4.117-2.394-2.585-1.628-4.788-8.619-4.788-15.514 0-3.735.383-7.086.766-7.374 1.628-.957 2.777 1.054 3.448 5.65 1.053 7.47 4.118 12.928 8.044 14.556 2.968 1.245 3.83 1.245 7.565-.191 2.203-.862 4.118-1.724 4.118-1.915 0-.192-1.245-1.628-2.873-3.16-3.064-3.16-3.447-5.172-1.82-9.481 3.64-9.672 15.993-12.354 25.856-5.746 4.693 3.16 6.13 6.512 4.31 10.055-.766 1.532-2.49 3.543-3.83 4.405-1.437.862-2.49 1.916-2.49 2.394 0 1.341 12.257 4.884 17.045 4.884 10.151 0 16.567-4.118 21.164-13.694 1.532-3.256 3.064-6.895 3.447-8.044l.575-2.202-4.118 1.915c-4.692 2.107-9.48 2.394-12.545.766-1.15-.575-4.214-2.969-6.8-5.267-7.469-6.703-11.395-8.331-19.726-8.427-3.926 0-8.427.383-10.055.766-2.299.67-2.586.575-1.724-.383.67-.67 4.597-1.34 8.714-1.628 6.033-.287 9.577.096 17.525 2.107 37.539 9.384 63.682 5.65 66.555-9.385 1.15-6.416-1.532-9.48-9.097-10.725-4.118-.67-4.214-.575-3.64 1.532 1.054 4.022-1.723 8.523-6.703 10.821-4.022 1.82-6.129 2.107-17.524 2.107-10.726-.096-14.748-.48-23.654-2.682-13.023-3.16-21.163-3.351-29.303-.574-3.256 1.053-6.512 2.49-7.182 2.968-.67.575-1.437.862-1.724.575-.862-.958 10.15-10.055 15.322-12.545 7.565-3.735 16.471-5.075 23.845-3.735 3.256.67 6.799 1.437 7.948 1.724 1.724.479 2.49-.383 4.98-4.692 3.926-6.895 8.81-10.917 15.13-12.162 4.022-.862 5.65-.766 8.427.383 4.118 1.724 5.172 4.884 3.544 10.917-.575 2.394-.862 4.5-.67 4.788.765.766 6.415-1.82 11.97-5.363 12.928-8.523 17.524-23.462 11.587-37.347-3.64-8.523-14.269-16.471-21.834-16.471-3.064 0-3.926-.48-4.788-2.394-.67-1.341-2.203-2.873-3.543-3.352-1.437-.575-2.394-1.628-2.394-2.777 0-1.054-1.245-3.448-2.873-5.171l-2.873-3.352 2.968-1.15c4.789-2.01 13.407-7.947 19.153-13.214 5.171-4.789 18.29-21.739 21.355-27.676 2.681-5.267 4.405-14.651 5.075-27.005.575-11.683.67-11.874 4.214-17.333 5.746-8.523 14.556-13.407 24.228-13.407h3.926v9.768c0 9.193.192 10.247 2.969 15.61 1.628 3.16 3.543 7.469 4.213 9.576 2.299 6.99 5.555 10.82 11.97 13.79 3.257 1.532 8.428 4.98 11.492 7.66 6.608 5.746 9.002 6.8 10.343 4.31 2.298-4.31 11.108-11.779 15.226-12.832 9.097-2.299 14.46-4.214 16.375-5.842l2.107-1.724-2.49-.095c-1.34 0-4.596-.67-7.373-1.437-3.735-1.149-5.746-2.49-8.428-5.746-2.01-2.49-5.937-5.65-9.193-7.373-9.48-5.076-12.545-10.726-8.906-17.046 6.13-10.821-8.044-32.464-21.259-32.56-5.171-.095-15.897-2.872-22.504-5.937-7.757-3.543-13.79-3.926-18.961-1.245-1.82.958-6.8 4.98-11.013 8.906-6.32 5.842-15.992 12.928-25.76 18.866-3.735 2.202-4.692 8.523-5.459 34.953-.67 26.143-1.244 30.07-5.17 36.869-3.64 6.32-18.291 23.27-19.249 22.217-.766-.767 2.011-7.566 3.543-8.428.958-.478 1.437-1.532 1.245-2.49-.287-.957.575-4.117 1.915-7.086 10.151-23.079 2.203-44.625-18.865-50.658-3.735-1.15-8.14-2.586-9.768-3.256-1.915-.766-3.926-.958-5.937-.383-3.447.862-4.5 3.447-5.458 12.449-.67 6.32-1.437 8.619-2.586 7.948-.383-.287-.287-1.628.287-2.968.862-1.724.862-2.586 0-3.448-.766-.766-.766-1.628-.095-2.873 1.723-3.256.67-6.895-2.586-8.523-2.49-1.149-2.873-1.82-2.107-3.064 2.873-5.267-.67-15.322-6.129-17.237-2.394-.862-2.106-2.49.192-1.916 1.82.48 5.746-1.915 5.746-3.543 0-.383-1.341-1.245-2.873-1.915-2.299-.958-3.16-.958-4.405.096-1.245 1.053-1.341.862-.862-1.15.383-1.723 0-2.872-1.82-4.596-2.298-2.203-2.298-2.203-3.351-.287-1.341 2.585-1.341 5.267 0 6.607.862.862.67 1.054-.862.67-1.82-.574-6.895 2.012-6.895 3.448 0 .383 1.34 1.245 2.873 1.915 2.298.958 3.16.958 4.31 0 1.723-1.436 1.914.288.286 2.107-4.98 5.171-4.884 12.64 0 17.908.958 1.053.766 1.628-1.245 3.543-2.872 2.586-3.064 6.129-.574 8.427.957.862 1.628 2.394 1.34 3.352-.191.957.288 2.394 1.054 3.256 1.628 1.628 2.01 3.543.67 3.543-.479 0-2.394-3.352-4.405-7.47-4.788-9.767-5.841-10.917-9.48-10.15-1.628.287-3.83 1.34-4.884 2.202-1.054.958-4.214 3.065-6.99 4.788-10.343 6.512-15.802 15.897-15.802 27.101 0 3.064-.095 5.554-.191 5.554-.192 0-2.011-2.394-4.214-5.267-4.98-6.607-11.874-19.248-11.204-20.397.287-.479 1.82-1.15 3.447-1.437 2.107-.478 2.97-1.244 3.352-3.255 1.915-9.672 8.14-22.313 11.109-22.313 2.298 0 3.926-2.394 3.256-4.98-.48-1.724.67-4.118 4.405-9.768 9.767-14.939 15.896-31.889 16.758-47.019 1.724-27.675-14.269-50.467-43.189-61.288-3.639-1.34-8.14-3.735-10.055-5.267-2.873-2.298-4.31-2.777-9.097-2.777-4.98 0-5.938.383-8.619 3.064-2.49 2.49-3.447 4.98-5.554 13.503-2.586 10.342-6.99 21.642-8.332 21.642-1.628 0-1.628-4.788.096-6.224 2.49-2.299 3.065-6.033 1.437-8.62-1.341-2.01-1.245-2.297.861-4.308 2.586-2.394 3.927-7.278 2.97-10.822-.767-3.351-5.172-7.278-8.811-7.948-2.777-.479-3.064-.766-1.82-2.01.767-.767 1.437-1.82 1.437-2.3 0-.478.862-1.723 2.01-2.872 1.054-1.053 1.725-2.586 1.437-3.448-.287-.766.096-2.298.862-3.351.958-1.437 1.054-2.49.383-3.83-.574-1.15-.574-2.299 0-3.544.67-1.245.575-2.298-.383-3.543-.766-1.054-1.436-2.777-1.436-3.926 0-1.15-.766-2.682-1.82-3.352-.957-.67-1.915-2.107-2.106-3.16-.192-1.054-1.245-2.011-2.299-2.203-1.053-.191-2.873-1.724-4.118-3.543-2.298-3.543-1.82-4.214 1.15-1.915 1.053.766 2.68 1.436 3.543 1.436 2.298 0 10.342-4.98 10.438-6.32 0-.67-2.203-2.586-4.884-4.31l-4.98-3.16-3.639 2.011c-2.106 1.15-3.734 1.916-3.734 1.724 0-.191.861-1.915 2.01-3.83l2.012-3.352-3.16-5.267c-1.724-2.873-3.64-5.267-4.214-5.267-.575 0-2.394 2.394-4.118 5.267zm37.54 232.512c13.214 21.546 36.102 44.242 54.68 54.105l4.788 2.586-8.715.287c-10.15.288-20.11-1.532-27.867-5.075l-5.267-2.394.67 4.596c1.054 7.183 4.98 15.035 10.152 19.823 2.49 2.394 5.075 4.31 5.65 4.31 2.106 0 .766 1.628-2.394 2.681-1.916.766-5.459 3.735-8.62 7.374-5.84 6.607-9.767 8.618-15.417 7.948-4.022-.479-4.118.575-.862 7.757l2.49 5.267-2.394 1.915c-1.245 1.15-3.735 4.405-5.458 7.278-5.363 9.193-9.002 11.587-12.162 8.427-.958-.958-1.437-.958-2.107.192-1.82 2.777-.958 6.607 2.107 10.055 2.968 3.447 2.968 3.543 1.436 6.128-.862 1.533-3.064 6.225-4.884 10.534-4.022 9.577-7.182 13.79-12.64 17.333l-4.214 2.586 3.352 2.298c3.639 2.49 4.022 4.118 2.01 9.002-1.627 3.83-6.128 10.055-7.373 10.055-1.436 0-5.842-5.171-7.661-9.097-2.586-5.555-2.298-7.374 1.532-9.96l3.352-2.298-4.31-2.681c-5.075-3.256-9.288-8.81-11.97-15.801-1.053-2.873-2.968-7.374-4.31-10.055l-2.489-4.788 2.969-3.448c2.394-2.681 2.873-4.022 2.681-6.8-.191-2.585-.67-3.447-1.724-3.16-6.703 1.725-7.565 1.15-13.023-8.235-2.107-3.447-4.693-6.99-5.938-7.948l-2.202-1.724 1.915-3.735c1.15-2.01 2.203-4.98 2.586-6.607.574-2.873.478-2.873-2.777-2.49-5.746.67-9.672-1.34-15.514-7.948-3.16-3.64-6.703-6.608-8.619-7.374-3.734-1.34-4.213-2.298-1.532-3.16 1.054-.287 4.118-2.969 6.704-5.842 3.639-3.926 5.362-6.895 6.799-11.587 2.298-7.278 2.585-11.587.67-10.055-.67.574-4.597 2.202-8.81 3.639-6.225 2.107-9.96 2.681-19.631 2.969l-11.97.478 8.522-5.362c11.683-7.374 18.77-13.216 28.92-23.75 9.002-9.288 16.759-19.248 22.6-29.016l3.448-5.745 29.495.095h29.399zM521.361 552.52c.287.574 2.011.862 3.83.67 2.586-.287 3.256 0 3.64 1.724.67 2.49.095 4.405-2.97 9.193-2.202 3.64-2.202 3.64-4.117 1.724-1.053-1.054-1.915-2.586-1.915-3.352s-.67-1.436-1.437-1.436c-.766 0-1.436.574-1.436 1.34 0 .767-.479 1.724-1.15 2.107-1.436.862-.574-4.596 1.533-9.48 1.436-3.544 2.777-4.405 4.022-2.49zm241.322 2.49c.862 1.915 1.724 4.98 2.01 6.703.48 2.681.288 3.064-1.053 2.586-.861-.288-1.532-1.15-1.532-1.916s-.67-1.34-1.436-1.34c-.766 0-1.437.766-1.437 1.723 0 .862-.861 2.203-1.915 2.873-1.724 1.054-2.107.766-4.31-3.639-3.255-6.32-2.585-9.289 1.82-8.81 1.82.192 3.544-.096 3.83-.67 1.246-1.915 2.586-1.054 4.023 2.49zM500.199 568.8c-.48 1.34-.096 2.394 1.053 3.255 1.34.958 1.532 1.533.67 2.586-2.394 2.873.67 10.15 3.83 9.097 1.629-.478 3.64 1.82 2.97 3.544-.288.862-.958 1.532-1.437 1.532-.479 0-1.34 1.053-1.82 2.394-1.053 2.681-2.968 3.064-4.692 1.053-.862-1.053-.766-1.436.383-1.915 2.394-.862 1.054-7.086-2.394-10.63-2.969-3.064-5.458-9.097-3.735-9.097.48 0 .862.67.862 1.436 0 .767.383 1.437.862 1.437 1.053 0 2.011-2.394 2.011-4.884 0-.958.479-1.82 1.053-1.82s.767.862.384 2.012zm276.275.957c0 .575-.383.67-.958.383-.479-.287-.958-1.053-.958-1.532 0-.575.48-.67.958-.383.575.287.958 1.053.958 1.532zm-272.445 9.48c.287.48.096.958-.383.958-.575 0-1.053-.479-1.053-.957 0-.575.191-.958.383-.958.287 0 .766.383 1.053.958zm272.445 0a.96.96 0 0 1-.958.958c-.479 0-.958-.479-.958-.957a.96.96 0 0 1 .958-.958c.575 0 .958.383.958.958zm-259.517 2.874c0 1.053-.383 1.915-.958 1.915-.478 0-.957-.862-.957-1.915s.479-1.916.957-1.916c.575 0 .958.862.958 1.916zm247.068.478c0 .766-.384 1.437-.862 1.437-.48 0-1.054-.67-1.437-1.437-.287-.862 0-1.436.862-1.436.766 0 1.437.67 1.437 1.436zM196.152 715.222c2.299 2.298 2.394 3.255.575 4.692-1.82 1.532-4.31.383-3.735-1.82.287-.957 0-2.01-.574-2.298-.575-.383-1.054-1.053-1.054-1.628 0-1.532 2.777-.957 4.788 1.054zm71.248 47.69c-.575.382-3.64 2.68-6.8 5.17-6.224 4.884-7.852 5.459-8.044 3.16-.095-.765-.191-1.915-.287-2.49-.096-1.053 14.748-7.564 15.705-6.894.192.191 0 .67-.574 1.053zm41.178 28.058c-5.076 8.044-20.685 29.495-21.451 29.495-.288 0-2.299-2.394-4.501-5.363l-4.022-5.363 8.331-5.65c9.002-6.224 19.44-14.46 23.079-18.386 3.83-4.118 3.352-2.107-1.436 5.267zm133.588 18.099c-.478 3.926-2.01 15.13-3.351 24.802-2.394 17.525-2.49 23.366-.192 28.442 2.298 4.884 5.076 3.83 14.365-5.65 11.778-11.97 21.259-28.154 26.717-45.966l2.969-9.48 7.853 7.565c16.95 16.47 28.441 22.217 32.559 16.375 1.82-2.49 2.01-12.353.479-18.865-.48-2.299-.766-4.31-.575-4.501.766-.766 13.79 9.097 17.716 13.407 10.534 11.395 11.013 26.143 1.15 34.474-5.746 4.788-20.302 2.873-31.985-4.31-5.172-3.255-10.726-4.404-16.28-3.35-3.64.67-13.503 8.905-15.705 13.214-.766 1.341-3.065 2.873-5.746 3.831-7.086 2.586-12.258 6.895-15.13 12.736-2.203 4.597-2.49 6.13-2.107 12.066.383 7.47-.096 6.704 9.96 14.844l3.638 2.968-1.149 4.022c-1.532 5.076-7.757 9.864-12.162 9.48-2.49-.286-3.064-.861-4.31-4.883l-1.531-4.692-1.628 3.543c-2.586 5.458-2.107 11.779 1.34 17.141 1.532 2.586 2.586 4.98 2.107 5.363-1.628 1.532-18.29 12.258-23.366 15.13-8.619 4.884-17.525 7.853-23.462 7.853-4.5 0-5.746-.383-7.948-2.681-1.628-1.532-3.352-4.98-4.405-8.332-2.969-10.342-6.895-14.46-12.832-13.31-2.011.382-4.022-.096-7.183-2.012-4.98-2.873-7.756-2.777-15.609.575-2.394 1.053-4.5 1.724-4.597 1.628-.095-.192-2.01-3.735-4.213-7.948-5.267-9.96-10.917-17.43-15.035-19.823-1.82-1.054-3.256-2.107-3.256-2.299 0-.191.862-1.244 1.916-2.298 3.543-3.543 2.202-10.246-2.586-12.736-2.394-1.341-2.394-1.341 2.107-1.916 11.683-1.628 27.005-13.98 39.933-32.272 6.32-8.905 18.386-31.41 22.887-42.422 1.245-3.065 2.394-5.172 2.586-4.693.478 1.532-6.225 28.059-9.768 38.305-1.724 5.171-4.788 12.928-6.8 17.43-6.511 14.268-4.979 19.63 5.268 18.96 7.948-.575 13.79-3.83 22.504-12.736 11.204-11.396 22.6-31.602 32.463-57.745 1.533-3.83 2.777-6.895 2.969-6.704.096.192-.192 3.544-.575 7.47zm314.293-2.777c-.574 2.298-1.053 7.086-1.053 10.63 0 5.266.383 6.894 1.915 8.427 5.076 5.075 15.418-.288 32.176-16.567l7.853-7.566 2.969 9.48c5.554 18.004 14.939 34.092 27.005 46.158 9.384 9.48 11.778 10.343 14.077 5.363 2.394-5.171 2.202-11.587-.575-32.08-1.628-11.3-3.064-22.505-3.352-24.899-.574-5.075-1.149-6.128 7.853 15.035 11.3 27.005 23.653 45.296 36.294 54.106l2.203 1.532-4.597 6.033c-5.554 7.374-9.576 16.088-11.013 23.558-.479 3.064-1.82 7.374-2.777 9.672-.958 2.202-1.82 4.884-1.82 5.937 0 .958-.861 2.011-1.819 2.394-1.053.287-3.256 2.107-4.788 3.926-2.586 2.97-2.969 4.023-2.969 9.098 0 7.278 2.011 11.683 6.225 13.694 4.405 2.107 6.895 5.554 8.236 11.491.957 4.31.861 5.555-.48 8.428-4.021 8.33-10.82 6.511-23.365-6.225-5.555-5.65-8.906-8.331-11.588-9.097-2.394-.767-4.884-2.586-6.99-5.267-4.31-5.267-9.385-12.737-9.385-13.79 0-.479 2.107-1.532 4.597-2.49 2.585-.862 5.745-2.49 7.086-3.543 5.363-4.118 7.182-13.79 3.926-20.59l-1.628-3.542-1.532 4.692c-1.245 3.926-1.82 4.597-4.118 4.884-5.362.67-13.885-7.948-12.928-12.928.192-.862 2.873-3.543 5.938-5.937 6.511-5.076 7.086-6.225 7.182-13.982.096-11.012-5.937-19.152-17.237-23.174-2.778-1.054-5.076-2.586-5.842-3.927-2.203-4.309-12.066-12.544-15.705-13.215-5.554-1.053-11.108.096-16.28 3.352-7.373 4.5-15.034 6.8-22.504 6.8-5.937 0-6.895-.288-9.863-2.874-1.82-1.628-4.118-4.98-4.98-7.374-4.788-12.544.958-24.419 17.237-35.815 3.64-2.585 6.8-4.5 6.99-4.31.192.192-.095 2.203-.574 4.502zm-406.129 5.841c-3.256 10.821-11.396 26.048-27.771 51.904l-4.118 6.511-1.724-3.351c-2.01-3.926-6.99-8.332-9.384-8.332-.958 0-2.394-.766-3.352-1.819-1.532-1.628-1.245-2.011 6.416-7.565 4.405-3.256 11.779-9.577 16.375-14.173 8.045-8.044 21.739-25.186 23.845-29.878 2.011-4.31 1.82-.192-.287 6.703zm542.016 8.906c6.417 13.599 17.525 32.368 21.739 36.965l2.298 2.585-6.8 1.628c-3.734.958-6.894 1.532-6.99 1.34-2.49-3.83-9.002-20.397-11.587-29.59-5.746-20.493-8.81-34.857-6.13-28.729.576 1.341 3.927 8.427 7.47 15.801zm-568.83 63.204c0 .191-.861.861-1.915 1.436-1.532.862-1.915.766-1.915-.479 0-.766.862-1.436 1.915-1.436 1.054 0 1.916.191 1.916.479z"/>
</svg>
