<svg xmlns="http://www.w3.org/2000/svg" viewBox="0 0 192 196.1">
    <circle fill="#90c260" stroke="#372c26" stroke-width="4.2" cx="96.6" cy="98.9" r="89.3"/>
    <path fill="#372c26" d="M76.1 48c-.3.6-.7 1.2-1.4 1.6l-.6.4.6.3c1.6.8 3.7.9 6.1.9-.8.1-1.5.3-2.7.3.5.9 1 1.7 1.1 2.5-1.2.1-2.3.2-3.7-.2-1.4-.4-1.8-2-1.8-2s-.4 1 .7 2.3c1.2 1 1.8 1.9 2.6 3.3-1.7.2-3 .1-4.2-.1.3.6.2 1.2 0 1.9-1.2-.7-2.8-.7-4.4-1-1.6-.2-3.2-.9-4.3-1.5-1.1-.6-1.8-1.4-2-2.3v-.3c.3-.1.6-.2 1-.3.5.6 1.4.7 2.2.5.7-.2 1.1-1 1.2-1.9.7-.3.9-.8.8-1.4-1.4 1-3.5 1.8-5.1 2.2V53c.2-.7.7-1.5 1.9-2.1 2.6-1.4 4.8-1.4 8.1-2 2.7-.5 3.4-.8 3.9-.9zm41.1 0c.5.1 1.2.4 3.8.9 3.3.6 5.6.7 8.1 2 1.2.7 1.7 1.5 1.9 2.1v.2c-1.6-.4-3.7-1.1-5.1-2.2-.1.6.1 1.1.8 1.4.1.9.5 1.7 1.2 1.9.8.2 1.7.1 2.2-.5.3.1.7.2 1 .3v.3c-.2.9-.9 1.6-2 2.3-1.1.7-2.7 1.3-4.3 1.5-1.6.2-3.2.3-4.4 1-.1-.7-.2-1.2 0-1.9-1.2.3-2.5.4-4.2.1.8-1.4 1.4-2.3 2.6-3.3 1.1-1.3.7-2.3.7-2.3s-.5 1.6-1.8 2c-1.4.4-2.5.3-3.7.2.1-.8.6-1.6 1.1-2.5-1.2 0-1.9-.2-2.7-.3 2.4 0 4.5-.2 6.1-.9l.6-.3-.6-.4c-.6-.4-1-1-1.3-1.6z"/>
    <path fill="#372c26" d="M81 52c.7.6 1.3 1 2.4 1.2-.9.4-2.1.5-3.2.2l-.7-1.1c.4-.1 1-.2 1.5-.3zm31.3 0l1.5.3-.7 1.1c-1.2.2-2.3.2-3.2-.2 1-.2 1.7-.6 2.4-1.2zm-29 2.1c1.1 1.1 1.6 1.9 2.1 2.9-1.1.2-1.9.2-3.1 0-.4-.7-.8-1.4-1.5-2.2l-.3-.5c1.2.1 2.1 0 2.8-.2zm26.6 0c.8.2 1.7.3 2.7.1l-.3.5c-.7.8-1.1 1.5-1.5 2.2-1.2.3-2 .3-3.1 0 .6-.9 1.1-1.7 2.2-2.8zm-33.5.6c1.2.2 2.4.3 3.5.1 1 1 1.3 1.9 1.8 2.8-1.3.1-2.4 0-3.5-.3-.2-.5-.6-1.1-1-1.6-.3-.3-.5-.6-.8-1zm40.4 0c-.3.3-.5.7-.8 1.1-.4.5-.8 1.1-1 1.6-1.1.3-2.1.4-3.5.3.5-1 .8-1.8 1.8-2.8 1.1.1 2.4 0 3.5-.2z"/>
    <path fill="#bc1818" d="M61.4 54.9c.4 1 1.2 1.8 2.3 2.4.6.3 1.2.6 1.9.8-2 .1-3.1.4-3.7 1.1-.5.6-.6 1.3-.6 2.1-.5-.2-.9-.4-1.3-.9-.4-.6-.7-1.5-.4-2.9.1-1.1 1.2-2.1 1.8-2.6zm70.4 0c.6.5 1.7 1.5 1.9 2.6.2 1.4 0 2.3-.4 2.9-.3.4-.8.7-1.3.9 0-.7-.1-1.5-.6-2.1-.6-.6-1.7-1-3.7-1.1.7-.2 1.3-.5 1.9-.8 1-.6 1.8-1.4 2.2-2.4z"/>
    <path fill="#372c26" d="M86.1 56.3c.6.2 1.3.6 1.8 1.1.7.6.9 1.1 1.2 1.7-1.1.3-2.1.3-3.1-.1-.2-.4-.3-.8-.6-1.1.2 0 .5-.1.7-.1l.4-.1-.1-.4c0-.4-.1-.7-.3-1zm21 0c-.2.3-.3.6-.4 1l-.1.4.4.1c.3.1.5.1.7.1-.2.4-.4.7-.6 1.1-1 .4-2 .4-3.1.1.3-.6.6-1.1 1.2-1.7.6-.5 1.3-.9 1.9-1.1zm-24.3 1.5c.6.2 1.2.2 1.8.2.7 1 1 2.3 1.1 3.4-1-.1-1.7-.1-2.6-.6-.1-.8-.3-1.6-.5-2.3h.5l-.3-.5v-.2zm27.6 0s0 .1-.1.1l-.3.5h.5c-.2.7-.4 1.5-.5 2.3-.9.5-1.6.5-2.6.6 0-1.1.4-2.5 1.1-3.4.7.1 1.3.1 1.9-.1zm-36.7.4c1.2.2 2.4.2 3.6.1.7 1.5.7 2.7.5 4-.4-.7-.8-1.1-1.3-1.6-.9-.8-1.9-1.2-2.8-1.5v-1zm45.8 0v1c-.9.3-1.9.8-2.8 1.5-.5.5-.9.9-1.3 1.6-.1-1.4-.1-2.5.5-4 1.2.1 2.4.1 3.6-.1zm-41 .1c1 .2 2.1.4 3.3.3.4 1.1.4 2.1.4 3.3-1.3 0-2.5-.4-3.5-.9-.1-.9-.3-1.8-.6-2.8l.4.1zm36.3 0h.4c-.4.9-.6 1.9-.6 2.8-1 .5-2.2.9-3.5.9 0-1.2.1-2.3.4-3.3 1.2 0 2.2-.2 3.3-.4zM86.4 60c1 .3 2 .3 3.1 0 .6 1 .8 2.1 1.1 3.3-1.3.1-2.6.1-3.6-.3l-.3-.9V62c-.1-.6-.1-1.3-.3-2zm20.4 0c-.2.7-.2 1.4-.2 2.1v.1l-.3.9c-1 .3-2.3.3-3.6.3.2-1.3.5-2.3 1.1-3.3 1 .2 2 .1 3-.1zm-23.6 1.7c.9.4 1.7.6 2.7.6.4 1.1.4 2.2.5 3.5-1.3-.2-2.5-.4-3.4-.9 0-.7 0-1.4-.2-2h.5v-.4c-.1-.2-.1-.5-.1-.8zm26.9 0V63h.5c-.2.7-.3 1.3-.2 2-.9.5-2.1.7-3.4.9 0-1.3.1-2.4.5-3.5.8-.1 1.7-.3 2.6-.7zm-31.4.2c.9.4 2 .7 3.1.9.6 1.4.5 2.8-.2 3.9 0-2-.9-3.7-2.9-4.1v-.7zm35.8 0v.8c-2 .4-2.8 2-2.9 4.1-.7-1.1-.8-2.5-.2-3.9 1.1-.2 2.2-.5 3.1-1zm-23 1.4c1.5.3 2.6 1.2 3.5 2.4-1 1-2.1 1.4-3.4 1.6-.2-1.1-.6-2.1-1-3h1.1l-.1-.4c-.1-.2-.1-.4-.1-.6zm10.3 0c0 .2-.1.3-.1.5l-.1.4h1.1c-.5.9-.8 1.9-1 3-1.3-.2-2.4-.6-3.4-1.6.9-1.1 2-1.9 3.5-2.3zm36 .1c2 .1 3.4.7 4.5 1.6 1.3 1 2.2 2.5 3.1 4.2 1.7 3.3 3.4 7.3 8.2 11.2-1.8-.2-3.2-.9-4.8-2.1v-.1c-.4-.3-.8-.7-1.3-1.1-2.5-2.2-5.3-5.2-8-8.7-.7.5.1 1.2.6 1.9-2.4-.2-4.9-.7-7.4-1 .4.6 1.8.8 3 1-.5.2-1.1.4-1.6.6-2.2.7-4.7 1-7.8 1.9.6.2 1.3.4 2.9-.2-.6.8-1.3 1.3-2.2 1.8-1.1.6-2.2 1.3-3.2 2.1.2.2.6.2.9 0-.2.4-.5.7-.8 1-.5.5-1.2.8-2 1-1.6.4-2.9.5-4.3 1.1-1.1.4-2.2 1.4-3.2 1.9-.5.2-.9.4-1.5.5h-.3c-.6 0-1.2-.2-2-.6-.4-.8-.7-1.6-.7-2.5.3 0 .5-.1.8-.1.8.1 1.2.3 1.6.6.5.3 1 .6 1.5.7.5 0 .5-.4.5-.4-.7-.3-1.1-.6-1.6-1l-.6-.3c1-.4 1.9-.9 2.8-1.6.7-.3 1.3-.2 1.8 0 .6.2 1.3.3 1.7.1.5-.2.5-.5.5-.5-.7 0-1.3-.2-2-.4-.3-.1-.5-.1-.8-.1.9-.7 1.8-1.5 2.7-2.3 1.2-.8 1.7-.6 2.4-.5.7.2 1.5.2 2 0 .6-.3.5-.6.5-.6-1 .3-1.5.1-2.3-.1-.3-.1-.7-.2-1.1-.1.5-.5 1-.9 1.5-1.4.8-.7 1.6-1.5 2.5-2.2 1.2-.4 1.6-.2 2.2 0 .6.3 1.7.5 2.3.3.3-.1.6-.5.6-.5-1.1.1-1.8-.2-2.5-.5-.3-.2-.7-.3-1.2-.3h-.1c1.2-.9 2.4-1.8 3.7-2.5 1.5-.5 1.8-.2 3.4.6 1 .5 1.3.2 1.3.2-.3-.3-.8-.9-1.5-1.4-.3-.2-.7-.3-1.1-.4 1.5-.6 3.1-1 4.8-1.1 1.2 0 1.6.8 2.5 2.1.6.9.8.8.8.8-.1-.4-.2-1.2-.7-1.9-.3-.1-.6-.4-1-.7zm-50.7.5c.8.2 1.7.3 2.6.4.5 1 .7 2.1 1 3.3-1.2 0-2.4 0-3.3-.3 0-.1-.1-.3-.1-.4h.2v-.4c-.2-.9-.3-1.7-.4-2.6zm19 0c-.2.8-.3 1.7-.2 2.6v.4h.2c0 .1-.1.3-.1.4-1 .3-2.1.3-3.3.3.2-1.2.4-2.3 1-3.3.8 0 1.7-.2 2.4-.4zm-23.3 1.9c.5.2 1.1.5 1.7.6.7 1.5.2 3-.9 4.1-.1-.7-.1-1.4-.2-1.9-.2-.6-.5-1.1-1-1.5.2-.3.3-.8.4-1.3zm27.6 0c.1.5.2.9.4 1.4-.5.4-.8.9-1 1.5-.2.5-.2 1.2-.2 1.9-1-1.1-1.6-2.7-.9-4.1.6-.2 1.2-.4 1.7-.7zm-14.7.6c.7 1.4.4 3.5-1.5 4.6 0-.6-.2-.9-.4-1.5s-.6-1.1-.9-1.6l.9-.3c.7-.4 1.3-.8 1.9-1.2zm1.8 0c.6.4 1.2.9 1.9 1.2.3.1.6.3.9.3-.3.4-.6 1-.9 1.6-.2.5-.4.9-.4 1.5-1.9-1.2-2.1-3.2-1.5-4.6zm-12 .3c.3.1.6.1.9.1.5 1.4.5 2.8.1 3.8-.3.9-1 1.5-1.9 1.6 0-.4-.2-.8-.3-1.1 1.1-1.1 1.7-2.8 1.2-4.4z"/>
    <path fill="#372c26" d="M107.8 66.7c-.5 1.6.1 3.3 1.2 4.5-.1.3-.2.6-.3 1.1-.9-.1-1.5-.7-1.9-1.6-.4-1-.4-2.5.1-3.8.3-.1.6-.2.9-.2zM92 68.1c.3.3.8 1 1.1 1.7.3.8.4 1.6.3 2l-.3.8.8-.3c.2-.1.4-.2.5-.2.6 1.1.5 2.2-.1 3.1-.6.8-1.5 1.4-3 1.7.1-.5 0-.9 0-1.4 0-.7-.2-1.3-.5-1.8.4-.6.6-1.2.7-1.9.2-1.1.1-2.2-.3-3.2h.5v-.4c.1-.1.2-.1.3-.1zm9.2 0h.3v.4h.5c-.3 1-.5 2.1-.3 3.2.1.7.3 1.3.7 1.9-.3.5-.4 1.1-.5 1.8 0 .5-.1.9 0 1.4-1.5-.3-2.4-.9-3-1.7-.6-.9-.7-2-.1-3.1.2.1.4.2.5.2l.8.3-.3-.8c-.2-.4 0-1.3.3-2 .3-.6.8-1.3 1.1-1.6zm-13.7.1c.9.2 1.9.4 2.9.4.4.9.5 2 .4 3-.2 1.1-.6 1.7-1.5 2.3-.1-1.4-.7-2.8-1.9-3.7.1-.6.1-1.3.1-2zm18.3 0c-.1.7 0 1.4.1 2-1.2.9-1.8 2.3-1.9 3.7-.9-.5-1.3-1.2-1.5-2.3-.2-1 0-2.1.4-3 1 0 2-.2 2.9-.4zm-9.2 1.3c.3.8.8 1.6 1.5 2.1-.6 1.2-.7 2.4-.2 3.5 0 .3-.2.7-.4 1.1-.2.4-.6.7-.9.9-.4-.3-.8-.6-1-.9-.3-.4-.4-.9-.3-1.1.5-1.1.4-2.3-.2-3.4.7-.7 1.2-1.4 1.5-2.2zM87.1 71c1 .8 1.4 2.4 1.4 3.7v.6l.6-.2.6-.3c0 1-.4 1.9-1.2 2.5-.9.6-1.9.7-3.5.4 1-1.6.9-3.4.4-4.8.7-.3 1.4-1 1.7-1.9zm19 0c.3.8 1 1.5 1.8 1.9-.5 1.5-.6 3.2.4 4.8-1.6.2-2.6.2-3.5-.4-.8-.6-1.2-1.4-1.2-2.5l.6.3.6.2v-.6c-.1-1.3.3-2.8 1.3-3.7zm29.4.6c.6.3 1.5.4 2.3.5 1.3 2.4 2.4 5.8 3.5 9.7 1.3 4.4 2.3 9.1 2.9 12.6-1.1-1.3-2.4-3.3-3.8-5.7.6.1 1.2.1 1.6-.2-.9-.1-1.6-.5-2.3-1-.3-.5-.6-1.1-.8-1.7-.9-1.9-1.8-4-2.7-6.1.7.2 1.4.3 1.9 0-1-.2-1.8-.7-2.5-1.5-.8-1.9-1.5-3.8-2.1-5.5.3-.2.7-.5.9-.7.4-.1.8-.3 1.1-.4zm5.6.1c2 2.3 3.8 4.4 5.7 6.1.6 2.5 1.5 5.2 2.7 7.9.7 1.8 1.6 3.6 2.6 5.3 0 .1.1.2.1.2.1.1.2.3.2.4 1.1 2 1.9 3.7 3 5.3-3.6-1.5-6.4-3.9-8.3-7.3.7.1 1.5.1 2-.3-1-.1-1.9-.5-2.7-1.1-1.4-2.8-2.5-5.8-3.5-8.8.8.3 1.6.5 2.2.1-1.1-.3-1.9-.9-2.7-1.7-.7-2.2-1.4-4.3-2.1-6 .1.1.5 0 .8-.1zm-9.3 1.9c1.3 2.5 3.1 7.9 4.4 11.8.7 2.1 1.2 4.9 1.7 7.6-1.2-.9-2.3-2.3-3.4-4 .4 0 .8-.1 1.2-.3-.6-.1-1.2-.3-1.7-.6-.2-.4-.5-.8-.7-1.3-.7-1.2-1.3-2.6-2-4 .7 0 1.3-.1 1.8-.4-1-.2-1.8-.6-2.6-1.2-.8-1.7-1.6-3.4-2.5-5.1.6-.6 1.1-1.1 1.4-1.7.6-.1 1.5-.4 2.4-.8zm-41.4 1.2c.1.2.1.5.1.8 0 .7-.1 1.3-.4 1.8l-.4.6.8-.1h.1V80c-.5.3-.9.4-1.4.4 0-.8-.2-1.6-.6-2.4 0 0 .1 0 .1-.1 1.2-.7 1.8-1.8 1.7-3.1zm12.4 0c0 1.3.5 2.5 1.5 3.2 0 0 .1 0 .1.1-.4.8-.6 1.7-.6 2.4-.4 0-.9-.2-1.4-.5v-2.1h.1l.8.1-.4-.7c-.3-.4-.4-1.1-.4-1.8.2-.2.3-.5.3-.7zM98.6 76c.7.8 1.8 1.5 3.2 1.8 0 1.2-.2 2.4-.4 3.4-2.2-.5-3.4-2-3.4-4.2.1-.1.2-.3.3-.4 0-.2.2-.4.3-.6zm-4 0l.3.6c.1.2.2.3.3.5 0 2.2-1.2 3.6-3.4 4.1-.2-1-.4-2.2-.4-3.4 1.5-.4 2.5-1 3.2-1.8zm31.7 1.5c1.3 2.4 2.1 3.4 3.3 7.2.7 2.2 1.2 4.1 1.6 6.5-1.7-1.1-2.9-2.2-4-3.8-.5-.8-1.1-1.7-1.6-2.7.8 0 1.6-.2 2.1-.7-1.3-.1-2.2-.4-3.2-1.2-.5-1-1.1-2.1-1.8-3.4.4-.2.8-.4 1.2-.7.8-.2 1.6-.6 2.4-1.2zm-29.1.2c.2 1.2.7 2.3 1.5 3.2.1.7-.1 1.7-.5 2.5s-.9 1.3-1.6 1.6c-.6-.3-1.2-.9-1.6-1.7-.4-.9-.6-1.9-.5-2.5.8-.8 1.3-1.9 1.5-3.1.1.1.3.2.4.3l.2.1.2-.1c.1-.1.3-.2.4-.3zm-9.1.7c.6 1.3.7 2.5.3 3.4v.1c-.2.5-.5 1-.9 1.4-.8.7-2.2 1.2-3.1 1.1-.6-.1-1.1-.2-1.7-.4.9-1.7 1.7-3.3 1.6-5.2 1.4.2 2.7.1 3.8-.4zm17 0c1.1.5 2.4.6 3.9.3-.1 1.9.7 3.5 1.6 5.2-.6.2-1.1.3-1.7.4-1 .1-2.4-.4-3.1-1.1-.4-.4-.7-.8-.9-1.4v-.1c-.5-.8-.4-2 .2-3.3zm44.1 1.3c1.1.7 2.2 1.3 3.4 1.6 1.5 6.2 4.8 11.7 8.3 17.1-5.6-3.8-9.2-11.2-11.7-18.7zM121 80c1.3 2.4 2.5 4.3 2.9 5.8.3 1.1.5 2.4.7 4.4-1.6-1.1-2.5-2.3-3.3-3.6-.1-.2-.2-.4-.3-.5.4 0 .9-.1 1.2-.3-.6-.1-1.2-.4-1.8-1-.5-1-.9-2.2-1.5-3.4.1-.1.2-.1.2-.1.4-.3.8-.6 1-1l.9-.3z"/>
    <path fill="#372c26" d="M102.4 80.8c.5.3 1 .4 1.5.4 0 .2.1.5.1.7 0 1.3-.3 2.6-.6 3.7-2.1-.5-3.3-1.9-3.5-3.9.5.3 1.1.5 1.8.5h.3l.1-.3c.2-.2.2-.6.3-1.1zm-11.6.1c0 .4.1.8.2 1.1l.1.3h.3c.6-.1 1.2-.3 1.8-.5-.2 2-1.4 3.5-3.5 3.9-.3-1.1-.5-2.4-.6-3.7.1-.2.1-.5.1-.7.6 0 1.1-.2 1.6-.4zm26.4 1.3c1.2 2.2 1.7 3.3 2.1 4.9.3 1.1.4 2 .3 3.3-1.2-.9-2-1.8-2.7-2.9-.7-1.2-1.4-2.7-2.2-4.6.8-.2 1.6-.4 2.4-.7h.1zm-23.3.3c.1.4.3.8.4 1.1.3.6.6 1.1 1 1.5.1 1.3-.3 2.3-1.1 3-.7.7-1.8 1-2.9 1.1-.1-.5-.1-1.1-.1-1.6s.1-1.1.2-1.6c1.4-.7 2.2-2 2.5-3.5zm5.4.1c.3 1.4 1.1 2.7 2.4 3.4.2 1.3.3 2.3.1 3.3-1.1-.1-2.2-.4-2.9-1.1-.7-.7-1.2-1.6-1.1-2.9.5-.5.9-1 1.1-1.6.2-.4.3-.7.4-1.1zm11.7.3c.5.2.9.2 1.4.3h.3c1.4 2.1 1.6 3.1 2.3 4.6.2.3.3.6.5 1 .9 3.6 1.8 6.9 2.7 9.7 0 1.7-.2 3.2-.6 4.8-.7-2.2-1.3-4.9-2.7-9.1-.1-.4-.3-.9-.5-1.3-.3-2.4-1-5.2-2.3-6.9.2.9.2 1.5-.2 2-.6-1.1-1.1-2.1-1.5-3.1.3-.1.6-.2 1-.3l.4-.2-.2-.4c-.2-.4-.4-.8-.6-1.1zm-22.5.4c.1 1.1.2 2.2.5 3.2l.1.3h.3c.2 0 .3-.1.5-.1.2 1.3-.3 2.3-1.2 2.9-.8.6-2 .7-3.5.5.8-1.7.9-3.2.3-5.1.9-.2 1.8-.6 2.5-1.2.2-.1.3-.3.5-.5zm16.2 0c.1.2.3.3.4.5.7.6 1.5 1 2.5 1.2-.6 1.8-.6 3.4.3 5.1-1.5.2-2.6.1-3.5-.5-.9-.7-1.4-1.6-1.2-2.9.2 0 .3.1.5.1h.3l.1-.3c.4-.9.5-2 .6-3.2zm-20.6 1.8h.6c.7 1.2.6 3.1-.3 4.6h-.1v.1c-.1.2-.2.3-.3.5l-.4.5.5.1c-.2.9-.5 1.7-.8 2.3-.4.7-1 1.1-1.6 1.4-.4-.8-.7-1.9-.8-3 1.1-2.1 2.4-4.3 3.2-6.5zm25 0c.8 2.2 2.1 4.4 3.2 6.5-.1 1.1-.4 2.2-.8 3-.7-.3-1.2-.6-1.6-1.4-.3-.6-.6-1.4-.8-2.3l.5-.1-.4-.5c-.1-.1-.2-.3-.3-.5v-.1h-.1c-.8-1.5-1-3.4-.3-4.6h.6zm-12.9.8c.1 0 .2.1.2.1l.2.1h.1c.1 0 .2-.1.3-.1.1 1.2.6 2.2 1.3 2.9l.2.2c0 .5-.1 1-.5 1.5-.3.4-.8.8-1.3 1.2h-.1s0 .1-.1.1c-.5-.3-1-.7-1.4-1.3-.4-.5-.6-1-.5-1.5l.2-.2c.8-.8 1.3-1.8 1.4-3zm47.1 0c.4 1.1.9 2.3 1.4 3.4.3.7.8 1.8 1.1 2.2.7 5.3 3 12.4 5.3 17.4 1.6 3.4 2.8 6.2 3.6 8.7-2.7-3.3-5-6.7-7-10.5.8.2 1.5.3 2.2-.1-.8-.1-2.5-1.2-3.6-2.6-1.3-2.6-2.3-5.4-3.2-8.4.6.6 1.2 1.1 1.8 1.6l.7.5-.1-.9c-.2-2.6-1.1-7-2.2-11.3zm-6 .5c.1.2.2.4.2.6.7 1.6 1.5 3.1 2.4 4.6.6 3.7 1.4 7.5 2.8 11.1 1 2.7 2 5.3 2.8 8-2.3-2.4-4.1-4.4-5.4-6.6.8.2 1.4.3 2.1-.1-.8-.1-2.6-1.3-3.6-2.6-1-2.1-1.9-4.6-2.8-7.7.9 1 1.9 1.9 3 2.5l.7.5-.1-.8c-.6-3.2-1.4-6.7-2.1-9.5zm-12.4.4c0 .1.1.1.1.2.6 1 1.1 1.8 1.8 2.6.7 5.2 1.6 7.1 2.5 9.9.8 2.3 1.5 4.5 1.8 7.1-1.8-1.7-3.3-3.9-4.5-6.4.9.2 1.7.4 2.5 0-.8-.1-2.7-1.4-3.7-2.8-.7-1.8-1.3-3.7-1.7-5.6.4.3.9.5 1.5.7l.6.2-.1-.6c-.2-2.5-.5-4-.8-5.3zm6.4.6c.3.7.7 1.4 1.2 2.1.7 5.2 1.3 7.5 2.7 11.1 1 2.6 1.5 4.4 1.7 6.5-1.7-1.6-3-3.4-4.2-5.6.9.2 1.6.4 2.4 0-.8-.1-2.6-1.3-3.6-2.7-.8-2-1.5-4.2-2.1-6.7.8.5 1.6 1 2.5 1.5l.7.4-.1-.8c-.2-2.3-.6-4.1-1.2-5.8z"/>
    <path fill="#372c26" d="M120.4 88.4c.2.4.5.8.8 1.3.7 5.1 1.3 6.8 2 9.2.6 1.9.9 3.6 1 5.9-1.3-1.4-2.4-3.2-3.3-5.2.8.2 1.3.3 2-.1-.8-.1-2.1-1.2-3.1-2.5-.6-1.6-1.1-3.3-1.5-5.1.4.3.8.6 1.3.9l.5.3.1-.5c.5-1.8.4-3.1.2-4.2zm-17.7.1c.2.7.7 1.3 1.3 1.8-.2 1-.1 2 .2 2.8-1.2-.4-2.2-1.5-2.4-3h.7l.1-.3c0-.4.1-.9.1-1.3zm-12.2 0c0 .4.1.9.2 1.3l.1.3h.7c-.3 1.5-1.2 2.5-2.4 3 .3-.9.4-1.8.2-2.8.5-.5 1-1.1 1.2-1.8zm8.8 1c.4.2.9.4 1.4.5.2.6.1 1.5-.1 2.3-.2.7-.5 1.3-.8 1.8-.9-.5-1.8-1.3-2.2-2.1.4-.3.7-.7 1-1.1.4-.4.6-.9.7-1.4zm-5.4 0c.1.5.3 1.1.7 1.5.3.4.6.7 1 1-.4.8-1.2 1.7-2.2 2.1-.3-.5-.6-1.1-.8-1.8-.2-.8-.3-1.7-.1-2.3.5-.1 1-.3 1.4-.5zm-5.4 1.1c.1 1 0 1.9-.4 2.6-.2-.6-.4-1.4-.2-2.4.2 0 .4-.1.6-.2zm16.2 0c.2.1.4.2.6.2.2.9 0 1.8-.2 2.4-.4-.7-.5-1.6-.4-2.6zm-19.8.5c.8.1 1.5.1 2.2 0-.2 1.2.1 2.2.4 2.8l.1.1c-.6.7-1.5 1.2-2.6 1.3-.2-1.2-.3-2.9-.1-4.2zm21.2 0c.7.1 1.4.1 2.2 0 .2 1.3.2 3.1-.1 4.3-1-.1-1.9-.5-2.6-1.3l.1-.1c.3-.8.6-1.8.4-2.9zm-14.4.7c0 .2.1.5.2.7.2.7.5 1.4.8 2-.7 1.5-2 2.2-3.4 2.5-.3-.8-.6-1.9-.4-3 1.2-.3 2.2-1.1 2.8-2.2zm9.8 0c.6 1.1 1.6 1.9 2.9 2.2.1 1-.1 2.2-.4 3-1.4-.2-2.7-1-3.4-2.5.3-.6.6-1.3.8-2 0-.2.1-.4.1-.7zm-5.3.8c.1.9-.1 2.2-.5 3.3-.2.6-.6 1.1-.9 1.4-.2.3-.5.3-.8.4-.3-1-.5-1.8-.4-2.8 1.1-.4 2.1-1.3 2.6-2.3zm.9 0c.5 1 1.5 1.9 2.5 2.3.1 1 0 1.8-.4 2.8-.3-.1-.5-.2-.8-.4-.3-.4-.6-.9-.9-1.4-.4-1.1-.6-2.4-.4-3.3zm-16.9.3c.2.9.5 1.8.9 2.5l.1.3.3-.1c1-.3 1.8-1 2.4-1.9 0 .8.1 1.5.2 2.1-.1.9-.6 1.7-1.2 2.3-.7.7-1.6 1.1-2.3 1.2-.7-1-1.5-2.7-1.3-3.9h-.1c.1-.3.2-.5.3-.8.2-.5.5-1.1.7-1.7zm32.8 0c.3.6.5 1.1.7 1.6.1.3.2.6.3.8h-.1c.2 1.2-.5 2.9-1.3 3.9-.8-.1-1.6-.5-2.3-1.2-.7-.6-1.1-1.4-1.2-2.3.1-.6.2-1.4.2-2.1.6.9 1.4 1.6 2.4 1.9l.3.1.1-.3c.4-.5.7-1.4.9-2.4zm35.9 1.9c1.6 1.4 3.3 2.5 5.1 3.4 1.7 4.9 2.1 8.1 4.6 13.1 1.9 3.8 2.8 7.2 3.4 10.3-3.1-3.1-5.8-7.2-7.9-11.6.9.2 1.6.4 2.4 0-.8-.1-2.4-1.2-3.5-2.4-1.8-4.3-3.1-8.6-4.1-12.8zm-60.9 0c0 1 .3 2 .6 2.7-.7 1.5-2.1 2.6-3.5 2.9-.2-.6-.4-1.2-.4-1.9-.1-.8 0-1.6.2-2.2 1.3-.1 2.3-.6 3.1-1.5zm17.2 0c.8.9 1.8 1.4 3 1.5.2.6.3 1.4.2 2.2-.1.7-.2 1.4-.4 1.9-1.4-.3-2.8-1.4-3.5-2.9.4-.7.7-1.7.7-2.7zm-8.6.7c.1.2.1.5.2.7.3.6.6 1.2 1 1.7l.3.3c.1.7 0 1.2-.3 1.8-.3.5-.7.9-1.2 1.2-.4-.3-.9-.7-1.2-1.2-.4-.6-.6-1.2-.4-1.8l.3-.3c.4-.4.8-1 1-1.7.2-.2.2-.5.3-.7zm-3.8.3c0 .9.2 1.7.6 2.6v.1c-.8 1.1-2.1 1.8-3.4 2.1-.3-1-.5-1.9-.4-2.9 1.3-.2 2.4-.8 3.2-1.9zm7.6 0c.8 1.1 1.9 1.7 3.2 1.9.1 1-.1 1.9-.4 2.9-1.2-.2-2.6-.9-3.4-2.1v-.1c.4-.9.6-1.7.6-2.6zm55.8.8c1.1 1.1 2.2 2 3.5 2.8 1.8 4.9 4.2 11.2 7.1 16.1 2.5 4.2 4.6 7.9 6.3 11.8-4.7-4-8.8-9.6-11.9-15.5.8.2 1.4.3 2.2-.1-.7-.1-2.3-1-3.3-2.2-1.6-3.4-2.9-6.9-3.7-10.2l.9.3 1.1.4-.7-1c-.4-.8-.9-1.6-1.5-2.4z"/>
    <path fill="#372c26" d="M78.7 97.3c.3 1.1.8 2.1 1.4 2.8l.1.1h.2c.7 0 1.5-.3 2.2-.8.1 1-.2 2.2-.7 3.2-.6 1-1.5 1.8-2.5 2.1 0-.1-.1-.2-.1-.4v-.4h-.1c-.2-.5-.4-1-.7-1.5-.4-.9-.7-1.7-.6-2.2.2-.9.5-1.9.8-2.9zm35.8 0c.3 1.1.6 2 .8 3 .1.6-.2 1.4-.6 2.2-.2.5-.5 1-.7 1.5h-.1v.4c0 .1-.1.2-.1.4-1-.3-1.9-1.1-2.5-2.1-.6-1-.8-2.2-.7-3.2.7.4 1.5.7 2.2.8h.2l.1-.1c.6-.9 1.1-1.9 1.4-2.9zm-30.5 1v.2c.1 1 .3 1.9.5 2.6l.1.3h.3c.3 0 .6-.1.9-.2-.2.8-.2 1.7.1 2.5l.1.1h.2c.4.1.9.2 1.3.1-.3.7-.9 1.3-1.6 1.7-.8.5-1.8.7-2.5.7-.5-1.2-.9-3-.5-4.1.5-1.1.6-2.3.4-3.4.1 0 .1-.1.2-.1.2-.1.3-.2.5-.4zm25.3 0c.1.2.3.3.4.5.1 0 .1.1.2.1-.3 1.1-.1 2.3.4 3.4.4 1.1 0 2.9-.5 4.1-.8.1-1.7-.2-2.5-.7-.7-.4-1.3-1-1.6-1.7.5 0 .9 0 1.3-.1h.2l.1-.1c.4-.8.3-1.7.1-2.5.3.1.6.2.9.2h.3l.1-.3c.3-.7.5-1.6.5-2.6.1-.1.1-.2.1-.3z"/>
    <path fill="#372c26" d="M88.8 98.8c.1.8.3 1.6.6 2.5l.1.3h.3c.3 0 .7-.1 1-.2-.4.6-1 1.1-1.6 1.4-.9.4-1.8.6-2.6.4-.2-.7-.1-1.5.1-2.4.9-.5 1.6-1.2 2.1-2zm15.6 0c.5.8 1.2 1.5 2 1.9.3.9.4 1.7.1 2.4-.8.1-1.7 0-2.6-.4-.7-.3-1.2-.8-1.6-1.4.3.1.7.2 1 .2h.3l.1-.3c.4-.8.6-1.6.7-2.4zm-10.2 0c.1.5.3 1.1.5 1.5.2.3.4.5.6.8-.2 1-1.1 2-2.5 2.1-.5-.8-.7-1.5-.5-2.6.8-.4 1.4-1 1.9-1.8zm4.8 0c.5.8 1.1 1.4 1.9 1.8.1 1-.1 1.8-.5 2.6-1.3-.1-2.2-1-2.5-2 .3-.2.5-.5.7-.8.2-.5.4-1 .4-1.6z"/>
    <path fill="#372c26" d="M91.5 101.7c.1.8.4 1.5.8 2.2l.1.2h.2c.4 0 .8-.1 1.2-.2-.3.6-.8 1.1-1.4 1.6-.9.7-1.9 1.1-2.9 1.3-.4-1.1-.6-2-.4-3.1.1-.1.2-.1.4-.1.8-.6 1.5-1.2 2-1.9zm10.2 0c.5.8 1.2 1.3 1.9 1.7.1.1.2.1.4.1.2 1.1 0 2-.4 3.1-.9-.1-2-.6-2.9-1.3-.6-.5-1.1-1-1.4-1.6.4.1.8.2 1.2.2h.2l.1-.2c.6-.5.8-1.2.9-2zm-5.7 0c.1.1.3.2.4.3l.2.1.2-.1c.1-.1.3-.2.4-.3.2.5.6 1 1 1.4.1.6-.1 1.1-.4 1.6-.3.5-.7.9-1.2 1.2-.4-.3-.9-.7-1.2-1.2-.3-.5-.5-1-.4-1.6.4-.3.8-.8 1-1.4zm-14 2.2c0 .8.2 1.6.5 2.3.2 1-.4 2.1-1.5 3-.9.7-2 1.1-3.1 1.2.6-.7 1-1.5 1.3-2.5.2-.8.3-1.5.3-2.3.9-.3 1.8-.9 2.5-1.7zm29.3 0c.7.8 1.5 1.4 2.6 1.6 0 .8.1 1.6.3 2.3.3.9.7 1.8 1.3 2.5-1.1-.1-2.2-.5-3.1-1.2-1.1-.9-1.8-2-1.5-3 .1-.6.3-1.4.4-2.2z"/>
    <path fill="#372c26" d="M88.3 104.1c-.1 1.1.2 2.1.6 3.2l.1.3h.3c.9-.1 1.8-.4 2.6-.9-.6 2.2-2.2 3.1-4.5 3.1-.4-1.2-.6-2.9-.1-4 .5-.6.8-1.1 1-1.7zm16.6 0c.2.6.6 1.1 1 1.6.5 1.1.3 2.9-.1 4-2.4.1-3.9-.9-4.5-3.1.8.5 1.7.8 2.6.9h.3l.1-.3c.4-1 .6-2 .6-3.1zm-10.5.3c.1.3.2.5.4.7.4.6.9 1.1 1.5 1.5 0 1-.7 2.2-1.6 3.2-.9.9-2 1.5-3.1 1.6-.2-.6-.2-1.5 0-2.3.8-.7 1.4-1.8 1.4-3.2l.1-.1c.4-.3.9-.8 1.3-1.4zm4.5.1c.4.6.9 1.1 1.4 1.5l.1.1c0 1.4.6 2.4 1.4 3.2.2.8.2 1.7 0 2.3-1.1-.1-2.2-.8-3.1-1.7-1-1-1.6-2.3-1.6-3.2.6-.4 1.1-.9 1.5-1.5.1-.3.2-.5.3-.7zm-12.6 2c-.2 1.3.1 2.7.4 3.7l.1.2h.3c-.9 1.5-2.2 2.3-4.3 2.2-.4-1.2-.8-2.9-.3-4 .3-.4.6-.9.7-1.4 1 .1 2.1-.2 3.1-.7zm20.6 0c1 .6 2.1.9 3.1.7.1.5.4 1 .7 1.4.5 1.1.2 2.8-.2 4-1.9.1-3.2-.5-4.3-2.2h.3l.1-.2c.3-1 .5-2.4.3-3.7zm-10.3 1.7c.3.8.9 1.5 1.5 2.2l.1.1c.1.7 0 1.2-.3 1.7s-.7.9-1.2 1.2c-.4-.3-.9-.7-1.2-1.2-.4-.6-.6-1.2-.4-1.8 0 0 .1 0 .1-.1.6-.5 1.1-1.3 1.4-2.1zm-15.1 1.5c-.1 1.3.2 2.6.6 3.6l.1.2h.3c-.4.7-1.1 1.3-2.1 1.7-1.1.4-2.4.4-3.6-.2 1.9-.9 2.9-2.6 2.7-4.1.7-.3 1.3-.7 2-1.2-.1 0-.1 0 0 0zm30.2 0c.1 0 .1 0 0 0 .6.5 1.3.9 2 1.2-.2 1.5.8 3.2 2.7 4.1-1.2.6-2.5.7-3.6.2-1-.4-1.7-1-2.1-1.7h.3l.1-.2c.4-1 .8-2.4.6-3.6zm-21.2.2v1.2c-.1.9-.9 2.1-2 3-1 .8-2.1 1.2-3.2 1.2-.1-.7-.1-1.5.2-2.3.1 0 .1-.1.2-.1 1-.5 1.8-1.3 2.2-2.4.8.1 1.7-.1 2.6-.6zm12.3 0c.8.5 1.7.7 2.6.6.4 1.1 1.3 1.9 2.2 2.4.1 0 .1.1.2.1.3.7.3 1.6.2 2.3-1.1 0-2.2-.5-3.2-1.3-1.1-.9-1.9-2.1-2-3v-1.1zm-8.6 1.4c0 .4.2.8.4 1.2-.2.9-.9 2.1-1.9 2.9-1 .8-2.1 1.2-3.2 1.2-.1-.7-.1-1.7.2-2.5.5-.5.9-1 1.2-1.6h.3c1-.1 2.1-.5 3-1.2zm4.8 0c.9.7 2 1.2 3.1 1.2h.3c.3.6.7 1.1 1.2 1.6.3.7.4 1.8.3 2.5-1.1 0-2.3-.4-3.2-1.2-1-.8-1.8-1.9-1.9-2.9.1-.4.2-.8.2-1.2zm-3.8 2c.3.4.7.7 1 .9v.3c-.2 1-1 2.3-2 3.4-1.1 1.1-2.4 1.8-3.4 1.9-.1-.8-.1-1.8.1-2.6.8-.3 1.6-.7 2.2-1.2 1-.8 1.7-1.7 2.1-2.7zm2.9.1c.4 1 1.1 1.9 2 2.6.7.5 1.4 1 2.2 1.2.2.8.3 1.8.1 2.6-1-.1-2.3-.8-3.4-1.9-1.1-1.1-1.8-2.4-2-3.4v-.3c.4-.2.8-.5 1.1-.8z"/>
    <path fill="#372c26" d="M84.5 113.4c-.2.9-.3 1.8 0 2.5l.1.2h.2c1.3.1 2.6-.4 3.7-1.2-.1.3-.1.7-.1 1-1.1.3-2 1-2.5 1.8s-.7 1.7-.6 2.5c-.4.2-1 .2-1.6.1-.8-.2-1.7-.6-2.1-1.2 0-.9.3-2.1.7-3.1.5-1.1 1.2-2.1 1.8-2.6.1.1.2 0 .4 0zm24.2 0c.1 0 .3.1.4.1.6.5 1.3 1.5 1.8 2.6s.7 2.2.7 3.1c-.4.6-1.3 1-2.1 1.2-.6.1-1.2.1-1.7-.1.2-.8-.1-1.7-.6-2.5s-1.4-1.6-2.5-1.8c0-.3 0-.7-.1-1 1.1.8 2.4 1.3 3.7 1.2h.2l.1-.2c.4-.8.4-1.7.1-2.6z"/>
    <path fill="#372c26" d="M81.7 115.4c-.1.1-.1.3-.2.4-.5 1.2-.9 2.5-.8 3.6v.2c.5.8 1.3 1.3 2.2 1.5-.8.4-1.7.6-2.5.5-1-.1-1.8-.5-2.3-1-.1-.5-.1-1.5.1-2.3.3-.9.8-1.7 1.3-1.9.4-.1.8-.2 1.1-.3.4-.3.8-.5 1.1-.7zm29.8 0c.3.2.7.4 1.1.6.4.1.7.2 1.1.3.5.2 1 1 1.3 1.9.3.9.3 1.8.1 2.3-.5.5-1.4.9-2.3 1-.9.1-1.8-.1-2.5-.5.9-.3 1.7-.7 2.2-1.5v-.2c0-1.1-.3-2.4-.8-3.6-.1-.1-.2-.2-.2-.3zm-14.9.4c.4.8.9 1.6 1.6 2.3.1.6 0 1.2-.3 1.7s-.7.8-1.2 1.1c-.4-.3-.9-.6-1.2-1.1-.4-.6-.5-1.1-.4-1.7.6-.7 1.1-1.5 1.5-2.3zm-19.7.2c.5.2.9.2 1.4.3-.3.5-.6 1.1-.8 1.6-.3.8-.3 1.7-.2 2.4-1.5.5-2.9.4-4-.1s-1.9-1.7-2.5-3.4c.9.2 2 .4 3 .3 1.3 0 2.4-.4 3.1-1.1zm39.4 0c.7.7 1.8 1 3.1 1.1 1 .1 2.1-.1 3-.3-.6 1.7-1.5 2.9-2.5 3.4-1.1.6-2.5.6-4 .1.1-.7 0-1.6-.2-2.4-.2-.6-.4-1.2-.8-1.6.5 0 1-.1 1.4-.3zm-27.8.8c0 .1.1.3.1.4l.1.2h1.4c-.2.7-.2 1.4-.2 2.1-.3.3-1 .6-1.7.8-.8.2-1.5.1-2.1-.2-.1-.5 0-1.2.4-1.9.5-.6 1.1-1.1 2-1.4zm16.3 0c.8.2 1.5.8 1.9 1.5.4.7.5 1.4.4 1.9-.5.3-1.3.3-2.1.2-.7-.2-1.4-.5-1.7-.8.1-.7 0-1.4-.2-2.1.4.1.8.1 1.1 0h.3l.1-.2c.1-.2.1-.3.2-.5zm-10.6 2.1c.1.5.3.9.5 1.3s.5.7.8 1c-.2.4-.6 1-1.1 1.3-.5.3-1.1.5-1.7.5-.1-.4-.1-.9-.1-1.4.1-.7.2-1.4.4-1.7.4-.3.8-.6 1.2-1zm4.8 0c.4.3.8.7 1.2.9.2.4.4 1.1.4 1.7 0 .6 0 1-.1 1.4-.6 0-1.2-.1-1.7-.5s-.9-.9-1.1-1.3c.3-.3.7-.6.9-1 .2-.2.4-.7.4-1.2zm-7 1.4c-.1.4-.2.8-.2 1.2-.1.7-.1 1.5.1 2v.2c-.3.2-.6.4-.9.5-.7.3-1.5.4-2.1.2-.2-.5-.3-1.2 0-2s.9-1.6 1.8-1.9c.5.1.9 0 1.3-.2zm9.2 0c.4.2.9.3 1.3.3.9.4 1.5 1.1 1.8 1.9.3.7.2 1.5 0 2-.6.2-1.4.1-2.1-.2-.3-.1-.7-.3-.9-.5v-.2c.2-.5.2-1.3.1-2-.1-.5-.1-.9-.2-1.3zm-33.2.5c1.6.9 3.4 1.1 5.4.3 1.3.5 2.7.5 4.3 0 .5.5 1.2.9 2 1.1-.4.4-.8.8-1.1 1.4v.1c-.3.1-.5.2-.7.4-2.6.3-5 0-6.8-.8-1.6-.6-2.5-1.5-3.1-2.5zm57.3 0c-.7 1-1.6 1.8-2.9 2.4-1.9.8-4.3 1.1-6.8.8-.2-.1-.5-.3-.7-.4v-.1c-.3-.5-.7-1-1.1-1.4.8-.2 1.5-.6 2-1.1 1.6.5 3 .5 4.3 0 1.8 1 3.6.7 5.2-.2zm-39.5.2c.8.4 1.7.4 2.5.2.2 0 .4-.1.6-.2-.3.4-.6.9-.7 1.3-.3 1-.3 2 .1 2.8-1.1.9-2.3 1.1-3.4.9-1.1-.2-2-.8-2.5-1.4.4-1.2 1.1-2.8 2.1-3.3.5-.1 1-.1 1.3-.3zm18.5 0c.2.1.4.1.6.2.8.2 1.8.2 2.5-.2.4.2.8.3 1.3.3 1 .6 1.7 2.1 2.1 3.3-.5.6-1.4 1.2-2.5 1.4-1.1.2-2.3 0-3.4-.9.4-.8.4-1.8.1-2.8-.2-.5-.4-.9-.7-1.3zm-8.1.8l.2.2.2.1.2-.1c.1 0 .1-.1.2-.1.3.5.7 1.1 1.3 1.5.5.3 1.1.6 1.8.6l.2.2c.3 1 0 1.8-.7 2.6s-1.8 1.2-3 1.7c-1.1-.5-2.2-.9-3-1.7-.8-.9-1.2-1.7-.8-2.6l.2-.2c.7-.1 1.3-.3 1.8-.6.7-.6 1.1-1.1 1.4-1.6z"/>
    <path fill="#372c26" d="M82.6 122.1c-.5.8-.9 1.7-1.1 2.5v.2l.1.1c.5.7 1.3 1.3 2.3 1.6-.7.4-1.6.6-2.4.6h-.8c-1.1-.2-2-.6-2.5-1.2.2-.6.5-1.3.9-1.9.5-.7 1-1.4 1.6-1.6.7-.1 1.3-.1 1.9-.3zm28 0c.6.2 1.3.2 1.9.2.6.3 1.1.9 1.6 1.6.4.7.7 1.4.9 1.9-.5.6-1.4 1.1-2.5 1.2h-.8c-.9 0-1.7-.2-2.4-.6 1-.3 1.8-.9 2.3-1.6l.1-.1v-.2c-.2-.7-.6-1.6-1.1-2.4zm-37.5 2.6c1.1.2 2.3.2 3.6.2-.8.8-1.4 1.9-1.8 3.1-.1.2-.2.5-.2.8-2.4.8-4.1 2.7-5 4.8-.2-1.7-.2-3.4.3-4.9.6-1.9 1.7-3.3 3.1-4zm47 0c1.4.7 2.5 2.1 3.2 3.9.5 1.5.6 3.2.3 4.9-1-2.1-2.6-4-5-4.8-.1-.3-.1-.5-.2-.8-.4-1.2-1-2.2-1.8-3.1 1.2.1 2.4.1 3.5-.1zm-28.1 0c0 .9.4 1.7 1.1 2.4v.3c-.5 2.2-1.6 3.2-2.8 3.5-.2-.5-.3-1.3-.3-2.3 0-1.1.2-2.3.4-3.4.4-.1.7-.2 1.1-.3.1 0 .3-.1.5-.2zm9.3.1l.6.3c.3.1.7.3 1.1.3.2 1.1.3 2.3.4 3.4 0 1-.1 1.8-.3 2.3-1.3-.4-2.4-1.4-2.8-3.7v-.1c.6-.8 1-1.6 1-2.5z"/>
    <path fill="#372c26" d="M77.8 124.9c-.2.4-.3.7-.4 1l-.1.2.1.1c.5.6 1.2 1.1 2.1 1.4-1.1.5-1.9 1.4-2.7 2.4-.7 1-1.3 2.1-1.7 3.1-.2-1.7-.1-3.4.4-4.9.6-1.4 1.4-2.6 2.3-3.3zm37.6 0c.9.7 1.7 1.9 2.2 3.3.5 1.5.6 3.2.4 4.9-.4-1-.9-2.1-1.7-3.1-.7-1-1.6-1.8-2.7-2.4.9-.3 1.7-.7 2.1-1.4l.1-.1-.1-.2c0-.3-.1-.7-.3-1zm-26.3.5h.3c-.1 1.2-.4 2.8-1.1 4.2-.2.4-.3.7-.5 1-.5.9-1.1 1.6-1.8 1.9-.6.3-1.2.4-1.9.2 1-1.7 1.9-4 2.3-6.1.9.1 1.8-.4 2.7-1.2zm14.7 0h.3c.9.8 1.9 1.3 2.8 1.4.3 2 1.3 4.4 2.3 6.1-.7.2-1.3.1-1.9-.2-.7-.4-1.3-1.1-1.8-1.9-1-1.7-1.6-3.9-1.7-5.4zm-21.2 2.5c-.2.3-.4.5-.5.8-.5.9-.8 1.7-1.1 2.6-.2-.6-.5-1.1-.5-1.6 0-.6.1-1.1.2-1.5.3-.1.5-.2.8-.2.3-.1.7-.1 1.1-.1zm11.2 0c.7.6 1.6 1.1 2.4 1.5-.3 2-1.2 2.9-2.2 3.4-.2-.4-.3-1.1-.4-2 0-1 .1-2 .2-2.9zm16.8 0c.4.1.8.1 1.2.1.3 0 .5.1.8.2.1.3.2.9.2 1.5 0 .5-.3 1.1-.5 1.6-.3-.8-.6-1.7-1.1-2.6-.2-.3-.4-.6-.6-.8zm-11.1 0c.1.9.1 1.9.1 2.9 0 .9-.2 1.5-.4 2-1-.4-1.9-1.4-2.2-3.4.9-.4 1.8-.9 2.5-1.5zm-10.4 1.9c0 .8.1 1.4.4 1.9l.1.2h.3c.4-.1.8-.3 1.2-.5-.3 1.2-.8 2.4-1.5 3.2-.4.5-.9.9-1.5 1-.4.1-.9 0-1.4-.1 1-1.7 1.8-3.7 2.2-5.7.2.1.2 0 .2 0zm15 0v.1c.3 2 1.1 4 2.2 5.7-.5.1-1 .3-1.4.1-.5-.2-1-.5-1.5-1-.7-.8-1.2-2-1.5-3.2.4.2.8.4 1.2.5h.3l.1-.2c.5-.6.6-1.2.6-2zm-11.2.1v.9c0 1.1.1 2.1.6 2.8l.2.2.3-.1c.1 0 .2-.1.2-.1l-.3 1.5c-.2.8-.5 1.5-.9 2.2-.6 1.1-1.4 1.6-2.4 1.8h-.3c.3-1.9 1-4.8 1.5-6.8.2-.5.3-1.1.4-1.6.2-.2.5-.5.7-.8zm7.5 0c.2.3.5.6.7.9.1.6.3 1.1.4 1.7.5 2 1.2 4.8 1.5 6.6-1.1-.1-2-.6-2.7-1.8-.4-.7-.7-1.5-.9-2.3-.1-.4-.2-.9-.3-1.4.1 0 .2.1.2.1l.3.1.2-.2c.4-.7.5-1.6.6-2.8v-.9zm-3.8 1.1c.4 1 1 1.8 1.7 2.2 0 .6.1 1.3.3 1.9 0 .7-.3 1.8-.7 2.7-.4.9-.9 1.5-1.3 2-.4-.5-.9-.9-1.3-1.8-.4-1-.7-2-.7-2.9.2-.6.3-1.3.3-1.9.7-.4 1.3-1.1 1.7-2.2z"/>
    <path fill="#372c26" d="M87.7 132.1c-.4 1.3-1.1 2.6-1.7 3.6l-.2.4.4.2c.4.2.7.3 1 .3-.8 2.4-2.2 5.1-4.2 7.4-1.9 2.2-4 3.7-6.5 4.3 3.4-3.4 6.4-8.1 8.3-14.5.5 0 1-.2 1.5-.4.5-.4 1-.8 1.4-1.3zm17.8 0c.4.5.9.9 1.4 1.2.4.2 1 .4 1.5.4 2 6.5 4.9 11.1 8.2 14.5-2.6-.6-4.6-2.1-6.4-4.3-1.9-2.2-3.4-5-4.2-7.4.3-.1.7-.2 1-.3l.4-.2-.2-.4c-.6-.9-1.2-2.2-1.7-3.5zm-15.3 3.3c-.4 1.6-.7 3.2-.9 4.3v.4h.8c-.7 2.5-1.8 5.3-3.5 7.5-1.6 2.1-3.5 3.6-6.3 4 2.9-3.5 5.9-8.4 7.9-15h-.1c.2 0 .3-.1.5-.1.5-.2 1.1-.6 1.6-1.1zm12.9 0c.5.5 1 1 1.7 1.2.2 0 .3.1.5.1h-.1c2 6.7 5 11.6 7.9 15.1-2.8-.4-4.7-1.9-6.3-4.1-1.7-2.2-2.8-5-3.5-7.5h.8v-.4c-.3-1.2-.6-2.8-1-4.4zm-4 1.4c.1.3.3.7.5 1 .6 1 1.5 1.9 2.6 2.3 2.1 6.4 5.3 11 7.8 14.4-2.8-.5-5.1-2.8-7.1-5.8-.5-.8-1.1-1.7-1.5-2.6l-.1-.1c-1.3-2.6-2.3-5.2-2.9-7.1l.3-.6c.1-.6.3-1.1.4-1.5z"/>
    <path fill="#372c26" d="M94 136.8c.1.5.3 1.1.5 1.6.1.2.2.3.2.5-.5 1.9-1.5 4.5-2.9 7v.1c-.5.9-1 1.7-1.5 2.6-2 3-4.2 5.2-7.1 5.7 2.4-3.4 5.7-8 7.7-14.4 1.1-.4 1.9-1.2 2.6-2.3.3-.2.4-.5.5-.8zm3.9 3c.6 1.9 1.5 4.2 2.7 6.5.9 4.6 1 7.2 1.2 10.4-1.6-1.2-2.9-3.6-3.6-6.5-.6-2.3-1-4.9-1.1-7.1 0-.8.1-1.6.1-2.3.2-.2.4-.6.7-1zm-2.5 0c.3.4.5.8.8 1.1 0 .7 0 1.5.1 2.3-.1 2.3-.5 4.8-1.1 7.1-.8 2.9-2 5.3-3.6 6.5.2-3.3.2-5.8 1.2-10.4 1.1-2.4 2-4.7 2.6-6.6zm1.2 7.3c.2 1.2.4 2.3.7 3.4.2.9.6 1.8.9 2.6.1 1.3-.7 2.7-1.6 3.7-.9-1-1.7-2.4-1.6-3.7.3-.8.6-1.7.9-2.7.3-1 .5-2.2.7-3.3zm-5.1 1.4c-.3 1.9-.5 3.4-.6 4.9-1 1.5-2.2 2.7-4.2 3.6-.1-1.4.3-2.6.9-3.8 1.3-1.1 2.4-2.5 3.4-4 .2-.3.3-.5.5-.7zm10.2 0c.1.2.3.5.4.7 1 1.5 2.1 2.9 3.4 4 .6 1.2 1 2.5.9 3.8-1.9-.9-3.1-2.1-4.2-3.6 0-1.5-.1-3.1-.5-4.9zM55.3 63.6c-2 .1-3.4.7-4.5 1.6-1.3 1-2.2 2.5-3.1 4.2-1.7 3.3-3.4 7.3-8.2 11.2 1.8-.2 3.2-.9 4.8-2.1v-.1c.4-.3.8-.7 1.3-1.1 2.5-2.2 5.3-5.2 8-8.7.7.5-.1 1.2-.6 1.9 2.4-.2 4.9-.7 7.4-1-.4.6-1.8.8-3 1 .5.2 1.1.4 1.6.6 2.2.7 4.7 1 7.8 1.9-.6.2-1.3.4-2.9-.2.6.8 1.3 1.3 2.2 1.8 1.1.6 2.2 1.3 3.2 2.1-.2.2-.6.2-.9 0 .2.4.5.7.8 1 .5.5 1.2.8 2 1 1.6.4 2.9.5 4.3 1.1 1.1.4 2.2 1.4 3.2 1.9.5.2.9.4 1.5.5h.3c.6 0 1.2-.2 2-.6.4-.8.7-1.6.7-2.5-.3 0-.5-.1-.8-.1-.8.1-1.2.3-1.6.6-.5.3-1 .6-1.5.7-.5 0-.5-.4-.5-.4.7-.3 1.1-.6 1.6-1l.6-.3c-1-.4-1.9-.9-2.8-1.6-.7-.3-1.3-.2-1.8 0-.6.2-1.3.3-1.7.1-.5-.2-.5-.5-.5-.5.7 0 1.3-.2 2-.4.3-.1.5-.1.8-.1-.9-.7-1.8-1.5-2.7-2.3-1.2-.8-1.7-.6-2.4-.5-.7.2-1.5.2-2 0-.6-.3-.5-.6-.5-.6 1 .3 1.5.1 2.3-.1.3-.1.7-.2 1.1-.1-.5-.5-1-.9-1.5-1.4-.8-.7-1.6-1.5-2.5-2.2-1.2-.4-1.6-.2-2.2 0-.6.3-1.7.5-2.3.3-.3-.1-.6-.5-.6-.5 1.1.1 1.8-.2 2.5-.5.3-.2.7-.3 1.2-.3h.1c-1.2-.9-2.4-1.8-3.7-2.5-1.5-.5-1.8-.2-3.4.6-1 .5-1.3.2-1.3.2.3-.3.8-.9 1.5-1.4.3-.2.7-.3 1.1-.4-1.5-.6-3.1-1-4.8-1.1-1.2 0-1.6.8-2.5 2.1-.6.9-.8.8-.8.8.1-.4.2-1.2.7-1.9.4-.1.6-.5 1-.7z"/>
    <path fill="#372c26" d="M57.6 71.7c-.6.3-1.5.4-2.3.5-1.3 2.4-2.4 5.8-3.5 9.7-1.3 4.4-2.3 9.1-2.9 12.6 1.1-1.3 2.4-3.3 3.8-5.7-.6.1-1.2.1-1.6-.2.9-.1 1.6-.5 2.3-1 .3-.5.6-1.1.8-1.7.9-1.9 1.8-4 2.7-6.1-.7.2-1.4.3-1.9 0 1-.2 1.8-.7 2.5-1.5.8-1.9 1.5-3.8 2.1-5.5-.3-.2-.7-.5-.9-.7-.4-.1-.7-.2-1.1-.4zm-5.6.2c-2 2.3-3.8 4.4-5.7 6.1-.6 2.5-1.5 5.2-2.7 7.9-.7 1.8-1.6 3.6-2.6 5.3 0 .1-.1.2-.1.2-.1.1-.2.3-.2.4-1.1 2-1.9 3.7-3 5.3 3.6-1.5 6.4-3.9 8.3-7.3-.7.1-1.5.1-2-.3 1-.1 1.9-.5 2.7-1.1 1.4-2.8 2.5-5.8 3.5-8.8-.8.3-1.6.5-2.2.1 1.1-.3 1.9-.9 2.7-1.7.7-2.2 1.4-4.3 2.1-6-.1 0-.4 0-.8-.1zm9.4 1.9c-1.3 2.5-3.1 7.9-4.4 11.8-.7 2.1-1.2 4.9-1.7 7.6 1.2-.9 2.3-2.3 3.4-4-.4 0-.8-.1-1.2-.3.6-.1 1.2-.3 1.7-.6.2-.4.5-.8.7-1.3.7-1.2 1.3-2.6 2-4-.7 0-1.3-.1-1.8-.4 1-.2 1.8-.6 2.6-1.2.8-1.7 1.6-3.4 2.5-5.1-.6-.6-1.1-1.1-1.4-1.7-.7-.1-1.6-.4-2.4-.8zm5.4 3.8c-1.3 2.4-2.1 3.4-3.3 7.2-.7 2.2-1.2 4.1-1.6 6.5 1.7-1.1 2.9-2.2 4-3.8.5-.8 1.1-1.7 1.6-2.7-.8 0-1.6-.2-2.1-.7 1.3-.1 2.2-.4 3.2-1.2.5-1 1.1-2.1 1.8-3.4-.4-.2-.8-.4-1.2-.7-.7-.1-1.6-.6-2.4-1.2zm-22.9 2.2c-1.1.7-2.2 1.3-3.4 1.6-1.5 6.2-4.8 11.7-8.3 17.1 5.6-3.8 9.2-11.1 11.7-18.7zm28.3.4c-1.3 2.4-2.5 4.3-2.9 5.8-.3 1.1-.5 2.4-.7 4.4 1.6-1.1 2.5-2.3 3.3-3.6.1-.2.2-.4.3-.5-.4 0-.9-.1-1.2-.3.6-.1 1.2-.4 1.8-1 .5-1 .9-2.2 1.5-3.4-.1-.1-.2-.1-.2-.1-.4-.3-.8-.6-1-1-.3-.2-.6-.3-.9-.3zm3.7 2.2c-1.2 2.2-1.7 3.3-2.1 4.9-.3 1.1-.4 2-.3 3.3 1.2-.9 2-1.8 2.7-2.9.7-1.2 1.4-2.7 2.2-4.6-.8-.2-1.6-.4-2.4-.7h-.1zm6.2.6c-.5.2-.9.2-1.4.3h-.3c-1.4 2.1-1.6 3.1-2.3 4.6-.2.3-.3.6-.5 1-.9 3.6-1.8 6.9-2.7 9.7 0 1.7.2 3.2.6 4.8.7-2.2 1.3-4.9 2.7-9.1.1-.4.3-.9.5-1.3.3-2.4 1-5.2 2.3-6.9-.2.9-.2 1.5.2 2 .6-1.1 1.1-2.1 1.5-3.1-.3-.1-.6-.2-1-.3l-.4-.2.2-.4c.2-.4.4-.7.6-1.1z"/>
    <path fill="#372c26" d="M49.9 86c-.4 1.1-.9 2.3-1.4 3.4-.3.7-.8 1.8-1.1 2.2-.7 5.3-3 12.4-5.3 17.4-1.6 3.4-2.8 6.2-3.6 8.7 2.7-3.3 5-6.7 7-10.5-.8.2-1.5.3-2.2-.1.8-.1 2.5-1.2 3.6-2.6 1.3-2.6 2.3-5.4 3.2-8.4-.6.6-1.2 1.1-1.8 1.6l-.7.5.1-.9c.1-2.6 1.1-6.9 2.2-11.3zm6 .6c-.1.2-.2.4-.2.6-.7 1.6-1.5 3.1-2.4 4.6-.6 3.7-1.4 7.5-2.8 11.1-1 2.7-2 5.3-2.8 8 2.3-2.4 4.1-4.4 5.4-6.6-.8.2-1.4.3-2.1-.1.8-.1 2.6-1.3 3.6-2.6 1-2.1 1.9-4.6 2.8-7.7-.9 1-1.9 1.9-3 2.5l-.7.5.1-.8c.5-3.2 1.3-6.8 2.1-9.5zm12.3.4c0 .1-.1.1-.1.2-.6 1-1.1 1.8-1.8 2.6-.7 5.2-1.6 7.1-2.5 9.9-.8 2.3-1.5 4.5-1.8 7.1 1.8-1.7 3.3-3.9 4.5-6.5-.9.2-1.7.4-2.5 0 .8-.1 2.7-1.4 3.7-2.8.7-1.8 1.3-3.7 1.7-5.6-.4.3-.9.5-1.5.7l-.6.2.1-.6c.3-2.5.6-4 .8-5.2zm-6.4.5c-.3.7-.7 1.4-1.2 2.1-.7 5.2-1.3 7.5-2.7 11.1-1 2.6-1.5 4.4-1.7 6.5 1.7-1.6 3-3.4 4.2-5.6-.9.2-1.6.4-2.4 0 .8-.1 2.6-1.3 3.6-2.7.8-2 1.5-4.2 2.1-6.7-.8.5-1.6 1-2.5 1.5l-.7.4.1-.8c.2-2.2.7-4.1 1.2-5.8zm10.9 1c-.2.4-.5.8-.8 1.3-.7 5.1-1.3 6.8-2 9.2-.6 1.9-.9 3.6-1 5.9 1.3-1.4 2.4-3.2 3.3-5.2-.8.2-1.3.3-2-.1.8-.1 2.1-1.2 3.1-2.5.6-1.6 1.1-3.3 1.5-5.1-.4.3-.8.6-1.3.9l-.5.3-.1-.5c-.5-1.8-.4-3.1-.2-4.2zm-28.4 6.4c-1.6 1.4-3.3 2.5-5.1 3.4-1.7 4.9-2.1 8.1-4.6 13.1-1.9 3.8-2.8 7.2-3.4 10.3 3.1-3.1 5.8-7.2 7.9-11.6-.9.2-1.6.4-2.4 0 .8-.1 2.4-1.2 3.5-2.4 1.7-4.2 3.1-8.6 4.1-12.8zM37 96.7c-1.1 1.1-2.2 2-3.5 2.8-1.8 4.9-4.2 11.2-7.1 16-2.5 4.2-4.6 7.9-6.3 11.7 4.7-4 8.8-9.6 11.9-15.5-.8.2-1.4.3-2.2-.1.7-.1 2.3-1 3.3-2.2 1.6-3.4 2.9-6.9 3.7-10.2l-.9.3-1.1.4.7-1c.4-.6 1-1.4 1.5-2.2zm33.3 27c.2.1.3.2.5.2.4.2.8.3 1.3.4-.6.4-1.1 1-1.5 1.6-.2 0-.3 0-.4-.1.1-.3.1-.7 0-1.1-.1-.3-.2-.6-.4-.8.1 0 .4-.1.5-.2zm-1.5.5h.2c.2.1.4.4.5.7.1.4 0 .7-.1.9-.1.1-.3.2-.5.2h-.3v-.7c-.1-.3-.2-.5-.3-.7 0 0 .1-.1.3-.2-.1-.1.1-.2.2-.2zm-1.5.4c.1 0 .1.1 0 0 .3.1.5.4.6.8.1.4 0 .7-.1.9-.1.1-.3.2-.5.2.1-.3.1-.6.1-.9-.1-.3-.2-.6-.4-.9.1 0 .2-.1.3-.1-.1.1 0 0 0 0zm-1.2.4c.1 0 .2.1.3.1.2.1.3.3.4.6.1.3 0 .6-.2.8-.1.1-.5.2-.7.2.1-.3.1-.6 0-.9 0-.3-.2-.5-.3-.8.1.1.4 0 .5 0zm56.9-1.1c-.2.1-.3.2-.5.2-.4.2-.8.3-1.3.4.6.4 1.1 1 1.5 1.6.2 0 .3 0 .4-.1-.1-.3-.1-.7 0-1.1.1-.3.2-.6.4-.8-.1 0-.3-.2-.5-.2zm1.6.5h-.2c-.2.1-.4.4-.5.7-.1.4 0 .7.1.9.1.1.3.2.5.2h.3v-.7c.1-.3.2-.5.3-.7 0 0-.1-.1-.3-.2 0-.2-.1-.2-.2-.2zm1.4.4s-.1 0 0 0c-.3.1-.5.4-.6.8-.1.4 0 .7.1.9.1.1.3.2.5.2-.1-.3-.1-.6-.1-.9.1-.3.2-.6.4-.9-.1 0-.2-.1-.3-.1.1 0 0 0 0 0zm1.3.4c-.1 0-.2.1-.3.1-.2.1-.3.3-.4.6-.1.3 0 .6.2.8.1.1.5.2.7.2-.1-.3-.1-.6 0-.9 0-.3.2-.5.3-.8-.2.1-.4 0-.5 0zm14.6 6.5c-1-.7-1-1.3-.1-1.3.8 0 1.7 1.4 1.1 1.8 0 .1-.5-.1-1-.5z"/>
    <path fill="#372c26" d="M139.7 132.4c-.3-.1-.5-.4-.6-.7-.1-.3-.2-.5-.3-.4-.1 0-.6-.2-1.2-.4-1.6-.8-2.7-1.1-3.6-1-.7.1-.9.3-1.6 1.4-1.1 1.7-1.4 1.8-2.4 1.1s-1-1 .2-1.9c1.1-.8 1.5-1.5 1.3-1.8-.1-.2-.9-.6-1.7-.9-.9-.4-.6-.8-.7-.9-.1-.1.3.7-.4.5-2.4-1 1.4-2.4.1-1 .3-.3-.2-.7.9-.4.9.5 2.9.7 3.7.7 1.4-.1 2.7-1.3 3.6-3.1 1-2.2 1.3-2.5 2.5-2 .5.2 1 .4 1.1.5.1.3-.4.8-.9.9-.4.1-.5.3-.5.6.1.8-.7 1.8-2.5 2.8-1.2.7-1.7 1.1-1.5 1.2.4.4 2-.2 4-1.6 1.1-.7 2.2-1.5 2.4-1.8.4-.4.5-.4.9.6.6 1.5.5 1.9-.5 1.9-.5 0-1.4.3-2.4.8-1.2.6-2 .9-2.8.9-2.7.1-.7.8 2.5.9l2.1.1-.6.7c-.4.4-.5.8-.4 1.1.3 1.2.2 1.5-.7 1.2zm4.9-7.5c-1.1.1-1.6-.3-1.3-.9.3-.5 1.1-.7 1.6-.5.5.2 1.3 1.2.9 1.3 0-.1-.6 0-1.2.1zm-16.2 9.2c-.2-.6.3-1.4.8-1.2.3.1.4.2.2.7-.3.8-.8 1-1 .5zm11.7-13.3c-.7.1-.8-.4-.2-1.2.4-.6.7-.7 1.2-.7 1 0 1 .2.2 1-.4.4-.7.7-.7.8-.1 0-.3 0-.5.1zm-88.7 10.7c1-.7 1-1.3.1-1.3-.8 0-1.7 1.4-1.1 1.8 0 .1.5-.2 1-.5z"/>
    <path fill="#372c26" d="M53.6 132.2c.3-.1.5-.4.6-.7.1-.3.2-.5.3-.4.1 0 .6-.2 1.2-.4 1.6-.8 2.7-1.1 3.6-1 .7.1.9.3 1.6 1.4 1.1 1.7 1.4 1.8 2.4 1.1s1-1-.2-1.9c-1.1-.8-1.5-1.5-1.3-1.8.1-.2.9-.6 1.7-.9.9-.4.6-.8.7-.9.1-.1-.3.7.4.5 2.4-1-1.4-2.4-.1-1-.3-.3.2-.7-.9-.4-.9.5-2.9.7-3.7.7-1.4-.1-2.7-1.3-3.6-3.1-1-2.2-1.3-2.5-2.5-2-.5.2-1 .4-1.1.5-.1.3.4.8.9.9.4.1.5.3.5.6-.1.8.7 1.8 2.5 2.8 1.2.7 1.7 1.1 1.5 1.2-.4.4-2-.2-4-1.6-1.1-.7-2.2-1.5-2.4-1.8-.4-.4-.5-.4-.9.6-.6 1.5-.5 1.9.5 1.9.5 0 1.4.3 2.4.8 1.2.6 2 .9 2.8.9 2.7.1.7.8-2.5.9l-2.1.1.6.7c.4.4.5.8.4 1.1-.4 1.2-.2 1.5.7 1.2zm-4.9-7.6c1.1.1 1.6-.3 1.3-.9-.3-.5-1.1-.7-1.6-.5-.5.2-1.3 1.2-.9 1.3 0 0 .6.1 1.2.1zm16.2 9.3c.2-.6-.3-1.4-.8-1.2-.3.1-.4.2-.2.7.3.7.8 1 1 .5zm-11.7-13.4c.7.1.8-.4.2-1.2-.4-.6-.7-.7-1.2-.7-1 0-1 .2-.2 1 .4.4.7.7.7.8 0 .1.3.1.5.1z"/>
    <g fill="#ffec00" fill-rule="evenodd" clip-rule="evenodd">
        <path d="M85.8 44.2l-3.3-6.9 3.5 1.1 1.5 3.1 3 1.1c-1.5.4-3.1.9-4.7 1.6zm22.3 0l3.3-6.9-3.5 1.1-1.5 3.1-3 1.1c1.6.4 3.2.9 4.7 1.6zm-5.7.2c1.6.4 3.3.9 4.9 1.6l.6-1.2c-1.6-.7-3.2-1.2-4.8-1.6-4-.9-8.1-.9-12.1 0-1.6.4-3.2.9-4.8 1.6l.6 1.2c1.6-.7 3.3-1.2 4.9-1.6 3.6-.8 7-.8 10.7 0zm-.6-2.1l-2.1-2.2v-3.5L97 34.2l-2.7 2.3V40l-2.1 2.2c3.2-.5 6.4-.5 9.6.1z"/>
        <path d="M97 34l-2.8 2.4V40L92 42.3c-.4.1-.7.1-1.1.2h-.1l-3.2-1.1-1.5-3.1-3.8-1.1c-.3-.2-.3-.5.1-.5 1.3.4 2.5.8 3.8 1.2.3.1.4.2.5.4.4 1 .8 1.9 1.2 2.9 1.1.4 2.2.7 3.3 1.1.8-.8 1.6-1.6 2.5-2.4v-3.5l3.3-3 3.3 3v3.5c.8.8 1.6 1.6 2.5 2.4 1.1-.4 2.2-.7 3.3-1.1.4-1 .8-1.9 1.2-2.9.1-.2.3-.4.5-.4 1.3-.4 2.5-.8 3.8-1.2.4 0 .4.3.1.5l-3.8 1.1-1.5 3.1-3.2 1.1h-.1c-.4-.1-.7-.2-1.1-.2L99.8 40v-3.5L97 34z"/>
        <path d="M97.1 38.2c-.2 0-.4.2-.4.4s.2.4.4.4.4-.2.4-.4c0-.3-.2-.4-.4-.4zm.2-7.6c-.1.1-.1.2-.1.4.1.5.8-.1 1-.2v1.1c-.2-.1-.5-.4-.8-.4-.5.1.1.8.2 1h-1.1c.1-.2.4-.5.4-.8-.1-.5-.8.1-1 .2v-1.1c.2.1.5.4.8.4.5-.1-.1-.8-.2-1h1.1c-.2.1-.3.3-.3.4z"/>
        <path d="M97 32.2c.5 0 .9.4.9.9s-.4.9-.9.9-.9-.4-.9-.9.4-.9.9-.9z"/>
    </g>
    <path fill="#ffec00" fill-rule="evenodd" d="M92.9 36.5s-2.1.5-2.8.5c-.7-.1-2.2.2-2.6 1 0 0 .2 1.6 1.2 2.6l1 .5 1.2.4s.9-1 1.6-1.5l.5-.4s-.3-.3 0-.3l-.1-2.8zm8.2 0s2.1.5 2.8.5c.7-.1 2.2.2 2.6 1 0 0-.2 1.6-1.2 2.6l-1 .5-1.2.4s-.9-1-1.6-1.5l-.5-.4s.3-.3 0-.3l.1-2.8zM85.4 40c-.2 0-.4.2-.4.4s.2.4.4.4.4-.2.4-.4c0-.3-.2-.4-.4-.4zm23.2 0c-.2 0-.4.2-.4.4s.2.4.4.4.4-.2.4-.4-.1-.4-.4-.4z" clip-rule="evenodd"/>
</svg>
