<svg xmlns="http://www.w3.org/2000/svg" viewBox="0 0 192 196.1">
    <circle fill="#edaf00" stroke="#4e4039" stroke-miterlimit="10" stroke-width="4.2583" cx="96" cy="98.1" r="89.3"/>
    <g fill="#f4f0e8">
        <path d="M96 144.6c-12.4.1-24.5-1.8-36.2-6.3-8.3-3.2-15.9-7.5-22.5-13.6-5.5-5.1-9.7-11.1-11.6-18.4-2.5-9.5-.7-18.3 4.5-26.4 4.2-6.5 9.9-11.4 16.3-15.4 8-5 16.7-8.3 25.9-10.4 6.6-1.5 13.4-2.3 20.2-2.5 13.3-.4 26.2 1.4 38.7 6 7.9 2.9 15.2 6.9 21.6 12.4 5.6 4.8 10.1 10.4 12.5 17.3 3.7 10.4 2.1 20.2-3.9 29.3-3.7 5.7-8.6 10.1-14.2 13.9-8.5 5.7-17.8 9.3-27.7 11.6-6.2 1.4-12.6 2.3-18.9 2.5-1.5.1-3.1 0-4.7 0zm-.1-4.8c4.8 0 9.6-.4 14.3-1.2 8.2-1.4 16-4 23.2-8.2 6.7-3.9 12.5-8.8 16.6-15.4 4.1-6.5 5.9-13.6 4.8-21.3-.8-5.8-3.3-11-6.9-15.6-4.7-6.1-10.8-10.6-17.6-14-10.2-5.1-21.1-7.5-32.5-7.7-5.8-.1-11.5.3-17.2 1.4-8.8 1.7-17.2 4.7-24.7 9.6C50 71.3 45 76 41.3 82.1c-3.6 6-5.1 12.5-4.3 19.5.6 5.6 2.8 10.6 6 15.1 5.1 7.1 11.9 12.2 19.7 15.9 10.5 5 21.7 7.2 33.2 7.2z"/>
        <path d="M71.3 98V82.9c0-.4 0-.8-.1-1.2-.2-.6-.5-.8-1.1-.4-.4.2-.7.6-1.1.8-.7.5-1.3.4-1.9-.2l-2.4-2.7c-.9-1.2-.9-1.8.3-2.7 2.3-1.6 4.7-3.3 7.1-4.6 6.2-3.3 12.8-5.1 19.8-5.5s13.9.3 20.5 3c3.9 1.6 7.4 3.8 10.1 7.1 5.3 6.5 1.9 15.8-3.8 18.8-.4.2-.7.7-1.1 1 .4.2.8.5 1.3.7 2.1.7 3.9 2 5.6 3.5 2.5 2.2 4.2 4.8 4.7 8.2.6 4.3-.7 8.1-3.4 11.4-3 3.7-7 5.9-11.4 7.6-4.3 1.6-8.7 2.4-13.2 2.8-7.2.7-14.2 0-21.1-2.2-5.1-1.7-9.9-4.1-14.4-7-.1-.1-.2-.1-.3-.2-1.3-1-1.4-1.3-.3-2.6.9-1 1.7-2 2.6-3.1.5-.6.9-.8 1.7-.4 1.3.7 2 .2 2-1.3-.1-5.3-.1-10.5-.1-15.7zm16 13v8.2c0 2.2.9 3.3 3.1 3.5 2.5.2 4.9.1 7.4.2 2.2 0 4.2-.5 6.1-1.3 7.8-3.4 7.7-12.3 4.3-16.3-2.6-3.1-6.1-4.5-10-4.8-3-.2-6.1 0-9.2 0-1 0-1.5.4-1.7 1.4-.1.3-.1.6-.1.9.1 2.6.1 5.4.1 8.2zm.2-26.7v7c0 1.6.4 1.9 1.9 1.9h5.8c1.5 0 3-.3 4.5-.8 4.8-1.8 7.2-5.9 6.3-11-.7-3.9-3.3-6.1-6.9-7.1-2.9-.8-5.9-.6-8.8-.3-1.8.2-2.7 1.5-2.7 3.3-.1 2.4-.1 4.7-.1 7z"/>
    </g>
</svg>
