<svg xmlns="http://www.w3.org/2000/svg" viewBox="0 0 192 196.1">
    <circle fill="#e0c580" cx="96" cy="98.1" r="93.5"/>
    <path fill="#4e4039" d="M96 193.8c-52.8 0-95.7-43-95.7-95.7S43.2 2.3 96 2.3s95.7 43 95.7 95.7-42.9 95.8-95.7 95.8zM96 6.7C45.6 6.7 4.7 47.7 4.7 98c0 50.4 41 91.3 91.3 91.3 50.4 0 91.3-41 91.3-91.3S146.4 6.7 96 6.7z"/>
    <g fill="#4e4039">
        <path d="M145.6 85.6c1-1.4 1.8-2.4 2.5-3.4l-.3-.3c-.9.9-1.8 1.7-2.5 2.7-4.9 7-4.4 5.9-11.6 6-2.9 0-5.8.1-8.7.1-.6 0-1.1 0-2-.1.9-1.5 1.7-2.7 2.5-4 .8-1.2 1.6-2.3 2.3-3.7-.9.8-1.9 1.4-2.6 2.3-2.9 4.2-5.7 8.5-8.4 12.8-4.4 6.9-3.9 6.2-11.7 6.3h-1.6c-.2.7-.4 1.3-.5 2-.1.6-.1 1.3 0 1.9 1.8-3.5 1.8-3.4 5.8-3.5 2.6 0 5.1-.3 6.8-2.7.3-.4 1-.5 1.6-.5h10.3c2.9 0 3.8 1.7 2.4 4.2-1.6 2.9-4.2 4.1-7.3 4.2-4.3.1-8.7.1-13 .1h-1.9c-.6 4.1-1.1 8-1.8 11.9-.5 2.6-1.1 5.2-2 7.7-.8 2.3-1.6 2.6-4 2.6-.7 0-1.5.2-1.9.6-2.3 2.2-5.4 1.2-6.5-1.3-1.6-3.4-3.2-6.9-4-10.6-2.8-12.3-1.8-24.5 2.8-36.3.7-1.8 1.9-3.4 3.2-4.8 1.4-1.5 2.8-1.3 4.4.1.5.5 1.3.8 2 .8 2.3 0 3.6 1.3 4 3.3 1.1 4.9 2.1 9.8 3.1 14.8.3 1.4.3 2.8.4 4.2 3.2 1 4.9.4 6.7-2.3 3.2-4.9 6.4-9.7 9.5-14.7 2.1-3.4 5.1-5.1 9-5.2 5.4-.2 10.8-.2 16.2-.2 9.2-.1 18.4-.1 27.6-.1.8 0 1.7.1 2.6.2-1 2.8-3.8 4.7-7 4.8-6.7.1-13.4.1-20.1.1h-6.3zm-53.8 7.5c1.6-4.4 2-9.3 5.5-13-1.9-.9-2.8.4-3.3 1.3-1.2 2.3-2.5 4.8-3.2 7.3-2.7 9.2-3.3 18.7-2 28.2.5 3.6 1.6 7.2 2.4 10.8.2 0 .4-.1.6-.1-2-5.7-3.3-11.6-3.3-17.7s.3-12.2 2-18.5c.7.7 1 1.2 1.3 1.7-2.3 11.9-2.5 23.7 1.9 35.3-.6-2.4-1.2-4.8-1.9-7.5h4.1v-.3c-1.4-.1-2.8-.3-4.2-.4 0-.2 0-.5.1-.7 1.3-.1 2.5-.1 3.8-.2v-.2c-1.4-.1-2.8-.3-4.2-.4 0-.2 0-.5.1-.7 1.4-.1 2.8-.1 4.2-.2v-.5h-2.6c-1.5 0-1.5 0-1.6-1.1 1.3-.1 2.7-.2 4-.2v-.4c-1.4-.1-2.9-.1-4.3-.2v-.7c1.4-.1 2.8-.2 4.1-.3v-.4c-1.4-.1-2.7-.2-4.1-.3v-.5h3.7v-.4c-1.3-.1-2.5-.1-3.8-.2v-.5c1.3-.1 2.7-.2 3.9-.3v-8c-1.4-.1-2.8-.1-4.1-.2v-.6c1.4-.1 2.8-.2 4.2-.2v-.6c-1.4-.1-2.7-.2-4.1-.3v-.5c1.3-.1 2.6-.1 3.9-.2v-.4c-1.2-.1-2.5-.1-3.7-.2v-.6c1.3-.1 2.7-.2 4-.3v-.3l-3.9-.3v-.7c1.3-.1 2.6-.2 3.9-.2v-.3c-1.2-.1-2.4-.2-3.7-.3V97h4v-.4c-1.3-.1-2.7-.2-4-.3v-.7c1.3-.1 2.6-.3 3.9-.4v-.1c-1.2-.1-2.3-.2-3.5-.3V94c1.3-.1 2.6-.1 4-.2v-.2c-1.4-.3-2.8-.4-4.1-.5zm9.2 11.3c.1-.1.3-.1.4-.2-1-2-1.8-4.2-3.1-6.1-1.6-2.3-.1-4.2-.2-6.3h.5v5.6h.6c.2-2.5.4-4.9.4-7.4 0-.6-.8-1.3-.7-1.8.2-1.3.7-2.5 1.2-3.7.2-.5.9-.8 1.4-1.1.3.5.8 1.1.9 1.6.1 2.1 0 4.2 0 6.3.3-1.7-.2-3.6.5-4.9.8-1.6 0-2.4-.5-3.4-.7-1.5-1.7-1.6-2.3 0-1 2.3-1.9 4.6-2.6 7-2.1 7.8-2.3 15.7-1.7 23.7.4 5.2 1.2 10.5 3.6 15.3.5.9 1.4 1.7 2.1 2.5.7-.9 1.7-1.7 1.9-2.8 1-4.3 1.9-8.6 2.7-12.9.3-1.8.4-3.7.5-5.6h-2.5c.6 1.6 1.4 3 1.6 4.5.3 1.7-.8 2.5-3.4 2.9v8.9c0 .8 0 1.6-.1 2.3-.1.4-.5.8-.8 1.2-.3-.3-.9-.5-1-.9-.5-1.5-1-3-1.1-4.6s.1-3.3.2-5c0-.4-.1-.8-.2-1.1h-.5c-.1 1.5-.2 3-.3 4.4-.6-2.8-.8-5.5.8-8-.7.8-1.3 1.6-2.1 2.5-1.2-2.6-1.1-4.9.4-6.7-.7-.6-1.5-1.1-1.5-1.5.2-1.6-1-3.6 1.1-4.9-1.8-2.2-.5-4.4 0-6.7 1.4 2.3 2.6 4.6 3.8 6.9zM89 92c-2.9 6.8-2.9 26-.3 28.7-1.8-9.8-1.1-19.3.3-28.7zm13.6 10.5h.4c.2-.6.6-1.2.7-1.8.4-1.3.8-2.7 1-4.1 0-.4-.8-.9-1.3-1.3-.3.5-.8.9-.8 1.4-.1 1.9 0 3.9 0 5.8zm-36.9-20c1.6 2.5 3.2 5 5.1 8h-4.9c-3.7 0-7.4-.1-11 .1-1.9.1-3.5-.6-4.7-2.1-1.3-1.7-2.6-3.4-4.2-4.9.3.7.7 1.3 1.1 2.2-.4 0-.7.1-1 .1-8.5-.1-17.1-.2-25.6-.3-2.6 0-4.7-1.2-6.4-3.1-.4-.5-.6-1.2-.9-1.9.6-.2 1.3-.5 1.9-.5 13.9.1 27.8.2 41.7.4 2.4 0 4.7 0 7.1.4 2.8.4 4.7 2 6.1 4.4 2.5 4.4 5.1 8.8 7.6 13.3 2.9 5 3.7 4.9 7.6 5.6v5.8c-5.7 0-11.3.2-16.8-.1-3.3-.2-5.9-2.1-7.2-5.3-.8-2 0-3.2 2.1-3.2 4.1 0 8.2 0 12.3.1.6 0 1.2.5 1.8.9 1 .6 2 1.3 2.8 1.9-1.9-3-3.8-6-5.6-9.1-1.9-3.2-3.7-6.4-5.5-9.6-1-2-1.8-2.6-3.4-3.1z"/>
        <path d="M76.5 100.7c-5.3 0-10.1.1-14.9 0-2.8-.1-6.4-3.8-6.8-6.7-.2-1.5.4-2.4 1.8-2.4 4.7 0 9.4 0 14 .1.3 0 .8.3 1 .6 1.6 2.7 3.1 5.4 4.9 8.4zm-23.8-8.8h-.5c-8.4-.1-16.7-.2-25.1-.2-3 0-5.5-1.2-7.6-3.3-.4-.4-.5-1.1-.7-1.7.5-.2 1.1-.5 1.6-.5l26.1.3c.5 0 1 .3 1.4.6 1.7 1.6 3.3 3.2 4.8 4.8zm.3.5c.9 2.2 1.5 3.9 2.2 5.7-.1 0-.3.1-.5.1-6.9 0-13.9 0-20.8-.2-3-.1-5.6-1.4-7.5-3.8-.3-.4-.5-1-.4-1.4.1-.3.8-.5 1.2-.5 8.8 0 17.5.1 25.8.1zm84 5.5c.5-1.7 1-3.3 1.6-5.3h28c-.5 2.4-3.3 5.2-6.1 5.2-7.8.2-15.7.1-23.5.1zm3.7-6.4c1.1-1.2 2.2-2.5 3.5-3.8.5-.5 1.3-1.2 2-1.2 8.7-.1 17.3-.1 26-.1.4 0 .9.1 1.3.2-.5 2.2-3.1 4.8-5.7 4.8-9.1.2-18.3.1-27.1.1zm-24 9c1.9-2.9 3.5-5.6 5.3-8.3.2-.3.8-.5 1.2-.5h11.6c1.6 0 2.3.9 2.1 2.6-.3 2.5-3.1 5.9-5.6 6.1-4.8.2-9.5.1-14.6.1zm-56.1 1.4c-.2.5-.3 1.1-.5 1.7-6.2 0-12.4.1-18.6 0-2.5-.1-4.4-1.6-6.1-3.3-.2-.3-.5-.8-.4-1.1.1-.3.7-.5 1-.5 6.5 0 13.1.1 19.6.1.4 0 .8.2 1.1.4 1.3.9 2.5 1.7 3.9 2.7zm70.8.3c1.5-1.1 2.8-2 4.2-2.9.5-.3 1.1-.5 1.6-.5 6.2-.1 12.3-.1 18.5-.1.6 0 1.2.2 2.1.4-2.4 2.8-4.9 4.4-8.3 4.4-5.6 0-11.1-.1-16.7 0-1.1-.1-1.4-.5-1.4-1.3z"/>
    </g>
</svg>
