<svg xmlns="http://www.w3.org/2000/svg" viewBox="0 0 192 196.1">
    <circle fill="#2a8e00" cx="96" cy="98" r="87.2"/>
    <path fill="#4e4039" d="M96 187.3c-49.2 0-89.3-40.1-89.3-89.3C6.7 48.8 46.8 8.8 96 8.8s89.3 40.1 89.3 89.3-40.1 89.2-89.3 89.2zm0-174.4c-46.9 0-85.1 38.2-85.1 85.1s38.2 85.1 85.1 85.1 85.1-38.2 85.1-85.1S142.9 12.9 96 12.9z"/>
    <path fill="#f4f0e8" d="M94.9 42.5c20.2 0 37.8 2.3 55.2 6.3 6.5 1.5 10.7 5.5 12 12.2 4.5 23.4 4.7 46.8 1.1 70.3-1.4 8.8-6.4 14.1-15.2 16.1-25 5.7-50.2 7.8-75.7 4.9-8.7-1-17.4-2.4-26.1-4-12.5-2.3-16.1-6.6-17.9-20.7-2.8-21.2-2.8-42.3.6-63.5 1.5-9.3 4.8-13.2 13.9-15.3 17.9-4.1 36.1-6.2 52.1-6.3zm-66.1 54c1.1 11.3 1.8 21.6 3.1 31.7.9 6.9 3 13.5 10.9 15.6 3.9 1.1 7.9 1.9 11.8 2.6 29.8 4.9 59.5 4.9 89.2-1.5 11.2-2.4 14.5-5.7 16.3-17 3.2-20 2.3-40-.3-60-1.5-11.7-4.4-14.4-16.1-17.1-1.7-.4-3.4-.7-5.1-1-32-5.7-63.9-5.2-95.5 2.6-5.7 1.4-9.8 4.7-10.5 11.1-1.2 11.4-2.6 22.7-3.8 33z"/>
    <path fill="#2a8e00" d="M28.8 96.5c1.2-10.3 2.6-21.6 3.8-32.9.7-6.4 4.8-9.7 10.5-11.1 31.6-7.8 63.5-8.3 95.5-2.6 1.7.3 3.4.6 5.1 1 11.7 2.7 14.6 5.4 16.1 17.1 2.6 20 3.4 40 .3 60-1.8 11.3-5.1 14.6-16.3 17-29.6 6.4-59.4 6.4-89.2 1.5-4-.7-7.9-1.5-11.8-2.6-7.9-2.1-10-8.7-10.9-15.6-1.3-10.2-2-20.4-3.1-31.8zm93.5-19.2c.3-.3.6-.7.9-1 3 .4 5.9.6 8.9 1.1 10.9 1.5 9.5 2.5 9.3-9.2 0-1.2-1.7-3.4-2.9-3.5-8.4-1.2-16.8-2.7-25.3-2.9-7.7-.1-12.6 6.2-11.6 13.6.3 2.3 1.4 4.7 2.7 6.7 6.3 9.9 12.8 19.6 19.1 29.4 3.2 5 2.3 7-3.4 7.7-3.4.4-6.9 1-10.3 1.2-11.1.6-9.5-.5-9.6 10.6 0 3.4 1.2 4.9 4.6 4.5 9.4-1.1 19-1.6 28.3-3.4 12.1-2.3 16.2-12.6 9.6-22.9-4.7-7.4-9.7-14.7-14.5-22.1-2.1-3.2-3.9-6.5-5.8-9.8zm-54.6 36h12.2c10.9-.1 8.8-.3 8.9-9.3.1-5.5-.3-5.8-6-5.8H67.1c0-6.8.1-12.7 0-18.6-.1-2.4 1-3.4 3.2-3.5 4.3-.3 8.6-1 12.9-1.2 9.7-.5 9.1.7 9-9.9 0-3.7-1.4-5.4-5.1-4.9-10.6 1.2-21.2 2.2-31.8 3.6-6.2.8-6.2 1.1-6.2 7.4.1 16.4.3 32.9.5 49.3.2 11.4.2 11.4 11.7 13.2 5.8.9 6.3.5 6.3-5.3.1-4.9.1-9.6.1-15z"/>
    <path fill="#f4f0e8" d="M122.3 77.3c1.9 3.3 3.7 6.6 5.7 9.8 4.8 7.4 9.8 14.6 14.5 22.1 6.6 10.3 2.5 20.7-9.6 22.9-9.3 1.8-18.9 2.3-28.3 3.4-3.3.4-4.6-1.1-4.6-4.5.1-11.2-1.5-10.1 9.6-10.6 3.5-.2 6.9-.7 10.3-1.2 5.7-.7 6.7-2.7 3.4-7.7-6.3-9.8-12.8-19.5-19.1-29.4-1.3-2-2.4-4.4-2.7-6.7-1-7.4 3.9-13.7 11.6-13.6 8.4.1 16.9 1.6 25.3 2.9 1.2.2 2.9 2.3 2.9 3.5.2 11.7 1.6 10.7-9.3 9.2-3-.4-5.9-.7-8.9-1.1-.2.4-.5.7-.8 1zm-54.6 36v14.8c0 5.8-.5 6.2-6.3 5.3-11.5-1.7-11.5-1.7-11.7-13.2-.2-16.4-.4-32.9-.5-49.3-.1-6.3 0-6.5 6.2-7.4 10.6-1.4 21.2-2.4 31.8-3.6 3.8-.4 5.1 1.2 5.1 4.9 0 10.6.7 9.4-9 9.9-4.3.3-8.6 1-12.9 1.3-2.3.2-3.3 1.1-3.2 3.5.1 5.9 0 11.8 0 18.6h15.7c5.7 0 6.1.3 6 5.8-.2 9 2 9.2-8.9 9.3-4 .1-7.9.1-12.3.1z"/>
</svg>
