<svg xmlns="http://www.w3.org/2000/svg" viewBox="0 0 192 196.1">
    <path fill="#393938" d="M83.1 57.7H53.8V46.8h9.8V46l-.1-.8-.2-.7-.2-.7-.3-.7-.3-.7-.3-.6-.3-.7-.4-.6-.4-.5-.5-.6-.5-.5-.5-.5-.5-.5-.6-.5-.5-.3-.6-.4-.7-.4-.6-.3-.3-.1-.3-.1-.7-.3-.7-.3-.7-.2-.7-.2-.7-.2-.7-.1-.8-.1-.8-.1H48l-1.6.1-.9.1-.8.1-.7.1-.8.2-.7.2-.7.3-.7.3-.8.3-1.3.7-1.3.8-1.3.9-.6.5-.6.5-1.2 1.1-1 1.1-1.1 1.3-1.1 1.3-1.1 1.4-1.1 1.5-1.1 1.5-1.1 1.6-1 1.3-.9 1.3-.9 1.4-.8 1.4-.9 1.4-.8 1.5-.7 1.4-.7 1.5-.7 1.5-.7 1.5-.6 1.5-.6 1.5-.6 1.5-.5 1.5-.5 1.5-.5 1.5-.5 1.5-.5 1.5-.6 1.6-.3 1.5-.7 3.1-.3 1.6-.3 1.6-.2 1.6-.1 1.6-.1 1.6-.1 1.6-.1 1.6-.2 1.6v3.2l.1 1.6v1.6l.1 1.6.1 1.6.3 3.2.2 1.6.2 1.6.3 1.6.3 1.6.3 1.5.3 1.6.4 1.6.4 1.5.4 1.5.5 1.6.5 1.5.5 1.5.6 1.5.5 1.5.6 1.5.7 1.5.7 1.5.7 1.5.7 1.5.8 1.5.7 1.4.8 1.5.9 1.4.9 1.4.9 1.4.9 1.3V95.2H28v54.7l1.3 1.7 1.4 1.7 1.4 1.6 1.5 1.7 1.5 1.6 1.6 1.6 1.7 1.5 1.7 1.6V95.2H42v69.2l1.4 1.1 1.4 1.1 1.4 1.1 1.5 1.1 1.5 1 1.5 1 1.6.9 1.6 1V95.2h20.9l2.1 7.6-11.2 14h9.8l-8.2 20.1H56.8l-.1.8-.1.9v1.9l.1.7.1.7.1.7.2.8.3.7.3.8.4.7v.1l.1.1h.4l.2-.1.2-.1.1-.2.1-.2v-.3l-.1-.5-.1-.4-.1-.4v-1l.1-.6.1-.3.1-.3.3-.4.4-.4.4-.3.3-.1.2-.1.5-.2.3-.1h.2l.5-.1h.5l.5.1.4.1.4.1.2.1.1.1.1.1.1.2.1.2v.2l-.1.3-.1.3-.1.6-.3.6-.3.7-.4.7-.9 1.4-.8 1.3-1.2 1.7v.2l.1.2.2.3.3.3.4.4.4.4 1 .9 1 .8 1 .7.5.3.4.2.3.1h.2l.1-.1.1-.1.1-.2.1-.2-.1-.3v-.3l-.1-.2-.1-.1-.1-.1-.1-.1h-.1l-.1-.1-.1-.1-.1-.1-.1-.1-.2-.2-.1-.1-.1-.1-.1-.3-.1-.3-.1-.3v-1.3l.1-.9.1-.5.1-.5.3-1.1.2-.5.1-.5.4-.9.5-.9.4-.8.5-.7.3-.3.2-.3.2-.2.2-.1.2-.1h.2l.1.1.1.1.1.1.1.1.1.1.2.3.3.9.1.7.1.8.1.8v.9l.1.9-.1 1.9v1.8l.1 1.7v.7l.1.6.1.5.1.1.1.1h.1l.1.1h.8l.7-.1.5-.1.5-.1.5-.1.5-.2.5-.2.5-.3.5-.2.5-.3.4-.3.3-.3.1-.1.1-.1-.1-.1-.1-.1-.1-.1-.1-.1-.1-.1h-.1l-.3.1-.3.1-.4.1h-.1l-.2.1-.2-.1h-.2l-.1-.1-.2-.1-.1-.2-.1-.2-.1-.3-.1-.4-.3-1.6-.3-1.4-.1-1.3-.1-.5-.1-.5v-1.3l.1-.4.1-.7.1-.5.2-.4.1-.2.1-.1.3-.3.3-.2.3-.1.4-.1.3-.1h.6l.3.1.3.1.3.1.3.1.2.1.3.3.3.3.2.5.1.4.1.5.1.5.1.4.1.8v.3l.1.2.1.1h.2-.5.5l.1-.1.2-.1.1-.1.2-.4.2-.5.3-1.1.1-1.2.1-1.3.1-1.1v-1.8h-8l9.7-20.1 2.3 49-.3.1H84l-.9.1-.9-.1-1-.1-1-.1-1-.3-.9-.2-1-.3-1.8-.5-1.5-.5-.9-.3-.4-.1.1 1.3.1 1.3.2 1.2.3 1.1.3 1.1.3 1.1.3 1 .3.9.4.9.4.9.5.8.4.8.5.7.5.7.5.6.5.6.9 1.1.4.5.5.4.8.8.7.6.6.4.5.3.4.3.7-.5.7-.5.4-.3.5-.5.5-.5.5-.6.5-.7.5-.7.6-.8.6-.9.5-1 .5-1.1.3.7.3.7.6 1.3.3.7.3.6.4.7.3.5.4.6.5.5.4.5.5.5.5.5.5.4.5.3.5.3.5-.3.5-.3.5-.4.3-.3.2-.2.5-.5.5-.5.5-.5.4-.6.4-.5.3-.7.4-.6.3-.7.6-1.3.5-1.3.6 1.1.5 1 .6.9.5.8.6.7.5.7.5.6.5.5.9.8.7.5.6.5.4-.3.5-.3.6-.4.7-.6.4-.4.5-.4.4-.4.5-.5.5-.5.5-.5.5-.6.5-.6.4-.7.5-.7.5-.8.4-.8.4-.9.4-.9.4-.9.3-1 .3-1.1.3-1.1.2-1.1.2-1.2.1-.7.1-.6.1-1.3-1.3.5-1.5.5-.9.3-.9.3-.9.3-1 .2-1 .3-1 .1-.9.1-.9.1-.8-.1h-.4l-.4-.1 2.3-49 9.6 20.1h-8l-.1.9.1.9.1 1.1.1 1.3.1.6.1.6.1.6.1.5.1.5.2.4.1.1.1.1.2.1h.7l.1-.1.1-.2.1-.3.1-.8v-.4l.1-.5.1-.5.1-.4.3-.5.3-.3.2-.2.1-.1.3-.1.2-.1.6-.1.3-.1h.7l.3.1.3.1.3.1.3.2.1.1.1.1.1.1.1.2.2.4.1.3.1.3.1.3.1.3v.4l.1.4-.1.9-.1 1.1-.2 1.3-.2 1.4-.3 1.6-.1.4-.1.3-.1.2-.1.2-.1.1-.2.1h-.2l-.1.1-.4-.1-.3-.1-.7-.2h-.1l-.1.1-.1.1-.1.1-.1.1-.1.1v.2l.1.1.4.3.4.3.5.3.2.1.2.1.5.3.5.2.5.2.5.1.5.1.4.1.7.1h.8l.1-.1.1-.3.1-.5.1-.6.1-.7v-6.3l.1-.9.1-.8.1-.8.1-.7.2-.5.1-.1.1-.2.1-.1.1-.1.1-.1.2-.1.1-.1h.3l.2.1.2.1.3.2.2.3.2.3.5.7.5.8.4.9.4.9.3 1 .3 1.1.3 1 .1.5v.5l.1.4v.5l-.1.4-.1.3-.1.3-.1.3-.1.3-.2.2-.2.1-.3.1h-.1l-.1.1-.1.2-.1.1-.1.1-.1.3v.5l.1.2.1.1.1.1h.2l.3-.1.5-.2.4-.3 1-.7 1.1-.8.9-.9.8-.8.3-.3.2-.3.1-.2v-.2l-1.1-1.7-.9-1.3-.8-1.4-.4-.7-.3-.7-.3-.6-.1-.3-.1-.3-.1-.3v-.7l.1-.2.1-.1.1-.1.1-.1.4-.1.5-.1.5-.1h.5l.5.1.5.1.5.2.5.2.4.3.2.2.2.2.1.2.2.2.2.5.1.3.1.1v.2l.1.3v.3l-.1.4-.1.4-.1.4-.1.5v.2l.1.1v.1l.1.1.1.1.1.1.1.1.3.1h.4l.1-.1.3-.7.3-.8.2-.7.2-.8.1-.7.1-.7.1-.7.1-.7-.1-1.2-.1-.9-.1-.6v-.2h-10.6l-8.3-20.1h9.8l-11.1-14 2.1-7.6h20.9v77.4l1.7-1 1.6-.9 1.5-1 1.5-1 1.5-1.1 1.5-1.1 1.4-1.1 1.3-1.1v-70h1.9v67.6l1.7-1.6 1.7-1.5 1.6-1.6 1.5-1.6 1.5-1.7 1.5-1.6 1.3-1.7 1.3-1.7V95.2h1.9v52.1l.9-1.3.9-1.4.9-1.4.9-1.4.8-1.5.8-1.4.7-1.5.7-1.5.7-1.5.7-1.5 1.2-3.1.6-1.5.5-1.5.5-1.5.5-1.5.9-3.1.4-1.5.3-1.6.4-1.6.3-1.5.3-1.6.2-1.6.3-1.6.2-1.6.3-3.2.1-1.6.1-1.6.1-1.6v-1.6l-.1-3.2-.1-1.6-.1-1.6-.1-1.6-.1-1.6-.2-1.6-.3-1.6-.2-1.6-.3-1.6-.6-3.1-.4-1.5-.4-1.6-.4-1.5-.5-1.5-.5-1.5-.5-1.5-.6-1.5-.5-1.5-.6-1.5-.7-1.5-.7-1.5-.7-1.5-.7-1.5-.7-1.4-.8-1.5-.8-1.4-.9-1.4-.9-1.4-.9-1.3-.9-1.3-2.3-3.1-1.1-1.5-1.1-1.4-1.1-1.3-1.1-1.3-1.2-1.1-.5-.6-.6-.5-.6-.5-.7-.5-1.2-.9-.7-.4-.7-.4-.7-.3-.7-.3-.7-.3-.7-.3-.7-.3-.7-.2-.7-.2-.8-.2-.8-.1-.8-.1-1.7-.1h-1.6l-.7.1-.8.1-.8.1-.7.2-.7.2-.7.2-.7.3-.7.3-.7.3-.7.3-.6.4-.6.4-.6.4-.5.5-.5.5-.5.5-.5.5-1.2.5-.5.5-.3.6-.4.7-.3.6-.3.7-.2.7-.3.7-.1.7-.1.8-.1.8h9.8v10.8H109l.3-1.5.3-1.5.1-.9.1-.8.2-1.7.2-1.7.1-1.7.1-1.7.1-1.8v-3.6l-.1-1.8-.1-1.8-.2-1.8-.3-1.8-.1-.9-.1-.9-.3-1.7-.5-1.7-.5-1.6-.3-.7-.3-.7-.6-1.5-.7-1.4-.3-.7-.4-.7-.4-.7-.4-.6-.5-.6-.5-.6-.5-.5-.5-.5-.5-.5-.6-.5-.5-.5-.6-.5-.6-.4-.6-.3-.7-.4-.7-.3-.7-.3-.7-.3-.7-.2-.7-.2-.8-.1-.8-.1-1.4-.1-1.3-.1h-1.2l-1.2.1-1.1.1-.5.1h-.3l-.5.1-.5.1-.5.1-.5.1-.9.3-.9.4-.9.4-.7.5-.9.5-.9.6-.8.6-.9.7-.6.6-.2.3-.2.4-.2.3-.2.4-.3.9-.1.4-.1.5-.1.5v.3l-.1.9.1.9.1.5.1.5.2.9.2.4.1.5.2.4.2.4.3.4.3.4.3.3.3.3.3.3.4.3.3.3.4.2.4-.4.5-.3.4-.3.5-.3.4-.2.4-.2.5-.1.4-.1h.4l.4-.1.4.1.3.1.4.1.3.1.3.1.3.3.3.2.3.3.2.3.2.3.2.4.2.4.1.4.1.5.1.5.1.5v.5l-.1.5-.1.5-.1.6-.2.6-.2.7-.2.5-.3.5-.4.4-.3.4-.3.3-.4.4-.4.3-.3.3-.7.5-.3.2-.3.2-.3.2-.1.1-.1.1-.1.3-.1.1-.1.1-.1.4-.1.4-.1.9-.1 1v1.1l.1 1.2.1 1.3.1 1.3.1 1.3.5 4.8.1 1 .1.9v.7l.2.6z"/>
    <path fill="#f4f0e8" d="M83.7 16.9l.7.1.7.1.6.1.6.1.3.1.3.1.3.2.3.1.3.3.3.3.3.3.3.4.7-.5.7-.5.7-.5.4-.1.4-.2.9-.3.9-.3 1.1-.1.5-.1.5-.1-.8-.3-.8-.3-.9-.1-1-.1-.9-.1h-1.7l-.8.1-.8.1-.7.1-.7.1-.6.1-.7.2-.5.2-.5.2-.4.3z"/>
</svg>
