<svg xmlns="http://www.w3.org/2000/svg" viewBox="0 0 192 196.1">
    <circle fill="#00b7ff" cx="96" cy="98.1" r="89.3"/>
    <path fill="#4e4039" d="M96 189.4c-50.4 0-91.4-41-91.4-91.4S45.6 6.7 96 6.7s91.4 41 91.4 91.4-41 91.3-91.4 91.3zm0-178.5C47.9 10.9 8.8 50 8.8 98.1s39.1 87.2 87.2 87.2 87.2-39.1 87.2-87.2S144.1 10.9 96 10.9z"/>
    <path fill="#eed844" d="M97.5 172c-22 0-39.9-19.1-39.9-42.6V80.8h73.9l-1.5 54.4-.5 1.5c-.2.5-.3 1.1-.5 1.9-1.4 5.3-4.1 15.2-11.6 22.4-4.8 4.6-10.4 8.1-16.6 10.4l-1.6.6h-1.7z"/>
    <path fill="#565655" d="M99.3 172.9h-1.8c-22.5 0-40.8-19.5-40.8-43.5V79.9h75.7l-1.6 55.5-.5 1.5c-.1.4-.3.9-.4 1.4l-.1.4c-1.5 5.4-4.1 15.5-11.8 22.8-4.9 4.7-10.6 8.3-16.9 10.6l-1.8.8zM58.5 81.7v47.7c0 23 17.5 41.7 39 41.7H99l1.4-.5c6.1-2.2 11.5-5.7 16.3-10.2 7.3-7 9.9-16.8 11.3-22l.1-.4c.2-.6.3-1.1.4-1.5l.5-1.4 1.5-53.3h-72v-.1z"/>
    <path fill="#fff" d="M98.2 165.3c-20.1 0-36.3-16.3-36.3-36.3V85.8h65l-1.4 47.5c-1.4 4.1-3.4 15.5-11.3 22.6-6 5.4-12.2 8-16 9.4z"/>
    <path fill="#565655" d="M98.4 166.3h-.2c-20.6 0-37.4-16.8-37.4-37.4V84.7H128l-1.5 48.9c-.2.7-.5 1.6-.8 2.7-1.5 5.3-4.1 14.3-10.8 20.3-4.7 4.3-10.2 7.5-16.3 9.6l-.2.1zM62.9 86.8v42.1c0 19.4 15.7 35.2 35.1 35.3 5.7-2 10.9-5.1 15.4-9.1 6.3-5.7 8.7-14.2 10.2-19.4.3-1 .6-1.9.8-2.6l1.4-46.3H62.9z"/>
    <path fill="#65c4eb" d="M82.4 109.9L66 100.5l-2.6-13.7 15.3 7.8 3.7 15.3zm-11.8 9.5l-8.6-4.7.3-16.4 3.7 2.2 4.6 18.9zm20.1 25.1l-16.4-8.6-2.8-15.6 15.4 8.2 3.8 16zm-13 7.3l-11-4.7-4.7-17.6 11.9 6.4 3.8 15.9zm23.5-16.5l-14.9-7.7-2.8-15.7 13.4 7.2 4.3 16.2zm24-14.2l-15.3-8.7-3.8-16.6 15.7 9.3 3.4 16z"/>
    <path fill="#65c4eb" d="M126.1 106.8l-5.2-2.2-4.4-18.9 9.7 7.1-.1 14zm-11.3 48.4l-3.7 2.2-5.7-3.6-3.8-16.6 13.7 6.9 2.9 7.4-3.4 3.7zm7-10.9l-1.5 2.8-2.9-.9-3.9-16.7 11.1 5.7-.9 4.1-1.9 5zM103.6 163l-3.6 1.6-5-1.4-3.9-16.7 13.7 7 2.9 7.4-4.1 2.1zm-11.2 2.3l-4.5-1.6-8.2-3.2-.5-5.8 13.7 7 3.6 3.5-4.1.1zm20.8-36.9l-15.3-8.7L94 103l15.7 9.4 3.5 16zM92.5 103l-13.8-8.4-2.1-8.7L89.1 87l3.4 16zm14.1-7.2l-13.8-8.4-.3-.9 11.5-.7 2.6 10z"/>
    <path fill="#eed844" d="M68.1 73.2c2.6-.1 5.3-.3 7.9-.4-10.6-7.8-14.4-17.4-11.6-22 .4-.7 2.2-3.2 8.2-3.7 1-1.8 2-3.6 2.9-5.4-1.2-.7-4.3-2.3-8.2-1.9-5.1.6-8.6 4.2-10 6.5-3.7 6.3 0 17.9 10.8 26.9z"/>
    <path fill="#565655" d="M67.8 74.1l-.3-.2C57 65.1 52.3 53 56.6 45.8c1.7-2.8 5.5-6.3 10.7-6.9 3.8-.4 6.9.8 8.8 2l.8.4-3.6 6.6h-.5c-5.2.4-7 2.5-7.5 3.3-2.5 4.1 1.1 13.3 11.3 20.8l2 1.5-10.8.6zm.9-33.5c-.4 0-.8 0-1.3.1-4.9.5-8.1 4-9.3 6-3.3 5.6-.3 16.6 10.2 25.6l5.2-.3c-9.7-8-12.7-17.1-9.9-21.7.8-1.3 3-3.5 8.4-4.1l2.3-4.2c-1.4-.7-3.3-1.4-5.6-1.4z"/>
    <path fill="#eed844" d="M111.2 72.4c-2.9.3-5.6.3-8.5.6 8.5-11.5 9.6-22 5.3-25.9-.7-.6-3.2-2.6-9.3-1.3l.3-5.4c2.5-.7 9-2.3 13.6 1.1 6.3 4.8 7.5 18.3-1.4 30.9z"/>
    <path fill="#565655" d="M100.7 74.2l1.2-1.7c8.2-11.1 9.2-21.2 5.4-24.7-.8-.7-3.2-2.2-8.6-1.1l-1 .3.4-7.2.6-.2c3.4-1 9.8-2.2 14.4 1.2 6.8 5 8 19.1-1.1 32.1l-.2.3h-.4c-1.5.2-2.9.2-4.3.3-1.4.1-2.8.1-4.2.3l-2.2.4zm1.7-29.6c3.4 0 5.2 1.1 6.1 1.9 4.3 3.8 4.1 13.7-4 25.5.8-.1 1.6-.1 2.3-.1 1.2-.1 2.5-.1 3.8-.2 8.3-12 7.4-24.8 1.3-29.3-3.7-2.7-9-1.9-12.2-1.1l-.2 3.6c1.1-.3 2.1-.3 2.9-.3z"/>
    <path fill="#eed844" d="M76.4 73.5c2.9.3 6.2 0 9.2-.6-8.5-11.5-9.6-22.3-5.3-26.2.7-.6 4.3-3.1 10.5-1.8-.1-1.8.2-3 .1-4.8-2.2-2.2-10.4-3.9-15.1 1-5.6 5.7-8.3 19.7.6 32.4z"/>
    <path fill="#565655" d="M78.9 74.5c-.8 0-1.7 0-2.5-.1H76l-.3-.4c-9.5-13.5-6-28-.6-33.5 2.2-2.2 5.2-3.4 8.7-3.5h.1c3.1 0 6.2 1 7.6 2.4l.2.2v.3c.1 1 0 1.7-.1 2.5-.1.7-.1 1.4-.1 2.3l.1 1.2-1.1-.2c-6.4-1.3-9.7 1.6-9.7 1.6-3.9 3.5-2.9 13.8 5.4 25l.8 1.1-1.4.3c-1.7.4-4.2.8-6.7.8zm-2-1.9c2 .2 4.5.1 7.1-.4-8.4-12-8.6-22.4-4.4-26.2.2-.1 3.6-3.2 10.2-2.2 0-.5 0-.9.1-1.4 0-.6.1-1.2.1-1.9-1.1-.9-3.5-1.7-6.2-1.7-2.1 0-5.1.5-7.4 2.9-4.9 5.1-8.1 18.3.5 30.9z"/>
    <path fill="#eed844" d="M89.6 35.6h11v3.5h-11v-3.5z"/>
    <path fill="#565655" d="M101.4 40H88.7v-5.3h12.7V40zm-10.9-1.8h9.2v-1.7h-9.2v1.7z"/>
    <path fill="#eed844" d="M97.1 28.6v-2.5h-4.5v2.5h-3.5v4h3.5v3h4.5v-3h3.4v-4h-3.4z"/>
    <path fill="#565655" d="M97.9 36.5h-6.3v-3h-3.5v-5.8h3.5v-2.6h6.3v2.6h3.5v5.8h-3.5v3zm-4.4-1.8h2.7v-3h3.5v-2.2h-3.5V27h-2.7v2.6H90v2.2h3.5v2.9z"/>
    <path fill="#eed844" d="M121.6 73c-2.6-.1-5.3-.3-7.9-.4 10.6-7.8 14.4-17.4 11.6-22-.4-.7-2.2-3.2-8.2-3.7-1-1.8-2-3.6-2.9-5.4 1.2-.7 4.3-2.3 8.2-1.9 5.1.6 8.6 4.2 10 6.5 3.7 6.3-.1 17.9-10.8 26.9z"/>
    <path fill="#565655" d="M121.9 74l-10.8-.5 2-1.5c10.3-7.6 13.9-16.7 11.3-20.8-.5-.8-2.3-2.9-7.5-3.3h-.5l-3.6-6.6.8-.4c1.9-1.1 5-2.4 8.8-2 5.2.6 9 4.1 10.7 6.9 4.3 7.2-.4 19.3-10.9 28.1l-.3.1zm-5.8-2.1l5.2.3c10.6-9 13.5-20.1 10.2-25.6-1.2-2-4.5-5.5-9.3-6-2.8-.3-5.2.5-6.9 1.3l2.3 4.2c5.5.6 7.6 2.8 8.4 4.1 2.8 4.6-.2 13.7-9.9 21.7z"/>
    <path fill="#eed844" d="M67.1 72.8h54.8v8H67.1v-8z"/>
    <path fill="#565655" d="M122.9 81.7H66.2v-9.8h56.6v9.8h.1zM68 79.9h53v-6.2H68v6.2zm-5.3 7l1-1.8 62.7 35.6-1 1.8-62.7-35.6zm-1 12.3l1.1-1.8 62.8 37.5-1.1 1.8-62.8-37.5zm28-12.4l1.1-1.8 35.9 21.8-1.1 1.8-35.9-21.8zm26.6.3l1.2-1.7 9.4 6.5-1.2 1.7-9.4-6.5zm-54.8 28.5l1-1.8 58.3 32.4-1 1.8-58.3-32.4zm-.4 13.5l1.1-1.8 50.3 29.6-1.1 1.8-50.3-29.6zm5.1 18.9l1-1.8L99.8 164l-1 1.8L66.2 148z"/>
    <path fill="#565655" d="M62.2 86.2l2.1-.5 16.6 74.6-2.1.5-16.6-74.6zm13.5 0l2-.5 19.1 79.9-2 .5-19.1-79.9zm12.4.5l2-.5 18.1 74.9-2 .5-18.1-74.9zm14.8-.7l2.1-.4 14.2 65.7-2.1.4L102.9 86zm12.9.4l2-.5 8.6 36.4-2 .5-8.6-36.4z"/>
    <path fill="#565655" d="M98.4 166.3h-.2c-20.6 0-37.4-16.8-37.4-37.4V84.7H128l-1.5 48.9c-.2.7-.5 1.6-.8 2.7-1.5 5.3-4.1 14.3-10.8 20.3-4.7 4.3-10.2 7.5-16.3 9.6l-.2.1zM62.9 86.8v42.1c0 19.4 15.7 35.2 35.1 35.3 5.7-2 10.9-5.1 15.4-9.1 6.3-5.7 8.7-14.2 10.2-19.4.3-1 .6-1.9.8-2.6l1.4-46.3H62.9z"/>
    <path fill="#eed844" d="M90.9 39.1h8.6v33.7h-8.6V39.1z"/>
    <path fill="#565655" d="M100.4 73.7H90V38.2h10.4v35.5zm-8.6-1.8h6.8V40h-6.8v31.9z"/>
</svg>
