<svg xmlns="http://www.w3.org/2000/svg" viewBox="0 0 192 196.1">
    <circle fill="#50a0bc" stroke="#342923" stroke-miterlimit="10" stroke-width="1.9688" cx="96.5" cy="98.6" r="89.3"/>
    <path fill="#342923" stroke="#342923" stroke-width=".1044" d="M64.6 78c-5.5 3.3-10.3 6.8-18.3 8.3-.4 0-.9.4-.2.4 7.3-.7 14.3-5.1 18.9-8.1m-.4-.6h0zm1.5-4.6C60.2 76 54.9 78.8 47 79.3c-.4 0-.9.2-.2.4 7.3.2 14.7-3.1 20-5.7m-.7-.6h0z"/>
    <path fill="#342923" stroke="#342923" stroke-width=".1044" d="M45.6 90.5c.9-.4 1.8-1.1 2.6-1.5 1.8-.9 3.5-2.2 5.5-3.1 2.9-1.5 4.6-3.1 7.3-4.8.4-.4 1.8-1.3 2-1.3 0 .4 1.1 1.5 1.3 1.8-3.1 3.5-8.6 7-12.5 7.5 4.2-.4 9.7-4.2 12.5-7.5 1.3.7 1.8.4 2.4 1.1-3.3 2.9-7.5 6.2-11.7 7.3-2.9.7-5.7 1.3-9 1.3-.8-.2-.8-.4-.4-.8h0z"/>
    <path fill="#342923" stroke="#342923" stroke-width=".1044" d="M45.6 82.8c.9-.4 1.8-.7 2.9-1.1 1.8-.7 3.7-1.5 5.5-2.2 2.9-1.1 10.1-5.3 10.1-5.3s-.9.9.4 2.4c-3.3 2.9-9.2 5.3-13 5.5 4 0 9.9-2.9 13-5.5 1.3.7 1.5.7 2.2 1.3-3.5 2.2-7.9 4.6-12.1 5.3-2.9.4-5.7.7-9 .2-.4.1-.6-.2 0-.6h0z"/>
    <path fill="#342923" stroke="#342923" stroke-width=".1" d="M78.6 97.7c.2 5.1.2 9.4-1.5 15.4 0 .2 0 .7.4.2 2.2-5.1 2.9-11.4 2.2-16m-1.1.4h0z"/>
    <path fill="#342923" stroke="#342923" stroke-width=".098799" d="M83.5 96c.7 5.7 2 10.8.2 17.4 0 .2 0 .9.2.2 2.4-5.9 1.3-13 .2-18m-.6.4h0z"/>
    <path fill="#342923" stroke="#342923" stroke-width=".09402" d="M79.7 114.9v-3.1c0-2-.2-4.2 0-6.2 0-3.1-.2-5.5-.4-8.6 0-.7-.2-2.2 0-2.4.2.2 1.8.2 2 .2 1.3 4.8 1.5 9.7.2 14.7 1.3-5.1.9-10.1-.2-14.7.2 0-.9-2.4-.7-2.4.7-.4 2.2-.4 2.9.2.9 4.4 1.5 11 .4 15.2-.7 2.4-1.5 5.1-3.1 7.5-.6.2-.9 0-1.1-.4h0z"/>
    <path fill="#342923" stroke="#342923" stroke-width=".102" d="M72 115.3c.2-1.1.4-2.2.7-3.1.4-2 .7-4.4 1.1-6.4.7-3.3.9-5.7 1.1-9 0-.7 0-2.4.4-2.4.2.2 1.8.7 2 .7.7 5.3-.7 11.4-2.6 15.2 2-3.7 3.1-10.1 2.6-15.2.2 0-.4-2.6-.4-2.6.9-.2 2.4-.2 3.1.7 0 4.8-.7 11.6-2.4 15.6-1.3 2.4-2.6 5.1-4.8 7.3-.6.1-.8-.1-.8-.8h0z"/>
    <g fill="#342923" stroke="#342923" stroke-linecap="round" stroke-width=".1029">
        <path d="M84.1 84.6c0 .9-.4 3.7-1.5 3.1-.7-.4-.2-2.2-.2-2.4m1.7-.7h0z"/>
        <path stroke-linejoin="round" d="M83 87c.2-.4.2-1.3.4-1.8M83 87h0z"/>
    </g>
    <g fill="#342923" stroke="#342923" stroke-linecap="round" stroke-width=".1047">
        <path d="M82.1 83.9c.2.9.4 3.7-.7 3.3-.9-.2-.7-2-.9-2.2m1.6-1.1h0z"/>
        <path stroke-linejoin="round" d="M81.7 86.3v-1.8m0 1.8h0z"/>
    </g>
    <g fill="#342923" stroke="#342923" stroke-linecap="round" stroke-width=".1039">
        <path d="M80.8 83.9c.2.9 0 3.7-1.1 3.3-.7-.4-.7-2-.7-2.2m1.8-1.1h0z"/>
        <path stroke-linejoin="round" d="M80.2 86.3c0-.4 0-1.3.2-1.8m-.2 1.8h0z"/>
    </g>
    <path fill="#342923" stroke="#342923" stroke-width=".1044" d="M79.5 96h0zM66.3 79.1c-.9 1.1-1.5 2-2.6 3.1-1.5 1.1-3.5 2-5.5 2.2-.7.2-1.3 0-.9-.7.7-1.1 2.9-3.5 3.7-4 1.8-1.1 2.9-1.5 4-2.2l1.3 1.6h0zm.7-17.4c-2-4.6-4.4-9-4.2-14.9 0-.2-.2-.7-.4-.2-.9 5.5 1.8 11.4 4 15.6m.6-.5h0zm.6 4c-4-4-8.1-7-10.8-13-.2-.2-.4-.7-.4 0 1.8 5.7 7 10.3 10.8 13.6m.4-.6h0z"/>
    <path fill="#342923" stroke="#342923" stroke-width=".1044" d="M68.7 66.5c-5.5-2-10.6-3.3-15.8-7.5-.2-.2-.7-.4-.4.2 4.4 4.4 11.2 6.6 16.3 8.1m-.1-.8h0zm-.6 2c-5.7-.4-11.2-.4-17.4-3.1-.2-.2-.9-.2-.2.2 5.5 3.1 12.8 3.5 18 3.5m-.4-.6h0zm.4 1.8c-6.4 1.3-12.3 2.9-20.2 1.8-.4 0-.9 0-.2.2 7 1.8 15.2 0 20.9-1.5m-.5-.5h0zm5.3 27c-.9 6.2-1.1 11.6-4.6 18.2-.2.2-.2.9.2.4 4-5.7 5.1-13.2 5.3-18.7m-.9.1h0zm-3.1-1.1c-2.2 5.7-3.7 11.2-8.4 16.5-.2.2-.4.9.2.4 4.8-4.6 7.5-11.6 9.2-16.9m-1 0h0zm-2.8-2.6c-3.5 5.1-6.4 10.1-12.8 14.5-.2.2-.4.7 0 .4 6.4-3.5 10.6-9.9 13.6-14.7m-.8-.2h0zm-3.1-5.1c-4 4.8-7 9.7-13.6 13.8-.2.2-.7.7 0 .4 6.6-3.1 11.4-9.2 14.5-13.8m-.9-.4h0zm-.7-5.3c-4.8 4.2-8.8 8.3-16.1 11.2-.4.2-.9.4 0 .4 7-2 13-7.3 16.9-11.4m-.8-.2h0z"/>
    <path fill="#342923" stroke="#342923" stroke-width=".1044" d="M47.4 99.3c.9-.7 1.5-1.5 2.4-2.2 1.5-1.3 3.1-3.1 4.8-4.4 2.4-2.2 4.2-4 6.2-6.4.4-.4 1.3-1.8 1.8-1.8.2.4 1.5 1.3 1.8 1.3-2.4 4.2-7.9 8.1-11.2 10.3 3.5-2.2 9-6.4 11.2-10.3 1.5.2 1.8.2 2.9.7-2.6 3.7-6.2 7.7-10.3 9.9-2.6 1.3-5.5 2.6-9 3.1-.8.4-.8.2-.6-.2h0zM47 75.5l2.6-.7c1.8-.4 3.7-.9 5.5-1.1 2.9-.7 4.8-1.3 7.5-2 .4-.2 1.8-.7 2-.4 0 .2.7 1.5.7 1.5-3.5 2-8.6 2.9-13 3.1 4.6 0 9.5-1.1 13-3.1 1.1.7 1.3 1.1 1.8 1.8-3.5 1.5-7.9 2.6-12.1 2.6-2.6 0-5.3-.2-8.4-1.1-.1-.1-.1-.3.4-.6h0z"/>
    <path fill="#342923" stroke="#342923" stroke-width=".1044" d="M47.6 67.9c1.5-.4 9.5.9 15.6 0 .4.9.7 1.3 1.8 2-3.5.2-7.5.4-11.2-.2 3.7.7 7.5.4 11.2.2.4.2 1.3 1.1 1.8 1.3-4.6.9-8.6 1.8-14.1 0-1.5-.7-3.1-1.3-4.8-2.2-.5-.5-.7-.7-.3-1.1h0z"/>
    <path fill="#342923" stroke="#342923" stroke-width=".1044" d="M50 60.8c.9.4 1.5.7 2.6.9 1.8.4 2.9.7 4.6 1.5 2.2.9 7.7 3.5 9.9 4-.2.2-1.1.7-1.1.9-4-.7-8.1-2-11.7-4.2 3.5 2 7.7 3.5 11.7 4.2.2.2-.2 1.1-.2 1.5-4-.7-7-1.3-11-3.5-2.4-1.5-4-2.4-5.5-4.6.3-.5.3-.9.7-.7h0z"/>
    <path fill="#342923" stroke="#342923" stroke-width=".1044" d="M54 54.2c2.6 1.8 4.6 3.7 7 5.7 2 1.8 7.5 5.7 9.7 7-.4.2-1.5.2-1.5.4-4.2-2-8.4-5.1-11.4-8.3 3.1 3.3 7.3 6.4 11.4 8.3.2.4.4 1.1.2 1.5-4.2-2-7.7-3.3-11.9-7.5-2-2.4-3.3-4-4-6.8-.2-.3.1-.5.5-.3h0z"/>
    <path fill="#342923" stroke="#342923" stroke-width=".1044" d="M59.7 48.3c3.1 6.8 6.6 11.9 9.9 18-.4 0-1.5-.2-1.5-.2-2.9-3.3-5.1-7.3-6.4-11.6 1.3 4.4 3.5 8.3 6.4 11.6 0 .4 0 .9-.4 1.3-2.6-3.5-5.5-6.4-7-11-.9-3.1-1.8-4.8-1.3-7.9-.3-.4-.1-.6.3-.2h0z"/>
    <path fill="#342923" stroke="#342923" stroke-width=".1044" d="M70 40.4c.4.2-2.6 5.7-2 12.3.2 1.5.2 3.3.9 4.8.4.9 1.1 1.3 1.3 2.2 0 .4 0 1.5-.2 1.8-.2.2-2.2 1.3-2.6 1.8-1.3-1.1-2.9-6.4-3.1-10.5 0-6 4-13.3 5.7-12.4h0zm-19.5 66.3c.7-.9 1.3-1.5 2.2-2.4 1.3-1.5 2.9-3.5 4.4-4.8 2.2-2.4 3.7-4.6 5.5-7 .4-.4 1.1-2 1.5-2 .2.2 1.8 1.1 2 1.3-1.8 4.6-6.2 9.9-10.1 11.6 4-2 8.4-7.5 10.1-11.6 1.8 0 2 0 2.9.4-2.2 4-5.3 8.6-9.2 11.2-2.6 1.5-5.3 3.1-8.8 4.2-.5-.2-.7-.4-.5-.9h0z"/>
    <path fill="#342923" stroke="#342923" stroke-width=".1074" d="M56.2 113.1c.7-.9 1.1-2 1.8-2.9 1.1-1.8 2.2-4 3.5-5.7 2-2.9 2.9-5.3 4.4-8.1.2-.7.9-2.2 1.3-2.2.2.2 1.8 1.1 2 1.1-1.3 5.1-4.8 11.2-8.1 13.6 3.5-2.4 7-8.8 8.1-13.6 1.5 0 1.8-.2 2.9 0-1.8 4.4-4 9.7-7.5 13-2.2 2-4.6 4-7.9 5.5-.5.2-.7 0-.5-.7h0z"/>
    <path fill="#342923" stroke="#342923" stroke-width=".1044" d="M64.3 116c.4-1.1.7-2.2 1.1-3.3.9-2 1.5-4.4 2.4-6.4 1.3-3.3 2-5.9 2.9-9.2.2-.7.4-2.4.9-2.4.2.2 1.8.9 2 .9-.4 5.5-2.6 12.5-5.5 15.4 2.9-3.1 5.1-10.1 5.5-15.4.2 0 0-2.6.2-2.6.9-.2 2.4.2 2.9 1.1-.9 4.8-2.9 12.1-5.3 15.8-1.8 2.4-3.5 4.8-6.2 6.8-.9.2-1.1-.1-.9-.7h0z"/>
    <path fill="#342923" stroke="#342923" stroke-width=".1044" d="M76.9 89.2c-.7 4.8-2 9.7-5.5 13.4-.7.7-1.1.9-1.3 0-.2-1.3.2-4.2.4-5.3.7-2 1.1-3.3 1.8-4.6l2.2-5.1 2.4 1.6h0z"/>
    <path fill="#342923" stroke="#342923" stroke-width=".1044" d="M73.1 89.6c-.2 1.8-1.1 3.7-1.8 5.5-.9 2.2-2.4 4.2-4.4 5.7-.7.7-1.3.9-1.3-.2 0-1.5 1.1-5.1 1.8-6.2 1.1-2.2 2.4-4.6 3.3-5.9l2.4 1.1h0z"/>
    <path fill="#342923" stroke="#342923" stroke-width=".1044" d="M76.4 85.2c0 1.3 0 2-.4 3.3-.7 1.8-2 3.5-3.7 5.3-.7.7-1.1.9-1.3.2-.2-1.1.4-4 .9-5.1.9-2 .7-1.5 1.5-2.9l3-.8h0zm3.3 3.8c.2 4.8-.2 9.9-3.1 14.1-.4.7-.9.9-1.3.2-.4-1.1-.4-4.2-.4-5.3.2-2 .7-3.3.9-4.8l1.1-5.5 2.8 1.3h0z"/>
    <path fill="#342923" stroke="#342923" stroke-width=".1044" d="M79.9 84.3c.2 1.3.2 2 0 3.3-.4 1.8-1.3 3.7-2.9 5.7-.4.7-1.1 1.1-1.3.2-.2-1.1-.2-4 0-5.1.4-2 .4-1.5 1.1-3.1l3.1-1h0zm3.3 4.9c.7 4.8.4 9.9-2.2 14.1-.4.7-.9 1.1-1.3.2-.4-1.1-.9-4.2-.7-5.3.2-2 .4-3.3.7-4.8l.9-5.5 2.6 1.3h0zm-12.5-.9c-.2 1.5-1.5 3.1-2.4 4.6-1.1 2-2.6 3.5-4.6 4.8-.7.4-1.3.7-1.3-.2.2-1.3 1.3-5.1 2-6.2 1.1-2 2.4-3.7 3.5-4.8l2.8 1.8h0z"/>
    <path fill="#342923" stroke="#342923" stroke-width=".1044" d="M73.1 84.3c.2.7 0 1.1-.2 2.2-.4 1.8-1.5 3.5-3.3 5.3-.7.7-1.3.9-1.5.2-.2-.9 0-3.5.4-4.4.7-1.8.4-1.5 1.1-2.6l3.5-.7h0zm-4.8 0c-.2 1.5-1.5 3.5-2.4 4.8-1.1 1.8-2.4 3.7-4.8 5.1-.9.4-1.5.7-1.5-.2 0-1.3 1.5-4.4 2.2-5.3 1.3-2 3.3-4.8 4.4-5.9l2.1 1.5h0z"/>
    <path fill="#342923" stroke="#342923" stroke-width=".1044" d="M70.7 82.6c0 .4-.2 1.3-.4 2-.7 1.5-2 3.1-3.7 4.4-.7.4-1.3.7-1.3 0-.2-1.1.4-3.5.9-4.4.9-1.8.4-1.3 1.3-2.4l3.2.4h0zm-3.9-6.4c-.9 1.1-2 1.8-3.1 2.4-1.8.9-3.7 1.5-5.7 1.5-.7 0-1.3 0-.9-.7.7-.9 3.1-2.6 4.2-3.1 1.8-.9 3.1-1.5 4.4-2l1.1 1.9h0z"/>
    <g fill="#342923" stroke="#342923" stroke-width=".1039">
        <path d="M67.6 81.5c-.4 1.5-2.9 3.3-3.7 4.4-1.3 1.5-2.9 2.6-4.8 3.5-.7.2-1.3.2-.9-.4.4-1.3 2-3.7 2.6-4.6 1.3-1.5 3.7-4.2 4.6-5.1l2.2 2.2h0z"/>
        <path d="M60.2 87.6c2-1.8 3.7-4 4.8-6.2m-4.8 6.2h0z"/>
    </g>
    <path fill="#342923" stroke="#342923" stroke-width=".1044" d="M67.9 78.2c-1.3.7-2 1.3-2.9 2.2-1.1 1.3-2.2 2.9-2.4 4.8-.2.7 0 1.1.7.9 1.1-.4 3.3-2.2 4-2.9 1.1-1.5.9-1.3 1.5-2.4l-.9-2.6h0z"/>
    <path fill="#342923" stroke="#342923" stroke-width=".1044" d="M68.9 75.5c-.4 1.1-1.1 2.2-2 3.3-1.3 1.3-2.9 2-4.8 2.6-.7.2-1.3.2-1.1-.4.4-1.1 2-3.3 2.9-4 1.3-1.1 2.9-1.8 4-2.4l1 .9h0zM63 80.2c1.1-1.1 2.6-2.2 4.4-3.7"/>
    <path fill="#342923" stroke="#342923" stroke-width=".1044" d="M68.9 73.4c-1.3-.4-1.8-.4-3.3-.4-2 0-4 .7-5.7 1.8-.7.4-1.1.9-.4 1.1 1.1.4 4 .4 4.8.2 1.8-.2 2.6-.2 4-.4l.6-2.3h0zm-9 5.2c1.5-.9 2.9-1.3 4.4-2m4.6-11.2c-1.1-1.1-1.8-2-2.2-3.3-.7-1.8-.9-4-.4-5.9.2-.7.4-1.3 1.1-.7.9.9 2.2 3.5 2.6 4.4.7 2 1.5 4.4 1.8 5.7l-2.9-.2h0z"/>
    <path fill="#342923" stroke="#342923" stroke-width=".1044" d="M70.9 69.8c-1.3-.4-3.7-2.4-4.8-3.1-1.3-1.1-2.2-3.1-2.9-4.8-.2-.7 0-.9.7-.7 1.1.2 2.9 1.3 3.7 2 1.3 1.3 3.3 3.1 4.2 4.2l-.9 2.4h0z"/>
    <path fill="#342923" stroke="#342923" stroke-width=".1044" d="M65.2 69.8c-1.8-.7-3.3-1.5-4.6-3.1-.4-.4-.7-1.1 0-1.1 1.1-.2 3.7.4 4.6.9 1.8.7 3.7 1.3 4.8 2l-.7 1.8c-1.2.2-2.8-.2-4.1-.5h0z"/>
    <path fill="#342923" stroke="#342923" stroke-width=".1044" d="M69.2 72.7c-1.1.7-2 .2-3.3.4-1.8 0-3.7-.2-5.5-1.1-.7-.4-1.1-.9-.4-1.1 1.1-.4 3.5-.9 4.6-.9 1.8 0 3.1.2 4.4.4l.2 2.3h0zm-1.8-14.5c.7 2.2 1.8 5.1 3.1 7M65 63c1.5 1.5 3.3 3.3 5.3 4.4m-7.1-.2c2 1.1 3.5 1.5 5.5 2m-6.1 2c2.2.4 4 .4 5.9.7m-5.9 2.8c2.4-.2 3.5-.4 5.7-.2m-5.7.2h0zm1.5 9.2c1.5-2 1.8-2 3.3-4.2m-.6 7.3c1.3-2 2.2-3.1 2.6-5.5m.4 7.9c.9-2.2 1.1-2.9 1.8-5.3M65 94.7c.9-1.1 2.6-3.7 3.3-5.3M61.9 92c.7-.9 2.6-3.3 3.3-4.4m2.4 9.9c.7-1.3 2.2-3.3 3.5-5.7m.3 7.9c1.1-2 2.6-6.8 3.5-8.8m-2.2 1.8c.9-2 1.5-4.2 2-6.4m-7.1-41.7c-1.3 3.7-1.5 7.5-1.1 9.9"/>
    <g fill="#342923" stroke="#342923" stroke-linecap="round" stroke-linejoin="round" stroke-width=".1087">
        <path d="M70.9 67.9c-.4-.4-2.2-2.2-2.9-1.3-.4.4.7 2.4 2.4 3.1m.5-1.8h0z"/>
        <path d="M68.7 67c1.1.9 1.1.9 1.8 1.5M68.7 67h0z"/>
    </g>
    <g fill="#342923" stroke="#342923" stroke-linecap="round" stroke-linejoin="round" stroke-width=".1087">
        <path d="M71.4 68.5c-.9-1.1-2.2-3.3-1.5-3.7.4-.4.7-.4 2.4 1.5m-.9 2.2h0z"/>
        <path d="M70.3 65.7c.4.9.9 1.1 1.1 1.5m-1.1-1.5h0z"/>
    </g>
    <g fill="#342923" stroke="#342923" stroke-linecap="round" stroke-width=".1074">
        <path d="M67.9 76c-1.1 0-4 1.1-3.1 1.8.7.7 2.2-.2 2.6-.2m.5-1.6h0z"/>
        <path stroke-linejoin="round" d="M65.4 77.3c.4-.2 1.3-.4 1.8-.7m-1.8.7h0z"/>
    </g>
    <g fill="#342923" stroke="#342923" stroke-linecap="round" stroke-linejoin="round" stroke-width=".1062">
        <path d="M68.3 74c-2.2.2-3.5.9-3.5 1.3 0 .9 1.5.9 3.3.9m.2-2.2h0z"/>
        <path d="M65.9 75.3c.9-.2 1.3-.2 2.2-.4m-2.2.4h0z"/>
    </g>
    <path fill="#342923" stroke="#342923" stroke-linecap="round" stroke-linejoin="round" stroke-width=".1044" d="M69.2 72c-1.5.2-4 .2-4 1.3 0 .7 1.5.9 2.9.9m1.1-2.2h0z"/>
    <path fill="#342923" stroke="#342923" stroke-linecap="round" stroke-linejoin="round" stroke-width=".1044" d="M69.2 72.9c-.4.2-1.8.2-2.9.4m2.9-.4h0z"/>
    <path fill="#342923" stroke="#342923" stroke-linecap="round" stroke-linejoin="round" stroke-width=".1087" d="M69.8 70.9c-2-.4-4-.7-4 0s1.5 1.5 3.5 1.8m.5-1.8h0zm-.2.9l-2.6-.6m2.6.6h0z"/>
    <path fill="#342923" stroke="#342923" stroke-linecap="round" stroke-linejoin="round" stroke-width=".1087" d="M70.5 69.2c-.2 0-3.3-1.5-4-.7-.4.7 1.1 1.5 2.6 2.4m1.4-1.7h0z"/>
    <path fill="#342923" stroke="#342923" stroke-linecap="round" stroke-linejoin="round" stroke-width=".1087" d="M67.6 69.2c1.8.7 1.5.9 2.9 1.1m-2.9-1.1h0z"/>
    <path fill="#342923" stroke="#342923" stroke-width=".1044" d="M59.5 82.6c.7-.4.9-.7 1.5-1.1"/>
    <g fill="#342923" stroke="#342923" stroke-linecap="round" stroke-width=".1082">
        <path d="M67.6 77.5c-.9.2-3.5 1.5-2.6 2.2.7.4 2.2-.4 2.4-.4m.2-1.8h0z"/>
        <path stroke-linejoin="round" d="M65.7 79.3c.4-.2 1.1-.7 1.8-.9m-1.8.9h0z"/>
    </g>
    <g fill="#342923" stroke="#342923" stroke-linecap="round" stroke-width=".1085">
        <path d="M67.9 79.1c-.9.4-3.5 2-2.4 2.4.7.4 2.2-.7 2.4-.7m0-1.7h0z"/>
        <path stroke-linejoin="round" d="M65.9 81c.4-.2 1.1-.7 1.5-1.1M65.9 81h0z"/>
    </g>
    <g fill="#342923" stroke="#342923" stroke-linecap="round" stroke-width=".1086">
        <path d="M68.1 80.6c-.9.4-3.3 2.2-2.2 2.6.7.4 2.2-.9 2.4-.9m-.2-1.7h0z"/>
        <path stroke-linejoin="round" d="M66.5 82.6c.4-.4 1.1-.9 1.5-1.1m-1.5 1.1h0z"/>
    </g>
    <g fill="#342923" stroke="#342923" stroke-linecap="round" stroke-width=".1085">
        <path d="M68.7 81.7c-.9.7-2.9 2.6-1.5 3.1.9.2 2-1.1 2.2-1.3m-.7-1.8h0z"/>
        <path stroke-linejoin="round" d="M67.4 83.9c.2-.4.9-.9 1.1-1.3m-1.1 1.3h0z"/>
    </g>
    <g fill="#342923" stroke="#342923" stroke-linecap="round" stroke-width=".1078">
        <path d="M69.6 82.4c-.7.7-2.2 3.1-.9 3.3.9 0 1.5-1.5 1.8-1.8m-.9-1.5h0z"/>
        <path stroke-linejoin="round" d="M68.7 84.8c.2-.4.7-1.1.9-1.5m-.9 1.5h0z"/>
    </g>
    <g fill="#342923" stroke="#342923" stroke-linecap="round" stroke-width=".1076">
        <path d="M70.7 83.2c-.7.7-2 3.3-.7 3.3.9 0 1.5-1.5 1.8-1.8m-1.1-1.5h0z"/>
        <path stroke-linejoin="round" d="M70 85.9c.2-.4.7-1.1.9-1.8m-.9 1.8h0z"/>
    </g>
    <g fill="#342923" stroke="#342923" stroke-linecap="round" stroke-width=".1071">
        <path d="M72 83.7c-.7.9-1.5 3.3-.4 3.3.9 0 1.3-1.8 1.5-2M72 83.7h0z"/>
        <path stroke-linejoin="round" d="M71.6 86.3c.2-.4.4-1.1.7-1.8m-.7 1.8h0z"/>
    </g>
    <g fill="#342923" stroke="#342923" stroke-linecap="round" stroke-width=".1064">
        <path d="M73.1 84.1c-.4.9-1.3 3.5 0 3.3.9-.2 1.3-1.8 1.3-2m-1.3-1.3h0z"/>
        <path stroke-linejoin="round" d="M73.1 86.8c0-.4.4-1.1.4-1.8m-.4 1.8h0z"/>
    </g>
    <g fill="#342923" stroke="#342923" stroke-linecap="round" stroke-width=".1051">
        <path d="M74.9 84.1c-.4.9-1.3 3.5-.2 3.3.9 0 1.3-1.8 1.3-2m-1.1-1.3h0z"/>
        <path stroke-linejoin="round" d="M74.9 86.8c0-.4.4-1.1.4-1.8m-.4 1.8h0z"/>
    </g>
    <path fill="#342923" stroke="#342923" stroke-width=".1044" d="M76.2 100.2c.7-2 1.3-6.2 2-8.3m-1.3-.5c.7-2 1.3-3.5 1.3-5.7"/>
    <g fill="#342923" stroke="#342923" stroke-linecap="round" stroke-width=".1036">
        <path d="M76.9 83.9c-.4.9-1.3 3.5-.2 3.3.9 0 1.3-1.8 1.3-2m-1.1-1.3h0z"/>
        <path stroke-linejoin="round" d="M76.9 86.3c0-.4.4-1.1.4-1.8m-.4 1.8h0z"/>
    </g>
    <path fill="#342923" stroke="#342923" stroke-width=".1044" d="M83.2 83.9c.4 1.3.4 2 .2 3.3-.2 2-1.3 4-2.6 5.7-.4.7-1.1 1.1-1.3.2-.4-1.1-.4-4-.2-5.1.4-2 .4-1.5.9-3.1l3-1h0zm-2.4 16.5c.2-2.2.9-6.6 1.3-8.8"/>
    <g fill="#342923" stroke="#342923" stroke-linecap="round" stroke-width=".1029">
        <path d="M78.2 83.7c-.4.9-.7 3.7.4 3.3.9-.2.9-2 .9-2.2m-1.3-1.1h0z"/>
        <path stroke-linejoin="round" d="M78.6 86.1c0-.4.2-1.3.2-1.8m-.2 1.8h0z"/>
    </g>
    <g fill="#342923" stroke="#342923" stroke-linecap="round" stroke-width=".1029">
        <path d="M80.2 83.2c-.4.9-.9 3.5.2 3.3.9-.2 1.1-1.8 1.1-2m-1.3-1.3h0z"/>
        <path stroke-linejoin="round" d="M80.4 85.9c0-.4.2-1.1.2-1.8m-.2 1.8h0z"/>
    </g>
    <path fill="#342923" stroke="#342923" stroke-width=".1044" d="M80.4 91.4c.7-2.2.9-3.7 1.3-6.4"/>
    <g fill="#342923" stroke="#342923" stroke-linecap="round" stroke-width=".1029">
        <path d="M81.9 83.7c-.4.9-.9 3.5.2 3.3.9-.2 1.1-1.8 1.1-2m-1.3-1.3h0z"/>
        <path stroke-linejoin="round" d="M81.9 86.3c0-.4.2-1.1.2-1.8m-.2 1.8h0z"/>
    </g>
    <g fill="#342923" stroke="#342923" stroke-linecap="round" stroke-width=".1029">
        <path d="M83.7 84.1c-.4.9-1.3 3.5-.2 3.3.9 0 1.3-1.8 1.3-2m-1.1-1.3h0z"/>
        <path stroke-linejoin="round" d="M83.5 86.8c0-.4.4-1.1.4-1.8m-.4 1.8h0z"/>
    </g>
    <path fill="#342923" stroke="#342923" stroke-width=".1044" d="M86.5 83.7c-.7-2.4-3.7-4.2-6.4-3.3-1.3.4-3.7 3.1-6.6 3.1-4.6-.4-5.1-5.7-4-9 1.8-5.1 5.1-6.8 2-13-1.5-3.3-1.5-7.9-1.1-10.1.2-.9-.4-.9-.7 0-.9 1.8-1.1 5.3-.9 6.8.2 1.3.4 2.6.9 4 2.2 4.4 0 6.4-2 10.8-2.2 4.6-2.2 11.2 4.2 13 4.6.4 7.5-3.1 11.7 0m2.9-2.3h0zm-8.3 18h0z"/>
    <g fill="#342923" stroke="#342923">
        <path stroke-width=".1044" d="M129.7 78c5.5 3.3 10.3 6.8 18.3 8.3.4 0 .9.4.2.4-7.3-.7-14.3-5.1-18.9-8.1m.4-.6h0zm-1.6-4.6c5.9 2.6 11.2 5.5 19.1 5.9.4 0 .9.2.2.4-7.3.2-14.7-3.1-20-5.7m.7-.6h0z"/>
        <path stroke-width=".1044" d="M148.6 90.5c-.9-.4-1.8-1.1-2.6-1.5-1.8-.9-3.5-2.2-5.5-3.1-2.9-1.5-4.6-3.1-7.3-4.8-.4-.4-1.8-1.3-2-1.3 0 .4-1.1 1.5-1.3 1.8 3.1 3.5 8.6 7 12.5 7.5-4.2-.4-9.7-4.2-12.5-7.5-1.3.7-1.8.4-2.4 1.1 3.3 2.9 7.5 6.2 11.7 7.3 2.9.7 5.7 1.3 9 1.3.8-.2.8-.4.4-.8h0z"/>
        <path stroke-width=".1044" d="M148.6 82.8c-.9-.4-1.8-.7-2.9-1.1-1.8-.7-3.7-1.5-5.5-2.2-2.9-1.1-10.1-5.3-10.1-5.3s.9.9-.4 2.4c3.3 2.9 9.2 5.3 13 5.5-4 0-9.9-2.9-13-5.5-1.3.7-1.5.7-2.2 1.3 3.5 2.2 7.9 4.6 12.1 5.3 2.9.4 5.7.7 9 .2.4-.2.4-.4 0-.6h0z"/>
        <path stroke-width=".1" d="M115.6 97.7c-.2 5.1-.2 9.4 1.5 15.4 0 .2 0 .7-.4.2-2.2-5.1-2.9-11.4-2.2-16m1.1.4h0z"/>
        <path stroke-width=".098799" d="M110.7 96c-.7 5.7-2 10.8-.2 17.4 0 .2 0 .9-.2.2-2.4-5.9-1.3-13-.2-18m.6.4h0z"/>
        <path stroke-width=".09402" d="M114.3 114.7v-3.1c0-2 .2-4.2 0-6.2 0-3.1.2-5.5.4-8.6 0-.7.2-2.2 0-2.4-.2.2-1.8.2-2 .2-1.3 4.8-1.5 9.7-.2 14.7-1.3-5.1-.9-10.1.2-14.7-.2 0 .9-2.4.7-2.4-.7-.4-2.2-.4-2.9.2-.9 4.4-1.5 11-.4 15.2.7 2.4 1.5 5.1 3.1 7.5.8.4 1.1.2 1.1-.4h0z"/>
        <path stroke-width=".102" d="M122.2 115.3c-.2-1.1-.4-2.2-.7-3.1-.4-2-.7-4.4-1.1-6.4-.7-3.3-.9-5.7-1.1-9 0-.7 0-2.4-.4-2.4-.2.2-1.8.7-2 .7-.7 5.3.7 11.4 2.6 15.2-2-3.7-3.1-10.1-2.6-15.2-.2 0 .4-2.6.4-2.6-.9-.2-2.4-.2-3.1.7 0 4.8.7 11.6 2.4 15.6 1.3 2.4 2.6 5.1 4.8 7.3.6-.1.8-.1.8-.8h0z"/>
        <g stroke-linecap="round" stroke-width=".1029">
            <path d="M110.1 84.6c0 .9.4 3.7 1.5 3.1.7-.4.2-2.2.2-2.4m-1.7-.7h0z"/>
            <path stroke-linejoin="round" d="M111.2 87c-.2-.4-.2-1.3-.4-1.8m.4 1.8h0z"/>
        </g>
        <g stroke-linecap="round" stroke-width=".1047">
            <path d="M112.1 83.9c-.2.9-.4 3.7.7 3.3.9-.2.7-2 .9-2.2m-1.6-1.1h0z"/>
            <path stroke-linejoin="round" d="M112.5 86.3v-1.8m0 1.8h0z"/>
        </g>
        <g stroke-linecap="round" stroke-width=".1039">
            <path d="M113.4 83.9c-.2.9 0 3.7 1.1 3.3.7-.4.7-2 .7-2.2m-1.8-1.1h0z"/>
            <path stroke-linejoin="round" d="M114 86.3c0-.4 0-1.3-.2-1.8m.2 1.8h0z"/>
        </g>
        <path stroke-width=".1044" d="M114.5 96h0c.2 0 .2 0 0 0zm13.4-16.9c.9 1.1 1.5 2 2.6 3.1 1.5 1.1 3.5 2 5.5 2.2.7.2 1.3 0 .9-.7-.7-1.1-2.9-3.5-3.7-4-1.8-1.1-2.9-1.5-4-2.2l-1.3 1.6h0zm-.7-17.4c2-4.6 4.4-9 4.2-14.9 0-.2.2-.7.4-.2.9 5.5-1.8 11.4-4 15.6m-.6-.5h0zm-.6 4c4-4 8.1-7 10.8-13 .2-.2.4-.7.4 0-1.8 5.7-7 10.3-10.8 13.6m-.4-.6h0z"/>
        <path stroke-width=".1044" d="M125.5 66.5c5.5-2 10.6-3.3 15.8-7.5.2-.2.7-.4.4.2-4.4 4.4-11.2 6.6-16.3 8.1m.1-.8h0zm.6 1.8c5.7-.4 11.2-.4 17.4-3.1.2-.2.9-.2.2.2-5.5 3.1-12.8 3.5-18 3.5m.4-.6h0zm-.4 2c6.4 1.3 12.3 2.9 20.2 1.8.4 0 .9 0 .2.2-7 1.8-15.2 0-20.9-1.5m.5-.5h0zm-5.5 27c.9 6.2 1.1 11.6 4.6 18.2.2.2.2.9-.2.4-4-5.7-5.1-13.2-5.3-18.7m.9.1h0zm3.3-1.1c2.2 5.7 3.7 11.2 8.4 16.5.2.2.4.9-.2.4-4.8-4.6-7.5-11.6-9.2-16.9m1 0h0zm2.9-2.6c3.5 5.1 6.4 10.1 12.8 14.5.2.2.4.7 0 .4-6.4-3.5-10.6-9.9-13.6-14.7m.8-.2h0zm3-5.1c4 4.8 7 9.7 13.6 13.8.4.2.7.7 0 .4-6.6-3.1-11.4-9.2-14.5-13.8m.9-.4h0zm.5-5.3c4.8 4.2 8.8 8.3 16.1 11.2.4.2.9.4 0 .4-7-2-13-7.3-16.9-11.4m.8-.2h0z"/>
        <path stroke-width=".1044" d="M146.8 99.3c-.9-.7-1.5-1.5-2.4-2.2-1.5-1.3-3.1-3.1-4.8-4.4-2.4-2.2-4.2-4-6.2-6.4-.4-.4-1.3-1.8-1.8-1.8-.2.4-1.5 1.3-1.8 1.3 2.4 4.2 7.9 8.1 11.2 10.3-3.5-2.2-9-6.4-11.2-10.3-1.5.2-2 .2-2.9.7 2.6 3.7 6.2 7.7 10.3 9.9 2.6 1.3 5.5 2.6 9 3.1.8.4.8.2.6-.2h0zm.4-23.8l-2.6-.7c-1.8-.4-3.7-.9-5.5-1.1-2.9-.7-4.8-1.3-7.5-2-.4-.2-1.8-.7-2-.4 0 .2-.7 1.5-.7 1.5 3.5 2 8.6 2.9 13 3.1-4.6 0-9.5-1.1-13-3.1-1.1.7-1.3 1.1-1.8 1.8 3.5 1.5 7.9 2.6 12.1 2.6 2.6 0 5.3-.2 8.1-1.1.4-.1.4-.3-.1-.6h0z"/>
        <path stroke-width=".1044" d="M146.6 67.9c-1.5-.4-9.5.9-15.6 0-.4.9-.7 1.3-1.8 2 3.5.2 7.5.4 11.2-.2-3.7.7-7.5.4-11.2.2-.4.2-1.3 1.1-1.8 1.3 4.6.9 8.6 1.8 14.1 0 1.5-.7 3.1-1.3 4.8-2.2.5-.5.7-.7.3-1.1h0z"/>
        <path stroke-width=".1044" d="M144.2 60.8c-.9.4-1.5.7-2.6.9-1.8.4-2.9.7-4.6 1.5-2.2.9-7.7 3.5-9.9 4 .2.2 1.1.7 1.1.9 4-.7 8.1-2 11.7-4.2-3.5 2-7.7 3.5-11.7 4.2-.2.2.2 1.1.2 1.5 4-.7 7-1.3 11-3.5 2.4-1.5 4-2.4 5.5-4.6-.3-.5-.3-.9-.7-.7h0z"/>
        <path stroke-width=".1044" d="M140.2 54.2c-2.6 1.8-4.6 3.7-7 5.7-2 1.8-7.5 5.7-9.7 7 .4.2 1.5.2 1.5.4 4.2-2 8.4-5.1 11.4-8.3-3.1 3.3-7.3 6.4-11.4 8.3-.2.4-.4 1.1-.2 1.5 4.2-2 7.7-3.3 11.9-7.5 2-2.4 3.3-4 4-6.8.2-.3-.1-.5-.5-.3h0z"/>
        <path stroke-width=".1044" d="M134.5 48.3c-3.1 6.8-6.6 11.9-9.9 18 .4 0 1.5-.2 1.5-.2 2.9-3.3 5.1-7.3 6.4-11.6-1.3 4.4-3.5 8.3-6.4 11.6 0 .4 0 .9.4 1.3 2.6-3.5 5.5-6.4 7-11 .9-3.1 1.8-4.8 1.3-7.9.4-.4-.1-.6-.3-.2h0z"/>
        <path stroke-width=".1044" d="M124.2 40.4c-.4.2 2.6 5.7 2 12.3-.2 1.5-.2 3.3-.9 4.8-.4.9-1.1 1.3-1.3 2.2 0 .4 0 1.5.2 1.8.2.2 2.2 1.3 2.6 1.8 1.3-1.1 2.9-6.4 3.1-10.5 0-6-4-13.5-5.7-12.4h0zm19.5 66.3c-.7-.9-1.3-1.5-2.2-2.4-1.3-1.5-2.9-3.5-4.4-4.8-2.2-2.4-3.7-4.6-5.5-7-.4-.4-1.1-2-1.5-2-.2.2-1.8 1.1-2 1.3 1.8 4.6 6.2 9.9 10.1 11.6-4-2-8.4-7.5-10.1-11.6-1.8 0-2 0-2.9.4 2.2 4 5.3 8.6 9.2 11.2 2.6 1.5 5.3 3.1 8.8 4.2.5-.2.7-.4.5-.9h0z"/>
        <path stroke-width=".1074" d="M138 113.1c-.7-.9-1.1-2-1.8-2.9-1.1-1.8-2.2-4-3.5-5.7-2-2.9-2.9-5.3-4.4-8.1-.2-.7-.9-2.2-1.3-2.2-.2.2-1.8 1.1-2 1.1 1.3 5.1 4.8 11.2 8.1 13.6-3.5-2.4-7-8.8-8.1-13.6-1.5 0-1.8-.2-2.9 0 1.8 4.4 4 9.7 7.5 13 2.2 2 4.6 4 7.9 5.5.5.2.7 0 .5-.7h0z"/>
        <path stroke-width=".1044" d="M129.9 116c-.4-1.1-.7-2.2-1.1-3.3-.9-2-1.5-4.4-2.4-6.4-1.3-3.3-2-5.9-2.9-9.2-.2-.7-.4-2.4-.9-2.4-.2.2-1.8.9-2 .9.4 5.5 2.6 12.5 5.3 15.4-2.9-3.1-5.1-10.1-5.3-15.4-.2 0 0-2.6-.2-2.6-.9-.2-2.4.2-2.9 1.1.9 4.8 2.9 12.1 5.3 15.8 1.8 2.4 3.5 4.8 6.2 6.8.9-.1 1.1-.1.9-.7h0z"/>
        <path stroke-width=".1044" d="M117.3 89.2c.7 4.8 2 9.7 5.5 13.4.7.7 1.1.9 1.3 0 .2-1.3-.2-4.2-.4-5.3-.7-2-1.1-3.3-1.8-4.6l-2.2-5.1-2.4 1.6h0z"/>
        <path stroke-width=".1044" d="M120.9 89.6c.2 1.8 1.1 3.7 1.8 5.5.9 2.2 2.4 4.2 4.4 5.7.7.7 1.3.9 1.3-.2 0-1.5-1.1-5.1-1.8-6.2-1.1-2.2-2.4-4.6-3.3-5.9l-2.4 1.1h0z"/>
        <path stroke-width=".1044" d="M117.8 85.2c0 1.3 0 2 .4 3.3.7 1.8 2 3.5 3.7 5.3.7.7 1.1.9 1.3.2.2-1.1-.4-4-.9-5.1-.9-2-.7-1.5-1.5-2.9l-3-.8h0zm-3.3 3.8c-.2 4.8.2 9.9 3.1 14.1.4.7.9.9 1.3.2.4-1.1.4-4.2.4-5.3-.2-2-.7-3.3-.9-4.8l-1.1-5.5-2.8 1.3h0z"/>
        <path stroke-width=".1044" d="M114.3 84.3c-.2 1.3-.2 2 0 3.3.4 1.8 1.3 3.7 2.9 5.7.4.7 1.1 1.1 1.3.2.2-1.1.2-4 0-5.1-.4-2-.4-1.5-1.1-3.1l-3.1-1h0zm-3.3 4.9c-.7 4.8-.4 9.9 2.2 14.1.4.7.9 1.1 1.3.2.4-1.1.9-4.2.7-5.3-.2-2-.4-3.3-.7-4.8l-.9-5.5-2.6 1.3h0zm12.5-.9c.2 1.5 1.5 3.1 2.4 4.6 1.1 2 2.6 3.5 4.6 4.8.7.4 1.3.7 1.3-.2-.2-1.3-1.3-5.1-2-6.2-1.1-2-2.4-3.7-3.5-4.8l-2.8 1.8h0z"/>
        <path stroke-width=".1044" d="M121.1 84.3c-.2.7 0 1.1.2 2.2.4 1.8 1.5 3.5 3.3 5.3.7.7 1.3.9 1.5.2.2-.9 0-3.5-.4-4.4-.7-1.8-.4-1.5-1.1-2.6l-3.5-.7h0zm4.8 0c.2 1.5 1.5 3.5 2.4 4.8 1.1 1.8 2.4 3.7 4.8 5.1.9.4 1.5.7 1.5-.2 0-1.3-1.5-4.4-2.2-5.3-1.3-2-3.3-4.8-4.4-5.9l-2.1 1.5h0z"/>
        <path stroke-width=".1044" d="M123.5 82.6c0 .4.2 1.3.4 2 .7 1.5 2 3.1 3.7 4.4.7.4 1.3.7 1.3 0 .2-1.1-.4-3.5-.9-4.4-.9-1.8-.4-1.3-1.3-2.4l-3.2.4h0zm4-6.6c.9 1.1 2 1.8 3.1 2.4 1.8.9 3.7 1.5 5.7 1.5.7 0 1.3 0 .9-.7-.7-.9-3.1-2.6-4.2-3.1-1.8-.9-3.1-1.5-4.4-2l-1.1 1.9h0z"/>
        <g stroke-width=".1039">
            <path d="M126.6 81.5c.4 1.5 2.9 3.3 3.7 4.4 1.3 1.5 2.9 2.6 4.8 3.5.7.2 1.3.2.9-.4-.4-1.3-2-3.7-2.6-4.6-1.3-1.5-3.7-4.2-4.6-5.1l-2.2 2.2h0z"/>
            <path d="M134.1 87.6c-2-1.8-3.7-4-4.8-6.2m4.8 6.2h0z"/>
        </g>
        <path stroke-width=".1044" d="M126.4 78.2c1.3.7 2 1.3 2.9 2.2 1.1 1.3 2.2 2.9 2.4 4.8.2.7 0 1.1-.7.9-1.1-.4-3.3-2.2-4-2.9-1.1-1.5-.9-1.3-1.5-2.4l.9-2.6h0z"/>
        <path stroke-width=".1044" d="M125.3 75.5c.4 1.1 1.1 2.2 2 3.3 1.3 1.3 2.9 2 4.8 2.6.7.2 1.3.2 1.1-.4-.4-1.1-2-3.3-2.9-4-1.3-1.1-2.9-1.8-4-2.4l-1 .9h0zm5.9 4.7c-1.1-1.1-2.6-2.2-4.4-3.7"/>
        <path stroke-width=".1044" d="M125.3 73.4c1.3-.4 1.8-.4 3.3-.4 2 0 4 .7 5.7 1.8.7.4 1.1.9.4 1.1-1.1.4-4 .4-4.8.2-1.8-.2-2.6-.2-4-.4l-.6-2.3h0zm9 5.2c-1.5-.9-2.9-1.3-4.4-2m-4.6-11.4c1.1-1.1 1.8-2 2.2-3.3.7-1.8.9-4 .4-5.9-.2-.7-.4-1.3-1.1-.7-.9.9-2.2 3.5-2.6 4.4-.7 2-1.5 4.4-1.8 5.7l2.9-.2h0z"/>
        <path stroke-width=".1044" d="M123.3 69.8c1.3-.4 3.7-2.4 4.8-3.1 1.3-1.1 2.2-3.1 2.9-4.8.2-.7 0-.9-.7-.7-1.1.2-2.9 1.3-3.7 2-1.3 1.3-3.3 3.1-4.2 4.2l.9 2.4h0z"/>
        <path stroke-width=".1044" d="M129 69.8c1.8-.7 3.3-1.5 4.6-3.1.4-.4.7-1.1 0-1.1-1.1-.2-3.7.4-4.6.9-1.8.7-3.7 1.3-4.8 2l.7 1.8c1.2.2 2.8-.2 4.1-.5h0z"/>
        <path stroke-width=".1044" d="M125 72.7c1.1.7 2 .2 3.3.4 1.8 0 3.7-.2 5.5-1.1.7-.4 1.1-.9.4-1.1-1.1-.4-3.5-.9-4.6-.9-1.8 0-3.1.2-4.4.4l-.2 2.3h0zm1.8-14.5c-.7 2.2-1.8 5.1-3.1 7m5.5-2.2c-1.5 1.5-3.3 3.3-5.3 4.4m7.1-.4c-2 1.1-3.5 1.5-5.5 2m6.1 2.2c-2.2.4-4 .4-5.9.7m5.9 2.8c-2.4-.2-3.5-.4-5.7-.2m5.7.2h0zm-1.7 9.2c-1.5-2-1.8-2-3.3-4.2m.9 7.3c-1.3-2-2.2-3.1-2.6-5.5m-.5 7.9c-.9-2.2-1.1-2.9-1.8-5.3m6.6 10.6c-.9-1.1-2.6-3.7-3.3-5.3m6.4 2.4c-.7-.9-2.6-3.3-3.3-4.4m-2.4 9.9c-.7-1.3-2.2-3.3-3.5-5.7m-.3 8.1c-1.1-2-2.6-6.8-3.5-8.8m2.2 1.6c-.9-2-1.5-4.2-2-6.4m7.1-41.5c1.3 3.7 1.5 7.5 1.1 9.9"/>
        <g stroke-linecap="round" stroke-linejoin="round" stroke-width=".1087">
            <path d="M123.3 67.6c.4-.4 2.2-2.2 2.9-1.3.4.4-.7 2.4-2.4 3.1m-.5-1.8h0z"/>
            <path d="M125.5 67c-1.1.9-1.1.9-1.8 1.5m1.8-1.5h0z"/>
        </g>
        <g stroke-linecap="round" stroke-linejoin="round" stroke-width=".1087">
            <path d="M122.8 68.5c.9-1.1 2.2-3.3 1.5-3.7-.4-.4-.7-.4-2.4 1.5m.9 2.2h0z"/>
            <path d="M123.9 65.4c-.4.9-.9 1.1-1.1 1.5m1.1-1.5h0z"/>
        </g>
        <g stroke-linecap="round" stroke-width=".1074">
            <path d="M126.4 76c1.1 0 4 1.1 3.1 1.8-.7.7-2.2-.2-2.6-.2m-.5-1.6h0z"/>
            <path stroke-linejoin="round" d="M128.8 77.3c-.4-.2-1.3-.4-1.8-.7m1.8.7h0z"/>
        </g>
        <g stroke-linecap="round" stroke-linejoin="round" stroke-width=".1062">
            <path d="M125.9 74c2.2.2 3.5.9 3.5 1.3 0 .9-1.5.9-3.3.9m-.2-2.2h0z"/>
            <path d="M128.3 75.3c-.9-.2-1.3-.2-2.2-.4m2.2.4h0z"/>
        </g>
        <path stroke-linecap="round" stroke-linejoin="round" stroke-width=".1044" d="M125 72c1.5.2 4 .2 4 1.3 0 .7-1.5.9-2.9.9M125 72h0z"/>
        <path stroke-linecap="round" stroke-linejoin="round" stroke-width=".1044" d="M125 72.9c.4.2 2 .2 2.9.4m-2.9-.4h0z"/>
        <path stroke-linecap="round" stroke-linejoin="round" stroke-width=".1087" d="M124.4 70.9c2-.4 4-.7 4 0s-1.5 1.5-3.5 1.8m-.5-1.8h0zm.2.9l2.6-.7m-2.6.7h0z"/>
        <path stroke-linecap="round" stroke-linejoin="round" stroke-width=".1087" d="M123.5 69.2c.2 0 3.3-1.5 4-.7.4.7-1.1 1.5-2.6 2.4m-1.4-1.7h0z"/>
        <path stroke-linecap="round" stroke-linejoin="round" stroke-width=".1087" d="M126.6 69c-1.8.7-1.5.9-2.9 1.1m2.9-1.1h0z"/>
        <path stroke-width=".1044" d="M134.7 82.6c-.7-.4-.9-.7-1.5-1.1"/>
        <g stroke-linecap="round" stroke-width=".1082">
            <path d="M126.6 77.5c.9.2 3.5 1.5 2.6 2.2-.7.4-2.2-.4-2.4-.4m-.2-1.8h0z"/>
            <path stroke-linejoin="round" d="M128.6 79.3c-.4-.2-1.1-.7-1.8-.9m1.8.9h0z"/>
        </g>
        <g stroke-linecap="round" stroke-width=".1085">
            <path d="M126.4 79.1c.9.4 3.5 2 2.4 2.4-.7.4-2.2-.7-2.4-.7m0-1.7h0z"/>
            <path stroke-linejoin="round" d="M128.3 81c-.4-.2-1.1-.7-1.5-1.1m1.5 1.1h0z"/>
        </g>
        <g stroke-linecap="round" stroke-width=".1086">
            <path d="M126.1 80.6c.9.4 3.3 2.2 2.2 2.6-.7.4-2.2-.9-2.4-.9m.2-1.7h0z"/>
            <path stroke-linejoin="round" d="M127.7 82.6c-.4-.4-1.1-.9-1.5-1.1m1.5 1.1h0z"/>
        </g>
        <g stroke-linecap="round" stroke-width=".1085">
            <path d="M125.5 81.7c.9.7 2.9 2.6 1.5 3.1-.9.2-2-1.1-2.2-1.3m.7-1.8h0z"/>
            <path stroke-linejoin="round" d="M126.8 83.9c-.2-.4-.9-.9-1.1-1.3m1.1 1.3h0z"/>
        </g>
        <g stroke-linecap="round" stroke-width=".1078">
            <path d="M124.6 82.4c.7.7 2.2 3.1.9 3.3-.9 0-1.5-1.5-1.8-1.8m.9-1.5h0z"/>
            <path stroke-linejoin="round" d="M125.5 84.8c-.2-.4-.7-1.1-.9-1.5m.9 1.5h0z"/>
        </g>
        <g stroke-linecap="round" stroke-width=".1076">
            <path d="M123.5 83.2c.7.7 2 3.3.7 3.3-.9 0-1.5-1.5-1.8-1.8m1.1-1.5h0z"/>
            <path stroke-linejoin="round" d="M124.2 85.7c-.2-.4-.7-1.1-.9-1.8m.9 1.8h0z"/>
        </g>
        <g stroke-linecap="round" stroke-width=".1071">
            <path d="M122.2 83.7c.7.9 1.5 3.3.4 3.3-.9 0-1.3-1.8-1.5-2m1.1-1.3h0z"/>
            <path stroke-linejoin="round" d="M122.6 86.3c-.2-.4-.4-1.1-.7-1.8m.7 1.8h0z"/>
        </g>
        <g stroke-linecap="round" stroke-width=".1064">
            <path d="M121.1 84.1c.4.9 1.3 3.5 0 3.3-.9-.2-1.3-1.8-1.3-2m1.3-1.3h0z"/>
            <path stroke-linejoin="round" d="M121.1 86.8c0-.4-.4-1.1-.4-1.8m.4 1.8h0z"/>
        </g>
        <g stroke-linecap="round" stroke-width=".1051">
            <path d="M119.3 84.1c.4.9 1.3 3.5.2 3.3-.9 0-1.3-1.8-1.3-2m1.1-1.3h0z"/>
            <path stroke-linejoin="round" d="M119.3 86.8c0-.4-.4-1.1-.4-1.8m.4 1.8h0z"/>
        </g>
        <path stroke-width=".1044" d="M118 100.2c-.7-2-1.3-6.2-2-8.3m1.3-.5c-.7-2-1.3-3.5-1.3-5.7"/>
        <g stroke-linecap="round" stroke-width=".1036">
            <path d="M117.3 83.9c.4.9 1.3 3.5.2 3.3-.9 0-1.3-1.8-1.3-2m1.1-1.3h0z"/>
            <path stroke-linejoin="round" d="M117.3 86.3c0-.4-.4-1.1-.4-1.8m.4 1.8h0z"/>
        </g>
        <path stroke-width=".1044" d="M111 83.9c-.4 1.3-.4 2-.2 3.3.2 2 1.3 4 2.6 5.7.4.7 1.1 1.1 1.3.2.4-1.1.4-4 .2-5.1-.4-2-.4-1.5-.9-3.1l-3-1h0zm2.4 16.5c-.2-2.2-.9-6.6-1.3-8.8"/>
        <g stroke-linecap="round" stroke-width=".1029">
            <path d="M116 83.5c.4.9.7 3.7-.4 3.3-.9-.2-.9-2-.9-2.2m1.3-1.1h0z"/>
            <path stroke-linejoin="round" d="M115.6 86.1c0-.4-.2-1.3-.2-1.8m.2 1.8h0z"/>
        </g>
        <g stroke-linecap="round" stroke-width=".1029">
            <path d="M114 83.2c.4.9.9 3.5-.2 3.3-.9-.2-1.1-1.8-1.1-2m1.3-1.3h0z"/>
            <path stroke-linejoin="round" d="M113.8 85.9c0-.4-.2-1.1-.2-1.8m.2 1.8h0z"/>
        </g>
        <path stroke-width=".1044" d="M113.8 91.1c-.7-2.2-.9-3.7-1.3-6.4"/>
        <g stroke-linecap="round" stroke-width=".1029">
            <path d="M112.3 83.7c.4.9.9 3.5-.2 3.3-.9-.2-1.1-1.8-1.1-2m1.3-1.3h0z"/>
            <path stroke-linejoin="round" d="M112.3 86.3c0-.4-.2-1.1-.2-1.8m.2 1.8h0z"/>
        </g>
        <g stroke-linecap="round" stroke-width=".1029">
            <path d="M110.5 84.1c.4.9 1.3 3.5.2 3.3-.9 0-1.3-1.8-1.3-2m1.1-1.3h0z"/>
            <path stroke-linejoin="round" d="M110.7 86.8c0-.4-.4-1.1-.4-1.8m.4 1.8h0z"/>
        </g>
        <path stroke-width=".1044" d="M107.7 83.7c.7-2.4 3.7-4.2 6.4-3.3 1.1.4 2.9 2.9 6.6 3.1 4.6-.4 5.1-5.7 4-9-1.8-5.1-5.1-6.8-2-13 1.5-3.3 1.5-7.9 1.1-10.1-.2-.9.4-.9.7 0 .9 1.8 1.1 5.3.9 6.8-.2 1.3-.4 2.6-.9 4-2.2 4.4 0 6.4 2 10.8 2.2 4.6 2.2 11.2-4.2 13-4.6.4-7.5-3.1-11.7 0m-2.9-2.3h0zm8.3 18h0z"/>
    </g>
    <g fill="#342923" stroke="#342923">
        <path stroke-width=".1156" d="M90.7 53.8c0 .2-.2.2-.2.2l-.2-.2c0-.2.2-.2.2-.2s.2 0 .2.2zm-1.1-.7h-.9"/>
        <path stroke-width=".1111" d="M81 56.9s.2 2 2 2.4c1.8.4 4.2-.9 6.4-.9 1.8-.2 3.5.7 5.3 1.1v.4c-1.3-.2-3.7-1.1-4.8-.9-2.9.4-4.8 2-7.3 1.1-3.1-1-2-2.6-1.6-3.2h0z"/>
        <path stroke-linejoin="round" stroke-width=".1004" d="M105.5 77.1c0-2-1.1-2.4-1.5-3.1-.2 0 1.1 0 2.2-.7-3.3-.9-2.4-2.6-3.7-4.2.2-.4 1.5.2 2 .2-.7-.7-1.5-2-1.8-2.6 1.1.7 2.4-.4 2.6-1.8-.9 1.1-2.9.4-2.6-1.3.2-1.1 0-1.1-.4-2.2.4 0 .7.2 1.1.4 0-.4-.7-1.3-1.1-1.8 0-.9-1.1-2.2-1.5-3.1.7 0 1.3.4 1.5.4-.7-1.5-2.2-3.1-4-4.2.7-.2 1.1-.7 1.1-1.3-.4.2-2 .7-2.6.7-2.2 0-3.1-.2-5.1-.4-1.8 0-2.9.2-4.2 1.5l.7 1.1 1.5 3.1c.7.2 4.2.2 3.3 2h-1.5l.2 1.1c3.1 0 .9 5.3-1.8 3.7.7 1.5 1.5 2 2.4 1.5-.2.4-1.1.9-1.1 1.5-.4.4-.7.7-.9 1.3 0 .2-.9.4-1.3.4.9.9 1.5.9 2.4.4-.7.7-2.4 1.8-2.2 2.9.2 2-.7 2-2 3.1 1.5.2 2.9 0 3.1-1.8 0 .9-.7 1.5-1.5 2.4-1.3 1.3-3.3 1.3-4.2 3.1-5.5 5.9-2.4 14.5.4 22.9 2.6 4.8 3.5 14.3 4.6 19.1 0 3.5 4.6 5.5 6.8 8.1 2.4-2.6 6.8-4.6 6.8-8.1.9-4.8 2-14.1 4.6-18.9 2.9-8.1 5.9-17.1.4-23.1-3.1-3.3-5.3-3.1-6.6-5.1h0c1.9.8 3 1.9 3.9 2.8h0z"/>
        <path stroke-width=".1111" d="M88.1 59.5c-.2 2 3.1 1.3 4.6 1.8l.9-1.1c-2.2-.5-3.1.6-5.5-.7h0zm-.2-5.7c-2 .2-5.9 2.2-3.3 4 .7-2 2.9-1.3 4.2-.2.9.7 2.4.7 3.5 1.1.6-1.6-3.3-3.1-4.4-4.9h0zm4.8 4.2c.9 0 1.3.2 1.8.7l.7 1.3c.2.7.2 1.1 0 1.5.2-.4 0-.9 0-1.5l-.7-1.3c-.5-.5-1.1-.7-1.8-.7h0zm4.8 1.9c.4.2.7.7.7.9.4-.4.4-.9.2-1.5.2.4.2 1.1-.2 1.5 0-.2-.2-.6-.7-.9zm1.6 2c.4.4.9.9.9 1.5.4-.7.4-1.3.2-2 .2.7 0 1.3-.2 2-.3-.6-.5-1-.9-1.5h0zm-1.6 2.7c.4-.4.7-.7.7-1.1-.2.4-.4.6-.7 1.1 0-.2-.2-.4-.4-.7.2.2.2.4.4.7zm2 10.9c.7.2 1.1.7 1.3 1.1.4-.9.2-1.8-.2-2.4.7.9.7 1.5.2 2.4 0-.2-.6-.6-1.3-1.1zm.9 2.7c-.2.2-.4.4-.7.9-.2-.4-.2-.9-.2-1.3-.2.4 0 .9.2 1.3.3-.5.5-.7.7-.9zm-3.5-1.3c-.4.4-.7 1.1-.7 2-1.1-1.3-1.1-2.6 0-3.5m.7 1.5h0zm.4-5.7c-.2.7-.9 1.8.4 2.9 0-.4 0-.4.9-1.8m-1.3-1.1h0zm.2-2.9c.7.2.9.4.7 1.1.2-.7 0-1.1-.7-1.1 0 .7-.4 1.1-1.1 1.5.2-.7.2-1.1 0-1.8-.2 0-.4 0-.7-.4-.9.2-1.3-.2-1.5-1.1-.2-.4-.2-1.1.3-1.5-.2.4-.2.9-.2 1.5.2.9.9 1.1 1.5 1.1-.2-.2-.4-.7-.4-1.1.2.4.2.9.4 1.1.2.4.4.4.7.4.2.7.2 1.1 0 1.8.6-.4 1-.8 1-1.5V67v1.3zm2.7 1.3c1.1.7 1.5 1.3 1.5 2.2-.2-.2-.7-.4-1.1-.2.7.4.9 1.1.9 1.5 0-.4-.2-1.1-.9-1.5.4 0 .7 0 1.1.2 0-.9-.4-1.5-1.5-2.2zm-2.4-14.7c.4 1.1.4 2-.4 2.2.8-.2.8-.9.4-2.2zm-1.8 0c.9 1.3.9 2-.2 2.2.9 0 1.1-.9.2-2.2zm-1.8 17.4c-.9.7-1.3 1.5-1.1 2.4.2-.2.7-.4 1.1-.4-.4.7-.7 1.1-.7 1.8-.2-.4 0-1.1.7-1.8-.4 0-.7.2-1.1.4-.2-.9.3-1.6 1.1-2.4zm5.8-7.5c.2.4 1.1 1.5 0 2.9-.2-.4 0-.4-1.1-1.8m1.1-1.1h0zM94.5 69c0 .4-.7 1.5.2 2.4 0-.2 0-.4.7-1.5m-.9-.9h0zm.4-6.9c-.2.4-.7 1.5.2 2.4 0-.2 0-.4.7-1.5m-.9-.9h0zm4.6-5.4c.2.4.9 1.3 0 2.2 0-.2 0-.4-.9-1.3m.9-.9h0zm-9.2-2.2c.9-.2 2.2.7 3.3.2-.4.4-.7 1.3-2.2 1.1-1.1 0-1.6-.9-1.1-1.3h0zm.2 0c-.4 0-.7 0-.9.2"/>
        <path stroke-miterlimit="10" stroke-width="3.7734" d="M91.2 54.5c-.2 0-.7.2-.7.4s.2.7.4.7.7-.2.7-.4c0-.5-.2-.7-.4-.7z"/>
        <path stroke-miterlimit="10" stroke-width="3.7734" d="M90.9 54.7c-.2 0-.2.2-.2.2l.2.2.2-.2-.2-.2z"/>
        <path stroke-width=".1004" d="M90.1 91.1c-.9.7-1.8 1.3-1.8 2.6.4-.2.4-.7 1.5-.9-1.3 1.3-.9 2.4-.9 3.7.4-.4.7-.7 1.1-.9-.4 1.3.2 2.2.9 2.9m-3.5-9.1c-.7 0-1.3.4-1.5 1.5m1.3.9c-1.8 1.3-1.1 2.6-.9 3.1m6.6-15.8c-1.8.9-2.4 2.4-1.8 5.1.4-.7 1.1-1.3 2.2-1.8m1.6 1.3c-.2 1.5.4 3.1 1.8 4.2m-8.4 12.7c-.7.4-1.1.9-1.1 1.8.2-.2.4-.4.9-.7-.9.9-.4 1.5-.7 2.4.2-.2.4-.4.7-.4-.2.9.2 1.3.7 2m.2 1.5c-.9 1.3-.4 2.6-.2 3.7.2-.7.2-1.3 1.1-2-1.1 2 0 4.6-.2 6.6.2-.7.4-1.5 1.1-2-.4 1.8.9 3.5.9 5.1l.9-1.8m.5-15.3c-1.8.9-2.4 2.4-1.8 5.1.4-.7 1.1-1.3 2.2-1.8-1.5 1.5-1.1 3.1-.4 4.4m1.8-2.5c-.2 1.5.4 3.1 1.8 4.2m-1.8-17.1c-.2 1.5.4 3.1 1.8 4.2m-3.8-10.4c-.7.2-1.1.9-1.1 2m1.6.7c-1.3 1.8-.2 2.9 0 3.3m.6 19.3c-.4 2.2 2 4.4 2.2 6.4M83 93.8c0 1.5-.7 2.9-2 3.7 2 .2 2.9 0 3.1-2-.2.7 0 .7-.7 1.8-1.1 1.3-.9 2.2-.9 3.1.4-.2.9-.7 1.3-.9-.4 1.1-.9 2.2-.2 4.2l1.1-1.8c-.7 1.8-.2 3.3.7 4.4 0-.9 1.3-1.8.9-3.1M83 93.8h0zm.2-2.9c-.4.4-.9 1.1-.9 2-1.1-1.5-.9-2.9.2-3.7m.7 1.7h0zm20.9.2c.9.7 1.8 1.3 1.8 2.6-.4-.2-.4-.7-1.5-.9 1.3 1.3.9 2.4.9 3.7-.4-.4-.7-.7-1.1-.9.4 1.3-.2 2.2-.9 2.9m3.7-6.7c1.8 1.3 1.1 2.6.9 3.1m-6.6-15.8c1.8.9 2.4 2.4 1.8 5.1-.4-.7-1.1-1.3-2.2-1.8m-1.6 1.3c.2 1.5-.4 3.1-1.8 4.2m8.4 12.7c.7.4 1.1.9 1.1 1.8-.2-.2-.4-.4-.9-.7.9.9.4 1.5.7 2.4-.2-.2-.4-.4-.7-.4.2.9-.2 1.3-.7 2m-.4 1.5c.9 1.3.4 2.6.2 3.7-.2-.7-.2-1.3-1.1-2 1.1 2 0 4.6.2 6.6-.2-.7-.4-1.5-1.1-2 .4 1.8-.9 3.5-.9 5.1l-.9-1.8m-.3-15.3c1.8.9 2.4 2.4 1.8 5.1-.4-.7-1.1-1.3-2.2-1.8 1.5 1.5 1.1 3.1.4 4.4m-2-2.5c.2 1.5-.4 3.1-1.8 4.2m1.8-17.1c.2 1.5-.4 3.1-1.8 4.2m4-10.4c.7.2 1.1.9 1.1 2m-1.6.7c1.3 1.8.2 2.9 0 3.3m-.6 19.3c.4 2.2-2 4.4-2.2 6.4m8.8-29.9c.7 0 1.3.4 1.5 1.5m-24-9.9c-1.5.4-3.1 1.3-2.9 4 .7-1.1.9-1.3 1.5-1.5-.9 1.5-1.1 3.5-2.6 4.8.9 0 1.5-.2 2-.9m2-6.4h0zm2.9-2.6c-.2 0-3.5.4-3.7 2.2.4-.2.7-.4 2.4-.4m1.3-1.8h0zm24 15.4c0 1.5.7 2.9 2 3.7-2 .2-2.9 0-3.1-2 .2.7 0 .7.4 1.8 1.1 1.3.9 2.2.9 3.1-.4-.2-.9-.7-1.3-.9.4 1.1.9 2.2.2 4.2l-1.1-1.8c.7 1.8.2 3.3-.7 4.4 0-.9-1.3-1.8-.9-3.1m3.6-9.4h0zm-.2-2.9c.4.4.9 1.1.9 2 1.1-1.5.9-2.9-.2-3.7m-.7 1.7h0zm-1.1-9.9c1.5.4 3.1 1.3 2.9 4-.7-1.1-.9-1.3-1.5-1.5.9 1.5 1.1 3.5 2.6 4.8-.9 0-1.5-.2-2-.9m-2-6.4h0zm-15 40.2c-.7 1.3 1.8 3.1 1.8 4.2m2.6-4.2c.7 1.3-1.8 3.1-1.8 4.2m-4.4.5c-.2 4.6-1.1 7.7-4.2 9.2 2.6 0 4.4-1.3 5.7-3.5-.7 5.5-3.1 9.4-6.8 11.4-2.2.9-3.5.7-4.4-.4-.4-1.1-.2-2 .4-2.2 1.3-.4 1.8.4 1.8 2.2 1.5-1.8 1.5-3.3 0-4.6-2-1.1-3.5-.2-4.2 2.4-1.5-2.6-3.3-3.3-5.3-2 2.4 0 2.9 1.8 1.8 5.1-6.4-1.1-9.7.2-9.9 4.4 0 3.5 2.2 4.4 6.2 2.9-3.1.2-4.6-.7-4.4-3.1.7-2.6 5.1-1.3 6.6 0 1.1.9 2.4 1.1 4 .7 0 1.5-1.3 2.2-4 1.8.4 2 1.5 2.9 3.5 2.4 0 .9-1.1 1.3-3.1 1.5 1.8.7 3.1.4 4.4-.9.7 1.8 2 2.4 4.2 2.2 1.5-.4 2-1.5 1.3-3.7 0 1.8-.9 2.4-2.9 2-.9-.4-1.1-1.1-.2-2 1.1-1.3 2.2-2 3.5-2 1.3-.9 1.8-1.8 1.1-2.6 3.7-3.7 5.7-6.8 6.2-9.7.4 1.8 0 7.7-1.3 10.8-.9 2-2 4.2-3.3 1.5-.4 3.1.9 4 4.4 2.2.2 2.4-2.2 4.4-7.5 5.9-2.6.9-3.7 2.2-3.7 4 .4 1.8 2 2.4 4.4 1.5-1.8 0-2.6-.7-2.6-1.5.4-1.1 1.8-1.5 3.5-1.3-.7 1.3-.2 2.2.9 2.2 0-1.8 1.5-3.1 4.4-4 .7 2.9-.4 4.6-2.9 5.5 1.5.7 2.9.2 3.7-1.5 0 2.6.9 4.4 2.2 5.5 1.5-1.1 2.2-3.1 2.2-5.5.9 1.8 2.2 2.2 3.7 1.5-2.6-.9-3.5-2.6-2.9-5.5 3.1.9 4.6 2.2 4.4 4 1.3-.2 1.5-.9.9-2.2 1.8-.4 3.1 0 3.5 1.3 0 1.1-.9 1.5-2.6 1.5 2.4.9 4 .2 4.4-1.5 0-2-1.1-3.3-3.7-4-5.3-1.8-7.9-3.7-7.5-5.9 3.5 1.8 5.1.9 4.4-2.2-1.3 2.6-2.4.4-3.3-1.5-1.3-3.3-1.8-9.2-1.3-10.8.4 2.9 2.4 6.2 6.2 9.7-.7.9-.2 1.5 1.1 2.6 1.3.2 2.4.9 3.5 2 .9.9.7 1.5-.2 2-2 .4-2.9-.4-2.9-2-.7 2-.2 3.3 1.3 3.7 2.2.2 3.5-.4 4.2-2.2 1.3 1.3 2.9 1.5 4.4.9-2.2-.2-3.3-.7-3.1-1.5 2 .4 3.3-.4 3.5-2.4-2.6.2-4-.2-4-1.8 1.5.7 2.9.4 4-.7 1.5-1.3 5.9-2.6 6.6 0 .2 2.2-1.1 3.3-4.4 3.1 4 1.5 6.2.4 6.2-2.9-.2-4.2-3.5-5.5-9.9-4.4-1.1-3.3-.7-5.1 1.8-5.1-2-1.3-3.7-.7-5.3 2-.9-2.6-2.2-3.5-4.2-2.4-1.3 1.3-1.3 2.9 0 4.6 0-1.8.4-2.6 1.8-2.2.9.4.9 1.1.4 2.2-.7 1.3-2.2 1.5-4.4.4-4-2-6.2-5.9-6.8-11.4 1.3 2.2 3.1 3.3 5.7 3.5-3.1-1.5-4-4.6-4.2-9.2m-7 0h0z"/>
        <path stroke-width=".1004" d="M89.6 76.6c-1.3 1.1-4.2.2-4.6 1.8.4 0 1.1-.2 2.6.2m2-2h0zm17.4 1.8c.2 0 3.5.4 3.7 2.2-.4-.2-.7-.4-2.4-.4m-1.3-1.8h0z"/>
        <path stroke-width=".1004" d="M104.8 76.9c1.3 1.1 4.2.2 4.6 1.8-.4 0-1.1-.2-2.6.2m-2-2h0z"/>
    </g>
    <g fill="#342923" stroke="#342923">
        <g stroke-width=".1025">
            <path stroke-linejoin="round" d="M120.9 135.3c-.2.4-.4 1.3-.4 1.8v.2c0 .4.4.7.7.9.4.2.9.2 1.1.2.4 0 .7-.4.9-.7.2-.2.4-.7.7-.7.4-.2 1.1-.4 1.5-.2.9.9 1.5 1.3 2.4 1.3h1.3c.4 0 .9 0 1.3.4.4.2.7.7.9 1.3.2.7.4 1.1.7 1.5.2.2.7.4 1.1.2.4-.2.7-.2.9-.7.4-.2.7-.9.7-1.8v-.4c-.2-.2-.4-.7-.9-.9-.4-.2-1.1-.4-1.5-.7-.2 0-.4-.2-.7-.2.2 0 .4 0 .4-.2.2 0 .4-.2.7-.2h.2s.2.2.2.4.2.2.4.4c.2 0 .4.2.7 0 .4 0 .9-.4 1.1-.7 0-.2 0-.2.2-.4.2-.4 0-1.1-.4-1.5-.2-.2-.7-.4-1.1-.2-.9.2-2 .4-2.6.7h-.4c.2 0 .2 0 .4-.2.2 0 .4-.2.4-.4s.2-.2.4-.2h.7c.2 0 .4.2.7.2.7-.2 1.1-.7 1.1-1.3 0-.4-.2-.9-.7-1.1-.2-.2-.7-.2-1.1 0-.7 0-1.1.4-1.8.9-.7.4-1.1.9-1.8.9-.7.2-1.8 0-2.4-.2-4.2-2.4-7.9-5.1-9.9-7-1.8-.7-2.6-1.5-3.3-1.3-1.3.2-.7 2.2-1.1 4.2.4.4 1.3.4 2 .7h1.1c.4 0 .4 0 .7.2 2.4 1.8 5.7 3.3 7.9 4.8-.4-.2-.7-.2-1.1-.4-.7-.2-1.1-.2-1.5-.2-.4 0-.6.4-.8.6h0z"/>
            <path d="M128.8 136c.7.4 1.8.9 2.6 1.1m-2.6-1.1h0z"/>
            <path stroke-linejoin="round" d="M131.2 135.5c-1.1 0-2.9-.9-4-1.5m4 1.5h0zm.2 1.8c-.7-.2-1.5-.7-2.6-1.1m2.6 1.1h0z"/>
            <path d="M120.9 135.3c-2.9-.9-4 2.2-2 3.1 0-1.3.9-1.5 2-.9.8-.4 1.1-1.5 0-2.2h0zm12.9 4c3.1 0 2.9 3.3.7 3.5.4-1.3-.4-2-1.5-1.5-.3-.9-.3-2 .8-2h0zm1.1-4.2c2.6-.9 4 1.5 2.2 2.6-.2-1.3-1.3-1.5-2-.9-.6-.2-.8-.8-.2-1.7h0zm-.6-2.9c2.2-1.3 3.7.7 2.2 1.8-.2-1.1-1.1-.9-1.8-.4-.6-.3-.6-.7-.4-1.4z"/>
        </g>
        <g stroke-width=".1024">
            <path stroke-linejoin="round" d="M105.2 113.1c.4.4.9 1.1 1.5 1.8h0c.7.7 3.3 3.3 4.8 3.5-.2.4-1.1.4-1.3.7 2.6 2.2 3.3 1.5 5.3 2.4-.9.2-1.3.2-1.5.9.9 0 3.3.9 4.6 1.3-1.3.2-1.8.9-1.3 1.1.4.2 1.5.7 3.1.4-.7 1.1-1.5 1.1-2.6 1.1.4.4 1.3 1.3 1.3 1.8-1.1 0-2-.4-2.9-1.1.9.7 1.3 1.3 1.8 2.2-1.3.2-2.2 0-3.5-1.3.2.4.9 2.4.7 3.3-.4-.2-1.1-1.5-2-1.8.4.9.4 1.8-.4 3.3-.4-.9-.7-2.2-1.3-3.1-.2.7-1.3 1.1-2.2.7.7-.2 1.1-1.8-.4-3.3 0 .7-.4 1.5-1.5 1.5.9-.9-.9-2.4-4.6-4m2.4-11.4h0z"/>
            <path d="M109.2 121.9c.7.2 1.8.9 3.1 0-.4-.2-.4 0-1.8-.9m-1.3.9h0zm3.3 2.6c.7 0 2 .7 2.9-.7-.4 0-.4.2-2-.7m-.9 1.4h0zm-2.2.3c.4.4 1.8 1.1 1.3 2.6-.2-.2-.2-.4-1.8-1.1m.5-1.5h0zm-3.3-4c.4.4 1.8 1.1 1.3 2.6-.2-.2-.2-.4-1.8-1.1m.5-1.5h0z"/>
        </g>
    </g>
    <g fill="#342923" stroke="#342923">
        <g stroke-width=".1025">
            <path stroke-linejoin="round" d="M73.3 135.3c.2.4.4 1.3.4 1.8v.2c0 .4-.4.7-.7.9-.4.2-.9.2-1.1.2-.4 0-.7-.4-.9-.7-.2-.2-.4-.7-.7-.7-.4-.2-1.1-.4-1.5-.2-.9.9-1.5 1.3-2.4 1.3h-1.3c-.4 0-.9 0-1.3.4-.4.2-.7.7-.9 1.3-.2.7-.4 1.1-.7 1.5-.2.2-.7.4-1.1.2-.4-.2-.7-.2-.9-.7-.4-.2-.7-.9-.7-1.8v-.4c.2-.2.4-.7.9-.9.4-.2 1.1-.4 1.5-.7.2 0 .4-.2.7-.2-.2 0-.4 0-.4-.2-.2 0-.4-.2-.7-.2h-.2s-.2.2-.2.4l-.4.4c-.2 0-.4.2-.7 0-.4 0-.9-.4-1.1-.7 0-.2 0-.2-.2-.4-.2-.4 0-1.1.4-1.5.2-.2.7-.4 1.1-.2.9.2 2 .4 2.6.7h.2c-.2 0-.2 0-.4-.2-.2 0-.4-.2-.4-.4s-.2-.2-.4-.2h-.7c-.2 0-.4.2-.7.2-.7-.2-1.1-.7-1.1-1.3 0-.4.2-.9.7-1.1.2-.2.7-.2 1.1 0 .7 0 1.1.4 1.8.9s1.1.9 1.8.9c.7.2 1.8 0 2.4-.2 4.2-2.4 7.9-5.1 9.9-7 1.8-.7 2.6-1.5 3.3-1.3 1.3.2.7 2.2 1.1 4.2-.4.4-1.3.4-2 .7h-1.1c-.4 0-.4 0-.7.2-2.4 1.8-5.7 3.3-7.9 4.8.4-.2.7-.2 1.1-.4.7-.2 1.1-.2 1.5-.2.4 0 .8.4 1 .6h0z"/>
            <path d="M65.2 136c-.7.4-1.8.9-2.6 1.1m2.6-1.1h0z"/>
            <path stroke-linejoin="round" d="M63 135.5c1.1 0 2.9-.9 4-1.5m-4 1.5h0zm-.2 1.8c.7-.2 1.5-.7 2.6-1.1m-2.6 1.1h0z"/>
            <path d="M73.1 135.3c2.9-.9 4 2.2 2 3.1 0-1.3-.9-1.5-2-.9-.6-.4-.8-1.5 0-2.2h0zm-12.9 4c-3.1 0-2.9 3.3-.7 3.5-.4-1.3.4-2 1.5-1.5.3-.9.5-2-.8-2h0zm-1.1-4.2c-2.6-.9-4 1.5-2.2 2.6.2-1.3 1.3-1.5 2-.9.8-.2 1-.8.2-1.7h0zm.8-2.9c-2.2-1.3-3.7.7-2.2 1.8.2-1.1 1.1-.9 1.8-.4.7-.3.7-.7.4-1.4z"/>
        </g>
        <g stroke-width=".1024">
            <path stroke-linejoin="round" d="M89 113.1c-.4.4-.9 1.1-1.5 1.8h0c-.7.7-3.3 3.3-4.8 3.5.2.4 1.1.4 1.3.7-2.6 2.2-3.3 1.5-5.3 2.4.9.2 1.1.2 1.5.9-.9 0-3.3.9-4.6 1.3 1.3.2 1.8.9 1.3 1.1-.4.2-1.5.7-3.1.4.7 1.1 1.5 1.1 2.6 1.1-.4.4-1.3 1.3-1.3 1.8 1.1 0 2-.4 2.9-1.1-.9.7-1.3 1.3-1.8 2.2 1.3.2 2.2 0 3.5-1.3-.2.4-.9 2.4-.7 3.3.4-.2 1.3-1.5 2-1.8-.4.9-.4 1.8.4 3.3.4-.9.7-2.2 1.3-3.1.2.7 1.3 1.1 2.2.7-.7-.2-1.1-1.8.4-3.3 0 .7.4 1.5 1.5 1.5-.9-.9.9-2.4 4.6-4M89 113.1h0z"/>
            <path d="M85 121.9c-.7.2-1.8.9-3.1 0 .4-.2.4 0 1.8-.9m1.3.9h0zm-3.3 2.6c-.7 0-2 .7-2.9-.7.4 0 .4.2 2-.7m.9 1.4h0zm2.2.3c-.4.4-1.8 1.1-1.3 2.6.2-.2.2-.4 1.8-1.1m-.5-1.5h0zm3.3-4c-.4.4-1.8 1.1-1.3 2.6.2-.2.2-.4 1.8-1.1m-.5-1.5h0z"/>
        </g>
    </g>
</svg>
