<svg xmlns="http://www.w3.org/2000/svg" viewBox="0 0 192 196.1">
    <path fill="#960900" d="M186.2 97.9c0 49.3-40 89.3-89.3 89.3s-89.3-40-89.3-89.3 40-89.3 89.3-89.3 89.3 40 89.3 89.3z"/>
    <path fill="#fff" d="M139.6 57.4l9.4-8.7c-13.3-15.2-32.9-24.5-54.6-24.5-40.2 0-72.8 32.8-72.8 73.2 0 40.4 32.6 73.2 72.8 73.2 22.7 0 43-10.5 56.4-26.9l-10.8-7.2c-11.7 15.3-26.8 23.9-40.8 23.9-28.3 0-51.3-23-51.3-63 0-39.8 23.6-63 50-63.4 19 .7 30.9 10.7 41.7 23.4z"/>
    <path fill="#fff" d="M70.4 50.1v37.1c1.8 1.9 3.8 2.9 6.4 3.8l11.9 4c3.9 1.3 7.1 3.4 10.3 5.9h22.9v-9.5H90.2V59.2h33.3v-9.1H70.4zm0 54.9v40.9h19.8v-33c-1.4-.7-2.9-2.1-4.5-2.7 0 0-5.7-1.9-8.2-2.8-2-.7-6.6-2.2-6.6-2.2-.1-.1-.3-.2-.5-.2z"/>
    <path fill="#fff" d="M110.7 68v22h8.4v-4.2l28.6 46.1h9.1V68h-8.1v37.1L125.2 68h-14.5zm0 34.3V132h8.4v-29.7h-8.4zm-41.6-36c-6.8 3.6-11.7 10.5-11.7 18.2 0 9.3 6.7 16.9 15.7 19.9l11 3.7c6.4 2.1 10.3 5.9 10.3 11.2 0 2.7-1.2 5.1-3.1 7.1v8.6c7.6-3.3 13-10.6 13-18.9 0-9.3-6.7-16.9-15.7-19.9l-11-3.7c-7-2.2-10.3-5.9-10.3-11.2 0-1.8.8-3.7 1.7-5.3v-9.7h.1zm22.2.3v6.3c1.8 1.4 3 3 4.5 4.8l3.9-3.2c-2-3.3-5-6-8.4-7.9zm-29.6 53.8l-4.2 3.7c1.9 2.4 3.9 4.2 5.8 5.6 1.9 1.4 3.9 2.6 5.8 3.7V127c-1-.7-2.2-1.3-3.1-2.1-1.8-1.5-3.4-3.2-4.3-4.5z"/>
</svg>
