<svg xmlns="http://www.w3.org/2000/svg" viewBox="0 0 278.9 288">
    <path d="M42.8 167.3c2.9-2.7 9.4-7.5 11-9.1-4.4 3-9.6 7.9-12.9 8.7-.5.1-1.1.2-1.4.3 0 .2 0 .4-.1.7v.3c1.2.6 1.8 2.1.7 3.3l1.6 3.4c-.5-2.3-1.5-5 1.1-7.6"/>
    <path d="M41.7 175l.6 1.4h.1l-.7-1.6c-.1.1-.1.2 0 .2m136.5 11.7c-.1-.1-.2-.3-.3-.5-.1.1-.1.3-.2.4.1 0 .3.1.5.1"/>
    <path d="M161.5 243c1 1.9 1.6 5.6-1.5 5.9-1.6-4.5-3.7-7-6.3-10.7-2.3-2.7-4.9-5.6-6.8-8.7 4.3 4.8 12.6 9.7 14.6 13.5m-14.4 22.6c.6-4.4-.6-14.1-2.3-20.8-1.2-4.4-5.3-16.2-3.4-20.3.7 5.5 2.9 14.1 6.1 21.1 2.1 5.2 5.5 16.9-.4 20m20.3-12.8c1.8 3-.7 5.2-4.1 5.2 0-1.2 0-1.7-.3-3 1.6-.1 3.4-.7 4.4-2.2m-34-8c-1.6 6.7-2.9 16.3-2.3 20.8-5.9-3.1-2.5-14.8-.3-19.9 3.1-7 5.4-15.6 6.1-21.1 1.8 4.1-2.3 15.8-3.5 20.2m-9-6.7c-2.7 3.6-4.7 6.2-6.4 10.7-3-.3-2.4-4-1.5-5.9 2.1-3.7 10.4-8.6 14.5-13.5-1.7 3.2-4.4 6-6.6 8.7m-9.5 19.9c-3.4 0-5.9-2.2-4.1-5.2.9 1.4 2.6 2.1 4.2 2.1-.1 1.5-.1 2-.1 3.1m23.6-49.2c-15.4 0-28.9-7.6-37.3-19.2-2.2 1.2-4.9 1.4-8 .3.1 1 .3 1.6.7 2.1-5.4.9-7.7 3-9.7 6.5-2.7 4.7.2 10.7-.6 13.1-.6 1.6-2.4 3-5.3 1.6 1.4 6.2 9.1 5.5 11.2 2.1.8 2.8 0 6.2-1.4 7.4 2.3.2 4.4-.9 5.7-2.7.3.6.3 1.4.4 2.1 1.4-.7 2.2-1.5 2.8-2.2.2.7.5 2.3.1 3.6-1.1.7-2.3 1.4-3.9 2.2-2.9 1.5-8.1 3.5-11.2 3.9-2.5.5-6.7-1-7.9-4.4-1-3.3-3.7-4.4-5.9-2.3-.6-.4-2.2-.7-2.7.3 0 0-.7-1.6-1.6-2.4.6-1.7.2-3.7-1.4-4.4-.2-3.2-2.2-3.2-2.9-4.4-.4-.7-.4-1.6.6-1.6-.4-.7-1.3-.8-1.4-.8.3-1.4-.2-3.1-2-3.7l-14.4-29.5h-.1l-.6-1.4v-.2l-1.6-3.4c1.1-1.2.5-2.7-.7-3.3v-.3c.1-.3.1-.5.1-.7.4-.1 1-.2 1.4-.3 3.3-.8 8.5-5.7 12.9-8.7-1.6 1.7-8 6.4-11 9.1-2.7 2.6-1.6 5.3-1.2 7.6l.7 1.6c2.4.2 6.1 1.6 8.8-.6.8-.8 12.8-15.8 14.5-17.2-.7 1.4-8.3 11-11.7 16.5-2.4 4.1 1.3 7 1.7 9.3 2.7-.9 6.5.8 8.4-2.6 2-3.2 7.8-14.6 10-17.7-.8 2.4-7 15.3-7.4 16.4-1.5 4.4 2.2 5.2 3.7 8.1 2.3-1.6 6.4-.4 7.9-4.5 1-2.8 3.4-12.6 4.7-15.3-.2 2.8-1 6.8-1.6 11.1-.6 4.3 3.4 4.2 5.6 6.7 2.1-1.8 5.8-1.3 6.4-5.2.3-1.9.5-5.2.6-7.9-.8-3.4-1.4-7-1.4-10.7 0-9 2.7-17.4 7.2-24.5-3.9 1.1-8.8 0-11.6-4.1-2.8-4 .4-6.9 2-8.5 4.1-3.8 4.1-7.6 1.2-11.8-3.7-5.5-15.3-14.6-19.7-21.2-.7 1.2-1.2 2.4-1.3 2.8-4.2-3.2-8.8-9.8-10.4-14.7-.8.2-1.4 1.1-2.1 1.7-6.5-8.1-18.1-27.6-21.4-35.2-7 3.3-6.9 13.3-4.7 19 1.9 5.2 5.1 10.8 11.7 18.5-2.1-1.6-15.2-15-18.1-16.6-4.8 7-1.5 19.1 7.7 24.3-2.8-1.3-9.8-3.8-13.5-2.9-.8 7.7 5.5 13 9.4 16-3.8-.9-8.1-1.5-12.3-.3.3 5.3 5.8 11.3 13.5 14-4.9-.5-9.9.1-12.9 2 .5 5.5 6.8 10.2 14.2 11.3-5 .6-9.4 2.7-11.7 5.8 2.7 3.5 6.7 6.3 12.9 6.2-1.4.5-3 1.4-4.4 2.8-.1-.2-.4-.3-.7-.3-.3.2-.4.6-.3.9v.2c-.6.5-.9 1-1 1.5-.6.9-1.2 1.8-1.5 2.6.1.1.3.2.4.3-.1.5 0 1.1.4 1.6-.3.3-.5.8-.6 1.2l-3.6-1.4c-.2 3.3.5 6 2.1 7.6 1.3 1.5 2.8 1.3 2.4 1.8l3.9 2.4c.8 1.5 2.1 1.5 3.1 1.1v.3c0 1.5 1.1 2.8 2.4 3.3-.3 1.3.3 2.1 2 2.6l14.7 35.5c-.6 1.7 0 3.1 1.3 3.7-.3.4-.6.8-.6 1.7.6-.5 1.5-.6 1.9.6.3.8-1.3 3.5 1.1 5.4-.3 1.7.6 3.3 2.3 4 0 .9.8 3.6.9 4.6-1 1.4-3.4 3.7-3.1 6.2.2 1.8 1 2.4 2.4 2.7-.5 3.1 1.3 4.6 3.9 4.7 0 2.4 2.2 3.2 3.6 3.3 1.3 1 1.9 1.4 3.4 2.2-1.5 1.7-.5 3.9 2.1 4.6.3 1 1 1.8 2.5 2.2.9 1.4 2.4 1.4 3.3 1 .6-.3 1.6-2 .7-3.3.6-.8.3-2.1-.1-2.9.8-1.6.1-3.4-1.1-4 .1-.9-.3-2.2-.6-3 2.1-1.3 4.6-2.8 5.5-3.4 5-3.5 10.6-6.7 17-7.2 1.7-.1 4.7-.2 6.4-.1 2.6.3 6.2 1.1 8.3-.6.6-.5 1-1.2.9-1.9-.3-1.6-2.1-3-2.6-4.5-.2-.4-.4-1.1-.7-1.7 1.9.4 3.5.1 4.6-.4 1.1-.4 3.8-2.4 3.7-5.5-2.2 1-7.4 2.4-8-2.9-.6-4.7 3.6-8.7 10.1-7 4.4 1.2 10.8 10.6 5 14.7-2.8 1.9-7.3 3.8-6.7 9 1.9-2.2 4.4-3.4 7.7-3.1-4.9 3.6-8.6 4-13.7 6.7-4.4 2.6-7.7 7-11.1 7-2.7.2-4.2-3-1.6-5.5-2.7-.6-6.1 1.5-7.1 4.2-1.3 3.8-.3 6.5 2.1 7.9-3.2 1.7-5.6 5-4.4 9.7 1.1 3.9 4.9 3.9 3.4 8.8 2.1-.5 3.6-2 4.2-4.1.3-1.5.6-3 1.3-3.7-.3 2.9 1.4 7.3 5.4 9.3 2.7 1.4 7.1 1.9 10.4-1.6 1.4 3.9 6 7.1 10.7 7 2.2 0 4.2-.9 5.9-1.9 1.2 2.8 4 5.8 6.9 7.1 2.9-1.4 5.9-4.2 7-7.1 1.6 1 3.7 1.9 5.9 1.9 4.6.1 9.4-3.1 10.7-7 3.3 3.4 7.7 2.9 10.4 1.6 4-1.9 5.7-6.4 5.4-9.3.8.7 1.1 2.2 1.4 3.7.5 2 1.9 3.5 4.1 4.1-1.5-4.9 2.5-4.9 3.4-8.8 1.1-4.7-1.2-8-4.3-9.7 2.2-1.5 3.3-4.2 2-7.9-1-2.7-4.4-4.8-7-4.2 2.5 2.4 1.2 5.6-1.6 5.5-3.4-.1-6.8-4.4-11.2-7-5.1-2.7-8.8-3.1-13.7-6.7 3.3-.3 5.9.8 7.7 3.1.6-5.1-3.8-7.1-6.7-9-5.9-4.1.6-13.5 5.1-14.7 6.4-1.8 10.6 2.3 10 7-.8 5.4-5.9 4-8.2 2.9 0 3 2.7 5.1 3.9 5.5 1.4.6 3.7.9 6 0-.1.6-.2 1.1-.2 1.3-.4 4.6-2.9 5.1-2.1 6.9 1.2 1.5 9 1.2 11.2 1.6 3.7.5 6.9 2 10.5 2.6 4 .9 8.3.9 12 2.4 2.2 1 4.9 2.8 7.1 4 3.4.6 2.9 2 5.1 2 2 0 2.7-1.7 5.3-2.4 1.8-.4 3.7.3 5.5-.3 1.3-.3 1.9-1.6 3-2.3 1.4-.9 3.3-.9 4.7-2.1.7-.5.9-1.7.8-2.5 2.7-2 4.7-4.7 5.8-7.8.7-.1 1.3-.8 1.3-1.5v-.3c.8-.6 1.2-1.4 1.2-2.3 0-1.1-.5-1.9-1.2-2.7v-.3c0-.6-.3-1-.6-1.4-1.1-6.2-5.8-11-11.8-12.6v-.3h-.1c0-.3-.2-.4-.4-.4-.8-.9-1.9-2.2-2-3 1 .3 2.6 1.9 3.4 2.4v-8.1c-.8.6-2.4 2.2-3.4 2.5.1-1 1.7-2.7 2.4-3.4H219c.8.7 2.4 2.4 2.4 3.4-1-.3-2.5-1.9-3.4-2.5v8.1c.8-.6 2.5-2.2 3.4-2.4-.1 1-1.7 2.7-2.4 3.4l.3.1c-6.2 1.4-11.1 6.5-12.2 12.7-.4.4-.7.8-.7 1.4v.3c-.7.8-1.1 1.6-.4 2.5 0 .9.5 1.7 1.2 2.2v.3c0 .9.6 1.4 1.3 1.5.3.8.6 1.6 1 2.2l.1-.1c-.5 2.3-3.3 3.7-3.9 3.7-5 .7-10.6-1.5-15.7-3.3-2.3-.9-5.3-1.9-6.8-4-1-1.6-1.4-2.6-.9-4 .6.7 1.5 1.5 2.8 2.2.1-.7.1-1.5.4-2.1 1.3 1.9 3.3 2.8 5.8 2.7-1.5-1.3-2.1-4.5-1.5-7.4 2 3.4 9.8 4.1 11.2-2.1-2.9 1.4-4.7-.1-5.3-1.7-.9-2.4 2-8.4-.6-13.1-2.1-3.5-4.4-5.6-9.8-6.4.4-.6.6-1.2.7-2.1-3.6 1.3-6.9.9-9.2-1-8.6 11.9-22.5 19.8-38.3 19.8"/>
    <path d="M261.8 121c-3.1-1.9-8-2.4-13.1-2 8-2.8 13.4-8.7 13.7-14-4.2-1.2-8.5-.6-12.3.3 3.8-2.9 10.2-8.2 9.4-16-3.8-1-10.6 1.6-13.5 2.9 9.2-5.2 12.5-17.3 7.6-24.3-2.8 1.7-15.9 15.1-18.1 16.6 6.7-7.7 9.9-13.3 11.7-18.5 2.2-5.8 2.4-15.7-4.7-19-3.3 7.6-15 27.1-21.4 35.2-.7-.7-1.3-1.6-2.1-1.7-1.6 5-6.2 11.5-10.3 14.7-.2-.4-.7-1.6-1.4-2.8-4.4 6.6-16 15.7-19.7 21.2-2.8 4.1-2.8 7.8 1.2 11.8 1.7 1.6 4.7 4.5 2.1 8.5-3.5 5.1-10.2 5.7-14.2 3 4.9 7.3 7.8 16.1 7.8 25.6 0 2.6-.4 5.1-.8 7.6.4-.5.7-.6 1.3-1.1 0 0 .1 8.4.7 11.8.5 3.9 4.3 3.5 6.2 5.2 2.3-2.5 6.3-2.4 5.7-6.7-.6-4.3-1.5-8.1-1.6-11 1.3 2.6 3.7 12.4 4.7 15.3 1.7 4.1 5.7 2.8 8 4.5 1.4-2.9 5.2-3.7 3.7-8.1-.4-1.1-6.6-14-7.5-16.4 2.3 3.2 8.1 14.6 10 17.7 2 3.3 5.8 1.7 8.4 2.5.5-2.3 4.1-5.2 1.5-9.3-3.2-5.5-11.1-15.1-11.4-16.4 1.6 1.5 13.6 16.3 14.5 17.2 2.8 2.4 7 .6 9.3.6 0-2.7 2.2-5.9-1-9-2.9-2.7-9.6-7.4-11-9.1 4.4 3 9.6 7.9 12.7 8.7 5.5 1.4 7.5-.8 9.5-1.7-1.6-5.1.6-7.4-11.1-12.2 10.1 3.6 14.5 1.9 18.1-1-1.5-3.6-5-6.7-7.9-7.6 6.2.2 10.3-2.6 12.9-6.2-2.3-3-6.8-5.2-11.9-5.8 7.5-.8 13.6-5.5 14.3-11"/>
    <path d="M114.8 66.4c7.8-1.7 15.9-6.2 19.5-9.9 3 .1 6.9.2 9.9.1 3.5 3.7 11.4 8.1 19.4 9.8-4.6 0-12.6-.4-13.6-1.6.3 2.9 6.4 6.2 10.5 7-3.3.5-6.4 0-9-1.2 1.4 2.1 3.1 3.6 5.7 4.5-2.8 3.5-8.6 5.8-14.3 5.2 1.4 1.7 4 2.7 6.3 2.4-5.2 8.2-9 16.7-9.9 26.5-.8-9.8-4.6-18.3-9.8-26.5 2.3.3 4.8-.8 6.2-2.4-5.8.5-11.2-1.8-14.2-5.2 2.6-.9 4.3-2.5 5.7-4.5-2.6 1.2-5.7 1.6-9 1.2 4-.9 10.2-4.1 10.5-7-1.3 1.2-9.3 1.6-13.9 1.6m23.7 50.4c14.7 0 27.6 7 36 17.8 5.7-1.1 7.5-8.2 3.7-12.4-1.6 2.9-5.2 4.3-8.6 2.8-2.3-1-4-2.1-5.1-3.1 5.1 1.6 9.4-1.5 8.8-6.5-4 3.4-8 .1-8.9-.8-2.5-2.9-3.2-6.3-2.2-11.4.8-4.4 5.4-11.5 8.4-13.7.5.5 1.2 1.3 2.6 1.2.9-.2 2.3-1 3.3-1.4 3-.9 6.1-.2 7.9 1 3.4 2.1 3.1 4.5 3 6.2 5.3-2.9 3.5-7.8-3.4-9.7 4.7 0 8.6 4.3 9.6 4.9 2.7 1.9 6.4 1.5 8.5.4 4.2-2.1 5.1-6.9 3.9-7.9-.4 1.8-1.8 3.3-4.1 3.6-3.6.4-7-1.2-9.8-2.3-2.3-1-6.1-1.7-8.6-1.6 4.7-2.7 12.1-2.3 14.7 1.7 1.6-1.3 2.5-2.4 2.9-5 1.4-7-4.1-10.7-10-10.7.1-1.7-1.1-2.6-2.6-2 0-.7-.2-1.3-.6-1.6.2 0 10 .6 15-5.5s-3.1-12.8-.1-18.4c2.8 1.3 5 2.8 9 3.4.4.8.8 2.6.9 3.4 1.3 6.3-5 7.3-3.3 14 .6 4 3.2 5.9 3.7 7.6.5 1.8.3 2.6-1.9 4.7 5 .1 7.3-3.9 5.7-7.9-.7-1.7-2.2-3.1-2.2-4.9 1.3 2.3 3 3.6 8.1 1.7 1.9-.6 2.6 1.9 1.4 3.9 2.7-1.6 3.9-4.4 3.9-5.6 0-2.9-2.1-4.2-4.3-3.6-1.2.1-3.6 1.8-3.7-.6-.5-4 5.9-3.9 4.6-10.4-.8-3.2-4.3-5-10-5.7-.6-.6-2-1.9-2.7-3-3.1-5.1-6.4-6.5-8.2-5.4-2.2 1.2-3.4 2.2-5.3 3.2-1.5.8-3 1.2-4 2.4-2.5 3-.1 7.7 1.2 10.7.8 1.7 2.8 5.5 1.9 8.4-1 3.4-6.8 5.7-10.2 6.3-.2 0-.4.1-.6.1v-1.4c1-1.8 1.9-3.9 2.5-5.8 2.4-6.2-1.1-8.8-6.2-10-.6-.4-1.3-.6-2.2-.3h-.1l-.1 1.1-.7-.2.1-1.3h-.1c.6-.5.9-1.1.9-1.9 0-.6-.2-1.2-.6-1.7h.4l-.9-1.1c-.3-.3-.4-.6-.6-.8.2.1.5.3.9.6l1.1.9v-5.3l-1.1.9c-.4.3-.6.5-.9.6.1-.2.3-.5.6-.9l.9-1.1h-5.2l.9 1.1c.3.3.4.6.5.8-.2-.1-.5-.3-.9-.6l-1.1-.9v5.3l1.1-.9c.4-.3.7-.5.9-.6-.1.2-.3.5-.6.9l-.9 1.1h.5c-.4.4-.5.9-.5 1.7 0 .7.3 1.5.8 1.9h-.1l.1 1.3-.8.2-.1-1.1h-.1c-.9-.3-1.6-.1-2.2.3-5.2 1.3-8.7 3.8-6.4 10 .8 1.9 1.6 4 2.7 5.8v.9c-5.2-1.7-14.6-7.4-17.1-10.9-.2-.4-.5-.7-.6-.9l.1-3.7c1.8-3 3.4-6.7 4.7-10.2 3.3-8.9-1.6-12.6-9.3-14.2-.8-.5-1.8-.8-3-.4l-.3 1.4-1.7-.1.1-1.9h-.9c.9-.6 1.4-1.6 1.4-2.7s-.5-2-1.4-2.7h1.6l-1.2-1.5c-.5-.6-.7-1-.9-1.4.4.2.9.5 1.5 1L144 18v-7.7l-1.5 1.3c-.6.5-1.1.8-1.4.9.1-.4.5-.8.9-1.4l1.3-1.6h-7.6l1.2 1.6c.5.6.7 1 .9 1.4-.4-.2-.9-.5-1.5-1l-1.6-1.3v7.7l1.6-1.3c.6-.5 1.1-.8 1.4-.9-.2.3-.5.8-.9 1.4l-1.3 1.6h1.7c-.7.7-1.2 1.6-1.2 2.7s.6 2 1.4 2.7h-.5l.1 1.9-1.7.1-.1-1.4c-1.3-.5-2.3-.2-3.1.4-7.6 1.5-12.5 5.3-9.2 14.2 1.1 3.4 2.7 7.1 4.7 10.2v3.9c-.2.1-.3.4-.6.7-2.4 3.4-11.9 9.2-17.1 10.9v-.9c1.1-1.8 2-3.9 2.7-5.8 2.3-6.2-1.2-8.8-6.4-10-.6-.4-1.3-.6-2.1-.3h-.1l-.1 1.1-.7-.2.1-1.3h-.3c.4-.5.7-1.2.7-1.9 0-.8-.2-1.4-.6-1.8h.9c-.6-.6-1.2-1.2-1.7-1.9.7.5 1.3 1 1.9 1.6v-5.8c-.6.6-1.2 1.1-1.9 1.5.4-.7 1-1.3 1.7-1.9h-5.8c.5.6 1.1 1.1 1.5 1.9-.6-.3-1.3-.9-1.9-1.5v5.8c.6-.6 1.2-1.2 1.9-1.6-.4.7-.9 1.4-1.5 1.9h.8c-.4.5-.6 1.1-.6 1.8s.3 1.5.9 1.9H99l.1 1.3-.8.1-.1-1.1h-.1c-.9-.3-1.6-.1-2.2.3-5.2 1.3-8.7 3.8-6.4 10 .8 1.9 1.6 4 2.6 5.8v1.4c-.2 0-.5-.1-.6-.1-3.4-.7-9.2-2.9-10.2-6.3-1-2.9 1.1-6.8 2-8.4 1.3-2.9 3.5-7.6 1.2-10.7-1.1-1.2-2.6-1.6-4.1-2.4-1.9-1-2.9-2-5.3-3.1-1.9-1.1-5.1.2-8.2 5.4-.7 1.2-2.1 2.4-2.7 3-5.6.7-9.2 2.4-10 5.7-1.2 6.5 5.1 6.3 4.7 10.4-.1 2.4-2.6.7-3.7.6-2.3-.5-4.4.8-4.4 3.6 0 1.2.8 3.8 3.4 5.5-1.2-2.1-1-4.6.9-4 4 1.3 6.3 1.4 8.9-2 0 1.9-1.6 3.4-2.4 5.1-1.6 4.1 1 8.3 6.2 8.2-2.3-2.2-1.9-4.7-1.9-4.7.7-3.5 2.9-4.6 3.7-7.6 1.6-6.7-4.7-7.7-3.3-14 .2-.9.5-2.5.9-3.4 4-.5 6.2-2.2 9-3.4 2.9 5.6-5.4 12.7-.1 18.4 3 3.1 8.6 5 14.5 5.4.2 0 .4.1.5.1-.4.3-.6.9-.6 1.6-1.6-.6-2.7.3-2.5 2-6.1 0-11.5 3.6-10.1 10.7.4 2.6 1.4 3.7 3 5 2.6-4 9.9-4.3 14.7-1.7-2.6-.1-6.4.6-8.7 1.6-2.6 1.2-6.1 2.7-9.7 2.3-2.4-.3-3.7-1.9-4.2-3.6-1.2 1-.3 6 3.9 7.9 2.1 1.1 5.8 1.4 8.4-.4 1-.6 4.9-4.9 9.6-4.9-6.8 1.8-8.8 6.7-3.4 9.7-.2-1.8-.5-4 2.9-6.2 2-1.2 5-1.9 7.9-1 1.1.4 2.4 1.1 3.3 1.4 1.5.1 2.2-.8 2.6-1.2 3 2.2 7.4 9.3 8.4 13.7 1.1 5.1.3 8.4-2.2 11.4-.8.9-4.9 4.2-8.9.8-.6 5.1 3.7 8.1 8.8 6.5-1.1 1-2.8 2.2-5.1 3.1-3.4 1.5-7 .1-8.6-2.8-3.4 3.9-2.2 9.9 2.2 11.8 8.5-10.8 21.3-17.6 35.7-17.6"/>
    <path d="M138.5 207.2c-24.5 0-44.4-19.9-44.4-44.4s19.9-44.4 44.4-44.4 44.4 19.9 44.4 44.4c-.1 24.6-19.9 44.4-44.4 44.4m38.2-69.9c-.6-1-1.4-1.8-2.1-2.7-8.4-10.7-21.4-17.8-36-17.8-14.4 0-27.1 6.8-35.6 17.1-1.1 1.4-2.3 2.8-3.2 4.3-4.5 7.1-7.2 15.5-7.2 24.5 0 3.7.6 7.2 1.4 10.7 1.4 5.9 3.9 11.3 7.4 16.1 8.3 11.6 21.9 19.2 37.3 19.2 15.8 0 29.7-8 38-20.1.5-.7.8-1.4 1.2-2.1.1-.1.1-.3.2-.4 2.8-4.8 4.9-10.1 5.8-15.8.4-2.5.8-5 .8-7.6-.2-9.3-3.1-18.1-8-25.4"/>
    <path d="M138.5 200.2c-20.7 0-37.4-16.7-37.4-37.4 0-20.6 16.8-37.4 37.4-37.4 20.6 0 37.4 16.7 37.4 37.4s-16.8 37.4-37.4 37.4m38.9-37.4c0-21.5-17.4-38.9-38.9-38.9s-38.9 17.4-38.9 38.9 17.4 38.9 38.9 38.9c21.5.1 38.9-17.4 38.9-38.9"/>
    <path d="M107 171.3c-.6-2.4.8-4.9 3.2-5.5.3-.1.6-.1.9-.1l12.5 1.2-10.3 7.3c-.3.2-.6.3-.9.4-2.3.5-4.7-.9-5.4-3.3m7.1 4l17.1-9.2c-.4-.8-.5-1.6-.6-2.5l-19.5.6c-.4 0-.8.1-1.2.2-3.1.8-5 4.1-4.2 7.2.9 3.1 4.1 5 7.2 4.1.4 0 .8-.2 1.2-.4m32.8 19c-2.4.6-4.9-.8-5.5-3.2-.1-.3-.2-.6-.2-1l1.2-12.5 7.3 10.3.3.9c.7 2.4-.7 4.8-3.1 5.5m4.5-5.9c-.1-.4-.3-.8-.4-1.2l-9.2-17.1c-.8.4-1.6.5-2.5.6l.6 19.5c.1.4.1.8.2 1.2.9 3.2 4.1 5 7.2 4.2 3.1-.8 4.9-4.1 4.1-7.2m-44.4-34c.4-1.6 1.6-2.8 3.2-3.2.7-.2 1.6-.2 2.3 0l.9.3 10.3 7.3-12.6 1.2c-.3 0-.6-.1-.9-.1-1.2-.3-2.1-1.1-2.7-2.1-.6-1-.8-2.2-.5-3.4m2.9 6.9c.4.1.8.2 1.2.2l19.5.6c.1-.9.2-1.7.6-2.5l-17.1-9.2c-.4-.2-.8-.3-1.2-.4-3.1-.8-6.4 1-7.2 4.2-.8 3 1 6.2 4.2 7.1m25.7 29.8c-.4 1.5-1.7 2.8-3.2 3.2-.8.2-1.6.2-2.4 0-2.4-.6-3.8-3.1-3.2-5.5l.3-.9 7.3-10.3 1.2 12.6c.1.3 0 .6 0 .9m1.3.3c.1-.4.2-.8.2-1.2l.6-19.5c-.9-.1-1.7-.2-2.5-.6l-9.2 17.1c-.2.4-.3.8-.5 1.2-.8 3.1 1 6.4 4.2 7.2 3.1.8 6.3-1 7.2-4.2m33-20.1c-.4 1.5-1.6 2.8-3.2 3.2-.7.2-1.6.2-2.3 0l-.9-.3-10.2-7.3 12.5-1.2c.3 0 .6.1.9.1 2.4.6 3.8 3.1 3.2 5.5m-2.8-6.9c-.4-.1-.8-.2-1.2-.2l-19.4-.6c-.1.9-.2 1.7-.6 2.5l17.1 9.2c.3.2.7.3 1.1.4 3.1.8 6.4-1 7.2-4.1.8-3.1-1.1-6.3-4.2-7.2m-51.7-24.6c.6-.6 1.3-1 2-1.1 1.6-.4 3.2 0 4.4 1.1.2.2.4.5.6.8l5.2 11.5-11.5-5.3c-.3-.2-.5-.4-.7-.6-.9-.9-1.3-2-1.3-3.2 0-1.2.5-2.3 1.3-3.2m.1 8.2l16.6 10.2c.5-.7 1.1-1.3 1.8-1.8l-10.2-16.6c-.2-.3-.5-.7-.8-1-2.3-2.3-6-2.3-8.3 0-2.3 2.3-2.3 6 0 8.3.2.4.5.6.9.9m14.5-16.6c2.4-.6 4.9.8 5.5 3.2.1.3.1.6.2.9l-1.2 12.6-7.3-10.3c-.1-.2-.3-.6-.3-.9-.7-2.4.8-4.9 3.1-5.5m-4.5 5.9c.1.4.3.8.5 1.2l9.2 17.1c.8-.4 1.6-.5 2.5-.6l-.6-19.5c0-.4-.1-.8-.2-1.2-.8-3.2-4.1-5-7.2-4.2-3.2.8-5 4.1-4.2 7.2m-10.1 42.2c.2-.2.5-.4.8-.6l11.5-5.2-5.2 11.5c-.2.3-.4.5-.6.7-.6.6-1.2 1-2 1.2-1.6.4-3.2 0-4.4-1.2-1.8-1.8-1.8-4.7-.1-6.4m7.4 7.3c.3-.3.6-.6.8-1l10.3-16.6c-.7-.5-1.3-1.1-1.8-1.8l-16.6 10.2c-.3.2-.7.5-1 .8-2.3 2.3-2.3 6 0 8.3 2.3 2.4 6 2.4 8.3.1m38.7-.9c-.6.6-1.3 1-2 1.2-1.6.4-3.2 0-4.4-1.2-.2-.2-.4-.5-.6-.7l-5.2-11.5 11.5 5.3c.2.1.5.4.7.6 1.7 1.6 1.7 4.5 0 6.3m0-8.2l-16.6-10.2c-.5.7-1.1 1.3-1.8 1.8l10.2 16.6c.2.3.5.7.8 1 2.3 2.3 6 2.3 8.3 0 2.3-2.3 2.3-6 0-8.3-.3-.4-.6-.6-.9-.9m0-31.5c-.2.2-.5.4-.8.6l-11.5 5.2 5.3-11.5c.1-.3.4-.5.6-.7.6-.6 1.3-1 2-1.1 1.5-.4 3.2 0 4.4 1.1 1.7 1.8 1.7 4.6 0 6.4m-7.4-7.3c-.3.3-.6.6-.8 1l-10.2 16.6c.7.5 1.3 1.1 1.8 1.8l16.6-10.2c.3-.2.7-.5 1-.8 2.3-2.3 2.3-6 0-8.3-2.4-2.4-6.1-2.4-8.4-.1m15.8 15.5c.6 2.4-.8 4.9-3.2 5.5-.3.1-.6.1-.9.1l-12.5-1.2 10.3-7.3c.3-.1.6-.3.9-.3 2.3-.6 4.8.8 5.4 3.2m-7.1-4l-17 9.2c.3.8.5 1.6.6 2.5l19.4-.6c.4 0 .8-.1 1.2-.2 3.1-.8 5-4.1 4.1-7.2-.8-3.1-4.1-5-7.2-4.2-.3.1-.7.3-1.1.5m-21.4-15.8c.4-1.6 1.6-2.8 3.2-3.2.8-.2 1.6-.2 2.3 0 1.2.3 2.1 1.1 2.7 2.1.6 1 .8 2.3.5 3.4-.1.3-.2.6-.4.9l-7.3 10.3-1.2-12.6c0-.3.1-.6.2-.9m-1.4-.4c-.1.4-.1.8-.2 1.2l-.6 19.5c.9.1 1.7.2 2.5.6l9.2-17.1c.2-.4.3-.7.4-1.2.9-3.1-1-6.4-4.1-7.2-3.1-.8-6.3 1.1-7.2 4.2m-1.5 31.3c-1.5 0-2.6-1.2-2.6-2.6s1.2-2.6 2.6-2.6c1.4 0 2.6 1.1 2.6 2.6s-1.2 2.6-2.6 2.6m0-9.3c-3.7 0-6.7 3-6.7 6.7s3 6.7 6.7 6.7 6.7-3 6.7-6.7-3.1-6.7-6.7-6.7"/>
    <path d="M137.2 162.8c0 .7.6 1.3 1.3 1.3.7 0 1.3-.6 1.3-1.3 0-.7-.6-1.3-1.3-1.3-.7.1-1.3.6-1.3 1.3m6.6-33.7c-1.7-.3-3.5-.4-5.3-.4-1.8 0-3.7.2-5.4.4l5.4 2.3 5.3-2.3zm16.2 7.2c-1.4-1.1-2.9-2.1-4.4-3.1-1.6-.9-3.2-1.7-4.9-2.3l3.5 4.7 5.8.7zm10.4 14.3c-.6-1.7-1.4-3.3-2.3-4.9-.9-1.6-1.9-3.1-3.1-4.4l.7 5.8 4.7 3.5zm1.8 6.9l-2.3 5.4 2.3 5.4c.3-1.7.4-3.5.4-5.4 0-1.9-.1-3.7-.4-5.4m-39.1 39.1c1.7.3 3.5.4 5.4.4 1.8 0 3.6-.1 5.3-.4l-5.3-2.3-5.4 2.3zm-28.4-39.1c-.3 1.7-.4 3.5-.4 5.4 0 1.8.1 3.6.4 5.4l2.3-5.4-2.3-5.4zm12.2 31.9c1.4 1.1 2.9 2.1 4.4 3 1.6.9 3.2 1.7 4.9 2.3l-3.5-4.7-5.8-.6zm33.8 5.4c1.7-.6 3.3-1.4 4.9-2.3 1.6-.9 3.1-1.9 4.4-3l-5.8.7-3.5 4.6zm14.3-10.4c1.1-1.4 2.2-2.9 3.1-4.4.9-1.6 1.7-3.2 2.3-4.9l-4.7 3.5-.7 5.8zm-53.1-43.1c-1.1 1.4-2.1 2.9-3 4.4-.9 1.6-1.7 3.2-2.3 4.9l4.7-3.5.6-5.8zm-5.4 33.8c.6 1.7 1.4 3.3 2.3 4.9.9 1.6 1.9 3.1 3 4.4l-.7-5.8-4.6-3.5zm19.7-44.2c-1.6.6-3.3 1.4-4.9 2.3-1.6.9-3.1 1.9-4.4 3.1l5.8-.7 3.5-4.7z"/>
</svg>
