<svg xmlns="http://www.w3.org/2000/svg" viewBox="0 0 278.9 288">
    <path d="M188.2 255.5c.2-1.8-1.8-4.4-1.2-6.3 4.4-.6 9.2 2 13.3 3.1 2.4.7 4.9 1.5 7.4 1.9 2.5.3 4.8 1.1 7.3.8.4-1.8-.7-3.3-.8-5-.2-2-.2-3.9 1-5.5 2.6-3.4 7.1-3.6 11-4.2 4.1-.6 8.2-.6 12-1.8 1.6-.5 4.2-1.4 3.4-3.3-.6-1.4-4-3-5.1-3.7-1.4-.9-3-1.7-4.4-2.5-1.5-1-2.3-2.5-3.5-4-1-1.3-2.8-3.1-1.9-5 .8-1.6 4-3.5 5.4-4.5 1.5-1 3-2 4.3-3.2.7-.7 2.1-.7.8-1.9-.6-.6-3.5-.1-4.3-.1h-16.1c-10.6 0-21.8.9-32.2-.5-.8-3.3 10.5-5.7 13.3-6 3.7-.3 7.3-.7 11.1-1.5 6.2-1.3 12.3-2.7 18.7-3.7 4.4-.8 9-3.4 13.3-5.1 3.8-1.4 6.6-3.5 9.3-6.3 1.9-1.9 5.5-6.1 3.2-8.3-1.6-1.5-11.6-1.8-9.3-5.1.5-.7 1.2-.9 1.8-1 1.2-.3 2.1-.4 3.3-.8 1.8-.7 3.8-1.1 5.5-2 3.5-1.9 5.8-4.9 9.2-6.9 1.9-1.2 8-3.9 7-6.7-5-.6-9.8.8-14.7.9-2.1 0-3.6-.8-4.6-2.8-1.6-3 2.1-5.2 3.6-7.4 6.1-8.9 14.5-17.8 16.2-28.6-1.6-.5-3.4 1.6-4.9 2.1-1.7.6-3.5 1.1-5.2 1.5-2.6.6-6.6 2.3-7.8-.9-1.3-3.5 1.2-5 3.1-7.5 2.2-3 4.8-6.2 4.2-10-2.3.9-3.5 3-5.5 4.5-1.6 1.2-3.1 1.2-5 1-.3-2.2-.2-4.1.8-5.9 1.3-2.5 3.3-4.5 4.7-6.9 1.2-2 1.7-4.2 1.9-6.5.3-2.1 1.2-4.8.8-6.9-2.6-.8-6.3 2.3-8.7 3.2-4.6 1.6-13.8 6.8-16.1-.6-.7-2.3 1.4-4.1.7-6.3-2.5 1.5-4.9 2.8-7.2 4.8-3.1 2.8-6.4 6.1-8.6 9.6-1.9 2.9-3.6 5.5-6.6 7.5-2.3 1.6-6.4 2.8-6.6-1.1 0-.5.9-6.6.8-6.5-2.5.8-4.8 3.5-6.5 5.5-1.3 1.6-1.7 3-2.6 4.7-.9 1.7-2.2 3.2-3 5.1-1.9 4.5-4.3 8.9-7.7 12.5-1.9 2.1-3.9 3.9-5.9 5.8-1 1-2.1 3.2-3.7 2.8-.6-3.9.1-9.2 1.4-12.8 1.2-3.3 3.6-6.3 5.3-9.4 3.5-6.3 8-11.3 8-19 0-1.6-.2-4.7.9-5.9-1.6.9-2.1 4-4.1 4-.6-3.5.9-7.3 1.3-10.6.4-3.2 1.1-6.1 1.8-9.2.7-2.7 1.9-5.4 2.2-8 .2-1.6.2-3 .5-4.5.3-1.2 1.4-2.8.9-4.1-1.5.2-2.2 1.5-3.3 2.4-1.6 1.4-3.4 2.6-5 4-3.2 2.8-7.1 5.1-10 8-3 2.9-8.4 10.2-11.2 3.7-1.8-4.3-1.5-9.4-.1-13.5.8-2.2 1-4.6 1-7 0-1.8 0-5.4-1.7-6.3-1.6 2.2-4 4.2-6.6 5-2.5.8-3.4-.5-4.2-2.6-.8-2-1.7-3.4-2.8-5.3-1-1.6-1.5-3.7-2.1-5.5-.7-2.6-.6-5.4-1.6-7.9-1.1-2.7-2.3-5-3.7-7.5-1-1.8-2.3-6.4-4.4-7.3-.1.4-.2.9-.1 1.4L137 9.8c1.8 1.8-5 9.1-5.9 11.2-1.8 4.5-4.7 8.9-5.2 13.8-.5 4.1.9 10.1-3.3 12.4-4.3 2.3-3.8-8.3-8.6-7.2-1.4 6.2 1.2 11.6 1.8 17.5.3 3 0 6.2 0 9.3V71c0 1 .5 4.2-.1 5-2.4 3-6-2.3-7.4-3.6-2.7-2.4-5.2-4.9-7.8-7.3-2.2-2-5-3.6-7.5-5.1-1.4-.8-2.7-1.6-3.9-2.9-.8-.9-1.8-3.2-3.3-2.7-.6 4.8 2 9.3 4.2 13.3 1.1 2.1 4.7 6.3 4 8.8-1.5 5.1-10.8-7.6-12.9-8.8-1 6.4 5.7 12 8.1 17.6 1.4 3.4 3.4 6.4 4.8 9.7.8 1.7 1.8 3.6 2.7 5.3 1 1.9 2.9 3.2 4 5.3 1.1 2.1 1.9 4.3 2.8 6.5 1.3 3.1 3.7 6.3 3.3 9.7-3.9.7-6.2-4.2-8.8-6.4-5.9-5-14.1-8.2-21.1-11.2-3.5-1.5-7.1-4.2-9.3-7.4-1.4-2.1-3.2-8-6.9-6.8-.7 2.5 3.7 6.1 1.7 8.2-2.1 2.1-6 0-7.8-1.3-2.9-2.2-6.9-3.1-10.2-4.3-3.1-1.1-6.3-2.6-9.6-2.7 1.3 1.2 3.5 3 4 4.6-4.9.7-9.6-2-14.4-2.8-2.2-.3-4.2-1.5-6.3-2.2-2-.7-4.7-.6-6.9-.4-.6 2.6 3.2 5.5 4.9 6.8 2.2 1.7 4.5 3.5 6.7 5.1 3.2 2.3 5.7 4.8 7.4 8.2 1 2 1.6 6.1-.4 7.7-1.2.9-3.5.2-4.8-.1-1.3-.3-2.5-.6-4.1-.4-.5 2.4 1.6 5 2.7 6.9 1.2 2.2 3.3 3.5 4.7 5.4 2.5 3.4.2 8.4-4.2 6.6-1.2-.5-2.7-3.1-4.1-1.4-1.4 1.7.6 4.5 1.9 5.3 4.1 2.8 8.6 5 11.6 9.2 1.6 2.3 3.3 4.6 5 7 1.1 1.5 2.9 3.5 3.6 5.3.2.6.3 2.5.1 3.2-.5 1.5-.6 1.2-2.2 1.7-1.9.6-3.7 1-5.7 1-4.1 0-8-.5-12-1-1.7-.2-3.5-.5-5.1-.5-1 .1-1.8.6-2.8.8-1.3.3-2-.1-3.2-.4-.9-.2-2.8-.7-3.6-.4-.8 2.4 3.5 5.4 5.1 6.5 3 2 6.5 3.9 9.7 5.4 4.6 2.2 8.6 5.3 12.6 8.2-2.5.6-5.4.3-8 .6-1.2 3.3 7.3 6.4 9.2 7.9 3 2.4 6 4.7 8.8 7.2 4.5 4 10.6 6.5 16.2 8.3 6 2 12.4 2.6 18.5 3.8 3.1.6 6.5.5 9.7.5 1.5 0 3.1-.1 4.6.1 1.6.2 3.4.9 5 .9.6 3-4.5 3-6.3 3.1-1.3.1-2.6.4-3.9.5-.8.1-8.6.4-8.7.1.6.9 5.8 2 3.2 4.5-.2.2-1.6.3-1.9.4-.5.2-.8.7-1.3 1-2.3 1-5.2 1.1-7.5.5-3.3-.8-5.5-.7-8.7 0-1.5.4-3.5 0-5.1.1-1.8 0-3.3.6-5 1-.4 2.6 3.9 6.2 5.5 7.8 2.1 2.1 2.2 3.8.9 6.5-1.1 2.3-3.3 4-5.5 5.2-1.8.9-6.7 3.4-5 5.9 2.4 3.5 11.8 1.8 15 1 2.3-.6 4.7-.7 7-1.6 2.1-.8 4-2.8 6.1-3.2 2.3-.4 5.7-1.2 6.5 1.9 1.1 4.2-2 7.4-5 9.8 2.7-.8 5.4-.3 8.2-.5 2.9-.2 4.9-1.5 7.2-3.3 2.4-1.8 4.5-3 7.5-3.7 2.4-.5 5.2-.3 7.3-.8.2 1.9.2 4.1-.5 5.9-.7 1.8-2.2 3-3 4.6.7.7 4 .7 5 .5 1.7-.4 3.1-1.8 4.5-2.9 2.6-2 5.8-4 8-6.2 1.9-2 4.3-3.5 6-5.5 2.4-2.7 4.9-6.2 6.7-9.5.5-1 .7-3.2 1.6-4 2.2-1.8 2.2 1.1 2.2 2.7 0 3.8-1.4 6.9-2.8 10.2-1.4 3.5-3.3 6.9-5 10.2-1.5 2.9-2.2 5.9-3.9 8.7-1.3 2.1-4.8 4.8-5.1 7.4-.2 1.8 1.6 2.1 3.3 3 1.8 1 3.8 1.8 5.6 2.5.6-1.7.9-3.3 1.8-4.9 1-1.8 1.8-3.6 2.7-5.5 1.7-4 4-7.5 6.1-11.2 2.1-3.8 3.3-7.4 4.3-11.6.5-2.2 1.3-4.3 1.8-6.5.4-1.8.2-3.5.5-5.3 2.2-.4 3.5.8 5.4 1.7 3.3 1.5 6.7 3.1 10 4.7 2.3 1.1 4.2 3 6.2 4.4 5.6 4.2 10.7 9.3 17.3 11.4"/>
</svg>
