<svg xmlns="http://www.w3.org/2000/svg" viewBox="0 0 612 612">
  <path class="color-black color-main" stroke="#000" d="M179.4 286.8c-13.1-2.6-23-8.9-30.3-19.4-.8-1.1-3.7-1.3-5.6-1.2-10.1.2-18.6-6.5-20-16.1-1.5-10 4.3-19.6 14.1-21 6.5-.9 9-4.3 12-8.9 8.1-12.5 20-19 34.7-19.5 65.5-2.6 130.9-5.2 196.4-7.7 46.4-1.8 92.9-3.7 139.2-5.6 2.5-.1 5.2-1 7.2-2.4 10.9-7.2 21.7-14.6 32.5-21.9 5.4-3.6 7.7-2.6 8.2 3.9 1.8 23.2 3.5 46.6 5.2 70 .7 9.3 1.3 18.8 1.9 28.1.3 6.2-1.8 7.5-7.4 4.8-11.8-5.6-23.5-11.5-35.3-17-2-1-4.7-1.3-7-1.1-30.9 3.1-61.8 6.4-92.6 9.7-17.3 1.8-34.5 3.7-52.3 5.5 3.5 4 6.7 7.4 9.7 11.1 50.2 62.3 13.8 157.1-65.1 169.9-43.1 7-85.1-12.2-107.7-49.4-1.6-2.6-3.3-3.3-6.2-3.6-22.1-2.1-37.7 9.7-52.1 23.9-5.1 4.9-9.7 10.3-14.1 15.8-4 4.9-8.9 7.6-15.4 7.9-26.2.9-52.2 1.9-78.4 2.9-5.2.2-7.5-1.6-8.1-6.6C41 424 39.3 409 37.7 394c-.7-6 1.6-8.2 7.6-8.1 18.6.3 37.2.7 55.8 1.3 6.6.2 11.3-1.9 15-7.5 20-29.5 40.1-58.9 60.2-88.5 1.1-1.2 1.9-2.5 3.1-4.4zm79 15.6c-8.6 10.4-13.6 22.2-14.8 36.2h35.5c1.6-3.8 3-7.5 4.5-10.9-8.3-8.3-16.6-16.5-25.2-25.3zm43.9-22.6c-13.9 1.3-25.9 6.1-36 14.8 8.6 8.6 17 17 25.3 25.2 3.4-1.5 7.1-2.9 10.8-4.5-.1-11.7-.1-23.5-.1-35.5zm-10 88.3-25.5 25.5c10 8 21.7 13.2 35.7 14 0-11.6 0-22.6-.1-33.6 0-.9-1-2.1-1.9-2.6-3-1.4-6.2-2.5-8.2-3.3zm56.2 25-25.4-25.4c-2.1.9-4.5 2.5-7.1 3-3.3.7-3.6 2.5-3.6 5.2.1 8 0 15.9 0 23.9v7.7c14.3-1 26-6.1 36.1-14.4zm-12.7-54.8h35.6c-1.3-13.8-6.2-25.6-14.6-35.5l-25.3 25.3c1.3 2.9 2.8 6.5 4.3 10.2zm0 10.8c-1.3 3.3-2.7 6-3.7 8.9-.3 1-.4 2.9.1 3.5 7.7 8 15.7 15.8 23.9 24 8.9-10.8 14-22.6 15-36.4h-35.3zm-92.3-.1c1.5 14 6.2 25.9 14.7 35.7 8.5-8.6 16.8-17 25.2-25.4-1.3-3.1-2.8-6.8-4.4-10.3h-35.5zm79.8-29 25.4-25.4c-10.2-8.5-22.1-13.6-36.2-14.7 0 9.8.2 19-.1 28.1-.2 5.1.2 9 6.4 9.8 1.7.2 3.2 1.6 4.5 2.2zm-127.9 31.6c-.8.4-1.1.4-1.2.7-1.7 3.9-3.4 7.9-5.1 11.8-4.3 10.1-3.7 11.1 7.4 11.9.2 0 .4-.2 1.1-.6-.8-7.7-1.4-15.5-2.2-23.8z"/>
</svg>
