<svg xmlns="http://www.w3.org/2000/svg" viewBox="0 0 612 792">
  <path d="M583.916 293.47c1.193 2.984 3.845 6.358 3.314 9.082-8.883 37.625-18.296 75.12-27.577 112.746-10.475 42.426-20.949 84.981-31.555 127.407-.796 3.244-1.857 6.487-3.182 11.158-27.843-21.537-55.951-38.793-93.075-24.78-37.389 14.141-45.211 45.02-49.72 79.272h-149.82c-2.121-9.99-4.242-20.11-6.496-30.23-6.232-27.376-29.434-47.875-57.675-52.935-26.384-4.8-47.465 5.579-67.353 20.37-3.58 2.724-7.16 5.449-11.667 8.952-6.895-27.635-13.656-54.492-20.418-81.349-11.005-44.372-22.01-88.614-33.014-132.986-2.917-11.676-5.966-23.353-8.618-35.03-.795-3.503-2.121-8.044 3.58-9.601 1.326.13 2.652.26 3.978.26H573.44c3.58-.26 7.027-1.687 10.475-2.336zM378.542 530.25c-.398-1.297-.795-2.465-1.193-3.763-3.315-1.038-6.762-2.724-10.21-2.984-26.25-1.557-52.635-3.632-78.887-3.762-14.982 0-29.964 3.114-44.814 5.579-2.784.389-5.038 3.892-7.424 6.098 2.916 1.167 5.833 3.373 8.883 3.373 40.04.26 80.213.26 120.254 0 4.508 0 8.883-2.984 13.391-4.541zM258.42 579.033c20.02 10.51 85.12 8.563 97.318-2.465-20.02-12.326-83.794-11.028-97.318 2.465zM30.905 291.653c-7.955-5.319-5.17-14.141-3.05-19.201 1.99-4.67 10.873-9.86 16.176-9.342 14.054 1.168 18.827-7.135 23.865-16.736 3.448-6.487 7.955-12.585 10.475-19.332 3.977-11.158 12.462-12.585 22.804-13.623 6.364-.519 14.717-2.206 18.164-6.357 9.016-10.899 20.816-11.807 33.279-12.715 4.64-.26 9.28 0 14.584 0 8.486-30.62 34.34-41.777 61.122-51.767 1.59-.52 4.11-.39 5.436.519 6.099 4.152 12.065 8.692 16.44 11.936 4.508-1.427 7.823-3.244 11.137-3.373 18.164-.26 36.461-.13 54.625-.13 19.225 0 29.832 7.266 37.124 25.04.53 1.427 1.326 2.855 1.989 4.412 7.69 16.217 10.739 18.293 28.373 15.18 30.362-5.45 57.276 3.113 82.467 18.553 6.63 4.022 13.259 8.563 18.43 14.141 11.534 12.585 26.914 14.92 42.56 15.959 10.473.648 19.357 2.465 27.18 10.509 3.711 3.892 10.473 5.968 16.174 7.136 16.574 3.243 22.938 14.53 13.79 25.689-4.641-.13-9.282-.26-13.922-.26h-337.03c-63.243 0-126.619-.13-189.861.13-4.11 0-8.22 2.335-12.33 3.633zm116.144-49.301c-.663.778-1.458 1.427-2.121 2.205-5.436-3.892-10.872-7.655-16.175-11.806-7.16-5.709-30.495-7.785-35.268-1.427-6.762 8.822-11.535 19.072-18.164 30.489 6.364.39 10.21.778 13.921.778h377.734c9.679 0 18.562-2.075 27.445-8.173-10.872-7.136-20.683-13.494-29.566-19.332-9.546 4.022-6.895 18.164-20.153 19.332 3.314-12.066 6.099-22.575 9.148-33.733-7.822-2.595-16.175-3.893-22.54-7.915-9.678-5.968-14.451-1.038-19.622 5.45-4.508 5.449-9.016 11.028-13.523 16.477-.663-.52-1.459-.908-2.122-1.427 1.591-4.152 3.182-8.304 4.64-12.456 1.46-4.151 2.652-8.433 4.243-13.752-7.424-.649-13.523-.779-19.622-1.946-19.755-3.633-22.407-2.336-32.35 13.882-3.448 5.709-5.437 13.104-14.585 14.272-14.054 1.816-27.975 4.54-41.897 7.006-10.474 1.816-13.258-.649-12.595-12.196 6.364-.908 12.86-1.687 19.224-2.854 17.634-2.984 37.39-1.557 44.019-24.651 2.386-8.434-4.508-31.139-13.524-33.085-13.789-2.984-27.843-5.708-41.897-5.968-13.789-.26-25.854 4.67-30.097 20.11-1.723 6.228-5.17 11.937-7.822 17.775-1.458-.26-2.917-.39-4.375-.649 0-6.487.53-13.104-.266-19.461-.53-4.152-1.856-9.342-4.773-11.807-10.474-8.952-22.141-7.265-34.339-2.854-11.27 4.152-13.656 11.807-12.33 22.186.397 3.503.265 7.136.132 10.639-.265 6.357 3.182 8.822 9.281 8.303 3.58-.389 7.16-1.427 10.74-1.686 7.027-.52 13.788.13 17.368 8.952-16.573 3.762-32.218 7.525-49.587 11.417V197.72c-18.96 5.709-36.46 10.899-55.287 16.607 6.231 10.51 11.535 19.332 16.705 28.025z"/>
  <path d="M522.131 596.289c.265 37.495-28.505 62.795-64.038 62.925-34.605.13-62.978-27.635-63.11-62.536-.133-35.809 27.975-63.703 64.303-63.314 33.81.389 63.243 24.391 62.845 62.925zm-62.712-30.1c-18.562.13-31.555 12.066-31.953 29.97-.398 15.699 12.595 30.23 31.555 30.49 14.982.259 29.566-11.029 30.892-30.23 1.06-16.218-13.789-30.23-30.494-30.23zm-241.57 29.97c1.857 37.885-29.831 63.185-63.773 62.925-35.4-.26-63.11-27.246-63.243-63.184-.132-34.771 28.374-62.536 62.978-62.536 34.074 0 65.762 25.04 64.039 62.795zm-64.436 30.36c18.032.13 32.616-12.974 32.616-29.192 0-17.645-13.789-31.138-31.82-31.138-17.236 0-29.566 12.195-29.832 29.321-.265 18.424 11.535 30.879 29.036 31.009z"/>
  <path fill="#8b8b8b" d="M30.905 291.654c4.11-1.298 8.22-3.633 12.33-3.633 63.243-.26 126.619-.13 189.862-.13h337.03c4.64 0 9.28.13 13.921.26v5.32c-3.447.778-7.027 2.075-10.474 2.075-179.652.13-359.172.13-538.824 0-1.326 0-2.652-.13-3.977-.26 0-1.167.132-2.335.132-3.632z"/>
  <path d="M5.051 526.877c23.865 1.427 46.007 2.724 68.281 4.41 1.856.13 4.376 2.596 5.039 4.542 2.386 5.838 3.58 12.196 6.098 18.034 4.906 11.547.133 21.926-3.712 32.176-.795 1.946-6.63 3.503-9.679 2.984-20.153-3.503-40.04-7.395-60.06-11.547-2.254-.519-5.702-3.762-5.702-5.838-.53-14.402-.265-28.933-.265-44.761zm602.597.389c0 15.44.265 29.97-.265 44.501-.132 2.076-4.243 5.32-7.027 5.969-21.479 4.8-42.957 8.952-65.231 13.493-6.497-13.883-12.729-28.025-3.315-43.464 1.193-1.816 1.989-4.152 2.254-6.227 1.193-8.953 6.63-10.38 15.114-10.51 16.043-.26 31.953-2.335 47.996-3.632 3.05-.39 6.364-.13 10.474-.13z"/>
  <path fill="#8b8b8b" d="M378.542 530.25c-4.508 1.557-8.883 4.54-13.391 4.54-40.04.39-80.214.26-120.254 0-2.917 0-5.834-2.205-8.883-3.372 2.519-2.076 4.64-5.58 7.424-6.098 14.85-2.336 29.832-5.58 44.814-5.58 26.252.13 52.636 2.206 78.888 3.763 3.447.26 6.762 1.946 10.209 2.984.398 1.168.795 2.466 1.193 3.763zM258.42 579.033c13.524-13.493 77.297-14.79 97.318-2.465-12.198 11.158-77.297 12.974-97.318 2.465z"/>
  <path fill="#696969" d="M147.05 242.352c-5.304-8.823-10.475-17.516-16.574-27.765 18.827-5.58 36.196-10.899 55.288-16.607v26.727c17.369-4.022 33.146-7.655 49.587-11.418-3.58-8.822-10.342-9.47-17.369-8.952-3.58.26-7.16 1.298-10.74 1.687-6.098.519-9.545-1.817-9.28-8.304.132-3.503.398-7.136-.133-10.639-1.193-10.379 1.194-18.034 12.33-22.186 12.198-4.54 23.998-6.227 34.34 2.855 2.917 2.465 4.243 7.655 4.773 11.806.796 6.358.265 12.975.265 19.462 1.459.26 2.917.389 4.376.648 2.651-5.968 6.098-11.676 7.822-17.774 4.243-15.44 16.308-20.37 30.097-20.11 14.054.26 28.108 2.984 41.896 5.968 9.016 1.946 15.91 24.65 13.524 33.084-6.497 23.094-26.384 21.667-44.018 24.651-6.497 1.038-12.993 1.946-19.225 2.854-.663 11.548 2.122 14.013 12.596 12.196 13.921-2.465 27.843-5.32 41.897-7.006 9.148-1.168 11.137-8.563 14.584-14.271 9.944-16.348 12.463-17.516 32.35-13.883 5.967 1.038 12.198 1.168 19.623 1.946-1.591 5.32-2.784 9.601-4.243 13.753-1.458 4.152-3.05 8.303-4.64 12.455.663.52 1.458.908 2.121 1.427 4.508-5.449 9.016-11.028 13.524-16.477 5.17-6.357 9.944-11.417 19.622-5.45 6.497 4.023 14.717 5.32 22.54 7.915-3.05 11.158-5.834 21.667-9.149 33.733 13.391-1.167 10.607-15.44 20.153-19.331 8.883 5.838 18.695 12.195 29.567 19.331-9.016 6.228-17.767 8.174-27.445 8.174H89.375c-3.845 0-7.69-.39-13.921-.779 6.629-11.417 11.402-21.666 18.164-30.489 4.905-6.357 28.108-4.281 35.267 1.427 5.171 4.152 10.74 7.914 16.176 11.807.53-.908 1.325-1.687 1.988-2.465z"/>
  <path fill="#8b8b8b" d="M459.419 566.189c16.705 0 31.555 14.012 30.494 30.23-1.193 19.201-15.777 30.36-30.892 30.23-18.96-.26-31.953-14.791-31.555-30.49.398-17.904 13.39-29.97 31.953-29.97zm0 15.569c-9.414 0-14.717 5.19-14.85 14.271-.132 8.434 6.1 14.661 14.585 14.79 9.015.13 15.38-6.227 15.247-15.179-.265-9.471-5.038-13.882-14.982-13.882zm-306.006 44.76c-17.5-.129-29.168-12.584-29.036-30.878.133-17.256 12.463-29.322 29.832-29.322 18.031 0 31.82 13.494 31.82 31.138 0 16.089-14.584 29.063-32.616 29.063zm.928-15.698c8.618-.13 15.513-6.357 15.645-14.272.266-8.303-7.027-14.92-16.042-14.92-8.618.13-15.513 6.357-15.645 14.272-.133 8.303 7.027 15.05 16.042 14.92z"/>
  <path d="M459.419 581.758c9.944 0 14.717 4.54 14.982 14.012.132 8.952-6.1 15.31-15.247 15.18-8.486-.13-14.717-6.358-14.585-14.791.133-9.212 5.436-14.401 14.85-14.401zM154.34 610.82c-9.015.13-16.175-6.617-16.042-14.92.265-7.915 7.027-14.142 15.645-14.272 9.015-.13 16.175 6.617 16.042 14.92-.132 8.044-7.027 14.272-15.645 14.272z"/>
</svg>
