<?xml version="1.0" encoding="utf-8"?>
<!-- Generator: Adobe Illustrator 24.1.0, SVG Export Plug-In . SVG Version: 6.00 Build 0)  -->
<svg version="1.1" id="Layer_1" xmlns="http://www.w3.org/2000/svg" xmlns:xlink="http://www.w3.org/1999/xlink" x="0px" y="0px"
	 viewBox="0 0 612 792" style="enable-background:new 0 0 612 792;" xml:space="preserve">
<style type="text/css">
	.st0{fill:#8B8B8B;}
	.st1{fill:#696969;}
</style>
<g>
	<g>
		<path d="M523.6,330.9c0.9,2.3,2.9,4.9,2.5,7c-6.7,29-13.8,57.9-20.8,86.9c-7.9,32.7-15.8,65.5-23.8,98.2c-0.6,2.5-1.4,5-2.4,8.6
			c-21-16.6-42.2-29.9-70.2-19.1c-28.2,10.9-34.1,34.7-37.5,61.1c-37.3,0-74.9,0-113,0c-1.6-7.7-3.2-15.5-4.9-23.3
			c-4.7-21.1-22.2-36.9-43.5-40.8c-19.9-3.7-35.8,4.3-50.8,15.7c-2.7,2.1-5.4,4.2-8.8,6.9c-5.2-21.3-10.3-42-15.4-62.7
			c-8.3-34.2-16.6-68.3-24.9-102.5c-2.2-9-4.5-18-6.5-27c-0.6-2.7-1.6-6.2,2.7-7.4c1,0.1,2,0.2,3,0.2c135.5,0,270.9,0,406.4,0
			C518.4,332.5,521,331.4,523.6,330.9z M368.7,513.4c-0.3-1-0.6-1.9-0.9-2.9c-2.5-0.8-5.1-2.1-7.7-2.3c-19.8-1.2-39.7-2.8-59.5-2.9
			c-11.3,0-22.6,2.4-33.8,4.3c-2.1,0.3-3.8,3-5.6,4.7c2.2,0.9,4.4,2.6,6.7,2.6c30.2,0.2,60.5,0.2,90.7,0
			C362,516.9,365.3,514.6,368.7,513.4z M278.1,551c15.1,8.1,64.2,6.6,73.4-1.9C336.4,539.6,288.3,540.6,278.1,551z"/>
		<path d="M106.5,329.5c-6-4.1-3.9-10.9-2.3-14.8c1.5-3.6,8.2-7.6,12.2-7.2c10.6,0.9,14.2-5.5,18-12.9c2.6-5,6-9.7,7.9-14.9
			c3-8.6,9.4-9.7,17.2-10.5c4.8-0.4,11.1-1.7,13.7-4.9c6.8-8.4,15.7-9.1,25.1-9.8c3.5-0.2,7,0,11,0c6.4-23.6,25.9-32.2,46.1-39.9
			c1.2-0.4,3.1-0.3,4.1,0.4c4.6,3.2,9.1,6.7,12.4,9.2c3.4-1.1,5.9-2.5,8.4-2.6c13.7-0.2,27.5-0.1,41.2-0.1c14.5,0,22.5,5.6,28,19.3
			c0.4,1.1,1,2.2,1.5,3.4c5.8,12.5,8.1,14.1,21.4,11.7c22.9-4.2,43.2,2.4,62.2,14.3c5,3.1,10,6.6,13.9,10.9
			c8.7,9.7,20.3,11.5,32.1,12.3c7.9,0.5,14.6,1.9,20.5,8.1c2.8,3,7.9,4.6,12.2,5.5c12.5,2.5,17.3,11.2,10.4,19.8
			c-3.5-0.1-7-0.2-10.5-0.2c-84.7,0-169.4,0-254.2,0c-47.7,0-95.5-0.1-143.2,0.1C112.7,326.7,109.6,328.5,106.5,329.5z M194.1,291.5
			c-0.5,0.6-1.1,1.1-1.6,1.7c-4.1-3-8.2-5.9-12.2-9.1c-5.4-4.4-23-6-26.6-1.1c-5.1,6.8-8.7,14.7-13.7,23.5c4.8,0.3,7.7,0.6,10.5,0.6
			c22.5,0,45,0,67.5,0c72.5,0,145,0,217.4,0c7.3,0,14-1.6,20.7-6.3c-8.2-5.5-15.6-10.4-22.3-14.9c-7.2,3.1-5.2,14-15.2,14.9
			c2.5-9.3,4.6-17.4,6.9-26c-5.9-2-12.2-3-17-6.1c-7.3-4.6-10.9-0.8-14.8,4.2c-3.4,4.2-6.8,8.5-10.2,12.7c-0.5-0.4-1.1-0.7-1.6-1.1
			c1.2-3.2,2.4-6.4,3.5-9.6c1.1-3.2,2-6.5,3.2-10.6c-5.6-0.5-10.2-0.6-14.8-1.5c-14.9-2.8-16.9-1.8-24.4,10.7
			c-2.6,4.4-4.1,10.1-11,11c-10.6,1.4-21.1,3.5-31.6,5.4c-7.9,1.4-10-0.5-9.5-9.4c4.8-0.7,9.7-1.3,14.5-2.2
			c13.3-2.3,28.2-1.2,33.2-19c1.8-6.5-3.4-24-10.2-25.5c-10.4-2.3-21-4.4-31.6-4.6c-10.4-0.2-19.5,3.6-22.7,15.5
			c-1.3,4.8-3.9,9.2-5.9,13.7c-1.1-0.2-2.2-0.3-3.3-0.5c0-5,0.4-10.1-0.2-15c-0.4-3.2-1.4-7.2-3.6-9.1c-7.9-6.9-16.7-5.6-25.9-2.2
			c-8.5,3.2-10.3,9.1-9.3,17.1c0.3,2.7,0.2,5.5,0.1,8.2c-0.2,4.9,2.4,6.8,7,6.4c2.7-0.3,5.4-1.1,8.1-1.3c5.3-0.4,10.4,0.1,13.1,6.9
			c-12.5,2.9-24.3,5.8-37.4,8.8c0-7.4,0-13.3,0-20.6c-14.3,4.4-27.5,8.4-41.7,12.8C186.2,278,190.2,284.8,194.1,291.5z"/>
		<path d="M477,564.3c0.2,28.9-21.5,48.4-48.3,48.5c-26.1,0.1-47.5-21.3-47.6-48.2c-0.1-27.6,21.1-49.1,48.5-48.8
			C455.1,516.1,477.3,534.6,477,564.3z M429.7,541.1c-14,0.1-23.8,9.3-24.1,23.1c-0.3,12.1,9.5,23.3,23.8,23.5
			c11.3,0.2,22.3-8.5,23.3-23.3C453.5,551.9,442.3,541.1,429.7,541.1z"/>
		<path d="M247.5,564.2c1.4,29.2-22.5,48.7-48.1,48.5c-26.7-0.2-47.6-21-47.7-48.7c-0.1-26.8,21.4-48.2,47.5-48.2
			C224.9,515.8,248.8,535.1,247.5,564.2z M198.9,587.6c13.6,0.1,24.6-10,24.6-22.5c0-13.6-10.4-24-24-24c-13,0-22.3,9.4-22.5,22.6
			C176.8,577.9,185.7,587.5,198.9,587.6z"/>
		<path class="st0" d="M106.5,329.5c3.1-1,6.2-2.8,9.3-2.8c47.7-0.2,95.5-0.1,143.2-0.1c84.7,0,169.4,0,254.2,0
			c3.5,0,7,0.1,10.5,0.2c0,1.4,0,2.7,0,4.1c-2.6,0.6-5.3,1.6-7.9,1.6c-135.5,0.1-270.9,0.1-406.4,0c-1,0-2-0.1-3-0.2
			C106.4,331.4,106.5,330.5,106.5,329.5z"/>
		<path d="M87,510.8c18,1.1,34.7,2.1,51.5,3.4c1.4,0.1,3.3,2,3.8,3.5c1.8,4.5,2.7,9.4,4.6,13.9c3.7,8.9,0.1,16.9-2.8,24.8
			c-0.6,1.5-5,2.7-7.3,2.3c-15.2-2.7-30.2-5.7-45.3-8.9c-1.7-0.4-4.3-2.9-4.3-4.5C86.8,534.2,87,523,87,510.8z"/>
		<path d="M541.5,511.1c0,11.9,0.2,23.1-0.2,34.3c-0.1,1.6-3.2,4.1-5.3,4.6c-16.2,3.7-32.4,6.9-49.2,10.4
			c-4.9-10.7-9.6-21.6-2.5-33.5c0.9-1.4,1.5-3.2,1.7-4.8c0.9-6.9,5-8,11.4-8.1c12.1-0.2,24.1-1.8,36.2-2.8
			C535.9,510.9,538.4,511.1,541.5,511.1z"/>
		<path class="st0" d="M368.7,513.4c-3.4,1.2-6.7,3.5-10.1,3.5c-30.2,0.3-60.5,0.2-90.7,0c-2.2,0-4.4-1.7-6.7-2.6
			c1.9-1.6,3.5-4.3,5.6-4.7c11.2-1.8,22.5-4.3,33.8-4.3c19.8,0.1,39.7,1.7,59.5,2.9c2.6,0.2,5.1,1.5,7.7,2.3
			C368.1,511.4,368.4,512.4,368.7,513.4z"/>
		<path class="st0" d="M278.1,551c10.2-10.4,58.3-11.4,73.4-1.9C342.3,557.7,293.2,559.1,278.1,551z"/>
		<path class="st1" d="M194.1,291.5c-4-6.8-7.9-13.5-12.5-21.4c14.2-4.3,27.3-8.4,41.7-12.8c0,7.2,0,13.1,0,20.6
			c13.1-3.1,25-5.9,37.4-8.8c-2.7-6.8-7.8-7.3-13.1-6.9c-2.7,0.2-5.4,1-8.1,1.3c-4.6,0.4-7.2-1.4-7-6.4c0.1-2.7,0.3-5.5-0.1-8.2
			c-0.9-8,0.9-13.9,9.3-17.1c9.2-3.5,18.1-4.8,25.9,2.2c2.2,1.9,3.2,5.9,3.6,9.1c0.6,4.9,0.2,10,0.2,15c1.1,0.2,2.2,0.3,3.3,0.5
			c2-4.6,4.6-9,5.9-13.7c3.2-11.9,12.3-15.7,22.7-15.5c10.6,0.2,21.2,2.3,31.6,4.6c6.8,1.5,12,19,10.2,25.5
			c-4.9,17.8-19.9,16.7-33.2,19c-4.9,0.8-9.8,1.5-14.5,2.2c-0.5,8.9,1.6,10.8,9.5,9.4c10.5-1.9,21-4.1,31.6-5.4
			c6.9-0.9,8.4-6.6,11-11c7.5-12.6,9.4-13.5,24.4-10.7c4.5,0.8,9.2,0.9,14.8,1.5c-1.2,4.1-2.1,7.4-3.2,10.6
			c-1.1,3.2-2.3,6.4-3.5,9.6c0.5,0.4,1.1,0.7,1.6,1.1c3.4-4.2,6.8-8.5,10.2-12.7c3.9-4.9,7.5-8.8,14.8-4.2c4.9,3.1,11.1,4.1,17,6.1
			c-2.3,8.6-4.4,16.7-6.9,26c10.1-0.9,8-11.9,15.2-14.9c6.7,4.5,14.1,9.4,22.3,14.9c-6.8,4.8-13.4,6.3-20.7,6.3
			c-72.5,0-145,0-217.4,0c-22.5,0-45,0-67.5,0c-2.9,0-5.8-0.3-10.5-0.6c5-8.8,8.6-16.7,13.7-23.5c3.7-4.9,21.2-3.3,26.6,1.1
			c3.9,3.2,8.1,6.1,12.2,9.1C193,292.7,193.6,292.1,194.1,291.5z"/>
		<path class="st0" d="M429.7,541.1c12.6,0,23.8,10.8,23,23.3c-0.9,14.8-11.9,23.4-23.3,23.3c-14.3-0.2-24.1-11.4-23.8-23.5
			C405.9,550.4,415.7,541.1,429.7,541.1z M429.7,553.1c-7.1,0-11.1,4-11.2,11c-0.1,6.5,4.6,11.3,11,11.4c6.8,0.1,11.6-4.8,11.5-11.7
			C440.8,556.5,437.2,553.1,429.7,553.1z"/>
		<path class="st0" d="M198.9,587.6c-13.2-0.1-22-9.7-21.9-23.8c0.1-13.3,9.4-22.6,22.5-22.6c13.6,0,24,10.4,24,24
			C223.5,577.6,212.5,587.6,198.9,587.6z M199.6,575.5c6.5-0.1,11.7-4.9,11.8-11c0.2-6.4-5.3-11.5-12.1-11.5
			c-6.5,0.1-11.7,4.9-11.8,11C187.4,570.4,192.8,575.6,199.6,575.5z"/>
		<path d="M429.7,553.1c7.5,0,11.1,3.5,11.3,10.8c0.1,6.9-4.6,11.8-11.5,11.7c-6.4-0.1-11.1-4.9-11-11.4
			C418.6,557.1,422.6,553.1,429.7,553.1z"/>
		<path d="M199.6,575.5c-6.8,0.1-12.2-5.1-12.1-11.5c0.2-6.1,5.3-10.9,11.8-11c6.8-0.1,12.2,5.1,12.1,11.5
			C211.3,570.7,206.1,575.5,199.6,575.5z"/>
	</g>
</g>
</svg>
