<svg xmlns="http://www.w3.org/2000/svg" viewBox="0 0 612 612">
    <path d="M99.3 354.6c0-15 .2-27.9-.1-40.7-.2-7.3-3.8-10.4-11.1-10.5-6.1-.1-12.2-.1-18.2 0-6.6.1-9.8-3.4-10.8-9.5-.1-.5-.1-1-.1-1.5-.5-28.7-.4-26.8 24.1-26.8 74.2.2 148.4.2 222.5-.1 7.7 0 12.3 2.2 15.3 9.2 3 6.9 7.2 13.3 10.1 20.2 2.1 4.9 5.1 6 10.1 6 53.5-.2 107-.1 160.5-.1 1.9 0 4.2-.6 5.8.2 2.4 1.2 4.4 3.5 6.5 5.2-2.1 1.8-4 4.7-6.5 5.3-3.6.9-7.6.2-10.9.2-.7 1.4-1.1 1.9-1.1 2.3-1.5 14.1-1.5 14 12.6 14.6 18.7.8 37.4 1.9 56.9 2.9-3 8.8-5.5 17.1-8.8 25.1-.6 1.5-4.3 2.5-6.5 2.4-23.1-.9-46.1-2.1-69.2-3.1-42.7-1.8-84.3 4.1-125.2 16-9.9 2.9-20.5 4.7-30.8 4.9-81.7 2.2-163.4 3.9-245.1 5.7-10.4.2-20.9 0-32.5 0-.5-8.4-1-17.5-1.6-28.2 18.1.3 35.7.3 54.1.3zm242-42.3c5.4 19.8 9 22.7 24.2 20.1v-20.1h-24.2zm-170.9 15.9c12.9 0 14.1-.9 13.7-8.9-.2-4.9-2.9-6.9-6.9-6-6.4 1.4-15.4-4.9-18.9 4.8-2.7 7.7.7 10.1 12.1 10.1zm41.2 0h2.9c5.3.2 10.1.4 10.2-7.5.1-7.7-4.5-7.9-10-7.6-2.9.1-5.8.1-8.7 0-4.9-.2-7.6 1.4-7.6 7 0 5.4 1.5 8.4 7.3 8.1h5.9zm81-15H289c-5.2-.2-9.5-.1-9.6 7.2-.1 7.5 4.1 8.2 9.7 7.9 3.1-.2 6.3-.1 9.4 0 5.4.2 7-2.6 7-7.6 0-5.2-1.8-7.7-7.1-7.4-1.9 0-3.9-.1-5.8-.1zm-41 15c1 .1 1.9.1 2.9.1 5.6.2 10.6.6 10.5-7.9-.1-8.3-5.4-7.1-10.4-7.2-3.4 0-6.8 0-10.2.1-4.7.1-5.3 3.2-5.2 7 0 3.8-.1 7.6 5.1 7.9 2.4.1 4.9 0 7.3 0zm-120.5-15h-2.9c-5.4-.1-10.8-.8-10.6 7.7.1 8.1 5.1 7.4 10.3 7.4 2.9 0 5.8-.1 8.7 0 5.6.2 6.9-2.8 6.9-7.8 0-4.8-1.4-7.5-6.6-7.3-1.9.1-3.9 0-5.8 0zm246.2-.8v20.5c6.4-.5 12.2-.9 18-1.3v-19.1c-6.2-.1-11.9-.1-18-.1zm-206.3-28h-2.9c-5.2-.1-10.3-.8-10.2 7.2 0 7.6 4.4 8 10 7.7 2.9-.1 5.8-.2 8.7 0 5.7.3 7.7-2.3 7.6-7.8 0-5.4-2.2-7.5-7.4-7.1-1.9.1-3.9 0-5.8 0zm40.7 0h-2.9c-4.9.1-10.3-1.3-10.4 7-.1 8.3 4.8 8.1 10.4 7.9 2.9-.1 5.8-.1 8.7 0 5.5.3 7-2.7 7.1-7.6 0-5.1-1.7-7.8-7.1-7.4-2 .2-3.9.1-5.8.1zm81.1 0h-3.6c-5-.2-9.7-.6-9.8 7-.1 7.6 4.1 8.3 9.9 7.9 3.2-.2 6.3-.1 9.5 0 5.7.2 6.7-3.1 6.8-7.9 0-4.9-1.7-7.3-6.8-7-2.1.1-4 0-6 0zm-162.3 14.9h2.9c5.2.1 10.1.6 10.2-7.4.1-8.1-4.7-7.6-10-7.5-2.9.1-5.8.2-8.7 0-5.4-.4-7.3 2-7.2 7.3.1 5 1.4 8 7 7.7 1.9-.2 3.8-.1 5.8-.1zm121.3-14.9h-2.9c-5.4-.2-10-.5-9.9 7.6.1 8.1 5 7.4 10.2 7.4 2.4 0 4.9-.2 7.3 0 5.7.5 8.4-1.4 8.4-7.7 0-6.1-2.7-7.7-8-7.2-1.7 0-3.4-.1-5.1-.1zm172.7 45v-16.9h-16.9v18.2c6.1-.5 11.5-.9 16.9-1.3zm41.7-2.6H484v-14.4h-17.8v14.4zm-12-14.4h-17.4v15.9c6.2-.4 11.8-.8 17.4-1.2v-14.7z"/>
    <path d="M551.8 370.6c-7.6 22.4-14.6 43.6-22 64.6-2.3 6.5-7.2 10.3-14.4 10.5-2.2.1-4.4.1-6.6.1H70.2c-3.9 0-8.6.6-11.4-1.3-4.1-2.8-9-7.3-9.6-11.6-1.8-12.4-1.6-25-2.3-39.5 16.5 0 32.3.3 48 0 71-1.5 142-3.7 213-4.5 23.2-.3 45.2-4.6 67.3-10.6 39.3-10.6 79.4-13.5 120-10.7 14.1 1 28.2 1.4 42.3 2.1 4.5.2 8.8.6 14.3.9zm-387-166.4c-3.1-12.9-6.1-25.5-9.4-39.4 9 0 16.5-.3 23.9.3 1.7.1 3.8 3.3 4.4 5.5 2.8 9.8 4.9 19.8 7.8 29.6.6 2 3.6 4.4 5.7 4.5 7.7.5 15.5.2 23.3.2 5.6 0 10 1.8 12.1 7.4l15.6 41.6H96.6c0-13.7-.5-27.5.2-41.2.3-5.5 5.5-7.6 10.8-7.7 6.3-.1 12.6 0 19.7 0-1.4-5.4-2.5-10.1-3.7-14.7-1.9-7.6-1.4-8.2 6.7-8.3 18.2-.3 18.6-.4 22.8 17.1 1.8 7.7 6.4 5.9 11.7 5.1zm6.4 34.7c0 .1 0 .1 0 0h2.9c5.3.1 10.2.5 10.1-7.5 0-7.8-4.7-7.8-10.1-7.6-3.1.1-6.3.1-9.4 0-5.6-.2-6.9 3-6.8 7.9 0 4.8 1.7 7.3 6.7 7.2h6.6zm40.5.1c1.2 0 2.4-.1 3.6 0 5.4.3 9.4-.3 9.4-7.5 0-7-3.8-8-9.3-7.7-3.1.2-6.3.2-9.4 0-5.7-.3-7.5 2.4-7.5 7.9 0 5.4 2.3 7.5 7.4 7.2 1.9 0 3.8.1 5.8.1zm-81-15.1h-2.9c-5.2-.1-10.2-.6-10.3 7.4-.1 7.9 4.5 7.9 10 7.7 2.9-.1 5.8-.1 8.7 0 5.3.3 7.3-2 7.3-7.4 0-5.1-1.5-8-7-7.7-1.9.1-3.8 0-5.8 0z"/>
    <path fill="#fff" d="M341.3 312.3h24.2v20.1c-15.3 2.6-18.8-.3-24.2-20.1zm-170.9 15.9c-11.4 0-14.8-2.4-12.1-10.2 3.4-9.7 12.5-3.3 18.9-4.8 4.1-.9 6.8 1.1 6.9 6 .3 8.2-.8 9.1-13.7 9zm41.2 0c-1.9 0-3.9-.1-5.8 0-5.8.3-7.3-2.7-7.3-8.1 0-5.6 2.6-7.2 7.6-7 2.9.1 5.8.1 8.7 0 5.5-.2 10-.1 10 7.6-.1 7.8-4.9 7.6-10.2 7.5h-3zm81-15c1.9 0 3.9.1 5.8 0 5.3-.3 7.1 2.2 7.1 7.4 0 5.1-1.6 7.8-7 7.6-3.1-.1-6.3-.1-9.4 0-5.7.3-9.8-.4-9.7-7.9.1-7.3 4.4-7.4 9.6-7.2 1.2.1 2.4.1 3.6.1zm-41 15c-2.4 0-4.9.1-7.3 0-5.2-.3-5.1-4.1-5.1-7.9 0-3.8.5-6.9 5.2-7 3.4-.1 6.8-.1 10.2-.1 5 .1 10.3-1.1 10.4 7.2.1 8.4-4.9 8-10.5 7.9-1-.1-1.9-.1-2.9-.1zm-120.5-15c1.9 0 3.9.1 5.8 0 5.2-.2 6.5 2.5 6.6 7.3 0 5-1.3 8-6.9 7.8-2.9-.1-5.8 0-8.7 0-5.2 0-10.2.7-10.3-7.4-.1-8.6 5.2-7.8 10.6-7.7h2.9zm246.2-.8h18v19.1c-5.8.4-11.6.9-18 1.3v-20.4zm-206.3-28c1.9 0 3.9.1 5.8 0 5.2-.4 7.4 1.8 7.4 7.1 0 5.5-2 8.2-7.6 7.8-2.9-.2-5.8-.1-8.7 0-5.5.3-10-.1-10-7.7 0-8.1 5.1-7.3 10.2-7.2h2.9zm40.7 0c1.9 0 3.9.1 5.8 0 5.5-.5 7.2 2.3 7.1 7.4 0 5-1.6 7.9-7.1 7.6-2.9-.2-5.8-.1-8.7 0-5.6.2-10.5.4-10.4-7.9.1-8.3 5.4-6.9 10.4-7 .9-.1 1.9-.1 2.9-.1zm81.1 0c1.9 0 3.9.1 5.8 0 5.1-.3 6.8 2 6.8 7 0 4.9-1 8.2-6.8 7.9-3.2-.1-6.3-.2-9.5 0-5.8.4-9.9-.4-9.9-7.9.1-7.6 4.8-7.2 9.8-7h3.8zm-162.3 14.9c-1.9 0-3.9-.1-5.8 0-5.6.4-7-2.7-7-7.7-.1-5.3 1.8-7.7 7.2-7.3 2.9.2 5.8.1 8.7 0 5.3-.1 10.1-.6 10 7.5-.1 8.1-4.9 7.5-10.2 7.4-1 .1-1.9.1-2.9.1zm121.3-14.9c1.7 0 3.4.1 5.1 0 5.3-.5 8 1.2 8 7.2 0 6.3-2.7 8.2-8.4 7.7-2.4-.2-4.9-.1-7.3 0-5.2.1-10.1.7-10.2-7.4-.1-8 4.5-7.8 9.9-7.6 1 .1 2 .1 2.9.1zm172.7 45c-5.4.4-10.8.8-16.9 1.3v-18.2h16.9v16.9zm41.7-2.6v-14.4H484v14.4h-17.8zm-12-14.4v14.7c-5.7.4-11.3.8-17.4 1.2v-15.9h17.4zm-283-73.5c-2.2 0-4.3-.1-6.5 0-5 .2-6.7-2.4-6.7-7.2 0-4.9 1.3-8 6.8-7.9 3.1.1 6.3.1 9.4 0 5.4-.1 10-.2 10.1 7.6 0 7.9-4.9 7.6-10.1 7.5-1.1.1-2.1.1-3 0 0 .1 0 .1 0 0zm40.5.1c-1.9 0-3.9-.1-5.8 0-5.1.2-7.4-1.8-7.4-7.2 0-5.5 1.9-8.2 7.5-7.9 3.1.2 6.3.2 9.4 0 5.5-.3 9.3.7 9.3 7.7 0 7.1-4.1 7.8-9.4 7.5-1.2-.2-2.4-.1-3.6-.1zm-81-15.1c1.9 0 3.9.1 5.8 0 5.5-.3 6.9 2.6 7 7.7.1 5.4-2 7.6-7.3 7.4-2.9-.1-5.8-.1-8.7 0-5.4.2-10 .2-10-7.7.1-8 5-7.5 10.3-7.4h2.9z"/>
</svg>
