<?xml version="1.0" encoding="utf-8"?>
<!-- Generator: Adobe Illustrator 24.1.0, SVG Export Plug-In . SVG Version: 6.00 Build 0)  -->
<svg version="1.1" id="Layer_1" xmlns="http://www.w3.org/2000/svg" xmlns:xlink="http://www.w3.org/1999/xlink" x="0px" y="0px"
	 viewBox="0 0 612 792" style="enable-background:new 0 0 612 792;" xml:space="preserve">
<g>
	<g>
		<path d="M225.2,430.9c-4.8,0-8.7,0-13.1,0c0-7.2,0-14,0-21.7c4.2,0,8.6,0.4,12.8-0.2c2-0.3,5-2.2,5.3-3.8
			c6-28.8,11.6-57.7,17.3-86.6c0.1-0.6,0-1.2,0-2.3c-2.6-0.2-5.1-0.4-8-0.6c0-6.8,0-13.6,0-20.5c0.3-0.2,0.6-0.6,0.9-0.6
			c12-0.8,12-0.8,14.5-13c1.5-7,3.1-14,4.2-21.1c0.6-3.6,2.2-4.5,5.5-4.4c10.3,0.2,20.6,0.1,31.7,0.1c0-6.7,0-13,0-19.3
			c0-6.1,0-12.2,0-18.6c7.3,0,14,0,21.4,0c0,12.5,0,24.9,0,37.9c11,0,21.3,0.1,31.6-0.1c3.6-0.1,5.2,0.9,5.9,4.7
			c1.9,11.1,4.4,22.2,6.7,33.7c4.5,0,8.6,0,13,0c0,7.2,0,13.9,0,21c-2.6,0.3-5.3,0.5-8.6,0.9c2.3,11.8,4.5,23.2,6.8,34.7
			c3.5,17.6,7.2,35.1,10.5,52.7c0.8,4.1,2.5,5.8,6.7,5.5c3.9-0.3,7.9-0.1,12.1-0.1c0,7.3,0,13.9,0,21.3c-4,0-8.1,0-13.4,0
			c13.9,69.7,27.7,138.6,41.6,208c9.6,0,19,0,29,0c0,7.3,0,14.2,0,21.4c-101.6,0-203.2,0-305.2,0c0-6.8,0-13.5,0-21
			c9.6,0,19.2,0,29.1,0C197.5,569.3,211.3,500.4,225.2,430.9z M284.8,586.9c-21.1-11.5-41.3-22.5-62-33.8c-5.1,25.4-10,50-15.2,76
			C233.9,614.7,258.9,601,284.8,586.9z M329.7,586.9c26,14.2,51,27.8,77.2,42c-5.2-26.1-10.1-50.6-15.2-75.8
			C370.8,564.5,350.8,575.5,329.7,586.9z M374.8,469.1c-2.6-13-5.1-25.5-7.6-38c-16.7,0-32.7,0-49,0c0,19.1,0,37.9,0,57.6
			C337.2,482.1,355.7,475.7,374.8,469.1z M239.6,469c19.2,6.4,37.8,12.6,56.5,18.8c0-19.3,0-37.9,0-56.8c-16.3,0-32.4,0-49,0
			C244.6,443.6,242.2,456.1,239.6,469z M318.1,568.8c19.5-10.6,38.1-20.8,57.9-31.6c-20.2-6.7-38.9-12.9-57.9-19.2
			C318.1,535,318.1,551.3,318.1,568.8z M296.3,519.1c-18.7,6.5-36.6,12.7-55.6,19.3c19.2,10.4,37.1,20.2,55.6,30.3
			C296.3,551.6,296.3,535.7,296.3,519.1z M296.2,605.2c-20.4,11.1-39.9,21.8-60.8,33.2c21.4,0,40.9,0,60.8,0
			C296.2,627.5,296.2,616.8,296.2,605.2z M379.2,638.4c-21.2-11.6-40.9-22.3-60.8-33.1c0,11.7,0,22.4,0,33.1
			C338.2,638.4,357.8,638.4,379.2,638.4z M296.1,316c-7,0-13.8,0-20.5,0c-1.8,0-3.5,0.1-5.4,0.2c-0.8,3.6-1.6,6.9-2.3,10.2
			c-2.7,13.6-2.7,13.6,9.5,20.5c6.1,3.4,12.2,6.9,18.6,10.6C296.1,343.1,296.1,329.8,296.1,316z M318.4,316.2c0,13.8,0,27.2,0,41.3
			c9.9-5.7,19.3-10.9,28.5-16.4c1-0.6,1.8-2.6,1.6-3.8c-1.2-7-2.8-14-4.2-21.1C335.6,316.2,327.2,316.2,318.4,316.2z M229.5,519.4
			c15.2-5.3,29.5-10.2,43.9-15.2c-0.1-0.5-0.2-0.9-0.2-1.4c-12.4-4.1-24.7-8.2-37.7-12.6C233.4,499.9,231.5,509.2,229.5,519.4z
			 M342.3,503.2c14.6,4.9,27.8,9.3,42.2,14.1c-1.9-9.7-3.6-18.1-5.4-26.8C366.8,494.7,355.2,498.7,342.3,503.2z M254.5,394.1
			c10.8-6.2,20.5-11.8,31-17.8c-8.7-4.9-16.4-9.4-24.6-14C258.7,373.1,256.7,383,254.5,394.1z M359.9,394
			c-2.3-11.2-4.2-21.1-6.4-31.7c-8.2,4.7-16,9.2-24.5,14C339.6,382.4,349.3,387.9,359.9,394z M277.7,278c-1.1,5.7-2.1,10.8-3.2,16.1
			c7.7,0,14.6,0,21.4,0c0-5.6,0-10.8,0-16.1C289.8,278,284.1,278,277.7,278z M318.2,293.8c7.4,0,14.3,0,21.6,0
			c-1.2-5.7-2.2-10.7-3.3-15.8c-6.3,0-12.2,0-18.3,0C318.2,283.5,318.2,288.6,318.2,293.8z M340.5,409c0.1-0.3,0.3-0.7,0.4-1
			c-7.4-4.2-14.8-8.5-22.6-12.9c0,5.2,0,9.5,0,13.9C326,409,333.2,409,340.5,409z M296.2,395c-8.2,4.7-15.5,8.9-24.2,13.9
			c9.2,0,16.6,0,24.2,0C296.2,404.4,296.2,400.3,296.2,395z"/>
		<path d="M328.5,202.3c12.5-17.1,30.3-23.8,46.7-17.8c14.5,5.3,25,24.9,21.4,39.9c-2.3,9.4-14.9,13.4-23.8,7.1
			c-3.5-2.4-6.2-6-9-9.4c-3-3.7-5.5-7.8-8.5-11.5c-6.2-7.5-13.9-11-23.7-8.5C330.6,202.3,329.7,202.2,328.5,202.3z"/>
		<path d="M287.8,204.2c-12.8-9.7-23.8-4.8-34.6,3.2c-3.8,2.8-7.7,6.3-12.1,7.5c-4.8,1.4-10.7,1.8-15.4,0.3
			c-8.5-2.8-10.9-8.5-8.1-17.1c4.4-13.6,13.3-23.3,27.7-26.1c13.7-2.6,25.1,2.5,33.4,13.7c3.8,5.2,6.8,11.1,10.1,16.7
			C288.5,203,288.1,203.6,287.8,204.2z"/>
		<path d="M316.9,170.2c-3.5-8.8-4.2-17.8-0.5-25.9c4-8.9,9.1-17.7,15.4-25.1c3.4-4,10.1-6.8,15.6-7.3c14.1-1.3,26,4.7,35,15.6
			c6,7.3,4.6,12.7-3.5,17.5c-5.7,3.4-11.7,3.4-17.9,1.7c-4.4-1.2-8.7-2.9-13-4.2c-9.5-2.6-15.7-0.6-21,7.8
			C323.2,156.5,320.4,163.3,316.9,170.2z"/>
	</g>
</g>
</svg>
