<svg xmlns="http://www.w3.org/2000/svg" viewBox="0 0 612 792">
  <path d="M168.304 447.441h-22.211v-29.66c7.121 0 14.582.546 21.703-.274 3.39-.41 8.478-3.007 8.986-5.194 10.173-39.366 19.668-78.869 29.333-118.371.17-.82 0-1.64 0-3.144-4.408-.273-8.647-.547-13.564-.82v-28.02c.508-.274 1.017-.82 1.526-.82 20.346-1.094 20.346-1.094 24.585-17.77 2.543-9.568 5.256-19.136 7.121-28.841 1.018-4.92 3.73-6.15 9.326-6.014 17.464.273 34.928.137 53.749.137v-51.805h36.284v51.804c18.651 0 36.115.137 53.58-.136 6.103-.137 8.816 1.23 10.003 6.424 3.222 15.172 7.46 30.345 11.36 46.064h22.042v28.704c-4.408.41-8.986.683-14.581 1.23 3.9 16.129 7.63 31.711 11.53 47.43 5.934 24.057 12.207 47.977 17.803 72.034 1.356 5.604 4.239 7.928 11.36 7.518 6.612-.41 13.395-.137 20.516-.137v29.114h-22.72c23.568 95.271 46.966 189.448 70.534 284.309h49.171v29.25H48.26V731.75H97.6c23.738-95.134 47.136-189.312 70.704-284.309zM269.36 660.672c-35.776-15.719-70.026-30.754-105.124-46.2-8.647 34.719-16.955 68.344-25.772 103.882 44.593-19.683 86.981-38.409 130.896-57.682zm76.13 0a49997.629 49997.629 0 0 0 130.896 57.409c-8.817-35.675-17.125-69.164-25.772-103.609-35.437 15.583-69.348 30.618-105.124 46.2zm76.469-161.016-12.886-51.941H325.99v78.731a72584.21 72584.21 0 0 1 95.968-26.79zm-229.238-.137a73859.006 73859.006 0 0 0 95.799 25.697v-77.638h-83.082c-4.239 17.222-8.308 34.308-12.717 51.94zm133.1 136.413c33.064-14.489 64.6-28.43 98.173-43.193-34.25-9.158-65.957-17.632-98.172-26.244v69.437zM288.859 568c-31.707 8.884-62.057 17.36-94.273 26.38 32.555 14.216 62.905 27.611 94.273 41.416V568zm-.17 117.687c-34.589 15.172-67.652 29.798-103.089 45.38h103.09v-45.38zm140.73 45.38c-35.945-15.856-69.347-30.481-103.089-45.243v45.243h103.09zm-140.9-440.678H253.76c-3.052 0-5.935.137-9.156.274-1.356 4.92-2.713 9.43-3.9 13.942-4.578 18.589-4.578 18.589 16.108 28.02 10.343 4.648 20.686 9.432 31.537 14.49.17-19.684.17-37.863.17-56.726zm37.811.274v56.451c16.786-7.791 32.724-14.899 48.323-22.416 1.696-.82 3.052-3.554 2.713-5.195-2.035-9.568-4.747-19.136-7.121-28.84H326.33zM175.595 568.409c25.773-7.244 50.019-13.942 74.435-20.776-.17-.684-.34-1.23-.34-1.914a11126.235 11126.235 0 0 1-63.921-17.223c-3.561 13.259-6.783 25.97-10.174 39.913zm191.258-22.143a41801.958 41801.958 0 0 0 71.552 19.273 2844.585 2844.585 0 0 0-9.156-36.633 11423.079 11423.079 0 0 0-62.396 17.36zM217.983 397.14c18.313-8.474 34.76-16.129 52.563-24.33-14.751-6.697-27.807-12.848-41.71-19.136a6735.473 6735.473 0 0 0-10.852 43.466zm178.711-.136c-3.9-15.31-7.121-28.841-10.851-43.33-13.904 6.424-27.129 12.575-41.541 19.136 17.973 8.338 34.42 15.856 52.392 24.194zM257.321 238.447c-1.866 7.791-3.561 14.762-5.426 22.007h36.284v-22.007h-30.858zm68.67 21.597h36.623c-2.035-7.791-3.73-14.626-5.595-21.597H325.99v21.597zm37.81 157.463c.17-.41.508-.957.678-1.367-12.547-5.74-25.094-11.618-38.32-17.633v19h37.642zm-75.113-19.136c-13.903 6.424-26.28 12.165-41.032 19h41.032v-19zm54.766-263.396c21.194-23.373 51.375-32.531 79.182-24.33 24.586 7.245 42.389 34.035 36.285 54.538-3.9 12.849-25.264 18.316-40.354 9.705-5.935-3.28-10.513-8.201-15.26-12.849-5.087-5.057-9.326-10.661-14.412-15.719-10.513-10.251-23.568-15.035-40.185-11.618-1.695.273-3.221.137-5.256.273zm-69.008 2.597c-21.703-13.258-40.354-6.56-58.666 4.374-6.443 3.828-13.056 8.612-20.516 10.252-8.139 1.914-18.143 2.46-26.112.41-14.412-3.827-18.481-11.618-13.734-23.373 7.46-18.59 22.551-31.848 46.967-35.676 23.229-3.554 42.558 3.417 56.631 18.726 6.443 7.108 11.53 15.173 17.125 22.827-.509.82-1.187 1.64-1.695 2.46zm49.34-46.473c-5.935-12.029-7.121-24.33-.848-35.402 6.782-12.165 15.43-24.193 26.111-34.308 5.765-5.468 17.125-9.295 26.451-9.978 23.907-1.777 44.084 6.424 59.344 21.323 10.173 9.978 7.8 17.359-5.934 23.92-9.665 4.647-19.838 4.647-30.35 2.324-7.461-1.64-14.752-3.964-22.043-5.741-16.107-3.554-26.62-.82-35.606 10.661-6.443 8.475-11.19 17.77-17.125 27.2z"/>
</svg>
