<svg xmlns="http://www.w3.org/2000/svg" viewBox="0 0 612 612">
    <path d="M464.4 229.6c.5 2.4 1.4 4.7 1.3 7-.2 3.9-1.6 7.8-1.6 11.6-.1 34.4-.1 68.8 0 103.2 0 2.2-.1 4.5.5 6.5 2.7 8.3-.3 15.1-6.5 20.1-5.4 4.4-12 7.5-19.3 11.9.9-42.2 1.8-82.5 2.7-123.6-10.6 3.2-20.4 6-30.1 9.2-1.1.4-2 3.5-1.9 5.3.8 36.2 1.7 72.4 3 108.5.2 5.5-1.4 7.9-6.8 8.5-20.9 2.4-41.8 5.9-62.8 7.2-40 2.4-80 .7-119.7-5.6-4.5-.7-8.9-1.7-13.3-2.5-.1.6-.2 1.1-.4 1.7 10.4 2.3 20.7 5 31.2 6.9 42 7.5 84.3 8.5 126.7 3.9 25-2.7 49.6-6.9 72.9-17 3.6-1.6 7.1-3.6 10.5-5.6 7-4.1 12.8-9.2 15.1-17.3-.6 9.6-1.5 19.3-1.6 29-.3 19.5-.2 39 0 58.5 0 3.7 1 7.4 1.8 11.1 3.3 16.3-2.5 29.7-13.6 41.2-13.3 13.8-30 22.1-47.8 28.5-30.5 10.9-62.2 14.9-94.5 14.7-41-.2-80.9-6.2-118.3-24.3-13.7-6.6-26.3-15-35.9-27.2-9.7-12.3-13.7-25.8-9-41.3.7-2.2.8-4.7.8-7 .1-20.1.2-40.2 0-60.3-.1-7.1-1.4-14.1-1.9-21.2-.3-4.1-.2-8.3.1-12.4.4-5.9 1.8-11.7 1.8-17.6.2-32.2.1-64.4 0-96.6 0-3.5-1.2-7-1.6-10.5-.4-3.9-.6-7.9-.4-11.8.4-5.9 1.8-11.7 1.9-17.6.2-26.6.2-53.3 0-79.9 0-3.3-1.3-6.9-3.2-9.7-5.1-7.8-5.5-16.5 1.3-22.8 5.4-5 11.9-9.4 18.7-12.4 20.9-9.3 43.4-12.9 65.9-15.6 38.9-4.8 77.9-5.2 116.9-2.4 32.2 2.3 64.3 6.1 94.6 18 7.8 3.1 15.4 7.6 21.9 12.9 9 7.4 9.1 16.3 2.2 25.8-1.3 1.8-2.1 4.3-2.1 6.5-.1 30.4-.1 60.8-.1 91.3 0 4.4.3 8.8.5 13.2-3.7 10.4-12.6 14.4-22.5 19 .8-38.8 1.7-76.2 2.5-113.7-11.8 2.9-22.8 5.9-33.8 8.3-4.3.9-5.1 2.8-5 6.9 1.1 33.4 2 66.8 2.9 100.2.1 2.5 0 5.1 0 8.2-66 11.8-131.5 11.2-197.2.7 4.9 1.9 9.7 3.4 14.7 4.5 43.1 9.4 86.8 11.5 130.7 7.9 27.8-2.3 55.4-6.6 81.3-17.5 8.1-3.4 15.4-8.8 22.4-14.3 2.6-1.9 2.8-6.7 4.1-10.2zm-144.9-90.4c12.3-.8 33-1.5 53.6-3.5 21.4-2 42.7-5.5 63-13 6.4-2.4 12.8-5.6 18.4-9.6 6.3-4.4 6.2-8.8-.3-13.2-5.5-3.8-11.6-7.1-17.8-9.4-25.9-9.7-53.1-13.5-80.6-15.8-51.4-4.3-102.7-3.7-153.5 6.3-15 3-30 6.6-43.1 15.2-8.6 5.7-9 10.9-.1 16.2 8.1 4.8 17 8.9 26 11.5 41.2 12.2 83.5 14.5 134.4 15.3zM207.2 522.1c2.1.9 4.2 1.8 6.3 2.6 26.3 9.2 53.5 13.8 81.2 15.2 43.8 2.2 86.7-2.3 127.4-19.8 14-6 26.7-14.2 35.8-26.9 5.1-7.2 6.5-13.6 4.9-20.7-1.1 17.5-12.6 26.4-26.7 35.2.7-34.4 1.5-67.5 2.2-101.3-8.2 2.4-15.5 4.4-22.5 6.9-1.3.5-2.6 3.3-2.6 5 .1 11.9.7 23.8.8 35.8.1 21 0 42.1 0 64.4-67.5 21.4-136.9 20.5-206.8 3.6z"/>
    <path fill="#fff" d="M319.5 139.2c-50.9-.7-93.2-3.1-134.2-15.3-9-2.7-17.9-6.7-26-11.5-8.9-5.3-8.6-10.5.1-16.2 13.1-8.6 28-12.2 43.1-15.2 50.8-10 102.1-10.6 153.5-6.3 27.4 2.3 54.6 6.1 80.6 15.8 6.3 2.3 12.3 5.6 17.8 9.4 6.4 4.4 6.6 8.8.3 13.2-5.6 3.9-11.9 7.2-18.4 9.6-20.3 7.5-41.6 10.9-63 13-20.7 1.9-41.4 2.7-53.8 3.5zm-83.7-20.9c7.3-1.6 14.2-2.7 20.7-4.6 4-1.2 6.9-4 7.1-9.1.2-5.5-1.5-9.4-6.5-11.3-14.4-5.6-29-5.7-43.6-.7-4.7 1.6-7 4.8-7 10.4 0 5.6 2.3 8.9 7 10.3 7.4 2.1 15 3.4 22.3 5zm228.6 111.3c-1.3 3.5-1.5 8.3-4 10.3-6.9 5.5-14.3 10.9-22.4 14.3-25.9 11-53.5 15.3-81.3 17.5-43.9 3.6-87.5 1.5-130.7-7.9-5-1.1-9.9-2.6-14.7-4.5 65.7 10.5 131.3 11.1 197.2-.7 0-3.1.1-5.7 0-8.2-.9-33.4-1.8-66.8-2.9-100.2-.1-4.1.7-6 5-6.9 11-2.4 22-5.3 33.8-8.3-.8 37.5-1.6 74.9-2.5 113.7 10-4.7 18.9-8.6 22.5-19 .1 0 0-.1 0-.1zM207.2 522.1c70 16.8 139.3 17.7 206.9-3.8 0-22.3.1-43.3 0-64.4-.1-11.9-.7-23.8-.8-35.8 0-1.7 1.2-4.5 2.6-5 7.1-2.5 14.3-4.5 22.5-6.9-.7 33.8-1.5 66.9-2.2 101.3 14-8.7 25.5-17.7 26.7-35.2 1.6 7.1.2 13.6-4.9 20.7-9.1 12.7-21.7 20.9-35.8 26.9-40.8 17.5-83.6 21.9-127.4 19.8-27.8-1.4-54.9-5.9-81.2-15.2-2.2-.5-4.3-1.5-6.4-2.4z"/>
    <path d="M235.8 118.3c-7.3-1.6-14.9-3-22.3-5.1-4.7-1.4-7.1-4.7-7-10.3 0-5.5 2.3-8.8 7-10.4 14.6-5 29.2-4.9 43.6.7 5 2 6.7 5.9 6.5 11.3-.2 5.1-3.1 7.9-7.1 9.1-6.6 2.1-13.4 3.2-20.7 4.7zm-19.2-15.5c12.1 4.9 24.5 4.8 36.9.6-12.2-5-24.4-4.7-36.9-.6z"/>
    <path fill="#fff" d="M216.6 102.8c12.5-4.1 24.7-4.4 36.9.6-12.4 4.2-24.8 4.3-36.9-.6z"/>
</svg>
