<svg xmlns="http://www.w3.org/2000/svg" viewBox="0 0 511.996 511.996">
  <circle fill="#ff7a00" cx="255.998" cy="255.998" r="255.998"/>
  <circle fill="#ffda7d" cx="255.998" cy="255.998" r="239.289"/>
  <path fill="#ffb730" d="M112.66 412.846c35.349 32.323 81.64 52.866 132.691 55.387V280.159q-66.34 66.34-132.691 132.687m120.894-147.685H43.721c2.193 51.688 22.857 98.585 55.547 134.289zm11.801-33.95V43.764C194.46 46.274 148.29 66.7 112.988 98.852zM99.567 112.215C66.828 147.82 46.074 194.61 43.736 246.212h189.818zM399.44 99.279c-35.897-32.86-83.114-53.571-135.137-55.575v190.708q67.569-67.57 135.137-135.133M279.301 246.212h188.96c-2.332-51.389-22.918-98.001-55.422-133.538zm133.826 152.776c32.458-35.641 52.962-82.356 55.148-133.827H279.301c44.611 44.611 89.215 89.219 133.826 133.827m-148.824-122.03v191.331c52.176-2.008 99.517-22.84 135.453-55.878q-67.723-67.729-135.453-135.453"/>
  <path fill="#ffda7d" d="M168.965 224.875a3.191 3.191 0 0 1-1.072 6.294l-59.53-10.145a3.196 3.196 0 0 1-2.609-3.684 3.197 3.197 0 0 1 3.684-2.609zm116.295-30.276a3.191 3.191 0 1 1-5.532-3.186l30.141-52.325a3.192 3.192 0 1 1 5.532 3.186zm-.395-51.731a3.187 3.187 0 0 1-3.78 2.463 3.193 3.193 0 0 1-2.463-3.784l12.527-59.075a3.2 3.2 0 0 1 3.784-2.46 3.19 3.19 0 0 1 2.456 3.784zM136.817 187.48a3.194 3.194 0 0 1 1.516 4.254 3.194 3.194 0 0 1-4.25 1.516l-36.167-15.841a3.19 3.19 0 0 1-1.513-4.254 3.194 3.194 0 0 1 4.25-1.513zm99.866 7.771a3.192 3.192 0 0 1-5.728 2.816l-18.49-34.889c-.78-1.581-.117-3.492 1.463-4.272a3.187 3.187 0 0 1 4.265 1.46zm-12.42-66.999a3.19 3.19 0 0 1-1.456 4.272 3.18 3.18 0 0 1-4.268-1.456l-18.49-34.889a3.196 3.196 0 0 1 1.46-4.275 3.194 3.194 0 0 1 4.268 1.46zm106.722 94.751a3.191 3.191 0 1 1-2.178-5.998l56.757-20.618a3.195 3.195 0 0 1 4.09 1.912 3.2 3.2 0 0 1-1.912 4.09zm-57.202 88.891a3.187 3.187 0 0 1 2.681-3.631 3.2 3.2 0 0 1 3.631 2.688l8.899 59.726a3.193 3.193 0 0 1-6.315.943zm32.447 40.286a3.187 3.187 0 0 1 1.427-4.275 3.2 3.2 0 0 1 4.286 1.431l26.894 54.066a3.195 3.195 0 0 1-1.438 4.279 3.194 3.194 0 0 1-4.279-1.438zm63.671-116.334a3.191 3.191 0 1 1-.473-6.365l39.272-4.115a3.194 3.194 0 0 1 3.417 2.951 3.19 3.19 0 0 1-2.951 3.414zm-51.856 47.424a3.2 3.2 0 0 1-1.136-4.371 3.195 3.195 0 0 1 4.371-1.136l34.644 18.945a3.187 3.187 0 0 1 1.125 4.371 3.19 3.19 0 0 1-4.364 1.136zm48.997 42.226a3.185 3.185 0 0 1-1.136-4.368 3.19 3.19 0 0 1 4.368-1.139l34.64 18.945c1.524.893 2.022 2.851 1.136 4.375a3.197 3.197 0 0 1-4.368 1.128zm-166.434-51.218a3.19 3.19 0 0 1 3.716 2.563 3.197 3.197 0 0 1-2.57 3.713l-59.406 10.854a3.194 3.194 0 0 1-3.713-2.567 3.19 3.19 0 0 1 2.567-3.709zm-39.197 33.757a3.19 3.19 0 0 1 4.322 1.285 3.204 3.204 0 0 1-1.292 4.332l-53.155 28.653a3.196 3.196 0 0 1-4.325-1.299 3.19 3.19 0 0 1 1.292-4.322zm69.256 9.54a3.2 3.2 0 0 1 4.332-1.278 3.185 3.185 0 0 1 1.278 4.329l-17.799 35.249a3.195 3.195 0 0 1-4.336 1.271 3.187 3.187 0 0 1-1.274-4.325zm-40.592 50.357a3.187 3.187 0 0 1 4.325-1.278 3.183 3.183 0 0 1 1.278 4.329l-17.795 35.245a3.2 3.2 0 0 1-4.336 1.278 3.193 3.193 0 0 1-1.271-4.325z"/>
</svg>
