<?xml version="1.0" encoding="iso-8859-1"?>
<!-- Generator: Adobe Illustrator 19.0.0, SVG Export Plug-In . SVG Version: 6.00 Build 0)  -->
<svg version="1.1" id="Layer_1" xmlns="http://www.w3.org/2000/svg" xmlns:xlink="http://www.w3.org/1999/xlink" x="0px" y="0px"
	 viewBox="0 0 511.996 511.996" style="enable-background:new 0 0 511.996 511.996;" xml:space="preserve">
<circle style="fill:#FF7A00;" cx="255.998" cy="255.998" r="255.998"/>
<circle style="fill:#FFDA7D;" cx="255.998" cy="255.998" r="239.289"/>
<g>
	<path style="fill:#FFB730;" d="M112.66,412.846c35.349,32.323,81.64,52.866,132.691,55.387V280.159
		C201.124,324.385,156.894,368.616,112.66,412.846z"/>
	<path style="fill:#FFB730;" d="M233.554,265.161H43.721c2.193,51.688,22.857,98.585,55.547,134.289L233.554,265.161z"/>
	<path style="fill:#FFB730;" d="M245.355,231.211V43.764C194.46,46.274,148.29,66.7,112.988,98.852
		C157.111,142.972,201.231,187.092,245.355,231.211z"/>
	<path style="fill:#FFB730;" d="M99.567,112.215C66.828,147.82,46.074,194.61,43.736,246.212h189.818
		C188.893,201.548,144.232,156.883,99.567,112.215z"/>
	<path style="fill:#FFB730;" d="M399.44,99.279c-35.897-32.86-83.114-53.571-135.137-55.575v190.708
		C309.349,189.366,354.394,144.321,399.44,99.279z"/>
	<path style="fill:#FFB730;" d="M279.301,246.212h188.96c-2.332-51.389-22.918-98.001-55.422-133.538
		C368.327,157.186,323.812,201.701,279.301,246.212z"/>
	<path style="fill:#FFB730;" d="M413.127,398.988c32.458-35.641,52.962-82.356,55.148-133.827H279.301
		C323.912,309.772,368.516,354.38,413.127,398.988z"/>
	<path style="fill:#FFB730;" d="M264.303,276.958v191.331c52.176-2.008,99.517-22.84,135.453-55.878
		C354.608,367.259,309.456,322.107,264.303,276.958z"/>
</g>
<g>
	<path style="fill:#FFDA7D;" d="M168.965,224.875c1.737,0.295,2.905,1.947,2.609,3.681l0,0c-0.295,1.737-1.944,2.908-3.681,2.613
		l-59.53-10.145c-1.737-0.295-2.901-1.947-2.609-3.684l0,0c0.299-1.734,1.947-2.905,3.684-2.609L168.965,224.875z"/>
	<path style="fill:#FFDA7D;" d="M285.26,194.599c-0.879,1.531-2.83,2.05-4.357,1.175l0,0c-1.527-0.879-2.054-2.834-1.175-4.361
		l30.141-52.325c0.879-1.527,2.834-2.05,4.364-1.171l0,0c1.524,0.879,2.047,2.83,1.168,4.357L285.26,194.599z"/>
	<path style="fill:#FFDA7D;" d="M284.865,142.868c-0.363,1.73-2.058,2.826-3.78,2.463l0,0c-1.723-0.363-2.83-2.061-2.463-3.784
		l12.527-59.075c0.37-1.723,2.065-2.823,3.784-2.46l0,0c1.719,0.367,2.826,2.061,2.456,3.784L284.865,142.868z"/>
	<path style="fill:#FFDA7D;" d="M136.817,187.48c1.595,0.758,2.271,2.663,1.516,4.254l0,0c-0.758,1.591-2.663,2.271-4.25,1.516
		l-36.167-15.841c-1.595-0.755-2.271-2.663-1.513-4.254l0,0c0.758-1.588,2.659-2.268,4.25-1.513L136.817,187.48z"/>
	<path style="fill:#FFDA7D;" d="M236.683,195.251c0.776,1.584,0.125,3.496-1.456,4.272l0,0c-1.581,0.78-3.496,0.125-4.272-1.456
		l-18.49-34.889c-0.78-1.581-0.117-3.492,1.463-4.272l0,0c1.581-0.772,3.489-0.125,4.265,1.46L236.683,195.251z"/>
	<path style="fill:#FFDA7D;" d="M224.263,128.252c0.776,1.584,0.125,3.496-1.456,4.272l0,0c-1.581,0.78-3.496,0.128-4.268-1.456
		l-18.49-34.889c-0.78-1.581-0.121-3.496,1.46-4.275l0,0c1.581-0.772,3.492-0.121,4.268,1.46L224.263,128.252z"/>
	<path style="fill:#FFDA7D;" d="M330.985,223.003c-1.659,0.602-3.489-0.253-4.09-1.908l0,0c-0.602-1.655,0.253-3.489,1.912-4.09
		l56.757-20.618c1.655-0.602,3.485,0.256,4.09,1.912l0,0c0.594,1.655-0.256,3.489-1.912,4.09L330.985,223.003z"/>
	<path style="fill:#FFDA7D;" d="M273.783,311.894c-0.263-1.748,0.936-3.368,2.681-3.631l0,0c1.741-0.26,3.368,0.947,3.631,2.688
		l8.899,59.726c0.26,1.744-0.947,3.368-2.691,3.627l0,0c-1.741,0.256-3.364-0.947-3.624-2.684L273.783,311.894z"/>
	<path style="fill:#FFDA7D;" d="M306.23,352.18c-0.79-1.577-0.142-3.492,1.427-4.275l0,0c1.577-0.787,3.492-0.146,4.286,1.431
		l26.894,54.066c0.783,1.577,0.139,3.496-1.438,4.279l0,0c-1.577,0.783-3.489,0.142-4.279-1.438L306.23,352.18z"/>
	<path style="fill:#FFDA7D;" d="M369.901,235.846c-1.762,0.132-3.289-1.189-3.421-2.948l0,0c-0.128-1.759,1.193-3.289,2.948-3.417
		l39.272-4.115c1.755-0.132,3.286,1.193,3.417,2.951l0,0c0.125,1.759-1.189,3.286-2.951,3.414L369.901,235.846z"/>
	<path style="fill:#FFDA7D;" d="M318.045,283.27c-1.52-0.897-2.026-2.851-1.136-4.371l0,0c0.893-1.52,2.855-2.029,4.371-1.136
		l34.644,18.945c1.52,0.89,2.022,2.851,1.125,4.371l0,0c-0.89,1.516-2.844,2.026-4.364,1.136L318.045,283.27z"/>
	<path style="fill:#FFDA7D;" d="M367.042,325.496c-1.527-0.893-2.029-2.848-1.136-4.368l0,0c0.886-1.52,2.848-2.033,4.368-1.139
		l34.64,18.945c1.524,0.893,2.022,2.851,1.136,4.375l0,0c-0.901,1.513-2.855,2.022-4.368,1.128L367.042,325.496z"/>
	<path style="fill:#FFDA7D;" d="M200.608,274.278c1.734-0.32,3.392,0.826,3.716,2.563l0,0c0.313,1.73-0.833,3.396-2.57,3.713
		l-59.406,10.854c-1.73,0.317-3.396-0.833-3.713-2.567l0,0c-0.313-1.73,0.833-3.396,2.567-3.709L200.608,274.278z"/>
	<path style="fill:#FFDA7D;" d="M161.411,308.035c1.556-0.844,3.485-0.256,4.322,1.285l0,0c0.837,1.552,0.256,3.489-1.292,4.332
		l-53.155,28.653c-1.556,0.833-3.489,0.253-4.325-1.299l0,0c-0.837-1.552-0.26-3.485,1.292-4.322L161.411,308.035z"/>
	<path style="fill:#FFDA7D;" d="M230.667,317.575c0.844-1.548,2.784-2.118,4.332-1.278l0,0c1.552,0.84,2.125,2.784,1.278,4.329
		l-17.799,35.249c-0.84,1.548-2.784,2.115-4.336,1.271l0,0c-1.545-0.84-2.118-2.777-1.274-4.325L230.667,317.575z"/>
	<path style="fill:#FFDA7D;" d="M190.075,367.932c0.844-1.552,2.777-2.118,4.325-1.278l0,0c1.552,0.837,2.125,2.78,1.278,4.329
		l-17.795,35.245c-0.844,1.552-2.784,2.115-4.336,1.278l0,0c-1.541-0.847-2.115-2.784-1.271-4.325L190.075,367.932z"/>
</g>
<g>
</g>
<g>
</g>
<g>
</g>
<g>
</g>
<g>
</g>
<g>
</g>
<g>
</g>
<g>
</g>
<g>
</g>
<g>
</g>
<g>
</g>
<g>
</g>
<g>
</g>
<g>
</g>
<g>
</g>
</svg>
