<svg xmlns="http://www.w3.org/2000/svg" viewBox="0 0 511.996 511.996">
    <circle fill="#ff7a00" cx="255.998" cy="255.998" r="255.998"/>
    <circle fill="#ffda7d" cx="255.998" cy="255.998" r="239.289"/>
    <path fill="#ffb730" d="M112.66 412.846c35.349 32.323 81.64 52.866 132.691 55.387V280.159c-44.227 44.226-88.457 88.457-132.691 132.687zm120.894-147.685H43.721c2.193 51.688 22.857 98.585 55.547 134.289l134.286-134.289zm11.801-33.95V43.764C194.46 46.274 148.29 66.7 112.988 98.852c44.123 44.12 88.243 88.24 132.367 132.359zM99.567 112.215C66.828 147.82 46.074 194.61 43.736 246.212h189.818c-44.661-44.664-89.322-89.329-133.987-133.997zM399.44 99.279c-35.897-32.86-83.114-53.571-135.137-55.575v190.708c45.046-45.046 90.091-90.091 135.137-135.133zM279.301 246.212h188.96c-2.332-51.389-22.918-98.001-55.422-133.538L279.301 246.212zm133.826 152.776c32.458-35.641 52.962-82.356 55.148-133.827H279.301c44.611 44.611 89.215 89.219 133.826 133.827zm-148.824-122.03v191.331c52.176-2.008 99.517-22.84 135.453-55.878-45.148-45.152-90.3-90.304-135.453-135.453z"/>
    <path fill="#ffda7d" d="M168.965 224.875c1.737.295 2.905 1.947 2.609 3.681-.295 1.737-1.944 2.908-3.681 2.613l-59.53-10.145c-1.737-.295-2.901-1.947-2.609-3.684.299-1.734 1.947-2.905 3.684-2.609l59.527 10.144zm116.295-30.276c-.879 1.531-2.83 2.05-4.357 1.175-1.527-.879-2.054-2.834-1.175-4.361l30.141-52.325c.879-1.527 2.834-2.05 4.364-1.171 1.524.879 2.047 2.83 1.168 4.357l-30.141 52.325zm-.395-51.731c-.363 1.73-2.058 2.826-3.78 2.463-1.723-.363-2.83-2.061-2.463-3.784l12.527-59.075c.37-1.723 2.065-2.823 3.784-2.46 1.719.367 2.826 2.061 2.456 3.784l-12.524 59.072zM136.817 187.48c1.595.758 2.271 2.663 1.516 4.254-.758 1.591-2.663 2.271-4.25 1.516l-36.167-15.841c-1.595-.755-2.271-2.663-1.513-4.254.758-1.588 2.659-2.268 4.25-1.513l36.164 15.838zm99.866 7.771c.776 1.584.125 3.496-1.456 4.272-1.581.78-3.496.125-4.272-1.456l-18.49-34.889c-.78-1.581-.117-3.492 1.463-4.272 1.581-.772 3.489-.125 4.265 1.46l18.49 34.885zm-12.42-66.999c.776 1.584.125 3.496-1.456 4.272-1.581.78-3.496.128-4.268-1.456l-18.49-34.889c-.78-1.581-.121-3.496 1.46-4.275 1.581-.772 3.492-.121 4.268 1.46l18.486 34.888zm106.722 94.751c-1.659.602-3.489-.253-4.09-1.908-.602-1.655.253-3.489 1.912-4.09l56.757-20.618c1.655-.602 3.485.256 4.09 1.912.594 1.655-.256 3.489-1.912 4.09l-56.757 20.614zm-57.202 88.891c-.263-1.748.936-3.368 2.681-3.631 1.741-.26 3.368.947 3.631 2.688l8.899 59.726c.26 1.744-.947 3.368-2.691 3.627-1.741.256-3.364-.947-3.624-2.684l-8.896-59.726zm32.447 40.286c-.79-1.577-.142-3.492 1.427-4.275 1.577-.787 3.492-.146 4.286 1.431l26.894 54.066c.783 1.577.139 3.496-1.438 4.279-1.577.783-3.489.142-4.279-1.438l-26.89-54.063zm63.671-116.334c-1.762.132-3.289-1.189-3.421-2.948-.128-1.759 1.193-3.289 2.948-3.417l39.272-4.115c1.755-.132 3.286 1.193 3.417 2.951.125 1.759-1.189 3.286-2.951 3.414l-39.265 4.115zm-51.856 47.424c-1.52-.897-2.026-2.851-1.136-4.371.893-1.52 2.855-2.029 4.371-1.136l34.644 18.945c1.52.89 2.022 2.851 1.125 4.371-.89 1.516-2.844 2.026-4.364 1.136l-34.64-18.945zm48.997 42.226c-1.527-.893-2.029-2.848-1.136-4.368.886-1.52 2.848-2.033 4.368-1.139l34.64 18.945c1.524.893 2.022 2.851 1.136 4.375-.901 1.513-2.855 2.022-4.368 1.128l-34.64-18.941zm-166.434-51.218c1.734-.32 3.392.826 3.716 2.563.313 1.73-.833 3.396-2.57 3.713l-59.406 10.854c-1.73.317-3.396-.833-3.713-2.567-.313-1.73.833-3.396 2.567-3.709l59.406-10.854zm-39.197 33.757c1.556-.844 3.485-.256 4.322 1.285.837 1.552.256 3.489-1.292 4.332l-53.155 28.653c-1.556.833-3.489.253-4.325-1.299-.837-1.552-.26-3.485 1.292-4.322l53.158-28.649zm69.256 9.54c.844-1.548 2.784-2.118 4.332-1.278 1.552.84 2.125 2.784 1.278 4.329l-17.799 35.249c-.84 1.548-2.784 2.115-4.336 1.271-1.545-.84-2.118-2.777-1.274-4.325l17.799-35.246zm-40.592 50.357c.844-1.552 2.777-2.118 4.325-1.278 1.552.837 2.125 2.78 1.278 4.329l-17.795 35.245c-.844 1.552-2.784 2.115-4.336 1.278-1.541-.847-2.115-2.784-1.271-4.325l17.799-35.249z"/>
</svg>
