<svg xmlns="http://www.w3.org/2000/svg" viewBox="0 0 612 792">
    <path d="M1.623439 505.642254c10.377047-11.81759 20.51554-23.63518 31.13114-35.214032 3.459016-3.700458 5.367438-7.520285 4.890333-12.653178-.477106-4.774784-.238553-9.549568-.119277-14.324352.35783-11.69822 8.349348-19.815353 20.038436-19.934723 13.358956-.11937 26.598637 0 39.957594 0h7.037307v-11.220742c.238553-17.78607 10.973429-28.648704 28.745613-28.648704 41.985292-.11937 83.851309-.11937 125.836602.11937 5.128885 0 7.991518-1.074327 7.395136-6.804068-.119276-.954957 0-2.029283.238553-2.98424 1.66987-7.281545.119277-12.05633-6.321649-17.427961-14.670997-11.93696-10.496323-35.572141 7.037308-43.450535 3.578292-1.551805 5.128885-3.222979 5.367438-7.281545.238552-6.923437 1.073487-13.846874 1.908422-20.77031 1.073488-10.504526 8.468624-17.666702 18.845671-17.90544 8.94573-.23874 17.89146-.23874 26.83719 0 10.377047.358108 17.772184 7.400914 18.964948 17.90544.834935 7.281545 1.192764 14.68246 2.266251 21.964006.35783 2.029283 2.146976 4.536044 3.936122 5.371632 9.542112 4.536044 15.505932 11.57885 16.57942 22.322115.95421 10.862633-3.33974 19.218505-12.28547 25.425725-1.66987 1.193696-2.62408 3.819827-3.101186 6.08785-.35783 2.029282.357829 4.297305.596382 6.445958 1.192764 10.862633 1.192764 10.862633 12.404745 10.862633H473.71943c19.799883 0 30.17693 10.385155 30.17693 30.08114v47.150991c49.261153 10.504525 78.006765 40.466295 86.47539 89.64657 10.496323 1.551805 14.074615 3.939197 13.836062 9.668938-.238553 5.61037-3.816845 7.997763-13.716786 8.83335-.715659 4.058566-1.31204 8.355872-2.146975 12.653178-5.128886 23.396441-16.817973 42.734316-35.425091 57.774886-2.862634 2.268022-3.816845 4.416675-3.220463 7.997763 2.027699 10.504525 3.936121 21.12842 5.60599 31.632944.596383 3.581088 2.0277 4.536045 5.367439 4.536045 12.881851-.11937 25.882979.11937 38.76483-.11937 5.60599-.11937 10.138494 1.074327 13.23968 5.96848v11.93696H1.981268c-.357829-65.175801-.357829-130.351603-.357829-195.646774zm372.38092 177.980074c15.983038 0 31.369694.11937 46.875626-.23874 1.073488 0 2.62408-2.506761 2.98191-4.058566 2.027699-10.385155 3.697568-20.77031 5.725267-31.036096.834935-3.939197-.119276-6.445958-3.339739-9.07209-17.175802-13.727504-28.387783-31.513574-33.993774-52.641993-1.550593-5.729741-2.266252-11.578851-3.459016-17.308592-9.89994-1.074327-13.59751-3.342349-13.59751-8.83335.238554-9.19146 7.514414-9.31083 13.478234-9.549569 10.377047-54.432537 42.700951-84.394307 97.210266-91.079004v-46.076666c0-9.788307-2.862634-12.772547-12.881851-12.772547H356.1129c-2.027699 0-4.174674.238739-6.679479.477478 8.230072 94.301984 16.460144 187.88775 24.570939 282.189735zM122.331157 423.3966h7.037307c12.881852 0 25.88298-.11937 38.76483 0 12.404746.11937 20.396265 8.117132 20.634818 20.65094.119276 5.371632-.35783 10.743264.119276 16.114896.238553 2.745501 1.31204 5.84911 2.98191 7.878394 8.826454 10.504525 17.89146 20.88968 27.19502 30.916726 4.055397 4.416676 5.60599 9.07209 5.60599 15.04057-.119276 54.074429-.119276 108.268227-.119276 162.342656v6.923437h15.386655c8.230072-94.063245 16.340867-187.88775 24.570939-282.309104H132.46965c-5.486715.11937-9.30356 2.7455-10.019218 8.236502-.596382 4.536045-.119276 9.07209-.119276 14.204983zm84.328415 94.540723H19.75345v55.506864h186.90612v-55.506864zm-.119277 165.446265v-55.745603H19.872728v55.745603h186.667566zm364.747231-132.619625c-2.027698-33.304119-34.11305-74.367261-85.282626-72.815456-39.838317 1.193696-79.557358 37.720793-78.364594 72.815456h163.64722zM257.590593 683.264219h98.880136c-2.027699-23.87392-4.055398-47.270362-6.202373-70.905543h-86.47539c-2.146975 23.75455-4.174674 47.150992-6.202373 70.905543zm90.411512-88.930352c.238552-.835587.477105-1.193696.477105-1.551805-1.908422-22.202746-3.936121-44.405491-5.725267-66.488867-.35783-3.939197-2.862634-3.581088-5.367438-3.581088-20.276988 0-40.553976.11937-60.830964-.11937-4.174674 0-5.367438 1.432435-5.60599 5.371632-1.192765 16.592375-2.862634 33.304119-4.293951 49.896493-.477106 5.371632-.715659 10.862634-1.192764 16.473005h82.539269zm141.581086-25.545095c-7.991518 0-15.86376.11937-23.85528-.11937-3.459015-.119369-4.771056 1.074327-5.367438 4.536046-3.220462 18.979766-6.560202 37.959532-10.138494 56.81993-.596382 3.103609.35783 4.655414 3.101187 5.96848 23.974556 10.982002 47.829836 11.101372 71.923669.119369 2.743357-1.193696 3.936121-2.626131 3.33974-5.84911-3.459016-18.860397-6.918032-37.840164-10.138495-56.81993-.596382-3.939197-2.146975-4.774784-5.844543-4.655415-7.63369.11937-15.26738 0-23.020346 0zm-148.73767-63.862736c-2.146976-24.232028-4.174674-47.62847-6.202373-71.26365h-55.463526c-2.027699 23.87392-4.055398 47.38973-6.202373 71.26365h67.868272zM19.634175 609.255066h186.786843v-17.308591H19.634175v17.308592zm176.409796-109.581292c-5.844544-6.684698-10.973429-12.1757-15.744485-18.02481-2.862633-3.581088-5.96382-4.894153-10.6156-4.894153-35.78292.238739-71.56584.358109-107.229483-.11937-8.5879-.11937-15.148103 1.432435-20.157712 9.07209-3.101186 4.774784-7.514413 8.71398-12.046916 13.966243h165.794196zm132.635357-135.365126h-43.41661c-1.431317 17.069852-2.98191 33.900966-4.413227 50.970819h52.243064c-1.431317-17.069853-2.862634-33.662227-4.413227-50.97082zm209.210805 318.95557c-1.908422-10.504524-3.578292-20.53157-5.486714-31.036095-28.864889 12.653177-57.133396 12.533808-85.879008 0-1.789146 10.743264-3.578292 20.77031-5.367438 31.036096h96.73316zM55.774925 458.849372h115.340278v-9.310829c0-8.475242 0-8.475242-8.230071-8.475242H70.565198c-16.57942 0-16.57942 0-15.148103 16.831114 0 .11937.119277.23874.35783.954957zM307.448129 328.13966c-9.065007 0-18.24929-.11937-27.314296 0-6.679478.11937-10.854152 3.819827-10.854152 9.310829.119276 5.491001 4.174674 9.07209 11.092705 9.07209 17.89146.119369 35.663643.119369 53.555103 0 6.679479 0 10.854153-3.819828 10.854153-9.31083-.119277-5.491001-4.174674-8.95272-11.092705-9.07209-8.826454-.119369-17.533631 0-26.240808 0zm126.432984 294.604173c3.339739-18.621658 6.321649-35.93025 9.422835-53.59695H406.80537c2.385528 21.128418 10.854152 38.43701 27.075743 53.59695zm101.742769-53.59695c3.101186 17.6667 6.202373 34.975292 9.422835 53.59695 16.22159-15.15994 24.690215-32.587901 27.075743-53.59695h-36.498578zm-211.71561-258.793294c-.715659-7.878393-1.073488-15.04057-2.027699-22.083376-.238553-1.313065-2.62408-3.342348-4.174674-3.461718-7.156584-.358109-14.313168-.358109-21.350476 0-1.550593.11937-4.055397 2.029283-4.29395 3.342349-.954211 7.162176-1.431317 14.563091-2.027699 22.202745h33.874498zM312.934843 90.236046c36.498578 19.218506 55.582802 49.657754 55.821355 90.720896.119277 31.036096-27.791401 62.072192-57.849054 66.011389-7.395137.954957-15.625208 0-22.781792-2.268023-23.258898-7.162176-41.74674-32.229792-42.581675-56.58119-.35783-12.1757 4.055398-22.202746 13.955339-29.364922 5.128885-3.700457 10.6156-7.042806 15.744485-10.743264 12.404745-8.83335 19.084224-20.88968 20.157711-36.168988.119277-2.029284.477106-3.939197.477106-5.96848.119276-7.162176 3.101186-12.533808 9.899941-15.518048 2.385528-.11937 4.771056-.11937 7.156584-.11937zm-37.691342 125.09934c1.908422-9.072089 7.514413-13.966242 14.074615-17.90544 10.734876-6.445958 15.267379-15.995526 15.505932-28.409964.119276-3.22298 2.266251-7.162176 4.771056-9.19146 3.578292-2.86487 7.991519-1.193695 10.6156 2.268023 8.110795 10.504525 15.983037 21.12842 23.85528 31.752314.834934 1.193696 1.550593 2.506761 2.385527 4.058566 13.95534-24.351398-7.514413-79.977632-33.158839-86.781699-1.550593 25.306355-13.955339 43.808643-35.544367 56.46182-2.62408 1.551806-5.009609 3.22298-7.395137 5.013524-5.725267 4.058566-7.872242 9.788307-7.156584 16.592374 1.073488 9.430199 4.890333 17.78607 12.046917 26.141943zm44.490097-27.574377c-8.230072 14.9212-8.707177 15.518048-22.54324 25.425725-5.128885 3.700458-5.248161 5.252262-.834935 9.668938 4.29395 4.297305 9.422836 7.162176 15.505932 5.84911 18.845672-4.177936 23.974557-13.130656 15.625209-28.290595-2.266252-4.177936-4.890333-7.997763-7.752966-12.653178z"/>
</svg>
