<svg xmlns="http://www.w3.org/2000/svg" viewBox="0 0 612 792">
  <path d="M1.623 505.642C12 493.825 22.14 482.007 32.755 470.428c3.459-3.7 5.367-7.52 4.89-12.653-.477-4.775-.239-9.55-.12-14.324.358-11.699 8.35-19.816 20.04-19.935 13.358-.12 26.598 0 39.957 0h7.037v-11.22c.239-17.787 10.973-28.65 28.746-28.65 41.985-.119 83.85-.119 125.836.12 5.13 0 7.992-1.074 7.395-6.804-.119-.955 0-2.03.239-2.984 1.67-7.282.12-12.057-6.322-17.428-14.67-11.937-10.496-35.573 7.038-43.45 3.578-1.553 5.128-3.224 5.367-7.282.239-6.924 1.073-13.847 1.908-20.77 1.074-10.505 8.469-17.667 18.846-17.906a502.892 502.892 0 0 1 26.837 0c10.377.358 17.772 7.4 18.965 17.905.835 7.282 1.193 14.683 2.266 21.964.358 2.03 2.147 4.536 3.937 5.372 9.542 4.536 15.506 11.579 16.579 22.322.954 10.863-3.34 19.218-12.285 25.426-1.67 1.193-2.625 3.82-3.102 6.088-.357 2.029.358 4.297.597 6.446 1.192 10.862 1.192 10.862 12.404 10.862h113.91c19.8 0 30.176 10.385 30.176 30.081v47.151c49.262 10.505 78.007 40.467 86.476 89.647 10.496 1.552 14.074 3.94 13.836 9.669-.239 5.61-3.817 7.998-13.717 8.833-.716 4.059-1.312 8.356-2.147 12.653-5.129 23.397-16.818 42.735-35.425 57.775-2.863 2.268-3.817 4.417-3.22 7.998 2.027 10.504 3.936 21.128 5.605 31.633.597 3.581 2.028 4.536 5.368 4.536 12.882-.12 25.883.12 38.765-.12 5.606-.119 10.138 1.075 13.24 5.97v11.936H1.98c-.358-65.176-.358-130.352-.358-195.647zm372.381 177.98c15.983 0 31.37.12 46.876-.238 1.073 0 2.624-2.507 2.982-4.059 2.028-10.385 3.697-20.77 5.725-31.036.835-3.94-.12-6.446-3.34-9.072-17.175-13.728-28.387-31.514-33.993-52.642-1.55-5.73-2.267-11.579-3.46-17.309-9.9-1.074-13.597-3.342-13.597-8.833.239-9.192 7.515-9.31 13.478-9.55 10.377-54.432 42.701-84.394 97.21-91.079v-46.076c0-9.789-2.862-12.773-12.881-12.773H356.113c-2.028 0-4.175.239-6.68.478 8.23 94.302 16.46 187.887 24.571 282.19zM122.331 423.397h7.037c12.882 0 25.883-.12 38.765 0 12.405.119 20.397 8.117 20.635 20.65.12 5.372-.358 10.744.12 16.115.238 2.746 1.311 5.85 2.981 7.879 8.827 10.504 17.892 20.89 27.195 30.917 4.056 4.416 5.606 9.072 5.606 15.04-.119 54.075-.119 108.268-.119 162.343v6.923h15.387c8.23-94.063 16.34-187.888 24.57-282.309H132.47c-5.487.12-9.304 2.746-10.02 8.237-.596 4.536-.119 9.072-.119 14.205zm84.329 94.54H19.753v55.507H206.66v-55.507zm-.12 165.447v-55.746H19.873v55.746H206.54zm364.748-132.62c-2.028-33.304-34.114-74.367-85.283-72.815-39.838 1.193-79.557 37.72-78.365 72.815h163.648zm-313.697 132.5h98.88c-2.028-23.874-4.056-47.27-6.203-70.905h-86.475c-2.147 23.754-4.175 47.15-6.202 70.905zm90.411-88.93c.239-.836.477-1.194.477-1.552-1.908-22.203-3.936-44.405-5.725-66.489-.358-3.939-2.863-3.58-5.367-3.58-20.277 0-40.554.118-60.831-.12-4.175 0-5.368 1.432-5.606 5.371-1.193 16.593-2.863 33.304-4.294 49.897-.478 5.371-.716 10.862-1.193 16.473h82.54zm141.581-25.545c-7.991 0-15.864.12-23.855-.12-3.46-.119-4.771 1.075-5.368 4.536-3.22 18.98-6.56 37.96-10.138 56.82-.596 3.104.358 4.656 3.101 5.969 23.975 10.982 47.83 11.101 71.924.12 2.743-1.194 3.936-2.627 3.34-5.85-3.46-18.86-6.918-37.84-10.139-56.82-.596-3.939-2.147-4.775-5.844-4.655-7.634.12-15.268 0-23.02 0zm-148.737-63.863a25427.268 25427.268 0 0 1-6.203-71.264H279.18c-2.028 23.874-4.056 47.39-6.203 71.264h67.869zM19.634 609.256h186.787v-17.31H19.634v17.31zm176.41-109.582c-5.845-6.685-10.973-12.176-15.745-18.025-2.862-3.581-5.963-4.894-10.615-4.894-35.783.239-71.566.358-107.23-.12-8.587-.119-15.148 1.433-20.157 9.073-3.101 4.774-7.515 8.714-12.047 13.966h165.794zm132.635-135.365h-43.416c-1.432 17.07-2.982 33.9-4.414 50.97h52.244a8881.438 8881.438 0 0 0-4.414-50.97zM537.89 683.264c-1.908-10.504-3.578-20.531-5.487-31.036-28.864 12.653-57.133 12.534-85.879 0-1.789 10.743-3.578 20.77-5.367 31.036h96.733zM55.775 458.85h115.34v-9.31c0-8.476 0-8.476-8.23-8.476h-92.32c-16.58 0-16.58 0-15.148 16.831 0 .12.12.24.358.955zm251.673-130.71c-9.065 0-18.25-.119-27.314 0-6.68.12-10.854 3.82-10.854 9.311.119 5.491 4.174 9.073 11.092 9.073 17.892.119 35.664.119 53.555 0 6.68 0 10.855-3.82 10.855-9.311-.12-5.491-4.175-8.953-11.093-9.072-8.827-.12-17.534 0-26.24 0zm126.433 294.605c3.34-18.622 6.322-35.93 9.423-53.597h-36.499c2.386 21.128 10.855 38.437 27.076 53.597zm101.743-53.597c3.101 17.667 6.202 34.975 9.423 53.597 16.221-15.16 24.69-32.588 27.075-53.597h-36.498zM323.908 310.354c-.715-7.879-1.073-15.041-2.027-22.084-.239-1.313-2.625-3.342-4.175-3.462a212.283 212.283 0 0 0-21.35 0c-1.551.12-4.056 2.03-4.295 3.343-.954 7.162-1.43 14.563-2.027 22.203h33.874zM312.935 90.236c36.498 19.219 55.583 49.658 55.821 90.72.12 31.037-27.791 62.073-57.849 66.012-7.395.955-15.625 0-22.782-2.268-23.259-7.162-41.746-32.23-42.581-56.58-.358-12.177 4.055-22.204 13.955-29.366 5.129-3.7 10.616-7.043 15.745-10.743 12.404-8.833 19.084-20.89 20.157-36.17.12-2.028.477-3.938.477-5.968.12-7.162 3.102-12.533 9.9-15.518 2.386-.119 4.771-.119 7.157-.119zm-37.691 125.1c1.908-9.073 7.514-13.967 14.074-17.906 10.735-6.446 15.267-15.996 15.506-28.41.12-3.223 2.266-7.162 4.771-9.191 3.578-2.865 7.992-1.194 10.616 2.268 8.11 10.504 15.983 21.128 23.855 31.752.835 1.194 1.55 2.507 2.386 4.058 13.955-24.351-7.515-79.977-33.16-86.781-1.55 25.306-13.955 43.808-35.544 56.462-2.624 1.551-5.01 3.223-7.395 5.013-5.725 4.059-7.872 9.788-7.156 16.592 1.073 9.43 4.89 17.787 12.047 26.142zm44.49-27.575c-8.23 14.921-8.708 15.518-22.544 25.426-5.129 3.7-5.248 5.252-.835 9.669 4.294 4.297 9.423 7.162 15.506 5.849 18.846-4.178 23.975-13.13 15.626-28.29-2.267-4.179-4.89-7.999-7.753-12.654z"/>
</svg>
