<svg xmlns="http://www.w3.org/2000/svg" viewBox="0 0 612 612">
    <path fill="#d6d373" d="M339.1 612h-55c-.2-2.8-.5-5.6-.6-8.4-.4-10.2-.8-20.5-1.2-30.7 1.3 6.3 2.6 12.5 3.9 18.8.4 0 .9-.1 1.3-.1 1.1-7.3 2.2-14.5 3.4-21.8 1.8 1.3 3.8 2.6 5.5 4 5.6 4.6 11.8 7.5 19.2 5.8 6.1-1.4 11.3-4.5 15.7-9.1 1.5-1.6 4.1-2.2 6.1-3.3.3 1.9.7 3.9.7 5.8.4 13 .7 26 1 39z"/>
    <path fill="#dceaf5" d="M282.2 572.9c.4 10.2.8 20.5 1.2 30.7.1 2.8.4 5.6.6 8.4h-11c.3-17.2.6-34.4 1-51.6.2-9.7.6-19.5 1-29.2.1-1.9-.5-4.4 2.9-3.7.2.3.3.6.3.9.2 2.2.4 4.3.6 6.5.2 2.4.4 4.9.6 7.3 1 10.2 1.9 20.4 2.8 30.7zm56.9 39.1c-.3-13-.6-26-1-39-.1-1.9-.5-3.9-.7-5.8v-15.5l-.6-36.3c.1-1.8.3-3.6.4-5.4.3 1.7.9 3.5.9 5.2.1 10.2 0 20.4.7 30.7.3-1.8.6-3.5.8-5.3h1.3c2.1 23.8 4.2 47.6 6.3 71.5-2.8-.1-5.5-.1-8.1-.1z"/>
    <path fill="#dd9a05" d="M282.2 572.9c-.9-10.2-1.8-20.5-2.7-30.7-.5-10.8-.9-21.6-1.4-32.4-.4-5.6-.7-11.2-1.1-16.8 0-.5-.1-1-.1-1.4-.1-.6-.1-1.1-.2-1.7-.3-3.2 1.3-4.6 4.3-4.8 12.2-.7 24.4-1.9 36.6-1.7 6.4.1 12.8 2.7 19.1 4.2l-.6 2.1-.3 1.2c-2.2.7-4.3 1.9-6.6 2.1-8.9.5-17.9 1.2-26.8.9-4.6-.1-6 1.8-6.2 5.5-.8 9.9-1.4 19.8-2.1 29.7-1.1 13.6-2.2 27.2-3.2 40.8-1.1 7.3-2.2 14.5-3.4 21.8-.4 0-.9.1-1.3.1-1.4-6.4-2.7-12.7-4-18.9z"/>
    <path fill="#ecd223" d="M294.1 529l2.1-29.7c.3-3.7 1.7-5.6 6.2-5.5 8.9.2 17.9-.4 26.8-.9 2.2-.1 4.4-1.4 6.6-2.1.2.4.4.7.6 1.1 0 1.8.1 3.5.1 5.3.1 3.9.2 7.9.3 11.9.1.3.2.7.4 1-.1 1.8-.3 3.6-.4 5.4-1.5.8-3.6 1.3-4.3 2.6-2 3.2-2.9 7.1-5 10.3-8.1 11.9-19.4 17.3-30.2 2.9-.9-1.1-2.2-1.6-3.2-2.3z"/>
    <path fill="#3e1f1f" d="M308.4 11.4c1.1-1.4 2.2-2.9 3.8-5 6.1 9.5 12.1 18.5 17.7 27.6 18.5 30 34.4 61.2 43.7 95.4 7.3 26.9 8.7 54.1 6.2 81.7-4.3 46.9-8.4 93.9-12.6 140.8-.5 5.8-.8 11.6-1.7 17.4-1 7-1.3 13.5 5.3 18.2-.3.2-.6.5-.9.7-2.9-3.1-5.9-6.1-8.8-9.2.7-1.3 1.9-2.5 2.1-3.8.6-4.3.8-8.6 1.2-12.9 2.3-25 4.5-50 6.8-75 1.5-16.4 2.8-32.8 4.3-49.2 2.1-23.5 4.9-46.9 2.9-70.6-2.7-32.2-12.5-62.1-26.9-90.7-8.8-15.6-17.5-31.3-26.3-46.9-4.2-6.7-8.4-13.4-12.8-20.4-1.4 1.2-2.2 1.9-3.1 2.6-.3-.2-.6-.5-.9-.7zm-63.6 372.4c4.8-3.9 4.7-9.1 4.3-14.7-3.7-53.7-7.3-107.3-10.8-161-2.5-37.2-.6-73.9 14.5-108.9 7.6-17.8 16.7-34.7 27.9-50.5.3.3.6.5.9.8-4.2 7.1-8.4 14.2-12.7 21.3-19.1 31.6-29.7 65.9-29.5 102.7.1 28.1 2.4 56.2 3.9 84.2.5 9.8 1.5 19.5 2.3 29.3.5 9.1.9 18.3 1.4 27.4.7 11.3 1.7 22.5 2.5 33.8.5 8.6 1.1 17.2 1.6 25.8.3.5.6.9.9 1.4 1-.5 1.9-.9 2.9-1.4-3.1 3.5-6.3 7.1-9.4 10.6-.1-.3-.4-.6-.7-.8zm-13.2 145.7c-15.3 24.9-29.6 50.4-40.6 77.6-.6 0-1.1 0-1.7.1-1.1-8.2-2.9-16.3-3.3-24.5-1.8-34.7 3.7-68.7 12.6-102.1 8-29.9 18.7-58.6 36.3-84.3 2.6-3.8 5.7-7.4 8.6-11 .3.3.5.6.8.9-1.4 1.9-2.8 3.7-4.1 5.6-17.8 23.8-28.7 50.9-37 79.1-2.2 7.2-3.4 14.7-5.1 22.1-.3.9-.6 1.7-1 2.6-.3 1.3-.7 2.6-1 3.9-.3 1.4-.7 2.7-1 4.1-1.3 7.7-2.6 15.5-3.9 23.2-.3.9-.9 1.8-1 2.8-1 10.9-2.4 21.8-2.9 32.8-.7 13.4 0 26.7 3.3 40.9 4.8-10.3 9.2-19.7 13.5-29.2 1.7-3.3 3.5-6.6 5.2-9.9 3.5-6.3 6.9-12.6 10.4-18.9l8.1-12.9c1-1.2 1.9-2.4 2.9-3.7.3.3.6.5.9.8zm149.7-128.7c15 19.9 25.6 42 34.3 65.1 11.5 30.5 20.1 61.8 20.4 94.7.1 9.7-2.3 19.4-3.8 29-.3 2.2-1.8 4.2-3.3 7.6-12.5-31.5-26.4-60.8-46.4-86.7.3-.3.6-.5.9-.8 1.3 1.5 2.7 2.9 3.8 4.6 6.9 10.5 13.7 21.1 20.6 31.7 2.5 5 5 10 7.4 15.1 4.5 10.4 9.1 20.7 13.6 31.1.5-.1 1.1-.2 1.6-.4 8.5-29.6 2.8-58.7-4.5-87.7l-.6-2.1c-.2-.6-.3-1.2-.5-1.9-4.3-13.1-8-26.3-13-39.1-7.7-19.8-17-38.9-29.7-56.1-.6-1.1-1.1-2.2-1.7-3.2.4-.4.6-.7.9-.9z"/>
    <path fill="#3e1f1f" d="M262.3 487.3c-10.3 14.1-20.5 28.1-30.8 42.2-.3-.3-.6-.5-.9-.8 1.9-3.2 3.8-6.4 5.6-9.6 1.3-1.7 2.5-3.5 3.8-5.2 7.1-9.2 14.3-18.3 21.4-27.5.4.3.7.6.9.9zm73.8 2.3l.6-2.1c3.7-2.8 7.4-5.5 11.2-8.4-3.9-3.5-6.9-6.2-9.8-8.9 6.1 4.2 12.1 8.3 18.2 12.5-.3.3-.5.6-.8.9-1.9-1.3-3.7-2.7-5.5-3.9-4.4 3.5-8.8 6.9-13.1 10.3-.2-.3-.5-.4-.8-.4zm-55.4-441c6.6-9.1 13.2-18.2 19.8-27.4.3.3.6.6.8.9-1.5 2.2-3 4.4-4.5 6.7-4 5.6-8 11.2-12 16.7-1.1 1.3-2.1 2.6-3.2 3.9-.3-.2-.6-.5-.9-.8zm95.9 454.9c-5.1-5-10.1-10-15.2-15.1.3-.3.6-.5.9-.8 5 5 10.1 10 15.1 15-.3.4-.5.7-.8.9zm-98.5 6.2c.5 10.8.9 21.6 1.4 32.4-.2-2.4-.4-4.9-.6-7.3-.2-2.2-.4-4.3-.6-6.5 0-.3-.1-.6-.3-.9-.1-1-.2-1.9-.4-2.9.1-2.6.1-5.1.2-7.7.1-2.3.2-4.7.3-7.1z"/>
    <path fill="#d6d373" d="M278.1 509.7c-.1 2.4-.2 4.8-.3 7.1-.3 0-.5-.1-.7-.2 0-7.9 0-15.8-.1-23.8.4 5.7.8 11.3 1.1 16.9z"/>
    <path fill="#3e1f1f" d="M276.7 489.8c.1.6.1 1.1.2 1.7-2.7-1.4-5.4-2.9-8.1-4.3.2-.3.5-.5.7-.8 2.5 1.1 4.8 2.3 7.2 3.4zm26.8-472.4l4.8-6c.3.3.6.5.9.8-.8 1.4-1.7 2.8-2.5 4.2-.8.6-1.6 1.3-2.4 1.9-.2-.3-.5-.6-.8-.9zm79 493.1c-1.7-2-3.4-4-5.1-6.1.3-.2.6-.5 1-.7l5.1 6c-.4.3-.7.5-1 .8zm-5.9-116.1c1.6 2.1 3.2 4.2 4.7 6.3l-.8.8c-1.6-2.1-3.1-4.2-4.7-6.3l.8-.8z"/>
    <path fill="#e2d34e" d="M336.7 509c-.1-4-.2-7.9-.3-11.9.2 4 .3 7.9.3 11.9z"/>
    <path fill="#3e1f1f" d="M371.6 388.4c1.4 1.7 2.8 3.4 4.3 5.1l-.9.6c-1.4-1.6-2.8-3.3-4.1-4.9.1-.2.4-.5.7-.8zm-11 99.4l-5.1-4.2c.3-.3.5-.6.8-.9 1.7 1.4 3.3 2.7 5 4.1-.2.3-.5.6-.7 1zm-92.7-1.7c-1.2-.3-2.4-.7-3.7-1-.3-.2-.6-.5-.8-.7 1.2-1.2 2.4-2.3 3.6-3.5.5 1.5 1.1 3 1.6 4.5-.2.3-.4.5-.7.7zm32.6-464.8l3-3.9c.3.3.6.6.9.8-1 1.3-2.1 2.6-3.1 3.9-.2-.3-.5-.5-.8-.8z"/>
    <path fill="#dceaf5" d="M277.1 516.7c.2.1.5.2.7.2-.1 2.6-.1 5.1-.2 7.7-.1-2.6-.3-5.3-.5-7.9z"/>
    <path fill="#e2d34e" d="M336.1 489.6c.3 0 .5.1.8.3-.2.7-.4 1.3-.5 2-.2-.4-.4-.7-.6-1.1l.3-1.2z"/>
    <path fill="#3e1f1f" d="M243.5 385.2c.5-.5.9-1 1.4-1.4.3.3.6.5.8.8-.5.5-1 1-1.4 1.6-.3-.4-.6-.7-.8-1zm117.9 103.3c-.3-.2-.5-.5-.8-.7.2-.3.4-.7.6-1 .4.3.7.6 1.1.9-.3.3-.6.5-.9.8zm-92.6-1.3c-.3-.4-.6-.7-1-1.1.3-.2.5-.5.8-.7l.9.9c-.2.4-.4.6-.7.9zm-5.5-1c-.3.4-.6.7-.9 1.1-.3-.3-.5-.6-.8-.9.3-.3.6-.7.9-1 .3.3.5.6.8.8zm114.1 18.3c-.3-.3-.5-.6-.8-.9.3-.3.5-.6.8-.8.3.4.6.7.9 1.1-.3.1-.6.3-.9.6z"/>
    <path fill="#3e1f1f" d="M264.2 485.2c-.3.4-.6.7-1 1.1l-.8-.8c.3-.3.6-.7.9-1 .4.2.7.4.9.7zm111.6-91.7c.2.3.5.6.7.9l-.8.8c-.3-.4-.6-.7-.9-1.1.4-.2.7-.4 1-.6zm-5-6c.3.3.5.6.8 1l-.8.8c-.3-.4-.6-.7-.9-1.1.3-.3.6-.5.9-.7z"/>
    <path fill="#e2d34e" d="M294.1 529c1 .7 2.3 1.2 3 2.2 10.9 14.4 22.1 8.9 30.2-2.9 2.1-3.1 3.1-7 5-10.3.8-1.3 2.8-1.7 4.3-2.6l.6 36.3v15.5c-2.1 1.1-4.6 1.7-6.1 3.3-4.4 4.6-9.5 7.7-15.7 9.1-7.5 1.7-13.6-1.3-19.2-5.8-1.8-1.4-3.7-2.7-5.5-4 1.2-13.6 2.3-27.2 3.4-40.8z"/>
    <path fill="#d6d373" d="M278.3 528.4c.2 2.2.4 4.3.6 6.5-.2-2.2-.4-4.4-.6-6.5zm59 27.9v-4.6 4.6z"/>
    <path fill="#c00" d="M269.6 486.4l-.9-.9c-.5-1.5-1.1-3-1.6-4.5l1-1 1-1 1-1 1-1c.7-.3 1.3-.7 2-1l1-1c.9-.9 1.8-1.9 2.7-2.8.4-2.2.7-4.5 1.2-7.2h7.8c6.3-.1 11-3.6 15.1-7.7 8.6-8.4 14.3-18.7 18.4-29.9 4.1-11.2 7.7-22.6 10.9-34 2.4-8.7 4.2-17.7 5.9-26.6 2-10.7 3.7-21.5 5.1-32.3 1.1-8.4 1.5-16.8 2.2-25.2.3-4.1.8-8.2 1-12.4 1-15.2 2.3-30.4 2.7-45.6.3-11.5-.6-23.1-.8-34.6-.2-9.5.2-19-.2-28.5-.6-11.2-1.7-22.4-2.8-33.6-1.1-10.7-2.2-21.4-3.6-32-1.2-9.2-2.8-18.3-4.4-27.4-2.1-11.9-4.2-23.7-6.6-35.5-1.8-8.6-4.1-17.1-6.1-25.6-.6-2.3-.5-4.5 2.9-4.2 8.8 15.6 17.5 31.3 26.3 46.9-.8 1.5-2.4 3.1-2.3 4.6.5 6.6 1.5 13.1 2.4 19.6 1.1 8.7 2.5 17.3 3.4 26 1 9.7 1.4 19.5 2.1 29.2 1 13.7 2.1 27.4 2.9 41.1.4 7.9 0 15.8.1 23.7.3 17.5.9 35.1.8 52.6-.1 12.2-1.1 24.5-1.9 36.7-.6 9.1-1.2 18.2-2.1 27.2-1.1 11-2.6 22-4 32.9-1.3-.5-2.6-1-3.9-1.4l-7.8-5.7c-.3.3-.5.7-.8 1l.9 1.5c-.4 1.7-1.2 3.3-1.2 5-.1 6.1-.1 12.1-.1 18.2-.3 4.7-.7 9.3-1 14l-.9 67.2c3 2.7 5.9 5.4 9.8 8.9-3.8 2.8-7.5 5.6-11.2 8.4-6.4-1.5-12.7-4.1-19.1-4.2-12.2-.2-24.4 1.1-36.6 1.7-2.9.2-4.6 1.6-4.3 4.8-2.7-1.1-5-2.3-7.4-3.4z"/>
    <path fill="#d30000" d="M325.2 29.9c-3.4-.2-3.4 1.9-2.9 4.2 2 8.5 4.4 17 6.1 25.6 2.4 11.8 4.5 23.7 6.6 35.5 1.6 9.1 3.2 18.2 4.4 27.4 1.4 10.6 2.6 21.3 3.6 32 1.1 11.2 2.3 22.4 2.8 33.6.5 9.5.1 19 .2 28.5.2 11.5 1.1 23.1.8 34.6-.4 15.2-1.7 30.4-2.7 45.6-.3 4.1-.7 8.2-1 12.4-.7 8.4-1.1 16.9-2.2 25.2-1.4 10.8-3.1 21.6-5.1 32.3-1.6 8.9-3.4 17.9-5.9 26.6-3.2 11.5-6.8 22.8-10.9 34-4.1 11.1-9.8 21.5-18.4 29.9-4.1 4.1-8.8 7.6-15.1 7.7h-7.8c-.4 2.7-.8 5-1.2 7.2-.9.9-1.8 1.9-2.7 2.8l-1 1c-.7.3-1.3.7-2 1l-1 1-1 1-1 1-1 1c-1.2 1.2-2.4 2.3-3.6 3.5-.3.3-.6.7-.9 1-.3.3-.6.7-.9 1-7.1 9.2-14.3 18.3-21.4 27.5-1.3 1.7-2.6 3.5-3.8 5.2-.6-1.7-2-3.5-1.7-4.9 6.4-26.2 16.4-50.8 33.8-71.9 2.4-2.9 4.6-3.3 8.2-1.8 3.3 1.3 7.6 2.2 10.8 1.2 6.7-2.1 12-6.7 16.2-12.5 14.3-20.5 20.7-44.1 25.4-68 3.4-17.6 5.3-35.6 7.1-53.5 1.9-18.4 3.5-37 3.9-55.5.6-31.4.3-62.7-3.7-94-1.9-14.3-2-28.8-4.4-42.9-3.2-19.5-7.3-39-12-58.2-3.4-13.8-8.6-27.2-12.9-40.7.8-1.4 1.7-2.8 2.5-4.2.8-.7 1.7-1.5 3.1-2.6 4.3 6.8 8.5 13.5 12.7 20.2z"/>
    <path fill="#c30000" d="M352.9 370.4c1.3-11 2.9-21.9 4-32.9.9-9 1.6-18.1 2.1-27.2.8-12.2 1.8-24.5 1.9-36.7.1-17.5-.5-35.1-.8-52.6-.1-7.9.3-15.8-.1-23.7-.7-13.7-1.9-27.4-2.9-41.1-.7-9.7-1.2-19.5-2.1-29.2-.9-8.7-2.3-17.3-3.4-26-.9-6.5-1.9-13.1-2.4-19.6-.1-1.5 1.5-3 2.3-4.6 14.4 28.6 24.2 58.6 26.9 90.7 2 23.7-.8 47.1-2.9 70.6-1.5 16.4-2.8 32.8-4.3 49.2-2.2 25-4.5 50-6.8 75-.4 4.3-.6 8.6-1.2 12.9-.2 1.3-1.4 2.5-2.1 3.8l-5-5c-1.1-1.2-2.1-2.4-3.2-3.6z"/>
    <path fill="#ea0000" d="M340.1 389c0-6.1-.1-12.1.1-18.2 0-1.7.8-3.3 1.2-5 2.6 1.1 5.1 2.1 7.7 3.2 2.3 1.7 4.7 3.3 7 5l5 5c2.9 3.1 5.9 6.1 8.8 9.2.3.4.6.7.9 1.1 1.4 1.6 2.8 3.3 4.1 4.9.3.4.6.7.9 1.1 1.6 2.1 3.1 4.2 4.7 6.3.6 1.1 1.1 2.2 1.7 3.2-1.3-.1-2.9.4-3.8-.3-11.4-8.7-24.3-13.5-38.3-15.5zm-94.4-102c-.8-9.8-1.8-19.5-2.3-29.3-1.5-28.1-3.8-56.1-3.9-84.2-.2-36.9 10.4-71.2 29.5-102.7l3.2 3.2c-.3 1-.7 2.1-1 3.1l-1.8 2.1-2.1 3c-1 1-2.3 1.8-2.9 3-7.5 14.5-12 29.8-11.6 46.4.1 3.9-.1 8.2 4.4 9.6 4.4 1.4 6.3-2.8 8.8-5.2.3-.3.5-.9.8-1.3 7.3-10.2 11.2-21.9 13.5-34 1.3-7.1 1.2-14.4 1.3-21.7 0-3.8-2.5-6-6.3-6.4 3.2-3 5.3-1.5 6.6 1.9 1.5 4 2.7 8.1 4.3 12 4.3 10.4 9.3 20.5 13 31.1 2.7 7.9 4.2 16.3 5.6 24.6 2.1 12.7 4 25.4 5.5 38.2.9 7.9 1.2 15.9 1.2 23.8 0 17.6.2 35.1-.7 52.6-.6 11.7-2.6 23.3-4.5 34.8-2.6 14.9-6.4 29.5-15.8 41.9-5.6 7.4-13.8 8.1-19.9 1-4.6-5.3-8.4-11.5-11.2-17.9-3.7-8.3-5.8-17.2-9-25.8-1-1.7-3.3-2.6-4.7-3.8zm8-137.7c-.2.6-.5 1-.6 1.5-1.4 17.1-3.4 34.1-3.8 51.2-.3 10.5 1.9 21 2.7 31.6 1.2 15.8 4.4 31.1 9.4 46.1 2.4 7.3 5.9 13.7 11.7 18.7 3.9 3.4 9 3.6 12-.1 2-2.4 3.7-5.1 5-8 8.2-18.2 10.4-37.6 10.9-57.2.5-19.9 1.2-39.9-2.9-59.6-3-14.2-6-28.4-9.6-42.5-1-4-3.9-7.6-6.2-11.2-.8-1.2-2.6-1.9-3.9-2.8-.8 1.2-1.8 2.3-2.4 3.5-2.6 5.6-4.8 11.4-7.8 16.7-3.2 5.6-6.4 11.6-14.5 12.1z"/>
    <path fill="#e40000" d="M245.7 287c1.5 1.2 3.7 2.1 4.3 3.6 3.2 8.5 5.3 17.5 9 25.8 2.8 6.4 6.7 12.6 11.2 17.9 6.1 7.1 14.3 6.4 19.9-1 9.5-12.3 13.3-26.9 15.8-41.9 2-11.5 3.9-23.2 4.5-34.8.9-17.5.7-35.1.7-52.6 0-7.9-.3-15.9-1.2-23.8-1.5-12.8-3.3-25.5-5.5-38.2-1.4-8.3-2.9-16.7-5.6-24.6-3.7-10.6-8.7-20.7-13-31.1-1.6-3.9-2.7-8-4.3-12-1.3-3.4-3.4-4.8-6.6-1.9-1 .5-1.9 1-2.9 1.5l-3.2-3.2c4.2-7.1 8.4-14.2 12.7-21.3 1.1-1.3 2.1-2.6 3.2-3.9 1.1 2 2.1 4.2 3.4 6.1 7.7 10.9 11.9 23.3 15.8 35.8 6.7 21.5 11 43.6 13.1 66 1.5 15.8 2.8 31.6 3.9 47.5.5 6.7 0 13.5.1 20.2.1 3.8 1 7.6.9 11.4-.5 12.9-1.1 25.8-1.9 38.7-.5 8.3-.7 16.6-2.3 24.7-2.8 14.9-5.9 29.8-9.9 44.5-3.2 11.4-7.2 22.8-17.2 30.7-5.8 4.6-14.4 5-20.6.5-1.9-1.4-4.7-1.8-7.1-2.6-.3-.4-.6-.7-.9-1.1-.5-3-.6-6.1-1.6-8.8-1.2-3.2-3.5-6-4.9-9.2-1.4-3.1-3.4-3.3-5.9-1.7-.8-11.3-1.8-22.5-2.5-33.8-.6-9.1-1-18.3-1.4-27.4z"/>
    <path fill="#f30000" d="M244.2 386.1c.5-.5 1-1 1.4-1.6 3.1-3.5 6.3-7.1 9.4-10.6.7-.3 1.3-.7 2-1l3-3c.9-.2 1.8-.3 2.8-.5.7 7.2 1.5 14.3 2.2 21.5-3 2.8-5.9 5.7-9.1 8.3-11.1 9.4-18.4 21.9-25 34.4-11.4 21.4-19.6 44.3-24.2 68.2-.4 2-2 3.7-3 5.5-.3-.2-.6-.3-1-.5v-18.3c-2.3 2.1-3.6 3.2-4.8 4.3 1.7-7.4 2.9-14.9 5.1-22.1 8.4-28.2 19.3-55.3 37-79.1 1.5-1.7 2.9-3.6 4.2-5.5z"/>
    <path fill="#de0000" d="M249.6 348.2c2.6-1.6 4.5-1.4 5.9 1.7 1.5 3.2 3.7 6 4.9 9.2 1 2.8 1.1 5.9 1.6 8.8-.7.7-1.3 1.4-2 2.1l-3 3c-.7.3-1.3.7-2 1-1 .5-1.9.9-2.9 1.4-.3-.5-.6-.9-.9-1.4-.5-8.6-1-17.2-1.6-25.8z"/>
    <path fill="#d70000" d="M251.3 374c.3.5.6.9.9 1.4-.3-.5-.6-.9-.9-1.4z"/>
    <path fill="#de0000" d="M265.1 391c-.7-7.2-1.5-14.3-2.2-21.5-.1-.2 0-.4.1-.5 2.4.8 5.1 1.2 7.1 2.6 6.2 4.5 14.8 4.1 20.6-.5 10.1-7.9 14.1-19.3 17.2-30.7 4.1-14.6 7.1-29.5 9.9-44.5 1.5-8.1 1.8-16.4 2.3-24.7.8-12.9 1.5-25.8 1.9-38.7.1-3.8-.8-7.6-.9-11.4-.2-6.7.3-13.5-.1-20.2-1.1-15.8-2.4-31.7-3.9-47.5-2.1-22.4-6.4-44.5-13.1-66-3.9-12.5-8.1-24.9-15.8-35.8-1.3-1.9-2.3-4-3.4-6.1 4-5.6 8-11.2 12-16.7.5.4 1.3.7 1.5 1.2 4.7 13.1 9.8 26 13.8 39.3 3.7 12.5 6.3 25.3 8.9 38.1 1.9 9.4 3 18.9 4.1 28.4 2.1 17.6 4.4 35.1 5.7 52.7 1.1 13.7 1 27.6 1.1 41.4 0 8.7-.9 17.4-.9 26.1 0 17.4-1.6 34.7-3.8 52-2.4 18.8-5.2 37.3-11 55.4-1.8 5.7-3.2 11.5-5.4 17-4.2 10.5-9.1 20.8-18.7 27.6-4.7 3.4-9.9 5.5-15.8 2.6-5.2-2.6-5.6-2.3-6.8 3.3-.3 1.4-.1 2.9.1 4.3.7 5.4.7 10.3-3.2 15-5.6 6.8-11.3 13.6-15.5 21.2-5.2 9.4-9.8 19.2-13.2 29.4-4.6 13.9-8 28.3-11.5 42.6-.4 1.7 1 3.8 1.5 5.8l-8.1 12.9c-3-.2-4-2.1-3.6-4.8 1.5-9.3 2.7-18.6 4.7-27.8 3.8-17.7 8.5-35.2 16.8-51.3 5.7-11 11.2-22.6 19.2-31.8 7.6-8.7 13.7-16.5 10.2-28.5-.5-3.3-1.2-6.6-1.8-9.9z"/>
    <path fill="#d70000" d="M227.8 532.3c-.5-1.9-1.9-4.1-1.5-5.8 3.6-14.3 6.9-28.7 11.5-42.6 3.4-10.2 8-20 13.2-29.4 4.2-7.6 10-14.5 15.5-21.2 3.8-4.7 3.8-9.6 3.2-15-.2-1.4-.4-3-.1-4.3 1.2-5.6 1.6-5.9 6.8-3.3 6 3 11.1.8 15.8-2.6 9.6-6.8 14.5-17.1 18.7-27.6 2.2-5.5 3.6-11.3 5.4-17 5.8-18.1 8.5-36.6 11-55.4 2.2-17.3 3.8-34.6 3.8-52 0-8.7.9-17.4.9-26.1-.1-13.8 0-27.6-1.1-41.4-1.4-17.6-3.6-35.2-5.7-52.7-1.1-9.5-2.3-19.1-4.1-28.4-2.5-12.8-5.2-25.6-8.9-38.1-3.9-13.3-9.1-26.2-13.8-39.3-.2-.5-1-.8-1.5-1.2 1.5-2.2 3-4.4 4.5-6.7 1-1.3 2.1-2.6 3.1-3.9.8-.6 1.6-1.3 2.4-1.9 4.4 13.6 9.5 26.9 12.9 40.7 4.8 19.2 8.8 38.7 12 58.2 2.4 14.2 2.5 28.7 4.4 42.9 4.1 31.2 4.4 62.6 3.7 94-.4 18.5-2 37-3.9 55.5-1.8 17.9-3.7 35.9-7.1 53.5-4.6 24-11.1 47.5-25.4 68-4.1 5.9-9.4 10.5-16.2 12.5-3.2 1-7.5.1-10.8-1.2-3.6-1.5-5.8-1.1-8.2 1.8-17.3 21.1-27.3 45.7-33.7 71.9-.3 1.4 1.1 3.3 1.7 4.9-1.9 3.2-3.8 6.4-5.6 9.6-1 1.2-2 2.4-2.9 3.6z"/>
    <path fill="#e40000" d="M267.1 401c3.4 12-2.6 19.7-10.2 28.5-8 9.2-13.6 20.8-19.2 31.8-8.3 16.2-13 33.7-16.8 51.3-2 9.2-3.2 18.5-4.7 27.8-.4 2.7.6 4.6 3.6 4.8-3.5 6.3-6.9 12.6-10.4 18.9-1.1-2.1-3.1-4.2-3-6.2.2-6.4 1.1-12.8 1.7-19.2 1.9-18.6 5.5-36.8 10.8-54.8 7-24 17.2-46.2 32.5-66 4.5-6.1 10.3-11.3 15.7-16.9z"/>
    <path fill="#ea0000" d="M267.1 401c-5.3 5.6-11.1 10.8-15.8 16.9-15.2 19.8-25.5 42-32.5 66-5.2 18-8.9 36.2-10.8 54.8-.6 6.4-1.6 12.8-1.7 19.2-.1 2.1 2 4.2 3 6.2-1.7 3.3-3.5 6.6-5.2 9.9-3.3.2-3.2-2.1-3.1-4.3 1-15.1 2-30.2 2.8-45.3.1-1.9-1-3.8-1.5-5.8-.2-.6-.4-1.1-.6-1.7.2-1.9.5-3.8.7-5.7.4-1.3.9-2.6 1.3-3.8 1-1.8 2.7-3.6 3.1-5.5 4.7-24 12.8-46.8 24.2-68.2 6.6-12.4 13.8-25 25-34.4 3.1-2.6 6-5.6 9.1-8.3.6 3.3 1.3 6.6 2 10z"/>
    <path fill="#f30000" d="M202.3 518.7c.5 1.9 1.6 3.9 1.5 5.8-.8 15.1-1.9 30.2-2.8 45.3-.1 2.2-.3 4.5 3.1 4.3-4.4 9.4-8.7 18.9-13.5 29.2-3.3-14.1-4-27.5-3.3-40.9.6-10.9 1.9-21.9 2.9-32.8.1-.9.6-1.9 1-2.8.3 1 .7 2 1 3.1 0 2.7 0 5.4.1 8.1-.2 3-.3 6-.5 9 .6.1 1.3.2 1.9.2 2.6-4.7 5.4-9.4 5.1-15.2.9-4.2 1.8-8.5 2.7-12.7.2-.2.5-.4.8-.6z"/>
    <path fill="#f58383" d="M198 493c1.3-1.1 2.5-2.3 4.8-4.3v9.3c-.7-.8-1.3-1.5-2.2-2.5-1.3 2.1-2.4 4-3.5 5.9-.3-.6-.7-1.3-1-1.9.3-1.3.7-2.6 1-3.9.3-.9.6-1.8.9-2.6zm-5.8 36.9c-.3-1-.7-2-1-3.1 1.3-7.8 2.6-15.5 3.9-23.3h1.3l-4.2 26.4z"/>
    <path fill="#de0000" d="M196.4 503.5h-1.3c.3-1.4.7-2.7 1-4.1.3.6.7 1.3 1 1.9-.3.8-.5 1.5-.7 2.2z"/>
    <path fill="#f30000" d="M198 493c-.3.9-.6 1.7-1 2.6.4-.9.7-1.8 1-2.6z"/>
    <path fill="#d30000" d="M338.2 470.2l.9-67.2c6.1 1.9 12.5 3.3 18.4 5.8 15.9 6.8 27.9 18.6 36.9 33 9 14.4 14.4 30.3 17.1 47.2 2.8 17.8 2.6 35.5.5 53.2-.2 1.4-2.7 2.5-4.1 3.7-6.9-10.6-13.7-21.1-20.6-31.7-1.1-1.6-2.5-3-3.8-4.6l-5.1-6c-.3-.4-.6-.7-.9-1.1-5-5-10.1-10-15.1-15-.4-.3-.7-.6-1.1-.9-1.7-1.4-3.3-2.7-5-4.1-6-4-12.1-8.1-18.1-12.3z"/>
    <path fill="#de0000" d="M407.8 546c1.4-1.2 3.9-2.3 4.1-3.7 2.2-17.7 2.3-35.4-.5-53.2-2.7-16.9-8.1-32.8-17.1-47.2-9-14.4-20.9-26.2-36.9-33-5.9-2.5-12.2-3.9-18.4-5.8.3-4.7.7-9.3 1-14 14.1 2 27 6.9 38.4 15.5.8.6 2.5.2 3.8.3 12.7 17.2 22 36.3 29.7 56.1 5 12.8 8.7 26.1 13 39.1-.5.3-.9.6-1.4 1 .6.3 1.2.6 1.9.9l.6 2.1c-.6 1.6-1.6 3.2-1.8 4.9-1.8 16.1-3.4 32.3-5.3 48.4-.2 1.3-2.4 2.5-3.6 3.7-2.5-5.1-5-10.1-7.5-15.1z"/>
    <path fill="#ea0000" d="M415.2 561c1.3-1.2 3.5-2.3 3.6-3.7 1.9-16.1 3.5-32.3 5.3-48.4.2-1.7 1.2-3.3 1.8-4.9 7.3 29 13 58.1 4.5 87.7-.5.1-1.1.2-1.6.4-4.5-10.4-9-20.7-13.6-31.1zm10.2-59.1c-.6-.3-1.2-.6-1.9-.9.5-.3.9-.6 1.4-1 .2.6.3 1.3.5 1.9z"/>
    <path fill="#3e1f1f" d="M356 374c-2.3-1.7-4.7-3.3-7-5 1.3.5 2.6 1 3.9 1.4 1.1 1.2 2.1 2.4 3.1 3.6zm-7-5c-2.6-1.1-5.1-2.1-7.7-3.2l-.9-1.5c.3-.3.5-.7.8-1l7.8 5.7zm-74.9 106c.9-.9 1.8-1.9 2.7-2.8-1 .9-1.9 1.8-2.7 2.8zm-3 2c.7-.3 1.3-.7 2-1-.7.3-1.4.6-2 1zm-4 4l1-1c-.4.3-.7.6-1 1zm1-1l1-1c-.4.3-.7.6-1 1zm1-1l1-1c-.4.3-.7.6-1 1zm4-3l1-1c-.4.3-.7.6-1 1zm-3 2l1-1c-.4.3-.7.6-1 1zm90.9-99l-5-5c1.7 1.7 3.4 3.3 5 5z"/>
    <path fill="#f30000" d="M253.7 149.3c8.1-.5 11.3-6.5 14.5-12 3.1-5.3 5.2-11.1 7.8-16.7.6-1.3 1.6-2.4 2.4-3.5 1.3.9 3.1 1.5 3.9 2.8 2.3 3.6 5.1 7.2 6.2 11.2 3.6 14.1 6.7 28.3 9.6 42.5 4.1 19.7 3.4 39.7 2.9 59.6-.5 19.6-2.7 39-10.9 57.2-1.3 2.8-3 5.6-5 8-3 3.6-8.1 3.5-12 .1-5.8-5.1-9.2-11.5-11.7-18.7-5-15-8.2-30.3-9.4-46.1-.8-10.5-3-21.1-2.7-31.6.5-17.1 2.5-34.1 3.8-51.2 0-.6.3-1 .6-1.6z"/>
    <path fill="#fefefe" d="M267.2 82.1l2.1-3 1.8-2.1c6.1-1.3 7.7-.6 7.9 4.3.7 16.3-3.1 31.3-13.3 44.3-1.3 1.6-4 2-6.1 3-.9-2-2.4-3.9-2.5-6-.9-12.5 2.8-24 8-35.1.9-1.7 1.4-3.6 2.1-5.4z"/>
    <path fill="#f58383" d="M267.2 82.1c-.7 1.8-1.2 3.7-2 5.5-5.2 11.1-8.9 22.6-8 35.1.1 2 1.6 4 2.5 6 2.1-1 4.8-1.4 6.1-3 10.2-13 14-28 13.3-44.3-.2-4.9-1.8-5.6-7.9-4.3.3-1 .7-2.1 1-3.1 1-.5 1.9-1 2.9-1.5 3.9.4 6.4 2.6 6.3 6.4-.1 7.2.1 14.6-1.3 21.7-2.3 12.1-6.2 23.8-13.5 34-.3.4-.4.9-.8 1.3-2.5 2.5-4.4 6.7-8.8 5.2-4.5-1.5-4.3-5.7-4.4-9.6-.4-16.5 4.2-31.8 11.6-46.4.7-1.3 2-2.1 3-3zm3.9-5.1l-1.8 2.1 1.8-2.1z"/>
    <path fill="#3e1f1f" d="M263 369c-.1.2-.2.3-.1.5-.9.2-1.8.3-2.8.5.7-.7 1.3-1.4 2-2.1.3.3.6.7.9 1.1z"/>
    <path fill="#dceaf5" d="M196.4 503.5c.2-.7.4-1.4.7-2.2 1.1-1.9 2.3-3.8 3.5-5.9.9 1 1.5 1.8 2.2 2.5v9c-.1 1.4-.2 2.9-.3 4.3-.2 1.9-.5 3.8-.7 5.7-.1.8-.3 1.5-.4 2.3-.9 4.2-1.8 8.5-2.7 12.7-1.4 2.8-2.8 5.6-4.2 8.6-1-1.2-1.6-2-2.2-2.7 0-2.7 0-5.4-.1-8.1 1.4-8.6 2.8-17.4 4.2-26.2z"/>
    <path fill="#f58383" d="M202.4 511.3c.1-1.4.2-2.9.3-4.3.3.2.6.3 1 .5-.4 1.3-.8 2.5-1.3 3.8z"/>
    <path fill="#3e1f1f" d="M257.1 373l3-3-3 3zm-2 1c.7-.3 1.3-.7 2-1-.7.3-1.4.7-2 1z"/>
    <path fill="#f58383" d="M201.4 519.3c.1-.8.3-1.5.4-2.3.2.6.4 1.1.6 1.7-.4.2-.7.4-1 .6zm-9.2 18.7c.6.7 1.2 1.4 2.2 2.7 1.5-3 2.8-5.8 4.2-8.6.4 5.8-2.4 10.5-5.1 15.2-.6-.1-1.3-.2-1.9-.2.3-3.1.5-6.1.6-9.1z"/>
</svg>
