<?xml version="1.0" encoding="utf-8"?>
<!-- Generator: Adobe Illustrator 24.1.2, SVG Export Plug-In . SVG Version: 6.00 Build 0)  -->
<svg version="1.1" id="Layer_1" xmlns="http://www.w3.org/2000/svg" xmlns:xlink="http://www.w3.org/1999/xlink" x="0px" y="0px"
	 viewBox="0 0 612 612" style="enable-background:new 0 0 612 612;" xml:space="preserve">
<style type="text/css">
	.st0{fill:none;stroke:#F080B1;stroke-width:65;stroke-miterlimit:10;}
	.st1{fill:#F080B1;}
	.st2{fill:none;stroke:#939598;stroke-width:65;stroke-miterlimit:10;}
	.st3{fill:#939598;}
	.st4{fill:none;stroke:#8B5E3C;stroke-width:65;stroke-miterlimit:10;}
	.st5{fill:#8B5E3C;}
	.st6{fill:none;stroke:#00A651;stroke-width:65;stroke-miterlimit:10;}
	.st7{fill:#00A651;}
	.st8{fill:none;stroke:#FFF200;stroke-width:65;stroke-miterlimit:10;}
	.st9{fill:#FFF200;}
</style>
<g>
	<g>
		<path class="st0" d="M85.8,234.5c23.3-71.9,79.9-126.4,149.3-148.8"/>
		<g>
			<polygon class="st1" points="230,139 306,74.5 212.1,40.9 			"/>
		</g>
	</g>
</g>
<g>
	<g>
		<path class="st2" d="M169.9,493.4c-61.1-44.4-95.5-115.1-95.4-188"/>
		<g>
			<polygon class="st3" points="123.6,326.7 85.8,234.5 24.8,313.4 			"/>
		</g>
	</g>
</g>
<g>
	<g>
		<path class="st4" d="M442.1,493.4c-61.1,44.4-139,55.3-208.3,32.6"/>
		<g>
			<polygon class="st5" points="269.3,485.9 169.9,493.4 226.1,575.8 			"/>
		</g>
	</g>
</g>
<g>
	<g>
		<path class="st6" d="M526.2,234.5c23.3,71.9,9.6,149.3-33.3,208.2"/>
		<g>
			<polygon class="st7" points="465.7,396.5 442.1,493.4 537.8,465.4 			"/>
		</g>
	</g>
</g>
<g>
	<g>
		<path class="st8" d="M306,74.5c75.5,0,144.9,37,187.7,96"/>
		<g>
			<polygon class="st9" points="441.4,182.1 526.2,234.5 529.2,134.8 			"/>
		</g>
	</g>
</g>
</svg>
