<?xml version="1.0" encoding="utf-8"?>
<!-- Generator: Adobe Illustrator 24.1.2, SVG Export Plug-In . SVG Version: 6.00 Build 0)  -->
<svg version="1.1" id="Layer_1" xmlns="http://www.w3.org/2000/svg" xmlns:xlink="http://www.w3.org/1999/xlink" x="0px" y="0px"
	 viewBox="0 0 612 612" style="enable-background:new 0 0 612 612;" xml:space="preserve">
<style type="text/css">
	.st0{fill:none;stroke:#00A651;stroke-width:65;stroke-miterlimit:10;}
	.st1{fill:#00A651;}
	.st2{fill:none;stroke:#FFF200;stroke-width:65;stroke-miterlimit:10;}
	.st3{fill:#FFF200;}
	.st4{fill:none;stroke:#8B5E3C;stroke-width:65;stroke-miterlimit:10;}
	.st5{fill:#8B5E3C;}
</style>
<g>
	<g>
		<path class="st0" d="M506.5,421.9C466.4,491,391.7,537.5,306,537.5c-52,0-99.9-17.1-138.5-46"/>
		<g>
			<polygon class="st1" points="229.7,458.7 105.5,421.8 135.6,547.9 			"/>
		</g>
	</g>
</g>
<g>
	<g>
		<path class="st2" d="M306,74.5c127.9,0,231.5,103.7,231.5,231.5c0,9.2-0.5,18.4-1.6,27.3"/>
		<g>
			<polygon class="st3" points="476.4,295.8 506.5,421.9 600.7,332.8 			"/>
		</g>
	</g>
</g>
<g>
	<g>
		<path class="st4" d="M105.5,421.8c-19.7-34.1-31-73.6-31-115.8c0-95.4,57.7-177.3,140.1-212.8"/>
		<g>
			<polygon class="st5" points="211.8,163.6 306,74.5 181.8,37.5 			"/>
		</g>
	</g>
</g>
</svg>
