<?xml version="1.0" encoding="utf-8"?>
<!-- Generator: Adobe Illustrator 24.1.0, SVG Export Plug-In . SVG Version: 6.00 Build 0)  -->
<svg version="1.1" id="Layer_1" xmlns="http://www.w3.org/2000/svg" xmlns:xlink="http://www.w3.org/1999/xlink" x="0px" y="0px"
	 viewBox="0 0 612 792" style="enable-background:new 0 0 612 792;" xml:space="preserve">
<g>
	<g>
		<path d="M589.7,606.2c-12.4-3.5-23.6-5.5-33.9-9.7c-23.6-9.6-46.9-10.2-70.2,0c-23.8,10.4-47.5,10.5-71.3,0.1
			c-23.3-10.2-46.8-10.2-70.1,0.1c-23.8,10.5-47.5,10.3-71.3-0.2c-22.8-10.1-46-10.2-68.8-0.2c-24.3,10.7-48.3,10.7-72.6,0.1
			c-22.8-10-45.7-9.4-68.9-0.2c-10.7,4.2-22.2,6.5-34.9,10c0-19.3,0-35.8,0-51c14.7-4.7,28.5-9.1,42.2-13.5
			c20.3-6.5,40.5-6.3,60,2.2c25.2,11,49.9,11.2,75.2,0.2c21.9-9.5,44.5-9.5,66.3,0c25.3,11,50,10.8,75.2-0.1
			c21.9-9.5,44.5-9.2,66.3,0.3c24.8,10.8,49.1,10.8,73.9,0c21.4-9.3,43.2-9.1,65.1-1c11.9,4.4,24.1,7.5,37.7,11.7
			C589.7,570.1,589.7,586.9,589.7,606.2z"/>
		<path d="M133.8,484.1c-2.3,10.6-4.3,19.7-6.5,29.9c-6.1-1.3-11.7-2.5-18.8-4c1.7-11.4,3.2-21.9,4.8-33.2c-3.1-2-6.3-4.1-10.7-7
			c2.3-5.5,4.4-10.8,6.8-16.6c4.6,1.1,8.4,2,13.6,3.2c12.5-23.4,31-41.7,54.7-54.8c-1-4.6-1.9-8.4-3-13.3c5.3-2.3,10.5-4.6,16.1-7.1
			c2.7,3.9,5,7.2,7.9,11.3c25.6-6.6,51.6-7.2,77.8,0.3c2.6-4,4.7-7.4,7.4-11.6c5.5,2.3,10.7,4.5,16.5,7c-1,4.6-1.9,8.4-3.1,13.6
			c23.4,12.4,42,30.6,54.9,54.6c4.7-1.1,8.5-2.1,13.3-3.3c2.3,5.2,4.6,10.4,7.1,16.2c-4.1,2.8-7.7,5.3-11.1,7.6
			c1.8,11.1,3.5,21.6,5.3,33c-7.1,1.5-12.7,2.8-19.1,4.2c-2.1-10-4-19.1-6.4-30.1c-20,8.2-38.8,15.5-57.3,23.6
			c-9.9,4.4-19.2,6.1-30.1,4c-10.1-1.9-21.1-2.3-31.1-0.2c-12.4,2.5-23,0.3-34.1-4.7C171.4,499,153.3,492,133.8,484.1z M258.3,493.1
			c1,0.7,1.9,1.4,2.9,2.1c24-10,48-19.9,72.1-29.9c-11-21.2-25.8-35.5-45.1-43.8C278.1,445.4,268.2,469.3,258.3,493.1z M206.2,413.8
			c10.3,24.6,20.2,48.3,30.1,72c1-0.1,2.1-0.3,3.1-0.4c9.9-23.9,19.9-47.8,29.8-71.7C249.6,405.6,225.5,405.6,206.2,413.8z
			 M141.8,465.3c25.6,10.5,49.2,20.3,72.9,30c0.8-0.7,1.6-1.4,2.4-2.1c-9.9-23.8-19.8-47.6-30.2-72.7
			C166.9,431.2,152.9,445.2,141.8,465.3z"/>
		<path d="M477.9,313c0,31.4,0,61.6,0,92.9c-5.6,0.3-10.4,0.7-15.3,0.7c-30.5,0.1-61-0.8-91.5,0.4c-16.4,0.6-29.4-3.1-39.6-17.5
			c1.3-4.1,2.9-9.1,5.1-15.9c-15.8-6.6-31.4-13.9-47.5-19.5c-11.2-3.9-16.3-9.8-14.4-21.8c0.9-6.1,0.2-12.4,0.2-19.4
			C343.1,313,409.8,313,477.9,313z"/>
		<path d="M613.8,435.1c-19.6,26-37.9,50.7-56.8,74.9c-1.8,2.4-7.3,3.7-10.5,3c-25.9-5.8-50.5-2.5-74.6,8
			c-14.4,6.3-29.1,5.8-43.8,0.2c-7.6-2.9-15.3-5.8-23.2-7.8c-6-1.6-10.8-2.6-11.4-10.6c-0.6-7.6,0.9-12.2,8.6-14.3
			c2-0.6,3.7-2.3,6.5-4.1c-6.6-16.1-13.1-31.9-20.1-49.1C463.3,435.1,537.4,435.1,613.8,435.1z"/>
		<path d="M368.8,284.3c-14.2,0-27.2,0-41.5,0c0-30.1,0-59.9,0-91.8c7.5,6.5,13.8,11.9,20.6,17.8c6.7-5.9,12.9-11.3,20.9-18.3
			C368.8,223.8,368.8,253.3,368.8,284.3z"/>
		<path d="M3.3,434.6c29.3,0,55.4,0,83.8,0c-6.8,17-13.2,33-19.9,49.8c3.1,1.8,5.5,3.9,8.3,4.8c6.9,2.1,8.1,7.1,6.3,12.8
			c-1.2,3.7-3.4,8.5-6.5,9.9c-4.9,2.3-10.9,4.4-15.7-2.2C41.6,485.2,23.3,461.1,3.3,434.6z"/>
	</g>
</g>
</svg>
