<svg xmlns="http://www.w3.org/2000/svg" viewBox="0 0 612 792">
    <path d="M589.7 606.2c-12.4-3.5-23.6-5.5-33.9-9.7-23.6-9.6-46.9-10.2-70.2 0-23.8 10.4-47.5 10.5-71.3.1-23.3-10.2-46.8-10.2-70.1.1-23.8 10.5-47.5 10.3-71.3-.2-22.8-10.1-46-10.2-68.8-.2-24.3 10.7-48.3 10.7-72.6.1-22.8-10-45.7-9.4-68.9-.2-10.7 4.2-22.2 6.5-34.9 10v-51c14.7-4.7 28.5-9.1 42.2-13.5 20.3-6.5 40.5-6.3 60 2.2 25.2 11 49.9 11.2 75.2.2 21.9-9.5 44.5-9.5 66.3 0 25.3 11 50 10.8 75.2-.1 21.9-9.5 44.5-9.2 66.3.3 24.8 10.8 49.1 10.8 73.9 0 21.4-9.3 43.2-9.1 65.1-1 11.9 4.4 24.1 7.5 37.7 11.7.1 15.1.1 31.9.1 51.2zM133.8 484.1c-2.3 10.6-4.3 19.7-6.5 29.9-6.1-1.3-11.7-2.5-18.8-4 1.7-11.4 3.2-21.9 4.8-33.2-3.1-2-6.3-4.1-10.7-7 2.3-5.5 4.4-10.8 6.8-16.6 4.6 1.1 8.4 2 13.6 3.2 12.5-23.4 31-41.7 54.7-54.8-1-4.6-1.9-8.4-3-13.3 5.3-2.3 10.5-4.6 16.1-7.1 2.7 3.9 5 7.2 7.9 11.3 25.6-6.6 51.6-7.2 77.8.3 2.6-4 4.7-7.4 7.4-11.6 5.5 2.3 10.7 4.5 16.5 7-1 4.6-1.9 8.4-3.1 13.6 23.4 12.4 42 30.6 54.9 54.6 4.7-1.1 8.5-2.1 13.3-3.3 2.3 5.2 4.6 10.4 7.1 16.2-4.1 2.8-7.7 5.3-11.1 7.6 1.8 11.1 3.5 21.6 5.3 33-7.1 1.5-12.7 2.8-19.1 4.2-2.1-10-4-19.1-6.4-30.1-20 8.2-38.8 15.5-57.3 23.6-9.9 4.4-19.2 6.1-30.1 4-10.1-1.9-21.1-2.3-31.1-.2-12.4 2.5-23 .3-34.1-4.7-17.3-7.7-35.4-14.7-54.9-22.6zm124.5 9c1 .7 1.9 1.4 2.9 2.1 24-10 48-19.9 72.1-29.9-11-21.2-25.8-35.5-45.1-43.8-10.1 23.9-20 47.8-29.9 71.6zm-52.1-79.3c10.3 24.6 20.2 48.3 30.1 72 1-.1 2.1-.3 3.1-.4 9.9-23.9 19.9-47.8 29.8-71.7-19.6-8.1-43.7-8.1-63 .1zm-64.4 51.5c25.6 10.5 49.2 20.3 72.9 30l2.4-2.1c-9.9-23.8-19.8-47.6-30.2-72.7-20 10.7-34 24.7-45.1 44.8zM477.9 313v92.9c-5.6.3-10.4.7-15.3.7-30.5.1-61-.8-91.5.4-16.4.6-29.4-3.1-39.6-17.5 1.3-4.1 2.9-9.1 5.1-15.9-15.8-6.6-31.4-13.9-47.5-19.5-11.2-3.9-16.3-9.8-14.4-21.8.9-6.1.2-12.4.2-19.4 68.2.1 134.9.1 203 .1zm135.9 122.1c-19.6 26-37.9 50.7-56.8 74.9-1.8 2.4-7.3 3.7-10.5 3-25.9-5.8-50.5-2.5-74.6 8-14.4 6.3-29.1 5.8-43.8.2-7.6-2.9-15.3-5.8-23.2-7.8-6-1.6-10.8-2.6-11.4-10.6-.6-7.6.9-12.2 8.6-14.3 2-.6 3.7-2.3 6.5-4.1-6.6-16.1-13.1-31.9-20.1-49.1 74.8-.2 148.9-.2 225.3-.2zm-245-150.8h-41.5v-91.8c7.5 6.5 13.8 11.9 20.6 17.8 6.7-5.9 12.9-11.3 20.9-18.3v92.3zM3.3 434.6h83.8c-6.8 17-13.2 33-19.9 49.8 3.1 1.8 5.5 3.9 8.3 4.8 6.9 2.1 8.1 7.1 6.3 12.8-1.2 3.7-3.4 8.5-6.5 9.9-4.9 2.3-10.9 4.4-15.7-2.2-18-24.5-36.3-48.6-56.3-75.1z"/>
</svg>
