<svg xmlns="http://www.w3.org/2000/svg" width="48" height="48" viewBox="-12.5 -12.5 25 25">
    <path class="color-stroke-white" fill="none" stroke="#fff" stroke-linecap="round" stroke-linejoin="round" stroke-width="1.5" d="M-7.5 4q0-3.75-3.75-3.75M-7.5 4Q-7.5.25-3.75.25M0 .25Q0-3.5-3.75-3.5M0 .25Q0-3.5 3.75-3.5M7.5 4Q7.5.25 11.25.25M7.5 4Q7.5.25 3.75.25"/>
    <path class="color-stroke-main color-stroke-land" fill="none" stroke="#59b578" stroke-linecap="round" stroke-linejoin="round" stroke-width="1.5" d="M-7.5 3q0-3.75-3.75-3.75M-7.5 3q0-3.75 3.75-3.75M0-.75Q0-4.5-3.75-4.5M0-.75Q0-4.5 3.75-4.5M7.5 3q0-3.75 3.75-3.75M7.5 3q0-3.75-3.75-3.75"/>
</svg>
