<svg xmlns="http://www.w3.org/2000/svg" width="48" height="48" viewBox="-12.5 -12.5 25 25">
  <g class="color-stroke-black" stroke="#000" fill="none" stroke-width="4" stroke-linecap="round" stroke-linejoin="round">
    <path d="M-7.5 3q0-3.75-3.75-3.75M-7.5 3q0-3.75 3.75-3.75M0-.75Q0-4.5-3.75-4.5M0-.75Q0-4.5 3.75-4.5M7.5 3q0-3.75 3.75-3.75M7.5 3q0-3.75-3.75-3.75"/>
  </g>
  <path class="color-stroke-main color-stroke-land" fill="none" stroke="#59b578" stroke-linecap="round" stroke-linejoin="round" stroke-width="1.5" d="M-7.5 3q0-3.75-3.75-3.75M-7.5 3q0-3.75 3.75-3.75M0-.75Q0-4.5-3.75-4.5M0-.75Q0-4.5 3.75-4.5M7.5 3q0-3.75 3.75-3.75M7.5 3q0-3.75-3.75-3.75"/>
</svg>
