<svg xmlns="http://www.w3.org/2000/svg" width="48" height="48" viewBox="-12.5 -12.5 25 25">
    <path class="color-stroke-white" fill="none" stroke="#fff" stroke-linecap="round" stroke-linejoin="round" stroke-width="1.2" d="M-10.5 3c0 3 6 3 6 0 0 3 6 3 6 0 0 3 6 3 6 0m-15-4.5c0 3 6 3 6 0 0 3 6 3 6 0 0 3 6 3 6 0"/>
    <path class="color-stroke-main color-stroke-water" fill="none" stroke="#67a7c4" stroke-linecap="round" stroke-linejoin="round" stroke-width="1.2" d="M-10.5 2c0 3 6 3 6 0 0 3 6 3 6 0 0 3 6 3 6 0m-15-4.5c0 3 6 3 6 0 0 3 6 3 6 0 0 3 6 3 6 0"/>
</svg>
