<svg xmlns="http://www.w3.org/2000/svg" viewBox="0 0 612 612">
    <path fill="#7a5439" d="M425.4 170.7c.5-.4.9-.8 1.4-1.3l1-1c.1-.3.2-.5.5-.6 2.4-2.5 4.7-4.9 7.1-7.4 2.5-1.7 5-3.5 7.5-5.2 1.9 2.3 3.6 4.5 5.3 6.7-1.3 2.1-2.5 3.9-3.7 5.8l-.1.1c-.6.6-1.2 1.2-1.7 1.8l-7.4 7.4c-1.4 1.1-2.8 2.2-4.2 3.2-3.3 2.2-6.7 4.2-9.9 6.5-7.5 5.6-12.1 13.6-16.9 21.4-12.2 12.2-24.3 24.4-36.5 36.6-4.4 2.8-9.6 4.8-13.1 8.5-5.4 5.8-9.7 12.6-14.4 19-12.2 12.2-24.5 24.3-36.7 36.5-1.9 1.5-3.6 3.5-5.8 4.5-11.2 5.1-16.9 15.3-23.4 24.8-5.4 5.4-10.9 10.8-16.3 16.3-6.5 6.7-12.9 13.5-19.3 20.2-3.2 1.8-6.3 3.8-9.5 5.4-9.4 4.7-13.7 13.8-18.9 22.1-12.2 12.2-24.3 24.4-36.5 36.6-12 6.3-21.1 15.5-27.5 27.5-12.7 12.6-25.3 25.3-38 37.9-5.7 5.7-11.3 11.6-17.2 17.2-1.6 1.5-4.1 2.1-6.1 3.2-.4-.1-.8-.2-1.3-.3-4.6-2.2-5.7-5.7-2.4-9.2 5.1-5.4 10.5-10.5 15.7-15.8l1.7-1.7.1-.1 5.4-5.4.1-.1c4.8-4.9 9.7-9.7 14.5-14.6l.1-.1c.6-.6 1.2-1.1 1.7-1.7l.1-.1 7.2-7.2.1-.1c1.9-1.5 3.7-2.9 5.6-4.4 4.3-3.5 8.6-6.9 12.9-10.4 3.7-3.1 7.8-5.9 10.8-9.6 3.5-4.2 6.1-9.2 9.1-13.8 1.7-1.9 3.4-3.7 5.1-5.6.2-.3.5-.6.7-.9.4-.3.8-.6 1.2-1 .9-.9 1.7-1.8 2.6-2.6 1.4-1.4 2.8-2.9 4.3-4.3l.3-.3c1.1-1.2 2.2-2.3 3.3-3.5l.3-.2c.8-.8 1.7-1.6 2.5-2.4.1-.1.2-.2.3-.4.2-.2.4-.3.6-.5.9-.9 1.8-1.7 2.7-2.6 1.6-1.6 3.1-3.2 4.7-4.8l.3-.3 2.5-2.5.3-.3 1.5-1.5.3-.3c.8-.7 1.6-1.3 2.5-2 4.1-2.6 8.3-5.1 12.3-7.8 7.9-5.3 10.9-14.5 16.7-21.4 1.7-1.6 3.5-3.3 5.2-4.9.3-.3.6-.7.9-1l6.3-6.3 1-1c.9-.9 1.7-1.8 2.6-2.7l1-1 2.6-2.6 1-1 6.3-6.3 1-1 2.6-2.6 1-1c1.3-1.4 2.6-2.8 3.8-4.2 2.6-1.7 5.1-3.7 7.9-5 9.9-4.8 14.9-13.7 19.7-22.7 3.8-3.6 7.6-7.3 11.5-10.9l1-1c.9-.9 1.8-1.8 2.7-2.6l1-1 6.3-6.3 1-1 2.6-2.6 1-1c.9-.9 1.8-1.8 2.6-2.7.3-.3.7-.6 1-.9 1.9-2 3.8-4.1 5.8-6.1 5.2-3.4 11.3-6.1 15.5-10.5 5.3-5.5 9.2-12.4 13.7-18.7 1-.9 2-1.8 3-2.8.9-.5 1.9-.9 2.6-1.6 7.4-7.4 14.8-14.7 22.2-22.2.7-.7 1-1.8 1.5-2.6l6.6-7.5c.4 0 1 .1 1.3 0 13-6.4 21.2-16.9 28.1-28.6z"/>
    <path fill="#9b8352" d="M340.3 272.2c4.8-6.4 9-13.2 14.4-19 3.5-3.7 8.7-5.7 13.1-8.5 2.5-.1 5-.1 7.5-.4 14.3-1.3 27.5 2.4 40.3 8.4 1.1.5 2.5.5 3.8.7-11.7-12.7-18.1-26.1-14-43.2.1-.6-.7-1.4-1-2.1 4.8-7.8 9.4-15.8 16.9-21.4 3.1-2.4 6.6-4.3 9.9-6.5 1.5-1 2.8-2.1 4.2-3.2.8.8 1.6 2.3 2.3 2.2 27.1-2.5 48.9 9.5 69.6 24.7 5.2 3.9 10 8.4 15 12.6 2.4 1.9 2.8 3.8.3 5.9-17.4 14.9-35.9 28.1-58.1 35-1.5.1-3.1.1-4.5.5-12.5 3.6-24.5 2.9-36-3.5-.8-.4-2-.1-3-.2l-.3 1.2c5.4 3.2 10.8 6.3 16.2 9.5 7.2 5.7 14.5 11.4 21.6 17.2 2.2 1.8 1.5 3.6-.6 5.1-12 8.5-23.9 17-35.9 25.4-2.1 1.5-4.5 2.5-6.8 3.7-.6.3-1.3.6-1.9 1-.6.2-1.2.5-1.8.7-4.1 1.3-8.2 2.7-12.3 4-3.2 1-6.4 1.9-9.7 2.8-5.4.1-10.8.1-16.1.2-1-.3-2-.5-3.1-.8-1.4-.5-2.8-.9-4.1-1.4-3.9-1.9-7.7-3.9-11.6-5.8-11.5-11.6-17.6-25.1-13.7-41.8.1-1-.4-2-.6-3zm111 12.9c-1.8-2-2.6-3.3-3.8-4.1-10.6-7.3-20.9-15-32-21.4-11.3-6.5-23.8-10-37.1-9.3-24.1 1.1-39.7 25.6-29.2 48.2 8 17.3 25.3 23.1 42.9 18.6 9.6-2.4 19.1-6.3 27.7-11.1 10.8-6.1 20.7-13.7 31.5-20.9zm-40.7-65.3c-.5 10.3 3.9 18.5 11.4 25.1 11.3 9.9 24.3 10.4 38.1 6.5 19.9-5.6 36.3-17.3 52.4-29.6 2.5-1.9 2.1-3.7-.3-5.5-3.3-2.4-6.5-5-9.7-7.5-14.8-11.7-31.2-19.9-49.9-23.2-23-4.1-43.1 14.5-42 34.2zm-50.1 15.9c-4.5 6.3-8.4 13.2-13.7 18.7-4.3 4.4-10.3 7.1-15.5 10.5-.9-.2-1.9-.5-2.8-.6-6.4-.3-13.2.5-19.2-1.1-7.2-2-13.8-6.1-20.8-9.4 0 0-.2.7-.2 1.4 0 .6 0 1.3.2 1.8 6.6 14.1 9.1 28.8 6.3 44.2-4.8 9.1-9.8 18-19.7 22.7-2.8 1.3-5.3 3.3-7.9 5-.7-.2-1.4-.7-2-.6-15.7 3.6-28.8-1.2-40-12.3-2-2.7-3.9-5.5-5.9-8.2-.5-1.2-1.1-2.4-1.6-3.6-.4-.9-.7-1.8-1.1-2.8-4.3-17.2.3-33 7.8-48.3 7.4-15.4 17.3-29.1 28.6-41.9 2.1-2.4 3.5-2.1 5.4.1 4.2 5.2 8.5 10.2 12.8 15.3 4.4 7.2 8.8 14.4 13.3 21.6.4-.2.8-.3 1.3-.5-.4-1.4-.5-3-1.2-4.2-4.1-7.9-6-16.2-4.4-25.1.4-2.5.4-5.1.6-7.6.1-.6.3-1.2.4-1.7.4-1.4.8-2.8 1.1-4.2.1-.4.3-.7.4-1.1 2.2-5.2 4.3-10.5 6.5-15.7 4.4-7.5 8.5-15.3 13.3-22.6 4.4-6.5 9.7-12.4 14.5-18.6 2.1-2.8 4-2.7 6.1-.1 3.9 4.8 8 9.5 11.9 14.2.8 1.1 1.6 2.3 2.3 3.4l.4.4c.1.2.2.4.4.5.5.8 1 1.5 1.5 2.3 3.8 6.3 7.7 12.5 11.5 18.8.9 2.3 1.8 4.5 2.7 6.8 5.2 13 8.7 26.1 5.9 40.3-.5.5.4 1.4.8 2.2zm-71.3 51.1c-.1-2.3-.1-4.6-.5-6.8-4.3-23.1-16.4-42.1-31.5-59.5-.6-.7-3.2-.7-3.9 0-2.6 2.7-4.9 5.8-7.1 8.8-11.6 16.2-22.1 32.8-25.4 53.2-3.4 21.1 12 40.6 33.5 40.8 20.2.2 35.7-16.9 34.9-36.5zm31.6-134c-2.7 2.9-4.5 4.4-5.7 6.2-5.7 8.2-11.7 16.3-16.7 24.9-7.5 12.8-13.5 26.3-12.9 41.6.5 13.2 6.9 23.4 18.8 29 12.4 5.9 24.9 4.9 36.2-3.4 13.3-9.8 15.9-25.2 12.2-41-2.9-12.2-7.6-23.7-14.8-34-5.5-7.6-11.1-15-17.1-23.3zm-33 96.3c-.2-.1-.5-.2-.7-.3-.1.2-.3.5-.3.7.1.2.4.2.6.3.1-.3.2-.5.4-.7zM166.6 429.7c-3 4.6-5.6 9.6-9.1 13.8-3.1 3.6-7.1 6.5-10.8 9.6-4.2 3.5-8.6 7-12.9 10.4-1.8 1.5-3.7 2.9-5.6 4.4 2.4-2.8 4.7-5.7 7.8-9.3-6.3 0-11.9.8-17.2-.1-15.8-2.8-26.6-12.1-31.6-27.5-5-15.3-1-29.9 5.5-43.7 4.2-8.9 9.4-17.3 14.9-25.5 4.9-7.4 10.7-14.2 16.1-21.2.5-.7 1.3-1.2 2.4-2.2 9.7 8.7 17.1 19.1 23.8 30.1 3.6 6.9 7.2 13.9 10.8 20.8.2.6.3 1.2.5 1.8 1.7 6.7 3.4 13.3 5.2 20l.3 4.8c0 .9.1 1.7.1 2.6 0 1 0 1.9-.1 2.9 0 .6 0 1.1-.1 1.7-.1 1-.3 1.9-.4 2.9-.8 1.3-2.6 2.7.4 3.7zm-40.2-82.6c-2.4 2.6-4.3 4.2-5.5 6.2-7.2 11.2-15 22.1-21.2 33.9-6 11.5-9.7 23.9-7.4 37.3 4.1 24 32 35.8 52.2 22.1 14.1-9.6 19.4-29.4 13.3-46.5-5.4-15-12.6-28.9-22.1-41.6-2.8-3.7-5.9-7.2-9.3-11.4zm20 119c6.4-12 15.5-21.2 27.5-27.5.8.2 1.7.7 2.5.6 5.4-.3 11-1.6 16.2-.8 8.5 1.3 16.7 4 25 6 3.4 1.9 6.7 3.6 10 5.6 5.8 3.4 11.5 6.9 17.3 10.4.5.4 1 .8 1.5 1.1l.1.3h.4c5.9 4.8 11.8 9.5 17.6 14.3 2.2 1.8 1.4 3.4-.5 4.8-9.5 7.2-18.7 15-28.7 21.6-12.5 8.3-26.2 14-41.2 16.4-30 4.8-52.5-20.1-47.8-48.7.3-1.2.1-2.6.1-4.1zM257 478.5c-1.5-1.7-2.2-2.5-3-3.2-12.3-10.2-25.3-19.6-40.4-25.3-10.5-4-21.3-7.1-32.9-5.2-13.3 2.3-22.4 9.7-27.1 22.3-4.6 12.5-1.5 23.8 6.7 33.7 9.9 11.8 23.2 13.6 37.4 10.5 14.7-3.2 27.9-10.1 40.1-18.7 6.5-4.5 12.6-9.1 19.2-14.1zm187.5-310.7c1.2-1.9 2.4-3.7 3.7-5.8-1.7-2.1-3.5-4.3-5.3-6.7-2.5 1.7-5 3.5-7.5 5.2 4.5-4.2 3.4-8 1.4-13.6-8.4-23.5.9-41.4 20.6-53.2 18.9-11.3 39.5-16 61.3-17 9.4-.4 9.5-.3 8.8 9-1.6 21.8-6.8 42.6-17.7 61.7-7.5 13.2-18 22.9-34.1 23.2-6.2.1-12.8-1.1-18.5-3.4-4.9-2.1-8.7-3.9-12.7.6zm28.7-3.5c7.9.5 14.6-2.9 20.4-8 8.3-7.1 13.2-16.4 17.1-26.4 5.5-13.8 8-28.2 9.8-42.9.5-4.4-1.7-4.8-5.1-4.3-5.7.9-11.4 1.6-17.1 2.6-16.4 2.8-31.8 8.2-45 18.5-13.8 10.7-16.1 22.8-12.7 36.4 3.9 15.1 18.3 24.8 32.6 24.1zm-47.8 6.4c-7 11.7-15.1 22.2-27.8 28.2-.4.2-.9 0-1.3 0-1.8.2-3.7.2-5.5.5-15.8 2.4-28.5-3.2-38.7-15.1-2.4-5.2-4.9-10.4-7.3-15.5-.1-.6-.2-1.2-.2-1.8-.2-1.5-.4-3-.7-4.6 0-2.2-.1-4.4-.1-6.6l.9-6.3c.1-.6.1-1.3.2-1.9.8-3 1.7-5.9 2.5-8.9 3.9-8.9 7-18.2 12-26.5 6.1-10.1 13.7-19.2 20.8-28.7 3.8-5 4.1-4.8 8.3-.2 13.3 14.3 24.4 29.9 31.3 48.3 4.2 11.4 6.6 23 4.8 35.3-.2 1.2.5 2.6.8 3.8zm-40.3-82.8c-16.4 19.6-29.3 39.2-34.5 63-3 13.8.3 25.6 11 35 11.1 9.7 27.9 10 38 4.3 14.9-8.3 20.9-22.9 18.2-39.8-1.9-11.7-6-22.6-12.1-32.6s-13.4-19.4-20.6-29.9zM210.4 402.1c5.3-8.3 9.5-17.4 18.9-22.1 3.3-1.6 6.3-3.6 9.5-5.4 9.8-2.6 19.4-1.2 29.1.5 3.3 1.1 6.7 2.1 10 3.2.4.1.7.3 1.1.4.9.4 1.8.8 2.7 1.3 1.5.6 3.1 1.1 4.6 1.7 6 3.4 12.1 6.9 18.1 10.3 8.1 6.3 16.3 12.5 24.4 18.8 2 1.6 2.3 3.2 0 5.2-16.6 13.9-33.7 26.8-54.6 33.7-3.5 1-7.1 2-10.6 3-1.2.2-2.4.3-3.6.5-9.9.7-19.8.6-28.7-4.5-4-2.3-7.6-5.4-11.3-8.2-.7-.8-1.3-1.6-2-2.4-.6-.8-1.1-1.6-1.7-2.3-5.6-9.7-7.7-20-5.3-31.1.2-.9-.4-1.8-.6-2.6zm40 46.4c6.5-1.4 13.1-2.4 19.5-4.2 16.3-4.8 30-14.4 43.4-24.4 9.3-6.9 9.4-6.2.5-12.9-.4-.3-.7-.6-1-.9C296 393 278 383 256.3 379.7c-23.5-3.6-45.7 19.5-39.1 42 4.5 15.1 19.2 26.2 33.2 26.8zm24-110.5c6.5-9.4 12.2-19.7 23.4-24.8 2.2-1 3.9-3 5.8-4.5 1.3.3 2.7.7 4 .8 5.9 0 11.9-.1 17.8-.1.7.2 1.5.4 2.2.6l3.6.6c2.1.6 4.2 1.1 6.3 1.7.6.2 1.2.3 1.8.5 1 .4 1.9.7 2.9 1.1.9.3 1.7.6 2.6.9.7.3 1.3.6 2 .9.9.3 1.7.5 2.6.8 5.4 3 10.9 5.9 16.3 8.9 2.1 1.5 4.2 2.9 6.3 4.4l-.1.4.4-.1c7 5.6 14.1 11.1 21.1 16.7 2 1.6 1.8 3.3-.2 4.8-6.8 5.4-13.2 11.2-20.4 16-8.1 5.4-16.7 9.8-25.1 14.7-2.5.9-5.1 1.7-7.6 2.6-14.2 5.1-28.4 7.3-42.7.7-3.3-1.5-6.5-3.6-9.7-5.4-10-11.5-15.6-24.4-11.8-40 .1-.7-1-1.5-1.5-2.2zm41.9 45.2c3.2-.3 6.4-.2 9.5-.9 22.2-4.6 40.1-17.2 57.6-30.7 2.5-1.9 2.3-3.8-.5-5.7-10.5-6.9-20.4-14.8-31.3-20.9-13.1-7.3-27.3-11.8-42.8-9.1-17.6 3-28.7 18.8-27.9 34.8 1.1 18.9 17.8 34.1 35.4 32.5zm-84.8-18.5c-5.8 7-8.8 16.1-16.7 21.4-4 2.7-8.2 5.2-12.4 7.8h-6.6l-1.8.3c-4.9-.4-9.7-.8-14.6-1.2-3.1-1.1-6.1-2.1-9.2-3.2 0-.3-.1-.5-.4-.6-.1-.1-.3-.2-.4-.4-.6-.4-1.3-.9-1.9-1.3-.7-.5-1.3-.9-2-1.4-6.1-5.1-9.6-12.1-13.7-18.7-4.6-15-1.3-29.2 4.5-43.1 7.3-17.6 18.3-32.8 30.7-47.1.9-1 2-1.8 3.4-3.1 9.3 8.6 16.8 18.3 23.5 28.8.3.5.6.9.9 1.4 1 1.6 1.9 3.1 2.9 4.7 1.6 3.1 3.3 6.1 4.9 9.2 5.9 14.3 10.4 28.9 7.5 44.8 0 .3.9 1 1.4 1.7zm-40.8-83.1c-5.7 7.7-10.3 13.9-14.8 20.1-8.2 11.1-13.1 23.9-17.8 36.6-1.9 5.1-2.2 10.8-3.3 16.2-.1.3-.1.6 0 .9 1.6 4.5 3 9.1 5 13.4 5.6 12.1 15.5 19 28.6 19.3 22.6.6 39.8-18.3 35.2-44.6-2.1-12-6.7-23.1-13.1-33.3-5.8-9.4-12.6-18.3-19.8-28.6z"/>
    <path fill="#f1cb84" d="M220 440.4c3.8 2.7 7.3 5.9 11.3 8.2 8.9 5.1 18.8 5.2 28.7 4.5-4.5 3.2-9.6 1.6-14.5 1.5-1.5 0-3.1-.3-5.8-.5 2.3 2.9 3.8 4.7 5.3 6.5-5.8-3.5-11.5-7-17.3-10.4-3.3-1.9-6.7-3.7-10-5.6 3-.1 2.5-2.2 2.3-4.2zm67.7-60.3c3.2 1.8 6.3 3.9 9.7 5.4 14.3 6.6 28.5 4.4 42.7-.7 2.5-.9 5.1-1.8 7.6-2.6-.7.9-1.3 2.3-2.2 2.6-12.3 4.3-24.8 7.4-38.1 5.7-.9-.1-2 .9-3 1.4-6-3.4-12.1-6.9-18.1-10.3.5-.6.9-1 1.4-1.5zm-7.3-169.4c-.2 2.6-.2 5.1-.6 7.6-1.5 8.9.3 17.2 4.4 25.1.7 1.3.8 2.8 1.2 4.2-.4.2-.8.3-1.3.5-4.4-7.2-8.8-14.4-13.3-21.6 2.2 2.2 4.4 4.5 7.4 7.6 0-6.9-.2-12.7.1-18.5.2-1.5 1.4-3.2 2.1-4.9zm156.5 54.1c-5.4-3.2-10.8-6.3-16.2-9.5l.3-1.2c1 0 2.2-.3 3 .2 11.5 6.5 23.5 7.1 36 3.5 1.4-.4 3-.3 4.5-.5-6 3.1-12.3 4.3-19 3.8-3.1-.3-6.3 0-9.9 0 .5 1.5.9 2.6 1.3 3.7zm-285 102.5c4.1 6.6 7.6 13.6 13.7 18.7-1.4-.4-2.9-.9-4.4-1.3-.2 1.7-.4 3.1-.5 4.5-3.6-6.9-7.2-13.9-10.8-20.8.7-.3 1.4-.7 2-1.1zm192.9-198.5c2.4 5.2 4.9 10.4 7.3 15.5-.4.6-.9 1.3-1.3 1.9-3.8-6.3-7.7-12.5-11.5-18.8 1.8.6 3.7 1 5.5 1.4zm20.9 156.6c-5.4-3-10.9-5.9-16.3-8.9 1.7.2 3.4.3 5.2.5 3.9 1.9 7.7 3.9 11.6 5.8-.2.8-.4 1.7-.5 2.6zm23.8-.7c3.2-.9 6.5-1.8 9.7-2.8 4.1-1.3 8.2-2.6 12.3-4-1.9 1.2-3.8 2.9-5.9 3.3-5.3 1.3-10.1 5.2-16.1 3.5z"/>
    <path fill="#9b8352" d="M119 477.2c-4.8 4.9-9.7 9.7-14.5 14.6 4.8-4.9 9.7-9.8 14.5-14.6z"/>
    <path fill="#f1cb84" d="M288.8 188c-2.2 5.2-4.4 10.5-6.5 15.7-.1-6.2 2.8-11.1 6.5-15.7zm-25.2 264.6c3.5-1 7.1-2 10.6-3-3.1 2.4-6.4 4.3-10.6 3z"/>
    <path fill="#9b8352" d="M128.1 468l-7.2 7.2c2.4-2.3 4.8-4.7 7.2-7.2zm307.3-307.5c-2.4 2.5-4.7 4.9-7.1 7.4 2.4-2.5 4.7-4.9 7.1-7.4z"/>
    <path fill="#f1cb84" d="M347.4 138.8c-.8 3-1.7 5.9-2.5 8.9.8-3 1.7-6 2.5-8.9z"/>
    <path fill="#9b8352" d="M104.4 491.8l-5.4 5.4 5.4-5.4z"/>
    <path fill="#f1cb84" d="M344.7 149.6l-.9 6.3c-2.3-2.5-1.6-4.6.9-6.3zM214.9 304.2c-.3-.5-.6-.9-.9-1.4.8-.5 1.6-.9 2.4-1.4.4.9.7 1.8 1.1 2.8h-2.6zm67-99.4c-.4 1.4-.8 2.8-1.1 4.2.4-1.4.7-2.8 1.1-4.2zm62-42.3c.2 1.5.4 3 .7 4.6-.3-1.5-.5-3.1-.7-4.6zm-6.8 1.9c-.8-1.1-1.6-2.3-2.3-3.4.7 1.1 1.5 2.2 2.3 3.4zm33.2 159.7c1 .3 2 .5 3.1.8-1.1-.3-2.1-.6-3.1-.8z"/>
    <path fill="#9b8352" d="M120.8 475.4c-.6.6-1.2 1.1-1.7 1.7.6-.6 1.2-1.1 1.7-1.7zm321.9-305.8c.6-.6 1.2-1.2 1.7-1.8-.5.6-1.1 1.2-1.7 1.8z"/>
    <path fill="#f1cb84" d="M413.3 317.2c.6-.3 1.3-.6 1.9-1-.6.4-1.3.7-1.9 1z"/>
    <path fill="#9b8352" d="M98.9 497.3l-1.7 1.7 1.7-1.7z"/>
    <path fill="#f1cb84" d="M337.9 165.2c-.2-.1-.4-.2-.4-.5.1.2.2.4.4.5z"/>
    <path fill="#9b8352" d="M427.8 168.5l-1 1 1-1z"/>
    <path fill="#f1cb84" d="M246.9 462h-.4l-.1-.3h.3l.2.3zm125.4-131.9l-.4.1.1-.4c.2 0 .3.1.3.3z"/>
    <path fill="#9b8352" d="M83.8 524c.4.1.8.2 1.3.3-.4 0-.8-.1-1.3-.3zm279.6-291.1c2.3-3 4.3-6.4 7-9.1 5.5-5.6 11.3-10.9 17-16.2.6-.6 1.5-.8 2.3-1.1-.5.9-.8 1.9-1.5 2.6-7.3 7.4-14.7 14.8-22.2 22.2-.7.7-1.7 1.1-2.6 1.6z"/>
    <path fill="#f1cb84" d="M166.3 425.9c1.8-.6 3.6-1.2 5.5-1.8-1.7 1.9-3.4 3.7-5.1 5.6-3.1-1-1.3-2.4-.4-3.8zm33.7-30.1c-1.4-.7-2.7-1.3-4.1-2h6.6c-.9.7-1.7 1.4-2.5 2zm-9.6 9.7c.4-2.8 1.4-4.9 4.7-4.8-1.6 1.6-3.1 3.2-4.7 4.8zm-14.2 14.1c1.4-1.4 2.8-2.9 4.3-4.3l-4.3 4.3zm4.5-4.5c1.1-1.2 2.2-2.3 3.3-3.5-1 1.2-2.2 2.3-3.3 3.5zm14.7-14.6c.8-.8 1.6-1.7 2.5-2.5-.9.8-1.7 1.6-2.5 2.5zm-11.1 10.9c.8-.8 1.7-1.6 2.5-2.4-.8.8-1.6 1.6-2.5 2.4zm13.8-13.7c.5-.5 1-1 1.5-1.6-.4.6-1 1.1-1.5 1.6zm-25.7 25.5c.4-.3.8-.6 1.2-1-.4.4-.8.7-1.2 1zm14.7-14.6c.2-.2.4-.3.6-.5-.2.2-.4.3-.6.5z"/>
    <path fill="#9b8352" d="M236.7 359.8c.3-.3.6-.7.9-1-.3.3-.6.6-.9 1zm7.2-7.4l1-1c-.3.3-.6.7-1 1zm3.7-3.7l1-1-1 1zm3.6-3.6l1-1-1 1zm73.2-73.2c.3-.3.7-.6 1-.9-.3.3-.6.6-1 .9zm-3.7 3.7l1-1-1 1zm-62.1 62.2l1-1c-.4.3-.7.6-1 1zm3.6-3.7l1-1c-.3.3-.6.7-1 1zm54.9-54.9l1-1-1 1zm-7.3 7.4l1-1c-.3.3-.7.6-1 1zm-3.7 3.6l1-1c-.3.3-.6.7-1 1z"/>
    <path fill="#f1cb84" d="M451.3 285.1c-10.8 7.2-20.7 14.8-31.5 20.8-8.7 4.8-18.2 8.6-27.7 11.1-17.6 4.5-34.9-1.2-42.9-18.6-10.4-22.6 5.1-47.1 29.2-48.2 13.2-.6 25.8 2.8 37.1 9.3 11.1 6.4 21.4 14.2 32 21.4 1.2.8 2 2.2 3.8 4.2zm-40.7-65.3c-1.1-19.6 19-38.3 42.2-34.2 18.7 3.3 35.1 11.5 49.9 23.2 3.2 2.5 6.4 5.1 9.7 7.5 2.4 1.8 2.7 3.6.3 5.5-16.1 12.3-32.5 24-52.4 29.6-13.8 3.9-26.8 3.4-38.1-6.5-7.7-6.6-12.1-14.8-11.6-25.1zm-121.4 67c.8 19.6-14.8 36.7-34.9 36.6-21.5-.2-36.9-19.7-33.5-40.8 3.3-20.4 13.8-37 25.4-53.2 2.2-3.1 4.5-6.1 7.1-8.8.6-.7 3.3-.7 3.9 0 15.1 17.4 27.2 36.4 31.5 59.5.5 2.1.4 4.4.5 6.7zm31.6-134c6 8.2 11.6 15.7 16.9 23.4 7.2 10.3 11.9 21.7 14.8 34 3.8 15.8 1.1 31.2-12.2 41-11.2 8.3-23.7 9.3-36.2 3.4-11.9-5.6-18.3-15.8-18.8-29-.5-15.3 5.4-28.8 12.9-41.6 5-8.6 11-16.7 16.7-24.9 1.4-1.9 3.2-3.4 5.9-6.3zM225 316l-2.4 2.1c-1.6-3.1-3.3-6.1-4.9-9.2.5-.4.9-.7 1.4-1.1 2 2.7 4 5.5 5.9 8.2zm62.8-66.9c-.1.2-.2.5-.3.7-.2-.1-.6-.2-.6-.3-.1-.2.2-.4.3-.7.1.1.3.2.6.3zm-161.4 98c3.4 4.2 6.5 7.7 9.3 11.4 9.5 12.7 16.7 26.6 22.1 41.6 6.2 17.1.9 36.9-13.3 46.5-20.2 13.7-48.1 2-52.2-22.1-2.3-13.4 1.4-25.8 7.4-37.3 6.1-11.8 14-22.7 21.2-33.9 1.2-1.9 3.1-3.5 5.5-6.2zm34.8 43.9c4.8 5.9 5.9 12.7 5.2 20-1.7-6.6-3.4-13.3-5.2-20zm5.5 24.9c0 .9.1 1.7.1 2.6 0-.9 0-1.8-.1-2.6zm.1 5.4c.3.2.7.4 1 .7-.4.3-.7.7-1.1 1 0-.6 0-1.1.1-1.7zm90.2 57.2c-6.7 4.9-12.8 9.6-19.1 14-12.2 8.6-25.4 15.6-40.1 18.7-14.2 3-27.5 1.3-37.4-10.5-8.2-9.8-11.3-21.2-6.7-33.7 4.6-12.6 13.8-20 27.1-22.3 11.5-2 22.4 1.2 32.9 5.2 15 5.7 28 15.1 40.4 25.3.8.8 1.4 1.7 2.9 3.3zm216.2-314.2c-14.3.6-28.7-9.1-32.4-24-3.4-13.5-1.1-25.6 12.7-36.4 13.2-10.3 28.6-15.7 45-18.5 5.7-1 11.4-1.7 17.1-2.6 3.4-.6 5.7-.1 5.1 4.3-1.8 14.6-4.3 29.1-9.8 42.9-4 10-8.9 19.3-17.1 26.4-6 5-12.7 8.5-20.6 7.9zm-88.1-76.4c7.3 10.5 14.5 19.8 20.6 29.9 6.1 10 10.2 20.9 12.1 32.6 2.8 16.9-3.3 31.5-18.2 39.8-10.2 5.6-27 5.4-38-4.3-10.7-9.4-14-21.2-11-35 5.2-23.8 18-43.3 34.5-63zM250.4 448.5c-14-.5-28.7-11.7-33.2-27-6.7-22.4 15.5-45.6 39.1-42 21.7 3.3 39.7 13.3 56.5 26.4.4.3.7.6 1 .9 8.9 6.8 8.8 6-.5 12.9-13.4 10-27.1 19.7-43.4 24.4-6.3 2-13 3-19.5 4.4zm17.5-73.5c3.9-.6 7.3.1 10 3.2-3.3-1.1-6.6-2.1-10-3.2zM218 438c-.6-.8-1.1-1.6-1.7-2.3.6.8 1.1 1.6 1.7 2.3zm61-59.4c.9.4 1.8.8 2.7 1.3-.9-.5-1.8-.9-2.7-1.3zm37.3 4.6c-17.6 1.6-34.3-13.6-35.3-32.6-.9-15.9 10.2-31.7 27.9-34.8 15.5-2.7 29.7 1.8 42.8 9.1 10.9 6.1 20.9 14 31.3 20.9 2.8 1.9 3 3.8.5 5.7-17.5 13.5-35.4 26.2-57.6 30.7-3.2.8-6.4.7-9.6 1zm14.9-72.6c2.1.6 4.2 1.1 6.3 1.7-2.1-.6-4.2-1.2-6.3-1.7zm8.1 2.2c1 .4 1.9.7 2.9 1.1-1-.4-1.9-.8-2.9-1.1zm5.4 2c.7.3 1.3.6 2 .9-.6-.3-1.3-.6-2-.9zm-19.2-5.4c.7.2 1.5.4 2.2.6-.8-.2-1.5-.4-2.2-.6zm-134.8-27.8c7.2 10.3 14 19.2 19.9 28.7 6.4 10.2 11 21.3 13.1 33.3 4.6 26.3-12.6 45.2-35.2 44.6-13.1-.3-23-7.2-28.6-19.3-2-4.3-3.4-8.9-5-13.4-.1-.3-.1-.6 0-.9 1-5.4 1.4-11.1 3.3-16.2 4.7-12.8 9.6-25.5 17.8-36.6 4.4-6.3 9-12.5 14.7-20.2zm3.3 112.5c-.1.3-.3.8-.3.8-4.8-.6-9.5-1.3-14.3-2 4.9.4 9.8.8 14.6 1.2zm-24.5-5.4c-.6-.4-1.3-.9-1.9-1.3.6.5 1.2.9 1.9 1.3zm.7 1c-.1-.2-.3-.4-.4-.6.3.1.4.3.4.6z"/>
</svg>
