<svg xmlns="http://www.w3.org/2000/svg" width="500" height="500" viewBox="0 0 500 500">
    <path fill="#323232" d="M250 33.58c-4.4 11.28-13 21.81-21.7 25.68 6.4 2.8 13 12.16 13 20.76s-6.5 15.74-14.53 15.74-14.54-7-14.54-15.74c-20.62.74-31.1-10.8-31.1-10.8l28.28 46.07c7.32-3 21.78-6.45 38.79-6.78h3.7c17 .33 31.47 3.76 38.79 6.78L319 69.22S308.5 80.76 287.87 80c0 8.7-6.5 15.74-14.53 15.74S258.8 88.72 258.8 80s6.56-18 13-20.76c-8.68-3.85-17.35-14.38-21.8-25.66zm-68.11 91.64c4.22-1.21 9.15-3 13.68-4.71l-8.1-13.09c-7.77 4.45-32.82 9.56-48.31 12-20 3.07-31.84-10.76-39.58-39.11-.24 13.11 5.64 43.56 19 56.67 21.6 2.02 51.9-8.48 63.31-11.76zm18.83 300.44s-58.79-32.88-69-39.88c-9.23-6.31-9.47-10.92-9.47-16.51s-1.43-65.73-1.46-84.15c-3.84-.48-17.5-4-17.5-4v95.42c0 15.53 13.6 21.85 13.6 21.85s69.68 39.09 107.55 59.72c-19.01-18.11-23.72-32.45-23.72-32.45zm103.82-305.15c4.53 1.74 9.46 3.5 13.68 4.71 11.41 3.28 41.71 13.82 63.32 11.71 13.35-13.11 19.23-43.56 19-56.67-7.74 28.35-19.63 42.18-39.58 39.11-15.49-2.39-40.54-7.5-48.31-12zm73.33 248.76c0 5.59-.24 10.2-9.47 16.51-10.22 7-69 39.88-69 39.88s-4.71 14.35-23.73 32.47c37.87-20.63 107.55-59.72 107.55-59.72s13.6-6.32 13.6-21.85c0-18 .19-95.42.19-95.42s-13.83 3.5-17.67 4c-.04 18.4-1.47 78.6-1.47 84.13z"/>
    <g fill="#910f1b">
        <path d="M58.78 107s3.09-22.61 20.46-40.7C90 53.69 90.73 44.63 88.3 39.86s-7.87-8.71-14.47-10.55c7.58 7 7.48 12.27 3.36 18-6.5 8.96-35.52 31.05-18.41 59.69zm382.44 0s-3.09-22.61-20.46-40.7C410 53.69 409.27 44.63 411.7 39.86s7.87-8.71 14.47-10.55c-7.58 7-7.48 12.27-3.36 18 6.5 8.96 35.52 31.05 18.41 59.69z"/>
        <path d="M343.21 245s43.41 23.11 93.22-15.36c-5.17 19.54-33.31 42.66-68.43 42.66-22.55 0-36.36-9.26-52.43-12.08-11.91-2.09-26.07-1.2-27.35 9.72-1.84 15.69 16.56 20.91 32.79 17.41-4.56 7.91-36.8 20.22-50.18 6.54-.15 20.37 8.06 76 55.5 72.53 5.32 8.06 14.3 15.36 22.66 17.95-8.36 5.47-27.37 15.51-27.37 15.51s-45.62-10-55.81-65.69c0 49.26 13.69 81.8 23.12 86.52-1.83 6.39-8.2 14.61-13.84 20.53C269.59 447 251 461 250 470.69c-1-9.65-19.59-23.74-25.09-29.5-5.64-5.92-12-14.14-13.84-20.53 9.43-4.72 23.12-37.26 23.12-86.52-10.19 55.65-55.81 65.69-55.81 65.69s-19-10-27.37-15.51c8.36-2.59 17.34-9.89 22.66-17.95 47.44 3.5 55.65-52.16 55.5-72.53-13.38 13.68-45.62 1.37-50.18-6.54 16.23 3.5 34.63-1.72 32.79-17.41-1.28-10.92-15.44-11.81-27.35-9.72-16.07 2.83-29.88 12.08-52.43 12.08-35.12 0-63.25-23.12-68.42-42.66 49.8 38.47 93.21 15.36 93.21 15.36s-86 17.58-113.08-61.48c-12.51-36.56 11.29-69.54 4.2-73.85C57.7 110.05 58 128.11 58.2 140a46.47 46.47 0 0014 33.26S44.35 117.34 87.75 70c0 0-.09 47.12 17.87 70.79 41.92 55.24 53.59 27.74 88 57.86 0 0-8.75-9.05-7.5-18.45 7.5 16.42 28.38 20.68 37.91 20.68h5.67c5.31-.41 8.92-4 8.84-14.66-.08-9.45 1.45-14.78 1.45-14.78s-2.93 10.61-9.32 13.49c-5 2.28-9.82-.41-10.31-4.29 3.64 1.46 8.88 1.92 11.63-5.33 3.5-9.18 10.91-29.31 13.81-32 1.22-1.45 3.4.48 3.4.48s-1.7-16.47 11.14-14.53c-3.39 2.18-3.63 7.27-3.63 15.5 1.69-4.6 6.05-6.78 9.21-6.3-4.37 2.18-5.34 10.42-5.34 18.9s-.79 26.44 11.15 40a11.28 11.28 0 01-8-5.81s-.42 9.21 8.67 9.33h3.6c9.53 0 30.41-4.26 37.91-20.68 1.25 9.4-7.5 18.45-7.5 18.45 34.38-30.12 46-2.62 88-57.86 18-23.67 17.87-70.79 17.87-70.79 43.4 47.34 15.51 103.25 15.51 103.25a46.47 46.47 0 0014-33.26c.19-11.88.5-29.94 10.29-30.37-7 4.31 16.71 37.29 4.2 73.85C429.24 262.53 343.21 245 343.21 245zm-90.65-92.41l-4.12-4.61v11.39z"/>
    </g>
</svg>
