<svg xmlns="http://www.w3.org/2000/svg" width="300.30444" height="300" viewBox="0 0 300.30444 300">
    <path class="color-gray" fill="#323232" stroke-width=".453124" d="M150.15226 51.934837c-1.99374 5.11124-5.89061 9.88264-9.83279 11.63623 2.89999 1.26875 5.89061 5.50999 5.89061 9.40686s-2.94531 7.13218-6.58389 7.13218c-3.63859 0-6.58843-3.17187-6.58843-7.13218-9.34342.33531-14.09217-4.89374-14.09217-4.89374l12.81436 20.87544c3.31687-1.35938 9.86904-2.92266 17.57669-3.07219h1.67656c7.70311.14953 14.25982 1.70375 17.57669 3.07219l12.82795-20.87544s-4.75781 5.22905-14.10576 4.88468c0 3.94218-2.94531 7.13218-6.5839 7.13218-3.63858 0-6.58842-3.18094-6.58842-7.13218s2.97249-8.15624 5.89061-9.40686c-3.93312-1.74453-7.8617-6.51593-9.87811-11.62717zm-30.86229 41.52431c1.91218-.54828 4.14608-1.35937 6.19874-2.13421l-3.67031-5.9314c-3.52078 2.0164-14.87154 4.33187-21.890434 5.43749-9.06249 1.39109-14.42748-4.87562-17.93466-17.72169-.10875 5.94046 2.55562 19.73809 8.60936 25.67855 9.787484.91531 23.517154-3.84249 28.687304-5.32874zm8.53233 136.136663s-26.63918-14.89872-31.265584-18.07059c-4.18234-2.85922-4.29109-4.94812-4.29109-7.48109 0-2.53296-.64796-29.78386-.66156-38.1304-1.73999-.2175-7.92967-1.8125-7.92967-1.8125v43.23712c0 7.03702 6.16249 9.90076 6.16249 9.90076s31.573704 17.71263 48.733524 27.06059c-8.6139-8.20608-10.74811-14.70389-10.74811-14.70389zm47.04336-138.270873c2.05265.78843 4.28656 1.58593 6.19874 2.13421 5.17015 1.48625 18.89982 6.26218 28.69183 5.30609 6.04921-5.94046 8.71358-19.7381 8.60936-25.67856-3.50718 12.84608-8.89483 19.11279-17.93466 17.72169-7.01889-1.08296-18.36965-3.39843-21.89043-5.43749zm33.22761 112.719193c0 2.53297-.10875 4.62187-4.29109 7.48109-4.63093 3.17187-31.26558 18.07059-31.26558 18.07059s-2.13421 6.50234-10.75264 14.71295c17.15982-9.34796 48.73352-27.06058 48.73352-27.06058s6.16249-2.86375 6.16249-9.90077c0-8.15624.0861-43.23712.0861-43.23712s-6.2667 1.58594-8.0067 1.8125c-.0181 8.33748-.66609 35.61557-.66609 38.12134z"/>
    <g class="color-red" fill="#910f1b">
        <path d="M63.505832 85.203226s1.400154-10.24514 9.270923-18.442159c4.875617-5.713897 5.206398-9.819203 4.105306-11.980606C75.780969 52.619058 73.315973 50.83375 70.325352 50c3.434682 3.17187 3.38937 5.559835 1.522498 8.156237-2.945308 4.059994-16.094975 14.06951-8.342018 27.046989zm173.292853 0s-1.400154-10.24514-9.270923-18.442159c-4.875617-5.713897-5.206398-9.819203-4.105306-11.980606 1.101092-2.161403 3.566088-3.946712 6.556709-4.780461-3.434682 3.17187-3.38937 5.559835-1.522498 8.156237 2.945308 4.059994 16.094975 14.06951 8.342018 27.046989z"/>
        <path d="M192.387974 147.734378s19.670125 10.471702 42.240246-6.959989c-2.342653 8.854049-15.09357 19.330282-31.007295 19.330282-10.217953 0-16.4756-4.19593-23.757307-5.473741-5.39671-.94703-11.81295-.54375-12.39295 4.404368-.833748 7.10952 7.50374 9.474829 14.857946 7.888894-2.066246 3.584213-16.674974 9.162173-22.737777 2.963433-.067968 9.230141 3.652182 34.437446 25.148399 32.865104 2.41062 3.652182 6.479677 6.95999 10.267796 8.133581-3.78812 2.47859-12.402012 7.027958-12.402012 7.027958s-20.67153-4.531243-25.288866-29.765735c0 22.320903 6.203271 37.065567 10.476233 39.204314-.829217 2.895464-3.71562 6.620146-6.27124 9.302642-2.492184 2.609996-10.915764 8.953736-11.368888 13.34451-.453125-4.37265-8.876705-10.75717-11.368889-13.367166-2.55562-2.682496-5.437491-6.407178-6.27124-9.302642 4.272962-2.138747 10.476233-16.883411 10.476233-39.204314-4.617336 25.216367-25.288866 29.765735-25.288866 29.765735s-8.609362-4.531243-12.402012-7.027958c3.78812-1.173592 7.857175-4.4814 10.267796-8.13358 21.496217 1.585934 25.216367-23.634964 25.148399-32.865106-6.062803 6.19874-20.67153.62078-22.737777-2.963432 7.354207 1.585935 15.691694-.779374 14.857945-7.888894-.579999-4.948118-6.996239-5.351398-12.39295-4.404368-7.281707 1.282341-13.539353 5.473741-23.757306 5.473741-15.913725 0-28.660111-10.476234-31.002764-19.330282 22.56559 17.431691 42.235715 6.959989 42.235715 6.959989s-38.968689 7.965925-51.239294-27.858082c-5.668585-16.566224 5.115773-31.510263 1.903122-33.463228 4.436087.194843 4.572024 8.378268 4.662649 13.765916a21.056686 21.056686 0 006.34374 15.070913s-12.619512-25.33871 7.046082-46.789614c0 0-.04078 21.351217 8.097332 32.076669 18.99497 25.030586 24.28293 12.569668 39.874937 26.217771 0 0-3.964838-4.100775-3.398432-8.360143 3.398432 7.4403 12.859667 9.37061 17.177942 9.37061h2.569214c2.40609-.18578 4.04187-1.812497 4.00562-6.642802-.03625-4.282024.65703-6.697177.65703-6.697177s-1.327655 4.807649-4.223119 6.112647c-2.265621 1.033123-4.44968-.185781-4.671711-1.943903 1.649372.661561 4.023743.869998 5.269835-2.415153 1.585935-4.15968 4.943586-13.281073 6.257646-14.499977.552812-.65703 1.540623.2175 1.540623.2175s-.770311-7.462957 5.047805-6.583896c-1.536092.98781-1.644842 3.294213-1.644842 7.023426.76578-2.084372 2.741402-3.072182 4.173275-2.854683-1.980153.987811-2.419684 4.721555-2.419684 8.56405 0 3.842493-.357968 11.980606 5.052336 18.12497a5.111242 5.111242 0 01-3.624994-2.632651s-.190312 4.173274 3.928588 4.22765h1.631247c4.318275 0 13.77951-1.93031 17.177942-9.37061.566405 4.259367-3.398432 8.360142-3.398432 8.360142 15.578413-13.648103 20.843717-1.187185 39.874937-26.217771 8.156237-10.725452 8.097331-32.076669 8.097331-32.076669 19.665594 21.450904 7.027958 46.785083 7.027958 46.785083a21.056686 21.056686 0 006.34374-15.070914c.086094-5.383116.226562-13.56654 4.662649-13.761384-3.17187 1.952965 7.571707 16.897004 1.903122 33.463228-12.25248 35.824007-51.234763 27.880738-51.234763 27.880738zm-41.075717-41.873216l-1.866872-2.088903v5.161086z"/>
    </g>
</svg>
