<svg xmlns="http://www.w3.org/2000/svg" width="300.304" height="300" viewBox="0 0 300.304 300">
  <path class="color-gray" fill="#323232" d="M150.152 51.935c-1.993 5.111-5.89 9.882-9.833 11.636 2.9 1.269 5.891 5.51 5.891 9.407s-2.945 7.132-6.584 7.132c-3.638 0-6.588-3.172-6.588-7.132-9.344.335-14.092-4.894-14.092-4.894L131.76 88.96c3.317-1.36 9.869-2.923 17.577-3.073h1.676c7.703.15 14.26 1.704 17.577 3.073l12.828-20.876s-4.758 5.23-14.106 4.885c0 3.942-2.945 7.132-6.584 7.132-3.638 0-6.588-3.18-6.588-7.132s2.972-8.156 5.89-9.407c-3.933-1.745-7.861-6.516-9.878-11.627zM119.29 93.459c1.912-.548 4.146-1.36 6.199-2.134l-3.67-5.931c-3.521 2.016-14.872 4.331-21.891 5.437-9.063 1.391-14.428-4.876-17.935-17.722-.108 5.94 2.556 19.738 8.61 25.679 9.787.915 23.517-3.843 28.687-5.329zm8.532 136.137s-26.639-14.899-31.265-18.07c-4.183-2.86-4.291-4.949-4.291-7.482 0-2.533-.648-29.784-.662-38.13-1.74-.218-7.93-1.813-7.93-1.813v43.237c0 7.037 6.163 9.901 6.163 9.901s31.574 17.713 48.733 27.06c-8.613-8.205-10.748-14.703-10.748-14.703zm47.044-138.271c2.052.788 4.286 1.586 6.198 2.134 5.17 1.486 18.9 6.262 28.692 5.306 6.05-5.94 8.714-19.738 8.61-25.678-3.508 12.846-8.895 19.112-17.935 17.721-7.019-1.083-18.37-3.398-21.89-5.437zm33.227 112.72c0 2.532-.108 4.621-4.29 7.48-4.632 3.172-31.266 18.07-31.266 18.07s-2.135 6.503-10.753 14.714c17.16-9.348 48.733-27.06 48.733-27.06s6.163-2.865 6.163-9.902c0-8.156.086-43.237.086-43.237s-6.267 1.586-8.007 1.813c-.018 8.337-.666 35.615-.666 38.121z"/>
  <g class="color-red" fill="#910f1b">
    <path d="M63.506 85.203s1.4-10.245 9.27-18.442c4.876-5.714 5.207-9.82 4.106-11.98-1.101-2.162-3.566-3.947-6.557-4.781 3.435 3.172 3.39 5.56 1.523 8.156-2.945 4.06-16.095 14.07-8.342 27.047zm173.293 0s-1.4-10.245-9.271-18.442c-4.876-5.714-5.207-9.82-4.106-11.98 1.102-2.162 3.567-3.947 6.557-4.781-3.435 3.172-3.39 5.56-1.522 8.156 2.945 4.06 16.095 14.07 8.342 27.047z"/>
    <path d="M192.388 147.734s19.67 10.472 42.24-6.96c-2.342 8.854-15.093 19.33-31.007 19.33-10.218 0-16.476-4.195-23.757-5.473-5.397-.947-11.813-.544-12.393 4.404-.834 7.11 7.503 9.475 14.858 7.89-2.067 3.583-16.675 9.161-22.738 2.963-.068 9.23 3.652 34.437 25.148 32.865 2.41 3.652 6.48 6.96 10.268 8.133-3.788 2.479-12.402 7.028-12.402 7.028s-20.672-4.531-25.289-29.765c0 22.32 6.203 37.065 10.476 39.204-.829 2.895-3.715 6.62-6.27 9.302-2.493 2.61-10.917 8.954-11.37 13.345-.453-4.373-8.876-10.757-11.369-13.367-2.555-2.683-5.437-6.407-6.27-9.303 4.272-2.139 10.475-16.883 10.475-39.204-4.617 25.216-25.289 29.766-25.289 29.766s-8.609-4.532-12.402-7.028c3.789-1.174 7.858-4.482 10.268-8.134 21.496 1.586 25.217-23.635 25.149-32.865-6.063 6.199-20.672.62-22.738-2.963 7.354 1.585 15.692-.78 14.858-7.89-.58-4.947-6.996-5.35-12.393-4.404-7.282 1.283-13.54 5.474-23.757 5.474-15.914 0-28.66-10.476-31.003-19.33 22.565 17.431 42.236 6.96 42.236 6.96s-38.97 7.966-51.24-27.858c-5.668-16.567 5.116-31.51 1.903-33.464 4.436.195 4.572 8.379 4.663 13.766a21.057 21.057 0 0 0 6.344 15.071s-12.62-25.338 7.046-46.79c0 0-.04 21.352 8.097 32.077 18.995 25.03 24.283 12.57 39.875 26.218 0 0-3.965-4.1-3.398-8.36 3.398 7.44 12.86 9.37 17.178 9.37h2.569c2.406-.185 4.042-1.812 4.005-6.642-.036-4.282.657-6.697.657-6.697s-1.327 4.807-4.223 6.112c-2.265 1.033-4.45-.186-4.671-1.944 1.649.662 4.023.87 5.27-2.415 1.585-4.16 4.943-13.28 6.257-14.5.553-.657 1.54.218 1.54.218s-.77-7.463 5.049-6.584c-1.537.988-1.645 3.294-1.645 7.023.766-2.084 2.741-3.072 4.173-2.854-1.98.987-2.42 4.721-2.42 8.564 0 3.842-.358 11.98 5.053 18.125a5.111 5.111 0 0 1-3.625-2.633s-.19 4.173 3.928 4.228h1.631c4.319 0 13.78-1.93 17.178-9.371.567 4.26-3.398 8.36-3.398 8.36 15.578-13.648 20.844-1.187 39.875-26.218 8.156-10.725 8.097-32.076 8.097-32.076 19.666 21.45 7.028 46.785 7.028 46.785a21.057 21.057 0 0 0 6.344-15.071c.086-5.383.227-13.567 4.663-13.762-3.172 1.953 7.571 16.897 1.903 33.464-12.253 35.824-51.235 27.88-51.235 27.88zm-41.076-41.873-1.867-2.089v5.161z"/>
  </g>
</svg>
