<svg xmlns="http://www.w3.org/2000/svg" width="500" height="500" viewBox="0 0 500 500">
    <path fill="#161823" d="M195.56 92.2s1.93 6.63 3 13c-3.36 5.69-7.73 16-12.7 26.5-10.48 6.9-15.45 10.48-25.11 15.45-2.48 15.73 2.48 40.57 27.05 52.16-2.76-3.86-3.59-7.17-1.38-9.66s27.87-39.19 31.18-47.19 4.69-10.49 2.49-14.07c-3.79-6.24-24.53-36.19-24.53-36.19zm108.86 0s-1.93 6.63-3 13c3.36 5.69 7.73 16 12.7 26.5 10.48 6.9 15.45 10.48 25.11 15.45 2.48 15.73-2.48 40.57-27.05 52.16 2.76-3.86 3.59-7.17 1.38-9.66s-27.87-39.19-31.18-47.19-4.69-10.49-2.48-14.07c3.78-6.24 24.52-36.19 24.52-36.19z"/>
    <path fill="#fff" d="M208.38 142.47l-14.61-3.68 7.63 9.18 6.98-5.5zm81.29 0l14.6-3.68-7.63 9.18-6.97-5.5z"/>
    <path fill="#161823" d="M384.62 141.38s33.9-61.7-3.7-92.52c-15.81-15.2-49.66 19.37-49.66 19.37zM119.13 48.86a46.54 46.54 0 00-11.55 13.91l9.93 14.35-14.45-2.41c-7.38 30.72 12.36 66.67 12.36 66.67l53.37-73.15s-33.85-34.57-49.66-19.37zm173.06 144.65a283.16 283.16 0 00-38.74 8.16v-12.41l5.24-5a42.69 42.69 0 0111-1.39c7-.1 16.28-9 12.83-21.9-13.37 2.95-32.56 6.77-32.57 6.77s-19.19-3.82-32.57-6.77c-3.44 12.92 5.81 21.8 12.84 21.9a42.69 42.69 0 0111 1.39l5.23 5v14.43c-21.42 6.45-41 14.63-47.56 21.49-1.22 1.27 52.31-17.16 88.38-17.6 7.48 4.84 14.56 16.28 14.56 16.28a66.33 66.33 0 00-9.64-30.35z"/>
    <path fill="#161823" d="M146.8 334.15c18.58 11.4 31.18 18.56 38.27 22.46-6.48-10.92-11.3-22.2-13.57-33 57.09 47.91 78.5 52.88 78.5 52.88s21.39-5 78.48-52.92c-2.27 10.84-7.09 22.12-13.57 33 7.09-3.9 19.69-11.06 38.27-22.46 30.84-18.93 72.56-54.4 72.84-82.4C424.91 233 421.39 210 417 194c-6 54.12-49.3 91.77-71.34 102.28 0 0 5.89-14.91 6.1-25.87C290.82 325.46 250 333 250 333s-40.84-7.53-101.77-62.54c.21 11 6.1 25.87 6.1 25.87C132.26 285.81 88.94 248.16 83 194c-4.44 16-8 39-9 57.75.24 28 42 63.47 72.8 82.4z"/>
    <path fill="#b4926a" d="M306.27 375.76C281.21 404.31 250 418.7 250 418.7c-39.72-20.27-124.84-76.19-143-91.94-17.73-15.41-29.87-34-32.59-51.31-.92-5.82-1-14.21-.45-23.7.28 28 42 63.47 72.84 82.4 18.58 11.4 31.18 18.56 38.27 22.46-6.48-10.92-11.3-22.2-13.57-33 57.09 47.91 78.5 52.88 78.5 52.88s21.39-5 78.48-52.92c-2.27 10.84-7.09 22.12-13.57 33 7.09-3.9 19.69-11.06 38.27-22.46 30.84-18.93 72.56-54.4 72.84-82.4.55 9.49.63 17.91-.45 23.7-4 21.42-26.52 70.82-104.43 132.86-38.47 30.4-90.81 54-96.17 56.69 29.93-24.2 59.8-50.82 81.3-89.2z"/>
</svg>
