<svg xmlns="http://www.w3.org/2000/svg" width="300.01443" height="300" viewBox="0 0 300.01443 300">
    <path class="color-black" fill="#161823" stroke-width=".476233" d="M124.07395 72.479275s.91913 3.15743 1.4287 6.19103c-1.60015 2.70977-3.68129 7.61973-6.04816 12.62018-4.99093 3.28601-7.35781 4.99093-11.95822 7.35781-1.18106 7.491145 1.18106 19.320775 12.88211 24.840325-1.31441-1.83826-1.70968-3.4146-.6572-4.60042 1.05247-1.18582 13.27262-18.66358 14.84895-22.473445 1.57633-3.80986 2.23353-4.99568 1.18582-6.7006-1.80492-2.97169-11.682-17.23488-11.682-17.23488zm51.84276 0s-.91913 3.15743-1.4287 6.19103c1.60014 2.70977 3.68128 7.61973 6.04816 12.62018 4.99092 3.28601 7.3578 4.99093 11.95822 7.35781 1.18106 7.491145-1.18106 19.320775-12.88211 24.840325 1.3144-1.83826 1.70967-3.4146.6572-4.60042-1.05248-1.18582-13.27262-18.66358-14.84896-22.473445-1.57633-3.80986-2.23353-4.99568-1.18106-6.7006 1.80017-2.97169 11.67725-17.23488 11.67725-17.23488z"/>
    <path class="color-white" fill="#fff" stroke-width=".476233" d="M130.17926 96.419525l-6.95777-1.75254 3.63366 4.37182zm38.713 0l6.95301-1.75254-3.63366 4.37182z"/>
    <path class="color-black" fill="#161823" stroke-width=".476233" d="M214.11062 95.900425s16.1443-29.38359-1.76207-44.0611c-7.52925-7.23875-23.64974 9.22464-23.64974 9.22464zm-126.435182-44.0611a22.163898 22.163898 0 00-5.5005 6.6244l4.729 6.83395-6.88157-1.14772c-3.5146 14.62989 5.88624 31.75047 5.88624 31.75047l25.416572-34.83646s-16.120492-16.46339-23.649742-9.22464zm82.416932 68.887135a134.85022 134.85022 0 00-18.44928 3.88607v-5.91006l2.49547-2.38116a20.3304 20.3304 0 015.23856-.66197c3.33364-.0476 7.75308-4.2861 6.11008-10.42951-6.36724 1.40489-15.50616 3.2241-15.51092 3.2241-.005 0-9.13892-1.81921-15.51092-3.2241-1.63824 6.15294 2.76691 10.38189 6.11483 10.42951a20.3304 20.3304 0 015.23857.66197l2.4907 2.38116v6.87205c-10.20092 3.0717-19.52556 6.96729-22.64965 10.23425-.58101.60482 24.91176-8.17216 42.08949-8.3817 3.56223 2.30497 6.93396 7.75308 6.93396 7.75308a31.588555 31.588555 0 00-4.59089-14.45369z"/>
    <path class="color-black" fill="#161823" stroke-width=".476233" d="M100.85281 187.70392c8.84842 5.42906 14.84896 8.83889 18.22545 10.6962-3.08599-5.20047-5.38144-10.57238-6.46249-15.7157 27.18816 22.81633 37.38432 25.18321 37.38432 25.18321s10.18663-2.38116 37.37479-25.20226c-1.08105 5.16237-3.3765 10.53428-6.46249 15.7157 3.3765-1.85731 9.37704-5.26714 18.22545-10.6962 14.68704-9.0151 34.55549-25.9071 34.68883-39.24163-.52861-8.91032-2.20496-19.86369-4.29562-27.48342-2.8574 25.77375-23.4783 43.70393-33.97448 48.70914 0 0 2.80501-7.10064 2.90502-12.32015-29.02166 26.21664-48.4615 29.80744-48.4615 29.80744s-19.44937-3.58604-48.46626-29.78363c.10001 5.23856 2.90502 12.32015 2.90502 12.32015-10.510472-5.00997-31.140902-22.94016-33.969722-48.73295-2.11448 7.61973-3.80987 18.5731-4.2861 27.50247.11429 13.33453 20.0018 30.22653 34.669782 39.24163z"/>
    <path class="color-lightBrown" fill="#b4926a" stroke-width=".476233" d="M176.79774 207.51998c-11.93441 13.59646-26.79765 20.44946-26.79765 20.44946-18.91599-9.65325-59.452972-36.28421-68.101362-43.78489-8.44362-7.33875-14.22509-16.19193-15.52045-24.43553-.43813-2.77168-.47623-6.76727-.2143-11.28673.13334 13.33453 20.0018 30.22653 34.688832 39.24163 8.84842 5.42906 14.84896 8.83889 18.22545 10.6962-3.08599-5.20047-5.38144-10.57238-6.46249-15.7157 27.18816 22.81633 37.38432 25.18321 37.38432 25.18321s10.18663-2.38116 37.37479-25.20226c-1.08105 5.16237-3.3765 10.53428-6.46249 15.7157 3.3765-1.85731 9.37704-5.26714 18.22545-10.6962 14.68704-9.0151 34.55549-25.9071 34.68883-39.24163.26193 4.51946.30003 8.52934-.2143 11.28673-1.90493 10.20092-12.62971 33.72684-49.73304 63.27236-18.3207 14.47749-43.24675 25.7166-45.79936 26.99766 14.25366-11.52484 28.47875-24.20217 38.71777-42.48001z"/>
</svg>
