<svg xmlns="http://www.w3.org/2000/svg" width="300.014" height="300" viewBox="0 0 300.014 300">
  <path class="color-black" fill="#161823" d="M124.074 72.48s.92 3.157 1.429 6.19c-1.6 2.71-3.682 7.62-6.049 12.62-4.99 3.286-7.357 4.991-11.958 7.358-1.18 7.491 1.181 19.321 12.882 24.84-1.314-1.838-1.71-3.414-.657-4.6 1.053-1.186 13.273-18.663 14.85-22.473 1.575-3.81 2.233-4.996 1.185-6.7-1.805-2.973-11.682-17.236-11.682-17.236zm51.843 0s-.92 3.157-1.429 6.19c1.6 2.71 3.681 7.62 6.048 12.62 4.991 3.286 7.358 4.991 11.958 7.358 1.181 7.491-1.18 19.321-12.882 24.84 1.315-1.838 1.71-3.414.657-4.6-1.052-1.186-13.272-18.663-14.848-22.473-1.577-3.81-2.234-4.996-1.182-6.7 1.8-2.973 11.678-17.236 11.678-17.236z"/>
  <path class="color-white" fill="#fff" d="m130.18 96.42-6.959-1.753 3.634 4.372zm38.712 0 6.953-1.753-3.633 4.372z"/>
  <path class="color-black" fill="#161823" d="M214.11 95.9s16.145-29.383-1.761-44.06c-7.53-7.24-23.65 9.224-23.65 9.224zM87.676 51.84a22.164 22.164 0 0 0-5.5 6.624l4.729 6.834-6.882-1.148C76.508 78.78 85.91 95.9 85.91 95.9l25.416-34.836s-16.12-16.463-23.65-9.225zm82.417 68.886a134.85 134.85 0 0 0-18.449 3.887v-5.91l2.496-2.382a20.33 20.33 0 0 1 5.238-.662c3.334-.047 7.753-4.286 6.11-10.43-6.367 1.406-15.506 3.225-15.51 3.225-.006 0-9.14-1.82-15.512-3.224-1.638 6.153 2.767 10.382 6.115 10.43a20.33 20.33 0 0 1 5.239.661l2.49 2.381v6.873c-10.2 3.071-19.525 6.967-22.65 10.234-.58.605 24.913-8.172 42.09-8.382 3.563 2.305 6.934 7.753 6.934 7.753a31.589 31.589 0 0 0-4.59-14.454z"/>
  <path class="color-black" fill="#161823" d="M100.853 187.704c8.848 5.429 14.849 8.839 18.225 10.696-3.086-5.2-5.381-10.572-6.462-15.716C139.804 205.501 150 207.868 150 207.868s10.187-2.382 37.375-25.203c-1.081 5.163-3.377 10.535-6.463 15.716 3.377-1.857 9.377-5.267 18.226-10.696 14.687-9.015 34.555-25.907 34.689-39.242-.529-8.91-2.205-19.863-4.296-27.483-2.857 25.774-23.478 43.704-33.974 48.709 0 0 2.805-7.1 2.905-12.32C169.44 183.565 150 187.156 150 187.156s-19.45-3.586-48.466-29.783c.1 5.238 2.905 12.32 2.905 12.32-10.51-5.01-31.141-22.94-33.97-48.733-2.114 7.62-3.81 18.573-4.286 27.502.114 13.335 20.002 30.227 34.67 39.242z"/>
  <path class="color-lightBrown" fill="#b4926a" d="M176.798 207.52C164.863 221.116 150 227.97 150 227.97c-18.916-9.654-59.453-36.285-68.101-43.785-8.444-7.34-14.225-16.192-15.52-24.436-.439-2.772-.477-6.767-.215-11.287.133 13.335 20.002 30.227 34.689 39.242 8.848 5.429 14.849 8.839 18.225 10.696-3.086-5.2-5.381-10.572-6.462-15.716C139.804 205.501 150 207.868 150 207.868s10.187-2.382 37.375-25.203c-1.081 5.163-3.377 10.535-6.463 15.716 3.377-1.857 9.377-5.267 18.226-10.696 14.687-9.015 34.555-25.907 34.689-39.242.262 4.52.3 8.53-.215 11.287-1.905 10.2-12.63 33.727-49.733 63.272C165.56 237.48 140.633 248.72 138.08 250c14.254-11.525 28.479-24.202 38.718-42.48z"/>
</svg>
