<svg xmlns="http://www.w3.org/2000/svg" width="279.995" height="280" viewBox="0 0 279.995 280">
  <g class="color-blue" fill="#0072ce">
    <path d="M194.953 169.569c-14.489 25.591-25.498 20.32-28.315 17.884-.445-.4-.858-.826-.858-.826-4.307-5.37-.445-13.25 4.244-18.694 26.774-31.044 15.111-75.004 15.111-75.004-4.048 22.667-7.555 16.471-7.555 16.471-.538-1.169.533-8.733.533-8.733-9.924 22.489-27.698 29.204-35.204 32.564-24.667 11.031-22.582 30.725-22.582 30.725 8.15-17.96 26.502-22.427 26.502-22.427-9.222 6.982-7.591 23.827-8.445 40.644C136.318 224.076 100.95 240 100.95 240c98.978-15.458 94.004-70.431 94.004-70.431z"/>
    <path d="M138.967 128.236C195.753 106.298 173.633 40 173.633 40c-6.773 37.249-27.333 47.529-43.858 54.884-68.808 30.623-37.813 90.6-37.813 90.6-4.338-40.182 43.391-55.853 47.005-57.248z"/>
  </g>
</svg>
