<svg xmlns="http://www.w3.org/2000/svg" width="500" height="500" viewBox="0 0 500 500">
    <g fill="#0072ce">
        <path d="M374.65 306.53c-32.6 57.58-57.37 45.72-63.71 40.24-1-.9-1.93-1.86-1.93-1.86-9.69-12.08-1-29.81 9.55-42.06 60.24-69.85 34-168.76 34-168.76-9.11 51-17 37.06-17 37.06-1.21-2.63 1.2-19.65 1.2-19.65-22.33 50.6-62.32 65.71-79.21 73.27-55.5 24.82-50.81 69.13-50.81 69.13 18.34-40.41 59.63-50.46 59.63-50.46-20.75 15.71-17.08 53.61-19 91.45C242.72 429.17 163.14 465 163.14 465c222.7-34.78 211.51-158.47 211.51-158.47z"/>
        <path d="M248.68 213.53c127.77-49.36 78-198.53 78-198.53-15.24 83.81-61.5 106.94-98.68 123.49-154.82 68.9-85.08 203.85-85.08 203.85-9.76-90.41 97.63-125.67 105.76-128.81z"/>
    </g>
</svg>
