<svg xmlns="http://www.w3.org/2000/svg" width="279.99472" height="280" viewBox="0 0 279.99472 280">
    <g class="color-blue" fill="#0072ce">
        <path d="M194.95325 169.568887c-14.488888 25.591111-25.497777 20.32-28.315555 17.884444-.444444-.4-.857778-.826666-.857778-.826666-4.306666-5.368889-.444444-13.248889 4.244445-18.693333 26.773333-31.044444 15.11111-75.004444 15.11111-75.004444-4.048888 22.666666-7.555555 16.47111-7.555555 16.47111-.537777-1.168888.533334-8.733332.533334-8.733332-9.924445 22.488888-27.697778 29.204444-35.204444 32.564444-24.666667 11.03111-22.582222 30.724444-22.582222 30.724444 8.15111-17.96 26.502221-22.426667 26.502221-22.426667-9.222222 6.982223-7.59111 23.826667-8.444444 40.644445-2.066667 41.902221-37.435555 57.826666-37.435555 57.826666 98.977777-15.457778 94.004443-70.43111 94.004443-70.43111z"/>
        <path d="M138.966584 128.235554C195.75325 106.297777 173.633251 40 173.633251 40c-6.773334 37.248888-27.333333 47.528888-43.857778 54.884443-68.808888 30.622222-37.813333 90.6-37.813333 90.6-4.337777-40.182222 43.391111-55.853333 47.004444-57.248889z"/>
    </g>
</svg>
