<svg xmlns="http://www.w3.org/2000/svg" width="252.39" height="260" viewBox="0 0 252.39 260">
  <path class="color-pink" fill="#af272f" fill-rule="evenodd" d="M207.807 49.155a16.951 16.951 0 0 0 3.245-5.679c.792-2.938 1.163-10.355-6.24-12.445.928 1.608 2.884 5.655.501 11.013a7.458 7.458 0 0 0-1.474-2.781c1.094 3.87-.12 7.88-2.684 11.078 1.943-3.282 2.754-8.116-1.2-14.142-1.914-3.11-9.33-8.849-18.351-4.807 2.494.52 10.29 1.998 11.588 8.08a12.733 12.733 0 0 0-4.2-1.025c4.97 2.155 7.908 6.234 8.7 10.689-1.608-3.968-4.945-7.88-11.43-7.931-4.056.362-11.124 3.277-12.218 14.504 1.557-2.058 4.065-7.968 11.393-6.517-1.645.547-2.684 1.89-2.545 3.963 4.951-4.228 11.07-3.347 14.384-.274-22.444 2.856-37.685 21.012-40.133 24.104l-14.262-9.326a.616.616 0 0 0-.853.176l-6.235 9.525q-1.854-.547-3.745-1.02a81.085 81.085 0 0 0-33.036-1.15 80.232 80.232 0 0 0-30.755 11.78 83.676 83.676 0 0 0-37.026 84.574 82.276 82.276 0 0 0 11.695 30.904 84.497 84.497 0 0 0 21.809 23.269q2.27 1.64 4.635 3.11c.616.38 1.237.751 1.854 1.113l2.517.055.38-.194 17.081-8.645v-68.913l21.688 35.951 21.726-35.946v68.912l17.072 8.645.38.195 2.86-.06c.51-.302 1.015-.617 1.52-.927.315-.195.64-.38.955-.584a82.92 82.92 0 0 0 36.197-51.095 82.262 82.262 0 0 0 1.038-33.031 83.736 83.736 0 0 0-11.755-31.26 86.837 86.837 0 0 0-10.754-13.744l5.405-8.237a.616.616 0 0 0-.176-.853l-14.082-9.229c15.357-19.62 35.089-24.103 35.089-24.103-1.024 5.317-3.291 9.233-9.683 9.896.612.793 2.387 1.14 4.269.427-1.289 5.766-12.13 5.418-15.106 5.098 10.309 8.08 20.353 2.782 21.98 1.363 5.41-5.79 4.469-12.052 2.17-16.654 2.901 4.39 3.666 10.197 1.14 15.973a14.652 14.652 0 0 0 2.74-4.172c2.27 2.234-1.73 13.484-3.426 15.876 10.772-3.667 11.875-14.235 11.708-18.416-1.39-8.177-5.859-11.616-10.067-12.858 4.635.672 9.057 3.281 11.166 7.416a4.093 4.093 0 0 0-1.173-3.68c5.229.43 6.74 7.75 7.208 9.836 5.386-15.14-10.633-18.06-13.484-17.828zm-155.634 118.9a65.863 65.863 0 0 1 .653-25.564 67.675 67.675 0 0 1 6.226-16.836q.927-1.72 1.923-3.374c.464-.784.974-1.558 1.488-2.318a63.313 63.313 0 0 1 2.174-2.999l4.483 5.303h.199l.05 65.093v15.296a67.068 67.068 0 0 1-8.296-10.735 64.973 64.973 0 0 1-8.9-23.867zm86.814-61.07L130.365 121l-17.451 28.405L95.462 121l-8.613-14.017H74.19a63.647 63.647 0 0 1 5.266-3.963 57.283 57.283 0 0 1 22.713-8.96 58.085 58.085 0 0 1 24.502 1.085 62.071 62.071 0 0 1 21.693 10.49c.58.435 1.145.894 1.706 1.348zm17.48 121.907 7.333-106.611c.333.514.677 1.02 1.001 1.543.505.816.983 1.646 1.45 2.485a66.285 66.285 0 0 1 7.464 21.484 65.39 65.39 0 0 1-10.36 47.744 61.608 61.608 0 0 1-6.87 8.288v-15.297l.051-66.284h.2l3.824-4.52q1.696 2.202 3.24 4.557z"/>
</svg>
