<svg xmlns="http://www.w3.org/2000/svg" width="500" height="500" viewBox="0 0 500 500">
    <path fill="#af272f" fill-rule="evenodd" d="M440.07 60.59a36.57 36.57 0 007-12.25c1.71-6.34 2.51-22.34-13.46-26.85 2 3.47 6.22 12.2 1.08 23.76a16.09 16.09 0 00-3.18-6c2.36 8.35-.26 17-5.79 23.9 4.19-7.08 5.94-17.51-2.59-30.51C419 25.93 403 13.55 383.54 22.27c5.38 1.12 22.2 4.31 25 17.43a27.47 27.47 0 00-9.06-2.21c10.72 4.65 17.06 13.45 18.77 23.06-3.47-8.56-10.67-17-24.66-17.11-8.75.78-24 7.07-26.36 31.29 3.36-4.44 8.77-17.19 24.58-14.06-3.55 1.18-5.79 4.08-5.49 8.55C397 60.1 410.2 62 417.35 68.63c-48.42 6.16-81.3 45.33-86.58 52L300 100.51a1.33 1.33 0 00-1.84.38l-13.45 20.55q-4-1.18-8.08-2.2a174.93 174.93 0 00-71.27-2.48 173.09 173.09 0 00-66.35 25.41 180.52 180.52 0 00-79.88 182.46 177.5 177.5 0 0025.23 66.67 182.29 182.29 0 0047.05 50.2q4.9 3.54 10 6.71c1.33.82 2.67 1.62 4 2.4l5.43.12.82-.42 36.85-18.65V282.99l46.79 77.56L282.17 283v148.67L319 450.32l.82.42 6.17-.13c1.1-.65 2.19-1.33 3.28-2 .68-.42 1.38-.82 2.06-1.26a178.89 178.89 0 0078.09-110.23 177.47 177.47 0 002.24-71.26 180.65 180.65 0 00-25.36-67.44 187.34 187.34 0 00-23.2-29.65L374.76 151a1.33 1.33 0 00-.38-1.84L344 129.25c33.13-42.33 75.7-52 75.7-52-2.21 11.47-7.1 19.92-20.89 21.35 1.32 1.71 5.15 2.46 9.21.92-2.78 12.44-26.17 11.69-32.59 11 22.24 17.43 43.91 6 47.42 2.94 11.67-12.49 9.64-26 4.68-35.93 6.26 9.47 7.91 22 2.46 34.46a31.61 31.61 0 005.91-9c4.9 4.82-3.73 29.09-7.39 34.25 23.24-7.91 25.62-30.71 25.26-39.73-3-17.64-12.64-25.06-21.72-27.74 10 1.45 19.54 7.08 24.09 16a8.83 8.83 0 00-2.53-7.94c11.28.93 14.54 16.72 15.55 21.22 11.62-32.66-22.94-38.96-29.09-38.46zM104.31 317.1a142.09 142.09 0 011.41-55.15 146 146 0 0113.43-36.32q2-3.71 4.15-7.28c1-1.69 2.1-3.36 3.21-5 1.5-2.21 3.07-4.36 4.69-6.47l9.67 11.44h.43l.11 140.43v33a144.69 144.69 0 01-17.9-23.16 140.17 140.17 0 01-19.2-51.49zM291.6 185.35L273 215.59l-37.65 61.28-37.65-61.28-18.58-30.24h-27.31a137.31 137.31 0 0111.36-8.55 123.58 123.58 0 0149-19.33 125.31 125.31 0 0152.86 2.34 133.91 133.91 0 0146.8 22.63c1.25.94 2.47 1.93 3.68 2.91zm37.71 263l15.82-230c.72 1.11 1.46 2.2 2.16 3.33 1.09 1.76 2.12 3.55 3.13 5.36a143 143 0 0116.1 46.35 141.07 141.07 0 01-22.35 103 132.91 132.91 0 01-14.82 17.88v-33l.11-143h.43l8.25-9.75q3.66 4.75 6.99 9.83z"/>
</svg>
