<svg xmlns="http://www.w3.org/2000/svg" width="252.38979" height="259.99997" viewBox="0 0 252.38979 259.99997">
    <path class="color-pink" fill="#af272f" fill-rule="evenodd" stroke-width=".463528" d="M207.80711 49.154515a16.951222 16.951222 0 003.2447-5.67822c.79263-2.93877 1.16345-10.35522-6.23909-12.44573.92705 1.60844 2.88314 5.65504.50061 11.01343a7.458167 7.458167 0 00-1.47402-2.78117c1.09393 3.87046-.12052 7.87998-2.68383 11.07832 1.94218-3.28178 2.75336-8.11637-1.20054-14.14224-1.91437-3.11027-9.33082-8.84875-18.35107-4.80679 2.49378.51916 10.29032 1.99781 11.5882 8.0793a12.733117 12.733117 0 00-4.19957-1.0244c4.96903 2.15541 7.90779 6.23445 8.70043 10.68896-1.60845-3.9678-4.94585-7.87998-11.43061-7.93097-4.05587.36156-11.12467 3.27715-12.2186 14.5038 1.55746-2.05807 4.06514-7.96805 11.39352-6.51721-1.64552.54697-2.68382 1.8912-2.54477 3.96317 4.95048-4.22738 11.06906-3.34668 14.38328-.27348-22.44403 2.85533-37.68483 21.01172-40.13226 24.10346l-14.26276-9.32619a.616492.616492 0 00-.85289.17614l-6.23446 9.5255q-1.85411-.54696-3.7453-1.01976a81.084969 81.084969 0 00-33.03565-1.14955 80.232078 80.232078 0 00-30.75509 11.77825 83.676091 83.676091 0 00-37.02662 84.575335 82.276237 82.276237 0 0011.69481 30.90342 84.496536 84.496536 0 0021.809 23.26911q2.27129 1.64089 4.63528 3.11027c.61649.38009 1.23762.75092 1.85411 1.11247l2.51696.0556.38009-.19468 17.08101-8.6448v-68.91272l21.68848 35.95124 21.72556-35.94661v68.91273l17.07174 8.64479.3801.19469 2.85996-.0603c.50989-.3013 1.01513-.6165 1.52038-.92706.3152-.19468.63967-.38009.95486-.58404a82.920541 82.920541 0 0036.19691-51.09471 82.262331 82.262331 0 001.03831-33.03101 83.73635 83.73635 0 00-11.75508-31.26033 86.837353 86.837353 0 00-10.75385-13.743605l5.40474-8.23689a.616492.616492 0 00-.17614-.8529l-14.08198-9.22884c15.35668-19.62115 35.08907-24.10346 35.08907-24.10346-1.02439 5.31667-3.29105 9.23348-9.6831 9.89632.61186.79264 2.38717 1.14028 4.26909.42645-1.2886 5.76629-12.13053 5.41864-15.10638 5.09881 10.30887 8.07929 20.35352 2.78117 21.98051 1.36277 5.40937-5.78947 4.46841-12.05173 2.16931-16.65456 2.90168 4.38961 3.6665 10.19761 1.14028 15.97317a14.652123 14.652123 0 002.73945-4.17175c2.27129 2.23421-1.72896 13.48403-3.42548 15.87584 10.7724-3.66651 11.87559-14.23495 11.70872-18.41597-1.39058-8.17664-5.85899-11.61602-10.06783-12.85827 4.63529.67211 9.05734 3.28178 11.1664 7.41645a4.092953 4.092953 0 00-1.17273-3.68042c5.2286.43109 6.7397 7.75019 7.20786 9.83607 5.3862-15.13883-10.63333-18.05905-13.48403-17.82729zM52.17292 168.0541a65.862707 65.862707 0 01.65357-25.56357 67.675102 67.675102 0 016.22518-16.83534q.92706-1.71969 1.92365-3.37449c.46352-.78336.9734-1.55745 1.48792-2.31764.69529-1.0244 1.42303-2.02098 2.17395-2.99902l4.48231 5.30276h.19932l.051 65.09325v15.29642a67.06788 67.06788 0 01-8.29715-10.73531 64.972733 64.972733 0 01-8.89974-23.86706zm86.81417-61.06982l-8.62162 14.01708-17.45183 28.40501-17.45183-28.40501-8.61236-14.01708H74.1905a63.647043 63.647043 0 015.26568-3.96317 57.282802 57.282802 0 0122.71288-8.959995 58.084705 58.084705 0 0124.50209 1.08466 62.071047 62.071047 0 0121.69312 10.489635c.57941.43571 1.14491.89461 1.70578 1.34887zm17.47965 121.90788l7.33301-106.61146c.33374.51452.67675 1.01976 1.00122 1.54355.50525.81581.98268 1.64553 1.45085 2.48451a66.284517 66.284517 0 017.4628 21.48453 65.389908 65.389908 0 01-10.35985 47.74339 61.607519 61.607519 0 01-6.86949 8.28788v-15.29642l.051-66.28452h.19931l3.82411-4.5194q1.69651 2.20176 3.24006 4.55648z"/>
</svg>
