<svg xmlns="http://www.w3.org/2000/svg" width="290" height="291.44199" viewBox="0 0 290 291.44199">
    <g class="color-turquoise" fill="#67a2b2">
        <path d="M155.506907 134.66982H112.2185l-17.023269 21.860482h21.595366l-11.279079 19.069782H89.651042c-2.023258 0-8.148844-2.479072-13.130243-8.21396-3.874422-4.451166-8.144192-12.190707-6.511633-23.772111 2.976747-21.181412 24.623275-31.888397 28.71165-31.888397h24.186066l-.846513 10.64652 1.623257-2.051165L165.20924 67l-45.790733 20.283736H101.48826c-9.274425 0-22.088389 5.855819-32.641885 14.916291-12.851173 11.032567-21.111645 25.511648-23.255832 40.772125-2.288374 16.279082 2.120931 31.372117 12.409311 42.534916 8.13024 8.837217 19.446527 14.525593 28.837232 14.525593h32.483746z"/>
        <path d="M245 174.125664h-67.255867L243.6 87.186062h-75.307036l-14.618616 24.437228h42.30701l-52.55818 69.38145-34.102352 43.437242 52.739575-25.88374h63.907027z"/>
    </g>
</svg>
