<svg xmlns="http://www.w3.org/2000/svg" width="290" height="291.442" viewBox="0 0 290 291.442">
  <g class="color-turquoise" fill="#67a2b2">
    <path d="M155.507 134.67h-43.288l-17.024 21.86h21.596l-11.28 19.07h-15.86c-2.023 0-8.149-2.479-13.13-8.214-3.875-4.451-8.144-12.19-6.512-23.772 2.977-21.181 24.623-31.888 28.712-31.888h24.186l-.847 10.646 1.624-2.051L165.209 67l-45.79 20.284h-17.93c-9.275 0-22.09 5.856-32.643 14.916-12.85 11.033-21.111 25.512-23.255 40.772-2.289 16.28 2.12 31.372 12.409 42.535 8.13 8.837 19.446 14.526 28.837 14.526h32.484z"/>
    <path d="M245 174.126h-67.256l65.856-86.94h-75.307l-14.619 24.437h42.307l-52.558 69.382-34.102 43.437 52.74-25.884h63.906z"/>
  </g>
</svg>
