<svg xmlns="http://www.w3.org/2000/svg" width="500" height="500" viewBox="0 0 500 500">
    <g fill="#67a2b2">
        <path d="M272.59 226.24h-93.07l-36.6 47h46.43l-24.25 41H131c-4.35 0-17.52-5.33-28.23-17.66-8.33-9.57-17.51-26.21-14-51.11 6.4-45.54 52.94-68.56 61.73-68.56h52l-1.82 22.89 3.49-4.41 89.28-114.64L195 124.36h-38.55c-19.94 0-47.49 12.59-70.18 32.07-27.63 23.72-45.39 54.85-50 87.66-4.92 35 4.56 67.45 26.68 91.45 17.48 19 41.81 31.23 62 31.23h69.84z"/>
        <path d="M465 311.07H320.4l141.59-186.92H300.08l-31.43 52.54h90.96l-113 149.17-73.32 93.39 113.39-55.65h137.4L465 311.07z"/>
    </g>
</svg>
