<svg xmlns="http://www.w3.org/2000/svg" width="500" height="500" viewBox="0 0 500 500">
    <path class="color-pink" fill="#fb7299" d="M233.24 291.68L488 217.29H374.72l38.89-31.12-217.72 7.78 64.5-76.15-172.52 48.92L18 255.29l22.37-3.78 9.87-8.4 37.45-41.64 58.73-17.98 31.97-18.5 10.45 11.56-21.62 25.72-16.54 8.35 8.31 4.95 148.82-1.41-17.64 28.74-95.02 4.63-1.9 19.06-18.86 19.97-4.24 20.13-16.49 16.37-16.95 22.14-81.07-13.58-2.56.33 30.41 48.25h66.61l119.6-64.7-27.71-2.43-8.75-21.39z"/>
</svg>
