<svg xmlns="http://www.w3.org/2000/svg" width="300.193" height="300" viewBox="0 0 300.193 300">
  <path class="color-brightGreen" fill="#96ca4f" d="m150.678 50 8.304 25.56h26.877l-21.742 15.798 8.303 25.56-21.742-15.794-21.742 15.793 8.304-25.56-21.742-15.797h26.877z"/>
  <path class="color-stroke-black" d="m210.624 113.343-1.346.355c-22.148 2.617-32.34 10.425-32.34 10.425-3.84 3.738-6.321 4.77-6.321 4.77a26.667 26.667 0 0 1-5.701 1.103c-.35-.08-1.294.795-1.294.795a17.041 17.041 0 0 0-7.477 8.527 19.48 19.48 0 0 0-2.663-1.009 13.084 13.084 0 0 0-6.621-.037 20.205 20.205 0 0 0-2.804 1.046 17.041 17.041 0 0 0-7.476-8.527s-.935-.874-1.295-.795a26.667 26.667 0 0 1-5.7-1.103s-2.481-1.023-6.322-4.77c0 0-10.191-7.808-32.34-10.425l-1.346-.355s-.257.233-.102.878l4.49 22.05 2.542-1.84s.206-.262.986-.285c0 0 12.789-.874 16.583 3.607 0 0 1.402 1.93 1.594 3.574 0 0 .355.935-2.028 2.561 0 0-4.673 2.126-5.608 4.028a12.149 12.149 0 0 0-.2 7.247s.406 1.37.784 2.481c0 0 1.253 3.739 7.089 4.028 0 0 3.528.178 4.49 1.622a9.761 9.761 0 0 1 1.547 2.962l1.645 7.294a6.747 6.747 0 0 0 1.673 3.444s2.518 2.748 3.738 3.785c0 0 .15.107.13.495v13.056a2.463 2.463 0 0 0 1.725 2.42.935.935 0 0 1 .668.402 11.462 11.462 0 0 1 1.953 4.163l1.131 39.91s-.346.799 2.252 2.336l.365.075 4.205.598.636.346h.644v3.99s-.065 1.112 1.87 1.43h3.27s1.575-.08 1.496-1.463v-.738h1.943v.738c-.079 1.402 1.496 1.463 1.496 1.463h3.27c1.93-.322 1.87-1.43 1.87-1.43v-4h.645l.635-.345 4.205-.599.365-.074c2.598-1.528 2.252-2.337 2.252-2.337l1.103-39.9a11.462 11.462 0 0 1 1.953-4.163.935.935 0 0 1 .668-.402 2.463 2.463 0 0 0 1.724-2.42v-13.056c0-.388.131-.495.131-.495 1.23-1.037 3.738-3.785 3.738-3.785a6.747 6.747 0 0 0 1.673-3.444l1.645-7.294a9.761 9.761 0 0 1 1.547-2.962c.962-1.444 4.49-1.622 4.49-1.622 5.832-.303 7.089-4.028 7.089-4.028a83.28 83.28 0 0 0 .785-2.48 12.149 12.149 0 0 0-.201-7.248c-.935-1.902-5.608-4.028-5.608-4.028-2.383-1.621-2.027-2.56-2.027-2.56.2-1.645 1.593-3.575 1.593-3.575 3.794-4.481 16.583-3.607 16.583-3.607.78.028.986.285.986.285l2.542 1.84 4.49-22.05c.15-.645-.107-.878-.107-.878zm-91.323 44.914a6.439 6.439 0 0 1-4.457 1.074 4.981 4.981 0 0 1-3.935-3.485 10.364 10.364 0 0 1-.551-4.538c.392-2.36 2.191-2.743 4.486-3.042 3.696-.467 4.485 1.061 4.485 1.061 1.337 1.738 1.337 6.098 1.337 6.098a4 4 0 0 1-1.365 2.832zm33.144 75.58c.224 1.87-1.257 3.271-1.257 3.271v6.58h-2.136v-6.599s-1.481-1.369-1.257-3.27l-.159-40.186a3.892 3.892 0 0 1 1.285-2.62h2.393a3.892 3.892 0 0 1 1.285 2.62zm1.056-89.533-1.57 3.182a13.126 13.126 0 0 0-.524 1.3v33.175h-2.565v-33.176a13.126 13.126 0 0 0-.523-1.299l-1.57-3.182a1.743 1.743 0 0 1 .191-1.804c3.63-2.126 6.355-.023 6.355-.023a1.729 1.729 0 0 1 .192 1.827zm31.886 3.962c2.294.3 4.093.683 4.486 3.042a10.364 10.364 0 0 1-.552 4.538 4.981 4.981 0 0 1-3.934 3.485 6.439 6.439 0 0 1-4.458-1.074 4 4 0 0 1-1.364-2.832s0-4.36 1.336-6.098c-.014 0 .879-1.528 4.472-1.06z"/>
  <path class="color-brightGreen" fill="#96ca4f" d="M86.415 112.8a7.813 7.813 0 0 1-1.93-.532 17.71 17.71 0 0 1-7.714-14.14s-1.402-9.999 4.794-18.452v-1.01S66 90.854 66 106.75c0 0 .383 12.26 4.182 17.667 0 0 5.607 8.163 21.265 11.387zm132.232-34.133v.995c6.2 8.448 4.799 18.467 4.799 18.467a17.71 17.71 0 0 1-7.71 14.158 7.738 7.738 0 0 1-1.87.518l-5.032 23c15.612-3.234 21.177-11.37 21.177-11.37 3.799-5.406 4.182-17.667 4.182-17.667.023-15.915-15.546-28.101-15.546-28.101z"/>
</svg>
