<svg xmlns="http://www.w3.org/2000/svg" width="300.19308" height="300.00003" viewBox="0 0 300.19308 300.00003">
    <path class="color-brightGreen" fill="#96ca4f" stroke-width=".467268" d="M150.67828 50l8.30335 25.55955h26.87725l-21.74197 15.79833 8.30335 25.55955-21.74198-15.79365-21.74197 15.79365 8.30335-25.55955-21.74198-15.79833h26.87725z"/>
    <path class="color-stroke-black" stroke-width=".467268" d="M210.62408 113.34283l-1.34573.35513c-22.1485 2.6167-32.33961 10.42474-32.33961 10.42474-3.84094 3.73815-6.32214 4.77081-6.32214 4.77081a26.666978 26.666978 0 01-5.70066 1.10275c-.35045-.0794-1.29434.79436-1.29434.79436a17.04126 17.04126 0 00-7.47628 8.52764 19.480398 19.480398 0 00-2.66343-1.0093 13.083501 13.083501 0 00-6.62119-.0374 20.204663 20.204663 0 00-2.8036 1.04668 17.04126 17.04126 0 00-7.47629-8.52764s-.93453-.87379-1.29433-.79436a26.666978 26.666978 0 01-5.70067-1.10275s-2.48119-1.02332-6.32213-4.77081c0 0-10.19112-7.80804-32.33961-10.42474l-1.34574-.35513s-.25699.23364-.10279.87847l4.49044 22.05037 2.54194-1.84104s.2056-.26167.98593-.28503c0 0 12.78912-.87379 16.58334 3.60731 0 0 1.4018 1.92982 1.59338 3.5746 0 0 .35513.93453-2.02794 2.56063 0 0-4.67268 2.12606-5.60721 4.02785a12.148965 12.148965 0 00-.20093 7.24732s.40652 1.3691.78501 2.48119c0 0 1.25228 3.73815 7.08846 4.02785 0 0 3.52787.17756 4.49044 1.62142a9.761226 9.761226 0 011.54666 2.96248l1.64478 7.29405a6.747348 6.747348 0 001.67282 3.44377s2.51857 2.74753 3.73814 3.78487c0 0 .14953.10747.13084.4953v13.05546a2.462502 2.462502 0 001.72421 2.42045.934536.934536 0 01.6682.40185 11.462081 11.462081 0 011.95318 4.16336l1.13079 39.90935s-.34578.79903 2.25223 2.33634l.36447.0748 4.20541.5981.63548.34578h.64483v3.99047s-.0654 1.1121 1.86907 1.42984h3.27088s1.57469-.0794 1.49525-1.46255v-.73828h1.94384v.73828c-.0794 1.40181 1.49526 1.46255 1.49526 1.46255h3.27087c1.92982-.32241 1.86907-1.42984 1.86907-1.42984v-3.99981h.64483l.63549-.34578 4.20541-.5981.36447-.0748c2.59801-1.52796 2.25223-2.33634 2.25223-2.33634l1.10275-39.9a11.462081 11.462081 0 011.95318-4.16336.934536.934536 0 01.66819-.40185 2.462502 2.462502 0 001.72422-2.42045v-13.05546c0-.38783.13084-.4953.13084-.4953 1.22891-1.03734 3.73814-3.78487 3.73814-3.78487a6.747348 6.747348 0 001.67282-3.44377l1.64478-7.29405a9.761226 9.761226 0 011.54666-2.96248c.96257-1.44386 4.49044-1.62142 4.49044-1.62142 5.83151-.30372 7.08846-4.02785 7.08846-4.02785.37848-1.11677.78501-2.48119.78501-2.48119a12.148965 12.148965 0 00-.20093-7.24732c-.93453-1.90179-5.60721-4.02785-5.60721-4.02785-2.38307-1.62142-2.02795-2.56063-2.02795-2.56063.20093-1.64478 1.59339-3.5746 1.59339-3.5746 3.79421-4.4811 16.58334-3.60731 16.58334-3.60731.78033.028.98593.28503.98593.28503l2.54194 1.84104 4.49044-22.05037c.14953-.64483-.10747-.87847-.10747-.87847zm-91.32283 44.91379a6.438951 6.438951 0 01-4.45774 1.07472 4.981076 4.981076 0 01-3.9344-3.48582 10.364002 10.364002 0 01-.55137-4.53717c.3925-2.3597 2.19148-2.74286 4.48577-3.04191 3.69609-.46727 4.48577 1.06069 4.48577 1.06069 1.33639 1.73824 1.33639 6.09785 1.33639 6.09785a3.999813 3.999813 0 01-1.36442 2.83164zm33.14331 75.58058c.22428 1.86908-1.25695 3.27088-1.25695 3.27088v6.57913h-2.13542v-6.59782s-1.48124-1.3691-1.25695-3.27088l-.15887-40.18503a3.892342 3.892342 0 011.28499-2.62138h2.39241a3.892342 3.892342 0 011.28498 2.62138zm1.05602-89.5332l-1.57002 3.1821a13.125555 13.125555 0 00-.52334 1.299v33.17602h-2.5653V148.7851a13.125555 13.125555 0 00-.52334-1.299l-1.57002-3.1821a1.74291 1.74291 0 01.19158-1.80365c3.63067-2.12607 6.35484-.0234 6.35484-.0234a1.728891 1.728891 0 01.19158 1.82701zm31.88636 3.96244c2.29429.29905 4.09327.68221 4.48577 3.04191a10.364002 10.364002 0 01-.55137 4.53717 4.981076 4.981076 0 01-3.9344 3.48582 6.438951 6.438951 0 01-4.45773-1.07472 3.999813 3.999813 0 01-1.36443-2.83164s0-4.35961 1.33639-6.09785c-.014 0 .87846-1.52796 4.47175-1.06069z"/>
    <path class="color-brightGreen" fill="#96ca4f" stroke-width=".467268" d="M86.41493 112.8008a7.812719 7.812719 0 01-1.92982-.53268 17.709453 17.709453 0 01-7.71459-14.13953s-1.4018-9.99953 4.79417-18.45241v-1.0093S66 90.85323 66 106.74968c0 0 .38316 12.26111 4.18204 17.6674 0 0 5.60722 8.16317 21.26537 11.38732zm132.23214-34.13392v.99529c6.20064 8.4482 4.79884 18.46642 4.79884 18.46642a17.709453 17.709453 0 01-7.70992 14.15822 7.737956 7.737956 0 01-1.86907.51867l-5.03248 22.99892c15.61142-3.23349 21.17658-11.36863 21.17658-11.36863 3.79889-5.40629 4.18205-17.66739 4.18205-17.66739.0234-15.91515-15.546-28.1015-15.546-28.1015z"/>
</svg>
