<svg xmlns="http://www.w3.org/2000/svg" width="290.83826" height="290" viewBox="0 0 290.83825 290">
    <path class="color-black" fill="#1c2b39" stroke-width=".468966" d="M112.90113 203.28546c9.67477 10.94098 20.63451 19.98265 32.52749 26.581 11.86954-6.56552 22.82459-15.59781 32.48529-26.48252a319.83492 319.83492 0 00-65.01278-.0985z"/>
    <path class="color-black" fill="#1c2b39" stroke-width=".468966" d="M227.79315 125.92011c4.88194-21.2723 6.49518-42.16006 5.01794-61.83319l-.0985-.73158-.26263-.17352C210.46016 51.99698 179.58343 45 145.04407 45s-64.975256 6.97822-86.965076 18.13492l-.0563.93793a207.23615 207.23615 0 004.9007 61.80974C75.510444 180.72819 107.55959 224.38894 145.29729 245c37.7424-20.60637 69.91348-64.2343 82.49584-119.07989zm-81.83459 106.66636l-.64718.35172-.64717-.35172c-16.59202-9.06043-31.96942-23.24666-44.47206-41.02516-12.887186-18.33189-22.510376-40.26075-27.819076-63.4183a181.3117 181.3117 0 01-4.29104-54.13276l.0891-1.57573.68938-.35172c20.2312-10.26098 47.299926-15.91672 76.221066-15.91672 29.17438 0 56.37911 5.66512 76.61031 15.94485l.13131.075.74097.46896.17821 1.32249c1.3131 17.5112-.16414 35.73053-4.39422 54.16559-5.30869 23.13879-14.95064 45.06765-27.87535 63.40423-12.51201 17.79257-27.90348 31.97411-44.51426 41.03923z"/>
    <path class="color-lightBlue color-reserved-white" fill="#59cbe8" stroke-width=".468966" d="M217.94017 110.33168c-19.84665-7.84112-45.10516-12.56361-72.84451-12.56361-27.27976 0-51.928626 4.56304-71.540786 12.19312-.53931.21104-1.07393.42207-1.60387.6378.10318.75034.21104 1.50069.32359 2.25572q1.08331 7.34401 2.76221 14.70678a187.6146 187.6146 0 009.14484 28.94459q1.74456 4.27229 3.68139 8.39919a161.66202 161.66202 0 0024.958376 38.40364 319.83492 319.83492 0 0165.01278.0985 161.4885 161.4885 0 0025.08031-38.45522q1.94621-4.13629 3.70014-8.4414a186.79391 186.79391 0 009.14015-28.9399q1.84304-8.0287 2.97325-15.99174c.0422-.29076.0891-.58621.12662-.87697z"/>
    <path class="color-orange" fill="#ff8200" stroke-width=".468966" d="M222.74708 74.00556l-.17821-1.32249-.74097-.46896-.13131-.075c-20.2312-10.28912-47.44062-15.94485-76.61031-15.94485-28.92583 0-55.994556 5.65104-76.221066 15.91671l-.68938.35173-.0891 1.57572a181.3117 181.3117 0 004.29104 54.13277c5.31339 23.15755 14.93658 45.0911 27.819076 63.41829 12.49795 17.77851 27.87535 31.96474 44.47206 41.02516l.64717.35173.64717-.35173c16.61079-9.0698 32.00695-23.24665 44.51896-41.01109 12.92471-18.34126 22.56197-40.26543 27.87535-63.40422 4.22539-18.45851 5.70263-36.66378 4.38953-54.19373zm-3.9018 36.57936v.136c-.0422.29076-.0891.58621-.12662.87696q-1.1349 7.97243-2.97325 15.99175a186.79391 186.79391 0 01-9.14953 28.93521q-1.75393 4.28166-3.70014 8.44139a161.4885 161.4885 0 01-25.08031 38.45523c-9.6654 10.88939-20.63451 19.89823-32.48529 26.48252-11.88829-6.59835-22.85272-15.64002-32.52749-26.581a161.66202 161.66202 0 01-24.958376-38.40364q-1.93683-4.1269-3.68139-8.39919a187.6146 187.6146 0 01-9.14484-28.94459q-1.68827-7.35808-2.76221-14.70678c-.11255-.75034-.2251-1.50069-.32358-2.25572 0-.0797 0-.15476-.0281-.23449a174.45541 174.45541 0 01-1.13021-36.19481v-.0516c19.78568-9.84829 46.132196-15.27892 74.312376-15.27892 28.56004 0 55.16449 5.4869 74.983 15.47588a172.57955 172.57955 0 01-1.21931 36.23702z"/>
    <path class="color-white" fill="#fff" stroke-width=".468966" d="M220.06928 74.31507c-19.81851-9.97022-46.42765-15.47588-74.983-15.47588-28.17549.0188-54.545456 5.44001-74.312376 15.29768v.0469a174.45541 174.45541 0 001.11145 36.1573c0 .0797 0 .15475.0281.23448.52993-.21573 1.06455-.42676 1.60386-.6378 19.61217-7.61132 44.261026-12.19312 71.540786-12.19312 27.73935 0 52.99318 4.72249 72.84451 12.56361l.93794.37048v-.136a172.57955 172.57955 0 001.22869-36.22764z"/>
    <path class="color-orange" fill="#ff8200" stroke-width=".468966" d="M153.85126 145.64952a8.441391 8.441391 0 10-8.4414 8.36635 8.389805 8.389805 0 008.4414-8.36635z"/>
    <g class="color-black" fill="#1c2b39">
        <path d="M171.39528 135.862198l24.461275-.914484v-1.12552l-19.53713-.731586zm-56.54325-2.78566l-19.902924.745657v1.125519l24.916172.933242zm54.60642 25.671208c-6.612423.41738-6.635871.56745-11.025395-4.361385a5.060145 5.060145 0 01-1.073932-2.687176 43.252749 43.252749 0 01-.393932-4.72249v-.229793l2.100969-1.406898V142.484l-3.75173 2.265106c.023449.300139.182897.600277.178207.909795-.00469.309517.046897.619035 0 .937932v.28138c-.028138.215724-.042207.426759-.084413.637794 0 .098483-.028138.196966-.051587.295448-.051586.225104-.107862.468967-.173517.665932 0 .065656-.032828.136-.056276.206345q-.13131.403311-.295449.792553c-.042207.103173-.093793.206345-.14069.309518-.046896.103173-.150069.314207-.229793.468966-.079724.154759-.126621.234483-.192276.351725-.065655.117241-.15476.257931-.239173.389242-.084414.13131-.15007.239172-.229793.356414-.079725.117241-.164139.220414-.248552.328276q-.262622.347035-.55807.670622l-.192276.211035c-.13131.136-.262621.26731-.403311.393931l-.173518.159449a10.1156 10.1156 0 01-2.293244 1.538209l-.117242.056276c-.206345.098483-.41738.187586-.628414.272l.891035 16.20747 14.434779-1.875864q13.0185-1.406899 26.027622-2.935728l12.361948-1.444416q1.94621-4.136282 3.700143-8.44139c-12.361948.745655-24.752034 1.472553-37.14212 2.255726zm24.062653 6.415457a2.438624 2.438624 0 01-1.275588-.41738 4.548972 4.548972 0 01-.55338-.408c-.136-.117242-.26731-.239173-.389242-.361104a3.132694 3.132694 0 01-.736276-1.25214 3.442212 3.442212 0 01-.15007-.745656v-.332966a3.18897 3.18897 0 013.118625-3.146763h.037518c1.711726 0 3.095176 1.636692 3.085797 3.343729-.00938 1.707037-1.425657 3.32028-3.137384 3.32028zm-53.598142-11.23174l-.056276-.042206c-.248552-.173518-.468966-.351725-.722208-.54869-.253242-.196966-.497104-.43614-.731587-.675312a10.035876 10.035876 0 01-2.9029-7.231458c0-.229793.361103-.468966.379862-.68l-4.140971-2.51835v3.109246l2.813797 1.52883v.107862c0 1.575727-.403311 3.151453-.576829 4.72249a5.186766 5.186766 0 01-1.177105 2.687176c-4.389523 4.928834-4.455178 4.778765-11.067601 4.361385-12.502638-.792553-25.019345-1.52414-37.517293-2.265107q1.744554 4.272282 3.681384 8.399184l12.699604 1.481933q16.165264 1.875865 32.358665 3.634488h.229794l7.61601.989519.816001-16.146505a9.942083 9.942083 0 01-1.702347-.914484zm-39.533847 9.43091a3.484419 3.484419 0 01-1.012967 1.214623 2.89821 2.89821 0 01-1.739865.600276c-.83945 0-1.627312-.586207-2.21821-1.186484a3.282763 3.282763 0 01-.900415-2.34483 3.18897 3.18897 0 013.123315-3.146764h.037517c1.711727 0 3.095177 1.636692 3.085798 3.343729a3.371867 3.371867 0 01-.375173 1.51945zm45.16613-7.695734a10.11091 10.11091 0 01-2.307313-.27669l-1.52414 28.606935c.41738 4.403593 1.777382 6.565527 3.723591 8.88691 1.94621-2.297935 3.306212-4.18318 3.723592-8.586771l-1.580416-28.850798a10.082772 10.082772 0 01-2.035313.220414zm9.735738-12.633949l23.884447-13.4265c3.001383-2.316694 4.56773-4.558352 5.52442-6.959459q.239174-.600276.43145-1.214622c-2.982625-.41269-5.96056-.14538-9.904566 1.875865l-6.316974 4.483316-15.7854 11.208291a10.026497 10.026497 0 012.166623 4.03311zm-43.313715-13.4265l23.865688 13.4265a9.993669 9.993669 0 012.176003-4.047178l-12.554224-8.910357-9.538771-6.77656c-3.944006-2.002486-6.921941-2.274487-9.904566-1.875865a15.743194 15.743194 0 001.11614 2.691865 16.962506 16.962506 0 004.83973 5.491594zm31.275354 6.22318a9.946772 9.946772 0 011.622623-.248552c.229793 0 .468966-.028138.68938-.028138h.121931a10.031186 10.031186 0 016.22787 2.260417l7.564425-5.350904-4.459868-.168828-3.113936-.117241-4.220695-7.456562-1.613244-20.165545h-.989518l-1.613244 20.165545-4.197247 7.461251-6.565526.234483-1.059864.037518 7.564424 5.364973a10.10622 10.10622 0 014.042489-1.988417z"/>
        <path d="M97.617524 159.451196a2.20883 2.20883 0 102.2229 2.2229v-.206346a2.2229 2.2229 0 00-2.2229-2.016554zm95.90358 0a2.2229 2.2229 0 00-2.21821 2.086899v.14069a2.232279 2.232279 0 002.222899 2.2229h.187586a2.2229 2.2229 0 00-.187586-4.44111z"/>
    </g>
    <path class="color-black" fill="#1c2b39" stroke-width=".468966" d="M93.729794 92.70793c-3.56883.9051-7.12828 1.92276-10.64084 3.03421V74.84032c-2.01655.6331-3.02483.96607-5.02732 1.65076v25.79314c5.15863-1.75394 10.38291-3.34373 15.66816-4.68966zm7.752006 3.17959c3.43753-.74097 5.15863-1.07862 8.62429-1.67421a5.923043 5.923043 0 005.10235-5.89491V72.42514c0-3.00607-2.09159-4.78814-5.10235-4.26759-3.46097.59559-5.18676.93793-8.62429 1.67421a6.354491 6.354491 0 00-5.055446 6.22787v15.89326c0 3.01545 2.05876 4.5818 5.055446 3.93463zm.0704-19.98734a1.406899 1.406899 0 011.21462-1.47255c2.41518-.50649 3.62511-.74097 6.04498-1.17242.78786-.14069 1.21931.21573 1.21931 1.00359v13.88609a1.345933 1.345933 0 01-1.21931 1.43034c-2.42456.43145-3.63449.66594-6.04498 1.17242-.78317.16414-1.21462-.17352-1.21462-.93793zm23.61245-1.43504q4.83035 8.40857 9.59504 16.85934c2.24635-.11724 3.37187-.15945 5.6276-.21104V65.3203c-1.96028.0469-2.94042.0844-4.89601.17821v17.57216q-4.7647-8.46484-9.59505-16.88278c-2.24166.21104-3.36248.33297-5.59945.60497V92.586c1.9509-.23918 2.92635-.34235 4.87724-.53462q-.009-8.79781-.009-17.58624zm39.69329 12.41354v-15.6072a5.346214 5.346214 0 00-5.15863-5.50097q-6.79063-.46896-13.60001-.46896v25.79313q6.80469 0 13.60001.46897c3.06235.19228 5.15863-1.6789 5.15863-4.68497zm-6.44359-.29076c-2.8138-.17821-4.2207-.24386-7.07201-.32359V70.23038c2.81379.0797 4.24414.14538 7.07201.32359a1.186484 1.186484 0 011.23338 1.28496v13.60002a1.027036 1.027036 0 01-1.23338 1.15366zm16.04802 6.64525c3.47035.46897 5.20552.77379 8.65711 1.4069 3.01077.55338 5.07891-1.07393 5.07891-4.08001V74.6668a6.120008 6.120008 0 00-5.07891-6.09656c-3.45628-.63779-5.18676-.93793-8.65711-1.4069-3.02483-.42676-5.12111 1.4069-5.12111 4.42235v15.89327c-.0141 3.02014 2.09159 5.32745 5.12111 5.75421zm1.29435-21.0003c2.43393.3611 3.64855.55806 6.07311.98951a1.350623 1.350623 0 011.21931 1.43504v13.88609c0 .78786-.43145 1.1349-1.21931.99421-2.42456-.43145-3.63918-.62842-6.07311-.98952a1.299036 1.299036 0 01-1.22401-1.4069V73.25521c0-.7691.42207-1.13959 1.22401-1.02234zm22.25244 8.00994q4.7178 10.10153 9.33243 20.24996c2.17131.68 3.25462 1.03172 5.41187 1.77269V76.47232c-1.87587-.64248-2.8138-.93793-4.68967-1.55228V92.4922q-4.61462-10.16249-9.32773-20.28278c-2.20883-.55807-3.3109-.83945-5.4916-1.35532v25.79314c1.91808.46897 2.87946.69407 4.78815 1.19118q-.0234-8.81188-.0234-17.59561z"/>
</svg>
