<svg xmlns="http://www.w3.org/2000/svg" width="290.838" height="290" viewBox="0 0 290.838 290">
  <path class="color-black" fill="#1c2b39" d="M112.901 203.285c9.675 10.941 20.635 19.983 32.528 26.581 11.87-6.565 22.824-15.597 32.485-26.482a319.835 319.835 0 0 0-65.013-.099z"/>
  <path class="color-black" fill="#1c2b39" d="M227.793 125.92c4.882-21.272 6.495-42.16 5.018-61.833l-.098-.732-.263-.173C210.46 51.997 179.583 45 145.044 45S80.07 51.978 58.08 63.135l-.056.938a207.236 207.236 0 0 0 4.9 61.81C75.51 180.728 107.56 224.389 145.297 245c37.743-20.606 69.914-64.234 82.496-119.08zM145.96 232.586l-.648.352-.647-.352c-16.592-9.06-31.97-23.246-44.472-41.025-12.887-18.332-22.51-40.26-27.819-63.418a181.312 181.312 0 0 1-4.291-54.133l.09-1.575.689-.352c20.23-10.261 47.3-15.917 76.22-15.917 29.175 0 56.38 5.665 76.61 15.945l.132.075.741.469.178 1.322c1.313 17.512-.164 35.73-4.394 54.166-5.309 23.139-14.95 45.068-27.875 63.404-12.512 17.793-27.904 31.974-44.514 41.04z"/>
  <path class="color-lightBlue color-reserved-white" fill="#59cbe8" d="M217.94 110.332c-19.846-7.841-45.105-12.564-72.844-12.564-27.28 0-51.929 4.563-71.541 12.193-.54.211-1.074.422-1.604.638.103.75.211 1.5.324 2.256q1.083 7.344 2.762 14.706a187.615 187.615 0 0 0 9.145 28.945q1.744 4.272 3.681 8.4a161.662 161.662 0 0 0 24.958 38.403 319.835 319.835 0 0 1 65.013.098 161.488 161.488 0 0 0 25.08-38.455q1.947-4.136 3.7-8.441a186.794 186.794 0 0 0 9.14-28.94q1.844-8.029 2.974-15.992c.042-.29.09-.586.127-.877z"/>
  <path class="color-orange" fill="#ff8200" d="m222.747 74.006-.178-1.323-.741-.469-.131-.075c-20.232-10.289-47.441-15.945-76.61-15.945-28.927 0-55.995 5.651-76.222 15.917l-.69.352-.088 1.575a181.312 181.312 0 0 0 4.29 54.133c5.314 23.158 14.937 45.091 27.82 63.418 12.498 17.779 27.875 31.965 44.472 41.026l.647.351.647-.351c16.611-9.07 32.007-23.247 44.52-41.011 12.924-18.342 22.561-40.266 27.875-63.405 4.225-18.458 5.702-36.663 4.39-54.193zm-3.902 36.579v.136c-.042.29-.089.586-.126.877q-1.135 7.972-2.974 15.992a186.794 186.794 0 0 1-9.15 28.935q-1.753 4.282-3.7 8.441a161.488 161.488 0 0 1-25.08 38.455c-9.665 10.89-20.634 19.899-32.485 26.483-11.888-6.598-22.853-15.64-32.527-26.581a161.662 161.662 0 0 1-24.959-38.404q-1.937-4.127-3.681-8.399a187.615 187.615 0 0 1-9.145-28.944q-1.688-7.359-2.762-14.707c-.113-.75-.225-1.5-.324-2.256 0-.08 0-.155-.028-.234a174.455 174.455 0 0 1-1.13-36.195v-.052c19.786-9.848 46.132-15.279 74.312-15.279 28.56 0 55.165 5.487 74.983 15.476a172.58 172.58 0 0 1-1.219 36.237z"/>
  <path class="color-white" fill="#fff" d="M220.07 74.315c-19.82-9.97-46.428-15.476-74.984-15.476-28.175.019-54.545 5.44-74.312 15.298v.047a174.455 174.455 0 0 0 1.111 36.157c0 .08 0 .155.028.235.53-.216 1.065-.427 1.604-.638 19.612-7.612 44.261-12.193 71.541-12.193 27.74 0 52.993 4.722 72.845 12.563l.938.37v-.135a172.58 172.58 0 0 0 1.228-36.228z"/>
  <path class="color-orange" fill="#ff8200" d="M153.851 145.65a8.441 8.441 0 1 0-8.441 8.366 8.39 8.39 0 0 0 8.441-8.366z"/>
  <g class="color-black" fill="#1c2b39">
    <path d="m171.395 135.862 24.462-.914v-1.126l-19.538-.731zm-56.543-2.785-19.903.745v1.126l24.916.933zm54.606 25.67c-6.612.418-6.635.568-11.025-4.36a5.06 5.06 0 0 1-1.074-2.688 43.253 43.253 0 0 1-.394-4.722v-.23l2.101-1.407v-2.856l-3.752 2.265c.024.3.183.6.179.91-.005.31.047.619 0 .938v.281c-.029.216-.043.427-.085.638 0 .098-.028.197-.051.295a7.621 7.621 0 0 1-.174.666c0 .066-.033.136-.056.207q-.131.403-.296.792c-.042.103-.093.207-.14.31-.047.103-.15.314-.23.469-.08.155-.127.234-.192.351a8.066 8.066 0 0 1-.24.39c-.084.131-.15.239-.23.356-.08.117-.163.22-.248.328q-.263.347-.558.671l-.192.211a7.99 7.99 0 0 1-.404.394l-.173.16a10.116 10.116 0 0 1-2.293 1.538l-.118.056c-.206.098-.417.188-.628.272l.891 16.207 14.435-1.875q13.018-1.407 26.027-2.936l12.362-1.445q1.947-4.136 3.7-8.441c-12.361.746-24.751 1.473-37.142 2.256zm24.063 6.416a2.439 2.439 0 0 1-1.275-.417 4.549 4.549 0 0 1-.554-.408 7.227 7.227 0 0 1-.39-.361 3.133 3.133 0 0 1-.735-1.252 3.442 3.442 0 0 1-.15-.746v-.333a3.189 3.189 0 0 1 3.118-3.147h.038c1.711 0 3.095 1.637 3.085 3.344-.009 1.707-1.425 3.32-3.137 3.32zm-53.598-11.232-.056-.042c-.249-.173-.47-.351-.723-.548a7.562 7.562 0 0 1-.731-.676 10.036 10.036 0 0 1-2.903-7.231c0-.23.361-.47.38-.68l-4.141-2.519v3.11l2.814 1.529v.107c0 1.576-.404 3.152-.577 4.723a5.187 5.187 0 0 1-1.177 2.687c-4.39 4.929-4.455 4.779-11.068 4.361-12.502-.792-25.02-1.524-37.517-2.265q1.744 4.273 3.681 8.4l12.7 1.481q16.165 1.876 32.359 3.635h.23l7.615.99.816-16.147a9.942 9.942 0 0 1-1.702-.915zm-39.534 9.431a3.484 3.484 0 0 1-1.013 1.215 2.898 2.898 0 0 1-1.74.6c-.84 0-1.627-.586-2.218-1.186a3.283 3.283 0 0 1-.9-2.345 3.189 3.189 0 0 1 3.123-3.147h.037c1.712 0 3.096 1.637 3.086 3.344a3.372 3.372 0 0 1-.375 1.52zm45.166-7.695a10.11 10.11 0 0 1-2.307-.277l-1.524 28.607c.417 4.403 1.777 6.565 3.723 8.887 1.947-2.298 3.307-4.183 3.724-8.587l-1.58-28.85a10.083 10.083 0 0 1-2.036.22zm9.736-12.634 23.884-13.427c3.002-2.317 4.568-4.558 5.525-6.96q.239-.6.431-1.214c-2.982-.413-5.96-.145-9.904 1.876l-6.317 4.483L153.124 139a10.026 10.026 0 0 1 2.167 4.033zm-43.314-13.427 23.866 13.427a9.994 9.994 0 0 1 2.176-4.047l-12.554-8.91-9.539-6.777c-3.944-2.003-6.922-2.275-9.905-1.876a15.743 15.743 0 0 0 1.117 2.692 16.963 16.963 0 0 0 4.84 5.491zm31.276 6.223a9.947 9.947 0 0 1 1.622-.248c.23 0 .47-.028.69-.028h.122a10.031 10.031 0 0 1 6.227 2.26l7.565-5.35-4.46-.17-3.114-.117-4.22-7.456-1.614-20.166h-.99l-1.613 20.166-4.197 7.46-6.565.235-1.06.038 7.564 5.365a10.106 10.106 0 0 1 4.043-1.989z"/>
    <path d="M97.618 159.451a2.209 2.209 0 1 0 2.222 2.223v-.206a2.223 2.223 0 0 0-2.222-2.017zm95.903 0a2.223 2.223 0 0 0-2.218 2.087v.14a2.232 2.232 0 0 0 2.223 2.224h.187a2.223 2.223 0 0 0-.187-4.441z"/>
  </g>
  <path class="color-black" fill="#1c2b39" d="M93.73 92.708a190.863 190.863 0 0 0-10.641 3.034V74.84a174.78 174.78 0 0 0-5.027 1.651v25.793c5.158-1.754 10.383-3.344 15.668-4.69zm7.752 3.18a173.77 173.77 0 0 1 8.624-1.675 5.923 5.923 0 0 0 5.102-5.895V72.425c0-3.006-2.091-4.788-5.102-4.267-3.46.595-5.187.937-8.624 1.674a6.354 6.354 0 0 0-5.056 6.228v15.893c0 3.015 2.06 4.582 5.056 3.935zm.07-19.988a1.407 1.407 0 0 1 1.215-1.472 169.49 169.49 0 0 1 6.045-1.173c.788-.14 1.22.216 1.22 1.004v13.886a1.346 1.346 0 0 1-1.22 1.43c-2.425.432-3.635.666-6.045 1.173-.783.164-1.215-.174-1.215-.938zm23.613-1.435q4.83 8.409 9.595 16.86c2.246-.118 3.372-.16 5.627-.212V65.32c-1.96.047-2.94.085-4.896.179V83.07q-4.764-8.465-9.595-16.883c-2.241.21-3.362.333-5.6.605v25.793c1.952-.24 2.927-.342 4.878-.535q-.009-8.797-.009-17.586zm39.693 12.414V71.27a5.346 5.346 0 0 0-5.159-5.5q-6.79-.47-13.6-.47v25.794q6.805 0 13.6.469c3.063.192 5.159-1.68 5.159-4.685zm-6.444-.291a167.61 167.61 0 0 0-7.072-.324V70.23a170.9 170.9 0 0 1 7.072.324 1.186 1.186 0 0 1 1.234 1.285v13.6a1.027 1.027 0 0 1-1.234 1.154zm16.048 6.645c3.47.47 5.206.774 8.657 1.407 3.011.553 5.08-1.074 5.08-4.08V74.667a6.12 6.12 0 0 0-5.08-6.097c-3.456-.638-5.186-.938-8.657-1.407-3.024-.426-5.12 1.407-5.12 4.423v15.893c-.015 3.02 2.09 5.327 5.12 5.754zm1.295-21c2.434.361 3.648.558 6.073.99a1.35 1.35 0 0 1 1.22 1.434v13.887c0 .787-.432 1.134-1.22.994-2.425-.432-3.64-.629-6.073-.99a1.299 1.299 0 0 1-1.224-1.407V73.255c0-.769.422-1.14 1.224-1.022zm22.252 8.01q4.718 10.101 9.333 20.25c2.17.68 3.254 1.031 5.411 1.772V76.472c-1.875-.642-2.813-.938-4.69-1.552v17.572q-4.614-10.162-9.327-20.283c-2.209-.558-3.31-.839-5.492-1.355v25.793c1.919.47 2.88.694 4.789 1.191q-.024-8.811-.024-17.595z"/>
</svg>
