<svg xmlns="http://www.w3.org/2000/svg" width="500" height="500" viewBox="0 0 500 500">
    <path fill="#1c2b39" d="M180.68 377.29c20.63 23.33 44 42.61 69.36 56.68 25.31-14 48.67-33.26 69.27-56.47a682 682 0 00-138.63-.21z"/>
    <path fill="#1c2b39" d="M425.67 212.32c10.41-45.36 13.85-89.9 10.7-131.85l-.21-1.56-.56-.37c-46.89-23.85-112.73-38.77-186.38-38.77S110.67 54.65 63.78 78.44l-.12 2a441.9 441.9 0 0010.45 131.8c26.84 116.95 95.18 210.05 175.65 254 80.48-43.94 149.08-136.97 175.91-253.92zm-174.5 227.45l-1.38.75-1.38-.75c-35.38-19.32-68.17-49.57-94.83-87.48-27.48-39.09-48-85.85-59.32-135.23a386.62 386.62 0 01-9.15-115.43l.19-3.36 1.47-.75c43.14-21.88 100.86-33.94 162.53-33.94 62.21 0 120.22 12.08 163.36 34l.28.16 1.58 1 .38 2.82c2.8 37.34-.35 76.19-9.37 115.5-11.32 49.34-31.88 96.1-59.44 135.2-26.68 37.94-59.5 68.18-94.92 87.51z"/>
    <path fill="#59cbe8" d="M404.66 179.08c-42.32-16.72-96.18-26.79-155.33-26.79-58.17 0-110.73 9.73-152.55 26-1.15.45-2.29.9-3.42 1.36.22 1.6.45 3.2.69 4.81q2.31 15.66 5.89 31.36a400.06 400.06 0 0019.5 61.72q3.72 9.11 7.85 17.91a344.72 344.72 0 0053.22 81.89 682 682 0 01138.63.21 344.35 344.35 0 0053.48-82q4.15-8.82 7.89-18A398.31 398.31 0 00400 215.84q3.93-17.12 6.34-34.1c.09-.62.19-1.25.27-1.87z"/>
    <path fill="#ff8200" d="M414.91 101.62l-.38-2.82-1.58-1-.28-.16c-43.14-21.94-101.16-34-163.36-34-61.68 0-119.4 12.05-162.53 33.94l-1.47.75-.19 3.36a386.62 386.62 0 009.15 115.43c11.33 49.38 31.85 96.15 59.32 135.23 26.65 37.91 59.44 68.16 94.83 87.48l1.38.75 1.38-.75c35.42-19.34 68.25-49.57 94.93-87.45 27.56-39.11 48.11-85.86 59.44-135.2 9.01-39.36 12.16-78.18 9.36-115.56zm-8.32 78v.29c-.09.62-.19 1.25-.27 1.87q-2.42 17-6.34 34.1a398.31 398.31 0 01-19.51 61.7q-3.74 9.13-7.89 18a344.35 344.35 0 01-53.48 82c-20.61 23.22-44 42.43-69.27 56.47-25.35-14.07-48.73-33.35-69.36-56.68a344.72 344.72 0 01-53.22-81.89q-4.13-8.8-7.85-17.91a400.06 400.06 0 01-19.5-61.72q-3.6-15.69-5.89-31.36c-.24-1.6-.48-3.2-.69-4.81 0-.17 0-.33-.06-.5A372 372 0 0190.85 102v-.11c42.19-21 98.37-32.58 158.46-32.58 60.9 0 117.63 11.7 159.89 33a368 368 0 01-2.6 77.27z"/>
    <path fill="#fff" d="M409.2 102.28c-42.26-21.26-99-33-159.89-33-60.08.04-116.31 11.6-158.46 32.62v.1a372 372 0 002.37 77.1c0 .17 0 .33.06.5 1.13-.46 2.27-.91 3.42-1.36 41.82-16.23 94.38-26 152.55-26 59.15 0 113 10.07 155.33 26.79l2 .79v-.29a368 368 0 002.62-77.25z"/>
    <path fill="#ff8200" d="M268 254.39a18 18 0 10-18 17.84 17.89 17.89 0 0018-17.84z"/>
    <g fill="#1c2b39">
        <path d="M305.41 233.52l52.16-1.95v-2.4l-41.66-1.56-10.5 5.91zm-120.57-5.94l-42.44 1.59v2.4l53.13 1.99-10.69-5.98zm116.44 54.74c-14.1.89-14.15 1.21-23.51-9.3a10.79 10.79 0 01-2.29-5.73 92.23 92.23 0 01-.84-10.07v-.49l4.48-3v-6.09l-8 4.83c.05.64.39 1.28.38 1.94s.1 1.32 0 2v.6c-.06.46-.09.91-.18 1.36 0 .21-.06.42-.11.63-.11.48-.23 1-.37 1.42 0 .14-.07.29-.12.44q-.28.86-.63 1.69c-.09.22-.2.44-.3.66s-.32.67-.49 1-.27.5-.41.75-.33.55-.51.83-.32.51-.49.76-.35.47-.53.7q-.56.74-1.19 1.43l-.41.45c-.28.29-.56.57-.86.84l-.37.34a21.57 21.57 0 01-4.89 3.28l-.25.12c-.44.21-.89.4-1.34.58l1.9 34.56 30.78-4q27.76-3 55.5-6.26l26.36-3.08q4.15-8.82 7.89-18c-26.36 1.59-52.78 3.14-79.2 4.81zM352.59 296a5.2 5.2 0 01-2.72-.89 9.7 9.7 0 01-1.18-.87c-.29-.25-.57-.51-.83-.77a6.68 6.68 0 01-1.57-2.67 7.34 7.34 0 01-.32-1.59v-.71a6.8 6.8 0 016.65-6.71h.08c3.65 0 6.6 3.49 6.58 7.13s-3.04 7.08-6.69 7.08zM238.3 272.05l-.12-.09c-.53-.37-1-.75-1.54-1.17s-1.06-.93-1.56-1.44a21.4 21.4 0 01-6.19-15.42c0-.49.77-1 .81-1.45l-8.83-5.37v6.63l6 3.26v.23c0 3.36-.86 6.72-1.23 10.07a11.06 11.06 0 01-2.51 5.73c-9.36 10.51-9.5 10.19-23.6 9.3-26.66-1.69-53.35-3.25-80-4.83q3.72 9.11 7.85 17.91l27.08 3.16q34.47 4 69 7.75h.49l16.24 2.11 1.74-34.43a21.2 21.2 0 01-3.63-1.95zM154 292.16a7.43 7.43 0 01-2.16 2.59 6.18 6.18 0 01-3.71 1.28c-1.79 0-3.47-1.25-4.73-2.53a7 7 0 01-1.92-5 6.8 6.8 0 016.66-6.71h.08c3.65 0 6.6 3.49 6.58 7.13a7.19 7.19 0 01-.8 3.24zm96.31-16.41a21.56 21.56 0 01-4.92-.59l-3.25 61c.89 9.39 3.79 14 7.94 18.95 4.15-4.9 7.05-8.92 7.94-18.31l-3.37-61.52a21.5 21.5 0 01-4.34.47zm20.76-26.94L322 220.18c6.4-4.94 9.74-9.72 11.78-14.84q.51-1.28.92-2.59c-6.36-.88-12.71-.31-21.12 4l-13.47 9.56-33.66 23.9a21.38 21.38 0 014.62 8.6zm-92.36-28.63l50.89 28.63a21.31 21.31 0 014.64-8.63l-26.77-19-20.34-14.45c-8.41-4.27-14.76-4.85-21.12-4a33.57 33.57 0 002.38 5.74 36.17 36.17 0 0010.32 11.71zm66.69 13.27a21.21 21.21 0 013.46-.53c.49 0 1-.06 1.47-.06h.26a21.39 21.39 0 0113.28 4.82L280 226.27l-9.51-.36-6.64-.25-9-15.9-3.44-43h-2.11l-3.44 43-8.95 15.91-14 .5-2.26.08 16.13 11.44a21.55 21.55 0 018.62-4.24z"/>
        <path d="M148.09 283.82a4.71 4.71 0 104.74 4.74v-.44a4.74 4.74 0 00-4.74-4.3zm204.5 0a4.74 4.74 0 00-4.73 4.45v.3a4.76 4.76 0 004.74 4.74h.4a4.74 4.74 0 00-.4-9.47z"/>
    </g>
    <path fill="#1c2b39" d="M139.8 141.5c-7.61 1.93-15.2 4.1-22.69 6.47V103.4c-4.3 1.35-6.45 2.06-10.72 3.52v55c11-3.74 22.14-7.13 33.41-10V141.5zm16.53 6.78c7.33-1.58 11-2.3 18.39-3.57a12.63 12.63 0 0010.88-12.57V98.25c0-6.41-4.46-10.21-10.88-9.1-7.38 1.27-11.06 2-18.39 3.57A13.55 13.55 0 00145.55 106v33.89c0 6.43 4.39 9.77 10.78 8.39zm.15-42.62a3 3 0 012.59-3.14c5.15-1.08 7.73-1.58 12.89-2.5 1.68-.3 2.6.46 2.6 2.14v29.61a2.87 2.87 0 01-2.6 3.05c-5.17.92-7.75 1.42-12.89 2.5-1.67.35-2.59-.37-2.59-2v-29.66zm50.35-3.06q10.3 17.93 20.46 35.95c4.79-.25 7.19-.34 12-.45v-55c-4.18.1-6.27.18-10.44.38v37.47q-10.16-18.05-20.46-36c-4.78.45-7.17.71-11.94 1.29v55c4.16-.51 6.24-.73 10.4-1.14q-.02-18.76-.02-37.5zm84.64 26.47V95.79a11.4 11.4 0 00-11-11.73q-14.48-1-29-1v55q14.51 0 29 1c6.53.41 11-3.58 11-9.99zm-13.74-.62c-6-.38-9-.52-15.08-.69V93.57c6 .17 9.05.31 15.08.69a2.53 2.53 0 012.63 2.74v29a2.19 2.19 0 01-2.63 2.46zm34.22 14.17c7.4 1 11.1 1.65 18.46 3 6.42 1.18 10.83-2.29 10.83-8.7v-33.89a13.05 13.05 0 00-10.83-13c-7.37-1.36-11.06-2-18.46-3-6.45-.91-10.92 3-10.92 9.43v33.89c-.03 6.44 4.46 11.36 10.92 12.27zm2.76-44.78c5.19.77 7.78 1.19 12.95 2.11a2.88 2.88 0 012.6 3.06v29.61c0 1.68-.92 2.42-2.6 2.12-5.17-.92-7.76-1.34-12.95-2.11a2.77 2.77 0 01-2.61-3v-29.61c0-1.64.9-2.43 2.61-2.18zm47.45 17.08q10.06 21.54 19.9 43.18c4.63 1.45 6.94 2.2 11.54 3.78v-55c-4-1.37-6-2-10-3.31v37.47q-9.84-21.67-19.89-43.25C359 96.6 356.65 96 352 94.9v55c4.09 1 6.14 1.48 10.21 2.54q-.05-18.79-.05-37.52z"/>
</svg>
