<svg xmlns="http://www.w3.org/2000/svg" width="250" height="248.25134" viewBox="0 0 250 248.25134">
    <g data-name="LA - Gladiators">
        <path class="color-violet" fill="#381460" d="M68.029341 42.668406l8.643897 1.370731c.97561-.058536.67317-.731707.67317-.731707v-6.34146a100.243841 100.243841 0 0147.65363-11.965846c55.229234 0 99.999939 44.390217 99.999939 99.131647a98.331647 98.331647 0 01-27.121935 67.878007l-6.268289-6.4878s-8.780482-7.51707-17.52194-14.517065l12.087797 16.190234s5.004875 6.419508 6.487801 9.921945a100.61945 100.61945 0 01-140.83406-5.434143v-9.897555a1.502438 1.502438 0 00-.580488-.917072l-11.029261-9.707311a1.365853 1.365853 0 00-1.160975 0l-1.687804.775609A98.014574 98.014574 0 0125.0001 124.13177c0-33.760955 17.02438-63.585327 43.029242-81.463365z"/>
        <path class="color-white" fill="#fff" d="M88.3025 45.844014c38.048757-17.560965 82.14629-5.09268 106.438959 27.463398-24.107303-30.395103-68.663373-40.858512-104.902375-24.13657-36.726807 16.951208-57.980453 58.60972-49.619482 97.107257-9.795116-40.078024 9.526823-82.634096 48.082897-100.434085zm122.83407 71.23898a88.292629 88.292629 0 01-23.726814 64.87801l-2.356096-1.951218c16.629258-16.55121 26.697544-39.29266 26.08291-62.926791zm-66.882885 86.131656a88.097507 88.097507 0 0038.307293-20.839012l1.917072 2.565852a86.385313 86.385313 0 01-39.346317 21.834133c-40.682902 10.146335-81.653609-10.336579-99.438964-46.858508 18.019501 34.360955 59.838988 52.956065 98.560916 43.297535z"/>
        <path class="color-white" fill="#fff" d="M196.575604 89.08789l-6.024387.029268c-7.51219-3.360973-16.04877-4.2439-16.04877-4.2439a4.878046 4.878046 0 01.419512-1.585364 1.565853 1.565853 0 00-.141464-1.726829 24.96096 24.96096 0 00-13.62926-5.434143c-1.019511-2.780486-3.521949-8.292677-3.521949-8.292677a5.263411 5.263411 0 00-3.058534-3.385364c-5.282924-3.258535-17.560965-6.151216-21.2195-6.926825-3.658534-.77561-11.70731-1.209756-11.70731-1.209756-6.804874.043903-15.707307 0-15.707307 0a31.770712 31.770712 0 01-16.263405-3.551217l.043903 1.156097a93.224333 93.224333 0 004.029265 9.004872c-13.32682 21.287792-.57073 41.765829-.57073 41.765829-20.234135-20.975597-6.49268-38.29266-6.49268-38.29266-14.804869 4.931704-24.980472 23.102425-24.980472 23.102425a12.7317 12.7317 0 01-1.887804 2.887803c-.346341.390244-4.66829 4.721948-4.66829 4.721948-2.809754 3.726827-10.502433 6.219509-10.502433 6.219509a15.760966 15.760966 0 0012.468286 4.54146c-1.512195 8.41463-.42439 17.917063-.42439 17.917063 3.751217 22.43901 12.126821 25.570716 12.126821 25.570716l10.995116 2.341462c31.043883 10.995115 38.282903 21.263401 38.282903 21.263401-1.034146-10.16097-7.268288-17.27316-15.443893-23.302424a73.13654 73.13654 0 01-17.531697-18.69755s10.946335 9.478043 20.282915 14.492674c32.195102 17.278038 22.063401 37.99022 22.063401 37.99022-2.190243 6.49268-9.292677 11.85853-9.292677 11.85853 10.921944 0 17.219501-3.360973 17.219501-3.360973 11.946335-6.160972 15.746332-12.585359 15.746332-12.585359-1.102438-13.009748-12.85365-44.287777-13.02926-44.814606-.746341-2.195121-5.136582-12.024383-5.136582-12.024383 8.390239-.585366 11.614627 1.531706 11.614627 1.531706a14.731698 14.731698 0 01.180487 6.580484c-.575609 2.341462-2.399998 5.2439-2.399998 5.2439s2.926827-.487805 4.878046-.02927c12.682919 3.019511 13.317065 12.78048 13.317065 12.78048-2.07317 3.087804-6.673167 5.17073-6.673167 5.17073a27.843885 27.843885 0 007.209752 1.804876l5.643899-2.312193c5.926825-2.72195 10.43414-8.86341 10.43414-8.86341a1.034146 1.034146 0 00.229268-.975609c-2.81951-5.36585.941463-11.546334.941463-11.546334l-.336585-4.804875-.35122-.117073a8.565848 8.565848 0 01-4.49268 4.878045c-1.643901.487805-4.175607 0-4.175607 0-5.819509-1.77073-7.404874-3.66829-7.404874-3.66829-2.278047-5.31707-1.580486-7.404874-1.580486-7.404874a27.268276 27.268276 0 0114.434137-15.278039c1.42439-.278049 1.951218.278049 1.951218.278049 5.824387 5.985362 9.03902 5.312192 9.03902 5.312192.278048-.27805.434145 0 .434145 0 .356098.87317-.239024 5.112191-.239024 5.112191 5.707314-3.487802 9.51219-14.99999 9.51219-14.99999.443902-1.512195 0-1.775609 0-1.775609-2.575609-3.6439-8.443898-8.975604-8.443898-8.975604a41.590218 41.590218 0 019.170726 4.751216c.531707-2.214632.712195-8.121946.712195-8.121946zm-69.756055-17.951208s-5.609753-4.136583-14.858528-4.54634c0 0-1.209755-.058536-1.209755.917073 0 0-.29756 6.082924 1.004878 10.98536 0 0 .029268.795121 1.59512 1.712194l7.443898 5.434143s.946341.414634 1.360975 3.307315l5.214631 24.302424s-6.956093-16.887795-12.02926-24.570717c0 0-4.839022-2.834144-7.073167-5.121948 0 0-4.180485-9.619506-1.604877-22.043889 0 0 .07317-.62439 1.609755-.414634 0 0 3.751217-.975609 17.868282 6.643899 0 0 10.63414-.17561 16.039014 2.2439.014634 0-11.619505-.029268-15.341454 1.15122zm30.02925 16.234136l9.019507-1.414633s2.390242-.868292 2.49756 1.19512l-.219513 3.37073 1.84878 2.82439z"/>
    </g>
</svg>
