<svg xmlns="http://www.w3.org/2000/svg" width="300" height="299.153" viewBox="0 0 300 299.153">
  <path class="color-lime" fill="#e5d456" d="m238.149 77.074-53.484 49.456-34.549-18.656-34.381 18.796-53.782-49.15L50 58.508l15.502 50.679 3.67 5.288 16.6 16.86.74.922-13.652-3.386 5.93 19.102 1.75 1.675 17.53 14 .493.548-12.88-1.042 11.08 16.605.981.749 10.67 6.586 1.86 2.595 2.847 10.605 3.028 5.033 20.446 29.562.633.721 7.907 4.972 1.074.572-3.865-9.688-25.302-63.079-1.098-7.577h.419l24.418 5.08.8 1.241.6 7.465 5.814 15.638 2.354 7.027 2.32-7.037 5.736-15.67.558-7.47.795-1.241 24.39-5.205.424-.005-1.06 7.586-24.982 63.205-3.814 9.712 1.065-.582 7.884-5.014.628-.72 20.298-29.666 3-5.051 2.79-10.619 1.852-2.6 10.637-6.646.977-.754 10.995-16.66-12.875 1.107.489-.549 17.465-14.088 1.74-1.684 5.832-19.135-13.633 3.456.735-.921 16.512-16.944 3.646-5.307L250 58z" data-name="LA - Valiant"/>
</svg>
