<svg xmlns="http://www.w3.org/2000/svg" width="250" height="248.251" viewBox="0 0 250 248.251">
  <g data-name="LA - Gladiators">
    <path class="color-violet" fill="#381460" d="m68.03 42.668 8.643 1.371c.976-.058.673-.732.673-.732v-6.341A100.244 100.244 0 0 1 125 25c55.23 0 100 44.39 100 99.132a98.332 98.332 0 0 1-27.122 67.878l-6.268-6.488s-8.78-7.517-17.522-14.517l12.088 16.19s5.004 6.42 6.487 9.922a100.62 100.62 0 0 1-140.834-5.434v-9.898a1.502 1.502 0 0 0-.58-.917l-11.03-9.707a1.366 1.366 0 0 0-1.16 0l-1.688.776A98.015 98.015 0 0 1 25 124.132c0-33.761 17.023-63.586 43.028-81.464z"/>
    <path class="color-white" fill="#fff" d="M88.302 45.844c38.05-17.561 82.147-5.093 106.44 27.463-24.108-30.395-68.664-40.858-104.903-24.136-36.727 16.951-57.98 58.61-49.62 97.107-9.795-40.078 9.527-82.634 48.083-100.434zm122.835 71.239a88.293 88.293 0 0 1-23.727 64.878l-2.356-1.951c16.629-16.551 26.697-39.293 26.083-62.927zm-66.883 86.132a88.098 88.098 0 0 0 38.307-20.84l1.917 2.566a86.385 86.385 0 0 1-39.346 21.835c-40.683 10.146-81.654-10.337-99.44-46.859 18.02 34.361 59.84 52.956 98.562 43.298z"/>
    <path class="color-white" fill="#fff" d="m196.576 89.088-6.025.03c-7.512-3.362-16.049-4.245-16.049-4.245a4.878 4.878 0 0 1 .42-1.585 1.566 1.566 0 0 0-.142-1.727 24.961 24.961 0 0 0-13.629-5.434c-1.02-2.78-3.522-8.293-3.522-8.293a5.263 5.263 0 0 0-3.058-3.385c-5.283-3.259-17.561-6.151-21.22-6.927-3.658-.776-11.707-1.21-11.707-1.21-6.805.044-15.707 0-15.707 0a31.77 31.77 0 0 1-16.264-3.55l.044 1.155a93.224 93.224 0 0 0 4.03 9.005c-13.327 21.288-.571 41.766-.571 41.766-20.234-20.976-6.493-38.293-6.493-38.293-14.805 4.932-24.98 23.103-24.98 23.103a12.732 12.732 0 0 1-1.888 2.887c-.347.39-4.669 4.722-4.669 4.722-2.81 3.727-10.502 6.22-10.502 6.22a15.761 15.761 0 0 0 12.468 4.541c-1.512 8.415-.424 17.917-.424 17.917 3.751 22.44 12.127 25.571 12.127 25.571l10.995 2.342c31.044 10.995 38.283 21.263 38.283 21.263-1.034-10.161-7.269-17.273-15.444-23.302a73.137 73.137 0 0 1-17.532-18.698s10.946 9.478 20.283 14.493c32.195 17.278 22.063 37.99 22.063 37.99-2.19 6.493-9.292 11.858-9.292 11.858 10.922 0 17.22-3.36 17.22-3.36 11.946-6.161 15.746-12.586 15.746-12.586-1.103-13.01-12.854-44.288-13.03-44.814-.746-2.196-5.136-12.025-5.136-12.025 8.39-.585 11.614 1.532 11.614 1.532a14.732 14.732 0 0 1 .18 6.58c-.575 2.342-2.4 5.244-2.4 5.244s2.928-.488 4.879-.029c12.683 3.02 13.317 12.78 13.317 12.78-2.073 3.088-6.673 5.171-6.673 5.171a27.844 27.844 0 0 0 7.21 1.805l5.643-2.312c5.927-2.722 10.435-8.864 10.435-8.864a1.034 1.034 0 0 0 .229-.975c-2.82-5.366.941-11.547.941-11.547l-.336-4.804-.351-.117a8.566 8.566 0 0 1-4.493 4.878c-1.644.487-4.176 0-4.176 0-5.82-1.771-7.405-3.669-7.405-3.669-2.278-5.317-1.58-7.405-1.58-7.405a27.268 27.268 0 0 1 14.434-15.278c1.424-.278 1.951.278 1.951.278 5.825 5.986 9.04 5.313 9.04 5.313.277-.278.433 0 .433 0 .357.873-.239 5.112-.239 5.112 5.708-3.488 9.513-15 9.513-15 .443-1.512 0-1.776 0-1.776-2.576-3.644-8.444-8.975-8.444-8.975a41.59 41.59 0 0 1 9.17 4.75c.532-2.214.713-8.121.713-8.121zM126.82 71.137S121.21 67 111.96 66.59c0 0-1.21-.058-1.21.917 0 0-.297 6.083 1.005 10.986 0 0 .03.795 1.595 1.712l7.444 5.434s.947.415 1.361 3.307l5.215 24.303s-6.956-16.888-12.03-24.57c0 0-4.839-2.835-7.073-5.123 0 0-4.18-9.62-1.605-22.044 0 0 .074-.624 1.61-.414 0 0 3.751-.976 17.869 6.644 0 0 10.634-.176 16.039 2.243.014 0-11.62-.029-15.342 1.152zm30.029 16.234 9.02-1.415s2.39-.868 2.497 1.195l-.22 3.371 1.85 2.824z"/>
  </g>
</svg>
