<svg xmlns="http://www.w3.org/2000/svg" width="300" height="299.15347" viewBox="0 0 300 299.15347">
    <path class="color-lime" fill="#e5d456" stroke-width=".465116" d="M238.14884 77.07441l-53.48372 49.45582-34.54884-18.65582-34.3814 18.79535-53.78139-49.14883L50 58.50697l15.50233 50.67907 3.66976 5.28837 16.6 16.86047.73954.92093-13.65116-3.38605 5.93023 19.10233 1.74883 1.67442 17.53024 14 .49302.54883-12.87907-1.04186 11.07907 16.60466.9814.74883 10.66976 6.58605 1.86047 2.59535 2.84651 10.60465 3.02791 5.03256 20.44651 29.56279.63256.72093 7.90697 4.97209 1.07442.57209-3.86511-9.68837-25.30233-63.07907-1.09767-7.57674h.4186l24.41861 5.07907.8 1.24186.6 7.46511 5.81395 15.63721 2.35349 7.02791 2.32093-7.03721 5.73488-15.66977.55814-7.46976.79535-1.24186 24.3907-5.20465.42325-.005-1.06046 7.58605-24.9814 63.20465-3.81395 9.71163 1.06512-.5814 7.88372-5.01395.6279-.72093 20.29768-29.66512 3-5.05116 2.7907-10.6186 1.85116-2.6 10.63721-6.64651.97674-.75349 10.99535-16.66047-12.87442 1.10698.48837-.54884 17.46512-14.08837 1.73954-1.68372 5.83255-19.13489-13.63255 3.45582.73488-.92093 16.51163-16.94419 3.64651-5.30697L250 58z" data-name="LA - Valiant"/>
</svg>
