<svg xmlns="http://www.w3.org/2000/svg" width="500" height="500" viewBox="0 0 500 500">
    <path fill="#e5d456" d="M439.52 84.12L324.53 190.45l-74.28-40.11-73.92 40.41L60.7 85.08 35 44.2l33.33 108.96 7.89 11.37 35.69 36.25 1.59 1.98-29.35-7.28 12.75 41.07 3.76 3.6 37.69 30.1 1.06 1.18-27.69-2.24 23.82 35.7 2.11 1.61 22.94 14.16 4 5.58 6.12 22.8 6.51 10.82 43.96 63.56 1.36 1.55 17 10.69 2.31 1.23-8.31-20.83-54.4-135.62-2.36-16.29h.9l52.5 10.92 1.72 2.67 1.29 16.05 12.5 33.62 5.06 15.11 4.99-15.13 12.33-33.69 1.2-16.06 1.71-2.67 52.44-11.19.91-.01-2.28 16.31-53.71 135.89-8.2 20.88 2.29-1.25 16.95-10.78 1.35-1.55 43.64-63.78 6.45-10.86 6-22.83 3.98-5.59 22.87-14.29 2.1-1.62 23.64-35.82-27.68 2.38 1.05-1.18 37.55-30.29 3.74-3.62 12.54-41.14-29.31 7.43 1.58-1.98 35.5-36.43 7.84-11.41L465 43.11l-25.48 41.01z" data-name="LA - Valiant"/>
</svg>
