<svg xmlns="http://www.w3.org/2000/svg" width="320" height="321.52" data-name="Layer 1" viewBox="0 0 320 321.52">
  <path class="color-black" fill="#171c38" d="M60 100h200v121.52H60z"/>
  <g class="color-blue color-reserved-white" fill="#0f57ea">
    <path d="m169.814 160.76 46.885-46.89h-19.62l-37.077 37.078-37.077-37.077h-19.619l46.885 46.89-46.885 46.884h19.619l37.077-37.073 37.078 37.073h19.619z"/>
    <path d="m209.052 160.76 37.077-37.077v-9.812h-9.812l-46.884 46.89 46.884 46.884h9.812v-9.807z"/>
    <path d="m228.67 160.76 17.46 17.459V143.3zM83.687 113.87h-9.812v9.813l37.078 37.077-37.078 37.078v9.807h9.812l46.885-46.885z"/>
    <path d="M73.875 143.301v34.918l17.46-17.459zm68.669 64.344h34.917l-17.459-17.454zm34.917-93.774h-34.917l17.458 17.459z"/>
  </g>
</svg>
