<svg xmlns="http://www.w3.org/2000/svg" width="500" height="500" data-name="Layer 1" viewBox="0 0 500 500">
    <path fill="#171c38" d="M31.48 117.23h437.03v265.54H31.48z"/>
    <g fill="#0f57ea">
        <path d="M271.44 250l102.45-102.46h-42.87L250 228.56l-81.02-81.02h-42.87L228.56 250 126.11 352.45h42.87L250 271.44l81.02 81.01h42.87L271.44 250z"/>
        <path d="M357.18 250l81.02-81.02v-21.44h-21.44L314.31 250l102.45 102.45h21.44v-21.43L357.18 250z"/>
        <path d="M400.05 250l38.15 38.15v-76.3L400.05 250zM83.24 147.54H61.8v21.44L142.82 250 61.8 331.02v21.43h21.44L185.69 250 83.24 147.54z"/>
        <path d="M61.8 211.85v76.3L99.95 250 61.8 211.85zm150.05 140.6h76.3L250 314.31l-38.15 38.14zm76.3-204.91h-76.3L250 185.69l38.15-38.15z"/>
    </g>
</svg>
