<svg xmlns="http://www.w3.org/2000/svg" width="320" height="321.52026" data-name="Layer 1" viewBox="0 0 320 321.52026">
    <path class="color-black" fill="#171c38" stroke-width=".457634" d="M60 100h200v121.52026H60z"/>
    <g class="color-blue" fill="#0f57ea">
        <path d="M169.813976 160.760132l46.884653-46.88923h-19.61879l-37.077547 37.077547-37.077546-37.077546h-19.61879l46.884653 46.88923-46.884653 46.884653h19.61879l37.077546-37.07297 37.077547 37.07297h19.61879z"/>
        <path d="M209.051557 160.760132l37.077547-37.077546v-9.811683h-9.811684l-46.884653 46.88923 46.884653 46.884653h9.811684v-9.807107z"/>
        <path d="M228.670348 160.760132l17.458756 17.458756v-34.917511zm-144.983183-46.88923H73.87548v9.811684l37.077547 37.077547-37.077547 37.077546v9.807107h9.811684l46.884653-46.884653z"/>
        <path d="M73.875481 143.301377v34.917511l17.458756-17.458755zm68.668056 64.343409h34.917511l-17.458756-17.45418zm34.917511-93.773883h-34.917511l17.458755 17.458755z"/>
    </g>
</svg>
