<svg xmlns="http://www.w3.org/2000/svg" width="249.272" height="250" viewBox="0 0 249.272 250">
  <g class="color-brown" fill="#8d042d">
    <path d="M140.687 131.814a28.501 28.501 0 1 0 38.638-36.106 27.206 27.206 0 1 1-38.638 36.106z"/>
    <path d="M164.86 135.905a22.396 22.396 0 0 1-18.255-5.527 22.351 22.351 0 1 0 33.51-29.425 22.446 22.446 0 0 1-15.255 34.952z"/>
    <path d="M203.167 98.812c-9.973-15.228-32.088-20.841-39.293-23-7.205-2.16-10.664-4.75-12.873-8.52-2.21-3.768-1.287-9.677 2.2-14.495-4.814 3.514-7.023 6.464-8.046 9.3l-.036.11a13.928 13.928 0 0 0-.66 2.863 25.456 25.456 0 0 0 2.882 15.91c4.214 7.86 13.297 13.182 19.338 16.919 6.04 3.736 9.427 11.76 6.41 18.578-3.02 6.818-10.91 9.864-17.702 9.055-6.79-.81-17.873-8.182-20.96-12.773 0 0 9.146 16.61 24.192 16.61 12.246 0 20.301-7.456 20.301-17.697s-3.945-14.75-16.769-22.2a28.506 28.506 0 0 1-9.827-8.888 42.33 42.33 0 0 0 12.618 6.255c20.338 5.105 29.647 16.296 32.606 22.728 2.96 6.433 6.223 20.838-6.164 35.534-18.26 19.337-40.333 8.287-47.73 1.486-6.163-5.673-12.79-18.182-17.409-31.937-.64-2.219-14.319-37.843-46.538-34.825-32.22 3.019-41.325 28.806-40.675 43.066 1.61 35.256 31.701 42.002 42.502 41.42 8.728-.455 14.282-3.978 14.282-3.978s-3.322.623-5.523.378c-9.86-.91-17.491-10.296-17.491-19.038a19.424 19.424 0 0 1 33.401-13.496 21.774 21.774 0 1 0-29.024 31.58c-20.85-5.215-28.097-18.397-29.86-32.548-1.532-12.273 7.386-34.547 30.983-37.151 22.324-2.482 34.547 19.091 37.483 26.442 0 0 7.655 19.841 12.22 46.652 4.563 26.81 8.259 61.848 8.259 61.848l11.073-43.547s-9.841-7.483-12.492-26.133c13.456 22.373 46.662 18.31 62.03 1.904 17.083-18.237 16.265-43.184 6.292-58.412z"/>
    <path d="M81.588 95.062a29.733 29.733 0 0 0-25.937 44.261 30.71 30.71 0 0 1 52.166-28.56 29.729 29.729 0 0 0-26.229-15.7z"/>
    <path d="M87.912 111.813a24.837 24.837 0 0 1 18.137 7.846 24.107 24.107 0 1 0-42.275 23.183 24.906 24.906 0 0 1 24.138-31.029zm87.276-61.88c11.269-.055 9.45 3.914 9.45 3.914 3.669-.568 5.965-1.937 5.455-5.055-.454-2.727-3.182-4.155-6.113-3.91-.328-2.527 3.095-5.454 3.095-5.454s-4.918-1.818-8.668 1.595c-.65-3.013.6-5.995 2.15-7.218-1.687-1.46-6.364-.95-9.092 2.882-2.032-2.587-1.604-5.91.841-8.591-3.509-.65-9.214 2.527-10.6 7.014-2.15-2.21-3.341-6.85-1.223-10.11-4.618 2.455-8.964 5.964-8.964 13.81.032 11.182 14.069 11.182 23.67 11.123zm9.164 8.596s-4.154 0-4.4 6.768c-.264 7.073 2.332 12.419 8.232 11.964 5.423-.422 6.414-6.818 2.855-10.268-3.032-2.928-7.019-3.737-7.337-5.8-.318-2.064.65-2.664.65-2.664z"/>
  </g>
</svg>
