<svg xmlns="http://www.w3.org/2000/svg" width="249.27202" height="250" viewBox="0 0 249.27202 250">
    <g class="color-brown" fill="#8d042d">
        <path d="M140.68663 131.813947a28.501296 28.501296 0 1038.63812-36.106187 27.205782 27.205782 0 11-38.63812 36.106187z"/>
        <path d="M164.860456 135.905042a22.396473 22.396473 0 01-18.255376-5.527524 22.351016 22.351016 0 1033.510615-29.424065 22.446475 22.446475 0 01-15.25524 34.951589z"/>
        <path d="M203.166743 98.812446c-9.973181-15.227965-32.087823-20.841856-39.292696-23.001045-7.204873-2.15919-10.66412-4.750216-12.873312-8.51857-2.209192-3.768352-1.286422-9.677712 2.2001-14.496113-4.813855 3.513796-7.023047 6.46393-8.04582 9.300423l-.036366.109096a13.927906 13.927906 0 00-.65912 2.863766 25.455703 25.455703 0 002.881948 15.909815c4.213828 7.859448 13.29606 13.182417 19.337243 16.91895 6.041184 3.736534 9.427702 11.759626 6.409383 18.578118-3.01832 6.818492-10.909587 9.864085-17.700805 9.054957-6.791218-.809128-17.87354-8.18219-20.960044-12.773308 0 0 9.14587 16.609846 24.192009 16.609846 12.246011 0 20.300923-7.454884 20.300923-17.696259 0-10.241375-3.945634-14.75067-16.768944-22.20101a28.505841 28.505841 0 01-9.82772-8.886767 42.329197 42.329197 0 0012.618756 6.25483c20.337288 5.104777 29.646802 16.296195 32.606027 22.728306 2.959226 6.43211 6.22301 20.83731-6.163916 35.533433-18.259921 19.337243-40.333652 8.28674-47.729443 1.486432-6.163916-5.672985-12.79149-18.182645-17.409882-31.937816-.640938-2.218283-14.318833-37.84263-46.53848-34.82431-32.219646 3.018319-41.324605 28.805855-40.674576 43.065594 1.609164 35.256148 31.701441 42.00191 42.501932 41.420065 8.72767-.454566 14.282468-3.977454 14.282468-3.977454s-3.322879.622756-5.522979.37729c-9.859539-.909132-17.491704-10.295923-17.491704-19.03723a19.42361 19.42361 0 0133.401519-13.496067 21.773717 21.773717 0 10-29.024047 31.578708c-20.850948-5.213873-28.096732-18.39629-29.860449-32.546934-1.531887-12.273285 7.3867-34.547025 30.983227-37.151689 22.323742-2.481931 34.547025 19.091777 37.483522 26.442111 0 0 7.654894 19.841811 12.218738 46.652121 4.563844 26.81031 8.259466 61.848266 8.259466 61.848266l11.07323-43.547434s-9.841356-7.482158-12.491476-26.133006c13.455157 22.373744 46.661212 18.309923 62.030093 1.904632 17.082594-18.237193 16.264375-43.183781 6.291195-58.411747z"/>
        <path d="M81.588488 95.062276a29.73317 29.73317 0 00-25.937543 44.261103 30.710487 30.710487 0 0152.166008-28.56039 29.728624 29.728624 0 00-26.228465-15.700713z"/>
        <path d="M87.911503 111.813038a24.837493 24.837493 0 0118.137188 7.84581 24.10701 24.10701 0 10-42.274649 23.182873 24.905678 24.905678 0 0124.137461-31.028683zm87.276695-61.880086c11.268694-.054548 9.45043 3.913814 9.45043 3.913814 3.668348-.568208 5.963907-1.936452 5.454793-5.054775-.454566-2.727397-3.181963-4.154735-6.113914-3.909269-.327288-2.527388 3.095595-5.454793 3.095595-5.454793s-4.918405-1.818265-8.668576 1.595527c-.65003-3.013774.600027-5.995727 2.150098-7.21851-1.68644-1.459158-6.363926-.950044-9.091323 2.881949-2.03191-2.586481-1.604618-5.90936.840948-8.5913-3.50925-.65003-9.214055 2.527388-10.600482 7.013955-2.150098-2.20919-3.341061-6.850311-1.222783-10.10955-4.618392 2.454657-8.964044 5.963907-8.964044 13.809719.03182 11.182326 14.068822 11.182326 23.669258 11.123233zm9.164053 8.595845s-4.154734 0-4.4002 6.76849c-.263648 7.073048 2.331924 12.418746 8.232192 11.96418 5.422974-.422747 6.413928-6.818492 2.854676-10.268649-3.031956-2.927406-7.018501-3.736533-7.336698-5.800264-.318196-2.06373.65003-2.663757.65003-2.663757z"/>
    </g>
</svg>
