<svg xmlns="http://www.w3.org/2000/svg" width="500" height="500" viewBox="0 0 500 500">
    <g fill="#8d042d">
        <path d="M275.31 265a62.7 62.7 0 1085-79.43 59.85 59.85 0 11-85 79.43z"/>
        <path d="M328.49 274a49.27 49.27 0 01-40.16-12.16 49.17 49.17 0 1073.72-64.73A49.38 49.38 0 01328.49 274z"/>
        <path d="M412.76 192.4c-21.94-33.5-70.59-45.85-86.44-50.6s-23.46-10.45-28.32-18.74-2.83-21.29 4.84-31.89c-10.59 7.73-15.45 14.22-17.7 20.46l-.08.24a30.64 30.64 0 00-1.45 6.3 56 56 0 006.34 35c9.27 17.29 29.25 29 42.54 37.22s20.74 25.87 14.1 40.87-24 21.7-38.94 19.92-39.32-18-46.11-28.1c0 0 20.12 36.54 53.22 36.54 26.94 0 44.66-16.4 44.66-38.93s-8.68-32.45-36.89-48.84a62.71 62.71 0 01-21.62-19.55 93.12 93.12 0 0027.76 13.76c44.74 11.23 65.22 35.85 71.73 50s13.69 45.84-13.56 78.17c-40.17 42.54-88.73 18.23-105 3.27-13.56-12.48-28.14-40-38.3-70.26-1.41-4.88-31.5-83.25-102.38-76.61S50.25 214 51.68 245.37c3.54 77.56 69.74 92.4 93.5 91.12 19.2-1 31.42-8.75 31.42-8.75s-7.31 1.37-12.15.83c-21.69-2-38.48-22.65-38.48-41.88A42.73 42.73 0 01199.45 257a47.9 47.9 0 10-63.85 69.47C89.73 315 73.79 286 69.91 254.87c-3.37-27 16.25-76 68.16-81.73 49.11-5.46 76 42 82.46 58.17 0 0 16.84 43.65 26.88 102.63S265.58 470 265.58 470l24.36-95.8s-21.65-16.46-27.48-57.49c29.6 49.22 102.65 40.28 136.46 4.19 37.58-40.12 35.78-95 13.84-128.5z"/>
        <path d="M145.3 184.15a65.41 65.41 0 00-57.06 97.37A67.56 67.56 0 01203 218.69a65.4 65.4 0 00-57.7-34.54z"/>
        <path d="M159.21 221a54.64 54.64 0 0139.9 17.26 53 53 0 10-93 51 54.79 54.79 0 0153.1-68.26zm192-136.13C376 84.75 372 93.48 372 93.48c8.07-1.25 13.12-4.26 12-11.12-1-6-7-9.14-13.45-8.6-.72-5.56 6.81-12 6.81-12s-10.82-4-19.07 3.51c-1.43-6.63 1.32-13.19 4.73-15.88-3.71-3.21-14-2.09-20 6.34-4.47-5.69-3.53-13 1.85-18.9-7.72-1.43-20.27 5.56-23.32 15.43-4.73-4.86-7.35-15.07-2.69-22.24-10.16 5.4-19.72 13.12-19.72 30.38.07 24.6 30.95 24.6 52.07 24.47zm20.16 18.91s-9.14 0-9.68 14.89c-.58 15.56 5.13 27.32 18.11 26.32 11.93-.93 14.11-15 6.28-22.59-6.67-6.44-15.44-8.22-16.14-12.76s1.43-5.86 1.43-5.86z"/>
    </g>
</svg>
