<svg xmlns="http://www.w3.org/2000/svg" width="269.99997" height="269.69208" viewBox="0 0 269.99997 269.69208">
    <path class="color-black" stroke-width=".425522" d="M185.18843 94.34788h-83.12138v40.45433H67.531715l34.411935 22.16967.24255 42.52663 24.52706-22.66328v-19.73569l48.93497.12766 20.89311-20.89311v-31.27583s1.08083-10.92314-11.35291-10.71038zm-58.47092 22.05478h41.47559c1.30209.0383 5.69347.53616 5.49773 5.48497v5.34881l-7.23386 7.23387c-.23404.034-.47659.0638-.72764.0894h-39.01182z"/>
    <path class="color-gold" fill="#f99d2a" stroke-width=".425522" d="M96.548035 107.61139c-6.74878-16.65917-8.01683-30.58649-2.97865-38.67991-6.59133-.55318-14.08902 2.65525-14.08902 2.65525 19.42931-16.84639 42.518115-7.94874 42.518115-7.94874 12.40821 3.9148 27.14827 12.76565 41.94791 25.18662h10.13167c-33.7779-33.45025-70.40254-52.33915-88.734015-43.76489-18.33146 8.57426-12.68054 41.70111 11.20399 79.52998zm138.451945 85.82769a47.445651 47.445651 0 00-.53616-5.70199l-.14893-.0255c-1.02551-6.99557-3.36162-14.89325-6.91047-23.40368a195.37396 195.37396 0 00-13.38691-25.63345q2.02974-2.55313 3.82969-5.05094a94.606203 94.606203 0 009.53169-16.77832c3.99139-10.08911 3.57012-18.41657-2.12761-23.7058-6.69771-6.2041-19.65484-7.26791-36.08848-4.01267a16.450663 16.450663 0 015.9573 2.14888c12.14438-2.33611 24.6377-1.33188 29.40779 5.80837 8.01257 11.99546-12.76564 37.99908-12.76564 37.99908q-.54467-.85105-1.12338-1.7489-.85104-1.29784-1.73187-2.60419c-2.26378-3.34034-4.68074-6.70622-6.83388-9.58274v7.94874c4.08926 5.69773 6.63388 9.74019 6.57005 9.82529-4.29351 5.59135-10.65931 11.77418-16.69321 17.14001q-5.34455 4.82967-11.42525 9.65508c-3.268 2.62121-5.40412 4.22543-5.40412 4.22543h-.0255q-4.25522 3.19567-8.81256 6.33602-1.89782 1.3106-3.80841 2.55313a11.008242 11.008242 0 00-6.09347-3.18291c-6.15304-1.04678-12.16566 2.97866-13.43372 8.93596a10.514637 10.514637 0 00.42553 5.85517c-35.74381 19.72293-69.585545 27.5355-82.674585 17.95276l-.38297 1.84251c-1.08083 5.72326 1.05104 12.58267 1.05104 12.58267-8.22108-11.72312-7.28919-23.78666-5.49774-31.06308 2.55313-11.06356 12.41672-25.30576 27.75251-39.99902l-5.74879-3.71906c-35.05447 29.9865-51.803 60.16449-38.09695 72.84503 14.89326 13.7869 60.675125 2.1957 106.925055-25.82064a11.114623 11.114623 0 005.05945 2.23399c6.15305 1.04678 12.16567-2.97866 13.43372-8.93596a10.548679 10.548679 0 00-.20851-5.23391q8.08491-5.69348 15.3741-11.53164l.034.0255q1.94889-1.5872 3.7914-3.14461c14.54007-12.28055 23.80367-22.65051 26.13978-25.34406l.56169-.6553.0213-.0255c5.82113 9.18701 9.91039 17.28894 12.76564 24.28452 3.00844 7.26365 4.98712 14.04221 5.86795 20.0293h-.0979a53.568906 53.568906 0 01.55317 5.60837h.0511q.0468 1.62549-.034 3.14886a19.816538 19.816538 0 01-.42553 3.88927h-.0213c-1.11912 5.89347-4.08501 10.25932-9.03808 12.57416-8.18278 3.82969-20.48886 1.44677-34.46724-5.64242-13.97839-7.08919-7.28919-3.37864-21.7016-11.5912 0 0 3.92756 5.17008 18.12722 13.92732 16.9315 9.05084 31.8673 12.26778 41.62451 7.70619 6.97004-3.25949 10.46783-10.09762 10.80399-19.41229h-.0298s0-.10213.0425-.30638q.0426-1.56166-.0298-3.21268z"/>
</svg>
