<svg xmlns="http://www.w3.org/2000/svg" width="270" height="269.692" viewBox="0 0 270 269.692">
  <path class="color-black" d="M185.188 94.348h-83.12v40.454H67.531l34.412 22.17.242 42.527 24.527-22.664V157.1l48.935.127 20.893-20.893v-31.276s1.081-10.923-11.353-10.71zm-58.47 22.055h41.475c1.302.038 5.694.536 5.498 5.485v5.348l-7.234 7.234c-.234.034-.477.064-.728.09h-39.011z"/>
  <path class="color-gold" fill="#f99d2a" d="M96.548 107.611c-6.749-16.659-8.017-30.586-2.979-38.68-6.59-.553-14.089 2.656-14.089 2.656 19.43-16.847 42.518-7.949 42.518-7.949 12.409 3.915 27.149 12.766 41.948 25.187h10.132c-33.778-33.45-70.402-52.34-88.734-43.765-18.331 8.574-12.68 41.7 11.204 79.53zM235 193.44a47.446 47.446 0 0 0-.536-5.702l-.15-.025c-1.025-6.996-3.36-14.894-6.91-23.404a195.374 195.374 0 0 0-13.386-25.634q2.03-2.553 3.83-5.05a94.606 94.606 0 0 0 9.53-16.779c3.992-10.089 3.571-18.416-2.127-23.706-6.697-6.204-19.655-7.268-36.088-4.012a16.45 16.45 0 0 1 5.957 2.149c12.144-2.337 24.638-1.332 29.408 5.808 8.012 11.995-12.766 38-12.766 38q-.544-.852-1.123-1.75-.851-1.298-1.732-2.604a257.478 257.478 0 0 0-6.834-9.583v7.949c4.09 5.698 6.634 9.74 6.57 9.825-4.293 5.592-10.66 11.774-16.693 17.14q-5.345 4.83-11.425 9.655c-3.268 2.622-5.404 4.226-5.404 4.226h-.026q-4.255 3.195-8.812 6.336-1.898 1.31-3.809 2.553a11.008 11.008 0 0 0-6.093-3.183c-6.153-1.047-12.166 2.979-13.434 8.936a10.515 10.515 0 0 0 .425 5.855c-35.743 19.723-69.585 27.536-82.674 17.953l-.383 1.842c-1.08 5.724 1.05 12.583 1.05 12.583-8.22-11.723-7.288-23.787-5.497-31.063 2.553-11.064 12.417-25.306 27.753-39.999l-5.75-3.72C42.818 178.023 26.07 208.2 39.776 220.882c14.893 13.787 60.675 2.196 106.925-25.82a11.115 11.115 0 0 0 5.06 2.233c6.153 1.047 12.165-2.978 13.433-8.936a10.549 10.549 0 0 0-.208-5.234q8.085-5.693 15.374-11.531l.034.025q1.949-1.587 3.791-3.144c14.54-12.28 23.804-22.65 26.14-25.344l.562-.656.021-.025c5.821 9.187 9.91 17.289 12.766 24.284 3.008 7.264 4.987 14.043 5.868 20.03h-.098a53.569 53.569 0 0 1 .553 5.608h.05q.048 1.626-.033 3.149a19.817 19.817 0 0 1-.426 3.89h-.02c-1.12 5.893-4.086 10.258-9.039 12.573-8.183 3.83-20.489 1.447-34.467-5.642-13.979-7.09-7.29-3.379-21.702-11.591 0 0 3.928 5.17 18.127 13.927 16.932 9.05 31.868 12.268 41.625 7.706 6.97-3.26 10.468-10.097 10.804-19.412h-.03s0-.102.043-.306q.042-1.562-.03-3.213z"/>
</svg>
