<svg xmlns="http://www.w3.org/2000/svg" width="320" height="330.523" viewBox="0 0 320 330.523">
  <g class="color-orange" fill="#fc4c02">
    <path d="M248.298 78H71.495C65.09 78 60.01 82.83 60.01 89.24v89.552h69.534a1.87 1.87 0 0 0 1.101-.358 3.371 3.371 0 0 0 1.47-2.888 3.407 3.407 0 0 0-1.345-2.805l-40.852-12.056c-9.105-2.363-14.258-8.17-16.304-17.047a47.022 47.022 0 0 1 .405-22.781c2.472-9.215 9.5-14.918 18.538-15.24l167.443.047V89.24c-.016-6.41-5.277-11.24-11.702-11.24z"/>
    <path d="M198.174 144.173h44.358v23.997h-44.358v34.905h-31.268v-73.497h-60.772c-1.49 0-2.7 1.454-2.7 3.251a3.392 3.392 0 0 0 1.412 2.857c1.143.93 2.748 1.418 4.223 1.823 11.583 3.184 23.197 6.233 34.8 9.453 13.786 3.818 19.946 8.95 20.284 24.013.135 5.802-.115 11.827-1.278 17.535-1.787 8.789-8.67 14.59-18.933 14.59 0 0-54.855 0-83.942-.025v38.956s0 7.157 5.09 8.752v-9.807l1.455-6.45 1.454 6.45v11.027a9.35 9.35 0 0 0 2.95.52h2.15v-10.83l1.819-11.282 1.817 11.282v10.83h5.818V239.35l1.454-10.112 1.455 10.112v13.173h5.09v-16.03l1.818-9.515 1.818 9.516v16.029h5.09v-18.74l1.818-9.35 1.818 9.35v18.74h5.09v-29.607l1.455-11.281 1.454 11.281v29.607h5.817v-29.607l1.818-11.281 1.818 11.281v29.607h5.09v-18.74l1.455-9.35 1.454 9.35v18.74h5.09v-16.03l1.818-9.515 1.818 9.516v16.029h5.09V239.35L144 229.238l1.818 10.112v13.173h5.09v-10.83l1.819-11.282 1.818 11.282v10.83h5.09v-11.547l1.818-6.45 1.818 6.45v11.547h4.363v-9.921l1.818-5.236 1.818 5.236v9.92h4.363v-8.777l1.818-4.363 1.818 4.363v8.778h5.09v-8.31l1.454-7.631 1.455 7.63v8.31h5.817v-9.868l1.818-6.84 1.818 6.84v9.869h5.09V240.71l1.455-6.435 1.454 6.435v11.812h5.09v-13.64l1.818-6.326 1.818 6.326v13.64h5.09v-21.005l1.818-7.63 1.818 7.63v21.005h5.09v-21.005l1.818-7.63 1.818 7.63v21.005h5.09v-13.64l1.818-6.326 1.818 6.326v13.64h5.09V240.71l1.455-6.435 1.454 6.435v11.812h.857a11.328 11.328 0 0 0 4.234-.836v-9.033l1.818-6.84 1.818 6.84v6.944a11.282 11.282 0 0 0 3.635-8.31v-111.71h-61.81z"/>
  </g>
</svg>
