<svg xmlns="http://www.w3.org/2000/svg" width="320" height="330.5228" viewBox="0 0 320 330.5228">
    <g class="color-orange" fill="#fc4c02">
        <path d="M248.297622 78H71.494611c-6.404363 0-11.484223 4.830541-11.484223 11.240099v89.552005h69.533826a1.869887 1.869887 0 001.101156-.358395 3.37099 3.37099 0 001.469939-2.887936 3.40735 3.40735 0 00-1.34528-2.80483l-40.851837-12.055578c-9.105311-2.36333-14.257889-8.170367-16.304376-17.047137a47.022464 47.022464 0 01.405142-22.781456c2.472406-9.214388 9.500065-14.917544 18.537852-15.23958l167.443188.046747V89.2401C259.984416 82.830542 254.722762 78 248.297622 78z"/>
        <path d="M198.174262 144.173224h44.357875v23.996883h-44.357875v34.904558h-31.268666v-73.496948h-60.771328c-1.490716 0-2.700948 1.454356-2.700948 3.251526a3.391767 3.391767 0 001.412803 2.856771c1.142709.92975 2.747695 1.417998 4.222828 1.82314 11.582912 3.184002 23.196988 6.232957 34.800675 9.453318 13.785223 3.817686 19.945462 8.949487 20.28308 24.012466.135048 5.801844-.11427 11.827035-1.277756 17.535385-1.78678 8.788469-8.669004 14.590312-18.932606 14.590312 0 0-54.855213 0-83.942344-.02597v38.95598s0 7.157511 5.090248 8.75211v-9.80652l1.454356-6.45111 1.454357 6.45111v11.02714a9.349435 9.349435 0 002.950266.519413h2.15037v-10.829762l1.817946-11.281652 1.817945 11.281652v10.829762h5.817427v-13.172315L84.00727 229.2375l1.454357 10.112972v13.172315h5.090248V236.4937l1.817946-9.515647 1.817945 9.515647v16.029087h5.090248v-18.740423l1.817946-9.349435 1.817946 9.349435v18.740423h5.090248v-29.606544l1.454356-11.281652 1.454357 11.281652v29.606544h5.817426v-29.606544l1.817946-11.281652 1.817946 11.281652v29.606544h5.090248v-18.740423l1.454356-9.349435 1.454357 9.349435v18.740423h5.090248V236.4937l1.817945-9.515647 1.817946 9.515647v16.029087h5.090248v-13.172315l1.817946-10.112972 1.817945 10.112972v13.172315h5.090248v-10.829762l1.817946-11.281652 1.817946 11.281652v10.829762h5.090248v-11.546552l1.817946-6.45111 1.817945 6.45111v11.546552h4.36307v-9.92079l1.817946-5.235683 1.817945 5.235684v9.92079h4.36307v-8.778082l1.817946-4.36307 1.817946 4.36307v8.778081h5.090248v-8.310609l1.454356-7.630178 1.454357 7.630178v8.31061h5.817426v-9.86885l1.817946-6.84067 1.817945 6.84067v9.86885h5.090248v-11.811454l1.454357-6.435528 1.454356 6.435528v11.811453h5.090248V238.883l1.817946-6.32645 1.817946 6.32645v13.639787h5.090248v-21.005064l1.817946-7.630178 1.817945 7.630178v21.005064h5.090248v-21.005064l1.817946-7.630178 1.817946 7.630178v21.005064h5.090248V238.883l1.817945-6.32645 1.817946 6.32645v13.639787h5.090248v-11.811453l1.454357-6.435528 1.454356 6.435528v11.811453h.857032a11.328399 11.328399 0 004.233216-.836255v-9.032593l1.817946-6.84067 1.817946 6.84067v6.944553a11.281652 11.281652 0 003.635891-8.31061V129.577718h-61.810154z"/>
    </g>
</svg>
