<svg xmlns="http://www.w3.org/2000/svg" width="500" height="500" viewBox="0 0 500 500">
    <g fill="#fc4c02">
        <path d="M420 82H79.61c-12.33 0-22.11 9.3-22.11 21.64v172.41h133.87a3.6 3.6 0 002.12-.69 6.49 6.49 0 002.83-5.56 6.56 6.56 0 00-2.59-5.4l-78.65-23.21c-17.53-4.55-27.45-15.73-31.39-32.82a90.53 90.53 0 01.78-43.86c4.76-17.74 18.29-28.72 35.69-29.34l322.37.09v-31.62C442.5 91.3 432.37 82 420 82z"/>
        <path d="M323.5 209.4h85.4v46.2h-85.4v67.2h-60.2V181.3h-117c-2.87 0-5.2 2.8-5.2 6.26a6.53 6.53 0 002.72 5.5c2.2 1.79 5.29 2.73 8.13 3.51 22.3 6.13 44.66 12 67 18.2C245.49 222.12 257.35 232 258 261c.26 11.17-.22 22.77-2.46 33.76-3.44 16.92-16.69 28.09-36.45 28.09 0 0-105.61 0-161.61-.05v75s0 13.78 9.8 16.85v-18.88l2.8-12.42 2.8 12.42V417a18 18 0 005.68 1h4.14v-20.85l3.5-21.72 3.5 21.72V418h11.2v-25.36l2.8-19.47 2.8 19.47V418h9.8v-30.86l3.5-18.32 3.5 18.32V418h9.8v-36.08l3.5-18 3.5 18V418h9.8v-57l2.8-21.72 2.8 21.72v57h11.2v-57l3.5-21.72 3.5 21.72v57h9.8v-36.08l2.8-18 2.8 18V418h9.8v-30.86l3.5-18.32 3.5 18.32V418h9.8v-25.36l3.5-19.47 3.5 19.47V418h9.8v-20.85l3.5-21.72 3.5 21.72V418h9.8v-22.23l3.5-12.42 3.5 12.42V418h8.4v-19.1l3.5-10.08 3.5 10.08V418h8.4v-16.9l3.5-8.4 3.5 8.4V418h9.8v-16l2.8-14.69 2.8 14.69v16h11.2v-19l3.5-13.17 3.5 13.17v19h9.8v-22.74l2.8-12.39 2.8 12.39V418h9.8v-26.26l3.5-12.18 3.5 12.18V418h9.8v-40.44l3.5-14.69 3.5 14.69V418h9.8v-40.44l3.5-14.69 3.5 14.69V418h9.8v-26.26l3.5-12.18 3.5 12.18V418h9.8v-22.74l2.8-12.39 2.8 12.39V418h1.65a21.81 21.81 0 008.15-1.61V399l3.5-13.17 3.5 13.17v13.37a21.72 21.72 0 007-16V181.3h-119z"/>
    </g>
</svg>
