<svg xmlns="http://www.w3.org/2000/svg" width="500" height="500" viewBox="0 0 500 500">
    <path d="M422.25 138.29l6.64-66.09-20.03-17.9-61.84 3.97-30.39-14.74H183.37l-30.4 14.74-61.83-3.97-20.03 17.9 6.64 66.09L40 234.39l20.57-5.01 17.64 116.45 18.21-13.52 62.86 81.07 5.69-23.91 10.25 4.32 14.12 51.47 28.46-7.74 32.2 34.95 32.2-34.95 28.46 7.74 14.12-51.47 10.25-4.32 5.69 23.91 62.85-81.07 18.22 13.52 17.64-116.45 20.57 5.01-37.75-96.1z"/>
    <path fill="#fff" d="M86.47 77.91l6.47 61.82-31.77 74.72 11.32-2.17 15.88 106.25 8.79-9.14 55.87 69.24.31-25.97-50.02-58.49-12.71-86.53 36.17-81.73-36.85-46.33-3.46-1.67zm77.24 151.99l5.26 21.03 39.17 15.13-7.13-21.36-37.3-14.8z"/>
    <path fill="#ac8a00" d="M413.39 75.85l-8.63-7.42L343.47 74l-36.6-16.66H193L156.4 74l-61.29-5.57-8.63 7.42v2.07l50.73 24.44-46.6 105.28 12.71 86.53 50 58.49v-26.42l-36.51-42.56-9.46-75.68L133 150l28.44-17.14L134.58 198l79.27 31.26 11.29 42.15-9.08 22.19-3.63-12.1-56.88-22.59-8.47-33.08-19.56-8.47L135 279l24.2 21.38 18.35-12.3v57.71l37.72 39.91 26.83-9.28-30.66-27.63V321.4l38.5 35.5 38.5-35.5v27.43l-30.66 27.63 26.83 9.28 37.72-39.91v-57.71l18.35 12.3 24.2-21.42 7.46-61.72-19.56 8.47-8.47 33.08-56.88 22.59-3.63 12.1-9.08-22.19L286 229.22 365.28 198l-26.83-65.15L366.9 150l25.61 58-9.51 75.68-36.51 42.56v26.42l50-58.49 12.71-86.53-46.54-105.28 50.73-24.44zM261 175.83l-11.12 25.25-11.12-25.25-65.42-24.77L189.75 139l42.88 17.31-2.87-17.31-43.83-17 14.93-11.12L229.45 122l-2.86-16.67-27.79-10.8 12.86-10.8 38.27 13 38.27-13 12.86 10.8-27.79 10.8-2.85 16.67L299 110.88 313.93 122l-43.83 17-2.86 17.31L310.12 139l16.36 12.07z"/>
    <path fill="#fff" d="M413.39 77.91l-6.46 61.82 31.76 74.72-11.31-2.17-15.88 106.25-8.8-9.14-55.86 69.24-.31-25.97 50.02-58.49 12.71-86.53-36.17-81.73 36.85-46.33 3.45-1.67zM336.16 229.9l-5.26 21.03-39.17 15.13 7.13-21.36 37.3-14.8zm-46.9 179.45l-39.33-13.64-39.32 13.64-25.69-26.41 13.93 48.03 23.95-5.22 27.14 28.42 27.13-28.42 23.95 5.22 13.93-48.03-25.69 26.41z"/>
</svg>
