<svg xmlns="http://www.w3.org/2000/svg" width="295.832" height="300" viewBox="0 0 295.832 300">
  <path class="color-black" d="m228.23 94.183 3.096-30.815-9.34-8.346-28.833 1.85L178.983 50H116.85l-14.175 6.873-28.83-1.851-9.338 8.346 3.096 30.815L50 138.991l9.591-2.336 8.225 54.297 8.49-6.304 29.31 37.8 2.653-11.148 4.78 2.014 6.583 23.999 13.27-3.609L147.916 250l15.014-16.296 13.27 3.609 6.583-23.999 4.78-2.014 2.652 11.148 29.305-37.8 8.496 6.304 8.225-54.297 9.59 2.336z"/>
  <path class="color-white" fill="#fff" d="m71.667 66.03 3.017 28.825-14.813 34.84 5.278-1.013 7.404 49.541 4.099-4.262 26.05 32.285.145-12.11-23.323-27.271-5.926-40.346L90.463 88.41 73.28 66.809zm36.015 70.868 2.452 9.806 18.264 7.054-3.325-9.96z"/>
  <path class="color-gold color-reserved-white" fill="#ac8a00" d="m224.099 65.07-4.024-3.46-28.577 2.597-17.066-7.768H121.34l-17.066 7.768-28.577-2.597-4.024 3.46v.965L95.326 77.43l-21.728 49.09 5.926 40.346 23.313 27.272v-12.319l-17.023-19.844-4.411-35.287 11.96-27.044 13.26-7.991L94.1 122.024l36.96 14.576 5.264 19.653-4.233 10.346-1.693-5.642-26.521-10.533L99.927 135l-9.12-3.949 3.488 28.74 11.284 9.97 8.556-5.736v26.908l17.587 18.61 12.51-4.328-14.295-12.883v-12.77l17.95 16.552 17.952-16.553v12.79l-14.296 12.883 12.51 4.327 17.588-18.609v-26.908l8.556 5.735 11.283-9.987 3.479-28.778-9.12 3.949-3.95 15.424-26.52 10.533-1.693 5.642-4.234-10.347 5.26-19.634 36.965-14.557-12.51-30.377 13.265 7.996 11.941 27.044-4.434 35.287-17.023 19.844v12.319l23.313-27.272 5.926-40.346-21.7-49.089L224.1 66.035zm-71.054 46.617-5.185 11.773-5.185-11.773-30.503-11.55 7.651-5.623 19.994 8.071-1.338-8.07-20.437-7.927 6.961-5.185 13.331 5.185-1.333-7.773-12.958-5.035 5.996-5.036 17.844 6.061 17.844-6.061 5.996 5.036-12.957 5.035-1.33 7.773 13.327-5.185 6.961 5.185-20.436 7.926-1.334 8.071 19.994-8.07 7.628 5.627z"/>
  <path class="color-white" fill="#fff" d="m224.099 66.03-3.012 28.825 14.808 34.84-5.273-1.013-7.404 49.541-4.103-4.262-26.046 32.285-.145-12.11 23.323-27.271 5.926-40.346-16.865-38.108 17.182-21.602zm-36.01 70.868-2.452 9.806-18.264 7.054 3.325-9.96zm-21.868 83.671-18.338-6.36-18.333 6.36-11.979-12.314 6.495 22.395 11.167-2.434 12.655 13.251 12.65-13.25 11.167 2.433 6.495-22.395z"/>
</svg>
