<svg xmlns="http://www.w3.org/2000/svg" width="295.83157" height="300" viewBox="0 0 295.83157 300">
    <path class="color-black" stroke-width=".466266" d="M228.23005 94.18334l3.09601-30.8155-9.3393-8.34616-28.83387 1.85108L178.98307 50h-62.13456l-14.17448 6.87276-28.82921-1.85108-9.3393 8.34616 3.09601 30.8155L50 138.99147l9.59108-2.33599 8.22493 54.29663 8.4907-6.30391 29.30946 37.80016 2.65305-11.14841 4.77922 2.01427 6.58367 23.99869 13.26993-3.6089L147.91579 250l15.01375-16.29599 13.26993 3.6089 6.58367-23.99869 4.77922-2.01427 2.65305 11.14841 29.3048-37.80016 8.49536 6.30391 8.22493-54.29663 9.59108 2.33599z"/>
    <path class="color-white" fill="#fff" stroke-width=".466266" d="M71.66736 66.03021l3.01674 28.82455-14.81326 34.83937 5.27813-1.0118 7.4043 49.54073 4.09847-4.26167 26.05027 32.28424.14454-12.10892-23.32261-27.27188-5.92624-40.34597 16.86483-38.10789-17.18189-21.60209zm36.01436 70.86772l2.45256 9.80557 18.26363 7.0546-3.32448-9.95943z"/>
    <path class="color-gold" fill="#ac8a00" stroke-width=".466266" d="M224.09894 65.06971l-4.02387-3.45969-28.57743 2.5971-17.06532-7.76799h-53.09367l-17.06533 7.76799-28.57742-2.5971-4.02387 3.45969v.96517l23.65365 11.39553-21.72798 49.08845 5.92624 40.34597 23.31328 27.27188v-12.31874L85.81386 161.9737l-4.41087-35.28698 11.95972-27.04341 13.26059-7.9918-12.52389 30.37255 36.96088 14.57546 5.26414 19.6531-4.2337 10.34644-1.69254-5.64182L103.877 150.4243l-3.94927-15.42407-9.12016-3.94927 3.48767 28.74062 11.28363 9.96876 8.55597-5.73507v26.90819l17.58754 18.60867 12.50991-4.32695-14.2957-12.88292v-12.77102l17.95122 16.55244 17.95123-16.55244v12.78967l-14.2957 12.88292 12.50991 4.32695 17.58754-18.60867v-26.90819l8.55597 5.73507 11.28363-9.98741 3.47834-28.77792-9.12015 3.94927-3.94927 15.42407-26.5212 10.53294-1.69254 5.64182-4.23369-10.34644 5.25947-19.63445 36.96555-14.55681-12.50991-30.37721 13.26526 7.99646 11.94106 27.04341-4.43418 35.28698-17.02336 19.84427v12.31874l23.31328-27.27188 5.92624-40.34597-21.70001-49.08845 23.65366-11.39553zm-71.05423 46.61724l-5.18487 11.77321-5.18488-11.77321-30.5031-11.5494 7.65142-5.62317 19.99348 8.07106-1.33819-8.07106-20.43642-7.92651 6.96134-5.18488 13.33054 5.18488-1.33352-7.77265-12.95752-5.03567 5.99617-5.03567 17.84399 6.06145 17.84399-6.06145 5.99618 5.03567-12.95753 5.03567-1.32885 7.77265 13.32587-5.18488 6.96134 5.18488-20.43642 7.92651-1.33352 8.07106 19.99347-8.07106 7.62811 5.62783z"/>
    <path class="color-white" fill="#fff" stroke-width=".466266" d="M224.09894 66.03021l-3.01208 28.82455 14.8086 34.83937-5.27346-1.0118-7.4043 49.54073-4.10314-4.26167-26.0456 32.28424-.14454-12.10892 23.32261-27.27188 5.92623-40.34597-16.86483-38.10789 17.18189-21.60209zm-36.0097 70.86772l-2.45256 9.80557-18.26362 7.0546 3.32447-9.95943zm-21.86786 83.67138l-18.33823-6.35986-18.33357 6.35986-11.97836-12.31408 6.49508 22.39474 11.16706-2.4339 12.65445 13.25127 12.64979-13.25127 11.16706 2.4339 6.49509-22.39474z"/>
</svg>
