<svg xmlns="http://www.w3.org/2000/svg" width="500" height="500" viewBox="0 0 500 500">
    <path d="M332.32 46.43c3.5 4.24 21.74 30.2 34.51 44.86.58-8.73 1.19-17.07 5.69-24.5-1.18 16.36 12.66 36 17.93 42.41 8.53 11.48 22.42 11.33 20.3-3.16 11.65 9.33 12.52 25.33 1.21 31.52 12.66 13.85 11.84 15.38 18.53 17.36 4.11 1.08 6.26 0 8.15-1.39 1.09-.81 1.33-3.34-1.6-5.24-14.56-9.42-7-28.9-6.32-29 0 .48-2.18 15.68 5.92 20.59 19 11.23 20.17 20.3 18.13 36.12-.75 5-7.79 14.38-17 18.36a29.17 29.17 0 002.17-9.18c-2.53 3.79-11.91 8.59-18.89 8.53a42 42 0 007.58-8.53c-1.64-.47-3.22.51-4.28 1.86-1.18 1.53-7.12 7.54-18.13 4.64 4.13-1.95 4.81-3.61 5.66-6 .54-1.55.23-2.12-1.39-2.43-21.24-3.51-25.71-20.09-46-30.67a59.84 59.84 0 00-7-2.63c-.93-.34-1.53 0-1.67 1-.65 4.37-2.74 15.39 8.15 19.72 6.84 3.52 24.46 5.81 31.46 24-12.57-7.89-15-7.18-20.3-7.08 8 5.62 11.48 9.76 14.14 15 2.87 6.36 6.86 7 11.13 7.62 8.15 2.11 11-5.41 11.34-5.8 4.82 14.07-1.65 22.3-11 25.38a67.51 67.51 0 01-20.28 2.93c-20.89 1.18-21.62-21.51-45.29-17.28 3.18-2.85 11.6-10.63 23.25-2.52-1.47-2.87-1.61-6.51-13.79-9.41 13.49-4.23 22.09 2.14 27.55 4.41.12-.1-.68-12.72-35.45-21-8.25-1.62-52.07-9.41-51.27-40.73 7 14.08 25.59 17.36 34 7.12 1-1.24.8-1.9-.7-2.88-33.86-23.76-142.73 7.22-113.26 48.75-3.29-.28-44.53 2.33-47.94-43.91-3.79 33.36 21.8 48.53 30.32 52.63 13.89 10 176.44 21.31 221.37 42.35 13.33 5.15 15.5 16.16 15.51 27.41.08 92.62-76.74 147.24-143.86 187.6a1.87 1.87 0 01-1.85 0c-51.13-35.46-146.23-74.34-141.12-198.16C159 351.17 269.37 397 275.12 398.35c10.11-4 53.39-21.65 32.32-54.86 8.56 3.35 14.65 9.24 19.81 16.38 5-12.89 4.3-24.69-6.12-34.84 19.83 2.81 36.71 11 50.34 26.2-32-71-154.45-37.15-193.54-66-38.37-28.57-39.9-67-64.77-90.1 7 1.1 13.8 2.43 19.91 6.31-3.76-12-11.4-20.49-26.2-31.7 6.19-3.48 13.63-4.73 20.91-4.72-7.11-5.16-17.67-13.53-23-22.82 7.8 3.18 20.45.57 24.37-1.92 20.41-17.48 40.27-33.73 62-45 38.83-20.1 80.08-15.71 83.05-23.18.28-.3.16-6.25-.47-8.64-.58-3.92-10-8.72-18.52-13.1 11.29.62 40.58.66 64.51 23.08 5.58-18.26-16.82-44.59-33.86-47 10.5-.01 35.37 4.42 46.46 19.99zm42.26 79.14c3.54 11.06 6.45 17 11.53 19.23 4.8 2 10.35.61 12.66-3.54.51-.92.28-1.33-.81-1.76a32.16 32.16 0 01-6.45-3.22c-4.39-2.81-8.89-8.35-16.93-10.71z"/>
    <path fill="#d22630" d="M132.29 317.65c-2.56-10-3.72-27.37-2.87-34.33 3.58-65.25-44.2-66.32-60.34-83.75-24-26.88-23-55.47-17.95-75.45-17.7 24.86-9 76.35-4.22 83.34a4.25 4.25 0 003.37 2.59c4.5 2.24 19 11.41 28.52 25.95-13.53-.49-24.12-6.12-32.66-16 .57 3.65 12.35 23.34 17.44 29.59 1.45 2 2.22 3 6.28 4 30.85 10.96 62.43 64.06 62.43 64.06z"/>
</svg>
