<svg xmlns="http://www.w3.org/2000/svg" width="289.03162" height="290" viewBox="0 0 289.03162 290">
    <path class="color-black" stroke-width=".455514" d="M182.92356 54.105729c1.59429 1.93137 9.90286 13.75651 15.71977 20.43434.2642-3.97664.54206-7.77562 2.59187-11.16009-.5375 7.45221 5.76681 16.39849 8.16736 19.31834 3.88553 5.22929 10.21262 5.16096 9.24693-1.43943 5.30673 4.24994 5.70303 11.53816.55117 14.35779 5.7668 6.308871 5.39328 7.005801 8.44067 7.907721 1.87216.49195 2.85151 0 3.71243-.63317.49651-.36896.60584-1.52141-.72882-2.38689-6.63228-4.290941-3.18859-13.164341-2.87884-13.209891 0 .21864-.99302 7.14245 2.69664 9.37902 8.65475 5.115421 9.18771 9.246931 8.25846 16.453151-.34164 2.27757-3.54845 6.55029-7.74373 8.36323a13.287332 13.287332 0 00.98846-4.18161c-1.15245 1.7264-5.42517 3.91286-8.60465 3.88553a19.131572 19.131572 0 003.45279-3.88553c-.74704-.21409-1.46675.23231-1.9496.84726-.5375.69693-3.24325 3.43457-8.25846 2.11358 1.88127-.88825 2.19102-1.64441 2.57821-2.73308.24598-.70605.10477-.96569-.63317-1.1069-9.6751-1.59885-11.71125-9.15127-20.95362-13.9706a27.257934 27.257934 0 00-3.1886-1.198c-.42362-.15488-.69693 0-.7607.45551-.29609 1.99059-1.24811 7.01035 3.71243 8.98273 3.11571 1.60341 11.14186 2.64653 14.33046 10.93232-5.72581-3.594-6.8327-3.27058-9.24693-3.22503 3.64411 2.55998 5.2293 4.44581 6.44097 6.8327 1.30732 2.89707 3.12482 3.1886 5.06986 3.47102 3.71244.96113 5.01065-2.46433 5.16553-2.64198 2.19557 6.40907-.7516 10.15795-5.01065 11.56093a30.751724 30.751724 0 01-9.23782 1.33466c-9.51568.5375-9.8482-9.7981-20.63021-7.87128 1.44853-1.29821 5.28396-4.84211 10.59069-1.14789-.6696-1.30733-.73338-2.9654-6.28153-4.28639 6.14488-1.92682 10.06229.9748 12.5494 2.00882.0547-.0456-.30975-5.79413-16.14796-9.56579-3.75799-.73793-23.71859-4.28638-23.35418-18.553071 3.18859 6.413641 11.65659 7.907721 15.48746 3.243261.45551-.56484.36441-.86547-.31886-1.31188-15.42369-10.823001-65.01546 3.28881-51.59147 22.20629-1.49864-.12754-20.28402 1.06135-21.83732-20.0016-1.7264 15.19593 9.93019 22.10607 13.81117 23.97368 6.32708 4.55514 80.37082 9.70699 100.83705 19.291 6.07199 2.3459 7.06046 7.3611 7.06501 12.48563.0365 42.18967-34.95611 67.06982-65.53018 85.45435a.85181.85181 0 01-.8427 0c-23.29041-16.15251-66.609757-33.86288-64.282077-90.26458 9.597667 38.29503 59.872697 59.17122 62.491907 59.78617 4.60524-1.82206 24.31987-9.86187 14.7222-24.98948 3.89919 1.52597 6.67327 4.20895 9.02372 7.46131 2.27757-5.87157 1.95871-11.24663-2.78774-15.87009 9.03283 1.27999 16.7219 5.01065 22.93055 11.93445-14.57643-32.34146-70.35407-16.92233-88.1601-30.06389-17.478057-13.01403-18.174987-30.51942-29.503617-41.04178 3.1886.50107 6.28609 1.1069 9.06928 2.87429-1.71273-5.46616-5.19286-9.33347-11.93446-14.43978 2.81963-1.58519 6.20865-2.15458 9.52479-2.15002-3.2387-2.35045-8.04892-6.1631-10.47681-10.394831 3.55301 1.44854 9.31525.25965 11.10087-.87458 9.29703-7.96238 18.343527-15.36448 28.241837-20.49811 17.68759-9.15583 36.47753-7.15612 37.8304-10.55881.12755-.13665.0729-2.84696-.21409-3.93564-.26419-1.78561-4.55513-3.97208-8.43611-5.96723 5.14275.28242 18.48474.30064 29.38518 10.51326 2.54177-8.31768-7.66173-20.31135-15.42369-21.40914 4.7829-.005 16.11152 2.01337 21.16317 9.10572zm19.25 36.04934c1.61252 5.03798 2.93806 7.74373 5.25207 8.75953 2.18647.91103 4.71457.27786 5.76681-1.61252.23231-.41907.12754-.60583-.36897-.8017a14.649318 14.649318 0 01-2.93806-1.46676c-1.99971-1.27999-4.04952-3.80353-7.71185-4.87855z"/>
    <path class="color-red" fill="#d22630" stroke-width=".455514" d="M91.807173 177.65013c-1.16612-4.55514-1.69451-12.46741-1.30733-15.63778 1.63074-29.72227-20.1337-30.20967-27.48569-38.14927-10.93232-12.24421-10.47681-25.267341-8.17647-34.368501-8.06259 11.324071-4.09962 34.778461-1.92226 37.962501a1.935933 1.935933 0 001.53508 1.17978c2.04981 1.02035 8.65476 5.19741 12.99125 11.82058-6.1631-.2232-10.98699-2.78774-14.87708-7.28822.25964 1.66263 5.62559 10.63169 7.94416 13.47865.66049.91103 1.01124 1.36654 2.86062 1.82206 14.0526 4.99243 28.43772 29.1802 28.43772 29.1802z"/>
</svg>
