<svg xmlns="http://www.w3.org/2000/svg" width="289.032" height="290" viewBox="0 0 289.032 290">
  <path class="color-black" d="M182.924 54.106c1.594 1.931 9.902 13.756 15.72 20.434.264-3.977.541-7.776 2.591-11.16-.537 7.452 5.767 16.398 8.168 19.318 3.885 5.23 10.212 5.161 9.246-1.44 5.307 4.25 5.704 11.539.552 14.359 5.766 6.309 5.393 7.005 8.44 7.907 1.872.492 2.852 0 3.713-.633.496-.369.606-1.521-.73-2.387-6.631-4.29-3.188-13.164-2.878-13.21 0 .22-.993 7.143 2.697 9.38 8.654 5.115 9.187 9.246 8.258 16.453-.341 2.277-3.548 6.55-7.744 8.363a13.287 13.287 0 0 0 .989-4.182c-1.153 1.727-5.425 3.913-8.605 3.886a19.132 19.132 0 0 0 3.453-3.886c-.747-.214-1.467.233-1.95.847-.537.697-3.243 3.435-8.258 2.114 1.881-.888 2.191-1.644 2.578-2.733.246-.706.105-.966-.633-1.107-9.675-1.599-11.711-9.151-20.954-13.97a27.258 27.258 0 0 0-3.188-1.199c-.424-.154-.697 0-.76.456-.297 1.99-1.249 7.01 3.712 8.983 3.115 1.603 11.141 2.646 14.33 10.932-5.726-3.594-6.833-3.27-9.247-3.225 3.644 2.56 5.23 4.446 6.441 6.833 1.307 2.897 3.125 3.188 5.07 3.47 3.712.962 5.01-2.464 5.165-2.641 2.196 6.409-.751 10.158-5.01 11.56a30.752 30.752 0 0 1-9.238 1.335c-9.516.538-9.848-9.798-20.63-7.87 1.448-1.3 5.284-4.843 10.59-1.149-.67-1.307-.733-2.965-6.281-4.286 6.145-1.927 10.062.975 12.55 2.009.054-.046-.31-5.795-16.149-9.566-3.758-.738-23.718-4.287-23.354-18.553 3.189 6.413 11.657 7.907 15.488 3.243.455-.565.364-.865-.32-1.312-15.423-10.823-65.015 3.289-51.59 22.206-1.5-.127-20.285 1.062-21.838-20.001-1.726 15.196 9.93 22.106 13.811 23.974 6.327 4.555 80.371 9.707 100.837 19.29 6.072 2.346 7.06 7.362 7.065 12.486.037 42.19-34.956 67.07-65.53 85.454a.852.852 0 0 1-.843 0c-23.29-16.152-66.61-33.862-64.282-90.264 9.598 38.295 59.873 59.171 62.492 59.786 4.605-1.822 24.32-9.862 14.722-24.99 3.9 1.527 6.674 4.21 9.024 7.462 2.278-5.872 1.959-11.247-2.788-15.87 9.033 1.28 16.722 5.01 22.93 11.934-14.576-32.341-70.353-16.922-88.16-30.064-17.477-13.014-18.174-30.519-29.503-41.041 3.189.5 6.286 1.107 9.07 2.874-1.713-5.466-5.193-9.334-11.935-14.44 2.82-1.585 6.209-2.154 9.525-2.15-3.239-2.35-8.05-6.163-10.477-10.395 3.553 1.449 9.315.26 11.1-.874 9.298-7.963 18.344-15.365 28.243-20.498 17.687-9.156 36.477-7.157 37.83-10.56.128-.136.073-2.846-.214-3.935-.264-1.785-4.555-3.972-8.436-5.967 5.143.282 18.485.3 29.385 10.513 2.542-8.318-7.662-20.311-15.424-21.409 4.783-.005 16.112 2.013 21.164 9.106zm19.25 36.05c1.612 5.037 2.938 7.743 5.252 8.759 2.186.91 4.714.277 5.766-1.613.233-.419.128-.606-.369-.802a14.65 14.65 0 0 1-2.938-1.466c-2-1.28-4.05-3.804-7.711-4.879z"/>
  <path class="color-red" fill="#d22630" d="M91.807 177.65c-1.166-4.555-1.694-12.467-1.307-15.638 1.63-29.722-20.134-30.21-27.486-38.149-10.932-12.244-10.477-25.267-8.176-34.368-8.063 11.324-4.1 34.778-1.923 37.962a1.936 1.936 0 0 0 1.536 1.18c2.05 1.02 8.654 5.197 12.99 11.82-6.162-.223-10.986-2.787-14.876-7.288.26 1.663 5.625 10.632 7.944 13.479.66.91 1.011 1.366 2.86 1.822 14.053 4.992 28.438 29.18 28.438 29.18z"/>
</svg>
