<svg xmlns="http://www.w3.org/2000/svg" width="236.659911" height="225.596073" data-name="Layer 1" viewBox="0 0 236.65991 225.59608">
    <path class="color-navyBlue" fill="#09226b" stroke-width=".899745" d="M163.53765 120.10397c3.83291 1.7365 10.79694 2.4743 10.79694 2.4743s-5.19153-5.39848-4.9486-8.77252a32.52579 32.52579 0 00-.73779-7.7828l7.53987 2.8342s-8.27766-8.39462-10.50903-15.691558c-2.23137-7.29693-5.92932-18.282816-14.57587-23.852236a167.35261 167.35261 0 00-11.9936-18.53475l-9.21339-6.55015-2.94217 4.31878-8.64655-10.75196-8.67355 10.75196-2.89717-4.32778-9.213397 6.55015a168.8012 168.8012 0 00-11.9936 18.53475c-8.64655 5.56942-12.3535 16.564306-14.57587 23.852246-2.22237 7.287928-10.48203 15.673558-10.48203 15.673558l7.53986-2.8342a32.52579 32.52579 0 00-.73779 7.7828c.24293 3.33805-4.9486 8.77251-4.9486 8.77251s6.91904-.73779 10.79694-2.4743c-1.35861 2.23137-7.53986 7.19797-16.42934 5.3175 2.34833 3.21209 10.86892 4.82263 15.43962 2.96916-3.08612 3.82391 0 15.29566 0 17.05016 0 1.75451.12597 5.3085-4.44474 8.89848 7.19796 3.70695 15.29567-3.09512 15.29567-3.09512s1.85348 6.55015 1.85348 8.28665c0 1.73651-.98972 2.09641 0 7.65684a24.041192 24.041192 0 004.20181 9.63627l6.67611 3.09512s-.74679-6.42418 1.10668-7.90876c1.35862 3.83292 4.822637 8.40362 4.822637 8.40362s6.42418 4.81364 10.87792 7.4139c-2.23137-2.69923-3.76994-10.25709-3.76994-10.25709l9.57329 10.25709 9.57329-10.25709s-1.53856 7.53986-3.76093 10.25709c4.44474-2.60026 10.86892-7.4139 10.86892-7.4139s3.46402-4.5707 4.82263-8.40362c1.85348 1.48458 1.10669 7.90876 1.10669 7.90876l6.67611-3.09512a24.041192 24.041192 0 004.20181-9.63627c.98972-5.56043 0-5.92932 0-7.65684 0-1.72751 1.85347-8.28665 1.85347-8.28665s8.16069 6.80207 15.29567 3.09512c-4.5707-3.59898-4.44474-7.19796-4.44474-8.89848 0-1.70051 3.08613-13.22625 0-17.05016 4.57071 1.85347 13.10029.24293 15.44863-2.96916-8.88949 1.88047-15.07074-3.06813-16.42935-5.2905z"/>
    <path class="color-green color-reserved-white" fill="#2fb228" stroke-width=".899745" d="M162.42196 99.715742c-3.21209-8.27766-11.24681-15.1967-11.24681-15.1967l-7.4139-8.997446-14.4589 6.298216 11.12984-10.509026-9.5193-14.84579-4.69667 7.78279-7.90876-13.49618-7.90876 13.49618-4.69667-7.78279-9.510307 14.8278 11.120847 10.545006-14.458897-6.298216-7.4139 8.997456s-8.03473 6.91904-11.24682 15.19669c3.59898-2.0964 4.57071-2.84319 4.57071-2.84319l-3.21209 19.407498 15.07973-15.29567 5.30849-11.363778 17.428067 7.7828h9.8972l17.42806-7.7828 5.31749 11.363778 15.07073 15.29567-3.21209-19.407498s.97173.72879 4.55271 2.8252z"/>
    <path class="color-green color-reserved-white" fill="#2fb228" stroke-width=".899745" d="M156.61861 123.22608c-1.48458-2.60026-6.91904-6.91904-6.91904-6.91904l-9.8972-5.19153-9.26737 2.8432 6.42418-7.66583-13.95505-5.56043-4.69667 3.59898-4.69667-3.59898-13.964047 5.56043 6.424177 7.66583-9.267367-2.8432-9.8972 5.19153s-5.39847 4.31878-6.92804 6.91904a19.344522 19.344522 0 017.29694-2.4743s-6.55015 13.34322-6.80208 22.49363c10.01417-12.48847 22.124737-25.19286 22.124737-25.19286l15.69155 3.94988 15.69156-3.94988s12.11057 12.72239 22.12473 25.19286c-.25193-9.15041-6.80207-22.49363-6.80207-22.49363a19.344522 19.344522 0 017.31493 2.4743zm-35.09006-9.39334h-6.42418l-5.39848-6.18125h4.31878l4.32778 2.96916 4.32777-2.96916h4.31878z"/>
    <path class="color-white" fill="#fff" stroke-width=".899745" d="M129.92317 121.95744l-11.61571 3.33806-11.60671-3.33806-7.539867 4.9486v11.73267l5.560427-8.34064-.62083-4.01285 4.63369 4.93959 2.78021-2.22236 3.46402 3.46401 3.32906-2.84319 3.33805 2.84319 3.46402-3.46401 2.78022 2.22236 4.63368-4.93959-.62082 4.01285 5.56042 8.34064v-11.73267zm-2.96916 32.50779c-3.59898 2.09641-8.64655 1.79949-8.64655 1.79949s-5.06557.29692-8.64655-1.79949a26.992357 26.992357 0 01-6.43318-5.68639v6.42418l1.73651 3.21209 1.48458-1.48458 11.85864 5.68639 11.86764-5.68639 1.47558 1.48458 1.73651-3.21209v-6.42418a26.992357 26.992357 0 01-6.43318 5.68639z"/>
    <path class="color-green color-reserved-white" fill="#2fb228" stroke-width=".899745" d="M141.29595 151.24414c-2.23137 5.07457-8.77252 9.39334-8.77252 9.39334l-14.21597 4.32778-14.20698-4.32778s-6.550137-4.31877-8.781507-9.39334a79.06961 79.06961 0 000 7.90876s7.197957 7.04501 16.069447 7.53987c-3.08613 1.11568-9.8972 0-9.8972 0s7.04501 7.29693 16.80724 7.53986c9.76224-.24293 16.80724-7.53986 16.80724-7.53986s-6.79307 1.11568-9.8972 0c8.89849-.49486 16.06945-7.53987 16.06945-7.53987a79.06961 79.06961 0 00.018-7.90876z"/>
    <path class="color-white" fill="#fff" stroke-width=".899745" d="M106.97967 98.555072l-9.258377-4.07585-1.10669 4.69667s7.818787.989718 10.365067-.62082zm22.65558 0l9.25838-4.07585 1.10669 4.69667s-7.80979.989718-10.36507-.62082z"/>
</svg>
