<svg xmlns="http://www.w3.org/2000/svg" width="236.66" height="225.596" data-name="Layer 1" viewBox="0 0 236.66 225.596">
  <path class="color-navyBlue" fill="#09226b" d="M163.538 120.104c3.833 1.736 10.797 2.474 10.797 2.474s-5.192-5.398-4.949-8.772a32.526 32.526 0 0 0-.738-7.783l7.54 2.834s-8.278-8.394-10.509-15.691c-2.231-7.297-5.93-18.283-14.576-23.853A167.353 167.353 0 0 0 139.11 50.78l-9.214-6.55-2.942 4.318-8.647-10.752-8.673 10.752-2.897-4.328-9.214 6.55A168.801 168.801 0 0 0 85.53 69.305c-8.647 5.57-12.354 16.565-14.576 23.853-2.222 7.288-10.482 15.673-10.482 15.673l7.54-2.834a32.526 32.526 0 0 0-.738 7.783c.243 3.338-4.949 8.772-4.949 8.772s6.92-.738 10.797-2.474c-1.358 2.231-7.54 7.198-16.43 5.317 2.35 3.213 10.87 4.823 15.44 2.97-3.086 3.824 0 15.295 0 17.05 0 1.754.127 5.308-4.444 8.898 7.198 3.707 15.295-3.095 15.295-3.095s1.854 6.55 1.854 8.287c0 1.736-.99 2.096 0 7.657a24.041 24.041 0 0 0 4.202 9.636l6.676 3.095s-.747-6.424 1.107-7.909c1.358 3.833 4.822 8.404 4.822 8.404s6.424 4.814 10.878 7.414c-2.231-2.7-3.77-10.257-3.77-10.257l9.573 10.257 9.574-10.257s-1.539 7.54-3.761 10.257c4.445-2.6 10.869-7.414 10.869-7.414s3.464-4.57 4.822-8.404c1.854 1.485 1.107 7.909 1.107 7.909l6.676-3.095a24.041 24.041 0 0 0 4.202-9.636c.99-5.56 0-5.93 0-7.657 0-1.728 1.853-8.287 1.853-8.287s8.161 6.802 15.296 3.095c-4.57-3.599-4.445-7.198-4.445-8.898 0-1.7 3.086-13.226 0-17.05 4.571 1.853 13.1.243 15.449-2.97-8.89 1.88-15.07-3.068-16.43-5.29z"/>
  <path class="color-green color-reserved-white" fill="#2fb228" d="M162.422 99.716c-3.212-8.278-11.247-15.197-11.247-15.197l-7.414-8.997-14.459 6.298 11.13-10.51-9.52-14.845-4.696 7.783-7.909-13.496-7.908 13.496-4.697-7.783-9.51 14.828 11.12 10.545-14.458-6.298-7.414 8.997s-8.035 6.92-11.247 15.197c3.599-2.097 4.57-2.843 4.57-2.843l-3.211 19.407 15.08-15.296L95.94 89.64l17.428 7.782h9.897l17.428-7.782 5.318 11.363 15.07 15.296-3.212-19.407s.972.728 4.553 2.825z"/>
  <path class="color-green color-reserved-white" fill="#2fb228" d="M156.619 123.226c-1.485-2.6-6.92-6.919-6.92-6.919l-9.897-5.191-9.267 2.843 6.424-7.666-13.955-5.56-4.697 3.598-4.696-3.599-13.964 5.56 6.424 7.667-9.267-2.843-9.898 5.191s-5.398 4.319-6.928 6.92a19.345 19.345 0 0 1 7.297-2.475s-6.55 13.343-6.802 22.493c10.014-12.488 22.125-25.192 22.125-25.192l15.691 3.95 15.692-3.95s12.11 12.722 22.125 25.192c-.252-9.15-6.802-22.493-6.802-22.493a19.345 19.345 0 0 1 7.315 2.474zm-35.09-9.393h-6.425l-5.398-6.182h4.319l4.327 2.97 4.328-2.97H127z"/>
  <path class="color-white" fill="#fff" d="m129.923 121.957-11.616 3.339-11.606-3.339-7.54 4.949v11.733l5.56-8.34-.62-4.014 4.633 4.94 2.78-2.223 3.464 3.464 3.33-2.843 3.338 2.843 3.464-3.464 2.78 2.223 4.633-4.94-.62 4.013 5.56 8.34v-11.732zm-2.969 32.508c-3.599 2.097-8.647 1.8-8.647 1.8s-5.065.297-8.646-1.8a26.992 26.992 0 0 1-6.433-5.686v6.424l1.736 3.212 1.485-1.484 11.858 5.686 11.868-5.686 1.476 1.484 1.736-3.212v-6.424a26.992 26.992 0 0 1-6.433 5.686z"/>
  <path class="color-green color-reserved-white" fill="#2fb228" d="M141.296 151.244c-2.231 5.075-8.773 9.393-8.773 9.393l-14.216 4.328-14.207-4.328s-6.55-4.318-8.781-9.393a79.07 79.07 0 0 0 0 7.909s7.198 7.045 16.07 7.54c-3.087 1.115-9.898 0-9.898 0s7.045 7.297 16.807 7.54c9.763-.243 16.808-7.54 16.808-7.54s-6.793 1.115-9.897 0c8.898-.495 16.069-7.54 16.069-7.54a79.07 79.07 0 0 0 .018-7.909z"/>
  <path class="color-white" fill="#fff" d="m106.98 98.555-9.26-4.075-1.106 4.697s7.818.99 10.365-.62zm22.655 0 9.259-4.076L140 99.176s-7.81.99-10.365-.62z"/>
</svg>
