<svg xmlns="http://www.w3.org/2000/svg" width="48.36mm" height="58.82mm" data-name="Layer 1" viewBox="0 0 137.07 166.74">
    <path fill="#09226b" d="M118.8 91.47c4.26 1.93 12 2.75 12 2.75s-5.77-6-5.5-9.75a36.15 36.15 0 00-.82-8.65l8.38 3.15s-9.2-9.33-11.68-17.44-6.59-20.32-16.2-26.51a186 186 0 00-13.33-20.6L81.41 7.14l-3.27 4.8L68.53-.01l-9.64 11.95-3.22-4.81-10.24 7.28a187.61 187.61 0 00-13.33 20.6c-9.61 6.19-13.73 18.41-16.2 26.51S4.25 78.94 4.25 78.94l8.38-3.15a36.15 36.15 0 00-.82 8.65c.27 3.71-5.5 9.75-5.5 9.75s7.69-.82 12-2.75c-1.51 2.48-8.38 8-18.26 5.91 2.61 3.57 12.08 5.36 17.16 3.3-3.43 4.25 0 17 0 18.95s.14 5.9-4.94 9.89c8 4.12 17-3.44 17-3.44s2.06 7.28 2.06 9.21-1.1 2.33 0 8.51A26.72 26.72 0 0036 154.48l7.42 3.44s-.83-7.14 1.23-8.79c1.51 4.26 5.36 9.34 5.36 9.34s7.14 5.35 12.09 8.24c-2.48-3-4.19-11.4-4.19-11.4l10.64 11.4 10.64-11.4s-1.71 8.38-4.18 11.4c4.94-2.89 12.08-8.24 12.08-8.24s3.85-5.08 5.36-9.34c2.06 1.65 1.23 8.79 1.23 8.79l7.42-3.44a26.72 26.72 0 004.67-10.71c1.1-6.18 0-6.59 0-8.51s2.06-9.21 2.06-9.21 9.07 7.56 17 3.44c-5.08-4-4.94-8-4.94-9.89s3.43-14.7 0-18.95c5.08 2.06 14.56.27 17.17-3.3-9.88 2.09-16.75-3.41-18.26-5.88z"/>
    <path fill="#2fb228" d="M117.56 68.81c-3.57-9.2-12.5-16.89-12.5-16.89l-8.24-10-16.07 7 12.37-11.68-10.58-16.5-5.22 8.65-8.79-15-8.79 15-5.22-8.65-10.57 16.48 12.36 11.72-16.07-7-8.24 10s-8.93 7.69-12.5 16.89c4-2.33 5.08-3.16 5.08-3.16l-3.57 21.57 16.76-17 5.9-12.63 19.37 8.65h11l19.37-8.65 5.91 12.63 16.75 17-3.57-21.57s1.08.81 5.06 3.14z"/>
    <path fill="#2fb228" d="M111.11 94.94c-1.65-2.89-7.69-7.69-7.69-7.69l-11-5.77-10.3 3.16 7.14-8.52-15.51-6.18-5.22 4-5.22-4-15.52 6.18 7.14 8.52-10.3-3.16-11 5.77s-6 4.8-7.7 7.69a21.5 21.5 0 018.11-2.75s-7.28 14.83-7.56 25c11.13-13.88 24.59-28 24.59-28l17.44 4.39 17.44-4.39s13.46 14.14 24.59 28c-.28-10.17-7.56-25-7.56-25a21.5 21.5 0 018.13 2.75zm-39-10.44h-7.14l-6-6.87h4.8l4.81 3.3 4.81-3.3h4.8z"/>
    <path fill="#fff" d="M81.44 93.53l-12.91 3.71-12.9-3.71-8.38 5.5v13.04l6.18-9.27-.69-4.46 5.15 5.49 3.09-2.47 3.85 3.85 3.7-3.16 3.71 3.16 3.85-3.85 3.09 2.47 5.15-5.49-.69 4.46 6.18 9.27V99.03l-8.38-5.5zm-3.3 36.13c-4 2.33-9.61 2-9.61 2s-5.63.33-9.61-2a30 30 0 01-7.15-6.32v7.14l1.93 3.57 1.65-1.65 13.18 6.32 13.19-6.32 1.64 1.65 1.93-3.57v-7.14a30 30 0 01-7.15 6.32z"/>
    <path fill="#2fb228" d="M94.08 126.08c-2.48 5.64-9.75 10.44-9.75 10.44l-15.8 4.81-15.79-4.81s-7.28-4.8-9.76-10.44a87.88 87.88 0 000 8.79s8 7.83 17.86 8.38c-3.43 1.24-11 0-11 0s7.83 8.11 18.68 8.38c10.85-.27 18.68-8.38 18.68-8.38s-7.55 1.24-11 0c9.89-.55 17.86-8.38 17.86-8.38a87.88 87.88 0 00.02-8.79z"/>
    <path fill="#fff" d="M55.94 67.52l-10.29-4.53-1.23 5.22s8.69 1.1 11.52-.69zm25.18 0l10.29-4.53 1.23 5.22s-8.68 1.1-11.52-.69z"/>
</svg>
