<svg xmlns="http://www.w3.org/2000/svg" width="718.846" height="759.012" data-name="Layer 1" viewBox="0 0 188.853 199.75">
  <path class="color-red" fill="#990034" d="M94.345 169.328s-49.75-12.64-58.044-118.414L94.345 35.15l58.173 15.763c-7.911 105.41-58.173 118.414-58.173 118.414z"/>
  <path class="color-navyBlue" fill="#003768" d="m94.325 41.978 50.243 14.177q-.7 9.28-1.833 17.486c-5.093 4.118-26.599 21.318-48.449 21.318-20.974 0-41.681-15.969-47.78-20.786q-1.181-8.453-1.97-18.018z"/>
  <path class="color-white" fill="#fff" d="M94.325 94.96c21.831 0 43.347-17.201 48.45-21.32a221.714 221.714 0 0 1-1.281 8.315c-3.448 2.877-25.14 20.846-47.169 20.846-20.845 0-41.375-16.176-46.459-20.274q-.709-4.03-1.32-8.354c6.098 4.817 26.806 20.786 47.78 20.786z"/>
  <path class="color-white" fill="#fff" d="M94.325 108.15c20.787 0 41.278-17.397 46.42-22.037q-1.123 5.91-2.443 11.122c-8.679 6.896-26.224 18.718-43.977 18.718-17.25 0-34.312-11.192-43.227-18.107q-1.31-5.241-2.453-11.063c6.137 5.388 25.78 21.367 45.68 21.367z"/>
  <path class="color-white" fill="#fff" d="M24.686 43.16c9.93 115.617 69.64 131.724 69.64 131.724s59.876-16.107 69.807-131.723L94.324 24.867zm11.615 7.754L94.345 35.15l58.173 15.763c-7.881 105.41-58.173 118.414-58.173 118.414s-49.75-12.64-58.044-118.414z"/>
  <path class="color-white" fill="#fff" d="M130.125 121.627v-12.432a116.904 116.904 0 0 0 6.079-4.286 142.244 142.244 0 0 1-6.079 16.718zm-6.472 12.56a85.589 85.589 0 0 1-6.403 9.231v-27.032c2.226-.985 4.364-2.118 6.403-3.25zm-64.842-13.131a146.835 146.835 0 0 1-5.605-15.575 165.496 165.496 0 0 0 5.605 3.94zm12.6 21.939a86.968 86.968 0 0 1-6.403-9.536v-20.324a90.437 90.437 0 0 0 6.403 3.251zm22.914-90.15 3.941 12.117h12.738l-10.305 7.487 3.94 12.127-10.314-7.497-10.304 7.497 3.93-12.127-10.304-7.487h12.738zm-10.137 67.964v28.087a50.025 50.025 0 0 0 5.813 3.448c.197-4.424 1.172-27.505 1.172-27.505l3.152-3.29 3.153 3.29s.985 23.081 1.162 27.505a50.025 50.025 0 0 0 5.813-3.448v-28.087c1.389-.197 6.413-1.842 6.413-1.842v31.436c-8.472 8.019-15.536 10.117-16.54 10.393-.986-.276-8.079-2.374-16.55-10.393v-31.436s5.023 1.606 6.412 1.842z"/>
</svg>
