<svg xmlns="http://www.w3.org/2000/svg" width="718.845846" height="200.8219mm" data-name="Layer 1" viewBox="0 0 188.85283 199.75032">
    <path class="color-red" fill="#990034" stroke-width=".98514" d="M94.34519 169.32752S44.59562 156.68817 36.30075 50.9137l58.04444-15.76224L152.5177 50.9137c-7.91067 105.40997-58.17251 118.41382-58.17251 118.41382z"/>
    <path class="color-navyBlue" fill="#003768" stroke-width=".98514" d="M94.32549 41.97848l50.24213 14.17616q-.69945 9.28002-1.83236 17.48623c-5.09317 4.11789-26.59877 21.318429-48.44918 21.318429-20.97363 0-41.68127-15.969119-47.77929-20.786449q-1.18216-8.4525-1.97028-18.01821z"/>
    <path class="color-white" fill="#fff" stroke-width=".98514" d="M94.32549 94.959299c21.8307 0 43.34615-17.200539 48.44918-21.318429-.38421 2.86676-.81767 5.63501-1.28069 8.31459-3.44799 2.8766-25.14076 20.84556-47.16849 20.84556-20.84556 0-41.37588-16.176-46.4592-20.27418q-.7093-4.02923-1.32009-8.35399c6.09802 4.81733 26.80566 20.786449 47.77929 20.786449z"/>
    <path class="color-white" fill="#fff" stroke-width=".98514" d="M94.32549 108.15033c20.78645 0 41.27736-17.397571 46.41979-22.03758q-1.12306 5.910839-2.44315 11.122229c-8.67908 6.895981-26.22442 18.717661-43.97664 18.717661-17.2498 0-34.31243-11.19119-43.22794-18.106881q-1.31024-5.24094-2.453-11.063119c6.13742 5.388719 25.78111 21.36769 45.68094 21.36769z"/>
    <path class="color-white" fill="#fff" stroke-width=".98514" d="M24.68595 43.16065c9.93021 115.61602 69.63954 131.72306 69.63954 131.72306s59.8768-16.10704 69.80701-131.72306L94.32549 24.8666zm11.6148 7.75305l58.04444-15.76224L152.5177 50.9137c-7.88112 105.40997-58.17251 118.41382-58.17251 118.41382S44.59562 156.68817 36.30075 50.9137z"/>
    <path class="color-white" fill="#fff" stroke-width=".98514" d="M130.12547 121.62704v-12.43246c2.25597-1.47771 4.30506-2.95542 6.07831-4.28536a142.24436 142.24436 0 01-6.07831 16.71782zm-6.47237 12.56053a85.588958 85.588958 0 01-6.40341 9.23077V116.3861c2.22642-.98514 4.36417-2.11805 6.40341-3.25096zm-64.84191-13.13191a146.83511 146.83511 0 01-5.60544-15.57506c1.67473 1.23142 3.55635 2.56136 5.60544 3.94056zm12.59994 21.93907a86.968154 86.968154 0 01-6.40341-9.53616v-20.32343c2.03924 1.13291 4.177 2.23626 6.40341 3.25096zm22.91436-90.15016l3.94056 12.11722h12.73786l-10.30457 7.48707 3.94056 12.12707-10.31441-7.49692-10.304569 7.49692 3.93071-12.12707-10.304561-7.48707h12.73786zm-10.137089 67.96481v28.08633a50.025406 50.025406 0 005.81232 3.44799c.197029-4.42328 1.172319-27.5051 1.172319-27.5051l3.15245-3.29037 3.15245 3.29037s.98514 23.08182 1.16246 27.5051a50.025406 50.025406 0 005.81233-3.44799v-28.08633c1.38904-.19703 6.41326-1.84222 6.41326-1.84222v31.43582c-8.47221 8.01904-15.53566 10.11738-16.5405 10.39322-.98514-.27584-8.078149-2.37418-16.55035-10.39322v-31.43582s5.024211 1.60578 6.413261 1.84222z"/>
</svg>
