<svg xmlns="http://www.w3.org/2000/svg" width="49.93mm" height="53.72mm" data-name="Layer 1" viewBox="0 0 141.55 152.29">
    <path fill="#990034" d="M70.71 146.64s-50.5-12.83-58.92-120.2l58.92-16 59.05 16c-8.03 107-59.05 120.2-59.05 120.2z"/>
    <path fill="#003768" d="M70.69 17.37l51 14.39q-.71 9.42-1.86 17.75c-5.17 4.18-27 21.64-49.18 21.64-21.29 0-42.31-16.21-48.5-21.1q-1.2-8.58-2-18.29z"/>
    <path fill="#fff" d="M70.69 71.15c22.16 0 44-17.46 49.18-21.64-.39 2.91-.83 5.72-1.3 8.44-3.5 2.92-25.52 21.16-47.88 21.16-21.16 0-42-16.42-47.16-20.58q-.72-4.09-1.34-8.48c6.19 4.89 27.21 21.1 48.5 21.1z"/>
    <path fill="#fff" d="M70.69 84.54c21.1 0 41.9-17.66 47.12-22.37q-1.14 6-2.48 11.29c-8.81 7-26.62 19-44.64 19-17.51 0-34.83-11.36-43.88-18.38q-1.33-5.32-2.49-11.23c6.23 5.47 26.17 21.69 46.37 21.69z"/>
    <path fill="#fff" d="M0 18.57c10.08 117.36 70.69 133.71 70.69 133.71s60.78-16.35 70.86-133.71L70.69 0zm11.79 7.87l58.92-16 59.05 16c-8 107-59.05 120.2-59.05 120.2s-50.5-12.83-58.92-120.2z"/>
    <path fill="#fff" d="M107.03 98.22V85.6c2.29-1.5 4.37-3 6.17-4.35a144.39 144.39 0 01-6.17 16.97zm-6.57 12.75a86.88 86.88 0 01-6.5 9.37V92.9c2.26-1 4.43-2.15 6.5-3.3zM34.64 97.64a149.05 149.05 0 01-5.69-15.81c1.7 1.25 3.61 2.6 5.69 4zm12.79 22.27a88.28 88.28 0 01-6.5-9.68V89.6c2.07 1.15 4.24 2.27 6.5 3.3zM70.69 28.4l4 12.3h12.93l-10.46 7.6 4 12.31L70.69 53l-10.46 7.61 3.99-12.31-10.46-7.6h12.93l4-12.3zM60.4 97.39v28.51a50.78 50.78 0 005.9 3.5c.2-4.49 1.19-27.92 1.19-27.92l3.2-3.34 3.2 3.34s1 23.43 1.18 27.92a50.78 50.78 0 005.9-3.5V97.39c1.41-.2 6.51-1.87 6.51-1.87v31.91c-8.6 8.14-15.77 10.27-16.79 10.55-1-.28-8.2-2.41-16.8-10.55V95.52s5.1 1.63 6.51 1.87z"/>
</svg>
