<svg xmlns="http://www.w3.org/2000/svg" viewBox="0 0 612 612">
    <path class="color-yellow" fill="#fdcf16" d="M299.6 598.2c-1.8-.3-3.5-.6-5.3-.8-35.1-4.5-64.7-31.2-72.8-65.8-1.4-5.8-2.2-11.7-2.3-17.6 0-.8-.1-1.6-.1-2.4h-19.9c-15.9-146.3-31.7-292.5-47.6-438.8h29.2V47.5h249.8v24.7h30.6c-15.9 146.4-31.8 292.7-47.6 439.1H393c-.2 2.8-.3 5.4-.5 8-1.5 16.4-7.1 31.2-17 44.2-13.5 17.8-31.4 28.9-53.4 33.2-3 .6-6 .8-9 1.2-.2 0-.5.2-.7.3h-12.8zm123.2-543H188.5V80h-28.3c15.3 141.2 30.6 282.3 46 423.5h20.3c-4.8 43.5 28.2 84.2 73.7 87.4 21.2 1.5 40.2-4.4 56.5-18.1 21.5-18 30.6-41.4 28.8-69.4h21.6c15.3-141.2 30.6-282.3 46-423.5h-30.2c-.1-8.3-.1-16.5-.1-24.7z"/>
    <path class="color-gray color-reserved-white" fill="#28345d" d="M422.8 55.2v24.7H453c-15.3 141.2-30.6 282.3-46 423.5h-21.6c1.8 28-7.3 51.4-28.8 69.4-16.3 13.7-35.3 19.6-56.5 18.1-45.5-3.2-78.4-43.9-73.7-87.4h-20.3c-15.3-141.2-30.6-282.3-46-423.5h28.3V55.2h234.4zm-19.6 444.3c15-138.5 30-276.9 45.1-415.4h-29.4V59.4H192.5v24.8H164c15 138.5 30.1 276.9 45.1 415.4h22.5c-3 21.7 1.8 41.3 15.4 58.4s31.5 26.6 53.3 28.2c19.7 1.4 37.6-4.1 52.8-16.8 21.6-18.2 30-41.8 26.6-69.8 7.8-.1 15.6-.1 23.5-.1z"/>
    <path class="color-yellow" fill="#fdcf16" d="M403.2 499.5h-23.6c3.4 28-5 51.6-26.6 69.8-15.2 12.8-33 18.3-52.8 16.8-21.8-1.6-39.7-11.1-53.3-28.2-13.6-17.1-18.3-36.7-15.4-58.4H209C194 361 179 222.6 163.9 84.1h28.5V59.3h226.4V84h29.4c-14.9 138.6-29.9 276.9-45 415.5zm-27.1-184.2c-.1-.1-.2-.2-.3-.2 1.7-5.4 3.4-10.8 5.1-16.3-2.7-.3-3.3 1.9-4.3 3.6-1.2-1.8-2-2.2-3.9-1.2-1.4.7-2.7 1.6-3.9 2.6-2.7 2.4-4.8 5.3-6.6 8.4-1.4 2.4-3.2 4.6-4.9 6.9-.3.3-.9.3-1.4.5 0-.5-.2-1-.1-1.4.4-1.5.9-2.9 1.4-4.4s1.1-3.1 1.4-4.7c.3-1.5-.7-2.5-2.2-2.2-1 .2-2.1.6-2.7 1.3-2 2.1-3.9 4.4-5.6 6.7-1.4 1.9-2.5 4-3.8 6 0-1 .3-1.8.6-2.7.4-1.6 1-3.2 1.2-4.8.3-2-1.1-2.9-2.9-2-1 .6-2 1.4-2.7 2.3-1.6 2.4-3 4.9-4.6 7.3-1.5 2.3-3 4.6-4.6 6.8-.3.4-1.1.5-1.6.8-.1-.6-.4-1.3-.2-1.8 1.1-3.4 2.3-6.7 3.5-10.1.2-.5.3-1 .6-1.7-1.9.2-3.3.7-4.2 2-1.9 2.8-3.8 5.6-5.5 8.5-.9 1.5-1.8 2.8-3.4 3.6-.9.4-1.7.5-2.6-.3.2-.3.4-.5.5-.8.9-2 1.8-3.9 2.5-6 .3-.8.3-2-.8-2.4-1.1-.3-1.6.7-2.1 1.5-1 2-1.5 4.1-1.4 6.3 0 .6-.1 1.4-.5 1.8-2.2 2.3-4.6 4.6-6.8 6.9l-.2-.2c.3-.6.5-1.2.8-1.8 1.1-2.6 2.4-5.3 2.4-8.2 0-1.1-.2-2.4-1.3-2.7-.9-.2-2.3.1-2.9.7-1.4 1.3-2.6 2.9-3.7 4.5-1.8 2.7-3.3 5.5-5 8.2-.8 1.2-1.8 2.3-2.7 3.3-.2.2-.7.4-1 .3-.2-.1-.5-.6-.4-.9.3-1.3.6-2.6 1-3.9.6-1.8 1.5-3.6 2.1-5.5.5-1.5-.1-2.2-1.7-2-1 .1-2 .4-3 .7-1 .2-1.2-.2-.9-1 .3-.7.6-1.4 1-2.1-1.5-.4-2.8.1-3.6 1.4-.7 1.2-.7 2.3.7 3.4-2.5 4.2-4.9 8.4-7.6 12.4-1.2 1.7-3.1 3-4.8 4.4-.8.6-1.9.8-2.7-.3-.7-1.1-.5-2.1.6-3 2.2-2 4.4-3.9 6.5-6.1.8-.8 1.2-2.2 1.4-3.4.2-1.5-1.1-2.5-2.5-2-1 .3-2.1.8-2.9 1.5-3.3 2.5-5.9 5.7-8 9.4-.2.3-.3.7-.4 1.1.1 0 .2.1.2.1.3-.3.6-.5 1.1-.9-.1.5-.1.9-.2 1.2-.6 4 1.4 5.7 5.2 4.4 3.5-1.2 6-3.8 7.9-6.8 2.1-3.3 4-6.8 5.8-10.3.7-1.3 1.4-2.3 2.9-2.5.9-.2 1.8-.6 2.8-.8.1.1.2.3.2.4l-.9 1.8c-1.1 2-2.3 3.9-3.3 6-.6 1.2-.9 2.6-1 4-.1 1.6 1 2.5 2.6 2 1.1-.4 2.4-1 3.2-1.9 1.8-2.2 3.4-4.5 5-6.8 1.7-2.6 3.3-5.3 5-7.9.3-.4 1-.5 1.5-.8.1.5.3 1.1.2 1.5-1.1 3.4-2.3 6.7-3.4 10.1-.2.5-.2 1.4.1 1.7.3.3 1.3.2 1.7-.1 1.6-1 3.1-2.2 4.6-3.4 2.1-1.8 4.2-3.7 6.4-5.6 1 .7 2.6.4 3.8-.8 1.4-1.3 2.4-3 3.5-4.6.9-1.3 1.6-2.7 2.4-4.1.1.1.2.1.4.2-.2.4-.3.8-.5 1.2-.7 2.1-1.5 4.2-1.9 6.4-.2.9.3 2.2.9 2.8.5.4 2 .3 2.7-.2 1.6-1.3 3.2-2.7 4.4-4.3 1.9-2.6 3.4-5.6 5-8.3.8-1.3 1.7-2.6 2.6-3.9.3-.4.8-.6 1.2-.9.1.1.3.2.4.3-1.2 4.4-3.2 8.6-3.6 13.3 1.5.1 2.5-.4 3.2-1.5 1-1.6 2-3.4 3.1-5l7.5-10.5c.4-.5 1.1-.8 1.6-1.2l.3.3c0 .3 0 .7-.1 1-.3.9-.7 1.7-1 2.6-.7 2.1-1.5 4.3-2.1 6.5-.3 1-.3 2.4.8 2.8.8.3 2.1.2 3-.2 1.2-.6 2.3-1.6 3.1-2.7 1.6-2.1 3-4.4 4.4-6.5-.1 1.1-.3 2.1-.2 3.2.1 2.2 1.7 3.3 3.7 2.5 1-.4 2-.9 2.7-1.6 1.4-1.4 2.5-2.9 3.8-4.4l.2.2c-1 4.2-2.1 8.4-5.4 11.5-1.4 1.3-2.4 2.8-3.6 4.2-4.5 5.4-9 10.7-12.3 16.9-1.3 2.3-2.3 4.9-2.8 7.5-.7 3.1 1.4 4.8 4.4 3.6 1.6-.7 3.3-1.7 4.4-3 2.7-3.2 5.2-6.6 7.4-10.2 4.5-7.1 6.8-15.2 9.3-23.2.3-1.1 1-2.1 1.6-3 2.6-3.8 5.3-7.6 8-11.4.4-.5.5-1.2.8-1.8h-.2c-3.1 3.9-6 7.9-8.9 11.9zm-45.5 211.2s0 .1.1.1c-.1 0-.1 0-.1-.1-.8-.5-1.5-1.2-2.4-1.7-3-1.6-6-3.2-9.4-3.6-1.4-.2-2.8-.7-3.5-2.3 1.4.3 2.6.6 3.9.9-2-1.2-4.1-2-6.1-3.1-1.2-.7-2.2-1.7-3.3-2.6.1-.1.2-.1.3-.2.3-.3.7-.6 1.1-.9.4.5.8 1 1.5 1.8.1-1 .2-1.8.3-2.5 1.4 1.3 1.1 3.8 3 4.8.2-.5.3-.8.4-1.1.3.2.6.3 1 .6-.2-.9-.3-1.5-.4-2.2.1-.1.2-.1.3-.2.8 1 1.6 2 2.4 2.9.1 0 .2-.1.3-.1-.1-.6-.3-1.3-.4-1.9l.3-.3c1.4 1.1 2.7 2.3 4.4 3.6-.2-.6-.3-.9-.3-1.2l.2-.2c.5.4 1.1.7 1.6 1.1.7.4 1.5.7 2.5-.1-.3-.1-.5-.2-.6-.3-3.5-1.7-6.5-4-9.2-6.8-.8-.8-1.8-1.5-2.9-1.8-1.2-.4-1.7-1-2-2.2 1.3.1 2 2.1 3.3.9.8.7 1.4 1.4 2.3 2.3.1-.8.2-1.1.2-1.6 1 .7 1.8 1.3 2.6 1.9.1-.1.2-.2.2-.3-.1-.2-.2-.5-.3-.7l.3-.3c.7.2 1.4.4 2.4.7-.5-1.9-1.5-2.7-3-3.3-2.5-1-5.3-1.5-7.4-3.4-1.1-1-2.2-1.9-3.3-2.7-1.3-.9-1.7-2.1-1.6-4 1 .9 1.7 1.6 2.4 2.3.3.3.6.6.9.7 1 0 2-.1 3.2-.1-.5-.7-.8-1.2-1.2-1.7.1-.1.1-.2.2-.2 1.2.3 2.4.5 3.5.8-.7-.8-1.4-1.4-2.2-1.7-2.9-1.1-4.9-3.2-7.1-5.3-.5-.4-1-.9-1.4-1.4-.5-.6-1-1.2-1.3-1.9-.7-1.7-1.2-3.5-1.9-5.5-.4 1-.7 1.7-.9 2.4-.2.8-.1 1.7-.3 2.5-1.3 3.7-3.8 6.1-7.5 7.2-.7.2-1.4.4-1.9.8-1.4 1-2.7 2-4.5 2.2 0 0 0 .2-.1.4 1.1-.1 2.2-.2 3.5-.4-.5.6-.9 1.1-1.3 1.5.1.1.1.2.2.2 1.1-.6 2.1-1.2 3.2-1.8l.2.2c-.2.6-.3 1.1-.5 1.7 1.9 0 2.1-2 3.4-2.6.9 1.2.9 1.2 4.2 1.7-.4.4-.7.7-1.1.9-3.5 2.1-7 4.1-11.1 4.8-1.8.3-2.9 1.8-4.1 2.9.1.1.1.3.2.4.4-.1.8-.1 1.2-.2l.2.2c-.1.2-.1.5-.3 1 1.5-.8 2.8-1.5 4-2.1.1.1.1.2.2.3-.3.6-.6 1.2-.8 1.8 0 0-.1 0-.1.1v.1c0-.1 0-.1.1-.2.8-.4 1.5-.8 2.3-1.2.5-.3 1-.7 1.5-1.1l.3.3c-.1.5-.2 1-.4 1.5h-.2v.2c0-.1.1-.1.1-.2 1.1-.6 2.2-1.4 3.8-1-.4.4-.9.7-1 1.2-.6 1.5-1.9 1.9-3.2 2.2-1.9.5-3.7 1.1-5.6 1.7-.5.2-1.1.2-1.7.2-1.1-.1-2.2-.1-3.4.7.5.3.9.5 1.2.8-1.6.8-3.1 1.7-3.8 3.3.1.1.2.3.2.4 1.8-.9 3.6-1.7 5.4-2.6-.1.7-.1 1.3-.2 2.4.5-.6.9-.9 1.1-1.3.3-.4.6-.9 1-1.5.1.9.2 1.4.3 2.3.5-.9.9-1.5 1.2-2 .4.3.7.7 1.1 1 .2-.4.4-.8.8-1.2s.9-.8 1.4-1.2c.5.7.9 1.3 1.4 1.8 1.5-2.1 2-2.4 3-1.6-.7.6-1.8 1-2.1 1.7-.5 1.3-1.6 1.5-2.7 1.8l-2.4.6c-4.2 1.2-8.3 2.6-11.4 6.1l-1.2 1.5c.1.2.2.3.4.5 1.1-.7 2.1-1.5 3.2-2.2l.2.2c-.3.7-.5 1.3-.8 2 .1.1.2.1.2.2 1.1-1.2 2.1-2.3 3.2-3.5.2 1.8.6 3.5-1.4 4.2-.1 0-.2.2-.3.3-.5.8-1.2 1.3-2.2 1.5-.7.1-1.2 1-1.8 1.5.8.9-.2 1.1-.6 1.6-.9 1.1-1.9 2.2-2.7 3.3-.3.4-.4.8-.6 1.3.1.1.2.2.4.3l2.1-1.5c.5 1.2 1.2 1.4 2.3.5.4-.4.7-.8 1.1-1.3.6-.7 1.2-1.4 2-2.3-.1 1.1-.3 1.7-.3 2.4 0 .2.2.6.3.6.3 0 .7-.1.8-.3.3-.5.3-1.1.5-1.6s.4-1.1.8-1.4c1-.6 2.1-1 3.3-1.4-.1.8-.2 1.5-.3 2.1h.2c1.1-1.3 2.2-2.7 3.6-4.3.2 1.2.4 1.9.5 2.7.1.1.3.1.4.2 1.1-1.2 2.3-2.4 3.4-3.6.8-.8 2.6-.5 3.1.6-.7.4-1.6.7-2 1.4-.8 1.3-1.9 2.3-3.1 3.1-1.6 1.1-3.7 1.3-4.7 3.2-.2.3-.9.4-1.4.5-1.6.3-3 1-4.3 2.2s-2.8 2.2-4.1 3.3c-.7.7-1.2 1.5-1.8 2.3 2 .2 2.8-1.1 3.7-2.1.6-.6 1.1-1 1.8-.3-1.1 1.2-2.1 2.3-3.2 3.4l.5.5c1.9-1.5 3.9-3 5.8-4.4.1.1.1.2.2.3-.5 1.1-.9 2.2-1.4 3.3.2.1.4.3.6.4.4-.6.9-1.1 1.2-1.6.1.5.3 1.1.4 1.6h.5c.4-1 .7-2 1.1-3 .1 0 .3-.1.4-.1.4.8.8 1.7 1.3 2.9.8-1.6 1.5-2.9 2.3-4.3 1.1 1.7 1.2 3.2.5 4.8-.4 1-.5 2-.8 3.1.1.1.3.1.4.2.3-.5.6-1 .8-1.5.2.6.3 1.2.4 1.8h.4c.6-1.7 1.2-3.5 1.8-5.2h.3v2c.1 0 .2 0 .3.1l1.5-3c.1.1.2.1.4.2.1.7.1 1.3.2 2h.3c.3-.9.6-1.8.9-2.8.5.7.9 1.2 1.4 2 .7-2 1.4-3.9 2.2-6 1.6 4.8 1.3 19.8-.4 26.4h-5.3v2.9h17.1v-3h-5.3v-.9c-.3-4.1-.6-8.1-.8-12.2-.3-4-1.5-7.9-.5-11.9.1-.4 0-.8 0-1.3.1 0 .2 0 .4-.1.8 1.7 1.5 3.4 2.3 5.2.1 0 .2-.1.3-.1-.1-.9-.2-1.7-.3-2.5 3.3.9 2.6 4.2 3.7 6.5.2 0 .3-.1.5-.1l-.3-3.6h.2l2.4 5.1c.2 0 .3-.1.5-.1.2-.5.4-1 .6-1.4.4.5.8 1 1.2 1.6.1-.1.3-.1.4-.2-.1-.5-.2-1.1-.4-1.6-.8-1.9-1.7-3.8-2.6-5.7-.1-.3-.5-.9-.4-1 1.2-1.5.4-2.8-.4-4.3 1.9.6 3.8.8 4.1 3.2 0 .2.1.4.3.5.2.2.5.3.8.4.1-.3.4-.6.3-.9-.1-.6-.2-1.2-.4-1.8.3.1.7.2.9.5.8.7 1.5 1.6 2.2 2.3 1.1 1 1.9.8 2.5-.4.8.4 1.5.8 2.3 1.1.1-.1.2-.3.3-.4-.7-.9-1.4-1.8-2.1-2.6 1.4-.9.1-1.9.5-3.1.9.8 1.6 1.7 2.4 2.6 1.3 1.3 2.1 1.3 3 .1.8.4 1.5.7 2.3 1.1.1-.2.2-.3.3-.5-1.2-1.3-2.3-2.6-3.5-3.9.1-.1.2-.1.3-.2-.2-.4-.3-1-.6-1.2-1.7-1.1-3.4-2.2-5.3-3-1.6-.7-3.3-.9-5-1.4-.3-.1-.7-.3-.9-.6-.5-.6-1-1.2-1.5-1.7-.1 0-.2.1-.2.1v-1.7c1 .5 1.8 1 2.9 1.6-.2-.8-.2-1.2-.3-1.7 1 .4 1.8.8 2.7 1.2.1-.4.1-.7.1-.6 1.9.2 4 .9 6.2 1.7zM216.2 380.6c.1-.3.3-.5.4-.7.5-4.5 2.6-8.4 4.6-12.3.4-.7.7-1 1.7-.9 2.2.3 4.6.5 6.8.3 13.6-1.7 30.9-10.8 35.9-31.4 1.4-5.9 2-12 3.1-17.9.1-.7.5-1.5 1.1-1.9 3.5-3.1 6.9-6.4 9.2-10.5.9-1.6 1.6-3.3 1.9-5 .5-2.9-1.4-4.4-4.2-3.4-1.1.4-2.2 1-3 1.7-1.3 1.2-2.6 2.4-3.6 3.9-3.2 4.5-5.1 9.5-6.6 14.8-.5 1.8-1.3 3.2-2.8 4.4-4.1 3.5-8.1 7.2-12.2 10.8-3.9-2-6.3-2.5-11.5-1.6-10.1 1.7-17.8 7-22.9 15.9-3.3 5.8-2.6 12.1 1.7 16.5 1.2 1.2 2.6 2.1 4 3.2-4 8.7-4.9 12.3-3.6 14.1zm52.6 77v-37.9c-1.8 0-3.5.1-5.2 0-1.1-.1-1.5.3-1.9 1.3-3 8.7-6 17.4-9 26.2-.5 1.5-1 3-1.7 4.8-.2-.6-.2-.8-.3-1-3.3-10-6.7-20.1-10-30.1-.2-.5-.6-1.1-.9-1.2-2.3-.1-4.6-.1-7-.1v37.8h4.8v-31c.4.2.5.5.6.8 3.1 9 6.1 18.1 9.2 27.1 1.1 3.2 1.1 3.1 4.4 3.2.9 0 1.4-.2 1.7-1.2 2.6-7.6 5.3-15.2 8-22.8.8-2.3 1.6-4.7 2.5-7 .1 0 .2 0 .3.1v30.9c1.5.1 3 .1 4.5.1zm-46.9-347.9c1-1.6 2.3-3.1 2.9-4.8 1.9-5.4-2.1-11.2-8.2-11.7-5.2-.4-10.4-.2-15.6-.3-1.1 0-1.3.6-1.3 1.6v32.4c0 1.1.4 1.5 1.5 1.5h6.8c3.4-.1 6.8 0 10.1-.4 4.7-.6 7.8-3.8 8.6-8.2.8-4.5-.9-7.9-4.8-10.1zm177.2 2.9c.5-.2 1-.3 1.5-.5 7-2.5 8.9-11.4 3.5-16.5-2.2-2.1-5-2.4-7.8-2.5-5.3-.1-10.5-.1-15.7-.1-2.1 0-2.1 0-2.1 2.1V127c0 1.1.4 1.5 1.5 1.5.9 0 1.8-.1 2.6 0 1.3.1 1.8-.4 1.8-1.7-.1-4 0-8 0-12 0-.4 0-.9.1-1.4h5.4c1.7 0 3.2.6 4.3 1.9.7.8 1.4 1.6 2 2.5 2.1 3.3 4.2 6.5 6.4 9.8.3.4.8.9 1.2.9 1.6.1 3.3.1 4.9 0 .9 0 1.4-.6.8-1.5-3.4-4.9-5.8-10.3-10.4-14.4zm-66-8.9c-1-4.7-3.3-8.3-7.8-10-2.7-1-5.6-1.4-8.5-1.2-8.1.6-13.4 4.8-15.4 12.6-.6 2.6-.9 5.4-.6 8.1.6 6.8 3.7 12 10.4 14.5 8 2.9 15.2 1.2 21.8-3.9.3-.3.5-.9.5-1.3v-11.1c0-1.2-.5-1.7-1.7-1.6h-10.6c-4 0-3.6-.4-3.6 3.6 0 1.7.2 1.9 1.8 1.9h8.2v4.9c0 .4-.4.8-.8 1-2.1.9-4.2 2.1-6.5 2.4-5.6.9-12.1-1.3-13.5-8.9-.3-1.5-.4-3.1-.4-4.7.2-8.3 5.4-13 13.5-12.1 3.3.4 5.8 2 7 5.3.2.7.5 1.4.8 2.1 1.9-.6 3.6-1.1 5.4-1.6zm-61.4-.4c5.1 7.6 10.2 14.8 14.8 22.2 1.5 2.4 3.1 3.4 5.9 3 1.8-.2 1.9-.1 1.9-1.9V96.8c0-4.3.5-3.7-3.8-3.8-1.7 0-1.8.1-1.8 1.8v23.4c-.5-.8-.8-1.2-1.1-1.6-4.6-6.9-9.4-13.6-13.8-20.6-1.6-2.5-3.3-3.5-6.1-3.1-1.3.2-1.7.5-1.7 1.8.1 1.9 0 3.8 0 5.7v26.1c0 2 0 2 2.1 2h2c1.3.1 1.7-.5 1.7-1.7-.1-1.2 0-2.4 0-3.6-.1-6.5-.1-13-.1-19.9zm55.5 316.5v37.8h4.8v-29.4c.4.5.6.8.7 1 6.2 9.2 12.3 18.3 18.5 27.5.3.4.8.9 1.2 1 1.5.1 3 0 4.6 0v-37.8h-4.7v29.6c-.5-.7-.8-1.1-1.1-1.5l-18.3-27.3c-.3-.4-.8-.9-1.2-.9-1.5-.1-3 0-4.5 0zm28.6-290.7c7.9 0 14.1-4.6 16.2-12.1 1-3.6 1.1-7.2.3-10.9-1.4-6.6-5.2-11.3-11.9-13-6.9-1.7-13.1-.3-17.8 5.5-3.3 4.1-4 9-3.8 14.1.5 9.5 7.7 16.4 17 16.4zm14.7 311.2h20.8v-4.5h-20.7v-11.7h22.2v-4.3h-27.2v37.7h28.1v-4.4h-23.1c-.1-4.2-.1-8.4-.1-12.8zM245.4 93c-.4 0-.8.1-1.3 0-1.2-.2-1.9.3-2.3 1.5-1.3 3.8-2.8 7.5-4.3 11.3-2.6 6.9-5.3 13.9-7.9 20.8-.6 1.5-.3 1.9 1.4 1.9 1 0 2-.1 3.1 0 .9.1 1.2-.3 1.5-1.1 1-2.8 2-5.5 3-8.2.2-.7.5-1.1 1.4-1h11.4c.8 0 1.1.3 1.4 1 .6 1.8 1.3 3.6 2 5.3.5 1.3.7 3.1 1.6 3.7 1 .7 2.8.2 4.2.3 1.8 0 2.1-.4 1.4-2.1-4.2-10.3-8.3-20.5-12.5-30.8-1.2-2.6-1.2-2.6-4.1-2.6zm47.4 326.8c-1.5 0-2.9.1-4.4 0-.9-.1-1.4.3-1.7 1.1-4.5 11.9-9.1 23.8-13.6 35.7-.1.3-.2.7-.3 1h5.3c1.3-3.5 2.5-6.9 3.7-10.4.3-.8.7-1 1.5-1H297c.9 0 1.3.3 1.6 1.1 1.1 3.1 2.3 6.3 3.5 9.4.2.4.7 1 1 1 1.6.1 3.3 0 5.1 0-5.1-12.8-10.2-25.3-15.4-37.9zm-67.1-200.9c.4-.4.7-.7 1.1-1 2.1-2 3-4.4 2.2-7.2-.8-2.9-2.5-4.9-5.5-5.8-2-.6-4 0-5.8.8-3.9 1.7-7.8 3.5-11.7 5.1-1.1.5-.9 1-.5 1.9 3.2 7.1 6.4 14.3 9.6 21.5 1.4 3.1.8 2.7 3.8 1.4 1.1-.5 1.3-1 .8-2.1-1.5-3.1-2.8-6.2-4.2-9.4 5.8-3 6-3.3 11-.2 2.3 1.4 4.5 3 6.8 4.4.4.2 1 .3 1.4.2 1-.4 2-.9 3.1-1.3.8-.4 1-.9.2-1.4-4.1-2.4-7.6-5.5-12.3-6.9zm147-50.1c.1.7.2 2.1.5 3.5 1.3 5.7 5.8 9.8 11.4 10.3 6.6.5 11.6-2.3 13.9-8 1.2-3 1.4-6.1 1-9.3-1.2-9.6-11.9-14.8-20.2-9.8-4.8 2.9-6.4 7.4-6.6 13.3zm-32-1.5c0 6.5 1.2 10.6 4.6 13.7 4 3.7 8.7 4.3 13.6 2.6 5-1.7 7.8-5.3 8.5-10.6.7-5.6-.4-10.7-4.9-14.5-4.4-3.7-9.4-3.9-14.5-1.6-5.2 2.3-7.2 6.8-7.3 10.4zm-31.5 6.4c-1.1-2.9-2.8-4.8-5.6-5.6-4.2-1.2-10.3.8-13 4.2-3.4 4.2-1.3 10.4 4 11.5 1.2.3 2.5.3 3.7.2 2.6-.1 5.3-.3 7.9-.4 1.4 0 2.5.5 3.1 1.9.6 1.3.4 2.5-.4 3.5-3.2 4.4-10.3 4.2-13-.5-.1-.1-.1-.2-.2-.4-1.3.6-2.6 1.1-3.9 1.7 1.1 3.1 3 5.2 6 6.2 4.5 1.5 11.5-.7 14.4-4.5 3.6-4.7 1.3-11.2-4.5-12.4-1.2-.2-2.4-.2-3.6-.2-2.7.1-5.5.5-8.2.4-2.5-.1-3.5-2.6-2.1-4.6 2.8-3.9 8.8-3.7 11.1.3 0 .1.1.1.3.2 1.4-.4 2.7-.9 4-1.5zm-62.5 47.7c7.1.1 13.2-5.4 13.5-12.3.2-4.1-1.3-7.7-3.7-11-5-6.6-14.1-7.3-20-1.4-3.9 3.8-4.6 8.5-3 13.6 2.1 6.8 7.2 11 13.2 11.1zm25.8-42c-5.7 0-11.1 3.7-12.8 9-1.8 5.5.8 12.9 5.9 16.9 7.6 5.9 19.3 1.5 20.9-8 1.1-6.4-1.7-11.5-6.6-15.5-2.1-1.7-4.5-2.5-7.4-2.4zm140.7-8.8c2.1 3.6 4.4 7 6.2 10.6 1.3 2.7 3.1 4.1 6.1 3.8.4 0 1.1-.1 1.2-.3.1-.4 0-1-.2-1.3-2.9-4.8-5.9-9.5-8.9-14.3-.3-.4-.5-.9-.8-1.3 1-.8 1.8-1.5 2.7-2.2 2.8-2.3 5.5-4.5 8.3-6.8.3-.3.4-.7.6-1.1-.4-.2-.8-.5-1.2-.5-.9-.1-1.9-.1-2.8-.2-.9-.2-1.6.1-2.2.7-2.2 2-4.5 3.9-6.8 5.8-1.9 1.6-3.7 3.2-5.8 4.9.3-3.5.5-6.6.7-9.7.3-2.9.3-2.8-2.6-3-1.4-.1-1.8.4-1.9 1.7-.5 7.6-1.1 15.3-1.7 22.9-.2 3.1-.3 3 2.8 3.4 1.3.1 1.7-.3 1.7-1.5.1-2.4.3-4.7.6-7.1 0-.5.2-1 .6-1.3 1-1.2 2.1-2.1 3.4-3.2zm-204.9 67.9c1.1-.2 2-.4 3-.5 1.9-.3 2-.6 1-2.2-4.5-6.9-8.9-13.8-13.4-20.7-1.9-3-1.9-3-5.4-2.3-.8.2-1.1.5-1.2 1.3-.2 1.4-.5 2.7-.7 4.1l-4.2 22.8c-.2 1 .1 1.4 1.2 1.2.9-.2 1.8-.2 2.6-.5.4-.1.8-.6.9-.9.4-2.2.8-4.4 1.1-6.6.1-.9.5-1.2 1.3-1.4 2.7-.5 5.5-1 8.2-1.6.8-.2 1.2.1 1.7.8 1.2 2.2 2.5 4.3 3.9 6.5zm95.1 27.5h2.2c2.4-.2 4.2.8 5.5 2.8.9 1.5 2.1 2.9 2.9 4.6 1 2 2.4 2.8 4.5 2.4h.1c1.1 0 1.4-.4.8-1.3-1.4-2.1-2.7-4.3-4.2-6.4-.6-.9-1.4-1.7-2.1-2.5 3.5-1.3 4.9-3 4.9-5.9 0-3.9-2.2-6.4-6.2-6.5-3.6-.1-7.1 0-10.7-.1-1.2 0-1.5.4-1.5 1.5 0 6.6.1 13.2 0 19.8 0 1.7.9 1.5 2 1.5s2 0 1.9-1.6c-.2-2.8-.1-5.5-.1-8.3zm-71.3 0c.8 0 1.3.1 1.9 0 2.7-.3 4.5.8 5.9 3.1.9 1.5 2 2.8 2.7 4.3 1 2.1 2.4 2.6 4.5 2.4 1.3-.2 1.5-.3.7-1.5-1.9-3-3.9-5.9-5.7-8.6 1.1-1 2.7-1.8 3.6-3.1 2.7-4.1-.2-9.3-5.2-9.5-3.7-.2-7.4 0-11.1-.1-.8 0-1.2.3-1.2 1.1v20.5c0 .3.2 1 .3 1 1 .1 2 .2 3 0 .2 0 .4-1.1.4-1.7.2-2.6.2-5.2.2-7.9zm89.7-1.7v1.1c.3 5.7 4 9.9 9.5 10.6 5.3.7 10.1-2.3 11.6-7.3.5-1.6.6-3.4.6-5.1-.1-8-7.4-13.1-14.9-10.4-4.3 1.7-6.8 5.7-6.8 11.1zm46.9 0v10.2c0 .8.1 1.3 1 1.2 3.1 0 6.2.1 9.3-.1 3.6-.2 6.1-2.1 7.6-5.4 1.1-2.7 1.3-5.4 1-8.2-.5-5-3.3-8.3-7.6-8.8-3.4-.4-7-.1-10.4-.2-.9 0-.8.7-.8 1.3-.1 3.3-.1 6.7-.1 10zm-42.1-99.5c2.4-.6 4.8-1.2 7.1-1.7 1.3-.3 1.6-.8 1.2-1.9-.1-.3-.2-.6-.2-1-.2-1.3-.8-1.5-2-1.2-5.8 1.5-11.6 2.8-17.4 4.2-3 .7-2.7.3-2 3.4.2 1.1.7 1.2 1.7.9 2.4-.6 4.8-1.1 7.2-1.7.1.4.2.7.3 1 1.5 6.4 3 12.7 4.6 19.1.8 3.3.2 3.1 3.8 2.3 1-.2 1.4-.6 1.1-1.7-1-3.9-1.9-7.8-2.8-11.6-1-3.4-1.8-6.7-2.6-10.1zm-67.5 88.3c-1.5-.5-2.1.3-2.6 1.7-2.3 6.2-4.7 12.4-7.1 18.6-.9 2.4-.9 2.4 1.7 2.4 1 0 1.6-.2 1.9-1.3.4-1.5 1-3 1.6-4.4.2-.4.7-.8 1.1-.9 2.3-.1 4.6-.1 6.8 0 .4 0 1 .4 1.2.8.5 1.1.9 2.2 1.3 3.4.9 2.4.9 2.4 3.5 2.4 1.5 0 1.6-.1 1-1.6-2.6-6.5-5.2-12.9-7.7-19.4-.5-1.4-1.1-2.2-2.7-1.7zm104.6 22.6c2.7 0 2.7 0 1.8-2.3-2.5-6.2-5-12.4-7.4-18.6-.6-1.4-1.2-2.2-2.8-1.9h-.6c-1.1-.2-1.5.3-1.9 1.3-2.4 6.3-4.8 12.6-7.2 19-1 2.5-1 2.5 1.7 2.5 1.1 0 1.6-.3 1.9-1.3.4-1.5 1-3 1.6-4.4.2-.4.8-.8 1.2-.8 2.2-.1 4.5 0 6.7-.1.8 0 1.1.3 1.4 1 .4 1.3 1 2.6 1.4 3.9.3 1.4.9 2.1 2.2 1.7zm-45.6 144.2h-4.8v37.7h4.8v-37.7zm-81.3-39v19.8h2.4v-15.5c.5.6.7.9.9 1.2 2.9 4.3 5.9 8.5 8.6 12.8 1 1.5 2.1 1.9 3.7 1.5v-19.8H250V396c-3.3-4.5-6.5-9-9.4-13.6-1-1.5-2.1-1.9-3.8-1.5zm152.8 0h-2.5v15.5c-.7-.9-1.1-1.5-1.5-2.1-2.7-4-5.4-7.9-8-11.9-1-1.5-2.1-1.9-3.7-1.4v19.8h2.5v-15.6c.4.6.6.9.8 1.1l8.7 12.9c1.2 1.8 1.3 1.9 3.6 1.4.1-6.5.1-13.1.1-19.7zm-100.3 10.9c.8-.3 1.6-.5 2.3-.8 2-.9 3.2-3 3-5.2-.2-2.4-1.6-4.5-3.9-4.6-4-.3-7.9-.1-11.9-.1v19.6h2.6v-8.8c.9 0 1.7.1 2.5 0 2.2-.2 3.8.7 4.9 2.5l3 4.5c1.4 2.1 1.7 2.2 4.3 1.6-2.2-2.9-3.5-6.5-6.8-8.7zM354 381v19.7h2.6v-8.8c.8 0 1.5.1 2.1 0 2.6-.3 4.3.8 5.6 3 1 1.7 2.2 3.3 3.2 5 .4.7.9 1 1.7.9.6-.1 1.3 0 2.2 0-2.3-3.2-3.6-6.8-6.9-9 .8-.3 1.5-.5 2.2-.7 2.1-.9 3.3-3.1 3-5.4-.3-2.5-1.9-4.4-4.3-4.6-3.7-.2-7.5-.1-11.4-.1zM209.9 160.2c.5.7.8 1.1 1.1 1.5 2.1 3.2 4.3 6.3 6.4 9.5 1.4 2.1 1.6 2.2 4.2 1.7v-17.8h-2.8V168c-2.7-4-5.1-7.6-7.5-11.2-1.3-2-1.6-2.1-4.1-1.5v17.8h2.8c-.1-4.3-.1-8.4-.1-12.9zm16-5V173c3 0 6 .1 8.9 0 2.7-.2 4.5-1.8 5.4-4.3 1.1-3 1.1-6 .1-9-.8-2.3-2.4-4.1-4.9-4.3-3.1-.4-6.3-.2-9.5-.2zm109.4 245.5h14.8v-2.2h-11c-.4 0-1.2-.4-1.2-.7-.1-2-.1-4-.1-6.2h11v-2.3H339c-.4 0-1.1-.4-1.1-.7-.1-1.7-.1-3.5-.1-5.4h11.7v-2.3h-14.3c.1 6.6.1 13.2.1 19.8zm-79.2-8.7c0 2.4 1.2 5.6 4.3 7.6 5.8 3.7 13.3.4 14.4-6.4 1.4-8.2-4-14-11.5-12.5-4.4.9-7.2 4.8-7.2 11.3zm61.7-.6h10.5v9.3h2.4v-19.8h-2.5v8.1h-10.4v-8.1h-2.5v19.8h2.5v-9.3zM204.9 172.9c-.1-.5-.2-.8-.4-1.1-2.1-5.3-4.2-10.5-6.3-15.8-.6-1.5-1.7-.9-2.6-1.1-.9-.1-1.3.3-1.6 1.1-1.7 4.6-3.5 9.2-5.2 13.8-.4 1-.8 2-1.2 3.1 3.1.4 3.1.4 3.9-1.8.4-1.1.6-2.7 1.4-3.2.8-.6 2.3-.2 3.5-.2 3 0 3 0 4.1 2.8 1.2 2.8 1.2 2.8 4.4 2.4zm80.5 99.4v-17.9c0-1.1-.2-1.6-1.4-1.4h-1c-1.2-.2-1.4.4-1.4 1.4v19.8c0 1.1.3 1.5 1.5 1.5 3.8-.1 7.6-.1 11.4 0 1.2 0 1.7-.3 1.7-1.6 0-1.2-.2-1.9-1.7-1.8-3 .1-6 0-9.1 0zm20.5 128.4v-17.6h6.5v-2.3h-15.6v2.3h6.4v17.5c.9.1 1.7.1 2.7.1zm-29.1-136.2v-10c0-1.2-.4-1.6-1.5-1.5h-.7c-1.3-.2-1.5.4-1.5 1.6.1 6.5.1 13 0 19.5 0 1.4.4 1.9 1.7 1.7h.7c1.1.1 1.3-.4 1.3-1.4-.1-3.3 0-6.6 0-9.9zm57.1 43.2c1.6-.9 2.7-2.3 2.9-3.5.2-1-.3-1.8-1.1-1.5-1 .4-2.1 1-2.6 1.8-.5 1-.1 2.3.8 3.2z"/>
    <path class="color-gray color-reserved-white" fill="#28345d" d="M294.8 497.2c-1.1.6-2.1 1.2-3.2 1.8-.1-.1-.1-.2-.2-.2.4-.5.8-.9 1.3-1.5-1.3.1-2.4.2-3.5.4.1-.3.1-.4.1-.4 1.8-.1 3.2-1.1 4.5-2.2.5-.4 1.2-.6 1.9-.8 3.7-1.1 6.2-3.5 7.5-7.2.3-.8.1-1.7.3-2.5.2-.7.5-1.4.9-2.4.7 2 1.2 3.8 1.9 5.5.3.7.8 1.3 1.3 1.9.4.5.9.9 1.4 1.4 2.1 2 4.2 4.2 7.1 5.3.8.3 1.6.9 2.2 1.7-1.2-.3-2.4-.5-3.5-.8h-.3c0 .1.1.2.1.3.3.5.7 1 1.2 1.7-1.2.1-2.2.2-3.2.1-.3 0-.6-.4-.9-.7-.7-.7-1.4-1.4-2.4-2.3-.1 2 .3 3.2 1.6 4 1.2.8 2.3 1.7 3.3 2.7 2.1 1.9 4.9 2.4 7.4 3.4 1.4.6 2.4 1.4 3 3.3-.9-.3-1.6-.5-2.4-.7-.2-.1-.3-.2-.5-.3l-.2-.2v.2h.2c.1.2.1.4.2.6s.2.5.3.7c-.1.1-.2.2-.2.3-.8-.6-1.7-1.2-2.6-1.9-.1.4-.1.8-.2 1.6l-2.3-2.3c-1.3 1.2-2-.8-3.3-.9.3 1.2.8 1.8 2 2.2 1 .3 2.1 1 2.9 1.8 2.7 2.9 5.7 5.1 9.2 6.8.2.1.3.1.6.3-1 .9-1.8.5-2.5.1-.6-.3-1.1-.7-1.6-1.1-.1 0-.2-.1-.3-.1 0 .1.1.2.1.3.1.3.2.6.3 1.2-1.6-1.3-3-2.5-4.4-3.6l-.3.3c.1.6.3 1.3.4 1.9-.1 0-.2.1-.3.1-.8-1-1.6-2-2.4-2.9-.1.1-.2.1-.3.2.1.7.3 1.3.4 2.2-.4-.3-.7-.4-1-.6-.1.3-.3.7-.4 1.1-1.9-1.1-1.6-3.5-3-4.8-.1.8-.2 1.5-.3 2.5-.7-.8-1.1-1.3-1.5-1.8-.4.4-.8.6-1.1.9-.1-.2-.2-.3-.3-.5-.1 0-.1 0-.2.1 0 .2.1.4.1.6 1.1.9 2.1 1.9 3.3 2.6 2 1.1 4.1 1.9 6.1 3.1-1.2-.3-2.5-.6-3.9-.9.8 1.6 2.1 2.1 3.5 2.3 3.5.4 6.4 2 9.4 3.6.8.5 1.6 1.1 2.3 1.7-2.1-.8-4.3-1.5-6.4-2.3 0 0 0 .2-.1.6-.9-.4-1.7-.8-2.7-1.2.1.5.2.9.3 1.7-1.1-.6-1.9-1-2.9-1.6v1.7c.1 0 .2-.1.2-.1.5.6 1 1.2 1.5 1.7.3.3.6.5.9.6 1.7.5 3.4.7 5 1.4 1.9.8 3.6 1.9 5.3 3 .3.2.4.8.6 1.2-.1.1-.2.1-.3.2 1.2 1.3 2.3 2.6 3.5 3.9-.1.2-.2.3-.3.5-.7-.4-1.5-.7-2.3-1.1-.8 1.2-1.7 1.3-3-.1-.8-.9-1.5-1.8-2.4-2.6-.4 1.2.8 2.3-.5 3.1.7.9 1.4 1.8 2.1 2.6-.1.1-.2.3-.3.4-.8-.4-1.5-.8-2.3-1.1-.7 1.2-1.4 1.3-2.5.4-.8-.7-1.5-1.5-2.2-2.3-.2-.2-.6-.3-.9-.5v-.2h-.1c0 .1.1.1.1.2.1.6.3 1.2.4 1.8 0 .3-.2.6-.3.9-.3-.1-.6-.2-.8-.4-.1-.1-.2-.3-.3-.5-.3-2.4-2.2-2.6-4.1-3.2.8 1.5 1.6 2.8.4 4.3-.1.1.2.7.4 1 .9 1.9 1.7 3.8 2.6 5.7.2.5.3 1 .4 1.6-.1.1-.3.1-.4.2-.4-.5-.8-1.1-1.2-1.6-.2.4-.4.9-.6 1.4-.2 0-.3.1-.5.1l-2.4-5.1h-.2l.3 3.6c-.2 0-.3.1-.5.1-1-2.3-.4-5.6-3.7-6.5.1.8.2 1.6.3 2.5-.1 0-.2.1-.3.1-.8-1.7-1.5-3.4-2.3-5.2-.1 0-.2 0-.4.1 0 .4.1.9 0 1.3-1 4 .3 7.9.5 11.9.3 4.1.6 8.1.8 12.2v.9h5.3v3H297v-2.9h5.3c1.7-6.6 2-21.6.4-26.4-.7 2.1-1.4 3.9-2.2 6-.6-.8-.9-1.3-1.4-2-.3 1-.6 1.9-.9 2.8h-.3c-.1-.7-.1-1.3-.2-2-.1-.1-.2-.1-.4-.2l-1.5 3c-.1 0-.2 0-.3-.1v-2h-.3c-.6 1.7-1.2 3.5-1.8 5.2h-.4c-.1-.6-.3-1.2-.4-1.8-.3.5-.6 1-.8 1.5-.1-.1-.3-.1-.4-.2.3-1 .4-2.1.8-3.1.7-1.6.6-3.1-.5-4.8-.7 1.4-1.4 2.8-2.3 4.3-.6-1.2-.9-2-1.3-2.9-.1 0-.3.1-.4.1-.4 1-.7 2-1.1 3h-.5c-.1-.5-.3-1-.4-1.6-.4.5-.8 1-1.2 1.6-.2-.1-.4-.3-.6-.4.5-1.1.9-2.2 1.4-3.3-.1-.1-.1-.2-.2-.3-1.9 1.5-3.9 3-5.8 4.4l-.5-.5c1.1-1.1 2.1-2.3 3.2-3.4-.8-.6-1.3-.3-1.8.3-.9 1-1.7 2.3-3.7 2.1.6-.8 1.1-1.7 1.8-2.3 1.3-1.2 2.8-2.1 4.1-3.3 1.2-1.2 2.6-1.8 4.3-2.2.5-.1 1.2-.2 1.4-.5 1-1.9 3.2-2.1 4.7-3.2 1.3-.9 2.3-1.8 3.1-3.1.4-.6 1.3-.9 2-1.4-.6-1.1-2.3-1.4-3.1-.6-1.1 1.2-2.3 2.4-3.4 3.6-.1-.1-.3-.1-.4-.2-.1-.7-.3-1.4-.5-2.7-1.3 1.6-2.5 3-3.6 4.3h-.2c.1-.7.2-1.3.3-2.1-1.1.5-2.3.9-3.3 1.4-.4.2-.6.9-.8 1.4-.2.5-.3 1.1-.5 1.6-.1.2-.5.3-.8.3-.1 0-.3-.4-.3-.6 0-.7.2-1.3.3-2.4-.8 1-1.4 1.6-2 2.3-.4.4-.7.9-1.1 1.3-1.1.9-1.8.7-2.3-.5l-2.1 1.5c-.1-.1-.2-.2-.4-.3.2-.4.3-.9.6-1.3l2.7-3.3c.3-.4 1.3-.7.6-1.6.6-.5 1.2-1.4 1.8-1.5 1-.2 1.7-.6 2.2-1.5l.3-.3c2-.7 1.6-2.4 1.4-4.2-1.1 1.2-2.1 2.3-3.2 3.5-.1-.1-.2-.1-.2-.2.3-.7.5-1.3.8-2l-.2-.2c-1.1.7-2.1 1.5-3.2 2.2-.1-.2-.2-.3-.4-.5l1.2-1.5c3-3.5 7.2-4.8 11.4-6.1l2.4-.6c1.1-.3 2.1-.4 2.7-1.8.3-.7 1.3-1.2 2.1-1.7-1-.7-1.5-.5-3 1.6-.4-.6-.8-1.1-1.4-1.8-.5.4-1 .7-1.4 1.2-.3.3-.5.8-.8 1.2-.3-.3-.7-.6-1.1-1-.3.5-.7 1.1-1.2 2-.1-.9-.2-1.5-.3-2.3-.4.6-.7 1.1-1 1.5s-.6.7-1.1 1.3c.1-1 .2-1.7.2-2.4h.2v-.1l-.2.2c-1.8.9-3.6 1.7-5.4 2.6-.1-.1-.2-.3-.2-.4.7-1.7 2.3-2.5 3.8-3.3-.4-.2-.7-.4-1.2-.8 1.1-.9 2.2-.8 3.4-.7.6 0 1.2 0 1.7-.2 1.9-.5 3.7-1.2 5.6-1.7 1.4-.4 2.6-.7 3.2-2.2.2-.4.6-.7 1-1.2-1.5-.4-2.6.3-3.8 1 .1-.5.2-1 .4-1.5l-.3-.3c-.5.4-1 .8-1.5 1.1-.7.4-1.5.8-2.3 1.2.3-.6.6-1.2.8-1.8-.1-.1-.1-.2-.2-.3-1.2.7-2.5 1.3-4 2.1.2-.6.2-.8.3-1 .1-.1.1-.2.2-.3-.1 0-.2.1-.3.1-.4.1-.8.1-1.2.2-.1-.1-.1-.3-.2-.4 1.2-1.2 2.3-2.6 4.1-2.9 4.1-.7 7.6-2.7 11.1-4.8.3-.2.6-.5 1.1-.9-3.3-.5-3.3-.5-4.2-1.7-1.2.7-1.4 2.7-3.4 2.6.2-.6.3-1.2.5-1.7v-.3c.4.4.3.5.2.5zm31.8 39.7c0-.1 0 0 0 0zM284.7 525l.3-.3c.1-.1.1-.2.2-.3 1.1-.7 2.8-.9 2.8-2.7-2-.2-2.4 1.2-2.9 2.5l-.3.3-.3.3c-.1.1-.2.2-.2.3.1 0 .2-.1.4-.1zm41 9.2c-.5.2-.9.4-1.4.6.7.6 1.3 1.1 2 1.6.1-.1.2-.1.2-.2-.3-.6-.6-1.3-.8-2zm-16.1-21.7c-.1 0-.1 0-.2.1 0 .2 0 .4.1.5h.1v-.6zm6.1 22.8c-.1 0-.1-.1-.2-.1 0 0-.1 0-.1.1.1 0 .1.1.2.1 0 0 .1 0 .1-.1zM309.5 336c2.3-2.3 4.6-4.6 6.8-6.9.4-.4.5-1.2.5-1.8-.1-2.2.3-4.3 1.4-6.3.4-.8.9-1.8 2.1-1.5 1.1.4 1.1 1.6.8 2.4-.7 2-1.7 4-2.5 6-.1.2-.3.5-.5.8.8.8 1.7.7 2.6.3 1.6-.7 2.5-2.1 3.4-3.6 1.7-2.9 3.6-5.7 5.5-8.5.9-1.3 2.4-1.8 4.2-2-.2.7-.4 1.2-.6 1.7-1.2 3.4-2.4 6.7-3.5 10.1-.2.5.1 1.2.2 1.8.5-.3 1.3-.4 1.6-.8 1.6-2.2 3.1-4.5 4.6-6.8 1.5-2.4 2.9-4.9 4.6-7.3.7-1 1.7-1.8 2.7-2.3 1.7-.9 3.1 0 2.9 2-.2 1.6-.8 3.2-1.2 4.8-.2.9-.5 1.7-.6 2.7 1.2-2 2.4-4.1 3.8-6 1.7-2.3 3.6-4.6 5.6-6.7.6-.7 1.7-1.1 2.7-1.3 1.5-.3 2.5.7 2.2 2.2-.3 1.6-.9 3.1-1.4 4.7-.5 1.5-1 2.9-1.4 4.4-.1.4.1 1 .1 1.4.5-.2 1.2-.2 1.4-.5 1.7-2.2 3.5-4.5 4.9-6.9 1.9-3.1 3.9-6 6.6-8.4 1.2-1 2.5-1.9 3.9-2.6 1.9-.9 2.7-.6 3.9 1.2.9-1.8 1.5-3.9 4.3-3.6-1.7 5.5-3.4 10.9-5.1 16.3v.5c.1-.1.2-.1.3-.2 2.9-4 5.9-8 8.8-12h.2c-.3.6-.4 1.3-.8 1.8-2.6 3.8-5.4 7.6-8 11.4-.6.9-1.3 1.9-1.6 3-2.5 8-4.8 16-9.3 23.2-2.2 3.6-4.8 7-7.4 10.2-1.1 1.3-2.8 2.3-4.4 3-3 1.2-5.1-.5-4.4-3.6.6-2.6 1.6-5.1 2.8-7.5 3.3-6.2 7.8-11.5 12.3-16.9 1.2-1.4 2.3-3 3.6-4.2 3.4-3.1 4.4-7.3 5.4-11.5 0-.2.1-.4.1-.6h-.1c-.1.1-.1.3-.2.4-1.3 1.5-2.4 3-3.8 4.4-.7.7-1.7 1.3-2.7 1.6-2 .8-3.6-.3-3.7-2.5-.1-1 .2-2.1.2-3.2 0-.1.1-.2.1-.2 0 .1-.1.2-.1.3-1.5 2.2-2.8 4.5-4.4 6.5-.8 1.1-2 2-3.1 2.7-.8.4-2.1.6-3 .2-1.1-.4-1.1-1.8-.8-2.8.6-2.2 1.4-4.3 2.1-6.5.3-.9.7-1.7 1-2.6.1-.3.1-.7.1-1l-.3-.3c-.6.4-1.3.7-1.6 1.2-2.5 3.5-5.1 7-7.5 10.5-1.1 1.6-2.1 3.3-3.1 5-.7 1.1-1.7 1.6-3.2 1.5.5-4.7 2.4-8.9 3.6-13.3-.1-.1-.3-.2-.4-.3-.4.3-.9.5-1.2.9-.9 1.3-1.8 2.6-2.6 3.9-1.7 2.8-3.2 5.7-5 8.3-1.2 1.7-2.8 3.1-4.4 4.3-.6.5-2.1.6-2.7.2-.7-.6-1.1-1.9-.9-2.8.4-2.2 1.3-4.2 1.9-6.4.1-.4.3-.8.5-1.2-.1-.1-.2-.1-.4-.2-.8 1.4-1.6 2.8-2.4 4.1-1.1 1.6-2.1 3.3-3.5 4.6-1.2 1.2-2.8 1.5-3.8.8-2.2 1.9-4.2 3.8-6.4 5.6-1.5 1.2-3 2.4-4.6 3.4-.4.3-1.4.3-1.7.1-.3-.3-.3-1.2-.1-1.7 1.1-3.4 2.3-6.8 3.4-10.1.1-.4-.1-1-.2-1.5-.5.3-1.2.4-1.5.8-1.7 2.6-3.3 5.3-5 7.9-1.6 2.3-3.2 4.7-5 6.8-.8.9-2 1.5-3.2 1.9-1.6.6-2.8-.3-2.6-2 .1-1.4.4-2.8 1-4 .9-2.1 2.2-4 3.3-6l.9-1.8c-.1-.1-.2-.3-.2-.4-.9.3-1.8.7-2.8.8-1.5.3-2.2 1.2-2.9 2.5-1.8 3.5-3.7 7-5.8 10.3-1.9 3-4.4 5.5-7.9 6.8-3.8 1.3-5.8-.4-5.2-4.4.1-.4.1-.7.2-1.2-.4.4-.7.6-1.1.9-.1 0-.2-.1-.2-.1.1-.4.2-.8.4-1.1 2-3.6 4.6-6.8 8-9.4.9-.7 1.9-1.2 2.9-1.5 1.5-.5 2.8.5 2.5 2-.2 1.2-.6 2.5-1.4 3.4-2 2.2-4.3 4.1-6.5 6.1-1 .9-1.3 1.9-.6 3 .8 1.2 1.9 1 2.7.3 1.7-1.3 3.6-2.6 4.8-4.4 2.7-4 5.1-8.3 7.6-12.4-1.4-1.2-1.4-2.3-.7-3.4.8-1.3 2.2-1.9 3.6-1.4-.3.7-.7 1.4-1 2.1-.3.8 0 1.3.9 1 1-.2 2-.5 3-.7 1.5-.2 2.1.5 1.7 2-.6 1.8-1.4 3.6-2.1 5.5-.4 1.3-.7 2.6-1 3.9-.1.3.2.8.4.9.3.1.8-.1 1-.3 1-1.1 2-2.1 2.7-3.3 1.7-2.7 3.3-5.5 5-8.2 1.1-1.6 2.3-3.2 3.7-4.5.6-.6 2-.9 2.9-.7 1.1.3 1.3 1.5 1.3 2.7 0 3-1.3 5.6-2.4 8.2-.2.6-.5 1.2-.8 1.8 0 .1-.1.2-.1.3.2-.1.3-.2.4-.2zm-33.6 7.1c.5-.3 1-.5 1.5-.9 2-1.7 3.8-3.7 4.3-6.5.1-.5-.3-1.2-.5-1.8-.6.2-1.3.3-1.6.7-2 2.6-3.2 5.4-3.7 8.5 0 0-.1 0 0 0l-.1.1.1-.1zm94.5-20.9c-4.2 5.1-8.4 10.2-12.5 15.5-2.6 3.4-4.9 7.1-6 11.4-.3 1.1-.4 2.4-.3 3.6.3 2.1 1.5 2.6 3.2 1.6 1-.6 2-1.3 2.8-2.3 1.4-1.7 2.7-3.6 3.7-5.5 4.1-7.5 6.4-15.6 9-23.6.2-.3.1-.5.1-.7h.2c0-.1 0-.1-.1-.2 0 .1-.1.1-.1.2zm5.5-19.2c-.2-.4-.4-1.2-.8-1.3-.5-.2-1.4 0-1.8.3-3.6 3.6-5.7 8-6.8 12.9-.1.4.2 1.1.5 1.3.3.2 1 0 1.4-.2.7-.5 1.5-1.2 2-1.9 2.7-3.1 4.4-6.8 5.5-11.1zm-47.8 17s0 .1 0 0c0 .1.1.1.1.1s0-.1-.1-.1c.1 0 0 0 0 0zm-111.9 60.6c-1.3-1.8-.3-5.4 3.6-14.5-1.3-1-2.8-1.9-4-3.2-4.2-4.4-5-10.7-1.7-16.5 5.1-8.9 12.8-14.1 22.9-15.9 5.2-.9 7.6-.4 11.5 1.6 4-3.6 8-7.3 12.2-10.8 1.4-1.2 2.3-2.6 2.8-4.4 1.5-5.2 3.4-10.3 6.6-14.8 1-1.4 2.3-2.7 3.6-3.9.8-.7 1.9-1.3 3-1.7 2.8-1 4.7.5 4.2 3.4-.3 1.7-1 3.5-1.9 5-2.3 4.1-5.7 7.4-9.2 10.5-.5.5-1 1.2-1.1 1.9-1.1 6-1.7 12.1-3.1 17.9-5.1 20.7-22.4 29.7-35.9 31.4-2.2.3-4.5 0-6.8-.3-1-.1-1.3.1-1.7.9-2 3.9-4.1 7.8-4.6 12.3-.1.6-.3.8-.4 1.1zm33.5-47.5c3.6 5.1 2.2 9.6-.4 12.8-4.5 5.5-10.3 8.5-17.6 7.7-.8-.1-1.3.1-1.7.7l-6 8.7c-.2.3-.4.7-.6 1.1 3.6 1.5 7.2 1.5 10.8.8 10.8-2.1 18.2-8.5 22.4-18.6 2.4-5.8 3.6-12 4.7-18.1.4-2 .8-4.1 1.2-6.1l-.3-.3c-4.3 3.8-8.4 7.6-12.5 11.3zm-25.2 15.2c1.4 1.2 2.5 2.1 3.7 3 .7.6 1.2.4 1.9-.3 3.5-3.8 7.1-7.6 10.7-11.3 2-2 4.1-3.9 6.4-6.1-1.3-.6-2.4-1.3-3.5-1.6-2.8-.9-5.6-.6-8.4 0-7.3 1.7-13.4 5.4-17.4 12-3.4 5.8-2.8 12.5 1.5 17.3.6.7 1.3 1.2 1.9 1.7 2.4-3.5 4.7-6.8 7.1-10.2-1.9-1-3.3-2.2-3.9-4.5zm23.2-13.3c-5.9 5.5-11.5 11-16.4 17.4 7.2 1.6 16.1-3.9 17.6-10.9.6-2.3.3-4.5-1.2-6.5zm21.5-20.9c4.2-3.5 8.1-7.2 10.1-12.5.3-.8.4-1.6.3-2.5-.2-1.5-1.3-2.2-2.6-1.5-1.3.8-2.5 1.8-3.3 3-2.6 4.1-3.5 8.8-4.5 13.5zm-6.8 7.8c0-.1 0-.1 0 0 .1-.1 0-.1 0-.2-.1 0-.1.1 0 .2-.1-.1-.1 0 0 0zm6.4 135.7h-4.6v-30.9c-.1 0-.2 0-.3-.1-.8 2.3-1.7 4.7-2.5 7-2.7 7.6-5.3 15.2-8 22.8-.3.9-.8 1.2-1.7 1.2-3.3 0-3.3 0-4.4-3.2-3.1-9-6.1-18.1-9.2-27.1-.1-.3-.2-.6-.6-.8v31h-4.8v-37.8c2.3 0 4.7 0 7 .1.3 0 .7.7.9 1.2 3.4 10 6.7 20 10 30.1.1.2.1.4.3 1 .6-1.8 1.2-3.3 1.7-4.8 3-8.7 6-17.4 9-26.2.3-1 .8-1.4 1.9-1.3 1.7.1 3.4 0 5.2 0 .1 12.6.1 25.2.1 37.8zm-46.9-347.9c3.9 2.2 5.6 5.6 4.9 10.1-.7 4.5-3.9 7.7-8.6 8.2-3.3.4-6.8.3-10.1.4-2.3.1-4.5 0-6.8 0-1.1 0-1.5-.4-1.5-1.5V94.5c0-.9.2-1.6 1.3-1.6 5.2.1 10.4-.1 15.6.3 6.1.4 10 6.2 8.2 11.7-.7 1.8-2 3.2-3 4.8zm-16.1 3.4v9.9c.2 0 .3.1.4.1h6c1.6 0 3.2 0 4.7-.2 2.7-.5 4.1-2.3 4.1-4.9s-1.5-4.6-4.3-4.8c-3.6-.3-7.2-.1-10.9-.1zm-.1-6c3.5 0 6.9.2 10.3-.1 2.2-.2 3.4-1.9 3.4-4 0-2.2-1.1-4-3.2-4.2-3.5-.4-7-.4-10.5-.5v8.8zm193.4 5.5c4.6 4 7 9.5 10.3 14.4.6.9.1 1.4-.8 1.5-1.6.1-3.3.1-4.9 0-.4 0-.9-.5-1.2-.9-2.1-3.3-4.2-6.5-6.4-9.8-.6-.9-1.3-1.7-2-2.5-1.2-1.2-2.6-1.9-4.3-1.9h-5.4c0 .5-.1 1-.1 1.4v12c0 1.4-.5 1.9-1.8 1.7-.9-.1-1.8 0-2.6 0-1.1 0-1.5-.4-1.5-1.5V95.1c0-2.1 0-2.1 2.1-2.1 5.2 0 10.4 0 15.6.1 2.8.1 5.6.4 7.8 2.5 5.4 5.1 3.6 14-3.5 16.5-.3.2-.8.4-1.3.5zm-14.7-4.5h7.8c1.6 0 3.3-.1 4.8-.3 2.5-.4 4-2.3 3.9-4.8 0-2.3-1.5-4.3-4.1-4.5-4.1-.2-8.3-.1-12.5-.1.1 3.1.1 6.2.1 9.7zm-51.3-4.4c-1.8.5-3.4 1-5.2 1.4-.3-.7-.5-1.4-.8-2.1-1.2-3.3-3.7-4.9-7-5.3-8.1-.9-13.3 3.8-13.5 12.1 0 1.6.1 3.2.4 4.7 1.4 7.6 7.9 9.8 13.5 8.9 2.2-.3 4.3-1.5 6.5-2.4.4-.1.8-.6.8-1 .1-1.6 0-3.2 0-4.9h-8.2c-1.6 0-1.8-.2-1.8-1.9 0-3.9-.4-3.6 3.6-3.6H332c1.2 0 1.7.4 1.7 1.6v11.1c0 .4-.2 1-.5 1.3-6.6 5.1-13.8 6.8-21.8 3.9-6.6-2.5-9.8-7.7-10.4-14.5-.2-2.7 0-5.5.6-8.1 1.9-7.8 7.3-12 15.4-12.6 2.9-.2 5.7.1 8.5 1.2 4.3 1.9 6.6 5.5 7.6 10.2zm-61.4-.4v19.9c0 1.2-.1 2.4 0 3.6s-.4 1.8-1.7 1.7c-.6-.1-1.3 0-2 0-2 0-2.1 0-2.1-2V94.7c0-1.2.4-1.6 1.7-1.8 2.9-.4 4.5.6 6.1 3.1 4.4 7 9.2 13.8 13.8 20.6.3.4.6.8 1.1 1.6V94.8c0-1.7.1-1.8 1.8-1.8 4.3 0 3.8-.5 3.8 3.8v29.8c0 1.8-.1 1.7-1.9 1.9-2.8.3-4.4-.6-5.9-3-4.5-7.4-9.6-14.6-14.7-22.2zm55.5 316.5c1.5 0 3-.1 4.4 0 .4 0 1 .5 1.2.9l18.3 27.3c.3.4.6.8 1.1 1.5v-29.6h4.7v37.8c-1.6 0-3.1.1-4.6 0-.4 0-.9-.5-1.2-1-6.2-9.2-12.3-18.3-18.5-27.5-.2-.3-.4-.5-.7-1v29.4h-4.8c.1-12.6.1-25.1.1-37.8zm28.6-290.7c-9.3 0-16.5-6.9-16.9-16.5-.2-5.1.5-10 3.8-14.1 4.7-5.8 10.9-7.2 17.8-5.5 6.7 1.7 10.5 6.4 11.9 13 .8 3.6.7 7.3-.3 10.9-2.2 7.6-8.4 12.2-16.3 12.2zm11.3-18.3c-.5-2.2-.8-4.5-1.5-6.6-1.7-4.5-5.8-6.8-10.8-6.5-4.4.3-8 3.3-9.2 7.7-.9 3.3-1.1 6.7-.2 10 1 4.1 3.5 7 7.6 8.1s7.8.2 10.8-3.1c2.4-2.6 3-6 3.3-9.6zm3.4 329.5v12.9h23.1v4.4h-28.1v-37.7h27.2v4.3h-22.2v11.7h20.7v4.5c-6.8-.1-13.7-.1-20.7-.1zM245.4 93c2.9 0 2.9 0 4 2.7 4.2 10.3 8.3 20.5 12.5 30.8.7 1.6.4 2.1-1.4 2.1-1.4 0-3.2.4-4.2-.3-1-.6-1.1-2.4-1.6-3.7-.7-1.8-1.4-3.5-2-5.3-.2-.7-.6-1-1.4-1h-11.4c-.8 0-1.1.3-1.4 1-1 2.8-2 5.5-3 8.2-.3.8-.6 1.1-1.5 1.1-1-.1-2 0-3.1 0-1.6 0-1.9-.4-1.4-1.9 2.6-6.9 5.3-13.9 7.9-20.8 1.4-3.8 2.9-7.5 4.3-11.3.4-1.3 1.1-1.7 2.3-1.5.5 0 .9-.1 1.4-.1zm0 7.1c-1.6 4.3-3.1 8.6-4.7 13h9.5c-1.6-4.4-3.2-8.7-4.8-13zm47.4 319.7c5.1 12.6 10.3 25.2 15.4 37.9-1.8 0-3.5.1-5.1 0-.4 0-.9-.6-1-1-1.2-3.1-2.4-6.2-3.5-9.4-.3-.8-.7-1.1-1.6-1.1h-13.7c-.8 0-1.2.2-1.5 1-1.2 3.5-2.5 6.9-3.7 10.4h-5.3c.1-.3.1-.7.3-1 4.5-11.9 9.1-23.8 13.6-35.7.3-.9.8-1.2 1.7-1.1h4.4zm3.7 22.2c-2.2-6-4.4-11.9-6.5-17.5-2 5.7-4.1 11.6-6.2 17.5h12.7zm-70.8-223.1c4.7 1.4 8.2 4.5 12.1 6.9.8.5.7 1-.2 1.4-1 .5-2 1-3.1 1.3-.4.1-1 0-1.4-.2-2.3-1.4-4.5-3-6.8-4.4-5-3.1-5.2-2.8-11 .2 1.4 3.1 2.7 6.3 4.2 9.4.5 1.1.3 1.6-.8 2.1-3 1.2-2.4 1.6-3.8-1.4-3.2-7.2-6.4-14.3-9.6-21.5-.4-.8-.5-1.4.5-1.9 3.9-1.7 7.8-3.5 11.7-5.1 1.8-.8 3.8-1.4 5.8-.8 3 .8 4.7 2.9 5.5 5.8.7 2.8-.2 5.2-2.2 7.2-.2.4-.5.7-.9 1zm-11.9 1.5c1-.4 1.9-.8 2.7-1.2 2.1-1 4.3-1.9 6.3-3.1 1.9-1.1 2.4-3.1 1.5-4.9-.9-1.8-2.6-2.6-4.7-1.9-3.1 1.1-6 2.5-9.1 3.8 1.1 2.5 2.2 4.9 3.3 7.3zm158.9-51.6c.2-5.9 1.7-10.5 6.5-13.3 8.3-5 18.9.2 20.2 9.8.4 3.2.2 6.3-1 9.3-2.2 5.6-7.3 8.5-13.9 8-5.6-.5-10.1-4.5-11.4-10.3-.2-1.4-.3-2.8-.4-3.5zm22.3-.3c-.1-1.3-.2-2.3-.4-3.2-.8-4.5-4-7.4-8.4-7.5-4.1-.1-7.6 2.7-8.3 7-.4 2.1-.4 4.3-.2 6.3.5 4.1 3.7 7 7.8 7.4 3.9.3 7.4-2 8.6-5.9.5-1.4.7-2.9.9-4.1zm-54.3-1.2c0-3.6 2-8.1 7.3-10.4 5.1-2.3 10.1-2.1 14.5 1.6 4.4 3.8 5.5 9 4.9 14.5-.6 5.2-3.5 8.9-8.5 10.6-5 1.7-9.7 1.1-13.6-2.6-3.4-3.2-4.6-7.3-4.6-13.7zm22.5 3.6c-.5-2.1-.9-4.3-1.7-6.3-1.5-3.7-5-5.5-9-4.9-3.8.6-6.5 3.3-6.9 7.3-.2 1.7-.1 3.5.1 5.3.6 3.7 2.4 6.7 6.3 7.7 4.8 1.3 10.9-1.6 11.2-9.1zm-54 2.8c-1.4.6-2.6 1.1-3.8 1.6-.1-.1-.2-.1-.3-.2-2.4-4-8.4-4.2-11.1-.3-1.5 2.1-.4 4.6 2.1 4.6 2.7.1 5.5-.3 8.2-.4 1.2 0 2.4-.1 3.6.2 5.8 1.2 8.1 7.6 4.5 12.4-2.9 3.8-9.8 6-14.4 4.5-3-1-4.9-3.1-6-6.2 1.3-.6 2.5-1.1 3.9-1.7.1.1.1.2.2.4 2.7 4.6 9.8 4.9 13 .5.8-1.1 1-2.3.4-3.5-.6-1.4-1.8-1.9-3.1-1.9-2.6.1-5.3.3-7.9.4-1.2 0-2.5 0-3.7-.2-5.3-1.1-7.4-7.2-4-11.5 2.7-3.4 8.8-5.4 13-4.2 2.6.7 4.4 2.6 5.4 5.5zm-62.5 47.7c-6 0-11.1-4.3-13.2-11.1-1.6-5.1-.9-9.7 3-13.6 5.9-5.8 15-5.2 20 1.4 2.5 3.2 3.9 6.9 3.7 11-.2 6.9-6.3 12.3-13.5 12.3zm9.2-13.3c-.3-3.1-1.8-6.5-4.7-9.1-2.5-2.3-5.5-2.8-8.7-1.4-3.2 1.4-5.4 3.8-5.4 7.3.1 4.7 1.9 8.9 6 11.4 5.6 3.3 12.8-.8 12.8-8.2zm16.6-28.7c2.9-.1 5.3.7 7.4 2.4 4.9 4 7.7 9.1 6.6 15.5-1.6 9.5-13.3 13.9-20.9 8-5.1-3.9-7.7-11.3-5.9-16.9 1.8-5.3 7.1-9 12.8-9zm.4 24.6c5.9 0 10.2-4.5 9.5-9.3-.5-3.7-2.2-6.9-5.1-9.3-2.8-2.4-6.5-2.6-9.7-.7-3.3 2-5.1 5.5-4 9.1.7 2.3 1.8 4.5 3.1 6.5 1.6 2.3 4.1 3.6 6.2 3.7zm140.3-33.4c-1.3 1.1-2.5 2-3.6 3-.3.3-.5.9-.6 1.3-.2 2.4-.4 4.7-.6 7.1-.1 1.2-.4 1.6-1.7 1.5-3-.4-3-.3-2.8-3.4.6-7.6 1.2-15.3 1.7-22.9.1-1.4.5-1.8 1.9-1.7 2.9.2 2.9.2 2.6 3-.3 3.1-.5 6.3-.7 9.7 2.1-1.8 3.9-3.4 5.8-4.9 2.3-1.9 4.5-3.8 6.8-5.8.7-.6 1.3-.9 2.2-.7.9.2 1.9.1 2.8.2.4.1.8.3 1.2.5-.2.4-.3.8-.6 1.1-2.7 2.3-5.5 4.6-8.3 6.8-.9.7-1.7 1.4-2.7 2.2.3.5.5.9.8 1.3 3 4.8 5.9 9.5 8.9 14.3.2.4.4.9.2 1.3-.1.2-.8.3-1.2.3-3 .3-4.7-1.1-6.1-3.8-1.6-3.4-3.8-6.8-6-10.4zm-204.9 67.9c-1.4-2.2-2.7-4.3-4-6.5-.4-.7-.8-1-1.7-.8-2.7.6-5.5 1.1-8.2 1.6-.9.1-1.2.5-1.3 1.4-.3 2.2-.7 4.4-1.1 6.6-.1.4-.5.8-.9.9-.8.3-1.7.3-2.6.5-1 .2-1.4-.2-1.2-1.2l4.2-22.8c.2-1.4.5-2.7.7-4.1.1-.7.4-1.1 1.2-1.3 3.5-.7 3.5-.7 5.4 2.3 4.5 6.9 8.9 13.8 13.4 20.7 1 1.6.9 1.9-1 2.2-.9.2-1.9.3-2.9.5zm-14.3-9.6c2.6-.5 4.9-.9 7.5-1.4-2-3.2-3.8-6.3-5.7-9.4-.6 3.6-1.2 7.1-1.8 10.8zM303.4 266c0 2.9-.1 5.5 0 8.2.1 1.6-.8 1.6-1.9 1.6-1 0-2 .2-2-1.5.1-6.6.1-13.2 0-19.8 0-1.1.3-1.5 1.5-1.5 3.6.1 7.1 0 10.7.1 4 .1 6.2 2.6 6.2 6.5 0 2.9-1.4 4.6-4.9 5.9.7.9 1.5 1.6 2.1 2.5 1.4 2.1 2.8 4.3 4.2 6.4.6 1 .3 1.4-.8 1.3h-.1c-2.1.4-3.5-.3-4.5-2.4-.8-1.6-2-3-2.9-4.6-1.3-2.1-3-3-5.5-2.8-.5.1-1.2.1-2.1.1zm.1-3.3c2.9-.2 5.8-.2 8.5-.6 1.4-.2 2.2-1.5 2.2-2.9s-.8-2.6-2.3-2.8c-2.8-.3-5.6-.3-8.5-.5.1 2.5.1 4.5.1 6.8zm-71.4 3.3v7.9c0 .6-.2 1.6-.4 1.7-1 .2-2 .1-3 0-.1 0-.3-.6-.3-1v-20.5c0-.8.3-1.1 1.2-1.1 3.7 0 7.4-.1 11.1.1 5 .2 7.9 5.4 5.2 9.5-.9 1.3-2.5 2.2-3.6 3.1 1.8 2.7 3.8 5.6 5.7 8.6.8 1.2.6 1.3-.7 1.5-2.1.3-3.6-.3-4.5-2.4-.7-1.5-1.9-2.9-2.7-4.3-1.3-2.3-3.2-3.4-5.9-3.1h-2.1zm0-3.3c2.9-.2 5.7-.2 8.5-.6 1.5-.2 2.3-1.5 2.2-2.9 0-1.4-1-2.7-2.5-2.8-2.7-.2-5.4 0-8.2 0v6.3zm89.7 1.6c0-5.4 2.5-9.5 6.9-11 7.5-2.7 14.8 2.3 14.9 10.4 0 1.7-.1 3.5-.6 5.1-1.5 5.1-6.3 8.1-11.6 7.3-5.5-.8-9.2-4.9-9.5-10.6-.1-.4-.1-.8-.1-1.2zm18.1-.1c-.3-1.2-.5-2.7-1-4.1-1.1-2.8-3.7-4.2-7-3.9-2.7.2-5.2 2.1-5.8 4.8-.4 2-.5 4.2-.2 6.2.4 3.3 3.2 5.5 6.5 5.7 3.2.2 6-1.8 6.9-5.1.3-1.2.4-2.2.6-3.6zm28.8.1v-10c0-.6-.1-1.3.8-1.3 3.5 0 7-.2 10.4.2 4.3.5 7.1 3.8 7.6 8.8.3 2.8.2 5.5-1 8.2-1.5 3.4-4 5.2-7.6 5.4-3.1.2-6.2 0-9.3.1-.9 0-1-.5-1-1.2.1-3.4.1-6.8.1-10.2zm3.9 7.9c2.2 0 4.3.1 6.4 0 2.1-.2 3.5-1.4 4.2-3.4 1-2.8 1-5.6.2-8.5-.5-1.7-1.6-3.3-3.5-3.6-2.4-.4-4.8-.3-7.4-.5v15.3c0 .3 0 .5.1.7zm-46-107.4c.8 3.4 1.6 6.7 2.4 10.1.9 3.9 1.8 7.8 2.8 11.6.3 1.1 0 1.5-1.1 1.7-3.6.8-2.9 1-3.8-2.3-1.6-6.3-3-12.7-4.6-19.1-.1-.3-.2-.6-.3-1-2.4.6-4.8 1.1-7.2 1.7-1 .3-1.5.1-1.7-.9-.7-3.1-1-2.7 2-3.4l17.4-4.2c1.2-.3 1.9-.1 2 1.2 0 .3.1.6.2 1 .4 1.1.1 1.7-1.2 1.9-2.2.4-4.5 1.1-6.9 1.7z"/>
    <path class="color-gray color-reserved-white" fill="#28345d" d="M259.1 253.1c1.6-.5 2.2.3 2.7 1.7 2.5 6.5 5.1 12.9 7.7 19.4.6 1.5.5 1.6-1 1.6-2.6 0-2.6 0-3.5-2.4-.4-1.1-.8-2.3-1.3-3.4-.2-.4-.8-.8-1.2-.8-2.3-.1-4.6-.1-6.8 0-.4 0-1 .5-1.1.9-.6 1.4-1.2 2.9-1.6 4.4-.3 1.1-.9 1.3-1.9 1.3-2.6-.1-2.6 0-1.7-2.4 2.4-6.2 4.8-12.4 7.1-18.6.5-1.4 1.1-2.2 2.6-1.7zm3.2 12.8c-1-2.8-2-5.5-3.1-8.4-1.1 2.9-2 5.6-3.1 8.4h6.2zm101.4 9.8c-1.3.4-1.8-.4-2.2-1.7-.4-1.3-1-2.6-1.4-3.9-.2-.7-.6-1-1.4-1-2.2.1-4.5 0-6.7.1-.4 0-1 .4-1.2.8-.6 1.4-1.2 2.9-1.6 4.4-.3 1-.8 1.4-1.9 1.3-2.7-.1-2.7 0-1.7-2.5 2.4-6.3 4.9-12.6 7.2-19 .4-1 .8-1.5 1.9-1.3h.6c1.6-.3 2.2.4 2.8 1.9 2.4 6.2 4.9 12.4 7.4 18.6.9 2.3.9 2.3-1.8 2.3zm-8.4-18.1c-1 2.9-2 5.5-3 8.3h6.2c-1-2.6-1.9-5-2.8-7.5-.1-.3-.2-.4-.4-.8zm-37.2 162.3v37.7h-4.8v-37.7h4.8zm-81.3-39c1.7-.4 2.7 0 3.7 1.5 2.9 4.6 6.1 9.1 9.4 13.6v-15.1h2.4v19.8c-1.6.4-2.7.1-3.7-1.5-2.7-4.4-5.7-8.6-8.6-12.8-.2-.3-.4-.6-.9-1.2v15.5h-2.4c.1-6.6.1-13.2.1-19.8zm152.8 0v19.7c-2.3.4-2.4.4-3.6-1.4l-8.7-12.9c-.2-.3-.4-.5-.8-1.1v15.6H374V381c1.7-.5 2.7-.1 3.7 1.4 2.5 4 5.3 7.9 8 11.9.4.6.8 1.2 1.5 2.1v-15.5h2.4zm-100.3 10.9c3.3 2.2 4.6 5.8 6.8 8.8-2.7.6-3 .5-4.3-1.6l-3-4.5c-1.2-1.8-2.7-2.7-4.9-2.5-.8.1-1.6 0-2.5 0v8.8h-2.6v-19.6c4 0 8-.2 11.9.1 2.2.1 3.7 2.2 3.9 4.6.2 2.2-1 4.3-3 5.2-.7.2-1.5.4-2.3.7zm-7.9-8.8v6.4c2.5 0 5 .2 7.4 0 2.1-.2 3.1-1.5 3-3.3-.1-1.7-1.2-3-3.3-3.1-2.3-.1-4.7 0-7.1 0zm72.6-2c3.9 0 7.7-.1 11.5 0 2.4.1 4 2 4.3 4.6.3 2.3-.9 4.5-3 5.4-.7.3-1.4.5-2.2.7 3.3 2.2 4.6 5.8 6.9 9h-2.2c-.8.1-1.3-.2-1.7-.9-1-1.7-2.2-3.3-3.2-5-1.3-2.1-3.1-3.3-5.6-3-.6.1-1.3 0-2.1 0v8.8h-2.6c-.1-6.4-.1-13-.1-19.6zm2.6 2v6.7c2.7-.1 5.3-.1 7.9-.4 2.2-.3 3.2-2.6 2.3-4.5-.7-1.3-1.9-1.8-3.2-1.8h-7zM209.9 160.2v12.7h-2.8v-17.8c2.5-.5 2.8-.4 4.1 1.5 2.4 3.6 4.9 7.2 7.5 11.2v-12.9h2.8v17.8c-2.6.5-2.8.4-4.2-1.7-2.1-3.2-4.2-6.3-6.4-9.5-.2-.2-.5-.6-1-1.3zm16-5c3.3 0 6.4-.2 9.5.1 2.5.2 4.1 2 4.9 4.3 1 3 1 6-.1 9-.9 2.5-2.7 4.2-5.4 4.3-2.9.2-5.9 0-8.9 0v-17.7zm3 15.6c2.8-.3 6 .8 7.9-2.1 1.7-2.9 1.8-6.1.1-9-1.9-3.2-5.1-1.9-8-2.2v13.3zm106.4 229.9v-19.8h14.3v2.3h-11.7c0 1.9-.1 3.6.1 5.4 0 .3.7.7 1.1.7 2.8.1 5.6 0 8.4 0h1.4v2.3h-11c0 2.2 0 4.2.1 6.2 0 .2.8.6 1.2.7 3.2.1 6.3 0 9.5 0h1.5v2.2h-14.9zm-79.2-8.7c0-6.6 2.8-10.5 7.3-11.3 7.5-1.5 12.8 4.4 11.5 12.5-1.1 6.8-8.7 10.2-14.4 6.4-3.3-2-4.4-5.1-4.4-7.6zm16.4-1.1c-.1 0-.1 0 0 0-.1-.6-.1-1.2-.2-1.8-.4-3.7-3-6.1-6.5-6.3-3.2-.2-6.1 2-6.7 5.4-.3 1.7-.3 3.5-.1 5.2.4 3.1 3 5.3 6.1 5.5 3.3.2 5.9-1.6 6.8-4.7.3-1.1.4-2.2.6-3.3zm45.3.5v9.3h-2.5v-19.8h2.5v8.1h10.4v-8.1h2.5v19.8h-2.4v-9.3h-10.5zM204.9 172.9c-3.2.4-3.2.4-4.2-2.4-1.1-2.8-1.1-2.8-4.1-2.8-1.2 0-2.7-.4-3.5.2-.8.6-1 2.1-1.4 3.2-.8 2.2-.8 2.2-3.9 1.8.4-1.1.8-2.1 1.2-3.1 1.8-4.6 3.5-9.2 5.2-13.8.3-.8.7-1.2 1.6-1.1 1 .2 2-.5 2.6 1.1 2 5.3 4.2 10.5 6.3 15.8 0 .3.1.7.2 1.1zm-6.2-7.4c-.9-2.3-1.7-4.5-2.5-7-.9 2.5-1.7 4.7-2.5 7h5zm86.7 106.8c3.2 0 6.2.1 9.2 0 1.5-.1 1.6.6 1.7 1.8 0 1.3-.5 1.6-1.7 1.6-3.8-.1-7.6-.1-11.4 0-1.2 0-1.5-.4-1.5-1.5v-19.8c0-1.1.2-1.6 1.4-1.4h1c1.1-.2 1.4.4 1.4 1.4-.2 5.9-.1 11.8-.1 17.9zm20.5 128.4h-2.7v-17.5h-6.4v-2.3h15.6v2.3h-6.5v17.5zm-29.1-136.2v9.9c0 1-.3 1.5-1.3 1.4h-.7c-1.3.2-1.7-.3-1.7-1.7.1-6.5.1-13 0-19.5 0-1.2.3-1.8 1.5-1.6h.7c1.1-.2 1.5.3 1.5 1.5-.1 3.3 0 6.6 0 10zm57.1 43.2c-1-1-1.3-2.2-.7-3.2.5-.8 1.6-1.4 2.6-1.8.8-.3 1.3.5 1.1 1.5-.3 1.2-1.4 2.6-3 3.5zM294 507.9c0 .1-.1.1-.1.2v-.2h.1zm-3.6.5c0 .1 0 .1-.1.2 0-.1 0-.1.1-.2-.1.1 0 0 0 0zm40.2 18.1l.1.1c-.1 0-.1-.1-.1-.1z"/>
    <path class="color-yellow" fill="#fdcf16" d="M285 524.3c.5-1.4.9-2.8 2.9-2.5 0 1.8-1.7 2-2.8 2.7 0-.2 0-.2-.1-.2zm40.7 9.9c.3.7.5 1.4.7 2-.1.1-.2.1-.2.2-.6-.5-1.2-1-2-1.6.5-.2.9-.4 1.5-.6zm-16.1-21.7v.6h-.1c0-.2 0-.4-.1-.5.1-.1.1-.1.2-.1zm12.2-3.2c-.1-.2-.1-.4-.2-.6.2.1.3.2.5.3l-.3.3zm-12.1 4.8c0-.2-.1-.4-.1-.6.1 0 .1 0 .2-.1.1.2.2.3.3.5-.2.1-.3.2-.4.2zm6 21.2l-.1.1c-.1 0-.1-.1-.2-.1l.1-.1c.1.1.1.1.2.1zm-20.9-38.1c.1 0 .2-.1.2-.1v.3c-.1 0-.1-.1-.2-.2zm19.8.2c0-.1-.1-.2-.1-.3h.3c-.1.1-.2.2-.2.3zm-27.4 9.7c.1 0 .2-.1.3-.1-.1.1-.1.2-.2.3 0 0-.1-.1-.1-.2zm34.4 1.6h-.2v-.2c.1.1.2.1.2.2zm-35.7 6.1l.2-.2v.1c-.1.1-.1.1-.2.1zm37.8 2.4c0-.1-.1-.2-.1-.3.1 0 .2.1.3.1 0 .1-.1.1-.2.2z"/>
    <path class="color-yellow" fill="#fdcf16" d="M285.2 524.4c-.1.1-.1.2-.2.3l-.2-.2.3-.3c0 .1 0 .1.1.2zm-.3.3l-.3.3-.2-.2.3-.3.2.2z"/>
    <path class="color-yellow" fill="#fdcf16" d="M284.7 525c-.1 0-.3 0-.4.1.1-.1.2-.2.2-.3 0 .1.1.2.2.2zm36.4 11.9c0-.1-.1-.1-.1-.2h.1c-.1 0-.1.1 0 .2-.1 0 0 0 0 0zm5.5 0v-.1.1zm0 0h.1-.1zm43.8-214.7c0 .2.1.5 0 .7-2.6 8-5 16.1-9 23.6-1.1 1.9-2.4 3.8-3.7 5.5-.7.9-1.7 1.7-2.8 2.3-1.8 1-3 .4-3.2-1.6-.1-1.2 0-2.4.3-3.6 1.1-4.3 3.3-8 6-11.4 4-5.3 8.2-10.4 12.4-15.5zm5.5-19.2c-1.1 4.3-2.8 8-5.5 11.2-.6.7-1.3 1.3-2 1.9-.4.2-1 .4-1.4.2-.3-.2-.6-.9-.5-1.3 1.1-4.9 3.2-9.3 6.8-12.9.4-.4 1.3-.5 1.8-.3.4.1.5.8.8 1.2zm-100 40.1c.5-3.1 1.7-5.9 3.7-8.4.3-.4 1.1-.5 1.6-.7.2.6.6 1.2.5 1.8-.5 2.7-2.3 4.7-4.3 6.5-.5.3-1 .5-1.5.8zm97.2-31c.1-.1.1-.3.2-.4h.1c0 .2-.1.4-.1.6 0-.1-.1-.2-.2-.2zm-9.9.3c0-.1.1-.2.1-.3-.1.2-.1.2-.1.3-.1 0 0 0 0 0zM309.5 336c-.1 0-.2 0-.3.1 0-.1.1-.2.1-.3l.2.2zm60.9-13.8c0-.1.1-.1.1-.2 0 .1 0 .1.1.2h-.2zm-42.3-2.2s.1 0 0 0c.1 0 .1.1.1.1s-.1 0-.1-.1c0 .1 0 0 0 0zm48-4.7c-.1.1-.2.1-.3.2v-.5c.1.2.2.2.3.3zm-100.2 27.8s0 .1-.1.1c0 0 0-.1.1-.1-.1 0 0 0 0 0zm-26.2-10c4.1-3.7 8.2-7.5 12.3-11.3l.3.3c-.4 2-.9 4-1.2 6.1-1.1 6.2-2.3 12.3-4.7 18.1-4.2 10.1-11.6 16.5-22.4 18.6-3.6.7-7.2.8-10.8-.8.2-.4.4-.8.6-1.1l6-8.7c.4-.7.9-.8 1.7-.7 7.4.8 13.1-2.2 17.6-7.7 2.8-3.2 4.2-7.7.6-12.8zm-25.2 15.2c.6 2.3 2.1 3.5 3.9 4.5-2.4 3.4-4.7 6.7-7.1 10.2-.6-.5-1.3-1-1.9-1.7-4.3-4.8-4.9-11.6-1.5-17.3 3.9-6.6 10-10.3 17.4-12 2.8-.7 5.6-.9 8.4 0 1.2.4 2.2 1 3.5 1.6-2.3 2.2-4.4 4.1-6.4 6.1-3.6 3.7-7.2 7.5-10.7 11.3-.6.7-1.2.9-1.9.3-1.2-.9-2.3-1.8-3.7-3z"/>
    <path class="color-yellow" fill="#fdcf16" d="M247.7 335c1.5 2 1.8 4.2 1.3 6.5-1.6 7-10.5 12.5-17.6 10.9 4.8-6.4 10.4-11.9 16.3-17.4zm21.5-20.9c.9-4.7 1.8-9.4 4.5-13.4.8-1.2 2.1-2.3 3.3-3 1.3-.8 2.4 0 2.6 1.5.1.8 0 1.7-.3 2.5-1.9 5.2-5.9 8.9-10.1 12.4zm-6.8 7.8c-.1 0-.1-.1 0 0v-.2.2c0-.1 0-.1 0 0zm-56.6-208.8c3.7 0 7.3-.2 10.9.1 2.7.2 4.2 2.2 4.3 4.8 0 2.6-1.4 4.5-4.1 4.9-1.5.3-3.1.2-4.7.2h-6c-.1 0-.2 0-.4-.1v-9.9zm-.1-6v-8.9c3.6.2 7.1.2 10.5.5 2.1.2 3.2 2 3.2 4.2s-1.2 3.9-3.4 4c-3.3.4-6.8.2-10.3.2zm178.7 1v-9.7c4.2 0 8.4-.2 12.5.1 2.5.1 4.1 2.1 4.1 4.5 0 2.5-1.4 4.4-3.9 4.8-1.6.3-3.2.3-4.8.3h-7.9zm-17.3 2.7c-.3 3.6-.9 6.9-3.4 9.6-2.9 3.2-6.7 4.1-10.8 3.1-4.1-1.1-6.6-4-7.6-8.1-.8-3.3-.7-6.7.2-10 1.2-4.4 4.8-7.4 9.2-7.7 5.1-.3 9.2 2 10.8 6.5.9 2.2 1.1 4.4 1.6 6.6zm-121.7-10.7c1.6 4.3 3.2 8.6 4.8 13h-9.5c1.6-4.4 3.1-8.7 4.7-13zM296.5 442h-12.7c2.1-6 4.2-11.9 6.2-17.5 2.1 5.6 4.2 11.5 6.5 17.5zm-82.7-221.6c-1.1-2.5-2.1-4.8-3.3-7.4 3.1-1.3 6.1-2.7 9.1-3.8 2.1-.8 3.8.1 4.7 1.9.9 1.8.4 3.8-1.5 4.9-2 1.2-4.2 2.1-6.3 3.1-.9.6-1.7.9-2.7 1.3zM395 168.5c-.2 1.2-.4 2.7-.8 4.2-1.2 3.9-4.7 6.2-8.6 5.9-4.1-.4-7.4-3.3-7.8-7.4-.2-2.1-.2-4.3.2-6.3.8-4.4 4.2-7.1 8.3-7 4.3.1 7.6 3 8.4 7.5.1.8.1 1.8.3 3.1zm-31.8 2.4c-.3 7.5-6.4 10.5-11.2 9.1-3.8-1.1-5.7-4-6.3-7.7-.3-1.7-.3-3.5-.1-5.3.4-3.9 3.2-6.7 6.9-7.3 4-.6 7.5 1.2 9 4.9.8 2 1.2 4.2 1.7 6.3zm-107.3 37.2c0 7.4-7.2 11.6-12.8 8.2-4.2-2.6-6-6.8-6-11.4-.1-3.5 2.2-5.9 5.4-7.3 3.2-1.3 6.1-.8 8.7 1.4 2.9 2.6 4.4 6 4.7 9.1zm17-4.1c-2.1-.1-4.6-1.4-6.2-3.8-1.3-2-2.4-4.2-3.1-6.5-1.1-3.6.7-7.1 4-9.1 3.2-1.9 6.9-1.7 9.7.7 2.9 2.4 4.6 5.6 5.1 9.3.7 4.9-3.5 9.4-9.5 9.4zM194 228.9c.6-3.7 1.2-7.2 1.8-10.8 1.9 3.1 3.7 6.2 5.7 9.4-2.6.5-4.9.9-7.5 1.4zm109.5 33.8V256c2.9.1 5.7.2 8.5.5 1.4.2 2.3 1.4 2.3 2.8s-.8 2.7-2.2 2.9c-2.9.3-5.7.4-8.6.5zm-71.4 0v-6.3c2.8 0 5.5-.1 8.2 0 1.5.1 2.4 1.4 2.5 2.8 0 1.4-.7 2.8-2.2 2.9-2.8.4-5.5.5-8.5.6zm107.8 1.5c-.2 1.4-.3 2.5-.6 3.5-.9 3.3-3.7 5.3-6.9 5.1-3.3-.2-6-2.4-6.5-5.7-.3-2-.2-4.2.2-6.2.5-2.8 3-4.6 5.8-4.8 3.3-.2 5.9 1.2 7 3.9.5 1.5.7 3 1 4.2zm32.7 8c0-.2-.1-.4-.1-.6v-15.3c2.5.1 5 .1 7.4.5 1.9.3 3 1.9 3.5 3.6.8 2.8.8 5.7-.2 8.5-.7 2-2.1 3.2-4.2 3.4-2.1 0-4.3-.1-6.4-.1zm-110.3-6.3h-6.2c1-2.8 2-5.4 3.1-8.4 1 2.9 2 5.6 3.1 8.4zm93-8.3c.2.3.3.5.3.7.9 2.5 1.8 4.9 2.8 7.5h-6.2c1.1-2.7 2-5.3 3.1-8.2zM281.4 383c2.5 0 4.8-.1 7.2 0 2.1.1 3.3 1.3 3.3 3.1.1 1.8-1 3.1-3 3.3-2.4.2-4.9 0-7.4 0-.1-2-.1-4.1-.1-6.4zm75.2 0c2.4 0 4.7-.1 7 0 1.3 0 2.6.5 3.2 1.8.9 1.9-.1 4.2-2.3 4.5-2.6.3-5.2.3-7.9.4V383zM228.9 170.8v-13.4c2.8.3 6.1-1 8 2.2 1.7 2.9 1.6 6.2-.1 9-1.9 3-5.1 1.9-7.9 2.2zm43.6 220.1c-.2 1.1-.2 2.2-.6 3.3-.9 3.2-3.5 4.9-6.8 4.7-3.1-.2-5.7-2.4-6.1-5.5-.2-1.7-.2-3.5.1-5.2.6-3.4 3.5-5.6 6.7-5.4 3.5.2 6 2.7 6.5 6.3 0 .6 0 1.2.2 1.8-.1 0-.1 0 0 0zm-73.8-225.4h-5.1c.8-2.3 1.6-4.5 2.5-7 1 2.4 1.8 4.6 2.6 7z"/>
</svg>
