<svg xmlns="http://www.w3.org/2000/svg" viewBox="0 0 612 612">
    <path class="color-black" d="M527.6 486H84.3V126.1h443.3V486zm-425.5-17h407.7V142.9H102.1V469z"/>
    <path fill="#fff" d="M102.1 469V142.9h407.7V469H102.1zm14.5-311.4v269h379.3v-269H116.6zm201.2 300.9c1.6 0 3.1.1 4.7 0 3.1-.1 6-.8 8.4-2.9 2.8-2.6 3.5-5.9 3.3-9.6-.3-5-3.7-8.9-8.6-9.3-4.3-.4-8.6-.3-12.9-.3-.3 0-.6.4-.9.7.3.3.6.7.9.7 1.7.2 1.9.3 2.1 2.1.1 1.4.1 2.8.1 4.1 0 3.8 0 7.5-.1 11.3 0 1.6-.3 1.7-2 2-.3.1-.9.4-.9.7-.1.7.5.8 1 .8 1.6-.3 3.3-.3 4.9-.3zm79.4-10.5c.7-.3 1.3-.5 1.8-.8 2.1-1 3.2-2.8 3.2-5.1s-1.1-4.1-3.2-5c-.9-.4-2.1-.8-3.1-.8-3.4-.2-6.7-.2-10.1-.1-.4 0-1 .3-1.1.7-.2.8.5.8 1.1.8 1.3.1 1.6.3 1.8 1.7.1.5.1 1.1.1 1.6 0 4.7 0 9.4-.1 14.1 0 1.6-.3 1.7-1.9 1.9-.5.1-1.1 0-1.1.8s.6.7 1.1.7h7.7c.6 0 1.3 0 1.1-.8 0-.3-.7-.6-1.1-.7-.9-.2-1.7-.3-1.8-1.4-.1-2.3 0-4.7 0-7.1 1-.3 1.6.1 2.2.9 1.9 2.8 4 5.5 5.9 8.3.3.3.6.7.9.7 1.7.1 3.4.1 5.2 0 .3 0 .5-.5.8-.8-.3-.3-.5-.6-.8-.7-1.6-.2-2.8-.9-3.7-2.2-1.5-2.1-3.2-4.4-4.9-6.7zM293 442.4c.5.6.9 1 1.2 1.4 3.9 4.7 7.8 9.4 11.6 14.1.3.4.7 1.3 1.5.9.3-.2.5-.9.5-1.5v-17.1c0-2.2.1-2.2 2.2-2.6.3-.1.5-.4.8-.7-.3-.3-.5-.7-.8-.7-2.2-.1-4.4-.1-6.6 0-.3 0-.6.4-.9.7.3.3.6.7.9.7 1.8.3 2.1.4 2.2 2.2.1 3.4 0 6.8 0 10.2 0 .3 0 .6-.1 1.1-.4-.4-.6-.7-.9-.9-3.7-4.5-7.3-8.9-11-13.4-.3-.3-.5-.7-.8-.7-1.9-.1-3.9-.1-5.8 0-.2 0-.5.4-.5.7s.3.5.5.7c.1.1.3 0 .5.1 2.1.3 3.1 1.5 3.1 3.4v13.3c0 2.2-.1 2.2-2.2 2.6-.3.1-.5.4-.8.7.3.3.5.7.8.7 2.2.1 4.5.1 6.7 0 .3 0 .5-.4.8-.7-.3-.3-.4-.5-.7-.7-.1-.1-.3 0-.5-.1-1.4-.2-1.7-.3-1.7-1.7v-12.7zm187-6.2h-16.6c-.3 0-.5.4-.8.7.3.3.6.7.9.7 2.2 0 2.2.8 2.2 2.4.1 4.9 0 9.7 0 14.7 0 1.9-.3 2.1-2.2 2.4-.3.1-.6.4-.9.7.3.3.7.7 1 .8 5.2.1 10.4 0 15.6 0 .3 0 .8-.3.9-.6.6-1.6 1.1-3 1.6-4.6.1-.3-.2-.7-.3-1-.3.2-.9.2-1.1.4-.6.7-.9 1.6-1.6 2.2-.5.5-1.3 1.2-2 1.3-2.1.3-4.1.2-6.2.2-.3 0-.9-.5-.9-.8-.1-2.5 0-5.1 0-7.6.2 0 .3-.1.3-.1h3.9c2 0 2.3.3 2.8 2.2.1.5.2 1.1.9.9.3-.1.7-.6.7-.9.1-2.1 0-4.1.1-6.1 0-1-.4-1.3-1.4-1-.1.4-.2.9-.3 1.3-.2.9-.7 1.6-1.6 1.6-1.7.1-3.5 0-5.3 0v-7.3c2.3 0 4.7-.1 6.9.1.6 0 1.2.8 1.6 1.3.3.3.3 1 .5 1.5.1.3.5.5.8.5s.7-.3.7-.6c0-2-.1-3.6-.2-5.3zm-281.2 11.7h4.4c1.8 0 2.2.4 2.5 2.2.1.4.1.9.8.9.8-.1.8-.5.8-1.1V444c0-.9-.3-1.4-1.4-1.1-.1.4-.1.9-.3 1.4-.3.5-.7 1.3-1.1 1.4-1.9.3-3.9.3-5.8.3v-7.7h4.7c2.5.1 3.9-.2 4.4 2.9 0 .2.5.4.8.4s.7-.3.7-.5c0-1.6-.1-3.3-.2-4.9h-16.2c-.4 0-1.1.3-1.1.7-.1.8.5.8 1.1.8 1.5.1 1.7.3 1.8 1.7v15.1c0 2.1-.2 2.2-2.2 2.6-.3.1-.6.5-.9.8.3.3.6.7.9.7h15.7c.3 0 .7-.3.8-.5.6-1.6 1.1-3.1 1.6-4.7.1-.3-.1-.9-.3-.9-.3-.1-.9 0-1 .3-.4.4-.5 1.1-.9 1.5-.8.8-1.6 1.9-2.6 2.1-2.1.3-4.2.3-6.3.2-.3 0-.9-.5-.9-.9.2-2.7.2-5.2.2-7.8zm172-9.6h6.3c1.6 0 2.1.5 2.5 2 .1.3.1.6.3.9.2.3.5.5.8.5s.7-.3.7-.6c0-1.6-.1-3.2-.2-4.9h-15.8c-.3 0-.6-.1-.8 0-.3.2-.5.4-.8.7.3.3.5.7.8.7 2.1 0 2.2.5 2.2 2.4.1 4.9 0 9.7 0 14.7 0 1.9-.3 2.1-2.2 2.4-.3.1-.6.4-.9.7.3.3.7.7 1 .7 5.2.1 10.4 0 15.6 0 .3 0 .8-.3.9-.6.6-1.6 1.1-3 1.6-4.6.1-.3-.2-.6-.3-.9-.3.1-.9.1-1.1.3-.6.7-.9 1.6-1.6 2.2-.6.6-1.3 1.3-2.1 1.4-2.1.3-4.1.2-6.2.2-.3 0-.9-.4-.9-.7-.1-2.6 0-5.2 0-7.8 1.6 0 3.3-.1 4.9 0 1.2.1 1.7.6 2 1.8.1.4.2.9.3 1.2 1.3.1 1.4 0 1.4-1v-5.9c0-1-.4-1.3-1.4-1-.1.4-.2.9-.3 1.3-.2.9-.6 1.5-1.6 1.6-1.8.1-3.6 0-5.4 0 .3-2.8.3-5.2.3-7.7zm-238 20.5c0-1.3.8-1.1 1.7-.9 1.7.6 3.5 1 5.4.9 2.8-.2 5.4-2.1 6.1-4.7.8-2.7-.2-5.3-2.7-6.9-1-.7-2.2-1.3-3.4-2-1.4-.9-2.8-1.7-4.2-2.7-.9-.6-1.6-1.6-1.2-2.8.4-1.3 1.4-2 2.7-2.2 2.4-.3 4.7 1.1 5.5 3.4.3.8.4 1.6.6 2.4 1 .3 1.5-.2 1.4-1.2V436c0-.3-.3-.7-.6-.9-.2-.1-.8.1-.9.3-.3 1.4-1.1.9-1.9.5-.5-.2-.9-.3-1.5-.5-2.7-.7-5.2-.3-7.2 1.6-2.8 2.7-2.2 6.7 1.1 9.1 1.6 1.1 3.4 2.1 5.1 3.1.9.5 1.8 1 2.5 1.8 1.7 1.7 1.1 4.1-1.2 5-2.8.9-6.1-.6-7-3.4-.3-.8-.4-1.6-.6-2.4-1.2-.1-1.4 0-1.4 1.1v5.9c.3 1.6.7 1.9 1.7 1.6zm225.8-15c1.4.1 1.4.1 1.5-1.2v-2.2c0-1.3.1-2.5 0-3.8 0-.3-.3-.7-.7-.9-.1-.1-.5.3-.9.5-.3.2-.8.5-1.1.4-.7-.1-1.3-.5-2-.7-3.7-1-7.2.3-8.5 3.4-1.3 2.9-.2 5.9 3.3 8 1.5.9 3 1.7 4.5 2.7.8.5 1.6 1 2.3 1.7 1.6 1.7.9 4.1-1.3 4.9-2.8.9-6.1-.6-7-3.4-.3-.8-.4-1.6-.7-2.4-1-.3-1.4.1-1.4 1.1v5.9c0 1 .4 1.3 1.5 1 0-1.3.8-1.1 1.7-.9 1.7.6 3.5 1 5.4.9 2.8-.2 5.4-2.1 6.1-4.7.8-2.7-.2-5.3-2.7-6.9-1.3-.9-2.6-1.6-3.9-2.3-1.3-.8-2.7-1.6-3.9-2.6-1.6-1.2-1.3-3.1.3-4.1 1.3-.9 2.7-.7 4.1-.2 2.3 1.3 3 3.3 3.4 5.8zm-84.2-8.1c-1.8 4.2-3.7 8.4-5.5 12.7-1 2.3-2 4.7-3.2 7-.3.6-1 1.1-1.7 1.6-.4.3-1.1.2-.9.9.2.3.7.7 1.1.7 1.7.1 3.4 0 5.2 0 .5 0 1.1.1 1.2-.8.1-.9-.5-.8-1.1-.9-1.3-.2-1.6-.6-1.1-1.7s.9-2.2 1.4-3.3c.1-.3.5-.5.8-.5 2.2-.1 4.4 0 6.6 0 .3 0 .7.2.8.4.5 1.2 1 2.3 1.5 3.6.3 1 0 1.5-1 1.6-.5.1-1 .1-.9.9.1.8.6.7 1.1.7h7.1c1.1 0 1.3-.2 1-1.4-2.2-.5-2.4-.7-3.4-2.9-1.5-3.5-2.9-7.2-4.4-10.7-1-2.6-2.2-5.3-3.2-7.8-.7-.1-1.1-.1-1.4-.1zm-113.4 0c-.9-.3-1.4.1-1.7.9-1.3 3-2.6 6.1-4 9.1-1.3 2.9-2.5 5.9-3.9 8.8-.5 1-.9 2.2-2.3 2.4-.3.1-.5.5-.8.8.3.3.6.7.9.7 2 .1 3.9.1 5.9 0 .3 0 .6-.5.8-.8.1-.2-.4-.5-.7-.7-.3-.2-.8-.1-1-.3-.3-.3-.6-.8-.5-1 .5-1.5.9-3.1 1.9-4.1.5-.6 2.1-.2 3.2-.2h.8c1.2 0 2.8-.3 3.5.3.9.7 1.1 2.2 1.6 3.4.5 1.4.3 1.6-1.1 2-.3.1-.8.5-.7.7.1.3.4.9.7.9 2.6.1 5.3.1 7.8 0 .3 0 .7-.4.7-.8 0-.3-.3-.7-.6-.7-1.1-.1-1.8-.7-2.3-1.6l-.9-1.8c-2.4-6.1-4.9-12-7.3-18zm24.7 15.2c1.1.3 1.5-.1 1.5-1.1-.1-1.9-.1-3.8 0-5.7 0-1-.3-1.5-1.4-1.1-.1.4-.2.9-.3 1.3-.2.7-.5 1.4-1.3 1.5-1.4.1-2.8.2-4.2.2v-7.7h4.2c2.1 0 3.7.7 4.1 2.9.1.3.6.5.9.5.2 0 .6-.4.6-.7 0-1.6-.2-3.1-.3-4.7-.2 0-.3-.1-.4-.1h-15.2c-.3 0-.7.4-.9.7.3.3.7.7 1 .7 1.6.2 1.9.4 1.9 2 .1 3.4.1 7 .1 10.4 0 1.8-.1 3.5-.1 5.3 0 1.1-.5 1.6-1.6 1.6-.3 0-.5-.1-.7.1-.3.2-.6.5-.6.7 0 .3.4.7.6.7 2.8.1 5.7.1 8.5 0 .3 0 .6-.4.7-.8 0-.2-.4-.5-.7-.7-.3-.2-.8 0-1-.2-.4-.3-1.1-.7-1.1-1-.1-2.6-.1-5.2-.1-7.8h4.1c.9 0 1.5.7 1.6 1.6.1.5.1.9.1 1.4zm59.6-4.1c-1.6-2.6-3.2-5-4.7-7.5-.5-.8-.3-1.3.7-1.6.3-.1.6 0 .8-.1.3-.2.5-.5.8-.8-.3-.3-.5-.7-.9-.7-2.8-.1-5.6-.1-8.4 0-.3 0-.8.4-.7.6 0 .3.3.8.6.9 1.2.3 2.1.9 2.7 2 1.4 2.1 2.6 4.2 4.1 6.2 1.9 2.5 2.7 5.1 2.4 8.2-.3 2.4-.1 2.4-2.4 3-.3.1-.6.5-.6.7 0 .3.4.7.6.7 2.8.1 5.7.1 8.5 0 .3 0 .5-.5.8-.8-.3-.3-.4-.5-.8-.7-.3-.1-.6-.1-.9-.1-.8-.1-1.3-.4-1.3-1.2-.1-2.2-.1-4.3-.1-6.6 0-.2.1-.3.2-.5 2-3 3.9-6.1 5.9-9.1.7-1 1.6-1.7 2.9-2 .3-.1.6-.5.7-.8 0-.2-.4-.6-.7-.6-2.2-.1-4.5-.1-6.7 0-.3 0-.8.4-.7.6.1.3.3.8.6.9 1.6.5 1.8.9.9 2.3-1.4 2.4-2.8 4.6-4.3 7zm158.7-9.2c1.8-.1 2.7.9 3.3 2.4 2.5 5.9 5.2 11.9 7.8 17.8.3.5.3 1.3 1.1 1 .4-.2.9-.6 1-1 2.3-5.7 4.7-11.4 7-17.1.6-1.6 1.4-3.1 3.3-3.3.1-1.3 0-1.4-1.1-1.4h-5.1c-1.2 0-1.3.2-1 1.4 2.2.4 2.4.7 1.6 2.8-.8 2.2-1.7 4.2-2.6 6.4-.8 1.8-1.5 3.6-2.3 5.7-1.8-4.2-3.5-8.1-5.3-12.1-.9-2.2-.7-2.5 1.6-2.8.1 0 .1-.1.2-.1.3-.9-.2-1.4-1.1-1.3h-7.3c-1 .2-1.3.5-1.1 1.6zm56-2.2c-.6.3-1.3.4-1.5.9-.4.9-.9 1-1.7.6-2.3-1.2-4.8-1.5-7.4-.9-5.9 1.5-9.6 7.5-8.4 14.1 1 5.9 5.8 9.5 12 8.9 3.9-.3 6.4-2.7 8.2-6-.4-.3-.8-.5-1.1-.7-.9.9-1.6 1.9-2.3 2.7-3.5 3.4-9.8 2.1-11.6-2.6-1.3-3.6-1.1-7.2.3-10.8 1-2.5 3.1-3.8 5.9-3.9 2.8-.1 4.7 1.2 5.9 3.6.3.6.5 1.3.9 1.9.2.3.5.4.8.6.2-.3.6-.6.6-.9-.2-2.3-.5-4.7-.6-7.5zM214.1 442c.6-3.4 2.4-4.5 6-3.4v16.7c0 1.3-.4 1.6-1.8 1.7-.5.1-1.2-.1-1.2.8s.8.8 1.4.8h7.4c.6 0 1.3 0 1.1-.8 0-.3-.7-.6-1.1-.7-1.5-.3-1.6-.3-1.8-1.8-.1-.4-.1-.8-.1-1.2v-14.5c0-.3 0-.7.1-1 4.3-.4 5.2 0 6.3 3.9.4-.3 1.1-.5 1.1-.8.1-1.7-.1-3.5-.1-5.3h-17.8c-.3 0-.6.5-.7.9-.1 1.2-.1 2.5-.2 3.8 0 .8.3 1 1.4.9zm219.9-5.8h-4.1c-.8 0-1.2.6-.8 1.1.2.3.6.3.9.3 1.4.2 1.8.4 1.8 1.8.1 1.6.1 3.1.1 4.7 0 3.6 0 7.3-.1 10.9-.1 1.6-.3 1.8-1.9 2-.5.1-1.2.1-1 .8.1.3.7.7 1.1.7 2.5.1 5 0 7.5 0 .5 0 1.2.1 1.3-.7.1-.8-.6-.8-1.2-.8-1.4-.2-1.8-.5-1.8-1.8 0-5.2-.1-10.3 0-15.5 0-1.6.4-1.8 2-2.1.3 0 .7-.4 1-.7-.3-.3-.7-.7-1-.7-1.2-.1-2.5 0-3.8 0zm-306.9 2.9c0-2.6-.7-3.4-2.1-3.4s-2.2.9-2 2.7c.3 2.3.7 4.6 1.1 6.9 0 .3.5.5.8.5.3 0 .9-.3.9-.4.6-2.4 1.1-4.7 1.3-6.3zm367.8 0c0-2.6-.7-3.4-2.1-3.4-1.3 0-2.2.9-1.9 2.6.3 2.3.7 4.7 1.1 7 0 .3.5.5.8.5.3 0 .9-.3.9-.5.5-2.3.8-4.6 1.2-6.2zm-7.2 6.6c.4-2.2.8-4.5 1.2-6.8.2-1 .3-2.2-.8-2.8-.6-.3-1.6-.3-2.2-.1-1.1.4-1 1.6-.9 2.6.3 2.1.8 4.1 1 6.1.3 1.1.8 1.2 1.7 1zm-367.6 0c.4-2.2.8-4.5 1.2-6.8.2-1 .3-2.1-.8-2.8-.7-.5-1.6-.6-2.3-.1-1 .6-1 1.7-.9 2.7.3 2.1.8 4.1 1 6.1.2 1 .7 1.1 1.8.9z"/>
    <path class="color-black" d="M116.6 157.6h379.3v269H116.6v-269zm351.5 185.1v8.1c0 1.5 0 2.8-.1 4.3-.2 1.6-.8 2.1-2.3 2.3-.3.1-.8 0-1.1 0-.9 0-1.6.3-1.6 1.3 0 .9.6 1.3 1.5 1.3h13.9c1.1 0 1.7-.5 1.6-1.4-.1-.9-.7-1.3-1.6-1.3h-.7c-1.9-.1-2.7-.9-2.8-2.8-.1-.5-.1-1-.1-1.6v-23.8c0-.8.1-1.5.1-2.2 0-.9.5-1.5 1.3-1.7.8-.2 1.6-.3 2.4-.3.9-.1 1.3-.4 1.4-1.3 0-.8-.4-1.4-1.3-1.4h-14.5c-.8 0-1.2.4-1.2 1.3s.5 1.3 1.7 1.3c2.6 0 3.4.8 3.4 3.4v10.6h-15c0-3.9-.1-7.8 0-11.6 0-1.6.9-2.3 2.6-2.4h.9c.9.1 1.6-.3 1.6-1.3.1-.9-.5-1.4-1.6-1.4h-14.1c-.8.1-1.2.5-1.2 1.3s.4 1.2 1.2 1.3h1.1c1.6.2 2.8.6 2.8 2.5 0 .5.1 1 .1 1.6v24.1c0 .8 0 1.6-.3 2.4-.3.6-.8 1.3-1.3 1.6-.5.3-1.3.3-1.9.3-.9 0-1.6.2-1.6 1.3 0 .9.5 1.3 1.6 1.3h13.7c1.1 0 1.6-.4 1.6-1.4 0-1-.7-1.3-1.6-1.3-2.8 0-3.5-.8-3.6-3.5v-10.5c0-.2.1-.4.1-.7 4.9.3 9.8.3 14.9.3zm-198.6-97.4c0-4-.1-7.8 0-11.7 0-1.6.9-2.2 2.4-2.3h1.1c.9 0 1.5-.4 1.5-1.4 0-.9-.6-1.3-1.5-1.3h-14.1c-.9 0-1.5.3-1.5 1.3s.6 1.4 1.5 1.4h.8c1.4.2 2.8.5 2.8 2.6 0 .5.1.9.1 1.5v24.1c0 .8-.1 1.6-.2 2.4-.1.9-.6 1.5-1.4 1.6-.6.2-1.2.3-1.8.3-.9 0-1.6.2-1.7 1.2-.1.9.5 1.4 1.7 1.4h13.9c.9 0 1.3-.4 1.3-1.3s-.4-1.3-1.3-1.3h-1c-1.8-.1-2.7-.9-2.8-2.6-.1-2.7-.1-5.3-.1-8.1v-4h15.1v8.8c0 1.3-.1 2.7-.2 4-.1 1-.7 1.6-1.6 1.7-.6.2-1.2.1-1.9.2-.3 0-.8 0-.9.3-.3.4-.6 1.1-.4 1.4.3.4.9.9 1.4.9 4.5.1 9 0 13.4 0 1.6 0 2.1-.3 2.2-1.3 0-.9-.5-1.2-2.1-1.3-2.1-.1-2.8-.8-3-2.8-.1-.5-.1-.9-.1-1.5v-19.3c0-2.1 0-4.2.1-6.3.1-1.7.9-2.4 2.6-2.5h1c1 0 1.6-.5 1.6-1.4-.1-.9-.6-1.3-1.5-1.3h-14.1c-.3 0-.8.1-.9.3-.3.4-.6 1.2-.4 1.6.3.4.9.8 1.5.8 2.8.1 3.5.8 3.5 3.5v10.4h-15zm-60.9-52.4c.3-.3.6-.4.9-.6 4.8-3.4 5.3-10.1.9-14.1-2.4-2.2-5.5-3.2-8.7-3.4-4.2-.2-8.4-.2-12.6-.3h-6.6c-.9 0-1.4.4-1.4 1.3s.5 1.3 1.5 1.3h1.2c1.5.1 2.2.8 2.3 2.2.1.8.2 1.6.2 2.3V205c0 .5 0 .9-.1 1.5-.3 2.3-.9 2.9-3.4 2.9-1.3 0-1.8.3-1.7 1.3.1 1 .8 1.3 1.7 1.3 5.5 0 11 .1 16.5-.1 2.8-.1 5.7-.3 8.4-1.1 5.4-1.6 8.4-7.2 6.9-12.2-.8-2.8-3-4.6-6-5.7zm103.3 147.8c.3-.2.5-.3.8-.5 4-2.8 5.2-7.6 2.8-11.8-1.7-3-4.5-4.7-7.8-5.2-3.2-.5-6.4-.6-9.6-.7-4.1-.1-8.2 0-12.3 0-.9 0-1.5.4-1.5 1.3s.5 1.4 1.4 1.3h1.1c1.6.1 2.2.7 2.5 2.2.1.7.2 1.5.2 2.2v23.6c0 .4 0 .8-.1 1.2-.3 2.5-.9 3.1-3.4 3.1-1.1 0-1.6.4-1.6 1.3s.5 1.3 1.6 1.3c3.5 0 7 .1 10.5 0 3.8-.1 7.7-.1 11.5-.4 3.4-.3 6.4-1.7 8.4-4.7 3.1-4.6 2.1-10.4-2.4-13.2-.6-.3-1.3-.7-2.1-1zm88.1 16.8c-3.2-.2-5.8-1.3-7.6-3.9-2.8-3.7-5.5-7.5-8.3-11.3v-.1c1.2-.6 2.4-1 3.5-1.6 5.4-3.3 6.2-10.4 1.7-14.8-2.2-2.2-5-3-7.9-3.1-4.8-.2-9.7-.2-14.5-.3h-3c-.8 0-1.2.4-1.2 1.3s.4 1.3 1.3 1.4h1.3c1.6.1 2.2.7 2.4 2.2.1.7.2 1.5.2 2.2v23.7c0 .5 0 1.1-.1 1.6-.3 1.9-1 2.6-3 2.6h-.8c-.8 0-1.2.4-1.3 1.2-.1.9.4 1.4 1.2 1.4h14.5c.8 0 1.3-.5 1.2-1.4-.1-.8-.5-1.2-1.3-1.2h-1.1c-1.7-.1-2.5-.7-2.6-2.4-.1-3.9 0-7.8 0-11.7 1.5-.3 2.6 0 3.5 1.4 3.4 4.9 6.9 9.7 10.4 14.4.3.4.9.8 1.4.8 2.8.1 5.7 0 8.5 0 .9 0 1.5-.4 1.5-1.4.1-.3.1-.5.1-1zm-221.2-93.8c-3.4-.1-5.9-1.6-7.9-4.3-1.6-2.2-3.3-4.5-4.9-6.7-1-1.4-2-2.8-3-4.1 1-.4 2.1-.8 3-1.3 4.1-2.2 6.2-6.6 4.8-11.1-1.3-4.2-4.5-6.5-8.7-7-3.4-.4-6.8-.4-10.3-.5-2.8-.1-5.8 0-8.6 0-1.1 0-1.6.4-1.6 1.3s.5 1.3 1.6 1.3h.8c1.6.1 2.3.7 2.6 2.2.1.7.2 1.4.2 2.1v23.7c0 .6-.1 1.3-.2 1.9-.3 1.6-.9 2.3-2.6 2.4h-1.1c-.9 0-1.3.4-1.3 1.3s.4 1.3 1.3 1.3h14.4c.9 0 1.3-.5 1.3-1.4 0-.8-.4-1.2-1.2-1.2h-1.2c-1.6-.1-2.4-.7-2.5-2.3-.2-3.9-.1-7.8-.2-11.6 0-.1.1-.1.1-.1 1.7-.5 2.8.1 3.7 1.6 3.4 4.8 6.9 9.6 10.3 14.4.4.6.9.8 1.6.8h7.7c2-.1 2.3-.5 1.9-2.7zm276.3-15.2c.9-.3 1.6-.6 2.4-.9 4.7-2.2 6.8-6.6 5.6-11.4-.9-3.6-4.5-6.8-8.8-7.1-6.4-.3-12.8-.3-19.2-.5-.9 0-1.3.5-1.3 1.3s.4 1.2 1.2 1.3h1.2c1.6.1 2.3.7 2.5 2.3.1.7.2 1.4.2 2.1v23.7c0 .6 0 1.2-.1 1.7-.3 1.8-1 2.5-2.8 2.5h-.9c-.8 0-1.2.4-1.3 1.2-.1.9.4 1.4 1.2 1.4h14.5c.9 0 1.3-.5 1.2-1.4 0-.8-.4-1.2-1.3-1.2h-1.1c-1.7-.1-2.6-.7-2.6-2.3-.2-3.9-.1-7.8-.2-11.6 0-.1.1-.1 0-.1 1.8-.6 2.8.2 3.8 1.6 3.3 4.7 6.7 9.3 10.1 14.1.6.8 1.1 1 2.1 1 2.4-.1 4.9 0 7.3 0 2.1 0 2.3-.3 2-2.5-4.5-.9-5.3-1.2-7.3-3.8-2.8-3.6-5.5-7.5-8.4-11.4zM413.4 213c5.5 0 10.1-2.2 13.6-6.2 4.7-5.3 5.7-11.6 4.4-18.4-1.5-7.3-7.9-13.5-15-14.5-8-1-15.6 2.8-19.1 9.8-2.2 4.2-2.5 8.6-1.9 13.3 1.1 9.2 8.8 16 18 16zm-214.8 54c5.5 0 10.1-2.2 13.7-6.3 4.2-4.8 5.3-10.5 4.6-16.7-.9-7.6-6.6-14.1-13.8-15.8-7.4-1.8-15.3 1.4-19.7 7.9-2.9 4.5-3.5 9.4-2.9 14.7 1.1 9.3 8.8 16.2 18.1 16.2zm233.2 54.6c0 .4 0 .7-.1 1-.2 1.3-.3 1.4-1.6.9-.9-.3-2-.7-2.9-1-5-1.6-10-1.5-14.7.9-6.5 3.3-10 8.8-11.1 15.9-1.3 8 3.2 16.6 10.8 19.7 7.2 3 14.5 2.5 21.6-.8 1.2-.6 1.7-1.3 1.6-2.7-.1-3.9-.1-7.7 0-11.6 0-1.9.7-2.5 2.4-2.6.9 0 1.5-.3 1.6-1.3 0-.9-.5-1.3-1.6-1.3h-12.2c-.9 0-1.6.2-1.6 1.3 0 1 .7 1.3 1.6 1.4 2.3.1 3 .8 3.1 3.1V355c0 .3-.3.9-.7 1-5.8 2.9-12.6 1.1-15.9-4.4-3.8-6.3-4.1-13-1.1-19.7 3.1-6.8 11.6-9.1 17.3-4.8 2.2 1.6 3.4 4 4.3 6.6.3 1 .9 1 1.6.9.7-.2 1.1-.7 1-1.5-.3-2.7-.4-5.3-.7-7.9-.1-1.2-.3-2.3-.3-3.5-.9-.1-1.7-.1-2.4-.1zm-20.5-73c3.1 0 6.1-.1 9.1 0 1.6.1 2.2.9 2.5 2.3.2.9.3 1.9.5 2.8 2.2.2 2.4 0 2.4-2.1v-9.7c0-2.1-.3-2.4-2.5-2.1-.1.5-.2 1-.2 1.6-.3 2.5-1.3 3.4-3.9 3.4H412c-.3 0-.5-.1-.7-.1v-12.4h11.3c1.7 0 2.8 1 3.3 2.7.3 1 .5 2.1.8 3 1.8.3 2.7 0 2.4-2.2-.2-.9-.1-1.8-.1-2.7l-.3-4.5c-.3 0-.5-.1-.8-.1H401c-.2 0-.3-.1-.4 0-.4.4-1 .8-1.1 1.3-.2.8.3 1.2 1.1 1.3.5.1 1 0 1.6 0 1.6.1 2.2.6 2.3 2.2.1.8.1 1.6.1 2.3v20.7c0 1.5-.1 2.9-.1 4.4.1 1.7-.8 2.3-2.7 2.7-.3.1-.6 0-.9 0-.9-.1-1.6.3-1.5 1.3 0 .9.6 1.3 1.5 1.3h26.9c.3 0 .9-.3.9-.6 1-2.8 2-5.6 2.9-8.4.3-.8-.1-1.4-.7-1.6-.6-.2-1.3-.3-1.8.5-.7 1.3-1.5 2.5-2.3 3.6-1 1.4-2.3 2.5-4.1 2.6-3.4.2-6.9.2-10.3.2-.9 0-1.3-.6-1.3-1.5v-4.7c.2-2.2.2-4.9.2-7.5zm-83.4-19.8c-.3 0-.6-.1-.8-.1h-26.9c-.2 0-.3-.1-.4 0-.4.4-1 .8-1.1 1.3-.2.8.3 1.2 1.1 1.3.5.1 1 0 1.6 0 1.6.1 2.2.6 2.3 2.2.1.8.1 1.6.1 2.3v20.6c0 1.6-.1 3-.1 4.6.1 1.7-.7 2.3-2.7 2.7-.3.1-.6 0-.9 0-.9-.1-1.6.3-1.5 1.3 0 .9.6 1.3 1.5 1.3H327c.3 0 .9-.3.9-.7 1-2.8 1.9-5.5 2.8-8.3.3-.8 0-1.4-.6-1.6-.6-.3-1.4-.3-1.9.6-.8 1.5-1.8 2.9-2.8 4.2-1 1.3-2.5 2-4.2 2.1-3 .1-6 .1-9.1.1-1.5 0-1.7-.3-1.7-1.8v-11.7c0-.3.1-.5.1-.6 3 0 6-.1 9 0 1.6.1 2.2.9 2.5 2.3.2.9.3 1.9.5 2.8 2.2.2 2.4 0 2.4-2.1v-9.8c0-2-.3-2.2-2.5-2-.1.5-.2 1-.2 1.6-.3 2.5-1.3 3.4-3.9 3.4H311c-.2 0-.4-.1-.6-.1v-12.4h11.3c1.7 0 2.8 1.1 3.3 2.7.3 1 .5 2.1.8 3.1.4 0 .9.2 1.2 0 .4-.3 1.1-.7 1.1-1 .1-2.7-.1-5.5-.2-8.3zm-104.6-39h.3c0 3.8-.1 7.6 0 11.4.2 5.6 3.7 9.9 9 11.2 1.6.3 3.4.5 5 .6 2.9.1 5.8-.2 8.4-1.5 4.7-2.3 6.6-6.4 6.7-11.4.2-6.1.2-12.2.2-18.4 0-.6 0-1.3.1-1.9.2-1.6 1.2-2.6 2.8-2.6h.9c.9 0 1.3-.5 1.3-1.3 0-.9-.4-1.3-1.3-1.3h-11.6c-.9 0-1.3.5-1.3 1.3 0 .9.5 1.3 1.3 1.3h1.3c1.5.1 2.1.7 2.3 2.2.1.4.2.9.2 1.3-.1 6.6-.1 13.3-.3 19.9-.1 3-1.3 5.4-4 6.9-2.4 1.4-5 1.9-7.8 1.5-3.8-.6-5.8-2.4-6.4-6.1-.3-1.6-.5-3.4-.5-5.1-.1-5.5 0-11 0-16.5 0-.7.1-1.3.2-2 .2-1.3.9-2 2.3-2.2h1.2c.9 0 1.6-.3 1.6-1.3s-.6-1.3-1.5-1.3h-14.1c-.3 0-.8 0-.9.2-.3.4-.7 1.1-.5 1.6s.9.9 1.3.9c3.1-.2 3.7.9 3.8 4v8.6zm103.3 147.8h.3c0 3.8-.1 7.6 0 11.4.2 5.6 3.7 9.9 9 11.2 3.5.9 7.2.9 10.8 0 4.8-1.3 8.2-4.2 9.1-9.4.3-2.2.5-4.3.6-6.5.1-5.2 0-10.4 0-15.6 0-2.8.9-3.7 3.6-3.7.9 0 1.6-.3 1.6-1.3s-.6-1.3-1.6-1.3h-11c-1.1 0-1.6.4-1.6 1.4.1.9.7 1.3 1.6 1.3 2.8 0 3.5.5 3.5 3.4 0 6.7-.1 13.4-.2 20.2-.1 2.7-1.1 5-3.5 6.6-2.6 1.6-5.3 2.2-8.4 1.7-3.6-.5-5.6-2.4-6.3-6-.3-1.7-.5-3.4-.5-5.2-.1-5.5 0-11 0-16.5 0-.7.1-1.3.2-2 .2-1.3.9-2 2.3-2.2h1.2c.9 0 1.6-.3 1.6-1.3s-.6-1.3-1.6-1.3h-14.1c-.3 0-.8 0-.9.2-.3.4-.6 1.1-.5 1.6.2.4.9.9 1.3.9 3.1-.2 3.6.9 3.7 3.9v.8c-.2 2.4-.2 5.1-.2 7.7zM358.5 235v-5.8c0-.8-.4-1.2-1.2-1.3-.7-.1-1.4-.1-1.5.9-.2 1.1-.7 1.3-1.7.9-.4-.2-.9-.3-1.3-.5-3-1.2-6.1-1.7-9.3-.9-5.3 1.3-8.7 6.1-7.9 11.5.5 3.3 2.5 5.5 5.2 7.2 2.3 1.6 4.8 2.8 7.2 4.3 1.7 1 3.4 2.1 4.9 3.3 1.5 1.2 2.2 2.9 1.6 4.9-.5 2-2 3.2-4 3.7-3.9 1-10.1-.7-11.5-6.5-.2-.9-.5-1.7-.6-2.6-.1-.9-.5-1.1-1.4-1-.9.1-1.3.5-1.3 1.4v11.3c0 .9.4 1.3 1.3 1.4.8.1 1.4 0 1.4-1 0-.9.5-1.2 1.5-.9 1.2.4 2.4.7 3.6 1.1 2.8.9 5.7 1.2 8.5.5 4.5-1 7.7-3.7 8.7-8.3 1-4.6-.8-8.2-4.6-10.8-2.2-1.5-4.7-2.7-7-4.1-2.2-1.3-4.2-2.7-6.3-4.1-.9-.7-1.6-1.7-1.6-3 0-2.2 1.6-4.1 4-4.7 3.6-.9 7.8 1.2 9.4 4.7.7 1.5.9 3.1 1.3 4.7.1.3.2.8.4.8 1 .3 2.3 0 2.2-1.5-.1-2 0-3.8 0-5.6zm-80.3 93.7v-5.8c0-.8-.4-1.2-1.2-1.3-.8-.1-1.3-.1-1.5.9-.2 1.1-.7 1.3-1.7.9-.4-.2-.8-.3-1.2-.5-2.6-1-5.3-1.6-8.1-1.2-6.4.7-10.7 6.8-9 12.8.8 2.8 2.7 4.7 5.1 6.2 3.4 2.1 6.7 4 10.1 6 .9.5 1.7 1.2 2.4 2 2.4 2.8 1.5 6.5-2 7.8-4 1.6-10.6-.3-12.1-5.4l-.9-3.6c-.1-.3-.4-.7-.8-.7-1.3-.2-1.8.3-1.8 1.6v10.9c0 .9.3 1.3 1.2 1.4.8.1 1.5.1 1.5-1 0-.9.5-1.2 1.5-.9 1 .3 2.2.6 3.3.9 2.9 1 5.9 1.3 8.8.6 4.5-1 7.7-3.7 8.7-8.4 1-4.6-.9-8.2-4.7-10.8-2.2-1.5-4.7-2.7-7-4.1-2.2-1.3-4.2-2.7-6.3-4.1-.9-.7-1.6-1.7-1.6-3 0-2.2 1.6-4.1 4-4.7 3.6-.9 7.9 1.2 9.5 4.7.6 1.5.9 3 1.3 4.6.1.3.2.8.4.8 1.1.3 2.2-.2 2.2-1.5-.1-1.5-.1-3.3-.1-5.1zm-134.1 14.7c.3 0 .7.1 1 .1 2.2.1 4.5.3 6.7.2 6.4-.6 10.5-6.5 9-12.8-1-4.3-4.1-6.9-8.2-7.8-6.4-1.4-12.9-.5-19.5-.6-.3 0-1 .8-1 1.2 0 .4.6 1 1 1.3.3.2.9 0 1.4.1 1.6.1 2.3.8 2.5 2.3.1.8.1 1.6.1 2.3v23.2c0 .6 0 1.2-.1 1.8-.2 2.1-.9 2.8-3 2.8h-.8c-.8 0-1.2.4-1.3 1.2 0 .9.4 1.4 1.3 1.4h14.5c.9 0 1.3-.5 1.2-1.4 0-.8-.4-1.2-1.3-1.2h-1.2c-1.6-.1-2.4-.7-2.5-2.2.1-4 .2-7.9.2-11.9zm187.1-133.7c-.9-.1-1.6-.2-2.4-.3-1.6-.3-2-.9-1.5-2.4.8-2.2 1.7-4.2 2.6-6.3.1-.3.5-.5.9-.5h11.6c.3 0 .7.2.8.4.9 2.2 1.9 4.6 2.7 6.9.3 1-.1 1.6-1.2 1.9-.8.2-1.5.3-2.2.3-.3 2.2 0 2.5 2.2 2.5h11.4c2 0 2.4-.5 2-2.6-3 .3-4.5-1.7-5.5-4.1-.3-.5-.4-1-.7-1.6-4.1-9.7-8.1-19.5-12.2-29.1-.3-.6-.5-1-1.3-1s-1.1.3-1.5.9c-2.2 5.3-4.5 10.6-6.8 15.9-2.2 5.2-4.6 10.4-6.8 15.6-.9 2.1-2.3 3.4-4.7 3.5-.1 0-.1.1-.2.1-.3 2.1 0 2.4 2 2.4h8.8c1.9 0 2.1-.3 2-2.5zm-59.9-19v-12.5h1c2.4 0 4.8-.1 7.2 0 3.4.2 4.7 1.2 5.8 4.5.2.5.3.9.4 1.4 1.7.3 2.5-.2 2.2-2.1-.1-.7-.1-1.3-.1-2-.1-1.7-.2-3.5-.3-5.3h-27.1c-.8.2-1.3.6-1.1 1.3.1.5.7.9 1.1 1.2.3.2.7 0 1.1 0 1.8.1 3 .9 2.8 2.6-.1.6.1 1.2.1 1.7v21.1c0 1.4 0 2.8-.1 4.2-.1 1.8-.9 2.5-2.8 2.6h-1c-.9 0-1.3.4-1.4 1.3 0 .9.5 1.3 1.3 1.3h14.4c.9 0 1.6-.9 1.3-1.7-.3-.7-.9-.9-1.6-.9-2.7 0-3.4-.8-3.4-3.4v-11.7c2.4 0 4.7-.1 6.9 0 1.6.1 2.5 1.1 2.7 2.8.1.7.1 1.4.1 2.1 1.8.3 2.5 0 2.5-1.1v-11.3c0-.8-.4-1.1-1.2-1.3-.9-.2-1.3.3-1.5 1.2-.3 2.6-1 3.5-3 3.7-1.9.4-4.1.3-6.3.3zm41.3 8.8c2.1.3 2.5 0 2.5-1.9v-10.2c0-.9-.3-1.5-1.3-1.6-1.1-.2-1.3.4-1.3 1.4-.1.6-.3 1.1-.4 1.7-.3.9-.9 1.7-1.9 1.7-2.4.1-4.7 0-7.2 0v-12.4c2.8 0 5.7-.1 8.4 0 1.6 0 3.3.3 4.2 1.8.6.9 1.1 2 1.5 3.1.3.9.7 1.2 1.6 1 .9-.2 1.1-.7 1.1-1.5-.1-2.2-.2-4.3-.3-6.6 0-.5-.1-.9-.2-1.5-.3 0-.3-.1-.4-.1h-26.3c-.2 0-.3-.1-.4 0-.3.4-1 .9-1 1.3s.6.9 1 1.2c.3.2.8 0 1.2 0 1.8.1 2.6.8 2.8 2.6.1.6.1 1.2.1 1.7v23.4c0 .7 0 1.4-.1 2.1-.2 1.7-.8 2.3-2.5 2.5h-1.1c-.9 0-1.5.3-1.5 1.2 0 .9.6 1.4 1.5 1.4h14c.9 0 1.5-.3 1.6-1.2.1-.9-.4-1.4-1.6-1.4-2.8 0-3.6-.8-3.6-3.6v-11.4c2.4 0 4.7-.1 7 0 1.4.1 2.2.9 2.5 2.4.1 1.1 0 2 .1 2.9zm-59.4 56c-.8 1-1.6 2.1-2.3 3-2.2 2.7-4.9 4.4-8.4 4.7-5.9.5-10.8-2.7-12.7-8.2-.9-2.6-1.1-5.3-1-7.9.2-3.8.7-7.5 2.8-10.8 4-6.2 13.4-6.6 17.7-.5 1.1 1.6 1.7 3.4 2.5 5.3.2.4.3.9.9.9 1.1 0 1.6-.5 1.5-1.6-.2-2-.3-4.1-.4-6-.2-2-.3-4.1-.4-6.1h-2.3c-.1.3-.2.7-.3.9-.5 1.6-1 1.7-2.4 1-.2-.1-.3-.2-.5-.3-7.8-3.9-17.8-1.3-22.8 5.9-3.3 4.7-4.3 9.9-3.6 15.6.6 4.4 2.4 8.2 5.6 11.3 4.7 4.5 10.5 5.3 16.7 4.1 5.7-1.3 9.1-5.1 11.7-9.9-1-.5-1.7-1-2.3-1.4zm-39.9 76.9c2.2.3 2.5 0 2.4-2.1 0-.8-.1-1.5-.1-2.2-.1-1.9-.2-3.7-.3-5.6h-30.9c-.2 2.7-.3 5.3-.4 7.8-.1 2 .4 2.4 2.5 2 .1-.4.1-.9.2-1.3.3-2 .9-4 3.1-4.4 2.2-.4 4.4-.3 6.6-.4v27c0 .8-.1 1.5-.2 2.2-.1 1-.7 1.6-1.7 1.9-.5.1-1.1.2-1.6.2-1.1 0-1.6.4-1.6 1.3.1 1 .8 1.3 1.6 1.3h13.9c.9-.1 1.3-.5 1.3-1.4 0-.8-.4-1.2-1.3-1.2h-1c-1.8-.1-2.4-.6-2.7-2.4-.1-.5-.1-1.1-.1-1.6v-27c1.9 0 3.7-.1 5.4 0 2.3.1 3.8 1.5 4.3 3.8.4.6.5 1.3.6 2.1zm24.7-6c2.1 0 4.1-.2 5.9 0 2.1.3 3.4 1.6 3.8 3.6.2.8.3 1.6.4 2.3 2.2.2 2.5-.1 2.4-2.2-.1-2.2-.3-4.5-.3-6.7 0-.3-.1-.7-.1-1h-30.8c-.2 3-.3 6-.3 9 0 .3.3.6.5.8.9.7 2 .2 2.1-.9.3-2.8 1.6-4.7 3.7-4.8 2-.2 4 0 6 0 0 .3.1.6.1.9v26.4c0 .6-.1 1.2-.2 1.9-.1.9-.6 1.5-1.4 1.6-.6.2-1.2.3-1.8.3-.9 0-1.6.2-1.7 1.2-.1.9.5 1.4 1.7 1.4h13.7c.9 0 1.4-.4 1.5-1.3 0-.9-.5-1.3-1.4-1.3h-.8c-1.9-.1-2.5-.6-2.8-2.4-.1-.5-.1-1.1-.1-1.6v-25.7c-.1-.7-.1-1-.1-1.5zm139.8-93.8v26.8c0 .8-.1 1.6-.2 2.3-.1.9-.7 1.6-1.6 1.8-.6.2-1.3.2-2 .3-.3 0-.8 0-.9.3-.3.4-.6 1.1-.4 1.4.3.4.9.9 1.4.9 4.4.1 8.8 0 13.2 0 1.6 0 2.2-.3 2.2-1.3s-.4-1.2-2.1-1.3c-2-.1-2.6-.6-2.8-2.4-.1-.5-.1-1.1-.1-1.6v-26.9c2.1 0 4-.1 5.9 0 2 .2 3.4 1.6 3.9 3.5.2.8.3 1.6.4 2.3 2.2.3 2.5 0 2.4-2-.1-2-.2-3.9-.3-5.9 0-.7-.2-1.4-.2-2h-30.7c-.1.2-.1.3-.1.5-.2 2.6-.3 5.3-.3 7.8-.1.9.3 1.6 1.3 1.6 1.2.2 1.3-.4 1.4-1.4.3-3.1 2-4.7 5-4.7h4.6zm12.2-31.9c-.8 1.5-1.5 2.9-2.3 4.3-1.2 1.9-2.8 3.1-5.2 3.2-2.9.1-5.9.2-8.7.2-2 0-2.4-.4-2.4-2.4v-24.9c0-2.6.9-3.5 3.4-3.6h1c.9 0 1.6-.3 1.6-1.3 0-.9-.6-1.3-1.5-1.3h-14.8c-.9 0-1.6.3-1.6 1.3 0 .9.6 1.4 1.6 1.3h1c1.6.1 2.3.8 2.5 2.3.1.7.1 1.5.1 2.2v23.4c0 .8-.1 1.5-.2 2.2-.1 1-.7 1.7-1.7 1.9-.6.1-1.2.2-1.7.2-.9 0-1.6.3-1.6 1.2-.1.9.5 1.4 1.6 1.4h26.7c.8 0 1-.3 1.2-.9.9-2.7 1.7-5.4 2.6-8.1.6-2.1.3-2.5-1.6-2.6zM172.7 322.5c-2.3 0-4.7-.1-7.1.1-.5 0-1.1.5-1.4.9-.2.3.2 1.1.6 1.4.3.3.9.2 1.5.3 2.1.1 2.8.8 3 2.8.1.5.1 1 .1 1.6v21c0 1.5 0 2.9-.1 4.4-.2 1.9-.9 2.6-2.8 2.7h-.9c-.9 0-1.3.4-1.4 1.3 0 .9.4 1.3 1.3 1.3h14.4c.9 0 1.5-.7 1.3-1.6-.2-1-.9-1-1.7-1-2.5 0-3.4-.8-3.4-3.3v-25.2c0-.6.1-1.2.2-1.7.3-1.3.9-1.9 2.2-2.1h1.2c.9 0 1.6-.3 1.6-1.3s-.6-1.3-1.5-1.3c-2.4-.3-4.7-.3-7.1-.3zm150.9-17.4h5c5.7-.3 9.5-3.6 10.3-9.2.8-5.3-1.8-11.6-9.3-12-3.6-.2-7.3-.2-10.9-.3-.6 0-1.2 0-1.2.8s.6.8 1.2.8c1 0 1.6.4 1.6 1.6 0 2 .1 3.9.1 5.9 0 3.1 0 6.2-.1 9.3 0 1.5-.3 1.6-1.7 1.7-.4.1-1 .4-1.1.7-.1.7.5.8 1 .7h5.1zm-32.8 83.4c.9-.3 1.5.1 2.1.9 1.9 2.7 3.8 5.3 5.8 7.9.3.3.8.6 1.1.6 1.6.1 3 .1 4.6 0 .3 0 .9-.4.9-.7.3-.7-.3-.6-.9-.8-1-.4-2.2-.8-2.9-1.6-1.9-2.2-3.5-4.6-5.3-7 .6-.3 1-.4 1.5-.6 1.5-.7 2.6-1.8 3.1-3.4 1-3.4-1.3-6.8-5.1-7.2-3.4-.3-6.8-.2-10.2-.3-.6 0-1.4-.2-1.5.8 0 .9.8.8 1.3.8.9 0 1.5.4 1.5 1.4 0 .3.1.8.1 1.1v13.5c0 2-.3 2.3-1.8 2.5-.4.1-.8.5-1.1.8.3.3.8.7 1.1.7 2.4.1 4.9 0 7.3 0 .5 0 1.2.2 1.2-.7 0-.8-.6-.8-1.2-.8-1 0-1.6-.4-1.6-1.5-.1-2.1 0-4.2 0-6.4zm8.7-98.5c.3.3.5.5.7.8 2 2.4 4 4.8 5.9 7.2 1.9 2.3 3.8 4.7 5.8 7 .3.3.8.5 1.1.4.3 0 .4-.6.5-.9.1-.3 0-.5 0-.8v-16c0-1.8.1-2.4 2.1-2.5.3 0 .6-.5.9-.8-.3-.3-.6-.7-.9-.7-2.1-.1-4.1-.1-6.2 0-.3 0-.7.4-.9.7.3.3.7.7 1 .7 1.6.2 1.9.4 1.9 2.1v9.7c0 .3 0 .6-.1 1.1-.3-.3-.5-.5-.7-.8-3.5-4.3-7.1-8.5-10.5-12.8-.4-.5-.9-.8-1.5-.7-1.4.1-2.8 0-4.1 0-.5 0-1.2-.1-1.3.7-.1.8.6.8 1.1.9 1.8.3 2.8 1.5 2.8 3.2V302c0 1.3-.3 1.6-1.6 1.7-.3 0-.5-.1-.6.1-.3.3-.5.5-.5.9 0 .2.4.6.6.6 2.2.1 4.5.1 6.7 0 .3 0 .7-.4.7-.7 0-.3-.3-.6-.6-.8-.3-.1-.6-.1-.9-.1-.9 0-1.3-.5-1.3-1.3-.1-4.2-.1-8.1-.1-12.4zm-6.3 13.7c-1.8.2-2.7-1-3.2-2.5l-.3-.6c-2.2-5.5-4.6-10.9-6.8-16.5-.2-.3-.6-.9-.9-.9-.3.1-.9.4-1 .9-2.5 5.6-4.9 11.2-7.3 16.8-.6 1.4-1.2 2.8-3 2.8-.2 1.3-.1 1.5 1 1.5h5.1c1 0 1.3-.4 1-1.4-.3 0-.6-.1-.9-.1-1.4-.2-1.6-.5-1.1-1.8.4-1 .9-2.1 1.3-3 .1-.2.4-.4.6-.5h6.9c.4.9.8 1.9 1.1 2.8.9 2.2.8 2.3-1.4 2.8-.2 1.3-.1 1.4 1 1.4h6.6c1.2-.3 1.6-.6 1.3-1.7zm22.5 82.9c-1.6-2.3-2.9-4.5-4.3-6.7-.8-1.2-.4-1.6.9-1.9.3-.1.6-.5.9-.8-.3-.3-.6-.7-.9-.7-2.6-.1-5.2-.1-7.8 0-.3 0-.7.4-.9.7.3.3.4.7.7.8 1.1.3 1.9.9 2.5 1.9 1.9 2.9 3.9 5.9 5.7 8.8.2.3.3.8.3 1.1v4.9c0 1.4-.3 1.6-1.8 1.8-.4.1-1 .4-1 .8-.1.7.5.7 1.1.7h7.4c.5 0 1.1.1 1.1-.7 0-.8-.6-.7-1.1-.9-.5-.2-1.5-.4-1.5-.8-.2-2.2-.2-4.5-.2-6.7 0-.1.1-.2.2-.3 1.8-2.9 3.7-5.8 5.5-8.7.7-1 1.6-1.7 2.8-2.1.3-.1.6-.5.9-.8-.3-.3-.7-.7-1-.7-2.1-.1-4.1-.1-6.1 0-.3 0-.7.4-1 .7.3.3.6.7.9.8 1 .3 1.4.9.9 1.8-1.3 2.4-2.7 4.7-4.2 7zm9.2 9.7c0 1.2.9 2.2 2.2 2.2 1.1 0 2.1-.9 2.2-2.2 0-1.2-.9-2.2-2.2-2.2s-2.2 1-2.2 2.2zm-7.1 62.2h-5c-.5 0-1.2 0-1-.8 0-.3.6-.7.9-.7 1.6-.3 1.9-.3 2-2 .1-3.8.1-7.5.1-11.3 0-1.4 0-2.8-.1-4.1-.2-1.8-.3-1.8-2.1-2.1-.3 0-.6-.4-.9-.7.3-.3.6-.7.9-.7 4.3.1 8.6-.1 12.9.3 4.9.5 8.3 4.4 8.6 9.3.3 3.6-.5 7-3.3 9.6-2.3 2.2-5.3 2.8-8.4 2.9-1.5.3-3 .3-4.6.3zm.9-19.8v16.6c0 .3.3.9.5 1 3 .7 5.9.3 8.2-2.1 1.9-2 2.4-4.5 2.4-7.2-.3-6.3-4.8-9.9-11.1-8.3zm78.5 9.3c1.7 2.3 3.4 4.6 5.1 6.8.9 1.2 2.2 2 3.7 2.2.3 0 .5.4.8.7-.3.3-.5.8-.8.8-1.7.1-3.4.1-5.2 0-.3 0-.7-.4-.9-.7-2-2.8-4.1-5.4-5.9-8.3-.6-.9-1.2-1.2-2.2-.9v7.1c0 1.1.9 1.3 1.8 1.4.4.1 1 .4 1.1.7.1.8-.6.8-1.1.8h-7.7c-.5 0-1.1 0-1.1-.7 0-.8.5-.7 1.1-.8 1.5-.2 1.8-.3 1.9-1.9.1-4.7.1-9.4.1-14.1 0-.5 0-1.1-.1-1.6-.2-1.4-.4-1.6-1.8-1.7-.6 0-1.3 0-1.1-.8.1-.3.7-.7 1.1-.7 3.4 0 6.7 0 10.1.1 1 0 2.2.3 3.1.8 2.1.9 3.2 2.7 3.2 5s-1.1 4-3.2 5.1c-.7.2-1.3.3-2 .7zm-5.6-1.5c2.5.3 4.7-.6 5.6-2.2.8-1.4.6-3.4-.3-4.6-1.1-1.4-3.1-1.8-5.2-1.1-.1 2.6-.1 5.2-.1 7.9zm-98.6-4.1v12.8c0 1.4.3 1.6 1.7 1.7.2 0 .4-.1.5.1.3.2.5.4.7.7-.3.3-.5.7-.8.7-2.2.1-4.5.1-6.7 0-.3 0-.5-.4-.8-.7.3-.3.5-.7.8-.7 2.2-.4 2.2-.4 2.2-2.6v-13.3c0-2-1.1-3.2-3.1-3.4-.2 0-.4 0-.5-.1-.3-.2-.5-.5-.5-.7 0-.3.3-.7.5-.7 1.9-.1 3.9-.1 5.8 0 .3 0 .6.4.8.7 3.7 4.4 7.3 8.9 11 13.4.3.3.4.5.9.9 0-.5.1-.9.1-1.1v-10.2c0-1.8-.3-2-2.2-2.2-.3 0-.6-.4-.9-.7.3-.3.6-.7.9-.7 2.2-.1 4.4-.1 6.6 0 .3 0 .5.4.8.7-.3.3-.5.7-.8.7-2.1.3-2.2.4-2.2 2.6v17.1c0 .5-.2 1.3-.5 1.5-.7.4-1-.3-1.5-.9-3.9-4.7-7.8-9.4-11.6-14.1-.4-.5-.7-.9-1.2-1.5zm187-6.2c.1 1.6.2 3.3.2 4.9 0 .2-.4.6-.7.6s-.6-.3-.8-.5c-.3-.4-.2-1.1-.5-1.5-.4-.5-1-1.2-1.6-1.3-2.2-.2-4.6-.1-6.9-.1v7.3h5.3c.9 0 1.5-.7 1.6-1.6.1-.4.2-.9.3-1.3.9-.3 1.4.1 1.4 1 0 2.1 0 4.1-.1 6.1 0 .3-.3.9-.7.9-.7.3-.8-.3-.9-.9-.3-1.9-.8-2.2-2.8-2.2h-3.9c-.1 0-.2.1-.3.1v7.6c0 .3.6.8.9.8 2.1 0 4.1 0 6.2-.2.7-.1 1.5-.7 2-1.3.6-.6.9-1.5 1.6-2.2.3-.3.7-.3 1.1-.4.1.3.3.7.3 1-.4 1.6-1 3.1-1.6 4.6-.1.3-.6.6-.9.6h-15.6c-.3 0-.7-.5-1-.8.3-.3.6-.6.9-.7 1.9-.3 2.1-.4 2.2-2.4 0-4.9.1-9.7 0-14.7 0-1.6 0-2.4-2.2-2.4-.3 0-.6-.4-.9-.7.3-.3.5-.7.8-.7 5.6.4 11 .4 16.6.4zm-281.2 11.7v7.6c0 .3.6.9.9.9 2.1 0 4.2.2 6.3-.2.9-.2 1.8-1.3 2.6-2.1.4-.4.5-1 .9-1.5.2-.3.7-.3 1-.3.2 0 .3.6.3.9-.5 1.6-1 3.2-1.6 4.7-.1.3-.5.5-.8.5h-15.7c-.3 0-.6-.4-.9-.7.3-.3.5-.7.9-.8 2.1-.3 2.2-.4 2.2-2.6v-15.1c-.2-1.5-.4-1.7-1.8-1.7-.6 0-1.2 0-1.1-.8.1-.3.8-.7 1.1-.7 5.3-.1 10.6 0 16.2 0 .1 1.7.2 3.3.2 4.9 0 .2-.4.5-.7.5-.3 0-.8-.3-.8-.4-.5-3.1-1.8-2.9-4.4-2.9h-4.7v7.7c2-.1 3.9-.1 5.8-.3.4-.1.9-.9 1.1-1.4.2-.4.2-.9.3-1.4 1-.3 1.4.2 1.4 1.1v5.9c0 .5 0 1-.8 1.1s-.7-.5-.8-.9c-.3-1.8-.8-2.2-2.5-2.2-1.5.1-3 .2-4.6.2zm172-9.6v7.4h5.4c.9 0 1.3-.7 1.6-1.6.1-.4.2-.9.3-1.3.9-.3 1.4 0 1.4 1v5.9c0 1.1-.1 1.1-1.4 1l-.3-1.2c-.3-1.2-.8-1.8-2-1.8-1.6-.1-3.3 0-4.9 0v7.8c0 .3.6.7.9.7 2.1 0 4.1.1 6.2-.2.8-.1 1.5-.8 2.1-1.4s.9-1.5 1.6-2.2c.2-.3.8-.3 1.1-.3.1.3.3.7.3.9-.5 1.6-1 3.1-1.6 4.6-.1.3-.5.6-.9.6H365c-.3 0-.7-.4-1-.7.3-.3.6-.7.9-.7 1.9-.3 2.2-.4 2.2-2.4 0-4.9.1-9.7 0-14.7 0-1.9-.2-2.5-2.2-2.4-.3 0-.5-.4-.8-.7.3-.3.5-.5.8-.7.2-.1.5 0 .8 0h15.8c.1 1.6.2 3.3.2 4.9 0 .2-.4.6-.7.6s-.6-.3-.8-.5c-.2-.2-.2-.6-.3-.9-.4-1.5-.9-2-2.5-2-2.4.2-4.4.3-6.6.3zm-238 20.5c-1 .3-1.5 0-1.5-1v-5.9c0-1.1.2-1.2 1.4-1.1.2.8.3 1.6.6 2.4.9 2.8 4.3 4.4 7 3.4 2.2-.8 2.8-3.3 1.2-5-.7-.7-1.6-1.2-2.5-1.8-1.7-1-3.4-2-5.1-3.1-3.4-2.4-3.8-6.5-1.1-9.1 2.1-2 4.5-2.3 7.2-1.6.5.2.9.3 1.5.5.8.3 1.6.8 1.9-.5 0-.2.7-.3.9-.3.3.2.5.6.6.9.1 1.6 0 3 0 4.6v1.5c.1 1-.3 1.5-1.4 1.2-.2-.9-.3-1.6-.6-2.4-.8-2.3-3.1-3.8-5.5-3.4-1.3.2-2.2.9-2.7 2.2-.4 1.2.3 2.1 1.2 2.8l4.2 2.7c1.1.7 2.2 1.3 3.4 2 2.5 1.6 3.4 4.2 2.7 6.9-.8 2.6-3.4 4.5-6.1 4.7-1.9.1-3.6-.3-5.4-.9-1.1-.8-1.9-.9-1.9.3zm225.8-15c-.3-2.4-1-4.6-3.4-5.5-1.4-.5-2.8-.7-4.1.2-1.6 1-1.9 2.9-.3 4.1 1.2.9 2.6 1.7 3.9 2.6 1.3.8 2.7 1.5 3.9 2.3 2.5 1.6 3.4 4.2 2.7 6.9-.8 2.6-3.4 4.5-6.1 4.7-1.9.1-3.6-.3-5.4-.9-.9-.3-1.6-.4-1.7.9-1 .3-1.5 0-1.5-1v-5.9c0-1 .3-1.4 1.4-1.1.2.8.3 1.6.7 2.4.9 2.8 4.2 4.4 7 3.4 2.2-.8 2.8-3.2 1.3-4.9-.7-.7-1.5-1.2-2.3-1.7-1.5-.9-3-1.7-4.5-2.7-3.4-2.2-4.6-5.1-3.3-8 1.4-3 4.9-4.5 8.5-3.4.7.2 1.3.6 2 .7.3.1.8-.3 1.1-.4.3-.2.7-.6.9-.5.3.2.7.6.7.9.1 1.3 0 2.5 0 3.8v2.2c-.1.9-.2 1-1.5.9zm-84.2-8.1h1.3c1 2.6 2.2 5.2 3.2 7.8 1.5 3.5 2.9 7.2 4.4 10.7.9 2.2 1.2 2.4 3.4 2.9.3 1.2.2 1.4-1 1.4h-7.1c-.5 0-1 0-1.1-.7-.1-.8.4-.8.9-.9 1-.1 1.4-.5 1-1.6-.4-1.2-.9-2.4-1.5-3.6-.1-.3-.5-.4-.8-.4h-6.6c-.3 0-.7.3-.8.5-.5 1-.9 2.2-1.4 3.3-.4 1.2-.2 1.6 1.1 1.7.5.1 1.2-.1 1.1.9-.1.9-.7.8-1.2.8-1.7 0-3.4.1-5.2 0-.4 0-.9-.3-1.1-.7-.3-.7.4-.7.9-.9.7-.3 1.4-.9 1.7-1.6 1.1-2.2 2.2-4.7 3.2-7 1.9-4.1 3.7-8.3 5.6-12.6zm-.4 6.5c-1 2.5-2 4.7-3 7h5.9c-1-2.3-1.9-4.6-2.9-7zm-113-6.5c2.4 5.9 4.8 11.8 7.3 17.8.3.6.5 1.2.9 1.8.4.9 1.2 1.6 2.3 1.6.3 0 .7.5.6.7-.1.3-.4.8-.7.8-2.6.1-5.3.1-7.8 0-.3 0-.6-.5-.7-.9-.1-.2.4-.6.7-.7 1.4-.3 1.6-.6 1.1-2-.4-1.2-.7-2.8-1.6-3.4-.8-.6-2.3-.2-3.5-.3h-.8c-1.1 0-2.7-.3-3.2.2-.9 1.1-1.4 2.8-1.9 4.1-.1.3.3.8.5 1 .3.2.8.1 1 .3.3.2.8.5.7.7-.1.3-.5.8-.8.8-2 .1-3.9.1-5.9 0-.3 0-.6-.4-.9-.7.3-.3.4-.8.8-.8 1.4-.3 1.9-1.4 2.3-2.4 1.3-2.9 2.6-5.9 3.9-8.8 1.3-3 2.7-6 4-9.1.3-.6.8-.9 1.7-.7zm1.3 13.5c-.9-2.4-1.9-4.6-2.9-7-1 2.5-2 4.7-3 7h5.9zm23.4 1.7c0-.5 0-.9-.1-1.3-.2-.9-.6-1.6-1.6-1.6-1.3-.1-2.7 0-4.1 0 0 2.6-.1 5.2.1 7.8 0 .3.7.8 1.1 1 .3.2.8 0 1 .2.3.1.7.5.7.7-.1.3-.4.8-.7.8-2.8.1-5.7.1-8.5 0-.3 0-.6-.4-.6-.7s.3-.5.6-.7c.2-.1.4-.1.7-.1 1-.1 1.6-.5 1.6-1.6 0-1.8.1-3.5.1-5.3 0-3.4 0-7-.1-10.4 0-1.6-.3-1.8-1.9-2-.3 0-.7-.4-1-.7.3-.3.7-.7.9-.7 5.1-.1 10.1 0 15.2 0 .2 0 .3.1.4.1.1 1.6.2 3.1.3 4.7 0 .3-.3.7-.6.7s-.9-.3-.9-.5c-.5-2.2-2.1-3-4.1-2.9H180v7.7c1.4-.1 2.8-.1 4.2-.2.9-.1 1.1-.7 1.3-1.5.1-.4.2-.9.3-1.3 1-.3 1.5.1 1.4 1.1-.1 1.9-.1 3.8 0 5.7 0 .8-.4 1.3-1.5 1zm59.6-4.1c1.6-2.4 2.9-4.6 4.3-6.7.9-1.4.6-1.8-.9-2.3-.3-.1-.6-.5-.6-.9 0-.2.4-.6.7-.6 2.2-.1 4.5-.1 6.7 0 .3 0 .7.4.7.6-.1.3-.3.7-.7.8-1.3.3-2.2.9-2.9 2-2 3-4 6-5.9 9.1-.1.2-.2.3-.2.5 0 2.2 0 4.3.1 6.6 0 .8.5 1.1 1.3 1.2.3 0 .6 0 .9.1.3.2.5.4.8.7-.3.3-.5.8-.8.8-2.8.1-5.7.1-8.5 0-.3 0-.6-.4-.6-.7s.3-.7.6-.7c2.4-.6 2.2-.6 2.4-3 .3-3.1-.4-5.8-2.4-8.2-1.5-2-2.8-4.1-4.1-6.2-.6-1-1.5-1.7-2.7-2-.3-.1-.6-.5-.6-.9 0-.2.4-.6.7-.6 2.8-.1 5.6-.1 8.4 0 .3 0 .5.4.9.7-.3.3-.5.6-.8.8-.2.1-.5 0-.8.1-.9.3-1.2.7-.7 1.6 1.5 2.1 3.1 4.5 4.7 7.2zm158.7-9.2c-.3-1.1.1-1.5 1.1-1.5h7.3c1 0 1.4.3 1.1 1.3-.1.1-.1.1-.2.1-2.3.3-2.6.6-1.6 2.8 1.6 4 3.4 7.8 5.3 12.1.9-2.1 1.6-3.9 2.3-5.7.9-2.2 1.7-4.2 2.6-6.4.8-2.2.6-2.4-1.6-2.8-.3-1.2-.2-1.4 1-1.4h5.1c1.1 0 1.2.1 1.1 1.4-2 .2-2.7 1.7-3.3 3.3-2.3 5.7-4.7 11.4-7 17.1-.2.4-.6.9-1 1-.8.3-.9-.5-1.1-1-2.6-5.9-5.2-11.9-7.8-17.8-.6-1.5-1.5-2.5-3.3-2.5zm56-2.2c.2 2.8.3 5.2.5 7.6 0 .3-.3.6-.6.9-.3-.2-.7-.3-.8-.6-.3-.6-.5-1.3-.9-1.9-1.2-2.5-3.2-3.7-5.9-3.6-2.8.1-4.7 1.3-5.9 3.9-1.5 3.5-1.7 7.2-.3 10.8 1.7 4.7 8 6 11.6 2.6.9-.8 1.6-1.7 2.3-2.7.3.2.7.4 1.1.7-1.7 3.4-4.2 5.7-8.2 6-6.2.6-11-3-12-8.9-1.1-6.6 2.4-12.6 8.4-14.1 2.6-.6 5.1-.3 7.4.9.9.4 1.3.3 1.7-.6.3-.6 1-.7 1.6-1zM214.1 442c-1.2.1-1.4-.1-1.4-1.1.1-1.3.1-2.5.2-3.8 0-.3.4-.9.7-.9 5.9-.1 11.7 0 17.8 0 .1 1.8.2 3.5.1 5.3 0 .3-.7.5-1.1.8-1.1-3.9-2-4.3-6.3-3.9 0 .3-.1.7-.1 1v14.5c0 .4 0 .8.1 1.2.2 1.5.3 1.6 1.8 1.8.4.1 1 .4 1.1.7.1.8-.6.8-1.1.8h-7.4c-.6 0-1.3.1-1.4-.8 0-.8.7-.7 1.2-.8 1.4-.2 1.7-.4 1.8-1.7.1-5.6 0-11.1 0-16.7-3.6-.8-5.4.2-6 3.6zm219.9-5.8c1.3 0 2.7-.1 4 0 .3 0 .7.4 1 .7-.3.3-.7.7-1 .7-1.6.2-2 .4-2 2.1-.1 5.2 0 10.3 0 15.5 0 1.4.4 1.7 1.8 1.8.5.1 1.2 0 1.2.8-.1.8-.7.7-1.3.7h-7.5c-.4 0-1-.3-1.1-.7-.2-.7.4-.8 1-.8 1.6-.2 1.9-.3 1.9-2 .1-3.6.1-7.3.1-10.9 0-1.6 0-3.1-.1-4.7-.1-1.4-.4-1.6-1.8-1.8-.3 0-.8-.1-.9-.3-.4-.5 0-1.1.8-1.1h3.9zm-306.9 2.9c-.3 1.6-.7 3.9-1.2 6.2-.1.3-.6.4-.9.4-.3 0-.7-.3-.8-.5-.4-2.2-.9-4.6-1.1-6.9-.2-1.8.6-2.7 2-2.7 1.4.1 2.1.9 2 3.5zm367.8 0c-.3 1.6-.7 3.9-1.2 6.2-.1.3-.6.5-.9.5-.3 0-.8-.3-.8-.5-.4-2.3-.9-4.7-1.1-7-.2-1.7.6-2.6 1.9-2.6 1.4 0 2.1.8 2.1 3.4zm-7.2 6.6c-1 .3-1.6.2-1.6-.9-.3-2.1-.8-4.1-1-6.1-.2-.9-.3-2.2.9-2.6.7-.3 1.6-.2 2.2.1 1 .6.9 1.7.8 2.8-.4 2.2-.9 4.4-1.3 6.7zm-367.6 0c-1 .3-1.6.2-1.6-.9-.3-2.1-.8-4.1-1-6.1-.2-.9-.2-2.1.9-2.7.8-.4 1.6-.4 2.3.1 1 .7.9 1.7.8 2.8-.7 2.3-1 4.5-1.4 6.8z"/>
    <path fill="#fff" d="M468.1 342.7h-15c0 .3-.1.4-.1.7v10.5c0 2.8.9 3.5 3.6 3.5.9 0 1.6.3 1.6 1.3 0 .9-.5 1.4-1.6 1.4h-13.7c-1.1 0-1.6-.4-1.6-1.3 0-1.1.8-1.3 1.6-1.3.7 0 1.4 0 1.9-.3.6-.3 1.1-.9 1.3-1.6.3-.8.3-1.6.3-2.4v-24.1c0-.5-.1-1-.1-1.6-.1-1.9-1.2-2.3-2.8-2.5h-1.1c-.8-.1-1.2-.5-1.2-1.3s.4-1.2 1.2-1.3c.4-.1.8 0 1.2 0h12.9c1.1 0 1.6.4 1.6 1.4-.1.9-.7 1.3-1.6 1.3h-.9c-1.6.1-2.6.8-2.6 2.4-.1 3.8 0 7.7 0 11.6h15v-10.6c0-2.6-.8-3.4-3.4-3.4-1.2 0-1.7-.3-1.7-1.3 0-.8.4-1.3 1.2-1.3h14.5c.9 0 1.3.5 1.3 1.4s-.5 1.2-1.4 1.3c-.8.1-1.6.1-2.4.3-.9.2-1.3.9-1.3 1.7 0 .8-.1 1.5-.1 2.2v23.8c0 .5 0 1 .1 1.6.2 1.9.9 2.7 2.8 2.8h.7c.9-.1 1.6.3 1.6 1.3.1.9-.5 1.4-1.6 1.4h-13.9c-.9 0-1.5-.3-1.5-1.3s.6-1.3 1.6-1.3h1.1c1.6-.2 2.2-.8 2.3-2.3.2-1.5.1-2.8.1-4.3.1-2.9.1-5.6.1-8.4zm-198.6-97.4h15v-10.4c0-2.8-.7-3.4-3.5-3.5-.5 0-1.3-.4-1.5-.8-.2-.3.2-1 .4-1.6.1-.2.6-.3.9-.3h14.1c.9 0 1.4.4 1.5 1.3.1.9-.5 1.3-1.6 1.4h-1c-1.7.1-2.5.8-2.6 2.5-.1 2.1-.1 4.2-.1 6.3v19.3c0 .5 0 .9.1 1.5.2 2.1.9 2.8 3 2.8 1.6.1 2.1.3 2.1 1.3s-.6 1.3-2.2 1.3h-13.4c-.5 0-1.2-.4-1.4-.9-.2-.3.2-1 .4-1.4.1-.2.6-.2.9-.3.6-.1 1.3-.1 1.9-.2.9-.2 1.6-.7 1.6-1.7.1-1.3.2-2.7.2-4v-8.8h-15.1v4c0 2.7 0 5.4.1 8.1.1 1.8.9 2.5 2.8 2.6h1c.9 0 1.3.4 1.3 1.3s-.5 1.3-1.3 1.3h-13.9c-1.2 0-1.7-.4-1.7-1.4.1-1.1.8-1.2 1.7-1.2.6 0 1.3-.1 1.8-.3.8-.3 1.3-.8 1.4-1.6.1-.8.2-1.6.2-2.4v-24.1c0-.5-.1-.9-.1-1.5 0-2.1-1.5-2.4-2.8-2.6h-.8c-.9 0-1.6-.3-1.5-1.4 0-.9.5-1.3 1.5-1.3H273c.9 0 1.5.3 1.5 1.3s-.5 1.4-1.5 1.4h-1.1c-1.6.2-2.4.8-2.4 2.3-.1 3.9 0 7.8 0 11.7zm-60.9-52.4c3 1.1 5.2 3 6 5.9 1.6 5.1-1.5 10.7-6.9 12.2-2.7.8-5.6 1-8.4 1.1-5.5.2-11 0-16.5.1-.9 0-1.6-.3-1.7-1.3-.1-.9.4-1.3 1.7-1.3 2.4 0 3.1-.6 3.4-2.9.1-.4.1-.9.1-1.5v-23.4c0-.8-.1-1.6-.2-2.3-.2-1.5-.9-2.1-2.3-2.2h-1.2c-.9 0-1.5-.4-1.5-1.3s.5-1.3 1.4-1.3h6.6c4.2.1 8.4 0 12.6.3 3.2.2 6.3 1.1 8.7 3.4 4.3 4 3.9 10.8-.9 14.1-.3 0-.6.1-.9.4zm-15.6 1.8v12.8c0 .3.3.7.6.8 2.5.4 5 .7 7.5.3 2.8-.5 5.2-1.9 6-4.8.9-3.2-.8-6.5-4.1-7.9-3.1-1.6-6.5-1.4-10-1.2zm0-3.9c2.7 0 5.3.3 7.9-.1 3.2-.3 4.9-2.2 5.3-5.3.3-2.5-1.1-5.2-3.6-6.4-3.1-1.5-6.3-1.3-9.6-.7v12.5zm118.9 149.9c.8.3 1.5.7 2.1 1 4.5 2.7 5.6 8.6 2.4 13.2-2.1 2.9-5 4.4-8.4 4.7-3.8.3-7.7.3-11.5.4-3.5.1-7 0-10.5 0-1.1 0-1.6-.4-1.6-1.3s.5-1.3 1.6-1.3c2.5 0 3.2-.6 3.4-3.1.1-.4.1-.8.1-1.2v-23.6c0-.8-.1-1.5-.2-2.2-.2-1.6-.9-2.2-2.5-2.2h-1.1c-.9 0-1.4-.4-1.4-1.3s.5-1.3 1.5-1.3c4.1 0 8.2-.1 12.3 0 3.2.1 6.5.2 9.6.7 3.3.5 6 2.2 7.8 5.2 2.3 4.2 1.2 9.1-2.8 11.8-.2.1-.5.3-.8.5zm-15.6 1.9v12.8c0 .3.4.7.7.7 2.4.1 4.7.3 7.2.2 3.2-.3 5.7-2.3 6.3-4.9.9-3.5-1.1-6.8-4.8-8.2-3.1-1-6.3-.8-9.4-.6zm0-3.8c2.9.3 5.9.4 8.7-.2 1.6-.3 2.9-1.3 3.8-2.8 1.9-3.5.3-7.6-3.6-9.1-2.8-1.1-5.9-.9-8.9-.4v12.5zM400 357.5v1.1c0 .9-.5 1.4-1.5 1.4H390c-.5 0-1.1-.4-1.4-.8-3.5-4.7-7.1-9.6-10.4-14.4-1-1.5-2.1-1.8-3.5-1.4 0 3.9-.1 7.8 0 11.7.1 1.6.9 2.3 2.6 2.4h1.1c.8 0 1.2.4 1.3 1.2.1.9-.4 1.4-1.2 1.4H364c-.8 0-1.3-.5-1.2-1.4 0-.8.4-1.2 1.3-1.2h.8c2 0 2.8-.7 3-2.6.1-.5.1-1.1.1-1.6v-23.7c0-.8-.1-1.5-.2-2.2-.2-1.5-.9-2.2-2.4-2.2h-1.3c-.9-.1-1.3-.5-1.3-1.4 0-.8.4-1.2 1.2-1.3h3c4.8.1 9.7.1 14.5.3 2.9.1 5.8.9 7.9 3.1 4.5 4.4 3.7 11.6-1.7 14.8-1.1.7-2.3 1.1-3.5 1.6v.1c2.8 3.8 5.5 7.5 8.3 11.3 1.7 2.5 4.3 3.6 7.5 3.8zm-25.5-31.1v13.5c3.6 0 7-.3 9.1-3.6 1.5-2.2 1.3-5.6-.3-7.8-2.3-2.9-5.5-2.7-8.8-2.1zm-195.7-62.7c.3 2.2.1 2.6-2 2.6h-7.7c-.7 0-1.1-.3-1.6-.8-3.4-4.8-7-9.5-10.3-14.4-.9-1.4-2-2.1-3.7-1.6 0 0-.1 0-.1.1 0 3.9 0 7.8.2 11.6.1 1.6.9 2.2 2.5 2.3h1.2c.8 0 1.2.4 1.2 1.2 0 .9-.4 1.4-1.3 1.4h-14.4c-.9 0-1.3-.5-1.3-1.3 0-.9.4-1.3 1.3-1.3h1.1c1.6-.1 2.4-.8 2.6-2.4.1-.6.2-1.2.2-1.9v-23.7c0-.7-.1-1.4-.2-2.1-.3-1.6-.9-2.2-2.6-2.2h-.8c-1.1 0-1.6-.4-1.6-1.3s.5-1.3 1.6-1.3c2.8 0 5.8-.1 8.6 0 3.4.1 6.9.1 10.3.5 4.2.5 7.4 2.8 8.7 7 1.4 4.5-.7 9-4.8 11.1-.9.5-2 .9-3 1.3 1 1.4 2 2.8 3 4.1 1.6 2.2 3.3 4.5 4.9 6.7 2.1 2.8 4.7 4.3 8 4.4zm-25.2-17.5c3.6 0 7.1-.3 9.2-3.8 1.4-2.2 1.1-5.7-.5-7.8-2.3-2.9-5.4-2.7-8.7-2.1v13.7zm301.5 2.3c2.8 3.9 5.7 7.8 8.5 11.6 2 2.5 2.8 2.8 7.3 3.8.3 2.1 0 2.5-2 2.5-2.4 0-4.9-.1-7.3 0-.9 0-1.6-.3-2.1-1-3.4-4.7-6.8-9.3-10.1-14.1-.9-1.4-2-2.2-3.8-1.6 0-.1-.1 0 0 .1 0 3.9 0 7.8.2 11.6.1 1.6.9 2.2 2.6 2.3h1.1c.8 0 1.2.4 1.3 1.2 0 .9-.4 1.4-1.2 1.4h-14.5c-.8 0-1.3-.5-1.2-1.4.1-.8.5-1.2 1.3-1.2h.9c1.8-.1 2.6-.7 2.8-2.5.1-.6.1-1.2.1-1.7v-23.7c0-.7-.1-1.4-.2-2.1-.3-1.6-.9-2.2-2.5-2.3h-1.2c-.8-.1-1.2-.5-1.2-1.3 0-.9.4-1.4 1.3-1.3 6.4.1 12.8.1 19.2.5 4.3.3 7.8 3.4 8.8 7.1 1.2 4.7-.9 9.2-5.6 11.4-.8.1-1.6.4-2.5.7zm-9.5-15.9v13.5c3.6 0 7-.3 9.1-3.6 1.4-2.2 1.3-5.6-.3-7.8-2.3-2.9-5.4-2.7-8.8-2.1zM413.4 213c-9.2 0-16.9-6.8-18-15.9-.6-4.6-.3-9.1 1.9-13.3 3.6-7 11.1-10.9 19.1-9.8 7.1.9 13.5 7.1 15 14.5 1.3 6.7.3 13-4.4 18.4-3.6 3.9-8.1 6.1-13.6 6.1zm10.8-19.1c.1-3.7-.3-7.3-1.9-10.7-2.2-4.8-6.9-7-11.9-5.5-3.1.9-5.1 3.2-6.1 6.1-2.3 6.6-2.2 13.2.3 19.7.7 1.7 1.8 3.3 3.4 4.4 4.7 3.5 11.9 1.4 14.5-4.3 1.4-3.1 1.8-6.4 1.7-9.7zM198.6 267c-9.3-.1-16.9-7-18-16.2-.6-5.2-.1-10.2 2.9-14.7 4.3-6.6 12.2-9.7 19.7-7.9 7.2 1.7 12.8 8.2 13.8 15.8.8 6.2-.3 11.9-4.6 16.7-3.7 4.3-8.3 6.3-13.8 6.3zm10.9-19.2c0-3.6-.3-7.2-1.8-10.6-2.1-4.7-6.3-6.8-11.3-5.7-3.4.8-5.5 3.1-6.6 6.2-2.4 6.6-2.2 13.2.3 19.7.7 1.7 1.8 3.3 3.4 4.4 4.7 3.4 11.9 1.3 14.5-4.4 1.2-2.9 1.5-6.2 1.5-9.6zm222.3 73.8h2.4c.1 1.2.3 2.3.3 3.5.3 2.7.4 5.3.7 7.9.1.8-.3 1.3-1 1.5-.7.2-1.3.1-1.6-.9-.8-2.6-2.1-4.9-4.3-6.6-5.8-4.2-14.2-2-17.3 4.8-3 6.7-2.7 13.4 1.1 19.7 3.3 5.5 10.1 7.3 15.9 4.4.3-.2.7-.7.7-1 .1-3.5.1-7 0-10.5 0-2.3-.7-3-3.1-3.1-.9 0-1.6-.3-1.6-1.4 0-1.1.8-1.3 1.6-1.3h12.2c1.1 0 1.6.4 1.6 1.3-.1.9-.6 1.3-1.6 1.3-1.7.1-2.4.7-2.4 2.6-.1 3.9-.1 7.7 0 11.6 0 1.4-.4 2.1-1.6 2.7-7.1 3.3-14.3 3.7-21.6.8-7.5-3.1-12-11.6-10.8-19.7 1.1-7.1 4.6-12.6 11.1-15.9 4.7-2.3 9.7-2.4 14.7-.9.9.3 2 .7 2.9 1 1.2.4 1.4.3 1.6-.9 0-.2 0-.5.1-.9zm-20.5-73v12.7c0 .9.3 1.5 1.3 1.5 3.4 0 6.9 0 10.3-.2 1.7-.1 3.1-1.2 4.1-2.6.9-1.1 1.6-2.4 2.3-3.6.4-.9 1.2-.7 1.8-.5.6.2.9.8.7 1.6-.9 2.8-1.9 5.6-2.9 8.4-.1.3-.6.6-.9.6h-26.9c-.9 0-1.5-.4-1.5-1.3s.6-1.4 1.5-1.3h.9c2-.3 2.8-.9 2.7-2.7-.1-1.5.1-2.9.1-4.4v-20.7c0-.8-.1-1.6-.1-2.3-.2-1.6-.7-2.2-2.3-2.2h-1.6c-.8-.1-1.3-.6-1.1-1.3.1-.5.7-.9 1.1-1.3.1-.1.3 0 .4 0h26.9c.3 0 .4 0 .8.1l.3 4.5c.1.9 0 1.8.1 2.7.3 2.2-.6 2.6-2.4 2.2-.3-1-.5-2.1-.8-3-.5-1.6-1.6-2.7-3.3-2.7-3.8-.1-7.5 0-11.3 0v12.4c.3 0 .4.1.7.1h7.2c2.5 0 3.5-.9 3.9-3.4.1-.5.2-1.1.2-1.6 2.2-.3 2.5 0 2.5 2.1v9.7c0 2.1-.3 2.3-2.4 2.1-.2-.9-.3-1.8-.5-2.8-.3-1.5-1-2.2-2.5-2.3-3.3-.6-6.2-.5-9.3-.5zm-83.4-19.8c.2 2.8.3 5.6.3 8.4 0 .3-.7.8-1.1 1-.3.2-.8 0-1.2 0-.3-1.1-.5-2.2-.8-3.1-.5-1.6-1.6-2.7-3.3-2.7-3.8-.1-7.5 0-11.3 0v12.4c.2 0 .4.1.6.1h7.3c2.5 0 3.5-.9 3.9-3.4.1-.5.2-1.1.2-1.6 2.2-.3 2.5 0 2.5 2v9.8c0 2.1-.3 2.3-2.4 2.1-.2-.9-.3-1.8-.5-2.8-.3-1.5-1-2.3-2.5-2.3-2.9-.1-5.9 0-9 0 0 .1-.1.3-.1.6V261c0 1.5.3 1.8 1.7 1.8 3 0 6-.1 9.1-.1 1.7 0 3.2-.7 4.2-2.1 1-1.3 2-2.8 2.8-4.2.5-.9 1.2-.9 1.9-.6.7.3.9.9.6 1.6-.9 2.8-1.9 5.5-2.8 8.3-.1.3-.6.6-.9.7h-26.9c-.9 0-1.5-.4-1.5-1.3s.6-1.4 1.5-1.3h.9c2-.3 2.8-.9 2.7-2.7 0-1.6.1-3 .1-4.6v-20.6c0-.8-.1-1.6-.1-2.3-.2-1.6-.7-2.2-2.3-2.2h-1.6c-.8-.1-1.3-.6-1.1-1.3.1-.5.7-.9 1.1-1.3.1-.1.3 0 .4 0h26.9c.1-.1.3-.1.7 0zm-104.6-39v-8.7c-.1-3-.6-4.1-3.8-4-.4 0-1.2-.4-1.3-.9-.2-.4.3-1 .5-1.6.1-.2.6-.2.9-.2h14.1c.9 0 1.6.3 1.5 1.3 0 .9-.6 1.3-1.6 1.3h-1.2c-1.3.1-2.1.8-2.3 2.2-.1.7-.2 1.3-.2 2 0 5.5-.1 11 0 16.5 0 1.7.3 3.4.5 5.1.7 3.7 2.7 5.5 6.4 6.1 2.8.4 5.3-.1 7.8-1.5 2.8-1.5 4-4 4-6.9.2-6.6.2-13.3.3-19.9 0-.4-.1-.9-.2-1.3-.2-1.5-.9-2.1-2.3-2.2h-1.3c-.9 0-1.3-.4-1.3-1.3s.4-1.3 1.3-1.3h11.6c.9 0 1.3.4 1.3 1.3s-.4 1.3-1.3 1.3h-.9c-1.6 0-2.7.9-2.8 2.6-.1.6-.1 1.3-.1 1.9-.1 6.1-.1 12.2-.2 18.4-.1 5-2.1 9.1-6.7 11.4-2.7 1.3-5.5 1.6-8.4 1.5-1.7-.1-3.4-.3-5-.6-5.3-1.3-8.8-5.5-9-11.2-.2-3.8 0-7.6 0-11.4-.1.1-.2.1-.3.1zm103.3 147.8v-8.8c-.1-2.9-.6-4-3.7-3.9-.4 0-1.2-.4-1.3-.9-.2-.4.3-1 .5-1.6.1-.2.6-.2.9-.2h14.1c.9 0 1.6.3 1.6 1.3 0 .9-.6 1.4-1.6 1.3h-1.2c-1.4.1-2.1.8-2.3 2.2-.1.7-.2 1.3-.2 2 0 5.5-.1 11 0 16.5 0 1.7.3 3.4.5 5.2.6 3.5 2.7 5.4 6.3 6 3 .4 5.8-.1 8.4-1.7 2.4-1.5 3.4-3.8 3.5-6.6.2-6.7.3-13.4.2-20.2 0-2.8-.7-3.4-3.5-3.4-.9 0-1.6-.3-1.6-1.3-.1-.9.5-1.4 1.6-1.4h11c.9 0 1.6.3 1.6 1.3 0 .9-.6 1.3-1.6 1.3-2.8 0-3.6.9-3.6 3.7 0 5.2.1 10.4 0 15.6 0 2.2-.3 4.3-.6 6.5-.9 5.1-4.1 8.1-9.1 9.4-3.5.9-7.2.8-10.8 0-5.3-1.3-8.8-5.6-9-11.2-.2-3.8 0-7.6 0-11.4.1.3 0 .3-.1.3zM358.5 235c0 1.8-.1 3.6 0 5.4.1 1.4-1.2 1.7-2.2 1.5-.2-.1-.3-.5-.4-.8-.4-1.6-.7-3.2-1.3-4.7-1.6-3.4-5.8-5.4-9.4-4.7-2.3.5-4.1 2.5-4 4.7 0 1.3.6 2.3 1.6 3 2.1 1.5 4.1 2.8 6.3 4.1 2.3 1.4 4.7 2.6 7 4.1 3.8 2.6 5.6 6.2 4.6 10.8s-4.2 7.2-8.7 8.3c-2.8.7-5.7.4-8.5-.5-1.2-.3-2.4-.7-3.6-1.1-.9-.3-1.4.1-1.5.9 0 1-.6 1.1-1.4 1-.9-.1-1.3-.5-1.3-1.4v-11.3c0-.9.5-1.2 1.3-1.4.9-.1 1.3.1 1.4 1 .1.9.4 1.7.6 2.6 1.4 5.8 7.6 7.5 11.5 6.5 2-.5 3.4-1.6 4-3.7.5-2-.1-3.7-1.6-4.9-1.6-1.3-3.3-2.2-4.9-3.3-2.4-1.5-4.8-2.8-7.2-4.3-2.7-1.7-4.7-4-5.2-7.2-.8-5.3 2.6-10.2 7.9-11.5 3.2-.8 6.3-.3 9.3.9.4.2.9.4 1.3.5 1.1.3 1.6.2 1.7-.9.2-1 .8-1 1.5-.9.8.1 1.2.5 1.2 1.3v6zm-80.3 93.7c0 1.8-.1 3.6 0 5.4.1 1.3-1.1 1.8-2.2 1.5-.2-.1-.3-.5-.4-.8-.4-1.6-.7-3.1-1.3-4.6-1.6-3.5-5.8-5.6-9.5-4.7-2.3.5-4.1 2.5-4 4.7 0 1.3.6 2.3 1.6 3 2.1 1.5 4.1 2.8 6.3 4.1 2.3 1.4 4.7 2.6 7 4.1 3.8 2.6 5.6 6.2 4.7 10.8-1 4.6-4.1 7.2-8.7 8.4-2.9.7-5.9.4-8.8-.6l-3.3-.9c-.9-.3-1.5 0-1.5.9 0 1.1-.7 1.1-1.5 1-.9-.1-1.2-.6-1.2-1.4v-10.9c0-1.3.5-1.8 1.8-1.6.3 0 .7.4.8.7l.9 3.6c1.5 5.2 8 7.1 12.1 5.4 3.4-1.4 4.3-5.1 2-7.8-.7-.8-1.6-1.5-2.4-2-3.4-2.1-6.7-4-10.1-6-2.4-1.5-4.2-3.4-5.1-6.2-1.7-6 2.7-12.2 9-12.8 2.8-.3 5.5.2 8.1 1.2.4.2.8.3 1.2.5 1.1.3 1.6.2 1.7-.9.2-1 .8-1 1.5-.9.8.1 1.2.5 1.2 1.3.1 1.6.1 3.6.1 5.5zm-134.1 14.7c0 4-.1 7.8 0 11.7.1 1.6.9 2.2 2.5 2.2h1.2c.8 0 1.2.4 1.3 1.2.1.9-.4 1.4-1.2 1.4h-14.5c-.8 0-1.3-.5-1.3-1.4 0-.8.4-1.2 1.3-1.2h.8c2.1 0 2.8-.7 3-2.8.1-.6.1-1.2.1-1.8v-23.2c0-.8-.1-1.6-.1-2.3-.2-1.6-.9-2.2-2.5-2.3-.5 0-1 .2-1.4-.1-.4-.3-1-.9-1-1.3s.7-1.3 1-1.2c6.5.2 13-.8 19.5.6 4.2.9 7.2 3.4 8.2 7.8 1.5 6.2-2.6 12.2-9 12.8-2.2.2-4.5-.1-6.7-.2-.5.2-.8.1-1.2.1zm-.2-3.1c1.5.1 2.9.3 4.3.2 3.2-.4 5.2-3.3 5.2-6.9-.1-4.7-3-7.6-7.2-7.3-2.2.1-2.2.1-2.2 2.3v1.8c-.1 3.1-.1 6.4-.1 9.9zm187.3-130.6c.2 2.2-.1 2.5-2.1 2.5h-8.8c-2 0-2.3-.3-2-2.4.1 0 .1-.1.2-.1 2.3-.1 3.8-1.5 4.7-3.5 2.2-5.2 4.5-10.4 6.8-15.6 2.2-5.3 4.6-10.5 6.8-15.9.3-.7.7-.9 1.5-.9.9 0 1 .4 1.3 1 4.1 9.7 8.1 19.5 12.2 29.1.2.5.4 1 .7 1.6 1 2.4 2.5 4.4 5.5 4.1.4 2.1 0 2.6-2 2.6h-11.4c-2.1 0-2.4-.3-2.2-2.5.8-.1 1.5-.2 2.2-.3 1.1-.3 1.6-.9 1.2-1.9-.9-2.3-1.7-4.6-2.7-6.9-.1-.2-.5-.4-.8-.4h-11.6c-.3 0-.7.3-.9.5-.9 2.1-1.8 4.2-2.6 6.3-.5 1.5-.2 2.1 1.5 2.4.7.1 1.6.2 2.5.3zm10.3-13.1c-1.6-3.9-3.2-7.7-4.9-11.6-1.7 4.1-3.4 7.8-5 11.6h9.9zm-70.2-5.9c2.2 0 4.4.1 6.5 0 2-.1 2.8-1 3-3.7.1-.9.4-1.4 1.5-1.2.8.1 1.2.4 1.2 1.3v11.3c0 1.1-.7 1.5-2.5 1.1 0-.7-.1-1.4-.1-2.1-.2-1.7-1-2.8-2.7-2.8-2.2-.1-4.5 0-6.9 0v11.7c0 2.6.8 3.4 3.4 3.4.7 0 1.4.1 1.6.9.3.9-.3 1.7-1.3 1.7h-14.4c-.9 0-1.3-.5-1.3-1.3 0-.9.5-1.3 1.4-1.3h1c1.8-.1 2.6-.8 2.8-2.6.1-1.4.1-2.8.1-4.2v-21.1c0-.6-.1-1.2-.1-1.7.2-1.7-1-2.5-2.8-2.6-.3 0-.9.2-1.1 0-.4-.3-1-.8-1.1-1.2-.2-.8.3-1.2 1.1-1.3h27.1c.1 1.8.2 3.5.3 5.3 0 .7.1 1.3.1 2 .2 1.9-.5 2.4-2.2 2.1-.2-.4-.3-.9-.4-1.4-1.1-3.3-2.3-4.3-5.8-4.5-2.4-.1-4.8 0-7.2 0h-1c-.2 3.8-.2 7.9-.2 12.2zm41.3 8.8c-.1-.9-.1-1.7-.2-2.5-.3-1.5-1.1-2.3-2.5-2.4-2.2-.1-4.6 0-7 0V206c0 2.8.7 3.5 3.6 3.6 1.1 0 1.6.4 1.6 1.4-.1.9-.7 1.2-1.6 1.2h-14c-.9 0-1.6-.4-1.5-1.4 0-.9.6-1.3 1.5-1.2h1.1c1.6-.2 2.3-.9 2.5-2.5.1-.7.1-1.4.1-2.1v-23.4c0-.6 0-1.2-.1-1.7-.2-1.8-.9-2.5-2.8-2.6-.4 0-.9.2-1.2 0-.4-.3-1-.8-1-1.2 0-.4.6-.9 1-1.3.1-.1.3 0 .4 0h26.3c.1 0 .3 0 .4.1.1.4.1.9.2 1.5.1 2.2.2 4.3.3 6.6 0 .8-.3 1.4-1.1 1.5-.9.2-1.3-.1-1.6-1-.3-1.1-.8-2.2-1.5-3.1-.9-1.5-2.6-1.7-4.2-1.8-2.8-.1-5.6 0-8.4 0V191c2.4 0 4.7.1 7.2 0 1 0 1.6-.8 1.9-1.7.2-.6.3-1.1.4-1.7.1-.9.2-1.5 1.3-1.4 1 .2 1.4.7 1.3 1.6V198c.1 1.5-.4 1.8-2.4 1.5zm-59.4 56c.7.4 1.3.9 2 1.4-2.6 4.8-6 8.6-11.6 9.7-6.2 1.2-11.9.3-16.7-4.1-3.3-3-5.1-6.9-5.6-11.3-.7-5.6.3-10.9 3.6-15.6 5-7.2 15-9.8 22.8-5.9.2.1.3.2.5.3 1.5.7 2 .4 2.4-1l.3-.9h2.3c.2 2.1.3 4.1.4 6.1.2 2 .3 4.1.4 6 .1 1.1-.4 1.6-1.5 1.6-.7 0-.8-.3-.9-.9-.8-1.8-1.4-3.7-2.5-5.3-4.2-6-13.7-5.7-17.7.5-2.1 3.3-2.7 7-2.8 10.8-.1 2.7.2 5.3 1 7.9 1.9 5.6 6.8 8.7 12.7 8.2 3.5-.3 6.3-2 8.4-4.7.9-.8 1.7-1.8 2.5-2.8zm-39.9 76.9c-.2-.8-.3-1.5-.4-2.2-.5-2.2-2-3.6-4.3-3.8-1.7-.1-3.5 0-5.4 0v27c0 .5.1 1.1.1 1.6.3 1.8.9 2.3 2.7 2.4h1c.8 0 1.2.4 1.3 1.2 0 .9-.4 1.3-1.3 1.4h-13.9c-.9 0-1.6-.3-1.6-1.3-.1-.9.4-1.3 1.6-1.3.5 0 1.1-.1 1.6-.2 1-.2 1.6-.8 1.7-1.9.1-.8.2-1.5.2-2.2v-27c-2.2.1-4.5 0-6.6.4-2.2.4-2.8 2.4-3.1 4.4-.1.4-.1.9-.2 1.3-2.1.4-2.6 0-2.5-2 .1-2.6.3-5.2.4-7.8h30.9c.1 1.9.2 3.7.3 5.6 0 .8.1 1.5.1 2.2-.1 2.1-.3 2.4-2.6 2.2zm24.7-6v26.9c0 .5 0 1.1.1 1.6.3 1.8.9 2.4 2.8 2.4h.8c.9 0 1.5.4 1.4 1.3 0 .9-.5 1.3-1.5 1.3h-13.7c-1.2 0-1.7-.4-1.7-1.4.1-1.1.8-1.3 1.7-1.2.6 0 1.3-.1 1.8-.3.8-.3 1.3-.8 1.4-1.6.1-.6.2-1.2.2-1.9v-26.4c0-.3 0-.6-.1-.9-2.1 0-4.1-.2-6 0-2.2.2-3.4 2.2-3.7 4.8-.1 1.1-1.2 1.6-2.1.9-.3-.2-.5-.5-.5-.8.1-3 .3-5.9.3-9H250c.1.3.1.7.1 1 .1 2.2.3 4.5.3 6.7.1 2.1-.2 2.3-2.4 2.2-.2-.8-.3-1.6-.4-2.3-.4-2.1-1.7-3.4-3.8-3.6-1.8.2-3.7.3-5.8.3zm139.8-93.8h-4.7c-3 .1-4.7 1.6-5 4.7-.1.9-.2 1.6-1.4 1.4-1-.2-1.3-.7-1.3-1.6.2-2.6.3-5.3.3-7.8 0-.2.1-.3.1-.5h30.7c.1.7.2 1.3.2 2 .1 2 .2 3.9.3 5.9.1 2-.3 2.3-2.4 2-.2-.8-.3-1.6-.4-2.3-.4-2-1.9-3.4-3.9-3.5-1.9-.2-3.8 0-5.9 0v26.9c0 .5 0 1.1.1 1.6.3 1.9.9 2.4 2.8 2.4 1.6 0 2.1.3 2.1 1.3s-.5 1.3-2.2 1.3H374c-.5 0-1.2-.4-1.4-.9-.2-.3.2-1 .4-1.4.1-.2.6-.2.9-.3.7-.1 1.3-.1 2-.3.9-.2 1.5-.8 1.6-1.8.1-.8.2-1.6.2-2.3v-25.5c.1-.4.1-.8.1-1.3zm12.2-31.9c2.1.3 2.2.5 1.6 2.5-.9 2.7-1.7 5.4-2.6 8.1-.2.7-.4.9-1.2.9h-26.7c-1 0-1.6-.5-1.6-1.4.1-.9.7-1.3 1.6-1.2.6 0 1.2-.1 1.7-.2 1-.3 1.6-.9 1.7-1.9.1-.8.2-1.5.2-2.2v-23.4c0-.8-.1-1.5-.1-2.2-.2-1.6-.9-2.2-2.5-2.3h-1c-.9.1-1.6-.3-1.6-1.3s.6-1.3 1.6-1.3h14.8c.9 0 1.5.3 1.5 1.3s-.6 1.4-1.6 1.3h-1c-2.6.2-3.4 1-3.4 3.6v24.9c0 2.1.3 2.4 2.4 2.4 2.9 0 5.9-.1 8.7-.2 2.3-.1 4-1.3 5.2-3.2.8-1.4 1.5-2.9 2.3-4.2zM172.7 322.5h7c.9 0 1.5.3 1.5 1.3s-.6 1.4-1.6 1.3h-1.2c-1.3.1-2 .8-2.2 2.1-.1.6-.2 1.2-.2 1.7v25.2c0 2.5.9 3.3 3.4 3.3.9 0 1.6.1 1.7 1 .2.9-.4 1.6-1.3 1.6h-14.4c-.9 0-1.3-.5-1.3-1.3 0-.9.5-1.3 1.4-1.3h.9c1.9-.1 2.7-.8 2.8-2.7.1-1.5.1-2.9.1-4.4v-21c0-.5 0-1-.1-1.6-.2-2-.9-2.7-3-2.8-.5 0-1.1.1-1.5-.3-.3-.3-.7-1-.6-1.4.2-.4.9-.9 1.4-.9 2.5.1 4.9.2 7.2.2zm150.9-17.4h-5.1c-.5 0-1.2-.1-1-.7.1-.3.7-.7 1.1-.7 1.4-.2 1.7-.3 1.7-1.7.1-3.1.1-6.2.1-9.3 0-2-.1-3.9-.1-5.9 0-1.1-.6-1.6-1.6-1.6-.6 0-1.2 0-1.2-.8s.7-.8 1.2-.8c3.6.1 7.3 0 10.9.3 7.5.4 10 6.8 9.3 12-.8 5.6-4.6 9-10.3 9.2h-5zm.6-2.3c.5.1.9.2 1.3.3 4 .7 7.5-1.5 8.6-5.3.5-1.8.6-3.7.3-5.6-.9-4.8-5.6-7.6-10.2-5.9v16.5zm-33.4 85.7v6.5c0 1 .6 1.5 1.6 1.5.6 0 1.2 0 1.2.8 0 .9-.7.7-1.2.7h-7.3c-.4 0-.8-.4-1.1-.7.3-.3.7-.7 1.1-.8 1.6-.2 1.8-.5 1.8-2.5v-13.5c0-.3-.1-.8-.1-1.1 0-.9-.6-1.4-1.5-1.4-.6 0-1.3.1-1.3-.8s.8-.8 1.5-.8c3.4.1 6.8 0 10.2.3 3.8.3 6.1 3.7 5.1 7.2-.5 1.6-1.6 2.8-3.1 3.4-.4.2-.9.3-1.5.6 1.8 2.4 3.4 4.8 5.3 7 .7.8 1.9 1.1 2.9 1.6.4.2 1 .2.9.8-.1.3-.6.7-.9.7-1.6.1-3 .1-4.6 0-.4 0-.9-.3-1.1-.6-2-2.6-3.9-5.3-5.8-7.9-.6-.9-1.2-1.3-2.1-1zm-.1-2.1c.8 0 1.3.1 1.9 0 2.6-.3 4.1-2.2 3.8-4.5-.3-2.4-2.2-3.6-4.8-3.2-.3.1-.8.4-.9.7v7zm8.8-96.4v12.3c0 .9.5 1.3 1.3 1.3.3 0 .6-.1.9.1s.6.5.6.8c0 .3-.4.7-.7.7-2.2.1-4.5.1-6.7 0-.3 0-.7-.4-.6-.6 0-.3.3-.6.5-.9.1-.1.4 0 .6-.1 1.3-.1 1.6-.4 1.6-1.7.1-1.4 0-2.8 0-4.2v-9.3c0-1.8-1-3-2.8-3.2-.6-.1-1.2-.1-1.1-.9.1-.8.7-.7 1.3-.7h4.1c.7 0 1 .2 1.5.7 3.5 4.3 7 8.5 10.5 12.8.2.3.3.4.7.8 0-.5.1-.8.1-1.1v-9.7c0-1.6-.3-1.9-1.9-2.1-.3 0-.7-.4-1-.7.3-.3.7-.7.9-.7 2.1-.1 4.1-.1 6.2 0 .3 0 .6.4.9.7-.3.3-.6.8-.9.8-2 .1-2.1.7-2.1 2.5v16c0 .3.1.5 0 .8-.1.3-.3.9-.5.9-.3.1-.9-.2-1.1-.4-2-2.3-3.9-4.7-5.8-7-2-2.4-4-4.8-5.9-7.2 0-.2-.2-.4-.6-.7zm-6.3 13.7c.3 1.1-.2 1.5-1.1 1.5h-6.6c-1.2 0-1.3-.1-1-1.4 2.2-.4 2.3-.6 1.4-2.8-.3-.9-.8-1.7-1.1-2.8h-6.9c-.2 0-.5.3-.6.5-.4 1-.9 2-1.3 3-.5 1.3-.3 1.6 1.1 1.8.3 0 .6.1.9.1.3.9 0 1.5-1 1.4h-5.1c-1.1 0-1.2-.1-1-1.5 1.8 0 2.4-1.4 3-2.8 2.4-5.6 4.9-11.2 7.3-16.8.2-.3.6-.8 1-.9.3 0 .7.5.9.9 2.3 5.4 4.6 10.9 6.8 16.5l.3.6c.5 1.6 1.2 2.8 3 2.7zm-15-7.6h5.5c-.9-2.2-1.8-4.3-2.7-6.6-.9 2.4-1.8 4.4-2.8 6.6zm37.5 90.5c1.5-2.4 2.8-4.6 4.2-6.8.5-.9.2-1.5-.9-1.8-.3-.1-.6-.5-.9-.8.3-.3.7-.6 1-.7 2.1-.1 4.1-.1 6.1 0 .3 0 .7.4 1 .7-.3.3-.5.7-.9.8-1.2.3-2.2 1-2.8 2.1-1.9 2.8-3.7 5.8-5.5 8.7-.1.1-.2.2-.2.3 0 2.2 0 4.5.2 6.7 0 .3.9.6 1.5.8.5.2 1.2 0 1.1.9 0 .8-.6.7-1.1.7h-7.4c-.5 0-1.2 0-1.1-.7 0-.3.7-.7 1-.8 1.5-.2 1.7-.4 1.8-1.8V390c0-.3-.1-.8-.3-1.1-1.9-2.9-3.8-5.9-5.7-8.8-.6-.9-1.4-1.6-2.5-1.9-.3-.1-.5-.5-.7-.8.3-.3.6-.6.9-.7 2.6-.1 5.2-.1 7.8 0 .3 0 .6.4.9.7-.3.3-.6.7-.9.8-1.5.3-1.7.7-.9 1.9 1.4 2 2.8 4.2 4.3 6.5zm9.2 9.7c0-1.2.9-2.2 2.2-2.2s2.2 1 2.2 2.2c0 1.2-.9 2.1-2.2 2.2-1.3-.1-2.2-1-2.2-2.2zm-6.2 42.4c6.3-1.6 10.9 2 11 8.3.1 2.7-.4 5.2-2.4 7.2-2.2 2.4-5.1 2.8-8.2 2.1-.3-.1-.5-.7-.5-1v-12.5c.1-1.5.1-2.7.1-4.1zm72.9 7.8v-7.8c2.2-.7 4.1-.3 5.2 1.1 1 1.2 1.2 3.2.3 4.6-.8 1.5-3 2.4-5.5 2.1zM274 442.2c1 2.5 1.9 4.7 2.8 7h-5.9c1-2.3 2-4.6 3.1-7zm-111.7 7h-5.9c1-2.3 2-4.6 3-7 1 2.4 2 4.7 2.9 7z"/>
    <path class="color-black" d="M193 194.7c3.5-.2 6.9-.4 10.1.9 3.3 1.5 5 4.7 4.1 7.9-.9 2.9-3.2 4.3-6 4.8-2.5.5-5 .3-7.5-.3-.3-.1-.6-.5-.6-.8-.1-3.9-.1-8.1-.1-12.5zm0-3.9v-12.5c3.3-.6 6.5-.8 9.6.7 2.5 1.2 4 3.9 3.6 6.4-.4 3-2.2 4.9-5.3 5.3-2.6.4-5.2.1-7.9.1zm103.3 151.8c3.3-.2 6.3-.3 9.3.7 3.8 1.3 5.8 4.7 4.8 8.2-.7 2.6-3.1 4.7-6.3 4.9-2.3.2-4.7-.1-7.2-.2-.3 0-.7-.4-.7-.7.1-4.3.1-8.5.1-12.9zm0-3.8v-12.5c3-.5 5.9-.7 8.9.4 3.9 1.5 5.5 5.6 3.6 9.1-.9 1.6-2.2 2.4-3.8 2.8-2.9.6-5.7.4-8.7.2zm78.2-12.4c3.3-.6 6.5-.9 8.8 2.2 1.6 2.1 1.7 5.5.3 7.8-2.2 3.4-5.5 3.6-9.1 3.6v-13.6zm-220.9-80.2v-13.5c3.3-.6 6.4-.9 8.7 2.1 1.6 2.1 1.9 5.5.5 7.8-2.1 3.3-5.6 3.6-9.2 3.6zm292-13.6c3.3-.6 6.5-.9 8.8 2.2 1.6 2.1 1.7 5.5.3 7.8-2.2 3.4-5.5 3.6-9.1 3.6v-13.6zm-21.4-38.7c0 3.4-.3 6.6-1.6 9.7-2.6 5.7-9.7 7.8-14.5 4.3-1.6-1.1-2.7-2.7-3.4-4.4-2.6-6.5-2.7-13.1-.3-19.7 1-2.9 3-5.2 6.1-6.1 5-1.5 9.7.7 11.9 5.5 1.4 3.3 1.9 6.9 1.8 10.7zm-214.7 53.9c.1 3.4-.3 6.6-1.6 9.7-2.5 5.7-9.7 7.8-14.5 4.4-1.6-1.1-2.7-2.7-3.4-4.4-2.6-6.6-2.7-13.2-.3-19.7 1.1-3.1 3.3-5.4 6.6-6.2 5-1.1 9.2 1 11.3 5.7 1.5 3.4 1.9 6.9 1.9 10.5zm-65.6 92.5v-11.9c0-2.2 0-2.2 2.2-2.3 4.2-.3 7.2 2.8 7.2 7.3.1 3.7-2 6.5-5.2 6.9-1.2.4-2.6.1-4.2 0zm197.6-143.7h-9.9c1.7-3.9 3.3-7.7 5-11.6 1.6 3.9 3.3 7.6 4.9 11.6zm-17.3 106.2v-16.6c4.5-1.7 9.3 1 10.2 5.9.3 1.9.3 3.7-.3 5.6-1.1 3.8-4.7 6-8.6 5.3-.4 0-.8-.1-1.3-.2zm-33.5 83.6v-7c0-.3.5-.7.9-.7 2.7-.4 4.5.8 4.8 3.2.3 2.2-1.3 4.1-3.8 4.5-.6.1-1.2 0-1.9 0zm-12.5-90.3c.9-2.2 1.9-4.3 2.8-6.6.9 2.2 1.8 4.3 2.7 6.6h-5.5z"/>
</svg>
