<svg xmlns="http://www.w3.org/2000/svg" viewBox="0 0 612 612">
    <path fill="#fff" d="M565.2 306L306 46.8 46.8 306 306 565.2 565.2 306zM254.7 491.6c-1.1-1.1.5-5.9 3.6-10.7 4.6-7 6.4-12.5 5.7-36.5l-1.1-28.2-22.6-14.7c-19.5-13.4-36.4-36.1-43.5-58.5-8.7-27.2-4.7-67.6 9.1-93.6 10.3-19.4 18.8-28.7 40.6-44.8l16.6-12.2v-27.5c0-15.1-1.6-28.5-3.5-29.7-1.9-1.2-3.5-4.4-3.5-7.2 0-11.2 60.8-2.6 81.5 11.5 15.6 10.7 27.7 28.9 30.5 46.3 1.7 10.5 3.6 12.7 11.8 13.7 8.2.9 9.4 2.3 7.4 8.8-5.4 17.3-8.5 23.4-11.8 23.4-1.9 0-5.9 5.1-8.7 11.4s-19.4 33.2-36.8 59.8c-17.4 26.6-31.7 49-31.7 49.8 0 .7-4 7.2-8.9 14.5-12.2 18-10.7 32.9 3.7 37 5.8 1.7 17.9 2.2 26.9 1.3 18.2-1.9 51.2-17.1 54.2-25 3-7.7 10.6-6.1 13 2.8 3.9 14.5 2.3 18.4-9.2 22.4-6.3 2.2-18.5 6.8-27.2 10.2-9.7 3.8-25.9 6.3-42 6.5l-26.3.3-1 27.5c-.7 17.5.5 29.3 3.1 32.5 2.3 2.8 3.2 5.9 2.1 7.1-2.9 2.6-29.5 4.3-32 1.8zm7.9-188.2c.5-57.3.2-88.6.2-88.6s-13.8 10.4-22.5 19.4c-19.1 19.7-27 37.6-28.8 66-1.5 22.5-.6 27.1 9.4 48 11.1 23.3 43.2 45.7 43.2 45.7s-2.2-16.3-1.5-90.5zm39 11.4c6-10.1 19.6-32.2 30.3-49.1 10.6-16.9 20.2-36.1 21.3-42.6.8-4.9 2.2-10.8 2.2-10.8s-14.8-10.7-33.4-10.7c-16.1 0-29.8 0-38.8 4-.1 5.6-2.7 122.7-.2 125.3 4.8 4.6 7.9 1.9 18.6-16.1zm53.2-123.7c-1-2.3-17.3-32.6-28-38-13.8-7-35.4-10.2-40.5-6-3.7 3.1-6.1 13.2-4.2 38.8 6.5.1 17.2-2.9 35.5-2.9 25.9.1 34.1 6.3 37.2 8.1zm-21.5 163.6h-14.6l-4.1 7.1-9.1.1 20.9-30.5 20.2 30.5-8.3.2-5-7.4z"/>
    <path class="color-black" d="M18 306L306 18l288 288-288 288m259.2-288L306 46.8 46.8 306 306 565.2 565.2 306zM254.7 491.6c-1.1-1.1.5-5.9 3.6-10.7 4.6-7 6.2-11.1 5.7-36.5l-1.1-28.2-22.6-14.7c-19.5-13.4-36.4-36.1-43.5-58.5-8.7-27.2-4.7-67.6 9.1-93.6 10.3-19.4 18.8-28.7 40.6-44.8l16.6-12.2v-27.5c0-15.1-1.6-28.5-3.5-29.7s-3.5-4.4-3.5-7.2c0-11.2 60.8-2.6 81.5 11.5 15.6 10.7 27.7 28.9 30.5 46.3 1.7 10.5 3.6 12.7 11.8 13.7 8.2.9 9.4 2.3 7.4 8.8-5.4 17.3-8.5 23.4-11.8 23.4-1.9 0-5.9 5.1-8.7 11.4s-19.4 33.2-36.8 59.8c-17.4 26.6-31.7 49-31.7 49.8 0 .7-4 7.2-8.9 14.5-12.2 18-10.7 32.9 3.7 37 5.8 1.7 17.9 2.2 26.9 1.3 18.2-1.9 51.2-17.1 54.2-25 3-7.7 10.6-6.1 13 2.8 3.9 14.5 2.3 18.4-9.2 22.4-6.3 2.2-18.5 6.8-27.2 10.2-9.7 3.8-25.9 6.3-42 6.5l-26.3.3-1 27.5c-.7 17.5.5 29.3 3.1 32.5 2.3 2.8 3.2 5.9 2.1 7.1-2.9 2.6-29.5 4.3-32 1.8zm7.9-188.2c.5-56.5.2-88.6.2-88.6s-13.6 10.2-22.5 19.4c-19.1 19.7-27 37.6-28.8 66-1.5 22.5-.6 27.1 9.4 48 11.1 23.3 43.2 45.7 43.2 45.7s-2.2-16.3-1.5-90.5zm39 11.4c6-10.1 19.6-32.2 30.3-49.1 10.6-16.9 20.2-36.1 21.3-42.6.8-4.9 2.2-10.8 2.2-10.8s-14.2-10.7-33.4-10.7c-16.1 0-30.6.2-38.8 4-.2 11.8-2.7 122.7-.2 125.3 4.8 4.6 7.9 1.9 18.6-16.1zm53.2-123.7c-.9-2.1-17.3-32.6-28-38-13.8-7-35.4-10.2-40.5-6-3.7 3.1-6.1 13.2-4.2 38.8 7.1-.2 17.2-2.9 35.5-2.9 25.9.1 34.7 6.6 37.2 8.1zm-21.5 163.6h-14.6l-4.1 7.1-9.1.1 20.9-30.5 20.2 30.5-8.3.2-5-7.4z"/>
    <path fill="#fff" d="M325.8 341.4c-2.2 3.6-5.1 9-5.1 9s5.5.2 10 0"/>
</svg>
