<svg xmlns="http://www.w3.org/2000/svg" viewBox="0 0 612 612">
    <path class="color-red" fill="#9d1619" d="M204 500.6c-42.6-141.1-44.5-147.8-92.1-321 45.5-.1 49.3.1 79.6-.5-16.9-31.2-21.3-37-37.6-70.2 142.5-.4 167.2-.3 302.4-.5-18 32.4-20.1 37.2-35.5 68 34.8.4 41.3-.5 81.7-.2C471.7 285.1 442.2 391 411 502.8c-98.9-1.2-105.3-1-207-2.2zm23.3-198.8c-.9-.2-3.1.7-4.3 1-2.7.7-5.7 0-6.4-1.8-2.1-5.4-1.1-65.1 1-67.3 1.4-1.4 10-2.1 27.5-2.1 33.7 0 40.8 3 40.8 16.9 0 6.3-5.6 13.2-19.1 23.6l-10.1 7.8c.1 8.2-.9 18 .6 25.7 4.3 2.7 41.2-28.2 48.4-40.4 15.4-26.2-2-50-38.9-53.3-7.2-.7-28.2-.6-46.8.1-37.1 1.4-37.7 1.6-29.4 11.5l4.3 5.1v78.6c0 76-.1 78.7-3.4 82.9-6.7 8.5-5.1 10.1 12.3 12.4 11.3 1.5 16.9-.3 16.9-5.2 0-2.2-.8-4.5-1.7-5.1-1-.6-1.7-12.2-1.7-29v-27.9l5.3-3.4c1.6-1 3.7-3.2 4.7-4.7m2.6 113c-.7 1.9-3.1 5.9-5.5 9-3.4 4.6-3.8 6-2 8.2 1.9 2.2 10.2 2.5 60.7 2.1l58.5-.5-.2-2.3-.2-2.3c-.5-8.1-11.4-33.1-14.7-33.7-2.2-.4-3 .6-3 3.8 0 6.5-3.4 12.7-7.5 13.8-2 .5-16.6 1-32.4 1-21.5 0-29-.5-29.5-2.1-.4-1.2-1.3-46.2-2.1-100l-1.4-97.8H230m156.1 219.4c4.1-1.6 3.3-7-2-14l-4.7-6.2-.5-95.4c-.3-52.5-2.5-102.4-2.3-105.7-4.6-.2-1.2.1-10.1.1h-9.3l.6 100.9c.5 99.5.5 101-3 106.9-3.6 6.1-4.5 11.2-2.4 13.3 1.3 1.5 30 1.6 33.7.1zm-78.6-59.6c1.1-2.8-47-78.1-49.4-77.4-1 .3-.5 8.6-.5 19.4l.1 18.4 8.1 13.1c7.9 12.8 9.8 19.1 6.4 21.2-.9.6-1.7 2.6-1.7 4.4 0 3.1 1.3 3.3 18.1 3.3 13.7-.1 18.2-.6 18.9-2.4zm42.8.6c.6-1-.5-4.3-2.5-7.5-3.2-5.2-3.6-8.4-3.6-33.2 0-27.4 0-27.5 4.3-30.3 3.8-2.5 4.3-4 4.3-13.9 0-10.7-.2-11.1-4.3-11.1-5.9 0-6.2-2.5-5.7-39.5l.5-31.7h21.3c22.9 0 31 1.3 36.5 9.7 7.4 11.4 4.6 20.9-10 35l-9.7 9.4.7 33.3c.6 29 2.2 32.7 7 49.4l5.4 18.5-3.7 4.9c-5.7 7.8-2.1 9.5 17.2 8.1 8.7-.6 16.4-1.8 17.2-2.5.8-.8-.9-4.3-3.7-7.8-5.5-6.9-5.8-7.9-18.4-54.9l-8.2-30.7 6.8-5.3c18.8-14.6 25.5-25.1 26.5-45.1.6-11.1.1-13.8-3.3-19.7-4.9-8.4-17.8-17.5-28.8-20.2-4.5-1.1-24.1-1.9-43.9-2.4-30.5-.7-36.9-1-39.8 1.2-3.4 2.6-3.3 2.7 2.6 8.8l6 6.2.5 80.8c.5 80.5.5 80.8-3.2 84.7-2 2.1-3.2 4.7-2.5 5.7 1.5 2.4 33 2.5 34.5.1zm-99.1-215.3c.5-20.4.5-20.6 5.7-26 5.9-6.1 5.7-11.6-.7-13.3-6.3-1.7-32.1-1.2-35.7.7-4.5 2.4-4.2 3.6 2.7 10.7l6 6.2v20.4c0 11.2.6 20.9 1.2 21.6.7.7 5.5 1 10.7.7l9.5-.5.6-20.5zm125.6 23.6c-.3-3.4 0-7.5 0-23.7 0-19.2.1-19.6 5.1-25.4 10.2-11.6 5.6-15.2-18.5-14.5-15.9.5-16.8.7-17.3 4.4-.3 2.3 1.2 6 3.9 9.1 4.2 5 4.8 6.8 4.8 25.3 0 16.8.4 30.9.3 24.3 0 0 0 .6 10.7.6 11-.1 7.8 0 11-.1z"/>
    <path fill="#363636" d="M184.3 524.3C132.1 357 131.9 355.8 78.2 157.2c38.7-.2 40.9 0 72.5-.6-12-25.1-21.9-43.3-34.3-69.4H306c181.3 0 179.6.4 189.9.2-12.6 24.2-20.9 40.7-34.4 65.6 26.1 1.3 45.2.8 72.3 1.2C507 251.1 467.2 409 428.7 524.6c-90.1.3-117.1.4-244.4-.3zm237.2-6c33.6-119.8 68.1-238.6 101.2-356.5-30.7-.4-34.5-.4-76.7.1 16.7-32.1 27.4-51.1 36.1-66.3-36.8-.2-280.2-1-354.4-.9 15.2 30.9 16.9 34.2 35.6 69.3-34.9.7-43.8.5-74.3.7 33.7 118.5 65.1 238.1 101.7 352.7 119.7.7 130.1.9 230.8.9z"/>
</svg>
