<svg xmlns="http://www.w3.org/2000/svg" viewBox="0 0 612 612">
    <path fill="#fff" d="M596.1 299c1.1 159.5-124.9 292.1-291.3 290.5C140.1 587.8 15.2 457.9 15.5 296 15.8 132.9 149.3 4.4 312.6 7.7 466.8 10.8 598.6 136 596.1 299zM304.2 528.9c-1.4.1-15.3-37.8-20.9-53.4h-11.7c-2 25.4-4.2 50.5-6.1 76.1h11.7c1.4-16.4 2.8-32.1 4.2-49.1 7 18.4 13.4 35.4 20.1 52.7 4.5-.6 7.5-.8 10.6-1.4 2.2-25.9 4.5-51 6.7-76.7h-13.9c-.4 15.7-.7 37-.7 51.8zM97.7 306.6v4.2c-15.1 8.1-30.1 16.2-46 24.5 1.4 4.5 2.5 8.1 3.6 11.4 25.9-2 50.5-4.2 75.3-6.1 0-3.6.3-5.3 0-7s-1.1-3.3-1.7-4.7c-16.4 1.7-31.8 3.1-49.9 5 17.6-10 32.9-18.7 48.5-27.6-.3-3.9-.6-7.2-.8-11.4-25.9 1.7-50.7 3.3-76.1 5 .3 4.5.6 8.1.8 12.8 16.5-2.2 31.3-4.2 46.3-6.1zM144 426.4c-.8-.6-1.7-1.1-2.5-2 5.6-8.4 11.2-16.7 17.3-25.4-2.8-3.1-5.3-5.9-8.4-9.2-15.3 22.6-30.1 44.9-45.4 67.5 2.2 2 4.2 3.6 5.6 5 10-6.4 19.5-12.3 28.7-18.1l1.7 1.7c-7 9.5-13.9 19-20.6 28.2 4.7 6.7 9.2 2.8 12.8.8 20.1-11.4 39.9-23.1 59.9-34.8.6-.3.6-1.4 1.4-3.1-2.2-2.5-4.7-5-7.2-7.8-11.2 7-22 13.7-32.9 20.6-.3-.6-.8-.8-1.1-1.4 7.8-10 15.6-19.8 23.7-30.4-3.1-2.8-5.3-4.7-7.5-7.2-9.3 5.6-17.4 10.6-25.5 15.6zm162.5-285.1c-78.1-2-157.5 65.2-156.1 158.1 1.4 82.8 68.6 154.4 155.8 154.2 91.2-.3 154.4-69.7 157.5-152.5 2.8-87.9-71.6-161.2-157.2-159.8zm158.1 239.4c-1.4 4.2-2.2 7.5-3.3 11.4 23.4 10.9 45.7 21.2 68.6 31.8 1.4-1.7 2.8-2.8 3.6-4.5.8-1.4 1.1-3.3 2-6.4-14.5-6.4-28.4-12.8-42.7-19.2 0-.8.3-1.7.3-2.2h51.8c1.7-4.5 3.1-7.5 4.5-11.4-24-10.6-46.8-20.9-70.5-31.5-2 4.2-3.3 6.7-5.3 10.3 15.9 7 30.9 13.7 49.1 21.5h-30.1c-9.1.2-18.3.2-28 .2zm-88.1 144.1c-5.7 10-13.1 6.7-17.3.3-3.9-5.9-7.2-13.1-8.4-19.8-2.8-17.3 5.3-24 22.6-20.3 1.1.3 2.5 0 5 0-1.7-5.9-3.1-10.9-4.2-15.6-24.5-7.8-38.7 7.2-37.6 30.1 0 2.2 0 4.7.6 7 4.7 25.7 17.2 41.2 32.6 41.5 4.2.1 8.9-3.1 13.1-5.6 6.1-3.6 9.2-9.5 7.8-16.4-1.7-8.4-4.5-16.7-7.2-26.2-6.7 2-13.1 3.6-21.2 5.9 1.5 3.4 3.1 9.2 3.1 9.2l10.5-2.8c.9 1.9 2 10.3.6 12.7zM435 173.9c17.3-20.3 33.7-39.3 50.5-59.1-3.6-3.1-6.4-5.3-9.8-8.4-7 7.8-13.4 14.8-20.3 22.9-5.3-4.5-10-8.4-15.1-12.5 7-8.6 13.1-16.2 19.8-24.5-3.9-2.8-7-5-10.3-7.5-17 20.1-33.2 39-49.9 58.8 3.6 2.8 6.4 5.3 9.8 7.8 7.2-7.8 13.9-14.5 20.9-22 5.3 4.7 10 8.9 14.5 12.8-7 8.4-12.8 15.9-19.2 23.7 3.3 2.9 5.5 5.2 9.1 8zm-189.5-126c3.3 26.5 6.1 51.3 9.2 76.1h12.8c-1.1-10.6-2-20.1-3.1-30.1 6.7-.8 13.1-1.7 19.5-2.5 1.7 10.6 3.3 20.3 5.3 31.2 5-2 8.6-3.3 11.7-4.7-3.1-25.4-5.9-49.6-8.9-75-5 .8-8.6 1.1-12.5 1.7 1.1 10.6 2 19.5 2.8 30.1-7 .3-13.7.6-20.3.8-1.1-10.3-2.2-19-3.3-28.2-4.3.6-8 .6-13.2.6zm313.6 297.4c1.1-7.5 1.7-13.9 2.8-20.3 2-11.2-3.1-18.4-12.5-23.7-12.3-7.2-25.6-7.2-39-7.2-9.5 0-17.3 3.1-23.7 12.5-1.1 7.8-2.5 17.3-3.9 27.6 25.8 3.9 50.1 7.2 76.3 11.1zM389.6 129.5c7.3-7.8 11.2-14.9 13.8-30-7-2.5-14.9-5.4-20.7-7.6-2 4.7-2.4 6.3-3.8 10 .9.3 6.4 2.4 11.6 4.4-2 5.8-9 11.1-10 11.3-8.9 1.7-14.2-7.5-13.9-14.8.6-13.7 5-25.1 16.7-30.9 10.3-.8 15.3 5.9 21.7 11.2 2-5 3.6-9.2 5.3-13.7-7-11.4-16.4-15.9-29.8-13.7-19.5 10-27 27.9-28.7 48.8-1.1 13.9 5 22.9 15.9 27.9 7.9 3.6 16.5 2.9 21.9-2.9zm121.8 323.4c-23.7-13.4-46.3-26.2-69.4-39.3-3.9 4.2-7 7.5-10.3 11.2 14.8 22 29.3 43.8 44.6 66.6 3.9-4.2 6.7-7 9.2-9.8-3.1-4.5-5.6-8.4-8.4-12.3 4.5-4.7 8.4-8.9 12.5-13.4 5.3 2.5 9.5 4.5 14.2 7 2.9-3.6 5.1-6.4 7.6-10zM135.9 351.7c-25.1 10-49.3 16.7-72.5 27.3 3.9 10.9 7.5 20.3 11.2 30.4 4.7-1.7 8.6-3.1 12.5-4.5-2-6.4-3.6-12.3-5.6-19 5.6-2.2 10.6-4.5 16.2-6.7 2.8 5.9 5.3 11.2 8.1 17.3 4.2-1.7 7.5-3.3 11.4-4.7-1.4-6.4-2.5-11.7-3.6-18.1 4.5-1.7 8.6-3.1 12.8-4.5 3.1 7 5.6 12.5 8.4 19 4.5-2.2 8.4-4.2 12.5-6.1-3.9-9.8-7.5-19.2-11.4-30.4zM211.7 146c10.9-5.9 20.1-10.9 29.8-16.2-2.8-4.5-5-7.8-7.2-11.4-6.4 2.5-12.3 5-19.2 7.8-2.5-6.1-4.5-10.9-6.7-15.9 6.1-3.6 10.9-6.4 16.4-9.5-2.5-4.2-4.5-7.8-7-12-5.9 2.8-10.9 4.7-16.2 7.2-2.8-4.5-5-8.4-7.5-12.3 5.6-3.6 10.9-7 16.7-10.9-2.5-3.9-4.5-7.2-7-11.4-10 5.3-19 10.3-28.7 15.3 12.4 23.9 24.1 45.9 36.6 69.3zm16.2 313c-9.2 24.8-19.2 48.5-27 73.6 11.2 3.9 20.6 7 31.2 10.9 1.4-5 2.8-8.9 3.9-12.5-7-3.3-12.5-6.1-18.7-8.9 3.1-5.9 5.3-10.6 7.5-15.3 6.7 2 11.7 3.3 18.1 5.3 1.1-5.6 1.7-9.2 2.5-12.8-6.1-3.1-10.9-5.3-16.2-7.8 2.2-4.7 4.2-8.9 6.1-13.1 6.4 2 12 3.6 18.1 5.6 2-4.7 3.3-8.4 5-13.1-10.4-4.1-19.9-7.7-30.5-11.9zM178 176.1c7.8-9.5 14.2-17.6 22.3-27.3-2-1.4-5.9-3.9-10-6.7-4.5 3.9-9.5 8.1-14.8 12.8-14.5-15.3-28.4-30.1-43.2-45.4-2.8 3.1-5 5.6-8.4 9.2 18.1 19.2 35.4 37.6 54.1 57.4zm249.8 350.4c10.6-7 19.5-12.5 29.3-18.7-2.8-4.2-5.3-7.8-8.1-12-6.4 3.6-12.5 6.7-19 10.3-11.4-17.8-22.6-35.1-34-53-3.9 3.1-6.7 5.3-9.8 7.5 14 21.9 27.3 43.3 41.6 65.9zm-97.9-406.2c1.7-27 6.4-52.1 6.1-78.3h-12.3c-2.2 25.9-4.5 51-6.7 76.9 4.6.6 8.2.9 12.9 1.4z"/>
    <path class="color-red" fill="#bf0d12" d="M306.5 141.3c85.9-1.7 160 71.6 157.2 159.7-2.8 82.8-66.1 151.9-157.5 152.5-87.3.3-154.4-71.4-155.8-154.2-1.4-92.8 78-159.7 156.1-158z"/>
    <path class="color-black" fill="#0" d="M139.2 444c-9.5 5.9-18.7 11.7-28.7 18.1-1.4-1.4-3.3-3.1-5.6-5 15.3-22.6 30.1-44.6 45.4-67.5 3.1 3.3 5.6 6.1 8.4 9.2-5.9 8.6-11.4 17-17.3 25.4-.3 1.4-.3 3.1-.6 4.5h-3.1c.3 1.4.6 2.2.8 3.1-.8 0-1.4.3-.8 0l.6-.6c.8-1.1 1.7-2 2.5-3.1 1.1-.8 2.2-1.4 3.3-2.2 8.1-5 16.4-10 25.1-15.6 2.5 2.2 4.5 4.2 7.5 7.2-8.1 10.6-15.9 20.3-23.7 30.4.3.6.8.8 1.1 1.4 10.9-6.7 21.5-13.4 32.9-20.6 2.5 2.8 5 5.6 7.2 7.8-.6 1.4-.6 2.5-1.4 3.1-19.8 11.7-39.9 23.4-59.9 34.8-3.6 2-8.1 5.9-12.8-.8 6.7-9.2 13.7-18.7 20.6-28.2.8-.8 1.7-2 2.8-2.8.6-.6.8-1.1.3-.3-.3-1.1 0-.3 0 .6-1.5.5-2.9.8-4.6 1.1zM97.7 306.6c-15.1 2-29.8 3.9-46 5.9-.3-4.7-.6-8.4-.8-12.8 25.4-1.7 50.2-3.3 76.1-5 .3 4.2.6 7.5.8 11.4-15.6 8.9-30.7 17.6-48.5 27.6 18.1-2 33.5-3.3 49.9-5 .6 1.7 1.4 3.1 1.7 4.7s0 3.6 0 7c-24.8 2-49.6 3.9-75.3 6.1-1.1-3.3-2.2-7-3.6-11.4 15.9-8.6 30.9-16.4 46-24.5 1.1-.8 2.2-2 3.1-2.8-1.4-.1-2.6-.7-3.4-1.2zm366.9 74.1h58.3c-17.8-7.8-32.9-14.5-49.1-21.5 2-3.6 3.3-6.4 5.3-10.3 23.4 10.6 46.6 20.9 70.5 31.5-1.4 3.6-2.8 7-4.5 11.4h-51.8c0 .8-.3 1.7-.3 2.2 14.2 6.4 28.2 12.5 42.7 19.2-.8 3.1-1.1 4.7-2 6.4-.8 1.4-2.2 2.8-3.6 4.5-22.9-10.6-45.4-21.2-68.6-31.8.8-4.1 1.7-7.1 3.1-11.6zm-88.1 144.1c1.1-1.7.8-8.7-.6-12.8l-10.5 2.8s-1.4-5.1-3.1-9.2c8.1-2.2 14.5-3.9 21.2-5.9 2.8 9.5 5 17.8 6.7 26.2 1.4 7-1.4 13.1-7.8 16.4-4.5 2.5-8.9 5.5-13.1 5.6-14 .4-26.9-15.3-32.6-41.5-.6-2.2-.6-4.5-.6-7-1.1-22.9 13.1-38.2 37.6-30.1 1.4 4.7 2.8 9.8 4.2 15.6-2.2 0-3.6.3-5 0-17-3.6-25.1 3.1-22.6 20.3 1.1 7 4.5 13.9 8.4 19.8 4.9 6.5 11.6 9.3 17.8-.2zM435 173.9c-3.6-3.1-5.9-5-9.5-8.1 6.4-7.8 12.3-15.1 19.2-23.7-4.5-3.9-9.2-8.1-14.5-12.8-7 7.2-13.4 14.2-20.9 22-3.1-2.5-6.1-5-9.8-7.8 16.7-19.8 32.9-38.7 49.9-58.8 3.3 2.2 6.4 4.5 10.3 7.5-6.7 8.4-12.8 15.9-19.8 24.5 5 4.2 9.8 8.1 15.1 12.5 7.2-7.8 13.4-15.1 20.3-22.9 3.3 2.8 6.1 5.3 9.8 8.4-16.4 19.9-32.8 39.1-50.1 59.2zm-189.5-126h12.8c1.1 9.2 2.2 17.8 3.3 28.2 7-.3 13.4-.6 20.3-.8-1.1-10.6-2-19.5-2.8-30.1 3.9-.6 7.5-1.1 12.5-1.7 3.1 25.4 5.9 49.6 8.9 75-3.1 1.4-6.7 2.8-11.7 4.7-2-10.9-3.6-20.9-5.3-31.2-6.7.8-12.8 1.7-19.5 2.5 1.1 10 2 19.5 3.1 30.1h-12.8c-2.7-25.4-5.8-50.3-8.8-76.7zm313.6 297.4c-26.5-3.9-50.5-7.2-76.4-11.2 1.4-10.3 2.8-19.8 3.9-27.6 6.4-9.5 14.2-12.3 23.7-12.5 13.7-.3 26.8 0 39 7.2 9.5 5.6 14.5 12.5 12.5 23.7-1.1 6.5-1.6 12.9-2.7 20.4zm-12.9-31.5c-9.5-2.8-18.4-6.4-27.9-7.5-11.4-1.7-16.4 3.3-19.5 16.2 15.6 3.1 30.9 7.5 48.2 5.9.1-5.1-.2-9-.8-14.6zM304.5 477.2h13.9c-2.2 25.6-4.5 50.7-6.7 76.7-3.1.3-6.1.8-10.6 1.4C294.4 538 288 521 281 502.6c-1.4 17-2.8 32.9-4.2 49.1h-11.7c2-25.6 4.2-50.7 6.1-76.1h11.7c5.9 15.6 20.3 53.4 21.1 53.4.5-2 .5-36.2.5-51.8zm85.1-347.7c-3 2.3-14.2 6.4-22 2.8-10.9-5-17-14.2-15.9-27.9 1.7-20.9 9.2-38.5 28.7-48.8 13.1-2.2 22.9 2.2 29.8 13.7-1.7 4.2-3.3 8.4-5.3 13.7-6.4-5.3-11.4-12-21.7-11.2-12 5.9-16.2 17.6-16.7 30.9-.3 7.2 5.3 16.7 13.7 14.8.8-.2 8.1-5.6 10-11.3-6-2.2-10.6-4-11.6-4.4 1.4-3.6 2.2-5.2 4.1-10 5.9 2.2 19.1 7 20.7 7.7-.3 1.4-4.3 22.7-13.8 30zm121.8 323.4c-2.8 3.3-5 6.1-7.5 9.5-4.7-2.2-9.2-4.5-14.2-7-4.2 4.5-8.1 8.6-12.5 13.4 2.8 4.2 5.3 7.8 8.4 12.3-2.5 2.8-5.3 5.6-9.2 9.8-15.3-22.9-29.8-44.6-44.6-66.6 3.3-3.6 6.4-7 10.3-11.2 23 13.6 45.9 26.4 69.3 39.8zm-34.9-4.7c-8.4-5-14.2-11.7-24.8-13.7 5.6 7.5 10.3 13.7 15.1 19.8.8.8 2.2 1.1 3.6 1.7 2-2.3 3.6-4.5 6.1-7.8zm-340.6-96.5c4.2 11.2 7.5 20.6 11.2 30.7-4.2 2-8.1 3.9-12.5 6.1-2.8-6.4-5.3-12-8.4-19-4.2 1.4-8.4 2.8-12.8 4.5 1.4 6.4 2.5 11.7 3.6 18.1-3.6 1.7-7.2 3.1-11.4 4.7-2.8-6.1-5.3-11.4-8.1-17.3-5.3 2.2-10.3 4.2-16.2 6.7 2 6.7 3.9 12.5 5.6 19-4.2 1.4-7.8 2.8-12.5 4.5-3.6-10-7-19.5-11.2-30.4 23.4-10.6 47.6-17.5 72.7-27.6zM211.7 146c-12.5-23.4-24-45.4-36.5-68.9 9.8-5.3 18.7-10 28.7-15.3 2.5 4.2 4.7 7.5 7 11.4-5.9 3.9-11.2 7.2-16.7 10.9 2.5 3.9 4.7 7.8 7.5 12.3 5.3-2.5 10.3-4.7 16.2-7.2 2.5 4.2 4.5 7.8 7 12-5.6 3.3-10.3 5.9-16.4 9.5 2.2 5 4.2 10 6.7 15.9 7-2.8 12.8-5.3 19.2-7.8 2.2 3.3 4.5 6.7 7.2 11.4-9.8 4.9-19 9.9-29.9 15.8zm16.2 313c10.6 4.2 20.1 7.8 30.4 11.7-1.7 4.5-3.1 8.4-5 13.1-6.1-2-11.4-3.6-18.1-5.6-2 4.2-3.9 8.4-6.1 13.1 5.3 2.5 10 5 16.2 7.8-.6 3.3-1.4 7.2-2.5 12.8-6.4-2-11.4-3.3-18.1-5.3-2.2 4.5-4.7 9.2-7.5 15.3 6.1 3.1 11.7 5.6 18.7 8.9-1.1 3.6-2.2 7.5-3.9 12.5-10.6-3.6-20.1-7-31.2-10.9 7.9-24.9 18.2-48.6 27.1-73.4zM178 176.1c-18.7-19.8-36-38.2-53.8-57.1 3.3-3.6 5.6-6.1 8.4-9.2 14.5 15.3 28.4 30.1 43.2 45.4 5.6-4.7 10.3-8.9 14.8-12.8 3.9 2.8 8.1 5.3 10 6.7-8.4 9.7-15.1 17.8-22.6 27zm249.8 350.4c-14.2-22.6-27.6-43.8-41.5-66.1 3.1-2.5 5.9-4.5 9.8-7.5 11.4 18.1 22.6 35.1 34 53 6.4-3.6 12.5-6.7 19-10.3 2.8 4.2 5.3 7.8 8.1 12-9.9 6.4-18.8 11.9-29.4 18.9zm-97.9-406.2c-5-.6-8.6-.8-12.8-1.4 2.2-25.9 4.5-51 6.7-76.9h12.3c.5 26.2-4.2 51.3-6.2 78.3z"/>
    <path class="color-red" fill="#bf0d12" d="M97.7 306.6c1.1.6 2 .8 3.1 1.4-1.1.8-2.2 2-3.1 2.8v-4.2z"/>
    <path fill="#fff" d="M140.9 428.9c.3-1.4.3-3.1.6-4.5.8.6 1.7 1.1 2.5 2-1.1.8-2.2 1.4-3.3 2.2l.2.3zm-.3-.2c-.8 1.1-1.7 2-2.5 3.1l.3.3c-.3-.8-.3-1.7-.8-3.1h3.1c.2-.1-.1-.3-.1-.3z"/>
    <path fill="#fff" d="M138.1 431.7l-.6.6h.8l-.2-.6zm5.9 11.5c0-.8-.3-1.7 0-.6.6-.8.3-.3-.3.3l.3.3zm-4.8.8c1.4-.3 3.1-.6 4.5-.8l-.3-.3c-.8.8-1.7 2-2.8 2.8-.2-.6-.8-1.2-1.4-1.7zm407-130.2c.3 5.6.6 9.5.8 14.2-17.3 1.7-32.6-2.8-48.2-5.9 3.1-12.8 8.1-17.6 19.5-16.2 9.5 1.5 18.5 5.1 27.9 7.9zm-69.7 134.4c-2.8 3.3-4.5 5.6-6.4 7.8-1.4-.6-2.8-.8-3.6-1.7-4.7-6.1-9.2-12.3-15.1-19.8 10.9 2.2 16.8 8.7 25.1 13.7z"/>
    <circle fill="none" stroke="#000" stroke-miterlimit="10" stroke-width="3" cx="306.4" cy="298.6" r="290.9"/>
</svg>
