<svg xmlns="http://www.w3.org/2000/svg" viewBox="0 0 612 612">
    <path fill="#fff" d="M106.7 501.4V110.7H505v390.7H106.7zm391.2-6.9V118H114.2v376.5h383.7z"/>
    <path fill="#fff" d="M123.3 126.6h365.4V485H123.3V126.6zm6.9 351.3h351.3V134.1H130.2v343.8z"/>
    <path fill="#fff" d="M139.3 468.7V143.2h333v325.5h-333zm7.2-7.1h318.8v-311H146.5v311z"/>
    <g class="color-blue" fill="#020266">
        <path d="M514.6 511H97.4V101h417.3v410zm-407.9-9.6H505V110.7H106.7v390.7z"/>
        <path d="M497.9 494.5H114.2V118h383.7v376.5zM123.3 126.6V485h365.4V126.6H123.3z"/>
        <path d="M130.2 477.9V134.1h351.3v343.7l-351.3.1zm9.1-9.2h333V143.2h-333v325.5z"/>
        <path d="M146.5 461.6v-311h318.8v311H146.5zm30.8-259.7c12.3 19.3 24.4 38.4 36.6 57.7 4.4-1.8 7.9-3.3 11.7-4.9-2.5-4.8-6.4-8.9-6.5-13.2-.6-22-.1-44.1-.4-66.1-.1-3.8-1.9-7.6-3.2-12.6-5.6 3.9-8.7 6-10.2 7.1v51.8c-6.4-10.1-12.1-18.6-17.3-27.3-5.3-8.8-10.3-17.9-15.5-27l-11.8 7.9c4.7 6.5 5.3 78.8.9 98.6 6.3-4.9 12-9.2 15.6-11.9v-60.1h.1zm35.5 111.7c5.4 2.1 10.5 4.1 16.1 6.3v20.4h29.4c-.4-4-.7-7.1-1-10.5h-16.1c-1.5-10.2-1.5-10.2 4.1-12.6 11.6-4.9 19.3-15.8 18.8-26.2-.6-11.3-9.1-20.9-21.5-25.1-13.2-4.4-24 1.2-34.5 7.3-4.1-2-7.8-3.9-9.9-4.9 4.2 33.7 2.4 67 1.1 99.4 4-3.1 9.5-7.2 13.3-10.1l.2-44zm59.8 93.7c2.3-2.2 4.1-3.8 5.8-5.5 10.8-11 12.4-24.7 4.2-36.9-7-10.4-22-14.5-34.7-9.7-6.3 2.4-17.2 2.9-22.3 1.1-.4-.1-.9.4-1.5.7 6.3 9.5 8.4 58.4 3.5 86.7 5.9-3.5 11.1-6.5 14.7-8.7-.5-9.5-.9-17.3-1.2-24.1 20.4-3.9 27.4 8 31.2 23.7.9 4 1.5 8.1 2.3 13.1 4.8-3.3 9.3-6.5 12.9-9.1-5.2-10.8-10-21-14.9-31.3zm91.9-208.8c-19-6.7-20.7 14.1-32.5 19.3v-20h-11.1v54.9c4.1-.2 7.3-.4 10.3-.6 3.1-16.3 3.1-16.3 7.6-19.9 21.9 32.6 42.2 42.8 60.4 27.6-12.1 6-21.4 3.4-28.1-3.4-8.8-8.9-16.1-19.3-23.4-29.7-1.3-1.9-.2-6.9 1.5-9.3 4.5-6.6 9.9-12.4 15.3-18.9zm-16.2 228.3c7.4 1.7 12.1 1.3 14.2-6.3.6-2.1 4.4-4.1 7.1-4.7 4.1-.7 8.5-.7 12.6.1 2.4.4 5.8 2.4 6.4 4.4 2.4 8.5 8.1 9.1 15.8 7.3-6.3-16.8-12.2-33.4-19.2-49.6-.9-2.3-7.1-3.1-10.8-3.1-2.5 0-6.5 2-7.3 4.1-6.5 15.8-12.4 31.5-18.8 47.8zM304.8 288c-4.7 1.7-11 1.9-12.5 4.7-7.9 15.1-14.6 30.9-22.8 48.8 6-1.5 12.7-1.7 13.2-3.6 3.2-11.2 11.8-8.1 19-8.1 3.4 0 9 1.4 10 3.6 3.4 8.6 9.5 7.3 17 6.4-7.9-16.9-15.4-33.3-23.9-51.8zm106.4 87v52.8c14.2.4 27.5 1.7 36.1-10.8 6.6-9.5 6.5-20 .4-29.7-8.2-13.5-22-12.4-36.5-12.3zm-107-158.3c1.5-11.2.2-15.3-5-17.9-7.1-3.4-25.5-1.7-29.2 3.2-1.5 2-2.2 4.9-2.3 7.4-.2 10.2-.1 20.6-.1 30.8 0 8.1 4.1 12.2 12.1 12.6 3.6.1 7.3.2 10.9.1 12.6-.6 16-5.5 12.6-19.8-3 1.4-7.6 2-8.4 4.1-2.6 7.4-8.6 5.2-12.9 4.4-2-.4-3.8-5.8-4.1-9.1-.7-5.4-.1-10.8-.1-16.3.1-7.6 6.1-11.8 12.5-8 2.5 1.5 3.5 5.7 5.2 8.7 3-.2 5.9-.2 8.8-.2zm-.8 186.2c.2 2.5-.6 7.8 1.2 12 1.8 4.4 5.4 10.1 9.4 11.3 6 1.7 13.2.9 19.3-.7 3-.8 6.5-5.6 7.1-9 1.3-9.8 1.2-19.8 1.7-29.7.4-7.2-4.1-11-10.3-11.4-19.6-1.2-29.4-2.1-28.1 21.6 0 1.2-.2 2.4-.3 5.9zm82.3-184.2c.7-4.7 1.2-7.9 1.6-10.9 5.7-.3 10.2-.6 15.2-.8-.2-3.6-.4-6.4-.5-9.2h-28.4v53h32.9c-.2-3.9-.4-7.1-.5-10.5-5.2 0-9.7.5-14.1-.2-2.1-.4-5.7-3.5-5.4-4.7.5-2.5 2.8-5.3 5-6.4 2.4-1.1 5.7-.2 9.3-.2-.2-3.6-.4-6.4-.5-9.3-5-.3-9.1-.5-14.6-.8zm24.9 81.6v-10.2h-27.9v49.8h31.7c-2-14.9-14.8-4.1-20.2-9.7v-11.4h13.2V309c-3.1 0-6 .5-8.4-.1-2-.6-3.7-2.6-5.5-4.1 1.7-1.5 3.3-3.9 5.3-4.3 3.7-.8 7.7-.2 11.8-.2zm-56 1c5.2-.4 9.1-.7 13.5-.9v-10.1h-40v10.3c4.9.3 9.4.6 14.5.9V340h11.9c.1-12.8.1-25.3.1-38.7zM435.3 198h-12.4v53.2h28.5V240h-16.1v-42zm-188.1 53.8v-54.1h-11.8v54.1h11.8z"/>
    </g>
    <path fill="#fff" d="M177.3 201.9v60c-3.6 2.8-9.2 7.1-15.6 11.9 4.4-19.8 3.7-92.1-.9-98.6l11.8-7.9c5.2 9.2 10.2 18.2 15.5 27 5.2 8.7 10.9 17.2 17.3 27.3v-51.8c1.5-1 4.6-3.2 10.2-7.1 1.3 5 3.1 8.8 3.2 12.6.3 22-.2 44.1.4 66.1.1 4.3 4.1 8.4 6.5 13.2-3.8 1.6-7.3 3.1-11.7 4.9-12.3-19.2-24.5-38.3-36.7-57.6zm35.5 111.7v44c-3.9 2.9-9.3 7.1-13.3 10.1 1.3-32.4 3.1-65.7-1.1-99.4 2.1 1 5.8 2.8 9.9 4.9 10.5-6 21.3-11.6 34.5-7.3 12.4 4.1 20.9 13.7 21.5 25.1.6 10.5-7.2 21.2-18.8 26.2-5.6 2.4-5.6 2.4-4.1 12.6h16.1c.3 3.4.6 6.5 1 10.5h-29.4V320c-5.8-2.3-10.9-4.3-16.3-6.4zm27-18.3c.3 4.2.6 7.9.9 11.5.9.4 1.7.8 2.5 1.2 2.8-3.9 7.3-7.6 7.7-11.6.4-5.3-.9-12.4-4.3-16.1-6.5-6.8-15.6-7.1-24.4-3.6-9.9 4-12.4 9-10.3 21.8 1.5 8.9 8.9 9 16.1 10.9.5-5.2.9-9.6 1.4-14.2h10.4v.1zm32.8 112c4.9 10.3 9.7 20.4 14.8 31.3-3.6 2.5-8.1 5.7-12.9 9.1-.9-5-1.4-9.1-2.3-13.1-3.9-15.7-10.9-27.6-31.2-23.7.4 6.8.8 14.7 1.2 24.1-3.6 2.1-8.8 5.2-14.7 8.7 4.9-28.2 2.8-77.1-3.5-86.7.5-.2 1.1-.8 1.5-.7 5 1.8 16 1.4 22.3-1.1 12.7-4.9 27.8-.7 34.7 9.7 8.1 12.1 6.6 25.8-4.2 36.9-1.5 1.8-3.3 3.3-5.7 5.5zm-31.7-24.2c.1 14.9 2.3 17.8 13.3 17.8 11.2.1 21.1-9.8 20.6-20.6-.4-9.5-7.3-16.3-16.9-16.4-11.3-.2-17.1 6.4-17 19.2zm123.6-184.6c-5.3 6.5-10.8 12.4-15.3 18.9-1.7 2.4-2.8 7.4-1.5 9.3 7.3 10.3 14.6 20.7 23.4 29.7 6.7 6.8 16 9.5 28.1 3.4-18.3 15.3-38.5 4.9-60.4-27.6-4.6 3.6-4.6 3.6-7.6 19.9-3.1.1-6.3.4-10.3.6v-54.9H332v20c11.8-5.2 13.5-26.1 32.5-19.3zm-16.2 228.3c6.4-16.4 12.3-32.1 18.8-47.6.9-2.1 4.8-4.1 7.3-4.1 3.7 0 9.8.8 10.8 3.1 6.9 16.1 12.9 32.8 19.2 49.6-7.7 1.7-13.4 1.2-15.8-7.3-.6-2-4-3.9-6.4-4.4-4.1-.7-8.5-.8-12.6-.1-2.7.5-6.5 2.5-7.1 4.7-2.1 7.4-6.8 7.9-14.2 6.1zm35-20.9c-2.5-6.6-4.4-12.1-7.5-20.3-3.1 8.3-5.2 13.9-7.7 20.3h15.2zM304.8 288c8.5 18.5 16.1 34.9 23.8 51.8-7.6.9-13.6 2.2-17-6.4-.9-2.3-6.5-3.6-10-3.6-7.2-.1-15.8-3.1-19 8.1-.6 1.9-7.2 2-13.2 3.6 8.2-17.9 14.9-33.7 22.8-48.8 1.6-2.8 8-3.1 12.6-4.7zm-6.1 15.8c-3.1 7-5 11.5-7.4 16.9h14.6c-2.4-5.2-4.3-9.8-7.2-16.9zM411.2 375c14.5-.1 28.3-1.2 36.6 12.2 6 9.7 6.1 20.2-.4 29.7-8.7 12.5-22 11.3-36.1 10.8v-26.5c-.1-8.3-.1-16.8-.1-26.2zm11.5 9.4c0 9.2-.1 17.6 0 26 .1 7.3 4.9 10 11 5.8 7.1-4.9 10-11.7 7.5-20.4-2.4-8.5-8.3-11.9-18.5-11.4zM304.2 216.7h-8.7c-1.7-3-2.6-7.1-5.2-8.7-6.4-3.8-12.4.4-12.5 8-.1 5.5-.6 10.9.1 16.3.4 3.3 2.3 8.8 4.1 9.1 4.3.7 10.2 3.1 12.9-4.4.7-2 5.4-2.7 8.4-4.1 3.4 14.3 0 19.2-12.6 19.8-3.6.1-7.3.1-10.9-.1-8-.4-12.1-4.5-12.1-12.6 0-10.2-.1-20.6.1-30.8.1-2.5.8-5.4 2.3-7.4 3.6-4.9 22-6.6 29.2-3.2 5.1 2.7 6.3 6.9 4.9 18.1zm-.8 186.2c.2-3.5.4-4.7.3-6-1.3-23.7 8.4-22.8 28.1-21.6 6.2.4 10.6 4.1 10.3 11.4-.5 10-.4 19.9-1.7 29.7-.4 3.4-4 8.2-7.1 9-6.2 1.6-13.4 2.4-19.3.7-4-1.2-7.6-6.8-9.4-11.3-1.8-4.1-1.1-9.4-1.2-11.9zm10.2-2c-.1 2.1.1 4.2-.1 6.3-.6 6.1.1 10.7 8.1 10.6 7.1-.1 10.8-2.3 10-10-.4-4.5-.1-9.1.2-13.6.7-7.1-1.5-10.3-9.5-10.4-8.6-.1-9.5 4.1-8.9 10.7.5 2.1.2 4.3.2 6.4z"/>
    <path fill="#fff" d="M385.7 218.7c5.5.3 9.7.5 14.6.8.1 2.9.3 5.7.5 9.3-3.6 0-6.9-.9-9.3.2-2.3 1-4.5 3.9-5 6.4-.3 1.2 3.3 4.3 5.4 4.7 4.4.7 8.9.2 14.1.2.1 3.3.4 6.5.5 10.5h-32.9v-53H402c.1 2.8.3 5.7.5 9.2-5 .3-9.5.5-15.2.8-.5 3-1 6.3-1.6 10.9zm24.9 81.6c-4.1 0-8.1-.5-11.8.2-2 .4-3.6 2.8-5.3 4.3 1.8 1.4 3.5 3.5 5.5 4.1 2.5.7 5.3.1 8.4.1v9.8h-13.2v11.4c5.4 5.5 18.2-5.2 20.2 9.7h-31.7v-49.8h27.9v10.2zm-56 1V340h-11.9v-38.5c-5.1-.4-9.5-.7-14.5-.9v-10.3h40v10.1c-4.6.3-8.4.6-13.6.9zM435.3 198v42h16.1v11.3h-28.5v-53.2c4-.1 8.1-.1 12.4-.1zm-188.1 53.8h-11.8v-54.1h11.8v54.1z"/>
    <path class="color-blue" fill="#020266" d="M239.8 295.3h-10.4c-.4 4.6-.9 8.9-1.4 14.2-7.1-2-14.6-2-16.1-10.9-2-12.7.4-17.8 10.3-21.8 8.8-3.6 17.9-3.2 24.4 3.6 3.4 3.6 4.8 10.8 4.3 16.1-.4 4.1-5 7.8-7.7 11.6-.9-.4-1.7-.8-2.5-1.2-.3-3.7-.6-7.4-.9-11.6zm1.1 87.8c-.1-12.9 5.7-19.3 17.2-19.2 9.5.1 16.4 6.9 16.9 16.4.4 10.8-9.5 20.7-20.6 20.6-11.2 0-13.4-2.9-13.5-17.8zm142.4 22.8h-15.2c2.4-6.4 4.5-12 7.7-20.3 3 8.2 5 13.7 7.5 20.3zm-84.6-102.1c3 7.1 4.9 11.6 7.2 16.9h-14.6c2.3-5.4 4.3-9.9 7.4-16.9zm124 80.6c10.2-.4 16 2.9 18.5 11.4 2.5 8.7-.4 15.5-7.5 20.4-6.1 4.2-10.9 1.5-11-5.8v-26zm-109.1 16.5c0-2.1.1-4.2 0-6.3-.7-6.6.3-10.8 8.9-10.7 7.9.1 10.1 3.3 9.5 10.4-.4 4.5-.7 9.1-.2 13.6.8 7.8-2.8 10-10 10-8.1.1-8.7-4.5-8.1-10.6 0-2.2-.1-4.3-.1-6.4z"/>
</svg>
