<svg xmlns="http://www.w3.org/2000/svg" viewBox="0 0 612 612">
    <g class="color-orange" fill="#d23a1e">
        <path d="M155.8 363.5c.8-.4-.9-1.5-.3-1.5 5.6-.2 13.7-.3 19.3-.3 3.9 0 74.8-1.2 75.2-1.2 12.2 0 24.4-.2 36.6 0 2.7 0 5-.8 6.8-2.9.6-.8 1.4-1.4 2.1-2.1 1.4-1.4 1.9-2.5.6-4.1-2.3-3.3-1.7-6.2.2-9.3 2.3-3.9 5.6-6 9.7-7 1.2-.4 2.9-.2 4.1.4 2.3 1.2 4.7 2.7 6.6 4.5 2.7 2.7 3.5 6.4.6 10.5-2.3 2.9-2.1 4.7.8 6.8 1 .8 2.1 1.7 3.1 2.3 1.9 1.2 3.3 1.2 5-.4 2.1-2.1 4.3-4.3 6.2-6.6 2.9-3.3 6.8-3.7 10.7-3.9 2.1-.2 3.7 1.2 5.2 2.7.8.8.6 1.7 0 2.5-.8.8-1.7 1.7-2.7 2.3-1.2.8-2.5.6-3.7 0-.6-.2-1-.8-1.7-1-3.1-1.9-6.4-.6-8.5 2.3-1 1.7 0 3.9 2.1 4.3 1 .2 2.1.2 3.3.2 5-.2 134.2.4 140.4-.2 2.7-.2 5.2 0 7.8.2.8 0 1.7.6 1.7 1.4 0 1-.8 1.4-1.7 1.4-2.5.2-5 .4-7.4.8-4.5.6-9.3.6-13.8 2.1-1.9.6-3.5 1.9-5 3.3-1.4 1.4-1.7 3.1-1 5 .4 1 .6 2.1.8 3.1.6 3.1 2.7 4.7 5.4 5.8 6 2.1 12 2.5 18.2 2.9.8 0 1.7 0 2.5.2.6.2.8.8 1.2 1.2-.4.4-1 .8-1.4.8-.6.2-1.2 0-1.7 0-2.9 0-5.8.2-8.7.2-4.5 0-134.4-2.1-137.7-2.1-3.1 0-3.9 1.7-2.3 4.3 1.7 2.5 3.9 4.1 6.8 5.2 2.5 1 5.2 1.7 7.8 2.3 3.1.6 4.1-.2 5.2-3.1.2-.4.4-1 .4-1.4.4-1.2 1-1.9 2.3-1.9s2.3.4 2.9 1.4c.8 1.2.4 3.5-.6 4.7-2.5 2.9-5.6 4.1-9.5 3.7H347c-3.1-.2-5.8-.8-8.3-2.9-1.4-1.2-3.3-2.1-4.5-3.3-2.3-2.1-4.1-4.5-6.2-6.8-1.2-1.4-2.1-1.9-3.7-1-1.2.6-2.5 1.4-3.7 2.5-6.2 5-13.2 6.2-20.9 5.4-4.1-.4-8.1-2.5-10.9-5.8-.4-.4-.8-1-1.4-1.4-1-1.2-2.5-1.7-4.1-1.7-2.9 0-138.4 1.9-142.5 1.9-.4 0-.8-.2-1.2-.4-.4-.4-1-.8-1-1.2 0-.6.6-1.2 1-1.4.8-.2 1.9-.4 2.9-.2 5.8.6 11.2-1.4 16.1-3.9 2.9-1.4 5.2-3.7 5-7.4 0-.4.2-1 .2-1.4 1-3.5-.4-6.4-3.9-7.8-.8-.4-3.2-.8-4.3-1-.4-.3.7-.6.2-2zm265.5 2.8c-2.3.2-4.3-.1-6.2.1-2.5.4-3.1 1.4-3.3 3.9-.2 3.1-.2 6-.4 9.1v1.2c0 1.2.6 2.3 1.9 2.7 1.2.4 2.3-.2 2.9-1.2.4-.8 0-2.2.2-3 0-3.3 3.2-3.1 4.4-.7.4.8 1 1.2 1.7 1.9.6.8 1.2 1.7 2.1 2.5.8.8 2.7 1 3.5.4 1.2-.8 2-2.7-1-4.7-4.2-2.8-3-3.3 1.3-5.2.4-.6 1-1.2 1.2-2 .4-2.3-.3-4.2-2.6-4.8-1.9-.3-4 0-5.7-.2zm-133.8 16.2c5.4-.2 6-.4 8.5-3.5 3.1-3.9 1.2-10.9-3.5-12.6-3.3-1.2-6.8-1.7-10.1.4-3.5 2.1-5.2 5.4-4.1 9.3 1 4.2 4.5 6.6 9.2 6.4zm-46.8 0h3.9c1.7 0 3.1-.6 4.1-1.9 2.9-3.7 3.3-9.3-.8-13.2-.6-.6-1.4-1.2-2.3-1.2-2.9-.2-6-.2-8.9 0-1.9 0-3.3 1.4-3.5 3.3-.2 2.5-.4 5-.4 7.4 0 1 .2 2.1.4 2.9.6 1.9 1.9 2.9 3.9 2.9 1.3-.2 2.5-.2 3.6-.2zm108-16c-2.9.2-5-.3-7.1-.1-2.7.2-3.3 1.2-3.5 3.9 0 1.7-1.2 7-1 8.1 0 1-.4 2.6.2 3.6.6 1.2 3 1 3.9 0 .6-.6.7-1.9.9-2.8.6-3.8 2.9-2.1 4.6-.9l1.6 1.6c.6.6.8 1.1 1.4 1.7 1 1 2.3 1.4 3.3.8 1.2-.8 1-2.1.8-3.1-.6-1.9-4-3-2.8-4.2.4-.4 1.7-1.8 2-2.2 1.4-2.9 1.4-5.1-1.6-5.9-1.9-.8-2.1-.3-2.7-.5zm-77.7 2.6c2.1-.2-.6-3.1-2.9-3.3-1.9-.2-3.5-.2-5.8-.2-4.8-.1-5.4 1.6-6.5 3.9-.2 2.7 1.7 4.6 4.8 5 1.2.4 5.2.8 6.4 1.4 1 .6 1.2 2.5 0 2.9-1.2.4-4.1.7-5.5.4-1.6-.3-4.9-1.4-5.2-.3-.5 2 2.2 3.3 3.1 3.5 2.5.2 4.7.2 7.2 0 2.3-.2 3.9-1.2 5.2-2.9 1.4-1.9 1.4-4.9-.7-5.9-2.5-1-11.9-.7-11.1-3.7 1.5-2.2 6.2-.3 11-.8zm-74.9 7c4.1 0 4.9-.8 4.6 3 .1 2.6.8 3.2 1.9 3.2 1 .2 2.4-.2 2.8-1.2.2-.4 0-1.9 0-2.3.2-2.3-.1-2.7-.1-5 0-1 .3-4.1 0-4.9-.2-1.2-1-1.9-2-1.9-1.2 0-2.4-.3-2.6 1.1 0 .2.3 4.2.2 3-.2 1.9-.3 1.8-2 2-1.4 0-3.4.1-4.7.1-1 0-1.5-.1-1.5-2.4 0-.4-.2-1-.2-1.4 0-.8 0-1.7-1-1.7-.8 0-2-.2-2.6.2-.6.4-.5 1.9-.5 2.5-.2 1.7-.4 3.5-.4 5.2 0 1.4-.3 4.5-.1 5.8 0 1 .7.8 1.7 1 1 .2 1.9 0 2.3-1 .2-.6.4-2.3.4-2.9.4-2.7.4-2.7 2.9-2.5.2.1.4.1.9.1zm119.1-30.7c0-.4-.2-1.2-.6-1.9-1.9-4.1-6.6-5.6-10.7-3.5-3.3 1.7-5.2 6-3.7 9.1 1.4 3.1 4.1 6 8.5 4.1.2-.2.6-.2 1-.2 3.2-1 5.5-3.9 5.5-7.6zm-13 31.3h.2v2.7c.2 1 .4 2.1 1.7 2.5 1 .2 2.3-1 2.5-2.3.2-.6 0-1.2.2-1.7-.3-5.1 1.9-2.7 3.5-1.4.6.4 1 1 1.4 1.7 1.2 1.2 2.3 2.5 3.5 3.3 1.9 1.2 3.5.2 3.7-1.9v-1.2c.2-2.3.4-4.5.4-6.8 0-.8.2-1.7 0-2.5-.2-.6-.6-1.4-1.2-1.7-.6-.2-1.4.4-1.9.8-.6.6-.3.6-.4 2.8 0 4.3-2.9 2-4.4.5-.6-.6-1-1.2-1.7-1.9-.8-.8-1.4-1.9-2.3-2.5-1.9-1.4-4.1-.6-4.5 1.7-.1 2.8-.3 5.3-.7 7.9zm95.2-3.9c.4-1.2.1-2.4.9-2.6 1.7 0 4.9.2 6.5 0 1.4-.2 2.1-1.7 1-2.7-.6-.6-1.5-.6-2.4-.6-2.1-.2-4.2-.1-6.2 0-3.3.2-3.2.6-3.8 2.5-.4 1.4-.8 7.6-.8 9.3-.2 1.2.2 2.5 1 3.1.8.6 1.9.8 2.7.8 2.3.2 7.8.4 8.3.2.8-.2 1.7-.8 1.9-1.9.2-1.2-2.2-2.1-2.6-1.9-1.4 0-7-.1-7-.3.2-.4.3-2.9.7-3.1.6-.2 5.2.7 5.2-.1.1-1.7.2.4 0-2.2-2.2-.7-3.2-.3-5.4-.5zm-17.5 10.1c1.7 0 2.7-.2 3.9-2.3 1.9-3.3 3.3-7 5-10.5.4-.8.2-1.9-.6-2.5-1-.6-2.1-.6-2.7.2-.8 1-.9 2.4-1.5 3.4-.4.8-1.4 4.2-2 5-1 1.4-2.7.9-3.5-.7-.6-.8-1.2-3.6-1.6-4.5s-.9-2.2-1.3-3.1c-1-1.4-1.3-1.6-2.3-1.2-1.2.6-1.9 1.7-1.2 3.3 1 3.3 2.3 6.6 3.7 9.7 1.1 2.6 1.6 3.2 4.1 3.2zm-152-10.1v-3.3c0-1.2-.6-2.1-1.9-2.3-1.2-.2-2.1.6-2.5 1.7-.4 1-.4 2.3-.4 3.3 0 1.4-.2 2.9-1.2 4.1-1 1.2-2.5 1.9-3.9 1.4-1.7-.4-2.5-1.4-2.5-3.3v-4.1c0-1.9-.6-2.9-1.9-3.1-1.2-.2-2.3.6-2.9 2.5 0 .4-.2.6-.2 1 0 2.1-.2 4.1 0 6.2.2 2.1 1.2 3.5 3.1 4.3 2.5 1.2 5.2 1.4 8.1 1 3.7-.6 5.8-3.3 6-7 .2-.7.2-1.6.2-2.4zm77 21.7c3.3.6 6.2-1.4 9.3-2.5.2-.2.6-.4.8-.6.6-.6 1.4-1.4 1-2.7-.4-1-1.2-1.4-2.3-1.4-2.9 0-5.6.2-8.5.2-2.1 0-4.1-.2-6.2-.2-.8 0-1.4-.4-2.3-.4-1 0-1.9.6-2.3 1.4-.4 1-.2 2.1.4 2.7.6.6 1.4 1.2 2.1 1.7 2.8 1.4 5.3 2 8 1.8zm60.9-25.6c-.2-1.4-1.4-2.1-2.5-2.1-1 0-2.3 1.2-2.3 2.5 0 3.1-1 10.3-1 10.7.2 1.7 1.2 2.5 2.9 2.3s2.3.7 2.7-3.8c0-1.2.4-7.7.2-9.6zm-54.7-7.6v.4c.4 0 .8 0 1.2-.2.6-.4 1.4-.8 1.7-1.4.2-.6-.4-1.2-.6-1.9-.2-.4-.6-.4-1-.8-3.1-1.9-6.4-1.7-9.7-.4-.6.2-1.2.6-1.7 1-.6.6-1 1.4-.6 2.3.4.4 1.2.8 1.9 1h8.8zm-52.3 55.5c1-.2 1.7-.4 2.5-.4 15.7 0 31.2-.2 46.9-.2 3.5 0 31.2.1 33.2-.1 1.4-.2 17.4.7 19.6.7 2.1-.2 4.1 0 6.2.2 3.3.2 6.8.6 10.1 1 4.1.6 8.1 1.9 11.6 3.9 1.9 1.2 3.5 2.7 4.7 4.7.8 1.2 1.9 2.5 2.9 3.7.6.8 1.4 1 2.7 1.2 5.6.4 10.9.8 16.5 1.4 1.2.2 2.7.6 3.7 1 2.1.8 4.1 1.7 6.2 2.7 3.7 1.9 5.8 5.2 6.4 9.1.6 4.1-1.2 7.4-4.5 9.9-3.7 2.7-7.7 3.8-12.4 4.3-3.8.4-13.8 2.1-18.2 2.1h-1c-3.3.2-5 2.7-3.9 5.6 2.3 6.4 4.5 12.6 6.8 18.8 1.9 5 13 25.8 16.7 29.5l5.8 5.8.6.6c.6.6 1 1.4.2 2.1-.4.2-1.4.2-2.1-.2-1.7-1.4-3.3-2.9-5-4.5-6-5.6-11.8-11.6-16.3-18.4-2.7-3.9-5.4-7.6-7.8-11.8-1-1.7-8.9-17.1-10.9-21.9-.6-1.7-1.7-3.1-2.9-4.5-1.2-1.7-3.1-1.9-5.2-1.9h-8.7c-.8 0-1.7-.2-2.5 0-2.5.2-3.9 1.4-3.9 4.1 0 2.5-.4 5 .6 7.4.6 1.7 1.7 2.9 3.5 3.1 1.9.4 3.5.8 5.4 1h1c1 .2 2.1.8 1.9 1.9 0 1.2-1 1.9-2.1 1.7-2.7-.2-29.3-1.7-31.8-1.7-.8 0-1.9.2-2.7.2-1.2 0-2.5-1-2.5-1.9s1-1.7 2.3-1.7h5.2c3.1 0 5.6-1.9 6.4-4.3.2-.4.2-.8.2-1.2.2-2.9.4-6 .6-8.9v-6.6c0-.8-.2-1.9-.2-2.7-.6 0-1-.2-1.2-.2-2.5.8-5 .4-7.4.4-5.2-.2-10.1-.4-15.3-.6-5.8-.2-6 1-5 5.6.8 3.9 2.1 7.6 2.7 11.6.6 3.9 8.5 25.6 10.7 30.8 1.4 3.1 2.9 6.4 4.3 9.3.8 1.4 1.9 2.7 2.7 4.1 1.9 3.1 3.9 6.4 5.8 9.5 2.7 4.1 11.4 14.7 12.8 16.1.8.6 1.7 1.2 2.5 2.1 1 1 1.4 2.5.6 3.9-.4 0-1 0-1.4-.2-3.5-2.1-7-4.1-9.3-7.6-.4-.6-8.1-8.7-11.2-12.6-2.7-3.3-5.2-6.8-7.4-10.5-3.1-4.5-6.2-8.9-8.7-13.4-2.5-4.5-9.1-19.8-10.3-22.5-2.1-3.9-6.4-21.3-6.4-21.7-.4-3.5-1.7-4.5-5.2-4.5-3.1 0-6.2.2-9.1.4-2.5.2-3.3 1-3.3 3.3.2 4.7.6 9.3.8 14 .2 2.5 1.7 4.1 3.7 4.7 2.3.8 4.7 1.2 7.2 1.7 1 .2 2.3.4 3.3 1 .4.2.8 1 .8 1.7 0 .4-.8.8-1.4 1-.6.2-1.2 0-2.1 0-3.3-.2-30.8-.4-34.1-.2h-11.2c-.6 0-1.2.2-1.9 0-.4 0-1.2-.6-1.2-.8 0-.6.2-1.4.6-1.7.8-.4 1.7-.4 2.7-.4 3.3-.2 6.8 0 10.1-.6 3.9-.6 7.2-2.3 8.3-6.6 0-.4.2-.8.2-1.2.2-2.5.4-5 .6-7.4.2-5.4.2-10.7.6-16.1.2-4.5-.1-10 .3-14.5.2-3.7.8-6.7-2.3-9.4-1-.8-2.1-1.4-3.5-1.4-1.9 0-3.7-.2-5.8-.2-.7-.3-1.7-.3-2.4-1.7zm42.4 1.7c0 .2 0 .2 0 0h-10.1c-2.3 0-3.1.8-3.5 2.9-.4 1.9-.6 3.9-.8 5.8-.2 2.9-.4 5.6-.4 8.5 0 2.1.2 3.9.4 6 .4 5.6 1.9 6 6.2 6 5.6-.2 10.9.4 16.3.6 3.7 0 7.6 0 11.4-.2 4.3-.4 14.2.4 14.7.4h5.2c1.7 0 3.5-.2 4.5-2.1 2.3-4.7-.4-13.4-8.1-12.4-1 .2-2.1 0-2.9-.2-.6 0-1.2-.4-1.9-.8-.8-.6-.6-1.7.4-1.9.8-.2 1.7-.2 2.5-.2 7.6.4 15.5.6 23.1 1 4.7.2 14.9 0 15.3 0 2.1-.2 3.3-2.1 2.5-4.1-.2-.6-.6-1.2-1.2-1.9-2.9-3.5-7.1-6.4-11.9-6.4-2.3 0-14.4-.6-18.3-.6h-27.7c-.6 0-5.4-.2-7.2-.2-3-.2-5.8-.2-8.5-.2zm63.4 32.8h-4.1c-1.2 0-2.3.6-2.7 1.9-.4 1 0 2.5 1.2 3.1 1.2.6 2.7 1.4 4.1 1.4 3.3.4 6.6.6 9.9.6 2.9-.2 5.6 0 8.3.2 2.9.2 6 0 8.9 0 2.1 0 3.9-.4 5.8-.6 1.7-.2 3.3-.4 5-.6 3.9 0 7.6-.8 11.2-2.9 5.2-3.1 7-11.2 1.4-15.3-.6-.4-1.2-.8-1.9-1.2-3.1-2.1-6.6-2.3-10.1-2.5-2.9-.2-4.5 1.2-5.8 3.5-.6 1-.8 2.1-1.4 2.9-.6 1-1.4 2.1-2.3 2.9-3.3 3.1-7 5.8-12 5.4h-.2c-5 1.2-10.2.6-15.3 1.2zm2-16.3h-1.7c-1.9.2-3.7 0-5.4.4-1.9.4-2.7 1.7-2.7 3.3.2 2.1.4 4.1 1 6 .4 2.1 2.1 2.7 3.9 2.3 1.2-.4 2.5-.6 3.5-.8 3.5-.8 6.4-2.5 8.7-5.4 1-1.2 1.4-2.7.6-4.1-.6-1.4-2.1-1.9-3.5-1.9-1.3.4-2.9.2-4.4.2zM120.5 302c.4 3.7.6 8.3 1.2 12.6.6 5.4 2.9 10.1 6.2 14.5 1.7 2.1 2.9 4.1 4.1 6.4 1.7 2.7 3.9 4.3 6.8 5.4 1.9.6 3.9 1.4 5.8 2.1 1 .4 1.9.8 2.9.8 6.2.6 12.6.6 18.8-.2.2 0 .6-.2.8-.2 2.9-1.4 5.8-2.9 8.5-4.5 4.5-2.7 9.1-5.4 12.6-9.5.2-.2.4-.6.8-.6.6-.2 1.7-.4 2.1 0 .4.4.6 1.2.6 1.9 0 .2-.2.6-.4.8-3.3 3.3-6 7.2-10.7 8.9-.8.2-1.4.6-2.3 1.2-4.5 3.5-10.3 4.7-15.7 6.6-.2 0-.4.2-.6.2-4.3-.4-8.7.2-13 .2-2.5 0-5.2-.4-7.4-1.2-4.3-1.2-8.5-2.7-12.8-4.1-3.3-1-6-3.3-8.7-5.4-3.9-2.9-7.6-6.2-9.9-10.5-2.1-3.5-4.1-7.2-5.8-10.9-1.2-2.5-2.1-5.4-2.7-8.1-1.2-5.4-1-10.9.2-16.5.6-2.5 1.4-5 1.9-7.4.8-3.9 3.3-7.2 5-10.7 3.3-6.2 8.7-10.5 13.8-15.1 6-5.2 13-8.1 20.2-10.3 5.2-1.7 10.5-1.9 15.9-2.1 2.7 0 5.4.2 7.8.8 4.1.8 8.3 1.4 12.4 1.7 2.9.2 5.2-.6 7-2.9.6-.6 1.2-1.4 1.7-2.1 1-1.2 2.1-1 3.1.2.2.4.4 1 .6 1.7 1.9 6.4 4.7 12.4 7.8 18.2.4.6.8 1.2.8 1.7 0 .6 0 1.4-.4 1.9-.6.6-1.4.4-2.1-.2-.4-.4-1-1-1.2-1.4-2.3-4.3-6-6.8-10.3-8.9-2.9-1.4-5.8-2.9-8.7-4.1-1.7-.6-3.5-1-5.2-1.4-5.8-1-11.6-1-17.6-.2-12.4 1.7-20.4 9.1-26.4 19.4-2.5 4.1-4.3 8.7-6 13.2-.8 2.1-.8 4.5-1 6.8-.1 3-.3 6.7-.5 11.3zM448 226.5c-.8 0-1.7.2-2.7 0-4.5-.6-9.1-.6-13.6 0-1 .2-2.5.6-3.1-.6-.6-1.2.4-2.1 1-2.7 1.4-1.4 2.3-5.3 2.3-7.3.2-5.8 1.3-31.5 1.1-32.9-.4-1.7-1.2-3.3-2.7-4.1-1-.6-2.1-1.2-1.9-2.7.2-.8 2.5-2.1 3.7-1.9 2.1.2 34.1-.4 40.1 0 3.3.2 4.4-.1 8.7 1.2 5.2 1.4 6.9 4.4 8.6 9.6.8 2.7 1.5 4.3-.6 6.2-3.1 3.1-12.1 6.3-12.9 6.7-2.3.8-2.9 2.7-1.7 4.7 1.7 2.7 6.6 12.5 8.3 14.8.8 1.2 3 5.2 4.1 6.2.6.6 1 1.4.6 2.3-.4.4-1.2.8-1.9.8-5-1.1-9.4-1.1-13.9 0-2.6.6-3.7-1.2-3.1-3.7.6-2.9-1-15.8-5.5-18.8-1.9-2.7-6.6-1.9-8.2-2.1-1.2-.2-7.9-.7-9.2-.3-.8.2-1.2 4.6-1.2 5.6 0 1.7 0 6.6.4 9.9.2 1.9.6 5.5 1.9 6.9.8.5 1.4 2 1.4 2.2zm-3.2-34.7c0 2.5 2.4 3.8 4.7 4.3 2.5.4 13.2-.3 15.7-.3 1.7 0 6.6-1.6 9.3-6.5 1.2-6.6-.6-7.4-5-9.9-3.9-2.5-6.8-1-11.6-1.4-2.7-.2-6.1 0-8.8.2-2.1 0-2.9 3-3.3 5-.4 1.7-1 7.4-1 8.6zm-231 16c.6-.8 1.4-1.4 1.7-2.3 1.4-3.5 2.5-7.2 3.9-10.7.8-2.1 1.7-4.1 2.5-6.2.6-1.4 1.4-2.9 2.1-4.5.8-2.1.4-3.5-1.4-5-.4-.4-1-.8-1.4-1.2-.8-.6-.8-1.7-.4-2.5.4-1 1.2-1.2 2.3-.8.4 0 13.4-.2 15.7-.4 1.9 0 2.5 1 1.4 2.5-1.9 2.7-1.9 5.4-.8 8.3 1.2 2.9 2.3 5.8 3.5 8.7.6 1.9 1.4 3.5 2.1 5.4.6 1.2 1 2.7 1.9 3.7 1 1.7 2.1 1.7 3.1 0 1.2-2.1 7.4-15.3 7.4-16.3.2-1 .2-2.3.2-3.5.2-2.9-.8-5-3.5-6.4-.2-.2-.6-.2-.8-.6-.2-.6-.8-.4-.9-.9-.2-.6.5-.9 1.8-.8 3.9.8 15.7.8 18.1 0 .4 0 1.2-.2 1.2.2s-.4.8-.8 1.4c-.2.2-.8.2-1.2.4-6 .8-9.1 5-10.9 10.1-.6 1.9-7 15.1-8.1 17.4-1.4 3.1-3.3 6.2-1.2 9.3 0 .2.2.2.2.4 1.4 2.5 1.4 3.1-.6 5.2-2.9 2.9-4.7 6.4-6 10.1-.2.6-.2 1.4-.4 2.3-.2.8-.6 1.7-1.7 1.7-1 0-1.2-1-1.2-1.9-.2-2.1-.2-4.1-.4-6.2-.2-1.4-.6-3.1-1-4.5-1.9-5.6-3.7-11.2-5.8-16.5-1.7-4.5-3.5-9.1-5.4-13.6-1-2.3-2.3-2.5-4.3-1-1.2.8-5.4 13.4-7.6 18.2-1.2 2.7-1.7 5.2 0 8.1 1 1.7.8 2.7-.8 4.3-2.3 2.3-3.9 5-4.7 8.1-.4 1.4-.4 2.7-.8 4.1 0 .4 0 .8-.2 1-.4.6-.8 1.7-1.4 1.7-1 .2-1.4-.8-1.4-1.9-.2-7.4-3.3-14-5.4-21.1-1.2-3.9-3.1-7.4-4.5-11.2-1.7-3.9-3.3-7.8-5-12-1.2-3.3-2.9-7.6-5.6-9.8-.4-.2-.6-.6-.8-.8-.8-1.2-.5-3 1-3.4.6-.2 16-.3 16.8-.1 1.7.2 2.1 1.2 1.2 2.7-.2.2-.4.6-.6.8-1.2 1.9-1.4 4.9-.8 6.7.4 1 .6 2.3 1 3.3 1.7 4.7 3.3 9.7 5.2 14.5.4 2.4 1.2 4.3 3.5 5.5zM68.6 225.4c-.4 2.1-4.6 1.1-6.5.8-2.1-.2-2.2-.1-4.2 0-1.7.1-3.3.2-5 .4-.8 0-2.8.3-2.5-1 .3-1.3 2.3-2.5 3.3-3.5.8-1 1.9-2.1 2.5-3.1.6-1 1.2-2.1 1.4-3.3.4-1.9.6-3.9.8-5.8.6-6.2 1.2-12.4 1.7-18.8.2-2.3 0-4.5 0-6.6 0-2.3-.8-4.1-3.3-5-.8-.4-1.9-1.4-2.7-1.8-.8-.4-1.7-1-1.2-2.1.4-1 1.2-1.2 2.3-1.2h20.9c2.3 0 3.1 2 2.1 4-1 2.1-.8 3.5.6 5.2 1.7 2.1 3.1 3.9 4.7 6 1.9 2.5 3.5 4.7 5.2 7.2 3.1 4.3 6.2 8.5 9.3 12.8.2.2.4.6.6.8 1.2 1.2 2.1 1.2 2.7-.4.4-1 .8-2.1.8-3.3.2-3.7 0-7.2.2-10.9 0-.8 0-1.9.2-2.7.6-3.5.6-6.8.4-10.3 0-1.7-1-2.5-2.3-3.3-1-.8-2.3-1.4-3.1-2.5-.4-.4-.8-1.4-.6-1.9.2-.6 1-1.2 1.7-1.2 3.7-.2 7.4-.2 11.2 0 .6 0 1.7.6 2.1 1.2.2.6-.2 1.7-.6 2.1-2.7 2.3-3.5 5.6-4.7 8.9-.2.4 0 1 0 1.4 0 7.4-.2 14.7-1 21.9-.2.8-.2 1.9-.4 2.7-.4 1.4.2 2.5.6 3.9.4 1.4 1.4 1.9 2.5 2.3 1.4.6 1.7 1.9.8 3.1-.4.6-.8 1-1.4 1.4-2.1 1.7-2.9 3.7-3.1 6.2-.2 1.9-.4 3.9-.6 6v1.2c-.2 1-.6 1.9-1.7 1.9-.6 0-1.7-.8-1.9-1.2-1-3.5-3.3-6.2-5.2-9.3-2.9-4.7-26-35.7-27.1-37.6-.6-1-1.4-2.3-2.7-2.9-1.4 1.4-2.1 3.1-2.3 5.2-.2 4.7-1.2 21.9-.8 25.6.2 2.3 2 4.3 3.7 5.6 1 .7 2.8.8 2.6 1.9zm380.4 96c.8-1.4 1.4-2.5 1.9-3.5 1.9-4.1.2-8.1-1.9-11.2-.8-1-2.9-1-4.3 0-1.9 1.4-3.7 2.9-5.4 4.5-2.1 2.1-3.5 2.1-5.6-.2-.6-.8-1.2-1.7-2.1-2.5-1.2-1.2-2.7-.8-3.1.8-.4 1-.6 1-1 2.3-.8 2.1-.8 3.1.8 4.7 1 1 3.1 1.9 3.3 3.3.1.9.6 1.7-.8 1.5-1.6-.7-10.6-.7-14.1-.1-1.2.2-1.7.4-2-.9-.2-.8 2-1.5 2.7-2.1 2.1-1.7 3.7-3.3 4.5-6 .8-2.7 2.1-4.1 3.1-6.6 1-2.7.6-3.7-2.1-5-1.2-.6-2.5-.8-3.7-1.2-1.9-.4-2.5-1.4-1.9-3.3.4-1.2 1-2.3 1.9-3.3 1.2-1.4 2.7-1.7 4.1-.2.8.6 1.4 1.7 2.1 2.5 1.2 1.2 2.3 1.2 3.3 0 .8-.8 1.4-2.1 1.9-3.3.4-1.2.6-2.7.8-4.1.2-1.4.8-2.7 1.7-3.7 1-1.4 2.1-3.1 2.7-4.7.2-.6 0-1.7-.4-2.3-.4-.6-1.2-1-1.9-1.7-1.7-1.2-1.7-1.9-.2-3.3.2-.2.4-.4.6-.4 3.7-2.9 6-6.4 6.2-11.4 0-.4 0-1 .2-1.2.4-.4 1-1 1.7-1.2.4 0 1 .6 1.4 1 .2.2.4.6.4.8.6 5 2.9 9.5 5 14 1.7 3.5 13.2 30.1 17.8 39.6 1 2.1 2.5 3.9 4.3 5.4 1 .8 2.3 1.7 1.7 3.3-.6 1.4-2.3 1.2-3.3.8-5.4-1.4-10.9-1-16.5-1-1.3.5-2.3.3-3.8-.1zm-17.5-21.3c.2 2.9 1.7 4.5 3.3 6 1.2 1.2 1.9 1.2 3.5.2 1.4-.8 2.9-1.7 4.3-2.7.8-.6 1.7-1.2 2.3-1.9 1-1 1.2-2.1.6-3.3-2.1-3.9-3.9-7.8-6-11.6-.8-1.7-2.1-1.7-2.9.2-.6 1-.8 2.3-1.2 3.5-.6 2.7-1.4 5.2-3.1 7.2-.4.8-.6 1.8-.8 2.4zm132.7-73.2c-.8 0-1.7.2-2.5 0-4-.9-10.6-1.6-18.4-.1-1.4 0-2.1-1-1.2-2.3 1.4-2.5 1.3-6.3-.1-8.4-3.1-4.3-9.5-13.8-9.7-14.2-1.9-2.1-3.1-2.1-5 0-2.1 2.1-3.9 4.1-5.8 6.4-.6.6-1 1.7-1.2 2.5-.2 1.9-.2 3.7-.2 5.6 0 2.1.5 6 2.1 7.5.4.4.6 1.7.4 2.3-.2 1-1.2.8-2.1.8-.4 0-.6 0-1-.2-4.1-1.2-9.3-.5-13.4.1-.8 0-1.9.2-2.7 0-1.4-.2-2.1-1.2-1.2-2.5.2-.2.4-.6.6-.8 2.1-1.7 3.7-6.3 3.7-8.8.2-5.8 1-29.1 1.2-31.2.2-2.7-1-1.7-2.9-4-.8-1-2.4-3.3-1.6-4.7.8-1.2 5.4.4 9.7.5 6.2-.2 3.3-.7 8.2-.9.8-.2 1.2.1 1.8 1 .6.8.2 1.7-.4 2.3-3.1 3.3-2.1 4-1.8 7.9-.1 4.1-.8 12.6-.6 13.2.2.8.2 1.9.8 2.5.8.8 1.7-.2 2.3-.8 2.1-1.9 4.3-3.7 6.2-5.6 3.3-3.3 11.5-10.8 12.7-12.2.8-1 2.7-4.5 2.3-5.8-.4-1.9 0-2.7 2.1-2.7h5.8c.6 0 1.5.1 1.7.8.1.7-.1.8-.5 1.5l-1.1.6c-3.3 1.2-11.3 10.4-13 12.4-1.2 1.7-1.2 1.7 0 3.5 4.3 6.2 15.3 21.9 16.5 23.5 1.2 1.4 2.4 4.6 3.9 5.8 1.7 1.2 3.1 1.8 4.7 3.2-.4.1-.1 1-.3 1.3zm-303.5 77.4c.2-1 .4-1.7.6-2.1.4-2.7 1.9-18 2.1-21.3 0-2.7-.6-5.2-2.3-7.4-.8-1.2-2.3-1.9-3.7-2.1-1 0-2.1-.2-2.9-.6-.4-.2-.6-.8-.6-1.4 0-.4.6-.8 1-.8.6-.2 1.2 0 2.1 0 3.7.2 7.4.4 11.2.6.8 0 1.9-.2 2.7-.4 1 0 2.1-.2 3.1-.2.8 1.7 0 2.3-.8 2.9-4.3 2.7-5.8 6.6-6.2 11.6-.2 5-.4 21.1-.6 23.1-.2 1.7.2 2.7 1.2 3.9.8.8 1.7 1.7 2.7 2.3 1.7 1.2 1.9 2.3.6 3.7-2.5 2.9-3.1 6.4-3.3 10.1 0 1.4 0 2.9-.2 4.3-.2.8-.4 1.9-1.7 1.9-1 0-1.7-.6-2.1-1.4-.2-.2-.2-.4-.2-.6-1.2-4.7-4.1-8.7-7-12.4-2.5-3.1-20.2-25.8-24.8-31.6-.8-1-1.7-1.9-2.5-2.7-.8-.8-1.7-1-2.7-.6-1 .4-1.9 1.2-1.7 2.5 0 1-.8 20.7-.6 24.4 0 1.9 0 4.3.6 6.2.8 2.3.4 1.9 2.8 2.7 1.8.2 2.2.2 2 1.5-.4 1-.6 1.1-1.4 1.2-2.3-.8-5.4-.6-9.1-.2-1-.4-1.6-1.7-.3-3.1 2.1-2.3 2.3-5 2.3-7.8-.2-5 2.5-33.9-1.2-35.9-1-.6-2.3-1.2-3.5-1.9-.2-.2-.6-.2-.8-.4-.6-.6-1.4-1-1-2.1.4-1 1.2-1.2 2.3-1 .8.2 1.9.4 2.7.4 1.9 0 3.9.2 6 0 4.1-.2 8.5-.4 12.6-.6h.4c1.2.2 2.1 1 1.2 2.1-2.1 3.3-.6 5.8 1.2 8.3 3.9 5.2 16.1 20.7 18.4 23.1-.3.3.4.9 1.4 1.8zm128.7-130.1c3.3-.4 10 2.3 13.8 3.7 2.9 2.3 5.1 2.6 9.1 7.7 3.8 6.6 4.6 14.9 2.7 22-1.8 6.8-5.7 10.5-7.2 11.3-5.1 5.2-13.4 7-15.1 7.4-3.7.6-7.2.8-10.7 0-.8-.2-5.6-1.7-9.5-4.4-1.4-1-5.2-2.7-8.1-10.9-3.6-8.7-2.8-19.6 1.6-25.1 4.7-6.6 8.4-8.5 11.1-9.9 2.9-1.5 8.4-2 12.3-1.8zm-14.5 34.7c-.6 6.8 2.3 10.3 7.2 13.8 2.8 1.1 8.7.8 10.5.4 3.3-.8 5.4-3.3 7.4-5.8 1.4-1.7 2.1-3.7 2.3-6 .4-3.3.5-21.9-.1-24.6-.4-2.3-1-4.3-2.7-6-3.7-3.5-8.1-4.7-13.2-3.9-4.7.8-8.3 3.5-10.3 7.8-1 2.8-1.1 23-1.1 24.3zM314.8 278c-.2 1.7-.4 7.4-.4 8.7 0 6-.1 21.4-.1 24.3 0 3.5 2.7 6.6 6.2 7.4.6.2 1.5 1.1 1.3 1.9-.2.4-1.5 1.3-2.1 1.1-6.5-1.3-15.2-1.5-22.3-.3-.6.2-1.2.4-1.9.2-.4 0-.8-.4-1-.8-.2-.4 0-.8.2-1.2.2-.2.4-.4.8-.6 4.7-2.5 6.5-4.7 6.5-9.6.2-8.3 1-33.5.4-35.1-1-3.1-3.1-4.5-6.4-2.7-5.4 3.1-8.3 7.6-9.9 13.2-.2.8-.6 1.9-1 2.5-1 1.2-2.3 1.2-2.9-.4-.4-1-.2-2.1 0-3.1.6-2.3 1-4.5.8-6.8-.2-1.7-.4-3.3-.4-5 0-3.1 1.9-4.7 5.2-4.5 3.1.2 43.6.4 46.5.2 2.9-.2 4.5 2.1 3.9 4.3-.4 2.1.2 4.1.2 6.2.2 1.7.2 3.3.2 5 0 1-.2 2.3-1.7 2.5-1.2.2-1.7-1-2.1-2.1-.2-.4-.2-1-.4-1.4-1.4-4.3-3.9-8.1-8.7-9.5-1.4-.4-2.7-1.2-4.1-1.7-3.5-1.4-6.4.4-6.8 4.1-.2 1 0 2 0 3.2zm-139-59.3c1.7 2.5 7.2 6.4 8 7.5-1 .2-4.2-1.5-4.8-1.5-1.7 0-1.4-.2-3.1 0-1.4 0-2.6 1.8-4.1 2-.4 0-31.4-.8-34.5-.8-2.5 0-5.2.2-7.6.4-.8 0-1.7.1-2.5.2-2.2.2-2.3.4-2.7-.8-.4-1.2.8-1.7 1.7-2.3 2.9-2.3 3.7-5.6 3.9-9.1.4-4.7 1-25.6 1.2-28.1.2-2.9 0-6.9-2.7-8.9-.4-.2-.8-1.4-.6-1.7.4-.4 1.3-1.6 1.9-1.6 2.9-.2 5.8 0 8.7-.2 1.2 0 2.3.1 3.6 0 0 0 2.1.3 3.2.1 8.5-.4 16.9-.2 25.4 0 2.9 0 3.7 1 3.7 3.7-.2 2.3-.2 4.5-.4 6.8 0 .6 0 1.2-.4 1.7-.4 1-1.4 1.2-2.3.4-.8-.8-1.7-1.7-2.1-2.7-2.1-4.7-6-6.8-10.9-6.8-2.9 0-6 0-8.9.2-3.3.2-4.5 1.4-4.7 4.7-.2 2.9-.2 6-.2 8.9 0 2.5 2.5 3.5 4.7 2.5 2.7-1.2 5-3.3 6-6.4.4-1 .6-2.3 2.1-2.1.8 0 1.4 1.2 1.2 2.9-.2 2.7.2 12 .6 13.8.2 1 .4 2.3.4 3.3 0 .4-.4 1.2-.8 1.2-.6 0-1.4-.2-1.7-.6-.6-1-1-2.1-1.4-3.1-1.2-2.9-3.1-4.7-6.2-5.6-.6-.2-1-.2-1.7-.2-1.9 0-3.1.8-3.5 2.5-1 3.5-1.2 13.4-1.2 14.9 0 1.9-.2 3.7-.2 5.6 0 2.1.4 2.7 2.5 2.7 2.9.2 21.3-.4 22.1-.6 2.3-.2 2.9-.8 2.9-3.1v-4.1c0-1.2.4-2.3.6-3.5 2.8 2.9 2.3 4.3 4.8 7.8z"/>
        <path d="M180 302c-.8-.8-1.7-1.7-2.3-2.7-2.9-5.4-8.1-5.8-13.2-5.6-.6 0-1 .4-1.4.8-1.2 1-1.9 2.5-1.9 4.1-.2 5.6-.4 8.9-.4 14.5 0 3.5 1 4.7 4.5 5 3.7.2 22.9-.2 24.4-.6 2.1-.4 3.3-1.9 3.3-3.9 0-1.2-.2-2.3-.4-3.5-.2-1.9-.4-3.7-.6-5.6 0-1 .4-1.9 1.4-2.1s1.7.6 2.1 1.4c.2.4.4 1 .4 1.7-.6 4.7 1.9 8.3 4.5 11.6.6.8 1.7 1.2 1.2 2.5-.6 1.2-1.9.8-2.9.8-2.1 0-4.3-.4-6.2.8-.4.2-1.2.2-1.9.2H171c-3.1 0-14.1-1.3-21.5-.6-2.5.6-3.4 1.1-4.5-.4 0-1.4 1-1.9 1.9-2.5 2.5-1.7 3.3-3.9 3.5-6.8.2-2.7 1.7-21.5 1.4-26.8 0-2.5-.4-5.2-.8-7.6-.2-1-1-1.9-1.9-2.5-1-.8-2.5-1.2-3.7-1.9-.8-.4-1.4-.8-2.7-1.2 2.3-1.4 4.1-1.2 6.2-1 4.3 0 39 .4 41.1.2 4.5-.6 6.2.2 5.8 5.2-.2 2.5 0 5 0 7.4 0 1 .4 2.5-1 2.7-1.2.2-1.4-1.2-1.9-2.1-.8-1.4-1.7-2.9-2.7-3.9-3.5-3.5-7.8-5.8-12.8-6.2-3.3-.2-6.4-.4-9.7-.4-.8 0-1.9.2-2.7.4-1.9.2-2.7 1.4-2.9 3.3-.4 3.3-.6 6.6-1 9.9-.2 3.5 3.1 6 6.4 4.5.4-.2.6-.4 1-.6 3.9-1 5.2-3.7 5-7.4v-.4c0-1 .4-1.9 1.4-2.1 1.2-.2 1.9.8 2.1 1.9.4 1.4.4 2.7.6 4.1.2 1.7 2.3 10.9 2.9 13.8.2.6 0 1.4 0 2.1-.1-.7-.3-.7-.5-.5zm301.9 18.2c.6-.6 1-1.2 1.7-1.9 2.3-2.1 3.7-5.8 3.7-8.9 0-9.7.2-33.5 0-35.7-.2-1.7-1-3.1-2.5-4.1-1-.6-2.3-1.4-1.9-2.9.4-1.7 2.1-1.2 3.1-1 5.8.2 11.8.4 17.6.6.6 0 1.4.4 1.9.8.6.8-.2 1.4-1 2.1-2.7 1.7-3.9 4.1-3.9 7.2 0 3.7-.4 28.5-.4 37.2 0 2.9.4 3.3 3.3 3.5 2.9.2 6 .4 8.9.6 1.2 0 2.5.2 3.7 0 2.3-.2 3.7-1.4 3.7-3.7 0-3.9-.2-7.8-.4-11.8 0-.8-.4-1.7-.2-2.5.2-.6.8-1.2 1.4-1.4.4-.2 1.2.4 1.4.8.4 1 .8 2.3 1 3.5 1 6.8 5.8 13.2 12.2 16.1.2.2.6.2.8.4.4.4.6 1 .6 1.4 0 .2-.6.8-1 .8-1.7 0-3.5.2-5.2-.2-3.9-.8-7-.1-11.6.1-.6.2-29.5 0-34 0-.8 0-1.7 0-2.7-.2 0-.4 0-.6-.2-.8zm-123.7-146c.2 0 .8-.2 1.4 0 .4.2 1.2.6 1.2.8 0 .6-.2 1.2-.6 1.7-.4.4-1 .8-1.7.8-2.3.6-3.3.3-4.5 2.2-.6 1-15.5 18.8-17.1 20.9-.6.6-.8 1.7-.8 2.5-.4 4.1-.6 8.5-1 12.6-.2 1.7.2 6.3 1.4 7.5.6.8 1.9 1.7 1 2.7-.6 1.2-2.1.8-3.1.6-1.9-.4-9.9-.5-12.9 0-.4.1-1.2.5-1.5-.1-.2-.4 0-1.2.4-1.4 2.7-2.3 3-8.7 3-12 0-1.7-.4-13.2-2.9-16.9-2.9-3.9-5.8-8.1-8.5-12.2-1.9-2.7-4.1-3.7-6.8-5.8-.2-.2-.6-.4-.8-.6-.6-.6-1.9-1-1.4-2.1.4-1.2 1.7-1.4 2.7-1.2 5 .9 11.2.9 16.5.1 1.2.2 1.9 1.5 1.3 2.4-2.3 3.3-.7 5 1.2 7.8 2.3 3.5 6.8 10.7 6.8 10.9 2.1 2.7 2.7 2.5 4.5.4 3.3-3.5 12.4-14.5 13.4-16.3.6-1.2.4-.5-.2-2-1-2.1-.2-3.1 2.1-3.3 2.3.3 4.6.3 6.9 0zm9.5 93.9l-1.7 1.7c-1.4.6-2.1 1.9-2.1 3.3-.2 3.1-.9 15.9-.8 18 0 1.5-.2 1.6-.1 3.3-.1 1.8-.5 2.8-.5 4.5-.2 3.7 0 7.6 0 11.4 0 2.7.8 5.2 2.3 7.4.2.4.4.6.6 1 1 1.9.6 2.5-1.7 2.5-.8 0-1.9 0-2.7-.2-3.9-.4-8.1-.6-12 0-.6.2-1.9 0-2.3-.4-.6-.8-.2-1.9.4-2.5 3.3-2.9 3.7-6.8 3.7-10.7 0-5.6.4-11.2.4-16.7v-8.5c0-1.2-.2-9.3-2.3-11.8-.6-.8-2.1-1.4-1.4-2.7.6-1.2 2.1-1 3.1-.8 5.2.2 10.1.4 15.3.6.5.2.9.4 1.8.6zm4.1-.4c.8 0 1.7-.2 2.3-.2 7 0 13.8-.2 20.9.2 5.2.4 9.5 2.7 11.8 8.1 2.1 4.7 1.7 8.1-1.9 12-1.7 1.9-11.4 5.2-14 6-2.5.8-3.3 2.9-1.9 5.4 1.9 3.1 3.7 6.2 5.4 9.5.4.6 3.7 6.8 6.2 8.5 1 .6 1.9 1.2 2.7 2.3.8 1 .2 2.3-1 2.3-.8 0-1.7-.2-2.5-.6-2.3-.8-4.5-1-7-.4-1.9.4-3.7.4-5.6.6-1.4 0-2.1-.4-2.1-1.9 0-.4 0-.8.2-1.2 1-2.5 0-4.5-1.2-6.8-1.9-2.9-3.5-5.8-5.2-8.7-1.2-2.3-2.7-4.3-4.5-6.2-.4-.4-1-1.4-.8-1.9.4-.6 1.2-1.2 1.9-1.2 2.7-.2 5.4-.2 8.1-.2 4.1.2 7.4-1.4 9.5-5.2 1.2-2.3 2.1-5 2.7-7.6.4-2.5-.6-4.5-2.5-6.2-1.9-1.4-3.9-2.9-6-3.9-1-.6-2.5-.6-3.7-.8-2.9-.2-6 0-8.9 0-.8 0-1.9-.4-2.7-.6-.4-.7-.2-.9-.2-1.3zm-244.3 120c-3.3 0-5.8-3.3-4.7-6.4.6-2.1 1-3.9 1.9-6 .6-1.4.4-2.9-.6-4.1-2.3-3.3-1.2-6 2.7-6.8.8-.2 1.9-.4 2.7-.6 1.4-.4 2.7.2 3.7 1.4 1.2 1.4 1.2 2.5-.2 3.9l-1 1c-1.2 1-1.4 2.3-.8 3.7.4 1 .6 2.3.6 3.5.2 1.4.4 3.1.6 4.5.7 3.4-1.4 5.9-4.9 5.9zm377.7-7.2v1c-.2 4.1-2.9 7.2-6.8 7.8-.6.2-1.2 0-1.7 0-2.1-.6-3.7-4.7-2.9-6.6.8-1.7 1.2-3.1.6-5-.4-1 .2-1.9 1.2-2.3 1.4-.4 2.9-.8 4.3-1.2 1-.2 2.1 0 2.9.8 1.6 1.7 3 3.2 2.4 5.5zm-16.7-3.8c-.6 1.4-1.7 1.4-2.7 1.2-3.1-.6-6 0-9.1.6-3.3.8-6.6.6-9.7.4-.8 0-1.7-.6-2.3-1.2-.4-.4-.6-1.2-.4-1.7.2-.4 1-.6 1.7-.8h.4c3.1 1 5.8-.2 8.7-1.2 1.9-.8 3.7-1 5.8-.2 1.4.4 3.1.6 4.5 1 1.2.1 2.2.7 3.1 1.9zm-329.8-1c-.6.4-1.2.8-1.9 1-1.4.4-2.7.4-4.1.6-3.3.4-6.6.8-10.1 1.2-1.9.2-3.9.2-5.2-1.4-.4-.6-1-1.4-.8-1.9.2-.6 1-1 1.7-1.2 1.7-.2 3.3-.6 5-.6 4.3 0 8.7.2 13 .4.8 0 1.7.6 2.5.8-.1.5-.1.7-.1 1.1zm-51.8.8c0-2.3 1.9-4.1 3.9-4.3 2.1-.2 4.7 1.9 5 3.7.2 1.4-.8 2.3-1.9 2.9-1 .6-2.3 1-3.5 1-2.1.7-3.8-1-3.5-3.3zm410.1-3.1c1.9 0 3.9 1.4 4.5 2.9.6 1.7 0 3.3-1.4 4.3-1 .8-2.3 1-3.5.2-1-.8-2.1-1.7-2.9-2.7-.4-.4-.4-1.4-.2-1.9.8-1.5 2-2.8 3.5-2.8zm-18-9.5c1.9-.2 3.1.6 4.1 2.1 1.2 1.7.2 3.5-1.9 3.5-1.7 0-3.3-.2-5-.6-2.1-.4-2.5-2.5-1-3.9 1.1-.9 2.4-1.1 3.8-1.1zm34.3 13.9c0 1.7-1.4 2.9-3.5 2.9-1.4 0-2.9-1.2-2.7-2.5 0-1.2 2.3-2.9 3.9-2.9 1 0 2.3 1 2.3 2.5zm-435.7.6c-.2 0-.6-.2-1-.2-1.7-.4-2.5-1.4-2.3-2.7.2-1.2 1.7-1.9 3.1-1.7.4 0 1 .2 1.4.4.8.4 1.7 1 1.4 2.3 0 .9-1.2 1.9-2.6 1.9zm60.5-14.8c0 1 1.6 2.6-11.2 1.4-9.8 0-10.2-.6-10.4-1.6 0-1 .7-1.7 11-1.7 16 .4 10.8 1.1 10.6 1.9zm262 10c-4 0-3.8-.6-3.8-1.8 0-2.1 0-2.3 4.8-2.3 1.4 0 2.5.8 2.5 1.9 0 1-1.6 2.2-3.5 2.2zm-132.4 4.2c-2.1 0-3.5-.8-4.1-2.3-.6-1.7.2-2.9 1.2-3.9 1.2-1.2 3.3-1.4 4.7-.8 1.7.8 2.5 2.5 2.3 3.9-.2 1.2-1.4 2.5-3.1 2.7-.3.4-.7.2-1 .4zm-46.2-7c3.3-.4 4.7 1.7 4.3 5-.2 1.2-.8 1.9-1.9 2.5-4.3 2.1-6 .8-5.8-3.7v-.2c.3-3.2.5-3.6 3.4-3.6zm100.9 1c0-1.4-.4-2.1 2.9-2.1 1.4 0 2.5.8 2.5 1.7 0 1.2 0 2.5-3.1 2.5-2.3-.1-2.3-.7-2.3-2.1z"/>
    </g>
    <path class="color-orange" fill="#d23a1e" d="M374.5 269.4l-10.1-.1.3-1.9 9.4.1zm-.2 27h-12.1l.2-3.2 12.9.1z"/>
    <circle fill="none" stroke="#000" stroke-miterlimit="10" stroke-width="5" cx="306" cy="306" r="306"/>
</svg>
