<svg xmlns="http://www.w3.org/2000/svg" viewBox="0 0 612 612">
    <path class="color-blue" fill="#021647" d="M532.3 490.4H81.7V120.5h450.6c.5 5 0 367.7 0 369.9zM103.4 144v323.5h407.2V144H103.4z"/>
    <path class="color-yellow color-reserved-white" fill="#f8e828" d="M103.4 144h407.2v323.5H103.4V144zm395 311.2c2.1-10.7 1.7-291-.3-298H114.4v298h384z"/>
    <path class="color-blue" fill="#021647" d="M498.4 455.2h-384v-298h383.7c2 6.9 2.3 287.3.3 298zM381.5 276.8c-5.5 4.6-11.4 7.7-19.1 5.3V258c4.3.9 7.9 1.6 11.7 2.5-.3-3.8-.5-7.3-.7-9.9-4 .7-7.3 1.3-10.8 1.9v-23.7c8.6-1.1 8.6-1 17.2 3.3-1.2-3-2-5.3-2.8-7.2h-25.3c.8 3.2 2 6 2 8.8.2 15 0 30 0 45.1 0 4.2-1.5 7-6 8.2-4.7-1.9-7.8-5.2-9.4-10.4-1.5-4.9-4-9.7-6.1-14.7 6.8-5.2 10-12 9.3-20.8-.8-10.5-6.9-16.3-17.4-16.5-5-.1-9.9 0-14 0 2.3 21.4 2.6 42.2 0 63.4h12.3c-3.8-7.6-3.1-15.3-2-23.1 6.9.2 9.1 1.4 10.8 6.4.8 2.5.8 5.3 1.4 7.9 1.7 8.5 3.6 9.7 12.3 8 1.5-.3 3.1-.3 4.7-.3 9.5.3 19 .8 29.1 1.3 1.1-4.6 1.9-8 2.7-11.4l.5-.3-.4.3zm-249 46.4c4.1 9.2 4.2 51.9.3 62.3 3 .2 5.8.3 8.9.5-4.8-13.9-1.9-27.3-.6-40.7 3.1 9 6.4 18 10.1 28.7 1.8-6.6 2.5-11.5 4.4-16.1 1.8-4.5.5-10.2 5.7-14.4 0 8 .2 15-.1 22-.3 6.7-.8 13.5-1.4 20.2h10.9c-5.3-10.4-2.6-20.8-2.6-30.9 0-10.3-2.1-20.9 3-31.1h-10.6c-4.2 8.8-3 19-9.1 27.9-3.5-10.1-6.5-19.1-9.7-28.4h-9.2zm140 66.7c10.2.5 16.7-5.6 20.3-14.2 5.4-13 5.8-26.5.2-39.6-2.6-6-7.2-10.7-14.2-11.1-6.7-.4-11.4 3.6-14.1 9.3-2.1 4.4-3.9 9.2-4.7 14.1-2.5 14.1.6 27.1 9.6 38-1.1 2.9-2 5.1-2.8 7.2 4.4 1 7.9 1.8 11.4 2.6 4.5 1 4.5 1.1 9.4-3.7-5.7-1.1-10.4-1.9-15.1-2.6zm-51.7-2.1h13c-4-7.7-3-15.2-2.4-22.6 8 .3 9.5 1.3 10.9 7.5.8 3.2.8 6.7 1.8 9.8 1.9 5.8 5 6.8 10.3 4.2-3.6-8-7.3-16-10.8-23.9 7-7.7 9-11.6 9.2-18.4.4-9.7-5.6-18.4-13.8-19.2-5.8-.6-11.9-.1-18-.1 3.3 9.4 3.2 53.2-.2 62.7zm131-5.9v-23c4.2.8 7.5 1.5 10.8 2.2v-9.7c-3.8.5-7.1.9-10.7 1.4V328c6.4 1.3 11.7 2.4 17.3 3.5-.4-1.5-1-3.9-1.4-5.9h-27.4c3.2 9.3 3 53 0 61.8h27.3c1.6-3.7 2.9-6.6 4.2-9.5-6.3 3.8-12.3 5.5-20.1 4zM283 253.6v-24.1c7.1-3 11.8 1.1 18.2 5.1-1.5-4.4-2.5-7.1-3.5-10h-26.4c3.2 9.3 3.4 53.2.6 63.3h26.6c1.6-3.8 3-7.1 4.4-10.4-6.2 4.9-12 8-19.5 5.1-2.1-10.2-1.8-16.9 1.1-23.6 2.7.7 5.5 1.3 8.7 2v-10.8c-2.9.9-5.8 1.9-10.2 3.4zm-48.1-28.3c1.9 20.9 2.4 41.8-.5 62.9h10.9c-.5-7.1-.9-14.1-1.4-21 7.4-2.3 14.2-2.7 18.1-9.5 3.5-6.2 5.1-12.7 3-19.1-4.2-12.7-9.2-16.2-30.1-13.3zm86.3 100.2c1.2 2.5 2.5 4 2.5 5.4.2 15.2.3 30.6 0 45.8-.1 3.6-2.5 6.4-6.4 6.3-4.6-.1-6.5-3.4-6.4-7.4.4-16.7-1.4-33.5 1.6-50.1h-10.9c.7 4.7 1.7 8.8 1.8 13 .3 10.9 0 21.9.1 33 0 2.6.2 5.3.8 7.9 1.7 5.6 6.4 9.1 11.7 9.2 4.8 0 10.1-3.9 11.6-9.3.8-2.8.9-5.9 1-8.9.1-10-.1-20 .1-29.9.1-4.8 1-9.7 1.6-14.9-2.4-.1-5.2-.1-9.1-.1zM188 388.3c-8-7.4-3-13-1.9-18.7h14.8c1 6.2 1.9 11.9 2.9 18.1h10.8c-1.4-4.2-3-8.2-4.2-12.3-4.4-15.7-8.6-31.3-13-46.9-.5-1.9-1.6-3.7-3.3-7.5-7.5 23.2-10.1 45.6-18.4 66.8 3.5.1 6.4.3 12.3.5zm272.2-6.3v-22.7c4.2.8 7.5 1.5 11.2 2.2v-9.8c-3.9.5-7.2.9-11 1.4v-23.3c7-2.2 12.5-.2 19.1 5.6-1.9-5-2.7-7.4-3.7-10.1h-27.4c5.6 9.8 2.7 20.2 2.9 30.2.1 10.3 2.2 20.9-2.7 31.4h28.5c1.4-3 2.6-5.9 3.8-8.8-6.5 4.8-13 5.6-20.7 3.9zm-52.7-48.8c-1.2-3.3-2.1-5.8-3-8.2h-27.6c-.8 2.9-1.6 5.5-2.7 9.1 4.5-2.5 6.5-7.3 12.1-4.1 0 9.1.2 18.6-.1 28.2-.3 9.4 1.4 18.9-2.1 28.5h14.3c-3.4-7.5-4.2-47.9-.9-58.8 3.2 1.7 6.2 3.3 10 5.3zm14.6-5.7c-.3 20.6 1.1 39.6-1.2 59h11.9c-3.9-19.2-.9-38.2-1.6-59.1 4.9 2.1 8.2 3.6 11.8 5.2-.8-2.6-1.6-5.1-2.5-7.6h-26.3c-.9 2.8-1.7 5.2-2.7 8.2 3.4-1.9 6.1-3.3 10.6-5.7z"/>
    <path class="color-yellow color-reserved-white" fill="#f8e828" d="M381.4 276.7c-.8 3.4-1.6 6.9-2.7 11.4-10.3-.4-19.7-.8-29.1-1.3-1.5-.1-3.2-.1-4.7.3-8.6 1.8-10.6.5-12.3-8-.5-2.6-.6-5.3-1.4-7.9-1.6-5.1-3.8-6.3-10.8-6.4-1.1 7.8-1.9 15.5 2 23.1h-12.3c2.6-21.2 2.4-42 0-63.4 4.1 0 9.1-.1 14 0 10.5.2 16.5 6 17.4 16.5.7 8.7-2.5 15.6-9.3 20.8 2.1 5.1 4.6 9.7 6.1 14.7 1.6 5.3 4.7 8.6 9.4 10.4 4.5-1.2 6-4.1 6-8.2 0-15 .2-30 0-45.1 0-2.8-1.3-5.6-2-8.8H377c.8 1.9 1.6 4.2 2.8 7.2-8.6-4.4-8.6-4.4-17.2-3.3v23.7c3.5-.6 6.8-1.2 10.8-1.9.2 2.6.4 6.1.7 9.9-3.8-.8-7.4-1.5-11.7-2.5V282c7.7 2.4 13.6-.8 19.1-5.3h-.1zm-61.3-16.6c11.1-2.1 15.4-8.1 14.5-18.6-.8-9.6-5.1-13.6-14.5-13.3v31.9zm-187.6 63.1h9.4c3.1 9.2 6.3 18.2 9.7 28.4 6-8.9 4.9-19.1 9.1-27.9h10.6c-5.2 10.3-3 20.8-3 31.1 0 10.1-2.7 20.5 2.6 30.9H160c.5-6.8 1.1-13.6 1.4-20.2.3-6.9.1-14 .1-22-5.2 4.2-3.9 10-5.7 14.4-1.9 4.6-2.7 9.6-4.4 16.1-3.7-10.7-6.9-19.7-10.1-28.7-1.4 13.5-4.2 26.8.6 40.7-3-.2-5.9-.3-8.9-.5 3.7-10.4 3.5-53.1-.5-62.3zm140 66.7c4.7.8 9.5 1.5 15 2.5-4.9 4.8-4.9 4.8-9.4 3.7-3.5-.8-7-1.6-11.4-2.6.8-2.1 1.7-4.3 2.8-7.2-9-10.8-12-23.8-9.6-38 .8-4.8 2.5-9.7 4.7-14.1 2.7-5.7 7.5-9.7 14.1-9.3 6.9.4 11.6 5.1 14.2 11.1 5.7 13.1 5.3 26.7-.2 39.6-3.6 8.7-10.1 14.8-20.2 14.3zm3.7-8.6l-.3-.3c-.1.9-.2 1.9-.3 2.9 6.9-.2 9.5-1.6 11.3-8.3 3.5-13 3.8-26.2-.5-39.2-.6-1.9-1.6-3.7-2.8-5.2-3-3.6-6.9-3.7-10.2-.3-1.5 1.7-3 3.6-3.6 5.8-4.4 14.7-4.7 29.2 1 43.3 2.2.6 3.8 1 5.4 1.3zm-55.4 6.5c3.4-9.4 3.6-53.2.2-62.6 6.2 0 12.1-.5 18 .1 8.2.8 14.2 9.6 13.8 19.2-.3 6.8-2.2 10.7-9.2 18.4 3.6 7.9 7.2 15.8 10.8 23.9-5.3 2.5-8.5 1.6-10.3-4.2-1-3.1-1-6.6-1.8-9.8-1.4-6.2-3-7.2-10.9-7.5-.6 7.5-1.6 14.8 2.4 22.6-4.6-.1-8.8-.1-13-.1zm10.9-27.9c10.2-.7 15.2-7.5 14.1-18.5-.9-9-5.4-12.9-14.1-11.9v30.4zm120.1 22c7.8 1.6 13.8-.2 19.9-4.2-1.3 2.9-2.5 5.8-4.2 9.5h-27.3c3-8.6 3.2-52.4 0-61.8h27.4c.5 1.9 1.1 4.3 1.4 5.9-5.6-1.1-10.8-2.2-17.3-3.5v24.8c3.5-.5 6.9-.9 10.7-1.4v9.7c-3.4-.7-6.7-1.4-10.8-2.2.2 8.2.2 15.3.2 23.2zM283 253.6c4.3-1.4 7.2-2.4 10.3-3.4V261c-3.2-.8-6-1.4-8.7-2-2.9 6.8-3.1 13.5-1.1 23.6 7.5 2.9 13.2-.2 19.5-5.1-1.4 3.3-2.8 6.6-4.4 10.4H272c2.8-10.1 2.6-54-.6-63.3h26.4c1 3 1.9 5.6 3.5 10-6.4-3.9-11.2-8.1-18.2-5.1-.1 7.1-.1 14.6-.1 24.1zm-48.1-28.3c20.9-2.9 25.9.5 30 13.2 2 6.4.5 13-3 19.1-3.8 6.8-10.7 7.1-18.1 9.5.5 6.9.9 13.9 1.4 21h-10.9c3-21.1 2.4-41.9.6-62.8zm9.3 3.5c-.3 11.5-.6 22.2.3 33 10.8-2.3 14.4-7.7 13.6-19.1-.5-9.5-3.9-13-13.9-13.9zm77 96.7h9.1c-.6 5.3-1.4 10.1-1.6 14.9-.3 10 0 20-.1 29.9 0 3-.2 6-1 8.9-1.5 5.4-6.8 9.3-11.6 9.3-5.2 0-10-3.6-11.7-9.2-.8-2.5-.8-5.3-.8-7.9-.1-11 .2-21.9-.1-33-.1-4.2-1.1-8.3-1.8-13h10.9c-3 16.7-1.2 33.4-1.6 50.1-.1 4 1.9 7.3 6.4 7.4 4 .1 6.4-2.6 6.4-6.3.3-15.2.2-30.6 0-45.8 0-1.3-1.3-2.8-2.5-5.3zM188 388.3c-5.9-.3-8.8-.4-12.2-.5 8.2-21.2 10.9-43.5 18.4-66.8 1.7 3.7 2.8 5.5 3.3 7.5 4.4 15.7 8.6 31.3 13 46.9 1.2 4.1 2.7 8 4.2 12.3h-10.8c-1-6.3-1.9-12-2.9-18.1h-14.8c-1.2 5.8-6.2 11.4 1.8 18.7zm10.7-23.8c-.9-7.3-1.8-13.9-6.3-21.7-1.9 8.3-3.3 14.7-4.9 21.7h11.2zM460.2 382c7.7 1.7 14.2.9 20.7-3.8-1.3 2.9-2.5 5.8-3.8 8.8h-28.5c4.9-10.5 2.8-21.1 2.7-31.4-.1-10.1 2.7-20.5-2.9-30.2h27.4c1 2.7 1.9 5.1 3.7 10.1-6.6-5.8-12.2-7.8-19.1-5.6v23.3c3.8-.5 7.2-.9 11-1.4v9.8c-3.7-.8-6.9-1.4-11.2-2.2V382zm-52.7-48.8c-3.9-2-6.9-3.6-10-5.3-3.2 10.9-2.5 51.3.9 58.8h-14.3c3.6-9.7 1.9-19.1 2.1-28.5.3-9.5.1-19.1.1-28.2-5.6-3.2-7.6 1.7-12.1 4.1 1.1-3.6 1.9-6.2 2.7-9.1h27.6c.9 2.4 1.8 5 3 8.2zm14.6-5.7c-4.4 2.4-7.1 3.8-10.6 5.7 1-3 1.8-5.4 2.7-8.2h26.3c.8 2.5 1.6 5 2.5 7.6-3.6-1.5-6.8-3-11.8-5.2.7 20.8-2.3 39.9 1.6 59.1h-11.9c2.3-19.4.8-38.4 1.2-59z"/>
    <path class="color-yellow color-reserved-white" fill="#f8e828" d="M381.5 276.8l.4-.4-.5.3z"/>
    <path class="color-blue" fill="#021647" d="M320.1 260.1v-31.9c9.4-.3 13.6 3.7 14.5 13.3.9 10.5-3.4 16.5-14.5 18.6zm-43.9 121.2c-1.6-.3-3.1-.7-5.4-1.2-5.7-14.1-5.5-28.6-1-43.3.7-2.1 2.1-4.2 3.6-5.8 3.2-3.5 7.2-3.4 10.2.3 1.3 1.5 2.2 3.3 2.8 5.2 4.3 13 4 26.2.5 39.2-1.8 6.7-4.4 8-11.3 8.3.1-.9.2-1.9.3-2.9.3-.7.4-1.4.2-.5-.2-.9 0 0 .1.7zm-44.5-21.4v-30.3c8.6-1 13 2.9 14.1 11.9 1.1 10.8-3.9 17.7-14.1 18.4zm12.5-131.1c10 .9 13.4 4.5 14 14 .8 11.4-2.8 16.8-13.6 19.1-1-11-.6-21.6-.4-33.1zm-45.5 135.7h-11.2c1.6-7 3-13.5 4.9-21.7 4.4 7.8 5.3 14.4 6.3 21.7z"/>
    <path class="color-yellow color-reserved-white" fill="#f8e828" d="M276.2 381.3c-.1-.8-.3-1.7-.1-.8.3-.9.1-.2-.2.5 0 .1.3.3.3.3z"/>
</svg>
