<svg xmlns="http://www.w3.org/2000/svg" viewBox="0 0 612 612">
    <path class="color-black" d="M22 350.1c27.4-30 53.4-58.4 80.4-87.7-11.6-35.5-23.4-71.7-35.6-108.7 5.4 0 10-.7 14.2.1 16.4 3 32.9 6.3 49.2 9.8 19.7 4.2 39.1 9.2 58.8 13.3 20.9 4.4 42 8.1 62.9 12.3 20.1 4.1 40.3 8.6 60.4 12.9 20.1 4.2 40.3 8.3 60.4 12.5 9.4 1.9 18.9 3.9 28.3 5.9 28.3 6.1 56.6 12.4 85 18.4 28.3 6.1 56.6 12.1 84.9 18.1 5.7 1.2 11.5 2.5 19.1 4.1-24.2 29.7-48.4 57.8-73.1 86.3 11.7 36.6 23.4 72.6 35.7 110.9-12.9-2.6-23.4-4.6-33.8-6.7-35.7-7.3-71.3-14.4-107-21.8-18.8-3.9-37.5-8.4-56.4-12.3-22.6-4.6-45.4-8.5-68-13.2-34.9-7.2-69.5-14.9-104.4-22-31.2-6.4-62.4-12.3-93.6-18.6-21.7-4.1-43.2-8.7-67.4-13.6zm95.8-83.5c-20.2 24.2-40 47.7-61.2 72.9 156.3 33 310.5 66.1 466.1 98.8-9.7-32.8-18.8-63.4-28-94.1 20.1-23.9 39.9-47.4 59.9-71.3-2.6-1.3-3.6-2.2-4.7-2.5-151.4-32.4-303-64.6-454.7-96.8-.3-.1-.8.2-1.1.4-.3.2-.6.6-1.3 1.2 8.4 30.1 16.5 60.3 25 91.4z"/>
    <path fill="#fff" d="M117.8 266.6c-8.5-31.2-16.7-61.3-24.8-91.2.7-.7 1-1 1.3-1.2.3-.2.8-.6 1.1-.4C247 206 398.6 238.2 550.2 270.5c1.1.2 2.1 1.1 4.7 2.5-20.1 23.9-39.8 47.4-59.9 71.3 9.1 30.6 18.2 61.3 28 94.1-155.8-32.6-309.8-65.7-466.1-98.8 21-25.3 40.7-48.8 60.9-73zm-35 62.8c10.4 4.9 409.7 89.4 420.2 88.9-7.7-25.9-15.3-51.8-22.9-77.3 17.1-20.3 33.5-40 50.2-59.8-14.6-5.6-409-89.1-418.5-88.6 6.9 25.7 13.9 51.3 20.9 77.4-16.7 19.9-33.2 39.6-49.9 59.4z"/>
    <path class="color-black" d="M82.8 329.4c16.7-19.8 33.2-39.5 50-59.4-7-26.1-14-51.5-20.9-77.4 9.5-.6 403.9 82.9 418.5 88.6-16.7 19.9-33.2 39.5-50.2 59.8 7.6 25.5 15.2 51.3 22.9 77.3-10.7.5-410-84-420.3-88.9zm314.1 54.7c15.4 3.4 30.2 6.8 45.1 9.7 10 2 17.3-1.6 22.3-10.5 5.3-9.6 7.5-20 4.2-30.5-2.5-8.3-6.5-16.1-10-24.7 8.8-11.1 8.9-24 4.2-37.6-2.3-6.7-6.7-12.5-13.4-14.3-17-4.6-34.2-8.2-52.4-12.4v120.3zm-92.7-20.3v-119c-6.7-1.2-12.3-2.2-19.6-3.6v47.7c-13.4-2.7-25.3-5.1-38.4-7.7v-48.3c-6.5-1.1-11.7-2-16.9-2.9-2.6 16.4-2 107.9.8 117.6 5.7 1 11.7 2 19.3 3.2v-46.6c12.6 2.6 23.6 4.7 35.6 7v48.7c6.9 1.5 12.6 2.6 19.2 3.9zM167.8 239.5v94.7c6.4.8 11.9 1.6 18 2.3.8-31.9-.9-62.1.4-92.8 10.4 1.6 19 2.9 28.6 4.2v-21.1c-27.6-5.6-54.5-12-82.2-16.4v21.9c11.6 2.3 22.7 4.6 35.2 7.2zm196.1 100.6c-5 1-8.6 1.7-13.5 2.7-2.5-3.8-6.1-7.2-7.2-11.2-2.3-10 6.1-13.5 12.4-17.4v-11.6c-4.9-4.5-12.1-6.8-10-14.9 3.7-7.9 10.1-3.5 15.1-2.9 2.9-2.6 5.4-4.8 8.3-7.5-3.2-3-5.9-5.4-8.3-7.5-.6-3.5-1.1-6.4-1.6-9.6h-12c-.7 3.6-1.3 6.7-2 10-6.7 3.7-11.7 8.5-13.5 16-2.1 8.7 3.2 15.1 7.5 22.5-8.2 7.2-11 16-9.2 26.4 1.8 10.6 10 16 17.3 21.1.6 5.3 1 9.7 1.6 15 4.5-.3 8.1-.6 11.7-.9.3-5.6.7-10.2 1-14.1 3.5-2.7 6.3-4.9 9.3-7.3-2.5-3.4-4.6-6-6.9-8.8z"/>
    <path fill="#fff" d="M396.9 384.1V263.7c18.2 4.2 35.4 7.8 52.4 12.4 6.7 1.8 11.1 7.7 13.4 14.3 4.8 13.5 4.6 26.5-4.2 37.6 3.5 8.6 7.5 16.4 10 24.7 3.2 10.6 1 21-4.2 30.5-4.9 8.9-12.3 12.4-22.3 10.5-14.9-2.8-29.7-6.3-45.1-9.6zm47.7-12.9c8.3-9.7 8.3-11.1.3-23.4-8.1-1.3-16.9-2.9-26.3-4.5v22.4c9.1 1.9 17.2 3.6 26 5.5zm-29.1-83.4v22.6c9.4 1.9 18.3 3.7 26.8 5.5 7.7-10.2 7.6-12.2-.6-22.8-7.8-1.7-16.1-3.3-26.2-5.3zm-111.3 76c-6.5-1.3-12.3-2.5-19.1-3.8v-48.7c-12-2.3-22.9-4.6-35.6-7v46.6c-7.7-1.3-13.8-2.3-19.3-3.2-2.7-9.7-3.2-101.1-.8-117.6 5.1.9 10.3 1.8 16.9 2.9v48.3c13.1 2.7 24.9 5 38.4 7.7v-47.7c7.3 1.3 13 2.3 19.6 3.6-.1 39.2-.1 78.3-.1 118.9zM167.8 239.5c-12.5-2.6-23.6-4.8-35.2-7.3v-21.9c27.7 4.6 54.6 11 82.2 16.4v21.1c-9.5-1.5-18.2-2.7-28.6-4.2-1.2 30.7.3 60.9-.4 92.8-6.1-.8-11.7-1.5-18-2.3v-94.6zm196.1 100.6c2.2 2.8 4.4 5.4 7 8.7-3 2.3-5.9 4.6-9.3 7.3-.2 4-.6 8.5-1 14.1-3.7.3-7.3.6-11.7.9-.6-5.3-1-9.7-1.6-15-7.3-5.1-15.5-10.5-17.3-21.1-1.8-10.4.9-19.2 9.2-26.4-4.4-7.4-9.6-13.8-7.5-22.5 1.8-7.6 6.8-12.4 13.5-16 .7-3.2 1.3-6.4 2-10h12c.6 3.2 1 6.1 1.6 9.6 2.3 2.1 5 4.6 8.3 7.5-3 2.7-5.4 4.9-8.3 7.5-5-.6-11.4-5-15.1 2.9-2.1 8.1 5 10.4 10 14.9v11.6c-6.1 3.9-14.8 7.5-12.4 17.4 1 4 4.7 7.4 7.2 11.2 4.8-.9 8.4-1.6 13.4-2.6z"/>
    <path class="color-black" d="M444.6 371.2c-8.8-1.9-17-3.6-25.9-5.5v-22.4c9.4 1.6 18.2 3.1 26.3 4.5 7.9 12.3 7.9 13.6-.4 23.4zm-29.1-83.4c10.3 2 18.4 3.7 26.3 5.3 8.2 10.7 8.2 12.6.6 22.8-8.5-1.7-17.4-3.6-26.8-5.5-.1-7.6-.1-14.6-.1-22.6z"/>
</svg>
