<svg xmlns="http://www.w3.org/2000/svg" viewBox="0 0 612 612">
    <path class="color-yellow color-reserved-white" fill="#eee31b" d="M306 20.4c154.9-1.9 290.2 124.4 289.3 290.5-.7 143.1-113.8 289.9-296.8 285.5C143 592.5 16.4 461.1 19 303.8 21.7 139.5 159.1 18.7 306 20.4zm279.8 287.9C585.8 155.6 461.4 31 310 29.6 155.3 28.3 28.2 154.3 28.1 308.5c0 148 118.9 276 274.4 278.5 155.2 2.5 282.9-121.9 283.3-278.7z"/>
    <path class="color-black" fill="#0" d="M585.8 308.3c-.4 156.8-128.1 281.2-283.3 278.7C147 584.6 28.1 456.6 28.1 308.5c0-154.2 127.2-280.2 281.8-278.9 151.5 1.4 275.9 126 275.9 278.7zM432.7 148.9l-.3.1c.3 4.8 1.5 9.8 1 14.6-1.4 17.3-.9 18.5 16 25.7.8-10.7 1.7-21.3 2.5-31.9 16 1.5 23.3-2.4 28.4-13.7 5-11-.8-18.8-8-25.7-6.9-6.5-14.5-12.2-22.5-18.7-15.9 19-30.8 36.8-46.3 55.3 5.6 4.3 10 7.7 15 11.4 5.2-6.3 9.7-11.7 14.2-17.1zM79.6 351.3l2 2c-7.3 6.9-14.7 13.8-22.3 20.9 2.1 4.6 3.7 8.1 5.3 11.6 11.5 1.6 22.4 3.2 36.4 5.1-12.6 4.5-22.3 8-32.3 11.6 1.8 4.7 3.2 8.4 5 13.3 23-7.2 45.5-14.2 68.7-21.5-2.4-5.7-4.1-9.8-5.4-13.3-18-2.6-34.8-5.1-53.5-7.8 14.7-13.5 27.7-25.6 40.8-37.5-2-4.6-3.7-8.2-5.6-12.7-22.9 7.1-44.9 14-67.8 21.1 1.8 5.2 3.2 8.8 4.7 13.1 4.6-1.1 8.4-2 12.4-3 3.7-.9 7.6-1.9 11.6-2.9zm226.7 113c86.3.1 156.6-69.6 156.7-155.4.1-86.2-69.5-156.3-155.4-156.5-86.5-.2-155.8 69.2-156.7 155.2-.7 81 65.3 156.3 155.4 156.7zM68.5 212c10.7 9.5 21.3 18.7 31.7 27.9-.6.8-1 1.6-1.6 2.3-13.8-2.3-27.7-4.6-41.5-6.9-2.9 6.3-5.1 11.3-7.9 17.3 25.6 4.1 49.6 7.8 73.9 11.6 2.9-6.3 5.3-11.3 8-17-9.5-9.6-18.7-18.9-29.9-30.4 16 2.4 28.5 4.2 41.4 6.1 2.9-6 5.6-11.3 8.6-17.2-18-17.1-35.7-33.9-54.7-51.9-3.2 6.6-5.6 11.9-8.3 17.4C99 181.5 109.3 191.1 122 203c-17.8-2.4-31.7-4.3-46.2-6.2-1.9 4.4-3.7 8-7.3 15.2zm456.6-30.7c-21.6 9.5-42.9 18.8-64.8 28.4 3.2 6.5 5.5 11.5 8.1 16.9 12.8-5.4 24.7-10.4 39.1-16.3-9.7 18.1-17.8 33.4-26 48.6 2.8 5.9 5.4 11.1 8.1 16.7 22.3-9.8 43.2-18.9 65.5-28.7-2.8-6.3-5.2-11.6-7.7-16.9-13.2 5.4-24.9 10.1-39.7 16.2 7.5-13.8 12.5-24.5 18.9-34.2 6.9-10.3 8.1-19.6-1.5-30.7zm-54.8 218.6c-3.6 5-6 8.3-8.4 11.7 10.6 9.2 20.2 17.4 32.2 27.9-17.2-.8-31-.8-44.5-2.1-8.2-.8-13.8 1.1-17.3 10.6 17.7 14.9 35.8 30.1 54.3 45.6 3.6-4.7 6-7.9 8.8-11.6-10.5-9.1-20.6-17.8-30.6-26.5 15.1-1.4 28.8-.9 42.6.7 9.1 1.1 14.3-2 17.7-10.8-18.2-15-35.7-29.6-54.8-45.5zm5.9-11c23.3 8.8 44.9 17 67.8 25.6 3.8-10.1 7.5-18.9 10.4-28 5.6-18.1-3.4-36.9-20.5-43.9-18.4-7.4-37.5-.5-46.3 17.7-4.2 8.6-7.2 17.8-11.4 28.6zm-281.9 61.8c-11.9 21.6-23.1 42-34.7 63 4.7 2.6 8.4 4.7 12.5 7 5.3-8.9 9.9-16.5 15-25.1 14.9 11.1 3.4 27.4 11.3 40l11.7 5.4v-31.6c2.1-.5 3.6-.9 5.1-1.1 10.5-1.9 17.9-7.2 19.8-18.4 1.9-10.8-1.9-17.6-14-24.4-8.4-4.8-16.8-9.4-26.7-14.8zm54.4-339.9c.3 1.8.6 3.7.9 5.5-4.2 2-8.2 5.1-12.7 5.7-4.7.8-9.7-.7-15.2-1.2-1 5.2-1.9 10-2.7 14.3 11.1 6.1 21.1 5 30.8 1.4 13.3-4.8 20-15.8 18-28.4-1.9-11.8-8.8-16.8-24.4-17.9-5.7-.5-12.4.7-15.2-6.2 4.4-9.5 12.8-7 20.5-7.1.6-5.2 1.1-9.6 1.9-16.1-8.9 1-16.5.8-23.6 2.7-13.4 3.7-19.6 13.7-17.8 26.3 1.6 11.6 8.3 16.7 22.7 17.9 5.6.6 11.1 2.1 16.8 3.1zm125.5-48.4c-9.5 23.3-18.2 44.8-27.2 66.9 13.3 5.4 25 10.1 37.7 15.3 2.1-5.3 3.9-9.7 5.9-14.5-7-3.3-12.9-6-19.5-9 1.6-3.6 2.9-6.8 4.3-9.8 6.9 2.1 12.9 3.9 19.5 6.1 1.9-5.2 3.5-9.3 5.2-13.8-6.3-2.8-11.8-5.3-18-8.2 1.2-3.5 2.4-6.5 3.7-10.2 6.9 2.6 12.9 4.8 20 7.5 2.3-5 4.2-9.2 6.4-14.3-12.9-5.6-24.5-10.5-38-16zM464.4 513c-20.6-17-40.2-33.2-60.1-49.6-4.6 2.9-8.8 5.5-12.8 8 2.8 25.9 5.5 50.7 8.3 76.7 5.5-3.2 9.3-5.3 13.2-7.4v-17.8c8.1-4.4 16.1-8.7 23.9-12.8 5.3 3.8 9.8 7.1 14.5 10.5 4-2.6 7.8-4.7 13-7.6zm-331.7-43.1c-2.5 5.4-4.7 10.4-7.4 16.2 3.3 3.4 6.4 6.8 10.5 10.9 12.4-23.5 23.9-45.4 35.7-67.8-3.2-4.1-6-7.5-9.2-11.6-24.3 7.8-48.3 15.4-74.1 23.6 4.5 5.1 7.5 8.7 10.1 11.5 6.9-1.4 12.3-2.5 17.7-3.6 5.7 7.5 11.1 14.1 16.7 20.8zm40.1-362.6c-3.5-4.3-6.5-8-9.9-11.9-11.3 8.2-21.5 15.8-32.5 23.9 14.7 20 28.6 38.7 42.9 58.1 11.5-8.6 22-16.3 32.9-24.5-3.4-4.6-6.1-8.1-9.2-12.4-6.2 4.2-11.9 8-18.1 12.3-2.5-3.7-4.3-6.4-6-9.1 5.6-4.8 10.6-9 15.8-13.5-3.6-4.3-6.5-7.5-9.8-11.4-5.6 3.8-10.7 7.2-16.2 11-2.3-3.2-4.2-5.9-6.3-8.8 5.6-4.8 10.6-8.9 16.4-13.7zm159.5-38.1V54.9h-48.1v14.4c5.1.5 9.3.9 15 1.4V125H318V71c5.3-.7 9.2-1.2 14.3-1.8zM275 558.5c-3.8-30.1 19.4-45.7 34.1-67.3-6.9-.9-11.7-1.5-16.1-2-6.5 7.4-12.4 14.1-18.2 20.7-9.8-9.9-5.3-32-27.9-27.4 7.4 24 23.5 45.8 11.4 73.3 6 1.1 10.2 1.7 16.7 2.7zm64.9-14.9c-3-19.8-5.7-37.3-8.6-56-4.8.5-9.1.9-14.6 1.4 1.9 12.7 3.7 24.2 5.4 35.6 1.8 11.8 3.5 23.8 5.3 36.1 18-2.8 34.3-5.3 51.4-7.9-1.1-5.4-1.8-9.2-2.8-14.1-12.3 1.8-23.8 3.3-36.1 4.9zm181.8-262c1.2 7.8-4.7 10.7-9.5 11.5 1.6 8.1 2.9 14.9 4.3 22 1.9-1.2 5-3.4 7.5-5.2 2.8 1.8 5 3.2 6.3 4.1 1.9-7.3 3.6-13.7 5.1-19.3-3.9-3.8-8.1-7.7-13.7-13.1zm-436.5 1.5c-3.7 3.8-8.2 8.4-11.4 11.7 1.8 6.2 3.5 12.2 4.7 16.5 5 .7 9.8 1.4 13.5 1.9 1.4-5.9 3-12.7 4.5-18.8-3.5-3.6-7.7-7.7-11.3-11.3z"/>
    <path class="color-yellow color-reserved-white" fill="#eee31b" d="M306.3 464.3c-90.1-.5-156.1-75.8-155.4-156.6.9-85.9 70.2-155.5 156.7-155.2 85.9.2 155.5 70.2 155.4 156.5-.1 85.7-70.3 155.4-156.7 155.3zm.8-9.9c81.8-.6 146.8-65.3 146.4-146-.5-82.5-66-146.9-149.2-146.4-79.1.5-144.3 67-144 146.9.3 80.9 66.2 146.1 146.8 145.5zM68.5 212c3.6-7.2 5.4-10.8 7.5-15.1 14.4 1.9 28.4 3.8 46.2 6.2-12.7-11.9-23-21.5-33.9-31.7 2.6-5.5 5.2-10.8 8.3-17.4 19 18 36.7 34.9 54.7 51.9-2.9 6-5.6 11.3-8.6 17.2-12.9-1.9-25.4-3.7-41.4-6.1 11.3 11.5 20.5 20.7 29.9 30.4-2.7 5.7-5.1 10.8-8 17-24.2-3.8-48.2-7.5-73.9-11.6 2.7-6.1 5-10.9 7.9-17.3 13.8 2.3 27.7 4.6 41.5 6.9.6-.8 1-1.6 1.6-2.3-10.5-9.4-21-18.6-31.8-28.1zm456.6-30.7c9.7 11.1 8.3 20.4 1.6 30.5-6.5 9.7-11.4 20.4-18.9 34.2 14.9-6.1 26.6-10.9 39.7-16.2 2.4 5.3 4.7 10.6 7.7 16.9-22.2 9.7-43.1 18.9-65.5 28.7-2.7-5.5-5.3-10.8-8.1-16.7 8.2-15.3 16.3-30.5 26-48.6-14.4 6.1-26.3 11-39.1 16.3-2.6-5.4-5-10.4-8.1-16.9 21.8-9.4 43-18.8 64.7-28.2zm-445.5 170c-3.9 1-7.9 2-11.8 3-3.8 1-7.8 1.9-12.4 3-1.5-4.2-2.8-7.9-4.7-13.1 22.7-7.1 44.9-14 67.8-21.1 1.9 4.4 3.6 8 5.6 12.7-13.1 12-26.1 24-40.8 37.5 18.7 2.7 35.5 5.2 53.5 7.8 1.5 3.5 3.2 7.5 5.4 13.3-23.2 7.2-45.7 14.3-68.7 21.5-1.8-4.8-3.2-8.6-5-13.3 10-3.6 19.8-7.1 32.3-11.6-14.1-1.9-24.9-3.5-36.4-5.1-1.6-3.5-3.3-7-5.3-11.6 7.7-7.2 15-14.1 22.3-20.9.7-.9 1.2-1.9 1.9-2.8-1.1.1-2.5.4-3.7.7zm353.1-202.4c-4.5 5.4-9 10.9-14.3 17.1-5-3.8-9.3-7.1-15-11.4 15.4-18.5 30.4-36.3 46.3-55.3 8 6.5 15.6 12.2 22.5 18.7 7.3 6.9 12.9 14.6 8 25.7-5.1 11.4-12.4 15.1-28.4 13.7-.8 10.6-1.6 21.1-2.5 31.9-16.9-7.2-17.3-8.2-16-25.7.3-4.8-.7-9.8-1-14.6l.9.3c.1-.1-.5-.4-.5-.4zm11.7-14c5.3 6.4 10.2 8.7 15.2 3.6 6.1-6.2 1.1-10.5-4.1-15.5-3.7 4-7 7.6-11.1 11.9zm25.9 265c19.1 16 36.7 30.6 54.6 45.5-3.3 8.8-8.6 11.9-17.7 10.8-13.6-1.6-27.5-2-42.6-.7 10 8.7 20.2 17.4 30.6 26.5-2.8 3.7-5.3 6.9-8.8 11.6-18.5-15.5-36.6-30.7-54.3-45.6 3.5-9.5 9.1-11.4 17.3-10.6 13.5 1.4 27.2 1.4 44.5 2.1-12-10.5-21.5-18.7-32.2-27.9 2.7-3.3 5-6.7 8.6-11.7zm5.9-11c4.3-10.7 7.2-20 11.4-28.6 8.8-18.1 27.9-25.1 46.3-17.7 17.1 7 26.1 25.8 20.5 43.9-2.8 9.1-6.6 17.9-10.4 28-22.9-8.7-44.5-16.8-67.8-25.6zm58.1 6.1c6.6-11.3 10.4-21.5 2.4-32.2-5-6.6-12.2-9.1-20.3-7.7-13.2 2.4-17.2 12.5-20 25 12.4 5 24.6 9.7 37.9 14.9zm-340 55.7c9.9 5.5 18.5 10 26.8 14.9 11.9 6.9 15.8 13.7 14 24.4-1.9 11.1-9.3 16.4-19.8 18.4-1.5.2-2.9.7-5.1 1.1v31.6l-11.7-5.4c-8-12.7 3.5-28.9-11.3-40-5.2 8.6-9.7 16.2-15 25.1-4.1-2.3-7.8-4.4-12.5-7 11.5-21.1 22.7-41.5 34.6-63.1zm20.1 43.6c8.3-11.6 5.3-15.4-15.3-21.4-1.6 3.3-3.3 6.8-5.1 10.5 7.3 3.8 13.5 7 20.4 10.9zm34.3-383.5c-5.6-1-11.1-2.5-16.8-2.9-14.4-1.2-21.2-6.3-22.7-17.9-1.8-12.7 4.4-22.7 17.8-26.3 7.1-1.9 14.6-1.8 23.6-2.7-.8 6.6-1.2 10.9-1.9 16.1-7.7.1-16-2.4-20.5 7.1 2.8 7 9.5 5.9 15.2 6.2 15.6 1.1 22.5 6.2 24.4 17.9 2.1 12.6-4.7 23.5-18 28.4-9.8 3.6-19.8 4.7-30.8-1.4.8-4.3 1.7-9 2.7-14.3 5.5.6 10.6 1.9 15.2 1.2 4.4-.7 8.4-3.7 12.7-5.7-.4-2-.6-3.8-.9-5.7zm125.5-48.4c13.5 5.6 25.2 10.4 38.1 15.8-2.3 5.1-4.3 9.3-6.4 14.3-7.1-2.7-13.2-5-20-7.5-1.4 3.7-2.5 6.8-3.7 10.2 6.3 2.8 11.8 5.3 18 8.2-1.7 4.5-3.3 8.6-5.2 13.8-6.6-2-12.7-3.9-19.5-6.1-1.4 3-2.7 6.2-4.3 9.8 6.5 3 12.5 5.7 19.5 9-1.9 4.8-3.7 9.2-5.9 14.5-12.7-5.2-24.3-9.9-37.7-15.3 8.9-22 17.5-43.4 27.1-66.7zM464.4 513c-5.2 2.9-9 5.2-13.2 7.5-4.7-3.4-9.1-6.6-14.5-10.5-7.8 4.2-15.6 8.4-23.9 12.8v17.8c-3.7 2.1-7.5 4.3-13.2 7.4-2.8-26.1-5.5-50.8-8.3-76.7 4.1-2.5 8.2-5.1 12.8-8 20.1 16.4 39.7 32.7 60.3 49.7zm-54.3-6.4c5.1-2.8 8.7-4.7 13.7-7.5-5.4-4.5-9.5-7.9-15.5-12.9.8 8.1 1.2 13.5 1.8 20.4zm-277.4-36.7c-5.5-6.8-11-13.4-17-20.6-5.4 1.1-10.8 2.1-17.7 3.6-2.5-2.9-5.6-6.4-10.1-11.5 25.9-8.2 49.8-15.9 74.1-23.6 3.3 4.2 6 7.5 9.2 11.6-11.7 22.3-23.3 44.2-35.7 67.8-3.9-4.2-7.2-7.5-10.5-10.9 2.9-6 5.2-10.9 7.7-16.4zm-2.2-26.6c3.8 4.4 6.6 7.8 10.6 12.2 3-6.8 5.2-11.4 8.1-17.9-7.5 2.2-12.2 3.6-18.7 5.7zm42.3-336c-5.7 4.7-10.8 8.8-16.7 13.5 2.1 2.9 4.1 5.6 6.3 8.8 5.6-3.8 10.6-7.2 16.2-11 3.3 3.7 6.2 7.1 9.8 11.4-5.2 4.5-10.1 8.7-15.8 13.5 1.8 2.7 3.6 5.4 6 9.1 6.3-4.3 11.9-8.1 18.1-12.3 3.2 4.3 5.9 7.8 9.2 12.4-10.9 8.2-21.4 16-32.9 24.5-14.3-19.4-28.1-38.1-42.9-58.1 11-8.1 21.3-15.5 32.5-23.9 3.7 4.2 6.7 8 10.2 12.1zm159.5-38.1c-5.1.6-9 1-14.2 1.7v54h-18.8V70.6c-5.6-.6-9.9-.9-15-1.4V54.8h48.1c-.1 4.6-.1 9-.1 14.4zM275 558.5c-6.5-1-10.8-1.7-16.9-2.7 12.3-27.5-3.9-49.3-11.4-73.3 22.6-4.7 18.1 17.4 27.9 27.4 5.9-6.6 11.7-13.3 18.2-20.7 4.4.6 9.2 1.1 16.1 2-14.4 21.6-37.6 37.3-33.9 67.3zm64.9-14.9c12.5-1.6 23.9-3 36-4.6 1 4.8 1.7 8.7 2.8 14.1-17.1 2.6-33.4 5.2-51.4 7.9-1.8-12.4-3.5-24.3-5.3-36.1-1.7-11.5-3.5-22.9-5.4-35.6 5.6-.6 9.8-.9 14.6-1.4 2.9 18.4 5.5 35.9 8.7 55.7zm181.8-262c5.6 5.4 9.9 9.5 13.6 12.9-1.5 5.6-3.2 12-5.1 19.3-1.4-.8-3.4-2.1-6.3-4.1-2.6 1.8-5.6 3.8-7.5 5.2-1.4-7.1-2.7-13.8-4.3-22 4.8-.6 10.8-3.5 9.6-11.3zm-436.5 1.5l11.4 11.4c-1.5 6.1-3.2 12.9-4.5 18.8-3.8-.6-8.7-1.2-13.5-1.9-1.2-4.4-2.9-10.4-4.7-16.5 3.1-3.5 7.6-8.1 11.3-11.8z"/>
    <path class="color-black" fill="#0" d="M307.1 454.4c-80.7.6-146.5-64.6-146.8-145.4-.3-80 64.8-146.5 144-146.9 83.2-.5 148.8 63.8 149.2 146.4.4 80.6-64.4 145.2-146.4 145.9zm1.9-42.2c.7-7.3 1.2-13.1 1.8-19.3 10.8 5.5 10.8 26.8 29.2 18.1v-44.9h-13.2c-.3 6.9-.8 13.1-1.1 20.3-11-6.4-11.3-26.6-29.4-19.6v46.3c4.6-.3 8.1-.6 12.7-.9zm79.7-28.4c-7.7-.7-14.6-1.4-21.6-1.9v-4.3c7.5-.7 15.2-1.4 23.1-2v-9.1h-37.8v45.8h38.5v-10.6c-4.6 0-8.7.2-12.6 0-3.7-.2-7.5-.9-11.8-1.5 1.7-9.9 8.4-6.6 13.3-7.1 4.8-.5 10.8 1.1 8.9-9.3zm-83-143.5c.6 2.4.8 4.5 1.7 6.2 5 9.2 14.4 12.8 26.1 10.2 8.4-1.9 13.6-7.5 14.4-15.6.8-9-3.5-13.5-16.8-18.2-3.3-1.2-6.3-3.2-9.5-4.7.3-1 .7-2 1-3 7.4 2.1 14.9 4.3 23.9 6.8-5.1-15.4-8.3-17.7-21.8-17-9.8.5-15.8 4.6-17.1 12-1.5 7.7 2.3 13.1 11.8 17.1 4.7 2 9.5 4.2 15.6 6.8-9.6 5.6-10.9 6.4-13.2 2.8-4.5-7.6-9.9-4.8-16.1-3.4zm-54.6 16.1c7.8.1 12.7 2 16.8-4.5 4.4-7.2 12.7-6.1 16.2-.7 5.2 8 10.2 5.6 17.4 3.8-5.7-16.8-11.3-32.9-16.8-48.9h-16.9c-5.3 16.5-10.7 32.3-16.7 50.3zm101.7 38.9c-6.9-12.9-17-16.7-28-10.1-11.1 6.5-14.5 27.6-6.4 40 7.2 11 19.5 11.4 34.7.9V305h-20.2c3.7 6.1 6.1 10 8.7 14.3-4.5 3.8-8.8 4.2-12.6-1.2-4.7-6.6-2.4-16.5 6.4-24.8 4.8 5 10.9 9.5 17.4 2zm-143.4-11.8V333c4.3-.3 7.5-.7 11.1-1 .8-6.3 1.4-11.7 2.5-20.5 4.6 9 7.5 14.7 11 21.6 4.1-.5 8.1-1 13.2-1.7-3.7-8-6.6-14.4-9.6-20.7 1-1.2 2-2.4 2.8-3.7 7.8-14 3.2-22.5-12.6-23.5-5.6-.3-11.2 0-18.4 0zm178.5.8c-.6 6.2-.9 10.6-1.4 15.3H376c-.8-5.6-1.6-10.5-2.4-16-4.2.6-7.4.9-10.1 1.4v48.7c4.6-1 7.9-1.7 11-2.4.5-6.3.8-11.8 1.2-18.1 4.2.2 7.4.5 10.7.7.7 7 1.2 12.8 1.9 19.5 4.4-.8 7.7-1.4 10.4-1.8v-48.2c-4 .3-6.9.6-10.8.9zm-139-58c-6.8-3.6-14 1.2-19.1-7.4 8.3-1.2 15.3-2.3 22-3.3v-9.2h-34.4V256h13.3c.6-6.9 1.1-13.2 1.7-19.5 6.2-.8 11.5-1.5 17.2-2.1-.4-3.3-.5-5.8-.7-8.1zm35 67.3c-1.4-11.9-1.9-12-31.1-9v47.6h32v-9.3c-18-2.5-18-2.5-19-10.1 5.4-.2 10.8-.6 17.1-.8-.2-3.9-.5-6.8-.7-8.8-5.7-3.6-13.8 1.9-18.7-7.3 7.6-1 13.3-1.6 20.4-2.3zm112.9-87.5h-43c.2 4.4.5 7.8.7 11 5 1 9.2 1.8 14.4 2.8v36.8c5.4-.5 9.6-.8 14.9-1.2v-36.1c5.1-.8 8.9-1.5 13.1-2.1-.1-4-.1-7.4-.1-11.2zM222.4 412.3h35.9v-11.5h-21.5v-34.6h-14.4v46.1zm220.1-127.8h-36.4c.2 4.3.3 7.2.5 10.4 4.1 1.1 7.8 2.3 12.5 3.6v34.7c4.6-.6 7.9-.9 11.9-1.5v-33.3c4.2-1.2 7.9-2.4 11.6-3.5-.1-3.6-.1-6.5-.1-10.4zm-271.4 47.9h11c.7-6.6 1.2-12.5 1.7-17.6 5.1-4.1 17.4 2.3 13.4-10.6-4.3-3.7-13.5 2-13.7-8.8 5.7-.7 11-1.4 17.2-2-.5-3.7-.8-6.4-1.1-9.2h-28.4c-.1 16.1-.1 31.2-.1 48.2zm97.6 81.3c5.9-.8 10-1.4 13.6-1.8v-46.5c-5.2.3-9.3.7-13.6 1v47.3zm25.6-129.4v48h10.6v-48h-10.6zm-214.7 67c1.4-.2 2.6-.6 3.9-.8-.7.9-1.2 1.9-1.9 2.8-.8-.7-1.4-1.3-2-2zm364.8-216.4c3.9-4.3 7.2-7.8 11-11.9 5.3 5.1 10.1 9.3 4.1 15.5-4.8 5.1-9.8 2.8-15.1-3.6zm-11.7 14l.6.3-.9-.3zM534.3 395c-13.3-5.2-25.4-9.9-37.9-14.9 2.8-12.6 6.9-22.6 20-25 8.1-1.5 15.3 1 20.3 7.7 7.9 10.7 4.2 21-2.4 32.2zm-319.9 99.3c-7-3.7-13.2-7.1-20.4-10.9 1.8-3.8 3.5-7.2 5.1-10.5 20.7 5.8 23.8 9.7 15.3 21.4zm195.7 12.3c-.6-7.1-1-12.5-1.7-20.5 6.1 5.1 10.1 8.4 15.5 12.9-5 2.9-8.7 4.9-13.8 7.6zm-279.6-63.3c6.6-2 11.4-3.5 18.7-5.7-2.9 6.5-5.1 11.1-8.1 17.9-4-4.5-6.9-7.8-10.6-12.2z"/>
    <path class="color-yellow color-reserved-white" fill="#eee31b" d="M309 412.2c-4.7.2-8.1.5-12.6.8v-46.3c18.1-6.9 18.4 13.2 29.4 19.6.5-7.2.8-13.4 1.1-20.3h13.2v44.9c-18.5 8.7-18.4-12.6-29.2-18.1-.7 6.3-1.2 12.1-1.9 19.4zm79.7-28.4c1.9 10.2-4.2 8.8-9.1 9.2-4.7.5-11.6-2.8-13.3 7.1 4.4.6 8.1 1.2 11.8 1.5 3.9.2 8 0 12.6 0v10.6h-38.5v-45.8H390v9.1c-7.9.7-15.4 1.4-23.1 2v4.3c7.2.7 14.2 1.3 21.8 2zm-83-143.5c6.2-1.4 11.6-4.2 16.2 3.3 2.3 3.6 3.6 2.8 13.2-2.8-6.2-2.7-10.9-4.7-15.6-6.8-9.6-4.1-13.2-9.5-11.8-17.1 1.4-7.4 7.3-11.6 17.1-12 13.5-.7 16.8 1.6 21.8 17-9-2.6-16.4-4.7-23.9-6.8-.3 1-.7 2-1 3 3.2 1.6 6.2 3.6 9.5 4.7 13.3 4.8 17.6 9.3 16.8 18.2-.7 8.1-5.9 13.7-14.4 15.6-11.7 2.6-21.3-1-26.1-10.2-1-1.6-1.1-3.8-1.8-6.1zm-54.6 16.1c6.1-18 11.4-33.8 16.9-50.2h16.9c5.5 16 11 32.2 16.8 48.9-7.2 1.8-12.3 4.2-17.4-3.8-3.5-5.4-11.8-6.5-16.2.7-4.2 6.4-9.2 4.5-17 4.4zm21.8-21.1h7.8c-1.6-4.3-2.7-7.7-5.1-14.1-1.3 6.7-1.9 10.2-2.7 14.1zm79.9 60c-6.6 7.3-12.6 2.9-17.4-2-8.9 8.2-11.1 18.1-6.4 24.8 3.8 5.4 8.1 5 12.6 1.2-2.6-4.3-5.1-8.3-8.7-14.3h20.2v21.1c-15.2 10.5-27.6 10.1-34.7-.9-8-12.4-4.6-33.4 6.4-40 11-6.5 21.1-2.8 28 10.1zm-143.4-11.8c7.2 0 12.8-.3 18.5 0 15.8 1 20.4 9.5 12.6 23.5-.7 1.4-1.8 2.5-2.8 3.7 2.9 6.4 5.9 12.7 9.6 20.7-5.1.7-9.1 1.1-13.2 1.7-3.5-6.9-6.4-12.6-11-21.6-1 8.8-1.7 14.2-2.5 20.5-3.6.3-6.9.7-11.1 1-.1-16.6-.1-32.1-.1-49.5zm11.2 17.2c1.2 1.1 2.4 2.3 3.6 3.4l6.5-6.5c-1.4-1.1-3.7-3.4-4.1-3.2-2.1 1.8-4.1 4.2-6 6.3zm167.3-16.4c3.9-.3 6.9-.5 10.9-.8v48.2c-2.7.5-6 1-10.4 1.8-.7-6.6-1.2-12.6-1.9-19.5-3.3-.2-6.5-.5-10.7-.7-.5 6.3-.8 11.8-1.2 18.1-3.2.7-6.4 1.4-11 2.4v-48.7c2.7-.3 6-.8 10.1-1.4.8 5.5 1.6 10.4 2.4 16h10.5c.3-4.8.8-9.2 1.3-15.4zm-139-58c.1 2.3.3 4.7.6 8.1-5.6.7-11 1.4-17.2 2.1-.6 6.2-1.1 12.6-1.7 19.5h-13.3v-49.6h34.4v9.2c-6.6 1-13.6 2-22 3.3 5.2 8.8 12.5 3.8 19.2 7.4zm35 67.3c-7.1.7-12.8 1.4-20.3 2.1 4.8 9.3 12.9 3.7 18.7 7.3.1 2.1.3 5 .7 8.8-6.3.3-11.7.6-17.1.8 1 7.7 1 7.7 19 10.1v9.3h-32v-47.6c29.1-2.9 29.7-2.7 31 9.2zm112.9-87.5v11.1c-4.2.7-8 1.2-13.1 2.1v36.1c-5.3.5-9.5.8-14.9 1.2v-36.8c-5.2-1-9.5-1.9-14.4-2.8-.2-3.3-.5-6.6-.7-11 14.2.1 27.7.1 43.1.1zM222.4 412.3v-46.2h14.4v34.6h21.5v11.5c-11.7.1-23 .1-35.9.1zm220.1-127.8V295c-3.7 1.1-7.3 2.1-11.6 3.5v33.3c-3.9.5-7.2.9-11.9 1.5v-34.7c-4.7-1.4-8.3-2.4-12.5-3.6-.1-3.2-.2-6.1-.5-10.4 12.2-.1 23.7-.1 36.5-.1zm-271.4 47.9v-48.1h28.4c.3 2.7.7 5.5 1.1 9.2-6.2.7-11.5 1.4-17.2 2 .2 10.8 9.5 5.1 13.7 8.8 3.9 12.8-8.3 6.5-13.4 10.6-.5 5.1-1 10.9-1.7 17.6-3.6-.1-6.8-.1-10.9-.1zm97.6 81.3v-47.3c4.3-.3 8.4-.7 13.6-1v46.5c-3.6.4-7.7 1-13.6 1.8zm25.6-129.4h10.6v48h-10.6v-48z"/>
    <path class="color-black" fill="#0" d="M272.9 235.3c.8-4.1 1.5-7.4 2.7-14.1 2.4 6.4 3.5 9.9 5.1 14.1h-7.8zm-52.3 65.4c2-2.1 3.8-4.5 6.1-6.3.3-.2 2.7 2 4.1 3.2l-6.5 6.5c-1.3-1.1-2.5-2.2-3.7-3.4z"/>
    <path class="color-black" d="M307 20.4c159.1 0 288 129 288 288s-129 288-288 288-288-129-288-288 128.9-288 288-288m0-3.4c-39.3 0-77.5 7.7-113.4 22.9-34.7 14.7-65.9 35.7-92.6 62.5-26.8 26.8-47.8 57.9-62.5 92.6-15.2 35.9-22.9 74.1-22.9 113.4s7.7 77.5 22.9 113.4c14.7 34.7 35.7 65.9 62.5 92.6 26.8 26.8 57.9 47.8 92.6 62.5 35.9 15.2 74.1 22.9 113.4 22.9s77.5-7.7 113.4-22.9c34.7-14.7 65.9-35.7 92.6-62.5 26.8-26.8 47.8-57.9 62.5-92.6 15.2-35.9 22.9-74.1 22.9-113.4s-7.7-77.5-22.9-113.4c-14.7-34.7-35.7-65.9-62.5-92.6-26.8-26.8-57.9-47.8-92.6-62.5C384.5 24.7 346.3 17 307 17z"/>
</svg>
