<svg xmlns="http://www.w3.org/2000/svg" xmlns:xlink="http://www.w3.org/1999/xlink" data-name="Layer 1" viewBox="0 0 288 288">
    <defs>
        <clipPath id="clip-path">
            <path fill="none" d="M51 25.51A25.51 25.51 0 1125.51 0 25.52 25.52 0 0151 25.51z"/>
        </clipPath>
        <clipPath id="clip-path-2">
            <circle fill="none" stroke="#000" stroke-miterlimit="10" stroke-width=".5" cx="144" cy="144" r="135.29" transform="rotate(-45 143.998376 144.00392)"/>
        </clipPath>
        <symbol id="Nouveau_symbole" data-name="Nouveau symbole" viewBox="0 0 51.02 51.02">
            <path fill="#b2000d" d="M51 25.51A25.51 25.51 0 1125.51 0 25.52 25.52 0 0151 25.51z"/>
            <g clip-path="url(#clip-path)">
                <path fill="#d67968" d="M25.51 22.68L24.09 0h2.84zM19 .81l-2.7.88 8.36 21.13zM11.66 4L9.37 5.71l14.48 17.51zM5.71 9.37L4 11.66l19.22 12.19zm-4 6.91L.81 19l22 5.66zM0 24.1v2.83l22.68-1.42zm.81 7.95l.88 2.69 21.13-8.35zM4 39.36l1.67 2.29 17.55-14.47zm5.33 6L11.66 47l12.19-19.19zm6.91 4l2.7.87 5.66-22zM24.09 51h2.84l-1.42-22.65zm8-.81l2.69-.87-8.39-21.11zM39.36 47l2.29-1.66-14.47-17.53zm6-5.33L47 39.36 27.8 27.18zm4-6.91l.87-2.69-22-5.66zM51 26.93V24.1l-22.65 1.41zM50.21 19l-.87-2.7-21.13 8.34zM47 11.66l-1.68-2.29L27.8 23.85zm-5.35-5.95L39.36 4 27.18 23.22zm-6.91-4l-2.69-.9-5.66 22z"/>
            </g>
            <path fill="#b2000d" d="M34 25.51A8.51 8.51 0 1125.51 17 8.51 8.51 0 0134 25.51z"/>
            <path fill="#fff" d="M28.94 22.56h-.42v2.8l-.7-.7a3.81 3.81 0 01-2.14.6 3.44 3.44 0 01-2.44-.89 2.94 2.94 0 01-.94-2.27 3.58 3.58 0 01.45-1.77A2.73 2.73 0 0124 19.18a3.92 3.92 0 011.66-.35 2.9 2.9 0 011.73.52l.89-.51v2.36H28a1.82 1.82 0 00-.11-.66 2.37 2.37 0 00-.4-.63 2.24 2.24 0 00-.71-.58 1.92 1.92 0 00-.87-.21.76.76 0 00-.59.18 1.1 1.1 0 00-.15.68v4.34c0 .44.16.66.46.66s.53-.25.53-.75v-1.67h-.45v-.2h3.19zm.41 8.35A1.23 1.23 0 0128 32a2.71 2.71 0 01-.82-.11 1.24 1.24 0 01-.55-.35 1.38 1.38 0 01-.3-.59 9.45 9.45 0 01-.08-1.56.68.68 0 00-.13-.47.78.78 0 00-.5-.12h-.32v2.86h.6v.22H22v-.22h.71v-5.57H22v-.21h5a2 2 0 011.54.42 1.57 1.57 0 01.35 1 1.43 1.43 0 01-1 1.44 1.52 1.52 0 01.8.5 1.33 1.33 0 01.18.77v.93c0 .17 0 .25.11.25s.08 0 .13-.1a.64.64 0 00.11-.25zM26.27 28v-1.28a.69.69 0 00-.14-.51.8.8 0 00-.53-.12h-.3v2.55h.15a1 1 0 00.65-.15.63.63 0 00.17-.49z"/>
        </symbol>
    </defs>
    <g clip-path="url(#clip-path-2)">
        <use width="51.02" height="51.03" transform="matrix(8.84 0 0 8.84 -81.48 -81.49)" xlink:href="#Nouveau_symbole"/>
    </g>
    <circle fill="none" stroke="#000" stroke-miterlimit="10" stroke-width=".5" cx="144" cy="144" r="135.29" transform="rotate(-45 143.998376 144.00392)"/>
</svg>
