<svg xmlns="http://www.w3.org/2000/svg" xmlns:xlink="http://www.w3.org/1999/xlink" data-name="Layer 1" viewBox="0 0 288 288">
    <defs>
        <clipPath id="clip-path">
            <circle fill="none" cx="25.51" cy="25.51" r="25.51"/>
        </clipPath>
        <clipPath id="clip-path-2">
            <path fill="none" stroke="#000" stroke-miterlimit="10" stroke-width=".5" d="M279.29 144A135.29 135.29 0 11144 8.71 135.29 135.29 0 01279.29 144z"/>
        </clipPath>
        <symbol id="Nouveau_symbole_6" data-name="Nouveau symbole 6" viewBox="0 0 51.02 51.02">
            <circle fill="#073d65" cx="25.51" cy="25.51" r="25.51"/>
            <g clip-path="url(#clip-path)">
                <path fill="#8090a1" d="M25.51 22.68L24.09 0h2.84zM19 .81l-2.7.88 8.36 21.13zM11.66 4L9.37 5.71l14.48 17.51zM5.71 9.37L4 11.66l19.22 12.18zm-4 6.91L.81 19l22 5.66zM0 24.09v2.84l22.68-1.42zm.81 8l.88 2.69 21.13-8.35zM4 39.36l1.67 2.29 17.55-14.47zm5.33 6L11.66 47l12.19-19.2zm6.91 4l2.7.87 5.66-22zM24.09 51h2.84l-1.42-22.65zm8-.81l2.69-.87-8.39-21.11zM39.36 47l2.29-1.66L27.18 27.8zm6-5.33L47 39.36 27.8 27.18zm4-6.91l.87-2.69-22-5.66zM51 26.93v-2.84l-22.65 1.42zM50.21 19l-.87-2.7-21.13 8.34zM47 11.66l-1.68-2.29L27.8 23.84zm-5.35-5.95L39.36 4 27.18 23.22zm-6.91-4l-2.69-.9-5.66 22z"/>
            </g>
            <circle fill="#073d65" cx="25.51" cy="25.51" r="8.5"/>
            <path fill="#fff" d="M26 26.52h-3.62v-.19h.67V21.9l-1.78 4.62h-.52l-1.82-4.61v2.85a4.13 4.13 0 00.08.78 1.26 1.26 0 00.28.58.69.69 0 00.55.21h.1v.19h-2.09v-.19a.66.66 0 00.62-.44 2.34 2.34 0 00.21-1v-3.24l-.19-.32H18v-.19h3l1.1 2.67 1-2.67H26v.19h-.65v5H26zm7.54 0h-3.26v-.19h.55l-1.35-2.6v2.6h.62v.19h-3.6v-.19h.64v-5h-.64v-.19h3.65v.19h-.67v2.15c1-.77 1.57-1.21 1.67-1.3a.38.38 0 00.16-.33c0-.35-.26-.52-.78-.52h-.08v-.19h2.85v.19h-.1a1.77 1.77 0 00-.89.3 7.53 7.53 0 00-1.06.77l2.05 3.93h.26zm-4.66.9c-.57 0-.85.54-.85 1.5v3.68h-1.3l-3.19-4.39v2.56c0 1.09.34 1.64 1 1.65v.18h-2.07v-.18a.73.73 0 00.66-.45 2.09 2.09 0 00.19-.91v-3.15l-.32-.49h-.5v-.19h3.11l2.23 3.08V29a2.4 2.4 0 00-.22-1.18.74.74 0 00-.68-.39h-.18v-.19h2.15z"/>
        </symbol>
    </defs>
    <g clip-path="url(#clip-path-2)">
        <use width="51.02" height="51.02" transform="matrix(8.84 0 0 8.84 -81.48 -81.48)" xlink:href="#Nouveau_symbole_6"/>
    </g>
    <path fill="none" stroke="#000" stroke-miterlimit="10" stroke-width=".5" d="M279.29 144A135.29 135.29 0 11144 8.71 135.29 135.29 0 01279.29 144z"/>
</svg>
