<svg xmlns="http://www.w3.org/2000/svg" xmlns:xlink="http://www.w3.org/1999/xlink" data-name="Layer 1" viewBox="0 0 288 288">
    <defs>
        <clipPath id="clip-path">
            <circle fill="none" cx="25.51" cy="25.51" r="25.51"/>
        </clipPath>
        <clipPath id="clip-path-2">
            <path fill="none" stroke="#000" stroke-miterlimit="10" stroke-width=".5" d="M279.29 144A135.29 135.29 0 11144 8.71 135.29 135.29 0 01279.29 144z"/>
        </clipPath>
        <symbol id="Nouveau_symbole_5" data-name="Nouveau symbole 5" viewBox="0 0 51.02 51.02">
            <circle fill="#00441c" cx="25.51" cy="25.51" r="25.51"/>
            <g clip-path="url(#clip-path)">
                <path fill="#80976f" d="M25.51 22.68L24.09 0h2.84zM19 .81l-2.7.88 8.36 21.13zM11.66 4L9.37 5.71l14.48 17.51zM5.71 9.37L4 11.66l19.22 12.18zm-4 6.91L.81 19l22 5.66zM0 24.09v2.84l22.68-1.42zm.81 8l.88 2.69 21.13-8.35zM4 39.36l1.67 2.29 17.55-14.47zm5.33 6L11.66 47l12.19-19.2zm6.91 4l2.7.87 5.66-22zM24.09 51h2.84l-1.42-22.65zm8-.81l2.69-.87-8.39-21.11zM39.36 47l2.29-1.66L27.18 27.8zm6-5.33L47 39.36 27.8 27.18zm4-6.91l.87-2.69-22-5.66zM51 26.93v-2.84l-22.65 1.42zM50.21 19l-.87-2.7-21.13 8.34zM47 11.66l-1.68-2.29L27.8 23.84zm-5.35-5.95L39.36 4 27.18 23.22zm-6.91-4l-2.69-.9-5.66 22z"/>
            </g>
            <circle fill="#00441c" cx="25.51" cy="25.51" r="8.5"/>
            <path fill="#fff" d="M30.39 24.81h-3.63v-.18h.68V20.2l-1.78 4.61h-.52l-1.83-4.6v2.85a3.31 3.31 0 00.09.77 1.35 1.35 0 00.27.59.72.72 0 00.56.21h.09v.18h-2.08v-.18a.67.67 0 00.62-.44 2.34 2.34 0 00.2-1V20l-.18-.32h-.51v-.19h3l1.1 2.67 1-2.67h2.86v.19h-.65v5h.65zm-3.55 6.09h-3.27v-.19h.55l-1.35-2.59v2.59h.61v.19h-3.6v-.19h.65v-5h-.65v-.19h3.65v.19h-.66v2.14c1-.77 1.57-1.2 1.67-1.29a.43.43 0 00.15-.33c0-.35-.26-.52-.78-.52h-.07v-.19h2.84v.19h-.09a1.72 1.72 0 00-.89.29 8.63 8.63 0 00-1.07.78l2.05 3.92h.27zm6.33-5.18c-.35.13-.69.58-1 1.36l-1.7 3.82h-1.29l-1.82-5.18h-.43v-.19h3.39v.19h-.52l1.2 3.33.8-1.92a2.4 2.4 0 00.12-.38 1.57 1.57 0 000-.32.62.62 0 00-.7-.71v-.19h1.9z"/>
        </symbol>
    </defs>
    <g clip-path="url(#clip-path-2)">
        <use width="51.02" height="51.02" transform="matrix(8.84 0 0 8.84 -81.48 -81.48)" xlink:href="#Nouveau_symbole_5"/>
    </g>
    <path fill="none" stroke="#000" stroke-miterlimit="10" stroke-width=".5" d="M279.29 144A135.29 135.29 0 11144 8.71 135.29 135.29 0 01279.29 144z"/>
</svg>
