<svg xmlns="http://www.w3.org/2000/svg" data-name="Layer 1" viewBox="0 0 288 288">
    <path class="color-yellow" fill="#ffeb00" d="M203.17 15v58h-23.66V6.66a141.21 141.21 0 00-23.67-4.06V73h-23.68V2.6a141.1 141.1 0 00-23.66 4.06V73H84.84V15a141.8 141.8 0 000 257.92V215h23.66v66.34a141.1 141.1 0 0023.66 4.06V215h23.68v70.4a141.21 141.21 0 0023.67-4.06V215h23.66v58a141.81 141.81 0 000-257.92z"/>
    <path class="color-main color-lightRed" fill="#ef4123" d="M155.84 73V2.6C151.92 2.28 148 2 144 2s-7.92.28-11.84.6V73zm47.33 0V15a140.12 140.12 0 00-23.66-8.38V73zm-94.67 0V6.66A140.38 140.38 0 0084.84 15v58zm23.66 142v70.4c3.92.33 7.85.6 11.84.6s7.92-.27 11.84-.6V215zm47.35 0v66.34a140.12 140.12 0 0023.66-8.34v-58zm-94.67 0v58a140.38 140.38 0 0023.66 8.38V215z"/>
    <path class="color-black color-reserved-white" fill="#231f20" d="M91.65 180.35c-2 0-3.41-.45-4.21-1.36s-1.22-2.45-1.22-4.65V108l14.1 74.41h3l13.55-73 .23 71.11h-5.54v1.94h27.64v-2.06h-2.65q-4.59 0-4.59-6.9v-58h.23l22 66.91h20.48v-2.06h-2.65q-4.6 0-4.6-6.9V115.5h.23l22 66.91H203v-71.58q0-3.18 4-3.18h2.18v-2.06h-16.12v2.06h2.18c3.38 0 5.06 1.73 5.06 5.19v55.83h-.23l-20.42-63.08h-22.09v2.06h2.19c3.37 0 5.07 1.73 5.07 5.19v55.83h-.24l-20.42-63.08h-28.59l-7.38 39.47-7.6-39.47H79v2.06h5v66.69c0 2.23-.38 3.8-1.14 4.68s-2.12 1.33-4 1.33v2.06h12.79z"/>
    <path fill="none" stroke="#f3eebf" stroke-miterlimit="10" d="M286 144A142 142 0 11144 2a142 142 0 01142 142z"/>
</svg>
