<svg xmlns="http://www.w3.org/2000/svg" xmlns:xlink="http://www.w3.org/1999/xlink" data-name="Layer 1" viewBox="0 0 288 288">
    <defs>
        <clipPath id="clip-path">
            <circle fill="none" cx="25.51" cy="25.51" r="25.51"/>
        </clipPath>
        <clipPath id="clip-path-2">
            <path fill="none" stroke="#000" stroke-miterlimit="10" stroke-width=".5" d="M279.29 144A135.29 135.29 0 11144 8.71 135.29 135.29 0 01279.29 144z"/>
        </clipPath>
        <symbol id="Nouveau_symbole_4" data-name="Nouveau symbole 4" viewBox="0 0 51.02 51.02">
            <circle fill="#4d5613" cx="25.51" cy="25.51" r="25.51"/>
            <g clip-path="url(#clip-path)">
                <path fill="#100d0f" d="M25.51 22.68L24.09 0h2.84zM19 .81l-2.7.88 8.36 21.13zM11.66 4L9.37 5.71l14.48 17.51zM5.71 9.37L4 11.66l19.22 12.18zm-4 6.91L.81 19l22 5.66zM0 24.09v2.84l22.68-1.42zm.81 8l.88 2.69 21.13-8.35zM4 39.36l1.67 2.29 17.55-14.47zm5.33 6L11.66 47l12.19-19.2zm6.91 4l2.7.87 5.66-22zM24.09 51h2.84l-1.42-22.65zm8-.81l2.69-.87-8.39-21.11zM39.36 47l2.29-1.66L27.18 27.8zm6-5.33L47 39.36 27.8 27.18zm4-6.91l.87-2.69-22-5.66zM51 26.93v-2.84l-22.65 1.42zM50.21 19l-.87-2.7-21.13 8.34zM47 11.66l-1.68-2.29L27.8 23.84zm-5.35-5.95L39.36 4 27.18 23.22zm-6.91-4l-2.69-.9-5.66 22z"/>
            </g>
            <circle fill="#4d5613" cx="25.51" cy="25.51" r="8.5"/>
            <path fill="#fff" d="M29.12 24.81h-3.63v-.18h.67V20.2l-1.78 4.61h-.53L22 20.21v2.85a3.31 3.31 0 00.09.77 1.35 1.35 0 00.27.59.7.7 0 00.56.21H23v.18h-2v-.18a.66.66 0 00.62-.44 2.34 2.34 0 00.21-1V20l-.19-.32h-.51v-.19h3l1.09 2.67 1-2.67h2.87v.19h-.66v5h.66zm-4.45.91c-.35.13-.69.58-1 1.36L22 30.9h-1.32l-1.82-5.18h-.42v-.19h3.38v.19h-.52l1.2 3.33.8-1.92a1.71 1.71 0 00.13-.38 1.45 1.45 0 000-.32.62.62 0 00-.7-.71v-.19h1.9zM31.53 30a1.09 1.09 0 01-1.19 1 2.18 2.18 0 01-.73-.1 1.07 1.07 0 01-.49-.3 1.32 1.32 0 01-.26-.53 7.43 7.43 0 01-.08-1.38.55.55 0 00-.12-.42.65.65 0 00-.44-.11h-.29v2.54h.54v.19H25v-.19h.64v-5H25v-.19h4.46c.71 0 1.17.12 1.37.38a1.44 1.44 0 01.07 1.69 1.37 1.37 0 01-.68.48 1.37 1.37 0 01.71.44 1.26 1.26 0 01.16.69L31 30c0 .15 0 .23.1.23s.08 0 .12-.09a.63.63 0 00.09-.22zm-2.74-2.59v-1.14a.64.64 0 00-.12-.45.74.74 0 00-.47-.1h-.27V28h.14a.88.88 0 00.57-.13.54.54 0 00.15-.46z"/>
        </symbol>
    </defs>
    <g clip-path="url(#clip-path-2)">
        <use width="51.02" height="51.02" transform="matrix(8.84 0 0 8.84 -81.48 -81.48)" xlink:href="#Nouveau_symbole_4"/>
    </g>
    <path fill="none" stroke="#000" stroke-miterlimit="10" stroke-width=".5" d="M279.29 144A135.29 135.29 0 11144 8.71 135.29 135.29 0 01279.29 144z"/>
</svg>
