<svg xmlns="http://www.w3.org/2000/svg" xmlns:xlink="http://www.w3.org/1999/xlink" data-name="Layer 1" viewBox="0 0 288 288">
    <defs>
        <clipPath id="clip-path">
            <path fill="none" d="M51 25.51A25.51 25.51 0 1125.51 0 25.52 25.52 0 0151 25.51z"/>
        </clipPath>
        <clipPath id="clip-path-2">
            <path fill="none" stroke="#000" stroke-miterlimit="10" stroke-width=".5" d="M279.29 144A135.29 135.29 0 11144 8.71 135.29 135.29 0 01279.29 144z"/>
        </clipPath>
        <symbol id="Nouveau_symbole_2" data-name="Nouveau symbole 2" viewBox="0 0 51.02 51.02">
            <path fill="#bf7107" d="M51 25.51A25.51 25.51 0 1125.51 0 25.52 25.52 0 0151 25.51z"/>
            <g clip-path="url(#clip-path)">
                <path fill="#100d0f" d="M25.51 22.68L24.09 0h2.84zM19 .81l-2.7.88 8.36 21.13zM11.66 4L9.37 5.71l14.48 17.51zM5.71 9.37L4 11.66l19.22 12.19zm-4 6.91L.81 19l22 5.66zM0 24.1v2.83l22.68-1.42zm.81 7.95l.88 2.69 21.13-8.35zM4 39.36l1.67 2.29 17.55-14.47zm5.33 6L11.66 47l12.19-19.19zm6.91 4l2.7.87 5.66-22zM24.09 51h2.84l-1.42-22.65zm8-.81l2.69-.87-8.39-21.11zM39.36 47l2.29-1.66-14.47-17.53zm6-5.33L47 39.36 27.8 27.18zm4-6.91l.87-2.69-22-5.66zM51 26.93V24.1l-22.65 1.41zM50.21 19l-.87-2.7-21.13 8.34zM47 11.66l-1.68-2.29L27.8 23.85zm-5.35-5.95L39.36 4 27.18 23.22zm-6.91-4l-2.69-.9-5.66 22z"/>
            </g>
            <path fill="#bf7107" d="M34 25.51A8.51 8.51 0 1125.51 17 8.51 8.51 0 0134 25.51z"/>
            <path fill="#fff" d="M27.71 21.11a1.6 1.6 0 00-.71-1.37 2.33 2.33 0 00-1.39-.49.77.77 0 00-.55.19.6.6 0 00-.21.48.52.52 0 00.13.37 2.5 2.5 0 00.51.35 15 15 0 011.77 1.07 1.74 1.74 0 01.6.69 2 2 0 01.17.85 1.93 1.93 0 01-.39 1.23 2.32 2.32 0 01-1.07.71 3.9 3.9 0 01-1.22.22 2.54 2.54 0 01-1.59-.57l-.81.64v-2.55h.23a2.12 2.12 0 00.26 1.07 2.18 2.18 0 00.74.78 1.83 1.83 0 001 .34 1.37 1.37 0 00.77-.2.6.6 0 00.29-.51.57.57 0 00-.12-.35 1.52 1.52 0 00-.32-.29c-.14-.09-.45-.26-.94-.52-1.13-.59-1.7-1.31-1.7-2.14a1.94 1.94 0 01.66-1.5A2.36 2.36 0 0125.5 19a3.68 3.68 0 01.71.08 3.11 3.11 0 01.9.41l.83-.63v2.24zm3.17 5.13a3.1 3.1 0 00-1.19 1.59l-1.82 4.25H26.4l-.94-2.84-1.32 2.84H22.7l-2.05-5.84h-.48V26h3.65v.21h-.43l1.38 3.9.57-1.21-.9-2.69H24V26h3.67v.21h-.49L28.44 30c.64-1.5 1-2.32 1-2.44a1.65 1.65 0 00.06-.48.89.89 0 00-.16-.58.83.83 0 00-.61-.25V26h2.13z"/>
        </symbol>
    </defs>
    <g clip-path="url(#clip-path-2)">
        <use width="51.02" height="51.03" transform="matrix(8.84 0 0 8.84 -81.48 -81.49)" xlink:href="#Nouveau_symbole_2"/>
    </g>
    <path fill="none" stroke="#000" stroke-miterlimit="10" stroke-width=".5" d="M279.29 144A135.29 135.29 0 11144 8.71 135.29 135.29 0 01279.29 144z"/>
</svg>
