<svg xmlns="http://www.w3.org/2000/svg" data-name="Layer 1" viewBox="0 0 288 288">
    <path class="color-green" fill="#009a54" d="M84.84 273v-58h23.67v66.34a140.75 140.75 0 0023.66 4.06V215h23.67v70.4a140.75 140.75 0 0023.66-4.06V215h23.67v58a141.8 141.8 0 000-257.92V73H179.5V6.66a141.77 141.77 0 00-23.66-4.06V73h-23.67V2.6a141.77 141.77 0 00-23.66 4.06V73H84.84V15a141.81 141.81 0 000 257.92z"/>
    <path class="color-main color-natural" fill="#bfc8cc" d="M155.84 73V2.6C151.93 2.28 148 2 144 2s-7.93.28-11.84.6V73zm47.33 0V15a140.49 140.49 0 00-23.67-8.34V73zm-94.66 0V6.66A141.69 141.69 0 0084.84 15v58zm23.66 142v70.4c3.91.32 7.84.6 11.84.6s7.92-.28 11.83-.6V215zm47.33 0v66.34a140.49 140.49 0 0023.67-8.34v-58zm-94.66 0v58a140.8 140.8 0 0023.67 8.38V215z"/>
    <path class="color-stroke-black" fill="none" d="M286 144A142 142 0 11144 2a142 142 0 01142 142z"/>
    <path class="color-white" fill="#fff" d="M142 197.79h6.41L170 101.62q1.88-8.57 7.82-8.56H180v-2.85h-21.74v2.85h3.89c3.52 0 5.28 1.69 5.28 5a8.75 8.75 0 01-.32 2.62l-13.7 61.07h-.33L135.44 92.9h6.84v-2.69H108v2.85h6.68z"/>
    <path fill="none" stroke="#f3eebf" stroke-miterlimit="10" d="M286 144A142 142 0 11144 2a142 142 0 01142 142z"/>
</svg>
