<svg xmlns="http://www.w3.org/2000/svg" viewBox="0 0 612 612">
    <circle fill="#823393" stroke="#000" stroke-miterlimit="10" stroke-width="4" cx="306" cy="306" r="245.6"/>
    <path fill="#fff" d="M169.2 170.3L137.6 138l4.3-4.2 31.6 32.3-4.3 4.2zm9.2-9.3l-19.9-26 4-3 2.8 3.7c-.3-4.3 1.4-7.8 5-10.6 1.6-1.2 3.2-2 5-2.5 1.7-.4 3.3-.5 4.6 0 1.4.4 2.6 1.1 3.9 2.2.8.7 2 2.1 3.5 4.1l12.2 16-4.4 3.4-12.1-15.8c-1.4-1.8-2.6-3-3.6-3.6s-2.2-.9-3.4-.7c-1.3.1-2.5.7-3.7 1.6-1.9 1.4-3 3.3-3.5 5.5s.6 5 3.1 8.3l10.8 14.2-4.3 3.2zm44-28.8l-1.9-3.6c-.3 3.8-2.2 6.7-5.8 8.6-2.3 1.2-4.8 1.7-7.4 1.5-2.6-.2-5-1.2-7.3-2.9s-4.2-4-5.8-7c-1.5-2.9-2.5-5.7-2.7-8.6-.3-2.9.2-5.4 1.4-7.7 1.3-2.3 3.1-4 5.4-5.3 1.7-.9 3.5-1.4 5.2-1.4 1.7 0 3.4.4 4.8 1.1l-7.6-14.3 4.9-2.6 21.2 39.8-4.4 2.4zm-23.2-6.1c2 3.7 4.2 6 6.8 7 2.5 1 4.9.9 7-.2 2.1-1.1 3.5-3 4-5.5s-.1-5.6-2-9.2c-2.1-3.9-4.4-6.4-6.9-7.5s-4.9-1-7.1.2c-2.2 1.2-3.5 3-4 5.6-.6 2.6.2 5.8 2.2 9.6zm50.1-15.5l5.7-1.2c.2 3.5-.5 6.5-2.3 9-1.7 2.5-4.4 4.4-8 5.6-4.5 1.5-8.6 1.4-12.2-.5-3.6-1.9-6.2-5.4-8-10.4-1.8-5.2-1.8-9.7-.1-13.5 1.7-3.8 4.7-6.4 9-7.9 4.1-1.4 8-1.1 11.6.8 3.6 1.9 6.2 5.5 8 10.6.1.3.3.8.4 1.4l-23.1 7.8c1.3 3.3 3.2 5.6 5.5 6.8s4.8 1.4 7.4.5c1.9-.7 3.4-1.7 4.4-3.2 1.2-1.3 1.7-3.3 1.7-5.8zm-20.1-2.6l17.3-5.9c-1.1-2.5-2.4-4.3-4-5.2-2.4-1.5-4.9-1.7-7.5-.8-2.4.8-4.2 2.3-5.3 4.5-1 2.2-1.2 4.6-.5 7.4zm34.2 22.4l-7.3-44.6 5-.8.7 4.2c.9-1.8 2-3.3 3.4-4.3 1.3-1.1 3.1-1.8 5.2-2.1 2.8-.5 5.3-.1 7.6.9 2.3 1.1 4.3 2.8 5.8 5.2 1.5 2.4 2.5 5.1 3 8.2.5 3.3.4 6.4-.3 9.2-.8 2.8-2.1 5.1-4.2 6.9s-4.3 2.9-6.8 3.3c-1.8.3-3.5.2-5.1-.4s-2.9-1.3-4-2.3l2.6 15.7-5.6.9zm.3-29.1c.7 4.2 2 7.1 4 8.8 2 1.7 4.2 2.4 6.6 2 2.4-.4 4.3-1.8 5.7-4.1 1.4-2.3 1.7-5.7 1-10-.7-4.1-2-7.1-4-8.8-2-1.8-4.2-2.5-6.6-2.1-2.3.4-4.2 1.8-5.6 4.3-1.4 2.5-1.8 5.8-1.1 9.9zm51.3 1.4l5.7.6c-.8 3.4-2.5 6-4.9 7.9s-5.5 2.9-9.3 2.9c-4.8.1-8.6-1.3-11.4-4.2-2.8-2.9-4.3-7-4.4-12.3-.1-5.5 1.3-9.8 4-12.9s6.4-4.7 10.9-4.7c4.4-.1 8 1.4 10.8 4.3 2.8 2.9 4.3 7.1 4.4 12.5v1.5l-24.4.4c.3 3.6 1.3 6.3 3.2 8.2 1.9 1.9 4.2 2.8 6.9 2.8 2 0 3.8-.6 5.2-1.7 1.4-1.2 2.5-3 3.3-5.3zM296.7 94l18.3-.3c-.3-2.7-1-4.8-2.2-6.2-1.8-2.1-4.1-3.1-6.9-3.1-2.5 0-4.7.9-6.4 2.7-1.7 1.8-2.7 4.1-2.8 6.9zm27.3 19.7l5.2-32.3 4.9.8-.7 4.6c2.9-3.2 6.7-4.4 11.1-3.6 1.9.3 3.7 1 5.2 1.9 1.5 1 2.6 2.1 3.2 3.3.6 1.3 1 2.7 1 4.3 0 1-.1 2.8-.6 5.4l-3.2 19.8-5.5-.9 3.2-19.6c.4-2.2.4-3.9.2-5.1-.2-1.2-.9-2.2-1.8-3s-2.2-1.4-3.7-1.6c-2.3-.4-4.5 0-6.4 1.2-1.9 1.2-3.2 3.9-3.9 8l-2.9 17.6-5.3-.8zm51 12.2l1.3-3.9c-3 2.4-6.4 3-10.2 1.7-2.5-.8-4.5-2.3-6.1-4.3-1.6-2.1-2.6-4.5-2.9-7.3-.3-2.8.1-5.8 1.1-9 1-3.1 2.5-5.7 4.4-7.9 1.9-2.2 4.1-3.6 6.6-4.2 2.5-.6 5-.5 7.6.3 1.9.6 3.4 1.6 4.6 2.9 1.2 1.3 2 2.7 2.5 4.3L389 83l5.2 1.8-14.4 42.8-4.8-1.7zm-11.4-21.1c-1.3 4-1.5 7.2-.5 9.7 1 2.5 2.7 4.2 4.9 4.9 2.3.8 4.6.5 6.8-.8s4-3.9 5.3-7.8c1.4-4.2 1.7-7.6.7-10.2-1-2.5-2.6-4.2-5-5-2.3-.8-4.6-.5-6.8.9-2.2 1.5-4 4.2-5.4 8.3zm45.6 25.9l4.7 3.3c-2.4 2.5-5.1 4-8.1 4.5s-6.2-.2-9.6-1.9c-4.2-2.2-6.9-5.3-8-9.2-1.1-3.9-.4-8.2 2.1-12.9 2.6-4.9 5.8-8 9.8-9.3 3.9-1.4 7.9-1 11.9 1.2 3.9 2.1 6.3 5 7.4 9 1 3.9.3 8.3-2.2 13-.2.3-.4.7-.7 1.3L395 118.2c-1.5 3.3-1.9 6.2-1.2 8.7.7 2.5 2.3 4.5 4.7 5.7 1.8 1 3.6 1.3 5.3 1 1.8-.2 3.6-1.2 5.4-2.9zm-11.8-16.4l16.1 8.6c1.1-2.5 1.4-4.7 1.1-6.4-.6-2.7-2.1-4.7-4.6-6.1-2.2-1.2-4.5-1.4-6.9-.8-2.3.7-4.2 2.3-5.7 4.7zm14.7 30.3l19.8-26 4 3-2.8 3.7c4.1-1.4 7.9-.7 11.5 2 1.6 1.2 2.8 2.6 3.7 4.1s1.3 3.1 1.3 4.5-.4 2.8-1.1 4.3c-.5.9-1.5 2.4-3 4.5l-12.2 16-4.4-3.4 12.1-15.8c1.4-1.8 2.2-3.3 2.6-4.4.3-1.2.3-2.3-.2-3.5-.5-1.2-1.3-2.2-2.5-3.1-1.9-1.4-4-2.1-6.2-1.9s-4.7 1.9-7.2 5.2l-11 14.2-4.4-3.4zm37.2 25.2l-2.8 4.1c-1.3-.9-2.5-1.7-3.3-2.6-1.4-1.4-2.3-2.7-2.7-4s-.3-2.4.1-3.4 1.8-2.8 4.1-5.2l13.1-13.5-2.9-2.8 3-3.1 2.9 2.8 5.7-5.8 6.3 1.5-8 8.2 4 3.9-3 3.1-4-3.9-13.4 13.7c-1.1 1.1-1.7 1.9-1.9 2.4-.2.5-.2.9-.1 1.4.1.5.5 1 1.1 1.6.4.5 1 1 1.8 1.6zM181.6 511.1l21.5-42.6L222 478c3.8 1.9 6.5 3.8 8.1 5.5 1.6 1.8 2.5 3.9 2.7 6.4.2 2.5-.3 5-1.5 7.3-1.5 3-3.8 5.1-6.8 6.2-3 1.1-6.7.9-11.1-.6 1.1 1.5 1.9 2.8 2.3 3.8.9 2.3 1.5 5 1.8 8l1.6 15.3-7.1-3.6-1.2-11.7c-.4-3.4-.7-6-1.1-7.9-.4-1.9-.9-3.3-1.4-4.3-.6-1-1.2-1.8-2-2.4-.6-.5-1.6-1.1-3-1.8l-6.5-3.3-9.6 18.9-5.6-2.7zm17.6-21l12.1 6.1c2.6 1.3 4.7 2.1 6.4 2.3 1.7.2 3.3-.1 4.6-.9 1.3-.8 2.4-1.9 3.1-3.2 1-2 1.1-4 .3-6.1-.8-2-2.8-3.9-5.9-5.4l-13.5-6.8-7.1 14zm52.6 44.6c-2.6 1.2-4.9 1.9-7.1 2.1-2.1.2-4.3 0-6.5-.6-3.7-1-6.2-2.7-7.7-5s-1.8-4.9-1.1-7.7c.4-1.6 1.2-3 2.3-4.2 1.1-1.1 2.4-2 3.8-2.4 1.4-.5 3-.7 4.6-.7 1.2 0 2.9.2 5.3.5 4.7.7 8.2 1 10.6.8.2-.8.4-1.3.4-1.5.6-2.3.5-4.1-.3-5.3-1.1-1.7-3.1-2.9-5.9-3.7-2.7-.7-4.7-.8-6.3-.2-1.5.6-2.9 2-4.2 4.2l-5.3-2.3c1.2-2.2 2.5-3.9 4.1-5 1.6-1.1 3.5-1.8 5.9-2s5 .1 7.9.9c2.8.8 5.1 1.8 6.7 2.9 1.6 1.2 2.7 2.4 3.2 3.6.6 1.2.8 2.7.7 4.3-.1 1-.5 2.8-1.1 5.3l-2.1 7.5c-1.4 5.3-2.2 8.6-2.4 10.1-.1 1.5 0 2.9.3 4.4l-5.9-1.6c-.2-1.3-.2-2.8.1-4.4zm3-12.8c-2.3.3-5.6.1-9.8-.4-2.4-.3-4.2-.4-5.2-.2-1.1.2-2 .6-2.7 1.2-.7.7-1.3 1.5-1.5 2.5-.4 1.5-.2 2.9.7 4.2.9 1.3 2.4 2.3 4.6 2.9 2.2.6 4.2.7 6.2.2 2-.5 3.6-1.4 4.8-2.9 1-1.1 1.8-2.9 2.5-5.4l.4-2.1zm13 20.2l5.1-34.2 5.8.9-5.1 34.2-5.8-.9zm6-40.6l1-6.7 5.8.9-1 6.7-5.8-.9zm10.2 42.6l3.7-47.6 5.8.5-3.7 47.6-5.8-.5zm17.1 1.1l-.6-34.6 5.3-.1.1 5.2c1.3-2.5 2.5-4.1 3.6-4.9s2.4-1.2 3.7-1.2c2 0 4 .6 6.1 1.8l-1.9 5.5c-1.4-.8-2.9-1.2-4.3-1.2-1.3 0-2.4.4-3.4 1.2-1 .8-1.7 1.9-2.1 3.2-.6 2.1-.9 4.4-.9 6.9l.3 18.1-5.9.1zm20.7-17.4c-.9-6.3.2-11.3 3.3-14.8 2.6-3 6-4.7 10.2-5.4 4.7-.7 8.8.3 12.2 3 3.4 2.7 5.5 6.7 6.3 12.1.6 4.4.5 8-.5 10.7-1 2.7-2.6 5-4.9 6.7-2.3 1.8-5 2.9-8 3.3-4.8.7-8.9-.3-12.3-2.9-3.4-2.7-5.5-6.9-6.3-12.7zm5.9-.8c.6 4.4 2.1 7.5 4.3 9.4 2.2 1.9 4.8 2.6 7.7 2.2 2.9-.4 5.1-1.9 6.7-4.3 1.6-2.5 2.1-5.9 1.4-10.4-.6-4.2-2-7.3-4.3-9.2-2.2-1.9-4.8-2.6-7.6-2.2-2.9.4-5.2 1.9-6.8 4.3s-2 5.8-1.4 10.2zm59.5-.4c-1.5 2.4-3.1 4.3-4.7 5.7-1.7 1.3-3.6 2.4-5.8 3.1-3.6 1.2-6.7 1.2-9.2.1-2.5-1.1-4.2-3.1-5.1-5.8-.5-1.6-.6-3.2-.3-4.8s.9-3 1.8-4.1 2.1-2.2 3.4-3.1c1-.6 2.6-1.5 4.7-2.5 4.3-2 7.4-3.7 9.3-5.2-.2-.8-.4-1.3-.4-1.5-.7-2.3-1.8-3.7-3.1-4.3-1.8-.8-4.2-.7-7 .2-2.6.9-4.4 2-5.4 3.3s-1.3 3.3-1.2 5.8l-5.7 1c-.3-2.5-.1-4.6.6-6.4.7-1.8 1.9-3.4 3.8-4.9 1.9-1.5 4.3-2.7 7.1-3.6 2.8-.9 5.2-1.3 7.2-1.2s3.5.5 4.7 1.2c1.2.7 2.1 1.8 3 3.2.5.9 1.2 2.6 2 5l2.4 7.4c1.7 5.2 2.9 8.4 3.6 9.7.7 1.3 1.6 2.5 2.7 3.5l-5.8 1.9c-1.1-1-2-2.3-2.6-3.7zm-4.6-12.3c-1.8 1.5-4.6 3.2-8.4 5.1-2.2 1.1-3.7 2-4.5 2.7-.8.7-1.3 1.6-1.6 2.5-.3 1-.2 1.9.1 2.9.5 1.5 1.5 2.5 2.9 3.2 1.4.6 3.3.6 5.4-.1 2.1-.7 3.9-1.8 5.3-3.3s2.2-3.2 2.4-5.1c.2-1.5-.1-3.4-.9-5.9l-.7-2zm43.1-1.1l-2.1-3.9c-.3 4.1-2.4 7.1-6.1 9.1-2.4 1.3-5 1.8-7.8 1.6-2.8-.3-5.3-1.3-7.7-3.1-2.4-1.8-4.4-4.3-6.1-7.4-1.6-3-2.6-6.1-2.9-9.1-.3-3 .2-5.7 1.5-8.1s3.2-4.3 5.8-5.6c1.8-1 3.7-1.5 5.5-1.5 1.8 0 3.6.4 5.1 1.2l-8.1-15.1 5.1-2.7 22.5 42.1-4.7 2.5zm-24.5-6.5c2.1 3.9 4.5 6.4 7.1 7.4 2.7 1.1 5.1 1 7.4-.2 2.3-1.2 3.7-3.2 4.3-5.8.6-2.7-.1-5.9-2.1-9.7-2.2-4.2-4.7-6.8-7.3-7.9-2.7-1.1-5.2-1-7.5.2s-3.7 3.2-4.3 5.9c-.6 2.7.2 6 2.4 10.1z"/>
    <path fill="#fff" stroke="#000" stroke-miterlimit="10" stroke-width="4" d="M17.8 184.8h576.5v236.1H17.8z"/>
    <path d="M93.5 310.2c0-23.8 6.4-42.4 19.1-55.8 12.8-13.4 29.2-20.2 49.4-20.2 13.2 0 25.1 3.2 35.7 9.5 10.6 6.3 18.7 15.1 24.3 26.4 5.6 11.3 8.3 24.1 8.3 38.4 0 14.5-2.9 27.5-8.8 39s-14.2 20.1-24.9 26c-10.7 5.9-22.3 8.8-34.8 8.8-13.5 0-25.5-3.3-36.1-9.8-10.6-6.5-18.7-15.4-24.1-26.7-5.4-11.1-8.1-23-8.1-35.6zm19.5.3c0 17.3 4.6 30.8 13.9 40.8 9.3 9.9 20.9 14.9 34.9 14.9 14.3 0 26-5 35.2-15 9.2-10 13.8-24.3 13.8-42.7 0-11.7-2-21.8-5.9-30.5-3.9-8.7-9.7-15.4-17.3-20.2-7.6-4.8-16.1-7.2-25.5-7.2-13.4 0-25 4.6-34.6 13.8-9.7 9.2-14.5 24.5-14.5 46.1zm243.9 19.2l18.9 4.8c-4 15.6-11.1 27.4-21.4 35.6-10.3 8.2-22.9 12.3-37.8 12.3-15.4 0-28-3.1-37.6-9.4-9.7-6.3-17-15.4-22.1-27.3-5-11.9-7.6-24.7-7.6-38.4 0-14.9 2.8-27.9 8.5-39 5.7-11.1 13.8-19.5 24.3-25.3 10.5-5.8 22.1-8.6 34.7-8.6 14.3 0 26.4 3.6 36.1 10.9 9.8 7.3 16.6 17.5 20.4 30.8l-18.7 4.4c-3.3-10.4-8.1-18-14.5-22.8-6.3-4.8-14.3-7.1-23.8-7.1-11 0-20.2 2.6-27.6 7.9-7.4 5.3-12.6 12.4-15.6 21.2-3 8.9-4.5 18.1-4.5 27.5 0 12.2 1.8 22.8 5.3 31.9 3.5 9.1 9.1 15.9 16.6 20.4 7.5 4.5 15.6 6.7 24.3 6.7 10.6 0 19.6-3.1 27-9.2 7.5-6.2 12.5-15.2 15.1-27.3zm42.6 50.2V236.8H463c12.8 0 22.5 1.3 29.1 3.9 6.6 2.6 11.9 7.1 15.9 13.6s6 13.7 6 21.6c0 10.2-3.3 18.7-9.9 25.7-6.6 7-16.7 11.4-30.5 13.3 5 2.4 8.8 4.8 11.4 7.1 5.5 5.1 10.8 11.4 15.7 19l24.9 39h-23.8l-18.9-29.8c-5.5-8.6-10.1-15.2-13.7-19.7-3.6-4.6-6.8-7.7-9.6-9.6-2.8-1.8-5.7-3.1-8.6-3.8-2.1-.5-5.7-.7-10.5-.7h-22V380h-19zm19-80h40.7c8.7 0 15.4-.9 20.3-2.7 4.9-1.8 8.6-4.7 11.1-8.6 2.5-3.9 3.8-8.2 3.8-12.8 0-6.8-2.5-12.3-7.4-16.7-4.9-4.4-12.7-6.5-23.3-6.5h-45.3v47.3z"/>
</svg>
