<svg xmlns="http://www.w3.org/2000/svg" viewBox="0 0 612 612">
    <path class="color-violet color-main" fill="#680d0c" d="M55.9 114.8h500.3v382.3H55.9z"/>
    <path class="color-reserved-white" fill="#fff4bd" d="M548.1 122.8v366.3H63.9V122.8h484.2m16-16H47.9v398.3h516.3V106.8h-.1z"/>
    <path class="color-violet color-main" fill="#680d0c" d="M556.1 114.8v382.3H55.9V114.8h500.2m8-8H47.9v398.3h516.3V106.8h-.1z"/>
    <path class="color-reserved-white" fill="#f7efc6" d="M90.7 292V175.4c0-3.1 1.2-4.7 3.7-4.7h3.5c2.5 0 3.7 1.6 3.7 4.7v108H115c2.6 0 3.9 1.6 3.9 4.7v4c0 3.1-1.3 4.7-3.9 4.7H94.5c-2.5-.1-3.8-1.7-3.8-4.8zm38.5 1.5c-2.3-2.6-3.5-6.3-3.5-11v-7.9c0-6.7 1.2-12 3.5-15.7s6-6.8 11.1-9.2l6.9-3.3v-10.5c0-1.5-.5-2.8-1.4-3.7-.9-.9-2-1.4-3.4-1.4h-1c-1.3 0-2.5.5-3.5 1.4-1 1-1.5 2.2-1.5 3.7v4.5c0 2.1-1.1 3.2-3.2 3.2h-3.6c-2.2 0-3.3-1.1-3.3-3.2v-3.7c0-4.8 1.4-8.7 4.1-11.6 2.7-2.9 6.6-4.4 11.6-4.4h1.2c4.3 0 7.9 1.5 10.7 4.5 2.8 3 4.2 6.7 4.2 11.2l.1 57c0 2.2-1.1 3.3-3.3 3.3h-3.5c-1.3 0-2.3-.6-2.7-1.9l-.9-3.2c-1.2 2.1-2.6 3.6-4.4 4.5-1.8.9-3.4 1.3-5 1.3h-1c-3.1 0-5.9-1.3-8.2-3.9zm16.7-7.6c.8-1 1.2-2.4 1.2-4.2v-24.6l-3 1.6c-3.1 1.5-5.1 3.4-6 5.6-1 2.2-1.4 5.4-1.4 9.6v7.6c0 3.8 1.3 5.8 3.9 5.8h2.2c1.2 0 2.3-.4 3.1-1.4zm27.3 7.3c-2.9-2.9-4.4-6.6-4.4-11.2v-45.4c0-4.5 1.5-8.2 4.4-11.2 2.9-2.9 6.6-4.4 11-4.4h1.9c4.6 0 8.4 1.5 11.2 4.4 2.9 2.9 4.3 6.6 4.3 11.2v12.5c0 2.5-1.2 3.7-3.7 3.7h-3.6c-2.5 0-3.7-1.2-3.7-3.7v-13c0-1.2-.4-2.3-1.3-3.2-.9-.9-1.9-1.3-3.2-1.3h-1.9c-1.2 0-2.3.4-3.2 1.3-.9.9-1.3 1.9-1.3 3.2v46.1c0 1.2.4 2.3 1.3 3.2.9.9 1.9 1.4 3.2 1.4h1.9c1.2 0 2.3-.5 3.2-1.4.9-.9 1.3-2 1.3-3.2v-12.7c0-2.5 1.2-3.7 3.7-3.7h3.6c2.5 0 3.7 1.2 3.7 3.7V282c0 4.5-1.4 8.2-4.3 11.2-2.9 2.9-6.6 4.4-11.2 4.4h-1.9c-4.4 0-8.1-1.5-11-4.4zm39.3-.2V174.4c0-2.5 1.2-3.7 3.7-3.7h3.5c2.5 0 3.7 1.2 3.7 3.7v79.8l12.2-30.2c.9-1.9 2.4-2.9 4.5-2.9h3.5c1.1 0 1.9.2 2.4.6.6.4.9 1 .9 1.8 0 .5-.1 1.1-.4 1.9l-13.2 33 13.2 34c.3.6.4 1.2.4 1.7 0 .8-.3 1.4-.9 1.9-.6.5-1.4.7-2.4.7h-3.5c-2.1 0-3.6-1-4.5-2.9l-12.2-31.1V293c0 2.5-1.2 3.7-3.7 3.7h-3.5c-2.4 0-3.7-1.2-3.7-3.7zm45 .5c-2.3-2.6-3.5-6.3-3.5-11v-7.9c0-6.7 1.2-12 3.5-15.7s6-6.8 11.1-9.2l6.9-3.3v-10.5c0-1.5-.5-2.8-1.4-3.7-.9-.9-2-1.4-3.4-1.4h-1c-1.3 0-2.5.5-3.5 1.4-1 1-1.5 2.2-1.5 3.7v4.5c0 2.1-1.1 3.2-3.2 3.2h-3.6c-2.2 0-3.3-1.1-3.3-3.2v-3.7c0-4.8 1.4-8.7 4.1-11.6 2.7-2.9 6.6-4.4 11.6-4.4h1.2c4.3 0 7.9 1.5 10.7 4.5 2.8 3 4.2 6.7 4.2 11.2l.1 57c0 2.2-1.1 3.3-3.3 3.3h-3.5c-1.3 0-2.3-.6-2.7-1.9l-.9-3.2c-1.2 2.1-2.6 3.6-4.4 4.5-1.8.9-3.4 1.3-5 1.3h-1c-3.1 0-5.9-1.3-8.2-3.9zm16.7-7.6c.8-1 1.2-2.4 1.2-4.2v-24.6l-3 1.6c-3.1 1.5-5.1 3.4-6 5.6-1 2.2-1.4 5.4-1.4 9.6v7.6c0 3.8 1.3 5.8 3.9 5.8h2.2c1.2 0 2.3-.4 3.1-1.4zm28.9 7.3l-9.8-68.1c-.2-1.2 0-2.2.6-3 .6-.7 1.6-1.1 2.8-1.1h3.6c2.4 0 3.7 1.2 4 3.6l6.3 56h.3l9.5-56.2c.4-2.2 1.8-3.3 4.2-3.3h2c2.3 0 3.6 1.1 4 3.3l9.5 56.2h.3l6.5-56c.1-2.4 1.4-3.6 3.9-3.6h3.6c1.3 0 2.3.4 2.9 1.1.6.7.8 1.7.6 3l-9.6 68.1c-.5 2.3-1.8 3.5-4 3.5h-6.6c-2.3 0-3.6-1.1-4-3.3l-7.9-46.8-8.1 46.8c-.4 2.2-1.7 3.3-4 3.3H307c-2.3 0-3.6-1.2-3.9-3.5zm63.7.3c-2.3-2.6-3.5-6.3-3.5-11v-7.9c0-6.7 1.2-12 3.5-15.7 2.3-3.7 6-6.8 11.1-9.2l6.9-3.3v-10.5c0-1.5-.5-2.8-1.4-3.7-.9-.9-2-1.4-3.4-1.4h-1c-1.3 0-2.5.5-3.5 1.4-1 1-1.5 2.2-1.5 3.7v4.5c0 2.1-1.1 3.2-3.2 3.2h-3.6c-2.2 0-3.3-1.1-3.3-3.2v-3.7c0-4.8 1.4-8.7 4.1-11.6 2.7-2.9 6.6-4.4 11.6-4.4h1.2c4.3 0 7.9 1.5 10.7 4.5 2.8 3 4.2 6.7 4.2 11.2l.1 57c0 2.2-1.1 3.3-3.3 3.3H389c-1.3 0-2.3-.6-2.7-1.9l-.9-3.2c-1.2 2.1-2.6 3.6-4.4 4.5-1.8.9-3.4 1.3-5 1.3h-1c-3.1 0-5.9-1.3-8.2-3.9zm16.7-7.6c.8-1 1.2-2.4 1.2-4.2v-24.6l-3 1.6c-3.1 1.5-5.1 3.4-6 5.6-1 2.2-1.4 5.4-1.4 9.6v7.6c0 3.8 1.3 5.8 3.9 5.8h2.2c1.2 0 2.3-.4 3.1-1.4zm22.1 7.1v-67.8c0-2.5 1.2-3.7 3.7-3.7h2.9c2.2 0 3.6 1.1 4.2 3.3l.1.7c1.3-1.7 2.9-2.9 4.5-3.5 1.7-.6 3.2-.9 4.7-.9h.6c3.3 0 6.1 1.2 8.5 3.6 2.4 2.4 3.6 6 3.6 10.8V293c0 2.5-1.2 3.7-3.7 3.7h-3.5c-2.5 0-3.7-1.2-3.7-3.7v-56.3c0-3.7-1.5-5.6-4.5-5.6h-.7c-1.9 0-3.4.5-4.3 1.6-1 1.1-1.4 2.5-1.4 4.3v56c0 2.5-1.2 3.7-3.7 3.7h-3.5c-2.5 0-3.8-1.2-3.8-3.7zm42.1 0v-67.8c0-2.5 1.2-3.7 3.7-3.7h2.9c2.2 0 3.6 1.1 4.2 3.3l.1.7c1.3-1.7 2.9-2.9 4.5-3.5 1.7-.6 3.2-.9 4.7-.9h.6c3.3 0 6.1 1.2 8.5 3.6 2.4 2.4 3.6 6 3.6 10.8V293c0 2.5-1.2 3.7-3.7 3.7h-3.5c-2.5 0-3.7-1.2-3.7-3.7v-56.3c0-3.7-1.5-5.6-4.5-5.6h-.7c-1.9 0-3.4.5-4.3 1.6-1 1.1-1.4 2.5-1.4 4.3v56c0 2.5-1.2 3.7-3.7 3.7h-3.5c-2.6 0-3.8-1.2-3.8-3.7zm44.6.5c-2.3-2.6-3.5-6.3-3.5-11v-7.9c0-6.7 1.2-12 3.5-15.7s6-6.8 11.1-9.2l6.9-3.3v-10.5c0-1.5-.5-2.8-1.4-3.7-.9-.9-2-1.4-3.4-1.4h-1c-1.3 0-2.5.5-3.5 1.4-1 1-1.5 2.2-1.5 3.7v4.5c0 2.1-1.1 3.2-3.2 3.2h-3.6c-2.2 0-3.3-1.1-3.3-3.2v-3.7c0-4.8 1.4-8.7 4.1-11.6 2.7-2.9 6.6-4.4 11.6-4.4h1.2c4.3 0 7.9 1.5 10.7 4.5 2.8 3 4.2 6.7 4.2 11.2l.1 57c0 2.2-1.1 3.3-3.3 3.3h-3.5c-1.3 0-2.3-.6-2.7-1.9l-.9-3.2c-1.2 2.1-2.6 3.6-4.4 4.5-1.8.9-3.4 1.3-5 1.3h-1c-3.1 0-5.9-1.3-8.2-3.9zm16.8-7.6c.8-1 1.2-2.4 1.2-4.2v-24.6l-3 1.6c-3.1 1.5-5.1 3.4-6 5.6-1 2.2-1.4 5.4-1.4 9.6v7.6c0 3.8 1.3 5.8 3.9 5.8h2.2c1.2 0 2.3-.4 3.1-1.4zM166.9 448V331.4c0-3.1 1.2-4.7 3.7-4.7h13.5c4.4 0 8.1 1.8 11 5.5 2.9 3.7 4.4 8.3 4.4 13.8v39c0 3.5-.6 6.7-1.9 9.5-1.2 2.9-3.3 5-6 6.5l8.6 46.4c.1.4.1.9.1 1.6 0 1.1-.3 2-.9 2.6-.6.7-1.4 1-2.4 1h-3.5c-2.3 0-3.7-1.4-4.2-4.1l-8.4-46.8H178V448c0 3.1-1.3 4.7-3.9 4.7h-3.5c-2.5 0-3.7-1.6-3.7-4.7zm20.4-60.1c.8-1 1.2-2.2 1.2-3.8v-38.5c0-1.6-.4-2.9-1.3-4s-1.9-1.6-3.2-1.6h-6v49.3h6.3c1.3 0 2.3-.4 3-1.4zm25.1 61.6c-2.3-2.6-3.5-6.3-3.5-11v-7.9c0-6.7 1.2-12 3.5-15.7s6-6.8 11.1-9.2l6.9-3.3v-10.5c0-1.5-.5-2.8-1.4-3.7-.9-.9-2-1.4-3.4-1.4h-1c-1.3 0-2.5.5-3.5 1.4-1 1-1.5 2.2-1.5 3.7v4.5c0 2.1-1.1 3.2-3.2 3.2h-3.6c-2.2 0-3.3-1.1-3.3-3.2v-3.7c0-4.8 1.4-8.7 4.1-11.6 2.7-2.9 6.6-4.4 11.6-4.4h1.2c4.3 0 7.9 1.5 10.7 4.5 2.8 3 4.2 6.7 4.2 11.2l.1 57c0 2.2-1.1 3.3-3.3 3.3h-3.5c-1.3 0-2.3-.6-2.7-1.9l-.9-3.2c-1.2 2.1-2.6 3.6-4.4 4.5-1.8.9-3.4 1.3-5 1.3h-1c-3.1 0-5.9-1.3-8.2-3.9zm16.8-7.6c.8-1 1.2-2.4 1.2-4.2v-24.6l-3 1.6c-3.1 1.5-5.1 3.4-6 5.6-1 2.2-1.4 5.4-1.4 9.6v7.6c0 3.8 1.3 5.8 3.9 5.8h2.2c1.2 0 2.3-.4 3.1-1.4zm22.1-109v-2.4c0-2.5 1.2-3.7 3.7-3.7h3.5c2.5 0 3.7 1.2 3.7 3.7v2.4c0 2.5-1.2 3.7-3.7 3.7H255c-2.5 0-3.7-1.2-3.7-3.7zm0 116.1v-68.1c0-2.5 1.2-3.7 3.7-3.7h3.5c2.5 0 3.7 1.2 3.7 3.7V449c0 2.5-1.2 3.7-3.7 3.7H255c-2.5 0-3.7-1.2-3.7-3.7zm20.9 0V330.4c0-2.5 1.2-3.7 3.7-3.7h3.5c2.5 0 3.7 1.2 3.7 3.7V449c0 2.5-1.2 3.7-3.7 3.7h-3.5c-2.5 0-3.7-1.2-3.7-3.7zm21 0v-68c0-2.5 1.3-3.7 3.9-3.7h2.7c1.2 0 2.1.3 2.7.9.7.6 1.1 1.5 1.2 2.7l.1 5.9h.1c3.4-6.4 8.5-9.6 15.6-9.6h.1c1.5 0 2.3.8 2.3 2.3v6.8c0 .8-.2 1.3-.7 1.7-.5.4-1.1.5-1.9.3l-2-.1c-4 0-7.2 1.2-9.6 3.5-2.4 2.3-3.5 5.4-3.5 9.4V449c0 2.5-1.2 3.7-3.7 3.7H297c-2.5 0-3.8-1.2-3.8-3.7zm39.9.2c-2.9-2.9-4.4-6.6-4.4-11v-45.9c0-4.4 1.5-8.1 4.5-11 3-2.9 6.7-4.4 11.1-4.4h1.4c4.6 0 8.4 1.5 11.2 4.4 2.9 2.9 4.3 6.6 4.3 11v45.9c0 4.5-1.4 8.2-4.3 11.1s-6.6 4.3-11.2 4.3h-1.4c-4.5 0-8.2-1.5-11.2-4.4zm15.8-7.5c.9-.9 1.3-2 1.3-3.2V392c0-1.2-.4-2.3-1.3-3.2-.9-.9-1.9-1.4-3.2-1.4h-1.6c-1.2 0-2.3.5-3.2 1.4-.9.9-1.3 2-1.3 3.2v46.5c0 1.2.4 2.3 1.3 3.2.9.9 1.9 1.4 3.2 1.4h1.6c1.3 0 2.3-.5 3.2-1.4zm24.2 7.8c-2.3-2.6-3.5-6.3-3.5-11v-7.9c0-6.7 1.2-12 3.5-15.7s6-6.8 11.1-9.2l6.9-3.3v-10.5c0-1.5-.5-2.8-1.4-3.7-.9-.9-2-1.4-3.4-1.4h-1c-1.3 0-2.5.5-3.5 1.4-1 1-1.5 2.2-1.5 3.7v4.5c0 2.1-1.1 3.2-3.2 3.2h-3.6c-2.2 0-3.3-1.1-3.3-3.2v-3.7c0-4.8 1.4-8.7 4.1-11.6 2.7-2.9 6.6-4.4 11.6-4.4h1.2c4.3 0 7.9 1.5 10.7 4.5 2.8 3 4.2 6.7 4.2 11.2l.1 57c0 2.2-1.1 3.3-3.3 3.3h-3.5c-1.3 0-2.3-.6-2.7-1.9l-.9-3.2c-1.2 2.1-2.6 3.6-4.4 4.5-1.8.9-3.4 1.3-5 1.3h-1c-3.1 0-5.9-1.3-8.2-3.9zm16.8-7.6c.8-1 1.2-2.4 1.2-4.2v-24.6l-3 1.6c-3.1 1.5-5.1 3.4-6 5.6-1 2.2-1.4 5.4-1.4 9.6v7.6c0 3.8 1.3 5.8 3.9 5.8h2.2c1.2 0 2.3-.4 3.1-1.4zm26.4 7.1c-2.4-2.4-3.6-6.1-3.6-10.9v-49.2c0-4.8 1.2-8.4 3.6-10.7 2.4-2.4 5.2-3.5 8.5-3.5h.6c4.1 0 7.2 1.2 9.2 3.6v-47.8c0-2.5 1.2-3.7 3.7-3.7h3.5c2.5 0 3.7 1.2 3.7 3.7V449c0 2.5-1.2 3.7-3.7 3.7h-2.6c-2.1 0-3.5-1-4.2-3l-.4-.9c-2 2.6-4.8 3.9-8.4 3.9H425c-3.4 0-6.3-1.2-8.7-3.7zm16.9-7.7c.9-1.2 1.4-2.6 1.4-4.3v-46.5c0-1.8-.5-3.3-1.4-4.3-1-1.1-2.4-1.6-4.3-1.6h-.7c-3 0-4.5 1.9-4.5 5.8v48.4c0 2.9 1.5 4.3 4.5 4.3h1.6c1.3 0 2.5-.6 3.4-1.8z"/>
</svg>
