<svg xmlns="http://www.w3.org/2000/svg" width="200" height="200" viewBox="0 0 200 200">
  <circle class="color-black color-main" fill="#0" cx="100" cy="100" r="100"/>
  <path class="color-stroke-white" fill="none" stroke="#fff" stroke-miterlimit="10" stroke-width="1.425" d="M99.858 156.268c-23.79 0-46.154-5.698-63.106-15.955C19.373 129.63 9.83 115.243 9.83 99.858c0-15.385 9.544-29.63 27.066-40.314C53.846 49.288 76.21 43.59 100 43.59s46.154 5.698 63.105 15.954c17.38 10.684 26.923 24.929 26.923 40.314 0 15.384-9.544 29.63-27.065 40.313-16.81 10.399-39.174 16.097-63.105 16.097z"/>
  <path class="color-white" fill="#fff" d="M44.302 83.903c-.57.143-.997.285-1.567.285-.427 0-.855-.285-1.424-.285-1.567-.142-2.992-.427-4.416-.285-6.126.855-9.972 4.559-12.251 9.972-1.994 4.558-1.567 9.117-.143 13.817 2.565 7.835 9.402 13.248 17.522 13.248 3.988 0 7.835-.997 11.253-3.419.285-.284.57-.427.855-.712-1.424.57-2.706 1.282-3.989 1.71-4.13 1.282-8.262 1.567-12.25-.428-2.707-1.424-4.844-2.991-6.41-5.698-2.137-3.988-3.42-8.404-2.992-13.105.285-3.419.997-6.695 2.849-9.687 2.707-4.558 7.123-5.413 11.396-2.991.712.427 1.425.997 1.994 1.567-.142-1.282-.142-2.707-.427-3.989zm18.803 8.12v.285c.285.285.428.285.713.57.854.57 1.14 1.282 1.14 2.279-.143 4.273-.143 8.547-.286 12.82 0 1.852.143 3.561-.997 5.27v.143h3.277c-.285-.712-.57-1.424-.57-1.994 0-3.989.142-8.262.142-12.25 0-.428.143-.855.143-1.568 4.985 5.556 9.544 11.254 14.387 16.667.57-1.567.997-3.134 1.567-4.558.285-.428.285-.713-.285-.855-.285-.143-.712-.427-.712-.855a6.31 6.31 0 0 1-.427-2.137c0-3.133.142-6.41.142-9.544 0-1.424.285-2.564 1.282-3.561.143-.142.143-.285.143-.285h-3.847c0 .143-.142.143-.142.285.142.142.285.142.427.285.855.57.997 1.282.997 2.28-.142 2.706 0 5.555-.142 8.261 0 .855-.142 1.71-.142 2.707-.285-.143-.57-.285-.855-.57-3.277-3.846-6.41-7.55-9.544-11.396-.285-.285-.57-.855-.428-1.282.143-.427-.142-.712-.57-.712h-2.421c-.997-.285-1.994-.285-2.992-.285z"/>
  <path class="color-white" fill="#fff" d="M60.684 107.55c-.997.855-1.995 1.994-2.992 2.564-.854.57-1.994 1.14-2.991 1.14-2.707.142-5.27 0-7.835.142-.712 0-.855-.285-.855-.855.143-2.706.143-5.698.143-8.404 0-.57.285-.713.712-.713 1.425.143 2.707.143 4.131.143 1.425 0 2.564.285 3.704 1.14.285.142.285.284.57.284l.142-.142c-.57-1.567-1.14-2.991-1.852-4.7-.285.427-.427.854-.712.996-.285.285-.57.57-.855.57h-5.413c-.427 0-.427-.285-.427-.57v-3.988c0-.57 0-1.14.142-1.852h5.413c1.14 0 2.28 0 3.42.142 1.566.285 2.706.997 3.988 2.137-.285-1.14-.428-2.28-.855-3.419 0-.142-.427-.285-.712-.285H40.17c.428.428.856.713 1.14.997.57.57.855 1.14.855 1.995 0 4.558-.142 9.26 0 13.817 0 1.425-.285 2.707-1.14 3.847-.142.142-.142.285-.284.427.285 0 .285.142.427.142 5.413.143 10.826.143 16.24.143.284 0 .57-.285.712-.57.712-1.424 1.424-2.706 1.994-4.131.285-.285.427-.57.57-.997zm81.909 19.516c.142 0 .285 0 .285.142-.285 4.273.284 8.547-.428 12.82h3.704c-.285-.997-.57-1.994-.57-2.849v-8.12c0-1.139.143-2.136.57-3.276.142-.284.285-.57.285-.854h-5.27c.284.854-2.707 6.98-3.847 7.692-.712-1.424-1.425-2.706-1.994-3.989-.428-1.14-1.567-2.136-.855-3.703h-4.7c.426 5.128.284 10.114-.143 15.242h3.134a8.07 8.07 0 0 1-.57-.997c-.285-.428-.57-.997-.57-1.567 0-2.564 0-5.128.142-7.692 0-.143.143-.285.143-.428h.285c1.567 3.419 3.134 6.98 4.7 10.541.57-.712.998-1.282 1.568-1.709.854-.855.854-1.567.284-2.564-.284-.427-.284-.855 0-1.567.855-1.424 1.567-2.707 2.137-3.989.57-1.14 1.14-1.994 1.71-3.133zM107.55 96.439s.142 0 0 0c-.427-1.282-.855-2.564-1.567-3.704-.143-.285-.427-.285-.712-.427H88.177c-.428 0-.855.285-.855.712-.285.855-.855 1.71-1.282 2.706-.143.285-.285.428-.285.713.285 0 .285-.143.427-.143 2.137-1.71 4.559-2.421 7.408-2.279.712 0 .854.285.854.855-.142 4.986-.284 9.971-.284 14.815 0 1.282-.143 2.564-.855 3.56-.143.143-.143.286-.143.428h7.123c-1.14-.997-1.71-2.137-1.71-3.561 0-5.128.143-10.114.143-15.242 0-.57.142-.855.855-.855.427.143.854 0 1.282 0 1.71.143 3.276.143 4.7.997.713.428 1.283.997 1.995 1.425zm58.69 15.954v-6.268c0-2.849.142-5.84.142-8.832 0-1.567.142-2.991 1.567-3.988v-.285h-7.693c.428.427.855.855 1.282 1.14.285.284.57.854.57 1.424 0 5.27 0 10.399-.142 15.67 0 .57-.285 1.14-.712 1.567-.285.427-.713.854-1.14 1.282.285.142.427.142.57.142 2.421 0 4.986 0 7.407.142 3.134 0 6.268 0 9.402.143.427 0 .712-.143.855-.427.427-.855.854-1.567 1.567-2.565.284-.427.427-.854.712-1.424 0-.142-.143-.142-.143-.285-4.7 3.134-9.544 2.992-14.245 2.564zM87.75 74.786h-.286c-.712-1.852-1.282-3.703-1.994-5.413-.285-.997-.712-1.994-.285-2.991 0 0 0-.143-.142-.285h-3.704c.427 1.282.142 2.28-.285 3.419-.285.854-.57 1.567-.855 2.279-.427.997-.854 2.137-1.567 3.419-.142-.285-.284-.285-.284-.428-.713-2.136-1.567-4.416-2.137-6.552-.143-.428 0-.855 0-1.425 0-.285.142-.285.285-.712h-4.844c.285.285.428.57.57.855.285.427.57.997.855 1.567a433.343 433.343 0 0 1 3.989 12.678c.142.284.284.854.427 1.14.855-1.14 1.567-2.138 2.137-3.277.142-.143 0-.285-.143-.428-.427-.854-.427-1.709 0-2.706.57-1.282.997-2.564 1.567-3.704.285-.854.712-1.71 1.14-2.706 1.567 4.558 2.991 8.832 4.416 13.105.854-1.282 1.71-2.422 2.564-3.704l-.285-.285c-.712-.854-.855-1.566-.427-2.564.854-2.421 1.851-4.985 2.706-7.55.285-.854.712-1.709 1.567-2.136v-.143h-2.137c-.427 2.992-1.994 5.698-2.849 8.547zm65.384-.57c.285.285.427.57.57.855.854 1.567 1.852 3.277 2.706 4.986.285.57.285 1.282.285 1.852 0 .57.143.712.57.712h4.416c-.57-.712-1.14-1.282-1.567-1.852-1.425-2.564-2.564-5.27-3.989-7.692-.57-.997-.712-1.71.285-2.707.855-.854 1.71-1.994 2.707-2.991.285-.285.427-.285.855-.712h-2.707c-.285.712-.427 1.282-.855 1.71-1.282 1.566-2.706 3.275-3.988 4.842-.713.713-1.282 1.425-2.137 2.28v-5.271c0-1.14-.143-2.422.997-3.419h-4.558c.142.285.142.427.285.57.427.712.57 1.424.57 2.137-.143 2.991-.143 5.983-.143 9.116 0 1.283 0 2.707-.855 3.847v.285h4.559c-.285-.57-.713-1.14-.855-1.71-.427-.997-.57-2.137-.143-3.134.855-1.424 1.995-2.564 2.992-3.703zm-58.832 49.858h-1.994c-1.567-.142-2.992-.285-4.559-.285-2.136.143-3.419 1.425-3.988 3.277-.428 1.994.142 3.988 1.71 4.985.854.57 1.993.855 2.848 1.282.855.285 1.852.57 2.707.855 1.424.712 1.567 2.137.285 3.134a1.539 1.539 0 0 1-.998.427c-1.851.285-3.418 0-4.985-.997-.285-.285-.713-.57-1.14-.855v3.277c.997.285 2.137.285 3.134.57 1.852.284 3.561.284 5.27-.428 1.852-.854 2.85-2.279 2.85-4.273 0-1.852-.855-3.277-2.707-3.989-.712-.285-1.567-.57-2.28-.855-.711-.284-1.566-.57-2.278-.997-.855-.57-1.282-1.424-.998-2.136.285-.998 1.14-1.71 2.137-1.71.712 0 1.567.285 2.137.57.855.427 1.852.997 2.707 1.567.142-1.282.142-2.422.142-3.419zM54.274 135.47c0 .57.142 1.14.142 1.852.142.855.285 1.567 1.567 1.852 2.137.57 3.989.997 6.268.285 2.706-.855 4.273-3.989 3.276-6.41-.712-1.71-2.137-2.422-3.846-2.992a21.917 21.917 0 0 1-2.707-1.14c-.854-.285-1.14-.997-.997-1.851.143-.855.712-1.425 1.567-1.567.855-.285 1.852-.285 2.707.284.854.428 1.567.998 2.706 1.567-.142-.997-.142-1.994-.285-2.706-1.424-.285-2.564-.285-3.846-.57-2.706-.427-4.558.57-5.698 2.85-.997 2.136-.57 3.703 1.282 4.985.855.57 2.137 1.14 3.134 1.567.855.427 1.71.854 2.422 1.424.855.713.855 1.425.142 2.137-.57.712-1.282 1.14-2.136 1.14-1.567.142-2.85-.285-3.99-1.425-.996-.57-1.424-.855-1.708-1.282zm63.96-9.117c2.421-.285 4.7 0 7.122.713v-1.567c0-.57-.285-.855-.855-.855-2.136 0-4.416-.143-6.552-.143h-3.42c.856 5.271.713 10.114 0 15.243h.143c3.277.142 6.41.142 9.83.142.142 0 .427-.142.427-.285.285-.855.712-1.71 1.14-2.706-2.707.712-5.271.712-7.835.427v-4.558c0-.428.285-.57.57-.57.712 0 1.566-.143 2.136 0 .997.142 2.137.285 3.134.285-.285-.713-.427-1.282-.712-1.852-.143-.428-.285-.57-.855-.428-1.282.143-2.564.285-3.846.285-.57 0-.712-.285-.712-.712.285-.997.285-2.28.285-3.419zM51.282 76.496c-.285-.285-.427-.428-.57-.713-2.706-3.133-5.27-6.267-7.835-9.259-.284-.285-.427-.427-.712-.427-.854-.143-1.567 0-2.564 0 .285.285.285.57.57.855.712.854.997 1.709.855 2.706-.143 2.28-.285 4.559-.285 6.98 0 1.71.142 3.419-.855 4.843v.285h2.707c-.285-.854-.57-1.994-.57-2.849-.143-2.136 0-4.273 0-6.41v-1.282c.142 0 .142-.142.285-.142 3.418 3.988 6.837 7.834 10.256 11.823.285-1.425.712-2.564.997-3.989-.854-.285-.854-1.282-.854-2.136 0-1.567-.143-3.134 0-4.701.284-1.995-.57-4.131.854-6.126H51.14c.285.713.57 1.282.57 1.852 0 2.564-.143 5.128-.143 7.693-.142.284-.285.57-.285.997zm14.245-5.698c-1.282 1.282-2.28 1.282-3.846 1.14-.143 0-.427-.286-.427-.428v-3.704c0-.427.284-.57.712-.57 1.14 0 2.279-.142 3.419 0 .854.143 1.851.428 2.706.713.285.142.428.285.712.427 0-.855.143-1.567.143-2.28H57.265c.142.286.285.428.285.57.57.57.712 1.425.712 2.28-.142 3.419-.285 6.837-.285 10.256 0 .57-.142 1.14-.57 1.567-.284.285-.712.712-1.282 1.14h16.097c-1.14-1.425-2.137-2.707-3.419-4.274 0 .997-.142 1.852-.142 2.707 0 .427-.285.57-.57.57-2.137-.143-4.273-.143-6.41-.285-.57 0-.712-.285-.712-.855.142-2.137.142-4.131.142-6.268 0-.57.285-.712.855-.712 1.567 0 3.276 0 4.843.712a21.889 21.889 0 0 0-1.282-2.706zm41.31 68.946c-.142-.285-.284-.428-.427-.713-.854-.997-1.14-2.136-.997-3.56.143-1.568.143-3.277.143-4.844v-4.274c2.136-.142 4.13.285 6.125 1.14-.285-.855-.427-1.567-.712-2.28-.143-.57-.428-.854-.997-.854h-3.277c-2.706 0-5.27 0-7.977-.142-.285 0-.57 0-.712.142-.57.855-.997 1.71-1.567 2.564.285.143.57.143.712 0 1.425-.57 2.707-.855 4.273-.712.57 0 .855.285.855.855 0 2.136-.142 4.415-.142 6.552 0 1.852.142 3.846-.855 5.698v.285c1.994.143 3.704.143 5.556.143zm3.704-73.505c-.285 1.282-3.418 5.271-4.843 6.126-.855-1.282-1.852-2.422-2.849-3.704-.57-.712-.997-1.567-.855-2.564h-5.27c.285.285.285.427.57.712l5.555 6.838c.285.285.427.712.427.997 0 1.282 0 2.706-.142 3.988-.143 1.14-.285 2.137-.427 3.42h4.416a5.716 5.716 0 0 1-.428-2.137c0-1.995 0-3.847.143-5.84 0-.428.285-.856.427-1.283 1.424-1.567 2.707-3.276 4.273-4.986.428-.57.998-1.282 1.425-1.71-.855.143-1.425.143-2.422.143zm-38.889 57.835h-5.698c.428.427.855.712 1.282.855.285.285.713.427.855.854 1.282 1.567 2.422 3.277 3.561 4.844.285.285.285.712.285.997-.142 2.564.285 4.986-.57 7.692H75.5c-.143-.854-.285-1.567-.285-2.279 0-1.71 0-3.419.142-5.128 0-.285.143-.712.285-.997 1.852-2.137 3.276-4.844 5.84-6.553h-3.988c.142 2.422-1.71 3.704-2.992 5.556-.997-2.137-2.991-3.277-2.849-5.84zm56.98-12.25c-1.282-2.422-2.421-4.844-3.56-7.266-.286-.57-.57-1.282-.855-1.994.57-.142.997-.285 1.424-.285 1.994-.285 3.561-.997 4.843-2.706.855-1.14.997-2.28.428-3.704-.57-1.282-1.852-1.994-2.992-2.564-1.994-.855-4.13-.855-6.268-.855-2.564 0-5.128-.142-7.692-.142h-3.704c.285.285.57.57.713.854.285.713.854 1.282.854 1.995 0 4.13 0 8.404-.142 12.535-.143 1.995.427 4.131-1.14 5.84v.286h6.838c-.427-.285-.855-.57-.997-.855-.285-.427-.712-.997-.712-1.567v-7.692c0-.428.142-.713.712-.713h2.706c.57 0 .855.285 1.14.713 1.282 2.564 2.706 5.27 3.989 7.692.284.855.57 1.567.854 2.707h5.413c-.57-.713-1.424-1.282-1.852-2.28zm-6.267-11.682c-2.137 1.567-4.416 1.283-6.838 1.14V94.16h4.843c.998 0 2.137.284 3.277.427.285.142.712.285.997.285.997.57 1.852 1.567 1.71 2.706 0 1.282-.855 2.28-1.995 2.85-.57.57-1.425.427-1.994-.286zm26.78 13.96h7.265c-.285-.712-.854-1.281-1.14-1.994-2.706-6.41-5.697-12.82-8.404-19.373-.285-.855-.712-1.567-.997-2.28-.143.286-.285.286-.285.286-.57 1.424-1.282 2.706-2.422 3.561-.142.142 0 .427 0 .712s.143.855 0 1.14c-.712 1.567-1.424 2.991-2.136 4.558-.428.997-.998 1.995-1.567 3.134-.428-.285-.855-.427-1.282-.712-1.425-.855-1.425-.855-2.137.57-.285.854-.855 1.567-1.14 2.421.855.285 1.71.285 2.564.57.285.143.57.285.285.712-.997 2.137-1.567 4.416-3.561 5.84a1.966 1.966 0 0 0-.427.57h4.7c-1.282-.854-.854-1.851-.284-2.848.427-.855.854-1.852 1.282-2.707.285-.427.427-.57.854-.285.855.428 1.567.855 2.137 1.567.57.428.997.855 1.567 1.567 1.14-1.567 2.137-3.419 3.989-4.416.285.285.285.57.57.855.57 1.14.997 2.28 1.566 3.419.285.57.285.997 0 1.567-.284.285-.57.854-.997 1.567zm-2.564-8.831c-.997 1.282-2.137 2.421-2.991 3.703-.997-1.14-2.137-2.279-3.277-3.56-.142-.143-.142-.286 0-.286.855-2.279 1.995-4.558 3.134-7.122.285.427.428.712.57.854.855 1.852 1.71 3.847 2.564 5.698.143.285.143.57 0 .713zm-5.413-31.91c1.14-.284 2.137-.996 2.707-2.136.712-1.282.427-2.706-.713-3.419-.854-.712-2.136-1.14-3.276-1.282-2.849-.142-5.84-.142-8.69-.142h-.997c.143.285.143.285.285.427.428.57.57 1.282.428 2.137-.143 3.419-.285 6.695-.285 10.114 0 .997-.285 1.852-.855 2.706-.142.143-.285.285-.285.57h5.128c-.285-.57-.854-1.282-.854-1.994-.143-1.994 0-3.989 0-5.983 0-.427.285-.712.57-.57.57 0 .997.143 1.566 0 .57 0 .855.143.998.57.57 1.282 1.14 2.564 1.709 3.989.427 1.14.855 2.421 1.282 3.56.142.286.285.428.427.428h3.42c-1.568-2.849-2.85-5.698-4.274-8.69.854-.142 1.282-.142 1.71-.284zm-7.55-.142v-4.558c0-.142.285-.427.428-.427 1.567 0 3.133 0 4.558.285 1.282.142 1.994.854 2.137 1.994.142.997-.57 2.137-1.852 2.421-1.567.428-3.419.285-5.27.285zm-5.698-2.279c-.997-2.849-3.276-4.558-6.268-5.128-2.849-.427-5.27.57-7.122 2.707-1.567 1.851-1.994 3.988-1.71 6.41.285 3.134 2.992 6.268 5.983 6.98 3.562.997 9.545-1.852 9.545-7.977-.143-.855-.143-1.852-.428-2.992zm-3.276 2.707c0 2.136-.143 3.988-1.14 5.698-.854 1.282-1.852 2.136-3.419 1.994-1.566 0-2.706-.855-3.418-2.137-1.14-2.279-1.14-4.7-.57-7.122.285-.712.427-1.567.855-2.137 1.567-2.28 4.985-2.137 6.695.142.854 1.14 1.14 2.422.997 3.562z"/>
</svg>
