<svg xmlns="http://www.w3.org/2000/svg" viewBox="0 0 170.1 170.1">
    <circle class="color-main color-red" fill="#be111f" cx="85.9" cy="85.4" r="78"/>
    <path class="color-yellow color-reserved-white" fill="#e4d057" d="M18.7 83.9c-.8 36 28.6 69.3 69.3 68.3 34.1-.8 64.4-27.3 65.1-66.3.4-19.9-7.4-36.9-22.2-50.3-12.3-11.2-27-17-43.6-17.3-37.3-.8-68.1 28.1-68.6 65.6zm136.9 1.5c0 36.1-28 67.5-66.1 69.2-39.9 1.8-71.8-29.3-73.2-67.5-1.5-39.5 29-68.6 64.4-70.9 42.8-2.7 74.8 30.7 74.9 69.2z"/>
    <path class="color-main color-red" fill="#be111f" d="M129.2 60.7c-.3.5-.5.9-.7 1.3-3.3 6.6-5.8 13.5-8 20.5-2.1 6.7-3.8 13.5-4.9 20.3-.7 4.2-1.3 8.4-1.8 12.5-.4 3.6-.6 7.3-.8 11 0 .4-.2.9.2 1.1.4.2.7-.2 1.1-.5 4.1-2.6 7.5-5.8 10.6-9.5 4.5-5.3 7.7-11.3 9.7-17.9 1.9-6.6 2.6-13.3 1.7-20.2-.8-6-2.5-11.6-5.5-16.8-.5-.6-.8-1.3-1.6-1.8zM103.5 81c.3-.9.6-1.5.8-2.2 1.9-5.8 3.9-11.6 6.2-17.2 2-4.9 4.3-9.7 6.8-14.5.3-.6.5-1-.2-1.5-6.6-5-14-8.4-22.2-10-.9-.2-1.1.1-1.2 1-.2 1.6.2 3.1.4 4.6.4 3.3.7 6.7 1.3 10 .7 3.4 1.7 6.7 2.6 10 1.1 4 2 8.1 3.1 12.1.7 2.5 1.5 4.9 2.4 7.7zm-84.8 2.9c.5-37.5 31.3-66.4 68.5-65.5 16.6.4 31.3 6.2 43.6 17.3C145.6 49.1 153.4 66.1 153 86c-.7 39-30.9 65.5-65.1 66.3-40.6.9-70.1-32.4-69.2-68.4zM34.9 85c.3 8.8 2.4 16.6 6.4 24 2.5 4.6 5.5 8.7 9.3 12.2 2.4 2.3 4.9 4.6 7.9 6.2.7.4 1.1.4 1-.6l-.3-3.6c-.1-4.7-.9-9.4-1.6-14.1-1-6.1-2.4-12.1-4.2-18C50.3 81 47.1 71 42 61.7c-.2-.4-.2-1.1-.7-1.1-.6 0-.6.7-.9 1.1-3.8 7.5-5.6 15.4-5.5 23.3zm50.9 50.7c3.1 0 6.2-.3 9.3-.8 1-.2 1.4-.5 1.4-1.6 0-3.1-.7-6.2-1.1-9.2-.6-4.4-1.7-8.7-2.5-13.1-1.2-6.2-2.9-12.3-4.6-18.3-.4-1.4-.7-2.9-1.5-4.2-.6-1-1.1-1-1.7 0-.4.8-.8 1.6-1 2.5-2.1 8.8-3.8 17.6-5.2 26.5-.8 5.2-1.6 10.5-2 15.7-.1 1.3.3 1.9 1.5 2 2.4.1 4.9.5 7.4.5zM68.3 79.9c.2-.7.3-1 .4-1.4 1.8-7.1 3.6-14.3 5.4-21.4 1.7-6.7 2.9-13.5 3.2-20.4 0-1-.2-1.3-1.3-1.1-7.2 1.3-13.8 4-19.8 8.2-3.1 2.1-3 2.1-1.3 5.4 3.9 7.2 7.3 14.6 10.2 22.2 1.1 2.8 2.1 5.5 3.2 8.5z"/>
    <circle class="color-yellow color-reserved-white" fill="#e4d057" cx="86.6" cy="85.3" r="64.7"/>
    <path class="color-main color-red" fill="#be111f" d="M34.9 85c0-7.9 1.7-15.8 5.6-23.2.2-.4.3-1.1.9-1.1.5 0 .5.7.7 1.1 5 9.3 8.3 19.3 11.4 29.4 1.8 5.9 3.2 11.9 4.2 18 .7 4.7 1.5 9.3 1.6 14.1 0 1.2.2 2.4.3 3.6.1 1-.3 1-1 .6-3-1.6-5.4-3.9-7.9-6.2-3.8-3.6-6.8-7.7-9.3-12.2-4.2-7.5-6.2-15.3-6.5-24.1zm94.3-24.3c.8.5 1.1 1.2 1.5 1.9 3.1 5.2 4.7 10.8 5.5 16.8.9 6.9.2 13.6-1.7 20.2s-5.2 12.6-9.7 17.9c-3.1 3.7-6.6 6.9-10.6 9.5-.3.2-.7.6-1.1.5-.5-.2-.3-.7-.2-1.1.2-3.7.4-7.3.8-11 .5-4.2 1-8.4 1.8-12.5 1.2-6.9 2.8-13.7 4.9-20.3 2.2-7 4.8-13.9 8-20.5.3-.5.6-.9.8-1.4zm-43.4 75c-2.5.1-5-.3-7.5-.6-1.3-.1-1.7-.7-1.5-2 .5-5.3 1.2-10.5 2-15.7 1.4-8.9 3.1-17.7 5.2-26.5.2-.9.5-1.7 1-2.5.6-1 1-1 1.7 0 .8 1.3 1.1 2.8 1.5 4.2 1.7 6.1 3.4 12.2 4.6 18.3.9 4.4 2 8.7 2.5 13.1.4 3.1 1.1 6.1 1.1 9.2 0 1.1-.3 1.4-1.4 1.6-3 .6-6.1.8-9.2.9zM103.5 81c-.8-2.7-1.7-5.1-2.3-7.6-1.1-4-2.1-8.1-3.1-12.1-.9-3.3-1.9-6.6-2.6-10-.7-3.3-.9-6.7-1.3-10-.2-1.5-.7-3-.4-4.6.1-.8.3-1.1 1.2-1 8.2 1.6 15.5 5 22.2 10 .7.5.5.9.2 1.5-2.4 4.7-4.7 9.5-6.8 14.5-2.3 5.7-4.3 11.4-6.2 17.2-.4.5-.6 1.1-.9 2.1zm-35.2-1.1c-1.1-3.1-2.1-5.8-3.1-8.5-2.9-7.6-6.3-15.1-10.2-22.2-1.8-3.3-1.8-3.2 1.3-5.4 6-4.2 12.6-6.9 19.8-8.2 1.1-.2 1.3.2 1.3 1.1-.3 6.9-1.6 13.7-3.2 20.4-1.8 7.1-3.6 14.3-5.4 21.4-.2.4-.3.7-.5 1.4z"/>
</svg>
