<svg xmlns="http://www.w3.org/2000/svg" viewBox="0 0 612 612">
    <path class="color-main color-black" d="M41.5 300.1c88.9-60.6 176.9-120.6 264.7-180.4C395.5 181.3 484.7 243 575 305.2c-91.5 59.7-182.3 119-272.8 178-86.8-61-173.3-121.7-260.7-183.1z"/>
    <path class="color-reserved-white" fill="#9a9a9d" d="M553.3 306.8c-14.5 9.4-28.3 18.4-42.2 27.5-51.7 33.7-103.5 67.4-155.2 101.1-16.2 10.5-32.4 20.9-48.5 31.6-3.1 2.1-5.2 2.1-8.4-.1-48-33.8-96-67.5-144.1-101.1-30-21-60-41.8-89.9-62.7-1.7-1.2-3.3-2.5-5.5-4.1 9.6-6.4 18.8-12.7 28.1-18.9 64.9-43.5 129.9-86.9 194.8-130.4 7-4.7 14-9.1 20.9-13.9 2.5-1.8 4.1-1.8 6.7 0 34 24 68.1 48 102.2 71.9L549.6 304c1.1.7 2 1.5 3.7 2.8z"/>
    <path class="color-main color-black" d="M73.5 299.1c8.8-5.9 16.6-11.2 24.5-16.5 68.4-45.8 136.9-91.6 205.3-137.4 2.6-1.7 4.3-1.7 6.8.1C381 195.2 452 244.9 523 294.7c4.1 2.9 8.1 5.9 12.3 8.5 3.5 2.3 3.6 3.9 0 6.2-20.5 13.2-41 26.6-61.5 40-54.6 35.5-109.2 71-163.8 106.6-6.6 4.3-6.6 4.3-13.3-.4C224 404.8 151.4 353.9 78.8 303.1c-1.5-1-3-2.2-5.3-4z"/>
    <path class="color-reserved-white" fill="#9a9a9d" d="M190.7 314.9H175c5.2-7.1 3-14.6 3.1-21.8.3-13.7.2-27.3.1-41 0-3.4-.8-6.8-1.4-11.3 9.2.5 17.9 0 26.3 1.5 9.8 1.7 15 12.7 12.6 24.3-1.3 6.4-4.8 11.4-9.7 15.7-1.3 1.1-2.4 3.5-2.2 5.1 2.3 12.3 7.7 23.2 17.1 31.6 2.8 2.5 6.6 4 10.9 6.4-9.9.6-17.3-3.1-23.5-9.1-7.6-7.3-12.2-16.4-15.2-26.4-.5-1.6-2-2.8-3.1-4.2-.6 1.7-1.6 3.3-1.6 5-.2 4.8-.4 9.7 0 14.5.2 3.2 1.4 6.2 2.3 9.7zm170.2 76.4c-2 1-4 2.8-6 2.8-37.3.2-74.6.1-112 .1-1.2 0-2.5-.2-2.5-.2.1-8.1.2-15.9.2-23.6 0-10.3.1-20.6-.1-30.9-.1-3-1.2-5.9-1.9-9.4H252v5.1c0 16.2.2 32.5-.1 48.7-.1 4.3 1.3 5.4 5.5 5.4 32.8-.1 65.6 0 98.4 0h4.3c.4.7.6 1.3.8 2zm58.2-84.2c-3 4.6-3.8 8.4.4 11.4 3.8 2.8 10.9 2.6 14-.2 3.2-2.9 4.4-8 1.9-11.8-1.3-2-4-3.7-6.3-4.1-3.7-.6-7.7-.2-11.5 0-2.8.2-3.9-.9-3.6-3.6.5-4.3-.8-7.6-3.8-11.2-6.9-8.3-.7-20.2 11.3-22.4 1.6-.3 3.3.1 4.8-.4 2.1-.6 4.2-1.6 6.3-2.5 4.2-1.7 8.3-3.9 12.6-5.1 1.5-.4 3.8 1.5 5.4 2.8.4.3 0 3-.7 3.3-2 1-4.3 1.6-6.6 1.8-1.1.1-2.2-1.5-3.4-1.6-1.2-.1-2.5.6-3.7.9.6 1 1 2 1.7 2.9 2.1 2.5 5.1 4.7 6.3 7.6 3.4 8-1.7 16.2-11.3 18.8-2.3.6-4.8.7-7.1.8-2.4 0-4.7-.3-7.3-.6-1.1 2.9-.7 4.5 3 4.3 3.5-.2 7.1-.5 10.6 0 3.1.4 6.3 1.3 9 3 7.5 4.6 7.9 13.2 1.3 18.9-7.8 6.6-22.6 7-30.6.6-2.8-2.2-5-5-3.3-8.7 1.7-3.9 5.3-5.1 10.6-4.9zm-76.6 3.4c-3.2.2-6.9 1.5-9.4.3-3.2-1.5-5.1-.8-7.8.4-8.2 3.5-16.7.3-20.9-7.7-6.2-11.9-3.6-28.2 5.7-35.8 4.8-3.9 10.2-5.1 17.5-3.3-.6-8-1.1-15.3-1.6-22.9h10.4c.1 1.3.2 3 .2 4.7 0 18.3.1 36.6 0 54.9 0 4.3 1.1 7.3 6.2 7.5-.1.6-.2 1.3-.3 1.9zm39.6.7h-14.4c3.4-7.6 3.8-39.7.2-46.1 4.4.3 8.7-2.3 11.6 2.4 3-1.2 5.9-2.8 8.9-3.4 7.4-1.7 13.2 3 13.3 10.5.2 9.2-.1 18.3.1 27.5.1 2.8 1.1 5.6 1.8 8.9h-13.5c.5-3.6 1.3-7.2 1.5-10.8.3-6.7.2-13.5.3-20.2 0-.8 0-1.6-.1-2.4-.4-3.1-.8-6.4-4.9-6.5-4.3-.1-5.8 3.1-6.3 6.6-.4 2.7-.1 5.5-.1 8.2 0 5.1-.2 10.3.1 15.4.1 3 .9 6.1 1.5 9.9zM283.8 279c-.2-2.6.3-5.4-.8-7.2-1.1-1.8-3.7-3.1-5.9-3.5-.8-.2-2.3 2.5-3.4 3.9s-2.2 2.8-3.4 4.2c-1.3-2.1-2.7-4.2-4-6.3-.1-.2.3-.9.6-1.3 2.4-4.2 11.2-6.4 18.7-4.6 5.1 1.2 8.1 5.2 8.1 11 0 8.4.2 16.7-.1 25.1-.1 4.7.9 7.9 6.8 8.2-4 3.2-7.6 3.7-11.6 1.7-1.1-.5-2.8-.7-3.9-.3-8.8 3.6-16.1 2.9-20.9-2.5-4.3-4.7-5.2-13.8-2.1-19.5 3.8-6.8 11.8-10.3 20.2-8.8.3.2.6.1 1.7-.1z"/>
    <path class="color-reserved-white" fill="#9a9a9d" d="M256.4 289.2c-8.9 0-16.4.1-23.9-.1-2.5-.1-3.9.8-3.3 3.2.8 3.4 1.3 7.2 3.3 9.9 1.8 2.4 5.2 4.5 8.1 4.9 3.6.5 7.2-1.4 8.9-5.3.4-.9.6-1.9 1.1-2.6.6-.8 1.5-1.3 2.2-2 .4.9 1.2 1.8 1.1 2.7-.3 5.9-6 12.1-11.9 13-11.3 1.7-18.6-3-21.8-14-2.6-8.8-1.8-17.4 2.1-25.7 3.3-6.9 9-9.9 17.3-9.4 6.8.4 12 4.2 14.1 11.2 1.4 4.3 1.7 8.7 2.7 14.2zm44.1 92.2h-14c3.2-12.6 1.7-25 1-37.8 2.4.2 6.7-2.7 8.8 2.7 3.1-1.4 6-3.2 9.2-3.9 7.4-1.7 13.1 3 13.2 10.6.1 5.6-.2 11.3.1 16.9.2 3.7 1 7.3 1.7 11.3h-13.2c4.9-8.2 2.2-17.1 2.6-25.8.1-3.1-2-5.8-5.8-6-3.6-.2-5.9 2.3-6.1 5.1-.5 7.5-.4 15.1-.2 22.6.1 1.2 1.5 2.4 2.7 4.3zm57.1-10.8c-.2 7.9-4.1 11.9-11.1 12.8-8.5 1.1-15.9-2.8-18.3-10.1-2.3-7.1-2.3-14.3.7-21.2 3.6-8.5 11.9-12.1 20.7-9.1 7.1 2.4 11.9 12 9.7 19.8-.3.9-2.3 1.8-3.6 1.9-3 .3-6.1.1-9.2.1h-9.6c-.4 4.9-.1 9.8 3.8 12.4 7.8 5.5 12.7-.1 16.9-6.6zm6.8 1.2c1.8 1.4 2.5 2.2 3.4 2.6 3.2 1.4 6.4 3.2 9.8 3.8 1.5.3 4.6-1.6 5-3 .5-1.8-.5-4.8-2-6.1-2.7-2.4-6.2-3.9-9.3-6-6-4-7.9-8.2-6.2-13.7 1.6-5.3 6.1-7.7 13.1-7.4 1.3.1 2.6.2 3.8.3 7.5.9 7.9 1.6 5.2 9.8-1.1-1.2-1.8-2.5-2.9-3.1-2.3-1.3-4.7-2.8-7.2-3-1.6-.1-4.2 1.5-4.7 3s.6 4.3 1.9 5.3c2.9 2.2 6.4 3.7 9.6 5.4 6 3.3 8.3 7 7.6 12.1-.9 6.5-4.4 10.5-11.2 11.3-4.2.5-8.7-.1-12.8-1.1-5.2-1-2.9-5.4-3.1-10.2zm-17.5-106.7c-.1 0 .4-.2 1-.3h10c0 11.5-.1 22.5.1 33.6.1 4.1 1 8.2 1.6 13h-5c-4.4.1-6.5-2-6.4-6.5.1-10 .1-19.9 0-29.9-.1-3.2-.8-6.3-1.3-9.9zm-84.1 78.6H276v37.6h-10c.2-6.3 1-12.6.6-18.9-.5-5.9 2.8-12.6-3.8-18.7zm14.6-10.7c-3.1 2.7-4.8 5.3-6.8 5.6-3.3.4-5-2.3-4.9-5.6.1-3.1 1.6-5.7 4.8-5.1 2.1.3 3.8 2.7 6.9 5.1zm83.5-80c-3.1 2.5-5 5.1-7 5.3-3.1.2-5.1-2.4-4.9-5.8.2-3.2 2-5.6 5.1-4.9 2.1.5 3.8 2.9 6.8 5.4z"/>
    <path class="color-main color-black" d="M188 262.4c0-4.2.1-8.3 0-12.5-.1-2.5.8-3.4 3.3-3.4 7.2 0 12 3.8 12.6 11 .3 3.5.3 7.1 0 10.5-.7 6.5-5 10.3-11.5 10.7-3.2.2-4.8-.8-4.6-4.3.2-4 0-8 0-12h.2zm247.9 16.9c0 5.6-4.6 10.8-9.5 10.8-5 0-9.5-5.1-9.4-10.8.1-5.6 4.8-10.7 9.7-10.5 4.7.1 9.2 5.3 9.2 10.5zm-108.5 9.4c0 3.5.6 7.2-.2 10.6-.5 2.3-2.5 5.3-4.5 5.8-2.2.6-5.2-.9-7.7-1.9-.8-.3-1.5-1.7-1.8-2.8-2.3-8.6-2.9-17.1 1.3-25.3 1.5-3 3.7-5.5 7.5-4.8 4 .8 5.1 4.1 5.3 7.7.2 3.6.1 7.2.1 10.7zm-43.1 7.8c0 8.5-1.3 10.9-6.8 10-2.5-.4-5.4-2.8-6.6-5.1-2.3-4.4-2.5-9.7 1.7-13.2 2-1.7 5.5-2 8.3-1.8 1.2.1 2.7 2.7 3.3 4.4.5 1.7.1 3.8.1 5.7zm-47.1-12.8c-2.4-1.4-6.8 2.2-7.2-3.1-.4-5.9 3.9-11.9 7.8-11.7 3.6.2 6.8 5.5 6.8 11 0 6.4-5 2.3-7.4 3.8zm100 74.8c.2-7.2 2.6-11.1 6.5-11 3.9.1 6.6 4.2 6.9 11h-13.4z"/>
</svg>
