<svg xmlns="http://www.w3.org/2000/svg" width="191.997" height="163.582" viewBox="0 0 50.799 43.281">
    <path class="MKT_svg__MKT_svg__MKT_svg__MKT_svg__color-main MKT_svg__MKT_svg__MKT_svg__MKT_svg__color-green" fill="#018471" d="M23.986 43.23c-.952-.117-3.115-.863-3.115-1.075 0-.045-.053-.082-.119-.082-.293 0-1.987-1.432-2.522-2.132l-.263-.345-4.192.078c-2.305.043-4.72.089-5.366.1-.646.013-1.473.096-1.838.185-1.38.336-1.356.33-2.012.427-.373.055-.447.033-.574-.172-.08-.13-.847-1.38-1.704-2.781-2.338-3.824-2.404-3.94-2.214-3.94.255 0 1.192-.315 1.192-.4 0-.048.38-.474.843-.947.963-.984 1.03-1.066 1.767-2.182 1-1.515 1.846-3.586 2.091-5.117.06-.377.133-.722.161-.768.028-.046.052-.693.052-1.438.002-2.686-.663-4.93-2.134-7.206-.768-1.188-1.203-1.723-2.151-2.64-.53-.512-.935-.978-.9-1.035.036-.057.22-.133.411-.168.844-.159 2.788-1.14 3.343-1.688.146-.144.491-.472.766-.729C6.05 8.671 6.57 8.031 6.57 7.87c0-.055.04-.115.087-.134.132-.052.692-1.288.882-1.948.092-.322.201-.605.242-.63.04-.026 2.127-.057 4.637-.07 2.51-.015 4.611-.054 4.67-.09.06-.037.26-.353.447-.702.36-.676 1.583-2.133 2.008-2.395.14-.086.393-.276.562-.42.168-.146.348-.265.4-.265.052 0 .167-.06.256-.135.168-.14 1.123-.54 2-.838.329-.111.981-.19 1.838-.223 1.14-.044 1.45-.02 2.19.17 1.633.422 3.071 1.279 4.27 2.547.351.371.638.732.639.803 0 .07.036.127.079.127.043 0 .168.173.277.383a8 8 0 00.389.666l.191.283 4.818-.01 4.818-.01.189.594c.226.714.672 1.617 1.175 2.382.373.566 1.684 1.94 1.851 1.94.05 0 .15.06.225.132.4.387 2.322 1.299 2.74 1.299.106 0 .22.046.255.102.035.056.15.102.256.102.421 0 .285.254-.59 1.104-.774.75-2.168 2.434-2.168 2.616 0 .03-.181.351-.402.712-1.162 1.899-1.797 4.308-1.73 6.567.02.683.07 1.274.11 1.314.04.04.774-.069 1.632-.24.858-.173 1.569-.305 1.579-.294.099.101 3.407 6.89 3.407 6.99 0 .074-.089.167-.197.208-.214.08-2.05 1.838-2.05 1.963 0 .042.1.143.222.224.266.177.173.389-.17.389-.135 0-.273.045-.307.102-.035.056-.152.102-.26.102-.605 0-2.743 1.342-3.553 2.231-.84.922-1.733 2.642-1.904 3.668l-.073.434-3.49.012c-1.918.007-4.286.024-5.26.04l-1.771.028-.68.714c-.374.393-.934.915-1.244 1.16-1.56 1.237-4.024 1.908-6.076 1.655zm3.381-2.259a13.919 13.919 0 001.436-.632c.586-.315 2.13-1.685 2.355-2.089.101-.183.26-.198 2.393-.224 1.256-.014 3.416-.03 4.8-.033l2.516-.005.11-.434c.15-.593.515-1.44.924-2.148.397-.688 1.742-2.098 2.259-2.368 1.137-.594 1.59-.794 2.046-.902.279-.067.508-.148.508-.181s-.111-.164-.247-.291l-.246-.232-.75.173c-1.443.33-2.431.861-3.416 1.833-.927.916-1.48 1.877-1.787 3.106-.075.301-.184.565-.242.586-.058.022-2.092.05-4.52.065l-4.413.027-.66.723c-.652.714-1.927 1.677-2.22 1.677a.428.428 0 00-.248.088c-.18.161-1.419.515-2.191.624-1.03.147-2.1 0-3.254-.445-1.311-.507-1.82-.842-2.844-1.875-.349-.352-.713-.64-.81-.64-.155 0-1.527.3-2.745.599-.298.073-.028.084.998.042l1.406-.058.79.816c.434.45.95.926 1.147 1.058.197.133.38.266.409.298.233.259 2.08 1.01 2.86 1.164.14.028.83.036 1.532.017 1.12-.028 1.379-.07 2.104-.339zM6.702 38.547c.967-.198 2.149-.45 2.626-.562a44.16 44.16 0 011.38-.298c.489-.092 1.413-.289 4.085-.868.674-.146 1.57-.336 1.992-.422a58.523 58.523 0 001.583-.35c.925-.22 2.92-.652 4.495-.971.168-.034.605-.128.97-.21 1.784-.394 4.897-1.088 5.26-1.172.225-.052 1.305-.281 2.4-.51 2.689-.56 2.685-.559 4.546-.977a77.016 77.016 0 012.094-.448c.253-.045 1.15-.23 1.992-.41.843-.181 1.716-.367 1.941-.413.617-.127 2.397-.513 2.86-.62.225-.05.615-.135.868-.186.253-.051.897-.19 1.43-.307a67.02 67.02 0 011.303-.278c.182-.034.332-.102.332-.15 0-.104-2.123-4.399-2.226-4.502-.04-.04-.257-.026-.481.031-.225.058-1.075.243-1.89.412-.814.17-1.642.346-1.839.393-.623.148-1.858.415-2.809.607a40.97 40.97 0 00-1.378.301c-.253.064-.943.213-1.533.332-1.517.304-2.172.45-2.349.522-.084.034-.682.159-1.328.277-1.389.255-2.084.4-2.502.522-.17.049-.652.162-1.073.25-1.18.25-1.53.328-2.247.494-1.132.263-4.997 1.1-6.027 1.306-.309.061-.7.147-.868.19-.169.044-.582.134-.92.201-.336.068-1.003.21-1.48.319-.919.207-1.937.422-3.116.656-.663.132-3.207.686-4.75 1.035-.365.082-.94.198-1.276.258-.338.06-.682.134-.767.166-.084.032-.543.137-1.021.232-2.496.499-3.641.738-3.78.79-.16.06-.254.082-.791.185-.183.035-.332.093-.332.13 0 .038.155.304.345.592.19.288.792 1.264 1.338 2.168.545.905 1.035 1.645 1.088 1.645.053 0 .887-.162 1.855-.36zm-1.823-.93c-.037-.162-.177-.739-.311-1.283-.135-.544-.245-1.119-.245-1.278 0-.264.046-.3.524-.414.288-.068.563-.1.61-.07.049.03.297.49.553 1.023.256.534.51.942.564.909.054-.034.102-.346.106-.693.005-.348.039-.835.077-1.081.065-.426.093-.456.528-.584.36-.107.484-.109.574-.012.165.179.763 2.863.66 2.965-.046.047-.216.07-.376.053-.277-.032-.303-.082-.548-1.03-.141-.548-.292-.996-.334-.996-.043 0-.084.425-.093.945-.007.52-.019 1.033-.025 1.14-.012.205-.475.426-.707.337-.07-.027-.329-.423-.575-.879-.245-.456-.463-.813-.484-.792-.022.022.063.435.186.92.123.486.199.908.169.939-.03.03-.22.081-.42.114-.338.055-.37.037-.433-.234zm6.049-1.697c-.297-1.13-.555-2.416-.498-2.473.03-.031.226-.056.435-.056.357 0 .382.021.442.383.078.467.256.758.339.553.16-.397 1.077-1.337 1.414-1.448.202-.067.394-.095.426-.063.033.032-.131.31-.364.618-.233.309-.423.609-.423.667a.105.105 0 01-.102.107c-.056 0-.102.049-.102.11 0 .118.251.4.357.4.082 0 .973.607 1.157.787.074.073.178.133.23.133.052 0 .095.064.095.142 0 .089-.17.166-.462.21-.431.065-.51.038-1.183-.41-.666-.443-.734-.467-.888-.314-.144.145-.15.228-.04.64.07.261.115.485.099.498a2.81 2.81 0 01-.396.09l-.368.067zm-2.201.06c-.068-.15-.087-.308-.042-.353.046-.045.368-.148.716-.23.691-.16.797-.12.862.338.033.23-.012.26-.577.378-.827.174-.819.175-.959-.133zm8.52-.87c-.028-.075-.16-.596-.296-1.158l-.245-1.021-.613.024c-.579.022-.616.01-.661-.23-.027-.138.002-.29.065-.335.178-.132 2.815-.646 2.936-.573.035.022.087.158.115.303.04.21 0 .284-.2.36a1.684 1.684 0 01-.497.094c-.314 0-.313.068.012 1.35.143.566.224 1.064.179 1.106-.175.162-.745.22-.796.08zm-3.052-.237c-.17-.445-.09-.529.622-.647.723-.12.78-.103.889.256.086.285-.112.397-.873.491-.483.06-.582.045-.638-.1zm6.829-.69c-.096-.272-.552-2.289-.582-2.571-.03-.294-.017-.302.837-.523 1.517-.392 2.338-.114 2.346.795.002.297-.037.384-.175.386-.156.002-.153.017.026.119.281.16.354.29.355.636a.84.84 0 00.172.486c.21.233.155.291-.346.359-.387.051-.4.043-.53-.348-.175-.53-.414-.67-.998-.583-.511.077-.497.024-.282 1.039l.07.332h-.424c-.247 0-.443-.053-.47-.128zm1.653-1.97c.13-.085.237-.221.237-.302 0-.264-.327-.337-.993-.224-.612.103-.634.117-.574.37.035.143.086.301.113.35.072.127.937-.01 1.217-.194zm-3.85 1.582c-.071-.17-.096-.342-.056-.382.145-.147 1.382-.302 1.479-.185.256.312.165.501-.299.622-1.065.276-.986.28-1.125-.055zm5.786-.178c-.027-.043.012-.422.086-.842.075-.42.192-1.115.26-1.544.069-.429.154-.825.189-.879.035-.054.232-.13.439-.168.366-.067.386-.054.861.573.268.353.605.786.75.962.526.643.772.994.772 1.101 0 .06-.202.152-.45.205-.406.085-.467.072-.64-.14-.162-.202-.25-.226-.61-.168-.566.09-.803.231-.803.478 0 .138-.116.254-.354.354-.41.171-.434.174-.5.068zm1.48-1.523c.147-.043.141-.092-.051-.448-.236-.434-.37-.51-.37-.21 0 .106-.03.344-.068.529-.06.302-.047.328.128.256.107-.044.27-.101.36-.128zm2.188.556a82.458 82.458 0 01-.599-2.835c-.014-.113.086-.153.386-.153.365 0 .412.03.48.307.041.168.192.774.336 1.346.358 1.43.355 1.463-.151 1.463-.24 0-.429-.054-.452-.128zm1.647-.255c-.103-.17-.582-2.25-.605-2.624-.024-.38-.005-.406.314-.474.409-.086.421-.061.687 1.361.102.548.235.996.295.996s.453-.066.873-.146c.809-.154 1.023-.102 1.023.25 0 .138-.129.207-.536.286-.295.057-.858.177-1.251.266-.84.19-.743.179-.8.085zm3.07-.706a2.334 2.334 0 01-.123-.444c-.04-.196-.185-.83-.322-1.408s-.227-1.087-.2-1.13c.028-.045.6-.165 1.274-.269 1.147-.176 1.24-.177 1.485-.017.447.293.608.627.48.994-.088.253-.08.364.04.536a.934.934 0 01.152.452c0 .13.072.347.16.482.16.242.155.247-.263.372-.466.14-.607.052-.61-.379-.003-.39-.31-.554-.901-.484-.583.069-.596.093-.432.797.051.224.085.415.074.425-.081.08-.773.14-.813.072zm1.293-1.993c.231-.066.46-.153.507-.194.116-.1-.007-.471-.178-.537-.228-.087-1.34.175-1.328.314l.025.332c.017.241.328.268.974.085zm2.771.964c-.521-.132-.926-1.019-.806-1.767.092-.578.45-.966 1.12-1.217.961-.36 1.61-.215 2.191.49.262.319.303.45.3.983-.001.654-.127.898-.61 1.192-.517.315-1.592.471-2.195.319zm1.66-.72c.284-.184.376-.516.282-1.02-.094-.5-.382-.755-.925-.816-.382-.043-.477-.012-.694.221-.702.757-.198 2.008.739 1.834a1.99 1.99 0 00.598-.218zm1.83.207c-.062-.102.518-2.953.65-3.2a.426.426 0 01.348-.196c.134 0 .314-.027.4-.06.143-.055.51.386 1.577 1.888.095.135.254.317.352.406.248.223.223.488-.051.562-.414.11-.635.065-.869-.182-.205-.217-.275-.233-.664-.15-.92.195-.893.18-.893.484 0 .21-.071.32-.26.407-.3.136-.525.152-.59.042zm1.734-1.613c.035-.117-.54-.833-.612-.76-.028.027-.08.248-.116.491l-.066.442.382-.037c.21-.02.395-.082.412-.136zm2.242.657a43.401 43.401 0 01-.306-1.327 27.716 27.716 0 00-.314-1.328c-.087-.237.07-.346.712-.49 1.094-.248 1.44-.252 1.914-.023.73.354 1.042 1.287.699 2.088-.23.534-.317.605-1.085.874-.854.3-1.562.39-1.62.206zm1.54-.8c.45-.275.565-.526.458-1.004-.17-.757-.465-.924-1.37-.775-.323.054-.383.104-.383.316 0 .249.278 1.432.373 1.584.089.145.596.078.923-.121zm-16.362 8.718c1.605-.21 2.34-.525 2.228-.954-.062-.237-.744-.463-1.12-.371-.16.039-.612.26-1.005.49l-1.047.615c-.448.263-.425.415.05.344.211-.032.614-.088.894-.125zm-2.145-.607a17.9 17.9 0 00.766-.33c.31-.14.79-.331 1.067-.427.587-.202.66-.322.37-.612-.284-.283-.748-.267-1.437.05-.663.307-2.258 1.376-2.197 1.474.048.077 1.121-.04 1.431-.155zm9.912-.808c.378-.158.426-.25.231-.444-.163-.163-.49-.155-1.407.037-.783.163-1.008.249-.653.249.11 0 .245.041.298.092.244.232 1.05.267 1.53.066zm-3.03-.935c1.04-.193 1.665-.354 1.786-.457.048-.042-.017-.131-.145-.2-.303-.162-1.34-.137-1.77.044a4.2 4.2 0 01-.762.212c-.48.081-.6.2-.42.416.155.187.231.186 1.31-.014zM5.324 32.336c.298-.07.55-.17.562-.224.012-.053-.278-.178-.643-.276-1.05-.284-1.028-.237-.407-.835.81-.78 1.343-1.377 1.7-1.9.962-1.407 1.856-3.636 2.084-5.198.321-2.204-.182-4.761-1.38-7.014-.605-1.138-1.146-1.856-2.178-2.89-.468-.47-.835-.902-.815-.96.019-.06.286-.17.592-.247.306-.077.947-.333 1.425-.568 1.616-.798 3.208-2.672 3.58-4.217.068-.28.195-.568.283-.638.122-.097 1.111-.128 4.15-.128h3.99l.143-.332c.33-.768 1.333-1.937 2.308-2.69 1.2-.927 3.034-1.442 4.687-1.318.5.037 1.005.105 1.124.15.118.046.422.142.675.214 1.579.45 3.375 1.975 4.177 3.547l.221.434 4.16-.007 4.159-.007.262.695c.41 1.083.915 1.954 1.52 2.616.292.32 1.569 1.297 1.695 1.297.045 0 .154.064.243.142.215.19 1.443.672 1.898.746.2.032.389.102.422.154.032.053-.303.449-.746.88-1.216 1.185-1.778 1.98-2.712 3.831-.59 1.17-.967 2.611-1.06 4.052-.06.951.085 2.619.242 2.776.044.043.215.043.381-.001l.303-.081-.05-.81c-.118-1.942-.012-3.09.421-4.539.188-.63.798-2.138.908-2.247.029-.028.164-.257.301-.508.472-.865 1.136-1.724 2.082-2.693l.948-.972-.618-.169c-.81-.222-2.148-.875-2.658-1.298-1.576-1.305-2.26-2.237-2.763-3.757l-.219-.664-4.415-.027-4.414-.026-.174-.318c-.571-1.046-1.195-1.85-1.879-2.422-.895-.748-1.553-1.107-2.828-1.545-.867-.297-1.074-.329-2.157-.329-.659 0-1.284.048-1.39.105-.106.058-.414.155-.684.217-.27.061-.799.256-1.175.431-1.518.71-2.596 1.74-3.39 3.239l-.357.675-1.737.022c-.955.012-2.875.024-4.268.025-1.933.002-2.54.034-2.57.131-.241.788-.748 1.969-1.025 2.39-.577.873-1.846 2.074-2.592 2.451a5.1 5.1 0 00-.525.3c-.234.17-1.228.537-1.668.613l-.39.068.87.881c1.113 1.124 1.215 1.246 1.775 2.107.758 1.167 1.111 1.88 1.493 3.013.969 2.881.84 5.687-.398 8.683-.151.365-.362.786-.468.935-.106.149-.193.314-.193.366 0 .341-2.37 3.193-2.652 3.193-.234 0-.087.307.175.366.154.035.419.101.587.146.413.111.433.11 1.052-.034zm42.388-1.071c.021-.067-.033-.122-.122-.122a.162.162 0 00-.161.162c0 .18.22.149.283-.04zm-33.48-.85c.702-.165 1.437-.341 1.634-.392a54.23 54.23 0 011.379-.317c2.013-.444 1.95-.405 1.64-1.004-.295-.568-2.168-1.917-2.376-1.71-.09.091.222 1.354.398 1.613.254.374.246.802-.015.802-.159 0-1.086-.605-1.693-1.105a22.982 22.982 0 00-.842-.572c-.405-.267-.763-.528-.794-.58-.165-.265-.256-.024-.24.629.015.606.065.79.309 1.149.344.508.37.684.09.61-.113-.029-.205-.093-.205-.143 0-.05-.07-.09-.156-.09s-.43-.138-.763-.307c-.334-.168-.666-.306-.738-.306-.072 0-.453-.154-.846-.343-.393-.189-.847-.375-1.008-.414-.29-.07-.292-.067-.223.303.09.475.982 1.622 1.474 1.893.204.112.529.318.723.458.394.286.245.297 2.252-.174zm6.508-1.354c.084-.084.454-1.919.398-1.975-.114-.113-.64.262-.913.65-.291.415-.487 1.082-.396 1.353.032.097.164.121.45.083.222-.03.43-.08.461-.111zm1.417-.206c.164-.078.573-.27.91-.426.337-.155.774-.383.97-.505l.654-.403c.434-.266.155-.36-.658-.22a2.569 2.569 0 00-1.2.497c-.293.21-.576.383-.629.383-.138 0-.414.423-.414.636 0 .218-.005.218.367.039zm-7.144-8.06c.01-1.114.037-2.046.063-2.073.026-.026.152.242.281.595.675 1.853 1.246 3.303 1.35 3.429.16.192 2.63.141 2.631-.055 0-.07-.133-.415-.295-.766-.277-.597-.616-1.336-1.111-2.426-.116-.253-.336-.75-.49-1.103l-.28-.643.266-.634c.147-.348.608-1.415 1.025-2.37.417-.955.75-1.745.742-1.757-.022-.026-1.934-.06-2.414-.043l-.362.012-.578 1.762c-.318.97-.61 1.873-.647 2.009-.132.48-.275-.063-.2-.763.039-.358.037-1.18-.002-1.829l-.073-1.179h-2.628v4.886c0 2.687.032 4.918.071 4.957.04.039.648.058 1.354.042l1.282-.028zm7.742 1.634c.029-.179.065-.44.08-.58.027-.252.042-.256.947-.256h.92l.107.562.107.561.506.068c.711.095 1.965.1 2.022.01.026-.042-.272-1.663-.663-3.6-.39-1.939-.755-3.8-.81-4.137l-.207-1.297c-.06-.376-.164-.73-.231-.785-.114-.094-3.2-.095-3.265 0-.026.037-.44 1.783-.735 3.103a391.8 391.8 0 01-.515 2.248c-1.109 4.791-1.046 4.417-.746 4.46.133.02.734.02 1.336.002l1.095-.032.052-.326zm.536-3.007c-.042-.073.08-1.138.36-3.17.134-.967.312-1.278.364-.635.017.197.12 1.043.23 1.88.284 2.152.31 2.002-.355 2.002-.305 0-.575-.035-.599-.077zm8.125-.357l.027-3.703.766-.051.766-.051-.022-1.022c-.012-.562-.024-1.102-.025-1.2-.005-.166-.206-.179-2.757-.179-2.09 0-2.771.03-2.833.128-.097.152-.161 1.766-.084 2.094.05.209.115.23.706.23.5 0 .665.037.713.161.034.09.062 1.767.062 3.729v3.566h2.653zm7.126 1.577v-2.125l.413-1.067c.228-.587.453-1.158.5-1.27.049-.113.143-.366.21-.563a9.65 9.65 0 01.212-.561c.05-.113.155-.389.235-.613.08-.225.242-.661.36-.97a9.77 9.77 0 00.215-.59c0-.016-.607-.016-1.349 0l-1.349.028-.175.562a269.7 269.7 0 00-.448 1.456c-.15.491-.308.872-.351.845-.043-.027-.16-.337-.257-.69-.23-.826-.6-1.933-.702-2.096-.106-.17-2.723-.184-2.723-.015 0 .1.58 1.493 1.122 2.696.102.224.31.707.461 1.072.153.365.386.901.52 1.191.227.493.244.651.252 2.452.005 1.058.034 2.028.064 2.154.053.224.088.23 1.422.23h1.368z"/>
</svg>
