<svg xmlns="http://www.w3.org/2000/svg" viewBox="0 0 612 612">
    <path class="color-black" fill="#0d0f33" d="M289.5 23.6h33.8l8.2 2.4c2 .4 4.3.8 6.3 1.2-1.2.8-2.4 2-4.7 3.5 6.7-.8 11.4-1.6 16.1-2 4.3.4 8.6 1.2 13.3 1.6-.4.4-.8.8-.8 1.2 0 .4 0 1.2.4 1.2 14.5 5.1 29 9.4 42.8 15.7 19.2 9 38.1 20 56.5 30.6 3.5 2 5.9 6.3 8.6 9.8-4.3-2-9.4-3.5-13.3-5.9C390 40.1 318.2 26.7 240.8 45.6 128.2 73 44.2 172.3 38.3 292.9 34.4 372.1 61.9 441.2 118 497c82 81.6 208 100.5 310.5 47.9 137-70.3 187.6-240.2 110.7-373.7-2.4-3.9-3.1-8.2-4.7-12.6 3.1 2.7 7.5 5.1 9.8 8.6 12.6 18.4 18.8 39.6 25.5 60.4 5.1 15.7 9 32.2 13.3 47.9 0 9.4 0 18.4.4 27.9 0 3.1-1.6 8.2 4.7 7.9v5.5c-1.6 1.6-4.3 3.5-3.9 5.1 2.4 16.1-1.6 31.8-5.1 47.1-27.1 110.7-96.6 180.2-206.1 210.8-11.8 3.5-24.3 5.5-36.5 8.2h-62c-9.8-2-20-3.9-29.8-6.3-118.6-31.4-192-106.3-217.1-227.2-1.2-5.9-3.1-12.2-4.7-18.1v-62c.8-2 2.4-3.5 2.7-5.5 14.1-95 63.6-165.6 147.2-212.3 33.4-18.4 69.5-27.9 106.8-32.2 3.5.4 6.7-.4 9.8-.8z"/>
    <path fill="#fcfcfc" d="M589 311.7c-6.3 0-4.3-4.7-4.7-7.9-.4-9.4-.4-18.4-.4-27.9.4-2.7 1.6-5.5 1.2-7.9-6.7-37.3-17.3-73.4-37.3-106.4-4.3-7.1-7.5-16.1-16.5-19.2-3.9-4.3-7.9-9-11.8-13.3-.4-2.4 0-5.5-1.6-7.1-9-9.4-18.1-18.8-27.5-27.9-36.4-33.2-79.2-54-127.5-64.2-4.3-.4-8.6-1.2-13.3-1.6-3.9-.4-7.5-1.2-11.4-1.6-2-.4-4.3-.8-6.3-1.2.8-.8 2-1.6 2.7-2.4H589v288.6zM337.4 588.8c12.2-2.7 24.3-5.1 36.5-8.2C483 549.9 552.5 480.5 580 369.8c3.9-15.3 7.5-31 5.1-47.1-.4-1.6 2.7-3.5 3.9-5.1v271.2H337.4zM280.1 25.2c-37.7 4.3-73.8 13.7-106.8 32.2C89.7 104.1 40.7 174.7 26.1 269.7c-.4 2-1.6 3.9-2.7 5.5V23.6h254.3c.8.8 1.6 1.2 2.4 1.6zm-256.3 312c1.6 5.9 3.1 11.8 4.7 18.1C54 475.8 127 551.1 245.6 582.5c9.8 2.7 19.6 4.3 29.8 6.3H23.8V337.2z"/>
    <path class="color-gold color-reserved-white" fill="#e0a921" d="M280.1 25.2c-.8-.4-1.6-.8-2-1.6h11.4c-3.1.4-6.3 1.2-9.4 1.6zm54.6-1.6c-.8.8-2 1.6-2.7 2.4l-8.2-2.4h10.9zM535.2 159c1.6 4.3 2.4 8.6 4.7 12.6C616.5 305 566.2 475 429.2 545.2c-102.4 52.6-228.8 33.8-310.5-47.9C62.6 441.2 35.1 372.5 39 293.2 45 172.7 129 73.4 241.6 46c77.3-18.8 149.2-5.5 215.9 37.3 3.9 2.7 9 3.9 13.3 5.9l-.4-.4 8.6 8.6-.4-.4c.8 1.2 1.2 2.7 2 3.5 18.8 16.9 36.5 35.3 50.2 56.9.9 1.2 3.2 1.2 4.4 1.6zm-60.8-3.9c3.1-12.6 5.5-22.4 8.2-34.9-11.4 4.7-20 8.6-30.2 13 2-12.2 3.9-22.4 5.9-34.1-11 5.5-20 10.2-30.6 15.7.8-12.2 1.6-22.8 2.7-35.3-11 7.5-20 13.7-29.4 20.4-1.6-12.2-2.7-22.4-4.7-34.9l-23.9 23.9c-2.7-13-5.5-23.9-8.2-37.7-7.5 11.4-13.7 20.8-20.8 31.4-5.1-13-9-23.2-13.7-35.7-6.3 11.8-11.8 20.8-17.7 32.2-6.7-11-12.2-20-19.2-31.4-4.7 12.6-8.6 22.8-13 34.5C271.9 72 265.3 63 257 52.8c-2.4 11.8-4.3 21.2-6.3 32.2-9-8.6-16.5-15.7-25.5-24.3-.8 12.6-1.2 22-1.6 33.4-9.8-6.7-18.1-12.6-27.9-19.2v32.6c-10.6-5.9-20-11-31.8-17.3 2.7 12.6 4.7 22.4 7.1 33.8-11-4.7-20.4-8.6-31.4-13 3.5 12.6 6.3 22.4 9.8 33.8-11.8-3.1-21.6-5.5-34.1-8.2 5.5 12.2 9.4 21.2 14.5 32.2-13-2-22.8-3.9-35.3-5.9 7.1 11 13 20 20 30.6-13.3-1.2-24.7-2-38.9-3.1 9 11 16.1 19.2 23.9 28.7-12.5.4-23.5 1.1-36.9 1.9 10.6 10.2 19.2 18.4 28.3 27.1-12.2 2.7-22 5.5-33.8 8.2 9.8 7.5 18.4 14.1 27.9 21.6-11.8 5.1-21.2 9-33 14.1 12.2 5.9 21.6 10.6 33.4 16.5-11.4 6.3-21.2 11.4-33 17.7 12.6 4.7 22.8 8.2 34.5 12.2-10.2 7.9-19.6 14.9-30.6 23.2 13.7 2.4 24.7 4.3 39.3 7.1-10.2 9.4-18.4 16.5-26.3 23.6.4.8.8 2 1.2 2.7h35.3c-7.9 11-14.1 19.6-21.6 30.6 13-1.2 22.8-2 34.5-3.1-5.1 10.2-9.4 18.8-14.5 29.4 12.2-1.6 21.6-3.1 33-4.7-4.7 11.8-8.6 20.8-13.3 32.6 13-3.9 22.8-6.7 33.8-10.2-2.7 12.6-5.1 22.8-8.2 35.7 12.6-7.1 22-12.2 33-18.4-.8 12.6-1.2 23.6-1.6 36.1 10.6-7.5 19.2-13.7 29-20.8 1.6 12.2 2.4 22.8 3.9 34.9l23.6-23.6c2.4 12.6 4.3 22.8 6.7 35.3 8.6-10.2 16.1-18.4 23.9-27.9 3.9 12.2 7.1 22.4 11 34.5 6.7-11 12.2-20.4 18.1-31 5.1 11 9.8 20.4 14.9 31.8 5.5-11.8 10.2-21.6 15.7-32.6 7.9 10.6 14.1 19.2 21.6 29 3.5-12.2 5.9-21.6 8.6-31.4 1.2-.4 2.4-1.2 3.5-1.6 7.1 8.2 14.1 16.9 22.8 27.1.8-13.3 1.2-23.9 2-36.1 10.2 8.6 19.2 16.1 29.8 24.7v-34.9c10.2 5.5 19.6 10.2 30.2 15.7-2.4-12.2-4.3-22.8-6.3-34.5 11 4.3 20.8 7.9 33 12.2-2-7.1-3.5-11.8-5.1-16.5l-3.9-15.7c12.6 3.5 22.8 6.3 34.9 9.4-5.1-11.8-9.4-21.2-14.1-32.2 12.2 2 22.4 3.5 34.1 5.5-5.9-11-11-20-16.9-30.6h33.8c-7.9-9.8-14.5-18.4-22-27.9 11.8-1.6 22.4-2.7 35.7-4.7-9.4-9-16.9-15.7-25.1-23.6 12.2-3.9 22.8-7.1 35.3-11.4-11.4-7.5-20.8-13.7-31-20.4 10.2-5.5 18.8-9.8 29.4-15.7-11-5.5-19.6-9.4-29-14.1 9.4-5.5 18.1-11 28.3-17.3-11.8-5.1-21.2-9-31.4-13.7 8.6-7.9 16.1-14.5 25.9-23.2-12.2-2.4-21.6-4.3-32.6-6.7 9-9.8 16.1-18.1 25.5-28.3h-37.3c7.1-10.6 13-20 19.6-30.6-12.6 1.2-22.8 2.4-34.1 3.5 5.1-11 9.4-20.4 14.5-31.8-11.8 2.6-20.8 4.5-33 7.3z"/>
    <path class="color-gold color-reserved-white" fill="#e0a921" d="M362.9 30.3c48.3 9.8 91.1 31 127.6 64.4 9.8 8.6 18.8 18.4 27.5 27.9 1.6 1.6 1.2 4.7 1.6 7.1-10.2-9.4-20-19.2-30.6-28.7-2.7-2.7-5.5-7.5-10.6-3.5l.4.4c2-7.9-3.1-8.6-8.6-8.6l.4.4c-2.7-3.1-5.1-7.9-8.6-9.8-18.4-10.6-37.3-21.6-56.5-30.6-13.7-6.7-28.7-10.6-42.8-15.7-.4 0-.4-.8-.4-1.2-.2-1.4.2-1.7.6-2.1zm168.4 112.6c9.4 3.1 12.2 12.2 16.5 19.2 20 32.6 30.6 68.7 37.3 106.4.4 2.4-.8 5.1-1.2 7.9-4.3-16.1-8.2-32.2-13.3-47.9-6.7-20.8-13-42-25.5-60.4-2.4-3.5-6.3-5.9-9.8-8.6l.4.4c-1.7-6-3.2-11.5-4.4-17zM338.2 27.1c3.9.4 7.5 1.2 11.4 1.6-4.7.8-9.4 1.2-16.1 2 2.3-2 3.5-2.8 4.7-3.6z"/>
    <path class="color-black" fill="#0d0f33" d="M531.3 142.9c1.6 5.5 2.7 11 4.3 16.5-1.6-.8-3.5-.8-4.3-2-13.7-21.6-31.4-40-50.2-56.9-.8-.8-1.2-2.4-2-3.5 5.1-3.5 7.5 1.2 10.6 3.5 10.2 9.4 20.4 19.2 30.6 28.7 3.2 4.7 7.1 9 11 13.7zm-56.9 12.2c11.8-2.4 21.2-4.7 32.6-7.1-5.1 11.4-9.4 20.8-14.5 31.8 11.8-1.2 22-2 34.1-3.5-6.7 10.6-12.6 20-19.6 30.6h37.3c-9 10.2-16.5 18.4-25.5 28.3 11.4 2.4 20.4 4.3 32.6 6.7-9.8 8.6-17.3 15.3-25.9 23.2 10.2 4.3 19.6 8.6 31.4 13.7-10.6 6.3-18.8 11.4-28.3 17.3 9.8 4.7 18.1 8.6 29 14.1-10.6 5.9-19.2 10.2-29.4 15.7 10.2 6.7 19.6 13 31 20.4-12.6 3.9-23.2 7.5-35.3 11.4 8.2 7.9 15.7 14.5 25.1 23.6-13.3 1.6-23.6 3.1-35.7 4.7 7.5 9.4 14.1 17.7 22 27.9h-33.8c5.9 10.6 11 20 16.9 30.6-11.8-2-22-3.5-34.1-5.5 4.7 11 9 20.4 14.1 32.2-12.2-3.5-22.4-6.3-34.9-9.4l3.9 15.7c1.2 4.7 2.7 9.4 5.1 16.5-12.2-4.3-21.6-8.2-33-12.2 2.4 12.2 4.3 22.4 6.3 34.5-10.6-5.5-19.6-10.2-30.2-15.7v34.9c-10.6-8.6-19.6-16.1-29.8-24.7-.8 12.2-1.2 22.8-2 36.1-8.6-10.2-15.7-18.4-22.8-27.1-1.2.4-2.4 1.2-3.5 1.6-2.7 9.4-5.5 19.2-8.6 31.4-7.5-9.8-13.7-18.4-21.6-29-5.1 11-9.8 20.8-15.7 32.6-5.5-11.4-9.8-20.8-14.9-31.8-6.3 10.6-11.8 20-18.1 31-3.9-12.2-7.1-22.4-11-34.5-7.9 9-14.9 17.7-23.9 27.9-2.4-12.6-4.3-22.8-6.7-35.3L213.4 537c-1.2-12.2-2.4-22.4-3.9-34.9-9.8 7.1-18.4 13.3-29 20.8.8-12.6 1.2-23.6 1.6-36.1-11.4 6.3-20.8 11.4-33 18.4 3.1-13 5.5-23.6 8.2-35.7-11 3.1-20.8 6.3-33.8 10.2 4.7-11.8 8.6-21.2 13.3-32.6-11.4 1.6-21.2 2.7-33 4.7 5.1-10.6 9.4-19.2 14.5-29.4-11.8 1.2-21.6 2-34.5 3.1 7.9-11 13.7-19.6 21.6-30.6H70.1c-.4-.8-.8-2-1.2-2.7 7.9-7.1 16.1-14.1 26.3-23.6-14.5-2.4-25.5-4.3-39.3-7.1 11-8.2 20-15.3 30.6-23.2-11.8-4.3-21.6-7.9-34.5-12.2 11.8-6.3 21.2-11.4 33-17.7-11.8-5.9-21.2-10.6-33.4-16.5 11.8-5.1 21.2-9 33-14.1-9.8-7.5-18.1-14.1-27.9-21.6 11.8-2.7 21.6-5.1 33.8-8.2-9.4-9-17.7-16.9-28.3-27.1 13.3-.8 24.3-1.6 36.9-2.4-7.9-9.4-14.9-17.7-23.9-28.7 14.5 1.2 25.5 2 38.9 3.1-7.1-10.6-13-19.6-20-30.6 12.2 2 22.4 3.5 35.3 5.9-5.1-11-9-20.4-14.5-32.2 12.2 3.1 22 5.5 34.1 8.2-3.1-11.4-5.9-21.2-9.8-33.8 11 4.7 20.4 8.6 31.4 13-2.4-11.4-4.3-21.2-7.1-33.8 11.8 6.7 21.2 11.4 31.8 17.3V74.6c9.8 6.7 18.1 12.6 27.9 19.2.4-11.4 1.2-21.2 1.6-33.4 9 8.6 16.5 15.7 25.5 24.3 2.4-11 3.9-20 6.3-32.2 7.9 10.6 14.5 19.2 22.8 29.4 4.3-11.8 8.2-22 13-34.5 7.1 11.4 12.6 20.4 19.2 31.4 6.3-11 11.4-20.4 17.7-32.2 4.7 12.6 8.6 22.8 13.7 35.7 7.1-10.6 13-19.6 20.8-31.4 3.1 13.3 5.5 24.3 8.2 37.7l23.9-23.9c1.6 12.6 3.1 23.2 4.7 34.9C410 93.1 419 87.2 430 79.3c-.8 13-2 23.2-2.7 35.3 10.6-5.5 19.6-10.2 30.6-15.7-2 11.8-3.9 22-5.9 34.1 10.2-4.3 19.2-8.2 30.2-13-2.3 12.7-4.7 22.5-7.8 35.1zm-294 305.4c.8.8 2 1.6 2.7 2.7 5.9 3.9 11.4 7.5 17.3 11.4l9.4 4.7c3.9 2 7.9 3.5 11.4 5.5 2 .8 3.9 2 5.9 2.7 23.2 13.7 49.1 16.9 75.4 17.7 29 .8 57.7-3.1 84-16.9 4.7-2.4 9.4-4.3 13.7-6.7 11.8-7.1 23.2-14.1 34.9-21.2 2.7-2.4 5.1-4.7 7.9-6.7 24.3-19.2 40.8-44 51.8-72.6 22.8-55 21.2-109.1-2.7-163.3-.8-2-2-3.9-2.7-5.9-.8-2-2-3.9-2.7-5.5-2.4-3.5-4.7-6.7-7.1-10.2-8.6-11.4-16.9-22.8-25.5-33.8-13-16.1-29-28.3-47.9-36.9-71.8-40-142.1-35.7-211.2 7.5-1.6 1.2-3.1 2.7-4.7 3.9-5.9 4.7-11.8 9-17.3 13.7-7.9 8.2-15.7 16.5-23.6 24.3-31.4 37.3-44.7 80.5-45.1 128.7v.8c0 3.1.4 6.3.4 9.4h-.4c1.2 31.4 8.6 60.4 25.9 86.7 7.1 10.6 14.1 21.6 21.6 32.2l18.4 18.4c2 2 3.9 3.5 5.9 5.5 1.5 1.1 2.7 2.7 4.3 3.9zM470.1 88.4c5.5 0 10.6.8 8.6 8.6l-8.6-8.6z"/>
    <path fill="#fcfcfc" d="M130.2 400c-17.3-26.3-24.7-55.7-25.9-86.7h.4c0-3.1-.4-6.3-.4-9.4 0-.4.4-.4.4-.8h-.4c.4-47.9 13.7-91.5 45.1-128.7l2 2c-1.6 2.7-3.1 5.5-5.1 8.2-32.2 44.4-41.6 93.8-35.7 147.6 2.7 23.9 12.2 44.7 22 65.9-.9.7-1.7 1.5-2.4 1.9zm64.3-267.7c69.1-43.2 139.3-47.5 211.2-7.5l-2.4 2.4c-3.1-1.6-5.9-2.7-9-4.3-45.1-23.2-92.2-27.5-140.5-13.3-20 5.9-38.5 16.1-57.7 24.3 0-.4-.8-1.2-1.6-1.6zm191.6 356c-26.3 13.7-55 17.7-84 16.9-26.3-.8-51.8-3.9-75.4-17.7.4-.8 1.2-1.6 1.6-2 36.9 15.3 74.6 20.4 113.8 13 14.5-2.7 28.7-7.5 43.2-11l.8.8zm105.6-270.8c23.9 54.2 25.5 108.7 2.7 163.3-.8-.4-1.2-.8-2-1.2.4-2.4.8-4.7 1.6-6.7 9.8-29.8 15.3-59.7 10.6-91.5-3.1-21.6-8.2-42.4-14.9-62.8.8-.3 1.6-.7 2-1.1z"/>
    <path fill="#fcfcfc" d="M494.4 380.8c-11 28.7-27.9 53.4-51.8 72.6l-1.6-1.6c21.6-21.2 38.9-45.1 51.8-72.6.4.8 1.2 1.2 1.6 1.6zm-88.7-255.9c18.8 8.6 34.9 20.8 47.9 36.9l-2.4 2.4c-16.1-12.2-31.8-24.7-47.9-36.9l2.4-2.4zm47.9 36.9c8.6 11.4 16.9 22.8 25.5 33.8l-1.6 1.6c-8.6-11-17.7-22-26.3-33l2.4-2.4zm-18.9 298.7c-11.8 7.1-23.2 14.1-34.9 21.2-.4-.4-.8-.8-1.2-1.6 11.4-7.1 23.2-14.5 34.5-21.6.9.8 1.3 1.2 1.6 2zm-283-27.9c-7.1-10.6-14.1-21.6-21.6-32.2.8-.8 1.6-1.2 2.4-2 7.1 10.6 14.1 21.6 21.2 32.2l-2 2zm-2.3-258.3c7.9-8.2 15.7-16.5 23.6-24.3.8.4 1.2 1.2 2 2l-23.6 24.7c-.8-.8-1.6-1.6-2-2.4zM170.2 451l-18.4-18.4 2-2c5.9 6.3 12.2 12.6 18.1 18.8-.5.5-1.3.8-1.7 1.6z"/>
    <path fill="#fcfcfc" d="M172.5 150c5.9-4.7 11.8-9 17.3-13.7l2 2c-5.9 4.7-11.8 9-17.3 13.7-.4-.8-1.2-1.2-2-2zm27.9 324.6c-5.9-3.9-11.4-7.5-17.3-11.4.8-.8 1.6-1.2 2-2l16.5 11.8c-.4.4-.8.8-1.2 1.6zm199.4 7c-4.7 2.4-9.4 4.3-13.7 6.7l-.8-1.2c4.3-2.4 9-4.3 13.3-6.7l1.2 1.2zm79.3-286.1c2.4 3.5 4.7 6.7 7.1 10.2-.8.4-1.6 1.2-2 1.6-2-3.5-4.3-7.1-6.3-10.6 0 0 .8-.4 1.2-1.2zM221.2 484.8c-3.9-2-7.9-3.5-11.4-5.5.4-.8 1.2-1.2 1.6-2 3.9 2 7.5 3.5 11.4 5.5-.8.8-1.2 1.2-1.6 2zm221.4-31c-2.7 2.4-5.1 4.7-7.9 6.7-.4-.8-.8-1.2-1.6-2 2.4-2.4 5.1-4.3 7.5-6.7l2 2z"/>
    <path fill="#fcfcfc" d="M209.4 479.3l-9.4-4.7c.4-.8 1.2-1.2 1.6-2l9.4 4.7c-.4.8-.8 1.6-1.6 2zm-33.3-22.8c-2-2-3.9-3.5-5.9-5.5l1.6-1.6c2 1.6 4.3 3.5 6.3 5.1-.8.5-1.2 1.2-2 2zm14.1-320.3c1.6-1.2 3.1-2.7 4.7-3.9l2 2c-1.6 1.2-3.1 2.7-4.3 3.9-1.2-.8-2-1.6-2.4-2zm296 69.5c.8 2 2 3.9 2.7 5.5-.8.8-1.6 1.2-2.4 2-.8-2-2-3.9-2.7-5.9.8-.4 1.6-.8 2.4-1.6z"/>
    <path fill="#fcfcfc" d="M180.4 460.5c-1.6-1.2-3.1-2.7-4.7-3.9.8-.8 1.6-1.6 2-2.4 1.2 1.6 2.7 3.1 3.9 4.7 0 .4-.4.8-1.2 1.6zm308.5-248.9c.8 2 2 3.9 2.7 5.9-.8.4-1.2.8-2 1.2-1.2-2-2-3.5-3.1-5.5 1.2-.4 2-1.2 2.4-1.6z"/>
    <path class="color-gold color-reserved-white" fill="#e0a921" d="M104.2 303.1h.4c0 .4-.4.4-.4.8v-.8z"/>
    <path fill="#fcfcfc" d="M226.7 487.5c-2-.8-3.9-2-5.9-2.7.4-.8 1.2-1.2 1.6-2l5.9 2.4c-.4.8-.8 1.6-1.6 2.3zm-43.6-24.3c-.8-.8-2-1.6-2.7-2.7.4-.8 1.2-1.2 1.6-2 1.2.8 2 1.6 3.1 2.4-.4.7-1.2 1.5-2 2.3z"/>
    <path class="color-black" fill="#0d0f33" d="M185.1 461.2c-1.2-.8-2-1.6-3.1-2.4-1.2-1.6-2.7-3.1-3.9-4.7-2-1.6-4.3-3.5-6.3-5.1-5.9-6.3-12.2-12.6-18.1-18.8-7.1-10.6-14.1-21.6-21.2-32.2-9.8-21.2-19.2-42.4-22-65.9-6.3-53.8 3.5-103.2 35.7-147.6 2-2.7 3.5-5.5 5.1-8.2l23.6-24.7c5.9-4.7 11.8-9 17.3-13.7 1.6-1.2 3.1-2.7 4.3-3.9 19.2-8.2 37.7-18.8 57.7-24.3 48.3-14.1 95.4-9.8 140.5 13.3 2.7 1.6 5.9 2.7 9 4.3 16.1 12.2 31.8 24.7 47.9 36.9 8.6 11 17.7 22 26.3 33 2 3.5 4.3 7.1 6.3 10.6.8 2 2 3.9 2.7 5.9 1.2 2 2 3.5 3.1 5.5 7.1 20.4 12.2 41.2 14.9 62.8 4.3 31.8-.8 61.6-10.6 91.5-.8 2.4-1.2 4.3-1.6 6.7-13 27.5-30.2 51.4-51.8 72.6-2.4 2.4-5.1 4.3-7.5 6.7-11.4 7.1-23.2 14.5-34.5 21.6-4.3 2.4-9 4.3-13.3 6.7-14.5 3.9-28.7 8.2-43.2 11-39.3 7.5-77.3 2.7-113.8-13l-5.9-2.4c-3.9-2-7.5-3.5-11.4-5.5L202 473c-5.5-3.9-11-7.8-16.9-11.8zm63.2-57.7c3.1-.4 6.3-.4 9.4-.4l.4.8.4-.8c1.2-18.1 2.4-35.7 3.5-54.2h-16.5v48.3c.4 2.4 2 4.4 2.8 6.3zm141.3-107.1v-15.7c-5.5.4-9.8.8-14.5 1.2v56.9h14.5v-42.4zm-45.9 107.1c4.7-.4 9-.4 14.1-.8v-11.4c-6.7-.4-12.6-.8-18.1-1.2-3.1-14.5 9-7.5 14.1-11.8 0-2.4-.4-5.1-.8-8.6-2.7 0-4.7-.4-6.3-.4-3.9 0-8.6 0-7.5-5.1.4-2 5.5-3.5 8.6-4.3 2-.8 4.3 0 7.5 0v-11H328v54.6h15.7zm3.5-100.1v-5.9c5.5-2 11.4-4.3 17.3-6.3v-9.4h-32.2v57.7c5.5-.4 9.8-.4 14.9-.8.4-6.7.8-12.6.8-18.4 5.1-.8 9.4-1.6 14.5-2.4 0-3.5-.4-6.3-.4-7.5-5.5-2.6-10.2-4.6-14.9-7zm-33.7 100.1v-54.2h-12.6c-.4 5.9-.4 11.4-.8 16.5-.8 0-1.6.4-2.7.4-3.1-5.5-5.9-11-9-16.9H275v41.2c0 4.3 1.2 9 2 13.3v-.4c3.9-.4 7.9-.4 12.6-.8v-18.4c3.9 3.1 6.3 6.3 7.9 10.2 2.6 8 8.1 10.3 16 9.1zM365.3 214c-.4 14.9-2 29.4-1.2 44 .4 8.6 13.7 14.9 24.7 13.7 13-1.6 18.4-6.3 18.8-18.1.4-12.2.4-24.3.4-36.5 0-.8-.8-1.6-1.6-2.4h-12.6v7.5c0 9 0 18.1-.8 26.7-.4 2.7-4.3 6.7-7.1 6.7-2.4 0-6.7-3.5-7.5-6.3-1.2-4.7-.4-10.2-.8-15.3-.4-6.7-1.6-13.3-2.4-20h-9.9zm-182.9 55.7v-53.8h-12.6c-3.1 6.3-6.3 12.2-10.2 19.2-3.5-7.9-6.3-13.7-8.6-19.2h-15.7v54.6c3.5-.4 7.1-.4 11-.8.4-6.3 1.2-11.4 2-20.4 3.9 8.2 6.3 13.3 9.4 19.6 3.1-6.7 5.5-12.6 8.2-18.1.8.4 2 .8 2.7 1.2v18.1c4.7-.4 9-.4 13.8-.4zM358.2 243c-.4-3.1-.4-5.5-.8-7.9-1.6-13.7-11-23.2-23.6-23.2-13.3 0-23.6 8.2-25.1 21.6-.8 6.7-.4 14.1 1.2 20.8 2.4 9.4 13.7 17.3 23.6 17.3 10.6 0 20.4-6.7 23.2-16.9 1.1-3.8 1.1-8.2 1.5-11.7zm96.6 26.3c-4.3-11-5.9-19.6-.4-30.2 5.9-11-3.1-23.6-16.5-25.1-6.7-.8-13.7 0-21.6 0v55.7c4.7-.4 9-.4 13.3-.8.4-6.3.8-11.4 1.6-16.5.8-.4 2-.4 2.7-.8 2.4 5.5 5.1 11.4 7.5 17.3 3.9.4 7.9.4 13.4.4zm-227.3 12.2c-6.7 19.2-13.3 38.1-20.4 58.5 7.9-2 14.5 2.4 19.2-6.3 1.2-2 12.6-2 14.1.8 5.1 7.9 10.6 3.9 16.9 4.3-5.9-19.6-11.4-38.5-16.9-57.3h-12.9zm34.5-13.4c7.9 1.6 13.7 3.5 19.6 3.9 11.8.8 18.1-3.5 20.4-13 2-8.6-2-15.3-11.4-20-4.7-2.4-9-5.1-13.7-7.5.4-1.6.8-2.7 1.2-4.3 6.3.4 13 .8 20 1.2 1.2-2.7 3.1-6.7 5.5-12.6-10.2-1.2-18.8-3.1-27.5-2.7-7.9.4-13.3 7.1-14.9 14.9-1.6 8.2 2.7 13.3 9.8 16.5l15 7.5c-7.1 9.8-13 2-19.2 2-.8 3.5-2.4 7.8-4.8 14.1zM242 252c-.4 1.6-1.2 3.5-1.6 5.1-6.3-.8-12.6-2-19.2-3.1-1.2 4.3-2.4 8.2-4.3 13.7 7.1 1.6 13 3.1 18.8 4.3 2.4.4 4.7.4 7.1 0 7.9-.8 13-5.1 14.9-12.6 2.4-7.9-.4-14.5-7.9-19.2-5.5-3.5-11.4-6.3-17.3-9.4 3.9-3.1 7.1-4.3 10.2-4.3s5.9 1.2 9.4 2.4c1.6-4.3 3.1-7.9 4.3-11.4-9-5.1-17.7-6.3-26.7-3.5-7.5 2.4-12.6 6.7-13 14.9-.4 7.9 3.1 13.3 10.6 16.1 5.7 1.5 10.4 4.3 14.7 7zm-56.9 70.7c3.9-.4 6.7-.4 9.4-.8 12.6-1.6 19.6-9.4 18.8-21.6-.4-10.6-9-18.4-20.4-18.8-7.5-.4-14.5 0-22 0v57.3h13.3c.5-5.5.5-10.2.9-16.1zm179.8 77.7c7.5 1.6 13.3 3.5 19.6 3.9 11 .4 16.9-3.9 18.8-13 2-9.8-1.6-15.7-13-20-3.9-1.6-7.5-3.9-11.8-5.9 6.3-9 13-4.3 19.6-3.5 1.2-3.9 2.7-7.9 3.9-12.6-6.3-1.2-11-2.4-16.1-2.7-9.8 0-18.4 6.7-19.6 14.5-1.6 8.2 2.4 13.7 13 18.8 3.5 2 6.7 4.7 10.2 7.1-.4 1.2-1.2 2.7-1.6 3.9-5.9-.8-11.8-2-18.1-2.7-1.4 3.6-3 7.1-4.9 12.2zm74.6-115.8c-19.2-8.6-32.6-4.3-40 11.4-6.7 14.1-.8 34.9 11.4 40.8 9.8 4.7 25.1 2.7 28.7-3.9-2-3.5-3.9-7.1-5.9-10.2-14.5 2.4-20.8.4-22.4-8.6-2.7-16.5 5.5-22.4 20.8-19.2 2.6-3.6 4.6-6.8 7.4-10.3zm-143.7-.8c-16.9-6.7-27.1-5.1-34.1 4.7-8.2 11.4-7.9 32.2.4 42.4 7.9 9 20 10.6 33 3.5-1.6-3.9-3.1-7.5-4.7-12.2-7.9 3.1-16.1 3.5-19.6-4.7-2-5.1-2-12.2 0-17.3 3.5-9 12.2-5.9 19.6-4.7 1.9-4.2 3.4-7.8 5.4-11.7zm-91.5 65.6v53.8h31.8c.4-4.3.4-7.9.4-12.2h-18.1v-41.6h-14.1zm113.5-10.2v-57.3h-13.3v57.3h13.3zm157-124.9h-13V270c4.7-.4 8.6-.8 13-1.2v-54.5zm-279.5 55H209v-54.2c-5.1.4-9 .4-13.7.8v53.4z"/>
    <path fill="#fcfcfc" d="M182.4 269.7h-13.7v-18.1c-.8-.4-2-.8-2.7-1.2-2.7 5.9-5.1 11.4-8.2 18.1-3.1-6.3-5.5-11.4-9.4-19.6-.8 8.6-1.2 14.1-2 20.4-3.9.4-7.5.8-11 .8v-54.6H151c2.4 5.5 5.1 11.4 8.6 19.2 3.9-7.5 7.1-13 10.2-19.2h12.6v54.2zM358.2 243c-.4 3.5-.4 7.9-1.6 11.8-2.7 10.2-12.6 17.3-23.2 16.9-9.8 0-21.2-7.9-23.6-17.3-1.6-6.7-2-14.1-1.2-20.8 1.6-13.7 11.8-22 25.1-21.6 12.6 0 22 9.4 23.6 23.2.5 2.7.5 5.1.9 7.8zm-36.1-2c0 7.5 5.1 14.1 11 14.1 6.3.4 10.6-5.9 10.6-15.3-.4-8.6-4.3-13.7-11-13.3-5.9.4-10.6 7.1-10.6 14.5zm53.8-27.4c.8 6.7 2 13.3 2.4 20 .4 5.1-.4 10.6.8 15.3.8 2.7 4.7 6.3 7.5 6.3 2.4 0 6.7-3.9 7.1-6.7 1.2-8.6.8-17.7.8-26.7v-7.5h12.6c.4.8 1.6 1.6 1.6 2.4 0 12.2.4 24.3-.4 36.5-.4 11.8-5.9 16.5-18.8 18.1-11 1.2-24.3-4.7-24.7-13.7-.8-14.5.8-29.4 1.2-44l.4.8.4-.8c2.4.4 5.5.4 9.1 0zm-99.3 189.9c-.8-4.3-2-9-2-13.3-.4-13.3 0-27.1 0-41.2h13.3c3.1 5.5 6.3 11.4 9 16.9.8 0 1.6-.4 2.7-.4.4-5.1.4-10.2.8-16.5H313v54.2c-7.9 1.2-13.3-1.2-16.1-9-1.2-3.9-3.9-7.1-7.9-10.2v18.4c-4.2.4-8.1.7-12.4 1.1zm178.2-134.2h-13c-2.7-5.9-5.1-11.8-7.5-17.3-.8.4-2 .4-2.7.8-.4 5.1-.8 10.2-1.6 16.5-4.3.4-9 .4-13.3.8v-55.7c7.9 0 14.9-.8 21.6 0 13.3 1.6 22.4 14.1 16.5 25.1-5.9 10.2-4.4 18.8 0 29.8zm-24-44.7v16.9c5.5 1.2 9.8 0 11-5.5 1.2-7.5-2.7-10.3-11-11.4zm-203.3 56.9h13c5.5 18.8 11 37.3 16.9 57.3-5.9-.4-11.8 3.5-16.9-4.3-1.6-2.4-13.3-2.7-14.1-.8-4.3 8.6-11 4.3-19.2 6.3 7-20.5 13.6-39.3 20.3-58.5zm8.2 30.2c-1.6 0-3.5 0-5.1-.4.4 3.5.4 7.1.8 10.2 1.2 0 3.5 0 3.5-.4.4-3.1.4-6.3.8-9.4zm26.3-43.6c2.4-6.3 3.9-10.6 5.1-14.1 6.7 0 12.6 7.9 19.2-2-5.5-2.7-10.2-5.5-14.9-7.5-7.1-3.1-11.4-8.2-9.8-16.5 1.2-7.9 7.1-14.5 14.9-14.9 8.6-.4 17.3 1.6 27.5 2.7-2.7 5.9-4.3 9.8-5.5 12.6-7.1-.4-13.7-.8-20-1.2-.4 1.6-.8 2.7-1.2 4.3 4.7 2.4 9 5.1 13.7 7.5 9.4 5.1 13.3 11.8 11.4 20-2.4 9.4-8.6 13.7-20.4 13-6.2-.3-12.1-2.3-20-3.9zM242 252c-4.7-2.7-9-5.5-14.1-7.5-7.5-3.1-11.4-8.2-10.6-16.1.4-7.9 5.9-12.6 13-14.9 9-2.7 17.7-1.6 26.7 3.5-1.6 3.5-2.7 7.5-4.3 11.4-3.5-.8-6.7-2-9.4-2.4-3.1 0-5.9.8-10.2 4.3 5.9 3.1 11.8 5.9 17.3 9.4 7.5 4.7 10.2 11.4 7.9 19.2-2.4 7.5-7.1 11.8-14.9 12.6-2.4.4-4.7.4-7.1 0-5.9-1.2-11.8-2.7-18.8-4.3 1.6-5.5 2.7-9.4 4.3-13.7 6.7 1.2 13 2 19.2 3.1-.2-1 .6-3 1-4.6zm-56.9 70.7c-.4 6.3-.8 10.6-1.2 16.1h-13.3v-57.3c7.5 0 14.5-.4 22 0 11.4.4 20 8.6 20.4 18.8.8 11.8-6.3 19.6-18.8 21.6-2.4 0-5.2.4-9.1.8zm.4-13.4c7.1.4 14.5 2 14.9-7.9 0-9.4-7.5-8.6-14.9-8.6v16.5zm179.4 91.1c2-5.1 3.5-8.6 4.7-12.2 6.3.8 12.2 2 18.1 2.7.4-1.2 1.2-2.7 1.6-3.9-3.5-2.4-6.7-5.1-10.2-7.1-10.2-5.1-14.1-10.6-13-18.8 1.6-7.9 9.8-14.5 19.6-14.5 5.1 0 9.8 1.6 16.1 2.7-1.6 4.7-2.7 8.2-3.9 12.6-6.7-.8-13.3-5.1-19.6 3.5 3.9 2 7.9 4.3 11.8 5.9 11 4.3 14.9 10.2 13 20-2 9-7.9 13.3-18.8 13-5.7 0-12-2.3-19.4-3.9zm74.6-115.8c-2.7 3.5-4.7 6.7-7.1 10.2-15.3-3.1-23.6 2.7-20.8 19.2 1.6 9 7.5 11 22.4 8.6 2 3.5 3.9 7.1 5.9 10.2-3.5 6.7-18.8 8.6-28.7 3.9-12.6-5.9-18.1-26.7-11.4-40.8 7.1-15.6 20.4-19.9 39.7-11.3zm-143.7-.8c-2 4.3-3.5 7.5-5.5 11.4-7.5-1.2-16.1-4.3-19.6 4.7-2 5.1-2.4 12.6 0 17.3 3.5 8.2 11.8 7.9 19.6 4.7 2 4.7 3.5 8.6 4.7 12.2-13 7.1-25.1 5.5-33-3.5-8.6-10.2-9-30.6-.4-42.4 7.1-9.5 17.3-11.4 34.2-4.4zm51.4 19.6c4.7 2 9.4 4.3 15.3 6.7 0 1.2.4 3.9.4 7.5-4.7.8-9 1.6-14.5 2.4-.4 5.9-.4 11.8-.8 18.4-4.7.4-9.4.4-14.9.8v-57.7h32.2v9.4c-5.9 2.4-11.8 4.3-17.3 6.3-.4 2.3-.4 4.3-.4 6.2zm-20 83.3v-38.1h27.5v11c-2.7 0-5.5-.4-7.5 0-3.1 1.2-8.2 2.4-8.6 4.3-.8 5.1 3.5 5.1 7.5 5.1 2 0 3.5.4 6.3.4.4 3.1.4 6.3.8 8.6-5.1 4.7-17.3-2.7-14.1 11.8 5.5.4 11.4.8 18.1 1.2v11.4c-5.1.4-9.8.4-14.1.8l-.4-.4-.4.4H327c.2-5.9.2-11 .2-16.5h.4-.4zm-122.9-37.3h14.5V391h18.1c-.4 4.7-.4 7.9-.4 12.2h-31.8c-.4-17.7-.4-35-.4-53.8zm185.3-53v42.4h-14.5v-56.9c4.7-.4 9-.8 14.5-1.2v15.7l-.8-.4.8.4zm-71.8 42.8h-13.3v-57.3h13.3v57.3zm157-124.9v54.6c-4.3.4-8.2.8-13 1.2v-55.7l13-.1zM257.7 403.5h-9.4v.4c-.8-2-2.4-3.9-2.4-6.3-.4-15.7 0-31.8 0-48.3h16.5c-1.2 18.4-2.4 36.1-3.5 54.2l-.4-.8-.8.8zm-62.4-134.2v-53.4c4.7-.4 8.6-.4 13.7-.8v54.2h-13.7z"/>
    <path class="color-gold color-reserved-white" fill="#e0a921" d="M347.2 303.4v-5.9 5.9zm18.9-89.4l-.4.4-.4-.4h.8zM257.7 403.5l.4-.8.8.8-.4.4-.8-.4zm84.8 0l.4-.4.4.4h-.8zm-15.3-16.8h.8-.8zm-13.7 16.8v.4-.4zm76.1-107.1h-.8.8z"/>
    <path class="color-black" fill="#0d0f33" d="M322.1 241c0-7.5 4.3-14.1 10.2-14.5 6.7-.4 10.6 4.7 11 13.3.4 9.4-3.9 15.7-10.6 15.3-5.1.1-10.2-6.6-10.6-14.1zm108.7-16.4c8.2 1.2 12.2 4.3 11 11.4-1.2 5.9-5.5 6.7-11 5.5v-16.9zm-195.1 87.1c-.4 3.1-.4 6.7-1.2 9.8 0 .4-2.4.4-3.5.4-.4-3.5-.4-7.1-.8-10.2 2-.4 4-.4 5.5 0zm-50.2-2.4v-16.5c7.5 0 14.9-.8 14.9 8.6-.4 9.9-7.8 8.7-14.9 7.9z"/>
    <circle fill="none" stroke="#010b3a" stroke-miterlimit="10" stroke-width="4" cx="306.4" cy="306.2" r="274.8"/>
</svg>
