<svg xmlns="http://www.w3.org/2000/svg" width="191.91" height="97.92" viewBox="0 0 50.776 25.908">
    <path class="SLSF_svg__SLSF_svg__SLSF_svg__SLSF_svg__color-main SLSF_svg__SLSF_svg__SLSF_svg__SLSF_svg__color-red" fill="#c8242c" d="M24.631 23.909c0-.033-.029-.06-.064-.06-.036 0-.26-.134-.496-.298-.237-.164-.46-.297-.494-.297-.035 0-.098-.043-.14-.094-.044-.052-.215-.163-.38-.246a4.714 4.714 0 01-.479-.277c-.097-.069-.472-.255-.834-.415-2.68-1.183-4.907-1.666-7.686-1.666-2.36 0-4.296.35-6.534 1.183-1.3.484-2.844 1.281-3.7 1.911-.193.142-.373.259-.4.259-.049 0-1.633-1.938-1.788-2.186-.076-.122-.046-.184.41-.849 1.096-1.596 1.882-3.707 2.185-5.866.481-3.428-.319-7.012-2.18-9.768a72.655 72.655 0 00-.618-.905c-.038-.05-.026-.142.037-.273.124-.256 1.754-2.038 1.885-2.06.056-.009.401.17.768.4 2.169 1.355 4.83 2.305 7.438 2.656.358.048 1.147.105 1.753.126 3.946.137 7.652-.918 10.846-3.086.282-.19.54-.347.573-.347.034 0 .3.168.59.374 1.603 1.132 3.505 1.963 5.905 2.579 1.315.337 2.04.407 4.274.41 1.8.002 2.03-.01 2.725-.135 2.953-.534 5.482-1.565 7.566-3.085.287-.21.542-.381.567-.381.105 0 2.255 2.264 2.388 2.516.077.146.067.174-.19.502-.604.768-1.515 2.49-1.903 3.593a16.51 16.51 0 00-.68 2.83c-.144 1.002-.143 3.14.002 4.078.313 2.025 1.105 4.114 2.176 5.736.233.353.423.678.423.723 0 .073-1.53 1.743-2.046 2.235l-.215.204-.612-.377c-2.201-1.357-3.98-2.102-6.18-2.586-1.208-.266-1.734-.338-2.875-.393-2.554-.124-4.72.15-6.891.872-1.67.555-2.836 1.13-4.493 2.215-.458.3-.633.368-.633.248zm2.108-6.267c.452-.124.508-.158.87-.527.771-.786 1.003-1.468.933-2.737-.06-1.072-.244-1.5-.863-2.003a4.72 4.72 0 00-1.47-.799c-.696-.226-1.101-.583-1.101-.97 0-.19.325-.576.485-.576.28 0 .825.472.825.715 0 .182.353.247 1.221.227l.775-.018-.018-.268c-.027-.41-.241-1.188-.416-1.51-.2-.368-.692-.817-1.13-1.032-.322-.159-.388-.169-1.117-.169-.719 0-.799.011-1.121.163-.447.21-1.123.858-1.325 1.27-.332.679-.334 2.193-.004 2.914.175.382.59.847.985 1.1.155.099.564.299.91.443 1.166.49 1.36.632 1.36 1.004 0 .268-.132.552-.295.64-.166.088-.519.075-.718-.028-.204-.106-.436-.395-.565-.704l-.092-.22h-1.964v.253c.005 1.225 1.016 2.66 2.048 2.907.408.098 1.29.06 1.787-.075zm6.468.009c.415-.189.87-.571 1.111-.935.437-.658.855-1.89.856-2.522v-.274l-.61-.034c-.579-.033-1.074.005-1.216.093-.035.022-.079.133-.098.247a3.01 3.01 0 01-.22.597c-.22.462-.418.597-.809.553-.736-.083-1.059-.819-1.063-2.427-.004-1.36.193-2.203.596-2.557.265-.233.561-.245.869-.036.333.227.493.55.67 1.357l.037.164h1.844v-.204c0-.77-.686-2.64-1.142-3.111-.246-.256-.793-.49-1.38-.593-.77-.135-1.288-.01-1.97.477-1.216.868-1.718 2.379-1.624 4.89.042 1.128.107 1.515.355 2.115.423 1.023.986 1.722 1.638 2.033.55.263.626.28 1.294.284.477.003.649-.02.862-.117zm6.937-.074c.743-.344 1.565-1.385 1.949-2.47.152-.432.214-1.568.16-2.932-.048-1.195-.153-1.722-.475-2.377-.311-.634-1.028-1.41-1.533-1.658-.316-.155-.381-.164-1.11-.161-.735.004-.794.013-1.161.184-1.486.696-2.4 2.987-2.145 5.382.229 2.165 1.09 3.61 2.451 4.113.487.18 1.383.141 1.864-.081zM9.621 16.74c0-.47.017-1.22.039-1.666l.039-.813 1.048-.016 1.048-.016v-2.085l-1.087-.016-1.087-.016v-1.588l.58-.038c.32-.021.949-.039 1.398-.039h.816l.018-1.102.017-1.102H7.53l.037 4.512c.02 2.481.049 4.57.063 4.642.032.157.14.173 1.232.187l.76.011zm12.449-3.82V8.244h-2.096l.024 4.542c.014 2.498.045 4.587.07 4.643.052.112.26.136 1.362.155l.64.011zm-6.909 3.052c0-.86.025-1.601.054-1.647.042-.066.16-.076.563-.048.281.02.568.067.637.104.19.102.339.507.381 1.04.097 1.219.165 1.846.214 1.975.053.138.063.14.971.14 1.109 0 1.096.007.993-.58-.038-.221-.105-.941-.148-1.6-.055-.827-.107-1.25-.17-1.37-.106-.203-.425-.554-.634-.697l-.147-.1.242-.254c.133-.14.299-.338.369-.44.42-.616.402-2.426-.035-3.298-.191-.384-.532-.665-.985-.813-.261-.086-.634-.106-2.353-.126l-2.043-.024.018 4.577c.01 2.517.04 4.61.066 4.65.035.055.31.075 1.027.075h.98v-1.564z"/>
    <path class="SLSF_svg__SLSF_svg__SLSF_svg__SLSF_svg__color-main SLSF_svg__SLSF_svg__SLSF_svg__SLSF_svg__color-red" fill="#c8242c" d="M38.75 15.346c-.244-.122-.488-.462-.632-.878-.15-.433-.19-2.388-.063-2.995.114-.54.363-1.01.627-1.188.263-.176.592-.178.812-.005.21.164.547.888.657 1.408.112.528.11 1.94-.003 2.474-.107.506-.372.992-.602 1.104l-.276.134c-.156.075-.292.061-.52-.054zm-23.64-3.923c.025-1.065.024-1.064.724-1.013.256.019.535.068.62.11.504.247.581 1.122.132 1.5-.178.15-.325.182-1.089.24l-.407.03z"/>
    <path d="M45.969 25.457c-2.248-1.713-5.063-2.849-8.092-3.265-1.021-.14-3.19-.14-4.207 0-2.894.4-5.789 1.558-8.063 3.227-.275.202-.544.368-.598.368-.053 0-.2-.08-.328-.179-1.253-.968-3.097-1.96-4.704-2.53-4.077-1.446-8.222-1.341-12.283.311-1.13.46-2.594 1.26-3.192 1.746-.147.12-.424.321-.616.448l-.349.232-.354-.385c-.77-.835-3.008-3.528-3.008-3.62 0-.022.156-.227.348-.455.928-1.109 2.074-3.437 2.493-5.07.29-1.127.385-1.904.383-3.154 0-1.27-.114-2.083-.467-3.372C2.5 8.182 1.374 6.054.342 4.861c-.49-.565-.526-.423.373-1.43.339-.378.759-.858.934-1.066C2.199 1.709 3.56.237 3.618.237c.03 0 .3.183.602.406a20.2 20.2 0 002.56 1.563c2.603 1.307 5.734 1.927 8.66 1.714a17.472 17.472 0 007.175-2.171c.728-.414 1.482-.901 1.645-1.064.051-.05.12-.092.154-.092s.153-.08.265-.179c.167-.146.228-.169.343-.124.076.03.556.333 1.065.674a18.286 18.286 0 005.64 2.507c2.02.514 4.51.61 6.683.261 2.697-.433 5.398-1.62 7.715-3.386.25-.19.48-.346.513-.346.067 0 3.947 3.982 4.086 4.193.102.153.115.13-.538.882-1.169 1.346-2.02 3.041-2.532 5.044-.2.783-.24 1.046-.297 2.015-.095 1.58-.012 2.628.302 3.838.353 1.358.787 2.426 1.383 3.404.407.667 1.053 1.544 1.397 1.895.244.25.248.26.154.403-.1.154-1.997 2.158-3.29 3.477l-.742.757zm1.468-.93c1.427-1.528 2.469-2.681 2.538-2.811.081-.152.083-.15-.676-1.267-1.43-2.106-2.174-4.393-2.273-6.993-.113-2.944.849-5.857 2.784-8.433.288-.384.516-.724.505-.756-.033-.1-3.5-3.674-3.563-3.674-.033 0-.374.227-.758.504-2.463 1.78-5.204 2.857-8.286 3.255-1.428.184-3.759.098-5.261-.195-2.054-.4-4.56-1.445-6.542-2.73L24.99.833l-.24.138c-.132.076-.6.37-1.04.652a18.85 18.85 0 01-5.454 2.37c-3.475.892-7.802.499-11.115-1.01-1.312-.598-1.962-.965-3.352-1.894-.116-.077-.24-.14-.277-.14-.037 0-.464.446-.949.993C1.004 3.695.59 4.202.59 4.352c0 .087.149.32.385.605.212.255.385.481.385.503 0 .023.165.303.366.623.962 1.53 1.71 3.561 1.949 5.299.086.627.086 2.635 0 3.35-.182 1.501-.513 2.614-1.216 4.09-.4.837-1.17 2.135-1.563 2.632-.136.172-.247.335-.247.362 0 .028.127.208.282.4.367.458 2.577 2.919 2.62 2.918.018 0 .392-.242.833-.536 1.889-1.262 4.236-2.237 6.483-2.692 1.369-.277 2.32-.352 3.95-.31 1.9.048 3.13.26 4.89.84 1.665.55 2.748 1.078 4.459 2.176.398.255.787.489.866.519.123.046.266-.028 1.057-.55 2.74-1.806 5.805-2.843 8.883-3.004 3.685-.194 7.465.89 10.687 3.064.496.335.947.61 1 .61.055.001.404-.325.778-.724z"/>
</svg>
