<svg xmlns="http://www.w3.org/2000/svg" width="216" height="215.871" viewBox="0 0 216 215.871">
  <path class="color-orange" fill="#f8b131" d="m169.665 100.373-6.851-.905.129-.647-3.49-.258v-5.56l12.54-4.524-30.51 3.361 6.076-3.62 19.004-11.634-28.441 8.403 20.684-19.65-26.373 14.35 16.677-24.305-22.753 19.392 11.506-27.795-17.71 23.011 5.558-29.346-12.023 25.08-.775-29.216-6.206 25.855-6.464-27.148-.775 27.924L88.09 39.095l5.3 28.829-16.935-22.107 11.377 27.666-22.107-18.875L82.791 79.3 56.548 65.08l21.33 20.296-28.829-8.532 15.772 9.696 9.955 5.042-19.91-1.293-10.988-.776 10.989 3.879v4.266l-1.94.258.518 2.457z"/>
  <path class="color-main color-blue" fill="#025aaa" d="M21.125 92.487h175.3v32.578h-175.3zm86.746 112.6c44.083 0 79.893-35.81 79.893-79.893H28.106c0 44.084 35.681 79.893 79.765 79.893z"/>
  <path class="color-orange color-stroke-white" fill="#f8b131" stroke="#fff" stroke-miterlimit="10" stroke-width=".841" d="M108.646 60.038c-17.452 0-31.673 14.22-31.673 31.673h63.346c0-17.452-14.09-31.673-31.673-31.673z"/>
  <path class="color-stroke-white" fill="none" stroke="#fff" stroke-miterlimit="10" stroke-width="1.833" d="M80.593 176.646 92.1 125.194m42.274 51.065-11.377-51.065"/>
  <path class="color-white" fill="#fff" d="M52.798 176.646h107.56v9.308H52.797zm28.442-48.479-1.681 4.525h55.977l-1.422-4.525zm-2.198 5.947-2.198 5.818h61.148l-1.939-5.818zm-2.974 7.627-2.585 6.981h67.353l-2.326-6.98zm-3.749 9.955-3.102 8.015h75.24l-2.716-8.015zm-4.783 12.669-3.62 9.179h85.065l-3.103-9.179z"/>
  <path class="color-main color-blue" fill="#025aaa" d="M108 7.163C52.281 7.163 7.163 52.281 7.163 108S52.281 208.837 108 208.837 208.837 163.719 208.837 108 163.589 7.163 108 7.163zm0 174.654c-40.852 0-73.947-33.095-73.947-73.946 0-40.852 33.095-73.947 73.947-73.947 40.852 0 73.947 33.095 73.947 73.947 0 40.851-33.225 73.946-73.947 73.946z"/>
  <path class="color-white" fill="#fff" d="M108 209.87c-56.236 0-102-45.764-102-102C6 51.636 51.764 6 108 6s102 45.764 102 102-45.894 101.87-102 101.87zm0-201.543C53.057 8.327 8.327 53.057 8.327 108c0 54.943 44.73 99.544 99.544 99.544 54.943 0 99.543-44.73 99.543-99.544.13-54.943-44.6-99.673-99.414-99.673zm0 174.654c-41.498 0-75.11-33.612-75.11-75.11S66.502 32.89 108 32.89s75.11 33.74 75.11 75.11-33.74 74.981-75.11 74.981zm0-147.764c-40.076 0-72.654 32.578-72.654 72.654 0 40.076 32.578 72.654 72.654 72.654 40.076 0 72.654-32.578 72.654-72.654 0-40.076-32.578-72.654-72.654-72.654z"/>
  <path class="color-white" fill="#fff" d="M42.715 43.878c-1.034.517-1.81 1.035-2.198 1.68-.388.389-.646.777-.646 1.164-.13.388 0 .776.388 1.035.258.258.646.387 1.034.387s.775-.129 1.163-.387c.388-.259 1.034-.517 1.81-.905 1.164-.647 2.069-1.164 2.844-1.552.776-.387 1.68-.517 2.586-.387.905.129 1.81.517 2.715 1.292.905.776 1.422 1.68 1.551 2.715.13 1.034.13 2.069-.388 3.232-.388 1.034-1.163 2.198-2.068 3.103a15.598 15.598 0 0 1-3.62 2.715c-1.422.775-2.715 1.163-4.137 1.292l-1.422-3.878c1.163-.13 2.456-.517 3.62-1.034 1.163-.517 2.197-1.164 2.844-1.94a3.65 3.65 0 0 0 .905-1.421c.13-.518 0-.905-.388-1.164-.259-.258-.646-.388-1.034-.388s-.776.13-1.293.388c-.388.259-1.034.517-1.68 1.034-1.035.647-2.07 1.164-2.845 1.552-.775.387-1.68.517-2.585.387-.905 0-1.81-.517-2.715-1.292a6.03 6.03 0 0 1-1.551-2.586c-.259-1.034-.13-2.068.258-3.103.388-1.163 1.034-2.197 2.069-3.231.905-.905 1.939-1.81 2.973-2.457 1.163-.646 2.198-1.163 3.361-1.422l1.551 3.879c-1.163.387-2.197.775-3.102 1.292zm16.03-16.806c1.68-.129 3.232.13 4.784.776 1.55.646 2.714 1.68 3.749 3.232 1.034 1.422 1.55 2.973 1.68 4.654.13 1.68-.258 3.232-1.034 4.783a9.43 9.43 0 0 1-3.361 3.75c-1.552 1.033-3.103 1.68-4.784 1.809-1.68.13-3.231-.13-4.783-.776-1.551-.646-2.715-1.81-3.749-3.232-1.034-1.422-1.551-2.973-1.551-4.654-.13-1.68.258-3.231 1.034-4.654.776-1.55 1.94-2.714 3.361-3.749 1.422-1.163 2.974-1.81 4.654-1.939zm-4.137 6.981c-.387.776-.517 1.68-.387 2.586.129.905.387 1.81.904 2.585a5.534 5.534 0 0 0 2.069 1.81c.776.388 1.68.647 2.585.517.905 0 1.681-.258 2.457-.775.775-.517 1.293-1.164 1.68-1.94.388-.775.517-1.68.388-2.585-.13-.905-.388-1.81-1.034-2.586a5.534 5.534 0 0 0-2.068-1.81c-.776-.387-1.681-.646-2.586-.646s-1.68.259-2.456.776c-.647.646-1.164 1.293-1.552 2.068zm22.365-2.327c.905.388 1.81.388 2.715 0 .905-.388 1.552-.905 1.94-1.81.387-.905.258-1.81-.13-2.844l-3.749-9.825 4.395-1.68 3.75 9.825c.517 1.422.775 2.844.517 4.137-.259 1.292-.776 2.456-1.681 3.49-.905 1.034-2.198 1.81-3.62 2.456-1.551.517-2.973.776-4.395.647-1.422-.13-2.586-.647-3.62-1.552-1.034-.905-1.81-2.068-2.456-3.49l-3.75-9.825 4.396-1.68 3.75 9.824c.387 1.164 1.033 1.94 1.938 2.327zm9.567-17.194 15.255-2.327.517 3.879-5.3.775 2.068 13.962-4.654.647-2.069-13.962-5.17.775zm20.038-2.715 4.654.259-.517 7.24 7.24.517.516-7.24 4.654.259-1.034 17.97-4.654-.26.388-6.851-7.24-.517-.387 6.852-4.654-.259zm22.624 2.457 13.574 3.749-1.035 3.62-9.178-2.586-.905 3.232 8.274 2.327-1.035 3.62-8.273-2.327-.905 3.232 9.308 2.585-1.035 3.62-13.832-3.878zm20.425 27.277.13-5.559h-.13l-2.973-1.68-2.456 4.395-4.137-2.327 8.661-15.642 7.11 3.878c2.07 1.163 3.362 2.456 4.008 4.137.647 1.551.388 3.232-.517 5.042-.646 1.163-1.422 2.068-2.456 2.715-.905.646-2.069.904-3.232.904l.388 6.981zm-1.163-10.6 2.973 1.68c.776.517 1.552.647 2.327.388.647-.13 1.293-.646 1.68-1.422.389-.776.518-1.422.26-2.198-.26-.646-.776-1.163-1.552-1.68l-2.973-1.681zM176.646 40l3.232 2.973-12.152 13.187-2.973-2.715L165.916 40l-7.24 7.886-3.231-2.973 12.023-13.316 3.102 2.715-1.292 13.445zM75.681 181.947c.646 1.551.517 3.232-.388 5.042-.905 1.939-2.198 3.102-3.879 3.62-1.68.516-3.49.258-5.558-.776l-2.845-1.422-2.197 4.395-4.137-2.068 8.015-16.03 7.11 3.49c1.81.905 3.232 2.197 3.879 3.749zm-6.076 4.654c.646-.13 1.163-.647 1.68-1.552.388-.775.517-1.55.259-2.197-.259-.647-.776-1.164-1.68-1.68l-2.716-1.294-2.456 4.913 2.715 1.293c.776.517 1.551.646 2.198.517zm16.16 15.255-.389-3.362-7.498-2.068-2.068 2.715-4.654-1.293 12.152-15.255 4.654 1.293 2.586 19.262zm-5.56-8.404 4.784 1.293-.647-6.851zm25.597-2.973c-.775-.517-1.551-.776-2.327-.776-.905 0-1.68.13-2.456.518a4.084 4.084 0 0 0-1.81 1.81 4.661 4.661 0 0 0-.776 2.585c0 1.034.13 1.81.518 2.715.387.775.905 1.422 1.68 1.939.776.517 1.552.776 2.456.776a7.32 7.32 0 0 0 2.327-.388c.776-.388 1.552-.776 2.198-1.422l2.586 3.102c-1.035 1.035-2.198 1.681-3.62 2.198-1.422.517-2.715.776-4.008.647-1.81-.13-3.36-.647-4.783-1.423-1.422-.904-2.456-2.068-3.232-3.49-.776-1.422-1.034-3.103-1.034-4.783a9.965 9.965 0 0 1 1.551-4.654c.905-1.293 2.069-2.327 3.62-3.103 1.551-.776 3.103-1.034 4.913-.905 1.292.13 2.585.388 3.878 1.034 1.293.647 2.327 1.422 3.232 2.457l-2.844 3.102c-.647-.905-1.293-1.422-2.069-1.939zm6.076-4.525 4.654-.387 1.68 17.84-4.653.388zm7.24-.646 13.057-3.103.905 3.62-8.532 2.069.904 3.878 7.757-1.81.905 3.62-7.757 1.81 1.552 6.334-4.525 1.034zm14.091-3.878 4.396-1.68 6.463 16.676-4.395 1.68zm18.358-4.137c-.905 0-1.681.258-2.327.646-.776.517-1.423 1.034-1.81 1.81-.388.776-.647 1.551-.647 2.456s.259 1.81.776 2.586c.517.776 1.163 1.551 1.94 1.939.775.517 1.55.776 2.455.776s1.681-.259 2.457-.647c.646-.388 1.163-.905 1.68-1.68.517-.776.905-1.552 1.034-2.457l3.879 1.164c-.388 1.422-.905 2.715-1.81 3.878-.905 1.164-1.81 2.069-2.973 2.715a9.187 9.187 0 0 1-4.784 1.293c-1.68 0-3.232-.388-4.654-1.164-1.422-.775-2.585-1.939-3.49-3.49-.905-1.551-1.293-3.103-1.293-4.654 0-1.68.517-3.103 1.293-4.525a10.419 10.419 0 0 1 3.62-3.49c1.163-.647 2.456-1.035 3.878-1.293 1.422-.13 2.715-.13 4.007.258l-.775 4.137a13.023 13.023 0 0 0-2.456-.258zM62.107 97.27h6.205v18.487h10.083v5.3H62.106zm19.133 0h6.205v23.787H81.24zm27.019 0h5.817v23.787h-5.43l-10.73-14.22v14.22H92.1V97.27h5.43l10.859 14.35zm10.471 0h18.745v4.913h-12.54v4.395h11.377v4.912h-11.377v4.525h12.928v4.913H118.73zm35.164 5.43c-1.423-.517-2.586-.776-3.62-.776-.776 0-1.422.13-1.81.388-.388.258-.647.646-.647 1.293 0 .517.13.905.518 1.292.387.388.905.647 1.422.905.517.259 1.422.517 2.456.776 1.68.517 2.973.905 4.137 1.422 1.034.517 1.939 1.163 2.715 2.198.775 1.034 1.163 2.327 1.163 3.878 0 1.551-.388 2.973-1.293 4.008-.905 1.034-1.939 1.939-3.49 2.585-1.422.517-3.103.905-4.913.905-1.939 0-3.878-.388-5.946-1.034-1.94-.646-3.62-1.68-5.042-2.844l2.456-4.783a13.927 13.927 0 0 0 4.266 2.585c1.68.646 3.103 1.034 4.396 1.034.905 0 1.68-.129 2.197-.517.517-.388.776-.775.776-1.551 0-.517-.259-1.034-.646-1.293-.388-.388-.905-.646-1.552-.905-.646-.258-1.422-.517-2.585-.776a17.72 17.72 0 0 1-4.008-1.422c-1.034-.517-1.94-1.163-2.715-2.068-.775-.905-1.163-2.198-1.163-3.749a6.84 6.84 0 0 1 1.163-3.878c.776-1.164 1.94-1.94 3.362-2.586 1.422-.646 3.102-.905 5.041-.905 1.68 0 3.362.259 5.042.776a19.615 19.615 0 0 1 4.396 1.939l-2.327 4.913c-.905-.776-2.327-1.423-3.75-1.81z"/>
</svg>
