<svg xmlns="http://www.w3.org/2000/svg" viewBox="0 0 144 144">
    <circle class="color-blue color-main" fill="#225696" cx="72" cy="72" r="70.2"/>
    <circle class="color-white" fill="#fff" cx="72" cy="72" r="51"/>
    <path class="color-black" d="M71.92 19.16h.56c11.6 0 22.24 3.84 31.92 11.44 4 3.52 6.88 6.48 8.72 9.12 7.12 9.84 10.72 20.4 10.72 31.68v1.28c0 11.76-3.84 22.64-11.52 32.72-3.2 3.84-6.24 6.8-8.96 8.8-6.48 4.88-13.44 8.16-20.8 9.68-3.52.64-6.72.96-9.76.96h-1.6c-10.48 0-20.48-3.44-30.08-10.24-1.84-1.36-4.08-3.36-6.64-6-4.88-5.52-8.4-11.04-10.48-16.56-2.56-6.48-3.84-12.96-3.84-19.12v-1.6c0-10.32 3.04-20.16 9.28-29.6 1.52-2.24 3.84-4.96 7.12-8.16 3.92-3.6 7.2-6.08 10-7.52 8.16-4.56 16.48-6.88 25.36-6.88zm-47.36 52.8c.08 2.08.16 3.92.4 5.68 44 .16 75.52.16 94.48.16.24-1.6.4-3.36.4-5.2v-1.2c0-9.84-2.96-19.12-9.04-28-1.2-1.76-3.36-4.32-6.48-7.52-9.52-8.4-20.24-12.56-31.92-12.56h-.32c-11.76 0-22.32 4.16-31.68 12.48-3.28 3.2-5.28 5.44-6.08 6.64-6.56 8.88-9.76 18.72-9.76 29.52zm1.04 9.92c.64 2.88 1.44 5.6 2.32 8 1.36 3.6 3.2 6.96 5.36 10.24 1.28 2 3.6 4.56 6.8 7.84 2 1.76 3.12 2.72 3.36 2.72h57.6c3.28-2.56 6.4-5.6 9.2-9.36 2.24-3.2 3.84-6 4.8-8.24 1.2-2.24 2.48-5.92 3.68-11.04zm17.2 2h13.36c1.6 0 3.04.8 4.4 2.32.64.8.88 1.68.88 2.72V89c0 2.24-.96 3.92-2.88 4.96 1.12 0 2.56.64 4.24 1.92 1.28 1.28 1.92 2.8 1.92 4.64v.56c0 2.64-1.68 4.64-5.04 6.32-1.12.4-2.16.56-2.88.56H42.88c-.08 0-.16-.08-.16-.16v-.64c0-.08.4-.16 1.04-.32.72-.56 1.04-1.2 1.04-2V87.8c0-1.36-.56-2.4-1.6-2.88-.32-.08-.48-.24-.48-.32v-.64c-.08-.08-.08-.08.08-.08zm5.76 30.16c7.52 4.4 15.44 6.48 23.68 6.48 8.16 0 16.08-2.16 23.76-6.4v-.08zm1.52-27.68v6.96h1.68c2.24 0 3.52-.88 4.08-2.56.08-.24.08-.48.08-.64v-.4c0-1.44-.8-2.56-2.4-3.28-.48-.08-.8-.16-1.04-.16 0 .08-2.4.08-2.4.08zm0 9.68v8.48h4.56c1.84 0 3.12-1.12 3.92-3.36l.08-.96c0-1.92-1.04-3.2-3.2-4.08-.48-.08-1.04-.16-1.76-.16zm20.96-22.4h2.4c6.16 0 12.8.96 20.08 3.04v.16H51.6v-.16c6.8-2 13.2-3.04 19.44-3.04zm1.28-11.36c6.08 0 11.92 1.12 17.6 3.44.24 0 .4.4.64 1.04.24.08.56.32.96.8v.48c0 .16-.24.56-.72 1.04 0 .08-.08.24-.24.32-.88-.88-2.64-1.76-5.12-2.56-4.56-1.2-8.48-1.84-12.08-1.84H71.6c-5.68 0-10.96 1.04-15.92 3.28l-1.28.96c-.48-.72-.72-1.12-.72-1.28v-.32c0-.16.24-.48.64-1.04 0-.24.24-.64.8-1.12 5.6-2.08 11.28-3.2 17.2-3.2zm-16.16 6.4v5.76c0 .08-.4.16-1.2.4l-.08-.16V69.8c.56-.72 1.04-1.12 1.28-1.12zm15.28-16.56h1.6c4.08 0 8.16.88 12.16 2.72.08.16.16.32.16.56h.4l.48.56c.24 0 .4.24.48.72.24.08.64.72 1.04 1.76.48.4.72.72.72 1.04v.32c0 .56-.24.88-.72 1.36-.32-.88-.8-1.44-1.44-1.76-4.48-2.16-9.04-3.2-13.36-3.2h-1.44c-4.64 0-9.2 1.12-13.6 3.44-.4.32-.64.8-.8 1.44-.48-.48-.72-.96-.72-1.52s.32-1.04.88-1.52c0-.72.24-1.2.8-1.6 0-.4.16-.64.48-.8.08-.24.4-.4.88-.64 0-.48 2.4-1.28 7.04-2.32 1.6-.32 3.28-.56 4.96-.56zM59.28 67.48l.08 6.16c0 .24-.72.4-2.16.64v-6c.08-.24.8-.56 2.08-.8zm-1.2-7.12h.16v2.4l.08.88c-.16.08-.48.24-.88.32l-.08-.16v-1.76c0-.32.24-.88.72-1.68zM60.96 59l.08.16v3.68c0 .08-.64.24-1.84.56-.08-.24-.16-.48-.16-.88v-2.48c0-.16.64-.48 1.92-1.04zm3.76-13.44c-1.6 1.84-2.8 4.48-3.6 7.84-.16 0-.56.16-1.2.48h-.08c.72-2.4 1.44-4.24 2.24-5.52 1.12-1.6 1.92-2.56 2.64-2.8zm-1.68 20.88s.08.08 0 0V73c0 .16-.88.4-2.64.64l-.08-.16v-6.24c.16-.16 1.12-.48 2.72-.8zm4.4-21.92c-1.52 1.68-2.64 4.16-3.2 7.28-.08.64-.32.88-.88.88l-1.36.4-.08-.08c0-.56.56-2.16 1.68-4.72 1.36-2.16 2.56-3.36 3.84-3.76zm-2.72 13.2l.08.16c.08 2.08.08 3.44.08 4.24-1.2.24-2.24.48-2.8.64v-4.08c0-.08.88-.4 2.48-.88zm2.64 8.08l.08.16v6.56c0 .08-.08.08-.24.16-.56 0-1.44.08-2.88.32l-.08-.16v-6.4c-.08-.24 1.04-.4 3.12-.64zm2.16-22.08l.08.16c-1.04 2.72-1.68 4.88-1.76 6.32-.16 1.04-.32 1.6-.4 1.6l-2.72.4c0-.08 0-.08-.08-.08.48-1.92 1.04-3.52 1.6-4.88 1.04-2.16 1.76-3.2 2.16-3.2.24-.08.64-.16 1.12-.32zM69.28 57l.08.16v4.4c0 .16-.88.32-2.72.48H66c-.08-1.6-.08-2.72-.08-3.52v-.88c0-.16 1.12-.4 3.36-.64zm2.88-21.84h.72c1.44.16 2.16.56 2.16 1.04v4.56c.48 0 .72.4.72 1.04.88.32 1.36.56 1.44.72v.64l.64.64v.24c0 .08-.08.08-.16.08-1.76-.72-3.52-1.04-5.2-1.04-1.68 0-3.44.4-5.2 1.04l-.08-.08v-.24c.4-.32.64-.56.64-.88 0-.48.48-.8 1.28-1.04 0-.72.24-1.04.64-1.04l.08-.16c0-3.2.16-4.8.48-4.8.24-.56.96-.72 1.84-.72zm1.68 52.48c2.4 0 4.08.96 5.2 2.88.08.48.16.88.24 1.28 0 1.68-.8 2.88-2.24 3.76 1.36 1.44 2.32 2.96 2.8 4.56h.08c.72-.64 1.12-.88 1.44-.88h.08l.8 2.16c-.24 0-.8.56-1.6 1.6.4 1.44.88 2.16 1.76 2.16h.16l.88-.08c.32.88.48 1.52.48 1.6-.64.72-1.44 1.04-2.4 1.04h-.16c-.88 0-1.68-.72-2.48-2.08-1.52 1.52-3.2 2.24-5.04 2.24-2.56 0-4.56-1.2-5.92-3.68-.4-.88-.64-1.68-.64-2.64v-.32c0-2.48 1.28-4.4 3.84-5.68.32-.08.48-.24.48-.32-1.52-.56-2.32-1.68-2.32-3.52s.88-3.12 2.72-3.92c.56-.08 1.2-.16 1.84-.16zM71.6 43.56h.24l.08.08c-.08.8-.08 2.4-.16 4.88.08 1.36.08 2.32.08 2.72-.32.08-1.44.24-3.36.32l-.08-.16c0-2.48.72-5.04 2-7.92.56.08.96.08 1.2.08zm-.24 22c.16.08.24.08.24.16v6.72c0 .08-.08.16-.16.16h-.56c-.56 0-1.2 0-2.24.08 0-.08 0-.08-.08-.08-.08-2.08-.08-3.52-.08-4.56V65.8c0-.16.88-.24 2.88-.24zm.88-33.44h.56c.4 0 .56.16.56.4 0 .24.16.56.56.8 0 .56.48.96 1.44 1.44.48.24.72.48.72.8v.08c0 .4-.08.56-.24.56h-.24c-.08-.8-1.04-1.2-2.8-1.36H72c-1.36 0-2.4.48-2.8 1.36-.24-.08-.32-.24-.32-.64v-.08c0-.64.48-.96 1.36-1.2.24 0 .64-.48 1.36-1.44v-.64c-.16 0 .08-.08.64-.08zm-2.16 4.64v2.72h.48v-2.72zm.96 20.08h2.16c.56 0 .8.08.8.24v.32c0 .88 0 2.32-.08 4.16l-.16.08h-2.88c-.08 0-.16-.08-.16-.16v-4.4c0-.16.08-.24.32-.24zm1.44-31.12c.4 0 .64.8.64 2.4.08 0 .08.16.08.56v.72c0 .08-.08.4-.24.96v.24c0 .08.24.48.64 1.04v.08h-2.24c-.08 0-.16-.08-.16-.16l.8-.96c-.24-.48-.32-.88-.32-1.36v-.48c0-.4.16-.72.48-1.12-.16-.72-.24-1.04-.24-1.12-.08-.56.16-.8.56-.8zM71.2 36.04v3.04h.48v-3.04zm0 65.04c0 1.36.88 2.4 2.72 3.12.24 0 .56 0 .8.08 1.12 0 2.16-.64 2.88-1.92-.32-1.44-1.2-2.96-2.8-4.72-.24-.24-.48-.4-.56-.4-2 .96-3.04 2.16-3.04 3.84zm1.6-57.52c.96 0 1.52.16 1.52.48.56 1.2.96 2.88 1.36 4.88.24 1.36.32 2.32.32 2.72h-.08c-1.68-.08-2.72-.24-3.04-.32l.08-.88v-1.76c0-1.76-.08-3.52-.32-5.04.08-.08.16-.08.16-.08zm0-7.6V39l.48.08v-2.96c-.24 0-.32 0-.48-.16zm0 56.24c.32 1.12.96 1.68 2.16 1.68h.16c1.44-.24 2.16-.8 2.16-1.68v-.08c0-.88-.64-1.36-1.84-1.6h-.56c-1.36.16-2.08.64-2.08 1.68zm.24-26.64c2.32.08 3.44.24 3.44.4v6.56c0 .08-.08.16-.16.16-1.2-.08-2.32-.08-3.12-.08h-.16c-.08 0-.16-.08-.16-.16v-6.72zM74 36.6c-.08 1.12-.08 2.08-.08 2.72v.16h.48v-2.8zm1.12 7.28c.88 0 1.6.64 2.16 1.76.72.88 1.36 2.4 1.92 4.4.24 1.2.4 1.92.4 2.08l-.16.08c-1.44-.24-2.32-.48-2.64-.56 0-1.92-.48-4.48-1.68-7.76zM75.36 57c2.08.24 3.12.48 3.12.64v4.24l-.08.16c-1.28-.24-2.32-.32-3.04-.32l-.08-.16v-4.4zm2.32-12.08c2 1.6 3.2 3.04 3.76 4.4.8 1.76 1.2 2.96 1.2 3.76-.08 0-.08 0-.08.08-1.36-.4-2.08-.56-2.08-.72 0-1.36-.64-3.28-1.76-5.92zm.16 20.96c1.92.24 2.88.48 2.88.56v6.4l-.08.16c-1.92-.24-2.88-.32-2.88-.4v-6.56zm2-8.16c1.76.48 2.64.8 2.64.88v3.84l-.08.16c-.56-.16-1.44-.4-2.72-.64V57.8s.08-.08.16-.08zm.4-11.6c2 1.2 3.44 3.52 4.48 6.88.08.4.16.72.16.88h-.08c-.96-.32-1.52-.64-1.52-.88-.56-2.48-1.28-4.56-2.48-6.24-.16 0-.32-.16-.56-.64zm1.84 20.56c1.6.4 2.48.56 2.48.72v6.16l-.08.08c-.08-.08-.88-.24-2.48-.48l-.08-.16v-6.16zm1.6-7.68c1.2.56 1.92.88 1.92.96v3.2l-.08.16c-1.28-.32-1.92-.48-1.92-.64v-3.6s0-.08.08-.08zm11.84 24.8c4 0 7.2 2 9.68 6.08.88 1.92 1.44 3.84 1.44 5.68v.4c0 3.92-1.52 7.12-4.56 9.68-1.92 1.44-4.16 2.16-6.56 2.16-3.92 0-7.04-2-9.6-6.08-.88-1.92-1.44-3.92-1.44-5.84 0-3.76 1.52-6.96 4.64-9.68 2.08-1.6 4.16-2.4 6.4-2.4zm-9.76-16.32c1.44.48 2.16.72 2.16.88v5.6c0 .08-.08.16-.16.16-1.36-.24-2.08-.48-2.08-.56v-5.92zm.8-7.12c.64.88.88 1.36.88 1.6v1.84c-.72-.08-1.04-.24-1.04-.4v-2.96c.08-.08.08-.08.16-.08zm2.32 8.48c.88.64 1.36 1.12 1.36 1.6v4.16c0 .08-.08.16-.16.16-.8-.16-1.2-.32-1.2-.4zm1.6 26.88c0 3.52.88 6.16 2.64 7.84.8.64 1.6.96 2.56.96 2.8 0 4.56-2.4 5.04-7.12.08-.88.08-1.52.08-1.76 0-4.32-1.2-7.12-3.76-8.4-.56-.08-.96-.16-1.44-.24-2.56 0-4.16 2-4.88 6-.16.72-.16 1.68-.24 2.72z"/>
</svg>
