<svg xmlns="http://www.w3.org/2000/svg" viewBox="0 0 144 144">
    <circle class="color-yellow color-main" fill="#010080" cx="72" cy="72" r="70.2"/>
    <path class="color-white" fill="#fff" d="M70.2 58.7L86.8 61c-7 14-17.3 20.9-30.8 20.9-7.6-.5-14.5-3.1-20.6-8S26 60.8 25.6 49.2c.5-9.7 3.5-17.3 9.1-22.9 5.6-5.5 12.7-8.6 21.3-9 10.5.1 18.2 2.5 22.9 7.3s7.3 9.1 7.8 12.8L69.6 39c-1.1-1.2-2.4-2.2-3.8-3-2.4-1.3-4.9-1.9-7.4-1.9-2.6 0-5 .6-7.5 1.9-2.4 1.3-4.3 3.1-5.6 5.6-1.4 2.5-2.1 5-2.1 7.6s.6 5.1 1.9 7.5c1.3 2.4 3.2 4.3 5.6 5.6 2.4 1.3 4.9 1.9 7.6 1.9 2.6 0 5.1-.7 7.5-2 1.7-.9 3.2-2.1 4.4-3.5zM54.9 94.8c.2-4.6.9-7.6 2-8.8 13.3 0 24.8-8 34.3-23.9 9.3 1 16.1 4.5 20.6 10.5 4.4 5.8 6.6 13.6 6.6 23.4 0 5.1-1.6 10.5-4.7 15.9h.1c-7 9.7-15.9 14.6-26.8 14.8-19.6-1.8-30.2-12.5-32.1-31.9zm24.9-13.1c-2.4 1.3-4.3 3.1-5.7 5.6-1.3 2.4-2 5-2 7.6s.6 5.1 1.9 7.5 3.2 4.3 5.6 5.6c2.4 1.3 4.9 1.9 7.6 1.9 2.6 0 5.1-.6 7.5-1.9s4.3-3.2 5.6-5.6c1.3-2.4 2-4.9 2-7.5 0-2.7-.7-5.1-2-7.6-1.4-2.4-3.3-4.3-5.7-5.6-2.4-1.3-4.9-1.9-7.4-1.9s-5 .6-7.4 1.9zm5.4-35.8h2.1l4.1 7.7h-2.5L88 52h-4l-.7 1.6h-2.2l4.1-7.7zm-.6 4.4h2.3L85.7 48l-1.1 2.3zm8.9-4.4l4.1 4.1v-4.1h1.7v7.7h-1.6l-4.1-4.1v4.1h-1.7v-7.7h1.6zm11.8 0c2.6.2 3.8 1.4 3.8 3.7-.2 2.7-1.3 4-3.4 4H101v-7.7h4.3zm-2.4 1.8v4.2h2.1c1.1 0 1.7-.7 1.7-2 0-1.5-.5-2.2-1.7-2.2h-2.1z"/>
    <path class="color-blue color-reserved-white" fill="#ffff01" d="M70.2 58.7L86.8 61c-7 14-17.3 20.9-30.8 20.9-7.6-.5-14.5-3.1-20.6-8S26 60.8 25.6 49.2c.5-9.7 3.5-17.3 9.1-22.9 5.6-5.5 12.7-8.6 21.3-9 10.5.1 18.2 2.5 22.9 7.3s7.3 9.1 7.8 12.8L69.6 39c-1.1-1.2-2.4-2.2-3.8-3-2.4-1.3-4.9-1.9-7.4-1.9-2.6 0-5 .6-7.5 1.9-2.4 1.3-4.3 3.1-5.6 5.6-1.4 2.5-2.1 5-2.1 7.6s.6 5.1 1.9 7.5c1.3 2.4 3.2 4.3 5.6 5.6 2.4 1.3 4.9 1.9 7.6 1.9 2.6 0 5.1-.7 7.5-2 1.7-.9 3.2-2.1 4.4-3.5zM54.9 94.8c.2-4.6.9-7.6 2-8.8 13.3 0 24.8-8 34.3-23.9 9.3 1 16.1 4.5 20.6 10.5 4.4 5.8 6.6 13.6 6.6 23.4 0 5.1-1.6 10.5-4.7 15.9h.1c-7 9.7-15.9 14.6-26.8 14.8-19.6-1.8-30.2-12.5-32.1-31.9zm24.9-13.1c-2.4 1.3-4.3 3.1-5.7 5.6-1.3 2.4-2 5-2 7.6s.6 5.1 1.9 7.5 3.2 4.3 5.6 5.6c2.4 1.3 4.9 1.9 7.6 1.9 2.6 0 5.1-.6 7.5-1.9s4.3-3.2 5.6-5.6c1.3-2.4 2-4.9 2-7.5 0-2.7-.7-5.1-2-7.6-1.4-2.4-3.3-4.3-5.7-5.6-2.4-1.3-4.9-1.9-7.4-1.9s-5 .6-7.4 1.9zm5.4-35.8h2.1l4.1 7.7h-2.5L88 52h-4l-.7 1.6h-2.2l4.1-7.7zm-.6 4.4h2.3L85.7 48l-1.1 2.3zm8.9-4.4l4.1 4.1v-4.1h1.7v7.7h-1.6l-4.1-4.1v4.1h-1.7v-7.7h1.6zm11.8 0c2.6.2 3.8 1.4 3.8 3.7-.2 2.7-1.3 4-3.4 4H101v-7.7h4.3zm-2.4 1.8v4.2h2.1c1.1 0 1.7-.7 1.7-2 0-1.5-.5-2.2-1.7-2.2h-2.1z"/>
</svg>
