<svg xmlns="http://www.w3.org/2000/svg" width="191.987" height="192" viewBox="0 0 191.987 192">
    <circle class="color-main color-black" cx="96.000198" cy="96.000603" r="96"/>
    <path class="color-stroke-main color-stroke-reserved-white color-stroke-black" stroke="#000" stroke-width=".916029" d="M96.748661.648297L.648021 96.744633c31.507177 31.486777 63.799408 62.265577 96.09564 94.613347 34.332369-33.20577 62.994349-62.12957 94.623539-94.610347-32.48825-34.74976-58.51104-59.999585-94.618539-96.099336z"/>
    <path class="color-yellow" fill="#d2c535" d="M182.651 96.79c-29.466-31.519-53.068-54.421-85.816-87.164L9.673 96.788c28.577 28.56 57.866 56.475 87.157 85.816 31.139-30.118 57.134-56.352 85.821-85.814zm-93.085 49.65c-35.7-5.422-54.539-46.694-35.065-76.823 19.801-30.637 64.435-31.21 84.432-1.084 7.07 10.653 10.027 25.133 7.646 37.454-2.412 12.487-11.623 26.063-22.346 32.938-9.427 6.044-23.816 9.163-34.667 7.515zm-13.703-26.133s-.029-2.257.109-5.493l-9.902-.013c-.076-7.113-.228-9.273-.016-15.31l9.684.041c-.141-2.294.237-3.759.125-6.434l-9.81-.023c.175-4.934-.158-9.868.017-14.803l9.711.056c.078-2.685.077-3.057-.092-6.33-5.63.06-7.06.075-15.435-.049-.467 16.572-.555 38.287-.506 48.322 6.536.02 16.115.036 16.115.036zm12-20.727l8.181-.064c.218 9.097.092 10.7.16 20.803 2.002.086 3.035-.009 5.205.028 0 0-.135-5.399-.034-11.365-.463-9.9 1.16-11.061-2.727-11.846 3.196-1.007 2.815-3.102 2.764-12.63-.07-12.98.235-12.416-11.223-12.502l-7.353-.055-.48 48.34c2.98.032 3.29.012 5.44-.006-.03-10.089.059-23.58.068-20.704zm-.177-21.308l8.604.064s-.081 8.758-.046 14.778l-8.45-.062c.12-5.732-.072-8.413-.108-14.78zm25.327-6.242l-5.09-.02c.134 16.33.362 48.222.362 48.222 2.468-.003 2.642-.003 4.812-.003-.094-16.382.158-31.817-.084-48.198zm22.151 48.213c0-2.047.021-2.99-.017-5.425l-8.827-.071c.024-5.008-.148-10.273-.189-15.28 4.508-.052 4.893.031 8.916.048 0-2.81.215-3.209.067-6.352l-8.92-.058c.159-6.284.154-7.989.052-15.362 5.078-.151 5.687-.097 8.982.02V71.95h-15.356c-.239 18.21-.107 19.343.157 48.248 6.573.033 8.406.029 15.135.046z"/>
</svg>
