<svg xmlns="http://www.w3.org/2000/svg" viewBox="0 0 144 144">
    <circle class="color-red color-main" fill="#dd3027" cx="72" cy="72" r="70.2"/>
    <circle class="color-black" cx="72" cy="72" r="53.392555"/>
    <path class="color-stroke-black color-white" fill="#fff" stroke="#000" stroke-miterlimit="10" stroke-width=".5" d="M63.1 117.70034c-1.9-.5-2.9-1.2-3.5-2.3-.8-1.5-.9-2.7-.4-4 1-2.4 2.7-3.5 5.5-3.5 1.9 0 3.3.6 4.1 2 .9 1.4.8 2.5-.2 3.3-1.1.9-1.4.8-1.4-.3 0-1.3-.5-2.1-1.6-2.6-1.5-.8-2.4-.6-3.7.6-1 1-1.1 1.2-.9 2.4.3 2.5 2.1 3.6 5.4 3.3 2.5-.2 4.5-1 5.7-2.4.4-.5 2.3-4.1 4.3-8.2 4.8-9.700001 5.5-11.400001 5.1-11.500001-.4-.1 1.5-4.1 2-4.1.2 0 .6-.6.9-1.2.6-1.4 1.8-2.7 3.1-3.1 1.3-.5 3.6-.4 4.8.2 1 .5 1.5 1.4.7 1.4-.2 0-1.1.4-1.9.9-1.1.7-1.7.9-2.5.7-.8-.1-1.2 0-1.5.4-.3.4-.3.6-.1.7.5.3-1.3 4.1-2.1 4.3-.3.1-.9.8-1.2 1.7-.4.8-2.3 4.900001-4.4 9.100001-3.4 6.9-3.9 7.8-5.5 9.2-1 .9-2.5 2-3.4 2.4-1.9.9-5.3 1.2-7.3.6zm-18.1-7.9c-1-.3-.9-1.4.3-2.7.9-.9 6-11.400001 17.3-35.600001 3.6-7.6 3.9-8.6 3.7-9.6l-.2-1.2 1.1.2c.6.1 1.9.3 2.9.4 2.4.3 2.5.8.9 2.2-1 .9-1.7 2.1-3 4.9-1 2.1-1.7 4-1.7 4.1 0 .2.6.3 1.3.3h1.3l2.2-4.6c1.2-2.5 2.3-5.2 2.4-5.8.2-1.2.3-1.2 1.1-1.2.5.1 1.8.1 2.8.2 3.1.1 3.5.9 1.1 2.1l-1.6.8-7 14.5c-3.8 8-8.5 17.6-10.3 21.400001-1.8 3.8-3.4 7.3-3.4 7.9 0 .6-.2 1.1-.3 1.2-.4.4-2.7.7-3.9.5-1.7-.2-1.8-1-.1-2.5 1-1 2.4-3.6 7.2-13.700001 3.3-6.9 6-12.6 6-12.7 0-.1-.6-.1-1.4-.1l-1.4.1-2.6 5.1c-1.3 2.8-4.2 8.9-6.4 13.4-2.6 5.400001-3.9 8.500001-3.8 8.900001.1.4 0 .8-.3 1-.5.5-3.1.8-4.2.5zm42.6-2.8c-.1-.3.1-.8.6-1.3.9-.9 6.4-12.400001 6.7-14.100001.2-.9.4-1.1 1.2-1.3.7-.1 1.1-.1 1.3.2.2.4.4.4 1.3.1.6-.2 1.1-.3 1.2-.2.1.1-.2 1-.7 2.1-.8 1.6-1 1.9-1.7 1.9-.5 0-1 .2-1.3.4-.7.6-5.7 11.100001-5.5 11.600001.3.7-.4 1.1-1.7 1.1-.9 0-1.3-.1-1.4-.5zm-5.1-.4c-.3-.3-.6-1-.6-1.6 0-1.1 6-13.700001 6.8-14.300001.8-.6 2.7-.5 3.5.2 1.5 1.4 1.4 1.5-3.1 10.900001-1.6 3.2-2.3 4.3-3 4.8-1.4.8-2.9.8-3.6 0zm5.6-7.700001c1.3-2.9 2.4-5.4 2.4-5.6 0-.5-.8-.8-1.2-.3-.7.9-5.4 11.000001-5.2 11.300001.1.3.4.3.9.1.5-.1 1.3-1.5 3.1-5.500001zm6.7 7.700001c-1-1.1-.6-2.3 2.7-9.200001 3.6-7.4 4-8 5.7-6.9.5.3.9.5 1 .4.6-.6 7-14.5 7-15.2 0-3.2-2.9-4.1-5.5-1.7-1 .9-.9 2.5.1 3.3 1 .8 1.6.8 2.5.2.7-.5.7-.5.7.3 0 2.2-1.7 3.5-3.7 3-1.8-.5-2.6-1.6-2.8-3.7-.1-2.3.6-3.6 2.5-4.8 3.7-2.3 7.9-.8 8.3 3 .2 1.5-.2 2.5-4.7 11.7-1.5 3.2-4 8.3-5.5 11.3-2.4 5.000001-2.7 5.700001-2.5 6.900001.3 1.9-.1 2.4-1.4 1.9-.7-.2-1.2-.3-1.7-.1-1.1.4-2.1.3-2.7-.4zm3.1-2.6c.3-.4 1.5-2.8 2.7-5.500001 1.7-3.6 2.2-4.9 1.9-5.1-.3-.3-.5-.3-.7 0-.4.4-5.3 10.600001-5.3 11.000001 0 .6.9.3 1.4-.4zm-32.9 2.7c0-.1.5-1.2 1.1-2.4 3.5-7.200001 6.1-12.800001 6.1-13.300001 0-.4.2-.6.9-.6.5 0 1 .2 1.1.4.1.4.3.4 1.4 0 .7-.3 1.2-.3 1.2-.1 0 .2-.4 1.1-.9 2.2-.8 1.6-1.1 1.9-1.8 1.9-.5 0-1 .2-1.2.4-.5.7-4.8 9.900001-4.8 10.400001 0 .7-1 1.4-2 1.4-.6-.1-1.1-.2-1.1-.3zm8.2-.3c-1.2-.8-.9-2.2 1.5-7.100001 1.4-2.9 2-4.6 1.8-4.8-.4-.4 1.5-4.1 2-4.1.2 0 .7-.7 1.2-1.5.5-1 1.1-1.7 2-2.1.7-.3 1.3-.5 1.3-.4.1.1-.2 1-.6 1.9-.9 2.1-.9 2-.3 2 .4 0 .2.5-.5 2-.6 1.3-1.2 2-1.5 2-.5 0-1.6 2.1-4.1 7.600001l-1 2.2.7.5c.6.4.7.5.2 1.4-.7 1-1.6 1.2-2.7.4zm-9.9-.1c-.1-.2-.9-.2-1.8-.1-1.9.2-2.3-.1-2.6-1.9-.1-.8 0-1.5.7-2.9 1.1-2.200001 2.7-3.900001 4.9-4.900001 1.4-.6 1.8-1.1 2.3-2.1.9-2-.1-3.1-1.3-1.5-.5.7-.6.7-1.1.3-.5-.4-.5-.5-.1-1.3 1.2-2.3 3.4-2.8 4.8-1.2.4.5.7 1.2.7 1.6 0 .4-1.1 3-2.4 5.7-1.3 2.800001-2.4 5.400001-2.5 6.000001-.2 1.9-1.1 3.2-1.6 2.3zm-.1-4.6c.6-1.3 1.1-2.500001 1-2.500001-.4-.4-2.5 1.800001-3 3.000001-.4 1.2-.4 1.3 0 1.6.3.2.5.3.6.3.1 0 .8-1.1 1.4-2.4zm-20.6 3.8c-1.4-.6-2-1.7-2-3.5 0-1.2.3-2.300001 1.6-5.200001 1.3-2.9 1.6-3.8 1.3-4.1-.5-.5-.9 0-2.5 3.8-1.3 2.9-1.5 3.1-2.2 3.1H38l.6-1.3c.3-.7 1.1-2.4 1.7-3.8.6-1.4 1.1-2.7 1.1-3 0-.4.4-.5 1.6-.6 3-.1 3.1.8.6 6.3-1.4 3.100001-1.8 4.200001-1.7 5.000001.2 1.3 1 2.1 1.8 2.1.9 0 1.8-.9 1.6-1.5-.1-.2-.2-.5-.2-.6 0-.3-1.1-.1-1.5.2-.3.3-.4.2-.4-.5 0-1.2 1.2-1.9 2.3-1.4.4.2 1 .8 1.2 1.2.5 1.2-.4 3-1.8 3.6-1.3.7-1 .8-2.3.2zm-8.7-6.300001c-.9-.6-.9-2 0-3.1.4-.5 1.5-1.3 2.5-1.8s1.8-1.1 1.8-1.4c0-.5-.8-.6-1.1-.2-.2.4-2 .4-2 .1 0-.4.4-.8 1.4-1.6 1.1-.9 2.7-.9 3.5-.1.6.6.5.7-.5 3-.6 1.3-1.3 3-1.5 3.8-.5 1.3-.6 1.4-1.9 1.5-1 .3-1.8.2-2.2-.2zm2.7-2.3c.7-1.4.4-1.6-.8-.5-.6.5-.8.9-.6 1.2.3.9.7.7 1.4-.7zm8.2 2.2c-.9-.9-.8-1.4.6-4.4 1.8-3.8 2.7-4.6 4.4-3.7.5.3.7.1 1.2-.9.3-.7.6-1.4.6-1.5 0-.2-.8 0-1.8.3s-2.7.7-3.9.8c-2 .2-2.1.1-3.1-.8-.8-.8-.9-1.1-.8-1.8.3-1.2 1-1.9 2.2-2.2 1-.3 2.8-.1 3.5.4.6.4.4 1.7-.3 2.4-1 .9-1.5.8-1.4-.2.1-1.1-.2-1.6-1.1-1.6-1.7 0-1.9 2-.3 2.8 1.2.6 2.8.2 6.1-1.5 1.3-.6 2.4-1.2 2.6-1.3.1-.1.4.2.6.6.3.6-.1 1.6-2.7 6.9-1.7 3.4-3.2 6.2-3.4 6.2-.2 0-.8.1-1.4.2-.8 0-1.1-.2-1.6-.7zm3.5-3.5c.8-1.9.9-3 .2-3-.2 0-.9 1.1-1.6 2.5-1 1.9-1.2 2.6-.9 2.8.7.4 1.4-.3 2.3-2.3zm-12.1-9.5c-.8-.2-.7-.9.4-1.7.6-.5 1.5-2 2.5-4 .8-1.8 2.8-6 4.4-9.4 4-8.5 3.8-7.7 3.7-12l-.1-3.7-5.7 12.2-5.7 12.2.3 1.5c.2.8.3 1.6.2 1.8-.2.3-4.2.4-5 .1-.8-.3-.6-1.5.6-3 .6-.7 1.4-2.1 1.8-2.9.7-1.5 2.2-4.9 10.2-21.9l3.4-7.3-.2-5.3c-.2-5.8 0-6.9 1.5-9.2 2.1-3.2 5.1-3.2 6.5-.1 1 2.2.8 3-2.1 9.2-2.3 5.1-2.6 5.9-2.5 6.9.1.6.3 1.3.4 1.3.1.1 1.8-3.2 3.7-7.2 3.2-6.8 3.4-7.4 3.1-8.4-.6-1.8-.3-2 2.8-2 1.5 0 3.1.1 3.5.2 1.3.4 1.1 1.1-.4 2-1.3.8-1.5 1.1-3.8 6-3.3 7.1-4.8 10.2-7.9 16.8-1.5 3.1-2.9 6.2-3.2 6.9-1.3 3-9.5 20.3-9.8 20.7-.1.5-1.5.6-2.6.3zm15.3-47.6c.9-2 1.6-3.7 1.6-3.9 0-.6-1.2-1.4-1.7-1.2-.6.2-1.7 1.9-2.1 3.3-.3 1.1 0 5.3.3 5.3.2 0 1.1-1.6 1.9-3.5zm28.9 46c-1.3-.8-1.7-2-1.7-5.1 0-2.2.2-2.9 1.4-6.1.8-2.1 1.4-4.1 1.4-4.8 0-1.1.1-1.2.9-1.2.5 0 1.1-.2 1.5-.5 1.7-1.3 2.3.1.8 2-1 1.2-2.3 4.3-2.1 4.9.1.2 1-.7 2.1-2 2.8-3.2 5.7-5.4 10.4-7.7 6.1-3 8.5-5.5 8.2-8.5-.2-1.8-.7-2.3-2.1-2.2-.9.1-1.2.3-1.4 1-.4 1 0 1.8 1 2.2.7.3.9.8.3.8-.6 0-2.1-.9-2.3-1.4-.7-1.8.6-3.6 2.5-3.6 3.1 0 4.4 2.6 3.1 6.4-.9 2.5-2.8 4.1-7.9 6.6-2.5 1.2-5.4 2.9-6.5 3.7-4.7 3.5-7.5 9-7.5 14.4 0 1.9-.4 2.1-2.1 1.1zm10.2-.6c0-.2.3-.6.7-.9.7-.6 6.7-12.7 7-14.1.3-1.3.7-1.6 2.3-1.6 1.6 0 3.5.9 3.5 1.7 0 .3-1.1 2.7-2.4 5.5-3.2 6.7-3.1 6.4-2.3 7.1.4.4.6.9.5 1.3-.1.6-.3.7-1.3.6-1.4 0-2.1-.7-2.1-2 0-.4 1.1-3.2 2.5-6.2s2.4-5.5 2.3-5.7c-.5-.8-1.3.3-4.1 6.1-2.3 4.7-3.1 6.5-2.9 7.1.2.8.1.8-1 .8-.7 0-1.5 0-1.9.2-.5.3-.8.3-.8.1zm-19.4-.8c-.5-.3-.9-.8-1.1-1.5-.6-2.4 1.4-5.5 5-7.7 1.6-1 2.2-1.6 2.7-2.7.9-2.1.2-2.7-1.5-1.2-1.6 1.4-1.9-.1-.3-1.8 1.4-1.5 2.7-1.5 4-.2 1.2 1.2 1.2 1.6-1.8 7.8-1.9 4-2.3 5.2-2.2 6 .2 1.4-.2 1.9-1.3 1.5-.5-.2-1.2-.2-1.5-.1-.8.4-1.1.4-2-.1zm2.8-4.2c1.2-2.2 1.2-2.5.1-1.8-1 .6-1.9 2-1.9 2.9 0 1.3.9.7 1.8-1.1zm13 4.3c-.8-.5-1.1-.9-1.1-1.7 0-1.1 5.9-12.8 6.8-13.5 1.1-.9 2.2-1.1 3.2-.6 1.2.7 1.1 1.6-.5 5.1-1.6 3.4-1.8 3.6-4.5 3.6-.7 0-1 .3-1.8 2.1-1.1 2.3-1.2 2.8-.6 2.8.3 0 .8-.7 1.3-1.6.4-.9.9-1.6.9-1.6.1 0 .5.2.9.4l.8.4-.9 1.8c-.5 1-1.2 2-1.5 2.3-.8.7-2.2.9-3 .5zm6.6-11.7c.8-1.9.9-2.6.1-2.2-.4.2-2.2 3.7-2.2 4.2 0 .2.3.2.6.1.4-.1.9-.9 1.5-2.1zm-49.1 10.9c-.6-.4-.7-.7-.6-1.7.2-1.2 5-11.9 5.8-12.9.8-.9 2.4-1.5 3.1-1.1 1.4.7 1.3 1.8-.5 5.6-1.4 3-1.5 3.1-2.5 3.1-.6 0-1.3.1-1.5.2-.6.2-2.7 4.3-2.4 4.6.5.5.9.1 1.6-1.2.6-1.3.7-1.4 1.3-1 .3.2.6.5.6.6 0 .5-1.5 3.2-2 3.6-.8.7-2.2.8-2.9.2zm6.3-10.9c.9-2.1 1.1-2.7.6-2.8-.3-.1-1 1.3-2.3 4.3-.1.1.1.2.4.2.3 0 .8-.7 1.3-1.7zm-.1 11.2l-.7-.2.9-1.8c1.6-3.2 3.5-10.2 3.5-13 0-1 .1-1 1.3-1.2.7-.1 1.4-.1 1.4-.1s-.3.9-.7 1.9c-.4 1-.8 2.2-.8 2.6v.8l.5-.7c.3-.4 1.1-2.2 1.8-4 1.3-3.1 1.4-3.3 2.3-3.4l1-.1-1 1.8c-.8 1.5-1 2.2-1.1 4.2l-.1 2.4.6-1.2c.3-.7.7-1.8.8-2.4.2-1.4.5-1.5 2.3-1.4l1.3.1-1.3 1.9c-1.7 2.4-3.8 6.8-5.2 10.9-1.1 3-1.1 3.1-2.1 3.2-1.2.1-1.2.1-.5-1.2.5-.9 1.5-6.5 1.3-6.7-.2-.2-2 2.4-2.7 3.8-.3.7-.6 1.7-.6 2.2-.1 1.7-.3 1.9-2.2 1.6zm18.4-22.1c-.6-.3-.5-1.2.1-1.7.3-.2 1.5-2.4 2.6-4.7l2.1-4.3-1.6-6.3c-1.4-5.7-1.6-6.4-2.5-7.1l-1-.8.8-.5c.6-.4 1.5-.5 3.8-.4 4.2.1 4.4.3 2.6 2.1l-1.1 1.1.8 3.4.8 3.4 4.1-4.1c6.1-6 10.8-9.1 15.5-10.3 4.7-1.2 9.5 1 9 4.1-.1.6-.4 1.4-.7 1.7-2.1 2.3-7.8 2.8-9.6.9-.7-.8-.4-2 .6-2.4 1-.5 1.8 0 1.8 1.1 0 1.4 1.4 1.7 3.6.6 3.4-1.6 1.9-4.4-2.4-4.4-3.8 0-9 3-14.3 8.4l-3.6 3.6-3.2 6.8c-2.4 5.1-3.2 7.1-3.2 8 0 .7-.1 1.3-.3 1.4-.5.3-4.2.6-4.7.4zm7.3-.4c-.5-.4-1.1-1.5-1.1-2.4 0-.9 5.9-13 6.6-13.6 1.6-1.3 4.3-.3 4.3 1.5 0 1.3-5.9 13.5-6.9 14.1-.7.7-2.3.8-2.9.4zm4.5-7.8c1.5-3.2 2.7-6 2.6-6.3-.1-.3-.3-.4-.5-.1-.3.3-5.9 11.8-5.9 12.1 0 .1.2.1.5.1.4.1 1.5-1.9 3.3-5.8zm.1 7.6c-.1-.3 0-.7.3-1 1-1.1 6.7-13.6 6.6-14.3-.2-.8.8-1.2 1.6-.6.4.3.8.3 1.7 0 .6-.2 1.2-.3 1.2-.3.1.1-.3 1-.8 2.2-.8 1.8-1 2-1.6 1.9-.4-.1-.8 0-1 .2-.6.8-5 10.4-5 11 0 1.2-2.6 1.9-3 .9zm4.3.1c0-.2.3-.7.7-1.2.4-.4 2.5-4.7 4.7-9.5s4.1-8.9 4.2-9.2c.5-1 3.1-.7 3.1.3 0 .3-.4 1-.9 1.4-.8.7-4.3 7.2-4.4 8 0 .1 1.4-1.2 3-2.9l3-3.1 1.8.1 1.8.1-2.7 2.1c-1.5 1.2-3.8 3.1-5.1 4.3l-2.3 2.2.9 2.7c.5 1.5 1.3 3 1.7 3.4 1.1 1 .7 1.6-1.1 1.6-2 0-2.6-.4-2-1.2.3-.5.3-1-.1-2.4-.3-1-.6-1.9-.8-2.1-.3-.3-2.2 3.3-2.2 4.1 0 .3-.3.8-.7 1.1-.7.6-2.6.7-2.6.2zm-30.8-.5c-1.3-.9-.9-2.3 2.2-9l2.9-6.2 1.1-.1c1.4-.1 2.4.8 2.4 2.1 0 .5-.6 2.3-1.4 4l-1.4 3.1-1.5.1-1.5.1-.8 1.9c-.5 1-.8 2-.7 2.2.3.6.8.2 1.4-1.1.7-1.5.8-1.5 1.5-1.1.4.2.4.5-.1 1.7-1 2.4-2.6 3.4-4.1 2.3zm5.8-10c.9-1.9 1-2.6.4-2.6-.2 0-2.2 4-2.2 4.5 0 .1.2.2.4.2s.8-.9 1.4-2.1zm-1.5 10.4c0-.1.7-1.6 1.5-3.4 2-4.1 2.8-6.6 3.2-9.9l.4-2.6H65c.9 0 1 .1.8.5-.8 1.8-1.4 3.8-1.4 4.7 0 .9.1 1 .5.6 1.2-1 2.9-5.8 2.9-8 0-1.1.2-1.3 1.2-1 .8.3.8.4-.3 4-.7 2.2-.8 4.1-.3 3.6.2-.2.6-1.3.9-2.6.5-2 .6-2.2 1.3-2.2 1.7 0 1.7.4.5 2.8-.6 1.3-1.6 3.1-2.2 4.2-1.3 2.2-2.2 4.9-2.5 7.4l-.2 1.8h-1.4c-.8 0-1.4-.1-1.4-.3 0-.2.5-1.4 1.1-2.8 1-2.2 1.4-4.7.9-4.7-.1 0-.7.3-1.2.6-1.1.7-1.4 1.5-2 5.1l-.4 2.1h-1.5c-.9.2-1.5.2-1.5.1z"/>
    <path class="color-stroke-black" fill="none" stroke="#000" stroke-miterlimit="10" d="M63.1 117.70034c-1.9-.5-2.9-1.2-3.5-2.3-.8-1.5-.9-2.7-.4-4 1-2.4 2.7-3.5 5.5-3.5 1.9 0 3.3.6 4.1 2 .9 1.4.8 2.5-.2 3.3-1.1.9-1.4.8-1.4-.3 0-1.3-.5-2.1-1.6-2.6-1.5-.8-2.4-.6-3.7.6-1 1-1.1 1.2-.9 2.4.3 2.5 2.1 3.6 5.4 3.3 2.5-.2 4.5-1 5.7-2.4.4-.5 2.3-4.1 4.3-8.2 4.8-9.700001 5.5-11.400001 5.1-11.500001-.4-.1 1.5-4.1 2-4.1.2 0 .6-.6.9-1.2.6-1.4 1.8-2.7 3.1-3.1 1.3-.5 3.6-.4 4.8.2 1 .5 1.5 1.4.7 1.4-.2 0-1.1.4-1.9.9-1.1.7-1.7.9-2.5.7-.8-.1-1.2 0-1.5.4-.3.4-.3.6-.1.7.5.3-1.3 4.1-2.1 4.3-.3.1-.9.8-1.2 1.7-.4.8-2.3 4.900001-4.4 9.100001-3.4 6.9-3.9 7.8-5.5 9.2-1 .9-2.5 2-3.4 2.4-1.9.9-5.3 1.2-7.3.6zm-18.1-7.9c-1-.3-.9-1.4.3-2.7.9-.9 6-11.400001 17.3-35.600001 3.6-7.6 3.9-8.6 3.7-9.6l-.2-1.2 1.1.2c.6.1 1.9.3 2.9.4 2.4.3 2.5.8.9 2.2-1 .9-1.7 2.1-3 4.9-1 2.1-1.7 4-1.7 4.1 0 .2.6.3 1.3.3h1.3l2.2-4.6c1.2-2.5 2.3-5.2 2.4-5.8.2-1.2.3-1.2 1.1-1.2.5.1 1.8.1 2.8.2 3.1.1 3.5.9 1.1 2.1l-1.6.8-7 14.5c-3.8 8-8.5 17.6-10.3 21.400001-1.8 3.8-3.4 7.3-3.4 7.9 0 .6-.2 1.1-.3 1.2-.4.4-2.7.7-3.9.5-1.7-.2-1.8-1-.1-2.5 1-1 2.4-3.6 7.2-13.700001 3.3-6.9 6-12.6 6-12.7 0-.1-.6-.1-1.4-.1l-1.4.1-2.6 5.1c-1.3 2.8-4.2 8.9-6.4 13.4-2.6 5.400001-3.9 8.500001-3.8 8.900001.1.4 0 .8-.3 1-.5.5-3.1.8-4.2.5zm42.6-2.8c-.1-.3.1-.8.6-1.3.9-.9 6.4-12.400001 6.7-14.100001.2-.9.4-1.1 1.2-1.3.7-.1 1.1-.1 1.3.2.2.4.4.4 1.3.1.6-.2 1.1-.3 1.2-.2.1.1-.2 1-.7 2.1-.8 1.6-1 1.9-1.7 1.9-.5 0-1 .2-1.3.4-.7.6-5.7 11.100001-5.5 11.600001.3.7-.4 1.1-1.7 1.1-.9 0-1.3-.1-1.4-.5zm-5.1-.4c-.3-.3-.6-1-.6-1.6 0-1.1 6-13.700001 6.8-14.300001.8-.6 2.7-.5 3.5.2 1.5 1.4 1.4 1.5-3.1 10.900001-1.6 3.2-2.3 4.3-3 4.8-1.4.8-2.9.8-3.6 0zm5.6-7.700001c1.3-2.9 2.4-5.4 2.4-5.6 0-.5-.8-.8-1.2-.3-.7.9-5.4 11.000001-5.2 11.300001.1.3.4.3.9.1.5-.1 1.3-1.5 3.1-5.500001zm6.7 7.700001c-1-1.1-.6-2.3 2.7-9.200001 3.6-7.4 4-8 5.7-6.9.5.3.9.5 1 .4.6-.6 7-14.5 7-15.2 0-3.2-2.9-4.1-5.5-1.7-1 .9-.9 2.5.1 3.3 1 .8 1.6.8 2.5.2.7-.5.7-.5.7.3 0 2.2-1.7 3.5-3.7 3-1.8-.5-2.6-1.6-2.8-3.7-.1-2.3.6-3.6 2.5-4.8 3.7-2.3 7.9-.8 8.3 3 .2 1.5-.2 2.5-4.7 11.7-1.5 3.2-4 8.3-5.5 11.3-2.4 5.000001-2.7 5.700001-2.5 6.900001.3 1.9-.1 2.4-1.4 1.9-.7-.2-1.2-.3-1.7-.1-1.1.4-2.1.3-2.7-.4zm3.1-2.6c.3-.4 1.5-2.8 2.7-5.500001 1.7-3.6 2.2-4.9 1.9-5.1-.3-.3-.5-.3-.7 0-.4.4-5.3 10.600001-5.3 11.000001 0 .6.9.3 1.4-.4zm-32.9 2.7c0-.1.5-1.2 1.1-2.4 3.5-7.200001 6.1-12.800001 6.1-13.300001 0-.4.2-.6.9-.6.5 0 1 .2 1.1.4.1.4.3.4 1.4 0 .7-.3 1.2-.3 1.2-.1 0 .2-.4 1.1-.9 2.2-.8 1.6-1.1 1.9-1.8 1.9-.5 0-1 .2-1.2.4-.5.7-4.8 9.900001-4.8 10.400001 0 .7-1 1.4-2 1.4-.6-.1-1.1-.2-1.1-.3zm8.2-.3c-1.2-.8-.9-2.2 1.5-7.100001 1.4-2.9 2-4.6 1.8-4.8-.4-.4 1.5-4.1 2-4.1.2 0 .7-.7 1.2-1.5.5-1 1.1-1.7 2-2.1.7-.3 1.3-.5 1.3-.4.1.1-.2 1-.6 1.9-.9 2.1-.9 2-.3 2 .4 0 .2.5-.5 2-.6 1.3-1.2 2-1.5 2-.5 0-1.6 2.1-4.1 7.600001l-1 2.2.7.5c.6.4.7.5.2 1.4-.7 1-1.6 1.2-2.7.4zm-9.9-.1c-.1-.2-.9-.2-1.8-.1-1.9.2-2.3-.1-2.6-1.9-.1-.8 0-1.5.7-2.9 1.1-2.200001 2.7-3.900001 4.9-4.900001 1.4-.6 1.8-1.1 2.3-2.1.9-2-.1-3.1-1.3-1.5-.5.7-.6.7-1.1.3-.5-.4-.5-.5-.1-1.3 1.2-2.3 3.4-2.8 4.8-1.2.4.5.7 1.2.7 1.6 0 .4-1.1 3-2.4 5.7-1.3 2.800001-2.4 5.400001-2.5 6.000001-.2 1.9-1.1 3.2-1.6 2.3zm-.1-4.6c.6-1.3 1.1-2.500001 1-2.500001-.4-.4-2.5 1.800001-3 3.000001-.4 1.2-.4 1.3 0 1.6.3.2.5.3.6.3.1 0 .8-1.1 1.4-2.4zm-20.6 3.8c-1.4-.6-2-1.7-2-3.5 0-1.2.3-2.300001 1.6-5.200001 1.3-2.9 1.6-3.8 1.3-4.1-.5-.5-.9 0-2.5 3.8-1.3 2.9-1.5 3.1-2.2 3.1H38l.6-1.3c.3-.7 1.1-2.4 1.7-3.8.6-1.4 1.1-2.7 1.1-3 0-.4.4-.5 1.6-.6 3-.1 3.1.8.6 6.3-1.4 3.100001-1.8 4.200001-1.7 5.000001.2 1.3 1 2.1 1.8 2.1.9 0 1.8-.9 1.6-1.5-.1-.2-.2-.5-.2-.6 0-.3-1.1-.1-1.5.2-.3.3-.4.2-.4-.5 0-1.2 1.2-1.9 2.3-1.4.4.2 1 .8 1.2 1.2.5 1.2-.4 3-1.8 3.6-1.3.7-1 .8-2.3.2zm-8.7-6.300001c-.9-.6-.9-2 0-3.1.4-.5 1.5-1.3 2.5-1.8s1.8-1.1 1.8-1.4c0-.5-.8-.6-1.1-.2-.2.4-2 .4-2 .1 0-.4.4-.8 1.4-1.6 1.1-.9 2.7-.9 3.5-.1.6.6.5.7-.5 3-.6 1.3-1.3 3-1.5 3.8-.5 1.3-.6 1.4-1.9 1.5-1 .3-1.8.2-2.2-.2zm2.7-2.3c.7-1.4.4-1.6-.8-.5-.6.5-.8.9-.6 1.2.3.9.7.7 1.4-.7zm8.2 2.2c-.9-.9-.8-1.4.6-4.4 1.8-3.8 2.7-4.6 4.4-3.7.5.3.7.1 1.2-.9.3-.7.6-1.4.6-1.5 0-.2-.8 0-1.8.3s-2.7.7-3.9.8c-2 .2-2.1.1-3.1-.8-.8-.8-.9-1.1-.8-1.8.3-1.2 1-1.9 2.2-2.2 1-.3 2.8-.1 3.5.4.6.4.4 1.7-.3 2.4-1 .9-1.5.8-1.4-.2.1-1.1-.2-1.6-1.1-1.6-1.7 0-1.9 2-.3 2.8 1.2.6 2.8.2 6.1-1.5 1.3-.6 2.4-1.2 2.6-1.3.1-.1.4.2.6.6.3.6-.1 1.6-2.7 6.9-1.7 3.4-3.2 6.2-3.4 6.2-.2 0-.8.1-1.4.2-.8 0-1.1-.2-1.6-.7zm3.5-3.5c.8-1.9.9-3 .2-3-.2 0-.9 1.1-1.6 2.5-1 1.9-1.2 2.6-.9 2.8.7.4 1.4-.3 2.3-2.3zm-12.1-9.5c-.8-.2-.7-.9.4-1.7.6-.5 1.5-2 2.5-4 .8-1.8 2.8-6 4.4-9.4 4-8.5 3.8-7.7 3.7-12l-.1-3.7-5.7 12.2-5.7 12.2.3 1.5c.2.8.3 1.6.2 1.8-.2.3-4.2.4-5 .1-.8-.3-.6-1.5.6-3 .6-.7 1.4-2.1 1.8-2.9.7-1.5 2.2-4.9 10.2-21.9l3.4-7.3-.2-5.3c-.2-5.8 0-6.9 1.5-9.2 2.1-3.2 5.1-3.2 6.5-.1 1 2.2.8 3-2.1 9.2-2.3 5.1-2.6 5.9-2.5 6.9.1.6.3 1.3.4 1.3.1.1 1.8-3.2 3.7-7.2 3.2-6.8 3.4-7.4 3.1-8.4-.6-1.8-.3-2 2.8-2 1.5 0 3.1.1 3.5.2 1.3.4 1.1 1.1-.4 2-1.3.8-1.5 1.1-3.8 6-3.3 7.1-4.8 10.2-7.9 16.8-1.5 3.1-2.9 6.2-3.2 6.9-1.3 3-9.5 20.3-9.8 20.7-.1.5-1.5.6-2.6.3zm15.3-47.6c.9-2 1.6-3.7 1.6-3.9 0-.6-1.2-1.4-1.7-1.2-.6.2-1.7 1.9-2.1 3.3-.3 1.1 0 5.3.3 5.3.2 0 1.1-1.6 1.9-3.5zm28.9 46c-1.3-.8-1.7-2-1.7-5.1 0-2.2.2-2.9 1.4-6.1.8-2.1 1.4-4.1 1.4-4.8 0-1.1.1-1.2.9-1.2.5 0 1.1-.2 1.5-.5 1.7-1.3 2.3.1.8 2-1 1.2-2.3 4.3-2.1 4.9.1.2 1-.7 2.1-2 2.8-3.2 5.7-5.4 10.4-7.7 6.1-3 8.5-5.5 8.2-8.5-.2-1.8-.7-2.3-2.1-2.2-.9.1-1.2.3-1.4 1-.4 1 0 1.8 1 2.2.7.3.9.8.3.8-.6 0-2.1-.9-2.3-1.4-.7-1.8.6-3.6 2.5-3.6 3.1 0 4.4 2.6 3.1 6.4-.9 2.5-2.8 4.1-7.9 6.6-2.5 1.2-5.4 2.9-6.5 3.7-4.7 3.5-7.5 9-7.5 14.4 0 1.9-.4 2.1-2.1 1.1zm10.2-.6c0-.2.3-.6.7-.9.7-.6 6.7-12.7 7-14.1.3-1.3.7-1.6 2.3-1.6 1.6 0 3.5.9 3.5 1.7 0 .3-1.1 2.7-2.4 5.5-3.2 6.7-3.1 6.4-2.3 7.1.4.4.6.9.5 1.3-.1.6-.3.7-1.3.6-1.4 0-2.1-.7-2.1-2 0-.4 1.1-3.2 2.5-6.2s2.4-5.5 2.3-5.7c-.5-.8-1.3.3-4.1 6.1-2.3 4.7-3.1 6.5-2.9 7.1.2.8.1.8-1 .8-.7 0-1.5 0-1.9.2-.5.3-.8.3-.8.1zm-19.4-.8c-.5-.3-.9-.8-1.1-1.5-.6-2.4 1.4-5.5 5-7.7 1.6-1 2.2-1.6 2.7-2.7.9-2.1.2-2.7-1.5-1.2-1.6 1.4-1.9-.1-.3-1.8 1.4-1.5 2.7-1.5 4-.2 1.2 1.2 1.2 1.6-1.8 7.8-1.9 4-2.3 5.2-2.2 6 .2 1.4-.2 1.9-1.3 1.5-.5-.2-1.2-.2-1.5-.1-.8.4-1.1.4-2-.1zm2.8-4.2c1.2-2.2 1.2-2.5.1-1.8-1 .6-1.9 2-1.9 2.9 0 1.3.9.7 1.8-1.1zm13 4.3c-.8-.5-1.1-.9-1.1-1.7 0-1.1 5.9-12.8 6.8-13.5 1.1-.9 2.2-1.1 3.2-.6 1.2.7 1.1 1.6-.5 5.1-1.6 3.4-1.8 3.6-4.5 3.6-.7 0-1 .3-1.8 2.1-1.1 2.3-1.2 2.8-.6 2.8.3 0 .8-.7 1.3-1.6.4-.9.9-1.6.9-1.6.1 0 .5.2.9.4l.8.4-.9 1.8c-.5 1-1.2 2-1.5 2.3-.8.7-2.2.9-3 .5zm6.6-11.7c.8-1.9.9-2.6.1-2.2-.4.2-2.2 3.7-2.2 4.2 0 .2.3.2.6.1.4-.1.9-.9 1.5-2.1zm-49.1 10.9c-.6-.4-.7-.7-.6-1.7.2-1.2 5-11.9 5.8-12.9.8-.9 2.4-1.5 3.1-1.1 1.4.7 1.3 1.8-.5 5.6-1.4 3-1.5 3.1-2.5 3.1-.6 0-1.3.1-1.5.2-.6.2-2.7 4.3-2.4 4.6.5.5.9.1 1.6-1.2.6-1.3.7-1.4 1.3-1 .3.2.6.5.6.6 0 .5-1.5 3.2-2 3.6-.8.7-2.2.8-2.9.2zm6.3-10.9c.9-2.1 1.1-2.7.6-2.8-.3-.1-1 1.3-2.3 4.3-.1.1.1.2.4.2.3 0 .8-.7 1.3-1.7zm-.1 11.2l-.7-.2.9-1.8c1.6-3.2 3.5-10.2 3.5-13 0-1 .1-1 1.3-1.2.7-.1 1.4-.1 1.4-.1s-.3.9-.7 1.9c-.4 1-.8 2.2-.8 2.6v.8l.5-.7c.3-.4 1.1-2.2 1.8-4 1.3-3.1 1.4-3.3 2.3-3.4l1-.1-1 1.8c-.8 1.5-1 2.2-1.1 4.2l-.1 2.4.6-1.2c.3-.7.7-1.8.8-2.4.2-1.4.5-1.5 2.3-1.4l1.3.1-1.3 1.9c-1.7 2.4-3.8 6.8-5.2 10.9-1.1 3-1.1 3.1-2.1 3.2-1.2.1-1.2.1-.5-1.2.5-.9 1.5-6.5 1.3-6.7-.2-.2-2 2.4-2.7 3.8-.3.7-.6 1.7-.6 2.2-.1 1.7-.3 1.9-2.2 1.6zm18.4-22.1c-.6-.3-.5-1.2.1-1.7.3-.2 1.5-2.4 2.6-4.7l2.1-4.3-1.6-6.3c-1.4-5.7-1.6-6.4-2.5-7.1l-1-.8.8-.5c.6-.4 1.5-.5 3.8-.4 4.2.1 4.4.3 2.6 2.1l-1.1 1.1.8 3.4.8 3.4 4.1-4.1c6.1-6 10.8-9.1 15.5-10.3 4.7-1.2 9.5 1 9 4.1-.1.6-.4 1.4-.7 1.7-2.1 2.3-7.8 2.8-9.6.9-.7-.8-.4-2 .6-2.4 1-.5 1.8 0 1.8 1.1 0 1.4 1.4 1.7 3.6.6 3.4-1.6 1.9-4.4-2.4-4.4-3.8 0-9 3-14.3 8.4l-3.6 3.6-3.2 6.8c-2.4 5.1-3.2 7.1-3.2 8 0 .7-.1 1.3-.3 1.4-.5.3-4.2.6-4.7.4zm7.3-.4c-.5-.4-1.1-1.5-1.1-2.4 0-.9 5.9-13 6.6-13.6 1.6-1.3 4.3-.3 4.3 1.5 0 1.3-5.9 13.5-6.9 14.1-.7.7-2.3.8-2.9.4zm4.5-7.8c1.5-3.2 2.7-6 2.6-6.3-.1-.3-.3-.4-.5-.1-.3.3-5.9 11.8-5.9 12.1 0 .1.2.1.5.1.4.1 1.5-1.9 3.3-5.8zm.1 7.6c-.1-.3 0-.7.3-1 1-1.1 6.7-13.6 6.6-14.3-.2-.8.8-1.2 1.6-.6.4.3.8.3 1.7 0 .6-.2 1.2-.3 1.2-.3.1.1-.3 1-.8 2.2-.8 1.8-1 2-1.6 1.9-.4-.1-.8 0-1 .2-.6.8-5 10.4-5 11 0 1.2-2.6 1.9-3 .9zm4.3.1c0-.2.3-.7.7-1.2.4-.4 2.5-4.7 4.7-9.5s4.1-8.9 4.2-9.2c.5-1 3.1-.7 3.1.3 0 .3-.4 1-.9 1.4-.8.7-4.3 7.2-4.4 8 0 .1 1.4-1.2 3-2.9l3-3.1 1.8.1 1.8.1-2.7 2.1c-1.5 1.2-3.8 3.1-5.1 4.3l-2.3 2.2.9 2.7c.5 1.5 1.3 3 1.7 3.4 1.1 1 .7 1.6-1.1 1.6-2 0-2.6-.4-2-1.2.3-.5.3-1-.1-2.4-.3-1-.6-1.9-.8-2.1-.3-.3-2.2 3.3-2.2 4.1 0 .3-.3.8-.7 1.1-.7.6-2.6.7-2.6.2zm-30.8-.5c-1.3-.9-.9-2.3 2.2-9l2.9-6.2 1.1-.1c1.4-.1 2.4.8 2.4 2.1 0 .5-.6 2.3-1.4 4l-1.4 3.1-1.5.1-1.5.1-.8 1.9c-.5 1-.8 2-.7 2.2.3.6.8.2 1.4-1.1.7-1.5.8-1.5 1.5-1.1.4.2.4.5-.1 1.7-1 2.4-2.6 3.4-4.1 2.3zm5.8-10c.9-1.9 1-2.6.4-2.6-.2 0-2.2 4-2.2 4.5 0 .1.2.2.4.2s.8-.9 1.4-2.1zm-1.5 10.4c0-.1.7-1.6 1.5-3.4 2-4.1 2.8-6.6 3.2-9.9l.4-2.6H65c.9 0 1 .1.8.5-.8 1.8-1.4 3.8-1.4 4.7 0 .9.1 1 .5.6 1.2-1 2.9-5.8 2.9-8 0-1.1.2-1.3 1.2-1 .8.3.8.4-.3 4-.7 2.2-.8 4.1-.3 3.6.2-.2.6-1.3.9-2.6.5-2 .6-2.2 1.3-2.2 1.7 0 1.7.4.5 2.8-.6 1.3-1.6 3.1-2.2 4.2-1.3 2.2-2.2 4.9-2.5 7.4l-.2 1.8h-1.4c-.8 0-1.4-.1-1.4-.3 0-.2.5-1.4 1.1-2.8 1-2.2 1.4-4.7.9-4.7-.1 0-.7.3-1.2.6-1.1.7-1.4 1.5-2 5.1l-.4 2.1h-1.5c-.9.2-1.5.2-1.5.1z"/>
    <path class="color-white" fill="#fff" d="M63.1 117.70034c-1.9-.5-2.9-1.2-3.5-2.3-.8-1.5-.9-2.7-.4-4 1-2.4 2.7-3.5 5.5-3.5 1.9 0 3.3.6 4.1 2 .9 1.4.8 2.5-.2 3.3-1.1.9-1.4.8-1.4-.3 0-1.3-.5-2.1-1.6-2.6-1.5-.8-2.4-.6-3.7.6-1 1-1.1 1.2-.9 2.4.3 2.5 2.1 3.6 5.4 3.3 2.5-.2 4.5-1 5.7-2.4.4-.5 2.3-4.1 4.3-8.2 4.8-9.700001 5.5-11.400001 5.1-11.500001-.4-.1 1.5-4.1 2-4.1.2 0 .6-.6.9-1.2.6-1.4 1.8-2.7 3.1-3.1 1.3-.5 3.6-.4 4.8.2 1 .5 1.5 1.4.7 1.4-.2 0-1.1.4-1.9.9-1.1.7-1.7.9-2.5.7-.8-.1-1.2 0-1.5.4-.3.4-.3.6-.1.7.5.3-1.3 4.1-2.1 4.3-.3.1-.9.8-1.2 1.7-.4.8-2.3 4.900001-4.4 9.100001-3.4 6.9-3.9 7.8-5.5 9.2-1 .9-2.5 2-3.4 2.4-1.9.9-5.3 1.2-7.3.6zm-18.1-7.9c-1-.3-.9-1.4.3-2.7.9-.9 6-11.400001 17.3-35.600001 3.6-7.6 3.9-8.6 3.7-9.6l-.2-1.2 1.1.2c.6.1 1.9.3 2.9.4 2.4.3 2.5.8.9 2.2-1 .9-1.7 2.1-3 4.9-1 2.1-1.7 4-1.7 4.1 0 .2.6.3 1.3.3h1.3l2.2-4.6c1.2-2.5 2.3-5.2 2.4-5.8.2-1.2.3-1.2 1.1-1.2.5.1 1.8.1 2.8.2 3.1.1 3.5.9 1.1 2.1l-1.6.8-7 14.5c-3.8 8-8.5 17.6-10.3 21.400001-1.8 3.8-3.4 7.3-3.4 7.9 0 .6-.2 1.1-.3 1.2-.4.4-2.7.7-3.9.5-1.7-.2-1.8-1-.1-2.5 1-1 2.4-3.6 7.2-13.700001 3.3-6.9 6-12.6 6-12.7 0-.1-.6-.1-1.4-.1l-1.4.1-2.6 5.1c-1.3 2.8-4.2 8.9-6.4 13.4-2.6 5.400001-3.9 8.500001-3.8 8.900001.1.4 0 .8-.3 1-.5.5-3.1.8-4.2.5zm42.6-2.8c-.1-.3.1-.8.6-1.3.9-.9 6.4-12.400001 6.7-14.100001.2-.9.4-1.1 1.2-1.3.7-.1 1.1-.1 1.3.2.2.4.4.4 1.3.1.6-.2 1.1-.3 1.2-.2.1.1-.2 1-.7 2.1-.8 1.6-1 1.9-1.7 1.9-.5 0-1 .2-1.3.4-.7.6-5.7 11.100001-5.5 11.600001.3.7-.4 1.1-1.7 1.1-.9 0-1.3-.1-1.4-.5zm-5.1-.4c-.3-.3-.6-1-.6-1.6 0-1.1 6-13.700001 6.8-14.300001.8-.6 2.7-.5 3.5.2 1.5 1.4 1.4 1.5-3.1 10.900001-1.6 3.2-2.3 4.3-3 4.8-1.4.8-2.9.8-3.6 0zm5.6-7.700001c1.3-2.9 2.4-5.4 2.4-5.6 0-.5-.8-.8-1.2-.3-.7.9-5.4 11.000001-5.2 11.300001.1.3.4.3.9.1.5-.1 1.3-1.5 3.1-5.500001zm6.7 7.700001c-1-1.1-.6-2.3 2.7-9.200001 3.6-7.4 4-8 5.7-6.9.5.3.9.5 1 .4.6-.6 7-14.5 7-15.2 0-3.2-2.9-4.1-5.5-1.7-1 .9-.9 2.5.1 3.3 1 .8 1.6.8 2.5.2.7-.5.7-.5.7.3 0 2.2-1.7 3.5-3.7 3-1.8-.5-2.6-1.6-2.8-3.7-.1-2.3.6-3.6 2.5-4.8 3.7-2.3 7.9-.8 8.3 3 .2 1.5-.2 2.5-4.7 11.7-1.5 3.2-4 8.3-5.5 11.3-2.4 5.000001-2.7 5.700001-2.5 6.900001.3 1.9-.1 2.4-1.4 1.9-.7-.2-1.2-.3-1.7-.1-1.1.4-2.1.3-2.7-.4zm3.1-2.6c.3-.4 1.5-2.8 2.7-5.500001 1.7-3.6 2.2-4.9 1.9-5.1-.3-.3-.5-.3-.7 0-.4.4-5.3 10.600001-5.3 11.000001 0 .6.9.3 1.4-.4zm-32.9 2.7c0-.1.5-1.2 1.1-2.4 3.5-7.200001 6.1-12.800001 6.1-13.300001 0-.4.2-.6.9-.6.5 0 1 .2 1.1.4.1.4.3.4 1.4 0 .7-.3 1.2-.3 1.2-.1 0 .2-.4 1.1-.9 2.2-.8 1.6-1.1 1.9-1.8 1.9-.5 0-1 .2-1.2.4-.5.7-4.8 9.900001-4.8 10.400001 0 .7-1 1.4-2 1.4-.6-.1-1.1-.2-1.1-.3zm8.2-.3c-1.2-.8-.9-2.2 1.5-7.100001 1.4-2.9 2-4.6 1.8-4.8-.4-.4 1.5-4.1 2-4.1.2 0 .7-.7 1.2-1.5.5-1 1.1-1.7 2-2.1.7-.3 1.3-.5 1.3-.4.1.1-.2 1-.6 1.9-.9 2.1-.9 2-.3 2 .4 0 .2.5-.5 2-.6 1.3-1.2 2-1.5 2-.5 0-1.6 2.1-4.1 7.600001l-1 2.2.7.5c.6.4.7.5.2 1.4-.7 1-1.6 1.2-2.7.4zm-9.9-.1c-.1-.2-.9-.2-1.8-.1-1.9.2-2.3-.1-2.6-1.9-.1-.8 0-1.5.7-2.9 1.1-2.200001 2.7-3.900001 4.9-4.900001 1.4-.6 1.8-1.1 2.3-2.1.9-2-.1-3.1-1.3-1.5-.5.7-.6.7-1.1.3-.5-.4-.5-.5-.1-1.3 1.2-2.3 3.4-2.8 4.8-1.2.4.5.7 1.2.7 1.6 0 .4-1.1 3-2.4 5.7-1.3 2.800001-2.4 5.400001-2.5 6.000001-.2 1.9-1.1 3.2-1.6 2.3zm-.1-4.6c.6-1.3 1.1-2.500001 1-2.500001-.4-.4-2.5 1.800001-3 3.000001-.4 1.2-.4 1.3 0 1.6.3.2.5.3.6.3.1 0 .8-1.1 1.4-2.4zm-20.6 3.8c-1.4-.6-2-1.7-2-3.5 0-1.2.3-2.300001 1.6-5.200001 1.3-2.9 1.6-3.8 1.3-4.1-.5-.5-.9 0-2.5 3.8-1.3 2.9-1.5 3.1-2.2 3.1H38l.6-1.3c.3-.7 1.1-2.4 1.7-3.8.6-1.4 1.1-2.7 1.1-3 0-.4.4-.5 1.6-.6 3-.1 3.1.8.6 6.3-1.4 3.100001-1.8 4.200001-1.7 5.000001.2 1.3 1 2.1 1.8 2.1.9 0 1.8-.9 1.6-1.5-.1-.2-.2-.5-.2-.6 0-.3-1.1-.1-1.5.2-.3.3-.4.2-.4-.5 0-1.2 1.2-1.9 2.3-1.4.4.2 1 .8 1.2 1.2.5 1.2-.4 3-1.8 3.6-1.3.7-1 .8-2.3.2zm-8.7-6.300001c-.9-.6-.9-2 0-3.1.4-.5 1.5-1.3 2.5-1.8s1.8-1.1 1.8-1.4c0-.5-.8-.6-1.1-.2-.2.4-2 .4-2 .1 0-.4.4-.8 1.4-1.6 1.1-.9 2.7-.9 3.5-.1.6.6.5.7-.5 3-.6 1.3-1.3 3-1.5 3.8-.5 1.3-.6 1.4-1.9 1.5-1 .3-1.8.2-2.2-.2zm2.7-2.3c.7-1.4.4-1.6-.8-.5-.6.5-.8.9-.6 1.2.3.9.7.7 1.4-.7zm8.2 2.2c-.9-.9-.8-1.4.6-4.4 1.8-3.8 2.7-4.6 4.4-3.7.5.3.7.1 1.2-.9.3-.7.6-1.4.6-1.5 0-.2-.8 0-1.8.3s-2.7.7-3.9.8c-2 .2-2.1.1-3.1-.8-.8-.8-.9-1.1-.8-1.8.3-1.2 1-1.9 2.2-2.2 1-.3 2.8-.1 3.5.4.6.4.4 1.7-.3 2.4-1 .9-1.5.8-1.4-.2.1-1.1-.2-1.6-1.1-1.6-1.7 0-1.9 2-.3 2.8 1.2.6 2.8.2 6.1-1.5 1.3-.6 2.4-1.2 2.6-1.3.1-.1.4.2.6.6.3.6-.1 1.6-2.7 6.9-1.7 3.4-3.2 6.2-3.4 6.2-.2 0-.8.1-1.4.2-.8 0-1.1-.2-1.6-.7zm3.5-3.5c.8-1.9.9-3 .2-3-.2 0-.9 1.1-1.6 2.5-1 1.9-1.2 2.6-.9 2.8.7.4 1.4-.3 2.3-2.3zm-12.1-9.5c-.8-.2-.7-.9.4-1.7.6-.5 1.5-2 2.5-4 .8-1.8 2.8-6 4.4-9.4 4-8.5 3.8-7.7 3.7-12l-.1-3.7-5.7 12.2-5.7 12.2.3 1.5c.2.8.3 1.6.2 1.8-.2.3-4.2.4-5 .1-.8-.3-.6-1.5.6-3 .6-.7 1.4-2.1 1.8-2.9.7-1.5 2.2-4.9 10.2-21.9l3.4-7.3-.2-5.3c-.2-5.8 0-6.9 1.5-9.2 2.1-3.2 5.1-3.2 6.5-.1 1 2.2.8 3-2.1 9.2-2.3 5.1-2.6 5.9-2.5 6.9.1.6.3 1.3.4 1.3.1.1 1.8-3.2 3.7-7.2 3.2-6.8 3.4-7.4 3.1-8.4-.6-1.8-.3-2 2.8-2 1.5 0 3.1.1 3.5.2 1.3.4 1.1 1.1-.4 2-1.3.8-1.5 1.1-3.8 6-3.3 7.1-4.8 10.2-7.9 16.8-1.5 3.1-2.9 6.2-3.2 6.9-1.3 3-9.5 20.3-9.8 20.7-.1.5-1.5.6-2.6.3zm15.3-47.6c.9-2 1.6-3.7 1.6-3.9 0-.6-1.2-1.4-1.7-1.2-.6.2-1.7 1.9-2.1 3.3-.3 1.1 0 5.3.3 5.3.2 0 1.1-1.6 1.9-3.5zm28.9 46c-1.3-.8-1.7-2-1.7-5.1 0-2.2.2-2.9 1.4-6.1.8-2.1 1.4-4.1 1.4-4.8 0-1.1.1-1.2.9-1.2.5 0 1.1-.2 1.5-.5 1.7-1.3 2.3.1.8 2-1 1.2-2.3 4.3-2.1 4.9.1.2 1-.7 2.1-2 2.8-3.2 5.7-5.4 10.4-7.7 6.1-3 8.5-5.5 8.2-8.5-.2-1.8-.7-2.3-2.1-2.2-.9.1-1.2.3-1.4 1-.4 1 0 1.8 1 2.2.7.3.9.8.3.8-.6 0-2.1-.9-2.3-1.4-.7-1.8.6-3.6 2.5-3.6 3.1 0 4.4 2.6 3.1 6.4-.9 2.5-2.8 4.1-7.9 6.6-2.5 1.2-5.4 2.9-6.5 3.7-4.7 3.5-7.5 9-7.5 14.4 0 1.9-.4 2.1-2.1 1.1zm10.2-.6c0-.2.3-.6.7-.9.7-.6 6.7-12.7 7-14.1.3-1.3.7-1.6 2.3-1.6 1.6 0 3.5.9 3.5 1.7 0 .3-1.1 2.7-2.4 5.5-3.2 6.7-3.1 6.4-2.3 7.1.4.4.6.9.5 1.3-.1.6-.3.7-1.3.6-1.4 0-2.1-.7-2.1-2 0-.4 1.1-3.2 2.5-6.2s2.4-5.5 2.3-5.7c-.5-.8-1.3.3-4.1 6.1-2.3 4.7-3.1 6.5-2.9 7.1.2.8.1.8-1 .8-.7 0-1.5 0-1.9.2-.5.3-.8.3-.8.1zm-19.4-.8c-.5-.3-.9-.8-1.1-1.5-.6-2.4 1.4-5.5 5-7.7 1.6-1 2.2-1.6 2.7-2.7.9-2.1.2-2.7-1.5-1.2-1.6 1.4-1.9-.1-.3-1.8 1.4-1.5 2.7-1.5 4-.2 1.2 1.2 1.2 1.6-1.8 7.8-1.9 4-2.3 5.2-2.2 6 .2 1.4-.2 1.9-1.3 1.5-.5-.2-1.2-.2-1.5-.1-.8.4-1.1.4-2-.1zm2.8-4.2c1.2-2.2 1.2-2.5.1-1.8-1 .6-1.9 2-1.9 2.9 0 1.3.9.7 1.8-1.1zm13 4.3c-.8-.5-1.1-.9-1.1-1.7 0-1.1 5.9-12.8 6.8-13.5 1.1-.9 2.2-1.1 3.2-.6 1.2.7 1.1 1.6-.5 5.1-1.6 3.4-1.8 3.6-4.5 3.6-.7 0-1 .3-1.8 2.1-1.1 2.3-1.2 2.8-.6 2.8.3 0 .8-.7 1.3-1.6.4-.9.9-1.6.9-1.6.1 0 .5.2.9.4l.8.4-.9 1.8c-.5 1-1.2 2-1.5 2.3-.8.7-2.2.9-3 .5zm6.6-11.7c.8-1.9.9-2.6.1-2.2-.4.2-2.2 3.7-2.2 4.2 0 .2.3.2.6.1.4-.1.9-.9 1.5-2.1zm-49.1 10.9c-.6-.4-.7-.7-.6-1.7.2-1.2 5-11.9 5.8-12.9.8-.9 2.4-1.5 3.1-1.1 1.4.7 1.3 1.8-.5 5.6-1.4 3-1.5 3.1-2.5 3.1-.6 0-1.3.1-1.5.2-.6.2-2.7 4.3-2.4 4.6.5.5.9.1 1.6-1.2.6-1.3.7-1.4 1.3-1 .3.2.6.5.6.6 0 .5-1.5 3.2-2 3.6-.8.7-2.2.8-2.9.2zm6.3-10.9c.9-2.1 1.1-2.7.6-2.8-.3-.1-1 1.3-2.3 4.3-.1.1.1.2.4.2.3 0 .8-.7 1.3-1.7zm-.1 11.2l-.7-.2.9-1.8c1.6-3.2 3.5-10.2 3.5-13 0-1 .1-1 1.3-1.2.7-.1 1.4-.1 1.4-.1s-.3.9-.7 1.9c-.4 1-.8 2.2-.8 2.6v.8l.5-.7c.3-.4 1.1-2.2 1.8-4 1.3-3.1 1.4-3.3 2.3-3.4l1-.1-1 1.8c-.8 1.5-1 2.2-1.1 4.2l-.1 2.4.6-1.2c.3-.7.7-1.8.8-2.4.2-1.4.5-1.5 2.3-1.4l1.3.1-1.3 1.9c-1.7 2.4-3.8 6.8-5.2 10.9-1.1 3-1.1 3.1-2.1 3.2-1.2.1-1.2.1-.5-1.2.5-.9 1.5-6.5 1.3-6.7-.2-.2-2 2.4-2.7 3.8-.3.7-.6 1.7-.6 2.2-.1 1.7-.3 1.9-2.2 1.6zm18.4-22.1c-.6-.3-.5-1.2.1-1.7.3-.2 1.5-2.4 2.6-4.7l2.1-4.3-1.6-6.3c-1.4-5.7-1.6-6.4-2.5-7.1l-1-.8.8-.5c.6-.4 1.5-.5 3.8-.4 4.2.1 4.4.3 2.6 2.1l-1.1 1.1.8 3.4.8 3.4 4.1-4.1c6.1-6 10.8-9.1 15.5-10.3 4.7-1.2 9.5 1 9 4.1-.1.6-.4 1.4-.7 1.7-2.1 2.3-7.8 2.8-9.6.9-.7-.8-.4-2 .6-2.4 1-.5 1.8 0 1.8 1.1 0 1.4 1.4 1.7 3.6.6 3.4-1.6 1.9-4.4-2.4-4.4-3.8 0-9 3-14.3 8.4l-3.6 3.6-3.2 6.8c-2.4 5.1-3.2 7.1-3.2 8 0 .7-.1 1.3-.3 1.4-.5.3-4.2.6-4.7.4zm7.3-.4c-.5-.4-1.1-1.5-1.1-2.4 0-.9 5.9-13 6.6-13.6 1.6-1.3 4.3-.3 4.3 1.5 0 1.3-5.9 13.5-6.9 14.1-.7.7-2.3.8-2.9.4zm4.5-7.8c1.5-3.2 2.7-6 2.6-6.3-.1-.3-.3-.4-.5-.1-.3.3-5.9 11.8-5.9 12.1 0 .1.2.1.5.1.4.1 1.5-1.9 3.3-5.8zm.1 7.6c-.1-.3 0-.7.3-1 1-1.1 6.7-13.6 6.6-14.3-.2-.8.8-1.2 1.6-.6.4.3.8.3 1.7 0 .6-.2 1.2-.3 1.2-.3.1.1-.3 1-.8 2.2-.8 1.8-1 2-1.6 1.9-.4-.1-.8 0-1 .2-.6.8-5 10.4-5 11 0 1.2-2.6 1.9-3 .9zm4.3.1c0-.2.3-.7.7-1.2.4-.4 2.5-4.7 4.7-9.5s4.1-8.9 4.2-9.2c.5-1 3.1-.7 3.1.3 0 .3-.4 1-.9 1.4-.8.7-4.3 7.2-4.4 8 0 .1 1.4-1.2 3-2.9l3-3.1 1.8.1 1.8.1-2.7 2.1c-1.5 1.2-3.8 3.1-5.1 4.3l-2.3 2.2.9 2.7c.5 1.5 1.3 3 1.7 3.4 1.1 1 .7 1.6-1.1 1.6-2 0-2.6-.4-2-1.2.3-.5.3-1-.1-2.4-.3-1-.6-1.9-.8-2.1-.3-.3-2.2 3.3-2.2 4.1 0 .3-.3.8-.7 1.1-.7.6-2.6.7-2.6.2zm-30.8-.5c-1.3-.9-.9-2.3 2.2-9l2.9-6.2 1.1-.1c1.4-.1 2.4.8 2.4 2.1 0 .5-.6 2.3-1.4 4l-1.4 3.1-1.5.1-1.5.1-.8 1.9c-.5 1-.8 2-.7 2.2.3.6.8.2 1.4-1.1.7-1.5.8-1.5 1.5-1.1.4.2.4.5-.1 1.7-1 2.4-2.6 3.4-4.1 2.3zm5.8-10c.9-1.9 1-2.6.4-2.6-.2 0-2.2 4-2.2 4.5 0 .1.2.2.4.2s.8-.9 1.4-2.1zm-1.5 10.4c0-.1.7-1.6 1.5-3.4 2-4.1 2.8-6.6 3.2-9.9l.4-2.6H65c.9 0 1 .1.8.5-.8 1.8-1.4 3.8-1.4 4.7 0 .9.1 1 .5.6 1.2-1 2.9-5.8 2.9-8 0-1.1.2-1.3 1.2-1 .8.3.8.4-.3 4-.7 2.2-.8 4.1-.3 3.6.2-.2.6-1.3.9-2.6.5-2 .6-2.2 1.3-2.2 1.7 0 1.7.4.5 2.8-.6 1.3-1.6 3.1-2.2 4.2-1.3 2.2-2.2 4.9-2.5 7.4l-.2 1.8h-1.4c-.8 0-1.4-.1-1.4-.3 0-.2.5-1.4 1.1-2.8 1-2.2 1.4-4.7.9-4.7-.1 0-.7.3-1.2.6-1.1.7-1.4 1.5-2 5.1l-.4 2.1h-1.5c-.9.2-1.5.2-1.5.1z"/>
</svg>
