<svg xmlns="http://www.w3.org/2000/svg" viewBox="0 0 144 144">
  <circle class="color-green color-main" fill="#196e3f" cx="72" cy="72" r="70.2"/>
  <path class="color-white" fill="#fff" d="M46.447 126.042c-7.08-22.1-25.834-81.162-25.679-81.707 9.338-.233 10.272.156 15.408-.077-.39-2.802-2.49-8.56-4.28-16.42 13.15 0 75.714 0 80.228.078-1.323 5.448-2.413 10.272-4.047 15.797 6.537.389 8.56.156 15.019.233-16.108 51.514-19.377 62.02-25.835 82.018-22.022 0-28.714.078-50.814.078z"/>
  <path d="M52.284 126.275h-6.07l-.078-.233c-.233-.779-25.99-81.084-25.679-81.862l.078-.156h.233c5.058-.155 7.626-.078 9.727 0 1.79.078 3.19.078 5.37 0-.234-1.4-.856-3.501-1.635-6.147-.778-2.724-1.79-6.07-2.645-9.883l-.078-.389h6.848c20.854 0 69.722 0 73.846.078h.39l-.078.39c-.312 1.088-.545 2.178-.779 3.267-1.011 4.047-1.867 7.937-3.19 12.217 3.89.234 6.147.234 8.871.234 1.634 0 3.424 0 5.836.078h.39l-.156.389a2886.967 2886.967 0 0 0-7.704 24.745c-9.571 30.737-12.84 41.009-18.053 57.272l-.078.233h-.234c-12.84-.077-20.232 0-28.947 0-4.824-.233-9.805-.233-16.185-.233zm-5.603-.545h50.424c5.292-16.107 8.482-26.535 18.053-57.038 2.18-6.926 4.67-15.019 7.626-24.357h-5.447c-2.723 0-5.136 0-9.182-.233h-.39l.079-.39c1.323-4.435 2.256-8.325 3.19-12.45.234-1.011.467-1.945.7-2.956-5.913 0-53.07-.078-73.457-.078h-6.148c.856 3.735 1.79 6.925 2.568 9.571.856 2.801 1.479 5.058 1.634 6.536l.078.312h-.311c-2.412.078-3.89.078-5.68 0-2.024-.078-4.592-.078-9.416 0 1.167 4.435 18.52 58.828 25.679 81.083z"/>
  <path class="color-white" fill="#fff" d="M95.549 124.018c11.594-35.483 14.551-44.354 24.979-78.204H105.12c1.712-6.38 2.724-9.027 4.513-16.186-19.687-.155-60.929.078-75.17.156 1.635 7.003 2.102 8.482 4.514 16.652-6.38.078-8.637-.077-15.485 0 7.704 25.524 17.353 54.627 24.9 77.738 21.01 0 25.213-.156 47.157-.156z"/>
  <path d="M58.042 124.33h-9.883l-.077-.234c-1.09-3.19-2.101-6.38-3.19-9.727C37.81 92.814 29.871 68.38 23.18 46.36l-.078-.39h.389c3.735-.077 5.992-.077 8.482 0 1.867 0 3.89.078 6.692 0-2.412-7.937-2.801-9.415-4.436-16.34l-.077-.312h.31c15.564-.156 56.028-.311 75.17-.156h.39l-.078.39c-1.012 4.046-1.79 6.692-2.49 9.415-.545 1.868-1.09 3.891-1.79 6.459h15.485l-.156.389c-9.104 29.803-12.606 40.542-21.087 66.454l-3.891 11.984h-.234c-10.505 0-16.886 0-23.033.078H58.042zm-9.494-.467c10.895.078 17.275 0 23.89 0 6.147 0 12.45-.078 22.955-.078l3.813-11.672c8.404-25.835 11.906-36.574 21.01-66.143h-15.485l.078-.39c.7-2.723 1.323-4.824 1.867-6.77.779-2.645 1.557-5.213 2.49-9.026-19.142-.156-58.75.078-74.469.156 1.557 6.692 2.023 8.17 4.358 16.107l.156.467h-7.393c-2.412 0-4.591-.078-8.093 0 6.692 22.022 14.63 46.378 21.633 67.7 1.167 3.346 2.257 6.536 3.19 9.649z"/>
  <path class="color-white" fill="#fff" d="M50.883 121.45c-8.56-25.212-11.283-34.86-21.01-65.442-1.167-3.735-2.023-6.848-1.946-7.081 5.759 0 8.793-.078 15.019 0-1.79-6.226-2.49-8.093-4.747-16.653 26.302-.389 40.075-.233 66.843 0-1.478 6.614-1.79 8.015-3.89 15.797 7.08.389 8.948.233 15.251.389-9.182 30.581-9.649 31.904-23.344 72.99-20.621.156-23.89.078-42.176 0z"/>
  <path d="M74.227 121.84H61.31c-2.957 0-6.303 0-10.427-.078h-.234l-.077-.234c-5.914-17.43-8.95-27.235-13.618-42.02-2.023-6.536-4.436-13.929-7.393-23.422-.855-2.49-2.178-6.926-1.867-7.315l.078-.156h6.225c2.568 0 5.058-.078 8.482 0-.623-2.1-1.09-3.735-1.556-5.291-.856-2.88-1.712-5.603-3.113-11.05l-.078-.389h.39c24.978-.39 38.518-.233 62.952 0l4.202.078-.623 2.801c-1.09 4.591-1.478 6.537-3.268 12.995 3.89.234 6.147.234 8.56.312 1.79 0 3.735.077 6.38.155h.39l-.078.39c-8.249 27.624-9.571 31.437-19.687 61.94l-3.736 11.206h-.233c-8.482 0-13.929.078-18.754.078zm-23.11-.623c4.046 0 7.392 0 10.271.078 10.116.078 15.64.078 31.437-.078l3.58-10.894c10.116-30.27 11.439-34.317 19.532-61.63-2.49-.078-4.28-.156-5.992-.156-2.49-.077-4.825-.077-8.871-.31h-.467l.078-.39c1.867-6.692 2.334-8.637 3.346-13.228l.467-2.18h-3.502c-24.356-.233-37.818-.388-62.564 0a365.29 365.29 0 0 0 3.035 10.74c.467 1.711 1.012 3.345 1.634 5.68l.078.389h-.389c-3.657-.078-6.147 0-8.87 0h-5.837c.156.778.778 3.19 1.868 6.692 3.034 9.493 5.291 16.886 7.392 23.422 4.747 14.785 7.86 24.512 13.773 41.865z"/>
  <path class="color-white" fill="#fff" d="M64.734 101.063c-2.49-2.49-3.735-3.813-5.914-6.07-.156 8.404.156 9.416.078 18.131 2.179.311 3.813.078 5.836-.078-.156-3.968-.078-8.015 0-11.983z"/>
  <path d="M61.077 113.435c-.7 0-1.401-.077-2.257-.155h-.233v-.234c.077-4.124 0-6.458-.078-8.793-.078-2.49-.078-4.902 0-9.415v-.623l.389.467c2.1 2.257 3.346 3.424 5.525 5.758l.389.39v.7c-.078 3.735-.156 7.626-.078 11.439v.31h-.311c-.39 0-.856.079-1.245.079-.545.077-1.323.077-2.101.077zm-1.946-.622c1.557.233 2.802.078 4.28 0 .39 0 .623-.078 1.012-.078-.078-3.735 0-7.47.078-11.205v-.467l-.312-.311c-2.023-2.101-3.268-3.269-5.136-5.292-.077 3.969 0 6.303 0 8.715.078 2.335.078 4.747.078 8.638z"/>
  <path class="color-white" fill="#fff" d="M81.853 85.733c4.514 6.537 5.214 7.782 9.805 14.474 2.568-.078 3.735.156 6.537-.078-4.67-8.093-5.992-10.194-9.96-17.353.777-.544.855-.856 1.945-1.245 3.034-1.09 7.236-4.124 9.26-6.692 3.89-4.824 3.424-10.972-.856-13.54-1.245-.778-2.18-1.167-12.062-.934l-10.816.312c-.078 7.003 0 7.548 0 13.617.39.312 4.591-2.645 5.992-4.202-.156-1.323-.312-2.023-.078-3.501h13.54l.467 1.09c1.09 2.334-.778 4.746-5.447 7.314-1.557.778-4.125 2.957-6.148 4.28-4.357 2.879-5.291 2.567-8.248 3.89-.078 9.494-.545 10.739-.311 17.198 2.49.077 3.579.233 6.07.155.155-6.536-.234-8.015.31-14.785z"/>
  <path d="M79.752 100.596c-.933 0-1.79-.078-2.645-.078-.467 0-1.012-.078-1.557-.078h-.233v-.233c-.156-3.58-.078-5.525.078-8.249.078-2.1.233-4.746.233-8.87v-.156l.156-.078c1.011-.467 1.79-.778 2.49-1.09 1.478-.466 2.801-1.089 5.68-2.956.856-.545 1.79-1.168 2.568-1.868 1.323-1.012 2.646-1.945 3.58-2.49 4.59-2.49 6.38-4.747 5.37-6.926l-.39-.933H82.009c-.156 1.09-.078 1.79.078 2.568 0 .233.078.389.078.622v.156l-.078.078c-1.09 1.167-5.68 4.668-6.381 4.28l-.156-.078V60.132l10.972-.311c10.116-.234 10.894.233 12.217 1.011 1.79 1.09 3.113 2.88 3.502 5.136.545 2.957-.39 6.148-2.568 8.871-2.1 2.646-6.303 5.68-9.416 6.77-.7.311-1.011.467-1.322.778-.156.078-.234.234-.39.311 3.502 6.381 4.903 8.794 8.56 15.019l1.556 2.568h-.389c-1.712.155-2.723.078-3.89.078H91.58l-.078-.156a759.309 759.309 0 0 1-4.746-7.003c-1.323-1.946-2.49-3.891-4.67-6.848-.31 4.046-.31 6.147-.233 8.793 0 1.4.078 2.957.078 4.98v.311h-.311c-.7.078-1.323.156-1.868.156zm-3.968-.7c.467 0 .934.077 1.323.077 1.478.078 2.49.156 4.28.078 0-1.867 0-3.424-.078-4.669-.078-2.801-.156-5.058.31-9.571l.079-.778.389.622a319.346 319.346 0 0 1 5.136 7.47c1.245 1.868 2.49 3.814 4.669 6.848h2.49c1.09 0 2.023 0 3.424-.077l-1.09-1.79c-3.735-6.303-5.136-8.715-8.715-15.174l-.156-.234.234-.155c.233-.156.389-.311.544-.39.39-.31.7-.544 1.479-.855 2.957-1.09 7.159-4.047 9.182-6.692 2.101-2.568 2.957-5.68 2.49-8.404-.389-2.024-1.556-3.736-3.19-4.747-1.168-.7-1.946-1.09-11.906-.934l-10.505.234V73.75c.934-.39 4.124-2.568 5.447-3.969 0-.233 0-.389-.078-.467-.078-1.011-.233-1.712 0-2.957v-.233h13.851l.545 1.245c1.167 2.49-.7 5.058-5.603 7.626-.934.467-2.179 1.4-3.501 2.412-.934.623-1.79 1.323-2.646 1.868-2.957 1.945-4.358 2.49-5.836 2.957-.7.31-1.401.466-2.335.933 0 4.125-.155 6.692-.233 8.793 0 2.568-.156 4.514 0 7.938z"/>
  <path class="color-white" fill="#fff" d="M51.039 84.877c6.38 6.77 7.937 8.793 14.629 15.33 2.801 0 3.58 0 6.692-.078-4.98-5.992-9.26-10.894-14.863-17.041-.155-1.946.078-3.424 0-6.537-.155 0-1.323.545-2.334 1.012-1.09.389-2.335.544-2.957.389l-1.09-.312V66.59l6.459-.077c7.392-.078 7.937 0 8.482.467.233.233.389 3.58.311 8.715-.078 5.525 0 8.404.311 8.56.545.389 7.237-1.868 10.817-3.735 1.634-.856 4.28-2.413 5.992-3.502 3.579-2.412 10.193-8.638 9.882-9.416-2.334-.078-3.89 0-6.614-.155l-3.891 2.723c-2.412 1.634-5.058 3.89-6.303 4.591-2.724 1.323-8.56 3.346-8.871 3.113-.078-.078.467-.934 1.4-1.79 2.413-2.412 3.502-4.98 3.502-8.093 0-3.112-.622-4.824-3.346-6.77-9.338-.31-13.54-.155-24.122-.077-.234 12.372-.078 31.904-.078 38.674 2.256.155 3.89.155 5.992.078.077-6.381.233-9.027 0-15.019z"/>
  <path d="M68.08 100.518h-2.49l-.078-.078c-4.824-4.669-6.925-7.003-10.194-10.505-1.09-1.245-2.49-2.645-4.046-4.357.156 3.89.156 6.303.078 9.57 0 1.402-.078 2.88-.078 4.67v.311h-.311c-1.946.078-3.58.078-5.992-.078h-.311v-1.867c0-7.626-.078-25.68.077-37.118v-.311h6.46c6.38-.078 10.66-.078 17.897.31h.077l.078.079c2.957 2.1 3.424 3.968 3.424 7.003 0 3.19-1.09 5.914-3.58 8.326-.544.545-.933 1.012-1.089 1.245 1.323-.311 5.836-1.79 8.249-3.035.778-.389 2.023-1.322 3.346-2.412a71.79 71.79 0 0 1 2.957-2.179l4.046-2.645h.078c1.4.077 2.49.077 3.58.077 1.011 0 1.867 0 3.034.078h.234l.078.234c.389 1.09-7.004 7.703-9.96 9.649-1.713 1.09-4.359 2.646-5.993 3.501-2.957 1.479-10.271 4.203-10.972 3.736-.233-.156-.544-.39-.389-8.871.078-6.226-.155-8.249-.233-8.56-.39-.39-1.09-.39-8.249-.39l-6.225.079v10.583l.934.233c.623.156 1.79 0 2.801-.389.545-.233 1.168-.467 1.634-.7.545-.312.7-.312.779-.312h.077v.312c.078 1.478 0 2.49 0 3.501 0 1.09-.077 1.868 0 2.957 5.292 5.836 9.65 10.739 14.863 16.964l.39.39h-4.98zm-2.257-.545c2.568 0 3.346 0 6.07-.077-4.98-5.992-9.26-10.895-14.474-16.653l-.077-.078v-.077a20.773 20.773 0 0 1 0-3.113c0-.856.077-1.79 0-3.113-.078.078-.234.078-.39.156-.389.233-1.089.467-1.711.7-1.168.39-2.413.545-3.113.39l-1.245-.39V66.28l6.692-.077c7.626-.078 8.093 0 8.638.544.155.156.466.467.389 8.871-.078 6.692.155 8.093.233 8.326.778.156 6.77-1.79 10.505-3.735 1.634-.856 4.28-2.412 5.914-3.424 3.58-2.412 8.949-7.625 9.65-8.87-1.012 0-1.79 0-2.647-.078-1.089 0-2.1 0-3.501-.078l-3.891 2.646c-1.012.622-1.945 1.4-2.88 2.178-1.4 1.09-2.645 2.024-3.5 2.49-1.713.779-8.638 3.58-9.105 3.035l-.078-.077v-.156c0-.39 1.09-1.479 1.478-1.868 2.335-2.334 3.424-4.824 3.424-7.937 0-2.879-.467-4.591-3.19-6.536-7.16-.39-11.361-.312-17.742-.312h-5.914c-.156 11.44-.078 29.181-.078 36.807v1.4a42.22 42.22 0 0 0 5.37.079c0-1.712.077-3.19.077-4.514.078-3.501.156-5.992-.078-10.271v-.7l.467.466c1.79 1.946 3.19 3.502 4.591 4.903 3.19 3.58 5.37 5.914 10.116 10.582zm1.09-15.874z"/>
  <path class="color-white" fill="#fff" d="M64.578 68.07c-2.412 0-3.735 0-5.602.077-.078 4.98-.078 9.26-.156 14.474 3.035 3.19 3.268 3.657 5.603 5.914.155-8.327.155-13.307.155-20.466z"/>
  <path d="m64.656 89.157-.389-.389c-1.4-1.323-2.023-2.023-2.957-3.035-.622-.7-1.4-1.556-2.646-2.879l-.077-.078v-.155c0-5.292.077-9.572.155-14.474v-.311h.7c1.635 0 2.958-.078 5.136-.078h.234v.311c.078 6.692.078 11.672-.156 20.466v.622zm-5.603-6.614a140.55 140.55 0 0 1 2.568 2.801c.779.856 1.401 1.556 2.49 2.568.234-8.248.234-13.15.156-19.532-2.023 0-3.268 0-4.824.078l-.234-.078c-.078 4.825-.156 9.027-.156 14.163z"/>
  <path class="color-white" fill="#fff" d="M64.734 51.494c8.015-.389 12.606.156 16.341.779 3.502.544 5.836 2.023 7.16 4.59l.388 1.946h6.07l-.078-1.323c.39-3.346-2.957-7.937-7.003-9.727-1.245-.544-3.424-1.167-4.903-1.478-2.723-.39-7.626-.39-23.656-.234-.077 5.214.234 8.56.078 13.229 2.49.156 3.658.156 5.836.156-.077-2.49-.233-5.37-.233-7.938z"/>
  <path d="M62.944 59.743c-1.09 0-2.179 0-3.89-.156h-.312v-.311c.078-2.49 0-4.513 0-6.692-.078-2.023-.078-4.047-.078-6.537v-.31h.312c16.574-.234 20.932-.312 23.656.233 1.478.233 3.657.933 4.902 1.478 4.124 1.868 7.47 6.537 7.159 9.96l.156 1.635h-6.615l-.389-2.18c-1.323-2.49-3.58-3.89-6.925-4.435-3.58-.544-8.093-1.09-15.953-.778 0 1.323 0 2.801.078 4.202 0 1.167.078 2.412.078 3.502v.311h-1.4c-.234.078-.545.078-.779.078zm-3.58-.7c1.868.155 2.958.155 4.436.077h.856c0-1.089 0-2.178-.078-3.19-.077-1.556-.077-3.113-.077-4.513v-.312h.31c8.094-.389 12.685.234 16.342.779 3.58.544 5.992 2.1 7.393 4.668v.078l.31 1.79h5.526l-.078-1.09c.311-3.268-2.88-7.703-6.848-9.493-1.245-.545-3.346-1.167-4.824-1.4-2.646-.39-7.082-.39-23.345-.234-.078 2.412 0 4.358.078 6.225 0 2.335.078 4.358 0 6.615z"/>
  <path class="color-red" fill="#87151d" d="M46.447 126.042c-7.08-22.1-25.834-81.162-25.679-81.707 9.338-.233 10.272.156 15.408-.077-.39-2.802-2.49-8.56-4.28-16.42 13.15 0 75.714 0 80.228.078-1.323 5.448-2.413 10.272-4.047 15.797 6.537.389 8.56.156 15.019.233-16.108 51.514-19.377 62.02-25.835 82.018-22.022 0-28.714.078-50.814.078zm49.102-2.024c11.594-35.483 14.551-44.354 24.979-78.204H105.12c1.712-6.38 2.724-9.027 4.513-16.186-19.687-.155-60.929.078-75.17.156 1.635 7.003 2.102 8.482 4.514 16.652-6.38.078-8.637-.077-15.485 0 7.704 25.524 17.353 54.627 24.9 77.738 21.01 0 25.213-.156 47.157-.156zm-44.666-2.568c-8.56-25.212-11.283-34.86-21.01-65.442-1.167-3.735-2.023-6.848-1.946-7.081 5.759 0 8.793-.078 15.019 0-1.79-6.226-2.49-8.093-4.747-16.653 26.302-.389 40.075-.233 66.843 0-1.478 6.614-1.79 8.015-3.89 15.797 7.08.389 8.948.233 15.251.389-9.182 30.581-9.649 31.904-23.344 72.99-20.621.156-23.89.078-42.176 0zm13.851-20.387c-2.49-2.49-3.735-3.813-5.914-6.07-.156 8.404.156 9.416.078 18.131 2.179.311 3.813.078 5.836-.078-.156-3.968-.078-8.015 0-11.983zm17.12-15.33c4.513 6.537 5.213 7.782 9.804 14.474 2.568-.078 3.735.156 6.537-.078-4.67-8.093-5.992-10.194-9.96-17.353.777-.544.855-.856 1.945-1.245 3.034-1.09 7.236-4.124 9.26-6.692 3.89-4.824 3.424-10.972-.856-13.54-1.245-.778-2.18-1.167-12.062-.934l-10.816.312c-.078 7.003 0 7.548 0 13.617.39.312 4.591-2.645 5.992-4.202-.156-1.323-.312-2.023-.078-3.501h13.54l.467 1.09c1.09 2.334-.778 4.746-5.447 7.314-1.557.778-4.125 2.957-6.148 4.28-4.357 2.879-5.291 2.567-8.248 3.89-.078 9.494-.545 10.739-.311 17.198 2.49.077 3.579.233 6.07.155.155-6.536-.234-8.015.31-14.785zm-30.815-.856c6.38 6.77 7.937 8.793 14.629 15.33 2.801 0 3.58 0 6.692-.078-4.98-5.992-9.26-10.894-14.863-17.041-.155-1.946.078-3.424 0-6.537-.155 0-1.323.545-2.334 1.012-1.09.389-2.335.544-2.957.389l-1.09-.312V66.59l6.459-.077c7.392-.078 7.937 0 8.482.467.233.233.389 3.58.311 8.715-.078 5.525 0 8.404.311 8.56.545.389 7.237-1.868 10.817-3.735 1.634-.856 4.28-2.413 5.992-3.502 3.579-2.412 10.193-8.638 9.882-9.416-2.334-.078-3.89 0-6.614-.155l-3.891 2.723c-2.412 1.634-5.058 3.89-6.303 4.591-2.724 1.323-8.56 3.346-8.871 3.113-.078-.078.467-.934 1.4-1.79 2.413-2.412 3.502-4.98 3.502-8.093 0-3.112-.622-4.824-3.346-6.77-9.338-.31-13.54-.155-24.122-.077-.234 12.372-.078 31.904-.078 38.674 2.256.155 3.89.155 5.992.078.077-6.381.233-9.027 0-15.019zm13.54-16.808c-2.413 0-3.736 0-5.603.078-.078 4.98-.078 9.26-.156 14.474 3.035 3.19 3.268 3.657 5.603 5.914.155-8.327.155-13.307.155-20.466zm.155-16.575c8.015-.389 12.606.156 16.341.779 3.502.544 5.836 2.023 7.16 4.59l.388 1.946h6.07l-.078-1.323c.39-3.346-2.957-7.937-7.003-9.727-1.245-.544-3.424-1.167-4.903-1.478-2.723-.39-7.626-.39-23.656-.234-.077 5.214.234 8.56.078 13.229 2.49.156 3.658.156 5.836.156-.077-2.49-.233-5.37-.233-7.938z"/>
</svg>
