<svg xmlns="http://www.w3.org/2000/svg" width="349.99994" height="353.57724" viewBox="0 0 349.99994 353.57724">
    <path class="color-black color-main" d="M154.72832 313.56123c-3.03459-.2294-4.67795-.73-5.54421-1.6889-.40427-.4474-.39911-.4312-.97345-3.0737-.36872-1.6965-.43975-1.9013-.9237-2.6634-1.04013-1.6379-1.82708-3.1822-2.16577-4.25-.0664-.2092-.16275-.7969-.21416-1.3059-.10321-1.0218-.26305-1.4137-.77523-1.901l-.34279-.3262-2.84671-.07c-3.49593-.086-4.47611-.257-5.9756-1.0421-1.34365-.7035-2.34706-1.9739-2.72801-3.4537-.0924-.3588-.21361-1.2148-.26948-1.9024-.11636-1.4323-.39039-2.2795-1.16433-3.5996-.64995-1.1087-1.84506-2.7182-3.08282-4.1519l-1.01395-1.1745-4.19892-2.7968c-8.37308-5.5772-17.38911-11.3751-23.4407-15.0738-6.06119-3.7045-9.97435-6.1551-12.71914-7.965-1.88585-1.2436-2.58793-1.7752-3.31987-2.5137-3.81746-3.8517-6.38115-9.4951-7.5368-16.5908-.46176-2.8353-.53376-3.8676-.47524-6.8134.0435-2.1919.10264-3.008.2899-4.0033.51681-2.7469 1.75981-5.6992 3.49712-8.3061 1.39796-2.0977 2.19782-3.0502 4.43875-5.286 2.025-2.0204 3.70329-3.4547 5.93262-5.07 2.41673-1.7512 19.66581-13.306 20.12793-13.4833.0872-.034.39893-.5398.69267-1.1251 3.74483-7.4625 9.54496-14.3706 16.50483-19.6577 2.74366-2.0842 5.48363-3.8389 9.36577-5.9979 15.234-8.4722 26.4202-17.2451 31.97294-25.0753 6.46776-9.1205 9.94834-20.5075 10.02818-32.8082.0172-2.65359-.0613-3.12338-.6871-4.10821-.182-.28643-.43138-.90838-.55418-1.38211-.18532-.71497-.20475-.96145-.11435-1.4505.1474-.79736.55153-1.76107 1.25914-3.0026.80169-1.4066 1.10563-2.09872 1.36218-3.10181.26617-1.04068.2696-1.2299.0272-1.49732-.15362-.16948-.19723-.45871-.22651-1.50261l-.0363-1.29273.3624-.42542c1.18511-1.39119 1.86356-3.37225 2.01064-5.87102.079-1.34228.31177-1.91942 1.23704-3.06714.63629-.78928 1.03205-1.50907 1.13684-2.06765.0397-.2116-.0348-1.25707-.1661-2.33127-.26977-2.20684-.24341-3.16565.11929-4.33926.73843-2.38951 2.27145-4.39858 5.41869-7.1014 2.6941-2.31367 3.92072-3.6179 4.52603-4.81243l.26909-.53102-1.41443-.94223c-.77794-.51822-1.41443-.99484-1.41443-1.05915 0-.29676 2.49538-2.36086 4.75376-3.93215.33473-.23289.46033-.39532.46202-.59745.004-.42699.51534-1.35818.96085-1.74832.3793-.33216.40367-.39387.4633-1.17348.0427-.55757.20541-1.22597.50481-2.07306.24302-.68759.54948-1.72714.68101-2.3101.1343-.59525.29427-1.05923.36487-1.05833.0692.00087 1.17751.098 2.46302.21582 3.15922.28955 3.26429.28718 3.60818-.0815.15336-.16442.33373-.40581.40082-.53641.30837-.60021-.005-1.71667-.7633-2.71835l-.55092-.72787.22448-.46205.22447-.46204 1.33614.54093c1.84988.74891 4.64897 1.64821 7.09208 2.27856 1.13288.29229 2.07105.52016 2.08483.50638.0138-.0138.10491-.48924.20253-1.05659.41969-2.43959 1.0451-4.28302 1.64012-4.83447.58397-.5412 1.75851-.26309 2.74463.64988 1.20468 1.11532 2.13098 3.264 2.78635 6.46329l.34558 1.68701.64508.2428c4.6562 1.75251 5.93871 2.24927 7.65692 2.96578 8.69468 3.62578 16.0839 7.69145 21.74212 11.96288 3.74385 2.82625 7.47143 6.26898 7.9486 7.34119.31305.70342.52918 2.22487.63797 4.49088.11567 2.4093.13274 2.33985-.95192 3.87372-1.15402 1.63195-2.24129 2.59136-3.77542 3.33143-1.21528.58626-2.06722.74108-4.0903.74333-1.5538.002-1.74849-.0201-2.28293-.25626-2.40196-1.06127-8.53591-1.65863-16.07551-1.56552-3.51439.0434-3.67884.0549-4.70051.32984-3.33969.89861-4.90885 2.94446-4.89787 6.3858.007 2.05699.4576 4.71246 1.55102 9.13169.93483 3.7783 1.8542 8.61609 2.06698 10.8766.22285 2.3675.34124 3.09669.65556 4.03745.86805 2.59813 2.68249 5.3533 5.85689 8.89357 2.45057 2.733 3.88816 5.3648 4.85567 8.8893.81446 2.9669 1.12696 5.4151 1.21037 9.4822l.0635 3.0978.43987.6964c.40703.6445.50526.7271 1.31655 1.1062 3.23028 1.5094 8.42904 2.6634 14.15061 3.141 1.16619.097 4.46233.239 8.52256.3662 1.11697.035 1.51352.095 2.22753.3372 3.06878 1.0412 4.84829 3.6605 5.54405 8.1603.0935.6048.21425 2.5098.27215 4.294.15587 4.8038.404 8.1567.7643 10.3275.46788 2.8191.68097 4.9053.62421 6.1114-.0428.909-.0979 1.1541-.39531 1.7583-.42499.8633-2.64813 3.4051-6.12082 6.9982-2.6825 2.7755-3.05658 3.0707-7.82711 6.177-2.06284 1.3433-2.07892 1.3486-2.7138.9017-.41181-.29-.92104-1.1332-1.28081-2.1209l-.31166-.8557-.92755-.031-.92755-.031-.35393.5204c-2.01446 2.9626-4.75997 4.6964-7.44886 4.704-.45192 0-.70829-.049-.79726-.1561-.44623-.5377-.66597-2.9789-.44825-4.9795.48067-4.4166 2.37746-6.5398 6.05142-6.7736 1.39403-.089 1.8129-.2002 2.2744-.6054.42982-.3774.70637-1.1386.70637-1.9444 0-.8257.38673-2.1072.89272-2.9583l.46616-.784.0368-1.305c.10106-3.579-.61917-8.2535-1.64541-10.6791-.43653-1.0318-1.18609-2.1987-1.78076-2.7724-.91312-.8808-2.40232-1.5016-3.60254-1.5016-1.28185 0-4.25867.7569-8.39068 2.1334-4.21812 1.4052-11.45296 3.4545-13.96931 3.9569-.87132.174-3.77693 1.6533-4.87927 2.4842-1.9132 1.442-4.44603 3.9322-7.13356 7.0134-2.62712 3.0119-3.86074 4.2283-7.17459 7.0744-4.81913 4.139-11.84103 9.4981-21.03551 16.0544-3.19155 2.2758-7.76627 4.9342-18.20902 10.5813-3.6423 1.9697-6.41088 3.8532-7.99023 5.4358-1.42859 1.4315-1.5041 1.6094-2.01902 4.7556-.77058 4.7084-2.04567 11.15-4.19131 21.1739-1.00962 4.7167-1.45143 6.7082-2.70119 12.1756-2.19806 9.616-3.50322 18.2782-3.74256 24.839-.1351 3.7035.0707 5.5846.91602 8.3734 1.09372 3.6083 3.24895 7.8584 6.11835 12.0656 5.27733 7.7376 7.23633 10.8702 7.63972 12.2166.11209.3741.1049.4786-.0491.7136-.44991.6866-1.86797 1.004-4.80846 1.0763-1.07015.026-2.19034.029-2.48929.01zm-21.30616-47.5983c.45656-.1907.78564-.7033.87438-1.3619.0365-.271.1564-.9819.26641-1.5798.44361-2.4111.76264-5.9714.75815-8.4609-.002-1.0711-.0423-1.411-.21211-1.7851-.25693-.566-.42857-.5836-1.80294-.1854-1.7737.514-5.23924 2.348-6.70066 3.5461-1.08447.889-2.82503 2.6911-3.31804 3.4353-.84905 1.2817-1.05539 2.1845-.74049 3.24.44776 1.5008 2.33697 2.5839 5.27559 3.0243 1.59444.239 1.70134.2471 3.56377.2666 1.23262.013 1.75799-.023 2.03594-.1392zm-20.63437-17.7195c3.44012-.7236 7.69128-3.6536 9.61927-6.6297.81804-1.2627 1.18116-3.1908.84102-4.4656-.14936-.5598-.67758-1.3454-1.11567-1.6593-.18887-.1354-.93349-.6612-1.65472-1.1684-2.16717-1.5243-3.59429-2.7229-5.49525-4.6151-2.63404-2.622-4.19761-4.6837-5.52682-7.2875-.97947-1.9187-1.29902-2.8131-1.4713-4.1181-.77013-5.8336-1.73595-11.0433-2.17017-11.706-.1436-.2192-.20968-.2384-.5199-.1513-.19546.055-.55394.3085-.79662.5637-1.08138 1.1371-1.78098 4.1232-2.11119 9.0111-.12867 1.9046-.37189 3.0198-1.56687 7.1843-1.58486 5.5233-2.13631 9.3276-1.69856 11.718.3788 2.0685 1.39988 4.3694 2.99111 6.7401 1.41431 2.1071 2.23708 3.1423 3.32894 4.1887 1.37903 1.3215 2.49656 2.0027 3.90058 2.3774.77596.2071 2.50353.216 3.44615.018zm152.26294-67.3925c.32131-.1343 1.26903-1.0779 1.26903-1.2635 0-.042-.0978-.1651-.21743-.2734-.14104-.1276-.21742-.3348-.21742-.5897 0-.6037.40338-1.9267.87525-2.8707 1.07227-2.1452 1.1825-2.892.98158-6.6497-.24639-4.6082-.80336-7.5243-1.82526-9.5563-.70308-1.3981-1.98887-2.4525-2.99393-2.4551h-.40767v2.8428c0 2.8027-.004 2.8507-.26899 3.3972-.54665 1.1267-.62263 1.7135-.56921 4.3962.0309 1.5535.11421 2.8449.22545 3.4962.12797.7493.17679 1.7338.1779 3.5874.001 2.1826.0334 2.6878.22058 3.4684.5016 2.0925 1.50302 2.9923 2.75012 2.4712z"/>
</svg>
