<svg xmlns="http://www.w3.org/2000/svg" width="230" height="230.73863" viewBox="0 0 230 230.73863">
    <path class="color-black" fill="#020202" d="M104.872239 15.986832c-9.318332 2.674882-18.79371 3.344597-27.966785 7.049391-24.447821 9.873887-44.0071 29.560654-54.367028 53.70171-3.863844 9.003819-4.825373 17.500713-6.371074 26.946197-7.197094 43.979983 19.614204 87.943967 60.317068 104.832496 20.716152 8.595837 46.3563 9.335173 67.786525 3.193545 52.15268-14.946298 82.345053-73.719322 66.512899-124.867414-11.065625-35.747794-41.86597-63.86552-79.143927-69.649345-7.996284-1.240655-18.7735-3.501183-26.767678-1.20658m3.189756 6.557876c10.451335-1.233126 21.508538.45737 31.577573 3.184409 10.679956 2.89238 20.970878 7.76442 29.893437 14.330114 12.68366 9.333447 23.551397 21.883134 30.184372 36.257667 18.178157 39.397446 6.467509 88.301004-28.500235 114.320084-13.860029 10.312815-30.156583 15.731526-47.155843 17.764701-9.638318 1.152371-20.067338-.120416-29.472403-2.227692-9.844204-2.20622-19.237058-6.32562-27.788266-11.627284C12.86915 161.109844 8.4707 80.897752 58.379944 41.652719c14.457898-11.3686 31.654624-16.980988 49.68205-19.108011m24.419992 6.616344c-1.957389-5.741814-9.339384-6.268317-12.540929-1.24622-3.976248 6.236613 3.281542 16.224937 9.950305 10.655495 1.205842-1.006904 1.370887-3.03389-.436192-3.53492-1.386045-.38432-2.683673.868215-4.09119.471685-2.653359-.747547-2.904295-4.531972-1.185212-6.243392 2.432736-2.422379 5.204826 1.596352 8.303218-.102648m-47.57688 0c.535556 2.314341 1.446253 4.516814 2.28369 6.73655.677445 1.796468 1.167529 5.17569 2.643254 6.465613 1.825605 1.595257 7.075482-1.372362 8.403003-2.765985 5.253667-5.516476-1.028587-14.184057-7.8565-12.420808-1.879076.4852-3.75731 1.083911-5.473447 1.98463m55.57653-.11469c-8.484682 3.037889-4.858315 17.556079 4.210344 14.491244 8.754987-2.958903 4.529908-17.620666-4.210344-14.491244m-48.81514 1.65037c4.083613-.52103 5.875956 7.300904 1.69719 7.410668-2.207904.057976-4.71011-7.026221-1.69719-7.410668m50.505593 2.054816c4.361495-.843458 4.543382 6.204952.81807 7.16731-4.344232 1.122183-4.468859-6.461446-.81807-7.16731m-65.266635 11.56674c2.84114.371605 7.049378 3.960375 8.420687-.421035-4.973679-2.366886-2.264323-7.16592-6.33404-9.743576-1.944337-1.231441-4.014984-.582459-5.875956.423981-1.264366.683718-3.857095 1.601741-4.333285 3.09376-.72418 2.270302 4.236868 10.593772 6.176995 11.810056 1.473199.923496 3.05755-.745147 2.809562-2.221462-.167151-.996798-.672813-1.934105-.863963-2.941724m83.78583 9.262757c.67997-3.506081 1.318259-7.055906 2.159906-10.52586.373879-1.54187 1.199527-3.527636.110732-4.955911-2.679883-3.515763-8.725094 3.569908-10.690903 5.414628-.83449.78287-2.439473 1.997807-2.439473 3.274384 0 1.8091 5.58123 1.460526 6.938645 3.047614 1.468147 1.716728 1.392782 3.35034 3.921093 3.745145m-85.071669-16.09286c2.195273.168666 1.537618 3.096118-.387772 3.14542-2.367897.06063-1.976756-3.327097.387772-3.14542m34.547551 4.482584c-13.675616 1.796427-26.686419 5.46911-37.89309 13.873335-39.429782 29.569662-38.999232 90.805316 1.263104 119.474807 6.895279 4.909681 14.96398 8.775197 23.156888 10.936788 9.437063 2.489576 19.37221 3.171651 29.051368 1.936336 10.282078-1.312364 20.816357-4.947574 29.472402-10.686693 24.070954-15.96057 36.481361-43.94588 32.718999-72.55811-4.7219-35.910438-40.604551-67.858609-77.76967-62.976463m48.83998 1.50545l-.842069 2.526206h-.842068c-.227359-1.54726.19536-2.074478 1.684137-2.526206m-87.57514 8.841723c-3.278593-2.006525-6.764758-3.583173-10.104823-5.473448-1.292154-.731253-3.041552-1.974736-4.568686-1.16955-1.29666.683634-1.22803 2.058606-.863499 3.274721.809439 2.70039 2.845771 10.329237 5.220826 11.89338.767545.505662 1.554458.039577 2.064752-.595764 1.161213-1.445832 1.13132-3.189672 2.785984-4.391177 2.034017-1.476694 4.161083-.987284 5.465447-3.538162m37.89309-6.195312c6.645184-.784513 13.686142-.069934 20.209647 1.22702 49.549424 9.851237 71.961923 72.213369 40.587708 111.489977-4.774108 5.976161-10.430283 11.419714-17.009787 15.388805-9.100236 5.489866-18.906125 8.91035-29.472401 10.174294-7.081377.8467-14.509264.165888-21.472751-1.227315-48.442736-9.690526-71.279261-68.54481-42.646567-108.54265 4.733268-6.611923 10.5107-12.649976 17.384507-17.077573 10.023143-6.45652 20.63363-10.041208 32.419644-11.432558m63.997216 4.932209l6.315515 5.052412c.80628-4.887156-5.51597-13.701849-9.68-7.13906-1.178896 1.858152-.759546 3.6758.294724 5.454922.343985.58027 1.780133 2.280449 1.016377 2.980376-1.181423 1.082185-5.037676-8.336902-6.147102-3.759752-1.479093 6.102934 9.917464 12.282876 11.044994 4.988035.43535-2.81752-2.089593-5.02955-2.844508-7.576933M62.169253 52.317942h.421034l.421034.421034v.842069c-.947748-.199234-1.312785-.362216-.842068-1.263103m-15.999307 5.675121c-9.570868 1.978862-5.544432 16.99042 3.789311 15.233022 10.3966-1.957388 6.425279-17.344677-3.78931-15.233022m138.11989.293461c-2.51189.994483-.071154 3.160284-.861436 4.697901-.976379 1.899707-10.036195 5.766908-6.218677 8.424055 2.745565 1.911075 6.466245-3.935408 9.148234-4.129926 1.422254-.103153 2.226008 1.674875 3.74931 1.122478 3.19902-1.16037-3.482795-11.039268-5.81743-10.114508m-138.095219 4.39181c3.378758-1.312786 8.245033 4.710952 4.139864 6.13026-3.221672 1.114477-8.425067-4.46507-4.139864-6.13026M36.066765 74.525817c-2.35615.879962-7.165247 8.440897-5.204153 10.839108 1.310385 1.602457 5.001425 2.155275 6.886648 2.909347 1.412065.564607 4.263899 2.489155 5.778822 1.835289 1.323522-.570923 1.829984-2.894611 2.300406-4.108874 1.164791-3.006606 2.834866-6.815704-.928128-8.766356-1.036419-.53724-2.24946-.395772-3.2903-.910697-1.87394-.926697-3.203566-2.671463-5.543295-1.797817m.419392 8.948664c-4.17506-1.683716 2.046269-5.87764.661445-1.330468-.139573.458506-.447812.91996-.661445 1.330468m5.473446 2.105172c-4.712595-1.434885 2.31152-6.400143 0 0m157.464734 3.15102c-2.322425.322934-10.146085 1.590247-11.31614 3.713102-.838279 1.521197.751547 9.30149 2.91819 9.239599 2.67862-.076207.500188-4.44107 1.534249-5.822484 1.985177-2.652095 6.892332-1.28247 9.136445-3.483217 1.755292-1.72161-.34188-3.91562-2.272744-3.647M39.012363 95.443647c-2.515049.355353-11.120612.425666-12.31816 2.894611-1.917432 3.953091 6.837388 7.198424 9.37092 8.585311.946569.518293 2.508943 1.711505 3.655462 1.443306 1.990018-.465664.323186-4.664219.428192-5.945426.23999-2.929557 5.291096-7.885131-1.136414-6.977802m-2.105172 5.714278h-2.526206v-.842069l2.526206.842069m165.46607 4.390967c-2.279479.258515-9.968408-.263568-11.318244 1.756134-.715758 1.071111.026525 3.097129 1.275734 3.365328 2.736723.586921 9.01645-.113259 11.681176-.975537 3.102602-1.003746 1.069007-4.45286-1.638665-4.145925M37.88117 112.983094c-2.217335 1.254261.92876 6.299937-1.85373 6.733602-2.904463.452612-.537324-5.390923-2.603845-6.032159-2.660053-.825648-1.653444 4.76653-2.42259 5.857009-1.007955 1.42899-2.485828.07326-2.801688-1.129214-.338933-1.290891.217759-2.898822-.566586-4.068034-.54326-.81007-1.822279-1.136372-2.502796-.299355-1.202053 1.478672-.76843 9.67158.96421 10.607539 1.97983 1.069848 12.263004.344827 13.927269-1.153634 1.543554-1.390256.6097-12.071055-2.140244-10.515754m160.28217 7.54241v.421033c-1.292155.538082-2.537153 1.161213-3.78931 1.788133-9.66779 4.838948 4.58717 8.02702 9.200864 6.90328 1.38015-.336407 2.074436-2.663885 1.05427-3.698788-1.084585-1.100162-3.750995-1.019745-5.202721-1.203316 1.755713-1.442884 5.188406-2.461787 6.06121-4.670533 1.788975-4.529067-10.884159-4.789687-13.50594-3.49627-2.565362 1.26563.368827 3.455008 1.971704 3.527426 1.45678.065681 2.783458.08926 4.209923.429034M32.275814 138.208945c-3.173968-1.605825.131404-4.912208-2.23283-6.279306-1.714452-.991115-2.761311 1.692979-3.011574 2.911031-.662077 3.222176 1.746324 8.95119 5.665438 8.269115 3.178093-.552819 3.95208-3.38638 3.610959-6.163943-.1093-.889646-.516988-3.25207 1.024966-3.222597.799207.015157 1.170896.881646 1.215989 1.557406.084544 1.26605-.846658 2.426842-.621784 3.697103.42975 2.427263 2.937136 1.765818 3.791583.064839 2.497028-4.970731-3.623421-14.528632-8.466832-8.787408-1.76607 2.093383-.708138 5.444816-.975915 7.95376m165.045457 1.263103c4.7059.775124-.879962 6.318883 1.86476 7.262 2.23022.766704 4.520226-8.523419 3.580477-9.994513-.865647-1.354888-3.607843-1.600351-5.024203-2.042437-1.798658-.56124-5.577863-2.350635-7.41273-1.668138-1.74603.649235-3.872253 7.975653-3.240701 9.64379 1.574668 4.160241 4.117715-5.22714 5.950899-4.389703.827332.377668.183992 9.86315 3.19986 5.335347.308619-.462717.444192-1.091321.593238-1.618456.237042-.836595.372615-1.669401.4884-2.52789M63.924966 171.964109c-2.80451 1.104794-5.767328 6.054474-7.661225 8.348269-.828554 1.003746-1.67618 2.083278-.672518 3.297962 1.91158 2.31232 3.348275-1.37594 5.164196-.383983 1.482462.809649-1.04627 7.467043 2.970819 6.160574 1.25763-.408824 1.394465-2.5481 2.156116-3.473954 2.0757-2.522838 6.078052-2.45 5.457868-6.863702-.326722-2.322004-4.629272-8.182381-7.415256-7.085166m101.397696 1.466042c-7.572303 2.32453-5.553864 6.677183-2.105172 11.513605 1.108584 1.55488 3.112286 5.659543 5.47513 4.862525 9.355383-3.155652 6.416985-19.381052-3.369958-16.37613m-100.604046 3.901725c1.760344-.234095 3.330381 2.9064 1.177633 3.365327-2.152328.458507-3.656263-3.035657-1.177633-3.365327m99.340943 1.296365c.925433-.48461 1.867287-1.01764 2.947661-1.034903 6.07763-.096838 3.79773 9.68.216412 6.018265-.586922-.599553-1.055112-1.352362-1.537197-2.03528-.678707-.962063-1.206263-1.855077-1.626876-2.948082m-95.995826 14.736201c2.377581 1.186475 4.577064-.092206 6.734444 1.117425 1.573827.882067 2.725777 4.283604 4.57959 4.126137 1.751504-.149046 1.66898-3.155653 1.852552-4.401493.357458-2.427263 3.396063-15.017032-3.061762-10.882896-.75323.482085-1.439937 1.097637-2.105171 1.691716-1.269419 1.133846-2.504734 2.297585-3.78931 3.41543-1.67319 1.455938-3.583844 2.74767-4.210343 4.933681m82.541674-10.18861c-3.50469 1.108163-.89975 10.007565-.559976 12.714816.15831 1.26184.151151 3.768257 2.171274 3.031026 1.437411-.524608 1.765818-2.620096 3.025974-3.511847 1.780975-1.260577 6.129418.770072 6.816125-1.784344.331354-1.231525-1.044586-2.435262-1.796554-3.201966-1.775502-1.810447-6.93233-8.109542-9.656843-7.247685m-65.7003 18.188262c.99322.436613 2.482418 1.270682 3.57458.689234.917856-.488821 1.17595-1.899707 1.477831-2.794826.85091-2.524101 3.739627-7.812713 3.026395-10.434915-1.174265-4.314339-4.185502 1.706452-4.630956 2.856718l-1.510672 3.789309c-.764598 1.927495-1.46941 3.872674-1.937179 5.89448m-6.736549-12.63103l-.421034 2.94724-1.684137-.421033 2.105171-2.526206m57.260667.222727c-9.524637 2.18601-5.567335 17.245145 3.368275 15.131552 9.26444-2.191904 5.602704-17.18999-3.368275-15.131552m-28.630332 13.671405c-1.564143-.303144-4.557697-.376825-5.18167-2.1658-.82649-2.370002 3.043657-8.762146.41514-10.2745-3.684471-2.12033-4.46128 8.28806-4.921891 10.335129-.229885 1.022271-.917434 2.561152-.301882 3.551845.841648 1.354889 8.02281 2.825562 9.315385 1.893392.926275-.668182.67155-2.35695.674918-3.340066m46.313774-10.104823l-.421034-2.105172c1.87655-.031999 2.278217 1.48162.421034 2.105172m-39.99826-1.263103c0 4.063823-.121257 8.148277.006316 12.209995.047998 1.519513.474506 3.591002 2.500102 3.209545 2.335898-.439139.450928-4.385494 2.589782-4.385494 1.644981 0 2.050858 2.534627 3.137969 3.372906 1.076585.830701 2.722829.379352 3.975827.32925-.37893-1.655929-1.818868-3.344698-1.730872-5.052413.1301-2.531258 2.238219-4.454122.813438-7.139479-2.01886-3.804887-7.835028-2.81714-11.292561-2.54431m22.754377 1.946441c3.832676-1.332994 5.683122 5.886902 2.041175 7.037589-3.465955 1.09511-5.773642-5.739961-2.041175-7.037589m-17.641337 1.807922c2.357793-.157888 2.777985 2.943872.376826 3.207018-1.920758.210517-2.271059-3.080708-.376826-3.207018z"/>
    <path class="color-red color-main" fill="#8a0405" d="M64.3549 151.036632c-.939278-.116564-1.361693-.390316-1.354451-.877769.005789-.389608.968047-3.448827 2.138352-6.798268 1.170306-3.349442 2.700601-7.885363 3.400656-10.079823 1.990303-6.239 2.613972-6.59883 10.134253-5.847013 5.534797.553323 7.996425.264662 9.358503-1.097414 1.791606-1.791606 1.397689-3.230049-2.488072-9.085533-4.192813-6.318185-5.367145-9.111928-5.64875-13.438414-.163353-2.509685-.016867-3.851378.664891-6.089891 3.094652-10.161112 10.871028-13.663798 28.71387-12.933497l7.014925.287116-.23753 1.317728c-.130643.724752-1.621722 5.459443-3.313506 10.521534-3.949988 11.818998-3.587442 11.416072-10.129628 11.257873-5.428365-.131262-7.265803.274658-8.532473 1.88497-1.404525 1.785561-1.116514 4.04233 1.091577 8.553288 4.154 8.486288 4.933446 12.113591 3.776855 17.576322-1.482925 7.004041-5.814918 11.12054-14.182606 13.477099-3.9209 1.104221-16.012707 1.917003-20.406866 1.371692zm55.408457-.547143c-6.508338-.667386-11.792025-4.172404-14.462847-9.59416-1.152423-2.339414-1.383537-3.320959-1.506146-6.39664-.172144-4.318309.608219-7.558214 3.733382-15.500244 1.136761-2.888868 3.03378-8.275274 4.215597-11.969787 4.47128-13.977805 8.26443-18.618803 17.18541-21.026724 2.167822-.585132 4.546063-.744422 11.549793-.773583l8.819844-.036714-.14314 1.04998c-.199721 1.465022-5.809006 18.675007-6.560329 20.127904-.338431.65446-.921273 1.307328-1.295207 1.450816-.373929.143489-3.924604.261947-7.890391.263235-3.965787.001263-7.939046.204631-8.829467.451875-.890419.247244-2.466556 1.230835-3.502525 2.185758-2.56594 2.365198-3.985729 5.291345-4.221225 8.699824-.163049 2.359914-.055003 2.923966.797107 4.161305 2.237599 3.249194 4.404473 3.936596 11.27554 3.57696 7.60567-.398083 7.320983-1.4208 3.10804 11.165427-1.97093 5.888182-3.92785 11.057355-4.348713 11.487054-.94017.95992-3.248029 1.157285-7.924723.677722zm30.375017.847277c-2.078962-.180047-6.922482-.347375-10.76338-.371832-8.721638-.055547-8.58183.044655-6.663755-4.77586 2.163812-5.4381 14.97328-44.023901 16.607306-50.025973 1.751006-6.431775 2.82906-9.0726 4.247668-10.40516.89021-.836212 1.45256-.977815 3.695384-.930499 1.454965.030694 2.924012.219692 3.26455.419995.51919.305384-.015705 2.330681-3.312935 12.543968-3.247871 10.060392-5.174192 16.28677-8.815857 28.495178-.221384.742178.103903.762519 7.532355.47099 7.506188-.294568 12.576519-.07473 13.65544.592084.387954.239766-.371276 2.93026-2.985908 10.581186-1.92838 5.642816-3.742966 10.700908-4.032418 11.240206-1.07424 2.001497-5.473341 2.768065-12.42845 2.165717z"/>
</svg>
