<svg xmlns="http://www.w3.org/2000/svg" viewBox="0 0 192 196.1">
    <g opacity=".85">
        <path d="M170 89.6c-.2-.2-.5-.5-1-.9-1.3-1.1-1.9-1.7-3.2-2.7-.7.8-1 1.2-1.7 2 1.3 1 1.9 1.6 3.1 2.7.5.4.8.7 1 .8.2.1.4.3.6.3.5.2.9.1 1.2-.3.4-.4.4-.8.2-1.3 0-.2-.1-.4-.2-.6zM116.2 69c1.1-.3 1.9-1.1 2.2-2.6.2-1 .1-1.9-.3-2.6-.3-.4-.6-.7-1-.9s-1-.4-1.8-.5c-1.3-.2-1.9-.3-3.2-.5-.4 2.6-.6 3.9-1 6.6l3 .5c.8.1 1.5.1 2.1 0zm-80.7 44.4c-.3-.3-.7-.6-1.3-1-.9-.6-1.4-.9-2.3-1.5-1.4 2-2 3-3.4 5.1 1 .6 1.5 1 2.4 1.6.8.5 1.4.8 1.9.8 1.1.1 2-.4 2.7-1.6.5-.8.7-1.6.5-2.3 0-.5-.2-.8-.5-1.1z"/>
        <path d="M96 56.4c-44.6 0-82.2 19.1-82.2 41.7s37.7 41.7 82.2 41.7c44.6 0 82.2-19.1 82.2-41.7S140.6 56.4 96 56.4zm56.7 18.3c3.7 2.2 5.6 3.4 9.1 6.1.1.1.3.2.4.2.1 0 .3 0 .4-.1l.2.2c-.6.8-.9 1.2-1.5 2.1l-.2-.2c.1-.2.1-.3 0-.4 0-.1-.1-.2-.3-.3-2.5-1.8-3.7-2.7-6.3-4.3-.5.8-.8 1.2-1.3 2 1.6 1 2.4 1.6 4 2.7.1.1.3.1.4.1.1 0 .2-.1.4-.2l.2.2-1.5 2-.2-.2c.1-.2.1-.3 0-.4 0-.1-.1-.2-.3-.3-1.6-1.1-2.4-1.6-4-2.6-.6.9-.9 1.4-1.5 2.3 2.5 1.6 3.7 2.4 6.1 4.2.1.1.3.2.4.2.1 0 .2-.1.4-.2l.2.2-1.5 2-.2-.2c.1-.2.1-.3 0-.4 0-.1-.1-.2-.2-.3-3.3-2.4-5-3.6-8.5-5.7 0-.1.1-.1.1-.2.2.1.3.1.4 0 .1 0 .2-.1.3-.2 1.7-2.9 2.6-4.3 4.3-7.2.1-.1.1-.2.1-.4 0-.1-.1-.2-.3-.4.3-.2.3-.2.4-.3zM137 77.4h.4c.1 0 .2-.1.2-.3 1.4-3.1 2.1-4.6 3.4-7.6.1-.1.1-.3 0-.4 0-.1-.2-.2-.3-.4 0-.1.1-.1.1-.2 3.9 1.7 5.8 2.7 9.6 4.8.2.1.3.1.4.1.1 0 .2-.1.4-.2.1.1.1.1.2.1-.5.9-.8 1.3-1.3 2.2-.1-.1-.1-.1-.2-.1V75c0-.1-.1-.2-.3-.3-2.6-1.5-3.9-2.2-6.6-3.4-.4.9-.6 1.3-1 2.1 1.7.8 2.6 1.2 4.2 2.1.2.1.3.1.4.1.1 0 .2-.1.4-.2.1.1.1.1.2.1-.5.9-.7 1.3-1.2 2.2-.1-.1-.1-.1-.2-.1v-.4c0-.1-.1-.2-.3-.3-1.7-.9-2.5-1.3-4.2-2.1-.6 1.3-.9 1.9-1.5 3.2-.1.1-.1.3 0 .4 0 .1.1.2.3.3 0 .1-.1.1-.1.2-1.2-.6-1.9-.9-3.1-1.4 0 .1.1 0 .1-.1zm4.2 21.2c-1.4 17.6-27.3 23-41.3 24.2-14.4 1.3-52.7-1-52.8-22.5-.1-17.5 28.5-23.1 41.3-24.2 15.7-1.4 51.1 1 52.8 22.5zM121.3 72c.2 0 .3 0 .4-.1s.2-.2.2-.3c.9-3.2 1.3-4.9 2.2-8.1v-.4c-.1-.1-.2-.2-.4-.3 0-.1 0-.1.1-.2 4.1 1.1 6.2 1.7 10.2 3.2.2.1.3.1.4 0 .1 0 .2-.1.3-.3.1 0 .2.1.3.1-.4 1-.5 1.4-.9 2.4-.1 0-.2-.1-.3-.1 0-.2 0-.3-.1-.4s-.2-.2-.3-.2c-2.8-1-4.2-1.5-7-2.3-.3.9-.4 1.4-.7 2.3 1.8.5 2.7.8 4.5 1.4.2.1.3.1.4 0 .1 0 .2-.1.3-.3.1 0 .2.1.3.1-.3.9-.5 1.4-.8 2.4-.1 0-.2-.1-.3-.1 0-.2 0-.3-.1-.4s-.2-.2-.3-.2c-1.8-.6-2.6-.9-4.4-1.4-.3 1-.5 1.6-.8 2.6 2.7.8 4.1 1.2 6.8 2.2.2.1.3.1.4 0 .1 0 .2-.1.3-.3.1 0 .1.1.2.1-.4 1-.5 1.4-.9 2.4-.1 0-.1-.1-.2-.1 0-.2 0-.3-.1-.4s-.2-.2-.3-.2c-3.7-1.4-5.6-2-9.4-3.1zm-13.4-2.6c.2 0 .3-.1.4-.1.1-.1.1-.2.2-.3.4-3.3.6-5 1.1-8.3 0-.1 0-.3-.1-.4-.1-.1-.2-.2-.4-.2v-.2c2.6.3 3.9.5 6.6 1 1.4.3 2.5.6 3.2 1.1 1 .6 1.7 1.5 2 2.5.2.8.2 1.7 0 2.6-.4 1.7-1.3 2.8-2.6 3.4-.6.3-1.2.4-1.8.4-.7 0-1.5-.1-2.5-.2-2.4-.4-3.6-.6-6-.9-.1-.2-.1-.3-.1-.4zm-8.4-4.1c-.3-.1-.8-.2-1.7-.3-.5-.1-.8-.1-1.3-.1-.8-.1-1.5-.2-1.8-.2-.4-.1-.7-.2-1.1-.3-.5-.2-.9-.5-1.2-1-.2-.4-.3-.9-.4-1.4 0-.8.3-1.5 1-2.1.9-.7 2.2-1.1 4-1.1.8 0 1.5.1 2.1.2.7.2 1.5.4 2.4.8.3.1.5.2.6.2s.3 0 .4-.1c.1 0 .1.1.2.1-.6.9-.9 1.3-1.5 2.2-.1-.1-.1-.1-.2-.1V62c0-.2-.1-.3-.5-.6-1-.6-2.2-1-3.5-1-.6 0-1.1 0-1.6.2-.3.1-.6.2-.8.4-.2.2-.3.4-.3.6 0 .4.3.6.8.8.3.1.8.1 1.7.2.5.1.8.1 1.3.1.8.1 1.4.2 1.9.4.5.1.9.3 1.3.6s.6.6.8 1c.2.4.3.8.2 1.3 0 .7-.3 1.3-.9 1.8-.5.5-1.2.8-2.1 1-.7.2-1.5.2-2.2.2-1.4 0-2.8-.3-4.3-.9-.2-.1-.3-.1-.4-.1s-.2.1-.3.2c-.1 0-.1-.1-.2-.1.4-1 .7-1.5 1.1-2.5.1 0 .1.1.2.1v.1c0 .2.1.4.4.6.4.3.9.5 1.6.7s1.4.3 2.1.3 1.3-.1 1.8-.3c.3-.1.5-.3.7-.5s.3-.4.3-.6c0-.3-.2-.5-.6-.7zM80.4 60v.2c-.2.1-.3.2-.3.4 0 .1.1.2.3.3 2.9 1.9 4.3 2.9 6.9 5-.2-2.3-.3-3.5-.5-5.9 0-.1-.1-.3-.1-.3-.1-.1-.2-.1-.4-.2v-.2c1.4-.1 2.1-.2 3.5-.2v.2c-.2.1-.3.1-.4.2-.1.1-.1.2-.1.3.2 3.4.3 5 .5 8.4 0 .1.1.3.1.3.1.1.2.1.4.2v.2c-1.4.1-2 .1-3.4.2v-.2c.2-.1.3-.2.3-.3 0-.1-.2-.3-.4-.5-2.6-2.1-4-3.1-6.9-5 .3 2.4.5 3.6.9 6 0 .1.1.3.2.3.1.1.2.1.4.1v.2c-1.3.2-1.9.3-3.1.5V70c.2-.1.3-.2.4-.3.1-.1.1-.2.1-.4-.6-3.3-.8-5-1.4-8.3 0-.1-.1-.2-.2-.3s-.2-.1-.5-.1v-.2c1.3-.1 2.1-.2 3.7-.4zm-6 1v.2c-.2.1-.3.2-.4.3s-.1.2-.1.4c.7 3.3 1 4.9 1.6 8.2 0 .1.1.3.2.3.1.1.2.1.4.1v.2c-1.3.3-2 .4-3.3.7 0-.1 0-.1-.1-.2.2-.1.3-.2.3-.3.1-.1.1-.2 0-.4-.7-3.3-1.1-4.9-1.8-8.2 0-.1-.1-.2-.2-.3h-.2c0-.1 0-.1-.1-.2 1.5-.4 2.2-.5 3.7-.8zm-15.9 4.3c0 .1 0 .1.1.2-.2.1-.3.3-.3.5 0 .1.1.2.2.3 1.9 1.5 2.8 2.3 4.6 3.8.6-2.3.9-3.4 1.6-5.7.1-.3.1-.4.1-.5-.1-.2-.2-.3-.5-.2 0-.1 0-.1-.1-.2 1.7-.5 2.6-.7 4.4-1.2 0 .1 0 .1.1.2-.2.1-.3.2-.4.3s-.1.2 0 .4c.8 3.3 1.2 4.9 2.1 8.1 0 .1.1.2.2.3.1.1.2.1.4.1 0 .1 0 .1.1.2-1.3.3-2 .5-3.3.9 0-.1 0-.1-.1-.2.2-.1.3-.2.3-.3.1-.1.1-.2 0-.4-.7-2.3-1-3.5-1.6-5.9-1 3.1-1.5 4.7-2.2 7.8-2.4-2.1-3.6-3.1-6.2-5.1.8 2.3 1.3 3.4 2.1 5.7.1.1.1.2.2.3.1 0 .2.1.4 0 0 .1 0 .1.1.2-1.2.4-1.8.7-3 1.1 0-.1-.1-.1-.1-.2.2-.1.3-.2.3-.3v-.4c-1.2-3.1-1.8-4.7-3.1-7.8-.1-.1-.1-.2-.2-.3h-.5c0-.1-.1-.1-.1-.2 1.8-.6 2.7-.9 4.4-1.5zM51.4 68c.2-.1.3-.2.3-.3.1-.1.1-.2.1-.4.1 0 .2-.1.3-.1.4.9.6 1.4 1 2.4-.1 0-.2.1-.3.1-.1-.1-.2-.2-.3-.2s-.2 0-.4.1c-2.7 1.2-4.1 1.8-6.7 3.2.4.8.6 1.3 1.1 2.1 1.7-.9 2.5-1.3 4.3-2.1.2-.1.3-.2.3-.3-.1-.1-.1-.3-.1-.5.1 0 .1-.1.2-.1.4.9.6 1.4 1 2.3-.1 0-.1.1-.2.1-.1-.1-.2-.2-.3-.2s-.2 0-.4.1c-1.7.8-2.5 1.2-4.2 2 .5 1 .7 1.5 1.2 2.4 2.6-1.3 3.9-1.9 6.5-3.1.2-.1.3-.1.3-.2.1-.1.1-.2.1-.4.1 0 .1-.1.2-.1.4.9.6 1.4 1 2.4-.1 0-.1.1-.2.1-.1-.2-.2-.3-.3-.3s-.2 0-.4.1c-3.7 1.6-5.5 2.4-9 4.4 0-.1-.1-.1-.1-.2.1-.1.2-.3.3-.4 0-.1 0-.2-.1-.4-1.6-2.9-2.4-4.4-4-7.4-.1-.1-.2-.2-.3-.2h-.5c0-.1-.1-.1-.1-.2 3.8-2 5.7-3 9.7-4.7zM31.5 79c.1.1.1.1.1.2-.2.2-.2.3-.3.4 0 .1 0 .2.1.3.7 1 1.1 1.6 1.8 2.6 2.2-1.6 3.4-2.3 5.7-3.8-.7-1.1-1-1.6-1.7-2.7-.1-.1-.2-.2-.3-.2s-.3 0-.5.1c0-.1-.1-.1-.1-.2 1.3-.8 2-1.2 3.3-2 0 .1.1.1.1.2-.2.1-.3.3-.3.4s0 .2.1.4c1.7 2.9 2.5 4.4 4.2 7.3.1.1.2.2.3.2h.4c0 .1.1.1.1.2-1.2.7-1.8 1-3 1.8 0-.1-.1-.1-.1-.2.1-.1.2-.3.2-.4s0-.2-.1-.4c-.7-1.2-1.1-1.8-1.9-3-2.3 1.4-3.4 2.1-5.6 3.7.8 1.2 1.2 1.8 2.1 2.9.1.1.2.2.3.2s.3 0 .4-.1c.1.1.1.1.1.2-1.2.8-1.7 1.2-2.9 2.1-.1-.1-.1-.1-.1-.2.1-.2.2-.3.2-.4s0-.2-.1-.3c-2-2.7-3-4-5-6.7-.1-.1-.2-.2-.3-.2-.1 0-.3 0-.5.1-.1-.1-.1-.1-.1-.2 1.5-.9 2.2-1.4 3.4-2.3zm-9.4 17.5c-.8-.2-1.6-.6-2.2-1.2-.8-.8-1.3-1.9-1.3-3.1 0-1.9 1.1-3.8 3.1-5.6.8-.7 1.5-1.2 2.1-1.5s1.5-.6 2.7-.9c.5-.1.8-.2.9-.3.1-.1.2-.2.2-.4h.3c0 1.1 0 1.6-.1 2.7h-.3c0-.1-.1-.1-.1-.2-.1-.1-.2-.2-.4-.2s-.5.1-.9.2c-1.1.3-2.2.8-3.1 1.6-1.1.9-1.7 1.9-2 2.9-.3 1.2 0 2.1.7 2.9s1.7 1.1 2.8.9c1-.1 1.9-.6 3-1.5.8-.7 1.5-1.6 2-2.6.2-.4.3-.6.3-.8 0-.2 0-.3-.1-.4l-.1-.1c0-.1.1-.2.1-.3 1 .2 1.5.4 2.5.6 0 .1-.1.1-.1.2-.2 0-.3 0-.4.1s-.2.3-.5.8c-.5 1-.9 1.7-1.3 2.3-.4.5-.9 1.1-1.6 1.7-1.4 1.2-2.7 1.9-4.1 2.2-.6.1-1.4.2-2.1 0zM32.6 120c-.6-.2-1.4-.6-2.2-1.1-2-1.3-3-1.9-5-3.3 0-.1.1-.1.1-.2.2.1.3.1.4.1s.2-.1.3-.2c1.8-2.5 2.6-3.8 4.4-6.3.1-.1.1-.2.1-.3 0-.1-.1-.2-.2-.4 0-.1.1-.1.1-.2 1.8 1.3 2.8 1.9 4.6 3.1 1 .6 1.8 1.2 2.2 1.8.6.8.9 1.7.9 2.6 0 .8-.2 1.5-.7 2.3-.8 1.4-1.8 2.1-3.2 2.3-.6 0-1.2 0-1.8-.2zm16.3.7c-.1 0-.1-.1-.2-.1v-.4c0-.1-.1-.2-.3-.2-2.3-1-3.4-1.6-5.6-2.7-.4.8-.6 1.1-1 1.9 1.5.8 2.2 1.1 3.7 1.8.1.1.2.1.3.1s.2-.1.3-.2c.1 0 .1.1.2.1-.4.8-.6 1.2-1 2.1-.1 0-.1-.1-.2-.1v-.4c0-.1-.1-.2-.3-.2-1.5-.7-2.2-1.1-3.7-1.9-.5.9-.7 1.3-1.1 2.2 2.4 1.2 3.6 1.8 6 2.9.1.1.3.1.4.1.1 0 .2-.1.3-.2.1 0 .1.1.2.1-.4.9-.6 1.3-1 2.1-.1 0-.1-.1-.2-.1v-.4c-.1-.1-.1-.2-.3-.2-3.5-1.6-5.2-2.4-8.6-4.3 0-.1.1-.1.1-.2.2.1.3.1.4 0 .1 0 .2-.1.2-.2 1.5-2.7 2.2-4 3.7-6.7.1-.1.1-.2.1-.3 0-.1-.1-.2-.2-.3 0-.1.1-.1.1-.2 3.1 1.7 4.6 2.5 7.8 3.9.1.1.2.1.3 0 .1 0 .2-.1.3-.2.1 0 .1.1.2.1-.3.8-.5 1.2-.9 2.1zm11.8 12.4c-.1 0-.1 0-.2-.1 0-.2 0-.3-.1-.4-.1-.1-.2-.1-.3-.2-3.5-1.1-5.3-1.7-8.7-3 0-.1 0-.1.1-.2h.4c.1 0 .2-.1.2-.3 1.1-2.9 1.7-4.3 2.8-7.2 0-.1.1-.2 0-.3 0-.1-.1-.2-.3-.3 0-.1 0-.1.1-.2 1.1.4 1.7.7 2.8 1.1 0 .1 0 .1-.1.2H57c-.1 0-.2.1-.2.3-.9 2.6-1.4 3.9-2.4 6.5 2.4.9 3.6 1.3 6 2 .1 0 .3.1.4 0 .1 0 .2-.1.3-.3.1 0 .1 0 .2.1-.2 1-.4 1.4-.6 2.3zm2-5.2c-.1-.2-.1-.3-.2-.5.4-.1.8-.3 1-.4.2-.2.4-.4.6-.7-.2 0-.4 0-.5-.1-.3-.1-.5-.3-.6-.5-.1-.3-.1-.5 0-.8s.3-.5.5-.7c.2-.1.5-.2.8-.1.4.1.6.3.8.7.1.3.2.7 0 1.2-.4.9-1.1 1.5-2.4 1.9zM76 129h-.2c0-.2-.1-.3-.1-.4-.1-.1-.2-.1-.3-.2-2.4-.4-3.6-.7-6-1.2-.2.8-.3 1.3-.5 2.1 1.6.4 2.4.5 3.9.9h.3c.1 0 .2-.1.2-.3h.2c-.2.9-.3 1.4-.4 2.3h-.2c0-.2-.1-.3-.1-.4-.1-.1-.2-.1-.3-.2-1.6-.3-2.4-.5-4-.9-.2 1-.3 1.5-.6 2.4 2.6.6 3.9.9 6.5 1.3h.4c.1 0 .2-.1.2-.3h.2c-.2.9-.2 1.4-.4 2.3h-.2c0-.2-.1-.3-.1-.4-.1-.1-.2-.1-.3-.2-3.7-.7-5.6-1.1-9.2-2 0-.1 0-.1.1-.2.2 0 .3 0 .4-.1s.1-.1.2-.3c.8-3 1.1-4.5 1.9-7.4v-.3c0-.1-.1-.2-.3-.3 0-.1 0-.1.1-.2 3.3.9 5 1.2 8.4 1.9h.3c.1 0 .2-.1.2-.3h.2c-.3 1-.3 1.4-.5 2.4zm6.1 7.7c.1.1.2.1.4.2v.2c-1.3-.1-1.9-.2-3.2-.4v-.2c.2 0 .3-.1.4-.1.1-.1.1-.2.1-.3.4-2.7.5-4.1.9-6.8-1.2-.2-1.8-.2-3-.4h-.3c-.1 0-.2.1-.2.3H77c.2-.9.2-1.4.4-2.3h.2c0 .2.1.3.1.4.1.1.2.1.3.1 3.2.5 4.8.7 8 1 .1 0 .3 0 .3-.1.1-.1.1-.2.2-.3h.2c-.1.9-.1 1.4-.2 2.3h-.2c0-.2-.1-.3-.2-.3-.1-.1-.2-.1-.3-.1-1.2-.1-1.8-.2-3-.3-.3 2.7-.5 4.1-.8 6.8 0 .1 0 .2.1.3zm11.6 1.1v-.2c.3 0 .5-.2.5-.4 0-.1 0-.2-.1-.4-.3-.5-.4-.8-.7-1.3-1.8 0-2.8-.1-4.6-.2-.3.5-.5.7-.8 1.2-.1.2-.2.3-.2.4 0 .2.1.3.5.4v.2c-1.4-.1-2-.1-3.4-.3v-.2c.2 0 .4-.1.5-.1.1-.1.2-.2.4-.5 1.7-2.7 2.6-4 4.1-6.7.1-.2.2-.4.2-.5 0-.2-.1-.4-.4-.5v-.2c1.4.1 2 .1 3.4.1v.2c-.3.1-.4.2-.4.4 0 .1 0 .3.1.4 1.4 2.8 2.1 4.2 3.7 7 .2.3.3.5.4.6s.3.2.5.2v.2c-1.4.3-2.2.3-3.7.2zm12.1-7.5c-.1-.2-.1-.3-.2-.3-.1-.1-.2-.1-.3-.1-1.2.1-1.8.1-3 .2.1 2.8.2 4.1.4 6.9 0 .1 0 .2.1.3s.2.1.4.2v.2c-1.3.1-1.9.1-3.2.1v-.2c.2-.1.3-.1.4-.2.1-.1.1-.2.1-.3-.1-2.8-.1-4.1-.2-6.9-1.2 0-1.8.1-3 .1-.1 0-.3 0-.3.1-.1.1-.1.2-.2.3h-.2v-2.3h.2c.1.2.1.3.2.3.1.1.2.1.3.1 3.2 0 4.8-.1 8-.4.1 0 .3-.1.3-.1.1-.1.1-.2.2-.3h.2c.1.9.1 1.4.2 2.3h-.4zm15.4 4.3c-.3.3-.6.5-1.1.7-.4.2-1 .4-1.6.5-2.8.5-4.2.7-7 1.1v-.2c.2-.1.3-.1.4-.2.1-.1.1-.2.1-.3-.4-3-.6-4.6-1-7.6 0-.1-.1-.2-.1-.3-.1-.1-.2-.1-.4-.1v-.2c2.6-.3 3.9-.5 6.4-1 .6-.1 1.1-.2 1.5-.2s.7.1 1.1.2c.6.3 1.1.8 1.2 1.6.2.9-.1 1.6-.9 2.2 1.2.2 1.9.7 2.1 1.7.1.8-.1 1.5-.7 2.1zm12.5-2.2l-.3-.3h-.4c-3.6 1.1-5.4 1.6-9.1 2.5v-.2c.2-.1.3-.2.3-.3.1-.1.1-.2 0-.3-.7-3-1.1-4.5-1.8-7.5 0-.1-.1-.2-.2-.3-.1-.1-.2-.1-.4-.1v-.2c3.3-.8 5-1.2 8.3-2.3.1 0 .2-.1.3-.2s.1-.2.1-.4c.1 0 .1 0 .2-.1.3.9.4 1.3.7 2.2-.1 0-.1 0-.2.1l-.3-.3h-.3c-2.3.7-3.5 1.1-5.9 1.7.2.8.3 1.3.5 2.1 1.6-.4 2.3-.6 3.9-1.1.1 0 .2-.1.3-.2s.1-.2.1-.4c.1 0 .1 0 .2-.1.3.9.4 1.3.7 2.2-.1 0-.1 0-.2.1l-.3-.3h-.4c-1.6.5-2.4.7-3.9 1.1.2 1 .4 1.4.6 2.4 2.6-.7 3.8-1 6.4-1.8.1 0 .2-.1.3-.2.1-.1.1-.2.1-.4.1 0 .1 0 .2-.1.3.9.4 1.3.7 2.2-.1.4-.1.5-.2.5zm10.9-4.1c-.1-.1-.2-.2-.3-.2s-.2 0-.4.1c-3.4 1.4-5.1 2.1-8.6 3.3 0-.1 0-.1-.1-.2.2-.1.3-.2.3-.3v-.3c-1-2.9-1.5-4.4-2.5-7.3 0-.1-.1-.2-.2-.3-.1 0-.2-.1-.4 0 0-.1 0-.1-.1-.2 1.1-.4 1.7-.6 2.9-1 0 .1 0 .1.1.2l-.3.3v.3c.9 2.6 1.4 3.9 2.4 6.5 2.4-.9 3.6-1.3 5.9-2.3.1-.1.2-.1.3-.2s.1-.2.1-.4c.1 0 .1-.1.2-.1.4.9.6 1.3.9 2.2 0-.2-.1-.2-.2-.1zm6.4-3.3c-1.5.8-2.9 1-4.2.9-1.6-.2-2.7-1.1-3.3-2.5-.6-1.3-.5-2.6.1-3.9.6-1.2 1.7-2.2 3.3-2.9.5-.3 1-.5 1.5-.6s1.1-.3 1.7-.4c.3-.1.6-.1.7-.2.1 0 .2-.2.2-.3h.2v2.5h-.2c-.1-.1-.1-.2-.2-.2s-.2-.1-.3-.1c-.4 0-.8 0-1.4.2-.6.1-1.1.3-1.5.5-.9.5-1.6 1.1-2 1.9-.4.9-.5 1.8-.1 2.7.4.9 1.1 1.4 2 1.6s1.9 0 2.9-.5c.5-.3 1-.6 1.4-.9.4-.4.8-.7 1.1-1.1-.2-.4-.4-.7-.6-1.1-.9.5-1.4.7-2.3 1.2-.1.1-.2.2-.3.2v.4c-.1 0-.1.1-.2.1-.4-.8-.6-1.1-.9-1.9.1 0 .1-.1.2-.1.1.1.2.2.3.2s.2 0 .4-.1c1.7-.9 2.6-1.3 4.3-2.3 0 .1.1.1.1.2-.1.1-.2.2-.2.3 0 .1 0 .2.1.3.4.7.5 1 .9 1.6.1.1.1.2.2.2h.4c0 .1 0 .1.1.1-1.2 1.8-2.7 3.2-4.4 4zm15.7-9c-.1-.1-.3-.2-.4-.2-.1 0-.2 0-.4.1-3.2 2.2-4.9 3.3-8.2 5.2 0-.1-.1-.1-.1-.2l.3-.3c0-.1 0-.2-.1-.3-1.6-2.7-2.3-4-3.9-6.6l-.2-.2h-.4c0-.1-.1-.1-.1-.2 3-1.8 4.5-2.7 7.5-4.8.1-.1.2-.2.2-.3v-.4c.1-.1.1-.1.2-.1.5.8.8 1.2 1.3 1.9-.1.1-.1.1-.2.1-.1-.1-.2-.2-.3-.2s-.2 0-.3.1c-2.1 1.4-3.1 2.1-5.3 3.4.5.7.7 1.1 1.1 1.8 1.4-.9 2.1-1.3 3.5-2.2.1-.1.2-.2.2-.3v-.4c.1-.1.1-.1.2-.1.5.8.8 1.1 1.3 1.9-.1.1-.1.1-.2.1-.1-.1-.2-.2-.3-.2s-.2 0-.3.1c-1.4.9-2.1 1.4-3.6 2.3.5.8.8 1.3 1.3 2.1 2.3-1.4 3.5-2.2 5.7-3.7.1-.1.2-.2.2-.3v-.4c.1-.1.1-.1.2-.1.5.8.8 1.2 1.4 1.9-.2.4-.3.5-.3.5zm5.3-22.6c-1.1 1.1-2.6 1-4.4-.3-.1 1.4-.1 2.2-.2 3.6 0 .6-.1 1 0 1.3 0 .2.1.4.3.6l-.2.2c-1.2-1.2-1.8-1.8-3-2.9l.2-.2c.2.2.4.2.5.1s.1-.3.1-.7c.1-1.5.1-2.3.2-3.8-1-.8-1.4-1.3-2.4-2.1-.8 1-1.3 1.5-2.1 2.5-.1.1-.1.2-.1.3 0 .1.1.2.2.4-.1.1-.1.1-.1.2-1.1-.9-1.6-1.4-2.8-2.2.1-.1.1-.1.1-.2.2.1.3.1.4.1.1 0 .2-.1.3-.2 2.1-2.6 3.1-4 5.2-6.6.1-.1.1-.2.1-.3 0-.1-.1-.3-.2-.4.1-.1.1-.1.1-.2 2.5 1.9 3.7 2.9 6 5 .7.6 1.2 1.2 1.6 1.7.4.5.6.9.8 1.4s.2 1 .1 1.5c-.1.4-.3.8-.7 1.2z"/>
        <path d="M53.3 98.6c-.1 13.5 19.3 19.3 29.5 21.1 15.5 2.7 50.6 2.1 52.3-19.4-1.1-13.7-18.3-19.1-29.5-21.1-14-2.4-52.1-2.1-52.3 19.4zm45.5-15.2c1.8.1 3.3.5 4.4 1s2 1.2 2.8 2.1c1.6 1.8 2.3 3.9 2.2 6.4-.1 2.8-1.4 4.7-3.8 5.9 3 1.4 4.3 3.5 4.2 6.7-.1 2.5-1 4.7-2.7 6.7-.9 1-1.9 1.8-3 2.3-1.1.6-2.5 1-4.2 1.1-6 .4-12-.6-17.7-3.1v-.6c.4.1.7 0 .9-.1.2-.1.2-.4.2-.8-.3-7.6-.6-15.1-.9-22.7 0-.4-.1-.7-.3-.8-.2-.1-.5-.2-1-.1v-.6c6-2.7 12.5-3.8 18.9-3.4z"/>
        <path d="M97.9 96.2c1.6 0 2.7-.2 3.3-.7.7-.6 1.1-1.5 1.1-2.8s-.3-2.3-1-2.9-1.8-1-3.4-1.1c-3.6-.1-7.2.1-10.7.7 0 2.4.1 4.7.1 7.1 3.5-.3 7.1-.3 10.6-.3zm3.6 6.2c-.8-.6-2.1-.9-4-.9-3.4 0-6.7 0-10.1-.1.1 2.8.1 5.5.2 8.3 3.2.5 6.6.7 9.8.6 1.8 0 3.1-.5 3.9-1.1.9-.8 1.4-1.9 1.4-3.5.2-1.5-.3-2.6-1.2-3.3zm16.8 27.6c.2-.2.3-.5.2-.9-.1-.4-.2-.6-.5-.7-.3-.1-.7-.1-1.2 0-1.5.3-2.2.4-3.7.6.1.8.2 1.3.3 2.1 1.5-.2 2.2-.4 3.7-.6.7-.1 1.1-.3 1.2-.5zm.6 1.9c-.3-.1-.8-.1-1.5 0-1.5.3-2.2.4-3.7.6.1 1 .2 1.5.4 2.4 1.5-.2 2.2-.3 3.7-.6.7-.1 1.2-.3 1.4-.5.3-.3.4-.6.3-1.1 0-.3-.2-.6-.6-.8zm-29.4 2.2c1.3.1 2 .1 3.3.1-.6-1.3-.9-2-1.5-3.3-.7 1.3-1.1 2-1.8 3.2z"/>
        <path d="M96 49.3C46.7 49.3 6.7 71.1 6.7 98s40 48.7 89.3 48.7 89.3-21.8 89.3-48.7-40-48.7-89.3-48.7zm0 92.5c-45.7 0-84.3-20-84.3-43.8S50.3 54.3 96 54.3s84.3 20 84.3 43.8-38.6 43.7-84.3 43.7z"/>
    </g>
</svg>
