<svg xmlns="http://www.w3.org/2000/svg" viewBox="0 0 192 196.1">
    <g fill="#006531" opacity=".85">
        <path d="M45.6 44l22.5 108.1h55.8L146.4 44H45.6zm29.8 45.2c-.8-.1-2.1-.4-3.7-.8s-2.5-.6-2.6-.6c-.6-.2-1.1-.4-1.4-.5-4.5-1.7-8-4-10.5-7.1-2.3-2.9-3.5-6.1-3.5-9.6 0-1.9.3-3.7 1-5.5.7-1.7 1.7-3.5 3.2-5.2 2.5-3 5.6-5.5 9.3-7.5 3.7-2 7.1-3 10.1-3 1.5 0 3.3.2 5.4.7l1.5.4.7.2 2 .7 2.7.9c-1.6 1.4-3.1 3-4.4 4.8l-.8 1.1c-.4-1.5-1.1-2.7-2-3.6-1.1-1.2-2.1-2-2.9-2.5-.8-.5-1.8-.7-2.7-.7-.6 0-1.5.1-2.7.4-1.2.2-2.6.9-4.2 2-1 .7-1.9 1.6-2.8 2.7-.9 1.1-1.7 2.5-2.4 4.1-.5 1.2-.9 2.6-1.1 4.1-.2 1.5-.4 3.3-.4 5.2 0 1.7.2 3.2.5 4.6.3 1.4.8 2.8 1.3 4 1.2 2.6 2.3 4.5 3.4 5.6 1.1 1.1 2.6 1.8 4.6 2.3l2.1.4.5.1 1.5.2c1.5.3 3.2.4 4.9.4V76.7l.2-7.7v-3.3c0-.4-.1-.7-.3-1.1-.3-.3-.6-.7-1.1-1.2.5.1 1.4.1 2.5.2 1.1 0 1.9.1 2.5.1h4.9l1.2-.2c-.5.7-.9 1.2-1 1.7-.1.4-.2 1.2-.2 2.3V83c0 1.8.1 3.1.2 3.9.2.7.6 1.5 1.2 2.3l-.8.2H77.7c-.6 0-1.4-.1-2.3-.2zm34.4 53.1H95.2c-.4 0-1.4 0-3 .1s-2.9.1-3.8.1c-.1 0-.7 0-1.6-.1-1-.1-2.1-.1-3.3-.1.8-.4 1.3-1.2 1.5-2.4.2-1.2.3-3.5.3-7v-10.2c0-1.5 0-3.6-.1-6.3-.1-2.8-.1-4.8-.1-6.1v-2c0-.6.1-1.1.2-1.6 0-.7-.1-1.2-.2-1.5-.1-.3-.5-.9-1.2-1.7l-.6-.7 12-.1c-.5.7-.9 1.6-1 2.8-.1 1.2-.2 3.5-.2 7v27.7l1.3.2c.8.1 1.4.2 2 .2 1.2 0 3.1-.5 5.7-1.4 2.2-.7 4.4-2 6.7-3.8l.7-.5.3-.3 4.7 7.7h-5.7zM133.9 88c-.3-.1-.7-.2-1-.3h-.6l-2.8.8-2.7.6c-.9.2-2 .3-3.2.3h-3.9c-2.3 0-4.4-.3-6.3-.8-1.9-.6-3.7-1.4-5.7-2.6-3-1.8-5.5-3.8-7.4-6.2-1.2-1.6-2.2-3.2-2.8-4.9s-.9-3.5-.9-5.3c0-3.5 1.1-6.8 3.4-9.8 2.5-3.2 6-5.8 10.7-7.9 2.2-1 4.7-1.7 7.5-2.2l2.6-.3h4.5l.7.2.7.2.7.2.5.2 1 .4c.5.3 1.1.4 1.6.4s1.1-.2 1.6-.5l-.7 2.4-.9 2.4-.3.8-.6 1.6-.8-1.4-.5-1-.2-.5-1.2-1.2c-1-1-1.8-1.7-2.5-2.1-.7-.4-1.7-.6-2.8-.6-.4 0-.9 0-1.5.1s-1.4.2-2.4.3c-2.8.4-5.1 1.5-6.7 3.1-1.7 1.6-3 4.2-4 7.7-.3 1-.5 2-.6 2.9-.1 1-.2 2.2-.2 3.8 0 5.8 1.1 10.4 3.4 13.6 2.3 3.3 5.5 5.1 9.6 5.5.2 0 .5.1.9.1h1c.4 0 .8 0 1.3-.1s.8-.1 1-.1c1.6-.3 2.8-.7 3.6-1.2.7-.5 1.6-1.6 2.7-3.2.2-.3.4-.7.7-1.2.2-.5.4-1 .5-1.5.3.4.7 1.2 1.2 2.4.1.4.3 1 .6 1.7l1 1.8c.2.3.5.9.8 1.9l-.4-.2-.2-.3z"/>
        <path d="M32.2 32.1L59.7 164h72.6l27.5-131.9H32.2zM127.1 156H64.9L40.7 40h110.5l-24.1 116z"/>
    </g>
</svg>
