<svg xmlns="http://www.w3.org/2000/svg" viewBox="0 0 192 196.1">
    <path fill="#e7cb00" d="M96 8.8L6.7 98.1 96 187.3 185.3 98 96 8.8zm0 142.5c-29.4 0-53.2-23.8-53.2-53.2S66.6 44.8 96 44.8c29.4 0 53.2 23.8 53.2 53.2s-23.8 53.3-53.2 53.3z" opacity=".8"/>
    <path fill="#e7cb00" d="M57.8 70.9h5.9c.7 1.3 1.5 2.7 2.2 4.2.7 1.5 1.4 3.1 2.1 4.8l-.3-9h6.9v51.7h-6.9v-20.3c0-5.9-.3-10.1-.8-12.7-.5-2.6-1.3-4.9-2.5-6.9.1 1.5.2 3.1.2 4.7.1 1.6.1 3.4.1 5.2v29.9h-7V70.9zm21.1 0H86c3.6 0 6 .7 7.4 2 1.4 1.4 2.1 3.7 2.1 7.1v7.3c0 2.3-.2 3.8-.6 4.6-.4.7-1.1 1.2-2.1 1.4 1 .5 1.8 1.3 2.3 2.4.5 1.1.8 2.6.8 4.4v13.2c0 3.4-.7 5.8-2 7.1-1.4 1.4-3.8 2-7.4 2h-7.4V70.9zm9.7 15.6v-5.7c0-1.5-.2-2.4-.5-2.9s-.9-.7-1.8-.7h-.4v12.9h.4c.9 0 1.5-.2 1.8-.7.3-.5.5-1.4.5-2.9zm.2 26.1V100c0-1.4-.2-2.3-.5-2.8s-1-.7-1.9-.7h-.5v19.8h.3c1 0 1.7-.2 2.1-.7.3-.6.5-1.6.5-3zm10.7-41.7h8.1c3.4 0 5.8.7 7 2.2 1.3 1.5 1.9 4.2 1.9 8.3V112c0 4.1-.6 6.8-1.9 8.3-1.3 1.5-3.6 2.2-7 2.2h-8.1V70.9zm9.9 40.8v-30c0-2-.2-3.2-.5-3.8-.4-.5-1-.8-2-.8h-.4v39.1h.4c1 0 1.7-.3 2-.8s.5-1.7.5-3.7zm27.3-24.5h-7.2v-6.9c0-1.6-.1-2.6-.3-3.1-.2-.5-.6-.7-1.2-.7-.5 0-.9.2-1.1.6-.2.4-.3 1.5-.3 3.2V83c0 3 1.1 5.8 3.4 8.4.3.3.5.6.6.7l.1.1c4 4.7 6 9.1 6 13.4v4.7c0 4.9-.7 8.2-2 10.1-1.3 1.9-3.5 2.8-6.7 2.8s-5.4-.9-6.7-2.8c-1.3-1.9-1.9-5.2-1.9-10.1v-7.4h7.1V113c0 1.7.1 2.7.3 3.2.2.4.6.7 1.1.7.6 0 1-.2 1.2-.7.2-.5.3-1.5.3-3.2v-4.5c0-2.5-.3-4.6-.8-6.1s-1.9-3.5-4-5.9c-2.3-2.6-3.7-4.8-4.4-6.5-.6-1.7-.9-4-.9-6.8v-2.8c0-3.4.7-5.9 2.2-7.6 1.4-1.7 3.6-2.6 6.4-2.6 3.1 0 5.4.9 6.7 2.8s2 5.3 2 10.2v4z" opacity=".8"/>
</svg>
