<svg xmlns="http://www.w3.org/2000/svg" viewBox="0 0 192 196.1">
    <g fill="#243189" opacity=".85">
        <path d="M96 187.3c-49.2 0-89.3-40.1-89.3-89.3S46.8 8.8 96 8.8s89.3 40.1 89.3 89.3-40.1 89.2-89.3 89.2zm0-172.6c-46 0-83.4 37.4-83.4 83.4S50 181.4 96 181.4 179.4 144 179.4 98 142 14.7 96 14.7z"/>
        <path d="M9.7 103.5h171.8v5.9H9.7zm19.6 47.6c13.6 19.1 38 31.9 65.9 31.9s52.2-12.7 65.9-31.8H29.3z"/>
        <path d="M95.2 185.4c-27.8 0-53.2-12.3-67.9-32.9l-2.8-3.9h141.4l-2.8 3.9c-14.7 20.7-40.1 32.9-67.9 32.9zm-60.9-31.8c14.1 16.9 36.5 26.9 60.9 26.9s46.7-10 60.9-26.9H34.3zM67 129.3v-15c0-.9.3-1.3.9-1.3.3 0 .6.1.7.3.1.2.2.6.2 1.1v1.9l-.1 8-.1 7.4.1 7.7.1 7.8c-3.3-2-8.1-4.9-14.3-8.5s-11.4-6.4-15.3-8.5v1.2l.2 12.3v1.6c0 .7-.3 1-1 1s-1-.4-1-1.3v-4.4l.1-12.2-.2-16.4c6.4 4.1 16.3 9.8 29.7 17.3zm18.9-10c2.6 0 5 .7 7.3 2.1 2.1 1.3 3.7 3.1 4.8 5.3 1 2 1.5 4.1 1.5 6.3 0 1.5-.3 3.1-.9 4.6-.6 1.5-1.4 2.9-2.4 4.1-1.4 1.6-3.1 2.9-5.1 3.7-1.7.7-3.4 1-5.2 1-3 0-5.7-.9-8.1-2.7-1.9-1.4-3.3-3.1-4.3-5.3-.8-1.8-1.2-3.7-1.2-5.7 0-3.9 1.4-7.2 4.3-9.8 2.8-2.3 5.9-3.5 9.3-3.6zm-.6 1.5l-.1 24h1c2.2 0 4.3-.6 6.3-1.9 1.9-1.2 3.4-2.8 4.4-4.8.8-1.6 1.1-3.3 1.1-5.2 0-3.8-1.4-6.9-4.2-9.3-2.3-1.9-4.8-2.9-7.4-2.9-.3.1-.6.1-1.1.1zm30.1 6.5v9.1l.1 9.5h-12.2v-6.2l.1-8.7-.1-9.7v-1.4h12.2v4.9c1.8-1.9 3.1-3.2 3.8-3.7 1.6-1.2 3.2-1.7 4.7-1.7.9 0 1.6.2 2.2.6.6.4.9.9.9 1.5 0 .5-.2.8-.5 1.1-.3.3-.8.5-1.3.5-.3 0-.7-.1-1.1-.3-.7-.3-1.3-.5-1.7-.5-1.1 0-2.2.4-3.3 1.2-1.3.7-2.5 2-3.8 3.8zm43-13.8v19.8l.1 11.5v1.1h-12.2v-3.1c-1.3 1.3-2.6 2.2-3.8 2.8-1.2.6-2.6.8-4.1.8-3 0-5.7-1.1-8-3.3-2.9-2.7-4.4-6.2-4.4-10.4 0-4.1 1.4-7.4 4.2-10 2.5-2.3 5.3-3.4 8.4-3.4 1.4 0 2.7.3 4 .8 1.3.5 2.5 1.3 3.7 2.4l-.1-9h12.2zm-12.1 10.9c-1.2-1.1-2.4-2-3.3-2.5-1-.6-1.9-.8-2.6-.8-.6 0-1 .2-1.2.7-.2.4-.3 1.3-.3 2.5v17c0 1.3.1 2.1.2 2.4.2.7.7 1 1.4 1 .8 0 1.6-.3 2.5-.9.9-.6 2-1.6 3.4-3.1v-16.3zm-31.2-24.5c-2.8-5.8-6.3-16-8.5-22.4l-2.8-9.6-.7-2.5-.4-2.1c-.5-1.6-.8-3.4-1.2-5-1.7-6.4-3.7-13.1-4.3-19.9-.6-6.8-1.1-13.6-2.3-20.3.1 1.3.1 2.6.2 3.9-.1-1.3-.1-2.6-.2-3.9-.4 6.7-.8 13.4-1.5 20.1-.6 6.7-1.3 13.4-2.5 19.9-.3 1.6-1.2 3.2-1.6 4.7-.4 1.5-.4 3.1-.9 4.6-1.1 3.1-2.8 6.2-3.5 9.3-1.4 6.5-6.5 16-9.4 22l9.5-.4c1-2.7 1.9-5.4 2.8-8.1l.2.1c.7-2.5 5.4-4.3 7.8-4.4 2.8-.1 6.6 2.2 7 5.2h.2c.7 2.8 1.6 5.5 2.6 8.3l9.5.5zM95.5 77.1c-1.3 0-2.7.3-3.9.7.8-2.9 1.6-5.8 2.2-8.8.4-1.7 1.9-2.8 2.2-4.7.2-1.8-.7-4-.6-5.7 0-.7.1-1.4.1-2.2.1.9-.2 1.3-.1 2.2.2 1.7.2 4 .6 5.7l1.3 2.5.6 2.5 1.8 8.3c-1.3-.3-2.7-.5-4.2-.5z"/>
    </g>
</svg>
