<svg xmlns="http://www.w3.org/2000/svg" viewBox="0 0 192 196.1">
    <circle fill="#c33327" stroke="#342923" stroke-miterlimit="10" stroke-width="2.0942" cx="96" cy="98.1" r="95"/>
    <g fill="#342923">
        <path d="M148.7 83.9c1.1-1.5 1.9-2.6 2.7-3.6l-.3-.3c-.9.9-1.9 1.8-2.7 2.9-5.2 7.4-4.6 6.2-12.3 6.4-3.1.1-6.2.1-9.3.1-.6 0-1.2-.1-2.1-.1 1-1.6 1.8-2.9 2.6-4.2.8-1.2 1.7-2.4 2.4-4-.9.8-2 1.5-2.7 2.4-3.1 4.5-6 9-8.9 13.6-4.7 7.3-4.1 6.6-12.4 6.7H104c-.2.7-.4 1.4-.5 2.1s-.1 1.4 0 2.1c1.9-3.7 1.9-3.6 6.2-3.7 2.8 0 5.4-.3 7.2-2.9.3-.4 1.1-.5 1.7-.5h11c3.1 0 4 1.8 2.5 4.5-1.7 3.1-4.5 4.4-7.8 4.5-4.6.1-9.2.1-13.8.1h-2c-.7 4.3-1.2 8.5-2 12.7-.5 2.8-1.2 5.5-2.1 8.2-.8 2.5-1.7 2.8-4.3 2.7-.7 0-1.6.2-2.1.6-2.4 2.3-5.7 1.3-6.9-1.4-1.7-3.6-3.4-7.4-4.3-11.2-2.9-13.1-1.9-26 3-38.6.7-1.9 2.1-3.6 3.4-5.1 1.5-1.6 2.9-1.4 4.6.1.6.5 1.4.9 2.2.9 2.5 0 3.8 1.3 4.3 3.5 1.2 5.2 2.2 10.4 3.3 15.7.3 1.5.3 3 .4 4.5 3.4 1.1 5.2.4 7.1-2.5 3.4-5.2 6.8-10.3 10-15.6 2.2-3.6 5.4-5.4 9.5-5.6 5.7-.2 11.5-.2 17.2-.2 9.8-.1 19.5-.1 29.3-.1.9 0 1.8.2 2.7.2-1 3-4 5-7.4 5-7.1.1-14.2.1-21.4.1h-6.3zm-57.2 8c1.7-4.7 2.1-9.8 5.9-13.8-2-.9-2.9.4-3.5 1.4-1.3 2.5-2.6 5.1-3.4 7.7-2.9 9.8-3.5 19.8-2.1 29.9.5 3.9 1.7 7.6 2.6 11.4.2-.1.5-.1.7-.2-2.1-6.1-3.5-12.3-3.5-18.8s.3-12.9 2.1-19.7c.6 1.1.9 1.6 1.2 2.1-2.5 12.7-2.6 25.2 2 37.5-.7-2.5-1.3-5.1-2.1-7.9h4.4v-.3c-1.5-.1-3-.3-4.4-.4 0-.3 0-.5.1-.8 1.3-.1 2.7-.1 4-.2v-.2c-1.5-.1-2.9-.3-4.4-.4 0-.3 0-.5.1-.8 1.5-.1 3-.1 4.5-.2v-.6H93c-1.6 0-1.6 0-1.7-1.2 1.4-.1 2.8-.2 4.2-.2v-.4c-1.5-.1-3-.1-4.6-.2v-.8c1.5-.1 2.9-.2 4.4-.3v-.4c-1.4-.1-2.9-.2-4.3-.3v-.6h4v-.4c-1.3-.1-2.7-.1-4-.2v-.5l4.2-.3v-8.5c-1.5-.1-2.9-.1-4.3-.2v-.7l4.5-.3v-.7c-1.5-.1-2.9-.2-4.4-.3v-.6c1.4-.1 2.8-.1 4.2-.2v-.4c-1.3-.1-2.6-.1-3.9-.2v-.6l4.2-.3v-.3c-1.4-.1-2.7-.2-4.1-.3v-.7c1.4-.1 2.8-.2 4.1-.3v-.3c-1.3-.1-2.6-.2-3.9-.4v-.7h4.2v-.5l-4.2-.3v-.8c1.4-.2 2.7-.3 4.1-.5v-.1c-1.2-.1-2.5-.2-3.7-.3v-.8c1.4-.1 2.8-.1 4.2-.2V92c-1.8.1-3.3 0-4.7-.1zm9.8 12c.1-.1.3-.1.4-.2-1.1-2.2-1.9-4.5-3.3-6.5-1.7-2.4-.1-4.5-.2-6.7h.5v6h.7c.2-2.6.4-5.2.4-7.8 0-.6-.8-1.3-.7-1.9.2-1.3.7-2.7 1.3-3.9.2-.5 1-.8 1.5-1.2.3.6.9 1.1.9 1.7.1 2.2 0 4.4 0 6.7.4-1.8-.2-3.8.5-5.2.9-1.7 0-2.6-.5-3.7-.8-1.6-1.8-1.7-2.5 0-1.1 2.4-2.1 4.9-2.7 7.4-2.2 8.3-2.5 16.7-1.8 25.1.5 5.6 1.3 11.2 3.8 16.3.5 1 1.4 1.8 2.2 2.6.7-1 1.8-1.8 2.1-2.9 1.1-4.5 2-9.1 2.8-13.7.4-1.9.4-3.9.6-6h-2.7c.6 1.6 1.5 3.2 1.7 4.8.3 1.8-.9 2.7-3.6 3v9.4c0 .8 0 1.7-.1 2.4-.1.5-.6.9-.9 1.3-.4-.3-.9-.5-1.1-.9-.5-1.6-1-3.2-1.2-4.9-.2-1.7.2-3.5.2-5.3 0-.4-.1-.8-.2-1.2h-.5c-.1 1.6-.2 3.1-.3 4.7-.6-2.9-.9-5.8.9-8.5-.7.8-1.4 1.7-2.2 2.6-1.3-2.7-1.1-5.2.4-7.1-.7-.7-1.6-1.2-1.6-1.6.2-1.7-1.1-3.9 1.2-5.2-1.9-2.3-.6-4.7 0-7.1 1.5 2.6 2.7 5.1 4 7.5zM88.6 90.7c-3 7.2-3 27.6-.3 30.5-1.9-10.4-1.3-20.5.3-30.5zm14.4 11.2h.4c.3-.6.6-1.2.8-1.9.4-1.4.9-2.9 1-4.3 0-.4-.9-.9-1.3-1.4-.3.5-.8 1-.9 1.5-.1 2 0 4 0 6.1z"/>
        <path d="M63.8 80.6c1.7 2.6 3.4 5.3 5.4 8.5H64c-3.9 0-7.8-.1-11.7.1-2.1.1-3.7-.6-5-2.2-1.4-1.8-2.8-3.6-4.4-5.2.4.7.7 1.4 1.2 2.3-.5 0-.8.1-1 .1-9.1-.2-18.2-.3-27.3-.4-2.8 0-5-1.3-6.8-3.2-.5-.5-.6-1.3-.9-2 .7-.2 1.4-.5 2.1-.5 14.7.1 29.5.2 44.2.4 2.5 0 5 0 7.5.4 2.9.4 5 2.1 6.5 4.7l8.1 14.1c3.1 5.4 3.9 5.2 8.1 5.9v6.2c-6.1 0-12 .2-17.9-.1-3.5-.2-6.3-2.2-7.6-5.7-.8-2.1 0-3.4 2.3-3.4 4.3 0 8.7 0 13 .1.6 0 1.3.5 1.9.9 1.1.7 2.1 1.4 2.9 2-2-3.2-4-6.4-5.9-9.6-2-3.4-3.9-6.8-5.8-10.2-1.2-2-2-2.7-3.7-3.2z"/>
        <path d="M75.3 100c-5.6 0-10.7.1-15.8 0-3-.1-6.8-4.1-7.3-7.1-.2-1.6.4-2.5 2-2.5 5 0 9.9 0 14.9.1.4 0 .9.3 1 .6 1.7 2.8 3.3 5.7 5.2 8.9zM50 89.9h-.5c-8.9-.1-17.7-.2-26.6-.2-3.2 0-5.9-1.2-8.1-3.5-.4-.4-.5-1.2-.7-1.8.6-.2 1.1-.6 1.7-.6 9.2.1 18.5.2 27.7.4.5 0 1.1.3 1.5.6 1.7 1.7 3.4 3.5 5 5.1zm.4 1.2c.9 2.3 1.6 4.2 2.4 6.1-.1 0-.3.1-.6.1-7.4 0-14.7 0-22.1-.2-3.2-.1-5.9-1.5-8-4-.3-.4-.5-1.1-.4-1.5.1-.3.8-.5 1.3-.5h27.4zm89.1 5.9c.6-1.8 1.1-3.5 1.7-5.6H171c-.5 2.6-3.5 5.5-6.5 5.6-8.3.1-16.6 0-25 0zm4-6.8c1.2-1.3 2.4-2.7 3.7-4 .6-.6 1.4-1.2 2.1-1.2 9.2-.1 18.4-.1 27.6-.1.5 0 .9.1 1.4.2-.5 2.4-3.3 5.1-6 5.1-9.8.1-19.4 0-28.8 0zM118 99.7c2-3.1 3.8-6 5.6-8.8.2-.3.9-.5 1.3-.5h12.3c1.7 0 2.4 1 2.2 2.7-.3 2.6-3.2 6.3-5.9 6.4-5.1.4-10.1.2-15.5.2zm-59.6 1.5l-.6 1.8c-6.6 0-13.2.1-19.7-.1-2.6-.1-4.7-1.7-6.5-3.5-.3-.3-.5-.9-.4-1.1.1-.3.7-.5 1.1-.5 6.9 0 13.9.1 20.8.1.4 0 .8.2 1.2.5 1.4.9 2.6 1.8 4.1 2.8zm75.2.4c1.6-1.1 3-2.2 4.5-3.1.5-.3 1.1-.6 1.7-.6 6.5-.1 13.1-.1 19.6-.1.6 0 1.2.2 2.3.4-2.5 3-5.2 4.7-8.8 4.7-5.9 0-11.8-.1-17.7 0-1.3 0-1.6-.5-1.6-1.3z"/>
    </g>
</svg>
