<svg xmlns="http://www.w3.org/2000/svg" width="200" height="200" viewBox="0 0 200 200">
  <circle class="color-brightGreen color-main" fill="#95c054" cx="100" cy="100" r="100"/>
  <path class="color-black" d="M55.413 18.234v12.25h25.499v139.032H55.413v12.25h48.86c8.405 0 15.1-6.695 15.1-15.1v-63.532c0-4.843-3.988-8.832-8.832-8.832 4.844 0 8.832-3.989 8.832-8.832V33.333c0-8.404-6.695-15.1-15.1-15.1zm37.322 12.25h8.262c3.989 0 7.265 3.277 7.265 7.265v43.163c0 3.988-3.276 7.265-7.265 7.265h-8.262zm0 70.086h8.262c3.989 0 7.265 3.276 7.265 7.265v54.558c0 3.989-3.276 7.265-7.265 7.265h-8.262z"/>
  <path class="color-white" fill="#fff" d="M17.806 74.359v10.969h25.071v29.06h-25.07v10.968h63.39v-10.969h-27.35v-29.06h1.993l37.465 40.03h13.533l37.464-40.03h1.994v29.06h-27.493v10.97h63.39v-10.97h-25.07v-29.06h25.07V74.36H139.46L100 116.667 60.541 74.359z"/>
  <path class="color-black" d="M182.194 126.068h-63.39c-.285 0-.713-.285-.713-.712v-10.969c0-.284.285-.712.712-.712h26.781V86.04h-.997l-37.322 39.886c-.142.142-.285.142-.427.142H93.305c-.143 0-.285-.142-.428-.142L55.556 86.04h-1.14v27.778h26.638c.285 0 .712.285.712.712v10.969c0 .284-.285.712-.712.712H17.806c-.285 0-.712-.285-.712-.712v-10.97c0-.284.285-.711.712-.711h24.36V86.04h-24.36c-.285 0-.712-.285-.712-.712V74.359c0-.285.285-.712.712-.712h42.735c.143 0 .285.142.428.142L100 115.67l39.031-41.737c.143-.143.285-.143.428-.143h42.735c.285 0 .712.285.712.712v10.97c0 .284-.285.711-.712.711h-24.36v27.778h24.36c.285 0 .712.285.712.712v10.969c0 .142-.285.427-.712.427zm-62.678-1.282h62.108V115.1h-24.359c-.285 0-.712-.285-.712-.713v-29.06c0-.284.285-.712.712-.712h24.359V74.93h-41.88l-39.317 42.165c-.142.142-.285.142-.427.142-.142 0-.285-.142-.427-.142L60.256 75.071h-41.88v9.687h24.359c.285 0 .712.285.712.712v29.06c0 .285-.285.712-.712.712H18.376v9.687h62.108v-9.687H53.846c-.285 0-.712-.285-.712-.712V85.328c0-.285.285-.713.712-.713h1.994c.143 0 .285.143.428.143l37.322 39.886h12.963l37.322-39.886c.142-.143.285-.143.427-.143h1.994c.285 0 .713.285.713.713v29.06c0 .284-.285.712-.713.712h-26.78z"/>
  <path class="color-black color-reserved-white" d="M55.413 18.234v12.25h25.499v57.55l11.823 12.82v-.427h8.262c3.989 0 7.265 3.277 7.265 7.265v54.559c0 3.988-3.276 7.265-7.265 7.265h-8.262v-33.049l-11.823-.285v33.334H55.413v12.25h48.86c8.405 0 15.1-6.695 15.1-15.1v-63.532c0-4.843-3.988-8.832-8.832-8.832 4.844 0 8.832-3.989 8.832-8.832V33.333c0-8.404-6.695-15.1-15.1-15.1zm37.322 12.25h8.262c3.989 0 7.265 3.277 7.265 7.265v43.163c0 3.988-3.276 7.265-7.265 7.265h-8.262z"/>
</svg>
