<svg xmlns="http://www.w3.org/2000/svg" width="200" height="200" viewBox="0 0 200 200">
  <circle class="color-red color-main" fill="#c62631" cx="100" cy="100" r="100"/>
  <g class="color-white" fill="#fff">
    <path d="M151.567 53.134c-9.83 0-13.818-.143-16.81-.712-4.558-.855-8.119-1.852-10.113-2.85-.997-.427-1.14-.427-1.282.57-.143 1.14-.997 2.85-1.71 3.704-.712.855-2.136 1.71-3.418 2.137-2.137.712-5.84-.285-7.408-2.137-.712-.855-1.424-2.421-1.71-3.561-.284-1.567.143-3.704 1.283-5.413a4.03 4.03 0 0 0 .427-.855c0-.142-.285-.427-.854-.712a66.81 66.81 0 0 1-2.85-1.994c-1.14-.855-2.848-1.995-3.846-2.707-.997-.712-2.279-1.567-2.991-1.994-.712-.428-1.282-.855-1.425-.713-.142 0-1.14.855-2.279 1.71-1.14.855-3.419 2.421-4.986 3.561-3.846 2.564-3.56 2.28-3.133 2.85.427.569.997 1.566 1.424 2.848.285.712.285 1.282.285 2.564-.143 1.71-.143 1.995-1.14 3.277-1.424 1.994-3.134 2.849-5.698 2.991-1.424 0-1.71 0-2.706-.57-1.995-.997-3.704-2.991-4.131-4.843-.285-1.14-.143-1.14-4.416.57-.143.142-.855.285-1.425.427-.57.142-1.424.427-1.71.427-1.139.285-4.842.998-7.264 1.282-4.416.428-7.835.57-15.527.57-4.559 0-8.262 0-8.262.143s.142.427.57.712c.712.57 1.709 1.567 4.7 4.416l1.425 1.424v34.188c0 37.18 0 35.043.997 39.46.427 1.993.57 2.563 1.567 4.842.855 2.28 2.422 5.414 3.419 7.265 2.279 3.562 2.991 4.559 5.128 6.553 1.994 1.994 2.991 2.85 5.128 4.559a32.535 32.535 0 0 0 1.995 1.566c.284.143 3.988 2.707 4.273 2.85.142 0 .712.427 1.14.712.57.427 1.567.997 2.136 1.282.57.285 1.567.997 2.28 1.282.57.427 1.14.712 1.282.712 0 0 .57.285 1.282.712.712.428 1.282.713 1.282.713s1.14.57 2.564 1.424c1.424.855 2.849 1.567 3.276 1.852.428.285 1.71.997 2.992 1.71 1.14.712 2.279 1.424 2.421 1.566 2.85 1.71 8.405 5.983 10.257 7.977.427.428.854.855.997.855.285 0 1.282-.855 3.419-2.706 2.279-1.995 7.265-5.698 10.399-7.55.142-.143.997-.57 1.851-1.14 2.564-1.567 3.277-1.994 9.687-5.128 8.12-3.989 9.26-4.7 12.393-6.98 2.992-2.137 4.131-3.276 7.835-6.98 2.28-2.28 4.131-5.413 5.555-8.832.285-.57.428-1.14.57-1.425 1.14-2.849 2.564-8.689 3.42-14.102.142-.997.284-11.539.284-34.188V60.54l.57-.57c.57-.427 2.137-1.851 3.988-3.56.285-.286.713-.713.998-.855l.997-.998c.427-.427.712-.712.712-.854 0-.428-4.558-.57-10.114-.57z"/>
    <path d="M118.946 87.464c0-.427.142-.997.142-1.14.143-.142.285-1.139.428-1.994.142-.854.285-2.564.427-3.56.142-.998.427-2.707.427-3.562.143-.855.285-1.71.428-1.994.142-.143.142-.855.142-1.425 0-.57.143-1.282.143-1.71.142-.427.285-1.424.427-2.278.142-.855.285-2.137.427-2.85.285-1.566.428-1.709 1.71-1.281.427.142.997.284 1.282.284.57 0 .997.428.712.998-.142.427-.57 2.991-.855 5.128-.142 1.282-.427 3.276-.854 4.843-.143.57-.285 1.567-.428 2.28-.142.57-.285 1.994-.427 2.99-.143.998-.427 2.422-.427 3.135-.143.712-.285 1.709-.428 2.136-.285.998-.427 1.14-1.424.855-.285 0-.855-.142-1.282-.142h-.855v-.713zm4.843 18.519v20.798h-1.567c-1.14 0-1.71 0-1.71-.143s-.142-4.843 0-10.399v-10.114h3.277zm-17.806-34.615c.142-1.14.142-3.134.142-4.274v-2.137l.57-.427c.428-.285.712-.427 1.425-.285.427 0 2.279.142 3.846.285 2.849.142 2.991.142 3.704.712.997.712 1.14 1.14.854 3.419-.142 1.14-.285 3.134-.427 4.558-.143 1.425-.285 2.707-.285 2.85-.142.142-.142 1.139-.285 2.279-.285 5.27-.712 7.55-1.71 8.404-.284.285-.57.427-4.273.427-2.991 0-3.846 0-3.988-.284-.143-.428.142-11.824.427-15.527zm-2.564 34.615h1.424v20.798h-3.418c-.143-.143-.285-2.28-.285-10.4v-10.256l.427-.142c.285 0 .997-.143 1.852 0zM91.453 86.04c.142-1.852.57-5.128.712-5.84.143-.285.143-1.14.143-1.71 0-.57.142-1.282.142-1.71.143-.284.285-1.424.427-2.421.143-1.71.428-3.561.713-5.84.142-.57.285-1.71.285-2.565.142-1.424.142-1.424.712-1.567.285-.142 1.424-.142 2.422-.142h1.851l.285.57c.143.285.428 1.14.428 1.71 0 .711.142 1.424.285 1.566.142.143.142.712.142 1.14 0 .427.142 1.14.285 1.71.142.427.285 1.281.285 1.566 0 .427.142.855.142 1.14.143.285.285.997.428 1.71.427 2.99.57 3.703.712 4.273.142.285.142.854.142 1.282 0 .427.143.997.143 1.282.142.427.57 2.564.57 3.846v.57h-3.42l-.142-1.14c-.142-1.424-.427-2.422-.854-2.564-.143 0-.998-.142-1.852-.285l-1.567-.142-.143.427c-.142.285-.285 1.14-.285 1.994 0 .855-.142 1.567-.284 1.71.142.57-.428.57-1.425.57h-1.424zM65.954 67.664c.285-.285 1.71-.57 3.42-.712l1.566-.143.285.57c.143.285.285.712.285.855 0 .142.142.57.285.854.142.285.285.713.285.855 0 .142.142.57.285.997.142.285.427 1.14.57 1.71.142.57.427 1.282.427 1.424.142.143.142.427.142.712 0 .143.143.57.285.855.143.285.285.712.285.855 0 .285.143.57.285.997.142.285.285.712.285.997 0 .285.142.427.142.57.143 0 .285.427.285.855 0 .427.143.854.285.854.143 0 .143.285.143.57s.142.712.284.997c.143.285.285.712.285.997 0 .285.143.713.285.855.143.142.285.57.285.712 0 .285.143.713.285.997.712 1.567.855 2.565.427 2.85-.142 0-.854.142-1.567.284-1.14.143-1.424.143-1.709-.142a1.088 1.088 0 0 1-.285-.712c0-.143-.142-.713-.285-.998-.142-.427-.285-.997-.427-1.282-.143-.57 0-.57-2.707-.142-1.567.285-1.567.285-1.424 2.137.142 1.994 0 2.564-.57 2.564-.285 0-.712.142-1.14.285-.854.285-1.14.285-1.424.142 0-.285-.285-22.934.142-23.22zm13.248 38.604c1.14 0 1.71.142 1.852.285.143.142.285.712.285 1.14 0 .57.285 1.709.427 2.563.143.855.428 2.28.428 2.992.142.712.285 1.567.427 1.71.143.142.143.712.143 1.281 0 .428.142 1.282.284 1.567.143.428.285 1.14.285 1.567 0 .428.143.997.143 1.282.142.143.285.997.427 1.71.143.712.285 1.852.285 2.564.142.712.142 1.424.142 1.567 0 .142-.57.285-1.424.285-1.567 0-1.567-.143-2.137-1.852l-.427-1.282h-3.134l-.285.997c-.142.57-.285 1.14-.427 1.424 0 .285-.143.428-.285.57-.143 0-.855.143-1.71.143h-1.424v-.57c0-.285.142-.57.142-.712.143-.143.285-.713.428-1.425.142-.712.285-1.994.427-2.706.143-.855.427-1.995.427-2.565.143-.57.143-1.282.285-1.424.143-.143.143-.712.285-1.425.285-1.709.57-3.418.712-4.13.143-.57.428-2.28.713-3.99.57-1.424.712-1.566 2.706-1.566zM60.826 92.45c-.285 0-.854.143-.997.285-.285.142-.712.142-.997.142-.285 0-.855.143-1.14.285-.854.285-1.424.285-1.852 0a1.088 1.088 0 0 0-.712-.285c-.427 0-1.567-1.424-1.567-1.851 0-.143-.142-.285-.142-.428-.143-.142-.285-.57-.428-.997-.142-.427-.284-1.14-.427-1.567-.142-.427-.285-.855-.427-.997-.143-.142-.143-.427-.143-.712s-.142-.712-.285-.997c-.142-.285-.284-.713-.284-.998 0-.284-.143-.712-.285-.997-.143-.285-.285-.712-.285-.997 0-.285-.143-.57-.143-.57-.142 0-.285-.427-.285-.854 0-.428-.142-.855-.285-.855s-.142-.285-.142-.57-.142-.712-.285-.997c-.142-.285-.285-.712-.285-.997 0-.285-.142-.712-.285-.997-.427-.855-.854-2.564-.854-2.992 0-.142-.143-.427-.143-.427-.142 0-.142-.285-.142-.57s-.143-.57-.285-.997c-.285 0-.428-.427-.428-.712s-.142-.713-.284-.997c-.428-.713-.428-2.85-.143-3.134.285-.285 1.282-.855 2.137-.997.712-.143 1.71-.57 2.137-.713.142-.142.57-.142.997-.285.427-.142.712-.142.712-.285s.285-.142.57-.142.57-.142.997-.285c.285-.142.997-.285 1.567-.285.855 0 1.14.143 1.567.57.285.285.712.712.712.997 0 .285.143.57.285.57s.142.427.142.712c0 .428.143.997.285 1.282.143.428.285.997.285 1.282 0 .285.143.855.285 1.282.428.998.428 1.567-.285 1.852-.712.285-2.279.712-2.849.855-.57.142-.997-.285-.997-.997 0-.57-.57-2.28-.855-2.707-.284-.427-1.424-.427-1.994 0-.285.285-.427.428-.427 1.14 0 .427.142 1.14.285 1.424.142.285.285.713.285.997 0 .285.142.713.284.998.143.285.285.712.285.997 0 .285.143.57.143.712.142 0 .285.427.285.997 0 .428.142.855.285.997.142 0 .142.285.142.57s.143.712.285.997c.142.285.285.713.285.997 0 .285.142.713.285.998.142.284.285.712.285.997 0 .285.142.57.142.712.143 0 .285.427.285.855 0 .427.142.854.285.997.142.427.57 1.71.712 2.564.143.712.57.997 1.567.997.997-.142 1.282-.57.855-2.422-.143-.712-.285-1.709-.428-2.279-.142-1.14.143-1.282 1.425-1.567.427 0 .855-.142.997-.285.285-.427 1.425.143 1.425.855 0 .143.142.427.142.57.143.142.285.855.427 1.567.428 2.706.57 3.134.713 3.561.142.285.142.997.142 1.567 0 .855 0 1.14-.57 1.567-.285.285-.854.57-1.14.57-.427.142-.712.142-.854.285 0 0-.285.142-.57.142zm.712 34.33c0-.284-.142-5.982 0-12.82v-12.393h4.416c6.696-.142 6.126-.712 6.126 8.12 0 7.55 0 7.265-1.282 7.977-.428.285-1.14.285-2.85.285-1.281 0-2.42 0-2.563.142-.285.143-.285.712-.285 4.274 0 2.279 0 4.416-.143 4.558-.142.285-.427.285-1.71.285-1.566 0-1.709 0-1.709-.427zm12.536 18.947c-.712.712-.997 1.282-.57 1.566.285.143.143 2.85-.142 3.847-.143.57-.285.712-.712.712-.285 0-.855-.143-1.14-.285l-.57-.285.143-1.71c.142-1.709 0-2.279-.57-2.279-.143 0-.428-.142-.712-.284-.855-.428-1.282-.428-1.71.427-.142.427-.427.997-.427 1.14 0 .284-.143.57-.143.712-.142.142-.285.427-.285.57-.142.284-.284.284-.712.142-.854-.142-1.567-.57-1.567-.855 0-.142.143-.427.285-.712.143-.285.285-.712.285-.997 0-.285.143-.57.143-.57.142 0 .284-.427.284-.997 0-.427.143-.855.285-.997.143 0 .143-.428.143-.712 0-.285.142-.855.285-.998.142-.285.285-.712.285-.997 0-.285.142-.712.284-.997.143-.285.285-.712.285-.997 0-.855 1.14-.855 2.992-.285.427.142 1.14.285 1.567.427 1.14.285 1.994.713 2.421 1.14.285.285.428.57.428 1.852v1.424zm10.399 7.834c-.285.428-1.282.428-1.852 0-.285-.285-.427-.57-.57-1.282-.142-.854-.142-.854-.712-.997-.285-.142-.855-.285-1.282-.427-.855-.285-1.71-.143-1.852.285 0 .142-.142.427-.285.57-.142.142-.285.427-.427.57-.143.142-.427.427-.57.427-.57 0-1.852-.57-1.852-.855 0-.143.997-2.137 1.14-2.28.142-.142.285-.57 1.14-2.136.142-.427.427-.712.57-.855.142 0 .142-.285.142-.427 0-.143.142-.427.142-.427.143 0 .285-.143.285-.428s.142-.427.285-.57c0 0 .285-.427.57-.997.285-.427.57-.997.57-1.282.142-.285.427-.427.997-.427 1.282 0 1.71.285 1.994 1.424.142.57.285 1.282.285 1.71 0 .427.142 1.282.285 1.852s.285 1.424.285 1.851c0 .428.142.855.142.855.143 0 .143.427.143.855 0 .427.142 1.14.142 1.567.427.712.427 1.282.285 1.424zm.712-66.666c-.142-.285-.285-.713-.427-.998-.143-.284-.285-.712-.428-.997-.142-.285-.284-.712-.284-.854 0-.143-.143-.428-.285-.713-.143-.142-.285-.57-.285-.712 0-.142-.143-.57-.285-.712-.143-.143-.285-.57-.285-.712 0-.57-.427-.57-.57 0-.142.427-.142 1.14.143 2.991.285 2.707.427 3.561.142 3.704-.142 0-.712.142-1.282.285-1.567.142-1.852-.143-1.852-1.995 0-.712-.142-1.567-.142-1.852-.143-.284-.285-1.424-.428-2.421-.285-3.846-.57-5.983-.712-6.695-.142-.285-.142-1.14-.142-1.71 0-.57-.143-1.424-.143-1.994-.285-1.567-.57-5.27-.285-5.698.143-.142.428-.285.855-.285.285 0 .855-.142 1.14-.285.427-.142.57-.142.997 0 .285.143.427.285.427.428 0 .142.143.57.285.854.142.285.427 1.282.712 1.995.285.712.57 1.566.713 1.851.142.285.284.713.284.855 0 .143.143.427.285.712.143.143.285.57.285.713 0 .142.143.427.143.712.142.285.142.285.427 0 .285-.428.285-5.983 0-6.98-.285-1.282-.142-1.567 1.425-1.71 1.994-.142 1.994-.285 2.136 3.134 0 1.567.143 3.134.285 3.42.143.284.143 1.566.143 2.99 0 1.283.142 3.134.142 3.847.143.854.285 2.991.427 4.843.143 4.131.143 4.273-1.282 4.273-1.567.428-1.994.285-2.279-.284zm5.128 58.404c-.142.997-.142 2.707-.285 3.704 0 1.852-.284 4.13-.427 4.986-.142.285-.285.285-1.282.285h-1.14l.143-2.28c0-1.282.142-3.703.285-5.413.142-3.419.142-3.419 1.567-3.419 1.282.143 1.424.143 1.14 2.137zm-.854-18.66c-.428-.143-.997-.713-1.14-1.283-.142-.57-.285-16.809 0-17.664.143-.712.712-1.282.997-1.282.143 0 .428-.142.428-.142 0-.143 1.282-.143 3.133-.143 3.134 0 3.99.143 4.416.998.143.142.285.427.285.427.143 0 .143 1.424.143 2.991v2.85h-3.134l-.143-1.425c-.142-1.14-.142-1.567-.57-1.994-.57-.713-1.424-.713-1.994 0l-.57.57v11.965l.57.57c.713.712 1.282.712 1.995 0l.57-.57v-4.273h3.418v3.418c0 3.847-.142 4.274-1.282 4.844-.427.142-1.282.285-3.561.285-1.852 0-3.419 0-3.561-.143zm10.968 27.777c-.142.712-.285.712-.712.712-.285 0-1.852-.142-3.419-.142l-2.849-.143v-.854c0-.428.143-1.852.143-3.134.142-1.282.285-3.277.285-4.559l.142-2.421h2.28l-.143 4.13c-.143 3.135 0 4.132.142 4.274.143.143 1.14.143 2.137.285 1.852 0 1.994 0 2.137.57 0 .285 0 .712-.143 1.282zm11.396-9.117c-.142.712-.285 1.71-.285 2.137 0 .427-.142 1.282-.284 1.852-.143.57-.285 1.567-.285 2.137 0 .57-.143 1.14-.143 1.14-.142 0-.142.284-.142.711 0 .998-.143 1.14-.997 1.14-.855 0-1.425-.427-1.425-.997 0-.143-.142-.428-.285-.57a1.088 1.088 0 0 1-.285-.712c0-.285-.854-1.14-.997-.997l-.285 1.424c-.142.712-.142 1.567-.285 1.71-.142.427-.285.427-1.14.427-.996 0-1.424-.285-1.424-.855 0-.285-.142-.712-.285-.997-.142-.285-.427-1.14-.57-1.71-.142-.57-.427-1.139-.427-1.281-.142-.143-.142-.428-.285-.713-.142-.57-.427-1.424-.854-2.421-.143-.285-.285-.855-.285-.997 0-.285-.143-.428-.143-.57-.285-.143-.142-.713.285-.997.997-.428 1.71-.143 1.71.57 0 .142.142.57.284.996.57 1.14.57 1.425.713 1.995 0 .285.285.57.427.57.285 0 .855-1.14.855-2.28 0-.427.285-1.14.427-1.567.285-.712.285-.712.997-.712.713 0 .713.143 1.14 1.282.285.712.57 1.282.57 1.425 0 .142.142.427.285.712 0 .285.142.57.284.57.285 0 .855-1.567.855-2.422 0-.427.143-.997.285-1.424.285-.57.285-.57 1.14-.57 1.14 0 1.282.142.854 1.994zm.855-26.78c-.142.284-.142 2.279-.142 4.415v3.847h-1.567c-.855 0-1.567 0-1.71-.143-.142 0-.285-2.279-.285-10.114 0-5.413 0-10.114.143-10.256.142-.285.712-.285 4.843-.285h4.843v3.704h-2.991c-1.994 0-2.991 0-3.134.285-.285.284-.285 3.703 0 4.13.285.428.427.428 2.28.428h2.136v3.419h-2.137c-2.136.142-2.136.142-2.279.57zm10.826 33.903c-.854.427-1.282.427-1.424-.143 0-.142-.143-.427-.285-.427s-.143-.143-.143-.285-.142-.427-.427-.712c-.427-.428-.57-.428-1.567-.285-1.424.285-1.852.427-1.852.855 0 .142 0 .427-.142.427-.143.142-.285.427-.285.855-.143.712-.143.712-1.282.712h-1.14l.143-1.282c0-.712.285-1.995.427-2.85.143-.854.427-2.136.427-2.99.143-.713.285-1.425.285-1.568 0-.142.143-.712.285-1.14.143-.996.143-.996.712-1.281 1.283-.57 1.995-.428 2.707.712.142.285.285.427.57.997 0 .143.285.712.57 1.14.285.57.854 1.567 1.424 2.564.427.855.997 1.994 1.282 2.421.285.428.57.855.57.998.142.57-.285.997-.855 1.282zm7.693-11.539c-.143.285-.285.712-.285.855 0 .142-.143.427-.285.712-.143.143-.285.57-.285.855 0 .285 0 .57-.143.712-.284.285-.854 2.137-.712 2.28.143.284.57 2.279.855 3.418.142.855.142.997-.143 1.282-.142.143-.712.285-1.14.285-.854 0-.854 0-1.139-.712-.142-.428-.285-.855-.285-1.14 0-.285-.142-.712-.285-.854-.142-.285-.284-.713-.284-.998 0-.57-.57-1.282-1.995-2.421-2.137-1.71-2.991-2.707-2.991-2.992 0-.142.142-.285.285-.285s.57-.142.854-.285l.57-.284 1.425 1.14c.854.569 1.567 1.139 1.71 1.281.284.428.996 0 1.139-.57 0-.285.142-.712.285-.854.284-.428.712-1.567.854-1.995.143-.427.997-.712 1.71-.57.712 0 .712.428.285 1.14zm3.703 8.832c-.285 0-.712.143-.854.143-.285 0-.285 0-.285-.285 0-.143-.143-.428-.143-.428-.285-.142-.142-.712.285-.997.712-.427 1.14-.285 1.282.285 0 .285.143.712.285.855-.142.142-.142.285-.57.427zm-3.703-32.621c0 6.41 0 6.695 1.424 6.695.712 0 .855 0 1.282-.427.427-.428.427-.712.427-2.564v-2.137h3.134v3.419c0 2.849 0 3.419-.285 3.703-.142.143-.284.285-.284.428 0 .142-.285.285-.713.57-.997.427-6.41.427-7.122 0-1.14-.713-1.14-.428-1.14-9.402v-8.974c.143-.57.285-.998.712-1.282l.57-.57h6.98l.57.57c.285.284.57.712.712.997.143.285.143 1.567 0 3.134v2.706h-3.134v-1.567c0-1.424-.142-1.567-.57-1.994-.57-.427-1.566-.57-1.994-.143-.57.143-.712 1.425-.57 6.838zm6.125-43.162c-.143 1.14-.285 2.564-.285 3.276 0 .712-.142 1.852-.142 2.422-.143.57-.285 2.421-.428 3.846-.427 6.98-.57 7.977-.854 8.12-.143.142-.285.142-.285.142s-.57-.143-1.282-.143c-1.71-.142-1.852-.427-1.567-2.849.142-1.282 0-1.851-.57-1.851-.143 0-.57-.143-.855-.285-.285-.143-.855-.285-1.282-.285-.57-.143-.855 0-1.14.285-.142.142-.427.57-.427.712 0 .427-.712 2.28-.855 2.422-.142.142-.854.142-2.136-.143-.713-.142-1.282-.712-.997-1.14.142-.142.284-.712.427-1.14.142-.426.427-.996.57-1.281.142-.285.285-.57.285-.712 0-.143.142-.428.284-.713.143-.285.428-.712.428-1.14.142-.284.285-.854.427-1.139.143-.285.428-.997.57-1.424.142-.428.427-1.14.57-1.425.142-.285.285-.712.285-.855 0-.142.142-.284.142-.284.143 0 .143-.143.143-.285 0-.143.142-.428.284-.713.143-.142.285-.57.285-.712 0-.142.143-.57.285-.712.143-.143.285-.57.285-.712 0-.143.143-.57.285-.855.143-.285.427-.855.57-1.282.142-.427.427-.855.427-1.14.143-.142.285-.712.428-1.14.142-.427.427-.996.57-1.281.142-.285.284-.57.284-.855 0-.57.57-.712 1.567-.57.57.143 1.14.285 1.282.285.143.143.57.143.997.285 1.425.285 1.567.285 1.567 1.994.143.855 0 2.28-.142 3.277zm15.812.57c-.143 0-.143.284-.143.57 0 .284-.142.569-.284.996-.143.285-.285.713-.285.855 0 .285-.143.57-.285.712-.143.143-.285.57-.285.713 0 .142 0 .427-.143.57-.142.142-.284.712-.427 1.281a9.399 9.399 0 0 1-.57 1.567c-.142.285-.285.713-.285.998 0 .284-.142.57-.285.712-.142.142-.284.57-.284.712 0 .285 0 .427-.143.57-.142 0-.285.427-.285.712 0 .427-.142.855-.285.997-.142.428-.57 1.567-.712 1.995 0 .284-.142.57-.285.854-.142.285-.285.57-.285.712 0 .285-.142.57-.285.998-.142.285-.285.712-.285.854 0 .143-.142.428-.142.428-.142 0-.142.285-.142.427 0 .142-.143.57-.285.855-.428.997-.997 1.14-2.422.427-1.14-.57-1.14-.57-.997-4.273.142-1.852.142-3.42.142-3.562-.142-.285-.997.855-.997 1.425 0 .285-.142.57-.285.855-.142.142-.285.57-.285.712 0 .285-.142.57-.285.997-.142.285-.284.712-.284.855 0 .142-.143.712-.285 1.14-.285.711-.428.711-.855.569-.285 0-.855-.142-1.282-.427-.712-.285-.712-.285-.855-.997 0-.428 0-.998.285-1.283.143-.284.285-.712.285-.997 0-.285.142-.712.285-.997.142-.285.285-.712.285-.997 0-.285.142-.57.142-.57.143 0 .285-.427.285-.854 0-.428.143-.855.285-.998.142-.285.427-1.424.712-2.564.143-.285.285-.854.428-.997.142-.285.142-.712.142-.997 0-.285.143-.57.143-.712.142 0 .284-.428.284-.855s.143-.855.285-.997c.143-.285.428-1.14.713-2.564.142-.428.284-.855.427-1.14.142-.285.285-1.14.57-1.71l.285-1.139h1.14c1.139 0 2.136.285 2.136.57v4.558c0 2.707.142 4.416.142 4.416.143 0 .428-.57.713-1.282.285-.854.57-1.424.57-1.567 0 0 .142-.285.142-.427 0-.142.142-.57.285-.855.285-.712.712-1.71.855-2.279.284-1.14.712-1.71.997-1.567.142 0 .712.285 1.14.427 1.281.285 1.709.57 1.709 1.283-.428 0-.428.284-.57.284z"/>
    <path d="M70.798 142.45c-.285 0-.713-.142-.997-.285-.428-.142-.428 0-.713.428-.142.284-.142.712-.142 1.14 0 .427.142.569.57.569.285 0 .57.142.712.285.57.57 1.994-.285 1.71-.997 0-.57-.57-.997-1.14-1.14zm9.117-22.365c.142-.284.142-.427 0-1.282-.143-.57-.285-1.14-.428-1.424-.142-.712-.427-.712-.855.142-.427.855-.57 2.137-.284 2.564.142.285 1.282.285 1.567 0zm16.951-40.883h1.14v-.712c0-.427 0-1.14-.285-1.852-.143-.57-.285-1.424-.285-1.852 0-.427-.143-.997-.285-1.424-.142-.428-.285-.855-.285-1.14 0-.142-.142-.427-.285-.427s-.285.285-.427 1.14c0 .57-.143 1.282-.285 1.424 0 .142-.143.997-.285 1.71-.142.854-.285 1.709-.285 1.994-.142.285 0 .57.143.854.142.285.57.285 1.424.285zm21.51 67.664c-.285.143-.285 1.425 0 1.71 0 0 .285.142.427 0 .143 0 .428-.143.57-.143.428 0 .285-.855-.142-1.282-.428-.285-.712-.285-.855-.285z"/>
    <path d="M179.06 46.581c-.57-.142-7.835-.285-23.79-.57-8.831-.142-16.096-.285-16.808-.427-3.134-.57-8.832-1.994-11.254-2.849-.427-.142-.855-.285-1.14-.427-2.564-.997-4.558-1.71-5.128-1.995-.142-.142-.427-.142-.57-.142-.142 0-.142 1.282-.142 3.704 0 3.276 0 3.846-.285 4.273-.855 1.14-2.137 1.71-3.419 1.282-1.424-.427-2.279-1.14-2.706-2.421-.143-.57-.143-.855 0-1.567.285-.855.57-1.14 1.994-1.567.285-.143.285-.428.285-2.85v-2.848l-1.567-.855c-.855-.427-1.71-.997-1.852-.997-.142-.143-.57-.428-.997-.57-.427-.285-.855-.427-.855-.57 0-.142-.142-.142-.142-.142-.428 0-5.128-3.42-7.693-5.698-2.136-1.852-3.988-3.277-4.273-3.277-.143 0-.712.57-1.282 1.14-.57.57-1.71 1.567-2.422 2.137-.712.57-1.567 1.282-1.71 1.424-.284.285-.569.428-.569.428s-.285.142-.427.284c-.57.57-1.852 1.425-1.995 1.425-.142 0-.285 0-.285.142s-3.56 2.422-5.982 3.989l-.998.712v2.85c0 3.133 0 3.133 1.14 3.276 1.567.285 2.28 2.136 1.282 3.418-1.14 1.567-3.704 1.852-4.986.57-.712-.57-.997-2.137-.712-2.421.285-.143.427-1.71.285-3.704-.142-1.852-.142-1.852-.57-1.852-.285 0-.855.285-1.424.57-1.14.57-2.28.997-2.85 1.14-.142 0-.57.142-.712.284-1.14.428-5.982 1.852-8.547 2.422-5.27 1.14-5.555 1.282-26.353 1.282-10.684 0-18.946.142-18.946.285s5.27 5.698 13.39 13.96l3.847 3.846v32.479c0 30.627 0 34.33.57 38.034.142 1.425.284 1.852.854 4.274.285 1.282 1.282 4.13 1.567 4.985.428.997 1.994 4.416 2.422 4.986 1.852 3.276 5.128 7.265 8.69 10.541 1.851 1.71 6.41 5.271 7.977 6.268.427.285 3.56 2.28 3.988 2.707.57.427 8.547 5.27 8.832 5.413.142 0 .57.285.855.427.285.143.712.428.854.428.143 0 .713.427 1.425.854.57.428 1.282.712 1.424.855.143.142.428.285.713.427.142.143.854.57 1.424.855.57.427 1.282.712 1.425.855.142.142.427.285.712.427 1.424.712 6.125 3.846 8.547 5.698 1.852 1.425 2.564 1.994 4.558 4.131 2.137 2.137 2.422 2.564 3.42 4.416.426.855.854 1.425.854 1.425s.427-.428.712-.998c.712-1.282 2.992-4.273 3.846-5.27 4.986-5.413 9.83-8.832 21.225-14.673 4.701-2.421 7.55-3.846 9.544-4.985.855-.428 1.425-.855 1.567-.855.143 0 .998-.57 2.137-1.282 1.14-.712 2.137-1.282 2.28-1.282.142 0 3.846-2.564 5.128-3.561 1.567-1.282 1.994-1.567 3.276-3.134.57-.57 1.14-1.282 1.14-1.425.427-.427 2.279-2.991 3.276-4.558 2.28-3.419 4.843-8.975 5.983-13.248.142-.57.427-1.425.57-1.994.427-1.282.854-3.277 1.567-7.55.284-1.71.284-4.274.427-34.046.142-28.205.142-32.194.427-32.478.143-.143 1.14-1.14 2.137-1.995.997-.854 2.564-2.279 3.276-3.134.855-.712 2.422-2.279 3.562-3.418 1.14-.998 2.421-2.137 2.706-2.565.285-.285 1.567-1.424 2.85-2.564a59.115 59.115 0 0 0 2.42-2.279c.286-.142.286-.142 0-.285z"/>
    <path d="M117.664 52.849c.712-.142 2.421-1.71 2.706-2.564.143-.285.285-.427.428-.427.142 0 .285.142.142.284-.142.143-.285.57-.427.998-.285.57-1.14 1.567-1.852 2.136-.142.143-.57.285-1.14.428-1.424.427-2.706.142-3.846-.997-.854-.855-1.282-1.425-1.71-2.85-.284-1.14-.427-1.709-.142-1.709.143 0 .143.143.143.285s0 .427.142.57c.143.142.285.712.57 1.14 1.14 2.279 2.992 3.276 4.986 2.706zm-16.24-19.23c.428.284 1.425 1.139 2.28 1.851.854.712 1.567 1.282 1.71 1.282.142.285 4.415 2.992 4.985 3.276.142 0 .855.428 1.424.855.57.428 1.282.712 1.282.712.143 0 .285.143.428.285.142.143.427.285.57.285.142 0 .427.143.712.285.427.285.285.57-.143.427-.427-.142-2.991-1.424-3.988-1.994-.285-.285-.712-.427-.855-.57-.142 0-.57-.285-.855-.57-.285-.284-.57-.427-.712-.427-.142 0-.427-.285-.855-.57-.427-.284-.712-.57-.854-.57-.143 0-2.707-1.851-3.134-2.279-.143-.142-.428-.427-.712-.57-.998-.712-2.137-1.851-2.137-2.136-.143-.285.142-.143.855.427zM84.33 42.307c-.142 0-.284-.57-.284-2.137 0-2.422-.143-2.137 2.136-3.419.428-.285.855-.427.855-.57.142-.142.712-.57 1.282-.712.285-.142.427-.285.427-.427 0-.143.143-.143.143-.143.285 0 3.988-2.849 6.553-4.843.427-.285 1.14-.855 1.424-1.282.427-.285.855-.855 1.14-.997.285-.285.57-.428.57-.428s.142 1.14.142 2.707v2.707l-.712.57c-.428.284-.997.854-1.282 1.139-.285.285-.713.57-.998.855-.142.285-.427.427-.57.427-.142 0-.427.285-.854.57-.285.285-.997.712-1.282.997-.427.285-.855.57-.997.712-.428.285-.997.712-1.282.855a.306.306 0 0 0-.285.285l-.855.57-.855.57c0 .142-.142.142-.427.142-.142 0-.427.142-.427.142 0 .143-.855.57-1.852.997-.712.285-1.567.713-1.71.713zm-2.421 9.544c1.424.712 2.991.427 4.13-.855.57-.712 1.283-1.994 1.283-2.564 0-.285.142-.57.285-.855.285-.285.285-.285.427.285.143.428 0 .855-.142 1.425-.143.427-.285.997-.285 1.14 0 .427-.997 1.566-1.852 1.994-.712.57-1.14.57-2.28.57-1.709 0-2.136-.285-3.418-1.425-.855-.855-1.567-2.137-1.425-2.28.143-.142.713.143.713.428 0 .285 1.71 1.71 2.564 2.137zm-40.314-5.128c8.69 0 16.667-.143 17.807-.143 3.561-.285 4.985-.427 5.27-.712.143-.143.57-.285 1.14-.285 1.14-.142 2.707-.57 2.849-.712.142-.143.285-.143.57-.143s.712-.142.997-.285c.285-.142.712-.284.997-.284.285 0 .57-.143.712-.285.143-.143.57-.285.713-.285.284 0 .427-.143.57-.143 0-.142.427-.285.712-.285.285-.142.712-.142.854-.285.143-.142.57-.284.997-.427.428-.142.998-.427 1.283-.57.284-.142.712-.285.854-.285.143 0 .428-.142.712-.284.143-.143.428-.285.57-.143.143 0 .143.997.143 2.137v2.137l-.713.284c-.427.143-.712.428-.854.428-.285.285-1.425.712-1.71.712-.142 0-.427.143-.712.285-.142.142-.57.285-.712.285-.285 0-.57.142-.855.285a9.398 9.398 0 0 1-1.567.57c-.57.142-1.282.427-1.424.427-.143.142-.57.142-.855.142-.285 0-.712.143-1.14.285-.427.143-.854.285-1.14.285-.284 0-.854.143-1.139.285-.427.143-.997.285-1.282.285-.285 0-.855.142-1.282.285-.285.142-1.282.285-1.994.285s-1.852.142-2.422.142c-.997.143-22.65.428-24.359.285-.712 0-1.852-.57-5.128-2.137l-4.274-2.136h15.812zM98.86 189.03c0 1.282-.142 2.422-.142 2.422s-.285-.285-.427-.57a4.329 4.329 0 0 0-.713-.997c-.285-.285-.712-.712-.997-1.14-.997-1.282-2.706-2.991-4.843-4.7-.285-.285-1.425-.998-2.422-1.852-.997-.713-1.994-1.425-1.994-1.567-.143-.143-.427-.285-.855-.57a2.004 2.004 0 0 1-.712-.427l-.57-.285c-.427-.143-.855-.428-1.71-.997a34.514 34.514 0 0 1-1.566-.998c-.285-.142-3.419-1.994-3.846-2.279-.143-.142-.428-.285-.57-.285-.143 0-.427-.285-.57-.427-.142-.142-.427-.285-.57-.285-.142 0-.285 0-.285-.142s-.142-.285-.427-.285c-1.567-.855-2.137-1.14-2.28-1.282 0 0-.569-.285-.996-.713-.57-.284-1.14-.57-1.282-.712-.143-.142-.57-.285-.713-.427-.142-.143-.57-.428-.997-.712-.427-.285-.854-.57-.997-.57-.142 0-.285-.143-.285-.143 0-.142-.142-.142-.142-.142-.143 0-.997-.427-1.852-.997-.855-.57-1.71-.997-1.71-.997-.142 0-2.136-1.425-2.564-1.852-.142-.143-.285-.143-.285-.143l-.854-.57-.855-.57c-.142 0-.142 0-.142-.142s-.285-.285-.713-.57c-.427-.284-.854-.57-.997-.712-.142-.142-.712-.57-1.282-.997-2.706-1.994-5.84-4.843-7.122-6.41-.143-.285-.713-.855-1.14-1.425-.427-.57-1.14-1.424-1.424-1.994-.285-.57-.713-.997-.713-.997l-1.424-2.28c-.712-1.281-1.425-2.279-1.567-2.564-.143-.142-.285-.427-.285-.57 0-.142-.285-.57-.285-.854-.142-.285-.427-.855-.57-1.282-.142-.427-.427-.855-.427-.997-.143-.143-.143-.57-.143-.712 0-.285-.142-.57-.284-.855-.143-.285-.285-.712-.285-.997 0-.285-.143-.713-.285-.997-.143-.285-.285-.713-.428-1.283-.142-.427-.285-1.566-.427-2.564-.142-.854-.427-2.564-.427-3.703-.143-1.14-.143-16.952-.143-35.043V62.82l-8.12-8.12a649.189 649.189 0 0 1-7.977-8.12c.143 0 .428.143.855.428a48.38 48.38 0 0 1 1.994 1.14c.855.426 2.137 1.139 2.992 1.566.855.427 1.852.997 2.279 1.282.427.285.855.427.855.57 0 .142.142.142.427.142.143 0 .427.143.57.285.142.143.427.285.712.285s1.852 1.425 4.701 4.274l4.273 4.13v33.619c0 22.507 0 33.903.143 34.473.142.427.285 1.282.285 1.994s.142 1.282.285 1.567c.142.143.142.57.142.997 0 .428.143.997.285 1.282.143.428.285.855.285 1.14 0 .285.142.712.285.997.142.285.285.57.285.855 0 .285.142.57.285.997.142.285.285.712.285.855 0 .142.142.427.142.427.142 0 .142.285.142.427 0 .285.428 1.425.713 1.852.142.143.285.428.285.57.285.712 1.709 3.561 1.851 3.704 0 0 .285.427.428.712.427.712 2.28 3.276 2.564 3.704.142.142.285.285.285.427 0 .285 4.843 5.128 5.983 5.983.57.427.997.855.997.855.427.427 6.125 4.558 6.838 4.843.142 0 .57.285.854.427.285.143.712.428.855.428.142 0 .285.142.285.285l.855.57c.427.284.854.427.997.57.142.142.712.427 1.852.996.427.143.712.428.712.428.142.142.712.57 1.71.997.427.285.854.427.996.57.143.142.285.142.57.285l1.425.712c.57.285 1.282.712 1.709.997.427.285.855.427.855.57l.57.285c.284.142.854.427 1.424.854.57.285 1.14.57 1.282.713.143.142.855.427 1.282.854.57.285.997.713 1.14.713.427.142.854.57 2.564 1.709.855.57 1.71 1.14 1.994 1.282.143.142.427.285.57.427.142.143.57.428.997.713l.855.57s.57.427.997.854c2.422 1.994 5.27 4.7 5.413 5.413 0 .285.142.712.285.997.142.143.142 1.567.142 2.85zm57.55-56.552s-.142 0-.142-.285c0-.143 0-.285.142-.143z"/>
    <path d="M163.105 53.276c-.427.428-2.279 2.137-4.13 3.989l-3.277 3.276-.142 32.621c-.143 31.767-.143 33.619-.713 36.468-.142.57-.285 1.709-.427 2.564-.57 3.134-1.71 7.265-2.422 9.117-2.564 6.125-4.558 9.401-8.262 13.247-1.567 1.567-5.413 4.701-7.122 5.698-5.129 3.134-4.844 2.992-10.969 5.983-6.553 3.277-8.974 4.416-11.254 5.84-2.136 1.14-6.695 4.417-9.544 6.838-.854.713-1.567 1.282-1.71 1.425l-1.85 1.852c-.998.997-1.853 1.71-1.995 1.71-.143 0-.997-.713-1.995-1.568-2.564-2.421-4.7-4.273-5.698-4.843-.284-.143-.57-.285-.712-.427-.285-.143-1.424-.998-2.279-1.567-.142-.143-.57-.285-.712-.285a.306.306 0 0 1-.285-.285c0-.143-.143-.143-.428-.285-.284 0-.427-.143-.427-.285s-.142-.142-.285-.142-.427-.143-.57-.285c-.142-.143-.284-.285-.427-.285-.142 0-.285 0-.285-.143s-1.71-1.14-2.279-1.424c-.142 0-.285-.143-.285-.285s-.142-.143-.285-.143-.57-.142-.855-.427c-.284-.285-.57-.427-.712-.427-.142 0-.285-.143-.427-.143 0-.142-.285-.285-.57-.427-.285-.143-.57-.285-.712-.427-.143-.143-1.71-.998-3.419-1.995-6.553-3.703-12.82-7.692-14.815-9.259-2.564-2.137-5.698-4.986-7.122-6.695-1.71-1.994-3.989-5.413-4.844-6.838-.142-.427-.57-.997-.712-1.424-.285-.428-.427-.855-.427-.997 0-.143-.143-.428-.285-.428-.143-.142-.285-.427-.285-.57 0-.142-.142-.57-.285-.997-.57-1.14-.57-1.14-.712-1.852 0-.427-.143-.712-.285-.712-.143 0-.143-.285-.143-.427 0-.143-.142-.57-.284-.997-.143-.285-.285-.855-.285-1.14 0-.285-.143-.997-.285-1.424-.143-.428-.285-1.282-.428-1.852-.142-.57-.284-1.567-.427-2.28-.142-.997-.285-8.546-.285-35.327V60.54l-1.282-1.28c-.712-.712-2.564-2.421-4.13-3.846-2.28-2.28-2.707-2.706-2.423-2.849.285-.285 1.14-.142 1.14.143 0 .142.142.142.285 0 .285-.143.427-.143.57.142.142.285.997.285 4.558.285 2.992 0 4.416 0 4.416-.143.143-.284 3.561-.427 7.408-.427 1.282 0 3.703-.142 5.413-.285 1.709-.142 3.134-.285 3.418-.142h.57c.285-.143 1.71-.57 2.28-.57.997 0 6.837-1.852 8.262-2.564.284-.143.712-.285.854-.285.143 0 .428-.143.57-.143.142-.142.57-.284.997-.427.997-.285 1.282 0 1.14.997-.285 1.567 1.14 3.989 2.849 4.844 2.564 1.424 5.413 1.14 6.98-.713.712-.712 1.567-3.276 1.567-4.416 0-1.709-.855-3.276-1.995-4.13-.57-.428-.712-.57-.712-.998 0-.427.428-.712 1.852-1.424 3.419-1.852 6.41-3.846 9.972-6.98 1.14-.998.854-.998 3.134.712 1.14.855 2.279 1.852 2.706 2.137.427.285.712.427.712.57 0 0 .713.427 1.425.997 3.419 2.136 3.561 2.279 6.41 3.846.427.285.855.57.997.712.143.427-.142.997-.57 1.14-.427.142-1.14.997-1.709 1.994-.57 1.14-.57 3.134 0 4.558.427 1.14 1.567 2.28 2.849 2.992.855.427.997.57 2.564.427 1.425 0 1.852-.142 2.85-.57 1.993-.997 3.133-2.706 3.133-4.843 0-.712 0-1.425.142-1.567.143-.427.713-.427 1.567 0 .855.427 1.71.855 2.85 1.282.57.143 1.139.427 1.281.427.713.285 4.132 1.14 5.84 1.425 3.42.712 11.254 1.14 21.51 1.282 5.841.142 8.263.142 8.405.285-.57-.712-.854-.285-1.282.142z"/>
    <path d="M133.333 75.926c-.285-.143-.997.427-.997.712 0 .143-.142.428-.142.57-.285.57-1.282 2.849-1.282 2.991 0 .143-.143.428-.285.713-.143.285-.428.712-.428.854-.142.143 0 .428.57.713.428.285.997.427 1.282.427.855 0 .997-.427 1.14-3.846.142-1.567.285-2.85.285-2.992 0 0 0-.142-.143-.142zm-23.361 7.977c1.709 0 1.994-.712 2.279-5.413.142-1.71.285-3.846.285-4.558.285-1.995.285-5.129 0-5.413-.143-.143-.713-.285-1.282-.428-1.567-.285-1.71-.285-1.852 2.28-.143 1.139-.285 2.563-.285 2.99-.143.428-.143 1.995-.143 3.277s-.142 3.277-.142 4.416c-.143 1.994-.143 2.137.142 2.422.143.285.428.427.998.427zM69.8 82.051c1.851-.285 1.851-.285 1.994-.854 0-.285 0-.57-.143-.855-.284-.427-.57-1.567-.712-1.994 0-.143-.142-.57-.285-.998-.142-.284-.285-.712-.285-.854 0-.143 0-.285-.142-.428-.143-.142-.285-.427-.285-.854-.285-.997-.427-.997-.712 0s-.285 6.41 0 6.695c-.143.142.285.285.57.142zm-1.995 31.624c.428-.285.428-.427.428-3.988v-3.704l-.428-.285c-.57-.427-2.136-.427-2.564 0-.285.285-.285.712-.285 3.989 0 2.991 0 3.703.285 3.988.285.57 1.994.57 2.564 0zm12.963 33.049c-.285 0-.854 1.14-.712 1.424.142.285 1.424.285 1.567 0 0-.285-.712-1.424-.855-1.424z"/>
  </g>
  <g class="color-black" fill="#010101">
    <path d="M151.567 53.134c-9.83 0-13.818-.143-16.81-.712-4.558-.855-8.119-1.852-10.113-2.85-.997-.427-1.14-.427-1.282.57-.143 1.14-.997 2.85-1.71 3.704-.712.855-2.136 1.71-3.418 2.137-2.137.712-5.84-.285-7.408-2.137-.712-.855-1.424-2.421-1.71-3.561-.284-1.567.143-3.704 1.283-5.413a4.03 4.03 0 0 0 .427-.855c0-.142-.285-.427-.854-.712a66.81 66.81 0 0 1-2.85-1.994c-1.14-.855-2.848-1.995-3.846-2.707-.997-.712-2.279-1.567-2.991-1.994-.712-.428-1.282-.855-1.425-.713-.142 0-1.14.855-2.279 1.71-1.14.855-3.419 2.421-4.986 3.561-3.846 2.564-3.56 2.28-3.133 2.85.427.569.997 1.566 1.424 2.848.285.712.285 1.282.285 2.564-.143 1.71-.143 1.995-1.14 3.277-1.424 1.994-3.134 2.849-5.698 2.991-1.424 0-1.71 0-2.706-.57-1.995-.997-3.704-2.991-4.131-4.843-.285-1.14-.143-1.14-4.416.57-.143.142-.855.285-1.425.427-.57.142-1.424.427-1.71.427-1.139.285-4.842.998-7.264 1.282-4.416.428-7.835.57-15.527.57-4.559 0-8.262 0-8.262.143s.142.427.57.712c.712.57 1.709 1.567 4.7 4.416l1.425 1.424v34.188c0 37.18 0 35.043.997 39.46.427 1.993.57 2.563 1.567 4.842.855 2.28 2.422 5.414 3.419 7.265 2.279 3.562 2.991 4.559 5.128 6.553 1.994 1.994 2.991 2.85 5.128 4.559a32.535 32.535 0 0 0 1.995 1.566c.284.143 3.988 2.707 4.273 2.85.142 0 .712.427 1.14.712.57.427 1.567.997 2.136 1.282.57.285 1.567.997 2.28 1.282.57.427 1.14.712 1.282.712 0 0 .57.285 1.282.712.712.428 1.282.713 1.282.713s1.14.57 2.564 1.424c1.424.855 2.849 1.567 3.276 1.852.428.285 1.71.997 2.992 1.71 1.14.712 2.279 1.424 2.421 1.566 2.85 1.71 8.405 5.983 10.257 7.977.427.428.854.855.997.855.285 0 1.282-.855 3.419-2.706 2.279-1.995 7.265-5.698 10.399-7.55.142-.143.997-.57 1.851-1.14 2.564-1.567 3.277-1.994 9.687-5.128 8.12-3.989 9.26-4.7 12.393-6.98 2.992-2.137 4.131-3.276 7.835-6.98 2.28-2.28 4.131-5.413 5.555-8.832.285-.57.428-1.14.57-1.425 1.14-2.849 2.564-8.689 3.42-14.102.142-.997.284-11.539.284-34.188V60.54l.57-.57c.57-.427 2.137-1.851 3.988-3.56.285-.286.713-.713.998-.855l.997-.998c.427-.427.712-.712.712-.854 0-.428-4.558-.57-10.114-.57zm-32.621 34.33c0-.427.142-.997.142-1.14.143-.142.285-1.139.428-1.994.142-.854.285-2.564.427-3.56.142-.998.427-2.707.427-3.562.143-.855.285-1.71.428-1.994.142-.143.142-.855.142-1.425 0-.57.143-1.282.143-1.71.142-.427.285-1.424.427-2.278.142-.855.285-2.137.427-2.85.285-1.566.428-1.709 1.71-1.281.427.142.997.284 1.282.284.57 0 .997.428.712.998-.142.427-.57 2.991-.855 5.128-.142 1.282-.427 3.276-.854 4.843-.143.57-.285 1.567-.428 2.28-.142.57-.285 1.994-.427 2.99-.143.998-.427 2.422-.427 3.135-.143.712-.285 1.709-.428 2.136-.285.998-.427 1.14-1.424.855-.285 0-.855-.142-1.282-.142h-.855v-.713zm4.843 18.519v20.798h-1.567c-1.14 0-1.71 0-1.71-.143s-.142-4.843 0-10.399v-10.114h3.277zm-17.806-34.615c.142-1.14.142-3.134.142-4.274v-2.137l.57-.427c.428-.285.712-.427 1.425-.285.427 0 2.279.142 3.846.285 2.849.142 2.991.142 3.704.712.997.712 1.14 1.14.854 3.419-.142 1.14-.285 3.134-.427 4.558-.143 1.425-.285 2.707-.285 2.85-.142.142-.142 1.139-.285 2.279-.285 5.27-.712 7.55-1.71 8.404-.284.285-.57.427-4.273.427-2.991 0-3.846 0-3.988-.284-.143-.428.142-11.824.427-15.527zm-2.564 34.615h1.424v20.798h-3.418c-.143-.143-.285-2.28-.285-10.4v-10.256l.427-.142c.285 0 .997-.143 1.852 0zM91.453 86.04c.142-1.852.57-5.128.712-5.84.143-.285.143-1.14.143-1.71 0-.57.142-1.282.142-1.71.143-.284.285-1.424.427-2.421.143-1.71.428-3.561.713-5.84.142-.57.285-1.71.285-2.565.142-1.424.142-1.424.712-1.567.285-.142 1.424-.142 2.422-.142h1.851l.285.57c.143.285.428 1.14.428 1.71 0 .711.142 1.424.285 1.566.142.143.142.712.142 1.14 0 .427.142 1.14.285 1.71.142.427.285 1.281.285 1.566 0 .427.142.855.142 1.14.143.285.285.997.428 1.71.427 2.99.57 3.703.712 4.273.142.285.142.854.142 1.282 0 .427.143.997.143 1.282.142.427.57 2.564.57 3.846v.57h-3.42l-.142-1.14c-.142-1.424-.427-2.422-.854-2.564-.143 0-.998-.142-1.852-.285l-1.567-.142-.143.427c-.142.285-.285 1.14-.285 1.994 0 .855-.142 1.567-.284 1.71.142.57-.428.57-1.425.57h-1.424zM65.954 67.664c.285-.285 1.71-.57 3.42-.712l1.566-.143.285.57c.143.285.285.712.285.855 0 .142.142.57.285.854.142.285.285.713.285.855 0 .142.142.57.285.997.142.285.427 1.14.57 1.71.142.57.427 1.282.427 1.424.142.143.142.427.142.712 0 .143.143.57.285.855.143.285.285.712.285.855 0 .285.143.57.285.997.142.285.285.712.285.997 0 .285.142.427.142.57.143 0 .285.427.285.855 0 .427.143.854.285.854.143 0 .143.285.143.57s.142.712.284.997c.143.285.285.712.285.997 0 .285.143.713.285.855.143.142.285.57.285.712 0 .285.143.713.285.997.712 1.567.855 2.565.427 2.85-.142 0-.854.142-1.567.284-1.14.143-1.424.143-1.709-.142a1.088 1.088 0 0 1-.285-.712c0-.143-.142-.713-.285-.998-.142-.427-.285-.997-.427-1.282-.143-.57 0-.57-2.707-.142-1.567.285-1.567.285-1.424 2.137.142 1.994 0 2.564-.57 2.564-.285 0-.712.142-1.14.285-.854.285-1.14.285-1.424.142 0-.285-.285-22.934.142-23.22zm13.248 38.604c1.14 0 1.71.142 1.852.285.143.142.285.712.285 1.14 0 .57.285 1.709.427 2.563.143.855.428 2.28.428 2.992.142.712.285 1.567.427 1.71.143.142.143.712.143 1.281 0 .428.142 1.282.284 1.567.143.428.285 1.14.285 1.567 0 .428.143.997.143 1.282.142.143.285.997.427 1.71.143.712.285 1.852.285 2.564.142.712.142 1.424.142 1.567 0 .142-.57.285-1.424.285-1.567 0-1.567-.143-2.137-1.852l-.427-1.282h-3.134l-.285.997c-.142.57-.285 1.14-.427 1.424 0 .285-.143.428-.285.57-.143 0-.855.143-1.71.143h-1.424v-.57c0-.285.142-.57.142-.712.143-.143.285-.713.428-1.425.142-.712.285-1.994.427-2.706.143-.855.427-1.995.427-2.565.143-.57.143-1.282.285-1.424.143-.143.143-.712.285-1.425.285-1.709.57-3.418.712-4.13.143-.57.428-2.28.713-3.99.57-1.424.712-1.566 2.706-1.566zM60.826 92.45c-.285 0-.854.143-.997.285-.285.142-.712.142-.997.142-.285 0-.855.143-1.14.285-.854.285-1.424.285-1.852 0a1.088 1.088 0 0 0-.712-.285c-.427 0-1.567-1.424-1.567-1.851 0-.143-.142-.285-.142-.428-.143-.142-.285-.57-.428-.997-.142-.427-.284-1.14-.427-1.567-.142-.427-.285-.855-.427-.997-.143-.142-.143-.427-.143-.712s-.142-.712-.285-.997c-.142-.285-.284-.713-.284-.998 0-.284-.143-.712-.285-.997-.143-.285-.285-.712-.285-.997 0-.285-.143-.57-.143-.57-.142 0-.285-.427-.285-.854 0-.428-.142-.855-.285-.855s-.142-.285-.142-.57-.142-.712-.285-.997c-.142-.285-.285-.712-.285-.997 0-.285-.142-.712-.285-.997-.427-.855-.854-2.564-.854-2.992 0-.142-.143-.427-.143-.427-.142 0-.142-.285-.142-.57s-.143-.57-.285-.997c-.285 0-.428-.427-.428-.712s-.142-.713-.284-.997c-.428-.713-.428-2.85-.143-3.134.285-.285 1.282-.855 2.137-.997.712-.143 1.71-.57 2.137-.713.142-.142.57-.142.997-.285.427-.142.712-.142.712-.285s.285-.142.57-.142.57-.142.997-.285c.285-.142.997-.285 1.567-.285.855 0 1.14.143 1.567.57.285.285.712.712.712.997 0 .285.143.57.285.57s.142.427.142.712c0 .428.143.997.285 1.282.143.428.285.997.285 1.282 0 .285.143.855.285 1.282.428.998.428 1.567-.285 1.852-.712.285-2.279.712-2.849.855-.57.142-.997-.285-.997-.997 0-.57-.57-2.28-.855-2.707-.284-.427-1.424-.427-1.994 0-.285.285-.427.428-.427 1.14 0 .427.142 1.14.285 1.424.142.285.285.713.285.997 0 .285.142.713.284.998.143.285.285.712.285.997 0 .285.143.57.143.712.142 0 .285.427.285.997 0 .428.142.855.285.997.142 0 .142.285.142.57s.143.712.285.997c.142.285.285.713.285.997 0 .285.142.713.285.998.142.284.285.712.285.997 0 .285.142.57.142.712.143 0 .285.427.285.855 0 .427.142.854.285.997.142.427.57 1.71.712 2.564.143.712.57.997 1.567.997.997-.142 1.282-.57.855-2.422-.143-.712-.285-1.709-.428-2.279-.142-1.14.143-1.282 1.425-1.567.427 0 .855-.142.997-.285.285-.427 1.425.143 1.425.855 0 .143.142.427.142.57.143.142.285.855.427 1.567.428 2.706.57 3.134.713 3.561.142.285.142.997.142 1.567 0 .855 0 1.14-.57 1.567-.285.285-.854.57-1.14.57-.427.142-.712.142-.854.285 0 0-.285.142-.57.142zm.712 34.33c0-.284-.142-5.982 0-12.82v-12.393h4.416c6.696-.142 6.126-.712 6.126 8.12 0 7.55 0 7.265-1.282 7.977-.428.285-1.14.285-2.85.285-1.281 0-2.42 0-2.563.142-.285.143-.285.712-.285 4.274 0 2.279 0 4.416-.143 4.558-.142.285-.427.285-1.71.285-1.566 0-1.709 0-1.709-.427zm12.536 18.947c-.712.712-.997 1.282-.57 1.566.285.143.143 2.85-.142 3.847-.143.57-.285.712-.712.712-.285 0-.855-.143-1.14-.285l-.57-.285.143-1.71c.142-1.709 0-2.279-.57-2.279-.143 0-.428-.142-.712-.284-.855-.428-1.282-.428-1.71.427-.142.427-.427.997-.427 1.14 0 .284-.143.57-.143.712-.142.142-.285.427-.285.57-.142.284-.284.284-.712.142-.854-.142-1.567-.57-1.567-.855 0-.142.143-.427.285-.712.143-.285.285-.712.285-.997 0-.285.143-.57.143-.57.142 0 .284-.427.284-.997 0-.427.143-.855.285-.997.143 0 .143-.428.143-.712 0-.285.142-.855.285-.998.142-.285.285-.712.285-.997 0-.285.142-.712.284-.997.143-.285.285-.712.285-.997 0-.855 1.14-.855 2.992-.285.427.142 1.14.285 1.567.427 1.14.285 1.994.713 2.421 1.14.285.285.428.57.428 1.852v1.424zm10.399 7.834c-.285.428-1.282.428-1.852 0-.285-.285-.427-.57-.57-1.282-.142-.854-.142-.854-.712-.997-.285-.142-.855-.285-1.282-.427-.855-.285-1.71-.143-1.852.285 0 .142-.142.427-.285.57-.142.142-.285.427-.427.57-.143.142-.427.427-.57.427-.57 0-1.852-.57-1.852-.855 0-.143.997-2.137 1.14-2.28.142-.142.285-.57 1.14-2.136.142-.427.427-.712.57-.855.142 0 .142-.285.142-.427 0-.143.142-.427.142-.427.143 0 .285-.143.285-.428s.142-.427.285-.57c0 0 .285-.427.57-.997.285-.427.57-.997.57-1.282.142-.285.427-.427.997-.427 1.282 0 1.71.285 1.994 1.424.142.57.285 1.282.285 1.71 0 .427.142 1.282.285 1.852s.285 1.424.285 1.851c0 .428.142.855.142.855.143 0 .143.427.143.855 0 .427.142 1.14.142 1.567.427.712.427 1.282.285 1.424zm.712-66.666c-.142-.285-.285-.713-.427-.998-.143-.284-.285-.712-.428-.997-.142-.285-.284-.712-.284-.854 0-.143-.143-.428-.285-.713-.143-.142-.285-.57-.285-.712 0-.142-.143-.57-.285-.712-.143-.143-.285-.57-.285-.712 0-.57-.427-.57-.57 0-.142.427-.142 1.14.143 2.991.285 2.707.427 3.561.142 3.704-.142 0-.712.142-1.282.285-1.567.142-1.852-.143-1.852-1.995 0-.712-.142-1.567-.142-1.852-.143-.284-.285-1.424-.428-2.421-.285-3.846-.57-5.983-.712-6.695-.142-.285-.142-1.14-.142-1.71 0-.57-.143-1.424-.143-1.994-.285-1.567-.57-5.27-.285-5.698.143-.142.428-.285.855-.285.285 0 .855-.142 1.14-.285.427-.142.57-.142.997 0 .285.143.427.285.427.428 0 .142.143.57.285.854.142.285.427 1.282.712 1.995.285.712.57 1.566.713 1.851.142.285.284.713.284.855 0 .143.143.427.285.712.143.143.285.57.285.713 0 .142.143.427.143.712.142.285.142.285.427 0 .285-.428.285-5.983 0-6.98-.285-1.282-.142-1.567 1.425-1.71 1.994-.142 1.994-.285 2.136 3.134 0 1.567.143 3.134.285 3.42.143.284.143 1.566.143 2.99 0 1.283.142 3.134.142 3.847.143.854.285 2.991.427 4.843.143 4.131.143 4.273-1.282 4.273-1.567.428-1.994.285-2.279-.284zm5.128 58.404c-.142.997-.142 2.707-.285 3.704 0 1.852-.284 4.13-.427 4.986-.142.285-.285.285-1.282.285h-1.14l.143-2.28c0-1.282.142-3.703.285-5.413.142-3.419.142-3.419 1.567-3.419 1.282.143 1.424.143 1.14 2.137zm-.854-18.66c-.428-.143-.997-.713-1.14-1.283-.142-.57-.285-16.809 0-17.664.143-.712.712-1.282.997-1.282.143 0 .428-.142.428-.142 0-.143 1.282-.143 3.133-.143 3.134 0 3.99.143 4.416.998.143.142.285.427.285.427.143 0 .143 1.424.143 2.991v2.85h-3.134l-.143-1.425c-.142-1.14-.142-1.567-.57-1.994-.57-.713-1.424-.713-1.994 0l-.57.57v11.965l.57.57c.713.712 1.282.712 1.995 0l.57-.57v-4.273h3.418v3.418c0 3.847-.142 4.274-1.282 4.844-.427.142-1.282.285-3.561.285-1.852 0-3.419 0-3.561-.143zm10.968 27.777c-.142.712-.285.712-.712.712-.285 0-1.852-.142-3.419-.142l-2.849-.143v-.854c0-.428.143-1.852.143-3.134.142-1.282.285-3.277.285-4.559l.142-2.421h2.28l-.143 4.13c-.143 3.135 0 4.132.142 4.274.143.143 1.14.143 2.137.285 1.852 0 1.994 0 2.137.57 0 .285 0 .712-.143 1.282zm11.396-9.117c-.142.712-.285 1.71-.285 2.137 0 .427-.142 1.282-.284 1.852-.143.57-.285 1.567-.285 2.137 0 .57-.143 1.14-.143 1.14-.142 0-.142.284-.142.711 0 .998-.143 1.14-.997 1.14-.855 0-1.425-.427-1.425-.997 0-.143-.142-.428-.285-.57a1.088 1.088 0 0 1-.285-.712c0-.285-.854-1.14-.997-.997l-.285 1.424c-.142.712-.142 1.567-.285 1.71-.142.427-.285.427-1.14.427-.996 0-1.424-.285-1.424-.855 0-.285-.142-.712-.285-.997-.142-.285-.427-1.14-.57-1.71-.142-.57-.427-1.139-.427-1.281-.142-.143-.142-.428-.285-.713-.142-.57-.427-1.424-.854-2.421-.143-.285-.285-.855-.285-.997 0-.285-.143-.428-.143-.57-.285-.143-.142-.713.285-.997.997-.428 1.71-.143 1.71.57 0 .142.142.57.284.996.57 1.14.57 1.425.713 1.995 0 .285.285.57.427.57.285 0 .855-1.14.855-2.28 0-.427.285-1.14.427-1.567.285-.712.285-.712.997-.712.713 0 .713.143 1.14 1.282.285.712.57 1.282.57 1.425 0 .142.142.427.285.712 0 .285.142.57.284.57.285 0 .855-1.567.855-2.422 0-.427.143-.997.285-1.424.285-.57.285-.57 1.14-.57 1.14 0 1.282.142.854 1.994zm.855-26.78c-.142.284-.142 2.279-.142 4.415v3.847h-1.567c-.855 0-1.567 0-1.71-.143-.142 0-.285-2.279-.285-10.114 0-5.413 0-10.114.143-10.256.142-.285.712-.285 4.843-.285h4.843v3.704h-2.991c-1.994 0-2.991 0-3.134.285-.285.284-.285 3.703 0 4.13.285.428.427.428 2.28.428h2.136v3.419h-2.137c-2.136.142-2.136.142-2.279.57zm10.826 33.903c-.854.427-1.282.427-1.424-.143 0-.142-.143-.427-.285-.427s-.143-.143-.143-.285-.142-.427-.427-.712c-.427-.428-.57-.428-1.567-.285-1.424.285-1.852.427-1.852.855 0 .142 0 .427-.142.427-.143.142-.285.427-.285.855-.143.712-.143.712-1.282.712h-1.14l.143-1.282c0-.712.285-1.995.427-2.85.143-.854.427-2.136.427-2.99.143-.713.285-1.425.285-1.568 0-.142.143-.712.285-1.14.143-.996.143-.996.712-1.281 1.283-.57 1.995-.428 2.707.712.142.285.285.427.57.997 0 .143.285.712.57 1.14.285.57.854 1.567 1.424 2.564.427.855.997 1.994 1.282 2.421.285.428.57.855.57.998.142.57-.285.997-.855 1.282zm7.693-11.539c-.143.285-.285.712-.285.855 0 .142-.143.427-.285.712-.143.143-.285.57-.285.855 0 .285 0 .57-.143.712-.284.285-.854 2.137-.712 2.28.143.284.57 2.279.855 3.418.142.855.142.997-.143 1.282-.142.143-.712.285-1.14.285-.854 0-.854 0-1.139-.712-.142-.428-.285-.855-.285-1.14 0-.285-.142-.712-.285-.854-.142-.285-.284-.713-.284-.998 0-.57-.57-1.282-1.995-2.421-2.137-1.71-2.991-2.707-2.991-2.992 0-.142.142-.285.285-.285s.57-.142.854-.285l.57-.284 1.425 1.14c.854.569 1.567 1.139 1.71 1.281.284.428.996 0 1.139-.57 0-.285.142-.712.285-.854.284-.428.712-1.567.854-1.995.143-.427.997-.712 1.71-.57.712 0 .712.428.285 1.14zm3.703 8.832c-.285 0-.712.143-.854.143-.285 0-.285 0-.285-.285 0-.143-.143-.428-.143-.428-.285-.142-.142-.712.285-.997.712-.427 1.14-.285 1.282.285 0 .285.143.712.285.855-.142.142-.142.285-.57.427zm-3.703-32.621c0 6.41 0 6.695 1.424 6.695.712 0 .855 0 1.282-.427.427-.428.427-.712.427-2.564v-2.137h3.134v3.419c0 2.849 0 3.419-.285 3.703-.142.143-.284.285-.284.428 0 .142-.285.285-.713.57-.997.427-6.41.427-7.122 0-1.14-.713-1.14-.428-1.14-9.402v-8.974c.143-.57.285-.998.712-1.282l.57-.57h6.98l.57.57c.285.284.57.712.712.997.143.285.143 1.567 0 3.134v2.706h-3.134v-1.567c0-1.424-.142-1.567-.57-1.994-.57-.427-1.566-.57-1.994-.143-.57.143-.712 1.425-.57 6.838zm6.125-43.162c-.143 1.14-.285 2.564-.285 3.276 0 .712-.142 1.852-.142 2.422-.143.57-.285 2.421-.428 3.846-.427 6.98-.57 7.977-.854 8.12-.143.142-.285.142-.285.142s-.57-.143-1.282-.143c-1.71-.142-1.852-.427-1.567-2.849.142-1.282 0-1.851-.57-1.851-.143 0-.57-.143-.855-.285-.285-.143-.855-.285-1.282-.285-.57-.143-.855 0-1.14.285-.142.142-.427.57-.427.712 0 .427-.712 2.28-.855 2.422-.142.142-.854.142-2.136-.143-.713-.142-1.282-.712-.997-1.14.142-.142.284-.712.427-1.14.142-.426.427-.996.57-1.281.142-.285.285-.57.285-.712 0-.143.142-.428.284-.713.143-.285.428-.712.428-1.14.142-.284.285-.854.427-1.139.143-.285.428-.997.57-1.424.142-.428.427-1.14.57-1.425.142-.285.285-.712.285-.855 0-.142.142-.284.142-.284.143 0 .143-.143.143-.285 0-.143.142-.428.284-.713.143-.142.285-.57.285-.712 0-.142.143-.57.285-.712.143-.143.285-.57.285-.712 0-.143.143-.57.285-.855.143-.285.427-.855.57-1.282.142-.427.427-.855.427-1.14.143-.142.285-.712.428-1.14.142-.427.427-.996.57-1.281.142-.285.284-.57.284-.855 0-.57.57-.712 1.567-.57.57.143 1.14.285 1.282.285.143.143.57.143.997.285 1.425.285 1.567.285 1.567 1.994.143.855 0 2.28-.142 3.277zm15.812.57c-.143 0-.143.284-.143.57 0 .284-.142.569-.284.996-.143.285-.285.713-.285.855 0 .285-.143.57-.285.712-.143.143-.285.57-.285.713 0 .142 0 .427-.143.57-.142.142-.284.712-.427 1.281a9.399 9.399 0 0 1-.57 1.567c-.142.285-.285.713-.285.998 0 .284-.142.57-.285.712-.142.142-.284.57-.284.712 0 .285 0 .427-.143.57-.142 0-.285.427-.285.712 0 .427-.142.855-.285.997-.142.428-.57 1.567-.712 1.995 0 .284-.142.57-.285.854-.142.285-.285.57-.285.712 0 .285-.142.57-.285.998-.142.285-.285.712-.285.854 0 .143-.142.428-.142.428-.142 0-.142.285-.142.427 0 .142-.143.57-.285.855-.428.997-.997 1.14-2.422.427-1.14-.57-1.14-.57-.997-4.273.142-1.852.142-3.42.142-3.562-.142-.285-.997.855-.997 1.425 0 .285-.142.57-.285.855-.142.142-.285.57-.285.712 0 .285-.142.57-.285.997-.142.285-.284.712-.284.855 0 .142-.143.712-.285 1.14-.285.711-.428.711-.855.569-.285 0-.855-.142-1.282-.427-.712-.285-.712-.285-.855-.997 0-.428 0-.998.285-1.283.143-.284.285-.712.285-.997 0-.285.142-.712.285-.997.142-.285.285-.712.285-.997 0-.285.142-.57.142-.57.143 0 .285-.427.285-.854 0-.428.143-.855.285-.998.142-.285.427-1.424.712-2.564.143-.285.285-.854.428-.997.142-.285.142-.712.142-.997 0-.285.143-.57.143-.712.142 0 .284-.428.284-.855s.143-.855.285-.997c.143-.285.428-1.14.713-2.564.142-.428.284-.855.427-1.14.142-.285.285-1.14.57-1.71l.285-1.139h1.14c1.139 0 2.136.285 2.136.57v4.558c0 2.707.142 4.416.142 4.416.143 0 .428-.57.713-1.282.285-.854.57-1.424.57-1.567 0 0 .142-.285.142-.427 0-.142.142-.57.285-.855.285-.712.712-1.71.855-2.279.284-1.14.712-1.71.997-1.567.142 0 .712.285 1.14.427 1.281.285 1.709.57 1.709 1.283-.428 0-.428.284-.57.284z"/>
    <path d="M70.798 142.45c-.285 0-.713-.142-.997-.285-.428-.142-.428 0-.713.428-.142.284-.142.712-.142 1.14 0 .427.142.569.57.569.285 0 .57.142.712.285.57.57 1.994-.285 1.71-.997 0-.57-.57-.997-1.14-1.14zm9.117-22.365c.142-.284.142-.427 0-1.282-.143-.57-.285-1.14-.428-1.424-.142-.712-.427-.712-.855.142-.427.855-.57 2.137-.284 2.564.142.285 1.282.285 1.567 0zm16.951-40.883h1.14v-.712c0-.427 0-1.14-.285-1.852-.143-.57-.285-1.424-.285-1.852 0-.427-.143-.997-.285-1.424-.142-.428-.285-.855-.285-1.14 0-.142-.142-.427-.285-.427s-.285.285-.427 1.14c0 .57-.143 1.282-.285 1.424 0 .142-.143.997-.285 1.71-.142.854-.285 1.709-.285 1.994-.142.285 0 .57.143.854.142.285.57.285 1.424.285zm21.51 67.664c-.285.143-.285 1.425 0 1.71 0 0 .285.142.427 0 .143 0 .428-.143.57-.143.428 0 .285-.855-.142-1.282-.428-.285-.712-.285-.855-.285z"/>
    <path d="M179.06 46.581c-.57-.142-7.835-.285-23.79-.57-8.831-.142-16.096-.285-16.808-.427-3.134-.57-8.832-1.994-11.254-2.849-.427-.142-.855-.285-1.14-.427-2.564-.997-4.558-1.71-5.128-1.995-.142-.142-.427-.142-.57-.142-.142 0-.142 1.282-.142 3.704 0 3.276 0 3.846-.285 4.273-.855 1.14-2.137 1.71-3.419 1.282-1.424-.427-2.279-1.14-2.706-2.421-.143-.57-.143-.855 0-1.567.285-.855.57-1.14 1.994-1.567.285-.143.285-.428.285-2.85v-2.848l-1.567-.855c-.855-.427-1.71-.997-1.852-.997-.142-.143-.57-.428-.997-.57-.427-.285-.855-.427-.855-.57 0-.142-.142-.142-.142-.142-.428 0-5.128-3.42-7.693-5.698-2.136-1.852-3.988-3.277-4.273-3.277-.143 0-.712.57-1.282 1.14-.57.57-1.71 1.567-2.422 2.137-.712.57-1.567 1.282-1.71 1.424-.284.285-.569.428-.569.428s-.285.142-.427.284c-.57.57-1.852 1.425-1.995 1.425-.142 0-.285 0-.285.142s-3.56 2.422-5.982 3.989l-.998.712v2.85c0 3.133 0 3.133 1.14 3.276 1.567.285 2.28 2.136 1.282 3.418-1.14 1.567-3.704 1.852-4.986.57-.712-.57-.997-2.137-.712-2.421.285-.143.427-1.71.285-3.704-.142-1.852-.142-1.852-.57-1.852-.285 0-.855.285-1.424.57-1.14.57-2.28.997-2.85 1.14-.142 0-.57.142-.712.284-1.14.428-5.982 1.852-8.547 2.422-5.27 1.14-5.555 1.282-26.353 1.282-10.684 0-18.946.142-18.946.285s5.27 5.698 13.39 13.96l3.847 3.846v32.479c0 30.627 0 34.33.57 38.034.142 1.425.284 1.852.854 4.274.285 1.282 1.282 4.13 1.567 4.985.428.997 1.994 4.416 2.422 4.986 1.852 3.276 5.128 7.265 8.69 10.541 1.851 1.71 6.41 5.271 7.977 6.268.427.285 3.56 2.28 3.988 2.707.57.427 8.547 5.27 8.832 5.413.142 0 .57.285.855.427.285.143.712.428.854.428.143 0 .713.427 1.425.854.57.428 1.282.712 1.424.855.143.142.428.285.713.427.142.143.854.57 1.424.855.57.427 1.282.712 1.425.855.142.142.427.285.712.427 1.424.712 6.125 3.846 8.547 5.698 1.852 1.425 2.564 1.994 4.558 4.131 2.137 2.137 2.422 2.564 3.42 4.416.426.855.854 1.425.854 1.425s.427-.428.712-.998c.712-1.282 2.992-4.273 3.846-5.27 4.986-5.413 9.83-8.832 21.225-14.673 4.701-2.421 7.55-3.846 9.544-4.985.855-.428 1.425-.855 1.567-.855.143 0 .998-.57 2.137-1.282 1.14-.712 2.137-1.282 2.28-1.282.142 0 3.846-2.564 5.128-3.561 1.567-1.282 1.994-1.567 3.276-3.134.57-.57 1.14-1.282 1.14-1.425.427-.427 2.279-2.991 3.276-4.558 2.28-3.419 4.843-8.975 5.983-13.248.142-.57.427-1.425.57-1.994.427-1.282.854-3.277 1.567-7.55.284-1.71.284-4.274.427-34.046.142-28.205.142-32.194.427-32.478.143-.143 1.14-1.14 2.137-1.995.997-.854 2.564-2.279 3.276-3.134.855-.712 2.422-2.279 3.562-3.418 1.14-.998 2.421-2.137 2.706-2.565.285-.285 1.567-1.424 2.85-2.564a59.115 59.115 0 0 0 2.42-2.279c.286-.142.286-.142 0-.285zm-61.396 6.268c.712-.142 2.421-1.71 2.706-2.564.143-.285.285-.427.428-.427.142 0 .285.142.142.284-.142.143-.285.57-.427.998-.285.57-1.14 1.567-1.852 2.136-.142.143-.57.285-1.14.428-1.424.427-2.706.142-3.846-.997-.854-.855-1.282-1.425-1.71-2.85-.284-1.14-.427-1.709-.142-1.709.143 0 .143.143.143.285s0 .427.142.57c.143.142.285.712.57 1.14 1.14 2.279 2.992 3.276 4.986 2.706zm-16.24-19.23c.428.284 1.425 1.139 2.28 1.851.854.712 1.567 1.282 1.71 1.282.142.285 4.415 2.992 4.985 3.276.142 0 .855.428 1.424.855.57.428 1.282.712 1.282.712.143 0 .285.143.428.285.142.143.427.285.57.285.142 0 .427.143.712.285.427.285.285.57-.143.427-.427-.142-2.991-1.424-3.988-1.994-.285-.285-.712-.427-.855-.57-.142 0-.57-.285-.855-.57-.285-.284-.57-.427-.712-.427-.142 0-.427-.285-.855-.57-.427-.284-.712-.57-.854-.57-.143 0-2.707-1.851-3.134-2.279-.143-.142-.428-.427-.712-.57-.998-.712-2.137-1.851-2.137-2.136-.143-.285.142-.143.855.427zM84.33 42.307c-.142 0-.284-.57-.284-2.137 0-2.422-.143-2.137 2.136-3.419.428-.285.855-.427.855-.57.142-.142.712-.57 1.282-.712.285-.142.427-.285.427-.427 0-.143.143-.143.143-.143.285 0 3.988-2.849 6.553-4.843.427-.285 1.14-.855 1.424-1.282.427-.285.855-.855 1.14-.997.285-.285.57-.428.57-.428s.142 1.14.142 2.707v2.707l-.712.57c-.428.284-.997.854-1.282 1.139-.285.285-.713.57-.998.855-.142.285-.427.427-.57.427-.142 0-.427.285-.854.57-.285.285-.997.712-1.282.997-.427.285-.855.57-.997.712-.428.285-.997.712-1.282.855a.306.306 0 0 0-.285.285l-.855.57-.855.57c0 .142-.142.142-.427.142-.142 0-.427.142-.427.142 0 .143-.855.57-1.852.997-.712.285-1.567.713-1.71.713zm-2.421 9.544c1.424.712 2.991.427 4.13-.855.57-.712 1.283-1.994 1.283-2.564 0-.285.142-.57.285-.855.285-.285.285-.285.427.285.143.428 0 .855-.142 1.425-.143.427-.285.997-.285 1.14 0 .427-.997 1.566-1.852 1.994-.712.57-1.14.57-2.28.57-1.709 0-2.136-.285-3.418-1.425-.855-.855-1.567-2.137-1.425-2.28.143-.142.713.143.713.428 0 .285 1.71 1.71 2.564 2.137zm-40.314-5.128c8.69 0 16.667-.143 17.807-.143 3.561-.285 4.985-.427 5.27-.712.143-.143.57-.285 1.14-.285 1.14-.142 2.707-.57 2.849-.712.142-.143.285-.143.57-.143s.712-.142.997-.285c.285-.142.712-.284.997-.284.285 0 .57-.143.712-.285.143-.143.57-.285.713-.285.284 0 .427-.143.57-.143 0-.142.427-.285.712-.285.285-.142.712-.142.854-.285.143-.142.57-.284.997-.427.428-.142.998-.427 1.283-.57.284-.142.712-.285.854-.285.143 0 .428-.142.712-.284.143-.143.428-.285.57-.143.143 0 .143.997.143 2.137v2.137l-.713.284c-.427.143-.712.428-.854.428-.285.285-1.425.712-1.71.712-.142 0-.427.143-.712.285-.142.142-.57.285-.712.285-.285 0-.57.142-.855.285a9.398 9.398 0 0 1-1.567.57c-.57.142-1.282.427-1.424.427-.143.142-.57.142-.855.142-.285 0-.712.143-1.14.285-.427.143-.854.285-1.14.285-.284 0-.854.143-1.139.285-.427.143-.997.285-1.282.285-.285 0-.855.142-1.282.285-.285.142-1.282.285-1.994.285s-1.852.142-2.422.142c-.997.143-22.65.428-24.359.285-.712 0-1.852-.57-5.128-2.137l-4.274-2.136h15.812zM98.86 189.03c0 1.282-.142 2.422-.142 2.422s-.285-.285-.427-.57a4.329 4.329 0 0 0-.713-.997c-.285-.285-.712-.712-.997-1.14-.997-1.282-2.706-2.991-4.843-4.7-.285-.285-1.425-.998-2.422-1.852-.997-.713-1.994-1.425-1.994-1.567-.143-.143-.427-.285-.855-.57a2.004 2.004 0 0 1-.712-.427l-.57-.285c-.427-.143-.855-.428-1.71-.997a34.514 34.514 0 0 1-1.566-.998c-.285-.142-3.419-1.994-3.846-2.279-.143-.142-.428-.285-.57-.285-.143 0-.427-.285-.57-.427-.142-.142-.427-.285-.57-.285-.142 0-.285 0-.285-.142s-.142-.285-.427-.285c-1.567-.855-2.137-1.14-2.28-1.282 0 0-.569-.285-.996-.713-.57-.284-1.14-.57-1.282-.712-.143-.142-.57-.285-.713-.427-.142-.143-.57-.428-.997-.712-.427-.285-.854-.57-.997-.57-.142 0-.285-.143-.285-.143 0-.142-.142-.142-.142-.142-.143 0-.997-.427-1.852-.997-.855-.57-1.71-.997-1.71-.997-.142 0-2.136-1.425-2.564-1.852-.142-.143-.285-.143-.285-.143l-.854-.57-.855-.57c-.142 0-.142 0-.142-.142s-.285-.285-.713-.57c-.427-.284-.854-.57-.997-.712-.142-.142-.712-.57-1.282-.997-2.706-1.994-5.84-4.843-7.122-6.41-.143-.285-.713-.855-1.14-1.425-.427-.57-1.14-1.424-1.424-1.994-.285-.57-.713-.997-.713-.997l-1.424-2.28c-.712-1.281-1.425-2.279-1.567-2.564-.143-.142-.285-.427-.285-.57 0-.142-.285-.57-.285-.854-.142-.285-.427-.855-.57-1.282-.142-.427-.427-.855-.427-.997-.143-.143-.143-.57-.143-.712 0-.285-.142-.57-.284-.855-.143-.285-.285-.712-.285-.997 0-.285-.143-.713-.285-.997-.143-.285-.285-.713-.428-1.283-.142-.427-.285-1.566-.427-2.564-.142-.854-.427-2.564-.427-3.703-.143-1.14-.143-16.952-.143-35.043V62.82l-8.12-8.12a649.189 649.189 0 0 1-7.977-8.12c.143 0 .428.143.855.428a48.38 48.38 0 0 1 1.994 1.14c.855.426 2.137 1.139 2.992 1.566.855.427 1.852.997 2.279 1.282.427.285.855.427.855.57 0 .142.142.142.427.142.143 0 .427.143.57.285.142.143.427.285.712.285s1.852 1.425 4.701 4.274l4.273 4.13v33.619c0 22.507 0 33.903.143 34.473.142.427.285 1.282.285 1.994s.142 1.282.285 1.567c.142.143.142.57.142.997 0 .428.143.997.285 1.282.143.428.285.855.285 1.14 0 .285.142.712.285.997.142.285.285.57.285.855 0 .285.142.57.285.997.142.285.285.712.285.855 0 .142.142.427.142.427.142 0 .142.285.142.427 0 .285.428 1.425.713 1.852.142.143.285.428.285.57.285.712 1.709 3.561 1.851 3.704 0 0 .285.427.428.712.427.712 2.28 3.276 2.564 3.704.142.142.285.285.285.427 0 .285 4.843 5.128 5.983 5.983.57.427.997.855.997.855.427.427 6.125 4.558 6.838 4.843.142 0 .57.285.854.427.285.143.712.428.855.428.142 0 .285.142.285.285l.855.57c.427.284.854.427.997.57.142.142.712.427 1.852.996.427.143.712.428.712.428.142.142.712.57 1.71.997.427.285.854.427.996.57.143.142.285.142.57.285l1.425.712c.57.285 1.282.712 1.709.997.427.285.855.427.855.57l.57.285c.284.142.854.427 1.424.854.57.285 1.14.57 1.282.713.143.142.855.427 1.282.854.57.285.997.713 1.14.713.427.142.854.57 2.564 1.709.855.57 1.71 1.14 1.994 1.282.143.142.427.285.57.427.142.143.57.428.997.713l.855.57s.57.427.997.854c2.422 1.994 5.27 4.7 5.413 5.413 0 .285.142.712.285.997.142.143.142 1.567.142 2.85zm57.55-56.552s-.142 0-.142-.285c0-.143 0-.285.142-.143zm6.695-79.203c-.427.428-2.279 2.137-4.13 3.989l-3.277 3.276-.142 32.621c-.143 31.767-.143 33.619-.713 36.468-.142.57-.285 1.709-.427 2.564-.57 3.134-1.71 7.265-2.422 9.117-2.564 6.125-4.558 9.401-8.262 13.247-1.567 1.567-5.413 4.701-7.122 5.698-5.129 3.134-4.844 2.992-10.969 5.983-6.553 3.277-8.974 4.416-11.254 5.84-2.136 1.14-6.695 4.417-9.544 6.838-.854.713-1.567 1.282-1.71 1.425l-1.85 1.852c-.998.997-1.853 1.71-1.995 1.71-.143 0-.997-.713-1.995-1.568-2.564-2.421-4.7-4.273-5.698-4.843-.284-.143-.57-.285-.712-.427-.285-.143-1.424-.998-2.279-1.567-.142-.143-.57-.285-.712-.285a.306.306 0 0 1-.285-.285c0-.143-.143-.143-.428-.285-.284 0-.427-.143-.427-.285s-.142-.142-.285-.142-.427-.143-.57-.285c-.142-.143-.284-.285-.427-.285-.142 0-.285 0-.285-.143s-1.71-1.14-2.279-1.424c-.142 0-.285-.143-.285-.285s-.142-.143-.285-.143-.57-.142-.855-.427c-.284-.285-.57-.427-.712-.427-.142 0-.285-.143-.427-.143 0-.142-.285-.285-.57-.427-.285-.143-.57-.285-.712-.427-.143-.143-1.71-.998-3.419-1.995-6.553-3.703-12.82-7.692-14.815-9.259-2.564-2.137-5.698-4.986-7.122-6.695-1.71-1.994-3.989-5.413-4.844-6.838-.142-.427-.57-.997-.712-1.424-.285-.428-.427-.855-.427-.997 0-.143-.143-.428-.285-.428-.143-.142-.285-.427-.285-.57 0-.142-.142-.57-.285-.997-.57-1.14-.57-1.14-.712-1.852 0-.427-.143-.712-.285-.712-.143 0-.143-.285-.143-.427 0-.143-.142-.57-.284-.997-.143-.285-.285-.855-.285-1.14 0-.285-.143-.997-.285-1.424-.143-.428-.285-1.282-.428-1.852-.142-.57-.284-1.567-.427-2.28-.142-.997-.285-8.546-.285-35.327V60.54l-1.282-1.28c-.712-.712-2.564-2.421-4.13-3.846-2.28-2.28-2.707-2.706-2.423-2.849.285-.285 1.14-.142 1.14.143 0 .142.142.142.285 0 .285-.143.427-.143.57.142.142.285.997.285 4.558.285 2.992 0 4.416 0 4.416-.143.143-.284 3.561-.427 7.408-.427 1.282 0 3.703-.142 5.413-.285 1.709-.142 3.134-.285 3.418-.142h.57c.285-.143 1.71-.57 2.28-.57.997 0 6.837-1.852 8.262-2.564.284-.143.712-.285.854-.285.143 0 .428-.143.57-.143.142-.142.57-.284.997-.427.997-.285 1.282 0 1.14.997-.285 1.567 1.14 3.989 2.849 4.844 2.564 1.424 5.413 1.14 6.98-.713.712-.712 1.567-3.276 1.567-4.416 0-1.709-.855-3.276-1.995-4.13-.57-.428-.712-.57-.712-.998 0-.427.428-.712 1.852-1.424 3.419-1.852 6.41-3.846 9.972-6.98 1.14-.998.854-.998 3.134.712 1.14.855 2.279 1.852 2.706 2.137.427.285.712.427.712.57 0 0 .713.427 1.425.997 3.419 2.136 3.561 2.279 6.41 3.846.427.285.855.57.997.712.143.427-.142.997-.57 1.14-.427.142-1.14.997-1.709 1.994-.57 1.14-.57 3.134 0 4.558.427 1.14 1.567 2.28 2.849 2.992.855.427.997.57 2.564.427 1.425 0 1.852-.142 2.85-.57 1.993-.997 3.133-2.706 3.133-4.843 0-.712 0-1.425.142-1.567.143-.427.713-.427 1.567 0 .855.427 1.71.855 2.85 1.282.57.143 1.139.427 1.281.427.713.285 4.132 1.14 5.84 1.425 3.42.712 11.254 1.14 21.51 1.282 5.841.142 8.263.142 8.405.285-.57-.712-.854-.285-1.282.142z"/>
    <path d="M133.333 75.926c-.285-.143-.997.427-.997.712 0 .143-.142.428-.142.57-.285.57-1.282 2.849-1.282 2.991 0 .143-.143.428-.285.713-.143.285-.428.712-.428.854-.142.143 0 .428.57.713.428.285.997.427 1.282.427.855 0 .997-.427 1.14-3.846.142-1.567.285-2.85.285-2.992 0 0 0-.142-.143-.142zm-23.361 7.977c1.709 0 1.994-.712 2.279-5.413.142-1.71.285-3.846.285-4.558.285-1.995.285-5.129 0-5.413-.143-.143-.713-.285-1.282-.428-1.567-.285-1.71-.285-1.852 2.28-.143 1.139-.285 2.563-.285 2.99-.143.428-.143 1.995-.143 3.277s-.142 3.277-.142 4.416c-.143 1.994-.143 2.137.142 2.422.143.285.428.427.998.427zM69.8 82.051c1.851-.285 1.851-.285 1.994-.854 0-.285 0-.57-.143-.855-.284-.427-.57-1.567-.712-1.994 0-.143-.142-.57-.285-.998-.142-.284-.285-.712-.285-.854 0-.143 0-.285-.142-.428-.143-.142-.285-.427-.285-.854-.285-.997-.427-.997-.712 0s-.285 6.41 0 6.695c-.143.142.285.285.57.142zm-1.995 31.624c.428-.285.428-.427.428-3.988v-3.704l-.428-.285c-.57-.427-2.136-.427-2.564 0-.285.285-.285.712-.285 3.989 0 2.991 0 3.703.285 3.988.285.57 1.994.57 2.564 0zm12.963 33.049c-.285 0-.854 1.14-.712 1.424.142.285 1.424.285 1.567 0 0-.285-.712-1.424-.855-1.424z"/>
  </g>
</svg>
