<svg xmlns="http://www.w3.org/2000/svg" width="200" height="200" viewBox="0 0 200 200">
  <circle class="color-orange color-main" fill="#d88e39" cx="100" cy="100" r="100"/>
  <path class="color-white color-stroke-black" fill="#fff" stroke="#000" stroke-miterlimit="10" stroke-width=".712" d="M87.328 162.25c-2.707-.712-4.132-1.709-4.986-3.276-1.14-2.136-1.282-3.846-.57-5.698 1.424-3.419 3.846-4.985 7.835-4.985 2.706 0 4.7.854 5.84 2.849 1.282 1.994 1.14 3.56-.285 4.7-1.567 1.282-1.994 1.14-1.994-.427 0-1.852-.712-2.991-2.28-3.704-2.136-1.14-3.418-.854-5.27.855-1.424 1.425-1.567 1.71-1.282 3.419.427 3.561 2.992 5.128 7.692 4.7 3.562-.284 6.41-1.424 8.12-3.418.57-.712 3.276-5.84 6.125-11.681 6.838-13.818 7.835-16.24 7.265-16.382-.57-.142 2.137-5.84 2.85-5.84.284 0 .854-.855 1.281-1.71.855-1.994 2.565-3.846 4.416-4.416 1.852-.712 5.129-.57 6.838.285 1.424.713 2.137 1.995.997 1.995-.285 0-1.567.57-2.706 1.282-1.567.997-2.422 1.282-3.562.997-1.14-.143-1.71 0-2.136.57-.428.57-.428.854-.143.997.712.427-1.852 5.84-2.991 6.125-.428.143-1.282 1.14-1.71 2.422-.57 1.14-3.276 6.98-6.268 12.963-4.843 9.829-5.555 11.11-7.834 13.105-1.425 1.282-3.562 2.85-4.844 3.419-2.706 1.282-7.55 1.71-10.398.855zm-25.784-11.253c-1.424-.427-1.282-1.994.427-3.846 1.282-1.282 8.547-16.24 24.644-50.712 5.128-10.827 5.556-12.251 5.27-13.676l-.284-1.709 1.567.285c.855.142 2.707.427 4.131.57 3.419.427 3.561 1.14 1.282 3.134-1.424 1.282-2.422 2.991-4.273 6.98-1.425 2.991-2.422 5.698-2.422 5.84 0 .285.855.428 1.852.428h1.852l3.134-6.553c1.709-3.561 3.276-7.408 3.418-8.262.285-1.71.428-1.71 1.567-1.71.713.143 2.564.143 3.989.285 4.416.143 4.986 1.282 1.567 2.992l-2.28 1.14-9.97 20.655c-5.414 11.396-12.11 25.07-14.673 30.484-2.564 5.413-4.844 10.399-4.844 11.253 0 .855-.284 1.567-.427 1.71-.57.57-3.846.997-5.555.712-2.422-.285-2.565-1.424-.143-3.561 1.425-1.425 3.419-5.128 10.257-19.516 4.7-9.829 8.547-17.949 8.547-18.091 0-.142-.855-.142-1.995-.142l-1.994.142-3.704 7.265a1305.333 1305.333 0 0 1-9.117 19.088c-3.703 7.693-5.555 12.109-5.413 12.678.143.57 0 1.14-.427 1.425-.712.712-4.416 1.14-5.983.712zm60.684-3.989c-.143-.427.142-1.14.855-1.851 1.282-1.282 9.116-17.664 9.544-20.086.285-1.282.57-1.567 1.71-1.852.996-.142 1.566-.142 1.85.285.286.57.57.57 1.853.143.854-.285 1.567-.428 1.71-.285.142.142-.286 1.424-.998 2.991-1.14 2.28-1.424 2.707-2.422 2.707-.712 0-1.424.285-1.851.57-.998.854-8.12 15.812-7.835 16.524.427.997-.57 1.567-2.422 1.567-1.282 0-1.852-.143-1.994-.713zm-7.265-.57c-.427-.427-.855-1.424-.855-2.279 0-1.566 8.547-19.515 9.687-20.37 1.14-.855 3.846-.712 4.986.285 2.136 1.994 1.994 2.137-4.416 15.527-2.28 4.558-3.277 6.125-4.274 6.838-1.994 1.14-4.131 1.14-5.128 0zm7.977-10.968c1.852-4.131 3.419-7.692 3.419-7.977 0-.712-1.14-1.14-1.71-.428-.997 1.283-7.692 15.67-7.407 16.097.143.428.57.428 1.282.143.712-.143 1.852-2.137 4.416-7.835zm9.544 10.969c-1.424-1.567-.854-3.277 3.846-13.106 5.129-10.541 5.698-11.396 8.12-9.829.712.428 1.282.712 1.425.57.854-.855 9.971-20.655 9.971-21.652 0-4.559-4.131-5.84-7.835-2.422-1.424 1.282-1.282 3.561.143 4.7 1.424 1.14 2.279 1.14 3.561.286.997-.713.997-.713.997.427 0 3.134-2.422 4.986-5.27 4.274-2.565-.713-3.704-2.28-3.99-5.271-.142-3.276.856-5.128 3.562-6.838 5.27-3.276 11.254-1.14 11.824 4.274.284 2.137-.285 3.561-6.696 16.666-2.136 4.559-5.698 11.824-7.834 16.097-3.42 7.123-3.847 8.12-3.562 9.83.428 2.706-.142 3.418-1.994 2.706-.997-.285-1.71-.427-2.422-.143-1.567.57-2.991.428-3.846-.57zm4.416-3.704c.428-.57 2.137-3.989 3.846-7.835 2.422-5.128 3.134-6.98 2.707-7.265-.427-.427-.712-.427-.997 0-.57.57-7.55 15.1-7.55 15.67 0 .854 1.282.427 1.994-.57zm-46.866 3.846c0-.142.712-1.71 1.567-3.419 4.986-10.256 8.69-18.233 8.69-18.946 0-.57.284-.854 1.282-.854.712 0 1.424.285 1.566.57.143.57.428.57 1.995 0 .997-.428 1.71-.428 1.71-.143 0 .285-.57 1.567-1.283 3.134-1.14 2.28-1.567 2.707-2.564 2.707-.712 0-1.424.284-1.71.57-.712.997-6.837 14.102-6.837 14.814 0 .997-1.424 1.994-2.849 1.994-.855-.142-1.567-.284-1.567-.427zm11.681-.427c-1.71-1.14-1.282-3.134 2.137-10.114 1.994-4.131 2.849-6.553 2.564-6.838-.57-.57 2.137-5.84 2.849-5.84.285 0 .997-.997 1.71-2.137.712-1.424 1.566-2.422 2.848-2.991.997-.428 1.852-.713 1.852-.57.143.142-.285 1.424-.855 2.706-1.282 2.992-1.282 2.85-.427 2.85.57 0 .285.712-.712 2.848-.855 1.852-1.71 2.85-2.137 2.85-.712 0-2.28 2.99-5.84 10.826l-1.425 3.133.997.713c.855.57.997.712.285 1.994-.997 1.424-2.28 1.71-3.846.57zm-14.103-.143c-.142-.285-1.282-.285-2.564-.142-2.706.285-3.276-.143-3.703-2.707-.143-1.14 0-2.136.997-4.13 1.567-3.135 3.846-5.556 6.98-6.98 1.994-.855 2.564-1.568 3.276-2.992 1.282-2.85-.142-4.416-1.852-2.137-.712.997-.854.997-1.567.427-.712-.57-.712-.712-.142-1.851 1.71-3.277 4.843-3.99 6.838-1.71.57.712.997 1.71.997 2.28 0 .57-1.567 4.273-3.42 8.119-1.851 3.989-3.418 7.692-3.56 8.547-.285 2.707-1.567 4.558-2.28 3.276zm-.142-6.552c.855-1.852 1.567-3.562 1.424-3.562-.57-.57-3.56 2.564-4.273 4.274-.57 1.71-.57 1.852 0 2.28.427.284.712.426.855.426.142 0 1.14-1.567 1.994-3.418zm-29.345 5.413c-1.994-.855-2.849-2.422-2.849-4.986 0-1.71.428-3.276 2.28-7.407 1.851-4.131 2.279-5.414 1.851-5.84-.712-.713-1.282 0-3.561 5.412-1.852 4.131-2.137 4.416-3.134 4.416h-1.14l.855-1.852c.428-.997 1.567-3.418 2.422-5.413.855-1.994 1.567-3.846 1.567-4.273 0-.57.57-.713 2.279-.855 4.274-.142 4.416 1.14.855 8.974-1.995 4.416-2.564 5.983-2.422 7.123.285 1.852 1.425 2.991 2.564 2.991 1.282 0 2.564-1.282 2.28-2.136-.143-.285-.285-.713-.285-.855 0-.427-1.567-.143-2.137.285-.428.427-.57.285-.57-.712 0-1.71 1.71-2.707 3.276-1.995.57.285 1.425 1.14 1.71 1.71.712 1.709-.57 4.273-2.564 5.128-1.852.997-1.425 1.14-3.277.285zm-12.393-8.975c-1.282-.854-1.282-2.849 0-4.416.57-.712 2.137-1.851 3.561-2.564 1.425-.712 2.564-1.567 2.564-1.994 0-.712-1.14-.855-1.567-.285-.284.57-2.849.57-2.849.143 0-.57.57-1.14 1.995-2.28 1.567-1.282 3.846-1.282 4.986-.142.854.855.712.997-.713 4.273-.854 1.852-1.852 4.274-2.136 5.414-.713 1.851-.855 1.994-2.707 2.136-1.425.428-2.564.285-3.134-.285zm3.846-3.276c.997-1.994.57-2.28-1.14-.712-.854.712-1.139 1.282-.854 1.71.427 1.281.997.996 1.994-.998zm11.681 3.134c-1.282-1.282-1.14-1.994.855-6.268 2.564-5.413 3.846-6.553 6.268-5.27.712.427.997.142 1.71-1.283.426-.997.854-1.994.854-2.136 0-.285-1.14 0-2.564.427-1.425.427-3.846.997-5.556 1.14-2.849.285-2.991.142-4.416-1.14-1.14-1.14-1.282-1.567-1.14-2.564.428-1.71 1.425-2.707 3.134-3.134 1.425-.427 3.99-.142 4.986.57.855.57.57 2.421-.427 3.419-1.425 1.282-2.137 1.14-1.994-.285.142-1.567-.285-2.28-1.567-2.28-2.422 0-2.707 2.85-.428 3.99 1.71.854 3.989.284 8.69-2.138 1.852-.854 3.419-1.709 3.703-1.851.143-.143.57.284.855.854.427.855-.142 2.28-3.846 9.83-2.422 4.843-4.558 8.831-4.843 8.831-.285 0-1.14.143-1.995.285-1.14 0-1.567-.285-2.279-.997zm4.986-4.986c1.14-2.706 1.282-4.273.285-4.273-.285 0-1.282 1.567-2.28 3.56-1.424 2.707-1.709 3.705-1.281 3.99.997.57 1.994-.428 3.276-3.277zm-17.237-13.533c-1.14-.284-.997-1.282.57-2.421.855-.712 2.137-2.85 3.561-5.698 1.14-2.564 3.99-8.547 6.268-13.39 5.698-12.109 5.413-10.97 5.271-17.095l-.142-5.27-8.12 17.379-8.12 17.379.428 2.136c.284 1.14.427 2.28.284 2.564-.284.428-5.982.57-7.122.143-1.14-.427-.855-2.137.855-4.274.854-.997 1.994-2.991 2.564-4.13.997-2.137 3.134-6.98 14.53-31.197l4.843-10.4-.285-7.549c-.285-8.262 0-9.829 2.137-13.105 2.991-4.559 7.265-4.559 9.26-.143 1.424 3.134 1.139 4.274-2.992 13.106-3.277 7.265-3.704 8.404-3.562 9.829.143.854.428 1.852.57 1.852.143.142 2.564-4.559 5.27-10.257 4.56-9.687 4.844-10.541 4.417-11.966-.855-2.564-.428-2.849 3.988-2.849 2.137 0 4.416.143 4.986.285 1.852.57 1.567 1.567-.57 2.85-1.852 1.139-2.136 1.566-5.413 8.546-4.7 10.114-6.837 14.53-11.253 23.932-2.137 4.416-4.131 8.832-4.559 9.829-1.852 4.273-13.533 28.917-13.96 29.487-.142.712-2.137.855-3.704.427zM70.803 49.43c1.282-2.849 2.28-5.27 2.28-5.555 0-.855-1.71-1.995-2.422-1.71-.855.285-2.422 2.707-2.992 4.701-.427 1.567 0 7.55.428 7.55.285 0 1.567-2.28 2.706-4.986zm41.168 65.527c-1.851-1.14-2.421-2.849-2.421-7.265 0-3.134.285-4.13 1.994-8.69 1.14-2.99 1.994-5.84 1.994-6.837 0-1.567.143-1.71 1.282-1.71a3.84 3.84 0 0 0 2.137-.711c2.422-1.852 3.277.142 1.14 2.849-1.425 1.709-3.277 6.125-2.992 6.98.143.284 1.425-.998 2.992-2.85 3.988-4.558 8.12-7.692 14.815-10.968 8.689-4.274 12.108-7.835 11.68-12.108-.284-2.564-.997-3.277-2.991-3.134-1.282.142-1.71.427-1.994 1.424-.57 1.425 0 2.564 1.424 3.134.997.428 1.282 1.14.428 1.14-.855 0-2.992-1.282-3.277-1.995-.997-2.564.855-5.128 3.561-5.128 4.416 0 6.268 3.704 4.416 9.117-1.282 3.561-3.988 5.84-11.253 9.402-3.561 1.71-7.692 4.13-9.26 5.27-6.695 4.986-10.683 12.82-10.683 20.513 0 2.707-.57 2.992-2.992 1.567zm14.53-.854c0-.285.428-.855.997-1.283.998-.854 9.545-18.09 9.972-20.085.427-1.852.997-2.28 3.276-2.28 2.28 0 4.986 1.283 4.986 2.422 0 .428-1.567 3.847-3.419 7.835-4.558 9.544-4.416 9.117-3.276 10.114.57.57.855 1.282.712 1.852-.142.855-.427.997-1.852.855-1.994 0-2.991-.997-2.991-2.85 0-.57 1.567-4.558 3.561-8.831 1.994-4.274 3.419-7.835 3.276-8.12-.712-1.14-1.851.427-5.84 8.69-3.276 6.695-4.416 9.259-4.131 10.114.285 1.14.142 1.14-1.425 1.14-.997 0-2.136 0-2.706.284-.712.427-1.14.427-1.14.143zm-27.635-1.14c-.712-.427-1.282-1.14-1.567-2.137-.855-3.419 1.994-7.835 7.123-10.969 2.279-1.424 3.133-2.279 3.846-3.846 1.282-2.991.285-3.846-2.137-1.71-2.28 1.995-2.707-.142-.427-2.563 1.994-2.137 3.846-2.137 5.698-.285 1.709 1.71 1.709 2.28-2.565 11.111-2.706 5.698-3.276 7.407-3.133 8.547.284 1.994-.285 2.707-1.852 2.137-.713-.285-1.71-.285-2.137-.143-1.14.57-1.567.57-2.849-.142zm3.989-5.983c1.709-3.134 1.709-3.561.142-2.564-1.424.855-2.707 2.849-2.707 4.13 0 1.853 1.283.998 2.565-1.566zm18.518 6.125c-1.14-.712-1.567-1.282-1.567-2.421 0-1.567 8.405-18.234 9.687-19.231 1.567-1.282 3.134-1.567 4.558-.855 1.71.997 1.567 2.28-.712 7.265-2.28 4.843-2.564 5.128-6.41 5.128-.997 0-1.425.428-2.564 2.992-1.567 3.276-1.71 3.988-.855 3.988.427 0 1.14-.997 1.852-2.279a14.541 14.541 0 0 1 1.282-2.279c.142 0 .712.285 1.282.57l1.14.57-1.283 2.564c-.712 1.424-1.709 2.849-2.136 3.276-1.14.997-3.134 1.282-4.274.712zm9.402-16.666c1.14-2.707 1.282-3.704.142-3.134-.57.285-3.134 5.27-3.134 5.983 0 .285.428.285.855.142.57-.142 1.282-1.282 2.137-2.991zm-69.943 15.527c-.855-.57-.997-.997-.855-2.422.285-1.71 7.123-16.951 8.262-18.376 1.14-1.282 3.419-2.137 4.416-1.567 1.994.997 1.852 2.564-.712 7.977-1.994 4.274-2.137 4.416-3.561 4.416-.855 0-1.852.143-2.137.285-.855.285-3.846 6.125-3.419 6.553.712.712 1.282.142 2.28-1.71.854-1.851.996-1.994 1.851-1.424.428.285.855.712.855.855 0 .712-2.137 4.558-2.85 5.128-1.139.997-3.133 1.14-4.13.285zm8.974-15.527c1.282-2.992 1.567-3.846.855-3.989-.427-.142-1.425 1.852-3.276 6.125-.143.143.142.285.57.285s1.139-.997 1.851-2.421zm-.142 15.954-.997-.285 1.282-2.564c2.279-4.558 4.985-14.53 4.985-18.518 0-1.425.143-1.425 1.852-1.71.997-.142 1.995-.142 1.995-.142s-.428 1.282-.998 2.706c-.57 1.425-1.14 3.134-1.14 3.704v1.14l.713-.998c.427-.57 1.567-3.133 2.564-5.698 1.852-4.416 1.994-4.7 3.276-4.843l1.425-.142-1.425 2.564c-1.14 2.137-1.424 3.134-1.566 5.983l-.143 3.418.855-1.709c.427-.997.997-2.564 1.14-3.419.284-1.994.712-2.136 3.276-1.994l1.852.142-1.852 2.707c-2.422 3.419-5.413 9.687-7.408 15.527-1.567 4.274-1.567 4.416-2.991 4.558-1.71.143-1.71.143-.712-1.709.712-1.282 2.136-9.26 1.851-9.544-.284-.285-2.849 3.419-3.846 5.413-.427.997-.854 2.422-.854 3.134-.143 2.422-.428 2.706-3.134 2.28zm26.21-31.481c-.854-.428-.712-1.71.143-2.422.427-.285 2.137-3.419 3.704-6.695l2.991-6.126-2.28-8.974c-1.993-8.12-2.278-9.117-3.56-10.114l-1.425-1.14 1.14-.712c.854-.57 2.137-.712 5.413-.57 5.983.143 6.268.428 3.704 2.992l-1.567 1.567 1.14 4.843 1.139 4.843 5.84-5.84c8.69-8.547 15.385-12.963 22.08-14.672 6.695-1.71 13.533 1.424 12.82 5.84-.142.855-.57 1.994-.997 2.422-2.991 3.276-11.11 3.988-13.675 1.282-.997-1.14-.57-2.85.855-3.419 1.424-.712 2.564 0 2.564 1.567 0 1.994 1.994 2.422 5.128.855 4.844-2.28 2.707-6.268-3.419-6.268-5.413 0-12.82 4.273-20.37 11.966l-5.128 5.128-4.559 9.687c-3.418 7.264-4.558 10.113-4.558 11.396 0 .997-.142 1.851-.427 1.994-.713.427-5.983.855-6.695.57zm10.4-.57c-.713-.57-1.568-2.137-1.568-3.419s8.405-18.519 9.402-19.373c2.28-1.852 6.126-.428 6.126 2.137 0 1.851-8.405 19.23-9.83 20.085-.997.997-3.276 1.14-4.13.57zm6.41-11.111c2.136-4.559 3.846-8.547 3.703-8.975-.142-.427-.427-.57-.712-.142-.427.427-8.404 16.809-8.404 17.236 0 .143.284.143.712.143.57.142 2.137-2.707 4.7-8.262zm.142 10.826c-.142-.427 0-.997.427-1.425 1.425-1.567 9.545-19.373 9.402-20.37-.285-1.14 1.14-1.71 2.28-.855.57.428 1.139.428 2.421 0 .855-.285 1.71-.427 1.71-.427.142.142-.428 1.424-1.14 3.134-1.14 2.564-1.425 2.849-2.28 2.706-.57-.142-1.139 0-1.424.285-.855 1.14-7.122 14.815-7.122 15.67 0 1.71-3.704 2.706-4.274 1.282zm6.125.142c0-.285.428-.997.998-1.709.57-.57 3.56-6.695 6.695-13.533 3.134-6.837 5.84-12.678 5.983-13.105.712-1.425 4.416-.997 4.416.427 0 .427-.57 1.425-1.282 1.994-1.14.998-6.126 10.257-6.268 11.396 0 .143 1.994-1.709 4.273-4.13l4.274-4.417 2.564.143 2.564.142-3.846 2.992c-2.137 1.71-5.413 4.416-7.265 6.125l-3.276 3.134 1.282 3.846c.712 2.137 1.851 4.274 2.421 4.844 1.567 1.424.997 2.279-1.567 2.279-2.849 0-3.703-.57-2.849-1.71.428-.712.428-1.424-.142-3.418-.428-1.425-.855-2.707-1.14-2.992-.427-.427-3.134 4.7-3.134 5.84 0 .428-.427 1.14-.997 1.567-.997.855-3.704.998-3.704.285zm-43.874-.712c-1.852-1.282-1.282-3.276 3.134-12.82l4.13-8.832 1.568-.143c1.994-.142 3.419 1.14 3.419 2.992 0 .712-.855 3.276-1.995 5.698l-1.994 4.416-2.137.142-2.137.143-1.14 2.706c-.711 1.425-1.139 2.85-.996 3.134.427.855 1.14.285 1.994-1.567.997-2.137 1.14-2.137 2.137-1.567.57.285.57.712-.143 2.422-1.424 3.419-3.703 4.843-5.84 3.276zm8.262-14.245c1.282-2.706 1.424-3.704.57-3.704-.285 0-3.134 5.698-3.134 6.41 0 .143.285.286.57.286s1.14-1.282 1.994-2.992zm-2.137 14.815c0-.143.997-2.28 2.137-4.843 2.849-5.84 3.989-9.402 4.558-14.103l.57-3.704h1.567c1.282 0 1.425.143 1.14.713-1.14 2.564-1.995 5.413-1.995 6.695s.143 1.424.713.854c1.709-1.424 4.13-8.262 4.13-11.396 0-1.567.286-1.851 1.71-1.424 1.14.427 1.14.57-.427 5.698-.997 3.134-1.14 5.84-.428 5.128.285-.285.855-1.852 1.282-3.704.713-2.849.855-3.133 1.852-3.133 2.422 0 2.422.57.713 3.988-.855 1.852-2.28 4.416-3.134 5.983-1.852 3.134-3.134 6.98-3.562 10.541l-.285 2.564H89.75c-1.14 0-1.994-.142-1.994-.427 0-.285.712-1.994 1.567-3.988 1.424-3.134 1.994-6.696 1.282-6.696-.143 0-.997.428-1.71.855-1.566.997-1.994 2.137-2.849 7.265l-.57 2.991H83.34c-1.282.285-2.137.285-2.137.143z"/>
  <path class="color-stroke-black" fill="none" stroke="#000" stroke-miterlimit="10" stroke-width="1.425" d="M87.328 162.25c-2.707-.712-4.132-1.709-4.986-3.276-1.14-2.136-1.282-3.846-.57-5.698 1.424-3.419 3.846-4.985 7.835-4.985 2.706 0 4.7.854 5.84 2.849 1.282 1.994 1.14 3.56-.285 4.7-1.567 1.282-1.994 1.14-1.994-.427 0-1.852-.712-2.991-2.28-3.704-2.136-1.14-3.418-.854-5.27.855-1.424 1.425-1.567 1.71-1.282 3.419.427 3.561 2.992 5.128 7.692 4.7 3.562-.284 6.41-1.424 8.12-3.418.57-.712 3.276-5.84 6.125-11.681 6.838-13.818 7.835-16.24 7.265-16.382-.57-.142 2.137-5.84 2.85-5.84.284 0 .854-.855 1.281-1.71.855-1.994 2.565-3.846 4.416-4.416 1.852-.712 5.129-.57 6.838.285 1.424.713 2.137 1.995.997 1.995-.285 0-1.567.57-2.706 1.282-1.567.997-2.422 1.282-3.562.997-1.14-.143-1.71 0-2.136.57-.428.57-.428.854-.143.997.712.427-1.852 5.84-2.991 6.125-.428.143-1.282 1.14-1.71 2.422-.57 1.14-3.276 6.98-6.268 12.963-4.843 9.829-5.555 11.11-7.834 13.105-1.425 1.282-3.562 2.85-4.844 3.419-2.706 1.282-7.55 1.71-10.398.855zm-25.784-11.253c-1.424-.427-1.282-1.994.427-3.846 1.282-1.282 8.547-16.24 24.644-50.712 5.128-10.827 5.556-12.251 5.27-13.676l-.284-1.709 1.567.285c.855.142 2.707.427 4.131.57 3.419.427 3.561 1.14 1.282 3.134-1.424 1.282-2.422 2.991-4.273 6.98-1.425 2.991-2.422 5.698-2.422 5.84 0 .285.855.428 1.852.428h1.852l3.134-6.553c1.709-3.561 3.276-7.408 3.418-8.262.285-1.71.428-1.71 1.567-1.71.713.143 2.564.143 3.989.285 4.416.143 4.986 1.282 1.567 2.992l-2.28 1.14-9.97 20.655c-5.414 11.396-12.11 25.07-14.673 30.484-2.564 5.413-4.844 10.399-4.844 11.253 0 .855-.284 1.567-.427 1.71-.57.57-3.846.997-5.555.712-2.422-.285-2.565-1.424-.143-3.561 1.425-1.425 3.419-5.128 10.257-19.516 4.7-9.829 8.547-17.949 8.547-18.091 0-.142-.855-.142-1.995-.142l-1.994.142-3.704 7.265a1305.333 1305.333 0 0 1-9.117 19.088c-3.703 7.693-5.555 12.109-5.413 12.678.143.57 0 1.14-.427 1.425-.712.712-4.416 1.14-5.983.712zm60.684-3.989c-.143-.427.142-1.14.855-1.851 1.282-1.282 9.116-17.664 9.544-20.086.285-1.282.57-1.567 1.71-1.852.996-.142 1.566-.142 1.85.285.286.57.57.57 1.853.143.854-.285 1.567-.428 1.71-.285.142.142-.286 1.424-.998 2.991-1.14 2.28-1.424 2.707-2.422 2.707-.712 0-1.424.285-1.851.57-.998.854-8.12 15.812-7.835 16.524.427.997-.57 1.567-2.422 1.567-1.282 0-1.852-.143-1.994-.713zm-7.265-.57c-.427-.427-.855-1.424-.855-2.279 0-1.566 8.547-19.515 9.687-20.37 1.14-.855 3.846-.712 4.986.285 2.136 1.994 1.994 2.137-4.416 15.527-2.28 4.558-3.277 6.125-4.274 6.838-1.994 1.14-4.131 1.14-5.128 0zm7.977-10.968c1.852-4.131 3.419-7.692 3.419-7.977 0-.712-1.14-1.14-1.71-.428-.997 1.283-7.692 15.67-7.407 16.097.143.428.57.428 1.282.143.712-.143 1.852-2.137 4.416-7.835zm9.544 10.969c-1.424-1.567-.854-3.277 3.846-13.106 5.129-10.541 5.698-11.396 8.12-9.829.712.428 1.282.712 1.425.57.854-.855 9.971-20.655 9.971-21.652 0-4.559-4.131-5.84-7.835-2.422-1.424 1.282-1.282 3.561.143 4.7 1.424 1.14 2.279 1.14 3.561.286.997-.713.997-.713.997.427 0 3.134-2.422 4.986-5.27 4.274-2.565-.713-3.704-2.28-3.99-5.271-.142-3.276.856-5.128 3.562-6.838 5.27-3.276 11.254-1.14 11.824 4.274.284 2.137-.285 3.561-6.696 16.666-2.136 4.559-5.698 11.824-7.834 16.097-3.42 7.123-3.847 8.12-3.562 9.83.428 2.706-.142 3.418-1.994 2.706-.997-.285-1.71-.427-2.422-.143-1.567.57-2.991.428-3.846-.57zm4.416-3.704c.428-.57 2.137-3.989 3.846-7.835 2.422-5.128 3.134-6.98 2.707-7.265-.427-.427-.712-.427-.997 0-.57.57-7.55 15.1-7.55 15.67 0 .854 1.282.427 1.994-.57zm-46.866 3.846c0-.142.712-1.71 1.567-3.419 4.986-10.256 8.69-18.233 8.69-18.946 0-.57.284-.854 1.282-.854.712 0 1.424.285 1.566.57.143.57.428.57 1.995 0 .997-.428 1.71-.428 1.71-.143 0 .285-.57 1.567-1.283 3.134-1.14 2.28-1.567 2.707-2.564 2.707-.712 0-1.424.284-1.71.57-.712.997-6.837 14.102-6.837 14.814 0 .997-1.424 1.994-2.849 1.994-.855-.142-1.567-.284-1.567-.427zm11.681-.427c-1.71-1.14-1.282-3.134 2.137-10.114 1.994-4.131 2.849-6.553 2.564-6.838-.57-.57 2.137-5.84 2.849-5.84.285 0 .997-.997 1.71-2.137.712-1.424 1.566-2.422 2.848-2.991.997-.428 1.852-.713 1.852-.57.143.142-.285 1.424-.855 2.706-1.282 2.992-1.282 2.85-.427 2.85.57 0 .285.712-.712 2.848-.855 1.852-1.71 2.85-2.137 2.85-.712 0-2.28 2.99-5.84 10.826l-1.425 3.133.997.713c.855.57.997.712.285 1.994-.997 1.424-2.28 1.71-3.846.57zm-14.103-.143c-.142-.285-1.282-.285-2.564-.142-2.706.285-3.276-.143-3.703-2.707-.143-1.14 0-2.136.997-4.13 1.567-3.135 3.846-5.556 6.98-6.98 1.994-.855 2.564-1.568 3.276-2.992 1.282-2.85-.142-4.416-1.852-2.137-.712.997-.854.997-1.567.427-.712-.57-.712-.712-.142-1.851 1.71-3.277 4.843-3.99 6.838-1.71.57.712.997 1.71.997 2.28 0 .57-1.567 4.273-3.42 8.119-1.851 3.989-3.418 7.692-3.56 8.547-.285 2.707-1.567 4.558-2.28 3.276zm-.142-6.552c.855-1.852 1.567-3.562 1.424-3.562-.57-.57-3.56 2.564-4.273 4.274-.57 1.71-.57 1.852 0 2.28.427.284.712.426.855.426.142 0 1.14-1.567 1.994-3.418zm-29.345 5.413c-1.994-.855-2.849-2.422-2.849-4.986 0-1.71.428-3.276 2.28-7.407 1.851-4.131 2.279-5.414 1.851-5.84-.712-.713-1.282 0-3.561 5.412-1.852 4.131-2.137 4.416-3.134 4.416h-1.14l.855-1.852c.428-.997 1.567-3.418 2.422-5.413.855-1.994 1.567-3.846 1.567-4.273 0-.57.57-.713 2.279-.855 4.274-.142 4.416 1.14.855 8.974-1.995 4.416-2.564 5.983-2.422 7.123.285 1.852 1.425 2.991 2.564 2.991 1.282 0 2.564-1.282 2.28-2.136-.143-.285-.285-.713-.285-.855 0-.427-1.567-.143-2.137.285-.428.427-.57.285-.57-.712 0-1.71 1.71-2.707 3.276-1.995.57.285 1.425 1.14 1.71 1.71.712 1.709-.57 4.273-2.564 5.128-1.852.997-1.425 1.14-3.277.285zm-12.393-8.975c-1.282-.854-1.282-2.849 0-4.416.57-.712 2.137-1.851 3.561-2.564 1.425-.712 2.564-1.567 2.564-1.994 0-.712-1.14-.855-1.567-.285-.284.57-2.849.57-2.849.143 0-.57.57-1.14 1.995-2.28 1.567-1.282 3.846-1.282 4.986-.142.854.855.712.997-.713 4.273-.854 1.852-1.852 4.274-2.136 5.414-.713 1.851-.855 1.994-2.707 2.136-1.425.428-2.564.285-3.134-.285zm3.846-3.276c.997-1.994.57-2.28-1.14-.712-.854.712-1.139 1.282-.854 1.71.427 1.281.997.996 1.994-.998zm11.681 3.134c-1.282-1.282-1.14-1.994.855-6.268 2.564-5.413 3.846-6.553 6.268-5.27.712.427.997.142 1.71-1.283.426-.997.854-1.994.854-2.136 0-.285-1.14 0-2.564.427-1.425.427-3.846.997-5.556 1.14-2.849.285-2.991.142-4.416-1.14-1.14-1.14-1.282-1.567-1.14-2.564.428-1.71 1.425-2.707 3.134-3.134 1.425-.427 3.99-.142 4.986.57.855.57.57 2.421-.427 3.419-1.425 1.282-2.137 1.14-1.994-.285.142-1.567-.285-2.28-1.567-2.28-2.422 0-2.707 2.85-.428 3.99 1.71.854 3.989.284 8.69-2.138 1.852-.854 3.419-1.709 3.703-1.851.143-.143.57.284.855.854.427.855-.142 2.28-3.846 9.83-2.422 4.843-4.558 8.831-4.843 8.831-.285 0-1.14.143-1.995.285-1.14 0-1.567-.285-2.279-.997zm4.986-4.986c1.14-2.706 1.282-4.273.285-4.273-.285 0-1.282 1.567-2.28 3.56-1.424 2.707-1.709 3.705-1.281 3.99.997.57 1.994-.428 3.276-3.277zm-17.237-13.533c-1.14-.284-.997-1.282.57-2.421.855-.712 2.137-2.85 3.561-5.698 1.14-2.564 3.99-8.547 6.268-13.39 5.698-12.109 5.413-10.97 5.271-17.095l-.142-5.27-8.12 17.379-8.12 17.379.428 2.136c.284 1.14.427 2.28.284 2.564-.284.428-5.982.57-7.122.143-1.14-.427-.855-2.137.855-4.274.854-.997 1.994-2.991 2.564-4.13.997-2.137 3.134-6.98 14.53-31.197l4.843-10.4-.285-7.549c-.285-8.262 0-9.829 2.137-13.105 2.991-4.559 7.265-4.559 9.26-.143 1.424 3.134 1.139 4.274-2.992 13.106-3.277 7.265-3.704 8.404-3.562 9.829.143.854.428 1.852.57 1.852.143.142 2.564-4.559 5.27-10.257 4.56-9.687 4.844-10.541 4.417-11.966-.855-2.564-.428-2.849 3.988-2.849 2.137 0 4.416.143 4.986.285 1.852.57 1.567 1.567-.57 2.85-1.852 1.139-2.136 1.566-5.413 8.546-4.7 10.114-6.837 14.53-11.253 23.932-2.137 4.416-4.131 8.832-4.559 9.829-1.852 4.273-13.533 28.917-13.96 29.487-.142.712-2.137.855-3.704.427zM70.803 49.43c1.282-2.849 2.28-5.27 2.28-5.555 0-.855-1.71-1.995-2.422-1.71-.855.285-2.422 2.707-2.992 4.701-.427 1.567 0 7.55.428 7.55.285 0 1.567-2.28 2.706-4.986zm41.168 65.527c-1.851-1.14-2.421-2.849-2.421-7.265 0-3.134.285-4.13 1.994-8.69 1.14-2.99 1.994-5.84 1.994-6.837 0-1.567.143-1.71 1.282-1.71a3.84 3.84 0 0 0 2.137-.711c2.422-1.852 3.277.142 1.14 2.849-1.425 1.709-3.277 6.125-2.992 6.98.143.284 1.425-.998 2.992-2.85 3.988-4.558 8.12-7.692 14.815-10.968 8.689-4.274 12.108-7.835 11.68-12.108-.284-2.564-.997-3.277-2.991-3.134-1.282.142-1.71.427-1.994 1.424-.57 1.425 0 2.564 1.424 3.134.997.428 1.282 1.14.428 1.14-.855 0-2.992-1.282-3.277-1.995-.997-2.564.855-5.128 3.561-5.128 4.416 0 6.268 3.704 4.416 9.117-1.282 3.561-3.988 5.84-11.253 9.402-3.561 1.71-7.692 4.13-9.26 5.27-6.695 4.986-10.683 12.82-10.683 20.513 0 2.707-.57 2.992-2.992 1.567zm14.53-.854c0-.285.428-.855.997-1.283.998-.854 9.545-18.09 9.972-20.085.427-1.852.997-2.28 3.276-2.28 2.28 0 4.986 1.283 4.986 2.422 0 .428-1.567 3.847-3.419 7.835-4.558 9.544-4.416 9.117-3.276 10.114.57.57.855 1.282.712 1.852-.142.855-.427.997-1.852.855-1.994 0-2.991-.997-2.991-2.85 0-.57 1.567-4.558 3.561-8.831 1.994-4.274 3.419-7.835 3.276-8.12-.712-1.14-1.851.427-5.84 8.69-3.276 6.695-4.416 9.259-4.131 10.114.285 1.14.142 1.14-1.425 1.14-.997 0-2.136 0-2.706.284-.712.427-1.14.427-1.14.143zm-27.635-1.14c-.712-.427-1.282-1.14-1.567-2.137-.855-3.419 1.994-7.835 7.123-10.969 2.279-1.424 3.133-2.279 3.846-3.846 1.282-2.991.285-3.846-2.137-1.71-2.28 1.995-2.707-.142-.427-2.563 1.994-2.137 3.846-2.137 5.698-.285 1.709 1.71 1.709 2.28-2.565 11.111-2.706 5.698-3.276 7.407-3.133 8.547.284 1.994-.285 2.707-1.852 2.137-.713-.285-1.71-.285-2.137-.143-1.14.57-1.567.57-2.849-.142zm3.989-5.983c1.709-3.134 1.709-3.561.142-2.564-1.424.855-2.707 2.849-2.707 4.13 0 1.853 1.283.998 2.565-1.566zm18.518 6.125c-1.14-.712-1.567-1.282-1.567-2.421 0-1.567 8.405-18.234 9.687-19.231 1.567-1.282 3.134-1.567 4.558-.855 1.71.997 1.567 2.28-.712 7.265-2.28 4.843-2.564 5.128-6.41 5.128-.997 0-1.425.428-2.564 2.992-1.567 3.276-1.71 3.988-.855 3.988.427 0 1.14-.997 1.852-2.279a14.541 14.541 0 0 1 1.282-2.279c.142 0 .712.285 1.282.57l1.14.57-1.283 2.564c-.712 1.424-1.709 2.849-2.136 3.276-1.14.997-3.134 1.282-4.274.712zm9.402-16.666c1.14-2.707 1.282-3.704.142-3.134-.57.285-3.134 5.27-3.134 5.983 0 .285.428.285.855.142.57-.142 1.282-1.282 2.137-2.991zm-69.943 15.527c-.855-.57-.997-.997-.855-2.422.285-1.71 7.123-16.951 8.262-18.376 1.14-1.282 3.419-2.137 4.416-1.567 1.994.997 1.852 2.564-.712 7.977-1.994 4.274-2.137 4.416-3.561 4.416-.855 0-1.852.143-2.137.285-.855.285-3.846 6.125-3.419 6.553.712.712 1.282.142 2.28-1.71.854-1.851.996-1.994 1.851-1.424.428.285.855.712.855.855 0 .712-2.137 4.558-2.85 5.128-1.139.997-3.133 1.14-4.13.285zm8.974-15.527c1.282-2.992 1.567-3.846.855-3.989-.427-.142-1.425 1.852-3.276 6.125-.143.143.142.285.57.285s1.139-.997 1.851-2.421zm-.142 15.954-.997-.285 1.282-2.564c2.279-4.558 4.985-14.53 4.985-18.518 0-1.425.143-1.425 1.852-1.71.997-.142 1.995-.142 1.995-.142s-.428 1.282-.998 2.706c-.57 1.425-1.14 3.134-1.14 3.704v1.14l.713-.998c.427-.57 1.567-3.133 2.564-5.698 1.852-4.416 1.994-4.7 3.276-4.843l1.425-.142-1.425 2.564c-1.14 2.137-1.424 3.134-1.566 5.983l-.143 3.418.855-1.709c.427-.997.997-2.564 1.14-3.419.284-1.994.712-2.136 3.276-1.994l1.852.142-1.852 2.707c-2.422 3.419-5.413 9.687-7.408 15.527-1.567 4.274-1.567 4.416-2.991 4.558-1.71.143-1.71.143-.712-1.709.712-1.282 2.136-9.26 1.851-9.544-.284-.285-2.849 3.419-3.846 5.413-.427.997-.854 2.422-.854 3.134-.143 2.422-.428 2.706-3.134 2.28zm26.21-31.481c-.854-.428-.712-1.71.143-2.422.427-.285 2.137-3.419 3.704-6.695l2.991-6.126-2.28-8.974c-1.993-8.12-2.278-9.117-3.56-10.114l-1.425-1.14 1.14-.712c.854-.57 2.137-.712 5.413-.57 5.983.143 6.268.428 3.704 2.992l-1.567 1.567 1.14 4.843 1.139 4.843 5.84-5.84c8.69-8.547 15.385-12.963 22.08-14.672 6.695-1.71 13.533 1.424 12.82 5.84-.142.855-.57 1.994-.997 2.422-2.991 3.276-11.11 3.988-13.675 1.282-.997-1.14-.57-2.85.855-3.419 1.424-.712 2.564 0 2.564 1.567 0 1.994 1.994 2.422 5.128.855 4.844-2.28 2.707-6.268-3.419-6.268-5.413 0-12.82 4.273-20.37 11.966l-5.128 5.128-4.559 9.687c-3.418 7.264-4.558 10.113-4.558 11.396 0 .997-.142 1.851-.427 1.994-.713.427-5.983.855-6.695.57zm10.4-.57c-.713-.57-1.568-2.137-1.568-3.419s8.405-18.519 9.402-19.373c2.28-1.852 6.126-.428 6.126 2.137 0 1.851-8.405 19.23-9.83 20.085-.997.997-3.276 1.14-4.13.57zm6.41-11.111c2.136-4.559 3.846-8.547 3.703-8.975-.142-.427-.427-.57-.712-.142-.427.427-8.404 16.809-8.404 17.236 0 .143.284.143.712.143.57.142 2.137-2.707 4.7-8.262zm.142 10.826c-.142-.427 0-.997.427-1.425 1.425-1.567 9.545-19.373 9.402-20.37-.285-1.14 1.14-1.71 2.28-.855.57.428 1.139.428 2.421 0 .855-.285 1.71-.427 1.71-.427.142.142-.428 1.424-1.14 3.134-1.14 2.564-1.425 2.849-2.28 2.706-.57-.142-1.139 0-1.424.285-.855 1.14-7.122 14.815-7.122 15.67 0 1.71-3.704 2.706-4.274 1.282zm6.125.142c0-.285.428-.997.998-1.709.57-.57 3.56-6.695 6.695-13.533 3.134-6.837 5.84-12.678 5.983-13.105.712-1.425 4.416-.997 4.416.427 0 .427-.57 1.425-1.282 1.994-1.14.998-6.126 10.257-6.268 11.396 0 .143 1.994-1.709 4.273-4.13l4.274-4.417 2.564.143 2.564.142-3.846 2.992c-2.137 1.71-5.413 4.416-7.265 6.125l-3.276 3.134 1.282 3.846c.712 2.137 1.851 4.274 2.421 4.844 1.567 1.424.997 2.279-1.567 2.279-2.849 0-3.703-.57-2.849-1.71.428-.712.428-1.424-.142-3.418-.428-1.425-.855-2.707-1.14-2.992-.427-.427-3.134 4.7-3.134 5.84 0 .428-.427 1.14-.997 1.567-.997.855-3.704.998-3.704.285zm-43.874-.712c-1.852-1.282-1.282-3.276 3.134-12.82l4.13-8.832 1.568-.143c1.994-.142 3.419 1.14 3.419 2.992 0 .712-.855 3.276-1.995 5.698l-1.994 4.416-2.137.142-2.137.143-1.14 2.706c-.711 1.425-1.139 2.85-.996 3.134.427.855 1.14.285 1.994-1.567.997-2.137 1.14-2.137 2.137-1.567.57.285.57.712-.143 2.422-1.424 3.419-3.703 4.843-5.84 3.276zm8.262-14.245c1.282-2.706 1.424-3.704.57-3.704-.285 0-3.134 5.698-3.134 6.41 0 .143.285.286.57.286s1.14-1.282 1.994-2.992zm-2.137 14.815c0-.143.997-2.28 2.137-4.843 2.849-5.84 3.989-9.402 4.558-14.103l.57-3.704h1.567c1.282 0 1.425.143 1.14.713-1.14 2.564-1.995 5.413-1.995 6.695s.143 1.424.713.854c1.709-1.424 4.13-8.262 4.13-11.396 0-1.567.286-1.851 1.71-1.424 1.14.427 1.14.57-.427 5.698-.997 3.134-1.14 5.84-.428 5.128.285-.285.855-1.852 1.282-3.704.713-2.849.855-3.133 1.852-3.133 2.422 0 2.422.57.713 3.988-.855 1.852-2.28 4.416-3.134 5.983-1.852 3.134-3.134 6.98-3.562 10.541l-.285 2.564H89.75c-1.14 0-1.994-.142-1.994-.427 0-.285.712-1.994 1.567-3.988 1.424-3.134 1.994-6.696 1.282-6.696-.143 0-.997.428-1.71.855-1.566.997-1.994 2.137-2.849 7.265l-.57 2.991H83.34c-1.282.285-2.137.285-2.137.143z"/>
  <path class="color-white" fill="#fff" d="M87.328 162.25c-2.707-.712-4.132-1.709-4.986-3.276-1.14-2.136-1.282-3.846-.57-5.698 1.424-3.419 3.846-4.985 7.835-4.985 2.706 0 4.7.854 5.84 2.849 1.282 1.994 1.14 3.56-.285 4.7-1.567 1.282-1.994 1.14-1.994-.427 0-1.852-.712-2.991-2.28-3.704-2.136-1.14-3.418-.854-5.27.855-1.424 1.425-1.567 1.71-1.282 3.419.427 3.561 2.992 5.128 7.692 4.7 3.562-.284 6.41-1.424 8.12-3.418.57-.712 3.276-5.84 6.125-11.681 6.838-13.818 7.835-16.24 7.265-16.382-.57-.142 2.137-5.84 2.85-5.84.284 0 .854-.855 1.281-1.71.855-1.994 2.565-3.846 4.416-4.416 1.852-.712 5.129-.57 6.838.285 1.424.713 2.137 1.995.997 1.995-.285 0-1.567.57-2.706 1.282-1.567.997-2.422 1.282-3.562.997-1.14-.143-1.71 0-2.136.57-.428.57-.428.854-.143.997.712.427-1.852 5.84-2.991 6.125-.428.143-1.282 1.14-1.71 2.422-.57 1.14-3.276 6.98-6.268 12.963-4.843 9.829-5.555 11.11-7.834 13.105-1.425 1.282-3.562 2.85-4.844 3.419-2.706 1.282-7.55 1.71-10.398.855zm-25.784-11.253c-1.424-.427-1.282-1.994.427-3.846 1.282-1.282 8.547-16.24 24.644-50.712 5.128-10.827 5.556-12.251 5.27-13.676l-.284-1.709 1.567.285c.855.142 2.707.427 4.131.57 3.419.427 3.561 1.14 1.282 3.134-1.424 1.282-2.422 2.991-4.273 6.98-1.425 2.991-2.422 5.698-2.422 5.84 0 .285.855.428 1.852.428h1.852l3.134-6.553c1.709-3.561 3.276-7.408 3.418-8.262.285-1.71.428-1.71 1.567-1.71.713.143 2.564.143 3.989.285 4.416.143 4.986 1.282 1.567 2.992l-2.28 1.14-9.97 20.655c-5.414 11.396-12.11 25.07-14.673 30.484-2.564 5.413-4.844 10.399-4.844 11.253 0 .855-.284 1.567-.427 1.71-.57.57-3.846.997-5.555.712-2.422-.285-2.565-1.424-.143-3.561 1.425-1.425 3.419-5.128 10.257-19.516 4.7-9.829 8.547-17.949 8.547-18.091 0-.142-.855-.142-1.995-.142l-1.994.142-3.704 7.265a1305.333 1305.333 0 0 1-9.117 19.088c-3.703 7.693-5.555 12.109-5.413 12.678.143.57 0 1.14-.427 1.425-.712.712-4.416 1.14-5.983.712zm60.684-3.989c-.143-.427.142-1.14.855-1.851 1.282-1.282 9.116-17.664 9.544-20.086.285-1.282.57-1.567 1.71-1.852.996-.142 1.566-.142 1.85.285.286.57.57.57 1.853.143.854-.285 1.567-.428 1.71-.285.142.142-.286 1.424-.998 2.991-1.14 2.28-1.424 2.707-2.422 2.707-.712 0-1.424.285-1.851.57-.998.854-8.12 15.812-7.835 16.524.427.997-.57 1.567-2.422 1.567-1.282 0-1.852-.143-1.994-.713zm-7.265-.57c-.427-.427-.855-1.424-.855-2.279 0-1.566 8.547-19.515 9.687-20.37 1.14-.855 3.846-.712 4.986.285 2.136 1.994 1.994 2.137-4.416 15.527-2.28 4.558-3.277 6.125-4.274 6.838-1.994 1.14-4.131 1.14-5.128 0zm7.977-10.968c1.852-4.131 3.419-7.692 3.419-7.977 0-.712-1.14-1.14-1.71-.428-.997 1.283-7.692 15.67-7.407 16.097.143.428.57.428 1.282.143.712-.143 1.852-2.137 4.416-7.835zm9.544 10.969c-1.424-1.567-.854-3.277 3.846-13.106 5.129-10.541 5.698-11.396 8.12-9.829.712.428 1.282.712 1.425.57.854-.855 9.971-20.655 9.971-21.652 0-4.559-4.131-5.84-7.835-2.422-1.424 1.282-1.282 3.561.143 4.7 1.424 1.14 2.279 1.14 3.561.286.997-.713.997-.713.997.427 0 3.134-2.422 4.986-5.27 4.274-2.565-.713-3.704-2.28-3.99-5.271-.142-3.276.856-5.128 3.562-6.838 5.27-3.276 11.254-1.14 11.824 4.274.284 2.137-.285 3.561-6.696 16.666-2.136 4.559-5.698 11.824-7.834 16.097-3.42 7.123-3.847 8.12-3.562 9.83.428 2.706-.142 3.418-1.994 2.706-.997-.285-1.71-.427-2.422-.143-1.567.57-2.991.428-3.846-.57zm4.416-3.704c.428-.57 2.137-3.989 3.846-7.835 2.422-5.128 3.134-6.98 2.707-7.265-.427-.427-.712-.427-.997 0-.57.57-7.55 15.1-7.55 15.67 0 .854 1.282.427 1.994-.57zm-46.866 3.846c0-.142.712-1.71 1.567-3.419 4.986-10.256 8.69-18.233 8.69-18.946 0-.57.284-.854 1.282-.854.712 0 1.424.285 1.566.57.143.57.428.57 1.995 0 .997-.428 1.71-.428 1.71-.143 0 .285-.57 1.567-1.283 3.134-1.14 2.28-1.567 2.707-2.564 2.707-.712 0-1.424.284-1.71.57-.712.997-6.837 14.102-6.837 14.814 0 .997-1.424 1.994-2.849 1.994-.855-.142-1.567-.284-1.567-.427zm11.681-.427c-1.71-1.14-1.282-3.134 2.137-10.114 1.994-4.131 2.849-6.553 2.564-6.838-.57-.57 2.137-5.84 2.849-5.84.285 0 .997-.997 1.71-2.137.712-1.424 1.566-2.422 2.848-2.991.997-.428 1.852-.713 1.852-.57.143.142-.285 1.424-.855 2.706-1.282 2.992-1.282 2.85-.427 2.85.57 0 .285.712-.712 2.848-.855 1.852-1.71 2.85-2.137 2.85-.712 0-2.28 2.99-5.84 10.826l-1.425 3.133.997.713c.855.57.997.712.285 1.994-.997 1.424-2.28 1.71-3.846.57zm-14.103-.143c-.142-.285-1.282-.285-2.564-.142-2.706.285-3.276-.143-3.703-2.707-.143-1.14 0-2.136.997-4.13 1.567-3.135 3.846-5.556 6.98-6.98 1.994-.855 2.564-1.568 3.276-2.992 1.282-2.85-.142-4.416-1.852-2.137-.712.997-.854.997-1.567.427-.712-.57-.712-.712-.142-1.851 1.71-3.277 4.843-3.99 6.838-1.71.57.712.997 1.71.997 2.28 0 .57-1.567 4.273-3.42 8.119-1.851 3.989-3.418 7.692-3.56 8.547-.285 2.707-1.567 4.558-2.28 3.276zm-.142-6.552c.855-1.852 1.567-3.562 1.424-3.562-.57-.57-3.56 2.564-4.273 4.274-.57 1.71-.57 1.852 0 2.28.427.284.712.426.855.426.142 0 1.14-1.567 1.994-3.418zm-29.345 5.413c-1.994-.855-2.849-2.422-2.849-4.986 0-1.71.428-3.276 2.28-7.407 1.851-4.131 2.279-5.414 1.851-5.84-.712-.713-1.282 0-3.561 5.412-1.852 4.131-2.137 4.416-3.134 4.416h-1.14l.855-1.852c.428-.997 1.567-3.418 2.422-5.413.855-1.994 1.567-3.846 1.567-4.273 0-.57.57-.713 2.279-.855 4.274-.142 4.416 1.14.855 8.974-1.995 4.416-2.564 5.983-2.422 7.123.285 1.852 1.425 2.991 2.564 2.991 1.282 0 2.564-1.282 2.28-2.136-.143-.285-.285-.713-.285-.855 0-.427-1.567-.143-2.137.285-.428.427-.57.285-.57-.712 0-1.71 1.71-2.707 3.276-1.995.57.285 1.425 1.14 1.71 1.71.712 1.709-.57 4.273-2.564 5.128-1.852.997-1.425 1.14-3.277.285zm-12.393-8.975c-1.282-.854-1.282-2.849 0-4.416.57-.712 2.137-1.851 3.561-2.564 1.425-.712 2.564-1.567 2.564-1.994 0-.712-1.14-.855-1.567-.285-.284.57-2.849.57-2.849.143 0-.57.57-1.14 1.995-2.28 1.567-1.282 3.846-1.282 4.986-.142.854.855.712.997-.713 4.273-.854 1.852-1.852 4.274-2.136 5.414-.713 1.851-.855 1.994-2.707 2.136-1.425.428-2.564.285-3.134-.285zm3.846-3.276c.997-1.994.57-2.28-1.14-.712-.854.712-1.139 1.282-.854 1.71.427 1.281.997.996 1.994-.998zm11.681 3.134c-1.282-1.282-1.14-1.994.855-6.268 2.564-5.413 3.846-6.553 6.268-5.27.712.427.997.142 1.71-1.283.426-.997.854-1.994.854-2.136 0-.285-1.14 0-2.564.427-1.425.427-3.846.997-5.556 1.14-2.849.285-2.991.142-4.416-1.14-1.14-1.14-1.282-1.567-1.14-2.564.428-1.71 1.425-2.707 3.134-3.134 1.425-.427 3.99-.142 4.986.57.855.57.57 2.421-.427 3.419-1.425 1.282-2.137 1.14-1.994-.285.142-1.567-.285-2.28-1.567-2.28-2.422 0-2.707 2.85-.428 3.99 1.71.854 3.989.284 8.69-2.138 1.852-.854 3.419-1.709 3.703-1.851.143-.143.57.284.855.854.427.855-.142 2.28-3.846 9.83-2.422 4.843-4.558 8.831-4.843 8.831-.285 0-1.14.143-1.995.285-1.14 0-1.567-.285-2.279-.997zm4.986-4.986c1.14-2.706 1.282-4.273.285-4.273-.285 0-1.282 1.567-2.28 3.56-1.424 2.707-1.709 3.705-1.281 3.99.997.57 1.994-.428 3.276-3.277zm-17.237-13.533c-1.14-.284-.997-1.282.57-2.421.855-.712 2.137-2.85 3.561-5.698 1.14-2.564 3.99-8.547 6.268-13.39 5.698-12.109 5.413-10.97 5.271-17.095l-.142-5.27-8.12 17.379-8.12 17.379.428 2.136c.284 1.14.427 2.28.284 2.564-.284.428-5.982.57-7.122.143-1.14-.427-.855-2.137.855-4.274.854-.997 1.994-2.991 2.564-4.13.997-2.137 3.134-6.98 14.53-31.197l4.843-10.4-.285-7.549c-.285-8.262 0-9.829 2.137-13.105 2.991-4.559 7.265-4.559 9.26-.143 1.424 3.134 1.139 4.274-2.992 13.106-3.277 7.265-3.704 8.404-3.562 9.829.143.854.428 1.852.57 1.852.143.142 2.564-4.559 5.27-10.257 4.56-9.687 4.844-10.541 4.417-11.966-.855-2.564-.428-2.849 3.988-2.849 2.137 0 4.416.143 4.986.285 1.852.57 1.567 1.567-.57 2.85-1.852 1.139-2.136 1.566-5.413 8.546-4.7 10.114-6.837 14.53-11.253 23.932-2.137 4.416-4.131 8.832-4.559 9.829-1.852 4.273-13.533 28.917-13.96 29.487-.142.712-2.137.855-3.704.427zM70.803 49.43c1.282-2.849 2.28-5.27 2.28-5.555 0-.855-1.71-1.995-2.422-1.71-.855.285-2.422 2.707-2.992 4.701-.427 1.567 0 7.55.428 7.55.285 0 1.567-2.28 2.706-4.986zm41.168 65.527c-1.851-1.14-2.421-2.849-2.421-7.265 0-3.134.285-4.13 1.994-8.69 1.14-2.99 1.994-5.84 1.994-6.837 0-1.567.143-1.71 1.282-1.71a3.84 3.84 0 0 0 2.137-.711c2.422-1.852 3.277.142 1.14 2.849-1.425 1.709-3.277 6.125-2.992 6.98.143.284 1.425-.998 2.992-2.85 3.988-4.558 8.12-7.692 14.815-10.968 8.689-4.274 12.108-7.835 11.68-12.108-.284-2.564-.997-3.277-2.991-3.134-1.282.142-1.71.427-1.994 1.424-.57 1.425 0 2.564 1.424 3.134.997.428 1.282 1.14.428 1.14-.855 0-2.992-1.282-3.277-1.995-.997-2.564.855-5.128 3.561-5.128 4.416 0 6.268 3.704 4.416 9.117-1.282 3.561-3.988 5.84-11.253 9.402-3.561 1.71-7.692 4.13-9.26 5.27-6.695 4.986-10.683 12.82-10.683 20.513 0 2.707-.57 2.992-2.992 1.567zm14.53-.854c0-.285.428-.855.997-1.283.998-.854 9.545-18.09 9.972-20.085.427-1.852.997-2.28 3.276-2.28 2.28 0 4.986 1.283 4.986 2.422 0 .428-1.567 3.847-3.419 7.835-4.558 9.544-4.416 9.117-3.276 10.114.57.57.855 1.282.712 1.852-.142.855-.427.997-1.852.855-1.994 0-2.991-.997-2.991-2.85 0-.57 1.567-4.558 3.561-8.831 1.994-4.274 3.419-7.835 3.276-8.12-.712-1.14-1.851.427-5.84 8.69-3.276 6.695-4.416 9.259-4.131 10.114.285 1.14.142 1.14-1.425 1.14-.997 0-2.136 0-2.706.284-.712.427-1.14.427-1.14.143zm-27.635-1.14c-.712-.427-1.282-1.14-1.567-2.137-.855-3.419 1.994-7.835 7.123-10.969 2.279-1.424 3.133-2.279 3.846-3.846 1.282-2.991.285-3.846-2.137-1.71-2.28 1.995-2.707-.142-.427-2.563 1.994-2.137 3.846-2.137 5.698-.285 1.709 1.71 1.709 2.28-2.565 11.111-2.706 5.698-3.276 7.407-3.133 8.547.284 1.994-.285 2.707-1.852 2.137-.713-.285-1.71-.285-2.137-.143-1.14.57-1.567.57-2.849-.142zm3.989-5.983c1.709-3.134 1.709-3.561.142-2.564-1.424.855-2.707 2.849-2.707 4.13 0 1.853 1.283.998 2.565-1.566zm18.518 6.125c-1.14-.712-1.567-1.282-1.567-2.421 0-1.567 8.405-18.234 9.687-19.231 1.567-1.282 3.134-1.567 4.558-.855 1.71.997 1.567 2.28-.712 7.265-2.28 4.843-2.564 5.128-6.41 5.128-.997 0-1.425.428-2.564 2.992-1.567 3.276-1.71 3.988-.855 3.988.427 0 1.14-.997 1.852-2.279a14.541 14.541 0 0 1 1.282-2.279c.142 0 .712.285 1.282.57l1.14.57-1.283 2.564c-.712 1.424-1.709 2.849-2.136 3.276-1.14.997-3.134 1.282-4.274.712zm9.402-16.666c1.14-2.707 1.282-3.704.142-3.134-.57.285-3.134 5.27-3.134 5.983 0 .285.428.285.855.142.57-.142 1.282-1.282 2.137-2.991zm-69.943 15.527c-.855-.57-.997-.997-.855-2.422.285-1.71 7.123-16.951 8.262-18.376 1.14-1.282 3.419-2.137 4.416-1.567 1.994.997 1.852 2.564-.712 7.977-1.994 4.274-2.137 4.416-3.561 4.416-.855 0-1.852.143-2.137.285-.855.285-3.846 6.125-3.419 6.553.712.712 1.282.142 2.28-1.71.854-1.851.996-1.994 1.851-1.424.428.285.855.712.855.855 0 .712-2.137 4.558-2.85 5.128-1.139.997-3.133 1.14-4.13.285zm8.974-15.527c1.282-2.992 1.567-3.846.855-3.989-.427-.142-1.425 1.852-3.276 6.125-.143.143.142.285.57.285s1.139-.997 1.851-2.421zm-.142 15.954-.997-.285 1.282-2.564c2.279-4.558 4.985-14.53 4.985-18.518 0-1.425.143-1.425 1.852-1.71.997-.142 1.995-.142 1.995-.142s-.428 1.282-.998 2.706c-.57 1.425-1.14 3.134-1.14 3.704v1.14l.713-.998c.427-.57 1.567-3.133 2.564-5.698 1.852-4.416 1.994-4.7 3.276-4.843l1.425-.142-1.425 2.564c-1.14 2.137-1.424 3.134-1.566 5.983l-.143 3.418.855-1.709c.427-.997.997-2.564 1.14-3.419.284-1.994.712-2.136 3.276-1.994l1.852.142-1.852 2.707c-2.422 3.419-5.413 9.687-7.408 15.527-1.567 4.274-1.567 4.416-2.991 4.558-1.71.143-1.71.143-.712-1.709.712-1.282 2.136-9.26 1.851-9.544-.284-.285-2.849 3.419-3.846 5.413-.427.997-.854 2.422-.854 3.134-.143 2.422-.428 2.706-3.134 2.28zm26.21-31.481c-.854-.428-.712-1.71.143-2.422.427-.285 2.137-3.419 3.704-6.695l2.991-6.126-2.28-8.974c-1.993-8.12-2.278-9.117-3.56-10.114l-1.425-1.14 1.14-.712c.854-.57 2.137-.712 5.413-.57 5.983.143 6.268.428 3.704 2.992l-1.567 1.567 1.14 4.843 1.139 4.843 5.84-5.84c8.69-8.547 15.385-12.963 22.08-14.672 6.695-1.71 13.533 1.424 12.82 5.84-.142.855-.57 1.994-.997 2.422-2.991 3.276-11.11 3.988-13.675 1.282-.997-1.14-.57-2.85.855-3.419 1.424-.712 2.564 0 2.564 1.567 0 1.994 1.994 2.422 5.128.855 4.844-2.28 2.707-6.268-3.419-6.268-5.413 0-12.82 4.273-20.37 11.966l-5.128 5.128-4.559 9.687c-3.418 7.264-4.558 10.113-4.558 11.396 0 .997-.142 1.851-.427 1.994-.713.427-5.983.855-6.695.57zm10.4-.57c-.713-.57-1.568-2.137-1.568-3.419s8.405-18.519 9.402-19.373c2.28-1.852 6.126-.428 6.126 2.137 0 1.851-8.405 19.23-9.83 20.085-.997.997-3.276 1.14-4.13.57zm6.41-11.111c2.136-4.559 3.846-8.547 3.703-8.975-.142-.427-.427-.57-.712-.142-.427.427-8.404 16.809-8.404 17.236 0 .143.284.143.712.143.57.142 2.137-2.707 4.7-8.262zm.142 10.826c-.142-.427 0-.997.427-1.425 1.425-1.567 9.545-19.373 9.402-20.37-.285-1.14 1.14-1.71 2.28-.855.57.428 1.139.428 2.421 0 .855-.285 1.71-.427 1.71-.427.142.142-.428 1.424-1.14 3.134-1.14 2.564-1.425 2.849-2.28 2.706-.57-.142-1.139 0-1.424.285-.855 1.14-7.122 14.815-7.122 15.67 0 1.71-3.704 2.706-4.274 1.282zm6.125.142c0-.285.428-.997.998-1.709.57-.57 3.56-6.695 6.695-13.533 3.134-6.837 5.84-12.678 5.983-13.105.712-1.425 4.416-.997 4.416.427 0 .427-.57 1.425-1.282 1.994-1.14.998-6.126 10.257-6.268 11.396 0 .143 1.994-1.709 4.273-4.13l4.274-4.417 2.564.143 2.564.142-3.846 2.992c-2.137 1.71-5.413 4.416-7.265 6.125l-3.276 3.134 1.282 3.846c.712 2.137 1.851 4.274 2.421 4.844 1.567 1.424.997 2.279-1.567 2.279-2.849 0-3.703-.57-2.849-1.71.428-.712.428-1.424-.142-3.418-.428-1.425-.855-2.707-1.14-2.992-.427-.427-3.134 4.7-3.134 5.84 0 .428-.427 1.14-.997 1.567-.997.855-3.704.998-3.704.285zm-43.874-.712c-1.852-1.282-1.282-3.276 3.134-12.82l4.13-8.832 1.568-.143c1.994-.142 3.419 1.14 3.419 2.992 0 .712-.855 3.276-1.995 5.698l-1.994 4.416-2.137.142-2.137.143-1.14 2.706c-.711 1.425-1.139 2.85-.996 3.134.427.855 1.14.285 1.994-1.567.997-2.137 1.14-2.137 2.137-1.567.57.285.57.712-.143 2.422-1.424 3.419-3.703 4.843-5.84 3.276zm8.262-14.245c1.282-2.706 1.424-3.704.57-3.704-.285 0-3.134 5.698-3.134 6.41 0 .143.285.286.57.286s1.14-1.282 1.994-2.992zm-2.137 14.815c0-.143.997-2.28 2.137-4.843 2.849-5.84 3.989-9.402 4.558-14.103l.57-3.704h1.567c1.282 0 1.425.143 1.14.713-1.14 2.564-1.995 5.413-1.995 6.695s.143 1.424.713.854c1.709-1.424 4.13-8.262 4.13-11.396 0-1.567.286-1.851 1.71-1.424 1.14.427 1.14.57-.427 5.698-.997 3.134-1.14 5.84-.428 5.128.285-.285.855-1.852 1.282-3.704.713-2.849.855-3.133 1.852-3.133 2.422 0 2.422.57.713 3.988-.855 1.852-2.28 4.416-3.134 5.983-1.852 3.134-3.134 6.98-3.562 10.541l-.285 2.564H89.75c-1.14 0-1.994-.142-1.994-.427 0-.285.712-1.994 1.567-3.988 1.424-3.134 1.994-6.696 1.282-6.696-.143 0-.997.428-1.71.855-1.566.997-1.994 2.137-2.849 7.265l-.57 2.991H83.34c-1.282.285-2.137.285-2.137.143z"/>
</svg>
