<svg xmlns="http://www.w3.org/2000/svg" width="450" height="450" viewBox="0 0 450 450">
  <g fill="none" fill-rule="evenodd">
    <path fill="#FFA0FF" stroke="#FFA0FF" stroke-width="1.25" d="M447.731 225.214c0 76.58-47.772 139.858-55.684 149.814V75.4c7.912 9.955 55.684 73.234 55.684 149.814z"/>
    <path fill="#FFA0FF" stroke="#FFA0FF" stroke-width="1.25" d="M57.296 107.054h337.425v229.691H57.296z"/>
    <path fill="#FFA0FF" stroke="#FFA0FF" stroke-width="1.25" d="M6.991 225.373C6.991 147.2 54.751 82.6 62.676 72.42v305.908C54.75 368.146 6.99 303.547 6.99 225.373z"/>
    <path fill="#FFA0FF" stroke="#FFA0FF" stroke-width="1.25" d="M225.718 449.375c-101.15 0-184.185-100.415-193.111-111.588h386.222c-8.926 11.173-91.961 111.588-193.111 111.588z"/>
    <path fill="#A000A0" stroke="#A000A0" stroke-width="1.25" d="M225.718.778c101.15 0 184.185 100.415 193.111 111.588H32.607C41.533 101.193 124.567.778 225.717.778z"/>
    <path fill="#FFF" stroke="#FFF" stroke-width="1.25" d="M225.018 449.375c-97.544 0-177.674-91.834-186.7-102.56H411.72c-9.027 10.726-89.157 102.56-186.702 102.56z"/>
    <ellipse stroke="#000" stroke-width="7.5" cx="226.008" cy="224.923" rx="220.242" ry="221.173"/>
    <text fill="#000" font-family="Arial-BoldMT, Arial" font-size="187.5" font-weight="bold">
                <tspan x="26.1" y="290.654">MIDI</tspan>
            </text>
    <path stroke="#000" stroke-linecap="square" stroke-width="15" d="M42.5 113.5h366"/>
  </g>
</svg>
