<svg xmlns="http://www.w3.org/2000/svg" width="450" height="450" viewBox="0 0 450 450">
  <g fill="none" fill-rule="evenodd" transform="translate(1)">
    <path fill="#FFA0FF" stroke="#FFA0FF" stroke-width="1.25" d="M445.731 225.214c0 76.58-47.772 139.858-55.684 149.814V75.4c7.912 9.955 55.684 73.234 55.684 149.814z"/>
    <path fill="#FFA0FF" stroke="#FFA0FF" stroke-width="1.25" d="M55.296 107.054h337.425v229.691H55.296z"/>
    <path fill="#FFA0FF" stroke="#FFA0FF" stroke-width="1.25" d="M4.991 225.373C4.991 147.2 52.751 82.6 60.676 72.42v305.908C52.75 368.146 4.99 303.547 4.99 225.373z"/>
    <path fill="#FFA0FF" stroke="#FFA0FF" stroke-width="1.25" d="M223.718 449.375c-101.15 0-184.185-100.415-193.111-111.588h386.222c-8.926 11.173-91.961 111.588-193.111 111.588z"/>
    <path fill="#A000A0" stroke="#A000A0" stroke-width="1.25" d="M223.718.778c101.15 0 184.185 100.415 193.111 111.588H30.607C39.533 101.193 122.567.778 223.717.778z"/>
    <path fill="#000" d="M34.985 346.19S119.171 450 223.018 450c103.848 0 188.033-103.81 188.033-103.81H34.985z"/>
    <ellipse stroke="#000" stroke-width="7.5" cx="224.008" cy="224.923" rx="220.242" ry="221.173"/>
    <text fill="#000" font-family="Arial-BoldMT, Arial" font-size="200" font-weight="bold">
                <tspan x="12.81" y="303.654">OSE</tspan>
            </text>
    <path stroke="#000" stroke-linecap="square" stroke-width="15" d="M41.5 113.5h364"/>
  </g>
</svg>
