<svg xmlns="http://www.w3.org/2000/svg" viewBox="0 0 170.1 170.1">
    <path fill="none" d="M110.3 86.3h-7.5"/>
    <circle class="color-main color-black" cx="85" cy="85" r="78"/>
    <path class="color-white" fill="#fff" d="M44.8 36.5c.4 0 .5.3.6.7L48 54.7h.1l2.5-17.5c0-.4.2-.7.4-.7h5c.2 0 .2.1.2.2 0 .2-.2.3-.3.4l-1 1.2c-.2.3-.3.6-.3 1.1v24.4c0 .5.1.8.3 1.1l1 1.2c.1.1.3.2.3.4 0 .1-.1.2-.2.2h-5.6c-.2 0-.2-.1-.2-.2 0-.2.2-.3.3-.4l.8-1.1c.2-.3.3-.7.3-1.2V44.4h-.1l-3.1 22.1c0 .2-.1.3-.3.3h-.9c-.1 0-.2-.2-.2-.4l-3.3-22.1h-.1v19.5c0 .5 0 .8.3 1.2l.8 1.1c.1.2.3.3.3.4 0 .1-.1.2-.2.2h-5c-.2 0-.2-.1-.2-.2 0-.2.2-.3.3-.4l1-1.2c.2-.3.4-.6.4-1.1V39.4c0-.5-.1-.8-.4-1.1l-1-1.2c-.1-.1-.3-.2-.3-.4 0-.1.1-.2.2-.2h5zm17.4 13.9h.9c.2 0 .4-.1.4-.3l1.4-2.8c.1-.2.1-.2.2-.2s.2.1.2.2v8.5c0 .1 0 .2-.2.2s-.2-.1-.3-.3l-1.4-2.9c-.1-.2-.2-.3-.4-.3h-.9v12.3h2.3c.5 0 .9-.2 1.1-.7l2.2-7.7c0-.2.2-.2.3-.2s.2.1.2.2v10.1c0 .2-.1.4-.3.4H57.5c-.2 0-.2-.1-.2-.2s.2-.2.3-.4l1.2-1.2c.3-.3.4-.6.4-1.1V39.4c0-.5-.1-.8-.4-1.1l-1.2-1.2c-.1-.1-.3-.2-.3-.4s.1-.2.2-.2h10.4c.2 0 .3.2.3.4v10c0 .2-.1.2-.2.2-.2 0-.3-.1-.3-.3l-2.2-7.6c-.2-.5-.5-.8-1-.8h-2.3v12zm9.3-11c-.1-.3-.3-.7-.5-.9l-1.3-1.4c-.1-.2-.2-.3-.2-.4 0-.1.1-.2.3-.2h6.4c.2 0 .3 0 .3.2s-.1.3-.2.4L75 38.2c-.3.3-.5.6-.4.9l2 7.5h.1l2.3-7.5c.1-.3-.1-.6-.5-.9l-1.3-1.1c-.2-.1-.2-.2-.2-.4 0-.1.2-.2.4-.2H83c.2 0 .3 0 .3.2s-.1.3-.2.4l-1.4 1.4c-.2.2-.4.6-.4.9l-3.5 11.7 3.3 12.3c.1.4.4.8.6 1.1L83 66c.2.2.4.4.4.6 0 .1-.2.2-.3.2h-6.5c-.2 0-.3-.1-.3-.2 0-.2.2-.4.4-.6l1.3-1.3c.2-.2.2-.5.1-.8l-1.9-7.2h-.1l-1.9 7.1c-.1.4-.1.7.1.9l1.3 1.3c.2.2.4.4.4.6 0 .1-.1.2-.3.2h-6c-.2 0-.3 0-.3-.2s.2-.4.4-.6l1.3-1.4c.2-.3.5-.7.6-1.2L75 52.2l-3.5-12.8zm14.4 0c0-.5-.1-.8-.4-1.1l-1.2-1.2c-.1-.1-.3-.2-.3-.4s.1-.2.2-.2h6.3c.2 0 .2.1.2.2s-.2.2-.3.4l-1.2 1.2c-.3.3-.4.6-.4 1.1v24.4c0 .5.1.8.4 1.1l1.2 1.2c.1.1.3.2.3.4s-.1.2-.2.2h-6.3c-.2 0-.2-.1-.2-.2s.2-.2.3-.4l1.2-1.2c.3-.3.4-.6.4-1.1V39.4zm16.3 7.4c0 .2-.1.4-.2.4-.2 0-.3-.2-.3-.4-.5-3.4-1.7-8.2-3.7-8.2-1.8 0-2.1 3.8-2.1 12.3 0 12.1.9 13.9 2.7 13.9 2.2 0 3.1-7.4 3.1-7.8 0-.2.1-.3.3-.3.2 0 .3.1.3.4 0 6-.9 9.8-4.4 9.8-4.7 0-5.2-9.2-5.2-15.9 0-5 .2-14.3 5.2-14.3.6 0 1.3.4 1.9.8.2.2.5.2.7.2.2 0 .5-.2.8-.5.2-.3.6-.6.8-.6.2 0 .3.3.3.7v9.5zm8.4 13.2c0-.2-.2-.4-.4-.4h-3c-.1 0-.2.1-.2.3l-.6 4.4c0 .3 0 .5.2.7l.9.9c.2.2.4.4.4.5s-.1.2-.3.2H103c-.2 0-.2-.1-.2-.2s.2-.3.3-.4l1.1-1.1c.2-.2.3-.6.3-1l3.7-27.1c0-.2.1-.4.3-.4h1.5c.2 0 .3.2.4.4l3.8 27.1c0 .4.2.8.4 1.1l1.2 1c.1.1.2.2.2.4s-.1.2-.3.2h-5.8c-.2 0-.3-.1-.3-.2s.2-.2.3-.4l1.1-1.1c.2-.2.2-.4.2-.8l-.6-4.1zm-.5-2.5c.1 0 .2-.1.2-.3l-1.4-9.9h-.1l-1.3 9.9c0 .2 0 .2.1.2h2.5zm8.2-18.1c0-.5-.1-.8-.4-1.1l-1-1.2c-.1-.1-.3-.2-.3-.4 0-.1.1-.2.2-.2h4.8c.3 0 .4.3.5.7l3.7 17.3h.1V39.4c0-.5-.1-.8-.4-1.1l-1.1-1.2c-.1-.1-.3-.2-.3-.4 0-.1.1-.2.2-.2h5.3c.2 0 .2.1.2.2 0 .2-.2.3-.3.4l-1 1.2c-.2.3-.4.6-.4 1.1v26.9c0 .3-.1.4-.4.4H126c-.4 0-.7-.4-.8-1l-4.7-22h-.1v20.1c0 .5.1.8.4 1.1l1.1 1.2c.1.1.3.2.3.4 0 .1-.1.2-.2.2h-5.3c-.2 0-.2-.1-.2-.2 0-.2.2-.3.3-.4l1-1.2c.2-.3.4-.6.4-1.1V39.4zm-68 44.8c0 .2-.1.4-.2.4-.2 0-.3-.2-.3-.4-.5-3.4-1.7-8.2-3.7-8.2-1.8 0-2.1 3.8-2.1 12.3 0 12.1.9 13.9 2.7 13.9 2.2 0 3.1-7.4 3.1-7.8 0-.2.1-.3.3-.3s.3.1.3.4c0 6-.9 9.8-4.4 9.8-4.7 0-5.2-9.2-5.2-15.9 0-5 .2-14.3 5.2-14.3.6 0 1.3.4 1.9.8.2.2.5.2.7.2s.5-.2.8-.5c.2-.3.6-.6.8-.6.2 0 .3.3.3.7v9.5zm6.4 3.6h.9c.2 0 .4-.1.4-.3l1.4-2.8c.1-.2.1-.2.2-.2s.2.1.2.2v8.5c0 .1 0 .2-.2.2s-.2-.1-.3-.3l-1.4-2.9c-.1-.2-.2-.3-.4-.3h-.9v12.3H59c.5 0 .9-.2 1.1-.7l2.2-7.7c0-.2.2-.2.3-.2s.2.1.2.2v10.1c0 .2-.1.4-.3.4H52c-.2 0-.2-.1-.2-.2s.2-.2.3-.4l1.2-1.2c.3-.3.4-.6.4-1.1V76.8c0-.5-.1-.8-.4-1.1l-1.2-1.2c-.1-.1-.3-.2-.3-.4s.1-.2.2-.2h10.4c.2 0 .3.2.3.4v10c0 .2-.1.2-.2.2-.2 0-.3-.1-.3-.3L60 76.6c-.2-.5-.5-.8-1-.8h-2.3v12zm9.2-11c0-.5-.1-.8-.4-1.1l-1-1.2c-.1-.1-.3-.2-.3-.4 0-.1.1-.2.2-.2h4.8c.3 0 .4.3.5.7L73.5 92h.1V76.8c0-.5-.1-.8-.4-1.1l-1.1-1.2c-.1-.1-.3-.2-.3-.4 0-.1.1-.2.2-.2h5.3c.2 0 .2.1.2.2 0 .2-.2.3-.3.4l-1 1.2c-.1.3-.2.7-.2 1.1v26.9c0 .3-.1.4-.4.4h-1.7c-.4 0-.7-.4-.8-1l-4.7-22h-.1v20.1c0 .5.1.8.4 1.1l1.1 1.2c.1.1.3.2.3.4 0 .1-.1.2-.2.2h-5.3c-.2 0-.2-.1-.2-.2 0-.2.2-.3.3-.4l1-1.2c.2-.3.4-.6.4-1.1V76.8zm17.3-.9h-1.5c-.2 0-.4.2-.4.4l-2.1 8c0 .2-.2.2-.3.2s-.2-.1-.2-.3V74.1c0-.1.1-.2.2-.2h11.8c.1 0 .2.1.2.2v10.2c0 .2 0 .3-.2.3s-.3-.1-.3-.2l-2.1-8c-.1-.2-.2-.4-.4-.4h-1.5v25.4c0 .5 0 .8.3 1.1l1.2 1.2c.1.1.3.2.3.4s0 .2-.2.2h-6.3c-.2 0-.2-.1-.2-.2s.2-.2.3-.4l1.2-1.2c.3-.3.3-.6.3-1.1V75.9zm13.6 25.4c0 .5.1.8.4 1.1l1.2 1.2c.1.1.3.2.3.4s-.1.2-.2.2H92c-.2 0-.2-.1-.2-.2s.2-.2.3-.4l1.2-1.2c.3-.3.4-.6.4-1.1V76.8c0-.5-.1-.8-.4-1.1l-1.2-1.2c-.1-.1-.3-.2-.3-.4s.1-.2.2-.2h5c4.2 0 6.4 2.2 6.4 7.5 0 4.5-1.6 6.3-3 7.2 1.4.7 2.6 2.3 2.6 4.5v8.4c0 .3.2.5.4.7l1.3 1.4c.2.2.3.3.3.4s-.2.1-.4.1h-2.1c-1.9 0-2.6-1.2-2.6-2.6v-8.7c0-1.8-1.1-3.1-2.5-3.1h-.7v11.6zm0-13.5h.6c2 0 2.8-1.6 2.8-6.4 0-4.1-.8-5.4-2.8-5.4h-.6v11.8zm16.2 9.6c0-.2-.2-.4-.4-.4h-3c-.1 0-.2.1-.2.3l-.6 4.4c0 .3 0 .5.2.7l.9.9c.2.2.4.4.4.5s-.1.2-.3.2h-4.6c-.2 0-.2-.1-.2-.2s.2-.3.3-.4l1.1-1.1c.2-.2.3-.6.3-1l3.7-27.1c0-.2.1-.4.3-.4h1.5c.2 0 .3.2.4.4l3.8 27.1c0 .4.2.8.4 1.1l1.2 1c.1.1.2.2.2.4s-.1.2-.3.2h-5.8c-.2 0-.3-.1-.3-.2s.2-.2.3-.4l1.1-1.1c.2-.2.2-.4.2-.8l-.6-4.1zm-.6-2.5c.1 0 .2-.1.2-.3l-1.4-9.9h-.1l-1.3 9.9c0 .2 0 .2.1.2h2.5zm8.4-18.1c0-.5-.1-.8-.4-1.1l-1.2-1.2c-.1-.1-.3-.2-.3-.4s.1-.2.2-.2h6.3c.2 0 .2.1.2.2s-.2.2-.3.4l-1.2 1.2c-.3.3-.4.6-.4 1.1v25.3h1.6c.5 0 .9-.1 1-.6l2.5-7.8c.1-.2.1-.3.2-.3s.2.1.2.3v9.9c0 .4-.1.6-.4.6h-9.9c-.2 0-.2-.1-.2-.2s.2-.2.3-.4l1.2-1.2c.3-.3.4-.6.4-1.1V76.8z"/>
    <g class="color-white" fill="#fff">
        <path d="M55.4 128.5c0 .4.1.6.3.8l.9.9c.1.1.2.2.2.3s-.1.2-.2.2H52c-.1 0-.2-.1-.2-.2s.1-.2.2-.3l.9-.9c.2-.2.3-.5.3-.8v-17.8c0-.4-.1-.6-.3-.8l-.9-.9c-.1-.1-.2-.2-.2-.3s.1-.2.2-.2h3.7c3 0 4.6 1.6 4.6 5.4 0 3.3-1.1 4.6-2.2 5.2 1 .5 1.9 1.7 1.9 3.3v6.1c0 .2.1.4.3.5l.9 1c.1.1.2.2.2.3s-.1.1-.3.1h-1.5c-1.3 0-1.9-.9-1.9-1.9v-6.3c0-1.3-.8-2.3-1.8-2.3h-.5v8.6zm0-9.8h.4c1.4 0 2-1.1 2-4.7 0-3-.6-4-2-4h-.4v8.7z"/>
        <path d="M67.2 125.7c0-.1-.1-.3-.3-.3h-2.2c-.1 0-.1.1-.2.2l-.4 3.2c0 .2 0 .4.1.5l.6.7c.1.1.3.3.3.4s-.1.2-.2.2h-3.4c-.1 0-.2-.1-.2-.2s.1-.2.2-.3l.8-.8c.2-.2.2-.5.2-.7l2.7-19.7c0-.1.1-.3.2-.3h1.1c.1 0 .2.1.3.3l2.8 19.7c0 .3.1.6.3.8l.9.8c.1.1.2.2.2.3s-.1.2-.2.2h-4.2c-.1 0-.2-.1-.2-.2s.1-.2.2-.3l.8-.8c.1-.1.2-.3.1-.6l-.3-3.1zm-.4-1.8c.1 0 .1-.1.1-.2l-1-7.2h-.1l-1 7.2c0 .1 0 .2.1.2h1.9zm6.1-13.2c0-.4-.1-.6-.3-.8l-.9-.9c-.1-.1-.2-.2-.2-.3s.1-.2.2-.2h4.6c.1 0 .2.1.2.2s-.1.2-.2.3l-.9.9c-.2.2-.3.5-.3.8v17.8c0 .4.1.6.3.8l.9.9c.1.1.2.2.2.3s-.1.2-.2.2h-4.6c-.1 0-.2-.1-.2-.2s.1-.2.2-.3l.9-.9c.2-.2.3-.5.3-.8v-17.8zm5.6 0c0-.4-.1-.6-.3-.8l-.9-.9c-.1-.1-.2-.2-.2-.3s.1-.2.2-.2H82c.1 0 .2.1.2.2s-.1.2-.2.3l-.9.9c-.2.2-.3.5-.3.8v18.4H82c.4 0 .6-.1.8-.4l1.8-5.7c.1-.1.1-.2.2-.2s.1.1.1.2v7.2c0 .3-.1.4-.3.4h-7.2c-.1 0-.2-.1-.2-.2s.1-.1.2-.3l.9-.9c.2-.2.3-.5.3-.8v-17.7zm9.8-2.1c.1 0 .2 0 .2.1s0 .2-.1.3l-.8.9c-.1.1-.2.4-.1.6l1.3 10.4h.1l1.2-10.4c0-.2 0-.4-.1-.5l-1-1c-.1-.1-.2-.2-.2-.3 0-.1.1-.1.2-.1h3.7c.1 0 .2 0 .2.1s-.1.2-.2.3l-.9.9c-.1.1-.1.3-.1.5l1.4 10.4h.1l1.1-10.4c0-.2 0-.4-.1-.5l-.9-.9c-.1-.1-.1-.2-.1-.3 0-.1.1-.1.3-.1h3.7c.1 0 .2 0 .2.1s-.1.2-.1.3l-1 1.1c-.1.2-.2.4-.3.7l-2.2 19.7c0 .1-.1.2-.2.2h-.9c-.1 0-.2-.1-.2-.2l-1.9-13.8h-.1l-1.6 13.8c0 .1-.1.2-.2.2H88c-.1 0-.2-.1-.2-.2l-2.6-19.7c0-.2-.1-.5-.3-.7l-.8-1c-.1-.1-.2-.2-.2-.4 0-.1.1-.1.2-.1h4.2zm13 17.1c0-.1-.1-.3-.3-.3h-2.2c-.1 0-.1.1-.2.2l-.4 3.2c0 .2 0 .4.1.5l.6.7c.1.1.3.3.3.4s-.1.2-.2.2h-3.4c-.1 0-.2-.1-.2-.2s.1-.2.2-.3l.8-.8c.2-.2.2-.5.2-.7l2.7-19.7c0-.1.1-.3.2-.3h1.1c.1 0 .2.1.3.3l2.8 19.7c0 .3.1.6.3.8l.9.8c.1.1.2.2.2.3s-.1.2-.2.2h-4.2c-.1 0-.2-.1-.2-.2s.1-.2.2-.3l.8-.8c.1-.1.2-.3.1-.6l-.3-3.1zm-.5-1.8c.1 0 .1-.1.1-.2l-1-7.2h-.1l-1 7.2c0 .1 0 .2.1.2h1.9zm6.5-2.4l-2.2-10.8c0-.2-.1-.5-.3-.7l-.8-1c-.1-.1-.2-.2-.2-.3 0-.1.1-.1.2-.1h4.2c.1 0 .2 0 .2.1s-.1.2-.2.3l-.9.9c-.1.1-.1.3-.1.6l1.3 6.5h.1l1.4-6.5c.1-.2 0-.4-.1-.6l-.9-.9c-.1-.1-.2-.2-.2-.3 0-.1.1-.1.3-.1h3.9c.1 0 .2 0 .2.1s-.1.2-.2.3l-1 1c-.1.2-.2.4-.3.7l-2.1 9.9v7.9c0 .4.1.6.3.8l.9.9c.1.1.2.2.2.3s-.1.2-.2.2h-4.6c-.1 0-.2-.1-.2-.2s.1-.2.2-.3l.9-.9c.2-.2.3-.5.3-.8v-7z"/>
    </g>
    <path class="color-white" fill="#fff" d="M137.8 136H32.2V30.4h105.6V136zm-102-3.6h98.4V34H35.8v98.4z"/>
</svg>
