<svg xmlns="http://www.w3.org/2000/svg" viewBox="0 0 170.1 170.1">
  <circle class="color-violet color-main" fill="#5f2384" cx="85" cy="85" r="78"/>
  <path class="color-white" fill="#fff" d="M61.8 84.6v.6c.2 3.7.4 6.4.4 7.9 0 5.6-1.6 9.7-4.9 12.4s-8.3 4.1-15 4.1c-6.4 0-11-1.1-13.8-3.4-2.8-2.2-4.2-6-4.2-11.1 0-.4 0-1.3.1-2.7 0-1 0-1.8.1-2.5l.7-17.2v-1c0-2.7-.3-4.4-.9-5.2s-1.7-1.2-3.3-1.3v-1.9h22.8v1.9c-1.8.2-3.1 1.1-3.8 2.4q-1.05 2.1-1.2 7.8l-.3 14v4.8c0 3.3.7 5.7 2.2 7.3s3.8 2.4 6.8 2.4c3.3 0 5.6-.9 7-2.8s2.2-5 2.2-9.2v-2.8l-.6-11.5c-.2-4.8-.8-8-1.6-9.6s-2.2-2.6-4.2-2.8v-1.9h16.1v1.9c-1.6.2-2.8.8-3.7 1.8s-1.3 2.4-1.3 4.1V74zm57.2 24.1v-1.9c1.6-.1 2.7-.7 3.3-1.6q.9-1.35.9-6.3v-12L113.4 70c-.9-1.6-1.8-2.8-2.6-3.4-.8-.7-1.8-1.1-3-1.3v-1.9h24.1v1.9c-1 .1-1.8.3-2.3.8s-.8 1.2-.8 2c0 .5.1 1.1.4 1.7.2.7.6 1.4 1.1 2.2l4.9 8.2 4.2-7.3c.7-1.2 1.2-2.3 1.5-3.1s.5-1.5.5-2c0-.8-.2-1.4-.7-1.8s-1.2-.7-2.2-.8v-1.9h15.4v1.9c-1.4.5-2.7 1.3-3.8 2.3-1.1 1.1-2.4 2.6-3.7 4.8l-9.1 14.5v12.1c0 3.2.3 5.3.9 6.2.6 1 1.7 1.5 3.4 1.7v1.9zm-46.1-9.8v-.8q.6-.15.9-.6c.3-.45.2-1.1.2-2.2V83.9c0-1.2-.1-1.9-.2-2.2s-.4-.5-.9-.6v-.8h7.2c1.2 0 2.2.2 3.1.5s1.8.8 2.5 1.4c1.1 1 2 2.2 2.7 3.7.6 1.5.9 3.1.9 4.9 0 1.2-.2 2.4-.6 3.4s-.9 2-1.7 2.7c-.7.7-1.4 1.2-2.3 1.5-.8.3-1.9.5-3.3.5zm5.9-4.3v.5c0 .8.1 1.4.3 1.6q.3.3 1.2.3c1.3 0 2.3-.6 3-1.7s1.1-2.7 1.1-4.7c0-2.3-.4-4.3-1.3-5.9-.8-1.6-1.9-2.4-3-2.4-.5 0-.8.2-1 .5s-.3 1-.3 1.9zM91 98.9v-.8q.6-.15.9-.6c.2-.3.2-1.1.2-2.2V83.9c0-1.2-.1-1.9-.2-2.2-.2-.3-.4-.5-.9-.6v-.8h10.6c.3 0 .6 0 .8-.1s.4-.2.5-.4l1.3 6.4-.6.1c-.5-1.3-1.1-2.4-2-3.1s-1.9-1-3.2-1c-.6 0-1 .1-1.3.4s-.3.9-.3 1.8v1.9h1.3c.8 0 1.3-.1 1.6-.4s.5-.9.5-1.7h.5l1 7.1-.5.1c-.3-1.2-.7-2-1.2-2.5s-1.2-.7-2.1-.7h-1.2v6.2c0 1.1.1 1.8.4 2.1.3.4.8.5 1.6.5 1.2 0 2.4-.5 3.3-1.4 1-.9 1.8-2.3 2.6-4.2l.6.1-2 7.6c-.1-.1-.3-.2-.5-.2s-.4-.1-.7-.1H91z"/>
</svg>
