<svg xmlns="http://www.w3.org/2000/svg" width="191.999" height="191.904" viewBox="-2 -2 54.8 54.775">
    <g class="color-blue color-main" fill="#0f679f">
        <path d="M23.248 50.685c-2.585-.247-5.288-.84-6.39-1.403-.197-.1-.435-.183-.53-.183-.195 0-1.269-.445-1.619-.67a1.903 1.903 0 00-.499-.214c-.343-.08-2.522-1.38-3.066-1.83-.233-.191-.498-.376-.591-.411-.313-.116-2.077-1.606-2.911-2.457-1.03-1.052-3.213-3.641-3.442-4.082a7.096 7.096 0 00-.467-.737c-.335-.459-.974-1.64-1.077-1.989-.037-.126-.25-.589-.47-1.028-.222-.438-.432-.903-.467-1.032a17.36 17.36 0 00-.33-.938c-.398-1.05-.92-3.02-1.08-4.082-.949-6.242.309-12.587 3.509-17.707 1.821-2.914 4.286-5.525 6.924-7.334 1.19-.817 2.709-1.747 2.852-1.747.041 0 .224-.1.405-.224.709-.48 3.047-1.352 5.052-1.882C21.42.11 22.395-.003 25.453 0c2.277.002 2.904.033 3.847.19 1.24.208 3.08.692 4.57 1.204 1.386.476 4.174 1.87 5.357 2.678.557.381 1.218.823 1.47.981.635.403 2.421 2.032 3.416 3.118 2.316 2.529 4.296 5.892 5.396 9.167.574 1.708.8 2.705 1.039 4.577.465 3.64.292 6.729-.566 10.125-.649 2.57-2.535 6.389-4.272 8.65-1.447 1.884-4.612 4.865-6.181 5.822a5.67 5.67 0 00-.518.339c-.026.028-.554.33-1.173.67-2.002 1.098-4.101 1.983-5.41 2.28-.293.067-.57.145-.618.174-.096.06-1.62.371-2.582.528-.614.1-4.042.292-4.807.27a23.771 23.771 0 01-1.173-.088zm-5.943-8.6c-.034-2.515-.062-5.41-.062-6.43v-1.856l-6.56.025c-3.609.015-6.59.055-6.624.09-.08.08.92 2.166 1.452 3.033.5.814 1.742 2.491 2.536 3.426 1.283 1.51 2.943 2.97 4.739 4.166 1.317.878 3.8 2.12 4.239 2.12h.342zm18.025 3.876c3.006-1.473 5.967-3.838 7.99-6.384.764-.961 1.911-2.706 2.248-3.42.15-.314.31-.623.36-.687.197-.257.61-1.383.557-1.52-.05-.129-.717-.145-6.05-.145-3.298 0-6.191.025-6.43.06l-.436.059v6.368c0 6.037.008 6.367.167 6.367.091 0 .809-.314 1.594-.699zM6.643 29.54c.784-.265 1.048-.482 1.384-1.131.194-.376.243-.609.248-1.173.015-1.57-.343-2.062-2.14-2.939-1.404-.684-1.35-.619-1.395-1.72-.02-.465.011-.616.164-.783.691-.764 1.736-.55 2.248.461.233.46.522.636.841.514.441-.17-.065-1.399-.852-2.072-.498-.424-.535-.44-1.104-.434-.78.009-1.167.147-1.58.57-.459.47-.632 1.003-.63 1.934.003 1.314.281 1.68 1.806 2.387 1.079.501 1.368.718 1.579 1.181.214.472.23 1.28.033 1.662-.185.358-.93.834-1.304.834-.554-.001-1.365-.734-1.365-1.234 0-.396-.197-.566-.614-.532-.366.03-.372.036-.4.44-.038.527.34 1.326.79 1.67.257.195 1.188.548 1.552.588.034.002.366-.097.739-.223zm6.612-.169a2.29 2.29 0 00.509-.39c.315-.338.382-.308.382.172 0 .338.037.427.195.478.294.093.621-.023.678-.242.078-.298-.044-6.205-.133-6.446a.301.301 0 00-.304-.21c-.282 0-.394.138-.475.587l-.064.354-.31-.328c-.668-.709-1.666-.886-2.831-.504-.742.244-1.094.567-1.458 1.336-.364.77-.486 1.443-.442 2.443.06 1.349.567 2.244 1.572 2.772.53.279 2.13.266 2.68-.023zm3.909-2.02c.031-2.28.036-2.335.272-2.792.132-.257.381-.561.553-.678.671-.451 1.645-.13 2.136.707l.26.443.03 2.322.03 2.322h.315c.637 0 .611.086.61-2.05-.002-1.99-.109-2.882-.416-3.476-.439-.848-1.31-1.414-2.18-1.416-.667-.002-.956.123-1.367.587l-.351.397v-.334c-.001-.435-.182-.678-.475-.636-.219.03-.232.072-.29.876-.033.465-.065 1.993-.07 3.396l-.012 2.551.352.037c.194.02.401.044.46.053.08.011.118-.614.142-2.31zm6.834-.78V23.47l.29.063c.158.035.432.037.609.003.272-.05.32-.099.32-.314-.003-.422-.122-.523-.541-.455-.268.042-.406.022-.485-.075-.062-.074-.135-.592-.166-1.172-.06-1.151-.133-1.3-.563-1.157l-.261.087-.047 1.118-.047 1.119-.516.047-.516.046v.376c0 .33.028.378.235.4.129.015.371.048.54.075l.304.05v2.374c0 1.306.028 2.632.06 2.947.062.591.104.64.573.664l.212.011zm5.92 2.867c.176-.09.489-.315.695-.5l.376-.338.028.436c.014.24.081.48.145.534.18.15.534.014.631-.242.048-.125.087-1.663.087-3.417v-3.19l-.399.03-.399.028-.029.47c-.033.525-.154.732-.25.426-.036-.11-.323-.39-.639-.619-.5-.364-.635-.418-1.051-.418-.561 0-1.407.206-1.915.465-.426.217-.836.817-1.192 1.743-.317.826-.334 1.771-.05 2.672.344 1.085.844 1.63 1.853 2.017.477.183 1.67.128 2.11-.097zm6.803.145c.191-.002.198-.055.262-1.992.036-1.094.08-2.004.097-2.022.018-.017.639-.057 1.38-.088.815-.034 1.376-.097 1.417-.159.038-.057.07-.214.07-.35.002-.21-.047-.253-.35-.303-.193-.032-.848-.059-1.454-.059H37.04v-3.26l1.373-.041c1.221-.037 1.387-.062 1.505-.223.073-.1.12-.309.105-.463l-.028-.282-1.858.014c-1.022.006-1.888.043-1.924.078-.035.036-.077 2.136-.092 4.667l-.025 4.602.214-.058c.118-.031.303-.057.411-.058zm8.257-.125c.523-.274 1.54-1.517 1.54-1.882 0-.143-.196-.246-.466-.246-.093 0-.372.238-.62.528-.485.568-1.184.97-1.688.972-.296 0-1.067-.347-1.41-.636-.326-.276-.494-.607-.56-1.107l-.062-.478 1.573-.062c.865-.034 2.01-.062 2.543-.062h.97v-.352c-.003-.862-.466-1.956-1.138-2.69-.356-.39-.54-.507-1.005-.64-.76-.22-1.293-.208-1.95.044-1.015.388-1.635 1.292-1.837 2.678-.27 1.851.574 3.63 1.896 4 .627.176 1.821.14 2.214-.067zM17.186 16.955c.03-.082.057-2.972.057-6.424 0-6.247-.001-6.276-.194-6.38-.148-.079-.243-.072-.4.03a1.697 1.697 0 01-.497.189c-.274.053-2.725 1.342-3.554 1.868-1.222.776-4.123 3.38-4.908 4.408-1.138 1.488-1.506 2.015-2.088 2.996-.36.607-.72 1.264-.799 1.461a20.09 20.09 0 01-.413.922c-.149.31-.299.679-.334.82l-.064.259h6.569c5.902 0 6.573-.014 6.625-.149zm29.385-.093c-.077-.308-1.065-2.451-1.272-2.761-.086-.13-.31-.511-.495-.849-.895-1.624-3.317-4.34-5.059-5.672a79.82 79.82 0 01-.98-.77c-.337-.269-.7-.516-.806-.55-.107-.034-.51-.268-.897-.52-.891-.582-2.943-1.585-3.243-1.585-.227 0-.228 0-.296 1.369-.038.752-.037 3.666 0 6.474l.07 5.105h13.038z"/>
        <path d="M11.497 28.837c-.432-.138-.895-.467-1.2-.853-.418-.527-.644-1.636-.481-2.362.223-.998 1-1.833 1.852-1.993.53-.1 1.265.165 1.717.616.527.528.695 1.123.653 2.318-.031.877-.044.923-.36 1.318-.658.82-1.48 1.18-2.181.956zm16.68-.049c-1.011-.271-1.604-1.335-1.536-2.757.048-.99.309-1.503 1.04-2.041.681-.502 1.092-.54 1.833-.17 1.224.61 1.823 2.283 1.263 3.533-.289.645-.998 1.31-1.55 1.456-.522.137-.458.138-1.05-.02zm13.555-3.304c0-.406.132-.722.483-1.16.663-.824 1.769-.984 2.642-.384.542.373.908.902.976 1.41l.051.379-2.076.028-2.076.028z"/>
    </g>
</svg>
