<svg xmlns="http://www.w3.org/2000/svg" width="220" height="220" viewBox="0 0 220 220">
  <path class="color-red color-main" fill="#b82519" d="M110 10a100 100 0 0 1 100 100 100 100 0 0 1-100 100A100 100 0 0 1 10 110 100 100 0 0 1 110 10z"/>
  <path class="color-yellow" fill="#fbe74e" d="M61.228 129.387c-.485-.007-.962.047-1.34.25-1.24.666-2.24 2.617-3.098 3.715-1.783 2.284-4.505 4.394-5.707 7.06 3.054.758 2.758-2.718 5.142-3.093 1.347-.212 2.836.002 4.2-.027.51-.01 1.207-.136 1.658.163 1.179.781.24 3.747 2.531 3.063.89-.265.02-2.139-.108-2.755-.552-2.661-1.815-5.544-1.894-8.257-.408-.044-.9-.112-1.384-.12z"/>
  <path class="color-red color-main" fill="#b82519" d="M61.054 131.064c.025 1.219.404 2.392.623 3.583.069.373.328.977.046 1.308-.679.796-3.72.186-4.72.25l-.156-.467c1.33-1.166 2.559-4.167 4.207-4.674z"/>
  <path class="color-yellow" fill="#fbe74e" d="M142.791 129.312c-.942.003-1.95.677-2.473 1.29-1.815 2.13-3.59 4.325-5.347 6.512-.796.991-2.012 2.082-2.403 3.298 2.918.863 2.73-2.665 4.986-3.08 1.294-.24 2.736.01 4.05-.048.553-.024 1.325-.176 1.816.153 1 .67.54 4.078 2.653 3.037.688-.34.06-1.85-.085-2.4-.556-2.12-1.002-4.268-1.558-6.387-.137-.524-.246-1.819-.738-2.127a1.657 1.657 0 0 0-.9-.248z"/>
  <path class="color-red color-main" fill="#b82519" d="m142.228 130.908 1.09 5.297h-4.986c.582-1.82 2.634-3.86 3.896-5.297z"/>
  <path class="color-yellow" fill="#fbe74e" d="M39.98 129.301c-1.699-.027-3.485.205-4.633.205-.718 0-2.283-.294-2.833.25-.63.622-.705 2.047-.96 2.866-.777 2.484-2.126 5.334-2.128 7.946.501 0 1.322.153 1.702-.25.986-1.046.574-4.445 2.2-4.713 2.056-.34 4.295-.145 5.608 1.603.645.858 1.224 2.816 2.228 3.266 1.17.524 1.997-.145 1.353-1.264-.912-1.585-2.046-2.51-3.275-3.784 2.135-.017 7.162-1.785 4.848-4.779-.799-1.034-2.41-1.32-4.11-1.346z"/>
  <path class="color-red color-main" fill="#b82519" d="M39.185 130.59c.227 0 .454.003.68.009.736.018 1.754.044 2.27.644.983 1.144-.234 2.374-1.335 2.701-2.37.704-5.032.392-7.479.392l1.09-3.74c1.58.11 3.185-.004 4.774-.004z"/>
  <path class="color-yellow" fill="#fbe74e" d="M168.995 129.509c-3.004-.057-5.03 3.881-7.448 5.294-.858-2.13-3.208-5.943-5.765-5.141.919 1.507 2.04 2.962 3.116 4.361.471.612 1.3 1.431 1.463 2.209.19.906-.55 2.225-.8 3.09-.095.327-.362.928.037 1.152.627.351 1.592.088 1.882-.539.559-1.211.577-2.768 1.42-3.839 1.945-2.471 5.056-4.008 7.06-6.434a3.63 3.63 0 0 0-.965-.153zm-77.485-.06c-.35.002-.686.063-.922.295-.635.625-.754 2.05-.998 2.878-.74 2.506-2.15 5.318-2.205 7.946h10.283l.311-1.247h-8.257l2.804-9.815c-.298-.002-.665-.059-1.016-.057zm-12.673-.034c-.368.002-.72.076-.973.338-.563.584-.725 1.947-.938 2.713-.494 1.775-1.09 3.532-1.622 5.297-.19.63-.808 1.79-.575 2.444.203.568 1.422.436 1.765.09.722-.729.834-2.364 1.13-3.313.309-.988.62-1.976.94-2.96.488-1.496.863-3.018 1.342-4.518-.317-.024-.7-.093-1.069-.091zm39.643-.047c-.803-.05-1.696.551-2.116 1.101-1.899 2.49-4.275 5.007-5.765 7.762h-.155c-.627-2.634-.624-6.015-.624-8.725h-2.025c0 2.613.49 5.186.617 7.79.035.711-.116 2.483.412 3 .764.748 2.065.154 2.6-.51 1.362-1.687 2.664-3.42 3.987-5.139.618-.802 1.482-1.647 1.732-2.648h.623c0 2.093.227 4.143.318 6.232.026.581.018 1.803.541 2.176 1.37.979 2.56-.726 3.257-1.597 1.525-1.911 2.926-3.951 4.365-5.929.792-1.087 1.788-2.103 2.27-3.375-.625-.048-1.267-.2-1.841.14-.831.492-1.34 1.602-1.91 2.353-1.487 1.96-3.465 4.077-4.35 6.388h-.313c-.16-2.004-.416-4.08-.465-6.077-.017-.692.2-2.148-.407-2.65a1.278 1.278 0 0 0-.751-.292zM75.436 80.94c-.474.005-.92.055-1.274.205-.723.307-.787 1.578-.977 2.243-.638 2.228-1.203 4.474-1.848 6.7-2.38 8.22-4.773 16.481-6.89 24.772-.505 1.98-1.092 3.938-1.575 5.92-.12.492-.696 1.62-.395 2.088.417.646 3.011.235 3.719.252 3.873.095 7.788-.002 11.685-.002.648-2.904 1.438-5.855 2.247-8.725.225-.8.315-2.472 1.068-2.957.709-.456 1.958-.315 2.761-.315h5.92c6.816 0 13.44-1.159 17.472-7.323 4.286-6.552 5.06-18.346-3.605-21.842-2.565-1.035-5.08-.905-7.79-.905H77.725c-.634 0-1.5-.12-2.29-.111z"/>
  <path class="color-red color-main" fill="#b82519" d="M87.545 93.459c.512-.013 1.053.056 1.398.056 1.35 0 3.069-.258 4.173.71 1.994 1.747.2 4.444-1.836 4.994-.927.251-1.853.217-2.805.217-1.11 0-2.357.16-3.427-.156.368-1.527.37-4.09 1.274-5.386.229-.328.711-.422 1.223-.435z"/>
  <path class="color-yellow" fill="#fbe74e" d="m166.844 81.363-2.601.16-1.08 2.956-2.146 7.79-5.455 20.254-3.051 11.218c5.41.893 11.366.004 16.826 0l3.584-13.087h11.84c1.066 0 3.555.461 4.44-.16.455-.32.483-1.066.612-1.554.341-1.297.687-2.585.972-3.895.307-1.408.712-2.808 1.063-4.207.1-.4.487-1.205.107-1.554-.65-.596-3.214-.16-4.077-.16-3.713 0-7.878.522-11.53-.156.462-1.29.513-4.295 1.625-5.15.962-.74 3.297-.303 4.452-.303h11.84l2.805-12.152h-23.993zM45.838 79.395c-4.903-.013-9.781 1.076-14.075 3.571-3.07 1.784-5.703 4.128-6.841 7.59-1.836 5.584.877 12.445 6.53 14.57 2.26.849 5.044.4 7.166 1.557 1.075.586 2.047 1.633 1.394 2.878-1.047 1.991-3.898 1.856-5.756 1.484-2.556-.511-5.033-1.075-7.479-2.05-1.585-.633-3.272-1.75-4.985-1.925-.364 2.98-1.806 6.164-2.7 9.037-.265.849-1.207 2.683-.698 3.522.43.708 1.887 1.298 2.619 1.644 2.497 1.182 5.217 2.104 7.946 2.5 7.523 1.094 15.688.678 22.28-3.604 2.356-1.53 4.574-3.481 5.752-6.088 2.638-5.833-.955-13.1-6.837-15.206-2.016-.722-4.403-1.187-6.236-2.29-.983-.59-1.734-1.586-1.16-2.744.835-1.684 3.272-1.826 4.897-1.714 3.134.216 6.166 1.833 9.037 2.977 1.088.434 2.251 1.14 3.427 1.216.056-2.634 1.081-5.701 1.736-8.258.204-.795 1.014-2.638.597-3.377-.417-.736-1.49-1.178-2.177-1.608-2.348-1.473-5.076-2.47-7.79-3.009a34.748 34.748 0 0 0-6.647-.673zm90.944-.043c-4.948-.03-9.935 1.116-14.131 3.641-2.779 1.672-5.329 3.694-6.606 6.783-2.405 5.818.537 12.87 6.24 15.326 2.271.977 4.93.498 7.167 1.552 1.134.534 2.115 1.593 1.47 2.894-.872 1.754-3.682 1.95-5.365 1.678-2.812-.455-5.615-1.354-8.258-2.411-1.47-.588-3.078-1.662-4.674-1.745-.19 2.974-1.763 6.354-2.676 9.193-.264.819-1.218 2.696-.612 3.484.421.547 1.443.883 2.042 1.21 2.243 1.228 4.7 1.975 7.166 2.564 9.788 2.338 25.535.363 29.777-10.401 2.482-6.298-2.678-12.407-8.12-14.526-1.804-.703-4.117-.99-5.646-2.235-.718-.584-1.402-1.404-.97-2.362.78-1.727 3.117-1.903 4.746-1.883 4.586.054 8.24 3.669 12.62 4.206.29-2.9 1.31-5.872 1.926-8.725.174-.809.9-2.258.407-3.036-.448-.707-1.623-1.233-2.333-1.638-2.084-1.191-4.224-1.986-6.543-2.584a31.478 31.478 0 0 0-7.627-.985z"/>
</svg>
