<svg xmlns="http://www.w3.org/2000/svg" width="220" height="220.00031" viewBox="0 0 220 220.00031">
    <path class="color-red color-main" fill="#b82519" d="M110 10a100.00006 100.00006 0 01100 100.00032 100.00006 100.00006 0 01-100 99.99999 100.00006 100.00006 0 01-100-99.99999A100.00006 100.00006 0 01110 10z"/>
    <path class="color-yellow" fill="#fbe74e" d="M61.22756 129.3865c-.48465-.007-.96164.0473-1.33954.25043-1.2391.66575-2.24041 2.61682-3.09811 3.71524-1.78301 2.28374-4.50487 4.39341-5.7072 7.05982 3.05468.75798 2.75801-2.7179 5.14211-3.09323 1.34692-.21205 2.83656.002 4.19999-.0268.50932-.0103 1.20725-.13558 1.65845.16341 1.1785.78073.24011 3.74632 2.53119 3.06281.88901-.26518.0194-2.1388-.10833-2.75485-.55185-2.66174-1.81546-5.54394-1.89398-8.25756-.40774-.0434-.89994-.1122-1.38458-.11928z"/>
    <path class="color-red color-main" fill="#b82519" d="M61.05411 131.06381c.0252 1.21885.40415 2.39251.62321 3.58347.0685.37252.32812.97696.0457 1.3082-.67853.79569-3.72026.18548-4.71974.24983l-.1558-.46741c1.32915-1.16618 2.55844-4.16695 4.20668-4.67409z"/>
    <path class="color-yellow" fill="#fbe74e" d="M142.79138 129.31224c-.94276.003-1.95004.67701-2.47307 1.29025-1.81526 2.12889-3.59115 4.32416-5.34721 6.51117-.79615.99168-2.01247 2.08198-2.40338 3.29833 2.91803.86253 2.73012-2.6646 4.9863-3.08075 1.2941-.23854 2.73607.0111 4.05027-.0472.55264-.0245 1.32452-.17615 1.81608.15337.99917.6698.53868 4.07805 2.65261 3.03634.68849-.33934.0592-1.85024-.0846-2.39882-.5559-2.12033-1.00243-4.26854-1.55803-6.38793-.13741-.52396-.24636-1.81859-.73823-2.12708-.27955-.17531-.58649-.24867-.90074-.2477z"/>
    <path class="color-red color-main" fill="#b82519" d="M142.22751 130.90801l1.09062 5.2973h-4.9857c.58146-1.82103 2.63369-3.86096 3.89508-5.2973z"/>
    <path class="color-yellow" fill="#fbe74e" d="M39.98053 129.30102c-1.69907-.0268-3.48543.20481-4.63393.20481-.71794 0-2.28215-.29391-2.83245.24953-.63053.62259-.70486 2.04747-.96068 2.86653-.77621 2.48426-2.12536 5.33391-2.12738 7.94595.50137 0 1.32226.15355 1.70227-.24983.98529-1.04621.57322-4.44459 2.1995-4.71304 2.0566-.3395 4.29505-.14457 5.60769 1.60276.64502.85848 1.22487 2.81644 2.22871 3.26609 1.17024.52443 1.99641-.14528 1.35263-1.26379-.91207-1.58482-2.04561-2.51015-3.27521-3.78369 2.13559-.0176 7.16228-1.78531 4.84876-4.77907-.79904-1.03407-2.41084-1.3194-4.10991-1.34625z"/>
    <path class="color-red color-main" fill="#b82519" d="M39.18508 130.59092c.22704-.00005.45355.002.67981.008.73601.0179 1.75441.0444 2.26949.6439.98312 1.14406-.23314 2.37427-1.33467 2.7013-2.37023.70375-5.0315.39194-7.47855.39194l1.09062-3.73927c1.57854.10865 3.18401-.005 4.7733-.005z"/>
    <path class="color-yellow" fill="#fbe74e" d="M168.9952 129.50852c-3.00397-.0561-5.02927 3.88176-7.44811 5.29456-.85801-2.12967-3.20846-5.94279-5.76472-5.1415.91831 1.5074 2.03869 2.96261 3.11606 4.36188.47084.61151 1.29873 1.43102 1.46248 2.20832.19071.90631-.54901 2.22551-.80001 3.08959-.0952.32766-.36172.92913.0368 1.1524.62727.35133 1.59248.088 1.88181-.53863.55949-1.21152.57759-2.76793 1.42049-3.83908 1.94489-2.47149 5.05634-4.00847 7.06043-6.43448-.33322-.0985-.6545-.14726-.96525-.15306zm-77.48494-.05934c-.35097.002-.68615.063-.92204.29487-.63552.62461-.75426 2.0497-.99872 2.87779-.74006 2.50576-2.14874 5.31803-2.20467 7.94596h10.283l.31161-1.24643h-8.25757l2.80446-9.81559c-.29844-.002-.6651-.0588-1.01607-.0566zm-12.6733-.03439c-.36822.002-.72045.0761-.97316.33839-.56292.5841-.72457 1.94646-.93786 2.71286-.49421 1.77537-1.09049 3.5319-1.62224 5.2973-.18977.63038-.80746 1.78903-.57422 2.44324.2027.56884 1.42141.43628 1.76496.0898.72199-.72838.83323-2.36382 1.12957-3.31203.30895-.98842.62011-1.97591.9406-2.96026.48719-1.49634.86195-3.01791 1.34167-4.51829-.31698-.0241-.7011-.0933-1.06932-.091zm39.64275-.04716c-.80262-.0496-1.69601.55177-2.11551 1.10157-1.89924 2.48974-4.27493 5.0068-5.76472 7.76155h-.1558c-.62695-2.63338-.62321-6.01509-.62321-8.72497h-2.02544c0 2.61297.49061 5.18606.61712 7.79015.0346.71124-.11645 2.48332.41173 3.00043.7639.74769 2.06538.15324 2.60057-.51001 1.36156-1.68735 2.66375-3.42087 3.98637-5.13907.61776-.80254 1.48186-1.64699 1.73239-2.64865h.62321c0 2.09368.22624 4.14358.3177 6.23212.0255.5813.018 1.80275.54135 2.17668 1.36951.97846 2.56007-.72634 3.25604-1.5979 1.52578-1.91093 2.92621-3.95098 4.36583-5.92842.7918-1.0875 1.78729-2.10289 2.2695-3.37533-.62462-.0475-1.26659-.19952-1.84104.14028-.83121.49172-1.34019 1.60175-1.9098 2.35257-1.48745 1.96093-3.46487 4.0769-4.35092 6.38792h-.31161c-.16017-2.00378-.41605-4.07954-.46498-6.07632-.0171-.69254.19955-2.14787-.40746-2.64986-.22646-.18728-.48378-.2762-.75132-.29274zM75.43577 80.93969c-.47389.005-.92056.0554-1.27351.2051-.72277.30678-.78719 1.57867-.97742 2.24332-.63802 2.2283-1.20317 4.47405-1.84773 6.69954-2.38067 8.22063-4.7736 16.48131-6.88972 24.77268-.50496 1.97901-1.09192 3.93808-1.57538 5.92052-.11981.49156-.69646 1.61934-.39498 2.08722.41662.64627 3.01092.23451 3.71858.25196 3.87311.0949 7.78828-.002 11.68523-.002.64767-2.90433 1.43835-5.85539 2.24697-8.72497.22545-.80021.31541-2.47175 1.06841-2.95661.70843-.45635 1.95777-.31526 2.76094-.31526h5.92052c6.8156 0 13.43967-1.1587 17.47154-7.32274 4.28568-6.55199 5.05946-18.34602-3.60568-21.84256-2.56405-1.03468-5.07935-.90469-7.78954-.90469H77.72504c-.63393 0-1.49946-.1194-2.28927-.11137z"/>
    <path class="color-red color-main" fill="#b82519" d="M87.54489 93.45871c.51175-.0128 1.05271.0566 1.39797.0566 1.35019 0 3.06887-.25791 4.17351.70994 1.99366 1.74655.19988 4.44346-1.83647 4.99422-.92718.25084-1.85265.21636-2.80445.21636-1.11103 0-2.35761.16048-3.42767-.1558.36785-1.5275.37108-4.09005 1.27412-5.38555.22864-.32805.71124-.42297 1.22299-.43577z"/>
    <path class="color-yellow" fill="#fbe74e" d="M166.84439 81.36267l-2.60149.16007-1.07996 2.956-2.14564 7.79015-5.45555 20.2544-3.05124 11.21782c5.41042.89275 11.36677.004 16.82673 0l3.58347-13.08746h11.84103c1.06569 0 3.55392.46176 4.43888-.16037.45494-.31924.48294-1.06502.61226-1.55346.34121-1.29644.68712-2.58509.97224-3.89508.30693-1.40815.71207-2.80741 1.06262-4.20668.0997-.39995.48759-1.20508.10743-1.55377-.6497-.59626-3.21422-.16007-4.07737-.16007-3.71278 0-7.8774.5221-11.52942-.1558.46117-1.29083.51254-4.29541 1.62498-5.15124.9613-.74006 3.29683-.30187 4.45134-.30187h11.84103l2.80445-12.15264h-23.99367zM45.83775 79.39536c-4.90244-.0134-9.78111 1.07588-14.07523 3.57069-3.07016 1.78379-5.70296 4.12768-6.84073 7.58901-1.83584 5.58507.87706 12.44627 6.52974 14.57002 2.26085.84959 5.04412.40118 7.16694 1.55833 1.0741.58567 2.04684 1.63294 1.39309 2.87719-1.04621 1.99178-3.89747 1.85659-5.75558 1.48469-2.55595-.51166-5.03289-1.07568-7.47855-2.051-1.58585-.63241-3.27251-1.74883-4.98569-1.92411-.36341 2.97958-1.80588 6.16404-2.70039 9.03658-.26438.84897-1.20623 2.68299-.69716 3.52261.4293.70797 1.88724 1.29765 2.61853 1.64384 2.49759 1.18207 5.21719 2.10348 7.94596 2.50015 7.5231 1.09374 15.68859.67715 22.27984-3.60416 2.35605-1.5303 4.57419-3.48144 5.75284-6.08819 2.63728-5.83264-.95504-13.1008-6.83738-15.20601-2.01609-.72152-4.40338-1.18711-6.23578-2.28957-.98296-.59128-1.73429-1.58597-1.16-2.74421.83495-1.68407 3.27213-1.82631 4.89684-1.71444 3.13429.21594 6.16638 1.83307 9.03658 2.9776 1.08875.43407 2.25136 1.13967 3.42767 1.21539.0561-2.63416 1.0809-5.70099 1.73574-8.25756.20348-.79491 1.01445-2.63866.59674-3.37685-.41662-.73679-1.49053-1.17868-2.17637-1.60885-2.34796-1.4725-5.07668-2.4702-7.79046-3.00804-2.18558-.43313-4.41881-.66704-6.64719-.67311zm90.94456-.04321c-4.94861-.03-9.93485 1.11561-14.13152 3.64098-2.77844 1.67192-5.32869 3.69427-6.60581 6.78291-2.40513 5.81753.53687 12.87077 6.23973 15.32561 2.2716.97782 4.9307.49856 7.16694 1.55194 1.13472.53456 2.1156 1.59357 1.46948 2.89483-.87078 1.75372-3.68094 1.94997-5.36455 1.67762-2.81193-.45494-5.61437-1.35386-8.25756-2.41099-1.46985-.58784-3.07758-1.66198-4.6741-1.74487-.18899 2.97397-1.76319 6.35427-2.67604 9.19238-.26361.81921-1.21787 2.69668-.61195 3.48427.42145.54765 1.44297.88332 2.04157 1.21082 2.24325 1.22743 4.70011 1.97466 7.16694 2.56375 9.78754 2.33736 25.53476.36291 29.77634-10.40137 2.48194-6.2985-2.67798-12.40728-8.11971-14.5262-1.80389-.70252-4.11714-.99073-5.64634-2.2345-.7181-.58411-1.40202-1.40396-.96951-2.3623.77979-1.72708 3.11651-1.90265 4.74621-1.88333 4.58591.0542 8.23871 3.66886 12.62005 4.20607.2887-2.89934 1.30958-5.87144 1.92563-8.72497.17434-.80831.90043-2.25797.40715-3.03542-.44855-.70719-1.62279-1.23296-2.33278-1.63867-2.08449-1.19112-4.22414-1.98604-6.54373-2.58323-2.45266-.63144-5.03431-.96962-7.62644-.98533z"/>
</svg>
