<svg xmlns="http://www.w3.org/2000/svg" viewBox="0 0 144.2 144.2">
    <circle cx="72.1" cy="72.1" r="70.2"/>
    <path fill="none" stroke="#fff" stroke-miterlimit="10" d="M72 111.6c-16.7 0-32.4-4-44.3-11.2C15.5 92.9 8.8 82.8 8.8 72s6.7-20.8 19-28.3c11.9-7.2 27.6-11.2 44.3-11.2s32.4 4 44.3 11.2c12.2 7.5 18.9 17.5 18.9 28.3s-6.7 20.8-19 28.3c-11.8 7.3-27.5 11.3-44.3 11.3z"/>
    <path fill="#fff" d="M33 60.8c-.4.1-.7.2-1.1.2-.3 0-.6-.2-1-.2-1.1-.1-2.1-.3-3.1-.2-4.3.6-7 3.2-8.6 7-1.4 3.2-1.1 6.4-.1 9.7 1.8 5.5 6.6 9.3 12.3 9.3 2.8 0 5.5-.7 7.9-2.4.2-.2.4-.3.6-.5-1 .4-1.9.9-2.8 1.2-2.9.9-5.8 1.1-8.6-.3-1.9-1-3.4-2.1-4.5-4-1.5-2.8-2.4-5.9-2.1-9.2.2-2.4.7-4.7 2-6.8 1.9-3.2 5-3.8 8-2.1.5.3 1 .7 1.4 1.1-.1-.9-.1-1.9-.3-2.8zm13.2 5.7v.2c.2.2.3.2.5.4.6.4.8.9.8 1.6-.1 3-.1 6-.2 9 0 1.3.1 2.5-.7 3.7v.1h2.3c-.2-.5-.4-1-.4-1.4 0-2.8.1-5.8.1-8.6 0-.3.1-.6.1-1.1 3.5 3.9 6.7 7.9 10.1 11.7.4-1.1.7-2.2 1.1-3.2.2-.3.2-.5-.2-.6-.2-.1-.5-.3-.5-.6-.2-.5-.3-1.1-.3-1.5 0-2.2.1-4.5.1-6.7 0-1 .2-1.8.9-2.5.1-.1.1-.2.1-.2h-2.7c0 .1-.1.1-.1.2.1.1.2.1.3.2.6.4.7.9.7 1.6-.1 1.9 0 3.9-.1 5.8 0 .6-.1 1.2-.1 1.9-.2-.1-.4-.2-.6-.4-2.3-2.7-4.5-5.3-6.7-8-.2-.2-.4-.6-.3-.9.1-.3-.1-.5-.4-.5h-1.7c-.7-.2-1.4-.2-2.1-.2z"/>
    <path fill="#fff" d="M44.5 77.4c-.7.6-1.4 1.4-2.1 1.8-.6.4-1.4.8-2.1.8-1.9.1-3.7 0-5.5.1-.5 0-.6-.2-.6-.6.1-1.9.1-4 .1-5.9 0-.4.2-.5.5-.5 1 .1 1.9.1 2.9.1s1.8.2 2.6.8c.2.1.2.2.4.2l.1-.1c-.4-1.1-.8-2.1-1.3-3.3-.2.3-.3.6-.5.7-.2.2-.4.4-.6.4h-3.8c-.3 0-.3-.2-.3-.4v-2.8c0-.4 0-.8.1-1.3h3.8c.8 0 1.6 0 2.4.1 1.1.2 1.9.7 2.8 1.5-.2-.8-.3-1.6-.6-2.4 0-.1-.3-.2-.5-.2H30.1c.3.3.6.5.8.7.4.4.6.8.6 1.4 0 3.2-.1 6.5 0 9.7 0 1-.2 1.9-.8 2.7-.1.1-.1.2-.2.3.2 0 .2.1.3.1 3.8.1 7.6.1 11.4.1.2 0 .4-.2.5-.4.5-1 1-1.9 1.4-2.9.2-.2.3-.4.4-.7zM102 91.1c.1 0 .2 0 .2.1-.2 3 .2 6-.3 9h2.6c-.2-.7-.4-1.4-.4-2v-5.7c0-.8.1-1.5.4-2.3.1-.2.2-.4.2-.6H101c.2.6-1.9 4.9-2.7 5.4-.5-1-1-1.9-1.4-2.8-.3-.8-1.1-1.5-.6-2.6H93c.3 3.6.2 7.1-.1 10.7h2.2c-.2-.3-.3-.5-.4-.7-.2-.3-.4-.7-.4-1.1 0-1.8 0-3.6.1-5.4 0-.1.1-.2.1-.3h.2c1.1 2.4 2.2 4.9 3.3 7.4.4-.5.7-.9 1.1-1.2.6-.6.6-1.1.2-1.8-.2-.3-.2-.6 0-1.1.6-1 1.1-1.9 1.5-2.8.4-.8.8-1.4 1.2-2.2zM77.4 69.6s.1 0 0 0c-.3-.9-.6-1.8-1.1-2.6-.1-.2-.3-.2-.5-.3h-12c-.3 0-.6.2-.6.5-.2.6-.6 1.2-.9 1.9-.1.2-.2.3-.2.5.2 0 .2-.1.3-.1 1.5-1.2 3.2-1.7 5.2-1.6.5 0 .6.2.6.6-.1 3.5-.2 7-.2 10.4 0 .9-.1 1.8-.6 2.5-.1.1-.1.2-.1.3h5c-.8-.7-1.2-1.5-1.2-2.5 0-3.6.1-7.1.1-10.7 0-.4.1-.6.6-.6.3.1.6 0 .9 0 1.2.1 2.3.1 3.3.7.5.3.9.7 1.4 1zm41.2 11.2v-4.4c0-2 .1-4.1.1-6.2 0-1.1.1-2.1 1.1-2.8v-.2h-5.4c.3.3.6.6.9.8.2.2.4.6.4 1 0 3.7 0 7.3-.1 11 0 .4-.2.8-.5 1.1-.2.3-.5.6-.8.9.2.1.3.1.4.1 1.7 0 3.5 0 5.2.1 2.2 0 4.4 0 6.6.1.3 0 .5-.1.6-.3.3-.6.6-1.1 1.1-1.8.2-.3.3-.6.5-1 0-.1-.1-.1-.1-.2-3.3 2.2-6.7 2.1-10 1.8zM63.5 54.4h-.2c-.5-1.3-.9-2.6-1.4-3.8-.2-.7-.5-1.4-.2-2.1 0 0 0-.1-.1-.2H59c.3.9.1 1.6-.2 2.4-.2.6-.4 1.1-.6 1.6-.3.7-.6 1.5-1.1 2.4-.1-.2-.2-.2-.2-.3-.5-1.5-1.1-3.1-1.5-4.6-.1-.3 0-.6 0-1 0-.2.1-.2.2-.5h-3.4c.2.2.3.4.4.6.2.3.4.7.6 1.1 1 3 1.9 5.9 2.8 8.9.1.2.2.6.3.8.6-.8 1.1-1.5 1.5-2.3.1-.1 0-.2-.1-.3-.3-.6-.3-1.2 0-1.9.4-.9.7-1.8 1.1-2.6.2-.6.5-1.2.8-1.9 1.1 3.2 2.1 6.2 3.1 9.2.6-.9 1.2-1.7 1.8-2.6l-.2-.2c-.5-.6-.6-1.1-.3-1.8.6-1.7 1.3-3.5 1.9-5.3.2-.6.5-1.2 1.1-1.5v-.1h-1.5c-.3 2.1-1.4 4-2 6zm45.9-.4c.2.2.3.4.4.6.6 1.1 1.3 2.3 1.9 3.5.2.4.2.9.2 1.3s.1.5.4.5h3.1c-.4-.5-.8-.9-1.1-1.3-1-1.8-1.8-3.7-2.8-5.4-.4-.7-.5-1.2.2-1.9.6-.6 1.2-1.4 1.9-2.1.2-.2.3-.2.6-.5h-1.9c-.2.5-.3.9-.6 1.2-.9 1.1-1.9 2.3-2.8 3.4-.5.5-.9 1-1.5 1.6v-3.7c0-.8-.1-1.7.7-2.4h-3.2c.1.2.1.3.2.4.3.5.4 1 .4 1.5-.1 2.1-.1 4.2-.1 6.4 0 .9 0 1.9-.6 2.7v.2h3.2c-.2-.4-.5-.8-.6-1.2-.3-.7-.4-1.5-.1-2.2.6-1 1.4-1.8 2.1-2.6zM68.1 89h-1.4c-1.1-.1-2.1-.2-3.2-.2-1.5.1-2.4 1-2.8 2.3-.3 1.4.1 2.8 1.2 3.5.6.4 1.4.6 2 .9.6.2 1.3.4 1.9.6 1 .5 1.1 1.5.2 2.2-.2.2-.5.3-.7.3-1.3.2-2.4 0-3.5-.7-.2-.2-.5-.4-.8-.6v2.3c.7.2 1.5.2 2.2.4 1.3.2 2.5.2 3.7-.3 1.3-.6 2-1.6 2-3 0-1.3-.6-2.3-1.9-2.8-.5-.2-1.1-.4-1.6-.6s-1.1-.4-1.6-.7c-.6-.4-.9-1-.7-1.5.2-.7.8-1.2 1.5-1.2.5 0 1.1.2 1.5.4.6.3 1.3.7 1.9 1.1.1-.9.1-1.7.1-2.4zM40 97c0 .4.1.8.1 1.3.1.6.2 1.1 1.1 1.3 1.5.4 2.8.7 4.4.2 1.9-.6 3-2.8 2.3-4.5-.5-1.2-1.5-1.7-2.7-2.1-.6-.2-1.3-.5-1.9-.8-.6-.2-.8-.7-.7-1.3.1-.6.5-1 1.1-1.1.6-.2 1.3-.2 1.9.2.6.3 1.1.7 1.9 1.1-.1-.7-.1-1.4-.2-1.9-1-.2-1.8-.2-2.7-.4-1.9-.3-3.2.4-4 2-.7 1.5-.4 2.6.9 3.5.6.4 1.5.8 2.2 1.1.6.3 1.2.6 1.7 1 .6.5.6 1 .1 1.5-.4.5-.9.8-1.5.8-1.1.1-2-.2-2.8-1-.7-.4-1-.6-1.2-.9zm44.9-6.4c1.7-.2 3.3 0 5 .5V90c0-.4-.2-.6-.6-.6-1.5 0-3.1-.1-4.6-.1h-2.4c.6 3.7.5 7.1 0 10.7h.1c2.3.1 4.5.1 6.9.1.1 0 .3-.1.3-.2.2-.6.5-1.2.8-1.9-1.9.5-3.7.5-5.5.3v-3.2c0-.3.2-.4.4-.4.5 0 1.1-.1 1.5 0 .7.1 1.5.2 2.2.2-.2-.5-.3-.9-.5-1.3-.1-.3-.2-.4-.6-.3-.9.1-1.8.2-2.7.2-.4 0-.5-.2-.5-.5.2-.7.2-1.6.2-2.4zm-47-35c-.2-.2-.3-.3-.4-.5-1.9-2.2-3.7-4.4-5.5-6.5-.2-.2-.3-.3-.5-.3-.6-.1-1.1 0-1.8 0 .2.2.2.4.4.6.5.6.7 1.2.6 1.9-.1 1.6-.2 3.2-.2 4.9 0 1.2.1 2.4-.6 3.4v.2h1.9c-.2-.6-.4-1.4-.4-2-.1-1.5 0-3 0-4.5v-.9c.1 0 .1-.1.2-.1 2.4 2.8 4.8 5.5 7.2 8.3.2-1 .5-1.8.7-2.8-.6-.2-.6-.9-.6-1.5 0-1.1-.1-2.2 0-3.3.2-1.4-.4-2.9.6-4.3h-1.7c.2.5.4.9.4 1.3 0 1.8-.1 3.6-.1 5.4-.1.2-.2.4-.2.7zm10-4c-.9.9-1.6.9-2.7.8-.1 0-.3-.2-.3-.3v-2.6c0-.3.2-.4.5-.4.8 0 1.6-.1 2.4 0 .6.1 1.3.3 1.9.5.2.1.3.2.5.3 0-.6.1-1.1.1-1.6h-8.2c.1.2.2.3.2.4.4.4.5 1 .5 1.6-.1 2.4-.2 4.8-.2 7.2 0 .4-.1.8-.4 1.1-.2.2-.5.5-.9.8h11.3c-.8-1-1.5-1.9-2.4-3 0 .7-.1 1.3-.1 1.9 0 .3-.2.4-.4.4-1.5-.1-3-.1-4.5-.2-.4 0-.5-.2-.5-.6.1-1.5.1-2.9.1-4.4 0-.4.2-.5.6-.5 1.1 0 2.3 0 3.4.5-.2-.5-.5-1.2-.9-1.9zm29 48.4c-.1-.2-.2-.3-.3-.5-.6-.7-.8-1.5-.7-2.5.1-1.1.1-2.3.1-3.4v-3c1.5-.1 2.9.2 4.3.8-.2-.6-.3-1.1-.5-1.6-.1-.4-.3-.6-.7-.6h-2.3c-1.9 0-3.7 0-5.6-.1-.2 0-.4 0-.5.1-.4.6-.7 1.2-1.1 1.8.2.1.4.1.5 0 1-.4 1.9-.6 3-.5.4 0 .6.2.6.6 0 1.5-.1 3.1-.1 4.6 0 1.3.1 2.7-.6 4v.2c1.4.1 2.6.1 3.9.1zm2.6-51.6c-.2.9-2.4 3.7-3.4 4.3-.6-.9-1.3-1.7-2-2.6-.4-.5-.7-1.1-.6-1.8h-3.7c.2.2.2.3.4.5l3.9 4.8c.2.2.3.5.3.7 0 .9 0 1.9-.1 2.8-.1.8-.2 1.5-.3 2.4h3.1c-.2-.5-.3-1-.3-1.5 0-1.4 0-2.7.1-4.1 0-.3.2-.6.3-.9 1-1.1 1.9-2.3 3-3.5.3-.4.7-.9 1-1.2-.6.1-1 .1-1.7.1zM52.2 89h-4c.3.3.6.5.9.6.2.2.5.3.6.6.9 1.1 1.7 2.3 2.5 3.4.2.2.2.5.2.7-.1 1.8.2 3.5-.4 5.4h2.9c-.1-.6-.2-1.1-.2-1.6 0-1.2 0-2.4.1-3.6 0-.2.1-.5.2-.7 1.3-1.5 2.3-3.4 4.1-4.6h-2.8c.1 1.7-1.2 2.6-2.1 3.9-.7-1.5-2.1-2.3-2-4.1zm40-8.6c-.9-1.7-1.7-3.4-2.5-5.1-.2-.4-.4-.9-.6-1.4.4-.1.7-.2 1-.2 1.4-.2 2.5-.7 3.4-1.9.6-.8.7-1.6.3-2.6-.4-.9-1.3-1.4-2.1-1.8-1.4-.6-2.9-.6-4.4-.6-1.8 0-3.6-.1-5.4-.1h-2.6c.2.2.4.4.5.6.2.5.6.9.6 1.4 0 2.9 0 5.9-.1 8.8-.1 1.4.3 2.9-.8 4.1v.2h4.8c-.3-.2-.6-.4-.7-.6-.2-.3-.5-.7-.5-1.1v-5.4c0-.3.1-.5.5-.5h1.9c.4 0 .6.2.8.5.9 1.8 1.9 3.7 2.8 5.4.2.6.4 1.1.6 1.9h3.8c-.4-.5-1-.9-1.3-1.6zm-4.4-8.2c-1.5 1.1-3.1.9-4.8.8v-5h3.4c.7 0 1.5.2 2.3.3.2.1.5.2.7.2.7.4 1.3 1.1 1.2 1.9 0 .9-.6 1.6-1.4 2-.4.4-1 .3-1.4-.2zm18.8 9.8h5.1c-.2-.5-.6-.9-.8-1.4-1.9-4.5-4-9-5.9-13.6-.2-.6-.5-1.1-.7-1.6-.1.2-.2.2-.2.2-.4 1-.9 1.9-1.7 2.5-.1.1 0 .3 0 .5s.1.6 0 .8c-.5 1.1-1 2.1-1.5 3.2-.3.7-.7 1.4-1.1 2.2-.3-.2-.6-.3-.9-.5-1-.6-1-.6-1.5.4-.2.6-.6 1.1-.8 1.7.6.2 1.2.2 1.8.4.2.1.4.2.2.5-.7 1.5-1.1 3.1-2.5 4.1-.1.1-.2.2-.3.4h3.3c-.9-.6-.6-1.3-.2-2 .3-.6.6-1.3.9-1.9.2-.3.3-.4.6-.2.6.3 1.1.6 1.5 1.1.4.3.7.6 1.1 1.1.8-1.1 1.5-2.4 2.8-3.1.2.2.2.4.4.6.4.8.7 1.6 1.1 2.4.2.4.2.7 0 1.1-.2.2-.4.6-.7 1.1zm-1.8-6.2c-.7.9-1.5 1.7-2.1 2.6-.7-.8-1.5-1.6-2.3-2.5-.1-.1-.1-.2 0-.2.6-1.6 1.4-3.2 2.2-5 .2.3.3.5.4.6.6 1.3 1.2 2.7 1.8 4 .1.2.1.4 0 .5zM101 53.4c.8-.2 1.5-.7 1.9-1.5.5-.9.3-1.9-.5-2.4-.6-.5-1.5-.8-2.3-.9-2-.1-4.1-.1-6.1-.1h-.7c.1.2.1.2.2.3.3.4.4.9.3 1.5-.1 2.4-.2 4.7-.2 7.1 0 .7-.2 1.3-.6 1.9-.1.1-.2.2-.2.4h3.6c-.2-.4-.6-.9-.6-1.4-.1-1.4 0-2.8 0-4.2 0-.3.2-.5.4-.4.4 0 .7.1 1.1 0 .4 0 .6.1.7.4.4.9.8 1.8 1.2 2.8.3.8.6 1.7.9 2.5.1.2.2.3.3.3h2.4c-1.1-2-2-4-3-6.1.6-.1.9-.1 1.2-.2zm-5.3-.1v-3.2c0-.1.2-.3.3-.3 1.1 0 2.2 0 3.2.2.9.1 1.4.6 1.5 1.4.1.7-.4 1.5-1.3 1.7-1.1.3-2.4.2-3.7.2zm-4-1.6c-.7-2-2.3-3.2-4.4-3.6-2-.3-3.7.4-5 1.9-1.1 1.3-1.4 2.8-1.2 4.5.2 2.2 2.1 4.4 4.2 4.9 2.5.7 6.7-1.3 6.7-5.6-.1-.6-.1-1.3-.3-2.1zm-2.3 1.9c0 1.5-.1 2.8-.8 4-.6.9-1.3 1.5-2.4 1.4-1.1 0-1.9-.6-2.4-1.5-.8-1.6-.8-3.3-.4-5 .2-.5.3-1.1.6-1.5 1.1-1.6 3.5-1.5 4.7.1.6.8.8 1.7.7 2.5z"/>
</svg>
