<svg xmlns="http://www.w3.org/2000/svg" viewBox="0 0 144 144">
    <circle cx="72" cy="72" r="70.2"/>
    <path d="M72.5 8.6L8.6 72.5c20.9 20.9 42.4 41.4 63.9 62.9 22.8-22.1 41.9-41.3 62.9-62.9-21.6-23.1-38.9-39.9-62.9-63.9z"/>
    <path d="M72.5 135.8l-.2-.2c-11-11.1-22.2-22-33.1-32.6-10.1-9.9-20.6-20.1-30.8-30.3l-.2-.2L72.5 8.2l.2.2c5 5 9.8 9.7 14.3 14.3 16.9 16.8 31.5 31.4 48.6 49.6l.2.2-.2.2c-24.4 25.1-42.7 43.3-62.9 62.9l-.2.2zM9.1 72.5c10.1 10.1 20.5 20.2 30.6 30.1C50.5 113.1 61.6 124 72.6 135c20.1-19.4 38.2-37.6 62.5-62.5-17-18.1-31.5-32.6-48.4-49.4L72.6 9 9.1 72.5z"/>
    <path fill="#d2c535" d="M129.6 72.5c-19.6-20.9-35.3-36.2-57-57.9-19.4 19.3-38.7 38.6-58 57.9 19 19 38.5 37.5 57.9 57 20.7-20 38-37.4 57.1-57zm-61.9 33c-23.7-3.6-36.2-31-23.3-51.1 13.2-20.4 42.8-20.7 56.1-.7 4.7 7.1 6.7 16.7 5.1 24.9-1.6 8.3-7.7 17.3-14.9 21.9-6.2 4-15.8 6.1-23 5zm-9.1-17.3s0-1.5.1-3.7h-6.6c-.1-4.7-.2-6.2 0-10.2h6.4c-.1-1.5.2-2.5.1-4.3h-6.5c.1-3.3-.1-6.6 0-9.8h6.5c.1-1.8.1-2-.1-4.2H48.2c-.3 11-.4 25.4-.3 32.1 4.3 0 10.7.1 10.7.1zm8-13.8H72c.1 6 .1 7.1.1 13.8 1.3.1 2 0 3.5 0 0 0-.1-3.6 0-7.6-.3-6.6.8-7.4-1.8-7.9 2.1-.7 1.9-2.1 1.8-8.4 0-8.6.2-8.3-7.5-8.3h-4.9l-.3 32.1h3.6c0-6.7.1-15.6.1-13.7zm-.1-14.2h5.7s-.1 5.8 0 9.8h-5.6c0-3.8-.1-5.6-.1-9.8zm16.8-4.1h-3.4c.1 10.9.2 32 .2 32h3.2c0-10.9.2-21.1 0-32zm14.7 32v-3.6h-5.9c0-3.3-.1-6.8-.1-10.2h5.9c0-1.9.1-2.1 0-4.2H92c.1-4.2.1-5.3 0-10.2 3.4-.1 3.8-.1 6 0V56H87.9c-.2 12.1-.1 12.9.1 32.1h10z"/>
    <path fill="#fff" d="M58.6 88.2s0-1.5.1-3.7h-6.6c-.1-4.7-.2-6.2 0-10.2h6.4c-.1-1.5.2-2.5.1-4.3h-6.5c.1-3.3-.1-6.6 0-9.8h6.5c.1-1.8.1-2-.1-4.2H48.2c-.3 11-.4 25.4-.3 32.1 4.3 0 10.7.1 10.7.1zm17-7.6c-.3-6.6.8-7.4-1.8-7.9 2.1-.7 1.9-2.1 1.8-8.4 0-8.6.2-8.3-7.5-8.3h-4.9l-.3 32.1h3.6V74.3h5.4c.1 6 .1 7.1.1 13.8 1.3.1 2 0 3.5 0 .1.1 0-3.5.1-7.5zm-3.4-10.5h-5.6c.1-3.8 0-5.6-.1-9.8h5.7s-.1 5.8 0 9.8zm11.1-14h-3.4c.1 10.9.2 32 .2 32h3.2c0-10.9.2-21.1 0-32zm14.7 32v-3.6h-5.9c0-3.3-.1-6.8-.1-10.2h5.9c0-1.9.1-2.1 0-4.2H92c.1-4.2.1-5.3 0-10.2 3.4-.1 3.8-.1 6 0V56H87.9c-.2 12.1-.1 12.9.1 32.1h10z"/>
</svg>
