<svg xmlns="http://www.w3.org/2000/svg" viewBox="0 0 144 144">
    <circle fill="#71bf44" cx="72" cy="72" r="70.2"/>
    <path fill="#010101" d="M40.7 14.6v8.6h17.9v97.6H40.7v8.6H75c5.9 0 10.6-4.7 10.6-10.6V74.2c0-3.4-2.8-6.2-6.2-6.2 3.4 0 6.2-2.8 6.2-6.2V25.2c0-5.9-4.7-10.6-10.6-10.6H40.7zm26.2 8.6h5.8c2.8 0 5.1 2.3 5.1 5.1v30.3c0 2.8-2.3 5.1-5.1 5.1h-5.8V23.2zm0 49.2h5.8c2.8 0 5.1 2.3 5.1 5.1v38.3c0 2.8-2.3 5.1-5.1 5.1h-5.8V72.4z"/>
    <path fill="#fff" d="M14.3 54v7.7h17.6v20.4H14.3v7.7h44.5v-7.7H39.6V61.7H41l26.3 28.1h9.5l26.3-28.1h1.4v20.4H85.2v7.7h44.5v-7.7h-17.6V61.7h17.6V54h-30L72 83.7 44.3 54h-30z"/>
    <path fill="#010101" d="M129.7 90.3H85.2c-.2 0-.5-.2-.5-.5v-7.7c0-.2.2-.5.5-.5H104V62.2h-.7l-26.2 28c-.1.1-.2.1-.3.1h-9.5c-.1 0-.2-.1-.3-.1l-26.2-28H40v19.5h18.7c.2 0 .5.2.5.5v7.7c0 .2-.2.5-.5.5H14.3c-.2 0-.5-.2-.5-.5v-7.7c0-.2.2-.5.5-.5h17.1V62.2H14.3c-.2 0-.5-.2-.5-.5V54c0-.2.2-.5.5-.5h30c.1 0 .2.1.3.1L72 83l27.4-29.3c.1-.1.2-.1.3-.1h30c.2 0 .5.2.5.5v7.7c0 .2-.2.5-.5.5h-17.1v19.5h17.1c.2 0 .5.2.5.5V90c0 .1-.2.3-.5.3zm-44-.9h43.6v-6.8h-17.1c-.2 0-.5-.2-.5-.5V61.7c0-.2.2-.5.5-.5h17.1v-6.8H99.9L72.3 84c-.1.1-.2.1-.3.1-.1 0-.2-.1-.3-.1L44.1 54.5H14.7v6.8h17.1c.2 0 .5.2.5.5v20.4c0 .2-.2.5-.5.5H14.7v6.8h43.6v-6.8H39.6c-.2 0-.5-.2-.5-.5V61.7c0-.2.2-.5.5-.5H41c.1 0 .2.1.3.1l26.2 28h9.1l26.2-28c.1-.1.2-.1.3-.1h1.4c.2 0 .5.2.5.5v20.4c0 .2-.2.5-.5.5H85.7v6.8z"/>
    <path fill="#010101" d="M40.7 14.6v8.6h17.9v40.4l8.3 9v-.3h5.8c2.8 0 5.1 2.3 5.1 5.1v38.3c0 2.8-2.3 5.1-5.1 5.1h-5.8V97.6l-8.3-.2v23.4H40.7v8.6H75c5.9 0 10.6-4.7 10.6-10.6V74.2c0-3.4-2.8-6.2-6.2-6.2 3.4 0 6.2-2.8 6.2-6.2V25.2c0-5.9-4.7-10.6-10.6-10.6H40.7zm26.2 8.6h5.8c2.8 0 5.1 2.3 5.1 5.1v30.3c0 2.8-2.3 5.1-5.1 5.1h-5.8V23.2z"/>
</svg>
