<svg xmlns="http://www.w3.org/2000/svg" viewBox="0 0 144 144">
    <circle fill="#00548f" cx="72" cy="72" r="70.2"/>
    <path fill="#fff" d="M71.3 6.4h.7c14.5 0 27.8 4.8 39.9 14.3 5 4.4 8.6 8.1 10.9 11.4 8.9 12.3 13.4 25.5 13.4 39.6v1.6c0 14.7-4.8 28.3-14.4 40.9-4 4.8-7.8 8.5-11.2 11-8.1 6.1-16.8 10.2-26 12.1-4.4.8-8.4 1.2-12.2 1.2h-2c-13.1 0-25.6-4.3-37.6-12.8-2.3-1.7-5.1-4.2-8.3-7.5-6.1-6.9-10.5-13.8-13.1-20.7-3.2-8.1-4.8-16.2-4.8-23.9v-2c0-12.9 3.8-25.2 11.6-37 1.9-2.8 4.8-6.2 8.9-10.2 4.9-4.5 9-7.6 12.5-9.4 10.2-5.7 20.6-8.6 31.7-8.6zm-59.2 66c.1 2.6.2 4.9.5 7.1 55 .2 94.4.2 118.1.2.3-2 .5-4.2.5-6.5v-1.5c0-12.3-3.7-23.9-11.3-35-1.5-2.2-4.2-5.4-8.1-9.4-11.9-10.5-25.3-15.7-39.9-15.7h-.4c-14.7 0-27.9 5.2-39.6 15.6-4.1 4-6.6 6.8-7.6 8.3-8.2 11.1-12.2 23.4-12.2 36.9zm1.3 12.4c.8 3.6 1.8 7 2.9 10 1.7 4.5 4 8.7 6.7 12.8 1.6 2.5 4.5 5.7 8.5 9.8 2.5 2.2 3.9 3.4 4.2 3.4h72c4.1-3.2 8-7 11.5-11.7 2.8-4 4.8-7.5 6-10.3 1.5-2.8 3.1-7.4 4.6-13.8l-116.4-.2zm21.5 2.5h16.7c2 0 3.8 1 5.5 2.9.8 1 1.1 2.1 1.1 3.4v.1c0 2.8-1.2 4.9-3.6 6.2 1.4 0 3.2.8 5.3 2.4 1.6 1.6 2.4 3.5 2.4 5.8v.7c0 3.3-2.1 5.8-6.3 7.9-1.4.5-2.7.7-3.6.7H35c-.1 0-.2-.1-.2-.2v-.8c0-.1.5-.2 1.3-.4.9-.7 1.3-1.5 1.3-2.5V92.2c0-1.7-.7-3-2-3.6-.4-.1-.6-.3-.6-.4v-.8c-.1-.1-.1-.1.1-.1zm7.2 37.7c9.4 5.5 19.3 8.1 29.6 8.1 10.2 0 20.1-2.7 29.7-8v-.1H42.1zM44 90.4v8.7h2.1c2.8 0 4.4-1.1 5.1-3.2.1-.3.1-.6.1-.8v-.5c0-1.8-1-3.2-3-4.1-.6-.1-1-.2-1.3-.2 0 .1-3 .1-3 .1zm0 12.1v10.6h5.7c2.3 0 3.9-1.4 4.9-4.2l.1-1.2c0-2.4-1.3-4-4-5.1-.6-.1-1.3-.2-2.2-.2l-4.5.1zm26.2-28h3c7.7 0 16 1.2 25.1 3.8v.2H45.9v-.2c8.5-2.5 16.5-3.8 24.3-3.8zm1.6-14.2c7.6 0 14.9 1.4 22 4.3.3 0 .5.5.8 1.3.3.1.7.4 1.2 1v.6c0 .2-.3.7-.9 1.3 0 .1-.1.3-.3.4-1.1-1.1-3.3-2.2-6.4-3.2-5.7-1.5-10.6-2.3-15.1-2.3h-2.2c-7.1 0-13.7 1.3-19.9 4.1L49.4 69c-.6-.9-.9-1.4-.9-1.6V67c0-.2.3-.6.8-1.3 0-.3.3-.8 1-1.4 7-2.6 14.1-4 21.5-4zm-20.2 8v7.2c0 .1-.5.2-1.5.5l-.1-.2v-6.1c.7-.9 1.3-1.4 1.6-1.4zm19.1-20.7h2c5.1 0 10.2 1.1 15.2 3.4.1.2.2.4.2.7h.5l.6.7c.3 0 .5.3.6.9.3.1.8.9 1.3 2.2.6.5.9.9.9 1.3v.4c0 .7-.3 1.1-.9 1.7-.4-1.1-1-1.8-1.8-2.2-5.6-2.7-11.3-4-16.7-4h-1.8c-5.8 0-11.5 1.4-17 4.3-.5.4-.8 1-1 1.8-.6-.6-.9-1.2-.9-1.9s.4-1.3 1.1-1.9c0-.9.3-1.5 1-2 0-.5.2-.8.6-1 .1-.3.5-.5 1.1-.8 0-.6 3-1.6 8.8-2.9 2-.4 4.1-.7 6.2-.7zM55.5 66.8l.1 7.7c0 .3-.9.5-2.7.8v-7.5c.1-.3 1-.7 2.6-1zM54 57.9h.2v3l.1 1.1c-.2.1-.6.3-1.1.4l-.1-.2V60c0-.4.3-1.1.9-2.1zm3.6-1.7l.1.2V61c0 .1-.8.3-2.3.7-.1-.3-.2-.6-.2-1.1v-3.1c0-.2.8-.6 2.4-1.3zm4.7-16.8c-2 2.3-3.5 5.6-4.5 9.8-.2 0-.7.2-1.5.6h-.1c.9-3 1.8-5.3 2.8-6.9 1.4-2 2.4-3.2 3.3-3.5zm-2.1 26.1s.1.1 0 0v8.2c0 .2-1.1.5-3.3.8l-.1-.2v-7.8c.2-.2 1.4-.6 3.4-1zm5.5-27.4c-1.9 2.1-3.3 5.2-4 9.1-.1.8-.4 1.1-1.1 1.1l-1.7.5-.1-.1c0-.7.7-2.7 2.1-5.9 1.7-2.7 3.2-4.2 4.8-4.7zm-3.4 16.5l.1.2c.1 2.6.1 4.3.1 5.3-1.5.3-2.8.6-3.5.8v-5.1c0-.1 1.1-.5 3.1-1.1l.2-.1zm3.3 10.1l.1.2v8.2c0 .1-.1.1-.3.2-.7 0-1.8.1-3.6.4l-.1-.2v-8c-.1-.3 1.3-.5 3.9-.8zm2.7-27.6l.1.2c-1.3 3.4-2.1 6.1-2.2 7.9-.2 1.3-.4 2-.5 2l-3.4.5c0-.1 0-.1-.1-.1.6-2.4 1.3-4.4 2-6.1 1.3-2.7 2.2-4 2.7-4 .3-.1.8-.2 1.4-.4zM68 53.7l.1.2v5.5c0 .2-1.1.4-3.4.6h-.8c-.1-2-.1-3.4-.1-4.4v-1.1c0-.2 1.4-.5 4.2-.8zm3.6-27.3h.9c1.8.2 2.7.7 2.7 1.3v5.7c.6 0 .9.5.9 1.3 1.1.4 1.7.7 1.8.9v.8l.8.8v.3c0 .1-.1.1-.2.1-2.2-.9-4.4-1.3-6.5-1.3-2.1 0-4.3.5-6.5 1.3l-.1-.1v-.3c.5-.4.8-.7.8-1.1 0-.6.6-1 1.6-1.3 0-.9.3-1.3.8-1.3l.1-.2c0-4 .2-6 .6-6 .3-.7 1.2-.9 2.3-.9zM73.7 92c3 0 5.1 1.2 6.5 3.6.1.6.2 1.1.3 1.6 0 2.1-1 3.6-2.8 4.7 1.7 1.8 2.9 3.7 3.5 5.7h.1c.9-.8 1.4-1.1 1.8-1.1h.1l1 2.7c-.3 0-1 .7-2 2 .5 1.8 1.1 2.7 2.2 2.7h.2l1.1-.1c.4 1.1.6 1.9.6 2-.8.9-1.8 1.3-3 1.3h-.2c-1.1 0-2.1-.9-3.1-2.6-1.9 1.9-4 2.8-6.3 2.8-3.2 0-5.7-1.5-7.4-4.6-.5-1.1-.8-2.1-.8-3.3v-.4c0-3.1 1.6-5.5 4.8-7.1.4-.1.6-.3.6-.4-1.9-.7-2.9-2.1-2.9-4.4s1.1-3.9 3.4-4.9c.7-.1 1.5-.2 2.3-.2zm-2.8-55.1h.3l.1.1c-.1 1-.1 3-.2 6.1.1 1.7.1 2.9.1 3.4-.4.1-1.8.3-4.2.4l-.1-.2c0-3.1.9-6.3 2.5-9.9.7.1 1.2.1 1.5.1zm-.3 27.5c.2.1.3.1.3.2V73c0 .1-.1.2-.2.2H70c-.7 0-1.5 0-2.8.1 0-.1 0-.1-.1-.1-.1-2.6-.1-4.4-.1-5.7v-2.8c0-.2 1.1-.3 3.6-.3zm1.1-41.8h.7c.5 0 .7.2.7.5s.2.7.7 1c0 .7.6 1.2 1.8 1.8.6.3.9.6.9 1v.1c0 .5-.1.7-.3.7h-.3c-.1-1-1.3-1.5-3.5-1.7h-1c-1.7 0-3 .6-3.5 1.7-.3-.1-.4-.3-.4-.8v-.1c0-.8.6-1.2 1.7-1.5.3 0 .8-.6 1.7-1.8v-.8c-.2 0 .1-.1.8-.1zM69 28.4v3.4h.6v-3.4H69zm1.2 25.1h2.7c.7 0 1 .1 1 .3v.4c0 1.1 0 2.9-.1 5.2l-.2.1H70c-.1 0-.2-.1-.2-.2v-5.5c0-.2.1-.3.4-.3zM72 14.6c.5 0 .8 1 .8 3 .1 0 .1.2.1.7v.9c0 .1-.1.5-.3 1.2v.3c0 .1.3.6.8 1.3v.1h-2.8c-.1 0-.2-.1-.2-.2l1-1.2c-.3-.6-.4-1.1-.4-1.7v-.6c0-.5.2-.9.6-1.4-.2-.9-.3-1.3-.3-1.4-.1-.7.2-1 .7-1zm-1.6 12.9v3.8h.6v-3.8h-.6zm0 81.3c0 1.7 1.1 3 3.4 3.9.3 0 .7 0 1 .1 1.4 0 2.7-.8 3.6-2.4-.4-1.8-1.5-3.7-3.5-5.9-.3-.3-.6-.5-.7-.5-2.5 1.2-3.8 2.7-3.8 4.8zm2-71.9c1.2 0 1.9.2 1.9.6.7 1.5 1.2 3.6 1.7 6.1.3 1.7.4 2.9.4 3.4h-.1c-2.1-.1-3.4-.3-3.8-.4l.1-1.1v-2.2c0-2.2-.1-4.4-.4-6.3.1-.1.2-.1.2-.1zm0-9.5v3.8l.6.1v-3.7c-.3 0-.4 0-.6-.2zm0 70.3c.4 1.4 1.2 2.1 2.7 2.1h.2c1.8-.3 2.7-1 2.7-2.1v-.1c0-1.1-.8-1.7-2.3-2H75c-1.7.2-2.6.8-2.6 2.1zm.3-33.3c2.9.1 4.3.3 4.3.5v8.2c0 .1-.1.2-.2.2-1.5-.1-2.9-.1-3.9-.1h-.2c-.1 0-.2-.1-.2-.2v-8.4l.2-.2zm1.2-36.2c-.1 1.4-.1 2.6-.1 3.4v.2h.6v-3.5l-.5-.1zm1.4 9.1c1.1 0 2 .8 2.7 2.2.9 1.1 1.7 3 2.4 5.5.3 1.5.5 2.4.5 2.6l-.2.1c-1.8-.3-2.9-.6-3.3-.7 0-2.4-.6-5.6-2.1-9.7zm.3 16.4c2.6.3 3.9.6 3.9.8v5.3l-.1.2c-1.6-.3-2.9-.4-3.8-.4l-.1-.2v-5.5l.1-.2zm2.9-15.1c2.5 2 4 3.8 4.7 5.5 1 2.2 1.5 3.7 1.5 4.7-.1 0-.1 0-.1.1-1.7-.5-2.6-.7-2.6-.9 0-1.7-.8-4.1-2.2-7.4l-1.3-2zm.2 26.2c2.4.3 3.6.6 3.6.7v8l-.1.2c-2.4-.3-3.6-.4-3.6-.5V65l.1-.2zm2.5-10.2c2.2.6 3.3 1 3.3 1.1v4.8l-.1.2c-.7-.2-1.8-.5-3.4-.8v-5.2s.1-.1.2-.1zm.5-14.5c2.5 1.5 4.3 4.4 5.6 8.6.1.5.2.9.2 1.1h-.1c-1.2-.4-1.9-.8-1.9-1.1-.7-3.1-1.6-5.7-3.1-7.8-.2 0-.4-.2-.7-.8zM84 65.8c2 .5 3.1.7 3.1.9v7.7l-.1.1c-.1-.1-1.1-.3-3.1-.6l-.1-.2V66l.2-.2zm2-9.6c1.5.7 2.4 1.1 2.4 1.2v4l-.1.2c-1.6-.4-2.4-.6-2.4-.8v-4.5s0-.1.1-.1zm14.8 31c5 0 9 2.5 12.1 7.6 1.1 2.4 1.8 4.8 1.8 7.1v.5c0 4.9-1.9 8.9-5.7 12.1-2.4 1.8-5.2 2.7-8.2 2.7-4.9 0-8.8-2.5-12-7.6-1.1-2.4-1.8-4.9-1.8-7.3 0-4.7 1.9-8.7 5.8-12.1 2.6-2 5.2-3 8-3zM88.6 66.8c1.8.6 2.7.9 2.7 1.1v7c0 .1-.1.2-.2.2-1.7-.3-2.6-.6-2.6-.7V67l.1-.2zm1-8.9c.8 1.1 1.1 1.7 1.1 2v2.3c-.9-.1-1.3-.3-1.3-.5V58c.1-.1.1-.1.2-.1zm2.9 10.6c1.1.8 1.7 1.4 1.7 2v5.2c0 .1-.1.2-.2.2-1-.2-1.5-.4-1.5-.5v-6.9zm2 33.6c0 4.4 1.1 7.7 3.3 9.8 1 .8 2 1.2 3.2 1.2 3.5 0 5.7-3 6.3-8.9.1-1.1.1-1.9.1-2.2 0-5.4-1.5-8.9-4.7-10.5-.7-.1-1.2-.2-1.8-.3-3.2 0-5.2 2.5-6.1 7.5-.2.9-.2 2.1-.3 3.4z"/>
</svg>
