<svg xmlns="http://www.w3.org/2000/svg" viewBox="0 0 144 144">
    <circle fill="#d1232a" cx="72" cy="72" r="70.2"/>
    <g fill="#fff">
        <path d="M108.2 39.1c-6.9 0-9.7-.1-11.8-.5-3.2-.6-5.7-1.3-7.1-2-.7-.3-.8-.3-.9.4-.1.8-.7 2-1.2 2.6s-1.5 1.2-2.4 1.5c-1.5.5-4.1-.2-5.2-1.5-.5-.6-1-1.7-1.2-2.5-.2-1.1.1-2.6.9-3.8.2-.3.3-.6.3-.6 0-.1-.2-.3-.6-.5-.3-.2-1.2-.8-2-1.4s-2-1.4-2.7-1.9-1.6-1.1-2.1-1.4-.9-.6-1-.5c-.1 0-.8.6-1.6 1.2s-2.4 1.7-3.5 2.5c-2.7 1.8-2.5 1.6-2.2 2s.7 1.1 1 2c.2.5.2.9.2 1.8-.1 1.2-.1 1.4-.8 2.3-1 1.4-2.2 2-4 2.1-1 0-1.2 0-1.9-.4-1.4-.7-2.6-2.1-2.9-3.4-.2-.8-.1-.8-3.1.4-.1.1-.6.2-1 .3s-1 .3-1.2.3c-.8.2-3.4.7-5.1.9-3.1.3-5.5.4-10.9.4-3.2 0-5.8 0-5.8.1s.1.3.4.5c.5.4 1.2 1.1 3.3 3.1l1 1v24c0 26.1 0 24.6.7 27.7.3 1.4.4 1.8 1.1 3.4.6 1.6 1.7 3.8 2.4 5.1 1.6 2.5 2.1 3.2 3.6 4.6 1.4 1.4 2.1 2 3.6 3.2.7.6 1.4 1.1 1.4 1.1.2.1 2.8 1.9 3 2 .1 0 .5.3.8.5.4.3 1.1.7 1.5.9.4.2 1.1.7 1.6.9.4.3.8.5.9.5 0 0 .4.2.9.5s.9.5.9.5.8.4 1.8 1 2 1.1 2.3 1.3c.3.2 1.2.7 2.1 1.2.8.5 1.6 1 1.7 1.1 2 1.2 5.9 4.2 7.2 5.6.3.3.6.6.7.6.2 0 .9-.6 2.4-1.9 1.6-1.4 5.1-4 7.3-5.3.1-.1.7-.4 1.3-.8 1.8-1.1 2.3-1.4 6.8-3.6 5.7-2.8 6.5-3.3 8.7-4.9 2.1-1.5 2.9-2.3 5.5-4.9 1.6-1.6 2.9-3.8 3.9-6.2.2-.4.3-.8.4-1 .8-2 1.8-6.1 2.4-9.9.1-.7.2-8.1.2-24v-23l.4-.4c.4-.3 1.5-1.3 2.8-2.5.2-.2.5-.5.7-.6l.7-.7c.3-.3.5-.5.5-.6 0-.3-3.2-.4-7.1-.4z"/>
        <path d="M85.3 63.2c0-.3.1-.7.1-.8.1-.1.2-.8.3-1.4.1-.6.2-1.8.3-2.5.1-.7.3-1.9.3-2.5.1-.6.2-1.2.3-1.4.1-.1.1-.6.1-1s.1-.9.1-1.2c.1-.3.2-1 .3-1.6.1-.6.2-1.5.3-2 .2-1.1.3-1.2 1.2-.9.3.1.7.2.9.2.4 0 .7.3.5.7-.1.3-.4 2.1-.6 3.6-.1.9-.3 2.3-.6 3.4-.1.4-.2 1.1-.3 1.6-.1.4-.2 1.4-.3 2.1-.1.7-.3 1.7-.3 2.2-.1.5-.2 1.2-.3 1.5-.2.7-.3.8-1 .6-.2 0-.6-.1-.9-.1h-.6v-.5h.2zm3.4 13v14.6h-1.1c-.8 0-1.2 0-1.2-.1s-.1-3.4 0-7.3v-7.1h2.3v-.1zM76.2 51.9c.1-.8.1-2.2.1-3v-1.5l.4-.3c.3-.2.5-.3 1-.2.3 0 1.6.1 2.7.2 2 .1 2.1.1 2.6.5.7.5.8.8.6 2.4-.1.8-.2 2.2-.3 3.2-.1 1-.2 1.9-.2 2-.1.1-.1.8-.2 1.6-.2 3.7-.5 5.3-1.2 5.9-.2.2-.4.3-3 .3-2.1 0-2.7 0-2.8-.2-.1-.3.1-8.3.3-10.9zm-1.8 24.3h1v14.6H73c-.1-.1-.2-1.6-.2-7.3v-7.2l.3-.1c.2 0 .7-.1 1.3 0zm-8.4-14c.1-1.3.4-3.6.5-4.1.1-.2.1-.8.1-1.2s.1-.9.1-1.2c.1-.2.2-1 .3-1.7.1-1.2.3-2.5.5-4.1.1-.4.2-1.2.2-1.8.1-1 .1-1 .5-1.1.2-.1 1-.1 1.7-.1h1.3l.2.4c.1.2.3.8.3 1.2 0 .5.1 1 .2 1.1s.1.5.1.8.1.8.2 1.2c.1.3.2.9.2 1.1 0 .3.1.6.1.8.1.2.2.7.3 1.2.3 2.1.4 2.6.5 3 .1.2.1.6.1.9 0 .3.1.7.1.9.1.3.4 1.8.4 2.7v.4h-2.4l-.1-.8c-.1-1-.3-1.7-.6-1.8-.1 0-.7-.1-1.3-.2l-1.1-.1-.1.3c-.1.2-.2.8-.2 1.4 0 .6-.1 1.1-.2 1.2.1.4-.3.4-1 .4h-1l.1-.8zM48.1 49.3c.2-.2 1.2-.4 2.4-.5l1.1-.1.2.4c.1.2.2.5.2.6s.1.4.2.6c.1.2.2.5.2.6s.1.4.2.7c.1.2.3.8.4 1.2.1.4.3.9.3 1 .1.1.1.3.1.5 0 .1.1.4.2.6.1.2.2.5.2.6 0 .2.1.4.2.7.1.2.2.5.2.7s.1.3.1.4c.1 0 .2.3.2.6s.1.6.2.6.1.2.1.4.1.5.2.7c.1.2.2.5.2.7s.1.5.2.6c.1.1.2.4.2.5 0 .2.1.5.2.7.5 1.1.6 1.8.3 2-.1 0-.6.1-1.1.2-.8.1-1 .1-1.2-.1-.1-.1-.2-.3-.2-.5 0-.1-.1-.5-.2-.7-.1-.3-.2-.7-.3-.9-.1-.4 0-.4-1.9-.1-1.1.2-1.1.2-1 1.5.1 1.4 0 1.8-.4 1.8-.2 0-.5.1-.8.2-.6.2-.8.2-1 .1 0-.2-.2-16.1.1-16.3zm9.3 27.1c.8 0 1.2.1 1.3.2s.2.5.2.8c0 .4.2 1.2.3 1.8.1.6.3 1.6.3 2.1.1.5.2 1.1.3 1.2s.1.5.1.9c0 .3.1.9.2 1.1.1.3.2.8.2 1.1 0 .3.1.7.1.9.1.1.2.7.3 1.2s.2 1.3.2 1.8c.1.5.1 1 .1 1.1s-.4.2-1 .2c-1.1 0-1.1-.1-1.5-1.3l-.3-.9H56l-.2.7c-.1.4-.2.8-.3 1 0 .2-.1.3-.2.4-.1 0-.6.1-1.2.1h-1v-.4c0-.2.1-.4.1-.5.1-.1.2-.5.3-1s.2-1.4.3-1.9c.1-.6.3-1.4.3-1.8.1-.4.1-.9.2-1 .1-.1.1-.5.2-1 .2-1.2.4-2.4.5-2.9.1-.4.3-1.6.5-2.8.4-1 .5-1.1 1.9-1.1zm-12.9-9.7c-.2 0-.6.1-.7.2-.2.1-.5.1-.7.1s-.6.1-.8.2c-.6.2-1 .2-1.3 0-.1-.1-.3-.2-.5-.2-.3 0-1.1-1-1.1-1.3 0-.1-.1-.2-.1-.3-.1-.1-.2-.4-.3-.7-.1-.3-.2-.8-.3-1.1s-.2-.6-.3-.7-.1-.3-.1-.5-.1-.5-.2-.7c-.1-.2-.2-.5-.2-.7s-.1-.5-.2-.7c-.1-.2-.2-.5-.2-.7s-.1-.4-.1-.4c-.1 0-.2-.3-.2-.6s-.1-.6-.2-.6-.1-.2-.1-.4-.1-.5-.2-.7c-.1-.2-.2-.5-.2-.7s-.1-.5-.2-.7c-.3-.6-.6-1.8-.6-2.1 0-.1-.1-.3-.1-.3-.1 0-.1-.2-.1-.4s-.1-.4-.2-.7c-.2 0-.3-.3-.3-.5s-.1-.5-.2-.7c-.3-.5-.3-2-.1-2.2s.9-.6 1.5-.7c.5-.1 1.2-.4 1.5-.5.1-.1.4-.1.7-.2.3-.1.5-.1.5-.2s.2-.1.4-.1.4-.1.7-.2c.2-.1.7-.2 1.1-.2.6 0 .8.1 1.1.4.2.2.5.5.5.7s.1.4.2.4.1.3.1.5c0 .3.1.7.2.9.1.3.2.7.2.9s.1.6.2.9c.3.7.3 1.1-.2 1.3s-1.6.5-2 .6-.7-.2-.7-.7c0-.4-.4-1.6-.6-1.9-.2-.3-1-.3-1.4 0-.2.2-.3.3-.3.8 0 .3.1.8.2 1 .1.2.2.5.2.7s.1.5.2.7c.1.2.2.5.2.7s.1.4.1.5c.1 0 .2.3.2.7 0 .3.1.6.2.7.1 0 .1.2.1.4s.1.5.2.7c.1.2.2.5.2.7s.1.5.2.7c.1.2.2.5.2.7s.1.4.1.5c.1 0 .2.3.2.6s.1.6.2.7c.1.3.4 1.2.5 1.8.1.5.4.7 1.1.7.7-.1.9-.4.6-1.7-.1-.5-.2-1.2-.3-1.6-.1-.8.1-.9 1-1.1.3 0 .6-.1.7-.2.2-.3 1 .1 1 .6 0 .1.1.3.1.4.1.1.2.6.3 1.1.3 1.9.4 2.2.5 2.5.1.2.1.7.1 1.1 0 .6 0 .8-.4 1.1-.2.2-.6.4-.8.4-.3.1-.5.1-.6.2 0 0-.2.1-.4.1zm.5 24.1c0-.2-.1-4.2 0-9v-8.7h3.1c4.7-.1 4.3-.5 4.3 5.7 0 5.3 0 5.1-.9 5.6-.3.2-.8.2-2 .2-.9 0-1.7 0-1.8.1-.2.1-.2.5-.2 3 0 1.6 0 3.1-.1 3.2-.1.2-.3.2-1.2.2-1.1 0-1.2 0-1.2-.3zm8.8 13.3c-.5.5-.7.9-.4 1.1.2.1.1 2-.1 2.7-.1.4-.2.5-.5.5-.2 0-.6-.1-.8-.2l-.4-.2.1-1.2c.1-1.2 0-1.6-.4-1.6-.1 0-.3-.1-.5-.2-.6-.3-.9-.3-1.2.3-.1.3-.3.7-.3.8 0 .2-.1.4-.1.5-.1.1-.2.3-.2.4-.1.2-.2.2-.5.1-.6-.1-1.1-.4-1.1-.6 0-.1.1-.3.2-.5s.2-.5.2-.7.1-.4.1-.4c.1 0 .2-.3.2-.7 0-.3.1-.6.2-.7.1 0 .1-.3.1-.5s.1-.6.2-.7c.1-.2.2-.5.2-.7s.1-.5.2-.7c.1-.2.2-.5.2-.7 0-.6.8-.6 2.1-.2.3.1.8.2 1.1.3.8.2 1.4.5 1.7.8.2.2.3.4.3 1.3v1l-.6.7zm7.3 5.5c-.2.3-.9.3-1.3 0-.2-.2-.3-.4-.4-.9-.1-.6-.1-.6-.5-.7-.2-.1-.6-.2-.9-.3-.6-.2-1.2-.1-1.3.2 0 .1-.1.3-.2.4-.1.1-.2.3-.3.4s-.3.3-.4.3c-.4 0-1.3-.4-1.3-.6 0-.1.7-1.5.8-1.6s.2-.4.8-1.5c.1-.3.3-.5.4-.6.1 0 .1-.2.1-.3 0-.1.1-.3.1-.3.1 0 .2-.1.2-.3 0-.2.1-.3.2-.4 0 0 .2-.3.4-.7.2-.3.4-.7.4-.9.1-.2.3-.3.7-.3.9 0 1.2.2 1.4 1 .1.4.2.9.2 1.2s.1.9.2 1.3.2 1 .2 1.3.1.6.1.6c.1 0 .1.3.1.6s.1.8.1 1.1c.3.5.3.9.2 1zm.5-46.8c-.1-.2-.2-.5-.3-.7s-.2-.5-.3-.7-.2-.5-.2-.6-.1-.3-.2-.5c-.1-.1-.2-.4-.2-.5s-.1-.4-.2-.5c-.1-.1-.2-.4-.2-.5 0-.4-.3-.4-.4 0-.1.3-.1.8.1 2.1.2 1.9.3 2.5.1 2.6-.1 0-.5.1-.9.2-1.1.1-1.3-.1-1.3-1.4 0-.5-.1-1.1-.1-1.3-.1-.2-.2-1-.3-1.7-.2-2.7-.4-4.2-.5-4.7-.1-.2-.1-.8-.1-1.2s-.1-1-.1-1.4c-.2-1.1-.4-3.7-.2-4 .1-.1.3-.2.6-.2.2 0 .6-.1.8-.2.3-.1.4-.1.7 0 .2.1.3.2.3.3s.1.4.2.6c.1.2.3.9.5 1.4s.4 1.1.5 1.3.2.5.2.6.1.3.2.5c.1.1.2.4.2.5s.1.3.1.5c.1.2.1.2.3 0 .2-.3.2-4.2 0-4.9-.2-.9-.1-1.1 1-1.2 1.4-.1 1.4-.2 1.5 2.2 0 1.1.1 2.2.2 2.4.1.2.1 1.1.1 2.1 0 .9.1 2.2.1 2.7.1.6.2 2.1.3 3.4.1 2.9.1 3-.9 3-1.1.3-1.4.2-1.6-.2zm3.6 41c-.1.7-.1 1.9-.2 2.6 0 1.3-.2 2.9-.3 3.5-.1.2-.2.2-.9.2H63l.1-1.6c0-.9.1-2.6.2-3.8.1-2.4.1-2.4 1.1-2.4.9.1 1 .1.8 1.5zm-.6-13.1c-.3-.1-.7-.5-.8-.9s-.2-11.8 0-12.4c.1-.5.5-.9.7-.9.1 0 .3-.1.3-.1 0-.1.9-.1 2.2-.1 2.2 0 2.8.1 3.1.7.1.1.2.3.2.3.1 0 .1 1 .1 2.1v2h-2.2l-.1-1c-.1-.8-.1-1.1-.4-1.4-.4-.5-1-.5-1.4 0l-.4.4v8.4l.4.4c.5.5.9.5 1.4 0l.4-.4v-3h2.4v2.4c0 2.7-.1 3-.9 3.4-.3.1-.9.2-2.5.2-1.3 0-2.4 0-2.5-.1zm7.7 19.5c-.1.5-.2.5-.5.5-.2 0-1.3-.1-2.4-.1l-2-.1v-.6c0-.3.1-1.3.1-2.2.1-.9.2-2.3.2-3.2l.1-1.7h1.6l-.1 2.9c-.1 2.2 0 2.9.1 3s.8.1 1.5.2c1.3 0 1.4 0 1.5.4 0 .2 0 .5-.1.9zm8-6.4c-.1.5-.2 1.2-.2 1.5s-.1.9-.2 1.3-.2 1.1-.2 1.5-.1.8-.1.8c-.1 0-.1.2-.1.5 0 .7-.1.8-.7.8s-1-.3-1-.7c0-.1-.1-.3-.2-.4s-.2-.3-.2-.5-.6-.8-.7-.7l-.2 1c-.1.5-.1 1.1-.2 1.2-.1.3-.2.3-.8.3-.7 0-1-.2-1-.6 0-.2-.1-.5-.2-.7s-.3-.8-.4-1.2c-.1-.4-.3-.8-.3-.9-.1-.1-.1-.3-.2-.5-.1-.4-.3-1-.6-1.7-.1-.2-.2-.6-.2-.7 0-.2-.1-.3-.1-.4-.2-.1-.1-.5.2-.7.7-.3 1.2-.1 1.2.4 0 .1.1.4.2.7.4.8.4 1 .5 1.4 0 .2.2.4.3.4.2 0 .6-.8.6-1.6 0-.3.2-.8.3-1.1.2-.5.2-.5.7-.5s.5.1.8.9c.2.5.4.9.4 1s.1.3.2.5c0 .2.1.4.2.4.2 0 .6-1.1.6-1.7 0-.3.1-.7.2-1 .2-.4.2-.4.8-.4.8 0 .9.1.6 1.4zm.6-18.8c-.1.2-.1 1.6-.1 3.1v2.7h-1.1c-.6 0-1.1 0-1.2-.1-.1 0-.2-1.6-.2-7.1 0-3.8 0-7.1.1-7.2.1-.2.5-.2 3.4-.2h3.4v2.6h-2.1c-1.4 0-2.1 0-2.2.2-.2.2-.2 2.6 0 2.9s.3.3 1.6.3H84v2.4h-1.5c-1.5.1-1.5.1-1.6.4zm7.6 23.8c-.6.3-.9.3-1-.1 0-.1-.1-.3-.2-.3s-.1-.1-.1-.2-.1-.3-.3-.5c-.3-.3-.4-.3-1.1-.2-1 .2-1.3.3-1.3.6 0 .1 0 .3-.1.3-.1.1-.2.3-.2.6-.1.5-.1.5-.9.5h-.8l.1-.9c0-.5.2-1.4.3-2 .1-.6.3-1.5.3-2.1.1-.5.2-1 .2-1.1s.1-.5.2-.8c.1-.7.1-.7.5-.9.9-.4 1.4-.3 1.9.5.1.2.2.3.4.7 0 .1.2.5.4.8.2.4.6 1.1 1 1.8.3.6.7 1.4.9 1.7.2.3.4.6.4.7.1.4-.2.7-.6.9zm5.4-8.1c-.1.2-.2.5-.2.6s-.1.3-.2.5c-.1.1-.2.4-.2.6s0 .4-.1.5c-.2.2-.6 1.5-.5 1.6.1.2.4 1.6.6 2.4.1.6.1.7-.1.9-.1.1-.5.2-.8.2-.6 0-.6 0-.8-.5-.1-.3-.2-.6-.2-.8 0-.2-.1-.5-.2-.6-.1-.2-.2-.5-.2-.7 0-.4-.4-.9-1.4-1.7-1.5-1.2-2.1-1.9-2.1-2.1 0-.1.1-.2.2-.2s.4-.1.6-.2l.4-.2 1 .8c.6.4 1.1.8 1.2.9.2.3.7 0 .8-.4 0-.2.1-.5.2-.6.2-.3.5-1.1.6-1.4s.7-.5 1.2-.4c.5 0 .5.3.2.8zm2.6 6.2c-.2 0-.5.1-.6.1-.2 0-.2 0-.2-.2 0-.1-.1-.3-.1-.3-.2-.1-.1-.5.2-.7.5-.3.8-.2.9.2 0 .2.1.5.2.6-.1.1-.1.2-.4.3zM93.9 84c0 4.5 0 4.7 1 4.7.5 0 .6 0 .9-.3s.3-.5.3-1.8v-1.5h2.2v2.4c0 2 0 2.4-.2 2.6-.1.1-.2.2-.2.3 0 .1-.2.2-.5.4-.7.3-4.5.3-5 0-.8-.5-.8-.3-.8-6.6v-6.3c.1-.4.2-.7.5-.9l.4-.4h4.9l.4.4c.2.2.4.5.5.7s.1 1.1 0 2.2v1.9h-2.2v-1.1c0-1-.1-1.1-.4-1.4-.4-.3-1.1-.4-1.4-.1-.4.1-.5 1-.4 4.8zm4.3-30.3c-.1.8-.2 1.8-.2 2.3s-.1 1.3-.1 1.7c-.1.4-.2 1.7-.3 2.7-.3 4.9-.4 5.6-.6 5.7-.1.1-.2.1-.2.1s-.4-.1-.9-.1c-1.2-.1-1.3-.3-1.1-2 .1-.9 0-1.3-.4-1.3-.1 0-.4-.1-.6-.2-.2-.1-.6-.2-.9-.2-.4-.1-.6 0-.8.2-.1.1-.3.4-.3.5 0 .3-.5 1.6-.6 1.7s-.6.1-1.5-.1c-.5-.1-.9-.5-.7-.8.1-.1.2-.5.3-.8.1-.3.3-.7.4-.9s.2-.4.2-.5.1-.3.2-.5.3-.5.3-.8c.1-.2.2-.6.3-.8.1-.2.3-.7.4-1s.3-.8.4-1 .2-.5.2-.6.1-.2.1-.2c.1 0 .1-.1.1-.2s.1-.3.2-.5c.1-.1.2-.4.2-.5s.1-.4.2-.5.2-.4.2-.5.1-.4.2-.6c.1-.2.3-.6.4-.9.1-.3.3-.6.3-.8.1-.1.2-.5.3-.8.1-.3.3-.7.4-.9s.2-.4.2-.6c0-.4.4-.5 1.1-.4.4.1.8.2.9.2.1.1.4.1.7.2 1 .2 1.1.2 1.1 1.4.1.6 0 1.6-.1 2.3zm11.1.4c-.1 0-.1.2-.1.4s-.1.4-.2.7c-.1.2-.2.5-.2.6 0 .2-.1.4-.2.5s-.2.4-.2.5 0 .3-.1.4c-.1.1-.2.5-.3.9-.1.4-.3.9-.4 1.1-.1.2-.2.5-.2.7s-.1.4-.2.5-.2.4-.2.5c0 .2 0 .3-.1.4-.1 0-.2.3-.2.5 0 .3-.1.6-.2.7-.1.3-.4 1.1-.5 1.4 0 .2-.1.4-.2.6s-.2.4-.2.5c0 .2-.1.4-.2.7-.1.2-.2.5-.2.6s-.1.3-.1.3c-.1 0-.1.2-.1.3 0 .1-.1.4-.2.6-.3.7-.7.8-1.7.3-.8-.4-.8-.4-.7-3 .1-1.3.1-2.4.1-2.5-.1-.2-.7.6-.7 1 0 .2-.1.4-.2.6-.1.1-.2.4-.2.5 0 .2-.1.4-.2.7-.1.2-.2.5-.2.6s-.1.5-.2.8c-.2.5-.3.5-.6.4-.2 0-.6-.1-.9-.3-.5-.2-.5-.2-.6-.7 0-.3 0-.7.2-.9.1-.2.2-.5.2-.7s.1-.5.2-.7.2-.5.2-.7.1-.4.1-.4c.1 0 .2-.3.2-.6s.1-.6.2-.7c.1-.2.3-1 .5-1.8.1-.2.2-.6.3-.7.1-.2.1-.5.1-.7s.1-.4.1-.5c.1 0 .2-.3.2-.6s.1-.6.2-.7c.1-.2.3-.8.5-1.8.1-.3.2-.6.3-.8.1-.2.2-.8.4-1.2l.2-.8h.8c.8 0 1.5.2 1.5.4v3.2c0 1.9.1 3.1.1 3.1.1 0 .3-.4.5-.9.2-.6.4-1 .4-1.1 0 0 .1-.2.1-.3s.1-.4.2-.6c.2-.5.5-1.2.6-1.6.2-.8.5-1.2.7-1.1.1 0 .5.2.8.3.9.2 1.2.4 1.2.9-.3 0-.3.2-.4.2z"/>
        <path d="M51.5 101.8c-.2 0-.5-.1-.7-.2-.3-.1-.3 0-.5.3-.1.2-.1.5-.1.8s.1.4.4.4c.2 0 .4.1.5.2.4.4 1.4-.2 1.2-.7 0-.4-.4-.7-.8-.8zm6.4-15.7c.1-.2.1-.3 0-.9-.1-.4-.2-.8-.3-1-.1-.5-.3-.5-.6.1s-.4 1.5-.2 1.8c.1.2.9.2 1.1 0zm11.9-28.7h.8v-.5c0-.3 0-.8-.2-1.3-.1-.4-.2-1-.2-1.3s-.1-.7-.2-1-.2-.6-.2-.8c0-.1-.1-.3-.2-.3s-.2.2-.3.8c0 .4-.1.9-.2 1 0 .1-.1.7-.2 1.2-.1.6-.2 1.2-.2 1.4-.1.2 0 .4.1.6.1.2.4.2 1 .2zm15.1 47.5c-.2.1-.2 1 0 1.2 0 0 .2.1.3 0 .1 0 .3-.1.4-.1.3 0 .2-.6-.1-.9-.3-.2-.5-.2-.6-.2z"/>
        <path d="M127.5 34.5c-.4-.1-5.5-.2-16.7-.4-6.2-.1-11.3-.2-11.8-.3-2.2-.4-6.2-1.4-7.9-2-.3-.1-.6-.2-.8-.3-1.8-.7-3.2-1.2-3.6-1.4-.1-.1-.3-.1-.4-.1s-.1.9-.1 2.6c0 2.3 0 2.7-.2 3-.6.8-1.5 1.2-2.4.9-1-.3-1.6-.8-1.9-1.7-.1-.4-.1-.6 0-1.1.2-.6.4-.8 1.4-1.1.2-.1.2-.3.2-2v-2l-1.1-.6c-.6-.3-1.2-.7-1.3-.7-.1-.1-.4-.3-.7-.4-.3-.2-.6-.3-.6-.4s-.1-.1-.1-.1c-.3 0-3.6-2.4-5.4-4-1.5-1.3-2.8-2.3-3-2.3-.1 0-.5.4-.9.8S69 22 68.5 22.4s-1.1.9-1.2 1c-.2.2-.4.3-.4.3s-.2.1-.3.2c-.4.4-1.3 1-1.4 1s-.2 0-.2.1-2.5 1.7-4.2 2.8l-.7.5v2c0 2.2 0 2.2.8 2.3 1.1.2 1.6 1.5.9 2.4-.8 1.1-2.6 1.3-3.5.4-.5-.4-.7-1.5-.5-1.7.2-.1.3-1.2.2-2.6-.1-1.3-.1-1.3-.4-1.3-.2 0-.6.2-1 .4-.8.4-1.6.7-2 .8-.1 0-.4.1-.5.2-.8.3-4.2 1.3-6 1.7-3.7.8-3.9.9-18.5.9-7.5 0-13.3.1-13.3.2s3.7 4 9.4 9.8l2.7 2.7v22.8c0 21.5 0 24.1.4 26.7.1 1 .2 1.3.6 3 .2.9.9 2.9 1.1 3.5.3.7 1.4 3.1 1.7 3.5 1.3 2.3 3.6 5.1 6.1 7.4 1.3 1.2 4.5 3.7 5.6 4.4.3.2 2.5 1.6 2.8 1.9.4.3 6 3.7 6.2 3.8.1 0 .4.2.6.3.2.1.5.3.6.3s.5.3 1 .6c.4.3.9.5 1 .6s.3.2.5.3c.1.1.6.4 1 .6.4.3.9.5 1 .6s.3.2.5.3c1 .5 4.3 2.7 6 4 1.3 1 1.8 1.4 3.2 2.9 1.5 1.5 1.7 1.8 2.4 3.1.3.6.6 1 .6 1s.3-.3.5-.7c.5-.9 2.1-3 2.7-3.7 3.5-3.8 6.9-6.2 14.9-10.3 3.3-1.7 5.3-2.7 6.7-3.5.6-.3 1-.6 1.1-.6s.7-.4 1.5-.9 1.5-.9 1.6-.9 2.7-1.8 3.6-2.5c1.1-.9 1.4-1.1 2.3-2.2.4-.4.8-.9.8-1 .3-.3 1.6-2.1 2.3-3.2 1.6-2.4 3.4-6.3 4.2-9.3.1-.4.3-1 .4-1.4.3-.9.6-2.3 1.1-5.3.2-1.2.2-3 .3-23.9.1-19.8.1-22.6.3-22.8.1-.1.8-.8 1.5-1.4.7-.6 1.8-1.6 2.3-2.2.6-.5 1.7-1.6 2.5-2.4.8-.7 1.7-1.5 1.9-1.8.2-.2 1.1-1 2-1.8s1.6-1.5 1.7-1.6c.2-.1.2-.1 0-.2z"/>
        <path d="M84.4 38.9c.5-.1 1.7-1.2 1.9-1.8.1-.2.2-.3.3-.3.1 0 .2.1.1.2s-.2.4-.3.7c-.2.4-.8 1.1-1.3 1.5-.1.1-.4.2-.8.3-1 .3-1.9.1-2.7-.7-.6-.6-.9-1-1.2-2-.2-.8-.3-1.2-.1-1.2.1 0 .1.1.1.2s0 .3.1.4c.1.1.2.5.4.8.8 1.6 2.1 2.3 3.5 1.9zM73 25.4c.3.2 1 .8 1.6 1.3s1.1.9 1.2.9c.1.2 3.1 2.1 3.5 2.3.1 0 .6.3 1 .6s.9.5.9.5c.1 0 .2.1.3.2.1.1.3.2.4.2s.3.1.5.2c.3.2.2.4-.1.3-.3-.1-2.1-1-2.8-1.4-.2-.2-.5-.3-.6-.4-.1 0-.4-.2-.6-.4-.2-.2-.4-.3-.5-.3s-.3-.2-.6-.4-.5-.4-.6-.4-1.9-1.3-2.2-1.6c-.1-.1-.3-.3-.5-.4-.7-.5-1.5-1.3-1.5-1.5-.1-.2.1-.1.6.3zm-12 6.1c-.1 0-.2-.4-.2-1.5 0-1.7-.1-1.5 1.5-2.4.3-.2.6-.3.6-.4.1-.1.5-.4.9-.5.2-.1.3-.2.3-.3 0-.1.1-.1.1-.1.2 0 2.8-2 4.6-3.4.3-.2.8-.6 1-.9.3-.2.6-.6.8-.7.2-.2.4-.3.4-.3s.1.8.1 1.9v1.9l-.5.4c-.3.2-.7.6-.9.8-.2.2-.5.4-.7.6-.1.2-.3.3-.4.3s-.3.2-.6.4c-.2.2-.7.5-.9.7-.3.2-.6.4-.7.5-.3.2-.7.5-.9.6-.1 0-.2.1-.2.2l-.6.4-.6.4c0 .1-.1.1-.3.1-.1 0-.3.1-.3.1 0 .1-.6.4-1.3.7-.5.2-1.1.5-1.2.5zm-1.7 6.7c1 .5 2.1.3 2.9-.6.4-.5.9-1.4.9-1.8 0-.2.1-.4.2-.6.2-.2.2-.2.3.2.1.3 0 .6-.1 1-.1.3-.2.7-.2.8 0 .3-.7 1.1-1.3 1.4-.5.4-.8.4-1.6.4-1.2 0-1.5-.2-2.4-1-.6-.6-1.1-1.5-1-1.6s.5.1.5.3 1.2 1.2 1.8 1.5zM31 34.6c6.1 0 11.7-.1 12.5-.1 2.5-.2 3.5-.3 3.7-.5.1-.1.4-.2.8-.2.8-.1 1.9-.4 2-.5s.2-.1.4-.1.5-.1.7-.2c.2-.1.5-.2.7-.2s.4-.1.5-.2c.1-.1.4-.2.5-.2.2 0 .3-.1.4-.1 0-.1.3-.2.5-.2.2-.1.5-.1.6-.2s.4-.2.7-.3c.3-.1.7-.3.9-.4s.5-.2.6-.2.3-.1.5-.2c.1-.1.3-.2.4-.1.1 0 .1.7.1 1.5v1.5l-.5.2c-.3.1-.5.3-.6.3-.2.2-1 .5-1.2.5-.1 0-.3.1-.5.2-.1.1-.4.2-.5.2-.2 0-.4.1-.6.2-.2.1-.7.3-1.1.4-.4.1-.9.3-1 .3-.1.1-.4.1-.6.1-.2 0-.5.1-.8.2-.3.1-.6.2-.8.2s-.6.1-.8.2c-.3.1-.7.2-.9.2s-.6.1-.9.2c-.2.1-.9.2-1.4.2s-1.3.1-1.7.1c-.7.1-15.9.3-17.1.2-.5 0-1.3-.4-3.6-1.5l-3-1.5H31zm40.2 99.9c0 .9-.1 1.7-.1 1.7s-.2-.2-.3-.4c-.1-.2-.3-.5-.5-.7s-.5-.5-.7-.8c-.7-.9-1.9-2.1-3.4-3.3-.2-.2-1-.7-1.7-1.3-.7-.5-1.4-1-1.4-1.1-.1-.1-.3-.2-.6-.4-.3-.1-.5-.3-.5-.3l-.4-.2c-.3-.1-.6-.3-1.2-.7-.5-.3-.8-.5-1.1-.7-.2-.1-2.4-1.4-2.7-1.6-.1-.1-.3-.2-.4-.2-.1 0-.3-.2-.4-.3-.1-.1-.3-.2-.4-.2s-.2 0-.2-.1-.1-.2-.3-.2c-1.1-.6-1.5-.8-1.6-.9 0 0-.4-.2-.7-.5-.4-.2-.8-.4-.9-.5-.1-.1-.4-.2-.5-.3-.1-.1-.4-.3-.7-.5s-.6-.4-.7-.4c-.1 0-.2-.1-.2-.1 0-.1-.1-.1-.1-.1-.1 0-.7-.3-1.3-.7-.6-.4-1.2-.7-1.2-.7-.1 0-1.5-1-1.8-1.3-.1-.1-.2-.1-.2-.1l-.6-.4-.6-.4c-.1 0-.1 0-.1-.1s-.2-.2-.5-.4-.6-.4-.7-.5c-.1-.1-.5-.4-.9-.7-1.9-1.4-4.1-3.4-5-4.5-.1-.2-.5-.6-.8-1s-.8-1-1-1.4-.5-.7-.5-.7l-1-1.6c-.5-.9-1-1.6-1.1-1.8-.1-.1-.2-.3-.2-.4s-.2-.4-.2-.6c-.1-.2-.3-.6-.4-.9s-.3-.6-.3-.7c-.1-.1-.1-.4-.1-.5 0-.2-.1-.4-.2-.6s-.2-.5-.2-.7-.1-.5-.2-.7-.2-.5-.3-.9c-.1-.3-.2-1.1-.3-1.8-.1-.6-.3-1.8-.3-2.6-.1-.8-.1-11.9-.1-24.6V45.9l-5.7-5.7c-3.1-3.1-5.6-5.7-5.6-5.7.1 0 .3.1.6.3.2.1.9.5 1.4.8.6.3 1.5.8 2.1 1.1s1.3.7 1.6.9c.3.2.6.3.6.4 0 .1.1.1.3.1.1 0 .3.1.4.2.1.1.3.2.5.2s1.3 1 3.3 3l3 2.9V68c0 15.8 0 23.8.1 24.2.1.3.2.9.2 1.4s.1.9.2 1.1c.1.1.1.4.1.7 0 .3.1.7.2.9.1.3.2.6.2.8 0 .2.1.5.2.7.1.2.2.4.2.6s.1.4.2.7c.1.2.2.5.2.6s.1.3.1.3c.1 0 .1.2.1.3 0 .2.3 1 .5 1.3.1.1.2.3.2.4.2.5 1.2 2.5 1.3 2.6 0 0 .2.3.3.5.3.5 1.6 2.3 1.8 2.6.1.1.2.2.2.3 0 .2 3.4 3.6 4.2 4.2.4.3.7.6.7.6.3.3 4.3 3.2 4.8 3.4.1 0 .4.2.6.3.2.1.5.3.6.3s.2.1.2.2l.6.4c.3.2.6.3.7.4.1.1.5.3 1.3.7.3.1.5.3.5.3.1.1.5.4 1.2.7.3.2.6.3.7.4s.2.1.4.2l1 .5c.4.2.9.5 1.2.7s.6.3.6.4l.4.2c.2.1.6.3 1 .6.4.2.8.4.9.5.1.1.6.3.9.6.4.2.7.5.8.5.3.1.6.4 1.8 1.2.6.4 1.2.8 1.4.9.1.1.3.2.4.3.1.1.4.3.7.5l.6.4s.4.3.7.6c1.7 1.4 3.7 3.3 3.8 3.8 0 .2.1.5.2.7.1.1.1 1.1.1 2zm40.4-39.7s-.1 0-.1-.2c0-.1 0-.2.1-.1v.3z"/>
        <path d="M116.3 39.2c-.3.3-1.6 1.5-2.9 2.8l-2.3 2.3-.1 22.9c-.1 22.3-.1 23.6-.5 25.6-.1.4-.2 1.2-.3 1.8-.4 2.2-1.2 5.1-1.7 6.4-1.8 4.3-3.2 6.6-5.8 9.3-1.1 1.1-3.8 3.3-5 4-3.6 2.2-3.4 2.1-7.7 4.2-4.6 2.3-6.3 3.1-7.9 4.1-1.5.8-4.7 3.1-6.7 4.8-.6.5-1.1.9-1.2 1l-1.3 1.3c-.7.7-1.3 1.2-1.4 1.2s-.7-.5-1.4-1.1c-1.8-1.7-3.3-3-4-3.4-.2-.1-.4-.2-.5-.3-.2-.1-1-.7-1.6-1.1-.1-.1-.4-.2-.5-.2s-.2-.1-.2-.2-.1-.1-.3-.2c-.2 0-.3-.1-.3-.2s-.1-.1-.2-.1-.3-.1-.4-.2c-.1-.1-.2-.2-.3-.2s-.2 0-.2-.1-1.2-.8-1.6-1c-.1 0-.2-.1-.2-.2s-.1-.1-.2-.1-.4-.1-.6-.3c-.2-.2-.4-.3-.5-.3s-.2-.1-.3-.1c0-.1-.2-.2-.4-.3-.2-.1-.4-.2-.5-.3-.1-.1-1.2-.7-2.4-1.4-4.6-2.6-9-5.4-10.4-6.5-1.8-1.5-4-3.5-5-4.7-1.2-1.4-2.8-3.8-3.4-4.8-.1-.3-.4-.7-.5-1-.2-.3-.3-.6-.3-.7s-.1-.3-.2-.3c-.1-.1-.2-.3-.2-.4s-.1-.4-.2-.7c-.4-.8-.4-.8-.5-1.3 0-.3-.1-.5-.2-.5s-.1-.2-.1-.3c0-.1-.1-.4-.2-.7-.1-.2-.2-.6-.2-.8 0-.2-.1-.7-.2-1-.1-.3-.2-.9-.3-1.3s-.2-1.1-.3-1.6c-.1-.7-.2-6-.2-24.8V44.3l-.9-.9c-.5-.5-1.8-1.7-2.9-2.7-1.6-1.6-1.9-1.9-1.7-2 .2-.2.8-.1.8.1 0 .1.1.1.2 0 .2-.1.3-.1.4.1.1.2.7.2 3.2.2 2.1 0 3.1 0 3.1-.1.1-.2 2.5-.3 5.2-.3.9 0 2.6-.1 3.8-.2 1.2-.1 2.2-.2 2.4-.1h.4c.2-.1 1.2-.4 1.6-.4.7 0 4.8-1.3 5.8-1.8.2-.1.5-.2.6-.2s.3-.1.4-.1c.1-.1.4-.2.7-.3.7-.2.9 0 .8.7-.2 1.1.8 2.8 2 3.4 1.8 1 3.8.8 4.9-.5.5-.5 1.1-2.3 1.1-3.1 0-1.2-.6-2.3-1.4-2.9-.4-.3-.5-.4-.5-.7s.3-.5 1.3-1c2.4-1.3 4.5-2.7 7-4.9.8-.7.6-.7 2.2.5.8.6 1.6 1.3 1.9 1.5s.5.3.5.4c0 0 .5.3 1 .7 2.4 1.5 2.5 1.6 4.5 2.7.3.2.6.4.7.5.1.3-.1.7-.4.8s-.8.7-1.2 1.4c-.4.8-.4 2.2 0 3.2.3.8 1.1 1.6 2 2.1.6.3.7.4 1.8.3 1 0 1.3-.1 2-.4 1.4-.7 2.2-1.9 2.2-3.4 0-.5 0-1 .1-1.1.1-.3.5-.3 1.1 0s1.2.6 2 .9c.4.1.8.3.9.3.5.2 2.9.8 4.1 1 2.4.5 7.9.8 15.1.9 4.1.1 5.8.1 5.9.2-.4-.5-.6-.2-.9.1z"/>
        <path d="M95.4 55.1c-.2-.1-.7.3-.7.5 0 .1-.1.3-.1.4-.2.4-.9 2-.9 2.1s-.1.3-.2.5-.3.5-.3.6c-.1.1 0 .3.4.5.3.2.7.3.9.3.6 0 .7-.3.8-2.7.1-1.1.2-2 .2-2.1 0 0 0-.1-.1-.1zM79 60.7c1.2 0 1.4-.5 1.6-3.8.1-1.2.2-2.7.2-3.2.2-1.4.2-3.6 0-3.8-.1-.1-.5-.2-.9-.3-1.1-.2-1.2-.2-1.3 1.6-.1.8-.2 1.8-.2 2.1-.1.3-.1 1.4-.1 2.3 0 .9-.1 2.3-.1 3.1-.1 1.4-.1 1.5.1 1.7.1.2.3.3.7.3zm-28.2-1.3c1.3-.2 1.3-.2 1.4-.6 0-.2 0-.4-.1-.6-.2-.3-.4-1.1-.5-1.4 0-.1-.1-.4-.2-.7-.1-.2-.2-.5-.2-.6s0-.2-.1-.3-.2-.3-.2-.6c-.2-.7-.3-.7-.5 0s-.2 4.5 0 4.7c-.1.1.2.2.4.1zm-1.4 22.2c.3-.2.3-.3.3-2.8v-2.6l-.3-.2c-.4-.3-1.5-.3-1.8 0-.2.2-.2.5-.2 2.8 0 2.1 0 2.6.2 2.8.2.4 1.4.4 1.8 0zm9.1 23.2c-.2 0-.6.8-.5 1s1 .2 1.1 0c0-.2-.5-1-.6-1z"/>
    </g>
    <g fill="#010101">
        <path d="M108.2 39.1c-6.9 0-9.7-.1-11.8-.5-3.2-.6-5.7-1.3-7.1-2-.7-.3-.8-.3-.9.4-.1.8-.7 2-1.2 2.6s-1.5 1.2-2.4 1.5c-1.5.5-4.1-.2-5.2-1.5-.5-.6-1-1.7-1.2-2.5-.2-1.1.1-2.6.9-3.8.2-.3.3-.6.3-.6 0-.1-.2-.3-.6-.5-.3-.2-1.2-.8-2-1.4s-2-1.4-2.7-1.9-1.6-1.1-2.1-1.4-.9-.6-1-.5c-.1 0-.8.6-1.6 1.2s-2.4 1.7-3.5 2.5c-2.7 1.8-2.5 1.6-2.2 2s.7 1.1 1 2c.2.5.2.9.2 1.8-.1 1.2-.1 1.4-.8 2.3-1 1.4-2.2 2-4 2.1-1 0-1.2 0-1.9-.4-1.4-.7-2.6-2.1-2.9-3.4-.2-.8-.1-.8-3.1.4-.1.1-.6.2-1 .3s-1 .3-1.2.3c-.8.2-3.4.7-5.1.9-3.1.3-5.5.4-10.9.4-3.2 0-5.8 0-5.8.1s.1.3.4.5c.5.4 1.2 1.1 3.3 3.1l1 1v24c0 26.1 0 24.6.7 27.7.3 1.4.4 1.8 1.1 3.4.6 1.6 1.7 3.8 2.4 5.1 1.6 2.5 2.1 3.2 3.6 4.6 1.4 1.4 2.1 2 3.6 3.2.7.6 1.4 1.1 1.4 1.1.2.1 2.8 1.9 3 2 .1 0 .5.3.8.5.4.3 1.1.7 1.5.9.4.2 1.1.7 1.6.9.4.3.8.5.9.5 0 0 .4.2.9.5s.9.5.9.5.8.4 1.8 1 2 1.1 2.3 1.3c.3.2 1.2.7 2.1 1.2.8.5 1.6 1 1.7 1.1 2 1.2 5.9 4.2 7.2 5.6.3.3.6.6.7.6.2 0 .9-.6 2.4-1.9 1.6-1.4 5.1-4 7.3-5.3.1-.1.7-.4 1.3-.8 1.8-1.1 2.3-1.4 6.8-3.6 5.7-2.8 6.5-3.3 8.7-4.9 2.1-1.5 2.9-2.3 5.5-4.9 1.6-1.6 2.9-3.8 3.9-6.2.2-.4.3-.8.4-1 .8-2 1.8-6.1 2.4-9.9.1-.7.2-8.1.2-24v-23l.4-.4c.4-.3 1.5-1.3 2.8-2.5.2-.2.5-.5.7-.6l.7-.7c.3-.3.5-.5.5-.6 0-.3-3.2-.4-7.1-.4zM85.3 63.2c0-.3.1-.7.1-.8.1-.1.2-.8.3-1.4.1-.6.2-1.8.3-2.5.1-.7.3-1.9.3-2.5.1-.6.2-1.2.3-1.4.1-.1.1-.6.1-1s.1-.9.1-1.2c.1-.3.2-1 .3-1.6.1-.6.2-1.5.3-2 .2-1.1.3-1.2 1.2-.9.3.1.7.2.9.2.4 0 .7.3.5.7-.1.3-.4 2.1-.6 3.6-.1.9-.3 2.3-.6 3.4-.1.4-.2 1.1-.3 1.6-.1.4-.2 1.4-.3 2.1-.1.7-.3 1.7-.3 2.2-.1.5-.2 1.2-.3 1.5-.2.7-.3.8-1 .6-.2 0-.6-.1-.9-.1h-.6v-.5h.2zm3.4 13v14.6h-1.1c-.8 0-1.2 0-1.2-.1s-.1-3.4 0-7.3v-7.1h2.3v-.1zM76.2 51.9c.1-.8.1-2.2.1-3v-1.5l.4-.3c.3-.2.5-.3 1-.2.3 0 1.6.1 2.7.2 2 .1 2.1.1 2.6.5.7.5.8.8.6 2.4-.1.8-.2 2.2-.3 3.2-.1 1-.2 1.9-.2 2-.1.1-.1.8-.2 1.6-.2 3.7-.5 5.3-1.2 5.9-.2.2-.4.3-3 .3-2.1 0-2.7 0-2.8-.2-.1-.3.1-8.3.3-10.9zm-1.8 24.3h1v14.6H73c-.1-.1-.2-1.6-.2-7.3v-7.2l.3-.1c.2 0 .7-.1 1.3 0zm-8.4-14c.1-1.3.4-3.6.5-4.1.1-.2.1-.8.1-1.2s.1-.9.1-1.2c.1-.2.2-1 .3-1.7.1-1.2.3-2.5.5-4.1.1-.4.2-1.2.2-1.8.1-1 .1-1 .5-1.1.2-.1 1-.1 1.7-.1h1.3l.2.4c.1.2.3.8.3 1.2 0 .5.1 1 .2 1.1s.1.5.1.8.1.8.2 1.2c.1.3.2.9.2 1.1 0 .3.1.6.1.8.1.2.2.7.3 1.2.3 2.1.4 2.6.5 3 .1.2.1.6.1.9 0 .3.1.7.1.9.1.3.4 1.8.4 2.7v.4h-2.4l-.1-.8c-.1-1-.3-1.7-.6-1.8-.1 0-.7-.1-1.3-.2l-1.1-.1-.1.3c-.1.2-.2.8-.2 1.4 0 .6-.1 1.1-.2 1.2.1.4-.3.4-1 .4h-1l.1-.8zM48.1 49.3c.2-.2 1.2-.4 2.4-.5l1.1-.1.2.4c.1.2.2.5.2.6s.1.4.2.6c.1.2.2.5.2.6s.1.4.2.7c.1.2.3.8.4 1.2.1.4.3.9.3 1 .1.1.1.3.1.5 0 .1.1.4.2.6.1.2.2.5.2.6 0 .2.1.4.2.7.1.2.2.5.2.7s.1.3.1.4c.1 0 .2.3.2.6s.1.6.2.6.1.2.1.4.1.5.2.7c.1.2.2.5.2.7s.1.5.2.6c.1.1.2.4.2.5 0 .2.1.5.2.7.5 1.1.6 1.8.3 2-.1 0-.6.1-1.1.2-.8.1-1 .1-1.2-.1-.1-.1-.2-.3-.2-.5 0-.1-.1-.5-.2-.7-.1-.3-.2-.7-.3-.9-.1-.4 0-.4-1.9-.1-1.1.2-1.1.2-1 1.5.1 1.4 0 1.8-.4 1.8-.2 0-.5.1-.8.2-.6.2-.8.2-1 .1 0-.2-.2-16.1.1-16.3zm9.3 27.1c.8 0 1.2.1 1.3.2s.2.5.2.8c0 .4.2 1.2.3 1.8.1.6.3 1.6.3 2.1.1.5.2 1.1.3 1.2s.1.5.1.9c0 .3.1.9.2 1.1.1.3.2.8.2 1.1 0 .3.1.7.1.9.1.1.2.7.3 1.2s.2 1.3.2 1.8c.1.5.1 1 .1 1.1s-.4.2-1 .2c-1.1 0-1.1-.1-1.5-1.3l-.3-.9H56l-.2.7c-.1.4-.2.8-.3 1 0 .2-.1.3-.2.4-.1 0-.6.1-1.2.1h-1v-.4c0-.2.1-.4.1-.5.1-.1.2-.5.3-1s.2-1.4.3-1.9c.1-.6.3-1.4.3-1.8.1-.4.1-.9.2-1 .1-.1.1-.5.2-1 .2-1.2.4-2.4.5-2.9.1-.4.3-1.6.5-2.8.4-1 .5-1.1 1.9-1.1zm-12.9-9.7c-.2 0-.6.1-.7.2-.2.1-.5.1-.7.1s-.6.1-.8.2c-.6.2-1 .2-1.3 0-.1-.1-.3-.2-.5-.2-.3 0-1.1-1-1.1-1.3 0-.1-.1-.2-.1-.3-.1-.1-.2-.4-.3-.7-.1-.3-.2-.8-.3-1.1s-.2-.6-.3-.7-.1-.3-.1-.5-.1-.5-.2-.7c-.1-.2-.2-.5-.2-.7s-.1-.5-.2-.7c-.1-.2-.2-.5-.2-.7s-.1-.4-.1-.4c-.1 0-.2-.3-.2-.6s-.1-.6-.2-.6-.1-.2-.1-.4-.1-.5-.2-.7c-.1-.2-.2-.5-.2-.7s-.1-.5-.2-.7c-.3-.6-.6-1.8-.6-2.1 0-.1-.1-.3-.1-.3-.1 0-.1-.2-.1-.4s-.1-.4-.2-.7c-.2 0-.3-.3-.3-.5s-.1-.5-.2-.7c-.3-.5-.3-2-.1-2.2s.9-.6 1.5-.7c.5-.1 1.2-.4 1.5-.5.1-.1.4-.1.7-.2.3-.1.5-.1.5-.2s.2-.1.4-.1.4-.1.7-.2c.2-.1.7-.2 1.1-.2.6 0 .8.1 1.1.4.2.2.5.5.5.7s.1.4.2.4.1.3.1.5c0 .3.1.7.2.9.1.3.2.7.2.9s.1.6.2.9c.3.7.3 1.1-.2 1.3s-1.6.5-2 .6-.7-.2-.7-.7c0-.4-.4-1.6-.6-1.9-.2-.3-1-.3-1.4 0-.2.2-.3.3-.3.8 0 .3.1.8.2 1 .1.2.2.5.2.7s.1.5.2.7c.1.2.2.5.2.7s.1.4.1.5c.1 0 .2.3.2.7 0 .3.1.6.2.7.1 0 .1.2.1.4s.1.5.2.7c.1.2.2.5.2.7s.1.5.2.7c.1.2.2.5.2.7s.1.4.1.5c.1 0 .2.3.2.6s.1.6.2.7c.1.3.4 1.2.5 1.8.1.5.4.7 1.1.7.7-.1.9-.4.6-1.7-.1-.5-.2-1.2-.3-1.6-.1-.8.1-.9 1-1.1.3 0 .6-.1.7-.2.2-.3 1 .1 1 .6 0 .1.1.3.1.4.1.1.2.6.3 1.1.3 1.9.4 2.2.5 2.5.1.2.1.7.1 1.1 0 .6 0 .8-.4 1.1-.2.2-.6.4-.8.4-.3.1-.5.1-.6.2 0 0-.2.1-.4.1zm.5 24.1c0-.2-.1-4.2 0-9v-8.7h3.1c4.7-.1 4.3-.5 4.3 5.7 0 5.3 0 5.1-.9 5.6-.3.2-.8.2-2 .2-.9 0-1.7 0-1.8.1-.2.1-.2.5-.2 3 0 1.6 0 3.1-.1 3.2-.1.2-.3.2-1.2.2-1.1 0-1.2 0-1.2-.3zm8.8 13.3c-.5.5-.7.9-.4 1.1.2.1.1 2-.1 2.7-.1.4-.2.5-.5.5-.2 0-.6-.1-.8-.2l-.4-.2.1-1.2c.1-1.2 0-1.6-.4-1.6-.1 0-.3-.1-.5-.2-.6-.3-.9-.3-1.2.3-.1.3-.3.7-.3.8 0 .2-.1.4-.1.5-.1.1-.2.3-.2.4-.1.2-.2.2-.5.1-.6-.1-1.1-.4-1.1-.6 0-.1.1-.3.2-.5s.2-.5.2-.7.1-.4.1-.4c.1 0 .2-.3.2-.7 0-.3.1-.6.2-.7.1 0 .1-.3.1-.5s.1-.6.2-.7c.1-.2.2-.5.2-.7s.1-.5.2-.7c.1-.2.2-.5.2-.7 0-.6.8-.6 2.1-.2.3.1.8.2 1.1.3.8.2 1.4.5 1.7.8.2.2.3.4.3 1.3v1l-.6.7zm7.3 5.5c-.2.3-.9.3-1.3 0-.2-.2-.3-.4-.4-.9-.1-.6-.1-.6-.5-.7-.2-.1-.6-.2-.9-.3-.6-.2-1.2-.1-1.3.2 0 .1-.1.3-.2.4-.1.1-.2.3-.3.4s-.3.3-.4.3c-.4 0-1.3-.4-1.3-.6 0-.1.7-1.5.8-1.6s.2-.4.8-1.5c.1-.3.3-.5.4-.6.1 0 .1-.2.1-.3 0-.1.1-.3.1-.3.1 0 .2-.1.2-.3 0-.2.1-.3.2-.4 0 0 .2-.3.4-.7.2-.3.4-.7.4-.9.1-.2.3-.3.7-.3.9 0 1.2.2 1.4 1 .1.4.2.9.2 1.2s.1.9.2 1.3.2 1 .2 1.3.1.6.1.6c.1 0 .1.3.1.6s.1.8.1 1.1c.3.5.3.9.2 1zm.5-46.8c-.1-.2-.2-.5-.3-.7s-.2-.5-.3-.7-.2-.5-.2-.6-.1-.3-.2-.5c-.1-.1-.2-.4-.2-.5s-.1-.4-.2-.5c-.1-.1-.2-.4-.2-.5 0-.4-.3-.4-.4 0-.1.3-.1.8.1 2.1.2 1.9.3 2.5.1 2.6-.1 0-.5.1-.9.2-1.1.1-1.3-.1-1.3-1.4 0-.5-.1-1.1-.1-1.3-.1-.2-.2-1-.3-1.7-.2-2.7-.4-4.2-.5-4.7-.1-.2-.1-.8-.1-1.2s-.1-1-.1-1.4c-.2-1.1-.4-3.7-.2-4 .1-.1.3-.2.6-.2.2 0 .6-.1.8-.2.3-.1.4-.1.7 0 .2.1.3.2.3.3s.1.4.2.6c.1.2.3.9.5 1.4s.4 1.1.5 1.3.2.5.2.6.1.3.2.5c.1.1.2.4.2.5s.1.3.1.5c.1.2.1.2.3 0 .2-.3.2-4.2 0-4.9-.2-.9-.1-1.1 1-1.2 1.4-.1 1.4-.2 1.5 2.2 0 1.1.1 2.2.2 2.4.1.2.1 1.1.1 2.1 0 .9.1 2.2.1 2.7.1.6.2 2.1.3 3.4.1 2.9.1 3-.9 3-1.1.3-1.4.2-1.6-.2zm3.6 41c-.1.7-.1 1.9-.2 2.6 0 1.3-.2 2.9-.3 3.5-.1.2-.2.2-.9.2H63l.1-1.6c0-.9.1-2.6.2-3.8.1-2.4.1-2.4 1.1-2.4.9.1 1 .1.8 1.5zm-.6-13.1c-.3-.1-.7-.5-.8-.9s-.2-11.8 0-12.4c.1-.5.5-.9.7-.9.1 0 .3-.1.3-.1 0-.1.9-.1 2.2-.1 2.2 0 2.8.1 3.1.7.1.1.2.3.2.3.1 0 .1 1 .1 2.1v2h-2.2l-.1-1c-.1-.8-.1-1.1-.4-1.4-.4-.5-1-.5-1.4 0l-.4.4v8.4l.4.4c.5.5.9.5 1.4 0l.4-.4v-3h2.4v2.4c0 2.7-.1 3-.9 3.4-.3.1-.9.2-2.5.2-1.3 0-2.4 0-2.5-.1zm7.7 19.5c-.1.5-.2.5-.5.5-.2 0-1.3-.1-2.4-.1l-2-.1v-.6c0-.3.1-1.3.1-2.2.1-.9.2-2.3.2-3.2l.1-1.7h1.6l-.1 2.9c-.1 2.2 0 2.9.1 3s.8.1 1.5.2c1.3 0 1.4 0 1.5.4 0 .2 0 .5-.1.9zm8-6.4c-.1.5-.2 1.2-.2 1.5s-.1.9-.2 1.3-.2 1.1-.2 1.5-.1.8-.1.8c-.1 0-.1.2-.1.5 0 .7-.1.8-.7.8s-1-.3-1-.7c0-.1-.1-.3-.2-.4s-.2-.3-.2-.5-.6-.8-.7-.7l-.2 1c-.1.5-.1 1.1-.2 1.2-.1.3-.2.3-.8.3-.7 0-1-.2-1-.6 0-.2-.1-.5-.2-.7s-.3-.8-.4-1.2c-.1-.4-.3-.8-.3-.9-.1-.1-.1-.3-.2-.5-.1-.4-.3-1-.6-1.7-.1-.2-.2-.6-.2-.7 0-.2-.1-.3-.1-.4-.2-.1-.1-.5.2-.7.7-.3 1.2-.1 1.2.4 0 .1.1.4.2.7.4.8.4 1 .5 1.4 0 .2.2.4.3.4.2 0 .6-.8.6-1.6 0-.3.2-.8.3-1.1.2-.5.2-.5.7-.5s.5.1.8.9c.2.5.4.9.4 1s.1.3.2.5c0 .2.1.4.2.4.2 0 .6-1.1.6-1.7 0-.3.1-.7.2-1 .2-.4.2-.4.8-.4.8 0 .9.1.6 1.4zm.6-18.8c-.1.2-.1 1.6-.1 3.1v2.7h-1.1c-.6 0-1.1 0-1.2-.1-.1 0-.2-1.6-.2-7.1 0-3.8 0-7.1.1-7.2.1-.2.5-.2 3.4-.2h3.4v2.6h-2.1c-1.4 0-2.1 0-2.2.2-.2.2-.2 2.6 0 2.9s.3.3 1.6.3H84v2.4h-1.5c-1.5.1-1.5.1-1.6.4zm7.6 23.8c-.6.3-.9.3-1-.1 0-.1-.1-.3-.2-.3s-.1-.1-.1-.2-.1-.3-.3-.5c-.3-.3-.4-.3-1.1-.2-1 .2-1.3.3-1.3.6 0 .1 0 .3-.1.3-.1.1-.2.3-.2.6-.1.5-.1.5-.9.5h-.8l.1-.9c0-.5.2-1.4.3-2 .1-.6.3-1.5.3-2.1.1-.5.2-1 .2-1.1s.1-.5.2-.8c.1-.7.1-.7.5-.9.9-.4 1.4-.3 1.9.5.1.2.2.3.4.7 0 .1.2.5.4.8.2.4.6 1.1 1 1.8.3.6.7 1.4.9 1.7.2.3.4.6.4.7.1.4-.2.7-.6.9zm5.4-8.1c-.1.2-.2.5-.2.6s-.1.3-.2.5c-.1.1-.2.4-.2.6s0 .4-.1.5c-.2.2-.6 1.5-.5 1.6.1.2.4 1.6.6 2.4.1.6.1.7-.1.9-.1.1-.5.2-.8.2-.6 0-.6 0-.8-.5-.1-.3-.2-.6-.2-.8 0-.2-.1-.5-.2-.6-.1-.2-.2-.5-.2-.7 0-.4-.4-.9-1.4-1.7-1.5-1.2-2.1-1.9-2.1-2.1 0-.1.1-.2.2-.2s.4-.1.6-.2l.4-.2 1 .8c.6.4 1.1.8 1.2.9.2.3.7 0 .8-.4 0-.2.1-.5.2-.6.2-.3.5-1.1.6-1.4s.7-.5 1.2-.4c.5 0 .5.3.2.8zm2.6 6.2c-.2 0-.5.1-.6.1-.2 0-.2 0-.2-.2 0-.1-.1-.3-.1-.3-.2-.1-.1-.5.2-.7.5-.3.8-.2.9.2 0 .2.1.5.2.6-.1.1-.1.2-.4.3zM93.9 84c0 4.5 0 4.7 1 4.7.5 0 .6 0 .9-.3s.3-.5.3-1.8v-1.5h2.2v2.4c0 2 0 2.4-.2 2.6-.1.1-.2.2-.2.3 0 .1-.2.2-.5.4-.7.3-4.5.3-5 0-.8-.5-.8-.3-.8-6.6v-6.3c.1-.4.2-.7.5-.9l.4-.4h4.9l.4.4c.2.2.4.5.5.7s.1 1.1 0 2.2v1.9h-2.2v-1.1c0-1-.1-1.1-.4-1.4-.4-.3-1.1-.4-1.4-.1-.4.1-.5 1-.4 4.8zm4.3-30.3c-.1.8-.2 1.8-.2 2.3s-.1 1.3-.1 1.7c-.1.4-.2 1.7-.3 2.7-.3 4.9-.4 5.6-.6 5.7-.1.1-.2.1-.2.1s-.4-.1-.9-.1c-1.2-.1-1.3-.3-1.1-2 .1-.9 0-1.3-.4-1.3-.1 0-.4-.1-.6-.2-.2-.1-.6-.2-.9-.2-.4-.1-.6 0-.8.2-.1.1-.3.4-.3.5 0 .3-.5 1.6-.6 1.7s-.6.1-1.5-.1c-.5-.1-.9-.5-.7-.8.1-.1.2-.5.3-.8.1-.3.3-.7.4-.9s.2-.4.2-.5.1-.3.2-.5.3-.5.3-.8c.1-.2.2-.6.3-.8.1-.2.3-.7.4-1s.3-.8.4-1 .2-.5.2-.6.1-.2.1-.2c.1 0 .1-.1.1-.2s.1-.3.2-.5c.1-.1.2-.4.2-.5s.1-.4.2-.5.2-.4.2-.5.1-.4.2-.6c.1-.2.3-.6.4-.9.1-.3.3-.6.3-.8.1-.1.2-.5.3-.8.1-.3.3-.7.4-.9s.2-.4.2-.6c0-.4.4-.5 1.1-.4.4.1.8.2.9.2.1.1.4.1.7.2 1 .2 1.1.2 1.1 1.4.1.6 0 1.6-.1 2.3zm11.1.4c-.1 0-.1.2-.1.4s-.1.4-.2.7c-.1.2-.2.5-.2.6 0 .2-.1.4-.2.5s-.2.4-.2.5 0 .3-.1.4c-.1.1-.2.5-.3.9-.1.4-.3.9-.4 1.1-.1.2-.2.5-.2.7s-.1.4-.2.5-.2.4-.2.5c0 .2 0 .3-.1.4-.1 0-.2.3-.2.5 0 .3-.1.6-.2.7-.1.3-.4 1.1-.5 1.4 0 .2-.1.4-.2.6s-.2.4-.2.5c0 .2-.1.4-.2.7-.1.2-.2.5-.2.6s-.1.3-.1.3c-.1 0-.1.2-.1.3 0 .1-.1.4-.2.6-.3.7-.7.8-1.7.3-.8-.4-.8-.4-.7-3 .1-1.3.1-2.4.1-2.5-.1-.2-.7.6-.7 1 0 .2-.1.4-.2.6-.1.1-.2.4-.2.5 0 .2-.1.4-.2.7-.1.2-.2.5-.2.6s-.1.5-.2.8c-.2.5-.3.5-.6.4-.2 0-.6-.1-.9-.3-.5-.2-.5-.2-.6-.7 0-.3 0-.7.2-.9.1-.2.2-.5.2-.7s.1-.5.2-.7.2-.5.2-.7.1-.4.1-.4c.1 0 .2-.3.2-.6s.1-.6.2-.7c.1-.2.3-1 .5-1.8.1-.2.2-.6.3-.7.1-.2.1-.5.1-.7s.1-.4.1-.5c.1 0 .2-.3.2-.6s.1-.6.2-.7c.1-.2.3-.8.5-1.8.1-.3.2-.6.3-.8.1-.2.2-.8.4-1.2l.2-.8h.8c.8 0 1.5.2 1.5.4v3.2c0 1.9.1 3.1.1 3.1.1 0 .3-.4.5-.9.2-.6.4-1 .4-1.1 0 0 .1-.2.1-.3s.1-.4.2-.6c.2-.5.5-1.2.6-1.6.2-.8.5-1.2.7-1.1.1 0 .5.2.8.3.9.2 1.2.4 1.2.9-.3 0-.3.2-.4.2z"/>
        <path d="M51.5 101.8c-.2 0-.5-.1-.7-.2-.3-.1-.3 0-.5.3-.1.2-.1.5-.1.8s.1.4.4.4c.2 0 .4.1.5.2.4.4 1.4-.2 1.2-.7 0-.4-.4-.7-.8-.8zm6.4-15.7c.1-.2.1-.3 0-.9-.1-.4-.2-.8-.3-1-.1-.5-.3-.5-.6.1s-.4 1.5-.2 1.8c.1.2.9.2 1.1 0zm11.9-28.7h.8v-.5c0-.3 0-.8-.2-1.3-.1-.4-.2-1-.2-1.3s-.1-.7-.2-1-.2-.6-.2-.8c0-.1-.1-.3-.2-.3s-.2.2-.3.8c0 .4-.1.9-.2 1 0 .1-.1.7-.2 1.2-.1.6-.2 1.2-.2 1.4-.1.2 0 .4.1.6.1.2.4.2 1 .2zm15.1 47.5c-.2.1-.2 1 0 1.2 0 0 .2.1.3 0 .1 0 .3-.1.4-.1.3 0 .2-.6-.1-.9-.3-.2-.5-.2-.6-.2z"/>
        <path d="M127.5 34.5c-.4-.1-5.5-.2-16.7-.4-6.2-.1-11.3-.2-11.8-.3-2.2-.4-6.2-1.4-7.9-2-.3-.1-.6-.2-.8-.3-1.8-.7-3.2-1.2-3.6-1.4-.1-.1-.3-.1-.4-.1s-.1.9-.1 2.6c0 2.3 0 2.7-.2 3-.6.8-1.5 1.2-2.4.9-1-.3-1.6-.8-1.9-1.7-.1-.4-.1-.6 0-1.1.2-.6.4-.8 1.4-1.1.2-.1.2-.3.2-2v-2l-1.1-.6c-.6-.3-1.2-.7-1.3-.7-.1-.1-.4-.3-.7-.4-.3-.2-.6-.3-.6-.4s-.1-.1-.1-.1c-.3 0-3.6-2.4-5.4-4-1.5-1.3-2.8-2.3-3-2.3-.1 0-.5.4-.9.8S69 22 68.5 22.4s-1.1.9-1.2 1c-.2.2-.4.3-.4.3s-.2.1-.3.2c-.4.4-1.3 1-1.4 1s-.2 0-.2.1-2.5 1.7-4.2 2.8l-.7.5v2c0 2.2 0 2.2.8 2.3 1.1.2 1.6 1.5.9 2.4-.8 1.1-2.6 1.3-3.5.4-.5-.4-.7-1.5-.5-1.7.2-.1.3-1.2.2-2.6-.1-1.3-.1-1.3-.4-1.3-.2 0-.6.2-1 .4-.8.4-1.6.7-2 .8-.1 0-.4.1-.5.2-.8.3-4.2 1.3-6 1.7-3.7.8-3.9.9-18.5.9-7.5 0-13.3.1-13.3.2s3.7 4 9.4 9.8l2.7 2.7v22.8c0 21.5 0 24.1.4 26.7.1 1 .2 1.3.6 3 .2.9.9 2.9 1.1 3.5.3.7 1.4 3.1 1.7 3.5 1.3 2.3 3.6 5.1 6.1 7.4 1.3 1.2 4.5 3.7 5.6 4.4.3.2 2.5 1.6 2.8 1.9.4.3 6 3.7 6.2 3.8.1 0 .4.2.6.3.2.1.5.3.6.3s.5.3 1 .6c.4.3.9.5 1 .6s.3.2.5.3c.1.1.6.4 1 .6.4.3.9.5 1 .6s.3.2.5.3c1 .5 4.3 2.7 6 4 1.3 1 1.8 1.4 3.2 2.9 1.5 1.5 1.7 1.8 2.4 3.1.3.6.6 1 .6 1s.3-.3.5-.7c.5-.9 2.1-3 2.7-3.7 3.5-3.8 6.9-6.2 14.9-10.3 3.3-1.7 5.3-2.7 6.7-3.5.6-.3 1-.6 1.1-.6s.7-.4 1.5-.9 1.5-.9 1.6-.9 2.7-1.8 3.6-2.5c1.1-.9 1.4-1.1 2.3-2.2.4-.4.8-.9.8-1 .3-.3 1.6-2.1 2.3-3.2 1.6-2.4 3.4-6.3 4.2-9.3.1-.4.3-1 .4-1.4.3-.9.6-2.3 1.1-5.3.2-1.2.2-3 .3-23.9.1-19.8.1-22.6.3-22.8.1-.1.8-.8 1.5-1.4.7-.6 1.8-1.6 2.3-2.2.6-.5 1.7-1.6 2.5-2.4.8-.7 1.7-1.5 1.9-1.8.2-.2 1.1-1 2-1.8s1.6-1.5 1.7-1.6c.2-.1.2-.1 0-.2zm-43.1 4.4c.5-.1 1.7-1.2 1.9-1.8.1-.2.2-.3.3-.3.1 0 .2.1.1.2s-.2.4-.3.7c-.2.4-.8 1.1-1.3 1.5-.1.1-.4.2-.8.3-1 .3-1.9.1-2.7-.7-.6-.6-.9-1-1.2-2-.2-.8-.3-1.2-.1-1.2.1 0 .1.1.1.2s0 .3.1.4c.1.1.2.5.4.8.8 1.6 2.1 2.3 3.5 1.9zM73 25.4c.3.2 1 .8 1.6 1.3s1.1.9 1.2.9c.1.2 3.1 2.1 3.5 2.3.1 0 .6.3 1 .6s.9.5.9.5c.1 0 .2.1.3.2.1.1.3.2.4.2s.3.1.5.2c.3.2.2.4-.1.3-.3-.1-2.1-1-2.8-1.4-.2-.2-.5-.3-.6-.4-.1 0-.4-.2-.6-.4-.2-.2-.4-.3-.5-.3s-.3-.2-.6-.4-.5-.4-.6-.4-1.9-1.3-2.2-1.6c-.1-.1-.3-.3-.5-.4-.7-.5-1.5-1.3-1.5-1.5-.1-.2.1-.1.6.3zm-12 6.1c-.1 0-.2-.4-.2-1.5 0-1.7-.1-1.5 1.5-2.4.3-.2.6-.3.6-.4.1-.1.5-.4.9-.5.2-.1.3-.2.3-.3 0-.1.1-.1.1-.1.2 0 2.8-2 4.6-3.4.3-.2.8-.6 1-.9.3-.2.6-.6.8-.7.2-.2.4-.3.4-.3s.1.8.1 1.9v1.9l-.5.4c-.3.2-.7.6-.9.8-.2.2-.5.4-.7.6-.1.2-.3.3-.4.3s-.3.2-.6.4c-.2.2-.7.5-.9.7-.3.2-.6.4-.7.5-.3.2-.7.5-.9.6-.1 0-.2.1-.2.2l-.6.4-.6.4c0 .1-.1.1-.3.1-.1 0-.3.1-.3.1 0 .1-.6.4-1.3.7-.5.2-1.1.5-1.2.5zm-1.7 6.7c1 .5 2.1.3 2.9-.6.4-.5.9-1.4.9-1.8 0-.2.1-.4.2-.6.2-.2.2-.2.3.2.1.3 0 .6-.1 1-.1.3-.2.7-.2.8 0 .3-.7 1.1-1.3 1.4-.5.4-.8.4-1.6.4-1.2 0-1.5-.2-2.4-1-.6-.6-1.1-1.5-1-1.6s.5.1.5.3 1.2 1.2 1.8 1.5zM31 34.6c6.1 0 11.7-.1 12.5-.1 2.5-.2 3.5-.3 3.7-.5.1-.1.4-.2.8-.2.8-.1 1.9-.4 2-.5s.2-.1.4-.1.5-.1.7-.2c.2-.1.5-.2.7-.2s.4-.1.5-.2c.1-.1.4-.2.5-.2.2 0 .3-.1.4-.1 0-.1.3-.2.5-.2.2-.1.5-.1.6-.2s.4-.2.7-.3c.3-.1.7-.3.9-.4s.5-.2.6-.2.3-.1.5-.2c.1-.1.3-.2.4-.1.1 0 .1.7.1 1.5v1.5l-.5.2c-.3.1-.5.3-.6.3-.2.2-1 .5-1.2.5-.1 0-.3.1-.5.2-.1.1-.4.2-.5.2-.2 0-.4.1-.6.2-.2.1-.7.3-1.1.4-.4.1-.9.3-1 .3-.1.1-.4.1-.6.1-.2 0-.5.1-.8.2-.3.1-.6.2-.8.2s-.6.1-.8.2c-.3.1-.7.2-.9.2s-.6.1-.9.2c-.2.1-.9.2-1.4.2s-1.3.1-1.7.1c-.7.1-15.9.3-17.1.2-.5 0-1.3-.4-3.6-1.5l-3-1.5H31zm40.2 99.9c0 .9-.1 1.7-.1 1.7s-.2-.2-.3-.4c-.1-.2-.3-.5-.5-.7s-.5-.5-.7-.8c-.7-.9-1.9-2.1-3.4-3.3-.2-.2-1-.7-1.7-1.3-.7-.5-1.4-1-1.4-1.1-.1-.1-.3-.2-.6-.4-.3-.1-.5-.3-.5-.3l-.4-.2c-.3-.1-.6-.3-1.2-.7-.5-.3-.8-.5-1.1-.7-.2-.1-2.4-1.4-2.7-1.6-.1-.1-.3-.2-.4-.2-.1 0-.3-.2-.4-.3-.1-.1-.3-.2-.4-.2s-.2 0-.2-.1-.1-.2-.3-.2c-1.1-.6-1.5-.8-1.6-.9 0 0-.4-.2-.7-.5-.4-.2-.8-.4-.9-.5-.1-.1-.4-.2-.5-.3-.1-.1-.4-.3-.7-.5s-.6-.4-.7-.4c-.1 0-.2-.1-.2-.1 0-.1-.1-.1-.1-.1-.1 0-.7-.3-1.3-.7-.6-.4-1.2-.7-1.2-.7-.1 0-1.5-1-1.8-1.3-.1-.1-.2-.1-.2-.1l-.6-.4-.6-.4c-.1 0-.1 0-.1-.1s-.2-.2-.5-.4-.6-.4-.7-.5c-.1-.1-.5-.4-.9-.7-1.9-1.4-4.1-3.4-5-4.5-.1-.2-.5-.6-.8-1s-.8-1-1-1.4-.5-.7-.5-.7l-1-1.6c-.5-.9-1-1.6-1.1-1.8-.1-.1-.2-.3-.2-.4s-.2-.4-.2-.6c-.1-.2-.3-.6-.4-.9s-.3-.6-.3-.7c-.1-.1-.1-.4-.1-.5 0-.2-.1-.4-.2-.6s-.2-.5-.2-.7-.1-.5-.2-.7-.2-.5-.3-.9c-.1-.3-.2-1.1-.3-1.8-.1-.6-.3-1.8-.3-2.6-.1-.8-.1-11.9-.1-24.6V45.9l-5.7-5.7c-3.1-3.1-5.6-5.7-5.6-5.7.1 0 .3.1.6.3.2.1.9.5 1.4.8.6.3 1.5.8 2.1 1.1s1.3.7 1.6.9c.3.2.6.3.6.4 0 .1.1.1.3.1.1 0 .3.1.4.2.1.1.3.2.5.2s1.3 1 3.3 3l3 2.9V68c0 15.8 0 23.8.1 24.2.1.3.2.9.2 1.4s.1.9.2 1.1c.1.1.1.4.1.7 0 .3.1.7.2.9.1.3.2.6.2.8 0 .2.1.5.2.7.1.2.2.4.2.6s.1.4.2.7c.1.2.2.5.2.6s.1.3.1.3c.1 0 .1.2.1.3 0 .2.3 1 .5 1.3.1.1.2.3.2.4.2.5 1.2 2.5 1.3 2.6 0 0 .2.3.3.5.3.5 1.6 2.3 1.8 2.6.1.1.2.2.2.3 0 .2 3.4 3.6 4.2 4.2.4.3.7.6.7.6.3.3 4.3 3.2 4.8 3.4.1 0 .4.2.6.3.2.1.5.3.6.3s.2.1.2.2l.6.4c.3.2.6.3.7.4.1.1.5.3 1.3.7.3.1.5.3.5.3.1.1.5.4 1.2.7.3.2.6.3.7.4s.2.1.4.2l1 .5c.4.2.9.5 1.2.7s.6.3.6.4l.4.2c.2.1.6.3 1 .6.4.2.8.4.9.5.1.1.6.3.9.6.4.2.7.5.8.5.3.1.6.4 1.8 1.2.6.4 1.2.8 1.4.9.1.1.3.2.4.3.1.1.4.3.7.5l.6.4s.4.3.7.6c1.7 1.4 3.7 3.3 3.8 3.8 0 .2.1.5.2.7.1.1.1 1.1.1 2zm40.4-39.7s-.1 0-.1-.2c0-.1 0-.2.1-.1v.3zm4.7-55.6c-.3.3-1.6 1.5-2.9 2.8l-2.3 2.3-.1 22.9c-.1 22.3-.1 23.6-.5 25.6-.1.4-.2 1.2-.3 1.8-.4 2.2-1.2 5.1-1.7 6.4-1.8 4.3-3.2 6.6-5.8 9.3-1.1 1.1-3.8 3.3-5 4-3.6 2.2-3.4 2.1-7.7 4.2-4.6 2.3-6.3 3.1-7.9 4.1-1.5.8-4.7 3.1-6.7 4.8-.6.5-1.1.9-1.2 1l-1.3 1.3c-.7.7-1.3 1.2-1.4 1.2s-.7-.5-1.4-1.1c-1.8-1.7-3.3-3-4-3.4-.2-.1-.4-.2-.5-.3-.2-.1-1-.7-1.6-1.1-.1-.1-.4-.2-.5-.2s-.2-.1-.2-.2-.1-.1-.3-.2c-.2 0-.3-.1-.3-.2s-.1-.1-.2-.1-.3-.1-.4-.2c-.1-.1-.2-.2-.3-.2s-.2 0-.2-.1-1.2-.8-1.6-1c-.1 0-.2-.1-.2-.2s-.1-.1-.2-.1-.4-.1-.6-.3c-.2-.2-.4-.3-.5-.3s-.2-.1-.3-.1c0-.1-.2-.2-.4-.3-.2-.1-.4-.2-.5-.3-.1-.1-1.2-.7-2.4-1.4-4.6-2.6-9-5.4-10.4-6.5-1.8-1.5-4-3.5-5-4.7-1.2-1.4-2.8-3.8-3.4-4.8-.1-.3-.4-.7-.5-1-.2-.3-.3-.6-.3-.7s-.1-.3-.2-.3c-.1-.1-.2-.3-.2-.4s-.1-.4-.2-.7c-.4-.8-.4-.8-.5-1.3 0-.3-.1-.5-.2-.5s-.1-.2-.1-.3c0-.1-.1-.4-.2-.7-.1-.2-.2-.6-.2-.8 0-.2-.1-.7-.2-1-.1-.3-.2-.9-.3-1.3s-.2-1.1-.3-1.6c-.1-.7-.2-6-.2-24.8V44.3l-.9-.9c-.5-.5-1.8-1.7-2.9-2.7-1.6-1.6-1.9-1.9-1.7-2 .2-.2.8-.1.8.1 0 .1.1.1.2 0 .2-.1.3-.1.4.1.1.2.7.2 3.2.2 2.1 0 3.1 0 3.1-.1.1-.2 2.5-.3 5.2-.3.9 0 2.6-.1 3.8-.2 1.2-.1 2.2-.2 2.4-.1h.4c.2-.1 1.2-.4 1.6-.4.7 0 4.8-1.3 5.8-1.8.2-.1.5-.2.6-.2s.3-.1.4-.1c.1-.1.4-.2.7-.3.7-.2.9 0 .8.7-.2 1.1.8 2.8 2 3.4 1.8 1 3.8.8 4.9-.5.5-.5 1.1-2.3 1.1-3.1 0-1.2-.6-2.3-1.4-2.9-.4-.3-.5-.4-.5-.7s.3-.5 1.3-1c2.4-1.3 4.5-2.7 7-4.9.8-.7.6-.7 2.2.5.8.6 1.6 1.3 1.9 1.5s.5.3.5.4c0 0 .5.3 1 .7 2.4 1.5 2.5 1.6 4.5 2.7.3.2.6.4.7.5.1.3-.1.7-.4.8s-.8.7-1.2 1.4c-.4.8-.4 2.2 0 3.2.3.8 1.1 1.6 2 2.1.6.3.7.4 1.8.3 1 0 1.3-.1 2-.4 1.4-.7 2.2-1.9 2.2-3.4 0-.5 0-1 .1-1.1.1-.3.5-.3 1.1 0s1.2.6 2 .9c.4.1.8.3.9.3.5.2 2.9.8 4.1 1 2.4.5 7.9.8 15.1.9 4.1.1 5.8.1 5.9.2-.4-.5-.6-.2-.9.1z"/>
        <path d="M95.4 55.1c-.2-.1-.7.3-.7.5 0 .1-.1.3-.1.4-.2.4-.9 2-.9 2.1s-.1.3-.2.5-.3.5-.3.6c-.1.1 0 .3.4.5.3.2.7.3.9.3.6 0 .7-.3.8-2.7.1-1.1.2-2 .2-2.1 0 0 0-.1-.1-.1zM79 60.7c1.2 0 1.4-.5 1.6-3.8.1-1.2.2-2.7.2-3.2.2-1.4.2-3.6 0-3.8-.1-.1-.5-.2-.9-.3-1.1-.2-1.2-.2-1.3 1.6-.1.8-.2 1.8-.2 2.1-.1.3-.1 1.4-.1 2.3 0 .9-.1 2.3-.1 3.1-.1 1.4-.1 1.5.1 1.7.1.2.3.3.7.3zm-28.2-1.3c1.3-.2 1.3-.2 1.4-.6 0-.2 0-.4-.1-.6-.2-.3-.4-1.1-.5-1.4 0-.1-.1-.4-.2-.7-.1-.2-.2-.5-.2-.6s0-.2-.1-.3-.2-.3-.2-.6c-.2-.7-.3-.7-.5 0s-.2 4.5 0 4.7c-.1.1.2.2.4.1zm-1.4 22.2c.3-.2.3-.3.3-2.8v-2.6l-.3-.2c-.4-.3-1.5-.3-1.8 0-.2.2-.2.5-.2 2.8 0 2.1 0 2.6.2 2.8.2.4 1.4.4 1.8 0zm9.1 23.2c-.2 0-.6.8-.5 1s1 .2 1.1 0c0-.2-.5-1-.6-1z"/>
    </g>
</svg>
