<svg xmlns="http://www.w3.org/2000/svg" viewBox="0 0 144 144">
    <circle fill="#32763f" cx="72" cy="72" r="70.2"/>
    <path fill="#fff" d="M46.447409 126.041573c-7.081196-22.099556-25.834692-81.161396-25.679061-81.706103 9.33784-.233446 10.271624.15563 15.407436-.077815-.389076-2.801353-2.49009-8.559687-4.279843-16.419036 13.150792 0 75.714322 0 80.227611.077815-1.32286 5.447074-2.412275 10.271624-4.046397 15.796513 6.536488.389077 8.559687.15563 15.01836.233446-16.107775 51.513753-19.376019 62.018823-25.834692 82.017364-22.02174 0-28.713859.077816-50.813414.077816z"/>
    <path d="M52.283559 126.275019h-6.069596l-.077816-.233446c-.233446-.778154-25.990322-81.08358-25.67906-81.861734l.077815-.15563h.233446c5.057997-.155631 7.625903-.077816 9.726917 0 1.789753.077815 3.190429.077815 5.369258 0-.233446-1.400676-.855969-3.50169-1.634122-6.147412-.778153-2.723537-1.789753-6.069596-2.645721-9.882548l-.077816-.389076h6.84775c20.85451 0 69.72254 0 73.846754.077815h.389076l-.077815.389077c-.311261 1.089414-.544707 2.17883-.778153 3.268244-1.0116 4.046397-1.867568 7.937164-3.19043 12.217008 3.890768.233446 6.147412.233446 8.87095.233446 1.634121 0 3.423874 0 5.83615.077815h.389076l-.15563.389077c-3.034799 9.571286-5.52489 17.66408-7.703719 24.745276-9.571286 30.737058-12.83953 41.008682-18.053158 57.272088l-.077815.233446h-.233446c-12.83953-.077816-20.231987 0-28.947305 0-4.82455-.233446-9.804732-.233446-16.18559-.233446zm-5.602704-.544708h50.424338c5.291442-16.107774 8.481871-26.53503 18.053157-57.03864 2.17883-6.925566 4.66892-15.01836 7.625903-24.356201h-5.447073c-2.723537 0-5.135812 0-9.18221-.233446h-.389076l.077815-.389077c1.32286-4.435474 2.256645-8.32624 3.190429-12.450454.233446-1.011599.466892-1.945383.700338-2.956982-5.913966 0-53.07006-.077816-73.457677-.077816h-6.147412c.855969 3.735136 1.789753 6.925565 2.567906 9.571287.855969 2.801352 1.478491 5.057997 1.634122 6.536488l.077815.311261h-.31126c-2.412276.077816-3.890768.077816-5.68052 0-2.0232-.077815-4.591105-.077815-9.415656 0 1.16723 4.435474 18.52005 58.828394 25.67906 81.08358z"/>
    <path fill="#fff" d="M95.548886 124.018374c11.594485-35.483793 14.551468-44.354742 24.978723-78.204413h-15.407437c1.711938-6.380857 2.723537-9.026579 4.51329-16.18559-19.68728-.15563-60.929408.077816-75.169615.155631 1.634122 7.00338 2.101014 8.481872 4.51329 16.652482-6.380858.077815-8.637503-.077815-15.485252 0 7.703718 25.52343 17.35282 54.626366 24.900907 77.73752 21.01014 0 25.21217-.15563 47.156094-.15563z"/>
    <path d="M58.041894 124.329635h-9.882548l-.077815-.233446c-1.089415-3.190428-2.101014-6.380857-3.190429-9.726917-7.081195-21.554848-15.01836-45.988863-21.710479-68.010603l-.077815-.389077h.389077c3.735136-.077815 5.99178-.077815 8.481871 0 1.867568 0 3.890767.077815 6.69212 0-2.412276-7.937164-2.801353-9.415656-4.435475-16.34122l-.077815-.311262h.311261c15.563067-.15563 56.027042-.311261 75.169615-.15563h.389076l-.077815.389076c-1.0116 4.046398-1.789753 6.692119-2.49009 9.415656-.544708 1.867568-1.089415 3.890767-1.789753 6.458673h15.48525l-.15563.389076c-9.104395 29.803274-12.606085 40.54179-21.087956 66.454297l-3.890767 11.983562h-.233446c-10.50507 0-16.885928 0-23.03334.077815H58.041894zm-9.493471-.466892c10.894147.077816 17.275004 0 23.889308 0 6.147412 0 12.450454-.077815 22.955524-.077815l3.812952-11.6723c8.404056-25.834692 11.905746-36.573208 21.01014-66.143036h-15.485252l.077816-.389077c.700338-2.723536 1.32286-4.82455 1.867568-6.769934.778153-2.645721 1.556307-5.213627 2.49009-9.026579-19.142572-.15563-58.750578.077815-74.469276.15563 1.556307 6.69212 2.023199 8.170611 4.357659 16.107775l.15563.466892h-7.392456c-2.412276 0-4.591105-.077815-8.092795 0 6.692119 22.02174 14.629283 46.37794 21.632663 67.699343 1.16723 3.34606 2.256645 6.536488 3.190429 9.649101z"/>
    <path fill="#fff" d="M50.882883 121.450468c-8.559687-25.212169-11.283224-34.86127-21.01014-65.442698-1.16723-3.735136-2.0232-6.84775-1.945384-7.081195 5.758335 0 8.793133-.077816 15.01836 0-1.789753-6.225227-2.490091-8.092795-4.746736-16.652482 26.301584-.389077 40.074898-.233446 66.843374 0-1.478492 6.614303-1.789753 8.01498-3.890767 15.796513 7.081196.389077 8.948764.233446 15.251806.389077-9.18221 30.581427-9.649102 31.904287-23.3446 72.990785-20.621065.15563-23.88931.077815-42.175913 0z"/>
    <path d="M74.227484 121.839545H61.310138c-2.956983 0-6.303042 0-10.427255-.077816h-.233446l-.077815-.233446c-5.913966-17.430635-8.948764-27.235367-13.617684-42.020281-2.023199-6.536488-4.435474-13.928945-7.392457-23.422416-.855969-2.490091-2.17883-6.925565-1.867568-7.314642l.077815-.15563h6.225227c2.567906 0 5.057997-.077816 8.481872 0-.622523-2.101015-1.089415-3.735137-1.556307-5.291443-.855969-2.879168-1.711937-5.602705-3.112613-11.049778l-.077816-.389077h.389077c24.978723-.389077 38.518591-.233446 62.952607 0l4.202028.077815-.622523 2.801353c-1.089415 4.591104-1.478491 6.536488-3.268244 12.99516 3.890767.233447 6.147412.233447 8.559687.311262 1.789753 0 3.735136.077815 6.380858.15563h.389076l-.077815.389077c-8.248426 27.624445-9.571286 31.437396-19.68728 61.941008l-3.735136 11.205408h-.233446c-8.481872 0-13.928945.077816-18.753496.077816zm-23.111155-.622523c4.046397 0 7.392457 0 10.271624.077815 10.115994.077816 15.640883.077816 31.437396-.077815l3.579506-10.894147c10.115993-30.270166 11.438854-34.316563 19.531649-61.629746-2.49009-.077816-4.279844-.15563-5.991781-.15563-2.49009-.077816-4.82455-.077816-8.870948-.311262h-.466892l.077815-.389077c1.867568-6.692119 2.33446-8.637502 3.34606-13.228607l.466891-2.17883h-3.50169c-24.3562-.233446-37.818253-.389076-62.56353 0 1.400676 5.213628 2.17883 7.85935 3.034798 10.738517.466892 1.711937 1.0116 3.34606 1.634122 5.68052l.077816.389076h-.389077c-3.65732-.077815-6.147412 0-8.870948 0h-5.83615c.15563.778153.778153 3.190429 1.867568 6.692119 3.034798 9.493471 5.291442 16.885928 7.392456 23.422416 4.746736 14.784914 7.85935 24.51183 13.773315 41.86465z"/>
    <path fill="#fff" d="M64.734013 101.06285c-2.490091-2.49009-3.735136-3.812952-5.913966-6.069596-.15563 8.404056.15563 9.415655.077816 18.130973 2.178829.311261 3.812951.077815 5.83615-.077815-.15563-3.968583-.077816-8.01498 0-11.983562z"/>
    <path d="M61.076692 113.435488c-.700338 0-1.400676-.077815-2.256645-.15563h-.233446v-.233446c.077816-4.124213 0-6.458673-.077815-8.793133-.077815-2.490091-.077815-4.902367 0-9.415656V94.2151l.389077.466892c2.101014 2.256645 3.346059 3.423875 5.524888 5.758335l.389077.389077v.700338c-.077815 3.735136-.15563 7.625903-.077815 11.438854v.311262h-.311262c-.389076 0-.855968.077815-1.245045.077815-.544707.077815-1.32286.077815-2.101014.077815zm-1.945383-.622522c1.556306.233446 2.801352.077815 4.279843 0 .389077 0 .622523-.077816 1.0116-.077816-.077816-3.735136 0-7.470272.077815-11.205408v-.466892l-.311262-.311261c-2.023198-2.101015-3.268244-3.268245-5.135812-5.291443-.077815 3.968582 0 6.303042 0 8.715317.077816 2.33446.077816 4.746736.077816 8.637503z"/>
    <path fill="#fff" d="M81.853387 85.733229c4.51329 6.536488 5.213627 7.781533 9.804732 14.473652 2.567906-.077815 3.735136.15563 6.536488-.077815-4.66892-8.092795-5.99178-10.19381-9.960363-17.35282.778154-.544707.855969-.855969 1.945384-1.245045 3.034798-1.089415 7.236826-4.124213 9.260025-6.69212 3.890766-4.82455 3.423874-10.971962-.85597-13.539868-1.245044-.778153-2.178828-1.16723-12.061376-.933784l-10.816332.311261c-.077815 7.00338 0 7.548088 0 13.617684.389077.311262 4.591105-2.645721 5.991781-4.202028-.15563-1.32286-.311261-2.023199-.077815-3.50169h13.539868l.466892 1.089415c1.089415 2.33446-.778153 4.746735-5.447073 7.314641-1.556307.778154-4.124213 2.956983-6.147412 4.279844-4.357659 2.879167-5.291443 2.567906-8.248426 3.890767-.077815 9.49347-.544707 10.738516-.31126 17.197189 2.49009.077815 3.579505.233446 6.069595.15563.155631-6.536488-.233446-8.01498.311262-14.784913z"/>
    <path d="M79.752373 100.595958c-.933784 0-1.789753-.077815-2.645722-.077815-.466892 0-1.0116-.077816-1.556307-.077816h-.233446v-.233446c-.15563-3.579505-.077815-5.524889.077816-8.248425.077815-2.101015.233446-4.746736.233446-8.870949v-.15563l.15563-.077816c1.0116-.466892 1.789753-.778153 2.490091-1.089414 1.478492-.466892 2.801352-1.089415 5.68052-2.956983.855968-.544708 1.789752-1.16723 2.567906-1.867568 1.32286-1.0116 2.645721-1.945384 3.579505-2.490091 4.591105-2.49009 6.380858-4.746736 5.369258-6.925565l-.389076-.933784H82.009017c-.15563 1.089415-.077815 1.789753.077816 2.567906 0 .233446.077815.389077.077815.622523v.15563l-.077815.077816c-1.089415 1.16723-5.68052 4.66892-6.380858 4.279843l-.15563-.077815V60.131984l10.971962-.311262c10.115994-.233446 10.894147.233446 12.217008 1.0116 1.789752 1.089414 3.112613 2.879167 3.50169 5.135811.544707 2.956983-.389077 6.147412-2.567906 8.870949-2.101014 2.645721-6.303043 5.68052-9.415656 6.769934-.700338.311261-1.0116.466892-1.32286.778153-.155631.077816-.233447.233446-.389077.311262 3.50169 6.380857 4.902366 8.793133 8.559687 15.01836l1.556306 2.567905h-.389076c-1.711938.155631-2.723537.077816-3.890767.077816h-2.801352l-.077816-.15563c-2.17883-3.19043-3.50169-5.135813-4.746735-7.003381-1.32286-1.945383-2.49009-3.890767-4.66892-6.84775-.311262 4.046398-.311262 6.147412-.233446 8.793133 0 1.400676.077815 2.956983.077815 4.980182v.311261h-.311261c-.700338.077815-1.322861.15563-1.867568.15563zm-3.968583-.700338c.466892 0 .933785.077815 1.322861.077815 1.478492.077815 2.49009.15563 4.279844.077815 0-1.867568 0-3.423874-.077816-4.66892-.077815-2.801352-.15563-5.057997.311262-9.571286l.077815-.778153.389077.622522c2.412275 3.423875 3.735136 5.369259 5.135812 7.470273 1.245045 1.867568 2.49009 3.812951 4.66892 6.84775h2.49009c1.089415 0 2.0232 0 3.423876-.077816l-1.089415-1.789753c-3.735136-6.303042-5.135812-8.715318-8.715318-15.17399l-.15563-.233446.233446-.155631c.233446-.15563.389076-.311261.544707-.389077.389077-.311261.700338-.544707 1.478491-.855968 2.956983-1.089415 7.159011-4.046398 9.18221-6.69212 2.101014-2.567905 2.956983-5.680519 2.49009-8.404056-.389076-2.023198-1.556306-3.735136-3.190428-4.746735-1.16723-.700338-1.945383-1.089415-11.905746-.933784l-10.50507.233446v12.995161c.933783-.389077 4.124212-2.567906 5.447073-3.968582 0-.233446 0-.389077-.077816-.466892-.077815-1.0116-.233446-1.711938 0-2.956983v-.233446h13.85113l.544707 1.245045c1.16723 2.490091-.700338 5.057997-5.602704 7.625903-.933784.466892-2.17883 1.400676-3.50169 2.412276-.933784.622522-1.789753 1.32286-2.645721 1.867568-2.956983 1.945383-4.35766 2.49009-5.83615 2.956983-.700338.31126-1.400676.466892-2.33446.933784 0 4.124212-.155631 6.692118-.233447 8.793133 0 2.567906-.15563 4.513289 0 7.937164z"/>
    <path fill="#fff" d="M51.038514 84.87726c6.380857 6.769934 7.937164 8.793133 14.629283 15.329621 2.801352 0 3.579505 0 6.692119-.077815-4.980182-5.991781-9.260025-10.894147-14.86273-17.041559-.15563-1.945383.077816-3.423875 0-6.536488-.15563 0-1.32286.544707-2.33446 1.0116-1.089414.389076-2.33446.544707-2.956982.389076l-1.089415-.311261V66.590656l6.458673-.077815c7.392457-.077816 7.937164 0 8.481871.466892.233446.233446.389077 3.579505.311262 8.715317-.077816 5.52489 0 8.404057.311261 8.559687.544708.389077 7.236826-1.867568 10.816332-3.735136 1.634122-.855969 4.279843-2.412275 5.99178-3.50169 3.579506-2.412275 10.19381-8.637502 9.882548-9.415656-2.33446-.077815-3.890766 0-6.614303-.15563l-3.890767 2.723536c-2.412275 1.634123-5.057997 3.890767-6.303042 4.591105-2.723537 1.322861-8.559687 3.34606-8.870948 3.112614-.077816-.077816.466892-.933784 1.400676-1.789753 2.412275-2.412275 3.50169-4.980182 3.50169-8.092795 0-3.112613-.622523-4.82455-3.34606-6.769934-9.33784-.311262-13.539868-.15563-24.122754-.077816-.233446 12.372639-.077815 31.904288-.077815 38.674222 2.256645.155631 3.890767.155631 5.99178.077816.077816-6.380858.233447-9.02658 0-15.01836z"/>
    <path d="M68.080072 100.518142h-2.490091l-.077815-.077815c-4.82455-4.66892-6.925565-7.00338-10.193809-10.50507-1.089415-1.245046-2.49009-2.645722-4.046397-4.357659.15563 3.890767.15563 6.303042.077815 9.571286 0 1.400676-.077815 2.879168-.077815 4.66892v.311262h-.311262c-1.945383.077815-3.579505.077815-5.99178-.077816h-.311262v-1.867568c0-7.625903-.077815-25.67906.077815-37.117915v-.311261h6.458673c6.380858-.077816 10.660701-.077816 17.897528.311261h.077815l.077815.077815c2.956983 2.101015 3.423875 3.968583 3.423875 7.00338 0 3.19043-1.089415 5.913966-3.579505 8.326242-.544708.544707-.933784 1.011599-1.089415 1.245045 1.32286-.311261 5.83615-1.789753 8.248425-3.034798.778154-.389077 2.0232-1.32286 3.34606-2.412275 1.0116-.778154 1.945383-1.478492 2.956983-2.17883l4.046397-2.645721h.077816c1.400676.077815 2.49009.077815 3.579505.077815 1.0116 0 1.867568 0 3.034798.077815h.233446l.077815.233446c.389077 1.089415-7.00338 7.703719-9.960363 9.649102-1.711937 1.089415-4.357658 2.645721-5.99178 3.50169-2.956983 1.478492-10.271625 4.202028-10.971963 3.735136-.233446-.15563-.544707-.389076-.389077-8.870948.077816-6.225227-.15563-8.248426-.233446-8.559687-.389076-.389077-1.089414-.389077-8.248425-.389077l-6.225227.077816v10.582885l.933784.233446c.622523.155631 1.789753 0 2.801352-.389076.544707-.233446 1.16723-.466892 1.634122-.700338.544708-.311262.700338-.311262.778154-.311262h.077815v.311262c.077815 1.478491 0 2.49009 0 3.50169 0 1.089415-.077815 1.867568 0 2.956983 5.291443 5.83615 9.649102 10.738516 14.862729 16.963743l.389077.389077h-4.980182zm-2.256645-.544707c2.567907 0 3.34606 0 6.069597-.077815-4.980182-5.991781-9.260025-10.894147-14.473653-16.652482l-.077815-.077815v-.077816c-.077815-1.089414-.077815-1.945383 0-3.112613 0-.855969.077815-1.789753 0-3.112614-.077815.077816-.233446.077816-.389077.155631-.389077.233446-1.089415.466892-1.711937.700338-1.16723.389077-2.412276.544707-3.112614.389077l-1.245045-.389077V66.279395l6.692119-.077816c7.625903-.077815 8.092795 0 8.637502.544708.15563.15563.466892.466892.389077 8.870948-.077816 6.692119.15563 8.092795.233446 8.32624.778153.155632 6.769934-1.789752 10.50507-3.735135 1.634122-.855969 4.279844-2.412276 5.913966-3.423875 3.579505-2.412275 8.948763-7.625903 9.649101-8.870948-1.011599 0-1.789752 0-2.645721-.077816-1.089415 0-2.101014 0-3.50169-.077815l-3.890767 2.645721c-1.0116.622523-1.945383 1.400677-2.879167 2.17883-1.400676 1.089415-2.645722 2.023199-3.50169 2.49009-1.711938.778154-8.637503 3.579506-9.104395 3.034799l-.077815-.077816v-.15563c0-.389077 1.089415-1.478492 1.478491-1.867568 2.33446-2.33446 3.423875-4.824551 3.423875-7.937165 0-2.879167-.466892-4.591104-3.190429-6.536488-7.15901-.389077-11.361039-.311261-17.741896-.311261h-5.913966c-.15563 11.438854-.077815 29.18075-.077815 36.806654v1.400676c2.101014.15563 3.65732.15563 5.369258.077815 0-1.711937.077815-3.190429.077815-4.51329.077816-3.50169.155631-5.99178-.077815-10.271624v-.700338l.466892.466892c1.789753 1.945384 3.190429 3.50169 4.591105 4.902366 3.190429 3.579506 5.369258 5.913966 10.115993 10.582886zm1.089415-15.874328z"/>
    <path fill="#fff" d="M64.578382 68.069147c-2.412275 0-3.735136 0-5.602704.077816-.077815 4.980181-.077815 9.260025-.15563 14.473652 3.034797 3.190429 3.268243 3.657321 5.602703 5.913966.155631-8.326241.155631-13.306423.155631-20.465434z"/>
    <path d="M64.656197 89.157103l-.389076-.389076c-1.400676-1.32286-2.023199-2.023199-2.956983-3.034798-.622523-.700338-1.400676-1.556307-2.645721-2.879168l-.077816-.077815v-.15563c0-5.291444.077816-9.571287.15563-14.473653V67.8357h.700339c1.634122 0 2.956983-.077815 5.135812-.077815h.233446v.311261c.077815 6.69212.077815 11.6723-.15563 20.465434v.622522zM59.053493 82.5428c1.16723 1.245045 1.945384 2.101014 2.567906 2.801352.778154.855969 1.400676 1.556307 2.490091 2.567906.233446-8.248426.233446-13.150792.15563-19.53165-2.023198 0-3.268243 0-4.82455.077816l-.233446-.077815c-.077815 4.82455-.15563 9.026579-.15563 14.16239z"/>
    <path fill="#fff" d="M64.734013 51.49448c8.01498-.389076 12.606084.155631 16.34122.778154 3.50169.544708 5.83615 2.023199 7.159011 4.591105l.389077 1.945383h6.069596l-.077815-1.32286c.389076-3.34606-2.956983-7.937165-7.00338-9.726917-1.245046-.544708-3.423875-1.16723-4.902367-1.478492-2.723536-.389076-7.625903-.389076-23.655862-.233446-.077815 5.213628.233446 8.559687.077816 13.228607 2.49009.155631 3.65732.155631 5.83615.155631-.077816-2.49009-.233446-5.369258-.233446-7.937164z"/>
    <path d="M62.94426 59.742906c-1.089415 0-2.17883 0-3.890767-.15563h-.311261v-.311262c.077815-2.49009 0-4.51329 0-6.692118-.077815-2.0232-.077815-4.046398-.077815-6.536489v-.311261h.31126c16.574667-.233446 20.932326-.311261 23.655863.233446 1.478491.233446 3.65732.933784 4.902366 1.478491 4.124213 1.867568 7.470272 6.536489 7.159011 9.960363l.15563 1.634122h-6.614303l-.389076-2.178829c-1.322861-2.49009-3.579506-3.890767-6.925565-4.435474-3.579506-.544708-8.092795-1.089415-15.952144-.778154 0 1.322861 0 2.801353.077815 4.202029 0 1.16723.077815 2.412275.077815 3.50169v.311261h-1.400676c-.233446.077815-.544707.077815-.778153.077815zm-3.579505-.700338c1.867568.155631 2.956982.155631 4.435474.077816h.855968c0-1.089415 0-2.17883-.077815-3.190429-.077815-1.556307-.077815-3.112613-.077815-4.51329v-.31126h.311261c8.092795-.389078 12.6839.233445 16.34122.778153 3.579506.544707 5.991782 2.101014 7.392458 4.66892v.077815l.31126 1.789753h5.52489l-.077816-1.089415c.311262-3.268244-2.879167-7.703718-6.84775-9.493471-1.245044-.544707-3.346059-1.16723-4.82455-1.400676-2.645721-.389077-7.081196-.389077-23.3446-.233446-.077816 2.412275 0 4.357659.077815 6.225227 0 2.33446.077815 4.357659 0 6.614303z"/>
    <path fill="#9d0b0e" d="M46.447409 126.041573c-7.081196-22.099556-25.834692-81.161396-25.679061-81.706103 9.33784-.233446 10.271624.15563 15.407436-.077815-.389076-2.801353-2.49009-8.559687-4.279843-16.419036 13.150792 0 75.714322 0 80.227611.077815-1.32286 5.447074-2.412275 10.271624-4.046397 15.796513 6.536488.389077 8.559687.15563 15.01836.233446-16.107775 51.513753-19.376019 62.018823-25.834692 82.017364-22.02174 0-28.713859.077816-50.813414.077816zm49.101477-2.023199c11.594485-35.483793 14.551468-44.354742 24.978723-78.204413h-15.407437c1.711938-6.380857 2.723537-9.026579 4.51329-16.18559-19.68728-.15563-60.929408.077816-75.169615.155631 1.634122 7.00338 2.101014 8.481872 4.51329 16.652482-6.380858.077815-8.637503-.077815-15.485252 0 7.703718 25.52343 17.35282 54.626366 24.900907 77.73752 21.01014 0 25.21217-.15563 47.156094-.15563zm-44.666003-2.567906c-8.559687-25.212169-11.283224-34.86127-21.01014-65.442698-1.16723-3.735136-2.0232-6.84775-1.945384-7.081195 5.758335 0 8.793133-.077816 15.01836 0-1.789753-6.225227-2.490091-8.092795-4.746736-16.652482 26.301584-.389077 40.074898-.233446 66.843374 0-1.478492 6.614303-1.789753 8.01498-3.890767 15.796513 7.081196.389077 8.948764.233446 15.251806.389077-9.18221 30.581427-9.649102 31.904287-23.3446 72.990785-20.621065.15563-23.88931.077815-42.175913 0zm13.85113-20.387618c-2.490091-2.49009-3.735136-3.812952-5.913966-6.069596-.15563 8.404056.15563 9.415655.077816 18.130973 2.178829.311261 3.812951.077815 5.83615-.077815-.15563-3.968583-.077816-8.01498 0-11.983562zm17.119374-15.329621c4.51329 6.536488 5.213627 7.781533 9.804732 14.473652 2.567906-.077815 3.735136.15563 6.536488-.077815-4.66892-8.092795-5.99178-10.19381-9.960363-17.35282.778154-.544707.855969-.855969 1.945384-1.245045 3.034798-1.089415 7.236826-4.124213 9.260025-6.69212 3.890766-4.82455 3.423874-10.971962-.85597-13.539868-1.245044-.778153-2.178828-1.16723-12.061376-.933784l-10.816332.311261c-.077815 7.00338 0 7.548088 0 13.617684.389077.311262 4.591105-2.645721 5.991781-4.202028-.15563-1.32286-.311261-2.023199-.077815-3.50169h13.539868l.466892 1.089415c1.089415 2.33446-.778153 4.746735-5.447073 7.314641-1.556307.778154-4.124213 2.956983-6.147412 4.279844-4.357659 2.879167-5.291443 2.567906-8.248426 3.890767-.077815 9.49347-.544707 10.738516-.31126 17.197189 2.49009.077815 3.579505.233446 6.069595.15563.155631-6.536488-.233446-8.01498.311262-14.784913zm-30.814873-.855969c6.380857 6.769934 7.937164 8.793133 14.629283 15.329621 2.801352 0 3.579505 0 6.692119-.077815-4.980182-5.991781-9.260025-10.894147-14.86273-17.041559-.15563-1.945383.077816-3.423875 0-6.536488-.15563 0-1.32286.544707-2.33446 1.0116-1.089414.389076-2.33446.544707-2.956982.389076l-1.089415-.311261V66.590656l6.458673-.077815c7.392457-.077816 7.937164 0 8.481871.466892.233446.233446.389077 3.579505.311262 8.715317-.077816 5.52489 0 8.404057.311261 8.559687.544708.389077 7.236826-1.867568 10.816332-3.735136 1.634122-.855969 4.279843-2.412275 5.99178-3.50169 3.579506-2.412275 10.19381-8.637502 9.882548-9.415656-2.33446-.077815-3.890766 0-6.614303-.15563l-3.890767 2.723536c-2.412275 1.634123-5.057997 3.890767-6.303042 4.591105-2.723537 1.322861-8.559687 3.34606-8.870948 3.112614-.077816-.077816.466892-.933784 1.400676-1.789753 2.412275-2.412275 3.50169-4.980182 3.50169-8.092795 0-3.112613-.622523-4.82455-3.34606-6.769934-9.33784-.311262-13.539868-.15563-24.122754-.077816-.233446 12.372639-.077815 31.904288-.077815 38.674222 2.256645.155631 3.890767.155631 5.99178.077816.077816-6.380858.233447-9.02658 0-15.01836zm13.539868-16.808113c-2.412275 0-3.735136 0-5.602704.077816-.077815 4.980181-.077815 9.260025-.15563 14.473652 3.034797 3.190429 3.268243 3.657321 5.602703 5.913966.155631-8.326241.155631-13.306423.155631-20.465434zm.15563-16.574666c8.01498-.389077 12.606085.15563 16.341221.778153 3.50169.544708 5.83615 2.023199 7.159011 4.591105l.389077 1.945383h6.069596l-.077815-1.32286c.389076-3.34606-2.956983-7.937165-7.00338-9.726917-1.245046-.544708-3.423875-1.16723-4.902367-1.478492-2.723536-.389076-7.625903-.389076-23.655862-.233446-.077815 5.213628.233446 8.559687.077816 13.228607 2.49009.155631 3.65732.155631 5.83615.155631-.077816-2.49009-.233446-5.369258-.233446-7.937164z"/>
</svg>
