<svg xmlns="http://www.w3.org/2000/svg" viewBox="0 0 144 144">
    <circle fill="#e4bcee" cx="72" cy="72" r="70.5"/>
    <path d="M12 71.9l60-60 60 60-60 60-60-60z"/>
    <path fill="#fff" d="M72 132.5L11.5 72 72 11.5 132.5 72 72 132.5zM12.4 72L72 131.6 131.6 72 72 12.4 12.4 72z"/>
    <path fill="#fff" d="M17.3 72L72 17.3 126.7 72 72 126.7 17.3 72z"/>
    <path d="M72 128.5L15.5 72 72 15.5 128.5 72 72 128.5zM19.1 72L72 124.9 124.9 72 72 19.1 19.1 72z"/>
    <path d="M19.3 72L72 19.3 124.8 72 72 124.8 19.3 72z"/>
    <path fill="#fff" d="M72 126.4L17.6 72 72 17.6 126.4 72 72 126.4zM20.9 72L72 123.1 123.1 72 72 20.9 20.9 72z"/>
    <path fill="#fff" d="M66.2 47.5v1.9h-2.4v7.9h-2.3v-7.9H59v-1.9h7.2zm8.5 0v9.7h-2.3v-4h-3.1v4H67v-9.7h2.3v3.8h3.1v-3.8h2.3zm9 1.8h-4.6v2h3.7v1.8h-3.7v2.1h4.6v1.9h-7v-9.7h7v1.9zM53.3 90.8v3.9H51v-9.8h4.3c.8 0 1.4.1 1.9.3.4.2.9.5 1.2 1 .3.5.4 1 .4 1.7 0 1.1-.5 2-1.7 2.5l1.8 4.3h-2.5l-1.5-3.8-1.6-.1c0 .1 0 0 0 0zm0-4.1v2.4h1.4c.4 0 .8 0 1-.1.2-.1.3-.2.5-.4.2-.3.3-.4.3-.8 0-.3-.1-.5-.3-.7-.2-.2-.3-.3-.5-.4-.2-.1-.5-.1-1-.1-.1 0-1.4.1-1.4.1zm10.6 8.1c-1.3 0-2.4-.5-3.1-1.5-.7-1-1-2.2-1-3.6s.3-2.6 1.1-3.6c.7-1 1.7-1.4 3.1-1.4 1.4 0 2.4.5 3.1 1.5.7 1 1 2.2 1 3.5 0 1.4-.3 2.6-1 3.6-.8 1-1.8 1.5-3.2 1.5zm.1-8.1c-1.2 0-1.8 1-1.8 3.1s.6 3.1 1.8 3.1c1.1 0 1.7-1 1.7-3.1s-.6-3.1-1.7-3.1zm13.1-1.8V91c0 1-.1 1.7-.3 2.2s-.6.9-1.2 1.1c-.6.3-1.4.4-2.3.4-1 0-1.7-.2-2.3-.4-.5-.3-1-.7-1.2-1.1-.3-.5-.4-1.2-.4-2.3v-6.1h2.4v6.1c0 .5.1.9.2 1.1.1.3.3.4.5.6.3.2.6.2 1 .2s.8-.1 1-.2c.3-.2.4-.3.5-.5.1-.3.2-.6.2-1.2v-6.1l1.9.1zm7.8 0v1.9h-2.4v7.9h-2.3v-7.9h-2.4v-1.9h7.1zm7.7 1.8H88v2h3.7v1.8H88v2.1h4.6v2h-7v-9.8h7v1.9zm-51-7.4c-1.2.1-2.2 0-3.3-.1-.9-5.3-1.4-11.1-2.3-16.5 1.3-.1 2 .1 3.1.3.4 2.1.3 2.8 1 8.2 1.2-4.6 2.5-8.1 2.7-8.7 0 0 1.6.1 2.2.1.3 1.1 1.4 5.7 2.2 8.7.6-2.7 1-6.8 1.1-8.3 0 0 1.2-.1 3.7-.2-1 5.4-1.9 11-2.9 16.5h-2.9c-.7-3.1-1.1-5.1-2.4-8.6-1 3.5-1.4 5.6-2.2 8.6zm63 .5c-.9.3-1.7.2-2.4 0-.2-3.4.3-7.3-.2-8.2-.7-.5-1.6-.1-1.6 1 0 2.2-.2 4.8-.2 6.9-.8.5-1.4.4-2.2.2V68c.9-.1 2-.7 2.2 1.1.5-.8 1.6-1.9 2.7-1.4 1.2.6 1.7 3.5 1.7 4.6v7.5zm-44.8-3c1-1.1 3.1 1.7 4.4.1.2-.7 0-1.4-.7-2-.9-.8-1.3-1.1-2.2-1.9-1-.9-1.2-2.4-.7-3.4.8-1.4 2.1-1.9 3.6-1.8 1.2.1 2.2.6 2.7 1.7.2.4 0 .9-.4 1.2-.4.3-.9.3-1.2 0-.7-.6-1.8-1-2.4-.3-.4 1 1.3 1.9 2.4 2.6 1.7 1 1.6 2.7 1.3 4.3-.1 1-.8 2.4-2 2.5-.2 0-2.8.5-4.4-.9-.6-.7-.9-1.2-.4-2.1zm10.8-11.7c.1.8 0 1.9.1 2.8h1.7v2.3h-1.8s-.2 4.5 0 7.2l1 .1s.1 1.9 0 2.2c-2.4.3-3.1-1.4-3.1-3.5v-9.4c-.3-1.5.5-1.9 2.1-1.7zm38.1 0c.1.8 0 1.9.1 2.8h1.7v2.3h-1.8s-.2 4.5 0 7.2l1 .1s.1 1.9 0 2.2c-2.4.3-3.1-1.4-3.1-3.5v-9.4c-.3-1.5.5-1.9 2.1-1.7zM95.4 79.8h-1c-.3 0-.6-.3-.6-.6V68.8c0-.3.3-.7.7-.7h1c.3 0 .6.3.6.6v10.4c0 .3-.4.7-.7.7zm.7-15.5V66c0 .3-.2.4-.4.4-.3 0-.9 0-1.3.1-.3 0-.6-.3-.6-.5v-1.6c0-.3.3-.6.6-.6h1c.4 0 .7.3.7.5zm-15.9-1.5c-1.5-.1-2.9 0-4.5 0 0 5.7-.1 11-.1 16.4h2.7s.1-1.2.1-1.6v-2.9s2.6-1.5 3.4-2.2c1.3-1.4 1.5-1.4 2.2-2.9 1.5-3.3 1.4-6.6-3.8-6.8zm-1.9 8.9v-5.8c1-.3 3.1 0 3.1 0 .9.6.2 3.3-3.1 5.8zm14.2-1.2c0-1.5-1.9-2.8-3.4-2.8-1.5-.1-3.4 1-3.4 2.7 0 1 .1 2.1.1 3.1v3.9c0 1.4 2.1 2.4 3.4 2.4 1.7.2 3.4-1.6 3.4-2.5-.2-2.6-.1-3.7-.1-6.8zm-2.9 6.6h-1c-.3 0-.4-.2-.4-.4V71c0-.3.3-.5.5-.5h.9c.3 0 .7.3.7.7l.1 5.4c-.1.2-.4.5-.8.5zM54.4 77c-.2-1.1.7-1.5 1.4-2 1.5-1.2 3.1-2.4 2.6-4.9-.3-1.5-1.7-2.8-3.1-2.9-1.1 0-3.3 1.6-3.4 2.7-.1 2.5-.1 4.8.1 7.3.1 1.7 2.2 2.8 4.3 2.4 1.4-.3 2.4-1.1 1.8-2.7-.8-1.2-2.3 1.3-3.7.1zm-.1-6.1c.2-.5.2-.9.7-1.1.3-.2.8.1 1 .3.2.3.2 1-.1 1.6-.2.4-1 .8-1.7 1.2 0-.7-.1-1.6.1-2z"/>
</svg>
