<svg xmlns="http://www.w3.org/2000/svg" viewBox="0 0 144 144">
    <path fill="#fff" d="M43.3 54.6l4.2 3 .5 4.6-8 1.3-6 .9-1.2 1.3v2.8l15.2.6v14l-10.1-.6-11.1-7.3-1-9.8 3.4-9.5zm8.7 0l-.9 34 22.1 8.7-.4-38.4-10.1-3zm26.2 5.3l.8 7.6-3.4 5.1-1 10.9 8.1 6.8 10.8-3.8 4.7-4.5-6.1-13.2-2.9-6.2-2.8-6.2z"/>
    <path fill="#fff" d="M96.5 64.9l-.5 1.6-1.7 7.7 12.7 8.9 7.4-3.3 3.5-1.9 6.4-7.3-2.9-4.1-.4-1.4-1.3-5.6-2.5-3.6-5.9-.5h-8.6l-6.8 5.8z"/>
    <path fill="#ab2b29" d="M70.3 105.1c-5.7-4.9-15.3-9.3-25.7-11.8-3.2-.8-6.2-1.5-6.5-1.6-.5-.1-.6-.7-.4-2.3.2-1.6.1-2.2-.4-2.5-.4-.2-4.1-.3-8.2-.2-8.2.2-8.5.8-9.4-1.9-.4-1.3-.7-2.6-.2-2.9.4-.2 4.3.1 8.3.1 5.5 0 6.9-.1 6.9-.7-.1-.7-3.6-1.2-8.4-1.2-6.9.1-7.7-.5-8.4-1.4-.4-.5-1.7-4.2-2.7-6.6-1-2.4-2.1-5.1-2-5.5.2-.4 2-.1 5.9-.1 3 0 5.7-.2 5.9-.4.4-.6-1.3-1.4-3.8-1.7-1.1-.1-2.9-.3-5.8-.3l-3.2-.1-1.7-2.7c-2.5-4.2-3.5-8-2.7-8.4.2-.1 5.7-.1 11.4.2 10 .5 13 .7 11.5-.1-.4-.2-5.8-.7-11.9-1.2-10.3-.7-11.1-1.1-12-1.8-1.2-.9-5.5-10.7-5.4-11.7-.1-1.8.6-.4 4.4.7 7.3 2.2 24.6 6.7 47 10 12.2 1.8 15.3 2.9 16.7 6.3.5 1.3 1.3 1.9 2.5 1.9 2.4-.1 2.7 1.7 2.5 9-.1 3.2.1 5.8.3 5.8.5 0 2.5-2.6 3-3.8.5-1.1.3-1.7-1-4.7-2.5-5.7-1.5-9.5 2.6-11.3 1.3-.5 9-1.9 17.7-3.5 21-3.8 38.2-7.3 42.4-9.2 3.4-1.5 4.3-1.6 1.9 4.5l-1.7 4.7-2.9.7c-1.2.3-6 1.1-10.6 1.9-9 1.5-13.8 2.6-14.5 3.3-.7.7.5.3 12.2-1.3 12.2-1.6 13.9-1.9 14.2-1 .4 1-3.6 10.8-4.7 11.7-.8.7-2.5.8-7 .8H121l-1.1-2.1c-4.6-8.8-16.6-9-22.3-.4l-1.2 2.3-3.6-.1c-3.8-.3-3.6.5.4 1.4l2.7.5.1 3.1c.2 2 .7 3.8 1.4 5.1 1.3 2.3 4.7 4.9 7.4 5.6 2.3.6 6.5.5 8.5-.2 1.4-.5 2.6-.6 7.6.3 3.2.6 6.9 1 7.1 1.2.2.2-.6 1.6-.9 2.6l-.7 1.9-9.8.2-9.6.2.1 2.9c.1 3.4.8 2.9-7.1 4.5-9.3 1.9-17.9 5.5-24.5 10.3-1.6 1.2-3 2.1-3.2 2.1-.2.3-1.1-.4-2-1.1zm1.6-10.7c.9-.4.3-7.9.3-17.1.1-14.7.4-17.2-.2-17.8-.7-.7-1.3-.3-2.4.7-.7.6-2 2.3-3 3.7-1 1.4-2.2 3-2.8 3.5-.9.8-1.1.9-1.8.1-.4-.4-2.4-3.2-4.3-6.1-1.9-2.9-3.4-7.1-4.9-6.2-.5.3-.5 3-.5 15.6 0 0-.2 14.4 0 14.7.2.3 1.3.7 2.7.7s2.2-.1 2.3-.3.1-5.4.1-5.4c0-3.1.2-6.3.4-6.4s1.4 1.6 2.3 3.5 1.2 3.5 2.1 3.5 1-1.5 1.8-3.4c2.9-6.7 2.1-5.4 2.8 6.4.4 7.1-.1 10 .3 10.2.9.7 4.5.6 4.8.1zm16-11l2.4-1.1 1.2 1.2c1.2 1.2 1.3 1.2 2.5.5 1.7-1 1.9-1.9.5-3.6-1-1.2-1.3-1.7-.4-2.1 1.9-1.1-1.3-5.1-2.5-3.2-.9 1.3-.7 1.3-3.8-3.5L86.1 69l1-2.1c1.2-2.5 1.3-3.9.3-5.8-2.8-5.3-11-.3-7.9 4.9 1 1.7.9 1.7-.7 3.5-3.5 3.9-3.8 8.4-1.5 11.6 2.5 3.5 6.3 4.3 10.6 2.3zm-8.1-8.6c1.5-3.5 3-3.8 5.5.5 1.9 3.3 2.3 3.2 1.8 4-1.4 2.2-7 2.5-7.6-1 0 0-.6-1.5.3-3.5zM83 64.4c-.6-1.2-.3-2.2 1-2.1 1.5 0 1.5 1.5.2 2.6-.7.5-.8.5-1.2-.5zM45.5 80c.9-.8 1-1.2.9-5.2-.1-4.4-.1-4.8-1.4-5.2-.7-.2-2.5-.3-3.4-.1-1.8.2-2.1 1.4-1.1 2.2.4.4.5 1.2.6 1.9 0 1.2-.1 1.4-1.1 1.6-1.9.3-4.4-.7-6.1-2.5-1.4-1.4-1.6-2-1.8-4.3-.2-2.2 0-3 .9-4.3 2-2.9 6-4.1 9.7-2.7 1.5.5 1.6.5 2.9-.9.7-.8 1.3-1.8 1.3-2.2 0-1.1-2.9-2.8-6.5-3.1-3.1-.2-3.8-.1-6.5 1.3-5.1 2.5-8.2 7-7.7 12.3.4 4.6 3.7 9.6 7.8 10.9 3.6 1 9.8 1.7 11.5.3zm-4.6-13c0-.9-.9-1.4-4.4-1.4-2.3 0-3.7.2-3.7.7 0 .8 1.6.8 5.3.9 2.2.1 2.8.3 2.8-.2zm80.7 11.9c-5.6-.6-5.2.4-2.4-3 1.5-1.8 2.3-3.6 2.5-6.6l-.3-3.2 4.9.1c8.5-.3 7.8-.8 5.2 5.9-2.9 7.4-1.8 7.6-4.9 7.3-1-.2-3.2-.3-5-.5zm-16.5-4.7c-4.3-2.6-4.5-8.8-.4-11.6 2-1.4 5.9-1.4 8-.1 3 1.9 4 6.4 2 9.4-2.1 3.1-6.6 4.2-9.6 2.3z"/>
</svg>
