<svg xmlns="http://www.w3.org/2000/svg" viewBox="0 0 144 144">
    <path fill="#32763f" d="M70.5 28.7l55.2 39.1-12.4 17.5-42.1 30.2-43.4-31.2L30.2 57z"/>
    <path fill="#fff" d="M70.7 26.7L22.8 60.6h95.6L70.7 26.7zm0 3.1l38.8 27.7H31.6l39.1-27.7zM21.5 83.4l49.3 34.9 48.5-34.9H21.5zm10.4 2.3h78l-39 28.3-39-28.3zm-25-25.1h129.9v22H6.9v-22z"/>
    <path fill="#010101" d="M128.7 60.1l-9.2-.2-13-9.3c-7.2-5.1-17.7-12.7-23.3-16.7-5.7-4.1-10.8-7.8-11.5-8.2l-1.2-.8-14.8 10.6c-8.1 5.9-15.9 11.6-17.3 12.6-7.1 5.3-12.2 9-14.2 10.4l-2.3 1.6h-16v23.4h15l15.9 11.4c8.8 6.3 17.9 12.8 20.4 14.6 2.5 1.8 6.5 4.7 9 6.4 2.5 1.8 4.5 3.2 4.6 3.2s27.9-20.3 33.7-24.6c4.3-3.2 8.1-5.9 12-8.7l3.2-2.3 9.1-.1 9.1-.1v-23l-9.2-.2zm-94.6-6.9c4.7-3.4 9.9-7.1 11.6-8.3 5.4-3.9 22-15.8 23.1-16.6.6-.4 1.3-.9 1.5-1.1.3-.2 2.6 1.2 7 4.4 3.6 2.6 7.9 5.7 9.5 6.8 1.6 1.1 4.3 3.1 6.1 4.3 1.7 1.2 7.6 5.5 13.1 9.4s10 7.3 10 7.5-.1.3-.3.4c-.8.3-90.4-.1-90.3-.4.1-.1 4-3 8.7-6.4zM98.4 97c-4.7 3.4-10.5 7.6-12.8 9.2-2.3 1.7-6.6 4.8-9.6 6.9s-5.4 3.8-5.5 3.8-2.5-1.8-5.5-3.9c-2.9-2.1-7.1-5.1-9.4-6.7-2.2-1.6-8.8-6.3-14.7-10.5S29 87.3 27.4 86.2s-2.8-2.1-2.8-2.3c0-.2 17.6-.3 45.7-.3 28.5 0 45.7.1 45.7.3 0 .4-2.3 2-17.6 13.1zm37.2-25v9.9l-63.7.1c-35 .1-63.8 0-64-.2-.1-.1-.2-4.7-.2-10.1v-9.9l64 .1 64 .1v10h-.1z"/>
    <path d="M35.6 71.8v-6.2c0-.6.3-.9.9-.9h.8c1.1 0 1.4.3 1.7 1.3.2.8.5 1.5.8 2.2.1.3.3.5.5.7 0 .1.2.1.2.1.1-.1.2-.2.2-.4 0-1 .1-2 .1-3 0-.7.3-1 1-1h1.6c.5 0 .8.3.8.8V78c0 .6-.3.9-.9.9h-.7c-1.1 0-1.6-.4-2.1-1.4-.3-.7-.7-1.3-1.1-1.9-.1-.1-.3-.2-.3-.2-.1.1-.2.2-.2.4 0 .8-.1 1.5 0 2.3 0 .6-.2.8-.8.8-2.2 0-2.2 0-2.2-2.1-.3-1.6-.3-3.3-.3-5zm55.3.1v-6.3c0-.7.3-1 1-1H93c.7 0 1.2.1 1.3 1 .1.7.4 1.5.7 2.2 0 .1.5.2.6.1.2-.2.3-.5.3-.7.1-.6 0-1.2.1-1.9 0-.3.4-.5.6-.7h.1c2.5-.1 2.2 0 2.2 2V78c0 .9-.2 1.1-1 1.2-1.3.1-1.9-.3-2-1.1 0-.3-.2-.6-.4-1-.4-1.1-.7-2.2-1.1-3.2-.1-.2-.4-.4-.7-.6l-.3.6v4.3c0 .7-.3 1-1 1-1.6 0-1.6 0-1.6-1.6.1-1.8.1-3.7.1-5.7zm-45.5.3v-4.3c0-.7.2-1.4.4-2.1.3-.7 1-1 1.8-1.1 1.3-.1 2.5 0 3.8 0 .6 0 1.8 1 1.9 1.6.2 1 .4 2 .4 3 .1 2.2 0 4.5 0 6.7 0 .9-.3 1.9-1 2.5-.3.3-.8.5-1.3.5-1.3.1-2.6 0-3.9 0-.9 0-1.6-.8-1.9-1.6-.6-1.8 0-3.7-.2-5.2zm2.9-.2v2.7c0 .6.2 1.1.7 1.4.3.2 1.3.1 1.3-.3.2-.7.4-1.4.4-2.2.1-1.2-.1-2.4 0-3.5.1-1-.4-1.8-1.1-2.3-.1-.1-.3-.1-.4-.1-.5.4-1 .8-.9 1.5.1.9 0 1.8 0 2.8zm59.9-.1v-6.4c0-.6.3-.9.9-.9h4.4c.7 0 1.9.9 2.1 1.7.2 1 .4 2 .3 2.9-.1.8-.6 1.5-1 2.2-.3.5-.5 2-.1 2.5.1.1.9 4.1 1 4.5.2.7 0 .9-.7.9h-.2c-1.5 0-1.8 0-2.2-1.9-.1-.6-.2-1.3-.4-1.9-.1-.2-.5-.3-.8-.3-.2 0-.5.3-.5.5-.1.9-.1 1.8 0 2.7 0 .7-.3.9-.9.9-1.6 0-1.7-.1-1.7-1.6-.2-1.9-.2-3.9-.2-5.8zm2.5-2.2c.1 0-.2.3.1.9.1.1.3.6.4.6.2 0 .5.1.6-.1.4-.6.8-1.3 1.1-2 .3-.5 0-1-.4-1.2-.3-.1-1-.1-1.1.1-.5.6-.5 1.2-.7 1.7zm6.2 8.3c.2-1.2.4-2.4.7-3.7v-.2c.1-1.4.3-2.9.4-4.3.1-1.1.2-2.2.4-3.3.1-.5.2-1 .4-1.4.1-.2.4-.4.6-.5.9-.1 1.8 0 2.7 0 .7 0 .9.6 1 1.1.2 1 .3 2 .4 3 .2 1.2.5 2.3.7 3.5.3 1.3.7 2.6 1 3.9.2.7.3 1.4.4 2s-.2.9-.7.9c-.4 0-.8.1-1.1 0-.6-.1-1-.5-1.1-1.2 0-.5-.2-1.1-.4-1.6 0-.1-.3-.2-.4-.2h-.9c-.8 0-1.3.5-1.4 1.3v.3c0 1.5-.5 1.8-2 1.5-.8 0-.7-.6-.7-1.1zm4.7-6.3c0-.2-.1-1.1-.2-1.3-.1-.2-.5-.5-.7-.5-.1 0-.4.4-.4.6-.1.3-.1.7-.1 1.1-.1.8.3 1.5.7 1.4.6-.1.8-.7.7-1.3zm-47 .4v-4.8c-.1-1.6 1.2-2.7 2.6-2.7h3.3c.9 0 1.4.5 1.4 1.4v1.3c0 1.1-.3 1.5-1.3 1.9-1.1.4-1.2.3-1.3-.9 0-.6-.5-.5-.8-.5-.4 0-.9-.1-.9.5v7.1c0 .5.4.5.8.5s.8.1.9-.5c.1-.9.7-1 1.6-.8 1.1.3 1 1 1 1.8s.2 1.7-.7 2.2c-.4.2-.9.4-1.4.4-1.1.1-2.2 0-3.2 0-1.3 0-2-.8-2-2.1v-4.8zm11.6 7.2h-2.1c-.5 0-.8-.2-.8-.8v-13c0-.5.3-.8.8-.8h4.2c.5 0 .8.3.8.8.1 2.8.2 2.3-2.1 2.4-.7 0-1.2.4-1.1 1.1 0 .7.5.9 1.1.9h1.3c.2 0 .6.2.6.3.1.8.1 1.5 0 2.3 0 .1-.6.3-1 .3-1.8.1-1.9 2.1-1.9 2.4.1.3.4 1 .7 1.1.5.1 1 .1 1.5.1s.8.3.9.8v.1c.2 1.8.1 1.9-1.7 1.9-.4.1-.8.1-1.2.1zM62.9 79h-2.2c-.6 0-.9-.3-.9-.9v-.8c0-.6.3-.9.9-.9h1.4c.3 0 .8-.1.8-.2.1-.4.1-1 0-1.4-.4-.9-.9-1.8-1.3-2.7-.5-1.1-1-2.2-1.7-3.2-.6-1-.5-2.5.1-3.4.5-.7 1.1-.8 1.8-.8h2.8c.6 0 1 .2 1 .9v1.6c0 .5-.3.7-.7.6h-1.2c-.6 0-.6.4-.4.8.5 1.1 1.1 2.1 1.6 3.1.6 1.4 1.1 2.8 1.7 4.1.5 1.2 0 2-.7 2.8-.1.2-.4.2-.7.2-.8.3-1.5.2-2.3.2zm-39.2-7.2v-6.2c0-.7.3-1 1-1 2.7 0 2.4 0 2.4 2.2v8c0 .8.3 1.2 1.1 1.2 1.4 0 1.4 0 1.4 1.4 0 1.6 0 1.6-1.6 1.6h-3c-1.1 0-1.3-.2-1.3-1.3v-5.9zm81 1.7v4.8c0 .6-.3.9-.9.9-1.7.1-1.8 0-1.8-1.7v-8.8c0-.7-.2-1-.9-.9-.2 0-.5.1-.7 0s-.5-.3-.5-.6c-.1-.6-.1-1.2 0-1.9 0-.3.4-.7.7-.7 1.8-.1 3.5-.1 5.3 0 .6 0 .9.5.9 1.1v.5c.1 1.4-.1 1.6-1.4 1.6-.6 0-.7.3-.7.8v4.9zm-87.5-1.7v-6.1c0-.7.3-1 1-1 2 0 2-.1 2 1.9v8.1c0 1 .1 1 1 1 1.4 0 1.5.1 1.5 1.5 0 2 .1 1.8-1.8 1.8h-2.6c-.7 0-1-.3-1-1-.1-2-.1-4.1-.1-6.2zm109.5.2v-6.3c0-.7.3-1 1-1h.4c1.1 0 1.2.2 1.2 1.3v9.3c0 .7.2 1 .9.9.5.1 1.5.1 1.6.3.3.7.2 1.6.2 2.4 0 .2-.5.5-.7.5h-3.8c-.5 0-.8-.3-.8-.9V72zm-111.6-.1v6.3c0 .6-.2.9-.8.8h-1.5c-.5 0-.7-.3-.7-.8 0-1.5-.1-3.1 0-4.6v-8c0-.9.2-1 1-1 2.2 0 1.9 0 1.9 1.9.1 1.8.1 3.6.1 5.4zm15.4 0v-6.3c0-.7.3-.9 1-1 2 0 2 0 2 2v11.5c0 .7-.2.9-.9.9-2.3 0-2 .2-2.1-2v-5.1zm28 0v6.2c0 .7-.3.9-.9.9h-1.3c-.6 0-.8-.2-.8-.8V65.6c0-.7.3-1 1-1 2 0 2 0 2 2v5.3z"/>
</svg>
