<?xml version="1.0" encoding="utf-8"?>
<!-- Generator: Adobe Illustrator 21.0.0, SVG Export Plug-In . SVG Version: 6.00 Build 0)  -->
<svg version="1.1" id="Layer_1" xmlns="http://www.w3.org/2000/svg" xmlns:xlink="http://www.w3.org/1999/xlink" x="0px" y="0px"
	 viewBox="0 0 144 144" style="enable-background:new 0 0 144 144;" xml:space="preserve">
<style type="text/css">
	.st0{clip-path:url(#SVGID_2_);}
	.st1{fill:#FFFFFF;}
	.st2{fill:#D0202D;}
	.st3{fill:#095CA9;}
</style>
<g>
	<defs>
		<circle id="SVGID_1_" cx="72" cy="72" r="70.2"/>
	</defs>
	<clipPath id="SVGID_2_">
		<use xlink:href="#SVGID_1_"  style="overflow:visible;"/>
	</clipPath>
	<g class="st0">
		<rect id="_x31_4" x="-21.6" y="-3.9" class="st1" width="187.1" height="151.7"/>
		<polygon id="_x31_3" class="st2" points="62.7,87.1 62.7,147.9 81.4,147.9 81.4,87.1 165.6,87.1 165.6,56.8 81.4,56.8 81.4,-3.9 
			62.7,-3.9 62.7,56.8 -21.6,56.8 -21.6,87.1 		"/>
		<g>
			<g>
				<polygon id="_x31_2_8_" class="st3" points="87.6,45.3 87.6,-3.9 148.2,-3.9 				"/>
				<polygon id="_x31_1_8_" class="st3" points="87.6,98.7 87.6,147.9 148.2,147.9 				"/>
				<polygon id="_x31_0_8_" class="st3" points="56.4,98.7 56.4,147.9 -4.2,147.9 				"/>
				<polygon id="_x39__8_" class="st3" points="56.4,45.3 56.4,-3.9 -4.2,-3.9 				"/>
				<polygon id="_x38__8_" class="st3" points="-21.6,10.2 -21.6,46.7 23.4,46.7 				"/>
				<polygon id="_x37__8_" class="st3" points="165.6,10.2 165.6,46.7 120.6,46.7 				"/>
				<polygon id="_x36__8_" class="st3" points="165.6,133.8 165.6,97.3 120.6,97.3 				"/>
				<polygon id="_x35__8_" class="st3" points="-21.6,133.8 -21.6,97.3 23.4,97.3 				"/>
			</g>
		</g>
		<polyline id="_x34_" class="st2" points="165.6,-3.9 155.2,-3.9 92.9,46.7 103.3,46.7 165.7,-3.9 		"/>
		<polyline id="_x33_" class="st2" points="51.1,97.3 40.7,97.3 -21.6,147.9 -11.2,147.9 51.2,97.3 		"/>
		<polygon id="_x32_" class="st2" points="30.4,46.8 40.8,46.8 -21.6,-3.9 -21.6,4.6 		"/>
		<polygon id="_x31_" class="st2" points="113.6,97.3 103.2,97.3 165.6,147.9 165.6,139.4 		"/>
	</g>
</g>
<g>
	<path class="st1" d="M88.9,64.7c0,0.1,0,0.2,0,0.3l-2.3,9.1c-0.1,0.5-0.5,0.8-1,0.8L72,74.9c0,0,0,0,0,0H58.4c-0.5,0-0.9-0.3-1-0.8
		l-2.3-9.1c0-0.1,0-0.2,0-0.3c-0.9-0.3-1.5-1.1-1.5-2.1c0-1.2,1-2.2,2.2-2.2c1.2,0,2.2,1,2.2,2.2c0,0.7-0.3,1.3-0.8,1.7l2.8,2.9
		c0.7,0.7,1.7,1.1,2.7,1.1c1.2,0,2.4-0.6,3.1-1.5l4.7-6.2c-0.4-0.4-0.6-0.9-0.6-1.5c0-1.2,1-2.2,2.2-2.2c1.2,0,2.2,1,2.2,2.2
		c0,0.6-0.2,1.1-0.6,1.5c0,0,0,0,0,0l4.6,6.2c0.7,1,1.9,1.5,3.1,1.5c1,0,2-0.4,2.7-1.1l2.9-2.9c-0.5-0.4-0.8-1-0.8-1.7
		c0-1.2,1-2.2,2.2-2.2c1.2,0,2.2,1,2.2,2.2C90.4,63.6,89.8,64.4,88.9,64.7z M86.4,78.2c0-0.6-0.5-1-1-1H58.7c-0.6,0-1,0.5-1,1v2.5
		c0,0.6,0.5,1,1,1h26.7c0.6,0,1-0.5,1-1V78.2z"/>
</g>
</svg>
