<svg xmlns="http://www.w3.org/2000/svg" xmlns:xlink="http://www.w3.org/1999/xlink" viewBox="0 0 144 144">
    <defs>
        <circle id="a" cx="72" cy="72" r="70.2"/>
    </defs>
    <clipPath id="b">
        <use overflow="visible" xlink:href="#a"/>
    </clipPath>
    <g clip-path="url(#b)">
        <path fill="#8dd7f6" d="M0 0h143.9v143.9H0z"/>
        <path fill="#fff" d="M-12.4 22.7L0 42.7l147.6 73.7-3.7-15.1z"/>
        <path fill="#fff" d="M155.3 22.7l-12.4 20-147.6 73.7 3.7-15.1z"/>
        <path fill="#fff" d="M60 0h24v144H60z"/>
        <path fill="#fff" d="M0 60h144v24H0z"/>
        <path fill="#d0202d" d="M64.8 79.1v64.8h14.4V79.1h64.7V64.7H79.2V0H64.8v64.7H0v14.4z"/>
        <path fill="none" d="M60 59.3V0"/>
        <path fill="#d0202d" d="M147.9 36l6-7L92 60h8l48-24M50.9 84h-8L-5 108l-13.2 10.6L51 84m-8-24h8L-5.3 31.8l1.6 4.8zm57.9 23.9h-8l55.3 27.7-.6-4.3z"/>
        <path fill="#fff" d="M44.5 17.1l2.5 6.4 6.7-2-3.5 6 5.8 4-6.9 1 .5 7-5.1-4.8-5.1 4.8.5-7-6.9-1 5.7-4-3.4-6 6.6 2zm54-.6l2.6 6.5 6.6-2.1-3.4 6.1 5.7 3.9-6.9 1.1.5 6.9-5.1-4.7-5.1 4.7.5-6.9-6.9-1.1 5.8-3.9-3.5-6.1L96 23zm.9 110.3l-2.5-6.4-6.7 2 3.5-6-5.8-4 6.9-1-.5-7 5.1 4.8 5.1-4.8-.5 7 6.9 1-5.7 4 3.4 6-6.6-2zm-54.9.7l-2.6-6.4-6.6 2 3.4-6-5.7-4 6.9-1-.5-7 5.1 4.8 5.1-4.8-.5 7 6.9 1-5.8 4 3.5 6-6.7-2z"/>
    </g>
</svg>
