<svg xmlns="http://www.w3.org/2000/svg" xmlns:xlink="http://www.w3.org/1999/xlink" viewBox="0 0 144 144">
    <defs>
        <circle id="a" cx="72" cy="72" r="70.2"/>
    </defs>
    <clipPath id="b">
        <use overflow="visible" xlink:href="#a"/>
    </clipPath>
    <g clip-path="url(#b)">
        <path fill="#fff" d="M-21.6-3.9h187.1v151.7H-21.6z"/>
        <path fill="#d0202d" d="M62.7 87.1v60.8h18.7V87.1h84.2V56.8H81.4V-3.9H62.7v60.7h-84.3v30.3z"/>
        <path fill="#095ca9" d="M87.6 45.3V-3.9h60.6zm0 53.4v49.2h60.6zm-31.2 0v49.2H-4.2zm0-53.4V-3.9H-4.2zm-78-35.1v36.5h45zm187.2 0v36.5h-45zm0 123.6V97.3h-45zm-187.2 0V97.3h45z"/>
        <path fill="#d0202d" d="M165.6-3.9h-10.4L92.9 46.7h10.4l62.4-50.6M51.1 97.3H40.7l-62.3 50.6h10.4l62.4-50.6M30.4 46.8h10.4L-21.6-3.9v8.5zm83.2 50.5h-10.4l62.4 50.6v-8.5z"/>
    </g>
    <path fill="#fff" d="M88.9 64.7v.3l-2.3 9.1c-.1.5-.5.8-1 .8H58.4c-.5 0-.9-.3-1-.8L55.1 65v-.3c-.9-.3-1.5-1.1-1.5-2.1 0-1.2 1-2.2 2.2-2.2 1.2 0 2.2 1 2.2 2.2 0 .7-.3 1.3-.8 1.7l2.8 2.9c.7.7 1.7 1.1 2.7 1.1 1.2 0 2.4-.6 3.1-1.5l4.7-6.2c-.4-.4-.6-.9-.6-1.5 0-1.2 1-2.2 2.2-2.2 1.2 0 2.2 1 2.2 2.2 0 .6-.2 1.1-.6 1.5l4.6 6.2c.7 1 1.9 1.5 3.1 1.5 1 0 2-.4 2.7-1.1l2.9-2.9c-.5-.4-.8-1-.8-1.7 0-1.2 1-2.2 2.2-2.2 1.2 0 2.2 1 2.2 2.2-.2 1-.8 1.8-1.7 2.1zm-2.5 13.5c0-.6-.5-1-1-1H58.7c-.6 0-1 .5-1 1v2.5c0 .6.5 1 1 1h26.7c.6 0 1-.5 1-1v-2.5z"/>
</svg>
