<svg xmlns="http://www.w3.org/2000/svg" viewBox="0 0 170.1 170.1">
    <circle fill="#fcea06" cx="85.5" cy="85.2" r="78"/>
    <path fill="#181716" d="M144.3 60.6H45.7c-1 0-1.8.6-2.2 1.4l-19 44.4c-.7 1.6.5 3.3 2.2 3.3h98.6c1 0 1.8-.6 2.2-1.4l19-44.4c.7-1.6-.5-3.3-2.2-3.3z"/>
    <path fill="#fff" d="M76.8 82.2L83 66.9h18.9l2-5h-23c-1.2 0-2.2.7-2.6 1.8l-7.5 18.5H44l6.2-15.3H69l2-5H47.7c-.9 0-1.7.5-2 1.4l-18 44.7h5.9L42 87.2h26.8l-7 17.3c-.7 1.7.6 3.6 2.4 3.6l26.1.1 2.1-5.1h-24l6.4-15.8 2-5.1zm33.4-19.9L93 108.4h5.9l9.3-25.1 23.5.1c3 0 5.6-2.1 6.2-5.1.3-1 .5-2.1.7-3.3.3-1.9.4-3.7.4-5.1 0-.4.1-4-3-6.3-1.5-1.1-3.5-1.3-6.6-1.3h-19.2z"/>
    <path fill="#181716" d="M129.8 77.9h-19.9l3.7-10h16.3c2.2 0 4 1.8 4 4V74c-.1 2.1-1.9 3.9-4.1 3.9"/>
</svg>
