<svg xmlns="http://www.w3.org/2000/svg" viewBox="0 0 170.1 170.1">
    <path fill="#f8b131" d="M132.8 79.2l-5.3-.7.1-.5-2.7-.2v-4.3l9.7-3.5-23.6 2.6 4.7-2.8 14.7-9-22 6.5 16-15.2L104 63.2l12.9-18.8-17.6 15 8.9-21.5-13.7 17.8L98.8 33l-9.3 19.4-.6-22.6-4.8 20-5-21-.6 21.6-8.8-18.6 4.1 22.3L60.7 37l8.8 21.4-17.1-14.6 13.2 19.1-20.3-11 16.5 15.7L39.5 61l12.2 7.5 7.7 3.9-15.4-1-8.5-.6 8.5 3v3.3l-1.5.2.4 1.9z"/>
    <path fill="#025aaa" d="M17.9 73.1h135.6v25.2H17.9zM85 160.2c34.1 0 61.8-27.7 61.8-61.8H23.3c0 34.1 27.6 61.8 61.7 61.8z"/>
    <path fill="#f8b131" stroke="#fff" stroke-miterlimit="10" stroke-width=".8406" d="M85.6 48c-13.5 0-24.5 11-24.5 24.5h49C110.1 59 99.2 48 85.6 48z"/>
    <path fill="none" stroke="#fff" stroke-miterlimit="10" stroke-width="1.8333" d="M63.9 138.2l8.9-39.8m32.7 39.5l-8.8-39.5"/>
    <path fill="#fff" d="M42.4 138.2h83.2v7.2H42.4zm22-37.5l-1.3 3.5h43.3l-1.1-3.5zm-1.7 4.6l-1.7 4.5h47.3l-1.5-4.5zm-2.3 5.9l-2 5.4h52.1l-1.8-5.4zm-2.9 7.7l-2.4 6.2h58.2l-2.1-6.2zm-3.7 9.8l-2.8 7.1h65.8l-2.4-7.1z"/>
    <path fill="#025aaa" d="M85.1 7.1c-43.1 0-78 34.9-78 78s34.9 78 78 78 78-34.9 78-78-35-78-78-78zm0 135.1c-31.6 0-57.2-25.6-57.2-57.2s25.6-57.2 57.2-57.2 57.2 25.6 57.2 57.2-25.7 57.2-57.2 57.2z"/>
    <path fill="#fff" d="M85.1 163.9c-43.5 0-78.9-35.4-78.9-78.9S41.6 6.2 85.1 6.2 164 41.6 164 85.1s-35.5 78.8-78.9 78.8zM85.1 8C42.6 8 8 42.6 8 85.1c0 42.5 34.6 77 77 77 42.5 0 77-34.6 77-77C162.1 42.6 127.5 8 85.1 8zm0 135.1C53 143.1 27 117.1 27 85s26-58 58.1-58 58.1 26.1 58.1 58.1-26.1 58-58.1 58zm0-114.3c-31 0-56.2 25.2-56.2 56.2s25.2 56.2 56.2 56.2S141.3 116 141.3 85c0-31-25.2-56.2-56.2-56.2z"/>
    <path fill="#fff" d="M34.6 35.5c-.8.4-1.4.8-1.7 1.3-.3.3-.5.6-.5.9-.1.3 0 .6.3.8.2.2.5.3.8.3.3 0 .6-.1.9-.3.3-.2.8-.4 1.4-.7.9-.5 1.6-.9 2.2-1.2.6-.3 1.3-.4 2-.3.7.1 1.4.4 2.1 1 .7.6 1.1 1.3 1.2 2.1.1.8.1 1.6-.3 2.5-.3.8-.9 1.7-1.6 2.4-.8.8-1.7 1.5-2.8 2.1s-2.1.9-3.2 1l-1.1-3c.9-.1 1.9-.4 2.8-.8.9-.4 1.7-.9 2.2-1.5.4-.4.6-.8.7-1.1.1-.4 0-.7-.3-.9-.2-.2-.5-.3-.8-.3-.3 0-.6.1-1 .3-.3.2-.8.4-1.3.8-.8.5-1.6.9-2.2 1.2s-1.3.4-2 .3c-.7 0-1.4-.4-2.1-1-.6-.6-1-1.3-1.2-2-.2-.8-.1-1.6.2-2.4.3-.9.8-1.7 1.6-2.5.7-.7 1.5-1.4 2.3-1.9.9-.5 1.7-.9 2.6-1.1l1.2 3c-.9.3-1.7.6-2.4 1zm12.4-13c1.3-.1 2.5.1 3.7.6 1.2.5 2.1 1.3 2.9 2.5.8 1.1 1.2 2.3 1.3 3.6.1 1.3-.2 2.5-.8 3.7s-1.5 2.2-2.6 2.9c-1.2.8-2.4 1.3-3.7 1.4-1.3.1-2.5-.1-3.7-.6-1.2-.5-2.1-1.4-2.9-2.5-.8-1.1-1.2-2.3-1.2-3.6-.1-1.3.2-2.5.8-3.6.6-1.2 1.5-2.1 2.6-2.9 1.1-.9 2.3-1.4 3.6-1.5zm-3.2 5.4c-.3.6-.4 1.3-.3 2 .1.7.3 1.4.7 2 .4.6 1 1.1 1.6 1.4.6.3 1.3.5 2 .4.7 0 1.3-.2 1.9-.6.6-.4 1-.9 1.3-1.5.3-.6.4-1.3.3-2-.1-.7-.3-1.4-.8-2-.4-.6-1-1.1-1.6-1.4-.6-.3-1.3-.5-2-.5s-1.3.2-1.9.6c-.5.5-.9 1-1.2 1.6zm17.3-1.8c.7.3 1.4.3 2.1 0 .7-.3 1.2-.7 1.5-1.4.3-.7.2-1.4-.1-2.2l-2.9-7.6 3.4-1.3 2.9 7.6c.4 1.1.6 2.2.4 3.2-.2 1-.6 1.9-1.3 2.7-.7.8-1.7 1.4-2.8 1.9-1.2.4-2.3.6-3.4.5-1.1-.1-2-.5-2.8-1.2-.8-.7-1.4-1.6-1.9-2.7L53.3 18l3.4-1.3 2.9 7.6c.3.9.8 1.5 1.5 1.8zm7.4-13.3L80.3 11l.4 3-4.1.6 1.6 10.8-3.6.5L73 15.1l-4 .6-.5-2.9zM84 10.7l3.6.2-.4 5.6 5.6.4.4-5.6 3.6.2-.8 13.9-3.6-.2.3-5.3-5.6-.4-.3 5.3-3.6-.2.8-13.9zm17.5 1.9l10.5 2.9-.8 2.8-7.1-2-.7 2.5 6.4 1.8-.8 2.8-6.4-1.8-.7 2.5 7.2 2-.8 2.8-10.7-3 3.9-13.3zm15.8 21.1l.1-4.3h-.1l-2.3-1.3-1.9 3.4-3.2-1.8 6.7-12.1 5.5 3c1.6.9 2.6 1.9 3.1 3.2.5 1.2.3 2.5-.4 3.9-.5.9-1.1 1.6-1.9 2.1-.7.5-1.6.7-2.5.7l.3 5.4-3.4-2.2zm-.9-8.2l2.3 1.3c.6.4 1.2.5 1.8.3.5-.1 1-.5 1.3-1.1.3-.6.4-1.1.2-1.7-.2-.5-.6-.9-1.2-1.3l-2.3-1.3-2.1 3.8zm21.8 7l2.5 2.3-9.4 10.2-2.3-2.1.9-10.4-5.6 6.1-2.5-2.3 9.3-10.3 2.4 2.1-1 10.4 5.7-6zM60.1 142.3c.5 1.2.4 2.5-.3 3.9-.7 1.5-1.7 2.4-3 2.8-1.3.4-2.7.2-4.3-.6l-2.2-1.1-1.7 3.4-3.2-1.6 6.2-12.4 5.5 2.7c1.4.7 2.5 1.7 3 2.9zm-4.7 3.6c.5-.1.9-.5 1.3-1.2.3-.6.4-1.2.2-1.7s-.6-.9-1.3-1.3l-2.1-1-1.9 3.8 2.1 1c.6.4 1.2.5 1.7.4zm12.5 11.8l-.3-2.6-5.8-1.6-1.6 2.1-3.6-1 9.4-11.8 3.6 1 2 14.9-3.7-1zm-4.3-6.5l3.7 1-.5-5.3-3.2 4.3zm19.8-2.3c-.6-.4-1.2-.6-1.8-.6-.7 0-1.3.1-1.9.4-.6.3-1.1.8-1.4 1.4-.4.6-.6 1.3-.6 2 0 .8.1 1.4.4 2.1.3.6.7 1.1 1.3 1.5.6.4 1.2.6 1.9.6.6 0 1.2-.1 1.8-.3.6-.3 1.2-.6 1.7-1.1l2 2.4c-.8.8-1.7 1.3-2.8 1.7s-2.1.6-3.1.5c-1.4-.1-2.6-.5-3.7-1.1-1.1-.7-1.9-1.6-2.5-2.7s-.8-2.4-.8-3.7c.1-1.3.5-2.5 1.2-3.6.7-1 1.6-1.8 2.8-2.4 1.2-.6 2.4-.8 3.8-.7 1 .1 2 .3 3 .8s1.8 1.1 2.5 1.9l-2.2 2.4c-.5-.7-1-1.1-1.6-1.5zm4.7-3.5l3.6-.3 1.3 13.8-3.6.3-1.3-13.8zm5.6-.5l10.1-2.4.7 2.8-6.6 1.6.7 3 6-1.4.7 2.8-6 1.4 1.2 4.9-3.5.8-3.3-13.5zm10.9-3l3.4-1.3 5 12.9-3.4 1.3-5-12.9zm14.2-3.2c-.7 0-1.3.2-1.8.5-.6.4-1.1.8-1.4 1.4s-.5 1.2-.5 1.9.2 1.4.6 2c.4.6.9 1.2 1.5 1.5.6.4 1.2.6 1.9.6s1.3-.2 1.9-.5c.5-.3.9-.7 1.3-1.3.4-.6.7-1.2.8-1.9l3 .9c-.3 1.1-.7 2.1-1.4 3s-1.4 1.6-2.3 2.1c-1.2.7-2.4 1-3.7 1-1.3 0-2.5-.3-3.6-.9-1.1-.6-2-1.5-2.7-2.7-.7-1.2-1-2.4-1-3.6 0-1.3.4-2.4 1-3.5.7-1.1 1.6-2 2.8-2.7.9-.5 1.9-.8 3-1 1.1-.1 2.1-.1 3.1.2l-.6 3.2c-.5-.1-1.2-.2-1.9-.2zM49.6 76.8h4.8v14.3h7.8v4.1H49.6V76.8zm14.8 0h4.8v18.4h-4.8V76.8zm20.9 0h4.5v18.4h-4.2l-8.3-11v11h-4.5V76.8H77l8.4 11.1-.1-11.1zm8.1 0h14.5v3.8h-9.7V84h8.8v3.8h-8.8v3.5h10v3.8H93.4V76.8zm27.2 4.2c-1.1-.4-2-.6-2.8-.6-.6 0-1.1.1-1.4.3s-.5.5-.5 1c0 .4.1.7.4 1 .3.3.7.5 1.1.7.4.2 1.1.4 1.9.6 1.3.4 2.3.7 3.2 1.1.8.4 1.5.9 2.1 1.7.6.8.9 1.8.9 3s-.3 2.3-1 3.1-1.5 1.5-2.7 2c-1.1.4-2.4.7-3.8.7-1.5 0-3-.3-4.6-.8-1.5-.5-2.8-1.3-3.9-2.2l1.9-3.7c.9.8 2 1.5 3.3 2s2.4.8 3.4.8c.7 0 1.3-.1 1.7-.4.4-.3.6-.6.6-1.2 0-.4-.2-.8-.5-1-.3-.3-.7-.5-1.2-.7-.5-.2-1.1-.4-2-.6-1.3-.3-2.3-.7-3.1-1.1-.8-.4-1.5-.9-2.1-1.6-.6-.7-.9-1.7-.9-2.9 0-1.1.3-2.1.9-3 .6-.9 1.5-1.5 2.6-2s2.4-.7 3.9-.7c1.3 0 2.6.2 3.9.6s2.4.9 3.4 1.5l-1.8 3.8c-.7-.6-1.8-1.1-2.9-1.4z"/>
</svg>
