<svg xmlns="http://www.w3.org/2000/svg" width="191.999996" height="191.999996" viewBox="0 0 50.799999 50.799999">
    <g fill-rule="evenodd" stroke-width=".26" transform="translate(-128.949717 -151.708882) scale(3.90769)">
        <circle class="color-black color-main" fill="#38383a" cx="39.498943" cy="45.323139" r="6.5"/>
        <path fill="#fff" d="M38.957115 42.277081c-.498589 0-.900202.223228-.900202.500228v.426848h.000516a.375.375 0 0 0-.000516.0078.375.375 0 0 0 .300757.367419c.000304.00005.000767-.000049.001 0 .412242.06225.734322.704436.734322 1.493966v.463021c0 .785315-.319043 1.425369-.728121 1.493449v.000516a.375.375 0 0 0-.30799.368453.375.375 0 0 0 .000516.0067h-.000516v.463537c0 .277.401613.500229.900202.500229h1.083608c.498586 0 .900202-.223229.900202-.500229v-.463537h-.000516a.375.375 0 0 0 .000516-.0067.375.375 0 0 0-.307991-.368453v-.000516c-.408996-.068132-.728042-.708183-.728042-1.493498v-.463021c0-.78953.32208-1.431714.734322-1.493966.000331-.00005.000704.000049.001 0a.375.375 0 0 0 .300757-.367419.375.375 0 0 0-.000516-.0078h.000516v-.426848c0-.277-.401616-.500228-.900202-.500228h-.545654z"/>
    </g>
</svg>
