<?xml version="1.0" encoding="UTF-8" standalone="no"?>
<svg
   xmlns="http://www.w3.org/2000/svg"
   id="svg5037"
   version="1.1"
   viewBox="0 0 50.799999 50.799999"
   height="50.799999mm"
   width="50.799999mm">
  <g
     transform="translate(-82.70119,-91.683333)"
     id="layer1">
    <g
       transform="matrix(3.9076923,0,0,3.9076923,-46.248527,-60.025549)"
       id="g3374"
       style="display:inline;stroke-width:0.25999999">
      <circle
         style="fill:#38383a;fill-opacity:1;fill-rule:evenodd;stroke-width:0.06879167"
         id="path3077"
         cx="39.498943"
         cy="45.323139"
         r="6.5" />
      <path
         style="fill:#ffffff;fill-opacity:1;fill-rule:evenodd;stroke-width:0.06879167"
         d="m 38.957115,42.277081 c -0.498589,0 -0.900202,0.223228 -0.900202,0.500228 v 0.426848 h 5.16e-4 a 0.37499999,0.37499999 0 0 0 -5.16e-4,0.0078 0.37499999,0.37499999 0 0 0 0.300757,0.367419 c 3.04e-4,5e-5 7.67e-4,-4.9e-5 10e-4,0 0.412242,0.06225 0.734322,0.704436 0.734322,1.493966 v 0.463021 c 0,0.785315 -0.319043,1.425369 -0.728121,1.493449 v 5.16e-4 a 0.37499999,0.37499999 0 0 0 -0.30799,0.368453 0.37499999,0.37499999 0 0 0 5.16e-4,0.0067 h -5.16e-4 v 0.463537 c 0,0.277 0.401613,0.500229 0.900202,0.500229 h 0.537954 0.0077 0.537954 c 0.498586,0 0.900202,-0.223229 0.900202,-0.500229 v -0.463537 h -5.16e-4 a 0.37499999,0.37499999 0 0 0 5.16e-4,-0.0067 0.37499999,0.37499999 0 0 0 -0.307991,-0.368453 v -5.16e-4 C 40.223906,46.96168 39.90486,46.321629 39.90486,45.536314 v -0.463021 c 0,-0.78953 0.32208,-1.431714 0.734322,-1.493966 3.31e-4,-5e-5 7.04e-4,4.9e-5 0.001,0 a 0.37499999,0.37499999 0 0 0 0.300757,-0.367419 0.37499999,0.37499999 0 0 0 -5.16e-4,-0.0078 h 5.16e-4 V 42.77726 c 0,-0.277 -0.401616,-0.500228 -0.900202,-0.500228 h -0.537954 -0.0077 z"
         id="rect3079" />
    </g>
  </g>
</svg>
