<svg xmlns="http://www.w3.org/2000/svg" width="190.22575" height="100.795385" viewBox="0 0 50.330563 26.668779">
    <g stroke-width=".717865">
        <path class="color-main color-green" fill="#057a00" d="M32.663218 6.914798L6.248062 11.077506s.688904-1.969376 1.1566-2.899028c.457758-.909911.968091-1.805319 1.604302-2.601692.673574-.843146 1.470973-1.591017 2.313202-2.267186.93733-.752522 1.94153-1.441159 3.022072-1.969853.886081-.433551 1.836797-.743072 2.798217-.966341.97648-.226766 1.982172-.359345 2.984752-.371673 1.249756-.015364 2.51873.06846 3.730956.371673 1.1357.284073 2.213815.787092 3.245941 1.338011.884742.472249 1.727766 1.033444 2.499735 1.672518.683135.565527 1.291809 1.219977 1.865479 1.895514.437004.514596 1.1939 1.635349 1.1939 1.635349z"/>
        <path class="color-red" fill="#ff000b" d="M18.487984 19.753981l26.41515-4.162708s-.688898 1.969376-1.156593 2.899028c-.457759.90991-.968092 1.805319-1.604303 2.601692-.673574.843145-1.470973 1.591017-2.313202 2.267185-.93733.752523-1.94153 1.44116-3.022072 1.969854-.886081.43355-1.836797.743072-2.798217.966341-.97648.226766-1.982172.359345-2.984752.371673-1.249756.015364-2.51873-.068461-3.730956-.371673-1.1357-.284073-2.213815-.787092-3.245941-1.338011-.884741-.472249-1.727766-1.033444-2.499735-1.672518-.683135-.565527-1.291809-1.219977-1.865479-1.895514-.437004-.514596-1.1939-1.635349-1.1939-1.635349z"/>
        <path fill="#fff" fill-rule="evenodd" stroke="#020100" stroke-width=".538398" d="M95.813893 69.255359l35.211987-5.739652v7.265685l-35.211987 5.739652z" paint-order="stroke markers fill" transform="matrix(1.39569 0 0 1.39036 -132.916573 -83.85758)"/>
        <text style="line-height:1.25;-inkscape-font-specification:'Bodoni MT Bold'" stroke-width=".189935" x="83.328789" y="88.686684" font-family="Bodoni MT" font-size="5.997222" font-weight="700" letter-spacing="0" transform="matrix(1.3785 -.2175 .21833 1.37324 -132.91664 -83.857761)" word-spacing="0">
            <tspan x="83.328789" y="88.686684" font-size="5.291667" font-style="italic" rotate="0 0 0 0 0 0 0 0 0 0" style="-inkscape-font-specification:'Bodoni MT Bold Italic'">ARCHIMEDE</tspan>
        </text>
    </g>
</svg>
