<?xml version="1.0" encoding="UTF-8" standalone="no"?>
<svg
   id="svg299"
   version="1.1"
   viewBox="-7 -18.5 65 65"
   height="100.795385"
   width="190.22575">
  <defs
     id="defs303" />
  <g
     id="g297"
     stroke-width=".717865">
    <path
       style="fill:#ffffff;stroke-width:1.08798"
       class="color-main color-green"
       fill="#057a00"
       d="M 33.76618,6.9609132 5.0269617,11.489865 c 0,0 0.7495153,-2.1426461 1.2583601,-3.1540905 C 6.7833544,7.3458075 7.3385876,6.3716196 8.0307742,5.50518 8.7636107,4.5878522 9.6311657,3.7741819 10.547497,3.0385221 c 1.019797,-0.8187305 2.112349,-1.5679552 3.28796,-2.14316487 0.964041,-0.47169572 1.998402,-0.80844903 3.044409,-1.0513617 1.062393,-0.24671736 2.156569,-0.39096094 3.247357,-0.40437359 1.359712,-0.0167114 2.740334,0.0744832 4.059214,0.40437359 1.235621,0.30906633 2.408592,0.85634198 3.531526,1.45573217 0.962584,0.5137984 1.87978,1.1243684 2.719668,1.8196696 0.743238,0.6152833 1.405465,1.3273132 2.029609,2.0622854 0.47545,0.5598712 1.29894,1.7792305 1.29894,1.7792305 z"
       id="path287-1" />
    <path
       id="path287"
       d="M 32.663218,7.1160503 6.248062,11.278758 c 0,0 0.688904,-1.9693757 1.1566,-2.8990277 0.457758,-0.909911 0.968091,-1.805319 1.604302,-2.601692 0.673574,-0.843146 1.470973,-1.591017 2.313202,-2.267186 0.93733,-0.752522 1.94153,-1.441159 3.022072,-1.969853 0.886081,-0.433551 1.836797,-0.743072 2.798217,-0.966341 0.97648,-0.22676604 1.982172,-0.35934504 2.984752,-0.37167304 1.249756,-0.015364 2.51873,0.06846 3.730956,0.37167304 1.1357,0.284073 2.213815,0.787092 3.245941,1.338011 0.884742,0.472249 1.727766,1.033444 2.499735,1.672518 0.683135,0.565527 1.291809,1.219977 1.865479,1.895514 0.437004,0.514596 1.1939,1.635349 1.1939,1.635349 z"
       fill="#057a00"
       class="color-main color-green" />
    <path
       style="fill:#ffffff;stroke-width:1.09298"
       class="color-red"
       fill="#ff000b"
       d="M 17.324041,19.852363 46.19496,15.30262 c 0,0 -0.752946,2.152481 -1.264121,3.168571 -0.500315,0.99451 -1.058094,1.97317 -1.753452,2.843589 -0.736194,0.921536 -1.607727,1.738943 -2.528255,2.477979 -1.024474,0.82249 -2.122031,1.575153 -3.303029,2.153004 -0.968458,0.47386 -2.00756,0.812161 -3.058363,1.056188 -1.067262,0.247851 -2.166449,0.392756 -3.262238,0.406229 -1.365945,0.01679 -2.752892,-0.07482 -4.077816,-0.406229 -1.241284,-0.310485 -2.419628,-0.860273 -3.547711,-1.462414 -0.966993,-0.516156 -1.888392,-1.129531 -2.73213,-1.828023 -0.746645,-0.618109 -1.411907,-1.333406 -2.038909,-2.071752 -0.477631,-0.562443 -1.304895,-1.787399 -1.304895,-1.787399 z"
       id="path289-0" />
    <path
       id="path289"
       d="M18.487984 19.753981l26.41515-4.162708s-.688898 1.969376-1.156593 2.899028c-.457759.90991-.968092 1.805319-1.604303 2.601692-.673574.843145-1.470973 1.591017-2.313202 2.267185-.93733.752523-1.94153 1.44116-3.022072 1.969854-.886081.43355-1.836797.743072-2.798217.966341-.97648.226766-1.982172.359345-2.984752.371673-1.249756.015364-2.51873-.068461-3.730956-.371673-1.1357-.284073-2.213815-.787092-3.245941-1.338011-.884741-.472249-1.727766-1.033444-2.499735-1.672518-.683135-.565527-1.291809-1.219977-1.865479-1.895514-.437004-.514596-1.1939-1.635349-1.1939-1.635349z"
       fill="#ff000b"
       class="color-red" />
    <path
       id="path291"
       transform="matrix(1.39569 0 0 1.39036 -132.916573 -83.85758)"
       paint-order="stroke markers fill"
       d="M95.813893 69.255359l35.211987-5.739652v7.265685l-35.211987 5.739652z"
       stroke-width=".538398"
       stroke="#020100"
       fill-rule="evenodd"
       fill="#fff" />
    <text
       id="text295"
       word-spacing="0"
       transform="matrix(1.3785 -.2175 .21833 1.37324 -132.91664 -83.857761)"
       letter-spacing="0"
       font-weight="700"
       font-size="5.997222"
       font-family="Bodoni MT"
       y="88.686684"
       x="83.328789"
       stroke-width=".189935"
       style="line-height:1.25;-inkscape-font-specification:'Bodoni MT Bold'"><tspan
         id="tspan293"
         style="-inkscape-font-specification:'Bodoni MT Bold Italic'"
         rotate="0 0 0 0 0 0 0 0 0 0"
         font-style="italic"
         font-size="5.291667"
         y="88.686684"
         x="83.328789">ARCHIMEDE</tspan></text>
  </g>
</svg>
