<?xml version="1.0" encoding="UTF-8" standalone="no"?>
<svg
   xmlns="http://www.w3.org/2000/svg"
   id="svg1115"
   version="1.1"
   viewBox="0 0 50.799778 50.774601"
   height="50.774601mm"
   width="50.799778mm">
  <g
     transform="translate(-85.72511,-131.00555)"
     id="layer1">
    <g
       transform="matrix(2.8370335,0,0,2.8370335,-201.43915,-527.75956)"
       id="g1941"
       style="display:inline">
      <path
         style="fill:#0f679f;fill-opacity:1;stroke:none;stroke-width:0.00440972;stroke-miterlimit:4;stroke-dasharray:none;stroke-opacity:1"
         d="m 109.41426,250.06773 c -0.91108,-0.0873 -1.86373,-0.2965 -2.25225,-0.49471 -0.0695,-0.0355 -0.15343,-0.0645 -0.18651,-0.0645 -0.0689,0 -0.44751,-0.15682 -0.57087,-0.23643 -0.0455,-0.0293 -0.12459,-0.0631 -0.17581,-0.075 -0.12116,-0.0282 -0.88899,-0.48626 -1.08096,-0.64491 -0.0819,-0.0677 -0.17558,-0.13296 -0.20827,-0.14513 -0.11026,-0.041 -0.73214,-0.566 -1.02602,-0.86611 -0.36293,-0.37064 -1.13254,-1.28346 -1.21317,-1.43892 -0.033,-0.0637 -0.10716,-0.18042 -0.16476,-0.25945 -0.11795,-0.16185 -0.34324,-0.57808 -0.37955,-0.70124 -0.0132,-0.0446 -0.0878,-0.20761 -0.16586,-0.36223 -0.0781,-0.15461 -0.15213,-0.31832 -0.16456,-0.3638 -0.0124,-0.0455 -0.0648,-0.1943 -0.11645,-0.33073 -0.14011,-0.3704 -0.32376,-1.06461 -0.38059,-1.43867 -0.33427,-2.20037 0.10894,-4.43674 1.23699,-6.24163 0.64193,-1.02709 1.51076,-1.9474 2.44054,-2.58514 0.41968,-0.28786 0.9549,-0.61555 1.0054,-0.61555 0.0145,0 0.0788,-0.0356 0.14287,-0.0791 0.24967,-0.16942 1.07388,-0.47642 1.78052,-0.66319 0.83509,-0.22072 1.17861,-0.26018 2.25653,-0.25918 0.80268,8e-4 1.02384,0.0117 1.35599,0.0672 0.43738,0.073 1.08553,0.24365 1.61064,0.42397 0.48881,0.16785 1.47164,0.65925 1.88843,0.94417 0.19643,0.13429 0.42955,0.28993 0.51804,0.34587 0.22422,0.14175 0.85373,0.71616 1.20443,1.09903 0.81637,0.89123 1.51408,2.07651 1.90194,3.23103 0.20223,0.60198 0.282,0.95342 0.36616,1.6132 0.16373,1.28349 0.10294,2.37188 -0.19934,3.56883 -0.22883,0.90616 -0.89358,2.25209 -1.50605,3.04935 -0.51001,0.6639 -1.62557,1.7146 -2.17873,2.05207 -0.0913,0.0557 -0.17338,0.10938 -0.18248,0.11932 -0.009,0.01 -0.19513,0.11611 -0.41341,0.23593 -0.70586,0.38744 -1.44559,0.69937 -1.90714,0.8042 -0.10305,0.0234 -0.20094,0.0509 -0.21753,0.0612 -0.034,0.021 -0.571,0.13071 -0.91034,0.18595 -0.21621,0.0352 -1.4245,0.10301 -1.69442,0.0951 -0.0728,-0.002 -0.25879,-0.016 -0.41341,-0.0308 z m -2.09469,-3.03137 c -0.012,-0.88677 -0.0219,-1.90672 -0.0219,-2.26657 l -4e-5,-0.65426 -2.31237,0.009 c -1.2718,0.005 -2.32232,0.0193 -2.33449,0.0315 -0.0281,0.0281 0.3239,0.76365 0.51172,1.06926 0.1763,0.28685 0.61392,0.87805 0.89383,1.2075 0.45226,0.53231 1.03743,1.04674 1.67035,1.46843 0.46442,0.30943 1.33977,0.74711 1.49419,0.74711 h 0.12064 z m 6.35331,1.36593 c 1.05961,-0.51891 2.10334,-1.35274 2.81628,-2.24989 0.26935,-0.33896 0.6738,-0.95397 0.79274,-1.20547 0.0524,-0.11073 0.1094,-0.21983 0.12673,-0.24244 0.0693,-0.0904 0.21491,-0.48729 0.19643,-0.53545 -0.0175,-0.0457 -0.25284,-0.0514 -2.1328,-0.0514 -1.1622,0 -2.18214,0.009 -2.26653,0.021 l -0.15345,0.021 v 2.24447 c 0,2.12824 0.003,2.24446 0.0588,2.24446 0.0323,0 0.28515,-0.11087 0.56185,-0.24637 z m -10.11157,-5.78754 c 0.27632,-0.0935 0.36963,-0.16977 0.4878,-0.39877 0.0684,-0.13255 0.0858,-0.21458 0.0877,-0.41341 0.005,-0.55358 -0.12086,-0.72667 -0.7545,-1.03573 -0.49484,-0.24135 -0.47611,-0.21826 -0.49174,-0.60616 -0.007,-0.16421 0.004,-0.21724 0.0579,-0.27624 0.24365,-0.26929 0.6119,-0.19375 0.79246,0.16256 0.0821,0.16193 0.18397,0.22418 0.2964,0.18104 0.15546,-0.0597 -0.0228,-0.49296 -0.30046,-0.73013 -0.17527,-0.14974 -0.18853,-0.15496 -0.38901,-0.15307 -0.27487,0.003 -0.41149,0.0519 -0.55705,0.20102 -0.16164,0.16561 -0.22276,0.3534 -0.22187,0.68164 0.001,0.46287 0.099,0.59205 0.63636,0.84141 0.38035,0.17647 0.48246,0.25282 0.55666,0.4162 0.0756,0.16641 0.0812,0.45094 0.0116,0.58557 -0.0653,0.12638 -0.32754,0.29417 -0.4594,0.29401 -0.19549,-2.4e-4 -0.48135,-0.25852 -0.48135,-0.4349 0,-0.13937 -0.0694,-0.19949 -0.2163,-0.18751 -0.12908,0.0105 -0.13112,0.0128 -0.14132,0.15492 -0.0133,0.18584 0.1202,0.46759 0.27903,0.58873 0.0903,0.0689 0.41844,0.19328 0.54671,0.20725 0.0119,10e-4 0.1291,-0.034 0.26044,-0.0784 z m 2.33069,-0.0595 c 0.0546,-0.0285 0.1353,-0.0905 0.1794,-0.1377 0.11115,-0.11899 0.13479,-0.10833 0.13479,0.0608 0,0.11925 0.0128,0.15065 0.0685,0.16835 0.10364,0.0329 0.21904,-0.008 0.23918,-0.0852 0.0275,-0.10502 -0.0156,-2.18729 -0.047,-2.27198 -0.0181,-0.0489 -0.0549,-0.0744 -0.10702,-0.0744 -0.0995,0 -0.13899,0.0489 -0.16754,0.20734 l -0.0225,0.12467 -0.10922,-0.11582 c -0.23552,-0.24971 -0.58724,-0.31225 -0.99793,-0.17743 -0.26149,0.0858 -0.38578,0.19971 -0.51406,0.47094 -0.12818,0.27106 -0.17114,0.50861 -0.15567,0.86092 0.0209,0.47543 0.19987,0.79109 0.55408,0.97711 0.18715,0.0983 0.75109,0.0938 0.94492,-0.008 z m 1.37783,-0.71233 c 0.011,-0.80374 0.0129,-0.82269 0.0959,-0.98392 0.0466,-0.0904 0.13433,-0.19787 0.19506,-0.2388 0.23639,-0.1593 0.5797,-0.0458 0.75295,0.24893 l 0.0918,0.15622 0.0104,0.81855 0.0104,0.81856 h 0.11096 c 0.22463,0 0.21564,0.0302 0.21501,-0.72288 -5.3e-4,-0.70096 -0.0382,-1.01567 -0.14655,-1.22513 -0.15459,-0.29893 -0.46188,-0.49849 -0.7685,-0.49907 -0.2351,-5.3e-4 -0.33676,0.0432 -0.48162,0.20692 l -0.12393,0.14003 -1e-4,-0.11771 c -1.4e-4,-0.15362 -0.0638,-0.23904 -0.16731,-0.22443 -0.077,0.0109 -0.0818,0.0255 -0.10213,0.30906 -0.0117,0.16371 -0.0229,0.70232 -0.0248,1.1969 l -0.004,0.89924 0.12403,0.013 c 0.0682,0.007 0.14129,0.0155 0.1624,0.0185 0.028,0.004 0.0414,-0.21639 0.0496,-0.81397 z m 2.40902,-0.2745 v -1.09403 l 0.1018,0.0224 c 0.056,0.0123 0.15273,0.0128 0.21497,0.001 0.0959,-0.018 0.1131,-0.0349 0.11267,-0.11069 -7.9e-4,-0.14889 -0.0428,-0.18424 -0.1907,-0.16059 -0.0944,0.0151 -0.14291,0.008 -0.17092,-0.0261 -0.0218,-0.0263 -0.0476,-0.20902 -0.0584,-0.41325 -0.0214,-0.40578 -0.0469,-0.45816 -0.19845,-0.40779 l -0.0921,0.0306 -0.0165,0.39421 -0.0165,0.39422 -0.1819,0.0165 -0.1819,0.0165 v 0.13229 c 0,0.11668 0.01,0.13334 0.0827,0.14121 0.0455,0.005 0.13105,0.0168 0.19017,0.0263 l 0.10749,0.0174 v 0.83701 c 0,0.46036 0.01,0.92779 0.0211,1.03875 0.0218,0.20848 0.0365,0.22553 0.20215,0.23408 l 0.0744,0.004 z m 2.08678,1.01032 c 0.0619,-0.0317 0.1721,-0.1111 0.24486,-0.17649 l 0.13229,-0.11891 0.01,0.15385 c 0.005,0.0846 0.0286,0.1693 0.0513,0.18817 0.0632,0.0525 0.18818,0.005 0.22235,-0.0853 0.0168,-0.0442 0.0305,-0.58622 0.0305,-1.20455 v -1.12422 l -0.14056,0.0102 -0.14056,0.0102 -0.0103,0.16536 c -0.0115,0.18535 -0.0543,0.25817 -0.0884,0.15054 -0.0124,-0.0391 -0.11361,-0.13733 -0.22488,-0.2183 -0.17653,-0.12845 -0.22376,-0.14721 -0.37065,-0.14721 -0.19763,0 -0.49592,0.0723 -0.67485,0.16359 -0.15031,0.0767 -0.29486,0.28811 -0.42011,0.61448 -0.1117,0.29108 -0.11789,0.62432 -0.0175,0.94172 0.12108,0.38275 0.29735,0.57476 0.65281,0.71107 0.16831,0.0645 0.58845,0.0453 0.74362,-0.0341 z m 2.39774,0.0511 c 0.0674,-5.3e-4 0.0699,-0.0195 0.0924,-0.70197 0.0127,-0.38584 0.0282,-0.70656 0.0343,-0.71272 0.006,-0.006 0.22502,-0.0201 0.48635,-0.031 0.2873,-0.012 0.48476,-0.0342 0.49945,-0.0562 0.0134,-0.02 0.0245,-0.0754 0.0248,-0.12302 5.3e-4,-0.0745 -0.0168,-0.0895 -0.12351,-0.10712 -0.0682,-0.0113 -0.2989,-0.0207 -0.51263,-0.0208 l -0.38861,-2.7e-4 v -0.57461 -0.57461 l 0.48377,-0.0145 c 0.43052,-0.0129 0.48893,-0.0216 0.53063,-0.0786 0.0258,-0.0352 0.0425,-0.10867 0.0371,-0.16324 l -0.01,-0.0992 -0.65498,0.005 c -0.36024,0.002 -0.66534,0.0149 -0.67799,0.0275 -0.0126,0.0127 -0.0273,0.75289 -0.0325,1.645 l -0.009,1.62202 0.0756,-0.0203 c 0.0416,-0.0111 0.1068,-0.0204 0.14491,-0.0207 z m 2.91046,-0.0439 c 0.18431,-0.0968 0.54252,-0.53481 0.54252,-0.66339 0,-0.0504 -0.0689,-0.0869 -0.16406,-0.0869 -0.0327,0 -0.13107,0.0839 -0.21865,0.18638 -0.17088,0.20002 -0.41726,0.3419 -0.59472,0.34247 -0.10428,2.6e-4 -0.37611,-0.12231 -0.49682,-0.22415 -0.11528,-0.0973 -0.17441,-0.21411 -0.19751,-0.39031 l -0.0221,-0.1683 0.55454,-0.0219 c 0.305,-0.012 0.70843,-0.0219 0.89652,-0.0219 h 0.34198 l -2.6e-4,-0.12403 c -0.001,-0.30376 -0.16405,-0.68939 -0.40113,-0.94848 -0.12544,-0.13708 -0.19014,-0.17831 -0.3541,-0.22561 -0.26773,-0.0772 -0.45591,-0.0729 -0.68754,0.0157 -0.3577,0.13689 -0.57606,0.45533 -0.64728,0.94395 -0.0951,0.65252 0.20209,1.27965 0.66831,1.41025 0.22072,0.0618 0.64176,0.049 0.7804,-0.0239 z m -9.79631,-4.40753 c 0.011,-0.0288 0.0201,-1.04772 0.0201,-2.26433 0,-2.20209 -2.6e-4,-2.21218 -0.0684,-2.2486 -0.0522,-0.028 -0.0854,-0.0256 -0.14056,0.0101 -0.0397,0.0257 -0.1186,0.0557 -0.17531,0.0668 -0.0967,0.0189 -0.96079,0.473 -1.25288,0.65842 -0.43076,0.27346 -1.45318,1.19163 -1.73002,1.55364 -0.40123,0.52465 -0.5308,0.71058 -0.73605,1.05623 -0.12699,0.21387 -0.25368,0.44566 -0.28152,0.51509 -0.0278,0.0694 -0.0934,0.21553 -0.14568,0.32467 -0.0523,0.10914 -0.10519,0.23937 -0.11757,0.28939 l -0.0225,0.091 h 2.31515 c 2.08061,0 2.31719,-0.005 2.33523,-0.0523 z m 10.35773,-0.0327 c -0.0272,-0.10851 -0.37525,-0.86405 -0.44833,-0.97333 -0.0304,-0.0455 -0.10896,-0.18008 -0.17455,-0.29912 -0.31547,-0.57255 -1.16923,-1.52993 -1.78305,-1.99944 -0.0713,-0.0546 -0.22683,-0.1767 -0.34552,-0.2714 -0.11869,-0.0947 -0.24656,-0.18194 -0.28417,-0.19387 -0.0376,-0.0119 -0.1798,-0.0944 -0.31598,-0.18335 -0.31417,-0.20508 -1.03754,-0.55855 -1.14309,-0.55855 -0.0802,0 -0.0803,2.7e-4 -0.10439,0.4824 -0.0133,0.26532 -0.0131,1.29224 2.6e-4,2.28203 l 0.0245,1.79964 h 2.29778 2.29778 z"
         id="path1929" />
      <path
         style="fill:#0f679f;fill-opacity:1;stroke:none;stroke-width:0.00440972;stroke-miterlimit:4;stroke-dasharray:none;stroke-opacity:1"
         d="m 105.27235,242.36667 c -0.15232,-0.0488 -0.31531,-0.16462 -0.42321,-0.30085 -0.14706,-0.18568 -0.22658,-0.57666 -0.16932,-0.83251 0.0787,-0.3516 0.35227,-0.64602 0.65266,-0.70238 0.18683,-0.035 0.446,0.058 0.60523,0.2172 0.18595,0.18595 0.24503,0.39566 0.23017,0.81702 -0.0109,0.30899 -0.0153,0.32518 -0.12705,0.46453 -0.23148,0.28872 -0.52168,0.41597 -0.76848,0.33699 z"
         id="path1931" />
      <path
         style="fill:#0f679f;fill-opacity:1;stroke:none;stroke-width:0.00440972;stroke-miterlimit:4;stroke-dasharray:none;stroke-opacity:1"
         d="m 111.15202,242.34942 c -0.35672,-0.0958 -0.56573,-0.47078 -0.54169,-0.97197 0.0168,-0.34894 0.1088,-0.52957 0.36663,-0.71938 0.2401,-0.17674 0.38481,-0.19021 0.64592,-0.0601 0.43173,0.21514 0.64267,0.80497 0.44538,1.24542 -0.10189,0.22748 -0.35166,0.46219 -0.54607,0.51317 -0.1844,0.0483 -0.16177,0.0488 -0.37017,-0.007 z"
         id="path1933" />
      <path
         style="fill:#0f679f;fill-opacity:1;stroke:none;stroke-width:0.00440972;stroke-miterlimit:4;stroke-dasharray:none;stroke-opacity:1"
         d="m 115.9296,241.18461 c 4e-5,-0.14316 0.0464,-0.25424 0.17042,-0.4086 0.23345,-0.2905 0.62334,-0.34717 0.9312,-0.13536 0.191,0.13141 0.32008,0.31779 0.3441,0.49685 l 0.0179,0.1334 -0.73182,0.01 -0.73182,0.01 z"
         id="path1935" />
    </g>
  </g>
</svg>
