<svg xmlns="http://www.w3.org/2000/svg" width="191.999161" height="191.904004" viewBox="0 0 50.799778 50.774601">
    <g class="color-main color-blue" fill="#0f679f">
        <path d="M23.247661 50.685417c-2.584764-.247673-5.287464-.84118-6.389709-1.403509-.197174-.100714-.435286-.182988-.529135-.182988-.195471 0-1.2696-.444904-1.619577-.67076-.129085-.083125-.353466-.179017-.498779-.212778-.343735-.080004-2.522094-1.379535-3.06672-1.82963-.232353-.192068-.498126-.377213-.590869-.41174-.312811-.116318-2.077105-1.60576-2.910853-2.457183-1.029644-1.051518-3.213054-3.641219-3.441804-4.082264-.093622-.180719-.304016-.511857-.46743-.736068-.334627-.459174-.973783-1.640033-1.076795-1.989442-.03745-.126531-.249092-.588996-.47055-1.027658-.221573-.438634-.431599-.903085-.466863-1.032113-.03518-.129085-.18384-.551236-.330373-.938292-.397496-1.050837-.918518-3.020334-1.079746-4.081555-.948335-6.242523.309066-12.58718 3.509382-17.707713 1.821177-2.91389 4.286077-5.52484 6.923894-7.33413 1.190646-.816668 2.709083-1.746335 2.852353-1.746335.041137 0 .223558-.100999.405327-.22441.708322-.48065 3.046634-1.35162 5.051395-1.881492 2.369178-.62619 3.343756-.73814 6.401851-.735302 2.27723.00227 2.904669.033193 3.84699.190648 1.24086.207104 3.079684.691244 4.569439 1.202818 1.38677.476196 4.175092 1.870314 5.357539 2.678642.557279.380985 1.218648.82254 1.469697.981244.63612.40215 2.42206 2.03177 3.417008 3.117985 2.31607 2.52845 4.295496 5.891129 5.395868 9.16654.573733 1.707838.800043 2.704885 1.038808 4.576703.464507 3.641304.292044 6.729103-.565534 10.12489-.649199 2.570807-2.535117 6.389255-4.272715 8.651108-1.446915 1.883507-4.611796 4.864378-6.18113 5.821792-.25902.158022-.491885.310314-.517702.338515-.025533.02837-.55359.329408-1.172858.66934-2.002548 1.099181-4.101187 1.984137-5.41062 2.281543-.292356.066387-.570073.144405-.61714.173627-.096459.059577-1.619946.370828-2.582665.527546-.613395.099864-4.041354.292243-4.807126.269802-.206536-.005674-.734196-.045393-1.172858-.08738zm-5.942706-8.600098c-.034044-2.515796-.06213-5.409428-.06213-6.430335l-.000114-1.856158-6.560271.025534c-3.60814.014185-6.5885.054755-6.623027.089366-.07972.079721.918915 2.166501 1.451767 3.033527.50017.813803 1.741712 2.491057 2.535826 3.425718 1.283076 1.510181 2.943223 2.969636 4.738839 4.165985 1.317575.877863 3.800972 2.119576 4.239067 2.119576h.34226zm18.024554 3.87519c3.006149-1.472166 5.967246-3.83777 7.98988-6.383014.764155-.961641 1.911593-2.706445 2.24903-3.419959.14866-.314145.310372-.623665.359537-.68781.196607-.256468.609707-1.382458.557279-1.51909-.049648-.129652-.717316-.145823-6.050825-.145823-3.2972 0-6.190804.025533-6.430222.059577l-.435342.059578v6.367637c0 6.037888.00851 6.367608.166817 6.367608.091636 0 .80898-.314542 1.593987-.69896zM6.642646 29.541062c.783929-.265262 1.048652-.481643 1.383905-1.131324.194053-.376048.243417-.60877.248808-1.172858.014185-1.570525-.342884-2.061587-2.140542-2.9384-1.403878-.684718-1.35074-.619211-1.395083-1.719696-.01986-.46587.011348-.616318.164264-.783703.691243-.763984 1.735981-.549675 2.248236.461189.23292.4594.521929.636006.840896.513616.441046-.16937-.064684-1.398544-.852415-2.071403-.497246-.424818-.534866-.439627-1.103634-.434265-.779815.008511-1.16741.147242-1.58037.5703-.458578.469842-.631977 1.002608-.629452 1.933836.002837 1.313178.280866 1.679666 1.805374 2.387108 1.079066.500652 1.368756.71726 1.579264 1.180774.21448.47211.230367 1.279332.03291 1.661282-.18526.358544-.929243.83457-1.303334.834116-.554612-.000681-1.365606-.73343-1.365606-1.233826 0-.395397-.19689-.56596-.61365-.531972-.366205.029789-.371992.036314-.40093.439513-.037733.527234.341011 1.326568.791617 1.670247.256185.195471 1.187129.548342 1.551035.587975.03376.002837.366261-.09646.738877-.222424zm6.612245-.168803c.154902-.080856.383851-.256752.508964-.39066.315336-.337578.382404-.307336.382404.172492 0 .338316.036314.4274.194337.477615.29403.093338.621424-.022697.678561-.241716.078019-.297945-.044257-6.205415-.13334-6.445683-.05135-.138731-.155753-.211075-.30362-.211075-.282284 0-.394319.13873-.475316.58823l-.063833.353693-.309861-.328585c-.668178-.708436-1.66602-.885864-2.831161-.503375-.741856.243418-1.09447.566584-1.458405 1.336073-.363651.769006-.48553 1.442943-.441641 2.442459.059294 1.34881.567037 2.244348 1.571943 2.772093.53095.27888 2.130868.266114 2.68077-.022696zm3.90895-2.020904c.031208-2.280238.036598-2.334.272072-2.791414.132206-.256468.381098-.561364.553392-.677484.670646-.45194 1.644628-.129936 2.136144.706223l.26044.443201.029505 2.322254.029505 2.322282h.314797c.637283 0 .611778.085679.60999-2.050835-.001503-1.988647-.108374-2.88149-.415767-3.475734-.438577-.848075-1.310369-1.414233-2.18026-1.415879-.666986-.001503-.9554.12256-1.366372.58704l-.351593.397269-.000284-.333947c-.000397-.435825-.181003-.678165-.474664-.636716-.218452.030924-.23207.072345-.289746.876814-.033194.46445-.064969 1.992505-.070359 3.395645l-.011348 2.551174.351877.036882c.193486.01986.400845.043974.460734.052485.079437.011348.117454-.613906.140717-2.30926zm6.83447-.778766v-3.1038l.28881.06355c.158875.034895.4333.036314.609878.002837.272071-.051067.320868-.099013.319648-.314031-.00224-.422406-.121425-.522695-.541022-.4556-.267816.04284-.40544.022697-.484906-.074046-.061847-.074614-.135042-.592997-.165682-1.172404-.060713-1.151212-.133057-1.299815-.56301-1.156914l-.26129.086813-.046812 1.118387-.04681 1.118415-.516057.046811-.516056.046812v.37531c0 .331026.02837.37829.234622.400618.129085.014185.371793.047662.539519.074614l.304953.049365v2.374625c0 1.306057.02837 2.632171.059861 2.946969.061847.591464.103552.639836.573506.664092l.211076.011348zm5.920265 2.866312c.175613-.089934.488254-.315195.694676-.500708l.375312-.337352.02837.436478c.014185.240013.08114.48031.14554.533844.1793.148945.533873.014185.630814-.241999.047662-.125397.08653-1.663125.08653-3.417348v-3.18945l-.398774.028938-.398773.028937-.029222.469132c-.032625.525844-.15405.732437-.250793.427087-.03518-.110928-.322316-.38961-.637992-.619324-.500822-.364417-.634815-.41764-1.051547-.41764-.560683 0-1.406942.205118-1.914572.46411-.426434.2176-.836528.817378-1.191866 1.7433-.316897.825804-.334458 1.771217-.049648 2.671692.343508 1.085874.843592 1.630613 1.852044 2.01733.4775.182988 1.669452.128517 2.109674-.096744zm6.80247.144972c.191215-.001503.198308-.055322.262141-1.991512.03603-1.094641.080004-2.004535.09731-2.02201.017023-.017023.63839-.057025 1.379792-.087949.81508-.034044 1.37528-.097026 1.416956-.159441.038016-.05674.069507-.213912.070358-.349012.001504-.211359-.047662-.253914-.350402-.303903-.193485-.032058-.847989-.058727-1.454348-.05901l-1.1025-.000766v-3.260376l1.372472-.041137c1.2214-.036598 1.38711-.06128 1.505415-.22299.073196-.099864.120574-.308301.105254-.463118l-.02837-.281434-1.8582.014185c-1.022013.005674-1.887592.042272-1.92348.078019-.035747.03603-.077452 2.135974-.092204 4.66692l-.025534 4.601725.21448-.057592c.11802-.03149.302995-.057875.411114-.058726zm8.257072-.124546c.522893-.274624 1.539147-1.517273 1.539147-1.88206 0-.142986-.195472-.246537-.465444-.246537-.09277 0-.37185.238027-.620317.528766-.484792.567463-1.18378.969982-1.68724.971599-.295846.000737-1.067037-.346998-1.409496-.635921-.327053-.276044-.494807-.607438-.560342-1.107323l-.062698-.477473 1.573248-.06213c.865295-.034045 2.00984-.062132 2.543457-.062132h.97021l-.000739-.351877c-.002837-.861777-.465415-1.955822-1.138019-2.69087-.355877-.3889-.539433-.50587-1.004593-.640063-.75956-.219019-1.293432-.20682-1.950574.044542-1.014807.388361-1.634302 1.291786-1.836355 2.678018-.269802 1.85122.573336 3.63041 1.896017 4.000926.62619.175329 1.820695.139015 2.214021-.067805zm-27.79246-12.50431c.031207-.081706.057024-2.972417.057024-6.42398 0-6.247403-.000737-6.276029-.194053-6.379353-.148093-.079437-.242282-.072629-.398773.028654-.11263.072911-.336472.158022-.49736.189513-.274342.05362-2.725794 1.341917-3.554463 1.86796-1.22208.775815-4.12272 3.380694-4.908125 4.407729-1.138303 1.48845-1.505897 2.015939-2.088198 2.99656-.360275.606756-.719699 1.264352-.798682 1.461327-.07887.19689-.264979.611466-.413299.9211-.148377.309634-.298427.6791-.33355.821009l-.063833.25817h6.568158c5.90276 0 6.573946-.014185 6.625126-.148377zm29.385227-.09277c-.077167-.307847-1.064597-2.45134-1.271927-2.76137-.086246-.129086-.309123-.510894-.495204-.848614-.895-1.624344-3.317145-4.340463-5.058573-5.672478-.20228-.154902-.643524-.501304-.980252-.769971-.336727-.268667-.699499-.51617-.8062-.550016-.106672-.03376-.510098-.267816-.896445-.52017-.891311-.581819-2.943536-1.584625-3.242985-1.584625-.22753 0-.227814.000766-.296158 1.368585-.037733.752722-.037165 3.666128.000738 6.474195l.069507 5.10564h13.037758z"/>
        <path d="M11.496924 28.837252c-.432137-.138447-.894545-.467032-1.200661-.853521-.417215-.52678-.642815-1.636004-.480367-2.36186.223275-.9975.999402-1.83278 1.851618-1.992675.530043-.099296 1.265317.164548 1.717058.616204.527547.527546.695159 1.1225.653 2.317913-.030923.876615-.043406.922547-.360445 1.317887-.656716.819108-1.480024 1.180121-2.180203.956052zm16.68082-.048939c-1.012026-.271788-1.604995-1.335618-1.536792-2.757511.047662-.989955.308669-1.502408 1.040141-2.040905.681172-.501418 1.09172-.539633 1.832497-.170506 1.224832.61036 1.823276 2.283727 1.263558 3.533298-.289065.645369-.997671 1.311249-1.549219 1.45588-.523149.13703-.458947.138448-1.050185-.019859zm13.554155-3.304605c.000113-.40615.131638-.721287.483487-1.159212.662306-.824158 1.768437-.984933 2.641846-.38402.541873.372814.908077.90158.976223 1.40958l.050783.37846-2.076198.02837-2.076198.02837z"/>
    </g>
</svg>
