<svg xmlns="http://www.w3.org/2000/svg" viewBox="0 0 612 612">
    <circle fill="#fdfcfc" cx="306" cy="306" r="306"/>
    <path class="color-gray color-main" fill="#595a5b" d="M468.1 205.8c2.8-1.7 5.5-3.3 9.5-5.8 11.3 17.6 22.7 35.3 34.1 53.2 7.5-.7 14.6-1.3 22.2-2 2.3 5.9 4 11.6 6.5 16.8 8.4 17.7 15.5 36.2 26.1 52.5 8.5 13.2 8.9 26.6 9.8 42.3-9.2-3.2-17.4-6.1-25.6-8.9-27.6-9.4-31.8-7.9-43.6 20-20 47.3-52.5 83.2-96.9 108.3-12.6 7.1-26.3 12.2-39.9 17.3 10.8-27.6 13.9-42.7 12.6-63.1-17.1-5.1-35.5-4-50.7-14.5-6-4.2-12-8.7-12-17.5 3 3.2 5.7 6.9 9.2 9.5 4.7 3.5 9.7 7.9 15 8.8 18 2.9 34.4 10.8 52 14.8 8.9 2 13.5.9 19.9-6.6-3.6-.1-7.6-1.3-10.9-.2-6.3 2.2-11.3 1.1-16.4-3-3.5-2.9-7.5-5.1-11.3-7.6.5-.9 1.1-1.8 1.6-2.7 3.9 2.2 7.6 5 11.8 6.5 4 1.5 8.6 2.2 12.9 2 1.4-.1 2.6-4.1 4-6.4-20.7-8.2-21.3-8.8-17.6-14.5 5.4 2.9 10.5 6 16 8.1 1.8.7 4.6-2 7.1-2.6 1.9-.5 4.1-.1 6.1-.1.1.8.2 1.6.3 2.5-2.5 1.2-4.9 2.4-8.1 3.8v7.9c7.1 2.4 10.4-.7 12-6.6 3.3-12.2-6.3-25.7-18.8-26.5-2.2-.1-4.5 0-6.8 0-.1-.7-.2-1.3-.4-2 4-1.1 8.1-2.1 12.3-3.3V358c1.1 1 2.4 2.2 3.6 3.3.7-.3 1.3-.5 2-.8-1.5-4.1-3.1-8.1-4.6-12.2-.8.1-1.7.2-2.5.4 2-1.9 4.1-3.9 6.1-5.8 7.5 2.9 11 .8 17.4-10.8h-22.7c-4.5-7.6-9.4-15.6-15.2-25.3v12c-.5.1-.9.2-1.4.3-1-3.5-2.1-6.9-3.1-10.4 2.9-.3 5.6-.6 8.5-1 2.6 1.5 5.4 3.3 8.3 5 1.9 6.1 3.9 12.3 5.8 18.4 1.2.3 2.4.6 3.7.8 2.7-3 5.8-5.7 8-9 4.1-6.2 6.9-13.4 11.6-19.1 3-3.7 8.5-5.3 12.9-7.8.4.7.8 1.4 1.3 2.1-10.8 6.3-16.9 15.8-20 28.1h14.4c-4.7 6.8-8.2 12-11.9 17.2-1.4 2.1-4 3.9-4.3 6.1-1.9 14.6-3 29.3 1.7 43.7 7.9 24.5 40.5 25.4 53.6 12.2 9.1-9.1 9.7-20.3 1.3-28.9-.3.5-.7 1-.7 1.6-1.3 11.9-6.6 17.4-16.9 17.1-12.2-.4-19-6.9-18.6-19.1.2-6.1 1.4-12.4 3-18.3 4-15.2 9.1-30 12.6-45.3 1.7-7.1 1.9-15 .8-22.3-1.8-11.5-11.2-17.6-21.6-12.9-9.2 4.1-17.7 10.8-25.1 17.7-5 4.7-7.7 11.8-11.5 17.8 3.3-24.1 14.3-35.6 44.4-44.7-8.9-7-17.9-9.4-27.8-7.7-17.2 2.9-30.3 13.1-41.6 25.6-1.9 2.1-1.6 6.6-1.7 10 0 3.5.7 7.1 1.2 10.7l.2-.2c-2.4-3.3-5.1-6.4-7.2-9.9-25.5-42.7-80.3-58.7-120.9-35.1-12.8 7.4-21.8 17.2-25.5 30 2.7-2.9 5.2-5.9 8-8.6 22-21.5 47.7-27.2 76.8-17.2 17.4 6 26.9 19.6 32.6 36.8-1-.8-2-1.5-2.9-2.4-.9-1-1.5-2.1-2.3-3.2-24.9-38.5-78.7-34.4-104.2-7-26.4 28.4-31.4 74.9-10.7 107.5.2.4 1.1.4 3.3 1-.7-4.5-1.8-8.4-1.8-12.3 0-4 0-8.9 2.2-11.6 1.5-1.8 6.7-.7 10.7-.8.8-8.7 1-18.5 2.7-28 4.3-24.3 21.7-38 45.7-36.8 13.4.7 21.4 5.6 33.2 21.2 2.6-2.4 5-4.6 8.4-7.7 1.7 1.9 4.4 5.1 6.9 8.1-7.2 3-13.4 5.7-21 8.9-5.6-9.6-10.9-23.1-24.9-22.2 1.6 2.2 4.6 5.8 7 9.7 2.3 3.8 4.1 7.9 6.3 12.3-11 .5-13-1.5-12.2-11.7-2.8-1.8-5.9-3.7-10.3-6.5 1.1 12.9 4.8 21.2 16.2 25.1 6.6 2.3 12.8 6 19.7 9.4-8.6 8.7-11.9 19.4-5.9 33.4-10.3-6.6-15.8.3-18.6 6-3 6-2.3 13.8-3.2 21.4-13.2-18.5-27-37.7-40.9-57-.8.4-1.6.7-2.4 1.1-.4 13-2.1 26 6.4 38.1 10.5 14.9 20.4 30.3 31.3 46.6 1.8-4.5 3-7.6 4.9-12.7 20.3 24.5 39.7 47.9 60.3 72.8-54.4 10.3-104.7 3.3-151.8-22.9-47-26.1-79.6-65-99.9-116.6C79.8 379.5 63 392.5 44.4 407c.4-14-2.4-25.6 5.6-37.3 18-26.1 34.7-53.1 52-79.7 1.6-2.4 3.3-4.8 5.3-7.6 3.8 2.7 7.1 5.1 10.5 7.5 2 1.9 4 3.8 7.6 7.1 15.1-21.5 29.4-41.8 44.6-63.3 15.8 21.4 30.5 41.3 45.9 62.1 13.4-31.1 36-47.3 67.5-52.3 31.2-4.9 58.7 2.5 83.1 24.6 10.5-11.5 20.5-22.5 30.7-33.6 4 2.1 7.9 4.2 11.8 6.3 8.7-7.4 16.9-14.2 25-21 3.9 1.6 6.8 3.5 9.9 3.9 2.9.4 6.9.1 8.9-1.7 5.6-4.9 10.3-10.7 15.3-16.2zm1.3 130.4c18-24.1 36-48.2 55.6-74.3-18.4 3.7-25.4-7.1-31.8-19.1-4.7-8.7-9.9-17.1-14.9-25.6-1.1.3-2.2.6-3.3.8 1.5 18.9 3.1 37.8 4.6 57.2 3.8-.3 7.2-.6 12.3-1.1-2.9 6.7-5.7 12.1-7.7 17.8-5.2 14.8-10 29.6-14.8 44.3l-.2.3c-.1 0 .2-.3.2-.3zm-262.7-7.4c1.9-9 8.6-16.6 2-25.6-11.5-15.4-22.4-31.3-33.5-47.1-1.3-1.8-2-4-2.9-6-.9.6-1.8 1.3-2.7 1.9L151 298.2c.6.3 1.2.7 1.8 1 7.4-5.6 14.8-11.3 22.7-17.3 10.8 16.2 21 31.5 31.2 46.9zm324.8-54.3c-.8-.1-1.5-.2-2.3-.3-3.1 7.3-6.2 14.5-8.5 19.9 6 8.8 10.1 16.8 16.1 22.8S550.9 327 558 332l2.1-2.4c-9.4-18.3-19-36.7-28.6-55.1zm-266.2 87.3c6.4-6 11.4-10.8 14.9-14.1-2.7-11.1-4.8-19.9-7-29.1-11.1 2.5-19.1 9-21.5 19.3-2.4 10.3 8 15.1 13.6 23.9zm-32.2 48.5c2.6.2 7.8 2.2 9.9.5 2.4-1.9 3.3-7.5 2.6-11-1.1-5.6-3.6-11.1-6.5-16-1.4-2.4-5-3.6-7.5-5.3-.6.5-1.1 1-1.7 1.5.9 9.4 2 18.8 3.2 30.3zM108.6 297.2c.7 15.3 6.4 25.5 17.5 35.7-1.5-6.8-2.5-11.4-3.4-15.7 1.9-2.1 3.5-3.9 5.4-6-6.4-4.6-12.1-8.7-19.5-14zM437 230c-.8.4-1.6.8-2.4 1.3 2.2 7.5 4.5 15.1 6.7 22.6 1-.1 2-.3 3-.4 1-5.2 1.9-10.5 2.9-16.1-3.5-2.7-6.8-5.1-10.2-7.4zm-39 13.8v18.5c.6.1 1.3.3 1.9.4 2.1-4.8 4.3-9.5 6.6-14.7-2.9-1.5-5.1-2.5-8.5-4.2z"/>
    <path class="color-orange" fill="#ef8238" d="M468.1 205.8c-5 5.5-9.8 11.3-15.3 16.3-2 1.7-6 2-8.9 1.7-3.1-.4-6-2.3-9.9-3.9-8.1 6.8-16.2 13.7-25 21-3.9-2.1-7.9-4.2-11.8-6.3-10.2 11.2-20.2 22.2-30.7 33.6-24.4-22.1-51.9-29.5-83.1-24.6-31.4 5-54.1 21.2-67.5 52.3-15.4-20.8-30.1-40.8-45.9-62.1-15.2 21.5-29.5 41.8-44.6 63.3-3.6-3.4-5.6-5.2-7.6-7.1 1.7-39.1 11.8-75.6 35.4-107.4C187.8 136 233.8 109 292 106c77.1-3.9 134.9 29.3 174.4 95.2.7 1.4 1.1 3.1 1.7 4.6zm-156.4-49.3c2.3 19.9 4.5 39.1 6.8 58.6h19.3c1.7-14.3 3.3-27.9 4.9-41.4l1.2-.3c1.7 13.9 3.4 27.9 5.1 41.5h19.4c2.2-19.7 4.2-38.4 6.4-58.1h-13.3c-1 11.8-1.9 23.2-2.8 34.6-.6 0-1.3 0-1.9.1-1.5-11.7-2.9-23.3-4.4-35h-18.2c-1.7 14.8-3.3 29.2-5.1 45.1-1.4-16.1-2.7-30.6-4-45.1h-13.4zm-81.5 59.4c6.2 0 11.6.1 17.1 0 15.1-.4 19.3-5 17.7-19.9-.4-4-2.7-7.8-3.9-11.1 1.2-5.4 3.2-10.6 3.3-15.9.2-6.7-2.6-12.5-10.4-12.9-7.7-.4-15.5-.1-23.8-.1v59.9zm43.2-.9c8 0 15.1.1 22.1 0 7.1-.2 10.9-4.5 11-11.2.3-12.6.6-25.3-.6-37.8-.3-3.5-5.5-8.5-9.2-9.3-7.4-1.5-15.2-.4-23.3-.4V215zm-53.1 296.6c-7.5 15.2-14.6 29.5-22.1 44.6-3.3-1.4-6-2.6-9.8-4.2 4.2-8.4 8-16.1 11.9-23.7l-1.8-1.2c-5.3 7-10.6 14.1-16.3 21.6-4-2-7.4-3.7-11.5-5.8 2.7-9 5.3-17.6 7.9-26.2-.5-.2-1-.5-1.5-.7-3.9 7.5-7.8 14.9-12.2 23.3-3.1-1.3-5.9-2.4-9.5-3.9 7.5-15.1 14.6-29.4 22.2-44.7 5.4 2.6 10.2 4.9 16.3 7.7-3.1 10-6.1 19.5-9.1 28.9.5.3 1.1.7 1.6 1 5.4-7.6 10.9-15.1 17.5-24.3 4.9 2.4 10.3 4.8 16.4 7.6zM86.5 418.9c-10 3.7-20 7.4-31.1 11.5-2.4-3.9-5-8.2-8.1-13.3 13.6-10.2 26.5-20 40.1-30.2 2.1 3.6 3.6 6.3 5.5 9.5-8.1 5.9-15.7 11.4-23.3 16.9.2.5.5 1 .7 1.6 8.6-3.7 17.3-7.3 26.8-11.4 2.6 4.3 4.9 8.1 7.8 12.7-8.1 6.3-16 12.3-23.9 18.4.3.6.6 1.1.9 1.7 8.5-4.2 17-8.4 26.5-13 1.9 2.9 3.7 5.7 6.3 9.5-15.7 7-30.4 13.6-46.1 20.6-2.8-4.8-5.2-8.9-8-13.6 8.8-7.2 17.4-14.1 25.9-20.9.1-.3.2-.4.3-.6l-.3.6z"/>
    <path class="color-gray" fill="#595a5b" d="M229.4 68.6c2.2 7.1 4.5 14.2 7 22.2-3.4 1.2-6.3 2.2-10.1 3.5-4.9-16-9.6-31.2-14.6-47.7 5.6-1.7 10.6-3.3 16.1-5 5 8.6 9.6 16.7 14.3 24.7.5-.2.9-.4 1.4-.6-2.6-8.3-5.3-16.6-8.2-25.8 3.2-1.2 6.1-2.3 10.2-3.8 4.9 16.2 9.6 31.6 14.5 47.8-5.4 1.8-10 3.3-15.6 5.1-4.4-7.4-8.8-14.7-13.2-22-.7.5-1.2 1.1-1.8 1.6zm-.9-4.3l.4.4.1-.7-.5.3z"/>
    <path class="color-orange" fill="#ef8238" d="M276.8 574.7c-6.3-.9-11.3-1.6-16.9-2.4-.4-8.9-.8-17-1.1-25.1l-2.1-.3c-1.4 7.6-2.7 15.1-4.3 23.5-3.4-.3-6.4-.6-10.4-1 2.6-16.5 5.1-32.2 7.8-48.9 5.8.8 10.8 1.5 16.6 2.3.6 10.6 1.1 20.7 1.6 30.7.5.1.9.2 1.4.3 1.4-9.3 2.8-18.6 4.3-28.5h10.7c-2.5 16.6-4.9 32.2-7.6 49.4z"/>
    <path class="color-gray" fill="#595a5b" d="M93.3 137.7c7.3 2 10.5 10.1 17.6 8.5.5-.9 1-1.8 1.6-2.6-4.6-3.8-9.2-7.6-14.5-11.9 2.2-3 4.2-5.7 6.8-9.1 13.4 9.9 26.1 19.4 39.6 29.4-2.2 3.3-4 6.1-5.7 8.6-8.2-.6-11.4-11-19.7-9.3-.5.8-1 1.5-1.5 2.3 5.1 4.2 10.1 8.4 16 13.2-2 2.9-3.8 5.7-6.4 9.5-13.5-10.1-26.5-19.7-40.2-29.9 2.3-3.3 4.3-6 6.4-8.7zm69.1-66c4.1-2.4 6.8-4.1 9.6-5.7 16.7-9.3 26.1-3.9 27.1 13.5 5.3 7.2 9.6 13.1 14.6 19.9-3.9 2.4-6.7 4.2-9.7 6-4-4.9-7.5-9.2-11-13.5-1.1.7-2.1 1.4-3.2 2.1 2.1 4.7 4.2 9.5 6.8 15.1-2.8 1.7-5.7 3.5-9.5 6-8.3-14.6-16.3-28.6-24.7-43.4zm14.8 1.3c2.7 4.7 5.1 8.8 7.9 13.7 4.5-8.4 1.3-13.9-7.9-13.7zM70.8 251.9c3.9-.5 8-1.7 12-1.5 10.6.7 13.5 4.6 12.3 15.3-.6 5.1-1.3 10.2-2.1 16.3-16.5-1.8-32.2-3.5-49.7-5.3 1.1-7.8 1.3-15.2 3.5-22.1.9-2.8 6-5.7 9.3-5.9 4.6-.4 9.3 1.9 14.7 3.2zm14.6 17.2c.4-1.3.8-2.5 1.2-3.8-2.7-1.1-5.4-2.8-8.3-3.1-1.6-.2-3.4 2-5.2 3.1.3.8.5 1.7.8 2.5 3.9.5 7.7.9 11.5 1.3zM64 267l1.5-3.3c-2.3-1.2-4.5-3-6.9-3.3-1.5-.2-3.3 1.9-5 2.9.3.8.5 1.6.8 2.4 3.1.5 6.4.9 9.6 1.3zm77-179.9c4 2.7 6.8 3.8 8.7 5.8 6.7 7.2 13.3 14.5 19.5 22 5.3 6.5 4.1 11.3-4 18.2-8.2 7.1-12.6 7.5-18.5 1.3s-11.3-12.7-16.9-19.1c-3.4-3.9-8.3-8.2-4.1-13.6 4.3-5.3 10-9.6 15.3-14.6zm-1.3 13.1c-.6.6-1.3 1.1-1.9 1.7 1.7 8.9 15.7 23.6 23.9 23.1-7.8-8.9-14.9-16.8-22-24.8zm394.1 102.5V188l-8.5 8.5c1.8 3.8 3.3 6.9 4.8 10-7.4 5-14.4 9.7-22.4 15.1-6.2-2.1-16.3-18.7-14.7-26.5 1.3-6 15.3-12.5 23-10.6 1.2.3 2.3.9 3.5 1.4-.2-.8-.3-1.5-.5-2.3 5.8-1.9 13.1-6.8 17-4.9 4.5 2.2 7.2 10.2 8.5 16.2.5 2.4-4.8 6.1-7.5 9.2-1-.5-2.1-1-3.2-1.4zm-19.7-6.5c-.6-.6-1.2-1.2-1.8-1.9-3 1.4-6.1 2.8-10.2 4.6 1.6 3 2.8 5.1 4.7 8.8 3.1-4.8 5.2-8.1 7.3-11.5zM298.3 80.4V29.8c7.5.3 14.1-.4 20.1 1.3 3.5 1 8.2 5.6 8.4 8.9.7 10.7-.2 21.4-1 32.1-.4 5.3-4.3 8-9.4 8.2-6.2.3-12.3.1-18.1.1zm12.1-42.5v34.3c6.6-7.8 7.1-27.2 0-34.3z"/>
    <path class="color-orange" fill="#ef8238" d="M355 571.6c-3.9-16.4-7.6-31.8-11.5-48.3 9.5-2.2 18.8-8.3 27.3-2.8 7.5 4.9 7 14.7 6 20.5 3 9.1 5.2 15.9 7.7 23.7-4.9.8-7.9 1.3-10.8 1.8-2.4-5.6-4.5-10.4-6.6-15.3-1.2.4-2.3.7-3.5 1.1.2 2.6.3 5.2.7 7.7.3 2.5.9 5.1 1.5 8.7-3.5 1-6.8 1.9-10.8 2.9zm1.4-43.8c2 6.5 3.3 10.9 5.1 16.5 5.7-8.4 4.7-12.5-5.1-16.5zm-223.1-8c-5.7-5-11.6-9-15.9-14.4-4.2-5.1.3-9.7 3.6-13.8 5.1-6.3 10.1-12.8 15.4-19 5.9-6.8 11-6.7 19.4 0 8.3 6.7 9.4 11.8 3.8 18.9-5.4 7-10.9 13.9-16.7 20.5-2.1 2.7-5.3 4.5-9.6 7.8zm19.2-38.9c-8.2-.1-21.5 15-22.3 24.7 8.8-6.1 14.5-15.1 22.3-24.7zm297.1-4.9c3.1-2.9 5.8-4.8 7.8-7.2 14.2-16.9 26-5.8 29.7 7 7.4 6.7 12.5 11.3 18.5 16.7-3.3 3-5.7 5.3-7.6 7-7.1-.6-7.7-12.1-17.6-7.7 3.7 4.7 6.8 8.6 11.4 14.4-2.6 1.8-5.5 3.7-9.4 6.3-10.5-11.5-21.2-23.5-32.8-36.5zm25.7 9.2c4-6.9-1.2-9.1-4-11.9-1-1-3.8-.2-8-.2 3.7 4.4 5.5 6.7 7.4 8.7 1 1.2 2.5 1.9 4.6 3.4z"/>
    <path class="color-gray" fill="#595a5b" d="M455.6 79.9c1.9.7 2.9.9 3.6 1.5 19 13.2 19.5 16.4 5.1 34.3l-1.2 1.5c-15.5 19.3-19.7 19.4-37.6 0 10-12.4 20.1-24.9 30.1-37.3zm-16.1 38.7c9.2.5 22.8-16 21.2-26-7.4 9-13.8 16.9-21.2 26zM88.9 173.8c-1.3 3.1-2.5 5.7-3.8 8.8-2.9-.3-5.5-.6-8.4-1 1.5 6.8 15.2 14.7 28.5 16.9 2.1-5.7-1.8-6.3-5.7-6.9-3.1-.4-6.2-.7-10.8-1.2 2.6-5.6 4.4-9.4 6.7-14.3 6 2.8 12 4.7 16.7 8.3 2.6 2 4.3 7 4.1 10.5-.3 3.9-2.9 7.9-5.1 11.5-2.9 4.8-7.2 6.5-12.6 4.1-9.5-4.4-18.9-8.8-28.4-13.3-4.9-2.4-5.9-6.5-4.8-11.5 3.4-14.7 10.9-18.8 23.6-11.9z"/>
    <path class="color-orange" fill="#ef8238" d="M497.1 430.2c1.4.2 2.2 0 2.6.3 10.4 8.3 22.1 15.4 30.6 25.3 5.3 6.2-2.8 12.9-7.7 18-4.1 4.3-8.9 5-13.9.9-7.3-6-14.7-11.9-22.1-17.9-4.1-3.3-7.1-7.1-4.1-12.6 3.6-6.3 7.4-12.3 14.6-14zm-1.8 11.7c-.9 1.2-1.8 2.4-2.7 3.7 8.4 6.7 15.2 15.6 26.9 17.6-7-8.6-15.2-15.5-24.2-21.3zm25.3-54.9c-.2-1.7-.3-2-.3-2.3 5.3-23.2 9-25.3 31.2-17.2.6.2 1.2.4 1.9.6 23 8.4 24.4 12.4 11.5 35.6-14.6-5.5-29.3-11.1-44.3-16.7zm39.9 2.6l2.1-3.9c-7.6-5.9-17.4-7.5-26.2-11-.9-.4-2.7 1.5-6 3.5 11.4 4.3 20.7 7.8 30.1 11.4zm-235.4 152c-3.4.2-6.3.3-8.9.5-1.6-2.9-3-5.4-4.5-7.9-1 .2-2 .4-3.1.6-1 10.7-.5 21.3.5 33.7 11.2-7-2.7-13.4 3.5-19.4H326c0 6.2.8 12.7-.3 18.8-.5 2.9-4.3 6.5-7.3 7.5-4.2 1.3-9.4 1.5-13.5.1-3.3-1.1-7.5-5-7.9-8-1.3-10.3-1.4-20.8-1.3-31.2.1-8.4 5.6-11.7 17.1-11.1 10 .4 12.8 3.8 12.3 16.4z"/>
    <path class="color-gray" fill="#595a5b" d="M379.5 41c4.4 1.7 7.6 2.9 11.1 4.2-2.8 11.2-5.4 21.6-8 31.9.5.2 1.1.4 1.6.6 4.7-9.4 9.4-18.8 14.6-29 3.7 1.1 6.9 2.2 11.7 3.7-8.1 15.2-15.8 29.6-23.9 44.7-6.2-2.4-11.6-4.4-18.4-7 3.8-16.2 7.4-32.2 11.3-49.1z"/>
    <path class="color-orange" fill="#ef8238" d="M560.1 417.2c-2.4 3.9-4 6.6-5.3 8.8-5.1 2-10.6-6.2-14.9 3.6 2.8 1.7 6 3.7 9.5 5.9-2.4 4.3-4 7-6.2 11-13.4-10.6-26.1-20.5-39.4-31 3.2-5.6 6-10.6 9.2-16.4 15.5 5.9 30.6 11.7 47.1 18.1zm-36.1-2.5c-.3.9-.7 1.7-1 2.6 3.2 1.7 6.4 3.5 9.6 5.2.5-1 1-2 1.5-2.9-3.4-1.7-6.7-3.3-10.1-4.9zM403.3 504c8.8 14.3 17.1 27.9 26.1 42.6-3.6 1.7-6.6 3.2-8.3 4-6.4-.5-5.5-12.3-14.2-6 .6 3.5 1.1 6.9 1.8 11.2-3 1.2-5.9 2.4-10.3 4.3-4.2-16.5-8.2-32.1-12.4-48.5 6-2.7 11.2-5 17.3-7.6zm1.4 30.8c1-.5 2.1-1 3.1-1.5-1.8-3.3-3.7-6.6-5.5-9.9-.7.4-1.4.7-2.1 1.1 1.5 3.4 3 6.9 4.5 10.3z"/>
    <path class="color-gray" fill="#595a5b" d="M493 142.8c-1.9 1.7-3.6 3.1-5.6 4.9-2.4-1.9-4.6-3.7-7.2-5.9-2.6 2.2-5.1 4.2-7.8 6.5 1.9 3.1 3.6 5.8 6.1 10-1.7 1.5-3.5 3.2-6.2 5.5-5.4-6.2-10.1-11.5-15.6-17.9 12.7-10.8 25-21.3 38-32.4 4.9 5.5 9.3 10.6 15 17-2.1 2.2-4 4.2-6 6.3-3.7-3.4-5.8-5.3-8.4-7.6-2.4 1.9-4.6 3.6-7 5.5 1.6 2.9 3.1 5.4 4.7 8.1z"/>
    <path class="color-orange" fill="#ef8238" d="M117.8 459.9c5-2 10-4 16.7-6.7 1.6 1.7 3.8 3.9 6.6 6.8-15.7 8.9-30 16.9-46.1 26-.9-1.1-3-3.4-4.2-4.9 10-14.7 19.2-28.3 29.7-43.8 1.9 3.1 3.7 6 5.8 9.3-2.6 4.2-5.5 8.8-8.4 13.4-.3.3-.5.6-.4.5-.1.1.1-.2.3-.6zm336.1 73.8c-9.6-14.5-18.3-27.8-27.5-41.8 3.5-2.2 6.1-3.9 9.5-6.1 7.6 11 14.8 21.4 22.2 32.2 3.4-1.3 6.3-2.5 9.6-3.7 1.5 1.9 2.8 3.6 4.9 6.4-6.2 4.2-11.9 8.2-18.7 13z"/>
    <path class="color-gray" fill="#595a5b" d="M351.2 85.1c-4.1-.6-7.2-1.1-11.7-1.8 3.3-16.4 6.4-32.2 9.8-49.1 4 .7 7.3 1.4 11.6 2.2-3.3 16.3-6.4 31.8-9.7 48.7zm76-23.8c3.7 2.2 6.4 3.8 10.2 6-8.2 14.6-16.2 28.6-24.5 43.2-3.7-2.1-6.7-3.8-10.3-5.8 8.3-14.6 16.1-28.4 24.6-43.4zM52 225.2c1.3-4.5 2.1-7.3 3.3-11.4 15.9 4.5 31.4 9 47.6 13.6-1 4-1.8 7-2.9 11.4-16.1-4.6-31.6-9-48-13.6z"/>
    <path class="color-orange" fill="#ef8238" d="M227.7 565.2c-4.3-1.1-7.4-1.9-11.5-2.9 4.9-16.2 9.6-31.7 14.4-47.8 4 1.2 7 2.1 11.1 3.3-4.6 15.7-9.1 30.8-14 47.4zm219.1-28c-3.5 2.1-6.2 3.7-10 6-8.1-14.5-15.9-28.6-24.1-43.4 3.5-2.1 6.1-3.7 9.9-6.1 8.2 14.8 16 28.8 24.2 43.5z"/>
    <path class="color-gray" fill="#595a5b" d="M368.5 344.7c-12.9 10.8-22.4-1-32.3-5.8 1.8-2.5 5.1-5.2 5.8-8.5 1.1-5.5 3.2-9.1 8.9-9.7 6.9-.8 13.3.3 19.6 7.4-10.4-.9-19.4-7-28.8 3 13.1-.8 20.8 5.6 26.8 13.6zm-14.1-4.1c-1.9-1.4-2.5-2.2-3.2-2.2s-1.4.8-2 1.2c.7.8 1.3 1.9 2.2 2.2.6.2 1.6-.6 3-1.2zm17.8 25.9c5.1 8.9 10 17.6 15 26.3-.8.4-1.6.8-2.3 1.2-5.4-8.7-17.1-14.3-12.7-27.5zm8.8-59.8c7.2 5.5 3.3 9.4-1.8 13.7-3.3-4.6-6.3-8.7-9.3-12.8.2-.4.3-.8.5-1.2 3.2 1.6 6.3 3.1 10 4.9.2-1.4.5-3.1.8-4.8l-.2.2zm-20.2 8.3c-5.7.8-10 1.5-14.5 2.1 3.9-6.4 3.9-6.4 14.5-2.1zm9.2 37c-1 3.1-2 6.1-3 9.2-.8-.2-1.5-.3-2.3-.5.6-3.3 1.2-6.5 1.8-9.8 1.2.4 2.4.7 3.5 1.1z"/>
    <path fill="#fdfcfc" d="M406.5 312.8c3.7-6 6.4-13.2 11.5-17.8 7.5-7 15.9-13.6 25.1-17.7 10.4-4.7 19.8 1.4 21.6 12.9 1.1 7.2.9 15.1-.8 22.3-3.6 15.3-8.6 30.2-12.6 45.3-1.6 6-2.8 12.2-3 18.3-.4 12.2 6.4 18.8 18.6 19.1 10.3.3 15.6-5.1 16.9-17.1.1-.5.5-1 .7-1.6 8.4 8.6 7.8 19.8-1.3 28.9-13.2 13.1-45.7 12.2-53.6-12.2-4.7-14.4-3.6-29.1-1.7-43.7.3-2.2 2.9-4 4.3-6.1 3.6-5.2 7.2-10.5 11.9-17.2h-14.4c3.2-12.3 9.3-21.8 20-28.1-.4-.7-.8-1.4-1.3-2.1-4.4 2.5-9.8 4.2-12.9 7.8-4.7 5.6-7.5 12.8-11.6 19.1-2.2 3.3-5.3 6-8 9-1.2-.3-2.4-.6-3.7-.8-1.9-6.1-3.9-12.3-5.8-18.4l.1.1z"/>
    <path fill="#fdfcfc" d="M469.3 336.2c4.9-14.8 9.7-29.6 14.8-44.3 2-5.7 4.8-11.1 7.7-17.8-5.2.5-8.5.8-12.3 1.1-1.6-19.4-3.1-38.3-4.6-57.2 1.1-.3 2.2-.6 3.3-.8 5 8.5 10.2 16.9 14.9 25.6 6.5 12 13.5 22.8 31.8 19.1-19.5 26.1-37.5 50.2-55.6 74.3.1 0 0 0 0 0zm-262.6-7.4c-10.2-15.3-20.4-30.7-31.2-46.9-7.9 6-15.3 11.7-22.7 17.3-.6-.3-1.2-.7-1.8-1l18.6-46.2c.9-.6 1.8-1.3 2.7-1.9 1 2 1.7 4.2 2.9 6 11.1 15.8 22 31.6 33.5 47.1 6.6 8.9-.1 16.6-2 25.6zm324.8-54.3c9.6 18.4 19.1 36.7 28.7 55.1l-2.1 2.4c-7.2-4.9-15.2-9-21.2-15.1-6-6-10.1-14-16.1-22.8 2.3-5.4 5.4-12.7 8.5-19.9.7.1 1.5.2 2.2.3z"/>
    <path class="color-orange" fill="#ef8238" d="M265.3 361.8c-5.6-8.8-16-13.6-13.5-23.9 2.4-10.2 10.4-16.8 21.5-19.3 2.2 9.2 4.3 18 7 29.1-3.6 3.3-8.6 8.1-15 14.1z"/>
    <path fill="#fdfcfc" d="M233.1 410.3c-1.2-11.5-2.2-20.9-3.2-30.3.6-.5 1.1-1 1.7-1.5 2.6 1.7 6.1 2.9 7.5 5.3 2.9 5 5.3 10.4 6.5 16 .7 3.5-.2 9-2.6 11-2.2 1.7-7.3-.3-9.9-.5zM108.6 297.2c7.5 5.4 13.2 9.4 19.5 14-1.9 2.1-3.5 3.9-5.4 6 .9 4.3 1.9 8.9 3.4 15.7-11.2-10.2-16.8-20.4-17.5-35.7zM437 230c3.3 2.4 6.6 4.7 10.3 7.4-1 5.6-2 10.8-2.9 16.1-1 .1-2 .3-3 .4-2.2-7.5-4.5-15.1-6.7-22.6.7-.5 1.5-.9 2.3-1.3zm-39 13.8c3.4 1.7 5.6 2.8 8.5 4.2-2.3 5.2-4.5 9.9-6.6 14.7-.6-.1-1.3-.3-1.9-.4v-18.5zm71.4 92.4l-.3.3.2-.3z"/>
    <path class="color-gray" fill="#595a5b" d="M311.7 156.5h13.2c1.3 14.6 2.6 29.1 4 45.1 1.8-15.9 3.4-30.3 5.1-45.1h18.2c1.5 11.7 2.9 23.3 4.4 35 .6 0 1.3 0 1.9-.1.9-11.4 1.8-22.8 2.8-34.6h13.3c-2.2 19.7-4.2 38.4-6.4 58.1h-19.4c-1.7-13.7-3.4-27.6-5.1-41.5l-1.2.3c-1.6 13.6-3.2 27.1-4.9 41.4h-19.3c-2.1-19.5-4.3-38.7-6.6-58.6zm-81.5 59.4v-59.8c8.3 0 16.1-.3 23.8.1 7.9.4 10.7 6.2 10.4 12.9-.2 5.3-2.1 10.5-3.3 15.9 1.2 3.3 3.4 7.1 3.9 11.1 1.6 14.9-2.6 19.5-17.7 19.9-5.5 0-10.9-.1-17.1-.1zm13.6-12c7 1.8 7.4-2 7.5-6.4 0-4.8-1-8.4-7.5-6.9v13.3zm.3-24.2c1 .4 2 .8 2.9 1.3 1.3-2.8 3.6-5.6 3.6-8.3 0-2.3-2.8-4.5-4.4-6.8-.7.3-1.4.6-2.1 1v12.8zm29.3 35.3v-58.7c8.1 0 15.9-1 23.3.4 3.7.7 8.9 5.8 9.2 9.3 1.2 12.5.8 25.2.6 37.8-.1 6.7-3.9 11-11 11.2-7 .2-14 0-22.1 0zm17.3-48.7c-1.1.3-2.2.6-3.2.8v36.7c6 1.2 7-2.5 6.6-6.2-1.1-10.4 3.4-21.9-3.4-31.3z"/>
    <path fill="#fdfcfc" d="M86.5 418.9c.1-.2.1-.4.2-.6-.1.2-.2.3-.3.5l.1.1zm142-354.6l.5-.3v.6zM177.2 73c9.2-.3 12.3 5.2 7.9 13.7-2.8-4.9-5.2-8.9-7.9-13.7zM85.4 269.1L74 267.9c-.3-.8-.5-1.7-.8-2.5 1.7-1.1 3.6-3.3 5.2-3.1 2.8.3 5.5 2 8.3 3.1-.5 1.2-.9 2.5-1.3 3.7zM64 267c-3.2-.4-6.5-.8-9.7-1.3-.3-.8-.5-1.6-.8-2.4 1.7-1.1 3.5-3.1 5-2.9 2.4.3 4.6 2.1 6.9 3.3-.4 1.1-.9 2.2-1.4 3.3zm75.7-166.8c7.1 8 14.1 16 22 24.8-8.2.5-22.2-14.1-23.9-23.1.6-.6 1.3-1.1 1.9-1.7zm374.4 96c-2.1 3.3-4.2 6.7-7.3 11.6-2-3.7-3.1-5.8-4.7-8.8 4.1-1.8 7.1-3.2 10.2-4.6l1.8 1.8zM310.4 37.9c7.1 7.1 6.6 26.5 0 34.3V37.9zm46 489.9c9.8 4 10.8 8.1 5.1 16.5-1.7-5.6-3.1-10-5.1-16.5zm-203.9-46.9c-7.9 9.6-13.6 18.5-22.3 24.7.9-9.7 14.2-24.8 22.3-24.7zm322.8 4.3c-2.1-1.5-3.5-2.2-4.6-3.3-2-2.1-3.7-4.3-7.4-8.7 4.2 0 7-.8 8 .2 2.7 2.6 8 4.9 4 11.8zm-35.8-366.6c7.4-9.1 13.8-17 21.2-26 1.6 10.1-12.1 26.5-21.2 26zm55.8 323.3c9 5.9 17.2 12.7 24.2 21.2-11.7-2-18.5-10.9-26.9-17.6l2.7-3.6zm65.2-52.3c-9.4-3.6-18.8-7.1-30.2-11.4 3.3-2 5.1-3.8 6-3.5 8.8 3.5 18.7 5.1 26.2 11-.6 1.3-1.3 2.6-2 3.9zM524 414.7c3.4 1.6 6.7 3.2 10.1 4.8-.5 1-1 2-1.5 2.9-3.2-1.7-6.4-3.5-9.6-5.2.3-.8.7-1.6 1-2.5zM404.7 534.8c-1.5-3.4-3-6.9-4.5-10.3.7-.4 1.4-.7 2.1-1.1 1.8 3.3 3.7 6.6 5.5 9.9-1 .5-2.1 1-3.1 1.5zm-286.9-74.9c-.2.4-.3.7-.3.6-.1.1.2-.2.4-.5l-.1-.1zm236.6-119.3c-1.4.6-2.4 1.5-3 1.3-.9-.4-1.5-1.4-2.2-2.2.7-.4 1.4-1.2 2-1.2.6-.2 1.3.7 3.2 2.1z"/>
    <path class="color-orange" fill="#ef8238" d="M243.8 203.9v-13.3c6.5-1.4 7.5 2.1 7.5 6.9-.1 4.4-.4 8.2-7.5 6.4zm.3-24.2v-12.9c.7-.3 1.4-.6 2.1-1 1.6 2.3 4.4 4.5 4.4 6.8 0 2.8-2.3 5.6-3.6 8.3-.9-.4-1.9-.8-2.9-1.2zm46.6-13.4c6.9 9.4 2.3 20.9 3.4 31.3.4 3.8-.6 7.4-6.6 6.2v-36.7c1-.3 2.1-.5 3.2-.8z"/>
</svg>
