<svg xmlns="http://www.w3.org/2000/svg" viewBox="0 0 612 612">
    <path fill="#205ca8" d="M36.2 305.1c.9 151.2 121 270.2 269.7 269.9 151.6-.5 266.8-119 269.5-264 3.2-155.2-121.3-270.2-258.8-274.7C156.8 30.9 36 159.1 36.2 305.1z"/>
    <path fill="#fefefe" d="M36.2 305.1c-.2-146 120.6-274.5 280.4-269 137.6 4.8 262 119.4 258.8 274.7-2.9 145.3-117.9 263.8-269.5 264-148.6.7-268.7-118.5-269.7-269.7zm297.4 195.6c.9.9 1.8 1.6 2.7 2.5 11.8-10.9 24.5-21.1 35.1-32.9 11.1-12.2 21.5-25.6 30.4-39.7 8.4-13.1 14.3-27.9 21.5-42.4 14.3 28.3 26.5 72.1 31.5 125.6 65.5-48.3 97.2-112.9 107.7-191.3 5.7-43.3-22.4-143.2-55.1-172 10.2 36.7 12 72.8 8.2 109.5-3.9 36.7-15.9 70.3-34.2 104.3-17.5-40.3-34.2-79.6-51.4-119.2-15.4 35.6-30.8 70.7-46 105.8-2.7-2-2.9-3.4-2.9-4.5 0-73.7-.2-147.3 0-221 0-17.9 19.7-38.3 37.6-39.4 4.8-.2 9.3 0 14.1 0-20.4-15-43.1-22.9-66.4-28.8-2.5-.7-6.1.7-8.2 2.5-13.6 10.4-23.8 23.8-23.8 41-1 133.2-.8 266.5-.8 400zm-123.3-240c16.1-11.6 27.4-27 27.6-39.4.5-42.2.5-84.5 0-126.7-.2-19-19.9-29.5-37.4-21.8-24.7 10.9-46.7 25.6-66.9 43.1-19.3 16.8-35.4 36.7-47.6 60.1 11.8 5.7 14.3 15.2 14.3 26.3-.2 63-.2 126 .2 189 0 11.6-5.2 17.9-15.2 21.8-3.4 1.4-6.6 2.5-10.7 3.9 27 52.4 65 92.5 117.9 117.9 10 4.8 20.4 4.3 30.8-1.8 13.8-8.4 16.5-21.3 16.5-35.4.2-62.6-.2-125.3.5-187.9.2-14.1-5.4-24.3-14.1-33.8-4.6-5.8-10-10.1-15.9-15.3zm109.7 262c-.2-4.1-.5-5.9-.5-7.7V90.1c0-14.1 7.3-23.8 18.4-31.3 2.5-1.6 5.2-3.2 9.1-5.4-39.4-6.6-76.2-3.6-115.1 7.3 23.6 17.2 22.9 40.8 22.7 64.6-.2 121.9 0 244.1-.7 366 0 10.7-4.3 22.7-10 31.7-5.7 9.1-15.9 15.4-24 22.9 29 11.8 60.7 14.7 92.7 15.6 11.8.2 23.6-2.7 35.4-4.3 31.3-4.1 59.8-15.6 87.3-30.6 4.5-2.5 8.2-5.7 7-12.2-2-10.9-2.3-22.2-4.8-32.9-4.3-18.4-9.5-36.7-15.2-58.2C396.1 467.4 364 500 320 522.7z"/>
    <path fill="#1455a6" d="M333.6 500.7c0-133.3-.2-266.5.2-400 0-17.2 10.2-30.6 23.8-41 2.3-1.6 5.9-2.9 8.2-2.5 23.3 5.9 46 13.8 66.4 28.8-4.8 0-9.3-.2-14.1 0-17.9 1.1-37.4 21.5-37.6 39.4-.2 73.7 0 147.3 0 221 0 1.4.2 2.5 2.9 4.5 15.2-35.1 30.6-70.3 46-105.8 17.2 39.7 34 78.9 51.4 119.2 18.4-33.8 30.4-67.5 34.2-104.3 3.9-36.7 2-72.8-8.2-109.5 32.6 28.8 60.7 128.7 55.1 172-10.4 78.4-42.2 142.8-107.7 191.3-5-53.5-17-97.2-31.5-125.6-7.3 14.5-13.1 29-21.5 42.4-8.8 14.1-19 27.4-30.4 39.7-10.7 11.8-23.3 22-35.1 32.9-.3-.9-1.2-1.8-2.1-2.5zm-123.3-240c5.9 5.4 11.3 9.7 16.1 15 8.6 9.5 14.3 19.9 14.1 33.8-.7 62.6 0 125.3-.5 187.9 0 13.8-2.7 27-16.5 35.4-10.4 6.1-20.9 6.6-30.8 1.8-52.8-25.4-91.1-65.5-117.9-117.9 3.9-1.4 7.3-2.5 10.7-3.9 10-3.9 15.2-10 15.2-21.8-.5-63-.2-126-.2-189 0-11.1-2.5-20.6-14.3-26.3 12.2-23.3 28.3-43.3 47.6-60.1 19.9-17.5 42.2-32.4 66.9-43.1 17.5-7.7 37.2 2.7 37.4 21.8.7 42.2.5 84.5 0 126.7-.4 12.7-11.7 28.1-27.8 39.7zM145.9 291c-.2 1.6-.5 2.3-.5 2.9 0 49.9.2 99.7-.2 149.6 0 8.4 1.8 15 8.6 19.3 6.1 3.6 12.9 6.8 19.9 8.6 15.9 4.3 23.8-2 23.8-18.6V336.1c-.1-29.9-20.7-48.2-51.6-45.1zm-.6-99.7c0 12.9.5 25.6-.2 38.5-.2 8.2 3.6 10.4 10.7 10.4 14.5-.2 40.8-24.5 41.5-39 .7-19.3.5-38.5 0-57.8-.2-9.3-4.1-16.5-14.3-18.1-15.6-2.7-37.8 16.1-37.8 32 .1 11.4.1 22.7.1 34z"/>
    <path fill="#1455a6" d="M320 522.7c44-22.7 75.9-55.3 102-99.5 5.7 21.8 11.1 39.9 15.2 58.2 2.5 10.9 2.9 22 4.8 32.9 1.1 6.6-2.3 9.7-7 12.2-27.4 15-56 26.5-87.3 30.6-11.8 1.6-23.6 4.5-35.4 4.3-32-.9-63.7-3.6-92.7-15.6 8.2-7.5 18.1-13.8 24-22.9 5.7-9.1 10-21.1 10-31.7.7-121.9.2-243.9.7-366 0-23.8.7-47.4-22.7-64.6 38.8-10.9 75.7-13.8 115.1-7.3-3.9 2.3-6.6 3.6-9.1 5.4-11 7.5-18.3 17.3-18.3 31.3v424.9c.2 1.9.5 3.7.7 7.8z"/>
    <path fill="#fefefe" d="M145.9 291c30.8-2.9 51.4 15.2 51.4 44.9v116.7c0 16.5-7.7 22.9-23.8 18.6-6.8-1.8-13.6-5-19.9-8.6-7-4.1-8.8-10.7-8.6-19.3.5-49.9.2-99.7.2-149.6.1-.4.3-1.3.7-2.7zm-.6-99.7v-34c0-15.9 22.2-34.7 37.8-32 10.2 1.8 14.1 9.1 14.3 18.1.5 19.3.7 38.5 0 57.8-.5 14.5-27 38.8-41.5 39-7 0-10.9-2.3-10.7-10.4.5-12.9.1-25.6.1-38.5z"/>
    <path fill="#205ca8" d="M305.9 34.2c36.7 0 72.3 7.2 105.8 21.4 32.4 13.7 61.4 33.3 86.4 58.3 25 25 44.6 54 58.3 86.4 14.2 33.5 21.4 69.1 21.4 105.8s-7.2 72.3-21.4 105.8c-13.7 32.4-33.3 61.4-58.3 86.4-25 25-54 44.6-86.4 58.3-33.5 14.2-69.1 21.4-105.8 21.4s-72.3-7.2-105.8-21.4c-32.4-13.7-61.4-33.3-86.4-58.3-25-25-44.6-54-58.3-86.4C41.2 378.3 34 342.7 34 306s7.2-72.3 21.4-105.8c13.7-32.4 33.3-61.4 58.3-86.4 25-25 54-44.6 86.4-58.3 33.5-14.2 69.1-21.3 105.8-21.3m0-20C144.7 14.2 14 144.8 14 306s130.7 291.8 291.8 291.8S597.7 467.2 597.7 306 467 14.2 305.9 14.2z"/>
</svg>
