<svg xmlns="http://www.w3.org/2000/svg" width="240" height="237.73334" viewBox="0 0 240 237.73334">
    <path class="color-orange color-main" fill="#f78f1e" d="M44.433333 100.7h22.633333c10.066667 0 13 1.6 10.633334 4.566667-1.9 2.366666-6.166667 3.5-11 4.033333l-.033334.033333c4.566667.133334 8.1 1.333334 5.733334 4.333334-1.066667 1.366666-2.966667 2.5-4.933334 3.133333-2.933333.966667-5.4 1.366667-12.566666 1.366667H30.466667zm1.9 13.6H51.4c4.5 0 6.366667-.433333 7.433333-1.8 1.1-1.366667.066667-2.033333-4.433333-2.033333L49.433333 110.5zM51.7 107.566667h4.8c3.766667 0 5.533333-.766667 6.4-1.866667.933333-1.166667.666666-1.566667-3.4-1.566667L54.633333 104.1zM131.2 100.7l-13.8 17.466667H97.8l-1.7-12.433334h.2l-9.833334 12.433334H74.033333l13.8-17.466667h20.2l1.766666 11.7h.166667l8.8-11.7zm11.066666 11.866667c-.733334.966666-.233334 1.566666.266666 2.033333.566667.466667 2.066667.8 3.9.8 2.5 0 6.166667-.333333 6.9-1.266667.266667-.3.066667-1.1-.133333-1.3-1-1.1-16.166667-1.933333-18.966667-4-1.133333-.833333-.7-2.066666.1-3.066666C137.4 101.933333 145.333332 100 158.6 100c14.1 0 16.8 2.3 14.1 5.9h-13.233333c.666666-.966667.333333-1.666667-.4-2.033333-.666667-.366667-2.033334-.566667-3.8-.566667-2.933334 0-5.2.366667-5.9 1.233333-.2.266667-.2 1.033334.033333 1.2 1.3 1.1 16 1.866667 18.733333 3.933334.8.6 1.366667 1.533333.033333 3.233333-2.766666 3.466667-10.2 5.833333-25.3 5.833333-18 0-16.733332-2.966666-14.433333-6.2h13.833334zM208.333332 108l-3 3.833333h-15.7l-5.233333 6.333334h-13.833334L184.5 100.7H215l-3.333334 3.966667h-16.1L192.633332 108z"/>
    <path class="color-black" fill="#000001" d="M20 131.366666L27.633334 121.7h171.533331l-1 1.266667zm96.166666-1.333333l4.6-.033333c1.666667 0 2.266667.833333 1.466667 2.066666-.966667 1.333334-1.8 1.866667-3.5 2V134.1c1.7.066666 1.266666.866666.333333 2.3-.433333.633333-.6 1.033333-.7 1.333333h-1.833333c.066666-.233333.4-.766667.7-1.233333 1-1.533334.866666-1.833334-.8-1.833334h-1.6l-2.166667 3.066667h-1.933333zm-.4 3.233333h1.8c1.3 0 2.133333-.166666 2.933333-.933333.566667-.866667.166667-1.3-1.066666-1.233333h-2.166667zm15.133334-3.3h2.8L132.166665 137.7h-2.033334l.333334-1.733334-4.4.033334-2.033333 1.733333h-2.5zM130.733331 134.7l.766667-3.366667L127.533333 134.7zm45.966668-4.833334h2.833333L177.999999 137.7h-2.033334l.333334-1.766667-4.433334.033333-2.033333 1.766667h-2.5zm-.166667 4.766667l.8-3.4-4 3.433333zM143.199999 129.9l-5.466667 7.733333h-2.066666L141.099999 129.9zm0 7.7l5.433333-7.733334H150.5l-4.366667 6.266667 4.2-.033333-1.1 1.533333zm27.133333-7.833334l-8.1 7.866667H160l2.266666-6.266667-6.4 6.233334h-2.1L156.5 129.833333l1.833333-.033333L156.1 135.866666h.033333L162.366665 129.8h2.166667l-2.2 6.033333h.033333L168.6 129.766666zm14.166667.066667l2.233333-.033333.1 2.933333L190.766665 129.8l2.833334-.033334-6.7 4.833334-2.133334 3.033333H182.7L184.866665 134.6z"/>
    <path class="color-black" fill="#000001" d="M163.966665 129.8h-1.933333L155.5 136.133333l-.966667 1.433333 1.433334-.033333zm6.333334 0h-2.066667L161.7 136.133333l-.833333 1.433333 1.4-.033333z"/>
</svg>
