<svg xmlns="http://www.w3.org/2000/svg" width="192" height="192.01431" viewBox="0 0 192 192.01431">
    <path class="color-main color-blue" fill="#020f47" d="M80.806707 190.96902c-13.452921-2.127115-27.689336-7.73842-39.040833-15.388-7.268937-4.898408-18.942096-16.251585-24.157854-23.495635C5.67383 135.51025-.004492 117.43579.000003 96.037925.003757 79.208223 2.501002 67.82524 9.2908 53.6922c4.686285-9.754557 10.905465-18.22458 19.553457-26.630236C42.673768 13.619982 58.262968 5.33386 77.231087 1.34293c8.509873-1.790494 28.675753-1.790592 37.186441-.00018 26.270138 5.526506 48.349668 20.509879 62.388957 42.337716 11.551485 17.959877 16.686093 38.886496 14.818542 60.39445-2.44795 28.192069-15.984808 52.398767-38.85715 69.48459-7.155017 5.344856-20.813417 12.119848-29.411304 14.588913-13.357737 3.835967-29.401785 4.899513-42.549866 2.8206zm30.647195-12.156416c2.998365-.573683 8.02939-1.92878 11.180056-3.011334l5.728485-1.968271c-22.309535-.386467-46.440089-.222298-65.791393 0l7.151237 2.297306c6.451174 2.072408 11.69708 3.19691 18.950784 4.06224 4.196143.50058 17.00858-.27553 22.78083-1.37994zM151.010427 159.591c11.300894-9.668138 20.154354-23.058544 24.951157-37.737304 1.156077-3.537744 2.10196-6.564144 2.10196-6.725337-55.12053-.675781-110.469466-.71503-165.193598-.016895 0 1.072423 4.175274 12.475282 6.132947 16.749355 4.495116 9.813905 12.803035 20.751352 21.090803 27.766212l4.532848 3.836654h101.857165zm-59.4521.793068c-4.392229-1.512797-7.182193-7.511224-6.122031-13.1624.518933-2.766119 4.57863-7.357048 6.505747-7.357048 1.354143 0 1.292077-.597646-.408478-3.933184-1.63938-3.215547-1.793955-5.675666-.515383-8.202452 1.246016-2.462452 5.305568-5.02785 7.951154-5.024664 4.529131.005739 9.012078 4.480024 9.012078 8.995237 0 2.42517-2.495378 6.522551-4.326249 7.103646-1.686498.53527-1.7686 1.291144-.274902 2.530793.61591.511167 1.601364 1.860563 2.189904 2.998666.808526 1.56351 1.294828 1.88274 1.989666 1.306076.677722-.562453 1.260148-.386908 2.214302.667425 1.058435 1.169554 1.149597 1.749089.499576 3.175729-.689897 1.514181-.525004 2.034262 1.24614 3.930277 1.122688 1.201843 2.415248 2.185174 2.87234 2.185174.506845 0 .74365.906735.60699 2.32415-.204679 2.122792-.40997 2.30236-2.369466 2.072574-2.390662-.280352-4.750308-1.356953-5.49855-2.508755-.324588-.499651-.943496-.35043-1.81398.43735-3.429478 3.103629-9.000558 4.100277-13.758857 2.461406zm8.415145-5.071073c1.06302-.549708 2.563966-1.696946 3.335441-2.54941 1.396422-1.54303 1.395087-1.564232-.298657-4.75698-.93573-1.763876-2.641617-3.876579-3.790855-4.694909-2.085714-1.485166-2.092998-1.4853-3.993775-.07439-4.01768 2.982248-4.931764 8.32485-1.936756 11.319853 1.990578 1.990583 3.883069 2.204568 6.684602.755836zm3.998141-19.917902c1.808275-1.624593 2.103295-2.43638 1.949156-5.363429-.233229-4.429097-7.18648-6.218729-10.04456-2.585269-4.469666 5.682258 2.739393 12.76067 8.095404 7.948698zm27.251323 24.922909c-7.127798-2.254228-11.287485-5.655371-14.044722-11.483584-4.108617-8.684731-2.33307-18.467625 4.654668-25.646263 4.540512-4.664553 8.766524-6.480433 15.111047-6.493063 8.735866-.017378 16.433888 4.682997 20.164866 12.312608 1.68541 3.44655 1.980934 4.931539 1.94716 9.784235-.047358 6.805944-1.135223 9.694215-5.38973 14.30981-3.77469 4.095052-7.707928 6.406207-12.645533 7.430472-4.670618.968871-6.159801.936315-9.797756-.214215zm10.203725-5.112356c3.690672-1.54206 5.798923-3.669368 7.762029-7.832226 4.265486-9.045154.203354-21.0918-8.539276-25.324028-3.814443-1.846543-6.621667-1.889896-9.480756-.146422-2.706305 1.65031-6.488917 7.229328-7.54326 11.12566-.946162 3.496532-.343549 10.361807 1.16571 13.280386 1.82881 3.536537 5.54416 7.29466 8.571064 8.669757 3.526857 1.602217 4.694239 1.635063 8.064489.226873zm-89.582465 4.75379l-9.296608-.428914 1.609029-1.410394c1.586866-1.390973 1.609028-1.65288 1.609028-19.018723 0-16.70013-.073774-17.675094-1.43025-18.902691-3.225973-2.919465-2.190922-3.218057 11.15512-3.218057 13.67242 0 16.069556.522607 18.899531 4.120336 1.930153 2.45379 1.88088 7.614438-.103787 10.870044-.910968 1.494337-1.20697 2.576463-.746724 2.729878 2.464099.821372 5.698579 3.81209 7.137619 6.59972 1.305153 2.528273 1.577658 3.945382 1.279725 6.65504-.448834 4.08211-2.879582 8.73068-5.628377 10.763703-2.264627 1.674935-8.363312 1.983814-24.484306 1.240057zm17.467799-4.21497c2.757049-2.058435 4.578298-6.179994 4.02771-9.114878-.55607-2.964099-3.883482-6.995954-6.653403-8.061968-1.083434-.416958-4.142069-.874126-6.796966-1.01592l-4.827086-.257803v9.747661c0 5.361214.241354 9.998777.536343 10.3057 1.011001 1.051902 11.85536-.215567 13.713402-1.602791zm-2.862633-23.452213c1.850811-1.557363 2.200239-2.357522 2.200239-5.038378 0-2.430218-.416803-3.6038-1.7553-4.942292-1.553485-1.553485-2.37572-1.755306-7.151242-1.755306h-5.39593v6.316923c0 3.474317.214536 6.531471.476749 6.793678.262207.262213 2.49016.47675 4.950997.47675 3.770169 0 4.820483-.291341 6.674487-1.851375zM179.94061 103.64986c.982768-3.915651-.299553-20.418122-2.144293-27.595382-4.214175-16.395985-10.415103-27.501373-21.90161-39.2241-17.649632-18.0126-38.84013-26.444238-64.003579-25.466834-15.766136.61239-28.110035 4.396842-41.633386 12.764164-7.142505 4.41929-19.023797 15.702607-23.977589 22.770816-4.378268 6.247041-9.261402 16.189667-11.588781 23.596112-3.224965 10.262834-4.902254 25.897218-3.519841 32.809278l.44695 2.234763h167.848067zm-120.230053.101004l4.290743-1.325351c10.460434-3.231085 28.852998-5.254342 40.04693-4.405322 9.74736.739311 28.247392 4.772518 28.247392 6.15824-28.788712-.24116-44.50882-.718173-72.585065-.427567zm3.933179-8.855642c0-5.75128.135405-6.388112 1.43025-6.726727 1.350221-.35309 1.430243-.021936 1.430243 5.91864 0 6.071605-.389604 7.1608-2.561418 7.1608-.16449 0-.299075-2.858724-.299075-6.352713zm62.012353 5.855013c-1.139321-.296227-1.224814-.919758-.797585-5.816815.263189-3.016768.568524-5.591557.678517-5.721749.109993-.130197.871165.12248 1.691486.561498 1.307421.699713 1.491494 1.45705 1.491494 6.136491 0 5.484642-.082908 5.615634-3.063912 4.840575zM68.545958 93.56035c.254972-6.27268.695111-7.297653 3.14292-7.319069 1.098774-.0096 1.251466.764139 1.251466 6.341761 0 5.983479-.093517 6.377766-1.609029 6.783906-2.97497.797263-3.04764.645773-2.785357-5.806598zm51.298057 5.319191c-1.127977-.824799-1.220067-1.609656-.762165-6.496083.488196-5.20975.616-5.532393 2.040211-5.150173.835665.224272 1.760744.412163 2.055732.417532.294989.005739.536343 2.74511.536343 6.088317 0 5.387715-.147017 6.078551-1.293568 6.078551-.711458 0-1.870914-.422166-2.576553-.938144zM74.370593 92.40584v-6.849742l2.32415-.630578c1.278288-.346821 2.565511-.497936 2.8605-.33581.294988.162131.536342 3.137155.536342 6.611171 0 6.076062-.065508 6.33282-1.721376 6.748422-.946752.23762-2.233975.628738-2.860493.869154-.993221.381141-1.139123-.440209-1.139123-6.412617zm39.153029 5.488643c-1.07399-.280658-1.251465-1.23236-1.251465-6.710717 0-3.511029.300856-6.383681.668568-6.383681.367716 0 1.494036.313841 2.502935.697423 1.771074.673362 1.834362.90776 1.834362 6.793678 0 6.483162-.05771 6.569336-3.7544 5.603297zM81.52183 91.038551c0-6.433631.083728-6.809216 1.609028-7.21798 3.342521-.895762 3.396842-.79434 3.396842 6.342942 0 6.220375-.11576 6.793678-1.371761 6.793678-.754469 0-1.880789.195325-2.50293.434073-.982516.377027-1.13118-.45786-1.13118-6.352713zm23.31065 5.315361c-.20507-.331814-.181176-3.319335.053045-6.638959l.425948-6.03567 2.414261.281854c1.32784.155019 2.581075.551762 2.784955.881645.20388.329889.154633 3.190586-.10944 6.3571l-.480113 5.757309h-2.357914c-1.29685 0-2.525697-.271476-2.730757-.603279zm-16.159409-6.468375V83.52901l2.596077-.487031c1.427846-.26786 2.896332-.186776 3.263297.18019.38916.389165.45837 3.241157.166074 6.843558l-.501149 6.176336h-5.524299zm7.866359-.079588v-6.436114h6.436114v12.872228H96.53943zm29.298093-2.114896c-1.920322-1.12477-15.12754-4.207793-21.789293-5.086387-8.712895-1.149103-19.682823-.445497-29.320073 1.88058-4.326501 1.044259-8.590427 2.062517-9.475392 2.262798-2.36783.53587-2.073068-1.585837.357563-2.573749 11.736995-4.770442 34.821723-6.153848 48.706073-2.918842 5.61647 1.308623 14.4036 5.029738 14.4036 6.099549 0 1.149307-1.245978 1.294565-2.882478.33605zm-57.187922-8.557898c0-2.430668.322728-3.600502 1.072686-3.888293.862852-.3311 1.072685.268472 1.072685 3.065044 0 2.430669-.322728 3.600508-1.072685 3.888293-.862847.3311-1.072686-.268472-1.072686-3.065044zm53.565527 3.214426c-.602667-.602672.224792-6.832085.855719-6.442148.81028.500778.854115 6.74928.047359 6.74928-.32777 0-.734146-.13821-.903073-.307132zM71.5101 77.726044c0-3.098882.281344-3.762944 2.32415-5.485694l2.32415-1.960022.215664 4.505527c.23456 4.900355.036418 5.310867-2.897377 6.002342-1.94212.457752-1.966587.41965-1.966587-3.062153zm45.23158 3.024807c-.977287-.39434-1.31306-9.538118-.350254-9.538118.299006 0 1.362868.759623 2.36414 1.688054 1.371037 1.271299 1.86289 2.507177 1.99223 5.00587.157754 3.047479.037973 3.31321-1.470229 3.26135-.903094-.031054-2.044238-.218774-2.535888-.417156zm-38.795466-5.79843c0-5.332417.437259-6.144225 3.758396-6.977783l1.96259-.492577v5.798515c0 5.656036-.042477 5.798516-1.729319 5.798516-.951129 0-2.238351.19533-2.860493.434073-.964945.370285-1.131174-.299929-1.131174-4.560743zm31.286665 4.34884c-1.05911-.276774-1.251465-1.198303-1.251465-5.99559 0-6.264822.349084-6.634185 4.326254-4.577508 2.030423 1.049971 2.10986 1.278823 2.10986 6.07855 0 4.984272-.001609 4.987447-1.966592 4.90455-1.081626-.045643-2.529752-.230129-3.218057-.410002zm-6.033106-.736098l-2.278712-.285034.347969-6.191671c.191388-3.405423.428468-6.27217.52685-6.370547.098375-.09838 1.12811.074842 2.2883.38494 1.553738.41529 2.203619 1.091044 2.466985 2.565198.466688 2.612183.010458 10.444312-.599862 10.296598-.260051-.062935-1.498242-.242717-2.75153-.399484zM85.09745 73.088099c0-5.651235.422145-6.44322 3.7544-7.043662l1.966593-.354362V78.36397H85.09745zm7.151237-1.122871V65.49174h7.922052l-.206632 6.257335-.20662 6.25733-3.7544.216157-3.7544.216151zm27.889828.593136c-3.076323-2.66941-9.325457-5.91834-13.605393-7.073472-12.41807-3.351558-22.496858-1.641241-32.747341 5.557054-2.484893 1.744997-4.645233 3.045478-4.800746 2.889965-.648862-.648862 1.818385-7.939086 3.013871-8.90541.714452-.57749 2.90803-1.821758 4.874622-2.76504 11.813445-5.666355 26.120005-5.496008 39.067826.46518 4.799276 2.209588 5.920431 3.470434 6.592061 7.413407.20099 1.179954.583305 2.708531.849589 3.396836.705387 1.82333-.399587 1.490073-3.244489-.97852zm-3.7544-11.085617c-1.08162-.567901-1.966587-1.38429-1.966587-1.814196 0-1.045396-3.714496-9.283907-4.039364-8.95904-.140291.140296.390195 2.13062 1.178866 4.422937.788676 2.292318 1.313804 3.947526 1.166953 4.094377-.774908.774902-4.113074-1.356513-4.464572-2.965515-.55578-2.544103-2.35535-9.058544-2.88014-10.42613-.747736-1.948575 4.434033 1.570426 7.587075 5.152472 2.362515 2.683955 6.28744 10.639532 5.588295 11.327102-.11217.1103-1.088899-.2641-2.170526-.832007zM79.041865 50.29134c2.497353-2.837463 8.18381-5.538188 8.446832-5.538188.263023 0-.442112 1.270482-1.566968 2.823293-1.124845 1.55281-2.591641 4.770866-3.259538 7.151238-.667897 2.38037-1.493195 4.327944-1.833992 4.327944-.340803 0-1.123199.193233-1.738663.429407-.97048.37241.008689-1.931478.702985-4.009437.850248-1.569114 1.288499-2.95034 1.587467-4.495948-2.561713 2.906753-2.993265 4.392702-4.411591 8.763162-.330028 1.016965-.809723 1.486967-1.456364 1.620989-.646637.134016-1.375103.52788-2.032429.541373.470298-5.116303 2.477513-7.370133 5.562262-11.613833zm4.625336 6.941456c0-2.32628 3.235365-9.334084 5.399728-11.695812 2.5193-2.74903 4.010322-2.716546 2.204477.04803-.600361.91909-1.674624 3.90128-2.387252 6.627085-1.130428 4.32388-1.545761 5.022885-3.25632 5.480359-1.44156.385528-1.960633.263838-1.960633-.459662zm20.560296-.100275c-.688031-.179825-1.43018-1.188364-1.649212-2.2412-.219031-1.052834-.876502-3.965524-1.461051-6.472642-.584544-2.507117-.915832-4.705378-.736184-4.885025.179642-.179645.970464.01794 1.75737.439083 1.35994.727814 3.85741 7.05907 4.60976 11.686053.320035 1.968186.02687 2.139558-2.520683 1.473731zM89.831593 53.87098c.612429-4.043728 3.68865-10.548074 4.988697-10.548074.85774 0 .962413 1.022133.604185 5.899771-.565247 7.696488-.56117 7.68758-3.519353 7.68758h-2.533834zm6.707837-1.877198c0-4.875418.644094-8.670876 1.471445-8.670876.74077 0 1.19818 1.483174 2.395796 7.768527l.97247 5.103701H96.53943zm4.120507-9.531281c-3.21715-.413861-4.701656-.558565-8.37811.047133-2.538344.418197-4.646568 1.36735-4.788978 1.224939-.14241-.14241.929546-1.69824 2.486174-2.57311 3.089957-1.736653 3.621629-.880674 3.210699-6.922844l-.036472-5.933316h7.676922v6.436114c0 5.01613.228048 4.708812 1.844655 6.09564 1.169936 1.003643 1.24017.529421 3.06475 2.810916-1.62299-.58691-2.26981-.824012-5.07964-1.185475zm-5.076383-8.376017c0-2.860495-.306482-4.704926-.715122-4.704926-.408645 0-.775316 1.784243-.775316 4.644738 0 2.860495.607425 5.005867 1.01607 5.005867.40864 0 .474368-2.085184.474368-4.94568zm2.325937.00118c-.205999-5.95676-1.152784-6.601507-1.17155-.076646-.010727 3.72177.111087 5.021136.916384 5.021136.173443 0 .375542-1.463641.255166-4.94449zm2.194613.301535c-.066652-3.51105-.44936-5.227032-.791632-5.219292-.342272.00774-.644105 1.739201-.549 5.123034.093393 3.322917.13931 4.739213.598966 4.739213.45853 0 .748338-1.48418.741666-4.642955zm-7.14029-7.222688c0-.187976.490673-1.090643 1.09039-2.005927.599718-.915284 1.29611-3.867094 1.547543-6.559577.503363-5.390377 1.683907-5.396668 2.198378.098608.160554 2.58297 1.09887 5.121778 1.693304 6.438005 0 0 .83442 1.467258 1.089774 2.045488-2.393645-.011853-4.857475.067683-7.619389-.0166z"/>
</svg>
