<?xml version="1.0" encoding="UTF-8" standalone="no"?>
<svg
   xmlns="http://www.w3.org/2000/svg"
   viewBox="0 0 192 192.01431"
   height="192.01431"
   width="192"
   id="svg5087"
   version="1.1">
  <g
     transform="matrix(0.53634286,0,0,0.53634286,-0.23590007,0.42974257)"
     id="g59">
    <path
       style="fill:#020f47;fill-opacity:1;stroke-width:1.33333337"
       d="M 151.10224,355.25648 C 126.01955,351.29052 99.476054,340.82836 78.311425,326.56588 64.758645,317.4329 42.994285,296.26514 33.269615,282.75876 11.018565,251.85477 0.43145569,218.15532 0.43983569,178.25945 0.44683569,146.88082 5.1028957,125.65749 17.762335,99.306733 26.499815,81.119566 38.095345,65.327386 54.219345,49.655217 80.004175,24.592924 109.06991,9.1436232 144.43557,1.7026192 c 15.86648,-3.3383394 53.46534,-3.3385221 69.33334,-3.371e-4 48.98012,10.3040549 90.14694,38.2402389 116.3229,78.9377839 21.5375,33.485814 31.11087,72.503054 27.62886,112.604184 -4.56415,52.56352 -29.80334,97.6964 -72.44834,129.55256 -13.34038,9.96537 -38.80618,22.5972 -54.83676,27.20072 -24.90522,7.15208 -54.81901,9.13504 -79.33333,5.25895 z m 57.14105,-22.66538 c 5.59039,-1.06962 14.97063,-3.59617 20.84498,-5.61457 l 10.68064,-3.6698 c -41.59566,-0.72056 -86.58657,-0.41447 -122.66667,0 l 13.33333,4.28328 c 12.02808,3.86396 21.80896,5.96057 35.33334,7.57396 7.82362,0.93332 31.71214,-0.51372 42.47438,-2.57287 z m 73.75231,-35.83828 c 21.07028,-18.02604 37.57737,-42.99217 46.52091,-70.36041 2.15548,-6.59605 3.91906,-12.23871 3.91906,-12.53925 -102.77107,-1.25998 -205.968,-1.33316 -307.999995,-0.0315 0,1.99951 7.78471,23.2599 11.43475,31.22882 8.38105,18.29782 23.87099,38.69046 39.32336,51.76952 l 8.4514,7.15336 H 273.55563 Z m -110.84719,1.47866 c -8.18922,-2.82058 -13.39105,-14.00452 -11.4144,-24.54102 0.96754,-5.15737 8.53676,-13.71706 12.12983,-13.71706 2.52477,0 2.40905,-1.1143 -0.7616,-7.33334 -3.05659,-5.99532 -3.34479,-10.58216 -0.96092,-15.2933 2.32317,-4.59119 9.89212,-9.37432 14.82476,-9.36838 8.44447,0.0107 16.80283,8.35291 16.80283,16.77143 0,4.52168 -4.65258,12.16116 -8.0662,13.2446 -3.14444,0.998 -3.29752,2.40731 -0.51255,4.71861 1.14835,0.95306 2.98571,3.46898 4.08303,5.59095 1.50748,2.91513 2.41418,3.51033 3.70969,2.43515 1.2636,-1.04868 2.34952,-0.72138 4.12852,1.2444 1.97343,2.18061 2.1434,3.26114 0.93145,5.92108 -1.2863,2.82316 -0.97886,3.79284 2.3234,7.32792 2.09323,2.24081 4.50318,4.07421 5.35542,4.07421 0.945,0 1.38652,1.69059 1.13172,4.33333 -0.38162,3.9579 -0.76438,4.2927 -4.41782,3.86427 -4.45734,-0.52271 -8.85685,-2.53001 -10.25193,-4.67752 -0.60519,-0.93159 -1.75913,-0.65337 -3.38213,0.81543 -6.39419,5.78665 -16.78135,7.64488 -25.6531,4.58924 z m 15.68986,-9.45491 c 1.98198,-1.02492 4.78046,-3.16392 6.21886,-4.75332 2.6036,-2.87695 2.60111,-2.91648 -0.55684,-8.86929 -1.74465,-3.28871 -4.92524,-7.2278 -7.06797,-8.75356 -3.88877,-2.76906 -3.90235,-2.76931 -7.44631,-0.1387 -7.49088,5.56034 -9.19517,15.52151 -3.61104,21.10563 3.71139,3.7114 7.2399,4.11037 12.4633,1.40924 z m 7.45445,-37.13651 c 3.37149,-3.02902 3.92155,-4.54258 3.63416,-10 -0.43485,-8.25796 -13.39904,-11.59469 -18.72787,-4.82018 -8.3336,10.59445 5.10754,23.792 15.09371,14.82018 z m 50.80952,46.46824 c -13.28963,-4.20296 -21.04528,-10.54432 -26.18609,-21.4109 -7.66043,-16.1925 -4.34996,-34.4325 8.67853,-47.81692 8.46569,-8.69696 16.345,-12.08263 28.17423,-12.10618 16.28784,-0.0324 30.64064,8.73135 37.59697,22.9566 3.14241,6.42602 3.69341,9.19475 3.63044,18.2425 -0.0883,12.68954 -2.1166,18.07466 -10.04904,26.68034 -7.03783,7.63514 -14.37127,11.94424 -23.57733,13.85396 -8.70827,1.80644 -11.48482,1.74574 -18.26771,-0.3994 z m 19.02463,-9.53188 c 6.88118,-2.87514 10.81197,-6.84146 14.47214,-14.60302 7.95291,-16.8645 0.37915,-39.32522 -15.9213,-47.21612 -7.11195,-3.44284 -12.34596,-3.52367 -17.67667,-0.273 -5.04585,3.07697 -12.09845,13.47893 -14.06425,20.74356 -1.7641,6.51921 -0.64054,19.31937 2.17344,24.761 3.40978,6.5938 10.33697,13.60074 15.98057,16.16458 6.57575,2.9873 8.75231,3.04854 15.03607,0.423 z m -167.024625,8.86334 -17.33333,-0.7997 3,-2.62965 c 2.95868,-2.59344 3,-3.08176 3,-35.46001 0,-31.13704 -0.13755,-32.95484 -2.66667,-35.24367 -6.01476,-5.44328 -4.08493,-6 20.798485,-6 25.49194,0 29.96135,0.97439 35.23778,7.68228 3.59873,4.57504 3.50686,14.19696 -0.19351,20.26697 -1.69848,2.78616 -2.25037,4.80376 -1.39225,5.0898 4.59426,1.53143 10.62488,7.10756 13.30794,12.30504 2.43343,4.71391 2.94151,7.35608 2.38602,12.40818 -0.83684,7.61101 -5.36892,16.27817 -10.49399,20.0687 -4.22235,3.12288 -15.59322,3.69878 -45.650475,2.31206 z m 32.568345,-7.85872 c 5.14046,-3.83791 8.53614,-11.52247 7.50958,-16.9945 -1.03678,-5.5265 -7.24067,-13.04381 -12.40513,-15.03137 -2.02004,-0.77741 -7.7228,-1.62979 -12.6728,-1.89416 l -9,-0.48067 v 18.17431 c 0,9.99587 0.45,18.64251 1,19.21476 1.88499,1.96125 22.10407,-0.40192 25.56835,-2.98837 z m -5.33732,-43.72616 c 3.4508,-2.90367 4.1023,-4.39555 4.1023,-9.39395 0,-4.53109 -0.77712,-6.71921 -3.27272,-9.2148 -2.89644,-2.89644 -4.42948,-3.27273 -13.33334,-3.27273 h -10.0606 v 11.77777 c 0,6.47779 0.4,12.17779 0.88889,12.66667 0.48888,0.48889 4.64285,0.88889 9.23103,0.88889 7.0294,0 8.98769,-0.5432 12.44444,-3.45185 z m 211.60205,-53.40314 c 1.83235,-7.30065 -0.55851,-38.06916 -3.99799,-51.45101 C 324.08009,110.43076 312.51859,89.724997 291.10224,67.868217 258.19487,34.284104 218.68563,18.563493 171.76891,20.385841 c -29.39563,1.141789 -52.41057,8.19782 -77.624575,23.798516 -13.31705,8.239673 -35.46947,29.277181 -44.70571,42.455709 -8.16319,11.647477 -17.26769,30.185294 -21.60704,43.994454 -6.01288,19.13484 -9.14015,48.28482 -6.56267,61.17221 l 0.83333,4.16667 H 335.05144 Z m -224.16641,0.18832 8,-2.47109 c 19.50326,-6.02429 53.79581,-9.79661 74.66666,-8.21363 18.17375,1.37843 52.66667,8.89826 52.66667,11.48191 -53.67595,-0.44964 -82.98576,-1.33902 -135.33333,-0.79719 z m 7.33333,-16.51116 c 0,-10.72314 0.25246,-11.9105 2.66667,-12.54184 2.51746,-0.65833 2.66666,-0.0409 2.66666,11.03518 0,11.32038 -0.72641,13.35116 -4.77571,13.35116 -0.30669,0 -0.55762,-5.33003 -0.55762,-11.8445 z m 115.62073,10.91655 c -2.12424,-0.55231 -2.28364,-1.71487 -1.48708,-10.84533 0.49071,-5.6247 1.06,-10.42534 1.26508,-10.66808 0.20508,-0.24275 1.62427,0.22836 3.15374,1.0469 2.43766,1.3046 2.78086,2.71664 2.78086,11.44136 0,10.226 -0.15458,10.47023 -5.7126,9.02515 z M 128.24233,173.64006 c 0.47539,-11.69528 1.29602,-13.60632 5.85991,-13.64625 2.04864,-0.0179 2.33333,1.42472 2.33333,11.82408 0,11.15607 -0.17436,11.89121 -3,12.64845 -5.54677,1.48648 -5.68226,1.20403 -5.19324,-10.82628 z m 95.64415,9.91752 c -2.10309,-1.53782 -2.27479,-3.00117 -1.42104,-12.11181 0.91023,-9.71347 1.14852,-10.31503 3.80393,-9.60239 1.55808,0.41815 3.28287,0.76847 3.83287,0.77848 0.55,0.0107 1,5.1182 1,11.35154 0,10.04528 -0.27411,11.33333 -2.41183,11.33333 -1.3265,0 -3.48828,-0.78712 -4.80393,-1.74915 z M 139.10224,171.4875 v -12.7712 l 4.33333,-1.1757 c 2.38334,-0.64664 4.78334,-0.92839 5.33334,-0.62611 0.55,0.30229 1,5.84916 1,12.32639 0,11.32869 -0.12214,11.80741 -3.20947,12.58229 -1.7652,0.44304 -4.1652,1.17227 -5.33333,1.62052 -1.85184,0.71063 -2.12387,-0.82076 -2.12387,-11.95619 z m 73,10.23346 c -2.00243,-0.52328 -2.33333,-2.29771 -2.33333,-12.51199 0,-6.54624 0.56094,-11.90224 1.24653,-11.90224 0.6856,0 2.7856,0.58515 4.66667,1.30033 3.30213,1.25547 3.42013,1.6925 3.42013,12.66667 0,12.08772 -0.1076,12.24839 -7,10.44723 z m -59.66667,-12.78274 c 0,-11.99537 0.15611,-12.69564 3,-13.45777 6.23206,-1.67013 6.33334,-1.48103 6.33334,11.82628 0,11.59776 -0.21583,12.66667 -2.55762,12.66667 -1.40669,0 -3.50669,0.36418 -4.66666,0.80932 -1.83188,0.70296 -2.10906,-0.85367 -2.10906,-11.8445 z m 43.46222,9.91038 c -0.38235,-0.61866 -0.3378,-6.18883 0.0989,-12.3782 l 0.79417,-11.25338 4.50134,0.52551 c 2.47573,0.28903 4.81236,1.02875 5.19249,1.64381 0.38013,0.61507 0.28831,5.94878 -0.20405,11.85268 l -0.89516,10.73438 h -4.39628 c -2.41795,0 -4.70911,-0.50616 -5.09144,-1.1248 z m -30.12888,-12.06015 v -11.85161 l 4.84033,-0.90806 c 2.66219,-0.49942 5.40015,-0.34824 6.08435,0.33596 0.72558,0.72559 0.85462,6.04307 0.30964,12.75967 l -0.93438,11.51565 h -5.14997 -5.14997 z m 14.66666,-0.14839 v -12 h 6 6 v 12 12 h -6 -6 z m 54.62568,-3.94318 c -3.5804,-2.09711 -28.20498,-7.84534 -40.62568,-9.48346 -16.24501,-2.14248 -36.69821,-0.83062 -54.66666,3.5063 -8.06667,1.947 -16.01667,3.84552 -17.66667,4.21894 -4.41477,0.99912 -3.86519,-2.95676 0.66667,-4.7987 21.88338,-8.89439 64.92437,-11.47372 90.81145,-5.44212 10.47179,2.4399 26.85521,9.37784 26.85521,11.37248 0,2.14286 -2.3231,2.41369 -5.37432,0.62656 z M 128.43557,146.74086 c 0,-4.53193 0.60172,-6.71306 2,-7.24964 1.60877,-0.61733 2,0.50056 2,5.71471 0,4.53193 -0.60172,6.71307 -2,7.24964 -1.60876,0.61733 -2,-0.50056 -2,-5.71471 z m 99.8718,5.99323 c -1.12366,-1.12367 0.41912,-12.73828 1.59547,-12.01125 1.51075,0.93369 1.59248,12.58389 0.0883,12.58389 -0.61112,0 -1.3688,-0.25769 -1.68376,-0.57264 z m -94.53846,-8.61676 c 0,-5.7778 0.52456,-7.01593 4.33333,-10.22796 l 4.33333,-3.65442 0.4021,8.40046 c 0.43733,9.13661 0.0679,9.902 -5.4021,11.19124 -3.62104,0.85347 -3.66666,0.78243 -3.66666,-5.70932 z m 84.33333,5.63969 c -1.82213,-0.73524 -2.44817,-17.78362 -0.65304,-17.78362 0.55749,0 2.54104,1.4163 4.40789,3.14734 2.55627,2.37031 3.47332,4.67458 3.71447,9.33334 0.29413,5.68196 0.0708,6.17741 -2.74121,6.08072 -1.6838,-0.0579 -3.81144,-0.4079 -4.72811,-0.77778 z m -72.33333,-10.81105 c 0,-9.94218 0.81526,-11.45578 7.00745,-13.00993 l 3.65921,-0.9184 v 10.81121 c 0,10.54556 -0.0792,10.81121 -3.22428,10.81121 -1.77336,0 -4.17336,0.36419 -5.33333,0.80932 -1.79912,0.69039 -2.10905,-0.55921 -2.10905,-8.50341 z m 58.33333,8.10832 c -1.97469,-0.51604 -2.33333,-2.23421 -2.33333,-11.17865 0,-11.68063 0.65086,-12.3693 8.06621,-8.53467 3.78568,1.95765 3.93379,2.38434 3.93379,11.33333 0,9.29307 -0.003,9.29899 -3.66667,9.14443 -2.01667,-0.0851 -4.71667,-0.42907 -6,-0.76444 z m -11.2486,-1.37244 -4.24861,-0.53144 0.64878,-11.54424 c 0.35684,-6.34934 0.79887,-11.69433 0.9823,-11.87775 0.18342,-0.18343 2.10334,0.13954 4.26649,0.71771 2.89691,0.7743 4.1086,2.03423 4.59964,4.78276 0.87013,4.87036 0.0195,19.4732 -1.11843,19.19779 -0.48486,-0.11734 -2.79344,-0.45254 -5.13017,-0.74483 z m -33.7514,-10.21187 c 0,-10.53661 0.78708,-12.01325 7,-13.13276 l 3.66667,-0.6607 v 11.8151 11.81511 h -5.33334 -5.33333 z m 13.33333,-2.09357 v -12.06968 h 7.38524 7.38526 l -0.38526,11.66667 -0.38524,11.66666 -7,0.40302 -7,0.40301 z m 52,1.10589 c -5.73574,-4.97706 -17.38712,-11.03462 -25.36697,-13.18834 -23.15323,-6.24891 -41.94492,-3.06006 -61.05673,10.36101 -4.63303,3.25351 -8.66094,5.67823 -8.95089,5.38828 -1.20979,-1.20979 3.39034,-14.80226 5.6193,-16.60395 1.33208,-1.07672 5.42196,-3.39663 9.08863,-5.15536 22.02592,-10.5648 48.7002,-10.24719 72.84114,0.86732 8.94815,4.11973 11.03852,6.47055 12.29076,13.82214 0.37474,2.2 1.08756,5.05 1.58404,6.33333 1.31518,3.39956 -0.74502,2.77821 -6.04928,-1.82443 z m -7,-20.6689 c -2.01666,-1.05884 -3.66666,-2.58098 -3.66666,-3.38253 0,-1.94912 -6.9256,-17.30965 -7.53131,-16.703944 -0.26157,0.26158 0.72751,3.972497 2.19797,8.246474 1.47047,4.27398 2.44956,7.36008 2.17576,7.63388 -1.4448,1.44479 -7.66874,-2.52919 -8.3241,-5.52914 -1.03624,-4.743427 -4.3915,-16.889464 -5.36996,-19.4393 -1.39414,-3.633078 8.26716,2.928026 14.14594,9.606676 4.40486,5.004177 11.7228,19.837184 10.41926,21.119144 -0.20914,0.20565 -2.03023,-0.49241 -4.0469,-1.55126 z M 147.81173,92.965901 c 4.65626,-5.29039 15.25854,-10.325835 15.74894,-10.325835 0.4904,0 -0.82431,2.368787 -2.92158,5.263971 -2.09725,2.895183 -4.83206,8.89518 -6.07734,13.333333 -1.24528,4.43815 -2.78403,8.06936 -3.41944,8.06936 -0.63542,0 -2.09418,0.36028 -3.2417,0.80062 -1.80944,0.69435 0.0162,-3.6012 1.3107,-7.47551 1.58527,-2.92558 2.40238,-5.500847 2.9598,-8.382601 -4.77626,5.41958 -5.58088,8.190101 -8.22532,16.338731 -0.61533,1.89611 -1.50971,2.77242 -2.71536,3.0223 -1.20564,0.24987 -2.56385,0.98422 -3.78942,1.00938 0.87686,-9.53924 4.61927,-13.74146 10.37072,-21.653749 z m 8.62384,12.942199 c 0,-4.3373 6.03227,-17.403203 10.06768,-21.806596 4.69718,-5.125507 7.47716,-5.064943 4.1102,0.08955 -1.11936,1.713627 -3.1223,7.273855 -4.45098,12.356063 -2.10766,8.061783 -2.88204,9.365063 -6.07134,10.218013 -2.68776,0.71881 -3.65556,0.49192 -3.65556,-0.85703 z m 38.33424,-0.18696 c -1.28282,-0.33528 -2.66654,-2.21568 -3.07492,-4.17867 -0.40838,-1.962987 -1.63422,-7.393636 -2.7241,-12.068105 -1.08987,-4.674468 -1.70755,-8.77308 -1.3726,-9.108027 0.33494,-0.334945 1.80941,0.03345 3.27658,0.81866 2.53558,1.356994 7.19206,13.16149 8.5948,21.788402 0.5967,3.66964 0.0501,3.98916 -4.69976,2.74774 z m -26.84086,-6.081077 c 1.14186,-7.539445 6.87741,-19.666663 9.30132,-19.666663 1.59924,0 1.7944,1.905746 1.12649,11 -1.05389,14.34994 -1.04629,14.33333 -6.56176,14.33333 h -4.72428 z m 12.50662,-3.499997 c 0,-9.090113 1.2009,-16.166666 2.74348,-16.166666 1.38115,0 2.23398,2.765348 4.46691,14.484257 l 1.81315,9.515743 h -4.51178 -4.51176 z m 7.6826,-17.770873 c -5.99831,-0.771635 -8.76614,-1.041433 -15.62081,0.08788 -4.73269,0.779719 -8.66343,2.549393 -8.92895,2.283872 -0.26552,-0.265521 1.73312,-3.166333 4.63542,-4.797508 5.76116,-3.237954 6.75245,-1.641999 5.98628,-12.907499 l -0.068,-11.062543 h 7.15673 7.15673 v 12 c 0,9.352468 0.42519,8.779481 3.43932,11.365191 2.18132,1.871273 2.31227,0.987096 5.71416,5.240895 -3.02603,-1.094281 -4.23201,-1.536353 -9.47088,-2.210293 z m -9.46481,-15.616908 c 0,-5.333333 -0.57143,-8.772235 -1.33333,-8.772235 -0.76191,0 -1.44556,3.326683 -1.44556,8.660016 0,5.333334 1.13253,9.333334 1.89444,9.333334 0.7619,0 0.88445,-3.887781 0.88445,-9.221115 z m 4.33666,0.0022 c -0.38408,-11.106252 -2.14934,-12.30837 -2.18433,-0.142904 -0.02,6.939163 0.20712,9.361802 1.70858,9.361802 0.32338,0 0.70019,-2.728928 0.47575,-9.218898 z m 4.09181,0.562206 c -0.12427,-6.546279 -0.83782,-9.74569 -1.47598,-9.731259 -0.63816,0.01443 -1.20092,3.242703 -1.0236,9.551788 0.17413,6.19551 0.25974,8.836163 1.11676,8.836163 0.85492,0 1.39526,-2.767221 1.38282,-8.656692 z M 173.76891,49.850142 c 0,-0.350477 0.91485,-2.033481 2.03301,-3.740009 1.11816,-1.706528 2.41657,-7.210115 2.88536,-12.230193 0.93851,-10.050246 3.13961,-10.061975 4.09883,0.183851 0.29935,4.815895 2.04882,9.549448 3.15713,12.003526 0,0 1.55576,2.735671 2.03186,3.81377 -4.4629,-0.0221 -9.05666,0.126193 -14.20619,-0.03095 z"
       id="path5097" />
  </g>
</svg>
