<svg xmlns="http://www.w3.org/2000/svg" id="Layer_1" width="192" height="192" x="0" y="0" version="1.1" viewBox="0 0 192 192" xml:space="preserve">
    <style id="style2" type="text/css"/>
    <g id="g44" transform="translate(5.998676 5.998676) scale(4.23336)">
        <circle id="circle4" class="color-brown color-main" fill="#cabb9f" cx="21.26" cy="21.26" r="22.677"/>
        <circle id="circle6" class="color-stroke-white" fill="none" stroke="#181716" stroke-miterlimit="10" stroke-width=".9167" cx="21.26" cy="21.26" r="15.591"/>
        <path id="rect8" class="color-stroke-white" fill="none" stroke="#181716" stroke-miterlimit="10" stroke-width=".916728" d="M7.680016 15.63488l19.20511-7.955186 7.955185 19.20511-19.20511 7.955185z"/>
        <path id="rect10" class="color-stroke-white" fill="none" stroke="#181716" stroke-miterlimit="10" stroke-width=".916728" d="M7.680016 26.88512L15.6352 7.68001l19.20511 7.955186-7.955185 19.20511z"/>
        <path id="rect12" class="color-brown color-main color-stroke-white" fill="#cabb9f" stroke="#181716" stroke-miterlimit="10" stroke-width="1.833282" d="M6.560497 21.26L21.258986 6.561512 35.957474 21.26 21.258986 35.958488z"/>
        <path id="rect14" class="color-brown color-main color-stroke-white" fill="#cabb9f" stroke="#181716" stroke-miterlimit="10" stroke-width=".6875" d="M10.866 10.866h20.787001v20.787001H10.866z"/>
        <g id="g20" class="color-white color-stroke-white" fill="#181716" stroke="#181716" stroke-miterlimit="10" stroke-width=".052">
            <path id="polygon16" d="M14.004 11.51l.5 1.398 1.339-.64-.634 1.341 1.399.495-1.397.5.64 1.339-1.342-.635-.494 1.399-.5-1.397-1.339.64.634-1.342-1.399-.494 1.397-.5-.639-1.339 1.341.634z"/>
            <path id="polygon18" d="M28.505 25.905l.5 1.397 1.339-.639-.634 1.341 1.399.494-1.397.5.639 1.339-1.341-.634-.495 1.399-.5-1.397-1.338.639.634-1.341-1.399-.494 1.397-.5-.64-1.339 1.342.634z"/>
        </g>
        <g id="g26" class="color-white color-stroke-white" fill="#181716" stroke="#181716" stroke-miterlimit="10" stroke-width=".052">
            <path id="polygon22" d="M11.447 28.508l1.397-.5-.64-1.339 1.342.635.494-1.399.5 1.397 1.339-.64-.635 1.341 1.399.495-1.397.5.64 1.339-1.342-.635-.494 1.399-.5-1.397-1.339.64.635-1.341z"/>
            <path id="polygon24" d="M25.877 14.219l1.397-.5-.64-1.339 1.341.635.495-1.399.5 1.397 1.339-.64-.635 1.342 1.399.494-1.397.5.64 1.339-1.341-.635-.495 1.4-.5-1.398-1.339.64.635-1.341z"/>
        </g>
        <path id="rect28" class="color-white color-stroke-white" fill="#181716" stroke="#181716" stroke-miterlimit="10" stroke-width=".0522" d="M17.503699 31.4903v-20.437h7.512v20.437z"/>
        <path id="rect30" class="color-white color-stroke-white" fill="#181716" stroke="#181716" stroke-miterlimit="10" stroke-width=".052" d="M11.138 17.612h20.243v7.512H11.138z"/>
        <g id="g40">
            <g id="g38" class="color-brown color-main" fill="#cabb9f">
                <path id="path32" d="M15.255 23.7l-.031-4.05-1.023.025.841-.448 2.156-.064c.226 0 .446.033.661.101.215.066.395.167.538.301.143.134.221.293.232.478 0 .241-.075.436-.224.584-.149.147-.351.273-.604.378l-.288.116.288.058c.225.046.43.115.615.208.186.094.337.213.455.36.118.146.183.316.194.51 0 .307-.09.572-.27.797-.18.224-.418.404-.716.541-.297.137-.622.236-.975.3s-.704.095-1.054.095h-.404c-.124 0-.213-.007-.266-.021-.053-.014-.087-.039-.103-.076-.014-.04-.022-.103-.022-.193zm.827-2.541l.539.013c.297 0 .558-.055.784-.164.226-.109.354-.281.383-.517 0-.182-.061-.334-.182-.457-.122-.123-.276-.214-.461-.271-.186-.059-.375-.087-.569-.087h-.494zm.262.358h-.262v1.828c0 .112.02.18.059.203.039.023.124.035.254.035h.667c.187 0 .369-.037.546-.11.177-.073.322-.176.434-.307.112-.132.168-.279.168-.443-.018-.283-.118-.516-.301-.696-.183-.181-.412-.312-.688-.391-.276-.079-.567-.119-.877-.119z"/>
                <path id="path34" d="M21.177 22.031l-.026 1.617-.827.365v-4.299l-.906.052.431-.303c.086-.071.171-.118.255-.142.083-.023.195-.043.335-.058l1.725-.102c.035-.004.088-.006.162-.006.289 0 .56.053.812.159.252.105.46.262.623.469.163.207.258.455.285.744 0 .202-.081.396-.241.577-.16.183-.373.343-.637.481-.264.14-.554.248-.868.326-.314.078-.614.117-.899.117h-.224zm.352-2.394l-.365.013v2.061c.101.019.23.041.388.068.157.027.299.041.427.041.188-.006.37-.048.546-.129.176-.08.319-.194.43-.341.11-.147.166-.316.166-.507-.024-.286-.111-.519-.262-.699-.15-.18-.34-.31-.569-.389-.228-.078-.482-.118-.761-.118z"/>
                <path id="path36" d="M24.628 21.082c-.042-.123-.07-.286-.083-.488.015-.22.047-.362.097-.43.019-.024.087-.063.205-.115.117-.052.219-.1.305-.144.086-.045.184-.108.292-.19.053-.041.135-.107.245-.201.11-.093.201-.164.273-.214.072-.051.138-.083.199-.099.048-.002.127-.005.237-.008.109-.004.226-.005.348-.005.06 0 .138.002.236.006.098.005.167.007.207.007.104.011.218.024.341.038.124.014.23.031.321.05.091.02.176.049.254.087.079.039.141.09.186.152v.039c0 .047-.033.111-.097.193s-.146.163-.242.242c-.057.048-.13.12-.222.216-.091.097-.147.146-.169.15-.013-.012-.019-.025-.019-.039 0-.002-.001-.005-.002-.008-.002-.003-.005-.005-.01-.005.004-.026.015-.062.032-.104.017-.043.025-.076.025-.101-.031-.093-.356-.187-.977-.281-.085-.009-.227-.013-.423-.013-.14 0-.282.004-.426.013-.144.008-.224.015-.242.019-.078.073-.128.225-.149.456.009.042.014.083.014.122 0 .112.171.234.512.364l.976.386c.388.145.714.328.98.553.267.224.4.504.4.84 0 .111-.034.204-.102.28-.067.075-.172.158-.313.248-.141.09-.229.148-.265.177-.089.073-.219.193-.389.36-.17.167-.282.264-.335.288-.116.057-.224.092-.323.106-.1.015-.234.022-.403.022-.34 0-.664-.052-.974-.156-.309-.104-.558-.249-.748-.435.004-.026.014-.05.03-.071.016-.021.038-.045.065-.07.027-.025.047-.045.059-.058l.424-.441c.07-.073.121-.109.154-.109.021 0 .031.012.031.037 0 .01-.009.027-.028.055-.019.027-.028.05-.028.067 0 .056.082.123.246.203.164.08.361.149.592.209.232.06.445.09.639.09.392 0 .664-.05.815-.147.017 0 .025-.059.025-.174 0-.125-.016-.247-.046-.369s-.078-.217-.14-.286c-.04-.048-.102-.098-.185-.147-.083-.051-.236-.123-.456-.218l-1.458-.597c-.288-.118-.46-.235-.511-.352z"/>
            </g>
        </g>
        <circle id="circle42" class="color-stroke-white" fill="none" stroke="#181716" stroke-miterlimit="10" stroke-width=".5" cx="21.26" cy="21.26" r="19.134001"/>
    </g>
</svg>
