<?xml version="1.0" encoding="utf-8"?>
<!-- Generator: Adobe Illustrator 24.1.0, SVG Export Plug-In . SVG Version: 6.00 Build 0)  -->
<svg version="1.1" id="Layer_1" xmlns="http://www.w3.org/2000/svg" xmlns:xlink="http://www.w3.org/1999/xlink" x="0px" y="0px"
	 viewBox="0 0 612 612" style="enable-background:new 0 0 612 612;" xml:space="preserve">
<style type="text/css">
	.st0{fill:#CB0000;}
	.st1{fill:#FEEFB1;}
	.st2{fill:#FEFEFE;}
</style>
<g>
	<path d="M530.5,493.4h-449V118.6h449V493.4z M522.2,126.9H89.8v358.2h432.4C522.2,485.1,522.2,126.9,522.2,126.9z"/>
	<path class="st0" d="M522.2,126.9v358.2H89.8V126.9H522.2z M486.5,162.5H125.6v286.7h360.9V162.5z"/>
	<path d="M486.5,162.5v286.7H125.6V162.5H486.5L486.5,162.5z M133.7,441.1h344.6V170.8H133.7V441.1z"/>
	<path class="st1" d="M133.7,441.1V170.8h344.6v270.3L133.7,441.1L133.7,441.1z M139.6,176.6v258.7h332.7V176.6L139.6,176.6
		L139.6,176.6z"/>
	<path d="M139.6,176.6h332.7v258.7H139.6V176.6z M158.4,287.4h20c1.1,0,2.3-0.2,3.3-0.6c3.6-1.9,5.6-4.9,5.6-9.1v-23.6
		c0-1.5-0.2-2.7-1.2-3.6c-0.9-0.8-1.9-1.5-2.7-2.2c2.3-0.5,4-2.1,4-5v-24c0-1-0.1-1.9-0.3-2.8c-0.9-3.5-4.5-6.9-8.6-6.9
		c-6.1,0.1-12.1,0-18.2,0h-1.9C158.4,235.4,158.4,261.3,158.4,287.4L158.4,287.4z M244.9,354.9c2.6-0.7,4.4-2.3,4.3-5.5
		c-0.1-7.8,0-15.6,0-23.6c0-1-0.1-1.9-0.3-2.8c-0.7-3.5-4.6-7-8.6-6.9c-6,0.1-11.9,0-17.8,0c-0.5,0-0.8,0.1-1.3,0.1v77.9h8.7v-34.5
		c2.8,0,5.6,0.2,8.3-0.1c1.7-0.2,2,0.8,2.3,2c0.1,0.3,0,0.6,0,1v31.6h8.8c0-11.1-0.1-22,0.1-33C249.2,358,247.8,355.7,244.9,354.9
		L244.9,354.9z M328.6,274.4c-2.5-0.1-4.4,0.9-5.6,3c-1.1,1.9-2,3.9-1,6.2c1.6,3.5,4.4,4.9,8.1,5h7.3c1.8,0,2.4,0.4,2.6,2.1
		c0.2,1.1,0.2,2.4,0,3.5c-0.1,0.5-0.6,1.3-1,1.5c-1.6,0.4-3.3,0.6-4.9,0.6c-2.7,0.1-3.6-0.9-3.5-3.5c0-0.1-0.1-0.2-0.2-0.3h-8.6
		c0,1.7-0.3,3.5,0.1,4.9c1,4.4,4.7,7.3,9.2,7.3c3.5,0.1,6.9-0.2,10.3-0.2c3.1-0.1,6.9-4.2,7.3-6.9c0.3-2.3,0.2-4.6,0.3-6.9
		c0.2-4.7-4.3-9.5-9.2-9.3c-1.6,0.1-3.3,0-5,0c-2.2,0.1-4.5-2.3-4.3-4.7c0.2-1.5,0.8-2.1,2.3-2.1c2.3,0,4.5-0.1,6.9,0
		c4.4,0.2,10.6-4.2,10.2-10.2c-0.4-5.8-0.1-11.6-0.1-17.4c0-1.2-0.2-2.5-0.6-3.5c-1.3-2.7-2.7-5.4-6.2-5.7c-1.8-0.2-3.6-0.3-5.5-0.5
		c0-2.1,1.4-3.3,3-4.2c-0.6-1.5-1.3-2.7-2-4.4c-1.5,1.5-2.9,2.5-3.8,3.9c-0.9,1.4-1.1,3.1-1.7,4.8c-1.5,0-3.3-0.3-4.9,0.1
		c-3.5,0.8-6.3,4.8-6.3,8.5v20.4c0,0.6,0.2,1.2,0.4,1.8C323.2,271.1,325.6,273,328.6,274.4L328.6,274.4z M390.8,373.2v-21.1
		c0-4-3.5-9.5-9.1-9.1c-3.8,0.2-7.7,0.1-11.6,0.1c-0.5,0-0.9-0.1-1.3,0.2c-3.8,1.9-6.2,4.1-6.2,8.8c-0.1,11.3,0,22.6,0,33.8
		c0,3.1,1.5,5.4,3.9,7.3c1.5,1,3,1.5,4.7,1.5c4-0.1,8.2,0.4,12.1-0.2c3.5-0.5,6.4-3,7-6.5c0.6-3.2,0.2-6.6,0.2-10H382v5.7
		c0,1-0.3,2-1.5,2.1c-2.3,0.2-4.7,0.4-7,0.1c-2.2-0.2-2.3-0.6-2.3-3v-0.3c0.1-2.7,0.2-5.5,0.3-8.3c0-0.4,0.1-0.7,0.1-1.2
		C377.9,373.2,384.2,373.2,390.8,373.2L390.8,373.2z M390.4,262.2c0,5.5,0.1,11.1,0,16.6c-0.1,3.5,1.5,6.1,4.2,7.7
		c1.3,0.7,2.9,1.3,4.4,1.3c4,0.2,8.2,0.5,12.1-0.1c4.5-0.6,7.5-4.6,7.5-9.4v-33.1c0-4-3.5-9.5-9-9.1c-3.9,0.2-7.8,0.1-11.7,0.1
		c-0.5,0-1,0.1-1.4,0.2c-4,1.8-6.1,4.7-6,9.1V262.2z M258,368.9v17.3c0,1,0.2,2.1,0.6,3c1.8,4,5.1,5.5,9.2,5.6c3,0.1,6,0.1,9,0
		c2.5-0.1,4.9-1,6.5-2.8c1.7-1.9,2.7-4.2,2.7-6.9c-0.1-10.8,0-21.6-0.1-32.5c0-1.2-0.2-2.5-0.6-3.5c-1.5-3.5-3.5-6-8.2-6
		c-4,0.1-7.9,0-11.9,0c-0.5,0-1,0.1-1.4,0.2c-4,1.7-6.1,4.6-6.1,9.1C258,357.9,258,363.4,258,368.9L258,368.9z M313.1,287.4v-41
		c0-3.8-3.8-9.5-9-9.1c-5.4,0.4-10.7,0.1-16.1,0.1c-0.5,0-0.8,0.1-1.2,0.1v49.9h8.7v-41.6c2.4,0,4.6-0.1,6.9,0.1
		c0.5,0,1.3,0.6,1.5,1.1c0.3,0.6,0.4,1.4,0.4,2.1v38.3H313.1L313.1,287.4z M435.9,287.4v-41.6h5.6c2.7,0,3.1,0.5,3.1,3.2v38.3h8.8
		v-41.2c0-3.6-3.7-9.2-8.7-8.9c-4.9,0.3-9.9,0.1-14.9,0.1h-2.6v50C430.1,287.4,432.9,287.4,435.9,287.4L435.9,287.4z M222.5,287.4
		v-50h-8.7v41.2c-2.1,0-4.1,0.1-6.1,0c-2.5-0.2-3-0.6-3-3.4V275c0.1-6.5,0.2-13.1,0.3-19.6c0.1-5.8,0-11.7,0-17.6
		c0-0.2-0.1-0.5-0.1-0.6h-8.6v41.8c0,0.8,0.2,1.7,0.6,2.5c1.8,3.7,4.8,5.6,8.9,5.7C211.2,287.4,216.8,287.4,222.5,287.4L222.5,287.4
		z M294.6,343.9v41.9c0,2.1,1.2,3.9,2.7,5.3c2.3,2.2,5.2,2.7,8.3,2.7h15.3v-50h-8.7v41.3c-2.1,0-4.1,0.1-6.1,0c-1.3-0.1-2.8-0.1-3-2
		V382l0.3-21.3c0.1-5.2,0-10.4,0-15.6c0-0.5-0.1-0.8-0.1-1.3C300.4,343.9,297.6,343.9,294.6,343.9L294.6,343.9z M251.6,209.4v77.9
		h8.6v-77.9H251.6z M374,222.2c-1.8,4.2-5.6,4.6-8.9,6.1v8.9h-8.3v8.6h8.4v36.1c0,1.9,1.5,4.6,2.8,4.8c3.4,0.4,6.8,0.6,10.2,0.9
		v-0.4c-0.5-0.2-1-0.2-1.5-0.5c-2.2-1.2-2.8-3.1-2.8-5.5c0.1-11.3,0-22.6,0-33.8v-1.7h8.5v-8.6H374C374,232.3,374,227.5,374,222.2
		L374,222.2z M346.1,343.9v-14.6c-1.9,3.7-5.6,4.2-8.9,5.7v8.9h-8.3v8.6h8.4v36.1c0,1.9,1.5,4.6,2.7,4.8c3.4,0.4,6.8,0.6,10.2,0.9
		v-0.4c-0.5-0.2-1-0.2-1.5-0.5c-2.2-1.2-2.8-3.1-2.8-5.5c0.1-11.4,0-22.7,0-34v-1.5h8.5V344C351.8,343.9,349.1,343.9,346.1,343.9
		L346.1,343.9z M231.1,237.3v49.9h8.6v-41.1c0-2.4,0.9-2.6,2.6-2.5c0.5,0.1,1,0.7,1.5,1.1v-7.6L231.1,237.3L231.1,237.3z
		 M277.5,287.4v-49.9H269v49.9H277.5z M268.9,209.5v8.6h8.6v-8.6H268.9z"/>
	<path class="st2" d="M158.4,287.4v-78h1.9c6.1,0,12.1,0.1,18.2,0c4-0.1,7.7,3.4,8.6,6.9c0.2,0.9,0.3,1.9,0.3,2.8v24
		c0,2.9-1.7,4.5-4,5c0.8,0.6,1.9,1.4,2.7,2.2c1,1,1.2,2.3,1.2,3.6c-0.1,7.8,0,15.7,0,23.6c0,4.2-1.9,7.3-5.6,9.1
		c-1,0.5-2.2,0.6-3.3,0.6C171.7,287.4,165.1,287.4,158.4,287.4L158.4,287.4z M167.1,244c3.1,0,6,0.1,8.9,0c1.8,0,2.5-0.8,2.5-2.6
		v-6.5c0-4.5,0.1-9.1,0-13.6c0-1.2,0.2-2.9-1.5-3c-3.2-0.2-6.5-0.1-9.8-0.1V244z M167.2,278.6h8c2.6,0,3.5-0.8,3.5-3.4v-19.6
		c0-0.7-0.2-1.5-0.5-2.2c-0.1-0.2-0.5-0.5-0.8-0.6c-3.4-0.1-6.7,0-10.1,0C167.2,261.4,167.2,269.9,167.2,278.6z M244.9,354.9
		c2.9,0.7,4.4,3.1,4.4,6c-0.2,11-0.1,21.9-0.1,33h-8.8v-31.6c0-0.4,0.1-0.6,0-1c-0.2-1.2-0.5-2.2-2.3-2c-2.7,0.2-5.5,0.1-8.3,0.1
		V394H221v-77.9c0.4,0,0.8-0.1,1.3-0.1c6,0,11.9,0.1,17.8,0c4-0.1,7.9,3.5,8.6,6.9c0.2,0.9,0.3,1.9,0.3,2.8v23.6
		C249.2,352.7,247.5,354.2,244.9,354.9L244.9,354.9z M229.9,350.7c2.7,0,5.4,0.1,8,0c1.8-0.1,2.5-0.8,2.5-2.6v-6.5
		c0-4.5,0.1-9.1,0-13.6c0-1.2,0.2-2.9-1.5-3c-2.9-0.2-5.9-0.1-8.9-0.1V350.7z M328.6,274.4c-2.9-1.5-5.3-3.4-6.5-6.5
		c-0.2-0.5-0.4-1.2-0.4-1.8v-20.4c0-3.5,2.8-7.6,6.3-8.5c1.6-0.4,3.5-0.1,4.9-0.1c0.6-1.8,0.9-3.5,1.7-4.8c0.9-1.5,2.3-2.4,3.8-3.9
		c0.7,1.6,1.5,2.9,2,4.4c-1.6,0.9-3,2.1-3,4.2c1.9,0.2,3.6,0.2,5.5,0.5c3.5,0.4,4.9,3.1,6.2,5.7c0.5,1,0.6,2.4,0.6,3.5
		c0.1,5.8-0.2,11.6,0.1,17.4c0.4,6-5.9,10.3-10.2,10.2c-2.3-0.1-4.5,0-6.9,0c-1.5,0-2.2,0.6-2.3,2.1c-0.2,2.5,2.1,4.8,4.3,4.7
		c1.6-0.1,3.3,0.1,5,0c5-0.2,9.4,4.5,9.2,9.3c-0.1,2.3-0.1,4.6-0.3,6.9c-0.3,2.7-4.2,6.9-7.3,6.9c-3.5,0.2-6.9,0.4-10.3,0.2
		c-4.5-0.2-8.2-2.9-9.2-7.3c-0.3-1.5-0.1-3.2-0.1-4.9h8.6c0.1,0.2,0.2,0.2,0.2,0.3c-0.1,2.5,0.9,3.5,3.5,3.5
		c1.6-0.1,3.3-0.3,4.9-0.6c0.5-0.1,1-0.9,1-1.5c0.2-1.1,0.2-2.3,0-3.5c-0.2-1.6-0.8-2.1-2.6-2.1h-7.3c-3.6-0.1-6.5-1.5-8.1-5
		c-1-2.3-0.2-4.3,1-6.2C324.1,275.3,326,274.3,328.6,274.4L328.6,274.4z M330.3,255.3c0,2.5-0.1,5.1,0,7.6c0.1,1.1,0.1,2.5,1.9,2.5
		c2.1,0,4.3,0.2,6.4,0.1c1-0.1,2.3-0.4,2.3-1.9c0-5.2,0.2-10.4-0.1-15.6c-0.1-1.8-0.4-2.5-2.5-2.4c-1.9,0.1-3.8,0-5.6,0
		c-1.7,0-2.2,0.5-2.2,2.2C330.3,250.4,330.3,252.9,330.3,255.3L330.3,255.3z M390.8,373.2h-19.3c0,0.5-0.1,0.8-0.1,1.2
		c-0.1,2.7-0.2,5.5-0.3,8.3v0.3c0,2.3,0.2,2.7,2.3,3c2.3,0.2,4.7,0.1,7-0.1c1.2-0.1,1.5-1,1.5-2.1V378h8.6c0,3.4,0.5,6.8-0.2,10
		c-0.6,3.5-3.4,6.1-7,6.5c-4,0.5-8.1,0.1-12.1,0.2c-1.8,0-3.3-0.5-4.7-1.5c-2.4-1.8-3.9-4.1-3.9-7.3V352c0-4.8,2.4-6.9,6.2-8.8
		c0.4-0.2,0.8-0.2,1.3-0.2c3.9,0,7.7,0.2,11.6-0.1c5.6-0.4,9.1,5.2,9.1,9.1v21.2L390.8,373.2z M382,364.7v-10.5c0-2-0.6-2.6-2.6-2.6
		c-1.7,0-3.5,0.1-5.2,0c-2.5-0.1-3.1,0.6-3.1,3.1c0,3.3,0.2,6.5,0.3,9.8c0,0.1,0.2,0.2,0.2,0.2H382z M390.4,262.2
		c0-5.5,0.1-10.9,0-16.5c-0.1-4.4,2.1-7.4,6-9.1c0.5-0.2,0.9-0.2,1.4-0.2c3.9,0,7.8,0.2,11.7-0.1c5.6-0.4,9,5.2,9,9.1v33.1
		c0,4.6-2.9,8.6-7.5,9.4c-4,0.6-8.1,0.2-12.1,0.1c-1.5-0.1-3.1-0.5-4.4-1.3c-2.7-1.7-4.3-4.4-4.2-7.7V262.2z M409.8,262.4v-14.8
		c0-2.3-0.6-2.7-2.7-2.7c-1.6,0-3.2,0.1-4.8,0c-2.6-0.1-3.2,0.5-3.2,3.2v28.2c0,0.7,0.2,1.5,0.5,2.3c0.1,0.2,0.5,0.6,0.7,0.6
		c2.3,0.2,4.5,0.5,6.6,0.2c2.5-0.3,3-0.2,3-3L409.8,262.4L409.8,262.4L409.8,262.4z M258,368.9c0-5.5,0.1-11.1,0-16.6
		c-0.1-4.5,2.1-7.3,6.1-9.1c0.5-0.2,0.9-0.2,1.4-0.2h11.9c4.7-0.1,6.8,2.5,8.2,6c0.5,1.1,0.6,2.4,0.6,3.5c0.1,10.8,0,21.6,0.1,32.5
		c0,2.7-1,5.1-2.7,6.9c-1.6,1.8-4.1,2.7-6.5,2.8c-3,0.2-6,0.1-9,0c-4.1-0.2-7.5-1.7-9.2-5.6c-0.4-0.9-0.6-2-0.6-3L258,368.9
		L258,368.9z M277.3,368.9v-14.6c0-2.3-0.6-2.7-2.7-2.7c-1.6,0-3.2,0.1-4.8,0c-2.6-0.1-3.2,0.5-3.2,3.2V383c0,0.7,0.2,1.5,0.5,2.3
		c0.1,0.2,0.5,0.5,0.6,0.6c2.4,0.2,4.7,0.4,7.1,0.3c2.1-0.1,2.6-0.8,2.6-2.9L277.3,368.9L277.3,368.9L277.3,368.9z M313.1,287.4
		h-8.8v-38.3c0-0.6,0-1.5-0.4-2.1c-0.3-0.5-1-1.1-1.5-1.1c-2.3-0.2-4.5-0.1-6.9-0.1v41.6h-8.7v-49.9c0.4,0,0.8-0.1,1.2-0.1
		c5.4,0,10.7,0.3,16.1-0.1c5.2-0.3,9,5.3,9,9.1c-0.1,13.1,0,26.2,0,39.3C313.1,286.2,313.1,286.6,313.1,287.4L313.1,287.4z
		 M435.9,287.4h-8.7v-50h2.6c5,0,10,0.2,14.9-0.1c5-0.3,8.7,5.2,8.7,8.9v41.2h-8.8v-38.3c0-2.7-0.5-3.2-3.1-3.2h-5.6L435.9,287.4
		L435.9,287.4z M222.5,287.4c-5.6,0-11.2,0.1-16.7,0c-4-0.1-7.1-2-8.9-5.7c-0.4-0.7-0.6-1.6-0.6-2.5v-41.8h8.6
		c0,0.2,0.1,0.4,0.1,0.6c0,5.8,0.1,11.7,0,17.6c-0.1,6.5-0.2,13.1-0.3,19.6v0.2c0,2.7,0.4,3.2,3,3.4c2,0.2,4,0,6.1,0v-41.2h8.7
		L222.5,287.4L222.5,287.4z M294.6,343.9h8.7c0,0.5,0.1,0.8,0.1,1.3c0,5.2,0.1,10.4,0,15.6l-0.3,21.3v1.2c0.2,1.9,1.7,1.9,3,2
		c2,0.2,4,0,6.1,0V344h8.7v50h-15.3c-3.1,0.1-6-0.6-8.3-2.7c-1.5-1.5-2.7-3.2-2.7-5.3C294.5,372,294.6,358,294.6,343.9L294.6,343.9z
		 M251.6,209.4h8.6v77.9h-8.6V209.4z M374,222.2v14.9h8.5v8.6H374v1.7c0,11.3,0.1,22.6,0,33.8c0,2.4,0.6,4.3,2.8,5.5
		c0.5,0.2,1,0.3,1.5,0.5v0.4c-3.4-0.3-6.8-0.5-10.2-0.9c-1.4-0.2-2.8-2.8-2.8-4.8v-36.1h-8.4v-8.6h8.3v-8.9
		C368.4,226.9,372.2,226.4,374,222.2L374,222.2z M346.1,343.9h8.5v8.5h-8.5v1.5c0,11.4,0.1,22.7,0,34c0,2.4,0.6,4.3,2.8,5.5
		c0.5,0.2,1,0.3,1.5,0.5v0.4c-3.4-0.3-6.8-0.5-10.2-0.9c-1.4-0.2-2.7-2.8-2.7-4.8v-36.1h-8.4v-8.6h8.3V335c3.2-1.5,7-1.9,8.9-5.7
		C346.1,334.2,346.1,339.1,346.1,343.9L346.1,343.9z M231.1,237.3h12.7v7.6c-0.5-0.4-0.9-1-1.5-1.1c-1.7-0.2-2.6,0-2.6,2.5v41.1
		h-8.6V237.3z M277.5,287.4H269v-49.9h8.6V287.4z M268.9,209.5h8.6v8.6h-8.6V209.5z"/>
	<path d="M167.1,244v-25.7c3.3,0,6.5-0.2,9.8,0.1c1.7,0.1,1.5,1.9,1.5,3c0.1,4.5,0,9.1,0,13.6v6.5c0,1.8-0.6,2.6-2.5,2.6H167.1z
		 M167.2,278.6v-25.7h10.1c0.3,0,0.6,0.3,0.8,0.6c0.2,0.6,0.5,1.5,0.5,2.2v19.6c0,2.5-0.8,3.4-3.5,3.4L167.2,278.6L167.2,278.6z
		 M229.9,350.7v-25.7c3,0,6-0.2,8.9,0.1c1.7,0.2,1.5,1.9,1.5,3c0.1,4.5,0,9.1,0,13.6v6.5c0,1.8-0.6,2.6-2.5,2.6
		C235.2,350.8,232.6,350.7,229.9,350.7z M330.3,255.3v-7.5c0-1.6,0.5-2.2,2.2-2.2c1.9,0,3.8,0.1,5.6,0c2.3-0.1,2.5,0.6,2.5,2.4
		c0.2,5.2,0.1,10.4,0.1,15.6c0,1.5-1.3,1.9-2.3,1.9c-2.1,0.2-4.3-0.2-6.4-0.1c-1.9,0-1.9-1.4-1.9-2.5
		C330.2,260.4,330.3,257.9,330.3,255.3L330.3,255.3z M382,364.7h-10.4c-0.1-0.1-0.2-0.1-0.2-0.2c-0.2-3.3-0.3-6.5-0.3-9.8
		c0-2.5,0.5-3.2,3.1-3.1c1.7,0.1,3.5,0,5.2,0c1.9,0,2.6,0.6,2.6,2.6L382,364.7L382,364.7z M409.8,262.4v13.9c0,2.9-0.5,2.7-3,3
		c-2.2,0.2-4.4-0.1-6.6-0.2c-0.3,0-0.6-0.3-0.7-0.6c-0.2-0.7-0.5-1.5-0.5-2.3v-28.2c0-2.7,0.6-3.4,3.2-3.2c1.6,0.1,3.2,0,4.8,0
		c2.2,0,2.7,0.6,2.7,2.7L409.8,262.4L409.8,262.4L409.8,262.4z M277.3,368.9v14.2c0,2.1-0.6,2.8-2.6,2.9c-2.4,0.1-4.7-0.2-7.1-0.3
		c-0.2,0-0.6-0.3-0.6-0.6c-0.2-0.7-0.5-1.5-0.5-2.3v-28.2c0-2.7,0.6-3.4,3.2-3.2c1.6,0.1,3.2,0,4.8,0c2.2,0,2.7,0.6,2.7,2.7
		L277.3,368.9L277.3,368.9L277.3,368.9z"/>
</g>
</svg>
