<svg xmlns="http://www.w3.org/2000/svg" viewBox="0 0 612 612">
    <path class="color-yellow" fill="#f9ed17" d="M300.8 17.2c156.5-3 281.1 117.4 291.3 265.4C603.3 445.1 477.8 582.4 317 588 160 593.4 27.5 469.5 22.3 312.5 16.9 153.7 140.5 22.7 300.8 17.2zm5.5 7.3C154.7 23.9 28.8 146.1 26.6 300c-2.2 155.9 122.5 281.7 275.6 283.7 158.1 2.1 283.3-125.9 283.4-278.7.2-155-124.2-280.2-279.3-280.5z"/>
    <path fill="#373535" d="M306.3 24.5C461.4 24.8 585.8 150 585.6 305c-.2 152.7-125.3 280.7-283.4 278.7C149.1 581.6 24.4 455.9 26.6 300 28.8 146.1 154.7 23.9 306.3 24.5zm-76.9 446c-9.4 18.8-24.7 29.7-44.5 34.8-3.4.9-7.2 1-10.6.4-13.7-2.3-27.1-15.9-29.3-29.8-.3-2 .4-4.6 1.7-6.1 1.7-2.2 4.3-4.3 1.5-6.5-1.4-1.1-5.1-.7-7.1.3-9.4 4.9-14.5 17.3-9.7 26.7 3.7 7.2 8.7 14.4 14.9 19.5 15.2 12.7 33.6 15.2 52.5 11.2 21.9-4.6 39.8-15.2 49.1-36.9.5-1.2 1.9-2 2.9-3 1 1.6 2.6 3.2 2.9 4.9 5.3 30.2 22.4 51.2 50.3 63.1 23 9.8 47.3 10.8 71.9 7.4 37.3-5.2 71.7-41.2 74.2-78.7.7-10.4-.6-21-.9-30.9 14.2-7.8 29.3-14.8 43.1-23.9 18.9-12.5 31.6-30.3 36.8-52.6.7-3-1.1-6.6-1.8-10-2.6 2.2-5.8 3.9-7.7 6.6-3.6 5.3-6 11.4-9.7 16.6-16.9 23.5-41.7 34.6-68.3 43.7-6-12.5-14.1-23.1-25.3-31-6.3-4.4-13.5-7.6-19.9-11.9-3.8-2.6-7.7-5.8-10-9.6-3.7-6-1.2-10.1 5.6-11.3 1.3-.2 2.8 0 3.9-.7 1.5-.9 3.5-2.3 3.6-3.6.2-1.5-1.2-4.1-2.5-4.6-2.7-1-6.2-1.9-8.7-1-6.5 2.3-13.2 4.9-18.8 8.7-3.4 2.3-6.9 7.2-6.9 10.9.1 7-3.9 9.3-8.6 12.1-2.6 1.5-5.4 3-7.4 5.2-3.1 3.4-6.1 7.1-8.2 11.2-2 4-.2 7.8 3.4 10.4 3.5 2.6 6.5.6 9.2-1.6 4.2-3.5 8.2-7.4 12.4-10.8 3.5-2.8 7.4-4.4 12.1-2.7 12.3 4.5 24.4 9.5 34 18.7 5.2 5 9.6 10.8 14.9 16.9-49.8 15.3-99.3 18.4-150.2 19.1 1.5-36.9 2.5-72.8 4.6-108.7.8-14.2 9.5-22.8 22.4-24.9 5.7-.9 11.7-1.3 17.5-.9 18.1 1.2 35.8-.6 53.6-3.9 37.2-7 52.8-34.5 57.2-58.3 2.8-15.6 6.7-31 10.4-46.4 1.2-5.2 3.3-10.2 5.2-15.9 26.4 8.3 51.6 17.3 74.7 31.1 5.5 3.3 9.9 8.7 14.3 13.6 3.4 3.8 4.8 8.4 2.7 13.7-.6 1.6.4 3.8.6 5.7 1.8-.6 4-.7 5.4-1.8 9.3-7.4 12.1-18.5 7.7-29.5-4.2-10.4-11.4-18.6-20-25.3 7.6-15.6 5.2-23.4-9.5-31.5-.7.5-1.5 1-2.1 1.7-8.1 10.2-18.9 11.8-30.7 9.4-11.8-2.4-23.5-5.3-35.4-7.7-4.8-1-7.9-3.6-9.5-7.9-3.3-8.6-6.6-17.3-9.2-26.1-5-17.3-10.3-34.4-20.5-49.5-7.7-11.5-17-21.2-29.9-27.1C361.6 51 338.1 49.1 314 51.4c-13.8 1.3-25.3 7.5-34 17.5-10 11.5-18.5 24.2-27.7 36.5-1.1 1.5-1.6 3.5-2.9 4.8-1.7 1.6-4.2 4.1-5.7 3.7-2-.5-3.7-3.3-4.8-5.4-1.8-3.3-2.3-7.4-4.6-10.1-7.6-9-17.2-15.1-29.2-16.9-12.9-2-25.3-.3-37.5 3.6-12.8 4.1-24.6 20.8-24 34.2.1 2.9 2.8 5.6 4.4 8.4 2.1-1.9 4.3-3.6 6.2-5.7.9-.9 1.1-2.4 1.7-3.5 7.4-14.7 30.9-22.5 44.8-13.7 19.9 12.6 29.5 31.8 26.2 55.6-.8.2-1.7.4-2.6.5-20.2 3.1-40.4 5.8-60.4 9.5-13.1 2.4-26.8 3.9-38.2 11.7C98.2 201 76.4 224.7 64 256.4c-6.7 17.3-10.4 36.1-23.5 50.4-2.3 2.5-1.1 4.4 1.4 6.6 3.6 3.2 7 6.8 9.7 10.7 7.1 10.5 9.6 22.9 12.7 34.9 5.4 20.8 13.2 40.4 31.3 53.8 27.3 20.2 56.4 37.5 89.3 47 14.1 4.3 29 7.1 44.5 10.7z"/>
    <path class="color-yellow" fill="#fcef13" d="M229.4 470.5c-15.5-3.6-30.3-6.4-44.8-10.6-32.9-9.5-61.9-26.8-89.3-47-18.1-13.4-25.8-33-31.3-53.8-3.2-12.1-5.6-24.4-12.7-34.9-2.7-4-6.1-7.5-9.7-10.7-2.5-2.2-3.6-4.1-1.4-6.6 13.2-14.3 16.8-33.1 23.5-50.4 12.3-31.7 34.2-55.4 61.7-74.3 11.4-7.8 25.1-9.3 38.2-11.7 20.1-3.7 40.3-6.4 60.4-9.5.9-.1 1.8-.4 2.6-.5 3.4-23.8-6.3-43-26.2-55.6-13.9-8.8-37.4-1-44.8 13.7-.6 1.2-.9 2.6-1.7 3.5-1.9 2-4.1 3.8-6.2 5.7-1.5-2.8-4.2-5.5-4.4-8.4-.6-13.4 11.3-30.1 24-34.2 12.2-3.9 24.6-5.6 37.5-3.6 12.1 1.8 21.6 7.9 29.2 16.9 2.3 2.7 2.8 6.9 4.6 10.1 1.2 2.1 2.9 4.9 4.8 5.4 1.5.4 4-2.1 5.7-3.7 1.3-1.3 1.8-3.3 2.9-4.8 9.1-12.2 17.7-25 27.7-36.5 8.7-10 20.2-16.2 34-17.5 24.1-2.2 47.6-.3 69.9 9.9 12.9 5.9 22.1 15.6 29.9 27.1 10.2 15.1 15.6 32.2 20.5 49.5 2.6 8.9 5.9 17.5 9.2 26.1 1.6 4.3 4.8 6.9 9.5 7.9 11.8 2.4 23.5 5.3 35.4 7.7s22.6.8 30.7-9.4c.6-.7 1.4-1.2 2.1-1.7 14.7 8.1 17.1 15.9 9.5 31.5 8.6 6.8 15.8 14.9 20 25.3 4.4 11 1.6 22.2-7.7 29.5-1.4 1.1-3.6 1.3-5.4 1.8-.2-1.9-1.2-4.1-.6-5.7 2.1-5.3.7-9.9-2.7-13.7-4.4-4.9-8.8-10.3-14.3-13.6-23.1-13.8-48.3-22.8-74.7-31.1-1.9 5.7-3.9 10.7-5.2 15.9-3.7 15.4-7.6 30.8-10.4 46.4-4.3 23.9-20 51.3-57.2 58.3-17.7 3.3-35.5 5.1-53.6 3.9-5.8-.4-11.8 0-17.5.9-12.9 2.1-21.6 10.7-22.4 24.9-2.1 35.9-3.1 71.8-4.6 108.7 50.8-.7 100.4-3.7 150.2-19.1-5.4-6.1-9.7-12-14.9-16.9-9.6-9.2-21.7-14.2-34-18.7-4.7-1.7-8.6-.1-12.1 2.7-4.3 3.4-8.2 7.3-12.4 10.8-2.7 2.2-5.7 4.2-9.2 1.6-3.6-2.6-5.4-6.4-3.4-10.4 2.1-4.1 5.1-7.8 8.2-11.2 2-2.2 4.8-3.6 7.4-5.2 4.7-2.8 8.7-5.1 8.6-12.1-.1-3.7 3.5-8.6 6.9-10.9 5.6-3.9 12.3-6.4 18.8-8.7 2.5-.9 6 0 8.7 1 1.3.5 2.6 3.1 2.5 4.6-.2 1.3-2.2 2.7-3.6 3.6-1 .6-2.6.4-3.9.7-6.8 1.2-9.3 5.3-5.6 11.3 2.3 3.8 6.2 7 10 9.6 6.4 4.3 13.6 7.5 19.9 11.9 11.2 7.8 19.4 18.4 25.3 31 26.5-9.1 51.4-20.2 68.3-43.7 3.7-5.2 6.1-11.3 9.7-16.6 1.8-2.7 5.1-4.4 7.7-6.6.7 3.3 2.5 7 1.8 10-5.3 22.3-17.9 40.1-36.8 52.6-13.8 9.1-29 16.2-43.1 23.9.3 9.9 1.6 20.5.9 30.9-2.6 37.6-37 73.5-74.2 78.7-24.6 3.4-48.8 2.5-71.9-7.4-27.9-11.9-45-32.9-50.3-63.1-.3-1.8-1.9-3.3-2.9-4.9-1 1-2.4 1.8-2.9 3-9.3 21.7-27.2 32.3-49.1 36.9-18.9 4-37.3 1.5-52.5-11.2-6.2-5.1-11.2-12.3-14.9-19.5-4.8-9.3.3-21.8 9.7-26.7 2-1 5.7-1.5 7.1-.3 2.8 2.2.2 4.3-1.5 6.5-1.2 1.5-2 4.2-1.7 6.1 2.2 13.9 15.5 27.5 29.3 29.8 3.4.6 7.3.5 10.6-.4 19.9-5 35.2-15.9 44.6-34.7zm156-390c-.1-.2-.2-.4-.4-.7 0 .1-.1.3 0 .3.1.1.3.2.5.2 1.9 3.4 3.4 7.2 5.9 10.2 7.1 8.9 10.3 19.2 12 30.1.8 5.4 1.9 10.8 2.2 16.3 1 16.2 3.5 32.8-9.8 45.8 10.3 17.1 11 19.4 11.1 38.2 0 4.2.1 8.3-.1 12.5-.8 16.1 0 32.4-6.9 47.9 1.6-.6 3.2-1.3 4-2.5 4.5-7.5 10.6-14.7 12.9-22.9 4.1-14.5 6.5-29.5 8.2-44.4 1.3-11.4 4.9-20.8 13.5-28.3 1.1-1 2.7-1.4 4.1-2.1-2.7-3-4-4.5-5.4-6.1-7-7.7-10.9-16.7-13.5-26.9-4.4-17.1-10.2-33.9-16.7-50.3-3.7-9.1-11.7-14.9-21.6-17.3zM232.5 445.1c.4-1.1.6-1.4.6-1.8-.4-32.2 0-64.4-1.4-96.5-.6-13.4-5.6-26.3-18.3-34.1-4.2-2.5-2.5-5.3.2-7.7 11.4-10.3 15.2-23.3 14.9-38.3-.5-28-.6-56-.9-84 0-1.2-.3-2.5-.5-4.4-9.9 1.5-19.4 2.6-28.9 4.3-29.4 5.5-55.1 18-76.1 39.7-14.2 14.7-16.6 32.5-14.4 51.6 1.2 10.8 8.5 18.3 15.6 25.7 4.7 4.9 4.5 6-.3 10.6-3.2 3.1-7 6.3-8.7 10.3-10.4 23.9-10 47 7.3 68.1 14.6 17.7 33 30.4 53.3 40.6 18.1 9.1 37.3 14.2 57.6 15.9zm39.8-269.3c-.2 1.9-.4 2.8-.4 3.7 1.1 23.6 1.8 47.3 3.6 70.8 1.6 20.6 13.3 34 32.9 40.3 17.1 5.5 34.4 4 51.5-.2 15.5-3.8 27.7-11.9 29.5-28.8 1.6-15.1 1.5-30.5.8-45.8-.4-10.8-3.2-21.2-12.3-28.9-1.8-1.5-1.5-5.6-2.3-9.3-33.6-.6-68.4-1.2-103.3-1.8zm3.3 294.1c-2.7 35.1 37.1 67.8 81.2 69 30.9.9 73.3-35.1 72-84.9-49.9 15.7-101.7 11.9-153.2 15.9zM390.7 159c5.5-20.1 1.7-39.5-7.5-57.9-10-20-25.9-30-48.9-28.8-24.9 1.3-43.4 11.8-55.1 34.4-8.4 16.1-6.1 33.4-7.3 49.5 39.8 1 79 1.9 118.8 2.8zM229.2 308.6c11.6 9.2 13.8 22.5 14.4 36.1.8 19.1.9 38.2 1 57.3 0 3.8-1.5 7.6-1.7 11.5-.2 3.5.2 7 .6 10.5.4 3.5 1.8 6.9 1.7 10.3-.2 8.7-1 17.4-1.6 26.1.7.2 1.4.3 2.1.5 2.8-9.6 5.5-19.2 8.7-30.3 1.5 1.6 3.5 2.7 3.9 4.3 2.3 10.1 4.1 20.2 6.1 30.4 1.3-6.3 1.5-12.5 2-18.7.7-8.7-1.5-17.6 2-26.3 1-2.5-.8-6.1-1.4-9.2-.4-1.6-1.6-3.2-1.6-4.7.2-20.8-.4-41.6 1.3-62.3 1.3-17.1 7.6-32.5 25-40.3.3-.1.4-.6.7-1.1-.6-.4-1.2-.8-1.8-1.1-16.9-8.1-26-22.2-27.6-40.1-1.8-20.5-1.8-41.2-2.1-61.8-.1-4.9 1.8-9.7 2.7-14.6.4-2.5.6-5 .9-7.1h-27.7c1.5 4.2 2.6 7.1 3.6 10.1.7 2.1 1.9 4.2 1.9 6.3.1 20.2.5 40.5-.1 60.7-.8 18.2 1.5 37.5-13 53.5zm19.7-149.9c-2.6-15.4-7.9-31.6-14.8-32.4 2.1 10.9 4.3 21.8 6.5 33.1 2.7-.2 5.3-.4 8.3-.7zm12.1-.3v-35c-.3-.1-.6-.2-1-.2-2.9 11.6-5.9 23.3-9 35.7 4.1-.2 6.5-.3 10-.5z"/>
    <path fill="#373535" d="M232.5 445.1c-20.3-1.7-39.5-6.8-57.6-15.9-20.3-10.2-38.7-22.9-53.3-40.6-17.3-21.1-17.7-44.1-7.3-68.1 1.7-3.9 5.5-7.2 8.7-10.3 4.8-4.6 5-5.7.3-10.6-7.1-7.4-14.3-15-15.6-25.7-2.2-19.1.2-36.9 14.4-51.6 21-21.7 46.7-34.2 76.1-39.7 9.4-1.8 19-2.9 28.9-4.3.2 1.9.5 3.2.5 4.4.3 28 .3 56 .9 84 .3 15-3.5 28-14.9 38.3-2.7 2.4-4.3 5.2-.2 7.7 12.7 7.8 17.8 20.6 18.3 34.1 1.4 32.1 1.1 64.3 1.4 96.5 0 .4-.2.8-.6 1.8zm39.8-269.3c34.9.6 69.6 1.3 103.4 1.9.9 3.7.5 7.7 2.3 9.3 9 7.7 11.8 18.1 12.3 28.9.6 15.2.7 30.7-.8 45.8-1.8 16.9-14 25.1-29.5 28.8-17.1 4.2-34.3 5.7-51.5.2-19.7-6.3-31.3-19.8-32.9-40.3-1.9-23.6-2.5-47.2-3.6-70.8-.1-1 .1-1.9.3-3.8zm3.3 294.1c51.5-3.9 103.3-.1 153.2-15.9 1.3 49.8-41.1 85.8-72 84.9-44.1-1.2-83.8-33.9-81.2-69zM390.7 159c-39.8-.9-79-1.8-118.8-2.8 1.2-16.1-1-33.3 7.3-49.5 11.7-22.5 30.2-33 55.1-34.4 22.9-1.2 38.9 8.8 48.9 28.8 9.2 18.5 13 37.8 7.5 57.9z"/>
    <path fill="#fefefd" d="M229.2 308.6c14.5-15.9 12.2-35.3 12.8-53.7.6-20.2.2-40.5.1-60.7 0-2.1-1.2-4.2-1.9-6.3-1-2.9-2.1-5.8-3.6-10.1h27.7c-.3 2.1-.4 4.6-.9 7.1-.9 4.9-2.7 9.8-2.7 14.6.3 20.6.3 41.3 2.1 61.8 1.6 18 10.7 32.1 27.6 40.1.6.3 1.2.8 1.8 1.1-.3.5-.4 1-.7 1.1-17.4 7.8-23.6 23.3-25 40.3-1.6 20.7-1 41.5-1.3 62.3 0 1.6 1.2 3.1 1.6 4.7.7 3.1 2.4 6.7 1.4 9.2-3.4 8.7-1.2 17.6-2 26.3-.5 6.2-.7 12.4-2 18.7-2-10.1-3.9-20.3-6.1-30.4-.4-1.6-2.4-2.7-3.9-4.3-3.2 11.1-5.9 20.7-8.7 30.3-.7-.2-1.4-.3-2.1-.5.6-8.7 1.4-17.4 1.6-26.1.1-3.4-1.3-6.8-1.7-10.3s-.8-7-.6-10.5c.2-3.9 1.7-7.7 1.7-11.5-.1-19.1-.3-38.2-1-57.3-.4-13.4-2.6-26.7-14.2-35.9zM385.4 80.5c9.9 2.4 18 8.2 21.6 17.4 6.5 16.4 12.3 33.2 16.7 50.3 2.7 10.2 6.5 19.2 13.5 26.9 1.4 1.5 2.8 3.1 5.4 6.1-1.4.7-3 1.2-4.1 2.1-8.6 7.4-12.2 16.9-13.5 28.3-1.7 14.9-4.2 30-8.2 44.4-2.3 8.2-8.4 15.4-12.9 22.9-.7 1.2-2.3 1.9-4 2.5 6.9-15.5 6.1-31.8 6.9-47.9.2-4.2.1-8.3.1-12.5-.1-18.8-.8-21.1-11.1-38.2 13.3-13 10.7-29.6 9.8-45.8-.3-5.5-1.4-10.9-2.2-16.3-1.7-11-4.9-21.3-12-30.1-2.4-3-3.9-6.8-6-10.1zm-136.5 78.2c-3.1.3-5.6.5-8.3.7-2.2-11.3-4.4-22.2-6.5-33.1 6.9.8 12.2 17 14.8 32.4zm12.1-.3c-3.5.2-5.9.3-10 .5 3.1-12.4 6.1-24 9-35.7.3.1.6.2 1 .2v35z"/>
    <path fill="#fefefd" d="M385.5 80.4c-.2-.1-.3-.1-.5-.2-.1 0 0-.2 0-.3.1.2.2.4.4.7 0-.1.1-.2.1-.2z"/>
</svg>
