<?xml version="1.0" encoding="utf-8"?>
<!-- Generator: Adobe Illustrator 24.1.0, SVG Export Plug-In . SVG Version: 6.00 Build 0)  -->
<svg version="1.1" id="Layer_1" xmlns="http://www.w3.org/2000/svg" xmlns:xlink="http://www.w3.org/1999/xlink" x="0px" y="0px"
	 viewBox="0 0 612 612" style="enable-background:new 0 0 612 612;" xml:space="preserve">
<style type="text/css">
	.st0{fill:#FBFBFA;}
	.st1{fill:#24180D;}
	.st2{fill:#EE1116;}
</style>
<g>
	<path class="st0" d="M1,1h610v610H1V1z M590.6,338c8.9-120.2-32.5-193.3-98.9-250S347.5,11,261.2,23.6
		C133,42.2,24.4,155,20.8,298.2c-4.2,166.2,130.3,293.1,285,293.4C470.4,592,577.2,461.5,590,343L590.6,338z"/>
	<path class="st1" d="M590,343c-13.2,118.3-119.7,249-284.3,248.7c-154.6-0.3-289.1-127.3-285-293.4C24.4,155,133,42.2,261.2,23.5
		c86.3-12.6,164.1,7.7,230.5,64.4S599,213,590,343z M308.7,28.9C169.6,26.8,33.2,137.5,29.6,302c-3,141.2,107.3,274.5,266.8,280.9
		c148.1,5.9,278.5-109,286.1-263.3C590.4,163,466.2,30.7,308.7,28.9L308.7,28.9z"/>
	<path class="st2" d="M308.7,28.9C466.3,30.8,590.4,163,582.6,319.6c-7.7,154.2-138,269.1-286.1,263.3
		C136.9,576.5,26.6,443.2,29.6,302C33.2,137.5,169.6,26.8,308.7,28.9z M306.7,38.5c-31.2-0.4-61.3,5.1-90.7,15.3
		c-26.3,9.1-50.2,22.8-72.3,39.7c-38,29.1-66.2,65.7-84.6,109.7c-17.3,41.4-23.4,84.8-19,129.5c2.5,25.2,8.1,49.7,17.6,73.2
		c15.7,38.6,39.1,72,70.1,99.8c21.2,19,44.8,34.3,70.8,45.8c30,13.3,61.6,20,94.3,21.9c2.9,0.2,5.8,1.4,8.7,2
		c2.1,0.4,4.3,0.9,6.4,0.6c3.9-0.6,7.7-2,11.6-2.5c7.1-0.8,14.2-0.8,21.2-1.8c44.4-6.3,85-21.6,121.5-48.3
		c44.9-32.9,77.2-75.1,95.8-127.4c18.8-52.8,20.7-106.7,5.9-160.6c-18.9-68.6-59.6-121.3-120.1-158.7
		C401.9,50.6,355.8,39.1,306.7,38.5L306.7,38.5z"/>
	<path class="st1" d="M306.7,38.5c49.1,0.6,95.2,12.1,137.3,38.1c60.6,37.4,101.2,90,120.1,158.7c14.8,53.9,12.9,107.8-5.9,160.6
		c-18.6,52.4-50.9,94.5-95.8,127.4c-36.4,26.7-77,42.1-121.4,48.3c-7,1-14.2,1-21.2,1.8c-3.9,0.5-7.7,1.9-11.6,2.5
		c-2.1,0.3-4.3-0.2-6.4-0.6c-2.9-0.6-5.8-1.8-8.7-2c-32.7-1.9-64.3-8.5-94.3-21.9c-26-11.5-49.6-26.8-70.8-45.8
		c-31-27.8-54.4-61.2-70.1-99.8c-9.6-23.5-15.1-48-17.6-73.2c-4.4-44.7,1.6-88.1,19-129.5c18.4-44,46.6-80.6,84.6-109.7
		c22.1-16.9,46-30.6,72.3-39.7C245.4,43.6,275.6,38.1,306.7,38.5L306.7,38.5z M41.8,305.8c0.3,146.8,119,267.2,269,264.9
		c142.8-2.2,261-119,259.7-267.2C569.3,159.9,453.4,42,306.7,41.6C160.5,41.1,42.6,158.9,41.8,305.8L41.8,305.8z"/>
	<path class="st0" d="M41.8,305.8C42.6,158.9,160.5,41.2,306.7,41.5c146.7,0.4,262.5,118.3,263.8,261.9
		c1.3,148.3-116.9,265.1-259.7,267.2C160.8,572.9,42.2,452.5,41.8,305.8L41.8,305.8z M313.7,566.4c64.9-0.6,127.2-26.2,178.1-77.7
		c49.1-49.7,73.4-110.4,74.5-180.1c2.3-142.8-114.3-261.7-257.4-263C165,44.3,46.5,160.7,46.1,305.2
		C45.7,450.2,163.3,567,313.7,566.4L313.7,566.4z"/>
	<path class="st1" d="M313.7,566.4C163.3,567,45.7,450.2,46.1,305.2C46.5,160.7,165,44.3,308.8,45.6
		c143.2,1.3,259.7,120.2,257.4,263c-1.1,69.7-25.4,130.4-74.5,180.1C440.8,540.2,378.5,565.7,313.7,566.4z M398.8,502.6
		c-0.7-1-1.4-1.9-2.1-2.9c-1-2.2-1.6-4.7-3-6.5c-3.2-4.1-2.5-6.9,2-9.2c1.6-0.8,3.2-1.6,4.7-2.5c5.6-3.6,8.6-1.8,11,4.1
		c1.1,2.7,4.3,4.5,6.5,6.7c0.7-0.4,1.4-0.9,2.1-1.3c-0.5-2.6-0.5-5.5-1.7-7.7c-4.7-8.6-4.9-8.5,3.7-13.9c0.7-0.4,1.5-0.8,2.1-1.3
		c3.9-3.4,6.7-1.9,8.8,2c2.4,4.6,4.5,9.3,7.1,14.7c48.6-37.6,77.7-86.5,87.3-147.5c-1.6-0.3-2.6-0.6-3.5-0.6
		c-6.5,0.5-13,1.1-11.5-8.9c0.1-0.8-1.2-1.8-1.2-2.7c-0.1-4.2-0.2-8.3,0.1-12.5c0.2-4.1,1.2-8.2,1.1-12.3c-0.1-3.3-1.6-6.5-2.2-9.9
		c-0.9-5.4-0.9-11-2.3-16.2c-3-11.3-6.6-22.5-10.1-33.7c-2.1-6.9-3.6-14-8.8-19.6c-2.3-2.5-5.5-5.4-2.2-9.5c0.3-0.4-0.3-1.9-0.8-2.7
		c-1.6-3-3.3-5.8-5-8.8c-4.7,0.9-11.7-4.8-10.1-9.2c2.1-5.6-2.3-7.7-3.8-12c-3.2,3-5.9,4.2-9.1,0.4c-2.9-3.4-5.9-6.2-1.5-10.2
		c-6.8-9.1-6.7-9.6,1.8-16.2c1.6-1.3,3.1-2.8,5.3-4.8c-10.9-0.1-11.8,0.6-13.2,9.2c-0.5,2.9-1.3,5.7-2.1,9.1
		c-4.9-2.4-11.1-4.2-10-9.2c1.3-5.6-2.3-7.9-3.6-12c-6.1,8-9.7,7.5-15.6-1.6c1.1-1.6,2.2-3.2,3.3-4.7c-3-3.1-5.5-4.2-10.2-2.9
		c-10,2.9-24.5-2.4-27.2-16.9c-1.2-6.4-2.2-12.8-3.4-19.6c-2.1,8-4.1,15.5-6,22.9c-7.1-0.1-11.8-1.8-13.8-9c-1.7-6.1-5-11.7-8.2-19
		c-1.4,6.7-2.6,11.6-3.5,16.5c-0.8,4.3-2.9,5.7-7.2,4.4c-4-1.2-7.8-1.9-5.4-7.5c0.4-1.1,0.3-3.2-0.4-3.7c-4-2.8-2.9-6.1-1.6-9.8
		c0.9-2.6,1.5-5.3,2.4-8.4c-7.5-1.2-14.2-3.7-19.6-0.4c1.5,3.8,3.8,6.9,3.8,10c0,4.8-3.9,9.2-2.7,14.5c0.1,0.4-2.6,2.2-3.8,2
		c-4.4-0.8-8.6-2.1-14-3.5c-0.4,0.3-1.8,1.7-3.5,2.8c-7.5,5.2-17.2,1.9-18.7-6.4c-1.2-6.4-2.2-12.8-3.3-19.6c-6.1,1.1-12,2.1-18,3.2
		c6.2,4.8,8.8,9.4,6.5,14.7c-1.5,3.6-3.4,6.7-2.3,10.8c0.2,0.9-1.4,3-2.5,3.3c-8.1,2.5-16.3,4.8-24.7,7.2c-1.4-3.2-2.6-5.9-3.8-8.9
		c-1.5,1-3.1,2.2-4.7,3.3c3.6,6.7,2.4,9.7-4.5,11.2c-1.9,0.4-4.3-0.6-6.2-1.5c-4-2-7.8-4.3-11.2,1c-0.6,0.9-1.9,1.3-3,2
		c1.2,2.3,2.2,4.2,3.6,7c-3.9,2-7.5,3.9-11.1,5.8c-3.4-5.6-3.4-5.6-6.4-3.2c0.8,2.2,2.8,5.2,2,6.2c-2.6,3.5-5.8,7.4-11,5.5
		c-4-1.4-7.2-2.2-9.4,2.7c-0.6,1.3-2.4,2-3,2.4c0.6,3,2.3,6.7,1.2,7.8c-3,3.3-6,8.4-12.5,4.1c4.4,5.1,1.5,8-1.6,11.2
		c-3.2,3.4-6.4,6.9-9.1,10.7c-2.9,4.1-5.9,7.1-11.1,3.7c-3.5-4-7.1-8-10.6-12c0.2,6,0.2,6,10.7,12c-0.2,1.8-0.1,3.7-0.7,5.3
		c-1.2,3.2-4,5.4-2.3,10.1c1.6,4.1-4.7,9.8-9.3,9.9c-1.8,7-2.8,14.5-5.7,21.1c-7.4,17.3-11.6,35.3-13.9,53.8
		c-0.1,0.8-0.2,1.7,0.1,2.4c5.3,10.3,0.7,20.1-1.3,30.1c-1.2,6-4.8,9.9-10,13c-1.5,0.9-3,3.7-2.7,5.4c8.8,47.3,30.6,87.8,65.3,121.2
		c6.1,5.8,12.7,11,19.6,16.8c2.3-4.4,4.1-7.5,5.7-10.8c4.7-9.9,5-10.1,15-6c-1.6-2.3-3.4-4.5-5.6-6.2c-18.5-15-33.9-32.7-45.9-53.2
		c-21.1-36.1-28.8-75-24.6-116.6c3.6-36,16.5-68.3,38.8-96.4c31.5-39.7,72.2-64.1,122.8-71.2c2.1-0.3,4.1-2.5,6-4
		c0.9-0.7,1.5-2.2,2.4-2.5c8.3-2.9,15.9,1.6,23.8,2.6c0.3,0,0.5,0.6,0.9,0.8c1.3,0.5,2.5,1.1,3.8,1.4c14.2,2.3,28.8,3,42.5,7
		c59.4,17.6,101.1,55.7,124.5,113c17.5,42.8,17.7,86.9,3.4,130.7c-11.6,35.9-33.1,65.3-62.6,88.7c-15.6,12.4-32.5,22.8-51.9,28.5
		c-10.8,3.2-21.5,6.9-33.9,11c7.6-0.3,6.8,4.2,7.4,8.3c0.7,5.1,1.9,10,2.9,15.1l3.3-0.6c-0.8-5.9-2-11.7-2.2-17.6
		c-0.1-2.2,1.8-6.2,3.3-6.4c4.7-0.8,9.6-0.3,14.5,0c0.3,0,0.5,2.6,0.7,4c0.5,2.6,1,5.3,1.5,7.9c1.1-4.2,1.2-8.3,1.1-12.3
		c-0.1-3.4,0-6.8,4.2-7.6c4.9-0.8,9.8-6.5,14.7,0.2c2.3,3,5.2,5.6,7.8,8.4C397.2,501,398,501.8,398.8,502.6
		c3.6,6.5,8.3,12.1,15.6,14.3c6,1.8,9.8,5.4,11.6,11.3c0.4,1.2,1.4,2.3,2.1,3.3c11.7-4.9,12.4-5.8,8-10.4c-8.3,4.4-11,4.5-12.7-1.3
		c-2-6.7-6.7-9-12.1-11.4C407.1,506.6,403,504.6,398.8,502.6L398.8,502.6z M372,334.2c-1.5,1.2-2.9,2.4-4.6,3.9
		c0.4-5.4,0.9-10.5,1.3-16.4c-3,4.3-5.4,7.6-7.6,10.7c-1.7-5.7-3.2-10.7-4.7-15.6c-0.3-0.6-0.6-1.3-0.8-1.9c-0.2,0-0.4,0.1-0.6,0.1
		c0.1,0.9,0.2,1.7,0.3,2.6c-0.3,3.4-0.5,6.9-0.8,10.3c-0.6,0.1-1.3,0.3-1.9,0.4c-2.2-2.8-5.1-5.3-6.5-8.4c-1.3-3-1.1-6.7-1.6-10.4
		c-1.3,1.3-2.2,2.1-3.7,3.5c0.9-10.9,1.9-20.8,10-28.5c-5.3-0.7-12.3,1.6-11.9-7.4c-4.8,0.3-15.3-10.5-15.6-16
		c-0.6-11.3-1.7-22.7-1.3-34c0.3-7.6-1.3-13.6-8.2-18.1c1.7-0.5,2.7-0.7,3.9-1.1c-1.6-1.4-3-2.7-3.7-3.4c3.2-1.5,6.3-2.2,8-4
		c3.8-3.9,6.9-8.4,10.2-12.8c1.7-2.2,3.8-4.4,4.6-7c0.6-2,0.2-5.3-1.1-6.7c-2-2.1-5-3.5-7.8-4.5c-12-4.1-21.7-2.4-22.9,12.8
		c-0.1,1.3-0.4,2.6-0.6,3.9c-0.4-0.5-0.8-1.1-1.2-1.6c-3.4,1.6-6.7,3.3-10.6,5.2c1.7,1.1,2.6,1.6,3.4,2.2c-0.2,0.5-0.4,0.9-0.6,1.4
		c-1.5-0.6-3.4-0.9-4.5-1.9c-4.4-3.9-8.7-8-12.7-12.3c-1.1-1.2-1.9-3.8-1.4-5.2c1.8-5.1,3.9-10.2,6.6-15c1.2-2.1,3.7-3.9,6.1-4.8
		c6.9-2.6,14.1-4.5,21-7.1c6.6-2.5,10.8-9.8,10.5-16.4c-0.1-1,2.2-3.1,2.6-2.9c3.3,1.3,6.4,3.1,9.6,4.8c1.1,0.6,2,1.6,3.1,1.9
		c14.1,4.3,28.8,6.9,42.2,12.9c81,36.2,119.8,121,102.9,201.7c-2.8,13.5-7.4,26.4-13.9,39c-5.6,10.8-11.1,21.2-18.2,31.1
		c-23.5,32.5-54.7,53.5-92.7,65.1c-8.5,2.6-17.2,4.3-25.7,6.3v6.5c93.7-12.6,164.8-94.7,161.5-191.6
		C489.2,208.6,412.8,131,317,124.8c0.4,1.1,0.8,2.1,0.9,2.4c-3.5,1-6.9,2-9.8,2.9c-3.5-3.7-7.4-7.7-10.7-11.2
		c-3.8,0.7-6.7,1.2-10.1,1.8c-0.4,4.8-3.9,5.5-8.3,5.9c-5.8,0.6-11.6,1.8-17.3,3.2c-90.6,21.9-150.8,106-142.5,198.8
		c7,78.3,62,143.6,137.9,164.3c18.8,5.1,38,5.9,57.3,6.9c4.5,0.2,5.3-2.7,4.9-6.5c-0.5-4.3-1-8.5-1.6-12.8c-0.1-0.4-1-0.7-1.6-1.1
		c4.3,0.3,8.2,1.6,12.2,2.3c2.2,0.4,5,0.4,6.7-0.6c7.4-4.5,14.6-9.3,21.6-14.3c10-7.2,21.5-12.3,29-22.9c1.2-1.7,5.7-1.6,8.7-1.4
		c4.4,0.2,8.8,1.1,13.3,1.7l0.9-2.7c-4.6-2.5-9.2-5.1-13.9-7.7c2.8-0.9,5.5-1.8,9.8-3.2c-3.4-1.4-5.1-2.2-6.9-2.8
		c-4.2-1.4-11.7-0.5-6-8.8c0.4-0.6-1-2.2-1-3.3c0-1,0.8-2,1.4-3.5c1.7,2.7,3,4.7,4.2,6.7c0.4-0.2,0.9-0.4,1.3-0.6
		c-1.3-3.7-2.5-7.3-3.9-11.2c2.3,0.2,4.3,0.3,7,0.5c-3.4-3.2-6.3-5.9-9.4-8.9c2.7-1.6,4.8-2.9,6.5-3.9c-3.2-2.6-6.2-5-9.7-7.9
		c2.2-0.8,3.1-1.1,4.6-1.6c-5-3.9-6.6-7.7-2.3-10.9c-2.3-1.4-6.4-2.5-6.8-4.3c-0.4-2.4,2.1-5.4,3.2-7.9c-1.1-0.1-3.5-0.2-5.8-0.4
		c0.4-7.1,0.8-13.9,1.1-20.7h-1.5c-3,10.2-3,10.2-6,11.3c0.6-2.5,1.1-4.8,1.7-7.3c-2.3-0.5-4.4-0.9-6.2-1.3c0.8-3.7,1.5-6.8,2.1-10
		h0.8c0-0.2-0.1-0.4-0.1-0.5C372.4,333.7,372.2,334,372,334.2L372,334.2z M349.3,532c-7.5-8-7.2-18.3-8.6-28.4
		c-4.4,0.6-8.1,1.2-11.9,1.7c0.6,5.5,1.5,10.4,1.4,15.2s-1.1,9.5-1.8,15.2c-9.8-8.5-9.6-18.8-10.5-28.9c-4.2,0.3-7.9,0.6-12.8,1
		c1.4,7.3,1.5,14,4.1,19.7c3.3,7.3,8.7,13.7,12.8,20.7c2.1,3.6,5.3,4,8.3,2.7c2.1-0.9,3.8-3.4,4.9-5.5c1.4-2.7,1.9-5.9,3.2-9.8
		c1.5,2.4,2.5,3.9,3.3,5.4c0.9,1.6,1.7,3.3,2.6,4.8c2.2,3.5,10.3,4.2,11.8,0.6c3.6-8.6,7.4-17.3,9.2-26.4c1.2-6-0.9-12.7-1.6-19.6
		c-4.9,0.9-8.8,1.6-13.4,2.4C353.7,513.1,354.8,522.6,349.3,532L349.3,532z M194.8,526.3c0.5-5.6,1.2-10.2,1.3-14.9
		c0.1-3.3,1.1-4.8,4.7-5.6c5.7-1.2,9.3-5.4,10.8-11.2s-0.4-10.7-5-13.9c-6.9-4.8-14.3-8.9-21.5-13.4c-8.1,13.4-15.6,26-23.5,39.2
		c3.8,2.3,7.4,4.4,11.3,6.7c1.9-3.7,3.2-7.1,5.2-10.1c0.7-1.1,3.1-1.7,4.4-1.4c0.9,0.2,1.8,2.5,1.8,3.9c-0.1,3.6-0.9,7.1-1,10.7
		c0,1.4,0.7,3.2,1.8,4C188,522.5,191.2,524.1,194.8,526.3z M554.7,312.2c-7.7,0.4-14.6,0.8-21.5,1.1c-0.2-0.5-0.4-1-0.7-1.6
		c5.5-4.2,10.7-8.9,16.7-12.3c6.6-3.8,6.8-8.8,5.2-14.8h-41.9c0.3,4.1,0.5,7.8,0.8,11.3h23.4c-6.6,5-11.6,9-16.9,12.6
		c-7.3,4.9-8.1,6.5-5.7,15.5h40.6L554.7,312.2L554.7,312.2z M168.8,124.7l-1.2,1.5c-6.6-1.5-13.6-2.3-19.9-4.8
		c-7.1-2.8-11.3-0.7-14.7,5.3c8.8,10.6,17.5,21.2,26.5,32.1c3-2.4,5.8-4.7,8.5-6.9c-2.6-5.9-9.5-8.3-9.7-16.5
		c6.1,1.2,11.6,1.6,16.6,3.4c6.6,2.4,10.9,0.4,14.4-5.3c-8.6-10.8-17.1-21.5-25.9-32.6c-3,2.7-5.8,5.3-8.6,7.9
		C159.5,114.2,164.2,119.5,168.8,124.7L168.8,124.7z M346.5,60.7c-3.3,12.8-6.6,26-10.1,39.7c4.1,0.8,7.7,1.6,11.6,2.4
		c1.7-7.4,3.2-14,4.8-20.7c4.6,7.5,7.3,15.1,11.2,22.1c1.4,2.5,5.4,3.9,8.5,4.9c0.7,0.2,3.3-3.3,3.9-5.5c3.1-11.2,5.9-22.6,9-34.6
		c-3.9-0.8-7.5-1.6-11.3-2.4c-1.6,7.5-3.1,14.3-4.6,21.1c-0.6,0.1-1.1,0.1-1.7,0.2c-2.3-5.9-4.9-11.7-7-17.7
		C358.5,63.8,355.7,58.5,346.5,60.7L346.5,60.7z M193.3,105.7c12.3,3.3,21.3,16,35.1,7.6c-6.4-12.9-12.5-25.2-18.8-37.8
		c-3.6,2-6.6,3.6-9.9,5.4c3.6,6.5,7,12.8,10.5,19.2l-1.5,1.2c-4.3-2.5-8.8-4.7-13-7.4c-9.5-6.1-13.6-6.1-20.6,0.8
		c6.2,12.1,12.5,24.2,18.8,36.4c3.8-2.1,6.9-3.7,9.9-5.4C200.3,118.9,197,112.7,193.3,105.7L193.3,105.7z M428.1,100.5
		c0-11.9-8.9-21.5-20.3-21.3c-11,0.2-22.5,8.1-22.8,22.8c-0.3,12.7,9.5,20.8,20.2,21.6C418.2,124.6,428,114,428.1,100.5L428.1,100.5
		z M242.8,544.3c0-16.1,0.3-31.7-0.4-47.2c-0.1-1.7-5.1-3.6-8.1-4.8c-1.2-0.5-3.6,0.4-4.5,1.4c-9.7,11.5-19.1,23.1-28.7,34.7
		c4.9,4.6,10.8,5.6,13.6,2.7c1.2-1.2,3.5-2.9,4.6-2.5c4.2,1.6,11.3,3.7,11.5,6C231.5,543.9,238.6,541.8,242.8,544.3L242.8,544.3z
		 M85.4,276.9c-0.8-15,0.4-16.1,14.2-13.6c1,0.2,2,0.2,3.8,0.4c0.8-3.8,1.6-7.6,2.4-11.6c-14.2-2.4-27.7-4.6-41.7-6.9
		c-0.7,3.8-1.3,7.5-2,11.4c5.1,0.8,9.8,1.5,15.3,2.3c-1.1,6-2,11.2-3,16.6c-5.5-1.1-10-2-14.8-3c-0.8,4.1-1.4,7.6-2.1,11.6
		c13.9,2.4,27.4,4.7,41.5,7.1c0.7-3.8,1.4-7.4,2.2-11.6C95.6,278.7,90.4,277.8,85.4,276.9L85.4,276.9z M505.7,155.7
		c-12,7.6-23.6,15.1-35.7,22.8c2.3,3.5,4.2,6.5,6.5,10c3.7-2.6,6.8-5.1,10.3-7.1c1.3-0.7,4.4-0.9,5-0.1c2.8,3.6,5,7.6,7.6,11.9
		c-5.2,3.1-9.8,5.8-14.7,8.7c2.5,3.7,4.6,6.8,6.7,9.9c12-7.7,23.6-15.1,35.5-22.6c-2.3-3.4-4.3-6.5-6.5-9.8c-4.4,3-8.2,5.7-12.6,8.7
		c-3.1-5-5.9-9.5-9-14.5c4.7-2.9,8.9-5.4,13.1-8C509.7,162.1,507.9,159.2,505.7,155.7L505.7,155.7z M415.5,527.7
		c-10.1-11.6-20-23.3-30.4-34.5c-1.2-1.3-5.8,0-8.6,0.8c-1.5,0.4-3.6,2.4-3.7,3.7c-0.3,15.3-0.2,30.6-0.2,45.9
		c8.8-1.1,9.5-1.7,11.9-9.2c0.9-3,13-7.1,15.5-5.2C405.2,533.2,409.2,532.9,415.5,527.7L415.5,527.7z M445.8,97.8
		c-9.7,12.4-18,23.1-26.6,34.2c3.2,2.5,6.3,4.9,9.6,7.4c3-4.3,5.7-8,8.3-11.7c5.8,2.5,4.1,6.5,3.1,10.1c-2.5,9.3-1.7,11,7.6,15
		c0.7-2.8,1.4-5.5,2.1-8.3c0.6-2.7,1.1-5.5,1.6-8c2.3-0.4,4.1-0.5,5.8-1c7.8-2.3,13.3-13.1,8.6-18.8
		C460,109.7,452.6,104.1,445.8,97.8z M546.2,239.3c-13.9,2.8-27.3,5.6-41.1,8.4c1,4.3,1.9,7.9,2.8,11.8c4.9-1.3,9.2-2.4,14.9-4
		c-0.7,3.2-0.5,5.8-1.7,7.3c-1.4,1.8-3.8,3.1-6,4c-5.3,2.2-6.2,5.8-4,10.7c0.6,1.4,1.2,2.8,2,4.8c3.8-3,7.2-6,10.8-8.4
		c1.3-0.9,4-1.3,5.1-0.5c5.4,4.1,11,4.3,16.4,0.7c5.6-3.7,6.7-9.5,5.5-15.7C549.7,251.9,547.8,245.5,546.2,239.3L546.2,239.3z
		 M132.2,141.4c-3.6-1.3-5.3-8.2-10-3.3c-5.9,6.2-10.9,13.3-15.6,19.1c9.1,8.7,17.7,17.1,26.6,25.2c1.3,1.1,5.4,1.2,6.4,0.2
		c6.1-6.4,11.6-13.3,17.3-20.1c-1.3-1.6-2.4-2.8-3.4-4.1c-2.9-3.9-4.9-3.7-7.2,0.7c-1.5,3-3.9,5.7-6.5,7.9c-1,0.8-3.5-0.1-5.3-0.3
		c0.2-1.6-0.1-3.5,0.7-4.6c2.3-3.2,5.1-6.1,7.5-8.8c-2.4-2.6-4.5-4.9-6.8-7.5c-2.4,3.3-4.6,6.2-6.8,9.1c-3.3,4.4-4.9,4.2-8.3-1.1
		C124.4,149.8,128.1,145.8,132.2,141.4L132.2,141.4z M518.7,236.1c3.4-1.2,6.4-2.2,9.7-3.3c-1.9-4-3.4-7.3-5-10.6
		c-1.2-2.4-2-5.1,1.4-5.7c1.4-0.3,4.1,1.7,4.9,3.2c1.8,3.7,2.9,7.8,4.4,12.2c3.2-1.8,5.9-3.3,8.8-4.9c-3.7-9.1-7.1-17.6-10.6-26
		c-13.2,5.2-25.9,10.1-39.2,15.3c3.2,7.2,4.9,14.7,8.3,21.5c3.2,6.4,4.4,6.6,11.8,2.4c-1.7-4.1-3.9-8-5.1-12.3c-0.5-1.7,1.1-4,1.7-6
		c1.6,1.1,3.8,1.8,4.6,3.2C516.3,228.2,517.1,231.6,518.7,236.1L518.7,236.1z M68,232.9c13.2,5,26,9.8,39.2,14.8
		c3.5-9.2,6.9-18,10.4-27.3c-3.2-1.7-6-3.2-9.2-4.9c-1.6,5.2-2.6,9.8-4.6,13.9c-0.7,1.4-3.7,1.7-5.6,2.6c-0.4-1.8-1.4-3.8-0.9-5.4
		c1-3.6,2.7-7,4.2-10.7c-3.4-1.6-6.2-2.8-9.3-4.3c-1.3,4.3-2,7.9-3.6,11.2c-0.8,1.7-3.4,3.9-4.8,3.6c-3.9-0.6-2.7-3.7-1.6-6.2
		c1.6-3.7,3.3-7.4,5.4-12c-4.1,1.1-8.2-5.5-11,1.5C73.5,217.4,70.8,225.2,68,232.9L68,232.9z M240.6,92.2c5-1.5,9.8-2.8,14.9-4.3
		c-0.8-3.6-1.5-6.6-2.3-10.1c-4.2,1.6-7.8,3.3-11.6,4.3c-1.4,0.4-3.3-1-5-1.5c0.9-1.6,1.4-4.3,2.7-4.8c4.2-1.6,8.8-2.5,13.6-3.7
		c-1.4-3.3-2.5-6-3.8-9c-9.8,3-19,5.8-27.3,8.3c4,13.5,7.9,26.6,11.8,39.7c8.4-1.8,16.9-3.4,25.3-5.5c1.1-0.3,2.3-2.8,2.4-4.3
		c0.1-2.5-0.6-5-1-7.9c-4.4,1.6-8,2.9-11.6,4.1C244.6,98.6,240.8,99.1,240.6,92.2L240.6,92.2z M440.8,514.3
		c-7.7-5.8-7.6-12.2-6.1-19.4c1.9-9.3,0.5-18.1-6.8-25.4c-3.5,2.1-7.1,4.3-11.1,6.7c5.5,5.9,8.7,12,4.4,19.5
		c-8.7-0.2-11.7-7-15.1-13.4c-4.1,2.1-7.6,4-11.1,5.8c2.8,7.7,6.8,13.3,14.6,16.2c7.8,3,15.6,6.7,17.8,16.3c0,0.1,0.3,0.2,1.4,0.8
		C432.1,519.4,435.8,517.2,440.8,514.3L440.8,514.3z M309.6,88.4c1.2-5.6,11.5-4.8,6.3-14c-3.8,2.1-7.8,4.2-11.9,6.5
		c-1.2-1.5-2.7-3.4-4.4-5.4c4.5-4.2,10.1-7.9,5.9-14.9c-2-3.3-10.1-5.1-13.9-2.7c-4.1,2.6-6.5,6.1-2.9,17.7
		c-10.8,8.2-13.2,15.2-5.5,23.6c7.5,8,13.3-1.9,19.6-5c4.5,4.5,9.5,6,15.7,3.7c-0.1-2.3-0.3-4.5-0.4-6.5
		C315,90.2,312.3,89.3,309.6,88.4L309.6,88.4z M70.8,299.2c-8.2-6.4-11.8-5.2-13.8,4.9c-2.4,11.9,0.1,17.8,11.1,23.8
		c9.8,5.4,23.5,1.8,29.4-7.1c5.6-8.5,3.6-20.4-5.1-27.2c-2.3,1.6-4.8,3.3-7.2,5c5.4,7.6,5.8,13.2,1.5,17.2
		c-4.2,3.8-11.2,4.1-15.8,0.6C65.9,312.5,65.9,308,70.8,299.2L70.8,299.2z M131,196.5c-10-1.3-12.6-8.5-15.3-15.5
		c-2.9-7.4-8.2-12.2-16.2-14.8c-1.8,3.4-3.6,6.7-5.6,10.6c7.4,2.2,12.1,6.4,13.2,15.8c-6.8-1.4-12.8-2.7-18.8-3.9
		c-0.2-0.7-0.3-1.3-0.5-2c-2,3.3-3.9,6.5-6.6,10.9c5.5,2,10.3,5.3,15.1,5.3c9.5-0.1,19.2-3.9,27.3,5.6
		C126.2,204.3,128.2,201.1,131,196.5z M288.2,540.8c1.1-12.3,2.1-23.8,3.1-35.5c-2.9-0.2-5.1-0.1-7.3-0.4c-4.3-0.6-5.8,1.5-6,5.4
		c-0.3,7.5-0.5,15.1-0.8,22.6c-0.1,2.4-0.7,4.8-0.8,7.2c-0.3,3.2-0.4,6.5-0.5,9.8c8.3,0.8,15.6,1.4,22.8,2.1
		c8.7,0.9,10.4-1,8.8-10.3C301.5,541.4,295.5,541.1,288.2,540.8L288.2,540.8z M470.4,132c2.8,2.4,5.1,4.4,7.7,6.7
		c-8.4,7.6-16.4,14.9-24.1,21.9c3.1,3.1,5.9,5.9,10.2,10.3c7-8.3,13.9-16.5,21-24.8c3.2,3.5,5.2,5.7,7.1,7.8
		c2.3-2.4,4.4-4.5,6.4-6.6c-6.5-6.8-13.2-13.8-20-21C476.1,128.1,473.7,129.8,470.4,132L470.4,132z M252.1,545.7
		c4.3,0.8,8,1.6,12,2.3c3.1-15.3,6.1-29.9,9.1-44.8c-4.4-0.8-8.1-1.4-12-2.1C258.2,516,255.3,530.4,252.1,545.7z M199.3,517
		c14.5-6.3,22.1-19,32.2-29.5c-4-1.9-7.9-3.8-11.9-5.7l-11.1-5.4c10.1,10.9,7.9,28-4.9,31.8C198.9,509.7,198.7,512,199.3,517
		L199.3,517z M273,499.7c-0.1,0.2-0.2,0.5-0.3,0.7c0.8,0.4,1.7,1.1,2.5,1.2c4.1,0.4,8.3,0.7,12.5,1c6.5,0.4,7.8,2.6,6.3,9
		c-1.1,4.6-1.2,9.5-1.3,14.3c0,1,1.7,2.8,2.8,3c3.1,0.4,6.2,0.1,9.6,0.1c-0.6-4.4-1.2-8-1.5-11.6c-0.9-10.9-0.9-10.9,9-14.4
		L273,499.7z M246.5,493.6c0,8,0.2,14.9,0,21.7c-0.2,5.3,2.1,7.5,7.6,6.7c1.8-8.4,3.6-16.7,5.4-25.4
		C254.8,495.5,250.6,494.5,246.5,493.6z M276.2,560.7c10.5,0.6,20.3,1.2,30.2,1.8c0.7-2.7,1.2-4.7,1.7-6.9
		c-10.8-0.7-21.2-1.3-31.9-1.9L276.2,560.7L276.2,560.7z M415.4,539.2c-2.3-4.2-4.9-5.4-8.9-3.8c-1.7,0.7-5.1,0.3-6-0.9
		c-3.6-4.8-7.2-1.6-10.1-0.1c-1.8,0.9-2.3,4.1-4.3,7.9c7.3-1.7,12.9-6.4,17.3,0.8c0.3,0.5,2.7,0.2,4-0.3
		C410,541.8,412.5,540.5,415.4,539.2L415.4,539.2z M228.3,542c-0.7-9.3-5.1-11.6-12.9-7.2c-1.9,1.1-4.7,0.4-7,0.9
		c-2.4,0.5-4.8,1.4-7.2,2.1l0.6,2.1c4.8,1.3,9.5,7.4,14.5-0.3c0.4-0.7,2.7-0.5,4-0.2C223,540.1,225.6,541.1,228.3,542L228.3,542z
		 M335.1,552.9c-1.3,0.1-2.2,0.1-2.9,0.3c-9,2.7-9.1,2.7-14-5.2c-3.3-5.2-6.7-10.4-10.1-15.6c-0.5,2.1-0.1,3.8,0.8,5.2
		c4.1,6.7,8.6,13.2,12.4,20.2c2.2,4,4.6,4.8,8.7,3.7C334.3,560.3,335.8,557.8,335.1,552.9L335.1,552.9z M317.3,501.5
		c7.5,8.4,1.8,19.3,9.4,26c0.4-4.7,0.5-9.5-0.3-14c-1-5.8-3.1-11.7,7.4-12c-0.6-0.7-1.1-1.4-1.7-2.1
		C327.3,500.1,322.5,500.8,317.3,501.5z M342.3,552c3.9,7.9,4.6,8.6,8,7.7c5-1.4,8.2-4.3,7.8-9.4C352.7,550.9,347.7,551.4,342.3,552
		z M252.8,549.2c0.3,2.7,0,6.1,0.7,6.4c3.3,1.1,7,1.7,10.5,1.6c0.8,0,1.5-3.7,2.3-6c-3.1-0.3-4.9-0.5-6.7-0.7
		C257.9,550.1,256.1,549.8,252.8,549.2L252.8,549.2z M164.4,513.3c-3.9,3.5-3.4,4.2,8.6,9.7c1.2-2.3,2.4-4.6,3.4-6.5
		C172.4,515.5,169,514.5,164.4,513.3z M372.1,547.5c0.2,2.3,0.4,4.2,0.6,6c9.2-0.4,12.3-3.2,10.5-9.3c-1.7,0.6-3.4,1.1-5.1,1.7
		C376.4,546.4,374.7,546.8,372.1,547.5z M232.3,544.2c-1,6.8,1.8,9.2,10.8,9.5C245.6,546.9,244,547.8,232.3,544.2z M184.9,524.7
		c-1.4,5.7,1.6,8.9,9.9,10.4v-5.7C191.3,527.8,188.1,526.3,184.9,524.7z"/>
	<path class="st0" d="M356.4,316.8c1.5,4.9,3,9.9,4.7,15.6c2.2-3.1,4.6-6.4,7.6-10.7c-0.5,5.9-0.9,10.9-1.3,16.4
		c1.7-1.4,3.2-2.7,4.6-3.9l-0.1-0.2c-0.7,3.2-1.4,6.4-2.1,10c1.8,0.4,3.9,0.8,6.2,1.3c-0.6,2.5-1.1,4.8-1.7,7.3c3-1.1,3-1.1,6-11.3
		h1.5c-0.4,6.8-0.7,13.5-1.1,20.7c2.3,0.2,4.8,0.3,5.8,0.4c-1.1,2.5-3.6,5.4-3.2,7.9c0.3,1.8,4.4,2.9,6.8,4.3
		c-4.3,3.2-2.7,7,2.3,10.9c-1.5,0.5-2.4,0.9-4.6,1.6c3.5,2.9,6.5,5.3,9.7,7.9c-1.7,1.1-3.8,2.3-6.5,3.9c3.2,3,6,5.7,9.4,8.9
		c-2.7-0.2-4.7-0.4-7-0.5c1.3,3.9,2.6,7.5,3.9,11.2c-0.4,0.2-0.9,0.4-1.3,0.6c-1.2-2-2.5-3.9-4.2-6.7c-0.6,1.5-1.4,2.5-1.4,3.5
		c0,1.1,1.4,2.7,1,3.3c-5.7,8.3,1.8,7.4,6,8.8c1.8,0.6,3.6,1.4,6.9,2.8c-4.3,1.4-7,2.3-9.8,3.2c4.6,2.6,9.3,5.1,13.9,7.7l-0.9,2.7
		c-4.4-0.6-8.8-1.5-13.3-1.7c-3-0.1-7.5-0.3-8.7,1.4c-7.4,10.6-19,15.7-29,22.9c-7,5-14.2,9.8-21.6,14.3c-1.7,1.1-4.5,1-6.7,0.6
		c-4-0.7-7.9-2.1-12.2-2.3c0.6,0.3,1.5,0.6,1.6,1.1c0.6,4.2,1.1,8.5,1.6,12.8c0.5,3.8-0.3,6.7-4.9,6.5c-19.2-1-38.4-1.7-57.3-6.9
		c-75.9-20.6-130.9-85.9-137.9-164.3c-8.3-92.8,52-176.9,142.5-198.8c5.7-1.4,11.5-2.6,17.3-3.2c4.4-0.4,8-1.2,8.3-5.9
		c3.4-0.6,6.3-1.1,10.1-1.8c3.3,3.5,7.1,7.5,10.7,11.2c2.9-0.8,6.4-1.8,9.8-2.9c-0.1-0.3-0.5-1.3-0.9-2.4
		c95.7,6.2,172.1,83.8,175.4,180.7c3.2,96.9-67.8,179-161.5,191.6v-6.5c8.4-2.1,17.2-3.7,25.7-6.3c37.9-11.6,69.2-32.7,92.7-65.1
		c7.1-9.9,12.7-20.3,18.2-31.1c6.5-12.6,11.1-25.4,13.9-39c16.9-80.7-21.9-165.6-102.9-201.7c-13.3-5.9-28.1-8.6-42.2-12.9
		c-1.1-0.3-2-1.3-3.1-1.9c-3.2-1.7-6.3-3.5-9.6-4.8c-0.4-0.2-2.7,1.9-2.6,2.9c0.3,6.6-3.9,13.9-10.5,16.4c-6.9,2.6-14.1,4.5-21,7.1
		c-2.3,0.9-4.9,2.7-6.1,4.8c-2.7,4.7-4.8,9.8-6.6,15c-0.5,1.4,0.3,4,1.4,5.2c4,4.3,8.3,8.4,12.7,12.3c1.1,1,3,1.3,4.5,1.9
		c0.2-0.5,0.4-0.9,0.6-1.4c-0.9-0.6-1.8-1.1-3.4-2.2c3.9-1.9,7.2-3.5,10.6-5.2c0.4,0.5,0.8,1.1,1.2,1.6c0.2-1.3,0.5-2.6,0.6-3.9
		c1.2-15.2,11-16.9,22.9-12.8c2.8,1,5.8,2.4,7.8,4.5c1.3,1.4,1.7,4.7,1.1,6.7c-0.8,2.6-2.9,4.8-4.6,7c-3.3,4.3-6.4,8.9-10.2,12.8
		c-1.8,1.9-4.8,2.5-8,4c0.7,0.6,2.1,1.9,3.7,3.4c-1.1,0.3-2.2,0.6-3.9,1.1c6.9,4.5,8.4,10.5,8.2,18.1c-0.4,11.3,0.7,22.7,1.3,34
		c0.3,5.4,10.8,16.2,15.6,16c-0.4,9,6.6,6.7,11.9,7.4c-8.1,7.7-9.1,17.6-10,28.5c1.4-1.4,2.3-2.2,3.7-3.5c0.5,3.8,0.3,7.5,1.6,10.4
		c1.4,3.2,4.3,5.7,6.5,8.4c0.6-0.1,1.3-0.3,1.9-0.4c0.3-3.4,0.5-6.9,0.8-10.3C355.6,317.4,356,317.1,356.4,316.8L356.4,316.8z
		 M172.7,252.3c3.7-5.5,7.5-10.3,10.5-15.6c3.2-5.6,5.2-11.9,8.7-17.3c3.9-6.1,9.7-6.8,15-1.8c8.1,7.6,14.6,16.3,13.8,28.5
		c-0.2,3-0.4,6.2,0.2,9.1c0.7,3.7,1.7,6.7,7.3,5.1c3.8-1.1,8.6-0.5,12.4,0.7c7.8,2.5,15.2,6,22.7,9.1c0.6-8.9,1.7-9.3,12-4.6
		c0.2-0.8,0.5-1.5,0.6-2.3c0.1-1.8,0.1-3.7,0.1-5.5c0-15.3,0.3-30.7-0.2-46c-0.1-4.3-1.8-8.9-3.8-12.9c-2.8-5.6-6.3-10.8-9.9-15.9
		c-3.3-4.7-2.1-8.5,0.9-12.7c3.5-4.9,7-10,9.9-15.3c1.2-2.1,1.6-5.1,1.1-7.4c-0.9-4.1-2.7-7.9-4.1-11.9
		c-84.7,15-155,98.8-143.1,198.3c10.7,90,88.8,156.4,170.8,157.5c-0.1-1.9-0.9-4.1-0.3-5.7c1.9-5.2,2.2-9.9-1-14.9
		c-1-1.5-0.6-4.5,0.2-6.3c5.5-12.4,3.3-24.6-0.6-36.8c-2.3-7.2-5.1-14.5-6-21.9c-1.4-11.4-2.9-21.9-14.7-27.7
		c-2.9-1.4-4.7-4.9-7-7.5c-0.5,0.3-1,0.6-1.5,0.8c1,5,2,10.1,3,15.1c-0.5,0.3-0.9,0.5-1.4,0.8c-1.9-1.6-4-3.1-5.8-4.8
		c-5.3-5.3-6.5-13.1-12.6-18.2c-4-3.4,1.1-7.1,2.5-10.6c0.7-1.7,0.6-3.6,0.9-5.5c-0.6-0.1-1.2-0.3-1.9-0.4
		c-4.7,8.1-9.5,16.2-13.3,22.7c4.8,6.7,8.6,12.4,12.9,17.7c3.4,4.2,4.2,8.4,2.3,13.2c-8.7,0.6-13.7-4-17.5-10.7
		c-1.2-2.2-3.7-3.6-5.6-5.4c-0.7,0.6-1.3,1.1-2,1.7c1.3,2.8,2.2,6,4.1,8.3c3.5,4.2,7.8,7.7,11.2,11.9c2.4,3,4.2,6.7,5.6,10.3
		c1.9,4.8,3.3,9.9,4.5,14.9c1.1,4.7,1.5,9.6,2.3,14.4c-4.8-0.8-9.9-1-14.5-2.5c-4.5-1.4-5.8-4.9-4-9.8c0.7-1.9-0.6-4.6-1.2-6.9
		c-0.4-1.7-1.1-3.3-1.8-4.9c-2-4.4-3.3-9.5-6.4-13.1c-3.6-4.2-8.8-7.2-13.2-10.7c-7.2-5.9-13.9-12-6.5-22.2
		c-6.5-4.1-12.4-7.6-18.1-11.5c-6.3-4.3-6.4-7.1-1.7-12.9c2.1-2.7,4.5-5.3,6-8.3c6.5-13.3,7.2-27.4,5.2-41.7
		c-1.8-12.8,2-23.7,11.2-32.1c5.2-4.7,4.2-8.6,1.2-13.1c-1.1-1.6-3.3-2.5-5.1-3.7c-0.6,1.8-1.4,3.5-1.9,5.3c-1,4-1.7,8-2.6,11.9
		c-0.3-0.2-0.6-0.3-0.9-0.5c-0.6-4.6-1.2-9.1-1.7-13.7c-0.6,0.1-1.1,0.1-1.7,0.2c-2.3,11.9-4.6,23.9-6.9,35.8h-1.6v-8.5
		c-5.7,16.1-10.7,22.8-20.1,25.2c2-3,5.2-4.7,3.7-9.6c-0.8-2.5,3.2-6.5,5-9.9c-0.5-0.3-1.1-0.5-1.6-0.8c-2.2,0.8-4.4,1.7-6.5,2.4
		c3.6-6,7.1-11.8,10.7-17.6c-0.4-0.3-0.8-0.7-1.2-1c-3.6,1.4-7.2,2.7-10.7,4.1c1.7-3.6,4.2-6,6.3-8.6c2.9-3.6,5.8-7.2,8.3-11.1
		c0.5-0.8-0.2-2.6-0.7-3.8c-0.4-1-1.2-1.9-2.1-3.2C178.4,250.9,175.3,251.7,172.7,252.3L172.7,252.3z M315.6,476.9
		c0.7,0,1.3,0,2-0.1c0.1-1.3,0.3-2.6,0.4-3.9c0.6-4.8-0.8-10.7,5.2-12.9c4.9-1.8,3.9-5.4,3.7-8.9c-0.6-7.9-1.7-15.8-2-23.7
		c-0.3-11.5-0.1-23-0.1-34.4c-8.9-0.6-11.2,1.1-10.5,7.3c1.8,15.9,0,31.5-3.1,47.1C309.2,457.9,313.9,467.2,315.6,476.9L315.6,476.9
		z M326.3,394.9c0.8,18.6,1.7,36.7,2.5,54.8c1.8-0.9,2.3-2,2.4-3c1-13.7,1.6-27.5,3.1-41.1C335.1,399.5,333.2,396.6,326.3,394.9
		L326.3,394.9z M336.9,401.2c-1.3,13.9-2.4,26.4-3.6,38.8c5.1-6.7,8.9-13.4,12.7-20.2c0.3-0.5,0.1-1.2,0.2-1.8
		C347.2,410.9,343.3,406.3,336.9,401.2L336.9,401.2z M310.3,263.8c-0.9,0.1-1.7,0.2-2.6,0.3c0.2,6.1-1.9,14,1.2,17.9
		c7.9,10.2,15.6,12.1,23.6,9.6C320.8,285.7,311.9,277.7,310.3,263.8z M216.4,353.3c-0.5-0.3-1-0.7-1.5-1c-2.5,2-5.8,3.6-7.3,6.3
		c-0.6,1.1,2.6,4.4,4.1,6.7c0.7-0.1,1.5-0.2,2.2-0.3C214.8,361,215.6,357.1,216.4,353.3z"/>
	<path class="st2" d="M132.8,195c5.2,3.4,8.1,0.4,11.1-3.7c2.7-3.8,5.9-7.3,9.1-10.7c3.1-3.2,6-6.2,1.6-11.2
		c6.6,4.4,9.6-0.8,12.5-4.1c1-1.2-0.7-4.8-1.2-7.8c0.6-0.5,2.5-1.2,3-2.4c2.2-4.9,5.4-4.1,9.4-2.7c5.3,1.9,8.5-2,11-5.5
		c0.7-1-1.2-4-2-6.2c3.1-2.4,3.1-2.4,6.4,3.2c3.6-1.9,7.2-3.7,11.1-5.8c-1.4-2.7-2.4-4.7-3.6-7c1.1-0.7,2.4-1.1,3-2
		c3.4-5.3,7.2-3,11.2-1c1.9,0.9,4.3,1.9,6.2,1.5c7-1.5,8.1-4.5,4.5-11.2c1.6-1.1,3.2-2.3,4.7-3.3c1.3,2.9,2.4,5.6,3.8,8.9
		c8.5-2.4,16.6-4.7,24.7-7.2c1.1-0.4,2.7-2.5,2.5-3.3c-1.1-4.1,0.8-7.2,2.3-10.8c2.2-5.3-0.3-9.9-6.5-14.7c5.9-1.1,11.9-2.1,18-3.2
		c1.1,6.8,2.1,13.2,3.3,19.6c1.6,8.3,11.2,11.6,18.7,6.4c1.6-1.1,3.1-2.5,3.5-2.8c5.4,1.4,9.7,2.7,14,3.5c1.2,0.2,3.9-1.6,3.8-2
		c-1.2-5.4,2.6-9.7,2.7-14.5c0-3.1-2.2-6.2-3.8-10c5.4-3.2,12.2-0.8,19.6,0.4c-0.9,3.1-1.5,5.8-2.4,8.4c-1.3,3.6-2.4,6.9,1.6,9.8
		c0.7,0.5,0.9,2.7,0.4,3.7c-2.3,5.7,1.5,6.4,5.4,7.5c4.3,1.3,6.4-0.1,7.2-4.4c0.9-4.9,2.1-9.8,3.5-16.5c3.2,7.3,6.6,12.9,8.2,19
		c2,7.3,6.7,9,13.8,9c1.9-7.4,3.9-14.9,6-22.9c1.2,6.9,2.2,13.3,3.4,19.6c2.8,14.5,17.2,19.7,27.2,16.9c4.7-1.3,7.2-0.3,10.2,2.9
		c-1.1,1.6-2.2,3.2-3.3,4.7c6,9.2,9.6,9.6,15.6,1.6c1.3,4.1,4.9,6.4,3.6,12c-1.1,5,5,6.8,10,9.2c0.8-3.3,1.6-6.2,2.1-9.1
		c1.4-8.5,2.3-9.3,13.2-9.2c-2.2,2-3.7,3.6-5.3,4.8c-8.6,6.6-8.7,7.1-1.8,16.2c-4.4,4-1.4,6.8,1.5,10.2c3.2,3.7,5.9,2.5,9.1-0.4
		c1.5,4.3,5.9,6.4,3.8,12c-1.6,4.4,5.4,10.1,10.1,9.2c1.7,2.9,3.4,5.8,5,8.8c0.4,0.8,1.1,2.3,0.8,2.7c-3.2,4.2-0.1,7,2.2,9.5
		c5.1,5.6,6.6,12.8,8.8,19.6c3.5,11.2,7.1,22.4,10.1,33.7c1.4,5.2,1.4,10.8,2.3,16.2c0.5,3.3,2.1,6.5,2.2,9.9
		c0.1,4.1-0.9,8.2-1.1,12.3c-0.2,4.2-0.2,8.3-0.1,12.5c0,0.9,1.4,1.9,1.2,2.7c-1.6,10,4.9,9.4,11.5,8.9c1-0.1,1.9,0.3,3.5,0.6
		c-9.5,61.1-38.7,109.9-87.3,147.5c-2.6-5.4-4.7-10.1-7.1-14.7c-2-3.9-4.9-5.4-8.8-2c-0.6,0.5-1.4,0.9-2.1,1.3
		c-8.6,5.4-8.4,5.3-3.7,13.9c1.2,2.2,1.2,5.1,1.7,7.7c-0.7,0.4-1.4,0.9-2.1,1.3c-2.2-2.2-5.4-4-6.5-6.7c-2.4-5.9-5.4-7.7-11-4.1
		c-1.5,1-3.1,1.7-4.7,2.5c-4.5,2.3-5.2,5.1-2,9.2c1.4,1.8,2,4.3,3,6.5l-0.4,0.4c-2.6-2.8-5.5-5.3-7.8-8.4c-5-6.7-9.9-1-14.7-0.2
		c-4.3,0.7-4.3,4.1-4.2,7.6c0.1,4,0,8.1-1.1,12.3c-0.5-2.6-1-5.3-1.5-7.9c-0.3-1.4-0.4-4-0.7-4c-4.8-0.3-9.8-0.8-14.5,0
		c-1.5,0.3-3.4,4.2-3.3,6.4c0.2,5.9,1.4,11.7,2.2,17.6l-3.3,0.6c-1-5-2.2-10-2.9-15.1c-0.5-4.1,0.2-8.6-7.4-8.3
		c12.5-4,23.1-7.8,33.9-11c19.4-5.7,36.3-16.1,51.9-28.5c29.5-23.4,51-52.9,62.6-88.7c14.2-43.8,14-87.9-3.4-130.7
		c-23.3-57.2-65.1-95.4-124.5-113c-13.7-4-28.3-4.7-42.5-7c-1.3-0.2-2.6-0.8-3.8-1.4c-0.3-0.1-0.6-0.7-0.9-0.8
		c-7.9-1-15.5-5.6-23.8-2.6c-1,0.3-1.5,1.8-2.4,2.5c-1.9,1.4-3.8,3.6-6,4c-50.6,7.1-91.3,31.6-122.8,71.2
		c-22.3,28.1-35.2,60.4-38.8,96.4c-4.2,41.6,3.5,80.5,24.6,116.6c12,20.5,27.4,38.2,45.9,53.2c2.2,1.7,4,3.9,5.6,6.2
		c-10-4.1-10.3-4-15,6c-1.5,3.3-3.4,6.5-5.7,10.8c-6.8-5.8-13.5-11-19.6-16.8c-34.7-33.4-56.5-73.9-65.3-121.2
		c-0.3-1.6,1.2-4.5,2.7-5.4c5.2-3,8.8-6.9,10-13c1.9-10,6.6-19.8,1.3-30.1c-0.3-0.7-0.2-1.6-0.1-2.4c2.3-18.5,6.5-36.6,13.9-53.8
		c2.9-6.6,3.9-14.1,5.7-21.1c4.6-0.1,10.8-5.7,9.3-9.9c-1.8-4.7,1.1-6.8,2.3-10.1C132.7,198.7,132.6,196.8,132.8,195L132.8,195z"/>
	<path class="st0" d="M349.3,532c5.5-9.4,4.4-19,1-29.2c4.6-0.8,8.5-1.5,13.4-2.4c0.7,6.9,2.8,13.6,1.6,19.6
		c-1.8,9-5.5,17.8-9.2,26.4c-1.5,3.6-9.6,2.9-11.8-0.6c-1-1.6-1.7-3.2-2.6-4.8c-0.9-1.5-1.8-3-3.3-5.4c-1.2,4-1.8,7.1-3.2,9.8
		c-1.1,2.2-2.9,4.6-4.9,5.5c-3,1.3-6.1,0.9-8.3-2.7c-4.1-7-9.5-13.3-12.8-20.7c-2.6-5.7-2.7-12.4-4.1-19.7c4.9-0.4,8.6-0.7,12.8-1
		c0.9,10.1,0.7,20.4,10.5,28.9c0.7-5.7,1.7-10.4,1.8-15.2c0.1-4.8-0.9-9.7-1.4-15.2c3.8-0.5,7.5-1.1,11.9-1.7
		C342.1,513.7,341.7,524,349.3,532L349.3,532z M194.8,526.3c-3.7-2.2-6.9-3.8-9.7-5.9c-1-0.8-1.8-2.7-1.8-4c0.1-3.6,0.9-7.1,1-10.7
		c0-1.3-0.9-3.6-1.8-3.9c-1.3-0.3-3.7,0.3-4.4,1.4c-2,3-3.4,6.3-5.2,10.1c-4-2.3-7.5-4.5-11.3-6.7c7.9-13.2,15.5-25.8,23.5-39.2
		c7.2,4.5,14.6,8.6,21.5,13.4c4.7,3.2,6.5,8.1,5,13.9c-1.5,5.8-5,9.9-10.8,11.2c-3.6,0.8-4.6,2.3-4.7,5.6
		C196,516.1,195.4,520.7,194.8,526.3L194.8,526.3z M189.9,480.8c-1.7,4.7-3.8,8.4-3.9,12.2c0,1.2,5.6,3,8.8,3.3
		c1.3,0.1,3.8-3,4.2-4.9C199.9,485.7,195.2,484.1,189.9,480.8z M554.7,312.2v11.7h-40.6c-2.4-9-1.6-10.5,5.7-15.5
		c5.3-3.6,10.3-7.6,16.9-12.6h-23.4c-0.2-3.5-0.5-7.2-0.8-11.3h41.9c1.6,6.1,1.4,11-5.2,14.8c-5.9,3.4-11.1,8.2-16.7,12.3
		c0.2,0.5,0.4,1,0.7,1.6C540.1,312.9,547,312.6,554.7,312.2L554.7,312.2z M168.8,124.7c-4.6-5.3-9.2-10.5-14.1-16
		c2.9-2.6,5.7-5.2,8.6-7.9c8.8,11.1,17.4,21.8,25.9,32.6c-3.5,5.6-7.8,7.6-14.4,5.3c-5-1.8-10.5-2.2-16.6-3.4
		c0.2,8.2,7.1,10.7,9.7,16.5c-2.7,2.2-5.5,4.5-8.5,6.9c-9-10.9-17.7-21.5-26.5-32.1c3.4-5.9,7.6-8.1,14.7-5.3
		c6.3,2.5,13.2,3.3,19.9,4.8C168,125.7,168.4,125.2,168.8,124.7L168.8,124.7z M346.5,60.7c9.2-2.1,12,3.1,14.2,9.5
		c2.1,6,4.6,11.8,7,17.7c0.6-0.1,1.1-0.1,1.7-0.2c1.5-6.8,3-13.6,4.6-21.1c3.9,0.8,7.4,1.6,11.3,2.4c-3.1,12-5.9,23.4-9,34.6
		c-0.6,2.1-3.2,5.7-3.9,5.5c-3.1-1-7.1-2.4-8.5-4.9c-3.9-7-6.6-14.7-11.2-22.1c-1.5,6.7-3.1,13.3-4.8,20.7
		c-3.9-0.8-7.5-1.5-11.6-2.4C339.9,86.7,343.3,73.4,346.5,60.7L346.5,60.7z M193.3,105.7c3.7,7,7,13.1,10.6,20
		c-3,1.6-6.1,3.3-9.9,5.4c-6.3-12.2-12.5-24.3-18.8-36.4c7-6.9,11-6.9,20.6-0.8c4.2,2.7,8.6,5,13,7.4l1.5-1.2
		c-3.5-6.3-6.9-12.6-10.5-19.2c3.3-1.8,6.3-3.4,9.9-5.4c6.3,12.6,12.3,24.8,18.8,37.8C214.6,121.8,205.6,109.1,193.3,105.7
		L193.3,105.7z M428.1,100.5c0,13.5-9.8,24.1-22.9,23.1c-10.7-0.8-20.5-8.9-20.2-21.6c0.3-14.7,11.8-22.6,22.8-22.8
		C419.2,79,428.1,88.7,428.1,100.5L428.1,100.5z M406.1,91.2c-5.9-0.1-9.9,4.3-9.9,10.9c0,6.2,3.6,10,9.5,10.2
		c6.4,0.1,11.7-5.1,11.9-11.8C417.7,95.2,412.9,91.3,406.1,91.2L406.1,91.2z M242.8,544.3c-4.2-2.5-11.3-0.4-11.9-9.6
		c-0.2-2.3-7.3-4.5-11.5-6c-1.1-0.4-3.4,1.2-4.6,2.5c-2.8,2.9-8.6,2-13.6-2.7c9.5-11.6,19-23.2,28.7-34.7c0.9-1.1,3.3-1.9,4.5-1.4
		c3,1.2,8,3,8.1,4.8C243.1,512.6,242.8,528.2,242.8,544.3L242.8,544.3z M223.1,519c3.7,1,6,1.6,9.1,2.5c0.2-4.8,0.4-8.6,0.6-12.5
		c-0.4-0.2-0.8-0.3-1.2-0.5C229,511.6,226.5,514.8,223.1,519L223.1,519z M85.4,276.9c5,0.9,10.1,1.8,15.8,2.8
		c-0.8,4.1-1.5,7.8-2.2,11.6c-14.2-2.4-27.7-4.7-41.5-7.1c0.7-4,1.4-7.5,2.1-11.6c4.8,1,9.3,1.9,14.8,3c1-5.4,1.9-10.7,3-16.6
		c-5.5-0.8-10.2-1.6-15.3-2.3c0.7-3.9,1.3-7.6,2-11.4c13.9,2.3,27.4,4.6,41.7,6.9c-0.8,4-1.6,7.8-2.4,11.6c-1.8-0.2-2.8-0.3-3.8-0.4
		C85.9,260.8,84.7,261.9,85.4,276.9z M505.7,155.7c2.2,3.5,4,6.4,6.2,10c-4.2,2.6-8.4,5.1-13.1,8c3.1,5,5.9,9.5,9,14.5
		c4.4-3.1,8.2-5.7,12.6-8.7c2.2,3.3,4.2,6.4,6.5,9.8c-11.9,7.6-23.4,15-35.5,22.6c-2.1-3.1-4.2-6.2-6.7-9.9
		c4.9-2.9,9.5-5.6,14.7-8.7c-2.7-4.3-4.8-8.3-7.6-11.9c-0.7-0.8-3.7-0.7-5,0.1c-3.5,1.9-6.6,4.5-10.3,7.1c-2.3-3.5-4.2-6.5-6.5-10
		C482.1,170.8,493.8,163.3,505.7,155.7L505.7,155.7z M415.5,527.7c-6.3,5.2-10.3,5.5-15.4,1.5c-2.4-1.9-14.6,2.2-15.5,5.2
		c-2.3,7.5-3,8-11.9,9.2c0-15.3-0.1-30.6,0.2-45.9c0-1.3,2.2-3.2,3.7-3.7c2.8-0.8,7.3-2.1,8.6-0.8
		C395.5,504.4,405.4,516.1,415.5,527.7L415.5,527.7z M383.9,521.7c3.1-1.1,5.5-1.9,8.8-3c-3.1-4.1-5.5-7.3-7.9-10.5l-1.5,0.6
		C383.4,512.8,383.6,516.7,383.9,521.7z M445.8,97.8c6.8,6.3,14.2,11.9,19.9,18.8c4.7,5.7-0.8,16.5-8.6,18.8c-1.7,0.5-3.6,0.6-5.8,1
		c-0.5,2.6-1,5.3-1.6,8c-0.6,2.8-1.4,5.5-2.1,8.3c-9.3-3.9-10.1-5.7-7.6-15c1-3.6,2.7-7.6-3.1-10.1c-2.6,3.7-5.2,7.4-8.3,11.7
		c-3.3-2.5-6.4-4.9-9.6-7.4C427.8,120.9,436.1,110.2,445.8,97.8L445.8,97.8z M441,120.9c4.6,3.4,7.6,8.5,12.9,4.1
		c3-2.5,2.1-8.4-1.6-10.6C444.9,110.1,445.5,118.8,441,120.9z M546.2,239.3c1.6,6.2,3.5,12.6,4.8,19.1c1.2,6.1,0,12-5.5,15.7
		c-5.4,3.6-11,3.4-16.4-0.7c-1-0.8-3.8-0.4-5.1,0.5c-3.7,2.4-7,5.4-10.8,8.4c-0.8-2-1.4-3.4-2-4.8c-2.2-4.9-1.4-8.5,4-10.7
		c2.2-0.9,4.6-2.2,6-4c1.2-1.5,1-4.1,1.7-7.3c-5.7,1.5-10,2.7-14.9,4c-0.9-3.8-1.8-7.4-2.8-11.8
		C518.9,244.8,532.3,242.1,546.2,239.3L546.2,239.3z M529.9,253c-0.5,0.8-1,1.5-1.5,2.3c1.9,3.1,3.3,6.7,5.9,9.1
		c0.8,0.8,5.8-0.7,6.5-2.2c1.1-2.4,1.1-7.9,0.1-8.3C537.5,252.7,533.6,253.2,529.9,253z M132.2,141.4c-4.1,4.4-7.7,8.4-11.4,12.4
		c3.4,5.3,5,5.5,8.3,1.1c2.2-2.9,4.3-5.8,6.8-9.1c2.3,2.6,4.5,4.9,6.8,7.5c-2.4,2.7-5.2,5.6-7.5,8.8c-0.8,1.1-0.5,3.1-0.7,4.6
		c1.8,0.1,4.3,1.1,5.3,0.3c2.6-2.2,5-4.9,6.5-7.9c2.3-4.5,4.3-4.6,7.2-0.7c1,1.3,2.1,2.5,3.4,4.1c-5.7,6.8-11.3,13.7-17.3,20.1
		c-1,1.1-5.1,1-6.4-0.2c-8.9-8-17.5-16.5-26.6-25.2c4.7-5.9,9.7-13,15.6-19.1C126.8,133.2,128.6,140.1,132.2,141.4L132.2,141.4z
		 M518.7,236.1c-1.6-4.4-2.5-7.8-4.1-10.8c-0.8-1.5-3-2.2-4.6-3.2c-0.6,2-2.2,4.3-1.7,6c1.2,4.2,3.3,8.2,5.1,12.3
		c-7.5,4.2-8.6,3.9-11.8-2.4c-3.5-6.8-5.1-14.3-8.3-21.5c13.2-5.2,26-10.2,39.2-15.3c3.4,8.4,6.9,16.9,10.6,26
		c-2.9,1.6-5.6,3.1-8.8,4.9c-1.5-4.5-2.6-8.6-4.4-12.2c-0.8-1.6-3.4-3.5-4.9-3.2c-3.4,0.6-2.6,3.3-1.4,5.7c1.6,3.3,3.1,6.6,5,10.6
		C525.2,233.8,522.1,234.9,518.7,236.1L518.7,236.1z M68,232.9c2.8-7.7,5.4-15.5,8.5-23.2c2.8-7,6.9-0.4,11-1.5
		c-2.1,4.7-3.8,8.3-5.4,12c-1.1,2.5-2.3,5.5,1.6,6.2c1.4,0.2,4-1.9,4.8-3.6c1.6-3.2,2.3-6.9,3.6-11.2c3.1,1.4,5.9,2.7,9.3,4.3
		c-1.5,3.7-3.2,7.1-4.2,10.7c-0.4,1.6,0.6,3.6,0.9,5.4c1.9-0.8,4.9-1.1,5.6-2.6c1.9-4.1,3-8.7,4.6-13.9c3.2,1.7,6.1,3.2,9.2,4.9
		c-3.5,9.3-6.9,18.1-10.4,27.3C94,242.7,81.2,237.9,68,232.9L68,232.9z M240.6,92.2c0.2,6.9,4,6.4,8,5.1c3.6-1.1,7.2-2.5,11.6-4.1
		c0.4,3,1.1,5.5,1,7.9c-0.1,1.5-1.2,4-2.4,4.3c-8.4,2.1-16.9,3.7-25.3,5.5c-3.9-13-7.8-26.1-11.8-39.7c8.3-2.5,17.6-5.3,27.3-8.3
		c1.3,3,2.4,5.7,3.8,9c-4.9,1.3-9.4,2.1-13.6,3.7c-1.3,0.5-1.8,3.1-2.7,4.8c1.7,0.6,3.5,1.9,5,1.5c3.8-1,7.3-2.7,11.6-4.3
		c0.8,3.5,1.5,6.5,2.3,10.1C250.4,89.4,245.6,90.8,240.6,92.2L240.6,92.2z M440.8,514.3c-5,2.9-8.7,5.1-12,7c-1-0.6-1.3-0.7-1.4-0.8
		c-2.2-9.5-9.9-13.3-17.8-16.3c-7.8-2.9-11.9-8.5-14.6-16.2c3.5-1.8,7-3.7,11.1-5.8c3.4,6.5,6.3,13.3,15.1,13.4
		c4.3-7.4,1-13.6-4.4-19.5c4-2.4,7.6-4.6,11.1-6.7c7.4,7.3,8.7,16.1,6.8,25.4C433.2,502.1,433.1,508.5,440.8,514.3L440.8,514.3z
		 M309.6,88.4c2.7,0.9,5.4,1.9,8.5,2.9c0.1,2,0.3,4.1,0.4,6.5c-6.2,2.2-11.3,0.8-15.7-3.7c-6.3,3.1-12.1,13.1-19.6,5
		c-7.8-8.3-5.3-15.4,5.5-23.6c-3.6-11.6-1.2-15.1,2.9-17.7c3.8-2.4,11.9-0.6,13.9,2.7c4.2,7-1.3,10.7-5.9,14.9
		c1.6,2,3.1,3.9,4.4,5.4c4.1-2.2,8.1-4.4,11.9-6.5C321.2,83.5,310.8,82.7,309.6,88.4L309.6,88.4z M293,81.6
		c-0.7-0.2-1.4-0.3-2.1-0.5c-0.9,2.8-2.1,5.5-2.4,8.4c-0.1,1,2.5,3.2,3.7,3c2.4-0.3,4.6-1.7,7.4-2.9C296.7,86.2,294.9,83.9,293,81.6
		z M296.9,71.9c1.5-3.4,2.7-6,3.8-8.7c-1.7-0.3-4.1-1.5-5.1-0.8C292.6,64.8,292.9,67.8,296.9,71.9L296.9,71.9z M70.8,299.2
		c-5,8.8-4.9,13.3,0.1,17.1c4.6,3.5,11.6,3.2,15.8-0.6c4.3-3.9,3.9-9.5-1.5-17.2c2.4-1.7,4.9-3.4,7.2-5c8.6,6.9,10.7,18.7,5.1,27.2
		c-5.9,8.9-19.6,12.5-29.4,7.1c-11-6-13.5-12-11.1-23.8C59,294,62.6,292.9,70.8,299.2L70.8,299.2z M131,196.5
		c-2.8,4.7-4.8,7.9-7.3,12c-8.1-9.5-17.9-5.7-27.3-5.6c-4.8,0.1-9.6-3.2-15.1-5.3c2.7-4.4,4.6-7.7,6.6-10.9c0.2,0.7,0.3,1.3,0.5,2
		c6,1.3,12,2.5,18.8,3.9c-1.1-9.4-5.8-13.5-13.2-15.8c2.1-3.9,3.8-7.2,5.6-10.6c8.1,2.5,13.3,7.3,16.2,14.8
		C118.4,188,121,195.2,131,196.5z M288.2,540.8c7.2,0.3,13.3,0.6,19.3,0.9c1.6,9.3,0,11.2-8.8,10.3c-7.3-0.7-14.5-1.3-22.8-2.1
		c0.2-3.3,0.3-6.6,0.5-9.8c0.2-2.4,0.7-4.8,0.8-7.2c0.3-7.5,0.6-15.1,0.8-22.6c0.1-3.8,1.7-6,6-5.4c2.2,0.3,4.4,0.3,7.3,0.4
		C290.3,517,289.3,528.5,288.2,540.8L288.2,540.8z M470.4,132c3.3-2.3,5.8-4,8.3-5.7c6.8,7.2,13.5,14.2,20,21
		c-2,2.1-4.1,4.2-6.4,6.6c-1.9-2.1-3.9-4.3-7.1-7.8c-7.1,8.4-14,16.6-21,24.8c-4.4-4.4-7.1-7.2-10.2-10.3
		c7.8-7.1,15.8-14.3,24.1-21.9C475.4,136.5,473.1,134.4,470.4,132L470.4,132z M252.1,545.7c3.1-15.3,6.1-29.7,9.1-44.6
		c3.9,0.7,7.6,1.3,12,2.1c-3,14.9-6,29.6-9.1,44.8C260.1,547.2,256.4,546.5,252.1,545.7z"/>
	<path class="st2" d="M199.3,517c-0.6-5-0.5-7.3,4.3-8.8c12.8-3.8,15-20.9,4.9-31.8l11.1,5.4c3.9,1.9,7.9,3.8,11.9,5.7
		C221.4,498,213.8,510.7,199.3,517L199.3,517z M273,499.7l39.6,3.3c-9.9,3.5-9.9,3.5-9,14.4c0.3,3.6,0.9,7.2,1.5,11.6
		c-3.4,0-6.6,0.3-9.6-0.1c-1.1-0.1-2.8-2-2.8-3c0.1-4.8,0.2-9.6,1.3-14.3c1.5-6.4,0.3-8.6-6.3-9c-4.2-0.3-8.3-0.6-12.5-1
		c-0.9-0.1-1.7-0.8-2.5-1.2C272.8,500.2,272.9,499.9,273,499.7z M246.5,493.6c4.1,0.9,8.4,1.9,13,3c-1.8,8.7-3.6,17.1-5.4,25.4
		c-5.6,0.8-7.8-1.4-7.6-6.7C246.6,508.5,246.5,501.6,246.5,493.6z M398.8,502.6c4.2,1.9,8.3,4,12.5,5.8c5.4,2.4,10.1,4.7,12.1,11.4
		c1.7,5.8,4.3,5.7,12.7,1.3c4.4,4.6,3.7,5.6-8,10.4c-0.7-1.1-1.7-2.1-2.1-3.3c-1.8-5.9-5.6-9.5-11.6-11.3
		C407,514.7,402.4,509.1,398.8,502.6C398.9,502.6,398.8,502.6,398.8,502.6L398.8,502.6z M276.2,560.7v-7c10.7,0.6,21.1,1.3,31.9,1.9
		c-0.5,2.2-1.1,4.2-1.7,6.9C296.5,561.9,286.7,561.3,276.2,560.7L276.2,560.7z M415.4,539.2c-2.9,1.3-5.4,2.6-8,3.5
		c-1.3,0.5-3.7,0.8-4,0.3c-4.4-7.2-10.1-2.5-17.3-0.8c1.9-3.8,2.5-7,4.3-7.9c3-1.5,6.6-4.7,10.1,0.1c0.9,1.2,4.3,1.6,6,0.9
		C410.6,533.8,413.1,535,415.4,539.2z M228.3,542c-2.7-0.9-5.3-1.9-8-2.6c-1.3-0.3-3.6-0.5-4,0.2c-5,7.7-9.7,1.6-14.5,0.3l-0.6-2.1
		c2.4-0.7,4.8-1.6,7.2-2.1c2.3-0.5,5.1,0.2,7-0.9C223.3,530.5,227.6,532.7,228.3,542L228.3,542z M335.1,552.9
		c0.7,4.9-0.8,7.4-5.2,8.6c-4.1,1.1-6.5,0.3-8.7-3.7c-3.8-6.9-8.3-13.4-12.4-20.2c-0.9-1.4-1.3-3.1-0.8-5.2
		c3.4,5.2,6.8,10.3,10.1,15.6c4.9,7.9,5,8,14,5.2C332.9,553,333.8,553,335.1,552.9L335.1,552.9z M317.3,501.5
		c5.2-0.7,10-1.4,14.8-2.1c0.6,0.7,1.1,1.4,1.7,2.1c-10.5,0.3-8.5,6.1-7.4,12c0.8,4.6,0.7,9.3,0.3,14
		C319.1,520.9,324.8,509.9,317.3,501.5z M342.3,552c5.4-0.6,10.4-1.1,15.8-1.7c0.4,5.1-2.8,8-7.8,9.4
		C346.9,560.6,346.3,560,342.3,552z M252.8,549.2c3.4,0.6,5.1,0.9,6.9,1.2c1.8,0.2,3.6,0.4,6.7,0.7c-0.9,2.4-1.5,6-2.3,6
		c-3.5,0.1-7.2-0.4-10.5-1.6C252.7,555.3,253,551.9,252.8,549.2L252.8,549.2z M164.4,513.3c4.6,1.2,8,2.2,12,3.3
		c-1,1.9-2.2,4.2-3.4,6.5C161,517.5,160.5,516.8,164.4,513.3z M372.1,547.5c2.5-0.7,4.3-1.1,6-1.6s3.4-1.1,5.1-1.7
		c1.9,6.1-1.2,8.9-10.5,9.3C372.5,551.7,372.4,549.8,372.1,547.5z M232.3,544.2c11.8,3.5,13.4,2.7,10.8,9.5
		C234.1,553.4,231.2,551,232.3,544.2z M184.9,524.7c3.3,1.5,6.5,3.1,9.9,4.7v5.7C186.5,533.6,183.5,530.5,184.9,524.7z M132.8,195
		c-10.5-6-10.5-6-10.7-12C125.7,187,129.2,191,132.8,195z"/>
	<path class="st2" d="M396.7,499.8c0.7,1,1.4,1.9,2.1,2.9l0.1-0.1c-0.8-0.8-1.7-1.6-2.5-2.4C396.3,500.2,396.7,499.8,396.7,499.8z"
		/>
	<path class="st0" d="M355.2,317.6c-0.1-0.9-0.2-1.7-0.3-2.6c0.2,0,0.4-0.1,0.6-0.1c0.3,0.6,0.6,1.3,0.8,1.9
		C356,317.1,355.6,317.4,355.2,317.6L355.2,317.6z M372,334.2c0.2-0.2,0.4-0.4,0.6-0.7c0,0.2,0.1,0.4,0.1,0.5h-0.8L372,334.2
		L372,334.2z"/>
	<path class="st1" d="M172.7,252.3c2.6-0.6,5.7-1.4,7.9-1.9c0.9,1.3,1.7,2.2,2.1,3.2c0.5,1.2,1.2,3,0.7,3.8
		c-2.6,3.8-5.4,7.5-8.3,11.1c-2.2,2.6-4.6,5-6.3,8.6c3.6-1.4,7.2-2.7,10.7-4.1c0.4,0.3,0.8,0.7,1.2,1c-3.5,5.8-7,11.6-10.7,17.6
		c2.1-0.8,4.3-1.6,6.5-2.4c0.5,0.3,1.1,0.5,1.6,0.8c-1.8,3.3-5.8,7.4-5,9.9c1.6,4.8-1.7,6.6-3.7,9.6c9.4-2.4,14.4-9.2,20.1-25.2v8.5
		h1.6c2.3-11.9,4.6-23.9,6.9-35.8c0.6-0.1,1.1-0.1,1.7-0.2c0.6,4.6,1.2,9.1,1.7,13.7c0.3,0.2,0.6,0.3,0.9,0.5c0.8-4,1.6-8,2.6-11.9
		c0.4-1.8,1.2-3.6,1.9-5.3c1.7,1.2,4,2.1,5.1,3.7c3,4.5,4,8.3-1.2,13.1c-9.2,8.4-13.1,19.4-11.2,32.1c2.1,14.3,1.3,28.4-5.2,41.7
		c-1.5,3-3.8,5.7-6,8.3c-4.7,5.9-4.5,8.6,1.7,12.9c5.7,3.9,11.6,7.4,18.1,11.5c-7.4,10.2-0.7,16.3,6.5,22.2
		c4.4,3.6,9.6,6.5,13.2,10.7c3,3.6,4.4,8.6,6.4,13.1c0.7,1.6,1.4,3.2,1.8,4.9c0.6,2.3,1.9,5,1.2,6.9c-1.7,4.9-0.5,8.4,4,9.8
		c4.6,1.5,9.6,1.7,14.5,2.5c-0.7-4.8-1.2-9.7-2.3-14.4c-1.2-5.1-2.6-10.1-4.5-14.9c-1.4-3.6-3.2-7.3-5.6-10.3
		c-3.4-4.3-7.8-7.7-11.2-11.9c-1.9-2.3-2.8-5.5-4.1-8.3c0.7-0.6,1.3-1.1,2-1.7c1.9,1.8,4.3,3.2,5.6,5.4c3.9,6.8,8.8,11.4,17.5,10.7
		c1.8-4.8,1-9-2.3-13.2c-4.3-5.3-8.1-11.1-12.9-17.7c3.9-6.6,8.6-14.7,13.3-22.7c0.6,0.1,1.2,0.3,1.9,0.4c-0.3,1.8-0.2,3.8-0.9,5.5
		c-1.4,3.5-6.5,7.2-2.5,10.6c6.1,5.1,7.3,12.9,12.6,18.2c1.8,1.8,3.8,3.2,5.8,4.8c0.5-0.3,0.9-0.5,1.4-0.8c-1-5-2-10.1-3-15.1
		c0.5-0.3,1-0.6,1.5-0.8c2.3,2.6,4.2,6.1,7,7.5c11.8,5.8,13.4,16.3,14.7,27.7c0.9,7.5,3.7,14.7,6,21.9c3.9,12.2,6.1,24.4,0.6,36.8
		c-0.8,1.8-1.2,4.9-0.2,6.3c3.2,4.9,3,9.7,1,14.9c-0.6,1.7,0.2,3.8,0.3,5.7c-82-1-160.1-67.5-170.8-157.5
		C114.7,234.8,185,151,269.7,136c1.4,3.9,3.2,7.8,4.1,11.9c0.5,2.3,0,5.3-1.1,7.4c-3,5.3-6.4,10.3-9.9,15.3c-3,4.2-4.2,8-0.9,12.7
		c3.6,5.1,7.1,10.3,9.9,15.9c2,4,3.7,8.5,3.8,12.9c0.4,15.3,0.2,30.7,0.2,46c0,1.8,0,3.7-0.1,5.5c0,0.8-0.4,1.5-0.6,2.3
		c-10.3-4.7-11.4-4.3-12,4.6c-7.5-3.1-14.9-6.6-22.7-9.1c-3.9-1.3-8.7-1.8-12.4-0.7c-5.5,1.6-6.6-1.4-7.3-5.1
		c-0.5-3-0.4-6.1-0.2-9.1c0.9-12.2-5.7-20.8-13.8-28.5c-5.3-5-11.1-4.3-15,1.8c-3.5,5.4-5.5,11.7-8.7,17.3
		C180.1,242,176.4,246.8,172.7,252.3L172.7,252.3z M315.6,476.9c-1.7-9.8-6.4-19-4.4-29.4c3-15.6,4.9-31.2,3.1-47.1
		c-0.7-6.1,1.6-7.9,10.5-7.3c0,11.4-0.3,22.9,0.1,34.4c0.2,7.9,1.4,15.8,2,23.7c0.3,3.5,1.3,7-3.7,8.9c-6,2.2-4.5,8.1-5.2,12.9
		c-0.2,1.3-0.3,2.6-0.4,3.9L315.6,476.9L315.6,476.9z M326.3,394.9c6.9,1.7,8.7,4.6,8,10.7c-1.6,13.7-2.1,27.4-3.1,41.1
		c-0.1,1.1-0.6,2.1-2.4,3C328,431.6,327.2,413.5,326.3,394.9z M336.9,401.2c6.4,5.1,10.3,9.7,9.3,16.8c-0.1,0.6,0.1,1.3-0.2,1.8
		c-3.7,6.8-7.5,13.5-12.7,20.2C334.5,427.6,335.7,415.1,336.9,401.2L336.9,401.2z M310.3,263.8c1.6,13.9,10.5,21.9,22.2,27.8
		c-7.9,2.5-15.7,0.5-23.6-9.6c-3-3.9-0.9-11.8-1.2-17.9C308.5,263.9,309.4,263.8,310.3,263.8z"/>
	<path class="st1" d="M216.4,353.3c-0.8,3.9-1.6,7.7-2.4,11.6c-0.7,0.1-1.5,0.2-2.2,0.3c-1.5-2.3-4.7-5.5-4.1-6.7
		c1.4-2.6,4.7-4.2,7.3-6.3C215.5,352.6,216,352.9,216.4,353.3z M189.9,480.8c5.3,3.3,10.1,4.9,9.1,10.5c-0.3,1.9-2.9,5.1-4.2,4.9
		c-3.2-0.3-8.8-2.1-8.8-3.3C186,489.2,188.2,485.5,189.9,480.8L189.9,480.8z M193.7,485.8l-2.1,0.3c-0.9,1.5-1.9,3-3.9,6.3h7.7
		C194.9,490.2,194.3,488,193.7,485.8z M406.1,91.2c6.8,0.1,11.6,4,11.5,9.3c-0.2,6.6-5.5,11.9-11.9,11.8c-5.9-0.1-9.5-4-9.5-10.2
		C396.2,95.5,400.2,91.1,406.1,91.2L406.1,91.2z M223.1,519c3.4-4.2,5.9-7.4,8.4-10.5c0.4,0.2,0.8,0.3,1.2,0.5
		c-0.2,3.9-0.4,7.7-0.6,12.5C229.2,520.6,226.8,520,223.1,519L223.1,519z M383.9,521.7c-0.3-4.9-0.5-8.9-0.7-12.9l1.5-0.6
		c2.4,3.2,4.8,6.4,7.9,10.5C389.4,519.8,387,520.6,383.9,521.7L383.9,521.7z M441,120.9c4.4-2.1,3.9-10.8,11.2-6.5
		c3.7,2.2,4.6,8.1,1.6,10.6C448.6,129.4,445.6,124.3,441,120.9L441,120.9z M529.9,253c3.7,0.2,7.6-0.3,10.9,0.9
		c1,0.4,1.1,5.9-0.1,8.3c-0.7,1.5-5.7,3-6.5,2.2c-2.5-2.4-4-6-5.9-9.1C528.9,254.6,529.4,253.8,529.9,253z M293,81.6
		c1.9,2.3,3.8,4.6,6.6,8c-2.8,1.2-5,2.6-7.4,2.9c-1.2,0.1-3.8-2.1-3.7-3c0.3-2.8,1.5-5.6,2.4-8.4C291.6,81.2,292.3,81.4,293,81.6z
		 M296.9,71.9c-4.1-4.2-4.4-7.1-1.3-9.5c1-0.7,3.4,0.5,5.1,0.8C299.6,65.9,298.5,68.6,296.9,71.9L296.9,71.9z"/>
	<path class="st2" d="M193.7,485.8c0.6,2.2,1.1,4.4,1.7,6.6h-7.7c2.1-3.3,3-4.8,3.9-6.3C192.4,486,193,485.9,193.7,485.8z"/>
</g>
</svg>
