<?xml version="1.0" encoding="utf-8"?>
<!-- Generator: Adobe Illustrator 24.1.0, SVG Export Plug-In . SVG Version: 6.00 Build 0)  -->
<svg version="1.1" id="Layer_1" xmlns="http://www.w3.org/2000/svg" xmlns:xlink="http://www.w3.org/1999/xlink" x="0px" y="0px"
	 viewBox="0 0 612 612" style="enable-background:new 0 0 612 612;" xml:space="preserve">
<style type="text/css">
	.st0{fill:#F5030A;}
	.st1{fill:#057913;}
</style>
<g>
	<path class="st0" d="M54,282.7c4.2-12,7.9-24.3,12.8-36c14.1-35.2,39.1-60.9,72.3-78c29.8-15.5,62.5-23.5,95.4-29.7
		c10.5-1.9,21.4-1.9,33.8-2.9V179c-18.3,5.4-38.7,9.1-57.2,17.4c-28.4,12.8-52.5,32.8-61.2,63.8c-9.6,34.2-0.7,66.5,20.3,94.9
		c7.9,10.7,18.4,19.4,27.8,28.9c4.8,3,9.6,5.9,14.5,8.8c18.3,15.1,40.9,18.3,63.2,20.9c17,2,34.2,2.1,51.3,2.2
		c8.9,0.1,17.8-1.6,28.6-2.7c-1.1,12.6-1.6,23.7-3.4,34.5c-0.4,2.5-5.4,6.2-8.4,6.3c-37.6,1.1-74.9-1.8-112.3-7.5
		c-38.1-5.9-74.1-16.4-107.8-34.6C92,394.8,70.1,369.1,58.2,335c-1.9-5.3-2.9-10.9-4.2-16.3V282.7z M557.9,426.7
		c-17.2-1.4-34.6-4.9-51.6-3.7c-21.3,1.5-42.4,6.8-64.8,10.7c-7.4-13.3-15.6-28.2-24.4-43.8c28.5-6.3,54-20.4,77.8-40.4
		c12.6,27.5,33.8,47.3,54.6,67.6c2.4,2.3,5.6,3.6,8.5,5.4C557.9,423.9,557.9,425.3,557.9,426.7L557.9,426.7z"/>
	<path class="st1" d="M443.6,511.4c-11.5-11.3-23.1-22.6-34.4-34.1c-1.9-1.9-4.1-5.7-3.5-7.7c5.7-17.8,0.3-34.7-7.3-49.7
		c-15.9-31.7-34.3-62.1-51.6-93.2c-1.2-2-1.9-4.3-2.9-6.5c17.9-3.7,20.3-3,29.2,12.1c16.4,28,32.6,56.1,48.5,84.5
		c7.2,12.8,15.3,25.4,19.8,39.1c4.8,14.8,6.1,30.8,8.2,46.4c0.4,2.9-2.5,6.2-4,9.2C445,511.4,444.3,511.4,443.6,511.4L443.6,511.4z
		 M337.7,100.6c19.4,9.6,26.5,16.7,32.4,34.2c-10.8-3.9-20.4-6.1-28.7-10.6c-11-5.9-28.1-6.8-38,1.4c-9.5,7.9-12.2,18.8-10.7,31.2
		c3.9,30.9,20.6,56.8,32.4,84.6c3.1,7.4,6.2,15,9.4,23c-7.4,2-13.6,3.7-21.1,5.8c-7.4-17.2-15.2-34.4-22.2-51.9
		c-5.6-14.2-11.9-28.5-14.6-43.4c-7.6-41.8-1-57.9,35.7-74.6C320.8,100.6,329.2,100.6,337.7,100.6z"/>
	<path class="st1" d="M274.2,197.4c5.7,14.4,10,25.1,14.5,36.5c-10.7,2.1-21.4,4.2-32,6.5c-2.6,0.6-5.7,1.3-7.5,3
		c-6.2,5.6-13.4,11.2-10.4,21.1c3,10.1,12.1,13.4,21.1,13.6c13.5,0.3,27.2-0.8,40.7-2.3c37.4-3.8,74.9-8,111.6,3
		c12.5,3.8,25,10.1,32.1,22.5c6.8,12,6.9,24.7,1.7,37.4c-7.9,19-15,26.2-37.5,37.5c-6-10.1-12-20.2-18.3-30.7
		c1.4-0.8,2.4-1.1,3.1-1.6c6.8-4.7,13.9-11.2,11.6-19.3c-2.5-9.1-11.7-14.6-21.5-14.4c-28.2,0.8-56.5,3.6-84.7,3.7
		c-23.3,0.1-47.3,0.3-69.6-5.1c-21.5-5.2-35.9-23.3-36.9-46.2c-0.8-20.3,7-39.2,27.7-47.7C237.5,208,255.9,203.3,274.2,197.4
		L274.2,197.4z"/>
	<path class="st0" d="M426.6,206.1c-22.7-13.4-47.5-20.1-73.1-24.9c-13.5-2.5-27.6-2.5-41.2-4.7c-3.8-0.6-7.1-4.8-10.3-7.7
		c-0.8-0.7-0.3-2.7-0.4-4.1c-1.8-30.3-1.8-30.3,28.3-30.3c29.6-0.1,57.7,7.4,85.2,17.4c16.7,6,33.1,12.3,50,17.8
		c16.1,5.2,37.4-5.1,46.5-21.7c2.1-3.9,4.4-7.7,6.9-12.2c11.4,7.4,22.2,14.3,33.7,21.6c-21.7,34.8-41,70.2-45.4,113.4
		c-15.8-27.6-38.8-44.8-65.4-57.6C436.5,210.8,431.6,208.5,426.6,206.1L426.6,206.1z"/>
	<path class="st1" d="M426.6,206.1c4.9,2.4,9.9,4.7,14.8,7c0,1.1,0.3,2.2-0.1,3.1c-5.2,14.4-10.4,28.7-15.7,43.4
		c-25.2-16.2-54-19.5-81.9-25.2c-11.4-2.3-19.9-4.1-22.1-17.2c-1.2-6.8-5.2-13.1-9.1-22.7c14.9,2.1,27.3,3.6,39.7,5.7
		c19.6,3.2,39.1,7.3,58.7,9.9C416,210.8,421.4,207.6,426.6,206.1z M278.4,456.6c6.9,3,14.5,5,20.7,9.2c13.2,9,26.9,10.4,40.8,4
		c14.2-6.6,20-19.6,20.8-34.4c0.8-13.7,0.2-27.5,0.2-41.6c-9.7-1.2-19.3-2.4-32.1-3.9c4.7-10.7,7.6-21.3,13.6-29.7
		c5.4-7.5,13.5-3.7,18.3,2.6c5.7,7.6,11,15.8,14.9,24.4c2.4,5.3,2.5,12,2.3,18.1c-0.2,10.4-1.6,20.8-2,31.2
		c-1.3,34.9-19.4,51.8-50.4,55.2C306.3,493.7,289.7,488.7,278.4,456.6L278.4,456.6z M212.4,392.8c-4.8-3-9.6-5.9-14.5-8.8
		c1.4-5.2,3.9-10.4,4.1-15.6c0.5-16.4,0.2-32.8,0.2-48.3c22.7,12,45.1,23.8,69.9,36.8c-1.1,7.2-2.9,18.2-4.6,29.3
		c-13.7-0.7-26.5-1.3-39.3-1.8C221.3,384,215.5,385.9,212.4,392.8L212.4,392.8z M288.6,323.2h20.1c-5.9,26.3-11.7,52.4-17.9,78.5
		c-0.5,2.3-4.9,4.3-7.8,5c-2.4,0.5-5.2-1.1-10-2.4C278.2,377.6,283.4,350.6,288.6,323.2L288.6,323.2z"/>
	<path class="st1" d="M352,349.5c-33.8,7.5-23.6,38.9-32.7,60.2c-4-0.9-8.3-1.9-13.5-3.1c3.3-21.4,3.6-43.7,19-61.1
		C338,330.7,343.7,331.9,352,349.5z"/>
	<path class="st0" d="M383,449.5c1-14.2,1.8-25.4,2.7-39.5c4.9,7.4,9,12,11.2,17.2c2.1,5,5,12.7,2.7,15.8
		C396.8,446.9,389.2,447.3,383,449.5L383,449.5z"/>
	<path class="st1" d="M345,185.3c6.7,0.9,14.3-0.6,16.4,9.2C348.1,195.8,344.3,193.8,345,185.3z"/>
</g>
</svg>
