<svg xmlns="http://www.w3.org/2000/svg" width="192" height="192" data-name="Layer 1" viewBox="0 0 192 192">
    <g class="color-brown color-main" fill="#4e3e33">
        <path d="M96 172.24249A76.24249 76.24249 0 1 0 19.75751 96 76.291394 76.291394 0 0 0 96 172.24249zm0-7.62914a68.466636 68.466636 0 1 1 68.466636-68.466636A68.466636 68.466636 0 0 1 96 164.61335zm0-7.62914a60.544068 60.544068 0 0 0 23.572084-4.890473 12.17728 12.17728 0 0 0-4.499236-9.780948c-4.890474-3.91238-14.96485-1.662762-15.258279-1.516047l3.863475-45.139075v-31.88589s21.76261-.586858 21.76261-1.027l4.107997-18.77942C119.180847 36.042788 110.035661 35.015788 96 35.015788c-14.03566 0-23.180847.978095-33.499747 8.998472l3.374427 19.17066s22.447276.586857 22.49618.635762v32.228223l3.863475 45.139076a22.6918 22.6918 0 0 0-14.671422 1.907284 12.959756 12.959756 0 0 0-4.890474 9.242996 60.544068 60.544068 0 0 0 23.32756 4.64595zm30.174224-8.020377a60.886401 60.886401 0 0 0 12.568519-96.244528l-10.465615 10.954662a45.872646 45.872646 0 0 1-9.536424 71.938872zm-60.348449 0l7.237902-13.350994a45.872646 45.872646 0 0 1-9.536425-71.938872L53.061638 52.719305a60.886401 60.886401 0 0 0 12.715232 96.244528z"/>
        <path d="M96 172.487013A76.487013 76.487013 0 1 1 172.487013 96 76.584823 76.584823 0 0 1 96 172.487013zm0-152.48498A75.997966 75.997966 0 1 0 171.997966 96 76.095775 76.095775 0 0 0 96 20.002034zm0 144.85584A68.857874 68.857874 0 1 1 164.857874 96 68.955683 68.955683 0 0 1 96 164.857874zm0-137.2267a68.466636 68.466636 0 1 0 68.466636 68.466636A68.466636 68.466636 0 0 0 96 27.631173zm0 129.597561a60.690782 60.690782 0 0 1-23.669894-4.890474 13.253185 13.253185 0 0 1 5.232807-9.438615 22.349466 22.349466 0 0 1 14.671422-2.005094l-3.81457-44.796742V64.0163h-3.472237a142.214984 142.214984 0 0 1-18.975039-.586856l-3.423331-19.268468c10.807947-8.411615 20.344371-9.047377 33.695365-9.047377 13.350994 0 22.838514.635762 33.695366 9.047377l-4.107998 18.77942c0 .342334 0 .489048-15.89404.978095h-5.86857v31.9837l-3.814569 44.796742c1.907285-.391238 10.41671-1.95619 15.16047 1.662761a12.519613 12.519613 0 0 1 4.64595 9.780948A60.690782 60.690782 0 0 1 96 157.27764zm-23.327561-5.183902a60.592973 60.592973 0 0 0 46.606217 0 11.932757 11.932757 0 0 0-4.401427-9.242996c-4.890474-3.91238-14.915945-1.516047-15.013755-1.467142h-.391238v-.391238l3.863475-45.139075V63.771776c0-.293428 0-.293428 6.40652-.489047 5.379522 0 14.280185-.440143 15.404994-.684667l4.059093-18.485991C119.42537 36.531836 111.013755 35.260313 96 35.260313c-15.013755 0-23.474275 1.271523-33.255223 8.851758l3.325522 18.87723c1.467142 0 12.910851.391237 18.534896.489047h3.863475V95.80438l3.863474 45.481408h-.342333a22.49618 22.49618 0 0 0-14.671422 1.85838 12.715232 12.715232 0 0 0-4.64595 8.949568zm53.403976-2.738666l-7.384616-13.546613a45.579218 45.579218 0 0 0 9.438615-71.547634l10.612329-11.883852a60.788592 60.788592 0 0 1 18.192563 43.476314 61.522163 61.522163 0 0 1-30.9567 53.208357zm-6.895569-13.595517l7.091188 12.813042a60.98421 60.98421 0 0 0 30.467653-52.6215 60.25064 60.25064 0 0 0-17.996945-42.840553l-9.780948 10.612329a46.11717 46.11717 0 0 1-9.780948 72.036682zm-53.257261 13.595517A61.522163 61.522163 0 0 1 34.72236 96a60.788592 60.788592 0 0 1 18.192563-43.476314l10.612328 11.15028a45.628122 45.628122 0 0 0 9.683139 71.743254zM53.110543 53.061638A60.25064 60.25064 0 0 0 35.260313 96a60.98421 60.98421 0 0 0 30.467653 52.52369l6.993378-12.861946a46.11717 46.11717 0 0 1-9.536425-72.036682z"/>
    </g>
    <path class="color-white" fill="#fff" stroke-width="4.890474" d="M95.90219 50.029544l-6.993378-6.993378 6.993378-6.993378 6.99338 6.993378zm-5.379522-6.993378l5.379522 5.379521 5.37952-5.379521-5.37952-5.379521zM95.999999 153.8054l-6.993378-6.99338 6.993378-6.99337 6.993381 6.99337zm-5.379521-6.99338l5.379521 5.37953 5.379521-5.37953-5.379521-5.37952zm26.653082-86.805909l-8.75395-8.753949 8.75395-8.753948 8.75395 8.753948zm-6.74885-8.753949l6.74885 6.748854 6.79776-6.748854-6.74885-6.748854z"/>
    <path class="color-white" fill="#fff" stroke-width="4.890474" d="M108.32399 61.375443L97.907284 50.71421l10.416706-10.269995 10.46562 10.269995zm-8.02037-10.661233l8.02037 8.020377 8.06929-8.020377-8.06929-7.824758zm-25.723896 8.607234l-8.753949-8.607234 8.753949-8.753948 8.753948 8.753948zm-6.748855-8.607234l6.748855 6.748854 6.748854-6.748854-6.748854-6.748854z"/>
    <path class="color-white" fill="#fff" stroke-width="4.890474" d="M83.480386 61.375443L73.014772 50.71421l10.465614-10.269995L93.946 50.71421zM75.460009 50.71421l8.020377 8.020377 8.020377-8.020377-8.020377-7.824758zm19.95313-2.054h1.124809v104.31381h-1.124809z"/>
    <path class="color-brown color-main" fill="#4e3e33" stroke-width="4.890474" d="M106.66123 115.5619a1.76057 1.76057 0 0 1 .63576-1.027 1.711666 1.711666 0 0 1 1.12481-.63577 1.369333 1.369333 0 0 1 .9781.39124 1.027 1.027 0 0 1 0 .73357 6.50433 6.50433 0 0 1 0 .68467 7.237902 7.237902 0 0 0 0 .78248 2.934284 2.934284 0 0 0 0 .78247 1.95619 1.95619 0 0 0 .34233.68467 10.612329 10.612329 0 0 0 2.59195 1.95619l1.80948 1.12481a7.042282 7.042282 0 0 0 .44014-1.51605 9.780948 9.780948 0 0 0 0-1.71167 3.032094 3.032094 0 0 0 0-1.56495l-.88028-.39124v-.68466a4.156903 4.156903 0 0 0 .78247-.68467 1.564952 1.564952 0 0 1 1.07591-.58686 2.347427 2.347427 0 0 1 .92919 0 .733571.733571 0 0 1 .48904.68467c0 .73357-.29343 1.32043-.34233 1.76057a21.469181 21.469181 0 0 0-.39124 3.52114 4.890474 4.890474 0 0 0 0 1.027l1.80948-2.1029 2.054-2.49414-.63577-.58686a.586857.586857 0 0 1 0-.39124 1.467142 1.467142 0 0 1 .53796-1.027 1.85838 1.85838 0 0 1 1.32042-.58685 1.516047 1.516047 0 0 1 .83139.29342 1.271523 1.271523 0 0 1 .58685 1.12481q0 .78248-2.1029 3.0321a22.447276 22.447276 0 0 1-3.81457 3.42333v.63576a11.786042 11.786042 0 0 1 4.108 2.54305 3.472237 3.472237 0 0 1 1.0759 2.39633 2.200713 2.200713 0 0 1-.34233 1.32043l-.9781.92919h-.88028v-.58686a3.472237 3.472237 0 0 1 0-.48905 1.320428 1.320428 0 0 1 0-.58685 2.005094 2.005094 0 0 0 .29343-.73358 1.613856 1.613856 0 0 0-.68467-1.1248 21.175752 21.175752 0 0 0-3.27662-2.20072v1.41824a11.883852 11.883852 0 0 0 0 1.22262 6.259807 6.259807 0 0 0 0 1.51605l.39124 1.32042a.782476.782476 0 0 1 0 .53796l-.88029.73357h-2.00509a.782476.782476 0 0 0 0-.34234.733571.733571 0 0 1 0-.29343.83138.83138 0 0 1 .39124-.63576q.88028-.68466.88028-3.081a4.890474 4.890474 0 0 0 0-1.22261l-.63576-.78248q-1.41824 1.51605-2.054 2.34743a1.809475 1.809475 0 0 0-.44014.83138v.24452a1.564952 1.564952 0 0 1 0 .44014 2.591951 2.591951 0 0 1 0 .78248 11.150281 11.150281 0 0 1-.53795 1.27152h-1.85838v-1.95619a15.356088 15.356088 0 0 1 1.80947-2.88538l3.081-2.05399a11.394804 11.394804 0 0 0-2.98319-1.85838 13.302089 13.302089 0 0 1-3.1788-1.95619 4.890474 4.890474 0 0 1-1.46715-3.71676z"/>
    <path class="color-brown color-main" fill="#4e3e33" stroke-width="4.890474" d="M115.46409 130.77127h-2.29853v-.24452a.978095.978095 0 0 1 0-.44015 1.075904 1.075904 0 0 1 .48905-.83138c.53795-.39124.78248-1.36933.78248-2.88538a4.401427 4.401427 0 0 0 0-1.17371v-.34233c-.83138.88028-1.36934 1.56495-1.76057 2.00509-.39124.44014-.39124.63576-.39124.68467a1.85838 1.85838 0 0 1 0 .48904 2.78757 2.78757 0 0 1 0 .88029 11.443709 11.443709 0 0 1-.53795 1.27152h-2.20072v-2.29852a14.671422 14.671422 0 0 1 1.85838-2.93428l2.98319-2.0051a13.742232 13.742232 0 0 0-2.68976-1.61386 13.399899 13.399899 0 0 1-3.22771-2.00509 5.183902 5.183902 0 0 1-1.56495-3.86347 1.907285 1.907285 0 0 1 .68466-1.17372 1.907285 1.907285 0 0 1 1.27153-.73357 1.564952 1.564952 0 0 1 1.12481.29343 1.222619 1.222619 0 0 1 .29342.92919 6.357616 6.357616 0 0 1 0 .73357 6.455426 6.455426 0 0 0 0 .78248 2.591951 2.591951 0 0 0 0 .68466 1.662761 1.662761 0 0 0 .29343.58686 9.780948 9.780948 0 0 0 2.54305 1.90728l1.56495.9781a10.612329 10.612329 0 0 0-.39124-1.27152 9.780948 9.780948 0 0 0 0-1.71167v-1.41824l-.78247-.34233v-.9781a4.254712 4.254712 0 0 0 .78247-.44014 1.76057 1.76057 0 0 1 1.27153-.68466 2.591951 2.591951 0 0 1 1.027 0 .978095.978095 0 0 1 .63576.92919c0 .78247-.29343 1.36933-.34234 1.80947a21.224657 21.224657 0 0 0-.39123 3.47224v.48905l1.46714-1.66277 1.90728-2.29852-.48904-.44014a.83138.83138 0 0 1-.29343-.58686 1.711666 1.711666 0 0 1 .63576-1.22262 1.85838 1.85838 0 0 1 2.44524-.34233 1.516047 1.516047 0 0 1 .68466 1.32043c0 .39124 0 1.12481-2.15181 3.17881a23.229751 23.229751 0 0 1-3.76566 3.37442v.34234a11.932756 11.932756 0 0 1 4.05909 2.54304 3.71676 3.71676 0 0 1 1.17372 2.54305 2.445237 2.445237 0 0 1-.39124 1.46714l-.9781.9781h-1.17371v-.58686a3.961284 3.961284 0 0 1 0-.53795 1.467142 1.467142 0 0 1 0-.68467 1.662761 1.662761 0 0 0 0-.58686 1.418238 1.418238 0 0 0-.58686-.92919 19.561896 19.561896 0 0 0-2.93428-2.00509v1.027a11.541519 11.541519 0 0 0 0 1.22262 6.455426 6.455426 0 0 0 0 1.46714l.39124 1.32043a1.027 1.027 0 0 1-.29343.68466 6.015283 6.015283 0 0 1-.92919.78248zm-1.85838-.48905h1.71166l.78248-.63576a.586857.586857 0 0 0 0-.34233l-.39124-1.27153a6.895568 6.895568 0 0 1 0-1.61385 12.519613 12.519613 0 0 1 0-1.27153v-1.76057h.29343a21.029038 21.029038 0 0 1 3.32552 2.24962 1.85838 1.85838 0 0 1 .73357 1.27153 2.054 2.054 0 0 1-.29343.83138.978095.978095 0 0 0 0 .48904 3.423332 3.423332 0 0 0 0 .44015v.29342h.58686l.92919-.88028a2.102904 2.102904 0 0 0 .24452-1.12481 3.227713 3.227713 0 0 0-1.027-2.20071 11.639328 11.639328 0 0 0-4.05909-2.49415v-.92919a22.49618 22.49618 0 0 0 3.81457-3.37442c1.76057-1.90729 2.00509-2.59195 2.00509-2.83648a1.027 1.027 0 0 0-.48904-.92919 1.369333 1.369333 0 0 0-1.85838.29343 1.271523 1.271523 0 0 0-.48905.83138l.63576.58686c-.44014.63576-1.17371 1.46714-2.054 2.49414l-1.80947 2.1029-.34234.34234v-.48905a5.183902 5.183902 0 0 1 0-1.12481 21.713704 21.713704 0 0 1 .39124-3.52114c0-.44014 0-1.027.34234-1.76057.34233-.73357 0-.29343-.39124-.44014a2.102904 2.102904 0 0 0-.83138 0 1.320428 1.320428 0 0 0-.88029.53795l-.73357.63576v.39124c.68467.29343.73357.34233.83138.44014.0978.0978.29343.48905.29343 1.71167a10.123281 10.123281 0 0 1 0 1.76057 6.553235 6.553235 0 0 1-.44014 1.61385l-1.76057-1.12481a10.661233 10.661233 0 0 1-2.68976-2.00509 2.151809 2.151809 0 0 1-.58686-.24452 2.98319 2.98319 0 0 1 0-.83138 7.43352 7.43352 0 0 1 0-.83138 4.890474 4.890474 0 0 0 0-.63577.782476.782476 0 0 0 0-.63576h-.78248a1.516047 1.516047 0 0 0-.92919.58686c-.48904.48905-.53795.78247-.53795.83138a4.597046 4.597046 0 0 0 1.41824 3.52114 13.057566 13.057566 0 0 0 3.081 1.90729 11.541519 11.541519 0 0 1 3.03209 1.90728l-3.22771 2.15181a14.671422 14.671422 0 0 0-1.71167 2.73866v1.66277h1.36933a10.221091 10.221091 0 0 0 .48905-1.07591 2.347427 2.347427 0 0 0 0-.68466 1.418238 1.418238 0 0 0 0-.34234v-.34233a1.85838 1.85838 0 0 1 .48905-.9781c.39124-.53795 1.0759-1.32042 2.054-2.34742l.29343-.34234-.14672.58686.24453.73357a4.890474 4.890474 0 0 1 0 1.32043c0 1.71167-.34234 2.78757-.9781 3.27662-.63576.48904-.29343.29343-.29343.44014zm-3.32553-35.553744a3.423332 3.423332 0 0 1 .53796-1.613857q.68466-1.173713 1.51604-1.173713l2.054.684666 3.61895 1.418238q1.95619.83138 1.95619 1.124809s-.73357.92919-2.20071 2.151808l-3.57005 2.885383a5.966378 5.966378 0 0 0 1.95619.88028 10.759043 10.759043 0 0 0 3.12991.48905v1.12481l-4.89048 3.76566-2.20071 1.90729-.63576.53795h-.83138v-8.55833q0-2.494141-.34234-4.303616a6.993378 6.993378 0 0 0-.0978-1.320428zm2.49415 0v4.841569l2.1029-1.516047 2.054-1.662761a14.671422 14.671422 0 0 1-2.10291-.733571 16.725421 16.725421 0 0 0-2.05399-.92919zm.48904 7.824754v2.98319l1.76057-1.027a8.069282 8.069282 0 0 0 1.46715-1.27152 3.227713 3.227713 0 0 1-1.027 0 10.3189 10.3189 0 0 0-2.20072-.73357z"/>
    <path class="color-brown color-main" fill="#4e3e33" stroke-width="4.890474" d="M111.74733 109.3999h-.83138v-8.55833c0-1.662763 0-3.081-.34234-4.303619v-1.809475a3.61895 3.61895 0 0 1 .58686-1.711666 2.102904 2.102904 0 0 1 1.71166-1.271523 12.323994 12.323994 0 0 1 2.15181.733571l3.61895 1.418237c1.95619.831381 2.10291 1.124809 2.10291 1.369333 0 .244524 0 .635762-2.29852 2.347428l-3.32553 2.689764a7.091187 7.091187 0 0 0 1.61386.68466 10.612329 10.612329 0 0 0 3.03209.48905h.24453v1.51605l-4.64595 3.76566-2.20072 1.90729c-1.27152.73357-1.27152.73357-1.41823.73357zm-.53796-.68467h.29343l.53795-.48905 2.20072-1.90728 4.54814-3.71676v-.53795a11.3459 11.3459 0 0 1-2.93429-.48905 6.113092 6.113092 0 0 1-2.054-.92919l3.81457-3.080999a11.101376 11.101376 0 0 0 2.10291-1.95619 6.944473 6.944473 0 0 0-1.76057-.92919l-3.66786-1.613856-2.00509-.684667c-.44014 0-.88029.342334-1.27153 1.027a3.325522 3.325522 0 0 0-.48904 1.418237 9.780948 9.780948 0 0 1 0 1.222619c0 1.222618.24452 2.640856.34233 4.303616.29343 2.49414.34233 5.28171.34233 8.41162zm1.80948-2.88538v-3.71676h.29343a10.514519 10.514519 0 0 1 2.24962.58686 2.88538 2.88538 0 0 0 .92919 0h.58685l-.39124.44014a8.509425 8.509425 0 0 1-1.51604 1.32043l-1.76057 1.027zm.48905-3.1299v2.29852l1.36933-.83138a7.43352 7.43352 0 0 0 1.0759-.83138h-.53795a10.661233 10.661233 0 0 0-1.90728-.53795zm-.68467-2.836476v-5.379522h.29343a16.82323 16.82323 0 0 1 2.34743.92919 15.160469 15.160469 0 0 0 2.054.684667h.44014l-.39124.293428-2.054 1.662761-2.1029 1.564952zm.24452-4.890474v4.059093l1.71167-1.271523 1.71167-1.369333-1.66277-.586857zm-4.25471-22.936323c0-.244524 0-.537952.58686-.782476l1.0759-.586857h1.95619a6.015283 6.015283 0 0 1 0 .782476 2.298523 2.298523 0 0 1 0 .733571v.537952q0 .440143 1.41824 1.124809a42.742743 42.742743 0 0 0 4.108 1.662762V74.3352a1.222619 1.222619 0 0 0-.29343-.635762l-.63576-.83138a2.591951 2.591951 0 0 1 .68466-1.124809 2.396332 2.396332 0 0 1 1.85838-1.075905 1.369333 1.369333 0 0 1 .92919.391238 1.222619 1.222619 0 0 1 .44015.978095 7.726949 7.726949 0 0 0-.48905 1.222619 5.77076 5.77076 0 0 0 0 1.809475l-.48905 9.780947.53795 1.075905a2.298523 2.298523 0 0 1 0 .880285.978095.978095 0 0 1-.39123.831381 2.68976 2.68976 0 0 1-1.56496.342333h-1.95618v-.684667s.34233-.684666.97809-1.369332a1.418238 1.418238 0 0 0 .48905-.92919q0-.537952-3.27662-1.662761a15.698421 15.698421 0 0 1-2.29852-.880285 3.472237 3.472237 0 0 0 0 .635761 7.678044 7.678044 0 0 0 0 .782476 13.448803 13.448803 0 0 0 .29343 2.543046v.586857a1.027 1.027 0 0 1-.58686.831381 2.68976 2.68976 0 0 1-1.46714.391237 2.151809 2.151809 0 0 1-1.027 0s-.29343-.440142-.29343-.880285a5.526236 5.526236 0 0 0 .68466-1.564951 12.226185 12.226185 0 0 0 .29343-3.129903 58.29445 58.29445 0 0 0-.68466-7.482426 11.541519 11.541519 0 0 0-.58686-2.738665c-.14671-.195619-.24452-.391238-.29343-.391238zm3.081 3.570046v4.450331l1.76057.635762 3.61895 1.320428v-4.107998l-2.54305-1.075904z"/>
    <path class="color-brown color-main" fill="#4e3e33" stroke-width="4.890474" d="M118.44728 88.077431h-1.95619v-.684666s0-.586857 1.027-1.516047a1.173714 1.173714 0 0 0 .39123-.782476s-.29343-.440142-3.081-1.418237l-2.00509-.782476a2.88538 2.88538 0 0 0 0 .293429 6.113092 6.113092 0 0 0 0 .733571 13.253184 13.253184 0 0 0 .24452 2.543046v.586857a1.222619 1.222619 0 0 1-.68466 1.075904 2.934284 2.934284 0 0 1-1.61386.391238 2.298523 2.298523 0 0 1-1.17371 0c-.29343 0-.44015-.537952-.44015-1.075904a5.330617 5.330617 0 0 0 .24453-2.494142 11.981661 11.981661 0 0 0 .29343-3.032093 58.685688 58.685688 0 0 0-.29343-6.748855 11.150281 11.150281 0 0 0-.58686-2.68976v-.635762c0-.342333 0-.684666.73357-.978095h.24453l.83138-.440142h2.29852a5.281712 5.281712 0 0 1 0 .83138 2.543046 2.543046 0 0 1 0 .782476v.489047s0 .342334 1.27152.880286a39.857363 39.857363 0 0 0 3.81457 1.516047v-.880286a1.613856 1.613856 0 0 0-.24452-.440142l-.63576-.782476s0-.489047.73357-1.271523a2.640856 2.640856 0 0 1 2.054-1.173714 1.613856 1.613856 0 0 1 1.0759.440143 1.467142 1.467142 0 0 1 .48905 1.124809 7.580235 7.580235 0 0 0-.48905 1.173713 5.624045 5.624045 0 0 0 0 1.711666l-.48905 9.780948.48905 1.026999a2.445237 2.445237 0 0 1 .24453.978095 1.173714 1.173714 0 0 1-.48905 1.027 2.88538 2.88538 0 0 1-2.29852.440142zm-1.76058-.733571h1.80948a2.494142 2.494142 0 0 0 1.36933-.293428.733571.733571 0 0 0 .29343-.635762 2.054 2.054 0 0 0 0-.782476l-.97809-.684666.48904-9.780948a5.868569 5.868569 0 0 1 .24453-1.85838 7.971473 7.971473 0 0 1 .48904-1.173713.978095.978095 0 0 0-.34233-.733572 1.124809 1.124809 0 0 0-.73357-.293428 2.151809 2.151809 0 0 0-1.66276.978095 3.667855 3.667855 0 0 0-.58686.880285l.58686.733571a1.369333 1.369333 0 0 1 .34233.782476l-.29343 1.516047h-.24452a42.3026 42.3026 0 0 1-4.108-1.662761c-1.0759-.537952-1.56495-.92919-1.56495-1.320428v-.537952a2.200713 2.200713 0 0 0 0-.635762 4.890474 4.890474 0 0 0 0-.537952h-1.66276l-.78248.391238a1.124809 1.124809 0 0 0-.44014.440143 2.054 2.054 0 0 1 .29343.537952 11.394804 11.394804 0 0 1 .58686 2.836475 59.957211 59.957211 0 0 1 .29342 6.699949 12.323994 12.323994 0 0 1-.29342 3.178808 6.064188 6.064188 0 0 1-.68467 1.564951v.586857a1.85838 1.85838 0 0 0 .92919 0 2.396332 2.396332 0 0 0 1.32043-.342333c.29343 0 .48905-.391238.48905-.586857a4.890474 4.890474 0 0 1 0-.586857 13.644422 13.644422 0 0 1-.29343-2.591951 8.069282 8.069282 0 0 1 0-.782475 4.059093 4.059093 0 0 1 0-.684667v-.293428h.29343a15.89404 15.89404 0 0 0 2.24961.880285c3.0321 1.027 3.42334 1.516047 3.42334 1.907285a1.613856 1.613856 0 0 1-.53796 1.124809c-.73357.782475-.88028 1.075904-.88028 1.173713zm1.027-4.890473h-.29342l-3.61896-1.320428-1.80947-1.075905V75.16658h.34233l3.27662 1.271524 2.54305 1.075904zm-5.42842-2.396333l1.61385.586857 3.32553 1.222619v-3.570046l-2.39634-.978095-2.93428-1.124809zM84.605195 119.18085a13.302089 13.302089 0 0 1-3.178808 1.95619 11.394804 11.394804 0 0 0-2.983189 1.85838l3.227713 2.1518a15.356088 15.356088 0 0 1 1.809475 2.88538v1.95619h-1.76057a11.150281 11.150281 0 0 1-.537953-1.27152 2.591951 2.591951 0 0 1 0-.78248 1.564952 1.564952 0 0 1 0-.44014v-.24452a1.809475 1.809475 0 0 0-.440142-.83138q-.586857-.78248-2.053999-2.34743l-.244524.73357a4.890474 4.890474 0 0 0 0 1.22262q0 2.39633.880285 3.081a.83138.83138 0 0 1 .391238.63576.733571.733571 0 0 1 0 .29343.782476.782476 0 0 0 0 .34233h-2.005094l-.880285-.73357a.782476.782476 0 0 1 0-.53795l.391238-1.32043a6.259807 6.259807 0 0 0 0-1.51605 11.883852 11.883852 0 0 0 0-1.22261v-1.41824a21.175752 21.175752 0 0 0-3.276618 2.20071 1.613856 1.613856 0 0 0-.684666 1.12481 2.005094 2.005094 0 0 0 .293428.73357 1.320428 1.320428 0 0 1 0 .58686 3.472237 3.472237 0 0 1 0 .48905v.58685h-.880285l-.978095-.92919a2.200713 2.200713 0 0 1-.342333-1.32043 3.472237 3.472237 0 0 1 1.075904-2.39633 11.786042 11.786042 0 0 1 4.107998-2.54304v-.63577a22.447276 22.447276 0 0 1-3.81457-3.42333q-2.102903-2.24962-2.102903-3.03209a1.271523 1.271523 0 0 1 .586857-1.12481 1.516047 1.516047 0 0 1 .83138-.29343 1.85838 1.85838 0 0 1 1.320428.58686 1.467142 1.467142 0 0 1 .537952 1.027.586857.586857 0 0 1 0 .39123l-.635761.58686 2.053999 2.49414 1.809475 2.10291a4.890474 4.890474 0 0 0 0-1.027 21.469181 21.469181 0 0 0-.391238-3.52114c0-.44015 0-1.027-.342333-1.76057a.733571.733571 0 0 1 .489047-.68467 2.347427 2.347427 0 0 1 .92919 0 1.564952 1.564952 0 0 1 1.075905.58686 4.156903 4.156903 0 0 0 .782475.68466v.68467l-.880285.39124a3.032094 3.032094 0 0 0 0 1.56495 9.780948 9.780948 0 0 0 0 1.71166 7.042282 7.042282 0 0 0 .440143 1.51605l1.809475-1.12481a10.612329 10.612329 0 0 0 2.591951-1.95619 1.95619 1.95619 0 0 0 .342334-.68466 2.934284 2.934284 0 0 0 0-.78248 7.237902 7.237902 0 0 0 0-.78248 6.50433 6.50433 0 0 1 0-.68466 1.027 1.027 0 0 1 0-.73357 1.369333 1.369333 0 0 1 .929189 0 1.711666 1.711666 0 0 1 1.124809.63576 1.76057 1.76057 0 0 1 .635762 1.027 4.890474 4.890474 0 0 1-2.053999 3.27662z"/>
    <path class="color-brown color-main" fill="#4e3e33" stroke-width="4.890474" d="M79.616912 130.77127H77.22058a5.868569 5.868569 0 0 1-.929191-.78248 1.027 1.027 0 0 1-.293428-.68466l.391238-1.32043a6.015283 6.015283 0 0 0 0-1.46714 11.541519 11.541519 0 0 0 0-1.22262v-1.027a19.561896 19.561896 0 0 0-2.934284 2.00509 1.418238 1.418238 0 0 0-.586857.92919 1.711666 1.711666 0 0 0 0 .58686 1.467142 1.467142 0 0 1 0 .68467 3.765665 3.765665 0 0 1 0 .53795v.58686h-1.173714l-.978095-.92919a2.445237 2.445237 0 0 1-.391238-1.51605 3.71676 3.71676 0 0 1 1.173714-2.54305 11.981661 11.981661 0 0 1 4.059093-2.54304v-.34234a23.229751 23.229751 0 0 1-3.765665-3.37442c-1.907284-2.054-2.151808-2.83648-2.151808-3.17881a1.516047 1.516047 0 0 1 .635761-1.36934 1.907285 1.907285 0 0 1 2.445237.34234 1.711666 1.711666 0 0 1 .635762 1.22262.83138.83138 0 0 1-.293428.58685l-.489048.44015 1.907285 2.29852 1.467142 1.71166v-.48904a21.175752 21.175752 0 0 0-.391238-3.47224c0-.44014 0-1.027-.342333-1.76057a.978095.978095 0 0 1 .635762-.97809 2.640856 2.640856 0 0 1 1.026999 0 1.76057 1.76057 0 0 1 1.271524.68466 4.156903 4.156903 0 0 0 .733571.63576v.9781l-.782476.34233a3.129903 3.129903 0 0 0 0 1.36933 9.780948 9.780948 0 0 0 0 1.71167 10.612329 10.612329 0 0 0 .293428 1.22262l1.564952-.9781a9.780948 9.780948 0 0 0 2.543046-1.90728 1.711666 1.711666 0 0 0 .342334-.58686 2.640856 2.640856 0 0 0 0-.68466 6.60214 6.60214 0 0 0 0-.78248 6.210902 6.210902 0 0 1 0-.68467 1.222619 1.222619 0 0 1 .293428-.92919 1.564952 1.564952 0 0 1 1.124809-.29343 1.907285 1.907285 0 0 1 1.271523.73358 1.907285 1.907285 0 0 1 .684666 1.17371 5.183902 5.183902 0 0 1-1.564951 3.86347 13.399899 13.399899 0 0 1-3.227713 2.0051 13.742232 13.742232 0 0 0-2.689761 1.61385l2.934285 1.95619a14.377993 14.377993 0 0 1 1.907285 2.98319v2.29853h-2.200714a10.661233 10.661233 0 0 1-.537952-1.27153 2.738665 2.738665 0 0 1 0-.83138 1.809475 1.809475 0 0 1 0-.48904 2.396332 2.396332 0 0 0-.391238-.63577c-.342333-.44014-.92919-1.12481-1.76057-2.00509v.34233a4.401427 4.401427 0 0 0 0 1.12481c0 1.51605.244523 2.49414.782476 2.88538a1.075904 1.075904 0 0 1 .489047.83138.978095.978095 0 0 1 0 .44014zm-2.151809-.48905h1.711666s0-.29343-.293428-.44014c-.293429-.14671-.978095-1.56495-.978095-3.27662a4.890474 4.890474 0 0 1 0-1.27152l.244524-.73357v-.44015l.293428.34234c.978095 1.0759 1.662761 1.80947 2.053999 2.34743a1.85838 1.85838 0 0 1 .489047.97809v.34233a1.320428 1.320428 0 0 0 0 .34234 2.347427 2.347427 0 0 0 0 .68466 8.998472 8.998472 0 0 0 .489048 1.07591h1.369333v-1.66276a13.986756 13.986756 0 0 0-1.760571-2.73867l-3.178808-2.1029a11.541519 11.541519 0 0 1 3.032094-1.90729 13.057566 13.057566 0 0 0 3.521141-2.64085 4.890474 4.890474 0 0 0 1.418237-3.52115s0-.34233-.537952-.83138a1.516047 1.516047 0 0 0-.92919-.58685H83.6271a.782476.782476 0 0 0 0 .58685 4.890474 4.890474 0 0 0 0 .63577 7.580235 7.580235 0 0 1 0 .83138 3.032094 3.032094 0 0 1 0 .83138 2.200713 2.200713 0 0 1-.391238.73357 10.661233 10.661233 0 0 1-2.68976 2.00509l-1.760571 1.12481a6.553235 6.553235 0 0 1-.440142-1.61385 10.123281 10.123281 0 0 1 0-1.76058c0-1.22261 0-1.56495.293428-1.71166.293428-.14672 0 0 .782476-.39124v-.39124l-1.467142-.83138a1.369333 1.369333 0 0 0-.880286-.53795 2.102904 2.102904 0 0 0-.83138 0c-.342333 0-.342333.34233-.342333.48905 0 .14671.244523 1.27152.342333 1.71166a21.6648 21.6648 0 0 1 .391238 3.52114 5.183902 5.183902 0 0 1 0 1.12481v.48905l-.342334-.34233-2.053999-1.56495c-.880285-1.027-1.564951-1.85838-2.053999-2.49415l.635762-.58685a1.271523 1.271523 0 0 0-.489047-.83138 1.369333 1.369333 0 0 0-1.858381-.29343 1.027 1.027 0 0 0-.489047.92919c0 .24452.244524.97809 2.005094 2.83647a22.007133 22.007133 0 0 0 3.81457 3.37443v.92919a11.639328 11.639328 0 0 0-4.059093 2.49414 3.227713 3.227713 0 0 0-1.027 2.20072 2.005094 2.005094 0 0 0 .293429 1.17371l.880285.83138h.586857v-.78248a3.961284 3.961284 0 0 0 0-.44014.978095.978095 0 0 0 0-.48905 1.907285 1.907285 0 0 1-.293429-.83138 1.85838 1.85838 0 0 1 .733571-1.27152 21.029038 21.029038 0 0 1 3.325523-2.24962h.293428v1.76057a12.519613 12.519613 0 0 1 0 1.27153 6.40652 6.40652 0 0 1 0 1.61385l-.391238 1.27153a.586857.586857 0 0 0 0 .34233zm4.841569-34.184411q0 1.809475-.342333 4.303621v8.55833h-.83138l-.635762-.53796-2.200713-1.90728-4.890474-3.76567v-1.12481a10.759043 10.759043 0 0 0 3.129903-.48904 5.966378 5.966378 0 0 0 1.95619-.88029l-3.325523-2.738664q-2.200713-1.809475-2.200713-2.151809s.635762-.586856 1.95619-1.124809l3.61895-1.418237 2.054-.684666q.83138 0 1.516046 1.173713a3.423332 3.423332 0 0 1 .537953 1.613857 6.993378 6.993378 0 0 0-.342334 1.173714zm-4.64595-.537953a14.671422 14.671422 0 0 1-2.102904.733572l2.053999 1.662761 2.102904 1.516047v-3.080999q0-1.418237.342333-1.662761a16.725421 16.725421 0 0 0-2.347427.83138zm-.391238 7.482424a3.227713 3.227713 0 0 1-1.026999 0 8.069282 8.069282 0 0 0 1.467142 1.27153l1.760571 1.02699v-2.98318a10.3189 10.3189 0 0 0-2.151809.68466z"/>
    <path class="color-brown color-main" fill="#4e3e33" stroke-width="4.890474" d="M81.035149 109.3999l-.83138-.58686-2.200714-1.90728-4.64595-3.76567v-1.56495h.244524a10.563424 10.563424 0 0 0 3.032094-.48905 7.042282 7.042282 0 0 0 1.613856-.68466l-3.325522-2.689765c-2.102904-1.760571-2.298523-2.102904-2.298523-2.347428 0-.244523 0-.537952 2.102904-1.369332l3.618951-1.418238a12.323994 12.323994 0 0 1 2.151808-.733571 2.102904 2.102904 0 0 1 1.711666 1.271523 3.667855 3.667855 0 0 1 .586857 1.711666v1.222619c0 1.173714-.244524 2.640856-.342333 4.303616v8.55833h-.342334zm-7.237901-6.60214l4.548141 3.71676 2.200713 1.90728.537952.48905h.293428v-8.41161c0-1.662766 0-3.129908.342334-4.303622a9.780948 9.780948 0 0 1 0-1.222618 3.374427 3.374427 0 0 0-.489048-1.418238c-.391238-.684666-.83138-1.026999-1.320428-1.026999l-1.956189.684666-3.570046 1.418237a6.993378 6.993378 0 0 0-1.760571.92919 11.150281 11.150281 0 0 0 2.102904 1.95619l3.814569 3.081004a6.064188 6.064188 0 0 1-2.053999.92919 11.24809 11.24809 0 0 1-2.934284.48904zm6.015283 3.081h-.391238l-1.809476-1.36934a8.55833 8.55833 0 0 1-1.516047-1.32042l-.391237-.44015h.586856a2.98319 2.98319 0 0 0 .929191 0 10.269995 10.269995 0 0 1 2.249618-.58685h.293428zm-2.934285-2.49414a7.482425 7.482425 0 0 0 1.075905.83138l1.369332.83138v-2.29853a10.514519 10.514519 0 0 0-1.85838.48905zm3.129904-3.472242l-.391238-.293428-2.102904-1.564952-2.053999-1.662761-.293429-.195619h.440143a14.96485 14.96485 0 0 0 2.053999-.684666 17.018849 17.018849 0 0 1 2.347428-.92919h.04891v4.988283zm-3.863475-3.570046l1.711666 1.369333 1.711666 1.271523v-4.059093l-1.95619.782476zm7.53133-23.767703a11.541519 11.541519 0 0 0-.586857 2.738666 58.29445 58.29445 0 0 0-.293428 6.699949 12.226185 12.226185 0 0 0 .293428 3.129903 5.526236 5.526236 0 0 0 .684667 1.564952c0 .489047 0 .782475-.293429.880285a2.151809 2.151809 0 0 1-1.026999 0 2.68976 2.68976 0 0 1-1.467143-.391238 1.027 1.027 0 0 1-.586856-.831381v-.586856a13.448803 13.448803 0 0 0 .293428-2.543047 7.678044 7.678044 0 0 0 0-.782475 3.472237 3.472237 0 0 0 0-.635762 15.698421 15.698421 0 0 1-2.298523.880285q-3.276617 1.124809-3.276617 1.662762a1.418238 1.418238 0 0 0 .489047.929189q.978095 1.027.978095 1.369333v.684666h-1.95619a2.68976 2.68976 0 0 1-1.564951-.342333.978095.978095 0 0 1-.391238-.831381 2.298523 2.298523 0 0 1 0-.880285l.537952-1.075904-.489048-9.780948a5.77076 5.77076 0 0 0 0-1.809475 7.726949 7.726949 0 0 0-.489047-1.222619 1.222619 1.222619 0 0 1 .440143-.978094 1.369333 1.369333 0 0 1 .92919-.391238 2.396332 2.396332 0 0 1 1.85838 1.075904 2.591951 2.591951 0 0 1 .684666 1.124809l-.978095 1.467142a1.222619 1.222619 0 0 0-.293428.635762v1.173714a42.742743 42.742743 0 0 0 4.107998-1.662762q1.418238-.684666 1.418238-1.124809v-.537952a2.298523 2.298523 0 0 1 0-.733571 6.015283 6.015283 0 0 1 0-.782476h1.956189l1.075904.586857c.391238.244524.586857.537952.586857.782476 0 .244524-.195619.195619-.342333.537952zm-6.064188 4.303617l-2.543046 1.075905v4.107998l3.618951-1.320428 1.76057-.635762v-4.450331z"/>
    <path class="color-brown color-main" fill="#4e3e33" stroke-width="4.890474" d="M82.404482 88.077431a2.934284 2.934284 0 0 1-1.613856-.391238 1.271523 1.271523 0 0 1-.684667-1.026999v-.635762a13.399899 13.399899 0 0 0 .244524-2.543046 5.966378 5.966378 0 0 0 0-.733571 2.934284 2.934284 0 0 0 0-.293428l-2.005094.782475c-2.836475.978095-3.080999 1.369333-3.080999 1.418238a1.173714 1.173714 0 0 0 .391238.733571c.92919.978094 1.026999 1.320428 1.026999 1.516047v.684666h-1.907284a2.88538 2.88538 0 0 1-1.711666-.391238 1.173714 1.173714 0 0 1-.489048-1.027 2.494142 2.494142 0 0 1 .244524-.978094l.489047-1.026999-.489047-9.780948a5.624045 5.624045 0 0 0 0-1.760571 7.53133 7.53133 0 0 0-.489047-1.173714 1.467142 1.467142 0 0 1 .489047-1.124809 1.613856 1.613856 0 0 1 1.075904-.440142 2.640856 2.640856 0 0 1 2.053999 1.173713c.635762.782476.733571 1.075905.733571 1.271524l-.635761.782475c0 .293429-.244524.440143-.244524.489048l-.635762 1.564951a40.590934 40.590934 0 0 0 3.81457-1.516047c1.027-.489047 1.222619-.782475 1.271523-.880285v-.489047a2.543046 2.543046 0 0 1 0-.782476 5.281712 5.281712 0 0 1 0-.831381h2.298523l.831381.440143c.489047.293428.733571.635762.733571.978095v.635761a11.150281 11.150281 0 0 0-.586857 2.689761 58.685688 58.685688 0 0 0-.293429 6.651045 11.981661 11.981661 0 0 0 .293429 3.032093 5.330617 5.330617 0 0 0 .635762 1.516047c0 .586857 0 .92919-.440143 1.075904a2.298523 2.298523 0 0 1-1.320428.391238zm-1.662761-6.40652v.293428a4.059093 4.059093 0 0 1 0 .684667 7.873663 7.873663 0 0 1 0 .782475 13.840041 13.840041 0 0 1-.293429 2.591951v.635762s0 .342333.489048.537952a2.396332 2.396332 0 0 0 1.320428.342333 1.85838 1.85838 0 0 0 .92919 0v-.586857a6.064188 6.064188 0 0 1-.684667-1.564951 12.323994 12.323994 0 0 1-.293428-3.178808 59.957211 59.957211 0 0 1 .635762-7.042283 11.394804 11.394804 0 0 1 .586856-2.836474 2.054 2.054 0 0 1 .293429-.537953 1.173714 1.173714 0 0 0-.489048-.489047l-.782475-.391238h-1.662761a4.890474 4.890474 0 0 0 0 .537952 2.200713 2.200713 0 0 0 0 .635762v.537952c0 .391238-.489048.831381-1.564952 1.320428a43.036171 43.036171 0 0 1-4.107998 1.662761h-.244524l-.293428-1.467142a1.320428 1.320428 0 0 1 .342333-.831381l.586857-.733571a3.667855 3.667855 0 0 0-.586857-.880285 2.151809 2.151809 0 0 0-1.662761-.978095 1.124809 1.124809 0 0 0-.733572.293429.92919.92919 0 0 0-.342333.733571 7.922568 7.922568 0 0 1 .489048 1.173713 5.868569 5.868569 0 0 1 .244523 1.907285l.489048 9.780948-.537952 1.075904a2.102904 2.102904 0 0 0 0 .782476.733571.733571 0 0 0 .293428.635761 2.494142 2.494142 0 0 0 1.418238.293429h1.76057v-.489047s0-.391238-.880285-1.173714a1.613856 1.613856 0 0 1-.537952-1.124809c0-.391238.391238-.880285 3.423332-1.907285a15.89404 15.89404 0 0 0 2.249618-.880285zm-5.575141.733571l-.244523-4.597046 2.543046-1.075904 3.276618-1.271523h.342333v4.890474l-1.760571.635761-3.61895 1.320428zm0-4.303617v3.570046l3.325523-1.222619 1.613856-.586857v-3.912379l-2.934284 1.124809z"/>
    <path class="color-white" fill="#fff" stroke-width="4.890474" d="M84.507385 63.967396h22.838514V65.0433H84.507385zM66.510441 142.21498A57.071831 57.071831 0 0 1 41.569024 102.162a56.33826 56.33826 0 0 1 14.03566-43.623032l1.564952 1.467143a55.066737 55.066737 0 0 0-13.693327 41.911359 54.822213 54.822213 0 0 0 24.012227 38.48803zm58.098829 0l-1.17371-1.80948a54.822213 54.822213 0 0 0 24.01223-38.48803 54.968927 54.968927 0 0 0-13.59552-41.960264l1.56495-1.467142a57.218545 57.218545 0 0 1 14.28018 43.623026 57.071831 57.071831 0 0 1-25.08813 40.10189z"/>
    <path class="color-brown color-main" fill="#4e3e33" stroke-width="4.890474" d="M136.740956 99.191302l-6.155395 6.155396-6.155396-6.155396 6.155396-6.155395z"/>
    <path class="color-brown color-main" fill="#4e3e33" stroke-width="4.890474" d="M130.57565 105.73204l-6.50433-6.553233 6.55324-6.553235 6.35761 6.357616zm-5.81966-6.553233l5.81966 5.819663 5.81966-5.819663-5.81966-5.819664zm-56.892166-.017165l-6.155395 6.155396-6.155396-6.155396 6.155396-6.155396z"/>
    <path class="color-brown color-main" fill="#4e3e33" stroke-width="4.890474" d="M61.717777 105.73204l-6.357617-6.357614 6.553236-6.553235 6.357616 6.357616zm-5.819664-6.553233l5.819664 5.819663 5.819664-5.819663-5.819664-5.819664z"/>
    <circle class="color-stroke-brown color-stroke-main" fill="none" stroke="#4e3e33" stroke-miterlimit="10" stroke-width="4.890474" cx="96" cy="96" r="93.554764"/>
</svg>
