<svg xmlns="http://www.w3.org/2000/svg" viewBox="0 0 612 612">
    <path class="color-black" fill="#0" d="M85.1 351c1.1-2.1 2.1-4.3 3.4-7-8.3-16.6-13.5-34.6-16.8-53.2-8.4-47.2-2.6-92.7 18.2-135.8 36.5-75.8 97.5-120.1 179.6-134 68.3-11.6 131 4.5 186.4 46.2 44.6 33.6 71.4 79.4 83.5 133.4 10.5 47 5.5 92.9-13.7 137.2-1.3 2.9-2.2 5.9-3.2 8.7 6.8 5.2 12.9 9.9 19 14.5-9.6 14-15.5 16.1-35.2 12.5-6.8 7-12.6 14-12.5 25.5.2 31.2-.9 62.4-1.5 94.2-7.9 4-16.5.7-25.4 2.2-3.1 3.9-6.5 8.1-10 12.5 1.7 2.1 3.2 3.9 4.9 6.1-.3 2.2-.7 4.7-1.1 7.5 6.4 9.3 3.9 19.7 3.4 30-.2 4.5-3.3 6.8-7.5 7.8-11.2 2.8-22.7-5.4-23-17.1-.1-6.9-2.3-14.1 3.3-20.5 1.5-1.8 0-6 1.2-8.5 1.4-3 3.6-5.4 1.3-8.8l1.2-1.2c1.7 1.4 3.4 2.7 5.7 4.5 3.5-4.5 7.1-8.8 10.2-13.3 4.3-6.2 9.8-9 17.4-7.9 3.3.5 6.8-.3 11.1-.5v-11.6c.1-21.1.2-42.3.2-63.4v-35.1c0-3.2-.5-5.9-5.8-4.4-.4 35.8.5 71.7-.4 108.5h-21.2c1.9-.7 3.8-1.8 5.7-2 3.7-.4 7.5-.3 11-.4 2.3-19.9 1.5-101.6-1.1-108.7h-13.5c2.8 1.2 4.5 1.7 6.9 2.7-1.2 2.4-2.2 4.5-3.8 7.7-3.5-3.4-6.2-6-9-8.7h-6.4c-8.3 8.1-8.4 8.1-13.1 2.2 1.8-1.5 3.6-2.9 5.4-4.3.3-.6.3-1.2.1-1.7 4.9-2.9 5.2-4.6 1.6-10.3-4.2-2.4-8.4-1.8-12.7-.5-2 .2-4.1.4-7.5.8 1.4 3.6 2.4 6.1 3.5 8.7-.2.6-.3 1.3-.5 1.8l6 6c-1.2 1.5-2.3 3-3.4 4.4-6.1-1.9-8.3-10-16.8-7.1-2.5 1.7-4.6 7.3-10.4 6-3.3-6.1 4.2-5 5-8.3 0-.9.1-1.7.1-2.6 3.4-2.3 2.3-5.3 1.8-9-3.7-.2-6.8-.5-10-.6-3.1-.1-6.2 0-9.9 0 .4 3.8.6 6.3.9 8.8.6 1.7 1.2 3.5 1.7 5.1 1.7 1.1 3.5 2 5.3 3.1-2.8 4.7-6 4.3-8 1.1-2.7-4.2-6-4.3-10.3-3-.9 1.1-1.7 2.4-2.8 3.6-1.3 1.3-2.8 2.4-4.3 3.7-3.5-2.8-4.3-5.3-.9-8.1 3.2.3 3.5-1.5 2.9-4 3.5-2.8 2.4-6.1 1.5-9.4h-16.7c-2.5 4.5-2.8 7.7 2.4 9.6-.2.5-.3 1.1-.1 1.5.6 2 1.2 2.7 4 4.4-.8 1.5-1.5 3.1-2.7 5.6-3.7-2.7-6.6-4.9-10.7-8-5.3 2-11.3 4.4-17.3 6.6-3.7-7.8 5.5-4.7 5.8-8.5-.5-.8-.9-1.4-1.2-1.8 4.5-1.6 3.6-5 3.4-8.8H316c1.5 3.7 2.6 6.3 3.7 8.9 0 .7-.1 1.3-.1 1.9.3 3.1 8 5.5-1.3 10.6-1.5-2.8-3.2-6-4.8-9.3-8.7-2.5-10.6 7.8-17.3 7.7-.7-1.3-1.5-2.5-2.1-3.8 2.1-2.2 3.9-4 5.6-5.8.2-.4.2-.7-.1-1 2.9-2.9 2.8-6.1 1.8-9.5h-20.5c-.1 6.1-.1 6.1 2.8 10.1.1.9.2 1.7.3 2.6 3 .9 5.3 2.1 3 7.3-3.7-2.1-7.1-4.1-11.2-6.6h-7.3c-7.2 5.9-7.2 5.9-12.5 3.1 2-1.5 3.7-2.6 5.3-3.9.1-.1-.8-1.2-1.2-1.8 4.4-2.5 6.9-5.8 4.4-11.8-7.1.1-14.5-2.5-22.5.9.5 2.8.9 5.2 1.4 7.7.6 1.6 1.3 3.4 1.8 5 2.6 1 4.5 2.5 3.6 5.9-3.5 2-6.2.6-8.1-2.3-2.3-3.5-5.4-4.3-9.8-3.2-2.8 4.2-5.9 8.8-12.7 6.9-1.2-4.1.9-5.6 4-6.7 1.1-.3 4.1-.2 1.2-2.4.6-.8 1.2-1.6 1.7-2.4 4.6-2.1 2.4-5.9 2.7-9.9h-23.3c-.5 5.7-.5 5.7 1.8 9.7.1 1 .1 1.9.2 2.9 1.8 1.6 3.6 3.2 5.6 5-.9 1.6-1.5 3-2.6 4.9-2.3-1.2-4.5-1.8-6.2-3.1-1.7-1.4-2.9-3.3-4.2-4.8h-7c-4.4 2.5-6.2 9.2-13.4 6.7 1.2-3 2.1-5.6 3.2-8.3h-13.3c2.3 3.6 4.2 6.3 6.3 9.4-7.6 1.6-11.1-2.2-13.2-7.6h-8.3c-3.6 5.1-7.4 10-16.1 6.7 1-3 1.8-5.6 2.7-8.1h-5.7c-2.3 12.7-4.3 101.9-2.2 108.1 8.8-.4 14.1 4.5 17.3 12.4-.9-.2-2.2-.1-2.5-.6-3.6-6.4-9.3-8.6-16.2-8.8-1.5 0-2.9-.8-4.5-1.3v-9.2c.5-30.2 1.1-60.4 1.5-90.7 0-3 1.6-6.7-2.7-8.5-4.6 1.9-2.8 6-2.9 9.2-.6 27.6-1.1 55.3-1.5 82.8-.1 7.4 0 14.8 0 22.5 3.7.3 6.3.1 8.7.8 3 .9 6.4 1.8 8.4 3.9 3.9 3.8 7 8.4 10.4 12.8-.6.5-1.1 1-1.6 1.5-3-2.5-5.9-4.9-8.9-7.5.3-.5.7-.9 1-1.4-2.9-.3-5.7-.7-8.6-.9-9.5-.5-13.2-4.4-13.2-14 0-7.8.4-15.6.4-23.4.1-21.4 0-42.9 0-65.4-3.7-5-8-11-12.6-17.3-8.1 1-16.4 2.1-23.6-2.3-4.8-3-9-7.2-13.9-11.2 6.3-4.9 11.6-8.7 18.3-10.1-2.8 3.1-5.5 6.2-8.8 9.9 2.7 1.6 4.7 2.8 6.8 4.1l-.2-.1c1.1.7 2.1 1.4 3.2 1.9.2-.3.4-.6.5-.9-.7-.5-1.3-1-1.9-1.5v-2.9c5.1.5 10.5 3.8 15.3-1.2-.4-1.8-.7-3.6-1.2-6 2.9.3 5.1.5 7.8.8-2.5-5-6.4-6.4-10.7-6-3.7.5-7.4 1.5-11.1 2.3zm286.5-77.8c.4 1 .8 1.9 1.2 2.9.4-.2.8-.4 1.3-.6-.6-1-1.1-2-1.6-3-.4-1.1-.8-2-1.2-3.1-.5.2-.9.4-1.4.7.4 1.1 1.1 2 1.7 3.1zm45.2-115.5c.3.5.6.9.8 1.4l.8-.8c-.4-.3-.9-.6-1.3-.9-.3-1.1-.6-2.1-.9-3.1l-1.2.6c.6 1 1.2 1.9 1.8 2.8zM272.1 347.3c.6.3 1.1.7 1.6 1-.3-.6-.7-1.1-1-1.6-1.2-.5-2.2-1.1-3.4-1.5-.2.5-.3.9-.5 1.4 1.2.2 2.2.4 3.3.7zm130.8-24c-1.5.4-3.1.7-4.6 1.1.1.5.3 1 .4 1.5 1.5-.6 3.2-1.3 4.7-1.8 1-.4 2-.7 3-1.1-.2-.4-.4-.8-.5-1.2-.9.5-2 1-3 1.5zM235.1 156.8c-.8-1-1.5-1.9-2.4-2.8.1 1.2.3 2.2.4 3.4.4 1.5.8 2.9 1.2 4.5 4.1-1.6 2.8-3.4.8-5.1zm69.4-6.7c-2.8-2.9-5.5-3.8-9.1.9 3.6.2 6.2.4 8.8.6l4.5-.3c0-.4 0-.8-.1-1.2h-4.1zM104.6 364.4c-4.8 1.2-9.6 2.4-15.5 3.9 4.6 0 8.4.3 12.1-.1 1.6-.2 4.6-.8 3.1-4.1 1.3-.3 2.5-.7 3.8-1-.2-.5-.4-1-.7-1.5l-2.8 2.8zm402.1 2.1c7.1 4.6 13.8 2.6 20.6-.7 2-1.5 4.2-3.1 7.3-5.4-3.1-1.6-4.8-2.5-6.6-3.5-5-5.3-11.4-6.6-18.3-5.3-7.8 1.5-9.8 6.8-5.4 13.4.7.4 1.6.9 2.4 1.5zM254.1 120c1.1-.2 2.2-.4 3.7-.7-3.9-.2-7.4-.4-10.8-.6 0 .4 0 .8-.1 1.2 1.5.3 3.1.5 4.6.8v4.9h11.2c-3.7-2.4-6.2-3.9-8.6-5.6zm132.7 229.3c-.9.3-1.7.5-2.5.8.3.8.6 1.5.8 2.4.7-.4 1.5-.8 2.1-1.2h11.9c.1-.8.2-1.5.3-2.2-3.7-1.4-7.3-2.8-10.8-4.2-.8 1.8-1.3 3-1.8 4.4zm15.5-62.9c1.1 1.5 2.1 3.1 3.3 4.5 5-3.6 5-3.6 3.2-7-.8-1.2-1.6-2.2-2.4-3.4 1-1.3 1.8-2.4 2.3-3.1-4.2-2.5-9.7 2.4-13.8-2.4l-.9-.1-.5.8c1.2 4.1-5 9 1.6 12.4 1.8-1.2 3.7-2.2 5.5-3.3.6.5 1.2 1 1.7 1.6zm76.7 70.2c-1.8 8.7-1.8 8.7 5.5 9.3-.5-3.2-1-6.3-1.4-9.3-.2-1.2-.3-2.4-.5-3.6 6.8.5 13.5-.1 19.5-3.9l8.8-1.1c1-1.3 1.5-1.6 1.8-2.2.8-1.5 1.5-2.8 2.3-4.3 16.7-35.7 24.7-73.1 21.2-112.5-6.2-71.5-39.7-127.3-99.2-167.1-45.7-30.5-96.3-42.5-151-37.4-41.3 3.9-79.1 17.8-112.6 41.8-30.2 21.6-54.4 48.8-71.6 82.2-20.4 39.2-28.7 80.5-24.4 124.2 2.2 23.1 7.8 45.3 17.1 66.6 1.8 4.2 4 6.6 8.6 5.8 4.3 3.7 8.8 6.4 14.8 5.8 2.5-.3 5.1.2 7.7.4-5 3.2-7.1 7.3-3.4 14.2 1.7-1.3 4.4-2 4.5-3.4.8-3.6 1.9-7.5-1.2-10.7.9-.9 1.6-1.7 2.5-2.6l.9.1.9-.1c3.7.8 7.4 1.9 11 2.1 12 .8 24.2-1.1 36.2 1.7 3.1.7 6.7-1.1 10.1-1.7 3.6.3 7.2 1.2 11.4-.3-17.1-16.1-28.6-34.7-35.4-56.1-13.8-43.4-8.9-84.7 15.4-123.3 32.5-51.5 94.7-78.7 154.7-68.3 69 11.9 119.1 69.6 121.5 134 1.4 36.9-8.1 70-31.3 98.9-3.6 4.5-7.3 8.7-11.5 13.7 3 .7 4.8 1.1 6.7 1.5 2.2.7 4.5 1.8 6.8 1.8 17.6.2 35.3.1 52.9.1.3 1.2.5 2.5.7 3.7zm-25.3-1c-4.5-.7-5.8 1.6-5.5 5.6.3 3.9 1.7 6.2 7.1 4.8v-9.2c-.5-.4-1-.9-1.6-1.2zm-51.2-45.8c2-.1 4.1-.2 6.1-.2 6 6.9 8.8-3.2 13.5-2.6-1.2-.4-2.3-.8-3.4-1.3.1-1.5.3-3 .4-5.1-3.4.7-6.1 1.3-8.8 1.8-2.2.7-4.4 1.3-6.6 1.9-2.7.8-5.4 1.6-8.2 2.4v7.8c-1.5 1-2.7 1.8-4.6 3.1 2.1 1.5 3.4 2.3 4.7 3.3 2.7-3.8 4.8-7.4 6.9-11.1zm10.5 25.6c-4.9-1.3-9.9-2.5-14.8-3.8-.4.5-.8 1.1-1.1 1.5 4.4 3.1 8.8 6.2 13.7 9.7 1.7-1 3.4-3.7 1.9-7.7 3.3.7 5.4-.4 5.8-4 6.4-2.7 8-9.1 11.6-14.1-9.6-5.5-14.8-2.6-18.9 10.4 1.4-.1 2.6-.2 3.9-.3h3.2c.2 1.5.4 2.8.5 4.3-1.9 1.3-3.9 2.7-5.8 4zm48.3 20.5l-1.2.6c.3 3.2.7 6.4 1.1 10.4 4.9-.7 8.4-1.2 13-1.7-.5-3.5-.8-6.1-1.2-8.7-2.2-2.4-4.6-2.3-7.1-.3-1.4-.1-3.1-.2-4.6-.3zm-239.6-52l4.2-.3c-1.1-4.7-1.9-8.7-3-12.7-1-3.9-3.5-5.1-8.3-3.5.4 3.5.9 7.2 1.1 8.7 3 3.8 4.7 5.8 6.5 7.9-1.7.4-3.5.9-5.7 1.4 1.4 5.4.1 11.5 8.5 14.7-1.1-4-1.9-6.6-2.4-9.2-.7-2.2-.7-4.6-.9-7zm3.9 29.6c-1.4-.6.7-6-3.7-2.3 1.4.8 2.6 1.5 3.9 2.1-1.8 1.4-3.5 3.2-5.6 3.9-6.7 2.2-13.5 4-20.6 6 1.9 3.1 3.7 4.4 6.7 3.4 9.5-3 19.1-5.9 28.6-9 1.3-.4 2.1-1.8 4.5-4.1h-13.8zm-11.3-78c-.3.4-.3.8-.1 1.2-2.1 1.2-4.4 2.2-6.7 3.5 1.4 5 4.1 8 9.8 8.4-1.8 2.5-3.5 4.6-5.2 7.1 1.5 2.4 2.9 4.8 4.6 7.9 2.8-2.2 5.3-4.2 8.5-6.7-1.4-5.4-2.7-10.6-4-15.9.1-1.7.1-3.5.2-5.2-4.7-6.4-.1-14.6-4-21.5-3.2-.3-6-.6-8.7-.9-1.1 5-1.9 9.5-2.9 13.9 5.2 1.4 7.8 3.8 8.5 8.2zm47.1 28.6c.4-1.5.8-3.1 1.3-4.5-.5-.1-.9-.2-1.4-.3-.1 1.2-.2 2.2-.4 3.4-1.7-.6-3.6-.9-5.1-1.6-2.6-1.5-5-3.2-8-5.1-1.1 4.1-1.5 6.9 1.9 8.4 4.5 2 4.5 5.3 3.8 9.7-1.3 7.5-1.7 15.3-2.4 23-.1 1.3.5 2.5 1.1 5.3 2.5-7.9 4.5-14.1 7.1-22.1-.5-.2-2.8-1.3-4.4-2 2.6-5.8 4.6-10 6.5-14.2zm127.8-37c1.2 2.5 2.3 5 3.5 7.5.5 0 .9-.1 1.4-.1v-10.1c1.8-2.7 3.7-5.4 5.7-8.3-4.5-2-9-4.1-14.5-6.5 1.3 8.5-2.6 13.5-9.4 16.5-1.8.1-3.7.3-7.2.5 2.7 2.3 3.9 3.5 5.1 4.5 1.7 3.4 3.4 6.9 5.2 10.2.2.3 1.5 0 3.1-.1-1-2.8-1.7-5-2.8-7.9 2.1-2.5 4.4-5 6.6-7.6 1.1.3 2.2.9 3.3 1.4zm-112.8 49c2.8-.9 5.5-1.6 9.1-2.7 2.7 1.7 6.5 4.2 10.5 6.6 1.5-6 3-11.6 4.7-18.4 3.2 2.7 5.3 4.5 7.5 6.4.5-.3 1.1-.7 1.5-1-2.3-4.7-4.6-9.5-7.1-14.4-3.6 3.4-6.9 6.6-10.8 10.3.4-3.3.6-5.7.9-8.7-1.8 0-3-.2-4.2 0-1.4.2-2.7.8-3.9 1.1-.7-1.6-1.1-2.5-1.5-3.5-.2.1-.4.3-.6.4-.3 1.8-.7 3.7-1 5.4-1.8-.2-3.5-.5-5-.7-1.4 6.1 2.5 4.7 5.4 5.1v4.6c-2 1.2-3.9 2.1-5.3 3 0 2.6-.1 4.5-.2 6.5-3.3.5-7.8-.7-7.2 6.3 3.1-2.1 7.4-1.3 7.2-6.3zm114.8-131.2c2.7.4 5.5 1.6 8.5-2.2-6.1-1-11.1-2.3-16.1-4.5-2.9-1.3-7.6 1.6-11.5 2.7-.7.9-1.5 1.8-2.1 2.7l-4.5-4.5c-.7 8.2 2.2 13.9 4.2 20 2.1 6.8 3.5 13.5 7.3 19.5 3.2-.7 6.3-1.4 8.7-1.9 1.9-6.5 3.7-12.5 5.4-18.6.6.1 1.2.2 1.6.3-.5-.3-.9-.5-1.4-.8.4-.9.7-1.7 1.1-2.6 4 0 7.9 0 11.9-.1-.4.9-.9 1.7-1.3 2.6h-7v1.1h7.1c3.7-.7 7.3-1.3 10.9-1.9 2.4-.9 4.9-1.7 7.4-2.6 1.5 2.6 3 5.3 4.1 7.2 2.7 1.9 5.5 3 6.9 5 4.2 6.1 7.9 12.4 6 20.6-.6 2.4.9 5.3 1.5 8.7-4.5.9-8.9 1.6-13.2 2.4-1.7.3-3.6.6-5.3.9-2.1 1-4.3 2-7.3 3.4 3.1 1.8 5 3 6.9 4.1v7.4c2.8-2.3 1-7.6 6.4-6.7 1.2 1.6 2.6 3.6 4.4 6 2.3-3.2 3.6-7.2 8.1-6.1 4.5 1.1 6.3 4.6 6.8 8.5.5 4.4 1 9.1-.2 13.3-.9 3.2-4.4 5.7-6.7 8.5v10.3c-4.8-4.9-8-8.2-10.7-11-3.8 3.4-7.2 6.6-10.2 9.3 1.8 3 2.9 5 4.1 7-4.4-.5-6.5 2.6-9.3 5.1 3.8 2.9 6.9 5.4 9.8 7.6 1.3-1.9 2.8-3.9 3.8-6 .8-1.5.9-3.4 1.3-5.1 7.5-.6 10 .5 10.5 4.6-.9 1.6-1.7 3.2-2.7 4.8 2.7 1.5 4.9 2.7 7.3 4.1 7-19.5 8.5-44.7 5.6-64.8-2.2-15.4-8.9-28.9-15.1-42.8-2.4-5.5-7.6-9.9-11.5-14.7-.1-1-.1-2 0-.8-.8-1.1-.2-.3.4.5-.6.9-1.3 2.5-1.7 2.4-1.5-.2-2.8-1.6-4.1-1.5-7.3.6-14.5 1.5-20.1 2.1 2.2.2 6.1.5 11 .9-1.7 1.6-2.1 2-2.5 2.4-4.3.4-8.4.8-12.7 1.1-1.5-.2-3.2-.3-4.6-.5-.6-2.6-1.1-4.9-1.6-7.5 1.3.2 2.9.1 4.4.1zM309.5 122c-.9 2.7-1.6 5.4-2.5 8.2-2-.6-3.9-1.2-6-1.8-2.7 3.7-5.3 7.3-7.8 10.7-7.4-3.8-7.4-3.8-14.7 3.3 4.6 1.8 9.1 2.3 13.3.1 6.1-3.2 12.1-4.1 18.6-1.7 3.3 1.2 6.3.7 8.8-2.1 2.5-2.8 5.3-5.3 7.6-7.6-.8-2.8-1.4-4.5-1.7-6-2.8-2.4-7.7 1.5-9.1-3.6 3.8-2.9 10.9 1.7 12.9-7-5.3.5-9.7.9-13.4 1.3-2.3 2.1-4.2 3.7-5.9 5.3-3-.2-6.1-.3-9.1-.5v1.8c3-.1 6-.3 9-.4zm73.9 220.8c-.5-.4-.9-.8-1.4-1.3-11.6-2.6-23.2-5.1-35.1-7.8-3.2 1.5-6.1 6.4-10.6 2 .2-1.6.4-3.4.6-5.4-12.7-2.8-24.8-5.5-37.5-8.3 3.2 5.2 10.7 4.5 12.7 11.7-9.4 3.5-18.5 6.9-28.5 10.5 3.6.7 6.2 1.3 8.8 1.7.5.9 1.1 1.7 1.5 2.5-1.8 1.5-3.7 3-5.3 4.3 2.6-.7 7.3-.5 9-2.6 3.6-4.5 7.8-3.7 12.1-3.7 3.2 0 6.4.8 9.5 1.3 1 1.8 1.7 3.4 2.3 4.5h13c3.5-3.9 5.7-6.4 7.7-8.6-.6-1.5-1.1-2.8-1.9-5.1 4.6.8 8.9-2.3 11.4 3.7.6 1.4 5.8 1.1 8.8.9 1.6-.1 3.3-1.5 6.2-2.9.3 3 1.1 5.2.4 6.8-.7 1.5-2.9 2.2-4.4 3.3.2.6.4 1.1.6 1.6 5-.5 10.1-1 14.8-1.5-2.6-1.5-5.3-3-8-4.5.2-.8.4-1.5.6-2.4 4.1-.2 8.3-.4 12.7-.7zM240.9 185.3h-4.6c0 .4 0 .7-.1 1.1 1.4.1 2.7.2 4.2.3 1.4 2 2.6 4 4.1 6.1-1 2.1-1.9 4.5-2.8 6.5-2.3.9-4.2 1.5-7.3 2.7 3.3 2.2 5.4 3.8 7.7 5.3-2.5 3.6-4.6 6.6-7.4 10.4 3.4 1 5.9 1.6 8.2 2.3 1.4 4.5 2.6 8.3 3.9 12.6-1.5 4.5-6.3 8.5-3.4 12.9 7.3 2.8 13.3 5.1 20.8 8 6.5-2.8 10.8-10.5 15.4-17.1 5.7-8.4 10-18 13.7-27.6 6.8-17.3 12.6-34.9 19.2-53.5h-21.6c-.5-2.6-.9-4.6-1.5-7.6-8.7 4.5-16.7 8.6-24.7 12.7-1.3-2-2.1-3.4-3.6-5.6-2.8 3-5.1 5.4-7.5 7.9-2.5.4-5.3.8-8.2 1.2.3 2.4.5 4.3.6 6-.9.6-1.7 1.3-2.5 1.8.4.4 1 1.3 1.2 1.2.7-.3 1.4-1 1.9-1.5 4.7-.3 9.5-1 13.8 2.8-3.7.5-7.3 1.1-10.9 1.5-3.4 2.8-2.1 9.8-8.6 9.6zm113.9-46.8c4.1 7.1 6.8 12 9.5 16.7 10.6 0 21.7-.2 32.7.1 5.9.2 11.1-.9 15.9-4.5-17.1-20.1-39.7-30.9-64.2-38.2-.5-.1-1.1.4-2.2.9.7 1.8 1.3 3.8 1.9 5.8 1.8-1.4 3.2-2.3 4.6-3.3 2.2 3 4 5.4 6.3 8.4-3.3 1.1-5.7 1.9-7.3 2.4 1.2 4.8 2.2 9.2 2.8 11.7zM243.1 330.4c.7-12-2.7-22.4 1.9-32.6-.9-1.6-1.8-3.4-2.8-5.2-1.2 2-2.3 4-2.4 4.2 4 15.3.6 29.6 2.3 43.4 3.5 1 6.7 1.8 9.8 2.7 1.5-4 2.7-7.5 3.7-10.2 4-3.1 7.7-5.2 10.5-8.3 4.1-4.6 8.5-6.6 14.5-5 .8.2 1.7-.5 3.1-.9-.4-2.5-.7-4.9-1-6.7-7.6-4.4-14.1-2.1-20.7.6.6 3.6 1.2 7 1.8 10.9-6.3 2.3-12.3 4.3-20.7 7.1zm56.4-86.4c-4.6 8.5-8.7 15.9-13.2 24.2 4.4.2 7.5.3 10.5.5.6-2 1.1-3.7 1.5-5.4 2.2 1.5 3.9 2.6 5.6 3.8 1.6-2.1 3-3.8 4.7-6.1.9 3.2 1.4 5.2 2.3 8.8.2-4.5.6-7.4.4-10.2-.1-2.6-3.1-5.2 1-8.9.8 2.9 1.3 5 1.8 7.3.1.4.8.6 1.5 1.1 1.1-2.3 2-4.5 3-6.7-3.2-5.5-10.5-6.7-11-13.7-3.4 1.9-6 3.7-8.1 5.3zm16.3 70.2c-.6-3.9-1.1-6.8-1.5-9.9-1.8 1.2-3 1.9-4.4 2.8.1-5.4.1-5.4 3.4-8.2 3.5 2.8 6.8 5.4 9.7 7.8 2.4-3.4 4.4-5.8 5.8-8.3.5-.9-.3-2.4-.5-3.8-2.5-.4-4.7-.7-6.9-.9-1-1.9-1.9-3.8-2.8-5.5-4 1.3-7.2 2.3-10.7 3.5-.4 2.6-.8 5.1-1.3 8.2-2.3-.5-4.4-.9-7.2-1.4 1.5 3.2 2.8 5.8 4.2 8.4-5.3 2.2-5.3 2.2-11.4.4-1.3 1.2-2.7 2.5-4.8 4.5 10.1 1 18.7 1.7 28.4 2.4zm-57.4-197.9c23.8-1.9 47.6-3.8 71.5-5.7-.1-.7-.1-1.5-.2-2.1-24.4-4.1-48.1-1.8-71.3 7.8zM304 235.7c8.2-9.8 17.4-15.7 29.6-13.2.6-5.4 1.1-10.1 1.7-16-1.9-1.5-4.7-3.8-7.4-5.9-5 7.4 7 3.8 5 8.1-8.9 6.3-16.9 12.1-25.2 17.9.1.1-.6-.5-1.5-1.3-2.9 2.9-6.9 5.1-2.2 10.4zm44.1 53.1c.7-2.7 1.7-7 2.9-11.3-5.4-3.6-8.7-1.7-10.6 3.2-2.4-1.1-4.5-1.9-7.5-3.2 1.3 5 2 8.6 2.8 11.8 1.9.6 3.3 1 4.8 1.5-2.2 3.1-2.1 4.3 0 6.1 1.9-2.2 4-4.3 7.6-8.1zm-159.9 67.4h-24c.2 2.8.3 5.3.5 8.3h23.5v-8.3zm254.4 167c-3.4 9.2-3 17.7 1.1 22.8.6-4.2 1.1-7.9 1.5-11.7.6 0 1.2.1 1.7.1.6 2.9 1.3 5.9 1.8 8.8.4 0 .9 0 1.3-.1V529c1.7-.4 2.6-.6 3.5-.9.8-.3 1.5-.7 2.2-1.1-4.7-5-4.7-5-13.1-3.8zM150.8 364.7c-.5-3.5-.9-6.1-1.4-9.5h-19.1c.7 4.1 1.2 6.7 1.6 9.5h18.9zm64-141.2c4.7-1.1 7.5-4 6.5-8.4-1.4-6.2-6.6-8.5-13.1-10.5 2.4 6.9 4.6 12.9 6.6 18.9zm3.8-22.5c1.4-9.5-2.5-15.6-10.4-16.9.3 4.8.7 9.7.9 13.7 3.5 1.1 6.1 2 9.5 3.2zm21.3-78.7c-5.5 3.6-9.7 6.2-13.6 8.7.8 2.1 1.3 3.4 1.6 4.5 7.3 2.8 7.5-7 13.4-6.2-.5-2.2-.8-3.6-1.4-7zm257.2 234.4c-2.4-.3-5-.6-8.5-1.1v8.5c9.2 2.3 10 1.6 8.5-7.4zM332.9 227.8c-.3 3.2-.4 5.6-.6 8.1-7.3 4.7-7.3 4.7-3.9 10.5 3.6-5.1 7.1-10.2 10.8-15.5-2.3-1.1-3.8-1.8-6.3-3.1zm-23.8-110V115c-10.5 1.2-21.1 2.4-31.5 3.6.1.7.1 1.4.2 2 10.3-1 20.7-1.9 31.3-2.8zm24.1 75.1c5.1-7.5 4.6-19.6 0-25.5v25.5zM193.5 355.7c-.8 9.7-.8 9.7 6.1 10.5v-10.5h-6.1zm225 1c-2.9-.6-4.7-.9-6.8-1.3v10.9c2.2-.1 3.8-.2 5.9-.3.3-3 .6-5.7.9-9.3zm-35.6-2.1c-6.1 3.3-6.5 4-5.6 8.3.6 3.1 1.9 4.7 5.6 2.8v-11.1zM157 365.5c4.5-3.3 4.5-3.3 2.1-10.4-5.8 2.3-5.9 2.6-2.1 10.4zm192.5-10c-6.4 3.2-7.2 6.3-5 11.1 1.8-.1 3.5-.3 5.9-.5-.3-3.3-.5-6-.9-10.6zm-41.1 2c-3.3 4.6-3 7.5 1.8 9.3 4-5.6 4-5.6-1.8-9.3zM115.3 365c3.5-4.2 3.4-7.1-.5-9.9-5.7 4.7-5.7 4.7.5 9.9zm244.2-87.3c2.7 4.7 4.5 7.7 6.7 11.6 2-2.1 3.1-3.4 4.4-4.6-3.6-2.3-6.4-4-11.1-7zm67 24.5c3.6 2.2 6.1 3.9 8.9 5.7 1-2.4 1.8-4.6 3.4-8.7-4.8 1.2-8.1 2-12.3 3zm-193 53.8c.3 4.4-1.7 7.7 1.8 10.5 5.3-5.6 5.2-7-1.8-10.5zm38.4-215.9c-3.7.5-7.2.4-8.5 5.2 3.2.4 5.9.7 9.4 1.1-.3-2.5-.6-4.2-.9-6.3zm0 228.2c2.2-2.3 4.4-3.5 4.5-4.9.6-3.7-1.6-5.1-5.7-4.6-.3 1.2-1.1 2.3-.9 3.5.2 1.4.9 2.8 2.1 6zm-154.6 11.8c.9-9.4.9-9.4-5.3-10.4 1.6 3.1 2.9 5.7 5.3 10.4zm215-88.9c-1.9-3.8-3.2-6.2-4.9-9.7-1.6 2.3-2.7 3.7-3.7 5 2.7 1.5 4.9 2.7 8.6 4.7zm-103 59.5c-3.2-2.3-4.9-3.6-7.5-5.4-.1 5.3.6 7.7 7.5 5.4zM196 288.3c-5.3.8-5.1 3.4-4.3 6.3.1.4 1 .7 1.8 1.2.8-2.4 1.6-4.6 2.5-7.5zm41.4 39.9c-4.9-3.7-4.9-3.7-7.8 2.4 3.3 1 6.1 1.2 7.8-2.4zm84-56.8c-2.4 4.5.6 5.6 3.9 6.6l-3.9-6.6zm68.5 39.1c-.2-.5-.4-1.1-.7-1.5-1.5.4-2.9.9-4.5 1.3.5 1 1 2 1.4 3 1.3-1 2.5-2 3.8-2.8zm-77.7-102.6c1.5-2.9 2.3-4.7 3.5-7.1-2.2-1.1-3.9-1.9-7.4-3.6 1.7 4.5 2.6 7.1 3.9 10.7zm12.1-48c0 5.2 0 5.2 4.7 3.7-1.7-1.4-3-2.5-4.7-3.7zm8 34.3c-2.4-2.2-4.1-3.7-6.6-5.9v6.9c2.1-.4 3.6-.6 6.6-1zm-169.6 49.2c-4.5 2-3.3 4.6-2.1 7.3.2.3 1.1.3 2.1.6v-7.9zm17.2-54.2c-.7-1.5-1.5-3-2.3-4.9-3.8 3.4-2.6 4.9 2.3 4.9zm58.5-17.5c-2.7-5.9-5.1-6.3-7.9-1.8-.2.3.1 1 .3 1.8h7.6zm3.8-22.1c1-.1 1.8-.2 2.8-.4-.5-1.7-1-3.5-1.4-5.2-.7.1-1.3.3-1.9.4.1 1.7.3 3.5.5 5.2zM166 264.1c.6 0 1.2-.1 1.7-.1.3-.9 1-1.8.8-2.5-.3-.8-1.3-1.4-3.5-3.5.5 3.4.7 4.8 1 6.1zm238.7-27.8c-1.6 2.9-2.8 5.6 1.7 7.6-.7-3.1-1.2-5.3-1.7-7.6zm-198.6 25.8c-.5-.2-.9-.3-1.4-.5-.7 1.5-1.3 3-1.9 4.5.6.2 1.2.5 1.7.7.6-1.6 1.1-3.2 1.6-4.7zm21.9 58c.8.4 1.5.9 2.2 1 .2 0 1-1.3.8-1.5-.5-.6-1.3-1-1.9-1.5-.4.7-.7 1.2-1.1 2zm-23.4-72.8c-1.2-.7-1.8-1.3-2.5-1.4-.4-.1-1.3.9-1.2 1.1.3.8.9 1.4 1.4 2 .6-.5 1.2-.9 2.3-1.7zm-37.1 31.6c-.8-.9-1.4-1.8-1.8-1.9-.7 0-1.7.8-1.8 1.4-.1.6.7 1.6 1.3 1.8.4.2 1.2-.7 2.3-1.3zm210.3 2.2c.6-.4 1.3-.9 1.8-1.3-.6-1.3-1.3-2.5-2.2-4.5-.9 1.9-1.7 2.8-1.5 3.5.2.9 1.2 1.6 1.9 2.3zm119.4 90c-.5-.4-.9-.7-1.4-1.1-.8 1-1.5 1.8-2.4 2.8.5.4 1.3 1.1 1.4 1.1.9-.9 1.7-1.9 2.4-2.8zM261.7 119v1h5.9c0-.4 0-.9-.1-1.3-1.9.1-3.8.2-5.8.3zm-13.6 20.6v-.8h-6v.8h6zm-18.6 4.9c.5-.2 1-.4 1.4-.6-.5-1.3-1-2.5-1.4-3.7l-1.5.6c.5 1.3 1 2.4 1.5 3.7zm102.9-2.2c-.5.4-1.1.8-1.5 1.3 1 .9 1.8 1.7 2.8 2.5.3-.4.7-.7 1-1.1-.9-.9-1.5-1.9-2.3-2.7zm113.4 371.5c-.5-.4-1-.7-1.4-1.1-.8 1.1-1.6 2.1-2.4 3.1.4.3.9.7 1.3 1 .9-1 1.6-2 2.5-3zm-216-317.1c.5-.6 1-1.2 1.5-1.6-.8-.9-1.5-1.7-2.3-2.5-.5.4-.9.7-1.4 1.1.7.9 1.4 1.9 2.2 3zM176 248.8c.3-.2.5-.4.8-.7-.6-.7-1.3-1.5-1.8-2.1-.3.2-.6.5-.8.7.5.7 1.2 1.4 1.8 2.1zm-7 1.9c-.6-.1-1.3-.1-1.8-.2.1 1.3.2 2.6.2 3.9h1.2c.1-1.2.2-2.5.4-3.7zm235-92.6c0 .4.1.9.1 1.3 1.4-.2 2.7-.3 4-.5 0-.4-.1-.9-.1-1.3-1.3.2-2.7.4-4 .5zm-22.8 162.3c-.4 0-.8.1-1.2.1.1 1.4.2 2.7.3 4.1.4 0 .8 0 1.2-.1-.1-1.4-.2-2.7-.3-4.1zM405.4 195v1.5c1-.1 1.8-.3 2.7-.5v-.7c-.8 0-1.8-.2-2.7-.3zm5 38.3c-.3.5-.5 1.1-.8 1.5 1 .3 1.9.6 2.9.8.1-.4.2-.7.3-1.1-.8-.3-1.6-.8-2.4-1.2zm-207-82.7c-.6-.2-1.1-.5-1.6-.5-.2 0-.5.4-.7.6.4.3.8.8 1.2.8.3 0 .7-.5 1.1-.9zm8.8 200.3c-.8-.9-1.2-1.5-1.4-1.5-.5.2-1 .6-1.5 1 .9 0 1.6.2 2.9.5zm132.3-239c-.2-.2-.4-.6-.7-.6-.2 0-.5.3-.8.5.2.2.4.6.7.6.3 0 .6-.4.8-.5zm26.7 179.9c.2-.2.5-.4.5-.6s-.3-.4-.5-.6l-.6.9.6.3zm-1.6 19.1c-.2-.2-.3-.5-.5-.6-.2 0-.4.3-.6.5.2.2.3.5.5.6.2 0 .4-.3.6-.5zm5.9 0c-.2-.2-.4-.6-.6-.6s-.5.3-.7.5c.2.2.4.6.6.6.3 0 .5-.3.7-.5z"/>
    <path class="color-black" fill="#0" d="M439.3 504.2c-2.6-2.8-5.3-5.6-8.4-9h-16.7c-7.3-4.2-7.1-10.7-8-17.8h-9.6c-1 5.9-1.7 11.3-2.7 17.5-8.6 0-16.6.3-24.7-.1-5.8-.3-10.5 1.1-15.2 4.7-12.9 10.4-26.1 20.2-39.3 30.3-2 1.5-4.2 3-6.7 4.8-12.1-7-24.1-13.8-36.1-20.9-9.2-5.4-18.2-11.2-27.5-16.5-2.9-1.6-6.7-2.1-10.2-2.3-6.8-.4-13.6-.1-19.5-.1-8-3.6-9-10-8.9-17.1-2.6-.3-4.6-.4-6.8-.7-.6 5.7-1.1 10.7-1.6 17-8.1.4-15.8.8-23.6 1.1-3.1 3.8-6.2 7.5-9 10.7 4.9 13 12.6 24.5 8.4 38.8-1.4 4.8-3.2 8-8.1 9.8-10.3 3.5-15.9 2.4-25.3-6.3.8-9.4-2.6-20 4.9-29-1.5-5.3 4.5-9.8 1.8-15.2.6-.5 1.1-1 1.6-1.5 1.9 1 3.8 2 5.9 3.1 6.1-6.9 11.9-13.4 17.5-19.6 5.7-.3 10.8-.5 16.5-.7.3-5.5.5-10.3.7-15.1 6.4-3.4 12.6-2.1 19.5-1.1.3 5.6.5 10.9.8 16.8 6.4 0 11.9.3 17.3-.1 5.8-.4 10.7 1 15.7 4.1 10.5 6.6 21 12.9 31.5 19.3 9.9 6 19.8 12.1 30 18.3 3.4-2.5 6.3-4.5 9-6.7 12.2-9.7 24.4-19.3 36.5-29 5-4.1 10.4-6.2 16.9-5.7 6.4.5 12.9.1 19.6.1.8-6.2 1.4-11.2 1.9-16.1 7.9-2.5 12.7-2.6 21.4-.3.5 5.1.9 10.5 1.5 16.3 4.3 0 7.5-.5 10.6.1 3.4.7 7.3 1.5 9.6 3.8 3.9 3.8 6.6 8.6 9.8 13-.3.5-.6.9-1 1.3zm-281.1 16.7c-4.5-2.2-8.5-1.5-12.2 3v21.4c4 .2 7.5 2.3 11.3-1-2-1.6-3.7-2.9-5.8-4.5 2-1.8 3.7-3.3 5.2-4.7.5-4.6.9-9 1.5-14.2z"/>
    <path class="color-red color-main" fill="#8c0e0f" d="M128.1 348.8c-.9.9-1.6 1.7-2.5 2.6v-.1c-2.6-.2-5.2-.7-7.7-.4-6 .6-10.5-2.1-14.8-5.8-1-2.7-1.7-5.5-2.9-8.2-13.9-31.7-19.8-64.7-17.6-99.5 2.9-45.6 18.7-86 46.9-121.5 35.4-44.5 81.6-71.4 137.4-81.7 49.5-9.1 97.1-2.4 142 20.1 48.9 24.5 84.1 62.3 104.5 113.3 15.1 37.6 18.6 76.5 11.4 116.6-4.2 22.9-12.6 44.1-22.7 64.9-6 3.8-12.6 4.4-19.5 3.9-1.4-.5-2.7-3-4.3-.2-17.6 0-35.3.1-52.9-.1-2.2 0-4.5-1.2-6.8-1.8 5-6 10.5-11.5 14.9-18 34.1-51.1 38.7-104.8 10-159.3C411.7 113.3 343.8 83 276 96.3c-49 9.5-86 36.8-109.9 80.7-19.1 35.1-23.6 72.4-13.5 111.3 6.2 23.7 18.7 44 34.5 62.5-3.4.7-7.1 2.4-10.1 1.7-12-2.8-24.1-1-36.2-1.7-3.7-.2-7.4-1.5-11-2.1.1-.9.2-1.7.2-2.6 2-2.4 5.1-4.1 4.3-8.3-1.7 2.5-3.5 4.9-5.1 7.5-.4 1.1-.7 2.2-1.1 3.5zm347.3-5.7c-.2-.3-.4-.6-.6-.8-.1-.1-.4.1-.6.1.4.2.9.3 1.3.5.2 1.3.5 2.4.7 3.7.5-.3 1-.5 1.5-.8-.8-.9-1.5-1.8-2.3-2.7zm-7.8-2c.7.5 1.4 1 .4.3 1.2.1.3 0-.6-.1.2-2.5.5-5 .7-7.5-2.8 2.5-4.2 5-.5 7.3zm-1.2-207.2c-.7-6.6 10.4-9.1 4.9-17-5.9 2.4-11 4.5-16.3 6.6l-.9-1.5c2.7-4.9 5.5-9.9 8.3-15.1-2.2-1.9-3.9-3.3-6.2-5.3-4.4 6.7-8.7 12.7-12.3 19.2-3.4 6.1-9.9 10.9-9.6 19.3 6.9 1.7 11.5-5.4 17.8-3.4-.8 6.4-8.8 9.1-7.4 17.5 13.9-6.2 27-12.1 40.7-18.2-2.3-2.7-3.8-4.5-5.3-6.3-4.6 1.4-9 2.8-13.7 4.2zm44.3 164.7c-14.6-3.4-28.1-6.5-42.3-9.8-1.1 2.7-1.9 5.2-3 8.1 6.3 1.7 11.7 3.2 18 4.8-8.1 5.3-19.3.8-24.8 12 14.3 4.5 27.7 8.8 41.5 13.3 1.2-2.9 1.9-5.1 3-7.7-6.3-2.2-12-4.3-17.6-6.3 0-.6-.1-1.1-.1-1.6 7.4-1.6 14.7-3.3 22.3-4.9.8-2.2 1.6-4.3 3-7.9zM361.8 74.3c4.3 7 .8 15.2 9 19.9 5.1-13.5 10-26.2 14.9-39.1-2.8-1.3-4.5-2-7-3-1.3 3.1-2.2 5.8-3.3 8.4-1.1 2.4-2.1 4.8-4.3 9.5-1.5-8.3-2.6-14.2-3.9-20.7-2.1-.7-4.4-1.4-7.5-2.3-3.2 12.7-6.3 24.5-9.2 36.4-.9 3.8 1.1 5.3 5.2 5.1 2-4.3 3.8-8.7 6.1-14.2zm124.7 207.3c7.5 5 15.1 9.2 22.9 4.5 7.6-4.5 6.4-13.3 6.7-21.9-14.2-.8-28.1-1.5-42.3-2.3-.5 2.3-.9 4.4-1.4 6.3 4.2 1.3 7.6 2.2 11 3.3-2.9 2.6-5.8 3.7-8.8 4.5-4.2 1.1-5.8 3.3-4.5 7.8 5.9-.7 11-1.4 16.4-2.2zm-337-169.5c-7 3.3-12.2 7.2-11.9 14 .3 7.4 7.7 7.5 12.7 9.8 1.7 6.3 9.8 14.2 14.6 13.6 8.2-1.1 11.3-7.6 13.2-14.5 3-1.4 7.2-.7 6.9-4.8-5-4.3-9.5-8.1-14.5-12.4-1.3 2.9-2 4.6-2.9 6.7h-6c-4.5-4.6-8.1-8.2-12.1-12.4zm244.8-53.9c-5.8 13.5-11 25.6-16.5 38.5 5.4 2.8 10.5 5.5 15.7 8.2 2.7-1.6 5.8-2.4 6.9-4.4 4.8-8.7 9.4-17.7 13.3-26.9.7-1.6-1.4-5.7-3.3-7.1-4.7-2.9-9.8-5-16.1-8.3zM159 164.7c-5.1-.8-9.2-.7-12.6-2.1-3.7-1.6-6.6-5-10.2-7.3-2.4-1.5-5.2-2.4-7.9-3.6-4.5-1.9-8.6-.8-11.2 3-3.3 4.5-6.4 9.5-6.9 16.1 12.9 4.3 25.5 8.3 38.5 12.7 1.1-2.1 2-3.9 2.7-5.3-3.1-3.9-9.1-2.1-10.5-7.6 5-4.6 13.2 3.3 18.1-5.9zm58.9-98.6c4.3 8.1 8.5 16.5 13.1 24.7 2.7 4.8 5.7 5.8 10.5 3.8 3.2-1.4 6.2-3.5 8.8-5.8 2.8-2.5 3.7-6 1.9-9.8-3-6.5-5.6-13.1-9-19.4-1.5-2.9-4.6-4.9-7.1-7.5-7.4 3.4-15.7 3.5-18.2 14zm-24.7 40.5c8-2 12.2 8 19.9 2.2-4-3-7.2-5.5-10.7-8.2.1-7.1-3.2-13-8.1-17.9-4-4-8.4-5-12.3-2.4-4.7 3.1-9.1 7-14 10.8 9.6 10.7 18.3 20.6 27.3 30.7 2.3-1.7 3.9-2.9 5.5-4.2-2.6-3.6-4.9-7-7.6-11zm-72.6 148.3c6.3-4.5 10.7-7.5 15.1-10.7-.3-.7-.5-1.5-.8-2.1-13.6-.3-27.4.1-41.4.4-.3 2.7-.4 4.5-.7 6.8 5.6.3 10.6.5 16.5.8-4.7 6.8-14.3 5.9-16.7 15.3 14.9.2 28.6-2.7 42.6-4.5v-5.8c-4.3-.2-8.3-.2-14.6-.2zM293.8 40.8c.6 14.6 1.5 27.8 3.7 41.2 2.5-.3 4-.5 5.6-.7.4-4.4.7-8.2 1.1-12.2 7.5 1.6 3 13.9 13.6 12.3-1-5.2-2.4-9.9-2.4-14.5 0-4.7 1.8-9.4 2.3-14.1.3-3.1-.4-6.3-.7-9.3-7.7-4.4-14.9-2.8-23.2-2.7zm181.9 140.8c-5.6 1-9.8 2.1-10.3 7.4-.7 6.9 2.6 11.7 8.6 15.4 2.4-.6 4.9-1.1 7.4-1.7 8.2-2.3 9.2-3.7 9.3-12.2 0-1-.1-1.9-.1-2.9-.2-3 1.2-5.5 4-5.7 1.9-.1 4.1 1.6 6.2 2.7-1.8 4.9-6.5 9 0 12.4 8.6-3.6 10.1-8.8 5.5-18.6-3.8-8-7.6-8.2-21.1-.6-.5 3.5-1 7.6-1.8 11.7-1 4.9-3.2 5.8-8.7 3.8.1-3.8.5-7.5 1-11.7zm-1.5 54.8v19.5h6.8c.6-3.7 1.2-7.1 1.7-11.1 3.1-.4 5.9-.7 8.9-1 .9 3 1.5 5.4 2.3 8 2.1-.2 4-.4 5.8-.7.6-3 1.1-5.4 1.6-8.3 2.8.3 5.2.5 7.8.7.6 4.4 1.1 8 1.5 12.1 2.4-.3 4.3-.5 5.9-.6 1.9-10.9 1.7-15.3-1.1-22.7-13.1 1.3-26.5 2.7-41.2 4.1zM106 323c14.1-4.8 27.4-9.2 40.2-15-1.3-3.6-1.9-6.1-3-8.4-3.1-6.5-7.1-8.5-14.2-6.8-6.9 1.6-13.7 3.6-20.5 5.8-6.3 2-8.4 5.9-6.9 11.9.9 3.7 2.5 7.3 4.4 12.5zM288.3 53.1c-2.4-4.6-4.3-7.9-6.2-11.6-6.5 1.4-11.7 2.4-17.1 3.5-.8 3.3-2.2 5.9-1.8 8.2 1.2 7.9 3 15.9 4.6 23.7.2.9.8 1.7 1.4 2.6 3 4.5 8.4 5.9 14.7 4 4.9-1.5 6.4-3.9 5.8-10.5-.3-3.8-1.1-7.5-1.7-11.7-4.4.8-7.5 1.4-12.5 2.2 3 4.3 4.9 6.9 7.2 10.1-1.6 1.5-3.2 2.8-4.9 4.4-1.3-1.4-2.6-2.1-2.9-3.2-1.5-7-3-13.9-4.1-20.9-.5-3.1 1.7-4.5 4.6-4.7 5.9 4.1 5.9 4.1 12.9 3.9zm45.7-11c-4.2 13.5-8.1 26.5-12 39.1 6 5.6 8.3-3.5 13.9-1 1.5 1.9 2.8 7.3 8.7 4.5V43.5c-3.4-.5-6.6-.9-10.6-1.4zm68.7 69.1c5.7 4.4 10.7 8.1 16.2 12.1 1.6-2.2 2.7-3.8 4-5.4-3.1-2.9-5.9-5.5-9.1-8.5 2-3.2 3.9-6.1 5.7-9 3.3 1.3 5.9 2.2 8.8 3.3 1.1-1.8 1.7-3.1 3.2-5.8-2.7-1.5-5.2-2.9-8.1-4.5 2.3-2.5 3.5-3.9 4.8-5.3 4.1 2.4 7.5 4.5 11.6 7 1.2-2.2 2.1-4.2 3.3-6.5-5.7-4.4-11.1-8.4-17.2-13.1-7.8 11.8-15 23.1-23.2 35.7zm75 55.9c1.9-1.2 3.7-2.3 5.5-3.5-.9-2.5-1.5-4.6-2.3-7.1 1.7-1.1 3.3-2.1 5.2-3.3 2.7 4 5.1 7.6 7.7 11.6 2-1.4 3.6-2.3 4.9-3.2-4.3-11.5-6.1-14.5-11.6-19.5-11.7 7.2-23.5 14.3-35.4 21.5 3.2 6 5.8 10.8 8.7 16.3 2.7-1.3 4.8-2.2 7.2-3.3-1.5-3.8-2.7-7.1-4.2-10.8 3.3-1.6 6-3.1 8.8-4.5 2.1 2.1 3.6 3.7 5.5 5.8zm-337.1 41.6c2.1-6.7 3.9-12.2 5.8-18.1-2.5-.8-4.3-1.3-6.2-1.8-1.6 3.7-3.1 6.9-4.6 10.4-3.2-.5-6-.9-8.9-1.3-.5-3.2-1-5.9-1.4-8.6-1.7-.2-3-.4-4.8-.7-1.3 2.1-2.4 4.3-4 7-2.3-.7-4.5-1.4-7.2-2.1 1-4.2 1.7-7.5 2.7-11.5-2-.8-4-1.5-6.8-2.4-2.2 7.3-4.3 13.8-6.5 21.2 14.6 2.6 27.8 5.1 41.9 7.9zm-1.4 15.9c-7.8-6.4-38.5-19.6-41.8-17.9-.2 2.1-.5 4.8-.8 7.5 5.8 2.6 10.9 4.8 18 8-6 1.5-9.7 2.6-13.4 3.5-4.2 1-8.2 1.7-7.5 8.7 15.3-2.4 30-3.8 45.5-9.8zm-46.1 48.5c1.5 7.2 2.7 13 4.1 19.4 14.3-3.1 27.4-6 41.3-9.1-1-6.1-1.8-11.4-2.7-17.1-2.4.5-3.8.8-5.2 1.1-.2 3.8-.4 6.8-.6 10.5-3.8.7-7.2 1.3-10.3 1.7-1.5-2.8-2.4-4.7-3.5-7-1.8.3-3.4.6-5.3.9-.4 3-.8 5.7-1.1 8.6-2.3.3-4.2.6-6.4.9-1.2-3.6-2.3-6.9-3.6-10.6-1.7.2-3.5.4-6.7.7zm422.7-46c.8-12.1-1.8-26.2-5.4-28.5-1.5.4-3.3.8-5.7 1.4v9.5c-11.1 4.1-22.5 4.5-33.3 9.5 1 2.3 1.6 3.9 2.5 6 11.1-2.1 21.8-4.1 32.6-6.2 1.4 3.6 2.4 6.5 3.6 9.6 2.3-.6 4.1-1 5.7-1.3zM197.9 70.5c7.5 11.8 14.5 23.1 22 34.9 2.5-1.9 4.3-3.2 6-4.5-7-12-13.5-23.4-20.4-35.2-2.9 1.7-5 3-7.6 4.8zM139.7 330c-.5-1.5-1.1-3.7-1.9-6.4-3.1 4.3-5.4 7.5-7.6 10.7.4.3.7.5 1.1.8 2.5-1.6 5.1-3.2 8.4-5.1zm.6 8.9c.9.3 1.7.5 2.6.8.3-2.2.6-4.5.8-6.7 0-.2-.7-.6-1.3-1-.8 2.4-1.4 4.6-2.1 6.9zm331-2.2c.6.1 1.1.1 1.6.2v-7h-1.1c-.1 2.2-.3 4.5-.5 6.8zm6.9 1.1c-.3-.5-.4-1.3-.8-1.5-.3-.2-1 .2-1.5.4l.9 2.1c.5-.4.9-.8 1.4-1z"/>
    <path class="color-yellow color-reserved-white" fill="#F4E906" d="M223.4 368.2c2.9 2.3-.1 2.1-1.2 2.4-3.1 1-5.1 2.5-4 6.7 6.8 1.9 9.9-2.7 12.7-6.9 4.4-1.2 7.4-.3 9.8 3.2 1.9 2.9 4.6 4.4 8.1 2.3 1-3.5-1-4.9-3.6-5.9 2.5-3.8 6.5-.5 9.5-2 1.5.2 3.1.3 4.6.5l.4-.3.5.1c.4.6 1.2 1.7 1.2 1.8-1.6 1.3-3.3 2.5-5.3 3.9 5.2 2.7 5.2 2.7 12.5-3.1h7.3c4.2 2.4 7.5 4.5 11.2 6.6 2.3-5.1 0-6.4-3-7.3l1.2-1.8-.1.1c4.9-.2 9.8-.3 14.7-.5-1.7 1.8-3.5 3.7-5.6 5.8.7 1.2 1.4 2.5 2.1 3.8 6.7.1 8.6-10.2 17.3-7.7 1.6 3.2 3.4 6.4 4.8 9.3 9.2-5.1 1.5-7.5 1.3-10.6 5.4-.7 10.9-1.3 16.4-1.9l.4-.2c.4.6.7 1.1 1.2 1.8-.3 3.7-9.6.7-5.8 8.5 6-2.3 12-4.5 17.3-6.6 4.2 3.1 7.1 5.3 10.7 8 1.3-2.4 2-4.1 2.7-5.6-2.9-1.6-3.5-2.3-4-4.4 3.4.7 6.7 1.5 10.1 2.1-3.4 2.9-2.6 5.3.9 8.1 1.5-1.3 3-2.4 4.3-3.7 1.1-1.2 2-2.5 2.8-3.6 4.4-1.2 7.5-1.1 10.3 3 2 3.2 5.2 3.7 8-1.1-1.8-1.1-3.6-2.1-5.3-3.1 1.3-.7 2.5-1.8 3.8-1.8 3.8-.2 7.6 0 11.5.1-.9 3.2-8.3 2.1-5 8.3 5.7 1.4 7.8-4.3 10.4-6 8.5-2.9 10.7 5 16.8 7.1 1.1-1.4 2.2-2.9 3.4-4.4l-6-6c5.2.4 10.4.7 15.6 1.1-1.8 1.5-3.6 2.9-5.4 4.3 4.6 5.9 4.7 5.9 13.1-2.2h6.4c2.8 2.7 5.5 5.3 9 8.7 1.5-3.2 2.6-5.3 3.8-7.7-2.3-1-4-1.6-6.9-2.7h13.5c2.6 7.1 3.4 88.7 1.1 108.7-3.6.1-7.4 0-11 .4-1.9.2-3.9 1.4-5.7 2l.2-.2c-3.1.9-5.1 2.4-4.1 6.1l.2-.2c-3.2-.6-3.8 1.6-4.1 4.1l.2-.2c-2.6 1.4-5.3 1.5-7.9 0l.2.2c-2.1-3.3-4.2-6.6-6.3-10-4.6-4.2-10.1-1-15.2-1.5l-2.4-4.5c-.2-2.5-.3-5-.5-7.6-.1-1.5-.2-2.8-.3-4.3-.2-.3-.5-.7-.7-1-6.4-.3-12.8-.7-19.2-.8-6.3-.1-12.7 0-19.5 0-.4 6.5-.7 11.8-1.1 17.8-6.8 0-12.9-.1-19 0-2.7 0-6-.5-6 3.9l.2-.2c-5.5.4-8.8 4.1-12 7.9l.2-.2c-1.4.9-2.7 1.6-4.2 2.5-2.3 1.8-4.6 3.7-7 5.4-.3.7-.5 1.4-.8 2l.2-.2c-4.4 1.4-9 2.4-10 8l.2-.2c-4.5-.5-7.1 1.6-8 6l.2-.2-4.2 2.1.2-.2c-2.9-.5-5.9-.7-8.7-1.5-3.1-1.1-6-2.8-9.1-4.3l.2.2c-2.8-1.9-5.6-3.9-8.5-5.9-1.5-.7-2.8-1.4-4.3-2-2.3-1.5-4.7-3.1-7.1-4.6-1.3-.4-2.5-.8-3.8-1.2-4.5-3.2-8.9-6.3-13.5-9.5-3.3-1.5-5.5-5.9-10.2-4.3l.2.2c-.8-4.4-4.3-3.9-7.4-3.9-5.7-.1-11.4 0-18.3 0v-17.9h-33.1c-2.7 0-4.3 1.2-4.5 3.9-.2.2-.5.4-.5.6.1.5.3 1 .4 1.5-.1 2.7-.1 5.5-.2 8.2-.6.5-.6 1-.2 1.5-2.2.8-4.5 1.7-6.7 2.3-2.6.8-5.3 1.4-8 1.9-1.1 1.2-2.1 2.4-3.2 3.6-2.4 2.8-4.8 5.6-7.2 8.2-2.2-1.1-3.6-1.7-5-2.4l.2.2c-3.2-7.8-8.5-12.8-17.3-12.4-2-6.2-.1-95.4 2.2-108.1h5.7c-.9 2.5-1.7 5.1-2.7 8.1 8.6 3.4 12.5-1.5 16.1-6.7h8.3c2.1 5.5 5.6 9.3 13.2 7.6-2.1-3.2-4-5.9-6.3-9.4h13.3c-1.1 2.7-2 5.3-3.2 8.3 7.2 2.5 9-4.2 13.4-6.7h7c1.3 1.5 2.4 3.5 4.2 4.8 1.6 1.4 3.8 1.9 6.2 3.1 1-1.9 1.7-3.3 2.6-4.9-2-1.8-3.9-3.4-5.6-5 5.9.6 11.5.5 17.1.4zM143.2 428c-.7.1-1.3.2-1.9.2-2.2 11.6-.9 23.5-1.9 35.8 2.9 1.5 5.4 3 9 4.9.4-3.7.7-5.9.9-8 .3-2.5.5-5 .8-7.8 1.7-.2 3-.4 4.3-.5 10.6-1 15.8-6 17.1-16.3 1.4-10.2-4-16.5-11.4-22.1-3.1-2.2-6.2-4.5-8.6-7.5-2.3-2.7-2.3-6.1.8-8.6 2.6-2.2 7-1.4 9.3 2 1.5 2.2 2.7 4.8 4.4 7.9 4.5-7.1 3.1-13.1.9-18.9-4-.4-7.4-.9-10.7-1-9.6-.4-16.1 7.8-14.7 17.2 1.2 8.2 6.9 11.9 13.1 15.8 8 5.1 9.5 11.6 5 20.6-9.8 1.7-11.2.9-13.6-8.3-1.1-1.6-2-3.4-2.8-5.4zm278.9-16.1c-2.7-.4-5.6-.7-8.6-1.1 0 4.7 2.7 8.4-.4 12.6-6-6.6-5-18.8-17.4-19.3V438c3.2 1 6 1.8 9.3 2.9v-9.3c7.9 3 5.4 16.5 17.1 15.4v-35.1zm-167.3-8.2c-.7.3-1.3.5-1.9.8-2.9-4-5.7-7.8-8.8-12.2-2.4 1.1-4.6 2-6.7 2.9v34.5c3.6-1.3 6.5-2.2 9.2-3.1-1.3-8-1.3-8 1.5-12.9 4.1 3.4 8.2 6.8 13.8 11.4 3.8-13.5.2-25.3 3.2-37.9-4.3 1.2-6.9 1.9-9.7 2.7-.3 5.1-.4 9.4-.6 13.8zm96.1-24.9c-4-.3-7.6-.6-10.9-.8v43.5c5.2.8 10.4 1.6 15.4 2.4 4.8.8 9.4 4 15.1 2.7-3.6-8.3-4.8-16 2.9-23.9-1.6-1.7-2.9-3-3.7-3.8-9.9 3.8-6.8 12.7-10.7 18.4-2.6-1-5.2-1.8-8.1-2.9v-35.6zm90.8 49.5c5.2-4.5 9.2-.3 13.5.5 1.3-4.6 1.3-4.6-1.1-9.1-7.5-1.5-15.2-2.9-23.3-4.5 1.3 12.2 2.9 23.3-.5 35.1 7 1.2 13.9 2.4 20.9 3.5 1.5.2 3.1 0 5.7 0 .5-3.9 1-7.5 1.4-10.9-4.5.7-7.8 1.7-11.2 1.6-4-.2-6.8-2.1-4.6-7 2.3.2 4.3.4 6.9.6-.2-2.9-.4-5.1-.5-7.2-2.8-.8-4.9-1.7-7.2-2.6zm-209.8-3.1c-4.6 1.6-8.7 3.1-13 4.6-3.6-8.9 3.8-8.6 8.1-11-.6-2.5-1.1-4.8-1.5-6.5-2.8-.2-4.6-.3-7.5-.4 3.2-6.2 9.6-3.8 13-7.4v-7.2c-8.3 2.4-15.9 4.5-22.3 6.4v37.5c7.3-2.5 13.3-4.5 19.3-6.8 4.2-1.4 5.6-4.2 3.9-9.2zm-30.6-5.3v-12.1h-6.8c-8.9.2-14.6 4.4-17.5 12.4-2.9 8.1-.6 18.2 5.4 23.1 5.7 4.8 15.6 4.2 20-1.9 1.6-2.3 2.5-5.9 2.1-8.8-.4-3.6-3.5-5.1-7.2-4.9-.5 3.7-1 7.3-1.5 10.7-8.5-.8-10.2-1.8-11.3-6.7-1.7-7.6.5-12.2 8.5-16.5 2.4 1.4 4.9 2.8 8.3 4.7zm108.8-8.8c-7.9 1-10.4.5-12-3-1.8-4.1-2.1-8.4.8-12 5.5-6.8 10.7 0 16.4 1.6v-9.1c-2.8-1-5.1-2-7.5-2.6-7.4-1.7-14.1 1.5-17.8 8.4-3.6 6.8-2.3 15.5 3 20.6 5.6 5.3 14.7 6.7 20.6 2.9 7.1-4.5 6.8-10.3-.8-14.4-.4-.2-1.2.4-2.2.8-.2 2.1-.3 4.2-.5 6.8zm-64.9 65.1c6.4-5.3 11.9-10.1 18-15.2-2.1-1.4-3.7-2.3-5-3.2-2.8 2-5.2 3.8-8 5.8-.7-4.1-1.2-6.8-1.6-9.8-3.5 1.2-6.4 2-10.4 3.3.6-3.6 1-6.2 1.5-9.1-2.1-.9-3.7-1.5-6.9-2.9.4 8.4-5.4 15-1.5 23.3 3.9-1.7 6.7-3 10.3-4.6.5 2.6.8 4.4 1.3 6.1.4 1.9 1.2 3.5 2.3 6.3zm32.5 9.7c5.9-.2 9.5-2.8 11.3-7.6 1.5-4 .6-8.5-3.5-11-3.5-2.1-7.6-3.9-11.6-4.3-4.3-.5-8.6 1.7-10.2 6-1 2.7-1.1 6.8.4 9 3.2 5 8.4 7.9 13.6 7.9zm36.3-36.3c.8.1 1.5.1 2.4.2 1.4-2.4 2.7-4.8 4.5-8.4 2.1 3.6 3.5 6 5.2 8.9 2.9-7.5 2.9-10.6.3-17.7-1.9 2.2-3.6 4.2-7.1 8-1.3-3.1-2.2-5.5-3.2-8-.4.8-.9 1.5-1.3 2.3-3.2-.3-6.3-.9-9.5-1-3.6-.1-7.3.3-10.9.4-.1.7-.2 1.3-.3 1.9 2 1.2 4 2.3 5.8 3.3.2 5.9.2 5.9 2.4 10 4.7-2.3 1.5-7.2 3.9-11.1 1.6-.6 3.9-1.5 6.4-2.4.6 5 1 9.3 1.4 13.6zm73-14.2v-34.6c-2.9-1-5.6-1.8-8.9-2.9v34c2.4.8 4.9 1.9 8.9 3.5zm-34.2 42c6.2-4.4 11.3-7.1 15.4-11 4.8-4.6 3.5-10.3-2.5-13.4-3.6-1.9-7.3-2.6-11.1-.7-3.4 1.7-6.8 3.4-10.8 5.3 3 6.4 5.5 12.2 9 19.8zm-36.6 8.1V469c-5.5-4.7-12.3-4.6-19.5-2.8v18.6c6.1 4.1 5.6-4.4 9.6-3.9 3.3 1.6 6.6 3.1 9.9 4.6zm-44.4-64.1c3-.7 5.8-1.3 8.2-1.8.8-11.3 1.4-21.5 2.1-32.7-4.2.5-7.2.8-10.4 1.2.1 10.9.1 21.2.1 33.3zm59.8 56.2c-1.4-5.3-1.8-8.8-3.1-12-1.5-4-4-3.3-6.6-.6 1.8 6.1 3.6 12.1 5.5 18.5 7.1-2 13.1-3.9 19.8-5.8-1.3-2.8-2.1-4.5-2.7-5.8-4.2 1.8-7.9 3.5-12.9 5.7zM265 443.1c.3-5.1-3.7-9.5-8.6-9.6-4.3-.1-8.8 4-9.3 8.2-.4 4.3 3.5 8.3 8.4 8.7 5.1.4 9.3-2.8 9.5-7.3zm68.7-9v16.1c5.1 0 9.7 1.4 13.8-2.4-3-.6-5.9-1.2-8.8-1.7.5-3 .9-5.8 1.3-8.7 1.8-.5 4-1.1 6.1-1.6-.1-.6-.2-1.1-.3-1.6-3.8-.1-7.7-.1-12.1-.1zm-51.7 3.2v-2.7c-4.3-.3-8.5-.6-13.3-1-.3 6-.6 11-.9 16.1.5.3 1 .6 1.5 1 2.5-2.9 5-5.7 7.5-8.7-.7-.9-1.5-1.8-2.4-3.1 2.8-.6 5.2-1.1 7.6-1.6z"/>
    <path fill="#fff" d="M502 349.2c10.2-20.7 18.7-42 22.7-64.9 7.3-40 3.7-78.9-11.4-116.6-20.4-51-55.6-88.8-104.5-113.3-44.8-22.5-92.4-29.1-142-20.1-55.8 10.3-102 37.2-137.4 81.7-28.3 35.5-44 76-46.9 121.5-2.2 34.7 3.7 67.7 17.6 99.5 1.2 2.6 1.9 5.4 2.9 8.2-4.6.8-6.8-1.5-8.6-5.8-9.3-21.3-14.9-43.5-17.1-66.6-4.2-43.8 4.2-85.1 24.3-124.3 17.2-33.4 41.4-60.6 71.6-82.2 33.6-24 71.3-37.9 112.6-41.8 54.7-5.1 105.3 6.9 151 37.4 59.5 39.8 93 95.5 99.3 167.1 3.5 39.5-4.5 76.8-21.2 112.5-.7 1.5-1.5 2.9-2.3 4.3-.3.6-.8 1-1.8 2.2-2.4.4-5.6.8-8.8 1.2z"/>
    <path fill="#fff" d="M187 350.8c-15.8-18.5-28.3-38.8-34.5-62.5-10.1-38.8-5.5-76.2 13.5-111.3 23.9-43.9 61-71.2 109.9-80.7 67.8-13.2 135.7 17 167.5 77.3 28.8 54.6 24.1 108.2-10 159.3-4.3 6.4-9.9 12-14.9 18-1.8-.4-3.7-.8-6.7-1.5 4.2-5 7.9-9.3 11.5-13.7 23.2-28.9 32.6-62 31.3-98.9-2.2-64.4-52.4-122-121.5-134-59.9-10.4-122.2 16.8-154.7 68.3C154 209.7 149.2 251 163 294.4c6.8 21.3 18.4 40 35.4 56.1-4.1 1.5-7.8.6-11.4.3z"/>
    <path fill="#fff" d="M246.2 169.7c-.2-1.7-.4-3.5-.6-6 2.9-.4 5.7-.8 8.2-1.2 2.3-2.4 4.5-4.8 7.5-7.9 1.4 2.2 2.2 3.6 3.6 5.6 7.9-4.1 16-8.2 24.7-12.7.6 3.1 1 5 1.5 7.6h21.6c-6.6 18.6-12.5 36.3-19.2 53.5-3.7 9.6-8 19.1-13.7 27.6-4.5 6.7-8.9 14.4-15.4 17.1-7.5-2.9-13.6-5.2-20.8-8-2.9-4.4 1.8-8.4 3.4-12.9-1.3-4.2-2.5-8.1-3.9-12.6-2.3-.7-4.9-1.4-8.2-2.3 2.7-3.8 4.8-6.9 7.4-10.4-2.3-1.5-4.5-3.1-7.7-5.3 3.1-1.2 5-1.8 7.3-2.7.9-2 1.9-4.4 2.8-6.5-1.4-2.1-2.7-4.1-4.1-6.1.4-.4.6-.9.5-1.4 6.5.2 5.1-6.9 8.7-9.7 3.7-.5 7.3-1.1 10.9-1.5-4.4-3.9-9.1-3.2-13.8-2.8-.2-.4-.4-1-.7-1.4z"/>
    <path class="color-yellow color-reserved-white" fill="#F4E906" d="M440.4 503c-3.2-4.4-5.9-9.3-9.8-13-2.3-2.2-6.2-3.1-9.6-3.8-3.1-.6-6.4-.1-10.6-.1-.5-5.8-1-11.1-1.5-16.3-8.6-2.3-13.5-2.2-21.4.3-.6 4.8-1.2 10-1.9 16.1-6.9 0-13.3.4-19.6-.1-6.7-.6-12 1.6-16.9 5.7-12.1 9.8-24.3 19.5-36.5 29-2.8 2.2-5.6 4.2-9 6.7-10.3-6.2-20.1-12.2-30-18.3-10.5-6.4-21.1-12.8-31.5-19.3-4.8-3.1-9.9-4.5-15.7-4.1-5.4.4-10.9.1-17.3.1-.3-5.9-.5-11.2-.8-16.8-6.9-1.2-13.1-2.3-19.5 1.1-.2 4.9-.4 9.7-.7 15.1-5.6.3-10.6.5-16.5.7-5.6 6.3-11.3 12.8-17.5 19.6-2.1-1.2-4.1-2.1-5.9-3.1-3.4-4.3-6.5-8.9-10.4-12.8-2.1-2-5.5-3-8.4-3.9-2.4-.7-5-.5-8.7-.8 0-7.8-.1-15.2 0-22.5.5-27.6 1-55.3 1.5-82.8.1-3.2-1.7-7.3 2.9-9.2 4.4 1.8 2.8 5.5 2.7 8.5-.5 30.2-1 60.4-1.5 90.7-.1 2.9 0 5.8 0 9.2 1.6.5 3.1 1.3 4.5 1.3 6.9.2 12.6 2.4 16.2 8.8.3.5 1.6.4 2.5.6l-.2-.2c-.3 3.9 1.8 5.6 5.5 6.5 2.9-3.7 5.7-7.1 8.4-10.5.5-.6 1.1-1.2 1.5-1.6 5.4-1.6 10.7-3.4 16.8-5.3.4-4.3.9-9.3 1.3-14h31.7c.5 5.5.9 10.3 1.3 15.3 9.4.8 18.3 1.5 27.2 2.2l-.2-.2c3.3 2.1 6.6 4.3 10 6.5 4.5 2.4 9.1 4.8 13.6 7.3 1.3 1.2 2.5 2.2 3.8 3.4 1.5.9 2.9 1.7 4.4 2.6 1.7 1.2 3.6 2.3 5.3 3.4 3.2 1.7 5.4 5.8 10.1 4.4l-.2-.2c4.1 3.2 7.8 7 12.3 9.6 2.4 1.4 5.8.8 5.4-3.7l-.2.2 4.2-2.1-.2.2c2.7-2 5.3-4.1 8-6l-.2.2c3.3-2.7 6.7-5.3 10-8l-.2.2c.7-.2 1.5-.4 2.1-.6 1.9-1.5 3.9-2.9 5.8-4.4 1.4-1.6 2.6-3.4 4-5l-.2.2c6 .4 9-3.8 12-7.9l-.2.2c8.8-.8 17.7-1.6 26.9-2.4.7-5.5 1.3-10.7 1.9-16.6h22c1.4 0 2.7.1 4 .1 1.3 0 2.5 0 3.8.1 1.3.4 2.4.8 3.7 1.1.3.8.5 1.5.8 2.3 0 2.5.1 4.9.1 7.5 0 1.5 0 2.9-.1 4.4.4.5.8 1 1.1 1.5.8.2 1.5.3 2.3.5 5.1.4 10.3.9 15.4 1.3 2.7 2.7 5.4 5.5 8.1 8.2l-.2-.2c1 2.2 2 4.5 3 6.8.8 0 1.5 0 2.2-.1.9-2.2 1.7-4.5 2.7-6.7l-.2.2c3.2.6 4.1-1.4 4.1-4.1l-.2.2c3.3-.8 5.1-2.4 4.1-6.1l-.2.2h21.2c.9-36.8 0-72.7.4-108.5 5.3-1.5 5.8 1.2 5.8 4.4 0 11.7.1 23.4 0 35.1 0 21.1-.1 42.3-.2 63.4v11.6c-4.4.2-7.8 1-11.1.5-7.6-1.1-13.2 1.7-17.4 7.9-3.1 4.5-6.6 8.7-10.2 13.3-2.4-2.4-4.1-3.8-5.8-5.2z"/>
    <path fill="#fff" d="M414 176.7c-3.7.7-7.3 1.3-10.9 1.9.2-.4.2-.8-.1-1.1.4-.9.9-1.7 1.3-2.6.3-1.1.6-2 .9-3.1.4-.4.9-.8 2.5-2.4-4.9-.4-8.8-.7-11-.9 5.6-.7 12.9-1.5 20.1-2.1 1.3-.1 2.7 1.4 4.1 1.5.5.1 1.2-1.5 1.7-2.4l-.3.3c4 4.8 9.1 9.2 11.5 14.7 6.2 13.8 12.9 27.4 15.1 42.8 2.9 20.1 1.4 45.5-5.6 64.8-2.3-1.3-4.5-2.5-7.3-4.1 1-1.6 1.8-3.3 2.7-4.8-.5-4.1-3-5.2-10.5-4.6l.3.2c-2-.7-4.1-1.5-6.1-2.1l.2.2c-1.2-1.9-2.3-4-4.1-7 3-2.7 6.5-5.9 10.2-9.3 2.7 2.8 5.9 6 10.7 11v-10.3c2.3-2.8 5.8-5.3 6.7-8.5 1.2-4.2.7-8.9.2-13.3-.5-4-2.3-7.5-6.8-8.5-4.5-1.1-5.8 3-8.1 6.1-1.7-2.4-3.2-4.4-4.4-6-5.5-1-3.6 4.4-6.4 6.7v-7.4c-1.8-1.1-3.7-2.2-6.9-4.1 3-1.5 5.1-2.4 7.3-3.4 1.5 5.5 1.5 5.5 7.1 3.5-.6-1.5-1.2-2.9-1.7-4.4 4.3-.8 8.6-1.6 13.2-2.4-.7-3.5-2.1-6.3-1.5-8.7 1.9-8.1-1.8-14.5-6-20.6-1.4-2-4.2-3.1-6.9-5-1.1-1.8-2.5-4.5-4.1-7.2-.5-.9-1-1.7-1.5-2.6 1.5-2.1 0-3-1.5-2.6-2.4.6-6.6-2.6-7.2 2.8 1.2 1.7 2.2 3.4 3.1 5zm14.4 93.1c.6.3 1.3.6 1.8.9.1-1.2.3-2.3.4-3.5-.4-.1-.8-.1-1.1-.2-.3.9-.7 1.8-1.1 2.8zm-45 73c-4.3.3-8.5.6-12.8.9-.2.8-.4 1.5-.6 2.4 2.7 1.5 5.4 3 8 4.5-4.7.5-9.8 1-14.8 1.5-.2-.6-.4-1.1-.6-1.6 1.5-1.1 3.8-1.8 4.4-3.3.7-1.5-.1-3.8-.4-6.8-2.9 1.5-4.5 2.8-6.2 2.9-3 .2-8.2.5-8.8-.9-2.5-6-6.8-3-11.4-3.7.9 2.2 1.4 3.6 1.9 5.1-1.9 2.2-4.2 4.6-7.7 8.6h-13c-.6-1.1-1.4-2.6-2.3-4.5-3.1-.4-6.3-1.3-9.5-1.3-4.3 0-8.5-.9-12.1 3.7-1.6 2.1-6.4 1.9-9 2.6 1.6-1.3 3.5-2.8 5.3-4.3-.5-.9-1.1-1.7-1.5-2.5-2.6-.5-5.2-1.1-8.8-1.7 10-3.7 19.1-7.1 28.5-10.5-1.9-7.2-9.4-6.5-12.7-11.7 12.8 2.8 25 5.5 37.5 8.3-.2 1.9-.4 3.7-.6 5.4 4.5 4.3 7.5-.5 10.6-2 11.9 2.6 23.5 5.2 35.1 7.8.5.2 1 .6 1.5 1.1zm-28.6-204.3c-.6-2.5-1.6-6.9-2.8-11.5 1.5-.5 4-1.4 7.3-2.4-2.3-3.1-4.1-5.5-6.3-8.4-1.4 1-2.7 1.9-4.6 3.3-.7-2-1.4-4-1.9-5.8 1.2-.5 1.8-1.1 2.2-.9 24.5 7.4 47 18.1 64.2 38.2-4.8 3.7-10.1 4.6-15.9 4.5-10.9-.3-22-.1-32.7-.1-2.7-4.9-5.4-9.7-9.5-16.9zm34 5.6c1.1-1.6 2-3.4 2.7-4.5-2.9-2.5-5.1-4.4-7.9-6.8-3.4-.6-7.5-.9-9 4.5-4.6 1.7-10.3-.3-15.6 3.7 3.2.9 5.3 1.5 7.7 2.2-1.1 3.1-1.9 5.6-2.7 8 7.4 3.1 8.5-2.6 11-7.2 1.8 2.5 3.2 4.4 4.5 6.1 4.5-.4 8.3-.7 12.1-1 6.9 0 6.9 0 10.4-2.5-4.1-2.4-9.5 2.3-13.2-2.5zm-79.3-23c1.7-1.5 3.6-3.2 5.9-5.3 3.7-.3 8.1-.8 13.4-1.3-1.9 8.7-9.1 4.1-12.9 7 1.4 5 6.3 1.2 9.1 3.6.4 1.5 1 3.3 1.7 6-2.3 2.3-5.1 4.8-7.6 7.6s-5.5 3.3-8.8 2.1c-6.5-2.3-12.5-1.4-18.6 1.7-4.2 2.1-8.6 1.6-13.3-.1 7.4-7.1 7.4-7.1 14.7-3.3 2.5-3.5 5.1-7.1 7.8-10.7 2.1.7 4 1.2 6 1.8.9-2.7 1.6-5.5 2.5-8.2l.3-.5-.2-.4zm-66.4 209.3c8.3-2.8 14.3-4.9 20.8-7.1-.7-4-1.3-7.3-1.8-10.9 6.7-2.7 13.2-4.9 20.7-.6.2 1.7.6 4.1 1 6.7-1.4.4-2.3 1.1-3.1.9-6-1.5-10.5.4-14.5 5-2.7 3.1-6.5 5.2-10.5 8.3-1 2.7-2.2 6.2-3.7 10.2-3.1-.9-6.3-1.7-9.8-2.7-1.8-13.8 1.6-28.1-2.3-43.4.2-.3 1.3-2.1 2.4-4.2 1 1.8 1.9 3.6 2.8 5.2-4.7 10.2-1.4 20.6-2 32.6zm56.4-86.4c2.1-1.5 4.7-3.3 8.1-5.6.6 7 7.9 8.2 11 13.7-1 2.2-1.9 4.4-3 6.7-.7-.5-1.4-.7-1.5-1.1-.6-2.1-1.2-4.4-1.8-7.3-4.1 3.8-1.1 6.3-1 8.9.2 2.8-.2 5.7-.4 10.2-1-3.5-1.5-5.6-2.3-8.8-1.8 2.3-3.1 3.9-4.7 6.1-1.6-1.2-3.4-2.3-5.6-3.8-.5 1.8-1 3.4-1.5 5.4-3-.1-6.1-.3-10.5-.5 4.5-8.1 8.5-15.5 13.2-23.9zm91.5-65.8c-1.7 6-3.6 12.1-5.4 18.6-2.4.6-5.4 1.2-8.7 1.9-3.8-5.9-5.1-12.8-7.3-19.5-1.9-6.2-4.8-11.8-4.2-20l4.5 4.5c.7-.9 1.5-1.7 2.1-2.7.8.2 1.5.3 2.4.5-.4 2-.7 4.2-1.1 6.2-.9 1.1-1.7 2.1-3.1 3.8 3.4 2.1 6.1 4 9.2-.1 1-1.4 2.6-2.2 4-3.3.8-1.5 1.5-3.2 2.2-4.7 1.8.6 3.6 1.2 5.4 1.7-1.5.1-3.2.1-4.9.2.5 2.4 1.1 4.8 1.6 7.5 1.5.2 3 .3 4.6.5 0 .7-.1 1.4-.1 2-.4.9-.7 1.7-1.1 2.6l-.1.3zm-11.2-3.2c-3.4.8-5.2 1.2-6.7 1.5.9 3.7 1.6 7.5 2.6 11.8 2.7-1.5 4.4-2.5 6.5-3.8-.8-3.1-1.5-5.9-2.4-9.5zM276.5 296.2c.1-1.9.2-3.8.4-6.4 1.5-.9 3.4-1.9 5.3-3v-4.6c-2.9-.3-6.9 1-5.4-5.1 1.5.2 3.1.4 5 .7.3-1.7.7-3.7 1-5.4.2-.2.4-.3.6-.4.4.9.8 1.7 1.5 3.5 1.3-.4 2.5-.9 3.9-1.1 1.2-.2 2.3 0 4.2 0-.3 3-.6 5.3-.9 8.7 3.9-3.7 7.2-6.9 10.8-10.3 2.4 4.9 4.7 9.7 7.1 14.4-.5.3-1.1.7-1.5 1-2.2-1.8-4.4-3.7-7.5-6.4-1.7 6.7-3.2 12.4-4.7 18.4-4-2.5-7.7-4.8-10.5-6.6-3.7 1.1-6.6 2-9.3 2.6zm39.3 18c-9.8-.8-18.3-1.5-28.4-2.2 2.1-2 3.6-3.4 4.8-4.5 6.1 1.9 6.1 1.9 11.4-.4-1.4-2.7-2.6-5.3-4.2-8.4 2.8.6 4.8 1 7.2 1.4.5-3.1.9-5.5 1.3-8.2 3.5-1.2 6.8-2.2 10.7-3.5.9 1.7 1.8 3.5 2.8 5.5 2.1.3 4.3.6 6.9.9.2 1.4 1 2.9.5 3.8-1.5 2.6-3.4 4.9-5.8 8.3-2.9-2.3-6.3-5-9.7-7.8-3.3 2.7-3.3 2.7-3.4 8.2 1.4-.9 2.5-1.6 4.4-2.8.5 3 .9 5.9 1.5 9.7zm-57.4-197.9c23.1-9.6 46.9-11.9 71.3-7.8.1.7.1 1.5.2 2.1-23.8 2-47.7 3.8-71.5 5.7zM375.8 246c6.9-3 10.6-7.9 9.4-16.5 5.5 2.5 9.9 4.5 14.5 6.5-2 3-3.9 5.6-5.7 8.3v10.1c-.5 0-.9.1-1.4.1-1.2-2.5-2.3-5-3.5-7.5v-6.5c-1.8 2.7-2.5 3.8-3.3 4.9-2.2 2.5-4.4 5.1-6.6 7.6 1.1 2.9 1.8 5.2 2.8 7.9-1.5.1-2.9.5-3.1.1-1.8-3.3-3.5-6.8-5.2-10.2.8-1.4 1.5-3.1 2.1-4.8zM304 235.7c-4.7-5.3-.7-7.5 2.2-10.3 1.1.9 1.6 1.4 1.5 1.3 8.2-5.9 16.4-11.6 25.2-17.9 1.9-4.4-10.1-.8-5-8.1 2.7 2.1 5.4 4.4 7.4 5.9-.7 5.9-1.2 10.5-1.7 16-12.2-2.5-21.4 3.4-29.6 13.1zM85.1 351c3.7-.8 7.4-1.8 11.1-2.2 4.4-.4 8.2 1 10.7 6-2.7-.3-4.9-.5-7.8-.8.5 2.4.8 4.1 1.2 6-4.8 4.9-10.2 1.7-15.3 1.2-.5 1.2-1.1 2.3-1.5 3.5-2-1.3-4.1-2.4-6.8-4.1 3.3-3.7 6.1-6.8 8.8-9.9l-.4.3zm175.2 17.2l-.5-.1-.4.3c-.6-3.2-2.7-2.6-4.8-1.8-3.7-.5-7.5-1.1-11.1-1.5-.4-2.4-.9-4.9-1.4-7.7 8-3.5 15.5-.8 22.5-.9 2.5 6 0 9.3-4.3 11.7zm87.8-79.4c-3.6 3.8-5.6 5.9-7.5 8-2.1-1.8-2.2-3 0-6.1-1.5-.5-2.9-.9-4.8-1.5-.8-3.3-1.6-6.8-2.8-11.8 3.1 1.3 5.1 2.1 7.5 3.2 1.9-4.9 5.2-6.8 10.6-3.2-1.3 4.4-2.4 8.7-3 11.4z"/>
    <path fill="#fff" d="M261.4 284.1c-2 4.2-4 8.3-6.7 14 1.5.7 3.9 1.8 4.4 2-2.5 7.9-4.5 14.1-7.1 22.1-.6-2.8-1.2-4.1-1.1-5.3.7-7.6 1.2-15.4 2.4-23 .7-4.4.7-7.6-3.8-9.7-3.5-1.5-3-4.4-1.9-8.4 3 1.9 5.4 3.8 8 5.1 1.5.9 3.4 1.2 5.1 1.6.1.8.2 1.3.7 1.6zm-40-23.1c1.4 5.2 2.6 10.5 4 15.9-3.2 2.5-5.6 4.5-8.5 6.7-1.8-3.1-3.3-5.5-4.6-7.9 1.7-2.4 3.4-4.5 5.2-7.1-5.7-.5-8.4-3.4-9.8-8.4 2.3-1.2 4.5-2.3 6.7-3.5 1.6 2.4 3.3 4.9 7 4.3zm-7.1-5.5c-.7-4.4-3.3-6.8-8.4-8 1-4.5 1.8-9 2.9-13.9 2.8.3 5.6.5 8.7.9 3.9 6.8-.8 15.1 4 21.5-2.4-.3-4.8-.4-7.2-.5zm-7.9 110.1c-2.3-4-2.3-4-1.8-9.7h23.3c-.3 4.1 1.9 7.8-2.7 9.9-6.2-.1-12.5-.1-18.8-.2zm297.8-.8c-4.5-6.6-2.5-11.9 5.4-13.4 6.8-1.3 13.3 0 18.3 5.3l.2-.2h-4.7c-3.7 2.7-6 5.6-8.8 6.1-3.2.6-6.7-1-10.2-1.6.1 1.5.2 2.5.3 3.4-.1.2-.5.4-.5.4zm-167.9 1.5l-.4.2c-5.4 0-10.8 0-16.3-.1-1.1-2.6-2.1-5.2-3.7-8.9h23.7c.3 3.8 1.3 7.2-3.3 8.8zm-148.1-10.1v8.3h-23.5c-.2-2.9-.4-5.5-.5-8.3h24zm37.4-22.7h13.7c-2.4 2.2-3.3 3.7-4.5 4.1-9.5 3.1-19.1 6-28.6 9-3 1-4.7-.3-6.7-3.4 7.3-2 14-3.8 20.6-6 2-.7 3.7-2.5 5.6-3.9l-.1.2z"/>
    <path class="color-yellow color-reserved-white" fill="#F4E906" d="M442.6 523.2c8.4-1.2 8.4-1.2 13.2 3.9-.9.4-1.5.9-2.2 1.1-.9.3-1.7.4-3.5.9v14.1c-.4 0-.9 0-1.3.1-.6-2.9-1.3-5.9-1.8-8.8-.6 0-1.2-.1-1.7-.1-.5 3.8-1 7.5-1.5 11.7-4.2-5.2-4.6-13.7-1.2-22.9z"/>
    <path fill="#fff" d="M285.1 368.4c-.4-.3-.9-.5-1.4-.9-2.9-4-2.9-4-2.8-10.1h20.5c1 3.4 1.1 6.6-1.8 9.5-5.1-2.1-10.1-2.9-14.5 1.5zm-134.3-3.7h-18.9c-.5-2.8-1-5.5-1.6-9.5h19.1c.6 3.4.9 6 1.4 9.5zm264.3-37.6c-1.3.1-2.4.2-3.9.3 4.2-13 9.4-15.9 18.9-10.4-3.5 5-5.2 11.4-11.6 14.1l.2.2c-.2-1.5-.4-2.8-.5-4.3.3-1.7.6-3.4 1.1-5.9-3.8 2.4-3.8 2.4-4.2 6zm-56.5 39.5c-5.1-1.8-4.9-5.1-2.4-9.6h16.7c.9 3.4 2 6.6-1.5 9.4-4.2.1-8.4.1-12.8.2zm83.1-10.2c3.6 5.5 3.2 7.4-1.6 10.3-5-.4-10.2-.8-15.2-1.2-1.1-2.6-2-5.2-3.5-8.7 3.5-.4 5.5-.6 7.5-.8 4.3 0 8.6.2 12.8.4zM214.8 223.5c-2-6-4.2-12-6.6-19 6.5 2 11.7 4.4 13.1 10.5.9 4.5-1.8 7.4-6.5 8.5zm173.1 141.4c-.3-2.5-.5-5-.9-8.8 3.7 0 6.8-.1 9.9 0 3.2.1 6.3.4 10 .6.5 3.6 1.5 6.7-1.8 9-5.9-.3-11.5-.5-17.2-.8zM218.6 201c-3.4-1.2-6-2-9.5-3.2-.3-4.1-.6-8.9-.9-13.7 7.9 1.3 11.7 7.4 10.4 16.9zm3.4 103.2c-1.7-2.1-3.4-4.2-6.5-7.9-.2-1.5-.6-5.2-1.1-8.7 4.9-1.6 7.4-.4 8.3 3.5 1.1 4 1.8 7.9 3 12.7-1.4.1-2.7.2-4.2.3l.5.1zm251.1 52.2c.4 2.6.7 5.2 1.2 8.7-4.5.6-8 1.2-13 1.7-.4-4-.8-7.2-1.1-10.4.6.1 1-.1 1.2-.6 1.5.1 3.2.1 4.7.2 2.2.2 4.7.3 7 .4zm-44.7-81.7c-.4 1.7-.5 3.6-1.3 5.1-1.1 2.1-2.5 4.1-3.8 6-2.9-2.2-6-4.7-9.8-7.6 2.8-2.5 4.9-5.6 9.3-5.1l-.2-.2c2 .7 4.1 1.5 6.1 2.1l-.3-.3zM239.9 122.3c.7 3.3.9 4.7 1.4 7-5.8-.8-6.1 9-13.4 6.2-.4-1.1-.9-2.2-1.6-4.5 4-2.5 8-5.1 13.6-8.7zm257.2 234.4c1.5 9 .7 9.7-8.5 7.5v-8.5c3.4.4 6.1.7 8.5 1zM332.9 227.8c2.4 1.3 4.1 2 6.4 3.2-3.8 5.4-7.3 10.4-10.8 15.5-3.4-5.9-3.3-5.9 3.9-10.5.1-2.6.3-5 .5-8.2zm77.6 74.7c2.7-.6 5.4-1.2 8.8-1.8-.2 2.1-.3 3.5-.4 5.1 1.1.4 2.2.8 3.4 1.3-4.8-.7-7.5 9.5-13.5 2.6.5-2.4 4.5-3.9 1.7-7.2zm2.3 32.6c1.5 4.1-.2 6.8-1.9 7.7-4.9-3.5-9.4-6.6-13.7-9.7.4-.5.8-1.1 1.1-1.5 4.9 1.3 9.9 2.5 14.8 3.8l-.3-.3zm-10.3-25.3c-2.1 3.7-4.4 7.4-6.7 11.4-1.4-1-2.6-1.8-4.7-3.3 1.9-1.3 3.2-2.1 4.6-3.1V307c2.8-.9 5.5-1.6 8.2-2.4-.4 1.7-.9 3.4-1.4 5.2zm-7.7-34.8c4.2 4.8 9.7-.1 13.8 2.4-.5.7-1.5 1.9-2.3 3.1-5.5-1.6-6.3-1.4-10.3 3.4 1.5.3 3 .6 4.5.8-1.8 1.1-3.7 2.2-5.5 3.3-6.7-3.4-.4-8.4-1.6-12.4l.9.2.5-.8z"/>
    <path class="color-yellow color-reserved-white" fill="#F4E906" d="M125.7 351.3c3.1 3.4 1.9 7.3 1.2 10.8-.3 1.3-2.8 2.1-4.5 3.4-3.8-6.9-1.8-11 3.3-14.2z"/>
    <path class="color-red color-main" fill="#8c0e0f" d="M374.6 161.3c-.8-.2-1.5-.3-2.4-.5 3.9-1.1 8.6-4 11.5-2.7 4.9 2.1 10 3.6 16.1 4.5-3 3.9-5.8 2.7-8.5 2.2-1.8-.6-3.6-1.2-5.4-1.7-3.8-.5-7.6-1.2-11.3-1.8zm-65.5-43.5c-10.5.9-20.9 1.8-31.5 2.7-.1-.7-.1-1.4-.2-2 10.5-1.2 21.1-2.4 31.5-3.6.1 1 .1 1.9.2 2.9z"/>
    <path fill="#fff" d="M333.2 192.9v-25.5c4.6 5.8 5.1 18 0 25.5z"/>
    <path class="color-yellow color-reserved-white" fill="#F4E906" d="M193.5 355.7h6.1v10.5c-6.9-.9-6.9-.9-6.1-10.5z"/>
    <path fill="#fff" d="M221.7 303.9c.2 2.4.1 4.8.6 7.2.5 2.6 1.4 5.2 2.4 9.2-8.4-3.2-7.2-9.4-8.5-14.7 2.3-.6 4-1 5.7-1.4l-.2-.3z"/>
    <path class="color-yellow color-reserved-white" fill="#F4E906" d="M418.5 356.7c-.3 3.5-.6 6.3-.9 9.4-2.1.1-3.7.2-5.9.3v-10.9c2.1.3 3.9.7 6.8 1.2zm36.8.1v9.2c-5.3 1.4-6.8-1-7.1-4.8-.3-4 1.1-6.4 5.5-5.6.6.3 1.1.8 1.6 1.2zm-72.4-2.2v11.1c-3.7 1.9-5 .3-5.6-2.8-.9-4.4-.5-5 5.6-8.3zM157 365.5c-3.7-7.8-3.7-8.1 2.1-10.4 2.4 7.1 2.4 7.1-2.1 10.4z"/>
    <path class="color-red color-main" fill="#8c0e0f" d="M206.4 365.6c6.3.1 12.5.2 18.8.3-.6.8-1.2 1.6-1.7 2.4-5.6.1-11.2.2-16.8.2-.1-.9-.2-1.9-.3-2.9z"/>
    <path class="color-yellow color-reserved-white" fill="#F4E906" d="M483.2 356.6c.5 3 .9 6 1.4 9.3-7.4-.6-7.4-.6-5.5-9.3h4.1zm-133.7-1.1c.4 4.6.6 7.3.9 10.6-2.3.2-4.1.3-5.9.5-2.2-4.8-1.4-7.9 5-11.1z"/>
    <path class="color-red color-main" fill="#8c0e0f" d="M387.9 364.9c5.7.3 11.4.6 17 .8 0 .9-.1 1.7-.1 2.6-3.9-.1-7.6-.3-11.5-.1-1.3.1-2.5 1.3-3.8 1.8-.5-1.7-1-3.3-1.6-5.1zm12.7-80.1c-1.5-.3-3-.6-4.5-.8 3.9-4.7 4.6-4.9 10.3-3.4.8 1.2 1.6 2.2 2.4 3.4-2.1.8-4.3 1.5-6.4 2.4-.6-.6-1.2-1.1-1.8-1.6z"/>
    <path class="color-yellow color-reserved-white" fill="#F4E906" d="M308.4 357.5c5.8 3.7 5.8 3.7 1.8 9.3-4.8-1.9-5.1-4.7-1.8-9.3z"/>
    <path class="color-red color-main" fill="#8c0e0f" d="M424.9 365.4c5 .4 10.2.8 15.2 1.2.2.6.1 1.2-.1 1.7-5.2-.4-10.4-.7-15.6-1.1.1-.5.3-1.1.5-1.8z"/>
    <path fill="#fff" d="M115.3 365c-6.2-5.2-6.2-5.2-.5-9.9 3.9 2.8 4 5.8.5 9.9zm244.2-87.3c4.7 3 7.5 4.7 10.9 7-1.2 1.3-2.3 2.5-4.4 4.6-2.1-3.9-3.8-7-6.5-11.6zm67 24.5c4.1-1.1 7.5-1.8 12.4-3.1-1.6 4.2-2.5 6.4-3.4 8.7-2.8-1.7-5.4-3.3-9-5.6z"/>
    <path class="color-yellow color-reserved-white" fill="#F4E906" d="M233.5 356c7.2 3.5 7.3 4.9 1.8 10.5-3.6-2.7-1.5-6.1-1.8-10.5z"/>
    <path fill="#fff" d="M386.8 349.3c.5-1.3 1.1-2.6 1.7-4.4 3.5 1.4 7.2 2.8 10.8 4.2-.1.8-.2 1.5-.3 2.2h-11.9c0-.8-.1-1.5-.3-2zM271.9 140.1c.3 2 .5 3.8.9 6.3-3.5-.4-6.2-.7-9.4-1.1 1.4-4.8 4.8-4.7 8.5-5.2z"/>
    <path class="color-red color-main" fill="#8c0e0f" d="M402.5 309.8c.5-1.7.9-3.6 1.4-5.3 2.2-.7 4.4-1.3 6.6-1.9 2.8 3.2-1.3 4.6-1.8 7-2.1.1-4.1.2-6.2.2zM254.1 120c2.5 1.6 4.9 3.3 8.6 5.6h-11.2v-4.9c.8-.2 1.7-.5 2.6-.7zm138.3 55.1c0-.7.1-1.4.1-2 4.3-.4 8.4-.8 12.7-1.1-.3 1.1-.6 2-.9 3.1-4-.1-8-.1-11.9 0z"/>
    <path class="color-yellow color-reserved-white" fill="#F4E906" d="M271.9 368.3c-1.1-3.2-1.8-4.5-2-6.1-.1-1.1.6-2.3.9-3.5 4.1-.6 6.3.9 5.7 4.6-.3 1.5-2.4 2.7-4.6 5z"/>
    <path fill="#fff" d="M527.2 365.8c-6.8 3.3-13.5 5.3-20.6.7l-.2.2c6.4-.8 12.9-1.6 19.3-2.4.5.5 1 .9 1.5 1.5z"/>
    <path class="color-red color-main" fill="#8c0e0f" d="M426.6 218.1c.6 1.5 1.2 2.9 1.7 4.4-5.5 2-5.5 2-7.1-3.5 1.9-.3 3.6-.6 5.4-.9zm-6.6-46.5c.5.9 1 1.7 1.5 2.6-2.4.9-4.9 1.7-7.4 2.6-1-1.6-1.8-3.3-2.8-5 2.8-.1 5.7-.2 8.7-.2zM243.4 365c3.7.5 7.5 1.1 11.1 1.5.3.5.3 1 .2 1.5-3 1.5-7-1.7-9.5 2-.5-1.7-1.1-3.3-1.8-5z"/>
    <path fill="#fff" d="M117.3 380.1c-2.4-4.7-3.8-7.4-5.3-10.4 6.2 1.1 6.2 1.1 5.3 10.4zm215-88.9c-3.8-2-5.9-3.2-8.6-4.6 1-1.4 2-2.7 3.7-5 1.7 3.3 2.9 5.8 4.9 9.6zm-103 59.5c-6.9 2.3-7.6-.1-7.5-5.4 2.7 1.8 4.3 3.1 7.5 5.4zm298.7 6.1c1.7.9 3.5 1.8 6.6 3.5-3.1 2.3-5.2 3.9-7.3 5.4-.5-.5-1-1.1-1.5-1.5.8-2.5 1.5-5 2.4-7.5l-.2.1zm-423.6 7.3c1.5 3.3-1.5 3.9-3.1 4.1-3.7.5-7.5.1-12.1.1 5.8-1.5 10.6-2.6 15.5-3.9l-.3-.3zm91.6-75.8c-1 3-1.7 5.1-2.4 7.5-.9-.6-1.7-.8-1.8-1.2-.9-3-1.1-5.6 4.2-6.3zm41.4 39.9c-1.7 3.7-4.5 3.4-7.8 2.4 2.9-6.1 2.9-6.1 7.8-2.4z"/>
    <path class="color-red color-main" fill="#8c0e0f" d="M214.3 255.5c2.4.1 4.8.2 7.2.2-.1 1.7-.1 3.5-.2 5.2-3.6.6-5.3-1.9-7.1-4.4-.2-.2-.2-.6.1-1zm70.8 112.9c4.5-4.4 9.5-3.5 14.6-1.5.3.3.3.6.1 1-5 .1-9.8.3-14.7.5z"/>
    <path fill="#fff" d="M321.4 271.4l3.9 6.6c-3.3-.9-6.3-2-3.9-6.6zm80.9 15c2.1-.8 4.3-1.5 6.4-2.4 1.8 3.4 1.8 3.4-3.2 7-1-1.6-2.1-3.1-3.2-4.6z"/>
    <path class="color-red color-main" fill="#8c0e0f" d="M276.4 296.1c.2 4.9-4.2 4.3-7.1 6.5-.6-6.9 3.9-5.8 7.1-6.5z"/>
    <path fill="#fff" d="M389.9 310.5c-1.3 1-2.4 1.8-3.7 2.8-.5-1-1-2-1.4-3 1.5-.4 2.9-.9 4.5-1.3.1.4.4.9.6 1.5zM254.1 120c-.9.2-1.7.5-2.6.7-1.5-.3-3.1-.5-4.6-.8 0-.4 0-.8.1-1.2 3.5.2 7 .4 10.8.6-1.6.2-2.7.5-3.7.7zm58.1 87.9c-1.4-3.7-2.2-6.2-3.9-10.6 3.4 1.6 5.1 2.5 7.4 3.6-1.1 2.2-2 4.1-3.5 7z"/>
    <path class="color-red color-main" fill="#8c0e0f" d="M358.6 366.6c4.3-.1 8.6-.1 12.9-.2.6 2.5.3 4.3-2.9 4-3.4-.7-6.7-1.5-10.1-2.1-.1-.6-.1-1.2.1-1.7z"/>
    <path fill="#fff" d="M324.3 159.9c1.6 1.3 3 2.3 4.7 3.7-4.7 1.5-4.7 1.5-4.7-3.7z"/>
    <path class="color-red color-main" fill="#8c0e0f" d="M319.7 366.4c5.4 0 10.8 0 16.3.1-5.4.7-10.9 1.3-16.4 1.9 0-.6.1-1.3.1-2z"/>
    <path fill="#fff" d="M304.2 151.6c-2.6-.2-5.2-.3-8.8-.6 3.7-4.6 6.4-3.8 9.1-.9-.2.5-.3 1-.3 1.5z"/>
    <path class="color-red color-main" fill="#8c0e0f" d="M375.8 246c-.7 1.6-1.4 3.4-2 5-1.3-1.1-2.4-2.2-5.1-4.5 3.5-.2 5.3-.4 7.1-.5z"/>
    <path fill="#fff" d="M332.3 194.2c-3 .4-4.5.7-6.6 1v-6.9c2.5 2.3 4.1 3.7 6.6 5.9z"/>
    <path class="color-red color-main" fill="#8c0e0f" d="M162.7 243.4v7.8c-1.1-.3-2-.3-2.1-.6-1.2-2.6-2.3-5.3 2.1-7.2z"/>
    <path fill="#fff" d="M179.9 189.2c-4.9 0-6.2-1.5-2.3-4.9.9 2 1.6 3.4 2.3 4.9zm58.5-17.5h-7.6c-.1-.9-.5-1.5-.3-1.8 2.8-4.5 5.1-4.1 7.9 1.8z"/>
    <path class="color-red color-main" fill="#8c0e0f" d="M441.7 356.4c-4.3-.2-8.5-.4-12.7-.5 4.3-1.3 8.6-1.9 12.7.5zm-26.6-29.3c.5-3.7.5-3.7 4.3-5.8-.5 2.4-.8 4.2-1.1 5.9-1.1-.1-2.1-.1-3.2-.1zM242.2 149.6c-.2-1.7-.4-3.5-.5-5.1.7-.1 1.3-.3 1.9-.4.5 1.7 1 3.5 1.4 5.2-1 0-1.9.2-2.8.3z"/>
    <path fill="#fff" d="M166 264.1c-.2-1.4-.4-2.7-.9-6.1 2.1 2.1 3.2 2.7 3.5 3.5.2.7-.5 1.6-.8 2.5-.6 0-1.2 0-1.8.1z"/>
    <path class="color-red color-main" fill="#8c0e0f" d="M404.7 236.3c.5 2.2 1 4.4 1.7 7.6-4.4-2-3.3-4.7-1.7-7.6z"/>
    <path fill="#fff" d="M483.2 356.6H479c-.2-1.3-.4-2.5-.6-3.8 1.5-2.8 2.8-.3 4.3.2.1 1.2.3 2.4.5 3.6z"/>
    <path class="color-red color-main" fill="#8c0e0f" d="M309.5 121.1l.3.5-.3.5c-3 .1-6.1.3-9.1.4v-1.8c3.1.1 6.1.2 9.1.4z"/>
    <path fill="#fff" d="M418.6 331.2c-.4 3.7-2.5 4.6-5.8 4l.2.2c1.9-1.4 3.9-2.7 5.8-4.1l-.2-.1z"/>
    <path class="color-red color-main" fill="#8c0e0f" d="M206.1 262.1c-.5 1.5-1.1 3.1-1.5 4.6-.6-.2-1.2-.5-1.7-.7.7-1.5 1.3-3 1.9-4.5.4.2.9.4 1.3.6zm179.8-16.6c.8-1.2 1.5-2.2 3.3-4.9v6.5c-1.1-.5-2.2-1.1-3.3-1.6z"/>
    <path fill="#fff" d="M235.1 156.8c1.8 1.7 3.3 3.5-.8 5l-1.2-4.5c.8-.1 1.4-.3 2-.5z"/>
    <path class="color-red color-main" fill="#8c0e0f" d="M228 320.1c.5-.9.8-1.4 1.1-1.8.7.5 1.5.9 1.9 1.5.1.1-.7 1.5-.8 1.5-.8-.3-1.6-.8-2.2-1.2zm-23.4-72.8c-1.1.8-1.7 1.3-2.3 1.7-.5-.7-1.1-1.3-1.4-2-.1-.2.9-1.2 1.2-1.1.7.2 1.4.7 2.5 1.4zm268.5 109.1c-2.3-.1-4.7-.2-7.1-.3 2.4-2 4.8-2.1 7.1.3zM403 177.6c.3.4.3.7.1 1.1H396v-1.1h7zM167.5 278.9c-1.1.6-1.8 1.5-2.4 1.3-.6-.2-1.4-1.3-1.3-1.8.1-.6 1.2-1.4 1.8-1.4.5.1 1.1 1 1.9 1.9z"/>
    <path fill="#fff" d="M377.8 281.1c-.7-.8-1.6-1.5-1.9-2.4-.2-.7.7-1.5 1.5-3.5 1.1 2 1.6 3.3 2.2 4.5-.6.6-1.2 1.1-1.8 1.4z"/>
    <path class="color-red color-main" fill="#8c0e0f" d="M386.8 349.3c.1.7.3 1.4.4 2-.7.4-1.5.8-2.1 1.2-.3-.8-.6-1.5-.8-2.4.8-.3 1.6-.6 2.5-.8zM246.2 169.7c.3.5.5 1.1.6 1.6-.7.5-1.3 1.1-1.9 1.5-.2.1-.8-.8-1.2-1.2.9-.7 1.7-1.4 2.5-1.9zm-11.1-12.9c-.7.2-1.4.3-1.9.5-.1-1.2-.3-2.2-.4-3.4.8 1 1.5 1.9 2.3 2.9z"/>
    <path fill="#fff" d="M497.2 371.1c-.8 1-1.5 1.8-2.3 2.7-.1.1-.9-.7-1.4-1.1.8-1 1.5-1.8 2.4-2.8.4.5.9.9 1.3 1.2z"/>
    <path class="color-red color-main" fill="#8c0e0f" d="M261.7 119c1.9-.1 4-.2 5.9-.4 0 .4 0 .9.1 1.3h-5.9c-.1-.2-.1-.5-.1-.9z"/>
    <path fill="#fff" d="M225.8 333.3c-1.3-.7-2.5-1.4-3.9-2.1 4.5-3.7 2.3 1.7 3.7 2.3l.2-.2z"/>
    <ellipse class="color-red color-main" fill="#8c0e0f" cx="245.2" cy="139.2" rx="4.3" ry=".6"/>
    <path fill="#fff" d="M229.5 144.5c-.5-1.3-1-2.4-1.5-3.7l1.5-.6c.5 1.3 1 2.5 1.4 3.7-.4.2-.9.4-1.4.6zM104.6 364.4l3-2.7c.2.5.4 1 .7 1.5-1.3.3-2.5.7-3.8 1-.1-.1.1.2.1.2zm227.8-222.1c.8.9 1.5 1.8 2.2 2.7-.3.4-.7.7-1 1.1-1-.9-1.8-1.7-2.8-2.5.5-.5 1.1-.9 1.6-1.3z"/>
    <path class="color-yellow color-reserved-white" fill="#F4E906" d="M445.8 513.8c-.9 1.1-1.6 2-2.5 3.1-.4-.3-.9-.7-1.3-1 .8-1.1 1.6-2.1 2.4-3.1.5.3.9.6 1.4 1z"/>
    <path fill="#fff" d="M229.8 196.7c-.7-1.1-1.5-2.1-2.1-3.2.5-.4.9-.7 1.4-1.1.8.9 1.5 1.7 2.3 2.5-.6.7-1.1 1.2-1.6 1.8z"/>
    <path class="color-red color-main" fill="#8c0e0f" d="M240.9 185.3c0 .6-.1 1-.5 1.4-1.4-.1-2.7-.2-4.2-.3 0-.4 0-.7.1-1.1h4.6z"/>
    <path fill="#fff" d="M176 248.8c-.7-.7-1.3-1.5-1.9-2.1.3-.2.6-.5.8-.7.6.7 1.3 1.5 1.8 2.1-.2.3-.4.5-.7.7z"/>
    <path class="color-red color-main" fill="#8c0e0f" d="M169 250.7c-.2 1.3-.3 2.5-.5 3.8h-1.2c-.1-1.3-.2-2.6-.2-3.9.7 0 1.3.1 1.9.1zm235-92.6c1.4-.1 2.6-.3 4-.4 0 .4.1.9.1 1.3-1.4.2-2.7.3-4 .5 0-.5 0-.9-.1-1.4zm-142.6 126c-.6-.4-.8-.9-.5-1.5.1-1.2.2-2.2.4-3.4.5.1.9.2 1.4.3-.4 1.5-.8 3.1-1.3 4.6zm142 39.8c-1.5.6-3.2 1.3-4.7 1.8-.1-.5-.3-1-.4-1.5 1.5-.4 3.1-.7 4.6-1.1l.5.8zm-99.2-172.3l.3-1.5h4.2c0 .4 0 .8.1 1.2-1.6.1-3.1.2-4.6.3zm77 168.8c.1 1.4.2 2.7.3 4.1-.4 0-.8 0-1.2.1-.1-1.4-.2-2.7-.3-4.1.5 0 .9-.1 1.2-.1z"/>
    <path class="color-red color-main" fill="#8c0e0f" d="M402.9 323.3c1-.6 2-1.1 3-1.6.2.4.4.8.5 1.2-1 .4-2 .7-3 1.1l-.5-.7z"/>
    <path class="color-yellow color-reserved-white" fill="#F4E906" d="M128.1 348.8c.3-1.2.7-2.4 1-3.6l.7.2.2.7c-.1.9-.2 1.7-.2 2.6l-.9.1h-.8z"/>
    <path class="color-red color-main" fill="#8c0e0f" d="M405.4 195c.9.1 1.8.3 2.7.5v.7c-.9.2-1.8.3-2.7.5V195zM272.1 347.3c-1.1-.3-2.1-.6-3.2-.9.2-.5.3-.9.5-1.4 1.2.5 2.2 1.1 3.4 1.5 0 .2-.7.8-.7.8z"/>
    <path fill="#fff" d="M410.4 233.3c.8.5 1.5.9 2.4 1.4-.1.4-.2.7-.3 1.1-1-.3-1.9-.6-2.9-.8.3-.7.6-1.2.8-1.7z"/>
    <path class="color-red color-main" fill="#8c0e0f" d="M83.4 364.7c.5-1.2 1.1-2.3 1.5-3.5v2.9c-.6.4-1.2.5-1.8.4 0 .1.3.2.3.2zm120-214.1c-.4.3-.8.9-1.1.9-.4 0-.8-.5-1.2-.8.2-.2.5-.6.7-.6.5.1 1 .3 1.6.5zm213.4 7.1c-.6-1-1.2-1.9-1.7-2.9l1.2-.6c.3 1.1.6 2.1.9 3.1l-.4.4z"/>
    <path fill="#fff" d="M212.2 350.9c-1.3-.3-2-.4-2.7-.6.5-.4.9-.8 1.5-1 0 0 .5.6 1.2 1.6z"/>
    <path class="color-red color-main" fill="#8c0e0f" d="M371.6 273.2c-.6-1.1-1.2-2-1.7-3.1.5-.2.9-.4 1.4-.7.4 1.1.8 2 1.2 3.1-.4.3-.7.5-.9.7z"/>
    <path fill="#fff" d="M83.1 364.6c.7.1 1.3 0 1.8-.4.7.5 1.3 1 1.9 1.5-.2.3-.4.6-.5.9-1-.8-2.2-1.5-3.2-2zm339.6-199c-.6-.8-1.1-1.6-.4-.5-.1-1.3 0-.2 0 .8l.4-.3z"/>
    <path class="color-red color-main" fill="#8c0e0f" d="M372.2 272.5c.6 1 1.1 2 1.6 3-.4.2-.8.4-1.3.6-.4-1-.8-1.9-1.2-2.9.5-.2.8-.4.9-.7zm22.6 2.5l-.4.8-.9-.1.5-.8zm-3.8-96.8l.3-.5c.5.3.9.5 1.4.8-.6-.1-1.2-.2-1.7-.3z"/>
    <path fill="#fff" d="M506.7 366.5c-.8-.6-1.5-1.1-2.3-1.6l.4-.3c.6.7 1.2 1.5 1.8 2.1l.1-.2z"/>
    <path class="color-red color-main" fill="#8c0e0f" d="M455.3 356.8c-.5-.4-1-.9-1.5-1.3.5.4 1 .9 1.5 1.3zm6-.9c-.2.5-.6.7-1.2.6l1.2-.6zm-188.5-9.2c.3.6.7 1.1 1 1.6-.6-.3-1.1-.7-1.6-1l.6-.6zm110.6-3.9c-.5-.4-.9-.8-1.4-1.3.4.4.9.8 1.4 1.3zm-38.9-230.9c-.2.2-.5.5-.8.5-.2 0-.5-.4-.7-.6.3-.2.5-.5.8-.5.3-.1.5.3.7.6zm-60.8 255.7c.4.4.9.7 1.5.8l-1.2 1.8c-.1-.9-.2-1.8-.3-2.6z"/>
    <path fill="#fff" d="M371.2 291.8l-.6-.3.6-.9c.2.2.5.4.5.6 0 .2-.3.4-.5.6z"/>
    <path class="color-red color-main" fill="#8c0e0f" d="M369.6 310.9c-.2.2-.4.5-.6.4-.2 0-.4-.4-.5-.6.2-.2.4-.5.6-.5.2.2.4.6.5.7zm5.9 0c-.2.2-.5.5-.7.5-.2 0-.4-.4-.6-.6.2-.2.5-.5.7-.5s.4.5.6.6zm41.6-153.4c.4.3.9.6 1.3.9l-.8.8c-.3-.5-.6-.9-.8-1.4l.3-.3z"/>
    <path class="color-yellow color-reserved-white" fill="#F4E906" d="M158.2 520.9c-.6 5.3-1 9.7-1.5 14-1.5 1.5-3.2 2.9-5.2 4.7 2 1.6 3.7 2.9 5.8 4.5-3.7 3.3-7.3 1.2-11.3 1v-21.4c3.7-4.4 7.6-5.2 12.2-2.8z"/>
    <path fill="#fff" d="M466.4 133.9c4.5-1.5 9-2.8 13.8-4.4 1.5 1.8 3 3.5 5.3 6.3-13.7 6.2-26.8 12-40.7 18.2-1.4-8.5 6.6-11.1 7.4-17.5-6.3-2-10.9 5.1-17.8 3.4-.2-8.2 6.2-13.1 9.6-19.3 3.6-6.5 7.9-12.5 12.3-19.2 2.3 2 4 3.4 6.2 5.3-2.9 5.2-5.6 10.2-8.3 15.1l.9 1.5c5.1-2.1 10.4-4.2 16.3-6.6 5.4 8.1-5.6 10.7-5 17.2zm44.3 164.7c-1.5 3.7-2.2 5.7-3.1 7.9-7.5 1.6-14.9 3.3-22.3 4.9 0 .6.1 1.1.1 1.6 5.6 2 11.2 4 17.6 6.3-1.1 2.6-1.8 4.8-3 7.7-13.9-4.5-27.2-8.7-41.5-13.3 5.5-11.2 16.7-6.7 24.8-12-6.3-1.7-11.6-3.2-18-4.8 1.1-2.9 2-5.4 3-8.1 14.4 3.3 27.8 6.4 42.4 9.8zM361.8 74.3c-2.3 5.5-4.1 9.9-5.8 14.1-4.3.2-6.2-1.5-5.2-5.1 2.9-11.9 6-23.7 9.2-36.4 3.1 1 5.3 1.6 7.5 2.3 1.2 6.5 2.3 12.4 3.9 20.7 2-4.5 3.2-7 4.3-9.5 1.1-2.6 2-5.3 3.3-8.4 2.4 1.1 4.1 1.8 7 3-4.9 13-9.8 25.6-14.9 39.1-8.5-4.6-5-12.8-9.3-19.8zm124.7 207.3c-5.4.8-10.5 1.5-16.1 2.1-1.5-4.5.3-6.8 4.5-7.8 3-.8 5.8-1.8 8.8-4.5-3.5-1.1-6.9-2-11-3.3.4-1.9.9-4 1.4-6.3 14.2.8 28 1.5 42.3 2.3-.3 8.7.9 17.3-6.7 21.9-8.1 4.8-15.7.8-23.2-4.4zm6.5-9.5c.2 7 4.1 8.2 8.6 8 3.8-.1 5.9-2.1 5.2-7.3-4.4-.1-8.9-.4-13.8-.7zm-343.5-160c4.1 4.2 7.5 7.8 12 12.4h6c.9-2 1.6-3.8 2.9-6.7 4.9 4.3 9.5 8.1 14.5 12.4.3 4.2-4 3.5-6.9 4.8-1.8 6.9-4.9 13.4-13.2 14.5-4.8.7-12.8-7.3-14.6-13.6-4.9-2.3-12.4-2.5-12.7-9.8-.2-6.9 5-10.6 12-14zm16.4 29.5c3.9-1.7 6.3-4.2 3.6-8.3-2-3.1-5.3-2.5-10.5 1.6.2 4.4 3.4 5.7 6.9 6.7zm-16.3-12.8c3.6-3 4.1-5.4 1.3-7.3-3-1.9-4.6-.1-5.5 3.4 1.2 1.3 2.5 2.5 4.2 3.9zm244.7-70.6c6.3 3.3 11.4 5.3 15.9 8.4 1.9 1.4 4.1 5.4 3.3 7.1-3.9 9.2-8.4 18.1-13.3 26.9-1.1 1.9-4.2 2.7-6.9 4.4-5.1-2.7-10.3-5.4-15.7-8.2 5.6-12.9 10.8-25.1 16.7-38.6zm11.5 15.5c-2-1.6-4-3.4-7-5.8-4.2 9.3-7.8 17.4-11.4 25.5 3.8 3.4 6.3 2.6 8.2-.9 3.5-5.9 6.6-11.9 10.2-18.8zm-246.8 91c-4.8 9.2-13.1 1.3-18 5.8 1.5 5.5 7.5 3.7 10.5 7.6-.7 1.5-1.6 3.2-2.7 5.3-13.1-4.3-25.5-8.4-38.5-12.7.4-6.6 3.6-11.5 6.9-16.1 2.6-3.7 6.8-4.9 11.2-3 2.7 1.2 5.5 2 7.9 3.6 3.5 2.2 6.4 5.6 10.2 7.3 3.3 1.5 7.3 1.4 12.5 2.2zm-27.5 5.2c4.5-5.7 1.6-8.2-2.2-10-4.4-2-6.1-1-9.4 5.5 3.8 1.5 7.5 3 11.6 4.5zm86.4-103.8c2.5-10.5 10.9-10.6 18.3-13.9 2.4 2.5 5.4 4.5 7.1 7.5 3.4 6.2 6 12.9 9 19.4 1.7 3.8.9 7.2-1.9 9.8-2.6 2.3-5.6 4.5-8.8 5.8-4.7 2.1-7.8 1.1-10.5-3.8-4.8-8.3-9-16.7-13.2-24.8zm9.5-1.1c3.4 8.3 6.3 16.4 12.4 23.4 2.1-1.7 3.7-3.1 5.5-4.5-2.6-6.3-4.9-12.3-7.6-18.1-2.5-5.1-3.5-5.1-10.3-.8zm-34.2 41.6c2.8 4.1 5 7.5 7.5 11-1.7 1.3-3.2 2.4-5.5 4.2-8.9-10.1-17.7-19.9-27.3-30.7 5-3.9 9.3-7.6 14-10.8 3.9-2.6 8.3-1.5 12.3 2.4 4.9 4.9 8.2 10.8 8.1 17.9 3.6 2.7 6.8 5.2 10.7 8.2-7.6 5.8-11.9-4.2-19.8-2.2zm-13.9-14.7c3.6 3.8 6.1 6.4 8.6 9.1 6.6-6.4 6.4-7.5-2.3-14.2-1.8 1.4-3.5 2.8-6.3 5.1zm-58.7 163h14.6v5.8c-13.9 1.8-27.7 4.7-42.6 4.5 2.4-9.4 12-8.5 16.7-15.3-5.8-.3-10.8-.5-16.5-.8.2-2.3.4-4.1.7-6.8 14-.2 27.8-.6 41.4-.4.3.7.5 1.5.8 2.1-4.4 3.4-8.8 6.5-15.1 10.9zM293.8 40.8c8.3-.1 15.6-1.7 23.2 2.6.3 3 1 6.2.7 9.3-.5 4.7-2.3 9.5-2.3 14.1s1.5 9.4 2.4 14.5c-10.6 1.6-6.2-10.6-13.6-12.3-.4 4-.7 7.8-1.1 12.2-1.7.2-3.2.4-5.6.7-2.2-13.4-3.2-26.4-3.7-41.1zm9.2 7.4c-1.3 7.9-1.3 7.9 2 13.1 4.5-2.8 6.3-6.4 4.6-10.5-1.2-3-3.4-4.6-6.6-2.6zm172.7 133.4c-.5 4.3-.8 7.9-1.2 11.5 5.5 1.9 7.7 1.1 8.7-3.8.9-4.1 1.3-8.2 1.8-11.7 13.5-7.6 17.3-7.5 21.1.6 4.5 9.8 3.1 14.9-5.5 18.6-6.4-3.3-1.8-7.5 0-12.4-2.2-1.1-4.3-2.8-6.2-2.7-2.8.2-4.2 2.7-4 5.7.1 1 .2 1.9.1 2.9-.1 8.6-1.1 9.9-9.3 12.2-2.4.7-4.9 1.2-7.4 1.7-5.9-3.7-9.3-8.6-8.6-15.4.7-5.2 4.9-6.3 10.5-7.2zm-1.5 54.8c14.7-1.5 28.2-2.8 41.4-4.1 2.8 7.5 3 11.7 1.1 22.7-1.6.2-3.5.4-5.9.6-.5-4.1-1-7.7-1.5-12.1-2.6-.2-5-.5-7.8-.7-.6 2.9-1.1 5.3-1.6 8.3-1.8.2-3.6.4-5.8.7-.8-2.6-1.5-5-2.3-8-3.1.3-5.8.7-8.9 1-.7 4-1.2 7.4-1.7 11.1h-6.8c-.2-6.6-.2-12.6-.2-19.5zM106 323c-1.8-5.3-3.4-8.8-4.4-12.6-1.5-6 .6-9.8 6.9-11.9 6.8-2.2 13.6-4.1 20.5-5.8 7.2-1.7 11.1.3 14.2 6.8 1.1 2.3 1.7 4.8 3 8.4-12.8 5.9-26.1 10.4-40.2 15.1zm31.1-19.9c-2.8-1.5-4.5-3.2-6.4-3.4-6.6-.6-12.9 1.1-18.7 4.4-4 2.2-5.3 5.4-1.8 9.9 8.8-2.9 17.8-4.9 26.9-10.9zm151.2-250c-7 .2-7 .2-12.9-4.3-2.9.2-5.1 1.6-4.6 4.7 1.1 7 2.5 13.9 4.1 20.9.2 1.1 1.6 1.8 2.9 3.2 1.7-1.5 3.3-2.9 4.9-4.4-2.2-3.1-4.2-5.8-7.2-10.1 4.9-.9 8.1-1.5 12.5-2.2.7 4.4 1.5 8 1.7 11.7.6 6.7-.9 9.1-5.8 10.5-6.3 1.9-11.7.5-14.7-4-.6-.8-1.2-1.6-1.4-2.6-1.6-7.9-3.4-15.8-4.6-23.7-.4-2.3 1.1-4.9 1.8-8.2 5.4-1.1 10.6-2.1 17.1-3.5 2 4 3.7 7.4 6.2 12zm45.7-11c4 .5 7.1 1 10.6 1.5v41.2c-5.9 2.6-7.1-2.6-8.7-4.5-5.6-2.5-7.9 6.7-13.9 1 3.9-12.7 8-25.7 12-39.2zm3.3 21.4c-.7-.2-1.3-.4-1.9-.5-.5 2-1.1 4.2-1.4 6.3 0 .4 1.3.9 2.6 1.7.3-2.9.5-5.2.7-7.5zm65.4 47.7c8.1-12.6 15.4-23.9 23.1-35.8 6.1 4.6 11.4 8.7 17.2 13.1-1.3 2.4-2.1 4.3-3.3 6.5-4-2.4-7.5-4.5-11.6-7-1.4 1.5-2.5 2.7-4.8 5.3 2.9 1.6 5.4 3 8.1 4.5-1.5 2.6-2.2 4-3.2 5.8-2.9-1.1-5.5-2-8.8-3.3-1.8 2.9-3.7 5.8-5.7 9 3.2 3 6 5.6 9.1 8.5-1.3 1.6-2.3 3.1-4 5.4-5.3-4-10.4-7.7-16.1-12zm75 55.9c-1.9-2-3.4-3.7-5.3-5.9-2.7 1.5-5.5 2.8-8.8 4.5 1.5 3.8 2.7 7 4.2 10.8-2.3 1.1-4.5 2.1-7.2 3.3-2.9-5.4-5.5-10.3-8.7-16.3 11.9-7.2 23.6-14.3 35.4-21.5 5.5 4.9 7.4 7.9 11.6 19.5-1.4.9-2.9 1.8-4.9 3.2-2.6-4-5-7.5-7.7-11.6-1.9 1.3-3.5 2.2-5.2 3.3.8 2.4 1.5 4.5 2.3 7.1-2 1.3-3.7 2.4-5.7 3.6zm-337.1 41.6c-14-2.7-27.3-5.2-41.9-7.9 2.2-7.4 4.3-14 6.5-21.2 2.8 1 4.7 1.6 6.8 2.4-.9 4-1.7 7.4-2.7 11.5 2.6.8 4.8 1.5 7.2 2.1 1.5-2.7 2.7-4.8 4-7 1.7.2 3 .4 4.8.7.4 2.7.9 5.4 1.4 8.6 2.9.4 5.6.9 8.9 1.3 1.5-3.5 3-6.6 4.6-10.4 2 .6 3.7 1.1 6.2 1.8-1.9 5.9-3.6 11.3-5.8 18.1zm-1.4 15.9c-15.5 6-30.3 7.4-45.5 9.8-.7-7 3.4-7.7 7.5-8.7 3.7-.9 7.3-1.8 13.4-3.5-7.1-3.2-12.2-5.4-18-8 .3-2.6.6-5.3.8-7.5 3.3-1.7 34 11.4 41.8 17.9zm-46.1 48.5c3.2-.3 4.9-.5 6.8-.7 1.3 3.8 2.3 7.1 3.6 10.6 2.2-.3 4.1-.6 6.4-.9.4-2.9.7-5.6 1.1-8.6 1.9-.3 3.5-.6 5.3-.9 1.2 2.2 2.1 4.2 3.5 7 3.2-.6 6.5-1.2 10.3-1.7.2-3.7.4-6.8.6-10.5 1.4-.3 2.8-.6 5.2-1.1.9 5.7 1.7 11 2.7 17.1-13.8 3-27 5.9-41.3 9.1-1.4-6.4-2.7-12.2-4.2-19.4zm422.7-46c-1.6.3-3.4.7-5.7 1.2-1.2-3.1-2.2-6-3.6-9.6-10.8 2-21.5 4.1-32.6 6.2-.9-2.1-1.5-3.8-2.5-6 10.6-4.9 22.2-5.4 33.3-9.5v-9.5c2.3-.6 4.2-1 5.7-1.4 3.5 2.4 6.1 16.5 5.4 28.6zM197.9 70.5c2.6-1.6 4.6-3 7.5-4.9 6.9 11.8 13.5 23.2 20.4 35.2-1.7 1.4-3.4 2.6-6 4.5-7.3-11.7-14.5-23-21.9-34.8zM139.7 330c-3.3 1.9-5.9 3.5-8.5 5-.4-.3-.7-.5-1.1-.8 2.3-3.2 4.6-6.5 7.6-10.7.9 2.8 1.5 5 2 6.5zm-10.6 15.2c1.7-2.5 3.5-4.9 5.1-7.5.8 4.3-2.3 5.9-4.3 8.3l-.2-.7-.6-.1zm11.2-6.3c.7-2.2 1.4-4.5 2-7 .6.5 1.4.8 1.3 1-.2 2.2-.5 4.5-.8 6.7-.9-.2-1.7-.5-2.5-.7zm327.3 2.2c-3.6-2.4-2.2-4.8.5-7.4-.2 2.5-.5 5-.7 7.5l.2-.1zm3.7-4.4c.2-2.2.4-4.5.5-6.8h1.1v7c-.5-.1-1-.2-1.6-.2zm6.9 1.1c-.5.3-1 .7-1.4 1l-.9-2.1c.5-.2 1.2-.6 1.5-.4.4.2.6.9.8 1.5zm-2.8 5.3c.8.9 1.5 1.8 2.3 2.7-.5.3-1 .5-1.5.8-.2-1.3-.5-2.4-.7-3.7l-.1.2zm-8-1.7c.9.1 1.7.2.6.1 1 .7.3.2-.4-.3l-.2.2z"/>
    <path fill="#fff" d="M475.5 342.9c-.4-.2-.9-.3-1.3-.5.2 0 .5-.2.6-.1.2.2.4.5.6.8l.1-.2z"/>
    <path class="color-black" fill="#0" d="M143.2 428c.8 1.9 1.7 3.8 2.2 5.7 2.4 9.1 3.9 10.1 13.6 8.3 4.5-9 3-15.5-5-20.6-6.2-3.9-11.8-7.6-13.1-15.8-1.4-9.4 5.2-17.6 14.7-17.2 3.4.1 6.8.6 10.7 1 2.2 5.8 3.6 11.8-.9 18.9-1.7-3.1-2.8-5.7-4.4-7.9-2.3-3.3-6.7-4.2-9.3-2-3.1 2.5-3 6-.8 8.6 2.4 2.9 5.6 5.2 8.6 7.5 7.5 5.5 12.8 11.9 11.4 22.1-1.4 10.3-6.5 15.3-17.1 16.3-1.3.1-2.4.3-4.3.5-.3 2.8-.5 5.3-.8 7.8-.2 2.1-.5 4.4-.9 8-3.5-1.9-6.1-3.3-9-4.9 1.1-12.3-.3-24.2 1.9-35.8 1.2-.4 1.8-.4 2.5-.5zm278.9-16.1v34.9c-11.7 1-9.2-12.4-17.1-15.4v9.3c-3.3-1-6.1-1.8-9.3-2.9v-33.9c12.4.5 11.4 12.8 17.4 19.3 3.1-4.2.4-7.7.4-12.6 3 .6 5.9 1 8.6 1.3zm-167.3-8.2c.2-4.4.5-8.7.7-13.6 2.8-.8 5.4-1.5 9.7-2.7-3 12.6.5 24.5-3.2 37.9-5.6-4.6-9.7-8-13.8-11.4-2.8 4.9-2.8 4.9-1.5 12.9-2.8 1-5.6 1.9-9.2 3.1v-34.5c2-.9 4.3-1.8 6.7-2.9 3.1 4.4 6 8.2 8.8 12.2.4-.6 1.1-.8 1.8-1zm96.1-24.9v35.5c2.9 1.1 5.5 1.9 8.1 2.9 4.1-5.7.9-14.6 10.7-18.4.8.8 2 2 3.7 3.8-7.7 7.9-6.5 15.7-2.9 23.9-5.8 1.3-10.3-1.9-15.1-2.7-5-.8-10.2-1.5-15.4-2.4v-43.5c3.2.3 6.9.6 10.9.9zm90.8 49.5c2.2.9 4.4 1.7 7 2.7.2 2.1.3 4.3.5 7.2-2.6-.2-4.6-.4-6.9-.6-2.2 4.8.7 6.8 4.6 7 3.3.2 6.7-.9 11.2-1.6-.4 3.5-.9 7.1-1.4 10.9-2.5 0-4.2.2-5.7 0-7-1.1-13.8-2.3-20.9-3.5 3.5-11.8 1.7-22.9.5-35.1 8.1 1.5 15.9 3 23.3 4.5 2.4 4.5 2.4 4.5 1.1 9.1-4.1-.9-8-5.1-13.3-.6zm-209.8-3.1c1.6 4.9.3 7.7-3.7 9.2-6 2.2-12.1 4.3-19.3 6.8v-37.5c6.3-1.8 13.8-4 22.3-6.4v7.2c-3.4 3.6-9.7 1.2-13 7.4 2.8.2 4.6.3 7.5.4.4 1.7.9 4.1 1.5 6.5-4.4 2.5-11.7 2.2-8.1 11 4.1-1.5 8.2-2.9 12.8-4.6zm-30.6-5.3c-3.5-1.9-5.8-3.3-8-4.5-8 4.4-10.3 8.8-8.5 16.5 1.1 4.7 2.8 5.9 11.3 6.7.5-3.5 1-7.1 1.5-10.7 3.7-.2 6.8 1.4 7.2 4.9.3 2.9-.5 6.5-2.1 8.8-4.5 6.1-14.3 6.7-20 1.9-6-5-8.3-15-5.4-23.1 2.9-8.1 8.6-12.2 17.5-12.4 2.2-.1 4.4 0 6.8 0-.3 3.6-.3 7.3-.3 11.9zm108.8-8.8c.2-2.7.3-4.7.4-6.7 1.1-.4 1.8-1 2.2-.8 7.5 4.2 7.8 10 .8 14.4-5.9 3.7-15 2.4-20.6-2.9-5.3-5.1-6.7-13.8-3-20.6 3.7-7 10.5-10.3 17.8-8.4 2.4.6 4.8 1.6 7.5 2.6v9.1c-5.6-1.6-10.8-8.4-16.4-1.6-2.9 3.6-2.6 7.9-.8 12 1.8 3.4 4.2 4 12.1 2.9zm-64.9 65.1c-1.1-2.8-1.8-4.5-2.4-6.2-.5-1.7-.8-3.6-1.3-6.1-3.6 1.6-6.4 2.9-10.3 4.6-4-8.3 1.8-14.9 1.5-23.3 3.2 1.4 4.7 2 6.9 2.9-.5 2.9-.9 5.5-1.5 9.1 4-1.3 6.9-2.2 10.4-3.3.5 3 1 5.7 1.6 9.8 2.9-2.1 5.3-3.8 8-5.8 1.4.9 2.9 1.8 5 3.2-5.9 5.1-11.5 9.8-17.9 15.1zm32.5 9.7c-5.2 0-10.4-2.9-13.6-7.9-1.5-2.2-1.4-6.3-.4-9 1.5-4.3 5.9-6.5 10.2-6 4 .4 8.1 2.1 11.6 4.3 4.2 2.6 5 7.1 3.5 11-1.9 4.8-5.4 7.4-11.3 7.6zm4.1-7c.5-7.7.5-7.7-8.3-10-1.4 1.5-3 3.4-4.6 5.2 3.3 5.7 7.3 7.4 12.9 4.8zm32.2-29.3c-.4-4.4-.8-8.6-1.2-13.5-2.5 1-4.7 1.7-6.4 2.4-2.5 3.9.9 8.8-3.9 11.1-2.2-4-2.2-4-2.4-10-1.7-1.1-3.8-2.1-5.8-3.3.1-.7.2-1.3.3-1.9 3.7-.2 7.3-.5 10.9-.4 3.2.1 6.3.6 9.5 1 .4-.8.9-1.5 1.3-2.3 1 2.5 2 4.9 3.2 8 3.4-3.9 5.1-5.8 7.1-8 2.6 7.1 2.6 10.1-.3 17.7-1.7-3-3.2-5.3-5.2-8.9-1.9 3.5-3.3 5.9-4.5 8.4-1.1-.2-1.8-.3-2.6-.3zm-70.7 32.2c-8.9-.8-17.8-1.5-27.2-2.2-.4-5-.8-9.8-1.3-15.3h-31.7c-.4 4.7-.9 9.8-1.3 14-6.1 1.9-11.5 3.6-16.8 5.3-.1-1.3-.1-2.4-.2-3.7 2.7-.7 5.4-1.2 8-1.9 2.2-.7 4.5-1.5 6.7-2.3.3-.1.5-.2.8-.3-.2-.4-.4-.8-.6-1.3.1-2.7.1-5.5.2-8.2.2-.2.6-.4.6-.6-.1-.5-.3-1-.5-1.5.3-2.7 1.8-3.9 4.5-3.9h33.1v17.9c6.9 0 12.6-.1 18.3 0 3.1.2 6.6-.4 7.4 4zM387 435.4c-3.9-1.6-6.5-2.6-8.9-3.7v-34c3.3 1.1 5.9 1.9 8.9 2.9v34.8zm-34.2 42c-3.5-7.5-6.1-13.3-9-19.7 4-1.9 7.5-3.6 10.8-5.3 3.9-1.9 7.5-1.3 11.1.7 5.9 3.2 7.4 8.7 2.5 13.4-4.1 3.7-9.2 6.5-15.4 10.9zm3.4-7c3.9-3.8 6.3-6 8.5-8.2-5.1-6.6-5.1-6.6-12.7-2.6 1.1 2.8 2.2 5.6 4.2 10.8zm-40 15.1c-3.3-1.5-6.7-3.1-10-4.6-4-.5-3.4 8-9.6 3.9v-18.6c7.3-1.9 13.9-1.9 19.5 2.8.1 5.7.1 10.6.1 16.5zm-14.1-13c4.7 3.6 4.7 3.6 8.9-.3-2.6-2.7-5.2-3.4-8.9.3zm-30.3-51.1V388c3.1-.4 6.2-.7 10.4-1.2-.8 11.2-1.4 21.4-2.1 32.7-2.5.5-5.3 1.2-8.3 1.9zm59.8 56.2c5-2.2 8.7-3.9 13-5.7.6 1.3 1.5 3.1 2.7 5.8-6.8 2-12.8 3.8-19.8 5.8-1.9-6.4-3.7-12.4-5.5-18.5 2.7-2.7 5.1-3.4 6.6.6 1.2 3.2 1.6 6.7 3 12zM265 443.1c-.2 4.5-4.5 7.6-9.5 7.3-4.9-.4-8.8-4.4-8.4-8.7.4-4.2 5-8.3 9.3-8.2 4.9.2 8.9 4.5 8.6 9.6zm-9.4-6c-3.2 2.9-4.8 5.5-1.3 8.2 1 .8 4.2.4 4.8-.5 2.8-3.6.3-5.6-3.5-7.7zm155.3 25.8c-1.3 0-2.5 0-3.8-.1-1.4 0-2.7-.1-4-.1h-22c-.7 5.9-1.3 11.1-1.9 16.6-9.2.9-18 1.6-26.9 2.4.1-4.4 3.4-3.8 6-3.9 6.1-.1 12.1 0 19 0 .4-6 .7-11.3 1.1-17.8 6.8 0 13.2-.1 19.5 0 6.4.1 12.8.5 19.2.8-.1.6.1.9.7 1 .1 1.5.2 2.8.3 4.3-.9.1-1.7.1-2.6.2-.3-.8-.5-1.5-.8-2.3-1.3-.4-2.6-.7-3.8-1.1zm-77.2-28.8h12.1c.1.6.2 1.1.3 1.6-2.1.6-4.3 1.2-6.1 1.6-.4 2.9-.9 5.7-1.3 8.7 2.9.6 5.9 1.2 8.8 1.7-4.2 3.7-8.7 2.4-13.8 2.4v-16zm-51.7 3.2c-2.3.5-4.6 1.1-7.4 1.6 1 1.3 1.6 2.1 2.4 3.1-2.6 3-5.1 5.8-7.5 8.7-.5-.3-1-.6-1.5-1 .3-5 .6-10.1.9-16.1 4.7.3 9 .7 13.3 1-.2.9-.2 1.8-.2 2.7zm25.7 77.5c.4 4.5-3.1 5.1-5.4 3.7-4.5-2.6-8.2-6.3-12.3-9.6 3 1.5 5.9 3.2 9.1 4.3 2.6 1 5.7 1.1 8.6 1.6z"/>
    <path class="color-red color-main" fill="#8c0e0f" d="M434.2 481.4c-5.1-.4-10.3-.9-15.4-1.3.7-.6 1.4-1.3 2-1.8 5 .6 10.5-2.7 15.2 1.5-.7.5-1.2 1-1.8 1.6z"/>
    <path class="color-black" fill="#0" d="M163.5 485.3c-2.7 3.5-5.5 6.9-8.4 10.5-3.7-1-5.9-2.6-5.5-6.5 1.4.7 2.8 1.4 5 2.4 2.3-2.7 4.7-5.4 7.2-8.2.5.7 1.1 1.3 1.7 1.8z"/>
    <path class="color-red color-main" fill="#8c0e0f" d="M266.7 495.4c-4.5-2.4-9.1-4.8-13.6-7.3.1-.8.1-1.5.2-2.2 4.4 3.1 8.9 6.3 13.4 9.5z"/>
    <path class="color-black" fill="#0" d="M352.6 481.7c-3 4.2-6 8.3-12 7.9 3.2-3.9 6.5-7.6 12-7.9zm-23.4 17.5c-3.3 2.7-6.7 5.3-10 8 1-5.5 5.6-6.6 10-8zm105-17.8c.6-.6 1.2-1.1 1.8-1.6 2.1 3.3 4.2 6.6 6.3 10-2.7-2.9-5.4-5.7-8.1-8.4zm-144 27.7c-4.6 1.5-6.9-2.6-10.1-4.4.5-.5 1.1-1 1.5-1.5 2.9 2 5.8 3.9 8.6 5.9z"/>
    <path class="color-red color-main" fill="#8c0e0f" d="M415.3 466.4c.9-.1 1.7-.1 2.6-.2.2 2.5.3 5 .5 7.6h-3c0-2.5 0-5-.1-7.4z"/>
    <path class="color-black" fill="#0" d="M319.4 507c-2.7 2-5.3 4.1-8 6 .9-4.2 3.5-6.4 8-6zm130.7-17.6c-.9 2.2-1.7 4.5-2.7 6.7-.8 0-1.5 0-2.2.1-1-2.2-2-4.5-3-6.8 2.5 1.6 5.2 1.4 7.9 0zm-196.9-3.5c-.1.8-.1 1.5-.2 2.2-3.3-2.1-6.6-4.3-10-6.5 4.8-1.6 6.9 2.8 10.2 4.3z"/>
    <path class="color-red color-main" fill="#8c0e0f" d="M336.8 494.4c-1.9 1.5-3.9 2.9-5.8 4.4-.5-.5-1-1-1.4-1.5 2.3-1.8 4.6-3.7 7-5.4.1.9.2 1.8.2 2.5z"/>
    <path class="color-black" fill="#0" d="M415.5 473.7h3l2.4 4.5c-.7.6-1.4 1.3-2 1.8-.8-.2-1.5-.3-2.3-.5-.4-.5-.8-1-1.1-1.5-.1-1.4-.1-2.8 0-4.3z"/>
    <path class="color-red color-main" fill="#8c0e0f" d="M281.7 503.2c-.5.5-1.1 1-1.5 1.5-1.7-1.2-3.6-2.3-5.3-3.4.9 0 1.7-.1 2.7-.1 1.3.7 2.7 1.4 4.1 2z"/>
    <path class="color-black" fill="#0" d="M277.5 501.2c-.9 0-1.7.1-2.7.1-1.5-.9-2.9-1.7-4.4-2.6 0-.7-.1-1.5-.1-2.1 2.5 1.5 4.8 3.1 7.2 4.6zm59.3-6.8c-.1-.9-.1-1.7-.2-2.6 1.4-.9 2.7-1.6 4.2-2.5-1.3 1.7-2.6 3.5-4 5.1zm117.2-8.9c-.1 2.7-.9 4.5-4.1 4.1.3-2.4.8-4.6 4.1-4.1z"/>
    <path class="color-black" fill="#0" d="M457.9 479.6c1.1 3.7-.8 5.3-4.1 6.1-1-3.7 1-5.2 4.1-6.1z"/>
    <path class="color-red color-main" fill="#8c0e0f" d="M163.5 485.3l-1.7-1.7c1.1-1.2 2.1-2.4 3.2-3.6.1 1.3.1 2.4.2 3.7-.7.5-1.2 1.1-1.7 1.6zm106.8 11.3c0 .7.1 1.5.1 2.1-1.3-1.2-2.5-2.2-3.8-3.4 1.2.5 2.5.9 3.7 1.3z"/>
    <path class="color-black" fill="#0" d="M311.7 512.9l-4.2 2.1c1.4-.7 2.7-1.4 4.2-2.1zM254.8 368c.2-.5.1-1-.2-1.5 2.1-.8 4.2-1.3 4.8 1.8-1.5 0-3.1-.2-4.6-.3z"/>
    <path class="color-red color-main" fill="#8c0e0f" d="M417.7 461.9c-.6-.1-.8-.5-.7-1 .2.4.5.7.7 1z"/>
    <path class="color-black" fill="#0" d="M329.7 497.3c.5.5 1 1 1.4 1.5-.7.2-1.5.4-2.1.6.2-.7.5-1.4.7-2.1z"/>
    <path class="color-red color-main" fill="#8c0e0f" d="M179.8 474.1c.2.4.4.8.6 1.3-.3.1-.5.2-.8.3-.5-.6-.4-1.1.2-1.6zm.3-10.3c.2.5.4 1 .5 1.5 0 .2-.4.4-.6.6-.2-.5-.4-1-.4-1.5-.1-.1.3-.4.5-.6zm223-1.1c1.4 0 2.7.1 4 .1-1.3 0-2.6 0-4-.1zm7.8.2c1.3.4 2.4.8 3.7 1.1-1.2-.4-2.5-.7-3.7-1.1zm4.5 15.2c.4.5.8 1 1.1 1.5-.4-.5-.7-1-1.1-1.5z"/>
    <path class="color-black" fill="#0" d="M420 171.6c-2.9.1-5.8.1-8.7.2.6-5.4 4.7-2.2 7.2-2.8 1.5-.4 2.9.5 1.5 2.6z"/>
    <path class="color-red color-main" fill="#8c0e0f" d="M428.7 274.8c-2-.7-4.1-1.5-6.1-2.1 2 .8 4 1.5 6.1 2.1zm-.3-5c.4-1 .8-1.9 1.1-2.9.4.1.8.1 1.1.2-.1 1.2-.3 2.3-.4 3.5-.6-.3-1.2-.6-1.8-.8z"/>
    <path class="color-black" fill="#0" d="M391.6 149.1c-3.9.3-7.6.6-12.1 1-1.3-1.7-2.6-3.6-4.5-6.1-2.5 4.5-3.7 10.3-11 7.2.8-2.3 1.6-4.8 2.7-8-2.4-.7-4.5-1.3-7.7-2.2 5.3-4.1 10.9-2 15.6-3.7 1.5-5.3 5.6-5 9-4.5 2.8 2.4 5 4.4 7.9 6.8-.7 1.2-1.7 2.8-2.7 4.5-1.2.5-2.2 1.1-4.6 2.1 3.4 1.4 5.5 2.2 7.4 2.9z"/>
    <path class="color-red color-main" fill="#8c0e0f" d="M391.6 149.1c-1.9-.8-4-1.5-7.5-2.9 2.4-1.1 3.5-1.6 4.6-2.1 3.7 4.8 9.1.1 13.3 2.5-3.5 2.5-3.5 2.5-10.4 2.5z"/>
    <path class="color-black" fill="#0" d="M379.8 175c1 3.6 1.6 6.4 2.5 9.5-2.2 1.3-3.8 2.2-6.5 3.8-1-4.4-1.8-8-2.6-11.8 1.4-.4 3.2-.8 6.6-1.5z"/>
    <path class="color-red color-main" fill="#8c0e0f" d="M383.7 167.9c-1.4 1.1-3 1.9-4 3.3-3.1 4.1-5.8 2.2-9.2.1 1.4-1.6 2.2-2.7 3.1-3.8 1.8 0 3.6 0 5.4.1 1 0 1.8 0 2.8.1l1-.1.9.3z"/>
    <path class="color-black" fill="#0" d="M378.9 167.6c-1.8 0-3.6 0-5.4-.1.4-2 .7-4.2 1.1-6.2 3.8.6 7.5 1.3 11.3 1.8-.8 1.5-1.5 3.2-2.2 4.7l-.9-.4-1 .1c-.1-1.3-.3-2.6-.7-6-1.2 3.5-1.7 4.9-2.2 6.1zm127.6 199.1c-.6-.7-1.2-1.5-1.8-2.1-.1-1-.2-1.9-.3-3.4 3.5.7 7.1 2.2 10.2 1.6 2.8-.5 5.1-3.4 8.8-6.1h4.7c-.8 2.5-1.5 5-2.4 7.5-6.4.8-12.8 1.6-19.2 2.5z"/>
    <path class="color-red color-main" fill="#8c0e0f" d="M493 272.1c4.8.3 9.3.6 13.8.9.6 5.1-1.5 7.2-5.2 7.3-4.5.1-8.3-1.1-8.6-8.2zM165.9 141.6c-3.6-1-6.7-2.3-7-6.7 5.2-4.2 8.5-4.7 10.5-1.6 2.8 4.2.5 6.6-3.5 8.3zm-16.3-12.8c-1.6-1.5-2.9-2.6-4.3-3.8.8-3.5 2.5-5.3 5.5-3.4 2.7 1.8 2.3 4.2-1.2 7.2zm256.2-55.1c-3.7 6.9-6.8 12.9-10.1 18.8-1.9 3.5-4.5 4.3-8.2.9 3.7-8.1 7.3-16.2 11.4-25.5 3 2.6 5 4.2 6.9 5.8zm-274.3 96.2c-4.1-1.5-7.7-3-11.6-4.5 3.3-6.5 5-7.5 9.4-5.5 3.8 1.8 6.7 4.2 2.2 10zM227.4 65c6.9-4.4 7.8-4.4 10.3.8 2.7 5.8 4.9 11.8 7.6 18.1-1.8 1.5-3.4 2.8-5.5 4.5-6.1-7-9-15-12.4-23.4zm-48.1 26.9c2.7-2.2 4.5-3.8 6.2-5.1 8.7 6.6 9 7.8 2.3 14.2-2.4-2.7-4.9-5.4-8.5-9.1zM303 48.2c3.3-2 5.4-.4 6.7 2.6 1.6 4.1-.1 7.6-4.6 10.5-3.4-5.2-3.4-5.2-2.1-13.1zM137.1 303.1c-9.1 6-18.1 8-26.9 10.8-3.4-4.5-2.1-7.6 1.8-9.9 5.7-3.3 12.1-4.9 18.7-4.4 1.8.3 3.6 2 6.4 3.5zM337.3 63.5c-.2 2.3-.4 4.5-.7 7.5-1.4-.9-2.7-1.5-2.6-1.7.3-2.1.9-4.2 1.4-6.3.6.2 1.2.3 1.9.5z"/>
    <path class="color-yellow color-reserved-white" fill="#F4E906" d="M281.8 478.9c-5.5 2.5-9.6 1-13-4.7 1.6-1.8 3.2-3.7 4.6-5.2 8.7 2.1 8.7 2.1 8.4 9.9zm74.4-8.5c-2-5.2-3.1-8-4.2-10.7 7.5-4 7.5-4 12.7 2.6-2.2 2.1-4.5 4.4-8.5 8.1zm-54.1 2.1c3.6-3.7 6.2-2.9 8.9-.3-4.2 3.7-4.2 3.7-8.9.3zm-46.5-35.4c3.8 2 6.4 4.1 3.7 7.7-.7 1-3.9 1.3-4.8.5-3.8-2.6-2.1-5.3 1.1-8.2z"/>
    <path fill="#fff" d="M378.9 167.6c.5-1.3 1-2.5 2.1-5.9.4 3.4.5 4.6.7 6-.8-.1-1.8-.1-2.8-.1z"/>
</svg>
