<svg xmlns="http://www.w3.org/2000/svg" viewBox="0 0 612 612">
    <path class="color-black color-main color-reserved-white" d="M610 611.5H1.5V3c2 .1 4.1.2 6.1.2h602.2v602.2c0 2.1.1 4.1.2 6.1zm-325-62.1c.7.7 1.5 1.4 2.2 2.1.3.3.6.5.8.8.8.7 1.5 1.5 2.3 2.2.2.3.5.6.7.9 1.1 3.9 3.4 6.4 7.4 7.2.2.3.5.6.7.9.7.7 1.4 1.5 2.1 2.2v-.1c-1.1 2.7-.7 5 2 6.5s4.4-.1 6.1-1.9c2.5-2.5 5.1-4.9 7.5-7.5 1.9-2 5.4-3.4 3.3-7.4-.2-.5 1.1-1.9 1.9-2.8 4.8-5.3 10.9-9.2 15.1-15.1.6-.9 1.9-1.3 2.8-2.1 1-.8 2.2-1.6 2.8-2.7 1.5-3.1 3.4-4.9 6.8-3.1 2.5-2.2 0-6.8 4.4-7.5.3.4.7.9 1 1.3.3-.4.7-.9 1-1.3 2.3-.4 2.7-2 3.1-4 .4-1.9 1.4-3.7 2.6-5.2 2-2.5 4.5-4.6 6.7-6.9 1.3-1.3 2.4-2.1 4.4-.9 2.2 1.4 3.7 0 5.1-1.8 2-2.7 4.1-5.3 6.2-7.8 1.5-1.8 3.5-3.1 2.7-6.1-.2-.9.8-2.7 1.7-3.4 3.1-2.3 6.4-4.3 10-6.6-.5-4.1.2-5.3 5.2-6.1 2-.3 3.6-.8 4-3.1l2-2c2.2-.4 2.8-1.9 3.1-3.9.8-4.6 1.1-4.5 5.8-5 2.3-.3 4.6-1.7 6.5-3.1.9-.7.6-2.7.9-4.2l8.1-8.1c1-.6 2.1-1 2.9-1.8 2.9-2.8 5.3-6.5 8.7-8.3 4.1-2.2 5.5-5.8 7.7-9.2 1.5-.4 3.7-.3 4.5-1.3 1.6-2 2.5-4.5 3.7-6.8l2-2 6.1-6.1 2-2c2.3-.4 2.8-2 3.1-4 .8-5 2-5.7 6.9-5.1 2.5-6.1 2.5-6.1 4.2-7.2.3.4.7.9 1 1.3.3-.4.7-.9 1-1.3 1-1 2.2-1.8 2.9-3 .9-1.7.9-4.1 2.2-5.3 1.1-1 3.4-.7 5.2-1-.9-5.7 2-8.5 9-7.9-3.4-3.9-.1-5.5 1.9-7.6 2.3-2.4 4.7-4.8 7.1-7.1 1.3-1.3 2.4-2.9 4.7-1.5.3.2 1.6-1.4 2.5-2.2.4-.3.9-.7 1.3-1-.4-.3-.9-.7-1.3-1 2.7-3.2 5.5-6.5 8.3-9.7.2-.3.5-.4.8-.6 1.6-1.6 3.3-3.1 4.8-4.8 1.8-2 3.3-3.9 6.4-2 .8.5 2.5.4 3.1-.2.6-.6.6-2.3.2-3.1-1.5-2.5-.6-4 1.3-5.7 1.7-1.4 3.2-3.1 4.5-4.8 1.9-2.4 4.2-3.6 6.8-2.4 1.5-3 3.1-5.6 4-8.3.5-1.6 0-3.6-.1-5.4-.1-1-.7-1.9-.8-2.8-.2-6.3-.6-6.8-7-8.7-.1-.7 0-1.5-.2-2.3-.8-2.9-3.5-4.9-5.8-4.5-5.6.9-6.4 0-5.4-5.2.4-2.2-.6-3.9-2.6-2.8-2.9 1.6-4.8-.4-7.2-.7 1.1-3.7 3.2-7.6-2.6-9.4-.1 0-.2-.3-.2-.4-1.5-4.9-4.5-7-9.9-5 1.7-5.1.9-7-3.4-9.4-1.1-.6-2.6-1.3-3-2.3-1.8-4.6-4.6-6.8-9.7-4.5 2.2-6.7.4-7.7-7-9.5.4-3.4-.5-6.4-4.4-7.2-2.8-.6-5.8-.8-8.7-1.2-1.5-4-4.2-6.7-8.2-8.2v-3.1c1.4.5 2.9.9 4.3 1.4.2-.4.4-.7.6-1.1-1.7-1.4-3.2-3.3-5.1-4.1-2.5-.9-5.3-.9-8-1.3-1.2-1.4-2.5-2.8-3.7-4.3l-.2-.2c-2.7-3.5-5.3-7.1-8.3-10.4-.8-1-2.7-1-4.1-1.5-.7-1.4-1.4-2.9-2.2-4.3-.5-1-1.4-2-1.4-3-.4-6.3-1.6-7.6-7.9-7.8-.1-.3-.4-.6-.4-.9.2-5.4-.6-6.1-6.2-6-.8 0-1.8-.7-2.5-1.3-5.2-4.9-10.3-10-15.6-14.8-3-2.7-6.4-5-9.6-7.4-.3-.4-.6-.9-.9-1.3-.6-2.6-1.1-5.2-1.7-8-1.2-.1-2.5-.3-3.7-.4-.2-6.4-.2-6.4-7.4-7-2.5-.2-9.4-7.3-9.2-9.9.2-2.2 1-4.6-1.2-6-1.7-1.1-3.8-1.5-6-2.3-.1-.4-.2-1-.3-1.7-1-5-2.3-5.8-7.5-4.7-1.1.2-2.3-.3-3.4-.4-.4-.3-.9-.6-1.3-.9v-3.1c1.2.1 2.4.2 4.1.3-1.6-4.1-3.9-5.7-7.1-5.2-1.2-2.5-2.2-4.6-3.3-6.6-1.7-3.1-4.2-.1-6.2-.4.4-7.4-1.6-9.3-7.9-8.2-4.6-4.3-9.2-8.5-13.6-12.8-1.5-1.4-3.5-2.6-2.7-5.5.9-3.3-1.1-5.8-4.3-6.2-2.6-.3-5.2-.7-7.8-1.1-1.2-1.4-2.4-2.9-3.6-4.3h-.3v-.3c-.9-.9-1.9-1.8-2.8-2.8-.5-.3-.9-.6-1.4-.9-.9-1.6-1.6-4.3-2.9-4.6-1.5-.4-3.8.9-5.1 2.1-2.9 2.8-5.3 6.1-8.2 9-9.8 9.6-19.6 19.1-29.6 28.5-1.3 1.2-3.5 1.6-5.4 2.4-.2 6.8-7.3 8.8-10.1 13.1-2.4-.4-4.1-.6-5.7-.9v5.6c.4.2.7.4 1.1.6-1.5.8-3.3 2.6-4.5 2.3-4.4-1.1-4.6 1.6-5.1 4.6-.3 1.6-1.3 3.2-1.7 4.1-2.7-.4-4.5-.6-6.3-.9.2 1.9.4 3.8.7 6.8-2.3 2.1-5.2 5.2-8.4 7.9-1.4 1.2-3.4 1.6-5.8 2.7 0-.2.2.7.1 1.4-.3 2.5-3.7 6.1-5.8 6.1-4.8 0-4.8 0-5.1 4.5-.1 2.1-.7 3.6-3.2 3.5-4.5-.2-4.5-.1-4.9 4.8-.2 2-.7 3.6-3.3 3.3-4-.3-4.6.2-4.8 4.5-.1 2.3-.6 3.9-3.5 3.6-3.6-.4-4.6.5-4.7 4.2-.1 2.7-.4 4.6-4 3.7-2.4-.6-4.6 1.4-3.9 3.6 1.3 4.1-.9 4.2-3.9 4.2-3.2 0-4.2 1.4-4.1 4.6 0 1.1-.4 2.5-1.1 3.4-.8 1.2-2 2.2-3.2 3.3-2.6 2.4-4.5 6-9.2 5.1-.7-.1-3.1 2.8-2.8 3.8 1.2 4.1-.9 4.4-3.9 4.2-2.7-.2-4.9 1.4-4.3 3.6 1.3 4.9-1.1 4.4-4.4 4.6-1.3.1-3.9 3.1-3.6 3.6 1.4 2.9-.7 4.1-2.1 5.5-27.5 27.3-54.9 54.6-82.4 81.9-1.8 1.7-2.4 3.7-.3 5.2 3.5 2.5 7.4 4.4 11.1 6.6l-.1-.1c1.3 2.5 2.6 4.9 3.9 7.4-.8.3-1.6.5-2.4.8.2.3.4.7.6 1l1.8-1.8c1.6 1.1 3.3 2 4.8 3.2 4.3 3.6 8.4 7.3 12.6 10.9l-.1-.1c.3.6.3 1.4.8 1.8 8 8.1 15.9 16.3 23.9 24.4 3.3 3.3 6.8 6.4 10.1 9.7 1.7 1.7 3.3 3.4 1.5 6.2-.2.3 1.2 1.7 1.9 2.5 3-2.4 5.1.1 7.5 1.2l-.1-.1c3.9 7 9.6 12.2 16.5 16.2l-.1-.1c.3 3.1 2.1 4.8 5 5.3l-.1-.1c.2 2 1.2 3 3.3 3l-.1-.1c.2 3.1 2 4.8 5 5.3l-.1-.1c.1 2 1.2 3.1 3.2 3l-.1-.1c-.6 2.2-1.3 4.3-2.2 7.4 2.8-.6 4.7-1.1 5.8-1.3 3.5 2.7 6.5 5 9.5 7.3h-.1c2.2 3.3 3.5 7.5 8.3 8.1l-.1-.1c1.2 4.2 4 6.9 8.1 8.3l-.1-.1c-.1 2.3 1 3.3 3.2 3l-.1-.1c.3 3.2 2 4.9 5.2 5.2l-.1-.1c0 2.1 1 3.1 3.1 3.2l-.1-.1c0 3.5 1.7 5.2 5.2 5.1l-.1-.1c.7.7 1.4 1.5 2.1 2.2.3.2.6.5.9.7 0 3.4 1.6 5.3 5.1 5.4l-.1-.1c.7.7 1.4 1.4 2.2 2.1.3.2.6.5.9.7.3 1.5.6 3 .9 4.4-.8.3-1.6.5-2.4.8.2.3.4.7.6 1l1.8-1.8 4.2.9-.1-.1c.8 2.9 1.7 5.8 2.4 8.4 2.5.6 5.2 1.2 7.9 1.8.3.2.6.5.9.7.4 3.1 2 5 5.2 5.2l-.1-.1c1.1 4.3 4 6.9 8.1 8.3l-.1-.1c.8.7 1.5 1.4 2.3 2.1l.8.8c.7.8 1.4 1.5 2 2.3l-.1-.1c.7.7 1.4 1.4 2.2 2.1.3.2.6.5.9.7.7.8 1.5 1.5 2.2 2.3l.8.8c.4 3.1 2.1 4.9 5.2 5.3l-.1-.1c.6 4.9 4.3 6.6 8.1 8.2l-.1-.1c.8.7 1.5 1.4 2.3 2.1l.8.8c.4 3.1 2.1 4.8 5.1 5.3v-.1c1.1 3.7 3.4 6.3 7.3 7.1l.8.8 2.3 2.3c.2.3.5.6.7.9 1.9 1.5 2.6 2.2 3.2 2.9z"/>
    <path class="color-main color-green color-reserved-white" fill="#95c681" d="M610 611.5c-.1-2-.2-4.1-.2-6.1V3.2H7.6c-2 0-4.1-.1-6.1-.2.2-.3.3-1 .5-1h611v609.5h-3z"/>
    <path class="color-main color-green color-reserved-white" fill="#95c681" d="M283 547.3c-.2-.3-.5-.6-.7-.9l-2.3-2.3-.8-.8c-2.4-2.4-4.9-4.8-7.3-7.1v.1c-1.7-1.8-3.4-3.6-5.1-5.3l-.8-.8c-.8-.7-1.5-1.4-2.3-2.1l.1.1c-2.7-2.7-5.4-5.5-8.1-8.2l.1.1c-1.7-1.8-3.4-3.5-5.2-5.3l-.8-.8c-.7-.8-1.5-1.5-2.2-2.3-.3-.2-.6-.5-.9-.7-.7-.7-1.4-1.4-2.2-2.1l.1.1c-.7-.8-1.4-1.5-2-2.3l-.8-.8c-.8-.7-1.5-1.4-2.3-2.1l.1.1c-2.7-2.8-5.4-5.6-8.1-8.3l.1.1-5.2-5.2c-.3-.2-.6-.5-.9-.7-3.4-3.4-6.9-6.8-10.3-10.2l.1.1c-1.7-1.8-3.4-3.6-5.1-5.3-.3-.2-.6-.5-.9-.7-.7-.7-1.4-1.4-2.2-2.1l.1.1-5.1-5.4c-.3-.2-.6-.5-.9-.7-.7-.7-1.4-1.5-2.1-2.2l.1.1c-1.7-1.7-3.5-3.4-5.2-5.1l.1.1c-1-1.1-2.1-2.1-3.1-3.2l.1.1-5.2-5.2.1.1c-1.1-1-2.2-2-3.2-3l.1.1c-2.7-2.8-5.4-5.5-8.1-8.3l.1.1c-2.8-2.7-5.5-5.4-8.3-8.1h.1c-4.4-4.5-8.7-8.9-13.1-13.4l.1.1c-1.1-1-2.2-2-3.2-3l.1.1c-1.7-1.8-3.4-3.5-5-5.3l.1.1-3.3-3 .1.1c-1.7-1.8-3.4-3.5-5-5.3l.1.1-16.5-16.2.1.1c-.9-1.2-1.7-2.5-2.8-3.5-10.4-10.5-20.8-20.9-31.3-31.3-3.8-3.8-7.8-7.3-11.7-11l.1.1c-7.1-7.2-14.2-14.3-21.3-21.5l.1.1c-1.7-1.8-3.2-3.9-5.1-5.5-4-3.3-3.1-5.3.2-8.6 37.7-37.6 75.4-75.3 113-112.9L300.8 53c3.9-3.9 3.9-3.9 8.2-.6.5.3.9.6 1.4.9.9.9 1.9 1.8 2.8 2.8v.3h.3c1.2 1.4 2.4 2.9 3.6 4.3l45.7 45.7c1 1 2.1 2 3.1 3 .4.3.9.6 1.3.9.4.7.7 1.5 1.2 2.1 10.1 10.1 20.2 20.2 30.4 30.2 2.8 2.8 5.9 5.4 8.8 8.1.3.4.6.9.9 1.3 3.3 3.5 6.6 7 10.1 10.5 11.9 11.8 23.8 23.5 35.7 35.3 4.1 4 8.2 7.9 12.4 11.9l.2.2c1.2 1.4 2.5 2.8 3.7 4.3 2.7 2.7 5.4 5.4 8.1 8.2l8.2 8.2c10.3 10.4 20.5 20.8 30.9 31.2 5.9 5.9 12 11.8 17.9 17.6 7 7 14 14 21.1 20.9v.3l.3.1c1.3 1.3 2.5 2.7 3.8 4 4.5 4.3 4.5 4.6-.1 9.2-14.7 14.7-29.5 29.3-44.2 44-25.3 25.3-50.7 50.7-76 76.1-26.2 26.2-52.3 52.4-78.5 78.6-17.8 17.8-35.7 35.6-53.5 53.4-2.1 2.1-3.9 3.3-6.4.8v.1c-.7-.7-1.4-1.5-2.1-2.2-.2-.3-.5-.6-.7-.9-2.5-2.4-4.9-4.8-7.4-7.2-.2-.3-.5-.6-.7-.9-.8-.7-1.5-1.5-2.3-2.2-.3-.3-.6-.5-.8-.8-.7-.7-1.5-1.4-2.2-2.1l.1.1c-1.7-2-2.4-2.7-3.1-3.4zm22.4-389.9c-82.8-.2-151.8 66.9-150.5 153.3.6 40.8 16 76.4 45.4 104.9 30.3 29.3 67.2 43.7 109.6 42.7 78-1.9 146.3-66 146-151.4-.3-82.2-67.3-149.7-150.5-149.5z"/>
    <path class="color-main color-black" fill="#000" d="M301.2 565.7c2.5 2.5 4.3 1.3 6.4-.8 17.8-17.9 35.6-35.6 53.5-53.4 26.2-26.2 52.4-52.4 78.5-78.6 25.3-25.4 50.7-50.7 76-76.1 14.7-14.7 29.5-29.4 44.2-44 4.5-4.5 4.5-4.8.1-9.2-1.3-1.3-2.5-2.7-3.8-4 .8-.3 1.6-.6 2.3-.9-.1-.3-.3-.6-.4-.8-.7.5-1.5.9-2.2 1.4-7-7-14-14-21.1-20.9 2.4.3 4.3 2.3 7.2.7 2-1.1 3 .6 2.6 2.8-1 5.3-.2 6.1 5.4 5.2 2.3-.4 5 1.6 5.8 4.5.2.8.1 1.6.2 2.3 6.5 1.9 6.8 2.4 7 8.7 0 1 .7 1.9.8 2.8.2 1.8.7 3.8.1 5.4-.9 2.8-2.5 5.3-4 8.3-2.7-1.2-4.9 0-6.8 2.4-1.4 1.7-2.9 3.3-4.5 4.8-1.9 1.6-2.8 3.2-1.3 5.7.5.8.4 2.5-.2 3.1-.6.6-2.3.7-3.1.2-3.1-1.9-4.6 0-6.4 2-1.5 1.7-3.2 3.2-4.8 4.8-.2.2-.6.4-.8.6-2.8 3.2-5.5 6.5-8.3 9.7-.4.3-.9.7-1.3 1 .4.3.9.7 1.3 1-.8.8-2.2 2.3-2.5 2.2-2.3-1.4-3.4.2-4.7 1.5-2.4 2.4-4.8 4.7-7.1 7.1-2 2.1-5.3 3.7-1.9 7.6-7.1-.6-9.9 2.2-9 7.9-1.8.3-4.1 0-5.2 1-1.3 1.2-1.3 3.6-2.2 5.3-.6 1.2-1.9 2-2.9 3-.3-.4-.7-.9-1-1.3-.3.4-.7.9-1 1.3-1.7 1.1-1.7 1.1-4.2 7.2-5-.6-6.1.1-6.9 5.1-.3 2-.8 3.6-3.1 4-.3-.4-.7-.9-1-1.3-.3.4-.7.9-1 1.3-.4.3-.9.7-1.3 1 .4.3.9.7 1.3 1l-6.1 6.1c-.3-.4-.7-.9-1-1.3-.3.4-.7.9-1 1.3-.4.3-.9.7-1.3 1 .4.3.9.7 1.3 1-1.2 2.3-2.1 4.9-3.7 6.8-.8 1-2.9.9-4.8 1.6l.9-.9c-.5-.2-1.1-.5-1.6-.7-.1 0-.3.2-.3.3.2.5.4 1.1 1 1.3-1.8 3.1-3.3 6.7-7.4 8.9-3.4 1.8-5.8 5.5-8.7 8.3-.8.8-1.9 1.2-2.9 1.8-.3-.4-.7-.9-1-1.3l-.3.3c.4.3.9.7 1.3 1l-8.4 8.4.9-.9c-.5-.2-1.1-.5-1.6-.7-.1 0-.3.2-.3.3.2.5.4 1.1 1 1.3 0 1.1.3 3.2-.6 3.9-1.9 1.5-4.2 2.8-6.5 3.1-4.7.6-5 .4-5.8 5-.3 2-.8 3.6-3.1 3.9-.3-.4-.7-.9-1-1.3-.3.4-.7.9-1 1.3-.4.3-.9.7-1.3 1 .4.3.9.7 1.3 1-.4 2.3-2 2.8-4 3.1-5 .8-5.7 2-5.2 6.1-3.6 2.3-6.9 4.3-10 6.6-.9.7-2 2.4-1.7 3.4.7 3-1.2 4.3-2.7 6.1-2.2 2.5-4.2 5.1-6.2 7.8-1.3 1.8-2.9 3.2-5.1 1.8-2-1.2-3.1-.4-4.4.9-2.3 2.3-4.7 4.4-6.7 6.9-1.2 1.5-2.2 3.4-2.6 5.2-.5 2-.9 3.6-3.1 4-.3-.4-.7-.9-1-1.3-.3.4-.7.9-1 1.3-4.4.6-2 5.3-4.4 7.5-3.4-1.7-5.3 0-6.8 3.1-.5 1.1-1.8 1.9-2.8 2.7-.9.7-2.2 1.2-2.8 2.1-4.2 5.9-10.4 9.8-15.1 15.1-.8.9-2.1 2.3-1.9 2.8 2 4-1.5 5.4-3.3 7.4-2.4 2.6-5 5-7.5 7.5-1.7 1.8-3.4 3.4-6.1 1.9-2.9-1.5-3.4-3.7-2.3-6.4zm73.3-64.2h-.4c.1.2.2.5.2.7.1-.1.3-.2.3-.3.1-.1-.1-.3-.1-.4zM308.3 51.8c-4.3-3.3-4.3-3.3-8.2.6L161.7 190.8c-37.7 37.7-75.3 75.3-113 112.9-3.3 3.3-4.2 5.3-.2 8.6 1.9 1.6 3.4 3.6 5.1 5.5-3.7-2.2-7.6-4.1-11.1-6.6-2-1.4-1.4-3.4.3-5.2 27.5-27.3 55-54.5 82.4-81.9 1.5-1.5 3.6-2.6 2.1-5.5-.3-.5 2.2-3.5 3.6-3.6 3.3-.2 5.8.3 4.4-4.6-.6-2.2 1.7-3.8 4.3-3.6 3 .2 5.1-.1 3.9-4.2-.3-1 2.1-3.9 2.8-3.8 4.7 1 6.6-2.7 9.2-5.1 1.1-1 2.3-2 3.2-3.3.7-1 1.1-2.3 1.1-3.4-.1-3.1.9-4.5 4.1-4.6 3 0 5.1-.1 3.9-4.2-.7-2.2 1.5-4.2 3.9-3.6 3.7 1 3.9-.9 4-3.7.1-3.7 1.1-4.6 4.7-4.2 2.9.3 3.4-1.3 3.5-3.6.2-4.2.8-4.8 4.8-4.5 2.6.2 3.2-1.3 3.3-3.3.4-4.9.5-4.9 4.9-4.8 2.5.1 3-1.5 3.2-3.5.3-4.6.3-4.6 5.1-4.5 2.1 0 5.6-3.5 5.8-6.1.1-.8-.1-1.6-.1-1.4 2.4-1.1 4.4-1.6 5.8-2.7 3.2-2.7 6.2-5.7 8.4-7.9-.3-3-.5-4.9-.7-6.8 1.8.3 3.6.5 6.3.9.4-.9 1.3-2.4 1.7-4.1.6-2.9.7-5.7 5.1-4.6 1.2.3 3-1.5 4.5-2.3-.4-.2-.7-.4-1.1-.6v-5.6c1.6.3 3.3.5 5.7.9 2.8-4.3 9.9-6.3 10.1-13.1 2-.8 4.1-1.2 5.4-2.4 10-9.4 19.8-18.9 29.6-28.5 2.9-2.8 5.2-6.2 8.2-9 1.3-1.2 3.7-2.5 5.1-2.1 1.7.4 2.3 3.1 3.3 4.7zm226.5 226.6c-6-5.9-12-11.7-17.9-17.6-10.3-10.3-20.6-20.8-30.9-31.2 2.9.4 5.8.6 8.7 1.2 3.9.8 4.7 3.8 4.4 7.2 7.3 1.7 9.2 2.8 7 9.5 5.2-2.3 8-.1 9.7 4.5.4 1 1.9 1.7 3 2.3 4.3 2.4 5.1 4.3 3.4 9.4 5.3-2.1 8.4 0 9.9 5 0 .2.1.4.2.4 5.7 1.7 3.6 5.6 2.5 9.3zM362 105.7L316.3 60c2.6.4 5.2.7 7.8 1.1 3.2.4 5.2 2.9 4.3 6.2-.8 2.9 1.2 4 2.7 5.5 4.4 4.3 9 8.5 13.6 12.8 6.3-1.1 8.3.8 7.9 8.2 2 .3 4.5-2.6 6.2.4 1.1 2 2.1 4.1 3.3 6.6 3.2-.5 5.5 1.1 7.1 5.2-1.7-.1-2.9-.2-4.1-.3-.8-2-1.7-2.6-2.8-.2l-.3.2zm44.9 44.3c-2.9-2.7-6-5.3-8.8-8.1-10.2-10-20.3-20.1-30.4-30.2-.6-.6-.8-1.4-1.2-2.1 1.1.2 2.4.7 3.4.4 5.2-1.1 6.5-.3 7.5 4.7.1.6.2 1.3.3 1.7 2.2.8 4.3 1.2 6 2.3 2.2 1.4 1.5 3.7 1.2 6-.3 2.6 6.6 9.7 9.2 9.9 7.2.6 7.2.6 7.4 7 1.2.1 2.5.3 3.7.4.6 2.8 1.1 5.4 1.7 8zm46.6 47.1c-11.9-11.8-23.8-23.5-35.7-35.3-3.4-3.4-6.7-7-10.1-10.5 3.2 2.5 6.6 4.7 9.6 7.4 5.3 4.8 10.4 9.9 15.6 14.8.7.6 1.7 1.4 2.5 1.3 5.6-.1 6.4.7 6.2 6 0 .3.2.6.4.9 6.2.3 7.4 1.5 7.9 7.8.1 1 .9 2 1.4 3 .7 1.7 1.5 3.2 2.2 4.6zm-378.8 142c3.9 3.7 7.9 7.2 11.7 11 10.5 10.4 20.9 20.8 31.3 31.3 1 1.1 1.9 2.3 2.8 3.5-2.4-1.1-4.6-3.6-7.5-1.2-.7-.9-2.1-2.2-1.9-2.5 1.8-2.7.2-4.5-1.5-6.2-3.3-3.3-6.8-6.4-10.1-9.7-8-8.1-16-16.2-23.9-24.4-.5-.4-.6-1.2-.9-1.8z"/>
    <path class="color-main color-black" fill="#030302" d="M53.5 317.7c7.1 7.2 14.2 14.3 21.3 21.5-4.2-3.6-8.4-7.3-12.6-10.9-1.5-1.2-3.2-2.1-4.8-3.2-1.3-2.5-2.6-5-3.9-7.4zm99.6 99.5c4.4 4.5 8.7 8.9 13.1 13.4-3-2.3-5.9-4.6-9.5-7.3-1.1.2-3 .7-5.8 1.3.9-3.1 1.5-5.2 2.2-7.4zm-32.7-32.3l16.5 16.2c-6.9-4.1-12.5-9.3-16.5-16.2zm357.5-163.4c-2.7-2.7-5.4-5.4-8.1-8.2 2.7.4 5.5.4 8 1.3 1.9.7 3.4 2.7 5.1 4.1-.2.4-.4.7-.6 1.1-1.4-.5-2.9-.9-4.3-1.4-.3-.5-.5-.9-.8-1.4l-.6.6c.5.3.9.5 1.4.8-.1 1-.1 2.1-.1 3.1zm-263 257.8c3.4 3.4 6.9 6.8 10.3 10.2-2.7-.6-5.4-1.2-7.9-1.8-.7-2.6-1.5-5.5-2.4-8.4zM465.8 209c-4.1-4-8.2-7.9-12.4-11.9 1.4.5 3.2.5 4.1 1.5 3 3.3 5.6 6.9 8.3 10.4zM255.6 519.9c2.7 2.7 5.4 5.5 8.1 8.2-3.8-1.6-7.6-3.3-8.1-8.2zm-89.5-89.3c2.8 2.7 5.5 5.4 8.3 8.1-4.8-.6-6.1-4.8-8.3-8.1zM486 229.7l-8.2-8.2c4 1.4 6.7 4.2 8.2 8.2z"/>
    <path class="color-main color-black" fill="#030302" d="M174.3 438.6c2.7 2.8 5.4 5.5 8.1 8.3-4-1.4-6.8-4.1-8.1-8.3zm57 56.8c2.7 2.8 5.4 5.6 8.1 8.3-4.1-1.4-7-3.9-8.1-8.3zm59.8 60c2.5 2.4 4.9 4.8 7.4 7.2-4-.8-6.3-3.3-7.4-7.2zm-19.3-19.2c2.4 2.4 4.9 4.8 7.3 7.1-3.9-.8-6.2-3.3-7.3-7.1zm-70-70.4l5.1 5.4c-3.5-.1-5.2-1.9-5.1-5.4zm-8.1-7.9c1.7 1.7 3.5 3.4 5.2 5.1-3.5.1-5.2-1.7-5.2-5.1zm16.2 16.1c1.7 1.8 3.4 3.6 5.1 5.3l-4.2-.9c-.4-1.4-.6-2.9-.9-4.4zm-73.1-73c1.7 1.8 3.4 3.5 5 5.3-3-.6-4.7-2.2-5-5.3zm129.9 129.9c1.7 1.8 3.4 3.6 5.1 5.3-3-.5-4.7-2.2-5.1-5.3zm-16.2-16.2c1.7 1.8 3.4 3.5 5.2 5.3-3.1-.5-4.8-2.2-5.2-5.3zm-24.4-24.4l5.2 5.2c-3.1-.3-4.8-2.1-5.2-5.2zm-81.2-81.2c1.7 1.8 3.4 3.5 5 5.3-2.9-.5-4.7-2.2-5-5.3zm40.7 40.6l5.2 5.2c-3.2-.3-5-2-5.2-5.2zm284.1-236.3c-1.2-1.4-2.5-2.8-3.7-4.3 1.3 1.5 2.5 2.9 3.7 4.3zM316.3 60c-1.2-1.4-2.4-2.9-3.6-4.3 1.2 1.5 2.4 2.9 3.6 4.3zm48.8 48.7c-1-1-2.1-2-3.1-3l.3-.3c.9.1 1.9.1 2.8.2.1 1.1.1 2.1 0 3.1z"/>
    <path class="color-main color-black" fill="#030302" d="M182.4 446.8c1.1 1 2.2 2 3.2 3-2.2.3-3.3-.7-3.2-3zM312.5 55.5c-.9-.9-1.9-1.8-2.8-2.8.9.9 1.8 1.9 2.8 2.8zM149.9 414.3c1.1 1 2.2 2 3.2 3-2 0-3.1-1-3.2-3zm-8.1-8.1l3.3 3c-2.1 0-3.2-1-3.3-3zm48.8 48.6c1 1.1 2.1 2.1 3.1 3.2-2-.1-3.1-1.1-3.1-3.2zm20.2 23.7l-1.8 1.8c-.2-.3-.4-.7-.6-1 .8-.3 1.5-.6 2.4-.8zM57.4 325.1l-1.8 1.8c-.2-.3-.4-.7-.6-1 .8-.3 1.6-.6 2.4-.8zm141.4 137.8c.7.7 1.4 1.5 2.1 2.2-.7-.7-1.4-1.4-2.1-2.2zm211.1 5.4l-2 2v-2h2c-.1 0 0 0 0 0zm-203.1 2.9c.7.7 1.4 1.4 2.2 2.1-.8-.7-1.5-1.4-2.2-2.1zm256.9-56.7l-2 2v-2c.6-.1 1.3-.1 2 0zm8.1-8.2l-2 2v-2h2zm-232.5 97.4c.8.7 1.5 1.4 2.3 2.1-.8-.7-1.5-1.4-2.3-2.1zm3.1 2.8c.7.8 1.4 1.5 2 2.3-.7-.7-1.4-1.5-2-2.3zm1.9 2.3c.7.7 1.4 1.4 2.2 2.1-.7-.7-1.4-1.4-2.2-2.1zm3.2 2.8c.7.8 1.5 1.5 2.2 2.3-.8-.8-1.5-1.6-2.2-2.3zm240.6-121.5c-.3.4-.7.9-1 1.3-.3-.4-.7-.9-1-1.3h2zM356 522.1c-.3.4-.7.9-1 1.3-.3-.4-.7-.9-1-1.3h2zm-92.3 6c.8.7 1.5 1.4 2.3 2.1-.8-.8-1.6-1.4-2.3-2.1zm259.9-175.6c.4.3.9.7 1.3 1-.4.3-.9.7-1.3 1v-2zM279.9 544.1l2.3 2.3c-.7-.8-1.5-1.5-2.3-2.3zm3.1 3.2c.7.7 1.4 1.5 2.1 2.2-.7-.8-1.4-1.5-2.1-2.2z"/>
    <path class="color-main color-black" fill="#030302" d="M285 549.4c.7.7 1.5 1.4 2.2 2.1-.7-.7-1.5-1.4-2.2-2.1zm3.1 2.9c.8.7 1.5 1.5 2.3 2.2-.8-.7-1.6-1.5-2.3-2.2zm11.1 11.3c.7.7 1.4 1.5 2.1 2.2-.7-.8-1.4-1.5-2.1-2.2zm6.2-406.2c83.2-.2 150.2 67.3 150.4 149.5.3 85.4-68 149.5-146 151.4-42.4 1.1-79.3-13.3-109.6-42.7-29.3-28.4-44.8-64-45.4-104.9-1.1-86.4 67.8-153.5 150.6-153.3zm7.6 149.7c4.3-2.7 5.3-6.8 5.2-11.7-.2-15.7-.1-31.5-.1-47.2 0-8.5-6.5-14.8-15-14.9h-13.7c-8.3 0-16.6.1-24.9-.1-3.2 0-4.8 1.2-4.5 4.5.1.7 0 1.4 0 2v138.5c-.1 2.6 1.3 3.7 3.7 3.7h10.2c2.6 0 3.7-1.4 3.5-3.9-.1-1 0-2 0-3v-51.3c0-2.5 0-4.9 3.5-4.9h15.7c2.2 0 3.5 1.1 3.5 3.4v54.9c0 4.3.4 4.7 4.5 4.8 2.9.1 5.8 0 8.6 0 5-.1 5-.1 5-5.2 0-16.9-.1-33.8.1-50.8.1-6.5 0-12.8-5.1-17.7-.2 0-.2-.2-.2-1.1zm107.7 11.7c0-5.6.1-10.6 0-15.6-.1-4.1-.7-4.6-4.8-4.6-6.8 0-13.5 0-20.3.1-3.2.1-4.5-1.1-4.5-4.5.1-12.2 0-24.4.1-36.5 0-4.6.3-4.8 5-4.8h20.3c2 0 4-.1 4.1-2.6.2-5.5 0-11 0-16.7h-48.5v110c0 11.3 0 22.7-.1 34 0 2.6.4 4.2 3.5 4.2 13.9-.1 27.7-.1 41.6 0 2.7 0 3.6-1.3 3.5-3.8-.1-3-.2-6.1 0-9.1.2-3.4-1.2-4.5-4.5-4.4-5.7.2-11.5.1-17.3.1-7.6 0-7.9 1.3-7.8-7.5.1-10.3.1-20.6 0-31 0-7.2-1.1-7.5 7.4-7.4 7.3.2 14.3.1 22.3.1zm-227.9-11.3v68.6c0 5.4.4 5.8 5.8 5.8h36.6c6.9 0 6.9 0 6.9-7.1 0-1.7.1-3.4.1-5.1-.1-4.3-.6-5-5-5-6.8-.1-13.5-.1-20.3.1-3.2.1-4.2-1.1-4.2-4.1.1-12.5.1-25.1 0-37.6 0-3.3 1.3-4.4 4.6-4.3 6.8.2 13.5 0 20.3.1 3.2 0 4.7-1.3 4.6-4.6-.1-3.4 0-6.8 0-10.2-.1-4.6-.7-5.3-5.3-5.4-6.4-.1-12.9 0-19.3 0-4.3 0-4.8-.4-4.8-4.6-.1-12.2-.1-24.4 0-36.6 0-4.5.4-4.7 5.1-4.7 6.4 0 12.9.1 19.3 0 4.3-.1 4.9-.9 5-5.2.1-2.9 0-5.8 0-8.6-.1-5.4-.4-5.7-5.8-5.7h-36.6c-6.8 0-6.9 0-6.9 6.7-.1 22.5 0 45-.1 67.5zm142.5.3h.2v34c0 11.8 0 23.7-.3 35.5-.1 3.3 1.2 4.7 4.4 4.7h9.1c5.1 0 5.4-.3 5.3-5.6-.1-7.8-.4-15.6-.3-23.3.1-23.2.3-46.3.3-69.5.1-15.1 0-30.1 0-45.2 0-4.9-.3-5.1-5.2-5.1h-7.6c-5.7 0-6 .2-6 6 .1 22.9.1 45.7.1 68.5z"/>
    <path class="color-main color-black" d="M555.8 299.3c.7-.5 1.5-.9 2.2-1.4.1.3.3.6.4.8-.8.3-1.6.6-2.3.9l-.3-.1v-.2zM425.5 452.7c-.2-.5-.5-1.1-.7-1.6 0-.1.2-.3.3-.3.5.2 1.1.4 1.6.7-.4.3-.8.7-1.2 1.2zm8.7-8.8c-.4-.3-.9-.7-1.3-1l.3-.3c.4.4.7.9 1 1.3zm18.7-18.7c-.2-.5-.5-1.1-.7-1.6 0-.1.2-.3.3-.3.5.2 1.1.4 1.6.7l-1.2 1.2zm-43.1 43.1h-2c.3-.4.7-.9 1-1.3.4.4.7.9 1 1.3zm-2 0v2c-.4-.3-.9-.7-1.3-1 .5-.3.9-.7 1.3-1zm53.9-53.8v2c-.4-.3-.9-.7-1.3-1 .4-.4.8-.7 1.3-1zm2-.1h-2c.3-.4.7-.9 1-1.3.3.5.6.9 1 1.3zm6.1-8.1v2c-.4-.3-.9-.7-1.3-1 .4-.3.9-.6 1.3-1zm2 0h-2c.3-.4.7-.9 1-1.3.3.5.7.9 1 1.3zm-97.3 95.2c.1.1.2.3.1.4 0 .1-.2.2-.3.3-.1-.2-.2-.5-.2-.7h.4zm113.6-111.4h-2c.3-.4.7-.9 1-1.3.3.4.6.8 1 1.3zM356 522.1h-2c.3-.4.7-.9 1-1.3.3.5.7.9 1 1.3zm167.6-169.6v2c-.4-.3-.9-.7-1.3-1 .5-.3.9-.7 1.3-1zM365.2 105.6c-.9-.1-1.9-.1-2.8-.2 1.1-2.4 2-1.8 2.8.2zm112.7 112.8c-.5-.3-.9-.5-1.4-.8l.6-.6c.3.5.6.9.8 1.4z"/>
    <path class="color-main color-green color-reserved-white" fill="#95c681" d="M313 307.1c.1.8 0 1.1.1 1.2 5.2 4.9 5.2 11.2 5.1 17.7-.2 16.9-.1 33.8-.1 50.8 0 5.2 0 5.2-5 5.2-2.9 0-5.8.1-8.6 0-4.1-.1-4.5-.6-4.5-4.8v-54.9c-.1-2.3-1.3-3.4-3.5-3.4h-15.7c-3.5 0-3.5 2.4-3.5 4.9v54.3c.2 2.5-.9 3.8-3.5 3.9h-10.2c-2.5 0-3.8-1.2-3.7-3.7V239.8c0-.7.1-1.4 0-2-.3-3.3 1.3-4.5 4.5-4.5 8.3.1 16.6.1 24.9.1H303c8.6.1 15 6.4 15 14.9 0 15.7-.1 31.5.1 47.2.2 4.8-.9 8.9-5.1 11.6zm-12.8-31.5v-18.8c0-2.7-1-4.1-3.9-4-5.1.1-10.2.1-15.2 0-2.6-.1-3.8.9-3.8 3.5v38.6c0 2.8 1.3 3.9 4.1 3.9 4.7-.1 9.5 0 14.2-.1 4.1-.1 4.6-.6 4.7-4.8 0-6.1-.1-12.2-.1-18.3zm120.5 43.2c-7.9 0-15 .1-22.1 0-8.5-.1-7.4.1-7.4 7.4v31c0 8.9.2 7.5 7.8 7.5 5.8 0 11.5.1 17.3-.1 3.2-.1 4.7 1 4.5 4.4-.2 3-.1 6.1 0 9.1.1 2.5-.8 3.8-3.5 3.8h-41.6c-3.1 0-3.5-1.6-3.5-4.2.1-11.3.1-22.7.1-34v-110h48.5c0 5.6.1 11.1 0 16.7-.1 2.5-2.2 2.6-4.1 2.6h-20.3c-4.6 0-4.9.2-5 4.8-.1 12.2.1 24.4-.1 36.5 0 3.4 1.2 4.5 4.5 4.5 6.8-.1 13.5-.1 20.3-.1 4.1 0 4.7.5 4.8 4.6-.2 5-.2 10-.2 15.5zm-227.8-11.3V240c0-6.7.1-6.7 6.9-6.7h36.6c5.5 0 5.7.3 5.8 5.7v8.6c-.1 4.3-.8 5.1-5 5.2-6.4.1-12.9 0-19.3 0-4.7 0-5.1.2-5.1 4.7-.1 12.2-.1 24.4 0 36.6 0 4.1.5 4.5 4.8 4.6 6.4 0 12.9-.1 19.3 0 4.6.1 5.2.8 5.3 5.4 0 3.4-.1 6.8 0 10.2.1 3.2-1.5 4.6-4.6 4.6-6.8-.1-13.5.1-20.3-.1-3.3-.1-4.6 1-4.6 4.3.1 12.5.1 25.1 0 37.6 0 3 1 4.2 4.2 4.1 6.8-.2 13.5-.2 20.3-.1 4.4.1 4.9.7 5 5 0 1.7-.1 3.4-.1 5.1-.1 7.1-.1 7.1-6.9 7.1h-36.6c-5.4 0-5.8-.4-5.8-5.8 0-22.8 0-45.7.1-68.6zm142.4.3v-68.5c0-5.8.2-6 6-6h7.6c4.8 0 5.2.2 5.2 5.1 0 15.1.1 30.1 0 45.2-.1 23.2-.3 46.3-.3 69.5 0 7.8.3 15.6.3 23.3 0 5.3-.2 5.5-5.3 5.6h-9.1c-3.2 0-4.4-1.4-4.4-4.7.2-11.8.2-23.7.3-35.5v-34h-.3z"/>
    <path class="color-main color-black" fill="#030302" d="M300.2 275.6c0 6.1.1 12.2 0 18.3 0 4.2-.6 4.7-4.7 4.8-4.7.1-9.5-.1-14.2.1-2.8.1-4.1-1.1-4.1-3.9v-38.6c0-2.6 1.2-3.6 3.8-3.5 5.1.1 10.2.1 15.2 0 2.9-.1 3.9 1.4 3.9 4 .1 6.3.1 12.6.1 18.8z"/>
</svg>
