<svg xmlns="http://www.w3.org/2000/svg" width="191.98695" height="192" viewBox="0 0 191.98695 192">
    <path class="color-stroke-black" stroke="#000" stroke-width=".915595" d="M96.741865.647397C64.709905 32.679355 32.679455 64.711564.647515 96.743518c31.50554 31.487682 63.7957 62.266182 96.08906 94.614142 34.329965-33.20533 62.989475-62.12929 94.617675-94.610611C158.86788 61.997768 132.84694 36.746495 96.741865.647397z"/>
    <path class="color-main color-yellow" fill="#d2c535" d="M182.65135 96.790024C153.18527 65.271405 129.58337 42.36874 96.834985 9.625796c-29.05393 29.053927-58.10786 58.107865-87.16179 87.161798 28.57647 28.560256 57.86602 56.475826 87.15705 85.816376 31.138295-30.11822 57.133405-56.35242 85.821105-85.813946zM89.566315 146.44001c-35.70109-5.42202-54.53932-46.693568-35.06562-76.823166 19.80151-30.63679 64.435345-31.209585 84.431865-1.083532 7.07067 10.652422 10.027 25.132325 7.64676 37.453288-2.41242 12.48746-11.62297 26.0638-22.34666 32.93889-9.42617 6.04326-23.8157 9.16243-34.666345 7.51452zm-13.70318-26.13341s-.0291-2.25673.10841-5.49249l-9.90172-.0132c-.0756-7.11292-.22782-9.27281-.0163-15.309463l9.68444.04101c-.14107-2.294864.23706-3.759221.1247-6.434214l-9.80914-.0233c.17436-4.934213-.15813-9.868423.0163-14.802627l9.71165.05519c.0779-2.684523.0767-3.056142-.0924-6.328735-5.62921.05871-7.06035.07398-15.43554-.04968-.46669 16.571984-.55422 38.286679-.50559 48.321599 6.5359.0207 16.1152.0359 16.1152.0359zm12.00036-20.727008l8.18095-.06332c.21802 9.096358.0913 10.700308.15992 20.802958 2.00147.0861 3.03496-.009 5.204735.0282 0 0-.13503-5.39939-.034-11.36559-.46317-9.898945 1.15908-11.060947-2.726815-11.845486 3.196095-1.00779 2.815095-3.102735 2.763965-12.630756-.0696-12.979399.23494-12.415827-11.223095-12.501497l-7.35295-.05501-.48091 48.339259c2.97996.0331 3.29123.0126 5.44092-.005-.031-10.08925.0585-23.580248.0673-20.704487zm-.17772-21.307352l8.60393.06332s-.0812 8.758884-.0454 14.778824l-8.4506-.06233c.12095-5.731813-.0714-8.413153-.10782-14.779827zm25.327185-6.241828l-5.08983-.02105c.13415 16.329988.36138 48.222668.36138 48.222668 2.46822-.003 2.64226-.003 4.81236-.003-.0935-16.38187.15811-31.817479-.0839-48.198478zm22.15153 48.212838c0-2.04749.0209-2.99029-.0173-5.42514l-8.82769-.0715c.0242-5.00792-.14736-10.27286-.18806-15.280523 4.50723-.05104 4.89274.03207 8.91552.04923 0-2.809929.21533-3.209361.0669-6.352393l-8.91906-.05763c.15816-6.2846.15336-7.988835.051-15.361908 5.07805-.151791 5.68762-.097 8.98209.02005v-5.81433h-15.35625c-.23852 18.210173-.10623 19.342655.15713 48.247624 6.5736.033 8.40632.0292 15.1357.0465z"/>
</svg>
