<?xml version="1.0" encoding="UTF-8" standalone="no"?>
<svg
   xmlns="http://www.w3.org/2000/svg"
   version="1.1"
   id="svg90"
   width="191.98695"
   height="192"
   viewBox="0 0 191.98695 192">
  <path
     id="rect851"
     d="M 96.741865,0.64739694 C 64.709905,32.679355 32.679455,64.711564 0.64751545,96.743518 32.153055,128.2312 64.443215,159.0097 96.736575,191.35766 131.06654,158.15233 159.72605,129.22837 191.35425,96.747049 158.86788,61.997768 132.84694,36.746495 96.741865,0.64739694 Z"
     style="fill:#000000;fill-opacity:1;stroke:#000000;stroke-width:0.91559541;stroke-opacity:1" />
  <path
     id="path102-8"
     d="M 182.65135,96.790024 C 153.18527,65.271405 129.58337,42.36874 96.834985,9.6257962 67.781055,38.679723 38.727125,67.733661 9.6731954,96.787594 38.249665,125.34785 67.539215,153.26342 96.830245,182.60397 127.96854,152.48575 153.96365,126.25155 182.65135,96.790024 Z M 89.566315,146.44001 c -35.70109,-5.42202 -54.53932,-46.693568 -35.06562,-76.823166 19.80151,-30.63679 64.435345,-31.209585 84.431865,-1.083532 7.07067,10.652422 10.027,25.132325 7.64676,37.453288 -2.41242,12.48746 -11.62297,26.0638 -22.34666,32.93889 -9.42617,6.04326 -23.8157,9.16243 -34.666345,7.51452 z M 75.863135,120.3066 c 0,0 -0.0291,-2.25673 0.10841,-5.49249 l -9.90172,-0.0132 c -0.0756,-7.11292 -0.22782,-9.27281 -0.0163,-15.309463 l 9.68444,0.04101 c -0.14107,-2.294864 0.23706,-3.759221 0.1247,-6.434214 l -9.80914,-0.0233 c 0.17436,-4.934213 -0.15813,-9.868423 0.0163,-14.802627 l 9.71165,0.05519 c 0.0779,-2.684523 0.0767,-3.056142 -0.0924,-6.328735 -5.62921,0.05871 -7.06035,0.07398 -15.43554,-0.04968 -0.46669,16.571984 -0.55422,38.286679 -0.50559,48.321599 6.5359,0.0207 16.1152,0.0359 16.1152,0.0359 z m 12.00036,-20.727008 8.18095,-0.06332 c 0.21802,9.096358 0.0913,10.700308 0.15992,20.802958 2.00147,0.0861 3.03496,-0.009 5.204735,0.0282 0,0 -0.13503,-5.39939 -0.034,-11.36559 -0.46317,-9.898945 1.15908,-11.060947 -2.726815,-11.845486 3.196095,-1.00779 2.815095,-3.102735 2.763965,-12.630756 -0.0696,-12.979399 0.23494,-12.415827 -11.223095,-12.501497 l -7.35295,-0.05501 -0.48091,48.339259 c 2.97996,0.0331 3.29123,0.0126 5.44092,-0.005 -0.031,-10.08925 0.0585,-23.580248 0.0673,-20.704487 z M 87.685775,78.27224 v 0 l 8.60393,0.06332 c 0,0 -0.0812,8.758884 -0.0454,14.778824 l -8.4506,-0.06233 c 0.12095,-5.731813 -0.0714,-8.413153 -0.10782,-14.779827 z m 25.327185,-6.241828 -5.08983,-0.02105 c 0.13415,16.329988 0.36138,48.222668 0.36138,48.222668 2.46822,-0.003 2.64226,-0.003 4.81236,-0.003 -0.0935,-16.38187 0.15811,-31.817479 -0.0839,-48.198478 z m 22.15153,48.212838 c 0,-2.04749 0.0209,-2.99029 -0.0173,-5.42514 l -8.82769,-0.0715 c 0.0242,-5.00792 -0.14736,-10.27286 -0.18806,-15.280523 4.50723,-0.05104 4.89274,0.03207 8.91552,0.04923 0,-2.809929 0.21533,-3.209361 0.0669,-6.352393 l -8.91906,-0.05763 c 0.15816,-6.2846 0.15336,-7.988835 0.051,-15.361908 5.07805,-0.151791 5.68762,-0.097 8.98209,0.02005 v -5.81433 h -15.35625 c -0.23852,18.210173 -0.10623,19.342655 0.15713,48.247624 6.5736,0.033 8.40632,0.0292 15.1357,0.0465 z"
     style="opacity:1;fill:#d2c535;fill-opacity:1;stroke-width:0.90330493" />
</svg>
