<svg xmlns="http://www.w3.org/2000/svg" width="191.947922" height="153.12" viewBox="-10 -10 70.786221 60.513">
    <path d="M5.910308 35.940202c-.027305-.073147-.037826-7.122754-.022545-15.666011l.026553-15.533195 19.512501-.002505 19.512536-.002505.053107 7.582302c.029308 4.170275.029308 11.209086 0 15.641838l-.053107 8.05951-19.48924.026804c-15.535939.022545-19.499323-.000125-19.539003-.105963zM23.97922 31.52025c.518466-.264506.59021-.359672.845262-1.121251.33868-1.011306.293214-3.061549-.09945-4.488264-.306154-1.112208-1.61874-1.631877-2.456773-.972678-.418966.329562-.685376 1.039613-.826284 2.202348-.220694 1.820656.198147 3.843669.88951 4.296678.504213.330389 1.103893.36065 1.64781.083167zm-1.12278-.665135c-.456617-.56025-.776685-2.674471-.58237-3.847076.128008-.772476.308545-1.125911.709175-1.388438.553436-.362629.903414.06989 1.165716 1.440317.148799.777987.15456 1.056472.042084 2.053825-.151805 1.345452-.370644 1.795405-.898254 1.847435-.178107.017535-.374401-.03006-.43625-.105963zm5.803996.558747c.58535-.408997.625631-.65186.631193-3.804966l.00501-2.896167-.370194.032816-.370193.032816-.027556 2.757187c-.02505 2.453653-.048597 2.7882-.218689 3.038753-.200903.29592-.604664.455565-.9084.359146-.099198-.031313-.272321-.212176-.384997-.401957-.184872-.310975-.20892-.612405-.247497-3.075476l-.042836-2.730684h-.717165l-.012526 2.359538c-.007515 1.297731-.01002 2.388271-.00501 2.423392.00501.03507.017535.27375.02981.53024.03983.826585.391461 1.28483 1.17233 1.528144.535475.166835 1.092093.108718 1.466745-.153058zm-10.80326-.511127c.007515-.393715.002504-1.479346-.01002-2.41257-.025051-1.82722.043336-1.976694.42613-.933675.102957.280213.387503.986707.63257 1.569953.244992.583271.572074 1.370653.72666 1.749764.269466.660727.297547.690687.677585.722225.218189.017536.396497.012526.396497-.01503 0-.092686-.533146-1.427717-1.17228-2.93532-.35852-.845698-.658998-1.624787-.66769-1.731301-.01002-.136775.108968-.236976.408295-.341236.516086-.17961.955744-.691338 1.106948-1.288362.19439-.767742.141033-1.995157-.112476-2.58454-.123749-.287853-.257993-.523376-.298124-.523376-.04008 0-.188128-.107466-.328936-.23848-.23472-.21894-.357217-.238478-1.478143-.238478h-1.22218l-.0253 4.825115c-.01503 2.653804-.002505 4.88476.022545 4.957656.027806.076153.230713.132516.476106.132516h.427509zm.038577-5.143254c-.026052-.072896-.036574-.848378-.022545-1.72326l.02505-1.590695.303008-.03457c.332944-.038076.86579.140283 1.15512.386702.153058.130513.185623.337904.185623 1.186233 0 1.189263-.117235 1.618826-.487479 1.787565-.35629.162326-1.09768.15481-1.1573-.012526zm13.628008 2.783716v-3.075351h.37117c.352183 0 .371146-.017535.371146-.364432 0-.333645-.029058-.367263-.344642-.397674l-.344642-.033317-.030812-.881019-.030812-.88102-.39329.032566-.39329.032566-.030812.874882-.030811.874882h-.313856c-.286826 0-.313855.031312-.313855.36413 0 .318365.036573.368315.291636.397674l.291635.033568.026804 2.916281c.01503 1.603947.049099 2.975927.076153 3.048823.027054.072897.217938.132516.423801.132516h.374477zm4.013585 2.889753c.292738-.247497.65246-1.203341.65246-1.733581v-.426657l-.397673.032816c-.396296.032816-.397674.03457-.397674.514207 0 .820398-.555114 1.355222-1.102514 1.062259-.404612-.216435-.585851-.775808-.6721-2.07379-.02505-.359973.00501-.425805.18387-.434999.116734-.00501.725081-.017535 1.35209-.026553l1.13999-.01503-.00501-.768819c-.007516-1.150761-.349578-2.223064-.8216-2.57164-.207417-.153057-.453636-.212176-.88583-.212176-.741213 0-.950358.165833-1.404244 1.113487-.32598.680591-.330038.70935-.32092 2.279978.012525 1.975918.248249 2.752603.995299 3.26626.362227.249 1.386584.245743 1.68348-.00501zm-1.998713-3.862006c0-.068137.052605-.426256.116984-.795873.184872-1.061657.877914-1.633881 1.333854-1.101362.210924.246495.56025 1.320377.56243 1.729498l.001578.291611H34.54603c-.697576 0-1.007449-.038076-1.007449-.123999zm-2.972896-7.697208c.202156-.101954.464608-.352432.583247-.556567.205663-.354111.216935-.56739.24399-4.639517l.028306-4.268372h-.437253c-.34086 0-.424076.034319-.377508.155562.088177.229962-.12926.313655-.335348.128759-.306716-.275128-.934803-.334422-1.266343-.11949-.788985.511326-1.014488 1.232926-1.02551 3.28159-.007515 1.276864.026052 1.588565.235723 2.226972.280013.852662.554765 1.115991 1.245477 1.193848.355639.04008.528812.0001.782772-.180864l.326105-.232216v.795673c0 .93077-.103709 1.263838-.468166 1.502593-.557269.365133-1.122529-.03983-1.122529-.804165 0-.296396-.022545-.313154-.438956-.313154h-.438957l.06438.543641c.03532.299.14003.6592.232717.800408.417563.637305 1.421129.861856 2.167979.485074zM29.3764 16.374384c-.488381-.511928-.543141-.79382-.518717-2.669837.017535-1.348483.061373-1.823537.19414-2.103223.302708-.637907.905318-.684525 1.260506-.097446.175102.289406.20892.588231.239481 2.112192.038077 1.914394-.103457 2.724947-.514533 2.944989-.287452.153809-.353986.135021-.660827-.186625zm-13.891513.751133c.615937-.459873.6593-.693893.69154-3.732095.01503-1.530523-.000627-2.831611-.037576-2.891306-.036824-.05962-.22921-.093187-.427133-.074149l-.360023.03432-.01002 2.77134c-.01002 2.684115-.017536 2.781736-.245744 3.101854-.245994.345619-.523827.411677-.988285.235222-.447548-.170091-.532995-.687956-.583597-3.536677l-.046593-2.624646h-.61729v2.80809c0 2.336642.028808 2.879883.171094 3.235772.170592.426106.539233.7716.942342.882974.40772.112726 1.232801-.002305 1.511786-.210674zm21.945863.136775c.251755-.047345.565786-.426632.83623-1.010003.241985-.521823.282266-.774305.333018-2.085063.052105-1.347781.034319-1.570453-.186124-2.31317-.202657-.68262-.316085-.883524-.66982-1.186307-.23422-.200403-.524629-.369793-.645371-.376256-1.243973-.066634-1.759308.58971-1.978624 2.519635-.161324 1.418549-.05461 2.749797.280915 3.508496.42563.962408.857772 1.16311 2.029851.942668zm-.991867-.800833c-.266235-.162326-.357819-.314181-.45068-.74715-.148047-.690713-.150302-2.495162-.00501-3.334848.13427-.771324.354412-1.094523.806444-1.184178.304612-.060371.361927-.026804.620997.364733.248249.375278.294868.57989.358295 1.575614.125502 1.971409-.28417 3.533571-.92586 3.529989-.039078-.000226-.221194-.092185-.405038-.20416zm-25.536649.519944c.603036-.372724.822352-1.001286.834025-2.390526.01002-1.111732-.00501-1.197154-.282517-1.61612-.176354-.266686-.446772-.506843-.681093-.604765l-.388656-.162326.372549-.342438c.226204-.207917.466787-.592289.61243-.97869.205663-.54557.230212-.757196.172596-1.484656-.07941-1.001963-.392989-1.734058-.832221-1.942451-.17936-.085171-.75925-.147296-1.484657-.15907l-1.19024-.02004-.027555 5.02692-.027556 5.02692 1.279645-.064379c1.044373-.052606 1.346454-.105712 1.6432-.28903zM8.93591 14.557134v-2.02692l.397674.0002c.566463.000226 1.1076.304387 1.320477.742166.240483.494643.254386 1.95743.02505 2.533262-.183368.45802-.4238.595621-1.238412.708473l-.503711.06989v-2.02692zm.052105-2.892433c-.031563-.082416-.044339-.958325-.028307-1.946635l.029309-1.796908.468791.034068c.61461.04459.934427.266986 1.066317.74184.256164.922302.007515 2.648519-.411927 2.873646-.3729.199651-1.061507.257217-1.124083.09419zm8.961797 3.531141c0-2.937048.182868-3.705391.912608-3.832647.242237-.042335.314206-.116734.34136-.35361.020041-.165081.01002-.36393-.02004-.441962-.093688-.24424-.492539-.046343-.778889.386376-.31894.481967-.477534.523977-.44582.117986.045592-.584123.007515-.66278-.327357-.66278h-.31814v6.893017h.636278zm2.704181-3.169365V6.750682l-.424177-.031313-.424177-.031313.017536 4.909435c.01002 2.700197.02004 5.088394.026553 5.307133.01002.387077.02004.397673.407593.397648h.397674zm1.905602 4.931153c.032565-.18963.046844-1.728546.031313-3.419993l-.028056-3.075326-.397674-.032816-.397674-.032816v6.905819h.366361c.330439 0 .372172-.033818.425755-.344667zm1.932807-2.334814c.02004-2.486593.033066-2.648493.253348-3.04033.253484-.451006.513456-.574955.89873-.428486.52543.199651.576934.506743.576934 3.438831v2.709466h.36636c.332769 0 .372574-.033066.434097-.36105.037325-.198649.0496-1.49896.027556-2.889753-.043337-2.721265-.113478-3.108718-.628237-3.469292-.386451-.270669-1.07774-.223449-1.461936.0997-.336741.283344-.56748.264531-.516828-.042084.022545-.135272-.065381-.185373-.368365-.210423l-.397673-.032816v6.918619l.397673-.032816.397674-.032815zm9.1547 2.493884c.001327-.101955.012525-1.474036.026553-3.048823l.02505-2.86325.344667-.033317c.314156-.03031.344642-.06488.344642-.390935 0-.32608-.030561-.360674-.344642-.39096l-.344667-.033317-.030812-.874882-.030812-.874882h-.725156l-.030812.874882-.030812.874882-.344667.033317c-.314156.03031-.344642.06488-.344642.39096 0 .326055.030561.36065.344642.390935l.344667.033317.028057 3.048823.028056 3.048847h.369542c.280313 0 .370118-.04484.371972-.185622zm6.786278-2.439048c.001678-2.520212.01002-2.64113.238479-3.038678.293715-.513406.495896-.644544.854791-.554463.551082.138277.601584.428485.601584 3.455314v2.762472h.848376v-2.850299c0-3.021192-.036323-3.283519-.526081-3.804114-.322949-.34324-1.064112-.330664-1.531726.026052-.36373.277432-.487304.257993-.487304-.076654 0-.167085-.066634-.195392-.397674-.167837l-.397673.032816-.02004 3.287427c-.012526 1.808081-.000852 3.347097.022545 3.419993.02505.072896.212176.132516.41824.132516h.374477l.001753-2.624646zM22.50561 8.924623c.046593 0 .146794-.150051.222697-.333545.12951-.312703.11999-.349176-.152056-.583271-.15957-.137276-.359196-.249752-.44344-.249752-.215182 0-.577335.386501-.577335.616012 0 .359998.407945.695121.72448.59512.077656-.02505.17936-.044589.225704-.044589z"/>
    <path class="color-main color-red" fill="#c72514" d="M.352107 40.452327L0 40.420646V.110314L13.235075.05517C20.514365.02488 31.916523.000026 38.573201.000026l12.103051-.000027.054879 4.660238c.030223 2.563126.054945 11.678554.055011 20.2565l.00008 15.596262-25.04101-.014449C11.972653 40.490597.545753 40.469785.352093 40.452354zM38.7455 36.784802h7.069815V3.784772l-1.628871.054547c-.89588.030025-10.207036.054548-20.691456.054548L4.432404 3.893854 4.450896 16.549c.01014 6.96033.042617 14.385591.072158 16.500579l.053686 3.845437 13.549489-.055077c7.452218-.03029 16.730898-.055078 20.61929-.055078z"/>
</svg>
