<?xml version="1.0" encoding="UTF-8" standalone="no"?>
<svg
   xmlns="http://www.w3.org/2000/svg"
   id="svg831"
   version="1.1"
   viewBox="0 0 50.786221 40.513"
   height="40.513mm"
   width="50.786221mm">
  <g
     transform="translate(-72.12475,-138.40421)"
     id="layer1">
    <g
       transform="matrix(2.5050307,0,0,2.5050307,-153.67954,-292.76974)"
       id="g1643"
       style="display:inline">
      <path
         style="display:inline;fill:#000000;stroke-width:0.04233333"
         d="m 92.499704,186.47043 c -0.0109,-0.0292 -0.0151,-2.84338 -0.009,-6.25382 l 0.0106,-6.2008 7.789326,-10e-4 7.78934,-0.001 0.0212,3.02683 c 0.0117,1.66476 0.0117,4.47463 0,6.24417 l -0.0212,3.21733 -7.78004,0.0107 c -6.201896,0.009 -7.784066,-5e-5 -7.799906,-0.0423 z m 7.21305,-1.76443 c 0.20697,-0.10559 0.23561,-0.14358 0.337426,-0.4476 0.1352,-0.40371 0.11705,-1.22216 -0.0397,-1.7917 -0.122216,-0.44399 -0.646196,-0.65144 -0.980736,-0.38829 -0.16725,0.13156 -0.2736,0.41501 -0.32985,0.87917 -0.0881,0.7268 0.0791,1.53438 0.35509,1.71522 0.20128,0.13189 0.44067,0.14397 0.6578,0.0332 z m -0.44821,-0.26552 c -0.18228,-0.22365 -0.31005,-1.06764 -0.23248,-1.53574 0.0511,-0.30837 0.12317,-0.44946 0.2831,-0.55426 0.22093,-0.14476 0.36064,0.0279 0.46535,0.57497 0.0594,0.31057 0.0617,0.42174 0.0168,0.81988 -0.0606,0.5371 -0.14796,0.71672 -0.35858,0.73749 -0.0711,0.007 -0.14946,-0.012 -0.17415,-0.0423 z m 2.316936,0.22305 c 0.23367,-0.16327 0.24975,-0.26022 0.25197,-1.51893 l 0.002,-1.15614 -0.14778,0.0131 -0.14778,0.0131 -0.011,1.10066 c -0.01,0.97949 -0.0194,1.11304 -0.0873,1.21306 -0.0802,0.11813 -0.24138,0.18186 -0.36263,0.14337 -0.0396,-0.0125 -0.10871,-0.0847 -0.15369,-0.16046 -0.0738,-0.12414 -0.0834,-0.24447 -0.0988,-1.22772 l -0.0171,-1.09008 h -0.14315 -0.14314 l -0.005,0.94192 c -0.003,0.51805 -0.004,0.95339 -0.002,0.96741 0.002,0.014 0.007,0.10928 0.0119,0.21167 0.0159,0.32997 0.15627,0.5129 0.46799,0.61003 0.21376,0.0666 0.43596,0.0434 0.58552,-0.0611 z m -4.312626,-0.20404 c 0.003,-0.15717 10e-4,-0.59055 -0.004,-0.96309 -0.01,-0.72942 0.0173,-0.78909 0.17011,-0.37272 0.0411,0.11186 0.15469,0.39389 0.25252,0.62672 0.0978,0.23284 0.22837,0.54716 0.29008,0.6985 0.10757,0.26376 0.11878,0.27572 0.27049,0.28831 0.0871,0.007 0.15828,0.005 0.15828,-0.006 0,-0.037 -0.21283,-0.56994 -0.46797,-1.17177 -0.14312,-0.3376 -0.26307,-0.64861 -0.26654,-0.69113 -0.004,-0.0546 0.0435,-0.0946 0.16299,-0.13622 0.20602,-0.0717 0.38153,-0.27598 0.44189,-0.51431 0.0776,-0.30648 0.0563,-0.79646 -0.0449,-1.03174 -0.0494,-0.11491 -0.10299,-0.20893 -0.11901,-0.20893 -0.016,0 -0.0751,-0.0429 -0.13131,-0.0952 -0.0937,-0.0874 -0.1426,-0.0952 -0.59007,-0.0952 h -0.48789 l -0.0101,1.92617 c -0.006,1.05939 -10e-4,1.94998 0.009,1.97908 0.0111,0.0304 0.0921,0.0529 0.19006,0.0529 h 0.17066 z m 0.0154,-2.05317 c -0.0104,-0.0291 -0.0146,-0.33867 -0.009,-0.68792 l 0.01,-0.635 0.12096,-0.0138 c 0.13291,-0.0152 0.34562,0.056 0.46112,0.15437 0.0611,0.0521 0.0741,0.13489 0.0741,0.47354 0,0.47475 -0.0468,0.64623 -0.1946,0.71359 -0.14223,0.0648 -0.43819,0.0618 -0.46199,-0.005 z m 5.440256,1.11125 v -1.22767 h 0.14817 c 0.14059,0 0.14816,-0.007 0.14816,-0.14548 0,-0.13319 -0.0116,-0.14661 -0.13758,-0.15875 l -0.13758,-0.0133 -0.0123,-0.3517 -0.0123,-0.3517 -0.157,0.013 -0.157,0.013 -0.0123,0.34925 -0.0123,0.34925 h -0.12529 c -0.1145,0 -0.12529,0.0125 -0.12529,0.14536 0,0.12709 0.0146,0.14703 0.11642,0.15875 l 0.11642,0.0134 0.0107,1.16417 c 0.006,0.64029 0.0196,1.18798 0.0304,1.21708 0.0108,0.0291 0.087,0.0529 0.16918,0.0529 h 0.14949 z m 1.60221,1.15358 c 0.11686,-0.0988 0.26046,-0.48037 0.26046,-0.69204 v -0.17032 l -0.15875,0.0131 c -0.1582,0.0131 -0.15875,0.0138 -0.15875,0.20527 0,0.3275 -0.2216,0.541 -0.44012,0.42405 -0.16152,-0.0864 -0.23387,-0.3097 -0.2683,-0.82785 -0.01,-0.1437 0.002,-0.16998 0.0734,-0.17365 0.0466,-0.002 0.28945,-0.007 0.53975,-0.0106 l 0.45508,-0.006 -0.002,-0.30691 c -0.003,-0.45938 -0.13955,-0.88744 -0.32798,-1.02659 -0.0828,-0.0611 -0.18109,-0.0847 -0.35362,-0.0847 -0.29589,0 -0.37938,0.0662 -0.56057,0.4445 -0.13013,0.27169 -0.13175,0.28317 -0.12811,0.91016 0.005,0.78878 0.0991,1.09883 0.39732,1.30388 0.1446,0.0994 0.55352,0.0981 0.67204,-0.002 z m -0.79788,-1.5417 c 0,-0.0272 0.021,-0.17016 0.0467,-0.31771 0.0738,-0.42381 0.35046,-0.65224 0.53247,-0.43966 0.0842,0.0984 0.22365,0.52709 0.22452,0.69041 l 6.3e-4,0.11641 h -0.40217 c -0.27847,0 -0.40217,-0.0152 -0.40217,-0.0495 z m -1.18677,-3.0727 c 0.0807,-0.0407 0.18547,-0.14069 0.23283,-0.22218 0.0821,-0.14136 0.0866,-0.2265 0.0974,-1.85208 l 0.0113,-1.70392 h -0.17455 c -0.13607,0 -0.16929,0.0137 -0.1507,0.0621 0.0352,0.0918 -0.0516,0.12521 -0.13387,0.0514 -0.12244,-0.10983 -0.37317,-0.1335 -0.50552,-0.0477 -0.31496,0.20412 -0.40498,0.49218 -0.40938,1.31 -0.003,0.50972 0.0104,0.63415 0.0941,0.889 0.11178,0.34038 0.22146,0.4455 0.49719,0.47658 0.14197,0.016 0.2111,4e-5 0.31248,-0.0722 l 0.13018,-0.0927 v 0.31763 c 0,0.37156 -0.0414,0.50452 -0.18689,0.59983 -0.22246,0.14576 -0.44811,-0.0159 -0.44811,-0.32102 0,-0.11832 -0.009,-0.12501 -0.17523,-0.12501 h -0.17523 l 0.0257,0.21702 c 0.0141,0.11936 0.0559,0.26315 0.0929,0.31952 0.16669,0.25441 0.56731,0.34405 0.86545,0.19364 z m -0.47478,-1.39693 c -0.19496,-0.20436 -0.21682,-0.31689 -0.20707,-1.06579 0.007,-0.53831 0.0245,-0.72795 0.0775,-0.8396 0.12084,-0.25465 0.3614,-0.27326 0.50319,-0.0389 0.0699,0.11553 0.0834,0.23482 0.0956,0.84318 0.0152,0.76422 -0.0413,1.08779 -0.2054,1.17563 -0.11475,0.0614 -0.14131,0.0539 -0.2638,-0.0745 z m -5.545446,0.29985 c 0.24588,-0.18358 0.26319,-0.277 0.27606,-1.48984 0.006,-0.61098 -2.5e-4,-1.13037 -0.015,-1.1542 -0.0147,-0.0238 -0.0915,-0.0372 -0.17051,-0.0296 l -0.14372,0.0137 -0.004,1.10631 c -0.004,1.07149 -0.007,1.11046 -0.0981,1.23825 -0.0982,0.13797 -0.20911,0.16434 -0.39452,0.0939 -0.17866,-0.0679 -0.21277,-0.27463 -0.23297,-1.41183 l -0.0186,-1.04775 h -0.12321 -0.12321 v 1.12098 c 0,0.93278 0.0115,1.14964 0.0683,1.29171 0.0681,0.1701 0.21526,0.30802 0.37618,0.35248 0.16276,0.045 0.49213,-9.2e-4 0.6035,-0.0841 z m 8.760716,0.0546 c 0.1005,-0.0189 0.22586,-0.17031 0.33382,-0.40319 0.0966,-0.20831 0.11268,-0.3091 0.13294,-0.83235 0.0208,-0.53803 0.0137,-0.62692 -0.0743,-0.92341 -0.0809,-0.2725 -0.12618,-0.3527 -0.26739,-0.47357 -0.0935,-0.08 -0.20943,-0.14762 -0.25763,-0.1502 -0.49659,-0.0266 -0.70231,0.23541 -0.78986,1.00583 -0.0644,0.56628 -0.0218,1.09771 0.11214,1.40058 0.16991,0.38419 0.34242,0.46431 0.81031,0.37631 z m -0.39595,-0.31969 c -0.10628,-0.0648 -0.14284,-0.12542 -0.17991,-0.29826 -0.0591,-0.27573 -0.06,-0.99606 -0.002,-1.33126 0.0536,-0.30791 0.14148,-0.43693 0.32193,-0.47272 0.1216,-0.0241 0.14448,-0.0107 0.2479,0.1456 0.0991,0.14981 0.11771,0.23149 0.14303,0.62898 0.0501,0.78698 -0.11344,1.41059 -0.3696,1.40916 -0.0156,-9e-5 -0.0883,-0.0368 -0.16169,-0.0815 z m -10.194146,0.20756 c 0.24073,-0.14879 0.32828,-0.39971 0.33294,-0.95429 0.004,-0.4438 -0.002,-0.4779 -0.11278,-0.64515 -0.0704,-0.10646 -0.17835,-0.20233 -0.27189,-0.24142 l -0.15515,-0.0648 0.14872,-0.1367 c 0.0903,-0.083 0.18634,-0.23644 0.24448,-0.39069 0.0821,-0.21779 0.0919,-0.30227 0.0689,-0.59267 -0.0317,-0.39998 -0.15688,-0.69223 -0.33222,-0.77542 -0.0716,-0.034 -0.30309,-0.0588 -0.59267,-0.0635 l -0.47514,-0.008 -0.011,2.00673 -0.011,2.00673 0.51083,-0.0257 c 0.41691,-0.021 0.5375,-0.0422 0.65596,-0.11538 z m -0.78495,-0.96776 v -0.80914 l 0.15875,8e-5 c 0.22613,9e-5 0.44215,0.12151 0.52713,0.29627 0.096,0.19746 0.10155,0.7814 0.01,1.01127 -0.0732,0.18284 -0.16918,0.23777 -0.49437,0.28282 l -0.20108,0.0279 v -0.80914 z m 0.0208,-1.15465 c -0.0126,-0.0329 -0.0177,-0.38256 -0.0113,-0.77709 l 0.0117,-0.71732 0.18714,0.0136 c 0.24535,0.0178 0.37302,0.10658 0.42567,0.29614 0.10226,0.36818 0.003,1.05728 -0.16444,1.14715 -0.14886,0.0797 -0.42375,0.10268 -0.44873,0.0376 z m 3.57752,1.40962 c 0,-1.17246 0.073,-1.47918 0.36431,-1.52998 0.0967,-0.0169 0.12543,-0.0466 0.13627,-0.14116 0.008,-0.0659 0.004,-0.14528 -0.008,-0.17643 -0.0374,-0.0975 -0.19662,-0.0185 -0.31093,0.15424 -0.12732,0.1924 -0.19063,0.20917 -0.17797,0.0471 0.0182,-0.23318 0.003,-0.26458 -0.13068,-0.26458 h -0.127 v 1.37583 1.37584 h 0.127 0.127 z m 1.0795,-1.2652 v -2.10608 l -0.16933,-0.0125 -0.16933,-0.0125 0.007,1.95983 c 0.004,1.07791 0.008,2.03127 0.0106,2.11859 0.004,0.15452 0.008,0.15875 0.16271,0.15874 h 0.15875 z m 0.76071,1.9685 c 0.013,-0.0757 0.0187,-0.69003 0.0125,-1.36525 l -0.0112,-1.22766 -0.15875,-0.0131 -0.15875,-0.0131 v 1.37839 1.37839 h 0.14625 c 0.13191,0 0.14857,-0.0135 0.16996,-0.13759 z m 0.77157,-0.93205 c 0.008,-0.99264 0.0132,-1.05727 0.101136,-1.21369 0.10119,-0.18004 0.20497,-0.22952 0.35877,-0.17105 0.20975,0.0797 0.23031,0.20229 0.23031,1.37277 v 1.08161 h 0.14625 c 0.13284,0 0.14873,-0.0132 0.17329,-0.14413 0.0149,-0.0793 0.0198,-0.59838 0.011,-1.15358 -0.0173,-1.08632 -0.0453,-1.24099 -0.25079,-1.38493 -0.15427,-0.10805 -0.43023,-0.0892 -0.5836,0.0398 -0.134426,0.11311 -0.226536,0.1056 -0.206316,-0.0168 0.009,-0.054 -0.0261,-0.074 -0.14705,-0.084 l -0.15875,-0.0131 v 1.38094 1.38095 l 0.15875,-0.0131 0.15875,-0.0131 z m 3.654526,0.99555 c 5.3e-4,-0.0407 0.005,-0.58843 0.0106,-1.21708 l 0.01,-1.143 0.13759,-0.0133 c 0.12541,-0.0121 0.13758,-0.0259 0.13758,-0.15606 0,-0.13017 -0.0122,-0.14398 -0.13758,-0.15607 l -0.13759,-0.0133 -0.0123,-0.34925 -0.0123,-0.34925 h -0.14474 -0.14474 l -0.0123,0.34925 -0.0123,0.34925 -0.13759,0.0133 c -0.12541,0.0121 -0.13758,0.0259 -0.13758,0.15607 0,0.13016 0.0122,0.14397 0.13758,0.15606 l 0.13759,0.0133 0.0112,1.21708 0.0112,1.21709 h 0.14752 c 0.1119,0 0.14775,-0.0179 0.14849,-0.0741 z m 2.70906,-0.97366 c 6.7e-4,-1.00606 0.004,-1.05433 0.0952,-1.21303 0.11725,-0.20495 0.19796,-0.2573 0.34123,-0.22134 0.21999,0.0552 0.24015,0.17105 0.24015,1.37935 v 1.10277 h 0.16934 0.16933 v -1.13783 c 0,-1.20605 -0.0145,-1.31077 -0.21001,-1.51859 -0.12892,-0.13702 -0.42479,-0.132 -0.61146,0.0104 -0.1452,0.11075 -0.19453,0.10299 -0.19453,-0.0306 0,-0.0667 -0.0266,-0.078 -0.15875,-0.067 l -0.15875,0.0131 -0.008,1.31233 c -0.005,0.72178 -3.4e-4,1.33615 0.009,1.36525 0.01,0.0291 0.0847,0.0529 0.16696,0.0529 h 0.14949 l 7e-4,-1.04775 z m -7.156706,-2.29659 c 0.0186,0 0.0586,-0.0599 0.0889,-0.13315 0.0517,-0.12483 0.0479,-0.13939 -0.0607,-0.23284 -0.0637,-0.0548 -0.14339,-0.0997 -0.17702,-0.0997 -0.0859,0 -0.23047,0.15429 -0.23047,0.24591 0,0.14371 0.16285,0.27749 0.28921,0.23757 0.031,-0.01 0.0716,-0.0178 0.0901,-0.0178 z"
         id="path1630" />
      <path
         style="display:inline;fill:#c72514;fill-opacity:1;stroke:none;stroke-width:0.01666667;stroke-miterlimit:4;stroke-dasharray:none;stroke-opacity:1"
         d="m 341.21911,711.57792 -0.53125,-0.0478 V 681.12051 650.7109 l 19.96875,-0.0832 c 10.98281,-0.0457 28.1861,-0.0832 38.22953,-0.0832 l 18.26078,-4e-5 0.0828,7.03125 c 0.0456,3.86718 0.0829,17.62031 0.083,30.5625 l 1.2e-4,23.53125 -37.78125,-0.0218 c -20.77969,-0.012 -38.02031,-0.0434 -38.3125,-0.0697 z m 57.92699,-5.53347 h 10.66676 v -24.89481 -24.89481 l -2.4576,0.0823 c -1.35168,0.0453 -15.40012,0.0823 -31.21875,0.0823 l -28.76115,-2e-5 0.0279,19.09377 c 0.0153,10.50157 0.0643,21.70462 0.10887,24.89566 l 0.081,5.8019 20.44313,-0.0831 c 11.24372,-0.0457 25.24316,-0.0831 31.10987,-0.0831 z"
         id="path1632"
         transform="scale(0.26458333)" />
    </g>
  </g>
</svg>
