<svg xmlns="http://www.w3.org/2000/svg" width="191.948" height="153.12" viewBox="-10 -10 70.786 60.513">
    <path d="M5.91 35.94c-.027-.073-.038-7.123-.022-15.666l.026-15.533 19.513-.003 19.512-.002.053 7.582c.03 4.17.03 11.21 0 15.642l-.053 8.06-19.489.026c-15.536.023-19.5 0-19.539-.106zm18.07-4.42c.518-.264.59-.36.844-1.121.34-1.011.294-3.062-.099-4.488-.306-1.112-1.619-1.632-2.457-.973-.419.33-.685 1.04-.826 2.202-.22 1.821.198 3.844.89 4.297.504.33 1.103.36 1.647.083zm-1.124-.665c-.456-.56-.776-2.674-.582-3.847.128-.772.309-1.126.71-1.388.553-.363.903.07 1.165 1.44.149.778.155 1.056.042 2.054-.152 1.345-.37 1.795-.898 1.847-.178.018-.375-.03-.436-.106zm5.804.559c.586-.41.626-.652.632-3.805l.005-2.896-.37.033-.37.032-.028 2.758c-.025 2.453-.049 2.788-.219 3.038-.2.296-.605.456-.908.36-.1-.032-.273-.213-.385-.403-.185-.31-.21-.612-.248-3.075l-.043-2.73h-.717l-.012 2.359a159.51 159.51 0 00-.005 2.423c.005.035.017.274.03.53.04.827.39 1.285 1.172 1.529.535.166 1.092.108 1.466-.153zm-10.803-.511c.008-.394.003-1.48-.01-2.413-.025-1.827.043-1.977.426-.934.103.28.388.987.633 1.57.245.584.572 1.371.727 1.75.269.66.297.69.677.722.218.018.397.013.397-.015 0-.092-.534-1.427-1.173-2.935-.358-.846-.659-1.625-.667-1.731-.01-.137.109-.237.408-.341.516-.18.956-.692 1.107-1.289.194-.768.14-1.995-.113-2.584-.123-.288-.258-.524-.298-.524-.04 0-.188-.107-.329-.238-.234-.22-.357-.239-1.478-.239h-1.222l-.025 4.825c-.015 2.654-.003 4.885.022 4.958.028.076.231.133.476.133h.428zm.039-5.144c-.026-.072-.037-.848-.023-1.723l.025-1.59.303-.035c.333-.038.866.14 1.155.387.153.13.186.338.186 1.186 0 1.19-.117 1.619-.487 1.787-.357.163-1.098.155-1.158-.012zm13.628 2.784v-3.075h.37c.353 0 .372-.018.372-.365 0-.333-.029-.367-.345-.397l-.344-.034-.031-.88-.03-.882-.394.033-.393.033-.031.874-.031.875h-.314c-.287 0-.314.032-.314.364 0 .319.037.369.292.398l.292.034.026 2.916c.015 1.604.05 2.976.076 3.049.028.073.218.132.424.132h.375zm4.013 2.89c.293-.248.653-1.203.653-1.734v-.426l-.398.033c-.396.032-.398.034-.398.514 0 .82-.555 1.355-1.102 1.062-.405-.216-.586-.776-.672-2.074-.025-.36.005-.426.184-.435.116-.005.725-.017 1.352-.026l1.14-.015-.005-.77c-.008-1.15-.35-2.222-.822-2.57-.207-.154-.453-.213-.886-.213-.74 0-.95.166-1.404 1.113-.326.681-.33.71-.32 2.28.012 1.976.247 2.753.994 3.267.363.249 1.387.245 1.684-.005zm-1.998-3.862c0-.068.052-.426.117-.796.184-1.062.878-1.634 1.333-1.101.211.246.56 1.32.563 1.73l.001.29h-1.007c-.698 0-1.007-.037-1.007-.123zm-2.973-7.697c.202-.102.464-.353.583-.557.206-.354.217-.567.244-4.64l.028-4.268h-.437c-.34 0-.424.035-.377.156.088.23-.13.313-.336.129-.307-.276-.935-.335-1.266-.12-.79.511-1.015 1.233-1.026 3.282-.007 1.277.026 1.588.236 2.227.28.852.555 1.116 1.246 1.194.355.04.528 0 .782-.181l.326-.233v.796c0 .93-.103 1.264-.468 1.503-.557.365-1.122-.04-1.122-.804 0-.297-.023-.314-.44-.314h-.438l.064.544c.035.299.14.66.233.8.417.638 1.421.862 2.168.486zm-1.19-3.5c-.488-.512-.543-.793-.518-2.67.017-1.348.061-1.823.194-2.103.303-.638.905-.684 1.26-.097.175.29.21.588.24 2.112.038 1.914-.104 2.725-.515 2.945-.287.154-.354.135-.66-.187zm-13.891.752c.616-.46.66-.694.691-3.733.015-1.53 0-2.831-.037-2.89-.037-.06-.23-.094-.427-.075l-.36.034-.01 2.772c-.01 2.684-.018 2.781-.246 3.101-.246.346-.524.412-.988.236-.448-.17-.533-.688-.584-3.537l-.047-2.625h-.617v2.808c0 2.337.029 2.88.171 3.236.17.426.54.772.943.883.407.113 1.232-.002 1.511-.21zm21.946.136c.252-.047.566-.426.836-1.01.242-.522.282-.774.333-2.085.052-1.348.034-1.57-.186-2.313-.203-.683-.316-.883-.67-1.186-.234-.2-.525-.37-.645-.377-1.244-.066-1.76.59-1.979 2.52-.161 1.419-.055 2.75.281 3.509.426.962.858 1.163 2.03.942zm-.992-.8c-.266-.163-.358-.315-.45-.748-.149-.69-.151-2.495-.006-3.335.134-.77.355-1.094.807-1.184.304-.06.362-.027.62.365.249.375.296.58.359 1.576.125 1.971-.284 3.533-.926 3.53-.039 0-.221-.093-.405-.205zm-25.537.52c.603-.373.823-1.002.834-2.391.01-1.112-.005-1.197-.282-1.616-.177-.267-.447-.507-.681-.605l-.389-.162.373-.343c.226-.208.466-.592.612-.978.206-.546.23-.758.173-1.485-.08-1.002-.393-1.734-.833-1.943-.179-.085-.759-.147-1.484-.159l-1.19-.02-.028 5.027-.028 5.027 1.28-.064c1.044-.053 1.346-.106 1.643-.29zm-1.966-2.425V12.53h.398c.566 0 1.107.305 1.32.743.24.494.254 1.957.025 2.533-.183.458-.424.595-1.238.708l-.504.07v-2.027zm.052-2.892c-.032-.083-.044-.959-.028-1.947l.029-1.797.469.034c.614.045.934.267 1.066.742.256.922.008 2.649-.412 2.874-.373.2-1.061.257-1.124.094zm8.962 3.53c0-2.936.183-3.705.912-3.832.243-.042.315-.117.342-.353.02-.165.01-.364-.02-.442-.094-.245-.493-.047-.78.386-.318.482-.477.524-.445.118.046-.584.008-.663-.327-.663h-.318v6.893h.636zm2.704-3.169V6.751l-.424-.032-.424-.03.017 4.908c.01 2.7.02 5.089.027 5.308.01.387.02.397.407.397h.398zm1.906 4.932c.032-.19.046-1.729.03-3.42l-.027-3.076-.398-.033-.397-.032v6.905h.366c.33 0 .372-.033.426-.344zm1.932-2.335c.02-2.487.033-2.649.254-3.04.253-.452.513-.575.898-.429.526.2.577.507.577 3.439v2.71h.367c.333 0 .372-.034.434-.362.037-.198.05-1.499.027-2.89-.043-2.72-.113-3.108-.628-3.469-.386-.27-1.078-.223-1.462.1-.336.283-.567.264-.517-.042.023-.135-.065-.186-.368-.21l-.398-.033v6.918l.398-.033.398-.032zm9.155 2.494l.027-3.05.025-2.862.344-.034c.315-.03.345-.065.345-.39 0-.327-.03-.361-.345-.392l-.344-.033-.031-.875-.03-.875h-.726l-.03.875-.032.875-.344.033c-.315.03-.345.065-.345.391s.03.361.345.391l.344.034.028 3.048.028 3.05h.37c.28 0 .37-.046.372-.186zm6.786-2.44c.002-2.52.01-2.64.239-3.038.294-.513.496-.645.855-.554.55.138.601.428.601 3.455v2.762h.849v-2.85c0-3.021-.037-3.284-.526-3.804-.323-.343-1.065-.33-1.532.026-.364.277-.488.258-.488-.077 0-.167-.066-.195-.397-.168l-.398.033-.02 3.288c-.012 1.808 0 3.347.023 3.42.025.073.212.132.418.132h.374l.002-2.624zM22.506 8.926c.046 0 .146-.15.222-.334.13-.313.12-.35-.152-.583-.16-.137-.359-.25-.443-.25-.215 0-.578.387-.578.616 0 .36.408.695.725.595a.944.944 0 01.226-.044z"/>
    <path class="FW_svg__FW_svg__FW_svg__FW_svg__color-main FW_svg__FW_svg__FW_svg__FW_svg__color-red" fill="#c72514" d="M.352 40.452L0 40.421V.11L13.235.054C20.515.025 31.917 0 38.573 0h12.103l.055 4.66c.03 2.563.055 11.679.055 20.257v15.596l-25.04-.014c-13.773-.008-25.2-.03-25.394-.047zm38.394-3.667h7.07v-33l-1.63.054c-.895.03-10.207.055-20.691.055H4.432l.019 12.655c.01 6.96.043 14.386.072 16.5l.054 3.846 13.55-.055c7.451-.03 16.73-.055 20.619-.055z"/>
</svg>
