<svg xmlns="http://www.w3.org/2000/svg" viewBox="0 0 50.78072 24.968266" height="94.368249" width="50.78072mm">
    <path class="color-pink" d="M25.981008 24.75395c-.17822-.11771-.37264-.24698-.43206-.28741-2.49694-1.69942-3.46195-2.30235-4.14049-2.58698-.31685-.13285-.67329-.28335-.79211-.33431-.11873-.051-.41045-.14612-.64808-.2114-.23763-.0653-.49686-.14476-.57607-.17665-.0793-.0318-.22503-.0903-.32404-.12996-.099-.0396-.26104-.10648-.36003-.1485-.32005-.1359-1.097777-.36379-1.87224-.54855-.824983-.19682-2.861687-.54641-3.183397-.54641-.139822 0-.203949-.0384-.210668-.12604-.01939-.25321.01735-1.28334.05222-1.46488l.03589-.18672-1.281395-.0487c-.704766-.0267-2.123897-.0679-3.153624-.0915-1.244188-.0286-1.900992-.0704-1.95797-.12469-.04715-.0449-.150641-.32553-.229975-.62341-.07932-.29788-.165558-.59717-.19161-.66509-.0909-.23688.276413-.2858 2.327816-.31003 1.080478-.0136 2.036395-.0429 2.12426-.067.423359-.116.987855-.36666.987855-.43875 0-.048-.212086-.0995-.522065-.12689-.287135-.0254-.991922-.0929-1.566192-.15003-3.197632-.31782-4.062711-.40722-4.076239-.42132-.0082-.009-.357039-.78435-.775091-1.72388-.418052-.93952-.826087-1.84483-.906745-2.01176-.08066-.16687-.146643-.34187-.146643-.38873 0-.056.228015-.10138.666081-.13268.366345-.026 1.038727-.0784 1.494184-.11635.455455-.0379 1.079233-.0883 1.386169-.11209.511379-.0395.557986-.0561.557086-.19892-.0027-.43649-.03189-.45542-.778757-.5061-.383042-.026-1.198703-.0956-1.812577-.15462-.613876-.059-1.331952-.12791-1.595722-.15326l-.479585-.0458-.234779-.62019c-.129122-.3411-.261657-.65095-.29451-.68858-.03285-.0376-.05974-.13642-.05974-.21963 0-.0832-.02888-.18199-.06418-.21961-.0353-.0376-.230819-.48967-.434494-1.00453l-.370321-.93612.159792-.1303c.137287-.11193.282124-.12808 1.028566-.11465.477831.009 1.128014.0405 1.444854.0708 2.624034.25102 4.369918.2465 5.38266-.0136.31984-.0822.336251-.14799.07904-.31647-.14023-.0919-.384241-.13234-.918112-.15241-.399916-.0153-1.06736-.059-1.483211-.0978-.415851-.0388-1.22595-.0886-1.800222-.11073-2.526528-.0975-3.526559-.23194-4.29125-.57683-.399067-.18-.37772-.14492-.742478-1.22182-.12072-.35645-.368131-1.06934-.549792-1.58421C.036178.28213-.033965.04945.012442.00305c.0357-.0357 1.042529.24647 2.097615.5879.277234.0896.828101.2521 1.224149.36086.39605.1087.930716.25619 1.188146.3276.257432.0714.694886.18003.972119.24139.277235.0614.925315.20898 1.440177.32805 1.274413.29473 3.56666.76205 5.004614 1.02027.65348.11737 1.236753.22813 1.296152.24616.05936.018.594073.11583 1.188146.21735.594073.10155 1.403151.24984 1.797952.32962.394784.0798 1.156286.22395 1.692202.3204 1.202874.21648 1.809694.33545 2.918634.57221.47526.10155 1.34653.28218 1.93616.40157 1.47713.29912 1.76244.46667 2.23569 1.3129.14764.26394.30458.50227.3488.52962.0442.0274.30197.0595.57271.0714.27075.0119.54874.0519.61775.089.10972.0587.14646.36292.29368 2.4315.0925 1.3004.18886 2.49012.21409 2.64383l.0459.27945.46807-.5247c.25743-.28859.5139-.5713.56995-.62825.11754-.11941.0653-.38482-.29383-1.49422-.11533-.35645-.2546-.79391-.30933-.97212-.30939-1.00769-.32842-2.23171-.0418-2.6953.18274-.29566.71746-.70486 1.12065-.85757.37466-.14186 1.53916-.45133 2.08687-.55449.23763-.0447.83709-.17447 1.33217-.28827.49505-.1138 1.17554-.2436 1.51218-.28849.55982-.0747 1.53088-.26558 2.16027-.42472.13863-.035.39784-.0852.57605-.11159.17824-.0264.42126-.076.54007-.11056.20269-.0588.57703-.14203 1.74621-.38788.26734-.0563.71289-.13965.99013-.18537 1.9466-.32124 4.91384-.96928 6.01273-1.31321.76622-.2398.7226-.22791 1.11615-.30408.15836-.0306.53105-.13217.82809-.22547 1.21577-.38203 3.15421-.79302 3.25675-.69049.0347.0347-.007.24571-.0941.47902-.0857.22935-.29356.88979-.46165 1.46767l-.30565 1.05071-.74767.16516c-.41122.0908-1.13653.24913-1.61178.35172-.47526.10257-.99373.21766-1.15216.25571-.15836.0381-.49866.11329-.75609.16738-.6176.12944-1.31439.28633-1.8806.42324-.96251.23276-3.45279.7645-3.58036.7645-.14067 0-.37175.21073-.37175.3389 0 .26898.34273.2527 4.8246-.22914 3.44591-.37046 4.40554-.44768 4.44023-.35729.0173.0452-.0325.27326-.11057.50688-.0781.23359-.26105.81358-.40652 1.28884-.14543.47526-.32186 1.02613-.39198 1.22416-.0701.19801-.14934.48041-.17595.62754-.0267.14714-.0733.28291-.10376.30173-.0304.0189-.71778.0684-1.52739.11005-.80961.0417-1.80134.0965-2.20384.12179l-.73184.0458-.16057-.31545c-.23256-.45679-.80648-1.28469-1.08618-1.56687-.30235-.30506-1.02656-.80083-1.16984-.80083-.0592 0-.12621-.0299-.14884-.0663-.0226-.0366-.2594-.14152-.5263-.2335-.70234-.24184-2.05635-.24191-2.80756-.00015-.28713.0924-.52205.19009-.52205.21705 0 .027-.12146.10189-.27004.16636-.14849.0646-.36081.20182-.47177.30502-.1109.10325-.23038.1876-.26541.1876-.15785 0-.94573 1.09248-1.09976 1.52484l-.16227.45541-1.00529.0201c-.91616.0184-1.02.034-1.17109.17587-.0912.0857-.15615.18449-.14441.21965.0264.0791.63439.28173 1.34964.44971.29704.0697.55044.1354.56311.14577.0136.0102.0388.28948.0578.62005.0427.73653.16414 1.22603.50814 2.04783.2299.5492.34161.7096.85485 1.22749.48587.49026.70933.65405 1.26226.92517 1.06298.52124 2.04313.64777 3.27055.42225.56851-.10444.79396-.10852 1.83623-.0337.65347.0469 1.49597.13642 1.87223.19883.7186.11924 1.57274.41605 1.63053.56671.0187.0488-.0276.27882-.10308.51113-.13098.40336-.14986.42445-.41825.46815-.26299.0429-1.24902.0815-4.49362.17603-1.46493.0427-1.80021.076-1.80021.17914 0 .0378-.0435.0687-.0968.0687-.0532 0-.15547.0648-.22707.1439-.11924.13183-.12468.22559-.0651 1.12239.0429.64442.0405.99807-.007 1.03578-.0396.0315-.50945.12707-1.0441.21237-.97245.15513-2.45248.49487-2.52032.57846-.0301.0371-.57354.18667-1.18814.32712-.0793.018-.62197.2256-1.20615.4611-.58417.23551-1.06213.41561-1.06213.40021 0-.0556-1.14521.45654-1.3552.60605-.11839.0842-.24802.15326-.28812.15326s-.0837.0262-.097.0582c-.0347.0842-.68386.51786-.77508.51786-.0424 0-.077.0323-.077.072 0 .0396-.0339.0719-.0754.0719-.0413 0-.32492.1684-.63006.37422-.62017.41831-.55851.36985-1.08708.8542-.21352.19567-.45656.35563-.54006.35546-.0835-.00015-.29766-.0966-.47587-.21422zm.18413-4.07715l.22012-.1041-.024-.62847c-.0136-.34565-.0879-2.66993-.16619-5.16504-.18672-5.95101-.22597-7.052-.25254-7.08116-.0119-.0136-.13591-.05-.27477-.0813-.30791-.0694-.20993-.16789-1.77145 1.77978-.64297.80199-1.19035 1.45774-1.2164 1.45719-.15326-.003-.37137-.0988-.37137-.16278 0-.0412-.12401-.23998-.27574-.44166-.15173-.20167-.57822-.80415-.94791-1.33881-.36971-.53467-.6993-.98292-.7324-.99612-.0332-.0136-.0602-.0556-.0602-.0942 0-.0631-.25214-.35595-.80226-.93176-.10461-.10954-.20181-.22645-.21603-.25993-.0136-.0335-.11703-.13131-.22846-.21755-.37423-.28938-.40953-.19885-.40883 1.04914.0248.84961.0548 1.91459.0492 1.9675l.0505 1.59573c.0279.87764.0796 2.67787.11532 4.0005.0356 1.32263.0907 2.42832.12265 2.45712.0318.0288.39049.0713.79695.0946l.73903.0422.18547-.28027c.25401-.38381.28746-.89792.13829-2.12611-.17302-1.4248-.0737-2.14451.26708-1.93395.0787.0486.77148 1.48198 1.06685 2.20735.14832.36419.19248.4147.34654.39606.12877-.0153.2001-.0896.2634-.2734.0478-.13863.15615-.40417.24081-.59013.0847-.18595.15394-.36729.15394-.40298 0-.0357.0442-.15904.0982-.274.0539-.11498.1908-.4278.30405-.69514.11329-.26733.24583-.48606.29463-.48606.12077 0 .14662.22108.23989 2.05225.2255 4.42858.28305 5.31711.34865 5.3827.0393.0393.28344.0934.54262.12009.25916.0269.49569.0733.52557.10308.064.064.33022.005.63888-.1405zm7.85856-3.87895c.58227-.49839.65613-1.10874.19053-1.57436-.20769-.20767-.23524-.27209-.17843-.41694.0369-.0942.10784-.30804.15751-.47511l.0903-.30378-.41291-.47031c-.2271-.25868-.44048-.47032-.47414-.47032-.0337 0-.14969.0337-.25797.0748-.1206.0459-.21298.0486-.23872.007-.0231-.0371-.35751-.40611-.74315-.82008-1.24999-1.3418-1.19257-1.23739-.90731-1.64951.0728-.10512.13234-.22824.13234-.2736 0-.0454.0485-.17617.10767-.29068.0592-.11448.14084-.44254.18152-.72893.10444-.73578-.0288-1.16903-.50673-1.64954l-.35673-.35852h-1.49678l-.30589.40516c-.55121.73007-.64228 1.71465-.23132 2.50063.20872.39914.24542.27779-.35384 1.16996-1.03034 1.53398-1.2175 2.4659-.74333 3.7012.40111 1.04501 1.52426 1.72821 2.84105 1.72821.52488 0 1.31788-.19631 1.44037-.35654.0966-.12656.59649-.37621.6374-.31848.0257.0362.14305.10835.26073.16023.11771.0519.32276.22132.45566.37657.13285.1553.28187.28228.33106.28228.0492 0 .22069-.11227.38111-.24965zm-4.55473-1.99681l-.26852-.29023.005-.65789c.003-.36184.009-.6959.0102-.74237.009-.1439.37149-.52758.4984-.52758.0662 0 .16499.073.21956.16211.0546.0891.23994.34023.41191.55806.17196.21783.47679.60455.67743.85938.56405.71644.49099.81402-.66545.88875l-.62051.0401-.26853-.29024zm.57415-5.63833c-.0612-.24404.009-.39621.18161-.39621.2047 0 .32124.2445.20516.43038-.12672.20286-.33183.18473-.38677-.0342zm-14.838621 6.37862c.508717-.0742.951656-.16262.984315-.19643.03266-.0339.0825-.85868.110905-1.8329l.05154-1.77128-.171715-.0459c-.226131-.0606-1.721612-.0517-1.877202.0119-.130297.0526-.133188.04.249859 1.05326.129956.34353.05154.57492-.247019.7293-.252768.13064-.432954.12911-.964549-.008-.618792-.16024-.967049-.34702-1.370084-.73504-.679681-.65434-1.002307-1.2316-1.078991-1.93059-.04446-.40528-.02933-.47329.211911-.95232.142884-.28373.259792-.54747.259792-.58606 0-.0386.120243-.23197.267196-.42973.231485-.31152.337884-.38534.796123-.55248.405421-.14782.607856-.18356.866952-.15292.185902.0219.662045.074 1.058088.11533.396059.0415.85572.0913 1.021482.11073.293677.0345.308373.0259.575106-.33749.320842-.43707.527683-.80718.527683-.94421 0-.16227-.647093-.51099-1.296159-.69841-.517953-.14952-.761569-.17634-1.584205-.17427-.771143.002-1.018931.0276-1.198581.12401-.124564.0668-.365558.14373-.535555.17093-.275509.044-.677347.24232-1.218218.6011-.09901.0657-.23428.13948-.300597.16414-.878492.72939-1.19976 2.08393-1.318428 3.22188-.06658.80331.286455 2.08341.774049 2.80672.412168.61141 1.536303 1.55779 2.010391 1.69249.09172.026.409777.13881.706813.25051.297037.11176.71829.23868.93612.28214.217829.0436.46085.0919.540066.10751.240861.0476.258313.0463 1.212946-.0929zm-.756807-5.0563c-.02296-.16244-.06396-.17437-.888209-.25833-.475258-.0485-1.107129-.11941-1.404165-.15768-.297037-.0383-.562078-.0473-.588979-.0201-.02691.0274-.06945.13284-.09454.23467-.04082.1655-.01667.19411.228932.27147.308064.0971 2.617499.22352 2.710969.1485.033-.0265.04933-.12485.03606-.21858zm29.508638 4.10801c-.73085-.10427-1.37968-.20919-1.44185-.23304-.15139-.058-.0942-.20055.30878-.76892.18252-.25743.37036-.54906.41741-.64808.12281-.25855.29262-.91324.34539-1.33215.025-.19803.0777-.52207.11737-.7201.0396-.19801.0849-.42484.10069-.50405.0279-.13949.0828-.14374 1.71558-.13557.92776.005 1.72306.0309 1.76735.0582.15088.0932.19225-.0597-.83959 3.10165l-.42308 1.29616-.36966.0378c-.21978.0224-.90835-.0391-1.69846-.1519zm-5.37377-1.28448c-.76109-.11804-1.48897-.69863-1.83969-1.4675-.16891-.37023-.18776-.48924-.16551-1.04412.0194-.48407.0636-.69986.19458-.95031.27835-.53199.67446-.91976 1.22313-1.19735.3441-.17411.48963-.20493.94938-.20109.77555.007 1.23451.18638 1.72962.678.57523.57116.73958.95936.74698 1.76456.005.56657-.0187.6979-.18944 1.04414-.10751.21781-.25328.46089-.32404.54014-.55898.62601-1.4962.96203-2.32492.83353z" fill="#c52b64"/>
</svg>
