<?xml version="1.0" encoding="UTF-8" standalone="no"?>
<svg
   xmlns="http://www.w3.org/2000/svg"
   id="svg301"
   version="1.1"
   viewBox="0 0 50.78072 24.968266"
   height="24.968266mm"
   width="50.78072mm">
  <g
     transform="translate(-81.954892,-122.74208)"
     id="layer1">
    <path
       id="path1416"
       d="m 107.9359,147.49603 c -0.17822,-0.11771 -0.37264,-0.24698 -0.43206,-0.28741 -2.49694,-1.69942 -3.46195,-2.30235 -4.14049,-2.58698 -0.31685,-0.13285 -0.67329,-0.28335 -0.79211,-0.33431 -0.11873,-0.051 -0.41045,-0.14612 -0.64808,-0.2114 -0.23763,-0.0653 -0.49686,-0.14476 -0.57607,-0.17665 -0.0793,-0.0318 -0.22503,-0.0903 -0.32404,-0.12996 -0.099,-0.0396 -0.26104,-0.10648 -0.36003,-0.1485 -0.32005,-0.1359 -1.097777,-0.36379 -1.87224,-0.54855 -0.824983,-0.19682 -2.861687,-0.54641 -3.183397,-0.54641 -0.139822,0 -0.203949,-0.0384 -0.210668,-0.12604 -0.01939,-0.25321 0.01735,-1.28334 0.05222,-1.46488 l 0.03589,-0.18672 -1.281395,-0.0487 c -0.704766,-0.0267 -2.123897,-0.0679 -3.153624,-0.0915 -1.244188,-0.0286 -1.900992,-0.0704 -1.95797,-0.12469 -0.04715,-0.0449 -0.150641,-0.32553 -0.229975,-0.62341 -0.07932,-0.29788 -0.165558,-0.59717 -0.19161,-0.66509 -0.0909,-0.23688 0.276413,-0.2858 2.327816,-0.31003 1.080478,-0.0136 2.036395,-0.0429 2.12426,-0.067 0.423359,-0.116 0.987855,-0.36666 0.987855,-0.43875 0,-0.048 -0.212086,-0.0995 -0.522065,-0.12689 -0.287135,-0.0254 -0.991922,-0.0929 -1.566192,-0.15003 -3.197632,-0.31782 -4.062711,-0.40722 -4.076239,-0.42132 -0.0082,-0.009 -0.357039,-0.78435 -0.775091,-1.72388 -0.418052,-0.93952 -0.826087,-1.84483 -0.906745,-2.01176 -0.08066,-0.16687 -0.146643,-0.34187 -0.146643,-0.38873 0,-0.056 0.228015,-0.10138 0.666081,-0.13268 0.366345,-0.026 1.038727,-0.0784 1.494184,-0.11635 0.455455,-0.0379 1.079233,-0.0883 1.386169,-0.11209 0.511379,-0.0395 0.557986,-0.0561 0.557086,-0.19892 -0.0027,-0.43649 -0.03189,-0.45542 -0.778757,-0.5061 -0.383042,-0.026 -1.198703,-0.0956 -1.812577,-0.15462 -0.613876,-0.059 -1.331952,-0.12791 -1.595722,-0.15326 l -0.479585,-0.0458 -0.234779,-0.62019 c -0.129122,-0.3411 -0.261657,-0.65095 -0.29451,-0.68858 -0.03285,-0.0376 -0.05974,-0.13642 -0.05974,-0.21963 0,-0.0832 -0.02888,-0.18199 -0.06418,-0.21961 -0.0353,-0.0376 -0.230819,-0.48967 -0.434494,-1.00453 l -0.370321,-0.93612 0.159792,-0.1303 c 0.137287,-0.11193 0.282124,-0.12808 1.028566,-0.11465 0.477831,0.009 1.128014,0.0405 1.444854,0.0708 2.624034,0.25102 4.369918,0.2465 5.38266,-0.0136 0.31984,-0.0822 0.336251,-0.14799 0.07904,-0.31647 -0.14023,-0.0919 -0.384241,-0.13234 -0.918112,-0.15241 -0.399916,-0.0153 -1.06736,-0.059 -1.483211,-0.0978 -0.415851,-0.0388 -1.22595,-0.0886 -1.800222,-0.11073 -2.526528,-0.0975 -3.526559,-0.23194 -4.29125,-0.57683 -0.399067,-0.18 -0.37772,-0.14492 -0.742478,-1.22182 -0.12072,-0.35645 -0.368131,-1.06934 -0.549792,-1.58421 -0.414839,-1.17573 -0.484982,-1.40841 -0.438575,-1.45481 0.0357,-0.0357 1.042529,0.24647 2.097615,0.5879 0.277234,0.0896 0.828101,0.2521 1.224149,0.36086 0.39605,0.1087 0.930716,0.25619 1.188146,0.3276 0.257432,0.0714 0.694886,0.18003 0.972119,0.24139 0.277235,0.0614 0.925315,0.20898 1.440177,0.32805 1.274413,0.29473 3.56666,0.76205 5.004614,1.02027 0.65348,0.11737 1.236753,0.22813 1.296152,0.24616 0.05936,0.018 0.594073,0.11583 1.188146,0.21735 0.594073,0.10155 1.403151,0.24984 1.797952,0.32962 0.394784,0.0798 1.156286,0.22395 1.692202,0.3204 1.202874,0.21648 1.809694,0.33545 2.918634,0.57221 0.47526,0.10155 1.34653,0.28218 1.93616,0.40157 1.47713,0.29912 1.76244,0.46667 2.23569,1.3129 0.14764,0.26394 0.30458,0.50227 0.3488,0.52962 0.0442,0.0274 0.30197,0.0595 0.57271,0.0714 0.27075,0.0119 0.54874,0.0519 0.61775,0.089 0.10972,0.0587 0.14646,0.36292 0.29368,2.4315 0.0925,1.3004 0.18886,2.49012 0.21409,2.64383 l 0.0459,0.27945 0.46807,-0.5247 c 0.25743,-0.28859 0.5139,-0.5713 0.56995,-0.62825 0.11754,-0.11941 0.0653,-0.38482 -0.29383,-1.49422 -0.11533,-0.35645 -0.2546,-0.79391 -0.30933,-0.97212 -0.30939,-1.00769 -0.32842,-2.23171 -0.0418,-2.6953 0.18274,-0.29566 0.71746,-0.70486 1.12065,-0.85757 0.37466,-0.14186 1.53916,-0.45133 2.08687,-0.55449 0.23763,-0.0447 0.83709,-0.17447 1.33217,-0.28827 0.49505,-0.1138 1.17554,-0.2436 1.51218,-0.28849 0.55982,-0.0747 1.53088,-0.26558 2.16027,-0.42472 0.13863,-0.035 0.39784,-0.0852 0.57605,-0.11159 0.17824,-0.0264 0.42126,-0.076 0.54007,-0.11056 0.20269,-0.0588 0.57703,-0.14203 1.74621,-0.38788 0.26734,-0.0563 0.71289,-0.13965 0.99013,-0.18537 1.9466,-0.32124 4.91384,-0.96928 6.01273,-1.31321 0.76622,-0.2398 0.7226,-0.22791 1.11615,-0.30408 0.15836,-0.0306 0.53105,-0.13217 0.82809,-0.22547 1.21577,-0.38203 3.15421,-0.79302 3.25675,-0.69049 0.0347,0.0347 -0.007,0.24571 -0.0941,0.47902 -0.0857,0.22935 -0.29356,0.88979 -0.46165,1.46767 l -0.30565,1.05071 -0.74767,0.16516 c -0.41122,0.0908 -1.13653,0.24913 -1.61178,0.35172 -0.47526,0.10257 -0.99373,0.21766 -1.15216,0.25571 -0.15836,0.0381 -0.49866,0.11329 -0.75609,0.16738 -0.6176,0.12944 -1.31439,0.28633 -1.8806,0.42324 -0.96251,0.23276 -3.45279,0.7645 -3.58036,0.7645 -0.14067,0 -0.37175,0.21073 -0.37175,0.3389 0,0.26898 0.34273,0.2527 4.8246,-0.22914 3.44591,-0.37046 4.40554,-0.44768 4.44023,-0.35729 0.0173,0.0452 -0.0325,0.27326 -0.11057,0.50688 -0.0781,0.23359 -0.26105,0.81358 -0.40652,1.28884 -0.14543,0.47526 -0.32186,1.02613 -0.39198,1.22416 -0.0701,0.19801 -0.14934,0.48041 -0.17595,0.62754 -0.0267,0.14714 -0.0733,0.28291 -0.10376,0.30173 -0.0304,0.0189 -0.71778,0.0684 -1.52739,0.11005 -0.80961,0.0417 -1.80134,0.0965 -2.20384,0.12179 l -0.73184,0.0458 -0.16057,-0.31545 c -0.23256,-0.45679 -0.80648,-1.28469 -1.08618,-1.56687 -0.30235,-0.30506 -1.02656,-0.80083 -1.16984,-0.80083 -0.0592,0 -0.12621,-0.0299 -0.14884,-0.0663 -0.0226,-0.0366 -0.2594,-0.14152 -0.5263,-0.2335 -0.70234,-0.24184 -2.05635,-0.24191 -2.80756,-1.5e-4 -0.28713,0.0924 -0.52205,0.19009 -0.52205,0.21705 0,0.027 -0.12146,0.10189 -0.27004,0.16636 -0.14849,0.0646 -0.36081,0.20182 -0.47177,0.30502 -0.1109,0.10325 -0.23038,0.1876 -0.26541,0.1876 -0.15785,0 -0.94573,1.09248 -1.09976,1.52484 l -0.16227,0.45541 -1.00529,0.0201 c -0.91616,0.0184 -1.02,0.034 -1.17109,0.17587 -0.0912,0.0857 -0.15615,0.18449 -0.14441,0.21965 0.0264,0.0791 0.63439,0.28173 1.34964,0.44971 0.29704,0.0697 0.55044,0.1354 0.56311,0.14577 0.0136,0.0102 0.0388,0.28948 0.0578,0.62005 0.0427,0.73653 0.16414,1.22603 0.50814,2.04783 0.2299,0.5492 0.34161,0.7096 0.85485,1.22749 0.48587,0.49026 0.70933,0.65405 1.26226,0.92517 1.06298,0.52124 2.04313,0.64777 3.27055,0.42225 0.56851,-0.10444 0.79396,-0.10852 1.83623,-0.0337 0.65347,0.0469 1.49597,0.13642 1.87223,0.19883 0.7186,0.11924 1.57274,0.41605 1.63053,0.56671 0.0187,0.0488 -0.0276,0.27882 -0.10308,0.51113 -0.13098,0.40336 -0.14986,0.42445 -0.41825,0.46815 -0.26299,0.0429 -1.24902,0.0815 -4.49362,0.17603 -1.46493,0.0427 -1.80021,0.076 -1.80021,0.17914 0,0.0378 -0.0435,0.0687 -0.0968,0.0687 -0.0532,0 -0.15547,0.0648 -0.22707,0.1439 -0.11924,0.13183 -0.12468,0.22559 -0.0651,1.12239 0.0429,0.64442 0.0405,0.99807 -0.007,1.03578 -0.0396,0.0315 -0.50945,0.12707 -1.0441,0.21237 -0.97245,0.15513 -2.45248,0.49487 -2.52032,0.57846 -0.0301,0.0371 -0.57354,0.18667 -1.18814,0.32712 -0.0793,0.018 -0.62197,0.2256 -1.20615,0.4611 -0.58417,0.23551 -1.06213,0.41561 -1.06213,0.40021 0,-0.0556 -1.14521,0.45654 -1.3552,0.60605 -0.11839,0.0842 -0.24802,0.15326 -0.28812,0.15326 -0.0401,0 -0.0837,0.0262 -0.097,0.0582 -0.0347,0.0842 -0.68386,0.51786 -0.77508,0.51786 -0.0424,0 -0.077,0.0323 -0.077,0.072 0,0.0396 -0.0339,0.0719 -0.0754,0.0719 -0.0413,0 -0.32492,0.1684 -0.63006,0.37422 -0.62017,0.41831 -0.55851,0.36985 -1.08708,0.8542 -0.21352,0.19567 -0.45656,0.35563 -0.54006,0.35546 -0.0835,-1.5e-4 -0.29766,-0.0966 -0.47587,-0.21422 z m 0.18413,-4.07715 0.22012,-0.1041 -0.024,-0.62847 c -0.0136,-0.34565 -0.0879,-2.66993 -0.16619,-5.16504 -0.18672,-5.95101 -0.22597,-7.052 -0.25254,-7.08116 -0.0119,-0.0136 -0.13591,-0.05 -0.27477,-0.0813 -0.30791,-0.0694 -0.20993,-0.16789 -1.77145,1.77978 -0.64297,0.80199 -1.19035,1.45774 -1.2164,1.45719 -0.15326,-0.003 -0.37137,-0.0988 -0.37137,-0.16278 0,-0.0412 -0.12401,-0.23998 -0.27574,-0.44166 -0.15173,-0.20167 -0.57822,-0.80415 -0.94791,-1.33881 -0.36971,-0.53467 -0.6993,-0.98292 -0.7324,-0.99612 -0.0332,-0.0136 -0.0602,-0.0556 -0.0602,-0.0942 0,-0.0631 -0.25214,-0.35595 -0.80226,-0.93176 -0.10461,-0.10954 -0.20181,-0.22645 -0.21603,-0.25993 -0.0136,-0.0335 -0.11703,-0.13131 -0.22846,-0.21755 -0.37423,-0.28938 -0.40953,-0.19885 -0.40883,1.04914 0.0248,0.84961 0.0548,1.91459 0.0492,1.9675 l 0.0505,1.59573 c 0.0279,0.87764 0.0796,2.67787 0.11532,4.0005 0.0356,1.32263 0.0907,2.42832 0.12265,2.45712 0.0318,0.0288 0.39049,0.0713 0.79695,0.0946 l 0.73903,0.0422 0.18547,-0.28027 c 0.25401,-0.38381 0.28746,-0.89792 0.13829,-2.12611 -0.17302,-1.4248 -0.0737,-2.14451 0.26708,-1.93395 0.0787,0.0486 0.77148,1.48198 1.06685,2.20735 0.14832,0.36419 0.19248,0.4147 0.34654,0.39606 0.12877,-0.0153 0.2001,-0.0896 0.2634,-0.2734 0.0478,-0.13863 0.15615,-0.40417 0.24081,-0.59013 0.0847,-0.18595 0.15394,-0.36729 0.15394,-0.40298 0,-0.0357 0.0442,-0.15904 0.0982,-0.274 0.0539,-0.11498 0.1908,-0.4278 0.30405,-0.69514 0.11329,-0.26733 0.24583,-0.48606 0.29463,-0.48606 0.12077,0 0.14662,0.22108 0.23989,2.05225 0.2255,4.42858 0.28305,5.31711 0.34865,5.3827 0.0393,0.0393 0.28344,0.0934 0.54262,0.12009 0.25916,0.0269 0.49569,0.0733 0.52557,0.10308 0.064,0.064 0.33022,0.005 0.63888,-0.1405 z m 7.85856,-3.87895 c 0.58227,-0.49839 0.65613,-1.10874 0.19053,-1.57436 -0.20769,-0.20767 -0.23524,-0.27209 -0.17843,-0.41694 0.0369,-0.0942 0.10784,-0.30804 0.15751,-0.47511 l 0.0903,-0.30378 -0.41291,-0.47031 c -0.2271,-0.25868 -0.44048,-0.47032 -0.47414,-0.47032 -0.0337,0 -0.14969,0.0337 -0.25797,0.0748 -0.1206,0.0459 -0.21298,0.0486 -0.23872,0.007 -0.0231,-0.0371 -0.35751,-0.40611 -0.74315,-0.82008 -1.24999,-1.3418 -1.19257,-1.23739 -0.90731,-1.64951 0.0728,-0.10512 0.13234,-0.22824 0.13234,-0.2736 0,-0.0454 0.0485,-0.17617 0.10767,-0.29068 0.0592,-0.11448 0.14084,-0.44254 0.18152,-0.72893 0.10444,-0.73578 -0.0288,-1.16903 -0.50673,-1.64954 l -0.35673,-0.35852 h -0.74839 -0.74839 l -0.30589,0.40516 c -0.55121,0.73007 -0.64228,1.71465 -0.23132,2.50063 0.20872,0.39914 0.24542,0.27779 -0.35384,1.16996 -1.03034,1.53398 -1.2175,2.4659 -0.74333,3.7012 0.40111,1.04501 1.52426,1.72821 2.84105,1.72821 0.52488,0 1.31788,-0.19631 1.44037,-0.35654 0.0966,-0.12656 0.59649,-0.37621 0.6374,-0.31848 0.0257,0.0362 0.14305,0.10835 0.26073,0.16023 0.11771,0.0519 0.32276,0.22132 0.45566,0.37657 0.13285,0.1553 0.28187,0.28228 0.33106,0.28228 0.0492,0 0.22069,-0.11227 0.38111,-0.24965 z m -4.55473,-1.99681 -0.26852,-0.29023 0.005,-0.65789 c 0.003,-0.36184 0.009,-0.6959 0.0102,-0.74237 0.009,-0.1439 0.37149,-0.52758 0.4984,-0.52758 0.0662,0 0.16499,0.073 0.21956,0.16211 0.0546,0.0891 0.23994,0.34023 0.41191,0.55806 0.17196,0.21783 0.47679,0.60455 0.67743,0.85938 0.56405,0.71644 0.49099,0.81402 -0.66545,0.88875 l -0.62051,0.0401 -0.26853,-0.29024 z m 0.57415,-5.63833 c -0.0612,-0.24404 0.009,-0.39621 0.18161,-0.39621 0.2047,0 0.32124,0.2445 0.20516,0.43038 -0.12672,0.20286 -0.33183,0.18473 -0.38677,-0.0342 z m -14.838621,6.37862 c 0.508717,-0.0742 0.951656,-0.16262 0.984315,-0.19643 0.03266,-0.0339 0.0825,-0.85868 0.110905,-1.8329 l 0.05154,-1.77128 -0.171715,-0.0459 c -0.226131,-0.0606 -1.721612,-0.0517 -1.877202,0.0119 -0.130297,0.0526 -0.133188,0.04 0.249859,1.05326 0.129956,0.34353 0.05154,0.57492 -0.247019,0.7293 -0.252768,0.13064 -0.432954,0.12911 -0.964549,-0.008 -0.618792,-0.16024 -0.967049,-0.34702 -1.370084,-0.73504 -0.679681,-0.65434 -1.002307,-1.2316 -1.078991,-1.93059 -0.04446,-0.40528 -0.02933,-0.47329 0.211911,-0.95232 0.142884,-0.28373 0.259792,-0.54747 0.259792,-0.58606 0,-0.0386 0.120243,-0.23197 0.267196,-0.42973 0.231485,-0.31152 0.337884,-0.38534 0.796123,-0.55248 0.405421,-0.14782 0.607856,-0.18356 0.866952,-0.15292 0.185902,0.0219 0.662045,0.074 1.058088,0.11533 0.396059,0.0415 0.85572,0.0913 1.021482,0.11073 0.293677,0.0345 0.308373,0.0259 0.575106,-0.33749 0.320842,-0.43707 0.527683,-0.80718 0.527683,-0.94421 0,-0.16227 -0.647093,-0.51099 -1.296159,-0.69841 -0.517953,-0.14952 -0.761569,-0.17634 -1.584205,-0.17427 -0.771143,0.002 -1.018931,0.0276 -1.198581,0.12401 -0.124564,0.0668 -0.365558,0.14373 -0.535555,0.17093 -0.275509,0.044 -0.677347,0.24232 -1.218218,0.6011 -0.09901,0.0657 -0.23428,0.13948 -0.300597,0.16414 -0.878492,0.72939 -1.19976,2.08393 -1.318428,3.22188 -0.06658,0.80331 0.286455,2.08341 0.774049,2.80672 0.412168,0.61141 1.536303,1.55779 2.010391,1.69249 0.09172,0.026 0.409777,0.13881 0.706813,0.25051 0.297037,0.11176 0.71829,0.23868 0.93612,0.28214 0.217829,0.0436 0.46085,0.0919 0.540066,0.10751 0.240861,0.0476 0.258313,0.0463 1.212946,-0.0929 z m -0.756807,-5.0563 c -0.02296,-0.16244 -0.06396,-0.17437 -0.888209,-0.25833 -0.475258,-0.0485 -1.107129,-0.11941 -1.404165,-0.15768 -0.297037,-0.0383 -0.562078,-0.0473 -0.588979,-0.0201 -0.02691,0.0274 -0.06945,0.13284 -0.09454,0.23467 -0.04082,0.1655 -0.01667,0.19411 0.228932,0.27147 0.308064,0.0971 2.617499,0.22352 2.710969,0.1485 0.033,-0.0265 0.04933,-0.12485 0.03606,-0.21858 z m 29.508638,4.10801 c -0.73085,-0.10427 -1.37968,-0.20919 -1.44185,-0.23304 -0.15139,-0.058 -0.0942,-0.20055 0.30878,-0.76892 0.18252,-0.25743 0.37036,-0.54906 0.41741,-0.64808 0.12281,-0.25855 0.29262,-0.91324 0.34539,-1.33215 0.025,-0.19803 0.0777,-0.52207 0.11737,-0.7201 0.0396,-0.19801 0.0849,-0.42484 0.10069,-0.50405 0.0279,-0.13949 0.0828,-0.14374 1.71558,-0.13557 0.92776,0.005 1.72306,0.0309 1.76735,0.0582 0.15088,0.0932 0.19225,-0.0597 -0.83959,3.10165 l -0.42308,1.29616 -0.36966,0.0378 c -0.21978,0.0224 -0.90835,-0.0391 -1.69846,-0.1519 z m -5.37377,-1.28448 c -0.76109,-0.11804 -1.48897,-0.69863 -1.83969,-1.4675 -0.16891,-0.37023 -0.18776,-0.48924 -0.16551,-1.04412 0.0194,-0.48407 0.0636,-0.69986 0.19458,-0.95031 0.27835,-0.53199 0.67446,-0.91976 1.22313,-1.19735 0.3441,-0.17411 0.48963,-0.20493 0.94938,-0.20109 0.77555,0.007 1.23451,0.18638 1.72962,0.678 0.57523,0.57116 0.73958,0.95936 0.74698,1.76456 0.005,0.56657 -0.0187,0.6979 -0.18944,1.04414 -0.10751,0.21781 -0.25328,0.46089 -0.32404,0.54014 -0.55898,0.62601 -1.4962,0.96203 -2.32492,0.83353 z"
       style="display:inline;fill:#c52b64;fill-opacity:1;stroke-width:0.07200882" />
  </g>
</svg>
