<svg xmlns="http://www.w3.org/2000/svg" viewBox="0 0 170.1 170.1">
    <path class="color-black" d="M129.1 13.6h1.6v.6l.2.2v.4l.2.2v.3c.1.1.2.1.1.3v.2l.1.1v.4l.2.2v.5l.2.2v.3l.2.2v.3c.1.1.1.1.1.2v.7l.1.1v.8l.1.1v.4l.2.2v.3l.2.2v.1l.4.4h1.3l.2-.2h.7c.1-.1.1-.1.2-.1h1.8l-.2-.2c.1 0 .1 0 .2.1l.3.3h.2l.3.3h.2l.5.5c.1.1.1.2.1.3l.3.3v.2l.3.3v.1l.2.2v.4c.1.1.2.1.1.3v.2l.1.1v1l.1.1v1l.2.2v2.2l.2.2V31l.2.2V33l.1.1c.1.2 0 .3 0 .4v1.3l.1.1V36l.1.1v3l.2.2v1.6l.2.2v1.1l.2.2v.5l.1.1v3.3l.1.1V50l.1.1v1l.2.2v1l.2.2v1l.2.2v3l.1.1v1.1l.1.1v.6l-.1.1v.2c0 .1.1.1.2.2v.3l.2.2v3.5l.2.2v1.8l.1.1v.8l.1.1v.5l.1.1v.5l.2.2v.3l.2.2v.4l.2.2v.3c.2.1.1.4.3.4v1.5l.1.1v.5l.2.2v.4l.2.2v.4l.2.2v.3c.1.1.2.1.1.3v.2l.1.1v.4l.2.2v.4l.2.2v1l.2.2v.5c.1.1.1.1.1.2v.5l.1.1c.1.2 0 .3.1.4l.1.1v.5l.1.1v.4l.2.2v.3l.2.2V79c.1.1.1.1.1.2v.5l.1.1V81l.1.1v.3l.2.2v.3l.2.2v.4l.2.2v.4c.1.1.1.1.1.2v.5l.1.1v.1l.1.1v.3l.2.2v.7l.2.2v.5c.1.1.2.1.2.3 0 .1.1.1.2.3v.4l.1.1c.1.2 0 .4.1.4l.1.1v.3l.2.2v.3l.2.2v.4l.2.2v.8l.1.1v.7l.1.1v.4l.2.2v.5l.2.2v.4l.2.2v.3l.2.2v.3c.1.1.1.1.1.2 0 .2 0 .3.2.4v1l.1.1v.8l.2.2v.4l.2.2v.3c.1.1.1.1.1.2v.5c.1.1.1.1.1.2v.4l.1.1v.3l.2.2v.3l.2.2v.4l.2.2v.8c.1.1.1.1.1.2v.9l.1.1c.1.2 0 .4.1.4l.1.1v.3l.2.2v.3l.2.2v.3l.2.2v.4c.1.1.1.1.1.2v.5l.1.1c.1.2 0 .4.1.6l.1.1v.8l.2.2v.3l.2.2v.5l.2.2v.4c.1.1.1.1.1.2v.5l.1.1c.1.2 0 .3.1.4l.1.1v.3l.2.2v.1l.2.2v1.1l.2.2v.4c.1.1.1.1.1.2v.5l.1.1v.3l.2.2v.4l.2.2v.4l.2.2v.3l.2.2v.4l.1.1v.8l.1.1v.7l.1.1v.4l.2.2v.5l.2.2v.5l.2.2v.4c.1.1.1.1.1.2v.4c0 .1.1.1.1.2s.1.2.2.3v.7l.2.2v.5l.2.2v.4c.1.1.1.1.1.2v.7c.1.1.1.1.1.2 0 .2 0 .3.1.4v.4l.2.2v.7l.2.2v.3l.2.2v.5c.1.1.1.1.1.2v.5l.1.1c.1.2 0 .4.1.6l.1.1v.3l.2.2v.5l.2.2v1l.2.2v.7c.1.1.1.2.2.3 0 .1.1.1.1.1v1.3h-.4l-.2.2h-.4c0 .1-.2.1-.3.2-.1.1-.2.2-.3.1H156l-.1.1h-.3l-.1.1h-1.1l-.2.2h-.5l-.2.2h-.3l-.2.2h-.4c-.1.1-.1.1-.2.1h-.4l-.1.1c-.2.1-.4 0-.6 0l-.1.1h-.7l-.2.2h-.3l-.2.2h-.5l-.1.1h-.2l-.1.1c-.2.1-.4 0-.6.1-.1.1-.1.1-.3.1h-.1l-.3.3v2.1l.1.1v2s-.1.1-.1.2v.7l-.2.2v.3c-.1.1-.2.2-.2.3l-.3.3v.2s-.1.1-.1.2c-.1.1-.2.3-.4.4h-.2l-.4.4h-.2c-.1 0-.1.1-.2.1h-.4l-.1.1h-1.7l-.1.1h-.5s-.1-.1-.2-.1h-1.9c-.1 0-.1.1-.2.2h-.7l-.2.2h-1.3c-.1.1-.1.1-.2.1h-1.8l-.1.1h-2.9l-.1.1h-2.5l-.1.1h-1.2l-.2.2h-1.1l-.2.2h-3.6l-.2.2H122l-.1.1h-1.8l-.1.1c-.2.1-.4 0-.6 0l-.1.1h-.8s-.1-.1-.2-.1l-.2.2h-2.7l-.2.2h-2.6l-.1.1c-.3.1-.4 0-.7 0l-.1.1h-1.3l-.1.1h-3.5l-.2.2h-2.8l-.2.2h-1.1l-.2.2h-.3l-.1.1h-1l-.1.1c-.2.1-.4 0-.6 0l-.1.1h-.4l-.2.2h-.3l-.2.2h-.5l-.2.2h-.8c-.1.1-.1.1-.2.1H97l-.1.1h-.3l-.2.2h-.7l-.2.2h-.4l-.2.2h-.4l-.2.2h-.5c-.1.1-.1.2-.3.1h-.2l-.1.1h-1l-.1.1h-.5l-.2.2h-.3l-.2.2h-.4l-.2.2H90l-.1.1c-.2.1-.4 0-.6.1l-.1.1c-.3.1-.5 0-.7 0l-.1.1H88l-.2.2h-.5l-.2.2h-.5l-.2.2h-.3c-.1.1-.1.1-.2.1h-.4l-.1.1c-.2.1-.4 0-.6 0l.2-2.7h-.7l-.2.2h-.4l-.2.2h-.3c-.1.1-.2.2-.3.2l-.1.1c-.1.1-.3 0-.4 0h-.8l-.1.1h-.4l-.2.2h-.3l-.2.2H80l-.2.2h-.4l-.2.2h-.5c-.1.1-.1.2-.3.1h-.2l-.1.1c-.3.1-.5 0-.7 0l-.1.1h-.7l-.2.2H76l-.2.2h-.3l-.2.2h-.5l-.1.1c-.2.1-.4 0-.6.1l-.1.1-.2.2h-.3l-.2.2h-.4l-.2.2h-.8l-.2.2h-.6c-.1.1-.1.1-.2.1h-.3l-.1.1h-.3l-.2.2h-.4l-.2.2H69l-.2.2H68c-.1.1-.2.2-.3.2l-.1.1c-.3.1-.4 0-.7 0l-.1.1c-.2.1-.4 0-.6 0l-.1.1h-.4l-.2.2h-.4l-.2.2h-.4c-.1.1-.1.1-.2.1h-.5c-.1.1-.1.1-.2.1h-.4l-.1.1h-.3l-.2.2h-.4l-.2.2h-1.1l-.2.2h-.5l-.2.2h-.3c-.1.1-.1.2-.3.1h-.2l-.1.1c-.2.1-.4 0-.6 0l-.1.1H58l-.2.2h-.4l-.2.2h-.4c-.1.1-.1.1-.2.1h-.5l-.1.1c-.3.1-.5 0-.7 0l-.1.1h-.4l-.1.1h-.5l-.2.2-.2.2h-.5c-.1.1-.1.1-.2.1h-.4c-.1.1-.1.1-.3.1h-.2l-.1.1c-.2.1-.4 0-.6 0l-.1.1h-.8l-.2.2H50l-.2.2h-.4c-.1.1-.1.1-.2.1h-.4l-.1.1h-.4l-.1.1h-.7l-.1.1h-.3l-.2.2h-.4l-.2.2h-.6c-.1.1-.1.1-.2.1h-.9l-.1.1h-.3l-.1.1H44l-.2.2h-.5l-.2.2h-1.2l-.2.2h-.2l-.2.2v.1H40v-.4l-.2-.2v-.1l-.2-.2v-.4l-.1-.1c-.1-.3 0-.4 0-.7l-.1-.1v-.3l-.1-.1v-.7l-.2-.2v-.7l-.2-.2v-.5l-.2-.2v-.3c-.1-.1-.1-.1-.1-.2v-.4l-.1-.1c-.1-.2 0-.4 0-.6l-.1-.1v-.4l-.2-.2V150l-.2-.2v-.3l-.2-.2v-.3h.2v-.5c-.1-.1-.2-.3-.4-.4h-.4l-.1.1h-1.7l-.1.1h-1.5s-.1-.1-.2-.1h-.4l-.2-.2h-.2c-.1-.1-.2-.2-.3-.2-.1-.1-.1-.1-.2-.1H32l-1.1-1.1v-.1c-.1-.1-.1-.1-.1-.2v-.4c-.1-.1-.1-.1-.1-.2s-.1-.2-.2-.3v-.3l-.2-.2v-2.3l-.2-.2V139l-.2-.2v-.5c-.1-.1-.1-.1-.1-.2v-.1l-.1-.1v-1.3l-.1-.1v-4.1l-.1-.1v-1.9l-.2-.2V129l-.2-.2v-1.1c-.1-.1-.1-.1-.1-.2v-3.3l-.1-.1v-1.9l-.1-.1v-1l-.2-.2v-1l-.2-.2v-3.1l-.2-.2V114c-.1-.1-.1-.1-.1-.2v-2.2c-.1-.1-.1-.1-.1-.2v-.4l-.1-.1c-.1-.2 0-.4 0-.6l-.1-.1v-1.6l-.2-.2v-1.8l-.2-.2v-.7c-.1-.1-.1-.1-.1-.2v-.8l-.1-.1c-.1-.3 0-.4 0-.7l-.1-.1v-.4l-.2-.2v-.2l-.2-.2v-.3l-.2-.2v-.5c-.1-.1-.1-.1-.1-.2v-.5c.6-.1.6-.1.6-.2v-.3c0-.1-.1-.2-.1-.2-.1-.2 0-.4-.1-.4l-.1-.1v-1l-.2-.2v-.4l-.2-.2v-.3l-.1-.1v-.4l-.1-.1c-.1-.2 0-.4-.1-.6v-.7c.6-.1.6-.2.5-.2v-.4l-.2-.2v-.4l-.2-.2V94c-.1-.1-.1-.1-.1-.2v-.6c0-.2 0-.3-.1-.4v-.3l-.2-.2V92c-.1.1-.1 0-.2 0v-.3l-.2-.2v-.4c-.1-.1-.1-.1-.1-.2v-.5l-.1-.1v-.9l-.1-.1v-.8.2-.4l-.2-.2v-.3l-.2-.2v-.3c-.1-.1-.1-.1-.1-.2v-.5l-.1-.1c-.1-.3 0-.5 0-.7l-.1-.1c-.1-.2 0-.4 0-.6L24 85v-.7l-.2-.2v-.4c-.1-.1-.1-.1-.1-.2v-.4l-.1-.1c-.1-.2 0-.4-.1-.4l-.1-.1v-.4l-.1-.1v-.3l-.2-.2v-.3l-.2-.2v-.4l-.1-.1v-1l-.1-.1v-.9l-.1-.1v-.2c0-.1-.1-.1-.2-.2v-.4l-.2-.2v-.5l-.2-.2v-.4.2c-.1-.2 0-.4-.1-.6l-.1-.1v-.3l-.1-.1v-.7l-.2-.2V73l-.2-.2v-.1c-.1-.2-.2-.2-.3-.3-.1-.3 0-.4-.1-.5h.1v-.4s-.1-.1-.1-.2V71l-.2-.2v-.4l-.2-.2v-.4l-.2-.2v-.7l-.1-.1c-.1-.2 0-.4-.1-.6l-.1-.1v-.3l-.2-.2v-.3l-.2-.2v-.4l-.2-.2v-.4l-.2-.2v-.7l-.1-.1c-.1-.2 0-.4-.1-.6l-.1-.1c-.1-.2 0-.4 0-.6l.1.1v-.5l-.2-.2v-.1l-.2-.2v-.4l-.2-.2V62l-.1-.1c-.1-.2 0-.4-.1-.6l-.1-.1v-.4l-.1-.1v-.3l-.2-.2v-.4l-.2-.2v-1l-.1-.1c-.1-.1 0-.2-.2-.3V58l-.1-.1v-.4l-.1-.1V57l-.2-.2v-.7l-.2-.2v-.3c-.1-.1-.1-.1-.1-.2V55l-.1-.1v-.7l-.1-.1c-.1-.2 0-.4 0-.6l-.1-.1v-.3c.3.6.3.5.2.5v-1l-.1-.1v-.4l-.1-.1v-.4c-.1-.2-.1-.2-.2-.2 0-.1-.1-.2-.2-.3v-.7l-.2-.2v-.8l-.2-.2V49l-.2-.2v-.3l-.1-.1c-.1-.2 0-.4-.1-.4l-.1-.1v-1l-.2-.2v-.3c.2 0 .2-.1.1-.2v-.4c-.1-.1-.1-.1-.1-.2V45l-.1-.1v-.4l-.1-.1v-.3l-.2-.2v-.5l-.2-.2v-.7c-.1 0-.1 0-.2-.1v-.5c0-.2 0-.3-.1-.4h-.4v-1.8h.7l.2-.2h.1l.2-.2h.3c.1-.1.1-.1.2-.1h.4l.1-.1c.2-.1.4 0 .6 0l.1-.1h.4l.2-.2h.4l.2-.2h.4c.1-.1.1-.1.2-.1h.5l.1-.1h.9l.1-.1h.3l.2-.2h.5l.2-.2h.5l.2-.2h.3c.1-.1.1-.1.2-.1h.5l.1-.1h.3l.1-.1h.5l.2-.2h.1c.1-.1.1-.2.1-.3l.1-.1v-1.5l-.1-.1v-2.5l-.2-.2v-1.6l.2-.2v-.5l.2-.2c0-.2.2-.2.1-.3 0-.2.1-.2.2-.3v-.3l.3-.3v-.2l.6-.6c.1-.1.2-.1.3-.2l.1-.1c.3-.1.5 0 .7 0l.1-.1h.3v.4h.1l.2-.2h2.3l.2-.2H34l.1-.1c.1-.1.2 0 .4 0h.4l.1-.1h2.2l.1-.1h1.9l.1-.1h3.6l.2-.2h1.3l.2-.2h1.1c.1-.1.1-.1.2-.1h1.7l.1-.1h3.9l.1-.1h1l.1-.1h1.1l.2-.2h1.8l.2-.2h2.7c.1-.1.1-.1.2-.1h2.4l.1-.1h1.2l.1-.1H64l.1-.1h3.3l.2-.2H69l.2-.2h1.2c.1-.1.1-.1.2-.1h1l.1-.1h4.2l.1-.1h2.2l.1-.1h2l.2-.2h.8l.2-.2h.5c.1-.1.1-.1.2-.1h.7l.1-.1h1l.1-.1c.2-.1.4 0 .4-.1l.1-.1h.4l.2-.2h.5l.2-.2h.7c.1-.1.1-.1.2-.1h.4l.1-.1c.2-.1.4 0 .6-.1l.1-.1c.2-.1.4 0 .6 0l.1-.1h.4l.2-.2h.3l.2-.2h.2c.1-.1.1-.1.2-.1h1l.1-.1c.3-.1.5 0 .7 0l.1-.1h.4l.2-.2h.3l.2-.2h.3l.2-.2h.3c.1-.1.1-.1.2-.1h.5l.1-.1h.3l.1-.1h.7l.2-.2h.5l.2-.2h.2l.2-.2h.5c.1-.1.1-.1.2-.1h.4l.1-.1c.2-.1.4 0 .6 0l.1-.1h.4l.2-.2h.3l.2-.2h.5l.2-.2h.5c.1-.1.1-.1.2-.1h.5l.1-.1h.4s.1-.1.2-.1h.3l.2-.2h.5l.2-.2h.5l.2-.2h.4c.1-.1.1-.1.2-.1h.4l.1-.1c.2-.1.4 0 .6 0l.1-.1h.7l.2-.2h.3l.2-.2h.3l.2-.2h.5l.1-.1c.3-.1.4 0 .7 0l.1-.1h.3L110 19h.4l.2-.2h.7l.2-.2h.7l.2-.2h.4c.1-.1.1-.2.3-.1h.2l.1-.1c.2-.1.4 0 .6 0l.1-.1h.7l.2-.1h.4l.2-.2h.1l.2-.2h.7l.1-.1c.3-.1.4 0 .7 0l.1-.1c.2-.1.4 0 .6 0l.1-.1h.4l.2-.2h.5l.2-.2h.4l.2-.2h.3c.1-.1.1-.1.2-.1h.4l.1-.1c.2-.1.4 0 .6 0l.1-.1h.7l.2-.2h.5l.2-.2h.3l.1-.1h.4l.1-.1c.2-.1.4 0 .6-.1l.1-.1c.2-.1.4 0 .6 0l.1-.1h.4l.2-.2h.4l.2-.2h.5c.1-.1.1-.1.2-.1h.5l.1-.1c.2-.1.3 0 .4-.1l.1-.1h.4l.2-.2h.4l.2-.2h.5l.2-.2h.4c0-.2.3-.1.3-.2-2.2-.1-2.2-.2-2.2-.3zM37.7 62.3l-.1-.5-.1-.1v-.5l-.2-.2v-.1l-.2-.2v-.4l-.1-.2v-.4c-.1-.1-.1-.1-.1-.2v-.4l-.1-.1v-.3l-.2-.2v-.3l-.2-.2v-.8l-.2-.2v-.8c-.1-.1-.2-.2-.2-.3v.1-.3l-.1-.1c-.1-.3 0-.5 0-.7l-.1-.1v-.5l-.2-.2v-.7l-.2-.2V53l-.2-.2v-.4l-.1-.1c-.1-.2 0-.3 0-.4V51l-.1-.1v-1.6l.1-.1v-.8l.2-.2V48l.2-.2v-.2c.3-.3.5-.6.9-.9h.2c.1 0 .1-.1.2-.2h.3l.2-.2h1.6c.1.1.1.1.2.1s.2 0 .2.1c.1.1.2.1.3.1.1.1.1.1.3.1.1.1.2.1.2.2l.4.4h.2l.7.7v.2c.2.2.3.4.4.4.1.1.1.2.1.3l.3.3v.2c0 .1.1.1.2.2v.1l.4.4h.7l.1-.1v-.2l.6-.6V49l.6-.6v-.1l1-1c.2-.1.1-.3.2-.4l.1-.1c0-.1.1-.2.2-.3v-.3l.2-.2v-.3c-.1-.1-.3-.3-.3-.4l-.6-.6v-.1c-.1-.2-.3-.3-.4-.4V44l-.4-.4v-.2l-.6-.6c-.1 0-.2 0-.3-.1l-.4-.4h-.2l-.5-.5h-.2c-.1-.1-.3-.2-.4-.4-.1-.1-.2-.1-.3-.1l-.6-.3h-.2l-.2-.2h-.7c-.1-.1-.1-.1-.2-.1-.2 0-.2 0-.3-.1h-.3l-.1-.1h-2.2l-.1.1h-.4c-.3 0-.3.1-.4.1h-.4l-.2.2H35l-.2.2h-.3l-.1.1c-.1.1-.3.1-.4.2-.1 0-.2.1-.3.2h-.3l-.2.2h-.1l-.1.1h-.2c-.1.1-.2.2-.3.2l-.4.4H32l-2 2v.1l-.3.3c.1.2-.1.2-.2.4v.2c-.1.1-.1.1-.1.2s-.1.2-.1.2c-.1.2 0 .4-.1.4l-.1.1v.3l-.2.2v.3l.1-.2v.3c-.1.1-.1.1-.1.2v.5c-.1.2 0 .3-.1.4l-.1.1c-.1.2 0 .4 0 .6l-.1.1v.3l-.2.2V51c-.1.1-.1.1-.1.2v4.6c.1.1.1.1.1.2v1.2l.1.1c.1.2 0 .3.1.4l.1.1v1.1l.2.2v.4l.2.2v.5l.2.2v.3c0 .1.1.1.1.3 0 .1.1.2.1.2v.4l.1.1v.7l.2.2v.3l.2.2v.4l.2.2v.3c.1.1.1.1.1.2v.3l.1.1v.3c0 .1.1.1.1.1.1.1.1.1.1.2s.1.1.2.2V65l.2.2v.3l.2.2v.3H31c.1.1.1.3.2.4v.1c0 .1.1.2.1.2v.2l.3.3v.2c.1.1.1.2.2.3 0 .1.1.1.1.3 0 .1.2.2.1.3 0 .1.1.1.1.2v.2c.1.1.2.1.3.2l.2.2c0 .1.1.2.1.3 0 .2.1.3.2.4l.1.1v.1l.5.5c0 .1 0 .2.1.3l.4.4V71l1.3 1.3v.1l.6.6h.1c.3.2.4.4.7.7h.2l.1.3h.1l.3.3h.3l.2.2h.1l.2.2h.1c.1.1.1.1.2.1s.2 0 .2.1c.1.1.2.1.3.1l.1.1h.4s.1.1.2.1h.4l.2.2h.3l.2.2h.4c.1.1.1.1.2.1h1l.1-.1h1l.1-.1h.5l.1-.1H44l.2-.2h.4l.2-.2h.3l.1-.1c.1-.1.2 0 .3-.2h.3l.1-.1h.3l.1-.1h.3l.2-.2h.1l.2-.2H47c.1-.1.2-.1.3-.2l.3-.3h.2c.1-.1.2-.2.2-.3h.2l.2-.2h.3l.4-.4h.2l.3-.3h.1l.7-.7h.2c.1-.1.2-.2.2-.3h.2l.3-.3h.2l.4-.4V70s-.1-.1-.1-.2v-.3l-.2-.2v-1l-.2-.2v-.3c-.4.2-.4.2-.4.1v-.4l-.1-.1c-.1-.3 0-.5 0-.7l-.1-.1v-.8l-.2-.2v-.1l-.2-.2v-.4l-.2-.2v-.4c-.1-.1-.2-.2-.1-.3l.3-.4c-.1-.2 0-.4-.1-.4v-.6l-.2-.2v-.7l-.1-.2v-.8l-.2-.2v-.3c-.1-.1-.1-.1-.1-.2v-.4l-.1-.1c-.1-.2 0-.4 0-.6l-.1-.1v-.7l-.2-.2v-.3l-.2-.2v-.3L49 57v-.4l-.1-.1v-1.1l-.3-.3c-.1-.1-.2 0-.3-.2h-.2c-.1.1-.1.1-.3.1-.1 0-.1.1-.2.1h-.4l-.2.2h-.4l-.2.2h-.5c-.1.2-.1.3-.2.3h-.4l.1.2c-.2.1-.4 0-.6 0l-.1.1H44l-.2.2h-.7l-.2.2c-.1 0-.2 0-.2.1v.8s.1.1.1.2v.4h.2v.4l.2.2v.8c.1.1.1.1.1.2v.4l.1.1v.4l.1.1v.4l.2.2v.4l.2.2v.5l.2.2v.3c.1.1.1.1.1.2v.4l.1.1c.1.2 0 .4.1.6l.1.1v.7l.1.1v.4l.2.2v.5l.2.2v.5c.1.1.1.1.1.2v1.2c-.1.1-.1.2-.2.3l-.6.6h-.2l-.3.3h-.3l-.2.2H43l-.1.1h-1.2l-.1-.1H41l-.2-.2h-.1l-.3-.3h-.2l-.7-.7c0-.1-.1-.2-.2-.3v-.2l-.3-.3v-.3c0-.1-.1-.1-.1-.2s-.1-.2-.1-.3v-.3l-.2-.2V66h-.1v-.3l-.2-.2v-.3l-.2-.2v-.3l-.1-.1v-.3.1-.3l-.2-.1v-.1l-.2-.2v-.4l-.2-.2v-.3c-.1-.1-.1-.1-.1-.2.4-.1.4-.2.4-.3zm7.6 58.8v.3l.2.2v.1l.2.2v.4l.1.1v1.1l.1.1v.3l.2.2v.4l.2.2v.4l.2.2v.4c.1.1.1.1.1.2v.4c.1.1.1.1.1.2v.3l.1.1v.6l.1.1v.7l.2.2v.4l.2.2v.3c.1.1.1.1.1.2v.5l.1.1v.4l.1.1v.4l.2.2v.4l.2.2v.4l.2.2v.8l.2.2v.3l.1.1v.3l.1.1c.1.2 0 .4 0 .6l.1.1v.5l.2.2v.4l.2.2v.5c.1.1.2.1.2.3 0 .1.1.1.1.2v.5l.1.1v.7l.2.2v.3l.2.2v.3l.2.2v.6c.1.1.1.1.1.2v.4l.1.1v.3l.1.1v.3l.2.2v.3l.2.2v1l.2.2v.4c.1.1.1.1.1.2v.3l.1.1c.1.3 0 .4.1.5l.1.1v.5l.2.2v.5l.2.2v.3l.2.2v.4l.1.1v.5l.1.1v.3l.1.1v.2c0 .1.1.1.2.2v.4l.2.2v.3l.4.4h.5l.2-.2h.4c.1-.1.1-.1.2-.1h.5l.1-.1c.2-.1.4 0 .6 0l.1-.1h.5l.2-.2h.3l.2-.2h.4l.2-.2H57c.1-.1.1-.1.2-.1s.1 0 .2-.1v-.1c.1-.1.1-.1.1-.2v-.5c-.1-.1-.1-.1-.1-.2v-.5c-.1-.1-.1-.1-.1-.2v-.3l-.1-.1v-.1c0-.1-.1-.1-.1-.2v-1l-.2-.2v-.4l-.2-.2v-.4l-.2-.2v-.3c-.1-.1-.1-.1-.1-.2v-.4l-.1-.1v-.6l-.1-.1v-.7l-.2-.2v-.1l-.2-.2v-.6c-.1-.1-.1-.1-.1-.2 0-.2 0-.3-.1-.4 0-.1 0-.2-.2-.3v-.3l-.2-.2c0-.1.1-.1.2-.2v-.1c.1-.1.3 0 .4-.2h.3l.2-.2h.1l.2-.2h.4l.2-.2h.3c.1-.1.1-.1.2-.1h.3c.1-.1.1-.2.2-.1.1 0 .2-.1.3-.2h.1l.2-.2h.1l.2-.2H59l.4-.4h.2l.3-.3h.1c.2-.2.4-.4.5-.4v-.2l.5-.5v-.1l.5-.5c0-.1 0-.2.1-.3l.2-.2v-.5l.2-.2v-.1l.2-.2v-.3l.2-.2v-.3l.1-.1v-.5l.1-.1v-4.3l-.1-.1v-1l-.2-.2v-.4l-.2-.2v-.4l-.2-.2v-.3l-.1-.1c-.1-.3 0-.5 0-.7l-.1-.1v-.4l-.2-.2v-.1l-.2-.2v-.2l-.2-.2v-.3l-.1-.1c0-.1 0-.2-.2-.3 0-.1 0-.2-.2-.3 0-.1-.1-.2-.2-.3v-.3l-.2-.2c-.1-.1-.1-.1-.1-.2v-.1l-.4-.4v-.2l-.3-.3v-.2l-.5-.5v-.1l-2-2h.1l-.4-.4h-.2l-.3-.3c-.1 0-.2-.1-.3-.2h-.2c-.1 0-.1-.1-.2-.2h-.1l-.2-.2H55c-.1-.1-.1-.2-.2-.1-.1 0-.1-.2-.2-.1-.1 0-.2-.1-.3-.1H54l-.2-.2h-.5l-.2-.2h-.4c-.1-.1-.1-.1-.2-.1H51c-.1.1-.1.1-.2.1h-.4l-.1.1c-.2.1-.4 0-.6.1l-.1.1h-.4l-.2.2h-.4l-.2.2h-.3l-.2.2h-.3c-.1.1-.1.1-.2.1H47l-.1.1h-.5l-.1.1H46l-.2.2h-.3l-.2.2H45l-.2.2h-.5l-.2.2v1.2l.2.2v.4l.2.2v.4c.1.1.1.1.1.2v.4l.1.1v.5l.1.1v.4c.4-.1.5-.1.5 0zM59.2 62l-.2-.2v-.3c-.1-.1-.2-.1-.2-.3 0-.1-.1-.1-.2-.3v-.4l-.1-.1c-.1-.2 0-.4 0-.6l-.1-.1V59l-.2-.2v-.3c-.1-.1-.1-.1-.1-.2v-.7l.4-.4h.2l.2-.2h.3l.1-.1h.7l.1.1.1.1c.2 0 .2.1.2.2l.5.5v.1l.7.7c0 .2.1.3.2.3v.1l.3.3c0 .1 0 .2.1.2.1.1.1.2.1.3.1.1.1.1.1.3 0 .1.2.1.1.2 0 .1.1.2.2.3v.1l.2.2v.1l.2.2v.3c.1.1.1.1.1.2s.1.2.1.3c0 .1.1.2.2.3 0 .1.1.2.2.3v.2l.2.2v.2c.1.1.2.2.2.3.2.1.1.3.2.4.1.1.1.3.2.4 0 .1.1.2.2.3v.2l.2.2c.1 0 .2.1.3.2h2l.2-.2h.4l.2-.2h.4c.1-.1.1-.1.2-.1h.4l.2-.2c.2.1.3 0 .4-.1h.4l.2-.2h.3l.2-.2h.1l.2-.2h.2l.2-.2V63l-.2-.2v-.2c-.1-.1-.2-.2-.2-.3l-1-.2c0-.1-.1-.2-.2-.3v-.2c0-.1-.1-.1-.2-.2v-.2c-.1-.1-.2-.2-.3-.2v-.2c-.1-.1-.1-.2-.2-.3l-.3-.3V60l-.4-.4v-.3c-.1-.1-.1-.2-.2-.3H68v-.2c0-.1-.1-.1-.2-.2v-.1l-.2-.2v-.2c-.1-.1-.2-.2-.2-.3l-.3-.3v-.2c-.1-.1-.2-.2-.3-.2v-.2l-.4-.4c0-.1 0-.2-.1-.3l-.8-.8h-.2l-.4-.4c-.1 0-.2-.1-.3-.2h-.2c-.1-.1-.2-.2-.3-.4v-.2c0-.1.1-.1.2-.2v-.2l.2-.2c.1 0 .2-.1.3-.2h.1l.8-.8h.2c.1-.1.1-.2.2-.4l.6-.6v-.1l.3-.3c0-.1.1-.2.2-.3v-.2l.3-.3v.6l.2-.2v-.3c.1-.1.1-.1.1-.2 0-.2 0-.3.1-.4 0-.1 0-.2.2-.3v-.3l.2-.2V49c.1-.1.1-.1.1-.2v-.4l-.2-.2V47c-.1-.1-.1-.1-.1-.2v-.3l-.1-.1V46v.1-.5l-.2-.2v-.5l-.2-.2v-.2l-.3-.3V44l-.1-.1v-.3l-.2-.2v-.1L64.7 41h-.1l-.4-.4H64c-.1-.1-.2-.2-.2-.3h-.2l-.2-.2h-.5l-.2-.2h-.4c-.1-.1-.1-.2-.3-.1h-.2l.2.1h-1.1v.1h-.3l-.2.2h-.5l-.2.2h-.5l-.2.1h-.3l-.1.1h-.4l-.1.1h-.4l-.2.2h-.4l-.1.2h-.5l-.2.2H56c-.1.1-.1.1-.2.1h-.4l-.1.1h-.7l-.1.1c-.2.1-.4 0-.6 0l-.1.1h-.3l-.2.2h-.5l-.1.1h-.4c-.1.1-.1.1-.2.1h-.4c-.1.1-.1.1-.2.1h-.8l-.2.2H50l-.2.2H49V44l.1.1v.3l.2.2v.3l.2.2v.7l.2.2v.5c.1.1.1.1.1.2v.3l.1.1v.3l.2.2v.3l.2.2v1.1l.2.2v.3l.2.2v.1c.1.1.1.1.1.2v.4l.1.1c.1.3 0 .4.1.5l.1.1v.7l.2.2v.4l.2.2v.3l.2.2v.7l.1.1c.1.2 0 .4.1.4l.1.1v.4l.1.1v.7l.2.2v.4l.2.2v.4l.2.2v.3c.1.1.2.2.1.3v.1c.1.1.1.1.1.2v.4l.1.1v1l.2.2v.3l.2.2v.4l.2.2v.4c.1.1.1.1.1.2v.4l.1.1c.1.2 0 .4 0 .6l.1.1v.4l.2.2v.3l.2.2v.2l.2.2v.4c.1.1.2.1.1.3v.2L54 65c.1.2 0 .4 0 .6l.1.1v.7l.2.2v.2l.2.2h1.6s.1-.1.2-.1h.4l.2-.2h.4l.2-.2h.5c.1-.1.1-.1.2-.1h.4c-.1 0 0 0 0 0h.4l.1-.1h.3l.6-.6v-.1l-.2-.2v-.3l-.2-.1v-.5l-.1-.1c-.1-.2 0-.4-.1-.6l-.1-.1v-.3l-.2-.2v-.4l-.1-.1c.2-.2.2-.5.2-.7zm20.3 31.8l.2.3v.2c.1.1.1.2.2.3l.4.4c0 .1.1.1.2.2v.1l.2.2v.2l.3.3c0 .1 0 .2.1.2.1.1.1.1.1.3 0 .1.1.1.1.2v.1c0 .1.1.1.2.2v.1l.2.2v.2c.1.1.1.2.2.3l.4.4v.1l.2.2v.2l.2.2h.3s.1-.1.2-.1h.4l.2-.2h.3l.2-.2h.4l.1-.1c.1-.1.3 0 .4 0h.8l.1-.1c.2-.1.3 0 .4-.1l.1-.1h.3l.2-.2h.5l.2-.2h.5l.4-.4v-.3l-.2-.2v-.2l-.3-.3V96s0-.1-.1-.1l-.4-.4v-.2c-.1-.1-.1-.2-.2-.2-.1-.1-.1-.2-.1-.3l-.3-.3v-.2l-.3-.3v-.1l-.2-.2v-.2l-.3-.3c0-.1 0-.2-.1-.3l-.1.1-.1-.2v-.1l-.1-.1c-.1-.1-.2-.2-.2-.4-.1-.1-.1-.2-.2-.3l-.3-.3v-.1l-.2-.1c0-.1 0-.2-.1-.2-.1-.1-.1-.2-.1-.3l-.3-.3v-.2l-.4-.4v-.2l-.3-.3v-.1l-.3-.3v-.2c-.1-.1-.2-.1-.3-.2v-.2c-.1-.2-.3-.3-.4-.4l-.1-.1h-.4l-.4-.4v-.3c.1-.2.3-.3.4-.4h.2l.6-.6c0-.1 0-.2.1-.3.2-.2.4-.3.4-.4v-.2c.1-.1.1-.2.2-.3 0-.1.1-.1.1-.3 0-.1.2-.2.1-.3 0-.1.1-.1.1-.2V84l.2-.2v-.7l.2-.2v-.4c.1-.1.1-.1.1-.2V80c-.1-.1-.2-.1-.1-.3v-.2l-.1-.1v-.8l-.1-.1v-.3l-.2-.2v-.1l-.2-.2v-.1c.1.7.1.7.1.6s-.1-.2-.1-.3 0-.1-.1-.2l-.3-.3v-.1L82.1 76H82l-.4-.4s-.1 0-.2-.1l-.3-.3h-.2l-.2-.2h-.1c.1 0 .1 0 0 0-.2 0-.2-.1-.3-.2h-.9l-.1-.1h-.4l-.1.1h-3.4l-.1.2h-.4l-.2.2h-.3l-.2.2h-.4c-.1.1-.1.1-.2.1h-.5l-.1.1h-.2c-.1 0-.2.1-.3.1h-.3l-.2.2h-.3c-.2.3-.3.4-.3.4h-.5l.1.1h-.3c-.1.1-.2.2-.3.1h-.1l-.1.1h-.5l-.1.1h-.5l-.2.2h-1.1l-.1.1h-.1l-.2.2h-.1c-.2.1-.3.3-.4.4v.3l.2.2v.3c.1.1.1.1.1.2v.4l.1.1v.8l.1.1v.4l.2.2v.3l.2.2v.5l.2.2v.7l.1.1v.3l.2.2v.3l.2.2v.8l.2.2v.4l.2.2v.3c.1.1.1.1.1.2v.3l.1.1c.1.2 0 .4.1.4l.1.1v.4l.2.2v.4l.2.2v.3l.2.2v.5c.1.1.1.1.1.2v.4l.1.1c.1.2 0 .4.1.4l.1.1v.5l.2.2v.4l.2.2v.4l.2.2v.3c.2.1.1.3.2.4l.1.1v.3l.2.2v.8l.2.2v.4l.2.2v.3l.2.2v.4c.1.1.2.1.1.3v.2l.1.1v.7l.1.1v.2c0 .1.1.1.2.2v.4l.2.2v.4l.2.2v.3c.1.1.2.1.1.3v.2l.1.1c.1.2 0 .4 0 .6l.1.1v.6h.2c.1 0 .1.1.2.1h.4l.1-.1h.7l.2-.2h.3l.2-.2h.5l.2-.2h.8c.1-.1.1-.1.2-.1h.4c.1-.1.1-.1.2-.1.2 0 .3 0 .4-.1h.3l.2-.2h.2c.1-.1.2-.3.4-.4V99s-.1-.1-.1-.2v-.3l-.2-.2V98l-1 .1v-1c-.1-.1-.1-.1-.1-.2 0-.2 0-.3-.1-.4v-.3l-.2-.2v-.4l-.2-.2v-.8l-.2-.2v-.7l-.2-.2v-.4.1-.6l-.1-.1v-1.9l.2-.2h.5l1.1 1.1v.1l.4.4c0 .1 0 .2.1.3v.2c0 .1.1.1.2.2v.1l.2.2v.2l.3.3v.1l.3.3v.2c-.8-.4-.7-.3-.7-.3zm32.8-39.7h.4l.2-.2h.8l.2-.2h.6c.1-.1.1-.1.2-.1.2 0 .3 0 .4-.1h.4l.1-.1h.7l.2-.2h.4l.2-.2h.1l.2-.2h.3c.1-.1.1-.1.2-.1h.2c.1 0 .2-.2.3-.2l.1-.1.2-.2h.2c.1-.1.2-.2.2-.3h.2l.3-.3h.2l.4-.4h.2l1-1h.1c.1-.1.2-.1.2-.2v-.2l.4-.4c0-.1 0-.2.1-.3l.2-.2v-.1l.2-.2v.4l.3-.3c0-.1 0-.1.1-.2 0-.1.1-.1.1-.2V48l.1-.1c.1-.1.1-.1.1-.2l.3-.3v-.3c.1-.1.1-.2.2-.3 0-.1.1-.1.1-.3 0-.1.2-.2.1-.3 0-.1.1-.1.1-.2l.2-.2V45l.2-.2v-1.6l-.2-.2v-1.9c-.1-.1-.1-.1-.1-.2v-.4l-.1-.1V40l-.1-.1v-.3l-.2-.2v-.3l-.8-.1v-.4l-.2-.2v-.3c-.2-.1-.1-.3-.2-.4-.1-.1 0-.3-.2-.4V37l-.2-.2v-.3l-.2-.2V36c-.1-.1-.1-.1-.1-.2v.2c0-.1-.1-.1-.1-.2s-.1-.2-.1-.3c-.1-.1-.1-.2-.2-.3V35c-.1-.1-.2-.2-.3-.2v-.2l-.2-.2v-.2c-.1-.1-.2-.2-.2-.3l-.4-.4v-.1l-.3-.3v-.2l-.3-.3c0-.1 0-.2-.1-.3-.1-.1-.3-.2-.4-.4v-.2l-.4-.4c0-.1 0-.2-.1-.3s-.2-.2-.3-.2c-.1-.1-.2-.1-.3-.2l-.8-.8c-.1 0-.1 0-.2-.1l-.5-.5c-.1-.1-.2-.1-.3-.2-.1-.2-.3-.1-.4-.3-.1 0-.2-.1-.3-.2h-.2l.5.5h-.3l-.2-.2h-.5c-.1-.1-.1-.1-.2-.1h-.4l-.1-.1h-2.5l-.1.1h-.4l-.1.1h-.8l-.2.2h-.7l-.2.2h-.1l-.2.2h-.4c-.1.1-.1.1-.2.1h-.3l-.1.1h-.4l-.2.2h-.4l-.2.2h-.1l-.2.2h-.4l-.2.2h-1.2c-.1.1-.1.1-.2.1-.3 0-.3 0-.4.1h-.4l-.1.1h-.4l-.2.2h-.3l-.2.2v.3s.1.1.1.2v.5l.2.2v.5l.2.2v.5l.2.2v.3l.1.1v.5l.1.1v.8l.2.2v.3l.2.2v.7l.2.2v.4l.2.2v.5c.1.1.1.1.1.2v.3l.1.1v.3l.2.2v.4l.2.2V41l.2.2v.3l.2.2v.4l.1.1.1.1V42l.1.1c.1.2 0 .4 0 .6l.1.1v.4l.2.2v.3l.2.2v.3l.2.2v.5l.1.1v.5l.1.1v.3l.1.1v.5l.2.2v.3l.2.2v.4l.2.2v.2c.1.1.1.1.1.2v.3c.1.1.1.1.1.2v.3l.1.1v.8l.2.2v.4l.2.2v.3l.2.2v.3l.1.1c.1.2 0 .3 0 .4.1.1.1.1.1.2v.4l.1.1v.3l.2.2v.3l.2.2v.8l.4.4h.5l.2-.2h.1l.2-.2h.5l.1-.1h1.1l.1-.1h.4l.1-.1-.1-.1c-.1.1 0 .1 0 0zm-18.8 4.4c.1 0 .1-.1.2-.1.2 0 .2-.2.3-.2v-.5c-.1-.1-.1-.1-.1-.2V57l-.1-.1v-.3l-.2-.2V56l-.2-.2v-.7l-.2-.1v-1l-.2-.1v-1.2l-.2-.2v-.4l-.2-.1v-.5l-.2-.2v-.1l-.1-.1v-.4l-.1-.1c-.1-.3 0-.5 0-.7l-.1-.1v-.4l-.1-.2v-.1l-.2-.1v-.4l-.2-.2v-1l.1-.1h.4l.2.2v.2l.3.3v.2c.1.1.2.2.3.2v.2l.4.4.4.4v.2c.2.3.4.4.6.7v.2c.1.1.2.2.2.3l.4.4v.2c0 .1.1.1.2.2v.1c.2.2.4.3.4.6l.5.5v.2l.4.4v.2l.4.4c.1.2.3.3.4.4v.2l.4.4v.2c.1.1.3.2.3.4v.1l.4.4v.2l.3.3c0 .1 0 .2.1.3.1.1 0 .2.1.3.1.1.1.2.3.2h.3l.1.1h2l.1-.1h.4l.2-.2h.3l.2-.2h.7l.2-.2h.1c.2-.1.3-.3.4-.4V56l-.2-.2v-1.3c-.1-.1-.1-.1-.1-.2s-.1-.2-.2-.3v-.3l-.2-.2v-.4l-.2-.2v-.5l-.2-.2v-.3l-.2-.2v-.3c-.1-.1-.1-.1-.1-.2 0-.2 0-.3-.1-.4v-1.6l-.2-.2v-.1l-.2-.2v-.3l-.2-.2v-.3c-.1-.1-.2-.2-.1-.3v-.1l-.1-.1c-.1-.2 0-.4-.1-.6l-.1-.1v-.4l-.2-.2v-.7l-.2-.2v-.7l-.2-.2v-.8l-.2-.2V43c-.1-.1-.1-.1-.1-.2v-.4l-.1-.1V42l-.2-.2v-.3l-.2-.2v-.4l-.2-.2v.3l-.2-.2v-.3l-.1-.1v-.9l-.1-.1v-.3l-.2-.1v-.3l-.2-.2v-.4l-.2-.2v-.4.1c-.1-.2 0-.3 0-.4v-.5l-.1-.1v-.3l-.1-.1v-.4l-.2-.2v-.5l-.2-.2v-.4l-.2-.2V34c-.1-.1-.2-.1-.1-.3v-.2l-.1-.1v-.3l-.2-.2v-.2c-.1-.1-.1-.1-.3-.2h-.9l-.1.1h-.4c.4-.1.4-.1.3 0h-.7v.4h-.3l-.2.2h-.4l-.1.1c-.3.1-.4 0-.7 0-.1.1-.2.2-.3.2v1.4c.1.1.1.1.1.2v.5l.1.1v.4l.1.1c.1.2 0 .4.1.4l.1.1v.7l.2.2v.4l.2.2v.4c.1.1.1.1.1.2v.4l.1.1c.1.2 0 .3.1.4l.1.1v.3l.2.2v.4l.2.2v.3c.1.1.1.1.1.2v1l-.2.2h-.2l-.4-.4V42c.2-.3.1-.3.1-.4v-.1l-.2-.2c0-.2-.1-.2-.1-.3 0-.2-.2-.3-.3-.4-.1-.1-.3-.2-.4-.3v-.2l-.5-.5v-.2l-.3-.3-.1-.1-.6-.6v-.2l-.4-.4v-.2l-.4-.4V37l-.3-.3v-.2l-.8-.8v-.2l-.4-.4V35l-.3-.3c-.1-.1-.2-.3-.4-.4h-.7l-.1.1c-.2.1-.4 0-.4.1l-.1.1h-.5l-.2.2h-.5l-.2.2h-.1l-.2.2h-1.2l-.1.1h-.2l-.2.2v.6l.1.1v.4l.2.2v.4l.2.2v.4l.2.2v.4l.2.2v.4c.1.1.1.1.1.2v.4l.1.1c.1.2 0 .4 0 .6l.1.1v.5l.2.2v.3l.2.2v.5c.1.1.1.1.1.2v.4l.1.1v.5l.1.1v.3l.2.2v.3l.2.2v1.1l.2.2v.4c.1.1.1.1.1.2v.4l.1.1c.1.2 0 .3.1.4l.1.1v.4l.2.2v.1l.2.2v.4l.2.2v.3c.1.1.1.1.1.2v.7l.1.1v.7l.1.1v.3l.2.2v.3l.2.2v.5l.2.2v.4l.1.1c.1.2 0 .3 0 .4.1.1.1.1.1.2v.4l.1.1v.4l.2.2v.7l.2.2v.8l.2.2v.3c.1.1.1.1.1.2v.4l.1.1c.1.2 0 .4 0 .6l.1.1v.6l.4.4h1.5l.1-.1h.5l.2-.2h.3l.2-.2H93c.1-.1.1-.1.2-.1-.1-.3.1-.3.3-.3zM43.4 80.4v.3l.2.2v.3l.1.1c.1.1 0 .2.2.3v.4c.1.1.1.1.1.3 0 .1.1.1.1.2v.4c.1.1.3.2.4.4h1.3s.1-.1.2-.1h.5l.2-.2h.5l.2-.2h.4c.1-.1.2-.2.3-.1h.1c.1-.1.1-.1.2-.1h.4c.1-.1.1-.1.3-.1l.2-.2h.3l.2-.2h2l.2.2v.2c0 .1.1.1.2.2v.3l.2.2v.4l.2.2v.5c.1.1.1.1.1.2v.4l.1.1v.3l.2.2v.5l.2.2v.8l.2.2v.4l.2.2v.2c.1.1.1.1.1.2v.3l.1.1c.1.2 0 .4.1.4l.1.1v.5l.2.2v.1l.2.2v.4l.2.2v.7l.1.1c.1.2 0 .4.1.6l.1.1v.3l.1.1v.4l.2.2v.4l.2.2v.4l.2.2v.3l.1.1v.4l.1.1v.7l.1.1v.4l.2.2v.4l.2.2v.3l.2.2v.4c.1.1.1.1.1.2v.4l.1.1c.1.2 0 .4 0 .6l.1.1v.4l.2.2v.4l.2.2v.5l.2.2v.3l.1.1v.4l.1.1v.4l.2.2v.4l.2.2v.5l.2.2v.4l.2.2v.5l.1.1v.8l.1.1v.3l.2.2v.3l.2.2v.7l.2.2v.1l.4.4h.4l.2-.2h.4l.2-.2h.3l.1-.1c.2-.1.4 0 .6-.1l.1-.1c.2-.1.4 0 .6 0l.1-.1h.5l.2-.2h.4l.2-.2H63l.1-.1h.4l.1-.1h.7c.1-.1.3-.2.4-.4v-1l-.1-.1v-.8l-.1-.1v-.5l-.2-.2v-.3l-.2-.2v-.1l-.2-.2v-.4l-.1-.1v-.5l-.1-.1c-.1-.2 0-.4 0-.6l-.1-.1v-.5l-.2-.2v-.8l-.2-.2v-.7c-.1-.1-.2-.2-.2-.3-.1-.1-.2-.2-.1-.3v-.1l.1.1v-.4l-.2-.2v-.4l-.2-.2v-.3l-.2-.2v-.4l-.2-.2V96l-.1-.1v-1.1l-.1-.1v-.3.3-.2c0-.1-.1-.1-.2-.2V94l-.2-.2v-.3l-.2-.2V93l-.1-.1V92c0-.1-.1-.2-.2-.3v-.5l-.2-.2v-.7l-.2-.2v-.3l-.2-.2v-.4l-.1-.1v-.4l-.1-.1c-.1-.2 0-.4-.1-.4l-.1-.1v-.3l-.2-.2v-.4l-.2-.2v-.4l-.2-.2v-1.2c-.1-.1-.1-.1-.2-.3 0-.1-.1-.1-.1-.2v-.3l-.1-.1V84l-.2-.2v-.5l.1.1v-.7l-.2-.2v-.4l-.1-.1v-1.5l.2-.2h1c.1-.1.1-.1.2-.1h.4c.1-.1.1-.1.2-.1.2 0 .3 0 .4-.1h.3l.2-.2h.4l.2-.2h.5l.2-.2h.5c.1-.1.1-.1.2-.1h.4c.1-.1.1-.1.2-.1.2 0 .3 0 .4-.1h.3l.2-.2h.2c.1-.1.1-.1.2-.3v-.5l-.1-.1v-.7l-.2-.2v-.7l-.2-.2V75h-.2v-.4c-.2-.1-.1-.3-.3-.4v-.1l-.1-.1h-.8c-.1.1-.1.1-.2.1H63c-.1.1-.1.1-.2.1-.2 0-.3 0-.4.1h-.7l-.2.2h-.4l-.1.2h-.5l-.2.2H60c0 .1 0 .1-.1.1h-.5c-.6-.5-.6-.5-.7-.5h-.4l-.1.1h-.4l-.2.2h-.4l-.2.1-.2.1h-.5c-.1.1-.1.1-.2.1h-.9c0 .2-.3.1-.3.3h-.3l-.2.2h-.5l-.2.2h-.5l-.2.2h-.4c-.1.1-.1.2-.3.1h-.2c-.1.1-.1.1-.2.1h-.4l-.1.1h-.7l-.2.2H50l-.2.2h-.7c-.1.1-.1.2-.3.1h-.2c-.1.1-.1.1-.2.1H48l-.1.1h-.3c.3.1.2.2.2.2h-.3l-.2.2h-1.2l-.1.1h-.3l-.2.2h-.3c-.1.1-.1.1-.2.1-.2 0-.3 0-.4.1h-.4c.1 0 0 .1-.1.1h-.5l-.2.2h-.5l-.2.2c-.1 0-.2 0-.2.1v.3l-.2.2.2.2v.3c.1.1.1.2.2.3 0 .1.1.1.1.3 0 .1.2.2.1.3 0 .1.1.1.1.2v.1c.2-.4.3-.3.4-.3zm19.7-53.9H62l-.2.2h-3l-.2.2h-1.9v.1H55l-.1.1h-1.7l-.1.1h-1.5l-.2.2H48l-.2.2H47l-.2.2h-1.3l-.1.1h-2l-.1.1h-4.9l-.2.2H37l-.2.2H35l-.2.2H32l-.1.1h-1.5l-.1.1h-1.1l-.1.1h-2.5l-.2.2h-.6c-.1.1-.2.2-.3.2-.1.1-.2.1-.2.2v.2c-.1.1-.3.3-.3.4l-.3.3v.3l-.2.2v1.3c0 .1.1.1.1.2-.1.1-.1.1-.1.2v2l.1.1v2.7c.1.1.2.3.4.4h.8l.1-.1c.2-.1.4 0 .6-.1l.1-.1c.2-.1.4 0 .4-.1l.1-.1h.3l.2-.2h.5l.2-.2h.4l.2-.2h.3l.1-.1h1l.1-.1h.5l.2-.2h.4l.2-.2h.3l.2-.2h.5c.1-.1.1-.1.2-.1h.5l.1-.1c.2-.1.4 0 .6-.1l.1-.1h.3l.2-.2h.5l.2-.2h.7l.2-.2h.3c.1-.1.1-.1.2-.1h.2l.1-.1c.3-.1.5 0 .7 0l.1-.1h.4l.2-.2h.4l.2-.2h.4l.2-.2h.4c.1-.1.1-.1.2-.1h1l.1-.1h.4l.1-.1h.4l.2-.2h.4l.2-.2h.4l.2-.2h.4c.1-.1.1-.1.2-.1h.3c.1 0 .1-.1.2-.1h.3s.1-.1.2-.1h.7l.2-.2h.8l.2-.2H47l.2-.2h.4c.1-.1.1-.1.2-.1h.4l.1-.1c.2-.1.4 0 .6 0l.1-.1h.3l.2-.2h.4l.1.3h.5l.2-.2h.8c.1-.1.1-.1.3-.2.1 0 .1-.1.2-.1h.4l.1-.1h.5l.2-.2h.7l.2-.2h.5l.2-.2h.2l.1-.1c.3-.1.4 0 .7 0l.1-.1c.2-.1.4 0 .6 0l.1-.1h.4l.2-.2h.3l.2-.2h.5c.1-.1.1-.1.2-.1h.4c.1-.1.1-.1.2-.1h.4l.1-.1c.2-.1.4 0 .4-.1l.1-.1h.4l.2-.2h.8l.2-.2h.5l.1-.1h.4l.1-.1h.4l.1-.1h.3l.2-.2h.5l.2-.2h.3l.2-.2h.1c.1-.1.1-.1.2-.1h1l.1-.1c.2-.1.3 0 .4-.1l.1-.1h.4l.2-.2h.1l.2-.2h.3l.2-.2h.5l.2-.2h.4l.1.1h.1c.2 0 .2 0 .2.2v.2l-.2.2h-.1l-.4.7h-.7c-.1-.1-.1-.1-.2-.1h-.3c-.1.1-.2.2-.3.2l-.4.4H66c-.1.1-.2.3-.4.4.1.1.3.2.4.4h1s.1-.1.2-.1h.5l.2-.2h.4l.2-.2h.3c.1-.1.2-.2.3-.1.1 0 .2-.1.3-.1h.9l.1-.1h.3l.2-.2h.4l.2-.2h.7l.2-.2h.5c.1-.1.1-.1.2-.1h.4l.1-.1h.4l.2-.2h.5l.2-.2h.7l.2-.2h.3c.1-.1.1-.1.2-.1h.4l.1-.1c.3-.1.4 0 .7 0l.1-.1c.3-.1.6 0 .9 0l.1-.1h.3l.2-.2h.1l.2-.2h.4c.1-.1.1-.1.2-.1h.7l.1-.1h.6l.1-.1c.1 0 .2-.1.3-.2h.4l.2-.2h.7l.2-.2h.5c.1-.1.1-.1.2-.1h.1c.1 0 .1-.1.2-.1h.4l.1-.1h.9l.1-.1h.2l.2-.2h.4l.2-.2h.4c.1-.1.1-.1.2-.1h.5l.1-.1h.4l.1-.1h.3l.2-.2h.4l.2-.2h1l.2-.2h.5l.2-.2h.3c.1-.1.1-.1.2-.1h.4l.1-.1h.8l.2-.2h.3l.2-.2h.5l.2-.2h.3c.1-.1.1-.1.2-.1h.4c.1-.1.1-.1.2-.1h.4l.1-.1c.1-.1.1-.1.2-.1s.1-.1.2-.2h.4l.2-.2h.1l.2-.2h1.1l.1-.1c.2-.1.4 0 .6-.1l.1-.1c.3-.1.5 0 .7 0l.1-.1h.4l.2-.2h.5l.2-.2h.5l.2-.2h.6c.1-.1.1-.1.2-.1h.3l.1-.1h.3l.2-.2h1l.2-.2h.4l.2-.2h.4l.2-.2h.4l.1-.1h.8l.1-.1h.4l.1-.1h.3l.2-.2h.4l.2-.2h.7c.1-.1.1-.1.2-.1h.5c.1-.1.1-.1.2-.1h.4l.1-.1h.4l.1-.1h.4l.2-.2h.7l.2-.2h.4c.1-.1.1-.1.2-.1h.5l.1-.1c.2-.1.4 0 .6-.1l.1-.1h.9l.1-.1h.4l.2-.2h.3l-.3 1h.3c.1-.1.1-.1.2-.1h.5l.1-.1h.9l.1-.1h.4l.2-.2h.5l.2-.2h1l.2-.2h.3l.2-.2h.3c.1-.1.1-.1.2-.1h.4l.1-.1h.5l.2-.2h.5l.2-.2h.5l.2-.2h.3c.1-.1.1-.1.2-.1h.5l.1-.1h.7l.1-.1h.3l.2-.2h.4l.2-.2h.4l.2-.2h.6l.1-.1c.2-.1.4 0 .4 0 .1-.1.1-.1.2-.1h.4l.1-.1h.7l.2-.2h.8l.2.2v.4s-.1.1-.1.2v.4l.4.4h.3l.4-.4v-.4s-.1-.1-.1-.2v-.1l-.4-.4V15c-.1-.1-.2-.2-.2-.3-.2.1-.2-.1-.3-.1h-.3l-.1.1c-.3.1-.4 0-.7 0l-.1.1h-.7c-2.5-.2-2.6-.1-2.6-.1h-.3l-.2.2h-.4l-.2.2h-.9c-.1.1-.1.1-.2.1h-.4l-.1.1c-.2.1-.4 0-.6.1l-.1.1h-.3l-.2.2h-.3l-.2.2h-.6l-.2.2h-.4c-.1.1-.1.1-.2.1h-.7l-.1.1h-.3l-.1.1h-.7l.1.1h-.4l-.2.2h-.3l-.2.2h-.4c-.1.1-.1.1-.2.1h-.7l-.1.1h-.7l-.1.1h-.3l-.2.2h-.4l-.2.2h-.7l-.2.2h-.5l-.1.1c-.3.1-.4 0-.7 0l.2.1h-.3l-.1.1h-.4l-.2.2h-1l-.2.2h-.5l-.2.2h-.3c-.1.1-.1.1-.2.1h-.5l-.1.1c-.3.1-.5 0-.7 0l-.1.1h-.4l-.2.2h-.4l-.2.2h-.4l-.2.2h-1c-.1.1-.1.1-.2.1h-.3l-.1.1h-.3l-.2.2h-.3l-.2.2h-.8l-.2.2h-.5l-.2.2h-.3c-.1.1-.1.1-.2.1h-.3l-.1.1c-.3.1-.5 0-.7 0l-.1.1h-.7l-.2.2h-.1l-.2.2h-.4l-.2.2h-.5l-.1.1c-.3.1-.4 0-.7 0l-.1.1h-.3l-.2.2h-.4l-.2.2h-.5l.4-.3h-.5l-.2.2H96v.1h-.5l-.1.1c-.2.1-.4 0-.4.1l-.1.1h-.5l-.2.2h-.5l-.2.2H93c-.1.1-.1.1-.2.1h-.4l-.1.1h-.7l-.2.2H91l-.2.2h-.7l-.1.1h-.4c-.1.1-.1.1-.2.1H89v.1h-.4l-.1.1c-.2.1-.4 0-.6 0l-.1.1H87l-.2.2h-.5l-.2.2h-.3c-.1.1-.1.1-.2.1H85l-.1.1c-.3.1-.5 0-.7 0l-.1.1h-.4l-.2.2H83l-.2.2h-1l-.2.2h-.3c-.1.1-.1.1-.2.1h-.4l-.1.1h-.8l-.2.2h-.5l-.1.1h-.3l-.2.2h-.4l.1.1h-.8l-.1.1h-.5l-.1.1h-.5l-.2.2h-.3l-.2.2h-.3c-.1.1-.1.1-.2.1h-1l-.2-.2V26l-.2-.2h-.2c-.1 0-.1-.1-.2-.2h-1.6l-.2.2h-1l-.1.2h-.5l-.1.1c-.2.1-.4 0-.4 0h-1.4l-.1.1h-3l-.1.1h-1.9c.4.2.3.2.3.2zm40.3 42.6l-.2.2h-.7l-.2.2h-.8c-.1.1-.1.1-.2.1-.2 0-.4-.1-.4.1v.1c-.1.1-.1.1-.1.2v.7c.1.1.1.1.1.2v.4l.1.1c.1.2 0 .4 0 .6l.1.1v.4l.2.2v.3l.2.2v.5l.2.2v.4c.1.1.1.1.1.2v.4l.1.1c.1.2 0 .4 0 .6l.1.1v.3l.2.2v.1l.2.2v1l.2.2v.5l.1.1c.1.2 0 .4.1.4l.1.1v.4l.2.2v.4l.2.2v.4l.2.2v.4l.2.2v.3l.1.1v.4l.1.1v.5l.1.1v.4l.2.2v.4l-.2.3v.4c.1.1.1.1.1.2v.4l.1.1c.1.2 0 .3.1.4l.1.1v.3l.2.2v.5l.2.2v1l.2.2c-.1.2.1.2.2.4v.2c.1.1.1.1.1.2v.4l.1.1v.4l.2.2v.5l.2.2v.4l.2.2v.4l.1.1c.1.1 0 .3 0 .4v.9l.3.3c.1.1.2.2.3.2h1.2l.1-.1h.5l.2-.2h.5l.2-.2h.3l.2-.2h.1l.4-.4v-.2c0-.1.1-.1.1-.2l-.1-.1c-.1-.2 0-.4-.1-.4l-.1-.1v-.7l-.1-.1v-.4l-.2-.2v-.1l-.2-.2v-.4c-.1-.1-.1-.1-.1-.2v-1.5l-.1-.1c-.1-.2 0-.4-.1-.4l-.1-.1v-.3l-.2-.2v-.4l-.2-.2v-.3l-.2-.2v-.3c-.1-.1-.1-.1-.1-.2v-.5s0-.1.1-.1h.4c.1.1.2.3.4.4v.1l.2.2.2.2v.2l.3.3c0 .1 0 .2.1.3l.2.2v.1l.3.3v.2c.1.2.3.3.4.4v.2c0 .1.1.1.2.2v.2c.1.1.2.1.3.2v.2l.4.4v.2l.3.3v.2l.3.3c0 .1 0 .2.2.3v.2l.4.4v.2l.4.4c0 .1.1.2.2.3v.1l.6.6h.1c.1 0 .1.1.2.1.1-.1.1-.2.3-.2.1 0 .1-.1.2-.1h.3l.2-.2h.7l.2-.2h.3l.2-.2h.4l.2-.2h.3c.1-.1.1-.1.2-.1h.5l.1-.1h.4l.1-.1c0-.1.1-.2.1-.3l-.1-.1v-1.1l-.1-.1v-.3l-.2-.2v-.4l-.2-.2v-.3l-.2-.2v-.7l-.1-.1v-.7l-.1-.1v-.3l-.2-.2v-.8l-.2-.2v-1l-.2-.2V83l-.2-.2v-.3l-.1-.1c-.1-.2 0-.4-.1-.4l-.1-.1v-.3l-.2-.2V81l-.2-.2v-.4l-.2-.2v-.3c-.1-.1-.1-.1-.1-.2v-.9c-.1-.1-.1-.1-.1-.2v-.3l-.1-.1v-.4l-.1-.1v-.3l-.2-.2v-.4l-.2-.2v-.5c-.1-.1-.1-.1-.1-.2v-.5l-.1-.1V75l-.1-.1v-.7l-.1-.1v-.5l-.2-.2V73l-.2-.2v-.3l-.2-.2V72l-.1-.1c-.1-.2 0-.4-.1-.4l-.1-.1V71l-.2-.2v-.7l-.2-.2v-.4l-.2-.2v-1.1l-.2-.2c-.1-.1-.1-.1-.1-.2v-.4l-.1-.1v-.2l-.4-.4c-.1 0-.2-.1-.3-.2-.1 0-.1.1-.2.2h-.7l-.2.2h-.3l-.2.2h-.4l-.1.1h-.3l-.1.1h-.7l-.2.2h-.3l-.2.2v1.2l.1.1v.5l.2.2v.3l.2.2v.4c.1.1.1.1.1.2v.4l.1.1c.1.2 0 .4.1.6l.1.1v1l.1.1v.4l.2.2v.3l.2.2v.3c.1.1.1.1.1.2v.3l.1.1c-.1.1-.2.1-.2.3 0 .1-.2.1-.2.1l-.1-.1c-.2 0-.3-.1-.4-.3V75l-.3-.3c0-.1 0-.2-.1-.3l-.2-.2v-.1l-.3-.3v-.2l-.5-.5V73l-.8-.8v-.1c-.2-.2-.4-.3-.4-.6l-.4-.4v-.2l-.5-.5v-.2l-.4-.4v-.2l-.4-.4v-.1c-.1-.2-.2-.3-.4-.3l-.1-.1h-.7l-.1.1h-.3l-.2.2c0 .1-.1.1-.3.1zM101 93.8l.8-.8c.1-.1.1-.1.1-.2s.1-.1.1-.2v-.1c0-.1.1-.1.2-.2v-.1l.2-.2v-.3c.1-.1.1-.1.1-.2V88c-.1-.1-.1-.1-.1-.2 0-.2 0-.3-.1-.4 0-.1 0-.2-.2-.3v-.4l-.2-.2v-.4l-.2-.2v-.4l-.2-.2v-.4c-.1-.1-.2-.1-.1-.3v-.2l-.1-.1c-.1-.2 0-.4-.1-.4l-.1-.1v-.5l-.2-.2v-.3l-.2-.2v-.3l-.2-.2V82l-.1-.1c-.1-.2 0-.4-.1-.6l-.1-.1v-.4l-.2-.2v-.4l-.2-.2v-.4l-.2-.2v-.8l-.2-.2v-.3c-.1-.1-.1-.1-.1-.2v-.4l-.1-.1v-.3l-.2-.2v-.4l-.2-.2v-.5l.2.1v-.1l-.1-.1v-.4l-.1-.1c-.1-.3 0-.4 0-.7l-.1-.1V74l-.2-.2v-.1l-.2-.2V73l-.2-.2v-.5c-.1-.1-.1-.1-.1-.2v-.8l-.1-.1v-.4l-.2-.2v-.2l-.2-.2h-.4s-.1.1-.2.1h-.1c-.1 0-.1.1-.2.2H96l-.2.2h-.1c.1.1 0 .2-.1.2h-.3c0 .1 0 .1-.1.1h-.4l-.1.1H94v.3c-.2 0-.4 0-.4.1s0 .2-.2.3v.7l.1.1v.7l.2.2v.4l.2.2v.4l.2.2v.3l.1.1c.1.2 0 .3 0 .4l.1.1v.7l.1.1v.4l.2.2v.3l.2.2v1.1l.2.2v.2c.1.1.1.1.1.2v.3l.1.1c.1.3 0 .5 0 .7l.1.1v.4l.2.2v.5l.2.2v.3l.2.2v.3c.1.1.1.1.1.2v1l.1.1v.2l.2.2v.3l.2.2v.4l.2.2v.4l.2.2v.4c.1.1.2.1.1.3 0 .1 0 .2.1.3v.4l.2.2v.5l.2.2v.8c.1.1.1.1.1.2v.7c-.1.1-.1.2-.2.3l-.3.3c-.1.1-.2.2-.3.2-.2 0-.2.1-.3.2h-.3s-.1.1-.2.1h-1.3l-.2-.2h-.2c0-.3-.3-.1-.3-.2v-.1l-.2-.2v-.5l-.2-.2v-.3l-.2-.2V89c-.1-.1-.1-.1-.1-.2 0-.2 0-.3-.1-.4v-.5l-.2-.2v-1.5l-.2-.2v-.3c-.1-.1-.1-.1-.1-.2v-.4l-.1-.1v-.2c0-.1-.1-.2-.1-.3v-.4l-.2-.2v-.3l-.2-.2V83l-.1.1v-.5c-.1-.1-.1-.1-.1-.2v-.5l-.1-.1v-.3l-.1-.1V81l-.2-.2v-.4l-.2-.2v-.3l-.2-.2v-.4l-.1-.1v-.3l-.1-.1v-1l-.1-.1V77l-.2-.2v-.3l-.2-.2V76h-.1v-.4l-.1-.1V75c-.1-.1-.1-.1-.1-.2v-.4l-.1-.1V74l-.2-.2v-.3l-.2-.2v-.5c-.3 0-.1-.3-.2-.3h-.1l-.2-.2h-.5l-.2.2h-.3c-.1.1-.1.1-.2.1h-.4l-.1.1c-.2.1-.4 0-.6.1v.2h-.7l-.1.2h-.1l-.2.2h-.3l-.2.2H85c-.1.1-.1.1-.2.1h-.5c-.1.1-.3.2-.4.4 0 .1 0 .1.1.2s.1.1.1.2v.2l.1.1c.1.2 0 .4 0 .6l.1.1v.4l.2.2v.5l.2.2v.5l.2.2v.3l.1.1v.5l.1.1v.5l.1.1v.3l.2.2v.1l.2.2v.5c.1.1.1.1.1.2v.5l.1.1v.3l.1.1v.3l.2.2V82l.2.2v.8l.2.2v.4c.1.1.1.1.2.3 0 .1.1.2.1.2v.4l.1.1v.4l.2.2v.4l.2.2v.5c.1.1.2.1.2.3 0 .1.1.1.2.3v.1l.1.1v.6l.1.1v.4l.2.2v.3l.2.2v.7l.2.2v.4c.1.1.2.1.1.3v.2c.1.1.1.1.1.2v.4l.1.1c.1.1.1.1.1.2s.1.1.2.2v1l.2.2v.4l.2.2v.3c.1.1.1.1.1.2 0 .2 0 .3.1.4v.3l.2.2v.1l.3.3v.2l.3.3c0 .1 0 .2.1.2l.4.4h.3c.1 0 .2.2.3.2.1 0 .1.1.2.2h.1l.2.2h.4c.1.1.1.1.2.1h1.9c.1-.1.1-.1.2-.1h.3c.1 0 .1-.1.2-.1h.4l.1-.1h.7l.2-.2h1l.2-.2H97l.2-.2h.3l.1-.1c.2-.1.4 0 .4 0 .1-.1.1-.1.2-.1h.4s.1-.1.2-.1h.2l.2-.2h.1l.2-.2h.3l.2-.2h.3l.1-.1c.1 0 .1 0 .2-.1l.3-.3h.2c.1 0 .1-.1.2-.2-.4-.9-.4-.9-.3-.9zm24-28.2c0 .2 0 .3-.1.4 0 .1 0 .2-.2.3v.3l-.2.2v.4l-.2.2v.4l-.2.2c-.1.1-.1.1-.1.2 0 .2 0 .3-.1.4 0 .1 0 .2-.2.3v.3l-.2.2v.1l-.2.2v.8l-.2.2v.4c-.1.2-.3.3-.4.4h-.4c-.1-.1-.1-.1-.1-.2s-.1-.1-.2-.2v-.5l-.2-.2v-1l-.2-.2v-.7c-.1-.1-.2-.1-.2-.3 0-.1-.1-.1-.1-.2v-.4l-.1-.1v-.4l-.2-.2v-1.2l-.2-.2v-.1l.2-.4h-.5l-.2.2h-.8l-.2.2h-.5c-.1.1-.1.1-.2.1h-.4c-.1.2-.4.1-.4.3h-.3l-.2.2h-1c-.1.1-.2.3-.4.4v.3s.1.1.1.2v.5l.2.2v.5l.2.2v.4l.1.1c.1.2 0 .4.1.6l.1.1v.8l.1.1v.5l.2.2v.4l.2.2v.3l.2.2v.6c.1.1.1.1.1.2v.5l.1.1v.4s.1.1.1.2v.3l.2.2v.4l.1-.1v1l.2.2v.3c.1.1.1.1.1.2v.3l.1.1v.4s.1.1.1.2v.3l.2.2v.7l.2.2v.3l.2.2v.4l.1.1v.7l.1.1v.4l.1.1v.4l.2.2v.4l.2.2v.5l.2.2v.4c.1.1.1.1.1.2 0 .2 0 .3.1.4.1.2 0 .4.1.4l.1.1v.2l.2.2v1.1l.2.2v.3l.2.2v.3l.1.1c.1.2 0 .4.1.6l.1.1c.1.2 0 .4.1.4l.1.1v1c.1.1.3.2.4.4h.6s.1-.1.2-.1h.4l.2-.2h.4l.2-.2h.3c.1-.1.1-.1.2-.1h.9l.1-.1c.2-.1.4 0 .6-.1l.1-.1h.4l.2-.2h.1l.1-.1v-.1l.1-.1v-.4s-.1-.1-.1-.2v-.4l-.2-.2v-.8l-.2-.2v-1.2l-.2-.2v-.3l-.1-.1c-.1-.2 0-.4-.1-.4l-.1-.1c-.1-.2 0-.4-.1-.4l-.1-.1v-.3l-.2-.2v-.3l-.2-.2v-.3c-.1-.1-.1-.1-.1-.2v-1.5l.2-.2h.3l.9.9v.2c.1.1.2.2.3.2v.3l.2.2v.2l.3.3v.1c0 .1.1.1.1.2l.4.4v.2l.3.3c0 .1 0 .2.1.3.1.1.3.2.4.4v.2c.1.1.3.3.3.4l.3.3v.2l-.4.3v.2l.5.5v.2l.5.5v.2c.1.2.2.3.4.4.1 0 .2 0 .3.2h.5s.1-.1.2-.1h.4l.2-.2h.7l.2-.2h.5c.1-.1.1-.1.2-.1h.4c.1-.1.1-.1.2-.1.2 0 .3 0 .4-.1h.5l.2-.2h.7l.2-.2h.2l.4-.4v-.3l-.2-.2v-.2c-.1-.1-.2-.2-.2-.3l-.7-.7v-.1c-.1-.1-.2-.2-.2-.3l-.7-.7v.2l-.4-.4v-.2l-.4-.4v-.2l-.5-.5v-.1l-.4-.4v-.2l-.9-.9c0-.1 0-.2-.1-.3-.1-.1-.3-.2-.4-.4-.1-.2-.2-.2-.3-.4v-.2l-.5-.5v-.2l-.4-.4v-.2l-.6-.6c-.1-.1-.1-.2-.1-.3l-.9-.9v-.2l-1.2-1.2v-.2c-.1-.1-.1-.1-.1-.2V74c.2-.1.1-.4.3-.4v-.3l.2-.2v-.3l.2-.2v-.3l.2-.2V72c.1-.1.1-.1.1-.2v-.4l.1-.1V71l.1-.1v-.4l.2-.2v-.1l.2-.2v-.3l.2-.2v-.3c.1-.1.1-.1.1-.2v-.3c.2-.1.1-.3.3-.4 0-.1.1-.2.2-.3v-1.2l.2-.2v-.1l.2-.2V66c.1-.1.2-.2.1-.3v.3c.1-.1.1-.1.1-.2v-.4l.1-.1v-.5l.2-.2v-.1l.2-.2v-.5l-.2-.2h-.7s-.1.1-.2.1h-.3l-.2.2h-.5l-.2.2h-.4c-.1.1-.1.1-.2.1h-.3l-.1.1h-.9l-.1.1h-.4l-.2.2h-.1l-.2.2h-.2l-.2.2v.1l-.2.2v.4l-.2.2v.1c0-.5-.1-.5-.1-.4zM71.5 46.8v11.7l.2.2V63l.4.4h.4l.2-.2h.1l.2-.2h.4l.1-.1c.2-.1.4 0 .6-.1.1 0 .1-.1.2-.1s.2-.1.3-.2h.4l.2-.2h.5l.2-.2h.2l.1.1c.1.1.1 0 .2 0s.1-.1.2-.1.1 0 .2-.1v-3.1c.1-.1.1-.1.1-.2s0-.2.1-.2h.2c.1 0 .1-.1.2-.2h.4l.2-.2.2-.2h.4l.1-.1c.2-.1.4 0 .6-.1l.1-.1h.3l.2-.2h.1l.2-.2h1.3l.2.2v.2l.3.3v.1c.1.1.2.2.3.4 0 .2.2.2.2.4 0 .1.1.1.1.2v.3l.2.2v.1l.6.6h1.2c.1-.1.1-.1.2-.1h.4l.1-.1c.3-.1.5 0 .7 0l.1-.1h.4l.2-.2h.3l.2-.2h.8l.2-.2v-.2c0-.1.1-.1.2-.2v-.5l-.4.1v-.2c-.1-.1-.2-.2-.2-.3l-.3-.3c0-.1-.1-.2-.2-.3v-.2c0-.1-.1-.1-.2-.2l-.1-.1v-.2c-.1-.1-.1-.2-.2-.3 0-.1-.1-.1-.1-.3 0-.1-.2-.2-.1-.3 0-.1-.1-.1-.1-.2v-.1l-.3-.3V55l-.1-.1c0-.1 0-.1-.1-.2s0 .1 0-.1c0-.1-.2-.2-.1-.3 0-.1-.1-.1-.1-.2V54c0-.1-.1-.1-.2-.2v-.1l-.2-.2v-.2c-.1-.1-.1-.2-.2-.3 0-.1-.1-.1-.1-.3 0-.1-.2-.2-.1-.3 0-.1-.1-.1-.1-.2v-.1l-.2-.2v-.1.2c0-.1 0-.2-.1-.2-.1-.1-.1-.2-.1-.3-.1-.1-.1-.1-.1-.3 0-.1-.2-.1-.1-.2 0-.1-.1-.2-.2-.3v-.1H84v-.1c-.1-.1-.1-.1-.1-.2v-.1c0-.1-.1-.1-.1-.2s-.1-.2-.1-.3c-.1-.1-.1-.2-.2-.3v-.2l-.3-.3v-.3c-.1-.1-.2-.1-.2-.2s-.2-.2-.2-.3c-.4.4-.5.4-.5.4 0-.2-.1-.2-.2-.3l-.1-.1V48v.1-.3c-.1-.1-.2-.2-.2-.3-.2-.1-.1-.3-.2-.4s-.1-.3-.2-.4c0-.1-.1-.2-.2-.3v-.2L81 46c-.1-.1-.2-.2-.2-.3-.2-.1-.1-.3-.2-.4-.1-.1-.1-.3-.2-.4 0-.1-.1-.2-.2-.3v-.2l-.2-.2V44l-.1-.1c-.1-.1 0-.1-.1-.2 0-.1-.1-.1-.1-.2s-.1-.2-.1-.3-.1-.2-.2-.3v-.2c0-.1-.1-.1-.2-.2v-.1l-.2-.2V42c-.1-.1-.1-.2-.2-.3 0-.1-.1-.1-.1-.3 0-.1-.2-.2-.1-.3 0-.1-.1-.1-.1-.2v-.1c0-.1-.1-.1-.2-.2v-.2c-.1-.1-.2-.2-.3-.2V40l-.3-.3c0-.1-.1-.2-.2-.3v-.3l-.2-.2v-.1l-.2-.2v-.2c-.1-.1-.1-.2-.2-.3 0-.1-.1-.1-.1-.3 0-.1-.2-.2-.1-.3 0-.1-.1-.1-.1-.2v-.1c0-.1-.1-.1-.2-.2v-.2l-.3-.3v-.1l-.3-.3v-.2c-.1-.1-.1-.2-.3-.2h-.4l.6 1.3H75l-.1.1h-.4l-.2.2H74l-.2.2H73l-.2.2h-.3c-.1.1-.1.1-.2.1h-.4l-.1.1h-.4l-.1.1h-.1c-.1.1-.2.1-.2.3v.7s.1.1.1.2v7.1c.2.5.3.5.4.5zM70.4 116c0-.1 0-.2-.1-.2-.1-.1-.1-.1-.1-.2 0 0 0-.1-.1-.1-.1-.1-.1-.1-.1-.2l-.5-.5h-.4s-.1.1-.2.1h-.8l-.2.2h-.4l-.2.2H67c-.1.1-.1.1-.2.1h-.4l-.1.1h-.7l-.1.1h-.2c-.1.1-.2.1-.2.3v.4l-.1.1v6.6l-.1.1v.4s.1.1.1.2v2.2l-.2.2v12l-.2.2v2.2l.4.4h.5l.2-.2h.7c.1-.1.1-.1.2-.1h.5l.1-.1.1-.1h.4l.1-.1h.3l.2-.2h.8l.2-.2h.2l.1-.1v-.1l.1-.1v-3l.2-.2v-.5l.2-.2h.3l.1-.1h.5l.2-.2h.5l.2-.2h.4l.2-.2h.4c.1-.1.1-.1.2-.1h.4l.1-.1h1l.1.1c.2 0 .2 0 .3.3l.3.3v.3l.2.2v.1l.2.2v.1l.2.2v.2c.1.1.1.1.1.3 0 .1.2.2.1.3 0 .1.1.1.1.2v.3l.2.2v.1l.2.2v.1c.1.1.3 0 .4.2h1s.1-.1.2-.1h.4l.2-.2h.2l.2-.2h.4c.1-.1.1-.1.2-.1h.4l.1-.1h.5l.1-.1c.1 0 .3 0 .2-.2 0 0 0-.1.1-.1.1-.1.1-.3.1-.4l-.1-.1v-.2c-.1-.1-.2-.2-.3-.2v-.2l-.2-.2v-.3c-.2-.1-.1-.3-.3-.4 0-.1 0-.1-.1-.2l-.3-.3v-.1c0-.1-.1-.1-.2-.2v-.3l-.2-.2v-.2c-.1-.1-.1-.2-.2-.3 0-.1-.1-.1-.1-.3 0-.1-.2-.2-.1-.3 0-.1-.1-.1-.1-.2v-.1l-.3-.3v-.3c-.2-.1-.1-.3-.3-.4 0-.1 0-.1-.1-.2l-.3-.3v-.3l-.2-.2v-.1l-.2-.2v-.2c-.1-.1-.2-.2-.2-.3l-.3-.3v-.3l-.2-.2v-.3l-.2-.2v-.1l-.2-.2v.5c-.2-.1-.1-.3-.3-.4 0-.1 0-.1-.1-.2l-.3-.3v-.2l-.2-.2v-.1l-.2-.2v-.3l-.1-.1c-.1-.1 0-.2-.1-.3-.1 0-.1-.1-.1-.2s-.2-.1-.1-.2c0-.1-.1-.2-.2-.3v-.1l-.2-.2v.3c-.1-.1-.1-.1-.1-.2v-.1c0-.1-.1-.1-.1-.2s-.1-.2-.1-.3c-.1-.1-.1-.2-.2-.3v-.2c-.1-.1-.2-.2-.3-.2v-.2c-.1-.1-.1-.1-.1-.2v-.1c0-.1-.1-.1-.1-.2s-.1-.2-.1-.3c-.1-.1-.1-.2-.2-.3 0-.1-.1-.2-.2-.3v-.2l-.2-.2v-.1c-.1-.1-.1-.1-.1-.2v-.1c0-.1-.1-.1-.1-.2s-.1-.2-.1-.3c-.1-.1-.1-.2-.2-.3 0-.1-.1-.2-.2-.3v-.2l-.3-.3c.1-.2-.1-.2-.2-.4v-.2l-.3-.3v-.2c0-.1-.1-.1-.2-.2v-.1l-.2-.2v-.1c-.1-.1-.1-.1-.1-.2v-.1c0-.1-.1-.1-.1-.2s-.1-.2-.1-.3c0-.1-.1-.2-.2-.3 0-.1-.1-.2-.2-.3v-.3l-.2-.2v-.1l-.2-.2c0-.1 0-.2-.1-.2-.1-.1-.1-.2-.1-.3l-.3-.3v-.2c0-.1-.1-.1-.2-.2v-.1l-.2-.2v-.1c1.4 1.2 1.3 1.1 1.3 1zm54.8-3.8v1.6l.2.2v.3l.2.2v.3c.1.1.1.1.1.2 0 .2 0 .3.1.4v.4l.2.2v.3l.2.2v.3l.2.2v.3l.2.2v.3c.1.1.1.1.1.2v.3c.1.1.2.1.1.2 0 .1.1.2.2.3v.1l.2.2v.3c.1.1.2.2.2.3.1.1.1.2.2.3.1.1.1.2.2.3l.1.1v.3l.2.2v.1l.2.2v.1c.1.1.3.3.3.4l.3.3v.2c0 .1.1.1.2.2v.2l.4.4c.1.1.1.2.1.3l1.9 1.9c.1.1.2.1.3.1l.5.5h.1l.3.3c.2 0 .2.1.3.2h.3s.1.1.2.1h.8l.2.2h.8l.2.2h1.3l.2-.2h.5l.1-.1c.3-.1.4 0 .7 0 .1-.1.1-.2.3-.1l.3-.3h.2c.1-.1.3-.2.4-.4.1-.1.2-.1.3-.1l.3-.3h.2l.3-.3h.2l1.2-1.2v-.2l.4-.4v-.2c.1-.1.2-.2.3-.2v-.2l.2-.2v-.1l.2-.2v-.3c.1-.1.1-.1.1-.2s.1-.2.1-.3v-.4c0-.1.1-.1.1-.2v-1.9l.2-.2v-.5l-.2-.2v-.3l-.5-.5h-.1c-.1-.1-.2-.1-.3-.2l-.1-.1c-.3-.1-.5 0-.7 0l-.1-.1h-.8l-.2-.2h-.4l-.2-.2h-.7c-.1-.1-.1-.1-.2-.1h-.3l-.2.2v2.2c-.1.1-.2.1-.2.2s-.2.2-.2.3c0 .1-.2.2-.1.3 0 .1-.1.1-.1.2l-.8.8H136c-.1.1-.1.1-.2.1h-.7c-.1-.1-.1-.1-.2-.1h-.3l-.3-.3h-.1l-.6-.6v-.1c-.1-.1-.1-.2-.2-.3 0-.1-.1-.1-.1-.3 0-.1-.2-.2-.1-.3 0-.1-.1-.1-.1-.2v-.1c0-.1-.1-.1-.2-.2v-.1l-.2-.2v-.2c-.1-.1-.1-.2-.2-.3 0-.1-.1-.1-.1-.3 0-.1-.2-.2-.1-.3 0-.1-.1-.1-.1-.2v-.4l-.2-.2v-.3l-.2-.2v-.3c-.1-.1-.2-.2-.2-.3-.1-.1-.2-.2-.1-.3v-.1l-.1-.1v-.3l-.2-.2v-.7l-.2-.2v-.3l-.2-.2v-.3c-.1-.1-.1-.1-.1-.2v-.8c-.1-.1-.1-.1-.1-.2v-.4l-.1-.1v-.4l-.2-.2v-.8c0-.1.1-.1.2-.2v-.4l.2-.2v-.8c.1-.1.1-.1.1-.2v-.7c.1-.1.1-.1.1-.2v-.2c0-.1.2-.2.2-.3l.1-.1h.1c.1-.1.1-.1.3-.1.1 0 .2-.2.3-.1.1 0 .1-.1.2-.1h.5s.1.1.2.1h.1l.2.2h.1l1.2 1.2v.1l.1.1c.1.1 0 .1.1.2 0 .1.1.1.1.2s.1.2.1.3c0 .1.1.2.2.3v.2c0 .1.1.1.2.2v.2l.2.2h.6l1.6-1.6s0-.1.1-.2l1.3-1.3v-.3l.2-.2v-.5c-.1-.1-.1-.1-.1-.2s-.1-.2-.1-.3 0-.1-.1-.2l-.3-.3v-.2l-.4-.4c0-.1 0-.2-.1-.2l-1.3-1.3c-.1 0-.2 0-.3-.1l-.2-.2h-.1l-.2-.2c-.1-.1-.2-.2-.3-.2-.1-.1-.1-.1-.2-.1s-.2-.2-.3-.1c-.1 0-.1-.1-.2-.1h-.3l-.2-.2h-.1l-.2-.2h-.1c-.1-.1-.1-.1-.2-.1h-2.8l-.1.1c-.2.1-.4 0-.4.1l-.1.1h-.3l-.1.1h-.2c-.1 0-.1.1-.2.2h-.1l-.2.2h-.1l-.2.2h-.3l-.1.1c-.2 0-.3.1-.4.2l-.3.3h-.2l-.2.2h.4l-.4.4v.2l-.4.4v.2l-.4.4v.1l-.4.4c0 .1 0 .2-.2.3v.2c0 .1-.1.1-.2.2v.1l-.2.2v.2c-.1.1-.1.2-.2.3 0 .1-.1.1-.1.2v.5l-.1.1v1.2l-.1.1v.4l-.2.2v1.3l-.2.2v.4c-.1.1-.1.1-.1.2-.1.2.1.2.1.3v1.2l.1.1v.4l.1.1.1-.2zM78 127.4l.2.2v.2l.1.1c.1.1 0 .2.2.3v.3l.1.1v.3l.1.1v.2c0 .1.1.1.2.2v.1l.2.2c0 .1 0 .2.1.2l.1.1c0 .1.1.2.1.3.1.1.1.2.2.3v.1l.3.3v.2c.1.1.1.2.2.2.1.1.1.2.1.3l.3.3v.2l.3.3v.1l.4.4c0 .1.1.2.1.3.1.1.3.2.4.4v.2l.7.7v.1c.1.1.2.1.3.1l.3.3h.1l.5.5c.1 0 .2 0 .2.1l.3.3h.1l.2.2h.1l.2.2h.2l.3.3c.1 0 .2 0 .3.2h.3l.2.2h.4l.2.2h.4c.1.1.1.1.2.1h.7c.1-.1.1-.1.2-.1H88l.1-.1c.2-.1.3 0 .4-.1l.1-.1h.3l.2-.2h.1l.2-.2h.3l.2-.2h.1l.3-.3c.1 0 .2 0 .3-.2h.2l.3-.3h.1l1.2-1.2v-.1l.2-.2v-.2l.3-.3c0-.1 0-.2.1-.3l.2-.2v-.3l.2-.2v-.6l.2-.2v-.5c.1-.1.1-.1.1-.2v-.9l.1-.1v-.9l-.1-.1v-.3l-.2-.2v-.3c-.1-.1-.3-.2-.4-.4H93c-.1 0-.1-.1-.2-.2h-.4l-.2-.2h-.3l-.2-.2h-.4c-.1-.1-.1-.1-.2-.1s-.2-.1-.2-.1c-.3-.1-.5 0-.7 0l-.1-.1h-1l-.2.2c-.1.2 0 .4 0 .7l-.1.1v.7l-.2.2v.4l-.2.2v.2c-.1.1-.2.2-.2.3l-.4.4h-.1c-.1 0-.2.1-.3.2h-1l-.1-.1H86l-.2-.2h-.1c-.1-.1-.1-.2-.1-.3l-.4-.4v-.2l-.3-.3c-.1-.1 0-.2-.2-.3 0-.1 0-.1-.1-.2 0-.1-.1-.1-.1-.2v-.3s-.1-.1-.1-.2v-.1c0-.1-.1-.1-.2-.2v-.3l-.2-.2v-.1c-.1-.1-.1-.2-.2-.3 0-.1-.1-.1-.1-.3 0-.1-.2-.2-.1-.3 0-.1-.1-.1-.1-.2v-.3l-.2-.2v-.4l-.2-.2v-.1l-.2-.2v-.4l-.1-.1c-.1-.2 0-.4 0-.4v-.9l-.1-.1v-.7l.3.1v-.4l-.2-.2v-.5l-.2-.2v-.4c-.1-.1-.1-.1-.1-.2v-2c.1-.1.1-.1.1-.2 0-.2 0-.3.1-.4 0-.1 0-.2.2-.3v-.2c0-.1.1-.1.2-.2v-.2l.2-.2h.2c.1 0 .1-.1.2-.2h.1l.2-.2h.3c.1.1.2.2.3.2.4.4.7.7 1.1 1v.2l.4.4s0 .1.1.2l.3.3v.4l.2.2v.1l.4.4H87l.2-.2h.3l.4-.4h.1l.5-.5h.2c.2-.2.4-.4.6-.5 0-.2 0-.2.3-.3l.3-.3c.1 0 .2 0 .3-.1l.1-.1c.1-.1.2-.2.2-.4l.1-.1v-.9l-.1-.1v-.2l-.3-.3v-.2c-.2-.1-.1-.3-.3-.4 0-.1 0-.1-.1-.2l-.3-.3v-.2l-.3-.3v-.2l-.3-.3c0-.1 0-.2-.1-.2l-.3-.3c-.1 0-.1 0-.3-.1l-.6-.6h-.1c-.1-.1-.2-.1-.3-.2l-.3-.3h-.2c-.1 0-.1-.1-.2-.2h-.1l-.2-.2h-.3l-.2-.2h-.3c-.1-.1-.2-.2-.3-.1-.1 0-.2-.1-.3-.2h-2l-.1.1h-.4l-.2.2h-.3l-.2.2h-.1l-.2.2h-.5c-.1.1-.1.1-.3.2-.1 0-.1.1-.2.1h-.2l-.8.8h-.2l-.8.8v.1l-.3.3c0 .1 0 .2-.1.2-.1.1-.1.1-.1.3 0 .1-.1.1-.1.2v.1c0 .1-.1.1-.2.2v.1l-.2.2v.3c-.1.1-.2.1-.2.3 0 .1-.2.1-.1.2 0 .1-.1.2-.1.3-.1.2 0 .4 0 .6l-.1.1v.3l-.2.2v.1l-.2.2v.3c-.1.1-.1.1-.1.2v.5l-.1.1v3.9l.1.1v1l.1.1v.4l.2.2v.1l.2.2v.4l.2.2v.5c.1.1.1.1.1.2v.3c.9.1.9.1.9.3 0 .1.1.1.1.2v.4l.2.2c-.3.2-.3.3-.3.4zm34-12.5h-.5l-.2.2h-1l-.2.2h-.3l-.1.1c-.2.1-.4 0-.4 0h-.5l-.4-.4v-.8l-.1-.1v-.3l-.2-.2v-.4l-.2-.2v-.7l-.2-.2v-.3c-.1-.1-.1-.1-.1-.2v-.6l.1-.1h.1l.2-.2h.5l.2-.2h.3c.1-.1.1-.1.2-.1h.4l.1-.1h.7l.2-.2h.5l.2-.2h.3l.2-.2h.4c.1-.1.1-.1.2-.1h.4c.1-.1.1-.1.2-.1h.3c.1-.1.2-.2.3-.2l.1-.1v-.2l-.1-.1v-.8l-.1-.1v-.7l-.1-.1v-.2l-.2-.2v-.4l-.2-.2v-.6l-.4-.4h-1l-.2.2h-.5c-.1.1-.1.1-.2.1h-.4c-.1.1-.1.1-.2.1h-.4l-.1.1h-.7l-.2.2h-.5l-.2.1h-.1l-.2.2h-.4c-.1.1-.1.1-.2.1h-.4l-.1.1c-.2.1-.4 0-.4.1l-.1.1h-.4l-.2.2h-.4l-.2.2h-.4l-.2.2H103c-.1.1-.1.1-.2.1h-.4l-.1.1h-.5l-.5.5v.9s.1.1.1.2v.3l.2.2v.5l.2.2v.4c.1.1.1.1.1.2v.4l.1.1c.1.2 0 .4 0 .6l.1.1v.4l.2.2v.3l.2.2v1l.2.2v.5c.1.1.1.1.1.2v.4c.1.1.1.1.1.2v.4s.1.1.1.2v.4l.2.2v.4l.2.2v.5l.2.2v.3c.1.1.1.1.1.2v.6l.1.1v.7l.1.1v.3l.2.2v.4l.2.2v.5l.2.2v.5l.1.1c.1.2 0 .4.1.4 0 .1.1.1.1.2s.1.2.2.3v.7l.2.2v.8l.2.2v.3c.1.1.1.1.1.2v.4c.1.1.1.1.1.2v.4l.1.1v.5l.2.2v.5l.2.2v.4l.2.2v.4c.1.1.1.1.1.2v.7l.1.1c.1.2 0 .4.1.6l.1.1v.4l.2.2v.4l.2.2v.1l.4.4h.3l.2-.2h.4l.2-.2h.5l.1-.1h.8c.1-.1.1-.1.2-.1s.2-.1.3-.2h.4l.2-.2h.4l.2-.2h.4c.1-.1.2-.2.3-.2.1-.1.2-.1.2-.2v-1.2c-.1-.1-.1-.1-.1-.2.2-.2.2-.2 0-.4v-.4s-.1-.1-.1-.2v-.3l-.2-.2v-.5l-.2-.2v-.7l-1-.8v-.4l-.1-.1v-.7l-.1-.1v-.5l-.1-.1v-.7l-.2-.2v-.5l-.2-.2v-.3l-.2-.2v-.3l-.1-.1c-.1-.1-.1-.3-.2-.4v-.1c0-.1-.1-.2-.1-.2v.1c0-.1.1-.1.2-.2v-.1c0-.1.1-.1.2-.1s.1-.1.2-.1h.4l.2-.2h.7l.2-.2h.4l.2-.2h.3c.1-.1.2-.2.3-.1h.1c.1-.1.1-.1.2-.1h.4l.1-.1h.3c.1-.1.2-.3.4-.4v-.5s-.1-.1-.1-.2v-.5l-.2-.2v-1.2c-.1-.1-.1-.1-.1-.2v-.1c0-.1-.1-.1-.1-.2s-.1-.2-.1-.3c-.1-.1-.1-.2-.2-.3 0-.1-.1-.2-.2-.3v-.2l-.2-.2c0-.1 0-.2-.1-.2h-.3s-.1.1-.2.1h-.3c-.3.1-.3.1-.4.2zm6.4 24.5c-.1.2-.4.1-.4.3h-.4l-.2.2h-.7l-.2.2h-.7l-.2.2h-.4c-.1.1-.1.2-.3.2-.1 0-.1.1-.2.1-.2.1-.4 0-.5 0l-.1.1h-.5l-.2.2h-.4l-.2.2h-.4l-.2.2h-.3c-.1.1-.1.1-.2.1h-.7l-.1.1h-.9l-.1.1h-.3l-.2.2h-.3l-.2.2h-1l-.2.2h-.3l-.2.2v.3l.2.2h2s.1-.1.2-.1h.5l.2-.2h1.6l.2-.2h4.3l.1-.1c.2-.1.3 0 .4 0h1.4l.1-.1h.8l.1-.1h4l.2-.2h2.2l.2-.2h.4c.1-.1.1-.1.2-.1h.7l.2.2h.4l.1-.1h.4l.2-.2h2.6l.2-.2h4.1l.2-.2h1.3c.1-.1.1-.1.2-.1h.5l.1-.1h2.2l.1-.1h3.5l.1-.1h.4l.2-.2h.3l1-1v-.2c0-.1.1-.1.2-.2v-.1c.1-.1.1-.1.1-.2v-3.1l-.2-.2V134l-.2-.2h-.8l-.2.2h-.5c-.1.1-.1.1-.2.1-.2 0-.3 0-.4.1-.1 0-.2 0-.3.2h-.5l-.2.2h-1.1l-.2.2h-.4c-.1.1-.2.2-.3.2-.1 0-.1.1-.2.1h-.1l-.1.1c-.2.1-.4 0-.6 0l-.1.1h-.7l-.2.2h-.3l-.2.2h-.5l-.2.2h-.8c-.1.1-.1.1-.2.1h-.4c-.1 0-.1.1-.2.1s-.2.1-.3.2h-.8l-.2.2h-.7l-.2.2h-.4l-.2.2h-.3c-.1.1-.2.1-.3.1h-.1l-.1.1h-.8l-.1.1h-.7l-.2.2h-.3l-.2.2h-.4l-.2.2h-.3c-.1.1-.1.1-.2.1h-.4l-.1.1h-.7l-.2.2h-.4l-.2.2h-.4l-.2.2h-.8l-.1.1h-.4l-.1.1c-.2.1-.4 0-.4.1l-.1.1-.2.2h-.5l-.2.2h-.4l-.2.2h-.5c-.1.1-.1.2-.3.2-.1 0-.1.1-.2.2h-1.1l-.1.1h-.4l-.2.2h-.4l-.2.2h-.4l-.2.2h-.4c-.1.1-.1.1-.2.1 1-1.4.8-1.4.5-1.4.1 0 .1 0 0 0zm-26.6-27.9v.5l.2.2v.4l.2.2v.4l.1.1c.1.2 0 .4.1.6l.1.1v.6l.1.1v.3l.2.2v.5l.2.2v.4c.1.1.1.1.1.2v.4c.1.1.1.1.1.2v.4l.1.1v.4l.2.2v.3l.2.2v1l.2.2v.3c.1.1.2.1.1.3v.2l.1.1c.1.2 0 .4.1.4l.1.1v.4l.2.2v.5l.2.2v.4l.2.2v.4c.1.1.1.1.1.2v.9l.1.1c.1.2 0 .3.1.4l.1.1v.3l.2.2v.7l.2.2v.4l.2.2v.4c.1.1.1.1.1.2v.4l.1.1v.3l.2.2v.8l.2.2v.3l.2.2v.3c.1.1.2.1.2.3 0 .1.1.1.2.3v.4l.1.1c.1.2 0 .4.1.4l.1.1v.5l.2.2v.1l.2.2v.4l.2.2v.4l.4.4h.3c.1-.1.1-.1.2-.1h.1l.1-.1h.3l.1-.1h.5l.2-.2h.4l.2-.2h.7l.2-.2h.3c.1-.2.3-.1.4-.3.1-.2.3-.3.4-.4 0-.3 0-.3-.1-.4v-.4l-.2-.2v-.5l-.2-.2V130l-.2-.2v-.4c-.1-.1-.1-.1-.1-.2v-.4l-.1-.1v-.9l-.1-.1v-.3l-.2-.2v-.5l-.2-.2v-.4l-.2-.2v-.4c-.1-.1-.1-.1-.1-.2v-.4c-.1-.1-.1-.1-.1-.2v-.4l-.1-.1v-.4l-.2-.2v-1.1l-.2-.2v-.3l-.2-.2v-.3c-.1-.1-.1-.1-.1-.2v-.4l-.1-.1v-.5l-.1-.1v-.5l-.2-.2v-.3l-.2-.2v-.5l-.2-.2v-.5l-.1-.1v-.7l-.1-.1v-.1c0-.1-.1-.2-.2-.3v-.5l-.2-.2v-.4l-.2-.2v-.3c-.1-.1-.1-.1-.1-.2v-.4l-.1-.1c-.1-.2 0-.4-.1-.6l-.1-.1v-.7l-.2-.2v-.4l-.2-.2v-.1l-.2-.2v.3c-.1-.1-.1-.1-.1-.2v-.4l-.1-.1c-.1-.2 0-.4-.1-.6l-.1-.1v-.5l-.2-.2v-.5l-.2-.2v-.1l-.2-.2v-.1c-.1-.2-.3-.3-.4-.4h-.4c-.1.1-.1.1-.2.1h-.1c-.1 0-.1.1-.2.1s-.2.1-.3.1h-.4l-.2.2H94l-.2.2h-.5l-.2.2h-.4c-.1.1-.1.1-.2.1h-.3c-.1.2-.3.1-.4.2l-.2.2-.1.1c0 .1 0 .3.1.4v.3l.2.2v.5c-.1.1-.1.2 0 .2zM137 21.8h-.5c-.1-.1-.1-.1-.2-.1h-1.5l-.2.2h-.5l-.1.1h-1.2l-.1.1v.1c-.1.1-.1.1-.1.2v.4c.1.1.1.1.1.2v.4c.1.1.1.1.1.2v.4l.1.1v.4l.2.2v.7l.2.2v.5l.2.2v.3c.1.1.1.1.1.2v.7l.1.1v.4l.1.1v.7l.2.2v.3l.2.2v.3l.2.2v.8l.1.1c.1.2 0 .3 0 .4v.5l.1.1v.1l.2.2v.3l.2.2v.4l.2.2v.7l.2.2v.5c.1.1.2.1.1.3v.2l.1.1c.1.3 0 .5 0 .7l.1.1v.7l.2.2v.5l.2.2v.3c.1.1.1.1.1.2v.6l.2.2v.4l.1.1v.4l.2.2v.4l.2.2v.1l.2.2v1c.1.1.1.1.1.2v.4c.1.1.1.1.1.2 0 .2 0 .3.1.4v.4l.2.2v.2l.2.2v.5l.2.2v.4c.1.1.1.1.1.2v.4l.1.1v.5l.1.1v.5l.2.2v.4l.2.2v.4l.2.2v.4c.1.1.1.1.1.2v.6l.1.1c.1.2 0 .4 0 .6l.1.1v.3l.2.2.2.2v1l.2.2v.4c.1.1.2.1.1.3v.3c.1.1.1.1.1.2v.4l.1.1v.5l.2.2v.7l.2.2v.1l.2.2v.3l.1.1v.6h-.8c.1.3 0 .5 0 .7l.1.1v.5l.2.2v.3c.1.1.1.1.1.2 0 .2 0 .2.2.2.2-.1.3-.2.3-.4l.1-.1V58l-.1-.1v-4l-.2-.2v-.4l-.2-.2v-1l-.2-.2v-3.8l-.1-.1v-1.7l-.1-.1v-1.7l-.1-.1v-1.2l-.2-.2v-3l-.2-.2v-2.6l-.2-.2v-.3l-.1-.1v-1.5l-.1-.1v-2l-.1-.1v-1.6l-.2-.2v-1l-.2-.2v-1.2c-.1-.1-.1-.1-.1-.2v-2.9l-.1-.1v-1.1c0-.1-.1-.1-.1-.2s-.1-.2-.1-.2l-.2-.2v-.1l-.2-.2v-.2l-.7-.7c-.1 0-.1 0-.2-.1.2-.6.1-.7 0-.7zm-20.9 85.3v.8l.2.2v.5l.2.2v.3c.1.1.1.1.1.2v.5l.1.1v.5l.1.1v.5l.2.2v.4l.2.2v.3l.2.2v.7l.1.1v.7l.1.1c.1.2 0 .4.1.4l.1.1v.5l.2.2v.5l.2.2v.5l.2.2v.3c.1.1.2.2.1.3v.1l.1.1c.1.2 0 .4.1.4l.1.1v1l.2.2v.4l.2.2v.3l.2.2v.4l.1.1.1.1v.4l.1.1v.5l.1.1v.5l.2.2v.5l.2.2v.5l.2.2v.5c.1.1.1.1.1.2v.4l.1.1v.5l.1.1v.5l.2.2v.8l.2.2v.3c.2.2.4.4.4.5h.7l.1-.1c.1 0 .2 0 .2-.1.1-.1.2-.1.3-.1h.1l.1-.1h.3l.2-.2h1l.2-.2h.8c.1-.1.1-.1.2-.1.2 0 .2 0 .2-.2 0-.1.1-.1.2-.2v-.3c.1-.1.1-.1.1-.2v-.4l-.2-.2v-.6l-.2-.2c.1-.2 0-.3-.1-.4v-.3l-.2-.2v-.4l-.2-.2v-.5l-.2-.2v-.8l-.2-.2v-.4l-.1-.1v-.5l-.1-.1v-.7l-.1-.1v-.7l-.2-.2v-.4l-.2-.2v-.4l-.2-.2v-.4c-.1-.1-.1-.1-.1-.2v-.4l-.1-.1v-.3l-.2-.2v-.3l-.2-.2v-1l-.2-.2v-.5l-.2-.2v-.3c-.1-.1-.2-.2-.1-.3v-.1l-.1-.1v-.5l-.1-.1v-.5l-.2-.2v-.4l-.2-.2v-.4l-.2-.2v-.5l-.1-.1c-.1-.2 0-.3 0-.4v-.5c-.1-.1-.1-.1-.1-.2s-.1-.2-.2-.3v-.3l-.2-.2v-.4l-.2-.2v-.3l-.2-.2v-.4c-.1-.1-.1-.1-.1-.2v-.6l-.1-.1v-.6l-.1-.1v-.8l-.2-.2v-.3l-.2-.2v-.4l-.4-.4h-.2c-.1-.1-.1-.1-.2-.1-.2-.1-.2.1-.3.1h-1.2l-.2.2c-.2-.1-.3 0-.4.1h-.3l-.2.2h-.5l-.2.2h-.4l-.2.2h-.3c-.2.1-.3.3-.4.4v.4l.2.2v.5c.1.1.2.2.1.3 0 .1.1.2.1.3v.4l.2.2v.3c.4.6.4.6.5.6zm-84.9 22.1l.2.2v3.5l.2.2v2.1l.1.1c.1.2 0 .4.1.6l.1.1v1.3l.1.1v1.6l.2.2v3.3l.2.2v.5l.2.2v1.6c.1.1.1.1.1.2v.3c.1.1.1.2.2.3l.7.7h.2l.3.3c.1.1.2 0 .3.1.1.1.2.1.3.1l.1.1H37l.1-.1h.5l.2-.2h.7l.2-.2h.3c.2-.1.3-.3.4-.4v-.3c-.1-.1-.2-.2-.2-.3l-.3-.3v-.3l-.2-.2v-.5l-.2-.2v-.7l-.2-.2v-.3l-.2-.2v-.3l-.1-.1c-.1-.3 0-.4 0-.7l-.1-.1v-.5l-.1-.1v-.2c0-.1-.1-.1-.2-.2v-.5l-.2-.2v-.5l-.2-.2v-.5c-.1-.1-.1-.1-.1-.2v-.4l-.1-.1v-.3l-.2-.2v-.5l-.2-.2v-.7l-.2-.2v.2l-.2-.2v-.3l-.1-.1-.1-.1v-.4l-.1-.1c-.1-.2 0-.4 0-.6l-.1-.1v-.8l-.2-.2v-.3l-.2-.2v-.4l-.2-.2v-1.1c-.1-.1-.1-.1-.1-.2 0-.2 0-.3-.1-.4v-.3l-.2-.2v-.5l-.2-.2v-.3l-.2-.2v-.4l-.2-.2v-.3c-.1-.1-.1-.1-.1-.2v-.3l-.1-.1V126l-.1-.1v-.3l.1.4v-.3l-.2-.2v-.4c-.1-.1-.1-.1-.1-.2v-.4l-.1-.1v-.7l-.1-.1v-.4l-.2-.2v-.3l-.2-.2v-.5H33v-.8l-.1-.1c-.1-.1 0-.2-.2-.3v-.3l-.1-.1c-.1-.2 0-.4 0-.6l-.1-.1v-.4l-.2-.2v-.4l-.2-.2v-.3l-.2-.2v-.3l-.1-.1v-1l-.1-.1v-.3l-.2-.2v-.1l-.2-.2v-.3l-.2-.2v-.2l-.1-.1v-.4l-.1-.1c-.1-.2 0-.4-.1-.6l-.1-.1v-.5l-.2-.2v-.7c-.1-.1-.3-.2-.4-.4-.1.1-.2.3-.4.4v1l.1.1v1.8l.2.2v2.3l.2.2v1.3c.1.1.1.1.1.2v1.2l.1.1v1.9l.1.1v3.7l.1.1v1.5l.2.2c.4.5.4.8.4 1zm82.1-35.3l-.2.2h-.4l-.2.2h-.3l-.1.1c-.3.1-.4 0-.7 0l-.1.1h-.7l-.1.1h-.3l-.2.2h-.3l-.2.2h-.4l-.2.2h-.8c-.1.1-.1.1-.2.1h-.4l-.1.1h-.3l-.2.2h.1l-.2.2h-1l-.2.2h-.3l-.2.2h-.3c-.1.1-.1.1-.2.1h-.4l-.1.1h-.7l-.1.1h-.5l-.2.2h-.3l-.2.2h-.1c-.1.1-.1.1-.2.1h-.7l-.1.1c-.3.1-.4 0-.7 0l-.1.1h-.1c-.1 0-.2.1-.3.2h-.5l-.2.2h-.5l-.2.2h-.5l-.2.2h-.3c-.1.1-.1.2-.3.1H97l-.1.1h-.8l-.1-.3h-.7l-.2.2H95l-.2.2h-.4c-.1.1-.1.1-.2.1h-.4l-.1.1h-1.2l-.2.2H92l-.2.2h-.3l-.2.2h-.8c-.1.1-.1.1-.2.1h-.4l.4.1c-.2 0-.3 0-.4.1h-.5l-.2.2h-.5l-.2.2h-.4l-.2.2h-.3c-.1.1-.1.1-.2.1H87l-.1.1h-1l-.1.1h-.4l-.2.2h-.3l-.2.2h-.3l-.2.2h-.5c-.1.1-.1.1-.2.1H83l-.1.1c-.2.1-.4 0-.6.1l-.1.1h-.4l-.2.2h-.4l-.2.2h-.7l-.2.2h-.3l-.2.2h-.3l-.1.1c-.2.1-.4 0-.6.1l-.1.1h-.7l-.1.1h-.5l-.2.2h-.3l-.2.2h-.3c-.1.1-.1.1-.2.1h-1l-.1.1h-.3l-.1.1h.5c-.1 0-.1.1-.2.2h-.4l-.2.2h-.7l-.2.2h-.5l-.2.2h-.3l-.1.1c-.2.1-.4 0-.6.1l-.1.1h-.8l-.2.2h-.4l-.2.2h-.1l-.2.2h-.4c-.1.1-.1.1-.2.1h-.5l-.1.1c-.2.1-.4 0-.6 0l-.1.1h-.4l-.2.2h-.7l-.2.2h-.1c-.1.1 0 .3-.2.4v.4l.2.2v.3c0 .1.1.1.2.1s.1.1.2.1h.8s.1-.1.2-.1h.3l.2-1h.8l.2-.2h.4l.2-.2h.3l.1-.1c.2-.1.4 0 .6 0l.1-.1h.7l.2-.2h.4l.2-.2h.4c.1-.1.2-.2.3-.2.1-.1.1-.1.2-.1h.7l.1-.1h.5l.1-.1h.2c.1 0 .1-.1.2-.2h.1l.2-.2h.5l.2-.2h.5l.1-.1c.2-.1.4 0 .6-.1l.3-.3h.5l.2-.2h.7l.2-.2h.7l.2-.2h.4c.1-.1.1-.1.2-.1h.4l.1-.1c.3-.1.5 0 .7 0l.1-.1h.2l.2-.2h.1l.2-.2h.7l.2-.2h.8c.1-.1.1-.1.2-.1h.4l.1-.1h.3l.2-.2h.3l.2-.2h.7l.2-.2h.5l.2-.2h.4c.1-.1.1-.2.3-.1h.2l.1-.1h.4l.1-.1h.7l.2-.2h.3l.2-.2h.3l.2-.2h.7l.1-.1c.2-.1.4 0 .6-.1l.1-.1h.5l.1-.1h.2c.1 0 .1-.1.2-.2h.4l.2-.2h1l.2-.2h.3c.1-.2.3-.1.4-.2l.1-.1h.3l.2-.2h.7l.2-.2h.5l.2-.2h.3l.2-.2h.3l.1-.1h1l.1-.1h.4l.2-.2h.3l.2-.2h.5l.2-.2h.7l.2-.2h.3c.1-.2.3-.1.4-.2l.1-.1h.3l.2-.2h.8l.2-.2h.5l.2-.2h.3c.1-.1.1-.1.2-.1h.4l.1-.1h.7l.1-.1h.4l.2-.2h.5l.2-.2h.3l.2-.2h.4c.1-.1.1-.1.2-.1h.7l.2-.2c.2.1.3 0 .4-.1h.5l.2-.2h.4l.2-.2h.7l.2-.2h.5l.2-.2h.3c.1-.1.1-.2.3-.1h.2l.1-.1h.7l.2-.2h.5l.2-.2h.3l.2-.2h.4c.1-.1.1-.1.2-.1h.5l.1-.1c.2-.1.4 0 .6-.1l.1-.1h.4l.2-.2h.3l.2-.2h.5l.2-.2h1l.2-.2h.3c.1-.1.1-.2.3-.1h.2l.1-.1h.4l.2-.2h.5l.2-.2h.3l.2-.2h.4c.1-.1.1-.2.3-.1h.2l.1-.1h1.2l.1-.1h.3l.2-.2h.3l.2-.2h.5l.2-.2h.6c.1-.1.1-.1.2-.1h.5c.1-.1.2-.1.2-.1.1 0 .2-.1.3-.2h.3l.2-.2h.8l.2-.2h.5l.2-.2h.3c.1-.1.1-.1.2-.1h.7l.1-.1c.2-.1.3 0 .4-.1l.1-.1h.4l.2-.2h.3l.2-.2h.3l.2-.2h.8c.1-.1.1-.1.2-.1h.7l.1-.1c.2-.1.3 0 .4-.1l.1-.1h.3l.2-.2h.4l.2-.2h.8l.2-.2h.4c.1-.1.2-.2.3-.1h.1l.1-.1c.2-.1.4 0 .6 0l.1-.1h.5l.2-.2h.3c.1-.1.2-.3.4-.4v-.8l-.4-.4h-.6s-.1.1-.2.1h-.3l-.2.2h-.4l-.2.2h-.3c-.1.1-.1.1-.2.1h-.5L138 88h-.9l-.1.1h-.3l-.2.2h-.3l-.2.2h-.4l-.2.2h-.8c-.1.1-.1.1-.2.1h-.4c-.1 0-.1.1-.2.1s-.2.1-.3.2h-.4l-.2.2h-.7l-.2.2h-.7l-.2.2h-.3c-.1.1-.1.1-.2.1h-.4l-.1.1c-.2.1-.4 0-.6 0l-.1.1h-.4l-.2.2h-.4l-.2.2h-.4l-.2.2h-.5l-.1.1c-.3.1-.4 0-.7 0l-.1.1h-.3l-.1.1h-.3l-.2.2h-.4l-.2.2h-.7l-.2.2h-.5c-.1.1-.1.2-.3.1h-.2l-.1.1h-.7l-.1.1h-.4l-.2.2h-.5l-.2.2h-.3l-.2.2h-.3l-.1.1h-.8l-.1.1h-.4l-.2.2h-.4l-.2.2h.4l-.2.2h-.8l-.2.2h-.5c-.1.1-.1.1-.3.2-.1 0-.1.1-.2.1h-.3l-.2.2h-.5l-.2.2c-.9-.2-1.1-.2-1.3-.2zM68.4 68.3l.3-.2h1.1l.2-.2h.4l.2-.2c.2.1.3 0 .4-.1h.3l.2-.2h.5l.2-.2h.8l.2-.2c.2.1.2-.1.3-.2h.4c.1-.1.1-.1.2-.1h.5l.1-.1h.3l.2-.2h.3l.2-.2h.3l.2-.2h.5c.1-.1.1-.1.2-.1h.7c.1-.1.1-.1.2-.1h.4l.1-.1h.4l.2-.2h.4l.2-.2h.5l.2-.2h.3l.2-.2h.3l.1-.1c.2-.1.4 0 .4-.1l.1-.1h.7l.2-.2h.5l.2-.2h.3l.2-.2h.4c.1-.1.1-.1.2-.1h.7l.1-.1c.2-.1.3 0 .4-.1l.1-.1h.4v.4h.5l.2-.2h.4l.2-.2h.5c.1-.1.1-.1.2-.1h.3c.1 0 .1-.1.2-.1h.4l.1-.1h.7l.2-.2h.5l.2-.2h.4l.2-.2h.3l.1-.1c.2-.1.4 0 .4-.1l.1-.1h.7l.1-.1h.4l.2-.2h.3l.2-.2.2-.2h.9c.1-.1.1-.1.2-.1.2 0 .3 0 .4-.1h.3l.2-.2h.5l.2-.2h.4l.2-.2h.5l.2-.2h.3c.1-.1.1-.2.3-.1h.2l.1-.1h.8l.2-.2h.4l.2-.2h.3l.2-.2h.5c.1-.1.1-.1.2-.1h.4l.1-.1c.2-.1.4 0 .6-.1l.1-.1h.4l.2-.2h.3l.2-.2h.5l.2-.2h.8c.1-.1.1-.1.3-.2.1 0 .2-.1.2-.1.2-.1.4 0 .4-.1l.1-.1h.5l.2-.2h.5l.2-.2h.4l.2-.2h.3c.1-.1.2-.2.3-.1h.1l.1-.1h.9l.1-.1h.4l.2-.2h.4l.2-.2h.3l.2-.2h.6c.1-.1.1-.1.2-.1h.5l.1-.1h.3l.1-.1h.2c.1 0 .1-.1.2-.2h.8l.2-.2h.5l.2-.2h.3c.1-.1.2-.2.3-.1h.1l.1-.1c.3-.1.5 0 .7 0l.1-.1h.5l.2-.2h.3l.2-.2h.4l.2-.2h.4l.1-.1h1c.1-.1.1-.1.2-.1s.2-.1.3-.2h.3l.2-.2h.4l.2-.2h.7c.1-.1.1-.1.2-.1h.5c.1-.1.1-.1.2-.1h.3l.1-.1h.4l.2-.2h.8l.2-.2h.3l.2-.2h.3c.1-.1.1-.1.2-.1h.5l.1-.1h.7l.1-.1h.5l.5-.5v-.5s-.1-.1-.1-.2v-.2l-.2-.2h-.4s-.1.1-.2.1h-.1l-.2.2H127l-.2.2c-.2 0-.2.1-.3.2h-.7l-.1.1c-.2.1-.4 0-.6 0l-.1.1h-.4l-.2.2h-.4l-.2.2h-.4l-.2.2h-1c-.1.1-.2.2-.3.1h.1c-.1.1-.1.1-.2.1h-.3s-.1.1-.2.1h-.3l-.2.2h-.7l-.2.2h-.7c-.1.1-.1.2-.3.2-.1 0-.1.1-.3.2h-.4l-.1.1h-.8l-.1.1h-.2l-.2.2h-.3l-.2.2h-.3l-.2.2h-.5l-.1.1c-.3.1-.4 0-.7 0l-.1.1h-.3l-.2.2h-.4l-.2.2h-.5l-.2.2h-.6l-.2.2h-.3c-.1.1-.1.1-.2.1s-.2.1-.3.2h-.4l-.2.2h-1l-.2.2h-.2l-.2.2h-.3l-.2.2h-.3l-.1.1h-.9l-.1.1h-.4l-.2.2h-.3l-.2.2h-.4l-.2.2h-.6c-.1.1-.1.1-.2.1h-.4l-.1.1h-.3l-.1.1h-.3l-.2.2h-1.2l-.2.2h-.3l-.2.2h-.1c-.1.1-.1.1-.2.1h-.4l-.1.1c-.2.1-.4 0-.6.1l-.1.1h-.8l.2.5h-.3l-.2.2h-.1l-.1.2h-.5l-.1.1c-.3.1-.4 0-.7 0l-.1.1h-.3l-.2.2H96l-.2.2h-.7l-.1.1h-.4l-.2.2H94l-.1.1c-.3 0-.3 0-.4.1h-.3l-.2.2h-1.1l-.2.2h-.3l-.2.2h-.1l-.2.2h-.4l-.1.1c-.3.1-.4 0-.7 0h.2c-.2.1-.4 0-.6 0l-.1.1H89l-.2.2h-.4l-.2.2h-.7l-.2.2h-.6c-.1.1-.1.1-.2.1s-.2.1-.2.1c-.2.1-.4 0-.6 0l-.1.1h-.5l-.2.2h-.4l-.2.2H84c-.1.1-.1.1-.2.1h-.5l-.1.1c-.2.1-.4 0-.6.1l-.1.1h-.8l-.2.2h-.7l-.2.2h-.3c-.1.1-.1.1-.2.1h-.7l-.1.1c-.2.1-.4 0-.6.1l-.1.1h-.3l-.2.2H78l-.2.2h-1.4c-.1.1-.1.1-.3.2-.1 0-.2.1-.2.1h-.4l-.1.1h-.8l-.2.2H74l-.2.2h-.3l-.2.2c-.2 0-.2.1-.3.2h-1l-.1.1h-.4l-.1.1c-.1.1-.1.1-.2.1s-.1.1-.2.2h-.3l-.2.2h-.7l-.2.2h-.5c0-.1 0-.1-.1-.1h-.5l-.1.1h-.3l-.1.1h-.4l-.2.2h-.7l-.2.2h-.4l-.1.2h-.4c-.1.1-.1.1-.2.1H65l-.1.1c-.2.1-.4 0-.6 0h-.5l-.2.2h-.3l-.2.2h-.4l-.2.2h-.8c-.1.1-.1.1-.2.1-.2 0-.3 0-.4.1H61l-.2.2h-.4l-.2.2h-.5l-.2.2h-.7c.5-.2.5-.2.4-.2-.1 0-.1.1-.3.2h-.4l-.1.1h-.7l-.2.2h-.4l-.2.2h-.4l-.2.2h-.4c.2-.1.2-.1.1-.1h-1l-.1.1c-.2 0-.3.1-.4.3v.9c0 .1 0 .1.1.1h.1l.2.2h.1l.2-.2h.3c.1-.1.1-.1.2-.1h.6l.1-.1c.3-.1.5 0 .7 0l.1-.1h.4l.2-.2h.4l.2-.2h.4l.2-.2h.4c.1-.1.1-.1.2-.1h1l.1-.1c.1-.1.3-.1.4-.2h.1c.1 0 .2-.1.2-.2h.5l.2-.2h.7l.2-.2h.5c.1-.1.1-.2.3-.1h.2c.1-.1.1-.1.2-.1h.4s.1-.1.2-.1h.8l.2-.2h.3l.2-.2H66l.2-.2h.5l.1-.1h.7l.1-.1h.3l.2-.2h.4l-.1.1zm4.3 74.8h.5l.2-.2h.3l.2-.2h.3l.1-.1c.3-.1.4 0 .7 0l.1-.1c.2-.1.4 0 .6 0l.1-.1h.2l.2-.2h.3l.2-.2h.7l.2-.2h.6c.1-.1.1-.1.2-.1h.3l.1-.1h.3l.2-.2h.5l.2-.2h.7l.2-.2h.4l.2-.2h.3c.1-.1.1-.1.2-.1h.4l.1-.1h1l.1-.1h.3l.2-.2h.1l.2-.2h.4c.1-.1.1-.1.2-.1h.7l.1-.1c.2-.1.4 0 .6-.1l-.4.2h.4l.2-.2h.1l.2-.2h.8l.2-.2h.5c.1-.1.1-.2.3-.2.1 0 .1-.1.3-.2h.4l.1-.1h.5l.2-.2h.7l.2-.2h.3l.2-.2c.2.1.2-.1.3-.2h.7l.1-.1c.3-.1.5 0 .7 0l.1-.1h.3l.2-.2h.3l.2-.2h.4l.2-.2h.5c.1-.1.1-.1.2-.1h.5l.1-.1c.2-.1.4 0 .4-.1l.1-.1h.4l.2-.2h.5l.2-.2h.7l.2-.2c.2.1.2-.1.3-.2h.4l.1-.1c.2-.1.4 0 .6-.1l.1-.1h.5l.2-.2h.4l.2-.2h.3l.2-.2h.6c.1-.1.1-.1.2-.1h.5l.1-.1h.2c.1 0 .2-.1.3-.1h.4l.2-.2h.4l.2-.2h.8l.2-.2h.3c.1-.1.1-.2.3-.2.1 0 .1-.1.2-.1.2-.1.4 0 .5 0l.1-.1h.7l.2-.2h.3l.2-.2h.4l.2-.2h.5c.1-.1.1-.1.2-.1h.7l.1-.1h.1c.1 0 .2 0 .3-.1h.3l.2-.2h.4l.2-.2h.8l.2-.2h.5c.1-.1.1-.1.2-.1h.3c.1 0 .1-.1.2-.1h.3s.1-.1.2-.1h.8l.2-.2h.3l.2-.2h.3l.2-.2h.4l.1-.1c.3-.1.4 0 .7 0l.1-.1h.7l.1-.1h.2c.1 0 .1-.1.2-.2h.3l.2-.2h.8l.2-.2h.5c.1-.1.1-.1.2-.1.2 0 .3 0 .4-.1h.3l.2-.2h.5l.2-.2h1l.2-.2h.3l.2-.2h.3c.1-.1.1-.2.3-.1h.2l.1-.1c.3-.1.5 0 .7 0l.1-.1h.4l.2-.2h.4l.2-.2h.4l.2-.2h.7l.1-.1c.3-.1.4 0 .7 0l.1-.1h.1c.1 0 .2-.1.3-.2h.4l.2-.2h.7l.2-.2h.5l.1-.1c.1-.1.2 0 .3-.2h.3l.1-.1h.9l.1-.1h.7l.2-.2h.3l.2-.2h.4l.2-.2h.5l.1-.1c.2-.1.4 0 .6-.1l.1-.1c.2-.1.4 0 .6 0l.1-.1h.3l.2-.2h.4l.2-.2h.8l.2-.2h.3c.1-.1.1-.1.2-.1h.4l.1-.1c.3-.1.5 0 .7 0l.1-.1h.5l.2-.2h.4l.2-.2h.3c.1-.1.1-.2.3-.2.1 0 .1-.1.2-.1h1.1l.1-.1h.4l.2-.2h.3c.2-.2.4-.4.4-.5v-.4c-.1-.1-.3-.2-.4-.4h-.8c-.1 0-.1.1-.2.2h-.3l-.2.2h-.3c-.1.1-.1.1-.2.1h-.5l-.1.1h-.8l-.1.1h-.3l-.2.2h-.1l-.2.2h-.7l-.2.2h-.5l-.1.1h-.4c-.1.1-.1.1-.2.1h-.4l-.1.1h-.4l-.2.2h-.7l-.2.2h-.3l-.2.2h-.3c-.1.1-.1.1-.2.1h-.4l-.1.1c-.2.1-.3 0-.4.1l-.1.1h-.5l-.2.2h-.7l-.2.2h-.1l-.2.2h-.4c-.1.1-.1.1-.2.1h-.9l-.1.1h-.2c-.1 0-.2.1-.3.1H131l-.2.2h-.4l-.2.2h-.7l-.2.2h-.3c-.2.1-.2.1-.3.1h-.1c-.1.1-.1.1-.2.1h-.4l-.1.1h-1l-.2.2h-.3l-.2.2h-.2l-.2.2h-.4c-.1.1-.1.1-.2.1h-.7l-.1.1c-.2.1-.4 0-.6 0l-.1.1h-.3l-.2.2h-.5l-.2.2h-.5l-.2.2h-.6c-.1.1-.1.1-.2.1h-.4l-.1.1h-.3l-.1.1h-.5l-.2.2h-.8l-.2.2h-.4l-.2.2h-.3c-.1.1-.1.1-.2.1h-.5l-.1.1c-.2.1-.4 0-.6 0l-.1.1h-.4l-.2.2h-.5l-.2.2h-.3l-.2.2h-.4l-.1.1c-.3.1-.4 0-.7 0l-.1.1h-.1c-.1 0-.2.1-.3.2h-.4l-.2.2h-.8l-.2.2h-.5l-.2.2h-.3c-.1.2-.2.1-.3.1h.4l-.1.1h-.8l-.1.9h-.4l-.2.2h-.3l-.2.2h-.3l-.2.2h-.8c-.1.1-.1.1-.2.1h-.4l-.1.1h-.3l-.2.2h-.1c-.1 0-.1.1-.2.2h-.5l-.2.2h-.8l-.2.2h-.4c-.1.1-.2.2-.3.1-.1 0-.2.1-.2.1-.2.1-.4 0-.4.1l-.1.1h-.3l-.2.2h-.5l-.2.2h-.4l-.2.2h-.5l-.1.1c-.2.1-.4 0-.6.1l-.1.1h-.4l-.2.2h-.4l-.2.2h-.3l-.2.2h-1l-.2.2h-.3c-.1.3-.3.1-.4.2l-.1.1h-.3l-.2.2h-.5l-.2.2h-.7l-.2.2h-.4l-.2.2h-.3c-.1.1-.1.1-.2.1h-.4l-.1.1c-.3.1-.6 0-.9 0l-.1.1h-.3l-.2.2h-.3l-.2.2h-.7c-.1.1-.1.1-.2.1h-.5c-.1.2-.4.1-.4.3h-.3l-.2.2h-.8l-.2.2h-.5l-.2.2h.5l-.2.2h-.3c-.1.1-.1.1-.2.1H85l-.1.1h-.7l-.2.2h-.4l-.2.2H83l-.2.2h-.4c-.1.1-.1.1-.2.1h-.9c-.1.1-.1.1-.2.1s-.2.1-.3.2h-.3l-.2.2h-.4l-.2.2H79l-.2.2h-.4c-.1.1-.1.1-.2.1h-.4c-.1.2-.4.1-.4.3h-.9l-.1.1H76l-.2.2h-.3l-.2.2H75c-.1.1-.1.1-.2.1h-.5l-.1.1c-.3.1-.5 0-.7 0l-.1.1H73l-.2.2h-.3l-.2.2h-.5l-.2.2h-.5c-.1.1-.1.1-.2.1h-.4l-.1.1h-.3l-.1.1h-.4l-.2.2h-.7l-.2.2h-.4l-.2.2h-.3c-.1.1-.1.1-.2.1h-.5l-.1.1h-.9l-.1.1h-.3l-.2.2H65l-.2.2h-.3l-.2.2h-.5l-.1.1c-.2.1-.4 0-.6.1l.9-1.3h-.3l-.1.1h-.4l-.2.2h-1l-.2.2h-.1c-.1 0-.1.1-.1.1v.1l-.1.1c0 .1.1.1.2.2v.1l.2.2h.2c.1 0 .1.1.2.2h.3l.2-.2h.7l.2-.2h.3c.1-.1.1-.1.2-.1h.3l.1-.1c.2-.1.4 0 .4-.1l.1-.1h.5l.2-.2h.5l.2-.2h.3l.2-.2h.5l.1-.1c.1-.1.2 0 .4 0h.4l.1-.1c.2-.1.4 0 .6 0l.1-.1h.4l.2-.2h.3l.2-.2h.5l.2-.2h.5c.1-.1.1-.1.2-.1h.4l.1-.1h.3l.1-.1h.8l-.7.2zm-29.1 2.3l.7.7h.8c.1-.1.1-.1.2-.1s.1 0 .2-.1v-.1c.1-.1.1-.1.1-.2v-.5c-.1-.1-.1-.1-.1-.2 0-.2-.2-.2-.1-.3 0-.2-.1-.2-.2-.4v-.2l-.1-.1v-.7l-.2-.2v-.7l-.2-.2v-.1l-.2-.2h-.2c-.1 0-.1-.1-.2-.2h-.7c-.1 0-.1.1-.1.2s-.1.1-.1.2v.3s.1.1.1.2v.5l-.1.1h-.6l-.7-.7c-.1.1-.2-.1-.3-.2h-.2l-.1-.1c-.1 0-.1.1-.2.1s-.2.1-.2.2v.1c-.1.1-.2.2-.1.3v.4l.1.1c.1.2 0 .4 0 .6l.1.1v.3l.2.2v.5l.2.2v.4l.2.2v.5l.2.2h.2l.2.2h.7l.2-.2v-.7l.2-.2v-.1c0-.1.1-.1.3-.1zM25 74.5l.2.2v.5c.1.1.1.2.2.3.1.1.1.1.1.2v.9l.4.4h.4c.1-.1.1-.1.2-.1h.3s.1-.1.2-.1c.1-.1.1-.2.1-.3 0-.1.1-.1.1-.2H27V76l-.2-.2v-.4c.1-.1.1-.2.3-.2h.3l1 1h.3l.1.1h.3s.1-.1.2-.1h.2l.2-.2v-.3s-.1-.1-.1-.2v-.3l-.2-.2v-.3H29V74l-.2-.2V73c-.2-.1-.1-.4-.3-.4v-.4c-.1-.1-.2-.3-.4-.4h-.4c-.1.1-.2.1-.3.2v.1c0 .1-.1.2-.1.3.1.1.1.1.1.2v.7l-.2.2H27c-.1-.1-.2-.2-.3-.2l-.6-.6H26c-.1-.1-.1-.1-.2-.1h-.4c-.1.1-.2.1-.3.2s0 .2-.1.4c.1.1-.1.2-.1.3l.1.1v.3l.2.2v.3l.2.2c-.4-.3-.4-.2-.4-.1zm11.6 48.2h.7l.2-.2v-1s-.1-.1-.1-.2v-.1c0-.1-.1-.1-.2-.2l.2-.2h.2c.1 0 .1.1.2.2h.1l.6.6v.1l.4.4h.1c.1.1.1.1.2.1h.5c.1-.1.2-.2.3-.2.1-.1.2-.1.2-.2v-.4c-.1-.1-.2-.1-.2-.3 0-.1-.1-.1-.1-.2v-.3l-.1-.1v-1.7c-.1 0-.1-.1-.1-.2s-.1-.1-.2-.2v-.2c-.2-.2-.4-.4-.5-.4h-.5l-.2.2v.2c0 .1-.1.1-.1.2s.1.1.1.2v.8l-.2.2h-.4l-.6-.6c-.2 0-.2-.1-.4-.2H36s-.1.1-.2.1-.2 0-.2.1v.5l.1.1c0 .2 0 .2.2.3v.7l.2.2v1l.2.2v.5l.2.2h.2-.1zm5.6 8.5v-1.1l-.2-.2v-.8l-.2-.2v-.2c-.1-.1-.2-.2-.2-.3l-.2-.2c-.1-.1-.2-.1-.2-.2-.1-.1-.2 0-.3-.2 0-.1-.1-.1-.2-.1h-.2l-.1-.1h-.9l-.1.1H39l-.2.2h-.1l-.2.2h-.1l-.2.2h-.4l-.2.2v.2l-.2.2v.7l.2.2c-.1.2.1.2.2.3v.4c.1.1.1.1.1.2v.5l.1.1c.1.2 0 .4 0 .6l.1.1v.3l.3.3h.7l.1-.1h.3l.1-.1h.9l.1-.1h.4l.2-.2h.4l.4-.4v-.1c.1-.3.1-.4.2-.4zm-16.6-64h-.3c-.1.2-.3.1-.4.3-.1 0-.2.1-.3.2h-.3l-.2.2H24l-.4.4v.4l.2.2v.4l.2.2v1l.1.1v.4l.1.1v.3l.4.4c.1 0 .2 0 .3.2h.5s.1-.1.2-.1h.8l.2-.2h.4l.2-.2h.2l.2-.2c.2-.1.3-.3.4-.3v-.2l.1-.1v-.1c0-.3 0-.3-.1-.4-.1-.3 0-.5 0-.7l-.1-.1v-.5l-.2-.2v-.1l-.2-.2V68l-.2-.2v-.3l-.2-.2h-.2l-.2-.2h-.3c-.1-.1-.1-.1-.2-.1l-.6.2c.1 0 0 0 0 0zm0-6.4h-.8l-.2.2h-.2l-.3.3h-.4l-.2-.3.2-.2h.4l.4-.4V60c-.1-.1-.3-.2-.4-.4h-.6c0-.3 0-.3.1-.4h.1l.2-.2h.8c.2-.1.3-.3.4-.4v-.4l-.2-.2h-.1l-.2-.2h-.5l-.2.2h-.5l-.2.2h-.3l-.1.1c-.2.1-.3 0-.4.1l-.1.1H22l-.3.3v1.4l.1.1v.3l.2.2v.4c.1-.1.1 0 .2 0v.5l.2.2v.1c.1.1.2.2.2.3.1.1.1.2.2.2h.2c.1.1.1.1.2.1h.3l.1-.1c.3-.1.4 0 .7 0l.1-.1h.3l.1-.1h.2c.1 0 .1-.1.2-.2h.4l.2-.2h.1l.4-.4v-.4c-.6-.1-.6-.2-.7-.3zm114.5 22.9c.2-.1.3-.3.4-.4V83l-.2-.2v-.3c-.1-.1-.1-.1-.1-.2v-.2c0-.2 0-.2.2-.2h.4c.1.1.2.1.2.2.1.1.2.1.3.1l.4.4h.1l.2.2h.3c.1.1.1.1.2.1l.1-.1c.2 0 .3 0 .4-.1v-.1l.2-.2v-.2c-.1-.1-.2-.2-.2-.3-.1-.1-.1-.1-.1-.2v-1l-.1-.1c-.1-.2 0-.4 0-.6l-.1-.1v-.3l-.2-.2v-.3l-.2-.2v-.1l-.4-.4h-.3c-.1.1-.1.1-.2.1-.2 0-.2 0-.2.2 0 .1-.1.1-.2.2v.1c0 .1.1.1.1.2v.7l-.2.2h-.2c-.1 0-.1-.1-.2-.2h-.1l-.5-.5c-.1 0-.2-.1-.3-.2h-.2c-.1 0-.1-.1-.2-.2h-.5l-.2.2v.9l.1.1v.8l.2.2v.3l.2.2v.3l.2.2v.7l.1.1c0 .2.1.3.3.4.2.3.4.3.5.3zm-4.8-27.1c-.1-.2-.3-.1-.4-.2l-.1-.1h-.3l-.2-.2h-.4l-.2-.2-.2.2h-.3l-.2.2v.5c0 .1.1.1.2.2v.7l.2.2v.4l.2.2v.3c.1.1.1.1.1.2v.4l.1.1v.3c0 .1 0 .2.2.2l.1.1c.1.1.2.1.3 0 .1-.1.2-.1.3-.1.1-.1.3-.2.4-.4v-.4l-.1-.1c0-.1 0-.2-.2-.3v-.3c.2-.1.3-.4.4-.4l1 1h.4l.2.2h.4c.1.1.1.1.2.1.1-.1.1-.1.2-.1h.2c.2 0 .2 0 .2-.2 0-.1.1-.1.2-.2v-.1l-.2-.2v-.3c-.1-.2-.2-.2-.3-.4 0-.1 0-.3-.1-.4V57l-.1-.1v-.3l-.2-.2v-.2c-.2-.2-.4-.4-.5-.4h-.3l-.2.2h-.2c-.1.1 0 .3-.2.4v.4l-.1.1c-.4-.3-.5-.3-.5-.3zm-97.8 54.5c-.2-.2-.2-.2-.4-.2h-.4l-.7.7-.1.1h-.4l-.1-.1v-.1l-.3-.3c0-.1-.1-.2-.2-.3v-.7l.2-.2h.7l.2.2h.5l.1-.1c.2.1.3-.1.4-.3v-.1c.1-.1.1-.1.1-.2 0-.2 0-.3-.1-.4-.1 0 0-.2-.1-.2h-.1l-.3-.3h-.3l-.1-.1c-.2-.1-.2 0-.3.1h-.4l-.2.2H35l-.2.2h-.1c-.1.1-.1.1-.2.1s-.2.1-.3.1h-.1c-.2.2-.4.3-.4.4v.2c-.1.1-.1.2-.2.3l-.1.1v1.2l.1.1v.4c.1.1.2.2.3.2v.2l.2.2v.2l.3.3c0 .2.1.3.3.4h1.2c.1-.1.1-.2.3-.2.1 0 .1-.2.2-.1.1 0 .2-.1.3-.1h.3l.2-.2h.4c.1-.1.2-.1.2-.2s0-.1.1-.2l.1-.1v-.7l-.1-.1c-.3-.3-.3-.4-.3-.4zm101.3-36.7l-.2.2h-.1l-.2.2h-.3l-.1.1c-.2 0-.3.1-.4.3 0 .1 0 .2-.1.3-.1.1 0 .1 0 .2s.1.1.1.1v.3l.1.1v.4l.2.2v.7l.2.2v.3l.2.2v.4c.1.1.2.1.1.3v.2c.1.1.2.2.2.3h.5c.1-.1.1-.1.2-.1h.9c.1-.1.1-.1.2-.1.2 0 .3 0 .4-.1h.3l.2-.2h.3l.2-.2h.1l.2-.2v-.6c-.1 0-.1 0-.2-.1-.1 0-.1-.1-.2-.1-.1.1-.3 0-.4 0l-.1.1h-.2c-.1 0-.1.1-.2.2h-.3l-.2.2h-.4l-.2-.2v-.3l.4-.4h.3l.3-.3v-.3l-.6-.7.2-.2h.2l.2-.2h.3l.2-.2V75c-.1-.1-.3-.2-.4-.4h-.4s-.1.1-.2.1c-.6-.3-.9-.3-1.3-.3zm.1-4.7v.8l-.2.2h-.3l-.5-.5c-.2 0-.2 0-.3-.1h-.4l-.4.4v.3l-.1.1v.3s.1.1.1.2v.6l.2.2v.3l.2.2v.3c.1.1.1.1.1.2v.4c0 .1.1.1.1.2 0 .2.2.2.3.3h.4c.2-.2.4-.3.4-.4v-.4c-.2-.1-.1-.3-.2-.4-.1-.1-.2-.1-.1-.2l.4-.4c0 .1.1.2.3.1l.2.2h.1l.5.5c.1 0 .3 0 .3.2h.2c.1 0 .1.1.2.2h.3c.1 0 .1-.1.2-.2.2 0 .2 0 .2-.1v-.5l-.1-.1V72l-.2-.2V71l-.2-.2v-.3l-.2-.2v-.6c-.1-.2-.3-.3-.4-.4h-.7l-.1.1v.2c-.2 0-.3.1-.3.1zm7.4 34.5l.5.5h.4c.1 0 .1-.1.2-.2h.1l.4-.4-.2-.2v-.3l-.5-.5v-.4s.1-.1.1-.2v-1l-.2-.2v-.1l-.4-.4h-.2l-.2-.2h-1.2l-.2.2h-1.1c-.1.1-.1.1-.2.1s-.1 0-.2.1v.1l-.2.2v1c.2.1.1.3.2.4s0 .3.2.4c.1.3 0 .5 0 .7l.1.1v.5l.2.2v.3c.1.1.1.1.3.2h.5l.1-.1c.1 0 .3 0 .2-.2 0-.1.1-.1.1-.2v-.8l.1-.1h.5l.2.2c.4.2.4.3.4.3zM30.6 90.1h-.2l-.2.2v.2c0 .1-.1.1-.2.2v.3l-.2.2v.3l-.2.2v.7l-.1.1v1l-.1.1v1.2l.2.2h.4l.1-.1c.2 0 .3-.1.4-.3v-.1l.3-.3c0-.1 0-.3.2-.2.1-.1.2-.1.3-.2l.1-.1h.8l.5.5h.6l.2-.2v-.2c.1-.1.1-.1.1-.2v-.4c-.1-.1-.2-.2-.2-.3l-.7-.7v-.1l-.3-.3v-.1s0-.1-.1-.1l-.3-.2v-.2c-.4-.4-.4-.4-.4-.5l-.4-.4h-.3l-.3-.2c.1-.1 0 0 0 0zm-9-32.5h.4l.2-.2h.3l.2-.2v-1c.1-.1.3-.2.4-.4h.4c.1.1 0 .2.2.3 0 .1 0 .2.2.3 0 0 0 .1.1.2s.1.1.1.3l-.1.1h.8l.4-.4v-.4c-.1-.1-.2-.2-.2-.3l-.3-.3c0-.1-.1-.2-.2-.3v-.2c0-.1-.1-.1-.2-.2v-1.2l-.2-.2v-.1l-.4-.4h-.5l-.4.4v.4l.2.2v.3l-.2.2v.2l-.2.2h-.5l-.4-.4v-.1c0-.1-.1-.1-.2-.2v-.4c-.2 0-.3 0-.4-.2H21c-.1 0-.1.1-.2.2h-.2l-.2.2v.9l.1.1v.5l.2.2v.4l.2.2v.8c.1.1.1.1.1.2s0 .2.1.2h.2c.2 0 .3 0 .3.1zm109-13.1h1.3c.1 0 .1.1.1.2v.1c-.1.1-.2.3-.4.4h-.3c-.1.1-.1.1-.2.1-.2 0-.2 0-.4.1h-.1c-.2 0-.2.1-.2.2-.1.1-.2.1-.1.3.1.2.3.3.4.4h.8l.2-.2h.3l.1-.1c.2-.1.4 0 .6-.1l.1-.1h.3l.2-.2h.1l.3-.3h.1l.4-.4v-1c-.1-.1-.1-.1-.1-.2 0-.2 0-.2-.2-.2-.1 0-.1-.1-.2-.2h-1.1c-.1 0-.1.1-.2.2h-.4l-.2-.2V43h1.1c.2-.1.3-.3.4-.4v-.2c.1-.1.1-.1.1-.2v-.3l-.2-.2h-.8l-.2.2h-.4l-.2.2h-.3c-.1.1-.1.1-.2.1-.2 0-.3 0-.4.1h-.2l-.4.4v.3l-.1.1v.2c0 .1.1.1.2.2v.5c.2.4.3.5.4.5zm-.9-15.7c-.1-.1-.2-.2-.3-.2h-.2l-.1.1h-.3l-.2.2h-.5l-.2.2h-.4l-.2.2h-.1l-.4.4v.3c-.1.1-.1.1-.1.2v.4l.2.2v.2c.1.1.1.1.1.2v.3l.1.1c.1.1.1.1.1.2s.1.1.2.2v.1l.2.2v.7l.2.2h.2c.1 0 .1.1.2.2h.1l.2-.2c.1 0 .2 0 .2-.1v-.7l.1-.1c0-.1 0-.3.1-.4.1-.1.2 0 .4 0h.4l.6.6c.1-.1.2.1.3.2h.5c.1-.1.3-.2.4-.4V32l-.4-.4v-.2l-.2-.2v-.7c.1-.1.1-.1.1-.2v-.7l-.2-.2c-.1-.2-.3-.3-.4-.4h-.5c-.1-.2-.1-.2-.2-.2zm1.7 11.7l.6.5h.2l.2.2h.3c.1.1.1.1.2.1h.4c.1-.1.3-.2.4-.4v-.5l-.1-.1V40l-.1-.1c-.1-.2 0-.4 0-.6l-.1-.1v-.7l-.2-.2v-.1l-.4-.4h-.4l-.2.2v.7s.1.1.1.2v.3l-.2.2h-.3l-.5-.5c-.1 0-.2 0-.2-.1s-.1-.1-.2-.1h-.2l-.1-.1h-.7l-.1.1h-.1c-.1 0-.2 0-.2.1v.8l.1.1v.3l.1.1v.3l.1.1v.2c0 .1.1.1.2.2v.8c.1.1.3.2.4.4h.1c.1 0 .1-.1.2-.2h.1l.4-.4v-.2l-.2-.2v-.3c-.1-.1-.1-.1-.1-.2s-.1-.2-.1-.3c-.1-.1 0-.1 0-.1.1-.1.2-.2.2-.3h.4l.3.3c-.4.3-.3.3-.3.3zm-87.1 99.3l-.8-.8v-.1l-.4-.4c-.1-.3-.2-.4-.3-.4v-.1l-.6-.6h-.5l-.2.2v.2l-.3.3v.3l-.2.2v1.2l-.2.2v.5l-.2.2v.4c-.1.1-.1.1-.1.2 0 .2 0 .3.1.4v.1c0 .2.1.2.2.2.1.1.1.1.2.1h.3c.1-.1.1-.1.2-.1h.3l.4-.4v-.1c.1-.2.3-.3.4-.4h.2c.2-.2.2-.2.4 0h.4l.1.1c.1 0 .2.1.3.2 0 0 .1-.1.2-.1h.3c.1 0 .1-.1.1-.2s.1-.1.1-.2v-.3c-.1-.1-.2-.2-.3-.2-.1-.5-.1-.6-.1-.6zm106.6-21c-.1-.1-.1-.2-.2-.2-.1-.1-.2 0-.3-.2h-.4l-.1.1h-.3l-.2.2h-.4l-.2.2h-.4l-.2.2h-.2c-.1.1-.2.2-.3.2-.1.1-.2.1-.2.2v.4l.3.3c0 .1 0 .3.1.4v1l.1.1v.3l.6.6h.3l.2-.2h.4l.2-.2h.4l.1-.1h.9c.1-.1.1-.2.3-.1.1 0 .1-.1.2-.1.1-.1.3-.2.4-.4v-.1c-.1-.2-.2-.3-.4-.3l-.1-.1h-.5l-.1.1c-.1 0-.1-.1-.2-.1h-.3l-.2-.2v-.3s.1-.1.1-.2v-.5l.6-.6.1-.1c-.1.1-.1-.3-.1-.3zm-2.1-10.7l-.2-.2v-.3l-.2-.2v-.4c-.1-.1-.1-.1-.1-.2 0-.2 0-.3-.1-.4v-.2l-.4-.4h-.2l-.1-.1h-1c-.1 0-.1.1-.2.2h-.3l-.2.2h-.2l-.3.3c-.1 0-.2 0-.3.1l-.2.2h.2c-.1 0-.1.1-.1.2s-.1.1-.1.2v.4s.1.1.1.2v1l.2.2v.3l.2.2v.3c.2.2.4.4.4.5h1.5c.1-.1.1-.1.2-.1h.3c.1-.2.3-.1.4-.3.1 0 .2-.1.3-.2h.3c.1-.1.2-.3.4-.4v-.4s-.1-.1-.1-.2l-.2-.5zm-15.3-58.3h-.5l-.4-.4v-.1l-.2-.2v-.8l.4-.4h.4c.1.1.1.1.2.1h.8l.4-.4v-.2l-.2-.2V47c-.2-.2-.4-.4-.4-.5h-1.1c-.1.1-.1.1-.2.1-.2 0-.2 0-.4.1-.1.1-.2.1-.3.2h-.2c-.2.2-.3.4-.4.5v.3l-.2.2v.4l-.2.2v.1c0 .1.1.1.1.2.1.1 0 .2.1.3.1.1.1.2.1.3v.1l.1.1v.2c0 .1.1.1.2.2l.3.3c-.1.2.2.2.2.4 0 .1.1.2.2.3h.7l.2-.2h.5c.1-.1.1-.1.2-.1h.2c.1 0 .2-.2.3-.2l.1-.1.2-.2h.1c.1-.1.1-.2.1-.3l.3-.3v-.1l.2-.2V49l-.4-.4h-.5l-.4.4v.2c-.4.2-.4.4-.6.6zM36 117.9l.8-.8h.5l.2-.2h.1c.1.1.1.1.2.1h1.1l.2-.2v-.3c0-.1-.1-.1-.2-.2v-.1c-.1-.1-.3-.3-.3-.4l-.4-.4v-.1l-.7-.7v-.1l-.9-.9h-.4c-.1.1-.2.2-.3.2-.1.1-.2.1-.3.2v.4l-.2.2v.3l-.1.1v.7l-.1.1v.7l-.1.1v.3l-.2.2v.3l-.2.2v.4l.2.2h.5s.1-.1.2-.1c.3-.2.4-.2.4-.2zm97-66.3l-.7.7v.1c0 .1-.1.2-.1.2v.7l.1.1v.3l.2.2v.1l.2.2v.3l.2.2v.1l.4.4h.2l.2.2h.5c.1.1.1.1.2.1h.3c.1-.1.1-.1.2-.1h.4l.1-.1h.3l.2-.2h.2c.2-.2.4-.4.4-.5v-.1l.2-.2v-1.5l-.2-.2v-.3c-.1-.1-.2-.2-.2-.3l-.4-.4c-.1 0-.2 0-.3-.2H134l-.1.1h-.3l-.2.2c-.3-.1-.3-.1-.4-.1zm16.3 59.1v-.2l-.4-.4h-.4c-.2.1-.3.3-.4.4 0 .1 0 .2-.1.2 0 0 0 .1-.1.1l.1.1v.3c0 .2.2.2.2.4 0 .1.1.1.2.2v.1l.2.2v.5l-.4.4h-.5l-.4-.4v-.3l-.2-.2v-.4l-.2-.2v-.3c-.1-.1-.2-.2-.2-.3-.1-.1-.1-.2-.2-.2h-.5c-.1.1-.1.1-.1.2s-.1.1-.2.2v.5c0 .1.1.1.2.2v.5l.2.2v.5c.1.1.1.1.1.2 0 .2 0 .2.1.4v.1c.1.2.1.3.3.3.1 0 .1.2.2.2.2 0 .2.1.3.2h.3c.1 0 .1-.1.2-.1h.4l.2-.2h.3l.2-.2h.3c.1-.1.1-.1.2-.1.2 0 .2-.1.3-.1.2 0 .2-.2.4-.3l.2-.2.1-.1v-.5l-.1-.1v-.3l-.2-.2v-.4l-.2-.2v-.4c-.3-.2-.4-.3-.4-.3zM38.2 127.4c.2-.3.4-.4.7-.7h.3l.2-.2c.1 0 .1.1.2.1h.8l.2.2h.4c0-.3.3-.1.3-.2v-.2c0-.1.1-.1.2-.2v-.1l-.2-.2v-.2l-.4-.4v-.2l-.5-.5v-.2c-.2-.2-.4-.4-.7-.6v-.1l-.6-.6h-.5l-.2.2v.2l-.2.2v.1l-.2.2v.4l-.2.2v1.1c-.1.1-.1.1-.1.2v.3l-.1.1c-.1.2 0 .4 0 .6l-.1.1v.3s.1.1.1.2v.1c.1.1.2.3.4.2 0 0 .1-.1.2-.1v-.3zm92.6-93.6c-.1-.1-.3-.2-.4-.4h-.1c-.1 0-.1-.1-.2-.2h-.4c-.1 0-.1.1-.2.2h-.2l-.2.2v.2c0 .1-.1.1-.2.2v.8l-.2.2v.4l-.2.2v.7l-.2.2v.5c-.1.1-.1.1-.1.2v.4l.4.4h.4l.2-.2v-.1c.2-.2.4-.4.4-.5h.1c.2-.1.2-.2.4-.3h.4l.1.1h.3l.1.1h.2c.1 0 .1.1.2.2h.3l.2.2.4-.4v-.4l-.2-.2c-.1-.1-.2-.2-.2-.3 0-.1-.1-.2-.1-.3 0-.1-.1-.2-.2-.3v-.2c-.1-.1-.2-.2-.3-.2V35l-.3-.3c0-.2-.1-.2-.2-.3v-.1l-.3-.3c.3 0 .3-.1.3-.2zM31.9 99.4h1.5l.2-.2h.4l.2-.2h.2c.1-.1.3-.2.4-.3v-.4c-.1-.1-.1-.1-.1-.2s0-.2-.1-.2h-.2c-.1 0-.1-.1-.2-.2h-.5l-.2.3h-.4c-.1.1-.1.1-.2.1h-.5l-.2-.2v-.2l-.2-.1v-1.3l-.2-.2v-.2c-.1-.1-.2-.1-.1-.2 0-.1-.2-.2-.2-.3 0-.1-.1-.1-.1-.2l-.2-.2h-.4l-.1.1c-.3 0-.4.3-.5.4v.4l.1.1v.4l.1.1v.8l.1.1v.2l.3.3v.3l.2.2v.8l.2.2h.5c0 .1.1 0 .2 0zm.1 4.7l.2.2h.5s.1-.1.2-.1h.3l.2-.2h.3l.2-.2h.5l.2-.2h.7l.6-.6v-.5c-.1-.1-.2-.2-.2-.3-.2.1-.2-.1-.3-.1h-.3c-.1.1-.1.2-.3.1h-.2c-.1.1-.1.1-.2.1h-.3l-.3.3h-.7l-.2-.2v-1.3l.1-.1v-.3l-.2-.2v-.2c-.1-.1-.3-.2-.4-.4h-.1c-.1 0-.1-.1-.2-.2H32v.3h-.1l-.4.4v.2c-.1.1-.1.1-.1.2v.3l.2.2v.3c.1.1.1.1.1.2v.4c.2.1.1.4.3.4v.3l.2.2v.3l.2.2c-.4 0-.4.3-.4.5zm111.3-19.9c-.2-.2-.2-.2-.4-.2h-.6l-.1.1h-.4l-.2.2h-.3l-.2.2h-.1l-.2.2h-.4l-.2.2h-.4l-.1.1c-.1 0-.1 0-.2.1l-.2.2v.4c.3 0 .1.3.2.3h1c.1.1.2.3.4.4v.1c0 .1.1.1.2.2v.4l.2.2v.7l.2.2v.5c.2.2.4.4.4.5h.3l.5-.5c-.1-.1.1-.2.2-.3v-.5l-.1-.1v-.3l-.1-.1V87l-.2-.2v-.3l-.2-.2V86l.4-.4h.2l.2-.2h.2l.2-.2c-.2-.5-.2-.8-.2-1zM22.7 52.4c.1-.1.1-.1.1-.2v-.4l-.2-.2v-.7c-.2-.1-.1-.3-.2-.4-.1-.1 0-.3-.2-.4v-.3c.2-.1.3-.4.5-.4l.4-.4c0-.1.1-.2.2-.3v-.3l-.2-.2c-.1 0-.2 0-.3-.2h-.3s-.1.1-.2.1h-.4l.1.4h-.1l-.2.2h-.3l-.2.2h-.7v.1H20c-.1.1-.3.2-.4.4v.3c.1.1.1.1.1.2s0 .1.1.2h.1l.2.2h.8l.2.2v.3l.2.2v.4l.2.2v.8l.2.2c.1.2.3.3.3.4h.7v-.6c0 .1 0 0 0 0zm119 39.8c-.2.1-.1.3-.2.4s0 .3-.2.4v.3l.4.4s.1 0 .2.1c0 .1.1.1.2.1l1-1h1s.1.1.2.1h.3l.2.2h.3l.4-.4v-.4l-.5-.5c0-.1 0-.2-.1-.3l-.2-.2v-.1l-.4-.4v-.2l-1-1h-.3l-.2.2h-.1c-.2.2-.4.4-.5.4 0 0-.1.3-.2.3-.3.4-.3.9-.3 1.6zm-5.4-28.4c.2.2.3.3.3.4h.5l.4-.4v-.5c-.1-.1-.1-.1-.2-.3 0-.1-.1-.2-.1-.2v-.4l-.1-.1c-.1-.2 0-.4 0-.6l-.1-.1c0-.1.1-.1.2-.2v-.1l.4-.4h.2l.4-.4v-.3c0-.1-.1-.1-.2-.2v-.1l-.4-.4h-.3l-.2.2h-.3l-.2.2h-.4c-.1.1-.1.1-.2.1-.2 0-.3 0-.4.1h-.3l-.2.2h-.6l-.5.5v.3c0 .1.1.1.2.2v.1l.4.4h.3c.1-.1.1-.1.2-.1h.7l.4.4v1l.2.2-.1.5zM30.4 82.7c.1-.1.2-.1.3-.2v-.7l-.2-.2H30l-.2.2h-.2l-.8.8h-.4c-.1-.1-.2-.2-.3-.2l-.1-.3h-.7l-.1.1v.5c.1.1.2.2.2.3l.2.2h.1l.6.6c0 .1 0 .1.1.2s.1.2.1.3l.3.3c0 .1.1.2.2.3v.1c0 .1.1.1.2.2v.3l.2.2v.1l.4.4h.3c.1-.1.1-.1.2-.1.2 0 .2 0 .2-.2 0-.1.1-.1.2-.2v-.4l-.5-.3v-.1l-.2-.2v-.1c-.1-.1-.1-.1-.1-.2v-.5l.1-.1c.1-.1.1-.3.2-.4v-.1c0-.1.1-.2.1-.2V83c0-.1.1-.1.2-.2-.1 0-.1 0-.1-.1zM27.3 78c-.1-.1-.2-.2-.2-.3h-.3c-.1-.1-.1-.1-.2-.1-.1.1-.1.1-.2.1s-.1 0-.2.1v.1c-.1.1-.1.1-.1.2v1.2l.2.2v.5c.1.1.1.1.1.2v.9l.4.4h.3l.1-.1h1.1l.1-.1h.4l.1-.1h.4l.2-.2h.2c.1-.1.2-.3.4-.4v-.4l-.4-.4c-.1 0-.2-.1-.3-.2h-.3l-.1.3h-.1l-.2.2h-.3c-.1.1-.1.1-.2.1h-.5l-.5-.5c.1 0 .1-1.7.1-1.7zm98.8-52.1h.5c.1-.1.1-.1.2-.1h.4l.2.2v.1l.2.2v.1l.2.2v.3l.2.1v.3c.1.1.1.1.1.2v.4l.2.2c.1 0 .2.1.3.1l.1-.1h.3l.3-.3v-.5l-.1-.1v-.4l-.1-.1v-.3l-.2-.2v-.7l.1-.1h.4l.1-.1h.3l.3-.3v-.4l-.4-.4h-.3c-.1.1-.1.1-.2.1s-.2.1-.2.1c-.2.1-.4 0-.6 0l-.1.1h-.7l-.2.2h-.7l-.2.2h-.2c-.1.2-.3.1-.4.2v.1l-.2.2v.1l.2.2v.2h.2zm19.9 71v-.3c-.1-.1-.1-.1-.1-.2 0-.2 0-.2-.2-.2-.1 0-.1-.1-.2-.2h-.7c-.1 0-.1.1-.2.1h-.8c-.2-.2-.4-.4-.5-.4v-1.2c-.1-.1-.2-.2-.2-.3-.1-.1-.1-.2-.2-.2h-.5l-.2.2v.2c0 .1-.1.1-.2.2v1.3l.2.2v.3c.1.1.1.1.1.2v.2c.1.1.1.1.1.2 0 .2.2.2.2.4.1.1.1.2.2.2l.2.2h.7l.1-.1h.5l.2-.2h.4l.2-.2h.5c.1-.2.2-.3.4-.4zm1.2 18c-.1.1-.1.1-.2.1s-.1 0-.2.1v.1c-.1.1-.1.1-.1.2v.3l.2.2h.7l.2.2h.1c.2.1.3.3.4.4v.3l.2.2v.7l.4.4h.1c.1 0 .3 0 .4-.1 0-.1.2 0 .2-.1v-.1c.1-.1.1-.1.1-.2.1-.2-.1-.2-.1-.3 0-.3 0-.3-.1-.4v-.3l-.2-.2v-.4l.4-.4h.4l.2-.2c.1-.1.1-.3.2-.4v-.2l-.1-.1v-.2c-.1-.1-.3-.2-.4-.4h-.4s-.1.1-.2.1h-.3l-.2.2h-.4l-.2.2h-.3c-.1.1-.1.1-.2.1l-.6.2c.1 0 0 0 0 0zM40.5 135.5v.5l.2.2v.1l.2.2h.4s.1-.1.2-.1h.3l.4-.4v-.3l-.2-.2v-.1l-.2-.2v-.7l-.2-.2v-.5l-.2-.2v-.3c-.1-.1-.2-.1-.1-.3l-.4-.4-.1-.1h-.5c-.1.1-.3.2-.4.4v1.1c.1.1.1.1.1.2v.4l.1.1v.3l.2.2v.1c.1.1.2.1.2.2zM136.7 67l.2.2v.3c.1.1.1.2.2.3 0 .1.1.1.1.2v.4l.1.1v.3l.4.4h.3c.1-.2.3-.1.4-.2l.2-.2.1-.1v-.4c-.1-.1-.1-.1-.1-.2v-.4l-.1-.1v-1l-.1-.1V66l-.2-.2v-.1l-.2-.2v-.2l-.2-.2h-.3l-.2-.2-.2.2h-.3c-.1.1-.1.1-.1.2l-.2.2v.8c0 .1.1.1.2.2v.5z"/>
    <path class="color-black" d="M55.1 123.6l.1.4.2.2v.3l.2.2v.3l.2.2v.2l.1.1c.1.1 0 .3 0 .4 0 0 .1.1.1.2v.3l.2.2v.3l.2.2v.5l.2.2v.8l.2.2v.5l.1.1v2.4l-.1.1v.4l-1.5 1.5h-.2c-.1.1-.1.1-.2.1h-.4l-.4-.4v-.3l-.1-.1c-.1-.2 0-.4 0-.6l-.1-.1c-.1-.3 0-.4 0-.7l-.1-.1v-.4s-.1-.1-.1-.2v-.3l-.2-.2v-.5l-.2-.2v-.8l-.2-.2v-.4l-.1-.1c-.1-.2 0-.4 0-.5l-.1-.1v-.4s-.1-.1-.1-.2v-.5l-.2-.2v-.5l-.2-.2v-.4l-.2-.2v-.3l-.2-.2v-.3l-.1-.1v-.4s-.1-.1-.1-.2v-.6l-.2-.2v-.3l-.2-.2v-.3c-.1-.1-.1-.1-.1-.2v-1.2l.2-.2h.2l.2-.2h.3l.1.1c.2.1.3 0 .4.1l.3.3c.1 0 .2 0 .3.2h.1l1.4 1.4v.1c.1.1.2.2.2.3.2.1.1.3.3.4-.2.4-.2.4-.2.5zm5.5-72h-.2l-.3.3H60c-.1 0-.2.2-.3.2-.1 0-.2 0-.3.1-.1 0-.2 0-.3.2h-.7l-.2.2h-.3l-.2.2h-.3l-.1.1H57l-.4-.4V52l-.1-.1c-.1-.1 0-.4-.2-.4v-.3l-.1-.2v-.4l-.2-.2v-.7l-.2-.2v-.3l-.2-.2v-.4l-.1-.1v-.8c.1-.1.1-.1 0-.1v-1.2l.4-.4h.3c.1 0 .1-.1.2-.1h.4l.2.1h.5l.2-.2h.4c.1-.1.1-.1.2-.1h.8l.1.1c.3.1.4 0 .7 0l.1.1h.2c.1 0 .2.1.2.1h.2l.3.3h.1l.5.5v.1l.3.3c0 .1 0 .2.2.3v2.3c0 .1-.1.1-.2.2v.3c-.1.1-.2.2-.2.3-.1.1-.1.1-.1.2s-.1.2-.2.2c-.2.2-.4.5-.7.6zm16.8 33.7l-.3.2H77l-.2.2h-.4c-.1.1-.1.1-.3.2-.1 0-.1.1-.2.1h-.3l-.2.2h-.3l-.2.2h-.3l-.2-.2h-.1l-.4-.4v-.1l-.2-.2v-.4l.3-.1v-.8l-.1-.1c-.1-.3 0-.4 0-.7l-.1-.1v-.4l-.2-.2v-.3l-.2-.2V82c-.1-.1-.1-.1-.1-.2V81l.2-.2v-.3l.2-.2h.4l.2-.2h.7l.1-.1h1.6l.1.1c.1 0 .2.1.3.2h.2c.1.1.2.3.4.4v.3l.4.4v.2c.1.1.2.1.1.2v.1c.2.1.1.3.2.4l.1.1v2.3s-.1.1-.1.2v.3c-.1.1-.3.2-.4.4-.1 0-.2.1-.3.2h-.2c0-.6-.1-.5-.1-.5zm34.2-40.7l-.2-.2v-.3l-.2-.2v-.3l-.1-.1c-.1-.1 0-.3-.1-.4l-.1-.1v-.5s-.1-.1-.1-.2v-.4l-.2-.2v-.3l-.2-.2v-.4l-.2-.2v-.4l-.1-.1c-.1-.1 0-.3 0-.4 0 0-.1-.1-.1-.2v-.4s-.1-.1-.1-.2v-.4l-.2-.2v-.5l-.2-.2v-.3l-.2-.2v-.4l-.1-.1c-.1-.2 0-.3-.1-.4l-.1-.1v-.3s-.1-.1-.1-.2v-1.5l.1-.1c.1 0 .2-.1.3-.1.1-.1.2 0 .3-.1 0-.1.1-.1.2-.1s.1-.1.2-.1h.4l.2-.2h1.8l.2.2h.1l.2.2h.2c.1.1.2.2.3.2.1.1.2.1.3.2l1.7 1.7v.1c.1.1.1.2.2.2.1.1.1.2.1.3l.3.3v.2l.3.3v.3l.2.2v.3c.1.1.1.1.1.2 0 .2.1.2.1.3s.1.2.1.3 0 .1.1.2l.1.1v.4l.2.2v.3l.2.2v.2l.1.1c.1.2 0 .3.1.4l.1.1v1l.1.1v.7l.2.2v1.8s-.1.1-.1.2v.8l-.2.2v.5c-.1.1-.1.1-.1.2s-.1.2-.1.3 0 .1-.1.2l-1.5 1.5h-.2l-.3.3h-.4c-.1.1-.2.2-.3.2-.1.2-.3.1-.4.1 0 0-.1.1-.2.1h-.3l-.2.2h-.1c-.1 0-.1.1-.2.2h-.3l-.2-.2h-.2l-.2-.2v-.1l-.2-.2v-.4l-.2-.2v-.4l-.1-.1c-.1-.1 0-.2 0-.4v-.3l-.1-.1V47s-.1-.1-.1-.2v-.3l-.2-.2v-.4l-.2-.2c.3-.5.3-.7.3-1.1zM71.4 27.5c-.1.1-.2.2-.2.3h-2s-.1-.1-.1-.2v-.1l.2-.2h.2l.1-.1h.4l.1-.1c.1-.1.3 0 .4 0h.8c.1-.1.2-.1.2-.1.1 0 .2-.1.3-.2h.2l.2-.2h.5l.2-.2h.5c.1.1.2.3.4.4v.2l-.1.1c-.1 0-.2.1-.3.1h-1.5s-.1 0-.1.1c-.1.1-.2 0-.3.1 0-.1 0 0-.1.1 0-.1 0 0 0 0zm5.8 22.4v.2s.1.1.1.2v.1l.2.2v.1l.2.2v.1c.1.1.1.1.1.2 0 .2.1.2.1.3 0 .1.1.2.1.3s0 .2.1.3c.1 0 0 .1.1.2 0 .1.1.1.1.2v.1l.3.3c0 .1 0 .2.1.3.1.2 0 .4 0 .5l-.4.4h-.7c-.1.1-.1.2-.3.1h-.1l-.2-.3h-.8l-.1.1h-.3c-.1 0-.1-.2-.3-.1l-.1-.1v-.1l-.1-.1V53l.1-.1v-2.4l.2-.2v-1.2l.1-.1v-.3l.2-.2c0-.1 0-.2.1-.2h.3c.2.1.3.3.4.4v.4l.1.1c.1.1 0 .2.1.3-.1.1.3.4.3.4zm-6.9 76v.2l.2.2v.2c.1.1.2.1.1.2v.1c.2.1.1.3.2.4.1.1 0 .2.2.3l.2.2v.2l.3.3c.1.1 0 .2 0 .2 0 .2.2.2.2.4 0 .1.2.2.1.3 0 .1.1.1.1.2v.1c0 .1.1.1.2.2v.1l.3.3c-.1.2.2.2.2.4 0 .1-.1.1-.2.2s-.2.1-.2.2c-.2 0-.2.2-.3.1-.2 0-.2.2-.3.2-.1 0-.2.1-.3.2h-.5l-.2.2h-1.2l-.2-.2v-2.2l.2-.2v-1l.2-.2v-1.2l.4-.4c0-.3.1-.2.3-.2zm-30.8 3c0 .1 0 0 0 0h.8s.1.1.2.1h.1c.1.1.2.1.2.3v.1l.1.1v.4s.1.1.1.2v.3c0 .1-.2.1-.1.3-.1.1-.3.2-.4.4-.1 0-.2 0-.2.2h-.8c-.1 0-.1 0-.2-.2l-.1-.1c-.1-.1 0-.3-.1-.4l-.1-.1v-.5l-.2-.2v-.4s.1-.1.1-.2v-.1c0-.1.1-.1.2-.1.2 0 .3 0 .4-.1zM25.3 68.2h.7l.4.4v.3l.2.2v.4l.2.2v.3c.1.1.1.1.1.2s0 .2-.1.2c-.2-.1-.2 0-.2 0-.2.2-.3.4-.4.4h-.7l-.4-.4v-.8l-.2-.2v-.2l-.1-.1v-.6c.2-.1.3-.2.5-.3zm120.8 33.7l.2.2v.7c-.1.1-.2.3-.4.3l-.1.1h-.6l-.4-.4v-.5l.4-.4h.9zM31.4 92.8h-.5c-.1-.1-.1-.2-.1-.3-.1-.1-.1-.1-.1-.3l.4-.4s.1.1.3 0c.1.1.2.2.3.2v.4c-.2.2-.2.3-.3.4zM128 30.4v-.3l.2-.2c.1 0 .2 0 .3-.2h1.1l.1.1c.2.2.2.2.2.3v.4l-.2.2h-.1l-.2.2h-.4l-.2.2h-.4l-.2-.2h-.2c-.1 0-.1-.1-.1-.2s-.1-.1-.1-.2c.1-.1.1-.1.2-.1zm19.2 78.3h-.8s-.1-.1-.2-.1h-.1c-.1 0-.1-.1-.1-.2s-.1-.1-.1-.2v-1c0-.2.2-.2.2-.3 0-.1.1-.2.2-.2s.1 0 .1-.1l.1-.1h.6c.1.1.2.2.3.2l.3.3c.1.1 0 .3.1.4l.1.1v.5c-.3.4-.5.5-.7.7zm-109.8 7v.3c-.1.1-.2.2-.2.3h-.5l-.2-.2v-.5l.2-.2h.4l.3.3zm96.5-63.4h.7l.2.2h.1c.1.1 0 .3.2.4 0 .1.1.2.2.3v.3l.2.2-.2.2v.1l-.5.5h-.8l-.4-.4V54l-.2-.2v-1l.4-.4h.2c-.3-.1-.2-.1-.1-.1zm-95.1 73.6c-.1-.1-.2-.3-.4-.4v-.4l.2-.2c.2-.1.3 0 .4 0 .1.1.2.1.2.2v.2l.2.2v.1l-.4.4h-.2zm91.5-90.1h-.3l-.4-.4v-.2c0-.1.1-.1.2-.2l.2-.2h.3c.1.1.3.2.4.4v.4c-.1.1-.1.1-.2.1 0 .1-.1.1-.2.1zm12.2 55.4l.4-.4h.2c.1.1.2.3.4.4 0 .1.1.2.2.3v.2c0 .1-.1.1-.2.2v.1l-.1.1h-.5c-.1-.1-.1-.1-.1-.2l-.2-.2-.1-.5z"/>
</svg>
