<svg xmlns="http://www.w3.org/2000/svg" width="192.042992" height="129.983603" viewBox="0 0 50.811375 34.391495">
    <path class="color-main color-green" d="M24.651935 34.05515c-.25363-.18419-1.045959-.73139-1.760729-1.21611-.714765-.48471-2.091916-1.42408-3.060319-2.08745-.968403-.6634-2.081428-1.42475-2.473404-1.69189-.391976-.26716-.750401-.51848-.796529-.5585-.07685-.0666-1.705495-1.18962-4.024533-2.77487-.507246-.34676-1.412766-.97167-2.012267-1.38872-.599481-.41705-1.533244-1.05892-2.075011-1.42638-1.117105-.75768-1.511774-1.03199-1.572222-1.09278-.02297-.0232-.258287-.1836-.522733-.35632l-.480805-.31418H0l.02179-3.87782.02179-3.87781 2.843257-.0198c2.619334-.0178 2.857043-.0311 3.0184-.17251.09626-.0844.458108-.3449.803976-.57894.345848-.23405.8423-.5715 1.103201-.74985.260922-.17845 1.109837-.75416 1.8865-1.27953.776684-.52539 1.430987-.97845 1.454041-1.00679.02317-.0283.438104-.31873.922296-.64529 2.194063-1.47967 5.8328-3.97167 7.336395-5.02437.276686-.1937.936951-.64896 1.467271-1.01166.530319-.36268 1.212703-.83012 1.516425-1.03873C25.098785.008 25.234105-.07392 25.428595.0285c.10319.0543.20639.1218.22945.15012.0527.0646.87753.63444 2.38956 1.65091 1.52024 1.022 3.03159 2.0747 3.25851 2.26965.0984.0846.61301.44858 1.14333.80875.53032.36016 1.58676 1.08446 2.34764 1.60955.76089.52507 1.79846 1.23721 2.30572 1.58248.50727.3453 1.16753.79865 1.46727 1.00746.66788.46524.6696.46643 1.34153.92335.56621.38504 2.13645 1.45782 3.94067 2.69228l1.04807.71706 1.63496-.0228c.89924-.0119 2.22922-.0139 2.95552-.004l1.32055.0198v3.85686c0 2.12126-.0283 3.8586-.0628 3.86076-.0347.002-1.44169.0119-3.12688.0222l-3.06397.0178-.4229.27138c-.2326.14933-.4479.27137-.47844.27137-.0305 0-.0555-.11309-.0555-.25153v-.25153l-.64979.004c-.35739.002-8.60394-.01-18.32569-.0248-9.721732-.0158-17.694586.002-17.717442.0388-.02278.037.0204.0909.09586.12002.07566.0289.169538.13726.208872.24047.04555.11982.141809.18775.266071.18795.17944.00024.484409.19311 2.248906 1.42229.345848.24094 1.043863.72105 1.551109 1.0669.507265.34587 1.09209.74931 1.299595.89655.207525.14716.660285.45714 1.006133.68863.345868.23151.647708.44289.670762.46977.02297.0269.324894.23688.670743.46664.345868.22977 1.307973.8871 2.138033 1.46076 2.408422 1.66444 2.488833 1.71971 2.629474 1.80783.07368.0462.493045.33216.932119.63563.439074.30348 1.571782 1.07248 2.517125 1.70888.94535.63642 1.77838 1.20872 1.85119 1.27183.19879.17231.30838.14398.77512-.19967.2348-.1729.69324-.48421 1.01873-.69171.96953-.6181 3.98805-2.68582 4.5298-3.10299.27668-.21305.74832-.55175 1.04806-.7527.29974-.20093.90342-.61071 1.3415-.91063.43809-.29992.92858-.63357 1.08997-.74145.16142-.10794.38368-.26161.49396-.34163.64082-.46504 5.57679-3.83289 6.3221-4.31364.1939-.12517.39037-.25829.4365-.29598.50333-.41136.74492-.54004 1.08383-.57731.56876-.0626.48936.10932-.26878.58199-.35605.22194-1.02467.66621-1.48581.98726-.46114.32107-1.10255.76125-1.42536.97818-.74486.5006-2.0659 1.41921-2.19322 1.52511-.0812.0675-.66721.46335-1.1862.80122-.0709.0462-.18836.12933-.26118.18499-.0729.0557-.43424.30778-.80315.56032-.36892.25253-1.16125.79479-1.76073 1.20499-1.6619 1.13718-2.46504 1.69725-3.03121 2.11385-.28374.20875-1.04741.738-1.69706 1.17608-.64965.43811-1.74897 1.18326-2.44292 1.65594-.69396.47267-1.30742.85819-1.36325.8567-.0559-.001-.30905-.15329-.56269-.33751zm-7.504057-14.072c.139037-.0767.335629-.30663.439589-.5141.176668-.35248.187363-.47189.175678-1.96366-.0059-.87362-.05031-1.73758-.09665-1.91995-.05031-.19854-.228043-.48172-.442777-.70582l-.358584-.37425-.629923.0319c-1.225006.0618-1.475351.55107-1.476381 2.88524-.000733 1.68549.184788 2.43876.645351 2.62072.510058.20148 1.320411.1737 1.74374-.06zm-1.100448-.59461c-.292571-.11824-.366843-.52053-.366843-1.98688 0-1.77049.134482-2.14965.711345-2.00489.399858.10041.47617.42661.466564 1.99464-.0079 1.40056-.106555 1.9958-.32832 1.9958-.04476 0-.13151.0159-.192908.0366-.0614.0202-.191918.004-.289818-.0352zm6.414413.55427c.295799-.26443.429363-.65365.429363-1.25127 0-.48075-.03109-.57756-.314411-.98154-.172904-.2465-.546005-.62081-.82905-.8318-.283044-.21099-.556578-.47029-.607855-.57623-.221725-.45797-.03545-.93929.363611-.93929.249414 0 .396828.18281.459751.57033.04734.29124.07209.31295.409484.35815.197464.0265.374765.0228.393878-.008.01981-.0309.004-.25357-.03466-.49484-.128144-.81089-.635964-1.22186-1.419357-1.14878-.5283.0493-.797975.20648-.990467.57728-.179837.34644-.184194 1.11243-.0079 1.44552.160229.30325.739568.91929 1.176776 1.25141.397799.30218.498749.4881.492946.90794-.0059.36052-.201147.64945-.440975.64945-.231863 0-.475196-.38124-.538872-.84428l-.05803-.42188-.389817.0251-.389797.0251.02733.58693c.03466.73879.284906 1.18373.704689 1.2524.876659.14339 1.276597.10457 1.563444-.15191zm6.424872.0652c.25442-.16677.52378-.81303.55569-1.33341l.0257-.41921-.42756-.025-.42757-.025-.0578.463c-.0721.57659-.26974.84902-.56278.77546-.34401-.0864-.42313-.40325-.46415-1.85923-.0448-1.58721.0446-2.04302.42689-2.17747.20024-.0705.2588-.0547.38748.10418.0834.10299.17706.33803.2082.52234.056.33177.0604.33515.42656.33515h.36993v-.40899c0-.42764-.16201-.9216-.35492-1.08165-.18241-.15131-.91239-.2832-1.25121-.22596-.38641.0654-.85292.48791-.97359.88205-.13924.45442-.19667 2.14249-.10121 2.96631.0477.41156.15805.90946.24521 1.10645.13666.30889.21409.37577.5634.48663.46369.14715 1.11685.10754 1.41172-.0858zm5.10626-1.21659c-.004-.71757-.0327-1.57506-.0634-1.90554-.0307-.33046-.0244-.60084.0139-.60084.0386 0 .13468.30009.21344.66688.0788.36678.25776.97989.39764 1.36247.13983.38257.33339.9281.42999 1.2123l.17567.51669.38426.0329c.21303.0178.41198-.006.44652-.0557.0343-.0487.0531-1.25806.042-2.68762l-.0204-2.59917-.41078-.0262-.41077-.0261.0452 1.9829c.0248 1.0906.0178 1.95124-.0139 1.91256-.0325-.0386-.14279-.4099-.24501-.82493-.1022-.41503-.34843-1.26395-.54696-1.8865l-.36098-1.1319-.43273-.0254-.43274-.0254v5.36417l.27249.0347c.5521.0701.52475.13844.51641-1.2906zm8.92476 1.276c.0871-.0553.0919-.1121.021-.24474-.0509-.0951-.0925-.43757-.0925-.76113 0-.84426-.13686-1.39853-.39538-1.60193l-.21414-.16835.21889-.17211c.42468-.33405.50513-1.49376.13924-2.00754-.25675-.36056-.53032-.42758-1.63834-.40132l-1.00294.0238-.0222 2.66207-.0222 2.66205h.83593l.0234-1.11094.0234-1.11093.35313-.0256c.67976-.0493.82771.19998.88598 1.49292.0319.7098.0331.71289.27686.76563.36239.0784.48389.078.60976-.002zm-2.13215-3.14c-.0236-.0618-.0319-.41072-.0178-.77556l.0248-.66333.28409-.0271c.47679-.0455.68015.0487.8182.37905.26257.62839-.0891 1.1992-.73893 1.1992-.19549 0-.34399-.0452-.36978-.1123zm3.60806 2.64034c.0917-.78268.0792-.76739.62905-.76739.54697 0 .52877-.0232.63741.81005l.0564.43276.43036.0345c.23672.0198.45841.0119.49265-.0178.0343-.0283-.1422-1.06864-.39221-2.31175-.24997-1.24313-.48037-2.43944-.51198-2.65847l-.0574-.39828h-.61931c-.34062 0-.61942.0283-.61958.063-.00067.15963-.2776 1.64067-.41939 2.24284-.16438.69851-.58647 2.83655-.58647 2.9713 0 .0951.28828.14082.64116.10181.25353-.0279.26603-.0477.31938-.50307zm.29712-1.56883c0-.0321.0549-.4024.12181-.82313.0669-.42075.14795-.95365.18003-1.18421l.0582-.41923.11963.7546c.0658.41503.12616.95967.13448 1.2103l.0139.45571-.31441.0321c-.17291.0178-.31442.006-.31442-.0261zm4.50663 2.09608l.44018-.0491v-.65868h-1.59304v-4.69529h-.83844v5.35592l.31442.0259c.73006.0604 1.26353.0671 1.67688.021zM2.416047 17.35405l.02476-2.66205h-.923365l.004 2.68715.004 2.68714.432855-.0251.432855-.0252zm3.271161 2.34766l.02595-.31442H4.109976V14.692H3.1877v2.62711c0 1.44494.02614 2.65329.05803 2.68523.03189.0319.588469.0477 1.236712.0349l1.178602-.0232zm3.034304.021v-.33537H7.128455v-4.69529h-.838438v5.36604h2.431495zm1.444475.10478c.02198-.12676.04456-1.33418.05011-2.68303l.0099-2.45245h-.833704v5.36604h.366823c.334559 0 .370348-.0202.406909-.23056zm1.710169-1.71267c-.02971-1.06876-.03308-1.92215-.0079-1.89642.02575.0257.136857.438.246918.91614.11012.47813.365833 1.32209.568327 1.87546l.368189 1.00614.433766.0254.433747.0254v-5.37481h-.838438l-.0099.73362c-.0059.40351-.0059.76013-.0014.79251.0507.34732.173895 2.3638.145969 2.39157-.0202.0202-.122004-.23985-.226281-.57797-.104178-.33815-.385678-1.21847-.625486-1.9563l-.436004-1.34152-.429647-.0253-.429627-.0254v5.37482h.861076zm7.577431-.73978v-2.68308h-.838438V20.058h.838438zm12.995888 2.34763v-.33537h-.7037c-.49624 0-.71592-.0319-.7451-.10794-.0228-.0592-.0216-.45399.002-.87706l.0438-.76917.63798-.0244.63796-.0244-.004-.33537-.004-.33537-.64783-.0246-.6478-.0246.0244-.68813.0244-.68813.69172-.0244.69171-.0244v-.75256l-1.15228.0234-1.15228.0234.0159 2.6411c.008 1.45261.0178 2.65053.0204 2.66207.004.0119.51487.021 1.1374.021h1.1319zm5.97257-1.94938l.0224-2.28475.49928-.042c.5409-.0454.51408-.01.47332-.63087-.008-.11012-.20333-.12458-1.41279-.10478l-1.40438.023v.67076l.48211.0251.48209.0252v2.24563c0 1.23511.0251 2.2708.0559 2.30153.0307.0307.21878.0559.41786.0559h.362zm5.19127-4.63241c-.0406-.34817-.0697-.37734-.37382-.37696-.18756.00023-.48048-.14379-.98022-.48212-.39198-.26533-.73155-.50251-.7546-.52707-.023-.0246-.45696-.32554-.96421-.66892-.50726-.34335-1.1298-.76854-1.38343-.94485-.47851-.33266-1.36995-.94309-1.94837-1.3342-.1836-.12418-.41462-.28429-.51331-.35585-.34825-.25246-1.19573-.83384-2.06592-1.41722-.48421-.3246-.89924-.61473-.9223-.64472-.023-.0299-.32489-.23828-.67076-.46286-.34585-.22458-.64769-.43069-.67074-.45805-.023-.0273-.28693-.2175-.58637-.42259-.29946-.20507-.74032-.52381-.97973-.70826-.2394-.18439-.7973-.58062-1.23976-.88036-.90798-.61509-2.39068-1.63713-2.51964-1.73679-.0469-.0362-.47181-.32533-.94432-.64246l-.85913-.57661-.35252.24122c-.1939.1327-.919704.63495-1.612926 1.11615-.693216.4812-1.543359 1.06846-1.889223 1.305-.961669.65773-1.626074 1.12054-1.718804 1.19728-.04615.0382-.310238.22115-.586925.40666-.656185.4399-2.2169 1.50573-2.431475 1.66047-.820454.59166-2.249817 1.55668-2.305729 1.55668-.03842 0-.08239.0285-.09784.0636-.01584.0351-.310911.25191-.656779.48211-.345848.23019-.647688.44078-.670762.46798-.02298.0271-.306019.22628-.628833.4424-.743568.49787-2.95003 2.01745-4.003361 2.75712-.443253.31127-.865175.56595-.937585.56595-.07249 0-.131709.0485-.131709.10774 0 .0592-.113091.17449-.251533.25629-.138442.0818-.251533.17469-.251514.20671 0 .0319 8.310027.0582 18.466718.0582h18.46672zm-34.506462-.44813c-.02416-.039.284966-.29231.686765-.56301.4018-.27071.749411-.51244.772465-.53718.02298-.0247.287164-.21105.586905-.41404.29976-.20297.922295-.62744 1.383433-.94325.461158-.31582 1.487849-1.01748 2.281546-1.55925.793696-.54176 1.515993-1.03764 1.605099-1.10193.08913-.0644.70368-.48486 1.365707-.93459.662028-.44973 1.373471-.93713 1.580976-1.08314 1.761823-1.23947 2.660367-1.85834 2.766863-1.90565.06912-.0307.144582-.0818.167755-.11349.02297-.0317.236877-.18538.47518-.34149.238297-.15607.89262-.59859 1.454078-.98324l1.02081-.69938.72588.49475c2.68471 1.82987 3.16928 2.16532 3.26815 2.26245.061.0598.14319.10893.18261.10893.0396 0 .1218.0495.18261.10972.061.0604.41263.31254.78153.56033.36892.24779.70849.49514.7546.54967.0462.0545.34797.27197.67076.4832.3228.21123.73783.49184.9223.62357.18439.1317.78813.54844 1.3415.92601.55338.37758 1.17593.80501 1.38344.94985.20752.14478.83006.56967 1.38343.94406.55337.37439 1.02501.70107 1.04806.72596.0499.0539 1.85028 1.27094 2.82975 1.91294.38043.24938.69172.48618.69172.52624 0 .0943-32.255732.0963-32.313981.002zm15.494062 19.74844c-.28167-.19331-.602388-.41709-.712667-.49728-.24876-.18083-.646559-.45183-2.087007-1.42141-.622551-.41903-1.377151-.93857-1.676892-1.15451-.29974-.21595-1.214688-.85209-2.033221-1.41366-.818533-.56157-2.152016-1.48323-2.9633-2.04813-.811264-.56491-1.560259-1.0837-1.664418-1.15286-.206495-.13706-1.832727-1.25331-2.319612-1.59207-.166567-.11586-.622892-.42616-1.014274-.68961-.391401-.26348-.751926-.52759-.801163-.58693-.07288-.0879 2.870748-.10794 15.875684-.10794 8.78087 0 15.96522.0251 15.96524.0558.00002.0644-.89548.70247-2.51532 1.79215-1.64911 1.10936-2.21658 1.4992-2.2638 1.55513-.023.0273-.49469.35727-1.04806.73327-.55337.37601-1.55321 1.06153-2.22187 1.52338-.66866.46187-1.36668.94099-1.55113 1.06472-.18439.12378-.42971.30645-.545.40603-.11526.0996-.75667.55104-1.42534 1.00321-.66866.45216-1.90088 1.28781-2.73826 1.85695-.83741.56913-1.57314 1.03261-1.63497 1.02992-.0618-.002-.34292-.16301-.62462-.35633z"/>
</svg>
