<?xml version="1.0" encoding="UTF-8" standalone="no"?>
<svg
   xmlns="http://www.w3.org/2000/svg"
   id="svg620"
   version="1.1"
   viewBox="0 0 50.811375 34.391495"
   height="34.391495mm"
   width="50.811375mm">
  <g
     transform="translate(-75.891935,-115.00604)"
     id="layer1">
    <path
       id="path1352"
       d="m 100.54387,149.06119 c -0.25363,-0.18419 -1.045959,-0.73139 -1.760729,-1.21611 -0.714765,-0.48471 -2.091916,-1.42408 -3.060319,-2.08745 -0.968403,-0.6634 -2.081428,-1.42475 -2.473404,-1.69189 -0.391976,-0.26716 -0.750401,-0.51848 -0.796529,-0.5585 -0.07685,-0.0666 -1.705495,-1.18962 -4.024533,-2.77487 -0.507246,-0.34676 -1.412766,-0.97167 -2.012267,-1.38872 -0.599481,-0.41705 -1.533244,-1.05892 -2.075011,-1.42638 -1.117105,-0.75768 -1.511774,-1.03199 -1.572222,-1.09278 -0.02297,-0.0232 -0.258287,-0.1836 -0.522733,-0.35632 l -0.480805,-0.31418 h -2.936682 -2.936701 l 0.02179,-3.87782 0.02179,-3.87781 2.843257,-0.0198 c 2.619334,-0.0178 2.857043,-0.0311 3.0184,-0.17251 0.09626,-0.0844 0.458108,-0.3449 0.803976,-0.57894 0.345848,-0.23405 0.8423,-0.5715 1.103201,-0.74985 0.260922,-0.17845 1.109837,-0.75416 1.8865,-1.27953 0.776684,-0.52539 1.430987,-0.97845 1.454041,-1.00679 0.02317,-0.0283 0.438104,-0.31873 0.922296,-0.64529 2.194063,-1.47967 5.8328,-3.97167 7.336395,-5.02437 0.276686,-0.1937 0.936951,-0.64896 1.467271,-1.01166 0.530319,-0.36268 1.212703,-0.83012 1.516425,-1.03873 2.703443,-1.85685 2.838763,-1.93877 3.033253,-1.83635 0.10319,0.0543 0.20639,0.1218 0.22945,0.15012 0.0527,0.0646 0.87753,0.63444 2.38956,1.65091 1.52024,1.022 3.03159,2.0747 3.25851,2.26965 0.0984,0.0846 0.61301,0.44858 1.14333,0.80875 0.53032,0.36016 1.58676,1.08446 2.34764,1.60955 0.76089,0.52507 1.79846,1.23721 2.30572,1.58248 0.50727,0.3453 1.16753,0.79865 1.46727,1.00746 0.66788,0.46524 0.6696,0.46643 1.34153,0.92335 0.56621,0.38504 2.13645,1.45782 3.94067,2.69228 l 1.04807,0.71706 1.63496,-0.0228 c 0.89924,-0.0119 2.22922,-0.0139 2.95552,-0.004 l 1.32055,0.0198 v 3.85686 c 0,2.12126 -0.0283,3.8586 -0.0628,3.86076 -0.0347,0.002 -1.44169,0.0119 -3.12688,0.0222 l -3.06397,0.0178 -0.4229,0.27138 c -0.2326,0.14933 -0.4479,0.27137 -0.47844,0.27137 -0.0305,0 -0.0555,-0.11309 -0.0555,-0.25153 v -0.25153 l -0.64979,0.004 c -0.35739,0.002 -8.60394,-0.01 -18.32569,-0.0248 -9.721732,-0.0158 -17.694586,0.002 -17.717442,0.0388 -0.02278,0.037 0.0204,0.0909 0.09586,0.12002 0.07566,0.0289 0.169538,0.13726 0.208872,0.24047 0.04555,0.11982 0.141809,0.18775 0.266071,0.18795 0.17944,2.4e-4 0.484409,0.19311 2.248906,1.42229 0.345848,0.24094 1.043863,0.72105 1.551109,1.0669 0.507265,0.34587 1.09209,0.74931 1.299595,0.89655 0.207525,0.14716 0.660285,0.45714 1.006133,0.68863 0.345868,0.23151 0.647708,0.44289 0.670762,0.46977 0.02297,0.0269 0.324894,0.23688 0.670743,0.46664 0.345868,0.22977 1.307973,0.8871 2.138033,1.46076 2.408422,1.66444 2.488833,1.71971 2.629474,1.80783 0.07368,0.0462 0.493045,0.33216 0.932119,0.63563 0.439074,0.30348 1.571782,1.07248 2.517125,1.70888 0.94535,0.63642 1.77838,1.20872 1.85119,1.27183 0.19879,0.17231 0.30838,0.14398 0.77512,-0.19967 0.2348,-0.1729 0.69324,-0.48421 1.01873,-0.69171 0.96953,-0.6181 3.98805,-2.68582 4.5298,-3.10299 0.27668,-0.21305 0.74832,-0.55175 1.04806,-0.7527 0.29974,-0.20093 0.90342,-0.61071 1.3415,-0.91063 0.43809,-0.29992 0.92858,-0.63357 1.08997,-0.74145 0.16142,-0.10794 0.38368,-0.26161 0.49396,-0.34163 0.64082,-0.46504 5.57679,-3.83289 6.3221,-4.31364 0.1939,-0.12517 0.39037,-0.25829 0.4365,-0.29598 0.50333,-0.41136 0.74492,-0.54004 1.08383,-0.57731 0.56876,-0.0626 0.48936,0.10932 -0.26878,0.58199 -0.35605,0.22194 -1.02467,0.66621 -1.48581,0.98726 -0.46114,0.32107 -1.10255,0.76125 -1.42536,0.97818 -0.74486,0.5006 -2.0659,1.41921 -2.19322,1.52511 -0.0812,0.0675 -0.66721,0.46335 -1.1862,0.80122 -0.0709,0.0462 -0.18836,0.12933 -0.26118,0.18499 -0.0729,0.0557 -0.43424,0.30778 -0.80315,0.56032 -0.36892,0.25253 -1.16125,0.79479 -1.76073,1.20499 -1.6619,1.13718 -2.46504,1.69725 -3.03121,2.11385 -0.28374,0.20875 -1.04741,0.738 -1.69706,1.17608 -0.64965,0.43811 -1.74897,1.18326 -2.44292,1.65594 -0.69396,0.47267 -1.30742,0.85819 -1.36325,0.8567 -0.0559,-10e-4 -0.30905,-0.15329 -0.56269,-0.33751 z m -7.504057,-14.072 c 0.139037,-0.0767 0.335629,-0.30663 0.439589,-0.5141 0.176668,-0.35248 0.187363,-0.47189 0.175678,-1.96366 -0.0059,-0.87362 -0.05031,-1.73758 -0.09665,-1.91995 -0.05031,-0.19854 -0.228043,-0.48172 -0.442777,-0.70582 l -0.358584,-0.37425 -0.629923,0.0319 c -1.225006,0.0618 -1.475351,0.55107 -1.476381,2.88524 -7.33e-4,1.68549 0.184788,2.43876 0.645351,2.62072 0.510058,0.20148 1.320411,0.1737 1.74374,-0.06 z m -1.100448,-0.59461 c -0.292571,-0.11824 -0.366843,-0.52053 -0.366843,-1.98688 0,-1.77049 0.134482,-2.14965 0.711345,-2.00489 0.399858,0.10041 0.47617,0.42661 0.466564,1.99464 -0.0079,1.40056 -0.106555,1.9958 -0.32832,1.9958 -0.04476,0 -0.13151,0.0159 -0.192908,0.0366 -0.0614,0.0202 -0.191918,0.004 -0.289818,-0.0352 z m 6.414413,0.55427 c 0.295799,-0.26443 0.429363,-0.65365 0.429363,-1.25127 0,-0.48075 -0.03109,-0.57756 -0.314411,-0.98154 -0.172904,-0.2465 -0.546005,-0.62081 -0.82905,-0.8318 -0.283044,-0.21099 -0.556578,-0.47029 -0.607855,-0.57623 -0.221725,-0.45797 -0.03545,-0.93929 0.363611,-0.93929 0.249414,0 0.396828,0.18281 0.459751,0.57033 0.04734,0.29124 0.07209,0.31295 0.409484,0.35815 0.197464,0.0265 0.374765,0.0228 0.393878,-0.008 0.01981,-0.0309 0.004,-0.25357 -0.03466,-0.49484 -0.128144,-0.81089 -0.635964,-1.22186 -1.419357,-1.14878 -0.5283,0.0493 -0.797975,0.20648 -0.990467,0.57728 -0.179837,0.34644 -0.184194,1.11243 -0.0079,1.44552 0.160229,0.30325 0.739568,0.91929 1.176776,1.25141 0.397799,0.30218 0.498749,0.4881 0.492946,0.90794 -0.0059,0.36052 -0.201147,0.64945 -0.440975,0.64945 -0.231863,0 -0.475196,-0.38124 -0.538872,-0.84428 l -0.05803,-0.42188 -0.389817,0.0251 -0.389797,0.0251 0.02733,0.58693 c 0.03466,0.73879 0.284906,1.18373 0.704689,1.2524 0.876659,0.14339 1.276597,0.10457 1.563444,-0.15191 z m 6.424872,0.0652 c 0.25442,-0.16677 0.52378,-0.81303 0.55569,-1.33341 l 0.0257,-0.41921 -0.42756,-0.025 -0.42757,-0.025 -0.0578,0.463 c -0.0721,0.57659 -0.26974,0.84902 -0.56278,0.77546 -0.34401,-0.0864 -0.42313,-0.40325 -0.46415,-1.85923 -0.0448,-1.58721 0.0446,-2.04302 0.42689,-2.17747 0.20024,-0.0705 0.2588,-0.0547 0.38748,0.10418 0.0834,0.10299 0.17706,0.33803 0.2082,0.52234 0.056,0.33177 0.0604,0.33515 0.42656,0.33515 h 0.36993 v -0.40899 c 0,-0.42764 -0.16201,-0.9216 -0.35492,-1.08165 -0.18241,-0.15131 -0.91239,-0.2832 -1.25121,-0.22596 -0.38641,0.0654 -0.85292,0.48791 -0.97359,0.88205 -0.13924,0.45442 -0.19667,2.14249 -0.10121,2.96631 0.0477,0.41156 0.15805,0.90946 0.24521,1.10645 0.13666,0.30889 0.21409,0.37577 0.5634,0.48663 0.46369,0.14715 1.11685,0.10754 1.41172,-0.0858 z m 5.10626,-1.21659 c -0.004,-0.71757 -0.0327,-1.57506 -0.0634,-1.90554 -0.0307,-0.33046 -0.0244,-0.60084 0.0139,-0.60084 0.0386,0 0.13468,0.30009 0.21344,0.66688 0.0788,0.36678 0.25776,0.97989 0.39764,1.36247 0.13983,0.38257 0.33339,0.9281 0.42999,1.2123 l 0.17567,0.51669 0.38426,0.0329 c 0.21303,0.0178 0.41198,-0.006 0.44652,-0.0557 0.0343,-0.0487 0.0531,-1.25806 0.042,-2.68762 l -0.0204,-2.59917 -0.41078,-0.0262 -0.41077,-0.0261 0.0452,1.9829 c 0.0248,1.0906 0.0178,1.95124 -0.0139,1.91256 -0.0325,-0.0386 -0.14279,-0.4099 -0.24501,-0.82493 -0.1022,-0.41503 -0.34843,-1.26395 -0.54696,-1.8865 l -0.36098,-1.1319 -0.43273,-0.0254 -0.43274,-0.0254 v 2.68209 2.68208 l 0.27249,0.0347 c 0.5521,0.0701 0.52475,0.13844 0.51641,-1.2906 z m 8.92476,1.276 c 0.0871,-0.0553 0.0919,-0.1121 0.021,-0.24474 -0.0509,-0.0951 -0.0925,-0.43757 -0.0925,-0.76113 0,-0.84426 -0.13686,-1.39853 -0.39538,-1.60193 l -0.21414,-0.16835 0.21889,-0.17211 c 0.42468,-0.33405 0.50513,-1.49376 0.13924,-2.00754 -0.25675,-0.36056 -0.53032,-0.42758 -1.63834,-0.40132 l -1.00294,0.0238 -0.0222,2.66207 -0.0222,2.66205 h 0.41796 0.41797 l 0.0234,-1.11094 0.0234,-1.11093 0.35313,-0.0256 c 0.67976,-0.0493 0.82771,0.19998 0.88598,1.49292 0.0319,0.7098 0.0331,0.71289 0.27686,0.76563 0.36239,0.0784 0.48389,0.078 0.60976,-0.002 z m -2.13215,-3.14 c -0.0236,-0.0618 -0.0319,-0.41072 -0.0178,-0.77556 l 0.0248,-0.66333 0.28409,-0.0271 c 0.47679,-0.0455 0.68015,0.0487 0.8182,0.37905 0.26257,0.62839 -0.0891,1.1992 -0.73893,1.1992 -0.19549,0 -0.34399,-0.0452 -0.36978,-0.1123 z m 3.60806,2.64034 c 0.0917,-0.78268 0.0792,-0.76739 0.62905,-0.76739 0.54697,0 0.52877,-0.0232 0.63741,0.81005 l 0.0564,0.43276 0.43036,0.0345 c 0.23672,0.0198 0.45841,0.0119 0.49265,-0.0178 0.0343,-0.0283 -0.1422,-1.06864 -0.39221,-2.31175 -0.24997,-1.24313 -0.48037,-2.43944 -0.51198,-2.65847 l -0.0574,-0.39828 h -0.61931 c -0.34062,0 -0.61942,0.0283 -0.61958,0.063 -6.7e-4,0.15963 -0.2776,1.64067 -0.41939,2.24284 -0.16438,0.69851 -0.58647,2.83655 -0.58647,2.9713 0,0.0951 0.28828,0.14082 0.64116,0.10181 0.25353,-0.0279 0.26603,-0.0477 0.31938,-0.50307 z m 0.29712,-1.56883 c 0,-0.0321 0.0549,-0.4024 0.12181,-0.82313 0.0669,-0.42075 0.14795,-0.95365 0.18003,-1.18421 l 0.0582,-0.41923 0.11963,0.7546 c 0.0658,0.41503 0.12616,0.95967 0.13448,1.2103 l 0.0139,0.45571 -0.31441,0.0321 c -0.17291,0.0178 -0.31442,0.006 -0.31442,-0.0261 z m 4.50663,2.09608 0.44018,-0.0491 v -0.32935 -0.32933 h -0.79651 -0.79653 v -2.34765 -2.34764 h -0.41923 -0.41921 v 2.67796 2.67796 l 0.31442,0.0259 c 0.73006,0.0604 1.26353,0.0671 1.67688,0.021 z m -46.781348,-2.74096 0.02476,-2.66205 H 77.87107 77.409377 l 0.004,2.68715 0.004,2.68714 0.432855,-0.0251 0.432855,-0.0252 z m 3.271161,2.34766 0.02595,-0.31442 H 80.80351 80.001911 v -2.34765 -2.34764 h -0.461138 -0.461138 v 2.62711 c 0,1.44494 0.02614,2.65329 0.05803,2.68523 0.03189,0.0319 0.588469,0.0477 1.236712,0.0349 l 1.178602,-0.0232 z m 3.034304,0.021 v -0.33537 H 83.816918 83.02039 v -2.34765 -2.34764 h -0.419209 -0.419229 v 2.68303 2.68301 h 1.215738 1.215757 z m 1.444475,0.10478 c 0.02198,-0.12676 0.04456,-1.33418 0.05011,-2.68303 l 0.0099,-2.45245 H 85.70108 85.284228 v 2.68303 2.68301 h 0.366823 c 0.334559,0 0.370348,-0.0202 0.406909,-0.23056 z m 1.710169,-1.71267 c -0.02971,-1.06876 -0.03308,-1.92215 -0.0079,-1.89642 0.02575,0.0257 0.136857,0.438 0.246918,0.91614 0.11012,0.47813 0.365833,1.32209 0.568327,1.87546 l 0.368189,1.00614 0.433766,0.0254 0.433747,0.0254 v -2.68741 -2.6874 H 89.391929 88.9727 l -0.0099,0.73362 c -0.0059,0.40351 -0.0059,0.76013 -0.0014,0.79251 0.0507,0.34732 0.173895,2.3638 0.145969,2.39157 -0.0202,0.0202 -0.122004,-0.23985 -0.226281,-0.57797 -0.104178,-0.33815 -0.385678,-1.21847 -0.625486,-1.9563 l -0.436004,-1.34152 -0.429647,-0.0253 -0.429627,-0.0254 v 2.68741 2.68741 h 0.430538 0.430538 z m 7.577431,-0.73978 V 129.698 h -0.419209 -0.419229 v 2.68303 2.68301 h 0.419229 0.419209 z m 12.995888,2.34763 v -0.33537 h -0.7037 c -0.49624,0 -0.71592,-0.0319 -0.7451,-0.10794 -0.0228,-0.0592 -0.0216,-0.45399 0.002,-0.87706 l 0.0438,-0.76917 0.63798,-0.0244 0.63796,-0.0244 -0.004,-0.33537 -0.004,-0.33537 -0.64783,-0.0246 -0.6478,-0.0246 0.0244,-0.68813 0.0244,-0.68813 0.69172,-0.0244 0.69171,-0.0244 v -0.37627 -0.37629 l -1.15228,0.0234 -1.15228,0.0234 0.0159,2.6411 c 0.008,1.45261 0.0178,2.65053 0.0204,2.66207 0.004,0.0119 0.51487,0.021 1.1374,0.021 h 1.1319 z m 5.97257,-1.94938 0.0224,-2.28475 0.49928,-0.042 c 0.5409,-0.0454 0.51408,-0.01 0.47332,-0.63087 -0.008,-0.11012 -0.20333,-0.12458 -1.41279,-0.10478 l -1.40438,0.023 v 0.33539 0.33537 l 0.48211,0.0251 0.48209,0.0252 v 2.24563 c 0,1.23511 0.0251,2.2708 0.0559,2.30153 0.0307,0.0307 0.21878,0.0559 0.41786,0.0559 h 0.362 z m 5.19127,-4.63241 c -0.0406,-0.34817 -0.0697,-0.37734 -0.37382,-0.37696 -0.18756,2.3e-4 -0.48048,-0.14379 -0.98022,-0.48212 -0.39198,-0.26533 -0.73155,-0.50251 -0.7546,-0.52707 -0.023,-0.0246 -0.45696,-0.32554 -0.96421,-0.66892 -0.50726,-0.34335 -1.1298,-0.76854 -1.38343,-0.94485 -0.47851,-0.33266 -1.36995,-0.94309 -1.94837,-1.3342 -0.1836,-0.12418 -0.41462,-0.28429 -0.51331,-0.35585 -0.34825,-0.25246 -1.19573,-0.83384 -2.06592,-1.41722 -0.48421,-0.3246 -0.89924,-0.61473 -0.9223,-0.64472 -0.023,-0.0299 -0.32489,-0.23828 -0.67076,-0.46286 -0.34585,-0.22458 -0.64769,-0.43069 -0.67074,-0.45805 -0.023,-0.0273 -0.28693,-0.2175 -0.58637,-0.42259 -0.29946,-0.20507 -0.74032,-0.52381 -0.97973,-0.70826 -0.2394,-0.18439 -0.7973,-0.58062 -1.23976,-0.88036 -0.90798,-0.61509 -2.39068,-1.63713 -2.51964,-1.73679 -0.0469,-0.0362 -0.47181,-0.32533 -0.94432,-0.64246 l -0.85913,-0.57661 -0.35252,0.24122 c -0.1939,0.1327 -0.919704,0.63495 -1.612926,1.11615 -0.693216,0.4812 -1.543359,1.06846 -1.889223,1.305 -0.961669,0.65773 -1.626074,1.12054 -1.718804,1.19728 -0.04615,0.0382 -0.310238,0.22115 -0.586925,0.40666 -0.656185,0.4399 -2.2169,1.50573 -2.431475,1.66047 -0.820454,0.59166 -2.249817,1.55668 -2.305729,1.55668 -0.03842,0 -0.08239,0.0285 -0.09784,0.0636 -0.01584,0.0351 -0.310911,0.25191 -0.656779,0.48211 -0.345848,0.23019 -0.647688,0.44078 -0.670762,0.46798 -0.02298,0.0271 -0.306019,0.22628 -0.628833,0.4424 -0.743568,0.49787 -2.95003,2.01745 -4.003361,2.75712 -0.443253,0.31127 -0.865175,0.56595 -0.937585,0.56595 -0.07249,0 -0.131709,0.0485 -0.131709,0.10774 0,0.0592 -0.113091,0.17449 -0.251533,0.25629 -0.138442,0.0818 -0.251533,0.17469 -0.251514,0.20671 0,0.0319 8.310027,0.0582 18.466718,0.0582 h 18.46672 z m -34.506462,-0.44813 c -0.02416,-0.039 0.284966,-0.29231 0.686765,-0.56301 0.4018,-0.27071 0.749411,-0.51244 0.772465,-0.53718 0.02298,-0.0247 0.287164,-0.21105 0.586905,-0.41404 0.29976,-0.20297 0.922295,-0.62744 1.383433,-0.94325 0.461158,-0.31582 1.487849,-1.01748 2.281546,-1.55925 0.793696,-0.54176 1.515993,-1.03764 1.605099,-1.10193 0.08913,-0.0644 0.70368,-0.48486 1.365707,-0.93459 0.662028,-0.44973 1.373471,-0.93713 1.580976,-1.08314 1.761823,-1.23947 2.660367,-1.85834 2.766863,-1.90565 0.06912,-0.0307 0.144582,-0.0818 0.167755,-0.11349 0.02297,-0.0317 0.236877,-0.18538 0.47518,-0.34149 0.238297,-0.15607 0.89262,-0.59859 1.454078,-0.98324 l 1.02081,-0.69938 0.72588,0.49475 c 2.68471,1.82987 3.16928,2.16532 3.26815,2.26245 0.061,0.0598 0.14319,0.10893 0.18261,0.10893 0.0396,0 0.1218,0.0495 0.18261,0.10972 0.061,0.0604 0.41263,0.31254 0.78153,0.56033 0.36892,0.24779 0.70849,0.49514 0.7546,0.54967 0.0462,0.0545 0.34797,0.27197 0.67076,0.4832 0.3228,0.21123 0.73783,0.49184 0.9223,0.62357 0.18439,0.1317 0.78813,0.54844 1.3415,0.92601 0.55338,0.37758 1.17593,0.80501 1.38344,0.94985 0.20752,0.14478 0.83006,0.56967 1.38343,0.94406 0.55337,0.37439 1.02501,0.70107 1.04806,0.72596 0.0499,0.0539 1.85028,1.27094 2.82975,1.91294 0.38043,0.24938 0.69172,0.48618 0.69172,0.52624 0,0.0943 -32.255732,0.0963 -32.313981,0.002 z m 15.494062,19.74844 c -0.28167,-0.19331 -0.602388,-0.41709 -0.712667,-0.49728 -0.24876,-0.18083 -0.646559,-0.45183 -2.087007,-1.42141 -0.622551,-0.41903 -1.377151,-0.93857 -1.676892,-1.15451 -0.29974,-0.21595 -1.214688,-0.85209 -2.033221,-1.41366 -0.818533,-0.56157 -2.152016,-1.48323 -2.9633,-2.04813 -0.811264,-0.56491 -1.560259,-1.0837 -1.664418,-1.15286 -0.206495,-0.13706 -1.832727,-1.25331 -2.319612,-1.59207 -0.166567,-0.11586 -0.622892,-0.42616 -1.014274,-0.68961 -0.391401,-0.26348 -0.751926,-0.52759 -0.801163,-0.58693 -0.07288,-0.0879 2.870748,-0.10794 15.875684,-0.10794 8.78087,0 15.96522,0.0251 15.96524,0.0558 2e-5,0.0644 -0.89548,0.70247 -2.51532,1.79215 -1.64911,1.10936 -2.21658,1.4992 -2.2638,1.55513 -0.023,0.0273 -0.49469,0.35727 -1.04806,0.73327 -0.55337,0.37601 -1.55321,1.06153 -2.22187,1.52338 -0.66866,0.46187 -1.36668,0.94099 -1.55113,1.06472 -0.18439,0.12378 -0.42971,0.30645 -0.545,0.40603 -0.11526,0.0996 -0.75667,0.55104 -1.42534,1.00321 -0.66866,0.45216 -1.90088,1.28781 -2.73826,1.85695 -0.83741,0.56913 -1.57314,1.03261 -1.63497,1.02992 -0.0618,-0.002 -0.34292,-0.16301 -0.62462,-0.35633 z"
       style="display:inline;fill:#000000;stroke-width:0.08384444" />
  </g>
</svg>
