<svg xmlns="http://www.w3.org/2000/svg" width="192.043" height="129.984" viewBox="0 0 50.811 34.391">
    <path class="IC_svg__IC_svg__IC_svg__IC_svg__color-main IC_svg__IC_svg__IC_svg__IC_svg__color-green" d="M24.652 34.055a99.38 99.38 0 00-1.76-1.216 975.644 975.644 0 01-3.061-2.087c-.969-.664-2.082-1.425-2.474-1.692a22.54 22.54 0 01-.796-.559c-.077-.066-1.706-1.19-4.025-2.775a353.12 353.12 0 01-2.012-1.388c-.6-.417-1.533-1.06-2.075-1.427-1.117-.757-1.512-1.032-1.572-1.093a9.497 9.497 0 00-.523-.356l-.48-.314H0l.022-3.878.022-3.878 2.843-.02c2.62-.017 2.857-.03 3.018-.172.096-.084.458-.345.804-.579a695.216 695.216 0 012.99-2.03c.777-.525 1.43-.978 1.454-1.006.023-.028.438-.319.922-.645a692.687 692.687 0 007.337-5.025c.276-.193.937-.649 1.467-1.011.53-.363 1.213-.83 1.516-1.04C25.1.009 25.235-.073 25.43.029c.103.055.206.122.229.15.053.065.878.635 2.39 1.652 1.52 1.022 3.031 2.074 3.258 2.27a25.8 25.8 0 001.143.808 428.3 428.3 0 012.348 1.61c.761.525 1.799 1.237 2.306 1.582.507.345 1.167.799 1.467 1.007.668.466.67.467 1.342.924.566.385 2.136 1.458 3.94 2.692l1.048.717 1.635-.023c.9-.012 2.23-.014 2.956-.004l1.32.02v3.857c0 2.121-.028 3.859-.062 3.86-.035.003-1.442.013-3.127.023l-3.064.018-.423.271c-.233.15-.448.271-.479.271-.03 0-.055-.113-.055-.251v-.252l-.65.004c-.357.002-8.604-.01-18.326-.024-9.721-.016-17.694.002-17.717.038-.023.037.02.091.096.12.075.03.17.138.209.24.045.12.142.189.266.189.18 0 .484.193 2.249 1.422.346.241 1.044.721 1.55 1.067.508.346 1.093.75 1.3.897.208.147.66.457 1.007.688.345.232.647.443.67.47.023.027.325.237.671.467.346.23 1.308.887 2.138 1.46 2.408 1.665 2.489 1.72 2.63 1.808.073.046.493.332.932.636.439.303 1.571 1.072 2.517 1.709.945.636 1.778 1.208 1.851 1.272.199.172.308.144.775-.2a22.74 22.74 0 011.019-.692c.97-.618 3.988-2.686 4.53-3.103a22.59 22.59 0 011.048-.752c.3-.201.903-.611 1.341-.911.438-.3.929-.634 1.09-.742.162-.108.384-.261.494-.341.64-.465 5.577-3.833 6.322-4.314.194-.125.39-.258.437-.296.503-.411.745-.54 1.084-.577.568-.063.489.11-.27.582-.355.222-1.024.666-1.485.987-.461.321-1.103.761-1.425.978-.745.5-2.066 1.42-2.194 1.525-.08.068-.667.464-1.186.802a42.787 42.787 0 01-1.064.745c-.37.252-1.161.795-1.76 1.205-1.663 1.137-2.466 1.697-3.032 2.114a70.45 70.45 0 01-1.697 1.176c-.65.438-1.75 1.183-2.443 1.656-.694.472-1.308.858-1.363.856-.056 0-.31-.153-.563-.337zm-7.504-14.072c.139-.077.336-.306.44-.514.176-.352.187-.472.175-1.964-.006-.873-.05-1.737-.097-1.92-.05-.198-.228-.481-.442-.705l-.359-.375-.63.032c-1.225.062-1.475.551-1.476 2.886 0 1.685.185 2.438.645 2.62.51.202 1.32.174 1.744-.06zm-1.1-.594c-.293-.119-.367-.521-.367-1.987 0-1.77.134-2.15.71-2.005.4.1.477.426.467 1.994-.007 1.401-.106 1.996-.328 1.996a.744.744 0 00-.193.037.525.525 0 01-.29-.035zm6.414.554c.296-.265.43-.654.43-1.251 0-.481-.032-.578-.315-.982a4.474 4.474 0 00-.83-.832c-.282-.21-.556-.47-.607-.576-.222-.458-.036-.94.364-.94.249 0 .396.183.46.571.047.291.071.313.409.358.197.027.375.023.394-.008.02-.03.004-.253-.035-.495-.128-.81-.636-1.222-1.42-1.148-.528.049-.797.206-.99.577-.18.346-.184 1.112-.008 1.445.16.304.74.92 1.177 1.252.398.302.499.488.493.908-.006.36-.201.65-.441.65-.232 0-.475-.382-.539-.845l-.058-.422-.39.025-.39.025.028.587c.034.739.285 1.184.704 1.253.877.143 1.277.104 1.564-.152zm6.425.065c.254-.167.523-.813.555-1.333l.026-.42-.427-.025-.428-.025-.058.463c-.072.577-.27.85-.563.776-.344-.087-.423-.403-.464-1.86-.045-1.587.045-2.042.427-2.177.2-.07.259-.055.388.104.083.103.177.338.208.523.056.331.06.335.426.335h.37v-.41c0-.427-.162-.92-.355-1.08-.182-.152-.912-.284-1.25-.227-.387.066-.854.488-.974.882-.14.455-.197 2.143-.102 2.967.048.411.158.909.246 1.106.136.309.214.376.563.487.464.147 1.117.107 1.412-.086zm5.106-1.217a29.933 29.933 0 00-.063-1.905c-.031-.33-.025-.601.013-.601.04 0 .135.3.214.667.079.367.258.98.398 1.362.14.383.333.928.43 1.213l.175.516.384.033c.214.018.412-.006.447-.055.034-.05.053-1.258.042-2.688l-.02-2.6-.411-.025-.411-.027.045 1.983c.025 1.091.018 1.952-.014 1.913-.032-.039-.142-.41-.245-.825a36.757 36.757 0 00-.547-1.886l-.36-1.132-.433-.026-.433-.025v5.364l.272.035c.553.07.525.138.517-1.29zm8.925 1.276c.087-.055.092-.112.02-.244-.05-.095-.092-.438-.092-.761 0-.845-.137-1.399-.395-1.602l-.214-.169.219-.172c.424-.334.505-1.494.139-2.007-.257-.36-.53-.428-1.638-.402l-1.003.024-.023 2.662-.022 2.662h.836l.023-1.11.024-1.112.353-.025c.68-.05.828.2.886 1.493.032.71.033.713.277.765.362.079.484.078.61-.002zm-2.132-3.14c-.024-.061-.032-.41-.018-.775l.025-.663.284-.028c.476-.045.68.05.818.38.262.628-.09 1.199-.74 1.199-.195 0-.343-.046-.369-.113zm3.608 2.64c.091-.782.079-.767.629-.767.547 0 .528-.023.637.81l.057.433.43.035c.237.02.458.012.493-.018.034-.028-.143-1.069-.393-2.312-.25-1.243-.48-2.44-.512-2.658l-.057-.399h-.62c-.34 0-.619.029-.619.063 0 .16-.278 1.641-.42 2.243-.164.699-.586 2.837-.586 2.972 0 .095.288.14.641.101.254-.028.266-.047.32-.503zM44.69 18c0-.032.055-.402.122-.823.066-.42.148-.954.18-1.184l.058-.42.12.755c.065.415.126.96.134 1.21l.014.456-.315.032c-.173.018-.314.006-.314-.026zm4.506 2.096l.44-.05v-.658h-1.592v-4.695h-.839v5.356l.315.026c.73.06 1.263.067 1.676.02zm-46.781-2.74l.025-2.663h-.924l.004 2.687.004 2.687.433-.025.433-.025zm3.271 2.347l.026-.315H4.11v-4.695h-.922v2.627c0 1.445.026 2.653.058 2.685.032.032.588.048 1.236.035l1.179-.023zm3.035.02v-.335H7.128v-4.695H6.29v5.366h2.432zm1.444.105c.022-.126.045-1.334.05-2.683l.01-2.452h-.834v5.366h.367c.335 0 .37-.02.407-.23zm1.71-1.712c-.03-1.069-.033-1.922-.008-1.897.026.026.137.438.247.917.11.478.366 1.322.569 1.875l.368 1.006.433.026.434.025v-5.375h-.838l-.01.734c-.006.403-.006.76-.002.792.051.348.174 2.364.146 2.392-.02.02-.122-.24-.226-.578a183.81 183.81 0 00-.625-1.956l-.436-1.342-.43-.025-.43-.026v5.375h.861zm7.578-.74v-2.683h-.839v5.366h.839zm12.995 2.348v-.336h-.703c-.496 0-.716-.032-.745-.108-.023-.059-.022-.454.002-.877l.043-.769.638-.024.638-.025-.004-.335-.004-.335-.647-.025-.648-.025.024-.688.025-.688.691-.024.692-.025v-.752l-1.152.023-1.153.024.016 2.64c.008 1.453.018 2.651.02 2.663.005.012.516.02 1.138.02h1.132zm5.973-1.95l.022-2.284.5-.042c.54-.046.514-.01.473-.631-.008-.11-.203-.125-1.413-.105l-1.404.023v.67l.482.026.482.025v2.246c0 1.235.025 2.27.056 2.301.03.03.219.056.418.056h.362zm5.191-4.632c-.04-.348-.07-.377-.374-.377-.187 0-.48-.144-.98-.482a17.743 17.743 0 01-.754-.527 28.081 28.081 0 00-.965-.67c-.507-.343-1.13-.768-1.383-.944a214.59 214.59 0 00-1.948-1.334 24.98 24.98 0 01-.514-.356 90.324 90.324 0 00-2.066-1.417c-.484-.325-.899-.615-.922-.645-.023-.03-.325-.238-.67-.463-.346-.224-.648-.43-.671-.458a8.856 8.856 0 00-.587-.423c-.3-.205-.74-.523-.98-.708-.239-.184-.797-.58-1.24-.88A166.73 166.73 0 0127.04 1.72a54.11 54.11 0 00-.944-.642L25.236.5l-.352.241c-.194.133-.92.635-1.613 1.116a443.52 443.52 0 01-1.889 1.305c-.962.658-1.626 1.12-1.719 1.198-.046.038-.31.22-.587.406-.656.44-2.217 1.506-2.431 1.66-.82.592-2.25 1.557-2.306 1.557a.116.116 0 00-.098.064c-.016.035-.31.252-.657.482-.345.23-.647.44-.67.468a9.685 9.685 0 01-.63.443 316.14 316.14 0 00-4.002 2.757c-.444.31-.866.566-.938.566-.073 0-.132.048-.132.107 0 .06-.113.175-.251.257-.139.081-.252.174-.252.206s8.31.059 18.467.059h18.467zm-34.506-.448c-.024-.04.285-.293.687-.563.401-.271.749-.513.772-.537.023-.025.287-.211.587-.414.3-.203.922-.628 1.383-.944l2.282-1.559c.794-.542 1.516-1.038 1.605-1.102.09-.064.704-.485 1.366-.934.662-.45 1.373-.938 1.58-1.084 1.763-1.24 2.661-1.858 2.768-1.905a.51.51 0 00.167-.114c.023-.031.237-.185.476-.341.238-.156.892-.599 1.454-.984l1.02-.699.726.495c2.685 1.83 3.17 2.165 3.268 2.262.061.06.144.11.183.11.04 0 .122.049.183.109.06.06.412.313.781.56.37.248.709.495.755.55.046.054.348.272.67.483.323.211.738.492.923.624.184.131.788.548 1.341.926.554.377 1.176.805 1.384.95.207.144.83.57 1.383.944a31.8 31.8 0 011.048.726c.05.054 1.85 1.27 2.83 1.913.38.249.692.486.692.526 0 .094-32.256.096-32.314.002zM24.6 32.44a45.94 45.94 0 01-.713-.497c-.249-.18-.646-.452-2.087-1.422a85.83 85.83 0 01-1.677-1.154c-.3-.216-1.214-.852-2.033-1.414a630.427 630.427 0 01-2.963-2.048 210.31 210.31 0 00-1.665-1.153 342.885 342.885 0 01-2.32-1.592c-.166-.116-.622-.426-1.013-.69-.392-.263-.752-.527-.802-.586-.073-.088 2.871-.108 15.876-.108 8.78 0 15.965.025 15.965.056 0 .064-.895.702-2.515 1.792-1.65 1.11-2.217 1.499-2.264 1.555a25.64 25.64 0 01-1.048.733 431.05 431.05 0 00-2.222 1.524c-.668.461-1.366.94-1.55 1.064a7 7 0 00-.546.406c-.115.1-.757.551-1.425 1.003-.669.453-1.901 1.288-2.738 1.857-.838.57-1.574 1.033-1.635 1.03-.062-.002-.343-.163-.625-.356z"/>
</svg>
