<svg width="50mm" height="163.69" viewBox="-15 -12.5 80 80">
    <path class="IFT_svg__IFT_svg__IFT_svg__IFT_svg__color-main IFT_svg__IFT_svg__IFT_svg__IFT_svg__color-blue" fill="#fff" fill-rule="evenodd" d="M52.039 44.489l-27.15.048-26.925.092L11.55 21.084 24.888-2.211l13.926 23.045z"/>
    <g stroke-width=".43">
        <path class="IFT_svg__IFT_svg__IFT_svg__IFT_svg__color-main IFT_svg__IFT_svg__IFT_svg__IFT_svg__color-blue" fill="#214799" fill-rule="evenodd" d="M50 43.18l-25.103.045L0 43.31l12.562-21.77L24.895 0l12.877 21.308z"/>
        <g style="line-height:1.25;-inkscape-font-specification:'Pump Demi Bold Plain'">
            <path fill="#fff" d="M28.077 16.145s-3.557-.269-4.965.625c-.575.365-.874 1.08-1.093 1.725-.12.352-.104.74-.102 1.112.007 1.652 0 4.9 0 4.9h2.339v-2.364h3.829v-2.317h-3.83s-.02-.366 0-.548c.37-1.273 2.668-.977 3.822-.984z" aria-label="F" font-family="Pump Demi Bold Plain" font-size="5.644" font-weight="400" letter-spacing="0" word-spacing="0" style="-inkscape-font-specification:'Pump Demi Bold Plain'"/>
        </g>
        <g style="line-height:1.25;-inkscape-font-specification:'Pump Demi Bold Plain'">
            <path fill="#fff" d="M7.187 41.364h1.462V37.34h1.15v-1.453H6.036v1.453h1.15zm3.211 0h1.462v-4.139h.485c.443 0 .698.214.698.591 0 .386-.263.592-.772.592h-1.397v1.076h1.421c.559 0 .78.213.788.78v1.1h1.462v-1.117c0-.64-.172-1.002-.632-1.355.41-.353.591-.723.591-1.248 0-.649-.32-1.191-.887-1.495-.361-.189-.73-.263-1.437-.263h-1.782zm4.908 0h1.462v-5.477h-1.462zm3.78 0v-3.408c0-.435.27-.73.673-.73.41 0 .648.262.648.73v3.408h1.462v-3.26c0-.723-.148-1.175-.517-1.602a2.076 2.076 0 00-1.61-.722c-1.31.02-2.119.04-2.119.04v5.544zm8.038 0v-3.26c0-.723-.148-1.175-.517-1.602a2.072 2.072 0 00-1.602-.722c-.657 0-1.24.27-1.642.763-.345.42-.485.855-.485 1.56v3.261h1.462V39.87h1.322v1.494zm-1.462-2.735H24.34v-.533c0-.23.016-.362.066-.477a.64.64 0 01.6-.394.65.65 0 01.574.345c.066.14.082.246.082.526zm5.72 1.282a1.92 1.92 0 01-.632.106c-.821 0-1.445-.599-1.445-1.387 0-.789.615-1.388 1.428-1.388.214 0 .386.024.65.107V35.87a2.499 2.499 0 00-.674-.09 2.84 2.84 0 00-2.858 2.841c0 .797.312 1.536.879 2.078.55.534 1.182.772 1.995.772.263 0 .403-.016.657-.082zm1.11 1.453h1.462v-4.139h.484c.444 0 .698.214.698.591 0 .386-.263.592-.772.592h-1.396v1.076h1.421c.558 0 .78.213.788.78v1.1h1.462v-1.117c0-.64-.172-1.002-.632-1.355.41-.353.591-.723.591-1.248 0-.649-.32-1.191-.887-1.495-.361-.189-.73-.263-1.437-.263h-1.782zm4.908 0h1.462v-5.477H37.4zm6.563 0v-3.26c0-.723-.148-1.175-.517-1.602a2.072 2.072 0 00-1.602-.722c-.657 0-1.24.27-1.642.763-.345.42-.485.855-.485 1.56v3.261h1.462V39.87H42.5v1.494zM42.5 38.63h-1.32v-.533c0-.23.016-.362.066-.477a.64.64 0 01.6-.394.65.65 0 01.574.345c.066.14.082.246.082.526z" aria-label="TRINACRIA" font-family="Pump Demi Bold Plain" font-size="3.528" font-weight="400" letter-spacing="0" word-spacing="0" style="-inkscape-font-specification:'Pump Demi Bold Plain'"/>
        </g>
        <text fill="#fff" stroke-width=".114" x="116.074" y="108.411" font-family="Pump Demi Bold Plain" font-size="5.644" font-weight="400" letter-spacing="0" transform="translate(-247.074 -237.822) scale(2.32789)" word-spacing="0" style="line-height:1.25;-inkscape-font-specification:'Pump Demi Bold Plain'">
            <tspan style="-inkscape-font-specification:'Pump Demi Bold Plain'" x="116.074" y="108.411">I</tspan>
        </text>
        <text fill="#fff" stroke-width=".114" x="115.47" y="116.826" font-family="Pump Demi Bold Plain" font-size="5.644" font-weight="400" letter-spacing="0" transform="translate(-247.074 -237.822) scale(2.32789)" word-spacing="0" style="line-height:1.25;-inkscape-font-specification:'Pump Demi Bold Plain'">
            <tspan style="-inkscape-font-specification:'Pump Demi Bold Plain'" x="115.47" y="116.826">T</tspan>
        </text>
    </g>
</svg>
