<svg xmlns="http://www.w3.org/2000/svg" width="50mm" height="163.690148" viewBox="0 0 50 43.309685">
    <g stroke-width=".429573">
        <path class="color-main color-blue" fill="#214799" fill-rule="evenodd" d="M49.999994 43.180803l-25.103401.043997L0 43.309768l12.562165-21.770325L24.895196.000093l12.876383 21.30782z"/>
        <g style="line-height:1.25;-inkscape-font-specification:'Pump Demi Bold Plain'">
            <path style="-inkscape-font-specification:'Pump Demi Bold Plain'" fill="#fff" d="M28.076578 16.144787s-3.556344-.268523-4.964508.625364c-.574734.36485-.873798 1.080608-1.093248 1.725038-.119887.352257-.103591.739594-.102195 1.111731.006984 1.652384.00014 4.901003.00014 4.901003h2.338856v-2.365137h3.829242v-2.316672h-3.829242s-.020951-.36627 0-.547776c.369949-1.2731 2.667834-.977412 3.820885-.984395z" aria-label="F" font-family="Pump Demi Bold Plain" font-size="5.644444" font-weight="400" letter-spacing="0" word-spacing="0"/>
        </g>
        <g style="line-height:1.25;-inkscape-font-specification:'Pump Demi Bold Plain'">
            <path style="-inkscape-font-specification:'Pump Demi Bold Plain'" fill="#fff" d="M7.186822 41.364163h1.4618v-4.024016H9.79832v-1.45356H6.0371v1.45356h1.149722zm3.211396 0h1.461777v-4.138991h.484574c.443463 0 .698041.213468.698041.591284 0 .385988-.262796.591285-.771952.591285h-1.3962v1.075812h1.420643c.558438 0 .78017.213467.788387.78017v1.100324h1.461776v-1.116923c0-.640565-.172497-1.0019-.632325-1.355042.410594-.353118.591284-.72267.591284-1.248262 0-.64876-.320294-1.190786-.886926-1.494646-.361359-.188792-.730912-.262772-1.43717-.262772h-1.782025zm4.908127 0h1.461776v-5.477575h-1.461776zm3.778913 0v-3.408149c0-.43527.271013-.730912.673413-.730912.410616 0 .648783.262796.648783.730912v3.408149h1.461776v-3.260352c0-.722694-.14782-1.174374-.517374-1.601403-.4024-.468092-.969054-.722694-1.609597-.722694-1.309881.020951-2.118777.040971-2.118777.040971v5.543432zm8.038722 0v-3.260352c0-.722694-.147821-1.174374-.517374-1.601403-.4024-.468092-.969055-.722694-1.601403-.722694-.656978 0-1.240045.271013-1.642444.763758-.344924.418811-.484527.85408-.484527 1.56034v3.260352h1.461776V39.86954h1.322196v1.494623zm-1.461776-2.73469h-1.322196v-.533786c0-.229996.016295-.361335.065646-.47631.09847-.238166.32849-.394205.599479-.394205.246384 0 .468116.139673.574873.344924.065646.139673.082174.24636.082174.525591zm5.720072 1.281131c-.271014.082175-.418835.10685-.632349.10685-.821233 0-1.445364-.599501-1.445364-1.387888 0-.788364.615913-1.387866 1.42893-1.387866.213467 0 .385987.024676.648783.10685v-1.47821c-.271014-.065647-.427052-.090323-.673413-.090323-1.584968 0-2.857883 1.264697-2.857883 2.84147 0 .796582.312078 1.535688.87871 2.07769.55022.53381 1.182569.771953 1.995585.771953.262795 0 .4024-.016295.657-.082175zm1.109589 1.453559h1.4618v-4.138991h.48455c.443464 0 .698065.213468.698065.591284 0 .385988-.262796.591285-.771975.591285h-1.395967v1.075812h1.420642c.558438 0 .78017.213467.788364.78017v1.100324h1.4618v-1.116923c0-.640565-.172497-1.0019-.632349-1.355042.410617-.353118.591285-.72267.591285-1.248262 0-.64876-.320272-1.190786-.886927-1.494646-.361335-.188792-.730888-.262772-1.437147-.262772h-1.782048zm4.908127 0h1.461776v-5.477575h-1.461776zm6.562908 0v-3.260352c0-.722694-.14782-1.174374-.517374-1.601403-.402422-.468092-.969054-.722694-1.601403-.722694-.656977 0-1.240068.271013-1.642467.763758-.3449.418811-.484527.85408-.484527 1.56034v3.260352h1.461799V39.86954h1.322173v1.494623zm-1.4618-2.73469h-1.322172v-.533786c0-.229996.016295-.361335.065647-.47631.09847-.238166.328488-.394205.599502-.394205.24636 0 .468092.139673.57485.344924.065646.139673.082174.24636.082174.525591z" aria-label="TRINACRIA" font-family="Pump Demi Bold Plain" font-size="3.527778" font-weight="400" letter-spacing="0" word-spacing="0"/>
        </g>
        <text font-size="5.644444" style="line-height:1.25;-inkscape-font-specification:'Pump Demi Bold Plain'" fill="#fff" stroke-width=".113658" x="116.07434" y="108.41126" font-family="Pump Demi Bold Plain" font-weight="400" letter-spacing="0" transform="translate(-247.074314 -237.822018) scale(2.32789)" word-spacing="0">
            <tspan x="116.07434" y="108.41126" style="-inkscape-font-specification:'Pump Demi Bold Plain'">I</tspan>
        </text>
        <text font-size="5.644444" style="line-height:1.25;-inkscape-font-specification:'Pump Demi Bold Plain'" fill="#fff" stroke-width=".113658" x="115.47038" y="116.82626" font-family="Pump Demi Bold Plain" font-weight="400" letter-spacing="0" transform="translate(-247.074314 -237.822018) scale(2.32789)" word-spacing="0">
            <tspan x="115.47038" y="116.82626" style="-inkscape-font-specification:'Pump Demi Bold Plain'">T</tspan>
        </text>
    </g>
</svg>
