<svg xmlns="http://www.w3.org/2000/svg" viewBox="0 0 612 612">
    <path class="color-red" fill="#dd3039" d="M306.3 70.2H438c1.5 0 2.6.4 3.6 1.5 34.2 32.2 68.5 64.3 102.8 96.3 2.2 2.1 3.2 4.1 3.2 7.2-.1 86.2-.1 172.3-.1 258.6 0 1.2-.4 2.7-1.2 3.4-30 29-60.2 58-90.3 86.9-5.4 5.2-10.8 10.5-16.3 15.5-.8.7-2 1.2-3 1.2-87.7.1-175.3.1-262.9 0-.9 0-2.1-.4-2.8-1.1L66.4 438.8c-1.5-1.5-2.1-3-2.1-5.1.1-85.5.1-171.1 0-256.6 0-1.9.6-3.1 1.9-4.4 35-33.6 70-67.4 105.1-101.2.8-.8 2.1-1.2 3.3-1.2 43.8-.1 87.7-.1 131.7-.1zm-.5 11.7H180.9c-1.5 0-2.6.3-3.7 1.4-32.2 31.1-64.3 62.3-96.6 93.3-1.2 1.1-1.8 2.2-1.8 3.9.1 58.1 0 116.2 0 174.3 0 24.9 0 49.8.1 74.6 0 1 .6 2.4 1.3 3.2 2.7 2.8 5.5 5.4 8.3 8.1 29.4 28.4 58.8 56.9 88.2 85.3 1.1 1.1 2.1 1.9 3.9 1.9 83.4-.1 166.7-.1 250.1-.1 1.1 0 2.4-.5 3.2-1.3 32.7-31.5 65.4-63.1 98.1-94.6 1.1-1 1.5-2.1 1.5-3.6V179.8c0-1.4-.3-2.4-1.4-3.4l-97.5-92.7c-1.3-1.2-2.6-1.8-4.4-1.8H305.8z"/>
    <path fill="#fefefe" d="M305.8 81.9h124.5c1.8 0 3.1.5 4.4 1.8 32.4 31 64.9 61.9 97.5 92.7 1 1 1.5 2 1.4 3.4v248.5c0 1.5-.4 2.6-1.5 3.6-32.7 31.5-65.4 63.1-98.1 94.6-.8.8-2.1 1.3-3.2 1.3-83.4.1-166.7.1-250.1.1-1.8 0-2.8-.8-3.9-1.9-29.4-28.4-58.8-56.9-88.2-85.3-2.7-2.7-5.7-5.3-8.3-8.1-.8-.8-1.3-2.1-1.3-3.2-.1-24.9-.1-49.8-.1-74.6V180.7c0-1.7.6-2.8 1.8-3.9l96.6-93.3c1.1-1.1 2.2-1.4 3.7-1.4 41.5-.2 83.1-.2 124.8-.2zM98.3 303.6v118.1c0 1.5.4 2.6 1.5 3.6 28.5 27.7 56.9 55.5 85.4 83.2.9.8 2.2 1.4 3.3 1.4 14.2.1 28.3.1 42.5.1 64.1 0 128.2 0 192.2-.1 1.1 0 2.6-.3 3.3-1.1 29.3-28.1 58.6-56.4 87.8-84.7.7-.7 1.3-2 1.3-3 .1-78 .1-156 0-234 0-1-.6-2.3-1.3-3-29.3-27.9-58.8-55.7-88.2-83.5-.8-.7-2-1.3-3-1.3-78.6-.1-157.2-.1-235.8 0-1 0-2.3.5-3 1.2-28.1 27.1-56.3 54.2-84.5 81.3-1.2 1.1-1.7 2.3-1.7 3.9.2 39.4.2 78.6.2 117.9z"/>
    <path class="color-red" fill="#dd3039" d="M98.3 303.6V185.9c0-1.6.5-2.8 1.7-3.9 28.1-27.1 56.3-54.2 84.5-81.3.8-.7 2-1.2 3-1.2 78.6-.1 157.2-.1 235.8 0 1 0 2.3.5 3 1.3 29.4 27.8 58.8 55.6 88.2 83.5.8.7 1.3 2 1.3 3 .1 78 .1 156 0 234 0 1-.5 2.3-1.3 3-29.3 28.3-58.5 56.5-87.8 84.7-.8.7-2.1 1.1-3.3 1.1-64.1.1-128.2.1-192.2.1-14.2 0-28.3 0-42.5-.1-1.1 0-2.6-.6-3.3-1.4-28.5-27.7-56.9-55.4-85.4-83.2-1.1-1-1.5-2.1-1.5-3.6-.2-39.6-.2-79-.2-118.3zm316.1 10.6l1-.3c8.5-5 17-9.9 25.4-14.9 4-2.5 7.1-6 10-9.7 6.3-8.2 11.5-16.9 12.5-27.5 1.2-13-4.1-22.9-16.9-27.2-6.2-2.1-12.4-2.2-18.7-.6-16.1 4.2-29.7 12.9-41.8 24-14.2 13-26.1 27.9-36.5 44-6.9 10.6-13.6 21.3-20.3 31.8-.4.6-.7 1.3-1.1 2.1 5.2 0 10.1-.1 15 .1 2.2.1 3.3-.8 4.5-2.7 11.3-20.3 23.5-40.1 37.3-58.8 8.3-11.3 17.8-21.6 29.9-29.2 5.7-3.5 11.4-6.9 18.1-8 5.5-.9 10.6-.1 14.5 4.5 3.9 4.5 3.9 9.7 2.7 15.1-3 12.8-9.2 24-17.1 34.4-5.7 7.5-11.7 14.8-17.6 22-.4.5-.7.7-.9.9zm-164-72.2c-.2-.6-.3-1.1-.5-1.5-7.5-17.9-15.1-35.9-22.7-53.9-.6-1.4-.5-2.4.2-3.7 8.4-16.7 16.8-33.4 25.1-50.1.3-.7.7-1.4 1.1-2.4h-2.1c-8.2 0-16.5.1-24.7 0-1.6 0-2.4.4-3.1 1.9-6.9 14.4-14.1 28.7-21.1 43.1-.3.7-.7 1.4-1 2-.2 0-.3-.1-.4-.1v-46.2h-31.3v110.7h31.4v-43.5c.5.4.7.9.9 1.4l16.5 40.4c.6 1.5 1.3 2 2.8 1.9 2.7-.1 5.4 0 8.1 0h20.8zM137 427.4c.6.2.9.3 1.1.3 10 3.1 20.1 5.7 30.5 6.3 8.8.5 17.6.9 25.9-3.3 7.5-3.9 14.6-8.3 19.2-15.7 4.7-7.5 5.4-15.8 4.3-24.3-1.7-13.6-11.3-24.3-24-26.3-2.7-.4-5.3-.8-8-1.1-5-.6-10-1.4-14.3-4.3-3.1-2.1-3.5-4.9-1.4-7.8 1.9-2.7 4.6-3.9 7.7-4.5 7.8-1.5 15.5-1.1 23.2 1.1 3.7 1.1 7.4 2.2 11.2 3.4-.2-3.3-.4-6.5-.6-9.8h-4.4c-9-.3-18-1.2-26.3-4.5-7-2.8-13.7-6.6-20.7-9.9-.8-.3-1.9-.7-2.5-.3-11.9 6.9-19.9 16.4-19.7 31.1.2 15.4 9.3 26.3 23.7 29.7 3.2.8 6.4 1.2 9.7 1.7 5.3.9 10.6 1.9 15.1 5.2 2.5 1.8 2.7 3.6 1.3 6.4-1.7 3.3-4.8 4.2-8 5-8.7 2-17.1.4-25.3-2.3-4.1-1.4-8.1-3-12.7-4.7-1.6 9.5-3.4 18.9-5 28.6zm68.4-181.3c-12 0-23.8-.1-35.5.1-1.5 0-3.2.5-4.5 1.3-7.2 4.8-11.8 12-15 19.7-4.3 10.6-4.3 21.8-1.4 32.9 2 7.4 5.1 14.3 11.1 19.5 12.1 10.1 25.8 16.2 41.7 16.9 9 .4 17.7-1.1 26.2-4.2 1.5-.6 2.2-1.4 2.2-3.2-.1-7.9-.1-15.8-.1-23.6 0-.6-.1-1.2-.2-1.9-.9.5-1.5 1-2.1 1.3-8.7 2.9-17.3 5.4-26.7 4.9-10.7-.6-25.1-11.3-22.6-26.1 1.5-9.3 5.8-16.1 15-19.5 8.2-3 16.6-3.1 25-.9 3.9 1 7.7 2.7 11.6 4.1v-21.5c-3.7 0-7.3-.1-10.8 0-1.3 0-2-.3-2.6-1.5-1.7-3.3-3.5-6.5-5.4-9.8-.3-.5-.9-1.2-1.5-1.3-1.4-.2-2.8-.1-4.4-.1v12.9zm232.3 212.2c1.4-1.8 2.5-3.2 3.6-4.7 3.7-5.3 7-10.8 7.7-17.3.5-4.5.7-9.1 6-11.7-.9-.2-1.1-.3-1.4-.3-4.6 0-8.4 2-11.8 5.1-3.4 3.2-6.8 6.4-10.6 9.1-9.1 6.5-18.4 12.9-27.7 19-2.2 1.5-5.1 2.4-7.7 2.8-6.2.9-8.3-2-6-7.8.7-1.7 1.3-3.5 3.7-3.8 8.2-1.1 15.9-4.1 23.1-8.3 1.8-1 3.4-2.5 4.6-4.1 2.5-3.3 2.6-7.1.4-10.2-1.7-2.4-5.5-3.7-9.1-2.6-4.1 1.3-8.1 2.7-12 4.5-7.7 3.9-14.6 9.1-17.7 17.3-2.1 5.5-5.4 8.6-10.7 10.1-1.4.4-2.7 1-4.1 1.5-.6.2-1.4.3-2.5.4.6-1.1.9-1.7 1.3-2.3 2.4-3.6 4.9-7 7.2-10.7 2.7-4.4 5.5-8.8 8-13.3 1.8-3.3.1-6.1-3.8-6.3-3.9-.3-7.7.5-11.1 2.7-3.2 2-6.1 4.3-9.1 6.4-.6.4-1.2.8-2.1 1.2.4-2.4 1-4.4 1.1-6.3.2-2.8-1.5-4.1-4.2-3.4-1.7.4-3.4 1.4-4.8 2.4-14.1 10.6-28.1 21.4-42 32.2-.7.5-1.5 1-2.2 1.3-.6.2-1.5.1-2-.2-.3-.2-.2-1.2.1-1.7 1.2-2.4 2.1-5 3.8-7.1 6.6-8.8 13.5-17.4 20.2-26.1.3-.4.6-.9 1-1.5-3 0-5.7-.1-8.4.1-.9.1-2.1.6-2.7 1.3-5 6-10 12-14.8 18.2-2.6 3.3-5.2 6.9-7 10.7-2.8 6.1 1.3 11.2 8 10.6 4-.3 6.9-2.7 9.7-5.1l29.1-24.2c.7-.6 1.5-1 2.3-1.5l.6.6c-.5.9-.9 2.1-1.5 2.9-5.7 8.1-11.3 16-17 24.1-.4.6-.9 1.3-1.5 2.3 3.3 0 6.3-.1 9.1 0 1.5.1 2.4-.5 3.3-1.5 7.8-8.7 15.6-17.3 23.6-25.8 2.2-2.4 5.2-4.2 7.9-6.1.7-.5 1.6-.5 2.5-.8.2.2.3.3.4.5-.4.9-.8 1.8-1.3 2.6-4.5 6.9-9 13.7-13.6 20.7-.6.9-1.1 1.9-1.5 2.9-1.2 3.2 0 7.7 5.1 7.3 1.2-.1 2.4 0 3.4-.3 4-1.5 8.1-3.3 12-5.1 1.5-.7 3-1.6 4.6-2.5.2.7.3 1.1.4 1.5 1.5 5 4.5 7.1 9.8 6.9 2.1-.1 4-.3 6-.9 8.5-2 15.6-6.7 22.6-11.5 6.1-4.2 12-8.5 18.1-12.7.9-.6 1.8-1 3.1-1.7-.2 1.5-.2 2.3-.3 3.2-.8 6.2-5.3 14.8-14 15.9-1.5.2-3.2 0-4.8.3-1.6.3-3.9.3-4 2.1-.1 1.2 1.4 2.8 2.5 3.7 2.8 2.2 6.3 2.7 9.8 2.7 8.1-.1 16.2-.4 24.3-.7.5 0 1.3-.2 1.5-.5 2.3-2.5 4.6-5 7.2-7.8-7.8.4-15.5.8-23.7 1.3zm-184 8c22.7-17.6 39.4-39.5 53.8-64.1-6.3 0-12 .1-17.8 0-1.4 0-2.1.4-2.7 1.5-4.3 7.4-8.6 14.8-12.9 22-7.7 13-16.3 25.5-27.3 36.2-2 1.9-3.8 2.8-6.5 2-2-.7-4.1-.8-6.2-1.2-11.6-2.1-23.2-3.6-35-1.9-6 .9-11.8 2.5-16.9 6-4.2 2.9-5.8 7.6-4.4 12.4.6 2 1.6 3.4 3.6 4.4 8.1 3.9 16.6 5 25.6 3.6 8.1-1.3 15.7-4.2 23.1-7.8.8-.3 1.7-.9 2.4-.6 7.8 2.5 15.8 3.1 23.8 4 11.9 1.4 23.4.1 34.7-3.9 3.6-1.3 7.1-3 10.7-4.5-15.9-3.1-32.2-2.6-48-8.1zM307.8 185c-.2 0-.3.1-.4.1-.3-.6-.4-1.1-.7-1.7-2.8-7.2-5.7-14.3-8.5-21.5-.3-.7-1-1.6-1.5-1.7-4.3-.2-8.6-.1-13-.1v51.7h11.2v-25.4c.4.2.5.3.6.6 2.9 7.8 5.8 15.7 8.8 23.5.3.6.9 1.5 1.5 1.5 4.4.1 8.7.1 13.1.1v-52.3h-11.2l.1 25.2zm129.6 158.1v50.8h11.2V368c.3.2.4.3.4.3 3 8.1 6 16 9 24.1.3.6.8 1.5 1.1 1.5 4.5.1 9 .1 13.6.1v-51.3h-11.2v24.7c-.6-.6-.9-1.3-1.2-2-2.8-6.9-5.6-13.7-8.4-20.6-.3-.7-1.1-1.6-1.8-1.7h-12.7zM250 160.3c-3.4 17.2-6.9 34.2-10.4 51.4H252c.5-2.8 1.1-5.5 1.6-8.2.3-1.1.8-1.6 2.1-1.6 3.2.1 6.4.2 9.6 0 1.7-.1 2.3.6 2.6 2.1.4 2.6.9 5.1 1.5 7.7h12.3c-.5-2.7-.9-5.1-1.5-7.6-3.1-14.1-6.1-28.1-9.3-42.2-.1-.6-.9-1.4-1.5-1.4-6.3-.2-12.6-.2-19.4-.2zm118.5.1c-3.4 17-6.9 34.1-10.4 51.4 4.2 0 7.8.1 11.4-.1.4 0 1.1-.9 1.2-1.4.5-2.2.9-4.5 1.4-6.9.2-1.2.8-1.7 2.1-1.6 3.3.1 6.7.1 10 0 1.3 0 1.8.4 2.1 1.6.4 2.2.8 4.5 1.3 6.6.2.6.9 1.5 1.5 1.6 3.6.2 7.3.1 11.3.1-3.8-17.3-7.4-34.3-11.1-51.4l-20.8.1zm-35.3 183.5v50.8h11.9v-19.8h8.4v19.8h12.8V344h-13v18.4h-7.7V344l-12.4-.1zm78.7 33.3c.9 0 1.6.1 2.3 0 2.1-.3 3 .4 3.5 2.6 1 4.3 2.4 8.6 3.7 12.8.2.6.8 1.4 1.2 1.4 3.7.1 7.4.1 11.2.1-2.2-6.9-4.4-13.3-6.6-19.8-.5-1.5-.4-2.5.7-3.9 1.5-1.6 2.7-3.7 3.4-5.7 3.3-9.7-1-20.8-14.1-20.6-2.7 0-5.4-.1-8.1-.1h-10.6v50.5h13.1c.3-5.8.3-11.5.3-17.3zm-152.1-32.9V378c0 1.4-.2 2.7 0 4.1.9 7.5 7.2 13.8 14.5 14.5 8.2.8 15.5-3.6 17.9-11.2.8-2.3 1-4.9 1.1-7.3.1-10.6.1-21.3.1-31.9 0-.6-.1-1.1-.1-1.8H281v37.5c0 2.5-1.6 4.4-4.1 4.3-2.4-.1-4.1-2.1-3.9-4.5.1-.7.1-1.5.1-2.1v-35.2l-13.3-.1zm-3.5 25c-.2-7.5-2.1-15-8-21-6.7-6.9-15.9-6.9-22.6.1-5.5 5.7-7.6 12.8-7.9 20.5-.3 7.9 1.5 15.2 6.5 21.4 7.2 9 18.4 9 25.5-.1 4.7-5.9 6.4-12.8 6.5-20.9zM403 208.6c6.2 1.9 12.3 2.7 18.4 2 5.9-.7 11.2-2.5 13.9-8.3 1.5-3.2 2.1-6.5 1.7-10-.8-6.9-3.3-9.8-10-11.4-.7-.2-1.5-.3-2.1-.4-3.1-.8-6.3-1.5-9.4-2.3-2-.5-3.1-1.9-3-4s1.1-3.5 3-4.1c1.7-.5 3.6-1.1 5.3-.9 4.1.4 8.1 1.2 12.4 1.9.4-3.3.9-6.6 1.3-10-.9-.3-1.5-.6-2.1-.7-4.6-.4-9.3-.9-13.9-1.2-3.9-.2-7.5 1.1-10.6 3.3-5.1 3.3-7.5 9.8-6.3 16 1.2 5.8 4.9 9.1 11.5 10.4 2.1.4 4.1.8 6.2 1.4 3 .9 4.5 2.8 4.4 5.3-.1 2.1-2.7 4.6-5.3 4.7-2.3.1-4.8-.3-7.1-.8-2.3-.4-4.6-1.2-7-1.9-.5 3.7-.8 7.3-1.3 11zm-78.7 0c6.5 2.1 13 2.7 19.6 1.8 5.6-.8 10.2-2.8 12.7-8.3 1.5-3.2 2-6.5 1.6-10-.6-6.3-3.1-9.4-9.3-11.2-.9-.3-1.9-.4-2.7-.6-3.1-.8-6.3-1.5-9.4-2.2-2-.5-3.2-1.8-3.1-3.9.1-2.2 1.2-3.9 3.3-4.3 2.7-.5 5.6-.8 8.4-.6 3 .3 5.9 1.2 9 1.8.4-3.5.9-6.9 1.3-10.3-5.4-1.7-10.7-1.8-16.1-1.8-4.1 0-7.9 1.3-11.2 3.8-5.3 4-6.7 9.6-5.6 15.8 1.1 6.1 5.3 9 11.2 10.1 2.1.4 4.3.8 6.3 1.4 3 .9 4.4 2.8 4.2 5.3-.2 2.1-2.6 4.6-5.3 4.7-2.3.1-4.6-.3-6.9-.7-2.4-.4-4.7-1.3-7.2-2-.1 3.9-.5 7.5-.8 11.2zm47.2 135.3v50.8h22.9v-10.6h-10.8v-11.2h10.3v-9.4h-10.3v-10.4h10v-9.3h-22.1v.1zm-65.9 11.8v39h14.5v-39h8.8v-11.5h-32.3v11.6c3-.1 5.9-.1 9-.1zM288 264.1v-11.4h-32.2v11.6h9v39h14.6v-39.1c2.9-.1 5.7-.1 8.6-.1zm3.8-11.5c4.5 7.5 8.9 14.6 13.2 21.8.8 1.3 1.3 2.9 1.3 4.5.2 7.1.1 14.3.1 21.4v3h13.4v-2.5c0-7.5 0-15 .1-22.6 0-1.2.3-2.5.9-3.4 3.9-6.7 8.1-13.3 12.1-20 .4-.7.8-1.3 1.3-2.2-4 0-7.6.2-11.2-.1-2.1-.1-3.1.6-3.9 2.5-1.8 4-3.9 8-6 12.4-2.3-4.7-4.4-9-6.6-13.3-.3-.6-1.2-1.4-1.8-1.4-4.1-.1-8.3-.1-12.9-.1zm-55.5-.5v51.6h14.8v-51.6h-14.8zm101.7 159c0-4-3.4-7.4-7.6-7.4-4.1 0-7.6 3.4-7.6 7.4s3.5 7.4 7.6 7.4c4.2-.1 7.6-3.4 7.6-7.4z"/>
    <path fill="#fefefe" d="M250.4 242h-21.1c-2.7 0-5.4-.1-8.1 0-1.5.1-2.3-.4-2.8-1.9-5.4-13.5-11-26.9-16.5-40.4-.2-.4-.3-.9-.9-1.4v43.5h-31.4V131.1H201v46.2c.2 0 .3.1.4.1.3-.7.7-1.4 1-2 7-14.4 14.2-28.7 21.1-43.1.7-1.5 1.5-2 3.1-1.9 8.2.1 16.5 0 24.7 0h2.1c-.4.9-.8 1.6-1.1 2.4-8.4 16.7-16.7 33.5-25.1 50.1-.6 1.3-.7 2.3-.2 3.7 7.6 17.9 15.2 35.9 22.7 53.9.4.5.5.9.7 1.5zM137 427.4c1.7-9.6 3.3-19 5-28.7 4.5 1.7 8.6 3.3 12.7 4.7 8.2 2.7 16.6 4.4 25.3 2.3 3.2-.8 6.3-1.5 8-5 1.4-2.8 1.2-4.5-1.3-6.4-4.5-3.3-9.8-4.3-15.1-5.2-3.3-.5-6.5-.9-9.7-1.7-14.4-3.3-23.5-14.2-23.7-29.7-.2-14.8 7.9-24.1 19.7-31.1.6-.3 1.7 0 2.5.3 6.9 3.3 13.6 7 20.7 9.9 8.4 3.3 17.3 4.2 26.3 4.5 1.4.1 2.7 0 4.4 0 .2 3.3.4 6.4.6 9.8-3.9-1.2-7.5-2.4-11.2-3.4-7.6-2.2-15.4-2.7-23.2-1.1-3.1.6-5.8 1.9-7.7 4.5-2.1 3-1.6 5.8 1.4 7.8 4.3 2.8 9.3 3.6 14.3 4.3 2.7.3 5.3.7 8 1.1 12.7 2.1 22.3 12.7 24 26.3 1 8.5.4 16.8-4.3 24.3-4.6 7.4-11.7 11.8-19.2 15.7-8.2 4.2-17.1 3.9-25.9 3.3-10.5-.6-20.5-3.3-30.5-6.3-.2 0-.5 0-1.1-.2z"/>
    <path fill="#fefefe" d="M205.4 246.1v-13c1.5 0 3-.1 4.4.1.6.1 1.2.7 1.5 1.3 1.9 3.2 3.7 6.4 5.4 9.8.6 1.1 1.3 1.5 2.6 1.5 3.6-.1 7.1 0 10.8 0v21.5c-3.8-1.4-7.5-3.1-11.6-4.1-8.3-2.1-16.7-2-25 .9-9.2 3.3-13.4 10.2-15 19.5-2.5 14.8 11.9 25.5 22.6 26.1 9.4.5 18-2 26.7-4.9.7-.3 1.2-.8 2.1-1.3.1.7.1 1.3.2 1.9 0 7.9-.1 15.8.1 23.6 0 1.8-.7 2.7-2.2 3.2-8.4 3.1-17.2 4.6-26.2 4.2-15.9-.7-29.7-6.8-41.7-16.9-6.1-5.1-9.1-12-11.1-19.5-2.9-11.1-3-22.3 1.4-32.9 3.2-7.7 7.8-14.9 15-19.7 1.2-.9 2.9-1.3 4.5-1.3 11.7-.1 23.5 0 35.5 0zm232.3 212.2c8.2-.4 16-.9 24.2-1.3-2.6 2.8-4.8 5.3-7.2 7.8-.3.3-1 .4-1.5.5-8.1.3-16.2.6-24.3.7-3.4 0-6.9-.4-9.8-2.7-1.1-.9-2.6-2.5-2.5-3.7.2-2 2.5-2 4-2.1 1.5-.2 3.2 0 4.8-.3 8.7-1.1 13.1-9.7 14-15.9.1-.9.2-1.7.3-3.2-1.3.8-2.2 1.1-3.1 1.7-6 4.2-12 8.5-18.1 12.7-7 4.9-14.2 9.5-22.6 11.5-2 .4-4 .8-6 .9-5.2.3-8.1-1.9-9.8-6.9-.2-.4-.3-.9-.4-1.5-1.5.9-3 1.8-4.6 2.5-3.9 1.7-8 3.5-12 5.1-1 .4-2.3.3-3.4.3-5.1.4-6.3-4.1-5.1-7.3.3-1 .9-2 1.5-2.9 4.5-6.9 9-13.7 13.6-20.7.5-.8.9-1.7 1.3-2.6-.2-.2-.3-.3-.4-.5-.9.3-1.8.3-2.5.8-2.7 2-5.7 3.7-7.9 6.1-8 8.5-15.8 17.2-23.6 25.8-.9 1-1.9 1.6-3.3 1.5-2.9-.1-5.7 0-9.1 0 .7-1 1-1.6 1.5-2.3 5.7-8.1 11.3-16 17-24.1.6-.9.9-2 1.5-2.9l-.6-.6c-.8.5-1.6.9-2.3 1.5l-29.1 24.2c-2.8 2.3-5.7 4.6-9.7 5.1-6.7.6-10.8-4.4-8-10.6 1.8-3.9 4.4-7.4 7-10.7 4.8-6.2 9.8-12.2 14.8-18.2.6-.7 1.7-1.3 2.7-1.3 2.7-.2 5.4-.1 8.4-.1-.4.7-.7 1.1-1 1.5-6.8 8.7-13.6 17.3-20.2 26.1-1.6 2.1-2.6 4.7-3.8 7.1-.3.5-.3 1.6-.1 1.7.5.3 1.4.3 2 .2.8-.3 1.5-.8 2.2-1.3 14-10.7 28-21.4 42-32.2 1.4-1.1 3.1-2 4.8-2.4 2.7-.7 4.3.6 4.2 3.4-.1 2-.7 3.9-1.1 6.3.9-.5 1.5-.9 2.1-1.2 3-2.1 6-4.5 9.1-6.4 3.3-2.1 7.1-2.9 11.1-2.7 3.8.3 5.6 2.9 3.8 6.3-2.5 4.5-5.2 8.9-8 13.3-2.3 3.6-4.8 7.1-7.2 10.7-.4.6-.7 1.2-1.3 2.3 1.2-.2 1.9-.3 2.5-.4 1.4-.4 2.7-1.1 4.1-1.5 5.3-1.5 8.7-4.5 10.7-10.1 3.1-8.2 10-13.5 17.7-17.3 3.8-1.9 7.9-3.3 12-4.5 3.6-1.1 7.5.2 9.1 2.6 2.1 3.1 2.1 6.9-.4 10.2-1.3 1.6-2.9 3.1-4.6 4.1-7.2 4.1-14.8 7.2-23.1 8.3-2.4.3-3 2.1-3.7 3.8-2.3 5.7-.2 8.8 6 7.8 2.7-.4 5.5-1.4 7.7-2.8 9.4-6.2 18.6-12.5 27.7-19 3.8-2.7 7.1-5.9 10.6-9.1 3.3-3.1 7.1-5.1 11.8-5.1.3 0 .5.1 1.4.3-5.3 2.5-5.5 7.1-6 11.7-.8 6.6-4 12.1-7.7 17.3-1.6 1.5-2.7 2.9-4.1 4.7zm-42.8-13.9c7.5-2.2 14.9-4.2 21.4-8.5.7-.4 1.2-1 1.6-1.7 2.1-3 .5-6.4-3.1-6.6-1.7-.1-3.7.3-5.2 1.1-2.3 1.1-4.5 2.7-6.5 4.3-3.9 2.9-6.5 6.6-8.2 11.4z"/>
    <path fill="#fefefe" d="M253.7 466.3c15.9 5.4 32.1 5 48 8.1-3.5 1.5-7 3.3-10.7 4.5-11.2 4-22.7 5.3-34.7 3.9-8.1-.9-16-1.5-23.8-4-.7-.3-1.6.3-2.4.6-7.4 3.6-14.9 6.5-23.1 7.8-8.8 1.4-17.4.3-25.6-3.6-2-.9-3-2.4-3.6-4.4-1.5-4.8.2-9.5 4.4-12.4 5.1-3.5 10.9-5.1 16.9-6 11.8-1.6 23.4-.1 35 1.9 2.1.3 4.2.5 6.2 1.2 2.7.9 4.5-.1 6.5-2 11-10.7 19.6-23.2 27.3-36.2 4.4-7.3 8.7-14.7 12.9-22 .7-1.2 1.4-1.5 2.7-1.5 5.7.1 11.5 0 17.8 0-14.4 24.6-31.1 46.6-53.8 64.1zm-32.6 6.5l-.3-.8c-6.2-2.1-12.5-2.8-19-2.1-3.4.3-6.9 1.1-10.2 2.1-1 .3-2.3 1.8-2.5 2.8-.1.9 1.1 2.1 2 3 .4.4 1.3.6 2 .8 4.6.9 9.2.3 13.6-.9 4.9-1.6 9.7-3.4 14.4-4.9zm194-159.2c5.8-7.4 11.8-14.6 17.6-22 7.9-10.4 14.1-21.6 17.1-34.4 1.3-5.4 1.1-10.5-2.7-15.1-3.9-4.6-9-5.5-14.5-4.5-6.7 1.1-12.4 4.4-18.1 8-12 7.5-21.5 17.8-29.9 29.2-13.8 18.8-26 38.5-37.3 58.8-1 1.9-2.2 2.7-4.5 2.7-4.9-.2-9.8-.1-15-.1.4-.9.7-1.5 1.1-2.1 6.8-10.6 13.5-21.3 20.3-31.8 10.4-16.1 22.4-31 36.5-44 12.1-11.2 25.6-19.8 41.8-24 6.3-1.6 12.5-1.5 18.7.6 12.8 4.3 18.1 14.1 16.9 27.2-.9 10.6-6.3 19.2-12.5 27.5-2.8 3.8-5.9 7.3-10 9.7-8.4 5.1-16.9 10-25.4 14.9.1-.4 0-.5-.1-.6zM307.8 185v-25.3H319V212c-4.4 0-8.8.1-13.1-.1-.5 0-1.2-.9-1.5-1.5-3-7.8-5.9-15.7-8.8-23.5-.1-.3-.2-.4-.6-.6v25.4h-11.2V160c4.4 0 8.7-.1 13 .1.5 0 1.3 1 1.5 1.7 2.9 7.1 5.7 14.3 8.5 21.5.3.6.4 1.1.7 1.7h.3zm129.6 158.1c4.4 0 8.7-.1 12.9.1.6 0 1.5.9 1.8 1.7 2.8 6.9 5.7 13.7 8.4 20.6.3.7.6 1.3 1.2 2v-24.7h11.2v51.3c-4.5 0-9 0-13.6-.1-.4 0-.9-.9-1.1-1.5-3-8.1-6-16-9-24.1 0-.1-.2-.2-.4-.3V394h-11.2c-.2-17-.2-33.7-.2-50.9zM250 160.3c6.7 0 13.1 0 19.5.1.5 0 1.3.9 1.5 1.4l9.3 42.2c.5 2.5.9 5 1.5 7.6h-12.3c-.5-2.6-1-5.1-1.5-7.7-.3-1.5-.9-2.2-2.6-2.1-3.2.2-6.4.1-9.6 0-1.3-.1-1.9.4-2.1 1.6-.5 2.7-1 5.4-1.6 8.2h-12.4c3.4-17 6.9-34 10.3-51.3zm6.9 30.6h8.2c-1.5-4.5-2.8-8.9-4.5-13.8-1.2 4.9-2.4 9.2-3.7 13.8zm111.6-30.5h20.8c3.7 17.1 7.4 34.1 11.1 51.4-4 0-7.7.1-11.3-.1-.5 0-1.3-.9-1.5-1.6-.6-2.1-.9-4.4-1.3-6.6-.2-1.2-.8-1.7-2.1-1.6-3.3.1-6.7.1-10 0-1.3 0-1.8.5-2.1 1.6-.4 2.3-.8 4.5-1.4 6.9-.2.5-.8 1.4-1.2 1.4-3.6.1-7.3.1-11.4.1 3.4-17.4 6.8-34.5 10.4-51.5zm14.4 30.5c-1.5-4.6-2.9-8.9-4.5-13.8-1.4 5-2.6 9.4-3.8 13.8h8.3zm-49.7 153h12.4v18.4h7.7V344h13v50.7h-12.8v-19.8h-8.4v19.8h-11.9v-50.8zm78.7 33.3v17.2h-13.1v-50.5h10.6c2.7 0 5.4.2 8.1.1 13-.2 17.3 10.9 14.1 20.6-.7 2.1-2 4.1-3.4 5.7-1.2 1.3-1.2 2.3-.7 3.9 2.2 6.4 4.3 13 6.6 19.8-3.9 0-7.6.1-11.2-.1-.4 0-1-.9-1.2-1.4-1.3-4.2-2.7-8.5-3.7-12.8-.5-2.1-1.5-2.9-3.5-2.6-1 .2-1.7.1-2.6.1zm-.5-9.6c3.3-.2 6.2-.8 7.7-4 1.3-2.8 1.5-5.7-.4-8.2-1.8-2.4-4.4-2.8-7.3-2.5v14.7zm-151.6-23.3h13.3v35.2c0 .7-.1 1.5-.1 2.1-.3 2.5 1.5 4.5 3.9 4.5 2.4.1 4.1-1.9 4.1-4.3-.1-12.4 0-24.9 0-37.5h12.3c0 .7.1 1.3.1 1.8 0 10.6.1 21.3-.1 31.9 0 2.4-.3 5-1.1 7.3-2.4 7.6-9.7 12-17.9 11.2-7.3-.7-13.6-6.9-14.5-14.5-.2-1.4 0-2.7 0-4.1v-33.6zm-3.5 25c-.1 8.1-1.8 15-6.5 20.9-7.2 9.1-18.3 9.1-25.5.1-5-6.3-6.8-13.6-6.5-21.4.3-7.7 2.4-14.8 7.9-20.5 6.7-6.9 15.9-6.9 22.6-.1 5.9 6 7.9 13.5 8 21zm-11.9.6c-.2-.1-.4-.1-.6-.2 0-5.3-.9-10.7-2.5-14.1-.9-1.9-1.8-3.9-4.2-3.9-2.3 0-3.4 2.1-4.1 4-3.4 9.3-3.4 18.6 0 28 .7 1.9 1.7 4 4.1 4 2.5.1 3.7-2.1 4.3-4.1 1.1-4.5 2-9.1 3-13.7zM403 208.6c.3-3.8.7-7.4 1.1-11.2 2.5.7 4.7 1.5 7 1.9s4.7.9 7.1.8c2.7-.1 5.1-2.7 5.3-4.7.2-2.4-1.4-4.4-4.4-5.3-2-.6-4.1-.9-6.2-1.4-6.6-1.3-10.3-4.6-11.5-10.4-1.3-6.2 1.2-12.5 6.3-16 3.2-2.1 6.8-3.4 10.6-3.3 4.6.3 9.3.8 13.9 1.2.7.1 1.4.4 2.1.7-.4 3.4-.9 6.9-1.3 10-4.2-.7-8.3-1.5-12.4-1.9-1.7-.2-3.6.3-5.3.9-1.9.6-2.9 2.1-3 4.1-.1 2.1.9 3.4 3 4 3.1.9 6.2 1.5 9.4 2.3.7.2 1.5.3 2.1.4 6.7 1.6 9.3 4.5 10 11.4.4 3.5-.2 6.8-1.7 10-2.7 5.9-8 7.7-13.9 8.3-5.9.9-11.9.1-18.2-1.8zm-78.7 0c.3-3.7.7-7.3 1-11.2 2.5.7 4.8 1.5 7.2 2 2.2.4 4.6.8 6.9.7 2.7-.1 5.1-2.5 5.3-4.7.2-2.5-1.2-4.5-4.2-5.3-2.1-.6-4.2-1-6.3-1.4-5.8-1-10.1-4-11.2-10.1-1.1-6.2.3-11.8 5.6-15.8 3.3-2.5 7-3.7 11.2-3.8 5.4 0 10.7.1 16.1 1.8-.4 3.4-.9 6.8-1.3 10.3-3.1-.7-6-1.6-9-1.8-2.7-.3-5.7.1-8.4.6-2.1.3-3.3 2.1-3.3 4.3-.1 2.1 1.1 3.4 3.1 3.9 3.1.8 6.2 1.5 9.4 2.2.9.3 1.9.3 2.7.6 6.1 1.7 8.7 4.8 9.3 11.2.3 3.5-.2 6.8-1.6 10-2.5 5.5-7.2 7.5-12.7 8.3-6.9 1-13.3.3-19.8-1.8zm47.2 135.3h22.1v9.3h-10v10.4h10.3v9.4h-10.3v11.2h10.8v10.6h-22.9v-50.9zm-65.9 11.8h-9v-11.6h32.3v11.5h-8.8v39h-14.5v-38.9zM288 264.1h-8.6v39.1h-14.6v-39h-9v-11.6H288v11.5zm3.8-11.5c4.5 0 8.7-.1 12.9.1.6 0 1.5.8 1.8 1.4 2.2 4.3 4.3 8.6 6.6 13.3 2.1-4.3 4.2-8.2 6-12.4.9-1.9 1.9-2.6 3.9-2.5 3.6.2 7.3.1 11.2.1-.5.9-.9 1.6-1.3 2.2-4 6.7-8.1 13.3-12.1 20-.6 1-.9 2.3-.9 3.4-.1 7.5-.1 15-.1 22.6v2.5h-13.4v-3c0-7.1.1-14.3-.1-21.4 0-1.5-.5-3.2-1.3-4.5-4.1-7.2-8.6-14.3-13.2-21.8zm-55.5-.5h14.8v51.6h-14.8v-51.6zm101.7 159c0 4-3.4 7.4-7.5 7.4s-7.6-3.3-7.6-7.4c0-3.9 3.5-7.4 7.6-7.4 4 0 7.5 3.4 7.5 7.4z"/>
    <path fill="#fefefe" d="M415.5 314l-1 .3c.3-.2.4-.4.7-.6l.3.3z"/>
    <path class="color-red" fill="#dd3039" d="M394.9 444.4c1.7-4.8 4.4-8.6 8.1-11.4 2.1-1.5 4.2-3.2 6.5-4.3 1.5-.8 3.5-1.2 5.2-1.1 3.6.2 5.1 3.6 3.1 6.6-.4.7-1 1.3-1.6 1.7-6.4 4.3-13.8 6.2-21.3 8.5zm-173.8 28.4c-4.8 1.6-9.5 3.3-14.3 4.7-4.5 1.2-9 1.8-13.6.9-.7-.2-1.5-.3-2-.8-.9-.9-2.1-2.1-2-3 .2-1.1 1.4-2.6 2.5-2.8 3.3-.9 6.8-1.7 10.2-2.1 6.4-.6 12.8.1 19 2.1 0 .5.1.7.2 1zm35.8-281.9c1.3-4.5 2.5-8.9 3.8-13.8 1.5 4.9 3 9.3 4.5 13.8h-8.3zm126 0h-8.2c1.2-4.5 2.4-8.8 3.8-13.8 1.4 4.9 2.8 9.2 4.4 13.8zm28.5 176.7v-14.8c2.9-.3 5.5.1 7.3 2.5 1.9 2.6 1.7 5.5.4 8.2-1.5 3.3-4.4 4-7.7 4.1zm-167 2.3c-1 4.5-1.9 9.2-3.2 13.7-.5 2-1.7 4.1-4.3 4.1-2.3-.1-3.4-2.1-4.1-4-3.4-9.3-3.4-18.6 0-28 .7-1.9 1.8-3.9 4.1-4 2.3 0 3.3 2.1 4.2 3.9 1.6 3.3 2.5 8.8 2.5 14.1.5.1.6.1.8.2z"/>
</svg>
