<?xml version="1.0" encoding="utf-8"?>
<!-- Generator: Adobe Illustrator 24.1.0, SVG Export Plug-In . SVG Version: 6.00 Build 0)  -->
<svg version="1.1" id="Layer_1" xmlns="http://www.w3.org/2000/svg" xmlns:xlink="http://www.w3.org/1999/xlink" x="0px" y="0px"
	 viewBox="0 0 612 612" style="enable-background:new 0 0 612 612;" xml:space="preserve">
<style type="text/css">
	.st0{fill:#DD3039;}
	.st1{fill:#FEFEFE;}
</style>
<path class="st0" d="M306.3,70.2H438c1.5,0,2.6,0.4,3.6,1.5c34.2,32.2,68.5,64.3,102.8,96.3c2.2,2.1,3.2,4.1,3.2,7.2
	c-0.1,86.2-0.1,172.3-0.1,258.6c0,1.2-0.4,2.7-1.2,3.4c-30,29-60.2,58-90.3,86.9c-5.4,5.2-10.8,10.5-16.3,15.5c-0.8,0.7-2,1.2-3,1.2
	c-87.7,0.1-175.3,0.1-262.9,0c-0.9,0-2.1-0.4-2.8-1.1L66.4,438.8c-1.5-1.5-2.1-3-2.1-5.1c0.1-85.5,0.1-171.1,0-256.6
	c0-1.9,0.6-3.1,1.9-4.4c35-33.6,70-67.4,105.1-101.2c0.8-0.8,2.1-1.2,3.3-1.2C218.4,70.2,262.3,70.2,306.3,70.2z M305.8,81.9H180.9
	c-1.5,0-2.6,0.3-3.7,1.4c-32.2,31.1-64.3,62.3-96.6,93.3c-1.2,1.1-1.8,2.2-1.8,3.9c0.1,58.1,0,116.2,0,174.3c0,24.9,0,49.8,0.1,74.6
	c0,1,0.6,2.4,1.3,3.2c2.7,2.8,5.5,5.4,8.3,8.1c29.4,28.4,58.8,56.9,88.2,85.3c1.1,1.1,2.1,1.9,3.9,1.9c83.4-0.1,166.7-0.1,250.1-0.1
	c1.1,0,2.4-0.5,3.2-1.3c32.7-31.5,65.4-63.1,98.1-94.6c1.1-1,1.5-2.1,1.5-3.6V179.8c0-1.4-0.3-2.4-1.4-3.4l-97.5-92.7
	c-1.3-1.2-2.6-1.8-4.4-1.8L305.8,81.9L305.8,81.9z"/>
<path class="st1" d="M305.8,81.9h124.5c1.8,0,3.1,0.5,4.4,1.8c32.4,31,64.9,61.9,97.5,92.7c1,1,1.5,2,1.4,3.4v248.5
	c0,1.5-0.4,2.6-1.5,3.6c-32.7,31.5-65.4,63.1-98.1,94.6c-0.8,0.8-2.1,1.3-3.2,1.3c-83.4,0.1-166.7,0.1-250.1,0.1
	c-1.8,0-2.8-0.8-3.9-1.9c-29.4-28.4-58.8-56.9-88.2-85.3c-2.7-2.7-5.7-5.3-8.3-8.1c-0.8-0.8-1.3-2.1-1.3-3.2
	c-0.1-24.9-0.1-49.8-0.1-74.6V180.7c0-1.7,0.6-2.8,1.8-3.9l96.6-93.3c1.1-1.1,2.2-1.4,3.7-1.4C222.5,81.9,264.1,81.9,305.8,81.9
	L305.8,81.9z M98.3,303.6v118.1c0,1.5,0.4,2.6,1.5,3.6c28.5,27.7,56.9,55.5,85.4,83.2c0.9,0.8,2.2,1.4,3.3,1.4
	c14.2,0.1,28.3,0.1,42.5,0.1c64.1,0,128.2,0,192.2-0.1c1.1,0,2.6-0.3,3.3-1.1c29.3-28.1,58.6-56.4,87.8-84.7c0.7-0.7,1.3-2,1.3-3
	c0.1-78,0.1-156,0-234c0-1-0.6-2.3-1.3-3c-29.3-27.9-58.8-55.7-88.2-83.5c-0.8-0.7-2-1.3-3-1.3c-78.6-0.1-157.2-0.1-235.8,0
	c-1,0-2.3,0.5-3,1.2c-28.1,27.1-56.3,54.2-84.5,81.3c-1.2,1.1-1.7,2.3-1.7,3.9C98.3,225.1,98.3,264.3,98.3,303.6L98.3,303.6z"/>
<path class="st0" d="M98.3,303.6V185.9c0-1.6,0.5-2.8,1.7-3.9c28.1-27.1,56.3-54.2,84.5-81.3c0.8-0.7,2-1.2,3-1.2
	c78.6-0.1,157.2-0.1,235.8,0c1,0,2.3,0.5,3,1.3c29.4,27.8,58.8,55.6,88.2,83.5c0.8,0.7,1.3,2,1.3,3c0.1,78,0.1,156,0,234
	c0,1-0.5,2.3-1.3,3c-29.3,28.3-58.5,56.5-87.8,84.7c-0.8,0.7-2.1,1.1-3.3,1.1c-64.1,0.1-128.2,0.1-192.2,0.1
	c-14.2,0-28.3,0-42.5-0.1c-1.1,0-2.6-0.6-3.3-1.4c-28.5-27.7-56.9-55.4-85.4-83.2c-1.1-1-1.5-2.1-1.5-3.6
	C98.3,382.3,98.3,342.9,98.3,303.6L98.3,303.6z M414.4,314.2l1-0.3c8.5-5,17-9.9,25.4-14.9c4-2.5,7.1-6,10-9.7
	c6.3-8.2,11.5-16.9,12.5-27.5c1.2-13-4.1-22.9-16.9-27.2c-6.2-2.1-12.4-2.2-18.7-0.6c-16.1,4.2-29.7,12.9-41.8,24
	c-14.2,13-26.1,27.9-36.5,44c-6.9,10.6-13.6,21.3-20.3,31.8c-0.4,0.6-0.7,1.3-1.1,2.1c5.2,0,10.1-0.1,15,0.1
	c2.2,0.1,3.3-0.8,4.5-2.7c11.3-20.3,23.5-40.1,37.3-58.8c8.3-11.3,17.8-21.6,29.9-29.2c5.7-3.5,11.4-6.9,18.1-8
	c5.5-0.9,10.6-0.1,14.5,4.5c3.9,4.5,3.9,9.7,2.7,15.1c-3,12.8-9.2,24-17.1,34.4c-5.7,7.5-11.7,14.8-17.6,22
	C414.9,313.8,414.6,314,414.4,314.2L414.4,314.2z M250.4,242c-0.2-0.6-0.3-1.1-0.5-1.5c-7.5-17.9-15.1-35.9-22.7-53.9
	c-0.6-1.4-0.5-2.4,0.2-3.7c8.4-16.7,16.8-33.4,25.1-50.1c0.3-0.7,0.7-1.4,1.1-2.4h-2.1c-8.2,0-16.5,0.1-24.7,0
	c-1.6,0-2.4,0.4-3.1,1.9c-6.9,14.4-14.1,28.7-21.1,43.1c-0.3,0.7-0.7,1.4-1,2c-0.2,0-0.3-0.1-0.4-0.1v-46.2h-31.3v110.7h31.4v-43.5
	c0.5,0.4,0.7,0.9,0.9,1.4l16.5,40.4c0.6,1.5,1.3,2,2.8,1.9c2.7-0.1,5.4,0,8.1,0L250.4,242L250.4,242z M137,427.4
	c0.6,0.2,0.9,0.3,1.1,0.3c10,3.1,20.1,5.7,30.5,6.3c8.8,0.5,17.6,0.9,25.9-3.3c7.5-3.9,14.6-8.3,19.2-15.7
	c4.7-7.5,5.4-15.8,4.3-24.3c-1.7-13.6-11.3-24.3-24-26.3c-2.7-0.4-5.3-0.8-8-1.1c-5-0.6-10-1.4-14.3-4.3c-3.1-2.1-3.5-4.9-1.4-7.8
	c1.9-2.7,4.6-3.9,7.7-4.5c7.8-1.5,15.5-1.1,23.2,1.1c3.7,1.1,7.4,2.2,11.2,3.4c-0.2-3.3-0.4-6.5-0.6-9.8h-4.4
	c-9-0.3-18-1.2-26.3-4.5c-7-2.8-13.7-6.6-20.7-9.9c-0.8-0.3-1.9-0.7-2.5-0.3c-11.9,6.9-19.9,16.4-19.7,31.1
	c0.2,15.4,9.3,26.3,23.7,29.7c3.2,0.8,6.4,1.2,9.7,1.7c5.3,0.9,10.6,1.9,15.1,5.2c2.5,1.8,2.7,3.6,1.3,6.4c-1.7,3.3-4.8,4.2-8,5
	c-8.7,2-17.1,0.4-25.3-2.3c-4.1-1.4-8.1-3-12.7-4.7C140.4,408.3,138.6,417.7,137,427.4L137,427.4z M205.4,246.1
	c-12,0-23.8-0.1-35.5,0.1c-1.5,0-3.2,0.5-4.5,1.3c-7.2,4.8-11.8,12-15,19.7c-4.3,10.6-4.3,21.8-1.4,32.9c2,7.4,5.1,14.3,11.1,19.5
	c12.1,10.1,25.8,16.2,41.7,16.9c9,0.4,17.7-1.1,26.2-4.2c1.5-0.6,2.2-1.4,2.2-3.2c-0.1-7.9-0.1-15.8-0.1-23.6c0-0.6-0.1-1.2-0.2-1.9
	c-0.9,0.5-1.5,1-2.1,1.3c-8.7,2.9-17.3,5.4-26.7,4.9c-10.7-0.6-25.1-11.3-22.6-26.1c1.5-9.3,5.8-16.1,15-19.5c8.2-3,16.6-3.1,25-0.9
	c3.9,1,7.7,2.7,11.6,4.1v-21.5c-3.7,0-7.3-0.1-10.8,0c-1.3,0-2-0.3-2.6-1.5c-1.7-3.3-3.5-6.5-5.4-9.8c-0.3-0.5-0.9-1.2-1.5-1.3
	c-1.4-0.2-2.8-0.1-4.4-0.1V246.1L205.4,246.1z M437.7,458.3c1.4-1.8,2.5-3.2,3.6-4.7c3.7-5.3,7-10.8,7.7-17.3
	c0.5-4.5,0.7-9.1,6-11.7c-0.9-0.2-1.1-0.3-1.4-0.3c-4.6,0-8.4,2-11.8,5.1c-3.4,3.2-6.8,6.4-10.6,9.1c-9.1,6.5-18.4,12.9-27.7,19
	c-2.2,1.5-5.1,2.4-7.7,2.8c-6.2,0.9-8.3-2-6-7.8c0.7-1.7,1.3-3.5,3.7-3.8c8.2-1.1,15.9-4.1,23.1-8.3c1.8-1,3.4-2.5,4.6-4.1
	c2.5-3.3,2.6-7.1,0.4-10.2c-1.7-2.4-5.5-3.7-9.1-2.6c-4.1,1.3-8.1,2.7-12,4.5c-7.7,3.9-14.6,9.1-17.7,17.3
	c-2.1,5.5-5.4,8.6-10.7,10.1c-1.4,0.4-2.7,1-4.1,1.5c-0.6,0.2-1.4,0.3-2.5,0.4c0.6-1.1,0.9-1.7,1.3-2.3c2.4-3.6,4.9-7,7.2-10.7
	c2.7-4.4,5.5-8.8,8-13.3c1.8-3.3,0.1-6.1-3.8-6.3c-3.9-0.3-7.7,0.5-11.1,2.7c-3.2,2-6.1,4.3-9.1,6.4c-0.6,0.4-1.2,0.8-2.1,1.2
	c0.4-2.4,1-4.4,1.1-6.3c0.2-2.8-1.5-4.1-4.2-3.4c-1.7,0.4-3.4,1.4-4.8,2.4c-14.1,10.6-28.1,21.4-42,32.2c-0.7,0.5-1.5,1-2.2,1.3
	c-0.6,0.2-1.5,0.1-2-0.2c-0.3-0.2-0.2-1.2,0.1-1.7c1.2-2.4,2.1-5,3.8-7.1c6.6-8.8,13.5-17.4,20.2-26.1c0.3-0.4,0.6-0.9,1-1.5
	c-3,0-5.7-0.1-8.4,0.1c-0.9,0.1-2.1,0.6-2.7,1.3c-5,6-10,12-14.8,18.2c-2.6,3.3-5.2,6.9-7,10.7c-2.8,6.1,1.3,11.2,8,10.6
	c4-0.3,6.9-2.7,9.7-5.1l29.1-24.2c0.7-0.6,1.5-1,2.3-1.5l0.6,0.6c-0.5,0.9-0.9,2.1-1.5,2.9c-5.7,8.1-11.3,16-17,24.1
	c-0.4,0.6-0.9,1.3-1.5,2.3c3.3,0,6.3-0.1,9.1,0c1.5,0.1,2.4-0.5,3.3-1.5c7.8-8.7,15.6-17.3,23.6-25.8c2.2-2.4,5.2-4.2,7.9-6.1
	c0.7-0.5,1.6-0.5,2.5-0.8c0.2,0.2,0.3,0.3,0.4,0.5c-0.4,0.9-0.8,1.8-1.3,2.6c-4.5,6.9-9,13.7-13.6,20.7c-0.6,0.9-1.1,1.9-1.5,2.9
	c-1.2,3.2,0,7.7,5.1,7.3c1.2-0.1,2.4,0,3.4-0.3c4-1.5,8.1-3.3,12-5.1c1.5-0.7,3-1.6,4.6-2.5c0.2,0.7,0.3,1.1,0.4,1.5
	c1.5,5,4.5,7.1,9.8,6.9c2.1-0.1,4-0.3,6-0.9c8.5-2,15.6-6.7,22.6-11.5c6.1-4.2,12-8.5,18.1-12.7c0.9-0.6,1.8-1,3.1-1.7
	c-0.2,1.5-0.2,2.3-0.3,3.2c-0.8,6.2-5.3,14.8-14,15.9c-1.5,0.2-3.2,0-4.8,0.3c-1.6,0.3-3.9,0.3-4,2.1c-0.1,1.2,1.4,2.8,2.5,3.7
	c2.8,2.2,6.3,2.7,9.8,2.7c8.1-0.1,16.2-0.4,24.3-0.7c0.5,0,1.3-0.2,1.5-0.5c2.3-2.5,4.6-5,7.2-7.8
	C453.6,457.4,445.9,457.8,437.7,458.3L437.7,458.3z M253.7,466.3c22.7-17.6,39.4-39.5,53.8-64.1c-6.3,0-12,0.1-17.8,0
	c-1.4,0-2.1,0.4-2.7,1.5c-4.3,7.4-8.6,14.8-12.9,22c-7.7,13-16.3,25.5-27.3,36.2c-2,1.9-3.8,2.8-6.5,2c-2-0.7-4.1-0.8-6.2-1.2
	c-11.6-2.1-23.2-3.6-35-1.9c-6,0.9-11.8,2.5-16.9,6c-4.2,2.9-5.8,7.6-4.4,12.4c0.6,2,1.6,3.4,3.6,4.4c8.1,3.9,16.6,5,25.6,3.6
	c8.1-1.3,15.7-4.2,23.1-7.8c0.8-0.3,1.7-0.9,2.4-0.6c7.8,2.5,15.8,3.1,23.8,4c11.9,1.4,23.4,0.1,34.7-3.9c3.6-1.3,7.1-3,10.7-4.5
	C285.8,471.3,269.5,471.8,253.7,466.3L253.7,466.3z M307.8,185c-0.2,0-0.3,0.1-0.4,0.1c-0.3-0.6-0.4-1.1-0.7-1.7
	c-2.8-7.2-5.7-14.3-8.5-21.5c-0.3-0.7-1-1.6-1.5-1.7c-4.3-0.2-8.6-0.1-13-0.1v51.7h11.2v-25.4c0.4,0.2,0.5,0.3,0.6,0.6
	c2.9,7.8,5.8,15.7,8.8,23.5c0.3,0.6,0.9,1.5,1.5,1.5c4.4,0.1,8.7,0.1,13.1,0.1v-52.3h-11.2L307.8,185L307.8,185z M437.4,343.1v50.8
	h11.2V368c0.3,0.2,0.4,0.3,0.4,0.3c3,8.1,6,16,9,24.1c0.3,0.6,0.8,1.5,1.1,1.5c4.5,0.1,9,0.1,13.6,0.1v-51.3h-11.2v24.7
	c-0.6-0.6-0.9-1.3-1.2-2c-2.8-6.9-5.6-13.7-8.4-20.6c-0.3-0.7-1.1-1.6-1.8-1.7H437.4z M250,160.3c-3.4,17.2-6.9,34.2-10.4,51.4H252
	c0.5-2.8,1.1-5.5,1.6-8.2c0.3-1.1,0.8-1.6,2.1-1.6c3.2,0.1,6.4,0.2,9.6,0c1.7-0.1,2.3,0.6,2.6,2.1c0.4,2.6,0.9,5.1,1.5,7.7h12.3
	c-0.5-2.7-0.9-5.1-1.5-7.6c-3.1-14.1-6.1-28.1-9.3-42.2c-0.1-0.6-0.9-1.4-1.5-1.4C263.1,160.3,256.8,160.3,250,160.3L250,160.3z
	 M368.5,160.4c-3.4,17-6.9,34.1-10.4,51.4c4.2,0,7.8,0.1,11.4-0.1c0.4,0,1.1-0.9,1.2-1.4c0.5-2.2,0.9-4.5,1.4-6.9
	c0.2-1.2,0.8-1.7,2.1-1.6c3.3,0.1,6.7,0.1,10,0c1.3,0,1.8,0.4,2.1,1.6c0.4,2.2,0.8,4.5,1.3,6.6c0.2,0.6,0.9,1.5,1.5,1.6
	c3.6,0.2,7.3,0.1,11.3,0.1c-3.8-17.3-7.4-34.3-11.1-51.4L368.5,160.4L368.5,160.4z M333.2,343.9v50.8h11.9v-19.8h8.4v19.8h12.8V344
	h-13v18.4h-7.7V344L333.2,343.9L333.2,343.9L333.2,343.9z M411.9,377.2c0.9,0,1.6,0.1,2.3,0c2.1-0.3,3,0.4,3.5,2.6
	c1,4.3,2.4,8.6,3.7,12.8c0.2,0.6,0.8,1.4,1.2,1.4c3.7,0.1,7.4,0.1,11.2,0.1c-2.2-6.9-4.4-13.3-6.6-19.8c-0.5-1.5-0.4-2.5,0.7-3.9
	c1.5-1.6,2.7-3.7,3.4-5.7c3.3-9.7-1-20.8-14.1-20.6c-2.7,0-5.4-0.1-8.1-0.1h-10.6v50.5h13.1C411.9,388.7,411.9,383,411.9,377.2z
	 M259.8,344.3V378c0,1.4-0.2,2.7,0,4.1c0.9,7.5,7.2,13.8,14.5,14.5c8.2,0.8,15.5-3.6,17.9-11.2c0.8-2.3,1-4.9,1.1-7.3
	c0.1-10.6,0.1-21.3,0.1-31.9c0-0.6-0.1-1.1-0.1-1.8H281v37.5c0,2.5-1.6,4.4-4.1,4.3c-2.4-0.1-4.1-2.1-3.9-4.5
	c0.1-0.7,0.1-1.5,0.1-2.1v-35.2L259.8,344.3L259.8,344.3L259.8,344.3z M256.3,369.3c-0.2-7.5-2.1-15-8-21
	c-6.7-6.9-15.9-6.9-22.6,0.1c-5.5,5.7-7.6,12.8-7.9,20.5c-0.3,7.9,1.5,15.2,6.5,21.4c7.2,9,18.4,9,25.5-0.1
	C254.5,384.3,256.2,377.4,256.3,369.3z M403,208.6c6.2,1.9,12.3,2.7,18.4,2c5.9-0.7,11.2-2.5,13.9-8.3c1.5-3.2,2.1-6.5,1.7-10
	c-0.8-6.9-3.3-9.8-10-11.4c-0.7-0.2-1.5-0.3-2.1-0.4c-3.1-0.8-6.3-1.5-9.4-2.3c-2-0.5-3.1-1.9-3-4s1.1-3.5,3-4.1
	c1.7-0.5,3.6-1.1,5.3-0.9c4.1,0.4,8.1,1.2,12.4,1.9c0.4-3.3,0.9-6.6,1.3-10c-0.9-0.3-1.5-0.6-2.1-0.7c-4.6-0.4-9.3-0.9-13.9-1.2
	c-3.9-0.2-7.5,1.1-10.6,3.3c-5.1,3.3-7.5,9.8-6.3,16c1.2,5.8,4.9,9.1,11.5,10.4c2.1,0.4,4.1,0.8,6.2,1.4c3,0.9,4.5,2.8,4.4,5.3
	c-0.1,2.1-2.7,4.6-5.3,4.7c-2.3,0.1-4.8-0.3-7.1-0.8c-2.3-0.4-4.6-1.2-7-1.9C403.8,201.3,403.5,204.9,403,208.6z M324.3,208.6
	c6.5,2.1,13,2.7,19.6,1.8c5.6-0.8,10.2-2.8,12.7-8.3c1.5-3.2,2-6.5,1.6-10c-0.6-6.3-3.1-9.4-9.3-11.2c-0.9-0.3-1.9-0.4-2.7-0.6
	c-3.1-0.8-6.3-1.5-9.4-2.2c-2-0.5-3.2-1.8-3.1-3.9c0.1-2.2,1.2-3.9,3.3-4.3c2.7-0.5,5.6-0.8,8.4-0.6c3,0.3,5.9,1.2,9,1.8
	c0.4-3.5,0.9-6.9,1.3-10.3c-5.4-1.7-10.7-1.8-16.1-1.8c-4.1,0-7.9,1.3-11.2,3.8c-5.3,4-6.7,9.6-5.6,15.8c1.1,6.1,5.3,9,11.2,10.1
	c2.1,0.4,4.3,0.8,6.3,1.4c3,0.9,4.4,2.8,4.2,5.3c-0.2,2.1-2.6,4.6-5.3,4.7c-2.3,0.1-4.6-0.3-6.9-0.7c-2.4-0.4-4.7-1.3-7.2-2
	C325,201.3,324.6,204.9,324.3,208.6z M371.5,343.9v50.8h22.9v-10.6h-10.8v-11.2h10.3v-9.4h-10.3v-10.4h10v-9.3h-22.1V343.9z
	 M305.6,355.7v39h14.5v-39h8.8v-11.5h-32.3v11.6C299.6,355.7,302.5,355.7,305.6,355.7z M288,264.1v-11.4h-32.2v11.6h9v39h14.6v-39.1
	C282.3,264.1,285.1,264.1,288,264.1z M291.8,252.6c4.5,7.5,8.9,14.6,13.2,21.8c0.8,1.3,1.3,2.9,1.3,4.5c0.2,7.1,0.1,14.3,0.1,21.4v3
	h13.4v-2.5c0-7.5,0-15,0.1-22.6c0-1.2,0.3-2.5,0.9-3.4c3.9-6.7,8.1-13.3,12.1-20c0.4-0.7,0.8-1.3,1.3-2.2c-4,0-7.6,0.2-11.2-0.1
	c-2.1-0.1-3.1,0.6-3.9,2.5c-1.8,4-3.9,8-6,12.4c-2.3-4.7-4.4-9-6.6-13.3c-0.3-0.6-1.2-1.4-1.8-1.4
	C300.6,252.6,296.4,252.6,291.8,252.6L291.8,252.6z M236.3,252.1v51.6h14.8v-51.6H236.3z M338,411.1c0-4-3.4-7.4-7.6-7.4
	c-4.1,0-7.6,3.4-7.6,7.4s3.5,7.4,7.6,7.4C334.6,418.4,338,415.1,338,411.1z"/>
<path class="st1" d="M250.4,242h-21.1c-2.7,0-5.4-0.1-8.1,0c-1.5,0.1-2.3-0.4-2.8-1.9c-5.4-13.5-11-26.9-16.5-40.4
	c-0.2-0.4-0.3-0.9-0.9-1.4v43.5h-31.4V131.1H201v46.2c0.2,0,0.3,0.1,0.4,0.1c0.3-0.7,0.7-1.4,1-2c7-14.4,14.2-28.7,21.1-43.1
	c0.7-1.5,1.5-2,3.1-1.9c8.2,0.1,16.5,0,24.7,0h2.1c-0.4,0.9-0.8,1.6-1.1,2.4c-8.4,16.7-16.7,33.5-25.1,50.1
	c-0.6,1.3-0.7,2.3-0.2,3.7c7.6,17.9,15.2,35.9,22.7,53.9C250.1,241,250.2,241.4,250.4,242L250.4,242z M137,427.4
	c1.7-9.6,3.3-19,5-28.7c4.5,1.7,8.6,3.3,12.7,4.7c8.2,2.7,16.6,4.4,25.3,2.3c3.2-0.8,6.3-1.5,8-5c1.4-2.8,1.2-4.5-1.3-6.4
	c-4.5-3.3-9.8-4.3-15.1-5.2c-3.3-0.5-6.5-0.9-9.7-1.7c-14.4-3.3-23.5-14.2-23.7-29.7c-0.2-14.8,7.9-24.1,19.7-31.1
	c0.6-0.3,1.7,0,2.5,0.3c6.9,3.3,13.6,7,20.7,9.9c8.4,3.3,17.3,4.2,26.3,4.5c1.4,0.1,2.7,0,4.4,0c0.2,3.3,0.4,6.4,0.6,9.8
	c-3.9-1.2-7.5-2.4-11.2-3.4c-7.6-2.2-15.4-2.7-23.2-1.1c-3.1,0.6-5.8,1.9-7.7,4.5c-2.1,3-1.6,5.8,1.4,7.8c4.3,2.8,9.3,3.6,14.3,4.3
	c2.7,0.3,5.3,0.7,8,1.1c12.7,2.1,22.3,12.7,24,26.3c1,8.5,0.4,16.8-4.3,24.3c-4.6,7.4-11.7,11.8-19.2,15.7
	c-8.2,4.2-17.1,3.9-25.9,3.3c-10.5-0.6-20.5-3.3-30.5-6.3C137.9,427.6,137.6,427.6,137,427.4L137,427.4z"/>
<path class="st1" d="M205.4,246.1v-13c1.5,0,3-0.1,4.4,0.1c0.6,0.1,1.2,0.7,1.5,1.3c1.9,3.2,3.7,6.4,5.4,9.8
	c0.6,1.1,1.3,1.5,2.6,1.5c3.6-0.1,7.1,0,10.8,0v21.5c-3.8-1.4-7.5-3.1-11.6-4.1c-8.3-2.1-16.7-2-25,0.9c-9.2,3.3-13.4,10.2-15,19.5
	c-2.5,14.8,11.9,25.5,22.6,26.1c9.4,0.5,18-2,26.7-4.9c0.7-0.3,1.2-0.8,2.1-1.3c0.1,0.7,0.1,1.3,0.2,1.9c0,7.9-0.1,15.8,0.1,23.6
	c0,1.8-0.7,2.7-2.2,3.2c-8.4,3.1-17.2,4.6-26.2,4.2c-15.9-0.7-29.7-6.8-41.7-16.9c-6.1-5.1-9.1-12-11.1-19.5
	c-2.9-11.1-3-22.3,1.4-32.9c3.2-7.7,7.8-14.9,15-19.7c1.2-0.9,2.9-1.3,4.5-1.3C181.6,246,193.4,246.1,205.4,246.1L205.4,246.1z
	 M437.7,458.3c8.2-0.4,16-0.9,24.2-1.3c-2.6,2.8-4.8,5.3-7.2,7.8c-0.3,0.3-1,0.4-1.5,0.5c-8.1,0.3-16.2,0.6-24.3,0.7
	c-3.4,0-6.9-0.4-9.8-2.7c-1.1-0.9-2.6-2.5-2.5-3.7c0.2-2,2.5-2,4-2.1c1.5-0.2,3.2,0,4.8-0.3c8.7-1.1,13.1-9.7,14-15.9
	c0.1-0.9,0.2-1.7,0.3-3.2c-1.3,0.8-2.2,1.1-3.1,1.7c-6,4.2-12,8.5-18.1,12.7c-7,4.9-14.2,9.5-22.6,11.5c-2,0.4-4,0.8-6,0.9
	c-5.2,0.3-8.1-1.9-9.8-6.9c-0.2-0.4-0.3-0.9-0.4-1.5c-1.5,0.9-3,1.8-4.6,2.5c-3.9,1.7-8,3.5-12,5.1c-1,0.4-2.3,0.3-3.4,0.3
	c-5.1,0.4-6.3-4.1-5.1-7.3c0.3-1,0.9-2,1.5-2.9c4.5-6.9,9-13.7,13.6-20.7c0.5-0.8,0.9-1.7,1.3-2.6c-0.2-0.2-0.3-0.3-0.4-0.5
	c-0.9,0.3-1.8,0.3-2.5,0.8c-2.7,2-5.7,3.7-7.9,6.1c-8,8.5-15.8,17.2-23.6,25.8c-0.9,1-1.9,1.6-3.3,1.5c-2.9-0.1-5.7,0-9.1,0
	c0.7-1,1-1.6,1.5-2.3c5.7-8.1,11.3-16,17-24.1c0.6-0.9,0.9-2,1.5-2.9l-0.6-0.6c-0.8,0.5-1.6,0.9-2.3,1.5l-29.1,24.2
	c-2.8,2.3-5.7,4.6-9.7,5.1c-6.7,0.6-10.8-4.4-8-10.6c1.8-3.9,4.4-7.4,7-10.7c4.8-6.2,9.8-12.2,14.8-18.2c0.6-0.7,1.7-1.3,2.7-1.3
	c2.7-0.2,5.4-0.1,8.4-0.1c-0.4,0.7-0.7,1.1-1,1.5c-6.8,8.7-13.6,17.3-20.2,26.1c-1.6,2.1-2.6,4.7-3.8,7.1c-0.3,0.5-0.3,1.6-0.1,1.7
	c0.5,0.3,1.4,0.3,2,0.2c0.8-0.3,1.5-0.8,2.2-1.3c14-10.7,28-21.4,42-32.2c1.4-1.1,3.1-2,4.8-2.4c2.7-0.7,4.3,0.6,4.2,3.4
	c-0.1,2-0.7,3.9-1.1,6.3c0.9-0.5,1.5-0.9,2.1-1.2c3-2.1,6-4.5,9.1-6.4c3.3-2.1,7.1-2.9,11.1-2.7c3.8,0.3,5.6,2.9,3.8,6.3
	c-2.5,4.5-5.2,8.9-8,13.3c-2.3,3.6-4.8,7.1-7.2,10.7c-0.4,0.6-0.7,1.2-1.3,2.3c1.2-0.2,1.9-0.3,2.5-0.4c1.4-0.4,2.7-1.1,4.1-1.5
	c5.3-1.5,8.7-4.5,10.7-10.1c3.1-8.2,10-13.5,17.7-17.3c3.8-1.9,7.9-3.3,12-4.5c3.6-1.1,7.5,0.2,9.1,2.6c2.1,3.1,2.1,6.9-0.4,10.2
	c-1.3,1.6-2.9,3.1-4.6,4.1c-7.2,4.1-14.8,7.2-23.1,8.3c-2.4,0.3-3,2.1-3.7,3.8c-2.3,5.7-0.2,8.8,6,7.8c2.7-0.4,5.5-1.4,7.7-2.8
	c9.4-6.2,18.6-12.5,27.7-19c3.8-2.7,7.1-5.9,10.6-9.1c3.3-3.1,7.1-5.1,11.8-5.1c0.3,0,0.5,0.1,1.4,0.3c-5.3,2.5-5.5,7.1-6,11.7
	c-0.8,6.6-4,12.1-7.7,17.3C440.2,455.1,439.1,456.5,437.7,458.3L437.7,458.3z M394.9,444.4c7.5-2.2,14.9-4.2,21.4-8.5
	c0.7-0.4,1.2-1,1.6-1.7c2.1-3,0.5-6.4-3.1-6.6c-1.7-0.1-3.7,0.3-5.2,1.1c-2.3,1.1-4.5,2.7-6.5,4.3
	C399.2,435.9,396.6,439.6,394.9,444.4L394.9,444.4z"/>
<path class="st1" d="M253.7,466.3c15.9,5.4,32.1,5,48,8.1c-3.5,1.5-7,3.3-10.7,4.5c-11.2,4-22.7,5.3-34.7,3.9
	c-8.1-0.9-16-1.5-23.8-4c-0.7-0.3-1.6,0.3-2.4,0.6c-7.4,3.6-14.9,6.5-23.1,7.8c-8.8,1.4-17.4,0.3-25.6-3.6c-2-0.9-3-2.4-3.6-4.4
	c-1.5-4.8,0.2-9.5,4.4-12.4c5.1-3.5,10.9-5.1,16.9-6c11.8-1.6,23.4-0.1,35,1.9c2.1,0.3,4.2,0.5,6.2,1.2c2.7,0.9,4.5-0.1,6.5-2
	c11-10.7,19.6-23.2,27.3-36.2c4.4-7.3,8.7-14.7,12.9-22c0.7-1.2,1.4-1.5,2.7-1.5c5.7,0.1,11.5,0,17.8,0
	C293.1,426.8,276.4,448.8,253.7,466.3L253.7,466.3z M221.1,472.8l-0.3-0.8c-6.2-2.1-12.5-2.8-19-2.1c-3.4,0.3-6.9,1.1-10.2,2.1
	c-1,0.3-2.3,1.8-2.5,2.8c-0.1,0.9,1.1,2.1,2,3c0.4,0.4,1.3,0.6,2,0.8c4.6,0.9,9.2,0.3,13.6-0.9C211.6,476.1,216.4,474.3,221.1,472.8
	z M415.1,313.6c5.8-7.4,11.8-14.6,17.6-22c7.9-10.4,14.1-21.6,17.1-34.4c1.3-5.4,1.1-10.5-2.7-15.1c-3.9-4.6-9-5.5-14.5-4.5
	c-6.7,1.1-12.4,4.4-18.1,8c-12,7.5-21.5,17.8-29.9,29.2c-13.8,18.8-26,38.5-37.3,58.8c-1,1.9-2.2,2.7-4.5,2.7
	c-4.9-0.2-9.8-0.1-15-0.1c0.4-0.9,0.7-1.5,1.1-2.1c6.8-10.6,13.5-21.3,20.3-31.8c10.4-16.1,22.4-31,36.5-44
	c12.1-11.2,25.6-19.8,41.8-24c6.3-1.6,12.5-1.5,18.7,0.6c12.8,4.3,18.1,14.1,16.9,27.2c-0.9,10.6-6.3,19.2-12.5,27.5
	c-2.8,3.8-5.9,7.3-10,9.7c-8.4,5.1-16.9,10-25.4,14.9C415.3,313.8,415.2,313.7,415.1,313.6L415.1,313.6z M307.8,185v-25.3H319V212
	c-4.4,0-8.8,0.1-13.1-0.1c-0.5,0-1.2-0.9-1.5-1.5c-3-7.8-5.9-15.7-8.8-23.5c-0.1-0.3-0.2-0.4-0.6-0.6v25.4h-11.2V160
	c4.4,0,8.7-0.1,13,0.1c0.5,0,1.3,1,1.5,1.7c2.9,7.1,5.7,14.3,8.5,21.5c0.3,0.6,0.4,1.1,0.7,1.7H307.8z M437.4,343.1
	c4.4,0,8.7-0.1,12.9,0.1c0.6,0,1.5,0.9,1.8,1.7c2.8,6.9,5.7,13.7,8.4,20.6c0.3,0.7,0.6,1.3,1.2,2v-24.7h11.2v51.3
	c-4.5,0-9,0-13.6-0.1c-0.4,0-0.9-0.9-1.1-1.5c-3-8.1-6-16-9-24.1c0-0.1-0.2-0.2-0.4-0.3V394h-11.2
	C437.4,377,437.4,360.3,437.4,343.1L437.4,343.1z M250,160.3c6.7,0,13.1,0,19.5,0.1c0.5,0,1.3,0.9,1.5,1.4l9.3,42.2
	c0.5,2.5,0.9,5,1.5,7.6h-12.3c-0.5-2.6-1-5.1-1.5-7.7c-0.3-1.5-0.9-2.2-2.6-2.1c-3.2,0.2-6.4,0.1-9.6,0c-1.3-0.1-1.9,0.4-2.1,1.6
	c-0.5,2.7-1,5.4-1.6,8.2h-12.4C243.1,194.6,246.6,177.6,250,160.3L250,160.3z M256.9,190.9h8.2c-1.5-4.5-2.8-8.9-4.5-13.8
	C259.4,182,258.2,186.3,256.9,190.9z M368.5,160.4h20.8c3.7,17.1,7.4,34.1,11.1,51.4c-4,0-7.7,0.1-11.3-0.1c-0.5,0-1.3-0.9-1.5-1.6
	c-0.6-2.1-0.9-4.4-1.3-6.6c-0.2-1.2-0.8-1.7-2.1-1.6c-3.3,0.1-6.7,0.1-10,0c-1.3,0-1.8,0.5-2.1,1.6c-0.4,2.3-0.8,4.5-1.4,6.9
	c-0.2,0.5-0.8,1.4-1.2,1.4c-3.6,0.1-7.3,0.1-11.4,0.1C361.5,194.5,364.9,177.4,368.5,160.4L368.5,160.4z M382.9,190.9
	c-1.5-4.6-2.9-8.9-4.5-13.8c-1.4,5-2.6,9.4-3.8,13.8H382.9z M333.2,343.9h12.4v18.4h7.7V344h13v50.7h-12.8v-19.8h-8.4v19.8h-11.9
	L333.2,343.9L333.2,343.9z M411.9,377.2v17.2h-13.1v-50.5h10.6c2.7,0,5.4,0.2,8.1,0.1c13-0.2,17.3,10.9,14.1,20.6
	c-0.7,2.1-2,4.1-3.4,5.7c-1.2,1.3-1.2,2.3-0.7,3.9c2.2,6.4,4.3,13,6.6,19.8c-3.9,0-7.6,0.1-11.2-0.1c-0.4,0-1-0.9-1.2-1.4
	c-1.3-4.2-2.7-8.5-3.7-12.8c-0.5-2.1-1.5-2.9-3.5-2.6C413.5,377.3,412.8,377.2,411.9,377.2L411.9,377.2z M411.4,367.6
	c3.3-0.2,6.2-0.8,7.7-4c1.3-2.8,1.5-5.7-0.4-8.2c-1.8-2.4-4.4-2.8-7.3-2.5L411.4,367.6L411.4,367.6z M259.8,344.3h13.3v35.2
	c0,0.7-0.1,1.5-0.1,2.1c-0.3,2.5,1.5,4.5,3.9,4.5c2.4,0.1,4.1-1.9,4.1-4.3c-0.1-12.4,0-24.9,0-37.5h12.3c0,0.7,0.1,1.3,0.1,1.8
	c0,10.6,0.1,21.3-0.1,31.9c0,2.4-0.3,5-1.1,7.3c-2.4,7.6-9.7,12-17.9,11.2c-7.3-0.7-13.6-6.9-14.5-14.5c-0.2-1.4,0-2.7,0-4.1
	L259.8,344.3L259.8,344.3z M256.3,369.3c-0.1,8.1-1.8,15-6.5,20.9c-7.2,9.1-18.3,9.1-25.5,0.1c-5-6.3-6.8-13.6-6.5-21.4
	c0.3-7.7,2.4-14.8,7.9-20.5c6.7-6.9,15.9-6.9,22.6-0.1C254.2,354.3,256.2,361.8,256.3,369.3z M244.4,369.9c-0.2-0.1-0.4-0.1-0.6-0.2
	c0-5.3-0.9-10.7-2.5-14.1c-0.9-1.9-1.8-3.9-4.2-3.9c-2.3,0-3.4,2.1-4.1,4c-3.4,9.3-3.4,18.6,0,28c0.7,1.9,1.7,4,4.1,4
	c2.5,0.1,3.7-2.1,4.3-4.1C242.5,379.1,243.4,374.5,244.4,369.9L244.4,369.9z M403,208.6c0.3-3.8,0.7-7.4,1.1-11.2
	c2.5,0.7,4.7,1.5,7,1.9s4.7,0.9,7.1,0.8c2.7-0.1,5.1-2.7,5.3-4.7c0.2-2.4-1.4-4.4-4.4-5.3c-2-0.6-4.1-0.9-6.2-1.4
	c-6.6-1.3-10.3-4.6-11.5-10.4c-1.3-6.2,1.2-12.5,6.3-16c3.2-2.1,6.8-3.4,10.6-3.3c4.6,0.3,9.3,0.8,13.9,1.2c0.7,0.1,1.4,0.4,2.1,0.7
	c-0.4,3.4-0.9,6.9-1.3,10c-4.2-0.7-8.3-1.5-12.4-1.9c-1.7-0.2-3.6,0.3-5.3,0.9c-1.9,0.6-2.9,2.1-3,4.1c-0.1,2.1,0.9,3.4,3,4
	c3.1,0.9,6.2,1.5,9.4,2.3c0.7,0.2,1.5,0.3,2.1,0.4c6.7,1.6,9.3,4.5,10,11.4c0.4,3.5-0.2,6.8-1.7,10c-2.7,5.9-8,7.7-13.9,8.3
	C415.3,211.3,409.3,210.5,403,208.6z M324.3,208.6c0.3-3.7,0.7-7.3,1-11.2c2.5,0.7,4.8,1.5,7.2,2c2.2,0.4,4.6,0.8,6.9,0.7
	c2.7-0.1,5.1-2.5,5.3-4.7c0.2-2.5-1.2-4.5-4.2-5.3c-2.1-0.6-4.2-1-6.3-1.4c-5.8-1-10.1-4-11.2-10.1c-1.1-6.2,0.3-11.8,5.6-15.8
	c3.3-2.5,7-3.7,11.2-3.8c5.4,0,10.7,0.1,16.1,1.8c-0.4,3.4-0.9,6.8-1.3,10.3c-3.1-0.7-6-1.6-9-1.8c-2.7-0.3-5.7,0.1-8.4,0.6
	c-2.1,0.3-3.3,2.1-3.3,4.3c-0.1,2.1,1.1,3.4,3.1,3.9c3.1,0.8,6.2,1.5,9.4,2.2c0.9,0.3,1.9,0.3,2.7,0.6c6.1,1.7,8.7,4.8,9.3,11.2
	c0.3,3.5-0.2,6.8-1.6,10c-2.5,5.5-7.2,7.5-12.7,8.3C337.2,211.4,330.8,210.7,324.3,208.6L324.3,208.6z M371.5,343.9h22.1v9.3h-10
	v10.4h10.3v9.4h-10.3v11.2h10.8v10.6h-22.9V343.9z M305.6,355.7h-9v-11.6h32.3v11.5h-8.8v39h-14.5V355.7z M288,264.1h-8.6v39.1
	h-14.6v-39h-9v-11.6H288V264.1z M291.8,252.6c4.5,0,8.7-0.1,12.9,0.1c0.6,0,1.5,0.8,1.8,1.4c2.2,4.3,4.3,8.6,6.6,13.3
	c2.1-4.3,4.2-8.2,6-12.4c0.9-1.9,1.9-2.6,3.9-2.5c3.6,0.2,7.3,0.1,11.2,0.1c-0.5,0.9-0.9,1.6-1.3,2.2c-4,6.7-8.1,13.3-12.1,20
	c-0.6,1-0.9,2.3-0.9,3.4c-0.1,7.5-0.1,15-0.1,22.6v2.5h-13.4v-3c0-7.1,0.1-14.3-0.1-21.4c0-1.5-0.5-3.2-1.3-4.5
	C300.9,267.2,296.4,260.1,291.8,252.6L291.8,252.6z M236.3,252.1h14.8v51.6h-14.8V252.1z M338,411.1c0,4-3.4,7.4-7.5,7.4
	s-7.6-3.3-7.6-7.4c0-3.9,3.5-7.4,7.6-7.4C334.5,403.7,338,407.1,338,411.1z"/>
<path class="st1" d="M415.5,314l-1,0.3c0.3-0.2,0.4-0.4,0.7-0.6L415.5,314L415.5,314z"/>
<path class="st0" d="M394.9,444.4c1.7-4.8,4.4-8.6,8.1-11.4c2.1-1.5,4.2-3.2,6.5-4.3c1.5-0.8,3.5-1.2,5.2-1.1
	c3.6,0.2,5.1,3.6,3.1,6.6c-0.4,0.7-1,1.3-1.6,1.7C409.8,440.2,402.4,442.1,394.9,444.4L394.9,444.4z M221.1,472.8
	c-4.8,1.6-9.5,3.3-14.3,4.7c-4.5,1.2-9,1.8-13.6,0.9c-0.7-0.2-1.5-0.3-2-0.8c-0.9-0.9-2.1-2.1-2-3c0.2-1.1,1.4-2.6,2.5-2.8
	c3.3-0.9,6.8-1.7,10.2-2.1c6.4-0.6,12.8,0.1,19,2.1C220.9,472.3,221,472.5,221.1,472.8L221.1,472.8z M256.9,190.9
	c1.3-4.5,2.5-8.9,3.8-13.8c1.5,4.9,3,9.3,4.5,13.8H256.9z M382.9,190.9h-8.2c1.2-4.5,2.4-8.8,3.8-13.8
	C379.9,182,381.3,186.3,382.9,190.9L382.9,190.9z M411.4,367.6v-14.8c2.9-0.3,5.5,0.1,7.3,2.5c1.9,2.6,1.7,5.5,0.4,8.2
	C417.6,366.8,414.7,367.5,411.4,367.6L411.4,367.6z M244.4,369.9c-1,4.5-1.9,9.2-3.2,13.7c-0.5,2-1.7,4.1-4.3,4.1
	c-2.3-0.1-3.4-2.1-4.1-4c-3.4-9.3-3.4-18.6,0-28c0.7-1.9,1.8-3.9,4.1-4c2.3,0,3.3,2.1,4.2,3.9c1.6,3.3,2.5,8.8,2.5,14.1
	C244.1,369.8,244.2,369.8,244.4,369.9L244.4,369.9z"/>
</svg>
