<?xml version="1.0" encoding="UTF-8" standalone="no"?>
<svg
   xmlns="http://www.w3.org/2000/svg"
   id="svg5629"
   version="1.1"
   viewBox="0 0 50.799999 50.799999"
   height="50.799999mm"
   width="50.799999mm">
  <g
     transform="translate(-84.213098,-39.522619)"
     id="layer1">
    <g
       id="g2411"
       transform="matrix(3.9075616,0,0,3.9076922,-598.94577,-10.918338)"
       style="display:inline;stroke-width:0.26000434">
      <ellipse
         style="fill:#da1f3e;fill-opacity:1;fill-rule:evenodd;stroke-width:0.06879281"
         id="path4148"
         cx="181.33018"
         cy="19.408119"
         rx="6.5002174"
         ry="6.5" />
      <ellipse
         style="fill:#ffffff;fill-opacity:1;fill-rule:evenodd;stroke-width:0.06879281"
         id="path4496"
         cx="181.33018"
         cy="19.408119"
         rx="3.7006159"
         ry="3.7005" />
      <path
         style="fill:#da1f3e;fill-opacity:1;stroke-width:0.98269361"
         d="m 686.03711,61.65625 c -0.56503,-0.01533 -1.3993,0.102698 -2.14649,0.320312 -0.37692,0.109796 -0.37056,0.151391 0.0762,0.509766 0.30194,0.242317 0.50088,0.69114 0.52734,1.183594 0.0382,0.758075 -0.0258,0.823137 -1.4668,1.529297 -1.63396,0.800761 -4.30156,1.405518 -6.7832,1.535156 -0.86249,0.04505 -1.61562,0.127758 -1.67383,0.185547 -0.0583,0.0578 0.50817,0.708497 1.25977,1.445312 l 1.36719,1.339844 2.01171,-0.621094 c 1.10642,-0.341726 2.07323,-0.560936 2.14844,-0.486328 0.20561,0.202802 0.35638,4.146313 0.18555,4.820313 -0.0913,0.360295 -0.31072,0.583984 -0.57227,0.583984 -0.2335,0 -0.75287,0.11332 -1.15429,0.251953 -0.60061,0.207413 -0.73047,0.374771 -0.73047,0.94336 v 0.691406 l 2.72461,-0.08203 c 2.07681,-0.06255 2.71811,-0.0138 2.69922,0.205078 -0.0125,0.157848 -0.0377,1.112817 -0.0566,2.123047 l -0.0352,1.835937 h -3.70703 -3.70899 v 1.451172 1.449219 l 2.14258,-0.316406 c 3.16033,-0.464361 10.65247,-0.472405 12.0332,-0.01367 0.99716,0.331351 1.15175,0.32701 1.97266,-0.03711 0.8623,-0.382461 2.39258,-1.859929 2.39258,-2.310547 0,-0.134815 -1.76974,-0.222656 -4.51953,-0.222656 h -4.51953 v -2.041015 c 0,-1.422577 0.0872,-2.074876 0.28906,-2.150391 0.15934,-0.0596 1.22538,-0.128155 2.36914,-0.152344 1.1438,-0.02415 2.11921,-0.08271 2.16797,-0.130859 0.0488,-0.04814 -0.008,-0.379213 -0.12696,-0.734375 l -0.21874,-0.644531 -3.57227,-0.115235 c -2.97037,-0.09541 -3.57422,-0.172723 -3.57422,-0.458984 0,-0.440546 1.34994,-0.649198 4.3457,-0.671875 1.24283,-0.0093 2.25977,-0.07319 2.25977,-0.142578 0,-0.06941 -0.15887,-0.432102 -0.35352,-0.804688 l -0.35351,-0.677734 h -3.12305 c -2.498,0 -3.12305,-0.06341 -3.12305,-0.316406 0,-0.605564 0.59325,-0.77798 2.78125,-0.808594 2.71877,-0.03792 4.17188,-0.227354 4.17188,-0.546875 0,-0.133947 0.23462,-0.03334 0.52148,0.224609 0.4777,0.429657 0.62863,0.447561 1.80274,0.207031 1.41781,-0.290437 2.50572,-0.952731 3.24023,-1.974609 l 0.48242,-0.673828 -0.53125,-0.103516 c -0.29272,-0.05674 -1.30896,-0.226515 -2.25781,-0.378906 -3.12109,-0.501305 -6.57528,-1.889238 -6.85156,-2.751953 -0.0832,-0.259998 -0.0831,-0.871003 0,-1.359375 0.13225,-0.776323 0.088,-0.9093 -0.34961,-1.046875 -0.1153,-0.03625 -0.27455,-0.05544 -0.46289,-0.06055 z m -0.57617,4.453125 c 0.2078,0.01664 0.48168,0.152439 1.00781,0.419922 2.20558,1.121359 2.20013,1.174098 -0.11914,1.46875 -1.14365,0.145323 -2.64544,0.262913 -3.33789,0.261719 l -1.25781,-0.002 1.27343,-0.720703 c 0.70111,-0.396019 1.5194,-0.908424 1.81836,-1.138671 0.26504,-0.204133 0.40744,-0.305701 0.61524,-0.289063 z m 2.83398,10.650391 c -0.1519,-0.0018 -0.63281,0.966981 -0.63281,1.27539 0,0.05456 0.33963,0.244339 0.75391,0.423828 0.99129,0.42929 1.90486,0.44477 2.24804,0.03516 0.22832,-0.272523 0.0604,-0.453232 -0.95703,-1.03125 -0.67835,-0.385395 -1.31346,-0.701976 -1.41211,-0.703125 z m -5.60351,0.294922 c -0.24776,0.01322 -0.65,0.139377 -1.42188,0.390624 -0.88131,0.286855 -1.6337,0.547133 -1.67187,0.578126 -0.0378,0.03111 0.002,0.335548 0.0879,0.675781 0.17707,0.698895 0.32957,0.690767 2.54101,-0.128907 1.36233,-0.504948 1.42658,-0.587758 0.95508,-1.226562 -0.14918,-0.202091 -0.24248,-0.302285 -0.49023,-0.289062 z"
         transform="scale(0.26458333)"
         id="path4142" />
    </g>
  </g>
</svg>
