<svg xmlns="http://www.w3.org/2000/svg" width="191.999996" height="191.999996" viewBox="0 0 50.799999 50.799999">
    <g stroke-width=".260004" transform="matrix(3.90756 0 0 3.9077 -683.158868 -50.440957)">
        <ellipse class="color-main color-red" fill="#da1f3e" fill-rule="evenodd" cx="181.33018" cy="19.408119" rx="6.500217" ry="6.5"/>
        <ellipse class="color-white" fill="#fff" fill-rule="evenodd" cx="181.33018" cy="19.408119" rx="3.700616" ry="3.7005"/>
        <path class="color-main color-red" fill="#da1f3e" d="M181.513983 16.313216c-.149497-.004056-.370231.027172-.567925.08475-.099727.02905-.098044.040055.02016.134875.07989.064113.132525.182864.139526.313159.010107.200574-.006826.217788-.38809.404626-.43232.211868-1.138122.371877-1.794722.406177-.2282.01192-.427466.033803-.442868.049093-.015425.015293.134454.187456.333314.382405l.361736.3545.532265-.16433c.29274-.090415.548542-.148415.568441-.128675.054401.053658.094293 1.097046.049094 1.275375-.024157.095328-.082211.154512-.151413.154512-.06178 0-.199197.029983-.305406.066663-.158912.054878-.19327.099158-.19327.249597v.182935l.720886-.021704c.54949-.01655.719167-.003651.714169.05426-.003308.041764-.009975.294433-.014976.561723l-.009313.485758h-1.962155v.767396l.56689-.083716c.836171-.122863 2.818467-.124991 3.183785-.003617.263832.08767.304734.086521.521933-.009819.22815-.101193.633036-.492106.633036-.611332 0-.03567-.468243-.058911-1.195792-.058911h-1.195792v-.540019c0-.37639.023072-.548977.07648-.568957.042159-.01577.324215-.033908.626835-.040308.30263-.00639.560708-.021884.573609-.034623.012912-.012737-.002117-.100334-.033592-.194304l-.057874-.170532-.945164-.03049c-.78591-.025243-.945679-.045699-.945679-.121439 0-.11656.357172-.171767 1.1498-.177766.328832-.002461.597898-.019365.597898-.037724 0-.018365-.042035-.114327-.093536-.212907l-.093533-.179317h-.826307c-.660929 0-.826307-.016778-.826307-.083716 0-.160222.156964-.20584.735873-.21394.719341-.010034 1.10381-.060155 1.10381-.144695 0-.03544.062076-.00882.137975.059428.126391.11368.166325.118417.476975.054777.375128-.076845.662971-.252077.85731-.522449l.12764-.178283-.14056-.027389c-.077448-.015012-.346328-.059932-.597378-.100252-.825789-.132637-1.73971-.49986-1.812809-.72812-.022013-.068792-.021987-.230454 0-.359669.034991-.205402.023284-.240585-.0925-.276986-.030507-.00959-.072642-.014668-.122474-.01602zm-.152445 1.178223c.05498.004402.127445.040332.26665.111104.58356.296693.582118.310647-.031523.388607-.30259.03845-.699939.069562-.88315.069246l-.332795-.000529.336928-.190686c.185502-.10478.402008-.240354.481108-.301273.070125-.05401.107802-.080884.162782-.076482zm.749824 2.817915c-.04019-.000476-.167431.255848-.167431.337447 0 .014436.08986.064648.199472.112138.262279.113583.503994.117679.594794.009303.06041-.072105.01598-.119918-.253214-.272852-.17948-.101969-.34752-.18573-.373621-.186035zm-1.482595.078032c-.065554.003498-.17198.036877-.376206.103353-.23318.075897-.43225.144762-.44235.152962-.01.008231.00053.08878.023258.1788.04685.184916.087199.182766.672309-.034106.36045-.133601.377449-.155511.252698-.324528-.03947-.05347-.064156-.07998-.129707-.076481z"/>
    </g>
</svg>
