<svg xmlns="http://www.w3.org/2000/svg" width="191.999996" height="191.999996" viewBox="0 0 50.799999 50.799999">
    <g stroke-width=".260004" transform="matrix(3.90756 0 0 3.9077 -578.181846 -50.440957)">
        <ellipse class="color-main color-blue" fill="#0089d1" fill-rule="evenodd" cx="154.46509" cy="19.408119" rx="6.500217" ry="6.5"/>
        <path class="color-white" fill="#fff" d="M154.507362 15.398026c-.654794-.000237-1.310405.15503-1.912543.465605-.656432.3386-1.353069 1.052115-1.680517 1.720825-.24647.503308-.437184 1.103467-.437184 1.375627 0 .164517-.041178.15164 1.342554.40876.083899.01559.454472.020246.823722.010335.58095-.01559.83612-.061179 1.892392-.33848v.000528c1.2128-.318393 1.226185-.320623 2.135786-.32091.63202-.0002 1.05396.03088 1.362191.100252.24556.05527.457539.100252.471289.100252.037798 0-.03242-.357283-.137459-.698665-.28867-.938046-1.096267-1.912747-1.952337-2.356962-.59939-.311026-1.253098-.466917-1.907894-.467155zm-2.51044 1.518254h2.31872l-.091466.218075c-.10142.241592-.098102.241283.305408-.047543l.237713-.170532h1.2423c.68311 0 1.241785.01523 1.241785.03359 0 .018359-.041817.113816-.093017.21239-.0816.157064-.126037.179317-.360185.179317h-.267168l-.209807.501261c-.204488.488636-.21525.501482-.433049.519865-.122859.01037-.223242-.007374-.223242-.039274 0-.03193.082235-.25073.182936-.486275.10071-.235545.182935-.44345.182935-.461987 0-.01854-.26794-.03359-.59583-.03359-.53814 0-.618435.01497-.824755.154512-.22633.153075-.22798.155899-.12144.299724.0777.104849.1785.150555.36225.16433l.254765.019122-.083714.197404c-.0767.180865-.106619.197404-.356568.197404-.2428 0-.29618-.026648-.482142-.24288-.11493-.133644-.226849-.242878-.24908-.242878-.022198 0-.084793.109234-.138493.242879-.0876.217914-.119187.24288-.308506.242879-.240933 0-.2404-.012308.019129-.599446.079401-.179566.144177-.350568.144177-.379822 0-.02925-.161047-.053227-.358117-.053227h-.358634l-.230995.516248c-.22342.499067-.237974.516247-.435115.516247-.11217 0-.20412-.01057-.20412-.02377 0-.01321.08275-.216623.18345-.45217.100699-.235545.182934-.455879.182934-.489375 0-.0335-.13507-.068975-.300239-.079065l-.300241-.018603.083717-.197403zm4.759917 2.357479c-.168291-.001667-.323228.004971-.454237.020672-.207579.02487-.731343.179723-1.163754.344165-.432408.164443-.93161.330089-1.109493.367936-.44605.0949-1.14812.085851-2.168858-.027389-.74172-.08228-.916787-.084292-1.230416-.013951-.24797.05562-.37181.114276-.38499.182418-.023495.12128.09874.59583.15348.59583.021405 0 .240855-.069673.487825-.154514.53191-.182731 1.04184-.201765 2.31717-.0863.99685.090251 1.452841.035151 1.97249-.239778.9991-.528607 1.089266-.563013 1.571996-.59583.546351-.037139 1.049237.06866 1.647447.346233l.38137.176734.035658-.142628c.088-.34903.027107-.418685-.492993-.566373-.435827-.123752-1.057828-.202251-1.562695-.207223zm.871265 1.173055c-.318455.003479-.523518.044301-.999424.167948-1.02284.265685-1.333042.30532-2.733683.345199-.995209.02834-1.338437.06021-1.675865.157613-.42205.121824-1.376146.564006-1.376146.637687 0 .02124.09728.156505.216009.300757l.216008.262516.282152-.214457c.15523-.117937.410255-.27886.566375-.357601.46101-.23252.950116-.292073 1.795756-.218591.822428.07147 1.090702.04443 2.045353-.207223.53698-.14155.717098-.1631 1.159619-.136942.29451.01741.677434.085362.874366.155029.19268.06817.36504.100636.38292.07183.087101-.140201.335225-.868975.305925-.898136-.018389-.01832-.328287-.044755-.688845-.058394-.14558-.005506-.26437-.008396-.37052-.007234z"/>
    </g>
</svg>
