<?xml version="1.0" encoding="UTF-8" standalone="no"?>
<svg
   xmlns="http://www.w3.org/2000/svg"
   id="svg2052"
   version="1.1"
   viewBox="0 0 50.799999 50.799999"
   height="50.799999mm"
   width="50.799999mm">
  <g
     transform="translate(-75.897616,-64.469047)"
     id="layer1">
    <g
       transform="matrix(3.9075616,0,0,3.9076922,-502.28423,14.02809)"
       id="g2416-0-9-2"
       style="display:inline;stroke-width:0.26000434">
      <g
         style="stroke-width:0.26000434"
         id="g6534-0-8-1">
        <ellipse
           ry="6.5"
           rx="6.5002174"
           cy="19.408119"
           cx="154.46509"
           id="path4054-7-5-3"
           style="fill:#0089d1;fill-opacity:1;fill-rule:evenodd;stroke-width:0.06879281" />
        <path
           id="path4062-77-8-9"
           transform="scale(0.26458333)"
           d="m 583.96484,58.197266 c -2.47481,-8.98e-4 -4.95271,0.585935 -7.22851,1.759765 -2.481,1.279745 -5.11396,3.976499 -6.35156,6.503907 -0.93154,1.902265 -1.65235,4.170582 -1.65235,5.199218 0,0.621797 -0.15563,0.57313 5.07422,1.544922 0.3171,0.05892 1.71769,0.07652 3.11328,0.03906 2.19572,-0.05892 3.16014,-0.231227 7.15235,-1.279297 v 0.002 c 4.58381,-1.203375 4.6344,-1.211806 8.07226,-1.212891 2.38874,-7.56e-4 3.98347,0.116714 5.14844,0.378906 0.9281,0.208895 1.72928,0.378907 1.78125,0.378907 0.14286,0 -0.12253,-1.350363 -0.51953,-2.640625 -1.09104,-3.545371 -4.14337,-7.229281 -7.37891,-8.908203 -2.26541,-1.17553 -4.73612,-1.764727 -7.21094,-1.765625 z m -9.48828,5.738281 h 4.38086 4.38281 l -0.3457,0.824219 c -0.38332,0.913107 -0.37078,0.911938 1.1543,-0.179688 l 0.89844,-0.644531 h 4.69531 c 2.58183,0 4.69336,0.05756 4.69336,0.126953 0,0.06939 -0.15805,0.430171 -0.35156,0.802734 -0.30841,0.593628 -0.47636,0.677735 -1.36133,0.677735 h -1.00977 l -0.79297,1.894531 c -0.77287,1.846813 -0.81354,1.895365 -1.63672,1.964844 -0.46435,0.03919 -0.84375,-0.02787 -0.84375,-0.148438 0,-0.12068 0.31081,-0.947638 0.69141,-1.83789 0.38064,-0.890249 0.69141,-1.676033 0.69141,-1.746094 0,-0.07007 -1.01269,-0.126953 -2.25196,-0.126953 -2.03391,0 -2.33739,0.05658 -3.11718,0.583984 -0.85542,0.578551 -0.86166,0.589222 -0.45899,1.132813 0.29367,0.396279 0.67465,0.569027 1.36914,0.621093 l 0.96289,0.07227 -0.3164,0.746094 c -0.28989,0.683584 -0.40297,0.746094 -1.34766,0.746093 -0.91767,0 -1.11942,-0.100717 -1.82227,-0.917968 -0.43438,-0.505115 -0.85738,-0.917969 -0.9414,-0.917969 -0.0839,0 -0.32048,0.412854 -0.52344,0.917969 -0.33109,0.823612 -0.45047,0.917969 -1.16601,0.917968 -0.91061,0 -0.9086,-0.04652 0.0723,-2.265624 0.3001,-0.678675 0.54492,-1.324981 0.54492,-1.435547 0,-0.110552 -0.60868,-0.201172 -1.35351,-0.201172 h -1.35547 l -0.87305,1.951172 c -0.84442,1.886237 -0.89943,1.951172 -1.64453,1.951171 -0.42395,0 -0.77148,-0.03995 -0.77148,-0.08984 0,-0.04993 0.31276,-0.818732 0.69336,-1.708985 0.38059,-0.890252 0.6914,-1.72301 0.6914,-1.849609 0,-0.126614 -0.5105,-0.260693 -1.13476,-0.298828 l -1.13477,-0.07031 0.31641,-0.746093 z m 17.99024,8.910156 c -0.63606,-0.0063 -1.22165,0.01879 -1.7168,0.07813 -0.78455,0.094 -2.76413,0.679268 -4.39844,1.300781 -1.6343,0.621517 -3.52105,1.247582 -4.19336,1.390625 -1.68586,0.358678 -4.33935,0.324478 -8.19726,-0.103515 -2.80335,-0.31098 -3.46502,-0.318587 -4.65039,-0.05273 -0.93721,0.210218 -1.40527,0.431909 -1.45508,0.689454 -0.0888,0.45838 0.37319,2.251953 0.58008,2.251953 0.0809,0 0.91032,-0.263326 1.84375,-0.583985 2.01037,-0.69064 3.93766,-0.762579 8.75781,-0.326172 3.76762,0.341103 5.49105,0.132852 7.45508,-0.90625 3.77612,-1.997884 4.11691,-2.127924 5.9414,-2.251953 2.06495,-0.140371 3.96562,0.259499 6.22657,1.308594 l 1.4414,0.667969 0.13477,-0.539063 c 0.3326,-1.319168 0.10245,-1.582434 -1.86328,-2.140625 -1.64722,-0.467722 -3.99809,-0.764414 -5.90625,-0.783203 z m 3.29297,4.433594 c -1.20361,0.01315 -1.97865,0.167438 -3.77735,0.634765 -3.86585,1.004164 -5.03827,1.153964 -10.33203,1.304688 -3.76142,0.107112 -5.05866,0.22757 -6.33398,0.595703 -1.59515,0.460437 -5.20118,2.131677 -5.20118,2.410156 0,0.08028 0.36767,0.591515 0.81641,1.136719 l 0.81641,0.992188 1.0664,-0.810547 c 0.5867,-0.445746 1.55057,-1.053959 2.14063,-1.351563 1.7424,-0.878812 3.59099,-1.103899 6.78711,-0.826172 3.10839,0.270123 4.12234,0.167923 7.73047,-0.783203 2.02953,-0.534992 2.71029,-0.616443 4.38281,-0.517578 1.11311,0.0658 2.56038,0.322629 3.30469,0.585938 0.72824,0.25765 1.37968,0.380357 1.44726,0.271484 0.3292,-0.529894 1.26699,-3.284316 1.15625,-3.394531 -0.0695,-0.06924 -1.24077,-0.169151 -2.60351,-0.220703 -0.55022,-0.02081 -0.99919,-0.03173 -1.40039,-0.02734 z"
           style="fill:#ffffff;fill-opacity:1;stroke-width:0.98269361" />
      </g>
    </g>
  </g>
</svg>
