<svg xmlns="http://www.w3.org/2000/svg" width="192" height="188.41556" viewBox="0 0 191.99999 188.41556">
    <path fill="#9d1619" d="M146.568847 184.898035c-103.359523 6.092537-51.679758 3.046269 0 0zm-93.548305-10.660877c-17.962645-59.474679-18.768529-62.274521-38.81892-135.270284 19.177586-.040715 20.792747.054768 33.548227-.20283-7.136147-13.154389-8.973536-15.596224-15.841243-29.574019 60.070863-.160103 70.45441-.147269 127.437512-.23081-7.602677 13.6632-8.472177 15.694512-14.9604 28.665391 14.672184.182212 17.39991-.214558 34.422573-.102836-12.98788 45.874257-25.430782 90.526815-38.543133 137.619296-41.680308-.515763-44.40072-.434832-87.244616-.903908zm9.80317-83.79171c-.398765-.095967-1.32622.312355-1.820331.43637-1.117972.280592-2.397193-.003917-2.692622-.773864-.866592-2.258306-.483997-27.440277.430804-28.355078.596921-.596921 4.215438-.867767 11.593451-.867767 14.18822 0 17.187483 1.24392 17.187483 7.128368 0 2.650923-2.346947 5.550465-8.035998 9.928089l-4.257365 3.275964c.046687 3.475456-.385685 7.59565.237013 10.81204 1.814696 1.121544 17.37542-11.863802 20.404614-17.03311 6.475002-11.049568-.829368-21.06282-16.39312-22.472645-3.032629-.274707-11.90012-.260013-19.705538.032647-15.643647.586565-15.886852.681712-12.383823 4.844824l1.807848 2.148505v33.111395c0 32.016417-.047833 33.172189-1.446279 34.950034-2.821628 3.587116-2.140112 4.275624 5.166609 5.219631 4.77103.616396 7.126755-.110324 7.126755-2.198544 0-.92773-.325412-1.887892-.723139-2.133702-.434102-.268292-.723139-5.14491-.723139-12.200751V104.54403l2.232525-1.440657c.682292-.440285 1.548066-1.34463 1.978468-1.99173m1.12506 47.652095c-.291046.78598-1.324517 2.48739-2.296601 3.780935-1.453718 1.934473-1.606511 2.545811-.86083 3.444312.78209.942355 4.294794 1.066268 25.577781.902221l24.671179-.19017-.064465-.967982-.064465-.967967c-.22766-3.41852-4.82056-13.941488-6.198538-14.201731-.934347-.176461-1.265494.239034-1.265494 1.58784 0 2.723312-1.423058 5.334469-3.161491 5.800999-.846399.227141-6.999785.417432-13.674183.422856-9.074138.007532-12.210559-.218147-12.43372-.894041-.164137-.497163-.560691-19.452445-.881223-42.122855l-.582793-41.218926h-8.677668m65.746509 92.48443c1.714323-.657845 1.383711-2.958888-.84478-5.879722l-1.988631-2.606453-.22-40.191271c-.121006-22.105212-1.03476-43.154339-.981983-44.560393-1.94489-.090271-.50354.030267-4.26753.030267h-3.931295l.23429 42.514791c.231093 41.9343.213818 42.549495-1.265494 45.056741-1.514008 2.56606-1.903576 4.707003-1.017687 5.592893.602677.602677 12.729525.63933 14.28311.043087zm-33.138303-25.146193c.45777-1.192926-19.78884-32.912015-20.822697-32.638676-.419689.110957-.204826 3.610291-.190066 8.155228l.025234 7.76495 3.409687 5.515122c3.338263 5.399578 4.134829 8.05258 2.686556 8.94766-.397726.24581-.723139 1.078547-.723139 1.850528 0 1.300522.559276 1.403598 7.615652 1.403598 5.809815 0 7.706508-.236748 7.998785-.99841zm18.01968.26208c.250291-.40498-.21862-1.826388-1.04203-3.158693-1.35091-2.185817-1.497108-3.553426-1.497108-14.004853 0-11.55668.00437-11.585128 1.807848-12.767034 1.620366-1.061705 1.807848-1.67027 1.807848-5.86828 0-4.504305-.068699-4.683736-1.794072-4.683736-2.478213 0-2.628257-1.044698-2.388753-16.632199l.20556-13.378072 8.985776.009943c9.668506.010696 13.075128.553753 15.3761 4.106444 3.10523 4.794471 1.955974 8.822142-4.206986 14.743762l-4.106358 3.945555.289004 14.047189c.251714 12.234746.911384 13.800845 2.964752 20.836344l2.274352 7.792642-1.541148 2.084513c-2.417872 3.270345-.898485 3.983889 7.251321 3.405399 3.64844-.258977 6.901722-.739048 7.2295-1.066826.327778-.327776-.373396-1.815722-1.558139-3.306538-2.299823-2.893952-2.439675-3.311811-7.747927-23.15027L133.49103 91.73815l2.867956-2.229234c7.916426-6.15337 10.75396-10.569063 11.180672-19.022305.235322-4.661905.038116-5.82975-1.403914-8.3161-2.04362-3.523476-7.500035-7.381197-12.142812-8.510228-1.894017-.460586-10.13541-.791747-18.487666-.996093-12.86411-.314731-15.548956-.416538-16.774113.513563-1.418553 1.076927-1.397763 1.148218 1.084708 3.719157l2.530987 2.621183.201619 34.059904c.200728 33.910911.194863 34.067096-1.341257 35.702222-.848581.903273-1.326866 1.991814-1.062863 2.41898.621133 1.005018 13.885008 1.041912 14.504015.040345zM72.903365 41.008005c.203021-8.57573.228925-8.692915 2.421901-10.955492 2.505352-2.584865 2.382064-4.878715-.30087-5.597973-2.672396-.716432-13.535159-.500272-15.028724.29906-1.911727 1.023126-1.78687 1.522468 1.132249 4.528188l2.530987 2.606074v8.592988c0 4.726144.231139 8.824128.513642 9.106632.282504.282503 2.316332.418092 4.51962.301308l4.005976-.212335zm52.93697 9.939276c-.11421-1.428968.008587-3.178089.008587-10.0007 0-8.095021.031306-8.24923 2.169417-10.684399 4.295916-4.892775 2.374913-6.400537-7.775103-6.102549-6.706118.19688-7.060585.286854-7.282214 1.8484-.13815.973466.523973 2.54101 1.627063 3.851964 1.759347 2.090866 2.001944 2.868576 2.001944 10.648073 0 7.070146.148846 13.005642.130165 10.239001 0 0-.017913.26915 4.507267.235011 4.612922-.0348 3.243024.016452 4.612922-.0348z"/>
    <path fill="#363636" d="M44.715826 184.21967C22.699692 113.707267 22.62665 113.221278 0 29.499442c16.299635-.071917 17.226075-.019993 30.537296-.233509C25.459802 18.705232 21.315928 11.002074 16.066003 0h79.937484c76.420375 0 75.699978.157105 80.020522.085769-5.323584 10.184275-8.814613 17.151212-14.499224 27.636866 11.00937.535017 19.035521.354996 30.47522.508936-11.297994 40.827307-28.065796 107.407324-44.295835 156.0988-37.947155.136643-49.32939.155626-102.988344-.11073zm99.952844-2.558074c14.146845-50.47045 28.678188-100.549084 42.66772-150.217718-12.933719-.149916-14.548036-.149162-32.307382.026786 7.017206-13.5207 11.560749-21.537678 15.211019-27.939977-15.52581-.070578-118.083945-.435228-149.354744-.373036 6.39329 13.020072 7.128556 14.425078 15.014008 29.215126-14.72086.28162-18.441038.228161-31.295677.315908 14.198123 49.938377 27.423499 100.31991 42.85596 148.63843 50.40089.282204 54.765895.347091 97.209096.334481z"/>
</svg>
