<svg xmlns="http://www.w3.org/2000/svg" width="192" height="188.416" viewBox="0 0 192 188.416">
    <path fill="#9d1619" d="M146.569 184.898c-103.36 6.093-51.68 3.046 0 0zm-93.548-10.66C35.058 114.761 34.252 111.962 14.2 38.966c19.178-.04 20.793.055 33.549-.203-7.135-13.153-8.973-15.595-15.84-29.573 60.07-.16 70.454-.147 127.437-.23-7.603 13.662-8.472 15.694-14.96 28.665 14.672.182 17.4-.215 34.422-.103-12.988 45.874-25.43 90.527-38.543 137.62-41.68-.517-44.4-.436-87.244-.905zm9.803-83.793c-.4-.096-1.327.313-1.82.437-1.119.28-2.398-.004-2.693-.774-.867-2.258-.484-27.44.43-28.355.597-.597 4.216-.868 11.594-.868 14.188 0 17.187 1.244 17.187 7.128 0 2.651-2.346 5.55-8.036 9.929l-4.257 3.276c.047 3.475-.386 7.595.237 10.812 1.815 1.121 17.376-11.864 20.405-17.034 6.475-11.05-.83-21.062-16.393-22.472-3.033-.275-11.9-.26-19.706.032-15.644.587-15.887.682-12.384 4.845l1.808 2.149v33.11c0 32.017-.048 33.172-1.446 34.95-2.822 3.587-2.14 4.276 5.166 5.22 4.771.616 7.127-.11 7.127-2.199 0-.927-.325-1.888-.723-2.133-.434-.269-.723-5.145-.723-12.201v-11.754l2.232-1.44c.683-.44 1.549-1.345 1.979-1.992m1.125 47.652c-.291.786-1.325 2.487-2.297 3.78-1.453 1.935-1.606 2.546-.86 3.445.782.942 4.294 1.066 25.577.902l24.672-.19-.065-.968-.064-.968c-.228-3.418-4.821-13.941-6.199-14.202-.934-.176-1.265.24-1.265 1.588 0 2.724-1.424 5.335-3.162 5.801-.846.227-7 .418-13.674.423-9.074.008-12.21-.218-12.434-.894-.164-.497-.56-19.452-.881-42.123l-.583-41.219H64.02m65.747 92.485c1.714-.658 1.384-2.96-.845-5.88l-1.988-2.607-.22-40.19c-.121-22.106-1.035-43.155-.982-44.561-1.945-.09-.504.03-4.268.03h-3.931l.234 42.515c.231 41.934.214 42.55-1.265 45.057-1.514 2.566-1.904 4.707-1.018 5.593.603.602 12.73.639 14.283.043zm-33.138-25.147c.457-1.192-19.79-32.912-20.823-32.638-.42.11-.205 3.61-.19 8.155l.025 7.765 3.41 5.515c3.338 5.4 4.135 8.053 2.686 8.948-.397.246-.723 1.078-.723 1.85 0 1.3.56 1.404 7.616 1.404 5.81 0 7.706-.237 7.999-.999zm18.02.263c.25-.405-.22-1.827-1.043-3.16-1.35-2.185-1.497-3.553-1.497-14.004 0-11.557.005-11.585 1.808-12.767 1.62-1.062 1.808-1.67 1.808-5.868 0-4.505-.069-4.684-1.794-4.684-2.478 0-2.628-1.045-2.389-16.632l.206-13.378 8.985.01c9.669.01 13.076.553 15.377 4.106 3.105 4.795 1.956 8.822-4.207 14.744l-4.107 3.945.29 14.048c.25 12.234.91 13.8 2.964 20.836l2.274 7.793-1.54 2.084c-2.419 3.27-.9 3.984 7.25 3.405 3.649-.259 6.902-.739 7.23-1.066.328-.328-.373-1.816-1.558-3.307-2.3-2.894-2.44-3.312-7.748-23.15l-3.467-12.957 2.868-2.23c7.916-6.152 10.754-10.568 11.18-19.021.236-4.662.039-5.83-1.403-8.316-2.044-3.524-7.5-7.382-12.143-8.51-1.894-.461-10.135-.792-18.488-.997-12.864-.315-15.549-.416-16.774.514-1.418 1.077-1.398 1.148 1.085 3.719l2.53 2.621.202 34.06c.201 33.91.195 34.067-1.34 35.702-.85.903-1.328 1.992-1.064 2.42.621 1.004 13.885 1.041 14.504.04zM72.902 41.008c.203-8.576.23-8.693 2.422-10.955 2.506-2.585 2.382-4.88-.3-5.598-2.673-.717-13.536-.5-15.03.299-1.911 1.023-1.786 1.522 1.133 4.528l2.53 2.606v8.593c0 4.726.232 8.824.515 9.106.282.283 2.316.419 4.52.302l4.005-.213zm52.937 9.94c-.114-1.43.009-3.179.009-10.001 0-8.095.031-8.25 2.17-10.685 4.295-4.893 2.374-6.4-7.776-6.102-6.706.197-7.06.286-7.282 1.848-.138.973.524 2.541 1.627 3.852 1.76 2.09 2.002 2.869 2.002 10.648 0 7.07.149 13.006.13 10.24 0 0-.018.268 4.507.234 4.613-.035 3.243.017 4.613-.035z"/>
    <path fill="#363636" d="M44.716 184.22C22.7 113.707 22.626 113.22 0 29.5c16.3-.072 17.226-.02 30.537-.234C25.46 18.706 21.316 11.002 16.066 0h79.937c76.42 0 75.7.157 80.021.086-5.324 10.184-8.815 17.151-14.5 27.637 11.01.535 19.036.355 30.476.509-11.298 40.827-28.066 107.407-44.296 156.098-37.947.137-49.33.156-102.988-.11zm99.953-2.558c14.147-50.47 28.678-100.55 42.667-150.218-12.933-.15-14.548-.15-32.307.027 7.017-13.521 11.56-21.538 15.211-27.94-15.526-.07-118.084-.436-149.355-.373 6.394 13.02 7.129 14.425 15.014 29.215-14.72.281-18.44.228-31.295.316 14.198 49.938 27.423 100.32 42.856 148.638 50.4.282 54.765.347 97.209.335z"/>
</svg>
