<?xml version="1.0" encoding="UTF-8" standalone="no"?>
<svg
   xmlns="http://www.w3.org/2000/svg"
   viewBox="0 0 191.99999 188.41556"
   height="188.41556"
   width="192"
   id="svg64"
   version="1.1">
  <g
     transform="matrix(1.5065397,0,0,1.5065397,-1.2611532,-1.5259328)"
     id="g138">
    <path
       id="path3781"
       d="m 98.125526,123.74315 c -68.607235,4.04406 -34.303615,2.02203 0,0 z M 36.03071,116.66675 C 24.107596,77.189079 23.572672,75.33062 10.263769,26.878022 22.993328,26.850996 24.065428,26.914375 32.532168,26.743389 27.795388,18.011864 26.575779,16.39104 22.017182,7.1129609 61.890584,7.0066885 68.7829,7.0152078 106.60673,6.9597551 c -5.04645,9.0692599 -5.6236,10.4175899 -9.930306,19.0273059 9.738996,0.120947 11.549586,-0.142418 22.848766,-0.06826 -8.621,30.450082 -16.88026,60.089233 -25.583881,91.347939 -27.666253,-0.34235 -29.471988,-0.28863 -57.910599,-0.59999 z m 6.507077,-55.618654 c -0.264689,-0.0637 -0.880308,0.207333 -1.208286,0.289651 -0.742079,0.186249 -1.591191,-0.0026 -1.787289,-0.51367 -0.57522,-1.499002 -0.321264,-18.214108 0.285956,-18.821328 0.39622,-0.39622 2.798093,-0.576 7.695417,-0.576 9.417754,0 11.408583,0.82568 11.408583,4.731616 0,1.759611 -1.55784,3.684248 -5.334077,6.589995 l -2.825923,2.174496 c 0.03099,2.306913 -0.256007,5.041785 0.157323,7.176737 1.204546,0.744451 11.533331,-7.874868 13.544027,-11.306114 4.29793,-7.334402 -0.550512,-13.980926 -10.881307,-14.916729 -2.012976,-0.182343 -7.898975,-0.17259 -13.079999,0.02167 -10.383826,0.389346 -10.545259,0.452502 -8.220044,3.215862 l 1.2,1.426119 v 21.978442 c 0,21.251625 -0.03175,22.018795 -0.96,23.19888 -1.87292,2.38103 -1.420548,2.838043 3.429454,3.464649 3.16688,0.409147 4.730546,-0.07323 4.730546,-1.459334 0,-0.615802 -0.216,-1.253131 -0.48,-1.416293 -0.288145,-0.178085 -0.48,-3.415051 -0.48,-8.098526 v -7.801868 l 1.481889,-0.956269 c 0.452887,-0.292249 1.027564,-0.892529 1.313253,-1.322056 m 0.746785,31.630162 c -0.193189,0.521712 -0.879179,1.651062 -1.524422,2.509682 -0.964938,1.28405 -1.066358,1.68984 -0.571395,2.28624 0.51913,0.62551 2.850767,0.70776 16.977834,0.59887 l 16.376056,-0.12623 -0.04279,-0.64252 -0.04279,-0.64251 c -0.151114,-2.26912 -3.199757,-9.25398 -4.114421,-9.426722 -0.620194,-0.11713 -0.84,0.158664 -0.84,1.053965 0,1.80766 -0.944587,3.540875 -2.098512,3.850545 -0.561816,0.15077 -4.646266,0.27708 -9.07655,0.28068 -6.023165,0.005 -8.105036,-0.1448 -8.253164,-0.59344 -0.10895,-0.330003 -0.372172,-12.912003 -0.584932,-27.960003 l -0.386842,-27.36 h -2.88 -2.88 m 43.640741,61.388645 c 1.137921,-0.43666 0.91847,-1.96403 -0.560741,-3.9028 l -1.32,-1.730092 -0.14603,-26.677871 C 84.865817,57.99179 84.259292,44.019953 84.294324,43.086653 c -1.290965,-0.05992 -0.334237,0.02009 -2.832671,0.02009 h -2.609486 l 0.155515,28.22016 c 0.153394,27.834845 0.141927,28.243195 -0.84,29.907437 -1.004957,1.70328 -1.263542,3.12438 -0.675513,3.71241 0.400041,0.40004 8.449512,0.42437 9.480739,0.0286 z M 64.976606,88.284032 C 65.280461,87.4922 51.841313,66.437933 51.155067,66.619368 c -0.278578,0.07365 -0.135958,2.396413 -0.126161,5.413218 l 0.01675,5.154163 2.263257,3.660787 c 2.215848,3.584093 2.744587,5.345083 1.783263,5.939213 -0.264,0.163162 -0.48,0.71591 -0.48,1.22833 0,0.863251 0.371232,0.93167 5.055062,0.93167 3.856397,0 5.11537,-0.157147 5.309376,-0.662717 z m 11.960972,0.173962 c 0.166137,-0.268815 -0.145114,-1.212307 -0.691671,-2.096655 -0.896697,-1.450886 -0.993739,-2.358667 -0.993739,-9.29604 0,-7.671009 0.0029,-7.689892 1.2,-8.474409 1.075555,-0.704731 1.2,-1.10868 1.2,-3.895205 0,-2.989834 -0.0456,-3.108936 -1.190856,-3.108936 -1.64497,0 -1.744565,-0.693442 -1.585589,-11.04 l 0.136445,-8.88 5.964513,0.0066 c 6.417691,0.0071 8.678914,0.367566 10.206236,2.725746 2.061168,3.182439 1.298323,5.855897 -2.792482,9.786507 l -2.725689,2.618952 0.191833,9.324141 c 0.167081,8.121091 0.604952,9.160625 1.967922,13.830598 l 1.509653,5.172543 -1.022972,1.383643 c -1.604918,2.170766 -0.59639,2.644397 4.813229,2.260411 2.421735,-0.171902 4.581175,-0.49056 4.798745,-0.70813 0.21757,-0.217569 -0.24785,-1.205227 -1.03425,-2.19479 -1.52656,-1.920926 -1.61939,-2.19829 -5.142863,-15.366518 l -2.301216,-8.600295 1.903671,-1.479705 c 5.254708,-4.08444 7.138186,-7.015456 7.421426,-12.626488 0.1562,-3.094445 0.0253,-3.869629 -0.93188,-5.52 -1.3565,-2.338788 -4.978319,-4.899438 -8.060068,-5.648858 -1.257197,-0.305724 -6.727609,-0.52554 -12.271609,-0.661179 -8.538845,-0.20891 -10.320973,-0.276487 -11.134199,0.340889 -0.941597,0.714835 -0.927797,0.762156 0.72,2.468675 l 1.68,1.73987 0.133829,22.608036 c 0.133238,22.509139 0.129345,22.61281 -0.89029,23.698162 -0.563265,0.599568 -0.880737,1.322112 -0.705499,1.605653 0.412291,0.667104 9.21649,0.691593 9.62737,0.02678 z M 49.228387,28.232868 c 0.13476,-5.692336 0.151954,-5.77012 1.607592,-7.271957 1.662984,-1.715763 1.581149,-3.238358 -0.199709,-3.715782 -1.773864,-0.475548 -8.98427,-0.332067 -9.975658,0.198508 -1.268952,0.679123 -1.186075,1.010573 0.751556,3.005688 l 1.68,1.729841 v 5.703791 c 0,3.137086 0.153424,5.857216 0.340942,6.044734 0.187518,0.187518 1.537518,0.277518 3,0.2 l 2.659058,-0.140942 z m 35.138118,6.597421 c -0.07581,-0.94851 0.0057,-2.109529 0.0057,-6.638193 0,-5.373254 0.02078,-5.475614 1.44,-7.092012 2.851512,-3.247691 1.576402,-4.248502 -5.160902,-4.050706 -4.451338,0.130684 -4.686624,0.190406 -4.833735,1.226918 -0.0917,0.64616 0.347799,1.686653 1.08,2.556828 1.167807,1.38786 1.328836,1.904083 1.328836,7.067901 0,4.69297 0.0988,8.632791 0.0864,6.79637 0,0 -0.01189,0.178654 2.991801,0.155994 3.061932,-0.0231 2.152631,0.01092 3.061932,-0.0231 z"
       style="fill:#9d1619;stroke-width:0.47999999" />
    <path
       id="path3779"
       d="M 30.518266,123.29287 C 15.904556,76.488657 15.856072,76.166071 0.83711911,20.593798 11.656373,20.546061 12.271318,20.580527 21.106944,20.438801 17.736642,13.428896 14.986051,8.3157493 11.501294,1.0128726 h 53.060324 c 50.725762,0 50.247582,0.1042821 53.115442,0.056931 -3.53365,6.7600446 -5.8509,11.3845074 -9.62419,18.3445984 7.30772,0.35513 12.63526,0.235637 20.22862,0.337818 -7.4993,27.100054 -18.62931,71.294055 -29.402368,103.61413 -25.188287,0.0907 -32.743505,0.1033 -68.360856,-0.0735 z m 66.345974,-1.69798 c 9.39029,-33.50091 19.0358,-66.741742 28.32167,-99.710428 -8.58505,-0.09951 -9.65659,-0.09901 -21.44476,0.01778 C 108.39898,12.92757 111.41486,7.606118 113.83781,3.3564467 103.5322,3.3095987 35.456905,3.0675538 14.700201,3.1088356 18.943892,11.751204 19.431942,12.683809 24.66609,22.50104 14.894784,22.687972 12.425432,22.652487 3.8928725,22.710731 13.3172,55.858465 22.095844,89.300353 32.339491,121.37287 c 33.454737,0.18732 36.352109,0.23039 64.524749,0.22202 z"
       style="fill:#363636;stroke-width:0.47999999" />
  </g>
</svg>
