<svg xmlns="http://www.w3.org/2000/svg" width="200" height="200" viewBox="0 0 200 200">
    <path class="color-yellow color-main" fill="#fcea18" d="M100 0A100 100 0 000 100a100 100 0 00100 100 100 100 0 00100-100A100 100 0 00100 0zM30.738281 34.746094c1.186139-.035905 2.298561.658948 3.22461 2.072265.916326 1.398498.961203 2.076778.333984 5.136719-.267914 1.307042-.400971 2.236833-.402344 3.078125l2.738281.423828c4.357594.675855 12.51321.408189 19.496094-.640625 8.3243-1.250281 13.176231-1.174061 24.115235.38086 8.167804 1.160997 9.866524 1.22558 14.769531.558593 7.201368-.97967 12.965808-.445492 23.785158 2.205079 12.06068 2.954643 15.74691 3.386217 29.08789 3.40039 12.11001.01415 18.51221.764737 27.38086 3.220703 2.57384.712762 4.91549 1.438726 5.20312 1.611328.28764.172626-.67999.913278-2.15039 1.646485-3.87013 1.929768-10.01287 7.885867-15.63867 15.166015-5.32145 6.886295-9.75617 11.206406-14.14648 13.779297-2.49187 1.46033-2.67701 1.716377-1.66602 2.302735 10.10922 5.863185 15.04376 10.776523 25.42969 25.332029l7.32617 10.26758-6.70312.39844c-3.68617.21837-8.52716.7064-10.75782 1.08594-5.67788.96616-10.96197.86701-15.3125-.28711-4.13197-1.09609-8.41038-.86231-12.82617.69921-5.27886 1.86675-11.37005 1.86715-18.93359.00391-7.51081-1.85064-8.29768-1.81746-16.259769.68555-6.696572 2.10515-14.568475 2.55747-21.564453 1.23633-8.66309-1.63576-14.102152-1.86919-18.992187-.81446-2.402229.51816-4.83064 1.12502-5.396485 1.34961-.375568.14901-.785525.12355-1.097656-.01953.304025 1.98622.579207 3.83366.789062 5.38281.960651 7.09143 1.546254 10.09824 6.238282 32.00391 2.622505 12.24371 2.600141 12.48348-1.300782 13.26367-1.475084.29502-2.30649.04617-3.597656-1.07812-1.640904-1.42872-1.852539-2.52661-9.464844-48.88282-4.28291-26.0814-8.750207-53.034896-9.927734-59.898434-1.177537-6.863515-2.468809-14.725283-2.86914-17.470703-.806478-5.53067-1.570059-7.384084-3.96875-9.625-2.172464-2.02957-2.098687-4.347788.210937-6.560547.957981-.917805 1.925104-1.386137 2.847656-1.414062zm3.205078 11.152344c.087195.726613.282221 1.456817.607422 2.390624 1.365077 3.919765 7.396154 28.262294 9.970703 40.246094 1.830107 8.518665 4.684676 24.353104 6.597657 36.265624-.072757-2.44366-.107194-5.75336-.082032-9.3789.116081-16.72335-1.202711-27.13215-5.070312-40.027349-1.738775-5.79732-5.699919-15.287269-8.402344-20.130859-1.199573-2.150029-2.558828-5.337548-3.019531-7.083984l-.601563-2.28125zm67.585941 16.34375c-1.54895-.099041-4.477454 1.778547-19.513675 11.910156-10.140589 6.832809-18.4375 12.631416-18.4375 12.884765 0 .371449 27.450351 22.978941 34.607422 28.501951 1.016657.78454 2.335543 1.29847 2.931643 1.14258.5961-.15588 9.36648-6.701 19.48828-14.54492 10.12178-7.843938 18.3478-14.460649 18.28125-14.703126-.18725-.682577-34.84473-24.304493-36.74805-25.046875-.19633-.076576-.3881-.130384-.60937-.144531zm-.58203.214843c.13274-.012262.26766-.011265.4082.003907.93693.101143 2.15312.848855 5.04101 2.720703 10.74609 6.965285 32.18555 21.769094 32.18555 22.224609 0 .599397-17.9104 14.76073-31.19726 24.66602-6.69053 4.98777-6.36351 4.81786-7.912114 4.10351-1.32756-.61239-24.679256-19.562425-34.609375-28.085936l-1.183593-1.017578.515624-.417969c2.419726-1.966533 25.118212-17.416824 31.462891-21.416016 1.700821-1.072064 3.504441-2.135767 4.009766-2.365234.497381-.225871.881071-.379229 1.279301-.416016zm1.01367 4c-.98134 0-3.547468 1.472099-8.615237 4.94336-2.512544 1.721018-8.329674 5.690348-12.925781 8.820312-9.904266 6.744828-10.027344 6.838238-10.027344 7.513672 0 .622023.679128 1.232709 9.582031 8.613281 12.936027 10.724064 20.610811 16.683594 21.484371 16.683594.1571 0 .92786-.41518 1.7129-.92187 2.1349-1.37799 5.81837-4.1521 13.125-9.88477 3.61561-2.836758 7.87738-6.148474 9.4707-7.359376 5.46824-4.155788 6.75306-5.299418 6.97656-6.5625-.25728 1.129611-1.68285 2.434571-5.26562 5.09961-2.62439 1.952145-9.30113 7.148336-14.8379 11.548826-5.53676 4.4005-10.59201 7.99276-11.23242 7.98242-.64044-.0104-7.481646-5.21573-15.203122-11.56836C78.483602 95.012613 71.64086 89.294406 71 88.658203c-1.136193-1.127918-1.019599-1.255226 4.679688-5.070312 3.214695-2.151899 10.297932-6.984079 15.740234-10.740235 8.744468-6.035226 10.062148-6.754731 11.324218-6.179687.78549.35789 5.0313 3.24303 9.43555 6.410156 4.40425 3.167121 9.55725 6.59898 11.45117 7.626953 4.51908 2.452843 8.59341 5.36386 9.00391 6.433594.07106.185186.11694.363124.14062.541016-.02739-.564834-.24886-.901652-1.1582-1.759766-1.39311-1.314635-3.62097-2.837915-6.96289-4.75586-2.98467-1.712913-6.76153-4.222302-13.6875-9.09375-6.52813-4.59162-8.16873-5.613281-9.00586-5.613281zm4.23633 14.691407c-.43536-.056165-.77995.22331-1.01954.847656-.42279 1.101779 2.88022 8.462313 5.14258 11.458984 1.80851 2.395529 2.73156 2.514296 4.81641.623047 1.44858-1.31407 5.38672-9.757882 5.38672-11.550781 0-1.357379-1.84523-1.615286-3.14453-.439453-.67356.609573-1.22461 1.410906-1.22461 1.78125 0 .370342-.76562 2.139112-1.70313 3.929687l-1.52734 2.916016c.36628-.235082.78545-1.235998 1.65429-3.019532.94525-1.940331 1.71874-3.700969 1.71876-3.914062-.00001-.567994 1.62896-2.102524 2.41601-2.275391 1.01544-.223028 1.5957.18562 1.5957 1.123047 0 .957924-1.13769 3.952137-2.6582 6.994141-1.51237 3.025769-2.32608 4.228636-3.35547 4.966797-1.23636.886574-1.95046.808749-3.05469-.333985-1.71604-1.77587-4.23505-6.409007-5.43945-10.003906-.63045-1.881743-.65084-2.044383-.32031-2.548828.45818-.699257.61141-.681411 1.60156.185547 1.04313.913342 2.16882 2.650362 3.85156 5.939453.83382 1.629795 1.25991 2.576298 1.61524 2.849609l-2.31055-4.429687c-1.68727-3.234011-3.08323-4.976049-4.04101-5.099609zm-19.025395.078124c-.367121-.006837-.813033.044624-1.25.154297-1.582418.39716-1.587891.42581-1.587891 7.275391v6.878906l4.835938-.183594c4.693467-.176868 4.833984-.228151 4.833984-1.742187 0-1.382748-.292526-1.580768-2.585937-1.748047l-2.587891-.189453-.222656-4.908203c-.122628-2.700123-.420063-5.10561-.660156-5.345703-.120047-.120049-.40827-.184568-.775391-.191407zm.033203.197266c.883489.102654.97278.511065 1.28711 5.894531l.261718 4.480469 2.076172.136719c2.667842.175239 2.960938.332007 2.960938 1.578125 0 .575751-.13292 1.07594-.326172 1.236328-.281872.233934-5.255338.6385-8.212891.667969l-.851562.007812.078125-6.40625c.0429-3.523687.160951-6.581554.261718-6.794922.220898-.467737 1.567648-.905031 2.464844-.800781zm45.574222 6.308594c.01018.097199-.00561.195379-.01172.292969.00505-.075202.01953-.146467.01953-.22461 0-.025254-.00719-.044073-.00781-.068359zm-33.501956 4.628906c-1.533339 0-2.123832 1.094076-1.195313 2.212891.924953 1.114499 2.275769 1.178542 2.642579.126953.44257-1.268731-.22068-2.339844-1.447266-2.339844zm22.109376.085938c-.6876-.088154-1.43018.251648-1.65039 1.09375-.40524 1.549658.05965 2.044969 1.69726 1.810546.79686-.114069 1.27344-.648902 1.27344-1.429687 0-.870334-.63271-1.386456-1.32031-1.474609zm-.18555.082031c.16823.000343.33691.077597.61133.230469.73946.411725.9461 1.522654.38672 2.082031-.46219.462191-1.96327.477194-2.33984.023437-.41814-.503802-.00356-1.694811.73437-2.107422.27127-.151742.43919-.228858.60742-.228515zm-21.820311.015625c.389718.032862.745921.167935.949221.392578.48951.540902.46869 1.659609-.03906 2.119141-.491111.44445-.642117.446739-1.425786.021484-1.07402-.582845-1.431079-1.891142-.632812-2.318359.334945-.179257.75872-.247706 1.148437-.214844z"/>
    <path class="color-red" fill="red" d="M51.399659 128.72394c-.247755-.40086-.411188-6.38661-.363195-13.30163.116081-16.72334-1.202266-27.131726-5.069867-40.026925-1.738775-5.79732-5.700049-15.288412-8.402474-20.132002-1.199573-2.150029-2.557982-5.338024-3.018685-7.084461l-.837632-3.175355 2.924446.453589c4.357593.675855 12.513139.407626 19.496023-.641188 8.3243-1.250281 13.177411-1.173543 24.116415.381378 8.167804 1.160997 9.865384 1.225141 14.768391.558154 7.201369-.97967 12.966849-.445099 23.786199 2.205472 12.06068 2.954645 15.74729 3.385523 29.08827 3.399696 12.11001.01415 18.51121.7662 27.37986 3.222166 2.57384.712762 4.91503 1.437126 5.20266 1.609728.28764.172626-.68007.913662-2.15047 1.646869-3.87013 1.929768-10.01194 7.886625-15.63774 15.166773-5.32145 6.886295-9.75656 11.206068-14.14687 13.778959-2.49187 1.46033-2.67645 1.715448-1.66546 2.301806 10.10922 5.863185 15.04273 10.778301 25.42866 25.333811l7.32607 10.26725-6.70211.39708c-3.68616.21837-8.52718.70767-10.75784 1.0872-5.67788.96616-10.96132.86714-15.31185-.28698-4.13197-1.09609-8.41197-.86304-12.82776.69848-5.27886 1.86675-11.36959 1.86824-18.93313.005-7.51081-1.85064-8.29683-1.8175-16.258918.68551-6.696572 2.10515-14.568304 2.55583-21.564282 1.23469-8.66309-1.63576-14.102912-1.86904-18.992947-.81431-2.402229.51816-4.830665 1.12583-5.39651 1.35042-.565844.2245-1.231509.0804-1.479254-.32055zm69.205001-26.58771c10.12178-7.843936 18.34879-14.460068 18.28224-14.702545-.18725-.682577-34.84446-24.304125-36.74778-25.046507-1.57065-.612605-2.93837.187011-20.122623 11.765992-10.140589 6.832809-18.437438 12.630577-18.437438 12.883926 0 .371449 27.449161 22.978214 34.606232 28.501224 1.016657.78454 2.336189 1.29891 2.932289 1.14302.5961-.15588 9.36528-6.70119 19.48708-14.54511z"/>
    <path class="color-black" d="M86.205132 101.365c-7.721476-6.352625-14.563383-12.070761-15.204243-12.706964-1.136193-1.127918-1.01962-1.254195 4.679667-5.069281 3.214695-2.151899 10.297688-6.985764 15.73999-10.74192 8.744464-6.035226 10.061184-6.753707 11.323254-6.178663.78549.35789 5.03161 3.241992 9.43586 6.409118 4.40425 3.167121 9.55726 6.599476 11.45118 7.627449 4.51908 2.452843 8.59291 5.363942 9.00341 6.433676.59499 1.55053-.32843 2.672258-5.15599 6.263226-2.62439 1.952145-9.3017 7.149769-14.83845 11.550259-5.53677 4.4005-10.59082 7.99246-11.23123 7.98212-.64044-.0104-7.481972-5.21639-15.203448-11.56902zm7.799464-7.754865c0-1.382748-.293815-1.581324-2.587226-1.748603l-2.587253-.188708-.222858-4.909313c-.122628-2.700123-.419368-5.105758-.659461-5.345851-.240093-.240098-1.151562-.257077-2.025496-.03773-1.582418.39716-1.588946.427108-1.588946 7.276689v6.877891l4.835662-.182247c4.693467-.17687 4.835671-.228091 4.835671-1.742127zm6.719614 1.091923c.44257-1.268731-.21932-2.339838-1.445908-2.339838-1.533339 0-2.123821 1.092369-1.195302 2.211184.924953 1.114499 2.2744 1.180232 2.64121.128643zm14.41307-.623956c1.44858-1.31407 5.38549-9.758078 5.38549-11.550977 0-1.357379-1.84373-1.615002-3.14303-.439169-.67356.609573-1.22466 1.411324-1.22466 1.781668 0 .370342-.76702 2.138368-1.70453 3.928943l-1.7045 3.25559-2.50719-4.805595c-2.45421-4.704016-4.29532-6.250889-5.06199-4.252984-.42279 1.101779 2.88073 8.461896 5.14309 11.458567 1.80851 2.395529 2.73247 2.515206 4.81732.623957zm7.56936-.155999c0-1.740668-2.53018-2.06505-2.97061-.380846-.40524 1.549658.0594 2.045493 1.69701 1.811071.79686-.114069 1.2736-.64944 1.2736-1.430225zM53.910744 178.59802c-1.640904-1.42872-1.853397-2.52609-9.465702-48.8823-4.282911-26.0814-8.750549-53.036355-9.928076-59.899893-1.177537-6.863515-2.468517-14.725376-2.868848-17.470796-.806477-5.53067-1.570504-7.383205-3.969196-9.624121-2.172463-2.02957-2.097539-4.347106.212085-6.559865 2.189671-2.09784 4.426119-1.856024 6.072428.656541.916326 1.398498.960381 2.077819.333162 5.13776-.602034 2.937076-.559418 3.995229.255054 6.333967 1.365077 3.919764 7.394991 28.261432 9.96954 40.245232 2.395321 11.149591 6.561529 34.894525 8.048816 45.873655.960651 7.09143 1.546916 10.09888 6.238944 32.00455 2.622505 12.24371 2.599001 12.48307-1.30192 13.26326-1.475085.29502-2.30513.0463-3.596296-1.07799z"/>
    <path class="color-white" fill="#fff" d="M99.473021 116.17542c-1.32756-.61239-24.679409-19.563035-34.609528-28.086546l-1.183248-1.015634.514722-.41832c2.419726-1.966533 25.117676-17.416501 31.462355-21.415693 1.700821-1.072064 3.505827-2.136953 4.011152-2.36642 1.768496-.803096 2.106636-.687095 6.727266 2.307862 10.74609 6.965285 32.18603 21.770792 32.18603 22.226307 0 .599397-17.91101 14.759984-31.19787 24.665274-6.69053 4.98777-6.36228 4.81752-7.910879 4.10317zm3.698049-4.06578c2.1349-1.37798 5.81989-4.15325 13.12651-9.88592 3.61561-2.836756 7.87746-6.148474 9.47078-7.359376 6.17693-4.69438 7.01952-5.542331 7.01952-7.064257 0-.648609-.19334-.959484-1.16992-1.881049-1.39311-1.314635-3.62189-2.836218-6.96381-4.754162-2.98467-1.712913-6.76222-4.222619-13.68819-9.094066-6.52813-4.59162-8.16786-5.613855-9.00499-5.613855-.98134 0-3.548336 1.473076-8.616105 4.944337-2.512544 1.721018-8.328711 5.689997-12.924818 8.819961-9.904266 6.744828-10.027888 6.837448-10.027888 7.512882 0 .622023.679298 1.232628 9.582201 8.6132 12.936027 10.724065 20.61021 16.683575 21.48377 16.683575.1571 0 .92791-.41457 1.71294-.92127z"/>
    <path class="color-white" fill="#fff" d="M84.478587 89.0197c.0429-3.523687.160434-6.581278.261201-6.794646.220898-.467737 1.569046-.906017 2.466242-.801767.883489.102654.97263.510959 1.286959 5.894425l.261675 4.481879 2.076236.136384c2.667842.175239 2.959652.33071 2.959652 1.576828 0 .575751-.131553 1.076832-.324805 1.23722-.281872.233934-5.256646.638433-8.214199.667902l-.850949.0085zm14.387218 6.059336c-1.07402-.582845-1.431336-1.891677-.633069-2.318894.66989-.358513 1.690513-.27245 2.097114.176836.48951.540902.46905 1.661093-.0387 2.120625-.491103.44445-.641646.446715-1.425315.02146zm12.375405-.822551c-1.71604-1.77587-4.23523-6.408721-5.43963-10.00362-.63045-1.881743-.65096-2.044944-.32043-2.549389.45818-.699257.61004-.681674 1.60019.185284 1.04313.913342 2.16973 2.650202 3.85247 5.939293 2.01506 3.938656 1.65558 3.951709 3.64515-.132354.94524-1.940332 1.71862-3.702226 1.71862-3.915319 0-.567994 1.62845-2.100877 2.4155-2.273744 1.01544-.223028 1.59565.185172 1.59565 1.122599 0 .957924-1.13802 3.951677-2.65853 6.993681-1.51237 3.025769-2.32537 4.229669-3.35476 4.96783-1.23636.886574-1.95.808473-3.05423-.334261zm8.61817.608377c-.41813-.503802-.003-1.695348.73493-2.107958.54254-.303487.66977-.303244 1.2186.0025.73946.411725.94548 1.522719.3861 2.082096-.46219.462191-1.96306.477277-2.33963.02352z"/>
</svg>
