<svg xmlns="http://www.w3.org/2000/svg" viewBox="0 0 612 612">
    <path class="color-white color-reserved-white" fill="#010101" d="M565 436.7H48.2V178.9h517c-.3 1.6-.3 2.4-.5 3.2-13.4 40.3-27 80.6-40.2 120.9-.9 2.8-.9 6.5 0 9.4 9.6 29.7 19.6 59.2 29.4 88.8 3.8 11.7 7.4 23.6 11.1 35.5zm-14.3-11c-.7-2.5-1.1-4.2-1.7-5.9-11.7-35-23.4-70-35.2-104.9-1.7-5-1.7-9.4 0-14.4 11.9-34.9 23.5-69.9 35.2-104.9.6-1.8 1-3.7 1.5-5.7H59.4v235.7c163.9.1 327.3.1 491.3.1z"/>
    <path class="color-red color-main" fill="#ca0000" d="M550.7 425.7H59.4V190h491.1c-.5 2-.9 3.9-1.5 5.7-11.7 35-23.4 70-35.2 104.9-1.7 5-1.7 9.4 0 14.4 11.9 34.9 23.5 69.9 35.2 104.9.6 1.6 1 3.3 1.7 5.8zM91.4 307.8c2 1.1 3 1.8 4.1 2.3 61.9 30.9 123.8 61.8 185.8 92.5 2.2 1.1 5.8.8 8.1-.3 61.5-30.5 122.8-61.1 184.2-91.8 1.5-.7 2.9-1.7 5-2.9-2.4-1.3-4-2.4-5.7-3.2-60.9-30.4-121.7-60.7-182.5-91.1-3.8-1.9-6.6-1.9-10.4 0-60.8 30.5-121.7 60.8-182.5 91.1-1.9 1-3.6 2-6.1 3.4z"/>
    <path class="color-main color-black" fill="#010101" d="M91.4 307.8c2.5-1.4 4.2-2.4 5.9-3.3 60.9-30.4 121.7-60.7 182.5-91.1 3.8-1.9 6.6-1.9 10.4 0 60.8 30.5 121.7 60.8 182.5 91.1 1.7.9 3.4 1.9 5.7 3.2-2.1 1.2-3.5 2.2-5 2.9-61.4 30.6-122.8 61.3-184.2 91.8-2.2 1.1-5.9 1.3-8.1.3-62-30.7-123.9-61.6-185.8-92.5-.9-.6-1.9-1.2-3.9-2.4zm253.5-42.7c.3 4.8-2 9.8 4.2 12.7 1.1.5 1.7 4.1 1.1 5.8-5.3 16.4-10.8 32.8-16.7 50.4-5.6-16.8-10.7-32.4-16.1-47.9-2-5.5-1.2-9.2 4.4-10.9v-10h-36.6v10c6.1.9 8.9 5 10.7 10.5 7.1 21.7 14.4 43.3 21.6 64.9h21.2c7.1-21.3 14.3-42.4 21.2-63.5 1.9-5.9 4.4-11 11-11.8v-10.1c-8.7-.1-17.1-.1-26-.1zm-145.8 85.3h86v-31.7h-10.6c-1.7 14.1-9.4 21.1-23.4 21.2-4.2.1-8.4 0-12.6 0-7.7-.1-9.6-1.9-9.6-9.5 0-14.7.1-29.4-.1-44.1-.1-5.7.8-10.2 7-11.3v-10.1h-36.6v10.3c5.3 1 7.1 4.3 7 9.4-.2 15.1-.2 30.2 0 45.3.1 5.4-1.4 9.3-7.1 10.4v10.1zm101.8 2.4c2.6-3.3 5.4-5.3 5.3-7.1-.1-1.9-3-3.7-4.7-5.6-1.8 1.7-4.9 3.1-5.2 5.1-.3 1.8 2.3 4.1 4.6 7.6zm61.6-7.2c-3.4-2.5-5.4-5.3-7.3-5.1-1.9.2-3.6 3.1-5.4 4.8 1.7 1.8 3.3 4.8 5.2 5.1 1.8.2 4-2.5 7.5-4.8z"/>
</svg>
