<svg xmlns="http://www.w3.org/2000/svg" viewBox="0 0 170.1 170.1">
    <circle class="color-orange" fill="#f9b231" cx="85" cy="85" r="76.5"/>
    <path fill="#fff" d="M102.7 68.6h8.6v28.3h-8.6zm-44 0h8.6v28.3h-8.6zm11.9 32.1h28.3v8.6H70.6zm.3-43.2h28.3v8.6H70.9z"/>
    <path fill="#3a3a39" d="M162.9 85c-.1 9.4-1.9 18.6-5.3 27.4-1.9 5-4.5 9.6-7.4 14-3.2 4.8-6.7 9.3-10.8 13.3-4.9 4.7-10.1 9-15.9 12.3-6.9 4-14.1 7.3-21.9 8.7-4.1.7-8.2 1.6-12.4 2-6.8.6-13.7 0-20.4-1.3-8.2-1.6-15.6-4.9-22.8-9.1-7.1-4.1-13.3-9.3-18.8-15.4-2.4-2.6-4.4-5.5-6.4-8.4-3.5-4.8-6.2-10.1-8.4-15.6-2.4-5.9-3.8-12.1-4.6-18.4C7 90 7 85.4 7.3 80.8 8 69 11.3 58 16.8 47.6c2.9-5.4 6.4-10.4 10.5-14.9 2.7-2.9 5.3-5.8 8.4-8.2 2.7-2.1 5.6-4 8.4-5.9 6.8-4.4 14.2-7.2 22-9.2C72.6 7.8 79.1 7 85.8 7c7 0 13.9.9 20.6 2.8 13.4 3.8 25.1 10.7 34.8 20.9 5.6 5.9 10.4 12.3 13.9 19.7 3.2 6.7 5.5 13.8 6.7 21.2.8 4.5 1.4 8.8 1.1 13.4zm-3.4-.7c-.1-1.9-.2-4.6-.4-7.3-.5-5.7-1.6-11.2-3.5-16.6-4-11.2-10-21.2-18.6-29.3-7.8-7.4-16.6-13.1-26.8-16.4-8.6-2.8-17.3-4.6-26.4-4.3-6.1.2-12 1.1-17.9 2.4-6.1 1.4-11.7 4-17.2 7-5.2 2.8-9.8 6.4-14.1 10.3-4.2 3.8-7.9 8.1-11.1 12.8-3.2 4.8-6 9.7-7.9 15.2-2.4 5.9-3.7 11.9-4.5 18.1-1 7.3-1 14.5.4 21.7 1.1 5.5 2.8 10.9 5.1 16 4.5 10.3 10.8 19.4 19.3 26.7 7 6 14.7 10.8 23.4 13.9 8.4 3 17 4.4 25.9 4.7 3 .1 6.1-.3 9.1-.7 6.5-.9 12.7-2.7 18.8-5.2 7.6-3 14.4-7.4 20.6-12.8 2.4-2.1 4.5-4.7 6.7-7.1 7.7-8.6 13.4-18.4 16.3-29.7 1-3.7 1.7-7.5 2.3-11.2.3-2.4.2-4.9.5-8.2z"/>
    <path fill="#3a3a39" d="M13.1 85.1c.2-8.7 1.4-17.2 4.5-25.3C21.9 48.6 28.5 39 37.4 31.1c6.9-6.1 14.8-10.6 23.3-13.9 6.2-2.5 12.7-3.8 19.3-4.4 2.3-.2 4.6-.5 6.8-.2 2.1.3 4.2.4 6.3.6 5.7.6 11.2 1.7 16.6 3.7 5.6 2.1 10.9 4.7 15.8 8.1 4.2 3 8.1 6.3 11.7 10 6.1 6.3 10.8 13.6 14.2 21.8 3.8 9 5.5 18.5 5.4 28.3-.1 11.2-2.7 21.7-7.6 31.7-2.8 5.8-6.8 10.8-11 15.5-4.7 5.4-10.3 9.7-16.3 13.4-9 5.5-18.8 8.7-29.2 10-2.4.3-4.8.5-7.2.6-6.7.3-13.3-.6-19.8-2.7-4.4-1.5-8.9-2.8-13.1-4.9-5-2.5-9.4-5.8-13.8-9.2-3.9-3-7.4-6.5-10.4-10.4-5.3-6.7-9.1-14.2-11.7-22.4-1.2-3.8-2.4-7.6-2.8-11.5-.4-3.3-.6-6.7-.8-10.1zM149.8 83c0-3.8-.5-7.4-1.1-10.9-1.3-8.3-4.2-16-8.9-22.9-2.9-4.3-6.2-8.3-9.9-12-2.7-2.7-5.6-5.1-8.8-7.3-5.8-3.9-12.1-6.6-18.9-8.3-6.1-1.6-12.3-2.3-18.5-2.3-2.5 0-5 .4-7.4.8-6.6.8-12.9 3-19 5.6-5.2 2.3-10 5.4-14.4 9-4.1 3.4-7.7 7.2-10.7 11.6-2 2.9-3.6 6.1-5.2 9.3-2.2 4.3-4.1 8.7-5.2 13.5-1 4.6-1.7 9.2-1.8 13.9-.1 3.1 0 6.2.4 9.2.6 4.7 1.8 9.2 3.3 13.7 3 8.9 7.9 16.6 14.3 23.2 5.9 6.1 12.6 11 20.4 14.3 4.6 1.9 9.1 3.7 14 4.5 4.1.7 8.2 1.3 12.4 1.3 4.8 0 9.5-.7 14.2-1.7 5.9-1.3 11.6-3.3 16.9-6.2 8.4-4.7 15.6-10.9 21.4-18.8 5.1-7 8.8-14.6 10.6-23.1 1.3-5.5 1.7-11 1.9-16.4z"/>
    <path fill="#3a3a39" d="M85.6 40.3c7 .2 13.5 1.9 19.6 5.2 4.9 2.7 9.3 6.2 12.9 10.6 3.2 3.9 5.9 8.2 7.5 13.1.9 2.7 1.4 5.6 1.8 8.4.6 4 .6 8.1.1 12.2-.6 5.2-2.2 10-4.8 14.6-5.8 10.4-14.4 17.2-25.6 20.7-4.2 1.3-8.6 2.2-13 2-7.9-.4-15.3-2.1-22.1-6.6-3.8-2.5-7.3-5.2-10.2-8.7-4-5-7.2-10.5-8.8-16.8-2-8-1.8-16 .5-24 1.7-5.7 4.2-10.8 8.1-15.2 6.7-7.7 14.9-12.8 25-14.6 3-.6 6-.6 9-.9zm39.3 43.9c-.1-1.6-.3-2.9-.3-4.3-.4-6.3-2.4-12-5.5-17.4-3.3-5.6-7.7-10.1-13.2-13.3-6.8-4-14.1-6.3-22.1-5.6-2.4.2-4.8.3-7.2.7-7.9 1.6-14.9 5.2-20.5 11.2-8.1 8.7-12.2 19.1-11.2 31.3.4 5.1 1.8 10 3.9 14.6 3 6.4 7.7 11.3 13.2 15.4 2.8 2.1 6 3.5 9.3 4.6 5.9 2 11.9 3 18.1 2.2 5.7-.7 11.2-2.4 16.2-5.5 6.5-4.1 11.7-9.4 15.2-16.5 2.7-5.5 4.2-11.3 4.1-17.4z"/>
    <path class="color-red" fill="#be111f" d="M42.1 114.9c-2.6-.4-5.1-.7-7.6-1.1-1.9-.3-1.9-.4-1.1-2.2 1-2.4 2-4.8 3.1-7.4-3.1 1.1-6 2.1-9.1 3.2l-1.5-4.5c0-.2.3-.6.6-.7 3.8-1.2 7.6-2.3 11.4-3.4.9-.3 1.8-.5 2.8-.8.4 1.1.9 2.2 1.3 3.3.1.3-.1.7-.2 1.1-1 2.5-2 5.1-3.1 7.8 1.6.1 3.1.3 4.6.4 1.5.2 2.9.3 4.4.5.2 0 .4.2.5.3.6.9 1.2 1.8 1.9 2.7-3.9 3.6-7.8 7.2-11.8 10.9-.9-1.2-1.9-2.4-2.9-3.8-.1-.1.1-.6.3-.7 1.7-1.5 3.4-2.9 5.1-4.3.3-.4.7-.8 1.3-1.3zm80.4 5.3c2.4 2.5 4.6 4.8 6.9 7.1-1 .9-1.9 1.8-2.8 2.7-.4.4-.7.1-1-.2-3-3.4-5.9-6.8-8.9-10.2-1.3-1.5-1.2-1.5.3-2.8.6-.6 1.2-1.2 1.8-1.9.3-.4.6-.5 1.1-.3 2 .7 4 1.3 6.1 1.8-1.7-1.3-3.4-2.6-5.2-4 .9-1.2 1.7-2.4 2.5-3.5.1-.1.6-.1.8.1 3.7 2.6 7.4 5.2 11.2 7.8.5.4 1.1.6 1.7 1-.9 1.5-1.8 2.9-2.8 4.3-.1.2-.7.3-1 .2-3.3-.6-6.5-1.3-9.8-1.9-.2-.1-.4-.1-.9-.2zm9.6-24.6c1.4.3 3.1.7 4.8 1.2 1.8.5 3.7 1.1 5.5 1.7 1.9.7 2.5 2.3 1.8 4.2-1.2 3-2.4 6-3.6 8.9-.8 2-2.4 2.7-4.4 1.6-2.7-1.6-5.5-3.2-8.2-4.8-1.2-.7-2.2-1.7-2.2-3.3 0-.8.2-1.7.5-2.4.6-1.6 1.4-3.1 2.1-4.6.8-1.4 1.8-2.4 3.7-2.5zm-1.8 9c2.4 1.4 4.7 2.7 7.1 4.1.8-2.1 1.5-4 2.3-6.1-2.4-.8-4.8-1.6-7.3-2.4-.7 1.5-1.4 2.9-2.1 4.4zm-78.2 17.6c-.4.5-.7.8-1.2 1.4 1.4 1.1 2.8 2.1 4.2 3.1.4.3.6.5.4.9-.7 1-1.4 1.9-2.2 3-1.7-1.4-3.3-2.6-5-3.9-.4.4-.7.8-1.2 1.4 1.6 1.2 3.1 2.4 4.6 3.6 1 .8 2 1.5 3 2.2.6.4.6.8.1 1.3-.5.6-.9 1.2-1.4 1.8-.3.4-.6.5-1 .2-3.8-2.7-7.7-5.2-11-8.6-.5-.5-.6-.9 0-1.5 3.3-3.3 6.5-6.6 9.8-9.9.3-.3.6-.5.8-.8 1.7 1.4 3.4 2.7 5.1 4 1.4 1.1 2.9 2.1 4.4 3.1.6.4.8.7.3 1.3-.5.7-.9 1.5-1.3 2.2-.3.6-.6.7-1.2.3-2.1-1.6-4.3-3.1-6.4-4.6-.3-.2-.5-.3-.8-.5zm54.1 18.3c.5.7 0 1.2-.6 1.7-.6.4-1.2.9-1.9 1-2.7.6-5.4 1.1-8 1.6-2.2.4-4-1.1-4.4-3.2-.5-2.7-.9-5.5-1.2-8.2-.3-2.3.8-4.1 2.9-4.6 2.6-.7 5.2-1.2 7.8-1.6 1.8-.3 3.1.7 3.8 2.5 1.1 2.7 1 2.8-1.7 3.6-.2.1-.4.1-.7.2-1.2.3-1.3.2-1.6-.9-.2-.8-.6-1-1.4-.9-1.2.2-2.4.4-3.6.7-.9.2-1.2.7-1.1 1.6.3 1.7.5 3.3.8 5 .2 1.1.5 1.3 1.5 1.1 1.5-.3 3-.6 4.5-.8.7-.1 1-.4.8-1.2-.3-1.5-.3-1.5 1.2-1.8.7-.1 1.3-.3 2-.4.5-.1.8 0 .9.6.1 1.1.3 2.1.4 3.2.1.1-.2.4-.4.8zm-38.1-6.8c-1.1-2.7-2.1-5.4-3.3-8.3.8.3 1.4.4 2 .6.1 0 .1 0 .2.1 1.2.5 2.7.7 3.6 1.6.8.8 1.1 2.3 1.6 3.7 1-.7 2-1.5 3-2.2.2-.2.5-.3.7-.3 1.5.2 2.9.6 4.4.8.7.1.3.7.2.4-.1.1-1.7 1.5-2.5 2.1-1.3 1-2.6 2-3.9 2.9-.4.3-.4.6-.3 1 .8 2.2 1.6 4.3 2.3 6.5.3.9.6 1.8.9 2.9-1.1-.1-2-.2-3-.3-.8-.1-1.9 0-2.4-.5-.5-.4-.5-1.5-.8-2.3-.4-1.5-.9-3-1.4-4.6-1.4 1-2.7 1.9-4 3-2.1 1.8-2.1 1.9-4.6.8-.8-.3-1.5-.7-2.5-1.2 3.4-2.5 6.6-4.5 9.8-6.7zm56.6-2.1c-1.1.8-2.1 1.6-3.1 2.3-.2.1-.6 0-.8-.1-.5-.4-.9-.8-1.4-1.2l-6.3 3.6c-.2.1-.3.4-.3.6 0 .3.1.5.1.8.1 1.9.1 1.9-1.5 2.6-.3.1-.7.2-1 .3-1.4.4-1.4.4-1.6-1-.7-4.8-1.5-9.7-2.3-14.5-.1-.5-.1-.8.4-1 1.6-1 3.1-2 4.7-2.9.2-.1.6-.1.7.1 4.1 3.3 8.2 6.8 12.4 10.4zm-12.8.5c1.4-.8 2.6-1.6 4-2.4-1.8-1.4-3.4-2.7-5-4-.1 0-.1.1-.2.1.4 2.1.8 4.1 1.2 6.3zM67.5 26.6c0-1.5.5-2.3 1.8-2.7 1.8-.5 3.7-.9 5.6-1.1 2-.2 3.1.7 3.5 2.7.4 2.2.6 4.5.8 6.8.1 1 .2 2.1.2 3.2.1 1.7-.4 2.4-2.1 2.6-1.6.3-3.2.7-4.8 1-.9.2-1.6 0-1.9-1-1-3.6-2.1-7.1-3.1-10.7v-.8zm7.2-.1c-1 .2-2 .3-3.1.5.7 3 1.3 5.8 1.9 8.7.8-.1 1.6-.2 2.5-.3-.4-2.7-.7-5.4-1.1-8 0-.3-.1-.5-.2-.9zm-6.3 13.9c-1.1.5-2 1-3 1.3-.2.1-.5-.1-.7-.3-.6-.5-1.1-1-1.6-1.7-.6-.7-1.1-.8-1.8-.1.5.9 1 1.9 1.6 3-.9.6-1.8 1.1-2.7 1.7-2.6-4.5-5.2-8.8-7.8-13.2 1-.6 2-1.2 3-1.6 1.7-.8 3.4-1.7 5.2-2.4 1.5-.6 3-.1 3.7 1.4.8 1.9 1.5 4 2 6 .2.8-.4 1.9-.7 3 .6.8 1.6 1.8 2.8 2.9zm-8.4-3c.9-.9 2.6-.7 2.7-2.3.1-1.5-.3-3.1-1.6-3.9-1.3-.8-2.5.4-3.8 1 .9 1.8 1.7 3.4 2.7 5.2zm51.1 2.9c-.2.8-.3 1.5-.4 2.2s-.2 1.3-.4 2.2c-.9-.5-1.7-.9-2.5-1.3-.1-.1-.1-.4-.1-.7.1-.9.2-1.8.4-2.7.1-.6-.1-.9-.7-1.1-.5 1-1 2.1-1.5 3.2-1-.4-1.9-.8-2.9-1.3.4-1 .8-1.9 1.2-2.8 1.5-3.5 3.1-6.9 4.5-10.4.4-.8.7-1.1 1.6-.6 1.5.8 3 1.4 4.5 2.1 2.7 1.3 3.3 3.5 1.8 6.1-.9 1.4-1.9 2.7-2.9 4-.7.8-1.5 1.3-2.6 1.1zm-.2-9.1c-.7 1.6-1.4 3-2.1 4.5 2.5 1.6 3.1 1.4 4.4-1l.3-.6c.3-.7.2-1.3-.5-1.7-.6-.5-1.3-.8-2.1-1.2zM54.2 43.5c1.3.7 2.5 1.4 3.9 2.2-.9.7-1.6 1.3-2.4 1.9-.1.1-.4 0-.6-.1-.7-.3-1.5-.7-2.1-1.1-.7-.5-1.2-.4-1.8.3.8.8 1.6 1.7 2.4 2.6-.6.7-1.2 1.4-1.9 2.1-3.8-3.7-7.3-7.3-11.1-11 .4-.3.8-.6 1.1-.8 1.6-1.4 3.1-2.8 4.7-4.1 1.8-1.5 3.6-1.4 5.1.4 1.1 1.2 2 2.6 2.9 4.1.7 1 .5 2.2-.2 3.5zm-8.5-2.7c1.3 1.4 2.5 2.7 3.7 4 .6-.6 1.2-1 1.6-1.6.3-.5.6-1.1.6-1.7 0-.9-1.6-2.8-2.4-3-.4-.1-.9 0-1.2.2-.8.7-1.5 1.4-2.3 2.1zm2.4 9.9c.9.8 1.6 1.3 2.4 2-1.2 1.5-2.3 3-3.4 4.5-.7.9-1.3 1.9-1.9 2.8-.3.5-.5.6-1 .3-4-2.3-8-4.5-12-6.8-.8-.4-.9-.9-.4-1.6 2.1-2.9 4.2-5.8 6.4-8.6.3-.4.5-.5 1-.1.6.5 1.2.9 1.9 1.4-1.6 2.3-3.2 4.6-4.9 6.9.8.6 1.6 1.1 2.4 1.6.9-1.3 1.7-2.4 2.6-3.7.7.5 1.4.9 2 1.5.2.2.2.7.1 1-.6 1-1.2 2-1.9 3 .8.5 1.6 1 2.3 1.5 1.5-1.9 2.9-3.8 4.4-5.7zm33.4-27.8c.1 0 .3 0 .3-.1.6-1.2 1.7-1 2.7-1 1.7.1 3.5.2 5.2.3 2.4.1 3.5 1.5 3.2 3.9-.1.8-.1 1.6-.1 2.3 0 .6-.2.9-.8.8h-.2c-2.5 0-2.5 0-2.6-2.5 0-.5-.2-.8-.7-.8-.9 0-1.9-.1-2.8-.2-.4 0-.8.1-.8.6 0 2.7-.1 5.4-.1 8.1l.3.3c.9 0 3 .3 3 .3.1-.8.2-1.5.3-2.3 1.1.2 2.1.3 3.3.5-.2 1.4-.4 2.7-.7 3.9-.1.3-.6.7-.9.6-2.4-.1-4.9-.3-7.3-.5-1-.1-1.3-.9-1.4-1.7-.1-1.4-.2-2.8-.2-4.2 0-1.8-.1-3.7 0-5.5 0-.7.2-1.5.2-2.2.1-.1.1-.3.1-.6zm38.6 24.7c-.5 1.3-1 2.5-1.6 3.8-.7-.6-1.3-1.1-1.9-1.6-.1-.1-.1-.5-.1-.8.3-.9.6-1.8.9-2.6.2-.7.2-.7-.5-1.2-.6.7-1.2 1.5-1.8 2.2-.3.4-.6.5-1.1.2-.5-.4-1-.8-1.6-1.2 2-2.6 4-5.2 6-7.7 1-1.3 2.1-2.6 3.1-4 .4-.6.8-.8 1.4-.3 1.6 1.5 3.4 2.8 4.9 4.4 1.2 1.2 1.3 3.2.1 4.5-1.3 1.3-2.8 2.5-4.2 3.7-1.1.7-2.3 1.1-3.6.6zm-1.4-5c.7.5 1.2 1 1.8 1.4.7.4 1.5.5 2.1-.2.7-.7 1.4-1.5 2-2.3.5-.6.4-1.3-.2-1.9-.6-.6-1.2-1.1-1.9-1.7-1.3 1.6-2.5 3.1-3.8 4.7zM29.8 64.5c1.1.3 2.1.6 3.1.9.4-1.1.8-2.1 1.1-3.2.2-.5.4-.8 1-.5.7.3 1.4.5 2.3.8-.4 1.3-.7 2.5-1.1 3.8 1.5.5 2.8 1 4.2 1.5.6.2.8.4.5 1.1-.1.3-.2.7-.3 1-.4 1.5-.4 1.5-1.9 1.1-3.5-1-7.1-2-10.6-3-.7-.2-1.4-.3-2.1-.4-.6-.1-.9-.5-.6-1.1 1.2-3.1 2.3-6.2 3.5-9.2.2-.6.6-1.1.9-1.7.9.4 1.7.7 2.5 1.1.2.1.3.6.2.9l-1.2 3-1.5 3.9zm71.7-24.1c-1-.3-2-.6-3-1 .1-.7.1-1.3.2-2-.1-.1-.3-.1-.4-.1-2-.6-2-.6-2.7 1.5-1-.2-2.1-.4-3.3-.6.1-.4.2-.8.4-1.1 1.9-4.3 3.9-8.7 5.8-13 .1-.2.5-.5.7-.4 1 .2 2.1.5 3.1.8.5.1.7.4.6.9-.5 4.9-.9 9.8-1.4 14.7.1 0 .1.1 0 .3zM99 31.7s-.1 0-.1-.1c-.4.8-.8 1.7-1.2 2.6.5.1.9.2 1.4.2-.1-.9-.1-1.8-.1-2.7zm28.9 27.1c1.3 2.5 2.5 4.9 3.8 7.4-.9.5-1.7 1-2.6 1.4-.2.1-.6-.2-.8-.4-.7-1.3-1.3-2.6-1.9-3.9-.8-1.7-1.7-3.3-2.6-4.9-.4-.7-.4-1.1.3-1.5 2.5-1.6 5.1-3.3 7.6-5 1.3-.9 2.6-1.9 3.9-2.9.2-.1.4-.2.7-.4.8 1.1 1.6 2.2 2.4 3.5-3.6 2.2-7.1 4.4-10.8 6.7zm-39.1 87.1h-5.4v-4.7c0-3.1-.1-6.2-.2-9.3 0-.3-.2-.6-.3-1.1.1-.4.6-.7 1.3-.7.8 0 1.7-.1 2.5-.2s1.1.1 1.1 1c.1 3 .2 6 .4 8.9.1 2 .4 4 .6 6.1zM135 46.8c-1 .8-1.9 1.5-2.8 2.1-3 2.2-6 4.4-8.9 6.6-.7.6-1.2.5-1.7-.3 0-.1-.1-.1-.1-.1-1.3-1.6-1.3-1.6.3-2.9 3.2-2.7 6.4-5.4 9.5-8.1.7-.6 1.1-.6 1.6.1.7.8 1.4 1.6 2.1 2.6z"/>
    <path fill="#3a3a39" d="M34 83.5c0 1.5-1.2 2.6-2.7 2.6-1.3 0-2.5-1.3-2.5-2.6 0-1.4 1.2-2.5 2.7-2.6 1.3 0 2.5 1.2 2.5 2.6zm105.3-2c0 1.2-1 2.2-2.3 2.2s-2.5-1-2.5-2.3c0-1.1 1.1-2.3 2.4-2.3 1.5 0 2.4.9 2.4 2.4z"/>
    <circle fill="#b4bbbc" cx="85.1" cy="84.1" r="40.3"/>
    <path fill="#3a3a39" d="M58.7 111.1c1.5-1.6 3-3.1 4.4-4.6 2.6-2.6 5.3-5.2 7.9-7.8l.1-.1c.4-.5.8-1.1.3-1.7-.6-.6-1.1 0-1.6.4l-11.3 11.6c-.2.2-.4.4-.8.7l-.3-51.7c1 .9 1.9 1.8 2.8 2.7l10.2 9.6c.5.4.9.7 1.4.2.6-.6.3-1.1-.2-1.5-.8-.8-1.6-1.5-2.4-2.2-3.2-3-6.4-5.9-9.6-8.9-.3-.3-.6-.7-1.1-1.1 17.6-.4 35.1-.2 52.5-1.3 0 .1 0 .2.1.2-.8.7-1.5 1.4-2.3 2.1-3.4 3.4-6.7 6.8-10.1 10.2-.5.5-1.1 1.1-.5 1.8.6.7 1.3.1 1.8-.3 1.4-1.4 2.8-2.8 4.2-4.3 2.3-2.4 4.5-4.8 6.7-7.2.3-.3.6-.5 1.1-1 .6 17.6 1.2 35 1.7 52.3-.1 0-.1.1-.2.1l-2.7-2.4-11.1-10.2c-.1-.1-.2-.3-.3-.3-.4 0-.8-.2-1.1 0-.5.3-.3.8.1 1.2 1 1 2.1 2 3.1 2.9 3.1 2.9 6.2 5.7 9.3 8.6.3.3.6.6 1 1.1-17.8.8-35.4.7-53.1.9zm28-13c.9 0 1.7.1 2.4 0 .9-.2 1.8-.5 2.6-.9 5.1-2.7 8.1-6.8 8.3-12.9.2-4.2-1.1-7.8-3.7-10.8-4-4.8-11-6.8-17-4.5-5.7 2.3-9.4 6.2-9.8 12.7-.5 6 1.7 10.6 6.5 14 2.5 1.8 5.3 2.5 8.2 2.9 1.4.2 1.5.2 2-1.2 0-.1.1-.1.2-.2.1.4.2.7.3.9zm-2.5-33.7h5.7c0-.5-.1-.9-.1-1.3-1.4-.1-2.8-.2-4.1-.2v-.4h2.8c.2-1.3.2-1.3-.9-1.3h-1.3c-.2 0-.4-.2-.6-.3 0-.1 0-.3.1-.4h3.1c1.2 0 1.4-.2 1-1.4h-5.5c-.2 1.8-.2 3.5-.2 5.3zm-6.4-.1h4.5c.6 0 1.2-.4 1.3-1.1.1-1 .1-2 0-2.9-.1-.4-.5-1-.8-1.1-1.6-.4-3.2-.4-4.9-.1-.1 1.7-.1 3.4-.1 5.2zM66 70.1c-1.6.6-3.1 1.2-4.6 1.8-1.5.6-1.5.6-1.5 2.3 0 .3-.1.6 0 .8.1.3.3.7.5.9 1.3.7 2.7 1.3 4.1 1.9.3.1.6.3 1 .4-.1-.8.3-1.7-.7-2-.1 0-.1-.4-.1-.6 0-1 0-2.1.1-3.1 0-.2.2-.5.3-.5.9-.3.9-1 .9-1.9zm38.7 12.5h1.4v-3c0-.2.2-.4.4-.6.1.2.3.4.3.6v2.2c.5 0 .9 0 1.4-.1v-1.8c0-.3.2-.6.4-.9l.3.9v2.6c.6 0 1.1.1 1.5.1V78c0-.2-.3-.5-.5-.5h-5.1c-.1 1.7-.1 3.4-.1 5.1zm1.4 5.1c.7 1 2.6 1.5 3.5.8.3-.2.5-.5.6-.8l.3-4.5h-5.9c0 .6.1 1 .1 1.4.5 0 .9.1 1.4.1 0 .8.3 1.6-.7 2-.9.4-.9 1-.6 1.8.5-.2.9-.5 1.3-.8zm-1.2 1.3c-.1 1-.3 1.7.7 1.9.2.1.4.4.4.7.1 1 .1 2 .1 3 0 .2-.1.5-.3.6-1 .3-.8 1-.6 1.8 1.3-.6 2.5-1.3 3.7-1.6 1.4-.4 1.7-1.2 1.6-2.5 0-.5-.1-.8-.6-1.1-1.6-1-3.2-1.8-5-2.8zm-21.8 18.2c1-.7 1.5-2.1 1.1-3.3-.1-.3-.5-.8-.8-.9-1.5-.2-3.1-.2-4.7-.3v5.4h1.4c0-.5.1-.8.1-1.1 1.1-.4 1.7.4 2.3 1 .3.3.7.4 1.1.7.1-.1.1-.2.2-.3-.2-.5-.5-.8-.7-1.2zm-5.2-1c-.7-.2-.7-.2-1.4.4-.1.1-.3.1-.5.1h-1.3c-1.2 0-1.2 0-1.2-1.2 0-.3 0-.6.1-.8.1-.2.2-.4.4-.4.8-.1 1.5-.1 2.3-.1.1 0 .4.1.4.2.1 1.1.8.6 1.3.6.1-1.8-.1-2.2-1.4-2.2-1.1-.1-2.2-.1-3.4 0-.4 0-.9.5-.9.8-.2 1-.2 2-.2 3 0 .9.4 1.4 1.3 1.4s1.9.1 2.8.1c1.7 0 1.9-.3 1.7-1.9zm16.2-2c-.9.9-1.6 1.6-2.4 2.3-.5.4-.7.9-.5 1.5h5.7v-1.5h-3.1c.8-.9 1.6-1.6 2.5-2.2.6-.4.6-.9.5-1.5h-5.7c.1.5.1.9.2 1.2.9.1 1.8.1 2.8.2zM64 90.9c-.6-1.1-2.4-1.5-3.3-.8-.2.1-.3.4-.4.7v4.5h5.1c0-.4-.1-.8-.1-1.1-.5 0-1-.1-1.5-.1-.3-1.1.3-1.6 1-2 1-.6 1.1-.9.7-2.1-.5.2-1 .6-1.5.9zm-3.9-1.7h4.5c.6 0 1-.4 1-1v-3.5c0-.6-.3-.9-.9-.9-1.4 0-2.8-.1-4.2-.1-.7 0-.5.5-.6.9-.1.5.1.7.6.7h2c1.7 0 1.7 0 1.7 1.7 0 .7-.3.9-.9.9h-3.2v1.3zm26.2 13.7c-1.2-.2-1.3-.2-1.3 1v3c0 .8.5 1.3 1.3 1.3 1.1 0 2.2 0 3.3-.1.3 0 .8-.5.8-.7.1-1.5 0-2.9 0-4.4h-1.5v2.2c0 1.9 0 1.9-1.9 1.7-.6 0-.8-.3-.8-.9.1-1.1.1-2.1.1-3.1zM110 76.8c.5-1.1.4-1.4-.6-1.7-1.1-.4-2.3-.8-3.5-1.2 1.2-.6 2.3-1.2 3.5-1.6.9-.3 1.1-.8.7-1.8-1.7.7-3.5 1.5-5.2 2.3-.3.1-.5.6-.5 1s.1 1.2.4 1.3c1.7.6 3.5 1.2 5.2 1.7zm-49.8.7v5.6c.5-.1.9-.1 1.3-.2.1-.6.1-1.1.2-1.7h4v-1.6h-2.4c-.5 0-1.3.1-1.5-.1-.3-.3-.1-1.1-.1-1.6 0-.1-.1-.2-.1-.3-.5-.1-.9-.1-1.4-.1z"/>
    <path fill="#3a3a39" d="M93.1 85.4c-.1.3-.3.7-.5 1.3-.3-.6-.4-.9-.6-1.3-.1.2-.3.3-.5.6-.1-.3-.3-.6-.4-.9-.2.6-.5.6-.8 0-.1.3-.2.4-.3.7-.2-.4-.3-.7-.5-1-.8.9-.8-1.1-1.5-.4-.2.5-.4 1-.6 1.6s-.4 1.1-.7 1.9c.5.1.9.2 1.3.2.9 0 1.4.6 1.6 2 .2-.2.4-.4.5-.6.3-.5.5-1 .9-1.4.5-.6 1.2-.6 1.7-.1s.5 1.4-.1 1.8c-.5.4-1.2.7-2 1.1.1.1.3.4.5.4.8 0 1.3.3 1.3 1.1 0 .6-.7 1.4-1.4 1.6-1.1.2-2 .7-2.8 1.5s-1.7.4-2.3-.7c-.7-.1-1.3-.2-2.1-.4-.3.2-.7.6-1.1.9-.9.6-1.6.5-2.5-.2-.2-.1-.4-.2-.6-.2-1.5-.3-1.7-.5-1.7-2.1-.3 0-.7.1-1 0-.4-.1-.9-.3-1.1-.6-.6-.8-1.1-1.8-1.7-2.7-.1-.2-.4-.4-.6-.6s-.4-.6-.3-.8c0-.2.5-.3.7-.4.1 0 .2.1.2 0 1.6-.2 2.1.2 2.4 1.9.6.1 1.2.3 1.9.4h.4c.7-.2 1.4-.4 2.3-.6.2-.9.9-1.4 2.1-1.3.1 0 .3 0 .4-.1.6-.3 1.1-.4 1.2.5 0 .1.2.1.5.2-.6-.9.2-2.2-1.2-2.6-.5 1-.6 1.1-1.7.8-.3.3-.6.6-1 .9-.8.6-1.5.3-1.8-.7-.2-.7-.5-1.4-.8-2.2.3-.3.9-.3 1.3.2.3.4.4 1 .8 1.5 0-.1.1-.3 0-.4-.4-.8-.1-1.8.7-2 1-.3.7-.7.4-1.3-.4.3-.7.5-1.2.9-.2-.3-.3-.5-.5-.8-.1.2-.3.4-.6.8l-.2-.4c-.5.3-1 .6-1.5 1-.2-.3-.3-.5-.5-.7-.6 1.4-.9 1.7-1.4 1.4-.1.2-.2.5-.4.9-.2-.5-.3-.8-.4-1.2-.2.5-.3.9-.4 1.2h-.2c-.1-.3-.2-.6-.2-.9.1-2.5.2-5.1 1.4-7.4.7-1.4 1.4-3 2.8-3.9 1.2-.8 2.1-.5 2.5.8.3.8.7 1.4 1.7 1.5-.3-.5-.6-.8-.8-1.2-.4-.9.5-3.4 1.3-3.9.5-.4 1.5-.3 1.8.3.1.2 0 .5 0 .9.7.1 1.6.1 2.5.2v.1c-.7.8-.8 1.6-.5 2.6.2.7.4 1.1 1.1 1.1.8 0 1.1-.5 1.1-1.2 0-1.1.5-1.9 1.2-2.1.9-.2 1.7.3 2.2 1.4.4 1 .9 2 1.1 3 .4 2.3 1 4.7.4 7.1-.1.2-.1.5-.2.7-.3.4-.6.7-.8 1.1.2-.1 0-.5-.2-.8zm1-6.7c-.6-1.5-1.1-2.9-1.7-4.3 0-.1-.2-.2-.3-.3-.6-.5-1.2-.4-1.6.3-.2.4-.2.9-.3 1.4-.1.8-.5 1.3-1.2 1.5s-1.3 0-1.5-.6c-.4-1-.6-2.1-.9-3.3-.3 0-.9-.1-1.4-.2v.2l.6.3c-.3.3-.6.5-.8.5-.5 0-1.1-.1-1.6 0-.2 0-.3.3-.5.5 1.4-.2 1.7 0 1.7 1.3 0 .2.1.5.2.6.8 1.2 1 2.5.5 3.9-.4 1.3-1 2.5-1.6 3.8-.3.7-.6 1-1.4.8-.1 0-.3.2-.5.4.6 0 .8-.1 1.1 0 .5.1.9.4 1.4.5.9.2 1.4.8 1.4 1.6v.8c.3-.2.5-.5.6-.8.3-.9.5-1.8.9-2.6.5-1.2.5-2.3.3-3.5-.1-.6-.2-1.1-.2-1.7 0-1.1.4-1.6 1.5-1.7.4 0 .8-.1 1.1-.3 1.2-.8 1.7-.8 2.8.4.2.2.5.7 1.4.5zm-10.5 2.5h.3c0-1.1.1-2.2.1-3.4 0-.5-.3-.9-1-.9-1 0-1.7-.6-2.1-1.6-.4-1.2-1.2-1.5-2.2-.5-1 1.2-1.7 2.7-2.3 4.2.8.4 1.3.1 1.9-.4s1.2-.8 2-.6c.9.3 1.7.5 2.7.7.1.8.4 1.7.6 2.5zm-4-2.3c-.2 1.5-.3 2.9-.5 4.3h.3c.3-1.2.5-2.5.8-3.7.1 0 .2 0 .4.1-.1 1-.2 2.1-.4 3.1h.2c.2-1.1.5-2.2.7-3.2h.2V83h.3c.1-1.2.1-2.4.2-3.6-.3-.1-.5-.1-.6-.2-1.1-.6-2-.4-2.9.3-.5.3-1.2.4-2 .6-.2.8-.4 1.9-.6 3 .1 0 .1 0 .2.1.4-.9.7-1.8 1.1-2.7h.2v3.4h.2c0-1.2-.2-2.4.3-3.5h.3c0 .5-.1 1-.1 1.5h.1c.2-.7.4-1.3.7-2h.1c-.1 1.1-.2 2.2-.2 3.4h.3c-.1-1.5-.5-3.1.7-4.4zm2 13.5c.3-1.1-.3-1.5-.8-1.9s-1.1-.4-1.5.1-.1 1.1.3 1.4c.6.2 1.3.3 2 .4zm5.3-3.2c0 1.4-1.1 3-2.1 3 .5.1.8.2 1.1.3.3-1.4.9-1.9 1.7-1.4.3-.3.7-.5 1-.9.2-.3.4-.7.3-1.1 0-.2-.5-.4-.9-.7.1.6.1.9.1 1.2-.5-.1-.8-.3-1.2-.4zm-3.1 4.5c-1.5-.8-1.9-.8-2.7 0-.2.2-.4.8-.2 1 .2.2.7.4 1 .3.6-.4 1.1-.8 1.9-1.3zm-5.1-1.5c-.3-1.5-.8-2-1.8-1.8-.3.1-.7.4-.7.6 0 .3.3.8.5.9.6.2 1.3.2 2 .3zm7.4.8c.2.6.3 1.3.6 1.8.2.3.7.3 1.1.4.1-.4.3-.8.2-1.1-.3-.8-.8-1.3-1.9-1.1zm5.5-8.5h.2c.1-2 .2-4 .2-6 0-.3-.3-.6-.5-.8-.1 0-.1.1-.2.1.1 2.2.2 4.5.3 6.7zm.8.5c1-3.2 1-5.3 0-5.8V85zm-4.8 7c.7 0 1.1 0 1.4.1.5.2.9.2 1-.3.1-.3.2-.9 0-1.1s-.8-.3-1.1-.2c-.4.4-.8.9-1.3 1.5zm5.9-12.6c.1 2.2.2 4 .3 6 .1-.2.2-.3.2-.4.1-1.6.2-3.3.2-4.9 0-.2-.4-.4-.7-.7zm-3.1 10.5l.2.2c.5-.2 1-.3 1.4-.6.2-.2.4-.6.4-.9 0-.2-.3-.5-.5-.5-.3 0-.7.1-.8.3-.3.5-.5 1-.7 1.5zm-.9-11.2c-.1-.1-.3-.1-.4-.2-.1.2-.3.4-.3.6 0 .8.1 1.6.1 2.4v2.4h.2c.2-1.7.3-3.5.4-5.2zm1.3-.9h-.3v6.1h.3v-6.1zM75.5 90.7c.7-.9.6-2 0-2.4-.2-.1-.5-.1-.6-.1s-.2.4-.2.5c.2.7.5 1.3.8 2zm7-2c-.1 0-.2-.1-.3-.1-.2.4-.5.7-.4 1.1 0 .2.4.5.7.6 1 .3 1-.8 1.3-1.4-.4.1-.8.3-1.2.5 0-.2 0-.5-.1-.7zm-.2 2.6c.1 1 .7 1.3 1.5 1.5.4.1.6-.2.4-.6-.4-.7-.9-1.1-1.9-.9zm6-12.7c-.8.8-.8.8 0 4.2v-4.2zm-6.4 3.6h.2c0-.3.1-.7.1-1 .1-.3.1-.7.2-1h.2v2.4c.6-1.2.3-2.9-.5-3.3-.1 1-.1 2-.2 2.9zm10 10.5c0-.1 0-.2-.1-.3-.2-.1-.6-.3-.7-.3-.4.2-.7.6-1.1.9.2.1.5.4.7.4.4-.2.8-.5 1.2-.7zm-3.8.1c.2.4.3.8.5 1.1.1.2.4.3.6.4.1-.2.3-.5.3-.7.1-.7-.6-1-1.4-.8zm-7.8.5c-.5-.4-1.1-.7-1.6-.2 0 0 .3.6.5.8.6.4 1 .2 1.1-.6zm4.8 1c.3-.3.4-.6.6-.8-.2-.2-.4-.5-.7-.5-.2 0-.5.3-.6.6l.7.7zm1.1-3.7c.1-.1.2-.1.3-.2-.3-.4-.5-.7-.8-1.1-.5.8-.9 1.4-1.3 2.1 0 0 .1 0 .1.1.3-.5.7-.9 1-1.4.4.2.6.3.7.5zM90 78.5c-.1 1.8-.1 3.5-.1 5.3h.1v-5.3zm-3.8 13.6c.8.8 1 .2 1.3-.4-.2-.2-.4-.3-.7-.5-.2.3-.4.5-.6.9zm-2-1c.3-.5.5-.9.8-1.3-1.1.5-1.3.7-.8 1.3zM79.3 63v-1.2c.1-.5.1-1.3.2-1.4.7-.1 1.5-.1 2.1.2.3.2.3 1.1.3 1.7 0 .2-.5.6-.8.6-.4.2-1.1.1-1.8.1zm-16 9.7v2.9c-.6-.3-1.2-.4-1.7-.7a.77.77 0 010-1.4c.5-.3 1.1-.5 1.7-.8zm44.1 13.2c.2-.4-.4-1.2.6-1.2 1-.1 1.2.1 1.1 1.1v.6c0 .6-.1 1-.9 1s-.9-.5-.9-1.1c.1-.1.1-.2.1-.4zm.1 8.4v-2.4c.5.3 1.1.5 1.5.8.1.1.1.8-.1.9-.3.4-.8.5-1.4.7zm-27.3 11.4c0-.6.1-1 .1-1.5h2c.5 0 .7.3.7.8s-.2.8-.8.8c-.7 0-1.3 0-2-.1zM62.7 94h-1.1v-2.4c0-.2.4-.5.5-.5.2 0 .5.3.5.5.1.9.1 1.6.1 2.4z"/>
    <path fill="#3a3a39" d="M84.6 91.7c-.2-.1-.3-.3-.6-.5-.3.5-.7.9-1 1.4 0 0-.1 0-.1-.1.4-.6.8-1.3 1.3-2.1.3.4.5.7.8 1.1-.2.1-.3.2-.4.2zm0 1.5l.6-.9c.3.2.5.4.7.5-.3.7-.5 1.2-1.3.4zm-2-1c-.5-.5-.4-.8.8-1.3-.3.4-.5.9-.8 1.3z"/>
</svg>
