<?xml version="1.0" encoding="UTF-8" standalone="no"?>
<svg
   xmlns="http://www.w3.org/2000/svg"
   id="svg769"
   version="1.1"
   viewBox="0 0 50.79924 43.280956"
   height="43.280956mm"
   width="50.79924mm">
  <g
     transform="translate(-84.969438,-128.7045)"
     id="layer1">
    <path
       id="path1566"
       d="m 108.95568,171.93486 c -0.95254,-0.11726 -3.11544,-0.86357 -3.11544,-1.07489 0,-0.0454 -0.0533,-0.0825 -0.11848,-0.0825 -0.29369,0 -1.98735,-1.43195 -2.52206,-2.13236 l -0.26323,-0.3448 -4.191586,0.0784 c -2.30539,0.0432 -4.720205,0.0886 -5.366279,0.10062 -0.64605,0.0121 -1.473428,0.0951 -1.838618,0.1841 -1.379373,0.336 -1.355799,0.331 -2.011477,0.42742 -0.372959,0.0548 -0.447107,0.0326 -0.574266,-0.17228 -0.08035,-0.12933 -0.846802,-1.38089 -1.703351,-2.78118 -2.338792,-3.82353 -2.404374,-3.94024 -2.214046,-3.94024 0.254438,0 1.191586,-0.31491 1.191586,-0.4004 0,-0.0473 0.379209,-0.47324 0.8427,-0.94645 0.963223,-0.98347 1.029795,-1.06568 1.766955,-2.18207 1.000237,-1.51478 1.846821,-3.5862 2.091391,-5.11715 0.06008,-0.37621 0.132468,-0.72169 0.16094,-0.76773 0.02847,-0.0461 0.05212,-0.69317 0.05236,-1.43813 0.0014,-2.68525 -0.663615,-4.93036 -2.134244,-7.20571 -0.767828,-1.18796 -1.203595,-1.72259 -2.1514,-2.63934 -0.529869,-0.51252 -0.934582,-0.97847 -0.899379,-1.03541 0.03523,-0.057 0.220297,-0.13295 0.411084,-0.16866 0.843423,-0.15829 2.787146,-1.13956 3.342834,-1.68772 0.14622,-0.14429 0.490925,-0.47201 0.76609,-0.72847 0.541451,-0.50463 1.062104,-1.14482 1.062104,-1.30591 0,-0.0553 0.03909,-0.11581 0.08662,-0.13463 0.131985,-0.0519 0.691822,-1.28817 0.881716,-1.94737 0.09265,-0.322 0.201717,-0.60595 0.242278,-0.63097 0.04054,-0.0251 2.126982,-0.0565 4.636623,-0.0697 2.509616,-0.0145 4.611335,-0.0543 4.670455,-0.0907 0.0591,-0.0364 0.26006,-0.35201 0.44655,-0.70106 0.36106,-0.67578 1.58319,-2.13311 2.00822,-2.39472 0.14043,-0.0864 0.39325,-0.27601 0.56179,-0.42126 0.16866,-0.14526 0.34878,-0.26416 0.40054,-0.26424 0.0519,-7e-5 0.16673,-0.0606 0.25535,-0.13463 0.16818,-0.14019 1.12359,-0.54047 1.9999,-0.83773 0.32953,-0.11172 0.98183,-0.19135 1.83862,-0.22392 1.14009,-0.0437 1.44985,-0.0193 2.19022,0.17132 1.63311,0.42066 3.07102,1.27815 4.26986,2.54634 0.35081,0.37107 0.63809,0.73216 0.63843,0.80238 2.9e-4,0.0702 0.0362,0.12764 0.0794,0.12764 0.0434,0 0.16794,0.17228 0.27662,0.38304 0.10882,0.21065 0.2838,0.5103 0.38905,0.66581 l 0.19134,0.28279 4.81807,-0.01 4.81807,-0.01 0.18845,0.59432 c 0.22633,0.71346 0.67242,1.61714 1.17582,2.38188 0.37238,0.56565 1.68383,1.94075 1.85093,1.94075 0.0495,0 0.15056,0.0591 0.22488,0.13102 0.39882,0.38746 2.32187,1.29891 2.74053,1.29891 0.1052,0 0.21981,0.0458 0.25451,0.10206 0.0347,0.0562 0.1496,0.10207 0.25538,0.10207 0.42153,0 0.28583,0.25398 -0.58966,1.1037 -0.7735,0.75069 -2.16827,2.43399 -2.16827,2.61677 0,0.0304 -0.18072,0.35074 -0.40182,0.71178 -1.16197,1.89845 -1.79651,4.30818 -1.72917,6.56671 0.0193,0.68285 0.0695,1.27405 0.10931,1.31382 0.0398,0.0398 0.77434,-0.0683 1.63239,-0.24033 0.85804,-0.17204 1.56837,-0.30407 1.57848,-0.29365 0.0987,0.10159 3.40733,6.88944 3.40733,6.99008 0,0.0741 -0.0888,0.16746 -0.19737,0.20799 -0.21427,0.0796 -2.04992,1.8378 -2.04992,1.96344 0,0.0422 0.0999,0.14308 0.22175,0.22391 0.26643,0.17687 0.17348,0.38843 -0.17059,0.38843 -0.13392,0 -0.27172,0.0459 -0.30644,0.10207 -0.0347,0.0562 -0.15129,0.10206 -0.25914,0.10206 -0.60552,0 -2.74316,1.34248 -3.5537,2.2318 -0.84026,0.92189 -1.73327,2.64182 -1.90403,3.6671 l -0.0724,0.43413 -3.48951,0.0121 c -1.91923,0.007 -4.28656,0.0244 -5.26076,0.0396 l -1.77128,0.0282 -0.68021,0.71458 c -0.37412,0.39301 -0.9336,0.91523 -1.24327,1.1605 -1.5612,1.23653 -4.02428,1.90717 -6.07641,1.65442 z m 3.38125,-2.25887 c 0.45516,-0.16842 1.10124,-0.45321 1.43571,-0.63275 0.58628,-0.31474 2.13063,-1.68461 2.35444,-2.08845 0.10159,-0.18338 0.26057,-0.19834 2.3932,-0.22416 1.25634,-0.0145 3.41645,-0.0302 4.80024,-0.0333 l 2.51596,-0.005 0.11003,-0.43413 c 0.15032,-0.59226 0.51462,-1.43962 0.92365,-2.14761 0.39765,-0.68832 1.74232,-2.09766 2.25916,-2.36783 1.13717,-0.59444 1.59048,-0.79442 2.04579,-0.90259 0.27932,-0.0664 0.50784,-0.14767 0.50784,-0.18073 0,-0.0331 -0.11075,-0.16407 -0.24602,-0.29128 l -0.24602,-0.23116 -0.7499,0.17204 c -1.44329,0.33117 -2.43187,0.86184 -3.41623,1.83382 -0.92749,0.91583 -1.48038,1.87667 -1.78703,3.1057 -0.0753,0.30141 -0.1841,0.56504 -0.24211,0.58584 -0.0579,0.0217 -2.09173,0.05 -4.5195,0.0649 l -4.41415,0.027 -0.66007,0.72324 c -0.65136,0.71373 -1.92657,1.67717 -2.21988,1.67717 -0.083,0 -0.19448,0.0393 -0.24788,0.0873 -0.17952,0.16166 -1.41865,0.51508 -2.19102,0.62489 -1.02974,0.14646 -2.10029,-2.2e-4 -3.25379,-0.44571 -1.31121,-0.50639 -1.81913,-0.84123 -2.84426,-1.87508 -0.34833,-0.35126 -0.71282,-0.63866 -0.81001,-0.63866 -0.15467,0 -1.52625,0.29859 -2.74468,0.59757 -0.29802,0.0731 -0.028,0.0845 0.99782,0.0422 l 1.40643,-0.0582 0.78971,0.81695 c 0.43434,0.44933 0.9506,0.9253 1.14723,1.05771 0.19665,0.13247 0.38049,0.26629 0.40857,0.29751 0.23309,0.259 2.07938,1.01076 2.86007,1.16451 0.14043,0.0277 0.82993,0.0357 1.53218,0.0169 1.11912,-0.0285 1.37906,-0.0705 2.10444,-0.33884 z m -20.665875,-2.42487 c 0.967181,-0.19786 2.149229,-0.45051 2.626738,-0.56136 0.477534,-0.11075 1.09808,-0.24496 1.378964,-0.29802 0.489405,-0.0924 1.41325,-0.28875 4.085833,-0.86818 0.67416,-0.14622 1.57047,-0.33587 1.99184,-0.42158 0.42133,-0.0856 1.13381,-0.24353 1.58323,-0.35069 0.92462,-0.22053 2.92063,-0.65164 4.49441,-0.97089 0.16866,-0.0343 0.60522,-0.12837 0.97039,-0.2092 1.78426,-0.39496 4.89736,-1.08891 5.26047,-1.17264 0.22464,-0.0519 1.30492,-0.28102 2.40044,-0.50936 2.68778,-0.56022 2.6845,-0.55952 4.54546,-0.97784 0.89887,-0.20196 1.84118,-0.40375 2.09398,-0.44822 0.25282,-0.0444 1.14913,-0.22874 1.99183,-0.40971 0.8427,-0.18096 1.71604,-0.36685 1.94078,-0.41323 0.61652,-0.12716 2.39708,-0.51261 2.86006,-0.619 0.22464,-0.0516 0.61543,-0.1356 0.86823,-0.18676 0.25282,-0.0512 0.89634,-0.18941 1.43005,-0.30742 0.5337,-0.11799 1.11977,-0.24283 1.30235,-0.27739 0.18266,-0.0345 0.33197,-0.10182 0.33197,-0.14935 0,-0.10521 -2.12245,-4.39944 -2.22538,-4.50237 -0.0403,-0.0403 -0.25688,-0.0263 -0.48157,0.0309 -0.22464,0.0572 -1.07498,0.2425 -1.8896,0.41186 -0.81459,0.16938 -1.64197,0.3461 -1.83862,0.39272 -0.62382,0.14791 -1.85876,0.41465 -2.80898,0.60681 -0.50562,0.10231 -1.12617,0.23791 -1.37896,0.30159 -0.25283,0.0637 -0.94231,0.21258 -1.53218,0.33124 -1.51708,0.30494 -2.17276,0.45073 -2.34936,0.52237 -0.0842,0.0343 -0.68181,0.15901 -1.32788,0.27757 -1.38893,0.25476 -2.08384,0.39946 -2.50257,0.52107 -0.16866,0.049 -0.65117,0.16214 -1.07253,0.25132 -1.17995,0.25005 -1.52967,0.32683 -2.24719,0.49349 -1.13167,0.26283 -4.99728,1.10017 -6.02659,1.30544 -0.30899,0.0615 -0.69969,0.14743 -0.86823,0.19062 -0.16866,0.0432 -0.58223,0.13367 -0.91931,0.20099 -0.33708,0.0673 -1.00359,0.2104 -1.48112,0.31843 -0.91825,0.20751 -1.93665,0.42216 -3.11542,0.65659 -0.663471,0.13199 -3.207182,0.68594 -4.749763,1.03443 -0.365165,0.0825 -0.939746,0.19858 -1.276825,0.25811 -0.33708,0.0593 -0.681809,0.13415 -0.766091,0.16624 -0.08421,0.0319 -0.543913,0.13633 -1.021447,0.23164 -2.496104,0.49872 -3.641404,0.73813 -3.779397,0.78998 -0.161422,0.0606 -0.254438,0.0825 -0.791619,0.18507 -0.182655,0.035 -0.331964,0.0936 -0.331964,0.13078 0,0.0371 0.155148,0.30308 0.345018,0.59122 0.189653,0.28815 0.791619,1.26385 1.337462,2.16827 0.545842,0.9044 1.035682,1.64438 1.0885,1.64438 0.05284,0 0.887411,-0.1619 1.854591,-0.35986 z m -1.822572,-0.92998 c -0.03692,-0.16142 -0.177106,-0.73844 -0.311527,-1.28233 -0.134398,-0.54388 -0.244281,-1.11907 -0.244281,-1.27817 0,-0.26383 0.04609,-0.30024 0.52362,-0.41367 0.287978,-0.0685 0.562854,-0.10013 0.610798,-0.0704 0.04802,0.0297 0.296591,0.49015 0.552502,1.02335 0.255886,0.53317 0.509649,0.94201 0.563843,0.90852 0.05429,-0.0335 0.102065,-0.3455 0.106167,-0.69332 0.0048,-0.34779 0.03861,-0.83425 0.07673,-1.08099 0.06539,-0.42542 0.0929,-0.45563 0.528398,-0.58402 0.360509,-0.10616 0.48388,-0.10858 0.573422,-0.0121 0.1648,0.17952 0.763219,2.86363 0.661178,2.96567 -0.04729,0.0473 -0.216677,0.0707 -0.376772,0.0524 -0.27683,-0.0318 -0.303492,-0.082 -0.547966,-1.02945 -0.141395,-0.54775 -0.29179,-0.99592 -0.334329,-0.99592 -0.04247,0 -0.08421,0.4252 -0.09241,0.94486 -0.0072,0.51966 -0.0193,1.03271 -0.02558,1.14011 -0.01206,0.20437 -0.475241,0.42559 -0.706927,0.33667 -0.07046,-0.027 -0.328948,-0.42245 -0.574556,-0.87877 -0.245607,-0.45633 -0.463491,-0.81273 -0.484193,-0.79203 -0.02172,0.0217 0.06298,0.435 0.186033,0.92064 0.123057,0.48564 0.198822,0.90775 0.168661,0.93801 -0.03016,0.0304 -0.219331,0.0818 -0.420107,0.11437 -0.337635,0.0548 -0.370113,0.0371 -0.432317,-0.2343 z m 6.049004,-1.69623 c -0.296712,-1.13046 -0.555542,-2.41629 -0.497971,-2.47388 0.03064,-0.0306 0.226329,-0.056 0.43444,-0.056 0.357903,0 0.381984,0.0217 0.442571,0.38304 0.07818,0.46702 0.256345,0.75844 0.338576,0.55357 0.159492,-0.39712 1.077088,-1.33715 1.413902,-1.44831 0.202682,-0.0668 0.394651,-0.0951 0.426839,-0.063 0.03233,0.0323 -0.131743,0.31061 -0.364345,0.61866 -0.232602,0.30808 -0.422906,0.60808 -0.422906,0.66666 0,0.0586 -0.04584,0.10665 -0.102065,0.10665 -0.05622,0 -0.102065,0.0492 -0.102065,0.10954 0,0.11896 0.251422,0.40129 0.357348,0.40129 0.08131,0 0.973044,0.60655 1.156592,0.78677 0.07432,0.0729 0.177588,0.13247 0.229706,0.13247 0.05212,0 0.09483,0.0637 0.09483,0.14163 0,0.0895 -0.169385,0.16698 -0.461609,0.21089 -0.430869,0.0647 -0.509626,0.0374 -1.18311,-0.41043 -0.666245,-0.44291 -0.73424,-0.46692 -0.887627,-0.31353 -0.144532,0.14453 -0.149599,0.22777 -0.03933,0.64006 0.06973,0.26067 0.113889,0.48466 0.09796,0.49773 -0.01689,0.0121 -0.194238,0.0536 -0.396244,0.09 l -0.36741,0.0664 z m -2.201057,0.0594 c -0.0678,-0.14912 -0.08662,-0.30779 -0.0415,-0.35287 0.04512,-0.0451 0.367144,-0.14839 0.715733,-0.2297 0.691244,-0.16118 0.797097,-0.11992 0.862027,0.33758 0.03257,0.23044 -0.01206,0.26028 -0.577379,0.37859 -0.826799,0.17324 -0.818546,0.17445 -0.95888,-0.13344 z m 8.51912,-0.87012 c -0.0273,-0.0748 -0.15973,-0.59547 -0.29485,-1.15726 l -0.24546,-1.02145 -0.61285,0.0241 c -0.57888,0.0217 -0.61553,0.01 -0.66113,-0.22922 -0.0266,-0.13899 0.002,-0.29023 0.0651,-0.33622 0.17856,-0.1315 2.81521,-0.646 2.93574,-0.57274 0.0355,0.0217 0.0871,0.15804 0.11485,0.30339 0.0403,0.21041 -4.1e-4,0.28361 -0.19882,0.35902 -0.13705,0.0521 -0.36119,0.0948 -0.49797,0.0948 -0.31329,0 -0.31269,0.068 0.0121,1.3498 0.14357,0.56611 0.22392,1.06374 0.1788,1.10582 -0.17421,0.16215 -0.74498,0.22006 -0.7957,0.0806 z m -3.05109,-0.23646 c -0.170832,-0.44489 -0.08976,-0.52922 0.621849,-0.64711 0.722921,-0.11968 0.780571,-0.10327 0.889001,0.25627 0.0859,0.2848 -0.1122,0.3963 -0.872449,0.491 -0.48359,0.0603 -0.582832,0.0446 -0.638401,-0.10013 z m 6.82863,-0.69105 c -0.0955,-0.27092 -0.55161,-2.28782 -0.58126,-2.57059 -0.0306,-0.29333 -0.0169,-0.30125 0.83698,-0.52234 1.51683,-0.39224 2.33789,-0.11413 2.34595,0.79466 0.002,0.29686 -0.0369,0.38375 -0.17542,0.38616 -0.15587,0.002 -0.15273,0.0169 0.0256,0.11895 0.28175,0.15974 0.35414,0.28909 0.35595,0.63599 8.2e-4,0.16408 0.0779,0.38273 0.17107,0.48581 0.21113,0.23333 0.15515,0.2916 -0.34555,0.35875 -0.38688,0.0519 -0.40054,0.043 -0.52955,-0.34801 -0.17494,-0.53018 -0.41463,-0.67008 -0.99807,-0.58259 -0.51158,0.0767 -0.49734,0.0244 -0.28209,1.03891 l 0.0705,0.33199 h -0.42457 c -0.24752,0 -0.44332,-0.0533 -0.46957,-0.12764 z m 1.6536,-1.9693 c 0.13005,-0.0852 0.23646,-0.22126 0.23646,-0.30219 0,-0.26329 -0.32711,-0.33715 -0.99309,-0.22415 -0.61184,0.10375 -0.63326,0.1175 -0.57323,0.36967 0.0343,0.14405 0.0852,0.30181 0.11268,0.35057 0.0724,0.12716 0.93738,-0.01 1.21706,-0.19375 z m -3.85116,1.58191 c -0.0702,-0.16962 -0.0953,-0.34164 -0.0555,-0.38198 0.14525,-0.14719 1.38282,-0.30144 1.47897,-0.18434 0.25608,0.31201 0.16529,0.50103 -0.29808,0.62119 -1.06546,0.27621 -0.98666,0.28004 -1.1254,-0.055 z m 5.78704,-0.17734 c -0.027,-0.0437 0.0121,-0.42291 0.0861,-0.8427 0.0743,-0.41977 0.19134,-1.11437 0.25989,-1.54355 0.0685,-0.42915 0.15346,-0.82472 0.18869,-0.87904 0.0352,-0.0543 0.2326,-0.12981 0.43883,-0.16769 0.36599,-0.0673 0.38604,-0.054 0.86179,0.5726 0.2679,0.35281 0.60488,0.78549 0.74888,0.96151 0.52623,0.64327 0.77254,0.99452 0.77254,1.10165 0,0.0603 -0.2022,0.15225 -0.44945,0.20437 -0.40621,0.0857 -0.46776,0.0721 -0.63966,-0.14019 -0.16311,-0.20147 -0.24988,-0.22536 -0.61034,-0.16769 -0.56647,0.0905 -0.80312,0.23139 -0.80312,0.47806 0,0.1385 -0.11606,0.25442 -0.35424,0.35392 -0.41031,0.17132 -0.43434,0.1747 -0.49997,0.0685 z m 1.47948,-1.52386 c 0.14743,-0.0427 0.14164,-0.0919 -0.0511,-0.44723 -0.23574,-0.43412 -0.36992,-0.51015 -0.36992,-0.20944 0,0.10545 -0.0304,0.34287 -0.0673,0.52787 -0.0606,0.30229 -0.0475,0.32827 0.12764,0.25654 0.10714,-0.0439 0.2695,-0.10134 0.36059,-0.12789 z m 2.18854,0.55634 c -0.0536,-0.17132 -0.57526,-2.64064 -0.59895,-2.83454 -0.0145,-0.11364 0.0861,-0.15322 0.38604,-0.15322 0.36497,0 0.41209,0.0302 0.47963,0.30644 0.0413,0.16866 0.19231,0.77461 0.3358,1.3468 0.35868,1.43026 0.35539,1.46221 -0.15081,1.46221 -0.24008,0 -0.4284,-0.0533 -0.45164,-0.12764 z m 1.64645,-0.25536 c -0.10254,-0.17011 -0.58184,-2.24871 -0.605,-2.62355 -0.0241,-0.37957 -0.005,-0.40587 0.31406,-0.4737 0.40908,-0.0866 0.42167,-0.0618 0.68731,1.36077 0.10231,0.54775 0.23501,0.99587 0.2949,0.9958 0.0598,-7e-5 0.45295,-0.0656 0.87339,-0.14598 0.80832,-0.15418 1.02311,-0.10158 1.02311,0.25053 0,0.13778 -0.12933,0.20678 -0.53626,0.28571 -0.29495,0.0572 -0.858,0.17662 -1.25125,0.26551 -0.83959,0.18966 -0.74326,0.17928 -0.80026,0.0849 z m 3.07115,-0.70586 c -0.028,-0.047 -0.0835,-0.24665 -0.12354,-0.44327 -0.0401,-0.19665 -0.18507,-0.83042 -0.32207,-1.4084 -0.13706,-0.57799 -0.22706,-1.08691 -0.19979,-1.13095 0.0273,-0.0439 0.60028,-0.16456 1.27347,-0.2678 1.14728,-0.1759 1.24032,-0.17711 1.48489,-0.0169 0.44733,0.29309 0.60841,0.62653 0.48029,0.99411 -0.0881,0.25236 -0.0796,0.36386 0.0405,0.5352 0.0835,0.11895 0.15153,0.32274 0.15153,0.45265 0,0.13006 0.0724,0.34666 0.1607,0.48164 0.15853,0.24187 0.15466,0.24722 -0.26339,0.37248 -0.46622,0.1397 -0.60771,0.0519 -0.61087,-0.3794 -0.002,-0.38959 -0.30933,-0.55441 -0.90071,-0.48439 -0.58242,0.069 -0.59535,0.0929 -0.43195,0.79765 0.0516,0.22319 0.0852,0.41439 0.0741,0.42501 -0.0813,0.0789 -0.77308,0.14018 -0.81333,0.0721 z m 1.29231,-1.99268 c 0.23116,-0.0656 0.45949,-0.15298 0.50719,-0.194 0.11534,-0.0992 -0.007,-0.47138 -0.17807,-0.53658 -0.2285,-0.0876 -1.33963,0.1747 -1.32851,0.3137 0.005,0.0702 0.0169,0.21958 0.0256,0.33197 0.0169,0.24129 0.32801,0.26829 0.97384,0.0849 z m 2.77125,0.96363 c -0.52154,-0.13198 -0.92597,-1.01821 -0.80629,-1.76669 0.0924,-0.57767 0.45,-0.96646 1.11934,-1.21689 0.96185,-0.35986 1.61028,-0.21475 2.1916,0.49052 0.26242,0.31838 0.3026,0.44961 0.30062,0.98257 -0.002,0.65406 -0.1274,0.89829 -0.61061,1.1923 -0.51746,0.31491 -1.59216,0.47071 -2.19466,0.31819 z m 1.65961,-0.71899 c 0.28385,-0.18483 0.37571,-0.51694 0.28192,-1.01973 -0.0936,-0.50159 -0.3815,-0.75591 -0.92527,-0.8172 -0.38189,-0.0429 -0.47686,-0.0121 -0.6938,0.22126 -0.70198,0.75745 -0.1981,2.00796 0.73894,1.83406 0.20196,-0.0374 0.47114,-0.13585 0.59821,-0.21837 z m 1.82947,0.20678 c -0.0611,-0.10279 0.51889,-2.95387 0.65124,-3.20117 0.0579,-0.10834 0.21281,-0.1952 0.34786,-0.1952 0.13392,0 0.31368,-0.027 0.39955,-0.0598 0.1426,-0.0548 0.51054,0.38572 1.57668,1.88772 0.0956,0.13464 0.25403,0.3171 0.35233,0.40575 0.24761,0.22319 0.22343,0.48856 -0.0512,0.56213 -0.41378,0.11099 -0.63485,0.0647 -0.86847,-0.18193 -0.20582,-0.21716 -0.27569,-0.23309 -0.66393,-0.15057 -0.92005,0.19521 -0.89356,0.18097 -0.89356,0.48456 0,0.20968 -0.0709,0.32038 -0.26016,0.40662 -0.29915,0.13633 -0.52487,0.15225 -0.59048,0.042 z m 1.73438,-1.61299 c 0.0357,-0.1175 -0.53983,-0.83345 -0.61186,-0.76124 -0.0277,0.0277 -0.0799,0.24913 -0.11606,0.49202 l -0.0659,0.44158 0.38198,-0.0372 c 0.21017,-0.0193 0.39535,-0.0813 0.41171,-0.13512 z m 2.24229,0.65624 c -0.0244,-0.0777 -0.16214,-0.67457 -0.30583,-1.32634 -0.14381,-0.65177 -0.28501,-1.24932 -0.31394,-1.32788 -0.0876,-0.23767 0.0695,-0.34628 0.71132,-0.49132 1.09487,-0.24741 1.44018,-0.25139 1.9139,-0.0217 0.72961,0.3532 1.04232,1.28696 0.69911,2.0876 -0.22874,0.53376 -0.31657,0.60445 -1.08481,0.87371 -0.85423,0.29939 -1.56203,0.38953 -1.61975,0.2063 z m 1.54061,-0.80016 c 0.44995,-0.27437 0.56449,-0.52587 0.45714,-1.00372 -0.17011,-0.75721 -0.46515,-0.92399 -1.36994,-0.77443 -0.32238,0.0533 -0.38304,0.10327 -0.38304,0.31611 0,0.24802 0.27844,1.43118 0.37271,1.58369 0.0893,0.14454 0.59606,0.0777 0.92313,-0.12161 z m -16.3623,8.71801 c 1.60505,-0.21016 2.33958,-0.52466 2.22743,-0.95355 -0.062,-0.23694 -0.74397,-0.46283 -1.12028,-0.37102 -0.15949,0.0388 -0.61174,0.25955 -1.00499,0.49034 -0.39328,0.23091 -0.86442,0.5075 -1.047,0.6149 -0.44735,0.26313 -0.42479,0.41473 0.0512,0.34352 0.21065,-0.0316 0.61288,-0.0873 0.89376,-0.12426 z m -2.14506,-0.60679 c 0.11244,-0.042 0.45712,-0.19038 0.76609,-0.32974 0.309,-0.13923 0.78897,-0.33139 1.0666,-0.42699 0.58729,-0.2022 0.65963,-0.3218 0.36984,-0.61159 -0.28358,-0.28359 -0.74763,-0.26728 -1.43644,0.0504 -0.66335,0.30602 -2.25809,1.37505 -2.19748,1.47309 0.0478,0.0774 1.12127,-0.0391 1.43139,-0.15515 z m 9.91141,-0.80769 c 0.37863,-0.15828 0.42635,-0.24976 0.23163,-0.44445 -0.16311,-0.16311 -0.48998,-0.15443 -1.40729,0.0369 -0.78305,0.16335 -1.00764,0.24908 -0.65263,0.24908 0.11051,0 0.24457,0.0415 0.29792,0.0922 0.24411,0.23212 1.05008,0.26686 1.53037,0.0661 z m -3.03003,-0.93526 c 1.03988,-0.19327 1.66503,-0.35336 1.78643,-0.45721 0.0482,-0.0413 -0.0169,-0.13102 -0.14526,-0.19955 -0.30277,-0.1619 -1.33954,-0.13657 -1.77062,0.0437 -0.18579,0.0777 -0.52806,0.17325 -0.76081,0.21258 -0.47958,0.0811 -0.59972,0.19979 -0.42054,0.41569 0.15467,0.18652 0.23116,0.18555 1.31073,-0.0145 z m -29.118494,-2.42265 c 0.297726,-0.0695 0.550548,-0.17035 0.561816,-0.22392 0.01206,-0.0536 -0.278302,-0.17807 -0.643468,-0.27668 -1.050304,-0.28342 -1.027406,-0.23647 -0.406619,-0.83493 0.809402,-0.78028 1.342939,-1.37631 1.700938,-1.9001 0.96139,-1.40669 1.85476,-3.63603 2.082778,-5.1974 0.32183,-2.20384 -0.181208,-4.76128 -1.379446,-7.0144 -0.605103,-1.13775 -1.146361,-1.85597 -2.178352,-2.89052 -0.468003,-0.46916 -0.834858,-0.90116 -0.815241,-0.96001 0.0193,-0.0589 0.286216,-0.16987 0.592411,-0.24657 0.306219,-0.0767 0.947468,-0.33233 1.424977,-0.56792 1.616343,-0.79746 3.208195,-2.67208 3.580262,-4.21623 0.06756,-0.28088 0.194961,-0.56819 0.282766,-0.6384 0.121609,-0.0972 1.111037,-0.12764 4.149992,-0.12764 h 3.99028 l 0.1426,-0.33197 c 0.33011,-0.76821 1.33356,-1.93788 2.30788,-2.69017 1.20068,-0.92708 3.03379,-1.44274 4.68744,-1.31857 0.49956,0.0374 1.00518,0.10544 1.12358,0.15105 0.11847,0.0454 0.42216,0.14163 0.67498,0.21354 1.57899,0.44978 3.37553,1.97509 4.17724,3.54653 l 0.22126,0.43391 4.15925,-0.007 4.15926,-0.007 0.2625,0.69513 c 0.40918,1.08353 0.9147,1.95414 1.51891,2.61585 0.29273,0.32063 1.56944,1.29686 1.69599,1.29686 0.0449,0 0.15419,0.0639 0.24286,0.14211 0.21475,0.18942 1.44293,0.67206 1.89773,0.74588 0.19931,0.0323 0.38918,0.10206 0.4218,0.15466 0.0326,0.0528 -0.30275,0.44877 -0.74527,0.88 -1.21583,1.18478 -1.7782,1.9791 -2.71225,3.83075 -0.59046,1.17054 -0.96708,2.61144 -1.05923,4.05239 -0.0608,0.95087 0.084,2.61834 0.24105,2.77535 0.0437,0.0437 0.21547,0.0429 0.38159,-0.001 l 0.30219,-0.0808 -0.0492,-0.81029 c -0.11799,-1.94211 -0.0121,-3.08924 0.42076,-4.53859 0.1882,-0.63065 0.79741,-2.1382 0.90811,-2.24721 0.0285,-0.028 0.16408,-0.25666 0.30101,-0.50791 0.47172,-0.865 1.13533,-1.72362 2.0813,-2.69295 l 0.94827,-0.9717 -0.61789,-0.16914 c -0.8096,-0.22174 -2.14757,-0.87503 -2.65787,-1.29772 -1.5758,-1.30525 -2.2608,-2.23694 -2.76287,-3.75785 l -0.21909,-0.66395 -4.41473,-0.0265 -4.41476,-0.0265 -0.17325,-0.31741 c -0.57173,-1.04664 -1.19561,-1.85076 -1.87932,-2.42215 -0.8954,-0.74833 -1.55276,-1.10739 -2.82809,-1.5448 -0.86664,-0.29725 -1.07436,-0.32893 -2.15683,-0.32893 -0.65884,0 -1.2845,0.0473 -1.39038,0.10496 -0.10592,0.0577 -0.41359,0.15515 -0.68379,0.21668 -0.27019,0.0615 -0.79881,0.25572 -1.17466,0.43147 -1.51884,0.71021 -2.59602,1.73921 -3.39027,3.23858 l -0.35749,0.6749 -1.73648,0.0217 c -0.95507,0.0121 -2.87556,0.0241 -4.26777,0.0256 -1.933709,0.002 -2.54055,0.0335 -2.570397,0.13102 -0.241289,0.78814 -0.747729,1.9685 -1.025114,2.3889 -0.576824,0.87426 -1.846049,2.07491 -2.591944,2.4519 -0.204613,0.10351 -0.441148,0.23863 -0.525406,0.30028 -0.233085,0.17059 -1.227965,0.53643 -1.667472,0.61311 l -0.39067,0.068 0.871558,0.88097 c 1.111688,1.1237 1.213994,1.24519 1.773856,2.10671 0.758394,1.16699 1.11123,1.87925 1.492827,3.01331 0.96928,2.88074 0.840697,5.68644 -0.397933,8.68225 -0.151046,0.36512 -0.361377,0.78593 -0.467592,0.93509 -0.106167,0.14912 -0.193031,0.31409 -0.193031,0.36649 0,0.3408 -2.369284,3.19293 -2.652387,3.19293 -0.233567,0 -0.08662,0.30682 0.175416,0.36615 0.154425,0.035 0.418781,0.10062 0.587321,0.14598 0.413085,0.11099 0.432654,0.11027 1.052041,-0.0343 z m 42.387454,-1.07149 c 0.0217,-0.0668 -0.0323,-0.12137 -0.12137,-0.12137 -0.089,0 -0.16166,0.0729 -0.16166,0.16166 0,0.18049 0.21981,0.14888 0.28303,-0.0405 z m -33.480316,-0.84975 c 0.70227,-0.1648 1.437716,-0.3413 1.634346,-0.39216 0.19665,-0.0509 0.81714,-0.19352 1.37896,-0.31725 2.01317,-0.44305 1.94951,-0.40409 1.63953,-1.00354 -0.29389,-0.56833 -2.16744,-1.91663 -2.37495,-1.70912 -0.0902,0.0902 0.2215,1.35365 0.39769,1.61265 0.25417,0.37351 0.24609,0.80142 -0.0145,0.80142 -0.15925,0 -1.08609,-0.60504 -1.69309,-1.10511 -0.0579,-0.0475 -0.436834,-0.30513 -0.842174,-0.57216 -0.40534,-0.26706 -0.76293,-0.52751 -0.794635,-0.57881 -0.164076,-0.26544 -0.255549,-0.0251 -0.239117,0.62796 0.01448,0.60631 0.06442,0.78945 0.308294,1.14913 0.34456,0.5083 0.37033,0.68415 0.08952,0.61073 -0.11244,-0.0294 -0.204371,-0.0941 -0.204371,-0.14357 0,-0.0497 -0.07022,-0.0902 -0.156114,-0.0902 -0.0859,0 -0.4293,-0.13802 -0.763171,-0.30644 -0.333871,-0.16866 -0.66598,-0.30643 -0.738005,-0.30643 -0.0719,0 -0.452536,-0.15443 -0.845595,-0.34311 -0.393083,-0.18869 -0.846609,-0.37485 -1.007886,-0.41362 -0.290463,-0.0697 -0.292562,-0.0671 -0.223192,0.30267 0.08928,0.47519 0.982068,1.62163 1.474128,1.89267 0.203647,0.1122 0.528784,0.31862 0.722635,0.45881 0.394361,0.2852 0.245245,0.29673 2.252258,-0.17445 z m 6.508706,-1.35394 c 0.0835,-0.0835 0.45355,-1.91897 0.39798,-1.97454 -0.11364,-0.11364 -0.6403,0.26127 -0.91294,0.64977 -0.29126,0.41499 -0.48677,1.08225 -0.39646,1.35315 0.0321,0.0965 0.16456,0.12088 0.45017,0.0825 0.22247,-0.0299 0.43008,-0.0799 0.46125,-0.111 z m 1.41743,-0.20558 c 0.16311,-0.0787 0.57238,-0.27046 0.90946,-0.42623 0.33708,-0.15563 0.77374,-0.38302 0.97037,-0.505 0.19665,-0.12185 0.49099,-0.30361 0.65415,-0.4036 0.43391,-0.26597 0.15467,-0.35918 -0.6584,-0.21981 -0.49479,0.0847 -0.80634,0.21378 -1.20044,0.49751 -0.29275,0.21064 -0.57549,0.38304 -0.62836,0.38304 -0.13874,0 -0.41415,0.42257 -0.41415,0.63561 0,0.21836 -0.005,0.21788 0.36737,0.0386 z m -7.14453,-8.06115 c 0.0097,-1.11341 0.03692,-2.0457 0.06298,-2.07178 0.0261,-0.0261 0.15249,0.24136 0.28107,0.59432 0.67479,1.85312 1.24573,3.30304 1.35028,3.429 0.15973,0.19254 2.62994,0.14139 2.63084,-0.0545 3.1e-4,-0.07 -0.13271,-0.4148 -0.29551,-0.7661 -0.2769,-0.59728 -0.61536,-1.33637 -1.11108,-2.42622 -0.1151,-0.2528 -0.33532,-0.74913 -0.48963,-1.10293 l -0.28052,-0.64325 0.26672,-0.63355 c 0.14671,-0.34845 0.60786,-1.41497 1.02483,-2.37004 0.41694,-0.95504 0.75084,-1.74564 0.74196,-1.75686 -0.0217,-0.0261 -1.93357,-0.0603 -2.41421,-0.0434 l -0.36191,0.0121 -0.57808,1.76201 c -0.31795,0.96911 -0.60875,1.87293 -0.64619,2.00848 -0.13271,0.48017 -0.275122,-0.0627 -0.200033,-0.76298 0.03836,-0.3571 0.03691,-1.17987 -0.0024,-1.82838 l -0.07263,-1.17913 H 98.574859 97.26085 v 4.88594 c 0,2.68728 0.03185,4.91792 0.07094,4.95696 0.03909,0.0391 0.648077,0.0582 1.353411,0.0425 l 1.282424,-0.0285 z m 7.7421,1.63499 c 0.029,-0.17904 0.0649,-0.44057 0.0801,-0.58102 0.027,-0.25142 0.0417,-0.25536 0.94686,-0.25536 h 0.91931 l 0.10737,0.56179 0.10738,0.5618 0.5055,0.0676 c 0.71156,0.0953 1.96534,0.10061 2.02221,0.01 0.0263,-0.0425 -0.27191,-1.6627 -0.66248,-3.60063 -0.39057,-1.93795 -0.75485,-3.79935 -0.80952,-4.13643 -0.0545,-0.33708 -0.14815,-0.92059 -0.20799,-1.29671 -0.0598,-0.37609 -0.1636,-0.72951 -0.23092,-0.78537 -0.11364,-0.0943 -3.19938,-0.0951 -3.2648,-8.2e-4 -0.0263,0.0379 -0.43972,1.78394 -0.73503,3.10437 -0.0753,0.33708 -0.30724,1.34832 -0.51518,2.24719 -1.10857,4.79172 -1.04601,4.41778 -0.74623,4.46019 0.13295,0.0193 0.73436,0.0193 1.3364,0.002 l 1.09463,-0.0319 0.0526,-0.32566 z m 0.53595,-3.00698 c -0.0415,-0.0734 0.0794,-1.13867 0.35998,-3.16988 0.13367,-0.9675 0.31191,-1.27811 0.36449,-0.63503 0.0169,0.19665 0.11944,1.04259 0.22995,1.87993 0.28346,2.15135 0.31003,2.00158 -0.35518,2.00158 -0.30566,0 -0.57528,-0.0345 -0.59912,-0.0767 z m 8.12505,-0.3575 0.0268,-3.70279 0.76609,-0.0512 0.76609,-0.0511 -0.0217,-1.02145 c -0.0121,-0.56181 -0.0241,-1.10189 -0.0256,-1.20021 -0.005,-0.16577 -0.20558,-0.1788 -2.75662,-0.1788 -2.09019,0 -2.77139,0.0306 -2.83297,0.12764 -0.0968,0.1525 -0.16118,1.76643 -0.0837,2.094 0.0495,0.20871 0.11462,0.22995 0.70551,0.22995 0.49946,0 0.66552,0.0376 0.71308,0.16166 0.034,0.0888 0.062,1.76659 0.062,3.72832 v 3.56672 h 1.3266 1.32663 z m 7.12592,1.57735 v -2.12541 l 0.41328,-1.06664 c 0.2273,-0.58664 0.45249,-1.15855 0.50041,-1.27091 0.048,-0.11244 0.14236,-0.36517 0.20992,-0.5618 0.0676,-0.19665 0.16287,-0.44944 0.21185,-0.56181 0.049,-0.11244 0.15443,-0.38814 0.23429,-0.61287 0.0799,-0.22464 0.24204,-0.66075 0.3603,-0.96895 0.11823,-0.30819 0.21498,-0.57383 0.21498,-0.59028 0,-0.0169 -0.60696,-0.0169 -1.34877,-0.001 l -1.34878,0.0285 -0.17566,0.56181 c -0.0965,0.309 -0.29819,0.96414 -0.44795,1.45591 -0.14984,0.49177 -0.30774,0.87224 -0.35103,0.84548 -0.0432,-0.0268 -0.15901,-0.33718 -0.25695,-0.68982 -0.2297,-0.82591 -0.60037,-1.93306 -0.7022,-2.09677 -0.10568,-0.16987 -2.72313,-0.18387 -2.72313,-0.0145 0,0.0994 0.58052,1.49285 1.12296,2.69567 0.10134,0.22464 0.30878,0.70736 0.46096,1.07253 0.15225,0.36516 0.38598,0.90107 0.51963,1.1909 0.2273,0.49298 0.24356,0.65102 0.25205,2.45149 0.005,1.05849 0.0335,2.02796 0.0637,2.15437 0.0531,0.22416 0.0881,0.22971 1.42235,0.22971 h 1.36789 z"
       style="display:inline;fill:#018471;fill-opacity:1;stroke-width:0.10214543" />
  </g>
</svg>
