<svg xmlns="http://www.w3.org/2000/svg" width="50.79924mm" height="163.581566" viewBox="0 0 50.79924 43.280956">
    <path class="color-main color-green" fill="#018471" d="M23.986242 43.23036c-.95254-.11726-3.11544-.86357-3.11544-1.07489 0-.0454-.0533-.0825-.11848-.0825-.29369 0-1.98735-1.43195-2.52206-2.13236l-.26323-.3448-4.191586.0784c-2.30539.0432-4.720205.0886-5.366279.10062-.64605.0121-1.473428.0951-1.838618.1841-1.379373.336-1.355799.331-2.011477.42742-.372959.0548-.447107.0326-.574266-.17228-.08035-.12933-.846802-1.38089-1.703351-2.78118-2.338792-3.82353-2.404374-3.94024-2.214046-3.94024.254438 0 1.191586-.31491 1.191586-.4004 0-.0473.379209-.47324.8427-.94645.963223-.98347 1.029795-1.06568 1.766955-2.18207 1.000237-1.51478 1.846821-3.5862 2.091391-5.11715.06008-.37621.132468-.72169.16094-.76773.02847-.0461.05212-.69317.05236-1.43813.0014-2.68525-.663615-4.93036-2.134244-7.20571-.767828-1.18796-1.203595-1.72259-2.1514-2.63934-.529869-.51252-.934582-.97847-.899379-1.03541.03523-.057.220297-.13295.411084-.16866.843423-.15829 2.787146-1.13956 3.342834-1.68772.14622-.14429.490925-.47201.76609-.72847.541451-.50463 1.062104-1.14482 1.062104-1.30591 0-.0553.03909-.11581.08662-.13463.131985-.0519.691822-1.28817.881716-1.94737.09265-.322.201717-.60595.242278-.63097.04054-.0251 2.126982-.0565 4.636623-.0697 2.509616-.0145 4.611335-.0543 4.670455-.0907.0591-.0364.26006-.35201.44655-.70106.36106-.67578 1.58319-2.13311 2.00822-2.39472.14043-.0864.39325-.27601.56179-.42126.16866-.14526.34878-.26416.40054-.26424.0519-.00007.16673-.0606.25535-.13463.16818-.14019 1.12359-.54047 1.9999-.83773.32953-.11172.98183-.19135 1.83862-.22392 1.14009-.0437 1.44985-.0193 2.19022.17132 1.63311.42066 3.07102 1.27815 4.26986 2.54634.35081.37107.63809.73216.63843.80238.00029.0702.0362.12764.0794.12764.0434 0 .16794.17228.27662.38304.10882.21065.2838.5103.38905.66581l.19134.28279 4.81807-.01 4.81807-.01.18845.59432c.22633.71346.67242 1.61714 1.17582 2.38188.37238.56565 1.68383 1.94075 1.85093 1.94075.0495 0 .15056.0591.22488.13102.39882.38746 2.32187 1.29891 2.74053 1.29891.1052 0 .21981.0458.25451.10206.0347.0562.1496.10207.25538.10207.42153 0 .28583.25398-.58966 1.1037-.7735.75069-2.16827 2.43399-2.16827 2.61677 0 .0304-.18072.35074-.40182.71178-1.16197 1.89845-1.79651 4.30818-1.72917 6.56671.0193.68285.0695 1.27405.10931 1.31382.0398.0398.77434-.0683 1.63239-.24033.85804-.17204 1.56837-.30407 1.57848-.29365.0987.10159 3.40733 6.88944 3.40733 6.99008 0 .0741-.0888.16746-.19737.20799-.21427.0796-2.04992 1.8378-2.04992 1.96344 0 .0422.0999.14308.22175.22391.26643.17687.17348.38843-.17059.38843-.13392 0-.27172.0459-.30644.10207-.0347.0562-.15129.10206-.25914.10206-.60552 0-2.74316 1.34248-3.5537 2.2318-.84026.92189-1.73327 2.64182-1.90403 3.6671l-.0724.43413-3.48951.0121c-1.91923.007-4.28656.0244-5.26076.0396l-1.77128.0282-.68021.71458c-.37412.39301-.9336.91523-1.24327 1.1605-1.5612 1.23653-4.02428 1.90717-6.07641 1.65442zm3.38125-2.25887c.45516-.16842 1.10124-.45321 1.43571-.63275.58628-.31474 2.13063-1.68461 2.35444-2.08845.10159-.18338.26057-.19834 2.3932-.22416 1.25634-.0145 3.41645-.0302 4.80024-.0333l2.51596-.005.11003-.43413c.15032-.59226.51462-1.43962.92365-2.14761.39765-.68832 1.74232-2.09766 2.25916-2.36783 1.13717-.59444 1.59048-.79442 2.04579-.90259.27932-.0664.50784-.14767.50784-.18073 0-.0331-.11075-.16407-.24602-.29128l-.24602-.23116-.7499.17204c-1.44329.33117-2.43187.86184-3.41623 1.83382-.92749.91583-1.48038 1.87667-1.78703 3.1057-.0753.30141-.1841.56504-.24211.58584-.0579.0217-2.09173.05-4.5195.0649l-4.41415.027-.66007.72324c-.65136.71373-1.92657 1.67717-2.21988 1.67717-.083 0-.19448.0393-.24788.0873-.17952.16166-1.41865.51508-2.19102.62489-1.02974.14646-2.10029-.00022-3.25379-.44571-1.31121-.50639-1.81913-.84123-2.84426-1.87508-.34833-.35126-.71282-.63866-.81001-.63866-.15467 0-1.52625.29859-2.74468.59757-.29802.0731-.028.0845.99782.0422l1.40643-.0582.78971.81695c.43434.44933.9506.9253 1.14723 1.05771.19665.13247.38049.26629.40857.29751.23309.259 2.07938 1.01076 2.86007 1.16451.14043.0277.82993.0357 1.53218.0169 1.11912-.0285 1.37906-.0705 2.10444-.33884zM6.701617 38.54662c.967181-.19786 2.149229-.45051 2.626738-.56136.477534-.11075 1.09808-.24496 1.378964-.29802.489405-.0924 1.41325-.28875 4.085833-.86818.67416-.14622 1.57047-.33587 1.99184-.42158.42133-.0856 1.13381-.24353 1.58323-.35069.92462-.22053 2.92063-.65164 4.49441-.97089.16866-.0343.60522-.12837.97039-.2092 1.78426-.39496 4.89736-1.08891 5.26047-1.17264.22464-.0519 1.30492-.28102 2.40044-.50936 2.68778-.56022 2.6845-.55952 4.54546-.97784.89887-.20196 1.84118-.40375 2.09398-.44822.25282-.0444 1.14913-.22874 1.99183-.40971.8427-.18096 1.71604-.36685 1.94078-.41323.61652-.12716 2.39708-.51261 2.86006-.619.22464-.0516.61543-.1356.86823-.18676.25282-.0512.89634-.18941 1.43005-.30742.5337-.11799 1.11977-.24283 1.30235-.27739.18266-.0345.33197-.10182.33197-.14935 0-.10521-2.12245-4.39944-2.22538-4.50237-.0403-.0403-.25688-.0263-.48157.0309-.22464.0572-1.07498.2425-1.8896.41186-.81459.16938-1.64197.3461-1.83862.39272-.62382.14791-1.85876.41465-2.80898.60681-.50562.10231-1.12617.23791-1.37896.30159-.25283.0637-.94231.21258-1.53218.33124-1.51708.30494-2.17276.45073-2.34936.52237-.0842.0343-.68181.15901-1.32788.27757-1.38893.25476-2.08384.39946-2.50257.52107-.16866.049-.65117.16214-1.07253.25132-1.17995.25005-1.52967.32683-2.24719.49349-1.13167.26283-4.99728 1.10017-6.02659 1.30544-.30899.0615-.69969.14743-.86823.19062-.16866.0432-.58223.13367-.91931.20099-.33708.0673-1.00359.2104-1.48112.31843-.91825.20751-1.93665.42216-3.11542.65659-.663471.13199-3.207182.68594-4.749763 1.03443-.365165.0825-.939746.19858-1.276825.25811-.33708.0593-.681809.13415-.766091.16624-.08421.0319-.543913.13633-1.021447.23164-2.496104.49872-3.641404.73813-3.779397.78998-.161422.0606-.254438.0825-.791619.18507-.182655.035-.331964.0936-.331964.13078 0 .0371.155148.30308.345018.59122.189653.28815.791619 1.26385 1.337462 2.16827.545842.9044 1.035682 1.64438 1.0885 1.64438.05284 0 .887411-.1619 1.854591-.35986zm-1.822572-.92998c-.03692-.16142-.177106-.73844-.311527-1.28233-.134398-.54388-.244281-1.11907-.244281-1.27817 0-.26383.04609-.30024.52362-.41367.287978-.0685.562854-.10013.610798-.0704.04802.0297.296591.49015.552502 1.02335.255886.53317.509649.94201.563843.90852.05429-.0335.102065-.3455.106167-.69332.0048-.34779.03861-.83425.07673-1.08099.06539-.42542.0929-.45563.528398-.58402.360509-.10616.48388-.10858.573422-.0121.1648.17952.763219 2.86363.661178 2.96567-.04729.0473-.216677.0707-.376772.0524-.27683-.0318-.303492-.082-.547966-1.02945-.141395-.54775-.29179-.99592-.334329-.99592-.04247 0-.08421.4252-.09241.94486-.0072.51966-.0193 1.03271-.02558 1.14011-.01206.20437-.475241.42559-.706927.33667-.07046-.027-.328948-.42245-.574556-.87877-.245607-.45633-.463491-.81273-.484193-.79203-.02172.0217.06298.435.186033.92064.123057.48564.198822.90775.168661.93801-.03016.0304-.219331.0818-.420107.11437-.337635.0548-.370113.0371-.432317-.2343zm6.049004-1.69623c-.296712-1.13046-.555542-2.41629-.497971-2.47388.03064-.0306.226329-.056.43444-.056.357903 0 .381984.0217.442571.38304.07818.46702.256345.75844.338576.55357.159492-.39712 1.077088-1.33715 1.413902-1.44831.202682-.0668.394651-.0951.426839-.063.03233.0323-.131743.31061-.364345.61866-.232602.30808-.422906.60808-.422906.66666 0 .0586-.04584.10665-.102065.10665-.05622 0-.102065.0492-.102065.10954 0 .11896.251422.40129.357348.40129.08131 0 .973044.60655 1.156592.78677.07432.0729.177588.13247.229706.13247.05212 0 .09483.0637.09483.14163 0 .0895-.169385.16698-.461609.21089-.430869.0647-.509626.0374-1.18311-.41043-.666245-.44291-.73424-.46692-.887627-.31353-.144532.14453-.149599.22777-.03933.64006.06973.26067.113889.48466.09796.49773-.01689.0121-.194238.0536-.396244.09l-.36741.0664zm-2.201057.0594c-.0678-.14912-.08662-.30779-.0415-.35287.04512-.0451.367144-.14839.715733-.2297.691244-.16118.797097-.11992.862027.33758.03257.23044-.01206.26028-.577379.37859-.826799.17324-.818546.17445-.95888-.13344zm8.51912-.87012c-.0273-.0748-.15973-.59547-.29485-1.15726l-.24546-1.02145-.61285.0241c-.57888.0217-.61553.01-.66113-.22922-.0266-.13899.002-.29023.0651-.33622.17856-.1315 2.81521-.646 2.93574-.57274.0355.0217.0871.15804.11485.30339.0403.21041-.00041.28361-.19882.35902-.13705.0521-.36119.0948-.49797.0948-.31329 0-.31269.068.0121 1.3498.14357.56611.22392 1.06374.1788 1.10582-.17421.16215-.74498.22006-.7957.0806zm-3.05109-.23646c-.170832-.44489-.08976-.52922.621849-.64711.722921-.11968.780571-.10327.889001.25627.0859.2848-.1122.3963-.872449.491-.48359.0603-.582832.0446-.638401-.10013zm6.82863-.69105c-.0955-.27092-.55161-2.28782-.58126-2.57059-.0306-.29333-.0169-.30125.83698-.52234 1.51683-.39224 2.33789-.11413 2.34595.79466.002.29686-.0369.38375-.17542.38616-.15587.002-.15273.0169.0256.11895.28175.15974.35414.28909.35595.63599.00082.16408.0779.38273.17107.48581.21113.23333.15515.2916-.34555.35875-.38688.0519-.40054.043-.52955-.34801-.17494-.53018-.41463-.67008-.99807-.58259-.51158.0767-.49734.0244-.28209 1.03891l.0705.33199h-.42457c-.24752 0-.44332-.0533-.46957-.12764zm1.6536-1.9693c.13005-.0852.23646-.22126.23646-.30219 0-.26329-.32711-.33715-.99309-.22415-.61184.10375-.63326.1175-.57323.36967.0343.14405.0852.30181.11268.35057.0724.12716.93738-.01 1.21706-.19375zm-3.85116 1.58191c-.0702-.16962-.0953-.34164-.0555-.38198.14525-.14719 1.38282-.30144 1.47897-.18434.25608.31201.16529.50103-.29808.62119-1.06546.27621-.98666.28004-1.1254-.055zm5.78704-.17734c-.027-.0437.0121-.42291.0861-.8427.0743-.41977.19134-1.11437.25989-1.54355.0685-.42915.15346-.82472.18869-.87904.0352-.0543.2326-.12981.43883-.16769.36599-.0673.38604-.054.86179.5726.2679.35281.60488.78549.74888.96151.52623.64327.77254.99452.77254 1.10165 0 .0603-.2022.15225-.44945.20437-.40621.0857-.46776.0721-.63966-.14019-.16311-.20147-.24988-.22536-.61034-.16769-.56647.0905-.80312.23139-.80312.47806 0 .1385-.11606.25442-.35424.35392-.41031.17132-.43434.1747-.49997.0685zm1.47948-1.52386c.14743-.0427.14164-.0919-.0511-.44723-.23574-.43412-.36992-.51015-.36992-.20944 0 .10545-.0304.34287-.0673.52787-.0606.30229-.0475.32827.12764.25654.10714-.0439.2695-.10134.36059-.12789zm2.18854.55634c-.0536-.17132-.57526-2.64064-.59895-2.83454-.0145-.11364.0861-.15322.38604-.15322.36497 0 .41209.0302.47963.30644.0413.16866.19231.77461.3358 1.3468.35868 1.43026.35539 1.46221-.15081 1.46221-.24008 0-.4284-.0533-.45164-.12764zm1.64645-.25536c-.10254-.17011-.58184-2.24871-.605-2.62355-.0241-.37957-.005-.40587.31406-.4737.40908-.0866.42167-.0618.68731 1.36077.10231.54775.23501.99587.2949.9958.0598-.00007.45295-.0656.87339-.14598.80832-.15418 1.02311-.10158 1.02311.25053 0 .13778-.12933.20678-.53626.28571-.29495.0572-.858.17662-1.25125.26551-.83959.18966-.74326.17928-.80026.0849zm3.07115-.70586c-.028-.047-.0835-.24665-.12354-.44327-.0401-.19665-.18507-.83042-.32207-1.4084-.13706-.57799-.22706-1.08691-.19979-1.13095.0273-.0439.60028-.16456 1.27347-.2678 1.14728-.1759 1.24032-.17711 1.48489-.0169.44733.29309.60841.62653.48029.99411-.0881.25236-.0796.36386.0405.5352.0835.11895.15153.32274.15153.45265 0 .13006.0724.34666.1607.48164.15853.24187.15466.24722-.26339.37248-.46622.1397-.60771.0519-.61087-.3794-.002-.38959-.30933-.55441-.90071-.48439-.58242.069-.59535.0929-.43195.79765.0516.22319.0852.41439.0741.42501-.0813.0789-.77308.14018-.81333.0721zm1.29231-1.99268c.23116-.0656.45949-.15298.50719-.194.11534-.0992-.007-.47138-.17807-.53658-.2285-.0876-1.33963.1747-1.32851.3137.005.0702.0169.21958.0256.33197.0169.24129.32801.26829.97384.0849zm2.77125.96363c-.52154-.13198-.92597-1.01821-.80629-1.76669.0924-.57767.45-.96646 1.11934-1.21689.96185-.35986 1.61028-.21475 2.1916.49052.26242.31838.3026.44961.30062.98257-.002.65406-.1274.89829-.61061 1.1923-.51746.31491-1.59216.47071-2.19466.31819zm1.65961-.71899c.28385-.18483.37571-.51694.28192-1.01973-.0936-.50159-.3815-.75591-.92527-.8172-.38189-.0429-.47686-.0121-.6938.22126-.70198.75745-.1981 2.00796.73894 1.83406.20196-.0374.47114-.13585.59821-.21837zm1.82947.20678c-.0611-.10279.51889-2.95387.65124-3.20117.0579-.10834.21281-.1952.34786-.1952.13392 0 .31368-.027.39955-.0598.1426-.0548.51054.38572 1.57668 1.88772.0956.13464.25403.3171.35233.40575.24761.22319.22343.48856-.0512.56213-.41378.11099-.63485.0647-.86847-.18193-.20582-.21716-.27569-.23309-.66393-.15057-.92005.19521-.89356.18097-.89356.48456 0 .20968-.0709.32038-.26016.40662-.29915.13633-.52487.15225-.59048.042zm1.73438-1.61299c.0357-.1175-.53983-.83345-.61186-.76124-.0277.0277-.0799.24913-.11606.49202l-.0659.44158.38198-.0372c.21017-.0193.39535-.0813.41171-.13512zm2.24229.65624c-.0244-.0777-.16214-.67457-.30583-1.32634-.14381-.65177-.28501-1.24932-.31394-1.32788-.0876-.23767.0695-.34628.71132-.49132 1.09487-.24741 1.44018-.25139 1.9139-.0217.72961.3532 1.04232 1.28696.69911 2.0876-.22874.53376-.31657.60445-1.08481.87371-.85423.29939-1.56203.38953-1.61975.2063zm1.54061-.80016c.44995-.27437.56449-.52587.45714-1.00372-.17011-.75721-.46515-.92399-1.36994-.77443-.32238.0533-.38304.10327-.38304.31611 0 .24802.27844 1.43118.37271 1.58369.0893.14454.59606.0777.92313-.12161zm-16.3623 8.71801c1.60505-.21016 2.33958-.52466 2.22743-.95355-.062-.23694-.74397-.46283-1.12028-.37102-.15949.0388-.61174.25955-1.00499.49034-.39328.23091-.86442.5075-1.047.6149-.44735.26313-.42479.41473.0512.34352.21065-.0316.61288-.0873.89376-.12426zm-2.14506-.60679c.11244-.042.45712-.19038.76609-.32974.309-.13923.78897-.33139 1.0666-.42699.58729-.2022.65963-.3218.36984-.61159-.28358-.28359-.74763-.26728-1.43644.0504-.66335.30602-2.25809 1.37505-2.19748 1.47309.0478.0774 1.12127-.0391 1.43139-.15515zm9.91141-.80769c.37863-.15828.42635-.24976.23163-.44445-.16311-.16311-.48998-.15443-1.40729.0369-.78305.16335-1.00764.24908-.65263.24908.11051 0 .24457.0415.29792.0922.24411.23212 1.05008.26686 1.53037.0661zm-3.03003-.93526c1.03988-.19327 1.66503-.35336 1.78643-.45721.0482-.0413-.0169-.13102-.14526-.19955-.30277-.1619-1.33954-.13657-1.77062.0437-.18579.0777-.52806.17325-.76081.21258-.47958.0811-.59972.19979-.42054.41569.15467.18652.23116.18555 1.31073-.0145zM5.324198 32.33616c.297726-.0695.550548-.17035.561816-.22392.01206-.0536-.278302-.17807-.643468-.27668-1.050304-.28342-1.027406-.23647-.406619-.83493.809402-.78028 1.342939-1.37631 1.700938-1.9001.96139-1.40669 1.85476-3.63603 2.082778-5.1974.32183-2.20384-.181208-4.76128-1.379446-7.0144-.605103-1.13775-1.146361-1.85597-2.178352-2.89052-.468003-.46916-.834858-.90116-.815241-.96001.0193-.0589.286216-.16987.592411-.24657.306219-.0767.947468-.33233 1.424977-.56792 1.616343-.79746 3.208195-2.67208 3.580262-4.21623.06756-.28088.194961-.56819.282766-.6384.121609-.0972 1.111037-.12764 4.149992-.12764h3.99028l.1426-.33197c.33011-.76821 1.33356-1.93788 2.30788-2.69017 1.20068-.92708 3.03379-1.44274 4.68744-1.31857.49956.0374 1.00518.10544 1.12358.15105.11847.0454.42216.14163.67498.21354 1.57899.44978 3.37553 1.97509 4.17724 3.54653l.22126.43391 4.15925-.007 4.15926-.007.2625.69513c.40918 1.08353.9147 1.95414 1.51891 2.61585.29273.32063 1.56944 1.29686 1.69599 1.29686.0449 0 .15419.0639.24286.14211.21475.18942 1.44293.67206 1.89773.74588.19931.0323.38918.10206.4218.15466.0326.0528-.30275.44877-.74527.88-1.21583 1.18478-1.7782 1.9791-2.71225 3.83075-.59046 1.17054-.96708 2.61144-1.05923 4.05239-.0608.95087.084 2.61834.24105 2.77535.0437.0437.21547.0429.38159-.001l.30219-.0808-.0492-.81029c-.11799-1.94211-.0121-3.08924.42076-4.53859.1882-.63065.79741-2.1382.90811-2.24721.0285-.028.16408-.25666.30101-.50791.47172-.865 1.13533-1.72362 2.0813-2.69295l.94827-.9717-.61789-.16914c-.8096-.22174-2.14757-.87503-2.65787-1.29772-1.5758-1.30525-2.2608-2.23694-2.76287-3.75785l-.21909-.66395-4.41473-.0265-4.41476-.0265-.17325-.31741c-.57173-1.04664-1.19561-1.85076-1.87932-2.42215-.8954-.74833-1.55276-1.10739-2.82809-1.5448-.86664-.29725-1.07436-.32893-2.15683-.32893-.65884 0-1.2845.0473-1.39038.10496-.10592.0577-.41359.15515-.68379.21668-.27019.0615-.79881.25572-1.17466.43147-1.51884.71021-2.59602 1.73921-3.39027 3.23858l-.35749.6749-1.73648.0217c-.95507.0121-2.87556.0241-4.26777.0256-1.933709.002-2.54055.0335-2.570397.13102-.241289.78814-.747729 1.9685-1.025114 2.3889-.576824.87426-1.846049 2.07491-2.591944 2.4519-.204613.10351-.441148.23863-.525406.30028-.233085.17059-1.227965.53643-1.667472.61311l-.39067.068.871558.88097c1.111688 1.1237 1.213994 1.24519 1.773856 2.10671.758394 1.16699 1.11123 1.87925 1.492827 3.01331.96928 2.88074.840697 5.68644-.397933 8.68225-.151046.36512-.361377.78593-.467592.93509-.106167.14912-.193031.31409-.193031.36649 0 .3408-2.369284 3.19293-2.652387 3.19293-.233567 0-.08662.30682.175416.36615.154425.035.418781.10062.587321.14598.413085.11099.432654.11027 1.052041-.0343zm42.387454-1.07149c.0217-.0668-.0323-.12137-.12137-.12137-.089 0-.16166.0729-.16166.16166 0 .18049.21981.14888.28303-.0405zm-33.480316-.84975c.70227-.1648 1.437716-.3413 1.634346-.39216.19665-.0509.81714-.19352 1.37896-.31725 2.01317-.44305 1.94951-.40409 1.63953-1.00354-.29389-.56833-2.16744-1.91663-2.37495-1.70912-.0902.0902.2215 1.35365.39769 1.61265.25417.37351.24609.80142-.0145.80142-.15925 0-1.08609-.60504-1.69309-1.10511-.0579-.0475-.436834-.30513-.842174-.57216-.40534-.26706-.76293-.52751-.794635-.57881-.164076-.26544-.255549-.0251-.239117.62796.01448.60631.06442.78945.308294 1.14913.34456.5083.37033.68415.08952.61073-.11244-.0294-.204371-.0941-.204371-.14357 0-.0497-.07022-.0902-.156114-.0902-.0859 0-.4293-.13802-.763171-.30644-.333871-.16866-.66598-.30643-.738005-.30643-.0719 0-.452536-.15443-.845595-.34311-.393083-.18869-.846609-.37485-1.007886-.41362-.290463-.0697-.292562-.0671-.223192.30267.08928.47519.982068 1.62163 1.474128 1.89267.203647.1122.528784.31862.722635.45881.394361.2852.245245.29673 2.252258-.17445zm6.508706-1.35394c.0835-.0835.45355-1.91897.39798-1.97454-.11364-.11364-.6403.26127-.91294.64977-.29126.41499-.48677 1.08225-.39646 1.35315.0321.0965.16456.12088.45017.0825.22247-.0299.43008-.0799.46125-.111zm1.41743-.20558c.16311-.0787.57238-.27046.90946-.42623.33708-.15563.77374-.38302.97037-.505.19665-.12185.49099-.30361.65415-.4036.43391-.26597.15467-.35918-.6584-.21981-.49479.0847-.80634.21378-1.20044.49751-.29275.21064-.57549.38304-.62836.38304-.13874 0-.41415.42257-.41415.63561 0 .21836-.005.21788.36737.0386zm-7.14453-8.06115c.0097-1.11341.03692-2.0457.06298-2.07178.0261-.0261.15249.24136.28107.59432.67479 1.85312 1.24573 3.30304 1.35028 3.429.15973.19254 2.62994.14139 2.63084-.0545.00031-.07-.13271-.4148-.29551-.7661-.2769-.59728-.61536-1.33637-1.11108-2.42622-.1151-.2528-.33532-.74913-.48963-1.10293l-.28052-.64325.26672-.63355c.14671-.34845.60786-1.41497 1.02483-2.37004.41694-.95504.75084-1.74564.74196-1.75686-.0217-.0261-1.93357-.0603-2.41421-.0434l-.36191.0121-.57808 1.76201c-.31795.96911-.60875 1.87293-.64619 2.00848-.13271.48017-.275122-.0627-.200033-.76298.03836-.3571.03691-1.17987-.0024-1.82838l-.07263-1.17913h-2.628017v4.88594c0 2.68728.03185 4.91792.07094 4.95696.03909.0391.648077.0582 1.353411.0425l1.282424-.0285zm7.7421 1.63499c.029-.17904.0649-.44057.0801-.58102.027-.25142.0417-.25536.94686-.25536h.91931l.10737.56179.10738.5618.5055.0676c.71156.0953 1.96534.10061 2.02221.01.0263-.0425-.27191-1.6627-.66248-3.60063-.39057-1.93795-.75485-3.79935-.80952-4.13643-.0545-.33708-.14815-.92059-.20799-1.29671-.0598-.37609-.1636-.72951-.23092-.78537-.11364-.0943-3.19938-.0951-3.2648-.00082-.0263.0379-.43972 1.78394-.73503 3.10437-.0753.33708-.30724 1.34832-.51518 2.24719-1.10857 4.79172-1.04601 4.41778-.74623 4.46019.13295.0193.73436.0193 1.3364.002l1.09463-.0319.0526-.32566zm.53595-3.00698c-.0415-.0734.0794-1.13867.35998-3.16988.13367-.9675.31191-1.27811.36449-.63503.0169.19665.11944 1.04259.22995 1.87993.28346 2.15135.31003 2.00158-.35518 2.00158-.30566 0-.57528-.0345-.59912-.0767zm8.12505-.3575l.0268-3.70279.76609-.0512.76609-.0511-.0217-1.02145c-.0121-.56181-.0241-1.10189-.0256-1.20021-.005-.16577-.20558-.1788-2.75662-.1788-2.09019 0-2.77139.0306-2.83297.12764-.0968.1525-.16118 1.76643-.0837 2.094.0495.20871.11462.22995.70551.22995.49946 0 .66552.0376.71308.16166.034.0888.062 1.76659.062 3.72832v3.56672h2.65323zm7.12592 1.57735V18.5167l.41328-1.06664c.2273-.58664.45249-1.15855.50041-1.27091.048-.11244.14236-.36517.20992-.5618.0676-.19665.16287-.44944.21185-.56181.049-.11244.15443-.38814.23429-.61287.0799-.22464.24204-.66075.3603-.96895.11823-.30819.21498-.57383.21498-.59028 0-.0169-.60696-.0169-1.34877-.001l-1.34878.0285-.17566.56181c-.0965.309-.29819.96414-.44795 1.45591-.14984.49177-.30774.87224-.35103.84548-.0432-.0268-.15901-.33718-.25695-.68982-.2297-.82591-.60037-1.93306-.7022-2.09677-.10568-.16987-2.72313-.18387-2.72313-.0145 0 .0994.58052 1.49285 1.12296 2.69567.10134.22464.30878.70736.46096 1.07253.15225.36516.38598.90107.51963 1.1909.2273.49298.24356.65102.25205 2.45149.005 1.05849.0335 2.02796.0637 2.15437.0531.22416.0881.22971 1.42235.22971h1.36789z"/>
</svg>
