<?xml version="1.0" encoding="UTF-8" standalone="no"?>
<svg
   xmlns="http://www.w3.org/2000/svg"
   id="svg1041"
   version="1.1"
   viewBox="0 0 50.811718 50.596798"
   height="50.596798mm"
   width="50.811718mm">
  <g
     transform="translate(-92.522713,-115.97541)"
     id="layer1">
    <g
       transform="matrix(2.817843,0,0,2.817843,-176.62544,-493.4206)"
       id="g1853"
       style="display:inline">
      <path
         style="fill:#c62024;fill-opacity:1;stroke:none;stroke-width:0.03333333;stroke-miterlimit:4;stroke-dasharray:none;stroke-opacity:1"
         d="m 391.65827,876.99103 c -5.87504,-0.82328 -11.52846,-3.81291 -15.67074,-8.28695 -2.18787,-2.3631 -3.62593,-4.57811 -4.84479,-7.4623 -1.4615,-3.45836 -1.91383,-5.89937 -1.89933,-10.25 0.0104,-3.11424 0.10492,-3.96562 0.67101,-6.0425 0.7982,-2.92848 2.48519,-6.59314 3.89332,-8.4575 1.58008,-2.09201 4.70983,-5.17109 6.66311,-6.55523 8.68062,-6.15126 20.01131,-6.19434 29,-0.11026 1.85558,1.25596 4.90151,4.2716 6.48703,6.42252 3.44999,4.68025 5.12984,10.48289 4.81088,16.61797 -0.21845,4.20183 -1.2473,7.64257 -3.4543,11.55211 -1.3778,2.44068 -5.80609,7.01692 -8.39986,8.68053 -2.14409,1.37518 -6.14876,3.03111 -8.50557,3.51705 -2.20848,0.45536 -6.77835,0.65096 -8.75076,0.37456 z m -2.06242,-12.89709 v -3.85216 h -0.625 -0.625 v 3.125 3.125 h -1.5 -1.5 v -3.125 -3.125 h -0.75 -0.75 v 3.575 c 0,2.46373 0.094,3.66904 0.30252,3.87752 0.20112,0.20112 1.16471,0.29401 2.875,0.27716 l 2.57248,-0.0254 z m 2.25,1.38309 c 0,-1.5242 0.0935,-2.45695 0.23745,-2.36801 0.13059,0.0807 0.81322,1.09998 1.51694,2.26503 1.24505,2.06124 1.79866,2.61773 2.60418,2.61773 0.33841,0 0.39143,-0.52491 0.39143,-3.875 v -3.875 h -0.75 -0.75 l -7.5e-4,2.4375 -7.5e-4,2.4375 -0.90373,-1.5 c -1.53897,-2.55472 -2.29629,-3.375 -3.11578,-3.375 h -0.72899 v 3.875 3.875 h 0.75 0.75 z m 8.6875,2.35276 c 1.16816,-0.14032 1.3125,-0.22256 1.3125,-0.74783 0,-0.55466 -0.0903,-0.59018 -1.5,-0.59018 h -1.5 v -0.875 -0.875 h 1.51661 c 1.50699,0 1.5161,-0.004 1.4375,-0.6875 -0.0762,-0.66198 -0.13248,-0.68727 -1.51661,-0.6812 l -1.4375,0.006 v -0.80632 c 0,-0.80625 1.3e-4,-0.80633 1.4375,-0.8813 1.36083,-0.071 1.44172,-0.11165 1.51661,-0.76248 l 0.0791,-0.6875 h -2.3916 -2.39161 v 3.875 3.875 l 1.0625,-0.002 c 0.58438,-10e-4 1.65313,-0.0731 2.375,-0.15982 z m 5.2499,-0.40107 c 0.66021,-0.31851 1.12616,-1.7387 0.82701,-2.52072 -0.27857,-0.72825 -0.96729,-1.31759 -2.08606,-1.78504 -0.62942,-0.26299 -0.92835,-0.54781 -0.92835,-0.88453 0,-0.68031 1.13548,-0.67777 1.5,0.003 0.35829,0.66946 1.5,0.68503 1.5,0.0205 0,-0.81547 -0.28223,-1.27428 -1.01788,-1.6547 -1.65809,-0.85743 -3.48212,-0.0487 -3.48212,1.54383 0,1.26644 0.32812,1.70491 1.72578,2.30616 1.45819,0.6273 1.64189,0.84727 1.27699,1.52909 -0.39959,0.74664 -1.45182,0.67022 -1.65011,-0.11983 -0.12208,-0.4864 -0.31717,-0.625 -0.87976,-0.625 -0.59343,0 -0.7229,0.1059 -0.7229,0.59129 0,1.6942 2.02886,2.51641 3.9374,1.59565 z m -11.58695,-8.43694 c 0.46023,0 2.39955,-1.73317 2.39955,-2.14448 0,-0.52844 -1.18939,-0.43948 -1.93178,0.14448 -1.94268,1.52811 -4.74705,-0.50759 -3.81133,-2.76664 0.58083,-1.40224 2.28589,-1.86566 3.61811,-0.98336 0.73659,0.48783 2.125,0.68751 2.125,0.30563 0,-0.10691 -0.17558,-0.44505 -0.39017,-0.75143 -0.99111,-1.415 -3.89614,-1.84644 -5.36935,-0.79742 -1.68259,1.19811 -2.1087,3.54374 -0.97803,5.3839 0.65497,1.06597 2.69047,2.00689 3.6955,1.70825 0.18312,-0.0544 0.47224,-0.0989 0.6425,-0.0989 z m 17.02455,-0.25413 c 0.73271,-0.27907 1.875,-1.41156 1.875,-1.85893 0,-0.54542 -0.96894,-0.48699 -1.875,0.11306 -0.97718,0.64716 -2.37649,0.64244 -3.20699,-0.0108 -1.33503,-1.05014 -1.0111,-3.32929 0.56604,-3.98256 0.87803,-0.36369 2.32035,-0.16853 2.77144,0.375 0.32841,0.39572 1.99451,0.51624 1.99451,0.14429 0,-0.38449 -1.72794,-1.7622 -2.37958,-1.89729 -0.34123,-0.0707 -0.8804,-0.18167 -1.19815,-0.24651 -1.63102,-0.33285 -3.73165,1.22259 -4.06728,3.01167 -0.35617,1.89852 0.93089,4.05773 2.73351,4.58582 0.77422,0.22681 1.80413,0.14042 2.7865,-0.23372 z m -32.375,-1.07711 v -1.33125 l 1.5414,-0.35625 c 1.98178,-0.45804 2.59642,-1.17562 2.33457,-2.72555 -0.21293,-1.26032 -0.90161,-1.64196 -3.43057,-1.90106 l -1.62003,-0.16597 -0.15993,0.96816 c -0.20391,1.23437 -0.20682,4.68452 -0.005,5.90566 0.12826,0.77592 0.25704,0.9375 0.74725,0.9375 0.5489,0 0.59229,-0.0975 0.59229,-1.33124 z m 4.61853,0.14374 0.49353,-1.0625 h 1.38669 c 1.38578,0 1.3871,7.5e-4 2.00125,1.125 0.44939,0.82265 0.76714,1.125 1.18228,1.125 0.31225,0 0.56772,-0.15244 0.56772,-0.33877 0,-0.37207 -2.69663,-6.93371 -2.96083,-7.2045 -0.0903,-0.0925 -0.46793,-0.10863 -0.83919,-0.0357 -0.59978,0.11776 -0.84361,0.52958 -2.1875,3.69459 -0.83186,1.95913 -1.51248,3.64206 -1.51248,3.73985 0,0.0978 0.30938,0.14218 0.6875,0.0987 0.53176,-0.0612 0.7993,-0.3198 1.18103,-1.14161 z m 14.8261,-2.54287 c 0.0383,-1.98296 -0.0199,-3.6949 -0.12931,-3.80431 -0.10942,-0.10942 -0.45013,-0.13326 -0.75713,-0.053 -0.50702,0.13259 -0.55805,0.29798 -0.55669,1.80431 7.5e-4,0.91209 0.0742,2.59205 0.16301,3.73325 0.14964,1.92239 0.20006,2.0694 0.686,2 0.50118,-0.0716 0.52759,-0.23515 0.59412,-3.68028 z m 2.1896,2.10537 0.17402,-1.625 h 1.19413 c 0.85826,0 1.23681,-0.11122 1.34587,-0.39545 0.28873,-0.7524 0.1459,-0.85455 -1.19487,-0.85455 -1.30569,0 -1.34998,-0.0228 -1.45691,-0.75142 -0.0607,-0.41328 -0.0547,-0.80703 0.0133,-0.875 0.0679,-0.068 0.72356,-0.12358 1.4569,-0.12358 1.31481,0 1.33333,-0.0104 1.33333,-0.75 v -0.75 h -2.125 -2.125 v 3.875 3.875 h 0.6051 c 0.56023,0 0.61801,-0.12051 0.77913,-1.625 z m 4.61577,-2.08333 c 0,-2.03959 -0.0589,-3.76723 -0.13087,-3.83921 -0.072,-0.072 -0.40949,-0.0776 -0.75,-0.0125 l -0.61913,0.11836 0.003,3.15835 c 0.004,3.81472 0.10266,4.28336 0.90073,4.28336 h 0.59584 z m -29.30154,-7.30195 0.0735,-2.09503 0.8564,1.97002 c 0.47102,1.08351 0.96026,2.07387 1.0872,2.20081 0.49491,0.49491 1.19113,-0.34994 2.03448,-2.46879 l 0.875,-2.19836 0.0716,2.42582 c 0.0706,2.392 0.0801,2.42581 0.6875,2.42581 h 0.61595 v -3.89009 -3.89009 l -0.89517,0.0776 c -0.85774,0.0743 -0.92377,0.15077 -1.57908,1.82759 -0.37615,0.9625 -0.85222,2.06679 -1.05794,2.45397 l -0.37404,0.70397 -0.9659,-2.20397 c -1.19599,-2.72897 -1.27228,-2.82897 -2.15848,-2.82897 h -0.71939 v 3.73167 c 0,3.34434 0.0454,3.74337 0.4375,3.84444 0.83325,0.21479 0.93784,-10e-4 1.01096,-2.08639 z m 8.39979,1.86483 c 0.0835,-0.21749 0.15175,-1.96871 0.15175,-3.8916 v -3.49616 l -0.6875,0.0791 -0.6875,0.0791 -0.0698,3.31534 c -0.0699,3.32099 0.11405,4.30966 0.80182,4.30966 0.1867,0 0.40774,-0.17795 0.4912,-0.39545 z m 4.14158,0.0257 c 0.39325,-0.20336 0.76205,-0.5109 0.81956,-0.68343 0.0703,-0.21081 0.38135,-0.0808 0.94858,0.39651 0.7294,0.61375 0.997,0.69295 1.97066,0.5832 1.36053,-0.15335 2.01456,-0.84093 2.03722,-2.14173 0.015,-0.86062 0.0293,-0.87602 0.26501,-0.28494 0.5589,1.4016 2.11406,2.50399 3.51923,2.49464 2.05878,-0.0137 3.91864,-1.62665 4.12783,-3.57984 0.13048,-1.21833 -0.6706,-2.95027 -1.73067,-3.74172 -0.956,-0.71376 -3.41037,-0.7321 -4.34946,-0.0325 -1.09424,0.81519 -1.61141,1.67091 -1.81338,3.00051 -0.14364,0.94559 -0.22891,1.11213 -0.36479,0.71247 -0.0997,-0.29317 -0.72304,-0.77717 -1.42348,-1.10524 -0.83917,-0.39304 -1.24614,-0.73556 -1.24614,-1.04877 0,-0.78341 0.73712,-0.8332 1.42071,-0.096 0.34392,0.3709 0.81183,0.63883 1.0398,0.59541 0.67275,-0.12815 0.64143,-1.11964 -0.0575,-1.81852 -1.25284,-1.25285 -3.88573,-0.6256 -3.91283,0.93217 -0.009,0.49296 -0.0502,0.46977 -0.3367,-0.1876 -0.57403,-1.31712 -1.75484,-1.82502 -3.12916,-1.34593 -0.93286,0.3252 -1.27436,0.87769 -1.27436,2.06174 0,1.02239 0.44767,1.54237 1.79044,2.07964 1.05177,0.42084 1.54725,1.06024 1.30692,1.68654 -0.25005,0.65161 -1.47091,0.4945 -1.80187,-0.23189 -0.19416,-0.42612 -0.48535,-0.625 -0.91513,-0.625 -0.93422,0 -0.85565,1.08894 0.14608,2.0247 0.87563,0.81796 1.84442,0.9342 2.96339,0.35556 z m 18.26518,-0.008 c 0.40159,-0.20767 0.84363,-0.58959 0.98231,-0.84871 0.4003,-0.74798 0.5915,-3.08159 0.39943,-4.87512 -0.16113,-1.50466 -0.22696,-1.64858 -0.75399,-1.64858 -0.56211,0 -0.57992,0.0721 -0.67037,2.71491 -0.0989,2.89006 -0.33941,3.53509 -1.318,3.53509 -0.99563,0 -1.14439,-0.44522 -1.14439,-3.425 v -2.825 h -0.77039 -0.77039 l 0.0829,3.14612 0.0829,3.14612 0.81645,0.72888 c 0.92427,0.82515 1.92526,0.93993 3.06356,0.35129 z m 3.54607,-1.30003 0.0739,-1.67762 1.31672,1.67762 c 0.99384,1.26625 1.46894,1.67762 1.9375,1.67762 0.77286,0 0.77152,-0.0332 -0.0614,-1.51482 l -0.68215,-1.21352 0.71187,-0.74303 c 0.54703,-0.57097 0.70868,-0.97356 0.69812,-1.73864 -0.0265,-1.91678 -0.93624,-2.53999 -3.70799,-2.53999 h -1.5877 v 3.72917 c 0,3.75545 0.0435,3.94324 0.92608,4.00109 0.20006,0.0131 0.32588,-0.54315 0.375,-1.65788 z m 5.73429,0.0526 c 0.0882,-0.825 0.17257,-2.54062 0.1875,-3.8125 l 0.0271,-2.3125 h -0.75 -0.75 v 3.89239 3.89239 l 0.5625,-0.0799 c 0.49019,-0.0696 0.58312,-0.27271 0.72287,-1.57989 z"
         id="path1832"
         transform="scale(0.26458333)" />
      <path
         style="fill:#c62024;fill-opacity:1;stroke:none;stroke-width:0.03333333;stroke-miterlimit:4;stroke-dasharray:none;stroke-opacity:1"
         d="m 393.80221,883.23848 c -0.50525,-1.09818 -1.01748,-1.9967 -1.13829,-1.9967 -0.1208,0 -0.70336,0.68592 -1.29458,1.52427 -0.59122,0.83835 -1.16343,1.42897 -1.27158,1.3125 -0.10814,-0.11647 -0.44914,-0.91489 -0.75777,-1.77427 -0.30862,-0.85937 -0.63428,-1.5625 -0.72368,-1.5625 -0.0894,0 -0.76847,0.61356 -1.50906,1.36345 -0.74058,0.7499 -1.42094,1.31746 -1.51191,1.26124 -0.091,-0.0562 -0.30697,-0.89442 -0.48,-1.86265 -0.17304,-0.96823 -0.42182,-1.82667 -0.55285,-1.90766 -0.13104,-0.081 -0.64133,0.17178 -1.13399,0.56169 -2.162,1.7111 -2.11526,1.68508 -2.35286,1.30979 -0.12217,-0.19297 -0.22386,-1.11023 -0.22596,-2.03836 -0.002,-1.1028 -0.10344,-1.6875 -0.29131,-1.6875 -0.15812,0 -1.05199,0.44077 -1.98639,0.97949 l -1.69889,0.97949 0.14851,-2.10449 c 0.0952,-1.34952 0.0579,-2.10449 -0.10423,-2.10449 -0.13901,0 -1.0712,0.3375 -2.07152,0.75 -1.00032,0.4125 -1.84232,0.75 -1.87112,0.75 -0.0288,0 0.17056,-0.95987 0.443,-2.13305 0.27245,-1.17318 0.43835,-2.19006 0.36868,-2.25973 -0.0697,-0.0697 -0.95442,0.1027 -1.9661,0.38305 -1.01167,0.28035 -1.97394,0.50973 -2.13836,0.50973 -0.19621,0 -0.0811,-0.53695 0.33483,-1.5625 0.34858,-0.85937 0.69274,-1.8256 0.7648,-2.14716 0.12883,-0.57484 0.10633,-0.58193 -1.33985,-0.42192 -0.80898,0.0895 -1.78025,0.22091 -2.15838,0.29202 -0.37812,0.0711 -0.6875,0.0549 -0.6875,-0.036 0,-0.0909 0.37222,-0.80298 0.82715,-1.58236 1.26878,-2.17368 1.27209,-2.21012 0.21615,-2.38472 -0.50507,-0.0835 -1.50892,-0.15308 -2.2308,-0.1546 -0.72187,-0.002 -1.3125,-0.0685 -1.3125,-0.14886 0,-0.0804 0.50625,-0.79049 1.125,-1.57806 0.61875,-0.78757 1.125,-1.55093 1.125,-1.69636 0,-0.14543 -0.70312,-0.39797 -1.5625,-0.56119 -2.76774,-0.5257 -2.7114,-0.41018 -0.98264,-2.01494 0.84983,-0.78887 1.54514,-1.55311 1.54514,-1.6983 0,-0.14519 -0.91006,-0.56706 -2.02235,-0.93748 l -2.02236,-0.67351 1.20986,-0.85265 c 0.66542,-0.46896 1.4911,-1.0594 1.83485,-1.31209 l 0.625,-0.45943 -1.98337,-0.99842 -1.98338,-0.99841 2.04588,-1.06438 c 1.12523,-0.58541 2.0453,-1.19247 2.04461,-1.34903 -7e-4,-0.15655 -0.79575,-0.8302 -1.7668,-1.49701 -0.97105,-0.6668 -1.69385,-1.28555 -1.60624,-1.375 0.0876,-0.0894 1.0233,-0.45682 2.0793,-0.81639 l 1.92,-0.65376 -1.5953,-1.58426 -1.5953,-1.58427 1.9703,-0.3288 c 1.08366,-0.18083 2.06499,-0.35841 2.18073,-0.39461 0.11573,-0.0362 -0.42507,-0.87801 -1.20178,-1.87068 l -1.41221,-1.80486 0.95178,-0.002 c 0.52348,-10e-4 1.53338,-0.072 2.24422,-0.15745 1.47178,-0.17682 1.4679,-0.0973 0.11823,-2.42346 -0.46164,-0.79562 -0.79914,-1.48641 -0.75,-1.53509 0.0491,-0.0487 0.93308,0.006 1.96433,0.12097 1.03125,0.11521 1.96723,0.12011 2.07995,0.0109 0.11272,-0.10922 -0.13698,-1.07916 -0.55489,-2.15541 -0.41791,-1.07626 -0.73352,-1.98315 -0.70135,-2.01532 0.0322,-0.0322 0.84193,0.15876 1.79948,0.42428 0.95754,0.26552 1.88405,0.48276 2.0589,0.48276 0.42141,0 0.40103,-0.73205 -0.0711,-2.55407 -0.21396,-0.82568 -0.32716,-1.56309 -0.25156,-1.63869 0.0756,-0.0756 0.90032,0.16184 1.8327,0.52765 0.93239,0.36581 1.79015,0.66511 1.90613,0.66511 0.11598,0 0.13149,-0.95309 0.0344,-2.11798 l -0.17642,-2.11799 1.80648,0.99299 c 0.99356,0.54614 1.9034,0.99298 2.02185,0.99298 0.11846,0 0.21662,-0.59062 0.21813,-1.3125 0.002,-0.72187 0.0715,-1.72836 0.15554,-2.23664 l 0.1528,-0.92413 1.52939,1.23749 c 0.84117,0.68062 1.64305,1.20111 1.78196,1.15664 0.13891,-0.0445 0.41279,-0.94485 0.60862,-2.00085 0.19583,-1.05601 0.43952,-1.92001 0.54152,-1.92001 0.10201,0 0.81524,0.69592 1.58496,1.54649 0.81254,0.89789 1.4859,1.44835 1.60553,1.3125 0.11332,-0.1287 0.51663,-1.10514 0.89626,-2.16987 l 0.69022,-1.93588 0.63455,0.93506 c 1.13223,1.66844 1.87014,2.5617 2.11618,2.5617 0.13252,0 0.59084,-0.7875 1.0185,-1.75 0.42765,-0.9625 0.84026,-1.74968 0.91689,-1.74929 0.0766,4e-4 0.47683,0.64118 0.88933,1.42397 0.4125,0.7828 0.88202,1.46398 1.04337,1.51375 0.16135,0.0498 0.75143,-0.58405 1.31129,-1.40847 0.55985,-0.82442 1.1178,-1.56068 1.23989,-1.63614 0.19217,-0.11877 0.49107,0.55871 1.58315,3.58828 0.21435,0.59464 0.25186,0.57438 1.82624,-0.986 0.88406,-0.87621 1.65427,-1.54315 1.71157,-1.4821 0.0573,0.0611 0.28713,1.00338 0.51073,2.09406 0.2236,1.09068 0.45834,2.03486 0.52165,2.09817 0.0633,0.0633 0.87719,-0.51227 1.80861,-1.27906 l 1.6935,-1.39416 0.16833,2.13099 c 0.0926,1.17204 0.22297,2.18564 0.28977,2.25243 0.0668,0.0668 0.96853,-0.34346 2.00386,-0.91168 l 1.88241,-1.03313 -0.14669,2.26419 c -0.0965,1.48931 -0.0581,2.26419 0.11225,2.26419 0.14241,0 1.00836,-0.3507 1.92433,-0.77933 0.91597,-0.42864 1.73633,-0.70842 1.82301,-0.62173 0.0867,0.0867 -0.0427,1.00729 -0.28753,2.0458 -0.24483,1.0385 -0.38142,1.95192 -0.30353,2.0298 0.0779,0.0779 1.04548,-0.0854 2.1502,-0.3628 1.10473,-0.27744 2.00859,-0.43741 2.00859,-0.3555 0,0.0819 -0.30768,1.01759 -0.68374,2.07927 -0.37606,1.06169 -0.61494,1.99914 -0.53084,2.08325 0.0841,0.0841 1.03691,0.0432 2.11736,-0.091 1.08044,-0.13414 2.00935,-0.19898 2.06423,-0.1441 0.0549,0.0549 -0.37538,0.89962 -0.95614,1.87719 -0.58076,0.97757 -0.9806,1.85274 -0.88852,1.94482 0.0921,0.0921 1.05847,0.20787 2.14753,0.25733 1.08907,0.0495 1.98012,0.1283 1.98012,0.17521 0,0.0469 -0.5625,0.82846 -1.25,1.73677 -0.6875,0.90831 -1.25,1.74985 -1.25,1.87007 0,0.12022 0.84697,0.35522 1.88216,0.52222 1.03519,0.16699 1.92999,0.38102 1.98845,0.47561 0.0585,0.0946 -0.50726,0.77792 -1.25716,1.5185 -0.74989,0.74059 -1.36345,1.4678 -1.36345,1.61603 0,0.14823 0.96796,0.58474 2.15102,0.97002 1.18306,0.38528 2.05494,0.78273 1.9375,0.88323 -0.11743,0.1005 -0.97289,0.71414 -1.90102,1.36365 -0.92812,0.64951 -1.6875,1.2258 -1.6875,1.28065 0,0.0548 0.91378,0.57511 2.03062,1.15615 l 2.03062,1.05645 -1.65562,0.83466 c -0.91059,0.45906 -1.65562,0.93105 -1.65562,1.04888 0,0.11782 0.69984,0.67413 1.5552,1.23624 l 1.5552,1.02203 -0.8677,0.34479 c -0.47723,0.18964 -1.40207,0.54108 -2.0552,0.78098 -0.65312,0.23991 -1.1875,0.58632 -1.1875,0.76981 0,0.18349 0.64423,0.8987 1.43162,1.58937 0.78739,0.69067 1.36334,1.32404 1.27988,1.40749 -0.0834,0.0835 -1.01323,0.35699 -2.06618,0.60785 -1.05295,0.25087 -1.97805,0.51972 -2.05578,0.59745 -0.0777,0.0777 0.48192,0.9078 1.24366,1.8446 l 1.38499,1.70327 -2.08939,0.125 c -1.14917,0.0688 -2.16456,0.20067 -2.25642,0.29316 -0.0919,0.0925 0.29302,0.95586 0.8553,1.91862 0.56228,0.96275 1.02234,1.78708 1.02236,1.83184 2e-5,0.0448 -0.95623,0.0417 -2.125,-0.007 -1.41265,-0.0586 -2.12504,0.003 -2.12504,0.18255 0,0.14889 0.30086,1.00332 0.66858,1.89874 0.36773,0.89542 0.60517,1.69145 0.52766,1.76896 -0.0775,0.0775 -0.81649,-0.0341 -1.64217,-0.24808 -2.01741,-0.52276 -2.62359,-0.51081 -2.45909,0.0485 0.38257,1.3007 0.92272,3.6275 0.85653,3.68964 -0.0421,0.0395 -0.86401,-0.2483 -1.82651,-0.63957 -2.57199,-1.04556 -2.47622,-1.10881 -2.29016,1.51243 0.0878,1.2375 0.11457,2.25 0.0594,2.25 -0.0552,0 -0.90342,-0.46303 -1.885,-1.02895 -0.98157,-0.56592 -1.85952,-0.9541 -1.95099,-0.86263 -0.0915,0.0915 -0.22637,1.05891 -0.29978,2.14988 l -0.13347,1.98356 -1.61283,-1.24999 c -0.88706,-0.68749 -1.73081,-1.21104 -1.875,-1.16345 -0.14419,0.0476 -0.41641,0.96055 -0.60494,2.02878 l -0.34276,1.94224 -1.4494,-1.43427 c -0.81071,-0.80225 -1.59606,-1.3773 -1.78223,-1.30497 -0.18306,0.0711 -0.60355,0.93041 -0.93441,1.90955 -0.33087,0.97914 -0.6923,1.78025 -0.80319,1.78025 -0.11088,0 -0.66441,-0.68151 -1.23006,-1.51446 -0.56564,-0.83295 -1.16046,-1.47419 -1.32181,-1.42497 -0.16135,0.0492 -0.68712,0.84291 -1.16837,1.76377 -0.48125,0.92086 -0.93125,1.67312 -1,1.67168 -0.0687,-10e-4 -0.53839,-0.90113 -1.04364,-1.99932 z m 7.34217,-4.4811 c 6.58709,-1.47805 12.20477,-5.19203 16.47287,-10.8906 2.02969,-2.70995 2.79097,-4.18289 4.13478,-8 1.19555,-3.396 1.65391,-8.78592 1.08306,-12.73569 -0.32164,-2.22545 -1.68304,-6.29213 -2.9467,-8.80214 -3.14041,-6.23783 -9.2731,-11.54676 -15.96618,-13.82154 -6.97626,-2.37102 -14.98171,-1.81576 -21.57636,1.49654 -6.03476,3.0311 -11.54624,9.05096 -13.72208,14.98783 -2.78461,7.5979 -2.53353,15.23797 0.72961,22.20133 2.72668,5.81859 7.03649,10.24127 12.88165,13.21904 2.9931,1.52481 4.42549,2.0096 7.72517,2.61456 3.12689,0.57329 7.94614,0.45723 11.18418,-0.26933 z"
         id="path1834"
         transform="scale(0.26458333)" />
      <path
         style="fill:#c62024;fill-opacity:1;stroke:none;stroke-width:0.03333333;stroke-miterlimit:4;stroke-dasharray:none;stroke-opacity:1"
         d="m 396.24307,847.9726 c -0.96235,-1.14369 -0.89955,-2.52854 0.1585,-3.49491 1.14118,-1.04231 2.3595,-1.01516 3.43641,0.0766 0.71819,0.72808 0.78877,0.92853 0.67926,1.92925 -0.16298,1.48939 -1.02712,2.25825 -2.53811,2.25825 -0.90894,0 -1.19576,-0.12708 -1.73606,-0.76918 z"
         id="path1836"
         transform="scale(0.26458333)" />
      <path
         style="fill:#c62024;fill-opacity:1;stroke:none;stroke-width:0.03333333;stroke-miterlimit:4;stroke-dasharray:none;stroke-opacity:1"
         d="m 410.09585,845.11678 v -1.125 h 0.95 c 1.08391,0 1.55,0.35068 1.55,1.16621 0,0.66756 -0.66577,1.08379 -1.73356,1.08379 -0.7417,0 -0.76644,-0.0363 -0.76644,-1.125 z"
         id="path1838"
         transform="scale(0.26458333)" />
      <path
         style="fill:#c62024;fill-opacity:1;stroke:none;stroke-width:0.03333333;stroke-miterlimit:4;stroke-dasharray:none;stroke-opacity:1"
         d="m 390.89134,848.11678 c -0.15662,-0.34375 -0.48793,-0.625 -0.73623,-0.625 -0.2483,0 -0.63755,-0.31503 -0.865,-0.70007 -0.23174,-0.3923 -0.96982,-0.96062 -1.6789,-1.29273 -0.85468,-0.40032 -1.26536,-0.74362 -1.26536,-1.05778 0,-0.75638 0.68597,-0.79774 1.52477,-0.0919 0.48714,0.4099 0.95292,0.60395 1.23488,0.51446 0.33557,-0.10651 0.47377,0.005 0.53404,0.42969 0.0551,0.38837 0.46897,0.78242 1.2828,1.22129 1.69467,0.91387 2.09196,1.34788 1.68392,1.83953 -0.49976,0.60218 -1.38842,0.47914 -1.71492,-0.23745 z"
         id="path1840"
         transform="scale(0.26458333)" />
      <path
         style="fill:#c62024;fill-opacity:1;stroke:none;stroke-width:0.03333333;stroke-miterlimit:4;stroke-dasharray:none;stroke-opacity:1"
         d="m 384.34585,855.24847 c 0,-0.13382 0.24708,-0.75188 0.54907,-1.37347 l 0.54908,-1.13016 0.56151,1.18597 c 0.30884,0.65229 0.568,1.27035 0.57593,1.37347 0.008,0.10313 -0.49184,0.1875 -1.11059,0.1875 -0.61875,0 -1.125,-0.10949 -1.125,-0.24331 z"
         id="path1842"
         transform="scale(0.26458333)" />
      <path
         style="fill:#c62024;fill-opacity:1;stroke:none;stroke-width:0.03333333;stroke-miterlimit:4;stroke-dasharray:none;stroke-opacity:1"
         d="m 378.72262,855.03521 c -0.0697,-0.0697 -0.12677,-0.67051 -0.12677,-1.3351 0,-1.27574 0.13508,-1.37985 1.61169,-1.24217 1.0898,0.10161 1.88094,1.69987 1.08495,2.19182 -0.39928,0.24677 -2.40737,0.54796 -2.56987,0.38545 z"
         id="path1844"
         transform="scale(0.26458333)" />
    </g>
  </g>
</svg>
