<svg xmlns="http://www.w3.org/2000/svg" width="192.044" height="191.232" viewBox="0 0 50.812 50.597">
    <g class="color-main color-red" fill="#c62024" stroke-width=".033">
        <path d="M22.854 44.448c-4.38-.613-8.595-2.842-11.683-6.178-1.631-1.762-2.703-3.413-3.612-5.564-1.09-2.578-1.427-4.398-1.416-7.641.008-2.322.078-2.957.5-4.505.595-2.184 1.853-4.916 2.903-6.306 1.178-1.56 3.511-3.855 4.968-4.887 6.471-4.586 14.919-4.618 21.62-.082 1.384.936 3.655 3.184 4.837 4.788 2.572 3.49 3.825 7.815 3.587 12.39-.163 3.132-.93 5.697-2.576 8.612-1.027 1.82-4.328 5.232-6.262 6.472-1.599 1.025-4.584 2.26-6.341 2.622-1.647.34-5.054.485-6.525.28zm-1.537-9.615V31.96h-.932v4.66h-2.237v-4.66H17.03v2.665c0 1.837.07 2.736.225 2.891.15.15.869.22 2.144.207l1.918-.02zm1.677 1.031c0-1.136.07-1.832.177-1.765.098.06.607.82 1.131 1.688.928 1.537 1.341 1.952 1.942 1.952.252 0 .292-.391.292-2.889v-2.89h-1.119v3.636l-.675-1.119c-1.147-1.905-1.712-2.516-2.323-2.516h-.543v5.778h1.118zm6.477 1.754c.871-.104.979-.166.979-.557 0-.414-.068-.44-1.119-.44h-1.118v-1.305h1.13c1.124 0 1.131-.003 1.073-.513-.057-.493-.1-.512-1.131-.508l-1.072.005v-.601c0-.601 0-.601 1.072-.657 1.014-.053 1.075-.083 1.13-.569l.06-.512h-3.567v5.778l.793-.002c.435 0 1.232-.054 1.77-.119zm3.914-.299c.493-.237.84-1.296.617-1.88-.208-.542-.721-.981-1.555-1.33-.47-.196-.693-.408-.693-.66 0-.507.847-.505 1.119.003.267.499 1.118.51 1.118.015 0-.608-.21-.95-.759-1.234-1.236-.639-2.596-.036-2.596 1.151 0 .945.245 1.272 1.287 1.72 1.087.467 1.224.631.952 1.14-.298.556-1.083.5-1.23-.09-.091-.362-.237-.466-.656-.466-.443 0-.54.08-.54.441 0 1.263 1.513 1.876 2.936 1.19zm-8.638-6.29c.343 0 1.789-1.292 1.789-1.599 0-.394-.887-.327-1.44.108-1.449 1.14-3.54-.379-2.842-2.063.433-1.045 1.704-1.39 2.697-.733.55.364 1.585.513 1.585.228 0-.08-.131-.332-.291-.56-.74-1.055-2.905-1.377-4.003-.595-1.255.893-1.573 2.642-.73 4.014.489.795 2.006 1.496 2.756 1.274.136-.04.352-.074.479-.074zm12.692-.19c.547-.208 1.398-1.052 1.398-1.385 0-.407-.722-.363-1.398.084-.728.482-1.771.479-2.39-.008-.996-.783-.755-2.482.421-2.97.655-.27 1.73-.125 2.067.28.244.295 1.487.385 1.487.108 0-.287-1.289-1.314-1.774-1.415a369.21 369.21 0 00-.894-.184c-1.216-.248-2.782.912-3.032 2.246-.266 1.415.694 3.025 2.038 3.419.577.169 1.345.104 2.077-.174zm-24.137-.803v-.992l1.15-.266c1.477-.341 1.935-.876 1.74-2.032-.159-.94-.672-1.224-2.558-1.417l-1.208-.124-.119.722c-.152.92-.154 3.493-.004 4.403.096.579.192.699.557.699.41 0 .442-.073.442-.993zm3.443.108l.368-.793h1.034c1.033 0 1.034.001 1.492.84.335.613.572.838.882.838.232 0 .423-.114.423-.253 0-.277-2.01-5.169-2.208-5.37-.067-.07-.348-.082-.625-.028-.447.088-.63.395-1.631 2.755-.62 1.46-1.128 2.715-1.128 2.788 0 .073.23.106.513.074.396-.046.596-.239.88-.851zM27.8 28.248c.029-1.479-.015-2.755-.096-2.837-.082-.081-.336-.099-.565-.039-.378.099-.416.222-.415 1.345 0 .68.055 1.933.122 2.784.111 1.433.149 1.542.511 1.49.374-.053.393-.175.443-2.743zm1.632 1.57l.13-1.212h.89c.64 0 .923-.083 1.004-.295.215-.56.109-.637-.89-.637-.974 0-1.007-.017-1.087-.56-.045-.308-.04-.602.01-.653.05-.05.54-.092 1.086-.092.98 0 .994-.007.994-.559v-.56H28.4v5.779h.452c.417 0 .46-.09.58-1.212zm3.442-1.554c0-1.52-.044-2.808-.098-2.862-.053-.054-.305-.058-.559-.01l-.462.089.003 2.355c.003 2.844.076 3.193.671 3.193h.444zM11.027 22.82l.055-1.562.638 1.469c.351.808.716 1.546.81 1.64.37.37.889-.26 1.518-1.84l.652-1.639.053 1.809c.053 1.783.06 1.808.513 1.808h.46v-5.8l-.668.058c-.64.055-.689.112-1.178 1.362-.28.718-.635 1.541-.788 1.83l-.28.525-.72-1.643c-.891-2.035-.948-2.11-1.609-2.11h-.536v2.783c0 2.493.034 2.79.326 2.866.621.16.7-.001.754-1.556zm6.262 1.39c.063-.162.114-1.467.114-2.9v-2.607l-.513.059-.513.059-.052 2.471c-.052 2.476.085 3.213.598 3.213.14 0 .304-.132.366-.294zm3.088.02c.293-.152.568-.381.611-.51.053-.157.285-.06.707.296.544.457.744.516 1.47.435 1.014-.115 1.502-.627 1.519-1.597.01-.642.021-.653.197-.213.417 1.045 1.576 1.867 2.624 1.86 1.535-.01 2.921-1.212 3.077-2.669.098-.908-.5-2.2-1.29-2.79-.713-.531-2.543-.545-3.243-.024-.815.608-1.201 1.246-1.352 2.237-.107.705-.17.83-.272.532-.074-.219-.539-.58-1.06-.824-.627-.293-.93-.549-.93-.782 0-.584.55-.621 1.06-.072.256.277.605.476.774.444.502-.095.479-.835-.042-1.356-.934-.934-2.897-.466-2.918.695-.006.368-.037.35-.25-.14-.429-.982-1.309-1.36-2.334-1.003-.695.242-.95.654-.95 1.537 0 .762.334 1.15 1.335 1.55.784.314 1.154.791.975 1.258-.187.486-1.097.369-1.344-.173-.145-.318-.362-.466-.682-.466-.697 0-.638.812.109 1.51.653.61 1.375.696 2.21.265zm13.618-.006c.3-.155.629-.44.732-.633.299-.558.441-2.297.298-3.635-.12-1.121-.17-1.229-.562-1.229-.42 0-.432.054-.5 2.024-.074 2.155-.253 2.636-.983 2.636-.742 0-.853-.332-.853-2.554v-2.106H30.98l.061 2.346.062 2.345.609.544c.689.615 1.435.7 2.284.262zm2.644-.97l.055-1.25.981 1.25c.741.945 1.096 1.251 1.445 1.251.576 0 .575-.024-.046-1.13l-.508-.904.53-.554c.408-.426.529-.726.52-1.296-.019-1.43-.697-1.894-2.764-1.894H35.67v2.78c0 2.8.032 2.94.69 2.984.15.01.243-.405.28-1.236zm4.275.04c.066-.615.129-1.894.14-2.843l.02-1.724h-1.118v5.804l.419-.06c.365-.051.435-.203.539-1.177z"/>
        <path d="M24.453 49.106c-.377-.819-.759-1.488-.849-1.488-.09 0-.524.511-.965 1.136-.44.625-.867 1.065-.948.979-.08-.087-.335-.683-.565-1.323-.23-.641-.473-1.165-.54-1.165-.066 0-.573.457-1.125 1.016-.552.56-1.06.983-1.127.94-.068-.041-.229-.666-.358-1.388-.129-.722-.314-1.362-.412-1.422-.098-.06-.478.128-.845.418-1.612 1.276-1.577 1.257-1.755.977-.09-.144-.166-.828-.168-1.52-.002-.822-.077-1.258-.217-1.258-.118 0-.785.329-1.481.73l-1.267.73.11-1.568c.072-1.006.044-1.57-.077-1.57-.103 0-.798.252-1.544.56-.746.307-1.374.559-1.395.559-.022 0 .127-.716.33-1.59.203-.875.327-1.633.275-1.685-.052-.052-.712.076-1.466.285-.754.21-1.472.38-1.594.38-.146 0-.06-.4.25-1.164.26-.641.516-1.361.57-1.601.096-.429.079-.434-1-.315-.602.067-1.327.165-1.608.218-.282.053-.513.04-.513-.027 0-.068.277-.599.617-1.18.946-1.62.948-1.647.16-1.778a12.79 12.79 0 00-1.662-.115c-.539-.001-.979-.05-.979-.11s.378-.59.839-1.177c.461-.588.839-1.157.839-1.265 0-.109-.525-.297-1.165-.418-2.064-.392-2.022-.306-.733-1.503.634-.588 1.152-1.158 1.152-1.266 0-.108-.678-.423-1.508-.699l-1.508-.502.902-.636c.497-.35 1.112-.79 1.368-.978l.466-.342-1.478-.745L0 25.492l1.525-.794c.84-.436 1.525-.889 1.525-1.006 0-.116-.594-.618-1.318-1.116-.724-.497-1.262-.958-1.197-1.025.065-.066.763-.34 1.55-.608l1.432-.488-1.19-1.181-1.19-1.181 1.47-.245c.808-.135 1.54-.268 1.626-.294.086-.027-.317-.655-.896-1.395l-1.053-1.346.71-.001a17.63 17.63 0 001.673-.118c1.097-.132 1.094-.072.088-1.807-.344-.593-.596-1.108-.56-1.144.037-.036.696.004 1.465.09.769.086 1.467.09 1.55.008.085-.081-.101-.804-.413-1.607-.311-.802-.547-1.478-.523-1.502.024-.024.628.118 1.342.316.714.198 1.404.36 1.535.36.314 0 .299-.546-.053-1.904-.16-.616-.244-1.166-.188-1.222.057-.056.671.12 1.367.394.695.272 1.334.495 1.42.495.087 0 .099-.71.026-1.579l-.131-1.579 1.347.74c.74.408 1.419.74 1.507.74.088 0 .162-.44.163-.978.001-.538.053-1.288.116-1.667l.114-.69 1.14.923c.627.508 1.225.896 1.328.863.104-.033.308-.705.454-1.492.146-.787.328-1.431.404-1.431.076 0 .608.518 1.182 1.153.605.669 1.107 1.08 1.197.978.084-.096.385-.824.668-1.618l.514-1.443.473.697c.845 1.244 1.395 1.91 1.578 1.91.099 0 .44-.587.76-1.305.318-.717.626-1.304.683-1.304.057 0 .356.478.663 1.062.308.583.658 1.091.778 1.128.12.038.56-.435.978-1.05.417-.614.833-1.163.924-1.22.143-.088.366.417 1.18 2.676.16.443.188.428 1.362-.735.66-.654 1.233-1.15 1.276-1.105.043.045.214.748.38 1.56.168.814.343 1.518.39 1.565.047.047.654-.382 1.348-.953l1.263-1.04.125 1.589c.07.874.167 1.63.216 1.68.05.049.722-.257 1.494-.68l1.404-.77-.11 1.687c-.072 1.11-.043 1.688.084 1.688.106 0 .752-.261 1.435-.58.683-.32 1.294-.529 1.359-.464.065.064-.032.75-.214 1.525-.183.774-.285 1.455-.227 1.513.058.058.78-.063 1.603-.27.824-.207 1.498-.326 1.498-.265 0 .06-.23.759-.51 1.55-.28.792-.458 1.49-.396 1.553.063.063.773.032 1.579-.068.805-.1 1.498-.148 1.539-.107.04.04-.28.67-.713 1.4-.433.728-.731 1.38-.662 1.45.068.068.789.154 1.6.191.813.037 1.477.096 1.477.131s-.42.618-.932 1.295c-.513.677-.932 1.304-.932 1.394 0 .09.632.265 1.403.39.772.124 1.44.283 1.483.354.043.07-.378.58-.937 1.132-.56.552-1.017 1.094-1.017 1.205 0 .11.722.436 1.604.723.882.287 1.532.584 1.444.659-.087.075-.725.532-1.417 1.016-.692.485-1.258.914-1.258.955 0 .041.681.429 1.514.862l1.514.788-1.235.622c-.679.342-1.234.694-1.234.782 0 .088.522.503 1.16.922l1.159.762-.647.257a77.2 77.2 0 01-1.532.582c-.487.179-.886.437-.886.574 0 .137.48.67 1.068 1.185.587.515 1.016.987.954 1.05-.062.062-.755.265-1.54.452-.785.188-1.475.388-1.533.446-.058.058.36.677.927 1.375l1.033 1.27-1.558.093c-.857.052-1.614.15-1.682.219-.069.069.218.712.637 1.43.42.718.763 1.333.763 1.366 0 .033-.713.031-1.585-.005-1.053-.044-1.584.002-1.584.136 0 .11.224.748.498 1.415.275.668.452 1.262.394 1.32-.058.057-.609-.026-1.225-.186-1.504-.39-1.956-.38-1.833.037.285.97.688 2.704.639 2.75-.032.03-.645-.185-1.362-.476-1.918-.78-1.846-.827-1.708 1.127.066.923.086 1.678.045 1.678-.041 0-.674-.346-1.406-.768-.731-.421-1.386-.71-1.454-.643-.068.069-.169.79-.224 1.603l-.1 1.479-1.202-.932c-.661-.512-1.29-.903-1.398-.867-.107.035-.31.716-.45 1.512l-.256 1.448-1.08-1.069c-.605-.598-1.19-1.027-1.33-.973-.136.053-.45.694-.696 1.424-.247.73-.516 1.327-.599 1.327-.083 0-.495-.508-.917-1.13-.422-.62-.865-1.098-.986-1.062-.12.037-.512.629-.87 1.315-.36.687-.695 1.248-.746 1.247-.051-.001-.402-.672-.778-1.49zm5.474-3.34c4.91-1.103 9.1-3.872 12.281-8.12 1.513-2.02 2.081-3.119 3.083-5.965.891-2.532 1.233-6.55.807-9.495-.24-1.659-1.254-4.69-2.197-6.562-2.34-4.65-6.913-8.609-11.903-10.305-5.201-1.768-11.17-1.354-16.087 1.116-4.499 2.26-8.608 6.748-10.23 11.174-2.076 5.665-1.889 11.36.544 16.552 2.033 4.338 5.246 7.636 9.604 9.856 2.231 1.137 3.3 1.498 5.76 1.95 2.33.427 5.924.34 8.338-.202z"/>
        <path d="M26.273 22.814c-.718-.853-.671-1.886.118-2.606.85-.777 1.759-.757 2.562.057.535.543.588.692.506 1.438-.121 1.11-.766 1.684-1.892 1.684-.678 0-.892-.095-1.294-.573zm10.328-2.13v-.838h.708c.808 0 1.155.261 1.155.87 0 .497-.496.807-1.292.807-.553 0-.571-.027-.571-.839zm-14.318 2.237c-.117-.256-.364-.466-.55-.466-.184 0-.475-.235-.644-.522-.173-.292-.723-.716-1.252-.964-.637-.298-.943-.554-.943-.788 0-.564.511-.595 1.136-.069.364.306.71.45.921.384.25-.08.353.004.398.32.041.29.35.583.957.91 1.263.682 1.56 1.006 1.255 1.372-.372.45-1.035.357-1.278-.177zm-4.88 5.317c0-.1.184-.56.409-1.024l.41-.842.418.884c.23.486.423.947.43 1.024.005.077-.367.14-.829.14-.461 0-.838-.082-.838-.182zm-4.193-.159c-.052-.052-.094-.5-.094-.995 0-.951.1-1.029 1.201-.926.813.075 1.403 1.267.81 1.634-.299.184-1.796.408-1.917.287z"/>
    </g>
</svg>
