<svg xmlns="http://www.w3.org/2000/svg" width="192.044289" height="191.231992" viewBox="0 0 50.811718 50.596798">
    <g class="color-main color-red" fill="#c62024" stroke-width=".033333">
        <path d="M22.854348 44.44841c-4.380161-.6138-8.595093-2.842732-11.683387-6.178371-1.631176-1.76182-2.703328-3.41323-3.612054-5.56355-1.089628-2.578395-1.426864-4.3983-1.416054-7.641931.007754-2.321835.078224-2.956585.500275-4.505012.595101-2.183341 1.852844-4.915544 2.902681-6.305526 1.178035-1.559707 3.511434-3.855328 4.96771-4.88728 6.471874-4.586098 14.919518-4.618216 21.621075-.082204 1.383435.936386 3.654341 3.18471 4.836433 4.788337 2.572154 3.48938 3.824574 7.815564 3.586772 12.389599-.162867 3.132692-.92993 5.69795-2.575368 8.612725-1.027225 1.81966-4.328756 5.231495-6.262552 6.471806-1.598536 1.025272-4.584234 2.259857-6.341364 2.622152-1.646542.339496-5.053628.485326-6.524167.279255zm-1.537646-9.61548v-2.871995h-.931943v4.659714h-2.236663v-4.659714h-1.118331v2.665356c0 1.836845.070082 2.735469.225545 2.890902.149946.149946.868355.2192 2.143469.206638l1.917923-.018937zm1.677497 1.031168c0-1.136374.06971-1.83179.177032-1.76548.097362.060166.6063.820095 1.130961 1.688703.928253 1.536766 1.340999 1.95166 1.941558 1.95166.252303 0 .291832-.39135.291832-2.889023v-2.889023h-1.118331l-.00056 1.817288-.000559 1.817289-.67378-1.118332c-1.147385-1.904682-1.712008-2.516245-2.322983-2.516245h-.543501v5.778045h1.118331zm6.477003 1.75411c.870927-.104616.97854-.16593.97854-.557548 0-.413529-.067323-.440011-1.118331-.440011h-1.118332v-1.30472h1.130715c1.123543 0 1.130335-.002982 1.071735-.512569-.056812-.493542-.098771-.512397-1.130715-.507871l-1.071735.004473v-.601155c0-.601103.000097-.601163 1.071735-.657057 1.014572-.052935 1.07488-.083241 1.130715-.56847l.058973-.512569h-3.566143v5.778046l.792152-.001491c.435687-.000746 1.232498-.0545 1.770691-.119155zm3.914086-.29902c.492222-.237466.839613-1.296295.61658-1.879333-.207689-.54295-.721167-.982335-1.55527-1.330844-.469267-.196074-.692136-.408422-.692136-.659465 0-.507208.846562-.505315 1.118332.002236.267124.49912 1.118331.510727 1.118331.015284 0-.607977-.210418-.950045-.758885-1.233669-1.236196-.63926-2.59611-.036308-2.59611 1.15101 0 .9442.244632 1.271103 1.286663 1.719367 1.08716.467686 1.224118.631686.952066 1.14002-.297916.55666-1.08241.499685-1.230247-.08934-.091017-.362638-.236467-.465972-.655909-.465972-.442434 0-.53896.078955-.53896.44084 0 1.263117 1.512624 1.87612 2.935545 1.189643zm-8.6387-6.290196c.343126 0 1.788994-1.292173 1.788994-1.598826 0-.393981-.886755-.327657-1.440247.107717-1.448373 1.13929-3.539183-.378436-2.841553-2.06268.43304-1.045446 1.704255-1.39095 2.697497-.733148.549168.363703 1.584303.512576 1.584303.227863 0-.079707-.130904-.331809-.290893-.560231-.738926-1.05496-2.904784-1.376622-4.003142-.59452-1.254462.893256-1.57215 2.64205-.729174 4.01399.488316.794738 2.005891 1.496245 2.755196 1.273592.136526-.040558.35208-.073735.479018-.073735zm12.692726-.189468c.546275-.208062 1.397914-1.052395 1.397914-1.385933 0-.40664-.722398-.363078-1.397914.084292-.728541.482493-1.771803.478974-2.390986-.008052-.995337-.782936-.75383-2.482166.422014-2.969214.654619-.271151 1.729947-.125649 2.066259.279582.244847.295031 1.487015.384885 1.487015.107576 0-.286658-1.288273-1.313815-1.774106-1.414532-.254405-.05271-.656386-.135445-.893286-.183787-1.216013-.248158-2.782147.911507-3.032378 2.245364-.265544 1.41545.69403 3.025258 2.03798 3.418977.577224.1691 1.345077.104691 2.077488-.17425zm-24.13732-.803044v-.992519l1.149197-.265604c1.477525-.341493 1.935772-.876488 1.740549-2.032045-.158751-.939637-.6722-1.22417-2.557677-1.417344l-1.20782-.12374-.119236.721817c-.152026.92029-.154196 3.492564-.003728 4.40299.095625.57849.191637.698957.557115.698957.409235 0 .441585-.072692.441585-.992512zm3.443364.107166l.367954-.792151h1.033852c1.033175 0 1.034159.000559 1.492041.838748.335045.61333.571945.838749.881454.838749.2328 0 .423266-.113652.423266-.252572 0-.277398-2.010484-5.169457-2.20746-5.371345-.067323-.068964-.348867-.08099-.625661-.026617-.447169.087797-.628957.39483-1.6309 2.754518-.620197 1.460637-1.127636 2.715353-1.127636 2.78826 0 .072916.23066.106004.512568.073587.396456-.045628.595922-.238428.880522-.851132zm11.053663-1.895848c.028555-1.478404-.014837-2.754748-.096408-2.83632-.081578-.081578-.335596-.099352-.564481-.039514-.378011.098854-.416057.22216-.415043 1.345212.00056.680012.05532 1.932514.121533 2.78334.111565 1.433246.149155 1.54285.51145 1.491109.373657-.053382.393347-.175317.442949-2.743849zm1.632465 1.569668l.129742-1.211526h.890289c.639879 0 .922109-.08292 1.003419-.29483.215264-.560954.108776-.637112-.89084-.637112-.973464 0-1.006484-.017-1.086206-.560225-.045255-.308123-.040782-.601685.009916-.65236.050623-.050698.539453-.092135 1.086198-.092135.980262 0 .99407-.007754.99407-.559166v-.559166h-3.168606v5.778046h.451135c.417682 0 .46076-.089847.580883-1.211526zm3.441308-1.553236c0-1.520625-.043914-2.808674-.097571-2.862339-.05368-.05368-.305297-.057855-.559166-.00932l-.461595.088244.002237 2.354722c.002982 2.84408.076538 3.193477.671543 3.193477h.444231zm-21.84589-5.444l.0548-1.561958.638492 1.468757c.35117.807815.715926 1.546182.810566 1.640823.368983.368982.888052-.2609 1.516816-1.840617l.65236-1.638997.053381 1.80858c.052637 1.783367.05972 1.808574.512569 1.808574h.459224v-5.800547l-.667398.057855c-.639491.055395-.68872.112408-1.17729 1.362568-.28044.717596-.635376 1.540904-.788751 1.829568l-.278867.524848-.720131-1.64318c-.891676-2.034595-.948554-2.10915-1.609264-2.10915h-.536345v2.782162c0 2.493387.033849 2.790886.32618 2.866239.621234.160137.699211-.000746.753726-1.555517zm6.2625 1.390332c.062254-.16215.113138-1.46778.113138-2.901399v-2.606577l-.512568.058974-.512569.058973-.05204 2.471766c-.052114 2.475978.08503 3.213085.5978 3.213085.139196 0 .303993-.132671.366217-.29483zm3.087773.019161c.29319-.151616.56815-.380904.611026-.509534.052413-.15717.284318-.06024.707218.29562.543808.457584.743318.516632 1.469234.434807 1.01435-.11433 1.501964-.626959 1.518858-1.596776.011184-.641639.021845-.65312.19758-.212438.41669 1.044969 1.576146 1.86686 2.623777 1.85989 1.534932-.010215 2.921559-1.212757 3.077521-2.668966.09728-.90833-.499969-2.199586-1.290308-2.789655-.71275-.532147-2.542616-.54582-3.242759-.02423-.815815.607768-1.201393 1.245753-1.351973 2.237042-.107091.70499-.170665.829154-.27197.531185-.074333-.218574-.539066-.579422-1.061282-.824016-.625647-.293033-.929065-.5484-.929065-.781915 0-.584075.549563-.621196 1.059216-.071573.256411.276526.605263.476282.775227.44391.501572-.095542.478221-.834752-.042869-1.355805-.93406-.934068-2.897023-.466419-2.917227.694983-.00671.367529-.037427.35024-.251028-.139866-.42797-.981984-1.308329-1.360651-2.332959-1.003464-.695498.242455-.950105.654366-.950105 1.53714 0 .762247.333763 1.14992 1.33487 1.550484.784152.31376 1.15356.790467.97438 1.257407-.186425.48581-1.096643.368677-1.343391-.172886-.144757-.317696-.361855-.465972-.68228-.465972-.696511 0-.637933.811864.108911 1.509524.65283.609834 1.375115.696497 2.209368.26509zm13.617683-.005964c.299407-.15483.628972-.439572.732366-.63276.298445-.55766.440995-2.297492.297796-3.634666-.12013-1.121806-.16921-1.229106-.56214-1.229106-.419084 0-.432362.053754-.499797 2.024113-.073736 2.154696-.253049 2.635601-.98264 2.635601-.742297 0-.853206-.331936-.853206-2.553523v-2.106191h-1.148735l.061807 2.345603.061806 2.345603.608708.54342c.689093.615194 1.435386.700769 2.28405.261906zm2.643788-.969243l.055096-1.250757.981687 1.250757c.740961.944058 1.095174 1.250757 1.444511 1.250757.57621 0 .57521-.024753-.045777-1.129381l-.50858-.904745.530738-.55397c.40784-.425688.52836-.725841.520486-1.29625-.019757-1.429063-.698018-1.8937-2.764508-1.8937h-1.183716v2.780298c0 2.799892.032431 2.9399.690443 2.98303.149155.009767.242961-.404948.279583-1.23604zm4.275224.039216c.065758-.615082.12866-1.89417.139792-2.842426l.020204-1.724094h-1.118331v5.803976l.419374-.05957c.365463-.05189.434748-.20332.538939-1.177894z"/>
        <path d="M24.452772 49.106223c-.376691-.818753-.758587-1.488648-.848657-1.488648-.090063 0-.524393.51139-.96518 1.136426-.440786.625035-.8674 1.065374-.948032.97854-.080624-.086835-.334858-.6821-.564958-1.322815-.230093-.640707-.47289-1.164929-.539543-1.164929-.066653 0-.572936.457443-1.125086 1.016526-.552143.559092-1.059388.982238-1.127211.940323-.067846-.0419-.228863-.666838-.357866-1.388706-.129011-.721868-.31449-1.361882-.41218-1.422264-.097697-.06039-.478146.12807-.845451.41877-1.611888 1.275718-1.577041 1.256319-1.754185.97652-.091084-.14387-.1669-.827737-.168465-1.519709-.001491-.822197-.07712-1.258122-.217188-1.258122-.117887 0-.784315.328618-1.480961.730263l-1.266615.730263.110722-1.569012c.070977-1.00614.043168-1.569012-.077709-1.569012-.10364 0-.798638.251625-1.54443.559166-.745793.307541-1.37355.559166-1.395022.559166-.021472 0 .127162-.715635.33028-1.590305.203127-.874669.326814-1.632808.274871-1.684751-.051965-.051965-.711572.076568-1.465834.285585-.754255.209016-1.47168.38003-1.594263.38003-.146286 0-.060465-.400324.249634-1.164928.259885-.640707.516475-1.361084.5702-1.600824.09605-.428574.079274-.43386-.998931-.314564-.603139.066727-1.327273.1647-1.60919.217717-.281909.053008-.512568.04093-.512568-.02684 0-.067771.27751-.598666.616685-1.179736.945944-1.620596.948412-1.647764.161151-1.777938-.376557-.062254-1.124981-.11413-1.663182-.115263-.538193-.00149-.97854-.05107-.97854-.110983 0-.059942.377437-.589353.838748-1.17653.461312-.587175.838749-1.156302.838749-1.264728 0-.108426-.524214-.296708-1.164929-.418397-2.0635-.391938-2.021495-.305812-.732611-1.502247.633594-.588146 1.151986-1.157928 1.151986-1.266175 0-.108247-.6785-.422774-1.507772-.698943l-1.50778-.502138.902017-.635697c.496107-.349635 1.111696-.78984 1.36798-.978234l.465972-.34253-1.47871-.744376L0 25.491804l1.525315-.793552c.83892-.436455 1.524882-.889051 1.524368-1.005775-.000522-.116717-.593275-.61896-1.317246-1.116103-.72397-.497135-1.262857-.958447-1.197539-1.025137.06531-.066652.762926-.340584 1.550231-.608663l1.431465-.487413-1.189383-1.181152-1.189383-1.18116 1.468966-.245138c.807927-.134818 1.539562-.267214 1.625852-.294203.086283-.026989-.316912-.654604-.895992-1.394693l-1.05288-1.345621.709605-.001492c.390282-.000745 1.143218-.05368 1.673187-.117387 1.097292-.131829 1.0944-.072542.088147-1.806821-.344177-.593178-.595802-1.1082-.559165-1.144493.036606-.036308.695661.004473 1.464514.09019.768853.085895 1.466677.089548 1.550716.008126.084039-.08143-.102126-.804572-.4137-1.606975-.311575-.80241-.54688-1.478546-.522895-1.50253.024007-.024007.627704.118364 1.34161.316323.713898.19796 1.404661.359924 1.535021.359924.314184 0 .29899-.545783-.053008-1.904198-.15952-.615589-.243916-1.165368-.187552-1.221732.056364-.056364.671237.12066 1.366377.393392.695148.272731 1.334654.495875 1.421124.495875.086469 0 .098033-.71058.025647-1.579069l-.131531-1.579076 1.346829.740328c.740753.407177 1.419088.74032 1.507399.74032.088318 0 .161502-.440339.162628-.97854.00149-.538193.053307-1.288586.115963-1.667536l.11392-.68899 1.140244.922617c.627138.507439 1.224983.895492 1.328548.862337.103565-.033177.307757-.704436.45376-1.491742.146001-.787313.327685-1.431471.403732-1.431471.076054 0 .607805.518846 1.181673 1.152992.605793.669425 1.10782 1.079823 1.19701.97854.084486-.095953.385176-.823942.66821-1.617756l.514597-1.443304.473092.697138c.844139 1.243913 1.39429 1.909887 1.577727 1.909887.0988 0 .440503-.587124.759347-1.30472.318836-.717596.62646-1.304482.683591-1.304191.05711.000298.355503.478035.663044 1.061647.307541.58362.657594 1.091477.777889 1.128583.120295.037128.560232-.435441.977638-1.050091.417398-.61465.83338-1.163572.924405-1.219831.143273-.08855.36612.416548 1.180324 2.675257.15981.443337.187776.428232 1.361561-.735116.659115-.653262 1.233348-1.150502 1.276069-1.104986.04272.045553.21407.748074.380777 1.561235.166706.813161.341717 1.517099.388918 1.5643.047194.047193.653993-.381925 1.348417-.953609l1.262596-1.039422.1255 1.588769c.069038.87382.166236 1.629513.216039 1.679309.049803.049803.722091-.256068 1.493986-.679707l1.403439-.770255-.109366 1.688077c-.071946 1.110361-.043316 1.688076.083689 1.688076.106174 0 .751787-.261466 1.434692-.581032.682906-.319575 1.294529-.528166 1.359153-.463534.06464.06464-.031835.75099-.214369 1.525255-.182534.774258-.28437 1.455262-.226298 1.513326.058079.058079.779462-.06367 1.60309-.270487.823637-.206847 1.497514-.326113 1.497514-.265045 0 .061061-.229392.75867-.509766 1.55021-.280373.791547-.45847 1.490467-.39577 1.553175.062701.062701.773073.032208 1.578607-.067845.805527-.100009 1.49808-.14835 1.538996-.107435.04093.040931-.279866.670716-.712855 1.399547-.432988.728832-.73109 1.381319-.66244 1.44997.068666.068665.789147.154978 1.6011.191853.811962.036905 1.476288.095654 1.476288.130628 0 .034967-.419375.617662-.931943 1.294857-.512569.677194-.931943 1.304608-.931943 1.394238 0 .08963.631462.264836 1.403252.389344.77179.1245 1.438913.28407 1.482498.354593.043615.07053-.37819.579981-.937281 1.132124-.559084.55215-1.016526 1.094324-1.016526 1.204838 0 .110513.721667.435955 1.603702.723203.882035.287247 1.53207.583567 1.444511.658495-.08755.074929-.725342.53243-1.417313 1.016676-.691964.484245-1.258123.9139-1.258123.954794 0 .040856.681273.428775 1.513937.861972l1.513938.787641-1.234355.622284c-.678894.342255-1.234354.694149-1.234354.781997 0 .087842.521768.5026 1.159486.921684l1.159486.76198-.646918.257059c-.3558.141387-1.045319.403404-1.532263.582263-.486936.178866-.885346.437133-.885346.573935 0 .136802.480309.67003 1.06735 1.184962.587043.514932 1.016445.987143.95422 1.04936-.062178.062254-.755417.266155-1.540449.453185-.78503.187037-1.474743.38748-1.532695.445431-.05793.05793.359297.676815.927216 1.37525l1.032585 1.26988-1.557754.093194c-.856768.051295-1.613796.14961-1.682283.218567-.068517.068964.218462.712646.637672 1.430435.41921.717783.76221 1.332366.762225 1.365737.000015.0334-.712921.03109-1.584303-.00522-1.053207-.043689-1.584332.002237-1.584332.136102 0 .111005.224307.74803.498463 1.415613.274162.667585.451187 1.261068.393399 1.318856-.05778.05778-.608738-.025423-1.224327-.184957-1.504089-.389746-1.956029-.380837-1.833385.03616.285226.969742.687938 2.704498.63859 2.750826-.031389.02945-.644167-.18512-1.361763-.476834-1.917558-.779522-1.846156-.826678-1.707439 1.127599.06546.922623.085419 1.677497.044286 1.677497-.041154 0-.673548-.345214-1.40537-.767138-.731813-.421924-1.386373-.711333-1.454568-.643138-.068219.068219-.168772.789475-.223503 1.602853l-.099509 1.478851-1.202452-.931935c-.661352-.512561-1.290413-.902896-1.397914-.867415-.107502.035488-.310457.716142-.451016 1.512565l-.255546 1.448046-1.080607-1.069326c-.604428-.598121-1.189949-1.026852-1.328749-.972926-.136481.053009-.44998.69367-.696653 1.423673-.246682.730002-.516147 1.327273-.598822 1.327273-.082667 0-.495354-.508103-.917076-1.129112-.421716-.62101-.865186-1.099089-.985482-1.062393-.120295.036681-.512285.628435-.871083 1.314986-.358798.686552-.694297 1.247402-.745554 1.246329-.05122-.000746-.4014-.671842-.77809-1.490602zm5.473986-3.340903c4.911033-1.101967 9.099319-3.87094 12.281419-8.119534 1.513244-2.020415 2.08082-3.118571 3.082703-5.964434.891347-2.531903 1.23308-6.55038.80748-9.495148-.2398-1.659194-1.254798-4.691125-2.196925-6.562474-2.341346-4.65064-6.9136-8.608736-11.903654-10.304708-5.20118-1.767724-11.169678-1.353748-16.086347 1.115752-4.499242 2.25985-8.60835 6.747982-10.230556 11.17424-2.076078 5.664648-1.888884 11.360735.543964 16.552297 2.032888 4.338075 5.246085 7.635423 9.60397 9.855512 2.231518 1.136829 3.299442 1.498266 5.759533 1.949297 2.331266.427419 5.924279.34089 8.338413-.2008z"/>
        <path d="M26.272565 22.813595c-.717484-.852683-.670663-1.885164.11817-2.605645.850812-.777099 1.759136-.756857 2.562031.05711.53545.542822.58807.692269.506425 1.43836-.12151 1.110421-.765773 1.683648-1.892299 1.683648-.677664 0-.891504-.094745-1.294327-.573466zm10.328-2.129169v-.838748h.708277c.808113 0 1.155609.26145 1.155609.869472 0 .497703-.496368.808025-1.292463.808025-.552978 0-.571423-.027064-.571423-.838749zM22.28256 22.921089c-.116768-.256284-.363778-.465971-.5489-.465971-.18512 0-.475327-.234872-.644904-.52194-.172774-.292482-.723053-.716195-1.25171-.963801-.637211-.29846-.943395-.55441-.943395-.788632 0-.563923.511428-.594759 1.136799-.068517.363189.305603.710453.450278.92067.383558.250185-.079409.35322.003728.398155.320357.04108.289551.349643.583337.956397.910538 1.263469.68134 1.55967 1.004918 1.255454 1.37147-.372598.448958-1.035142.357225-1.278566-.177032zm-4.880018 5.317062c0-.09977.184212-.560567.409362-1.023996l.409369-.842596.418636.884205c.230257.486318.423475.947115.429387 1.023996.005964.07689-.366694.139792-.828005.139792-.461312 0-.838749-.08163-.838749-.181401zm-4.192423-.158997c-.051965-.051965-.094514-.499902-.094514-.99539 0-.951133.10071-1.028753 1.201602-.926105.812505.075756 1.402343 1.267346.80889 1.634121-.297685.18398-1.794826.408534-1.915978.287374z"/>
    </g>
</svg>
