<svg xmlns="http://www.w3.org/2000/svg" viewBox="0 0 170.1 170.1">
    <path fill="#181716" d="M35.2 31.1c-1.2 6.5-6.4 11.4-10.4 16.4 7.2 8.2 12 20.9 5.7 31-6.8 18.5-8.7 42.3 5.7 57.7 7 7.9 18.1 9 28.1 8.2 7.5-.5 13.3 4.6 18.3 9.3 3.1 2.9 7.3.7 9.3-2.4 7.9-6.8 18.9-7.5 28.7-7.1 17-2.7 26.8-20.9 26.3-37 .6-14.4-6.1-27.7-8.3-41.5.9-7.4 5.7-13.4 8.9-19.9-6.9-2.7-8.6-9.8-12-15-33.1.7-67.5.2-100.3.3"/>
    <path fill="none" stroke="#fff3e4" stroke-miterlimit="22.926" stroke-width=".105" d="M35.2 31.1c-1.2 6.5-6.4 11.4-10.4 16.4 7.2 8.2 12 20.9 5.7 31-6.8 18.5-8.7 42.3 5.7 57.7 7 7.9 18.1 9 28.1 8.2 7.5-.5 13.3 4.6 18.3 9.3 3.1 2.9 7.3.7 9.3-2.4 7.9-6.8 18.9-7.5 28.7-7.1 17-2.7 26.8-20.9 26.3-37 .6-14.4-6.1-27.7-8.3-41.5.9-7.4 5.7-13.4 8.9-19.9-6.9-2.7-8.6-9.8-12-15-33.1.7-67.5.2-100.3.3"/>
    <path fill="#2874bb" d="M38.1 35c-2.8 7.3-5.7 9.6-8.6 12.6 3.8 6.4 8.4 12.3 8 20.3h97c-.5-8.1 4.2-14 8-20.3-2.8-2.9-5.7-5.2-8.6-12.6H38.1z"/>
    <path fill="none" stroke="#412714" stroke-miterlimit="22.926" stroke-width=".105" d="M38.1 35c-2.8 7.3-5.7 9.6-8.6 12.6 3.8 6.4 8.4 12.3 8 20.3h97c-.5-8.1 4.2-14 8-20.3-2.8-2.9-5.7-5.2-8.6-12.6H38.1z"/>
    <path fill="#ffe932" d="M105.8 83.7L91.3 69.9l10.8 16.9-11.9-16 7.7 18.5-9.1-17.9L93.2 91l-5.7-19.2 1 20-2.4-19.9-2.6 19.9 1.2-20-6 19.2 4.7-19.5-9.2 17.8 7.9-18.4-12.2 15.9 11-16.7-14.8 13.6 13.8-14.6L63 79.9 79 68l-18.4 7.7 17.8-9-19.6 4.4 19.3-5.7-20 .9L77.9 64l-19.8-2.6L78 62.5l-19.2-5.9 19.5 4.6-17.7-9.3 18.4 8-16-12.1 16.7 11L66.1 44l14.6 13.7-10.8-16.8 12 16-7.7-18.5 8.9 17.9-4.4-19.6 5.8 19.2-1-20 2.4 19.9 2.6-19.9-1.2 20 5.9-19.2-4.6 19.5 9.3-17.8-8 18.3 12.2-15.8-11 16.7L105.8 44 92.1 58.5 109 47.8 92.9 59.7l18.5-7.8L93.6 61l19.5-4.4L94 62.3l20-.9-19.9 2.3 19.9 2.6-20-1.2 19.1 6-19.5-4.6 17.8 9.2-18.3-7.9L109 79.9l-16.7-11z"/>
    <path fill="#fcea06" d="M96.8 63.9c0 6-4.9 10.8-10.8 10.8-6 0-10.8-4.9-10.8-10.8 0-6 4.9-10.8 10.8-10.8 6-.1 10.8 4.8 10.8 10.8"/>
    <path fill="#00642c" d="M111.3 53.6l-4.6 3.9-3.9 1.5-2.4 2-3.9 2.7-2.5 1.5-4.2 2.2-4.6-.5-4.2-.7-4.6-1-2-.5-.7-.9-3.3-2.8-1.3-2.4-.9-.5-4.2 2.6-4.4-2.7-2.4-.9-2.4.9-1.8-.5-2.2-1.3-2 .8-2.7 1.7-1.1-.6-2.2-1.7-3.4 2.6-2.4 1.9c1.4 4.7 1.4 10-2 16.7-.3 1.1-.6 2.2-.9 3.2l105.2 2.4c-.5-1.9-1-3.7-1.6-5.6-2.4-4.7-3.1-8.8-2.8-12.4-1-.2-4.6-.9-5.9-1.3-1.5-.5-2.4-.7-3.7-1.2-1.3-.5-3.2-2.4-3.2-2.4s-2.7-1.5-3.7-2-3.2-2.4-3.2-2.4l-3.9-2.3z"/>
    <path fill="none" stroke="#412714" stroke-miterlimit="22.926" stroke-width=".25" d="M111.2 53.6l-4.6 3.9-3.9 1.5-2.4 2-3.9 2.7-2.4 1.5-4.2 2.2-4.8-.5-4.2-.7-4.7-1-2-.5-.7-1-3.2-2.7-1.2-2.5-1-.4-4.2 2.7-4.4-2.7L57 57l-2.5 1-1.7-.5-2.2-1.3-2 .8-2.6 1.8-1.2-.7-2.2-1.7-3.5 2.6-2.4 1.9c1.4 4.7 1.4 10-2 16.7-.3 1.1-.6 2.2-.9 3.2L139 83.2c-.5-1.9-1-3.7-1.6-5.6-2.4-4.7-3.1-8.8-2.8-12.4-1-.2-4.6-.9-5.9-1.3-1.5-.5-2.4-.7-3.7-1.2-1.3-.5-3.2-2.4-3.2-2.4s-2.7-1.5-3.7-2-3.2-2.4-3.2-2.4l-3.7-2.3z"/>
    <path fill="#f7fafa" d="M62.4 109.1v31.6c10.1-1.1 16.4 4.9 23.6 11.1 6-6 13.7-11 23.6-11v-31.6l-47.2-.1z"/>
    <path fill="none" stroke="#412714" stroke-miterlimit="22.926" stroke-width=".105" d="M62.4 109.1v31.6c10.1-1.1 16.4 4.9 23.6 11.1 6-6 13.7-11 23.6-11v-31.6l-47.2-.1h0z"/>
    <path fill="#a4120c" d="M110.1 109.1v31.6h.2c16.7 1.2 29.5-5.7 32.6-31.6h-32.8z"/>
    <path fill="none" stroke="#c80f11" stroke-miterlimit="22.926" stroke-width=".105" d="M110.1 109.1v31.6h.2c16.7 1.2 29.5-5.7 32.6-31.6h-32.8z"/>
    <path fill="#00642c" d="M29.1 109.1c3.1 25.9 15.9 32.8 32.6 31.6h.2v-31.6H29.1z"/>
    <path fill="none" stroke="#005d34" stroke-miterlimit="22.926" stroke-width=".105" d="M29.1 109.1c3.1 25.9 15.9 32.8 32.6 31.6h.2v-31.6H29.1z"/>
    <path fill="#fff3e4" d="M111.2 53.6l-4.6 3.9-3.9 1.5-.5.4-.7 1.9 4.2-1.9-2 3.5 3.9-3.2 1.2 3.5 1.3-3.5s1.1 3.7 2 4.4c1 .7 1.6-4.2 1.6-4.2l2.4 3.8.2-3.9 2.6 3.2-.5-3.3 3.6 2.7-2-3c-.8-.4-1.3-.7-1.8-.9-1-.5-3.2-2.4-3.2-2.4l-3.8-2.5zm-68.7 2.7L39 58.9l-.3.3-.4 2.4 2.4-1.7v2.7l2.9-1.8.9 3.5 2-3.7 1.6 2.7 1-2.7 1.7 2.9 1.2-3.1 1.7 2.9 1.2-2.1 1.5 2.9 1.2-3.1 1.7 3.2s.5-2.4.9-1.7c.5.7 1.7 2.2 1.7 2.2l.6-2.6 1.6 2.7 1.1-3.7 1.5 2.6 1-2 1.7 1.6.2-2.2 1.7.9.2-.2-1.3-1.1-1.2-2.4-1-.5-4.2 2.7-4.4-2.7L57 57l-2.5 1-1.7-.5-2.2-1.3-2 .8-2.6 1.8-1.2-.7-2.3-1.8z"/>
    <path fill="none" stroke="#412714" stroke-miterlimit="22.926" stroke-width=".105" d="M111.2 53.6l-4.6 3.9-3.9 1.5-.5.4-.7 1.9 4.2-1.9-2 3.5 3.9-3.2 1.2 3.5 1.3-3.5s1.1 3.7 2 4.4c1 .7 1.6-4.2 1.6-4.2l2.4 3.8.2-3.9 2.6 3.2-.5-3.3 3.6 2.7-2-3c-.8-.4-1.3-.7-1.8-.9-1-.5-3.2-2.4-3.2-2.4l-3.8-2.5zm-68.7 2.7L39 58.9l-.3.3-.4 2.4 2.4-1.7v2.7l2.9-1.8.9 3.5 2-3.7 1.6 2.7 1-2.7 1.7 2.9 1.2-3.1 1.7 2.9 1.2-2.1 1.5 2.9 1.2-3.1 1.7 3.2s.5-2.4.9-1.7c.5.7 1.7 2.2 1.7 2.2l.6-2.6 1.6 2.7 1.1-3.7 1.5 2.6 1-2 1.7 1.6.2-2.2 1.7.9.2-.2-1.3-1.1-1.2-2.4-1-.5-4.2 2.7-4.4-2.7L57 57l-2.5 1-1.7-.5-2.2-1.3-2 .8-2.6 1.8-1.2-.7-2.3-1.8z"/>
    <path fill="#fff" d="M33.9 80.4c-2.7 9.3-4.9 18.8-4.8 28.1H143c.1-9.3-2.1-18.8-4.8-28.1H33.9z"/>
    <path fill="#dedc00" d="M101 80.4l-28.5-.2 7.7-14.1 4.7.8 4.7.5 2.8-1.5z" opacity=".83"/>
    <path fill="#181716" d="M40.6 83v1.6l2.1.2.5.5V103l-.6.6-2 .2v1.6h7.7v-1.6l-2-.2-.5-.6V87.5l11.5 18H61v-20l.5-.6 2-.2V83h-7.6v1.6l2 .2.6.6v14.3L48.3 84v-1h-7.7zm65.5-.1v1.6l2.2.2.4.4v17.8l-.5.6-2.1.2v1.6h7.6v-1.6l-2-.2-.5-.6V85.2l6.8 20.1h2.4l6.9-20.3v18l-.3.5-2 .2v1.6h9.3v-1.6l-2.3-.2-.4-.5V85.2l.4-.5 2.3-.2v-1.6h-9v.9l-5.2 15.3-5.2-15.3v-.9h-8.8zm-35.8 4.3v1l1.3.1.3.3v11.2l-.3.3-1.3.2v1h6.2c2.1 0 3.7-.3 5-1.3 1.7-1.3 2.6-3.2 2.6-5.7 0-4.5-2.7-7.1-7.6-7.1h-6.2zm14.2 0v1l1.3.1.3.3v11.3l-.3.3-1.3.2v1h11.4v-3.8h-1.4l-.4 2.2-.3.3h-4.9v-5.5h2.7l.4.4.2 1.6h1.3v-4.9h-1.3l-.2 1.5-.3.3H89v-5h4.2l.3.3.3 1.9h1.5v-3.3H84.5v-.2zm-9.6 1.3h1.3c3.4 0 4.9 2 4.9 5.9 0 4-1.6 5.9-4.9 5.9h-1.3V88.5z"/>
    <path fill="#3a3a39" d="M79 80.4h-1.5l4.3-14 .7.1zm15.3 0l-3.8-13.5.8-.4 4.5 13.9z"/>
    <path fill="#683a07" d="M79.7 68.4c.5-.3 1.2-.5 1.7-.7h10.3c.5.2 1.2.4 1.7.7-.5.3-1.2.5-1.7.7H81.3c-.5-.2-1.1-.4-1.6-.7zm-1.4 2.4c.7-.3 1.4-.5 2.1-.7H93c.7.2 1.4.4 2.1.7-.7.3-1.4.5-2.1.7H80.4c-.7-.2-1.4-.4-2.1-.7zm-1.4 2.7c.8-.3 1.6-.5 2.4-.7H94c.8.2 1.6.4 2.4.7-.8.3-1.6.5-2.4.7H79.4c-.8-.3-1.6-.4-2.5-.7zm-2 2.6c1-.3 2-.5 3-.7h17.8c1 .2 2 .4 3 .7-1 .3-2 .5-3 .7H77.9c-1-.1-2-.4-3-.7zm-1.4 2.5c1.1-.3 2.2-.5 3.2-.7h19.5c1.1.2 2.2.4 3.2.7-1.1.3-2.2.5-3.2.7H76.8c-1.1-.3-2.2-.4-3.3-.7z"/>
    <path fill="none" stroke="#181716" stroke-miterlimit="22.926" stroke-width="1.437" d="M32.4 80.1h107.8M26.8 108.3h119.1m-83.8 33.6v-33.2m47.9 32.9V108"/>
</svg>
