<svg height="192.12315" width="192" viewBox="0 0 191.99999 192.12315">
    <g transform="translate(-8.744067 -8.62091) scale(1.23156)">
        <clipPath id="a">
            <use height="100%" width="100%" overflow="visible"/>
        </clipPath>
        <g clip-path="url(#a)">
            <g clip-path="url(#SVGID_4_)">
                <image transform="matrix(0 1.2029 -1.3184 0 73.4897 53.7516)" height="30" width="50" overflow="visible"/>
            </g>
        </g>
    </g>
    <g transform="translate(-8.744067 -8.62091) scale(1.23156)">
        <clipPath id="b">
            <use height="100%" width="100%" overflow="visible"/>
        </clipPath>
        <g clip-path="url(#b)">
            <g clip-path="url(#SVGID_8_)">
                <image transform="matrix(0 1.2029 -1.3184 0 106.45 53.7516)" height="25" width="50" overflow="visible"/>
            </g>
        </g>
    </g>
    <g transform="translate(-8.744067 -8.62091) scale(1.23156)">
        <clipPath id="c">
            <use height="100%" width="100%" overflow="visible"/>
        </clipPath>
        <g clip-path="url(#c)">
            <g clip-path="url(#SVGID_12_)">
                <image transform="matrix(0 1.2029 -1.3184 0 138.0919 53.7516)" height="25" width="50" overflow="visible"/>
            </g>
        </g>
    </g>
    <g transform="translate(-8.744067 -8.62091) scale(1.23156)">
        <clipPath id="d">
            <use height="100%" width="100%" overflow="visible"/>
        </clipPath>
        <g clip-path="url(#d)">
            <g clip-path="url(#SVGID_16_)">
                <image transform="matrix(0 1.2029 -1.3184 0 164.4602 5.6352)" height="120" width="132" overflow="visible"/>
            </g>
        </g>
    </g>
    <g transform="translate(-8.744067 -8.62091) scale(1.23156)">
        <clipPath id="e">
            <use height="100%" width="100%" overflow="visible"/>
        </clipPath>
        <g clip-path="url(#e)">
            <g clip-path="url(#SVGID_20_)">
                <image transform="matrix(0 1.2029 -1.3184 0 152.5944 17.6643)" height="102" width="112" overflow="visible"/>
            </g>
        </g>
    </g>
</svg>
