<svg xmlns="http://www.w3.org/2000/svg" width="240" height="238.07614" viewBox="0 0 240 238.07614">
    <path class="color-black color-main" fill="#161616" d="M32.54946 100h80.32787c-.90446.90447-1.86546 1.80893-2.99604 2.48728-3.33522-1.01752-6.84002-2.03504-10.40136-1.7524 1.69588.67835 3.27869 1.58282 4.57886 2.82646-2.65687-.28265-5.37027-.67835-8.02713-.73488-3.1091-.0565-6.21821.28264-9.32731.73488 1.58282.84793 3.27869 1.3567 4.91804 1.80893-20.35048.0565-40.64444 0-60.99492 0 .62182-1.7524 1.24364-3.56134 1.92199-5.37027zm80.83663 0h3.6744c-1.07406.90447-2.14811 1.92199-3.33522 2.7134L113.38609 100zm4.35275 0h29.56472c2.93952 5.93556 5.87903 11.92765 8.81854 17.8632 2.09158-5.93555 4.0701-11.98417 6.21821-17.8632h15.71509c-.56529 1.52629-1.07405 3.05258-1.58282 4.57886 3.27869-2.37422 7.29226-3.5048 11.2493-3.95704 8.36631-.90446 16.95873-.7914 25.09892 1.41323 2.99605 1.01753 6.50085 2.65687 7.1792 6.04862v2.1481c-.22612 1.24364-.79141 2.37423-1.41323 3.44828-5.93555-.22612-11.87111-.45223-17.8632-.67835.33918-.84794.90447-1.92199.28265-2.82646-1.24364-.73488-2.82646-.67835-4.23969-.73488-1.69587.0565-3.39174-.16958-4.97456.33918-.96099.22612-1.52628 1.30017-1.3567 2.20463.39571.90447 1.46976 1.07406 2.3177 1.18712 3.39174.33917 6.78349.73487 10.17524 1.24364 3.1091.3957 6.38779.73488 9.10119 2.48728 2.31769 1.3567 4.29621 3.61786 4.29621 6.44432-.16959 4.80497-2.82646 9.55342-6.95308 11.98417-2.37423 1.41323-5.20068 2.03505-7.91408 2.20463-4.74844.28265-9.55342.79141-14.30186.39571-4.29622-.28265-8.70549-.28265-12.94517-1.3567-2.99604-.73488-5.37027-2.99604-6.89655-5.65291l-1.86546 5.42679c-5.4268.0565-10.85359.0565-16.28039-.0565-3.05257-5.87902-5.99208-11.87111-8.98813-17.75014-2.03504 5.93556-4.07009 11.81459-6.16167 17.75014-9.77954-.0565-19.6156 0-29.45167-.0565 1.13058-3.1091 2.14811-6.2182 3.27869-9.27077.33918-.961 1.52629-1.80893 2.48728-1.18711 1.3567.67835 2.82646 1.13058 4.40927 1.18711 2.88299 1.92199 5.93556 3.61786 9.27078 4.57886.33917.90446.45223 2.09158 1.41322 2.48728 1.41323.45223 2.88299-.22612 4.18316-.73488.67835-.33917 1.52629-.50876 2.03505-1.18711.28264-.73488.11306-1.52629.3957-2.26117.33918-.67834.84794-1.18711 1.30017-1.7524-3.44828-3.67439-6.50085-7.68796-9.27077-11.87111-.73488-1.13058-1.80894-2.14811-1.86546-3.61786-.0565-1.07406-1.30017-1.41323-1.86547-2.20464-1.41322-1.86546-2.93951-3.73092-4.74844-5.20068 1.13058-1.58281 1.7524-3.33522 2.14811-5.20068m51.89372 24.42058c5.48332.11306 10.91012.50876 16.39344.62182-.11305.84794-.3957 1.92199.39571 2.48728 1.80893 1.30017 4.18315 1.18711 6.27473 1.18711 1.3567-.11306 2.82645 0 4.12662-.62182.90447-.45223 1.86546-1.7524 1.07406-2.76992-1.07406-.90447-2.65687-.67835-3.95704-.90447-4.8615-.67835-9.8926-.28265-14.64104-1.69587-2.88299-.84794-5.93556-2.37423-7.23573-5.25721-.7914 2.26116-1.63934 4.63539-2.43075 6.95308zM27.91408 113.17129c.62182-1.80894 1.24364-3.61787 1.86546-5.4268 17.2979.0565 34.53928 0 51.83719.0565-.84793.28265-1.7524.56529-2.65687.84794 2.54381.45223 5.14415 1.01752 7.63143 1.69587-4.74844.22612-9.38383 1.01752-13.96269 2.31769-.90446.22612-1.7524.5653-2.71339.5653-13.96269-.0565-27.98191-.0565-42.00113-.0565zm-.73488 2.26116h48.95421c1.52628 0 3.1091-.0565 4.57886.11306-4.57886 1.01752-9.04466 2.54381-13.28434 4.57886-.73488.33917-1.41323.84793-2.3177.7914H25.20068c.67835-1.80893 1.30017-3.67439 1.97852-5.48332zm-2.65687 7.68796h45.16676c.90447 0 1.69587.45223 2.48728.79141-2.31769.79141-4.74844 1.3567-7.00961 2.43075-1.69587.67835-3.27869 1.63934-5.08762 2.14811-12.49293.0565-24.92934 0-37.42227.0565.56529-1.80893 1.18711-3.61786 1.86546-5.42679zm-2.7134 7.74449h37.59186c1.41323 0 2.76993.50876 4.12663.84794-3.33522 1.30016-6.67044 2.60033-10.00566 3.9005-.73487.28265-1.52628.67835-2.31769.67835-10.40136-.0565-20.80271-.0565-31.20407-.0565.50876-1.80893 1.18711-3.56133 1.80893-5.37026z"/>
</svg>
