<?xml version="1.0" encoding="UTF-8" standalone="no"?>
<svg
    xmlns="http://www.w3.org/2000/svg"
    height="120.56132"
    width="192"
    xml:space="preserve"
    viewBox="0 0 191.99999 120.56131"
    y="0px"
    x="0px"
    id="Layer_1"
    version="1.1">
  <style
      id="style73"
      type="text/css">
    .st0{fill:none;stroke:#000000;stroke-width:1.5945;stroke-miterlimit:10;}
    .st1{fill:#000000;}
    </style><g
    transform="matrix(1.2190902,0,0,1.2190902,-7.6836208,-43.402964)"
    id="g4607"><path
    style="fill:none;stroke:#000000;stroke-width:1.59449995;stroke-miterlimit:10;stroke-opacity:1"
    id="path75"
    d="M 85,133.7 C 64.4,133.7 45.1,128.8 30.4,119.9 15.4,110.7 7.1,98.3 7.1,85 c 0,-13.3 8.3,-25.6 23.4,-34.8 14.6,-8.9 34,-13.8 54.6,-13.8 20.6,0 39.9,4.9 54.6,13.8 15,9.2 23.3,21.6 23.3,34.8 0,13.2 -8.3,25.6 -23.4,34.8 -14.6,9 -34,13.9 -54.6,13.9 z"
    class="st0" /><ellipse
    style="fill:none;stroke:#000000;stroke-width:1.59449995;stroke-miterlimit:10"
    id="ellipse77"
    ry="45.599998"
    rx="74.900002"
    cy="85"
    cx="85"
    class="st0" /><path
    style="fill:#000000;fill-opacity:1"
    id="path79"
    d="m 10.2,87.5 c 0.4,-0.3 0.4,-5.6 0.5,-6.1 0.7,-4.6 2.3,-8.8 4.9,-12.7 3,-4.6 6.9,-8.5 11.2,-11.8 6.9,-5.3 14.7,-9 23,-11.7 6.1,-2 12.4,-3.4 18.8,-4.3 4.9,-0.6 9.8,-1 14.8,-1 9.8,-0.1 19.4,1 28.9,3.4 8.1,2 16.1,4.6 23.4,8.7 5.4,3.1 10.5,6.7 14.7,11.2 3.5,3.8 6,8.4 7.6,13.3 0.7,2 1,4 1.5,6.1 0.1,0.2 0.3,0.5 0.5,0.6 1.5,0.7 -0.3,5.5 -0.4,5.9 -0.5,4.7 -2.2,8.9 -4.7,12.9 -2.3,3.7 -5.1,6.8 -8.4,9.7 -4.5,4 -9.6,7.2 -15,9.8 -6.6,3.3 -13.6,5.6 -20.8,7.1 -3,0.6 -6.1,1.1 -9.1,1.6 -4.8,0.8 -9.7,1.1 -14.6,1 -3.5,0 -7.1,-0.1 -10.6,-0.3 -2.4,-0.1 -4.8,-0.3 -7.2,-0.7 -3.5,-0.6 -6.9,-1.2 -10.3,-2 -6.5,-1.5 -12.7,-3.6 -18.7,-6.4 -6.6,-3.1 -12.7,-6.9 -18,-12 -4.7,-4.5 -8.5,-9.7 -10.5,-16 -0.6,-1.8 -0.8,-3.7 -1.3,-5.5 0,-0.4 -0.1,-0.6 -0.2,-0.8 z m 89.9,9.5 c -0.4,-0.3 -0.7,-0.5 -0.9,-0.8 -0.3,-0.4 -0.6,-0.9 -0.6,-1.3 0,-2.2 0,-4.5 0,-6.7 0,-0.4 0.1,-0.6 0.6,-0.6 0.8,0 1.5,0 2.3,0 0.5,0 0.8,0.2 1,0.6 1.1,2.2 2.3,4.5 3.4,6.7 0.3,0.7 0.5,1.4 0.8,2.3 1.5,0 3.2,0 4.7,0 -0.5,-0.5 -1.2,-1.1 -1.6,-1.9 -1.1,-2.1 -2.1,-4.2 -3.1,-6.3 -0.3,-0.5 -0.5,-1.1 -0.8,-1.7 0.5,-0.1 0.9,-0.2 1.2,-0.2 1.7,-0.3 3.1,-0.9 4.2,-2.3 0.8,-1 0.9,-2 0.4,-3.2 -0.5,-1.1 -1.6,-1.7 -2.6,-2.2 -1.7,-0.8 -3.6,-0.7 -5.4,-0.8 -2.2,0 -4.4,-0.1 -6.6,-0.1 -1,0 -2,0 -3.2,0 0.3,0.3 0.5,0.5 0.6,0.7 0.3,0.6 0.7,1.1 0.8,1.7 0,3.6 0,7.3 -0.1,10.9 -0.1,1.7 0.4,3.6 -1,5 0,0 0,0.1 0,0.2 1.8,0 3.8,0 5.9,0 z M 36.9,71.2 c -0.5,0.1 -0.9,0.2 -1.3,0.3 -0.4,0 -0.8,-0.2 -1.2,-0.2 -1.3,-0.1 -2.6,-0.4 -3.8,-0.3 -5.3,0.7 -8.6,4 -10.6,8.6 -1.7,3.9 -1.4,7.9 -0.1,11.9 2.2,6.8 8.1,11.5 15.2,11.5 3.5,0 6.8,-0.9 9.7,-3 0.3,-0.2 0.5,-0.4 0.7,-0.6 -1.2,0.5 -2.3,1.1 -3.5,1.5 -3.6,1.1 -7.1,1.4 -10.6,-0.4 C 29.1,99.3 27.2,97.9 25.9,95.6 24,92.1 23,88.3 23.3,84.3 c 0.2,-3 0.9,-5.8 2.5,-8.4 2.3,-3.9 6.1,-4.7 9.8,-2.6 0.6,0.4 1.2,0.9 1.7,1.4 -0.1,-1.2 -0.2,-2.4 -0.4,-3.5 z m 90.7,26.1 c 2.2,0 4.3,0 6.3,0 -0.3,-0.6 -0.7,-1.1 -1,-1.7 -2.4,-5.5 -4.9,-11.1 -7.3,-16.7 -0.3,-0.7 -0.6,-1.3 -0.9,-2 -0.1,0.2 -0.2,0.2 -0.2,0.3 -0.5,1.2 -1.1,2.3 -2.1,3.1 -0.1,0.1 0,0.4 0,0.6 0,0.3 0.1,0.7 0,1 -0.6,1.3 -1.2,2.6 -1.8,3.9 -0.4,0.9 -0.9,1.7 -1.4,2.7 -0.4,-0.2 -0.8,-0.4 -1.1,-0.6 -1.2,-0.7 -1.2,-0.7 -1.8,0.5 -0.3,0.7 -0.7,1.4 -1,2.1 0.8,0.2 1.5,0.3 2.2,0.5 0.3,0.1 0.5,0.2 0.3,0.6 -0.9,1.8 -1.4,3.8 -3.1,5.1 -0.1,0.1 -0.2,0.3 -0.4,0.5 1.4,0 2.6,0 4.1,0 -1.1,-0.8 -0.8,-1.6 -0.3,-2.5 0.4,-0.8 0.8,-1.6 1.1,-2.4 0.2,-0.4 0.4,-0.5 0.7,-0.3 0.7,0.4 1.3,0.8 1.9,1.3 0.5,0.4 0.9,0.8 1.4,1.3 1,-1.4 1.9,-3 3.5,-3.8 0.2,0.3 0.3,0.5 0.5,0.7 0.5,1 0.9,2 1.4,3 0.2,0.5 0.2,0.9 0,1.4 -0.4,0.3 -0.7,0.8 -1,1.4 z M 53.2,78.2 c 0,0.1 0,0.1 0,0.2 0.2,0.2 0.4,0.3 0.6,0.5 0.7,0.5 1,1.1 1,2 -0.1,3.7 -0.1,7.4 -0.2,11.1 0,1.6 0.1,3.1 -0.9,4.5 0,0 0,0 0,0.1 1,0 1.9,0 2.8,0 C 56.3,96 56,95.4 56,94.9 c 0,-3.5 0.1,-7.1 0.1,-10.6 0,-0.4 0.1,-0.8 0.1,-1.3 4.3,4.8 8.3,9.7 12.5,14.4 0.5,-1.4 0.9,-2.7 1.4,-4 0.2,-0.4 0.2,-0.6 -0.3,-0.8 -0.3,-0.1 -0.6,-0.4 -0.6,-0.7 -0.2,-0.6 -0.4,-1.3 -0.4,-1.9 0,-2.7 0.1,-5.5 0.1,-8.2 0,-1.2 0.3,-2.2 1.1,-3.1 0.1,-0.1 0.1,-0.2 0.1,-0.3 -1.2,0 -2.2,0 -3.3,0 0,0.1 -0.1,0.1 -0.1,0.2 0.1,0.1 0.3,0.1 0.4,0.2 0.7,0.5 0.9,1.1 0.9,2 -0.1,2.4 0,4.8 -0.1,7.2 0,0.8 -0.1,1.5 -0.1,2.3 -0.3,-0.1 -0.5,-0.3 -0.7,-0.5 -2.8,-3.3 -5.5,-6.5 -8.3,-9.8 -0.3,-0.3 -0.5,-0.7 -0.4,-1.1 0.1,-0.4 -0.1,-0.6 -0.5,-0.6 -0.7,0 -1.4,0 -2.1,0 -0.9,-0.1 -1.8,-0.1 -2.6,-0.1 z m -2.1,13.4 c -0.9,0.8 -1.7,1.7 -2.6,2.2 -0.8,0.5 -1.7,1 -2.6,1 -2.3,0.1 -4.6,0 -6.8,0.1 -0.6,0 -0.8,-0.2 -0.8,-0.8 0.1,-2.4 0.1,-4.9 0.1,-7.3 0,-0.5 0.2,-0.6 0.6,-0.6 1.2,0.1 2.4,0.1 3.6,0.1 1.2,0 2.2,0.3 3.2,1 0.2,0.1 0.3,0.2 0.5,0.3 0,0 0.1,-0.1 0.1,-0.1 -0.5,-1.3 -1,-2.6 -1.6,-4.1 -0.3,0.4 -0.4,0.7 -0.6,0.9 -0.2,0.2 -0.5,0.5 -0.8,0.5 -1.6,0 -3.1,0 -4.7,0 -0.4,0 -0.4,-0.2 -0.4,-0.5 0,-1.1 0,-2.3 0,-3.4 0,-0.5 0,-1 0.1,-1.6 1.6,0 3.1,0 4.7,0 1,0 2,0 3,0.1 1.3,0.2 2.3,0.9 3.4,1.8 -0.2,-1 -0.4,-2 -0.7,-2.9 0,-0.1 -0.4,-0.2 -0.6,-0.2 -4.8,0 -9.5,0 -14.3,0 -0.2,0 -0.4,0 -0.8,0 0.4,0.4 0.7,0.6 1,0.9 0.5,0.5 0.8,1 0.7,1.7 0,4 -0.1,8 0,11.9 0,1.2 -0.2,2.3 -1,3.3 -0.1,0.1 -0.1,0.2 -0.2,0.4 0.2,0 0.3,0.1 0.4,0.1 4.7,0.1 9.4,0.1 14.1,0.1 0.2,0 0.5,-0.2 0.6,-0.5 0.6,-1.2 1.2,-2.4 1.7,-3.6 0.4,-0.2 0.5,-0.4 0.7,-0.8 z m 70.8,16.9 c 0.1,0 0.2,0 0.3,0.1 -0.2,3.7 0.3,7.4 -0.4,11.1 1.1,0 2.2,0 3.2,0 -0.2,-0.9 -0.5,-1.7 -0.5,-2.5 0,-2.3 0,-4.6 0,-7 0,-1 0.1,-1.9 0.5,-2.8 0.1,-0.2 0.2,-0.5 0.3,-0.8 -1.6,0 -3.1,0 -4.6,0 0.2,0.8 -2.4,6 -3.3,6.6 -0.6,-1.2 -1.2,-2.3 -1.7,-3.5 -0.4,-1 -1.3,-1.9 -0.7,-3.2 -1.5,0 -2.8,0 -4.1,0 0.4,4.4 0.3,8.8 -0.1,13.2 0.8,0 1.7,0 2.7,0 -0.2,-0.4 -0.4,-0.6 -0.5,-0.9 -0.2,-0.4 -0.5,-0.9 -0.5,-1.3 0,-2.2 0,-4.4 0.1,-6.6 0,-0.1 0.1,-0.3 0.1,-0.4 0.1,0 0.1,0 0.2,0 1.3,3 2.7,6 4.1,9.1 0.5,-0.6 0.9,-1.1 1.3,-1.5 0.7,-0.7 0.8,-1.4 0.3,-2.2 -0.3,-0.4 -0.2,-0.8 0,-1.3 0.7,-1.2 1.3,-2.3 1.9,-3.5 0.4,-0.9 0.9,-1.7 1.4,-2.6 z M 91.6,82 c 0,0 0.1,0 0,0 -0.4,-1.1 -0.8,-2.2 -1.3,-3.2 -0.1,-0.2 -0.4,-0.3 -0.6,-0.4 -0.8,0 -1.5,0 -2.3,0 -1.7,0 -3.4,0 -5.1,0 -2.5,0 -4.9,0 -7.4,0 -0.4,0 -0.7,0.2 -0.8,0.6 -0.3,0.8 -0.7,1.5 -1.1,2.3 -0.1,0.2 -0.2,0.4 -0.2,0.6 0.2,0 0.3,-0.1 0.4,-0.1 1.9,-1.5 4,-2.1 6.4,-2 0.6,0 0.8,0.2 0.8,0.8 -0.1,4.3 -0.2,8.6 -0.2,12.8 0,1.1 -0.1,2.2 -0.8,3.1 -0.1,0.1 -0.1,0.2 -0.1,0.4 2.1,0 4.1,0 6.2,0 C 84.5,96 84,95 84,93.8 c 0,-4.4 0.1,-8.8 0.1,-13.2 0,-0.5 0.1,-0.7 0.7,-0.7 0.4,0.1 0.7,0 1.1,0 1.4,0.1 2.8,0.1 4,0.9 0.6,0.3 1.1,0.8 1.7,1.2 z m 50.7,13.8 c 0,-1.9 0,-3.6 0,-5.4 0,-2.5 0.1,-5.1 0.1,-7.6 0,-1.4 0.1,-2.6 1.3,-3.5 0,0 0,-0.1 0,-0.2 -2.2,0 -4.4,0 -6.7,0 0.4,0.4 0.8,0.7 1.1,1 0.3,0.3 0.5,0.8 0.5,1.2 0,4.5 0,9 -0.1,13.5 0,0.5 -0.3,1 -0.6,1.4 -0.2,0.4 -0.6,0.7 -1,1.1 0.2,0.1 0.4,0.1 0.5,0.1 2.1,0 4.3,0 6.4,0.1 2.7,0 5.4,0 8.1,0.1 0.4,0 0.6,-0.1 0.8,-0.4 0.4,-0.7 0.8,-1.4 1.3,-2.2 0.2,-0.4 0.4,-0.8 0.6,-1.2 0,-0.1 -0.1,-0.1 -0.1,-0.2 -3.9,2.7 -8.1,2.5 -12.2,2.2 z M 74.5,63.3 c -0.1,0 -0.1,0 -0.2,0 -0.6,-1.6 -1.1,-3.2 -1.7,-4.7 -0.3,-0.9 -0.6,-1.7 -0.2,-2.6 0,0 0,-0.1 -0.1,-0.2 -1,0 -2.1,0 -3.2,0 0.4,1.1 0.1,2 -0.3,2.9 -0.3,0.7 -0.5,1.3 -0.8,2 -0.4,0.9 -0.8,1.8 -1.3,2.9 -0.1,-0.2 -0.2,-0.3 -0.2,-0.4 -0.6,-1.9 -1.3,-3.8 -1.9,-5.7 -0.1,-0.4 0,-0.8 0,-1.2 0,-0.2 0.1,-0.3 0.2,-0.6 -1.4,0 -2.8,0 -4.2,0 0.2,0.3 0.4,0.5 0.5,0.8 0.2,0.4 0.5,0.9 0.7,1.4 1.2,3.7 2.3,7.3 3.5,11 0.1,0.3 0.3,0.7 0.4,1 0.7,-1 1.3,-1.9 1.9,-2.8 0.1,-0.1 0,-0.3 -0.1,-0.4 -0.4,-0.8 -0.4,-1.5 0,-2.3 0.5,-1.1 0.9,-2.2 1.3,-3.2 0.3,-0.8 0.6,-1.5 1,-2.4 1.3,3.9 2.6,7.6 3.8,11.3 0.8,-1.1 1.5,-2.1 2.2,-3.2 0,0 -0.1,-0.1 -0.2,-0.2 C 75,66 74.9,65.4 75.2,64.5 76,62.4 76.8,60.2 77.5,58 c 0.3,-0.8 0.6,-1.5 1.3,-1.9 0,0 0,-0.1 0,-0.1 -0.7,0 -1.3,0 -1.9,0 -0.3,2.5 -1.7,4.8 -2.4,7.3 z m 45,-1 c 0.4,-0.1 0.8,-0.2 1.2,-0.3 1,-0.3 1.9,-0.9 2.4,-1.8 0.6,-1.1 0.4,-2.3 -0.6,-3 -0.8,-0.6 -1.8,-1 -2.8,-1.1 -2.5,-0.1 -5,-0.1 -7.5,-0.1 -0.3,0 -0.6,0 -0.9,0 0.1,0.2 0.1,0.3 0.2,0.4 0.4,0.5 0.5,1.1 0.4,1.8 -0.1,2.9 -0.2,5.8 -0.2,8.8 0,0.9 -0.3,1.6 -0.7,2.3 -0.1,0.1 -0.2,0.3 -0.3,0.5 1.6,0 3,0 4.4,0 -0.2,-0.5 -0.7,-1.1 -0.7,-1.7 -0.1,-1.7 0,-3.4 0,-5.2 0,-0.4 0.2,-0.6 0.5,-0.5 0.5,0 0.9,0.1 1.4,0 0.5,0 0.7,0.1 0.9,0.5 0.5,1.1 1,2.2 1.5,3.4 0.4,1 0.7,2.1 1.1,3.1 0.1,0.2 0.2,0.4 0.4,0.4 1,0 1.9,0 3,0 -1.3,-2.5 -2.5,-4.9 -3.7,-7.5 z m -9.9,0.4 c -0.1,-0.9 -0.1,-1.8 -0.4,-2.7 -0.9,-2.5 -2.8,-4 -5.4,-4.4 -2.5,-0.4 -4.6,0.5 -6.2,2.4 -1.4,1.6 -1.7,3.5 -1.5,5.6 0.2,2.7 2.6,5.4 5.2,6 3.1,0.9 8.2,-1.6 8.3,-6.9 z m 21.4,0.1 c 0.2,0.3 0.4,0.5 0.5,0.7 0.8,1.4 1.6,2.8 2.3,4.3 0.2,0.5 0.3,1.1 0.3,1.6 0,0.5 0.1,0.6 0.5,0.6 0.9,0 1.9,0 2.8,0 0.3,0 0.7,0 1,0 -0.5,-0.6 -1,-1.1 -1.3,-1.6 -1.2,-2.2 -2.2,-4.5 -3.4,-6.7 -0.5,-0.9 -0.6,-1.5 0.2,-2.3 0.8,-0.8 1.5,-1.7 2.3,-2.6 0.2,-0.2 0.4,-0.3 0.8,-0.6 -1,0 -1.8,0 -2.4,0 -0.2,0.6 -0.4,1.1 -0.7,1.5 -1.1,1.4 -2.3,2.8 -3.5,4.2 -0.6,0.6 -1.1,1.2 -1.8,2 0,-1.7 0,-3.2 0,-4.6 0,-1 -0.1,-2.1 0.9,-3 -1.4,0 -2.6,0 -3.9,0 0.1,0.2 0.1,0.4 0.2,0.5 0.4,0.6 0.5,1.2 0.5,1.9 -0.1,2.6 -0.1,5.2 -0.1,7.9 0,1.1 0,2.3 -0.7,3.3 0,0 0,0.1 0,0.2 1.3,0 2.6,0 4,0 -0.3,-0.5 -0.6,-1 -0.8,-1.5 -0.4,-0.9 -0.5,-1.9 -0.1,-2.7 0.6,-1.2 1.5,-2.1 2.4,-3.1 z m -50.9,43.1 c -0.6,0 -1.1,0 -1.7,0 -1.3,-0.1 -2.6,-0.3 -4,-0.2 -1.8,0.1 -3,1.2 -3.4,2.8 -0.4,1.7 0.1,3.4 1.5,4.3 0.8,0.5 1.7,0.8 2.5,1.1 0.8,0.3 1.6,0.5 2.3,0.8 1.2,0.6 1.3,1.8 0.3,2.7 -0.3,0.2 -0.6,0.4 -0.9,0.4 -1.6,0.3 -3,0 -4.3,-0.9 -0.3,-0.2 -0.6,-0.5 -1,-0.7 0,1 0,2 0,2.8 0.9,0.2 1.8,0.3 2.7,0.5 1.6,0.3 3.1,0.3 4.6,-0.4 1.6,-0.7 2.5,-2 2.5,-3.7 0,-1.6 -0.8,-2.8 -2.3,-3.5 -0.6,-0.3 -1.3,-0.5 -2,-0.8 -0.7,-0.3 -1.4,-0.5 -2,-0.9 -0.8,-0.5 -1.1,-1.2 -0.9,-1.9 0.3,-0.9 1,-1.5 1.9,-1.5 0.6,0 1.3,0.2 1.8,0.5 0.8,0.4 1.6,0.9 2.4,1.3 0,-0.9 0,-1.8 0,-2.7 z m -34.6,9.9 c 0,0 -0.1,0 -0.1,0 0.1,0.5 0.2,1 0.2,1.6 0.1,0.8 0.2,1.4 1.3,1.6 1.8,0.5 3.5,0.9 5.4,0.2 2.4,-0.8 3.7,-3.4 2.8,-5.6 -0.6,-1.5 -1.9,-2.1 -3.3,-2.6 -0.8,-0.3 -1.6,-0.6 -2.4,-1 -0.7,-0.3 -1,-0.9 -0.9,-1.6 0.1,-0.7 0.6,-1.2 1.3,-1.4 0.8,-0.3 1.6,-0.2 2.4,0.2 0.7,0.4 1.4,0.9 2.3,1.4 -0.1,-0.9 -0.1,-1.7 -0.2,-2.4 -1.2,-0.2 -2.2,-0.3 -3.3,-0.5 -2.3,-0.4 -3.9,0.5 -4.9,2.5 -0.9,1.8 -0.5,3.2 1.1,4.3 0.8,0.5 1.8,1 2.7,1.4 0.7,0.4 1.5,0.7 2.1,1.2 0.7,0.6 0.7,1.2 0.1,1.9 -0.5,0.6 -1.1,1 -1.9,1 -1.3,0.1 -2.5,-0.3 -3.5,-1.2 -0.5,-0.4 -0.9,-0.7 -1.2,-1 z m 55.3,-8 c 2.1,-0.2 4.1,0 6.1,0.6 0,-0.6 0,-1 0,-1.4 0,-0.5 -0.2,-0.7 -0.7,-0.7 -1.9,0 -3.8,-0.1 -5.7,-0.1 -1,0 -2,0 -2.9,0 0.7,4.5 0.6,8.8 0,13.2 0,0 0,0 0.1,0 2.8,0.1 5.6,0.1 8.5,0.1 0.1,0 0.4,-0.1 0.4,-0.2 0.3,-0.7 0.6,-1.5 1,-2.3 -2.3,0.6 -4.5,0.6 -6.8,0.4 0,-1.3 0,-2.7 0,-4 0,-0.4 0.2,-0.5 0.5,-0.5 0.6,0 1.3,-0.1 1.9,0 0.9,0.1 1.8,0.2 2.7,0.3 -0.2,-0.6 -0.4,-1.1 -0.6,-1.6 -0.1,-0.4 -0.3,-0.5 -0.7,-0.4 -1.1,0.1 -2.2,0.2 -3.3,0.2 -0.5,0 -0.6,-0.2 -0.6,-0.6 0.1,-0.9 0.1,-1.9 0.1,-3 z M 43,64.7 c -0.2,-0.3 -0.4,-0.4 -0.5,-0.6 -2.3,-2.7 -4.5,-5.4 -6.8,-8 -0.2,-0.2 -0.4,-0.4 -0.6,-0.4 -0.7,-0.1 -1.4,0 -2.2,0 0.2,0.3 0.3,0.5 0.5,0.7 0.6,0.7 0.9,1.5 0.8,2.4 -0.1,2 -0.2,4 -0.2,6 0,1.5 0.1,2.9 -0.8,4.2 0,0 0,0.1 0,0.2 0.8,0 1.6,0 2.3,0 -0.2,-0.8 -0.5,-1.7 -0.5,-2.5 -0.1,-1.8 0,-3.7 0,-5.5 0,-0.4 0,-0.7 0,-1.1 0.1,0 0.1,-0.1 0.2,-0.1 3,3.4 5.9,6.8 8.9,10.2 C 44.4,69 44.7,68 45,66.8 44.3,66.5 44.2,65.7 44.2,65 c 0,-1.4 -0.1,-2.7 0,-4.1 0.2,-1.7 -0.5,-3.6 0.7,-5.3 -0.8,0 -1.4,0 -2.1,0 0.2,0.6 0.5,1.1 0.5,1.6 0,2.2 -0.1,4.4 -0.1,6.6 -0.1,0.3 -0.2,0.6 -0.2,0.9 z m 12.3,-4.9 c -1.1,1.1 -2,1.1 -3.3,1 -0.1,0 -0.4,-0.3 -0.4,-0.4 0,-1.1 0,-2.1 0,-3.2 0,-0.4 0.2,-0.5 0.6,-0.5 1,0 2,-0.1 3,0 0.8,0.1 1.6,0.4 2.4,0.6 0.2,0.1 0.4,0.2 0.6,0.4 0,-0.7 0.1,-1.3 0.1,-2 -3.4,0 -6.7,0 -10.1,0 0.1,0.2 0.2,0.4 0.3,0.5 0.5,0.5 0.6,1.2 0.6,2 -0.1,3 -0.2,5.9 -0.2,8.9 0,0.5 -0.1,1 -0.5,1.3 -0.3,0.3 -0.6,0.6 -1.1,1 4.7,0 9.3,0 13.9,0 -1,-1.2 -1.9,-2.4 -2.9,-3.7 0,0.9 -0.1,1.6 -0.1,2.3 0,0.4 -0.2,0.5 -0.5,0.5 -1.9,-0.1 -3.7,-0.1 -5.6,-0.2 -0.5,0 -0.6,-0.2 -0.6,-0.7 0.1,-1.8 0.1,-3.6 0.1,-5.4 0,-0.5 0.2,-0.6 0.7,-0.6 1.4,0 2.8,0 4.2,0.6 -0.4,-0.7 -0.8,-1.5 -1.2,-2.4 z M 91,119.4 c -0.1,-0.2 -0.3,-0.4 -0.4,-0.6 -0.7,-0.9 -1,-1.8 -0.9,-3 0.1,-1.4 0.1,-2.8 0.1,-4.2 0,-1.2 0,-2.4 0,-3.7 1.9,-0.1 3.6,0.2 5.3,1 -0.2,-0.8 -0.4,-1.4 -0.6,-2 -0.1,-0.5 -0.4,-0.7 -0.9,-0.7 -0.9,0 -1.8,0 -2.8,0 -2.3,0 -4.6,0 -6.9,-0.1 -0.2,0 -0.5,0 -0.6,0.1 -0.5,0.7 -0.9,1.5 -1.3,2.2 0.3,0.1 0.5,0.1 0.6,0 1.2,-0.5 2.4,-0.7 3.7,-0.6 0.5,0 0.7,0.2 0.7,0.7 0,1.9 -0.1,3.8 -0.1,5.7 0,1.6 0.1,3.3 -0.7,4.9 0,0 0,0.1 0,0.3 1.7,0 3.2,0 4.8,0 z M 94.2,55.9 C 94,57 91.2,60.5 90,61.2 89.2,60.1 88.4,59.1 87.5,58 87,57.4 86.6,56.7 86.7,55.8 c -1.5,0 -2.9,0 -4.5,0 0.2,0.3 0.3,0.4 0.5,0.6 1.6,2 3.2,3.9 4.8,5.9 0.2,0.2 0.4,0.6 0.4,0.9 0,1.1 0,2.3 -0.1,3.4 -0.1,1 -0.3,1.9 -0.4,2.9 1.2,0 2.5,0 3.8,0 -0.2,-0.6 -0.4,-1.2 -0.4,-1.8 0,-1.7 0,-3.3 0.1,-5 0,-0.4 0.2,-0.8 0.4,-1.1 1.2,-1.4 2.4,-2.8 3.7,-4.3 0.4,-0.5 0.9,-1.1 1.2,-1.5 -0.6,0.1 -1.2,0.1 -2,0.1 z m -33.7,50 c -1.7,0 -3.3,0 -4.9,0 0.4,0.4 0.7,0.6 1.1,0.8 0.3,0.2 0.6,0.4 0.8,0.7 1.1,1.4 2.1,2.8 3.1,4.2 0.2,0.2 0.3,0.6 0.3,0.9 -0.1,2.2 0.3,4.3 -0.5,6.6 1.3,0 2.5,0 3.6,0 -0.1,-0.7 -0.3,-1.3 -0.3,-2 0,-1.5 0,-2.9 0.1,-4.4 0,-0.3 0.1,-0.6 0.3,-0.9 1.6,-1.9 2.8,-4.2 5.1,-5.7 -1.2,0 -2.3,0 -3.5,0 0.1,2.1 -1.5,3.2 -2.6,4.8 -0.9,-1.8 -2.7,-2.8 -2.6,-5 z"
    class="st1" /><path
    style="fill:#000000;fill-opacity:1"
    id="path81"
    d="m 104.4,85.2 c -1.8,1.4 -3.8,1.1 -5.9,1 0,-2 0,-4.1 0,-6.2 1.5,0 2.8,0 4.2,0 0.9,0 1.8,0.2 2.8,0.4 0.3,0.1 0.6,0.2 0.9,0.3 0.9,0.5 1.6,1.3 1.5,2.3 0,1.1 -0.7,2 -1.7,2.5 -0.6,0.4 -1.3,0.3 -1.8,-0.3 z"
    class="st1" /><path
    style="fill:#000000;fill-opacity:1"
    id="path83"
    d="m 122.7,83.3 c 0.2,0.4 0.4,0.6 0.5,0.8 0.8,1.6 1.5,3.3 2.2,4.9 0.1,0.2 0.1,0.5 0,0.6 -0.9,1.1 -1.8,2.1 -2.6,3.2 -0.9,-1 -1.8,-2 -2.8,-3.1 -0.1,-0.1 -0.1,-0.3 0,-0.3 0.8,-2 1.7,-3.9 2.7,-6.1 z"
    class="st1" /><path
    style="fill:#000000;fill-opacity:1"
    id="path85"
    d="m 114.1,61.9 c 0,-1.4 0,-2.6 0,-3.9 0,-0.1 0.3,-0.4 0.4,-0.4 1.3,0 2.7,0 4,0.2 1.1,0.1 1.7,0.8 1.8,1.7 0.1,0.9 -0.5,1.8 -1.6,2.1 -1.4,0.4 -2.9,0.3 -4.6,0.3 z"
    class="st1" /><path
    style="fill:#000000;fill-opacity:1"
    id="path87"
    d="m 106.4,62.3 c 0,1.9 -0.1,3.5 -1,4.9 -0.7,1.1 -1.6,1.8 -2.9,1.7 -1.3,0 -2.3,-0.7 -2.9,-1.9 -1,-2 -1,-4.1 -0.5,-6.1 0.2,-0.6 0.4,-1.3 0.8,-1.9 1.4,-2 4.3,-1.9 5.8,0.1 0.6,1.1 0.8,2.2 0.7,3.2 z"
    class="st1" /></g></svg>
