<svg xmlns="http://www.w3.org/2000/svg" width="192" height="120.56132" viewBox="0 0 191.99999 120.56131">
    <g transform="translate(-7.68362 -43.402964) scale(1.21909)">
        <path class="color-stroke-main color-stroke-black" fill="none" stroke="#000" stroke-miterlimit="10" stroke-width="1.5945" d="M85 133.7c-20.6 0-39.9-4.9-54.6-13.8-15-9.2-23.3-21.6-23.3-34.9 0-13.3 8.3-25.6 23.4-34.8 14.6-8.9 34-13.8 54.6-13.8s39.9 4.9 54.6 13.8c15 9.2 23.3 21.6 23.3 34.8 0 13.2-8.3 25.6-23.4 34.8-14.6 9-34 13.9-54.6 13.9z"/>
        <ellipse class="color-stroke-main color-stroke-black" fill="none" stroke="#000" stroke-miterlimit="10" stroke-width="1.5945" cx="85" cy="85" rx="74.900002" ry="45.599998"/>
        <path class="color-main color-black" d="M10.2 87.5c.4-.3.4-5.6.5-6.1.7-4.6 2.3-8.8 4.9-12.7 3-4.6 6.9-8.5 11.2-11.8 6.9-5.3 14.7-9 23-11.7 6.1-2 12.4-3.4 18.8-4.3 4.9-.6 9.8-1 14.8-1 9.8-.1 19.4 1 28.9 3.4 8.1 2 16.1 4.6 23.4 8.7 5.4 3.1 10.5 6.7 14.7 11.2 3.5 3.8 6 8.4 7.6 13.3.7 2 1 4 1.5 6.1.1.2.3.5.5.6 1.5.7-.3 5.5-.4 5.9-.5 4.7-2.2 8.9-4.7 12.9-2.3 3.7-5.1 6.8-8.4 9.7-4.5 4-9.6 7.2-15 9.8-6.6 3.3-13.6 5.6-20.8 7.1-3 .6-6.1 1.1-9.1 1.6-4.8.8-9.7 1.1-14.6 1-3.5 0-7.1-.1-10.6-.3-2.4-.1-4.8-.3-7.2-.7-3.5-.6-6.9-1.2-10.3-2-6.5-1.5-12.7-3.6-18.7-6.4-6.6-3.1-12.7-6.9-18-12-4.7-4.5-8.5-9.7-10.5-16-.6-1.8-.8-3.7-1.3-5.5 0-.4-.1-.6-.2-.8zm89.9 9.5c-.4-.3-.7-.5-.9-.8-.3-.4-.6-.9-.6-1.3v-6.7c0-.4.1-.6.6-.6h2.3c.5 0 .8.2 1 .6 1.1 2.2 2.3 4.5 3.4 6.7.3.7.5 1.4.8 2.3h4.7c-.5-.5-1.2-1.1-1.6-1.9-1.1-2.1-2.1-4.2-3.1-6.3-.3-.5-.5-1.1-.8-1.7.5-.1.9-.2 1.2-.2 1.7-.3 3.1-.9 4.2-2.3.8-1 .9-2 .4-3.2-.5-1.1-1.6-1.7-2.6-2.2-1.7-.8-3.6-.7-5.4-.8-2.2 0-4.4-.1-6.6-.1h-3.2c.3.3.5.5.6.7.3.6.7 1.1.8 1.7 0 3.6 0 7.3-.1 10.9-.1 1.7.4 3.6-1 5v.2h5.9zM36.9 71.2c-.5.1-.9.2-1.3.3-.4 0-.8-.2-1.2-.2-1.3-.1-2.6-.4-3.8-.3-5.3.7-8.6 4-10.6 8.6-1.7 3.9-1.4 7.9-.1 11.9C22.1 98.3 28 103 35.1 103c3.5 0 6.8-.9 9.7-3 .3-.2.5-.4.7-.6-1.2.5-2.3 1.1-3.5 1.5-3.6 1.1-7.1 1.4-10.6-.4-2.3-1.2-4.2-2.6-5.5-4.9-1.9-3.5-2.9-7.3-2.6-11.3.2-3 .9-5.8 2.5-8.4 2.3-3.9 6.1-4.7 9.8-2.6.6.4 1.2.9 1.7 1.4-.1-1.2-.2-2.4-.4-3.5zm90.7 26.1h6.3c-.3-.6-.7-1.1-1-1.7-2.4-5.5-4.9-11.1-7.3-16.7-.3-.7-.6-1.3-.9-2-.1.2-.2.2-.2.3-.5 1.2-1.1 2.3-2.1 3.1-.1.1 0 .4 0 .6 0 .3.1.7 0 1l-1.8 3.9c-.4.9-.9 1.7-1.4 2.7-.4-.2-.8-.4-1.1-.6-1.2-.7-1.2-.7-1.8.5-.3.7-.7 1.4-1 2.1.8.2 1.5.3 2.2.5.3.1.5.2.3.6-.9 1.8-1.4 3.8-3.1 5.1-.1.1-.2.3-.4.5h4.1c-1.1-.8-.8-1.6-.3-2.5.4-.8.8-1.6 1.1-2.4.2-.4.4-.5.7-.3.7.4 1.3.8 1.9 1.3.5.4.9.8 1.4 1.3 1-1.4 1.9-3 3.5-3.8.2.3.3.5.5.7.5 1 .9 2 1.4 3 .2.5.2.9 0 1.4-.4.3-.7.8-1 1.4zM53.2 78.2v.2c.2.2.4.3.6.5.7.5 1 1.1 1 2-.1 3.7-.1 7.4-.2 11.1 0 1.6.1 3.1-.9 4.5v.1h2.8c-.2-.6-.5-1.2-.5-1.7 0-3.5.1-7.1.1-10.6 0-.4.1-.8.1-1.3 4.3 4.8 8.3 9.7 12.5 14.4.5-1.4.9-2.7 1.4-4 .2-.4.2-.6-.3-.8-.3-.1-.6-.4-.6-.7-.2-.6-.4-1.3-.4-1.9 0-2.7.1-5.5.1-8.2 0-1.2.3-2.2 1.1-3.1.1-.1.1-.2.1-.3h-3.3c0 .1-.1.1-.1.2.1.1.3.1.4.2.7.5.9 1.1.9 2-.1 2.4 0 4.8-.1 7.2 0 .8-.1 1.5-.1 2.3-.3-.1-.5-.3-.7-.5-2.8-3.3-5.5-6.5-8.3-9.8-.3-.3-.5-.7-.4-1.1.1-.4-.1-.6-.5-.6h-2.1c-.9-.1-1.8-.1-2.6-.1zm-2.1 13.4c-.9.8-1.7 1.7-2.6 2.2-.8.5-1.7 1-2.6 1-2.3.1-4.6 0-6.8.1-.6 0-.8-.2-.8-.8.1-2.4.1-4.9.1-7.3 0-.5.2-.6.6-.6 1.2.1 2.4.1 3.6.1 1.2 0 2.2.3 3.2 1 .2.1.3.2.5.3l.1-.1c-.5-1.3-1-2.6-1.6-4.1-.3.4-.4.7-.6.9-.2.2-.5.5-.8.5h-4.7c-.4 0-.4-.2-.4-.5v-3.4c0-.5 0-1 .1-1.6h4.7c1 0 2 0 3 .1 1.3.2 2.3.9 3.4 1.8-.2-1-.4-2-.7-2.9 0-.1-.4-.2-.6-.2H33.1c.4.4.7.6 1 .9.5.5.8 1 .7 1.7 0 4-.1 8 0 11.9 0 1.2-.2 2.3-1 3.3-.1.1-.1.2-.2.4.2 0 .3.1.4.1 4.7.1 9.4.1 14.1.1.2 0 .5-.2.6-.5.6-1.2 1.2-2.4 1.7-3.6.4-.2.5-.4.7-.8zm70.8 16.9c.1 0 .2 0 .3.1-.2 3.7.3 7.4-.4 11.1h3.2c-.2-.9-.5-1.7-.5-2.5v-7c0-1 .1-1.9.5-2.8.1-.2.2-.5.3-.8h-4.6c.2.8-2.4 6-3.3 6.6-.6-1.2-1.2-2.3-1.7-3.5-.4-1-1.3-1.9-.7-3.2h-4.1c.4 4.4.3 8.8-.1 13.2h2.7c-.2-.4-.4-.6-.5-.9-.2-.4-.5-.9-.5-1.3 0-2.2 0-4.4.1-6.6 0-.1.1-.3.1-.4h.2c1.3 3 2.7 6 4.1 9.1.5-.6.9-1.1 1.3-1.5.7-.7.8-1.4.3-2.2-.3-.4-.2-.8 0-1.3.7-1.2 1.3-2.3 1.9-3.5.4-.9.9-1.7 1.4-2.6zM91.6 82s.1 0 0 0c-.4-1.1-.8-2.2-1.3-3.2-.1-.2-.4-.3-.6-.4H74.9c-.4 0-.7.2-.8.6-.3.8-.7 1.5-1.1 2.3-.1.2-.2.4-.2.6.2 0 .3-.1.4-.1 1.9-1.5 4-2.1 6.4-2 .6 0 .8.2.8.8-.1 4.3-.2 8.6-.2 12.8 0 1.1-.1 2.2-.8 3.1-.1.1-.1.2-.1.4h6.2c-1-.9-1.5-1.9-1.5-3.1 0-4.4.1-8.8.1-13.2 0-.5.1-.7.7-.7.4.1.7 0 1.1 0 1.4.1 2.8.1 4 .9.6.3 1.1.8 1.7 1.2zm50.7 13.8v-5.4c0-2.5.1-5.1.1-7.6 0-1.4.1-2.6 1.3-3.5v-.2H137c.4.4.8.7 1.1 1 .3.3.5.8.5 1.2 0 4.5 0 9-.1 13.5 0 .5-.3 1-.6 1.4-.2.4-.6.7-1 1.1.2.1.4.1.5.1 2.1 0 4.3 0 6.4.1 2.7 0 5.4 0 8.1.1.4 0 .6-.1.8-.4.4-.7.8-1.4 1.3-2.2l.6-1.2c0-.1-.1-.1-.1-.2-3.9 2.7-8.1 2.5-12.2 2.2zM74.5 63.3h-.2c-.6-1.6-1.1-3.2-1.7-4.7-.3-.9-.6-1.7-.2-2.6 0 0 0-.1-.1-.2h-3.2c.4 1.1.1 2-.3 2.9-.3.7-.5 1.3-.8 2-.4.9-.8 1.8-1.3 2.9-.1-.2-.2-.3-.2-.4-.6-1.9-1.3-3.8-1.9-5.7-.1-.4 0-.8 0-1.2 0-.2.1-.3.2-.6h-4.2c.2.3.4.5.5.8.2.4.5.9.7 1.4 1.2 3.7 2.3 7.3 3.5 11 .1.3.3.7.4 1 .7-1 1.3-1.9 1.9-2.8.1-.1 0-.3-.1-.4-.4-.8-.4-1.5 0-2.3.5-1.1.9-2.2 1.3-3.2.3-.8.6-1.5 1-2.4 1.3 3.9 2.6 7.6 3.8 11.3.8-1.1 1.5-2.1 2.2-3.2l-.2-.2c-.6-.7-.7-1.3-.4-2.2.8-2.1 1.6-4.3 2.3-6.5.3-.8.6-1.5 1.3-1.9V56h-1.9c-.3 2.5-1.7 4.8-2.4 7.3zm45-1l1.2-.3c1-.3 1.9-.9 2.4-1.8.6-1.1.4-2.3-.6-3-.8-.6-1.8-1-2.8-1.1-2.5-.1-5-.1-7.5-.1h-.9c.1.2.1.3.2.4.4.5.5 1.1.4 1.8-.1 2.9-.2 5.8-.2 8.8 0 .9-.3 1.6-.7 2.3-.1.1-.2.3-.3.5h4.4c-.2-.5-.7-1.1-.7-1.7-.1-1.7 0-3.4 0-5.2 0-.4.2-.6.5-.5.5 0 .9.1 1.4 0 .5 0 .7.1.9.5.5 1.1 1 2.2 1.5 3.4.4 1 .7 2.1 1.1 3.1.1.2.2.4.4.4h3c-1.3-2.5-2.5-4.9-3.7-7.5zm-9.9.4c-.1-.9-.1-1.8-.4-2.7-.9-2.5-2.8-4-5.4-4.4-2.5-.4-4.6.5-6.2 2.4-1.4 1.6-1.7 3.5-1.5 5.6.2 2.7 2.6 5.4 5.2 6 3.1.9 8.2-1.6 8.3-6.9zm21.4.1c.2.3.4.5.5.7.8 1.4 1.6 2.8 2.3 4.3.2.5.3 1.1.3 1.6s.1.6.5.6h3.8c-.5-.6-1-1.1-1.3-1.6-1.2-2.2-2.2-4.5-3.4-6.7-.5-.9-.6-1.5.2-2.3.8-.8 1.5-1.7 2.3-2.6.2-.2.4-.3.8-.6h-2.4c-.2.6-.4 1.1-.7 1.5-1.1 1.4-2.3 2.8-3.5 4.2-.6.6-1.1 1.2-1.8 2v-4.6c0-1-.1-2.1.9-3h-3.9c.1.2.1.4.2.5.4.6.5 1.2.5 1.9-.1 2.6-.1 5.2-.1 7.9 0 1.1 0 2.3-.7 3.3v.2h4c-.3-.5-.6-1-.8-1.5-.4-.9-.5-1.9-.1-2.7.6-1.2 1.5-2.1 2.4-3.1zm-50.9 43.1h-1.7c-1.3-.1-2.6-.3-4-.2-1.8.1-3 1.2-3.4 2.8-.4 1.7.1 3.4 1.5 4.3.8.5 1.7.8 2.5 1.1.8.3 1.6.5 2.3.8 1.2.6 1.3 1.8.3 2.7-.3.2-.6.4-.9.4-1.6.3-3 0-4.3-.9-.3-.2-.6-.5-1-.7v2.8c.9.2 1.8.3 2.7.5 1.6.3 3.1.3 4.6-.4 1.6-.7 2.5-2 2.5-3.7 0-1.6-.8-2.8-2.3-3.5-.6-.3-1.3-.5-2-.8-.7-.3-1.4-.5-2-.9-.8-.5-1.1-1.2-.9-1.9.3-.9 1-1.5 1.9-1.5.6 0 1.3.2 1.8.5.8.4 1.6.9 2.4 1.3v-2.7zm-34.6 9.9h-.1c.1.5.2 1 .2 1.6.1.8.2 1.4 1.3 1.6 1.8.5 3.5.9 5.4.2 2.4-.8 3.7-3.4 2.8-5.6-.6-1.5-1.9-2.1-3.3-2.6-.8-.3-1.6-.6-2.4-1-.7-.3-1-.9-.9-1.6.1-.7.6-1.2 1.3-1.4.8-.3 1.6-.2 2.4.2.7.4 1.4.9 2.3 1.4-.1-.9-.1-1.7-.2-2.4-1.2-.2-2.2-.3-3.3-.5-2.3-.4-3.9.5-4.9 2.5-.9 1.8-.5 3.2 1.1 4.3.8.5 1.8 1 2.7 1.4.7.4 1.5.7 2.1 1.2.7.6.7 1.2.1 1.9-.5.6-1.1 1-1.9 1-1.3.1-2.5-.3-3.5-1.2-.5-.4-.9-.7-1.2-1zm55.3-8c2.1-.2 4.1 0 6.1.6V107c0-.5-.2-.7-.7-.7-1.9 0-3.8-.1-5.7-.1h-2.9c.7 4.5.6 8.8 0 13.2h.1c2.8.1 5.6.1 8.5.1.1 0 .4-.1.4-.2.3-.7.6-1.5 1-2.3-2.3.6-4.5.6-6.8.4v-4c0-.4.2-.5.5-.5.6 0 1.3-.1 1.9 0l2.7.3c-.2-.6-.4-1.1-.6-1.6-.1-.4-.3-.5-.7-.4-1.1.1-2.2.2-3.3.2-.5 0-.6-.2-.6-.6.1-.9.1-1.9.1-3zM43 64.7c-.2-.3-.4-.4-.5-.6-2.3-2.7-4.5-5.4-6.8-8-.2-.2-.4-.4-.6-.4-.7-.1-1.4 0-2.2 0 .2.3.3.5.5.7.6.7.9 1.5.8 2.4-.1 2-.2 4-.2 6 0 1.5.1 2.9-.8 4.2v.2h2.3c-.2-.8-.5-1.7-.5-2.5-.1-1.8 0-3.7 0-5.5v-1.1c.1 0 .1-.1.2-.1 3 3.4 5.9 6.8 8.9 10.2.3-1.2.6-2.2.9-3.4-.7-.3-.8-1.1-.8-1.8 0-1.4-.1-2.7 0-4.1.2-1.7-.5-3.6.7-5.3h-2.1c.2.6.5 1.1.5 1.6 0 2.2-.1 4.4-.1 6.6-.1.3-.2.6-.2.9zm12.3-4.9c-1.1 1.1-2 1.1-3.3 1-.1 0-.4-.3-.4-.4v-3.2c0-.4.2-.5.6-.5 1 0 2-.1 3 0 .8.1 1.6.4 2.4.6.2.1.4.2.6.4 0-.7.1-1.3.1-2H48.2c.1.2.2.4.3.5.5.5.6 1.2.6 2-.1 3-.2 5.9-.2 8.9 0 .5-.1 1-.5 1.3-.3.3-.6.6-1.1 1h13.9c-1-1.2-1.9-2.4-2.9-3.7 0 .9-.1 1.6-.1 2.3 0 .4-.2.5-.5.5-1.9-.1-3.7-.1-5.6-.2-.5 0-.6-.2-.6-.7.1-1.8.1-3.6.1-5.4 0-.5.2-.6.7-.6 1.4 0 2.8 0 4.2.6-.4-.7-.8-1.5-1.2-2.4zM91 119.4c-.1-.2-.3-.4-.4-.6-.7-.9-1-1.8-.9-3 .1-1.4.1-2.8.1-4.2v-3.7c1.9-.1 3.6.2 5.3 1-.2-.8-.4-1.4-.6-2-.1-.5-.4-.7-.9-.7h-2.8c-2.3 0-4.6 0-6.9-.1-.2 0-.5 0-.6.1-.5.7-.9 1.5-1.3 2.2.3.1.5.1.6 0 1.2-.5 2.4-.7 3.7-.6.5 0 .7.2.7.7 0 1.9-.1 3.8-.1 5.7 0 1.6.1 3.3-.7 4.9v.3H91zm3.2-63.5c-.2 1.1-3 4.6-4.2 5.3-.8-1.1-1.6-2.1-2.5-3.2-.5-.6-.9-1.3-.8-2.2h-4.5c.2.3.3.4.5.6 1.6 2 3.2 3.9 4.8 5.9.2.2.4.6.4.9 0 1.1 0 2.3-.1 3.4-.1 1-.3 1.9-.4 2.9h3.8c-.2-.6-.4-1.2-.4-1.8 0-1.7 0-3.3.1-5 0-.4.2-.8.4-1.1 1.2-1.4 2.4-2.8 3.7-4.3.4-.5.9-1.1 1.2-1.5-.6.1-1.2.1-2 .1zm-33.7 50h-4.9c.4.4.7.6 1.1.8.3.2.6.4.8.7 1.1 1.4 2.1 2.8 3.1 4.2.2.2.3.6.3.9-.1 2.2.3 4.3-.5 6.6H64c-.1-.7-.3-1.3-.3-2 0-1.5 0-2.9.1-4.4 0-.3.1-.6.3-.9 1.6-1.9 2.8-4.2 5.1-5.7h-3.5c.1 2.1-1.5 3.2-2.6 4.8-.9-1.8-2.7-2.8-2.6-5z"/>
        <path class="color-main color-black" d="M104.4 85.2c-1.8 1.4-3.8 1.1-5.9 1V80h4.2c.9 0 1.8.2 2.8.4l.9.3c.9.5 1.6 1.3 1.5 2.3 0 1.1-.7 2-1.7 2.5-.6.4-1.3.3-1.8-.3zm18.3-1.9c.2.4.4.6.5.8.8 1.6 1.5 3.3 2.2 4.9.1.2.1.5 0 .6-.9 1.1-1.8 2.1-2.6 3.2-.9-1-1.8-2-2.8-3.1-.1-.1-.1-.3 0-.3.8-2 1.7-3.9 2.7-6.1zm-8.6-21.4V58c0-.1.3-.4.4-.4 1.3 0 2.7 0 4 .2 1.1.1 1.7.8 1.8 1.7.1.9-.5 1.8-1.6 2.1-1.4.4-2.9.3-4.6.3zm-7.7.4c0 1.9-.1 3.5-1 4.9-.7 1.1-1.6 1.8-2.9 1.7-1.3 0-2.3-.7-2.9-1.9-1-2-1-4.1-.5-6.1.2-.6.4-1.3.8-1.9 1.4-2 4.3-1.9 5.8.1.6 1.1.8 2.2.7 3.2z"/>
    </g>
</svg>
