<svg xmlns="http://www.w3.org/2000/svg" viewBox="0 0 612 612">
    <path class="color-yellow color-reserved-white" fill="#f5c544" d="M577.8 307.2c1.4 147.8-118.5 273.4-278.4 271.6-145.6-1.4-261.6-121.3-265.2-263C30.3 157 158.4 32.8 312.6 33.1c140.3.8 268.4 121 265.2 274.1zm-436.1 58.2c-16.1 13.6-16.1 14.3-8.9 30.7 7.9 17.5 16.1 34.6 23.2 52.1 3.2 7.9 7.5 10 15.3 8.2 13.2-2.9 25.7-.7 37.8 4.3 12.1 5 23.9 11.4 36.4 16.1 48.9 18.9 98.5 23.2 147-.4 15-7.1 28.2-17.8 41.8-27.8 22.8-17.1 29.6-41.4 26.4-68.5-3.6-30.3-23.9-48.5-49.3-62.1-35-18.2-70.3-36-105.3-53.9-24.6-12.5-48.9-25-73.5-37.5-26.8-13.2-23.2-43.2-6.1-56.7 20.3-16.1 44.6-22.8 68.9-25.7 45.3-5.4 87.1 7.1 126.3 29.3 26.4 15 46 37.5 62.5 62.8 2.5 3.9 6.1 7.5 9.3 11.4 1.1-.7 2.1-1.1 3.2-1.8-.7-3.6-.7-7.5-1.8-10.7-1.8-6.8-4.3-13.6-6.4-20.3-6.8-20-13.6-40.3-21.1-60.3-4.3-11.4-8.6-13.2-16.8-7.5-17.1 11.4-33.5 8.6-50.3.4-23.9-11.4-49.6-16.8-75.7-18.9-31.8-2.5-62.5 3.2-90.3 18.2-16.4 8.6-32.5 19.3-45 32.1-15 15.7-17.8 36.8-16.8 58.5 1.4 21.8 8.9 38.5 28.9 48.5 48.9 25 97.8 50 146.7 74.9 17.8 9.3 36 17.5 52.5 28.2 21.4 13.9 26.8 35 5.7 55.3-17.8 16.8-39.3 26.1-63.5 28.2-30 2.5-59.6.4-88.2-10.4-38.9-14.3-71.7-35.7-94.6-71.4-4.4-8.2-11.6-16.4-18.3-25.3z"/>
    <path class="color-main color-black" stroke="#000" stroke-miterlimit="10" stroke-width="3" d="M141.7 365.4c6.8 8.9 13.9 17.1 19.3 25.7 22.5 35.7 55.7 57.1 94.6 71.4 28.6 10.7 58.2 12.8 88.2 10.4 23.9-2.1 45.7-11.4 63.5-28.2 21.4-20.3 15.7-41.4-5.7-55.3-16.8-10.7-35-19.3-52.5-28.2-48.9-25-97.8-50.3-146.7-74.9-20-10.4-27.8-27.1-28.9-48.5-1.4-21.8 1.4-43.2 16.8-58.5 12.8-13.2 28.9-23.6 45-32.1 27.8-14.6 58.5-20.7 90.3-18.2 26.1 2.1 51.8 7.5 75.7 18.9 17.1 8.2 33.2 10.7 50.3-.4 8.6-5.7 12.5-3.6 16.8 7.5 7.5 20 14.3 40 21.1 60.3 2.1 6.8 4.6 13.6 6.4 20.3 1.1 3.6 1.1 7.1 1.8 10.7-1.1.7-2.1 1.1-3.2 1.8-3.2-3.6-6.8-7.1-9.3-11.4-16.4-25.3-35.7-47.8-62.5-62.8-39.3-22.1-81.4-34.6-126.3-29.3-24.6 2.9-48.9 9.6-68.9 25.7-17.1 13.6-20.7 43.9 6.1 56.7 24.6 12.1 48.9 25 73.5 37.5 35 17.8 70.3 35.7 105.3 53.9 25.3 13.2 45.7 31.8 49.3 62.1 3.2 27.1-3.6 51.4-26.4 68.5-13.6 10-26.8 20.7-41.8 27.8-48.5 23.6-98.1 19.3-147 .4-12.5-4.6-24.3-11.1-36.4-16.1-12.1-5-25-7.1-37.8-4.3-7.9 1.8-12.1-.4-15.3-8.2-7.1-17.5-15.3-35-23.2-52.1-8.2-16.8-8.2-17.5 7.9-31.1z"/>
</svg>
