<svg xmlns="http://www.w3.org/2000/svg" viewBox="0 0 612 612">
    <circle class="color-yellow color-reserved-white" fill="#ffcd34" cx="306" cy="306" r="282.4"/>
    <path class="color-black color-main" d="M338.2 510.4c-56.9 0-104.3-19-115.8-24l-15.5 18h-30.4l-43.9-104.8 26-14.5c29 37.9 87.4 88.4 169.2 88.4 50.4 0 90.3-25.5 90.3-58.9 0-51.9-73.9-65.4-146.3-87.4C202.4 306.7 135 278.3 135 202.4c0-63.9 65.4-100.8 139.3-100.8 46.9 0 83.9 13.5 98.3 20l15-17.5h25l42.4 95.3-23.5 14.5c-40.4-50.4-84.9-74.9-147.3-74.9-49.9 0-83.4 19-83.4 47.4 0 44.9 54.4 61.4 114.8 78.4 76.9 21.5 163.7 44.4 163.7 129.3.2 63.9-60.7 116.3-141.1 116.3z"/>
    <circle class="color-stroke-black" fill="none" stroke="#000" stroke-miterlimit="10" stroke-width="20" cx="306" cy="306" r="282.4"/>
</svg>
