<svg xmlns="http://www.w3.org/2000/svg" viewBox="0 0 612 612">
    <circle class="color-yellow color-reserved-white" fill="#ffcd34" cx="306" cy="306" r="282.4"/>
    <path class="color-black color-main" d="M341.7 532.5c-63.1 0-115.6-21-128.3-26.6l-17.1 19.9h-33.7l-48.7-116.2 28.8-16c32.1 42 96.8 97.9 187.5 97.9 55.9 0 100.1-28.2 100.1-65.3 0-57.5-81.9-72.5-162.1-96.8-76.9-22.7-151.6-54.2-151.6-138.3 0-70.8 72.5-111.7 154.3-111.7 52 0 92.9 14.9 109 22.1l16.6-19.4h27.7l47 105.7-26 16c-44.8-55.9-94-83-163.2-83-55.3 0-92.4 21-92.4 52.6 0 49.8 60.3 68 127.2 86.9 85.2 23.8 181.5 49.2 181.5 143.3-.1 70.9-67.6 128.9-156.6 128.9z"/>
    <circle class="color-stroke-black" fill="none" stroke="#000" stroke-miterlimit="10" stroke-width="20" cx="306" cy="306" r="282.4"/>
</svg>
