<svg xmlns="http://www.w3.org/2000/svg" width="220" height="220.18259" data-name="Pacific Electric Railway Company Logo" viewBox="0 0 219.99999 220.18259">
    <defs>
        <clipPath id="clip-path">
            <path fill="none" d="M-442.5-25.35h2583v1967h-2583z"/>
        </clipPath>
        <clipPath id="clip-path-2" transform="translate(-.3 -.48)">
            <path fill="none" d="M-442.5-25.35h2583v1967h-2583z" clip-path="url(#clip-path)"/>
        </clipPath>
    </defs>
    <circle class="color-red color-main" fill="#c33" cx="110.91201" cy="109.53116" r="97.132072"/>
    <g clip-path="url(#clip-path-2)" transform="translate(10.000021 9.999665) scale(.1189)">
        <path class="color-orange" fill="#db6828" d="M1327.75 840.97c0 264.85-214.7 479.55-479.55 479.55s-479.5-214.7-479.5-479.55 214.65-479.55 479.5-479.55 479.55 214.75 479.55 479.55"/>
        <path class="color-black" d="M542.83 1023.94c4.33 6.5 8.54 13.34 12.14 18.44 3.6 5.1 6 7.38-.23 8-6.23.62-11.28 1.2-15.53 1.08-4.25-.12-5.64-4.16-9.25-8.77a186.16 186.16 0 01-10.8-16.07c-2.62-4.32-8.18-11-1.94-10.56 6.24.44 15.28-1.07 19.74.56 1.33.49 4.45 5.23 5.87 7.35m.54-277.8c.61-2 1.85-4.78 1.85-4.78s-5.48-2.91-10.15-5c-8-3.5-26.93-14.4-33.93-18.9-2.53-1.62-11.5-5.5-11.5-5.5s6.66-1.55 11-2.35c6.75-1.25 23-3.75 31.5-5 5.12-.75 10.27-1.61 10.27-1.61l-3-6.64c-3.75-8.25-10.5-26-14.25-33.75-1.88-3.87-5.11-11.65-5.11-11.65s5.61 2.78 9.11 4.65c7 3.75 29.25 18 36.5 22 3.62 2 7.77 4.6 7.77 4.6s2.69-5.24 4.25-9a100.28 100.28 0 015.75-11.38s-4.43-1.72-6-2.47c-4.25-2-58.25-29.25-66-33-5.15-2.49-8.32-8.86-8.32-8.86s-3.67 5.93-4.68 7.36c-3 4.25-5.25 8.75-7.5 12a6.18 6.18 0 00-.72 2s3 5.16 7.47 13c5.75 10 18 29.75 20.75 34.75a7.87 7.87 0 011 3.48s-4.21.93-12 2c-12.5 1.75-28.5 5.5-36.25 7-3.88.75-9.9 2.22-9.9 2.22s-1.23 3.16-2.85 7a55.58 55.58 0 00-4 13.31c-.29 1.75-1.27 6.44-1.27 6.44s3.4-1.88 4.6-2.44c2.68-1.26 5.2-1.73 13.15.69 11.5 3.5 34 16.5 47 23.25s18.68 10.06 18.68 10.06zm315-315.49c7.89-.52 31.35 1 41.25 1.75 10.5.75 39 3.75 46.5 6 3.75 1.13 7.56 1.91 7.56 1.91s-.31 2.34-.81 4.59c-1 4.5-2.82 10.47-3.57 13.72a35.58 35.58 0 01-2.41 6.42s-2.42-4.75-7-6.17-7-2.16-15.7-3.33c-5.63-.76-16.64-1.83-16.64-1.83s.34 12.51.07 21.62c-.33 10.87-.9 28.71-1.5 40.82-.31 6.15-.84 15.57-.84 15.57s-6.36-.85-11.55-1.25c-4.76-.37-10.71-.59-10.71-.59s1.1-16.23 1.85-27 1.75-24.25 1.75-34 .27-16.36.27-16.36a143.38 143.38 0 00-16.52-1c-8.25.07-8.79-.43-15 1.57-3.31 1.07-7.69 2.6-7.69 2.6s-.54-5.14-.54-7.6v-13.19c0-1.35-.29-3.9-.29-3.9s10-.24 11.54-.35m101.5 64.22c4.37-2.62 5-2.36 10.48-5.47a31.37 31.37 0 013.38-1.63s3.28 1.44 7.12 2.88c6 2.25 11.25 5.75 17.75 8.5 5.28 2.24 14.14 6.22 14.14 6.22s-2.63 1.5-3.64 2.28c-6 4.6-8 5.52-12.5 8.5-1.05.69-2.86 1.85-2.86 1.85s-4.73-1.93-7.39-3.1a145.88 145.88 0 01-13.73-7c-5.75-3.25-9.25-4-12.75-6.37-1.75-1.17-6.21-3.28-6.21-3.28s4-2 6.21-3.35m101.98 18.5c3.17-5.62 16.75-13.5 27.5-12.25s17.2 3.67 25 12.65c4 4.6 13.23 26.2 13.23 26.2s-4.2 3.56-6 4.65c-6.38 3.9-14.06 8-14.06 8s-2.94-17.45-8.69-24.2-12.75-9.5-18.5-6.5-2.25 13 5.75 22.75 19.74 35.14 3.24 52.39-42.72 13.77-55.74.64c-17.4-17.59-12.4-26.59-14.48-30.33-2-3.53-.82-5.57-.82-5.57l23.09-8.71s-3.06 9-2 12c1.86 5.55 2 9.69 6.27 15 9.41 11.75 24.08 8.55 29.58 2 2.07-2.45 4.5-6.13 2.14-15.54-1.28-5.14-9.47-10.26-15.47-22.76-6-12.5-4.26-23 0-30.47m96.54 516.14c3.8-7.72 7.71-12.87 10.51-19.4 1.35-3.14 3.24-7 3.24-7s4.17 5.06 6.06 7.67c2.27 3.15 7.14 10.39 7.14 10.39a69.89 69.89 0 00-3.31 6.75c-4.42 10.32-10.85 19.69-14 26.07-1.3 2.64-3.33 6.92-3.33 6.92a96 96 0 00-6.62-7.5c-2.08-2.08-7.06-9.48-7.06-9.48s6.51-12.68 7.37-14.43m-59.08 18.84c3.68-4.77 8.47-10.63 11.41-13.85 2.15-2.36 6.11-6.74 6.11-6.74s.7 6.91.94 8.67c.77 5.7.58 9.56 2.24 21.43 1.88 13.4 2 17.66 3.68 30.65 1 7.47 2.56 16.26 2.56 16.26s3.73 3.46 6.52 6c7.44 6.68 11.56 9.39 14 11.61.93.84 8.1 6.95 8.1 6.95s-2.8 2.83-5.33 5.52c-4.07 4.33-8.29 9-11.12 11.4a14.43 14.43 0 00-2.33 2.7s-6.27-6.66-9.86-10c-6.81-6.29-16.44-15.71-16.44-15.71s-1.67-.4-3.67-.83c-4.69-1-12.08-1.25-19.78-1.7-11-.63-22.68-2-33.6-3.41a86.15 86.15 0 00-16.18-.1s2.32-2.49 3.45-3.54c3.65-3.35 4.8-4.56 8.48-7.65l8.14-6.84a79 79 0 0011 2.82c7.07 1.29 15.17.86 24.49 1.46 6.14.4 13 .31 13 .31s0-7-.32-9.89c-.84-8.15-1.45-17.51-1.63-23.54a79.54 79.54 0 00-3.9-22m-332.5 197.96c1.31-7.46 3.5-20.65 4.48-24.24.98-3.59.3-3.26 4.25-2.64 4.31.68 22.8 4.49 29.31 5.57a8.9 8.9 0 002.24.2s1-5.8 1.52-8.87c.69-3.94 1.26-7.77 1.26-7.77a20.84 20.84 0 00-3.19-.74c-3.31-.32-17.48-3.2-23.39-4.1-3.31-.51-7.66-1.44-7.66-1.44s.41-2.24.75-4c1.21-6.11 3-13.92 3.13-16a42 42 0 01.85-4.21s3.52.53 6.76 1.23c10.52 2.3 21.72 3.81 29.36 5.49a51.77 51.77 0 0111.68 4.66s.88-4.86 1.72-8.7c.84-3.84.84-4.74 1.69-8.46a17.62 17.62 0 00.32-2.58 70.48 70.48 0 00-10.31-1.75c-8.63-.77-29.32-5.27-39.25-6.48-7.12-.87-20.78-3.56-20.78-3.56s2.65 5.62 2.44 6.93c-.74 4.62-3.4 14.19-8.71 38.44-4.28 19.58-6.63 32.68-7.92 36a42.5 42.5 0 00-1.51 6.57s3.24.78 5.83 1.26c4.88.9 14.32 2.9 14.32 2.9s.6-2.48.81-3.7M605.57 623.17c-6.21-4.64-17.26-12.74-20.06-15.29-2.8-2.55-2.86-1.78-.14-5 3-3.51 16.55-18.12 21.09-23.4a9.57 9.57 0 001.4-1.89l-7.41-5.48c-3.28-2.45-6.53-4.74-6.53-4.74a22.83 22.83 0 00-2.41 2.47c-2.1 2.8-12.46 14-16.51 18.83-2.27 2.7-5.49 6.12-5.49 6.12s-1.86-1.4-3.28-2.52c-5-3.92-11.51-8.85-13.18-10.26-1.67-1.41-3.21-3-3.21-3s2.16-2.58 4.57-5.12c7.85-8.26 15.34-17.49 21-23.47a58.66 58.66 0 0110.67-8.18s-4-3.06-7.14-5.59c-3.14-2.53-3.94-3-6.93-5.45a17.57 17.57 0 00-2.22-1.48 77.36 77.36 0 00-7.23 8.32c-5.39 7.29-20.81 23.53-27.33 31.77-4.67 5.91-14.59 16.77-14.59 16.77s6.66.27 7.76 1.07c3.89 2.81 11.32 9.63 30.94 25.66 15.84 12.94 27.72 22.13 30.1 24.83a42.33 42.33 0 005.26 4.38s2.48-2.51 4.33-4.58c3.49-3.91 9.66-12.26 9.66-12.26s-2.16-1.77-3.18-2.53M836.03 523.1c-1-1.09-20-21-22-22s-2-.37.67-3.69 14.33-17.31 11.33-35.64c-3-18.33-18.94-30-43-27s-47.33 10.88-47.33 10.88l-9.25 3 3.52 4.45s19.67 74.67 22.67 83c1 2.85 2.55 10 2.55 10s6.75-2.69 10.48-3.86a76.32 76.32 0 019.69-2.14s-1.77-6.23-2-7.48c-1-5-3.13-10.81-4.17-15.28-.64-2.74-.76-3.51-1.35-4.59 0 0 19.49-6 25.82-5.34 6.33.66 10 5 15.33 11.34a111 111 0 008.54 9.54c.89.9 3.19 3 3.19 3s7.39-.73 9.87-1.21a96.54 96.54 0 0010.14-2.17s-3.69-3.68-4.74-4.8m-30.14-52.7c-.16 11.25-8.76 15.41-21.5 19.25-10.76 3.25-14.72 3.7-19.75 5h-2l-10.4-35.49 2.81-1.22s19.92-6.59 31.73-5.89c14.5.85 19.35 7 19.19 18.3m389.94 151.91c-3-6.84-32.34-43-35.34-46.17-1.5-1.58-5.38-4.78-5.38-4.78s-1.44 4.75-2.6 5.75c-3.68 3.19-5.66 5-13.16 12.5s-16.34 15.5-22.84 21.17c-8.42 7.34-17.49 14.78-20.35 16.69l-12.74 8.6 2.91 4c2.29 3 3.52 2.91 6.52 8.25 1.28 2.28 1 1.21 3.5 5.66a101.54 101.54 0 018.14-6.13c6.34-3.84 12-9.67 14.34-10.84a24.67 24.67 0 002.57-2.14 80.48 80.48 0 018.09 11.31c4.34 7.67 6.17 8.67 13.5 16.33 7.33 7.66 17.67 8.84 28.67 7 11-1.84 17.5-6.66 23.17-17 5.67-10.34 4-23.33 1-30.16m-24 27.83c-7 2.83-12.84 2.33-17.84-2.67s-6.93-7.48-11.54-14.16c-3.81-5.52-8.13-12.74-8.13-12.74a32.29 32.29 0 012.84-2.76c2.09-1.38 17-15 17.83-17 .2-.47 1.26-1.77 1.28-1.93.02-.16 0-.21 0 0a3.81 3.81 0 001.39 2.09c2.33 2.17 6 7.84 11.67 14.34s9.15 10.92 10.33 18.5c1.18 7.58-.83 13.5-7.83 16.33m71.93 234.03c-8-1-17.75-1-33.23-3-15.48-2-29.52-3.49-36.27-3.75-2.23-.08-4.42-3.56-4.42-3.56s-1.33 8.06-1.83 11.06c-1 6-5.93 29.75-7.18 42.75s-4 38.25 37 43 49.25-19.25 50.75-27.5 4.93-38 5.93-47c.5-4.47 2-16 2-16s-8.76 4.48-12.78 4m-11.68 48.5c-3 9.25-5 22.25-28.75 20s-26-14.5-24.75-28.25 4-29.5 4-29.5l11 1.5c7.5.5 19 1.75 31 3.25s13.25 1 13.25 1-2.75 22.75-5.75 32m-516.63 286.29c.54-8.84 0-19.1.36-34.87.36-15.77-.33-31.5 1.57-34.3 1.9-2.8 6.55-4.36 6.55-4.36s-12-7.12-17.93-10.61c-5.93-3.49-14.3-7.55-14.3-7.55a10.55 10.55 0 01.91 6.51c-.78 3.25-4.12 5.42-12.89 11.56-8.77 6.14-40.47 30.13-48.47 34.25a39 39 0 01-15.9 4.17l24.41 17.22s2.11-6.83 6.22-8.87c6.39-3.18 7.27-4.83 7.27-4.83l43.06 23.74s-.83 2.23-.94 8.69c-.06 4-4.09 7.55-4.09 7.55l26.64 11.49s-3-10.94-2.47-19.79m-16.3-30.52a40.09 40.09 0 00-.18 5.65l-30.59-16.35s12.14-10.66 16.12-13.56c5.19-3.8 14.86-11.78 14.86-11.78v17.28c0 8.1.14 15.16-.17 18.76m-30.95-716.52c-30.45 0-55.13 23.87-55.13 53.32s24.68 53.28 55.13 53.28c30.45 0 55.14-23.87 55.14-53.32s-24.69-53.28-55.14-53.28m0 87.67c-19.61 0-35.51-15.38-35.51-34.35s15.9-34.35 35.51-34.35 35.52 15.38 35.52 34.35-15.9 34.35-35.52 34.35M481.04 760.75a52.35 52.35 0 1052.35 52.35 52.35 52.35 0 00-52.35-52.35m0 85a32.68 32.68 0 1132.66-32.68 32.69 32.69 0 01-32.68 32.68m21.9 44.47c-2.51 1.39 2.76 2.26 3.7 3 9.49 7.22 14.18 18.46 12.49 31.46-2.48 19-19.39 32.56-37.78 30.17-18.39-2.39-31.28-19.78-28.8-38.83 1.13-8.63 5.76-16.57 11.3-19.92 1.43-.86 5.12-1 4.72-2.08-.32-.85-15.48-8.27-21.07-10.82-1.3-.59-1.8-1-2.23-.93-.43.07-.41.6-.68.91a58.12 58.12 0 00-13.16 30c-4 31.14 17 59.55 47.07 63.46 30.07 3.91 57.72-18.12 61.72-49.28 2.4-18.46-3.3-33.78-15.15-45.68-.3-.3-.31-.74-.7-.8a1.81 1.81 0 00-.91.19zm717.78-218.29s-1.84 6-9.35 8.86c-10.11 3.88-60.55 24.78-67.27 27.55-6.72 2.77-11.49.2-11.49.2l26.87 61.07 15.14-6.38a136.22 136.22 0 01-11.09-22.19c-5.45-13.63-7.46-19-7.46-19l26.83-10.76s8 20 9.56 23.28a14.42 14.42 0 011.61 5.72l16-7.1a36.42 36.42 0 01-3.2-6c-1.59-3.75-8.86-22.7-8.86-22.7l17-6.93s10.78 26.16 12.83 31.23a47.56 47.56 0 012.72 9l15.36-6.7zm34.14 104.44a14.63 14.63 0 01-11.33 6.3c-10.56.64-63.71 5.53-70.79 6.17a12.76 12.76 0 01-10.76-3.81l6.87 75.36 16-1.58a179.07 179.07 0 01-3.72-27.85c-1-16.63-1.28-23.18-1.28-23.18l28.16-2.23s1.46 24.43 2 28.5a19.16 19.16 0 01-.19 6.73l17-2a47 47 0 01-1.19-7.6c-.38-4.6-1.51-27.61-1.51-27.61l17.89-1.53s2.26 32 2.66 38.22a62.87 62.87 0 01-.13 10.63l16.28-1.85zm-403.97 394.31a13.53 13.53 0 015.75 10.64c.38 9.8 3.85 59.16 4.31 65.73a11.69 11.69 0 01-3.87 9.89l73.11-6.62-1.26-17.18s-2.63 2.75-18.77 4.58c-15.78 1.78-31 3.18-31 3.18l-1.75-25.59s24.47-2.72 28.35-3.11a18.49 18.49 0 016.42.33l-1.44-17.3a17.38 17.38 0 01-7.14 1.84c-4.39.25-27.5 2.7-27.5 2.7l-.83-15.8s31.74-3.3 37.64-3.54a61.77 61.77 0 0110.13.36l-1.64-15.94zm175.83-49.97a45.21 45.21 0 013.47 6.39c1.46 4.24 4.12 9.2 5.16 12.27.38 1.15 1.8 3 2.33 6.64 0 0-5.18-2.8-9.36-1.66s-6.39 1.76-13.56 5.2c-4.66 2.23-11.47 6.09-11.47 6.09s5.44 10.12 9.74 17.81c5.12 9.18 12.42 25.16 17.94 35.51 2.81 5.25 7.06 13.33 7.06 13.33s-5.24 2.52-9.39 4.82c-3.8 2.1-8.42 4.94-8.42 4.94s-7.19-14-11.93-23.3c-4.74-9.3-9.57-21.9-14.38-30l-8.79-14.79s-20 10.77-23.78 15.58c-2 2.56-4.55 6-4.55 6s-3-4-4.17-6l-6.55-11c-.67-1.13-3-5.17-3-5.17zm-492.82-2.54a114.16 114.16 0 0012.07-7.43 81.4 81.4 0 008.85-7.31s4.3 6.35 10.66 15.27c7.89 11.07 19.16 23.59 27.47 24.32 5.16.45 12-1.2 11.58-11.84-.13-3.63-4.12-7.79-7.29-13.94-2.73-5.32-5.32-9.77-8.16-15.78-3.5-7.45-5.74-13.55-6-20.21-.42-11.76 11-22.51 28.39-17.7 17.39 4.81 32.87 20.71 43.07 34.18 4.19 5.54 6.65 7 6.65 7s-5.76 4.12-11.19 8.58c-4.94 4.07-9.69 7.43-9.69 7.43s.3-5.92-4.27-14.18c-7.14-12.93-16.58-22.55-23.8-23.18-4.48-.4-6.28 2.73-6.18 5.48.1 2.75 4.14 7.82 8.78 14.46a131.07 131.07 0 018.46 14.64c3 5.83 5.14 11.14 5.37 17.56.76 21.52-17 33.93-41.14 27.24-12.76-3.54-34.51-26.89-39.23-33.32a33.56 33.56 0 00-14.4-11.27"/>
        <path class="color-white" fill="#fff" d="M347.89 547.98c-19.69-10.67-27.69-14.75-27.69-14.75a35.46 35.46 0 0010-10c4.2-6.47 19.72-32.33 32-56.26 12.28-23.93 9-41.39-2.59-63.37-11.59-21.98-39.67-41-69.19-45.27-23.72-3.42-34.92 1.29-50.12 14.55-15.2 13.26-33.6 41.06-51.73 69.84a647.14 647.14 0 00-36.79 68.45c-7.34 16.1-2.06 7.55 10.71 7.52 3.28 0 7.07 1.44 11.26 3 16.44 6 74.35 37.77 122.53 64.29 35.86 19.73 42.93 23.82 47.48 27.65 4.88 4.12 4.78 19 8.65 10.32 3.46-7.79 17.1-34.93 21.79-43.15 4.38-7.65 8.2-14.19 9.61-16.61 4.35-7.43-5-1-9.79-3-8.18-3.39-12.08-5.58-26.13-13.18m-44.19-89.49c-8.44 15-24.58 44.26-25.71 45.88-1.13 1.62-1.27 2.64-3.07 1.62-3.26-1.86-43.41-22.89-43.41-22.89s-1.78-1.42-.47-3c1.7-2.12 18.29-32 29.44-48.48 11.87-17.54 29.19-14.71 38.89-8.73 12.94 8 12.94 20.28 4.33 35.63m330.06-111.56c-2.55-.62-4.72-1-11.89-4.35-7.17-3.35-26.78-15.3-55-33.23-9.48-6-27.1-17.35-46.61-29.91l-51.56-33.24c-19.73-12.7-40-25.36-42.76-27.28-3.83-2.62-2.73-6.06-2.38-8.51.67-4.74 0-5.33-2.62-3.63-3.25 2.15-12.8 8.53-24 16.66s-22.36 16.52-26.4 19.67c-10.35 8.06-14.32 10.42-8.17 11.12 4.17.47 7.89 0 9.5 5.35 9 29.74 35.39 118.52 38.22 125.81 3.35 8.61 7.57 25.1 13.39 44.71 4.43 14.93 9 31.29 12.22 42.62a58.25 58.25 0 012.47 13.39c.27 6.8.5 7.35 3.71 3.61 1.19-1.39 3.52-4.17 5.37-6.37 5.21-6.22 21.45-22.65 28.62-29.59 4.42-4.27 10.66-9.87 12.55-11.55 3.18-2.81-.26-2.26-4.85-3.86-2.07-.72-3.65-2.44-4.7-5.69-1.92-6-3.85-13.62-5.1-17.69-.63-2-.8-2.24.64-3.19 1.44-.95 32.7-26.86 41.79-33.32 9.09-6.46 24.63-17.53 27.26-19.2 2.63-1.67 2.56-1.85 5-.18 2.44 1.67 10.77 7.65 15.08 11.24a9.9 9.9 0 013.16 8.67c-.56 3.76-1 6.13 2.84 3.7 2.17-1.38 30-17.14 49.13-25.51 8-3.51 13-5.66 15.51-6.75 4-1.72 1.62-3-.37-3.49m-136.18-18c-2.45 1.66-2.84 1.92-8.64 6-6.73 4.76-10.69 8-17.35 12.89-4 3-11 9.25-12.29 10.13-1.68 1.14-1.68 1.14-2.4-1.56-1-3.73-7.65-27-10-34.61-2.35-7.61-5.82-18.75-7.17-22.47-2.87-7.89-1.52-9 2.15-6.46 2.31 1.57 8.85 6.46 12.91 8.37 4.06 1.91 28.36 17.67 33.36 20.78a86.29 86.29 0 009 5c1.83.92 1.83.92.39 1.9m651.85 75.13c-3.31-2.16-3.26-3.16 1.71-5 4.97-1.84 10.46-2.8 14.91-8.36 4.45-5.56 115-144.41 118.34-149 3.34-4.59 3.28-10.67 2.67-14.18-.61-3.51.36-4.37 3.39-2.55 3.03 1.82 17.57 12.61 30.79 23.16 13.22 10.55 28 22.91 31 26.31 3 3.4 2.31 3.52-.85 3.52s-7-.25-11 3.39-79.24 89.57-86.65 97.36c-3.08 3.24-23.47 29.67-29 37.75-3.89 5.73-14.44 14.89-14.3 30.21.07 7-1.2 6-4.76 3.14-1.73-1.42-15.34-13.4-28.61-24.18-14-11.39-27.69-21.57-27.69-21.57m337.87 264.33c14.08-4.29 23.23-7.52 27.19-8.67 6.73-2 7.5-3.75 9 2.55 1 4.2 11.41 27.87 16.75 92.87s.5 103.08.5 106.83-.25 4.25-3.5 4.25h-63.75c-4.25 0-4.25 0-4.25-4s1.25-62.25-3-104.5-13.2-72.6-14.45-75.35-.25-3 1.75-3.5 19.39-6.1 33.76-10.48m-575.78 702.46a526.42 526.42 0 0098-20.86c2.72-.85 3.2-1.84 3.38 1.26.18 3.1 10.72 56.66 11.56 63 .84 6.34-.28 7.83-4 5.11-3.72-2.72-11.73-5.7-20.38-4.59-8.65 1.11-39.49 6.5-42.38 6.87-2.89.37-2.24.52-2.06 3.94.18 3.42 18 139.75 19.15 148.21 1.15 8.46 4.21 10.24 7.11 12.45 4.57 3.49 6.43 4.19-.57 5.43-5.09.9-23.17 4.29-39.59 6.31-17.37 2.13-34.41 3.27-37 3.35-5 .15-5.15 0-1.48-4.31 3.67-4.31 6.52-8.25 6.16-15.1-.36-6.85-17.74-143.12-18.09-148-.35-4.88.14-3.59-4.5-3.35-4.64.24-38.44 3.19-42.61 3.57-4.17.38-11.62 5.06-15 8.37-3.38 3.31-3.86-2-4.91-7.59-1.2-6.41-6.35-52.74-6.85-56.48-.5-3.74-.34-4.89 2.22-4.76a545.51 545.51 0 0091.82-2.83m-672.86-61.13c30.07 40.26 52.86 60.63 55.77 63.54 2.91 2.91 2.83 2.18 5.74 0 2.7-2 41.47-38.63 43.76-41.26 2.73-3.13 3.35-3.67-.79-3.6-3.75.07-7.84.36-10.28-2.13-4.94-5-11-9.56-26.47-26.5-16.82-18.43-20.8-23.28-23.68-27.15-1.29-1.75-1.1-2.7 1.46-4.53 3.39-2.42 121.73-82.77 126.26-85.36 4.53-2.59 11.48-2.1 14.22-2.26 2.74-.16 1.62-2.1 0-3.88-1.62-1.78-27.77-35.75-41.73-59.7-1.63-2.8-2.27-2.59-3.56 0s-2.07 9.26-7.89 12.65c-5.82 3.39-154.21 102.34-160.71 106.59s-13.9 2.75-17.46 2.43c-3.56-.32-3.72.81-2.26 3.23 1.46 2.42 17.54 27.73 47.61 68m57.49-359.57c7.24-1.66 13.3-8.67 15.2-12.23 1.9-3.56 3.56-3.09 5 2.73s11.24 47.48 21.38 75.06c14.84 40.38 28.26 65.2 29.45 66.75 1.19 1.55-1 2.85-3 3.68-2 .83-42.15 20.22-48.28 23-2.57 1.16-3 .91-1.76-1.85 1-2.3 1.24-8.54-.64-13-9-21-31.89-74.44-32.81-76.4-1.11-2.38-.48-2.22-3-1.27-2.52.95-25 7.72-27.24 8.39-1.83.56-1.38.91-.79 3 1.24 4.41 12 36.18 13.7 40.59 2.06 5.5 4.26 8 6.88 9.15 3.15 1.34 3.26 1.75-.59 3-3.06 1-48.26 16.65-50.55 17.43-4.79 1.65-6 2.14-3.74-2.4 1.17-2.38.91-6.77.36-8.13-1.26-3.17-15.47-41.57-16.42-44.89-.95-3.32-.31-2.54-4.11-1.43-3.8 1.11-22 5.65-25.14 6.6-3.14.95-2.54.79-1.42 4.75 4.62 16.37 28.14 74.8 32.1 85.09 3.96 10.29 10.13 13.94 13.93 15.2 3.8 1.26 3 3.32-4 5.86-9.55 3.5-42.25 19.1-47.48 20.85-5.23 1.75-5.06 1.42-7-2.22-1.94-3.64-13.93-27.19-32.52-75.12-18.31-47.23-27.76-95.35-28.87-100.42-1.11-5.07-.64-6.5 2.21-4.91 2.85 1.59 5.77 5.53 14.64 3.47 8.87-2.06 184.41-50.36 184.41-50.36m-70.92-265.76c4.1 1 5.5.17 4.33 4.67a537.42 537.42 0 00-11.86 69.54c-5 48.13-2.34 92.51-2.5 96.67-.17 4.33-.83 4.33-5.33 4.33s-56.3 3.4-61.3 3.42c-5 .02-4.82.5-4.79-3.17.03-3.67-4.08-51 1.42-107.45s13.44-76.33 14.32-79.37c.88-3.04 1.12-3.29 4.66-2.18 3.54 1.11 54 11.81 61 13.54M945.3 85.35c-7.89-1.11-11.93-1.52-15.43-2-27.36-3.37-48.17-4.25-56.17-4.58-10.43-.44-10.49-1.05-5 5 3.75 4.08 4.66 11.28 4 21.24-.66 9.96-14.4 182.16-14.77 186.51-.37 4.35-5.09 9.35-7 11.83-1.91 2.48-1.35 3.92 2.53 3.81 3.88-.11 60.17 4.21 64.39 4.85 5.91.89 4.64-.43 1.54-6.82-2.15-4.42-2.61-6.72-1.38-15.49s15.69-158.61 17.52-173.18c.67-5.41 1.24-9.6 1.91-13 1.89-6 4.17-11.32 9-14.31 3-1.86 4-3.1-1.13-3.82m288.19 100.85c-3.58-2.17-5-2.92-12.11-7-4.35-2.47-16.8-9.81-33.82-18.49-10.82-5.52-22.91-11-37.8-18-28.71-13.45-64.43-25.23-82-30.89-8-2.8-13.73-4-15.67-4.62-8-2.52-7.1-.91-5.14 2.71s2.68 10.91 0 18l-.63 1.93s-56.46 169.28-59 176.3c-2.54 7.02-4.25 10.83-10 13.36-5.23 2.31-6 2.37-1.06 3.66 6.27 1.61 20.25 5.69 30.52 9.09 10.27 3.4 25.74 8.63 31.28 10.83 4.74 1.88 6.79 3.79 5.26-1a29.14 29.14 0 01-.55-17.64c2-6.87 18-49.85 18.86-51.91.86-2.06 1.08-2.93 1.81-4.49.88-1.87.57-1.78 2.27-.89 1.7.89 25.77 12 37.9 18.22 9.61 4.93 10.07 5.35 14 7.39 8.15 4.28 4.3 17.18 9.92 4.91 2.36-5.16 8.54-19.64 14.73-31.64 6.19-12 9.09-18.4 10.77-21.92 2.47-5.16 1-4.61-2.9-3.49-6.5 1.85-8.71.65-18.94-4.35-9.92-4.86-41.69-19.47-44.11-20.44-2.42-.97-2.1-1.29-1.46-2.75.64-1.46 10-26 11-28.84 1.26-3.79 1.68-3.39 3.94-2.63 2.75.93 24.12 9.36 42.82 18.7 11.84 5.91 32.08 16.34 40 21.16 8.57 5.24 17.69 9.76 18.65 13.36 1.6 6 1 10.17 6.17 1.41 2.15-3.68 13-23.16 18.32-33.18s7.07-12.74 8.07-15.15c.4-1 .4-1-1-1.82M600.63 1318.9c-3.19-1.36-43.06-22.22-67.07-39.67-26.07-19-53.18-43.29-53.7-43.77-4.43-4.11-5.31-2.94-4 2.47 1.4 5.7-2.18 12.39-7 18.38l-1.23 1.66c-12.76 16.88-38.73 46.88-54.24 66.61-21.67 27.59-58.43 73-63.23 78.3-4.8 5.3-7.14 4.43-13.18 4.92-6.04.49-4.8 2.22-.73 5.54a610.39 610.39 0 0058.95 46.88c11.31 7.84 32.83 22.58 48.67 32.24 24.89 15.18 45.49 25.86 47.39 26.82 3.2 1.6 4.06 1.6 4.67.37.61-1.23 1.26-3.21 3.59-7.52s18.72-36.73 21.8-40.92c3.08-4.19 1.8-5.2-1.16-5-2.96.2-8.24 1.26-11-.09s-6.79-1.92-29.57-14.24a479.34 479.34 0 01-49.83-31.71c-2.22-1.85-2.09-2.09-.37-4.31 1.72-2.22 15.64-20 17.73-22.78 2.09-2.78 2.34-3 4.19-1.61 1 .72 7.29 5.49 15 10.43 7 4.47 15.24 9.07 18.4 10.88 6.65 3.82 12.5 6.19 14 11.33 2 6.7 2 6.7 4.8 2.22 2.06-3.31 24.37-41.62 28.17-47.35 4.25-6.39 1.89-4.26-2.47-4-3.25.17-8-.22-14.12-3.8-2.94-1.7-10.74-5.94-17.33-10.09-7.24-4.57-13.22-9-14.45-9.86-2.34-1.6-3-1.47-.37-3.81s16.67-20.78 18.39-22.62c1.72-1.84 2-1.85 3.94-.64 1 .59 17.29 12.48 34.1 22.55 12.47 7.46 19.25 11.2 26.31 15.23 6.19 3.55 6.63 5.13 7.79 8.45 2.38 6.8 3 7 8.16-2.9 1.45-2.78 22-42.42 23.38-44 1.38-1.58 1.06-2.22-4.4-4.56m725.89 111.24c-3.72-.24-7.76.86-13.1-2.42-4.08-2.5-10.88-7.58-24.21-18.25s-31.29-26-31.29-26 8-12.13 8-23.28c0-14.07-1.51-34-15-53.11-12.44-17.59-34.12-30.9-46.6-35.07-6.32-2.11-17.37-4.36-26.54-1.88a142.4 142.4 0 00-24 9.29c-6.36 3.21-14.06 7.85-20 11.41-31.75 19.13-55.74 31.51-82.71 43.36-1 .45-8 3.44-9.08 3.83-5.74 2-4.63 3-.67 4.1 3.96 1.1 8.49 4.28 11.79 11 15.56 30.7 80.32 167.18 82.92 173.54 2.91 7.11 2.81 10.39.68 15.46-2 4.69-.52 3.86 4 1.81 1.88-.84 19.67-8 34.77-15.28 10.9-5.27 24.28-12.87 27.13-14.3 6.79-3.39 5.92-3.86.2-4.92-3.26-.61-5.57-2.77-7.19-6s-3.6-7.13-12.72-24.76c-7.24-14-9.11-18.7-10-20.1-.34-.5-.36-.57.22-.92 1.34-.79 3.82-2.13 7.79-4.31 17.43-9.57 27.69-15.64 37.16-22.76 2.48-1.87 2.35-1.86 4.53-.17 1.29 1 36.93 33.65 38 34.54 4.45 3.79 11.69 10.46 18 6.13 11.12-7.7 38.13-28.29 45.24-34.08 8.66-7 6.37-6.66 2.79-6.9m-132.13-51.71c-12.29 7.76-45.43 25.86-47.69 27.16-2.26 1.3-2.27 1-3.56-1.4 0 0-19.72-41-20.85-43.22-1.13-2.22-1.62-2.43 0-3.07 1.62-.64 29.1-15.52 42-22.15 12.9-6.63 30.55-3.32 36.37 7 6.79 12 6 28-6.3 35.73m248.34-72.77c-4 .59-12.37-.25-17.81-5.45l-1.52-1.32c-29.63-25.46-129.54-111.91-141.72-122a23.35 23.35 0 01-6.37-15.7c-.09-4.08-2.1-3.82-5.71 1.2-.66.91-15.84 19.53-23.08 28.14-7.07 8.41-22.23 24.52-23.69 26-4.19 4.39-4.1 5.46 0 5.15a28.9 28.9 0 0116.14 4.27c18.6 16.48 122.11 107 141.37 124l.56.52c5.68 4.94 7.75 14.09 7.74 18.18-.01 4.09 1.71 4.45 5.76-.07l.06-.06c.28-.26.58-.56.9-.88.61-.61 2.17-2.53 5.76-6.68 1.26-1.39 24.09-26.39 31.06-36.11 3.38-4.71 10-11.86 11.35-13.48 3.88-4.66 3.27-6.3-.77-5.7"/>
        <path class="color-black" fill="#231f20" d="M841.75 1683.61C376.58 1683.33-.3 1306.01 0 840.84A842.26 842.26 0 01514 65.7c429-179.82 922.56 22.18 1102.38 451.18 179.11 427.31-20.54 919.05-446.85 1100.55a836.83 836.83 0 01-327.76 66.18m-.02-1644.09c-442.26 0-802 359.79-802 802s359.79 802.05 802.05 802.05c442.26 0 802-359.8 802-802s-359.79-802.05-802-802.05"/>
        <path class="color-black" fill="#231f20" d="M841.75 1344.7c-277-.38-501.25-225.24-500.88-502.24.37-277 225.24-501.25 502.24-500.88 277 .37 501.26 225.24 500.88 502.24a501.59 501.59 0 01-502.24 500.89m0-972.28c-258.69 0-469.15 210.46-469.15 469.14 0 258.68 210.46 469.14 469.15 469.14 258.69 0 469.14-210.45 469.14-469.14s-210.46-469.14-469.14-469.14"/>
        <path class="color-black" fill="#231f20" d="M1108.62 843.42c0 148.41-120.31 268.72-268.73 268.72-148.42 0-268.69-120.31-268.69-268.72 0-148.41 120.32-268.73 268.73-268.73 148.41 0 268.77 120.31 268.77 268.73"/>
        <path class="color-white" fill="#fff" d="M1005.7 662.27l-111.15 44.46 92-88.55s-2.83-2.89-27.41-15.77a227.44 227.44 0 00-35.76-14.51c-4.33 4-17.72 16.61-34.9 33.38-9.14 8.92-19.38 19.88-30 30.09-19.59 18.87-40.4 38.61-57.7 54.35-55.91 50.86-102.39 101.38-102.39 101.38s49.68-21 90.09-38.73c40.41-17.73 85.89-40.42 85.89-40.42s-54.56 50.52-94 89.42-102 100.15-102 100.15 41.43-16.77 72.24-31.42c30.81-14.65 62.09-28.32 62.09-28.32s-28.79 39.91-68.7 86.9c-37.35 44-77.93 93.13-83 99.28 1.75 1.6 3.93 3.53 6.16 5.33l321.4-277.39-132.86 54.56zm-251.07 885.9c-2.4-7.68-10.12-33.21-11-36.59-.88-3.38-1.56-6-3.86-2.53-4.18 6.26-6.6 10.83-20.3 17.91-23.85 12.32-47.54 4.76-60.44-2.64-23-13.18-33.46-42.38-27.29-67.89 7.13-25.26 30.57-45.57 57.08-45.79 14.86-.12 39.06 4.68 53.81 27.11 8.47 12.89 8.48 18.29 9.06 25.8.32 4.12 2.19 2.2 4.61-.32 2.42-2.52 21.65-21 27.51-26.5 5.86-5.5 17.13-15.77 19.75-17.49 2.62-1.72 3.54-3.31 1.49-5.48-1.31-1.39-7.73-3.23-12.58-9.32-7-8.83-9-11.76-18.53-21.37-14.82-15-43.79-32.73-84-32.4-52.66.44-87 31.16-104 60.51h-.53a128.71 128.71 0 00-16.24 62l.48.24c.45 33.94 15.32 77.55 61 103.76 34.9 20 68.85 18.74 89.1 12.95 13-3.71 16.18-5.29 26.64-9.53 7.21-2.93 13.71-1.38 15.53-1.95 2.85-.9 2.83-2.74 1.39-5.52-1.44-2.78-6.24-17.24-8.64-24.92m770.96-518.48c-7.93 1.34-34.27 5.55-37.73 6-3.46.45-6.13.74-3 3.48 5.64 5 9.85 8 15 22.53 9 25.3-1.68 47.75-10.75 59.53-16.16 21-46.51 27.46-71 17.9-24.07-10.46-41-36.43-37.68-62.72 1.88-14.75 9.89-38.08 34.11-49.67 13.91-6.66 19.26-6 26.78-5.51 4.13.24 2.48-1.87.3-4.6-2.18-2.73-17.87-24.29-22.55-30.84-4.68-6.55-13.32-19.1-14.66-21.92-1.34-2.82-2.81-4-5.24-2.22-1.55 1.11-4.24 7.23-10.93 11.21-9.69 5.78-12.86 7.37-23.67 15.49-16.83 12.66-38.33 39-43.42 78.88-6.66 52.24 19.16 90.41 46 111.25l-.1.52a128.84 128.84 0 0059.23 24.44l.3-.44c33.69 4.12 78.91-4.74 111-46.47 24.53-31.88 27.85-65.7 24.84-86.55-1.93-13.37-3.06-16.74-5.86-27.67-1.93-7.54.48-13.77.16-15.66-.5-2.94-2.33-3.17-5.28-2.11s-17.93 3.85-25.86 5.2M803.53 245.04c-5.64-5.74-24.15-24.94-26.46-27.55-2.31-2.61-4.11-4.61-4.59-.5-.87 7.48-.93 12.66-9.9 25.2-15.61 21.84-40.14 25.93-55 25.22-26.48-1.24-49.12-22.45-55.26-48-5.18-25.73 6.42-54.5 29.91-66.79 13.17-6.89 36.89-13.65 60.25-.42 13.42 7.6 15.89 12.41 19.83 18.83 2.17 3.52 3 .95 3.95-2.39.95-3.34 9.71-28.55 12.44-36.12 2.73-7.57 8-21.85 9.6-24.57 1.6-2.72 1.64-4.56-1.17-5.56-1.8-.65-8.36.65-15.45-2.56-10.28-4.64-13.4-6.34-26.24-10.56-20-6.57-53.89-9.16-89.54 9.49-46.66 24.41-63.22 67.41-65 101.31l-.48.22a117.17 117.17 0 003 32.15 117.06 117.06 0 0010.82 30.45h.46c15.89 30 49 62 101.62 64.51 40.18 1.89 69.81-14.73 85.2-29.12 9.87-9.23 12-12.08 19.35-20.63 5.08-5.9 11.57-7.48 12.93-8.82 2.13-2.1 1.27-3.73-1.27-5.54s-13.42-12.51-19.06-18.24"/>
        <path class="color-white" fill="#fff" d="M1389.11 589.35c3.26-7.36 14.33-31.62 15.91-34.73 1.58-3.11 2.77-5.52-1.22-4.45-7.28 1.93-12.11 3.78-27.07 0-26-6.5-38.85-27.82-43.65-41.89-8.56-25.09 2.86-53.93 24.34-69 22-14.27 53-14 73.1 3.3 11.24 9.73 26.24 29.31 22.5 55.9-2.14 15.27-5.7 19.33-10.23 25.35-2.48 3.31.2 3.1 3.67 2.8 3.47-.3 30.12-1.45 38.16-1.72 8.04-.27 23.28-.54 26.38-.09 3.1.45 4.84-.16 4.74-3.14-.06-1.91-3.67-7.53-3.29-15.3.55-11.27 1-14.8.19-28.29-1.23-21-11.26-53.5-41.68-79.81-39.84-34.45-85.92-34.06-118.1-23.27l-.38-.37a128.94 128.94 0 00-53.13 35.82l.21.49c-22.08 25.79-39.71 68.36-22.71 118.21 13 38.07 39.32 59.54 58.35 68.57 12.21 5.79 15.64 6.71 26.29 10.42 7.35 2.57 11.21 8 13 8.8 2.73 1.21 3.93-.19 4.68-3.22.75-3.03 6.71-17.07 10-24.42" data-name="C"/>
    </g>
</svg>
