<svg xmlns="http://www.w3.org/2000/svg" viewBox="0 0 612 612">
    <path class="color-orange color-reserved-white" fill="#cd6433" d="M273.4 609.5c-6.7-5.9-15.4-4-23.1-5.4-21-3.8-41-10.1-60.7-18.1-23.3-9.5-44.3-22.8-64.7-37.5-4.3-3.1-9-5.8-12.8-9.4C88.1 516 64 492.8 48 463c-9.4-17.5-18.5-35.5-25.5-54-6.5-17.1-12.2-34.6-13.4-53.3-.6-8.7-2.3-17.3-3.9-25.9-3.4-18-2.5-35.9.5-53.7 2.5-15 5.8-29.9 9.4-44.7 2.5-10.2 5.7-20.3 9.6-30.1 5.3-13.6 10.4-27.4 17.6-40 8.4-14.4 18.3-28.1 28.8-41C89.9 97.2 111.2 76.9 136 60c25.2-17.2 52-30.9 81-40.1 21.4-6.8 43.3-11.9 65.9-13.2 9.4-.5 18.9-1.5 28.3-1.8 19.6-.7 39 2 58 6 15.4 3.3 30.7 7.9 45.6 13.1 26.7 9.3 51.3 22.7 73.7 40 11 8.5 22.7 16.7 32.1 26.8 15.3 16.5 31.1 32.8 42.2 52.8 6.5 11.7 14 23 19.4 35.2 9.9 22.1 17.6 45.1 22.5 69 6.6 32.1 3.8 64.6 3.1 96.8-.5 21.6-7.1 42.9-15.3 63.3-5 12.4-9.7 25.1-15.8 36.9-12.8 24.5-28.5 47-47.6 67.3-16.8 18-35.1 33.9-55.5 47.6-32 21.4-67.2 35.2-104.5 44-8.8 2.1-17.9 2.8-26.8 4.2-.7.1-1.3 1.1-1.9 1.8-22.4-.2-44.7-.2-67-.2zm34.8-13.9c16.6-1.7 33.3-2.9 49.8-5.4 24-3.6 47.2-10.6 69-21.1 42-20.3 78.3-47.8 107.1-85 20-25.9 34.8-54.3 45.8-85 8.3-23.2 12.6-47.3 14.8-71.6 2.2-23.7.2-47.5-4.2-70.9-4.2-22.7-11-44.8-20.5-66.1-12.4-27.9-29-53-49.6-75.4-20.6-22.5-43.7-42-70.5-57-18.1-10.1-36.9-19-57-24.7-14.5-4.1-28.8-8.7-43.9-10-14.7-1.3-29.3-4-44-5-8.1-.6-16.4.9-24.5 1.7-11.6 1.2-23.3 1.8-34.6 4.3-23.9 5.4-47.1 13-69 24.4-44.4 23-80.4 55.2-108.6 96.3-11.9 17.4-21.1 36.3-29 55.9-9.7 24-16 49.1-18.2 74.6-1.8 21.7.2 43.7 1.5 65.6 1.2 20.7 6.6 40.8 13.6 60.3 12.8 35.3 31.3 67.3 56.5 95.2 17.8 19.7 37.8 37.1 60.5 51.5 24.3 15.3 49.5 27.8 77.4 35.5 25.6 6.9 51 11.8 77.6 11.9z"/>
    <path class="color-green" fill="#1d4922" d="M308.2 595.6c-26.6 0-52-5-77.5-12-27.9-7.6-53.1-20.2-77.4-35.5-22.7-14.3-42.7-31.7-60.5-51.5-25.2-27.8-43.7-59.9-56.5-95.2-7-19.4-12.3-39.5-13.6-60.2-1.3-21.8-3.4-43.9-1.5-65.6 2.2-25.5 8.5-50.6 18.2-74.6 7.9-19.6 17-38.5 29-55.9C96.6 104 132.6 71.8 177 48.8c22-11.4 45.1-19 69-24.4 11.3-2.5 23-3.1 34.6-4.3 8.2-.9 16.4-2.3 24.5-1.7 14.7 1 29.3 3.7 44 5 15.2 1.3 29.4 5.9 43.9 10 20.1 5.7 38.8 14.5 57 24.7 26.7 14.9 49.9 34.4 70.5 57 20.5 22.5 37.1 47.6 49.6 75.4 9.5 21.2 16.2 43.3 20.5 66.1 4.4 23.4 6.4 47.2 4.2 70.9-2.2 24.3-6.5 48.4-14.8 71.6-11 30.7-25.8 59.1-45.8 85-28.8 37.3-65.1 64.8-107.1 85-21.8 10.5-45 17.5-69 21.1-16.6 2.5-33.3 3.6-49.9 5.4zm-4.4-91.1c54.6-.3 99.5-17.5 137.1-52.1 42.3-38.9 63.3-88.5 63.5-145.1.2-53.1-19-100.5-56.9-138.7-39.3-39.4-87.7-60.3-143.2-60.1-112.5.5-192.5 88.2-194.9 195.3-1.2 51.1 17.3 97.1 52.2 135.6 38.9 43 87.5 64.3 142.2 65.1zM190.6 124.3c-4.5-4.6-8.5-8.8-12.5-12.9-2.2-2.3-3.5-4.7-.9-7.4 2.5-2.7 4.9-1.7 7.5.4 5.2 4.4 10.6 8.5 16.3 12.9 4.5-2.5 11.8-2.1 12.8-8.8-5.8-3.6-10.7-6.7-15.6-9.7-6.5-3.9-4.8-10.3-5.1-16.2-.7-12.5-11.1-19.4-22.5-13.6-10.5 5.3-19.7 13.1-29.5 19.9 16.6 11.9 25 27.3 31.7 45.9 7.3.6 11.8-6.9 17.8-10.5zm303.9 288.5c9.7-.9 17.4-1.5 25-2.4 4.8-.5 7.7 1.3 9.5 5.8 2.4 6.2 7.2 9.7 13.9 9.4 6.6-.3 11.3-4.2 13.8-10.1 3.6-8.2 6.5-16.6 9.6-24.8-11.4-4.8-21.7-9.3-32.2-13.4-7.2-2.8-14.5-5.2-19.5-14.1-2.8 8.7-5 15.5-7.7 24.1 10.2-3.3 16.6 1.1 24.4 6.5-10 5.2-19 2.5-27.8 2.6-2.9 5.4-5.9 10.7-9 16.4zM275.3 555.9c1.2-.1 2.4-.2 3.6-.4 6.8 5.8 8.6 13.7 8.5 22.5 15.6 2.4 15.6 2.4 19.1.6-3.4-7-6.8-13.9-10.4-21.2 2.3-2.5 4.6-4.6 6.5-7.1 9-11.8 2.6-27.1-11.9-28.9-5.9-.8-11.9-1.4-17.8-2.2-2.9-.4-5.7-1.1-8.4-1.6 1.2 20.2-3.2 38.3-7.9 57.1 5.1.8 10.4 1.6 15.6 2.4 1.2-8 2.1-14.6 3.1-21.2zm-169.9-66c.5.6 1.1 1.2 1.6 1.7 19.7-6.9 39.5-13.7 59.3-20.6-3.9-8.9-3.9-8.8-12.4-7.5-1.5.2-3.5.4-4.5-.4-4.1-3.5-7.9-7.4-12.5-11.8 7.1-3.1 7.9-6.3 3-11-3.3-3.2-5.4-7.6-8.3-11.3-1-1.3-2.9-1.9-4.4-2.9-.5 1.5-1.1 2.9-1.5 4.5-.8 2.7-1.3 5.4-2.2 8-6.1 17.1-12.1 34.2-18.1 51.3zm407-3.7c-10-1.8-16.7-5.5-21.3-14.5 10.1 0 18.9.1 27.8-.1 2.4 0 5.9.1 7.1-1.3 3.8-4.3 6.8-9.4 9.4-13-17.2-10.7-33.4-20.5-45.4-37.1-2.7 4-5.4 7.9-8.3 12.3 17.8 1.8 26.7 15.2 38.6 24.2-9.7.6-18.9.1-28.1-.2-9.5-.4-18.9-.7-30.3-1.1 13.8 15.9 31.5 24.5 41.7 42.3 3-4 5.5-7.2 8.8-11.5zm-178.9-395c-6.1-9.7-11.7-18.3-17-27.2-5.5-9.1-10.7-18.4-15.8-27.6-2.3-4.1-4.4-4.3-6.5 0-.6 1.1-1.1 2.2-1.7 3.4L268.8 89c-.5.9-.4 2.1-.7 4 6.1-1.1 12.1 2.4 16.6-3.1-3.1-11.1-2.2-12.3 9.1-12.3 2.9 0 5.7-.1 8.6 0 6.7.3 7 .8 6.5 7.8-.1 1.6.6 4.4 1.4 4.6 7.7 1.7 15.5 5.4 23.2 1.2zm-205.8 41.5c.2.6.4 1.2.5 1.9 8.6-.4 13.8 4.8 18.1 10.7 1.3 1.7 1.4 5.8.1 7.4-1.5 2-4.9 3.1-7.7 3.5-1.9.3-4.5-.9-5.9-2.3-6-5.5-11.5-11.4-17.4-17.1-4.6-4.5-3.7-10.1-1.9-15 2-5.4 7.9-7.3 14.8-6.3 1.6.2 3.3-.4 5.9-.8-3.9-4.2-7-7.6-9.9-10.7-6 5.6-11.9 9.9-16.2 15.5-3.2 4.2-6.7 10.3-5.9 14.9 2.9 17.2 10.7 25.9 26.6 30.5 10.2 2.9 21.6-2.8 26.8-13 5-9.6 3.6-13.8-6.1-22.8-2.2-2.1-3.1-5.7-4.5-8.6-.7-1.5-1-3.1-1.5-4.9-5.6 6.2-10.7 11.6-15.8 17.1zm121.6-80c1.8-11.6.3-13.7-10.1-11.4-10 2.2-19.8 5.7-29.6 9-2.1.7-3.7 2.6-5.9 4.3 9.9 6.1 20.5 40.2 18.5 51.9 3.4-.8 6.2-1.4 9.1-2.2 6.3-1.8 12.4-4.3 18.8-5.6 9.6-2 12.6-6.1 10.8-17.2-1.5.3-3.5.1-4.3.9-2 1.9-3 5.1-5.3 6.5-3.5 2.2-7.7 4.2-11.7 4.5-1.3.1-3.3-5.2-4.5-8.2-1.4-3.4-2.5-7-4-11.5 4.1-1 7.5-1.9 12-3-.7-3.2-1.4-6.4-2.2-10-2.2 2.5-3.5 4.8-5.6 6-1.5.9-5.5.7-5.7.1-1.6-4.6-3.3-9.5-3.2-14.2 0-1.3 6.3-2.9 9.8-3.4 2.3-.3 4.8 1.2 7.2 1.9 1.8.3 3.8 1 5.9 1.6zM53.3 408c2.3 3.9 4.8 6.7 5.5 9.8 3.2 13.7 12 21.1 25.5 23 12.2 1.7 21.7-4.2 28.9-13.2 12.7-15.6.2-40.7-14.7-42.5-5.7-.7-7.4.4-8.2 7.4.9.2 1.9.7 2.6.5 5-1.5 9.5-.5 12.4 3.8 3.2 4.7 2.1 10-.8 14.3-5.5 8.1-13 13.7-23.2 14.6-7.5.7-14.4-2.2-16.3-7.2-2.4-6.2-.6-11.5 4.4-15.9.3-.2 0-1 0-3.1-6.8.6-12.1 3.1-16.1 8.5zm508.5-46.9c12.2 2.7 12.5 2.5 14.1-8.3 1-7.1 2.6-14.1 3.6-21.2.5-3.5.1-7.2.1-9.3-19.9-2.1-38.9 2-57.1-9.7-.8 3.1-2 5.8-2.1 8.6-.3 9.7.7 19.6-3.3 28.9-.6 1.3 0 4.5 1 5 4.2 2.1 8.4 5.4 14.3 2-2.5-4-4.6-7.6-6.8-11.2-2.9-4.6-.9-8.3 2.3-12.1 2.5 0 5.1-.4 7.5.1 4.2.9 8.9 1.6 12.2 4 1.4 1-.2 6.2-.3 9.4 0 .9.3 1.8.5 2.9h9.2c-.8-1.7-1.3-2.5-1.5-3.4-.6-2.9-2.5-7.4-1.5-8.3 2.3-1.9 6.1-2.4 9.3-2.4 3.3.1 6.6 1.5 9.9 2.3 4.2 11.2-4.6 16.4-11.4 22.7zm-60.5-145.9c1.5 3.4 3.4 5.7 3.4 8 .1 8.8 4.7 15.4 9.6 22 4.2 5.7 11.8 9.4 16.8 7.8 6.7-2.2 12.1-9.4 12.2-16.2.1-5.4-.5-10.9.2-16.2.4-3 2.3-6.9 4.8-8.3 1.9-1 6.1.7 8.4 2.4 4.4 3.1 5 11.7 2.5 18.6-1.2 3.2-1.7 6.7-2.6 10 .7.4 1.3.9 2 1.3 3.8-1.8 7.7-3.6 10.9-5.1-1.2-6.6-2.3-12.5-3.1-18.3-1.4-10-9.7-18.8-19.7-20.5s-20.4 8.9-18.4 18.8c.8 4 1.8 7.9 3.1 11.7 1.7 5-2 7.3-4.9 9.2-1.8 1.2-5.4.8-7.5-.2-7.9-3.9-11.2-15.4-7.3-23 .7-1.4.5-3.4.8-5.9-4.2 1.3-7.3 2.5-11.2 3.9zm-3.5-12.9c8.9-19.8 24.8-34.6 30.4-55.6-23.7 3.2-45.8 6.1-67.9 9.1.2.6.4 2 1.1 3 4.3 6.3 6.1 6.6 13.5 3.7 1.7-.7 4.9-1.2 5.4-.5 4.2 6.6 13.3 10.1 13.1 19.5-3.4 1.2-6.4 2.4-10.8 4 6.3 5.6 6.6 14.3 15.2 16.8zm-58.1-71.2c1.3-2.3 2.4-4.6 3.9-6.6 9-11.8 10.3-11.7 18.8 1.1.3.4 1 .6 2.3 1.4 2.1-3.1 4.3-6.3 6.6-9.6-6.2-1.8-11-3.2-17.1-4.9 3.6-5.1 6.3-8.5 8.6-12.3 2.7-4.4 5.5-4.7 9.1-1.2 4.7 4.4 8.9 8.9 10 15.6.6 3.7 3.1 4.1 5.2 1.7 3.6-4 3.1-10.6-1.1-14.4-5.1-4.6-10.7-8.8-16.1-13-3.6-2.8-7.5-5.4-11.3-8.2-9.5 17.7-19.6 33.4-36.3 44.7 1.3 1.5 2.2 3.2 3.7 4.2 6 4.5 12.8 8.2 18.2 13.4 6.6 6.3 12.9 6.8 20.2 2 .8-5.7-3.5-4.4-6.2-4.2-7.7.6-13.4-2.6-18.5-9.7zM182.1 509.6c-5.5-2.8-10.1-5.5-15-7.5-2-.9-4.9-1.1-6.9-.4-12.6 4.6-16 17.6-6.4 27.1 6.2 6.1 13.9 10.7 21 15.9 3.6 2.7 5.6 1.4 6.6-2.8.8-3.7 1.6-7.7 3.5-10.9 3.8-6.5 8.2-12.7 12.8-18.7 3.4-4.5 7.6-8.4 12.1-13.4-5.1-3.1-11.1-6.7-18.1-10.8-.2 9.5-1.7 17.1-9.6 21.5zM37.6 348.8c1 .5 2 1 3.1 1.4 2.2-9.1 8.6-8.7 15.1-8.8 6.6-.1 13.1-1.2 19.7-1.7 6.4-.5 12.7-.8 16.9 5.3.9-.7 1.8-1.2 1.8-1.5-.4-6.7-.3-13.6-1.5-20.1-.5-2.9-3.4-2.7-6.8-1.5-6.8 2.3-14.2 3.1-21.4 4.1-1.5.2-3.2-1.5-4.7-2.2 3.1-3.9 4.8-6.1 6.5-8.3-5.7-2.6-6.3-2.5-16.4 1.3-.3 3.9 8.4 4.4 4.4 8.6-2.7 2.8-8.3 2.7-12.2 3.8-5-8.6-4.8-10.1 1-16.6 2.5-2.8 4.8-5.9 7.2-8.9-.5-.8-1-1.7-1.6-2.5-4.9.8-9.7 1.6-15.4 2.5 1.6 16 2.9 30.6 4.3 45.1zm339.3 181.4c-.8.3-1.5.6-2.3.9-3.2-4.8-13.5-3.7-10.4-13.9.1-.5-2.4-2.6-3.2-2.4-4.4 1.4-10.1-.3-13.1 5.6 19.6 10.3 34.9 23.3 33.5 48.8 8.1-.7 15.5-2.8 21.7-8-19.1-17.3-12.2-36.8-5.2-57.3-7.5 1-13.4 3.6-18.9 7-1.2.7-1.9 3.2-2 4.9-.2 4.8-.1 9.6-.1 14.4zm-58.4 50.1c9-.7 17.9-1.2 26.8-2.1 4.6-.5 9.2-1.8 13.6-3.1 4.8-1.4 5.7-5.3 3.5-9.1-2.4-4.2-5.7-2.7-8.6.2-5.5 5.6-11.9 6.1-19.3 3.7 1.3-16.4-6.7-32-.9-48.8-7.7 1.7-15.6-2.7-22.9 4.5 6.5 2.2 6.9 6.7 6.7 11.6-.1 4.1 0 8.3.7 12.3 1.8 9.9 1.9 19.6.4 30.8zm47.6-482.6c-6.6-5.7-3.9-11.8-2.6-17.7 1.1-4.9 2.5-9.6 3.7-14.5 1.2-5.4 2.2-10.7 3.5-17 4.1 3.3 7.2 5.8 11.7 9.4 1-4.9 1.7-8.3 2.6-12.3-11.9-2.9-22.7-5.7-33.6-8.1-6.3-1.4-7.6.2-8.2 9.5 4-.6 7.8-1.2 12.9-2-1.5 8.7-2.4 16.7-4.3 24.4-1.9 7.9-4.8 15.6-7.6 24.3 5.1 5 12.5 5.7 21.9 4zM69.9 205.6c-4.6-1.9-7.4-3.7-10.3-4-2-.2-5.2 1.4-6.1 3.1-2.2 4.4-3.1 9.4-4.9 14-2.8 7.5-3 15.1 1.9 21.2 12 14.6 28.5 21.6 46.6 6.7 8.2-6.7 12.7-22 1.1-31.5-3.4-2.7-5.8-2.5-8.2 1.3 1.1 1 1.7 1.9 2.6 2.2 4.9 1.9 6.4 6 6.4 10.5 0 5-3.8 7.4-8.1 9.2-10.1 4.3-26.4.6-33.8-7.7-6.6-7.3-5-17.2 7-21.4 1.6-.4 3-1.7 5.8-3.6zm453.8 92.1c2.9-5.7 7.4-6.1 12.4-6 3.4.1 6.8-1.2 10.2-1.3 9.1-.2 18.1-.1 28.1-.1-1.8 4.7-3.1 8.2-4.6 12 9 .7 9.9.4 9.7-6.5-.3-10.7-1.4-21.3-2.2-32.2h-13.8c3.5 4.5 6.1 7.8 10 12.8-11.2 0-19.8.1-28.3 0-8.2-.1-16.7 2.6-24.9-4.7.9 9.7-2 17.9 3.4 26zm-486.5-9.3c3-5.9 7.3-5.7 12.7-4.4 6.4 1.5 13.1 1.2 19.6 2.3 5.4 1 10.6 2.8 15.8 4.5 1.8.6 4.1 2.9 5 2.4 1.6-.9 2.7-3.3 3.1-5.2.9-4.6 1.6-9.2 1.8-13.9.1-1.6-1.4-3.2-2.1-4.8-11.3 5.1-33 3.3-53.2-4-3.9 5.6-5.6 17.1-2.7 23.1zm11.5 101.8c4.4-3.1 7.7-6.5 11.8-8.1 7-2.7 14.6-3.7 21.6-6.5 6.5-2.6 12.7-4.3 19.9-.7-1.4-8.1-1.3-16.2-6.3-21.7-17.5 9.9-34.1 16.4-54.4 13.6 2.5 8.1 4.8 15.3 7.4 23.4zM415 543.8c-3.6 3.5-8.5 6-3.9 10.4 1.4 1.4 6.8 1.2 8.1-.3 4.1-4.7-.9-6.8-4.2-10.1z"/>
    <path class="color-orange color-reserved-white" fill="#cd6433" d="M303.8 504.5c-54.6-.8-103.3-22.1-142.3-65.2-34.9-38.5-53.3-84.5-52.2-135.6 2.4-107.1 82.4-194.8 194.9-195.3 55.5-.2 103.9 20.7 143.2 60.1 38 38.1 57.2 85.5 56.9 138.7-.2 56.6-21.3 106.2-63.5 145.1-37.6 34.7-82.4 51.9-137 52.2zM123.3 305.4c1 12.3.6 24.9 3.4 36.7 4.6 19.5 11.3 38.3 21.7 55.8 9 15.3 19.1 30 31.7 42 15.6 14.8 33.3 27.5 53.7 36 18.2 7.6 36.9 12.5 56.2 14.6 22.4 2.4 44.9.2 66.7-6 29.5-8.4 55.6-23.4 77.6-44.7 12.9-12.5 23.3-27 32.7-42.5 16.4-27 22.5-56.6 24.1-87 .8-16-2.3-32.7-6.2-48.4-8-32.3-24.2-60.5-47.8-84-18.4-18.3-40.1-32.1-64.2-42-14.6-6-29.8-10.5-45.3-11.9-12-1.1-24.2-3.3-36.6-.7-10.7 2.3-22 2.1-32.5 4.9-38.1 10.4-70.5 30.1-94.6 61.8-25.8 34-41.4 71.8-40.6 115.4zm67.3-181.1c-6 3.6-10.6 11.1-18 10.5-6.7-18.6-15.1-34-31.7-45.9 9.9-6.8 19.1-14.6 29.5-19.9 11.5-5.9 21.9 1.1 22.5 13.6.3 5.9-1.4 12.3 5.1 16.2 5 3 9.9 6.1 15.6 9.7-1 6.7-8.3 6.3-12.8 8.8-5.6-4.5-11.1-8.6-16.3-12.9-2.5-2.1-4.9-3.1-7.5-.4s-1.3 5.2.9 7.4c4.2 4.1 8.2 8.3 12.7 12.9zM173 102.2c2.7-3.6 4.2-5.7 5.8-7.6 3.3-4 1.7-11.8-3.3-15.2-4.5-3.1-11.9-1.9-14.3 2.5-.6 1-1 2.8-.5 3.6 3.6 5.1 7.4 10.1 12.3 16.7zm321.5 310.6c3.1-5.7 6.1-11 9-16.3 8.9 0 17.9 2.6 27.8-2.6-7.8-5.5-14.2-9.8-24.4-6.5 2.8-8.6 5-15.4 7.7-24.1 5 8.9 12.3 11.3 19.5 14.1 10.5 4.1 20.8 8.6 32.2 13.4-3.1 8.2-6.1 16.7-9.6 24.8-2.5 5.8-7.2 9.7-13.8 10.1-6.7.3-11.5-3.2-13.9-9.4-1.8-4.5-4.7-6.4-9.5-5.8-7.6.8-15.3 1.4-25 2.3zm51.8 1.4c.6 0 1.5.3 1.9 0 2.9-2.6 6-5.1 8.1-8.3.4-.6-3.3-4.5-5.7-6-3.1-1.9-6.7-3.2-10.3-4.3-3.8-1.2-5.9.7-6.5 4.5-1.2 7.6 4.7 14.3 12.5 14.1zm-271 141.7c-.9 6.6-1.9 13.2-3 21.3-5.1-.8-10.5-1.6-15.6-2.4 4.7-18.9 9.1-36.9 7.9-57.1 2.7.5 5.5 1.2 8.4 1.6 5.9.8 11.8 1.5 17.8 2.2 14.5 1.8 20.9 17.1 11.9 28.9-1.9 2.5-4.2 4.6-6.5 7.1 3.6 7.3 7 14.2 10.4 21.2-3.5 1.8-3.5 1.8-19.1-.6.1-8.7-1.7-16.7-8.5-22.5-1.3.1-2.5.2-3.7.3zm.6-6.8c7.5 1.9 13.6 2 18-3.8 2.9-3.7 3.3-7.9.5-12.3-3.6-5.7-8.7-6.4-15.3-5.2-1 6.9-2 13.6-3.2 21.3zm-170.5-59.2c6-17.1 12.1-34.2 18-51.3.9-2.6 1.4-5.3 2.2-8 .4-1.5 1-3 1.5-4.5 1.5.9 3.3 1.6 4.4 2.9 2.9 3.7 5 8.1 8.3 11.3 5 4.8 4.1 7.9-3 11 4.6 4.4 8.4 8.3 12.5 11.8.9.8 3 .6 4.5.4 8.4-1.4 8.4-1.4 12.4 7.5-19.8 6.9-39.5 13.7-59.3 20.6-.5-.6-1-1.2-1.5-1.7zm24.1-14.5c4.9-2.1 8.4-3.7 13.4-5.9-3.1-3.6-5.4-6.3-7.8-9.1-5.6 3.7-7 8.3-5.6 15zm382.9 10.8c-3.3 4.2-5.8 7.4-8.9 11.4-10.3-17.7-27.9-26.4-41.7-42.3 11.4.4 20.9.7 30.3 1.1 9.2.4 18.5.9 28.1.2-12-9-20.8-22.3-38.6-24.2 2.9-4.3 5.6-8.2 8.3-12.3 12 16.6 28.3 26.4 45.4 37.1-2.5 3.6-5.5 8.7-9.4 13-1.3 1.4-4.7 1.3-7.1 1.3-8.8.1-17.6.1-27.8.1 4.7 9.1 11.3 12.9 21.4 14.6zm-178.9-395c-7.7 4.2-15.5.5-23.3-1.2-.8-.2-1.5-3.1-1.4-4.6.5-7 .2-7.5-6.5-7.8-2.9-.1-5.7 0-8.6 0-11.3.1-12.2 1.2-9.1 12.3-4.5 5.5-10.5 1.9-16.6 3.1.3-1.8.2-3 .7-4l23.7-49.2c.5-1.1 1.1-2.3 1.7-3.4 2.2-4.2 4.2-4.1 6.5 0 5.2 9.3 10.4 18.5 15.8 27.6 5.4 8.8 11 17.5 17.1 27.2zm-40-33.8c-2.1 5.7-3.8 10.3-5.8 15.8h13.9c1.3-6.9-1.8-11.2-8.1-15.8z"/>
    <path class="color-orange color-reserved-white" fill="#cd6433" d="M127.7 132.7c5.1-5.5 10.2-11 15.9-17.1.6 1.8.9 3.5 1.5 4.9 1.4 3 2.2 6.6 4.5 8.6 9.7 9 11.1 13.2 6.1 22.8-5.2 10.1-16.7 15.9-26.8 13-15.9-4.6-23.7-13.3-26.6-30.5-.8-4.6 2.7-10.7 5.9-14.9 4.3-5.6 10.2-9.9 16.2-15.5 2.9 3.1 6 6.5 9.9 10.7-2.6.4-4.3 1.1-5.9.8-6.8-1-12.8.9-14.8 6.3-1.8 4.9-2.7 10.5 1.9 15 5.8 5.7 11.4 11.6 17.4 17.1 1.5 1.4 4.1 2.5 5.9 2.3 2.7-.4 6.1-1.5 7.7-3.5 1.2-1.6 1.1-5.7-.1-7.4-4.3-6-9.5-11.2-18.1-10.7-.2-.6-.4-1.3-.6-1.9zm121.6-80c-2.1-.7-4-1.3-6-1.9-2.4-.7-4.9-2.2-7.2-1.9-3.5.5-9.8 2.1-9.8 3.4-.2 4.7 1.6 9.6 3.2 14.2.2.6 4.2.8 5.7-.1 2-1.1 3.4-3.5 5.6-6 .8 3.7 1.5 6.9 2.2 10-4.5 1.1-7.9 2-12 3 1.6 4.6 2.6 8.1 4 11.5 1.3 3 3.2 8.3 4.5 8.2 4-.3 8.1-2.3 11.7-4.5 2.2-1.4 3.3-4.6 5.3-6.5.9-.9 2.9-.6 4.3-.9 1.8 11.1-1.2 15.3-10.8 17.2-6.4 1.3-12.5 3.8-18.8 5.6-2.8.8-5.7 1.4-9.1 2.2 2.1-11.7-8.5-45.8-18.5-51.9 2.2-1.7 3.9-3.6 5.9-4.3 9.8-3.2 19.6-6.8 29.6-9 10.5-2 12 .1 10.2 11.7zM53.3 408c4-5.4 9.3-7.9 16.1-8.5 0 2 .2 2.9 0 3.1-5 4.4-6.7 9.7-4.4 15.9 1.9 5 8.8 7.9 16.3 7.2 10.2-.9 17.7-6.5 23.2-14.6 2.9-4.3 4-9.6.8-14.3-2.9-4.2-7.4-5.3-12.4-3.8-.8.2-1.8-.3-2.6-.5.8-6.9 2.4-8 8.2-7.4 14.9 1.8 27.4 26.9 14.7 42.5-7.3 8.9-16.8 14.8-28.9 13.2-13.5-1.8-22.2-9.3-25.5-23-.7-3.1-3.2-5.8-5.5-9.8zm508.5-46.9c6.8-6.3 15.5-11.5 11.2-22.4-3.3-.8-6.6-2.3-9.9-2.3-3.2-.1-7 .5-9.3 2.4-1.1.9.8 5.4 1.5 8.3.2.9.7 1.6 1.5 3.4h-9.2c-.2-1.1-.5-2-.5-2.9.1-3.3 1.7-8.4.3-9.4-3.3-2.4-7.9-3.1-12.2-4-2.4-.5-5.1-.1-7.5-.1-3.3 3.7-5.2 7.4-2.3 12.1 2.2 3.6 4.4 7.2 6.8 11.2-5.8 3.4-10.1.1-14.3-2-1-.5-1.6-3.7-1-5 4.1-9.4 3-19.2 3.3-28.9.1-2.8 1.3-5.5 2.1-8.6 18.1 11.7 37.1 7.6 57.1 9.7 0 2.1.4 5.8-.1 9.3-.9 7.1-2.5 14.1-3.6 21.2-1.4 10.5-1.6 10.7-13.9 8zm-60.5-145.9c3.8-1.4 6.9-2.5 11-4-.3 2.6-.1 4.5-.8 5.9-4 7.6-.7 19.1 7.3 23 2.1 1 5.8 1.4 7.5.2 2.9-1.9 6.6-4.2 4.9-9.2-1.3-3.8-2.2-7.8-3.1-11.7-2.1-9.8 8.4-20.4 18.4-18.8 10 1.7 18.3 10.5 19.7 20.5.8 5.9 2 11.7 3.1 18.3-3.2 1.5-7.1 3.3-10.9 5.1-.7-.4-1.3-.9-2-1.3.8-3.4 1.4-6.8 2.6-10 2.5-6.9 1.9-15.4-2.5-18.6-2.3-1.7-6.5-3.4-8.4-2.4-2.4 1.3-4.3 5.2-4.8 8.3-.8 5.3-.2 10.8-.2 16.2-.1 6.8-5.5 14-12.2 16.2-4.9 1.6-12.5-2.1-16.8-7.8-4.9-6.6-9.5-13.2-9.6-22 .2-2.2-1.6-4.5-3.2-7.9zm-3.5-12.9c-8.6-2.5-8.9-11.2-15.3-16.8 4.4-1.6 7.4-2.7 10.8-4 .2-9.4-8.9-12.9-13.1-19.5-.4-.7-3.7-.2-5.4.5-7.3 2.9-9.2 2.5-13.5-3.7-.7-1-.9-2.3-1.1-3 22.1-3 44.2-5.9 67.9-9.1-5.6 21-21.4 35.8-30.3 55.6zm9.4-42.4c-.4-.9-.8-1.8-1.2-2.6-6 1.1-12.1 2.1-19.2 3.4 4.1 5.1 7.1 8.9 11.2 13.9 3.5-5.6 6.3-10.1 9.2-14.7zm-67.5-28.8c5.1 7.1 10.8 10.3 18.6 9.6 2.7-.2 7-1.5 6.2 4.2-7.3 4.8-13.6 4.3-20.2-2-5.4-5.1-12.1-8.9-18.2-13.4-1.4-1.1-2.4-2.7-3.7-4.2 16.6-11.3 26.8-27 36.3-44.7 3.9 2.8 7.7 5.4 11.3 8.2 5.5 4.2 11 8.4 16.1 13 4.2 3.8 4.7 10.5 1.1 14.4-2.2 2.4-4.6 2-5.2-1.7-1.1-6.7-5.3-11.2-10-15.6-3.7-3.4-6.4-3.2-9.1 1.2-2.2 3.7-5 7.1-8.6 12.3 6 1.7 10.9 3.1 17.1 4.9-2.3 3.4-4.5 6.5-6.6 9.6-1.3-.7-2-.9-2.3-1.4-8.6-12.8-9.9-12.9-18.8-1.1-1.6 2.1-2.6 4.4-4 6.7zM182.1 509.6c7.9-4.4 9.4-12.1 9.5-21.6 7 4.2 12.9 7.8 18.1 10.8-4.5 4.9-8.7 8.9-12.1 13.4-4.6 6-8.9 12.2-12.8 18.7-1.9 3.2-2.7 7.2-3.5 10.9-1 4.2-2.9 5.5-6.6 2.8-7.1-5.2-14.8-9.8-21-15.9-9.6-9.5-6.2-22.5 6.4-27.1 2-.7 4.9-.4 6.9.4 5 2.2 9.6 4.8 15.1 7.6zm-13.6 23.6c2.7-4.5 4.9-8.7 7.6-12.4 2-2.7 3.7-5.6.9-7.9-3-2.5-6.8-4.5-11.2-1.6-8.1 5.5-7.4 13.7 2.7 21.9zM37.6 348.8c-1.4-14.6-2.8-29.1-4.3-45.3 5.6-.9 10.5-1.7 15.4-2.5.5.8 1 1.7 1.6 2.5-2.4 3-4.6 6.1-7.2 8.9-5.8 6.5-6.1 8-1 16.6 3.9-1.1 9.5-1.1 12.2-3.8 4-4.1-4.7-4.6-4.4-8.6 10.1-3.8 10.7-3.8 16.4-1.3-1.8 2.2-3.4 4.4-6.5 8.3 1.5.7 3.2 2.4 4.7 2.2 7.2-1 14.6-1.8 21.4-4.1 3.4-1.2 6.3-1.3 6.8 1.5 1.2 6.6 1.2 13.4 1.5 20.1 0 .4-.9.8-1.8 1.5-4.2-6.1-10.5-5.8-16.9-5.3-6.6.5-13.1 1.6-19.7 1.7-6.5.1-12.9-.3-15.1 8.8-1-.2-2.1-.7-3.1-1.2zm339.3 181.4c0-4.8-.2-9.6.1-14.3.1-1.7.8-4.1 2-4.9 5.5-3.4 11.4-5.9 18.9-7-7.1 20.5-14 40 5.2 57.3-6.2 5.2-13.6 7.2-21.7 8 1.3-25.4-14-38.5-33.5-48.8 3-5.9 8.8-4.3 13.1-5.6.8-.2 3.4 1.9 3.2 2.4-3.1 10.2 7.2 9.1 10.4 13.9.8-.4 1.6-.7 2.3-1zm-58.4 50.1c1.5-11.2 1.4-21-.3-30.8-.7-4-.8-8.2-.7-12.3.2-5-.2-9.5-6.7-11.6 7.3-7.2 15.2-2.8 22.9-4.5-5.8 16.8 2.2 32.4.9 48.8 7.4 2.4 13.9 1.9 19.3-3.7 2.9-3 6.2-4.4 8.6-.2 2.1 3.7 1.3 7.7-3.5 9.1-4.5 1.3-9 2.5-13.6 3.1-8.9 1-17.8 1.4-26.9 2.1zm47.6-482.6c-9.4 1.7-16.8 1-22-3.9 2.8-8.7 5.6-16.4 7.6-24.3 1.9-7.7 2.8-15.7 4.3-24.4-5.1.8-8.9 1.4-12.9 2 .7-9.2 1.9-10.8 8.2-9.5 10.9 2.4 21.7 5.2 33.6 8.1-.8 4-1.5 7.3-2.6 12.3-4.5-3.6-7.5-6.1-11.7-9.4-1.3 6.3-2.3 11.7-3.5 17-1.1 4.9-2.6 9.6-3.7 14.5-1.2 5.8-4 11.9 2.7 17.6zM69.9 205.6c-2.9 1.9-4.2 3.3-5.8 3.8-12 4.1-13.6 14.1-7 21.4 7.4 8.3 23.7 12.1 33.8 7.7 4.3-1.8 8.1-4.2 8.1-9.2 0-4.5-1.5-8.7-6.4-10.5-.8-.3-1.4-1.2-2.6-2.2 2.3-3.8 4.8-4 8.2-1.3 11.6 9.4 7.1 24.8-1.1 31.5-18.1 14.9-34.6 7.9-46.6-6.7-5-6.1-4.8-13.8-1.9-21.2 1.7-4.6 2.7-9.6 4.9-14 .8-1.7 4.1-3.3 6.1-3.1 3 0 5.8 1.9 10.3 3.8zm453.8 92.1c-5.4-8.1-2.6-16.3-3.4-26 8.2 7.3 16.8 4.6 24.9 4.7 8.6.1 17.2 0 28.3 0-3.9-5-6.5-8.4-10-12.8h13.8c.8 10.9 1.9 21.5 2.2 32.2.2 6.8-.6 7.1-9.7 6.5 1.4-3.8 2.8-7.3 4.6-12-10 0-19.1-.1-28.1.1-3.4.1-6.8 1.4-10.2 1.3-5-.1-9.4.3-12.4 6zm-486.5-9.3c-2.8-5.9-1.2-17.4 2.6-23.1 20.2 7.3 41.9 9 53.2 4 .7 1.6 2.2 3.2 2.1 4.8-.2 4.7-.9 9.3-1.8 13.9-.4 2-1.5 4.3-3.1 5.2-.8.5-3.2-1.8-5-2.4-5.2-1.7-10.5-3.5-15.8-4.5-6.5-1.1-13.2-.8-19.6-2.3-5.3-1.3-9.7-1.5-12.6 4.4zm11.5 101.8c-2.6-8.1-4.9-15.3-7.5-23.3 20.4 2.8 36.9-3.7 54.4-13.6 4.9 5.5 4.8 13.5 6.3 21.7-7.2-3.6-13.4-1.9-19.9.7-7 2.7-14.6 3.8-21.6 6.5-4 1.5-7.3 4.9-11.7 8zM415 543.8c3.3 3.3 8.3 5.4 4.2 10.1-1.3 1.5-6.7 1.7-8.1.3-4.6-4.4.3-6.8 3.9-10.4z"/>
    <path class="color-green" fill="#1d4922" d="M123.3 305.4c-.7-43.6 14.8-81.4 40.6-115.4 24.1-31.7 56.5-51.4 94.6-61.8 10.5-2.9 21.8-2.6 32.5-4.9 12.4-2.7 24.6-.4 36.6.7 15.5 1.4 30.7 5.9 45.3 11.9 24.1 9.8 45.8 23.6 64.2 42 23.6 23.5 39.8 51.8 47.8 84 3.9 15.7 7 32.4 6.2 48.4-1.6 30.4-7.7 60.1-24.1 87-9.5 15.5-19.9 30-32.7 42.5-22 21.3-48.1 36.3-77.6 44.7-21.8 6.2-44.3 8.4-66.7 6-19.3-2-38-7-56.2-14.6-20.4-8.5-38.1-21.1-53.7-36-12.7-12-22.7-26.7-31.7-42-10.4-17.5-17.1-36.4-21.7-55.8-2.8-11.8-2.4-24.4-3.4-36.7zm112-72c-1-.3-1.9-.6-2.9-1-3.5 5.5-7.3 10.8-10.2 16.5-2.4 4.9-5.7 5.7-10 3.5-2.8-1.4-5.8-3.2-7.4-5.6-4.9-7.6-9.2-15.6-13.7-23.5-1.7-3-1.7-7.6-7.4-7.7-1.5 19.8 11 33.6 20.6 48.8-14.6 1-18.6-1.3-24.8-13.1-1.4-2.6-3.9-4.6-6.7-7.8-2.5 12.5 2.3 22.2 8 30.3 11 15.7 22.7 31 37.6 43.4 3.7 3.1 7.5 6 12.4 9.8-9.6 1.9-17 1.3-22.2-5.3-4.5-5.6-8.2-11.9-12.6-18.3-3.7 11.6 4.2 19 7.4 28.2-4.3-2.2-8.9-4.4-11.1-8-4.8-8.4-8.4-17.4-12.5-26.2-.9-2-1.9-4-2.8-6l-2.1.3c-1.2 4.7-2.4 9.4-3.7 14.6-.8.1-2 .3-3.2.6-1.1.3-2.1.7-3.6 1.2 3.5 9.2 6.7 17.8 10.1 26.8-4 .6-6.8 1-9.7 1.4 0 6.5-.9 12.8.3 18.7.8 4.3 1.6 7.3-1.1 11.4-3.7 5.5-.2 10.1 6.4 9.3 2.7-.3 5.6-1.4 7.7-3.1 5.9-4.7 11.3-10.2 17.2-14.9 4.9-3.9 10.1-7.6 15.6-10.4 12.7-6.3 25.7-12 39.7-18.4 2.7 1.6 2.7 3.7-1.4 6.7-5.3 3.8-10.4 8.1-15.3 12.5-6.9 6.3-12.9 13.9-20.5 19.3-12.2 8.7-25.5 16-38.2 24.1-6.9 4.3-8.7 13.8-5.5 21.3 3.6 8.5 11.8 11.3 18.4 15.4 8.7 5.4 18.9 7.9 29.5 4.4 3-1 6-2.4 9-2.5 4.8-.2 9.7 1.1 12 5.7 2.3 4.5.4 7.9-3.9 11-5.7 4-10.8 9.1-17 14.5 9.7 4.3 17.9 8.2 26.3 11.6 7.8 3.2 16.9 1.7 24.3 8.4 2.7-4.8 4.8-8.7 7.8-14.1 0 2.9.1 4.2 0 5.4-1 8.4-.5 9.2 7.7 10.4 5.9.9 11.9 2.1 17.8 1.8 14.8-.8 29.8-.9 44.2-4.2 15.2-3.4 30.3-8.8 44.1-15.8 18.3-9.2 34-22.2 48.1-37.4 17.2-18.6 29.6-39.8 38-63.5.5-1.5.1-3.3.1-4.8-20.8 4.8-40.9 9.4-60.9 14-3.3.8-8 3.2-9.8 1.8-8.3-6.1-16.7-2.1-25.1-1.7-3.8-8.3-12.3-4.1-18.3-6.8-6.1-2.8-12.7-4.4-19.9-6.8 1.6-2.2 2.2-3.2 3-4.1 8.1-9.7 5.5-18.6-6.9-21.1-5.7-1.2-11.9-.1-17.9.2-4.2.2-8.3.8-12.5 1.2-.2-.9-.3-1.9-.5-2.8 6.7-1.7 13.6-3.2 20.2-5.1 17.4-5 35.6-7.9 50.5-19.4 5.3-4.1 9.8-9.1 14.5-13.9 4.3-4.4 8.8-7.7 14.8-9.6 6.5-2.1 12.9-5.2 18.5-9.1 9.4-6.6 16.4-15.4 17.9-27.5-2.8 2.3-4.9 5.3-7.2 8-2.8 3.1-5.8 5.9-8.7 8.8-5.5 5.5-12.8 6.7-19.3 4.7-3.7-1.1-6-6.9-9.2-11 11.7-4.3 13.4-14.1 18.9-23.9-10.3 3.3-9.8 13.9-17.3 17.9-.7-2.9-2-5.4-1.9-8 .1-5.3 1.4-10.6 1.4-15.9 0-11.5 1.7-22.4 7.4-32.7 2.7-4.9 5.6-10.4 3.5-16.7-6.1.6-6.5 5.9-8.5 9.5-3.9 7.1-9.5 7.7-15.1 2.6-6.8-6.2-8.6-11.9-5.5-20.5-5.3 2.3-8.3 1.1-8.9-4.9-.6-5.9-1.6-11.7-2.6-18.4-1.6.8-3.7 1-4.4 2.1-4.6 6.9-5 7.1-12.1 2.6-6.2-3.9-12.5-7.7-20.7-12.8 4.6 20.2 20 31.5 28.3 47-17.9-7.1-29.7-20.3-37.7-37.9-6.5 4.9-13.5 2.4-15.8-1.6-5.8-9.8-15.7-8.6-24.6-13.1 0 6.1 2.2 9.7 5.6 12.6 5 4.3 10.3 8.3 15.3 12.6 14.6 12.7 28.9 25.5 35.9 44.4 2.1 5.8 5.9 10.9 8.7 16.5 5.7 11.3 11.6 22.7 10.8 35.7-.9 15-6.6 29-15.4 40.9-7.5 10.2-19.8 13.7-32.2 15.7-2.4.4-5.9-.1-7.2 1.3-5.4 6.1-11.8 5.3-18.2 3.2-6.3-2-13.7-1.2-19.4-7 1.5-2.1 2.3-4.6 4-5.4 8.1-3.8 10.7-12.1 15.9-18.3.6-.7-.2-2.6-.4-3.7-5.8 6-11 11.5-16.4 16.8-5.4 5.2-13 5.1-18.5-.1-3-2.8-6.3-5.5-8.7-8.8-10-13.8-17.6-28.2-10.2-46.1.9-3.3 1.1-7.3 2-11.1zM173 102.2c-4.9-6.6-8.7-11.6-12.3-16.8-.5-.7 0-2.5.5-3.6 2.4-4.3 9.8-5.5 14.3-2.5 4.9 3.4 6.6 11.2 3.3 15.2-1.6 2-3.1 4.1-5.8 7.7zm373.3 312c-7.8.2-13.8-6.5-12.6-14.1.6-3.9 2.8-5.7 6.5-4.5 3.5 1.1 7.2 2.4 10.3 4.3 2.4 1.5 6 5.4 5.7 6-2.1 3.2-5.2 5.7-8.1 8.3-.3.3-1.2 0-1.8 0zM275.9 549.1c1.2-7.7 2.2-14.4 3.3-21.3 6.6-1.2 11.7-.5 15.3 5.2 2.8 4.3 2.4 8.6-.5 12.3-4.5 5.8-10.6 5.6-18.1 3.8zm-146.4-73.7c-1.4-6.7 0-11.3 5.5-15l7.8 9.1c-4.9 2.2-8.4 3.8-13.3 5.9zm164-418c6.4 4.7 9.4 8.9 8.1 15.8h-13.9c2-5.6 3.7-10.2 5.8-15.8zm213.7 102.5c-2.9 4.5-5.7 9.1-9.2 14.7-4-5-7.1-8.8-11.2-13.9 7.1-1.3 13.2-2.3 19.2-3.4.4.9.8 1.8 1.2 2.6zM168.5 533.2c-10.1-8.2-10.7-16.3-2.6-21.9 4.3-2.9 8.1-1 11.2 1.6 2.8 2.4 1.1 5.2-.9 7.9-2.8 3.7-5 7.9-7.7 12.4z"/>
    <path class="color-orange color-reserved-white" fill="#cd6433" d="M235.3 233.4c-.8 3.8-1.1 7.9-2.5 11.5-7.4 17.8.2 32.2 10.2 46.1 2.4 3.3 5.7 6 8.7 8.8 5.5 5.2 13.1 5.3 18.5.1 5.4-5.3 10.6-10.8 16.4-16.8.1 1.2 1 3 .4 3.7-5.2 6.2-7.8 14.5-15.9 18.3-1.7.8-2.5 3.3-4 5.4 5.7 5.8 13.1 5 19.4 7 6.4 2 12.8 2.9 18.2-3.2 1.3-1.4 4.7-.9 7.2-1.3 12.3-2 24.6-5.5 32.2-15.7 8.8-11.9 14.5-25.8 15.4-40.9.8-13-5.1-24.4-10.8-35.7-2.8-5.6-6.6-10.7-8.7-16.5-7-18.9-21.3-31.7-35.9-44.4-5-4.3-10.3-8.3-15.3-12.6-3.4-2.9-5.6-6.6-5.6-12.6 8.9 4.5 18.8 3.3 24.6 13.1 2.4 4 9.4 6.5 15.8 1.6 8 17.6 19.8 30.8 37.7 37.9-8.3-15.5-23.7-26.8-28.3-47 8.2 5.1 14.5 8.9 20.7 12.8 7 4.4 7.5 4.3 12.1-2.6.7-1.1 2.8-1.4 4.4-2.1 1 6.7 2 12.5 2.6 18.4.6 6 3.6 7.3 8.9 4.9-3.1 8.6-1.3 14.3 5.5 20.5 5.7 5.2 11.2 4.6 15.1-2.6 2-3.6 2.4-8.9 8.5-9.5 2.1 6.2-.8 11.8-3.5 16.7-5.7 10.3-7.5 21.2-7.4 32.7 0 5.3-1.3 10.6-1.4 15.9-.1 2.5 1.2 5.1 1.9 8 7.5-4.1 7-14.6 17.3-17.9-5.5 9.8-7.2 19.6-18.9 23.9 3.2 4.1 5.5 9.9 9.2 11 6.5 2 13.8.8 19.3-4.7 2.9-2.9 6-5.7 8.7-8.8 2.4-2.7 4.4-5.6 7.2-8-1.6 12.1-8.6 20.9-17.9 27.5-5.5 3.9-12 7-18.5 9.1-6.1 1.9-10.6 5.3-14.8 9.6-4.7 4.8-9.2 9.8-14.5 13.9-14.8 11.5-33.1 14.4-50.5 19.4-6.7 1.9-13.5 3.4-20.2 5.1.2.9.3 1.9.5 2.8 4.2-.4 8.3-1 12.5-1.2 6-.3 12.2-1.3 17.9-.2 12.4 2.5 15 11.4 6.9 21.1-.8.9-1.4 2-3 4.1 7.2 2.4 13.8 4 19.9 6.8 6 2.7 14.6-1.4 18.3 6.8 8.4-.4 16.8-4.4 25.1 1.7 1.8 1.3 6.5-1.1 9.8-1.8 20.1-4.6 40.2-9.3 60.9-14 0 1.5.5 3.3-.1 4.8-8.4 23.7-20.8 44.8-38 63.5-14.1 15.2-29.8 28.2-48.1 37.4-13.9 7-29 12.3-44.1 15.8-14.3 3.2-29.4 3.3-44.2 4.2-5.9.3-11.9-.9-17.8-1.8-8.2-1.2-8.6-2-7.7-10.4.1-1.3 0-2.5 0-5.4-3 5.4-5.1 9.3-7.8 14.1-7.4-6.6-16.5-5.2-24.3-8.4-8.4-3.4-16.6-7.3-26.3-11.6 6.3-5.4 11.3-10.5 17-14.5 4.3-3 6.3-6.4 3.9-11s-7.3-5.9-12-5.7c-3 .1-6 1.5-9 2.5-10.6 3.5-20.8.9-29.5-4.4-6.6-4.1-14.8-6.8-18.4-15.4-3.1-7.5-1.4-17 5.5-21.3 12.7-8 26-15.3 38.2-24.1 7.6-5.4 13.6-13 20.5-19.3 4.9-4.4 9.9-8.7 15.3-12.5 4.1-2.9 4.1-5 1.4-6.7-14 6.4-27 12.1-39.7 18.4-5.6 2.8-10.7 6.5-15.6 10.4-6 4.7-11.3 10.2-17.2 14.9-2.1 1.7-5.1 2.7-7.7 3.1-6.6.8-10-3.8-6.4-9.3 2.7-4.1 1.9-7.1 1.1-11.4-1.1-5.9-.3-12.2-.3-18.7 3-.4 5.7-.8 9.7-1.4-3.4-9-6.6-17.6-10.1-26.8 1.5-.5 2.5-.9 3.6-1.2 1.2-.3 2.4-.4 3.2-.6 1.3-5.2 2.5-9.9 3.7-14.6l2.1-.3c.9 2 1.9 4 2.8 6 4.1 8.8 7.7 17.9 12.5 26.2 2.1 3.7 6.8 5.9 11.1 8-3.2-9.2-11.1-16.6-7.4-28.2 4.4 6.4 8.1 12.6 12.6 18.3 5.3 6.6 12.6 7.1 22.2 5.3-4.9-3.9-8.7-6.7-12.4-9.8-14.8-12.5-26.6-27.8-37.6-43.4-5.7-8.1-10.5-17.8-8-30.3 2.8 3.1 5.3 5.2 6.7 7.8 6.2 11.8 10.2 14.1 24.8 13.1-9.6-15.2-22-29-20.6-48.8 5.7.1 5.7 4.6 7.4 7.7 4.5 7.9 8.8 15.9 13.7 23.5 1.6 2.5 4.7 4.2 7.4 5.6 4.3 2.2 7.5 1.4 10-3.5 2.9-5.8 6.8-11 10.2-16.5 1.4-.1 2.4.2 3.4.6zM369.7 199c-5.6 15.2.2 27.4 4.8 39.5 2.5 6.7 6.4 12.8 9.6 19 2.3-22.6-3.5-37.5-14.4-58.5zm-162.3 67.3c-4.5 16.5 14.1 45.2 29.7 47.2-9.8-15.6-19.5-31-29.7-47.2zm103.4 84.8c3.2-1.8 6.2-3.8 9.5-5.2 3.7-1.6 7.5-2.8 12.6-4.6 2.3 4.1 4.7 8.2 6.8 11.8 3.1-5.7 1.7-12-3.7-13.4-8.8-2.3-20.1 2.2-25.2 11.4zm-9 3.8l1.5 2.1c1.5-1.3 2.9-2.5 4.3-3.8.1-.1-.3-.9-1-2.4-1.7 1.5-3.2 2.8-4.8 4.1zm-52.1 3.8c-.2-.6-.3-1.3-.5-1.9-1.3.4-2.6.7-4 1.1.2.8.5 1.6.7 2.4 1.2-.5 2.5-1.1 3.8-1.6zm85.1-.4c-.4-.2-.7-.5-1.1-.7-.2.5-.6.9-.6 1.4 0 .3.6.5 1 .8.2-.5.5-1 .7-1.5z"/>
    <path class="color-green" fill="#1d4922" d="M369.7 199c10.9 21 16.8 35.9 14.4 58.5-3.2-6.2-7.1-12.3-9.6-19-4.6-12.1-10.4-24.3-4.8-39.5zm-162.3 67.3c10.2 16.2 19.9 31.6 29.7 47.2-15.6-2-34.1-30.7-29.7-47.2zm103.4 84.8c5.1-9.3 16.4-13.7 25.3-11.4 5.4 1.4 6.8 7.7 3.7 13.4-2.1-3.6-4.4-7.7-6.8-11.8-5.1 1.8-9 3-12.6 4.6-3.4 1.5-6.5 3.5-9.6 5.2zm-9 3.8c1.5-1.3 3.1-2.6 4.9-4.1.6 1.5 1.1 2.2 1 2.4-1.4 1.3-2.9 2.5-4.3 3.8-.5-.8-1-1.5-1.6-2.1zm-52.1 3.8c-1.3.5-2.5 1-3.8 1.6-.2-.8-.5-1.6-.7-2.4 1.3-.4 2.6-.7 4-1.1.1.7.3 1.3.5 1.9zm85.1-.4c-.3.5-.5 1-.8 1.5-.3-.3-1-.5-1-.8 0-.5.4-.9.6-1.4.5.2.9.5 1.2.7z"/>
</svg>
