<?xml version="1.0" encoding="utf-8"?>
<!-- Generator: Adobe Illustrator 24.1.0, SVG Export Plug-In . SVG Version: 6.00 Build 0)  -->
<svg version="1.1" id="Layer_1" xmlns="http://www.w3.org/2000/svg" xmlns:xlink="http://www.w3.org/1999/xlink" x="0px" y="0px"
	 viewBox="0 0 612 612" style="enable-background:new 0 0 612 612;" xml:space="preserve">
<style type="text/css">
	.st0{fill:#CD6433;}
	.st1{fill:#1D4922;}
</style>
<path class="st0 color-orange color-reserved-white" d="M273.4,609.5c-6.7-5.9-15.4-4-23.1-5.4c-21-3.8-41-10.1-60.7-18.1c-23.3-9.5-44.3-22.8-64.7-37.5
	c-4.3-3.1-9-5.8-12.8-9.4C88.1,516,64,492.8,48,463c-9.4-17.5-18.5-35.5-25.5-54c-6.5-17.1-12.2-34.6-13.4-53.3
	c-0.6-8.7-2.3-17.3-3.9-25.9c-3.4-18-2.5-35.9,0.5-53.7c2.5-15,5.8-29.9,9.4-44.7c2.5-10.2,5.7-20.3,9.6-30.1
	c5.3-13.6,10.4-27.4,17.6-40c8.4-14.4,18.3-28.1,28.8-41C89.9,97.2,111.2,76.9,136,60c25.2-17.2,52-30.9,81-40.1
	c21.4-6.8,43.3-11.9,65.9-13.2c9.4-0.5,18.9-1.5,28.3-1.8c19.6-0.7,39,2,58,6c15.4,3.3,30.7,7.9,45.6,13.1
	c26.7,9.3,51.3,22.7,73.7,40c11,8.5,22.7,16.7,32.1,26.8c15.3,16.5,31.1,32.8,42.2,52.8c6.5,11.7,14,23,19.4,35.2
	c9.9,22.1,17.6,45.1,22.5,69c6.6,32.1,3.8,64.6,3.1,96.8c-0.5,21.6-7.1,42.9-15.3,63.3c-5,12.4-9.7,25.1-15.8,36.9
	c-12.8,24.5-28.5,47-47.6,67.3c-16.8,18-35.1,33.9-55.5,47.6c-32,21.4-67.2,35.2-104.5,44c-8.8,2.1-17.9,2.8-26.8,4.2
	c-0.7,0.1-1.3,1.1-1.9,1.8C318,609.5,295.7,609.5,273.4,609.5L273.4,609.5z M308.2,595.6c16.6-1.7,33.3-2.9,49.8-5.4
	c24-3.6,47.2-10.6,69-21.1c42-20.3,78.3-47.8,107.1-85c20-25.9,34.8-54.3,45.8-85c8.3-23.2,12.6-47.3,14.8-71.6
	c2.2-23.7,0.2-47.5-4.2-70.9c-4.2-22.7-11-44.8-20.5-66.1c-12.4-27.9-29-53-49.6-75.4c-20.6-22.5-43.7-42-70.5-57
	c-18.1-10.1-36.9-19-57-24.7c-14.5-4.1-28.8-8.7-43.9-10c-14.7-1.3-29.3-4-44-5c-8.1-0.6-16.4,0.9-24.5,1.7
	c-11.6,1.2-23.3,1.8-34.6,4.3c-23.9,5.4-47.1,13-69,24.4c-44.4,23-80.4,55.2-108.6,96.3c-11.9,17.4-21.1,36.3-29,55.9
	c-9.7,24-16,49.1-18.2,74.6c-1.8,21.7,0.2,43.7,1.5,65.6c1.2,20.7,6.6,40.8,13.6,60.3c12.8,35.3,31.3,67.3,56.5,95.2
	c17.8,19.7,37.8,37.1,60.5,51.5c24.3,15.3,49.5,27.8,77.4,35.5C256.2,590.6,281.6,595.5,308.2,595.6z"/>
<path class="st1 color-green" d="M308.2,595.6c-26.6,0-52-5-77.5-12c-27.9-7.6-53.1-20.2-77.4-35.5c-22.7-14.3-42.7-31.7-60.5-51.5
	c-25.2-27.8-43.7-59.9-56.5-95.2c-7-19.4-12.3-39.5-13.6-60.2c-1.3-21.8-3.4-43.9-1.5-65.6c2.2-25.5,8.5-50.6,18.2-74.6
	c7.9-19.6,17-38.5,29-55.9C96.6,104,132.6,71.8,177,48.8c22-11.4,45.1-19,69-24.4c11.3-2.5,23-3.1,34.6-4.3
	c8.2-0.9,16.4-2.3,24.5-1.7c14.7,1,29.3,3.7,44,5c15.2,1.3,29.4,5.9,43.9,10c20.1,5.7,38.8,14.5,57,24.7
	c26.7,14.9,49.9,34.4,70.5,57c20.5,22.5,37.1,47.6,49.6,75.4c9.5,21.2,16.2,43.3,20.5,66.1c4.4,23.4,6.4,47.2,4.2,70.9
	c-2.2,24.3-6.5,48.4-14.8,71.6c-11,30.7-25.8,59.1-45.8,85c-28.8,37.3-65.1,64.8-107.1,85c-21.8,10.5-45,17.5-69,21.1
	C341.5,592.7,324.8,593.8,308.2,595.6z M303.8,504.5c54.6-0.3,99.5-17.5,137.1-52.1c42.3-38.9,63.3-88.5,63.5-145.1
	c0.2-53.1-19-100.5-56.9-138.7c-39.3-39.4-87.7-60.3-143.2-60.1c-112.5,0.5-192.5,88.2-194.9,195.3c-1.2,51.1,17.3,97.1,52.2,135.6
	C200.5,482.4,249.1,503.7,303.8,504.5L303.8,504.5z M190.6,124.3c-4.5-4.6-8.5-8.8-12.5-12.9c-2.2-2.3-3.5-4.7-0.9-7.4
	c2.5-2.7,4.9-1.7,7.5,0.4c5.2,4.4,10.6,8.5,16.3,12.9c4.5-2.5,11.8-2.1,12.8-8.8c-5.8-3.6-10.7-6.7-15.6-9.7
	c-6.5-3.9-4.8-10.3-5.1-16.2C192.4,70.1,182,63.2,170.6,69c-10.5,5.3-19.7,13.1-29.5,19.9c16.6,11.9,25,27.3,31.7,45.9
	C180.1,135.4,184.6,127.9,190.6,124.3L190.6,124.3z M494.5,412.8c9.7-0.9,17.4-1.5,25-2.4c4.8-0.5,7.7,1.3,9.5,5.8
	c2.4,6.2,7.2,9.7,13.9,9.4c6.6-0.3,11.3-4.2,13.8-10.1c3.6-8.2,6.5-16.6,9.6-24.8c-11.4-4.8-21.7-9.3-32.2-13.4
	c-7.2-2.8-14.5-5.2-19.5-14.1c-2.8,8.7-5,15.5-7.7,24.1c10.2-3.3,16.6,1.1,24.4,6.5c-10,5.2-19,2.5-27.8,2.6
	C500.6,401.8,497.6,407.1,494.5,412.8z M275.3,555.9c1.2-0.1,2.4-0.2,3.6-0.4c6.8,5.8,8.6,13.7,8.5,22.5c15.6,2.4,15.6,2.4,19.1,0.6
	c-3.4-7-6.8-13.9-10.4-21.2c2.3-2.5,4.6-4.6,6.5-7.1c9-11.8,2.6-27.1-11.9-28.9c-5.9-0.8-11.9-1.4-17.8-2.2
	c-2.9-0.4-5.7-1.1-8.4-1.6c1.2,20.2-3.2,38.3-7.9,57.1c5.1,0.8,10.4,1.6,15.6,2.4C273.4,569.1,274.3,562.5,275.3,555.9L275.3,555.9z
	 M105.4,489.9c0.5,0.6,1.1,1.2,1.6,1.7c19.7-6.9,39.5-13.7,59.3-20.6c-3.9-8.9-3.9-8.8-12.4-7.5c-1.5,0.2-3.5,0.4-4.5-0.4
	c-4.1-3.5-7.9-7.4-12.5-11.8c7.1-3.1,7.9-6.3,3-11c-3.3-3.2-5.4-7.6-8.3-11.3c-1-1.3-2.9-1.9-4.4-2.9c-0.5,1.5-1.1,2.9-1.5,4.5
	c-0.8,2.7-1.3,5.4-2.2,8C117.4,455.7,111.4,472.8,105.4,489.9L105.4,489.9z M512.4,486.2c-10-1.8-16.7-5.5-21.3-14.5
	c10.1,0,18.9,0.1,27.8-0.1c2.4,0,5.9,0.1,7.1-1.3c3.8-4.3,6.8-9.4,9.4-13c-17.2-10.7-33.4-20.5-45.4-37.1c-2.7,4-5.4,7.9-8.3,12.3
	c17.8,1.8,26.7,15.2,38.6,24.2c-9.7,0.6-18.9,0.1-28.1-0.2c-9.5-0.4-18.9-0.7-30.3-1.1c13.8,15.9,31.5,24.5,41.7,42.3
	C506.6,493.7,509.1,490.5,512.4,486.2L512.4,486.2z M333.5,91.2c-6.1-9.7-11.7-18.3-17-27.2c-5.5-9.1-10.7-18.4-15.8-27.6
	c-2.3-4.1-4.4-4.3-6.5,0c-0.6,1.1-1.1,2.2-1.7,3.4L268.8,89c-0.5,0.9-0.4,2.1-0.7,4c6.1-1.1,12.1,2.4,16.6-3.1
	c-3.1-11.1-2.2-12.3,9.1-12.3c2.9,0,5.7-0.1,8.6,0c6.7,0.3,7,0.8,6.5,7.8c-0.1,1.6,0.6,4.4,1.4,4.6C318,91.7,325.8,95.4,333.5,91.2
	L333.5,91.2z M127.7,132.7c0.2,0.6,0.4,1.2,0.5,1.9c8.6-0.4,13.8,4.8,18.1,10.7c1.3,1.7,1.4,5.8,0.1,7.4c-1.5,2-4.9,3.1-7.7,3.5
	c-1.9,0.3-4.5-0.9-5.9-2.3c-6-5.5-11.5-11.4-17.4-17.1c-4.6-4.5-3.7-10.1-1.9-15c2-5.4,7.9-7.3,14.8-6.3c1.6,0.2,3.3-0.4,5.9-0.8
	c-3.9-4.2-7-7.6-9.9-10.7c-6,5.6-11.9,9.9-16.2,15.5c-3.2,4.2-6.7,10.3-5.9,14.9c2.9,17.2,10.7,25.9,26.6,30.5
	c10.2,2.9,21.6-2.8,26.8-13c5-9.6,3.6-13.8-6.1-22.8c-2.2-2.1-3.1-5.7-4.5-8.6c-0.7-1.5-1-3.1-1.5-4.9
	C137.9,121.8,132.8,127.2,127.7,132.7L127.7,132.7z M249.3,52.7c1.8-11.6,0.3-13.7-10.1-11.4c-10,2.2-19.8,5.7-29.6,9
	c-2.1,0.7-3.7,2.6-5.9,4.3c9.9,6.1,20.5,40.2,18.5,51.9c3.4-0.8,6.2-1.4,9.1-2.2c6.3-1.8,12.4-4.3,18.8-5.6
	c9.6-2,12.6-6.1,10.8-17.2c-1.5,0.3-3.5,0.1-4.3,0.9c-2,1.9-3,5.1-5.3,6.5c-3.5,2.2-7.7,4.2-11.7,4.5c-1.3,0.1-3.3-5.2-4.5-8.2
	c-1.4-3.4-2.5-7-4-11.5c4.1-1,7.5-1.9,12-3c-0.7-3.2-1.4-6.4-2.2-10c-2.2,2.5-3.5,4.8-5.6,6c-1.5,0.9-5.5,0.7-5.7,0.1
	c-1.6-4.6-3.3-9.5-3.2-14.2c0-1.3,6.3-2.9,9.8-3.4c2.3-0.3,4.8,1.2,7.2,1.9C245.2,51.4,247.2,52.1,249.3,52.7L249.3,52.7z M53.3,408
	c2.3,3.9,4.8,6.7,5.5,9.8c3.2,13.7,12,21.1,25.5,23c12.2,1.7,21.7-4.2,28.9-13.2c12.7-15.6,0.2-40.7-14.7-42.5
	c-5.7-0.7-7.4,0.4-8.2,7.4c0.9,0.2,1.9,0.7,2.6,0.5c5-1.5,9.5-0.5,12.4,3.8c3.2,4.7,2.1,10-0.8,14.3c-5.5,8.1-13,13.7-23.2,14.6
	c-7.5,0.7-14.4-2.2-16.3-7.2c-2.4-6.2-0.6-11.5,4.4-15.9c0.3-0.2,0-1,0-3.1C62.6,400.1,57.3,402.6,53.3,408L53.3,408z M561.8,361.1
	c12.2,2.7,12.5,2.5,14.1-8.3c1-7.1,2.6-14.1,3.6-21.2c0.5-3.5,0.1-7.2,0.1-9.3c-19.9-2.1-38.9,2-57.1-9.7c-0.8,3.1-2,5.8-2.1,8.6
	c-0.3,9.7,0.7,19.6-3.3,28.9c-0.6,1.3,0,4.5,1,5c4.2,2.1,8.4,5.4,14.3,2c-2.5-4-4.6-7.6-6.8-11.2c-2.9-4.6-0.9-8.3,2.3-12.1
	c2.5,0,5.1-0.4,7.5,0.1c4.2,0.9,8.9,1.6,12.2,4c1.4,1-0.2,6.2-0.3,9.4c0,0.9,0.3,1.8,0.5,2.9h9.2c-0.8-1.7-1.3-2.5-1.5-3.4
	c-0.6-2.9-2.5-7.4-1.5-8.3c2.3-1.9,6.1-2.4,9.3-2.4c3.3,0.1,6.6,1.5,9.9,2.3C577.4,349.6,568.6,354.8,561.8,361.1z M501.3,215.2
	c1.5,3.4,3.4,5.7,3.4,8c0.1,8.8,4.7,15.4,9.6,22c4.2,5.7,11.8,9.4,16.8,7.8c6.7-2.2,12.1-9.4,12.2-16.2c0.1-5.4-0.5-10.9,0.2-16.2
	c0.4-3,2.3-6.9,4.8-8.3c1.9-1,6.1,0.7,8.4,2.4c4.4,3.1,5,11.7,2.5,18.6c-1.2,3.2-1.7,6.7-2.6,10c0.7,0.4,1.3,0.9,2,1.3
	c3.8-1.8,7.7-3.6,10.9-5.1c-1.2-6.6-2.3-12.5-3.1-18.3c-1.4-10-9.7-18.8-19.7-20.5s-20.4,8.9-18.4,18.8c0.8,4,1.8,7.9,3.1,11.7
	c1.7,5-2,7.3-4.9,9.2c-1.8,1.2-5.4,0.8-7.5-0.2c-7.9-3.9-11.2-15.4-7.3-23c0.7-1.4,0.5-3.4,0.8-5.9
	C508.3,212.6,505.2,213.8,501.3,215.2z M497.8,202.3c8.9-19.8,24.8-34.6,30.4-55.6c-23.7,3.2-45.8,6.1-67.9,9.1c0.2,0.6,0.4,2,1.1,3
	c4.3,6.3,6.1,6.6,13.5,3.7c1.7-0.7,4.9-1.2,5.4-0.5c4.2,6.6,13.3,10.1,13.1,19.5c-3.4,1.2-6.4,2.4-10.8,4
	C488.9,191.1,489.2,199.8,497.8,202.3L497.8,202.3z M439.7,131.1c1.3-2.3,2.4-4.6,3.9-6.6c9-11.8,10.3-11.7,18.8,1.1
	c0.3,0.4,1,0.6,2.3,1.4c2.1-3.1,4.3-6.3,6.6-9.6c-6.2-1.8-11-3.2-17.1-4.9c3.6-5.1,6.3-8.5,8.6-12.3c2.7-4.4,5.5-4.7,9.1-1.2
	c4.7,4.4,8.9,8.9,10,15.6c0.6,3.7,3.1,4.1,5.2,1.7c3.6-4,3.1-10.6-1.1-14.4c-5.1-4.6-10.7-8.8-16.1-13c-3.6-2.8-7.5-5.4-11.3-8.2
	c-9.5,17.7-19.6,33.4-36.3,44.7c1.3,1.5,2.2,3.2,3.7,4.2c6,4.5,12.8,8.2,18.2,13.4c6.6,6.3,12.9,6.8,20.2,2c0.8-5.7-3.5-4.4-6.2-4.2
	C450.5,141.4,444.8,138.2,439.7,131.1L439.7,131.1z M182.1,509.6c-5.5-2.8-10.1-5.5-15-7.5c-2-0.9-4.9-1.1-6.9-0.4
	c-12.6,4.6-16,17.6-6.4,27.1c6.2,6.1,13.9,10.7,21,15.9c3.6,2.7,5.6,1.4,6.6-2.8c0.8-3.7,1.6-7.7,3.5-10.9
	c3.8-6.5,8.2-12.7,12.8-18.7c3.4-4.5,7.6-8.4,12.1-13.4c-5.1-3.1-11.1-6.7-18.1-10.8C191.5,497.6,190,505.2,182.1,509.6L182.1,509.6
	z M37.6,348.8c1,0.5,2,1,3.1,1.4c2.2-9.1,8.6-8.7,15.1-8.8c6.6-0.1,13.1-1.2,19.7-1.7c6.4-0.5,12.7-0.8,16.9,5.3
	c0.9-0.7,1.8-1.2,1.8-1.5c-0.4-6.7-0.3-13.6-1.5-20.1c-0.5-2.9-3.4-2.7-6.8-1.5c-6.8,2.3-14.2,3.1-21.4,4.1
	c-1.5,0.2-3.2-1.5-4.7-2.2c3.1-3.9,4.8-6.1,6.5-8.3c-5.7-2.6-6.3-2.5-16.4,1.3c-0.3,3.9,8.4,4.4,4.4,8.6c-2.7,2.8-8.3,2.7-12.2,3.8
	c-5-8.6-4.8-10.1,1-16.6c2.5-2.8,4.8-5.9,7.2-8.9c-0.5-0.8-1-1.7-1.6-2.5c-4.9,0.8-9.7,1.6-15.4,2.5
	C34.9,319.7,36.2,334.3,37.6,348.8L37.6,348.8z M376.9,530.2c-0.8,0.3-1.5,0.6-2.3,0.9c-3.2-4.8-13.5-3.7-10.4-13.9
	c0.1-0.5-2.4-2.6-3.2-2.4c-4.4,1.4-10.1-0.3-13.1,5.6c19.6,10.3,34.9,23.3,33.5,48.8c8.1-0.7,15.5-2.8,21.7-8
	c-19.1-17.3-12.2-36.8-5.2-57.3c-7.5,1-13.4,3.6-18.9,7c-1.2,0.7-1.9,3.2-2,4.9C376.8,520.6,376.9,525.4,376.9,530.2z M318.5,580.3
	c9-0.7,17.9-1.2,26.8-2.1c4.6-0.5,9.2-1.8,13.6-3.1c4.8-1.4,5.7-5.3,3.5-9.1c-2.4-4.2-5.7-2.7-8.6,0.2c-5.5,5.6-11.9,6.1-19.3,3.7
	c1.3-16.4-6.7-32-0.9-48.8c-7.7,1.7-15.6-2.7-22.9,4.5c6.5,2.2,6.9,6.7,6.7,11.6c-0.1,4.1,0,8.3,0.7,12.3
	C319.9,559.4,320,569.1,318.5,580.3L318.5,580.3z M366.1,97.7c-6.6-5.7-3.9-11.8-2.6-17.7c1.1-4.9,2.5-9.6,3.7-14.5
	c1.2-5.4,2.2-10.7,3.5-17c4.1,3.3,7.2,5.8,11.7,9.4c1-4.9,1.7-8.3,2.6-12.3c-11.9-2.9-22.7-5.7-33.6-8.1c-6.3-1.4-7.6,0.2-8.2,9.5
	c4-0.6,7.8-1.2,12.9-2c-1.5,8.7-2.4,16.7-4.3,24.4c-1.9,7.9-4.8,15.6-7.6,24.3C349.3,98.7,356.7,99.4,366.1,97.7z M69.9,205.6
	c-4.6-1.9-7.4-3.7-10.3-4c-2-0.2-5.2,1.4-6.1,3.1c-2.2,4.4-3.1,9.4-4.9,14c-2.8,7.5-3,15.1,1.9,21.2c12,14.6,28.5,21.6,46.6,6.7
	c8.2-6.7,12.7-22,1.1-31.5c-3.4-2.7-5.8-2.5-8.2,1.3c1.1,1,1.7,1.9,2.6,2.2c4.9,1.9,6.4,6,6.4,10.5c0,5-3.8,7.4-8.1,9.2
	c-10.1,4.3-26.4,0.6-33.8-7.7c-6.6-7.3-5-17.2,7-21.4C65.7,208.8,67.1,207.5,69.9,205.6z M523.7,297.7c2.9-5.7,7.4-6.1,12.4-6
	c3.4,0.1,6.8-1.2,10.2-1.3c9.1-0.2,18.1-0.1,28.1-0.1c-1.8,4.7-3.1,8.2-4.6,12c9,0.7,9.9,0.4,9.7-6.5c-0.3-10.7-1.4-21.3-2.2-32.2
	h-13.8c3.5,4.5,6.1,7.8,10,12.8c-11.2,0-19.8,0.1-28.3,0c-8.2-0.1-16.7,2.6-24.9-4.7C521.2,281.4,518.3,289.6,523.7,297.7
	L523.7,297.7z M37.2,288.4c3-5.9,7.3-5.7,12.7-4.4c6.4,1.5,13.1,1.2,19.6,2.3c5.4,1,10.6,2.8,15.8,4.5c1.8,0.6,4.1,2.9,5,2.4
	c1.6-0.9,2.7-3.3,3.1-5.2c0.9-4.6,1.6-9.2,1.8-13.9c0.1-1.6-1.4-3.2-2.1-4.8c-11.3,5.1-33,3.3-53.2-4
	C36,270.9,34.3,282.4,37.2,288.4z M48.7,390.2c4.4-3.1,7.7-6.5,11.8-8.1c7-2.7,14.6-3.7,21.6-6.5c6.5-2.6,12.7-4.3,19.9-0.7
	c-1.4-8.1-1.3-16.2-6.3-21.7c-17.5,9.9-34.1,16.4-54.4,13.6C43.8,374.9,46.1,382.1,48.7,390.2L48.7,390.2z M415,543.8
	c-3.6,3.5-8.5,6-3.9,10.4c1.4,1.4,6.8,1.2,8.1-0.3C423.3,549.2,418.3,547.1,415,543.8L415,543.8z"/>
<path class="st0 color-orange color-reserved-white" d="M303.8,504.5c-54.6-0.8-103.3-22.1-142.3-65.2c-34.9-38.5-53.3-84.5-52.2-135.6
	c2.4-107.1,82.4-194.8,194.9-195.3c55.5-0.2,103.9,20.7,143.2,60.1c38,38.1,57.2,85.5,56.9,138.7c-0.2,56.6-21.3,106.2-63.5,145.1
	C403.2,487,358.4,504.2,303.8,504.5L303.8,504.5z M123.3,305.4c1,12.3,0.6,24.9,3.4,36.7c4.6,19.5,11.3,38.3,21.7,55.8
	c9,15.3,19.1,30,31.7,42c15.6,14.8,33.3,27.5,53.7,36c18.2,7.6,36.9,12.5,56.2,14.6c22.4,2.4,44.9,0.2,66.7-6
	c29.5-8.4,55.6-23.4,77.6-44.7c12.9-12.5,23.3-27,32.7-42.5c16.4-27,22.5-56.6,24.1-87c0.8-16-2.3-32.7-6.2-48.4
	c-8-32.3-24.2-60.5-47.8-84c-18.4-18.3-40.1-32.1-64.2-42c-14.6-6-29.8-10.5-45.3-11.9c-12-1.1-24.2-3.3-36.6-0.7
	c-10.7,2.3-22,2.1-32.5,4.9c-38.1,10.4-70.5,30.1-94.6,61.8C138.1,224,122.5,261.8,123.3,305.4L123.3,305.4z M190.6,124.3
	c-6,3.6-10.6,11.1-18,10.5c-6.7-18.6-15.1-34-31.7-45.9c9.9-6.8,19.1-14.6,29.5-19.9c11.5-5.9,21.9,1.1,22.5,13.6
	c0.3,5.9-1.4,12.3,5.1,16.2c5,3,9.9,6.1,15.6,9.7c-1,6.7-8.3,6.3-12.8,8.8c-5.6-4.5-11.1-8.6-16.3-12.9c-2.5-2.1-4.9-3.1-7.5-0.4
	s-1.3,5.2,0.9,7.4C182.1,115.5,186.1,119.7,190.6,124.3z M173,102.2c2.7-3.6,4.2-5.7,5.8-7.6c3.3-4,1.7-11.8-3.3-15.2
	c-4.5-3.1-11.9-1.9-14.3,2.5c-0.6,1-1,2.8-0.5,3.6C164.3,90.6,168.1,95.6,173,102.2z M494.5,412.8c3.1-5.7,6.1-11,9-16.3
	c8.9,0,17.9,2.6,27.8-2.6c-7.8-5.5-14.2-9.8-24.4-6.5c2.8-8.6,5-15.4,7.7-24.1c5,8.9,12.3,11.3,19.5,14.1
	c10.5,4.1,20.8,8.6,32.2,13.4c-3.1,8.2-6.1,16.7-9.6,24.8c-2.5,5.8-7.2,9.7-13.8,10.1c-6.7,0.3-11.5-3.2-13.9-9.4
	c-1.8-4.5-4.7-6.4-9.5-5.8C511.9,411.3,504.2,411.9,494.5,412.8z M546.3,414.2c0.6,0,1.5,0.3,1.9,0c2.9-2.6,6-5.1,8.1-8.3
	c0.4-0.6-3.3-4.5-5.7-6c-3.1-1.9-6.7-3.2-10.3-4.3c-3.8-1.2-5.9,0.7-6.5,4.5C532.6,407.7,538.5,414.4,546.3,414.2L546.3,414.2z
	 M275.3,555.9c-0.9,6.6-1.9,13.2-3,21.3c-5.1-0.8-10.5-1.6-15.6-2.4c4.7-18.9,9.1-36.9,7.9-57.1c2.7,0.5,5.5,1.2,8.4,1.6
	c5.9,0.8,11.8,1.5,17.8,2.2c14.5,1.8,20.9,17.1,11.9,28.9c-1.9,2.5-4.2,4.6-6.5,7.1c3.6,7.3,7,14.2,10.4,21.2
	c-3.5,1.8-3.5,1.8-19.1-0.6c0.1-8.7-1.7-16.7-8.5-22.5C277.7,555.7,276.5,555.8,275.3,555.9L275.3,555.9z M275.9,549.1
	c7.5,1.9,13.6,2,18-3.8c2.9-3.7,3.3-7.9,0.5-12.3c-3.6-5.7-8.7-6.4-15.3-5.2C278.1,534.7,277.1,541.4,275.9,549.1z M105.4,489.9
	c6-17.1,12.1-34.2,18-51.3c0.9-2.6,1.4-5.3,2.2-8c0.4-1.5,1-3,1.5-4.5c1.5,0.9,3.3,1.6,4.4,2.9c2.9,3.7,5,8.1,8.3,11.3
	c5,4.8,4.1,7.9-3,11c4.6,4.4,8.4,8.3,12.5,11.8c0.9,0.8,3,0.6,4.5,0.4c8.4-1.4,8.4-1.4,12.4,7.5c-19.8,6.9-39.5,13.7-59.3,20.6
	C106.4,491,105.9,490.4,105.4,489.9L105.4,489.9z M129.5,475.4c4.9-2.1,8.4-3.7,13.4-5.9c-3.1-3.6-5.4-6.3-7.8-9.1
	C129.5,464.1,128.1,468.7,129.5,475.4L129.5,475.4z M512.4,486.2c-3.3,4.2-5.8,7.4-8.9,11.4c-10.3-17.7-27.9-26.4-41.7-42.3
	c11.4,0.4,20.9,0.7,30.3,1.1c9.2,0.4,18.5,0.9,28.1,0.2c-12-9-20.8-22.3-38.6-24.2c2.9-4.3,5.6-8.2,8.3-12.3
	c12,16.6,28.3,26.4,45.4,37.1c-2.5,3.6-5.5,8.7-9.4,13c-1.3,1.4-4.7,1.3-7.1,1.3c-8.8,0.1-17.6,0.1-27.8,0.1
	C495.7,480.7,502.3,484.5,512.4,486.2L512.4,486.2z M333.5,91.2c-7.7,4.2-15.5,0.5-23.3-1.2c-0.8-0.2-1.5-3.1-1.4-4.6
	c0.5-7,0.2-7.5-6.5-7.8c-2.9-0.1-5.7,0-8.6,0c-11.3,0.1-12.2,1.2-9.1,12.3c-4.5,5.5-10.5,1.9-16.6,3.1c0.3-1.8,0.2-3,0.7-4
	l23.7-49.2c0.5-1.1,1.1-2.3,1.7-3.4c2.2-4.2,4.2-4.1,6.5,0c5.2,9.3,10.4,18.5,15.8,27.6C321.8,72.8,327.4,81.5,333.5,91.2
	L333.5,91.2z M293.5,57.4c-2.1,5.7-3.8,10.3-5.8,15.8h13.9C302.9,66.3,299.8,62,293.5,57.4z"/>
<path class="st0 color-orange color-reserved-white" d="M127.7,132.7c5.1-5.5,10.2-11,15.9-17.1c0.6,1.8,0.9,3.5,1.5,4.9c1.4,3,2.2,6.6,4.5,8.6
	c9.7,9,11.1,13.2,6.1,22.8c-5.2,10.1-16.7,15.9-26.8,13c-15.9-4.6-23.7-13.3-26.6-30.5c-0.8-4.6,2.7-10.7,5.9-14.9
	c4.3-5.6,10.2-9.9,16.2-15.5c2.9,3.1,6,6.5,9.9,10.7c-2.6,0.4-4.3,1.1-5.9,0.8c-6.8-1-12.8,0.9-14.8,6.3c-1.8,4.9-2.7,10.5,1.9,15
	c5.8,5.7,11.4,11.6,17.4,17.1c1.5,1.4,4.1,2.5,5.9,2.3c2.7-0.4,6.1-1.5,7.7-3.5c1.2-1.6,1.1-5.7-0.1-7.4c-4.3-6-9.5-11.2-18.1-10.7
	C128.1,134,127.9,133.3,127.7,132.7L127.7,132.7z M249.3,52.7c-2.1-0.7-4-1.3-6-1.9c-2.4-0.7-4.9-2.2-7.2-1.9
	c-3.5,0.5-9.8,2.1-9.8,3.4c-0.2,4.7,1.6,9.6,3.2,14.2c0.2,0.6,4.2,0.8,5.7-0.1c2-1.1,3.4-3.5,5.6-6c0.8,3.7,1.5,6.9,2.2,10
	c-4.5,1.1-7.9,2-12,3c1.6,4.6,2.6,8.1,4,11.5c1.3,3,3.2,8.3,4.5,8.2c4-0.3,8.1-2.3,11.7-4.5c2.2-1.4,3.3-4.6,5.3-6.5
	c0.9-0.9,2.9-0.6,4.3-0.9c1.8,11.1-1.2,15.3-10.8,17.2c-6.4,1.3-12.5,3.8-18.8,5.6c-2.8,0.8-5.7,1.4-9.1,2.2
	c2.1-11.7-8.5-45.8-18.5-51.9c2.2-1.7,3.9-3.6,5.9-4.3c9.8-3.2,19.6-6.8,29.6-9C249.6,39,251.1,41.1,249.3,52.7L249.3,52.7z
	 M53.3,408c4-5.4,9.3-7.9,16.1-8.5c0,2,0.2,2.9,0,3.1c-5,4.4-6.7,9.7-4.4,15.9c1.9,5,8.8,7.9,16.3,7.2c10.2-0.9,17.7-6.5,23.2-14.6
	c2.9-4.3,4-9.6,0.8-14.3c-2.9-4.2-7.4-5.3-12.4-3.8c-0.8,0.2-1.8-0.3-2.6-0.5c0.8-6.9,2.4-8,8.2-7.4c14.9,1.8,27.4,26.9,14.7,42.5
	c-7.3,8.9-16.8,14.8-28.9,13.2c-13.5-1.8-22.2-9.3-25.5-23C58.1,414.7,55.6,412,53.3,408L53.3,408z M561.8,361.1
	c6.8-6.3,15.5-11.5,11.2-22.4c-3.3-0.8-6.6-2.3-9.9-2.3c-3.2-0.1-7,0.5-9.3,2.4c-1.1,0.9,0.8,5.4,1.5,8.3c0.2,0.9,0.7,1.6,1.5,3.4
	h-9.2c-0.2-1.1-0.5-2-0.5-2.9c0.1-3.3,1.7-8.4,0.3-9.4c-3.3-2.4-7.9-3.1-12.2-4c-2.4-0.5-5.1-0.1-7.5-0.1c-3.3,3.7-5.2,7.4-2.3,12.1
	c2.2,3.6,4.4,7.2,6.8,11.2c-5.8,3.4-10.1,0.1-14.3-2c-1-0.5-1.6-3.7-1-5c4.1-9.4,3-19.2,3.3-28.9c0.1-2.8,1.3-5.5,2.1-8.6
	c18.1,11.7,37.1,7.6,57.1,9.7c0,2.1,0.4,5.8-0.1,9.3c-0.9,7.1-2.5,14.1-3.6,21.2C574.3,363.6,574.1,363.8,561.8,361.1L561.8,361.1z
	 M501.3,215.2c3.8-1.4,6.9-2.5,11-4c-0.3,2.6-0.1,4.5-0.8,5.9c-4,7.6-0.7,19.1,7.3,23c2.1,1,5.8,1.4,7.5,0.2
	c2.9-1.9,6.6-4.2,4.9-9.2c-1.3-3.8-2.2-7.8-3.1-11.7c-2.1-9.8,8.4-20.4,18.4-18.8c10,1.7,18.3,10.5,19.7,20.5
	c0.8,5.9,2,11.7,3.1,18.3c-3.2,1.5-7.1,3.3-10.9,5.1c-0.7-0.4-1.3-0.9-2-1.3c0.8-3.4,1.4-6.8,2.6-10c2.5-6.9,1.9-15.4-2.5-18.6
	c-2.3-1.7-6.5-3.4-8.4-2.4c-2.4,1.3-4.3,5.2-4.8,8.3c-0.8,5.3-0.2,10.8-0.2,16.2c-0.1,6.8-5.5,14-12.2,16.2
	c-4.9,1.6-12.5-2.1-16.8-7.8c-4.9-6.6-9.5-13.2-9.6-22C504.7,220.9,502.9,218.6,501.3,215.2L501.3,215.2z M497.8,202.3
	c-8.6-2.5-8.9-11.2-15.3-16.8c4.4-1.6,7.4-2.7,10.8-4c0.2-9.4-8.9-12.9-13.1-19.5c-0.4-0.7-3.7-0.2-5.4,0.5
	c-7.3,2.9-9.2,2.5-13.5-3.7c-0.7-1-0.9-2.3-1.1-3c22.1-3,44.2-5.9,67.9-9.1C522.5,167.7,506.7,182.5,497.8,202.3z M507.2,159.9
	c-0.4-0.9-0.8-1.8-1.2-2.6c-6,1.1-12.1,2.1-19.2,3.4c4.1,5.1,7.1,8.9,11.2,13.9C501.5,169,504.3,164.5,507.2,159.9L507.2,159.9z
	 M439.7,131.1c5.1,7.1,10.8,10.3,18.6,9.6c2.7-0.2,7-1.5,6.2,4.2c-7.3,4.8-13.6,4.3-20.2-2c-5.4-5.1-12.1-8.9-18.2-13.4
	c-1.4-1.1-2.4-2.7-3.7-4.2c16.6-11.3,26.8-27,36.3-44.7c3.9,2.8,7.7,5.4,11.3,8.2c5.5,4.2,11,8.4,16.1,13c4.2,3.8,4.7,10.5,1.1,14.4
	c-2.2,2.4-4.6,2-5.2-1.7c-1.1-6.7-5.3-11.2-10-15.6c-3.7-3.4-6.4-3.2-9.1,1.2c-2.2,3.7-5,7.1-8.6,12.3c6,1.7,10.9,3.1,17.1,4.9
	c-2.3,3.4-4.5,6.5-6.6,9.6c-1.3-0.7-2-0.9-2.3-1.4c-8.6-12.8-9.9-12.9-18.8-1.1C442.1,126.5,441.1,128.8,439.7,131.1L439.7,131.1z
	 M182.1,509.6c7.9-4.4,9.4-12.1,9.5-21.6c7,4.2,12.9,7.8,18.1,10.8c-4.5,4.9-8.7,8.9-12.1,13.4c-4.6,6-8.9,12.2-12.8,18.7
	c-1.9,3.2-2.7,7.2-3.5,10.9c-1,4.2-2.9,5.5-6.6,2.8c-7.1-5.2-14.8-9.8-21-15.9c-9.6-9.5-6.2-22.5,6.4-27.1c2-0.7,4.9-0.4,6.9,0.4
	C172,504.2,176.6,506.8,182.1,509.6L182.1,509.6z M168.5,533.2c2.7-4.5,4.9-8.7,7.6-12.4c2-2.7,3.7-5.6,0.9-7.9
	c-3-2.5-6.8-4.5-11.2-1.6C157.7,516.8,158.4,525,168.5,533.2L168.5,533.2z M37.6,348.8c-1.4-14.6-2.8-29.1-4.3-45.3
	c5.6-0.9,10.5-1.7,15.4-2.5c0.5,0.8,1,1.7,1.6,2.5c-2.4,3-4.6,6.1-7.2,8.9c-5.8,6.5-6.1,8-1,16.6c3.9-1.1,9.5-1.1,12.2-3.8
	c4-4.1-4.7-4.6-4.4-8.6c10.1-3.8,10.7-3.8,16.4-1.3c-1.8,2.2-3.4,4.4-6.5,8.3c1.5,0.7,3.2,2.4,4.7,2.2c7.2-1,14.6-1.8,21.4-4.1
	c3.4-1.2,6.3-1.3,6.8,1.5c1.2,6.6,1.2,13.4,1.5,20.1c0,0.4-0.9,0.8-1.8,1.5c-4.2-6.1-10.5-5.8-16.9-5.3c-6.6,0.5-13.1,1.6-19.7,1.7
	c-6.5,0.1-12.9-0.3-15.1,8.8C39.7,349.8,38.6,349.3,37.6,348.8L37.6,348.8z M376.9,530.2c0-4.8-0.2-9.6,0.1-14.3
	c0.1-1.7,0.8-4.1,2-4.9c5.5-3.4,11.4-5.9,18.9-7c-7.1,20.5-14,40,5.2,57.3c-6.2,5.2-13.6,7.2-21.7,8c1.3-25.4-14-38.5-33.5-48.8
	c3-5.9,8.8-4.3,13.1-5.6c0.8-0.2,3.4,1.9,3.2,2.4c-3.1,10.2,7.2,9.1,10.4,13.9C375.4,530.8,376.2,530.5,376.9,530.2L376.9,530.2z
	 M318.5,580.3c1.5-11.2,1.4-21-0.3-30.8c-0.7-4-0.8-8.2-0.7-12.3c0.2-5-0.2-9.5-6.7-11.6c7.3-7.2,15.2-2.8,22.9-4.5
	c-5.8,16.8,2.2,32.4,0.9,48.8c7.4,2.4,13.9,1.9,19.3-3.7c2.9-3,6.2-4.4,8.6-0.2c2.1,3.7,1.3,7.7-3.5,9.1c-4.5,1.3-9,2.5-13.6,3.1
	C336.5,579.2,327.6,579.6,318.5,580.3L318.5,580.3z M366.1,97.7c-9.4,1.7-16.8,1-22-3.9c2.8-8.7,5.6-16.4,7.6-24.3
	c1.9-7.7,2.8-15.7,4.3-24.4c-5.1,0.8-8.9,1.4-12.9,2c0.7-9.2,1.9-10.8,8.2-9.5c10.9,2.4,21.7,5.2,33.6,8.1c-0.8,4-1.5,7.3-2.6,12.3
	c-4.5-3.6-7.5-6.1-11.7-9.4c-1.3,6.3-2.3,11.7-3.5,17c-1.1,4.9-2.6,9.6-3.7,14.5C362.2,85.9,359.4,92,366.1,97.7z M69.9,205.6
	c-2.9,1.9-4.2,3.3-5.8,3.8c-12,4.1-13.6,14.1-7,21.4c7.4,8.3,23.7,12.1,33.8,7.7c4.3-1.8,8.1-4.2,8.1-9.2c0-4.5-1.5-8.7-6.4-10.5
	c-0.8-0.3-1.4-1.2-2.6-2.2c2.3-3.8,4.8-4,8.2-1.3c11.6,9.4,7.1,24.8-1.1,31.5c-18.1,14.9-34.6,7.9-46.6-6.7
	c-5-6.1-4.8-13.8-1.9-21.2c1.7-4.6,2.7-9.6,4.9-14c0.8-1.7,4.1-3.3,6.1-3.1C62.6,201.8,65.4,203.7,69.9,205.6z M523.7,297.7
	c-5.4-8.1-2.6-16.3-3.4-26c8.2,7.3,16.8,4.6,24.9,4.7c8.6,0.1,17.2,0,28.3,0c-3.9-5-6.5-8.4-10-12.8h13.8
	c0.8,10.9,1.9,21.5,2.2,32.2c0.2,6.8-0.6,7.1-9.7,6.5c1.4-3.8,2.8-7.3,4.6-12c-10,0-19.1-0.1-28.1,0.1c-3.4,0.1-6.8,1.4-10.2,1.3
	C531.1,291.6,526.7,292,523.7,297.7L523.7,297.7z M37.2,288.4c-2.8-5.9-1.2-17.4,2.6-23.1c20.2,7.3,41.9,9,53.2,4
	c0.7,1.6,2.2,3.2,2.1,4.8c-0.2,4.7-0.9,9.3-1.8,13.9c-0.4,2-1.5,4.3-3.1,5.2c-0.8,0.5-3.2-1.8-5-2.4c-5.2-1.7-10.5-3.5-15.8-4.5
	c-6.5-1.1-13.2-0.8-19.6-2.3C44.5,282.7,40.1,282.5,37.2,288.4z M48.7,390.2c-2.6-8.1-4.9-15.3-7.5-23.3
	c20.4,2.8,36.9-3.7,54.4-13.6c4.9,5.5,4.8,13.5,6.3,21.7c-7.2-3.6-13.4-1.9-19.9,0.7c-7,2.7-14.6,3.8-21.6,6.5
	C56.4,383.7,53.1,387.1,48.7,390.2L48.7,390.2z M415,543.8c3.3,3.3,8.3,5.4,4.2,10.1c-1.3,1.5-6.7,1.7-8.1,0.3
	C406.5,549.8,411.4,547.4,415,543.8L415,543.8z"/>
<path class="st1 color-green" d="M123.3,305.4c-0.7-43.6,14.8-81.4,40.6-115.4c24.1-31.7,56.5-51.4,94.6-61.8c10.5-2.9,21.8-2.6,32.5-4.9
	c12.4-2.7,24.6-0.4,36.6,0.7c15.5,1.4,30.7,5.9,45.3,11.9c24.1,9.8,45.8,23.6,64.2,42c23.6,23.5,39.8,51.8,47.8,84
	c3.9,15.7,7,32.4,6.2,48.4c-1.6,30.4-7.7,60.1-24.1,87c-9.5,15.5-19.9,30-32.7,42.5c-22,21.3-48.1,36.3-77.6,44.7
	c-21.8,6.2-44.3,8.4-66.7,6c-19.3-2-38-7-56.2-14.6c-20.4-8.5-38.1-21.1-53.7-36c-12.7-12-22.7-26.7-31.7-42
	c-10.4-17.5-17.1-36.4-21.7-55.8C123.9,330.3,124.3,317.7,123.3,305.4L123.3,305.4z M235.3,233.4c-1-0.3-1.9-0.6-2.9-1
	c-3.5,5.5-7.3,10.8-10.2,16.5c-2.4,4.9-5.7,5.7-10,3.5c-2.8-1.4-5.8-3.2-7.4-5.6c-4.9-7.6-9.2-15.6-13.7-23.5
	c-1.7-3-1.7-7.6-7.4-7.7c-1.5,19.8,11,33.6,20.6,48.8c-14.6,1-18.6-1.3-24.8-13.1c-1.4-2.6-3.9-4.6-6.7-7.8
	c-2.5,12.5,2.3,22.2,8,30.3c11,15.7,22.7,31,37.6,43.4c3.7,3.1,7.5,6,12.4,9.8c-9.6,1.9-17,1.3-22.2-5.3
	c-4.5-5.6-8.2-11.9-12.6-18.3c-3.7,11.6,4.2,19,7.4,28.2c-4.3-2.2-8.9-4.4-11.1-8c-4.8-8.4-8.4-17.4-12.5-26.2c-0.9-2-1.9-4-2.8-6
	l-2.1,0.3c-1.2,4.7-2.4,9.4-3.7,14.6c-0.8,0.1-2,0.3-3.2,0.6c-1.1,0.3-2.1,0.7-3.6,1.2c3.5,9.2,6.7,17.8,10.1,26.8
	c-4,0.6-6.8,1-9.7,1.4c0,6.5-0.9,12.8,0.3,18.7c0.8,4.3,1.6,7.3-1.1,11.4c-3.7,5.5-0.2,10.1,6.4,9.3c2.7-0.3,5.6-1.4,7.7-3.1
	c5.9-4.7,11.3-10.2,17.2-14.9c4.9-3.9,10.1-7.6,15.6-10.4c12.7-6.3,25.7-12,39.7-18.4c2.7,1.6,2.7,3.7-1.4,6.7
	c-5.3,3.8-10.4,8.1-15.3,12.5c-6.9,6.3-12.9,13.9-20.5,19.3c-12.2,8.7-25.5,16-38.2,24.1c-6.9,4.3-8.7,13.8-5.5,21.3
	c3.6,8.5,11.8,11.3,18.4,15.4c8.7,5.4,18.9,7.9,29.5,4.4c3-1,6-2.4,9-2.5c4.8-0.2,9.7,1.1,12,5.7c2.3,4.5,0.4,7.9-3.9,11
	c-5.7,4-10.8,9.1-17,14.5c9.7,4.3,17.9,8.2,26.3,11.6c7.8,3.2,16.9,1.7,24.3,8.4c2.7-4.8,4.8-8.7,7.8-14.1c0,2.9,0.1,4.2,0,5.4
	c-1,8.4-0.5,9.2,7.7,10.4c5.9,0.9,11.9,2.1,17.8,1.8c14.8-0.8,29.8-0.9,44.2-4.2c15.2-3.4,30.3-8.8,44.1-15.8
	c18.3-9.2,34-22.2,48.1-37.4c17.2-18.6,29.6-39.8,38-63.5c0.5-1.5,0.1-3.3,0.1-4.8c-20.8,4.8-40.9,9.4-60.9,14
	c-3.3,0.8-8,3.2-9.8,1.8c-8.3-6.1-16.7-2.1-25.1-1.7c-3.8-8.3-12.3-4.1-18.3-6.8c-6.1-2.8-12.7-4.4-19.9-6.8c1.6-2.2,2.2-3.2,3-4.1
	c8.1-9.7,5.5-18.6-6.9-21.1c-5.7-1.2-11.9-0.1-17.9,0.2c-4.2,0.2-8.3,0.8-12.5,1.2c-0.2-0.9-0.3-1.9-0.5-2.8
	c6.7-1.7,13.6-3.2,20.2-5.1c17.4-5,35.6-7.9,50.5-19.4c5.3-4.1,9.8-9.1,14.5-13.9c4.3-4.4,8.8-7.7,14.8-9.6
	c6.5-2.1,12.9-5.2,18.5-9.1c9.4-6.6,16.4-15.4,17.9-27.5c-2.8,2.3-4.9,5.3-7.2,8c-2.8,3.1-5.8,5.9-8.7,8.8
	c-5.5,5.5-12.8,6.7-19.3,4.7c-3.7-1.1-6-6.9-9.2-11c11.7-4.3,13.4-14.1,18.9-23.9c-10.3,3.3-9.8,13.9-17.3,17.9
	c-0.7-2.9-2-5.4-1.9-8c0.1-5.3,1.4-10.6,1.4-15.9c0-11.5,1.7-22.4,7.4-32.7c2.7-4.9,5.6-10.4,3.5-16.7c-6.1,0.6-6.5,5.9-8.5,9.5
	c-3.9,7.1-9.5,7.7-15.1,2.6c-6.8-6.2-8.6-11.9-5.5-20.5c-5.3,2.3-8.3,1.1-8.9-4.9c-0.6-5.9-1.6-11.7-2.6-18.4
	c-1.6,0.8-3.7,1-4.4,2.1c-4.6,6.9-5,7.1-12.1,2.6c-6.2-3.9-12.5-7.7-20.7-12.8c4.6,20.2,20,31.5,28.3,47
	c-17.9-7.1-29.7-20.3-37.7-37.9c-6.5,4.9-13.5,2.4-15.8-1.6c-5.8-9.8-15.7-8.6-24.6-13.1c0,6.1,2.2,9.7,5.6,12.6
	c5,4.3,10.3,8.3,15.3,12.6c14.6,12.7,28.9,25.5,35.9,44.4c2.1,5.8,5.9,10.9,8.7,16.5c5.7,11.3,11.6,22.7,10.8,35.7
	c-0.9,15-6.6,29-15.4,40.9c-7.5,10.2-19.8,13.7-32.2,15.7c-2.4,0.4-5.9-0.1-7.2,1.3c-5.4,6.1-11.8,5.3-18.2,3.2
	c-6.3-2-13.7-1.2-19.4-7c1.5-2.1,2.3-4.6,4-5.4c8.1-3.8,10.7-12.1,15.9-18.3c0.6-0.7-0.2-2.6-0.4-3.7c-5.8,6-11,11.5-16.4,16.8
	c-5.4,5.2-13,5.1-18.5-0.1c-3-2.8-6.3-5.5-8.7-8.8c-10-13.8-17.6-28.2-10.2-46.1C234.2,241.2,234.4,237.2,235.3,233.4L235.3,233.4z
	 M173,102.2c-4.9-6.6-8.7-11.6-12.3-16.8c-0.5-0.7,0-2.5,0.5-3.6c2.4-4.3,9.8-5.5,14.3-2.5c4.9,3.4,6.6,11.2,3.3,15.2
	C177.2,96.5,175.7,98.6,173,102.2z M546.3,414.2c-7.8,0.2-13.8-6.5-12.6-14.1c0.6-3.9,2.8-5.7,6.5-4.5c3.5,1.1,7.2,2.4,10.3,4.3
	c2.4,1.5,6,5.4,5.7,6c-2.1,3.2-5.2,5.7-8.1,8.3C547.8,414.5,546.9,414.2,546.3,414.2L546.3,414.2z M275.9,549.1
	c1.2-7.7,2.2-14.4,3.3-21.3c6.6-1.2,11.7-0.5,15.3,5.2c2.8,4.3,2.4,8.6-0.5,12.3C289.5,551.1,283.4,550.9,275.9,549.1L275.9,549.1z
	 M129.5,475.4c-1.4-6.7,0-11.3,5.5-15l7.8,9.1C137.9,471.7,134.4,473.3,129.5,475.4z M293.5,57.4c6.4,4.7,9.4,8.9,8.1,15.8h-13.9
	C289.7,67.6,291.4,63,293.5,57.4z M507.2,159.9c-2.9,4.5-5.7,9.1-9.2,14.7c-4-5-7.1-8.8-11.2-13.9c7.1-1.3,13.2-2.3,19.2-3.4
	C506.4,158.2,506.8,159.1,507.2,159.9L507.2,159.9z M168.5,533.2c-10.1-8.2-10.7-16.3-2.6-21.9c4.3-2.9,8.1-1,11.2,1.6
	c2.8,2.4,1.1,5.2-0.9,7.9C173.4,524.5,171.2,528.7,168.5,533.2L168.5,533.2z"/>
<path class="st0 color-orange color-reserved-white" d="M235.3,233.4c-0.8,3.8-1.1,7.9-2.5,11.5c-7.4,17.8,0.2,32.2,10.2,46.1c2.4,3.3,5.7,6,8.7,8.8
	c5.5,5.2,13.1,5.3,18.5,0.1c5.4-5.3,10.6-10.8,16.4-16.8c0.1,1.2,1,3,0.4,3.7c-5.2,6.2-7.8,14.5-15.9,18.3c-1.7,0.8-2.5,3.3-4,5.4
	c5.7,5.8,13.1,5,19.4,7c6.4,2,12.8,2.9,18.2-3.2c1.3-1.4,4.7-0.9,7.2-1.3c12.3-2,24.6-5.5,32.2-15.7c8.8-11.9,14.5-25.8,15.4-40.9
	c0.8-13-5.1-24.4-10.8-35.7c-2.8-5.6-6.6-10.7-8.7-16.5c-7-18.9-21.3-31.7-35.9-44.4c-5-4.3-10.3-8.3-15.3-12.6
	c-3.4-2.9-5.6-6.6-5.6-12.6c8.9,4.5,18.8,3.3,24.6,13.1c2.4,4,9.4,6.5,15.8,1.6c8,17.6,19.8,30.8,37.7,37.9
	c-8.3-15.5-23.7-26.8-28.3-47c8.2,5.1,14.5,8.9,20.7,12.8c7,4.4,7.5,4.3,12.1-2.6c0.7-1.1,2.8-1.4,4.4-2.1c1,6.7,2,12.5,2.6,18.4
	c0.6,6,3.6,7.3,8.9,4.9c-3.1,8.6-1.3,14.3,5.5,20.5c5.7,5.2,11.2,4.6,15.1-2.6c2-3.6,2.4-8.9,8.5-9.5c2.1,6.2-0.8,11.8-3.5,16.7
	c-5.7,10.3-7.5,21.2-7.4,32.7c0,5.3-1.3,10.6-1.4,15.9c-0.1,2.5,1.2,5.1,1.9,8c7.5-4.1,7-14.6,17.3-17.9
	c-5.5,9.8-7.2,19.6-18.9,23.9c3.2,4.1,5.5,9.9,9.2,11c6.5,2,13.8,0.8,19.3-4.7c2.9-2.9,6-5.7,8.7-8.8c2.4-2.7,4.4-5.6,7.2-8
	c-1.6,12.1-8.6,20.9-17.9,27.5c-5.5,3.9-12,7-18.5,9.1c-6.1,1.9-10.6,5.3-14.8,9.6c-4.7,4.8-9.2,9.8-14.5,13.9
	c-14.8,11.5-33.1,14.4-50.5,19.4c-6.7,1.9-13.5,3.4-20.2,5.1c0.2,0.9,0.3,1.9,0.5,2.8c4.2-0.4,8.3-1,12.5-1.2
	c6-0.3,12.2-1.3,17.9-0.2c12.4,2.5,15,11.4,6.9,21.1c-0.8,0.9-1.4,2-3,4.1c7.2,2.4,13.8,4,19.9,6.8c6,2.7,14.6-1.4,18.3,6.8
	c8.4-0.4,16.8-4.4,25.1,1.7c1.8,1.3,6.5-1.1,9.8-1.8c20.1-4.6,40.2-9.3,60.9-14c0,1.5,0.5,3.3-0.1,4.8c-8.4,23.7-20.8,44.8-38,63.5
	c-14.1,15.2-29.8,28.2-48.1,37.4c-13.9,7-29,12.3-44.1,15.8c-14.3,3.2-29.4,3.3-44.2,4.2c-5.9,0.3-11.9-0.9-17.8-1.8
	c-8.2-1.2-8.6-2-7.7-10.4c0.1-1.3,0-2.5,0-5.4c-3,5.4-5.1,9.3-7.8,14.1c-7.4-6.6-16.5-5.2-24.3-8.4c-8.4-3.4-16.6-7.3-26.3-11.6
	c6.3-5.4,11.3-10.5,17-14.5c4.3-3,6.3-6.4,3.9-11s-7.3-5.9-12-5.7c-3,0.1-6,1.5-9,2.5c-10.6,3.5-20.8,0.9-29.5-4.4
	c-6.6-4.1-14.8-6.8-18.4-15.4c-3.1-7.5-1.4-17,5.5-21.3c12.7-8,26-15.3,38.2-24.1c7.6-5.4,13.6-13,20.5-19.3
	c4.9-4.4,9.9-8.7,15.3-12.5c4.1-2.9,4.1-5,1.4-6.7c-14,6.4-27,12.1-39.7,18.4c-5.6,2.8-10.7,6.5-15.6,10.4
	c-6,4.7-11.3,10.2-17.2,14.9c-2.1,1.7-5.1,2.7-7.7,3.1c-6.6,0.8-10-3.8-6.4-9.3c2.7-4.1,1.9-7.1,1.1-11.4
	c-1.1-5.9-0.3-12.2-0.3-18.7c3-0.4,5.7-0.8,9.7-1.4c-3.4-9-6.6-17.6-10.1-26.8c1.5-0.5,2.5-0.9,3.6-1.2c1.2-0.3,2.4-0.4,3.2-0.6
	c1.3-5.2,2.5-9.9,3.7-14.6l2.1-0.3c0.9,2,1.9,4,2.8,6c4.1,8.8,7.7,17.9,12.5,26.2c2.1,3.7,6.8,5.9,11.1,8
	c-3.2-9.2-11.1-16.6-7.4-28.2c4.4,6.4,8.1,12.6,12.6,18.3c5.3,6.6,12.6,7.1,22.2,5.3c-4.9-3.9-8.7-6.7-12.4-9.8
	c-14.8-12.5-26.6-27.8-37.6-43.4c-5.7-8.1-10.5-17.8-8-30.3c2.8,3.1,5.3,5.2,6.7,7.8c6.2,11.8,10.2,14.1,24.8,13.1
	c-9.6-15.2-22-29-20.6-48.8c5.7,0.1,5.7,4.6,7.4,7.7c4.5,7.9,8.8,15.9,13.7,23.5c1.6,2.5,4.7,4.2,7.4,5.6c4.3,2.2,7.5,1.4,10-3.5
	c2.9-5.8,6.8-11,10.2-16.5C233.3,232.7,234.3,233,235.3,233.4L235.3,233.4z M369.7,199c-5.6,15.2,0.2,27.4,4.8,39.5
	c2.5,6.7,6.4,12.8,9.6,19C386.4,234.9,380.6,220,369.7,199z M207.4,266.3c-4.5,16.5,14.1,45.2,29.7,47.2
	C227.3,297.9,217.6,282.5,207.4,266.3z M310.8,351.1c3.2-1.8,6.2-3.8,9.5-5.2c3.7-1.6,7.5-2.8,12.6-4.6c2.3,4.1,4.7,8.2,6.8,11.8
	c3.1-5.7,1.7-12-3.7-13.4C327.2,337.4,315.9,341.9,310.8,351.1L310.8,351.1z M301.8,354.9l1.5,2.1c1.5-1.3,2.9-2.5,4.3-3.8
	c0.1-0.1-0.3-0.9-1-2.4C304.9,352.3,303.4,353.6,301.8,354.9L301.8,354.9z M249.7,358.7c-0.2-0.6-0.3-1.3-0.5-1.9
	c-1.3,0.4-2.6,0.7-4,1.1c0.2,0.8,0.5,1.6,0.7,2.4C247.1,359.8,248.4,359.2,249.7,358.7z M334.8,358.3c-0.4-0.2-0.7-0.5-1.1-0.7
	c-0.2,0.5-0.6,0.9-0.6,1.4c0,0.3,0.6,0.5,1,0.8C334.3,359.3,334.6,358.8,334.8,358.3L334.8,358.3z"/>
<path class="st1 color-green" d="M369.7,199c10.9,21,16.8,35.9,14.4,58.5c-3.2-6.2-7.1-12.3-9.6-19C369.9,226.4,364.1,214.2,369.7,199z
	 M207.4,266.3c10.2,16.2,19.9,31.6,29.7,47.2C221.5,311.5,203,282.8,207.4,266.3z M310.8,351.1c5.1-9.3,16.4-13.7,25.3-11.4
	c5.4,1.4,6.8,7.7,3.7,13.4c-2.1-3.6-4.4-7.7-6.8-11.8c-5.1,1.8-9,3-12.6,4.6C317,347.4,313.9,349.4,310.8,351.1L310.8,351.1z
	 M301.8,354.9c1.5-1.3,3.1-2.6,4.9-4.1c0.6,1.5,1.1,2.2,1,2.4c-1.4,1.3-2.9,2.5-4.3,3.8C302.9,356.2,302.4,355.5,301.8,354.9
	L301.8,354.9z M249.7,358.7c-1.3,0.5-2.5,1-3.8,1.6c-0.2-0.8-0.5-1.6-0.7-2.4c1.3-0.4,2.6-0.7,4-1.1
	C249.3,357.5,249.5,358.1,249.7,358.7z M334.8,358.3c-0.3,0.5-0.5,1-0.8,1.5c-0.3-0.3-1-0.5-1-0.8c0-0.5,0.4-0.9,0.6-1.4
	C334.1,357.8,334.5,358.1,334.8,358.3L334.8,358.3z"/>
</svg>
