<svg xmlns="http://www.w3.org/2000/svg" width="200" height="200" viewBox="0 0 200 200">
    <path class="color-black" d="M85.861336 195.90747c-12.660505-1.85732-22.849409-5.17311-34.522042-11.23457l-9.957224-5.17063-11.556533-11.042-11.556531-11.04199-5.720015-10.48083c-3.146009-5.76447-7.079412-15.5319-8.740886-21.70545l-3.02087-11.22462V90.190815l3.02087-11.224596c1.661474-6.173547 5.611148-15.94098 8.777046-21.705441l5.75618-10.480819 11.572222-11.055767 11.57222-11.055752 12.969134-6.035033c7.133022-3.319271 17.077706-7.024193 22.099287-8.233155l9.130157-2.198124 13.848059.021356 13.84804.021356 9.95722 2.223558c34.53133 7.711252 63.35489 34.473807 72.94225 67.726676l2.69468 9.346076-.03 16.01342-.03 16.01343-4.20104 11.63215c-5.72028 15.83897-13.29987 27.31915-25.57251 38.73269l-10.3262 9.60335-11.99516 5.92044c-19.34234 9.54708-41.37462 13.32407-60.960604 10.45084zm38.225154-5.7303c6.57915-1.59903 16.51262-5.30354 22.07435-8.23222l10.11227-5.32485 11.65553-11.16516 11.65549-11.16517 5.56256-10.80974c3.05938-5.94541 6.68532-15.05975 8.05767-20.25412l2.49526-9.4443-.7098-15.303729-.70976-15.303742-3.94442-10.636984c-5.19854-14.019173-14.74735-27.690913-26.25454-37.590557l-9.33987-8.035101-12.25504-5.742867-12.25505-5.742869-11.48911-2.299866-11.48909-2.299871-12.255061.777697-12.255034.777695-12.255051 3.700811-12.255036 3.700812-9.411097 5.868354c-10.815439 6.74405-25.655137 21.243102-31.586671 30.861609-2.238621 3.630134-5.925992 11.769026-8.194144 18.086444L4.91692 86.085667l-.128357 14.557663-.128357 14.5577 2.060554 8.00672c3.044489 11.82998 11.265145 27.19524 19.984334 37.35279l7.695815 8.96539 11.450733 7.27819c18.307439 11.63638 32.370677 15.84411 53.879788 16.12094l12.39299.15947zm-28.214988-6.06985l-.107681-6.79357-1.914844-.73427c-1.053167-.40393 1.014865-.78601 4.595633-.84919l6.5105-.11481v11.64613l4.21267.10259 4.21266.10246-3.06376 1.25114c-1.68507.68814-3.92543 1.29715-4.9786 1.35344l-1.91486.10207v-11.64629H98.8276l-.1077 3.27548c-.0592 1.80152-.70013 4.58565-1.424217 6.18699l-1.31653 2.91154zm-11.771034-1.23355l1.058292-6.28936-1.973897-1.19012-1.973897-1.19011 4.122262-.0237c2.267242-.0144 4.5483.63273 5.069014 1.43341l.946757 1.45577h-4.776461v5.00926c0 2.7551-.794332 5.47584-1.765182 6.04602l-1.76518 1.03676zm29.479572 2.56802c-.50804-1.80152-.93311-5.07702-.94461-7.27888l-.0211-4.00335 4.21268.0922 4.21267.0926-3.54515 1.35122-3.54515 1.35115 1.01931 1.56731c.56061.86203 1.96152 1.22371 3.11313.8038 1.15158-.42005 2.50124-.13716 2.9992.62861l.90541 1.39218h-6.30833v4.36731l4.21265.10259 4.21269.10246-3.06376 1.2511c-4.9551 2.02348-6.481 1.65127-7.45982-1.81973zm-37.989811 1.08814c-1.074887-1.02148 2.036348-11.65442 3.910814-13.36556l1.30187-1.18845-1.143619 5.09518c-1.617727 7.20751-3.01652 10.45909-4.069065 9.45883zm-7.123688-2.34018l-3.553133-1.27658 1.076896-3.28497c2.373406-7.23985 3.860698-10.19848 4.717468-9.38422.495108.47035.109286 3.01154-.857397 5.64674l-1.75759 4.79131 2.61756 1.81892c3.43763 2.38878 2.23136 3.29666-2.243804 1.6888zm59.424489-4.2822c-.92509-1.64267-1.46636-4.42682-1.20282-6.18704l.47918-3.20036 4.21268-.46086 4.21268-.4604V172.9l-2.88235-.86935-2.88237-.8694-.94185 2.33249c-1.19636 2.9628 1.54537 7.94467 4.37222 7.94467 3.31682 0 4.22568-2.57567 1.43293-4.06093l-2.49769-1.32838 2.52347-.92023 2.52349-.92024.87184 2.15911c.47952 1.18754.47509 3.14179-.01 4.34276l-.88175 2.18368h-7.64799l-1.68196-2.98663zm-74.2512-2.21562l-3.061038-2.19815 3.566445-6.12624 3.566431-6.12623-5.426488 5.82308c-2.984577 3.20269-5.452376 5.13525-5.484013 4.2945-.03146-.84068.798406-2.34192 1.844524-3.3361l1.902058-1.80753-2.285027-1.36797-2.285011-1.36801-1.899022 2.41416c-1.044465 1.32777-2.336595 1.99834-2.871404 1.49009-.534813-.50823.880359-3.01652 3.144821-5.57398l4.117214-4.64992-2.011749-1.24387-2.011742-1.2439-4.045266 4.49492c-2.224902 2.47224-4.444028 3.88181-4.931398 3.13246-.487369-.74946.836307-2.90034 2.941508-4.77978 2.1052-1.87948 3.484279-4.26755 3.064627-5.30681-1.15-2.84795.959062-2.278 5.596653 1.51239l4.158002 3.39848-1.783584 1.69493-1.783597 1.695 1.773338 1.68521 1.773339 1.68522 2.178378-1.71807 2.17838-1.71805 4.770316 2.58042c5.246702 2.83812 6.730098 5.85342 1.594732 3.24161-4.417283-2.24661-5.545417-.56976-2.07117 3.07848l2.885122 3.02964-4.17108-.99492-4.17108-.99484v1.6593c0 .91259 1.034026 2.03635 2.297817 2.49723 2.344424.85491 3.232172 3.4756 1.148922 3.39169-.631902-.0238-2.52638-1.03548-4.209958-2.24444zm85.12353-3.3333c-3.52754-6.57098-3.75451-7.47787-1.87139-7.47787 1.6976 0 7.11109 11.41778 5.94078 12.52989-.49433.46989-2.32556-1.80363-4.06939-5.05202zm4.86367-2.78016c-.905-3.75835-1.31208-7.34597-.90461-7.9725.40745-.62653 3.23999.81853 6.2945 3.21124 6.86498 5.37753 8.58048 4.47983 2.66055-1.39222-4.96351-4.92341-4.20291-7.11533 1.59747-4.60378 5.69518 2.46596 6.23637 2.10322 2.50042-1.6759l-3.3296-3.36811 4.83076-4.27465 4.83083-4.27467-.88672 2.38047-.88668 2.38041 4.46409 4.06441c2.45525 2.23539 4.11942 4.39194 3.69817 4.79225-.42126.40011-2.7708-1.09746-5.22115-3.32838l-4.45517-4.05628-1.69589.99609-1.69591.99604 3.86923 4.36983c2.12808 2.40343 3.86925 4.95851 3.86925 5.67792v1.30803l-3.92943-1.41972c-5.3206-1.92237-5.96413-1.79432-3.74616.74539 1.03996 1.19079 1.46321 3.22404.9406 4.51834l-.95023 2.35323-2.47908-.90406c-2.7227-.99291-7.11329 1.67933-5.87859 3.57784.42573.65463.18341 1.53718-.53857 1.96117-.72194.42387-2.05309-2.30404-2.95808-6.06239zm2.96969-3.55739l-1.81271-1.72266v1.50428c0 1.94312 1.81161 3.66475 2.83399 2.69321.4353-.41388-.0239-1.52736-1.02128-2.47483zm-59.838154 3.04183c-4.531628-.71534-12.628845-3.29139-17.993819-5.72463l-9.754505-4.42408-8.94934-7.87386-8.949322-7.87382-5.029861-8.96809c-6.449386-11.49902-9.211548-21.49849-9.234333-33.42953-.036455-19.131012 7.21518-35.868423 21.503982-49.632577C62.412074 39.591909 79.447646 32.998769 100.4644 32.967447l11.59403-.01709 8.32041 2.319699c25.57506 7.130242 45.05908 27.02593 51.3369 52.421538l2.48199 10.040392-.92705 9.789924c-1.67423 17.67988-11.33674 36.3372-24.43547 47.18231-3.49197 2.89113-11.17445 7.44432-17.0722 10.11812l-10.72316 4.8615-9.95722 1.49906c-11.26676 1.69626-12.86874 1.68835-24.324064-.11964zm33.324004-5.46909c12.77291-3.77781 21.07589-8.70207 30.29828-17.96887 8.73117-8.77321 12.77986-15.47626 16.44643-27.22903l2.46681-7.90699V91.440254l-2.90224-8.861595c-7.80303-23.825513-29.27444-41.324801-56.05365-45.683962l-9.98263-1.625002-11.104182 1.768657-11.10419 1.768656-9.648046 4.603808-9.648045 4.603821-8.94607 9.088206C39.194269 67.983785 33.682243 78.438398 31.236708 92.510916l-1.812754 10.431224 1.914894 10.18271c4.822555 25.64456 24.390673 46.17395 50.638058 53.12559 3.791404 1.00414 11.829797 1.88432 17.863104 1.95591l10.96965.13003zm2.97305-15.60433l-2.57987-2.46581-6.61141 1.67558-6.6114 1.67553-14.552875-.55386c-8.004083-.30472-15.216177-.63389-16.026889-.73166-.810697-.0977.786591-1.97927 3.549542-4.18112l5.023537-4.00335.280206-14.55766.280139-14.55766h-4.595634l.248023 6.9149.248037 6.9149h-9.534138l1.838267-1.74692 1.838253-1.74696v-19.46354l-3.666931-2.2833-3.666945-2.283302-1.083779 15.765982-1.083792 15.76599 1.731177 3.07402c.952154 1.69072 3.500151 3.49592 5.662229 4.01161l3.93104.9376-2.060415 1.24096c-1.133226.68248-3.783771 1.2718-5.89011 1.30954-2.106338.0379-5.167804 1.03039-6.803276 2.20593-3.260846 2.34382-9.39788 2.85804-10.674904.89446-.444563-.68362.905292-1.98489 2.999697-2.89174l3.808012-1.64886-.4093-36.73572-.409299-36.735747-3.487494-1.6515-3.487479-1.651487 2.167116-1.709194 2.167129-1.709181 3.999382 1.731708 3.999396 1.731708 8.04414-1.67129c4.424272-.919215 9.414901-1.850417 11.090297-2.069342 4.220553-.551504 4.658982-4.688432.877715-8.281821l-3.157986-3.001042h2.97334c1.635351 0 3.399395-.655094 3.920123-1.455764 1.061934-1.632892 16.517499-2.015021 18.165269-.449163.58258.553656-1.19014 1.700066-3.93939 2.547599l-4.998662 1.54095-2.107733 4.184438-2.107743 4.184451 6.381898 5.278045 6.3819 5.278044 1.95476 6.390981 1.95477 6.390972-4.66547 8.166688c-2.56601 4.491696-4.47169 9.60025-4.2348 11.352357.23688 1.75213-.6565 4.76244-1.98528 6.68961l-2.415921 3.50399 2.295471 5.22091c1.26252 2.87148 3.02191 5.64752 3.90975 6.169l1.61425.9481-.44212-13.58655-.44211-13.586491 4.59563-1.455765 4.59565-1.455765.44801-12.191106.448-12.191108-2.57136-2.70015-2.57136-2.700152 2.51816-.918298 2.51815-.918311 3.76399 2.343721 3.76398 2.34372h23.08601l3.06374-2.911542 3.06378-2.91153v9.343417c0 5.138884.44921 10.45586.99823 11.815496l.9982 2.472076-3.17334-1.613955c-1.74534-.887675-3.94739-3.842733-4.8934-6.566787l-1.72007-4.952858-3.38125-.86152c-1.85974-.473779-5.27699-.870429-7.59397-.881363l-4.21269-.01999-3.06375 2.911541-3.06375 2.91153v17.469201h1.49255c.82088 0 2.58717 2.011648 3.92508 4.470325l2.43255 4.470304 2.30092-1.814699 2.30089-1.81469-.88334-3.344729-.88338-3.344716 2.19832.801664c1.20907.440886 2.62163 1.849961 3.13899 3.131219l.94069 2.329541-2.22881 2.118059-2.2288 2.118051 1.60795 3.35374c1.71976 3.58687.75686 7.90668-1.76241 7.90668-.84252 0-1.19364-.83765-.78021-1.86149.41339-1.02381-.16992-3.05921-1.29635-4.52309l-2.04801-2.66169-2.73363 3.96481-2.73365 3.96476 2.60911 5.49853c1.43504 3.02422 4.08858 6.20817 5.89678 7.07543l3.28762 1.57685-5.27334-.32988-5.27332-.32987-1.60545-5.09519-1.60546-5.09516-.48079 8.58283-.48072 8.58284 1.55006 1.47304 1.55007 1.47306 2.36274-1.86349 2.36275-1.86349v4.72381h10.60381l3.10592-3.16818c1.70826-1.74247 3.50493-4.36284 3.99261-5.82303 1.85966-5.56814 2.95864-2.27344 2.47413 7.41722l-.50395 10.0787-2.9428-2.79659-2.94281-2.79658H126.5693l-.46689 6.61712-.46689 6.61706zm-5.58312-7.35452c4.27121-3.67333 3.36861-4.78371-2.61279-3.21422-5.78483 1.51791-11.43649.57442-11.43649-1.90918 0-.83239 1.01408-1.14365 2.25349-.69167 1.23943.45185 3.30747-.17987 4.59564-1.40398l2.34215-2.22578v-20.17279h-4.99408l.76078 6.41425.76077 6.41424-4.39361.61281-4.39362.61281-2.09557-2.29584c-1.152552-1.26268-2.519872-3.27843-3.038477-4.47942-.518614-1.20103-.764078 2.95782-.545473 9.24186l.39742 11.42551 2.93618 2.04034 2.93619 2.04034h13.72605zM75.473134 98.11491l-.631567-1.800547 5.865492-2.495574 5.865479-2.495588V60.609749h-3.112961c-7.705153 0-18.333369 7.246164-18.333369 12.499415 0 .913678 1.691482 3.268648 3.758833 5.233294l3.758833 3.572071-3.077805 2.504353-3.077791 2.504353 1.071644 3.22064c1.504531 4.521606 5.298425 9.771582 7.061411 9.771582.815855 0 1.199158-.810244.851801-1.800547zM98.8276 86.085667c0-3.508522-.67524-6.775707-1.500524-7.260406l-1.50051-.881285 1.798114-2.736184 1.79811-2.736183-1.796641-3.747289c-.988144-2.060993-2.328428-3.748804-2.978399-3.750675-1.209361-.0039-.8621 23.936968.397332 27.391295 1.407386 3.860156 3.782498-.08269 3.782498-6.279273zM12.579293 128.10554c-.587891-.55868-1.068894-2.47423-1.068894-4.25679v-3.24104l2.667374-.97273 2.66738-.97268 2.559662 3.00395 2.559657 3.004 2.432368-.88701c1.337801-.48784 2.432367-.24349 2.432367.54252 0 .7863-1.895703 1.79314-4.212675 2.23746-2.31697.44426-5.282695 1.20169-6.590508 1.68301-1.307808.4813-2.858841.41817-3.446731-.14049zm5.05863-4.16993c0-1.20099-.648661-2.18365-1.441474-2.18365-1.931669 0-3.315135 2.2733-2.09127 3.43637 1.725183 1.63946 3.532744.99849 3.532744-1.25272zm160.464487-2.30026l-2.68081-1.48383v-6.93796l3.17431-.95743c1.74591-.52657 4.80197-.56921 6.79137-.0949l3.61707.8627 1.05575 3.16121 1.05579 3.16115-2.77838 1.93066c-3.28642 2.28368-6.55006 2.39794-10.2351.35835zm9.286-3.87003c-.5584-2.75552-4.62228-4.0475-8.39912-2.67019l-2.38088.86822 1.892 2.1664c1.04057 1.19154 3.5815 2.16645 5.64646 2.16645h3.75443zM9.978521 116.07446c0-1.24308 7.416979-3.09547 12.063557-3.01283l2.489306.0428-2.29782 1.21128c-3.586355 1.89068-12.255043 3.13366-12.255043 1.7574zm-1.410946-9.24411c.06653-2.60217.46864-3.91237.893599-2.91154l.772659 1.81973 7.148777.16755 7.148774.16755-6.064475 1.10857c-3.335457.60977-6.322625 1.84465-6.638145 2.74413-1.215014 3.46397-3.376419 1.4122-3.261189-3.09569zm170.105705.47418c-2.55408-1.50006-1.71624-5.89307 1.48982-7.811471 3.24258-1.940248 9.9871-.22759 11.23059 2.851811l.99119 2.4547-2.40285 2.28343-2.40283 2.28345.43152-3.57404.43153-3.57409-2.77028-.54673c-1.52364-.30069-3.84167-.15601-5.15115.32152l-2.38086.8682 1.9227 2.20163c2.28038 2.61113 1.46861 3.92039-1.38972 2.24159zM8.446642 95.548151c0-2.402016.689343-4.367295 1.531879-4.367295.842534 0 1.531878.655094 1.531878 1.455765 0 .800675 1.895704 1.465793 4.212674 1.47806 2.316967.01271 5.246691.657328 6.510491 1.43347l2.29782 1.411186-6.510494.02228-6.510491.02228v1.455765c0 .800665-.689344 1.455765-1.531878 1.455765-.842536 0-1.531879-1.96528-1.531879-4.367305zm169.035378-7.029518c3.39859-3.568814 3.19533-4.608136-.91149-4.660878l-3.44674-.04416 2.29781-1.224826c1.26379-.673663 4.92955-1.674385 8.14606-2.223841l5.84824-.999001-.48647 4.815694-.48648 4.815707h-4.07652c-2.24212 0-4.59739.491317-5.23396 1.091823-2.5112 2.368984-4.02742.926011-1.65011-1.5704zm10.1946-3.888729c0-1.201013-1.03396-2.183648-2.29778-2.183648-1.26384 0-2.29781.982635-2.29781 2.183648 0 1.200998 1.03397 2.183646 2.29781 2.183646 1.26382 0 2.29778-.982648 2.29778-2.183646zM21.087994 87.228555c3.847243-4.063376 1.301989-5.429476-2.985028-1.602132l-3.59195 3.206794-2.322533-2.207142-2.32254-2.207141.986123-2.442104c.54237-1.343164 2.030795-2.442116 3.307624-2.442116h2.321494l-1.937747 2.218827c-1.065761 1.220357-1.443135 2.688862-.838613 3.263353.604518.57449 1.771023-.09647 2.59223-1.490944l1.493107-2.53547h7.710665l-.484724 3.990916-.484721 3.990919-3.063759.545574-3.063763.545588zm-1.531683-10.64709l-6.506959-2.747573 1.774235-3.700543c1.797686-3.749441 4.948979-4.851166 6.602689-2.308351.497959.765709 1.806906 1.063441 2.908738.661637 1.101836-.401832 2.817941.2022 3.813572 1.342273l1.810237 2.072829-1.526894 3.816489c-.839792 2.099073-1.716293 3.770211-1.947778 3.713652-.231497-.05651-3.349017-1.339233-6.92784-2.850413zm7.272895-3.683613c0-2.402128-2.421053-2.807967-3.829701-.641973-1.249255 1.920914.582432 4.646914 2.403666 3.577251.784318-.460644 1.426035-1.781524 1.426035-2.935278zm-6.127521-1.49116c0-2.570791-3.297768-2.123077-4.244583.576235-.33349.950802.485071 1.728716 1.819105 1.728716 1.33401 0 2.425478-1.037235 2.425478-2.304951zm153.716565 5.465811c3.39402-3.564026 3.19788-5.120873-.52852-4.194812-1.68506.418771-3.06376.238741-3.06376-.400036 0-1.326937 12.30091-6.286528 13.28124-5.354866.35413.336526.78511 2.492312.95772 4.790684l.31415 4.178864-3.82967.488697c-2.10637.26879-4.4846 1.08831-5.28501 1.821181-2.74502 2.513441-4.38246 1.333898-1.8459-1.329712zm8.66278-5.344507c0-1.201012-.64868-2.183646-1.44148-2.183646-1.93169 0-3.31516 2.273298-2.09127 3.43637 1.72517 1.63946 3.53275.998493 3.53275-1.252724zM24.914355 64.144387c-2.316972-1.194533-4.21267-2.859472-4.21267-3.699866v-1.528005l5.240286 3.07775 5.240287 3.077761L32.201375 63.505c1.26873-1.950849-1.625164-5.404517-5.510509-6.576396-1.60898-.485296-2.925422-1.49331-2.925422-2.240029 0-2.307103 2.206219-1.52275 7.441657 2.645691l5.028106 4.003366-1.037192 2.547586c-1.25487 3.082243-4.642247 3.167619-10.28366.259159zm138.594605-2.673996l-1.68129-3.506652 5.96129-3.748968 5.96127-3.748969 2.33232 3.164435c2.82029 3.826415 1.47199 5.897998-1.40508 2.158868l-2.0255-2.63243-.91795 1.411512c-.5049.776334-.47115 2.518135.075 3.870681l.993 2.459171-3.2162-1.908747c-3.6423-2.161629-6.4021-.692425-3.63638 1.935868 2.10967 2.004852 2.37577 4.051884.52674 4.051884-.70732 0-2.04258-1.577987-2.96727-3.506653zM32.597927 53.412929l-5.002784-4.285278 3.540051-3.357499 3.54005-3.357498 2.606426 3.009556c1.433536 1.655242 3.976591 3.764382 5.651234 4.686969l3.044807 1.677424-5.216037.04416-5.216031.04416 2.772663 2.911529 2.772667 2.911529H39.34584c-.959827 0-3.996384-1.928372-6.747913-4.285277zm3.135332-5.814098l.670201-1.910694-2.010594.636894c-1.105826.350284-2.31218 1.496708-2.68079 2.547587l-.670201 1.910708 2.010593-.636907c1.105829-.350286 2.312185-1.496708 2.680791-2.547588zm122.837681 7.459757c0-1.43847 9.72582-9.00651 11.57444-9.00651 1.64842 0-2.42445 4.196975-7.22573 7.445921-2.39179 1.618485-4.34871 2.320748-4.34871 1.560589zm-2.30901-5.73104c.73129-4.93901-.41468-5.927869-3.48661-3.008588-.99701.947468-2.29411 1.265196-2.88246.706079-.58836-.559116 1.25072-3.291735 4.08683-6.072477l5.15659-5.055886 2.78109 2.391791c3.57008 3.070342 3.55814 6.387315-.026 7.27806-1.54401.383706-3.59984 2.451444-4.56851 4.594962l-1.76122 3.897307.70052-4.731248zm6.07329-6.086414c1.13289-1.74198-1.74885-3.467974-3.78928-2.26957-1.71318 1.006206-.58851 3.624737 1.55688 3.624737.74307 0 1.74765-.609823 2.2324-1.355167zM42.207683 44.321808c-3.392985-3.460985-3.591724-4.150736-2.1936-7.613161l.929835-2.302711 4.048776.09227 4.048784.09227-3.446739 1.316577c-3.965747 1.514846-4.467731 4.61595-1.168419 7.218088 2.536237 2.000295 6.912974 1.018679 6.912974-1.550444v-1.657214l-2.297816.837949c-2.591199.944935-3.162443-1.302564-.698841-2.749509 1.675516-.984074 6.060412 1.731414 6.060412 3.753105 0 1.907271-4.639669 5.748795-6.943205 5.748795-1.170794 0-3.534269-1.433722-5.252161-3.186035zm101.329607-2.028767l-3.35971-2.236301 1.49369-2.46146c.82152-1.353806 2.75789-3.979859 4.30301-5.83567l2.80934-3.374206 3.74474 2.961834c2.05962 1.629009 2.92375 2.983632 1.92031 3.010269-1.00344.0266-2.2876-.663748-2.85369-1.534179l-1.02927-1.582613-1.65959 1.577155-1.65962 1.577158 2.98142 2.142805c3.25343 2.338323 1.3138 3.029869-2.33972.834194l-2.25737-1.356631-1.079 1.659073-1.07896 1.659072 2.56801 1.784464c3.81707 2.652437 1.41187 3.781273-2.50359 1.175036zM53.927937 35.49776c-3.740096-6.010416-4.148043-9.97351-.548545-5.32906.984284 1.270025 2.650102 2.033646 3.701819 1.696941l1.912224-.612196-.861177-3.882881-.861162-3.882878 3.919708 5.823068c4.109861 6.10555 5.390836 10.682477 1.690797 6.041238-1.180944-1.481359-2.88492-2.26008-3.78661-1.730498l-1.639422.96288.937636 3.550192c1.381248 5.229935-.12268 4.34184-4.465268-2.636806zm73.747933-1.141665l-2.55524-1.417072 2.40465-5.817497c2.37639-5.749076 3.98043-6.6579 8.70808-4.933858 3.84397 1.401776 2.81222 3.150604-1.40658 2.384201-4.46619-.811346-4.96008.679359-1.14892 3.467708l2.68081 1.961328-3.66085-.345064-3.66084-.345064-.6795 1.819706-.67948 1.81971h2.33508c1.28428 0 2.76111.655098 3.28181 1.455769 1.19941 1.844231-2.25894 1.813558-5.61902-.0499zm-55.380975-2.49775c-.369348-.600506-.582362-3.712207-.473384-6.914893l.198187-5.823069h4.595634l.04339 3.263629c.02398 1.794999.589407 3.105191 1.256655 2.911539.66726-.193656 1.934254.872326 2.815532 2.368854l1.602338 2.720949-2.093053 1.260114c-2.589421 1.55895-7.044055 1.678297-7.945369.212877zm5.086363-1.733795c0-.753418-.689345-1.774721-1.531877-2.269566l-1.531879-.899711v2.269565c0 1.248259.689347 2.269567 1.531879 2.269567s1.531877-.616436 1.531877-1.369855zm42.740312-1.177742l-1.60842-4.003356-1.96928 2.547591c-3.12761 4.046066-3.61922 3.024711-1.92688-4.003357.86761-3.603026 2.19712-6.550953 2.95447-6.550953h1.37704l-1.07276 3.275476-1.07275 3.275477 3.00499-2.547596c1.65275-1.401173 3.98473-2.526755 5.18219-2.50129l2.1772.04604-2.86602 2.062612-2.86603 2.062617 1.0206 5.16992c1.21362 6.147869-.0744 6.791574-2.33435 1.166568zm-30.267887-6.550947l.217373-7.642778.93151 5.823067.931528 5.823067 3.469455.468043c4.492991.606098 2.852591 3.171399-2.027975 3.171399H89.63631zm17.767917 5.185577l-2.51271-2.387879-2.37472 1.872904-2.3747 1.872909v-1.584626c0-2.352951 4.99496-11.87378 6.22939-11.87378 1.14999 0 4.98838 13.117129 4.08859 13.972203-.29872.283884-1.67385-.558399-3.05585-1.871731zm-.58066-5.549523c-.48496-1.201007-1.15267-2.183645-1.48379-2.183645-.33114 0-.60203.982638-.60203 2.183645 0 1.201013.66769 2.183653 1.48379 2.183653.8161 0 1.08701-.98264.60203-2.183653z"/>
</svg>
