<svg xmlns="http://www.w3.org/2000/svg" width="192" height="183.96007" viewBox="0 0 192 183.96007">
    <path class="color-main color-red" fill="#9d0b0e" d="M48.212467 183.95485C34.912772 142.57085-.338707 31.677966.002459 30.788893c17.548063-.408267 19.158196.288354 28.919964-.072891C28.279706 25.515377 24.350031 14.68497 20.910598 0 45.666091.010886 162.84744.047946 171.496257.114917c-2.509545 10.228307-4.52988 19.16563-7.604037 29.603288 12.198573.596645 16.097223.227487 28.107779.428985-30.179379 96.63278-36.238166 116.38229-48.375149 153.803342-41.364438-.14157-53.957839.040853-95.412383.004669zm92.063826-3.785062c21.685453-66.527895 27.299495-83.21449 46.815332-146.78377-10.280005-.029575-16.85902-.039403-28.874734-.063802 3.116014-11.933171 5.125572-16.97595 8.368744-30.354888-36.979762-.287937-114.218847.100083-140.893456.290422 3.072888 13.155884 3.909616 15.943649 8.46036 31.221109-11.982604.140397-16.155449-.191497-29.038213.041584 14.467281 47.849373 32.495994 102.40892 46.65425 145.790549 39.471293.15854 47.246104-.228007 88.507717-.141204zm-83.78373-4.80575c-16.03678-47.3566-21.194682-65.385193-39.42626-122.624641-2.21271-6.943684-3.846545-12.910564-3.630747-13.259733 10.803269.02196 16.443632-.168412 28.083913-.045273-3.303544-11.685974-4.648484-15.269792-8.912775-31.291847 49.277834-.718247 75.254189-.428782 125.2315.010256-2.801904 12.385173-3.232869 14.936832-7.392464 29.51774 13.222086.642055 16.860218.399371 28.653202.825343-17.189898 57.383477-18.183086 59.757514-43.777492 136.868154-38.39236.243181-44.471628.103464-78.828877 0zm25.98095-38.285146c-4.560765-4.639405-6.921158-7.034452-11.08979-11.396071-.261642 15.769386.24981 17.670649.10592 34.013527 4.024858.5227 7.064552.118271 10.88253-.066922-.170578-7.518432-.026379-15.033316.10134-22.550534zm32.114272-28.745545c8.4065 12.173781 9.7428 14.539328 18.45116 27.25149 4.90046-.128574 7.02197.212265 12.23356-.153241-8.87354-15.121613-11.241266-19.067815-18.731646-32.634071 1.397182-1.001662 1.630091-1.63855 3.651002-2.36526 5.642071-2.028855 13.511458-7.71655 17.410325-12.583517 7.226493-9.020844 6.475123-20.664307-1.641156-25.432184-2.428477-1.426597-4.02022-2.194122-22.595037-1.765763l-20.262413.467278c-.091729 13.089298.001556 14.137603-.0449 25.524437.760887.470254 8.699327-5.055553 11.335244-7.920893-.229159-2.483406-.504267-3.834366-.13059-6.6341h25.330363l.967198 2.018001c2.077996 4.335583-1.412162 8.955277-10.2903 13.620602-2.83272 1.48856-7.72886 5.496424-11.563375 8.052526-8.200873 5.4145-10.014841 4.804964-15.486575 7.413708-.075636 17.694756-1.038632 20.17049-.49222 32.192492 4.577813.174097 6.675053.411651 11.486477.199986.056494-11.675125-.635106-14.525431.372875-27.251491zm-57.822197-1.600343c11.954827 12.765124 14.820337 16.475437 27.509272 28.802 5.31078.030738 6.656456.040854 12.664345-.11126-9.306364-11.312295-17.32771-20.35074-27.919446-31.910933-.283325-3.741213.114197-6.475605-.040861-12.187936-.253001 0-2.450999 1.11714-4.372127 1.799464-2.119675.75284-4.288442 1.040944-5.51622.732795l-2.02323-.5078V72.461038l12.139192-.086017c13.909575-.098576 14.859273-.042954 15.868172.92882.456714.439929.661664 6.695254.534373 16.309923-.137546 10.389016.05774 15.759574.584845 16.085363 1.110798.68651 13.560334-3.579653 20.215451-6.927346 3.060462-1.539491 8.080337-4.475456 11.15528-6.524365 6.727478-4.482685 19.018224-16.17721 18.535006-17.635873-4.282209-.155218-7.243495-.020466-12.313818-.20267l-7.400051 5.132715c-4.418659 3.064804-9.417026 7.368754-11.882215 8.564792-5.152877 2.50002-16.047756 6.280779-16.576231 5.752311-.19601-.196009.958148-1.67092 2.564809-3.277581 4.47018-4.47018 6.54115-9.30284 6.54115-15.263938 0-5.739029-1.128058-9.047472-6.29593-12.704412-17.347397-.808494-25.249002-.503437-44.98541-.457756-.328885 23.114975-.15502 59.827963-.108452 72.5889 4.170825.216249 7.298295.264829 11.141598.093908.102288-11.917808.462391-16.842897-.0195-28.104807zm25.32715-31.469214c-4.498582-.006225-6.959123.042954-10.509145.102358-.098056 9.312994-.177637 17.296949-.229795 27.217556 5.676252 5.928338 6.11422 6.851928 10.501013 11.055116.355468-15.60399.381793-25.062631.237928-38.37503zm.431643-31.083229c15.033448-.747692 23.60371.316454 30.569996 1.423153 6.56058 1.042247 10.895088 3.798871 13.452108 8.555156l.610858 3.735136h11.381598l-.17622-2.546483c.601154-6.301307-5.542133-14.823356-13.140871-18.22919-2.35603-1.055997-6.468742-2.273566-9.139365-2.70571-5.129299-.829991-14.351334-.773885-44.338587-.343565-.176247 9.667507.425781 16.058184.15469 24.81819 4.720465.3007 6.839796.218582 10.847107.218582-.010505-4.695793-.274143-10.229756-.221314-14.925269z"/>
</svg>
