<?xml version="1.0" encoding="UTF-8" standalone="no"?>
<svg
   xmlns="http://www.w3.org/2000/svg"
   viewBox="0 0 192 183.96007"
   height="183.96007"
   width="192"
   id="svg96"
   version="1.1">
  <g
     transform="matrix(0.77815336,0,0,0.77815336,-1.3312075,-6.4779445)"
     id="g142">
    <path
       style="fill:#9d0b0e;fill-opacity:1;stroke-width:0.95999998"
       d="M 63.668265,244.72399 C 46.576911,191.54167 1.2754564,49.03392 1.7138864,47.891378 24.264792,47.366717 26.333964,48.26194 38.878751,47.797706 38.052799,41.114417 33.002799,27.196328 28.582805,8.3247658 c 31.813129,0.013989 182.402145,0.061615 193.516685,0.1476786 -3.225,13.1443336 -5.82132,24.6296326 -9.7719,38.0429996 15.67631,0.766745 20.68644,0.292343 36.12113,0.551286 -38.78333,124.18218 -46.56944,149.56215 -62.1666,197.65171 -53.15718,-0.18193 -69.34088,0.0525 -122.613855,0.006 z M 181.97891,239.85983 C 209.84675,154.36525 217.06132,132.92141 242.141,51.228928 228.93023,51.190921 220.47558,51.178291 205.03426,51.146937 209.03863,35.811693 211.6211,29.331249 215.78888,12.138061 168.26642,11.768034 69.006957,12.266677 34.727585,12.51128 38.676533,29.417824 39.751807,33.000363 45.599939,52.633331 30.201171,52.813755 24.838674,52.38724 8.2831142,52.686771 26.874927,114.1777 50.043513,184.29183 68.238199,240.04129 c 50.724311,0.20374 60.715671,-0.29301 113.740711,-0.18146 z M 74.308965,233.68399 C 53.7002,172.82632 47.071812,149.65789 23.642525,76.099834 c -2.84354,-8.923285 -4.94317,-16.591285 -4.66585,-17.04 13.883213,0.02822 21.131608,-0.216425 36.090461,-0.05818 C 50.821772,43.984083 49.093398,39.37854 43.613384,18.788698 c 63.326636,-0.923015 96.708686,-0.551025 160.934216,0.01318 -3.60071,15.916108 -4.15454,19.195229 -9.50001,37.933063 16.99162,0.8251 21.66696,0.513229 36.82205,1.060642 -22.09063,73.743147 -23.36697,76.794007 -56.25818,175.888407 -49.33778,0.31251 -57.15021,0.13296 -101.302495,0 z m 33.387955,-49.2 c -5.86101,-5.96207 -8.894336,-9.03993 -14.251419,-14.64502 -0.336234,20.26514 0.321029,22.70844 0.136118,43.71057 5.172319,0.67172 9.078611,0.15199 13.985071,-0.086 -0.21921,-9.66189 -0.0339,-19.31922 0.13023,-28.97955 z m 41.26985,-36.94072 c 10.80314,15.64445 12.52041,18.6844 23.71147,35.02072 6.29755,-0.16523 9.02389,0.27278 15.72127,-0.19693 -11.40333,-19.43269 -14.44608,-24.50393 -24.07192,-41.93784 1.79551,-1.28723 2.09482,-2.10569 4.69188,-3.03958 7.25059,-2.60727 17.36349,-9.91649 22.3739,-16.171 9.28672,-11.59263 8.32114,-26.55557 -2.10904,-32.68274 -3.12082,-1.83331 -5.16636,-2.819652 -29.03674,-2.26917 l -26.0391,0.600496 c -0.11788,16.820974 0.002,18.168144 -0.0577,32.801294 0.97781,0.60432 11.17945,-6.49686 14.56685,-10.17909 -0.29449,-3.19141 -0.64803,-4.92752 -0.16782,-8.52544 h 16.72483 15.82706 l 1.24294,2.59332 c 2.67042,5.57163 -1.81476,11.50837 -13.224,17.50375 -3.64031,1.91294 -9.93231,7.06342 -14.86002,10.34825 -10.53889,6.95814 -12.87001,6.17483 -19.9017,9.52731 -0.0972,22.73942 -1.33474,25.92097 -0.63255,41.37037 5.88292,0.22373 8.57807,0.52901 14.7612,0.257 0.0726,-15.00363 -0.81617,-18.66654 0.47918,-35.02072 z m -74.306943,-2.05659 c 15.363074,16.40438 19.045523,21.17248 35.351993,37.01327 6.82485,0.0395 8.55417,0.0525 16.27487,-0.14298 -11.95955,-14.53736 -22.26773,-26.15261 -35.879105,-41.00854 -0.364099,-4.80781 0.146755,-8.32176 -0.05251,-15.66264 -0.32513,0 -3.149763,1.43563 -5.618593,2.31248 -2.72398,0.96747 -5.51105,1.33771 -7.08886,0.94171 l -2.60004,-0.65257 v -26.84342 l 15.6,-0.11054 c 17.875108,-0.12668 19.095558,-0.0552 20.392088,1.19362 0.58692,0.56535 0.8503,8.60403 0.68672,20.95978 -0.17676,13.35086 0.0742,20.25253 0.75158,20.6712 1.42748,0.88223 17.4263,-4.60019 25.97875,-8.90229 3.93298,-1.97839 10.38399,-5.75138 14.33558,-8.38442 8.64544,-5.76067 24.4402,-20.78923 23.81922,-22.66375 -5.50304,-0.19947 -9.30857,-0.0263 -15.82441,-0.26045 l -9.50976,6.59602 c -5.67839,3.93856 -12.10176,9.46954 -15.26976,11.00656 -6.62193,3.21276 -20.62287,8.07139 -21.30201,7.39226 -0.25189,-0.25189 1.23131,-2.14729 3.29602,-4.212 5.7446,-5.7446 8.40599,-11.95502 8.40599,-19.61559 0,-7.37519 -1.44966,-11.62685 -8.09086,-16.32636 -22.293031,-1.038991 -32.447334,-0.646964 -57.810468,-0.58826 -0.422647,29.70491 -0.199214,76.88454 -0.13937,93.28354 5.3599,0.2779 9.378993,0.34033 14.317997,0.12068 0.13145,-15.3155 0.594216,-21.6447 -0.02506,-36.11731 z m 32.547763,-40.44089 c -5.7811,-0.008 -8.943126,0.0552 -13.505238,0.13154 -0.12601,11.96807 -0.22828,22.2282 -0.295307,34.97711 7.294515,7.61847 7.857345,8.80537 13.494785,14.20686 0.45681,-20.05259 0.49064,-32.20783 0.30576,-49.31551 z m 0.5547,-39.944862 c 19.31939,-0.960855 30.33298,0.406672 39.28531,1.828885 8.43096,1.339385 14.00121,4.881905 17.28722,10.994177 l 0.78501,4.8 h 14.62642 l -0.22646,-3.27247 c 0.77254,-8.09777 -7.12216,-19.049402 -16.88725,-23.426218 -3.02772,-1.357055 -8.31294,-2.921745 -11.74494,-3.47709 -6.59163,-1.066617 -18.44281,-0.994515 -56.979241,-0.441513 -0.226494,12.423652 0.547169,20.636271 0.198791,31.893699 6.06624,0.386428 8.78978,0.280899 13.93955,0.280899 -0.0135,-6.034534 -0.3523,-13.146195 -0.28441,-19.180369 z"
       id="path106" />
  </g>
</svg>
