<svg xmlns="http://www.w3.org/2000/svg" viewBox="0 0 612 612">
    <path fill="#0b0907" d="M82 154.7h35.5c8.7 0 17.5-.3 26.2.1 4.8.2 4.8-1.4 3-5-9.4-19.5-18.7-39-28.1-58.5-1-2-1.8-4.1-2.9-6.6h385.2c-2.3 5.1-4.4 10.1-6.7 15-7.9 16.8-15.7 33.7-23.8 50.5-1.9 3.9-1.2 4.7 3 4.6 18.1-.2 36.1.1 54.2-.1 4.5-.1 5.4.8 4.1 5.3-8.3 29.8-16.1 59.7-24.3 89.5-22.8 82.9-45.7 165.7-68.6 248.6-2.2 7.9-4.3 15.7-6.3 23.6-.9 3.6-2.4 5.3-6.6 5.3-76-.1-152-.1-228.1 0-4 0-5.5-1.5-6.6-5.1-31-104-62.1-207.9-93.2-311.9-5.1-17.1-11-33.9-15.3-51.2-.2-1.3-.4-2.4-.7-4.1zm81 8.2c-1.4.1-2.3.3-3.2.3-20.3 0-40.7.1-61-.1-4.2 0-6.5.3-4.4 5.5 1.9 4.5 3.1 9.4 4.6 14.1 21.7 72.5 43.5 145 65.1 217.5 11.4 38.2 22.7 76.4 33.9 114.6 1.1 3.6 3.2 3.6 6 3.6 71.6 0 143.3-.1 214.9 0 3.7 0 5.2-1 6.2-4.7 12.1-43.9 24.6-87.6 36.8-131.5 19.7-71.3 39.2-142.7 58.9-214 1.1-4.2.4-5.1-3.9-5.1-18.6.2-37.2.1-55.9.1h-6.5c1.3-2.9 2.2-4.7 3.1-6.6 9.1-19.2 18.3-38.4 27.3-57.6 2.7-5.8 2.6-5.9-3.9-5.9-115.2 0-230.3 0-345.5.1-1.8 0-3.7-.7-5.8 1.1 11 22.7 22.1 45.5 33.3 68.6z"/>
    <path class="color-yellow color-reserved-white" fill="#ebbf52" d="M163 162.9c-11.2-23.1-22.3-45.9-33.3-68.7 2.1-1.8 4.1-1.1 5.8-1.1 115.2 0 230.3 0 345.5-.1 6.5 0 6.6.1 3.9 5.9-9 19.2-18.2 38.4-27.3 57.6-.9 1.9-1.7 3.7-3.1 6.6h6.5c18.6 0 37.2.1 55.9-.1 4.3 0 5 .9 3.9 5.1-19.7 71.3-39.2 142.7-58.9 214-12.1 43.9-24.6 87.6-36.8 131.5-1 3.7-2.5 4.7-6.2 4.7-71.6-.1-143.3-.1-214.9 0-2.8 0-4.9 0-6-3.6-11.2-38.2-22.5-76.4-33.9-114.6L99 182.6c-1.4-4.7-2.6-9.6-4.6-14.1-2.2-5.1.1-5.5 4.4-5.5 20.3.1 40.7.1 61 .1.9.1 1.8-.1 3.2-.2zm-4.4-50.9c1.5 3.4 2.9 6.9 4.5 10.3 8.5 17.6 17.1 35.2 25.5 52.8 2.8 5.8 2.6 6-4.2 6-20.3 0-40.7.1-61 0-4.1 0-5.8.3-4.3 5.3 30.7 102.7 61.2 205.5 91.6 308.3 1.4 4.6 3.2 6.2 8.1 6.1 62.3-.2 124.6-.2 186.9 0 4.4 0 5.3-1.9 6.3-5.4 17.8-64.6 35.8-129.1 53.6-193.6 10.5-37.9 20.9-75.7 31.1-113.6 2-7.5 3.2-7-5.3-7-19.4-.1-38.8 0-58.1 0-6.4 0-6.5-.1-3.8-6.1 8.7-18.8 17.5-37.5 26.3-56.3 3.5-7.5 3.4-7.5-4.6-7.5H165.1c-2 0-4.1-.5-6.5.7z"/>
    <path class="color-main color-red" fill="#872823" d="M158.6 112c2.4-1.3 4.5-.7 6.6-.7h286.1c8 0 8 0 4.6 7.5-8.7 18.8-17.6 37.5-26.3 56.3-2.8 6-2.6 6.1 3.8 6.1h58.1c8.5 0 7.3-.5 5.3 7-10.2 37.9-20.6 75.8-31.1 113.6-17.8 64.5-35.8 129.1-53.6 193.6-1 3.5-1.9 5.4-6.3 5.4-62.3-.2-124.6-.2-186.9 0-4.9 0-6.7-1.6-8.1-6.1-30.4-102.8-60.9-205.6-91.6-308.3-1.5-4.9.2-5.3 4.3-5.3 20.3.1 40.7 0 61 0 6.8 0 7-.1 4.2-6-8.4-17.6-17-35.2-25.5-52.8-1.7-3.3-3.1-6.8-4.6-10.3zm152.9 291.5c-1.9-2.4-3.2-4-4.6-5.5-20.2-22.2-40.4-44.4-60.6-66.5-1.4-1.5-3.2-2.9-2.5-5.3 2.1-6.8.3-13.5.1-20.3-.1-4.1-1.9-3.2-4.1-2.5-5.5 1.9-11.1 3.7-16.5 5.9-3.6 1.4-4.7.6-4.6-3.2.1-16 .1-31.9 0-47.9 0-3.1.8-4.4 4.1-4.4 14.1.1 28.1-.4 42.2.3 4.5.2 9.9-.7 13.8 3.5 5.2 5.6 5.4 12.3 1.9 18.3-3.8 6.3-3.4 12.8-3.7 19.5-.1 3.4.7 6.8-.6 10.1-.5 1.3-.9 2.8 0 3.8 1.4 1.4 2.8 0 4.1-.7 22.7-11.9 31-34.5 21-58-3.8-8.9-10.5-16.6-21-17-26.9-1-53.9-1.6-80.9-1.3-3.8 0-4.6 1.2-4.6 4.9.2 49.6.1 99.2.2 148.7 0 5.8-2.5 13.4 1.1 17.1 3.9 4 11.5.7 17.5 1.4 4 .4 5.2-1 5.1-5.1-.2-19.9-.1-39.9 0-59.8 0-1.7-1.2-4.3 1.1-5.1 2-.7 3.1 1.8 4.3 3.2 18.9 20.8 37.7 41.7 56.4 62.7 2.4 2.7 5 4.1 8.3 4.2 7.1.2 14.3.1 22.5-1zm59.3-170.9v-.3c-11.8 0-23.6.2-35.3-.1-4.9-.1-6.6 1-6.5 6.2.4 13.7 0 27.4.2 41 0 2.5-1.4 6.1 1 7.3 2.4 1.1 4.9-1.8 6.6-3.6 7.2-7.3 17.7-12.7 15.6-25.8-.5-3.4 2.4-3.6 5.1-3.6 13.9 0 27.7-.1 41.6 0 10.9.1 17.6 10.2 13.6 20.4-2.3 5.9-6.5 10.2-11.4 13.9-9.4 7-19.8 12.2-30.8 15.7-13.3 4.2-25.7 10-36.8 18.6-3.4 2.6-4.8 5.2-4.7 9.5.2 18 0 36.1.1 54.1 0 5.7-2.5 13.1 1 16.5 4 3.9 11.6.7 17.5 1.3 3.9.4 4.8-1.3 4.7-4.9-.2-12.5-.1-25.1-.1-37.6v-24.5c0-1.1-.3-2.6 1.2-2.7.7-.1 1.8.7 2.3 1.3 1.2 1.5 2.2 3.1 3.2 4.7 9.4 15.4 19.8 30.3 27.9 46.3 7.2 14.2 16.6 21.1 32.5 17.7 1.8-.4 4.3.9 5.3-.8 1.2-1.9-1.1-3.4-2.1-4.8-14.3-22.2-28.5-44.4-43-66.5-2.6-3.9-1.6-5.1 2.1-6.9 12.7-6.1 24.5-13.7 36.2-21.5 20.5-13.5 21.4-40.3 11.7-56.7-5.5-9.3-13.3-14.8-24.7-14.5-11.2.5-22.6.3-34 .3zm-98.2 123.8c-1.2-7.6 4-9.1 9.1-11 27.6-10.3 53-24.6 75.5-43.7 12.8-10.8 22.8-23.8 29.1-39.5 1.4-3.4 1.3-5.3-3.2-5-4.9.3-9.9.3-14.8 0-3.6-.2-5.9 1-7.9 4.1-5.5 8.7-12.4 16.3-20.4 22.9-18.1 14.8-38.6 25.4-59.8 34.9-7.1 3.2-7.5 2.9-6.7-5.3 1.7-17.4.3-34.9.9-52.3.1-3.2-.9-4.4-4.2-4.3-5.5.2-11 .4-16.5 0-4.8-.4-5.6 1.6-5.6 5.9.1 21.1 0 42.2-.1 63.3 0 2.6 1 4.3 2.7 5.9 1.8 1.7 3.6 3.4 5.2 5.2 5.6 6.2 11.2 12.5 16.7 18.9zm25.1-180.2c-14.8 0-29.6.1-44.4-.1-4-.1-5.2 1.2-5.1 5.2.2 14.4.2 28.9 0 43.3 0 3.3.8 4.8 4.4 4.6 5.7-.3 11.4-.3 17.1 0 3.6.2 4.5-1.4 4.4-4.7-.2-6.8.1-13.7-.1-20.5-.1-3.3.6-4.7 4.4-4.7 18.2.3 36.5-.2 54.7.5 12.8.5 25.3 5.1 29.7 17.7 4.3 12.4 12.1 12.7 22 11.7.4 0 .8-.1 1.1 0 4.9.8 5.6-1.6 5.2-5.9-2.9-25-27-46.9-52.3-47.1h-41.1zM249.5 370c-.4.1-.9.3-1.3.4v86.9c0 2.6 1.3 3.1 3.6 3.1 5.9-.1 11.8-.2 17.6.1 3.7.2 4.4-1.5 4.3-4.7-.1-18.6-.1-37.2-.1-55.7 0-1.7.2-3.4-1.2-4.8-7.6-8.5-15.2-16.9-22.9-25.3z"/>
    <path class="color-yellow color-reserved-white" fill="#ebbf52" d="M311.5 403.5c-8.2 1.1-15.4 1.2-22.6.9-3.3-.1-5.9-1.5-8.3-4.2-18.7-21-37.5-41.8-56.4-62.7-1.2-1.3-2.3-3.8-4.3-3.2-2.2.8-1.1 3.3-1.1 5.1-.1 19.9-.2 39.9 0 59.8 0 4-1.2 5.5-5.1 5.1-6-.6-13.7 2.6-17.5-1.4-3.6-3.7-1.1-11.2-1.1-17.1-.1-49.6-.1-99.2-.2-148.7 0-3.7.8-4.9 4.6-4.9 27-.3 54 .3 80.9 1.3 10.5.4 17.3 8.1 21 17 10 23.5 1.7 46.1-21 58-1.2.6-2.7 2.1-4.1.7-.9-1-.5-2.5 0-3.8 1.3-3.3.5-6.8.6-10.1.3-6.7 0-13.2 3.7-19.5 3.6-6 3.3-12.6-1.9-18.3-3.8-4.2-9.3-3.2-13.8-3.5-14-.8-28.1-.2-42.2-.3-3.4 0-4.2 1.3-4.1 4.4.1 16 .1 31.9 0 47.9 0 3.8 1 4.7 4.6 3.2 5.4-2.2 11-4 16.5-5.9 2.2-.8 4-1.6 4.1 2.5.2 6.8 2 13.5-.1 20.3-.7 2.4 1.1 3.8 2.5 5.3 20.2 22.2 40.4 44.3 60.6 66.5 1.5 1.6 2.8 3.2 4.7 5.6zm59.3-170.9c11.4 0 22.8.2 34.2-.1 11.3-.2 19.2 5.2 24.7 14.5 9.7 16.4 8.8 43.2-11.7 56.7-11.8 7.8-23.6 15.3-36.2 21.5-3.7 1.8-4.7 3-2.1 6.9 14.5 22 28.8 44.3 43 66.5.9 1.5 3.3 3 2.1 4.8-1.1 1.7-3.5.4-5.3.8-15.9 3.4-25.3-3.5-32.5-17.7-8.1-16-18.5-31-27.9-46.3-1-1.6-2-3.2-3.2-4.7-.5-.7-1.6-1.4-2.3-1.3-1.5.2-1.2 1.7-1.2 2.7v24.5c0 12.5-.1 25.1.1 37.6 0 3.6-.9 5.3-4.7 4.9-6-.6-13.6 2.5-17.5-1.3-3.5-3.4-1-10.8-1-16.5-.1-18 .1-36.1-.1-54.1-.1-4.3 1.3-6.9 4.7-9.5 11.1-8.6 23.4-14.4 36.8-18.6 11.1-3.5 21.5-8.7 30.8-15.7 4.9-3.7 9.1-8 11.4-13.9 3.9-10.3-2.7-20.4-13.6-20.4-13.9-.1-27.7 0-41.6 0-2.7 0-5.6.2-5.1 3.6 2 13.1-8.4 18.5-15.6 25.8-1.8 1.8-4.2 4.7-6.6 3.6-2.5-1.2-1-4.8-1-7.3-.1-13.7.2-27.4-.2-41-.1-5.2 1.6-6.4 6.5-6.2 11.8.3 23.6.1 35.3.1-.2-.1-.2 0-.2.1z"/>
    <path class="color-yellow color-reserved-white" fill="#ebbf52" d="M272.6 356.4c-5.6-6.3-11.1-12.7-16.7-19-1.6-1.8-3.4-3.6-5.2-5.2-1.8-1.6-2.7-3.3-2.7-5.9.2-21.1.3-42.2.1-63.3 0-4.2.8-6.2 5.6-5.9 5.5.4 11 .3 16.5 0 3.3-.1 4.3 1.1 4.2 4.3-.6 17.4.8 34.9-.9 52.3-.8 8.2-.4 8.5 6.7 5.3 21.2-9.5 41.7-20.2 59.8-34.9 8-6.5 14.9-14.2 20.4-22.9 2-3.1 4.3-4.3 7.9-4.1 4.9.3 9.9.3 14.8 0 4.5-.3 4.6 1.6 3.2 5-6.3 15.7-16.3 28.7-29.1 39.5-22.5 19.1-47.9 33.4-75.5 43.7-5.1 1.9-10.3 3.4-9.1 11.1zm25.1-180.2c13.7 0 27.3-.1 41 0 25.3.1 49.4 22 52.3 47.1.5 4.2-.2 6.7-5.2 5.9-.4-.1-.8 0-1.1 0-9.9 1-17.6.8-22-11.7-4.4-12.5-16.9-17.2-29.7-17.7-18.2-.7-36.5-.2-54.7-.5-3.7-.1-4.4 1.4-4.4 4.7.2 6.8-.1 13.7.1 20.5.1 3.3-.8 4.8-4.4 4.7-5.7-.2-11.4-.3-17.1 0-3.6.2-4.5-1.3-4.4-4.6.1-14.4.2-28.9 0-43.3-.1-4 1.1-5.2 5.1-5.2 14.9.3 29.7.1 44.5.1zM249.5 370c7.6 8.4 15.3 16.8 22.9 25.2 1.3 1.5 1.2 3.1 1.2 4.8 0 18.6 0 37.2.1 55.7 0 3.2-.6 4.9-4.3 4.7-5.9-.3-11.8-.1-17.6-.1-2.2 0-3.6-.5-3.6-3.1v-86.9c.5 0 .9-.2 1.3-.3z"/>
</svg>
