<svg xmlns="http://www.w3.org/2000/svg" viewBox="0 0 612 612">
    <path class="color-blue" fill="#052781" d="M0 304.4V-1h612v305.3c-4.1.1-8.1.2-12.2.2-2.7 0-3.6.5-3.9 3.2-.8 6.9-1.4 13.9-2.1 20.9-.4 3.9-.1 7.9-1 11.7-1.6 7.1-.6 14.6-3.4 21.6-1.6 4-1.6 8.4-3.1 12.6-3.4 9.4-6.1 19.1-9.2 28.6-1.4 4.2-2.9 8.3-4.6 12.3-1.9 4.7-4.1 9.2-6.2 13.8-1.1 2.4-2.1 4.9-3.4 7.2-1.8 3.4-3.8 6.8-5.8 10.2-2.8 4.7-5.3 9.6-8.5 14.1-2.3 3.3-3.9 7.2-7.2 9.9-2.2 1.9-3.5 4.9-5.2 7.4-1.7 2.4-3.2 4.9-5.1 7.1-3.4 4.2-7 8.3-10.5 12.4-2.9 3.3-5.8 6.6-8.8 9.8-3.9 4.1-7.9 8.2-12.1 11.9-7.3 6.3-14.7 12.5-22.3 18.4-4.6 3.7-9.6 6.9-14.5 10.3-.8.6-1.8 1-2.7 1.6-2 1.1-4 2.3-5.9 3.4-4.2 2.5-8.3 5.1-12.6 7.6-2.3 1.3-4.7 2.4-7.1 3.7-4.8 2.5-9.4 5.2-14.3 7.3-6.9 2.9-14 5.3-21.1 7.9-5.5 1.9-10.9 3.9-16.5 5.5-6.4 1.8-12.9 3.3-19.4 4.8-1.7.4-3.6.7-5.3.6-1.5-.1-2.6-.1-3.7.9-.4.4-1.1.5-1.6.6-4 .6-7.9 1.3-11.9 1.8-7 .8-14 1.7-21 2.1-7.4.4-14.9.6-22.4.5-5.8 0-11.5-.9-17.3-.8-8.6.2-17-1.5-25.4-2.9-6.8-1.1-13.6-2.9-20.3-4.4-3.7-.9-7.4-1.7-11.1-2.8-3.5-1-6.9-2.3-10.4-3.5-5.3-1.8-10.6-3.5-15.8-5.6-5.1-2-10.1-4.3-15.1-6.7-4.5-2.1-8.9-4.4-13.4-6.6-.4-.2-.9-.3-1.2-.5-3.8-2.2-7.6-4.4-11.3-6.7-2.8-1.8-5.5-3.8-8.3-5.6-3.2-2-6.5-3.8-9.6-5.9-2.8-1.9-5.4-4.1-8.2-6.2-2.6-2-5.4-3.7-7.9-5.9-2.4-2-4.4-4.5-6.8-6.5-3-2.6-6.1-4.9-9.1-7.5-2.3-1.9-4.5-4-6.6-6-1.4-1.4-2.6-2.9-3.8-4.4-1-1.2-1.6-2.7-2.7-3.8-4.4-4.8-10.1-8.5-13-14.7-.1-.3-.6-.5-.8-.8-1.5-1.6-3.1-3.2-4.4-4.9-1.2-1.6-2-3.4-3.2-5-1.5-2-3.4-3.8-4.8-5.9-3.1-4.6-6-9.4-8.9-14.1-1.5-2.4-3-4.7-4.4-7.1-1.7-2.9-3.4-5.8-4.9-8.8-2.4-4.6-4.9-9.2-7.1-14-2.4-5.3-4.6-10.6-6.9-16-1.2-2.7-2.7-5.4-3.6-8.2-2.3-7.6-4.3-15.3-6.5-23-.7-2.6-1.7-5.1-2.2-7.8-1.2-5.4-2.2-10.7-3.1-16.1-1.3-7.7-2.8-15.5-3.6-23.3-.9-8.6-1-17.3-1.5-25.9-.2-2.9-1.6-4.1-4.5-4-3.7-.1-6.7 0-9.7.1zm37.5 104.5c2.7-.2 3.4 1.7 4.1 3.6 1.8 4.7 3.5 9.5 5.6 14.1 1.5 3.3 3.3 6.6 5.3 9.6 2.4 3.5 4.3 7.1 5.4 11.2.1.6.3 1.3.8 1.6 2 1.5 2.9 3.6 3.9 5.7 2 4.4 6.4 7.3 7.8 12 .1.2.3.3.5.5 2.7 3.6 5.5 7.1 8.2 10.7.4.5.6 1 1 1.5 1.2 1.6 2.4 3.2 3.7 4.7.6.7 1.4 1.3 2 2.1 2.4 3.2 4.5 6.7 7.3 9.5 5.7 5.9 11.7 11.4 17.6 17l8.4 8.1c1.1 1.1 2.1 2.6 3.5 3.1 3.4 1.3 5.7 3.6 8.1 6.1 1.3 1.4 2.8 2.7 4.4 3.8 3 2 6.1 3.6 9.1 5.6 2.8 1.9 5.2 4.3 8.1 6.1 2.7 1.8 5.7 3 8.6 4.6.5.2.8.6 1.3.9 1.5.9 3 1.9 4.6 2.7 1.5.9 3.2 1.5 4.7 2.4 1.5.8 2.8 2 4.3 2.7 2.5 1.2 5 2.2 7.6 3.2 4.8 1.8 8.8 5.3 14.1 6 .5.1 1 .7 1.5 1 .6.4 1.1.8 1.7 1 3.9 1.3 7.9 2.7 11.9 3.8 10.7 3 21.4 6.1 32.1 8.9 5.1 1.3 10.2 2.4 15.4 3 7.9 1 15.9 1.8 23.9 2.4 5.2.4 10.4.4 15.6.7 1 0 2.1.3 3.1.3 1.1 0 2.2 0 3.2-.2 1.7-.3 3.5-1.5 4.9-1.1 3.3.9 6.4 1 9.7.4 2.6-.5 5.4-.2 8.1-.5 4.1-.4 8.3-1 12.4-1.5 1.3-.1 2.6 0 3.8-.2 3.5-.4 7.1-.9 10.6-1.5 1.2-.2 2.3-.5 3.4-.9 1.2-.4 2.3-1 3.5-1.3 7.6-1.9 15.3-3.5 22.8-5.6 5.5-1.6 10.9-3.8 16.3-5.7 2.3-.8 4.7-1.6 7-2.5 4.1-1.5 7.4-4.6 12-5.1 2.1-.2 4-2.2 6-3.2 1.5-.8 3.3-1.2 4.8-2 6.9-3.9 13.7-7.8 20.4-11.9 5.6-3.3 11.1-6.8 16.5-10.4 4.8-3.2 9.5-6.5 14.1-10 2.1-1.6 3.9-3.7 5.9-5.5 4.1-3.6 8.2-7.1 12.2-10.7 1.7-1.6 3.3-3.3 5-4.9 3.6-3.5 7.4-6.8 10.8-10.6 2.2-2.4 3.8-5.5 5.8-8.1 1.2-1.5 2.9-2.6 4.1-4.1 2-2.6 3.8-5.3 5.7-8 1.4-2 2.5-4.3 4.1-6.2 2.4-3 4.9-5.8 7.4-8.7.3-.4.8-1 .7-1.4-.9-2.6 1.4-4.2 2.4-5.9 1.3-2.3 3.3-4.3 4.4-6.9 1-2.2 2.6-4.1 3.7-6.3 2.4-4.6 4.2-9.5 7.6-13.5 1.3-1.6 1.7-4 2.4-6.1.3-.9.6-1.9 1-2.7.9-2.2 2-4.3 2.9-6.5.5-1.2.5-2.6.9-3.8.9-2.4 1.9-4.8 2.9-7.1.3-.8.6-1.7 1.1-2.4 2.5-3.3 3.2-7.4 4.3-11.2.6-1.9.4-4 .8-6 .6-2.4 1.5-4.7 2.3-7.1.1-.2 0-.4 0-.7.2-1.8.2-3.6.6-5.4.5-2.1 1.4-4.1 1.8-6.3.5-2.7.7-5.5 1.1-8.2.5-3.1 1.4-6.2 1.9-9.4.8-5.5 1.5-11 1.8-16.5.3-4.9.1-9.8.1-14.6.1-7.1.3-14.2.2-21.4-.1-4.1-.5-8.2-1-12.3-.9-7.9-1.7-15.8-3-23.6-1.3-7.4-3.1-14.7-4.9-22-1.2-4.8-2.5-9.6-4-14.3-2-6-4.2-11.9-6.3-17.8-1.9-5-3.6-10.2-5.8-15.1-3.5-7.5-7.2-14.8-11.1-22.1-2.2-4.2-5-8.1-7.5-12.2-3.1-5-6-10.3-9.4-15.1-2.3-3.2-4.8-6.2-7.2-9.3-3.7-4.7-7.9-9.1-11.2-14.1-1.8-2.8-5-3.9-7.1-6.6-4.1-5.1-8.6-10.2-13.8-14.1-5.4-4.1-9.4-10-15.9-12.7-.5-.2-.8-.7-1.2-1.1-1.4-1.5-2.6-3.2-4.2-4.3-5.1-3.5-10.4-6.8-15.7-10.2-4.1-2.6-8.1-5.2-12.2-7.6-2.9-1.7-5.9-3.2-8.9-4.7-7.3-3.6-14.5-7.3-21.8-10.7-5-2.3-10.2-4.3-15.4-6.2-7.1-2.6-14.1-5.1-21.3-7.2-5.8-1.7-11.7-2.8-17.7-4-5-1.1-10-2.2-15-2.9-7.1-.9-14.2-1.4-21.3-2.1-3.5-.3-7.1-.6-10.6-.7-5.9-.1-11.8 0-17.8.1-5.3.1-10.7.1-16 .6-7.8.8-15.6 2.1-23.4 3.3-5 .8-10 1.8-15 3-6.5 1.6-13 3.6-19.5 5.5-5.3 1.6-10.7 3.1-15.9 5-9.3 3.4-18.5 7.1-27.3 11.8-2.5 1.4-5.3 2.3-7.8 3.7-3.7 2-7.2 4.3-10.8 6.4-3.2 1.9-7.1 2.7-9.5 6-.2.3-.8.5-1.2.7-2.4 1.4-5 2.6-7.3 4.3-3.7 2.7-7.3 5.6-10.9 8.5-2.8 2.2-5.5 4.5-8.2 6.8-1.8 1.5-3.6 3.1-5.5 4.6-1.7 1.4-3.8 2.4-5.3 3.9-4.2 4.1-8.3 8.4-12.4 12.7-3.1 3.2-6.3 6.4-9.2 9.8-1.9 2.1-3.2 4.7-5 6.8-1.6 1.9-4.3 3.2-5 5.3-1.3 3.5-3.8 5.6-6.1 8.2-1.7 1.9-2.9 4.2-4.4 6.3-.8 1.2-1.8 2.2-2.5 3.5-1.6 2.7-2.9 5.6-4.5 8.3-1.4 2.4-3 4.8-4.5 7.2-1.4 2.1-2.9 4.2-4 6.4-2.2 4.2-4.3 8.4-6.4 12.6-1.4 2.8-3.1 5.6-4.3 8.6-1.7 4.1-3.1 8.4-4.7 12.6-1.7 4.7-3.6 9.3-5.2 14-1.8 5.4-3.8 10.8-5.1 16.4-2.2 9.6-4.9 19.1-5.9 29-.5 5.1-1.8 10.2-2.2 15.3-.7 9-1.1 18-1.4 27-.1 4.2.3 8.4.4 12.7.1 2.5-.1 5.1 0 7.6.1 3.4.4 6.7.6 10.1.1 1.3.1 2.7.3 4 .8 5.6 1.7 11.2 2.5 16.8.7 4.5 1.1 9 2.5 13.4 1.4 4.3 2.1 8.9 3.1 13.4.5 2.3.7 4.5 1.2 6.8.1.5.4.9.7 1.4 1.1 2.1 2 4.2 3.2 6.3 1.4 2.4.9 5.3 2.5 7.9 1.1 2 1.7 4.8.1 7.6z"/>
    <path fill="#fdfdfe" d="M0 304.4c3-.1 6-.2 9-.2 3-.1 4.4 1.1 4.5 4 .5 8.6.6 17.3 1.5 25.9.8 7.8 2.3 15.5 3.6 23.3.9 5.4 2 10.8 3.1 16.1.6 2.6 1.5 5.2 2.2 7.8 2.2 7.7 4.2 15.4 6.5 23 .9 2.8 2.4 5.5 3.6 8.2 2.3 5.3 4.4 10.7 6.9 16 2.2 4.7 4.7 9.3 7.1 14 1.6 3 3.2 5.9 4.9 8.8 1.4 2.4 2.9 4.8 4.4 7.1 3 4.7 5.9 9.5 8.9 14.1 1.4 2.1 3.3 3.9 4.8 5.9 1.2 1.6 2 3.4 3.2 5 1.3 1.7 2.9 3.3 4.4 4.9.3.3.7.5.8.8 2.9 6.2 8.6 9.9 13 14.7 1 1.1 1.7 2.6 2.7 3.8 1.2 1.5 2.4 3.1 3.8 4.4 2.1 2.1 4.3 4.1 6.6 6 3 2.5 6.2 4.9 9.1 7.5 2.4 2.1 4.4 4.5 6.8 6.5 2.5 2.1 5.3 3.9 7.9 5.9 2.7 2 5.4 4.3 8.2 6.2 3.1 2.1 6.5 3.9 9.6 5.9 2.8 1.8 5.5 3.8 8.3 5.6 3.7 2.3 7.6 4.5 11.3 6.7.4.2.8.3 1.2.5 4.5 2.2 8.9 4.5 13.4 6.6 5 2.3 10 4.6 15.1 6.7 5.2 2.1 10.5 3.8 15.8 5.6 3.4 1.2 6.9 2.4 10.4 3.5 3.6 1.1 7.4 2 11.1 2.8 6.8 1.6 13.5 3.3 20.3 4.4 8.4 1.4 16.8 3 25.4 2.9 5.8-.1 11.5.8 17.3.8 7.5 0 14.9-.1 22.4-.5 7-.4 14-1.3 21-2.1 4-.5 8-1.1 11.9-1.8.6-.1 1.2-.2 1.6-.6 1.1-1 2.3-1 3.7-.9 1.7.2 3.6-.2 5.3-.6 6.5-1.5 13-3 19.4-4.8 5.6-1.6 11-3.5 16.5-5.5 7.1-2.5 14.2-5 21.1-7.9 4.9-2.1 9.6-4.9 14.3-7.3 2.4-1.2 4.8-2.3 7.1-3.7 4.2-2.5 8.4-5.1 12.6-7.6 2-1.2 3.9-2.3 5.9-3.4.9-.5 1.8-1 2.7-1.6 4.9-3.4 9.8-6.6 14.5-10.3 7.6-6 15-12.1 22.3-18.4 4.3-3.7 8.2-7.8 12.1-11.9 3.1-3.1 5.9-6.5 8.8-9.8 3.6-4.1 7.1-8.2 10.5-12.4 1.8-2.3 3.4-4.7 5.1-7.1 1.7-2.5 3-5.5 5.2-7.4 3.4-2.8 4.9-6.6 7.2-9.9 3.1-4.5 5.7-9.3 8.5-14.1 2-3.4 4-6.7 5.8-10.2 1.2-2.3 2.3-4.8 3.4-7.2 2.1-4.6 4.3-9.2 6.2-13.8 1.7-4 3.2-8.1 4.6-12.3 3.1-9.5 5.8-19.2 9.2-28.6 1.5-4.1 1.5-8.6 3.1-12.6 2.9-7 1.9-14.4 3.4-21.6.8-3.8.6-7.8 1-11.7.6-7 1.3-13.9 2.1-20.9.3-2.7 1.2-3.2 3.9-3.2 4.1 0 8.1-.1 12.2-.2v307.6H-.7C0 509.4 0 406.9 0 304.4z"/>
    <path fill="#fdfdfe" d="M37.5 408.9c1.6-2.8 1-5.6 0-7.3-1.6-2.5-1.1-5.4-2.5-7.9-1.1-2-2.1-4.2-3.2-6.3-.2-.5-.6-.9-.7-1.4-.4-2.3-.7-4.6-1.2-6.8-.9-4.5-1.6-9.1-3.1-13.4-1.5-4.4-1.8-8.9-2.5-13.4-.9-5.6-1.7-11.2-2.5-16.8-.2-1.3-.2-2.7-.3-4-.2-3.4-.5-6.7-.6-10.1-.1-2.5 0-5.1 0-7.6-.1-4.2-.5-8.5-.4-12.7.3-9 .7-18 1.4-27 .4-5.1 1.7-10.2 2.2-15.3 1-9.9 3.7-19.4 5.9-29 1.3-5.6 3.2-11 5.1-16.4 1.6-4.7 3.5-9.4 5.2-14 1.6-4.2 3-8.5 4.7-12.6 1.2-2.9 2.8-5.7 4.3-8.6 2.1-4.2 4.2-8.5 6.4-12.6 1.2-2.2 2.7-4.2 4-6.4 1.5-2.4 3.1-4.7 4.5-7.2 1.6-2.7 2.9-5.6 4.5-8.3.7-1.2 1.6-2.3 2.5-3.5 1.5-2.1 2.7-4.4 4.4-6.3 2.2-2.6 4.8-4.7 6.1-8.2.8-2.1 3.5-3.4 5-5.3 1.8-2.2 3.2-4.7 5-6.8 2.9-3.4 6.1-6.5 9.2-9.8 4.1-4.3 8.2-8.6 12.4-12.7 1.6-1.5 3.6-2.6 5.3-3.9 1.9-1.5 3.7-3 5.5-4.6 2.7-2.3 5.5-4.6 8.2-6.8 3.6-2.9 7.2-5.8 10.9-8.5 2.3-1.6 4.8-2.9 7.3-4.3.4-.2.9-.3 1.2-.7 2.3-3.3 6.3-4.1 9.5-6 3.6-2.2 7.1-4.4 10.8-6.4 2.5-1.4 5.3-2.4 7.8-3.7 8.7-4.7 18-8.3 27.3-11.8 5.2-1.9 10.6-3.4 15.9-5 6.5-1.9 12.9-3.8 19.5-5.5 4.9-1.2 9.9-2.2 15-3 7.8-1.3 15.6-2.5 23.4-3.3 5.3-.6 10.7-.5 16-.6 5.9-.1 11.8-.2 17.8-.1 3.5 0 7.1.4 10.6.7 7.1.6 14.2 1.1 21.3 2.1 5.1.7 10 1.8 15 2.9 5.9 1.2 11.9 2.3 17.7 4 7.2 2.1 14.3 4.6 21.3 7.2 5.2 1.9 10.4 3.9 15.4 6.2 7.4 3.4 14.6 7.1 21.8 10.7 3 1.5 6 3 8.9 4.7 4.1 2.4 8.2 5 12.2 7.6 5.3 3.3 10.6 6.6 15.7 10.2 1.6 1.1 2.8 2.9 4.2 4.3.4.4.7.9 1.2 1.1 6.5 2.7 10.5 8.6 15.9 12.7 5.2 4 9.7 9 13.8 14.1 2.1 2.6 5.3 3.8 7.1 6.6 3.3 5.1 7.5 9.4 11.2 14.1 2.4 3.1 4.9 6.1 7.2 9.3 3.4 4.8 6.3 10 9.4 15.1 2.5 4.1 5.2 8 7.5 12.2 3.9 7.3 7.6 14.6 11.1 22.1 2.3 4.9 4 10 5.8 15.1 2.2 5.9 4.4 11.8 6.3 17.8 1.5 4.7 2.9 9.5 4 14.3 1.8 7.3 3.6 14.6 4.9 22 1.3 7.8 2.1 15.7 3 23.6.5 4.1 1 8.2 1 12.3.1 7.1-.1 14.2-.2 21.4 0 4.9.2 9.8-.1 14.6-.4 5.5-1.1 11-1.8 16.5-.4 3.2-1.3 6.2-1.9 9.4-.5 2.7-.6 5.5-1.1 8.2-.4 2.1-1.4 4.1-1.8 6.3-.4 1.8-.4 3.6-.6 5.4v.7c-.8 2.4-1.7 4.7-2.3 7.1-.5 2-.3 4.1-.8 6-1.1 3.8-1.8 7.9-4.3 11.2-.5.7-.8 1.6-1.1 2.4-1 2.4-2 4.7-2.9 7.1-.4 1.2-.5 2.6-.9 3.8-.9 2.2-1.9 4.3-2.9 6.5-.4.9-.7 1.8-1 2.7-.8 2.1-1.1 4.5-2.4 6.1-3.5 4.1-5.3 8.9-7.6 13.5-1.1 2.2-2.7 4.1-3.7 6.3-1.1 2.6-3.1 4.6-4.4 6.9-.9 1.7-3.2 3.3-2.4 5.9.1.3-.4 1-.7 1.4-2.5 2.9-5 5.7-7.4 8.7-1.5 1.9-2.7 4.1-4.1 6.2-1.8 2.7-3.6 5.4-5.7 8-1.2 1.5-2.9 2.6-4.1 4.1-2 2.6-3.6 5.7-5.8 8.1-3.4 3.7-7.2 7-10.8 10.6-1.7 1.6-3.2 3.4-5 4.9-4 3.6-8.2 7.1-12.2 10.7-2 1.8-3.8 3.9-5.9 5.5-4.6 3.4-9.3 6.8-14.1 10-5.4 3.6-10.9 7-16.5 10.4-6.8 4.1-13.6 8-20.4 11.9-1.5.8-3.2 1.2-4.8 2-2 1-3.9 3-6 3.2-4.6.5-7.9 3.6-12 5.1-2.3.9-4.6 1.7-7 2.5-5.4 1.9-10.8 4.1-16.3 5.7-7.5 2.1-15.2 3.7-22.8 5.6-1.2.3-2.3.9-3.5 1.3-1.1.4-2.3.7-3.4.9-3.5.5-7.1 1-10.6 1.5-1.3.2-2.6 0-3.8.2-4.1.5-8.3 1.1-12.4 1.5-2.7.3-5.4 0-8.1.5-3.3.6-6.4.5-9.7-.4-1.4-.4-3.3.8-4.9 1.1-1 .2-2.1.3-3.2.2-1 0-2.1-.3-3.1-.3-5.2-.2-10.4-.2-15.6-.7-8-.6-16-1.4-23.9-2.4-5.2-.7-10.4-1.7-15.4-3-10.7-2.8-21.4-5.9-32.1-8.9-4-1.1-7.9-2.5-11.9-3.8-.6-.2-1.1-.7-1.7-1-.5-.3-.9-.9-1.5-1-5.3-.7-9.3-4.2-14.1-6-2.6-1-5.1-2-7.6-3.2-1.5-.7-2.8-1.9-4.3-2.7-1.5-.9-3.2-1.6-4.7-2.4-1.6-.9-3.1-1.8-4.6-2.7-.4-.3-.8-.7-1.3-.9-2.9-1.5-5.9-2.8-8.6-4.6-2.8-1.8-5.3-4.2-8.1-6.1-2.9-2-6.1-3.6-9.1-5.6-1.6-1.1-3.1-2.4-4.4-3.8-2.4-2.5-4.8-4.8-8.1-6.1-1.4-.5-2.3-2.1-3.5-3.1l-8.4-8.1c-5.9-5.7-11.9-11.2-17.6-17-2.8-2.9-4.9-6.4-7.3-9.5-.6-.8-1.4-1.3-2-2.1-1.3-1.5-2.5-3.1-3.7-4.7-.4-.5-.6-1.1-1-1.5-2.7-3.6-5.5-7.1-8.2-10.7-.1-.2-.4-.3-.5-.5-1.5-4.8-5.8-7.7-7.8-12-1-2.2-2-4.3-3.9-5.7-.4-.3-.6-1-.8-1.6-1-4.1-3-7.7-5.4-11.2-2.1-3-3.8-6.2-5.3-9.6-2.1-4.6-3.8-9.4-5.6-14.1-.8-2.2-1.5-4.1-4.2-3.9zM257.2 31.2c-1.4 2-3.1 4-4.4 6.2-1.2 2.1-1.8 4.6-3.8 6.4-1.7 1.6-2.8 3.9-4.2 5.9-.8 1.2-1.6 2.3-2.1 3.6-1.1 2.4-3.3 3.7-5.7 2.9-2.8-.9-5.6-1.5-8.3-3-4.4-2.4-9.3-4-14-5.9-.5-.2-1.2-.3-1.7-.2-2.2.3-3.8 1-4.5 3.8-.8 3.1-2.4 6-3.8 9-.8 1.7-1.7 3.3-2.6 4.9-1 1.9-1.8 3.9-2.8 5.8-.1.3-.6.7-.9.6-2.2-.1-4.5 0-6.6-.5-2.9-.7-5.6-2.1-8.5-2.9-4.3-1.2-8.7-2.2-13-3.3-2.1-.5-4.5 1.4-4.7 3.7-.1.9-.2 1.8-.4 2.6-.7 2.4-2.1 4.7-2.2 7-.1 2.8.4 5.6-2.1 7.7.7 2.7-1.3 4.6-2 6.9-.5 1.6-1.5 2.5-3 2.5-1.7 0-3.4-.3-5.1-.4-6.4-.5-12.7-1-19.1-1.6-1.8-.2-3.1.5-3.5 2.2-.5 2.5-.9 5.1-1 7.7-.2 3.4.1 6.7-.1 10.1-.1 2.6-.8 5.2-1 7.8-.2 3.7-.1 3.7-3.9 3.7-.3 0-.6.1-.9.1-3.8.4-7.6.8-11.4 1.1-4.4.4-8.8.6-13.2 1-2.9.3-3.7 1.1-3.6 3.8.2 5 .8 10 1.2 15l.9 12.6c.1 1.9-1.3 3.4-2.5 3.1-2.4-.5-4.4.6-6.5 1-4.9.8-9.9 1.9-14.7 3.1-2.4.6-3.8 2.5-3.4 4.4.8 3.4 1.6 6.8 2.5 10.2 1.1 4.3 2.5 8.5 3.6 12.8.4 1.7 1 3.9-1 4.9-1.9 1-3.5 2.4-5.8 3.1-5.5 1.6-10.8 4.2-16.2 6.4-.6.3-1.3.4-1.9.8-1.2.8-2.1 1.7-1.2 3.3 1.2 2.4 2.4 4.8 3.5 7.3 1.5 3.4 3.1 6.7 4.5 10.1.9 2 1.8 4.1 2.5 6.2.8 2.5-.2 4.3-2.3 5.7-2.1 1.4-3.9 3-6 4.4-3.4 2.3-6.8 4.6-10.3 6.7-1.8 1.1-4 5.1-3.1 7 1.3 2.5 2.9 4.9 4.5 7.3.9 1.4 2 2.8 2.9 4.2 1.7 2.6 3.1 5.4 5 7.8 2.4 3.1 2.4 4.4-.5 7.2-2.7 2.6-5.9 4.8-7.7 8.5-.7 1.5-2.7 2.4-4.3 3.3-2.4 1.4-4.9 2.9-4.4 5.9.5 2.5 1.6 5.2 3.2 7.2 3.1 3.9 7.4 6.8 9.4 11.6.3.7.8 1.3 1.3 1.8 1.7 1.7 2.1 3.9.5 5.5-2.3 2.2-2.9 5.3-5.2 7.7-2.8 3-4.5 7.1-6.6 10.7-1 1.8-.6 3.6 1.1 5 1.9 1.5 3.6 3 5.6 4.4 3.1 2.1 6.3 3.9 9.3 6.1 2.9 2 6.5 3.9 6.1 8-.2 2.9-.5 6.2-3.1 8.4-.4.4-.8 1.2-.8 1.8 0 4.4-2.7 7.9-4.6 11.5-1.4 2.7-.9 4.9 1.9 6 2.2.8 4.2 2 6.4 3.1 3.3 1.6 6.4 3.4 9.8 4.8 4 1.6 5.3 3 5.1 6.6-.1 1-.8 1.9-1 2.9-.7 3.1-1.1 6.2-2 9.2-1 3.6-2.4 7.1-3.5 10.7-1 3.1.2 5.4 3.3 6.3 3.5 1.1 7 2.1 10.5 3.2 3.8 1.2 7.6 2.4 11.4 3.7 3.4 1.1 4 1.8 3.9 5.3-.1 3.9-.5 7.8-.8 11.7-.3 3.5-.7 7-1 10.5-.2 2.4 1.4 4.4 3.9 4.6 3.4.3 6.9.5 10.3.8 4 .4 8.1.8 12.1 1.4 1.8.3 3.6.9 4.1 3 .5 2.2 1 4.4 1.1 6.7.2 4.1.2 8.1.3 12.2.1 2.6.2 5.3.8 7.8.3 1.1 1.8 2.5 2.8 2.5 3.3.1 6.7-.4 10.1-.6 5.8-.4 11.6-.8 17.4-1 .7 0 2 .7 2.2 1.3 1.2 4.9 2.3 9.9 3.3 14.9.6 3.1 1.3 6.2 1.8 9.3.3 2 1.4 2.4 3.2 2 2.3-.5 4.6-1.2 6.9-1.7 1.2-.3 2.3-.4 3.5-.7 4.9-1.2 9.8-2.4 14.8-3.6 2.1-.5 3 .7 3.7 2.4.7 1.6 1.5 3.2 2.3 4.8.5 1 1.3 1.9 1.6 2.9 1.7 4.5 3.3 9.1 5 13.6 1 2.8 3.3 3.7 6 2.4 4.3-2 8.7-4 13-6 2.5-1.2 5-2.3 7.6-3.4 3.1-1.4 3.7-1.1 5 2 .1.3.4.6.6.9 1.9 2.4 3.8 4.8 5.6 7.3 1.3 1.8 2.3 3.7 3.4 5.6.9 1.4 1.7 2.8 2.7 4.1.8 1.1 1.5 2.3 2.4 3.3.9 1.1 2.1 1.3 3.4.4.9-.7 1.9-1.3 2.8-1.9 3-1.9 6-3.6 8.9-5.6 3-2 5.9-4.2 8.8-6.3 1-.7 2.2-1.3 3.4-1.7.6-.2 1.5 0 1.9.3 2.5 2 5 4.1 7.3 6.3 1.4 1.3 2.5 2.7 3.7 4.1 2.8 3.3 5.6 6.6 8.4 9.8 1.3 1.5 2.5 1.2 3.8-.2 2.4-2.6 4.5-5.8 7.4-7.5 3.8-2.2 6.5-5.5 9.7-8.3 2.2-1.9 4.5-3 7.3-1.2 1.8 1.2 3.7 2.2 5.5 3.3 4.7 3 9.5 5.9 14.2 9.1 1.8 1.2 3 .8 4-.7 2.6-3.9 5.1-7.8 7.7-11.7.3-.4.7-.8 1-1.2 2.3-3 4.9-5.8 6.9-9 1.1-1.7 2.4-1.7 3.6-1.2 3.1 1.1 6 2.5 9 3.8 4.7 2 9.4 4.1 14.1 6.1 1.3.5 2.6 1.1 3.5-.6 1.4-2.6 2.9-5 4.2-7.6 2.3-4.5 4.4-9.1 6.6-13.7 1-2 2.6-2.6 4.6-1.9 3 1 6 1.9 9 2.7 5.3 1.4 10.8 2.6 16.1 4.1 1.9.5 2.7-.1 3.2-1.7.8-2.4 1.6-4.9 2.3-7.4l4.8-17.1c1.1-4 1.4-4.3 5.5-4.5 1.2 0 2.4.2 3.6.3 6.9.6 13.7 1.1 20.6 1.7 2 .2 2.7-.7 2.8-2.5.1-2.9.2-5.8.5-8.7.4-5.3.8-10.6 1.4-15.9.2-1.6.2-3.8 2.4-4.2 2.3-.4 4.8-.3 7.2-.5 6.4-.4 12.9-.7 19.3-1.2 4.2-.3 4.7-1.1 4.2-5.3-.1-.5-.4-1-.4-1.5-.2-1.4-.3-2.9-.5-4.3-.2-2.1-.4-4.1-.6-6.2-.1-.6-.5-1.1-.5-1.7-.2-3.9-.5-7.8-.6-11.6 0-.8.4-2 1-2.2 2.5-1.1 5.2-2 7.8-2.6 5.3-1.2 10.7-2.2 16-3.3 2-.4 2.5-1.8 2.3-3.7-.1-1.5 0-3-.1-4.5 0-.4 0-.9-.1-1.3-1.1-3.3-2.4-6.6-3.5-10-1-3.2-1.9-6.5-2.5-9.7-.2-.8.6-2.2 1.4-2.6 2.9-1.5 5.9-2.7 8.9-4 4-1.8 7.9-3.7 12-5.2 2.2-.8 3.7-2.1 4.7-4-.5-1.6-.5-3.7-1.5-4.6-1.8-1.6-2.1-3.6-2.8-5.6-1.3-3.4-3-6.7-4.6-10.1-.8-1.6-1.8-3.2-2.3-4.9-.2-.8.3-2.2.9-2.7 2.2-1.7 4.7-3 7.1-4.5 1.2-.8 2.4-1.8 3.6-2.7 1-.7 2.1-1.3 3.2-2 3-2.1 6-4.1 8.8-6.4 1.6-1.4 1.5-3.8.3-5.1-1-1.1-1.8-2.3-2.6-3.6-.8-1.2-1.4-2.5-2.3-3.6-2.2-3-4.5-5.9-6.6-8.9-1.2-1.7-2.2-3.7-3.4-5.5-1.1-1.7-.9-3.5.8-4.7 1.2-.9 2.5-1.6 3.6-2.6 3.4-3.1 6.8-6.3 10.1-9.6 1.9-2 3.7-4.1 5.3-6.4.6-.9.8-2.6.3-3.4-1.4-2.2-3.1-4.1-4.8-6.1-1.5-1.7-3.3-3.2-4.7-5-2.3-2.7-4.5-5.6-6.6-8.4-1.2-1.5-1.5-2.9-.1-4.7 1.7-2.1 3.2-4.4 4.6-6.7 2.4-3.8 4.7-7.7 7-11.6 1.9-3.3 1.2-5.8-1.5-7.4-3.2-1.8-6.3-3.9-9.4-5.9-2.7-1.8-5.4-3.7-8.2-5.2-3.6-1.9-4.5-4.2-2.8-7.7 1.3-2.6 2.6-5.2 3.7-7.9 1.6-3.8 2.8-7.7 4.5-11.4 1.7-3.8 1.9-6.5-3.1-7.7-.3-.1-.5-.3-.8-.4-5.9-2.8-11.8-5.7-17.7-8.4-2-.9-2.6-2-1.9-4.1.8-2.5 1.4-5 2.1-7.5 1.6-5.7 3.1-11.4 4.8-17 .9-3.2.5-4.8-2.1-5.7-4.5-1.4-9.1-2.7-13.6-3.9-4-1.1-8.1-2.2-12.2-3.3-1.7-.5-2.3-1.7-2.2-3.2.2-3.6.6-7.1.9-10.7.4-4.6.8-9.1 1.3-13.7.4-3.4-.2-4.1-3.6-4.3-8.5-.4-17-.9-25.4-1.4-1.8-.1-2.8-.8-2.8-2.8-.2-5.9-.5-11.8-.8-17.7-.2-3.3-.5-6.6-.9-9.9-.3-2.6-1.3-3.5-3.9-3.2-5.2.5-10.5 1.1-15.7 1.6-3.4.3-6.8.4-10.1.9-2.1.4-3.2-.3-3.7-2.2-.9-3.3-1.9-6.6-2.6-10-.9-3.8-1.6-7.7-2.2-11.5-.5-3.3-2.4-4.9-5-4.1-8.1 2.4-16.2 4.7-24.3 7-1.5.4-2.6 0-3.3-1.2-.8-1.4-1.7-2.8-2.2-4.3-1-2.4-1.6-5-2.6-7.4-1.5-3.6-3.2-7.1-4.7-10.7-1.6-3.8-2.4-4.3-6.1-2.6-2.2 1-4.1 2.3-6.3 3.4-4.4 2.1-8.9 4.2-13.4 6.2-3.8 1.7-6 .7-7.9-2.8-1.7-3.2-3.7-6.4-5.9-9.2-2.6-3.3-5.6-6.1-7.3-10-.7-1.6-2.1-1.8-3.6-.8-3.7 2.6-7.4 5.1-11 7.7-3.1 2.3-6.1 4.7-9 7.2-2.4 1.9-4.7 1.9-7.1-.1-2.1-1.8-3.9-3.7-5.6-5.9-2.7-3.6-6.1-6.7-9.1-10-.7-.7-1.3-1.6-2.1-2-.8-.4-2.1-.6-2.9-.2-2.2 1.2-4.7 2.4-6.3 4.3-3.3 3.8-7.2 6.8-11.1 9.9-3.7 2.9-6.3 3.2-9.1 1.1-2.4-1.8-4.9-3.6-7.4-5.1-4.5-2.8-8.6-5.1-12.9-7.7z"/>
    <path class="color-blue" fill="#040d51" d="M257.2 31.2c4.3 2.6 8.4 4.9 12.4 7.4 2.6 1.6 5 3.3 7.4 5.1 2.8 2.1 5.4 1.9 9.1-1.1 3.9-3.1 7.8-6.1 11.1-9.9 1.6-1.9 4.1-3.1 6.3-4.3.7-.4 2-.2 2.9.2.8.4 1.4 1.3 2.1 2 3.1 3.3 6.4 6.4 9.1 10 1.7 2.2 3.5 4.1 5.6 5.9 2.4 2 4.7 2.1 7.1.1 3-2.4 5.9-4.9 9-7.2 3.6-2.7 7.3-5.2 11-7.7 1.5-1 2.9-.8 3.6.8 1.7 3.9 4.7 6.8 7.3 10 2.2 2.9 4.2 6 5.9 9.2 1.9 3.6 4.1 4.6 7.9 2.8 4.5-2 8.9-4.1 13.4-6.2 2.1-1 4.1-2.4 6.3-3.4 3.7-1.6 4.5-1.2 6.1 2.6 1.5 3.6 3.2 7.1 4.7 10.7 1 2.4 1.7 5 2.6 7.4.6 1.5 1.4 2.9 2.2 4.3.7 1.2 1.8 1.7 3.3 1.2 8.1-2.3 16.2-4.6 24.3-7 2.6-.8 4.5.8 5 4.1.6 3.9 1.3 7.7 2.2 11.5.7 3.4 1.7 6.7 2.6 10 .5 1.9 1.6 2.5 3.7 2.2 3.3-.6 6.7-.6 10.1-.9 5.2-.5 10.5-1.1 15.7-1.6 2.6-.2 3.6.6 3.9 3.2.4 3.3.7 6.6.9 9.9.3 5.9.6 11.8.8 17.7.1 1.9 1.1 2.7 2.8 2.8 8.5.5 17 .9 25.4 1.4 3.4.2 4 .9 3.6 4.3-.5 4.6-.9 9.1-1.3 13.7-.3 3.6-.6 7.1-.9 10.7-.1 1.6.5 2.8 2.2 3.2 4.1 1.1 8.1 2.2 12.2 3.3 4.5 1.3 9.1 2.5 13.6 3.9 2.7.8 3.1 2.5 2.1 5.7-1.7 5.6-3.2 11.3-4.8 17-.7 2.5-1.3 5-2.1 7.5-.6 2 0 3.2 1.9 4.1 6 2.7 11.8 5.6 17.7 8.4.3.1.5.3.8.4 5 1.2 4.8 3.9 3.1 7.7-1.7 3.7-2.9 7.7-4.5 11.4-1.1 2.7-2.4 5.3-3.7 7.9-1.7 3.5-.8 5.8 2.8 7.7 2.9 1.5 5.5 3.5 8.2 5.2 3.1 2 6.1 4.1 9.4 5.9 2.8 1.5 3.5 4.1 1.5 7.4-2.3 3.9-4.6 7.8-7 11.6-1.4 2.3-2.9 4.7-4.6 6.7-1.4 1.7-1.1 3.2.1 4.7 2.2 2.8 4.3 5.7 6.6 8.4 1.5 1.7 3.2 3.2 4.7 5 1.7 1.9 3.5 3.9 4.8 6.1.5.8.2 2.5-.3 3.4-1.5 2.3-3.3 4.4-5.3 6.4-3.3 3.3-6.7 6.4-10.1 9.6-1.1 1-2.5 1.7-3.6 2.6-1.7 1.3-1.9 3.1-.8 4.7 1.2 1.8 2.1 3.7 3.4 5.5 2.1 3 4.5 5.9 6.6 8.9.8 1.1 1.5 2.4 2.3 3.6.8 1.2 1.6 2.5 2.6 3.6 1.1 1.3 1.3 3.7-.3 5.1-2.8 2.3-5.8 4.3-8.8 6.4-1 .7-2.1 1.3-3.2 2l-3.6 2.7c-2.3 1.5-4.8 2.9-7.1 4.5-.7.5-1.2 2-.9 2.7.5 1.7 1.5 3.3 2.3 4.9 1.6 3.3 3.3 6.7 4.6 10.1.8 2 1 4 2.8 5.6 1 .9 1 3 1.5 4.6-1 1.9-2.5 3.2-4.7 4-4.1 1.5-8 3.5-12 5.2-3 1.3-6 2.5-8.9 4-.7.4-1.5 1.8-1.4 2.6.6 3.3 1.5 6.5 2.5 9.7 1 3.4 2.3 6.7 3.5 10 .1.4.1.9.1 1.3 0 1.5-.1 3 .1 4.5.2 1.9-.3 3.3-2.3 3.7-5.3 1.1-10.7 2.1-16 3.3-2.7.6-5.3 1.6-7.8 2.6-.6.2-1 1.5-1 2.2.1 3.9.3 7.8.6 11.6 0 .6.4 1.1.5 1.7.3 2.1.4 4.1.6 6.2.1 1.4.3 2.9.5 4.3.1.5.4 1 .4 1.5.5 4.2 0 5-4.2 5.3-6.4.5-12.9.8-19.3 1.2-2.4.1-4.8.1-7.2.5-2.2.4-2.2 2.6-2.4 4.2-.6 5.3-1 10.6-1.4 15.9-.2 2.9-.3 5.8-.5 8.7-.1 1.9-.8 2.7-2.8 2.5-6.9-.6-13.7-1.1-20.6-1.7-1.2-.1-2.4-.4-3.6-.3-4.1.2-4.4.5-5.5 4.5-1.6 5.7-3.1 11.4-4.8 17.1-.7 2.5-1.5 4.9-2.3 7.4-.5 1.5-1.3 2.2-3.2 1.7-5.3-1.5-10.7-2.7-16.1-4.1-3-.8-6-1.8-9-2.7-2.1-.7-3.7-.1-4.6 1.9-2.2 4.6-4.3 9.2-6.6 13.7-1.3 2.6-2.8 5.1-4.2 7.6-.9 1.7-2.2 1.2-3.5.6-4.7-2-9.4-4.1-14.1-6.1-3-1.3-6-2.7-9-3.8-1.3-.4-2.5-.5-3.6 1.2-2 3.2-4.6 6-6.9 9-.3.4-.7.8-1 1.2-2.6 3.9-5.1 7.9-7.7 11.7-1 1.5-2.2 1.9-4 .7-4.7-3.1-9.4-6.1-14.2-9.1-1.8-1.2-3.7-2.2-5.5-3.3-2.8-1.8-5.1-.7-7.3 1.2-3.2 2.8-5.8 6.1-9.7 8.3-3 1.7-5.1 4.9-7.4 7.5-1.3 1.4-2.5 1.8-3.8.2-2.8-3.3-5.6-6.6-8.4-9.8-1.2-1.4-2.4-2.9-3.7-4.1-2.4-2.2-4.8-4.3-7.3-6.3-.5-.4-1.4-.5-1.9-.3-1.2.4-2.4 1-3.4 1.7-3 2-5.8 4.3-8.8 6.3-2.9 1.9-5.9 3.7-8.9 5.6-1 .6-1.9 1.2-2.8 1.9-1.3.9-2.4.7-3.4-.4-.9-1-1.6-2.2-2.4-3.3-.9-1.4-1.8-2.7-2.7-4.1-1.2-1.9-2.2-3.8-3.4-5.6-1.8-2.5-3.7-4.9-5.6-7.3-.2-.3-.5-.6-.6-.9-1.2-3.1-1.9-3.4-5-2-2.5 1.1-5 2.3-7.6 3.4-4.3 2-8.7 4-13 6-2.7 1.3-4.9.4-6-2.4-1.7-4.5-3.3-9.1-5-13.6-.4-1-1.1-1.9-1.6-2.9-.8-1.6-1.6-3.2-2.3-4.8-.7-1.7-1.6-2.9-3.7-2.4-4.9 1.2-9.8 2.4-14.8 3.6-1.2.3-2.3.4-3.5.7-2.3.5-4.6 1.2-6.9 1.7-1.7.4-2.9 0-3.2-2-.5-3.1-1.1-6.2-1.8-9.3-1-5-2.1-9.9-3.3-14.9-.2-.6-1.4-1.4-2.2-1.3-5.8.2-11.6.7-17.4 1-3.4.2-6.7.7-10.1.6-1 0-2.5-1.5-2.8-2.5-.6-2.5-.7-5.2-.8-7.8-.2-4.1-.1-8.1-.3-12.2-.1-2.2-.6-4.5-1.1-6.7-.5-2.1-2.3-2.7-4.1-3-4-.6-8.1-1-12.1-1.4-3.4-.3-6.9-.5-10.3-.8-2.5-.2-4.1-2.2-3.9-4.6.3-3.5.7-7 1-10.5.3-3.9.7-7.8.8-11.7.1-3.6-.5-4.2-3.9-5.3-3.8-1.3-7.6-2.5-11.4-3.7-3.5-1.1-7-2.1-10.5-3.2-3.1-.9-4.3-3.2-3.3-6.3 1.2-3.6 2.5-7.1 3.5-10.7.8-3 1.3-6.1 2-9.2.2-1 .9-1.9 1-2.9.3-3.6-1.1-5-5.1-6.6-3.4-1.3-6.5-3.2-9.8-4.8-2.1-1-4.2-2.2-6.4-3.1-2.9-1.1-3.3-3.3-1.9-6 1.9-3.7 4.5-7.1 4.6-11.5 0-.6.3-1.4.8-1.8 2.7-2.2 2.9-5.5 3.1-8.4.3-4-3.3-6-6.1-8-3-2.1-6.3-4-9.3-6.1-1.9-1.3-3.7-2.9-5.6-4.4-1.7-1.3-2.1-3.2-1.1-5 2.1-3.6 3.8-7.7 6.6-10.7 2.3-2.4 2.9-5.5 5.2-7.7 1.6-1.6 1.1-3.8-.5-5.5-.5-.5-1-1.2-1.3-1.8-2-4.8-6.3-7.7-9.4-11.6-1.6-2-2.7-4.7-3.2-7.2-.5-3 2-4.5 4.4-5.9 1.6-.9 3.5-1.9 4.3-3.3 1.8-3.6 4.9-5.8 7.7-8.5s2.8-4.1.5-7.2c-1.9-2.4-3.3-5.2-5-7.8-.9-1.4-2-2.8-2.9-4.2-1.5-2.4-3.2-4.8-4.5-7.3-.9-1.8 1.3-5.9 3.1-7 3.5-2.1 6.9-4.4 10.3-6.7 2-1.4 3.9-3 6-4.4 2.2-1.4 3.1-3.3 2.3-5.7-.7-2.1-1.6-4.1-2.5-6.2-1.5-3.4-3-6.8-4.5-10.1-1.1-2.4-2.3-4.9-3.5-7.3-.9-1.6 0-2.6 1.2-3.3.6-.4 1.2-.5 1.9-.8 5.4-2.2 10.6-4.8 16.2-6.4 2.3-.7 3.9-2.1 5.8-3.1 2-1 1.4-3.2 1-4.9-1.1-4.3-2.4-8.5-3.6-12.8-.9-3.4-1.7-6.8-2.5-10.2-.4-1.8 1-3.8 3.4-4.4 4.9-1.2 9.8-2.2 14.7-3.1 2.1-.4 4.1-1.5 6.5-1 1.2.2 2.6-1.3 2.5-3.1l-.9-12.6c-.4-5-1-10-1.2-15-.1-2.8.7-3.5 3.6-3.8 4.4-.4 8.8-.6 13.2-1 3.8-.3 7.6-.7 11.4-1.1.3 0 .6-.1.9-.1 3.8 0 3.7 0 3.9-3.7.2-2.6.8-5.2 1-7.8.2-3.4-.1-6.7.1-10.1.1-2.6.5-5.2 1-7.7.3-1.7 1.7-2.3 3.5-2.2 6.4.6 12.7 1.1 19.1 1.6 1.7.1 3.4.4 5.1.4 1.6 0 2.5-.9 3-2.5.8-2.3 2.7-4.2 2-6.9 2.6-2.1 2-4.9 2.1-7.7.1-2.4 1.5-4.7 2.2-7 .3-.8.4-1.7.4-2.6.1-2.3 2.5-4.3 4.7-3.7 4.3 1.1 8.7 2 13 3.3 2.9.8 5.6 2.2 8.5 2.9 2.1.5 4.4.4 6.6.5.3 0 .7-.3.9-.6 1-1.9 1.8-3.9 2.8-5.8.8-1.7 1.8-3.2 2.6-4.9 1.4-3 3-5.9 3.8-9 .7-2.7 2.3-3.4 4.5-3.8.5-.1 1.2 0 1.7.2 4.7 1.9 9.6 3.5 14 5.9 2.7 1.5 5.5 2.1 8.3 3 2.4.8 4.7-.5 5.7-2.9.6-1.3 1.4-2.4 2.1-3.6 1.3-2 2.4-4.3 4.2-5.9 2-1.8 2.6-4.2 3.8-6.4 1.8-1.9 3.4-3.9 4.9-5.9zm-28.4 471.7c1.7-1.6 3.2-3.3 5.6-4.4 3.8-1.8 7.1-4.5 10.8-6.7 1.8-1 3.9-1.4 5.7-.1.9.7 1.4 1.9 2.1 2.8.7 1 1.4 2 2 3.1 1.1 2 2 4.1 3.2 6.1 1.2 2.1 2.5 4.3 4 6.2.6.7 2.4 1.5 2.9 1.1 2.3-1.6 4.3-3.5 6.4-5.3.7-.6 1.6-1.1 2.3-1.7 1.7-1.3 3.4-2.7 5.2-4 1.1-.8 2.1-1.9 3.3-2.2 1.6-.4 3.3-1.7 5.1.3 1.7 1.9 2 5.1 5.1 5.5.2 0 .3.3.4.5 1.4 3.7 5 5.3 7.3 8.1.9 1.1 2 .9 3-.2 2.5-2.7 5-5.4 7.6-8.1 1.8-1.8 3.8-3.4 5.6-5.3 1.9-2 2.6-2.2 4.7-.5 1.8 1.5 3.5 3.3 5.3 4.8 2.2 1.7 4.5 3.3 6.8 4.9.4.3.6.8.9 1.2 1.4 1.6 3.6 1.7 5 0 .7-.8 1.3-1.8 1.9-2.8 2-3.1 3.9-6.2 5.9-9.3.1-.1 0-.3.1-.4 1.4-1.8 2.7-3.7 4.3-5.4.3-.4 1.5-.3 2 0 1.8.8 3.6 1.8 5.3 2.8 1 .6 1.7 2.1 2.6 2.2 3.1.3 5.2 2.4 7.6 4 1.5 1 4 .9 4.8-.5 1-1.6 1.9-3.2 2.6-4.9 1.6-3.5 3-7.1 4.5-10.7.2-.5.3-1.2.5-1.7.7-2.1 2.7-3.4 4.4-2.8 5.7 1.9 11.5 3.9 17.2 5.7.5.2 1.7-.2 1.9-.6 1.2-3 2.4-6.1 3.4-9.2 1.4-4.2 2.7-8.5 4-12.9.4 0 1-.1 1.6 0 1.3.3 2.6.8 3.9.9 2.7.3 5.5.3 8.2.6 2 .2 3.9 1.1 5.9 1.1 4.9-.2 4.5.3 4.6-4.1.2-5.6.2-11.3.2-16.9 0-2 .9-3.2 2.6-3.3 6.6-.1 13.1-.2 19.7-.2 2.1 0 2.7-.8 2.5-2.7-.8-6.7-1.5-13.4-2.2-20.2-.1-.7.3-2 .8-2.3 1.6-.8 3.4-1.4 5.2-1.7 4.5-.6 9.2-.3 13.5-2.3 1.9-.9 2.5-1.8 1.9-3.7-1.4-4.6-2.7-9.2-3.9-13.8-1-3.7-.6-5 2.5-6 2.8-.9 5.4-2 8.1-3 2.4-.9 4.9-1.7 7.3-2.8 4.4-1.8 4.8-3.4 2.4-7.6l-.3-.6c-2.1-4.2-4.1-8.4-6.3-12.6-1.3-2.4-.7-5.5 1.7-6.8 3-1.7 6.1-3.1 8.9-5 2.3-1.6 5.3-2.1 7-4.8.8-1.3 1.1-2.2.1-3.4-1.9-2.5-3.9-5-5.7-7.7-2.4-3.5-4.3-7.2-6.9-10.6-1.3-1.7-.8-2.6.3-3.8.6-.6 1.3-1.3 2-1.8 2.4-1.8 5-3.4 7.3-5.4 1.7-1.5 3.1-3.5 4.6-5.2 2.1-2.4 2-3.2-.3-5.4-2-1.8-3.9-3.7-5.9-5.5-2.1-1.8-4.1-3.7-6.4-5.2-1.8-1.2-2.6-2.9-1.9-4.5.8-1.9 2.4-3.6 3.8-5.2 1.1-1.3 2.5-2.2 3.5-3.5 1.7-2.2 3.2-4.7 4.9-6.9 1.4-1.7 1.5-2.5-.4-3.8-1.7-1.2-3.6-2.1-5.4-3.2-3.2-2-6.5-4-9.5-6.3-1.3-1-3-3.1-2.7-4.1 1-3.2 2.8-6.2 4.4-9.2 1.6-3.2 3.4-6.3 4.9-9.5.3-.6-.3-2.1-.9-2.4-2.2-1.3-4.6-2.2-6.9-3.3-4-1.8-8.1-3.5-12-5.4-.7-.3-1.3-1.3-1.5-2.1-.5-3.2.2-6 2.2-8.7 2.2-2.9 3.5-6.2 3-10.1-.2-1.8-1-2.9-2.5-3.4-4.4-1.4-8.8-2.8-13.3-3.9-5.5-1.4-5.8-1.6-4.8-7.3.1-.3 0-.6 0-.9.5-5.2 1-10.3 1.6-15.5.2-1.7-.3-2.6-2.1-2.7-.8 0-1.6-.2-2.5-.2-5.4-.1-10.9 0-16.3-.3-3.5-.2-3.8-.7-3.9-4.3-.1-5.8-.2-11.6-.3-17.3 0-2.3-1.1-3.4-3.3-3.1-6.1.7-12.1 1.4-18.1 2.3-3.8.6-4.6-.1-5-3.9-.5-5-1.3-10-2-14.9-.2-1.5-1.1-2.8-3-2.3-3.6 1-7.1 2.3-10.7 3.3-3 .8-6.1 1.5-9.2 2.2-1.7-4.6-3.2-9-4.9-13.3-1.2-3.1-2.8-6.1-4.2-9.2-.7-1.4-1.8-1.7-3.1-.9-2.7 1.6-5.5 3.3-8.2 4.9-1.7 1-3.4 1.9-5.1 2.9-1.6.9-3.2 1.9-4.9 2.5-.5.2-1.6-.1-2-.6-1-1.2-1.9-2.6-2.7-4-1.3-2.3-2.5-4.7-3.8-7-.9-1.5-1.8-3.1-3-4.5s-2.8-3.7-4.1-3.7c-2.2.1-4.5 1.5-6.4 2.9-4.1 3.1-7.8 6.7-11.8 9.9-1.4 1.2-3.3.2-4.1-1.5-.4-.9-.9-1.8-1.6-2.4-3.3-3.4-6.7-6.6-9.9-10-1.4-1.4-2.5-1.3-3.8.1-1.8 1.9-3.7 3.8-5.6 5.7-1.7 1.7-3.5 3.2-5.3 4.9-.4.3-.6.8-.8 1.3-1 1.5-2 2.9-4.1 1.8-1.6-.9-3.1-1.8-4.6-2.8-1.3-.8-2.5-1.6-3.7-2.5-2.9-2.1-5.7-4.3-8.7-6.4-1.2-.8-2-.5-2.8.8-3.4 5.7-6.8 11.4-10.2 17.2-.7 1.2-1.6 1.8-3.1.9-1.7-1-3.5-1.6-5.2-2.4-3.6-1.9-7.3-3.6-10.7-5.8-2.7-1.7-4.3-1.4-5.5 1.6-1.4 3.6-3 7.1-4.6 10.6-.9 2-2.2 3.8-3.2 5.8-1.4 2.8-1.5 2.9-4.5 2-.8-.2-1.5-.6-2.3-.9-4.5-1.4-9-2.8-13.5-4.1-1.4-.4-2.3-.1-2.8 1.6-1.5 5.5-3.3 10.8-5 16.2-1.3 4.2-1.4 4.2-5.7 3.4-.4-.1-.7-.1-1.1-.1-5.4-.5-10.8-1.1-16.2-1.6-1.5-.1-2.7-.1-2.7 1.9-.1 6.7-.3 13.4-.3 20.1 0 1.8-.8 2.7-2.5 2.8-2.8.2-5.5.3-8.3.4-3.8.1-7.7.1-11.5.3-.8.1-2.2.9-2.3 1.6-.2 1.8.1 3.7.3 5.6.2 1.8.6 3.5.8 5.3.2 1.8.3 3.5.4 5.3.1 2.1.2 4.3.1 6.4 0 .5-.7 1.4-1.2 1.5-3 .7-6.1 1.3-9.2 1.8-2.3.4-4.6.5-6.9 1-2.9.6-3.6 1.9-2.8 4.7l1.8 6c.9 2.6 1.6 5.3 2.8 7.8 1.3 2.7 1 4.4-1.9 5.4-3 1.1-6.2 1.9-9.2 3-2.9 1.1-5.7 2.6-8.6 3.7-4.8 1.9-4.2 1.3-2.7 6.1.2.6.8 1.1 1.2 1.6 1.8 2.3 2.3 5.4 4.9 7.2.2.1.1.6.3.8.5.9.9 1.9 1.6 2.6 1.4 1.5 1.9 3 1.2 5.1-.6 1.9-1.9 2.7-3.3 3.6-5.1 3.2-10.2 6.5-15.3 9.7-1.4.9-1 1.7-.2 2.7 3.2 3.9 6.4 7.8 9.5 11.8.7.9.9 2 1.6 2.9 2 2.4 1.8 4.3-.7 6.2-1.4 1-3 1.9-4.1 3.1-3 3.1-5.8 6.3-8.5 9.6-.5.6-.4 2.4.1 3 1.5 1.7 3.4 3.1 5.2 4.5 1 .8 2.2 1.3 3.1 2.1 2.1 1.8 4.1 3.8 6.2 5.7 1 .9 1.3 1.8.4 3-1.8 2.4-3.5 4.8-5.3 7.2-2.2 3-5.7 4.9-6.6 8.8-.2 1.1-.5 2.9.1 3.4 2.5 2 5.2 3.6 7.9 5.3 3.3 2.1 6.6 4.2 10.2 6.4-2.2 4.4-4.1 8.4-6.1 12.3-1.2 2.5-2.4 4.9-3.8 7.3-1.1 1.9-.3 2.9 1.6 3.5 1.6.5 3.2 1.2 4.8 1.9 3.5 1.6 6.9 3.4 10.4 5.1 3.4 1.6 3.9 2.3 2.9 6.2-1.3 4.9-2.8 9.9-4.7 14.6-1 2.5.1 3.5 1.9 4.1 5.2 1.8 10.5 3.5 15.7 5.1 1.9.6 3.4 1.4 3.4 3.6 0 2-.1 4-.3 6-.5 4.5-1 9-1.6 13.5-.4 2.7-.3 3 2.5 3 5.7.1 11.5.1 17.2.2 2.8 0 3.9 1 4.1 3.8.1 1.7.3 3.4.3 5.1v13.5c0 2.7.5 3.2 3.2 2.8 4.2-.6 8.3-1.2 12.4-1.8 2.5-.3 5.1 1.8 7.5-.3.1-.1.4 0 .4.1 1.1 1.4 2.7 2.7 3.1 4.2.7 2.7 1 5.6 1 8.4-.1 2.5.2 4.8 1 7.2.6 1.9 1.5 1.9 3 1.6 1.4-.3 2.8-.4 4.1-.8.8-.2 1.5-.7 2.2-1 .6-.3 1.3-.8 1.9-1l5.7-1.5c3.6-.8 5.9.6 6.8 4.1.3 1.2.8 2.4 1.3 3.6 1.1 2.7 2.3 5.4 3.4 8.2.6 1.6.6 3.5 1.3 5.1.2 2.2 1.3 3.2 2.3 4.6z"/>
    <path fill="#fdfdfe" d="M228.8 502.9c-1-1.4-2.2-2.4-2.7-3.7-.7-1.6-.7-3.4-1.3-5.1-1-2.8-2.2-5.5-3.4-8.2-.5-1.2-1-2.4-1.3-3.6-.9-3.6-3.2-5-6.8-4.1-1.9.4-3.8.9-5.7 1.5-.7.2-1.3.7-1.9 1-.7.4-1.4.8-2.2 1-1.4.3-2.8.5-4.1.8-1.5.3-2.4.3-3-1.6-.8-2.4-1-4.7-1-7.2.1-2.8-.2-5.7-1-8.4-.4-1.6-2-2.9-3.1-4.2-.1-.1-.4-.1-.4-.1-2.4 2.1-5 0-7.5.3-4.2.6-8.3 1.2-12.4 1.8-2.7.4-3.2-.1-3.2-2.8v-13.5c0-1.7-.2-3.4-.3-5.1-.2-2.8-1.3-3.8-4.1-3.8-5.7 0-11.5-.1-17.2-.2-2.8 0-2.9-.3-2.5-3 .6-4.5 1.1-9 1.6-13.5.2-2 .3-4 .3-6 0-2.2-1.5-3-3.4-3.6-5.3-1.6-10.5-3.3-15.7-5.1-1.7-.6-2.9-1.6-1.9-4.1 1.9-4.7 3.4-9.7 4.7-14.6 1-3.8.5-4.5-2.9-6.2-3.5-1.7-6.9-3.4-10.4-5.1-1.5-.7-3.2-1.4-4.8-1.9-1.9-.6-2.6-1.6-1.6-3.5 1.3-2.4 2.5-4.9 3.8-7.3 2-4 4-8 6.1-12.3-3.6-2.2-6.9-4.3-10.2-6.4-2.7-1.7-5.4-3.4-7.9-5.3-.6-.5-.3-2.3-.1-3.4.8-3.9 4.4-5.8 6.6-8.8 1.7-2.4 3.5-4.8 5.3-7.2.8-1.1.5-2.1-.4-3-2.1-1.9-4.1-3.9-6.2-5.7-.9-.8-2.2-1.3-3.1-2.1-1.8-1.4-3.6-2.8-5.2-4.5-.5-.6-.6-2.4-.1-3 2.7-3.3 5.6-6.5 8.5-9.6 1.2-1.2 2.8-2.1 4.1-3.1 2.5-1.9 2.7-3.8.7-6.2-.7-.8-1-2-1.6-2.9-3.1-4-6.3-7.9-9.5-11.8-.9-1-1.3-1.8.2-2.7 5.1-3.2 10.2-6.5 15.3-9.7 1.5-.9 2.7-1.7 3.3-3.6.7-2.1.2-3.6-1.2-5.1-.7-.7-1.1-1.7-1.6-2.6-.1-.3-.1-.7-.3-.8-2.6-1.7-3-4.9-4.9-7.2-.4-.5-1-1-1.2-1.6-1.6-4.8-2.1-4.2 2.7-6.1 2.9-1.1 5.7-2.6 8.6-3.7 3-1.1 6.2-1.9 9.2-3 2.8-1 3.2-2.7 1.9-5.4-1.2-2.5-1.9-5.2-2.8-7.8-.7-2-1.2-4-1.8-6-.8-2.8 0-4.2 2.8-4.7 2.3-.5 4.6-.6 6.9-1 3.1-.5 6.1-1.1 9.2-1.8.5-.1 1.2-1 1.2-1.5.1-2.1 0-4.2-.1-6.4-.1-1.8-.2-3.5-.4-5.3-.2-1.8-.6-3.5-.8-5.3-.2-1.9-.5-3.8-.3-5.6.1-.6 1.5-1.5 2.3-1.6 3.8-.2 7.7-.2 11.5-.3 2.8-.1 5.5-.2 8.3-.4 1.6-.1 2.5-1 2.5-2.8 0-6.7.2-13.4.3-20.1 0-2.1 1.3-2.1 2.7-1.9 5.4.5 10.8 1.1 16.2 1.6.4 0 .8 0 1.1.1 4.3.8 4.4.8 5.7-3.4 1.7-5.4 3.5-10.8 5-16.2.5-1.8 1.5-2 2.8-1.6 4.5 1.3 9 2.7 13.5 4.1.8.2 1.5.6 2.3.9 3 .9 3.1.8 4.5-2 1-2 2.3-3.8 3.2-5.8 1.6-3.5 3.2-7 4.6-10.6 1.2-3 2.8-3.3 5.5-1.6 3.4 2.2 7.1 3.9 10.7 5.8 1.7.9 3.6 1.5 5.2 2.4 1.5.9 2.4.3 3.1-.9 3.4-5.7 6.8-11.4 10.2-17.2.7-1.3 1.6-1.6 2.8-.8 2.9 2.1 5.8 4.3 8.7 6.4 1.2.9 2.5 1.7 3.7 2.5 1.5 1 3 1.9 4.6 2.8 2.1 1.2 3.1-.3 4.1-1.8.3-.4.5-.9.8-1.3 1.7-1.6 3.5-3.2 5.3-4.9 1.9-1.8 3.7-3.7 5.6-5.7 1.3-1.3 2.4-1.5 3.8-.1 3.3 3.4 6.6 6.6 9.9 10 .7.7 1.2 1.6 1.6 2.4.8 1.8 2.7 2.7 4.1 1.5 4-3.2 7.7-6.8 11.8-9.9 1.8-1.4 4.2-2.8 6.4-2.9 1.3-.1 2.9 2.2 4.1 3.7 1.2 1.3 2.1 2.9 3 4.5 1.3 2.3 2.5 4.7 3.8 7 .8 1.4 1.7 2.8 2.7 4 .4.5 1.5.8 2 .6 1.7-.7 3.3-1.7 4.9-2.5 1.7-.9 3.4-1.9 5.1-2.9 2.7-1.6 5.5-3.3 8.2-4.9 1.4-.8 2.5-.5 3.1.9 1.4 3 3 6.1 4.2 9.2 1.7 4.3 3.2 8.6 4.9 13.3 3.1-.7 6.2-1.4 9.2-2.2 3.6-1 7.1-2.2 10.7-3.3 1.8-.5 2.7.7 3 2.3.8 5 1.5 9.9 2 14.9.4 3.9 1.2 4.5 5 3.9 6-.9 12.1-1.6 18.1-2.3 2.2-.3 3.3.8 3.3 3.1.1 5.8.2 11.6.3 17.3.1 3.6.3 4.1 3.9 4.3 5.4.3 10.8.2 16.3.3.8 0 1.6.1 2.5.2 1.8.1 2.3 1 2.1 2.7-.6 5.2-1 10.3-1.6 15.5v.9c-1 5.6-.7 5.9 4.8 7.3 4.5 1.1 8.9 2.5 13.3 3.9 1.5.5 2.3 1.6 2.5 3.4.5 3.8-.8 7.1-3 10.1-2 2.7-2.7 5.5-2.2 8.7.1.8.8 1.7 1.5 2.1 4 1.9 8 3.6 12 5.4 2.3 1 4.7 2 6.9 3.3.6.3 1.2 1.9.9 2.4-1.5 3.2-3.3 6.3-4.9 9.5-1.6 3-3.4 6-4.4 9.2-.3 1 1.4 3.1 2.7 4.1 3 2.3 6.3 4.2 9.5 6.3 1.8 1.1 3.6 2.1 5.4 3.2 1.9 1.3 1.8 2.1.4 3.8-1.8 2.2-3.2 4.7-4.9 6.9-1 1.3-2.4 2.2-3.5 3.5-1.4 1.7-3 3.3-3.8 5.2-.7 1.6.1 3.3 1.9 4.5 2.3 1.5 4.3 3.4 6.4 5.2 2 1.8 3.9 3.7 5.9 5.5 2.3 2.2 2.4 3 .3 5.4-1.5 1.8-2.9 3.7-4.6 5.2-2.3 2-4.8 3.6-7.3 5.4-.7.5-1.3 1.2-2 1.8-1.2 1.2-1.6 2.1-.3 3.8 2.5 3.3 4.5 7.1 6.9 10.6 1.8 2.6 3.7 5.1 5.7 7.7.9 1.2.7 2.1-.1 3.4-1.7 2.7-4.7 3.2-7 4.8-2.8 1.9-5.9 3.3-8.9 5-2.4 1.3-3 4.4-1.7 6.8 2.2 4.1 4.2 8.4 6.3 12.6l.3.6c2.5 4.2 2 5.7-2.4 7.6-2.4 1-4.9 1.8-7.3 2.8-2.7 1-5.4 2.1-8.1 3-3.2 1-3.5 2.3-2.5 6 1.2 4.6 2.5 9.2 3.9 13.8.6 2 .1 2.9-1.9 3.7-4.4 2-9 1.7-13.5 2.3-1.8.2-3.6.9-5.2 1.7-.5.3-.9 1.5-.8 2.3.7 6.7 1.5 13.4 2.2 20.2.2 1.9-.4 2.7-2.5 2.7-6.6-.1-13.1.1-19.7.2-1.7 0-2.6 1.2-2.6 3.3 0 5.6 0 11.3-.2 16.9-.2 4.4.3 3.9-4.6 4.1-1.9.1-3.9-.8-5.9-1.1-2.7-.3-5.5-.3-8.2-.6-1.3-.1-2.6-.7-3.9-.9-.6-.1-1.2 0-1.6 0-1.4 4.3-2.6 8.6-4 12.9-1 3.1-2.2 6.2-3.4 9.2-.2.4-1.3.8-1.9.6-5.8-1.8-11.5-3.8-17.2-5.7-1.7-.6-3.7.7-4.4 2.8-.2.6-.3 1.2-.5 1.7-1.5 3.6-2.9 7.1-4.5 10.7-.7 1.7-1.7 3.3-2.6 4.9-.8 1.4-3.3 1.4-4.8.5-2.4-1.6-4.5-3.6-7.6-4-.9-.1-1.7-1.6-2.6-2.2-1.7-1.1-3.5-2-5.3-2.8-.6-.3-1.7-.3-2 0-1.5 1.7-2.9 3.6-4.3 5.4-.1.1 0 .3-.1.4-1.9 3.1-3.9 6.2-5.9 9.3-.6.9-1.2 1.9-1.9 2.8-1.4 1.7-3.7 1.6-5 0-.3-.4-.5-.9-.9-1.2-2.2-1.7-4.6-3.2-6.8-4.9-1.9-1.5-3.5-3.3-5.3-4.8-2.1-1.7-2.8-1.5-4.7.5-1.8 1.9-3.8 3.4-5.6 5.3-2.6 2.6-5.1 5.3-7.6 8.1-1 1.1-2.1 1.4-3 .2-2.3-2.8-5.9-4.5-7.3-8.1-.1-.2-.2-.5-.4-.5-3.2-.5-3.5-3.7-5.1-5.5-1.8-2-3.5-.7-5.1-.3-1.2.3-2.3 1.4-3.3 2.2-1.7 1.3-3.4 2.7-5.2 4-.8.6-1.6 1.1-2.3 1.7-2.1 1.8-4.1 3.7-6.4 5.3-.5.3-2.3-.4-2.9-1.1-1.5-1.9-2.8-4.1-4-6.2-1.1-2-2.1-4.1-3.2-6.1-.6-1.1-1.3-2.1-2-3.1s-1.2-2.2-2.1-2.8c-1.8-1.3-4-.9-5.7.1-3.7 2.1-7 4.9-10.8 6.7-1.9.2-3.4 1.9-5.2 3.5zm155-134.9s0-.1 0 0c.8-.1 1.7-.1 2.5-.1 2.7 0 4.1-1.9 3.4-4.5l-1.8-6.3c-.5-2-.9-4-1.5-6-.7-2.6-1.5-5.2-2.2-7.9-.4-1.8-.6-3.6-1.1-5.4-1.2-4.3-2.8-8.5-3.8-12.8-1.2-4.8-2-9.7-3.1-14.6-.5-2.2.5-4 2.6-4.8 1.2-.4 2.6-1 3.4-1.9 4.6-4.8 4.8-10.9 5.1-17.1.1-2.1-.2-4.3-.1-6.4 0-5.2.2-10.3.2-15.5 0-4-.1-8 0-12.1.2-5.8-1.4-11-5.3-15.2-1-1.1-2.8-1.4-3.8-2.5-2.3-2.6-5.5-3.4-8.6-3.6-7-.6-14.1-.8-21.1-.9-5.2-.1-10.4.2-15.6.4-1.5 0-2.9.2-4.4 0-3.9-.4-7.9-.9-11.5 1.3-.6.4-1.4 1.2-1.4 1.9-.1 7.3 0 14.6-.1 21.9 0 7.6-.1 15.3-.1 22.9 0 4.5-.3 9-.3 13.5 0 4.7.3 9.4.3 14.1 0 5.3-.3 10.6-.3 15.9 0 5.4.2 10.7.2 16.1 0 5.8-.1 11.5-.2 17.3-.1 2.6-.4 5.2-.4 7.8 0 3.4 1.2 4.4 4.4 4.4 5 .1 10 .2 14.9.4 2 .1 4.5-1.5 4.6-3.1.2-4.6.4-9.2.4-13.7 0-4.3-.3-8.6-.3-12.9 0-3.5.2-7.1.3-10.6.1-3.3.1-6.6.3-9.8.1-2 1.6-2.8 3.5-2.9 2.4-.2 4.9-.2 7.3-.3 2.2-.1 3.4.8 3.9 2.9 1 4.1 2 8.2 3.1 12.3 1.6 6.2 3.2 12.4 4.6 18.6.8 3.2 1.2 6.4 1.9 9.6.4 1.6 1.3 3.2 1.7 4.8.7 3.7 1.9 4.7 5.6 4.3.9-.1 1.8-.1 2.7 0 3.5.1 6.8.3 10.1.5zm-110-69h-.4v19.1c0 2.3-.1 4.6-.1 6.9-.1 5 .1 9.9-.3 14.9-.4 4.4-1.7 5.4-6.1 5.6-3.6.2-7.1.3-10.7.3-1.3 0-2.6.3-3.7-.1-2.9-1-4.4-3.5-4.3-6.6 0-2.5.2-5.1.1-7.6-.1-4.2-.3-8.5-.5-12.7-.1-2.7-.3-5.4-.3-8.2 0-2.6.4-5.1.5-7.7 0-3.1-.3-6.1-.2-9.2.1-6.3.4-12.6.6-18.9.1-2.7-.1-5.3-.1-8 0-4.7.1-9.4.2-14.1 0-2.6-.1-5.2-.1-7.9 0-3.5.1-7-.1-10.5-.2-3.4-.7-3.8-4.1-3.8-5 0-10 .1-15.1-.1-3.2-.1-5.3 2.6-5.3 5.7 0 6.7.1 13.4.2 20.1 0 1.7.2 3.5.2 5.2-.1 6.1-.4 12.2-.4 18.3 0 4.9.4 9.8.4 14.7 0 8.2-.3 16.3-.4 24.5-.1 8.8 0 17.7 0 26.5-.1 8.2 4.1 14.4 10.1 19 4.1 3.1 9.3 3.8 14.6 3.7 8.7-.3 17.3-.2 26-.4 1.6 0 3.3-.3 4.8-.8 2.1-.6 4.3-1.4 6.3-2.2.9-.4 1.9-1 2.5-1.8 1.3-1.8 2-4 3.4-5.7 2.9-3.4 2.7-7.6 3.2-11.4.6-5 .2-10.2.3-15.3 0-4.5.1-9 .1-13.5v-17.6c0-5.2.3-10.3.3-15.5 0-6-.4-12-.4-17.9 0-5.6.3-11.2.4-16.8 0-4.9-.2-9.8-.2-14.6 0-1.7-.7-2.6-2.1-3-1.3-.4-2.6-.6-4-.6-3.6 0-7.2.3-10.7 0-1.6-.1-2.8-.3-3.6 1.2-.6 1.2-1.5 2.5-1.6 3.8-.2 2.5.2 5.1.3 7.6.1 5.7 0 11.5.1 17.2.1 6.9.2 13.8.3 20.8 0 5.7-.1 11.5-.1 17.4zm-92.2 16.1v.2c3.2 0 6.4-.1 9.5 0 4.4.1 8.1-2 11.6-4.1 2-1.2 3.3-3.4 4.9-5.2.2-.2.4-.5.4-.8.7-3.3 1.5-6.6 2-9.9.4-2.5.6-5.1.7-7.7.2-5.1.2-10.3.3-15.4 0-1.1.4-2.3.1-3.3-1.3-4.5-.8-9.1-.6-13.7.1-2.6.5-5.3 0-7.8-1-4.9-3.8-9-7.4-12.4-3.7-3.6-8.7-4-13.5-4-2.8 0-5.7-1.3-8.5.3-.1.1-.4-.2-.6-.2-1.5-.1-3-.2-4.5-.1-1 0-2.1.3-3.1.2-5.1-.2-10.2-.6-15.3-.7-4.9-.1-9.8.3-14.6.4-3.2 0-3.6.2-3.6 3.5 0 9.3.1 18.5.1 27.8v18.5c0 3.1-.1 6.2-.1 9.4-.1 2.5-.3 5-.3 7.5 0 2.6.3 5.2.4 7.8.1 3 .3 6 .2 9-.1 4.2-.6 8.4-.6 12.7 0 7.2.3 14.4.3 21.7 0 5-.3 10-.3 15 0 .9.4 2.3 1.1 2.7 1.3.7 3 1 4.5 1 5.1 0 10.2-.4 15.3-.2 1.9.1 2.5-.8 3.1-2.1.4-.9.5-2 .5-3.1.1-4 0-8 0-12.1 0-2 .4-4 .4-6 0-3.1-.4-6.3-.4-9.4 0-2.6.3-5.3.4-7.9.1-2.7-.1-5.4.1-8 .1-1.7.9-2.9 3-2.9 5-.2 9.8-.5 14.5-.7zm244.7-84.7v.5c-4.8 0-9.6-.1-14.4 0-3.8.1-4.6.8-4.7 4.5-.2 10.8-.3 21.5-.4 32.3 0 8.7.1 17.4.1 26.1V315c0 10.8-.1 21.7-.2 32.5 0 4.7.2 9.5-.2 14.2-.4 4.8.3 5.9 5.2 6.2h2l15.6-.3c10.9-.1 21.9-.1 32.8-.2 1.7 0 2.5-.7 2.5-2.6-.1-4.4-.2-8.9.1-13.4.3-4.4-.2-5.4-4.5-5.5-8.9-.1-17.9 0-26.8.1-2.7 0-3.3-.4-3.3-3.2v-13.9c0-6 .1-12.1.1-18.1 0-1.7.8-2.8 2.5-2.8 3.2-.1 6.5-.1 9.7-.2 4.2 0 8.4 0 12.6-.1 1.5 0 2.7-.6 2.7-2.3.1-5.2.3-10.4.1-15.6-.1-3.3-1.5-4.2-4.8-4.2-6.4 0-12.8-.1-19.2-.3-3.2-.1-3.8-.7-3.7-4 .1-8.6.2-17.3.4-25.9 0-2.6.8-3.3 3.4-3.3h6.6c7.2-.1 14.4-.2 21.7-.4 3-.1 3.5-.8 3.2-3.8-.1-1.3-.2-2.5-.2-3.8.1-3.4.5-6.7.4-10.1-.1-1.9-.8-3.6-3.4-3.6-3.8.1-7.7-.1-11.5-.1-8.1.1-16.3.1-24.4.1zM312.5 128.5c-2.7.3-4.8 1.4-5.1 3.2-.2 1.8-.1 3.6-.1 5.4 0 1.6.2 3.3.1 4.9-.2 2.4-.6 4.8-.9 7.1-.2 2 1 3.9 2.6 4.1 2.2.2 2.8-1.3 3.2-3 .1-.4 0-.9.1-1.3.4-1.2.6-3.1 1.4-3.3 1.1-.4 2.9 0 3.9.8.9.7 1.4 2.3 1.6 3.5.4 2 1 3.9 2.9 4.8.9.4 2.2.5 3.1.1.6-.3 1.2-1.5 1.2-2.3.1-1.2-.5-2.5-.6-3.7-.1-.8-.2-2 .3-2.5 2.4-2.4 2.6-5.4 2.9-8.5.6-5.1-1.2-7.3-6.4-7.6-2.3-.1-4.6-.3-6.9-.6-1.1-.2-2.2-.7-3.3-1.1zM208.9 440l.9.3c.2 1.7.2 3.5.6 5.2.5 2.3 1.6 2.7 3.5 1.6 2-1.2 4-2.3 6.1-3.4.4-.2 1.2-.3 1.4-.1.3.4.6 1.2.4 1.6-1.1 2.1-2.2 4.2-3.5 6.2-.7 1.1-.7 4.5.5 4.8 1.2.3 2.7-.4 4-.8.4-.1.6-.8.9-1.3l7.8-15.3c.9-1.8.4-3.2-1.4-3.6-1.8-.5-3.5-.5-4.9 1.3-.8 1-1.7 2.1-2.8 2.6-1.3.6-3 1.2-4.3.9-.6-.1-1.1-2.3-1.1-3.6-.1-2.3.3-4.6.4-6.9.1-1.9-1.4-3.8-3.2-4-2.2-.2-2.8 1.7-3.6 3.1-.5.8-.7 2-1.3 2.5-3.5 2.2-4 6.9-7.5 9.3-.8.5-.7 3.7.2 4.8 1.2 1.5 2.5-.3 3.4-1.2 1.1-1.3 2.3-2.7 3.5-4zm162-274.3c.3.1.5.1.8.2-.9 2.2.4 3.4 1.9 4.4 2.3 1.6 4.6 3.1 7 4.6 2.9 1.9 7.2 1.3 9.2-1.6 2.3-3.4 4.4-6.9 6.5-10.5 1.2-2.1.8-4-.6-6.1-2.5-3.8-6.2-5.7-10-7.6-3.2-1.6-6.6-.3-8.4 2.8-1 1.7-1.9 3.4-2.7 5.2-1.3 2.9-2.5 5.8-3.7 8.6zM191.3 435.9c.1.2.2.3.3.5 1.2-.7 2.5-1.3 3.4-2.3 3.2-3.2 6.2-6.4 9.2-9.7 1.3-1.5 1.3-6.1 0-7.4-2.7-2.6-5.4-5.1-8.3-7.5-1.4-1.2-4.4-.6-5.4 1-.9 1.5-3.1 1.8-3.5 3.7 0 .1-.2.2-.4.2-3.3.7-5.2 2.9-6.9 5.6-1.9 3-1.9 4.5.5 7.1 1 1.1 1.8 2.4 2.8 3.5 2.5 2.5 4.3 5.7 8.3 5.3zM247 142c.1.9.1 1.8.3 2.7 1.3 4.4 2.5 8.8 3.9 13.1.4 1.3 1.3 2.5 2.2 3.6 1 1.1 2.1.9 3.1-.1 1.6-1.5 1.4-3.4 1-5.3-.6-3-.1-4.2 2.6-5.3 1.9-.8 4.1-1.1 5.9-2.1 1.7-1 3.4-2.5 4.3-4.2.6-1.1-.2-3-.6-4.4-1.1-4.3-3.3-6.4-7.4-5.8-4.1.6-8.2 1.8-12.2 3-2 .7-3.7 2.1-3.1 4.8zm-46.8 29.2c0 2.4-2.1 5.1-4.3 5.8-2.1.7-3-.9-4.2-2.2-.7-.7-1.9-1.5-2.8-1.4-.9.1-2.4 1.3-2.3 2 .1 1.9.3 4.2 1.4 5.6 2.9 3.8 6.2 7.2 9.4 10.7.6.7 1.4 1.4 2.3 1.7.7.3 1.9.3 2.4-.1 2.4-1.9 2.3-5.2-.1-7.1-.6-.5-1.5-.8-1.7-1.4-.4-1.1-.9-2.6-.5-3.4 1.5-2.9 6.6-3 8.7-.5.8 1 1.8 1.9 2.9 2.4.8.3 2.2.3 2.8-.2.6-.5 1.1-2.2.8-2.7-1.9-3-3.6-6.3-6.2-8.6-1.9-1.7-3.6-3.2-4.2-5.7-.4-1.5-1.1-2.8-2.9-2.9-2.7-.1-3.8 2.1-2.7 5 .4 1.1.9 2.2 1.2 3zm37.8-2.7c-2.5-3.8-3.3-4.1-6.7-2.4-.5.3-1 .7-1.5.9-1.2.5-2.3 1.2-3.6 1.3-.9.1-2.1-.5-2.6-1.2-.3-.5.2-1.8.6-2.5.3-.6 1.4-.8 1.7-1.4.6-1.3 1.7-3 1.3-4.1-.6-1.9-2.6-1.2-4.1-.7-.2.1-.4.2-.6.2-.7 0-1.4 0-2.2.1.3-.7.4-1.5.9-2.1.4-.5 1.2-.6 1.7-1.1 1.1-1 2.3-1.9 3.2-3 .5-.7.7-2 .3-2.7-.7-1.2-2-1.7-3.5-.9-3.9 2.2-7.9 4.2-11.8 6.5-.6.3-1.1 1.5-1 2.2.3 1.9.8 3.7 2.5 5 .8.6 1 2 1.5 3.1.3.6.6 1.2 1 1.7 1.8 2.8 3.7 5.4 5.3 8.3 1.3 2.3 1.7 2.6 3.8 1.1.5-.4 1-.9 1.6-1.2 2.4-1.5 4.7-2.9 7.1-4.3 1.7-1 3.4-1.8 5.1-2.8zm111.6-7.5c.9-.5 2.3-.9 2.3-1.4 0-1-.3-2.5-1.1-3.1-2.1-1.6-4.3-3.2-7.2-3.3-1.6-.1-3.3-2.4-3-3.7.5-1.9 2.2-1.6 3.6-1.6 1 0 2 .7 3 .7s1.9-.4 2.9-.7c-.3-1-.3-2.4-1-3-.9-.8-2.2-1.1-3.4-1.5-1.4-.5-3.1-1-2.6-2.8.5-1.9 2.3-1.6 3.8-1.2.2.1.4.1.6.2 2.4.6 4.7 1.4 7.1 1.9 2.3.4 3.5-1 2.8-3.2-.3-.9-1.2-2.1-2.1-2.3-4.9-1.2-9.8-2.1-14.7-3-.7-.1-1.9.4-2.3 1-.7 1.3-1.1 2.8-1.5 4.2-.9 3.8-1.5 7.7-2.7 11.5-.9 3.1-.9 5 1.7 6.7 1.3.9 3.1 1.1 4.6 1.6 3 1 6 2 9.2 3zM284 477.9c.5-1.2 1.1-2.3 1.4-3.4.5-2.3.8-4.7 1.3-7.1.1-.5.8-1 1.3-1.3.2-.1.9.5 1.1.9 1.6 2.9 3.3 5.9 4.8 8.9.9 1.9 2.2 2.9 4.3 2.4 1.9-.4 2.6-1.9 2.7-3.7.2-3 .4-5.9.4-8.9.1-3.1 0-6.2 0-9.3 0-1.9-1.5-2.1-2.8-2.3-1.5-.3-1.9.9-2 2.1-.2 2.3-.3 4.6-.7 6.9-.1.9-.9 1.7-1.4 2.5-.4-.8-.9-1.7-1.2-2.5-.4-1-.6-2-1.1-3-.5-1.1-1.4-2.1-1.9-3.2-.8-2-1.9-3.3-4.3-2.9-2.8.4-4 1.5-4.1 4.8-.2 4.6-.2 9.3-.7 13.9-.4 2.6.5 3.9 2.9 5.2zm12.5-344h.2c0-.6.2-1.3 0-1.8-.5-1-1-2.2-1.8-2.6-.6-.3-1.9.1-2.6.7-.6.5-.9 1.5-.9 2.3.1 4.1.4 8.1.6 12.2.1 2.4-1.2 4.1-2.8 4.3-5.3.5-8.3-2.7-8.1-8 .1-2.4-.3-5-.8-7.4-.4-1.6-1.8-2.7-3.5-2.4-1.6.3-2.6 1.4-2.4 3.2.7 4.9 1.5 9.8 1.8 14.7.3 4.6 4.3 6.7 8.5 5.8 2.7-.6 5.2-1.8 8.1-1.2.9.2 2.5-.6 3-1.4 2.1-3.3 2.1-7.1 1.8-10.8-.3-2.6-.8-5.1-1.1-7.6zm128.4 290c.4-.8.8-1.8 1.4-2.7 1-1.4 2.2-2.7 3.1-4.2 1.7-2.7 2-2.9 4.9-1.8 2.1.8 3-.5 3.8-2 .7-1.5-.1-2.4-1.4-3-.5-.2-1.1-.4-1.7-.6-4.8-2-9.6-4.1-14.5-6-1.3-.5-3.1-1-4.3-.7-3.9 1.2-5.3 5.4-3.4 9.1 2.1 4 4 8.2 6.1 12.2.7 1.5 1.5 2.9 2.4 4.3.7 1.1 1.7 1.1 2.8.2 1.9-1.1 1.3-2.8.8-4.8zm-121.5-17.4c1.3-.1 3 .3 4-.3 4-2.3 8.1-4.8 9.6-9.5.6-1.7.3-3.7.5-5.5.1-1.5-.1-2.7-1.4-3.8-1.2-1.1-2.3-2.4-3.1-3.8-2.5-4.3-8.1-6.9-13.5-5.7-4.7 1-7 4.5-9.4 8-3.5 5.4-2.7 12.2 1.3 16.1 3.2 2.9 7.3 4.8 12 4.5zm97.8 29.2c1 1.2 2 2 2.4 3 .6 1.3-.4 2.1-1.6 2.8-2.2 1.3-4.5 2.6-6.5 4.3-1.7 1.4-1.5 2.7.4 3.7.7.4 2.1.2 2.9-.3 2.8-1.8 5.7-3.6 8.3-5.7 3.3-2.7 4.1-6.1.5-9.4-1-1-2.3-1.7-3.1-2.8-1.4-1.8-2.9-1.2-4.4-.5-1.8.9-3.5 2-5.2 3.1-1.3.9-2.5 1-3.5-.4-1-1.5.1-2.3 1.1-3.1 1.8-1.4 3.6-2.9 5.4-4.4 1.3-1.1 1.9-2.3.6-3.8-1.5-1.7-2.6-.3-3.8.5-1.8 1.1-3.6 2.3-5.4 3.5-2.6 1.7-4.8 3.8-4.8 7.1 0 3.2 3 6.9 5.9 7.7 2.3.7 4.2-.3 6-1.7 1.4-1.3 2.9-2.3 4.8-3.6zm-145.9 14.7c-.3-2.3-1-4.1-3.1-5-2.7-1.2-5.5-2.4-8.3-3.4-2.2-.8-4.4-.5-5.8 1.4-.7.9-.8 2.4-1.2 3.5-1.8 4.3-4.3 8.4-5.2 13.1-.4 2 .2 3 1.7 3.5 1.6.6 2.2-.7 2.6-2 .9-2.8 2.3-3.4 5.1-2.6 2.6.8 5.3 1.6 8 1.8 1.2.1 3.3-.8 3.7-1.8 1.1-2.6 1.7-5.6 2.5-8.5zm19.2 21.5c-.2-1.5-.4-2.6-.5-3.7-.7-5-1.2-10.1-2.1-15.1-.5-2.8-3.2-3.1-5.4-3.5-1.7-.3-3.1.4-4.2 2.2-1.6 2.8-2.8 5.7-5.1 8.2-1.9 2-2.9 4.9-4.2 7.5-.7 1.4-.4 2.8 1 3.4.7.3 2.2-.3 2.8-.9 1.3-1.3 2.6-1.6 4.3-1.2 1.5.4 3 1.1 4.5 1 2.4-.1 3.6.7 3.8 3.3 0 .8.9 1.9 1.6 2.1.8.3 2.1 0 2.7-.6.5-.7.6-1.9.8-2.7zM376 458.4l-2.4-5.1c-.7-1.5-1.4-3-2-4.5-.9-2.3-1.6-4.6-2.4-6.9-.6-1.6-1.6-2.4-3.3-1.6-1.6.8-2 2.2-1.3 3.8 1.7 3.7 3.4 7.5 4.9 11.2.3.8.4 1.9.1 2.8-.5 1.6-5.1 4.4-6.6 4.1-2.3-.5-2.8-2.5-3.2-4.4-.1-.3-.3-.5-.3-.8-.8-2.8-1.5-5.7-2.6-8.5-.5-1.1-1.6-2.2-2.7-2.8-.5-.3-1.8.4-2.5.9-.4.3-.5 1.3-.4 1.9 1.5 4.9 3.1 9.8 4.8 14.7 1.4 4.4 4 5.6 8.1 4.1 2.4-.9 4.7-1.8 7.2-2.5 3-1.1 4.5-3.4 4.6-6.4zm-197.2-66.7c-1 .3-2.2.4-3.1 1-3.2 2-6.5 3.9-9.5 6.2-2 1.5-4.8 3-3.8 6.4.4 1.2 1 2.4 1.7 3.5.6 1.1 1.4 2 2 3.1 1.5 2.6 2.9 5.3 5.9 6.4.8.3 2.2-.4 3.1-1 .4-.3.3-1.7-.1-2.3-1.4-2.4-3-4.8-4.6-7.1-1.5-2.1-1.5-4 .1-5.2 1.8-1.3 3.6-2.6 5.5-3.9 2.2-1.5 4.5-.8 5.9 1.4.9 1.6 2.1 3.1 3.4 4.3.6.6 1.8.4 2.8.6.2-1.3 1-2.8.5-3.7-1.4-2.7-3.2-5.1-5.1-7.5-1.1-1.3-2.5-2.4-4.7-2.2zM315.7 473c.2 1.2.3 2.4.6 3.5.2.6.8 1.3 1.4 1.6 2.1.8 3.8-.3 3.8-2.7.1-2.6-.5-5.5.3-7.8 1.2-3.5 3.5-6.5 5.3-9.8.7-1.3 1.2-2.7 1.5-4.1.1-.5-.8-1.7-1-1.7-1.4.4-3.4.7-4 1.7-1.4 2.4-2.1 5.2-3.1 7.9-.5 1.3-1.1 2.2-2.7 2.1-1.6-.1-1.8-1.1-2.3-2.3-1.2-3.4-3.2-6.2-6.9-7.3-.9-.3-2.6-.1-2.8.4-.4.9-.3 2.3.3 3.1 2 2.9 4.3 5.5 6.5 8.3 1.8 2 3.5 4.1 3.1 7.1zM182.8 183.6c-3-2.6-3.3-2.8-5.9 0-3 3.3-5.7 6.8-8.3 10.4-1.2 1.6-.8 3.2 1.1 4.3 1.5.9 2.4-.2 3.3-1.4 1.9-2.7 3.9-2.8 6.3-.4 2.3 2.3 4.6 4.6 7 6.8 1.8 1.7 4.2 1.4 5.6-.6 1.1-1.5.3-2.9-1.7-4.4-2.7-2.2-5.9-3.9-7.4-7.3-1-2.6-1.7-4.8 0-7.4zm239.1-7.5c-.3-1.7-1.5-2.6-3.1-2.2-2.3.7-4.1 2.1-5.4 4.2-.7 1.2-1.3 2.4-2.2 3.3-1.9 2-4.1 3.8-5.9 5.9-.9 1.1-2.1 3.5-1.6 4.1 2.6 3.2 5.6 6 8.5 9 0 .1.1.1.2.1.9-.1 2 0 2.8-.4 1-.7 1.3-1.7.3-2.9-1.2-1.3-2.2-2.8-3.4-4-1.6-1.6-1.9-4-.4-5.4 2.5-2.5 5.2-4.7 7.6-7.3 1-1.2 1.6-2.9 2.6-4.4zm-29.2 4.8c.7 1.3 1.1 2.2 1.7 2.9.2.2 1.2.2 1.5-.1 3.1-3.3 6.2-6.6 9.2-10 1.4-1.5 2.4-3.3 3.8-4.8 1.1-1.2 1.8-2.4.9-3.8-1-1.4-2.6-1.3-3.8-.2-2 1.8-3.7 3.8-5.5 5.8-1.6 1.8-3.1 3.6-4.5 5.5-1.2 1.4-2.2 3-3.3 4.7zm-57.5 297.5c-.1-1.2-.1-2.3-.4-3.2-.4-1-1-2.2-1.9-2.8-.5-.3-2.2.1-2.4.5-.5 1.2-.6 2.6-.4 3.8.2 1.6.8 3.1 1.4 4.6.2.5.8 1.1 1.3 1.3.4.1 1.3-.3 1.4-.6.5-1.2.7-2.5 1-3.6zM441 410.6c1.5-1.7 2.7-2.7 3.4-4 .5-1-1.6-3-3-3-2 0-2.7 1.6-2.6 3 0 1.1 1.1 2.2 2.2 4zm-22.3 24c0-2.8-2-2.9-3.1-3-.9 0-1.8 1.3-2.7 2.1.9 1 1.6 2.6 2.6 2.8.9.2 2.1-1.2 3.2-1.9zm-32.5 20.8c-1.4-1-2.4-2.2-3.2-2-.9.2-2.3 1.3-2.4 2.2-.2 1.5 1.3 2.5 2.6 2.3.9-.1 1.6-1.3 3-2.5z"/>
    <path class="color-blue" fill="#040d51" d="M383.8 368c-3.3-.2-6.6-.4-9.9-.5-.9 0-1.8-.1-2.7 0-3.6.4-4.9-.7-5.6-4.3-.3-1.7-1.3-3.2-1.7-4.8-.7-3.2-1.2-6.4-1.9-9.6-1.5-6.2-3.1-12.4-4.6-18.6-1-4.1-2.1-8.2-3.1-12.3-.5-2.1-1.7-3-3.9-2.9-2.4.1-4.9.2-7.3.3-1.8.1-3.3.9-3.5 2.9-.2 3.3-.2 6.6-.3 9.8-.1 3.5-.3 7.1-.3 10.6 0 4.3.3 8.6.3 12.9 0 4.6-.2 9.2-.4 13.7-.1 1.6-2.6 3.2-4.6 3.1-5-.2-10-.3-14.9-.4-3.3 0-4.4-1-4.4-4.4 0-2.6.3-5.2.4-7.8.1-5.8.2-11.5.2-17.3 0-5.4-.2-10.7-.2-16.1 0-5.3.3-10.6.3-15.9 0-4.7-.3-9.4-.3-14.1 0-4.5.2-9 .3-13.5.1-7.6.1-15.3.1-22.9 0-7.3 0-14.6.1-21.9 0-.6.8-1.5 1.4-1.9 3.6-2.1 7.6-1.6 11.5-1.3 1.4.1 2.9 0 4.4 0 5.2-.1 10.4-.5 15.6-.4 7 .1 14.1.3 21.1.9 3.1.3 6.2 1 8.6 3.6 1 1.1 2.8 1.4 3.8 2.5 3.9 4.3 5.5 9.4 5.3 15.2-.1 4 0 8 0 12.1-.1 5.2-.2 10.3-.2 15.5 0 2.1.2 4.3.1 6.4-.2 6.1-.4 12.3-5.1 17.1-.9.9-2.2 1.5-3.4 1.9-2.1.7-3.1 2.6-2.6 4.8 1.1 4.9 1.9 9.8 3.1 14.6 1.1 4.3 2.6 8.5 3.8 12.8.5 1.8.7 3.6 1.1 5.4.7 2.6 1.5 5.2 2.2 7.9.5 2 .9 4 1.5 6l1.8 6.3c.7 2.6-.7 4.5-3.4 4.5-1 0-1.9 0-2.7.1 0-.1 0 0 0 0zm-44-77.7h-.4c0 .8-.1 1.8.2 2.5.3.7 1.1 1.7 1.8 1.7 5.6.2 11.3.3 16.9.3.7 0 1.4-.4 2-.8 2.1-1.4 2.1-3.7 2.1-5.9.2-7.6.4-15.3.4-22.9 0-2.9-.4-5.9-.9-8.8-.4-2.6-2.5-4.2-5.1-4.2h-14c-2.1 0-3.5 1.4-3.5 3.5 0 2.9-.1 5.9 0 8.8.1 3.1.4 6.3.4 9.4.1 5.5.1 11 .1 16.4zm-66 8.7v-17.6c-.1-6.9-.2-13.8-.3-20.8-.1-5.7 0-11.5-.1-17.2 0-2.5-.4-5.1-.3-7.6.1-1.3 1-2.5 1.6-3.8.8-1.6 2-1.4 3.6-1.2 3.6.3 7.2 0 10.7 0 1.3 0 2.7.2 4 .6 1.4.4 2.1 1.3 2.1 3-.1 4.9.2 9.8.2 14.6 0 5.6-.4 11.2-.4 16.8 0 6 .3 12 .4 17.9 0 5.2-.2 10.3-.3 15.5v17.6c0 4.5-.1 9-.1 13.5-.1 5.1.3 10.3-.3 15.3-.5 3.8-.3 8-3.2 11.4-1.4 1.7-2.2 3.9-3.4 5.7-.6.8-1.6 1.4-2.5 1.8-2.1.9-4.2 1.6-6.3 2.2-1.6.4-3.2.8-4.8.8-8.7.2-17.3.1-26 .4-5.3.2-10.5-.6-14.6-3.7-6.1-4.6-10.2-10.8-10.1-19 .1-8.8 0-17.7 0-26.5.1-8.2.4-16.3.4-24.5 0-4.9-.4-9.8-.4-14.7 0-6.1.3-12.2.4-18.3 0-1.7-.2-3.5-.2-5.2-.1-6.7-.2-13.4-.2-20.1 0-3.1 2.1-5.8 5.3-5.7 5 .2 10 .1 15.1.1 3.4 0 3.9.3 4.1 3.8.2 3.5 0 7 .1 10.5 0 2.6.1 5.2.1 7.9 0 4.7-.1 9.4-.2 14.1 0 2.7.2 5.4.1 8-.2 6.3-.5 12.6-.6 18.9-.1 3.1.3 6.1.2 9.2 0 2.6-.4 5.1-.5 7.7 0 2.7.2 5.4.3 8.2.2 4.2.4 8.5.5 12.7.1 2.5-.1 5.1-.1 7.6-.1 3.2 1.4 5.7 4.3 6.6 1.1.4 2.5.1 3.7.1 3.6-.1 7.1-.1 10.7-.3 4.5-.3 5.8-1.2 6.1-5.6.4-4.9.2-9.9.3-14.9 0-2.3.1-4.6.1-6.9v-19.1c.3.2.4.2.5.2zm-92.2 16.1c-4.8.2-9.5.5-14.3.6-2.1 0-2.9 1.3-3 2.9-.2 2.7 0 5.4-.1 8-.1 2.6-.4 5.3-.4 7.9 0 3.1.4 6.3.4 9.4 0 2-.4 4-.4 6-.1 4 0 8 0 12.1 0 1-.1 2.1-.5 3.1-.5 1.3-1.2 2.1-3.1 2.1-5.1-.2-10.2.2-15.3.2-1.5 0-3.1-.4-4.5-1-.7-.3-1.1-1.7-1.1-2.7 0-5 .4-10 .3-15 0-7.2-.4-14.4-.3-21.7 0-4.2.5-8.4.6-12.7.1-3-.1-6-.2-9-.1-2.6-.4-5.2-.4-7.8 0-2.5.2-5 .3-7.5.1-3.1.1-6.2.1-9.4v-18.5c0-9.3-.1-18.5-.1-27.8 0-3.3.3-3.5 3.6-3.5 4.9-.1 9.8-.4 14.6-.4 5.1.1 10.2.5 15.3.7 1 0 2.1-.2 3.1-.2 1.5 0 3 .1 4.5.1.2 0 .5.3.6.2 2.8-1.6 5.7-.3 8.5-.3 4.8 0 9.8.4 13.5 4 3.6 3.4 6.4 7.5 7.4 12.4.5 2.5.1 5.2 0 7.8-.2 4.6-.7 9.1.6 13.7.3 1-.1 2.2-.1 3.3-.1 5.1-.1 10.3-.3 15.4-.1 2.6-.3 5.1-.7 7.7-.5 3.3-1.3 6.6-2 9.9-.1.3-.2.6-.4.8-1.6 1.8-3 4-4.9 5.2-3.5 2.1-7.2 4.3-11.6 4.1-3.2-.1-6.3 0-9.5 0-.2 0-.2-.1-.2-.1zm4.8-53.9h-.4c0-1.5.3-3-.1-4.4-.4-1.4-1.1-3.3-2.1-3.8-2.1-.9-4.5-1.1-6.7-1.1-2.6 0-5.3.6-7.9.8-3.8.3-4.7 1.3-4.8 5 0 4.9-.1 9.8-.1 14.6 0 6.2 0 12.5.1 18.7 0 2.5 1.2 3.6 3.7 3.2 1-.1 1.9-.3 2.9-.2 3 .1 5.9.4 8.9.4 3.3 0 6-2.3 6.2-5.1.2-4.1.3-8.3.4-12.4-.1-5.3-.1-10.5-.1-15.7zm239.9-30.8h24.3c3.8 0 7.7.2 11.5.1 2.6-.1 3.3 1.7 3.4 3.6.1 3.3-.3 6.7-.4 10.1 0 1.3.1 2.5.2 3.8.3 3.1-.2 3.8-3.2 3.8-7.2.2-14.4.3-21.7.4h-6.6c-2.6 0-3.4.7-3.4 3.3-.1 8.6-.3 17.3-.4 25.9 0 3.3.5 3.9 3.7 4 6.4.2 12.8.2 19.2.3 3.3 0 4.7.9 4.8 4.2.1 5.2 0 10.4-.1 15.6 0 1.7-1.2 2.3-2.7 2.3-4.2.1-8.4.1-12.6.1-3.2 0-6.5.1-9.7.2-1.8.1-2.5 1.1-2.5 2.8 0 6-.1 12.1-.1 18.1v13.9c0 2.7.7 3.2 3.3 3.2 8.9-.1 17.9-.2 26.8-.1 4.3 0 4.8 1.1 4.5 5.5-.3 4.4-.2 8.9-.1 13.4.1 2-.8 2.6-2.5 2.6-10.9.1-21.9.1-32.8.2-5.2 0-10.4.2-15.6.3h-2c-4.9-.2-5.5-1.3-5.2-6.2.3-4.7.2-9.5.2-14.2.1-10.8.2-21.7.2-32.5v-21.2c0-8.7-.2-17.4-.1-26.1.1-10.8.2-21.5.4-32.3.1-3.7.9-4.4 4.7-4.5 4.8-.1 9.6 0 14.4 0 .1-.2.1-.4.1-.6zM312.5 128.5c1.1.3 2.2.8 3.4 1 2.3.3 4.6.5 6.9.6 5.2.3 7 2.5 6.4 7.6-.3 3.1-.5 6.1-2.9 8.5-.5.5-.4 1.7-.3 2.5.1 1.3.6 2.5.6 3.7 0 .8-.6 2.1-1.2 2.3-.9.4-2.3.3-3.1-.1-1.9-.9-2.5-2.8-2.9-4.8-.2-1.3-.7-2.8-1.6-3.5-1-.8-2.8-1.2-3.9-.8-.8.3-1 2.2-1.4 3.3-.1.4 0 .9-.1 1.3-.4 1.7-1 3.3-3.2 3-1.6-.2-2.8-2.1-2.6-4.1.3-2.4.7-4.8.9-7.1.1-1.6-.1-3.3-.1-4.9 0-1.8-.1-3.6.1-5.4.2-1.7 2.3-2.8 5-3.1zm7.2 11.9c.6-.5 2-1 2.2-1.8.2-.8-.7-2.1-1.5-2.7-1.6-1.3-3.5-1.4-5.2 0-.6.5-1.2 1.6-1 2.3.1.6 1.1 1.2 1.9 1.5.9.3 2 .4 3.6.7zM208.9 440c-1.2 1.3-2.4 2.7-3.7 3.8-1 .9-2.3 2.8-3.4 1.2-.8-1.1-.9-4.3-.2-4.8 3.5-2.4 4-7 7.5-9.3.7-.4.9-1.6 1.3-2.5.8-1.5 1.4-3.3 3.6-3.1 1.8.2 3.3 2.1 3.2 4-.1 2.3-.4 4.6-.4 6.9 0 1.3.5 3.4 1.1 3.6 1.3.3 3-.2 4.3-.9 1.1-.5 2-1.6 2.8-2.6 1.3-1.7 3.1-1.8 4.9-1.3 1.8.5 2.3 1.9 1.4 3.6l-7.8 15.3c-.2.5-.5 1.1-.9 1.3-1.3.4-2.8 1.1-4 .8-1.3-.4-1.3-3.7-.5-4.8 1.3-2 2.4-4.1 3.5-6.2.2-.4-.1-1.2-.4-1.6-.1-.2-1-.1-1.4.1-2.1 1.1-4.1 2.2-6.1 3.4-1.9 1.1-3 .7-3.5-1.6-.3-1.7-.4-3.5-.6-5.2-.1.1-.4 0-.7-.1zm162-274.3c1.2-2.8 2.3-5.7 3.6-8.5.8-1.8 1.7-3.5 2.7-5.2 1.8-3.1 5.2-4.4 8.4-2.8 3.8 1.9 7.5 3.8 10 7.6 1.4 2.1 1.8 4 .6 6.1-2.1 3.6-4.2 7.1-6.5 10.5-2 2.9-6.3 3.5-9.2 1.6-2.3-1.5-4.7-3-7-4.6-1.5-1-2.8-2.2-1.9-4.4-.1-.2-.4-.2-.7-.3zm19-4.4c-.6-2.3-2.2-4-4.6-4.8-2-.7-3.2.3-4.2 1.7l-2.7 3.9c-1.2 2-.9 4.1.8 5.7 1.6 1.5 4.8 2.4 5.7 1.3 1.9-2.5 3.4-5.2 5-7.8zM191.3 435.9c-4.1.4-5.9-2.9-8.2-5.2-1-1.1-1.8-2.4-2.8-3.5-2.3-2.6-2.4-4-.5-7.1 1.7-2.7 3.6-5 6.9-5.6.1 0 .3-.1.4-.2.4-1.9 2.5-2.3 3.5-3.7 1-1.6 4-2.2 5.4-1 2.8 2.4 5.6 4.9 8.3 7.5 1.3 1.2 1.3 5.9 0 7.4-3 3.3-6.1 6.6-9.2 9.7-.9.9-2.3 1.5-3.4 2.3-.1-.2-.2-.4-.4-.6zm0-6.6c1-.6 1.7-.8 2.1-1.2 1.3-1.3 2.8-2.5 3.8-4 .8-1.3 1.8-3.4 1.3-4.5-.8-1.5-2.8-2.5-4.4-3.5-.3-.2-1.3.2-1.8.6-1.7 1.4-3.5 2.9-5.1 4.5-1.1 1.2-2.5 2.9-1.3 4.3 1.4 1.7 3.6 2.6 5.4 3.8zM247 142c-.6-2.7 1.1-4.1 3.2-4.8 4-1.2 8.1-2.4 12.2-3 4.2-.6 6.3 1.5 7.4 5.8.4 1.5 1.2 3.4.6 4.4-.9 1.7-2.6 3.2-4.3 4.2-1.8 1-3.9 1.3-5.9 2.1-2.8 1.1-3.3 2.3-2.6 5.3.4 1.9.6 3.7-1 5.3-1 1-2.1 1.3-3.1.1-.9-1.1-1.8-2.3-2.2-3.6-1.4-4.3-2.7-8.7-3.9-13.1-.3-.8-.3-1.8-.4-2.7zm13.9-1.9c-1.9 1-3.4 1.7-4.7 2.5-.4.3-.8 1.3-.5 1.7.3.5 1.1 1 1.8 1 1.2.1 2.4-.1 3.6-.3 1.3-.2 2.4-.9 2-2.4-.3-.8-1.4-1.5-2.2-2.5zm-60.7 31.1c-.3-.8-.8-1.9-1.3-3.1-1.1-2.9 0-5 2.7-5 1.9 0 2.6 1.4 2.9 2.9.6 2.6 2.4 4 4.2 5.7 2.5 2.4 4.3 5.6 6.2 8.6.4.6-.1 2.2-.8 2.7-.6.5-2 .6-2.8.2-1.1-.5-2.1-1.4-2.9-2.4-2.1-2.5-7.3-2.4-8.7.5-.4.9.1 2.3.5 3.4.2.6 1.1.9 1.7 1.4 2.3 1.9 2.4 5.3.1 7.1-.5.4-1.7.4-2.4.1-.9-.3-1.7-1-2.3-1.7-3.2-3.5-6.6-6.9-9.4-10.7-1.1-1.4-1.3-3.7-1.4-5.6 0-.7 1.4-1.9 2.3-2 .9-.1 2.1.7 2.8 1.4 1.2 1.3 2.1 2.9 4.2 2.2 2.3-.6 4.4-3.3 4.4-5.7zm37.8-2.7c-1.8 1-3.5 1.8-5.1 2.8-2.4 1.4-4.8 2.9-7.1 4.3-.6.4-1.1.8-1.6 1.2-2.1 1.5-2.6 1.2-3.8-1.1-1.6-2.9-3.5-5.5-5.3-8.3-.4-.6-.7-1.1-1-1.7-.5-1-.7-2.4-1.5-3.1-1.7-1.3-2.2-3.1-2.5-5-.1-.7.4-1.9 1-2.2 3.9-2.2 7.9-4.3 11.8-6.5 1.5-.8 2.8-.3 3.5.9.4.6.2 2-.3 2.7-.8 1.2-2 2.1-3.2 3-.5.4-1.3.6-1.7 1.1-.4.6-.6 1.4-.9 2.1.7 0 1.4 0 2.2-.1.2 0 .4-.2.6-.2 1.5-.5 3.4-1.3 4.1.7.4 1.1-.7 2.8-1.3 4.1-.3.6-1.3.8-1.7 1.4-.4.8-1 2-.6 2.5.4.7 1.7 1.3 2.6 1.2 1.2-.1 2.4-.8 3.6-1.3.5-.2 1-.7 1.5-.9 3.5-1.7 4.2-1.5 6.7 2.4zm111.6-7.5c-3.2-1-6.2-2-9.1-2.9-1.6-.5-3.3-.7-4.6-1.6-2.5-1.7-2.6-3.6-1.7-6.7 1.1-3.8 1.8-7.7 2.7-11.5.4-1.4.8-2.9 1.5-4.2.3-.6 1.6-1.1 2.3-1 4.9.9 9.9 1.9 14.7 3 .9.2 1.8 1.4 2.1 2.3.8 2.2-.5 3.7-2.8 3.2-2.4-.4-4.8-1.2-7.1-1.9-.2-.1-.4-.1-.6-.2-1.5-.4-3.3-.7-3.8 1.2-.5 1.7 1.2 2.3 2.6 2.8 1.2.4 2.6.7 3.4 1.5.7.6.7 2 1 3-1 .2-2 .7-2.9.7-1 0-2-.7-3-.7-1.3 0-3-.3-3.6 1.6-.4 1.3 1.3 3.7 3 3.7 2.9.2 5.1 1.7 7.2 3.3.8.6 1.1 2 1.1 3.1-.2.3-1.6.8-2.4 1.3zM284 477.9c-2.3-1.4-3.3-2.7-3-5.2.6-4.6.5-9.3.7-13.9.2-3.3 1.3-4.4 4.1-4.8 2.5-.3 3.5.9 4.3 2.9.5 1.1 1.3 2.1 1.9 3.2.5.9.7 2 1.1 3 .4.9.8 1.7 1.2 2.5.5-.8 1.2-1.6 1.4-2.5.4-2.3.5-4.6.7-6.9.1-1.2.5-2.4 2-2.1 1.3.2 2.8.4 2.8 2.3 0 3.1.1 6.2 0 9.3-.1 3-.3 5.9-.4 8.9-.1 1.8-.8 3.3-2.7 3.7-2.1.5-3.3-.6-4.3-2.4-1.5-3-3.2-5.9-4.8-8.9-.2-.4-.9-1-1.1-.9-.5.3-1.2.8-1.3 1.3-.5 2.3-.8 4.7-1.3 7.1-.2 1.2-.8 2.2-1.3 3.4zm12.5-344c.3 2.5.8 5 1 7.5.3 3.8.3 7.5-1.8 10.8-.5.8-2.1 1.6-3 1.4-2.9-.7-5.4.5-8.1 1.2-4.2 1-8.2-1.2-8.5-5.8-.3-4.9-1.2-9.8-1.8-14.7-.3-1.9.7-3 2.4-3.2 1.8-.3 3.2.8 3.5 2.4.5 2.4.9 4.9.8 7.4-.2 5.3 2.8 8.5 8.1 8 1.7-.1 2.9-1.9 2.8-4.3-.1-4.1-.5-8.1-.6-12.2 0-.8.3-1.9.9-2.3.7-.5 2-1 2.6-.7.8.5 1.4 1.7 1.8 2.6.2.5 0 1.2 0 1.8 0 .1 0 .1-.1.1zm128.4 290c.5 2 1.1 3.7-.8 5-1.2.8-2.1.9-2.8-.2-.9-1.4-1.6-2.8-2.4-4.3-2-4.1-4-8.2-6.1-12.2-1.9-3.7-.6-7.9 3.4-9.1 1.3-.4 3 .1 4.3.7 4.9 1.9 9.6 4 14.5 6 .5.2 1.1.4 1.7.6 1.3.6 2.2 1.5 1.4 3-.8 1.6-1.7 2.8-3.8 2-2.9-1.1-3.2-.9-4.9 1.8-.9 1.5-2.1 2.7-3.1 4.2-.6.7-1 1.7-1.4 2.5zm-4.4-13.4c-.3.4-1.1 1.2-1.2 2-.2 1.4 2.1 4 3.3 3.9 1.7-.1 2.4-1.4 2.5-2.9.1-1.5-1.9-3.1-4.6-3zm-117.1-4c-4.7.3-8.8-1.5-11.9-4.6-4.1-3.9-4.9-10.7-1.3-16.1 2.3-3.6 4.7-7.1 9.4-8 5.5-1.2 11 1.4 13.5 5.7.8 1.4 1.9 2.8 3.1 3.8 1.3 1.1 1.5 2.3 1.4 3.8-.1 1.8.1 3.8-.5 5.5-1.6 4.7-5.6 7.2-9.6 9.5-1.2.7-2.8.3-4.1.4zm9.7-14.7c-.6-1.5-1.1-4.4-2.6-6.7-1.6-2.5-4.1-4.6-7.4-4.4-1.5.1-2.9 1.1-4.4 1.5-1.9.5-3.4 1.1-3.9 3.3-.3 1.4-.8 2.8-1.5 3.9-3 4.2.4 7.3 1.8 10.7.2.6 1.3 1.1 2.1 1.1 3.3.2 6.6 2.5 9.9 0 .3-.2.9 0 1.3-.1.7-.2 1.5-.5 2.1-1 2.5-1.7 2.2-4.5 2.6-8.3zm88.1 43.9c-1.9 1.3-3.4 2.3-4.8 3.3-1.8 1.4-3.7 2.3-6 1.7-2.9-.8-6-4.6-5.9-7.7 0-3.3 2.2-5.4 4.8-7.1 1.8-1.2 3.6-2.3 5.4-3.5 1.2-.7 2.3-2.2 3.8-.5 1.3 1.5.7 2.7-.6 3.8-1.8 1.5-3.6 3-5.4 4.4-1 .8-2.1 1.6-1.1 3.1s2.1 1.3 3.5.4c1.7-1.1 3.4-2.2 5.2-3.1 1.5-.7 3-1.3 4.4.5.8 1.1 2.1 1.9 3.1 2.8 3.6 3.4 2.8 6.7-.5 9.4-2.6 2.1-5.4 3.9-8.3 5.7-.7.5-2.1.7-2.9.3-1.9-1-2.1-2.3-.4-3.7 2-1.6 4.2-3 6.5-4.3 1.2-.7 2.1-1.4 1.6-2.8-.4-.8-1.4-1.5-2.4-2.7zm-145.9 14.7c-.8 2.9-1.4 5.8-2.6 8.5-.4 1-2.5 1.9-3.7 1.8-2.7-.3-5.4-1.1-8-1.8-2.8-.8-4.2-.2-5.1 2.6-.4 1.3-1 2.6-2.6 2-1.5-.5-2.1-1.6-1.7-3.5 1-4.7 3.5-8.7 5.2-13.1.5-1.2.5-2.6 1.2-3.5 1.5-1.9 3.7-2.2 5.8-1.4 2.8 1 5.5 2.2 8.3 3.4 2.3.9 2.9 2.7 3.2 5zm-11-1.7c-1.8-.1-3 .6-3.1 2.5-.2 1.8 1.9 3.4 4.2 3.4 1.6 0 2.9-.3 3-2.2.1-1.9-2.1-3.7-4.1-3.7zm30.2 23.2c-.2.7-.3 2-.9 2.7-.5.6-1.9.9-2.7.6-.7-.2-1.5-1.4-1.6-2.1-.2-2.5-1.3-3.3-3.8-3.3-1.5 0-3-.6-4.5-1-1.7-.4-3-.2-4.3 1.2-.6.6-2.1 1.2-2.8.9-1.4-.5-1.7-2-1-3.4 1.3-2.5 2.3-5.4 4.2-7.5 2.3-2.5 3.5-5.4 5.1-8.2 1-1.8 2.5-2.5 4.2-2.2 2.2.4 4.9.8 5.4 3.5.9 5 1.4 10 2.1 15.1.3 1.2.4 2.3.6 3.7zm-5.9-10.2c-.8-1.5-1.5-2.7-2.1-3.9-.9.8-1.8 1.5-2.7 2.3-.1.1-.3.2-.3.3-.2 1-.9 2.7-.5 2.9 1 .7 2.4 1.2 3.6 1.1.7-.2 1.2-1.6 2-2.7zm107.4-3.3c-.1 2.9-1.6 5.3-4.6 6.3-2.4.8-4.8 1.6-7.2 2.5-4.2 1.5-6.7.3-8.1-4.1l-4.8-14.7c-.2-.6 0-1.6.4-1.9.7-.5 2-1.2 2.5-.9 1.1.6 2.3 1.7 2.7 2.8 1.1 2.7 1.7 5.6 2.6 8.5.1.3.3.5.3.8.4 1.9.9 3.9 3.2 4.4 1.6.3 6.2-2.5 6.6-4.1.3-.8.2-2-.1-2.8-1.6-3.8-3.3-7.5-4.9-11.2-.7-1.7-.3-3 1.3-3.8 1.7-.9 2.7 0 3.3 1.6.8 2.3 1.6 4.7 2.4 6.9.6 1.5 1.3 3 2 4.5.8 1.8 1.6 3.5 2.4 5.2zm-197.2-66.7c2.1-.2 3.6 1 4.6 2.4 1.8 2.4 3.6 4.9 5.1 7.5.5.9-.3 2.5-.5 3.7-.9-.2-2.2 0-2.8-.6-1.3-1.3-2.5-2.7-3.4-4.3-1.3-2.3-3.7-3-5.9-1.4-1.8 1.3-3.6 2.6-5.5 3.9-1.7 1.2-1.6 3.1-.1 5.2 1.6 2.3 3.2 4.7 4.6 7.1.4.6.4 2 .1 2.3-.8.6-2.2 1.2-3.1 1-3-1.1-4.4-3.8-5.9-6.4-.6-1.1-1.4-2-2-3.1-.6-1.1-1.3-2.3-1.7-3.5-1-3.4 1.7-4.9 3.8-6.4 3-2.3 6.3-4.2 9.5-6.2 1.1-.8 2.2-.9 3.2-1.2zM315.7 473c.4-3-1.3-5.1-2.9-7.2-2.2-2.8-4.5-5.4-6.5-8.3-.5-.8-.6-2.2-.3-3.1.2-.5 1.9-.6 2.8-.4 3.6 1.1 5.6 3.9 6.9 7.3.4 1.2.7 2.2 2.3 2.3 1.7.1 2.2-.8 2.7-2.1 1-2.6 1.7-5.4 3.1-7.9.6-1 2.6-1.3 4-1.7.2 0 1.1 1.2 1 1.7-.3 1.4-.9 2.8-1.5 4.1-1.7 3.3-4 6.4-5.3 9.8-.8 2.3-.3 5.2-.3 7.8-.1 2.3-1.7 3.5-3.8 2.7-.6-.2-1.2-.9-1.4-1.6-.5-1-.6-2.3-.8-3.4zM182.8 183.6c-1.7 2.5-1.1 4.8 0 7.3 1.6 3.5 4.7 5.2 7.4 7.3 2 1.6 2.8 2.9 1.7 4.4-1.4 2-3.8 2.3-5.6.6-2.4-2.2-4.7-4.5-7-6.8-2.4-2.4-4.4-2.3-6.3.4-.8 1.2-1.7 2.3-3.3 1.4-1.9-1.1-2.3-2.7-1.1-4.3 2.7-3.5 5.4-7.1 8.3-10.4 2.6-2.7 2.9-2.5 5.9.1zm239.1-7.5c-.9 1.5-1.6 3.2-2.7 4.4-2.4 2.6-5.1 4.8-7.6 7.3-1.5 1.5-1.2 3.8.4 5.4 1.2 1.3 2.2 2.7 3.4 4 1 1.1.8 2.2-.3 2.9-.7.5-1.8.3-2.8.4-.1 0-.2 0-.2-.1-2.9-2.9-5.9-5.8-8.5-9-.5-.6.7-3 1.6-4.1 1.8-2.1 4-3.9 5.9-5.9.9-1 1.6-2.2 2.2-3.3 1.2-2.2 3.1-3.5 5.4-4.2 1.6-.5 2.8.5 3.2 2.2zm-29.2 4.8c1.2-1.7 2.2-3.2 3.3-4.7 1.4-1.9 2.9-3.7 4.5-5.5 1.8-2 3.5-4 5.5-5.8 1.1-1.1 2.8-1.2 3.8.2.9 1.3.2 2.6-.9 3.8-1.4 1.5-2.4 3.3-3.8 4.8-3 3.4-6.1 6.7-9.2 10-.3.3-1.3.4-1.5.1-.6-.7-1-1.6-1.7-2.9zm-57.5 297.5c-.3 1.1-.5 2.4-1 3.6-.1.4-1 .8-1.4.6-.5-.2-1.1-.8-1.3-1.3-.6-1.5-1.2-3-1.4-4.6-.2-1.2 0-2.6.4-3.8.2-.5 1.9-.9 2.4-.5.9.6 1.5 1.7 1.9 2.8.3.9.2 2 .4 3.2zM441 410.6c-1-1.8-2.2-2.9-2.2-4-.1-1.4.6-3 2.6-3 1.4 0 3.5 2.1 3 3-.7 1.3-1.9 2.3-3.4 4zm-22.3 24c-1.1.7-2.3 2.1-3.2 1.9-1-.2-1.8-1.8-2.6-2.8.9-.7 1.9-2.1 2.7-2.1 1 .1 3.1.3 3.1 3zm-32.5 20.8c-1.3 1.2-2.1 2.4-3 2.5-1.4.2-2.8-.8-2.6-2.3.1-.9 1.5-2.1 2.4-2.2.7-.2 1.7 1 3.2 2z"/>
    <path fill="#fdfdfe" d="M339.8 290.3c0-5.5.1-10.9 0-16.4 0-3.1-.3-6.3-.4-9.4-.1-2.9 0-5.9 0-8.8 0-2.1 1.4-3.5 3.5-3.5h14c2.6 0 4.7 1.6 5.1 4.2.5 2.9.9 5.9.9 8.8 0 7.6-.2 15.3-.4 22.9-.1 2.2-.1 4.4-2.1 5.9-.6.4-1.3.8-2 .8-5.6 0-11.3-.1-16.9-.3-.6 0-1.4-1-1.8-1.7-.3-.7-.2-1.6-.2-2.5h.3zm-153.4-29.1v15.7c0 4.1-.1 8.3-.4 12.4-.2 2.8-2.9 5.1-6.2 5.1-3 0-5.9-.3-8.9-.4-1 0-1.9.1-2.9.2-2.5.4-3.7-.6-3.7-3.2 0-6.2-.1-12.5-.1-18.7 0-4.9.1-9.8.1-14.6 0-3.8 1-4.7 4.8-5 2.6-.2 5.3-.8 7.9-.8 2.3 0 4.7.2 6.7 1.1 1.1.4 1.8 2.4 2.1 3.8.4 1.4.1 3 .1 4.4h.5zm133.3-120.8c-1.6-.3-2.7-.4-3.7-.7-.8-.3-1.8-.9-1.9-1.5-.1-.7.4-1.8 1-2.3 1.6-1.4 3.6-1.3 5.2 0 .8.6 1.7 1.9 1.5 2.7-.1.8-1.5 1.3-2.1 1.8zm70.2 20.9c-1.6 2.6-3.1 5.4-5 7.8-.9 1.2-4.1.2-5.7-1.3-1.7-1.6-2.1-3.7-.8-5.7.8-1.3 1.7-2.7 2.7-3.9 1-1.4 2.3-2.4 4.2-1.7 2.5.8 4.1 2.4 4.6 4.8zm-198.6 268c-1.8-1.2-4-2.1-5.4-3.7-1.2-1.4.2-3.2 1.3-4.3 1.6-1.6 3.3-3 5.1-4.5.5-.4 1.4-.8 1.8-.6 1.6 1 3.6 2 4.4 3.5.5 1-.5 3.1-1.3 4.5-1 1.5-2.4 2.7-3.8 4-.5.4-1.1.6-2.1 1.1zm69.6-289.2c.8 1 1.9 1.7 2.1 2.7.4 1.4-.7 2.2-2 2.4-1.2.2-2.4.4-3.6.3-.6 0-1.5-.5-1.8-1-.2-.3.1-1.4.5-1.7 1.4-1.1 2.9-1.7 4.8-2.7zm159.6 270.4c2.7 0 4.7 1.5 4.6 3-.1 1.5-.8 2.8-2.5 2.9-1.3.1-3.6-2.5-3.3-3.9.1-.9.9-1.6 1.2-2zm-107.4-18.7c-.4 3.8 0 6.6-2.7 8.4-.6.4-1.4.7-2.1 1-.4.1-1-.1-1.3.1-3.3 2.4-6.6.1-9.9 0-.7 0-1.8-.5-2.1-1.1-1.4-3.4-4.7-6.5-1.8-10.7.8-1.1 1.2-2.6 1.5-3.9.5-2.2 2-2.8 3.9-3.3 1.5-.4 2.9-1.4 4.4-1.5 3.3-.2 5.8 2 7.4 4.4 1.5 2.2 2.1 5 2.7 6.6zm-16.2 4.4c0 .3 0 1 .3 1.6.3.8.8 1.9 1.4 2 .7.2 1.6-.5 2.3-1 .4-.3.5-.9.8-1.3 1-2 1.5-2.1 3.1-.5.5.5.7 1.2 1.2 1.6.5.4 1.5.9 1.6.7.5-.6 1.4-1.9 1.2-2.2-2.2-2.7.6-5.2.1-7.9-.4-2.2-.5-3.6-3-3.7-.9-.1-1.9-.2-2.7-.7-2.2-1.2-5.5-.5-5.8 2.7-.1 2.8-.2 5.6-.5 8.7zm-52.6 52.5c2 0 4.2 1.9 4.1 3.7-.1 1.9-1.4 2.2-3 2.2-2.4-.1-4.4-1.7-4.2-3.4.1-1.9 1.3-2.6 3.1-2.5zm24.3 13c-.8 1.1-1.3 2.6-2 2.7-1.2.2-2.6-.3-3.6-1.1-.4-.3.3-1.9.5-2.9 0-.1.2-.2.3-.3.9-.8 1.8-1.5 2.7-2.3.6 1.2 1.3 2.4 2.1 3.9z"/>
    <path class="color-blue" fill="#040d51" d="M296.9 396.2c.2-3.1.4-5.9.6-8.7.3-3.2 3.6-3.9 5.8-2.7.8.4 1.8.6 2.7.7 2.5.1 2.6 1.5 3 3.7.5 2.7-2.3 5.3-.1 7.9.2.3-.6 1.5-1.2 2.2-.1.1-1.2-.4-1.6-.7-.5-.4-.7-1.1-1.2-1.6-1.6-1.6-2.1-1.5-3.1.5-.2.5-.4 1.1-.8 1.3-.7.5-1.7 1.2-2.3 1-.6-.1-1.1-1.3-1.4-2-.4-.6-.3-1.3-.4-1.6zm6.9-4.5c.7-.7 1.2-1.1 1.6-1.5-.6-.5-1.2-1.1-1.9-1.5-.1 0-1 .8-.9 1.2 0 .5.6 1 1.2 1.8z"/>
    <path fill="#fdfdfe" d="M303.8 391.7c-.6-.8-1.1-1.3-1.2-1.9-.1-.3.9-1.2.9-1.2.7.4 1.3 1 1.9 1.5l-1.6 1.6z"/>
</svg>
