<svg xmlns="http://www.w3.org/2000/svg" viewBox="0 0 612 612">
    <path class="color-tan color-main" fill="#d4b48c" d="M13.9 323.9v-36.7c.4-1.1 1.1-2.2 1.2-3.4 1.2-9.7 1.9-19.6 3.7-29.1 13.3-70.4 46.9-129.4 102.8-174.5 68.9-55.7 147.8-76.2 235-61.1C427 31.3 485.7 65.6 530.7 121.4c57.1 70.8 78.2 151.9 60.1 240.9-19.8 97.3-76.4 167.3-166.6 209-56 25.9-115.1 32.4-175.5 19.8C166 573.9 102.1 529 57.3 457.5c-23-36.8-36.4-77-41.1-120.2-.4-4.6-1.5-8.9-2.3-13.4zm313.3 22.6c2.2.1 4 .3 5.8.3 6.9 0 13.7 0 20.6-.4 2.4-.1 5.6-1 7.2-2.7 14.3-14.7 28.4-29.6 42.3-44.7 3.8-4.1 7.3-6.3 13.1-6.2 46.8.3 93.7-.3 140.4.8 13.9.3 18.3-9.7 26.8-16.7-1.2-.3-1.3-.4-1.6-.4H403.6c-1.6 0-3.6.3-4.7 1.3-4.1 3.7-8 7.6-11.7 11.6-10.4 11.3-20.8 22.8-31.1 34.1-.8-.3-1.6-.8-2.3-1.1 2-6.7 3.9-13.3 6.1-20.7-4.3 0-7.8.2-11.2 0-11.7-1.1-22.3.6-30.7 9.8-.7.8-2.2.8-4.8 1.6 7.8-14.1 14.9-26.8 22.3-40.3-5.1 0-9.1.2-13.2-.1-3.9-.3-6.2 1.1-8.7 4.1-9.6 11.6-20.7 21.2-36.3 23.4-1.6.2-3.3 1.4-4.4 2.7-4.3 4.9-8.4 9.9-12.7 14.9 10.9 1.3 21.6-1.9 32.1-5.7.4.3.8.7 1.2 1.1-6.2 11-12.4 22-19.2 33.9 7.4 0 13.7.3 19.9-.1 3.1-.2 6.4-1.6 8.9-3.3 9.3-6.9 18.4-14.2 27.6-21.2 1-.8 2.3-1.2 4.9-2.6-3 9.3-5.7 17.7-8.4 26.6zm-110.7-28.9c13.7 1.1 26.1 1.3 38.1-3.2 9.8-3.8 16.2-11 17.9-21.6 1.9-11.9-2.6-21.4-12.3-28.3-15.9-11.2-39-1.3-47.7 13.9-4 7.1-8 14.1-12 21.2-8.6 15.2-17 30.4-25.9 46.5 7 0 13.4.1 19.9-.1 1.2-.1 3-1.4 3.7-2.8 7.7-13.7 15.2-27.4 22.8-41.2 3.1-5.7 6.1-11.4 9.3-17 3.3-5.7 12.8-9.3 18.3-6.2 2.7 1.4 4.6 5.8 5.2 9 1 4.9-2.1 9-6.4 10.4-5.4 1.9-11.4 2.2-17.1 3.4-2.2.4-5 1-6.2 2.6-2.8 4-4.8 8.4-7.6 13.4zm-23-16.1c-3.4-.2-5.8-.6-8.1-.6h-82.2c-21.9 0-43.7 0-65.5.1-2.2 0-5.8.2-6.6 1.6-2.3 4.4-3.7 9.4-5.8 15 4 .2 6.9.6 9.8.6h55.5c29.4 0 58.9 0 88.3-.1 2.2 0 5.2-1.1 6.4-2.7 3.2-4 5.3-8.6 8.2-13.9zm364.5.3c-1.8-.2-2.8-.3-3.9-.3-47.5 0-95.1.1-142.6.1-1.3 0-3-.2-3.8.4-5.2 5.2-10.3 10.7-15.4 16 2.3 1.2 4 1.2 5.6 1.2 40.5 0 81.1.1 121.5.1 7.2 0 15.3 1.9 21.4-.8 6.3-2.8 10.7-9.9 16-15.1.3-.1.4-.5 1.2-1.6zM531.6 330c-.2-.4-.3-1-.6-1.4-.9-.1-1.8-.2-2.6-.2-47.5 0-95.1 0-142.8.1-1.2 0-2.9.1-3.6.9-4.8 5-9.4 10.1-14.6 15.8 1.8.3 2.4.6 3.1.6 47 0 94 .1 141.1 0 2 0 4.3-1.1 5.8-2.4 5-4.3 9.5-8.9 14.2-13.4z"/>
    <path class="color-black color-reserved-white" fill="#0" d="M327.2 346.5c2.8-8.9 5.4-17.1 8.4-27-2.6 1.3-3.9 1.7-4.9 2.6-9.2 7.1-18.2 14.3-27.6 21.2-2.4 1.8-5.9 3.1-8.9 3.3-6.2.6-12.4.1-19.9.1 6.8-11.9 13-22.9 19.2-33.9-.4-.3-.8-.7-1.2-1.1-10.6 3.8-21.2 7.1-32.1 5.7 4.2-5 8.3-10 12.7-14.9 1.1-1.2 2.9-2.4 4.4-2.7 15.8-2.2 26.8-11.9 36.3-23.4 2.6-3.1 4.8-4.4 8.7-4.1 4 .3 8.1.1 13.2.1-7.6 13.6-14.6 26.2-22.3 40.3 2.6-.8 4.1-.8 4.8-1.6 8.3-9.2 19-10.9 30.7-9.8 3.4.3 7 0 11.2 0-2.1 7.3-4.1 14-6.1 20.7.8.3 1.6.8 2.3 1.1 10.3-11.3 20.7-22.8 31.1-34.1 3.7-4 7.7-7.9 11.7-11.6 1.1-1 3.1-1.3 4.7-1.3h178.2c.2 0 .3.1 1.6.4-8.4 7.1-12.8 17-26.8 16.7-46.8-1-93.7-.3-140.4-.8-5.9 0-9.4 2.2-13.1 6.2-13.9 15.1-28 30-42.3 44.7-1.7 1.7-4.7 2.4-7.2 2.7-6.8.4-13.7.3-20.6.4-1.7.4-3.5.2-5.8.1zm-110.7-28.9c2.8-5 4.8-9.3 7.6-13.2 1.1-1.6 4-2.1 6.2-2.6 5.7-1.2 11.7-1.6 17.1-3.4 4.2-1.6 7.4-5.7 6.4-10.4-.7-3.3-2.6-7.6-5.2-9-5.6-3.2-15 .4-18.3 6.2-3.2 5.6-6.2 11.3-9.3 17-7.6 13.8-15.1 27.6-22.8 41.2-.7 1.2-2.3 2.7-3.7 2.8-6.3.3-12.8.1-19.9.1 8.9-16 17.4-31.3 25.9-46.5 4-7.1 8-14.1 12-21.2 8.6-15.3 31.8-25.1 47.7-13.9 9.8 6.9 14.2 16.6 12.3 28.3-1.7 10.4-8 17.8-17.9 21.6-11.9 4.3-24.4 4.1-38.1 3zm-23-16.1c-3 5.3-5.1 9.9-8 13.8-1.2 1.7-4.2 2.7-6.4 2.7-29.4.2-58.9.1-88.3.1H35.3c-2.9 0-5.8-.3-9.8-.6 2-5.6 3.3-10.6 5.8-15 .7-1.3 4.3-1.6 6.6-1.6 21.9-.1 43.7-.1 65.5-.1h82.2c2.3.1 4.6.5 7.9.7z"/>
    <path class="color-black color-reserved-white" fill="#0" d="M558 301.8c-.8 1-1 1.3-1.2 1.7-5.2 5.2-9.7 12.4-16 15.1-6.1 2.7-14.2.8-21.4.8-40.5 0-81.1 0-121.5-.1-1.6 0-3.2 0-5.6-1.2 5.1-5.3 10.2-10.8 15.4-16 .7-.7 2.4-.4 3.8-.4 47.5-.1 95.1-.1 142.6-.1 1.1-.1 2.1 0 3.9.2zM531.6 330c-4.7 4.4-9.2 9-14.1 13.3-1.6 1.3-3.9 2.4-5.8 2.4-47 .1-94 0-141.1 0-.7 0-1.3-.2-3.1-.6 5.2-5.7 9.8-10.8 14.6-15.8.8-.8 2.3-.9 3.6-.9 47.5 0 95.1-.1 142.8-.1.9 0 1.8.1 2.6.2.2.6.3 1.1.5 1.5z"/>
</svg>
