<svg xmlns="http://www.w3.org/2000/svg" width="50mm" height="50mm" viewBox="0 0 50 50">
    <g stroke-width=".993877">
        <g fill-rule="evenodd" transform="translate(-161.35691 -83.577246) scale(1.00616)">
            <circle class="color-white color-stroke-main color-stroke-orange" fill="#fff" stroke="#f47e42" cx="185.21594" cy="107.91248" r="24.349998"/>
            <circle class="color-main color-orange" fill="#f47e42" cx="185.21596" cy="107.91248" r="21.75"/>
        </g>
        <path stroke="#fff" stroke-width=".5" d="M27.566732 30.12102c-.071538-.103474-.15677-.201283-.20265-.31844-.039342-.100415-.048196-.211002-.057855-.31845-.002012-.314978-.000885-.630288 0-.955328.010062-.107448.017507-.218408.057854-.31844.03914-.096793.126937-.167224.173694-.260545.14219-.283788.219141-.595949.31845-.897435.072544-.220349.116684-.450347.20264-.665836.087939-.22046.175122-.447681.31845-.63688.17325-.2287.39367-.426793.63688-.578995.264307-.165402.584055-.219654.868486-.347386.177155-.079588.346482-.175545.52109-.260546.182408-.088844.354521-.206413.550038-.260545.095183-.026361.294976-.028977.294976-.028977h9.144336s.193022-.015294.287682.00003c.120487.01952.24353.05705.347397.115779.136727.095283.214694.251278.289492.376334.041253.126464.024148.265113.028977.398057.005031.14224 0 .427004 0 .427004v.427005s.0327.288476 0 .427004c-.01982.084014-.06369.162797-.115799.231598-.08663.11435-.186008.234355-.31844.289492-.173944.072444-.564515.028978-.564515.028978h-3.387078s-.378386-.000312-.564516.028977c-.147986.023242-.310088.031996-.434239.1158-.199924.135006-.325523.363625-.434238.578984-.090756.179871-.164226.377713-.173694.578985-.01157.245754.05705.493884.144747.72374.067815.17782.182416.3348.289492.492144.067815.09961.222553.284753.222553.284753.06218.064093.124512.128105.186864.192066 1.8751 1.922813 3.80088 3.786483 5.71027 5.657549.063791.062482.120227.121161.173513.187618.080795.100717.171057.19916.22045.31844.041252.09971.048195.211002.057854.31845.009055.105717 0 .31844 0 .31844v.636889s-.001006.21905-.04085.31844c-.039844.100012-.14039.165402-.190698.260544-.148378.280608-.219141.59595-.31845.897435-.072544.22035-.116684.450347-.20264.665837-.087938.22046-.175122.44768-.31845.636879-.17325.2287-.39367.426793-.63688.578995-.264307.165402-.566045.271593-.868486.347387-.169518.04246-.353605.008049-.52109.057854-.196957.058659-.351835.224202-.550038.278535-.053126.01459-.109833.009056-.16488.010967-.054936.002013-.16487 0-.16487 0H28.160267s-.242454-.009055-.361866-.028977c-.11779-.019318-.238238-.038536-.347397-.086832-.063589-.028172-.12763-.06359-.173683-.115799-.05715-.064696-.092768-.148408-.115809-.231588-.033606-.121252-.028977-.376344-.028977-.376344v-1.129032s.07023-.22877.144746-.31845c.07526-.090554.178684-.162706.289492-.20264.112147-.040448.356443-.028978.356443-.028978H33.2698s.31046-.05554.434239-.144746c.195708-.141054.322273-.365297.434238-.578985.099107-.189209.19445-.394485.20265-.607932.009056-.23855-.08824-.47188-.173703-.694794-.066406-.173331-.154948-.339489-.260545-.492143-.07204-.104148-.2515-.284754-.2515-.284754-1.89146-1.944002-3.813065-3.83842-5.748475-5.709295a325.602113 325.602113 0 0 0-.33994-.327847c-.000051-.00005.00001-.00004.00001-.00004z"/>
        <path stroke="#fff" stroke-width=".5" d="M24.22128 30.037951c.03924.209272.105475.423725.231517.595335.125358.170685.312634.291133.496117.39688.18448.106311.387272.18628.595325.231518.188162.04095.576731.033102.576731.033102h8.074184s.392705-.023645.576731.033103c.122873.037832.233933.113837.330745.198445.106311.092868.26459.330745.26459.330745v1.58755s-.177033.263815-.297662.363817c-.106341.08814-.231467.158873-.363818.198445-.129492.038737-.404124.033103-.404124.033103H22.17793s-.27115-.009056-.404124-.033103c-.394817-.07184-.787532-.175484-1.157587-.330745-.432508-.181471-.836894-.429339-1.223743-.694552-.258472-.177205-.513403-.366605-.727625-.595335-.19449-.207662-.397886-.427538-.496107-.694553-.044975-.122278-.033103-.389454-.033103-.389454V19.229114s-.01318-.275768.033103-.402021c.0979-.267146.301617-.486891.496107-.694552.214222-.22873.469153-.41813.727625-.595335.386849-.265214.791235-.51309 1.223743-.69456.370045-.155264.76277-.258906 1.157587-.330743.132974-.024198.404124-.033072.404124-.033072h12.123687s.274632-.005635.404124.033072c.13235.039573.257477.110276.363818.198443.120629.100013.238903.21857.297662.363825.049805.123063.033103.39689.033103.39689v.79377s.015998.273554-.033103.39689c-.05222.131163-.158279.237836-.26459.330744-.096792.084619-.207872.160594-.330745.198445-.184026.056647-.57673.033103-.57673.033103H26.12097s-.388569-.00805-.57673.033103c-.208054.045277-.410846.125206-.595326.231517-.183483.105748-.37076.226195-.496117.39688-.126042.17161-.231517.595335-.231517.595335v9.258445s-.018313.20081 0 .298658z"/>
        <path stroke="#fff" stroke-width=".5" d="M10.890321 5.879755s-.321257.186826-.430516.331207c-.07184.09481-.132592.331206-.132592.331206v15.896356s.095284.291666.198626.397765c.130942.134433.497064.26465.497064.26465h5.364826v-5.696023h5.26603l5.762582 5.696024h2.202495s.24338.050408.314566-.027066c.04246-.046284 0-.188223 0-.188223v-.645773l-4.86879-4.834992h1.523448s.298105-.112298.430516-.198617c.419327-.273351.761381-.650893 1.126205-.993623.238943-.22448.51295-.42349.69569-.69569.206846-.308102.430525-1.026377.430525-1.026377l-.033304-5.9612s-.209995-.547871-.364491-.795002c-.212048-.339188-.475552-.648094-.761724-.927586-.230662-.225274-.48024-.43864-.761723-.59586-.2775-.154994-.893793-.331206-.893793-.331206zm5.927924 2.38448h8.710157s.576752.171332.795008.364483c.252375.22335.529824.861032.529824.861032-.055742 1.302435.110758 2.677988.032197 3.940685-.131556.300707-.500263.42649-.72845.662414-.201454.208282-.303448.533776-.563098.662412-3.066223.0555-6.161634.007546-9.238955 0l.0328-5.9612s.005032-.267257.08321-.364484c.080191-.100233.347327-.165342.347327-.165342z"/>
        <path fill="none" stroke="#fff" stroke-width=".5" d="M16.818245 8.264234h8.710157s.576752.171333.795008.364484c.252375.22335.529824.861031.529824.861031-.055742 1.302433.110718 2.677988.032197 3.940686-.131556.300706-.500263.42649-.72845.662413-.201454.208282-.303448.533776-.563098.662413-3.066223.0555-6.161634.007546-9.238955 0l.0328-5.961201s.005032-.267256.08321-.364483c.080191-.100233.347327-.165343.347327-.165343z"/>
    </g>
</svg>
