<svg xmlns="http://www.w3.org/2000/svg" viewBox="0 0 612 612">
    <path fill="#fefefe" d="M602 544.2H10.5V67.9H602v476.3zM37.8 299c88.9 62.4 176.8 124.2 265.2 186.3 91.9-60 184.3-120.3 277.4-181.1-91.5-63.2-182.3-125.9-273.3-188.8C217.9 176.2 128.4 237.2 37.8 299z"/>
    <path fill="#010101" d="M37.8 299c90.6-61.8 180.1-122.8 269.3-183.6 91 62.9 181.8 125.6 273.4 188.8C487.4 365 394.9 425.3 303 485.3 214.6 423.2 126.7 361.5 37.8 299zm17.5-1.3c2.1 1.8 3.5 3.2 5.1 4.3 20.7 14.5 41.3 29 62 43.5 7 4.9 14.1 9.5 21.1 14.3 7 4.8 13.9 9.8 20.9 14.7 7 4.9 14.2 9.5 20.8 14.8 6.2 5 13.3 8.7 19.7 13.4 31.5 22.8 63.7 44.8 95.5 67.2 2.6 1.8 4.4 1.8 7 .1 8.8-5.9 17.7-11.6 26.6-17.4 29.3-19.1 58.6-38.1 87.8-57.2 14.1-9.2 28.1-18.7 42.2-27.9 15.1-9.8 30.3-19.3 45.4-29.1 16.3-10.5 32.5-21.2 49.1-32.1-2.4-2.1-4.1-4-6-5.3-52.1-36.6-104.3-73.2-156.5-109.8-28.3-19.9-56.7-39.8-85-59.8-2.7-1.9-4.6-1.7-7.3.1-30.4 20.7-61 41.2-91.5 61.7-33.1 22.2-66.3 44.2-99.4 66.3-12.6 8.4-25.1 17.1-37.7 25.6-6.2 3.9-12.5 7.9-19.8 12.6z"/>
    <path fill="#e5b236" d="M55.3 297.7c7.3-4.7 13.6-8.7 19.8-12.8 12.6-8.5 25.1-17.1 37.7-25.6 33.1-22.1 66.3-44.1 99.4-66.3 30.6-20.5 61.1-41 91.5-61.7 2.7-1.9 4.6-2.1 7.3-.1 28.3 20 56.6 39.9 85 59.8 52.2 36.6 104.3 73.2 156.5 109.8 2 1.4 3.6 3.2 6 5.3-16.7 10.9-32.8 21.5-49.1 32.1-15.1 9.8-30.3 19.3-45.4 29.1-14.1 9.2-28.1 18.7-42.2 27.9-29.2 19.1-58.5 38.2-87.8 57.2-8.9 5.8-17.8 11.5-26.6 17.4-2.5 1.7-4.4 1.7-7-.1-31.8-22.4-64-44.4-95.5-67.2-6.5-4.7-13.5-8.4-19.7-13.4-6.6-5.3-13.8-9.9-20.8-14.8s-13.9-9.8-20.9-14.7c-7-4.8-14.1-9.5-21.1-14.3-20.7-14.4-41.4-28.9-62-43.5-1.6-.9-3-2.3-5.1-4.1zm249.4 163.5c1.6-1.4 3.1-2.8 4.5-4.2.6-.6 1.1-1.5 1.8-1.9 3.1-1.6 6.6-2.6 9.5-4.5 24.2-15.4 47.9-31.4 72-46.8 22.5-14.5 44.9-29.2 67.3-43.7 13.7-8.9 27.3-17.8 41-26.7 12.7-8.3 25.5-16.6 38.2-24.9 4.4-2.9 4.3-3.1-.1-6.3-8.7-6.1-17.5-12.2-26.2-18.4-26.8-19-53.5-38.2-80.3-57.1-11.3-8-22.9-15.5-34.3-23.2-15.7-10.7-31.3-21.3-46.9-32.2-13.5-9.5-26.9-19.1-40.2-28.9-2.7-2-4.4-2.1-7.2-.2-30.6 20.6-61.3 41.1-91.9 61.7-21.8 14.6-43.4 29.4-65.2 44-21.1 14.2-42.2 28.4-63.3 42.5-2.9 1.9-6.1 3.5-8.9 5.6-.7.6-.8 3.6-.1 4.1 4.6 3.7 9.4 7 14.2 10.4 11 7.9 21.9 16 33 23.7 12.5 8.8 25.3 17.2 37.8 25.9 14.6 10.1 29.2 20.4 43.7 30.6 16.9 11.9 33.8 23.9 50.7 35.8 15.6 10.9 31.3 21.7 47 32.6 1.2.7 2.4 1.2 3.9 2.1z"/>
    <path fill="#010101" d="M304.7 461.2c-1.5-.9-2.7-1.4-3.8-2.1-15.7-10.8-31.4-21.7-47-32.6-17-11.9-33.8-23.9-50.7-35.8-14.5-10.2-29.1-20.5-43.7-30.6-12.6-8.7-25.3-17.1-37.8-25.9-11.1-7.8-22-15.8-33-23.7-4.8-3.4-9.6-6.8-14.2-10.4-.7-.6-.6-3.6.1-4.1 2.7-2.2 6-3.7 8.9-5.6 21.1-14.1 42.2-28.3 63.3-42.5 21.7-14.7 43.4-29.4 65.2-44 30.6-20.6 61.3-41 91.9-61.7 2.8-1.9 4.6-1.8 7.2.2 13.3 9.8 26.7 19.4 40.2 28.9 15.5 10.9 31.2 21.5 46.9 32.2 11.4 7.8 23 15.3 34.3 23.2 26.8 18.9 53.5 38.1 80.3 57.1 8.7 6.2 17.4 12.3 26.2 18.4 4.4 3.1 4.5 3.4.1 6.3-12.7 8.3-25.5 16.6-38.2 24.9-13.7 8.9-27.3 17.8-41 26.7-22.4 14.6-44.8 29.3-67.3 43.7-24.1 15.5-47.8 31.5-72 46.8-2.9 1.9-6.4 2.9-9.5 4.5-.7.4-1.2 1.3-1.8 1.9-1.5 1.4-3 2.8-4.6 4.2zm-74.4-135.5c.4-.5.8-1.1 1.1-1.6-3.7-2.1-7.9-3.7-11-6.4-9.3-8.3-14.6-19.1-17.1-31.3-.3-1.3.2-3.5 1.1-4.2 8.1-6.4 11.5-14.4 10.7-24.9-.7-9.2-4.1-15.8-13.2-17.4-8.6-1.5-17.4-1.2-27-1.8.6 4.7 1.4 8.3 1.5 11.9.1 17.8.2 35.7 0 53.5 0 2.6-1.2 5.2-2.2 7.7-.9 2.5-1 4.2 2.3 4.1h14.7c-5.7-10.6-3.1-20.5-2.6-30.7 8.4 19.9 16.8 39.3 41.7 41.1zm8.6 69.1c1.1.1 2.5.2 3.9.2 37.7 0 75.3 0 113 .1 3.5 0 6-.5 6.4-5-2-.3-4-.9-6-.9-32.6-.1-65.2-.1-97.8-.1-1.3 0-2.7.3-3.9-.1-.9-.3-2-1.5-2-2.3 0-17.5.1-35 .2-52.5 0-1.9-.2-3.8-.2-5.3h-16.1c1.4 3.2 3.6 5.9 3.6 8.6-.3 19 1.3 38-1.1 57.3zm88.6-133.1c-12.4-1.4-21.4 4.5-24.7 16.3-2.3 8.5-1.6 16.9 2.2 24.9.9 1.9 1.8 4.2 3.4 5.5 5.9 4.6 12.6 4.8 19.3 1.9 2.3-1 3.7-1.4 6 .1 3.4 2.3 8.1.8 11.2-3.1-6.2.1-6.5-3.7-6.5-8.4.2-18.5.1-37 .1-55.5v-4.6h-11.1c.1 7.8.1 15.2.1 22.9zm93.8 31.4c14.4 2.7 23.5-2.5 26.3-9.4 1.1-2.7 1.8-6.5.7-9-1.9-4.2-5.2-7.7-8.5-12.3 1.3.1 2.8.2 4.3.4 2 .3 4.4 1.6 6 1 1.9-.8 3.1-3.2 4.5-4.9-1.8-1.3-3.4-3.3-5.3-3.7-5.9-1.1-10.8 1.3-14.9 5.6-.7.7-1.8 1.2-2.9 1.5-4 .9-8 1.8-12.1 2.5-8.1 1.3-13.7 13.6-7.3 21.6 3.1 3.9 4.3 7.3 4 11.7-.2 2.8 1 3.7 3.8 3.5 3.9-.3 7.9-.7 11.8-.1 2.3.4 5.1 2.2 6.4 4.1 2.5 3.7 1.1 8.8-2.2 11.5-3.2 2.6-9.9 2.5-13.4-.1-4.2-3.2-2.6-6.8-.2-10.6-1.3-.5-2.7-1.5-3.3-1.2-2.9 1.6-6.7 2.9-8.1 5.4-1.6 3-.2 6.7 3 9.3 7.4 5.9 22.2 6.8 29.8 1.3 4.2-3 8-6.7 7.1-12.6-1-6.4-5.3-10-11.2-11.7-2.6-.7-5.5-.7-8.2-.8-3.4-.1-6.8 0-10.4 0 0-.8.1-1.7.3-3zm-52-29.8c1.3 1.9 3 3.2 3.1 4.5.1 4.5-.1 9-.6 13.5-1 9.6 2.9 19.8-3.7 29.8 5.2 0 9.5.2 13.8-.1.8-.1 2-2 2-3-.2-10.3-.7-20.5-.8-30.8-.1-4.7 2.6-7.6 6-7.4 4.8.3 4.8 4 4.5 7.2-.9 11.1 2.4 22.6-2.5 33.5h15.4c-.6-5.5-1.4-10.5-1.6-15.5-.3-6.5-.2-13.1 0-19.6.1-5.3-1-9.9-5.8-12.7-5.1-2.9-10-1.6-14.8 1.3-1.4.8-3 1.2-4.5 1.8-.1-.3-.3-.6-.4-.8.4-.5.8-1 1.4-1.8-3.8.1-7.1.1-11.5.1zm-84.5 13.6c-3.4 0-5.3-.1-7.2 0-15.5.7-21.7 15.6-15.6 27.4 2.3 4.3 6.1 7.2 11 7.2 4.1 0 8.2-1.3 12.4-1.9 1.3-.2 2.7-.1 3.9.4 3.9 1.6 9.1.5 11.5-2.7-5.7-1.7-5.8-1.9-5.8-8.2 0-8.5.1-17 0-25.5-.1-5.7-2.4-10.1-7.3-10.8-5.3-.8-11-.4-16.2.8-2.2.5-5 4.1-5.2 6.5-.3 3.8 2.9 5.7 7.6 5.3.3-2.1.6-4.3 1-7.7 1.9.1 5.1-.5 6.4.7 1.6 1.7 2 5 3.5 8.5zm-28.2 11.3c-.6-5-.7-8.9-1.6-12.7-2.1-8.6-7.9-13.6-16-14-8.8-.5-14.9 3.5-18.4 11.8-3.4 8.3-3.6 16.7-1.2 25.4 3.6 13 13.8 16.3 25.5 12.9 6-1.7 9.9-8.7 8.6-16.4-1.9 2.2-3.6 3.4-4.4 5.1-3.1 6.5-12.4 7.8-16.1 1.7-2.3-3.8-3.2-8.5-5.1-13.8h28.7zm45 93.9c-5-9-2.4-18-2.5-26.8-.1-3.1 2.2-5.9 6.1-5.6 3.9.3 5.5 3.1 5.2 6.5-.6 8.6 2.2 17.5-3.1 25.9h14.9c-.6-5.4-1.3-10.4-1.7-15.4-.3-4.1-.2-8.2 0-12.3.2-5.4-1.6-9.8-6.6-12.1-4.9-2.3-9.4-1.5-13.5 2.2-.7.7-3.2.9-3.2.7-2.2-5.9-6.4-1.6-9.8-2.9 2.3 17.9 1.7 30.7-1.7 39.8h15.9zm35.9-16.7h24.4c-.1-7.5.5-14.5-5.3-20-5.5-5.1-18.9-5.5-22.8-.4-6.6 8.7-8.1 18.5-4.7 28.7 3.4 10.2 17.4 14.3 26.1 7.9 3.4-2.5 5.3-6 4.5-10.8-2.8 2.1-4.8 5.1-7.5 7.1-3.4 2.4-7.6 2.3-10.1-1.2-2.1-2.8-2.8-6.6-4.6-11.3zm28.4 6.7c-.9 8.6-.6 9.8 2.6 10.8 2.9.9 6 1.6 9 1.9 7.9.7 14.9-3.8 16.5-10.2 1.9-7.4-.7-11.8-9.2-16.1-2.9-1.5-5.9-2.9-8.5-4.8-1-.8-1.8-2.9-1.5-4.1.3-1.2 2.1-2.9 3.2-2.9 2.6.1 5.2.9 7.6 2 1.3.6 2.1 2.2 3.1 3.4.5 0 .9-.1 1.4-.1.3-2.6.6-5.2.9-8.5-5.1-.6-9.5-1.5-13.9-1.6-4.3 0-8.1 1.5-10.1 6s-1.1 8.5 2.2 11.5c3.5 3.2 7.6 5.9 11.5 8.6 2.9 2 5.5 4 3.5 7.9-1.7 3.3-6.3 3.9-10.1 1.5-2.4-1.6-5-3.2-8.2-5.3zm-17.6-109.3c.4 6.1 1 11.8 1.1 17.6.2 8 .1 16 0 24 0 3.6 1.5 6.1 5.1 6.6 2.8.4 5.7.1 7.7.1-.7-5.5-1.5-10.3-1.8-15.1-.3-5.2-.1-10.4-.1-15.7v-17.6c-4.6.1-8.6.1-12 .1zm-70.7 119.4c-.4-4.3-.8-8-.9-11.6-.2-5.7-.1-11.5 0-17.2 0-11.2-.3-11.4-11.4-10.9-.3 0-.6.2-1 .3 3.6 13 2.2 26.1.9 39.4h12.4zm83.6-131c-.2-3.5-1.7-6.4-5.4-6.5-3.7-.2-5.6 2.4-5.8 5.9-.2 3.6 1.7 6.2 5.3 6.4 3.7.2 5.4-2.4 5.9-5.8zm-90.8 86.7c4 .7 5.4-2.1 5.7-5.5.3-3.4-1.8-5.7-5.1-5.9-3.7-.2-5.7 2.2-5.7 5.8-.1 3.1.6 5.9 5.1 5.6z"/>
    <path fill="#e5b236" d="M230.3 325.7c-24.9-1.8-33.3-21.2-41.7-41.1-.6 10.2-3.2 20.2 2.6 30.7h-14.7c-3.3 0-3.3-1.7-2.3-4.1.9-2.5 2.1-5.1 2.2-7.7.2-17.8.2-35.7 0-53.5 0-3.6-.9-7.2-1.5-11.9 9.6.6 18.4.3 27 1.8 9.1 1.6 12.5 8.2 13.2 17.4.8 10.5-2.6 18.4-10.7 24.9-.9.7-1.4 2.9-1.1 4.2 2.5 12.2 7.8 23 17.1 31.3 3.1 2.8 7.3 4.3 11 6.4-.4.5-.8 1.1-1.1 1.6zm-42.9-79.9c0 9.3-.1 18.7.2 28.1 0 1 2.1 2.7 3.3 2.8 5.8.3 10-2.8 11.2-8.6.7-3.6.8-7.4.6-11.1-.4-8.9-5.7-12.8-15.3-11.2zm51.5 149c2.5-19.3.8-38.4 1-57.4 0-2.7-2.2-5.4-3.6-8.6h16.1c.1 1.6.2 3.4.2 5.3-.1 17.5-.2 35-.2 52.5 0 .8 1.2 2 2 2.3 1.2.4 2.6.1 3.9.1 32.6 0 65.2 0 97.8.1 2 0 4.1.6 6 .9-.4 4.5-2.9 5-6.4 5-37.7-.1-75.3-.1-113-.1-1.3.2-2.8 0-3.8-.1zm88.6-133.1v-22.9h11.1v4.6c0 18.5.1 37-.1 55.5-.1 4.8.3 8.5 6.5 8.4-3.1 4-7.9 5.4-11.2 3.1-2.3-1.6-3.8-1.1-6-.1-6.7 2.9-13.4 2.7-19.3-1.9-1.6-1.2-2.5-3.5-3.4-5.5-3.8-8-4.5-16.4-2.2-24.9 3.1-11.8 12.2-17.7 24.6-16.3zm.5 25.8v-11.2c0-3.7-1.7-6.4-5.3-7.1-4-.8-6 2.1-7.4 5.3-.7 1.6-1.1 3.4-1.4 5.1-1.2 7.1-1.7 14.3 1.6 21 1.6 3.2 4.4 4.2 7.8 3.5 3.4-.7 4.8-2.9 4.8-6.3-.1-3.4-.1-6.9-.1-10.3zm93.3 5.6c-.2 1.3-.3 2.2-.5 3.3 3.6 0 7-.1 10.4 0 2.8.1 5.6.1 8.2.8 5.9 1.6 10.2 5.3 11.2 11.7 1 6-2.9 9.6-7.1 12.6-7.6 5.5-22.3 4.5-29.8-1.3-3.2-2.5-4.6-6.3-3-9.3 1.3-2.5 5.2-3.9 8.1-5.4.6-.3 2 .7 3.3 1.2-2.4 3.8-4 7.4.2 10.6 3.5 2.6 10.2 2.7 13.4.1 3.3-2.7 4.7-7.8 2.2-11.5-1.3-2-4-3.8-6.4-4.1-3.8-.6-7.8-.2-11.8.1-2.8.2-4-.7-3.8-3.5.3-4.5-.9-7.8-4-11.7-6.4-8-.8-20.3 7.3-21.6 4.1-.7 8.1-1.6 12.1-2.5 1-.2 2.2-.7 2.9-1.5 4.1-4.3 9-6.7 14.9-5.6 1.9.4 3.6 2.4 5.3 3.7-1.5 1.7-2.7 4.1-4.5 4.9-1.6.7-4-.7-6-1-1.5-.2-3-.3-4.3-.4 3.3 4.6 6.7 8.1 8.5 12.3 1.1 2.4.4 6.3-.7 9-2.6 6.5-11.7 11.8-26.1 9.1zm8.2-5c4.9-.1 9.3-5.1 9.1-10.6-.2-5.2-4.8-10.1-9.6-10-4.5.1-9 5.4-8.9 10.6 0 5.6 4.4 10.1 9.4 10zm-60.2-24.8h11.5c-.6.8-1 1.3-1.4 1.8.1.3.3.6.4.8 1.5-.6 3.1-1 4.5-1.8 4.8-2.8 9.7-4.2 14.8-1.3 4.8 2.7 5.9 7.4 5.8 12.7-.2 6.5-.3 13.1 0 19.6.2 5 1 9.9 1.6 15.5h-15.4c4.9-10.8 1.6-22.3 2.5-33.5.3-3.2.3-6.9-4.5-7.2-3.5-.2-6.1 2.7-6 7.4.2 10.3.7 20.5.8 30.8 0 1-1.2 2.9-2 3-4.3.3-8.6.1-13.8.1 6.6-10.1 2.7-20.2 3.7-29.8.5-4.5.7-9 .6-13.5-.1-1.4-1.8-2.7-3.1-4.6zm-84.5 13.6c-1.4-3.6-1.9-6.8-3.8-8.7-1.3-1.3-4.5-.6-6.4-.7-.4 3.4-.7 5.6-1 7.7-4.7.4-7.9-1.5-7.6-5.3.2-2.4 3-6 5.2-6.5 5.2-1.2 10.9-1.5 16.2-.8 5 .7 7.3 5.1 7.3 10.8.1 8.5 0 17 0 25.5 0 6.3.1 6.5 5.8 8.2-2.4 3.2-7.6 4.3-11.5 2.7-1.2-.5-2.6-.5-3.9-.4-4.1.6-8.3 1.9-12.4 1.9-4.9 0-8.8-2.8-11-7.2-6.1-11.8.1-26.7 15.6-27.4 2.2.2 4.1.2 7.5.2zm-.6 18.7c0-2.1.4-4.4-.1-6.3-.5-1.6-2.2-4.1-3.3-4-2.8.2-6.4.7-8.2 2.5-3.8 3.7-3.2 8.9-.7 13.1 1.2 2.1 4.4 3.9 6.9 4 4.8.4 5.5-1.3 5.4-9.3z"/>
    <path fill="#e5b236" d="M256.6 288.2H228c1.9 5.2 2.7 9.9 5.1 13.8 3.7 6.1 13 4.9 16.1-1.7.8-1.7 2.5-2.9 4.4-5.1 1.2 7.7-2.6 14.6-8.6 16.4-11.7 3.4-21.9.1-25.5-12.9-2.4-8.7-2.2-17.1 1.2-25.4 3.4-8.3 9.6-12.3 18.4-11.8 8.1.5 14 5.4 16 14 .8 3.8.9 7.7 1.5 12.7zm-11.3-6.9c-1.2-3.8-1.8-7.1-3.2-9.9-.8-1.6-3.1-3.4-4.6-3.4-1.9.1-4.5 1.6-5.3 3.2-1.4 2.9-1.7 6.4-2.6 10 5.5.1 10.3.1 15.7.1zm56.3 100.8h-16c3.4-9.2 4-21.9 1.7-39.8 3.4 1.4 7.6-3 9.8 2.9.1.2 2.5 0 3.2-.7 4.1-3.7 8.7-4.5 13.5-2.2 5 2.3 6.8 6.7 6.6 12.1-.1 4.1-.2 8.2 0 12.3.3 5 1.1 10 1.7 15.4h-14.9c5.3-8.4 2.5-17.3 3.1-25.9.2-3.4-1.4-6.2-5.2-6.5-3.9-.3-6.2 2.5-6.1 5.6.2 8.8-2.4 17.9 2.6 26.8zm35.9-16.7c1.8 4.7 2.5 8.5 4.6 11.3 2.5 3.4 6.8 3.5 10.1 1.2 2.7-1.9 4.7-4.9 7.5-7.1.8 4.8-1.1 8.3-4.5 10.8-8.7 6.4-22.8 2.2-26.1-7.9-3.4-10.3-1.9-20 4.7-28.7 3.9-5.1 17.3-4.7 22.8.4 5.8 5.5 5.2 12.4 5.3 20h-24.4zm1.5-6.8h12.9c-.8-7.4-3.5-11.3-7.3-10.9-3.7.4-5.7 4.4-5.6 10.9zm26.9 13.5c3.3 2.1 5.8 3.7 8.4 5.4 3.8 2.4 8.4 1.9 10.1-1.5 2-3.9-.7-5.9-3.5-7.9-4-2.7-8-5.4-11.5-8.6-3.3-3.1-4.2-7-2.2-11.5s5.8-6.1 10.1-6c4.4 0 8.9 1 13.9 1.6-.4 3.3-.7 5.9-.9 8.5-.5 0-.9.1-1.4.1-1-1.2-1.8-2.8-3.1-3.4-2.4-1.1-5-1.9-7.6-2-1.1-.1-2.9 1.7-3.2 2.9-.3 1.2.5 3.4 1.5 4.1 2.6 1.9 5.6 3.4 8.5 4.8 8.5 4.2 11.1 8.7 9.2 16.1-1.7 6.4-8.6 10.8-16.5 10.2-3-.2-6.1-1-9-1.9-3.5-1.1-3.7-2.3-2.8-10.9zm-17.6-109.3h12v17.6c0 5.2-.2 10.5.1 15.7.3 4.8 1.1 9.6 1.8 15.1-2 0-4.9.3-7.7-.1-3.6-.5-5.1-3-5.1-6.6.1-8 .2-16 0-24-.2-5.9-.7-11.7-1.1-17.7zm-70.7 119.4h-12.4c1.2-13.4 2.6-26.5-.9-39.4.4-.1.7-.3 1-.3 11.1-.5 11.4-.2 11.4 10.9 0 5.7-.1 11.5 0 17.2.1 3.6.5 7.3.9 11.6zm83.6-131c-.5 3.4-2.3 6-5.9 5.8-3.5-.2-5.5-2.8-5.3-6.4.2-3.5 2.1-6.1 5.8-5.9 3.7.1 5.2 3 5.4 6.5zm-90.8 86.7c-4.4.3-5.2-2.6-5.2-5.6 0-3.6 2-6 5.7-5.8 3.3.2 5.4 2.4 5.1 5.9-.3 3.4-1.6 6.2-5.6 5.5z"/>
    <path fill="#010101" d="M187.4 245.8c9.6-1.6 14.9 2.3 15.4 11.1.2 3.7.1 7.5-.6 11.1-1.2 5.9-5.4 9-11.2 8.6-1.2-.1-3.3-1.8-3.3-2.8-.4-9.3-.3-18.7-.3-28zM328 287.5v10.3c.1 3.4-1.4 5.6-4.8 6.3-3.4.7-6.2-.3-7.8-3.5-3.3-6.8-2.8-13.9-1.6-21 .3-1.7.7-3.5 1.4-5.1 1.4-3.2 3.3-6.1 7.4-5.3 3.6.7 5.3 3.5 5.3 7.1.1 3.7.1 7.5.1 11.2zm101.5.6c-5 .1-9.3-4.5-9.4-9.9-.1-5.2 4.4-10.6 8.9-10.6 4.7-.1 9.4 4.8 9.6 10 .1 5.4-4.2 10.4-9.1 10.5zm-145.3 7.5c0 8.1-.6 9.7-5.4 9.4-2.4-.2-5.6-2-6.9-4-2.5-4.2-3.1-9.3.7-13.1 1.9-1.8 5.4-2.4 8.2-2.5 1.1-.1 2.8 2.4 3.3 4 .6 1.8.1 4.1.1 6.2zm-38.9-14.3h-15.7c.9-3.6 1.2-7.1 2.6-10 .8-1.6 3.4-3.2 5.3-3.2 1.5 0 3.8 1.8 4.6 3.4 1.4 2.8 2 6 3.2 9.8zm93.7 77.3c-.1-6.4 1.9-10.5 5.6-10.9 3.8-.4 6.6 3.4 7.3 10.9H339z"/>
</svg>
