<svg xmlns="http://www.w3.org/2000/svg" id="Layer_1" width="192" height="192" x="0" y="0" version="1.1" viewBox="0 0 192 192" xml:space="preserve">
    <style id="style2" type="text/css"/>
    <g id="g106" transform="translate(5.998767 5.998767) scale(4.23336)">
        <circle id="circle4" class="color-purple color-main" fill="#7d388d" stroke-width="1" cx="21.26" cy="21.26" r="22.677023"/>
        <ellipse id="circle6" class="color-white" fill="#fff" stroke-width="1.368558" cx="21.264076" cy="21.244576" rx="12.423253" ry="12.682917"/>
        <g id="g96" class="color-white" fill="#fff" transform="matrix(1.35448 0 0 1.38279 -7.532081 -8.153463)">
            <path id="path8" d="M7.88 19.23c-.047-.037-.1-.089-.16-.156-.054-.07-.08-.125-.075-.163.006-.037.063-.087.172-.151.091-.058.197-.079.32-.063.063.009.13.037.2.084.098.078.174.139.228.184.093.083.144.129.156.137.218.14.532.327.943.562.448.253.734.387.858.404.11.016.216-.003.317-.057.104-.071.162-.154.175-.25.014-.102-.017-.186-.094-.25-.079-.08-.14-.129-.186-.147.157.021.268.081.334.178.064.098.084.233.061.406-.023.163-.072.291-.148.382-.069.076-.18.103-.336.082-.084-.011-.24-.084-.469-.217-.083-.049-.309-.191-.678-.426-.224-.158-.355-.253-.394-.284-.037.009-.092.024-.167.044-.074.02-.146.042-.213.066-.2.056-.377.117-.531.183-.178.075-.272.13-.281.164-.016.12.003.251.058.391-.085-.072-.17-.169-.252-.29-.098-.133-.143-.224-.136-.273.01-.078.072-.138.184-.184.094-.041.27-.107.533-.196.217-.072.372-.13.464-.174-.025-.022-.079-.057-.164-.107-.068-.042-.15-.07-.244-.083-.192-.025-.349.042-.475.204z"/>
            <path id="path10" d="M7.506 17.313c-.04.059-.117.077-.233.054-.06-.033-.078-.11-.054-.229.034-.063.11-.081.229-.057.062.04.081.117.058.232z"/>
            <path id="path12" d="M9.357 18.197c-.028.057-.047.102-.057.136-.01.04-.022.107-.036.202-.012.061-.027.126-.045.196-.017.061-.036.1-.057.116l-1.277-.345-.074-.353.402.109c-.013-.044-.054-.121-.122-.231-.056-.083-.101-.173-.136-.267-.026-.086-.027-.171-.004-.254.057-.132.148-.239.272-.32.117-.079.243-.101.376-.064.096.025.205.115.328.267.139.164.246.32.318.467.088.173.126.288.112.341zm-1.138-.399c-.023.084-.024.15-.003.198.038.073.078.131.122.177.057.059.092.107.108.147l.671.181c-.006-.108 0-.198.019-.27.023-.086.054-.154.092-.206.013-.05-.033-.14-.14-.268-.099-.129-.2-.211-.301-.244-.094-.026-.181-.016-.262.028-.025.013-.092.058-.202.134-.033.04-.068.081-.104.123z"/>
            <path id="path14" d="M7.787 15.491c-.039-.091-.055-.148-.048-.17.009-.023.031-.045.068-.065.027-.009.054-.009.081.001.051.017.091.075.121.174.043.121.065.247.065.378-.01-.009-.039-.036-.086-.084-.026-.026-.047-.046-.061-.06-.015-.014-.031-.03-.048-.049-.002-.002-.032-.044-.092-.125z"/>
            <path id="path16" d="M9.369 17.02c.03.05.061.107.096.17.036.074.052.139.049.196l-1.2-.557c-.006-.037-.011-.073-.018-.108-.007-.036-.011-.067-.015-.093-.01-.076-.015-.116-.013-.118l.516.239c-.003-.019-.034-.118-.094-.296-.056-.133-.096-.264-.117-.395-.013-.127.004-.243.052-.347.076-.163.231-.257.467-.284.002-.008-.011-.069-.035-.183-.018-.088-.029-.178-.035-.269.005-.088.023-.168.057-.239.044-.096.107-.164.19-.205.098-.047.184-.073.26-.073.095-.008.173.002.235.03.083.039.175.13.273.273.099.162.176.317.23.465.057.17.081.299.072.388-.047-.095-.087-.197-.117-.306-.042-.127-.081-.21-.12-.25-.053-.058-.127-.108-.224-.153-.126-.058-.255-.051-.388.021-.133.077-.22.156-.257.238-.042.09-.06.153-.054.19.012.033.046.062.099.087l.093.043c.057.027.116.071.176.133.026.033.092.175.198.426.1.233.148.411.144.533-.058-.12-.099-.227-.123-.322-.041-.112-.08-.19-.113-.233-.052-.056-.126-.106-.223-.151-.126-.058-.254-.051-.388.021-.133.077-.22.158-.26.244-.063.136-.067.264-.011.383.057.142.104.24.144.291z"/>
            <path id="path18" d="M9.581 14.133c.002-.037.004-.069.006-.096.001-.027.003-.059.004-.094l.009-.123.446.343c.006-.038-.001-.144-.02-.319-.023-.191-.033-.326-.031-.406.019-.121.064-.227.136-.32.102-.134.271-.196.506-.184.013-.031.018-.092.011-.182.003-.101.012-.19.029-.266.017-.075.051-.148.104-.216.065-.085.142-.14.23-.167.092-.022.181-.028.268-.016.1.017.175.044.226.083.08.061.147.171.2.328.064.168.106.334.128.499.018.172.014.304-.014.394-.01-.054-.026-.163-.048-.324-.006-.122-.026-.211-.057-.265-.043-.069-.107-.136-.19-.2-.108-.083-.235-.102-.382-.056-.148.041-.25.097-.304.168-.064.083-.093.142-.089.177.009.043.034.08.074.111l.081.062c.063.048.109.101.142.16.026.064.059.217.1.459.049.261.057.445.024.552-.018-.061-.037-.169-.054-.325-.01-.132-.03-.223-.06-.272-.038-.066-.098-.13-.18-.192-.108-.083-.234-.101-.381-.056-.149.041-.253.101-.311.178-.059.075-.086.165-.086.27-.009.1.002.192.033.278.018.08.033.124.043.131l1.729 1.326c.08.061.145.169.194.324.052.136.089.297.111.482.018.17.015.279-.01.328-.012-.08-.022-.179-.029-.298-.008-.074-.027-.161-.054-.26-.039-.077-.091-.141-.157-.191z"/>
            <path id="path20" d="M11.515 10.313c.003-.1.013-.157.029-.173.017-.018.046-.028.089-.031.027.004.052.016.073.036.039.037.05.107.035.209-.011.128-.045.252-.101.369-.006-.011-.02-.049-.042-.113-.013-.034-.022-.061-.03-.08-.009-.019-.016-.04-.024-.065 0-.003-.01-.053-.029-.152z"/>
            <path id="path22" d="M13.246 9.964c.152-.132.296-.27.432-.411-.017.181-.061.331-.13.448-.063.128-.13.223-.2.284l-.894.775c.035-.026.138-.067.311-.127.154-.046.335-.047.542-.003.219.039.431.176.637.413.271.313.385.616.343.909-.046.302-.198.565-.457.788-.474.412-.906.395-1.294-.052-.154-.177-.233-.364-.24-.561-.01-.204.073-.382.248-.534.114-.098.252-.142.414-.13.159.01.284.068.376.174.068.079.106.174.111.284-.003.109-.026.193-.066.249-.029-.163-.086-.292-.169-.388-.105-.12-.213-.186-.324-.198-.124.001-.231.041-.32.118-.088.077-.14.197-.154.359-.023.162.033.321.167.476.157.181.352.279.584.295.228.027.433-.04.617-.199.375-.325.342-.743-.099-1.252-.278-.321-.557-.504-.837-.55-.131-.018-.258-.007-.381.033-.124.039-.24.105-.348.198-.168.146-.264.293-.288.442-.015.152.007.337.066.557-.126-.158-.196-.321-.209-.49-.012-.161.021-.33.098-.505.078-.156.188-.295.332-.419l.593-.514z"/>
            <path id="path24" d="M15.419 8.703c.174-.103.34-.212.5-.327-.05.175-.12.314-.209.418-.085.115-.168.196-.248.243l-1.019.602c.039-.019.15-.041.33-.069.16-.017.337.014.533.094.208.078.392.251.552.521.21.357.269.675.173.956-.1.288-.297.52-.591.694-.542.32-.962.225-1.263-.284-.12-.203-.164-.401-.136-.595.027-.202.14-.362.341-.481.13-.077.273-.094.431-.054.154.039.267.118.338.238.054.09.073.19.059.299-.022.107-.06.185-.11.234.001-.166-.031-.304-.097-.413-.08-.137-.175-.221-.282-.253-.123-.021-.234-.001-.335.058-.101.06-.174.169-.217.326-.053.155-.026.321.079.499.122.206.295.338.521.396.219.067.433.039.642-.085.428-.252.47-.669.127-1.249-.215-.365-.458-.596-.724-.692-.125-.041-.252-.053-.381-.037-.128.016-.254.061-.377.133-.192.113-.313.241-.362.382-.043.147-.055.334-.036.559-.096-.178-.135-.351-.117-.519.017-.161.079-.321.186-.481.106-.138.239-.255.402-.352l.676-.399z"/>
            <path id="path26" d="M16.62 7.419c-.027-.067-.006-.114.063-.14.023-.009.05-.01.081-.004.03.002.067.024.112.067.046.018.097.048.155.091.057.044.105.094.143.153-.014-.001-.026-.003-.037-.004s-.035-.003-.076-.006c-.063-.002-.15-.016-.261-.043-.097-.013-.156-.051-.18-.114zm.374-.232c-.039-.102-.025-.165.04-.19.067-.026.119.008.155.103.029.075.048.156.059.243.014.11.014.181 0 .215-.006-.006-.013-.012-.018-.018-.005-.005-.013-.015-.022-.028-.009-.013-.017-.024-.022-.033-.027-.025-.043-.041-.046-.049-.067-.085-.116-.167-.146-.243zm.406-.089c.027-.08.06-.128.101-.144.019-.007.048-.003.084.014.029.011.048.031.06.06.016.042-.003.11-.058.204-.062.103-.145.2-.25.29.003-.032.004-.057.007-.074.001-.017.003-.037.005-.06-.002-.025.001-.067.011-.127.01-.064.024-.119.04-.163z"/>
            <path id="path28" d="M16.977 9.384c-.019.055-.043.115-.071.181-.034.075-.074.129-.121.162l-.332-1.28c.025-.028.049-.056.073-.083.023-.028.045-.051.064-.071.051-.056.079-.085.083-.086l.143.55c.014-.014.07-.101.169-.261.067-.128.144-.242.231-.341.089-.091.189-.151.301-.181.173-.045.345.015.516.179.008-.004.048-.052.119-.143.056-.07.118-.136.185-.198.071-.053.146-.089.221-.108.102-.026.195-.021.28.017.099.044.172.096.222.153.066.067.108.134.126.2.023.09.01.218-.038.384-.062.179-.133.338-.213.473-.095.153-.179.253-.254.302.043-.096.097-.191.162-.285.071-.112.11-.195.117-.25.009-.075.001-.164-.025-.268-.035-.134-.122-.229-.263-.287-.144-.054-.26-.07-.347-.047-.096.025-.156.051-.181.079-.018.03-.019.074-.004.133l.026.098c.016.061.019.136.009.22-.009.041-.077.182-.203.423-.116.226-.223.376-.32.451.056-.121.113-.221.171-.3.06-.103.097-.182.108-.235.01-.075.001-.165-.026-.268-.034-.133-.121-.229-.262-.286-.144-.054-.262-.07-.353-.046-.146.038-.247.116-.303.235-.074.134-.118.233-.134.297z"/>
            <path id="path30" d="M19.35 7.713c.03-.021.056-.04.078-.057.022-.016.047-.035.075-.056l.1-.071.019.562c.033-.02.11-.093.234-.218.133-.138.231-.233.293-.283.105-.061.216-.094.333-.098.169-.005.323.086.465.275.032-.01.081-.046.148-.107.08-.063.154-.112.224-.147.069-.035.147-.054.232-.057.108-.004.199.02.275.071.077.057.138.123.183.198.051.087.078.162.08.227.004.101-.04.221-.127.363-.09.156-.191.294-.305.416-.122.124-.226.204-.313.239.035-.042.108-.123.221-.243.09-.083.146-.154.169-.213.026-.077.037-.168.034-.273-.004-.136-.071-.246-.2-.33-.127-.088-.234-.131-.322-.128-.106.003-.17.018-.193.044-.028.034-.041.076-.039.128l.004.102c.003.079-.008.149-.033.211-.033.061-.13.184-.29.369-.17.204-.308.327-.411.37.036-.053.108-.136.217-.249.095-.091.153-.165.172-.219.027-.07.038-.158.035-.261-.005-.136-.071-.246-.2-.33-.127-.088-.238-.131-.335-.128-.094.004-.182.039-.263.105-.082.056-.147.124-.194.201-.052.064-.076.103-.076.115l.074 2.177c.003.101-.04.22-.127.357-.072.126-.173.257-.302.391-.12.122-.206.188-.259.2.053-.059.124-.13.212-.211.052-.053.107-.122.166-.207.034-.079.05-.161.047-.243z"/>
            <path id="path32" d="M23.217 8.525c.028-.101.104-.207.232-.317.144-.129.282-.231.414-.306.14-.073.263-.117.37-.132-.058.039-.153.095-.283.168-.114.063-.189.115-.226.156-.046.056-.083.14-.113.251-.036.125-.004.25.093.375.093.118.183.188.268.212.109.03.176.037.2.02.035-.02.06-.057.075-.111l.027-.096c.023-.081.052-.146.091-.192.063-.056.194-.147.392-.274.224-.137.391-.213.502-.227-.095.073-.19.131-.286.175-.112.057-.186.109-.225.156-.047.062-.084.143-.113.245-.034.125-.003.25.093.375.093.117.188.19.283.216.087.024.185.02.292-.013.119-.052.202-.098.247-.137.067-.052.103-.084.107-.096l.116-.426c.008-.027.047-.067.116-.119.068-.051.162-.096.281-.134l-.774 2.81c-.023.086-.098.184-.225.297-.146.11-.288.198-.425.265-.138.073-.249.117-.334.132.041-.033.124-.085.249-.156.098-.048.178-.099.236-.153.056-.04.097-.107.123-.199l.595-2.167c-.045.011-.142.058-.289.141-.156.089-.278.148-.363.176-.114.035-.231.036-.35.003-.162-.044-.282-.181-.359-.407-.046.011-.101.031-.167.06-.049.019-.135.043-.263.072-.086.016-.166.013-.241-.008-.147-.041-.25-.13-.308-.267-.07-.133-.089-.254-.058-.368z"/>
            <path id="path34" d="M27.314 9.157c.05-.033.116-.068.198-.104.084-.031.142-.039.178-.021.033.016.063.086.092.209.028.105.015.213-.039.324-.028.058-.075.112-.141.165-.104.07-.186.123-.245.16-.107.063-.166.098-.178.106-.2.165-.475.407-.824.726-.378.349-.594.581-.648.694-.049.1-.062.207-.043.319.036.12.097.201.185.243.093.044.182.04.267-.013.1-.05.166-.094.197-.131-.069.143-.16.23-.271.262-.113.031-.248.01-.405-.066-.149-.071-.254-.157-.318-.259-.052-.088-.043-.203.024-.345.036-.076.153-.203.35-.38.072-.064.276-.235.614-.515.218-.165.349-.261.392-.288.002-.038.005-.096.009-.173.004-.076.005-.151.003-.223.007-.207.003-.394-.012-.562-.017-.193-.041-.299-.071-.318-.11-.053-.24-.074-.391-.064.095-.06.213-.111.355-.153.156-.05.257-.065.302-.044.071.033.11.111.118.232.011.101.019.29.023.566.001.231.009.396.023.496.029-.016.078-.057.152-.123.061-.053.112-.121.154-.207.082-.173.066-.344-.05-.513z"/>
            <path id="path36" d="M29.46 9.11c.097-.021.156-.026.175-.015.021.012.039.038.051.078.003.027-.003.054-.017.08-.025.047-.09.075-.193.087-.127.02-.254.018-.382-.007.01-.009.043-.032.099-.069.031-.02.054-.037.07-.049.017-.012.035-.025.057-.038.002-.001.049-.024.14-.067z"/>
            <path id="path38" d="M29.537 10.3c.081.059.207.129.374.21.172.086.278.144.318.173.073.053.127.109.161.167l-.837 1.157-.297-.127.337-.466c-.043-.004-.146.008-.311.039-.196.025-.329.036-.398.033-.12-.003-.229-.04-.328-.111-.038-.028-.078-.086-.12-.176-.058-.09-.083-.211-.077-.364-.289.055-.511.027-.664-.084-.121-.088-.183-.205-.184-.351-.009-.159.015-.278.071-.357.068-.093.134-.157.201-.189.057-.028.121-.054.194-.078.044-.001.094-.006.152-.016.249-.074.431-.101.545-.083.116.016.218.056.307.119.027.025.06.055.097.089.037.035.087.081.15.139.097.099.2.191.309.276zm-.758-.429c-.139-.1-.275-.131-.408-.093-.152.043-.266.117-.341.222-.071.097-.091.211-.063.344.031.134.07.224.117.272l.081.093c.047.034.117.053.208.056.111-.153.193-.25.248-.29.069-.05.177-.086.324-.11.079-.014.15-.029.211-.045.063-.016.117-.03.164-.042zm1.174.792c-.208-.15-.403-.241-.587-.275-.179-.033-.338.046-.475.235-.057.078-.08.187-.07.324.007.14.069.252.185.336.066.048.131.077.196.088.068.011.142.005.222-.018.103-.02.174-.031.211-.034l.311-.431c.009-.011.026-.023.052-.035.026-.022.046-.035.06-.04.012-.011.022-.019.026-.023s.011-.01.019-.017z"/>
            <path id="path40" d="M33.081 11.739c.485.002.774.063.863.184.05.067-.005.184-.166.351-.163.181-.299.315-.408.403-.044.043-.19.17-.434.379-.226.176.053-.062-.115.115-.148.144-.334.362-.558.652-.02.031-.079.107-.176.228-.112.133-.175.227-.191.282-.021.064-.011.124.03.178.033.044.083.083.151.115.024.015.041.026.051.032.009.006.021.013.037.023.007.003.013.005.018.007.006.003.011.005.015.007.004.007.01.01.016.011.001.001.025.019.07.052-.306.07-.548-.016-.727-.255-.118-.158-.148-.302-.088-.432.058-.121.178-.276.358-.465.171-.185.281-.333.329-.447-.033.004-.117.01-.251.018-.134.008-.243.014-.324.019-.372.029-.647.031-.825.007-.223-.016-.371-.073-.445-.173-.07-.094-.016-.208.164-.343.071-.053.159-.087.264-.101.122-.009.222.008.298.052-.027.019-.054.035-.082.045l-.086.065c-.099.073-.121.148-.065.222.054.073.166.115.335.128.18.011.286.011.317.001.18-.018.325-.028.439-.027.062-.006.118-.01.167-.011.048-.001.1-.004.151-.007.064-.017.116-.04.154-.068.029-.024.056-.046.081-.066.026-.021.066-.055.119-.1.054-.047.118-.102.19-.166.072-.064.121-.108.146-.133.07-.059-.257.225-.027.019.076-.064.133-.114.172-.152.039-.037.061-.057.064-.059.244-.244.345-.395.301-.453-.018-.024-.046-.046-.085-.063-.025-.01-.05-.019-.074-.027-.024-.008-.044-.016-.061-.024-.052-.012-.089-.02-.112-.023z"/>
            <path id="path42" d="M34.121 14.354c.063-.037.112-.024.148.039.012.021.018.047.018.079.003.029-.013.069-.048.12-.01.049-.031.105-.064.169-.033.064-.075.119-.127.166 0-.013-.001-.026-.001-.037s-.003-.036-.007-.077c-.008-.062-.01-.15-.002-.264-.003-.095.024-.16.083-.195zm.291.331c.093-.056.159-.053.194.007.037.063.012.119-.076.171-.069.041-.145.073-.229.098-.106.031-.176.043-.212.035.004-.007.01-.014.014-.021.004-.006.013-.015.024-.027.011-.011.021-.021.029-.028.02-.031.034-.048.041-.052.073-.08.144-.142.215-.183zm.155.385c.084.013.137.038.159.075.011.018.01.047 0 .086-.006.03-.023.053-.049.069-.04.023-.11.016-.211-.023-.112-.044-.221-.11-.328-.198.032-.002.057-.004.074-.006.017-.002.036-.004.059-.005.025-.007.068-.011.127-.01.067-.001.123.004.169.012z"/>
            <path id="path44" d="M32.15 15.56c-.017-.061-.033-.107-.049-.138-.019-.037-.055-.095-.109-.173-.033-.053-.064-.112-.097-.176-.03-.057-.041-.098-.036-.124l1.179-.6.291.213-.371.189c.039.023.121.053.247.09.097.024.191.06.279.107.077.047.135.109.175.186.046.136.05.276.013.42-.034.138-.113.238-.236.3-.088.045-.229.052-.422.021-.213-.028-.397-.072-.549-.133-.185-.073-.29-.133-.315-.182zm1.112-.466c-.04-.077-.083-.126-.132-.148-.076-.028-.146-.044-.209-.05-.081-.005-.14-.017-.177-.037l-.62.315c.077.076.134.147.167.214.04.078.064.15.071.213.023.046.118.081.282.106.161.029.29.022.389-.021.087-.044.144-.11.175-.196.009-.026.029-.104.06-.235-.004-.052-.005-.106-.006-.161z"/>
            <path id="path46" d="M35.134 16.542c.091.042.14.073.15.094.009.023.007.054-.007.094-.014.024-.035.042-.061.054-.05.021-.118.005-.206-.049-.114-.061-.214-.14-.301-.237.013-.001.053.001.119.005.037.002.066.003.087.004.02 0 .043.001.069.004.002-.001.053.01.15.031z"/>
            <path id="path48" d="M32.928 16.446c-.055-.017-.116-.038-.184-.063-.076-.03-.132-.067-.167-.113l1.264-.39c.029.023.057.046.086.069.029.023.054.043.074.06.058.049.088.075.09.079l-.544.167c.015.013.104.065.268.157.131.061.248.133.351.215.095.085.159.183.194.293.052.171 0 .346-.156.524.004.007.053.044.148.113.072.053.142.111.206.176.056.069.096.141.118.215.031.101.03.194-.004.28-.04.101-.087.177-.143.229-.065.069-.13.114-.195.134-.088.027-.217.02-.385-.021-.183-.053-.343-.117-.482-.19-.156-.087-.261-.168-.313-.24.098.039.196.088.292.15.115.066.2.101.255.105.075.007.164-.005.267-.037.131-.041.223-.133.274-.275.047-.146.058-.263.031-.349-.029-.094-.058-.154-.086-.177-.031-.016-.075-.016-.132.002l-.097.03c-.061.019-.134.025-.221.019-.04-.006-.185-.067-.431-.183-.231-.106-.386-.206-.465-.3.124.05.226.103.307.157.107.056.187.089.241.098.074.007.164-.006.267-.037.131-.04.223-.133.274-.275.047-.146.057-.264.029-.355-.044-.144-.127-.241-.248-.292-.138-.068-.238-.107-.302-.12z"/>
            <path id="path50" d="M32.985 20.412c-.066-.012-.166-.063-.3-.151-.134-.103-.245-.208-.335-.315-.1-.114-.157-.23-.173-.349-.02-.156.024-.289.132-.4.107-.124.217-.194.331-.208.117-.015.22-.014.312.003.076.017.162.057.259.122.127.084.192.126.195.128-.015-.113-.006-.197.026-.253.034-.06.113-.099.238-.115.147-.019.387.061.723.24.304.155.626.354.962.594.318.224.499.37.543.435-.036-.019-.096-.053-.181-.103-.084-.05-.141-.084-.17-.101-.039-.024-.088-.053-.149-.085-.06-.033-.123-.067-.189-.102-.066-.035-.137-.073-.213-.112-.184-.097-.364-.176-.542-.235-.161-.065-.293-.09-.399-.076-.214.028-.311.13-.288.305.002.012.007.026.015.041.004.031.011.054.021.07.006.016.011.036.014.06-.066-.03-.151-.1-.252-.207-.112-.131-.202-.218-.271-.261-.084-.047-.191-.062-.318-.046-.104.013-.206.082-.307.205-.097.131-.138.262-.12.392.012.093.038.164.079.218.03.041.089.096.177.164.092.061.151.108.18.142z"/>
            <path id="path52" d="M34.587 23.604c.046.039.097.092.156.16.054.071.077.126.07.165-.006.037-.064.086-.174.147-.093.056-.2.074-.322.054-.063-.01-.13-.039-.199-.088-.096-.08-.17-.143-.223-.19-.091-.086-.142-.132-.153-.141-.215-.145-.524-.34-.929-.585-.442-.263-.725-.404-.849-.424-.11-.018-.216-.002-.318.048-.104.069-.164.151-.181.247-.017.102.013.186.088.253.078.081.138.131.183.151-.156-.025-.266-.087-.328-.186-.063-.098-.08-.235-.052-.407.026-.163.079-.289.158-.378.071-.074.183-.099.338-.074.083.014.237.09.464.228.081.051.304.198.667.442.221.163.35.261.389.294.036-.009.092-.022.167-.04.075-.019.147-.039.216-.061.2-.051.378-.108.535-.171.18-.071.275-.123.284-.157.02-.12.003-.251-.049-.392.084.073.166.172.246.296.093.136.135.228.127.277-.011.077-.075.137-.188.179-.094.039-.272.1-.536.183-.22.067-.375.121-.468.162.024.023.077.06.161.111.067.044.149.074.242.089.189.03.348-.033.478-.192z"/>
            <path id="path54" d="M34.921 25.512c.041-.059.119-.074.233-.048.06.035.077.111.049.23-.035.062-.112.079-.231.052-.06-.042-.077-.119-.051-.234z"/>
            <path id="path56" d="M33.089 24.589c.029-.056.048-.101.057-.135.012-.039.024-.107.037-.201.012-.061.029-.125.048-.195.017-.061.037-.1.058-.116l1.274.357.071.354-.401-.113c.013.044.053.121.121.233.055.084.1.173.133.268.025.087.026.172.002.255-.057.131-.15.237-.274.318-.118.078-.245.098-.377.061-.096-.027-.204-.117-.326-.271-.137-.165-.242-.321-.314-.47-.088-.176-.125-.291-.109-.345zm1.133.411c.023-.083.024-.149.004-.197-.037-.073-.078-.133-.121-.178-.056-.059-.091-.108-.106-.149l-.67-.188c.006.109-.001.199-.021.27-.024.085-.054.153-.093.205-.014.05.032.139.137.27.098.13.198.213.3.247.093.026.18.017.26-.026.025-.012.093-.057.204-.132.034-.04.069-.081.106-.122z"/>
            <path id="path58" d="M34.591 27.349c.036.093.051.149.044.17-.009.023-.032.045-.07.064-.026.008-.054.007-.08-.003-.05-.019-.089-.077-.117-.177-.041-.122-.06-.248-.056-.379.01.008.037.037.084.086.025.027.046.047.06.061.014.014.03.03.047.05 0 .003.03.046.088.128z"/>
            <path id="path60" d="M33.053 25.76c-.027-.05-.059-.107-.091-.171-.034-.075-.05-.14-.044-.198l1.187.583c.005.037.01.073.015.109.006.036.01.067.012.094.009.076.013.115.011.118l-.511-.251c.002.02.031.119.088.298.054.134.089.266.108.397.011.127-.009.243-.06.346-.079.161-.236.253-.472.274-.002.009.009.07.03.184.016.088.027.178.03.269-.006.088-.027.168-.061.238-.046.094-.111.161-.195.2-.098.046-.185.068-.261.068-.095.006-.173-.006-.234-.036-.083-.041-.171-.134-.265-.278-.096-.164-.17-.321-.22-.47-.054-.171-.075-.301-.064-.389.045.095.082.198.11.309.039.127.077.211.114.252.05.057.124.109.22.156.124.061.253.056.388-.013.135-.074.223-.151.263-.233.043-.089.063-.152.059-.189-.012-.033-.044-.062-.098-.089l-.091-.045c-.057-.028-.115-.073-.174-.137-.026-.033-.088-.176-.189-.43-.095-.235-.139-.414-.132-.537.055.121.093.23.116.325.039.113.075.192.108.236.051.057.124.109.22.156.124.061.253.057.388-.013.135-.074.224-.153.265-.238.066-.135.073-.263.02-.383-.054-.143-.1-.241-.138-.294z"/>
            <path id="path62" d="M32.772 28.652c-.003.037-.005.069-.009.097-.001.027-.004.059-.006.094l-.01.123-.438-.353c-.006.037-.002.144.013.319.018.192.025.327.023.407-.023.12-.07.225-.144.317-.105.132-.275.189-.511.172-.014.031-.02.092-.016.182-.005.101-.016.19-.035.265-.018.075-.054.146-.108.214-.067.084-.145.138-.233.162-.094.02-.184.024-.27.01-.098-.019-.173-.048-.223-.088-.078-.064-.143-.175-.192-.333-.06-.169-.098-.336-.117-.502-.014-.173-.006-.304.023-.394.01.055.023.163.04.325.004.123.022.212.051.267.042.07.103.138.185.204.106.085.233.107.38.064.15-.038.253-.092.308-.16.066-.082.097-.14.093-.176-.008-.043-.031-.081-.072-.113l-.079-.063c-.061-.049-.107-.104-.138-.163-.024-.065-.054-.219-.09-.461-.042-.261-.046-.446-.011-.552.017.061.033.17.046.327.008.133.026.224.054.273.037.067.096.132.176.197.106.085.233.106.381.064.149-.038.255-.095.316-.17.059-.074.09-.163.092-.267.011-.1.002-.192-.026-.279-.017-.08-.031-.124-.041-.131l-1.698-1.365c-.079-.063-.141-.173-.187-.329-.05-.136-.082-.298-.099-.484-.015-.17-.009-.279.017-.327.01.079.017.179.021.299.006.074.022.161.047.26.038.078.089.143.153.194z"/>
            <path id="path64" d="M30.755 32.425c-.007.099-.017.157-.033.173-.018.018-.048.027-.091.029-.027-.004-.051-.017-.072-.037-.038-.038-.047-.108-.03-.21.015-.128.052-.25.11-.367.006.011.019.049.039.113.011.035.021.062.029.081.006.019.014.041.021.066 0 .002.009.053.027.152z"/>
            <path id="path66" d="M29.017 32.734c-.156.129-.303.263-.442.402.021-.181.068-.329.14-.445.066-.127.135-.22.206-.279l.912-.755c-.036.025-.14.065-.314.12-.155.043-.335.04-.541-.009-.219-.044-.427-.186-.628-.428-.264-.318-.371-.624-.322-.917.053-.301.212-.561.475-.778.483-.401.914-.374 1.291.081.15.181.226.369.228.565.005.204-.082.38-.261.528-.116.097-.255.136-.417.121-.158-.013-.283-.074-.372-.181-.067-.081-.102-.177-.105-.287.007-.109.03-.192.071-.248.026.163.079.295.16.393.101.122.208.19.32.206.124.001.231-.036.321-.111.091-.074.145-.194.163-.356.027-.161-.025-.321-.157-.48-.152-.184-.344-.287-.577-.308-.227-.032-.434.03-.621.185-.382.317-.359.734.071 1.253.271.327.545.516.825.569.13.021.256.013.382-.024.124-.037.243-.1.352-.191.171-.142.271-.287.297-.435.02-.152.001-.338-.053-.558.123.161.188.325.198.495.008.161-.028.329-.109.503-.082.154-.196.291-.341.412l-.604.501z"/>
            <path id="path68" d="M26.818 33.947c-.176.099-.345.204-.507.316.053-.174.126-.312.218-.413.088-.113.172-.192.253-.237l1.032-.579c-.039.018-.15.038-.33.061-.16.014-.337-.022-.531-.107-.207-.082-.387-.26-.54-.533-.202-.361-.253-.681-.152-.96.107-.287.309-.513.607-.681.548-.307.967-.203 1.256.313.114.204.156.404.122.597-.031.202-.148.36-.351.474-.131.074-.275.088-.432.044-.154-.042-.264-.124-.333-.246-.051-.091-.068-.192-.051-.3.025-.106.063-.183.115-.231-.004.165.025.304.087.415.077.138.17.225.277.26.121.024.233.006.337-.051.102-.058.177-.164.224-.321.055-.154.032-.321-.068-.5-.117-.209-.288-.344-.512-.408-.217-.072-.432-.049-.643.07-.434.243-.485.658-.156 1.246.208.37.444.607.709.708.125.044.251.059.381.046.129-.014.256-.056.38-.124.194-.11.318-.234.371-.375.046-.146.062-.332.049-.558.091.18.126.354.105.522-.021.161-.087.32-.197.475-.109.136-.244.251-.411.343l-.684.384z"/>
            <path id="path70" d="M24.798 35.506c-.028.08-.063.127-.103.141-.019.007-.048.001-.085-.016-.028-.011-.047-.032-.057-.062-.016-.042.006-.11.062-.202.065-.101.151-.196.256-.285-.003.032-.005.057-.008.074-.001.017-.004.037-.006.06.002.026-.003.068-.014.127-.012.065-.027.119-.045.163zm.409-.08c.037.103.022.166-.044.19-.069.024-.118-.011-.152-.107-.027-.076-.045-.157-.053-.243-.011-.11-.01-.181.005-.215.006.006.013.012.018.018.005.006.013.016.021.029.009.013.016.024.021.033.027.026.041.043.044.05.065.086.112.168.14.245zm.38-.223c.024.068.002.114-.066.138-.023.009-.05.009-.08.003-.03-.003-.067-.026-.11-.069-.046-.019-.097-.051-.154-.095-.056-.045-.103-.097-.138-.156.013.001.026.003.037.005.011.001.036.004.076.007.063.004.15.021.26.049.093.015.152.054.175.118z"/>
            <path id="path72" d="M25.272 33.23c.021-.053.047-.113.075-.179.036-.074.077-.127.125-.16l.303 1.287c-.025.027-.05.054-.074.081-.025.027-.046.05-.065.069-.053.055-.081.082-.085.083l-.13-.553c-.014.013-.071.099-.174.256-.07.127-.149.238-.239.336-.09.089-.193.147-.305.173-.175.041-.345-.023-.511-.191-.008.004-.049.05-.123.14-.058.069-.122.133-.19.194-.073.051-.147.085-.223.103-.103.024-.196.016-.278-.023-.098-.047-.17-.1-.218-.158-.066-.07-.106-.137-.121-.203-.021-.09-.006-.218.047-.382.066-.178.141-.335.223-.468.099-.15.186-.249.261-.297-.045.096-.101.19-.168.282-.074.11-.114.193-.124.248-.011.075-.005.164.019.269.032.134.117.232.257.292.143.058.258.076.345.055.096-.023.158-.048.184-.075.018-.03.02-.073.006-.132l-.023-.099c-.014-.063-.016-.136-.004-.221.01-.04.08-.18.212-.418.121-.223.232-.371.331-.443-.058.12-.118.218-.178.296-.062.101-.1.179-.113.233-.013.075-.006.164.018.269.032.134.117.231.257.292.142.057.26.075.352.053.147-.034.25-.11.308-.228.077-.133.124-.23.14-.293z"/>
            <path id="path74" d="M22.857 34.847c-.03.021-.057.039-.079.055-.023.016-.048.034-.077.055l-.101.069-.006-.563c-.033.019-.113.09-.239.213-.136.135-.237.227-.3.275-.107.059-.219.089-.336.09-.169.001-.321-.093-.458-.286-.032.009-.083.044-.15.104-.082.061-.157.108-.227.142-.07.034-.148.051-.235.052-.108.001-.197-.024-.273-.077-.075-.059-.134-.126-.178-.202-.049-.088-.073-.164-.073-.228-.001-.101.044-.221.135-.36.094-.153.198-.29.314-.408.124-.121.231-.198.32-.232-.037.042-.112.121-.226.238-.092.081-.15.151-.174.208-.029.077-.041.167-.04.273.001.136.065.248.191.335.125.091.232.137.32.136.105-.001.17-.014.195-.039.029-.033.043-.076.042-.127l-.002-.102c0-.078.012-.148.038-.211.035-.06.134-.181.299-.362.176-.199.315-.32.42-.36-.036.052-.111.133-.223.244-.097.09-.156.161-.177.215-.029.07-.041.157-.04.26.001.136.065.248.192.335.124.092.235.137.332.136.095-.001.183-.034.265-.098.084-.055.149-.121.199-.197.05-.064.076-.103.076-.115l-.024-2.179c-.001-.101.044-.218.134-.354.075-.125.179-.252.312-.383.122-.119.21-.184.264-.195-.055.059-.128.127-.218.207-.053.052-.11.12-.171.203-.036.079-.054.16-.053.241z"/>
            <path id="path76" d="M18.983 33.959c-.031.1-.113.203-.243.309-.15.124-.291.221-.425.29-.142.067-.267.107-.375.118.059-.037.156-.09.29-.158.116-.059.193-.108.231-.148.047-.054.089-.136.123-.246.039-.124.013-.25-.078-.378-.09-.121-.176-.195-.261-.222-.107-.034-.174-.043-.199-.027-.036.019-.062.055-.079.108l-.03.094c-.026.081-.058.144-.099.189-.064.053-.198.14-.402.259-.228.128-.398.198-.51.208.097-.069.194-.123.291-.164.113-.053.191-.102.231-.147.049-.06.089-.141.121-.241.039-.124.013-.25-.078-.378-.089-.121-.181-.196-.275-.226-.087-.028-.184-.027-.293.001-.121.049-.205.092-.25.129-.07.05-.107.08-.11.092l-.133.421c-.009.027-.049.066-.12.115-.07.049-.166.09-.286.123l.876-2.779c.027-.084.105-.181.236-.289.15-.104.294-.187.435-.248.141-.068.254-.108.339-.12-.042.032-.126.081-.254.147-.1.044-.18.092-.243.144-.057.039-.1.103-.129.196l-.676 2.142c.046-.009.144-.052.294-.13.161-.083.284-.137.369-.162.116-.031.232-.027.35.01.161.051.275.191.344.42.046-.009.103-.027.169-.054.049-.017.137-.037.266-.061.086-.012.166-.006.241.017.146.046.245.139.298.279.065.133.08.256.044.367z"/>
            <path id="path78" d="M14.942 33.227c-.051.032-.118.066-.2.1-.084.029-.144.036-.178.018-.033-.017-.062-.087-.087-.211-.025-.105-.01-.213.046-.323.028-.057.077-.111.145-.162.105-.067.187-.118.248-.155.109-.06.169-.094.18-.103.203-.16.483-.396.84-.707.385-.341.606-.567.662-.679.05-.1.067-.205.05-.318-.034-.121-.093-.203-.18-.247-.092-.046-.181-.044-.266.007-.101.049-.167.091-.2.127.072-.141.164-.227.277-.256.113-.03.248-.004.404.075.147.074.251.163.312.265.05.09.039.204-.032.344-.039.076-.157.2-.358.373-.073.063-.282.23-.625.501-.222.16-.355.253-.398.28-.003.038-.007.095-.013.172-.006.077-.008.151-.007.223-.012.207-.012.393 0 .561.013.193.033.3.064.32.108.055.237.079.389.073-.096.057-.215.106-.357.144-.157.047-.259.059-.303.037-.07-.035-.108-.113-.114-.234-.009-.102-.013-.29-.01-.567.003-.229-.001-.394-.013-.495-.029.016-.079.056-.154.119-.063.051-.116.12-.158.204-.088.171-.075.343.036.514z"/>
            <path id="path80" d="M12.779 33.217c-.097.019-.156.022-.176.011-.021-.013-.037-.04-.05-.08-.002-.028.004-.054.018-.079.028-.047.094-.073.196-.081.128-.017.255-.013.382.015-.009.009-.043.031-.1.067-.031.02-.055.036-.071.048-.017.011-.036.024-.059.037-.001 0-.048.02-.14.062z"/>
            <path id="path82" d="M12.734 32.027c-.08-.061-.204-.134-.37-.219-.17-.09-.274-.15-.314-.18-.072-.055-.124-.111-.157-.17l.863-1.137.294.134-.347.458c.041.006.145-.004.311-.031.196-.021.33-.029.398-.024.12.005.228.045.325.119.039.029.077.088.117.178.056.091.078.213.068.365.29-.048.511-.016.661.1.12.091.178.209.176.355.006.16-.02.278-.079.355-.07.092-.138.154-.206.185-.056.027-.122.051-.196.073-.044 0-.095.004-.153.012-.25.068-.433.091-.546.07-.116-.018-.217-.06-.304-.126-.027-.026-.058-.056-.095-.092-.036-.035-.086-.083-.146-.142-.093-.1-.194-.194-.3-.283zm-.408-.372c.204.154.397.251.58.288.179.038.339-.037.481-.224.059-.077.085-.184.077-.321-.004-.141-.063-.254-.176-.34-.066-.05-.131-.081-.194-.093-.068-.013-.143-.008-.223.013-.104.017-.174.026-.212.029l-.322.423c-.009.012-.026.023-.053.034-.026.021-.046.034-.061.039-.013.01-.022.018-.027.022-.004.005-.01.01-.018.017zm1.156.819c.136.104.272.138.407.104.151-.04.267-.112.344-.216.073-.096.097-.209.071-.342-.027-.135-.064-.227-.111-.274l-.079-.095c-.046-.034-.115-.055-.207-.06-.114.151-.199.245-.254.284-.07.048-.178.082-.325.102-.079.012-.15.026-.213.04-.063.014-.118.027-.166.038z"/>
            <path id="path84" d="M9.012 30.583c-.485-.013-.772-.081-.859-.204-.049-.069-.002-.197.174-.348.004-.003.328-.243.578-.446.231-.171.431-.343.604-.517.153-.141.343-.354.573-.639.022-.03.082-.105.182-.224.115-.13.181-.223.197-.277.023-.064.014-.124-.025-.18-.032-.045-.082-.084-.149-.118-.023-.016-.04-.027-.05-.033l-.036-.024c-.007-.003-.014-.005-.019-.007-.006-.002-.011-.004-.014-.007-.005-.007-.01-.01-.016-.011-.001-.002-.024-.02-.069-.054.308-.061.548.029.721.272.114.161.14.305.077.434-.061.119-.184.272-.369.456-.175.18-.289.327-.34.439.033-.004.117-.008.252-.012.133-.005.242-.009.323-.011.374-.02.648-.016.825.013.222.021.37.082.441.183.069.096.011.209-.173.339-.072.051-.161.083-.266.095-.123.006-.221-.014-.296-.059.027-.019.054-.033.083-.043l.088-.063c.101-.071.125-.145.071-.221-.052-.073-.163-.119-.331-.136-.181-.016-.286-.019-.318-.009-.179.014-.326.02-.44.017-.061.004-.118.007-.167.007-.049.001-.099.002-.151.004-.064.016-.116.037-.155.065-.029.023-.057.044-.084.063-.026.021-.066.054-.121.097-.056.046-.12.099-.194.161-.073.062-.123.105-.15.129-.07.058-.223.186-.458.386-.076.063-.135.112-.175.147-.04.036-.062.056-.065.059.004-.003-.071.072-.028.131.017.025.045.047.084.065.025.01.049.019.073.027.023.009.043.018.059.026.053.015.09.025.113.028z"/>
            <path id="path86" d="M7.816 27.149c-.084-.014-.136-.041-.157-.078-.01-.018-.009-.046.002-.086.007-.03.024-.052.051-.067.039-.022.11-.013.21.028.111.047.22.115.324.204-.033.002-.056.004-.074.005-.017.001-.037.002-.059.003-.026.007-.067.009-.128.007-.067-.001-.123-.006-.169-.016zm.147.389c-.096.053-.161.049-.195-.012-.035-.063-.009-.119.08-.168.07-.039.147-.07.231-.093.106-.029.178-.039.213-.03-.006.007-.011.014-.016.02-.004.007-.013.016-.024.027-.012.011-.021.02-.03.027-.021.03-.035.048-.041.052-.073.077-.146.137-.218.177zm.284.337c-.063.036-.112.021-.147-.041-.012-.021-.017-.048-.016-.079-.003-.03.014-.07.05-.12.01-.049.033-.104.067-.167.034-.063.077-.117.129-.163.001.014.002.026.002.037s.001.036.006.076c.006.063.005.151-.004.264.001.096-.028.16-.087.193z"/>
            <path id="path88" d="M10.245 26.715c.016.061.032.107.047.138.018.037.053.096.105.176.031.054.061.114.093.179.028.057.038.1.032.125l-1.192.573-.286-.218.376-.18c-.04-.025-.121-.057-.245-.095-.097-.026-.19-.064-.277-.114-.076-.048-.132-.111-.17-.189-.042-.137-.044-.277-.003-.42.037-.137.118-.235.243-.295.089-.043.23-.047.422-.011.213.033.395.081.547.145.181.073.284.135.308.186zm-1.123.44c.038.078.081.128.128.151.076.03.145.047.208.054.081.007.14.021.178.041l.627-.301c-.077-.078-.131-.15-.163-.217-.039-.08-.06-.151-.066-.215-.023-.046-.115-.083-.28-.112-.16-.033-.29-.029-.389.012-.087.042-.147.106-.179.192-.01.026-.032.104-.066.234.003.052.003.106.002.161z"/>
            <path id="path90" d="M7.282 25.666c-.088-.044-.138-.077-.147-.097-.009-.023-.006-.054.009-.094.014-.024.035-.041.062-.051.049-.02.118-.003.205.053.113.063.21.144.295.243-.012.001-.053-.001-.119-.007-.037-.004-.066-.005-.086-.006-.02-.001-.043-.003-.069-.006-.002-.001-.053-.013-.15-.035z"/>
            <path id="path92" d="M9.483 25.809c.055.019.116.041.183.067.076.033.13.071.165.117l-1.273.361c-.029-.024-.056-.048-.084-.071-.028-.023-.051-.044-.072-.061-.057-.05-.087-.077-.088-.081l.547-.155c-.015-.013-.102-.067-.264-.163-.13-.064-.245-.138-.346-.223-.093-.087-.156-.186-.187-.297-.049-.172.007-.345.168-.52-.004-.007-.053-.046-.146-.116-.071-.055-.139-.115-.202-.18-.054-.07-.092-.143-.114-.218-.029-.101-.024-.194.011-.28.042-.1.091-.175.148-.225.065-.069.131-.111.197-.13.09-.025.218-.016.385.029.181.058.341.125.478.201.154.091.257.174.308.247-.097-.041-.193-.094-.288-.156-.113-.068-.198-.106-.253-.111-.076-.008-.165.002-.268.031-.133.038-.226.127-.28.269-.051.145-.064.261-.04.348.027.095.056.155.084.179.03.017.075.017.132.001l.098-.028c.062-.017.135-.022.221-.014.041.007.183.072.427.194.229.11.381.214.458.31-.123-.053-.224-.108-.304-.164-.104-.059-.184-.093-.238-.104-.076-.008-.164.002-.267.031-.134.038-.227.127-.281.269-.051.145-.063.263-.038.354.041.145.123.244.242.298.136.07.235.113.299.127z"/>
            <path id="path94" d="M9.518 21.84c.065.013.164.066.296.158.131.106.24.214.327.322.098.117.152.234.165.353.017.156-.031.288-.141.397-.109.122-.221.188-.336.201-.117.012-.221.009-.312-.01-.074-.019-.16-.062-.256-.128-.125-.086-.188-.13-.191-.132.012.113.001.197-.033.252-.035.06-.114.097-.24.109-.147.016-.387-.07-.717-.255-.301-.162-.618-.368-.949-.617-.313-.232-.49-.381-.532-.447.034.019.094.054.177.107.084.052.14.087.168.104.037.024.086.055.146.088.06.034.123.07.188.106.065.037.135.076.21.118.18.101.358.183.536.247.158.068.291.096.397.085.216-.023.313-.123.294-.299-.001-.012-.006-.026-.014-.042-.003-.031-.009-.054-.019-.069-.007-.016-.01-.036-.013-.061.065.033.148.104.247.213.11.134.197.223.264.267.084.049.19.067.316.054.105-.011.208-.077.312-.198.1-.129.143-.259.129-.39-.01-.093-.034-.165-.073-.219-.029-.042-.086-.098-.173-.168-.087-.063-.145-.112-.173-.146z"/>
        </g>
        <g id="g100" transform="matrix(1.35448 0 0 1.38279 -7.532081 -8.153463)">
            <path id="path98" class="color-purple color-main color-stroke-purple color-stroke-main" fill="#7d388d" stroke="#7d388d" stroke-miterlimit="10" stroke-width=".0971" d="M24.231 19.799c-.057.262-.11.514-.168.765-.081.355-.245.678-.399 1.004-.22.467-.472.918-.786 1.326-.172.223-.164.413-.082.66.166.5.192 1.014.072 1.533-.039.166-.057.337-.091.505-.084.418-.245.81-.45 1.18-.148.268-.327.518-.498.772-.085.126-.189.24-.276.365-.022.032-.024.088-.017.13.044.273.125.544.133.818.009.308-.059.615-.217.89-.107.186-.297.19-.396.002-.104-.197-.16-.408-.2-.63-.06-.33.017-.638.076-.953.008-.042.033-.082.038-.125.006-.041.011-.091-.008-.124-.051-.088-.106-.177-.175-.252-.395-.433-.663-.943-.881-1.479-.134-.33-.207-.68-.261-1.035-.044-.293-.092-.582-.073-.881.02-.304.077-.6.188-.883.051-.129.038-.236-.037-.347-.144-.211-.299-.417-.422-.64-.232-.421-.453-.849-.662-1.282-.178-.37-.28-.766-.328-1.175-.006-.046-.001-.093-.001-.177-.049.049-.072.075-.099.098-.095.083-.185.175-.289.245-.111.075-.228.041-.322-.044-.106-.095-.197-.214-.156-.363.038-.137.127-.262.288-.26.095.001.188.056.303.094.002-.003.024-.027.034-.055.101-.306.146-.616.084-.938-.05-.257-.079-.52-.147-.772-.073-.269-.186-.526-.271-.792-.114-.355-.31-.667-.507-.978-.14-.221-.304-.428-.456-.642-.086-.121-.128-.258-.092-.401.039-.157.164-.233.324-.202.164.032.33.07.487.128.369.137.744.266 1.097.438.352.172.681.39 1.018.592.122.073.24.153.357.233.074.051.105-.004.142-.049.129-.159.25-.324.386-.476.15-.168.31-.328.47-.487.092-.091.115-.182.057-.301-.171-.354-.233-.734-.207-1.118.015-.225.098-.45.306-.595.094-.065.181-.066.273-.001.21.148.293.376.306.607.022.396-.036.787-.228 1.146-.041.076.01.188.088.269.241.253.475.512.71.772.053.059.096.128.142.194.047.066.09.073.162.022.459-.325.93-.635 1.448-.855.439-.186.895-.335 1.345-.495.07-.025.152-.029.227-.023.192.017.273.159.243.349-.025.162-.11.286-.205.405-.28.349-.518.726-.716 1.125-.123.248-.214.515-.298.781-.087.274-.165.552-.216.835-.044.239-.046.485-.063.728-.011.163.033.316.084.469.041.125.057.135.172.074.186-.098.331-.086.438.038.105.121.109.284.01.413-.111.144-.27.2-.409.121-.125-.071-.235-.168-.351-.254-.019-.013-.036-.031-.048-.042zm-.636-1.449c-.012.001-.024.003-.036.004-.052.087-.101.176-.156.261-.166.257-.334.513-.503.769-.169.255-.338.51-.512.762-.033.047-.041.075-.015.133.091.21.176.423.249.64.06.179.103.364.147.548.033.135.06.271.082.408.02.125-.032.17-.146.135-.055-.017-.109-.039-.163-.06-.094-.036-.188-.073-.282-.11-.006.009-.012.017-.018.026.102.31.204.62.307.931.016.01.033.02.049.03.016-.033.029-.069.049-.1.172-.264.369-.516.514-.794.216-.416.401-.848.589-1.277.107-.245.149-.509.159-.777.015-.403-.068-.791-.173-1.176-.034-.123-.094-.237-.141-.353zm-4.664-.013c-.023.041-.039.067-.052.095-.158.339-.221.703-.266 1.068-.035.287-.037.582.056.857.121.357.269.706.414 1.055.182.439.445.832.708 1.225.04.06.096.108.162.182.113-.347.216-.661.325-.997-.163.065-.303.123-.444.176-.145.054-.205.003-.173-.149.035-.171.079-.341.116-.512.079-.372.192-.732.362-1.074.013-.026.011-.073-.005-.096-.105-.158-.22-.309-.324-.467-.185-.28-.364-.563-.546-.845-.108-.165-.215-.334-.333-.518zm5.365-2.264c-.07.029-.109.039-.142.06-.047.028-.087.067-.133.096-.464.295-.859.67-1.21 1.086-.268.317-.497.667-.737 1.006-.073.103-.14.216-.123.354.04.33.011.656-.061.979-.005.023.006.058.023.077.045.052.098.098.147.147.092.091.137.096.21-.008.146-.208.285-.422.422-.637.288-.451.597-.892.851-1.362.25-.464.446-.958.659-1.441.043-.1.057-.214.094-.357zm-3.742 2.675c.033-.152-.023-.285-.104-.404-.324-.473-.631-.958-1.052-1.357-.334-.317-.673-.627-1.067-.87-.022-.014-.053-.014-.08-.021-.005.026-.018.055-.012.079.02.088.038.179.071.263.089.228.175.458.282.677.191.394.385.786.598 1.168.127.228.294.434.437.654.175.269.34.545.517.814.047.071.109.14.179.187.056.037.304-.213.292-.286-.051-.3-.113-.598-.061-.904zm.168 2.832c-.012-.002-.023-.003-.035-.005-.016.027-.036.052-.047.081-.048.133-.093.267-.138.401-.105.307-.212.613-.311.922-.016.05-.014.118.008.166.035.079.084.156.142.22.277.31.559.616.839.924.049.053.099.055.149 0 .222-.246.448-.49.666-.74.11-.126.212-.259.309-.395.026-.036.038-.101.024-.143-.123-.385-.252-.768-.383-1.151-.034-.099-.083-.194-.125-.29-.011.002-.021.004-.032.006-.006.026-.019.051-.018.077.015.447-.02.89-.128 1.324-.069.275-.155.546-.241.817-.02.065-.067.14-.149.115-.057-.018-.125-.067-.147-.12-.066-.157-.12-.32-.163-.485-.061-.24-.127-.481-.157-.726-.036-.293-.036-.59-.053-.885 0-.038-.006-.076-.01-.113zm.52 6.1c.058-.066.099-.107.134-.152.275-.353.387-.762.41-1.2.005-.087.02-.178 0-.261-.064-.269-.131-.538-.218-.8-.041-.124-.124-.237-.202-.345-.056-.079-.162-.074-.229-.001-.049.053-.105.108-.132.173-.143.337-.279.684-.289 1.049-.012.416.056.83.289 1.194.071.112.151.219.237.343zm.01-7.412c.028-.036.042-.056.058-.074.017-.019.041-.032.053-.053.206-.363.315-.752.303-1.17-.005-.16-.041-.318-.054-.478-.045-.542-.124-1.077-.281-1.599-.015-.051-.043-.099-.077-.178-.034.069-.057.103-.067.14-.055.21-.118.419-.158.633-.054.29-.082.585-.135.875-.074.407-.081.813.01 1.217.057.25.177.471.348.687zm1.213 3.232c-.02.014-.044.024-.059.041-.276.311-.55.623-.825.934-.057.064-.061.123-.009.195.074.104.157.207.205.323.214.515.341 1.044.238 1.607-.006.034.013.074.024.129.583-.778.819-2.611.426-3.229zm-2.023 3.213c.01-.002.021-.004.031-.005.006-.033.024-.067.017-.097-.057-.276-.029-.546.012-.824.059-.405.183-.778.426-1.108.062-.084.054-.144-.015-.219-.153-.166-.298-.339-.447-.509-.123-.14-.247-.278-.37-.417-.035-.039-.072-.052-.086.009-.055.233-.133.465-.149.702-.02.289-.001.584.031.872.025.23.083.458.151.68.064.208.157.407.243.608.045.106.104.206.156.308zm3.6-8.044l.03-.003c.023-.165.037-.332.072-.494.055-.251.127-.498.19-.748.111-.446.276-.873.486-1.281.118-.23.257-.449.377-.678.074-.142.037-.211-.12-.192-.203.024-.409.066-.6.138-.281.105-.556.23-.822.37-.292.154-.571.332-.853.503-.051.031-.089.081-.13.12.101.134.195.258.29.384.016-.008.031-.011.041-.02.229-.187.451-.382.687-.56.241-.182.492-.352.746-.515.119-.076.233.004.215.144-.012.097-.03.196-.063.288-.077.212-.158.423-.251.628-.156.345-.317.688-.488 1.026-.068.135-.146.255-.015.391.009.01.011.027.017.04.064.154.127.307.191.459zm-5.598.034c.024-.046.035-.064.044-.083.087-.191.175-.382.257-.576.013-.031.004-.08-.011-.112-.039-.082-.091-.158-.13-.241-.193-.408-.392-.814-.57-1.229-.083-.193-.127-.403-.176-.608-.011-.045.014-.118.049-.151.051-.049.123-.051.19-.004.235.166.476.322.705.496.232.176.453.367.678.554.044.036.074.051.113-.009.062-.094.13-.184.2-.272.037-.046.046-.078-.008-.116-.143-.1-.278-.212-.428-.301-.211-.126-.434-.232-.648-.354-.321-.183-.668-.298-1.024-.386-.104-.026-.214-.033-.321-.033-.075 0-.112.055-.082.13.031.077.067.153.107.226.154.285.33.56.459.856.131.301.228.619.32.936.083.288.142.584.207.877.028.122.044.247.069.4zm3.241-1.803c.186-.169.36-.329.536-.487.043-.038.071-.072.023-.127-.3-.347-.598-.696-.899-1.042-.055-.064-.129-.059-.181.001-.302.345-.601.693-.897 1.043-.018.021-.021.085-.004.101.182.172.368.338.57.519.119-.4.212-.809.455-1.188.137.407.267.793.397 1.18zm-.427 3.848c-.155.219-.272.425-.276.687-.005.347.01.692.076 1.033.029.153.073.304.117.453.008.028.055.061.083.061.027-.001.066-.036.078-.066.023-.053.032-.112.042-.169.049-.257.106-.512.14-.77.02-.154-.009-.315.005-.471.025-.286-.109-.51-.265-.758zM20 21.576c.011.005.023.01.034.016.078-.046.155-.091.233-.138.314-.187.599-.406.758-.749.023-.05.036-.127.015-.172-.074-.157-.164-.307-.25-.458-.03-.054-.077-.063-.115-.016-.099.119-.212.233-.283.368-.164.311-.314.631-.357.988-.007.054-.023.107-.035.161zm2.489.021c.005-.041.016-.07.011-.096-.03-.138-.049-.28-.099-.411-.091-.241-.19-.479-.305-.709-.057-.114-.152-.211-.239-.308-.069-.077-.124-.038-.167.041-.057.105-.123.206-.177.313-.04.079-.095.161-.049.257.214.439.602.683 1.025.913zm-.591-3.506c.025-.013.034-.015.038-.02.258-.338.517-.676.772-1.017.019-.026.022-.085.006-.113-.055-.094-.12-.182-.186-.269-.057-.074-.125-.102-.2-.02-.175.19-.352.378-.52.574-.03.035-.039.103-.033.153.019.152.05.302.076.453.015.083.03.167.047.259zm-1.29.002c.045-.261.09-.51.129-.76.005-.035-.013-.083-.037-.11-.179-.197-.362-.389-.543-.584-.054-.058-.104-.044-.148.007-.055.063-.105.13-.157.195-.116.148-.114.163.019.299.025.026.051.052.073.082.203.275.405.552.609.827.012.016.031.025.055.044zm.877-4.162c-.029-.148-.048-.274-.079-.397-.019-.075-.053-.144-.152-.144-.098 0-.133.067-.154.142-.1.345-.067.684.06 1.015.013.033.068.068.105.069.029.001.078-.044.086-.076.051-.207.093-.416.134-.609zm-.091 14.895c-.022-.16-.042-.326-.069-.491-.005-.027-.042-.067-.065-.067-.025 0-.068.034-.074.06-.068.286-.093.575-.014.863.007.026.055.058.083.057.028-.001.075-.034.08-.06.026-.115.04-.234.059-.362z"/>
        </g>
        <circle id="ellipse102" class="color-white" fill="#fff" cx="6.448" cy="21.174999" r=".667" transform="rotate(-27.482 6.447703 21.174308)"/>
        <circle id="ellipse104" class="color-white" fill="#fff" cx="36.034" cy="21.174999" r=".667" transform="rotate(-27.482 36.032107 21.174286)"/>
    </g>
</svg>
