<svg xmlns="http://www.w3.org/2000/svg" viewBox="0 0 144 144">
    <circle fill="#c94989" cx="72" cy="72" r="65.4"/>
    <path fill="#fff" d="M82.5 121.4c-1.8-.1-2.1-.1-2.4-.3-.5-.4-11.5-47.2-11.7-47.9-.4-1.2-.4-2 0-2.3.3-.3.4-.3 3-.3 3.1 0 3.6.1 3.9.8.1.2 11.3 47.9 11.5 48.3.2.5.3.9.2 1.1-.1.5-.8.7-1.7.7-.4-.1-1.6-.1-2.8-.1zm-26.8-.4c-.4-.3-.4-.9 0-1.8.2-.4 10.2-39.7 10.3-40.2.2-1.5 1.5-3 1.7-3 .4 0 .8.6.8 1.2 0 .3 2.3 10.4 2.4 10.7.1.4.1.7 0 1-.1.2-8.5 31.7-8.7 31.9-.3.4-6.1.4-6.5.2zm45.6-1.3c-.2-.2-.4-.5-.4-.8-.1-.7 1.1-11.6 1.7-16 0-.3-1-2.5-1.2-2.6-.2-.1-.5-.2-.7-.4-.2-.1-1.5-.5-1.7-1-.2-.5.2-5.4.2-5.4s1.4-1.2 2.1-1.3c1.2-.1 1.3-.2 1.9-1 .5-.7 1.4-7 1.4-7.7 0-.5-.6-1.6-1-1.9-.1 0-2.1-.3-2.2-.4-.5-.3-.6-1.3-.2-4.4.2-1.7.4-2 1-2.3.5-.2 7.2.6 8.1 1.5 1.2 1.1 1.5 4.8 1.5 4.8-.7 7.3-1.7 12-2.1 12.8-.3.5-.7 1-.8 1.1-.8.5-.7 1.5 0 2.5.3.3-.1 8.3-.2 8.7-.1.4-1.5 13.8-1.6 14-.3.5-.4.5-3.9.4.1-.2-1.6-.3-1.9-.6zm-11.8-.6c-.2-.3 3.3-34.9 3.4-37.1.1-3.6.5-6.9.7-7.3.3-.6 5.2-.6 5.6-.4 1 .4 1.3 1.4.9 2.8-.1.4-3.7 41.4-3.8 41.7-.2.5-1.3 1.1-1.8 1.1-.2 0-1.2-.1-2.2-.1-.1 0-2.5-.2-2.8-.7zm-50.5-.8c-.5-.2-2.1-1.2-2.8-2-.7-.9-1-1.2-1.1-1.5-.1-.3-.3-.7-.4-.9-.4-.7-.6-4.6-.7-5.1-.2-1.3-.1-1.6.4-1.8.2-.1 5.8-.1 6 .2.2.3.6 1.6.8 2.7.2 1.2.6 1.9 1.2 2.2.3.1.7.3 1 .3.5 0 1.4.6 1.6 1.1.1.2.2.8.2 1.3s.1 1.4.2 1.9c.1 1.2-.1 1.6-.8 2.1-.6.4-.7.4-2.1.4-1.1-.2-3-.7-3.5-.9z"/>
    <path fill="#fff" d="M46.9 118.4c-.2-.1-.5-.2-.5-.3-.1-.1-.2-1-.2-2.2-.1-3.3-.3-6.2-.5-7-.1-.4-.2-1.2-.3-1.9-.1-1.5-1.8-4.3-2.8-4.8-1-.5-1.4-.7-1.8-.8-.4-.1-3-1.3-3.3-1.5-.3-.3-1.4-.9-2.6-1.9-.6-.5-2.1-3.2-2.3-3.6-.3-.6-.6-7.1-1-9.3-.4-2.7-.6-4.7-.4-6 .1-.6 1.2-3.4 1.8-4 .9-.9 1.2-1.1 2.5-1.3 1.2-.2 1.6-.1 2.2.3.4.3.5.3 1-.1.4-.3.4-.3 2.4-.3 1.1 0 2.7.1 3.5.2 1.3.1 1.5.2 2.1.6.6.5 2.1 2.2 2.4 2.5.7.8 1.3 3 1.3 4.7 0 .4.2 3.4-.3 3.6-.6.2-5.5.2-6.1 0-.6-.2-.7-.6-.8-2.3-.1-1.1-.1-1.2-.6-1.9-.5-.8-1.4-1.3-2.3-1.5-.6-.1-.9-.4-1-1.4-.1-.4-.2-.9-.3-1.1-.1-.3-.1-.3-.3 0-.1.1-.1.7-.1 1.3 0 1.6.3 6.2.5 7.1.1.7.3 2.4.6 4.8.1.8.2 1.2.6 1.7.2.4.6.8.8.9.2.1 1.9 1.1 2.4 1.4.4.2 3.4 1.4 3.9 1.5 1.6.5 2.7 1.3 3.9 2.9.4.5.7 1.5.7 2.5 0 .4 1 10.1.8 12.3-.1 1.4-.2 1.6-.4 2-.2.2-1.6 2.4-2.2 2.7-.6.2-2.8.3-3.3.2zm27.3-5.1s-7.1-.2-7.3-.4c-.3-.3-.6-.4-.7-1.1 0-.3 0-1.3.1-2 .1-1.4.4-2.2 1.2-3.1l.2-.2c.1-.1.3-.2.4-.2 1.2.1 6.7.3 6.8.4.3.1.6.6.7 1.3 0 .3.5 2.7.5 3.4.1 1-.1 1.3-.3 1.6-.3.2-1.6.3-1.6.3zm41.1-27.6c-.4-.2-1.2-3.4-1.3-5.2-.1-.9 0-1 .1-1.3.1-.1.3-.3.4-.3.1 0 .5-.3.8-.6.7-.7 1.2-1.6 1.2-2.3 0-.5 1.3-7.8 1.4-8.7.2-2 .3-2.3 1.1-2.5.7-.2 5.6-.1 6.1.1s.6.6.4 1.8c-.1.6-2.2 12.7-2.3 13-.1.5-5.1 4.6-5.2 4.6-.1 0-2.2 1.6-2.4 1.5 0 .1-.2 0-.3-.1zm-38.1-12c-.1-.2-.1-.6-.1-.9 0-.4 1.4-2.9 1.5-3.1.2-.2 8.8-46.9 8.8-46.9s4.9 1.2 5.2 1.3c.8.4.9.8.9 2.2 0 .8-8.1 45.2-8.3 45.4-.2.2-2.3 3.8-2.8 4.5-.2.3-.9.3-1.3.1-.1.1-3.8-2.2-3.9-2.6zm44.4-10.4c-2.8-.1-3.2-.2-4-1.3-.3-.4-6.2-11.9-6.8-12.3-.4-.3-8.4-8.5-8.2-9.3.1-.5 2.7-3.3 3-3.6 1.1-1.3 1.5-1.2 3.6 1 .8.9 6.5 6.8 6.7 7 1.1 1 1.4 1.3 1.5 1.8.1.3 6.9 13.5 7 13.9.1.4 1.3 2.6.9 2.9-.3.2-2.4 0-3.7-.1zm-26-28c-1.9-1.7-2-1.8-1.5-3.6.1-.6 1.1-4.8 1.4-4.9.3 0 1.2.4 1.7.9.2.2 8.3 6.7 8.3 7.1 0 .3-3.6 4.8-4.3 4.8-.5 0-.7-.1-1.2-.5 0 0-3.5-3-4.4-3.8zm-68 48.4c-.1.1-.3.1-.4.1-.2 0-2.2-1.7-2.3-1.7-.1 0-4.8-4.3-4.9-4.8-.1-.3-1.5-12.5-1.6-13.1-.1-1.2 0-1.6.5-1.8.5-.2 5.4 0 6.1.2.7.2.8.6.9 2.5 0 .9 1 8.3 1 8.8 0 .7.4 1.7 1.1 2.4.3.4.7.7.8.7.1 0 .3.1.4.3.2.2.2.4.1 1.3-.3 1.8-1.3 4.9-1.7 5.1zm34.8-7.4c-.4.2-1.1.1-1.3-.1-.5-.7-2.4-4.4-2.6-4.6-.2-.3-5.8-45-5.8-45.8 0-1.4.2-1.8 1-2.1.3-.1 5.2-1 5.2-1s6 47 6.2 47.3c.1.1 1.4 2.7 1.4 3.1 0 .3-.1.7-.2.9-.1.2-3.9 2.3-3.9 2.3zM18.9 60.9c-.3-.4.9-2.5 1-2.9.1-.3 7.6-13.2 7.7-13.5.2-.5.5-.9 1.6-1.8.3-.2 6.2-5.8 7.1-6.6 2.2-2.1 2.6-2.1 3.6-.8.3.4 2.7 3.3 2.8 3.8.1.8-8.3 8.6-8.7 8.8-.6.4-7.2 11.6-7.5 12-.8 1-1.2 1.2-4 1.1-1.2 0-3.4.1-3.6-.1zM45.4 38c-.5.5-.7.5-1.2.5-.7 0-4-4.7-4-5.1 0-.4 8.5-6.5 8.7-6.6.5-.4 1.4-.8 1.8-.8.3.1 1 4.3 1.1 4.9.3 1.8.3 1.9-1.7 3.5-1 .8-4.7 3.6-4.7 3.6z"/>
</svg>
