<svg xmlns="http://www.w3.org/2000/svg" viewBox="0 0 50 31.900461" height="120.568671" width="50mm">
    <g stroke-width=".603623">
        <g stroke="#000" transform="translate(-80.564216 -138.901154) scale(1.65666)">
            <path class="color-pink" d="M78.53103 93.684065l-14.810003-9.659913-14.810004 9.659912 14.810004 9.237926z" fill="#ec0b7f" stroke-width=".301812"/>
            <rect ry=".2" rx=".2" y="86.835213" x="52.554523" height="13.271882" width="22.333006" fill="#fff" fill-rule="evenodd" stroke-width=".452718" paint-order="stroke markers fill"/>
        </g>
        <text style="line-height:1.25;-inkscape-font-specification:'Bell MT Italic'" x="53.096611" y="95.007324" font-style="italic" font-weight="400" font-size="4.586111" font-family="Bell MT" letter-spacing="0" word-spacing="0" stroke-width=".159709" transform="translate(-80.564216 -138.901154) scale(1.65666)">
            <tspan x="53.096611" y="95.007324" style="-inkscape-font-specification:'Calisto MT Italic'" font-family="Calisto MT">AKRAGAS</tspan>
        </text>
        <g transform="translate(-80.564216 -138.868555) scale(1.65666)">
            <rect ry=".1" rx=".1" y="87.657532" x="72.205849" height="2.638386" width=".586308" fill="#000016" fill-rule="evenodd"/>
            <rect ry=".1" rx=".1" y="87.657532" x="70.856674" height="2.638386" width=".586308" fill="#000016" fill-rule="evenodd"/>
            <rect ry=".1" rx=".1" y="87.657532" x="69.507507" height="2.638386" width=".586308" fill="#000016" fill-rule="evenodd"/>
            <rect ry=".1" rx=".1" y="87.657532" x="68.158348" height="2.638386" width=".586308" fill="#000016" fill-rule="evenodd"/>
            <rect ry=".1" rx=".1" y="87.657532" x="66.809166" height="2.638386" width=".586308" fill="#000016" fill-rule="evenodd"/>
            <rect ry=".1" rx=".1" y="87.657532" x="65.460007" height="2.638386" width=".586308" fill="#000016" fill-rule="evenodd"/>
            <rect ry=".1" rx=".1" y="87.657532" x="64.110832" height="2.638386" width=".586308" fill="#000016" fill-rule="evenodd"/>
            <rect ry=".1" rx=".1" y="87.657532" x="62.761662" height="2.638386" width=".586308" fill="#000016" fill-rule="evenodd"/>
            <rect ry=".1" rx=".1" y="87.657532" x="61.412495" height="2.638386" width=".586308" fill="#000016" fill-rule="evenodd"/>
            <rect ry=".1" rx=".1" y="87.657532" x="60.063324" height="2.638386" width=".586308" fill="#000016" fill-rule="evenodd"/>
            <rect ry=".1" rx=".1" y="87.657532" x="58.714157" height="2.638386" width=".586308" fill="#000016" fill-rule="evenodd"/>
            <rect ry=".1" rx=".1" y="87.657532" x="57.364986" height="2.638386" width=".586308" fill="#000016" fill-rule="evenodd"/>
            <rect ry=".1" rx=".1" y="87.657532" x="56.015816" height="2.638386" width=".586308" fill="#000016" fill-rule="evenodd"/>
            <rect ry=".1" rx=".1" y="87.657532" x="54.666649" height="2.638386" width=".586308" fill="#000016" fill-rule="evenodd"/>
            <rect ry=".1" rx=".1" y="87.657532" x="53.317478" height="2.638386" width=".586308" fill="#000016" fill-rule="evenodd"/>
            <rect ry=".1" rx=".1" y="87.657532" x="73.555016" height="2.638386" width=".586308" fill="#000016" fill-rule="evenodd"/>
            <path d="M52.474571 88.30098h22.412957m-22.412956 1.351483h22.412957" fill="none" stroke="#000" stroke-width=".181087"/>
        </g>
        <g transform="translate(-80.564216 -124.042247) scale(1.65666)">
            <rect ry=".1" rx=".1" y="87.657532" x="72.205849" height="2.638386" width=".586308" fill="#000016" fill-rule="evenodd"/>
            <rect ry=".1" rx=".1" y="87.657532" x="70.856674" height="2.638386" width=".586308" fill="#000016" fill-rule="evenodd"/>
            <rect ry=".1" rx=".1" y="87.657532" x="69.507507" height="2.638386" width=".586308" fill="#000016" fill-rule="evenodd"/>
            <rect ry=".1" rx=".1" y="87.657532" x="68.158348" height="2.638386" width=".586308" fill="#000016" fill-rule="evenodd"/>
            <rect ry=".1" rx=".1" y="87.657532" x="66.809166" height="2.638386" width=".586308" fill="#000016" fill-rule="evenodd"/>
            <rect ry=".1" rx=".1" y="87.657532" x="65.460007" height="2.638386" width=".586308" fill="#000016" fill-rule="evenodd"/>
            <rect ry=".1" rx=".1" y="87.657532" x="64.110832" height="2.638386" width=".586308" fill="#000016" fill-rule="evenodd"/>
            <rect ry=".1" rx=".1" y="87.657532" x="62.761662" height="2.638386" width=".586308" fill="#000016" fill-rule="evenodd"/>
            <rect ry=".1" rx=".1" y="87.657532" x="61.412495" height="2.638386" width=".586308" fill="#000016" fill-rule="evenodd"/>
            <rect ry=".1" rx=".1" y="87.657532" x="60.063324" height="2.638386" width=".586308" fill="#000016" fill-rule="evenodd"/>
            <rect ry=".1" rx=".1" y="87.657532" x="58.714157" height="2.638386" width=".586308" fill="#000016" fill-rule="evenodd"/>
            <rect ry=".1" rx=".1" y="87.657532" x="57.364986" height="2.638386" width=".586308" fill="#000016" fill-rule="evenodd"/>
            <rect ry=".1" rx=".1" y="87.657532" x="56.015816" height="2.638386" width=".586308" fill="#000016" fill-rule="evenodd"/>
            <rect ry=".1" rx=".1" y="87.657532" x="54.666649" height="2.638386" width=".586308" fill="#000016" fill-rule="evenodd"/>
            <rect ry=".1" rx=".1" y="87.657532" x="53.317478" height="2.638386" width=".586308" fill="#000016" fill-rule="evenodd"/>
            <rect ry=".1" rx=".1" y="87.657532" x="73.555016" height="2.638386" width=".586308" fill="#000016" fill-rule="evenodd"/>
            <path d="M52.474571 88.30098h22.412957m-22.412956 1.351483h22.412957" fill="none" stroke="#000" stroke-width=".181087"/>
        </g>
    </g>
</svg>
