<svg xmlns="http://www.w3.org/2000/svg" width="50mm" height="120.568671" viewBox="0 0 50 31.900461">
    <g stroke-width=".603623">
        <g stroke="#000" transform="translate(-80.564216 -138.901154) scale(1.65666)">
            <path class="color-main color-pink" fill="#ec0b7f" stroke-width=".301812" d="M78.53103 93.684065l-14.810003-9.659913-14.810004 9.659912 14.810004 9.237926z"/>
            <rect fill="#fff" fill-rule="evenodd" stroke-width=".452718" width="22.333006" height="13.271882" x="52.554523" y="86.835213" paint-order="stroke markers fill" rx=".2" ry=".2"/>
        </g>
        <text font-style="italic" style="line-height:1.25;-inkscape-font-specification:'Bell MT Italic'" stroke-width=".159709" x="53.096611" y="95.007324" font-family="Bell MT" font-size="4.586111" font-weight="400" letter-spacing="0" transform="translate(-80.564216 -138.901154) scale(1.65666)" word-spacing="0">
            <tspan x="53.096611" y="95.007324" font-family="Calisto MT" style="-inkscape-font-specification:'Calisto MT Italic'">AKRAGAS</tspan>
        </text>
        <g transform="translate(-80.564216 -138.868555) scale(1.65666)">
            <rect fill="#000016" fill-rule="evenodd" width=".586308" height="2.638386" x="72.205849" y="87.657532" rx=".1" ry=".1"/>
            <rect fill="#000016" fill-rule="evenodd" width=".586308" height="2.638386" x="70.856674" y="87.657532" rx=".1" ry=".1"/>
            <rect fill="#000016" fill-rule="evenodd" width=".586308" height="2.638386" x="69.507507" y="87.657532" rx=".1" ry=".1"/>
            <rect fill="#000016" fill-rule="evenodd" width=".586308" height="2.638386" x="68.158348" y="87.657532" rx=".1" ry=".1"/>
            <rect fill="#000016" fill-rule="evenodd" width=".586308" height="2.638386" x="66.809166" y="87.657532" rx=".1" ry=".1"/>
            <rect fill="#000016" fill-rule="evenodd" width=".586308" height="2.638386" x="65.460007" y="87.657532" rx=".1" ry=".1"/>
            <rect fill="#000016" fill-rule="evenodd" width=".586308" height="2.638386" x="64.110832" y="87.657532" rx=".1" ry=".1"/>
            <rect fill="#000016" fill-rule="evenodd" width=".586308" height="2.638386" x="62.761662" y="87.657532" rx=".1" ry=".1"/>
            <rect fill="#000016" fill-rule="evenodd" width=".586308" height="2.638386" x="61.412495" y="87.657532" rx=".1" ry=".1"/>
            <rect fill="#000016" fill-rule="evenodd" width=".586308" height="2.638386" x="60.063324" y="87.657532" rx=".1" ry=".1"/>
            <rect fill="#000016" fill-rule="evenodd" width=".586308" height="2.638386" x="58.714157" y="87.657532" rx=".1" ry=".1"/>
            <rect fill="#000016" fill-rule="evenodd" width=".586308" height="2.638386" x="57.364986" y="87.657532" rx=".1" ry=".1"/>
            <rect fill="#000016" fill-rule="evenodd" width=".586308" height="2.638386" x="56.015816" y="87.657532" rx=".1" ry=".1"/>
            <rect fill="#000016" fill-rule="evenodd" width=".586308" height="2.638386" x="54.666649" y="87.657532" rx=".1" ry=".1"/>
            <rect fill="#000016" fill-rule="evenodd" width=".586308" height="2.638386" x="53.317478" y="87.657532" rx=".1" ry=".1"/>
            <rect fill="#000016" fill-rule="evenodd" width=".586308" height="2.638386" x="73.555016" y="87.657532" rx=".1" ry=".1"/>
            <path fill="none" stroke="#000" stroke-width=".181087" d="M52.474571 88.30098h22.412957m-22.412956 1.351483h22.412957"/>
        </g>
        <g transform="translate(-80.564216 -124.042247) scale(1.65666)">
            <rect fill="#000016" fill-rule="evenodd" width=".586308" height="2.638386" x="72.205849" y="87.657532" rx=".1" ry=".1"/>
            <rect fill="#000016" fill-rule="evenodd" width=".586308" height="2.638386" x="70.856674" y="87.657532" rx=".1" ry=".1"/>
            <rect fill="#000016" fill-rule="evenodd" width=".586308" height="2.638386" x="69.507507" y="87.657532" rx=".1" ry=".1"/>
            <rect fill="#000016" fill-rule="evenodd" width=".586308" height="2.638386" x="68.158348" y="87.657532" rx=".1" ry=".1"/>
            <rect fill="#000016" fill-rule="evenodd" width=".586308" height="2.638386" x="66.809166" y="87.657532" rx=".1" ry=".1"/>
            <rect fill="#000016" fill-rule="evenodd" width=".586308" height="2.638386" x="65.460007" y="87.657532" rx=".1" ry=".1"/>
            <rect fill="#000016" fill-rule="evenodd" width=".586308" height="2.638386" x="64.110832" y="87.657532" rx=".1" ry=".1"/>
            <rect fill="#000016" fill-rule="evenodd" width=".586308" height="2.638386" x="62.761662" y="87.657532" rx=".1" ry=".1"/>
            <rect fill="#000016" fill-rule="evenodd" width=".586308" height="2.638386" x="61.412495" y="87.657532" rx=".1" ry=".1"/>
            <rect fill="#000016" fill-rule="evenodd" width=".586308" height="2.638386" x="60.063324" y="87.657532" rx=".1" ry=".1"/>
            <rect fill="#000016" fill-rule="evenodd" width=".586308" height="2.638386" x="58.714157" y="87.657532" rx=".1" ry=".1"/>
            <rect fill="#000016" fill-rule="evenodd" width=".586308" height="2.638386" x="57.364986" y="87.657532" rx=".1" ry=".1"/>
            <rect fill="#000016" fill-rule="evenodd" width=".586308" height="2.638386" x="56.015816" y="87.657532" rx=".1" ry=".1"/>
            <rect fill="#000016" fill-rule="evenodd" width=".586308" height="2.638386" x="54.666649" y="87.657532" rx=".1" ry=".1"/>
            <rect fill="#000016" fill-rule="evenodd" width=".586308" height="2.638386" x="53.317478" y="87.657532" rx=".1" ry=".1"/>
            <rect fill="#000016" fill-rule="evenodd" width=".586308" height="2.638386" x="73.555016" y="87.657532" rx=".1" ry=".1"/>
            <path fill="none" stroke="#000" stroke-width=".181087" d="M52.474571 88.30098h22.412957m-22.412956 1.351483h22.412957"/>
        </g>
    </g>
</svg>
