<?xml version="1.0" encoding="UTF-8" standalone="no"?>
<svg
   id="svg1988"
   version="1.1"
   viewBox="-7.5 -16.5 65 65"
   height="120.568671"
   width="50mm">
  <defs
     id="defs1992" />
  <path
     style="fill:#ffffff"
     class="color-main color-pink"
     fill="#ec0b7f"
     stroke-width=".301812"
     d="M 51.45996,16.300701 25.020114,-0.9827436 -1.4197314,16.300699 25.020114,32.82913 Z"
     id="path1904-6" />
  <g
     id="g1986"
     stroke-width=".603623">
    <g
       id="g1908"
       transform="translate(-80.564216 -138.901154) scale(1.65666)"
       stroke="#000">
      <path
         id="path1904"
         d="M78.53103 93.684065l-14.810003-9.659913-14.810004 9.659912 14.810004 9.237926z"
         stroke-width=".301812"
         fill="#ec0b7f"
         class="color-main color-pink" />
      <rect
         id="rect1906"
         ry=".2"
         rx=".2"
         paint-order="stroke markers fill"
         y="86.835213"
         x="52.554523"
         height="13.271882"
         width="22.333006"
         stroke-width=".452718"
         fill-rule="evenodd"
         fill="#fff" />
    </g>
    <text
       id="text1912"
       word-spacing="0"
       transform="translate(-80.564216 -138.901154) scale(1.65666)"
       letter-spacing="0"
       font-weight="400"
       font-size="4.586111"
       font-family="Bell MT"
       y="95.007324"
       x="53.096611"
       stroke-width=".159709"
       style="line-height:1.25;-inkscape-font-specification:'Bell MT Italic'"
       font-style="italic"><tspan
         id="tspan1910"
         style="-inkscape-font-specification:'Calisto MT Italic'"
         font-family="Calisto MT"
         y="95.007324"
         x="53.096611">AKRAGAS</tspan></text>
    <g
       id="g1948"
       transform="translate(-80.564216 -138.868555) scale(1.65666)">
      <rect
         id="rect1914"
         ry=".1"
         rx=".1"
         y="87.657532"
         x="72.205849"
         height="2.638386"
         width=".586308"
         fill-rule="evenodd"
         fill="#000016" />
      <rect
         id="rect1916"
         ry=".1"
         rx=".1"
         y="87.657532"
         x="70.856674"
         height="2.638386"
         width=".586308"
         fill-rule="evenodd"
         fill="#000016" />
      <rect
         id="rect1918"
         ry=".1"
         rx=".1"
         y="87.657532"
         x="69.507507"
         height="2.638386"
         width=".586308"
         fill-rule="evenodd"
         fill="#000016" />
      <rect
         id="rect1920"
         ry=".1"
         rx=".1"
         y="87.657532"
         x="68.158348"
         height="2.638386"
         width=".586308"
         fill-rule="evenodd"
         fill="#000016" />
      <rect
         id="rect1922"
         ry=".1"
         rx=".1"
         y="87.657532"
         x="66.809166"
         height="2.638386"
         width=".586308"
         fill-rule="evenodd"
         fill="#000016" />
      <rect
         id="rect1924"
         ry=".1"
         rx=".1"
         y="87.657532"
         x="65.460007"
         height="2.638386"
         width=".586308"
         fill-rule="evenodd"
         fill="#000016" />
      <rect
         id="rect1926"
         ry=".1"
         rx=".1"
         y="87.657532"
         x="64.110832"
         height="2.638386"
         width=".586308"
         fill-rule="evenodd"
         fill="#000016" />
      <rect
         id="rect1928"
         ry=".1"
         rx=".1"
         y="87.657532"
         x="62.761662"
         height="2.638386"
         width=".586308"
         fill-rule="evenodd"
         fill="#000016" />
      <rect
         id="rect1930"
         ry=".1"
         rx=".1"
         y="87.657532"
         x="61.412495"
         height="2.638386"
         width=".586308"
         fill-rule="evenodd"
         fill="#000016" />
      <rect
         id="rect1932"
         ry=".1"
         rx=".1"
         y="87.657532"
         x="60.063324"
         height="2.638386"
         width=".586308"
         fill-rule="evenodd"
         fill="#000016" />
      <rect
         id="rect1934"
         ry=".1"
         rx=".1"
         y="87.657532"
         x="58.714157"
         height="2.638386"
         width=".586308"
         fill-rule="evenodd"
         fill="#000016" />
      <rect
         id="rect1936"
         ry=".1"
         rx=".1"
         y="87.657532"
         x="57.364986"
         height="2.638386"
         width=".586308"
         fill-rule="evenodd"
         fill="#000016" />
      <rect
         id="rect1938"
         ry=".1"
         rx=".1"
         y="87.657532"
         x="56.015816"
         height="2.638386"
         width=".586308"
         fill-rule="evenodd"
         fill="#000016" />
      <rect
         id="rect1940"
         ry=".1"
         rx=".1"
         y="87.657532"
         x="54.666649"
         height="2.638386"
         width=".586308"
         fill-rule="evenodd"
         fill="#000016" />
      <rect
         id="rect1942"
         ry=".1"
         rx=".1"
         y="87.657532"
         x="53.317478"
         height="2.638386"
         width=".586308"
         fill-rule="evenodd"
         fill="#000016" />
      <rect
         id="rect1944"
         ry=".1"
         rx=".1"
         y="87.657532"
         x="73.555016"
         height="2.638386"
         width=".586308"
         fill-rule="evenodd"
         fill="#000016" />
      <path
         id="path1946"
         d="M52.474571 88.30098h22.412957m-22.412956 1.351483h22.412957"
         stroke-width=".181087"
         stroke="#000"
         fill="none" />
    </g>
    <g
       id="g1984"
       transform="translate(-80.564216 -124.042247) scale(1.65666)">
      <rect
         id="rect1950"
         ry=".1"
         rx=".1"
         y="87.657532"
         x="72.205849"
         height="2.638386"
         width=".586308"
         fill-rule="evenodd"
         fill="#000016" />
      <rect
         id="rect1952"
         ry=".1"
         rx=".1"
         y="87.657532"
         x="70.856674"
         height="2.638386"
         width=".586308"
         fill-rule="evenodd"
         fill="#000016" />
      <rect
         id="rect1954"
         ry=".1"
         rx=".1"
         y="87.657532"
         x="69.507507"
         height="2.638386"
         width=".586308"
         fill-rule="evenodd"
         fill="#000016" />
      <rect
         id="rect1956"
         ry=".1"
         rx=".1"
         y="87.657532"
         x="68.158348"
         height="2.638386"
         width=".586308"
         fill-rule="evenodd"
         fill="#000016" />
      <rect
         id="rect1958"
         ry=".1"
         rx=".1"
         y="87.657532"
         x="66.809166"
         height="2.638386"
         width=".586308"
         fill-rule="evenodd"
         fill="#000016" />
      <rect
         id="rect1960"
         ry=".1"
         rx=".1"
         y="87.657532"
         x="65.460007"
         height="2.638386"
         width=".586308"
         fill-rule="evenodd"
         fill="#000016" />
      <rect
         id="rect1962"
         ry=".1"
         rx=".1"
         y="87.657532"
         x="64.110832"
         height="2.638386"
         width=".586308"
         fill-rule="evenodd"
         fill="#000016" />
      <rect
         id="rect1964"
         ry=".1"
         rx=".1"
         y="87.657532"
         x="62.761662"
         height="2.638386"
         width=".586308"
         fill-rule="evenodd"
         fill="#000016" />
      <rect
         id="rect1966"
         ry=".1"
         rx=".1"
         y="87.657532"
         x="61.412495"
         height="2.638386"
         width=".586308"
         fill-rule="evenodd"
         fill="#000016" />
      <rect
         id="rect1968"
         ry=".1"
         rx=".1"
         y="87.657532"
         x="60.063324"
         height="2.638386"
         width=".586308"
         fill-rule="evenodd"
         fill="#000016" />
      <rect
         id="rect1970"
         ry=".1"
         rx=".1"
         y="87.657532"
         x="58.714157"
         height="2.638386"
         width=".586308"
         fill-rule="evenodd"
         fill="#000016" />
      <rect
         id="rect1972"
         ry=".1"
         rx=".1"
         y="87.657532"
         x="57.364986"
         height="2.638386"
         width=".586308"
         fill-rule="evenodd"
         fill="#000016" />
      <rect
         id="rect1974"
         ry=".1"
         rx=".1"
         y="87.657532"
         x="56.015816"
         height="2.638386"
         width=".586308"
         fill-rule="evenodd"
         fill="#000016" />
      <rect
         id="rect1976"
         ry=".1"
         rx=".1"
         y="87.657532"
         x="54.666649"
         height="2.638386"
         width=".586308"
         fill-rule="evenodd"
         fill="#000016" />
      <rect
         id="rect1978"
         ry=".1"
         rx=".1"
         y="87.657532"
         x="53.317478"
         height="2.638386"
         width=".586308"
         fill-rule="evenodd"
         fill="#000016" />
      <rect
         id="rect1980"
         ry=".1"
         rx=".1"
         y="87.657532"
         x="73.555016"
         height="2.638386"
         width=".586308"
         fill-rule="evenodd"
         fill="#000016" />
      <path
         id="path1982"
         d="M52.474571 88.30098h22.412957m-22.412956 1.351483h22.412957"
         stroke-width=".181087"
         stroke="#000"
         fill="none" />
    </g>
  </g>
</svg>
