<svg xmlns="http://www.w3.org/2000/svg" width="210mm" height="297mm" viewBox="0 0 210 297">
    <path d="M89.90826 95.30081c3.954152 1.658033 8.290963 2.55082 12.755328 2.678361 4.591919 0 9.056284-.510164 13.648202-2.040656l1.020426 3.316067c-.38266.127581-1.020426.510164-1.785746.892787-.510213.510164-1.14798 1.020328-1.53064 1.530492-.510213.510165-.892872 1.27541-1.275532 2.040657-.38266.892787-.76532 1.658034-.892873 2.678362 1.658192.637705 3.316385 1.27541 4.847025 1.913116 1.530639.510164 3.188832 1.020328 4.719471 1.27541 1.785746.127541 3.316385.255082 4.974578.127541 1.658193 0 3.443939-.382623 5.229685-1.14787l3.316385 2.42328c-.76532.382624-1.275533.892788-1.53064 1.658034-.255106.765246-.38266 1.530493-.510212 2.55082-.127554.892788-.127554 1.913117 0 3.060986.127553 1.14787.255106 2.42328.510213 3.826231.255106 1.27541.637766 2.550821 1.020426 3.69869.38266 1.27541.76532 2.678362 1.403086 3.953773l1.53064 4.208854c.510213 1.27541 1.14798 2.678362 1.658192 3.953772l-1.9133 1.402952c2.423513 2.040657 4.336813 4.591477 5.739899 7.652462 1.275533 3.188527 2.040852 6.759676 2.040852 10.96853 0 1.658034-.255106 3.188526-.892873 4.84656-.510213 1.530492-1.275533 3.060985-2.168406 4.719018-.892873 1.530493-2.040852 3.060985-3.316385 4.591478-1.275533 1.402951-2.806172 2.678362-4.719471 4.081313-3.06128 2.168198-6.250111 3.69869-9.566497 4.719019-3.188832 1.020328-6.63277 1.658033-10.204262 2.168197 0 2.805903-.255107 5.356724-1.14798 7.26984-.637766 1.785574-1.53064 3.443608-2.551066 4.591477-1.020426 1.27541-2.040852 2.168198-3.443938 3.060985-1.275533.892788-2.551066 1.530493-3.826599 2.040657-3.061279.892787-5.86745 1.14787-8.418516.892787-2.67862-.255082-4.847025-1.530492-6.632771-3.82623-.637767-1.02033-1.020426-1.785575-1.403086-2.42328-.38266-.637706-.637767-1.275411-.637767-2.168198-.127553-.637706-.127553-1.27541-.127553-2.040657 0-.637705.127553-1.27541.127553-2.040657.510213-1.020328.892873-1.913115 1.403086-2.55082.637767-.637706 1.14798-1.14787 1.785746-1.658034.510213-.510164 1.020427-.765246 1.785746-1.14787.510213-.255082 1.275533-.382623 2.040853-.382623-1.9133-.510164-3.571492-1.020328-5.229685-1.530492-1.658192-.382623-3.188832-.892787-4.719471-1.402952-1.53064-.637705-2.933726-1.020328-4.336812-1.402951-1.275533-.382623-2.678619-.765246-3.954152-1.14787l-3.061278-.382623c-1.020427-.12754-2.040853-.12754-3.188833 0-1.14798.127541-2.168405.255082-3.316385.765247-1.020426.382623-2.29596 1.147869-3.571492 2.168197l-2.933725-3.316067c1.785746-2.933444 3.443938-5.866888 4.974578-8.800332 1.403086-2.933444 2.551065-5.994429 3.443938-9.182955.892873-3.060985 1.53064-6.24951 2.040853-9.565578.255106-3.188526.510213-6.887216.510213-10.96853l3.571492-.382623c-1.785746-2.42328-3.188832-4.719018-4.081705-6.759675-1.020426-1.913116-1.53064-3.953772-1.658193-5.739347 0-1.913115.255107-3.571149.892873-5.101642.637767-1.530492 1.53064-3.060985 2.551066-4.591477 1.53064-1.913116 3.188832-3.69869 4.847025-5.101642 1.785746-1.402951 3.699045-2.42328 5.612344-3.188526 2.040853-.892787 4.081705-1.402951 6.377664-1.658033 2.168406-.255082 4.336812-.127582 6.505218.127581-.637767-2.040656-1.53064-3.571149-2.423513-4.719018-.892873-1.020328-1.913299-2.040657-3.061279-2.933444zm20.918739 15.94263c-.76532 3.316067-1.14798 6.632134-1.14798 9.9482 0 3.316068.127553 6.504594.255107 9.56558 2.806172-.510165 5.229684-.637706 7.525643-.382624 2.29596.255082 4.464365.765246 6.632771 1.530492 2.040853.637706 4.209258 1.530493 6.122558 2.550821 2.040852 1.020329 4.081705 2.168198 6.122557 3.443608-.892873-3.060985-2.168406-6.24951-3.954152-9.182955-1.785746-3.060985-3.699045-5.739347-5.995004-8.035085-2.423512-2.42328-4.847025-4.463937-7.525644-6.12197-2.678619-1.658034-5.357238-2.678362-8.035856-3.316067zm-14.923735 0c-3.061278.637705-5.48479 1.785574-7.270537 3.571149-1.785746 1.785574-2.678619 4.463936-3.188832 8.035085.255107 1.27541.510213 2.42328 1.020426 3.57115.38266 1.020328 1.14798 2.040656 2.040853 2.933444.892873.765246 2.040852 1.402951 3.316385 2.168197 1.275533.510164 2.806173 1.020329 4.464365 1.14787.127554-3.443608.127554-7.014758.127554-10.585907-.127554-3.571149-.255107-7.142298-.510214-10.840988zm13.520648 31.630178c0 3.060985.127554 5.99443.127554 8.927873 0 2.805903.255106 5.611806.510213 8.417709.255106 2.678362.76532 5.356724 1.275533 8.035086.510213 2.678361 1.14798 5.484264 1.913299 8.417708 2.295959-1.020328 4.081705-2.040656 5.612344-3.316067 1.658193-1.27541 2.806173-2.678362 3.826599-4.463936 1.020426-1.658034 1.785746-3.316067 2.423512-5.356724.38266-1.913116.892873-3.826231 1.020427-6.12197-.127554-2.42328-.637767-4.463937-1.53064-6.249511-.76532-1.658034-1.785746-3.188526-3.188832-4.336396-1.403086-1.147869-3.188832-2.040656-5.102131-2.933444-2.040853-.637705-4.336812-1.020328-6.887878-1.020328zm-13.775754.510164c-1.53064.127541-3.316386.255082-5.102132.127541-1.658192-.12754-3.443938-.255082-5.10213-.510164-1.785747-.255082-3.571493-.637705-5.357239-1.27541-1.658192-.510164-3.316385-1.27541-5.102131-2.168198-.255107 2.040657-.510213 4.081313-.892873 6.12197-.255107 2.295739-.38266 4.336395-.255107 6.504593.127554 2.168198.38266 4.463937.892873 6.632134.637767 2.168198 1.53064 4.336396 2.806173 6.504594 1.658192 2.678361 3.443938 4.84656 5.739897 6.632134 2.040853 1.913115 4.464365 3.316067 7.01543 4.463936 2.67862 1.14787 5.612345 1.785575 8.673624 2.040657 3.061279.255082 6.505218 0 10.204263-.637705-.76532-1.530493-1.658193-2.805903-2.67862-3.953773-1.020425-1.020328-2.168405-2.040656-3.443938-3.060985-1.14798-.892787-2.551065-1.658033-3.954152-2.295738-1.275532-.637706-2.678618-1.14787-3.954151-1.402952-1.403086-1.530492-2.29596-2.933444-2.423513-4.463936 0-1.530493.510213-2.805903 1.53064-4.208855.892873-4.9741 1.403086-10.075742 1.403086-15.049843zm1.9133 39.920347c.765319.510164 1.403085 1.020328 2.040852 1.530492.510213.382623.892873.892787 1.403086 1.530493.255106.765246.38266 1.27541.510213 2.040656.127553.510164.127553 1.27541-.127553 1.913116 0 .382623.127553.765246.38266 1.020328.127553.255082.38266.510164.637766.765246.255106.127541.510213.255083.892873.382624h1.403086c.892873-.382624 1.658193-1.020329 2.551066-1.658034.637766-.637705 1.275532-1.402951 1.785746-2.040657.38266-.765246.637766-1.530492.892873-2.42328.127553-.765246.38266-1.658033.637766-2.55082-2.29596 0-4.464365 0-6.505217-.127541l-6.505218-.382623zm0 0"/>
</svg>
