<svg xmlns="http://www.w3.org/2000/svg" width="210mm" height="297mm" viewBox="0 0 210 297">
  <path d="M89.908 95.3c3.954 1.659 8.291 2.552 12.756 2.68 4.592 0 9.056-.511 13.648-2.041l1.02 3.316c-.382.127-1.02.51-1.786.892-.51.51-1.148 1.02-1.53 1.53-.51.511-.893 1.276-1.276 2.042-.382.892-.765 1.658-.893 2.678 1.659.638 3.317 1.275 4.847 1.913 1.531.51 3.19 1.02 4.72 1.275 1.786.128 3.316.255 4.974.128 1.659 0 3.444-.383 5.23-1.148l3.317 2.423c-.766.383-1.276.893-1.531 1.658-.255.766-.383 1.53-.51 2.551-.128.893-.128 1.913 0 3.061.127 1.148.255 2.423.51 3.826.255 1.276.638 2.551 1.02 3.7.383 1.275.766 2.677 1.403 3.953l1.531 4.209c.51 1.275 1.148 2.678 1.658 3.954l-1.913 1.402c2.423 2.041 4.337 4.592 5.74 7.653 1.275 3.188 2.04 6.76 2.04 10.968a13.02 13.02 0 0 1-.892 4.847c-.51 1.53-1.276 3.061-2.169 4.719-.892 1.53-2.04 3.061-3.316 4.592-1.275 1.402-2.806 2.678-4.72 4.08a33.406 33.406 0 0 1-9.566 4.72c-3.189 1.02-6.633 1.658-10.204 2.168 0 2.806-.255 5.357-1.148 7.27-.638 1.785-1.53 3.443-2.551 4.591-1.02 1.276-2.041 2.169-3.444 3.061-1.276.893-2.551 1.53-3.827 2.041-3.061.893-5.867 1.148-8.418.893-2.679-.255-4.847-1.53-6.633-3.826-.638-1.02-1.02-1.786-1.403-2.424-.383-.637-.638-1.275-.638-2.168-.127-.638-.127-1.275-.127-2.04 0-.638.127-1.276.127-2.041.51-1.02.893-1.913 1.403-2.551.638-.638 1.148-1.148 1.786-1.658.51-.51 1.02-.765 1.786-1.148.51-.255 1.275-.383 2.04-.383-1.913-.51-3.571-1.02-5.23-1.53-1.657-.383-3.188-.893-4.719-1.403-1.53-.638-2.933-1.02-4.336-1.403-1.276-.383-2.679-.765-3.955-1.148l-3.06-.382c-1.021-.128-2.042-.128-3.19 0-1.148.127-2.168.255-3.316.765-1.02.382-2.296 1.148-3.572 2.168l-2.933-3.316a153.414 153.414 0 0 0 4.974-8.8 56.623 56.623 0 0 0 3.444-9.183c.893-3.061 1.53-6.25 2.041-9.566.255-3.188.51-6.887.51-10.968l3.572-.383c-1.786-2.423-3.19-4.72-4.082-6.76a14.59 14.59 0 0 1-1.658-5.74c0-1.912.255-3.57.893-5.1.638-1.531 1.53-3.062 2.55-4.592 1.531-1.913 3.19-3.699 4.848-5.102 1.786-1.403 3.699-2.423 5.612-3.188 2.041-.893 4.082-1.403 6.378-1.658 2.168-.256 4.337-.128 6.505.127-.638-2.04-1.53-3.571-2.423-4.719-.893-1.02-1.914-2.04-3.062-2.933zm20.919 15.943a44.11 44.11 0 0 0-1.148 9.949c0 3.316.128 6.504.255 9.565 2.806-.51 5.23-.637 7.526-.382 2.296.255 4.464.765 6.633 1.53a36.53 36.53 0 0 1 6.122 2.55 74.01 74.01 0 0 1 6.123 3.445c-.893-3.061-2.169-6.25-3.954-9.183-1.786-3.061-3.7-5.74-5.996-8.036-2.423-2.423-4.847-4.463-7.525-6.121-2.679-1.659-5.357-2.679-8.036-3.317zm-14.924 0c-3.061.638-5.485 1.786-7.27 3.572-1.786 1.785-2.679 4.464-3.19 8.035.256 1.275.511 2.423 1.021 3.57.383 1.021 1.148 2.041 2.041 2.934.893.766 2.041 1.403 3.317 2.168 1.275.51 2.806 1.02 4.464 1.148.127-3.443.127-7.014.127-10.586-.127-3.57-.255-7.142-.51-10.84zm13.52 31.63c0 3.062.128 5.995.128 8.928 0 2.806.256 5.612.51 8.418.256 2.679.766 5.357 1.276 8.035.51 2.679 1.148 5.485 1.914 8.418 2.295-1.02 4.081-2.04 5.612-3.316 1.658-1.275 2.806-2.678 3.826-4.464 1.02-1.658 1.786-3.316 2.424-5.357.383-1.913.893-3.826 1.02-6.122-.127-2.423-.637-4.464-1.53-6.25-.766-1.657-1.786-3.188-3.19-4.336-1.402-1.147-3.188-2.04-5.101-2.933-2.041-.638-4.337-1.02-6.888-1.02zm-13.775.51c-1.53.128-3.316.256-5.102.128-1.658-.127-3.444-.255-5.102-.51-1.786-.255-3.572-.638-5.357-1.275-1.659-.51-3.317-1.276-5.102-2.168-.256 2.04-.51 4.08-.893 6.122-.255 2.295-.383 4.336-.255 6.504.127 2.168.382 4.464.892 6.632a28.656 28.656 0 0 0 2.807 6.505c1.658 2.678 3.444 4.846 5.74 6.632 2.04 1.913 4.464 3.316 7.015 4.464 2.679 1.148 5.612 1.785 8.674 2.04 3.06.256 6.505 0 10.204-.637a17.92 17.92 0 0 0-2.679-3.954 41.749 41.749 0 0 0-3.444-3.06c-1.148-.894-2.55-1.659-3.954-2.297-1.275-.637-2.679-1.148-3.954-1.403-1.403-1.53-2.296-2.933-2.424-4.464 0-1.53.51-2.805 1.531-4.208.893-4.974 1.403-10.076 1.403-15.05zm1.913 39.921c.766.51 1.404 1.02 2.041 1.53.51.383.893.893 1.403 1.531.256.765.383 1.276.51 2.04.128.51.128 1.276-.127 1.914 0 .383.128.765.383 1.02.127.255.382.51.637.765.256.128.51.256.893.383h1.403c.893-.383 1.659-1.02 2.552-1.658.637-.638 1.275-1.403 1.785-2.04.383-.766.638-1.531.893-2.424.128-.765.383-1.658.638-2.55-2.296 0-4.464 0-6.505-.128l-6.506-.383zm0 0"/>
</svg>
