<svg xmlns="http://www.w3.org/2000/svg" width="191.910433" height="97.919996" viewBox="0 0 50.776302 25.907999">
    <path class="color-main color-red" fill="#c8242c" d="M24.631232 23.908837c0-.032778-.029122-.059613-.064729-.059613-.035588 0-.258587-.133995-.49554-.297834-.23695-.163892-.459184-.297815-.49385-.297815-.03465 0-.098137-.042324-.141037-.094013-.042882-.051689-.213713-.162271-.379576-.245892-.165855-.083567-.381152-.20809-.478433-.276762-.097273-.068618-.472534-.255365-.833907-.414899-2.679979-1.18314-4.907167-1.665883-7.685676-1.665883-2.359622 0-4.296843.350693-6.534519 1.182941-1.299989.4835-2.844237 1.281097-3.699752 1.910893-.193367.14228-.373458.258805-.4002.258805-.048518 0-1.632817-1.937367-1.78777-2.186195-.075791-.121748-.046035-.183199.410506-.848547 1.095404-1.596436 1.8812-3.70661 2.18428-5.865682.481298-3.42866-.318645-7.012081-2.180617-9.768297-.308049-.455998-.585845-.863315-.617324-.905153-.038122-.050608-.025637-.14174.037312-.272853.123105-.256266 1.753534-2.038242 1.88481-2.060017.055417-.009005.400984.170916.767923.400077 2.16848 1.35474 4.829561 2.304918 7.43753 2.655702.358227.048267 1.147202.104819 1.753272.12589 3.945986.136877 7.6519-.917453 10.846172-3.08562.281426-.191016.539299-.347308.573046-.347308.033733 0 .299363.168215.590257.373836 1.602582 1.132711 3.505057 1.963753 5.904764 2.579357 1.315312.33742 2.040659.406956 4.273627.409748 1.799813.001801 2.029743-.009005 2.725515-.134896 2.953144-.533964 5.481418-1.565026 7.565404-3.08526.28727-.209548.542345-.381005.566837-.381005.105701 0 2.255174 2.264575 2.388098 2.515979.077497.146602.066943.174338-.190497.502302-.60283.76779-1.514484 2.49035-1.90178 3.593399-.278643.79358-.5474 1.912495-.67959 2.829319-.144585 1.00284-.144045 3.139705.000953 4.078069.313149 2.025365 1.105647 4.114774 2.17592 5.736748.232936.353016.423525.678045.423525.722314 0 .07312-1.529428 1.743542-2.046313 2.235038l-.214536.204001-.611846-.377132c-2.20164-1.357045-3.980726-2.101295-6.181151-2.585732-1.207644-.265883-1.73312-.337762-2.873999-.393125-2.55396-.12391-4.720587.150205-6.89134.872213-1.669954.555396-2.836288 1.130423-4.493169 2.215263-.458082.299923-.632678.368271-.632678.247675zm2.107386-6.26729c.452836-.12373.508374-.157228.870851-.52685.770578-.78562 1.002847-1.467501.932046-2.736206-.059884-1.072846-.243506-1.499614-.862093-2.003501-.418058-.340553-.951606-.630516-1.469723-.798731-.696403-.2261-1.101948-.583168-1.101948-.970206 0-.189988.3254-.575801.485647-.575801.280435 0 .824777.47154.824777.714461 0 .181975.352552.247532 1.221078.227054l.774341-.01819-.01747-.268045c-.026726-.408668-.24156-1.187065-.416543-1.509339-.19999-.368325-.69125-.81748-1.129509-1.032682-.322455-.15831-.387767-.168215-1.116826-.168215-.718813.000018-.799224.010806-1.12136.162632-.44664.209223-1.123215.857786-1.324921 1.270056-.33199.678567-.33419 2.193327-.004322 2.914056.175058.38241.591268.846854.985706 1.09995.154347.099056.56354.298627.909307.443482 1.16618.488579 1.359618.631381 1.359618 1.003686 0 .267721-.130843.55174-.294525.639342-.166143.08897-.518472.075282-.717955-.027916-.203355-.105179-.436143-.39489-.564942-.703151l-.091996-.220156h-1.96404l.000954.25315c.004323 1.224743 1.015393 2.66051 2.047116 2.906817.408014.097435 1.290038.060154 1.786767-.075643zm6.468428.009005c.414784-.188151.869754-.570704 1.111025-.934203.436819-.65809.854739-1.889838.855706-2.522012l.000416-.27388-.61054-.03458c-.57824-.032598-1.07316.005404-1.215226.092933-.035354.021792-.079407.133095-.097957.247405-.018533.114184-.117354.38295-.219576.597162-.220132.46124-.418759.596855-.809593.552803-.736735-.083027-1.059285-.819047-1.063584-2.426937-.003783-1.359837.193127-2.203521.596506-2.55769.264529-.232259.561022-.244326.868549-.0353.333139.22637.493061.549795.67106 1.357081l.03613.163892H35.1742v-.204577c0-.768924-.686404-2.638754-1.142046-3.111033-.246465-.255474-.793436-.490506-1.379991-.593002-.769706-.134535-1.288195-.009005-1.969953.477755-1.216541.868106-1.718273 2.378381-1.624566 4.8902.042071 1.127362.107124 1.514795.35516 2.11455.423147 1.02321.986095 1.721877 1.638143 2.033074.550312.262642.626117.279247 1.293929.283515.477027.003602.648726-.020171.862177-.117065zm6.936966-.074021c.743292-.343453 1.56488-1.384547 1.948492-2.469063.152888-.432225.21497-1.568447.160236-2.932462-.047925-1.194594-.15314-1.721697-.474446-2.376797-.311266-.634677-1.028301-1.409815-1.533762-1.65803-.31504-.154707-.380972-.164253-1.109293-.16119-.734842.003601-.794091.012606-1.161617.184459-1.485673.695227-2.398805 2.986115-2.14507 5.381606.229264 2.164511 1.090709 3.60977 2.451777 4.113387.486229.179921 1.382358.140659 1.863675-.081766zm-30.523095-.835418c0-.469848.01747-1.219754.038938-1.666477l.038937-.812203 1.048107-.016209 1.048101-.016209v-2.084762l-1.087057-.01621-1.087055-.016208v-1.587593l.580756-.038542c.319413-.021072.94817-.038541 1.397226-.038722l.816476-.000306.01747-1.102021.01747-1.102004-2.46068.000054-2.460688.000054.036975 4.512041c.020351 2.481616.048897 4.570718.063431 4.642453.031698.156327.140281.172717 1.232167.18716l.75945.010807zm12.449032-3.82155V8.243718h-2.095956l.024296 4.541812c.013327 2.498004.04508 4.58745.070455 4.643245.051041.112203.260175.135976 1.360901.155427l.640322.010806zm-6.908595 3.05268c.000475-.859966.024728-1.601227.053904-1.64726.041838-.066098.160345-.076183.563222-.047727.280625.01981.56714.066457.636694.103738.189983.101757.338499.507201.381004 1.040319.097165 1.218673.165153 1.84566.214114 1.974432.052751.138678.06226.140119.970706.140119 1.1089 0 1.095896.007204.993406-.579584-.038686-.221777-.105683-.941767-.148818-1.599966-.05421-.827169-.106493-1.250245-.16933-1.369994-.10662-.203208-.42575-.553847-.634575-.697208l-.146765-.100677.241758-.25351c.132968-.139398.299096-.337456.369186-.44006.420894-.616162.402038-2.425712-.034364-3.29796-.191946-.38367-.532923-.665042-.985545-.81332-.26095-.085547-.633844-.105359-2.353255-.12535l-2.04316-.023953.01801 4.576391c.009905 2.517005.03964 4.609872.06615 4.650827.035355.05457.309462.074382 1.027493.074382h.9793l.000953-1.563567z"/>
    <path class="color-main color-red" fill="#c8242c" d="M38.749653 15.346319c-.243324-.12247-.487548-.462068-.63181-.87848-.149916-.432747-.190768-2.387549-.062603-2.994904.113914-.5398.362326-1.010278.627185-1.187858.262318-.17596.591577-.17794.8114-.005403.209272.164612.546962.888223.657175 1.408248.111915.52802.110402 1.940627-.002882 2.474177-.107268.506337-.372138.99171-.602558 1.1042-.094769.046287-.21885.10662-.275737.133996-.15548.075102-.291547.060694-.520424-.05439zm-23.639435-3.922876c.025106-1.065803.023971-1.064182.72377-1.013268.25579.01873.534824.068079.620074.109862.504173.247387.580945 1.122013.131672 1.500045-.177256.149124-.324338.181489-1.088343.239301l-.407613.030797z"/>
    <path d="M45.968703 25.456646c-2.247617-1.712241-5.06296-2.848176-8.091995-3.264966-1.020715-.14048-3.189273-.14048-4.206833.000054-2.893487.399447-5.788543 1.558416-8.062858 3.227757-.275155.201947-.544082.36719-.597614.36719-.053526 0-.201333-.080325-.328445-.17848-1.253138-.968332-3.096497-1.95979-4.703912-2.530009-4.077152-1.446357-8.22223-1.341466-12.283322.310801-1.13008.459763-2.594042 1.26089-3.191513 1.746478-.146717.119227-.423883.320833-.615925.447966l-.349166.23116-.354401-.384408C2.412974 24.595275.17479 21.901987.17479 21.810639c0-.022152.15648-.22718.34773-.45553.92861-1.10872 2.07404-3.43716 2.493864-5.069544.290042-1.127758.384324-1.904337.383048-3.155014-.001287-1.26903-.114073-2.082907-.467129-3.3711C2.500095 8.18245 1.37442 6.053904.341601 4.860661-.147243 4.29588-.184364 4.4378.7153 3.431935c.338495-.378464.758505-.858632.933355-1.067046C2.199334 1.70851 3.560887.23721 3.617624.23721c.029891 0 .301172.182659.602847.40593.671249.496756 1.759895 1.1616 2.559483 1.563081 2.60258 1.306761 5.733884 1.926652 8.65937 1.714222 2.463748-.17884 5.035118-.95713 7.175836-2.171823.728168-.413188 1.482268-.900705 1.645146-1.063588.05068-.050609.119803-.092212.153608-.092212.033806 0 .153033-.080325.264946-.17866.166918-.146603.22855-.168935.342921-.12427.076688.029896.556182.333367 1.06555.674317 1.702297 1.139447 3.632147 1.997467 5.638789 2.507064 2.021428.51336 4.510872.610543 6.684107.260984 2.696354-.433702 5.397491-1.61947 7.714869-3.386714.249204-.190043.480126-.345542.513153-.345542.066385 0 3.947118 3.981859 4.086208 4.192685.101145.153266.115013.130574-.53818.882604-1.169221 1.34615-2.020198 3.040866-2.532617 5.043664-.200404.783279-.239192 1.046497-.297018 2.015514-.094229 1.579092-.011526 2.62721.302747 3.837688.352509 1.357675.786311 2.425424 1.382827 3.403716.406984.667437 1.052704 1.543738 1.396359 1.894971.244687.250089.24835.259688.154023.403643-.100317.153086-1.997091 2.157685-3.289356 3.476315l-.742047.7572zm1.467922-.929647c1.4278-1.528141 2.469074-2.68124 2.538677-2.811309.080938-.151285.082235-.148763-.676444-1.266472-1.429944-2.106518-2.173419-4.393714-2.273035-6.99272-.112851-2.944584.84876-5.857505 2.784253-8.433944.288374-.383886.515635-.723845.505027-.755489-.033499-.099956-3.499524-3.674264-3.56291-3.674264-.033264 0-.374248.22682-.75776.50405-2.463033 1.780427-5.204652 2.857306-8.286183 3.254772-1.428448.184243-3.758802.098335-5.261349-.194132-2.05345-.399572-4.559444-1.445673-6.54171-2.73075l-.915846-.593739-.24011.137778c-.132069.075822-.600235.369405-1.040386.652506-1.644898 1.05806-3.528735 1.87689-5.453737 2.370565-3.475585.891322-7.802138.497764-11.114952-1.011052-1.312254-.597666-1.962461-.96491-3.352492-1.893567-.115866-.077443-.240516-.140659-.277-.140659-.03648 0-.463305.446813-.948494.992934C1.004476 3.694811.589748 4.201688.589748 4.352235c0 .086448.148955.320166.385319.604474.211925.254897.385318.48159.385318.503743 0 .022152.164542.302102.365648.62207.962416 1.531275 1.709132 3.561737 1.948828 5.299282.086512.62713.086566 2.635313.00009 3.349307-.18195 1.502243-.512832 2.615034-1.21624 4.090298-.39936.837597-1.16991 2.135623-1.562889 2.632774-.135737.171637-.246794.334736-.246794.362256 0 .027555.12671.207729.281579.400473.367576.457475 2.577647 2.918019 2.620075 2.91701.017974-.000414.392818-.241443.83297-.535585 1.889067-1.262474 4.236593-2.237254 6.483155-2.692082 1.369045-.277175 2.320837-.351971 3.95008-.310458 1.900146.048447 3.13025.259796 4.890578.840388 1.664417.54895 2.748016 1.077762 4.458225 2.175678.397979.255491.787765.488939.866188.518745.12337.046827.265909-.027195 1.057175-.548822 2.739918-1.806578 5.8048-2.843367 8.882945-3.004954 3.684894-.19341 7.465182.89042 10.686943 3.06401.496237.33479.94656.609552 1.000722.610578.054157.000937.40379-.324938.776962-.72433z"/>
</svg>
