<?xml version="1.0" encoding="UTF-8" standalone="no"?>
<svg
   xmlns="http://www.w3.org/2000/svg"
   id="svg672"
   version="1.1"
   viewBox="0 0 50.776302 25.907999"
   height="25.907999mm"
   width="50.776302mm">
  <g
     transform="translate(-78.933278,-105.64124)"
     id="layer1">
    <g
       transform="matrix(1.8010127,0,0,1.8010127,69.295838,-75.780769)"
       id="g1960">
      <path
         style="fill:#c8242c;fill-opacity:1;stroke:none;stroke-width:0.00440972;stroke-miterlimit:4;stroke-dasharray:none;stroke-opacity:1"
         d="m 19.027446,114.00855 c 0,-0.0182 -0.01617,-0.0331 -0.03594,-0.0331 -0.01976,0 -0.143579,-0.0744 -0.275146,-0.16537 -0.131564,-0.091 -0.254958,-0.16536 -0.274206,-0.16536 -0.01924,0 -0.05449,-0.0235 -0.07831,-0.0522 -0.02381,-0.0287 -0.118663,-0.0901 -0.210757,-0.13653 -0.09209,-0.0464 -0.211632,-0.11554 -0.265647,-0.15367 -0.05401,-0.0381 -0.262371,-0.14179 -0.463021,-0.23037 -1.48804,-0.65693 -2.724671,-0.92497 -4.267419,-0.92497 -1.310164,0 -2.385793,0.19472 -3.628247,0.65682 -0.72181,0.26846 -1.579243,0.71132 -2.054262,1.06101 -0.107366,0.079 -0.20736,0.1437 -0.222208,0.1437 -0.02694,0 -0.906611,-1.07571 -0.992648,-1.21387 -0.042082,-0.0676 -0.02556,-0.10172 0.227931,-0.47115 0.608216,-0.88641 1.044524,-2.05807 1.212807,-3.25688 0.267237,-1.90374 -0.176926,-3.89341 -1.210773,-5.42378 -0.171042,-0.25319 -0.3252863,-0.47935 -0.3427647,-0.50258 -0.021167,-0.0281 -0.014235,-0.0787 0.020717,-0.1515 0.068353,-0.14229 0.9736377,-1.13172 1.0465277,-1.14381 0.03077,-0.005 0.222644,0.0949 0.426384,0.22214 1.204034,0.75221 2.681581,1.27979 4.129638,1.47456 0.198903,0.0268 0.636976,0.0582 0.973492,0.0699 2.190982,0.076 4.248665,-0.50941 6.022263,-1.71327 0.15626,-0.10606 0.299442,-0.19284 0.31818,-0.19284 0.01873,0 0.166219,0.0934 0.327736,0.20757 0.889823,0.62893 1.946159,1.09036 3.27858,1.43217 0.730318,0.18735 1.133062,0.22596 2.372902,0.22751 0.999334,10e-4 1.127001,-0.005 1.513324,-0.0749 1.639713,-0.29648 3.04352,-0.86897 4.200639,-1.71307 0.159504,-0.11635 0.301133,-0.21155 0.314732,-0.21155 0.05869,0 1.25217,1.25739 1.325975,1.39698 0.04303,0.0814 0.03717,0.0968 -0.105772,0.2789 -0.334717,0.42631 -0.840907,1.38275 -1.05595,1.99521 -0.154715,0.44063 -0.30394,1.0619 -0.377338,1.57096 -0.08028,0.55682 -0.07998,1.7433 5.29e-4,2.26432 0.173874,1.12457 0.613903,2.2847 1.208165,3.18529 0.129336,0.19601 0.235159,0.37648 0.235159,0.40106 0,0.0406 -0.849204,0.96809 -1.136201,1.24099 l -0.11912,0.11327 -0.339723,-0.2094 c -1.222446,-0.75349 -2.210271,-1.16673 -3.432042,-1.43571 -0.670536,-0.14763 -0.962303,-0.18754 -1.595768,-0.21828 -1.418069,-0.0688 -2.621074,0.0834 -3.82637,0.48429 -0.92723,0.30838 -1.574829,0.62766 -2.494801,1.23001 -0.254347,0.16653 -0.35129,0.20448 -0.35129,0.13752 z m 1.170112,-3.47987 c 0.251434,-0.0687 0.282271,-0.0873 0.483534,-0.29253 0.427858,-0.43621 0.556824,-0.81482 0.517512,-1.51926 -0.03325,-0.59569 -0.135205,-0.83265 -0.478671,-1.11243 -0.232124,-0.18909 -0.528373,-0.35009 -0.816054,-0.44349 -0.386673,-0.12554 -0.611849,-0.3238 -0.611849,-0.5387 0,-0.10549 0.180676,-0.31971 0.269652,-0.31971 0.15571,0 0.457952,0.26182 0.457952,0.3967 0,0.10104 0.195752,0.13744 0.677995,0.12607 l 0.429948,-0.0101 -0.0097,-0.14883 c -0.01484,-0.22691 -0.134125,-0.65911 -0.231283,-0.83805 -0.111043,-0.20451 -0.383812,-0.4539 -0.627152,-0.57339 -0.179041,-0.0879 -0.215305,-0.0934 -0.62011,-0.0934 -0.399116,1e-5 -0.443764,0.006 -0.622628,0.0903 -0.247994,0.11617 -0.623657,0.47628 -0.735653,0.70519 -0.184335,0.37677 -0.185557,1.21783 -0.0024,1.61801 0.0972,0.21233 0.328298,0.47021 0.547307,0.61074 0.0857,0.055 0.312901,0.16581 0.504886,0.24624 0.647514,0.27128 0.754919,0.35057 0.754919,0.55729 0,0.14865 -0.07265,0.30635 -0.163533,0.35499 -0.09225,0.0494 -0.287878,0.0418 -0.39864,-0.0155 -0.112911,-0.0584 -0.242165,-0.21926 -0.31368,-0.39042 l -0.05108,-0.12224 H 18.613569 18.06831 l 5.3e-4,0.14056 c 0.0024,0.68003 0.56379,1.47723 1.136647,1.61399 0.226547,0.0541 0.716285,0.0334 0.99209,-0.042 z m 3.59155,0.005 c 0.230306,-0.10447 0.482925,-0.31688 0.616889,-0.51871 0.242541,-0.3654 0.474588,-1.04932 0.475125,-1.40033 l 2.31e-4,-0.15207 -0.338998,-0.0192 c -0.321064,-0.0181 -0.595865,0.003 -0.674746,0.0516 -0.01963,0.0121 -0.04409,0.0739 -0.05439,0.13737 -0.01029,0.0634 -0.06516,0.21263 -0.121918,0.33157 -0.122227,0.2561 -0.232513,0.3314 -0.449521,0.30694 -0.409067,-0.0461 -0.588161,-0.45477 -0.590548,-1.34754 -0.0021,-0.75504 0.107233,-1.22349 0.331206,-1.42014 0.146878,-0.12896 0.311504,-0.13566 0.482256,-0.0196 0.184973,0.12569 0.273769,0.30527 0.372602,0.75351 l 0.02006,0.091 h 0.512001 0.512 v -0.11359 c 0,-0.42694 -0.381121,-1.46515 -0.634113,-1.72738 -0.136848,-0.14185 -0.44055,-0.27235 -0.766231,-0.32926 -0.427374,-0.0747 -0.715261,-0.005 -1.093803,0.26527 -0.675476,0.48201 -0.954059,1.32058 -0.902029,2.71525 0.02336,0.62596 0.05948,0.84108 0.1972,1.17409 0.23495,0.56813 0.547523,0.95606 0.909568,1.12885 0.305557,0.14583 0.347647,0.15505 0.718445,0.15742 0.264866,0.002 0.360201,-0.0112 0.478718,-0.065 z m 3.851703,-0.0411 c 0.412708,-0.1907 0.868889,-0.76876 1.081887,-1.37093 0.08489,-0.23999 0.119361,-0.87087 0.08897,-1.62823 -0.02661,-0.66329 -0.08503,-0.95596 -0.263433,-1.3197 -0.172828,-0.3524 -0.570957,-0.78279 -0.851611,-0.92061 -0.174924,-0.0859 -0.211532,-0.0912 -0.615927,-0.0895 -0.408016,0.002 -0.440914,0.007 -0.64498,0.10242 -0.82491,0.38602 -1.33192,1.65802 -1.191035,2.9881 0.127297,1.20183 0.605608,2.0043 1.361332,2.28393 0.269975,0.0999 0.767545,0.0781 1.034793,-0.0454 z m -16.94774,-0.46386 c 0,-0.26088 0.0097,-0.67726 0.02162,-0.9253 l 0.02162,-0.45097 0.581954,-0.009 0.581951,-0.009 v -0.57877 -0.57878 l -0.603581,-0.009 -0.60358,-0.009 v -0.44075 -0.44075 l 0.322461,-0.0214 c 0.177352,-0.0117 0.526465,-0.0214 0.7758,-0.0215 l 0.453343,-1.7e-4 0.0097,-0.61189 0.0097,-0.61188 -1.366276,3e-5 -1.36628,3e-5 0.02053,2.50528 c 0.0113,1.3779 0.02715,2.53786 0.03522,2.57769 0.0176,0.0868 0.07789,0.0959 0.684152,0.10392 l 0.421679,0.006 z m 6.91224,-2.12189 v -2.59623 h -0.581882 -0.581883 l 0.01349,2.52181 c 0.0074,1.387 0.02503,2.54715 0.03912,2.57813 0.02834,0.0623 0.14446,0.0755 0.755631,0.0863 l 0.355534,0.006 z m -3.83595,1.69498 c 2.64e-4,-0.47749 0.01373,-0.88907 0.02993,-0.91463 0.02323,-0.0367 0.08903,-0.0423 0.312725,-0.0265 0.155815,0.011 0.314901,0.0369 0.35352,0.0576 0.105487,0.0565 0.187949,0.28162 0.21155,0.57763 0.05395,0.67666 0.0917,1.02479 0.118885,1.09629 0.02929,0.077 0.03457,0.0778 0.538978,0.0778 0.615709,0 0.608489,0.004 0.551582,-0.32181 -0.02148,-0.12314 -0.05868,-0.52291 -0.08263,-0.88837 -0.0301,-0.45928 -0.05913,-0.69419 -0.09402,-0.76068 -0.0592,-0.11283 -0.236394,-0.30752 -0.352343,-0.38712 l -0.08149,-0.0559 0.134234,-0.14076 c 0.07383,-0.0774 0.166071,-0.18737 0.204988,-0.24434 0.233699,-0.34212 0.223229,-1.34686 -0.01908,-1.83117 -0.106577,-0.21303 -0.295902,-0.36926 -0.547217,-0.45159 -0.144891,-0.0475 -0.351938,-0.0585 -1.306629,-0.0696 l -1.134451,-0.0133 0.01,2.54101 c 0.0055,1.39755 0.02201,2.5596 0.03673,2.58234 0.01963,0.0303 0.171826,0.0413 0.570508,0.0413 h 0.54375 l 5.29e-4,-0.86816 z"
         id="path1492" />
      <path
         style="fill:#c8242c;fill-opacity:1;stroke:none;stroke-width:0.00440972;stroke-miterlimit:4;stroke-dasharray:none;stroke-opacity:1"
         d="m 26.866603,109.25427 c -0.135104,-0.068 -0.270708,-0.25656 -0.350808,-0.48777 -0.08324,-0.24028 -0.105923,-1.32567 -0.03476,-1.6629 0.06325,-0.29972 0.201179,-0.56095 0.34824,-0.65955 0.14565,-0.0977 0.328469,-0.0988 0.450524,-0.003 0.116197,0.0914 0.303697,0.49318 0.364892,0.78192 0.06214,0.29318 0.0613,1.07752 -0.0016,1.37377 -0.05956,0.28114 -0.206627,0.55064 -0.334566,0.6131 -0.05262,0.0257 -0.121515,0.0592 -0.153101,0.0744 -0.08633,0.0417 -0.16188,0.0337 -0.288962,-0.0302 z"
         id="path1494" />
      <path
         style="fill:#c8242c;fill-opacity:1;stroke:none;stroke-width:0.00440972;stroke-miterlimit:4;stroke-dasharray:none;stroke-opacity:1"
         d="m 13.740968,107.07612 c 0.01394,-0.59178 0.01331,-0.59088 0.401868,-0.56261 0.142026,0.0104 0.296958,0.0378 0.344292,0.061 0.279939,0.13736 0.322566,0.62299 0.07311,0.83289 -0.09842,0.0828 -0.180086,0.10077 -0.604295,0.13287 l -0.226324,0.0171 z"
         id="path1496" />
      <path
         style="fill:#000000;fill-opacity:1;stroke:none;stroke-width:0.00438862;stroke-miterlimit:4;stroke-dasharray:none;stroke-opacity:1"
         d="m 30.874931,114.86796 c -1.247974,-0.95071 -2.811174,-1.58143 -4.493025,-1.81285 -0.566745,-0.078 -1.770822,-0.078 -2.335815,3e-5 -1.606589,0.22179 -3.214049,0.8653 -4.476847,1.79219 -0.152778,0.11213 -0.302098,0.20388 -0.331821,0.20388 -0.02972,0 -0.111789,-0.0446 -0.182367,-0.0991 -0.695796,-0.53766 -1.719309,-1.08816 -2.611815,-1.40477 -2.263811,-0.80308 -4.565337,-0.74484 -6.8202308,0.17257 -0.6274694,0.25528 -1.4403239,0.7001 -1.7720653,0.96972 -0.081464,0.0662 -0.2353585,0.17814 -0.3419885,0.24873 l -0.1938721,0.12835 -0.1967786,-0.21344 c -0.4273957,-0.46358 -1.670132,-1.95901 -1.670132,-2.00973 0,-0.0123 0.086884,-0.12614 0.1930749,-0.25293 0.5156041,-0.61561 1.1515963,-1.90846 1.3847006,-2.81483 0.1610442,-0.62618 0.2133936,-1.05737 0.2126848,-1.7518 -7.144e-4,-0.70462 -0.063338,-1.15652 -0.2593698,-1.87178 -0.2399807,-0.87562 -0.8650044,-2.05748 -1.4384697,-2.72002 -0.2714273,-0.31359 -0.2920388,-0.23479 0.2074934,-0.79329 0.1879471,-0.21014 0.4211548,-0.47675 0.5182391,-0.59247 0.3057607,-0.36445 1.0617541,-1.18138 1.0932565,-1.18138 0.016597,0 0.1672241,0.10142 0.3347267,0.22539 0.3727064,0.27582 0.9771698,0.64497 1.4211358,0.86789 1.445065,0.72557 3.1837,1.06976 4.808056,0.95181 1.367979,-0.0993 2.795715,-0.53144 3.984334,-1.20589 0.40431,-0.22942 0.823019,-0.50011 0.913456,-0.59055 0.02814,-0.0281 0.06652,-0.0512 0.08529,-0.0512 0.01877,0 0.08497,-0.0446 0.147109,-0.0992 0.09268,-0.0814 0.126901,-0.0938 0.190405,-0.069 0.04258,0.0166 0.308816,0.1851 0.591639,0.37441 0.945189,0.63267 2.016725,1.10908 3.130899,1.39203 1.122384,0.28504 2.504631,0.339 3.711305,0.14491 1.497132,-0.24081 2.99692,-0.8992 4.283628,-1.88045 0.138369,-0.10552 0.266587,-0.19186 0.284925,-0.19186 0.03686,0 2.19161,2.2109 2.268839,2.32796 0.05616,0.0851 0.06386,0.0725 -0.298821,0.49006 -0.649202,0.74744 -1.121701,1.68842 -1.406218,2.80046 -0.111273,0.43491 -0.13281,0.58106 -0.164917,1.1191 -0.05232,0.87678 -0.0064,1.45874 0.168098,2.13085 0.195728,0.75384 0.436594,1.3467 0.767805,1.88989 0.225975,0.37059 0.584507,0.85715 0.775319,1.05217 0.135861,0.13886 0.137895,0.14419 0.08552,0.22412 -0.0557,0.085 -1.108871,1.19804 -1.826392,1.9302 l -0.412017,0.42043 z m 0.815054,-0.51618 c 0.792776,-0.84849 1.370936,-1.48874 1.409583,-1.56096 0.04494,-0.084 0.04566,-0.0826 -0.375591,-0.7032 -0.793967,-1.16963 -1.206776,-2.43958 -1.262087,-3.88266 -0.06266,-1.63496 0.471268,-3.25234 1.545937,-4.68289 0.160118,-0.21315 0.286303,-0.40191 0.280413,-0.41948 -0.0186,-0.0555 -1.943087,-2.04011 -1.978281,-2.04011 -0.01847,0 -0.207799,0.12594 -0.420741,0.27987 -1.367583,0.98857 -2.889848,1.5865 -4.600847,1.80719 -0.793136,0.1023 -2.087049,0.0546 -2.921328,-0.10779 -1.140164,-0.22186 -2.5316,-0.8027 -3.63224,-1.51623 l -0.508517,-0.32967 -0.13332,0.0765 c -0.07333,0.0421 -0.333276,0.20511 -0.577667,0.3623 -0.913318,0.58748 -1.959306,1.04213 -3.02815,1.31624 -1.929795,0.4949 -4.332084,0.27638 -6.1715012,-0.56138 -0.7286199,-0.33185 -1.0896431,-0.53576 -1.8614483,-1.05139 -0.064334,-0.043 -0.1335447,-0.0781 -0.153802,-0.0781 -0.020256,0 -0.2572475,0.24809 -0.5266449,0.55132 -0.8649015,0.97351 -1.0951763,1.25495 -1.0951763,1.33854 0,0.048 0.082706,0.17777 0.2139455,0.33563 0.11767,0.14153 0.2139453,0.2674 0.2139453,0.2797 0,0.0123 0.091361,0.16774 0.2030238,0.3454 0.5343749,0.85023 0.9489839,1.97763 1.0820735,2.94239 0.048035,0.34821 0.048065,1.46324 4.95e-5,1.85968 -0.1010264,0.83411 -0.2847464,1.45198 -0.6753082,2.27111 -0.221742,0.46507 -0.6495854,1.18579 -0.8677838,1.46183 -0.075367,0.0953 -0.1370309,0.18586 -0.1370309,0.20114 0,0.0153 0.070355,0.11534 0.1563449,0.22236 0.2040941,0.25401 1.4312207,1.62021 1.4547789,1.61965 0.00998,-2.3e-4 0.2181093,-0.13406 0.4625007,-0.29738 1.0488914,-0.70098 2.3523395,-1.24222 3.5997275,-1.49476 0.760153,-0.1539 1.288629,-0.19543 2.193255,-0.17238 1.055043,0.0269 1.73805,0.14425 2.71546,0.46662 0.924156,0.3048 1.525817,0.59842 2.475399,1.20803 0.220975,0.14186 0.437401,0.27148 0.480945,0.28803 0.0685,0.026 0.147644,-0.0151 0.586989,-0.30473 1.521321,-1.00309 3.223076,-1.57876 4.932195,-1.66848 2.046012,-0.10739 4.144991,0.4944 5.933852,1.70127 0.275532,0.18589 0.525571,0.33845 0.555644,0.33902 0.03007,5.2e-4 0.224202,-0.18042 0.431403,-0.40218 z"
         id="path1954" />
    </g>
  </g>
</svg>
