<svg xmlns="http://www.w3.org/2000/svg" width="191.994505" height="191.807996" viewBox="0 0 50.798546 50.749199">
    <path class="color-red color-stroke-white color-main" fill="red" stroke="#fff" stroke-width=".002408" d="M6.089023 19.740632c-.130278-.253253-.142656-.286479-.142656-.382885 0-.181284.104848-.341639.495095-.757166.611292-.65089.825576-.908281 1.097055-1.317718.601601-.907322.698065-1.613194.249093-1.822711-.144736-.067543-.24443-.051427-.424206.068635-.165174.110297-.349637.304288-.799412.840698-1.251568 1.492646-1.766528 1.93736-2.243392 1.93736-.309876 0-.599608-.188097-1.07222-.696107-.27387-.294378-.340385-.455114-.320947-.77557.061875-1.020035.580378-2.063709 1.540434-3.100686.270796-.292494 1.12319-1.119578 1.145997-1.111974.025598.008552.385.527864.43452.627899.088663.179123.040333.26452-.31102.549844-.609425.494852-1.128003 1.131124-1.470237 1.803903-.189888.373293-.280585.66907-.280585.915013 0 .230013.05732.405288.161094.49261.289004.243182.963309-.293586 1.743363-1.387757.330187-.463152.527783-.668544.898054-.933492.300405-.21495.728933-.392414.947574-.392414.117012 0 .221242.040853.448476.17576.32034.190183.642985.496343.740657.702804.086814.183514.103346.30642.093118.692425-.006992.264539-.01901.397025-.04825.532689-.17874.829598-.644227 1.602966-1.53763 2.554632-.293084.312198-.579563.573247-.938005.854733l-.263331.206796zm3.068807-6.334817c-.182538-.034612-.407027-.110424-.57538-.194268-.518277-.258119-.981105-.74376-1.2533-1.31506-.189114-.396932-.269803-.719006-.285405-1.139277-.017161-.462898.052872-.771525.273305-1.204347.388727-.76321 1.095223-1.52256 1.70749-1.835233.630032-.321744 1.375549-.363886 2.115674-.1196.23363.077112.605115.266064.809085.411534.320831.228817.634451.580303.812147.910212.499007.926437.28433 2.268961-.520277 3.253633-.164122.200855-.449977.463054-.662678.607836-.365556.248833-.9641.49803-1.434395.597204-.2396.050503-.78451.065642-.986266.02739zm.905005-.85787c.625466-.18514 1.136024-.49902 1.485568-.913292.5295-.627546.71763-1.371706.51017-2.017956-.076245-.237508-.19328-.424455-.387894-.619607-.64561-.647406-1.418741-.786168-2.203736-.395528-.289357.14399-.5053.30624-.804381.60438-.465753.464274-.577101.6936-.60578 1.247575-.035247.680817.15411 1.287215.522982 1.674855.175881.184827.465804.341102.796892.429546.138484.036981.191893.04224.361147.03542.126927-.0052.244262-.021495.325032-.045417zm5.326917-3.487178c-.66098-.102976-1.224438-.583653-1.93595-1.651533-.497648-.746898-1.30534-2.178109-1.30534-2.313033 0-.033746.022593-.070525.072414-.11793.182318-.173432.634133-.420705.834301-.456606.081827-.014677.00653-.129626.67315 1.027662.779585 1.353388 1.178661 1.991763 1.357825 2.172025.183121.184248.50126.288102.819555.267537.442968-.028603.824836-.188738 1.102486-.46228.211464-.208344.303935-.398544.304455-.626274.000497-.217295-.170392-.740773-.481434-1.47474-.384191-.906576-.92957-2.246709-.954116-2.344502-.010574-.042181.003467-.048249.509298-.224592.347637-.121144.524195-.174663.532296-.161355.019184.03155.782828 1.989555.912436 2.33955.265573.717163.507524 1.484672.55642 1.765055.05114.29328-.027562.565955-.267167.92549-.11782.1768-.499949.55468-.717232.709263-.336624.239472-.93125.50025-1.345223.589935-.20312.044031-.511309.060765-.668174.036346zm6.518823-2.015777c-.080198-.039524-.1742-.152791-.236647-.28515-.120195-.25475-.21994-.638277-.46277-1.779316-.179326-.842645-.326905-1.477854-.408062-1.756341-.049347-.169346-.062348-.195811-.100953-.205501-.10174-.02554-.557022.03334-1.205844.155888-.505848.095562-.814007.144667-.907825.144672-.096296.000006-.084387.028545-.229764-.550746-.09844-.392234-.10942-.45223-.083746-.457506.016237-.003467.691807-.134925 1.501227-.292408 3.11463-.605981 4.262654-.816943 4.291078-.78852.027158.027159.170427.62601.173917.726957.008494.245586-.08348.285058-1.170359.502232-.524992.1049-.662603.147018-.760124.232642-.11061.097116-.139351.17654-.147626.407934-.010863.303363.01358.467769.291778 1.961952.22015 1.182522.267746 1.598627.20241 1.7697-.036346.095176-.081307.123363-.313348.19647-.17494.055126-.342703.061708-.433342.017047zm7.790315.290281c-.16763-.034092-.332787-.075263-.367013-.091506-.198555-.094222-.192378-.28637.049694-1.54575.099469-.517537.105392-.591766.05397-.676135-.070213-.115146-.24139-.16956-.865504-.27512-.782245-.132306-1.11951-.158187-1.312905-.100756-.093638.027794-.189935.106992-.234191.19258-.076829.148568-.112637.62364-.115157 1.527837l-.001155.32955h-1.267406l.011036-.085773c.073616-.571808.249128-2.641041.408553-4.816798.02109-.288016.041488-.526807.045302-.53065.006414-.006471 1.223704-.12703 1.22943-.121767.001156.001156-.033398.347701-.077348.769792-.095857.920491-.118139 1.401452-.070681 1.525716.041777.109448.090067.131313.338328.153265.343055.030336 1.337636.15846 2.145138.27635.021148.002889.056974-.14744.173211-.727431.080603-.402231.165042-.800394.187647-.88481.058656-.219075.149815-.403237.229845-.464343.061609-.047035.079077-.050676.270248-.056339.34662-.010285.475298.038658.561979.213724.046516.09395.049058.112476.047613.34309-.000577.134075-.015312.34128-.032185.46046-.140576.995493-.789987 4.019506-.971404 4.523367-.035884.099665-.049058.117826-.087363.120404-.02479.001733-.182255-.024847-.34989-.05894zm5.484862 2.104914c-.098822-.01982-.336173-.118987-.607646-.253946-.432567-.215042-2.775723-1.467806-2.775723-1.484031 0-.01485 2.413704-4.816382 2.428733-4.831406.007974-.007974 1.79245.83515 2.36549 1.11766.891587.439548 1.30916.712904 1.30916.85701 0 .048018-.104473.231938-.211794.372814-.159934.209927-.307726.240113-.636902.130076-.084421-.028198-.606334-.276592-1.159819-.551942l-1.006328-.500636-.04276.057968c-.2987.40471-.535792.803878-.535792.902053 0 .100606.386098.33979 1.318186.816608.607958.311008.735284.384948.835579.485242.092153.092153.112978.168509.078296.287098-.037501.128331-.156599.370357-.218069.443245-.166018.196834-.29696.161592-1.367406-.368052-.9488-.469456-1.071705-.514891-1.206173-.445903-.07643.039235-.193447.222183-.271473.424489-.094932.246129-.063804.428147.096811.566157.150607.129412.304178.215844.9475.53326.672316.331724 1.011187.513817 1.16551.626287.081937.05972.086993.068.077447.126818-.021784.134115-.294118.629915-.367023.668144-.05478.028719-.13715.03675-.215787.020976zm4.987468 4.675593c-.166683-.175159-.361367-.418162-.493397-.615856l-.080839-.121034.001734-.16834c.003467-.317475.078741-.668573.326095-1.515639.080227-.274737.145869-.511701.145869-.526592 0-.029759-.620093-.60044-.859391-.79094-.166134-.132262-.399492-.285301-.490698-.321815-.087264-.034959-.17275-.01277-.298463.077477-.190403.136646-.324455.270756-.620878.621155-.15713.18574-.30356.358252-.325402.383365l-.039697.045649-.371092-.370011c-.204097-.203502-.371086-.376639-.371086-.384746 0-.014041 1.377848-1.658277 2.030478-2.423053.633128-.741929 1.317822-1.493796 1.47036-1.614604l.069426-.05501.088472.044089c.463482.23096 2.514606 2.12496 3.018686 2.78743.102213.134335.20924.356328.258026.53518.06789.248884.0271.53504-.13634.9569-.247735.639374-.64562.944096-1.42705 1.092923-.608484.115885-.688705.14272-.818423.273738-.140581.14198-.215087.313775-.499844 1.15248-.222172.654363-.38964 1.101498-.412546 1.101498-.004045 0-.077967-.073928-.163949-.164279zm2.079194-3.373493c.208367-.091778.329256-.299192.344008-.590241.009708-.191125-.018028-.310471-.114867-.494668-.129782-.246862-.429736-.58248-.794558-.889034-.192136-.16144-1.275236-1.006987-1.289901-1.006987-.00942 0-.30849.34688-.614447.712604-.202814.242436-.394742.495851-.43437.57353l-.035017.068658.086265.092506c.102589.110008.414475.387652.727304.647447.601659.499665 1.073611.780042 1.507785.895742.215463.057437.474859.053392.61781-.009534zm.841553 8.71366c-.078782-.190056-.172102-.426807-.207379-.526125-.05976-.168237-.064065-.19476-.063001-.38823.001155-.188519.006645-.22261.060684-.369878.076286-.207818.278938-.61228.524911-1.047626.106616-.188698.315515-.55842.464215-.821607.519578-.919578.799926-1.452798.799926-1.521457 0-.046573-.057494-.03334-.334058.076916-.290235.115694-.56072.241887-1.352873.631192-.854948.420161-1.087128.518653-1.238359.525304-.131503.005779-.162833-.002311-.226563-.058217-.117745-.10338-.28753-.386953-.333174-.556466-.021322-.079112-.020744-.080972.039062-.135797.170895-.156617 1.497534-.923745 2.832016-1.63762.86054-.460338 1.855047-.953381 1.923046-.953381.074645 0 .274767.322443.512887.826373l.16437.347857-.710679 1.196044c-1.015741 1.709467-1.409761 2.394981-1.632303 2.83988-.122547.244996-.12688.261222-.069756.261222.108587 0 .81896-.235341 1.907087-.6318 1.16503-.424483 1.47906-.52112 1.742536-.536248.14933-.008552.167567-.005894.224767.033226.04224.028834.087935.092315.14213.19737.06641.12872.081168.175928.08749.279812.00676.111152.001733.134884-.042818.214642-.111759.198787-.419416.372611-1.1158.630424-.228423.084566-.854115.315949-1.390415.514187-.85552.316226-2.3913.887959-2.51928.93786-.045071.017567-.046516.015082-.188663-.327834zm-30.956565 6.389838v-2.482882h1.099586l.00705 1.647732c.007396 1.740277.007511 1.741924.091373 1.975178.083994.233596.26258.353508.6033.405092.085294.012943.555686.02658 1.205271.035016 1.109334.014389 1.201556.02115 1.316857.096695.083359.054606.090882.089958.097614.458478l.006356.347608h-4.427372zm5.92281 0v-2.482882h.902867v4.96577h-.902867zm7.322256 2.589874c-.158286-.030163-.310257-.070553-.365648-.097163-.185352-.089038-.52924-.465885-.890825-.976206-.084318-.119005-.36933-.541408-.63336-.93867-.625899-.941744-.980089-1.417498-1.055288-1.417498-.044667 0-.082966.217757-.115873.65909-.010344.139044-.023865.7952-.030048 1.458132l-.01121 1.20533h-1.078038V23.3629l.573322.000266c.624871.000289.734954.012886.886405.101676.164695.096516.387173.360165.69116.819075.075627.114163.32045.483845.54406.821514.557779.84231.96239 1.38139 1.036816 1.38139.100751 0 .150566-.717793.150566-2.169528V23.3629h1.101498v.077043c0 .042355-.024269.568526-.053912 1.169215-.128504 2.603193-.198428 3.591834-.263787 3.72956-.03727.078586-.124264.153075-.175749.150521-.02161-.001156-.161129-.025194-.3101-.053565zm3.85524.053248c-.328534-.016526-.731227-.059026-.83288-.087912-.056916-.01618-.066832-.027332-.07617-.086086-.04952-.311667-.083353-1.765633-.083786-3.602224l-.000318-1.349782h4.026788v.32561c0 .381013-.012192.428708-.124234.485867-.136837.069808-.273068.077303-1.568638.086329l-1.250475.008725v1.112286l1.187272.00861c.994148.007223 1.207126.013232 1.309322.03704.224564.052293.254606.094608.26358.371541.01017.3131-.027621.391432-.21636.448545-.084467.02554-.255605.03022-1.320427.036114l-1.223387.006761v1.135544h2.943347v1.083441l-1.36784-.00289c-.752317-.001733-1.50192-.009418-1.665794-.017681zm6.221464-.053577c-.69286-.040448-1.030448-.253202-1.093501-.68916-.026639-.18418-.021438-.367544.011325-.400336.04224-.04224.07524-.036635.36629.061626.307928.103987.567844.152906.966088.18181.477662.03467 1.035758-.02427 1.324658-.139935.14755-.059066.302196-.204964.37416-.352982.059944-.123292.080053-.298561.046342-.403774-.063348-.197625-.229782-.263487-1.298066-.513683-.301757-.070675-.641772-.16061-.755594-.199856-.697545-.240524-1.037099-.579794-1.107155-1.106225-.03808-.286167.022304-.558674.17535-.791073.23211-.352509.666295-.560073 1.378321-.658906.327049-.045418 1.20158-.045186 1.444588.000364.472293.088513.731204.232515.84933.472392.03964.080516.044494.113423.044494.304028l.000023.213735-.05293.045534c-.048365.041604-.062446.044493-.162516.03363-.060257-.006588-.308645-.059916-.551971-.118578-.548233-.132162-.76592-.16462-1.101498-.164215-.463152.000555-.725559.081036-.88978.272889-.132023.154241-.129076.371403.006877.507368.1343.134294.350006.221732 1.023687.414943.684694.196366 1.053688.346314 1.36317.553953.59353.398215.693755.914233.29339 1.51057-.28912.43065-.645228.727992-1.002827.837342-.32509.09941-1.107923.160314-1.652244.128545zm4.694909 14.86064c-.34673-.012019-.444043-.026176-.614556-.08953-.21677-.080515-.465966-.27417-.800175-.621814-.426893-.44406-.690356-.892142-.815152-1.386353-.247902-.981742.077552-1.971394.923063-2.806886.2497-.246735.384757-.356033.701896-.568006.51202-.342234 1.05678-.556501 1.41417-.556224.169618.000133.252676.024847.335653.099792.082949.074934.189536.278656.189536.36225 0 .136312-.13318.221387-.703907.449655-.37736.15093-.65356.29439-.881256.457732-.507126.363799-.875518.831747-1.054185 1.339075-.275286.78166-.096227 1.55129.490605 2.108716.330984.314406.669173.467174 1.076137.48611.412308.019184.87004-.127026 1.299851-.415215.155993-.104588.513915-.456132.693217-.680852.171236-.214613.419861-.589305.539577-.813181.167694-.313585.22505-.482972.258385-.763083.022709-.190738.163412-.265585.499267-.265585.360811 0 .404265.054259.312308.389727-.171536.625801-.581123 1.411108-1.033724 1.98198-.145164.183098-.49354.536774-.663828.673929-.302676.243777-.633562.442523-.866753.520606-.254877.085346-.694078.118167-1.300129.097157zm-2.918501 3.060579c-.361626-.505698-1.855791-3.223401-2.1978-3.997544-.126633-.28663-.167272-.416665-.168214-.538201-.001156-.120571.036577-.184191.16863-.28578.10602-.081579.368809-.241177.397117-.241177.007223 0 .065197.079227.128828.176055.515672.784763 2.220476 3.947936 2.414409 4.479805l.039581.108552-.04143.073737c-.02294.040853-.082954.102335-.134434.137785-.09859.067901-.323911.148411-.461262.164816-.081868.009765-.083058.00913-.145407-.078048zm-7.33807 2.8577c-.17932-.083046-.316417-.389062-.4945-1.103757-.201336-.808004-.838012-4.109823-.803307-4.165977.109668-.177447 3.451663-1.11592 4.146186-1.164297l.157842-.010979.03467.079406c.05939.13612.120016.491888.11266.66113-.00601.138004-.21065.267503-.617278.390588-.114654.034727-.512817.141673-.88481.237704-.7693.198602-1.317804.346938-1.575542.42609-.220167.067612-.222773.072171-.195898.342332.035422.356282.098978.586017.188594.681996.082064.087894.133613.102467.35575.10056.26035-.002311.508986-.05212 1.474242-.295684.977685-.246718 1.290976-.29469 1.375097-.210574.014677.014677.032937.092586.042818.18281.009476.086495.037097.22565.06132.309233.054605.188375.054547.190322-.003467.259339-.120837.143609-.36329.222252-1.668551.541211-.928783.226968-1.147887.313164-1.25185.492478-.090155.1555-.082088.290882.051427.862765.124702.53425.158552.72122.160193.88481.002311.233226-.046458.299469-.318746.43273-.170692.083537-.268756.10223-.346758.066104zm-4.045551.53719c-.019878-.004044-.078175-.015601-.129585-.026002-.269011-.054317-.36919-.267937-.422872-.901689-.013405-.158251-.02369-1.03726-.029296-2.505458l-.00861-2.26168h1.104971l-.000578 1.819272c-.000577 1.885488-.020397 3.145723-.05345 3.426383-.027967.237537-.067202.362713-.130342.41584-.04559.038367-.06997.044319-.17353.042528-.066277-.001156-.136755-.0052-.156616-.009188zm-5.065089-.380163c-.340408-.034901-.747284-.132145-1.048152-.250538-1.115071-.438785-1.847731-1.268354-2.024531-2.292318-.031435-.182127-.035768-.26277-.027216-.505605.01485-.422138.076153-.664164.265157-1.047326.289466-.586826.799394-1.071202 1.473346-1.399534.828142-.403445 1.602926-.403335 2.625434.00037.276667.109234.930846.432087 1.200816.592627.460263.27371.5037.40619.245286.748198-.090582.119878-.154594.157657-.26714.157657-.137848 0-.280816-.057847-.85393-.345505-.939276-.471444-1.263505-.569688-1.823792-.55263-.235086.007165-.30561.016237-.440605.056801-.305709.091784-.593933.252873-.855981.478413-.299313.25761-.511136.685104-.60152 1.213968-.052988.309858-.041663.672623.028255.90957.215689.73065 1.134354 1.274508 2.30506 1.364615.47621.036635.92193-.021437 1.408328-.183595.30449-.101508.414845-.120924.509552-.089669.111083.036693.236976.216036.284728.405687.052237.207564-.100855.356986-.498024.485982-.324258.105322-.833273.21035-1.19041.245632-.183792.018144-.569918.022073-.714643.007223zm-5.566284-1.675675c-.289871-.098643-.380591-.150879-.433296-.249492-.036461-.068173-.040332-.099128-.03779-.301682.002311-.180054.118283-1.303839.158772-1.537273.007743-.044782-.063944-.098076-1.24453-.924576l-1.252775-.877032-.637855.354577c-.792166.44035-.948695.513221-1.127032.524662-.118145.00757-.14302.00289-.248608-.046458-.316977-.148336-.651839-.443297-.589091-.518907.048942-.05894 1.290837-.841507 3.677821-2.317494 1.24754-.77141 1.324115-.815932 1.365032-.793576.023864.013002.312712.19432.641934.402884l.598585.379204.000052.126402c.000075.187415-.068427 2.317228-.09031 2.80792-.08125 1.821804-.190327 2.84512-.319658 2.998825-.065047.077303-.170687.070895-.461222-.027967zm-.240443-3.607384c.12828-.195788.158789-1.772711.03623-1.874399-.039524-.032763-.173258.021842-.434491.177494-.496979.296077-1.108265.766839-1.108265.853491 0 .00965.107668.09766.239264.19555.754809.561477 1.181049.77939 1.267233.647864zm-4.296354-2.304678c-.210916-.061112-.48608-.201503-.740351-.37773-.454236-.314805-.88496-.734146-1.55244-1.51141-.255866-.297942-.475137-.540807-.487272-.539691-.012134.001155-.386369.263637-.831637.583388-.445262.31975-.815597.582931-.822964.584838-.023403.006067-.340854-.460558-.409102-.601376-.03987-.082295-.068577-.171276-.073194-.226985l-.00757-.091622.168994-.144713c.712939-.610488 3.646624-2.81835 4.12339-3.103216l.108512-.064834.14759.153733c.187577.195378.573155.675622.984452 1.22616.894945 1.197934 1.14568 1.650627 1.197847 2.162704.015486.152063-.019011.536387-.064383.716695-.045129.179371-.17324.438525-.276257.558743-.172674.20152-.361153.336242-.703768.503046-.278679.13567-.480285.206755-.581308.204952-.039697-.000577-.120924-.015428-.18051-.032705zm.484769-.94131c.048134-.024212.134693-.094511.192361-.15616.21321-.227922.246782-.492744.115718-.912743-.135902-.435491-.590479-1.14706-1.180073-1.847211-.15175-.18021-.16088-.182515-.348319-.088126-.445747.224477-1.151451.811968-1.151451.958576 0 .157218.899562 1.22916 1.417504 1.68914.216469.19224.37809.305316.523946.36656.14012.058836.301.055068.430314-.010054z"/>
    <path d="M23.122289 50.686651c-7.67892-.540987-14.610124-4.71394-19.076572-11.48509C.280882 33.494019-.91132 26.492418.70044 19.555224c1.66305-7.15796 6.728664-13.55014 13.370648-16.87212 13.83598-6.920066 30.629108.086156 35.49821 14.810161 1.93076 5.838594 1.57364 12.498975-.976637 18.214272-3.19144 7.152195-9.434811 12.432424-17.00449 14.381281-2.050483.52791-5.750083.789164-8.465882.597833zm3.245121-3.76516V44.05543h-1.109443v2.7582c0 2.848896.019655 2.924783.785848 2.959325.294898.013322.323595-.239592.323595-2.851464zm-3.964927 2.28939c.81116-.204242.960127-.397802.66464-.863524-.114003-.179607-.275615-.190986-.656363-.046234-1.309318.497801-3.115701.033392-3.633514-.934132-.336896-.629482-.095002-1.854412.460528-2.332272.839093-.721765 1.696225-.748051 2.950114-.090481 1.013765.53166 1.11604.551806 1.328187.261674.302739-.414032.21857-.518174-.861041-1.06525-1.356797-.687544-2.304847-.755035-3.312606-.23582-2.529618 1.30331-2.115236 4.482745.694494 5.328772.72959.219681 1.429522.212957 2.36556-.022734zm8.010093-.14497c.21206-.134312.215773-.322688.022713-1.12744-.275352-1.147774-.315012-1.108878 1.58823-1.55757 1.078824-.254335 1.371625-.391091 1.290404-.602726-.057656-.150561-.105048-.383455-.105048-.517545 0-.192187-.283781-.170085-1.340592.104415-1.781399.46271-1.925954.451814-2.042314-.153947-.053725-.279673-.069231-.537282-.034725-.572464.034725-.035183.797008-.24927 1.694063-.475748 1.53125-.38659 1.627082-.439228 1.566717-.860567-.03538-.246832-.098932-.484674-.1413-.528532-.146325-.151413-4.324558.98873-4.328424 1.181144-.002118.106118.225427 1.337063.50567 2.735424.519495 2.592092.640376 2.808888 1.324497 2.375565zm-14.374825-5.1189l.067265-2.156815-.647168-.409555-.64719-.409558-2.459906 1.521242c-1.352953.836684-2.504285 1.565614-2.558512 1.619848-.054162.054227.10876.234455.362141.400494.437969.28697.505016.277219 1.3566-.197341l.895898-.499228 1.248058.873542 1.248058.873545-.115093.979741c-.112255.954912-.101772.98426.416084 1.15809.527772.177184.53203.17251.648872-.709423.064645-.488273.147853-1.858335.18498-3.044583zm-1.836631-.166723c-.335258-.231075-.655162-.465715-.710874-.521423-.09238-.092337 1.277585-1.052521 1.501701-1.052521.152221 0 .1116 1.81789-.042587 1.910662-.07622.045885-.412983-.105637-.748262-.336718zm23.52295 2.566686c.160956-.06174.292495-.198783.292495-.304568 0-.247524-2.452656-4.76251-2.582885-4.754718-.053943.003276-.245562.117649-.425563.25423-.304747.231234-.241042.408891.924529 2.577901.68851 1.281254 1.30744 2.331766 1.375382 2.334472.06792.00262.255194-.04558.416041-.10732zm4.567106-3.633842c.727733-.555062 1.441774-1.658801 1.733374-2.679447.101116-.354284.048483-.416042-.355852-.416042-.319293 0-.474724.100637-.474724.307342 0 .544702-.902973 1.868056-1.545686 2.265267-.897622.554764-1.69463.50237-2.351605-.1546-1.171336-1.171335-.457427-3.104896 1.409648-3.81794.87146-.332814.915422-.387336.65027-.80636-.279654-.441902-1.637521.085305-2.537371.985129-1.293965 1.293977-1.321483 2.964727-.06945 4.21676.64435.644361.787355.702537 1.72691.702537.871393 0 1.142355-.09 1.814486-.602655zM8.008913 25.20267c-.09675 4.630222 1.821917 9.16439 5.134392 12.47688 2.51564 2.515623 6.116505 4.345656 9.618611 4.888368 1.575016.244078 4.93486.104153 6.557116-.27308l-.000197-.000006c5.823398-1.354165 10.660352-5.78636 12.574186-11.522012 2.080424-6.23491.299419-13.36648-4.46695-17.886775-3.201924-3.036623-6.774179-4.592569-11.093997-4.83215-5.964088-.330771-11.86543 2.537948-15.139773 7.35963-1.51201 2.226528-2.96456 5.891216-3.050476 7.554833m.384492-.652901l.080588-.383188 16.785069.081264c9.23177.044706 16.814508.107909 16.8505.140472.25314.228907.381294 3.35059.203762 4.96387-.156698 1.424175-.577287 2.401202-.577287 2.401202H20.053542l-11.313102-.01354-.296741-1.583257c-.115968-.839017-.18771-2.19115-.122673-3.929277.134597-1.127926.160957-1.466785.205291-1.677535zm14.975039 20.148259c-.94805-.138833-2.728648-.337673-3.420798-.911294-.15375-.08561 5.260617 0 5.260617 0s5.490002-.061653 5.362302 0c-1.800362.869179-5.468158 1.165228-7.202121.911294zm-7.880302-3.005012c-2.302488-1.460205-4.864275-4.622526-6.047864-7.46563-.431154-1.03568-.659308-1.838278-.659308-1.838278l13.322444.054206-.220744.547403H20.849l-.389524.575605h1.31836l-.16799.41579h-1.444621l-.451815.672617h1.620214l-.210358.499992h-1.755993l-.596409.864198h2.005354l-.31618.766155h-2.224603l-.841519 1.234466h2.552469l-.407699 1.047465h-2.869595l-1.031598 1.53338h3.25739l-.651509 1.61932h-.93451c-.62203 0-1.080636-.141935-1.68786-.527015zm3.71088.52669l.428501-1.61932h10.993509l.605885 1.61932h-6.029486c-3.299043 0-5.998245.064405-5.998245 0zm12.445904-1.61932h3.285446l-1.029197-1.533379h-2.874565l-.434492-1.047465h2.564308l-.818806-1.234465h-2.247708l-.309229-.766156h2.014242l-.578301-.864198H29.56212l-.204374-.499992h1.639013l-.45348-.672567h-1.462815l-.161917-.41579h1.334225l-.395256-.575604h-1.180448l-.221622-.54703 13.305497-.021621-.118807.600949c-.181267.917326-1.322487 3.210076-2.223844 4.467588-.967422 1.349721-3.048392 3.430268-4.185419 4.184587-.672807.44634-1.016866.543815-1.894745.544463-.524736.000372-.88975 0-.88975 0zM20.798354 35.78523s2.407772.012667 4.540408 0h4.455946l.39585 1.047465h-9.829632zm.828346-2.000621h7.438966l.28566.766156H21.33903zm.320957-.864198l.17264-.499992h6.442226l.181878.499992H25.35041zm.432825-1.17261l.158248-.41579h5.617249l.15624.41579h-2.854432zm.366387-.991394l.205225-.547396h2.39831l2.389257.000004.205028.547392h-2.59427c-.867883.005679-1.736164.01769-2.60355 0zM11.57853 41.557256c.665557-.344178.920838-.797172.920838-1.634083 0-.496703-.252682-.984105-1.108679-2.13859-.609779-.822399-1.166444-1.49527-1.237073-1.49527-.149818 0-4.261725 3.099156-4.392325 3.310466-.048484.078382.038874.323667.193934.545086l.281969.402581.835315-.599874.835314-.599877.854687.99203c.736207.854505 1.607076 1.464063 2.128122 1.489567.081242.003932.390882-.118435.68792-.272036zm-1.887823-1.607732c-.489225-.529357-.888908-1.049409-.888231-1.15567.001332-.204287 1.2571-1.1303 1.363872-1.00573 1.264766 1.475552 1.656063 2.43252 1.186603 2.901982-.39798.397967-.758484.237355-1.662244-.740582zm16.205407-11.657447c.03953-.127127.124048-1.29204.188038-2.588702l.116186-2.357567h-1.127352v1.571712c0 .864442-.06246 1.57053-.13868 1.569089-.07622-.001479-.596326-.70753-1.155656-1.56909-1.011865-1.558544-1.020972-1.56648-1.802845-1.569088l-.78587-.002621v4.992495h1.109443V26.67414c0-.91529.06246-1.663768.13868-1.663283.07622.000555.617073.743565 1.201759 1.651286.71832 1.115161 1.198046 1.6764 1.47925 1.730557.228921.044094.48121.091486.560684.105332.079495.013759.1769-.07884.21621-.205946zm6.388319-.323588v-.554722h-2.958501v-1.109443h1.386804c1.355967 0 1.386804-.010265 1.386804-.462269 0-.451993-.030793-.462266-1.386804-.462266h-1.386804v-1.109444h1.47925c1.454594 0 1.47925-.007644 1.47925-.462269v-.462268h-4.049227l.004368 2.444966c.002184 1.34473.045208 2.509646.09391 2.5887.04892.079059.957615.143747 2.019448.143747h1.930606zm5.59345-.182032c.959844-1.063532.50104-1.873738-1.34057-2.36741-.948137-.254156-1.201911-.39687-1.201911-.67591 0-.510096.84641-.68104 1.952052-.394244.90566.234929.914024.233077.914024-.20267 0-.59157-.720876-.853339-2.087391-.758003-1.219907.085108-1.841894.535094-1.841894 1.332537 0 .710186.504884 1.155593 1.586984 1.400026 1.5411.348105 1.602665.376698 1.602665.744212 0 .192973-.160956.436985-.357664.542262-.454806.24341-1.69142.24682-2.323738.006333-.45817-.174191-.483176-.155322-.428097.32271.069887.606255.669641.803552 2.092502.688356.74383-.060212 1.023942-.18498 1.433038-.638282zm-21.310549.089586c0-.451542-.031886-.46227-1.371691-.46227-2.036855 0-1.956639.087992-1.956639-2.146215v-1.921744h-1.109442v4.992495h4.437773zm2.40378-2.033981v-2.496248h-.92453v4.992495h.924529zM7.792861 18.5759c.824067-.966067 1.208943-1.78873 1.243624-2.6582.02446-.61124-.065081-.832032-.482804-1.191317-.28199-.242562-.637013-.44102-.78895-.44102-.508422 0-1.334105.543238-1.752287 1.152879C4.87282 17.0996 3.99363 17.558218 3.99363 16.491337c0-.652483.835577-1.964835 1.663619-2.612874.532685-.416893.543256-.452513.255892-.862774l-.299724-.427928-.824657.802573c-1.038815 1.011004-1.665323 2.061387-1.824903 3.059576-.112037.701048-.068795.833244.438492 1.340577.957615.9576 1.39436.74241 3.375852-1.663296.470378-.571082.747302-.764802.970763-.679056.696045.267103.19874 1.577072-1.112107 2.929856-.7328.7562-.805286.903369-.617641 1.253966l.212497.397214.488461-.38421c.268647-.211319.75132-.692394 1.072622-1.06906zm39.51529-.27773c1.060764-.387512 1.25317-.652721.889914-1.226738-.14021-.221498-.475401-.150736-2.046115.431892-1.033158.383234-1.905054.668855-1.937551.634713-.03254-.034135.506347-1.013695 1.197412-2.176784l1.25651-2.114704-.293805-.616123c-.161612-.338865-.347291-.593769-.412657-.566448-1.069913.447209-4.798058 2.505016-4.799674 2.64926-.001289.10769.107013.345244.240649.527909.228637.312686.331413.287588 1.756611-.42899.832585-.41861 1.513779-.707648 1.513779-.642309 0 .065344-.42991.870055-.955366 1.788252-1.048053 1.831442-1.059344 1.873494-.721837 2.688304l.233529.563754 1.507685-.561793c.829243-.308984 1.986144-.736574 2.570916-.950195zm-6.522805-5.200183c.387802-1.165396.409489-1.189727 1.170724-1.31448.933046-.152899 1.341619-.482475 1.611358-1.299781.161175-.488557.144577-.725572-.082117-1.16385-.275002-.53179-2.92478-2.985525-3.224046-2.985525-.081025 0-.922585.921646-1.870133 2.048102l-1.722826 2.048103.384484.384487.384483.38449.490994-.58352c.270045-.320934.587612-.581079.705698-.578098.118151.003058.490077.255862.826666.56196l.611963.556538-.295379 1.016078c-.162485.558842-.237962 1.11724-.167726 1.240886.148508.26184.660839.871985.73208.871985.026862 0 .22654-.53432.443864-1.187375zm-.494052-3.116352c-.528624-.429671-.962093-.822827-.96325-.873676-.001114-.050842.238312-.373557.532161-.717128l.534237-.624676.923764.717129c1.073102.833087 1.409386 1.349375 1.235566 1.896993-.213371.672375-1.147226.507837-2.262478-.398642zm-29.098164 3.03904c1.580629-.763878 2.340073-2.905132 1.50312-4.237994-.763921-1.216568-2.459273-1.70837-3.691847-1.070971-.722798.37377-1.601245 1.422046-1.867359 2.228358-.43539 1.319255.445044 3.012556 1.775917 3.415559.643063.19472 1.420481.080522 2.280169-.334952zm-2.140986-.582829c-.617837-.249323-.99055-.933325-.99055-1.81781 0-.671184.105485-.914943.617795-1.427215 1.004657-1.004664 2.111677-1.070338 3.003817-.17821.947504.947502.331894 2.732253-1.15701 3.354358-.683027.28538-.911119.296038-1.474052.06886zm26.738981-3.7285c.004368-.066698-.534301-.374348-1.195337-.683686-1.234081-.577493-1.340243-.717513-1.010751-1.33316.184543-.344857.228986-.338063 1.289072.197058 1.320238.666454 1.36621.669948 1.615507.12278.184543-.405016.124048-.467236-.987295-1.015262-.651143-.321094-1.183894-.649278-1.183894-.729297 0-.08002.128852-.329437.286315-.554263l.286315-.408771 1.268063.638587c1.287587.64842 1.352844.64664 1.75067-.047785.096094-.167836-.420976-.500564-1.77406-1.141407l-1.909771-.904507-1.224996 2.433007-1.225018 2.433007 1.77974.94785c1.75375.93401 1.782993.94215 2.004292.55747.123611-.214703.227545-.44494.231148-.51163zm-18.931907.04796c.889149-.403834 1.557174-1.182318 1.557174-1.814659 0-.248196-.336896-1.312939-.748656-2.36609L16.91908 2.66173l-.537054.187208-.537053.187207.344058.863233c.18913.474778.518163 1.26537.730988 1.75687.212716.491504.38693 1.049916.38693 1.240922 0 .903279-1.654469 1.47342-2.256844.777728-.154187-.17797-.636904-.947648-1.072884-1.71039-.43598-.762742-.811292-1.410723-.834005-1.439955-.089541-.115072-1.013655.40064-1.013655.565646 0 .096683.426022.881099.94674 1.743165 1.34664 2.229417 2.178614 2.652554 3.782917 1.92392zm13.889728-4.040901c.582829-2.842486.57038-2.996034-.243291-3.001911-.330824-.002403-.425018.165084-.603664 1.073113l-.211624 1.075944-.968033-.137916c-.532446-.075848-1.115995-.143987-1.296804-.151413-.293566-.012012-.315405-.143507-.204199-1.229121l.124485-1.21562-.627884.05995-.627884.059948-.121864 1.664165c-.067047.915291-.169692 2.142613-.228287 2.727381l-.106358 1.063216h1.28868l.002184-.878308c.004368-1.270564.077312-1.32691 1.438979-1.105918 1.120996.181944 1.160919.206972 1.069542.670568-.353274 1.792555-.351003 1.833622.105922 1.920469.238574.04536.482498.093778.542076.107646.059622.01376.359958-1.20214.667544-2.7022zM22.53483 6.972043c.228156-.087554.218416-.354858-.069013-1.8953-.476187-2.551283-.522902-2.388151.755863-2.639733 1.064869-.209506 1.10263-.236274.990964-.702708-.063771-.266699-.127542-.501088-.141301-.520862-.013104-.019874-1.332664.21896-2.930503.530522l-2.905147.566478.116404.486466c.06399.267558.132566.507267.152003.53269.019655.025422.50912-.048876 1.087844-.165084.578723-.11623 1.09088-.172662 1.138118-.125424.047174.047239.270504.974421.496105 2.060392.421173 2.027223.523622 2.173831 1.308728 1.87256z"/>
    <path class="color-yellow" fill="#ff0" d="M17.409488 20.813687c.647325-1.14222 1.711229-2.266012 2.874834-3.036651 1.937254-1.283026 3.807644-1.757817 6.169267-1.566032 1.251347.101619 1.924652.271089 2.87407.723416 1.815996.865195 3.463439 2.34005 4.331255 3.877509l.254137.450242H17.155316z"/>
    <path class="color-yellow" fill="#ff0" d="M15.016702 19.927776c-2.527659-1.500828-3.328012-2.00722-3.20906-2.030403.062424-.012192.922503.255427 1.911288.594645.988792.339218 1.823434.616758 1.854764.616758.148128 0-.039466-.22546-1.351515-1.624237-.774658-.825876-1.408473-1.528582-1.408473-1.56157 0-.087918.103848-.043916 1.805734.765365 1.736649.825802 2.008549.941577 2.069095.881031.062752-.062753-.205733-.467774-1.05931-1.597997-.866245-1.146997-1.401257-1.913333-1.36153-1.950216.014677-.013637.676777.44354 1.4713 1.015961 1.495241 1.077258 2.044901 1.43689 2.104713 1.377085.019126-.019184-.392073-.886393-.91384-1.927184-.521768-1.040796-.934562-1.906463-.91732-1.923705.01722-.01722.447707.335196.956595.783203 2.270002 1.998437 2.489666 2.173319 2.489666 1.98209 0-.121883-.293263-1.137156-.752654-2.605678-.1853-.592344-.327407-1.125282-.315792-1.184307.011614-.059026.378655.389778.815643.997349 1.022421 1.421532 1.421012 1.934198 1.542265 1.983655.113128.04617.101416-.122963-.174923-2.52544-.095955-.834249-.173974-1.581823-.173379-1.661275.001734-.204785.310396.31229 1.334065 2.233413.476714.894656.891132 1.627594.920925 1.62875.029816.001155.054258-.363551.054374-.810472.000144-.446915.021611-1.425241.047787-2.174058l.047556-1.361477.553993 1.578165c.304699.867995.604017 1.67329.665152 1.789544.105166.199994.11525.203721.18726.069167.041834-.07821.17692-.660876.300144-1.294813.329418-1.69475.510962-2.481403.582937-2.525885.104063-.064318.252636.553757.573912 2.387545.320097 1.827103.346562 1.952118.40156 1.897125.019011-.01901.2497-.713158.512638-1.542542.568995-1.794767.809021-2.385528.922988-2.271683.051774.051716.091887.749764.115446 2.007855l.036114 1.928606.964338-1.675508c.530389-.921532 1.008778-1.734112 1.063089-1.805735.09001-.118704.098948-.109395.101046.105241.001156.129505-.127719.998644-.286624 1.931414-.31901 1.87259-.315249 1.84185-.225101 1.84185.035075 0 .552104-.625686 1.148898-1.390416 1.155734-1.480934 1.515742-1.90024 1.57805-1.837938.05738.05738-.20378 1.015846-.694714 2.54972-.239125.74713-.434774 1.384228-.434774 1.415783 0 .194072.374766-.105853 1.81554-1.452972.888445-.83069 1.625363-1.50054 1.63759-1.48856.01225.01196-.434797.93541-.993402 2.052065-.558599 1.116655-.986191 2.030281-.950198 2.030281.036 0 .483024-.282694.993403-.62821 1.36035-.920937 2.792908-1.828565 2.829057-1.792416.017335.017335-.354577.538744-.826454 1.15871-1.078558 1.417047-1.544132 2.061894-1.544132 2.138711 0 .084942.528604-.132792 2.334593-.961633.866902-.397856 1.592172-.707385 1.611709-.687843.01953.01953-.510974.599943-1.178923 1.289786-1.630679 1.684135-1.94924 2.083153-1.663084 2.083153.051196 0 .996043-.227523 2.099662-.505606 1.103613-.278083 2.061201-.504912 2.12797-.504063.201416.002312-3.242383 2.16063-4.316243 2.704794-.384647.194915-.39153.195684-.504196.056108-1.729628-2.142768-2.124491-2.545791-3.207834-3.274077-1.063095-.714678-2.241867-1.211616-3.53765-1.49138-.846159-.18269-3.165976-.18118-4.000543.00231-1.427877.314435-2.788239.904694-3.77796 1.639255-.892091.662095-2.047166 1.85837-2.632785 2.726676-.274627.407195-.534046.737231-.576488.733412-.042413-.004045-.759732-.412222-1.593981-.907565z"/>
    <path d="M8.911643 21.024854c1.403082-4.010707 3.950375-7.360452 6.983397-9.534544 1.77782-1.274346 3.839494-2.162363 6.015505-2.591019 2.220372-.437398 4.773952-.43218 6.958816.014215 3.905194.797886 7.189909 2.931224 9.735966 6.323266 1.169237 1.55774 2.175774 3.396024 2.884084 5.267325.128828.340356.269866.735243.269866.770404 0 .013117-3.28969.01358-7.846225.001156-9.529222-.026176-8.141216-.026234-17.442182.000578l-7.680682.022131zm25.001264.244262c0-.02502-.41295-.73589-.518566-.892697-.919885-1.365725-2.395433-2.627393-3.980434-3.403472-.893674-.437571-1.554342-.624738-2.588343-.733255-2.031385-.213204-3.655332.03178-5.234232.789663-1.841098.883724-3.289343 2.212866-4.24781 3.898463-.100566.176863-.18285.329123-.18285.338363l16.752235.002889zm-16.867149-.956802c.518647-.73808.90471-1.198297 1.532031-1.826265.898707-.899643 1.54312-1.37894 2.490036-1.85202.696424-.347931 1.473214-.630741 2.272793-.82747.594875-.146366 1.13945-.192743 2.260017-.192466 1.144945.000283 1.690918.048307 2.3257.204432 1.126223.277055 2.232736.765048 3.203048 1.41261.985388.657623 1.458063 1.12619 2.818304 2.793815.400151.490582.472808.567914.533845.568203.221033.001156 2.637094-1.42003 4.130174-2.429259.485324-.328048.577246-.398094.553549-.42179-.02063-.02063-.530153.095845-1.766552.403785-1.594622.397163-2.38134.5834-2.464484.5834-.10086 0-.100075-.054664.00289-.218451.148035-.234908.484607-.60797 1.552948-1.721302.817452-.851873 1.278674-1.356433 1.278674-1.398823 0-.051196-.263042.059546-1.950765.821254-1.55949.703826-1.936741.85879-1.96791.808357-.02161-.03496.352982-.561367 1.26818-1.782194.869423-1.15976 1.103862-1.485943 1.08299-1.506814-.040043-.040044-.842275.4605-2.505637 1.563407-1.13908.755283-1.289612.849337-1.289612.805745 0-.055472.287571-.666429.885319-1.880864.78908-1.603158 1.039981-2.128404 1.024218-2.144167-.01641-.01641-.376824.308073-1.57756 1.420128-1.537763 1.42419-1.909374 1.722243-1.852943 1.486174.009246-.0386.183717-.604589.38775-1.257693.590138-1.889023.790439-2.62578.730234-2.68598-.0611-.061105-.416735.347973-1.512293 1.739562-.74061.940738-1.170994 1.46061-1.223438 1.477836-.057992.019069-.022305-.283775.162007-1.374138.290842-1.720758.385388-2.383246.35794-2.508203-.015659-.071357-.018433-.072686-.064723-.030798-.066526.060204-.67861 1.098135-1.782072 3.02192l-.284312.495668-.000203-.355213c-.000577-1.171398-.076586-3.321875-.123367-3.49626-.033168-.123558-.09387-.109141-.181493.043106-.14792.256993-.332382.778818-.972115 2.750097-.20576.63404-.318312.94599-.335213.929089-.0334-.033399-.108945-.413412-.328817-1.653787-.362476-2.044895-.494852-2.617535-.60508-2.617535-.018838 0-.046631.031608-.061823.070224-.066116.168116-.2173.832776-.44383 1.951216-.320276 1.581298-.395949 1.885713-.468756 1.885713-.065532 0-.27056-.527373-.88856-2.285557-.20241-.575859-.383613-1.087237-.402659-1.136394l-.03467-.08938-.014793.140455c-.019993.189871-.06552 1.710502-.091257 3.046503-.011557.60111-.028372 1.100232-.03727 1.109154-.008899.008956-.026696.005778-.039466-.007628-.046054-.047266-.400128-.681533-.939953-1.68373-.85894-1.594634-1.113956-2.039209-1.229096-2.142682l-.054143-.048653.000006.138027c.000011.075916.085439.90797.189842 1.849003.209754 1.890514.234583 2.176872.193794 2.234482-.055877.07888-.401832-.341604-1.302758-1.58329-.489987-.675317-.850573-1.147073-.985729-1.289613-.076713-.080909-.098833-.093095-.106368-.05861-.013579.06203.135104.61057.386139 1.424837.513135 1.664443.699319 2.340498.65638 2.383437-.05686.056859-.326928-.161204-1.885875-1.522965-1.133568-.990184-1.519694-1.310582-1.532638-1.27174-.011903.035768.207079.50014.876663 1.859017.720196 1.461593.945633 1.942854.921421 1.96706-.046689.046689-.587548-.308518-1.956457-1.284932-1.211899-.864424-1.544946-1.091392-1.582904-1.078737-.04692.01566.40972.679696 1.173809 1.70685.755369 1.015423.993974 1.346615 1.13184 1.571023.090119.146695.12194.267636.070426.267636-.102236 0-.620051-.231313-2.287082-1.021647-1.328432-.629805-1.544981-.718226-1.544981-.63081 0 .039928.50916.608055 1.48258 1.654237.879575.945315 1.086555 1.174005 1.207808 1.334481.104282.138004.113464.170346.048423.170577-.024558.00008-.745679-.234514-1.60244-.521346-1.537221-.514631-2.123059-.69684-2.15091-.668988-.030048.030047.070166.110083.452698.36158.602497.396106 3.122107 1.905983 3.970998 2.379617l.383053.213724.114914-.124246c.063204-.06834.206853-.255086.319213-.41499z"/>
</svg>
