<?xml version="1.0" encoding="UTF-8" standalone="no"?>
<svg
   xmlns="http://www.w3.org/2000/svg"
   id="svg421"
   version="1.1"
   viewBox="0 0 50.798546 50.749199"
   height="50.749199mm"
   width="50.798546mm">
  <g
     transform="translate(-78.922155,-108.33969)"
     id="layer1">
    <g
       transform="matrix(2.1839435,0,0,2.1839435,-66.027061,21.247406)"
       id="g1288"
       style="display:inline">
      <path
         style="fill:#ff0000;fill-opacity:1;stroke:#ffffff;stroke-width:0.00416667;stroke-miterlimit:4;stroke-dasharray:none;stroke-opacity:1"
         d="m 261.38643,184.8848 c -0.22546,-0.43828 -0.24688,-0.49578 -0.24688,-0.66262 0,-0.31373 0.18145,-0.59124 0.85681,-1.31035 1.0579,-1.12643 1.42874,-1.57187 1.89856,-2.28044 1.04113,-1.57021 1.20807,-2.79179 0.43108,-3.15438 -0.25048,-0.11689 -0.42301,-0.089 -0.73413,0.11878 -0.28585,0.19088 -0.60508,0.5266 -1.38346,1.45491 -2.16596,2.58317 -3.05715,3.35279 -3.88241,3.35279 -0.53627,0 -1.03768,-0.32552 -1.85558,-1.20468 -0.47396,-0.50945 -0.58907,-0.78762 -0.55543,-1.3422 0.10708,-1.76527 1.0044,-3.57145 2.66587,-5.36604 0.46864,-0.50619 1.94379,-1.93754 1.98326,-1.92438 0.0443,0.0148 0.66628,0.91352 0.75198,1.08664 0.15344,0.30999 0.0698,0.45778 -0.53825,0.95156 -1.05467,0.85639 -1.95212,1.95752 -2.54439,3.12183 -0.32862,0.64602 -0.48558,1.15789 -0.48558,1.58352 0,0.39806 0.0992,0.70139 0.27879,0.85251 0.50015,0.42085 1.6671,-0.50808 3.01706,-2.40165 0.57142,-0.80153 0.91338,-1.15698 1.55417,-1.6155 0.51988,-0.37199 1.26149,-0.67911 1.63987,-0.67911 0.2025,0 0.38288,0.0707 0.77613,0.30417 0.55438,0.32913 1.11275,0.85897 1.28178,1.21627 0.15024,0.31759 0.17885,0.53029 0.16115,1.19831 -0.0121,0.45781 -0.0329,0.68709 -0.0835,0.92187 -0.30933,1.4357 -1.1149,2.77409 -2.66102,4.42104 -0.50721,0.54029 -1.00299,0.99206 -1.62331,1.4792 l -0.45572,0.35788 z"
         id="path1195"
         transform="scale(0.26458333)" />
      <path
         style="fill:#ff0000;fill-opacity:1;stroke:#ffffff;stroke-width:0.00416667;stroke-miterlimit:4;stroke-dasharray:none;stroke-opacity:1"
         d="m 266.6973,173.92178 c -0.3159,-0.0599 -0.7044,-0.1911 -0.99575,-0.3362 -0.89693,-0.4467 -1.6979,-1.28715 -2.16896,-2.27584 -0.32728,-0.68693 -0.46692,-1.24431 -0.49392,-1.97163 -0.0297,-0.80109 0.0915,-1.3352 0.47298,-2.08424 0.67273,-1.32081 1.89539,-2.63494 2.95498,-3.17605 1.09033,-0.55681 2.38052,-0.62974 3.66138,-0.20698 0.40432,0.13345 1.04721,0.46045 1.4002,0.7122 0.55523,0.39599 1.09798,1.00427 1.4055,1.57521 0.86358,1.60329 0.49206,3.92666 -0.90039,5.63073 -0.28403,0.3476 -0.77873,0.80136 -1.14683,1.05192 -0.63263,0.43063 -1.66847,0.86189 -2.48236,1.03352 -0.41465,0.0874 -1.35767,0.1136 -1.70683,0.0474 z m 1.5662,-1.48463 c 1.08243,-0.3204 1.966,-0.8636 2.57092,-1.58054 0.91635,-1.08603 1.24193,-2.37387 0.8829,-3.49227 -0.13195,-0.41103 -0.33449,-0.73456 -0.67129,-1.07229 -1.11729,-1.1204 -2.45527,-1.36054 -3.81378,-0.6845 -0.50076,0.24919 -0.87447,0.52998 -1.39206,1.04594 -0.80603,0.80347 -0.99873,1.20034 -1.04836,2.15905 -0.061,1.17822 0.2667,2.22765 0.90507,2.8985 0.30438,0.31986 0.80612,0.59031 1.3791,0.74337 0.23966,0.064 0.33209,0.0731 0.625,0.0613 0.21966,-0.009 0.42272,-0.0372 0.5625,-0.0786 z"
         id="path1197"
         transform="scale(0.26458333)" />
      <path
         style="fill:#ff0000;fill-opacity:1;stroke:#ffffff;stroke-width:0.00416667;stroke-miterlimit:4;stroke-dasharray:none;stroke-opacity:1"
         d="m 277.48225,166.40225 c -1.14389,-0.17821 -2.11901,-1.01007 -3.35035,-2.85814 -0.86123,-1.29258 -2.25902,-3.76943 -2.25902,-4.00293 0,-0.0584 0.0391,-0.12205 0.12532,-0.20409 0.31552,-0.30014 1.09743,-0.72807 1.44384,-0.7902 0.14161,-0.0254 0.0113,-0.22433 1.16495,1.77847 1.34915,2.34217 2.03979,3.44694 2.34985,3.7589 0.31691,0.31886 0.86748,0.49859 1.41832,0.463 0.7666,-0.0495 1.42746,-0.32663 1.90796,-0.80002 0.36596,-0.36056 0.52599,-0.68972 0.52689,-1.08383 8.6e-4,-0.37605 -0.29488,-1.28198 -0.83317,-2.55218 -0.66488,-1.56892 -1.60871,-3.88815 -1.65119,-4.05739 -0.0183,-0.073 0.006,-0.0835 0.88139,-0.38868 0.60162,-0.20965 0.90717,-0.30227 0.92119,-0.27924 0.0332,0.0546 1.35476,3.44312 1.57906,4.04882 0.4596,1.24112 0.87832,2.56937 0.96294,3.0546 0.0885,0.50755 -0.0477,0.97944 -0.46236,1.60165 -0.2039,0.30597 -0.86521,0.95993 -1.24124,1.22745 -0.58256,0.41443 -1.61162,0.86573 -2.32804,1.02094 -0.35152,0.0762 -0.88487,0.10516 -1.15634,0.0629 z"
         id="path1199"
         transform="scale(0.26458333)" />
      <path
         style="fill:#ff0000;fill-opacity:1;stroke:#ffffff;stroke-width:0.00416667;stroke-miterlimit:4;stroke-dasharray:none;stroke-opacity:1"
         d="m 288.76371,162.91375 c -0.13879,-0.0684 -0.30147,-0.26442 -0.40954,-0.49348 -0.20801,-0.44087 -0.38063,-1.1046 -0.80087,-3.07928 -0.31034,-1.45828 -0.56574,-2.55757 -0.70619,-3.03952 -0.0854,-0.29307 -0.1079,-0.33887 -0.17471,-0.35564 -0.17607,-0.0442 -0.96398,0.0577 -2.08683,0.26978 -0.87542,0.16538 -1.40872,0.25036 -1.57108,0.25037 -0.16665,1e-5 -0.14604,0.0494 -0.39763,-0.95312 -0.17036,-0.6788 -0.18936,-0.78263 -0.14493,-0.79176 0.0281,-0.006 1.19724,-0.2335 2.59802,-0.50604 5.39017,-1.04871 7.37694,-1.4138 7.42613,-1.36461 0.047,0.047 0.29494,1.08337 0.30098,1.25807 0.0147,0.42501 -0.14447,0.49332 -2.02542,0.86916 -0.90855,0.18154 -1.1467,0.25443 -1.31547,0.40261 -0.19142,0.16807 -0.24116,0.30552 -0.25548,0.70597 -0.0188,0.525 0.0235,0.80952 0.50495,3.39535 0.38099,2.04647 0.46336,2.76658 0.35029,3.06264 -0.0629,0.16471 -0.14071,0.21349 -0.54228,0.34001 -0.30275,0.0954 -0.59308,0.10679 -0.74994,0.0295 z"
         id="path1201"
         transform="scale(0.26458333)" />
      <path
         style="fill:#ff0000;fill-opacity:1;stroke:#ffffff;stroke-width:0.00416667;stroke-miterlimit:4;stroke-dasharray:none;stroke-opacity:1"
         d="m 302.24561,163.41611 c -0.2901,-0.059 -0.57592,-0.13025 -0.63515,-0.15836 -0.34362,-0.16306 -0.33293,-0.49559 0.086,-2.67507 0.17214,-0.89565 0.18239,-1.02411 0.0934,-1.17012 -0.12151,-0.19927 -0.41775,-0.29344 -1.49784,-0.47612 -1.35375,-0.22897 -1.93742,-0.27376 -2.27211,-0.17437 -0.16205,0.0481 -0.3287,0.18516 -0.40529,0.33328 -0.13296,0.25711 -0.19493,1.07927 -0.19929,2.64407 l -0.002,0.57032 h -1.09669 -1.09668 l 0.0191,-0.14844 c 0.1274,-0.98957 0.43114,-4.57058 0.70704,-8.33594 0.0365,-0.49844 0.0718,-0.91169 0.0784,-0.91834 0.0111,-0.0112 2.11774,-0.21984 2.12765,-0.21073 0.002,0.002 -0.0578,0.60173 -0.13386,1.3322 -0.16589,1.593 -0.20445,2.42535 -0.12232,2.6404 0.0723,0.18941 0.15587,0.22725 0.58551,0.26524 0.59369,0.0525 2.31491,0.27423 3.71237,0.47825 0.0366,0.005 0.0986,-0.25516 0.29976,-1.25889 0.13949,-0.6961 0.28562,-1.38516 0.32474,-1.53125 0.10151,-0.37913 0.25927,-0.69784 0.39777,-0.80359 0.10662,-0.0814 0.13685,-0.0877 0.46769,-0.0975 0.59986,-0.0178 0.82255,0.0669 0.97256,0.36987 0.0805,0.16259 0.0849,0.19465 0.0824,0.59375 -10e-4,0.23203 -0.0265,0.59062 -0.0557,0.79687 -0.24328,1.7228 -1.36715,6.95615 -1.68111,7.82813 -0.0621,0.17248 -0.0849,0.20391 -0.15119,0.20837 -0.0429,0.003 -0.31541,-0.043 -0.60552,-0.102 z"
         id="path1203"
         transform="scale(0.26458333)" />
      <path
         style="fill:#ff0000;fill-opacity:1;stroke:#ffffff;stroke-width:0.00416667;stroke-miterlimit:4;stroke-dasharray:none;stroke-opacity:1"
         d="m 311.7377,167.05887 c -0.17102,-0.0343 -0.58178,-0.20592 -1.05159,-0.43948 -0.7486,-0.37215 -4.80366,-2.54018 -4.80366,-2.56826 0,-0.0257 4.17715,-8.33522 4.20316,-8.36122 0.0138,-0.0138 3.10201,1.44531 4.09371,1.93422 1.54298,0.76068 2.26563,1.23375 2.26563,1.48314 0,0.0831 -0.1808,0.40139 -0.36653,0.64519 -0.27678,0.3633 -0.53255,0.41554 -1.10222,0.22511 -0.1461,-0.0488 -1.04932,-0.47867 -2.00718,-0.95519 l -1.74155,-0.8664 -0.074,0.10032 c -0.51693,0.70039 -0.92724,1.39119 -0.92724,1.56109 0,0.17411 0.66818,0.58804 2.28125,1.41322 1.05213,0.53823 1.27248,0.66619 1.44605,0.83976 0.15948,0.15948 0.19552,0.29162 0.1355,0.49685 -0.0649,0.22209 -0.27101,0.64094 -0.37739,0.76708 -0.28731,0.34064 -0.51392,0.27965 -2.36643,-0.63695 -1.64199,-0.81244 -1.85469,-0.89107 -2.0874,-0.77168 -0.13227,0.0679 -0.33478,0.38451 -0.46981,0.73462 -0.16429,0.42595 -0.11042,0.74095 0.16754,0.97979 0.26064,0.22396 0.52641,0.37354 1.63974,0.92286 1.16351,0.57408 1.74996,0.88921 2.01703,1.08385 0.1418,0.10335 0.15055,0.11768 0.13403,0.21947 -0.0377,0.2321 -0.509,1.09013 -0.63517,1.15629 -0.0948,0.0497 -0.23735,0.0636 -0.37344,0.0363 z"
         id="path1205"
         transform="scale(0.26458333)" />
      <path
         style="fill:#ff0000;fill-opacity:1;stroke:#ffffff;stroke-width:0.00416667;stroke-miterlimit:4;stroke-dasharray:none;stroke-opacity:1"
         d="m 320.369,175.15044 c -0.28846,-0.30313 -0.62538,-0.72367 -0.85387,-1.0658 l -0.1399,-0.20946 0.003,-0.29133 c 0.006,-0.54942 0.13627,-1.15703 0.56434,-2.62296 0.13884,-0.47546 0.25244,-0.88555 0.25244,-0.91132 0,-0.0515 -1.07313,-1.03912 -1.48726,-1.3688 -0.28751,-0.22889 -0.69136,-0.49374 -0.8492,-0.55693 -0.15102,-0.0605 -0.29896,-0.0221 -0.51652,0.13408 -0.32951,0.23648 -0.5615,0.46857 -1.07449,1.07497 -0.27193,0.32144 -0.52534,0.61999 -0.56314,0.66345 l -0.0687,0.079 -0.64221,-0.64034 c -0.35321,-0.35218 -0.6422,-0.65181 -0.6422,-0.66584 0,-0.0243 2.3845,-2.86981 3.51394,-4.19333 1.09569,-1.28398 2.28062,-2.58516 2.5446,-2.79423 l 0.12015,-0.0952 0.15311,0.0763 c 0.8021,0.3997 4.35177,3.67745 5.22413,4.82392 0.17689,0.23248 0.36211,0.61666 0.44654,0.92618 0.11749,0.43072 0.0469,0.92594 -0.23595,1.65601 -0.42873,1.1065 -1.11731,1.63385 -2.46965,1.89141 -1.05304,0.20055 -1.19187,0.24699 -1.41636,0.47373 -0.24329,0.24571 -0.37223,0.54302 -0.86503,1.99448 -0.38449,1.13244 -0.67431,1.90625 -0.71395,1.90625 -0.007,0 -0.13493,-0.12794 -0.28373,-0.2843 z m 3.59825,-5.83816 c 0.3606,-0.15883 0.56981,-0.51778 0.59534,-1.02147 0.0168,-0.33076 -0.0312,-0.5373 -0.19879,-0.85607 -0.2246,-0.42722 -0.7437,-1.00804 -1.37506,-1.53856 -0.33251,-0.27939 -2.20692,-1.74269 -2.2323,-1.74269 -0.0163,0 -0.53387,0.60031 -1.06336,1.23323 -0.35099,0.41956 -0.68314,0.85812 -0.75172,0.99255 l -0.0606,0.11882 0.14929,0.16009 c 0.17754,0.19038 0.71729,0.67087 1.25867,1.12047 1.04123,0.86472 1.85799,1.34994 2.60937,1.55017 0.37288,0.0994 0.82179,0.0924 1.06918,-0.0165 z"
         id="path1207"
         transform="scale(0.26458333)" />
      <path
         style="fill:#ff0000;fill-opacity:1;stroke:#ffffff;stroke-width:0.00416667;stroke-miterlimit:4;stroke-dasharray:none;stroke-opacity:1"
         d="m 325.42364,184.39212 c -0.13634,-0.32891 -0.29784,-0.73863 -0.35889,-0.91051 -0.10342,-0.29115 -0.11087,-0.33705 -0.10903,-0.67187 0.002,-0.32625 0.0115,-0.38525 0.10502,-0.64011 0.13202,-0.35965 0.48273,-1.05961 0.90841,-1.81302 0.18451,-0.32656 0.54603,-0.9664 0.80337,-1.42187 0.89918,-1.59142 1.38435,-2.51421 1.38435,-2.63303 0,-0.0806 -0.0995,-0.0577 -0.57812,0.13311 -0.50228,0.20022 -0.97038,0.41861 -2.34128,1.09234 -1.47957,0.72713 -1.88138,0.89758 -2.1431,0.90909 -0.22758,0.01 -0.2818,-0.004 -0.39209,-0.10075 -0.20377,-0.17891 -0.4976,-0.66966 -0.57659,-0.96302 -0.0369,-0.13691 -0.0359,-0.14013 0.0676,-0.23501 0.29575,-0.27104 2.59163,-1.59863 4.90108,-2.83406 1.48925,-0.79666 3.21034,-1.64992 3.32802,-1.64992 0.12918,0 0.47551,0.55802 0.8876,1.43012 l 0.28446,0.602 -1.2299,2.06987 c -1.75784,2.9584 -2.43973,4.14475 -2.82486,4.91469 -0.21208,0.42399 -0.21958,0.45207 -0.12072,0.45207 0.18792,0 1.41729,-0.40728 3.3004,-1.09339 2.0162,-0.73461 2.55966,-0.90185 3.01563,-0.92803 0.25843,-0.0148 0.28999,-0.0102 0.38898,0.0575 0.0731,0.0499 0.15218,0.15976 0.24597,0.34157 0.11493,0.22276 0.14047,0.30446 0.15141,0.48424 0.0117,0.19236 0.003,0.23343 -0.0741,0.37146 -0.19341,0.34402 -0.72584,0.64484 -1.931,1.09101 -0.39531,0.14635 -1.47813,0.54678 -2.40625,0.88985 -1.48056,0.54726 -4.13838,1.5367 -4.35986,1.62306 -0.078,0.0304 -0.0805,0.0261 -0.3265,-0.56735 z"
         id="path1209"
         transform="scale(0.26458333)" />
      <path
         style="fill:#ff0000;fill-opacity:1;stroke:#ffffff;stroke-width:0.00416667;stroke-miterlimit:4;stroke-dasharray:none;stroke-opacity:1"
         d="m 271.85028,195.45036 v -4.29687 h 0.95147 0.95147 l 0.0122,2.85156 c 0.0128,3.01172 0.013,3.01457 0.15813,3.41824 0.14536,0.40426 0.45442,0.61178 1.04407,0.70105 0.14761,0.0224 0.96167,0.046 2.08584,0.0606 1.91981,0.0249 2.07941,0.0366 2.27895,0.16734 0.14426,0.0945 0.15728,0.15568 0.16893,0.79344 l 0.011,0.60157 h -3.831 -3.831 z"
         id="path1211"
         transform="scale(0.26458333)" />
      <path
         style="fill:#ff0000;fill-opacity:1;stroke:#ffffff;stroke-width:0.00416667;stroke-miterlimit:4;stroke-dasharray:none;stroke-opacity:1"
         d="m 282.10028,195.45036 v -4.29687 h 0.78125 0.78125 v 4.29687 4.29688 h -0.78125 -0.78125 z"
         id="path1213"
         transform="scale(0.26458333)" />
      <path
         style="fill:#ff0000;fill-opacity:1;stroke:#ffffff;stroke-width:0.00416667;stroke-miterlimit:4;stroke-dasharray:none;stroke-opacity:1"
         d="m 294.77216,199.93239 c -0.27393,-0.0522 -0.53693,-0.1221 -0.63279,-0.16815 -0.32077,-0.15409 -0.9159,-0.80626 -1.54166,-1.68942 -0.14592,-0.20595 -0.63916,-0.93696 -1.09609,-1.62446 -1.08318,-1.62978 -1.69614,-2.45312 -1.82628,-2.45312 -0.0773,0 -0.14358,0.37685 -0.20053,1.14062 -0.0179,0.24063 -0.0413,1.37617 -0.052,2.52344 l -0.0194,2.08594 h -0.93282 -0.93283 v -4.29688 -4.29687 l 0.99219,4.6e-4 c 1.0814,5e-4 1.27191,0.0223 1.53401,0.17596 0.28502,0.16703 0.67004,0.6233 1.19612,1.41749 0.13088,0.19757 0.55457,0.83734 0.94155,1.42171 0.96529,1.4577 1.66551,2.39063 1.79431,2.39063 0.17436,0 0.26057,-1.24221 0.26057,-3.75458 v -1.65167 h 0.95313 0.95312 v 0.13333 c 0,0.0733 -0.042,0.98389 -0.0933,2.02344 -0.22239,4.50508 -0.3434,6.21602 -0.45651,6.45437 -0.0645,0.136 -0.21505,0.26491 -0.30415,0.26049 -0.0374,-0.002 -0.27885,-0.0436 -0.53666,-0.0927 z"
         id="path1215"
         transform="scale(0.26458333)" />
      <path
         style="fill:#ff0000;fill-opacity:1;stroke:#ffffff;stroke-width:0.00416667;stroke-miterlimit:4;stroke-dasharray:none;stroke-opacity:1"
         d="m 301.44403,200.02454 c -0.56856,-0.0286 -1.26546,-0.10215 -1.44138,-0.15214 -0.0985,-0.028 -0.11566,-0.0473 -0.13182,-0.14898 -0.0857,-0.53937 -0.14425,-3.0556 -0.145,-6.234 l -5.5e-4,-2.33593 h 3.48438 3.48437 v 0.5635 c 0,0.65938 -0.0211,0.74192 -0.215,0.84084 -0.23681,0.12081 -0.47257,0.13378 -2.71468,0.1494 l -2.16407,0.0151 v 0.96246 0.96246 l 2.05469,0.0149 c 1.72047,0.0125 2.08905,0.0229 2.26591,0.0641 0.38863,0.0905 0.44062,0.16373 0.45615,0.64299 0.0176,0.54185 -0.0478,0.67741 -0.37443,0.77625 -0.14618,0.0442 -0.44235,0.0523 -2.28513,0.0625 l -2.11719,0.0117 v 0.98258 0.98259 h 2.54688 2.54687 v 0.9375 0.9375 l -2.36718,-0.005 c -1.30196,-0.003 -2.59922,-0.0163 -2.88282,-0.0306 z"
         id="path1217"
         transform="scale(0.26458333)" />
      <path
         style="fill:#ff0000;fill-opacity:1;stroke:#ffffff;stroke-width:0.00416667;stroke-miterlimit:4;stroke-dasharray:none;stroke-opacity:1"
         d="m 312.21088,199.93182 c -1.19906,-0.07 -1.78329,-0.43819 -1.89241,-1.19266 -0.0461,-0.31874 -0.0371,-0.63607 0.0196,-0.69282 0.0731,-0.0731 0.13021,-0.0634 0.6339,0.10665 0.5329,0.17996 0.98271,0.26462 1.67191,0.31464 0.82664,0.06 1.79248,-0.042 2.29245,-0.24217 0.25535,-0.10222 0.52298,-0.35471 0.64752,-0.61087 0.10374,-0.21337 0.13854,-0.51669 0.0802,-0.69877 -0.10963,-0.34201 -0.39766,-0.45599 -2.24643,-0.88898 -0.52222,-0.12231 -1.11065,-0.27795 -1.30763,-0.34587 -1.20717,-0.41625 -1.7948,-1.00339 -1.91604,-1.91443 -0.0659,-0.49524 0.0386,-0.96684 0.30346,-1.36903 0.40169,-0.61005 1.15309,-0.96926 2.38532,-1.1403 0.56599,-0.0786 2.07945,-0.0782 2.5,6.3e-4 0.81735,0.15318 1.26542,0.40239 1.46985,0.81752 0.0686,0.13934 0.077,0.19629 0.077,0.52615 l 4e-5,0.36989 -0.0916,0.0788 c -0.0837,0.072 -0.10807,0.077 -0.28125,0.0582 -0.10428,-0.0114 -0.53414,-0.10369 -0.95524,-0.20521 -0.94877,-0.22872 -1.3255,-0.28489 -1.90625,-0.28419 -0.80153,9.6e-4 -1.25565,0.14024 -1.53985,0.47226 -0.22848,0.26693 -0.22338,0.64275 0.0119,0.87805 0.23242,0.23241 0.60572,0.38373 1.77159,0.7181 1.18493,0.33983 1.82351,0.59933 2.3591,0.95867 1.02716,0.68915 1.20061,1.58217 0.50774,2.61419 -0.50035,0.74528 -1.11663,1.25986 -1.73549,1.4491 -0.5626,0.17204 -1.91737,0.27744 -2.85937,0.22246 z"
         id="path1219"
         transform="scale(0.26458333)" />
      <path
         style="fill:#ff0000;fill-opacity:1;stroke:#ffffff;stroke-width:0.00416667;stroke-miterlimit:4;stroke-dasharray:none;stroke-opacity:1"
         d="m 320.33588,225.64961 c -0.60005,-0.0208 -0.76846,-0.0453 -1.06355,-0.15494 -0.37514,-0.13934 -0.8064,-0.47448 -1.38478,-1.07611 -0.73878,-0.76849 -1.19473,-1.54394 -1.4107,-2.39922 -0.42902,-1.699 0.13421,-3.41169 1.59745,-4.85759 0.43213,-0.427 0.66586,-0.61615 1.2147,-0.98299 0.8861,-0.59227 1.82886,-0.96308 2.44736,-0.9626 0.29354,2.3e-4 0.43728,0.043 0.58088,0.1727 0.14355,0.12968 0.32801,0.48224 0.32801,0.62691 0,0.2359 -0.23048,0.38313 -1.21818,0.77817 -0.65306,0.2612 -1.13105,0.50947 -1.5251,0.79215 -0.87763,0.62959 -1.51517,1.43942 -1.82437,2.3174 -0.47641,1.35274 -0.16653,2.68466 0.84904,3.64934 0.5728,0.54411 1.15807,0.80849 1.86236,0.84126 0.71354,0.0332 1.50569,-0.21983 2.24952,-0.71857 0.26996,-0.181 0.88938,-0.78938 1.19968,-1.17828 0.29634,-0.37141 0.72661,-1.01985 0.93379,-1.40729 0.29021,-0.54269 0.38947,-0.83583 0.44716,-1.32059 0.0393,-0.33009 0.2828,-0.45962 0.86403,-0.45962 0.62442,0 0.69962,0.0939 0.54048,0.67446 -0.29686,1.08301 -1.00569,2.44206 -1.78896,3.43001 -0.25122,0.31687 -0.85412,0.92894 -1.14882,1.1663 -0.52381,0.42188 -1.09644,0.76583 -1.5,0.90096 -0.44109,0.1477 -1.20117,0.2045 -2.25,0.16814 z"
         id="path1221"
         transform="scale(0.26458333)" />
      <path
         style="fill:#ff0000;fill-opacity:1;stroke:#ffffff;stroke-width:0.00416667;stroke-miterlimit:4;stroke-dasharray:none;stroke-opacity:1"
         d="m 315.28513,230.94624 c -0.62583,-0.87516 -3.21163,-5.57841 -3.80351,-6.91814 -0.21915,-0.49604 -0.28948,-0.72108 -0.29111,-0.93141 -0.002,-0.20866 0.0633,-0.31876 0.29183,-0.49457 0.18348,-0.14118 0.63826,-0.41738 0.68725,-0.41738 0.0125,0 0.11283,0.13711 0.22295,0.30468 0.89242,1.35811 3.84275,6.83229 4.17837,7.75274 l 0.0685,0.18786 -0.0717,0.12761 c -0.0397,0.0707 -0.14356,0.1771 -0.23265,0.23845 -0.17062,0.11751 -0.56056,0.25684 -0.79826,0.28523 -0.14168,0.0169 -0.14374,0.0158 -0.25164,-0.13507 z"
         id="path1223"
         transform="scale(0.26458333)" />
      <path
         style="fill:#ff0000;fill-opacity:1;stroke:#ffffff;stroke-width:0.00416667;stroke-miterlimit:4;stroke-dasharray:none;stroke-opacity:1"
         d="m 302.58588,235.89177 c -0.31033,-0.14372 -0.54759,-0.67331 -0.85578,-1.91016 -0.34843,-1.39833 -1.45026,-7.11245 -1.3902,-7.20963 0.18979,-0.30709 5.97344,-1.93121 7.17538,-2.01493 l 0.27316,-0.019 0.06,0.13742 c 0.10278,0.23557 0.2077,0.85126 0.19497,1.14415 -0.0104,0.23883 -0.36455,0.46294 -1.06826,0.67595 -0.19842,0.0601 -0.88748,0.24518 -1.53125,0.41137 -1.33135,0.3437 -2.28059,0.60041 -2.72663,0.73739 -0.38102,0.11701 -0.38553,0.1249 -0.33902,0.59244 0.0613,0.61658 0.17129,1.01416 0.32638,1.18026 0.14202,0.15211 0.23123,0.17733 0.61566,0.17403 0.45056,-0.004 0.88085,-0.0902 2.55132,-0.51171 1.69198,-0.42697 2.23416,-0.50999 2.37974,-0.36442 0.0254,0.0254 0.057,0.16023 0.0741,0.31637 0.0164,0.14969 0.0642,0.39051 0.10612,0.53516 0.0945,0.326 0.0944,0.32937 -0.006,0.44881 -0.20912,0.24853 -0.62871,0.38463 -2.88759,0.93662 -1.60735,0.39279 -1.98653,0.54196 -2.16645,0.85228 -0.15602,0.26911 -0.14206,0.5034 0.089,1.4931 0.21581,0.92457 0.27439,1.24814 0.27723,1.53125 0.004,0.40362 -0.0804,0.51826 -0.55162,0.74888 -0.2954,0.14457 -0.46511,0.17692 -0.6001,0.1144 z"
         id="path1225"
         transform="scale(0.26458333)" />
      <path
         style="fill:#ff0000;fill-opacity:1;stroke:#ffffff;stroke-width:0.00416667;stroke-miterlimit:4;stroke-dasharray:none;stroke-opacity:1"
         d="m 295.58466,236.82143 c -0.0344,-0.007 -0.13529,-0.027 -0.22426,-0.045 -0.46555,-0.094 -0.63892,-0.46369 -0.73182,-1.56046 -0.0232,-0.27387 -0.041,-1.79508 -0.0507,-4.33594 l -0.0149,-3.91406 h 0.95613 0.95613 l -10e-4,3.14843 c -0.001,3.26302 -0.0353,5.44398 -0.0925,5.92969 -0.0484,0.41108 -0.1163,0.62771 -0.22557,0.71965 -0.0789,0.0664 -0.12109,0.0767 -0.30031,0.0736 -0.1147,-0.002 -0.23667,-0.009 -0.27104,-0.0159 z"
         id="path1227"
         transform="scale(0.26458333)" />
      <path
         style="fill:#ff0000;fill-opacity:1;stroke:#ffffff;stroke-width:0.00416667;stroke-miterlimit:4;stroke-dasharray:none;stroke-opacity:1"
         d="m 286.81903,236.16352 c -0.58911,-0.0604 -1.29325,-0.22869 -1.81393,-0.43358 -1.92974,-0.75936 -3.19768,-2.19501 -3.50365,-3.96708 -0.0544,-0.31519 -0.0619,-0.45475 -0.0471,-0.875 0.0257,-0.73055 0.13179,-1.1494 0.45888,-1.8125 0.50095,-1.01556 1.38343,-1.85382 2.54977,-2.42203 1.43318,-0.6982 2.77402,-0.69801 4.54357,6.4e-4 0.4788,0.18904 1.61092,0.74777 2.07813,1.0256 0.79653,0.47368 0.8717,0.70295 0.42449,1.29483 -0.15676,0.20746 -0.26754,0.27284 -0.46231,0.27284 -0.23856,0 -0.48598,-0.10011 -1.47781,-0.59793 -1.62551,-0.81588 -2.18662,-0.9859 -3.15625,-0.95638 -0.40684,0.0124 -0.52889,0.0281 -0.76251,0.0983 -0.52906,0.15884 -1.02786,0.43762 -1.48136,0.82794 -0.51799,0.44582 -0.88457,1.18564 -1.04099,2.10089 -0.0917,0.53624 -0.0721,1.16404 0.0489,1.5741 0.37327,1.26446 1.96311,2.20566 3.98913,2.3616 0.82413,0.0634 1.59549,-0.0371 2.43725,-0.31773 0.52695,-0.17567 0.71793,-0.20927 0.88183,-0.15518 0.19224,0.0635 0.41011,0.37387 0.49275,0.70208 0.0904,0.35921 -0.17454,0.6178 -0.86188,0.84104 -0.56116,0.18227 -1.44206,0.36403 -2.06012,0.42509 -0.31807,0.0314 -0.9863,0.0382 -1.23676,0.0125 z"
         id="path1229"
         transform="scale(0.26458333)" />
      <path
         style="fill:#ff0000;fill-opacity:1;stroke:#ffffff;stroke-width:0.00416667;stroke-miterlimit:4;stroke-dasharray:none;stroke-opacity:1"
         d="m 277.18603,233.2636 c -0.50165,-0.17071 -0.65865,-0.26111 -0.74986,-0.43177 -0.0631,-0.11798 -0.0698,-0.17155 -0.0654,-0.52209 0.004,-0.3116 0.2047,-2.25642 0.27477,-2.6604 0.0134,-0.0775 -0.11066,-0.16973 -2.15378,-1.60007 l -2.16805,-1.51779 -1.10387,0.61363 c -1.37092,0.76207 -1.64181,0.88818 -1.95044,0.90798 -0.20446,0.0131 -0.24751,0.005 -0.43024,-0.0804 -0.54856,-0.25671 -1.12807,-0.76717 -1.01948,-0.89802 0.0847,-0.102 2.23392,-1.45631 6.36483,-4.01065 2.15899,-1.335 2.29151,-1.41205 2.36232,-1.37336 0.0413,0.0225 0.54118,0.33629 1.11093,0.69723 l 1.03591,0.65625 9e-5,0.21875 c 1.3e-4,0.32434 -0.11842,4.01019 -0.15629,4.85938 -0.14061,3.15281 -0.32938,4.92376 -0.5532,5.18976 -0.11257,0.13378 -0.29539,0.12269 -0.79819,-0.0484 z m -0.41611,-6.24293 c 0.222,-0.33883 0.2748,-3.06785 0.0627,-3.24383 -0.0684,-0.0567 -0.29984,0.0378 -0.75193,0.30717 -0.86007,0.51239 -1.91796,1.32709 -1.91796,1.47705 0,0.0167 0.18633,0.16901 0.41407,0.33842 1.30627,0.97169 2.04392,1.34881 2.19307,1.12119 z"
         id="path1231"
         transform="scale(0.26458333)" />
      <path
         style="fill:#ff0000;fill-opacity:1;stroke:#ffffff;stroke-width:0.00416667;stroke-miterlimit:4;stroke-dasharray:none;stroke-opacity:1"
         d="m 269.33466,223.0322 c -0.36501,-0.10576 -0.84121,-0.34872 -1.28125,-0.6537 -0.7861,-0.5448 -1.53151,-1.27051 -2.68665,-2.61564 -0.4428,-0.51562 -0.82227,-0.93592 -0.84327,-0.93399 -0.021,0.002 -0.66865,0.45625 -1.43923,1.00961 -0.77057,0.55336 -1.41147,1.00882 -1.42422,1.01212 -0.0405,0.0105 -0.58988,-0.79704 -0.70799,-1.04074 -0.069,-0.14242 -0.11868,-0.29641 -0.12667,-0.39282 l -0.0131,-0.15856 0.29246,-0.25044 c 1.23381,-1.05651 6.31084,-4.87743 7.13593,-5.37042 l 0.18779,-0.1122 0.25542,0.26605 c 0.32462,0.33812 0.9919,1.16923 1.70369,2.12199 1.54879,2.07314 1.98271,2.85657 2.07299,3.74277 0.0268,0.26316 -0.0329,0.92827 -0.11142,1.24031 -0.0781,0.31042 -0.29981,0.75891 -0.47809,0.96696 -0.29883,0.34875 -0.62501,0.5819 -1.21794,0.87057 -0.48228,0.23479 -0.83118,0.35781 -1.00601,0.35469 -0.0687,-0.001 -0.20927,-0.0267 -0.31239,-0.0566 z m 0.83894,-1.62903 c 0.0833,-0.0419 0.2331,-0.16356 0.3329,-0.27025 0.36898,-0.39444 0.42708,-0.85274 0.20026,-1.57959 -0.23519,-0.75366 -1.02188,-1.9851 -2.04223,-3.19678 -0.26262,-0.31187 -0.27842,-0.31586 -0.6028,-0.15251 -0.77141,0.38848 -1.9927,1.40519 -1.9927,1.65891 0,0.27208 1.55678,2.12718 2.45313,2.92322 0.37462,0.33269 0.65432,0.52838 0.90674,0.63437 0.24249,0.10182 0.52091,0.0953 0.7447,-0.0174 z"
         id="path1233"
         transform="scale(0.26458333)" />
      <path
         style="fill:#000000;stroke-width:0.08466666"
         d="m 76.957808,63.087225 c -3.51608,-0.247711 -6.68979,-2.158453 -8.73492,-5.258877 -1.72387,-2.613411 -2.269764,-5.819355 -1.53176,-8.995808 0.76149,-3.277539 3.08097,-6.204437 6.12225,-7.72553 6.33532,-3.16861 14.02468,0.03945 16.25418,6.781385 0.88407,2.673418 0.72055,5.723122 -0.44719,8.340084 -1.46132,3.274899 -4.32008,5.692649 -7.78614,6.585006 -0.93889,0.241723 -2.63289,0.361348 -3.87642,0.27374 z m 1.4859,-1.724019 v -1.312333 h -0.254 -0.254 v 1.262945 c 0,1.304473 0.009,1.339221 0.35983,1.355037 0.13503,0.0061 0.14817,-0.109706 0.14817,-1.305649 z m -1.81549,1.048283 c 0.37142,-0.09352 0.43963,-0.182149 0.30433,-0.395397 -0.0522,-0.08224 -0.1262,-0.08745 -0.30054,-0.02117 -0.59952,0.227937 -1.42664,0.01529 -1.66374,-0.427727 -0.15426,-0.288232 -0.0435,-0.849112 0.21087,-1.067918 0.38421,-0.330487 0.77668,-0.342523 1.35082,-0.04143 0.46419,0.24344 0.51102,0.252665 0.60816,0.119817 0.13862,-0.18958 0.10008,-0.237265 -0.39426,-0.487764 -0.62126,-0.314818 -1.05536,-0.345721 -1.5168,-0.107979 -1.15828,0.596769 -0.96854,2.052592 0.318,2.439977 0.33407,0.100589 0.65456,0.09751 1.08316,-0.01041 z m 3.66772,-0.06638 c 0.0971,-0.0615 0.0988,-0.147755 0.0104,-0.516241 -0.12608,-0.525551 -0.14424,-0.507741 0.72723,-0.713191 0.49398,-0.116457 0.62805,-0.179076 0.59086,-0.275981 -0.0264,-0.06894 -0.0481,-0.175579 -0.0481,-0.236977 0,-0.088 -0.12994,-0.07788 -0.61384,0.04781 -0.81568,0.211869 -0.88187,0.20688 -0.93515,-0.07049 -0.0246,-0.128059 -0.0317,-0.246015 -0.0159,-0.262124 0.0159,-0.01611 0.36494,-0.114138 0.77569,-0.217839 0.70114,-0.177015 0.74502,-0.201117 0.71738,-0.394043 -0.0162,-0.113021 -0.0453,-0.221926 -0.0647,-0.242008 -0.067,-0.06933 -1.98016,0.452727 -1.98193,0.540831 -9.7e-4,0.04859 0.10322,0.612224 0.23154,1.252516 0.23787,1.186886 0.29322,1.286154 0.60647,1.087741 z m -6.58205,-2.34388 0.0308,-0.987578 -0.29633,-0.18753 -0.29634,-0.187531 -1.12636,0.696557 c -0.6195,0.383107 -1.14668,0.716875 -1.17151,0.741708 -0.0248,0.02483 0.0498,0.107354 0.16582,0.183381 0.20054,0.1314 0.23124,0.126935 0.62117,-0.09036 l 0.41022,-0.22859 0.57147,0.399984 0.57147,0.399985 -0.0527,0.448611 c -0.0514,0.437242 -0.0466,0.45068 0.19052,0.530275 0.24166,0.08113 0.24361,0.07899 0.29711,-0.324836 0.0296,-0.223574 0.0677,-0.850908 0.0847,-1.394076 z m -0.84097,-0.07634 c -0.15351,-0.105806 -0.29999,-0.213245 -0.3255,-0.238753 -0.0423,-0.04228 0.58499,-0.481936 0.68761,-0.481936 0.0697,0 0.0511,0.832389 -0.0195,0.874868 -0.0349,0.02101 -0.1891,-0.04837 -0.34262,-0.154179 z m 10.77086,1.175253 c 0.0737,-0.02827 0.13393,-0.09102 0.13393,-0.139458 0,-0.113338 -1.12304,-2.180693 -1.18267,-2.177125 -0.0247,0.0015 -0.11244,0.05387 -0.19486,0.116409 -0.13954,0.105879 -0.11037,0.187226 0.42333,1.180388 0.31526,0.58667 0.59866,1.067686 0.62977,1.068925 0.0311,0.0012 0.11685,-0.02087 0.1905,-0.04914 z m 2.09122,-1.66389 c 0.33322,-0.254156 0.66017,-0.759544 0.79369,-1.226885 0.0463,-0.162222 0.0222,-0.1905 -0.16294,-0.1905 -0.1462,0 -0.21737,0.04608 -0.21737,0.140728 0,0.249412 -0.41346,0.855359 -0.70775,1.037237 -0.41101,0.254019 -0.77595,0.230029 -1.07677,-0.07079 -0.53634,-0.536339 -0.20945,-1.421692 0.64546,-1.748186 0.39903,-0.152391 0.41916,-0.177356 0.29775,-0.369222 -0.12805,-0.202341 -0.7498,0.03906 -1.16183,0.451078 -0.59249,0.592496 -0.60509,1.357511 -0.0318,1.930801 0.29504,0.295045 0.36052,0.321683 0.79073,0.321683 0.399,0 0.52307,-0.04121 0.83083,-0.275948 z M 70.037585,51.418433 c -0.0443,2.12012 0.834233,4.196258 2.350973,5.713005 1.15188,1.151872 2.80067,1.989821 4.40424,2.238322 0.72118,0.11176 2.25961,0.04769 3.00242,-0.12504 l -9e-5,-3e-6 c 2.66646,-0.620055 4.88124,-2.649501 5.75756,-5.275783 0.9526,-2.854886 0.1371,-6.120341 -2.04536,-8.190127 -1.46612,-1.390431 -3.10181,-2.102879 -5.0798,-2.21258 -2.73088,-0.151456 -5.43303,1.162094 -6.93231,3.369881 -0.69233,1.019499 -1.357434,2.697513 -1.396774,3.459262 m 0.176054,-0.298955 0.0369,-0.175457 7.68567,0.03721 c 4.22711,0.02047 7.69915,0.04941 7.71563,0.06432 0.11591,0.104814 0.17459,1.534193 0.0933,2.272893 -0.07175,0.652112 -0.264332,1.09948 -0.264332,1.09948 h -2.387578 -7.60142 l -5.180126,-0.0062 -0.135874,-0.724953 c -0.0531,-0.384175 -0.08595,-1.0033 -0.05617,-1.799166 0.06163,-0.516463 0.0737,-0.671622 0.094,-0.768122 z m 6.85688,9.225632 c -0.4341,-0.06357 -1.249413,-0.154616 -1.56634,-0.41727 -0.0704,-0.0392 2.40877,0 2.40877,0 0,0 2.513802,-0.02823 2.45533,0 -0.824363,0.397986 -2.5038,0.533543 -3.29776,0.41727 z m -3.60829,-1.375957 c -1.05428,-0.668609 -2.22729,-2.116596 -2.76924,-3.418417 -0.19742,-0.474225 -0.301889,-0.841724 -0.301889,-0.841724 l 6.100178,0.02482 -0.101076,0.250649 H 75.916898 L 75.73854,54.22498 h 0.60366 l -0.07692,0.190385 h -0.661474 l -0.20688,0.307983 h 0.741875 l -0.09632,0.22894 h -0.804047 l -0.273088,0.395705 h 0.918226 l -0.144775,0.350813 H 74.72018 l -0.385321,0.565246 h 1.168743 l -0.18668,0.479621 h -1.313951 l -0.472356,0.702115 h 1.491518 l -0.298318,0.741466 h -0.4279 c -0.28482,0 -0.49481,-0.06499 -0.77285,-0.241313 z m 1.699165,0.241165 0.196205,-0.741466 h 2.522765 2.511023 l 0.277427,0.741466 h -2.760825 c -1.51059,0 -2.74652,0.02949 -2.74652,0 z m 5.698821,-0.741466 h 1.504364 l -0.471256,-0.702115 h -1.316227 l -0.198948,-0.479621 h 1.174164 L 81.23825,55.698807 h -1.029197 l -0.141592,-0.350813 h 0.922296 L 80.72496,54.952289 h -0.818435 l -0.09358,-0.22894 h 0.750483 l -0.207643,-0.30796 h -0.669804 l -0.07414,-0.190385 h 0.610925 l -0.180983,-0.263562 h -0.540512 l -0.101478,-0.250478 6.092418,-0.0099 -0.0544,0.275167 c -0.083,0.420032 -0.60555,1.469853 -1.01827,2.045652 -0.44297,0.61802 -1.39582,1.570676 -1.91645,1.916069 -0.30807,0.204374 -0.46561,0.249006 -0.86758,0.249303 -0.24027,1.7e-4 -0.407405,0 -0.407405,0 z m -5.027366,-1.181736 c 0,0 1.102488,0.0058 2.078995,0 h 2.040321 l 0.181255,0.479621 h -2.220766 -2.280098 z m 0.379289,-0.916059 h 1.648345 1.757863 l 0.1308,0.350813 h -1.837859 -1.830869 z m 0.146962,-0.395705 0.07905,-0.22894 h 1.479029 1.470784 l 0.08328,0.22894 h -1.554066 z m 0.198185,-0.536923 0.07246,-0.190385 h 1.287436 1.284631 l 0.07154,0.190385 h -1.307008 z m 0.167764,-0.453947 0.09397,-0.250646 h 1.098156 l 1.09401,2e-6 0.09388,0.250644 h -1.187883 c -0.397393,0.0026 -0.794968,0.0081 -1.192133,0 z m -5.11384,4.945572 c 0.30475,-0.157595 0.42164,-0.365015 0.42164,-0.748226 0,-0.227434 -0.1157,-0.450609 -0.50765,-0.979233 -0.27921,-0.376566 -0.5341,-0.684665 -0.56644,-0.684665 -0.0686,0 -1.95139,1.419064 -2.01119,1.51582 -0.0222,0.03589 0.0178,0.148203 0.0888,0.249588 l 0.12911,0.184337 0.38248,-0.274675 0.38248,-0.274676 0.39135,0.454238 c 0.3371,0.391267 0.73586,0.670376 0.97444,0.682054 0.0372,0.0018 0.17898,-0.05423 0.31499,-0.124562 z m -0.86441,-0.73616 c -0.22401,-0.242386 -0.40702,-0.480511 -0.40671,-0.529167 6.1e-4,-0.09354 0.57561,-0.51755 0.6245,-0.460511 0.57912,0.675637 0.75829,1.11382 0.54333,1.328781 -0.18223,0.182224 -0.3473,0.108682 -0.76112,-0.339103 z m 7.42025,-5.337797 c 0.0181,-0.05821 0.0568,-0.591609 0.0861,-1.185334 l 0.0532,-1.0795 h -0.2581 -0.2581 v 0.719667 c 0,0.395817 -0.0286,0.719126 -0.0635,0.718466 -0.0349,-6.77e-4 -0.27305,-0.323969 -0.52916,-0.718466 -0.46332,-0.713638 -0.46749,-0.717272 -0.8255,-0.718466 l -0.35984,-0.0012 v 1.143 1.143 h 0.254 0.254 v -0.762 c 0,-0.4191 0.0286,-0.761818 0.0635,-0.761596 0.0349,2.54e-4 0.28255,0.340469 0.55027,0.756103 0.32891,0.510618 0.54857,0.767602 0.67733,0.7924 0.10482,0.02019 0.22034,0.04189 0.25673,0.04823 0.0364,0.0063 0.081,-0.0361 0.099,-0.0943 z m 2.92513,-0.148167 v -0.254 h -0.67733 -0.67733 v -0.254 -0.254 h 0.635 c 0.62088,0 0.635,-0.0047 0.635,-0.211667 0,-0.206962 -0.0141,-0.211666 -0.635,-0.211666 h -0.635 v -0.254 -0.254 h 0.67733 c 0.66604,0 0.67733,-0.0035 0.67733,-0.211667 V 50.5682 h -0.92704 -0.92705 l 0.002,1.119519 c 10e-4,0.615735 0.0207,1.149135 0.043,1.185333 0.0224,0.0362 0.43848,0.06582 0.92468,0.06582 h 0.884 z m 2.56117,-0.08335 c 0.4395,-0.486978 0.22942,-0.857961 -0.61383,-1.084007 -0.43414,-0.116375 -0.55034,-0.181722 -0.55034,-0.309491 0,-0.233566 0.38756,-0.311839 0.89382,-0.180519 0.41469,0.107571 0.41852,0.106723 0.41852,-0.0928 0,-0.270872 -0.33008,-0.390733 -0.95579,-0.34708 -0.55858,0.03897 -0.84338,0.245013 -0.84338,0.610152 0,0.325185 0.23118,0.529131 0.72666,0.641054 0.70565,0.159393 0.73384,0.172485 0.73384,0.340765 0,0.08836 -0.0737,0.20009 -0.16377,0.248295 -0.20825,0.111454 -0.77448,0.113016 -1.06401,0.0029 -0.20979,-0.07976 -0.22124,-0.07112 -0.19602,0.147765 0.032,0.277596 0.30662,0.367936 0.95813,0.315189 0.34059,-0.02757 0.46885,-0.0847 0.65617,-0.292261 z m -9.75783,0.04102 c 0,-0.206755 -0.0146,-0.211667 -0.62808,-0.211667 -0.93265,0 -0.89592,0.04029 -0.89592,-0.982725 v -0.879942 h -0.254 -0.254 v 1.143 1.143 h 1.016 1.016 z m 1.10066,-0.931334 v -1.143 h -0.21166 -0.21167 v 1.143 1.143 h 0.21167 0.21166 z m -5.11838,-3.327083 c 0.37733,-0.44235 0.55356,-0.819037 0.56944,-1.217156 0.0112,-0.279879 -0.0298,-0.380977 -0.22107,-0.545489 -0.12912,-0.111066 -0.29168,-0.201938 -0.36125,-0.201938 -0.2328,0 -0.61087,0.248742 -0.80235,0.527889 -0.52182,0.760715 -0.92439,0.97071 -0.92439,0.482199 0,-0.298764 0.3826,-0.899673 0.76175,-1.196402 0.24391,-0.19089 0.24875,-0.2072 0.11717,-0.395053 l -0.13724,-0.195943 -0.3776,0.367488 c -0.47566,0.462926 -0.76253,0.943883 -0.8356,1.400941 -0.0513,0.321001 -0.0315,0.381532 0.20078,0.613833 0.43848,0.438473 0.63846,0.33994 1.54576,-0.761602 0.21538,-0.261491 0.34218,-0.350193 0.4445,-0.310931 0.31871,0.122303 0.091,0.722121 -0.50922,1.341544 -0.33554,0.346254 -0.36873,0.413641 -0.28281,0.574175 l 0.0973,0.181879 0.22366,-0.175925 c 0.12301,-0.09676 0.34402,-0.317038 0.49114,-0.489509 z m 18.09355,-0.127169 c 0.48571,-0.177437 0.57381,-0.298873 0.40748,-0.561708 -0.0642,-0.101421 -0.21768,-0.06902 -0.93689,0.197758 -0.47307,0.175478 -0.8723,0.30626 -0.88718,0.290627 -0.0149,-0.01563 0.23185,-0.464158 0.54828,-0.996722 l 0.57534,-0.968296 -0.13453,-0.282115 c -0.074,-0.155162 -0.15902,-0.271879 -0.18895,-0.259369 -0.4899,0.204771 -2.19697,1.147015 -2.19771,1.213062 -5.9e-4,0.04931 0.049,0.158083 0.11019,0.241723 0.10469,0.143175 0.15175,0.131683 0.80433,-0.196429 0.38123,-0.191676 0.69314,-0.324023 0.69314,-0.294105 0,0.02992 -0.19685,0.398387 -0.43745,0.818818 -0.47989,0.838594 -0.48506,0.857849 -0.33052,1.23094 l 0.10693,0.258136 0.69035,-0.257238 c 0.3797,-0.14148 0.90943,-0.337268 1.17719,-0.435082 z m -2.98671,-2.381098 c 0.17757,-0.53362 0.1875,-0.544761 0.53606,-0.601884 0.42723,-0.07001 0.61431,-0.220919 0.73782,-0.595153 0.0738,-0.223704 0.0662,-0.33223 -0.0376,-0.532912 -0.12592,-0.2435 -1.33922,-1.367034 -1.47625,-1.367034 -0.0371,0 -0.42244,0.42201 -0.85631,0.9378 l -0.78886,0.9378 0.17605,0.176052 0.17605,0.176053 0.22482,-0.267186 c 0.12365,-0.146952 0.26906,-0.266069 0.32313,-0.264704 0.0541,0.0014 0.2244,0.117156 0.37852,0.257314 l 0.28021,0.254832 -0.13525,0.465249 c -0.0744,0.255887 -0.10896,0.51157 -0.0768,0.568186 0.068,0.119893 0.30259,0.399271 0.33521,0.399271 0.0123,0 0.10373,-0.244658 0.20324,-0.543684 z m -0.22622,-1.426938 c -0.24205,-0.196741 -0.44053,-0.376762 -0.44106,-0.400045 -5.1e-4,-0.02328 0.10912,-0.171047 0.24367,-0.328364 l 0.24462,-0.286031 0.42298,0.328364 c 0.49136,0.38146 0.64534,0.617862 0.56575,0.868609 -0.0977,0.307872 -0.5253,0.232532 -1.03596,-0.182533 z m -13.32368,1.391538 c 0.72375,-0.34977 1.07149,-1.330223 0.68826,-1.940524 -0.34979,-0.557051 -1.12607,-0.782241 -1.69045,-0.490384 -0.33096,0.171145 -0.73319,0.651137 -0.85504,1.020337 -0.19936,0.60407 0.20378,1.379411 0.81317,1.563941 0.29445,0.08916 0.65042,0.03687 1.04406,-0.15337 z m -0.98033,-0.26687 c -0.2829,-0.114162 -0.45356,-0.427358 -0.45356,-0.832352 0,-0.307327 0.0483,-0.418941 0.28288,-0.653504 0.46002,-0.460023 0.96691,-0.490094 1.37541,-0.0816 0.43385,0.433849 0.15197,1.251064 -0.52978,1.535918 -0.31275,0.130672 -0.41719,0.135552 -0.67495,0.03153 z m 12.24344,-1.707233 c 0.002,-0.03054 -0.24465,-0.171409 -0.54733,-0.313051 -0.56507,-0.264427 -0.61368,-0.32854 -0.46281,-0.610437 0.0845,-0.157906 0.10485,-0.154795 0.59025,0.09023 0.60452,0.305161 0.62557,0.306761 0.73972,0.05622 0.0845,-0.185452 0.0568,-0.213942 -0.45207,-0.464876 -0.29815,-0.147025 -0.54209,-0.297296 -0.54209,-0.333936 0,-0.03664 0.059,-0.150845 0.1311,-0.25379 l 0.1311,-0.187171 0.58063,0.292401 c 0.58957,0.296903 0.61945,0.296088 0.80161,-0.02188 0.044,-0.07685 -0.19276,-0.229202 -0.81232,-0.522636 l -0.87446,-0.414162 -0.56091,1.114043 -0.56092,1.114043 0.81492,0.434008 c 0.80302,0.427672 0.81641,0.431399 0.91774,0.255259 0.0566,-0.09831 0.10419,-0.203733 0.10584,-0.234269 z m -8.66868,0.02196 c 0.40713,-0.18491 0.71301,-0.541368 0.71301,-0.830909 0,-0.113646 -0.15426,-0.601178 -0.3428,-1.083403 l -0.3428,-0.876774 -0.24591,0.08572 -0.24591,0.08572 0.15754,0.395263 c 0.0866,0.217395 0.23726,0.579397 0.33471,0.804449 0.0974,0.225053 0.17717,0.480743 0.17717,0.568202 0,0.4136 -0.75756,0.67466 -1.03338,0.356112 -0.0706,-0.08149 -0.29163,-0.433916 -0.49126,-0.783166 -0.19963,-0.34925 -0.37148,-0.645952 -0.38188,-0.659337 -0.041,-0.05269 -0.46414,0.183448 -0.46414,0.259002 0,0.04427 0.19507,0.403444 0.4335,0.798173 0.61661,1.020822 0.99756,1.214571 1.73215,0.880939 z m 6.35993,-1.850277 c 0.26687,-1.301538 0.26117,-1.371846 -0.1114,-1.374537 -0.15148,-0.0011 -0.19461,0.07559 -0.27641,0.491365 l -0.0969,0.492661 -0.44325,-0.06315 c -0.2438,-0.03473 -0.511,-0.06593 -0.59379,-0.06933 -0.13442,-0.0055 -0.14442,-0.06571 -0.0935,-0.562799 l 0.057,-0.556617 -0.2875,0.02745 -0.2875,0.02745 -0.0558,0.762 c -0.0307,0.4191 -0.0777,0.981075 -0.10453,1.248833 l -0.0487,0.486833 h 0.29503 0.29504 l 10e-4,-0.402166 c 0.002,-0.581775 0.0354,-0.607575 0.65889,-0.506386 0.51329,0.08331 0.53157,0.09477 0.48973,0.307045 -0.16176,0.820788 -0.16072,0.839592 0.0485,0.879358 0.10924,0.02077 0.22093,0.04294 0.24821,0.04929 0.0273,0.0063 0.16482,-0.550445 0.30566,-1.237303 z m -3.76114,1.032828 c 0.10447,-0.04009 0.10001,-0.162485 -0.0316,-0.867834 -0.21804,-1.1682 -0.23943,-1.093504 0.3461,-1.2087 0.48759,-0.09593 0.50488,-0.108187 0.45375,-0.321761 -0.0292,-0.122118 -0.0584,-0.229442 -0.0647,-0.238496 -0.006,-0.0091 -0.61021,0.100259 -1.34184,0.242919 l -1.33023,0.259383 0.0533,0.222747 c 0.0293,0.122511 0.0607,0.232271 0.0696,0.243912 0.009,0.01164 0.23312,-0.02238 0.49811,-0.07559 0.26499,-0.05322 0.4995,-0.07906 0.52113,-0.05743 0.0216,0.02163 0.12386,0.446175 0.22716,0.943427 0.19285,0.92824 0.23976,0.99537 0.59925,0.857422 z"
         id="path330" />
      <path
         style="display:inline;fill:#ffff00;fill-opacity:1;stroke:none;stroke-width:0.00440389;stroke-miterlimit:4;stroke-dasharray:none;stroke-opacity:1"
         d="m 74.341989,49.408774 c 0.296402,-0.523008 0.78355,-1.037578 1.31635,-1.390444 0.887044,-0.587481 1.743472,-0.804882 2.824829,-0.717066 0.572976,0.04653 0.881274,0.124128 1.316,0.331243 0.831522,0.396162 1.585865,1.071479 1.983227,1.775462 l 0.116366,0.20616 h -3.836577 -3.836577 z"
         id="path1239" />
      <path
         style="display:inline;fill:#ffff00;fill-opacity:1;stroke:none;stroke-width:0.01666667;stroke-miterlimit:4;stroke-dasharray:none;stroke-opacity:1"
         d="m 276.83665,185.20867 c -4.37436,-2.59733 -5.75945,-3.47369 -5.55359,-3.51381 0.10803,-0.0211 1.59648,0.44204 3.30767,1.02909 1.7112,0.58705 3.15563,1.06736 3.20985,1.06736 0.25635,0 -0.0683,-0.39018 -2.33893,-2.8109 -1.34062,-1.42926 -2.4375,-2.64536 -2.4375,-2.70245 0,-0.15215 0.17972,-0.076 3.125,1.32454 3.00544,1.42913 3.47599,1.62949 3.58077,1.52471 0.1086,-0.1086 -0.35604,-0.80953 -1.83324,-2.76549 -1.49912,-1.98499 -2.42501,-3.31121 -2.35626,-3.37504 0.0254,-0.0236 1.17123,0.76759 2.54623,1.75822 2.58766,1.8643 3.5389,2.48668 3.64241,2.38318 0.0331,-0.0332 -0.67852,-1.53399 -1.58149,-3.33518 -0.90297,-1.8012 -1.61735,-3.29932 -1.58751,-3.32916 0.0298,-0.0298 0.7748,0.58009 1.65548,1.35541 3.92846,3.45849 4.30861,3.76114 4.30861,3.4302 0,-0.21093 -0.50752,-1.96796 -1.30254,-4.50938 -0.32068,-1.02511 -0.56661,-1.94741 -0.54651,-2.04956 0.0201,-0.10215 0.6553,0.67455 1.41155,1.72601 1.7694,2.4601 2.4592,3.34732 2.66904,3.43291 0.19578,0.0799 0.17551,-0.2128 -0.30272,-4.37052 -0.16606,-1.44375 -0.30108,-2.7375 -0.30005,-2.875 0.003,-0.3544 0.53717,0.54045 2.30873,3.86514 0.825,1.54829 1.54219,2.81671 1.59375,2.81871 0.0516,0.002 0.0939,-0.62916 0.0941,-1.4026 2.5e-4,-0.77343 0.0374,-2.46652 0.0827,-3.76242 l 0.0823,-2.35617 0.95874,2.73117 c 0.52731,1.50215 1.04531,2.89579 1.15111,3.09698 0.182,0.34611 0.19945,0.35256 0.32407,0.1197 0.0724,-0.13535 0.30618,-1.14371 0.51943,-2.2408 0.57009,-2.93293 0.88427,-4.29431 1.00883,-4.37129 0.18009,-0.11131 0.43721,0.95833 0.99321,4.13188 0.55396,3.16198 0.59976,3.37833 0.69494,3.28316 0.0329,-0.0329 0.43213,-1.23419 0.88717,-2.66952 0.9847,-3.10602 1.40009,-4.12839 1.59732,-3.93137 0.0896,0.0895 0.15902,1.29754 0.19979,3.47479 l 0.0625,3.33764 1.66888,-2.89963 c 0.91789,-1.5948 1.74579,-3.00105 1.83978,-3.125 0.15577,-0.20543 0.17124,-0.18932 0.17487,0.18213 0.002,0.22412 -0.22103,1.72825 -0.49603,3.3425 -0.55208,3.2407 -0.54557,3.1875 -0.38956,3.1875 0.0607,0 0.95547,-1.08281 1.98828,-2.40625 2.00011,-2.5629 2.62314,-3.28855 2.73097,-3.18073 0.0993,0.0993 -0.35266,1.75802 -1.20227,4.41254 -0.41383,1.29298 -0.75242,2.39554 -0.75242,2.45015 0,0.33586 0.64857,-0.18319 3.14197,-2.51451 1.53754,-1.43759 2.81285,-2.59683 2.83401,-2.5761 0.0212,0.0207 -0.75246,1.61882 -1.71918,3.5513 -0.96671,1.93248 -1.7067,3.5136 -1.64441,3.5136 0.0623,0 0.83592,-0.48923 1.71918,-1.08718 2.35422,-1.59377 4.8334,-3.16451 4.89596,-3.10195 0.03,0.03 -0.61363,0.93235 -1.43026,2.00526 -1.86655,2.45234 -2.67227,3.56831 -2.67227,3.70125 0,0.147 0.9148,-0.22981 4.04024,-1.6642 1.50026,-0.68853 2.75541,-1.2242 2.78922,-1.19038 0.0338,0.0338 -0.88429,1.03826 -2.04024,2.2321 -2.82205,2.91456 -3.37335,3.6051 -2.87813,3.6051 0.0886,0 1.72375,-0.39375 3.63367,-0.875 1.90991,-0.48125 3.56711,-0.8738 3.68266,-0.87233 0.34857,0.004 -5.61126,3.73918 -7.46968,4.68091 -0.66567,0.33732 -0.67758,0.33865 -0.87256,0.0971 -2.99329,-3.70827 -3.67664,-4.40574 -5.55147,-5.66611 -1.83979,-1.23682 -3.87977,-2.09682 -6.12225,-2.58098 -1.46436,-0.31616 -5.47903,-0.31355 -6.92333,0.004 -2.47108,0.54416 -4.82532,1.56566 -6.53813,2.83689 -1.54385,1.14582 -3.54282,3.21609 -4.55629,4.71878 -0.47527,0.70469 -0.92422,1.27585 -0.99767,1.26924 -0.0734,-0.007 -1.31479,-0.71339 -2.75854,-1.57063 z"
         id="path1241"
         transform="scale(0.26458333)" />
      <path
         style="display:inline;fill:#000000;fill-opacity:1;stroke:none;stroke-width:0.00589256;stroke-miterlimit:4;stroke-dasharray:none;stroke-opacity:1"
         d="m 266.27125,187.10727 c 2.42817,-6.94092 6.83651,-12.73798 12.08545,-16.50046 3.07669,-2.20538 6.64462,-3.74218 10.41042,-4.48401 3.84257,-0.75696 8.26179,-0.74793 12.04291,0.0246 6.75832,1.38082 12.44284,5.07277 16.84904,10.94303 2.02348,2.69582 3.76539,5.87715 4.99119,9.11562 0.22295,0.58902 0.46703,1.27241 0.46703,1.33326 0,0.0227 -5.69313,0.0235 -13.57866,0.002 -16.49125,-0.0453 -14.08917,-0.0454 -30.1854,10e-4 l -13.29217,0.0383 z m 43.26713,0.42272 c 0,-0.0433 -0.71465,-1.27353 -0.89743,-1.5449 -1.59195,-2.36352 -4.14553,-4.54696 -6.88853,-5.89004 -1.54659,-0.75726 -2.68994,-1.08117 -4.47938,-1.26897 -3.51551,-0.36897 -6.32591,0.055 -9.05835,1.36659 -3.1862,1.52937 -5.69253,3.82958 -7.35125,6.74667 -0.17404,0.30608 -0.31644,0.56958 -0.31644,0.58557 l 28.99138,0.005 z m -29.19025,-1.65584 c 0.89757,-1.27732 1.56569,-2.07377 2.65133,-3.16053 1.5553,-1.55692 2.67052,-2.38639 4.30925,-3.2051 1.20523,-0.60213 2.54954,-1.09156 3.93329,-1.43202 1.02949,-0.2533 1.97193,-0.33356 3.91118,-0.33308 1.98144,4.9e-4 2.9263,0.0836 4.02485,0.35379 1.94904,0.47947 3.86397,1.32399 5.54319,2.44466 1.70531,1.13808 2.52332,1.94898 4.87735,4.83497 0.6925,0.849 0.81824,0.98283 0.92387,0.98333 0.38252,0.002 4.56375,-2.4575 7.14767,-4.20407 0.8399,-0.56772 0.99898,-0.68894 0.95797,-0.72995 -0.0357,-0.0357 -0.91748,0.16587 -3.05719,0.69879 -2.75965,0.68733 -4.12114,1.00963 -4.26503,1.00963 -0.17455,0 -0.17319,-0.0946 0.005,-0.37805 0.25619,-0.40653 0.83866,-1.05215 2.68753,-2.97888 1.41468,-1.47425 2.21287,-2.34744 2.21287,-2.4208 0,-0.0886 -0.45522,0.10305 -3.37599,1.42126 -2.69885,1.21804 -3.35172,1.48622 -3.40566,1.39894 -0.0374,-0.0605 0.61087,-0.9715 2.19471,-3.08426 1.50462,-2.00708 1.91034,-2.57157 1.87422,-2.60769 -0.0693,-0.0693 -1.45764,0.79694 -4.33625,2.70563 -1.97129,1.30709 -2.2318,1.46986 -2.2318,1.39442 0,-0.096 0.49767,-1.15332 1.53213,-3.25502 1.36558,-2.77442 1.79979,-3.68341 1.77251,-3.71069 -0.0284,-0.0284 -0.65213,0.53315 -2.73012,2.45767 -2.66125,2.4647 -3.30436,2.98051 -3.2067,2.57197 0.016,-0.0668 0.31794,-1.0463 0.67104,-2.17656 1.02129,-3.26914 1.36793,-4.54417 1.26374,-4.64835 -0.10574,-0.10575 -0.7212,0.6022 -2.61717,3.01048 -1.2817,1.62804 -2.02652,2.52773 -2.11728,2.55754 -0.10036,0.033 -0.0386,-0.4911 0.28037,-2.37808 0.50333,-2.97794 0.66695,-4.12444 0.61945,-4.34069 -0.0271,-0.12349 -0.0319,-0.12579 -0.11201,-0.0533 -0.11513,0.10419 -1.1744,1.90043 -3.08405,5.22973 l -0.49203,0.8578 -3.5e-4,-0.61473 c -10e-4,-2.02722 -0.13254,-5.74883 -0.2135,-6.05062 -0.0574,-0.21383 -0.16245,-0.18888 -0.31409,0.0746 -0.25599,0.44475 -0.57522,1.34782 -1.68234,4.75931 -0.35609,1.09727 -0.55087,1.63713 -0.58012,1.60788 -0.0578,-0.0578 -0.18854,-0.71545 -0.56905,-2.86204 -0.6273,-3.53889 -0.85639,-4.5299 -1.04715,-4.5299 -0.0326,0 -0.0807,0.0547 -0.10699,0.12153 -0.11442,0.29094 -0.37606,1.4412 -0.76809,3.37677 -0.55427,2.73659 -0.68523,3.26341 -0.81123,3.26341 -0.11341,0 -0.46823,-0.91267 -1.53774,-3.95538 -0.35029,-0.99658 -0.66388,-1.88157 -0.69684,-1.96664 l -0.06,-0.15468 -0.0256,0.24307 c -0.0346,0.32859 -0.11339,2.96019 -0.15793,5.27227 -0.02,1.04028 -0.0491,1.90406 -0.0645,1.9195 -0.0154,0.0155 -0.0462,0.01 -0.0683,-0.0132 -0.0797,-0.0818 -0.69246,-1.17946 -1.62668,-2.91386 -1.48648,-2.75967 -1.92781,-3.52905 -2.12707,-3.70812 l -0.0937,-0.0842 10e-6,0.23887 c 2e-5,0.13138 0.14786,1.57133 0.32854,3.19988 0.363,3.27172 0.40597,3.76729 0.33538,3.86699 -0.0967,0.13651 -0.69541,-0.59118 -2.25455,-2.74004 -0.84797,-1.1687 -1.472,-1.98512 -1.7059,-2.2318 -0.13276,-0.14002 -0.17104,-0.16111 -0.18408,-0.10143 -0.0235,0.10735 0.23381,1.05665 0.66825,2.46582 0.88803,2.88048 1.21024,4.05046 1.13593,4.12477 -0.0984,0.0984 -0.56578,-0.27898 -3.26369,-2.63564 -1.96175,-1.71361 -2.62998,-2.26809 -2.65238,-2.20087 -0.0206,0.0619 0.35837,0.86554 1.51715,3.21721 1.24637,2.52943 1.63651,3.3623 1.59461,3.40419 -0.0808,0.0808 -1.01681,-0.53392 -3.38584,-2.2237 -2.09731,-1.49597 -2.67368,-1.88876 -2.73937,-1.86686 -0.0812,0.0271 0.70906,1.17628 2.03139,2.95387 1.30724,1.75729 1.72017,2.33045 1.95876,2.71881 0.15596,0.25387 0.21103,0.46317 0.12188,0.46317 -0.17693,0 -1.07306,-0.40031 -3.95802,-1.76806 -2.29898,-1.08994 -2.67374,-1.24296 -2.67374,-1.09168 0,0.0691 0.88115,1.0523 2.56575,2.86282 1.52219,1.63596 1.88039,2.03173 2.09023,2.30945 0.18047,0.23883 0.19636,0.2948 0.0838,0.2952 -0.0425,1.4e-4 -1.29047,-0.40585 -2.77318,-0.90224 -2.66031,-0.89062 -3.67416,-1.20595 -3.72236,-1.15775 -0.052,0.052 0.12143,0.19051 0.78344,0.62575 1.04268,0.6855 5.40311,3.29849 6.8722,4.11816 l 0.66291,0.36987 0.19887,-0.21502 c 0.10938,-0.11827 0.35798,-0.44145 0.55243,-0.71818 z"
         id="path1259"
         transform="scale(0.26458333)" />
    </g>
  </g>
</svg>
