<svg xmlns="http://www.w3.org/2000/svg" width="216" height="215.87073" viewBox="0 0 216 215.87072">
    <path class="color-orange" fill="#f8b131" d="M169.6654 100.37262l-6.85171-.904937.12927-.64639-3.49049-.25856v-5.55893l12.53992-4.524715-30.5095 3.361217 6.07605-3.619772 19.0038-11.634981-28.44107 8.403042 20.68442-19.650191-26.37263 14.34981 16.6768-24.304182-22.75284 19.391635 11.5057-27.794677-17.71103 23.011407 5.55893-29.346008-12.02281 25.079848-.77567-29.21673-6.20532 25.855514-6.46387-27.14829-.77567 27.923955-11.376426-24.045627 5.300381 28.828898-16.935361-22.106464L87.8327 73.48289 65.726236 54.608366l17.064638 24.692015-26.243345-14.220532 21.330798 20.296578-28.828898-8.532319 15.771864 9.695817 9.954372 5.041825-19.908745-1.292776-10.988593-.775666 10.988593 3.878328v4.266159l-1.939163.258557.51711 2.456268z"/>
    <path class="color-main color-blue" fill="#025aaa" d="M21.125475 92.486693H196.42586v32.577947H21.125475zM107.87073 205.08745c44.08364 0 79.89352-35.80988 79.89352-79.89354H28.106464c0 44.08366 35.680608 79.89354 79.764266 79.89354z"/>
    <path class="color-orange color-stroke-white" fill="#f8b131" stroke="#fff" stroke-miterlimit="10" stroke-width=".8406" d="M108.64638 60.038023c-17.452464 0-31.672996 14.220532-31.672996 31.673005h63.346006c0-17.452473-14.09126-31.673005-31.67301-31.673005z"/>
    <path class="color-stroke-white" fill="none" stroke="#fff" stroke-miterlimit="10" stroke-width="1.8333" d="M80.593156 176.64638l11.505703-51.45247m42.273761 51.06464l-11.37643-51.06464"/>
    <path class="color-white" fill="#fff" d="M52.798479 176.64638H160.35742v9.30799H52.798479zm28.441065-48.47909l-1.680609 4.52472h55.977185l-1.42205-4.52472zm-2.197719 5.94678l-2.197719 5.81749H137.9924l-1.93917-5.81749zm-2.973384 7.62737l-2.585551 6.981h67.35361l-2.32699-6.981zm-3.74905 9.95438l-3.102661 8.01521h75.23954l-2.71482-8.01521zm-4.783269 12.66919l-3.619772 9.17872h85.06464l-3.10267-9.17872z"/>
    <path class="color-main color-blue" fill="#025aaa" d="M108 7.163499C52.281369 7.163499 7.163498 52.281369 7.163498 108c0 55.71863 45.117871 100.8365 100.836502 100.8365 55.71863 0 100.83651-45.11787 100.83651-100.8365C208.83651 52.281369 163.58936 7.163499 108 7.163499zm0 174.653991c-40.851711 0-73.946768-33.09505-73.946768-73.94677 0-40.851707 33.095057-73.946765 73.946768-73.946765 40.85171 0 73.94677 33.095058 73.94677 73.946765 0 40.85172-33.22434 73.94677-73.94677 73.94677z"/>
    <path class="color-white" fill="#fff" d="M108 209.87072c-56.235742 0-102-45.76426-102-102C6 51.634982 51.764258 6 108 6c56.23574 0 102 45.76426 102 102s-45.89353 101.87072-102 101.87072zm0-201.543723C53.057034 8.326997 8.326996 53.057035 8.326996 108c0 54.94296 44.730038 99.54373 99.543734 99.54373 54.94296 0 99.54372-44.73004 99.54372-99.54373C207.54373 53.057035 162.81369 8.326997 108 8.326997zm0 174.653983c-41.498099 0-75.110266-33.61216-75.110266-75.11026 0-41.498096 33.612167-74.980985 75.110266-74.980985 41.4981 0 75.11027 33.741444 75.11027 75.110265 0 41.36882-33.74145 74.98098-75.11027 74.98098zm0-147.76425c-40.076046 0-72.653992 32.577948-72.653992 72.65399 0 40.07605 32.577946 72.65399 72.653992 72.65399 40.07604 0 72.65399-32.57794 72.65399-72.65399 0-40.076042-32.57795-72.65399-72.65399-72.65399z"/>
    <path class="color-white" fill="#fff" d="M42.714829 43.878328c-1.03422.51711-1.809886 1.034221-2.197719 1.680608-.387832.387832-.646387.775666-.646387 1.163498-.129278.387833 0 .775666.387832 1.03422.258555.258556.646388.387834 1.03422.387834.387834 0 .775666-.129278 1.163499-.387834.387832-.258554 1.034221-.517109 1.809886-.904943 1.163498-.646387 2.068441-1.163497 2.844107-1.55133.775665-.387832 1.680608-.51711 2.585551-.387832.904943.129276 1.809886.51711 2.714829 1.292775.904943.775665 1.422053 1.680608 1.55133 2.714829.129278 1.034221.129278 2.068441-.387833 3.231939-.387832 1.03422-1.163497 2.197719-2.06844 3.102662-1.034221 1.03422-2.197719 1.939163-3.619772 2.714829-1.422054.775665-2.714829 1.163497-4.136883 1.292775l-1.422053-3.878327c1.163499-.129277 2.456274-.51711 3.619772-1.03422 1.163499-.517111 2.197718-1.163499 2.844107-1.939164.51711-.51711.775665-1.034221.904943-1.422053.129277-.517111 0-.904943-.387833-1.163498-.258556-.258556-.646388-.387833-1.034221-.387833-.387832 0-.775665.129277-1.292775.387833-.387833.258555-1.034221.51711-1.680608 1.034221-1.034221.646387-2.068442 1.163498-2.844107 1.55133-.775665.387833-1.680608.51711-2.585551.387833-.904943 0-1.809886-.517111-2.714829-1.292776-.775666-.775665-1.292776-1.680608-1.551331-2.585551-.258555-1.034221-.129278-2.068442.258555-3.102661.387833-1.163499 1.03422-2.197719 2.068441-3.23194.904943-.904943 1.939164-1.809886 2.973384-2.456274 1.163498-.646387 2.197718-1.163498 3.361217-1.422052l1.55133 3.878326c-1.163498.387833-2.197718.775665-3.102661 1.292776zm16.030419-16.806083c1.680608-.129278 3.231938.129276 4.783269.775665 1.551331.646387 2.714829 1.680608 3.74905 3.231939 1.03422 1.422053 1.55133 2.973384 1.680608 4.653992.129278 1.680608-.258556 3.231939-1.034221 4.78327-.775665 1.551331-1.939163 2.844106-3.361216 3.749049-1.551331 1.034221-3.102662 1.680608-4.783271 1.809886-1.680608.129278-3.231938-.129278-4.783269-.775665-1.551332-.646388-2.714829-1.809886-3.74905-3.231939-1.03422-1.422054-1.55133-2.973384-1.55133-4.653993-.129278-1.680608.258554-3.231938 1.03422-4.653992.775666-1.551331 1.939163-2.714829 3.361217-3.74905 1.422053-1.163497 2.973383-1.809886 4.653993-1.939162zm-4.136883 6.980988c-.387832.775665-.51711 1.680608-.387832 2.585551.129276.904943.387832 1.809886.904943 2.585551.51711.775666 1.292775 1.422053 2.06844 1.809886.775665.387833 1.680608.646388 2.585551.51711.904943 0 1.680609-.258554 2.456275-.775665.775665-.51711 1.292775-1.163497 1.680608-1.939164.387832-.775665.51711-1.680608.387832-2.585551-.129277-.904943-.387832-1.809886-1.03422-2.585551-.51711-.775665-1.292776-1.422053-2.068441-1.809886-.775665-.387832-1.680608-.646388-2.585551-.646388s-1.680608.258556-2.456275.775666c-.646387.646387-1.163497 1.292776-1.55133 2.068441zm22.365019-2.326997c.904943.387833 1.809886.387833 2.714829 0 .904943-.387832 1.551331-.904943 1.939164-1.809886.387832-.904943.258554-1.809886-.129278-2.844105l-3.74905-9.825096 4.395438-1.680608 3.749049 9.825095c.51711 1.422053.775665 2.844106.51711 4.136882-.258554 1.292775-.775665 2.456274-1.680608 3.490494-.904943 1.034221-2.197718 1.809886-3.619772 2.456274-1.551331.517111-2.973384.775665-4.395437.646387-1.422053-.129276-2.585552-.646387-3.619772-1.55133-1.03422-.904943-1.809886-2.068441-2.456274-3.490494l-3.74905-9.825096 4.395438-1.680608 3.749049 9.825095c.387834 1.163499 1.034221 1.939164 1.939164 2.326996zm9.56654-17.193916l15.254756-2.326996.51711 3.878327-5.300384.775665 2.068444 13.961977-4.653995.646389-2.06844-13.961978-5.171104.775666zm20.038026-2.714829l4.65399.258556-.51711 7.239543 7.23954.517111.51711-7.239544 4.654.258555-1.03422 17.969581-4.654-.258554.38784-6.851712-7.23955-.51711-.38783 6.851711-4.65399-.258555zm22.62357 2.456274l13.57415 3.74905-1.03422 3.619772-9.17871-2.585552-.90494 3.231939 8.27376 2.326996-1.03422 3.619772-8.27377-2.326996-.90493 3.231939 9.30798 2.585551-1.03422 3.619772-13.8327-3.878326zm20.42585 27.277566l.12929-5.558934h-.12929l-2.97338-1.68061-2.45627 4.395439-4.13689-2.326997 8.6616-15.642585 7.11027 3.878326c2.06844 1.163498 3.36121 2.456274 4.00761 4.136883.64638 1.55133.38783 3.231939-.51711 5.041824-.6464 1.163499-1.42206 2.068442-2.45627 2.714829-.90495.646388-2.06845.904943-3.23195.904943l.38784 6.980989zm-1.16349-10.60076l2.97338 1.680608c.77567.517111 1.55133.646389 2.327.387833.64638-.129277 1.29278-.646387 1.68061-1.422053.38783-.775666.51711-1.422053.25855-2.197719-.25855-.646387-.77567-1.163498-1.55133-1.680608l-2.97338-1.680608zm28.18251 9.04943l3.23194 2.973384-12.1521 13.186312-2.97338-2.714829 1.1635-13.444867-7.23955 7.885931-3.23193-2.973383 12.02281-13.31559 3.10266 2.714828-1.29277 13.444867zM75.680608 181.94676c.646388 1.55134.517111 3.23195-.387832 5.04183-.904943 1.93917-2.197719 3.10266-3.878328 3.61977-1.680608.51712-3.490494.25856-5.558934-.77566l-2.844107-1.42205-2.197719 4.39543-4.136882-2.06844 8.015209-16.03042 7.110267 3.49049c1.809886.90495 3.231938 2.19773 3.878326 3.74905zm-6.076046 4.654c.646389-.12928 1.163499-.64639 1.680609-1.55133.387833-.77567.517111-1.55133.258555-2.19772-.258555-.64639-.775665-1.1635-1.680608-1.68061l-2.714829-1.29277-2.456274 4.91254 2.714829 1.29278c.775666.51711 1.551331.64638 2.197718.51711zm16.159696 15.25475l-.387833-3.36121-7.498098-2.06844-2.068441 2.71482-4.653992-1.29277 12.152091-15.25475 4.653993 1.29277 2.585551 19.26236zm-5.558935-8.40304l4.78327 1.29277-.646387-6.8517zm25.596957-2.97339c-.77566-.51711-1.55133-.77565-2.32699-.77565-.90494 0-1.68061.12927-2.45628.5171-.77566.38783-1.42206 1.03422-1.80988 1.80988-.51711.77567-.77567 1.68062-.77567 2.58556 0 1.03422.12928 1.80989.51711 2.71483.38783.77566.90494 1.42206 1.6806 1.93916.77567.51711 1.55134.77566 2.45629.77566.77565 0 1.55132-.12927 2.32699-.38783.77566-.38783 1.55133-.77566 2.19772-1.42205l2.58555 3.10266c-1.03423 1.03422-2.19772 1.68061-3.61977 2.19772-1.42206.51711-2.71484.77566-4.0076.64639-1.80989-.12928-3.36122-.64639-4.783277-1.42205-1.422054-.90495-2.456275-2.06844-3.23194-3.4905-.775665-1.42205-1.034221-3.10266-1.034221-4.78327.129278-1.68061.646389-3.23194 1.551332-4.65399.904943-1.29278 2.06844-2.327 3.619766-3.10267 1.55134-.77566 3.10267-1.03422 4.91255-.90494 1.29277.12928 2.58555.38783 3.87833 1.03423 1.29278.64638 2.327 1.42205 3.23194 2.45627l-2.8441 3.10266c-.6464-.90495-1.29278-1.42206-2.06845-1.93917zm6.07605-4.52471l4.65399-.38783 1.6806 17.8403-4.65398.38783zm7.23954-.64639l13.05704-3.10266.90494 3.61977-8.53232 2.06845.90495 3.87832 7.75665-1.80989.90494 3.61978-7.75665 1.80988 1.55133 6.33461-4.52472 1.03422zm14.09126-3.87833l4.39543-1.6806 6.46388 16.67681-4.39544 1.6806zm18.35741-4.13687c-.90494 0-1.68061.25855-2.32699.64638-.77567.51711-1.42205 1.03422-1.80989 1.80989-.38783.77566-.64639 1.55133-.64639 2.45627 0 .90495.25856 1.80989.77567 2.58555.5171.77567 1.16349 1.55134 1.93916 1.93916.77567.51711 1.55133.77567 2.45627.77567.90494 0 1.68061-.25856 2.45627-.64638.6464-.38784 1.16351-.90495 1.68062-1.68061.51711-.77567.90494-1.55133 1.03421-2.45628l3.87833 1.1635c-.38783 1.42205-.90494 2.71483-1.80989 3.87832-.90493 1.16351-1.80988 2.06845-2.97338 2.71483-1.55133.90495-3.10266 1.29278-4.78327 1.29278-1.6806 0-3.23194-.38783-4.65399-1.1635-1.42206-.77566-2.58555-1.93916-3.49049-3.49049-.90495-1.55133-1.29278-3.10266-1.29278-4.654 0-1.6806.51711-3.10265 1.29278-4.52471.90494-1.42205 2.06843-2.58555 3.61977-3.49049 1.16349-.64639 2.45627-1.03423 3.87833-1.29278 1.42205-.12927 2.71482-.12927 4.0076.25855l-.77566 4.13689c-.6464-.12928-1.55134-.25855-2.45628-.25855zM62.106464 97.269962h6.205323v18.486688h10.08365v5.30039H62.106464zm19.13308 0h6.205323v23.787078h-6.205323zm27.019006 0h5.8175v23.787078h-5.42967L97.916351 106.8365v14.22054h-5.817492V97.269962h5.429658l10.859313 14.349808zm10.47148 0h18.74526v4.912548h-12.53992v4.39543h11.37641v4.91255h-11.37641v4.52472h12.92775v4.91254h-19.13309zm35.1635 5.429658c-1.42205-.51711-2.58554-.77567-3.61976-.77567-.77567 0-1.42206.12928-1.80989.38783-.38784.25856-.64638.6464-.64638 1.29278 0 .51711.12927.90495.5171 1.29277.38783.38784.90495.6464 1.42206.90494.51711.25856 1.42205.51711 2.45627.77567 1.6806.51711 2.97338.90495 4.13688 1.42206 1.03422.51711 1.93917 1.1635 2.71483 2.19772.77567 1.03422 1.1635 2.32699 1.1635 3.87833 0 1.55132-.38783 2.97338-1.29278 4.0076-.90494 1.03421-1.93916 1.93916-3.49049 2.58555-1.42205.51711-3.10267.90495-4.91255.90495-1.93917 0-3.87833-.38784-5.94677-1.03423-1.93916-.64639-3.61977-1.6806-5.04183-2.84411L142 112.91254c1.1635 1.03423 2.58555 1.93916 4.26616 2.58556 1.68061.64638 3.10266 1.03422 4.39544 1.03422.90494 0 1.6806-.12928 2.19771-.51711.51711-.38784.77567-.77567.77567-1.55133 0-.51711-.25856-1.03423-.64639-1.29278-.38783-.38783-.90494-.64638-1.55133-.90494-.64638-.25856-1.42205-.51711-2.58555-.77567-1.68061-.38783-2.97339-.90494-4.00761-1.42206-1.03422-.5171-1.93916-1.16349-2.71482-2.06843-.77567-.90495-1.1635-2.19773-1.1635-3.74905 0-1.42206.38783-2.71483 1.1635-3.87833.77566-1.163487 1.93916-1.939157 3.36122-2.585547 1.42205-.646387 3.10265-.904943 5.04182-.904943 1.68061 0 3.36121.258556 5.04183.775665 1.6806.517108 3.10265 1.163498 4.39543 1.939158l-2.327 4.912557c-.90494-.77567-2.32699-1.42206-3.74905-1.80989z"/>
</svg>
