<svg xmlns="http://www.w3.org/2000/svg" width="191.999996" height="191.999996" viewBox="0 0 50.799999 50.799999">
    <g stroke-width=".260004" transform="matrix(3.90756 0 0 3.9077 -307.124542 -146.96932)">
        <ellipse class="color-main color-lime" fill="#79a242" fill-rule="evenodd" cx="85.09771" cy="44.11026" rx="6.500217" ry="6.5"/>
        <path class="color-white" fill="#fff" d="M84.338325 41.162038l-.000519.713651c-.0011.87576-.10292 1.33327-.440282 1.978692-.35773.684389-.812541 1.143836-1.597319 1.614371l-.648022.388606.145211.249082c.07993.137054.233918.406813.342098.598929.104884.186259.21258.336563.246496.345715-.01071.02432.049-.01836.07028-.02635l-.0021-.0026.539504-.310573c.758978-.436928 1.206097-.577686 1.933731-.608232.771564-.03239 1.396878.131823 2.196764.576191 0 0 .442034.24784.660426.366903.02802.01527.04371-.03647.06873-.06666.0366-.05015.208725-.316404.379307-.608748l.310576-.531752-.591696-.345199c-1.003136-.586007-1.612768-1.279504-1.941483-2.209683-.132281-.37432-.164574-.595093-.190688-1.28726l-.03152-.835091H85.0628zm.584459 1.758033h.349851v1.292426l.65319-.001-.31936.555522 1.122929.64957-.180351.312645-1.122931-.649057-.324009.562755-.327112-.564306-1.133782.654741-.175183-.30334 1.133263-.65474-.325043-.561208.648538-.001z"/>
    </g>
</svg>
