<svg xmlns="http://www.w3.org/2000/svg" width="240" height="238.98843" viewBox="0 0 240 238.98843">
    <g transform="translate(15.953757 15.375723) scale(1.44509)">
        <circle class="color-yellow" fill="#f5eb15" cx="72" cy="72" r="66.5"/>
        <path class="color-brightGreen color-main color-reserved-white" fill="#19aa4b" d="M71.8 3.2c19.5 0 35.9 6.6 49.3 19.9 13.4 13.2 20.1 29.6 20.1 49.1 0 19.3-6.7 35.6-20.2 48.8-13.4 13.2-29.9 19.9-49.2 19.9-19.3 0-35.6-6.6-49-19.9-13.3-13.4-20-29.6-20-48.9 0-19.4 6.7-35.8 20-49C36 9.8 52.4 3.2 71.8 3.2zm.1 2.9c-18.5 0-34.1 6.3-46.8 18.9-12.7 12.6-19 28.2-19 46.7 0 18.5 6.3 34.1 19 46.8 12.7 12.7 28.3 19 46.8 19 18.5 0 34-6.4 46.7-19.1 12.7-12.7 19-28.3 19-46.8 0-18.5-6.3-34.1-19-46.7C106 12.4 90.4 6.1 71.9 6.1zM22.6 98.5c-.4-2.8-1.1-4.2-2.2-4.2-.2 0-.3 0-.5.1-.3.2-.5.4-.6.7v1.5l.1.9v1c.1.2.1.5.1.7 0 1-.5 1.7-1.4 2.1-.5.2-.9.3-1.3.3-1.2 0-2.2-.9-2.9-2.6-.3-.5-.6-1.5-.8-3.1l1.4-.5c0 2.6.5 4.2 1.5 4.7.2.2.5.3.8.3.6 0 1-.3 1.2-.8.1-.2.1-.8.1-1.7L18 97v-1c0-1.4.5-2.3 1.4-2.7.3-.2.7-.3 1-.3.4 0 .8.1 1.1.3 1.3.7 2.1 2.3 2.4 4.7zm2.1.6l3.6 5.3-.8.7-2.7-4.1-2.5 1.6 2.5 3.5-.9.6-2.4-3.5-2.7 1.8 2.9 4.3-.8.7-3.9-5.6zm46.9-76.9c14.2 0 26 4.8 35.7 14.4 9.6 9.6 14.4 21.4 14.4 35.5 0 14-4.8 25.8-14.5 35.4-9.7 9.6-21.5 14.4-35.6 14.4-13.9 0-25.7-4.8-35.3-14.4-9.6-9.6-14.4-21.4-14.4-35.3 0-14 4.8-25.9 14.4-35.5 9.5-9.7 21.3-14.5 35.3-14.5zm-42.9 83.1l1.8 1.9c1 1.4 1.5 2.3 1.5 2.9 0 1.2-.7 1.9-2.1 2.2-.2.1-.3.1-.5.1-.5 0-1-.1-1.5-.3l-.8 5.3-1.3-1.3.8-4.9-.8-.8-2.9 2.8-1-1.2zm-1.8-77.6l-2.3 2.2-.7-.7 5.6-5.3.6.8-2.3 2.1 5.4 5.9-.8.8zm44.7-3.1c-13.3 0-24.5 4.6-33.6 13.8-9.1 9.2-13.6 20.4-13.6 33.7 0 13.2 4.6 24.4 13.7 33.6 9.1 9.1 20.3 13.7 33.5 13.7 13.3 0 24.6-4.6 33.8-13.7 9.2-9.1 13.8-20.3 13.8-33.6 0-13.4-4.6-24.6-13.7-33.8-9.2-9.1-20.5-13.7-33.9-13.7zM27 108.7l1.9 2.2h.3c.9 0 1.4-.5 1.4-1.6l-1.8-2.2zm6.4 1.6l1.1 1-2.7 7.6 7.3-3.7.9.8-9 4.7-1.1-.9zm-2-87.9l1-.8 2.1 3.2 3.6-2.5-2.1-3 1-.8 5.1 7.4-1.1.6-2.3-3.5-3.6 2.5 2.5 3.5-1.1.8zm8.8 93.6l5.5 3.2-.6.9-4.2-2.5-1.5 2.4 3.6 2.2-.6.8-3.5-2-1.7 2.8 4.4 2.6-.5.9-5.8-3.4zm29.7-78.8v19.7h-9.4v-5.8c-6.6 2.4-10 6.9-10.4 13.4h20v42.2c-19-2.5-30.1-11.9-33.3-28h13c.6 6.6 4.2 10.4 10.6 11.5v-16H36.8c.5-23.1 11.6-35.5 33.1-37zM40.2 16.7l4.6-2.2.3.8-3.3 1.7 1.3 2.5 2.9-1.4.3.8-2.8 1.5 1.4 2.9 3.7-1.9.4.8-4.8 2.4zm11.6 106.6c-.9-.8-1.7-1.4-2.5-1.7-.5-.2-.9-.3-1.3-.3-.5 0-.8.3-1 .8-.1.2-.1.3-.1.5 0 .1 0 .2.1.3.3.6.6 1 1 1.3l.8.5.7.7c.8.8 1.2 1.6 1.2 2.3 0 .2-.1.5-.2.8-.3.8-.9 1.3-1.7 1.5-.3.1-.6.1-.8.1-1.4 0-3-.7-4.8-2.1l.6-1.3c1.5 1.5 2.8 2.3 3.8 2.3.2 0 .3 0 .5-.1.5-.1.8-.3 1-.8.1-.2.1-.3.1-.5s0-.3-.1-.4c-.2-.2-.6-.7-1.2-1.4l-.7-.7c-.8-.6-1.3-1.2-1.4-1.8-.2-.2-.3-.5-.3-.7 0-.3.1-.6.3-.8.2-.7.7-1.2 1.5-1.5.2-.1.4-.1.7-.1 1 0 2.5.6 4.3 1.9zm1.3-104.2c.8.1 1.5.2 2.1.2h.6c.8-.5 1.3-1 1.3-1.6v-.3c-.3-.5-.9-1-1.9-1.4l-.8-.1c-1.6-.3-2.5-1-2.6-2-.1-.2-.1-.4-.1-.6 0-.5.1-.9.4-1.3.5-1 1.8-1.4 3.7-1.4l.3 1.3c-.5-.1-.9-.1-1.3-.1-.3 0-.6 0-.8.1-.8.1-1.3.5-1.3 1 0 .2 0 .3.1.5.1.6.7 1 1.9 1.1l.7.3c.7.2 1.3.4 2 .7.3.3.6.7.8 1.4.1.2.1.4.1.6 0 .5-.2 1-.5 1.4-.6 1-2.1 1.5-4.4 1.5zm11.1-.5c-.3.1-.7.1-.9.1-2.3 0-3.5-1.4-3.7-4.2-.1-.5-.2-1-.2-1.4 0-2.2 1.2-3.5 3.7-3.8.3-.1.5-.1.8-.1 2.2 0 3.5 1.4 3.9 4.3.1.4.1.8.1 1.1 0 1-.3 1.8-.8 2.4-.7.9-1.7 1.4-2.9 1.6zm-.7 106.9l-3.6-.2.1-1 8.7.5-.2 1-3.6-.3-.6 8.4-1.4-.1zm.6-107.8c1.6-.3 2.4-1.6 2.4-3.7v-.4c-.3-1.2-.7-2.1-1.1-2.6-.6-.5-1.2-.8-1.9-.8h-.3c-1.6.2-2.5 1.4-2.5 3.6v.4c.4 2.4 1.3 3.6 2.8 3.6.2 0 .4-.1.6-.1zm5.2 106.9h1.5v4.1h3.9v-4.1h1.4v9.4h-1.4v-4.3h-3.9v4.3h-1.5zM71.9 9l-.4 5.7v.4c0 1.5.7 2.3 2 2.3h.4c1 0 1.5-.8 1.6-2.4l.4-5.8 1.1.2-.3 5.6c0 .4-.1 1-.4 1.9-.3 1-1.3 1.5-2.8 1.5h-.3c-1.1-.1-1.9-.4-2.3-1.1-.5-.5-.7-1.2-.7-2.4v-.4l.3-5.6zm1.7 97.8V37.3c21.2 1.4 32.2 13.4 33 35.8H96l7 13.8c-1.6 4.6-4.3 8-8.2 10.4L84.3 74.7v29.6c-3.2 1.5-6.8 2.3-10.7 2.5zm3.8 17.3l6.3-.8.2 1-4.9.7.4 2.8 4.2-.7.2 1.1-4.2.6.6 3.3 5.3-.8.1 1.1-6.6 1zm5.2-112.9l-3.1-.7.3-1 7.5 1.8-.3.9-3.1-.7-1.8 7.8-1.3-.3zm2.1 39.1v14.2h11.1c-.9-7.5-4.6-12.3-11.1-14.2zM89.6 12l1.1.4-1.4 3.6 4.1 1.5 1.3-3.6 1.3.5-3.2 8.4-1.2-.5 1.6-3.9-4.1-1.5-1.5 3.9-1.2-.4zm8.1 106.8c-1.1.1-2 .3-2.8.7-.8.5-1.3 1-1.3 1.5 0 .6.3 1 .9 1.3.6 0 1.1 0 1.4-.1l1-.2.8-.1h.4c1.1 0 2 .4 2.5 1.2.1.4.2.8.2 1.3 0 .4-.1.8-.2 1.1-.7 1.4-2.5 2.4-5.3 2.9l-.6-1.2c1.4-.1 2.6-.3 3.4-.7.9-.4 1.3-1 1.3-1.9 0-.6-.3-1-.8-1.3h-1.8l-.9.3c-.4.1-.7.1-1 .1-.6 0-1-.1-1.3-.3-.5-.1-.9-.4-1.2-1.1-.2-.4-.3-.8-.3-1.2 0-.3.1-.6.2-.8.4-.7 1-1.3 2-1.7.6-.4 1.4-.7 2.6-.9zm1.6-102.6l4.4 2.5-.6.8-3.1-1.8-1.4 2.5 2.7 1.5-.5.8-2.6-1.5-1.7 2.8 3.5 2-.4.8L95 24zm-.1 101.5c.1-2.5 1.3-3.7 3.7-3.7.3 0 .7 0 1.1.1 1 .5 2 1.2 3 2.3.8 1.2 1.3 2.2 1.3 3.1v.3c-.3 2.5-1.6 3.7-3.8 3.7-.3 0-.6-.1-.9-.2-2.9-.6-4.3-2.4-4.3-5.5v-.1zm4.8 4.5c.2.1.5.2.7.2.5 0 .9-.2 1.3-.5.7-.5 1-1.1 1-2-.3-2-1.5-3.5-3.5-4.4-.3-.1-.6-.2-.8-.2-.5 0-.9.1-1.3.4-.6.4-.9.9-.9 1.5 0 .1 0 .3.1.4-.1 2.4 1.1 4 3.4 4.6zm2.1-101.8l2.1 1.5c.6.6 1 1.2 1.2 1.8.1.3.1.5.1.8 0 1.1-.6 1.7-1.9 1.8-.2.1-.5.1-.8.1-.3 0-.6 0-.8-.1l-.2 5.2-1.3-1 .3-4.6-.8-.7-2.5 3.1-1-.8zm-1.2 4.3c.5.5 1 .7 1.6.7.5 0 1-.2 1.4-.7.2-.3.3-.6.3-.8 0-.5-.3-1-1-1.5l-.7-.5-2 2.5zm1.1 86.2l3.7 4.3c.6.8 1.1 1.2 1.7 1.3.2.1.3.1.5.1 1.2 0 1.9-.6 1.9-1.7v-.4c0-.6-.3-1.3-.9-2l-3.8-4.3.9-.8 3.7 4.1c.7.7 1.1 1.5 1.3 2.2.1.3.1.5.1.8 0 .9-.4 1.7-1.2 2.5-.8.6-1.5.9-2.2.9-.1 0-.3 0-.4-.1-.8-.1-1.6-.6-2.5-1.6l-3.7-4.2zm7.2-84.7l.8.8-1.9 8.2 5-4.8.8.8-6.5 6.2-.9-.9 2-8.1-5 4.9-.8-.8zm.2 78.9l-2.3 2.8-.8-.8 5.5-6.7.8.8-2.2 2.7 6.5 5.3-.9 1.1zm2.4-5.4l1-1.1 3.3 2.3 2.3-3.2-3.4-2.4.8-1.2 7.6 5.4-.8 1.1-3.3-2.4-2.4 3.2 3.5 2.5-.8 1.2z"/>
    </g>
</svg>
