<?xml version="1.0" encoding="UTF-8" standalone="no"?>
<svg
   xmlns="http://www.w3.org/2000/svg"
   id="svg4446"
   version="1.1"
   viewBox="0 0 50.799999 50.799999"
   height="50.799999mm"
   width="50.799999mm">
  <g
     transform="translate(-82.701192,-57.665475)"
     id="layer1">
    <g
       transform="matrix(3.9075616,0,0,3.9076922,-224.42335,-89.303845)"
       id="g4014"
       style="display:inline;stroke-width:0.26000434">
      <ellipse
         style="fill:#79a242;fill-opacity:1;fill-rule:evenodd;stroke-width:0.06879281"
         id="path3892"
         cx="85.09771"
         cy="44.11026"
         rx="6.5002174"
         ry="6.5" />
      <path
         style="fill:#ffffff;fill-opacity:1;stroke-width:0.26000434"
         d="m 84.338325,41.162038 -5.19e-4,0.713651 c -0.0011,0.87576 -0.10292,1.33327 -0.440282,1.978692 -0.35773,0.684389 -0.812541,1.143836 -1.597319,1.614371 l -0.648022,0.388606 0.145211,0.249082 c 0.07993,0.137054 0.233918,0.406813 0.342098,0.598929 0.104884,0.186259 0.21258,0.336563 0.246496,0.345715 -0.01071,0.02432 0.049,-0.01836 0.07028,-0.02635 l -0.0021,-0.0026 0.539504,-0.310573 c 0.758978,-0.436928 1.206097,-0.577686 1.933731,-0.608232 0.771564,-0.03239 1.396878,0.131823 2.196764,0.576191 0,0 0.442034,0.24784 0.660426,0.366903 0.02802,0.01527 0.04371,-0.03647 0.06873,-0.06666 0.0366,-0.05015 0.208725,-0.316404 0.379307,-0.608748 l 0.310576,-0.531752 -0.591696,-0.345199 c -1.003136,-0.586007 -1.612768,-1.279504 -1.941483,-2.209683 -0.132281,-0.37432 -0.164574,-0.595093 -0.190688,-1.28726 L 85.787819,41.16203 H 85.0628 Z m 0.584459,1.758033 h 0.349851 v 1.292426 l 0.65319,-10e-4 -0.31936,0.555522 1.122929,0.64957 -0.180351,0.312645 -1.122931,-0.649057 -0.324009,0.562755 -0.327112,-0.564306 -1.133782,0.654741 -0.175183,-0.30334 1.133263,-0.65474 -0.325043,-0.561208 0.648538,-10e-4 z"
         id="path3923" />
    </g>
  </g>
</svg>
