<svg xmlns="http://www.w3.org/2000/svg" width="192.006471" height="196.128" viewBox="0 0 50.801712 51.8922">
    <g class="color-main color-blue" fill="#2b4a84" stroke-width=".00441">
        <path d="M24.071029 49.293593c-.163689-.023997-.654758-.088489-1.091264-.145781-4.217635-.555168-9.709066-2.856767-12.329845-5.167755-1.158026-1.021157-3.218277-3.21741-4.03358-4.299819-.593148-.787487-1.197749-1.817013-1.115406-1.899352.030236-.030296.339855.014998.687996.103787.381409.095687 1.050289.158679 1.683005.158679 1.047091 0 1.052565-.00159 1.946698-.448892 1.470372-.736073 2.176249-1.785276 2.067345-3.072918-.140232-1.658064-.865417-3.874804-1.974744-6.036382-.477292-.930029-1.337286-2.019636-1.781807-2.257505-.210872-.112786-1.128272.110685-1.527484.372341-.494378.323928-.636844 1.641236-.22578 2.087698.249327.270864.91782.619719 1.194302.623348.41807.006 1.041527-.865147.900813-1.257916-.023397-.065691-.250828-.14908-.505164-.185675-.254337-.036596-.609806-.126584-.789923-.200074-.292072-.119085-.315349-.15628-.215222-.343425.143651-.268465.748156-.522772 1.057677-.445082.131323.032995.401698.209372.600821.391719.36007.329986.362263.336916.399482 1.261785.034766.863947.017398.968693-.242908 1.475597-.401309.781158-.899718 1.029496-1.896577.945087-2.263274-.191675-3.561528-1.23344-4.083121-3.276412-.092838-.363643-.123764-1.502384-.115845-4.265863.012298-4.328045.200344-12.074954.295041-12.161372.035156-.032096.524005-.176077 1.086398-.320269 2.097846-.53753 3.874933-1.393798 6.687138-3.222149.814496-.52952 2.113902-1.37475 2.887564-1.878234 2.436948-1.585983 4.00424-2.312249 6.265384-2.903351 2.030744-.530871 3.420045-.726565 5.16106-.726925 3.106664-.00066 5.335787.585133 10.717139 2.816362 1.423674.590293 2.831318 1.159558 3.128102 1.265025.296781.105586.88558.313429 1.308444.46212.42287.14878.768845.30623.768845.350084 0 .043794-.54687.653794-1.21527 1.355433-2.044617 2.14628-2.288243 2.52411-2.44801 3.796544-.211773 1.68665.425599 3.75515 1.628996 5.28666.669663.852248 1.049185 1.014287 2.381503 1.016867.885035.00159 1.216057-.041095 1.75157-.22617.771884-.266666 1.597952-.813645 2.371806-1.570296.523156-.511523.560336-.53042.712353-.362442.238199.263065.733764 1.415185 1.171263 2.722714.679597 2.031065 1.086224 4.509131 1.086224 6.619596v1.088048l-.52083.193474c-.286463.106486-.667426.22497-.846607.263666-.439998.094787-.59464.370451-.670044 1.193904-.087618.956815-.598227 3.631986-.842623 4.414643-.310474.99428-.691028 2.597271-.69117 2.91142-.000104.212972.15754.445802.63991.945447l.640035.662943-.466427.865447c-.762383 1.414556-1.619743 2.52681-3.016895 3.9138-2.41978 2.402205-4.887244 4.173294-7.413229 5.321094-3.045547 1.38384-4.816543 1.75768-8.53819 1.802285-1.28223.014998-2.465264.008999-2.628952-.011998zm-6.96582-5.652582c.666537-.30419 1.249502-.589573 1.295477-.634177.091278-.088789-.07181-1.877305-.283553-3.108944-.128203-.745973-.063082-1.358583.144371-1.358583.040645 0 .243658.390639.451291.868057.877449 2.017746 1.046003 2.311168 1.720342 2.994569 1.384643 1.403306 3.344797 1.824991 5.229889 1.125063.710997-.263966.659983-.38608-.193655-.46341-1.40627-.127483-2.62889-.647075-3.341546-1.420224-.723874-.785298-1.250707-2.198863-1.341745-3.60007l-.048324-.744053.50206-.38914c.33819-.262165.589917-.568725.771259-.939387l.269214-.550248.066682.393759c.036655.216572.114975.84706.173977 1.401117.183246 1.720635.71717 2.709366 1.65684 3.06821.41199.157479.485258.157779 1.101144.005998.95047-.234569 1.464397-.569025 1.81949-1.184095.483975-.8383.684973-1.650924.806052-3.258834l.111046-1.474518-.276864-.421235c-.767591-1.167927-1.486333-1.7605-2.135337-1.7605-.486537 0-1.184978.283763-1.56538.636157-.181895.168578-.515014.585314-.740281.92634-.546403.827171-.758442.83635-1.054162.045593-.285113-.76241-.860551-1.512192-1.348357-1.75687-.34815-.174578-.57968-.197075-1.933211-.187176-1.332231.008999-1.61411.040495-2.10967.23097-1.158155.444932-1.399437.861517-1.245152 2.14979.06824.570045.190085 7.200469.180666 9.835235-.000198.06809.023397.123884.052553.123884.029097 0 .598338-.248968 1.264875-.553038zm23.765282-4.461528c.213602-.468808.144701-.895263-.190115-1.176986-.167888-.141281-.385069-.256766-.48265-.256766-.261805 0-.70021-.38128-.70021-.60898 0-.321349.189605-.581385.425117-.583035.350936-.00237.484631-.14368.56803-.599621.097517-.53321.07802-.577185-.40538-.912571-.449704-.31205-.683502-.711927-.514861-.880595.058972-.059092.403615-.131083.765899-.16018l.658687-.052792-.029397-.505374-.029396-.505404-.892596-.319819c-.490928-.175777-1.12416-.348764-1.407191-.38413l-.514601-.064191-.07382.38266c-.106127.549978-.08228 5.385557.028196 5.73975.084949.272065.194464.333167 1.277992.712467.651797.22827 1.23373.417906 1.293173.421625.059452.003.15988-.106786.22323-.245968zm-9.326607-.493345c.4451-.134083.550947-.212972.671186-.500665.34311-.821173.536171-2.228259.693986-5.0577.07904-1.417854.023397-1.533729-.735033-1.53151-.689316.00237-.891837.08279-.954463.380741-.030386.144581-.122024 1.1556-.203703 2.246857-.08165 1.091257-.175417 2.154618-.208353 2.363031-.108496.68661-.509109.564526-.73998-.22557-.056512-.193475-.139451-1.238329-.184295-2.321877-.061972-1.498455-.114345-1.99147-.218702-2.059321-.121454-.07889-1.165852-.020998-1.268231.07199-.104867.093888.194014 4.89863.338746 5.44546.29636 1.119783.733422 1.482765 1.685122 1.399556.32738-.029996.833037-.123584 1.123687-.211172zm4.42957-.37963c.029096-.172178.095927-1.199604.14872-2.283392.058162-1.194024.140712-2.024496.209523-2.107435.062451-.07529.281723-.182076.487277-.23757.539296-.14518.632686-.30293.565408-.954774-.031436-.30482-.083419-.580425-.115425-.61246-.110235-.110086-1.49349-.318229-2.534636-.38113-1.297135-.07829-1.373547-.026997-1.203026.823032.126674.630667.251517.827712.52453.827712.302276 0 .377752.38518.482919 2.464508.109425 2.163737.14536 2.428693.35272 2.60078.170018.140982.736233.275664.907964.215672.066741-.023997.145031-.182976.174037-.355154zm-9.603043-8.393894c1.333494-.110386 1.944355-.342226 2.505693-.951206.531744-.576855.70914-1.033995.772828-1.99156.07874-1.183166-.016798-1.630977-.477924-2.242627-.5506-.730195-.565538-.862718-.189246-1.679091.368562-.799606.491045-1.730024.302832-2.30031-.15541-.470848-.811163-1.024096-1.43262-1.208662-1.062397-.315499-2.3307-.143681-4.782506.647496-.801018.258566-1.131047.22197-1.32835-.146681-.257366-.480867-.734321-.22557-.677836.362862.029996.31277.054683.331577.502345.38302.593862.068391.687609.165879.779538.811574.112245.788447.101717 6.151507-.014098 7.162045-.069681.6082-.069291.91701.00159.987561.239578.239669 2.18093.319129 4.038006.165579zm12.195862-1.032646c.006299-.005999.036745-.426304.06794-.931168.055944-.904382.053574-.91728-.159998-.874296-.119235.023997-.399356.068091-.622488.098087l-.405697.054593-.064432-2.795125c-.035395-1.537299-.098417-2.82605-.139931-2.863816-.041515-.037795-.482943-.090288-.980908-.116985l-.905393-.048293-.061042.507683c-.033566.279264-.061432 1.92254-.061822 3.651844-.000795 3.007347.0078 3.150068.192965 3.279891.15001.104987.525576.126284 1.661699.093288.807335-.023997 1.472919-.048294 1.479077-.055793zm3.476972-2.046932c.063321-1.118554.119144-2.287472.124004-2.597601.008698-.549378.019797-.571156.430458-.84658.419981-.281663.421742-.285262.451165-.957954.016198-.371382-.017097-.731305-.07388-.799816-.131293-.15808-2.368719-.272664-3.305673-.169178-.849843.093888-.98916.22767-1.045265 1.00325-.046344.640955.063412.895592.38611.895592.100547 0 .340617.138582.533483.30791l.350672.30788.000792 2.048252c.001587 2.29698.047844 2.76171.283913 2.827281.088789.023997.51857.038095.955075.029996l.793646-.014998.115185-2.033704zm-8.207178 1.888493c.220052-.117885.352031-.956545.209493-1.331406-.091518-.240869-.142451-.259466-.703972-.259466-.536759 0-.63816-.032996-.895302-.290062-.514943-.514943-.378644-.69588.681193-.904322l.623963-.122684-.028796-.755182-.028796-.755151-.628553-.06929c-.727195-.08009-.90914-.195575-.90914-.577036 0-.342705.132823-.395288.998291-.395288.799393 0 .817994-.026996.767915-1.094347l-.030086-.641766-.496027-.049494c-.272815-.026996-1.101747-.035095-1.842078-.017997l-1.346056.032095.0072 3.60889.007198 3.608888.396821.036895c.877083.08189 3.049951.065691 3.217452-.023997zm-19.640499-3.52799c1.245357-.257066 2.187012-.647285 2.187012-.90603 0-.073191-.011099-.132584-.024897-.131984-.013798.00069-.270325.067192-.570436.147581-.731478.196174-2.587039.196174-3.23098-.00051-.269065-.08219-.69968-.30461-.956899-.494395-.53741-.396579-1.86683-1.953705-2.16209-2.53245-.336404-.659404-.601587-1.957964-.658103-3.222629-.050243-1.124913-.036835-1.242348.244798-2.132901.572935-1.812004.84786-2.209272 2.32279-3.356472 1.391841-1.082589 1.596133-1.322287 2.677438-3.14152 1.089604-1.83318 1.19953-2.035084 1.140367-2.094236-.023997-.023997-.351213.14398-.727282.373001-.376061.22917-1.331074.725005-2.122244 1.102026-.791162.37702-1.79014.893793-2.219947 1.14837-1.361778.806625-2.716653 2.53056-3.365567 4.282331-.667674 1.802375-.703561 1.99318-.70902 3.769818-.0048 1.45688.020397 1.712476.22524 2.324306.580823 1.733924 1.75457 3.380139 3.026674 4.245046.60338.410226 1.295192.749572 1.802555.884164.469156.124484 1.775276.014998 3.120498-.263665zm.380647-4.43927c1.265034-.585193 2.213147-2.37224 2.222464-4.189042.0087-1.712117-.581924-3.289341-1.458958-3.895502-.478786-.330917-.519394-.340605-1.25263-.29876-1.326277.07559-2.20948.68133-2.860982 1.962193-.626237 1.23116-.832511 2.689389-.563941 3.98663.285442 1.37871.688377 1.962763 1.652973 2.396027.858686.38566 1.487484.396368 2.261074.038394zm5.165194-1.811703l.432253-.175177-.08405-2.341104c-.119924-3.340274-.136002-3.110924.242969-3.464938.31929-.29816.323951-.315259.295311-1.0777l-.029096-.774648-1.091263.011998c-.904676.009-1.218477.055193-1.835308.271165-.409218.143381-.799842.336676-.86805.429814-.072051.098387-.124004.468659-.124004.883685v.714356l.470266.085789c.7231.131983.749728.23337.830886 3.159727.037855 1.364102.07301 2.497414.07826 2.518532.023996.097787 1.296334-.08399 1.681808-.24027zm4.489952-1.22711c.195994-.240868.274434-1.157069.286822-3.350472.0048-.882755.045804-1.732964.090588-1.889303.044845-.15628.22713-.429904.405091-.607871.302904-.30287.319768-.355544.264236-.824532-.101447-.856629-.203403-.889024-1.976559-.628088-1.595444.234869-1.543571.215072-1.657841.626618-.055703.200674-.101567.569595-.101867.820003-.000492.38704.035875.471898.242218.565936.484686.220771.522172.403777.64225 3.13486.062151 1.412846.133842 2.60261.159369 2.643915.082189.132883 1.47635-.283163 1.64569-.491066zm4.590252-.401167c.512084-.118785 1.182224-.784398 1.553236-1.542699.690585-1.411496.526753-3.327405-.431853-5.05032-.422339-.759081-.767879-.951656-1.707554-.951656-1.247684 0-2.004911.61012-2.436933 1.963514-.167438.524511-.212942.91758-.214892 1.855917-.002382 1.111745.018598 1.242918.31563 1.983521.553063 1.37883 1.050314 1.8366 1.991213 1.83318.300102-.00081.719123-.042294.931162-.091487zm3.967231-.215972c.319228-.145481.381061-.427744.309086-1.411136-.070401-.961464.039445-1.242198.34407-.879365.104716.124784.263995.479967.35395.789407.246029.84625.597202 1.478447.860471 1.548968.125414.033595.374237.061792.552918.062391.258086.00078.344766-.050993.421625-.253166.132733-.349125.127843-6.248095-.0057-6.497032-.211442-.395078-.971272-.61324-1.377905-.395618-.141792.07589-.191165.278063-.246358 1.009398-.07271.962904-.113055 1.117984-.266425 1.023196-.170738-.105586-.585662-1.022596-.696512-1.539459-.094248-.439532-.15355-.526191-.44265-.646985-.368822-.15418-.914595-.181177-1.113238-.055193-.197644.125384-.294172.621969-.195695 1.006878.048894.191075.123644 1.646095.166209 3.233608.042534 1.587513.109275 2.937937.14821 3.000958.090678.146681.867892.14878 1.187683.003z"/>
        <path d="M24.567056 51.83621c-3.607416-.236668-6.760613-1.107995-10.662615-2.946755-1.888997-.890133-2.781189-1.52671-5.641927-4.025414-1.98992-1.738123-4.754568-5.118921-5.618215-6.870363-.295972-.600191-.551346-1.173087-.56753-1.273123-.033025-.203974.301206-.415026 1.260247-.796037.32738-.130183.939075-.38398 1.359312-.564226l.764075-.327707.664494.337276c.512276.260066.818275.345975 1.335765.37522.822534.046495 1.585959-.180575 1.887203-.561526.261446-.330527.214562-.946646-.125203-1.646005-.258447-.53198-.102407-.509123-1.794657-.263065-1.99834.290662-4.624625-.61198-5.67504-1.950346-.684124-.871626-.939645-1.427873-1.146762-2.496274-.362737-1.871245-.505014-3.44295-.580212-6.409503-.0743-2.930317.024297-14.305672.124754-14.406219.028197-.026996.712218.00012 1.519713.063292 1.058472.08279 1.744998.085789 2.460218.011999 1.78541-.187476 2.42743-.45894 4.733352-2.00113.809823-.541608 1.849889-1.207701 2.311268-1.480216.461378-.272364 1.39284-.867787 2.069915-1.322797C15.688905 1.641035 17.696717.83945 20.676645.316408c1.769214-.31052 1.870547-.317148 4.832879-.316368 3.02487.00081 3.02623.00081 4.513864.317778 2.055995.437913 2.783049.69309 5.009892 1.75837 2.347614 1.123054 3.675138 1.643516 5.224139 2.048133 1.12435.293662 1.241538.30509 2.737127.265465.859376-.023996 1.56249-.005999 1.56249.036596 0 .042894-.159879.715946-.355282 1.495934-.23244.92781-.463968 1.60332-.669642 1.953765-.178206.30365-.96354 1.184426-1.813362 2.033705-.824448.823962-1.628013 1.721325-1.785703 1.99414-.270744.468418-.286702.559486-.286702 1.636885 0 1.049833.022197 1.186196.278933 1.708907.377252.76826.730846 1.005349 1.569887 1.052773.364546.020997.816632-.011999 1.004647-.07529.826842-.272965 1.8126-1.488316 2.52346-3.111464.244078-.557327.487688-1.057962.541324-1.112525.133662-.135882 1.395532 1.192525 1.97882 2.083318.56983.870247 1.471413 2.630897 1.876468 3.664472 1.19131 3.039893 1.826123 10.002523 1.023644 11.227264-.16147.246567-.516569.38428-1.242366.482277-.450022.060892-.469823.07769-.61621.52886-.174817.5387-.999724 3.859087-1.094806 4.406755-.084199.485067.132103.898503.636847 1.217121.81086.511883.808989.983902-.010198 2.584733-1.148811 2.244876-2.131672 3.716964-3.421672 5.12495-1.893004 2.0661-5.25309 4.808522-6.933636 5.659031-1.685285.852939-4.597737 1.930068-6.696392 2.476597-1.49953.390519-1.584459.401168-3.422598.428794-1.0367.014998-2.42062-.006-3.075381-.049793zm5.351178-1.789866c2.895498-.499854 6.157719-1.721505 8.257643-3.092356 1.024693-.668942 3.527743-2.700907 4.664046-3.786255.505284-.482637 1.145802-1.183886 1.423389-1.558327.502194-.677401 2.508827-4.092785 2.631232-4.478445.050004-.15748-.06953-.337156-.541426-.813314-.351188-.354344-.605624-.697679-.605624-.817273 0-.209373.831464-4.773847 1.178477-6.469525.104356-.509934.23463-.972053.289522-1.026946.054833-.054893.405496-.161979.779179-.23817.373673-.07619.786422-.185375.917217-.242367l.237809-.103787-.059063-2.054012c-.063411-2.206272-.22617-3.51434-.613554-4.930966-.45933-1.67972-1.608657-4.44449-2.111044-5.078187l-.172117-.217171-1.378698 1.027636c-1.553761 1.158088-2.4284 1.60962-3.291194 1.699068-.89749.092988-1.333971-.068091-1.89653-.699989-1.01487-1.140001-1.604166-2.460069-1.690999-3.787995-.100277-1.53337.4196-2.557886 2.158083-4.252845.447713-.436503 1.119439-1.090058 1.492737-1.45238.713187-.69216.9147-1.091558.672815-1.333446-.07706-.07709-.656806-.249568-1.288343-.38326-1.716094-.363403-3.122872-.851499-6.08733-2.112024-4.903688-2.085118-5.931294-2.342334-9.37495-2.346624-2.447635-.003-3.661357.123584-6.063305.632797-2.22082.470759-3.462892 1.087059-7.150515 3.548117-2.944184 1.964894-5.056029 3.305089-5.787579 3.67284-.974558.489897-1.850284.69576-3.20815.754252-.67514.029996-1.255492.08069-1.289676.114885-.102496.102287-.128263 11.747786-.033895 15.32338.098627 3.736791.096707 3.726742.909526 4.73761.687282.854709 2.323932 1.516092 3.785797 1.52986.656266.006.721168-.014997 1.60122-.53828.949986-.564165 1.512556-.868116 1.606744-.868116.029996 0 .054533.069291.054533.15388 0 .08459.174427.564526.3876 1.06645.774268 1.823013.937099 2.99268.528204 3.794175-.22296.437073-.80682 1.015578-1.518174 1.504304l-.453567.31163-1.336302-.089089c-.734973-.048894-1.52978-.15718-1.766238-.240569-.790004-.278663-1.595585-.114585-1.595378.325158.000357.772909 2.196073 3.928647 3.756436 5.398815.863498.813584 3.063041 2.628377 4.212413 3.475586 1.634484 1.204793 4.208622 2.36954 7.25916 3.284691.983479.295162 2.713476.657904 4.265848.894813.163689.023997 1.38869.023997 2.722223-.00159 1.754555-.033895 2.727826-.099287 3.521807-.236369z"/>
        <path d="M13.3817 18.501594c-.388228-.30539-.59845-.936058-.597658-1.792986.001587-1.60485.835853-2.36945 1.67257-1.53274.2262.22617.239459.30455.239459 1.415185 0 1.086938-.017998 1.200173-.239339 1.500104-.267085.362023-.54759.599082-.714528.603821-.060862.00159-.22308-.085188-.360505-.193474zm14.18069-3.353682c-.448166-.495236-.608132-1.627138-.316324-2.238308.179377-.375701.711297-.759051 1.053192-.759051.451537 0 .598638.204573.655409.91185.045234.563477.016198.731005-.214052 1.23386-.439815.960684-.826551 1.240218-1.178225.851649zm-2.477488 8.152065c-.039295-.039295-.07142-.413406-.07142-.831401v-.759951l.656695-.120884c.585574-.107986.6769-.102587.843247.047993.247647.224071.235499.53216-.036986.936508-.3188.473038-1.190454.929099-1.391533.728005zm-.035299 4.064829c.034675-.253167.063082-.735324.063082-1.07149v-.6112l.61044-.219571c.5556-.200074.631043-.206073.839765-.069291.126134.082489.281903.248667.346182.368622.15475.289162.14923 1.167417-.009299 1.472987-.278273.53651-.385155.590383-1.171152.590383h-.742154zm-.488643 10.268109c-.214801-.476307-.246237-1.98862-.048953-2.357152.277944-.519322 1.18926-.790307 1.39088-.413586.15472.289162.128713 2.133112-.035636 2.52648-.165788.396788-.504789.654635-.860732.654635-.209372 0-.29678-.08039-.445522-.410377zm-6.034836-1.53226c-.033086-.086388-.060232-.622028-.060232-1.190484v-1.033545l.322418.0024c.446267.003 1.132976.333736 1.212373.583903.23277.733345-1.207708 2.333366-1.474571 1.637936z"/>
    </g>
</svg>
