<svg xmlns="http://www.w3.org/2000/svg" width="192.006" height="196.128" viewBox="0 0 50.802 51.892">
    <g class="color-main color-blue" fill="#2b4a84" stroke-width=".004">
        <path d="M24.071 49.294a115.68 115.68 0 00-1.091-.146c-4.218-.555-9.71-2.857-12.33-5.168-1.158-1.021-3.218-3.217-4.034-4.3-.593-.787-1.197-1.817-1.115-1.9.03-.03.34.016.688.105.381.095 1.05.158 1.683.158 1.047 0 1.053-.001 1.947-.449 1.47-.736 2.176-1.785 2.067-3.072-.14-1.659-.865-3.875-1.975-6.037-.477-.93-1.337-2.02-1.782-2.257-.21-.113-1.128.11-1.527.372-.494.324-.637 1.641-.226 2.088.25.27.918.62 1.194.623.419.006 1.042-.865.901-1.258-.023-.066-.25-.149-.505-.186a4.096 4.096 0 01-.79-.2c-.292-.119-.315-.156-.215-.343.144-.269.748-.523 1.058-.445.131.033.401.21.6.392.36.33.363.337.4 1.261.035.864.017.97-.243 1.476-.401.781-.9 1.03-1.897.945-2.263-.192-3.561-1.233-4.083-3.276-.092-.364-.123-1.503-.116-4.266.013-4.328.2-12.075.296-12.162.035-.032.524-.176 1.086-.32 2.098-.537 3.875-1.394 6.687-3.222l2.888-1.878c2.437-1.586 4.004-2.312 6.265-2.904 2.03-.53 3.42-.726 5.161-.727 3.107 0 5.336.586 10.717 2.817 1.424.59 2.832 1.16 3.128 1.265l1.309.462c.423.149.769.306.769.35 0 .044-.547.654-1.216 1.356-2.044 2.146-2.288 2.524-2.448 3.796-.211 1.687.426 3.755 1.63 5.287.669.852 1.049 1.014 2.38 1.017.886.001 1.217-.042 1.752-.227.772-.266 1.598-.813 2.372-1.57.523-.511.56-.53.713-.362.238.263.733 1.415 1.17 2.722.68 2.031 1.087 4.51 1.087 6.62v1.088l-.52.194a7.905 7.905 0 01-.847.263c-.44.095-.595.37-.67 1.194-.088.957-.599 3.632-.843 4.415-.31.994-.691 2.597-.691 2.911 0 .213.157.446.64.946l.64.663-.467.865c-.762 1.415-1.62 2.527-3.017 3.914-2.42 2.402-4.887 4.173-7.413 5.32-3.045 1.385-4.816 1.759-8.538 1.803-1.282.015-2.465.01-2.629-.012zm-6.966-5.653c.667-.304 1.25-.59 1.296-.634.091-.089-.072-1.877-.284-3.11-.128-.745-.063-1.358.145-1.358.04 0 .243.39.45.868.878 2.018 1.047 2.312 1.721 2.995 1.385 1.403 3.345 1.825 5.23 1.125.711-.264.66-.386-.194-.463-1.406-.128-2.629-.647-3.341-1.42-.724-.786-1.25-2.2-1.342-3.6l-.048-.745.502-.389c.338-.262.59-.569.771-.94l.27-.55.066.394c.037.217.115.847.174 1.401.183 1.721.717 2.71 1.657 3.069.412.157.485.157 1.1.006.951-.235 1.465-.57 1.82-1.185.484-.838.685-1.65.806-3.258l.112-1.475-.277-.421c-.768-1.168-1.487-1.76-2.136-1.76-.486 0-1.185.283-1.565.636-.182.168-.515.585-.74.926-.547.827-.759.836-1.055.045-.285-.762-.86-1.512-1.348-1.756-.348-.175-.58-.197-1.933-.188-1.332.01-1.614.04-2.11.231-1.158.445-1.4.862-1.245 2.15.068.57.19 7.2.18 9.835 0 .068.024.124.053.124.03 0 .599-.249 1.265-.553zm23.765-4.462c.214-.468.145-.895-.19-1.177-.168-.14-.385-.256-.482-.256-.262 0-.7-.382-.7-.61 0-.32.19-.58.425-.582.35-.003.484-.144.568-.6.097-.533.078-.577-.406-.912-.45-.313-.683-.712-.515-.881.06-.06.404-.131.766-.16l.659-.053-.03-.505-.029-.506-.892-.32c-.491-.175-1.125-.348-1.408-.384l-.514-.064-.074.383c-.106.55-.082 5.385.028 5.74.085.272.195.333 1.278.712.652.228 1.234.418 1.293.422.06.003.16-.107.224-.246zm-9.326-.493c.445-.134.55-.213.671-.5.343-.822.536-2.229.694-5.058.08-1.418.023-1.534-.735-1.532-.69.003-.892.083-.954.381-.03.145-.122 1.156-.204 2.247-.082 1.091-.176 2.154-.208 2.363-.109.687-.51.564-.74-.226-.057-.193-.14-1.238-.185-2.322-.062-1.498-.114-1.991-.218-2.059-.122-.079-1.166-.02-1.269.072-.105.094.194 4.899.339 5.446.296 1.12.733 1.482 1.685 1.4a6.84 6.84 0 001.124-.212zm4.43-.38c.029-.172.095-1.2.148-2.283.058-1.194.14-2.024.21-2.107.062-.076.281-.182.487-.238.54-.145.633-.303.565-.955-.031-.304-.083-.58-.115-.612-.11-.11-1.494-.318-2.535-.381-1.297-.079-1.373-.027-1.203.823.127.63.252.827.525.827.302 0 .378.386.483 2.465.11 2.164.145 2.429.352 2.6.17.142.737.276.908.216.067-.024.145-.183.174-.355zm-9.604-8.393c1.334-.11 1.945-.343 2.506-.952.532-.576.71-1.034.773-1.991.079-1.183-.017-1.631-.478-2.243-.55-.73-.566-.862-.19-1.679.37-.8.492-1.73.304-2.3-.156-.471-.812-1.024-1.433-1.209-1.062-.315-2.33-.144-4.783.648-.8.258-1.13.222-1.328-.147-.257-.48-.734-.226-.678.363.03.313.055.331.503.383.593.068.687.166.78.811.111.789.1 6.152-.015 7.162-.07.609-.07.917.002.988.24.24 2.18.32 4.038.166zm12.196-1.033c.007-.006.037-.426.068-.931.056-.905.054-.917-.16-.874-.119.024-.4.068-.622.098l-.406.054-.064-2.795c-.036-1.537-.099-2.826-.14-2.864-.042-.038-.483-.09-.981-.117l-.906-.048-.06.508c-.034.279-.062 1.922-.062 3.651-.001 3.008.007 3.15.192 3.28.15.105.526.127 1.662.094a44.476 44.476 0 001.48-.056zm3.477-2.047c.064-1.119.12-2.287.124-2.598.009-.549.02-.57.43-.846.42-.282.422-.285.452-.958.016-.371-.017-.731-.074-.8-.131-.158-2.369-.273-3.306-.17-.85.095-.989.229-1.045 1.004-.046.641.063.896.386.896.1 0 .34.138.534.308l.35.308.001 2.048c.002 2.297.048 2.762.284 2.827.089.024.519.038.955.03l.794-.015.115-2.034zm-8.207 1.889c.22-.118.352-.957.21-1.332-.092-.24-.143-.26-.704-.26-.537 0-.639-.032-.896-.29-.515-.514-.378-.695.681-.904l.624-.122-.028-.756-.03-.755-.628-.069c-.727-.08-.909-.196-.909-.577 0-.343.133-.395.998-.395.8 0 .818-.027.768-1.095l-.03-.641-.496-.05c-.273-.027-1.101-.035-1.842-.018l-1.346.032.007 3.609.008 3.609.396.037c.877.082 3.05.065 3.218-.024zm-19.64-3.528c1.245-.258 2.187-.648 2.187-.906 0-.074-.012-.133-.025-.132-.014 0-.27.067-.57.147-.732.196-2.588.196-3.232 0a3.864 3.864 0 01-.957-.495c-.537-.396-1.866-1.954-2.162-2.532-.336-.66-.601-1.958-.658-3.223-.05-1.125-.037-1.242.245-2.133.573-1.812.848-2.21 2.323-3.356 1.392-1.083 1.596-1.323 2.677-3.142 1.09-1.833 1.2-2.035 1.14-2.094-.023-.024-.35.144-.727.373-.376.23-1.33.725-2.122 1.102-.791.377-1.79.894-2.22 1.148-1.362.807-2.717 2.53-3.365 4.283-.668 1.802-.704 1.993-.71 3.77-.004 1.456.02 1.712.226 2.324.58 1.734 1.754 3.38 3.026 4.245.604.41 1.296.75 1.803.884.47.125 1.775.015 3.12-.264zm.38-4.44c1.265-.585 2.213-2.372 2.223-4.189.008-1.712-.582-3.29-1.46-3.895-.478-.331-.519-.34-1.252-.299-1.326.076-2.21.681-2.86 1.962-.627 1.231-.833 2.69-.565 3.987.286 1.378.689 1.963 1.653 2.396.859.385 1.488.396 2.261.038zm5.165-1.811l.433-.176-.084-2.34c-.12-3.341-.136-3.112.243-3.466.319-.298.324-.315.295-1.077l-.03-.775-1.09.012c-.905.009-1.219.055-1.836.271-.409.144-.8.337-.868.43-.072.098-.124.469-.124.884v.714l.47.086c.724.132.75.233.831 3.16.038 1.364.073 2.497.079 2.518.024.098 1.296-.084 1.681-.24zm4.49-1.228c.196-.24.275-1.157.287-3.35.005-.883.046-1.733.09-1.89.046-.156.228-.43.406-.607.303-.303.32-.356.264-.825-.101-.856-.203-.889-1.976-.628-1.596.235-1.544.215-1.658.627-.056.2-.102.57-.102.82 0 .387.036.472.242.566.485.22.522.404.642 3.135.062 1.412.134 2.602.16 2.644.082.132 1.476-.284 1.645-.492zm4.59-.4c.513-.12 1.183-.785 1.554-1.543.69-1.412.527-3.328-.432-5.05-.422-.76-.768-.952-1.708-.952-1.247 0-2.004.61-2.436 1.963-.168.525-.213.918-.215 1.856-.003 1.112.018 1.243.315 1.984.553 1.378 1.05 1.836 1.991 1.833.3-.001.72-.043.932-.092zm3.968-.217c.32-.145.38-.427.309-1.41-.07-.962.04-1.243.344-.88.105.125.264.48.354.79.246.845.597 1.478.86 1.548.126.034.375.062.553.063.258 0 .345-.051.422-.254.133-.349.128-6.248-.006-6.497-.211-.395-.971-.613-1.378-.395-.141.076-.19.278-.246 1.01-.073.962-.113 1.117-.266 1.022-.171-.105-.586-1.022-.697-1.54-.094-.439-.153-.525-.443-.646-.368-.154-.914-.181-1.113-.055-.197.125-.294.622-.196 1.007.05.19.124 1.646.167 3.233.042 1.588.109 2.938.148 3.001.09.147.868.149 1.188.003z"/>
        <path d="M24.567 51.836c-3.607-.236-6.76-1.108-10.663-2.947-1.889-.89-2.78-1.526-5.641-4.025-1.99-1.738-4.755-5.119-5.619-6.87-.296-.6-.551-1.173-.567-1.273-.033-.204.301-.415 1.26-.796.327-.13.94-.384 1.36-.565l.763-.327.665.337c.512.26.818.346 1.336.375.822.047 1.586-.18 1.887-.561.261-.331.214-.947-.125-1.646-.259-.532-.103-.51-1.795-.264-1.998.291-4.625-.611-5.675-1.95-.684-.871-.94-1.428-1.147-2.496-.363-1.871-.505-3.443-.58-6.41-.074-2.93.024-14.305.125-14.406.028-.027.712 0 1.52.063 1.058.083 1.744.086 2.46.012 1.785-.187 2.427-.459 4.733-2 .81-.542 1.85-1.208 2.311-1.48a52.897 52.897 0 002.07-1.324C15.69 1.641 17.697.84 20.677.316 22.446.006 22.547 0 25.51 0c3.024 0 3.026 0 4.513.318 2.056.438 2.783.693 5.01 1.758 2.348 1.123 3.675 1.644 5.224 2.048 1.125.294 1.242.305 2.738.266.859-.024 1.562-.006 1.562.036 0 .043-.16.716-.355 1.496-.233.928-.464 1.604-.67 1.954-.178.304-.963 1.185-1.813 2.034-.825.824-1.628 1.721-1.786 1.994-.27.468-.287.56-.287 1.637 0 1.05.023 1.186.28 1.709.377.768.73 1.005 1.57 1.052.364.021.816-.012 1.004-.075.827-.273 1.812-1.488 2.523-3.111.244-.558.488-1.058.542-1.113.133-.136 1.395 1.193 1.978 2.084.57.87 1.472 2.63 1.877 3.664 1.191 3.04 1.826 10.003 1.024 11.227-.162.247-.517.385-1.243.483-.45.06-.47.077-.616.528-.175.54-1 3.86-1.095 4.407-.084.485.132.899.637 1.217.81.512.809.984-.01 2.585-1.149 2.245-2.132 3.717-3.422 5.125-1.893 2.066-5.253 4.808-6.934 5.659-1.685.853-4.597 1.93-6.696 2.477-1.5.39-1.584.4-3.423.428-1.036.015-2.42-.006-3.075-.05zm5.351-1.79c2.896-.5 6.158-1.721 8.258-3.092 1.025-.669 3.528-2.7 4.664-3.786.505-.483 1.146-1.184 1.423-1.559.503-.677 2.51-4.092 2.632-4.478.05-.158-.07-.337-.542-.813-.351-.355-.606-.698-.606-.818 0-.209.832-4.773 1.179-6.47.104-.51.235-.971.29-1.026.054-.055.405-.162.779-.238.373-.076.786-.186.917-.243l.238-.103-.06-2.054c-.063-2.207-.226-3.515-.613-4.931-.46-1.68-1.609-4.445-2.111-5.079l-.172-.217-1.379 1.028c-1.554 1.158-2.428 1.61-3.291 1.699-.897.093-1.334-.068-1.897-.7-1.014-1.14-1.604-2.46-1.69-3.788-.1-1.533.42-2.558 2.158-4.253l1.492-1.452c.714-.692.915-1.092.673-1.334-.077-.077-.657-.25-1.288-.383-1.716-.363-3.123-.851-6.088-2.112-4.903-2.085-5.93-2.342-9.374-2.347-2.448-.003-3.662.124-6.064.633-2.22.47-3.463 1.087-7.15 3.548C9.352 7.643 7.24 8.983 6.508 9.351c-.974.49-1.85.696-3.208.754-.675.03-1.256.081-1.29.115-.102.103-.128 11.748-.034 15.324.099 3.736.097 3.726.91 4.737.687.855 2.324 1.516 3.786 1.53.656.006.72-.015 1.6-.538.95-.564 1.513-.868 1.608-.868.03 0 .054.069.054.154 0 .084.175.564.388 1.066.774 1.823.937 2.993.528 3.794-.223.437-.807 1.016-1.518 1.505l-.454.311-1.336-.089c-.735-.049-1.53-.157-1.766-.24-.79-.28-1.596-.115-1.596.325 0 .773 2.196 3.928 3.757 5.398.863.814 3.063 2.629 4.212 3.476 1.635 1.205 4.209 2.37 7.26 3.285.983.295 2.713.658 4.265.895.164.024 1.389.024 2.722-.002 1.755-.034 2.728-.1 3.522-.236z"/>
        <path d="M13.382 18.502c-.389-.306-.599-.936-.598-1.793.002-1.605.836-2.37 1.673-1.533.226.226.24.304.24 1.415 0 1.087-.019 1.2-.24 1.5-.267.362-.548.6-.715.604-.06.002-.223-.085-.36-.193zm14.18-3.354c-.448-.495-.608-1.627-.316-2.238.18-.376.711-.76 1.053-.76.452 0 .599.205.656.912.045.564.016.731-.214 1.234-.44.96-.827 1.24-1.179.852zM25.085 23.3c-.04-.04-.072-.413-.072-.831v-.76l.657-.121c.586-.108.677-.103.843.048.248.224.236.532-.037.936-.318.473-1.19.93-1.391.728zm-.035 4.065a9.7 9.7 0 00.063-1.072v-.61l.61-.22c.556-.2.631-.207.84-.07.126.083.282.249.346.369.155.289.15 1.167-.01 1.473-.277.536-.384.59-1.17.59h-.743zm-.489 10.268c-.215-.476-.246-1.989-.049-2.357.278-.52 1.19-.79 1.39-.414.156.29.13 2.133-.035 2.527-.166.396-.505.654-.86.654-.21 0-.297-.08-.446-.41zM18.526 36.1c-.033-.087-.06-.622-.06-1.19v-1.034l.322.002c.447.003 1.133.334 1.213.584.232.733-1.208 2.333-1.475 1.638z"/>
    </g>
</svg>
