<?xml version="1.0" encoding="UTF-8" standalone="no"?>
<svg
   xmlns="http://www.w3.org/2000/svg"
   id="svg930"
   version="1.1"
   viewBox="0 0 50.801712 51.8922"
   height="51.8922mm"
   width="50.801712mm">
  <g
     transform="translate(-76.652721,-139.51819)"
     id="layer1">
    <g
       transform="matrix(2.9996083,0,0,2.9996083,-166.36473,-451.52291)"
       id="g1753">
      <path
         style="fill:#2b4a84;fill-opacity:1;stroke:none;stroke-width:0.00440972;stroke-miterlimit:4;stroke-dasharray:none;stroke-opacity:1"
         d="m 89.041119,213.47277 c -0.05457,-0.008 -0.218281,-0.0295 -0.363802,-0.0486 -1.406062,-0.18508 -3.236778,-0.95238 -4.110485,-1.72281 -0.386059,-0.34043 -1.072899,-1.07261 -1.344702,-1.43346 -0.197742,-0.26253 -0.399302,-0.60575 -0.371851,-0.6332 0.01008,-0.0101 0.1133,0.005 0.229362,0.0346 0.127153,0.0319 0.350142,0.0529 0.561075,0.0529 0.349076,0 0.350901,-5.3e-4 0.648984,-0.14965 0.490188,-0.24539 0.725511,-0.59517 0.689205,-1.02444 -0.04675,-0.55276 -0.28851,-1.29177 -0.658334,-2.01239 -0.159118,-0.31005 -0.44582,-0.6733 -0.594013,-0.7526 -0.0703,-0.0376 -0.37614,0.0369 -0.509228,0.12413 -0.164814,0.10799 -0.212309,0.54715 -0.07527,0.69599 0.08312,0.0903 0.30598,0.2066 0.398153,0.20781 0.139375,0.002 0.347221,-0.28842 0.30031,-0.41936 -0.0078,-0.0219 -0.08362,-0.0497 -0.16841,-0.0619 -0.08479,-0.0122 -0.203295,-0.0422 -0.263342,-0.0667 -0.09737,-0.0397 -0.10513,-0.0521 -0.07175,-0.11449 0.04789,-0.0895 0.249418,-0.17428 0.352605,-0.14838 0.04378,0.011 0.133917,0.0698 0.2003,0.13059 0.120039,0.11001 0.12077,0.11232 0.133178,0.42065 0.01159,0.28802 0.0058,0.32294 -0.08098,0.49193 -0.133787,0.26042 -0.299945,0.34321 -0.632275,0.31507 -0.754523,-0.0639 -1.187331,-0.4112 -1.361218,-1.09228 -0.03095,-0.12123 -0.04126,-0.50086 -0.03862,-1.42214 0.0041,-1.44287 0.06679,-4.02551 0.09836,-4.05432 0.01172,-0.0107 0.174691,-0.0587 0.36218,-0.10677 0.699373,-0.1792 1.291813,-0.46466 2.229337,-1.07419 0.271534,-0.17653 0.704726,-0.45831 0.962647,-0.62616 0.812422,-0.52873 1.334921,-0.77085 2.088734,-0.96791 0.677003,-0.17698 1.140164,-0.24222 1.720578,-0.24234 1.03569,-2.2e-4 1.778828,0.19507 3.572846,0.93891 0.47462,0.19679 0.943896,0.38657 1.042837,0.42173 0.09894,0.0352 0.295232,0.10449 0.436205,0.15406 0.140975,0.0496 0.256315,0.10209 0.256315,0.11671 0,0.0146 -0.182314,0.21796 -0.405143,0.45187 -0.681628,0.71552 -0.762847,0.84148 -0.81611,1.26568 -0.0706,0.56229 0.141885,1.25188 0.54307,1.76245 0.22325,0.28412 0.349774,0.33814 0.793938,0.339 0.29505,5.3e-4 0.405405,-0.0137 0.583933,-0.0754 0.257328,-0.0889 0.53272,-0.27125 0.790705,-0.5235 0.174408,-0.17053 0.186803,-0.17683 0.237482,-0.12083 0.07941,0.0877 0.24462,0.47179 0.390472,0.90769 0.226562,0.67711 0.362122,1.50324 0.362122,2.20682 v 0.36273 l -0.173633,0.0645 c -0.0955,0.0355 -0.222504,0.075 -0.282239,0.0879 -0.146685,0.0316 -0.198239,0.1235 -0.223377,0.39802 -0.02921,0.31898 -0.199435,1.21082 -0.280911,1.47174 -0.103505,0.33147 -0.230373,0.86587 -0.23042,0.9706 -3.5e-5,0.071 0.05252,0.14862 0.213331,0.31519 l 0.213373,0.22101 -0.155496,0.28852 c -0.254161,0.47158 -0.539985,0.84238 -1.005763,1.30477 -0.806699,0.80084 -1.629294,1.39128 -2.471399,1.77393 -1.015315,0.46134 -1.605724,0.58597 -2.846435,0.60084 -0.427466,0.005 -0.821862,0.003 -0.876432,-0.004 z m -2.322243,-1.88444 c 0.222208,-0.10141 0.416555,-0.19655 0.431882,-0.21142 0.03043,-0.0296 -0.02394,-0.62585 -0.09453,-1.03645 -0.04274,-0.24869 -0.02103,-0.45292 0.04813,-0.45292 0.01355,0 0.08123,0.13023 0.15045,0.28939 0.292521,0.67267 0.348713,0.77049 0.573522,0.99832 0.461608,0.46783 1.115078,0.60841 1.743524,0.37507 0.23703,-0.088 0.220023,-0.12871 -0.06456,-0.15449 -0.468818,-0.0425 -0.876411,-0.21572 -1.113994,-0.47347 -0.241323,-0.2618 -0.416957,-0.73305 -0.447307,-1.20018 l -0.01611,-0.24805 0.167375,-0.12973 c 0.112745,-0.0874 0.196665,-0.1896 0.25712,-0.31317 l 0.08975,-0.18344 0.02223,0.13127 c 0.01222,0.0722 0.03833,0.28239 0.058,0.4671 0.06109,0.57362 0.239088,0.90324 0.552352,1.02287 0.137348,0.0525 0.161774,0.0526 0.367096,0.002 0.316865,-0.0782 0.488196,-0.1897 0.606576,-0.39475 0.161346,-0.27947 0.228354,-0.55038 0.268719,-1.08642 l 0.03702,-0.49157 -0.0923,-0.14043 c -0.255897,-0.38936 -0.495509,-0.58691 -0.711872,-0.58691 -0.1622,0 -0.395044,0.0946 -0.521861,0.21208 -0.06064,0.0562 -0.171694,0.19513 -0.246793,0.30882 -0.182158,0.27576 -0.252847,0.27882 -0.351433,0.0152 -0.09505,-0.25417 -0.286888,-0.50413 -0.449511,-0.5857 -0.116065,-0.0582 -0.193252,-0.0657 -0.644488,-0.0624 -0.444135,0.003 -0.538107,0.0135 -0.703315,0.077 -0.386102,0.14833 -0.46654,0.28721 -0.415105,0.71669 0.02275,0.19004 0.06337,2.40047 0.06023,3.27884 -6.6e-5,0.0227 0.0078,0.0413 0.01752,0.0413 0.0097,0 0.199472,-0.083 0.42168,-0.18437 z m 7.922795,-1.48737 c 0.07121,-0.15629 0.04824,-0.29846 -0.06338,-0.39238 -0.05597,-0.0471 -0.128373,-0.0856 -0.160904,-0.0856 -0.08728,0 -0.233434,-0.12711 -0.233434,-0.20302 0,-0.10713 0.06321,-0.19382 0.141724,-0.19437 0.116994,-7.9e-4 0.161565,-0.0479 0.189368,-0.1999 0.03251,-0.17776 0.02601,-0.19242 -0.135144,-0.30423 -0.149921,-0.10403 -0.227864,-0.23734 -0.171643,-0.29357 0.01966,-0.0197 0.134556,-0.0437 0.255333,-0.0534 l 0.219591,-0.0176 -0.0098,-0.16848 -0.0098,-0.16849 -0.297571,-0.10662 c -0.163664,-0.0586 -0.374769,-0.11627 -0.469125,-0.12806 l -0.171556,-0.0214 -0.02461,0.12757 c -0.03538,0.18335 -0.02743,1.79542 0.0094,1.9135 0.02832,0.0907 0.06483,0.11107 0.426053,0.23752 0.217294,0.0761 0.411297,0.13932 0.431114,0.14056 0.01982,0.001 0.0533,-0.0356 0.07442,-0.082 z m -3.109275,-0.16447 c 0.148386,-0.0447 0.183673,-0.071 0.223758,-0.16691 0.114385,-0.27376 0.178747,-0.74285 0.231359,-1.68612 0.02635,-0.47268 0.0078,-0.51131 -0.245043,-0.51057 -0.229802,7.9e-4 -0.297318,0.0276 -0.318196,0.12693 -0.01013,0.0482 -0.04068,0.38525 -0.06791,0.74905 -0.02722,0.3638 -0.05848,0.7183 -0.06946,0.78778 -0.03617,0.2289 -0.169725,0.1882 -0.246692,-0.0752 -0.01884,-0.0645 -0.04649,-0.41283 -0.06144,-0.77406 -0.02066,-0.49955 -0.03812,-0.66391 -0.07291,-0.68653 -0.04049,-0.0263 -0.388668,-0.007 -0.422799,0.024 -0.03496,0.0313 0.06468,1.63309 0.11293,1.81539 0.0988,0.37331 0.244506,0.49432 0.561781,0.46658 0.109141,-0.01 0.277715,-0.0412 0.374611,-0.0704 z m 1.476716,-0.12656 c 0.0097,-0.0574 0.03198,-0.39992 0.04958,-0.76123 0.01939,-0.39806 0.04691,-0.67492 0.06985,-0.70257 0.02082,-0.0251 0.09392,-0.0607 0.162447,-0.0792 0.179789,-0.0484 0.210923,-0.10099 0.188494,-0.3183 -0.01048,-0.10162 -0.02781,-0.1935 -0.03848,-0.20418 -0.03675,-0.0367 -0.497895,-0.10609 -0.844989,-0.12706 -0.432435,-0.0261 -0.457909,-0.009 -0.401061,0.27438 0.04223,0.21025 0.08385,0.27594 0.174866,0.27594 0.100772,0 0.125934,0.12841 0.160994,0.82161 0.03648,0.72134 0.04846,0.80967 0.117589,0.86704 0.05668,0.047 0.245443,0.0919 0.302694,0.0719 0.02225,-0.008 0.04835,-0.061 0.05802,-0.1184 z M 89.80768,207.0116 c 0.444556,-0.0368 0.648203,-0.11409 0.83534,-0.31711 0.177271,-0.19231 0.236411,-0.34471 0.257643,-0.66394 0.02625,-0.39444 -0.0056,-0.54373 -0.159329,-0.74764 -0.183557,-0.24343 -0.188537,-0.28761 -0.06309,-0.55977 0.12287,-0.26657 0.163703,-0.57675 0.100957,-0.76687 -0.05181,-0.15697 -0.270423,-0.34141 -0.477602,-0.40294 -0.354179,-0.10518 -0.777002,-0.0479 -1.594377,0.21586 -0.267041,0.0862 -0.377065,0.074 -0.442841,-0.0489 -0.0858,-0.16031 -0.244806,-0.0752 -0.225975,0.12097 0.01,0.10427 0.01823,0.11054 0.16747,0.12769 0.19798,0.0228 0.229233,0.0553 0.25988,0.27056 0.03742,0.26285 0.03391,2.05077 -0.0047,2.38766 -0.02323,0.20276 -0.0231,0.30571 5.3e-4,0.32923 0.07987,0.0799 0.727072,0.10639 1.346178,0.0552 z m 4.065818,-0.34426 c 0.0021,-0.002 0.01225,-0.14212 0.02265,-0.31043 0.01865,-0.3015 0.01786,-0.3058 -0.05334,-0.29147 -0.03975,0.008 -0.133136,0.0227 -0.207523,0.0327 l -0.13525,0.0182 -0.02148,-0.93183 c -0.0118,-0.5125 -0.03281,-0.94214 -0.04665,-0.95473 -0.01384,-0.0126 -0.161002,-0.0301 -0.327012,-0.039 l -0.301837,-0.0161 -0.02035,0.16925 c -0.01119,0.0931 -0.02048,0.64093 -0.02061,1.21744 -2.65e-4,1.00258 0.0026,1.05016 0.06433,1.09344 0.05001,0.035 0.175215,0.0421 0.553972,0.0311 0.269147,-0.008 0.491037,-0.0161 0.49309,-0.0186 z m 1.159142,-0.6824 c 0.02111,-0.3729 0.03972,-0.76259 0.04134,-0.86598 0.0029,-0.18315 0.0066,-0.19041 0.143505,-0.28223 0.140012,-0.0939 0.140599,-0.0951 0.150408,-0.31936 0.0054,-0.12381 -0.0057,-0.2438 -0.02463,-0.26664 -0.04377,-0.0527 -0.789676,-0.0909 -1.102035,-0.0564 -0.283318,0.0313 -0.329763,0.0759 -0.348467,0.33446 -0.01545,0.21368 0.02114,0.29857 0.12872,0.29857 0.03352,0 0.113554,0.0462 0.177851,0.10265 l 0.116906,0.10264 2.64e-4,0.68284 c 5.29e-4,0.76576 0.01595,0.92069 0.09465,0.94255 0.0296,0.008 0.172879,0.0127 0.3184,0.01 l 0.264583,-0.005 0.0384,-0.67799 z m -2.736083,0.62958 c 0.07336,-0.0393 0.117359,-0.31889 0.06984,-0.44386 -0.03051,-0.0803 -0.04749,-0.0865 -0.234688,-0.0865 -0.178943,0 -0.212748,-0.011 -0.298473,-0.0967 -0.17167,-0.17167 -0.126231,-0.23199 0.227094,-0.30148 l 0.208015,-0.0409 -0.0096,-0.25176 -0.0096,-0.25175 -0.209545,-0.0231 c -0.24243,-0.0267 -0.303086,-0.0652 -0.303086,-0.19237 0,-0.11425 0.04428,-0.13178 0.332807,-0.13178 0.266499,0 0.2727,-0.009 0.256005,-0.36483 l -0.01003,-0.21395 -0.165364,-0.0165 c -0.09095,-0.009 -0.367297,-0.0117 -0.614106,-0.006 l -0.448744,0.0107 0.0024,1.20312 0.0024,1.20312 0.132291,0.0123 c 0.292399,0.0273 1.016783,0.0219 1.072624,-0.008 z m -6.547688,-1.17615 c 0.415173,-0.0857 0.729099,-0.21579 0.729099,-0.30205 0,-0.0244 -0.0037,-0.0442 -0.0083,-0.044 -0.0046,2.3e-4 -0.09012,0.0224 -0.19017,0.0492 -0.243858,0.0654 -0.862459,0.0654 -1.077134,-1.7e-4 -0.0897,-0.0274 -0.233257,-0.10155 -0.319008,-0.16482 -0.17916,-0.13221 -0.622358,-0.65132 -0.720791,-0.84426 -0.112149,-0.21983 -0.200555,-0.65274 -0.219396,-1.07435 -0.01675,-0.37502 -0.01228,-0.41417 0.08161,-0.71106 0.191003,-0.60408 0.282657,-0.73652 0.774364,-1.11897 0.464008,-0.36091 0.532114,-0.44082 0.892596,-1.04731 0.363249,-0.61114 0.399896,-0.67845 0.380172,-0.69817 -0.008,-0.008 -0.117086,0.048 -0.242459,0.12435 -0.12537,0.0764 -0.443749,0.2417 -0.707507,0.36739 -0.263755,0.12569 -0.596791,0.29797 -0.740079,0.38284 -0.453985,0.26891 -0.905669,0.84363 -1.122002,1.42763 -0.222587,0.60087 -0.234551,0.66448 -0.236371,1.25677 -0.0016,0.48569 0.0068,0.5709 0.07509,0.77487 0.193633,0.57805 0.584933,1.12686 1.009023,1.4152 0.201153,0.13676 0.431787,0.24989 0.60093,0.29476 0.156406,0.0415 0.591836,0.005 1.040302,-0.0879 z m 0.126899,-1.47995 c 0.421733,-0.19509 0.737812,-0.79085 0.740918,-1.39653 0.0029,-0.57078 -0.194,-1.09659 -0.486383,-1.29867 -0.159616,-0.11032 -0.173154,-0.11355 -0.417598,-0.0996 -0.44215,0.0252 -0.736589,0.22714 -0.953785,0.65415 -0.208773,0.41044 -0.27754,0.89658 -0.188005,1.32905 0.09516,0.45963 0.229489,0.65434 0.551063,0.79878 0.286266,0.12857 0.495893,0.13214 0.75379,0.0128 z m 1.721956,-0.60398 0.144103,-0.0584 -0.02802,-0.78047 c -0.03998,-1.11357 -0.04534,-1.03711 0.081,-1.15513 0.106444,-0.0994 0.107998,-0.1051 0.09845,-0.35928 l -0.0097,-0.25825 -0.363802,0.004 c -0.301598,0.003 -0.406212,0.0184 -0.611849,0.0904 -0.136424,0.0478 -0.266649,0.11224 -0.289388,0.14329 -0.02402,0.0328 -0.04134,0.15624 -0.04134,0.2946 v 0.23815 l 0.156776,0.0286 c 0.241065,0.044 0.249942,0.0778 0.276998,1.05338 0.01262,0.45476 0.02434,0.83258 0.02609,0.83962 0.008,0.0326 0.432168,-0.028 0.560676,-0.0801 z m 1.496846,-0.40909 c 0.06534,-0.0803 0.09149,-0.38574 0.09562,-1.11697 0.0016,-0.29429 0.01527,-0.57773 0.0302,-0.62985 0.01495,-0.0521 0.07572,-0.14332 0.135048,-0.20265 0.100981,-0.10097 0.106603,-0.11853 0.08809,-0.27488 -0.03382,-0.28558 -0.06781,-0.29638 -0.658939,-0.20939 -0.531884,0.0783 -0.514591,0.0717 -0.552686,0.2089 -0.01857,0.0669 -0.03386,0.18989 -0.03396,0.27337 -1.64e-4,0.12903 0.01196,0.15732 0.08075,0.18867 0.161583,0.0736 0.17408,0.13461 0.214111,1.04509 0.02072,0.47101 0.04462,0.86765 0.05313,0.88142 0.0274,0.0443 0.492181,-0.0944 0.548635,-0.16371 z m 1.530284,-0.13374 c 0.170717,-0.0396 0.394126,-0.2615 0.517813,-0.5143 0.230225,-0.47056 0.175607,-1.10928 -0.14397,-1.68366 -0.140798,-0.25306 -0.255993,-0.31726 -0.569259,-0.31726 -0.415949,0 -0.668391,0.2034 -0.812417,0.65459 -0.05582,0.17486 -0.07099,0.3059 -0.07164,0.61872 -7.94e-4,0.37063 0.0062,0.41436 0.105224,0.66126 0.184378,0.45967 0.35015,0.61228 0.663824,0.61114 0.100047,-2.7e-4 0.239739,-0.0141 0.310428,-0.0305 z m 1.322583,-0.072 c 0.106423,-0.0485 0.127037,-0.1426 0.103042,-0.47044 -0.02347,-0.32053 0.01315,-0.41412 0.114705,-0.29316 0.03491,0.0416 0.08801,0.16001 0.117999,0.26317 0.08202,0.28212 0.199093,0.49288 0.286861,0.51639 0.04181,0.0112 0.124762,0.0206 0.18433,0.0208 0.08604,2.6e-4 0.114937,-0.017 0.14056,-0.0844 0.04425,-0.11639 0.04262,-2.08297 -0.0019,-2.16596 -0.07049,-0.13171 -0.3238,-0.20444 -0.459362,-0.13189 -0.04727,0.0253 -0.06373,0.0927 -0.08213,0.33651 -0.02424,0.32101 -0.03769,0.37271 -0.08882,0.34111 -0.05692,-0.0352 -0.195246,-0.34091 -0.232201,-0.51322 -0.03142,-0.14653 -0.05119,-0.17542 -0.147569,-0.21569 -0.122957,-0.0514 -0.304905,-0.0604 -0.371128,-0.0184 -0.06589,0.0418 -0.09807,0.20735 -0.06524,0.33567 0.0163,0.0637 0.04122,0.54877 0.05541,1.07801 0.01418,0.52924 0.03643,0.97944 0.04941,1.00045 0.03023,0.0489 0.289335,0.0496 0.395946,0.001 z"
         id="path1729" />
      <path
         style="fill:#2b4a84;fill-opacity:1;stroke:none;stroke-width:0.00440972;stroke-miterlimit:4;stroke-dasharray:none;stroke-opacity:1"
         d="m 89.206483,214.32042 c -1.202629,-0.0789 -2.253832,-0.36938 -3.554669,-0.98238 -0.629748,-0.29675 -0.927184,-0.50897 -1.880888,-1.34198 -0.663393,-0.57945 -1.585063,-1.70653 -1.872983,-2.29042 -0.09867,-0.20009 -0.183806,-0.39108 -0.189201,-0.42443 -0.01101,-0.068 0.100415,-0.13836 0.420137,-0.26538 0.109141,-0.0434 0.313066,-0.12801 0.453163,-0.1881 l 0.254725,-0.10925 0.221527,0.11244 c 0.170781,0.0867 0.272794,0.11534 0.445313,0.12509 0.274214,0.0155 0.528722,-0.0602 0.62915,-0.1872 0.08716,-0.11019 0.07153,-0.31559 -0.04174,-0.54874 -0.08616,-0.17735 -0.03414,-0.16973 -0.598297,-0.0877 -0.6662,0.0969 -1.541743,-0.20402 -1.891927,-0.6502 -0.228071,-0.29058 -0.313256,-0.47602 -0.382304,-0.8322 -0.120928,-0.62383 -0.16836,-1.1478 -0.193429,-2.13678 -0.02477,-0.9769 0.0081,-4.76918 0.04159,-4.8027 0.0094,-0.009 0.237437,4e-5 0.506637,0.0211 0.35287,0.0276 0.581742,0.0286 0.82018,0.004 0.595214,-0.0625 0.809249,-0.153 1.57799,-0.66713 0.269976,-0.18056 0.61671,-0.40262 0.770523,-0.49347 0.153813,-0.0908 0.464341,-0.2893 0.690062,-0.44099 0.814671,-0.54749 1.484029,-0.81472 2.477468,-0.98909 0.589815,-0.10352 0.623597,-0.10573 1.61117,-0.10547 1.008422,2.7e-4 1.008875,2.7e-4 1.504818,0.10594 0.685421,0.14599 0.927804,0.23106 1.670182,0.5862 0.78264,0.3744 1.225206,0.54791 1.741607,0.6828 0.374832,0.0979 0.4139,0.10171 0.912495,0.0885 0.286496,-0.008 0.520898,-0.002 0.520898,0.0122 0,0.0143 -0.0533,0.23868 -0.118443,0.49871 -0.07749,0.30931 -0.154676,0.53451 -0.223243,0.65134 -0.05941,0.10123 -0.321222,0.39486 -0.604533,0.67799 -0.274852,0.27469 -0.542742,0.57385 -0.595312,0.6648 -0.09026,0.15616 -0.09558,0.18652 -0.09558,0.5457 0,0.34999 0.0074,0.39545 0.09299,0.56971 0.125767,0.25612 0.243647,0.33516 0.523364,0.35097 0.121531,0.007 0.272246,-0.004 0.334926,-0.0251 0.27565,-0.091 0.604279,-0.49617 0.841263,-1.03729 0.08137,-0.1858 0.162584,-0.3527 0.180465,-0.37089 0.04456,-0.0453 0.465238,0.39756 0.659693,0.69453 0.189968,0.29012 0.490535,0.87708 0.625571,1.22165 0.397155,1.01343 0.608787,3.33461 0.341259,3.74291 -0.05383,0.0822 -0.172212,0.12811 -0.414176,0.16078 -0.150027,0.0203 -0.156628,0.0259 -0.20543,0.17631 -0.05828,0.17959 -0.333285,1.28653 -0.364983,1.46911 -0.02807,0.16171 0.04404,0.29954 0.21231,0.40576 0.270322,0.17065 0.269698,0.32801 -0.0034,0.86169 -0.382987,0.74839 -0.71065,1.23915 -1.140706,1.70854 -0.631084,0.68879 -1.751259,1.60305 -2.311514,1.88659 -0.561835,0.28435 -1.532779,0.64344 -2.232422,0.82564 -0.499909,0.13019 -0.528222,0.13374 -1.141015,0.14295 -0.345612,0.005 -0.806979,-0.002 -1.025261,-0.0166 z m 1.783959,-0.5967 c 0.965292,-0.16664 2.052841,-0.57391 2.752907,-1.03092 0.341609,-0.22301 1.176068,-0.90042 1.554885,-1.26225 0.16845,-0.1609 0.381984,-0.39468 0.474525,-0.51951 0.16742,-0.22583 0.836385,-1.36444 0.877192,-1.49301 0.01667,-0.0525 -0.02318,-0.1124 -0.180499,-0.27114 -0.117078,-0.11813 -0.201901,-0.23259 -0.201901,-0.27246 0,-0.0698 0.277191,-1.59149 0.392877,-2.15679 0.03479,-0.17 0.07822,-0.32406 0.09652,-0.34236 0.01828,-0.0183 0.135183,-0.054 0.25976,-0.0794 0.124574,-0.0254 0.262175,-0.0618 0.305779,-0.0808 l 0.07928,-0.0346 -0.01969,-0.68476 c -0.02114,-0.73552 -0.0754,-1.1716 -0.204545,-1.64387 -0.15313,-0.55998 -0.536289,-1.48169 -0.703773,-1.69295 l -0.05738,-0.0724 -0.459626,0.34259 c -0.517988,0.38608 -0.809572,0.53661 -1.097208,0.56643 -0.299202,0.031 -0.444715,-0.0227 -0.632259,-0.23336 -0.338334,-0.38005 -0.534792,-0.82013 -0.56374,-1.26283 -0.03343,-0.51119 0.139885,-0.85274 0.719455,-1.4178 0.149257,-0.14552 0.373195,-0.3634 0.497644,-0.48419 0.23776,-0.23075 0.30494,-0.3639 0.224301,-0.44454 -0.02569,-0.0257 -0.218964,-0.0832 -0.429504,-0.12777 -0.572106,-0.12115 -1.041093,-0.28387 -2.029375,-0.7041 -1.634776,-0.69513 -1.977356,-0.78088 -3.125391,-0.78231 -0.815985,-0.001 -1.220612,0.0412 -2.021366,0.21096 -0.74037,0.15694 -1.154448,0.3624 -2.383816,1.18286 -0.981523,0.65505 -1.685563,1.10184 -1.929445,1.22444 -0.324895,0.16332 -0.616842,0.23195 -1.069523,0.25145 -0.225076,0.01 -0.418552,0.0269 -0.429948,0.0383 -0.03417,0.0341 -0.04276,3.91644 -0.0113,5.10846 0.03288,1.24576 0.03224,1.24241 0.303215,1.57941 0.229124,0.28494 0.774745,0.50543 1.262097,0.51002 0.218784,0.002 0.240421,-0.005 0.53381,-0.17945 0.316703,-0.18808 0.504251,-0.28941 0.535651,-0.28941 0.01,0 0.01818,0.0231 0.01818,0.0513 0,0.0282 0.05815,0.1882 0.129217,0.35553 0.258123,0.60775 0.312407,0.99769 0.176091,1.26489 -0.07433,0.14571 -0.268975,0.33857 -0.506124,0.5015 l -0.151209,0.10389 -0.445492,-0.0297 c -0.245023,-0.0163 -0.509993,-0.0524 -0.588823,-0.0802 -0.263369,-0.0929 -0.531931,-0.0382 -0.531862,0.1084 1.19e-4,0.25767 0.73212,1.30972 1.252309,1.79984 0.28787,0.27123 1.021147,0.87624 1.404321,1.15868 0.544899,0.40165 1.403057,0.78995 2.420036,1.09504 0.327869,0.0984 0.90461,0.21933 1.422135,0.29831 0.05457,0.008 0.462957,0.008 0.907526,-5.3e-4 0.584928,-0.0113 0.909394,-0.0331 1.174089,-0.0788 z"
         id="path1731" />
      <path
         style="fill:#2b4a84;fill-opacity:1;stroke:none;stroke-width:0.00440972;stroke-miterlimit:4;stroke-dasharray:none;stroke-opacity:1"
         d="m 85.477544,203.20743 c -0.129426,-0.10181 -0.199509,-0.31206 -0.199245,-0.59774 5.29e-4,-0.53502 0.278654,-0.78992 0.557596,-0.51098 0.07541,0.0754 0.07983,0.10153 0.07983,0.47179 0,0.36236 -0.006,0.40011 -0.07979,0.5001 -0.08904,0.12069 -0.182554,0.19972 -0.238207,0.2013 -0.02029,5.3e-4 -0.07437,-0.0284 -0.120184,-0.0645 z"
         id="path1733" />
      <path
         style="fill:#2b4a84;fill-opacity:1;stroke:none;stroke-width:0.00440972;stroke-miterlimit:4;stroke-dasharray:none;stroke-opacity:1"
         d="m 90.205058,202.08939 c -0.149408,-0.1651 -0.202737,-0.54245 -0.105455,-0.7462 0.0598,-0.12525 0.23713,-0.25305 0.35111,-0.25305 0.150532,0 0.199572,0.0682 0.218498,0.30399 0.01508,0.18785 0.0054,0.2437 -0.07136,0.41134 -0.146624,0.32027 -0.275553,0.41346 -0.392793,0.28392 z"
         id="path1735" />
      <path
         style="fill:#2b4a84;fill-opacity:1;stroke:none;stroke-width:0.00440972;stroke-miterlimit:4;stroke-dasharray:none;stroke-opacity:1"
         d="m 89.379121,204.8071 c -0.0131,-0.0131 -0.02381,-0.13782 -0.02381,-0.27717 v -0.25335 l 0.218927,-0.0403 c 0.195217,-0.036 0.225663,-0.0342 0.281119,0.016 0.08256,0.0747 0.07851,0.17741 -0.01233,0.31221 -0.106281,0.1577 -0.39687,0.30974 -0.463905,0.2427 z"
         id="path1737" />
      <path
         style="fill:#2b4a84;fill-opacity:1;stroke:none;stroke-width:0.00440972;stroke-miterlimit:4;stroke-dasharray:none;stroke-opacity:1"
         d="m 89.367353,206.16222 c 0.01156,-0.0844 0.02103,-0.24514 0.02103,-0.35721 v -0.20376 l 0.203507,-0.0732 c 0.185224,-0.0667 0.210375,-0.0687 0.279958,-0.0231 0.04205,0.0275 0.09398,0.0829 0.115409,0.12289 0.05159,0.0964 0.04975,0.38919 -0.0031,0.49106 -0.09277,0.17886 -0.128402,0.19682 -0.390435,0.19682 h -0.247417 z"
         id="path1739" />
      <path
         style="fill:#2b4a84;fill-opacity:1;stroke:none;stroke-width:0.00440972;stroke-miterlimit:4;stroke-dasharray:none;stroke-opacity:1"
         d="m 89.204451,209.58537 c -0.07161,-0.15879 -0.08209,-0.66296 -0.01632,-0.78582 0.09266,-0.17313 0.396472,-0.26347 0.463687,-0.13788 0.05158,0.0964 0.04291,0.71113 -0.01188,0.84227 -0.05527,0.13228 -0.168285,0.21824 -0.286948,0.21824 -0.0698,0 -0.09894,-0.0268 -0.148527,-0.13681 z"
         id="path1741" />
      <path
         style="fill:#2b4a84;fill-opacity:1;stroke:none;stroke-width:0.00440972;stroke-miterlimit:4;stroke-dasharray:none;stroke-opacity:1"
         d="m 87.192576,209.07455 c -0.01103,-0.0288 -0.02008,-0.20737 -0.02008,-0.39688 v -0.34456 l 0.107487,8e-4 c 0.148775,0.001 0.377708,0.11126 0.404177,0.19466 0.0776,0.24448 -0.402622,0.77789 -0.491588,0.54605 z"
         id="path1743" />
    </g>
  </g>
</svg>
