<svg xmlns="http://www.w3.org/2000/svg" id="Layer_1" width="192" height="192" x="0" y="0" version="1.1" viewBox="0 0 192 192" xml:space="preserve">
    <style id="style2" type="text/css"/>
    <g id="g6" transform="translate(5.998677 5.998677) scale(4.23336)">
        <path id="path4" class="color-main color-green" fill="#529a31" d="M21.26 5.583c8.644 0 15.677 7.033 15.677 15.677 0 8.644-7.033 15.677-15.677 15.677-8.644 0-15.677-7.033-15.677-15.677 0-8.644 7.033-15.677 15.677-15.677m0-7C8.736-1.417-1.417 8.736-1.417 21.26S8.736 43.937 21.26 43.937 43.937 33.784 43.937 21.26 33.784-1.417 21.26-1.417z"/>
    </g>
    <g id="g34" transform="translate(5.998677 5.998677) scale(4.23336)">
        <g id="g32">
            <g id="g30">
                <g id="g12" class="color-orange" fill="#f8b131">
                    <path id="polygon8" d="M29.509 17.156l3.978-2.437-5.931 1.756 4.317-4.097-5.514 2.994 3.493-5.082-4.74 4.048 2.399-5.792-3.695 4.816 1.137-6.141-2.503 5.248-.159-6.095L21 11.749l-1.354-5.64-.152 5.798-2.38-4.989 1.111 5.995L14.686 8.3l2.389 5.77-4.616-3.943 3.552 5.168-5.479-2.974 4.473 4.244-6.016-1.782 3.287 2.015 2.081 1.041-4.157-.25-2.303-.181 4.942 1.784 17.841-.56 3.943-1.423-6.372.701z"/>
                    <path id="path10" stroke="#fff" stroke-miterlimit="10" stroke-width=".2266" d="M21.42 11.285c-3.645 0-6.6 2.955-6.6 6.6h13.2c0-3.645-2.955-6.6-6.6-6.6z"/>
                </g>
                <path id="path14" class="color-main color-green" fill="#529a31" stroke="#fff" stroke-miterlimit="10" stroke-width=".25" d="M21.655 41.507c9.195 0 16.649-8.851 16.649-19.769-2.874-1.752-8.796-4.789-16.689-4.779-7.847.01-13.736 3.028-16.608 4.779 1.848 11.457 9.058 19.769 16.648 19.769z"/>
                <g id="g20">
                    <path id="path16" class="color-main color-green" fill="#529a31" d="M21.26.247C9.655.247.247 9.655.247 21.26c0 11.605 9.408 21.013 21.013 21.013 11.605 0 21.013-9.408 21.013-21.013C42.273 9.655 32.865.247 21.26.247zm0 36.422c-8.51 0-15.409-6.899-15.409-15.409 0-8.51 6.898-15.409 15.409-15.409 8.511 0 15.409 6.899 15.409 15.409 0 8.51-6.899 15.409-15.409 15.409z"/>
                    <path id="path18" class="color-white" fill="#fff" d="M21.26 42.52C9.537 42.52 0 32.983 0 21.26S9.537 0 21.26 0s21.26 9.537 21.26 21.26-9.537 21.26-21.26 21.26zm0-42.026C9.81.494.494 9.81.494 21.26c0 11.45 9.316 20.766 20.766 20.766 11.451 0 20.766-9.315 20.766-20.766C42.025 9.81 32.71.494 21.26.494zm0 36.423c-8.633 0-15.656-7.024-15.656-15.657S12.627 5.603 21.26 5.603c8.633 0 15.656 7.023 15.656 15.656 0 8.633-7.023 15.658-15.656 15.658zm0-30.819c-8.361 0-15.162 6.802-15.162 15.162 0 8.36 6.802 15.162 15.162 15.162 8.36 0 15.162-6.801 15.162-15.162 0-8.36-6.802-15.162-15.162-15.162z"/>
                </g>
                <g id="g28" class="color-white" fill="#fff">
                    <path id="path22" d="M13.328 30.94c-.007-.04-.015-.086-.022-.137-.007-.051-.013-.099-.016-.143-.004-.044-.009-.073-.017-.088-.037-.029-.09-.081-.16-.154s-.145-.15-.226-.231c-.081-.081-.161-.158-.242-.231-.081-.073-.15-.128-.209-.165-.015-.007-.033-.023-.055-.049-.022-.026-.048-.055-.077-.088-.029-.033-.061-.063-.093-.088-.033-.025-.064-.038-.094-.038-.168-.015-.306-.035-.413-.061-.106-.026-.207-.041-.302-.044-.095-.004-.198.005-.308.027-.11.022-.253.073-.429.154-.22.096-.409.218-.567.369-.157.15-.31.262-.457.335.074-.132.164-.251.27-.357.106-.106.209-.204.308-.292s.191-.168.275-.242c.084-.073.149-.146.193-.22.088-.066.163-.121.225-.165.063-.044.125-.084.187-.121.063-.037.125-.071.187-.104.063-.033.134-.071.215-.116.125-.051.226-.088.302-.11.077-.022.148-.033.215-.033.073 0 .15.003.231.011.081.007.183.011.308.011.117-.007.238.029.363.11s.246.182.363.302c.117.121.229.25.335.385.106.135.208.26.303.374.095.114.182.204.258.27.077.066.141.084.193.055.117-.044.21-.115.28-.214.07-.099.128-.204.176-.313.048-.11.095-.212.143-.308.048-.095.104-.165.17-.209-.015 0-.029-.011-.044-.033-.015-.022-.025-.037-.033-.044-.015-.007-.013-.019.005-.033.018-.015.027-.029.027-.044 0-.015-.005-.041-.016-.077-.011-.037-.024-.062-.039-.077l-.041.01-.121-.561c-.066-.015-.125-.047-.176-.099-.051-.051-.07-.117-.055-.198l-.77-.44c-.154-.022-.299-.061-.435-.116-.136-.055-.277-.097-.423-.126-.103-.015-.251-.024-.446-.027-.194-.004-.396-.013-.605-.028-.209-.014-.405-.038-.588-.071-.184-.033-.315-.09-.396-.17-.007-.022-.021-.068-.039-.138-.019-.069-.031-.119-.039-.148-.022-.081-.039-.143-.049-.187-.011-.044-.019-.084-.022-.121-.004-.037-.002-.077.005-.121s.018-.11.033-.198c.007-.007.009-.025.005-.055-.004-.029-.002-.051.005-.066l.044-.066c-.007 0-.02-.009-.039-.027-.018-.019-.027-.031-.027-.039l-.033-.033v-.022c.014-.015.023-.039.027-.071.003-.033.009-.053.017-.061.125-.227.288-.471.489-.731s.423-.51.666-.748c.243-.238.495-.447.759-.627s.524-.299.781-.357c.007 0 .025.029.055.088.029.059.064.128.104.209.04.081.081.16.121.236.041.077.075.126.104.148.235.228.479.385.732.473.253.088.529.092.83.011.11-.029.204-.063.281-.099.077-.036.15-.073.22-.11.07-.037.143-.073.22-.11.077-.037.17-.066.28-.088.007-.007.004 0-.011.022s-.035.046-.061.072c-.026.025-.048.053-.066.082-.019.03-.027.048-.027.055-.198.162-.376.303-.534.423-.158.121-.303.222-.435.303-.132.081-.258.145-.379.192-.121.048-.244.083-.369.104-.183.029-.355.037-.517.022-.161-.015-.319-.062-.473-.143-.11-.044-.196-.088-.259-.132-.063-.044-.137-.103-.226-.176-.037-.029-.079-.079-.126-.149-.047-.069-.101-.139-.159-.209-.059-.069-.118-.132-.176-.187-.059-.055-.114-.079-.165-.071l-.286.154c-.132.096-.244.184-.335.264-.092.081-.164.167-.215.259-.051.091-.083.196-.093.313-.011.117-.002.256.027.418.029.154.086.292.17.412.084.121.192.2.325.237.029-.015.059-.024.088-.028.029-.003.059.009.088.039h.11c.051 0 .106.002.165.006.059.003.116.007.171.011.055.004.093.005.115.005.066.015.185.028.357.039s.348.028.528.05c.18.022.344.053.495.093.15.041.237.097.259.17l.099-.033c.007 0 .038.013.093.039.055.025.123.055.204.088.081.033.139.061.176.083.059.029.125.081.198.154.073.073.143.152.209.236.066.084.123.169.17.253.048.084.079.148.094.192.044.154.075.279.093.374.018.095.027.183.027.264 0 .074-.011.149-.033.226-.022.077-.052.174-.088.292 0 .007.005.024.016.05.011.025.017.042.017.049.007.088-.02.16-.083.214-.063.055-.112.116-.148.182-.037.059-.051.11-.044.154.007.044-.026.103-.099.176-.066.073-.18.191-.341.352-.162.161-.335.328-.522.5s-.367.332-.539.479c-.172.147-.303.242-.391.286-.059.022-.112.027-.16.016-.047-.011-.083-.039-.104-.083-.002-.015-.01-.042-.017-.083zm-2.227-5.648c.011.037.024.048.039.033.029-.007.041-.029.033-.066-.008-.037-.026-.051-.055-.044-.023.015-.028.04-.017.077zm.049.028c.007.033.025.049.055.049s.037-.018.022-.055c-.015-.037-.033-.055-.055-.055-.022.008-.029.028-.022.061zm2.118 1.732c.004.029.013.04.028.033.044-.029.044-.051 0-.066-.023-.007-.032.004-.028.033zm1.93 1.325c.007.033.026.046.055.039.022-.007.029-.027.022-.061-.007-.033-.022-.045-.044-.039-.029.009-.04.029-.033.061zm.231-.23c.007.033.026.05.055.05.022-.022.029-.048.022-.077-.007-.029-.022-.037-.044-.022-.029-.001-.04.016-.033.049zm.237.324c.011.029.031.037.06.022.022-.007.029-.026.022-.055-.008-.029-.026-.037-.055-.022-.029.007-.038.026-.027.055z"/>
                    <path id="path24" d="M16.419 27.107c.022-.183.044-.363.066-.539.007-.066.015-.111.022-.137.007-.026.015-.048.022-.066.007-.019.013-.041.017-.066.004-.026.005-.072.005-.138-.022 0-.025-.003-.011-.011.015-.007.033-.014.055-.022.022-.007.04-.011.055-.011.022 0 .026.007.011.022v-.22c.066 0 .11-.018.132-.055.022-.037.042-.084.061-.143.018-.059.044-.123.077-.192.033-.07.097-.141.192-.215.007-.007-.021-.022-.083-.044-.063-.022-.094-.037-.094-.044-.168.051-.359.116-.572.192-.213.077-.403.156-.572.237h-.099c-.015-.081.064-.18.236-.297.172-.117.423-.275.753-.473.022-.015.084-.055.187-.121s.215-.138.335-.214c.121-.077.233-.147.336-.209.103-.063.168-.101.198-.116.007.007.009.019.005.033-.003.015-.007.031-.011.049-.004.019 0 .033.011.044.011.011.039.017.083.017 0 .147-.029.282-.088.407s-.11.261-.154.407c-.103.279-.169.563-.198.853-.029.29-.044.581-.044.875 0 .206.025.405.077.6.051.194.135.379.253.555.007.015.025.044.055.088.029.044.061.091.094.143.033.052.064.101.093.149.029.047.051.079.066.093.007.015.016.035.027.061.011.026.017.046.017.061l.715.836c.015.007.055.035.121.083s.106.071.121.071h.033c.073-.044.167-.108.281-.192.113-.084.227-.178.341-.28.114-.103.214-.211.303-.325.088-.114.146-.214.176-.302.037-.118.062-.211.077-.281.015-.069.023-.13.027-.182.003-.051.003-.099 0-.143-.004-.044-.005-.095-.005-.154v-.275c0-.044.001-.079.005-.104.003-.026.005-.061.005-.104v-.847c-.029-.19-.046-.385-.049-.583-.004-.198-.042-.396-.116-.594 0-.007-.024-.055-.071-.143-.048-.088-.097-.185-.148-.292-.051-.107-.121-.248-.209-.423.007-.015.027-.009.061.016.033.026.069.055.11.088.04.033.077.064.11.093.033.029.057.041.072.033.059.059.106.108.143.148.037.04.084.093.143.159.044 0 .084.017.121.05.037.033.068.07.094.11.025.041.047.083.066.126.018.044.035.077.049.099.029.059.055.103.077.132.022.029.04.055.055.077s.029.048.044.077c.015.029.033.077.055.143.022.081.041.138.055.171.015.033.027.061.039.083.011.022.022.049.033.083.011.033.024.09.039.17.015.08.033.185.055.313s.033.236.033.324c0 .052-.008.116-.022.193-.015.077-.029.158-.044.242-.015.084-.033.167-.055.248-.022.081-.037.147-.044.198-.008.044-.028.093-.061.148-.033.055-.068.108-.104.159-.037.052-.07.104-.099.16-.029.056-.044.104-.044.148 0 .037.045.126.137.27.092.144.198.293.319.451.121.158.242.299.363.423.121.125.214.187.281.187.051 0 .108-.001.17-.005.062-.004.112-.02.148-.05.198-.19.385-.392.561-.605.176-.212.33-.434.462-.666.132-.231.233-.473.303-.726.069-.253.097-.512.083-.776-.015-.264-.039-.522-.072-.775-.033-.253-.084-.502-.154-.748-.07-.246-.164-.489-.281-.731-.117-.242-.264-.484-.44-.726-.161-.212-.295-.418-.401-.616-.106-.198-.192-.345-.259-.44-.066-.088-.137-.184-.214-.286-.077-.102-.156-.205-.236-.308-.081-.103-.156-.204-.226-.302-.07-.099-.13-.193-.182-.281-.051-.066-.093-.117-.126-.154-.033-.037-.063-.07-.088-.099-.026-.029-.039-.048-.039-.055-.022-.015-.092-.077-.209-.187-.117-.11-.246-.229-.385-.357-.14-.128-.266-.249-.38-.363-.114-.114-.178-.189-.192-.226-.007-.015-.064-.066-.17-.154-.106-.088-.235-.193-.385-.313-.15-.121-.313-.25-.489-.385s-.335-.26-.479-.374c-.144-.114-.257-.21-.341-.292-.084-.081-.116-.125-.094-.132l1.254.704c.015 0 .075.037.182.11.107.073.238.163.396.27.158.107.326.222.506.346.18.125.348.242.506.352.157.11.292.202.401.275.11.074.172.11.187.11.051.015.088.027.11.039.022.011.041.035.055.071 0 .007.003.019.011.033 0 .007-.005.024-.016.049-.011.026-.013.042-.006.049.073.037.132.066.176.088.044.022.088.046.132.071.044.026.077.046.099.061.022.037.04.055.055.055.022 0 .029-.004.022-.011.007.007.029.042.066.104.037.063.073.13.11.204.037.074.07.141.099.204.029.062.047.097.055.104v.066l.121-.077c.22.125.42.281.6.468s.341.381.484.583c.143.202.268.401.374.599.106.198.194.371.264.517.069.147.123.255.159.325.036.07.055.075.055.016 0 .015.003.048.011.099.007.051.015.084.022.099.007.022.031.079.071.17.04.092.064.148.072.17.007.015.009.042.005.083-.004.041-.005.064-.005.072.007.059.022.139.044.242.022.103.042.209.061.319.018.11.035.218.049.324.015.106.022.189.022.248 0 .169-.015.319-.044.451-.029.132-.068.27-.116.413-.048.143-.103.297-.165.462-.062.165-.126.361-.192.588 0 .007-.009.042-.027.104-.019.063-.027.097-.027.104-.015.015-.054.042-.116.083-.063.041-.101.071-.116.093-.022.022-.033.048-.033.077-.022.029-.099.103-.231.22s-.275.242-.429.374c-.154.132-.295.255-.423.368-.128.114-.204.186-.226.215-.103.103-.202.183-.297.242-.096.059-.191.136-.286.231-.037.037-.086.081-.148.132-.063.051-.121.103-.176.154-.055.051-.126.114-.214.187l-.187.077v-.044h-.044l-.22-.187c-.044.022-.108-.026-.193-.143-.085-.117-.176-.248-.275-.391-.099-.143-.196-.277-.292-.401-.096-.124-.172-.187-.231-.187-.022 0-.097.063-.226.187s-.271.266-.429.423c-.158.158-.313.308-.468.451-.154.143-.264.236-.33.28h-.022c-.051 0-.099-.031-.143-.093-.044-.062-.077-.108-.099-.138-.022-.022-.048-.051-.077-.088-.029-.037-.061-.073-.094-.11-.033-.037-.062-.07-.088-.099-.026-.029-.042-.048-.049-.055-.374-.374-.684-.766-.93-1.177-.246-.411-.368-.873-.368-1.386.001-.174.012-.353.034-.537zm4.345.44c0 .03.011.044.033.044.022 0 .033-.015.033-.044 0-.029-.011-.044-.033-.044-.022 0-.033.015-.033.044zm3.047-3.465c-.022 0-.026.026-.011.077.015.051.033.077.055.077.022-.007.044-.026.066-.055.022-.029.022-.04 0-.033zm.022.209c-.022 0-.026.007-.011.022.007.015.015.021.022.017.007-.003.011-.009.011-.017.007-.015 0-.022-.022-.022zm.071.209c.004.022.013.033.028.033.022-.007.033-.018.033-.033 0-.022-.011-.029-.033-.022-.022-.007-.031 0-.028.022z"/>
                    <path id="path26" d="M25.098 31.023c-.015-.073-.024-.13-.027-.17-.004-.04-.009-.093-.017-.16-.037.066-.066.054-.088-.038-.022-.092-.041-.206-.055-.341-.015-.135-.026-.268-.033-.396-.008-.128-.011-.2-.011-.214 0-.051.015-.081.044-.088l-.176-.132c.029 0 .044-.015.044-.044.007-.015.005-.051-.005-.11-.011-.059-.017-.095-.017-.11h-.033c0-.037-.004-.11-.011-.22-.007-.11-.015-.183-.022-.22 0-.015-.015-.044-.044-.088-.03-.044-.044-.073-.044-.088s.006-.057.017-.126c.011-.069.02-.115.028-.137 0-.007.013-.029.038-.066.026-.037.042-.059.05-.066v-.022c0-.044-.015-.079-.044-.104-.03-.025-.044-.057-.044-.093v-.099c0-.022.003-.041.011-.055.008-.014.02-.029.039-.044.018-.015.049-.04.093-.077h-.099c0-.146.02-.284.061-.412.04-.128.067-.255.082-.38 0-.015-.001-.059-.005-.132-.004-.073-.002-.117.005-.132s.029-.037.066-.066c.037-.029.059-.051.066-.066 0-.007-.007-.022-.022-.044s-.022-.037-.022-.044c0-.029.015-.044.044-.044-.029 0-.044-.015-.044-.044v-.044c0-.007.015-.022.044-.044.007-.015.017-.031.027-.05.011-.018.017-.031.017-.039 0-.014-.005-.031-.017-.049-.011-.018-.02-.031-.027-.039v-.266c0-.103.007-.194.022-.275.015-.081.037-.165.066-.253 0-.007.015-.022.044-.044.007-.015.017-.031.027-.049.011-.019.017-.031.017-.039 0-.029-.007-.044-.022-.044l.165-.319c.007-.014-.002-.018-.027-.011-.026.007-.057.019-.094.033-.037.014-.071.029-.104.044-.033.015-.053.022-.061.022-.103 0-.202.009-.297.027-.095.019-.228.027-.396.027-.015 0-.045.002-.093.006-.048.003-.075-.013-.083-.05.044-.066.097-.125.159-.176.063-.051.13-.101.204-.148.074-.047.154-.101.242-.16s.183-.132.286-.22c.029-.029.077-.057.143-.083.066-.025.106-.016.121.028-.022-.059.004-.11.077-.154s.163-.083.27-.115c.106-.033.209-.064.308-.094.099-.029.167-.059.203-.088-.022.037-.042.112-.061.226-.018.114-.035.235-.049.363-.015.128-.026.251-.033.369-.007.118-.011.198-.011.242.081 0 .168-.026.264-.077.095-.051.192-.114.292-.187.099-.073.198-.145.297-.214.099-.069.192-.126.28-.17.323-.147.675-.22 1.056-.22.146 0 .308.007.484.022s.339.051.49.11c.15.059.275.145.374.259.099.114.148.27.148.467 0 .176-.055.351-.165.522-.11.172-.248.339-.413.5-.165.162-.343.313-.534.457-.19.143-.365.27-.522.379-.158.11-.29.204-.396.281-.106.077-.152.13-.137.16.088.22.222.443.401.671.18.227.363.436.55.627.187.191.354.354.5.489.147.136.235.226.264.27.022.015.117.103.286.264.168.161.387.365.654.61.268.246.578.516.93.809.352.293.72.576 1.105.847s.777.517 1.177.737c.4.22.783.381 1.15.484.015 0 .084.004.209.011.125.007.26.013.407.017.146.003.279.005.396.005.125 0 .194-.004.209-.011.147-.059.253-.103.319-.132.066-.029.117-.053.154-.071.037-.019.07-.033.099-.044.029-.011.077-.031.143-.06.081-.037.183-.108.308-.215.125-.106.25-.192.374-.258.059-.029.073-.022.044.022-.029.044-.088.11-.176.198-.088.088-.192.191-.313.308-.121.117-.242.231-.363.341-.121.11-.237.209-.347.297-.11.088-.191.15-.242.187-.037.022-.057.045-.061.071-.003.026-.009.05-.016.072-.008.022-.026.04-.055.055s-.088.026-.176.033c-.095.066-.172.119-.231.16-.059.04-.136.093-.231.159-.007 0-.048.017-.121.05s-.154.069-.242.11c-.088.04-.17.075-.248.104-.078.029-.119.044-.126.044-.007 0-.027.007-.061.022s-.07.029-.11.044c-.041.015-.079.028-.116.039-.037.011-.059.017-.066.017-.044-.015-.101-.061-.17-.138-.07-.077-.126-.126-.17-.148-.118-.044-.202-.11-.253-.198-.052-.088-.121-.162-.209-.22-.007-.007-.025-.019-.055-.033-.03-.014-.048-.025-.055-.033-.015-.007-.084-.063-.209-.165-.125-.103-.28-.229-.467-.379s-.387-.313-.6-.49c-.213-.176-.411-.339-.594-.489-.183-.15-.339-.277-.467-.379-.128-.103-.196-.158-.204-.165-.176-.169-.389-.389-.638-.66-.25-.271-.512-.561-.787-.869-.275-.308-.556-.616-.842-.924-.286-.308-.559-.581-.819-.819-.26-.238-.495-.429-.704-.572-.209-.143-.375-.204-.5-.182-.015 0-.046.004-.093.011-.048.007-.099.015-.154.022-.055.007-.104.019-.148.033-.044.014-.066.029-.066.044l-.066.539c.059.022.088.077.088.165v.187c0 .066-.005.126-.017.182-.011.055-.016.112-.016.17h.044c0-.037.003-.061.011-.071.007-.011.029-.017.066-.017.037 0 .079.042.126.126.048.084.079.145.094.182.007.015.02.049.039.104.018.055.037.114.055.176.019.063.037.121.055.176.018.055.031.09.039.104 0 .007.025.039.077.093.051.055.073.086.066.094-.103.088-.204.196-.303.324s-.196.253-.292.374c-.096.121-.185.226-.27.313-.084.088-.159.132-.225.132-.037 0-.072-.011-.104-.033-.034-.024-.051-.057-.051-.101zm-.737-6.127c0 .029.011.044.033.044.022 0 .033-.015.033-.044 0-.029-.011-.044-.033-.044-.022 0-.033.015-.033.044zm.341 3.619c0 .029.011.044.033.044.022 0 .033-.015.033-.044 0-.029-.011-.044-.033-.044-.022 0-.033.015-.033.044zm.088.616c0 .029.011.044.033.044.022 0 .033-.015.033-.044 0-.029-.011-.044-.033-.044-.022 0-.033.015-.033.044zm0 .132c0 .029.011.044.033.044.022 0 .033-.015.033-.044 0-.029-.011-.044-.033-.044-.022 0-.033.015-.033.044zm.143-.154c-.022 0-.029.008-.022.022.015.029.029.029.044 0 .007-.014 0-.022-.022-.022zm.033-.638c0 .029.011.044.033.044.022 0 .033-.015.033-.044 0-.029-.011-.044-.033-.044-.022 0-.033.015-.033.044zm0 1.364c0 .03.011.044.033.044.022 0 .033-.014.033-.044 0-.029-.011-.044-.033-.044-.022 0-.033.015-.033.044zm0 .088c0 .029.011.044.033.044.022 0 .033-.015.033-.044 0-.029-.011-.044-.033-.044-.022 0-.033.015-.033.044zm.055-5.346c0 .029.011.044.033.044.022 0 .033-.015.033-.044 0-.029-.011-.044-.033-.044-.022 0-.033.015-.033.044zm.044 1.419c0 .029.011.044.033.044.022 0 .033-.015.033-.044 0-.029-.011-.044-.033-.044-.022 0-.033.015-.033.044zm.077 2.827c0 .029.011.044.033.044.022 0 .033-.015.033-.044 0-.029-.011-.044-.033-.044-.022 0-.033.015-.033.044zm.088 1.144c0 .029.011.044.033.044.022 0 .033-.015.033-.044 0-.029-.011-.044-.033-.044-.022 0-.033.015-.033.044zm.055-4.763c0 .029.011.044.033.044.022 0 .033-.015.033-.044 0-.029-.011-.044-.033-.044-.022 0-.033.015-.033.044zm.066 3.531h.066c.022 0 .046-.002.072-.006.025-.003.039-.023.039-.061v-.022zm.242-2.079c0 .029.011.044.033.044.022 0 .033-.015.033-.044 0-.029-.011-.044-.033-.044-.022 0-.033.015-.033.044zm.039.616c.003.029.031.044.083.044h.044l.44-.055c.029.007.07.004.121-.011.051-.015.103-.033.154-.055.051-.022.101-.046.148-.072.048-.025.086-.045.116-.061.154-.073.271-.123.352-.148.081-.025.156-.049.226-.071.069-.022.143-.055.22-.099.077-.044.189-.117.335-.22.095-.073.189-.141.281-.203.091-.063.172-.132.242-.209.07-.077.125-.163.165-.259.041-.095.061-.209.061-.341v-.22c-.161-.146-.356-.271-.583-.374-.228-.103-.458-.154-.693-.154-.25 0-.508.049-.775.148-.268.099-.479.255-.633.467-.037.044-.064.101-.083.171-.018.07-.033.141-.044.214-.011.073-.02.147-.027.22-.007.073-.015.136-.022.187-.015.059-.033.106-.055.143-.022.037-.033.084-.033.143v.066c0 .008.007.022.022.044s.022.037.022.044c0 .095-.015.188-.044.28-.03.092-.044.182-.044.27-.002.045 0 .082.004.111z"/>
                </g>
            </g>
        </g>
    </g>
</svg>
