<svg xmlns="http://www.w3.org/2000/svg" viewBox="0 0 170.1 170.1">
    <ellipse fill="#f58121" cx="85" cy="85" rx="72" ry="72.3"/>
    <path fill="#292b82" d="M85.2 18c25.6 1.1 45.7 12.2 58.8 35.6 4.1 7.3 6.6 15.3 7.4 23.8 2.4 25.8-6.9 46.1-26.6 61.5-9.1 7.1-19.5 11.2-30.7 12.6-21.4 2.6-40.1-3.6-56.1-18.9-4.9-4.7-8.9-10.2-12-16.2-3.8-7.3-6.2-15.1-7.2-23.4-.9-7.7-.5-15.2 1.1-22.6 1.8-8.3 5.3-16 10.1-23 2.8-4.1 6-7.9 9.5-11.3 2.7-2.7 5.8-4.8 8.9-6.9 8.9-5.9 18.5-9.4 29-10.6 2.6-.3 5.1-.5 7.8-.6zM60.9 81.1c-.1.4.2 1.8.3 1.9 2.5 2.3-3.3-.3-2 2.9 1.2 2.9 2.2 5.9 3.3 8.9.9 2.3.9 2.3 2.5.6 1.5-1.5 3-2.8 5.2-2.8 3.8 0 6.3 1.8 8.2 5 1.1 1.9 2.2 3.9 3.5 5.7 3.2 4.5 6 9.1 8.2 14.2.6 1.4 1.1 2.7 1 4.2 0 .6-.2 1.4.7 1.5.7.1 1.4.2 1.9-.6.5-.7 1-1.4 1.4-2.2 3.3-5.3 6-11.1 9.1-16.6 3.2-5.7 6.9-11 12.1-15 .5-.4.6-.9.6-1.5-.1-6.9-.3-13.8-.3-20.8 0-1.4-.4-1.6-1.6-1.5-7.4.4-14.9.6-22.3 1-.4 0-.8.1-1.2-.3-1.2-1.4-2.8-2.3-4.4-3.1s-3.4-1.5-5.3-1c-1.5.4-2.2 0-2.8-1.4-.4-1.1-.6-2.3-.6-3.5 0-3 .4-5.9.8-8.8.1-.5.5-1.3-.6-1.2-3.3.2-6.6 0-9.9-.1-1.3 0-1.7.5-1.7 1.9 0 9-.2 18-.3 27 0 1.8-.5 2.4-2.2 2.7-1.6.3.8 1.3-.7 1.1-2-.3-.5 1.9-2.9 1.8zm-13.8 55.2c2.1-5.6 4.2-11 6.3-16.5 2.2-5.8 4.5-11.6 6.6-17.5.8-2.2 2.3-4.2.8-6.9-1-1.9-1.3-4.2-3.5-5.3-.7-.3-1.3-.9-1.9-1.4-8-5.7-16.1-11.3-24.2-17-2-1.4-4.1-2.8-6.1-4.2-.7-.5-1.1-.5-1.3.6-.1.9-.4 1.9-.7 2.8-.9 2.8-1.2 5.8-1.4 8.7-.3 4.3-.3 8.7.3 13 .5 3.8 1.3 7.6 2.4 11.3 1.2 4.2 2.9 8.1 5 11.9 3.1 5.8 7 10.9 11.7 15.4 1.9 1.7 3.8 3.5 6 5.1zM148.6 85c-.2-2.5 0-4.9-.4-7.4-.5-3.2-1.1-6.3-1.8-9.5-.2-1-.5-1-1.2-.5-1.5 1-3 2-4.6 3-6.4 4.2-12.7 8.5-19.1 12.5-1.8 1.1-2.9 2.2-2.4 4.5.3 1.5-.4 2.6-1.6 3.4-2.3 1.5-4 3.7-5.8 5.7-.5.5-1.1 1.1-.8 2 .5 1.3 1 2.6 1.4 3.9 1.6 4.7 3.1 9.5 4.7 14.2 1.9 5.5 3.8 10.9 5.6 16.5.9 2.9 1.2 3 3.3 1.1 3.6-3.3 7.1-6.8 10-10.8 3.4-4.7 6.2-9.6 8.4-15.1 1.7-4.3 3-8.8 3.7-13.4.4-3.4 1-6.7.6-10.1zm-14.8-20.1H144c1.2 0 1.5-.4 1-1.6-.6-1.3-1.1-2.7-1.7-4.1-2.5-5.7-5.8-11-9.9-15.6-3-3.4-6.2-6.6-9.8-9.3-3-2.3-6.1-4.4-9.5-6.1-3.3-1.7-6.7-3.2-10.3-4.3-2.6-.8-5.3-1.6-8-2-2.8-.4-5.6-1-8.5-.8-1.3.1-1.2.6-.9 1.5.5 1.7 1 3.3 1.5 5 .8 3.1 1.6 6.3 2.5 9.4 1 3.7 2.2 7.4 3.2 11.2 1.2 4.4 2.3 8.9 3.6 13.3.6 2.3.7 2.3 3.1 2.3.8 0 .6 3.1 2.3 0 2.5 0 4.4 4.3 7.4 1 1.8-1.9 1 .8 3.5.6.5 0 .5.3 2.1 0 1.2-.3 3.7-.1 4.6-.2 4.1-.3 8.4-.1 13.6-.3zM71.4 45c1.4 0 2.8-.1 4.2 0 1.2.1 1.7-.5 2-1.5.2-.7.4-1.3.6-1.9 2-6.3 3.8-12.7 5.9-19 .4-1.3.2-1.3-.9-1.3-3.4-.1-6.7.7-10 1.1-3.5.5-6.8 1.5-10 2.7-3.6 1.3-7.1 2.9-10.4 5-3.6 2.3-7.1 4.7-10.3 7.6-3.1 2.8-5.9 5.9-8.5 9.3-1.9 2.6-3.7 5.4-5.2 8.3-1.4 2.6-2.4 5.3-3.5 7.9-.7 1.5-.6 1.9 1 1.9 4.9.3 9.9.4 14.8.7 7.5.4 15 .8 22.6 1.1 1.1 0 1.5-.2 1.5-1.5V46.8c0-1.2.4-1.7 1.6-1.7 1.6-.1 3.1-.1 4.6-.1zm17.8 76.3v-.6c-.6-3.2-2.5-5.8-3.8-8.7-.5-1.1-1.2-.9-1.9-.4-4.4 3.3-8.9 6.6-13.3 9.9-6.4 4.7-12.7 9.5-19.1 14.2-2.3 1.7-2.3 1.6 0 3.3l1.2.9c3.8 2.1 7.6 4.1 11.6 5.5 2.6.9 5.2 1.5 7.8 2.2 1.5.4 3 .3 4.4.7 3.3.8 6.7.6 10 .9 1.2.1 2.5-.3 3.7-.4 3.6-.1 7.1-.8 10.6-1.7 3.7-.9 7.3-2.1 10.8-3.7 3.1-1.4 6.1-3 8.9-4.9 1.5-.9 1.5-1.3.1-2.4l-12.3-9.9c-2.8-2.3-5.7-4.5-8.5-6.7-.6-.5-1-.5-1.4.3-.8 1.5-1.8 3-2.8 4.4-1.1 1.5-2.2-.9-3.9-1.6-1.8-.7-2.1.4-2.1-1.3zm-40.3 13.2c.8 0 .9-.7 1.2-1.1 4.7-7.1 9.4-14.2 14-21.3 3.2-4.9 6.4-9.8 9.7-14.7.9-1.4.9-1.5-.6-2.1-2.4-1-4.5-.8-6.3 1.3l-1.5 1.5c-.5.5-1.2 1-1.9.8-.9-.3-1.1.3-1.3.9-4.5 11.5-8.8 23.1-13.3 34.7zm72.9.7h.4c-4.1-12-8.1-23.9-12.3-36.2-1.1 1.8-2.1 3.2-3 4.7s-2.3 3.1-2.3 4.6c0 1.4 1.6 2.9 2.5 4.3 4.9 7.5 9.8 15.1 14.7 22.6zM85.2 23.7c-.4.1-.4.3-.4.5l-5.7 18.3c-.7 2.3-.7 2.4 1.6 2.2.8 0 1.1.1 1 1-.2 1.2-.3 2.4-.4 3.6-.4 3-.9 5.9-.7 8.9.1 1 .3 1.8 1.6 1.4.6-.2 1.2-.2 1.8 0 1.2.3 1.3-.2 1.3-1.2V35.9c-.1-4.1-.1-8.1-.1-12.2zM28.4 66.5c12.2 2.8 24.3 5.4 36.7 8.2V69c0-.8-.2-1.1-1-1.1-1.7 0-3.4-.2-5.1-.2-8.4-.4-16.9-.8-25.3-1.2-1.8-.1-3.6 0-5.3 0zm115-.1h-23c-1.4 0-1.9.4-1.7 1.9.1.8.1 1.6 0 2.3-.1 1.1.2 1.3 1.3 1.1 2.5-.6 4.9-1.1 7.4-1.7 5.4-1.3 10.7-2.4 16-3.6z"/>
    <path fill="#f5c800" d="M94.3 91c-.4-.3-.4-.5-.4-.8-.6-5.1-1.2-10.2-1.7-15.4-.1-.9-.4-1.1-1.2-1.1-1.6.1-3.1.1-4.7 0-.9 0-1.1.3-1.2 1.1-.7 3.9-1.4 7.7-2.2 11.6-.6 3.1-1.1 6.3-1.8 9.4-.2.9 0 1.3.9 1.2.8-.1 1.6 0 2.4 0 .6 0 .8-.2.9-.8.2-1.4.5-2.8.8-4.2.8-4.3 1.6-8.6 2.4-13 .4.2.4.4.4.7l1.5 13.8c.3 3.5.3 3.5 3.6 3.5h.3c1 .2 1.5-.3 1.9-1.2 2.5-5.2 5-10.5 7.5-15.7.1-.3.1-.7.7-.6 0 .4-.1.8-.1 1.2-.8 4.3-1.5 8.7-2.3 13-.7 3.5-.7 3.5 2.7 3.4.7 0 .9-.3 1.1-1 .7-4.1 1.5-8.2 2.3-12.3.6-3.3 1.2-6.6 1.9-10-2 0-3.8.1-5.5 0-1.2-.1-1.8.4-2.3 1.5-2.6 5.2-5.3 10.4-7.9 15.7zM79.2 65.5h-5.5c-.8 0-1.1.2-1.3 1.1-.5 2.8-.5 2.8 2.2 2.8h.6c1.3-.2 1.5.4 1.2 1.5-1 4.9-1.9 9.8-2.9 14.7-.6 3.2-.6 3.1 2.5 3.2 1 0 1.3-.4 1.4-1.3 1-5.5 2.1-10.9 3.1-16.4.2-1.3.7-1.8 2-1.7 2.9.1 2.8 0 3.2-2.9.1-.9-.2-.9-.9-.9-1.9-.1-3.7-.1-5.6-.1z"/>
    <path fill="#fff3e4" d="M48.9 134.5l13.2-34.8c.3-.7.4-1.2 1.3-.9.7.2-.9-4.6-.4-5.1s3.2 2.1 3.7 1.6c1.8-2 4.1-1 6.5 0 1.5.6 1.5.8.6 2.1-3.2 4.9-6.4 9.8-9.7 14.7-4.7 7.1-9.3 14.2-14 21.3-.2.4-.4 1.1-1.2 1.1zm72.9.7c-4.9-7.5-9.8-15.1-14.7-22.6-.9-1.4-2.5-2.8-2.5-4.3s1.4-3.1 2.3-4.6 1.8-2.9 3-4.7c4.2 12.3 8.2 24.2 12.3 36.2h-.4zM85.2 23.7v34.6c0 1.1-.1 1.6-1.3 1.2-.6-.2-1.3-.2-1.8 0-1.3.5-1.5-.3-1.6-1.4-.2-3 .3-6 .7-8.9.2-1.2.3-2.4.4-3.6.1-.9-.2-1.1-1-1-2.3.1-2.3.1-1.6-2.2l5.7-18.3c.2 0 .1-.3.5-.4zM28.4 66.5c1.8 0 3.5-.1 5.3 0 8.4.4 16.9.8 25.3 1.2 1.7.1 3.4.2 5.1.2.8 0 1 .3 1 1.1-.1 1.8 0 3.7 0 5.7-12.4-2.7-24.6-5.4-36.7-8.2 0 .1 0 0 0 0zm115-.1c-5.3 1.2-10.6 2.4-16 3.6-2.5.6-5 1.1-7.4 1.7-1 .3-1.3 0-1.3-1.1.1-.8.1-1.6 0-2.3-.2-1.4.2-1.9 1.7-1.9h23z"/>
    <g fill="#e63027">
        <path d="M94.3 91c2.6-5.3 5.2-10.5 7.8-15.7.5-1.1 1.1-1.6 2.3-1.5 1.8.1 3.6 0 5.5 0-.6 3.4-1.3 6.7-1.9 10-.8 4.1-1.5 8.2-2.3 12.3-.1.7-.4 1-1.1 1-3.4.1-3.4.1-2.7-3.4.8-4.3 1.6-8.7 2.3-13 .1-.4.1-.8.1-1.2-.5-.1-.5.4-.7.6-2.5 5.2-5 10.4-7.5 15.7-.4.9-.9 1.5-1.9 1.2h-.3c-3.3 0-3.3 0-3.6-3.5-.4-4.6-1-9.2-1.5-13.8 0-.2-.1-.5-.4-.7-.8 4.4-1.6 8.7-2.4 13-.3 1.4-.6 2.8-.8 4.2-.1.6-.4.8-.9.8-.8 0-1.6-.1-2.4 0-.9.1-1.1-.3-.9-1.2.6-3.1 1.2-6.3 1.8-9.4.7-3.9 1.5-7.7 2.2-11.6.1-.8.4-1.2 1.2-1.1 1.6.1 3.1.1 4.7 0 .8 0 1.1.2 1.2 1.1.5 5.1 1.1 10.2 1.7 15.4.1.2.1.5.5.8z"/>
        <path d="M103.3 98.6c-1.3 0-2.1-.1-2.7-.9-.8-1-.6-2.2-.1-4.3.3-1.7.6-3.5 1-5.4-1.3 2.8-2.7 5.6-4 8.4-1 2.2-2.5 2.3-3.4 2H94c-4.1 0-4.7-.6-5.1-4.9l-.6-5.7c-.3 1.4-.5 2.9-.8 4.3-.3 1.5-.6 2.8-.8 4.1-.2 1.3-1.1 2.1-2.4 2.1H82c-.9.1-1.6-.1-2.1-.7-.8-.8-.5-2-.4-2.3.3-1.5.6-3.1.9-4.7.3-1.6.6-3.1.9-4.6.3-1.9.7-3.9 1.1-5.8.4-1.9.7-3.8 1.1-5.8.1-.7.3-1.3.7-1.7.4-.4 1-.8 2.1-.6 1.4.1 2.9.1 4.4 0 1.7 0 2.6.8 2.8 2.4.4 4 .8 7.8 1.3 11.9 2-4 3.9-7.9 5.9-11.9.3-.6 1.1-2.5 3.7-2.3 1.1.1 2.2 0 3.5 0h3.7l-.3 1.7c-.3 1.9-.7 3.7-1 5.5l-.9 4.5c-.4 2.1-.8 4.1-1.1 6.1-.4 2.1-.8 4.1-1.2 6.2-.2 1.4-1.1 2.2-2.6 2.2-.4.2-.8.2-1.2.2zm-.3-3h1.2c.4-2 .8-4 1.1-6 .4-2.1.8-4.1 1.2-6.2l.9-4.5c.2-1.2.5-2.4.7-3.7h-3.8c-.5 0-.6 0-.9.6-2.6 5.2-5.2 10.4-7.8 15.7l-.8 1.6-1.4-1.1c-.7-.5-.9-1.1-1-1.3l-.1-.2v-.2l-.2-1.7c-.5-4.6-1-9-1.5-13.4-1.4.1-2.8.1-4.2 0-.4 2-.7 3.8-1.1 5.7-.4 1.9-.7 3.8-1.1 5.8-.3 1.5-.6 3.1-.9 4.7-.3 1.4-.5 2.8-.8 4.2h1.2c.2-1.3.5-2.6.7-3.8.8-4.3 1.6-8.6 2.4-13l.4-2.2 1.9 1.3c.6.4 1 1.1 1.1 1.8.2 1.5.3 3 .5 4.5.4 3 .7 6.2 1 9.2.1.9.1 1.7.3 2.1.3.1 1.1.1 1.9.1h.7c0-.1.1-.2.2-.4 2.5-5.3 5-10.5 7.5-15.7l.2-.3c.7-1.3 1.7-1.2 2.2-1.1l1.2.2v1.2c0 .4 0 .9-.1 1.5-.7 4.5-1.6 9.1-2.3 13-.3.6-.4 1.2-.5 1.6z"/>
    </g>
    <g fill="#e63027">
        <path d="M79.2 65.5h5.7c.7 0 1 0 .9.9-.4 2.9-.3 3-3.2 2.9-1.3 0-1.7.4-2 1.7-1 5.5-2.1 11-3.1 16.4-.2.9-.4 1.3-1.4 1.3-3.1-.1-3.1 0-2.5-3.2 1-4.9 1.9-9.8 2.9-14.7.2-1.2.1-1.8-1.2-1.5h-.6c-2.7 0-2.6 0-2.2-2.8.1-.9.5-1.1 1.3-1.1 1.7.1 3.5.1 5.4.1z"/>
        <path d="M76.1 90.2h-.3c-1.7-.1-2.8-.1-3.5-1-.7-.9-.5-2-.2-3.9.5-2.5 1-5 1.5-7.4.5-2.4.9-4.7 1.4-7.1h-.3c-1.6 0-2.6 0-3.4-.8-.7-.8-.6-1.8-.3-3.4v-.3c.1-1.1.7-2.4 2.8-2.4 1.7.1 3.5.1 5.4.1h5.7c.6 0 1.3 0 1.9.7.6.7.5 1.6.5 1.9v.3c-.5 3.4-1.2 4-4.7 3.9h-.3c0 .1-.1.2-.2.5-.5 3-1.1 6-1.7 9.1-.5 2.4-.9 4.9-1.4 7.3-.2.8-.6 2.5-2.9 2.5zm-1.3-3h1.3v-.1c.4-2.4.9-4.8 1.4-7.3.6-3 1.2-6.1 1.7-9.1.3-1.5 1-2.9 3.5-2.9h1.5c0-.2.1-.5.1-.9h-5c-1.8 0-3.6 0-5.3-.1v.1c0 .3-.1.6-.1.8h1.3c.5-.1 1.5-.2 2.3.5.9.8.7 2.1.6 2.7-.5 2.5-1 4.9-1.5 7.4s-1 4.9-1.5 7.4c-.1.6-.2 1.1-.3 1.5z"/>
    </g>
    <path fill="#fff" d="M95.6 30.1c.6-1.3 1.2-2.6 1.7-4 .6-1.7 1.7-.7 2.6-.6 1 .1.3.9.3 1.4-.3 2-.6 4.1-.9 6.1-.1.7.1 1.5-1.1 1.4-1.2-.2-.7-.9-.6-1.5.2-1.4.4-2.8.4-4.3l-1.8 4.2c-.3.7-.4 1.2-1.4 1-.9-.2-.9-.7-.9-1.3-.1-1.5-.3-3-.7-4.6-.2 1.5-.5 3-.7 4.6-.1.6-.2.9-.9.8-.5-.1-1-.1-.9-1 .4-2.5.8-5 1.2-7.6.1-.8.7-.5 1.1-.5.7.1 1.7-.2 1.8 1.1.1 1.6.3 3.1.5 4.7.1.1.2.1.3.1zm39 27c-1.1.6-2.2 1.1-3.2 1.7-.5.3-1 .5-1.4-.3-.3-.7-.1-1 .5-1.3 1.9-1 3.7-2 5.6-3.1.4-.2.9-1 1.4-.2.5.6.6 1.3.1 2.1-.9 1.5-1.8 3.1-2.9 5 1.6-.9 2.9-1.6 4.1-2.3.5-.3.9-.6 1.2.2.3.6.4 1-.4 1.4-2 1-3.9 2.2-5.8 3.2-.4.2-.8.8-1.2.2s-.9-1.1-.4-2c.9-1.4 1.6-3 2.4-4.5 0-.1.1-.2.1-.3.1.1 0 .2-.1.2zm-28.1-19.7l-2.4-.9c-.7-.3-1.4-.7-2.1-.8-1.3-.3-1.4-.9-1-2.1.8-2 1.5-4.1 2.2-6.2.2-.6.4-.9 1.1-.6 1.4.6 2.9 1.1 4.4 1.7.6.2 1 .5.7 1.3s-.8.5-1.3.3l-2.4-.9c-.5-.2-1-.5-1.3.4-.2.8-.1 1.2.7 1.4.8.2 1.5.6 2.2.9.6.2.8.4.6 1.1-.3.8-.7.6-1.2.4-.6-.3-1.2-.5-1.8-.7-1-.5-1.6-.3-1.8 1-.1.7 0 .9.5 1.1l3 1.2c.5.2.7.5.5 1-.1.1-.1.4-.6.4zm17.2 12.4c2.7-1 5.4-1.9 8.1-2.9.5-.2.8 0 1.1.4s.9.7.6 1.4l-4.2 8.1c-1-.8-1.6-1.6-.7-2.8.3-.3.3-.7 0-1.1l-1.5-1.8c-.7-.9-1.3 0-1.9.1-.9.3-.9-.8-1.5-1.4zm7.5-.8c-1 .4-2 .6-2.5 1.2-.3.4.6 1 1 1.6.6-.9 1.1-1.7 1.5-2.8zm-16.8-7.4c-1.8-.6-1.8-.6-2.2-4.4-.9.5-1.7.9-2.5 1.4-.3.2-.6.4-1 .1-.3-.3-1.1-.3-1.1-.8 0-.6.6-.7 1-.8 2.7-1 3.9-2.7 3.1-5.7-.1-.4 0-.8 0-1.2 2.5.3 1.7 2.4 2 3.9.5.2.8-.3 1.2-.5.4-.2.7-.4 1.1-.6.8-.5 1.5.2 1.8.6.4.6-.5.7-.9.9-3.1 1.9-3.1 1.9-2.7 5.6.2.4.4 1 .2 1.5zm4.7 2.5c0-1.9 1.7-4.3 3.6-5 1.5-.5 3.3.1 4.4 1.6.6.8.8 1.7.7 2.6-.1.4.1 1.2-.7 1-.5-.1-1.3-.3-1.2-1.2.2-1.1-.2-1.8-1.1-2.3-1-.4-1.7 0-2.4.7-.5.5-1 1.1-1.3 1.7-.4.8-.4 1.5.1 2.2s1.2 1 2 .6c.9-.4 1.3.1 1.5.8.3 1.1-.6.9-1.1 1.1-2.1.7-4.5-1.3-4.5-3.8zm-2.8-.8c-.8-.1-1.2-1.1-.8-1.8 1.3-1.9 2.6-3.8 3.8-5.8.5-.7.9-.7 1.5-.2.6.4.5.7.1 1.3-1.3 1.9-2.6 3.8-3.9 5.8-.1.2-.2.7-.7.7zM70.9 27.6c.6 0 1.1 0 1.6.1 1.7.4 2.6 2.2 1.9 3.9-.9 2-4.5 2.7-6 1.1-.4-.4-1-.9-.5-1.4.4-.5 1.2-.8 1.8.1.4.6 1.1.7 1.8.5.7-.2 1.3-.5 1.2-1.4 0-.9-.8-.8-1.4-.9-.8 0-1.5 0-2.3-.1-1.1-.2-1.9-.8-2.1-2.1-.1-1.2.3-2.1 1.4-2.6 1.4-.7 2.8-1.1 4.1-.1.4.3 1.1.9.7 1.4s-1.2.9-1.8.1c-.6-.7-1.2-.5-1.8-.3-.4.2-.9.4-.8 1 .1.5.6.5 1 .6.5.2.9.1 1.2.1zM45.9 42c.6-.7 1.4-1.4 2.2-2.2.5-.5.9-.6 1.4 0 .3.4.3.6-.1 1-.7.5-1.2 1.2-1.9 1.7-.7.6-.8 1-.2 1.7.7.8 1.1.6 1.7 0 .7-.7 1.4-1.3 2.1-2 .4-.4.8-.4 1.2.1s.4.8-.1 1.2c-1.3 1.1-2.6 2.3-3.8 3.5-.5.5-.8.3-1.2-.1-1.6-1.9-3.2-3.7-4.7-5.6-.3-.4-.5-.7 0-1.1 1.3-1.1 2.6-2.3 3.8-3.5.5-.5.8-.2 1.1.2.4.5.3.7-.1 1.1-.8.7-1.6 1.5-2.4 2.2-.3.2-.5.5-.2.9.3.3.5.7 1.2.9zm13.7-4.4c.3-2.7-.1-5.5 0-8.2 0-.8 0-1.3.9-1.7.9-.4 1.3.1 1.8.7 1.6 1.7 3.2 3.4 4.8 5.2.3.3 1 .6.4 1-.4.4-1.2 1-1.7.2-.9-1.4-1.8-.9-2.9-.4-.9.4-1.5.8-1.4 2 0 1.3-1 1.3-1.9 1.2zm1.8-7.5c-.3.9 0 1.6-.1 2.2 0 .8.3.7.9.5 1-.3 1.3-.7.4-1.5-.4-.2-.7-.6-1.2-1.2zm-1.9 7.5c-.2 1.1-1.2 1.7-2.2 1.4-.8-.3-1.7-1.2-2.4-.8-.4.3-.1 1.6-.1 2.5 0 1.2-1 1.2-1.8 2 0-1.6-.1-3 0-4.4 0-.9-.3-1.4-1.1-1.8-1.1-.4-2.1-1-3.3-1.5 1-1 1.7-1.4 3-.7 1.4.9 1.6.8 1.5-1-.1-1.4.4-2.2 1.8-2.6 0 1.4.1 2.7.1 4.1 0 .8.2 1.2.9 1.4 1.2.4 2.3 1.2 3.6 1.4zm-19 5c.3.3.6.5.8.8.3.4 0 .7-.3.9-1.3 1.1-.8 1.8.3 2.6 1.1.9 2.1 1.9 3.2 2.8.5.4.9.7.3 1.5-.6.7-.9.6-1.5 0-1.2-1.1-2.4-2.1-3.6-3.3-.8-.8-1.3-.8-1.9.2-.3.6-.8 1.2-1.5.3-.2-.3-.4-.5-.1-.9 1.3-1.5 2.6-3.1 3.9-4.7.1 0 .2-.1.4-.2zm25.2 95.5c.7 1.4.7 2.8 1.1 4.5 1-1.5 2-2.9 2.9-4.3.6-.9 1.2-1.8 1.8-2.8.4-.6.7-.9 1.5-.7.7.2 1.1.5 1.2 1.3.3 2.4.7 4.8 1 7.3 0 .4.6 1.1-.2 1.2-.6.1-1.7.1-1.6-.9.1-1.6-1-1.7-2.1-2-.9-.2-1.7-.3-2.2.9-.2.5-.6.7-1.2.4-.2-.1-.5-.2-.7-.2-2-.2-3-1.4-3.1-3.5 0-.3-.1-.6-.2-.9-.2-.7-.6-1.2-1.2-1.3-.7 0-.6.7-.8 1.2-.2.4-.3.8-.5 1.2-.2.6-.3 1-1 .7-.6-.3-1-.5-.7-1.4.8-2.1 1.6-4.3 2.4-6.4.3-.9.7-1.1 1.5-.7.9.4 1.8.7 2.8 1.1 1.6.7 2.3 1.7 2.2 2.9-.2 1.4-1 2.1-2.9 2.4zm-.5-1.8c1 .2 1.4-.3 1.3-.9-.2-1.4-1.5-1.4-2.5-1.7-.8-.2-1 1.1-.9 1.4.4 1.2 1.6 1 2.1 1.2zm7.4 1.2c-.7.5-.9 1.2-1.3 1.7-.5.6-.1.8.4.9.8.3 1.5.4 1.1-.9-.2-.5-.2-1.1-.2-1.7zm15.8 4.3c.2-1.5.5-3 .7-4.4.1-.9.5-1.1 1.3-1.1.8-.1 1.2 0 1.5.9.4 1.5.9 2.9 1.6 4.3.2-1.6.5-3.1.6-4.7.1-1.1.7-1 1.3-1 1 0 .5.8.4 1.2-.3 2.4-.7 4.8-1 7.1-.1.8-.4 1-1.1 1-.7.1-1.1-.1-1.3-.9-.3-1.1-.8-2.1-1.1-3.2-.1-.4-.3-.8-.7-.8-.4 0-.4.5-.5.9-.2 1-.4 2-.5 3-.1.8-.2 1.2-1.1 1.3-.8.1-1.2-.2-1.4-1-.7-2.2-1.4-4.4-2-6.6-.1-.4-.8-1.1.2-1.3.8-.2 1.3-.1 1.5 1 .3 1.4.8 2.8 1.3 4.2.1.1.2.1.3.1zm7.7 1.9c.4-2.6.8-5.2 1.1-7.8.1-.8.5-1.2 1.2-1.3.8-.2 1.1.2 1.5.8 1.3 2 2.7 4 4 6 .2.3 1 .7.3 1.1-.5.3-1.2.7-1.8 0-.4-.4-.5-1.3-1.1-1.2-.9 0-1.8.4-2.7.6-.6.2-.4.7-.4 1.1-.1.8-.4 1.2-1.2 1.4-.8.1-1.1 0-.9-.7zm4.4-4.1c-.6-.9-.9-1.8-1.7-2.4-.4 3-.4 3 1.7 2.4zm0-5.2c2.3-1.9 3.2.9 4.8 1.4.9-1.4-.3-4.1 2.6-4.3 0 .9-.1 1.8-.4 2.7-.6 2.1-.6 4.1.4 6.1.4.8-.3.8-.7 1.1-.4.3-.9.3-1-.3-.5-3.1-3-4.4-5.1-6.1l-.6-.6zm-20.7 6.3c.1-1.2.1-2.4.1-3.7 0-.8.4-.8 1-.8s.8.2.8.8c-.1 1.6 0 3.2-.2 4.8-.2 1.5.3 2 1.7 1.9.6-.1 1.1.1 1.7 0 .6 0 .8.2.8.8 0 .7-.3.8-.9.8-1.5-.1-2.9-.2-4.4-.2-.8 0-.9-.3-.9-1.1.1-1.2 0-2.4 0-3.5.2.2.2.2.3.2zm-3.5 3.1c.3-2.3.6-4.8.9-7.2.1-.7.4-.9 1-.8.5.1 1 .2.9 1-.4 2.4-.7 4.8-1 7.3-.1.8-.4 1-1.1.8-.6-.1-1-.3-.7-1.1z"/>
    <path fill="#df1015" d="M134.6 57.1c.1 0 .2 0 .3-.1 0 .1-.1.2-.1.3-.1 0-.2-.1-.2-.2z"/>
    <path fill="#be111f" d="M128.2 88.5l-.3-.4V88l.1-.1v-.6h-.2v-.5l-.1-.1-.2-.2v-.4l.1-.1-.1-.1-.1-.1-.1-.1v-.4h-.1v-.1h.1l-.2-.1h-.1l-.2-.2-.1-.1v-1.7l-.2-.3v-.3l-.1-.1-.1-.1-.1-.1-.1-.1-.2-.1-.1-.3-.1-.1-.1-.1V68.4h-.1l-.1-.1-.2-.2-.1.1h-.2l-.2-.1h-.1l-.1.1h-.1l-.3-.2h-.1l-.1.1v.1l-.1.1-.1-.1-.1.1h-.1v-.1l.1-.1V68h-.4l-.1-.1v-.2l-.1-.2h-.3l-.1-.1v.1l-.3-.1-.1-.1h-.3v-.1h-.4l-.1-.1-.1-.1-.1-.2h-.2l-.2-.1-.4-.1-1.4-.6-.1-.2v-.1h-.2v-.2h-.4l-.1-.1-.2-.2-.1-.1-.2-.1v-.1l-.1-.1-.4-.2h-.1l-.1.1v.3h-.1v.1h-.4v.2h-.8v-.1h-.5l.1-.1-.1-.1-.1-.1h-.1l-.1-.1h-.1l-.1.1-.1.2h-.2l-.2.1h-.2l-.1.1v.1h-.4v.3l-.1.1v-.1h-.1v.1h-.3l-.4-.2-.1-.1h-.1l-.1.1-.1.1v.1l-.1.1-.1.1-.2.1h-.9l-.1.1h-.1l-.1.1-.1.3-.1.1-.1.1h-.6v.4l-.2.1-.2-.2-.2-.3-.1-.8h-.6v-.3l-.1-.1-.3-.1-.1-.1.1-.2-.1-.1-.2-.1h-.2v.1l-.1.3h-.4l-.2-.1h-.5l-.1-.1v-.5h-.5v.4l-.1.2-.1.1h-.1l-.2-.1v.2h.1v.2l-.1.1v.3l-.1.2-.1.1h-.2l-.2-.1-.1-.2-.1-.2v-.3l.1-.2v-.2l-.1-.1-.1-.1-.1-.1h-.1v.1l-.1.2v.1l-.2-.2h-.1l-.1.1v.1h-.7l-.1-.1v-.4l-.1-.1-.1-.1h-.5l-.1-.1-.1-.2V64l-.1-.1-.3-.1-.3.1-.2.2-.6.6-.3.2-.3.1-.3-.1-.2-.1-.1-.1v-1h-.1l-.2-.1-.9.6-.2-.2v-.9l-.2-.1h-.2l-.3.1h-.2L96 63h-.2l-.1.1-.1.2-.1.1v.1H95v.1l-.2-.3-.1-.1-.2-.2H94l-.4.2h-.1l-.8-.2-.1-.1-.6-.4h-.5l-.3-.1h-.6l-.1-.1v-.8l-.1-.1-.2-.2-.2-.1v-.2l-.1-.1-.1-.1h-.3l-.1-.1v-.3l-.1-.1h-.1l-.1.1v.4l-.1.3-.1.1h-.2l-.1-.1-.3-.1h-.5v.1h-.6l-.1-.1-.1-.2-1.1-1.1h-.8v-17l-2.4-2.2-1.1 2.2H64.7v38H40.4v.1l.1.3v.5l.2.2v.2l.1.1h.2l.1.1.4.4h.4l.2.1.2.2.2.3.1.3.2.6.1.1.3.3.1.1v.2l.2.1.1.1.2.1.3.1.2.1.1.1h.3l.3.2.1.1v.3l.1.1.1.1h.1l.1.1.5.6v.1l.1.1.5.3h.1l.2.2.1.1.1.1.1.1.1.2.1.3.1.1.2.1.2.3.5.4.3.3.1.1.2.1.4.2h.1v-.1h.1l.1.1h.3v.2l.1.1v-.1l.3.4.1.1h.1l.1.1.1.1.1.1v.4h.3v.1l.2.2.1.1v.4l.1.1v.3l.1.1v.3l.1.1v.1l.1.1v.4l.1.1.1.2.1.2.1.2.1.1.1.1.1.3.1.1v.7l-.1.3v.4l.1.4v.3l.1.1v.1l.1.2.1.4v.1l.1.1.1.1.1.1.1.3.1.2v.4l.1.1.3.2.1.1v.3l.5.4.1.1.1-.1h.2l.2.1.1.1.2.1h.1l.1.3.2.3.1.1.2.1.3.4.3.1.6.2.4.1h.6l.1.1v.1l-.1.2h.2l.3.3.2.1.6.1h.4v.3l.3.4.3.2h.2l.2.2h.2l.1-.1h.1l.1.1h.1v.2l.1.1h.4l.4.1h.3l.2-.1.1-.2v-.3h.1v-.2h.1l.3-.1h.1l.1-.1.2-.4.1-.1.1.1v-.1l.3-.2h.3l-.1-.1-.2-.1-.1-.1v-.1l.1-.3v-.3l.1-.1h.1l-.1-.1.1-.1v-.6l.2-.6h.1v-.2h.1v-.1h.1l.1-.1.1-.2v-.1l.2-.4v-.3l.1-.1h.3l.2-.1h.1v.1l.1-.1.1-.1h.1l.7.1.2-.2v-.4l.1-.1h.2l.1-.1h.2l.1.1.1.1h.1v.1h.3l.3.2.1.1.2.1.6-.1h.2l.1-.1h.1l.1.1h.9l.1-.1v.1h.1l1.1.2h.4l.1-.1v-.2.2l-.1.1v.1h.1l.1-.1.1-.1h.2v.1h.5v.3l.1.2v.1l.1.2v.1l.1.1h.4v.1l-.1.2v.1h.1l.1-.1.2-.1h.2l.1.1v.2l-.1.2v.1l.1.1h.3l.1.2.2.1.4.1.2.1.1.1v.4l.1.1.1.1h.1l.5.2.2.1.1.2h.1l.3.2.1.1.1.1.1.3-.1.2.1.1.4.3v.1h.3l.1.1.1.5.1.3v.2l-.1.2v.4l.1.1.1.1v.1l.1.1v.3h.1v.2l.2.8.1.2.2.3v.1l.1.1.2.1.1.1v.4l.1.2.1.1.3.1-.2.1v.3h.1v.3l.1.3.2.3.1.2v.2l.1.2.1.1.1.1h.2v.3h.2l.7.3.1.1.1.2v.2l.1.1.1.1v.3l.1.1.1.1h.2l.1.1-.1.1.1.1.1.1.1.1.1.1v.1l-.1.1v.1h.2l.1.1v.4l.1.1.1.1h.2l.1.1.1.1.1.1h.2v.3h.1l.1.2h.2l.1.1h.1l.1-.1h.2l.1.1h.1l.1.1.1.1.1.1v.6h.2v.6l-.1.2v.5l-.1.1v.1l.2.1v.1h.1l.1.1.1.1v.3l-.1.3v.5l-.1.3.1.2.1.1h.3v.5l.1.1.3.2.1.1.2.3.1.1.1.1.1.1.1.3.1.4.3.8v.7l.2.1h.2l.1.1.1.2v.2l-.1.1v.2l.1.1h.3v.1h.4l.1.1.1-.1.2.2h.8l.1.1.2.2.1.1v.1h.3l.1.1-.1.1h.2l.1.1h.2l.4-.2.2.1.2.1.2.1.1.2.1-.1.2.1.2.1.2.1-.1.2v.1h.3v.1l.2.2.1.1.5.3.2.1h.2l.3-.1h.1l.1.2h.2l.2-.1h.1l.4.1.4-.1h.6v.1h.8l.1.1.1.1.1.1.1.1.1.1.2.1.3.3.1.1h.3v.2l.1.1h.2v.1h.1l.1-.1v-.4l.2-.1.1.1h.2l.1-.1v-.1h.8v-.6l-.1-.2h-.2v.4h-.1l-.2.1h-.1v-.2l.1-.2v-.1h.2v-.2h-.6l-.1-.1v-.6l-.1-.2v-.6h-.2l-.1-.1v-.4l.1-.1v-.1l.1-.2v-.1h-.1v-.3h-.2v-.5l-.2-.1.2-.1.1-.1v-.1.2-.3l-.1-.5 1.4.4-.2-.5v-.4l-.1-.1-.1-.1h-.3v-.6h.1l.3.3.1-.1-.1-.1-.3-.1-.1-.1-.1-.1v-.5h.5l.1-.1v-.1l-.1-.2.1-.1v-.1l-.1-.1h.2l.1-.1v-.4h.1v-.4h.1v-.3l-.4.1-.1.1-.1.1h-.2l-.3-.1-.1-.1-.1-.1-.1-.1h-.7l-.1-.1h.6l.2-.1.1-.1v-.1h-.1l-.1.1v-.1l.1-.1-.1-.2-.2-.3h.1l-.1-.2-.2-.2v-.2l.2.1.2.2.5.8v.2h.2v-.2l.1-.2h.1v.1l.1-.1h.2v-.1l.1-.1.2-.2.1-.1v.3h.1l-.1.1h-.2l-.1.1-.2.1.1.1h.1l.1-.2.4-.2.1-.1v-.2l.3-.8.1-.1v-.3l.1-.3.2-.4v-.5l.1-.1.1-.1v-.1l-.1-.1-.6-.3-.1-.1-.2-.2v-.2l.1-.2v-.1l-.1.1h-.3l-.2.1h-.2l-.1-.1-.1-.2h.3v-.1h.8v.1h.2l.3-.1h.3l.1.1.1.1.1.1h-.1v.1h.2l.2-.1.5-.8.2-.5.1-.2v-.1l.1-.1v-.5l-.1-.1-.1.1-.3.1-.1.1v.3l-.1.1h-.1v-.2l-.1-.1-.1-.1-.1-.1h-.1l-.1-.1.1-.2.3-.3h-.1v-.2l.1-.1h.2l.1.1v.1h.2l.3-.1.2-.2.1-.2v.4l.2.1h.1l.1-.2.1-.2v-.2l-.1-.1.2-.3.1-.1h.1v.1l-.1.1v.1l.1.1-.1.1-.1.1-.1.3.1-.1.2-.1.1-.1.2-.3.1-.1.2-.2.1-.1-.1-.3v-.1l.1-.1v-.1l-.1-.2-.2-.2-.1-.2.1-.1.1.1.1.1.1.1.1-.1v-.1l-.1-.1-.2-.1h-.1v-.1l.1-.1h.1l.1.1.1.2h.1v.3h.2v.5l.1.1h.1l.1.1.7-.4h.1l.2-.1h.1l.5-.3v-.2l-.2-.2-.3-.1-.2.1-.1.1-.1.1h-.1v-.1h.1l.4-.2-.1-.1v-.2l-.1-.1-.2-.1h-.1l-.1.1h-.1l-.1-.1v-.6l-.2-.3-.1-.1v-.3h.1l.1-.1h.2l.1.1.1.1v.5h.4v.1l.1.2.3-.2.1.1v.2h-.2l-.1.1h.2l.2-.1.4-.2-.2-.1-.1-.1v-.7h-.1l-.1.1v-.4.1l.1.2h.1l.1.1v.2l-.1.1v.1l.2.2v.2h.1l.1-.1.2-.2.1-.1v.1l.1-.1h.3v.1l-.2.3v.2h.5v.1l-.1.1h-.3l-.1.1v.1h.1l.3-.1.4-.2h.2l.3-.2h.1l.1.1v.2l-.1.1h-.1l-1 .5-.2.2-.2.2.2-.1.4-.3.4-.1.4-.3.7-.2.4-.2.8-.5h-.2l-.3.1-.9.5v-.4l.9-.3h.8l.3-.1.3-.1.8-.5.5-.3h.2l.1-.1.4-.3.4-.4.2-.1.5-.4.1-.1v-.2l-.1-.3v-.2l.1-.2-.1-.2-.1-.1.1.1h.2l.1.1.2-.1.2-.1.4-.5v-.1h.1l.1-.1.1-.1v-.1l.1.1.1-.1.1-.2v-.2l.1-.2h.2l.1.1-.3-.1h-.1l-.1-.1-.2-.3v.1h-.2v-.2l-.1-.1v-.1h.2l.1-.1v-.1l-.5-.2-.2-.1.1-.2.1-.1.1-.1v-.1l-.2-.1v-.2l.1-.1v-.1h-.4l-.1-.1h.4l.2.1.2.2.2.1.2-.2.1-.3.1-.3.1-.1.1-.1.2-.1.2-.1h.2v.2h.2v.3l-.1.2-.1.4-.1.3-.1.3-.1.1h-.3v.1l.1.1h.2l.3-.1 1-.3h.2l.1.1.1.1.1-.1.1-.1v.2l-.1.1h-.5l-.1.1-.2.2h-.4l-.2.1-.5.6-.1.1v.1h.2l.1-.1.3-.4.2-.2 2.1-1 .8-.3.6-.3.2-.1.3-.1h1l.2.1h.1l.1-.1-.1-.2-.4-.4-.2-.3.1-.3.5-.8.1-.1v-.1h.4l.1-.2.4-.5-.1-.1v-.1l.1-.2v-.6l-.1-.1v-.2l.1-.2v-.3l-.1-.1-.1-.1v-.7l.1-.2.2-.2.1-.1v-.2l-.1-.2v-.2h-.1v-.2l.1-.1.1-.1h.1v-.1l.1-.4.1-.1.2-.2.1-.1.1-.4.2-.5v-.8l.1-.1.1-.1V89l-.1-.1v-.1l-.1-.2-.1-.2.1-.1h.1l.2-.1h.1l.3.3z"/>
    <path fill="#ffed00" d="M125.5 86.6l-.3-.4v-.1l.1-.1v-.6h-.2v-.5l-.1-.1-.2-.2v-.4l.1-.1-.1-.1-.1-.1-.1-.1v-.4h-.1v-.1h.1l-.2-.1h-.1l-.2-.2-.1-.1v-1.7l-.2-.3v-.3l-.8-.6-.1-.1-.1-.1-.1-.1-.2-.1-.1-.3-.1-.1-.3-.2V65.9h-.1l-.1-.1-.2-.2-.1.1h-.2l-.2-.1h-.1l-.1.1h-.1l-.3-.2h-.1l-.1.1v.1l-.1.1-.1-.1-.1.1h-.1v-.1l.1-.1v-.1h-.4l-.1-.1v-.2l-.1-.2h-.3l-.1-.1v.1l-.3-.1-.1-.1h-.3v-.1h-.4l-.1-.1-.1-.1-.1-.2h-.2l-.2-.1-.4-.1-.3-.3-.1-.2v-.1h-.2v-.2h-.4l-.1-.1-.2-.2-.1-.1-.2-.1v-.1l-.1-.1-.4-.2h-.1l-.1.1v.3h-.1v.1h-.4v.2h-.8V63h-.5l.1-.1-.1-.1-.1-.1h-.1l-.1-.1h-.1l-.1.1-.1.2h-.2l-.2.1h-.2l-.1.1v.1h-.4v.3l-.1.1v-.1h-.1v.1h-.3l-.4-.2-.1-.1h-.1l-.1.1-.1.1v.1l-.1.1-.1.1-.2.1h-.5l-.1.1h-.1l-.1.1-.1.3-.1.1-.1.1h-.6v.4l-.2.1-.2-.2-.2-.3-.2-.2h-.6v-.3l-.1-.1-.3-.1-.1-.1.1-.2-.1-.1-.2-.1h-.2v.1l-.1.3h-.4l-.2-.1h-.5l-.1-.1v-.5h-.5v.4l-.1.2-.1.1h-.1l-.2-.1v.2h.1v.2l-.1.1v.3l-.1.2-.1.1h-.2l-.2-.1-.1-.2-.1-.2V64l.1-.2v-.2l-.1-.1-.1-.1-.1-.1h-.1v.1l-.1.2v.1l-.2-.2h-.1l-.1.1v.1h-.7l-.1-.1v-.4l-.1-.1-1.5.2h-.5l-.1-.1-.1-.2v-.3l-.1-.1-.2-.1-.3.1-.2.2-.6.6-.3.2-.3.1-.3-.1-.2-.1-.1-.1v-1h-.1l-.2-.1-.3-.1H95v-.9l-.1-.1h-.2l-.3.1h-.2l-.9-.1h-.2l-.1.2-.1.2-.1.1v.1h-.5l-.1-.1-.2-.2-.1-.1-.1-.2h-.5l-.4.2h-.1l-.9-.4h-.2l-.5-.3h-.5l-.3-.1h-.6l-.1-.1v-.8l-.1-.1-.2-.2-.1-.1v-.2l-.1-.1-.2-.1h-.3l-.1-.1v-.3l-.1-.1h-.1l-.1.1v.4l-.1.1-.1.1h-.2l-.1-.1h-.7l-.1.1h-.6l-.1-.1-.1-.2-1.2-1.1h-.8V40.8H61.9v38H37.6v.1l.1.3v.5l.2.2v.2l.1.1h.2l.1.1.4.4h.4l.2.1.2.2.2.3.1.3.2.6.1.1.3.3.1.1v.2l.2.1.1.1.2.1.3.1.2.1.1.1h.3l.3.2.1.1v.3l.1.1.1.1h.1l.1.1.5.6v.1l.1.1.5.3h.1l.2.2.1.1.1.1.1.1.1.2.1.3.1.1.2.1.2.3.5.4.3.3.1.1.2.1.4.2h.1V88h.1l.1.1h.3v.2l.8.7v-.1l.3.4.1.1h.1l.1.1.1.1.1.1v.4h.3v.1l.2.2.1.1v.4l.1.1v.3l.1.1v.3l.1.1v.1l.1.1v.4l.1.1.1.2.1.2.1.2.1.1.1.1.1.3.1.1v.7l-.1.3v.4l.1.4v.3l.1.1v.1l.1.2.1.4v.1l.1.1.1.1.1.1.1.3.1.2v.4l.1.1.3.2.1.1v.3l.5.4.1.1.1-.1h.2l.2.1.1.1.2.1h.1l.1.3.2.3.1.1.2.1.3.4.3.1.6.2.4.1h.6l.1.1v.1l-.1.2h.2l.3.3.2.1.6.1h.4v.3l.3.4.3.2h.2l.2.2h.2l.1-.1h.1l.1.1h.1v.2l.1.1h.4l1-.2h.3l.2-.1.1-.2v-.3h.1v-.2h.1l.3-.1h.1l.1-.1.2-.4.1-.1.1.1v-.1l.3-.2h.3l-.1-.1-.2-.1-.1-.1v-.1l.1-.3v-.3l.1-.1h.1l-.1-.1.1-.1v-.6l.2-.6h.1v-.2h.1v-.1h.1l.1-.1.1-.2v-.1l.2-.4v-.3l.1-.1h.3l.2-.1h.1v.1l.1-.1.1-.1h.1l.7.1.2-.2v-.4l.1-.1h.2l.1-.1h.2l.4-.4.1.1h.1v.1h.3l.3.2.1.1.2.1.6-.1h.2l.1-.1h.1l.1.1h.9l.1-.1v.1h.1l1.1.2h.4l.1-.1v-.2.2l.1.2v.1h.1l.1-.1.1-.1h.2v.1h.5v.3l.1.2v.1l.1.2v.1l.1.1h.4v.1l-.1.2v.1h.1l.1-.1.2-.1h.2l.1.1v.2l-.1.2v.1l.1.1h.3l.1.2.2.1.4.1.2.1.1.1v.4l.1.1.1.1h.1l.5.2.2.1.1.2h.1l.3.2.1.1-.2.3.1.3-.1.2.1.1.4.3v.1h.3l.1.1.1.5.1.3v.2l-.1.2v.4l.1.1.1.1v.1l.1.1v.3h.1v.2l.2.8.1.2.2.3v.1l.1.1.2.1.1.1v.4l.1.2.1.1.3.1-.2.1v.3h.1v.3l.1.3.2.3.1.2v.2l.1.2.1.1.1.1h.2v.3h.2l.7.3.1.1.1.2v.2l.1.1.1.1v.3l.1.1.1.1h.2l.1.1-.1.1.1.1.1.1.1.1.1.1v.1l-.1.1v.1h.2l.1.1v.4l.1.1.1.1h.2l.1.1.1.1.1.1h.2v.3h.1l.1.2h.2l.1.1h.1l.1-.1h.2l.1.1h.1l.1.1.1.1.1.1v.6h.2v.6l-.1.2v.5l-.1.1v.1l.2.1v.1h.1l.1.1.1.1v.3l-.1.3v.5l-.1.3.1.2.1.1h.3v.5l.1.1.3.2.1.1.2.3.1.1.1.1.1.1.1.3.1.4.3.8v.7l.2.1h.2l.1.1.1.2v.2l-.1.1v.2l.1.1h.3v.1h.4l.1.1.1-.1.2.2h.8l.1.1.2.2.1.1v.1h.3l.1.1-.1.1h.2l.1.1h.2l.4-.2.2.1.2.1.2.1.1.2.1-.1.2.1.2.1.2.1-.1.2v.1h.3v.1l.2.2.1.1.5.3.2.1h.2l.3-.1h.1l.1.2h.2l.2-.1h.1l.4.1.4-.1h.6v.1h.8l.1.1.1.1.1.1.1.1.1.1.2.1.3.3.1.1h.3v.2l.1.1h.2v.1h.1l.1-.1v-.4l.2-.1.1.1h.2l.1-.1v-.1h.8v-.6l-.1-.2h-.2v.4h-.1l-.2.1h-.1v-.2l.1-.2v-.1h.2v-.2h-.6l-.1-.1v-.6l-.1-.2v-.6h-.2l-.1-.1v-.4l.1-.1v-.1l.1-.2v-.1h-.1v-.3h-.2v-.5l-.2-.1.2-.1.1-.1v-.1.2-.3l-.1-.5-.1-.5-.2-.5v-.4l-.1-.1-.1-.1h-.3v-.6h.1l.3.3.1-.1-.1-.1-.3-.1-.1-.1-.1-.1v-.5h.5l.1-.1v-.1l-.1-.2.1.4v-.1l-.1-.1h.2l.1-.1v-.4h.1v-.4h.1v-.3l-.4.1-.1.1-.1.1h-.2l-.3-.1-.1-.1-.1-.1-.1-.1h-.7l-.1-.1h.6l.2-.1.1-.1v-.1H98l-.1.1v-.1l.1-.1-.1-.2-.2-.3h.1l-.1-.2-.2-.2v-.2l.2.1.2.2.5.8v.2h.2v-.2l.1-.2h.1v.1l.1-.1h.2v-.1l.1-.1.2-.2.1-.1v.3h.1l-.1.1h-.2l-.1.1-.2.1.1.1h.1l.1-.2.4-.2.1-.1v-.2l.3-.8.1-.1v-.3l.1-.3.2-.4v-.5l.1-.1.1-.1v-.1l-.1-.1-.6-.3-.1-.1-.2-.2v-.2l.1-.2v-.1l-.1.1h-.3l-.2.1H99l-.1-.1-.1-.2h.3v-.1h.8v.1h.2l.3-.1h.3l.1.1.1.1.1.1h-.1v.1h.2l.2-.1.5-.8.2-.5.1-.2v-.1l.1-.1v-.5l-.1-.1-.1.1-.3.1-.1.1v.3l-.1.1h-.1v-.2l-.1-.1-.1-.1-.1-.1h-.1l-.1-.1.1-.2.3-.3h-.1v-.2l.1-.1h.2l.1.1v.1h.2l.3-.1.2-.2.1-.2v.4l.2.1h.1l.1-.2.1-.2v-.2l-.1-.1.2-.3.1-.1h.1v.1l-.1.1v.1l.1.1-.1.1-.1.1-.1.3.1-.1.2-.1.1-.1.2-.3.1-.1.2-.2.1-.1-.1-.3v-.1l.1-.1v-.1l-.1-.2-.2-.2-.1-.2.1-.1.1.1.1.1.1.1.1-.1v-.1l-.1-.1-.2-.1h-.1v-.1l.1-.1h.1l.1.1.1.2h.1v.3h.2v.5l.1.1h.1l.1.1.7-.4h.1l.2-.1h.1l.5-.3v-.2l-.2.8-.3-.1-.2.1-.1.1-.1.1h-.1v-.1h.1l.4-.2-.1-.1v-.2l-.1-.1-.2-.1h-.1l-.1.1h-.1l-.1-.1v-.6l-.2-.3-.1-.1v-.3h.1l.1-.1h.2l.1.1.1.1v.5h.4v.1l.1.2.3-.2.1.1v.2h-.2l-.1.1h.2l.2-.1.4-.2-.2-.1-.1-.1v-.7h-.1l-.1.1v-.4.1l.1.2h.1l.1.1v.2l-.1.1v.1l.2.2v.2h.1l.1-.1.2-.2.1-.1v.1l.1-.1h.3v.1l-.2.3v.2h.5v.1l-.1.1h-.3l-.1.1v.1h.1l.3-.1.4-.2h.2l.3-.2h.1l.1.1v.2l-.1.1h-.1l-1 .5-.2.2-.2.2.2-.1.4-.3.4-.1.4-.3.7-.2.4-.2.8-.5h-.2l-.3.1-.9.5v-.4l.9-.3h.8l.3-.1.3-.1.8-.5.5-.3h.2l.1-.1.4-.3.4-.4.2-.1.5-.4.1-.1v-.2l-.1-.3v-.2l.1-.2-.1-.2-.1-.1.1.1h.2l.1.1.2-.1.2-.1.4-.5v-.1h.1l.1-.1.1-.1v-.1l.1.1.1-.1.1-.2v-.2l.1-.2h.2l.1.1-.3-.1h-.1l-.1-.1-.2-.3v.1h-.2v-.2l-.1-.1v-.1h.2l.1-.1v-.1l-.5-.2-.2-.1.1-.2.1-.1.1-.1v-.1l-.2-.1v-.2l.1-.1v-.1h-.4l-.1-.1h.4l.2.1.2.2.2.1.2-.2.1-.3.1-.3.1-.1.1-.1.2-.1.2-.1h.2v.2h.2v.3l-.1.2-.1.4-.1.3-.1.3-.1.1h-.3v.1l.1.1h.2l.3-.1 1-.3h.2l.1.1.1.1.1-.1.1-.1v.2l-.1.1h-.5l-.1.1-.2.2h-.4l-.2.1-.5.6-.1.1v.1h.2l.1-.1.3-.4.2-.2 2.1-1 .8-.3.6-.3.2-.1.3-.1h1l.2.1h.1l.1-.1-.1-.2-.4-.4-.2-.3.1-.3.5-.8.1-.1v-.1h.4l.1-.2.4-.5-.1-.1v-.1l.1-.2V94l-.1-.1v-.2l.1-.2v-.3l-.1-.1-.1-.1v-.7l.1-.2.2-.2.1-.1v-.2l-.1-.2v-.2h-.1V91l.1-.1.1-.1h.1v-.1l.1-.4.1-.1.2-.2.1-.1.1-.4.2-.5v-.8l.1-.1.1-.1v-.1l-.1-.1v-.1l-.1-.2-.1-.2.1-.1h.1l.2-.1h.1l.4-.5z"/>
    <path fill="#be111f" d="M99.5 127.2H99v-.1l-.3-.3h-.1l-.5-.5-.2-.1-.4-.4h-1v-.1h-.3l-.4.1-.4-.1-.3.1h-.4l-.1-.2-.2.1H94l-.2-.1-.5-.3-.4-.4h-.3v-.5h-.1l-.3.3-.3-.5-.3-.2-.4.2h-.3l-.2-.1h-.8l.2-.2v-.3l-.3-.2h-.7l-.1-.1-.1.1-.2-.2h-.6v-.2H88l-.3-.3v-.5l.1-.1h-.2l-.4-.2v-.9l-.3-.7-.2-.7-.2-.2-.3-.4-.5-.4v-.3h-.1l-.3-.3-.2-.3.1-.6v-.3l.1-.3H85v-.2l-.2-.1v-.5l.1-.2v-.5l.1-.1v-.2h-.2v-.8l-.1-.1h-.1l-.1-.1-.1.1H84l-.2-.1h-.2l-.1-.2h-.2v-.3l-.4-.3h.1l-.4-.4v-.3h-.3v-.6l-.4-.4-.3-.3v-.3l-.2-.2-.1-.4-.7-.2h-.3v-.3l-.4-.4-.1-.4v-.1l-.3-.5-.1-.4h-.1v-.6l-.2-.2-.1-.4v-.2l-.2-.1-.2-.2-.3-.4-.2-.8H78v-.5l-.1-.1v-.2l-.2-.2v-.7l.1-.2-.2-.6h-.4v-.3l-.6-.5.1-.3-.1-.3.1-.2h-.2l-.1-.3-.5-.2h-.1l-.4-.4v-.4l-.1-.1-.3-.1-.4-.2h-.4l-.3-.3v-.2h-.6v-.4h-.1l-.3-.3v-.2l-.2-.5h-.3l-.1.1h-.6V97h-.3l-1.2-.2h-1.5l-.7.2-.4-.2-.3-.2h-.5l-.2.2h-.2l-.1.1h-.1v.3l-.4.4-.8-.1-.7.7v-.5.2l-.5.9v.2h-.1v.2h-.2l-.1.9.5.5h-.7v.3l.2.1.7.7H63v.7l-.4-.4-.1.2-.2.2H62v.3h-.1l-.2.4-.5.2H61l-.9.2h-.6l-.4-.3h-.3l-.3-.2h-.1l-.5-.3-.4-.6-.8-.1-.3-.2-.3-.2h-.6l.2-.4h-.2l-.5-.1-1-.3-.3-.4-.2-.1-.1-.1-.3-.5-.4-.3-.2.2-.3-.3-.6-.5v-.3l-.5-.5v-.5l-.2-.4-.3-.3v-.2l-.2-.6-.1-.1v-.4l-.1-.3v-.5l.1-.3v-.5l-.1-.1-.1-.3-.2-.2-.3-.6-.1-.1v-.4l-.1-.2v-.1l-.1-.1v-.3l-.1-.1v-.3l-.1-.1v-.4l-.3-.2h-.3v-.6l-.1-.1h-.1l-.5-.5-.9-.8h-.4l-.7-.4-.4-.4-.5-.5-.2-.1-.2-.1-.2-.2-.2-.5-.4-.3-.5-.3-.3-.3v-.1l-.4-.5h-.1l-.4-.5v-.3l-.2-.1h-.3l-.2-.2-1.1-.6v-.3l-.5-.5-.3-.9-.3-.4-.1.1h-.5l-.5-.5h-.1l-.3-.3V80l-.2-.2v-.6l-.1-.5v-.3h24.3v-38h21v16.9h.6l1.4 1.4h.3l.1-.1h1v-.3l.3-.3h.4l.3.3v.2h.2l.3.2.2.2v.2l.4.4v.7h.5l.9.1.4.3h.2l.8.4.5-.2h.6l.2.4.2.2h.1l.1-.1.3-.5h.4l.9.1h.1l.4-.1h.3l.3.3v.8l.4.1h.3v1.2l.3.1h.1l.3-.2.9-.8.4-.1.4.2.2.2v.4h.4l1.6-.2.3.3v.3h.2l.2-.2h.2V63h.6l.5.5v.5l-.1.1v.1l.1.2v-1.3l.5.2v-.6h1.2v.6h.4l.2.1V63h.7l.3.2.3.3-.1.1.2.1.2.2v.1h.4l.3.3v-.1h.8l.2-.4.2-.2h.1l.1-.1h.6l.1-.1v-.1l.4-.4h.4l.2.2.1.1h.2v-.3h.5l.2-.2h.3l.3-.2.2-.2h.4l.1.1h.1l.4.3h.4v.1h.1v-.2h.4v-.1h.1v-.1l.3-.3h.4l.5.3.6.6h.6v.2h.2v.4l.2.2.6.2h.2l.2.4h.6v.1-.4l.6.6h.3l.2.5h.8l.2.1h.4l.1.1.2-.2.4.4h.3v13.3l.4.3.1.2.2.1.3.3.9.7v.4l.2.3v1.7l.2.1.2.1v.1h.2v.6l.4.4-.2.4.3.3v.3h.2v1.1l.3.4-.7.8h-.2l.1.2.1.1v.4l-.2.3v.7l-.2.5-.1.4-.4.4-.1.3v.5l.1.3v.3l-.4.4v.5l.2.2v.6l-.1.1.1.1-.1.9.2.2-.7.9-.1.2h-.4l-.1.1-.5.8.1.2.4.4.2.4-.4.4h-.4l-.1-.1h-.9l-.4.2-.6.3-.8.3-.7.3-.2.2h-.3l-.9.4-.2.2-.5.6h-.4v.2l-.2.3-.3.3-.1.1-.5.6-.5.3v.1l.1.6v.1l-.2.2-.5.4-.2.1-.4.4-.6.5h-.2l-1.2.7-.9.3-1.2.7-.7.2-.5.3-.3.1-.3.3-.3.1-.4-.6.2-.2h-.2v-.6l-.2.2v-.2l-.1.1v.3l-.1.1-.2.8-.5-.2-.1.1-.2.2h-.6v-.1l-.3.2-.2-.2h-.1l.1.2-.6.5-.4.5-.2.1h-.1l-.2.3h-.6l.2.2v.8l-.1.2-.3.7-.5.8.2.2h-.5l-.3.1h-.5v-.4h-.1l-.3.1-.1.1.2.2.6.3.2.2v.4l-.2.3v.5l-.3.6v.4l-.1.1-.2.6h.2l-.3.3v.1l-.3.3-.3.1-.1.2.3-.1v1.1h-.1v.4h-.1v.2l-.5.5h-.3l.4.2.3.3-.3.3.2.2v.5l.2.4.2 1.5-.1.2v.2h.2v.3h.1v.6l-.1.1v.1l-.1.1h.3v.9l.1.3v.4h.7v.2h.2l.2.5v.9h-.9l-.2.2h-.3v.2h-.1zm-.7-1h.4l.5-.3h.1v-.3h-.1l-.3-.3v-.7l-.1-.3v-.3l-.3-.3v-.7l.1-.1v-.2H99v-.6l-.6-.3.7-.4-.2-.9-.2-.6v-.3h-.5v-.9l-.1-.1v-1h.2l-.2-.2h.8v-.2h-.4l-.4-.2-.3-.2-.2.2v-.2h-.4l-.8-.8h1.2v-.1l-.5-.8h.1v-.8l.8.4.2.2.3.5h.4l.8-.8.2-.4v-.3l.1-.3.2-.4v-.5l.1-.1-.5-.3-.4-.4v-.1h-.5l-.3-.3-.4-.7h.5v-.1h1.1l.3-.3v.3h.7l.3.3.4-.6.1-.3h-.6v-.4l-.1-.1h-.1l-.4-.4.3-.5.1-.2v-.2l.3-.3h.5l.2.2h.1l.1-.1.1-.2.3.1-.1-.1.6-.8h.5v-.1l.1-.1-.2-.2-.2-.4.2-.2v-.1l.3-.3h.4l.3.3h.2v.3h.1v-.2l-.3-.4v-.8h.3l.1-.1h.5l.4.4v.3h.2v-.7h.9v.2l.1.1v.3l.6-.6v.5h.4v.6h.3v.1l.3-.2h.3v-.1l1.2-.4h.7l.5-.2 1.3-.8h.2l.4-.3.5-.4.2-.1.4-.3-.1-.4.1-.4-.1-.1.3-.3v-.1h.4l.1-.1.3-.3v-.5h.3v-.5h-.2v-.5l-.1-.1v-.3l-.5-.3.3-.5v-.3h-.1l-.8-.8h1.4l.1.1h.2v.2l.1.1.2-.6.3-.3.6-.2h.5v.2h.2v.8l-.1.2-.2.6 1.1-.2.1.1.5-.5v.5l.3-.1.8-.3.8-.4.5-.1h.7l-.3-.5.2-.5.6-.9v-.3h.5l.3-.3v-.4l.1-.1v-.4l-.1-.1v-.5l.1-.2-.2-.2v-1l.2-.3.2-.2-.1-.1h-.1v-.7l.3-.3.1-.4.4-.4.1-.3.2-.8v-.5l.1-.1v-.2l-.3-.6.4-.4h.2l.2-.1.1-.2-.2-.3V86l.1-.1v-.1h-.2V85l-.3-.3v-.6l-.2-.2v-.2h-.1v-.2l-.5-.5v-1.7l-.2-.3v-.2l-1.2-.9-.2-.4-.4-.3v-13l-.2-.1-.4-.1h-.7l-.2-.1-.3.3-.2-.1h-.4v-.3h-.1l-.3-.3v-.1l-.7-.3h-.4V65h-.2l-.4-.4h-.1l-.2-.1-.4-.1-.5-.6h-.3v-.2h-.2l-.5-.5-.3-.2v-.2.3h-.1v.1h-.4v.2h-1.5v-.1h-1l.1-.1-.2.1v.2h-.4v.1l-.2.2v.1h-.2l-.5.5v-.5h-.2l-.3-.2-.4.4-.4.1h-.4l-.1.1h-.1l-.1.3-.3.3h-.4v.3l-.6.3-.4-.4-.3-.4h-.8v-.5l-.3-.1-.1-.1v.1h-.8l-.1-.1h-.4l-.2-.2-.1.1-.2.2v.1l-.1.1v.3l-.2.3-.2.2h-.5l-.3-.2-.3-.7-.2-.2h-1.1l-.3-.3v-.3l-1.4.2h-.5l-.3-.3-.1-.2v-.1h-.1l-.7.7-.4.3-.4.1-.7-.3-.2-.2v-.9l-.5-.1h-.3v-1l-.3.1h-.2l-.9-.1-.2.3v.3h-1l-.6-.6h-.2l-.5.2h-.2l-.8-.4h-.2l-.5-.3h-.5l-.3-.1h-.6l-.3-.3v-.8l-.4-.4-.1-.2h-.3l-.1-.1-.3.3h-.5l-.2-.1h-.4l-.1.1h-.9l-.1-.2-.1-.2-1.1-1h-1V41.1H62.2v38H38v.4l.2.2v.1h.1l.5.5h.4l.3.2.2.2.3.4.3.9.5.5v.1l.9.5h.3l.6.5v.4h.1l.2.2.6.7v.1l.4.2h.1l.7.7.2.5.2.1.2.3.5.4.4.4.3.1h.5l.2.1h.4v.4l.1.1v-.4l.9 1.2h.1l.5.5v.2h.3v.3l.3.3v.4l.1.1v.3l.1.1v.3l.1.1v.1l.1.1.1.5.3.6.2.2.1.3.1.1v1l-.1.2v.3l.1.6.1.1v.2l.1.1.1.5.3.3.2.9.5.4v.3l.3.2h.4l.4.3h.3l.2.5.2.3.3.2.2.3 1.2.4h.7l.3.3v.2l.4.3.5.1h.7v.5l.2.3.2.1h.2l.2.2.1-.1h.4l.1.1h.3v.3H60l.9-.2h.3v-.6h.1v-.2h.4l.3-.1.2-.4.3-.4v-.2l.1-.5v-.2l-.1-.1.2-.3v-.5l.3-.8v-.2h.1v-.1l.3-.1v-.2l.2-.3v-.3l.3-.3h.4l.3-.1.1-.1h.2l.6.1v-.4l.3-.3h.2l.1-.1h.2l.5-.5.2.2h.3v.1h.1l.5.4.6-.1.1-.1h.4l.2.1h.8l.6-.6v.6l.9.2h1.3v.1h.5v.5l.2.4h.5v.2h.3l.3.3v.4h.2l.1.3h.1l.3.1.4.2.2.2v.4l.9.4.1.1.5.4.2.2-.3.4.1.3v.1l.4.2h.1l.3.3.2 1.3-.1.2v.2l.2.2v.1l.1.1v.1h.1v.5l.3.8.2.4.3.2.1.1v.5l1 .3-.7.3v.4l.1.2.3.6v.3l.1.1h.3v.3l.8.4.2.2.1.4.2.2v.3h.2l.4.4-.1.1.3.3v.2l.2.2v.4h.2l.4.3h.3v.4l.1.1h.6l.1.1h.3l.5.5v.4h.2v1.1l-.1.1v.5h.1v.1l.3.3v.6l-.1.2v.7h.5v.7l.4.3.6.7.5 1.7v.4h.1l.3.3.1.4v.3h.3v.1h.1l.1-.1.4.3h.7l.6.5h.1l.3.3.5-.2 1.9.9-.1.1h.1v.3l.2.2.6.3.5-.1h.3l.1.2.2-.1h.1l.4.1.3-.1h1v.1h.6l.6.6.2.1.3.3zm-.2-9.7zm.3-.2zm2.5-7.1l.3-.2h-.1l-.2.2zm3.2-2.4v-.1.1zm.6-.7zm11.1-6l.4-.4h-.3l-.2-.2v.3l-.1.1.2.2zm-.7-1l.4.2v-.5h.5l.3-.9h-.1v-.1l-.1.1-.3.7-.4.4-.1-.1v.1l-.2.1z"/>
    <g fill="#fff">
        <path d="M35.9 61.1c0-.1 0-.1-.1-.2 0-.1 0-.1-.1-.2 0-.3-.1-.7-.3-1.1-.1-.4-.3-.8-.5-1.2 0 0 0-.1-.1-.2 0-.1-.1-.1-.1-.2v.2l-.4.5s0 .1-.1.1c0 .1-.1.1-.1.1s-.1 0-.1.1h-.3c-.2-.1-.3-.2-.4-.4-.1-.1-.1-.2 0-.3s.1-.2.2-.2l.2-.2s0-.1.1-.1c.1-.1.1-.1.1-.2s.1-.1.1-.1 0-.1.1-.1c0 0 0-.1.1-.1l.1-.1c.1-.1 0-.3-.2-.6s-.2-.5-.2-.6c0-.1.1-.1.2-.1s.1 0 .2.1c.1 0 .1.1.2.2s.1.2.2.2h.3s.1 0 .1.1c.2.1.3.2.4.3.1.1.1.1.1.2l-.1.3.1.1.1.1c.1.1.3.3.4.5.2.2.4.5.6.7l.5.5c.1.1.2.2.3.2h.2v-.3c0-.2 0-.4-.1-.7l.5.1v.9c0 .1 0 .2.1.3 0 .1 0 .2.1.3v.3c0 .1 0 .2-.1.2-.1.1-.2.2-.3.2-.1 0-.3 0-.4-.1-.2-.1-.3-.2-.4-.3l-.3-.3v-.1l-.1-.1s-.1-.1-.2-.1l-.3-.3c0-.1-.1-.2-.2-.3h-.1v.1c0 .1.1.2.1.3 0 .1.1.3.1.4 0 .2.1.5.1.7v.1s0 .1.1.2h-.2c-.1 0-.1 0-.2-.1.1.3.1.3 0 .3.1 0 0 0 0 0z"/>
        <path d="M37.6 58.7v-.5c0-.1 0-.1-.1-.1l-.3-.3c-.1-.1-.3-.3-.4-.5 0-.1-.1-.1-.2-.2s-.1-.2-.2-.3c-.1-.1-.2-.3-.3-.4-.1-.1-.1-.3-.2-.4 0 0 0-.1-.1-.1 0 0-.1-.1-.1-.2s-.1-.1-.1-.2-.1-.2-.1-.3c-.1-.2-.2-.4-.2-.6-.1-.2-.1-.3-.1-.4-.1-.2-.1-.4-.1-.6 0-.2-.1-.4-.1-.5v-.4c0-.1 0-.2.1-.2h.2v-.1c.1-.1.1-.1.2-.1s.2.1.3.1c0 0 .1 0 .1.1l.1.1v.1l.1.1.1.1s0 .1.1.1c0 .1.1.2.2.3.1.1.2.2.3.4 0 .1.1.1.1.2.1.1.1.2.2.3 0 .1.1.2.1.3.1.1.1.2.2.4 0 0 .1.1.1.2s0 .2.1.3c0 0 .1.2.1.3.1.2.1.4.2.6 0 .1.1.3.1.5.1.2.1.4.2.7.2.2.3.4.5.5.1.1.3.3.4.3l.1.1h.1v-.2c0-.1-.1-.2-.1-.4l-.3-.6c-.1-.2-.2-.4-.3-.5-.1-.1-.1-.2-.1-.3V56l.1-.1s.1 0 .2.1c.2.1.3.1.4.1.1 0 .1.1.2.1h.3c.1 0 .1-.1.2-.2 0-.1.1-.2.2-.4h.2c.1 0 .2 0 .3.1v.6c0 .1 0 .1-.1.2 0 .1-.1.2-.2.3-.1.2-.3.3-.5.2h-.4c0 .1.1.2.1.3 0 .1.1.2.1.3 0 .1.1.2.1.3 0 .1.1.3.1.4.1.2.1.3.1.4v.2c-.1.1-.1.2-.2.2s-.1.1-.2 0c-.5 0-.7-.1-.8-.1-.1-.1-.2-.1-.3-.2l-.1-.1h-.1l-.1-.1v.2h-.2c-.1-.1-.2-.1-.3-.1zm-2.1-5.6v.3c0 .2.1.4.3.7.1.2.1.3.2.5s.1.3.2.5c0 .1 0 .1.1.1l.1.1c.1.2.2.3.3.5.1.2.2.3.3.4.1.1.1.1.1.2 0-.1 0-.2-.1-.3 0-.1-.1-.2-.1-.4s-.1-.3-.2-.5-.2-.4-.3-.7c-.1-.3-.3-.5-.5-.8-.1-.2-.2-.3-.2-.4-.1-.1-.1-.2-.1-.2h-.1c.1 0 0 0 0 0z"/>
        <path d="M39.8 55.5c0-.1-.1-.2-.1-.3v-.3c-.1 0-.1-.1-.2-.1s-.1-.1-.2-.1l-.1-.1c0-.1-.1-.1-.1-.2s-.1-.2-.2-.3c-.1-.1-.1-.2-.2-.4 0-.1-.1-.2-.1-.3 0-.1-.1-.2-.1-.4v-.5s0-.1.1-.2c0-.1.1-.1.1-.2l.1-.1h.1s.1 0 .2.1c.1 0 .1.1.2.1l.1.1.1.1c.1.1.2.3.3.6.1.3.2.6.2 1v.1s0 .1.1.1.1.1.2.1h.2s.1 0 .1-.1c.1 0 .1-.1.2-.1.1-.1.1-.2.2-.3 0-.1.1-.2.1-.3v-.2c.1 0 .2 0 .3.1.1 0 .2 0 .2.1 0 .3.1.5.1.7s-.1.3-.1.5v.2c0 .1-.1.1-.1.2-.1.1-.2.2-.2.3-.1.1-.2.1-.3.1h-.8v.3c-.1 0-.1 0-.2-.1 0-.2-.1-.2-.2-.2zm-.5-2.4c0 .1 0 .2.1.4s.2.4.3.4v-.1s0-.1-.1-.1v-.4c0-.1 0-.1-.1-.2l-.1-.1c0 .1 0 .1-.1.1z"/>
    </g>
    <path fill="#be111f" d="M77.4 74.9h-5.3V73H85v1.9h-5.3v15.6h-2.3V74.9z"/>
    <path fill="none" stroke="#be111f" stroke-width="4.626" d="M77.4 74.9h-5.3V73H85v1.9h-5.3v15.6h-2.3V74.9z"/>
    <path fill="#be111f" d="M100.9 92c-.1-2.4-.3-5.4-.3-7.6h-.1c-.6 2.1-1.3 4.2-2.2 6.6l-3.1 8.5h-1.7l-2.8-8.3c-.8-2.5-1.5-4.7-2-6.8h-.1c-.1 2.2-.2 5.1-.3 7.7l-.5 7.5h-2.1L87 82.2h2.9l3 8.5c.7 2.2 1.3 4.1 1.8 5.9h.1c.4-1.8 1.1-3.7 1.8-5.9l3.1-8.5h2.9l1.1 17.5h-2.2l-.6-7.7z"/>
    <path fill="none" stroke="#be111f" stroke-width="2.776" d="M100.9 92c-.1-2.4-.3-5.4-.3-7.6h-.1c-.6 2.1-1.3 4.2-2.2 6.6l-3.1 8.5h-1.7l-2.8-8.3c-.8-2.5-1.5-4.7-2-6.8h-.1c-.1 2.2-.2 5.1-.3 7.7l-.5 7.5h-2.1L87 82.2h2.9l3 8.5c.7 2.2 1.3 4.1 1.8 5.9h.1c.4-1.8 1.1-3.7 1.8-5.9l3.1-8.5h2.9l1.1 17.5h-2.2l-.6-7.7z"/>
    <path fill="#f58121" d="M85 164.5c-43.8 0-79.5-35.7-79.5-79.5S41.2 5.5 85 5.5s79.5 35.7 79.5 79.5-35.7 79.5-79.5 79.5zm0-156C42.8 8.5 8.5 42.8 8.5 85s34.3 76.5 76.5 76.5 76.5-34.3 76.5-76.5S127.2 8.5 85 8.5z"/>
</svg>
