<svg xmlns="http://www.w3.org/2000/svg" width="192.000068" height="28.20228mm" viewBox="0 0 50.800018 28.20228">
    <path class="color-main color-black" d="M20.866915 26.04662c-2.339282-1.34501-3.736939-2.19962-3.716619-2.27258.01793-.0642.05101-.36088.07343-.65907.06553-.86968-.07012-1.03913-1.506622-1.88143-2.756816-1.61647-5.501778-3.19311-6.042377-3.47058-.843503-.43296-1.435555-.39945-2.196955.12435l-.332872.229-1.655043-.97054c-.91027-.53379-2.516818-1.46251-3.570109-2.06383-1.05328-.60131-1.917168-1.11363-1.91974-1.13847-.0043-.0415 1.654275-.9879 3.066756-1.74996.323032-.17428 1.515213-.82011 2.649283-1.43519L7.777997 9.64l.344547.34454c.314046.31405.387462.34444.829555.3434.552713-.001.524815.0115 3.421709-1.57425 3.436125-1.88095 4.920089-2.74531 5.181179-3.01782.287162-.29973.452766-.88401.372221-1.31332l-.05379-.28658 1.881106-1.03251c1.034603-.56789 2.003091-1.09863 2.152184-1.17944.149094-.0808.998766-.54677 1.888147-1.03547L25.411935 0l.91299.46227c1.23317.62437 4.80492 2.5043 5.90696 3.10902l.65669.36034-.0575.5619c-.0975.95193.17405 1.24394 1.99712 2.14742.44728.22166 1.78912.93353 2.98186 1.58192 3.00266 1.63228 3.42241 1.83513 3.79735 1.83513.37014 0 .79449-.19181 1.14105-.51577l.23969-.22405.98016.51931c.5391.28562 1.83406.97495 2.87772 1.53184 1.04365.55688 2.34483 1.24671 2.8915 1.53294.54668.28623 1.02449.54817 1.06181.58209.0582.0528-3.61466 2.18935-6.82954 3.97287l-.97869.54295-.36805-.26662c-.45927-.33269-.98537-.47904-1.46326-.40704-.38976.0587-1.23587.50113-5.05222 2.64173-.73758.4137-1.35246.75219-1.3664.75219-.12776 0-1.85696 1.05286-2.00981 1.22372-.25927.28979-.34135.75492-.23138 1.31109.0623.31525.0589.47037-.0116.52746-.055.0445-.97414.56711-2.04263 1.16139-2.58122 1.43564-5.02033 2.79711-5.46748 3.05186l-.36217.20632zm4.1392 1.52307c.15323-.15322.14903-1.4562-.004-1.40526-.11723.0389-.23019.58774-.24179 1.17485-.007.3518.0612.41555.24631.23041zm-.32848-.58261l.0303-.6007-.31627-.19604c-.17394-.10784-.82453-.48266-1.445745-.83296-.62123-.3503-1.78832-1.00831-2.593542-1.46225-.805232-.45394-1.501221-.82535-1.546654-.82535-.04546 0-.293139.0875-.550439.19443-.307963.12799-.458753.24096-.441261.3306.01462.0749 1.083782.74342 2.375921 1.4856 1.292149.74218 2.795313 1.60995 3.34039 1.92838.54506.31844 1.01936.57898 1.054.57898.0347 0 .0766-.27031.0933-.60069zm.77972-.3416c.0205-.54264.00003-.6931-.0904-.66319-.0791.0262-.12551.26602-.14346.74057-.0205.54265-.00002.69311.0904.66319.0791-.0261.1255-.26601.14345-.74057zm.39636-.0291c.0161-.51382.0166-.51483.0502-.0904.0236.29845.0736.42922.16444.42922.10298 0 .13058-.15239.13058-.72005 0-.60291-.0221-.71157-.13554-.66803-.0746.0286-.13554.0884-.13554.13271 0 .0444-.0495.0705-.10996.0581-.1117-.0229-.28793 1.15553-.19523 1.30552.12341.19969.21649.0196.23112-.44711zm.70658-.62279c0-.50357-.0292-.67023-.11294-.64261-.11759.0388-.21055 1.06624-.11824 1.30679.1151.29997.23118-.0335.23118-.66418zm.46411.15993c.011-.21283.0163-.21636.0514-.0341.0859.44625.20732.16414.20732-.48192 0-.50777-.0293-.67559-.11296-.64805-.0621.0205-.13768.19666-.16789.39156l-.055.35438-.0128-.34992c-.011-.30015-.0321-.3339-.14837-.23741-.14268.11841-.17185.53627-.0774 1.108.0454.27439.08.32019.17972.23742.068-.0564.12908-.20936.13585-.33995zm.60335-.35734c.0165-.16799.0793-.28671.1515-.28671.0678 0 .1401-.0712.16077-.15812.0297-.1249.0591-.10587.13994.0904.11469.27849.2868.33231.28891.0904.00084-.10235.0249-.12126.068-.0536.0966.15184 3.46946-1.76781 3.43401-1.95447-.0144-.0759-.24115-.25342-.50382-.39445l-.4776-.2564-1.75793.97725-1.75794.97725v.66468c0 .49127.0295.65499.11296.62759.0621-.0204.12569-.1661.14126-.32379zm-1.85334-.45355c.50679-.29057 1.78374-1.00527 2.83768-1.58825 1.05394-.58297 1.93592-1.12798 1.95995-1.21113.024-.0831.0901-.33417.14664-.55781.1549-.61175.74476-1.46537 1.18263-1.71147.28004-.15739.38898-.1815.44086-.0975.0445.072.0891.0788.12594.0192.0314-.0508.0107-.10776-.0461-.12666-.0567-.0189.44114-.3336 1.10634-.69931.6652-.36572 1.61608-.89676 2.11305-1.18009 1.47211-.83924 2.81464-1.53533 2.9612-1.53533.0752 0 .1565-.0511.18047-.1136.024-.0624.42477-.31491.89067-.56096.80539-.42537.8871-.44894 1.66032-.47916.52836-.0207.98733.0151 1.31019.10182l.49696.13357 1.21988-.68658c2.12093-1.19373 2.43981-1.38332 2.43662-1.44867-.002-.0351-.83951-.50509-1.86175-1.04444l-1.85862-.98064-.51613.14481c-.6438.18064-1.37596.18504-1.95622.0117-.24508-.0732-1.19784-.54459-2.11726-1.04754-.91941-.50294-2.05794-1.12039-2.53006-1.37212-2.79654-1.49102-3.87807-2.11249-4.18119-2.40256-.38928-.37253-.78859-1.11218-.78859-1.4607 0-.12983-.0508-.30002-.11295-.3782-.12919-.16256-5.3136-2.96463-5.4852-2.96463-.284 0-5.29866 2.74877-5.494178 3.01162-.04333.0582-.193373.38236-.333534.7204-.469115 1.13136-.537195 1.18094-5.01959 3.65634-4.601252 2.54102-4.481934 2.48239-5.148287 2.53006-.341025.0244-.884731-.005-1.208232-.0666l-.588188-.11099-1.429653.77013c-.78631.42357-1.648383.89086-1.915727 1.03841l-.486053.26828.214974.13699c.118251.0754.89629.52604 1.728982 1.00154 1.263985.72179 1.547487.85075 1.716836.78099.446896-.18409 1.129428-.2572 1.752685-.18774.621336.0693.762457.13743 3.659564 1.76824 1.657325.93294 3.486125 1.97324 4.064004 2.3118 1.439482.84334 1.942792 1.43266 2.176934 2.54893.09466.45146.125859.49028.60474.75357.277685.15268 1.519109.85247 2.758708 1.55511 1.239595.70263 2.288785 1.27751 2.331525 1.27751.0427 0 .49235-.23773.99913-.52829zm-6.171805-3.89934v-1.17467h.50109c.417825 0 .539714.0386.733621.23253.191494.1915.223352.28916.18047.55336-.0286.17646-.122423.39859-.208432.49362-.161046.17796-.159296.19133.125902.95689.02807.0754-.0524.11295-.241505.11295-.190407 0-.300343-.052-.334591-.15814-.127065-.39386-.161633-.41812-.193117-.13554-.02871.25723-.06564.29368-.29808.29368h-.265358zm.813236-.41195c0-.0716-.06094-.13021-.135539-.13021-.136105 0-.185753.19075-.0778.29874.08431.0843.213299-.0176.213299-.16853zm.869256.79598c.120801-.43485.264099-.96346.318443-1.17468.09061-.3522.122989-.38402.390823-.38402h.29204l.284857 1.1069c.15666.6088.284718 1.13741.284569 1.17468-.000182.0372-.142594.0678-.316533.0678-.220887 0-.316266-.0409-.316266-.13554 0-.0904-.0904-.13554-.271079-.13554-.180715 0-.271078.0451-.271078.13554 0 .0939-.09445.13554-.307707.13554h-.307717zm.757218-.25382c0-.0775-.04066-.11574-.0904-.0851-.04973.0307-.0904.0941-.0904.14087 0 .0467.04066.0851.0904.0851.04973 0 .0904-.0634.0904-.14087zm.993952-.13021v-1.17467h.542163v2.34935h-.542163zm.722883.004v-1.1788h.63251v1.71682h.32199c.30884 0 .32083.012.29367.29368l-.0283.29367-.60993.0267-.60993.0267zm1.5034 1.01241c-.0246-.087-.11265-.46308-.19545-.83582-.0828-.37273-.18733-.79558-.23228-.93967-.12328-.39524-.10576-.42955.20436-.39886.24551.0243.29996.0774.38402.37393.12727.44903.26036.441.35176-.0212.0607-.30713.10902-.36957.28574-.36957.17761 0 .22268.0594.27362.36096.0851.50356.18427.51735.31679.044.10065-.35932.14263-.40498.37273-.40498.14263 0 .25991.0305.26061.0678.00073.0373-.13144.56583-.29366 1.17458-.265.9944-.31532 1.10681-.49552 1.10689-.16106.00009-.22485-.0831-.32375-.42231-.13151-.45099-.15918-.44396-.32924.0836-.0854.26472-.15579.33885-.32203.33885-.12533 0-.23126-.065-.2577-.15813zm1.65918.11737c0-.0596.25834-1.04342.35706-1.35981.0465-.14909.12909-.44389.1835-.65511.092-.35693.12057-.38403.40562-.38403.21358 0 .32123.048.35459.15814.0264.087.15207.56474.27937 1.06172.12731.49698.25355.97475.28053 1.06172.0406.13075-.009.15813-.28174.15813-.25481 0-.34166-.0415-.37807-.18071-.0312-.11936-.12325-.18073-.27108-.18073-.14782 0-.23986.0614-.27107.18073-.0355.13579-.12326.18071-.35298.18071-.16815 0-.30573-.0183-.30573-.0408zm1.07797-.93061c-.013-.13843-.1619-.4253-.16802-.32364-.003.0581-.031.16988-.0611.24849-.036.0938-.005.14292.0904.14292.0798 0 .14235-.0305.13886-.0678zm1.0003.42664c0-.42569-.0592-.66209-.27108-1.08174-.34363-.68074-.34563-.81324-.0123-.81324.22487 0 .27993.0553.41988.4218l.16109.42179.21437-.42179c.19328-.38031.24529-.4218.52888-.4218.17299 0 .31453.0211.31453.047 0 .0258-.18298.41132-.40662.85661-.28022.55794-.40662.92255-.40662 1.17287 0 .34336-.0148.36324-.27108.36324h-.27108zm-5.51193-2.31462c-.173946-.0211-.660886-.10107-1.082094-.17757-2.543424-.46203-4.491221-2.02066-5.125567-4.10149-.177535-.58236-.246297-1.9402-.129659-2.56023.236629-1.25782 1.053163-2.59709 2.088439-3.4254 1.333889-1.06725 2.809774-1.69894 4.492821-1.92294 1.22593-.16317 1.82576-.16346 2.96538-.001 2.81237.39992 4.75948 1.63604 5.69884 3.61791.44852.94629.57819 1.54496.53825 2.48488-.0478 1.12495-.42323 2.15619-1.13632 3.12148-.60764.82252-1.84491 1.77888-2.68311 2.07394-.23721.0835-.4959.18514-.57487.22584-.079.0408-.5669.2056-1.08431.36644-.86017.26736-1.05686.29432-2.29615.31469-.74546.0123-1.49771.005-1.67165-.0161zm-2.226014-3.35572c.02401-.0388.06852-.86224.09893-1.82978.03042-.96754.07748-1.97544.104483-2.23977l.0492-.4806.46711.0139c1.029811.0307.964091.0679.964091-.54537v-.54388l-2.010509.0243-2.010498.0243-.02892.35283c-.0159.19405-.0043.45214.02657.57353.05422.21604.06884.21934.694933.15647l.639554-.0643-.02412 2.24666c-.01323 1.23568-.01814 2.27717-.01099 2.31445.0175.0902.984208.0875 1.040078-.003zm7.105434-.77813c0-.84164.019-.86808.62554-.86808.90677 0 1.75488-.51711 2.07728-1.26655.17175-.39922.18512-.51914.10576-.94838-.0499-.27025-.1521-.60983-.22698-.75463-.19805-.38299-.72854-.85229-1.11442-.98589-.37578-.13011-2.26548-.14129-2.47046-.0146-.10245.0633-.13213.59763-.1576 2.83727l-.0314 2.75928h1.19224zm.20331-2.02444c-.19434-.0296-.20331-.0686-.20331-.88586 0-.61187.0329-.8676.11581-.8994.0637-.0244.33679-.0126.60686.0263.42072.0605.52063.11454.69743.3769.27207.40373.26038.668-.0447 1.00942-.25354.28375-.73984.43838-1.17211.37272zm-6.306841 1.95509c.126585-.0576.23015-.17314.23015-.25657 0-.16697.383182-.38097.563684-.31479.06275.0229.173982.003.24728-.0429.116017-.0738.110727-.15251-.04098-.60898-.09584-.28834-.203641-.58526-.239617-.65981-.03597-.0745-.08741-.20669-.114366-.29367-.02689-.087-.08068-.1575-.119541-.15675-.202285.004-.308006.21989-.509447 1.04056-.391079 1.5932-.38934 1.46246-.01718 1.29291zm.412253-1.18276c.0011-.16441.01814-.17737.08901-.0678.113213.17519.113213.27108 0 .27108-.04973 0-.08976-.0915-.08901-.20331zm1.269598.20013c.14098-.0755.17524-.19339.17721-.60993l.002-.51639.25178.30354c.16406.19777.31277.29185.42678.27001.15884-.0304.17736-.12731.20055-1.04902.0141-.5585.001-1.01546-.0285-1.01546-.0298 0-.13272.042-.22886.0935-.14281.0764-.17477.19212-.17477.63277v.53924l-.32798-.36304c-.48317-.53481-.57562-.40225-.57562.82539 0 .54059.023.98288.0511.98288s.12977-.0421.22591-.0935zm1.91039-1.11212c.43786-.26928.66296-.56498.79042-1.03837.11127-.41322.0655-.6886-.1562-.94115-.18154-.20674-.44827-.19964-.81113.0216l-.29367.17905v.99528c0 .54741.0305.99402.0678.99247.0373-.001.21854-.0955.40281-.20888zm-.0188-1.0458c0-.47811.0222-.54969.17018-.54969.22599 0 .29631.30374.16293.70377-.18063.54176-.33311.47122-.33311-.15408zm-17.80082 1.52882v-.9036h-.225903c-.180715 0-.225902-.0451-.225902-.22589 0-.22214.01206-.2259.722884-.2259s.722873.004.722873.2259c0 .19076-.04216.22589-.271079.22589h-.271079v1.8072h-.451794zm2.62066.83583c.000085-.0373.138058-.29633.306511-.57569l.306287-.50791-.261335-.47789c-.143735-.26284-.261335-.51205-.261335-.55381 0-.0417.12094-.0759.268753-.0759.207236 0 .300854.0621.408945.27108.07705.14909.171025.27108.20873.27108.03767 0 .14062-.12199.228688-.27108.120236-.20353.226405-.27108.426106-.27108.244996 0 .385007.2056.194846.28614-.03917.0165-.177524.21367-.307578.43802l-.236468.4079.173885.35748c.09562.1966.213704.3973.262402.44599.173715.17372.09029.32346-.180235.32346-.207237 0-.300855-.062-.408945-.27108-.174846-.33812-.232317-.33804-.425007.00054-.118101.20757-.217984.27051-.429201.27051-.151409 0-.275177-.0305-.275049-.0678zm1.897317.0385c0-.0161.178176-.51417.395946-1.1069l.395946-1.07771h.34649c.339937 0 .34872.009.463694.45181.100748.38855.179166.67198.443511 1.60388.0365.12872-.01313.15813-.266949.15813-.235815 0-.323329-.0441-.359071-.18073-.03778-.14442-.123244-.18071-.425615-.18071-.302359 0-.387845.0363-.425615.18071-.03351.12802-.123245.18073-.307792.18073-.143298 0-.260545-.0131-.260545-.0292zm1.174679-1.14547c0-.14909-.04066-.27108-.0904-.27108-.04973 0-.09093.0305-.09157.0678-.000734.0373-.02572.15927-.05571.27108-.04002.14947-.01579.20331.09157.20331.102028 0 .146083-.0816.146083-.27108zm1.102381 1.06625c-.05966-.0597-.108431-.22229-.108431-.36144 0-.21928.03511-.25301.263544-.25301.144952 0 .279542.048.299094.10661.04941.14838.340961.021.340961-.14895 0-.10096-.0968-.13838-.358261-.13838-.411549 0-.545338-.16235-.545338-.66174 0-.51451.247087-.72793.849554-.73383.534335-.005.682351.0891.685179.43648.0011.15048-.04685.1638-.41141.11384-.389564-.0534-.411165-.0452-.384025.14584.02252.1583.09755.20896.344227.23237.387131.0367.449447.12738.451208.65635.0021.55831-.177962.71429-.823493.71429-.2719 0-.543171-.0488-.602809-.10843zm-5.530006-1.06625V12.5881h.632521c.614442 0 .63251.006.63251.2259 0 .20331-.03618.22589-.361431.22589-.325295 0-.361442.0226-.361442.2259 0 .16566.04824.2259.180715.2259.120481 0 .180727.0602.180727.18072 0 .12048-.06019.18072-.180727.18072-.140555 0-.180715.0603-.180715.27108 0 .24956.02508.27107.316255.27107.25602 0 .316266.0345.316266.18073 0 .16218-.06019.18072-.587345.18072h-.587334zm24.255599.87548c-.025-.0651-.0339-.5836-.0197-1.15209l.0257-1.03361h.60544c.333 0 .65134.0459.70742.10203.056.0561.12434.26872.15167.47248.0651.48582-.12645.78379-.5558.86433-.31116.0584-.3214.0731-.3214.46282 0 .38793-.01.40252-.27391.40252-.15066 0-.29437-.0532-.31938-.11847zm.83924-1.33829c.12605-.12605.0492-.35043-.12007-.35043-.0741 0-.12588.0931-.12588.22591 0 .24333.0844.28606.24595.12452zm.38657 1.40774c0-.027.16556-.55793.36792-1.17991l.36792-1.13089.28209.0279c.2751.0271.29046.0536.6198 1.06696.18575.57153.34053 1.08996.34395 1.15209.0107.18627-.42974.13064-.53592-.0678-.0679-.12679-.1892-.18072-.40662-.18072-.21743 0-.33876.0539-.40662.18072-.0633.11833-.1892.18071-.36462.18071-.14734 0-.2679-.0221-.2679-.049zm1.17329-.96752c-.002-.14651-.1761-.41929-.17795-.27847-.00084.0581-.026.16988-.0562.24849-.036.0938-.005.14293.0904.14293.0798 0 .14458-.0508.14382-.11295zm1.14488.8513c-.11844-.13088-.14954-.35569-.14954-1.08113 0-1.0559.0339-1.10297.79624-1.10297.49415 0 .61843.0931.70545.52817.0542.27119.0433.28506-.22535.28506-.15531 0-.28239-.0435-.28239-.0967s-.0915-.0837-.2033-.0678c-.22894.0326-.30331.34082-.20659.85639.0413.22009.10459.30198.23328.30198.0971 0 .17661-.0407.17661-.0904 0-.0497.12199-.0904.27108-.0904.22414 0 .27108.0367.27108.21189 0 .33447-.27074.51099-.78375.51099-.32436 0-.49579-.047-.60282-.16525zm1.65765-1.00943v-1.17467h.54216v2.34934h-.54216zm.81324 0v-1.17467h1.26504v.27108c0 .25602-.0201.27107-.36144.27107-.3253 0-.36145.0226-.36145.22591 0 .19076.0422.22589.27108.22589.22892 0 .27108.0351.27108.2259 0 .19076-.0422.2259-.27108.2259-.26505 0-.27108.01-.27108.4518 0 .44176-.006.45179-.27107.45179h-.27108zm1.44575 0v-1.17467h.54216v2.34934h-.54216zm1.01204 1.06624c-.1487-.1487-.1487-1.98378 0-2.13248.0597-.0597.32163-.10843.58221-.10843.38716 0 .4995.0367.61444.20082.0774.11046.14066.29344.14066.40662 0 .16657-.0496.20579-.26053.20579-.18889 0-.27423-.0523-.31029-.19023-.0274-.10491-.1031-.17246-.16867-.1506-.083.0276-.11892.228-.11892.66338 0 .52222.0257.62872.15813.65421.0965.0186.15812-.025.15812-.11172 0-.0978.0847-.14216.27108-.14216.24644 0 .27108.0271.27108.29818 0 .41549-.13974.51505-.72287.51505-.27831 0-.55481-.0488-.61444-.10843zM23.036272 5.76595v-.85843h-.232178c-.189104 0-.226831-.0378-.203309-.2033.02668-.18815.08111-.20528.72916-.2297.69675-.0262.70029-.0252.70029.20331 0 .18477-.0442.22969-.2259.22969-.2251 0-.2259.003-.2259.85843v.85841h-.542163zm1.194403-.20331l.0255-1.06173.24849-.0286c.24215-.0279.24849-.0169.24849.42922 0 .44842.005.4578.27108.4578.26506 0 .27108-.01.27108-.45181 0-.44175.006-.45179.27107-.45179h.27108v2.16863h-.27108c-.26103 0-.27107-.0151-.27107-.40662 0-.39156-.01-.40662-.27108-.40662-.26104 0-.27108.0151-.27108.40662 0 .39251-.01.40662-.27395.40662h-.27394zm1.98791 0l.0254-1.06173.56476-.0269c.51765-.0247.56474-.0115.56474.15812 0 .15123-.0577.18504-.31626.18504-.27469 0-.31625.0288-.31625.21961 0 .15895.0561.2276.2033.24849.13066.0186.21363.1015.23218.23218.0235.16558-.0142.20331-.20331.20331-.17194 0-.23217.0469-.23217.18073 0 .14629.0602.18071.31625.18071.29115 0 .31626.0216.31626.27108v.27108h-1.18041zm-7.87741 17.50533c.2349-.11983.357835-.24401.357835-.36143 0-.21853.01697-.21849-.489479-.001-.298144.1278-.41411.22902-.41411.36144 0 .23046.09627.23071.545754.001zm13.55035-.0345c0-.16352-.6193-.53031-.78685-.46601-.17762.0682-.0735.20178.31831.40876.40329.213.46854.22097.46854.0572zm-13.646134-.47054c.244846-.098.363267-.20105.363267-.31625 0-.20844-.07449-.21197-.540333-.0255-.244846.098-.363267.20107-.363267.31627 0 .20844.07439.21196.540333.0255zm13.735794.0324c-.00085-.13284-.6735-.53813-.75609-.45553-.1124.11239-.051.21303.23722.38875.33726.20564.51987.22914.51887.0668zm.091-.3751c0-.0696-.14464-.21196-.32142-.31626-.38962-.22988-.40145-.23076-.40145-.0299 0 .15976.39684.46578.60993.47032.0621.001.11294-.0545.11294-.12422zm-13.940986-.11156c.400311-.15289.484335-.27232.2538-.36078-.1446-.0555-.770354.29023-.770354.4256 0 .11432.07065.10544.516554-.0648zm14.076526-.29993c0-.064-.12917-.21604-.28703-.33778-.28146-.21706-.28889-.21788-.38285-.0423-.0815.15238-.0523.20693.19667.36628.31111.19915.47321.20388.47321.0138zm-14.067465-.15176c.169232-.1095.188539-.16056.100747-.26636-.09306-.11215-.15302-.097-.418603.10555-.170481.13003-.329969.21641-.354409.19197-.02444-.0244.09007-.13737.254419-.25095.164377-.11356.314836-.21868.334345-.23356.01953-.0149-.01569-.0887-.07823-.1641-.09957-.11997-.157258-.10256-.463737.1402-.34585.27392-.348145.27982-.192829.49628.172071.23981.427515.23387.818338-.019zm14.342065-.12906c.0327-.0528-.0158-.18499-.10762-.29367l-.16698-.19763.20544.17407c.14586.12359.23347.14604.30209.0775.12277-.12277-.13252-.53692-.37927-.61524-.19981-.0634-.3806.022-.30512.1441.0286.0463-.007.0841-.0792.0841-.25584 0-.23381.26098.0416.49271.29975.25222.39924.2795.4891.13412zm-14.973732-.44206c.195315-.16699.202647-.36549.01355-.36549-.04504 0-.235785.1301-.423876.28911l-.341997.28911.301528-.3241c.415017-.44612.201644-.57356-.23284-.13907l-.318464.31846.259777.13612c.273693.1434.365348.1182.742361-.20414zm-.601283-.74753c-.09178-.0917-.173159-.0435-.417194.24698-.396352.47183-.220663.61628.217919.17918.252104-.25125.291004-.33443.199275-.42616zm16.193665.68977c.11665-.0447.099-.10502-.10555-.36144-.25214-.31601-.41506-.38167-.52115-.21003-.0463.075.36359.62518.46585.62518.0115 0 .0839-.0241.16086-.0537zm.2959-.52193c-.21552-.27981-.51145-.42514-.51145-.25116 0 .18313.46094.6369.59479.58554.11059-.0425.0957-.10181-.0833-.33438zm-17.00502.0205c.176254-.20947.21237-.31031.137524-.38403-.07449-.0734-.172007-.0214-.366522.19512-.145774.16231-.265038.33512-.265038.38404 0 .18313.263224.0792.494036-.19513zm17.94056-.3343c-.22612-.39153-.40975-.55039-.54123-.46823-.11344.0709-.10213.12561.0757.36617.11501.15557.18963.3023.16583.32611-.0238.0238-.13182-.081-.24001-.233-.10821-.15196-.25255-.27629-.32079-.27629-.23739 0-.23909.19047-.004.49814l.23614.30959.35761-.18639c.28898-.15063.34101-.21512.27115-.3361zm-18.310689.14711c.16777-.21436.202113-.32096.131025-.40662-.144729-.17438-.20442-.14653-.462137.21569-.376917.52974-.07172.70569.331112.19093zm-.243534-.56544c-.06905-.20752-.299329-.12001-.498945.1896-.17047.26443-.188154.34423-.0904.40779.08463.055.197343-.01.370898-.21279.137118-.16049.235401-.33357.21841-.3846zm19.004783.35449c0-.0802-.38664-.67302-.43813-.67181-.0323.00073-.11698.0382-.18803.0831-.10662.0675-.0867.13756.11483.40168.15348.20123.29361.3009.37768.26864.0735-.0282.13365-.065.13365-.0816zm-19.605757-.2246c.182444-.25622.191463-.53895.01718-.53895-.108805 0-.479852.68417-.409318.75472.108186.10817.195774.06.392125-.21577zm19.791947-.30255c-.18159-.28776-.45727-.4271-.45727-.2311 0 .0599.0856.24732.19011.41651.15314.24778.21489.28705.31748.20189.10839-.09.10085-.14767-.0503-.3873zm-20.169931.0841c.207684-.305.201537-.50121-.01569-.50121-.144739 0-.459105.58947-.38141.71518.09701.15698.172028.11656.397109-.21397zm20.662451.0393c.0904-.14624-.30602-.71987-.45735-.6618-.17008.0653-.16547.10883.0488.46015.18387.30158.30878.36321.40862.20165zm-21.010638-.31295c.19222-.31104.181943-.50072-.02689-.49641-.104162.002-.423873.54855-.423873.72437 0 .20035.27065.0635.450778-.22796zm21.367228.14009c.0714-.11556-.23092-.72908-.35928-.72908-.20416 0-.2138.11799-.0378.46299.17731.34755.29711.42783.39707.26609zm-21.733353-.35646c.165793-.32499.165206-.46299-.0021-.46299-.0857 0-.44411.57378-.44411.71096 0 .23322.280011.0776.446095-.24797zm22.108003.13251c.0674-.17579-.21004-.68585-.37314-.68585-.17187 0-.16794.10171.0191.49391.16168.33906.27421.40006.35407.19194zm-22.471623-.28617c.190951-.32364.183459-.49004-.02209-.49004-.144739 0-.459106.58947-.38141.71519.103415.16726.205635.1102.403491-.22515zm22.865073.0296c-.002-.0621-.0734-.24348-.15859-.40304-.11555-.21652-.18822-.26943-.28658-.20864-.11425.0707-.11137.12417.0216.40303.14623.30666.43157.44722.42357.20865zm-23.266131-.24401c.190727-.36881.176597-.4316-.133148-.59178-.267387-.13827-.273438-.13618-.451464.1558-.214536.35188-.230086.52186-.04771.52186.07332 0 .213875-.15248.312264-.33885.0984-.18637.179243-.29818.17967-.24849.000451.0497-.05731.19202-.128336.31626-.167663.29328-.168474.4518-.0021.4518.07332 0 .195262-.11997.271079-.2666zm23.661811.10847c.0711-.11724-.22471-.74547-.35104-.74547-.20752 0-.23012.15666-.0708.49078.14358.30107.32664.4116.42183.25469zm.69075-.35837c.14751-.12631.14918-.16358.0218-.48783-.13889-.35357-.3456-.45959-.43613-.22368-.0269.0701.018.25682.0999.41502.0819.15819.12779.30857.10224.33417-.0256.0256-.10785-.10021-.18278-.27947-.0749-.17931-.19928-.32603-.27637-.32603-.17514 0-.17535.0744-.001.49099.11401.27283.17235.32169.32593.27295.10288-.0326.25893-.1209.34678-.19612zm-25.033611-.19514c.167546-.32842.165358-.46299-.0075-.46299-.102882 0-.443289.68805-.374463.75688.116724.11672.208528.0461.381976-.29389zm-.356746-.14508c.193181-.31257.181986-.49863-.02999-.49863-.152573 0-.447931.52175-.386288.68238.08047.20967.207931.1534.416309-.18375zm25.883107.0532c.0815-.13186-.211-.73247-.35671-.73247-.17238 0-.17104.20907.003.54664.13927.26934.26175.33378.35318.18583zm-26.248786-.33724c.106297-.18021.181495-.33551.167055-.34511-.01441-.01-.180801-.10598-.369681-.21417l-.343427-.1967-.16999.37968c-.09349.20883-.150022.41198-.125625.45146.09947.16104.280279.0529.42744-.25568.08591-.1801.180247-.30335.209692-.2739.02945.0295-.01291.15504-.09424.27908-.08132.12405-.14778.28797-.14778.36426 0 .25062.249488.14507.446543-.18892zm26.624616.1123c.0264-.0687-.0133-.27165-.0881-.45088-.0969-.23184-.17673-.31033-.27671-.27197-.1718.066-.17204.0426.005.48456.14955.37377.27599.45743.36009.23829zm.39817-.2623c0-.14813-.21047-.69722-.26664-.69565-.0273.00074-.10032.0335-.16218.0729-.1615.10257.12876.8348.30422.76748.0685-.0263.1246-.0914.1246-.14469zm-27.830932-.2899c.192264-.58259-.160961-.70762-.385337-.1364-.130289.33167-.129723.36788.0075.44437.197845.11071.255775.0636.37839-.30797zm28.213022.17462c.07-.07-.20994-.76247-.30828-.76247-.15814 0-.17418.26072-.0329.534.13975.27026.23532.33426.34113.22847zm-28.633578-.41853c.116574-.29677.124451-.39444.03629-.45042-.188901-.11996-.222583-.0881-.3222.30433-.160214.63119.05262.73994.285903.14609zm29.018248.2003c.0654-.10587-.11382-.81591-.2055-.81393-.0353.0007-.12265.0383-.19398.0835-.11089.0702-.11206.13547-.009.45041.11588.3511.28983.47064.40761.28007zm-32.482988-.12501c0-.0676-.02583-.3117-.05752-.54241-.0572-.41704-.06211-.42214-.846545-.87104-.433982-.24834-.875724-.45154-.981635-.45154-.105871 0-.182425-.0508-.170002-.11294.01644-.0821-.197663-.12015-.783493-.13929-.884581-.0289-1.179641.0223-.953397.16535.07311.0462.295658.0894.494442.0959.198794.006.29029.0304.203309.0531-.08698.0227-.158122.0703-.158122.10576 0 .0813 2.987235 1.80778 3.139989 1.81475.06211.003.112957-.0502.112957-.11778zm3.176116-.55149c.04109-.23061-.251655-.30115-.316309-.0762-.02956.10298-.04077.0807-.0302-.0604.01067-.14295-.03597-.23418-.129316-.25279-.207504-.0414-.385787.6513-.206042.80048.09797.0813.143587.0578.214824-.1104.07417-.17509.08687-.18102.07097-.0329-.01078.0994.01772.24026.06329.31302.06585.10512.10523.0773.191986-.13554.06009-.14731.123437-.34769.140843-.44528zm29.667522.18858c-.10417-.51957-.14008-.59027-.27362-.53902-.15513.0596-.16056.14647-.0369.59161.0675.24297.1306.32039.23007.28221.10042-.0385.12195-.12799.0805-.3348zm5.08547-.75513c.90734-.51853 1.62669-.98003 1.59855-1.02558-.0282-.0456.0505-.0828.17472-.0828.12425 0 .24987-.0387.27916-.0861.0312-.0504-.20133-.0994-.55942-.11784-.60566-.0313-.60387-.0319.15539-.0508.75022-.0187 1.20048-.13366.90106-.2302-.0731-.0236-.194-.0632-.26855-.088-.0746-.0249.0983-.0485.38404-.0523.28576-.004.51956-.0478.51956-.0975 0-.12943-2.04946-.1197-2.1297.01-.0342.0553-.006.13596.0624.17934.0822.0521-.007.0793-.26484.0803-.23626.00082-.36741.0369-.33352.0918.0307.0497-.01.0904-.0888.0904-.19278 0-2.31995 1.1542-2.46382 1.33687-.11546.1466-.159 1.02667-.0559 1.12977.069.0691.0391.0846 2.08965-1.08718zm-37.530024.8557c-.0043-.0863-.0143-.30218-.02263-.47977-.01185-.25472-.04845-.31646-.173181-.29244-.08698.0168-.154739.10107-.150598.18735.0043.0863.0143.30218.02263.47977.01185.25472.04845.31646.173191.29244.08698-.0168.154739-.10107.150598-.18735zm32.851864-.32468c-.002-.41281-.10246-.5789-.30417-.50151-.15214.0584-.15199.23336.00057.77763.0785.28017.30497.0742.3035-.27612zm-32.391628.25668c.03116-.0505.09456-.0684.140876-.0398.04632.0286.134941.0202.197065-.0187.139425-.0873.354207-.097.474388-.0216.175102.10994.576833.17175.623674.0959.02604-.0422.07513-.24976.108912-.46126.05518-.34517.04397-.38119-.109649-.35179-.113255.0217-.191526.13936-.23143.34797l-.0603.31524.01473-.36029c.01131-.27811-.02124-.3672-.14302-.39065-.11173-.0216-.160342.0308-.166725.17956-.0085.20763-.0096.20746-.07577-.016-.03938-.13333-.119029-.21133-.194301-.19036-.07012.0195-.21903.0302-.330855.0236-.161569-.01-.205828.0388-.215614.23555-.01067.21304-.01772.21919-.05144.0442-.02444-.12711-.10459-.20331-.213598-.20331-.138314 0-.174429.0639-.174429.30887 0 .16987.02465.37318.05486.4518.06169.16086.266511.19053.35268.0511zm34.814858-.38171c-.0211-.36599-.0632-.48037-.18544-.50361-.13321-.0253-.15814.0398-.15814.4133 0 .46751.0419.56385.24569.56385.0942 0 .11844-.11709.0979-.47354zm-1.88107-.0913c-.002-.46086-.0958-.63631-.29951-.55814-.27442.10533-.15832.94217.13071.94217.14019 0 .16994-.0677.1688-.38403zm1.39066.1016c.0311-.1553.0565-.35427.0565-.44213 0-.19916-.27589-.31642-.37542-.15957-.0888.14-.10054.7394-.0161.82384.13796.13796.28218.0424.33508-.22214zm-1.02783-.25978c0-.39921-.0222-.4518-.19039-.4518-.13649 0-.17487.0404-.13554.14293.0302.0786.0549.28192.0549.4518 0 .2143.0415.30886.13554.30886.10234 0 .13554-.11044.13554-.45179zm.5248-.0304c.0261-.40952.0155-.43361-.18073-.40581-.16303.0232-.21485.0955-.2375.33184-.0382.39905.038.57625.232.53941.11992-.0227.16516-.13582.18623-.46544zM4.467352 15.02776c.118229-.0508-.12396-.0798-.70028-.084-.531336-.004-.881006.0296-.881006.084 0 .1105 1.324134.1105 1.581286 0zm-.431336-.3066c.135999-.136-.137941-.18444-.90519-.16007-.87663.0279-.998338.0598-.784303.20568.136852.0933 1.589802.0541 1.689493-.0456zm-.622809-.30895c.240695-.0841-.108132-.19458-.662681-.20988-.534377-.0147-.53633-.0157-.135539-.0691.265774-.0354.365999-.0805.28936-.12996-.158314-.10224-2.006378-.18524-2.005492-.0901.0011.11659.455925.30052.762777.30846.151612.004.224569.0277.162146.0529-.06243.0252-.0889.0856-.0588.13426.05304.0858 1.404306.0886 1.648256.003zm45.375538-.2826c0-.0467-.15248-.10085-.33885-.12034-.23014-.0241-.15938-.0403.22056-.0506.55663-.0151.92579-.1959.40004-.1959-.45632 0-.39996-.15994.0796-.22589.24854-.0341.45179-.0888.45167-.12144-.00009-.0326-.23392-.1809-.51956-.32953-.28565-.14863-.90564-.47641-1.37778-.72841-.47212-.25198-1.54966-.81769-2.39452-1.25712-.84487-.43942-1.61632-.85373-1.71435-.92065-.098-.0669-.2562-.12171-.3515-.12171-.15651 0-.16816.0493-.12063.50985.0289.28042.0855.53978.1256.57635.0401.0366 1.05752.58875 2.26087 1.22704l2.1879 1.16055-.26776.16065c-.14726.0884-.39991.2413-.56143.33986l-.29367.1792 1.10691.001c.63137.00091 1.1069-.0349 1.1069-.0834zm-45.018546-.76102c.383438-.21677 1.08344-.60069 1.555576-.85313 2.273477-1.21567 2.107435-1.09418 2.226134-1.62871.08847-.39829.08517-.48762-.01964-.52783-.06937-.0266-1.088414.4742-2.264533 1.11296-1.17613.63874-2.55574 1.38502-3.065806 1.65839-.510066.27337-.957847.52752-.995083.56475-.03725.0373.367429.0677.899266.0677h.966962zm5.423903-2.15853c.02412-.29099.0021-.33885-.158133-.33885-.147364 0-.188656.0613-.198069.29368l-.01185.29367-.05592-.30909c-.05998-.33168-.274921-.49204-.292253-.21801-.0096.15124-.01409.1519-.05176.007-.02273-.087-.07898-.15813-.125059-.15813-.046 0-.113832-.0107-.15062-.0226-.03682-.0124-.09498.0994-.129424.24849-.06115.26506-.06222.26408-.0461-.0438.01185-.22646-.02444-.3228-.129146-.34306-.105977-.0205-.160567.0638-.200524.31014-.06169.38038-.05966.38545.175785.43322.0937.019.241516.0627.328486.0972.122732.0486.159723.0149.165262-.15035.0064-.19777.02615-.1729.131345.16745.02017.0651.172519.10171.376874.0904.327237-.0181.344356-.0346.371111-.35784zm.482467 0c.01259-.27333.01612-.27646.05123-.0451.02679.17671.0904.24848.220299.24848.164611 0 .176394-.038.119222-.38402-.0778-.47063-.09104-.48627-.280396-.32914-.08335.0692-.226682.1131-.318443.0975-.139478-.0236-.166842.0319-.166842.33885 0 .30688.02967.36712.180716.36712.140876 0 .183704-.0648.194259-.29368zm32.046406-.27565c-.0432-.43313-.25336-.4192-.25336.0168 0 .29396.0276.35551.1404.31225.094-.0361.13134-.1448.11296-.32905zm-31.27239-.0707c-.05678-.42352-.118635-.51687-.253203-.3823-.139477.13946-.0053.75121.165305.75121.108581 0 .127001-.0774.08794-.36891zm30.41992.1656c.0962-.35866.0637-.60993-.0785-.60993-.0746 0-.13554.0559-.13554.12425 0 .0683-.0254.25131-.0564.40662-.0433.21641-.0247.28237.0798.28237.0749 0 .16081-.0915.19078-.20331zm.44362-.0904c.0442-.2838-.054-.52091-.1684-.40652-.0307.0307-.0754.20081-.0992.378-.058.43025.20077.45782.26763.0285zm.87837-.0678c0-.26103-.0377-.36143-.13554-.36143-.0979 0-.13554.10043-.13554.36143 0 .26105.0377.36144.13554.36144.0979 0 .13554-.10042.13554-.36144zm.34405-.0748c.0216-.29295-.003-.377-.11296-.377-.10694 0-.14074.0995-.14074.41415 0 .5333.21396.50197.2537-.0371zm-31.608979.17808c-.0021-.24387-.211356-.74007-.298955-.70898-.100321.0356-.111996.50566-.01889.7623.03949.10878.318838.0619.317845-.0534zm29.588509-.23856c.059-.39325.0202-.5876-.11736-.5876-.0911 0-.29962.80602-.23535.91001.13005.21042.29549.0592.35271-.32241zm2.46801-.007c.0259-.29072-.0931-.54148-.21977-.46317-.11994.0741-.0309.80172.0932.76107.0567-.0186.11365-.15264.12659-.2979zm-31.671832.0897c.05795-.0581-.09595-.57834-.20792-.70281-.160086-.17791-.245871.0388-.155796.3937.08335.3286.224387.44842.363716.30911zm28.773742-.35171c.0509-.22251.0713-.42582.0453-.4518-.13796-.13796-.2778-.003-.36782.35422-.12922.51317-.13063.50215.0643.50215.122 0 .18983-.1063.25807-.40457zm-28.344691.0805c0-.0186-.06435-.19459-.143063-.39124-.09616-.24033-.185028-.34143-.271079-.30841-.160641.0617-.160278.1391.0021.52875.09232.22094.171698.29664.271079.25851.07727-.0297.140534-.069.140534-.0876zm27.923701-.36507c.0806-.35744.002-.55527-.17543-.4452-.054.0334-.0988.14979-.0996.25868-.00085.1089-.0391.25761-.0852.33049-.0535.0845-.0478.17587.0156.25232.1346.16218.24809.0317.34461-.39629zm-27.536015.18099c.07268-.0728-.274537-.75687-.384185-.75687-.164547 0-.18063.16726-.04685.48738.12587.30127.294099.40645.431047.26949zm27.084015-.35878c.0977-.34891.0961-.42758-.01-.49321-.15205-.094-.20985-.0367-.33122.32787-.091.27359-.0112.58049.15095.58049.0408 0 .12643-.18681.19035-.41515zm-26.658464.0396c0-.18481-.282979-.61836-.403609-.61836-.26269 0-.241623.21527.06809.69634.07673.11918.335476.059.335476-.078zm26.195444-.18004c.13467-.3863.12469-.61905-.0266-.61905-.14059 0-.44902.6874-.36757.8192.10672.17268.29799.0756.3941-.20015zm-25.834002-.0362c0-.26698-.266383-.66934-.407334-.61526-.166403.0638-.167001.0492.0175.43596.155059.32517.389884.43316.389884.1793zm25.420522-.26152c.11801-.34635.11918-.41617.009-.50803-.1047-.0869-.1533-.0466-.26386.21792-.16373.39186-.16616.44418-.0271.58323.14431.1443.12749.16175.28249-.29312zm-25.175996-.27525c-.08314-.17443-.185785-.31716-.228005-.31716-.177354 0-.178859.1336-.0053.47373.134846.26433.211015.33417.284377.2608.07343-.0733.05966-.18515-.05101-.41737zm24.750136.0789c.13437-.32159.11717-.57679-.0389-.57679-.10309 0-.38809.72377-.3251.8257.0985.15935.23136.0685.36397-.24891zm-24.181426.10395c0-.0232-.06852-.18581-.152273-.36143-.141655-.29704-.389884-.43996-.389884-.22449 0 .1965.280982.62803.408934.62803.07332 0 .133223-.019.133223-.0422zm23.765546-.34191c.19503-.31992.19171-.46039-.0119-.49991-.12215-.0237-.35057.42394-.35057.68703 0 .20108.18351.1063.36241-.18712zm-23.421468.12559c.0936-.0593.0777-.14362-.07673-.40523-.206415-.34987-.332157-.41174-.412296-.20291-.05176.13498.194398.68681.305369.68447.03597-.00071.118624-.0351.183629-.0763zm23.028158-.32069c.14339-.30069.12021-.59555-.0469-.59555-.11011 0-.39228.71072-.32523.81919.0988.15983.22549.0837.37204-.22364zm-22.559001.0283c0-.17151-.305103-.62387-.420768-.62387-.19713 0-.206159.1421-.02764.43559.167864.27603.448442.39384.448442.18828zm22.139681-.26553c.17742-.34777.17563-.53907-.005-.53907-.0458 0-.16898.16817-.27384.37371-.15442.30269-.16764.38827-.0696.45041.0666.0422.13037.0774.14179.0781.0114.00073.10448-.16266.20673-.36315zm-21.751996.12745c.03095-.0311-.02337-.21265-.120811-.40367-.120705-.23659-.220268-.33074-.312381-.2954-.166842.064-.167418.0493.01708.43611.143373.30065.287419.39168.416137.26296zm21.299616-.32767c.34718-.56942.10384-.74881-.25812-.19027-.17007.26242-.18792.34229-.0904.40411.16518.1047.14775.11538.34849-.21384zm-20.874513-.01c-.000819-.18546-.41696-.63219-.526085-.56474-.159883.0988.21459.78772.391314.7199.07439-.0285.135016-.0984.134771-.15516zm20.513053-.26142c.18519-.30377.19265-.43996.0271-.49514-.0939-.0313-.4799.53464-.4799.70361 0 .19579.28683.0637.45276-.20847zm-20.105613.11233c.07524-.12175-.294772-.6319-.458326-.6319-.180513 0-.161399.15304.05752.46044.19618.27551.307194.32299.400845.17146zm19.693423-.30158c.27247-.35723.28343-.42087.0724-.4201-.14513.00053-.47439.44422-.47439.63926 0 .17085.17896.0733.40202-.21916zm-19.287178.0622c0-.0326-.106297-.19867-.23633-.36908-.308037-.40386-.514687-.26297-.220427.15028.174888.2456.456757.38063.456757.2188zm18.925908-.27626c.14621-.21517.19675-.36674.14092-.42256-.15711-.15712-.70906.47229-.58714.66957.0981.15864.21429.0942.44622-.24701zm-18.622684.0855c.02359-.0381-.06948-.20689-.206799-.3751-.300866-.36862-.429639-.25265-.17174.15468.1819.28729.296105.3538.378539.22042zm18.205564-.34889c.30361-.46852.11677-.59302-.24015-.16002-.15325.18591-.2578.37173-.23234.41293.0956.15469.26823.0623.47249-.25291zm-17.815702.1674c.07375-.047.02764-.16258-.15254-.38264-.178763-.21827-.287418-.28658-.352893-.22185-.06574.065-.03298.18167.107364.38247.218058.31197.238635.32344.398069.22202zm17.458542-.39288c.16089-.20345.18929-.29818.11246-.37502-.0768-.0768-.17024-.0239-.36971.20943-.31078.36357-.33336.44965-.11613.44279.087-.003.255-.12749.37338-.2772zm-16.979383.12407c-.0011-.0372-.120811-.21008-.265497-.38403-.202936-.24397-.287717-.29184-.370951-.20944-.08346.0826-.05923.1684.107364.37903.194312.24574.535157.38388.529084.21444zm16.756433-.65378c-.12243-.12242-.71732.48152-.62362.63312.0458.0742.16823.006.39117-.21658.22028-.22028.29493-.35405.23245-.41654zm-16.437094.44941c.06862-.11103-.316916-.61946-.475039-.62646-.170053-.007-.135977.21244.07428.4798.199659.25382.309617.29406.400717.14666zm15.875104-.24174c.31116-.29813.3167-.4049.028-.53883-.19596-.0909-.26681-.07-.56404.16595-.18696.14845-.35592.28576-.37546.30513-.0195.0193.0339.0619.1189.0944.10459.0401.25461-.0379.46473-.24151.17067-.16541.31031-.25507.31031-.19922 0 .0558-.1016.18149-.2259.27921-.23914.18811-.29829.37759-.1179.37759.0595 0 .22205-.10926.36144-.24281zm-15.469136-.0619c0-.0623-.12079-.22902-.268411-.37046-.235945-.22604-.275615-.23837-.327995-.10182-.03938.10278.02551.24405.191879.41775.24681.25763.404527.2789.404527.0545zm14.813316-.32964c.17083-.14604.28571-.29042.2553-.32083-.14377-.14377-.8589.32169-.75429.49096.0911.14752.15148.12696.49899-.17013zm-14.50561.10598c.07236-.1171-.45824-.58531-.57886-.51076-.07182.0444-.02604.14753.145102.32612.261431.27287.354697.31258.433758.18464zm14.2075-.38298c.27262-.16849.33697-.35373.12288-.35373-.16317 0-.72061.38208-.67206.46065.0776.12559.21682.0985.54918-.10692zm-13.84863.0257c.04109-.0665-.5022-.56014-.616576-.56014-.115379 0-.03618.22897.146468.42338.19968.21255.38919.26769.470108.13676zm13.55479-.29498c.2009-.11854.29817-.23393.26657-.31625-.0627-.16359-.0498-.16539-.43186.06-.32073.18924-.37502.26878-.26117.38263.0811.0811.0683.085.42646-.12639zm-13.569881-.32917c-.25619-.20985-.47077-.26603-.47077-.12326 0 .0461.131025.18635.291165.31167.373768.29252.546074.11176.179605-.18841zm13.362901-.091c.14434-.0853.26243-.20725.26243-.27108 0-.13458-.10694-.15123-.23042-.0359-.0472.0441-.18749.1064-.31174.13842-.15402.0397-.11809-.00087.11295-.12754.18637-.10214.33885-.24578.33885-.31914 0-.17637-.0777-.16798-.4292.0463-.31321.19096-.32066.20734-.23673.52055.0654.244.14875.25215.49386.0483zm-12.930071-.14994c0-.0624-.15825-.20251-.351666-.3112-.285657-.16056-.360834-.17375-.400524-.0703-.04995.13022.115539.31544.434003.48567.199072.10641.318187.0674.318187-.10416zm.134675-.32617c.05784-.0936-.460396-.45227-.65425-.45285-.201623-.00062-.119755.15827.180727.35071.333576.21363.396266.22715.473523.10213zm12.572776-.27984c.29008-.17928.39932-.35407.22129-.35407-.16412 0-.63871.31864-.63926.42921-.00085.15483.065.14301.41797-.0751zM21.200492 3.86137c1.034518-.57522 1.913902-1.07782 1.954179-1.11688.04024-.0391.05987-.26986.04354-.51286l-.02978-.44181-.103096.31626c-.09605.29465-.103629.29964-.111259.0731-.01185-.35199-.181164-.40529-.246693-.0777-.0445.22224-.08058.25788-.178752.17639-.09627-.0799-.141633-.0557-.208592.1115-.06275.15679-.08709.17155-.09125.0555-.0064-.16322-.186446-.22885-.186446-.0678 0 .0497-.06105.0904-.13554.0904-.0746 0-.135539.043-.135539.0957 0 .0526-.03671.073-.08143.0453-.04482-.0277-.298944.0651-.56474.20624-.985564.52328-2.606701 1.4789-2.606071 1.53623.000537.046.710536.54845.784015.55478.0096.00079.863024-.4692 1.897552-1.04442zm10.633753.58563c.51548-.32363.55421-.27234-.7108-.94149-.44728-.23659-1.54515-.82465-2.43971-1.3068-2.93616-1.58253-3.1246-1.67216-3.21707-1.53021-.0457.07-.0724.303-.0594.51767l.0236.39029 1.67165.90159c.91942.49587 2.13927 1.15001 2.71079 1.45363.57153.30362 1.11934.60668 1.21738.67344.24583.16743.30304.15617.80364-.15812zm-8.27411-2.41586c.0148-.30713-.0113-.55758-.0581-.55758-.1201 0-.160998.15555-.186708.71023-.01718.36968.0064.47493.09776.44462.0785-.0259.1295-.233.14708-.59727zm.35599-.13355c.0397-.4741-.1032-.58016-.19087-.14166-.0856.42781-.0681.64017.0494.60099.0583-.0194.1219-.22612.14145-.45933zm.31416-.17554c.0411-.52906.0337-.56301-.10373-.4781-.11667.0721-.13029.95249-.0147.95249.0449 0 .0982-.21347.11844-.47439zm.5454.14765c.12659-.0446.15812-.16284.15812-.59272 0-.55763-.17269-.68227-.18972-.13693-.007.24837-.0172.25942-.0678.0797-.10406-.36936-.23871-.21436-.26686.30709-.0211.39113-.00045.49473.0904.4529.0648-.0299.18889-.0794.27586-.11003zm.50675-.71679c-.007-.64623-.20225-.61865-.2404.0341-.0216.36913.001.46728.10954.46728.10651 0 .13553-.11118.13086-.50137zm7.84774 21.59834c-.13459-.27443-.24472-.5184-.24472-.54216 0-.10619.26767-.0267.48479.14411.27391.21545.29246.17997.10022-.19177-.10555-.20417-.11087-.26634-.0226-.26552.0634.00062.24902.24456.41249.54216.2412.43913.26943.54109.14978.54109-.0811 0-.25152-.0819-.37877-.18199-.28782-.2264-.36577-.16672-.17083.1308.17832.27216.18315.32226.031.32226-.0642 0-.22684-.22454-.36144-.49898zm-17.501549.30163c-.238112-.0885-.544015-.33234-.544015-.43368 0-.0335.125817-.25082.279596-.48297.314526-.47486.499564-.52302.903717-.23524.326031.23215.328379.36895.01398.81238-.294601.41547-.358892.44888-.653248.33951zm.356394-.51959c.13364-.24969.115497-.45773-.03991-.45773-.166105 0-.44506.41022-.365977.53818.09338.15102.304408.10918.405892-.0805zm18.186165-.0363c-.0979-.16582-.24715-.4072-.33181-.53642-.15218-.23225-.15066-.23663.13216-.38288.32598-.16858.48-.1076.21754.0861-.13634.10064-.15045.15254-.065.2392.0861.0873.13853.0862.24848-.005.0861-.0715.13937-.079.13937-.0195 0 .0528-.0407.12122-.0904.15193-.11006.068-.1142.2291-.01.39335.0604.0954.11978.0997.2697.0194.15271-.0817.19221-.0774.19221.0213 0 .0989-.3465.33395-.4923.33395-.0176 0-.11205-.13566-.20988-.30147zm-19.922404-.24684c-.186359-.0984-.338846-.2118-.338846-.25203 0-.16351.127471-.17907.383276-.0467.203576.10523.295241.11402.372573.0355.07684-.078.04023-.14985-.145924-.28631-.27761-.20354-.319721-.44731-.107674-.6233.117023-.0971.209404-.0836.546822.0804.443865.21564.474633.42362.03831.25892-.363459-.13719-.422744-.0399-.144985.2378.227803.2278.234633.40069.02647.66971-.116937.15113-.228517.13803-.630013-.074zm20.581464-.44357c-.24363-.24734-.4184-.47428-.38838-.5043.0722-.0723.4315.12281.4315.23432 0 .0479.0425.0872.0945.0872.059 0 .0721-.11868.0351-.31626-.0715-.38122.002-.39554.3497-.0678l.26326.2485-.0644-.40662c-.0884-.55875.0685-.36649.25536.31299.17372.63165.0724.87449-.20941.50159-.1938-.2565-.33655-.19971-.18934.0754.24521.45817-.0461.37502-.57797-.16497zm-21.630078-.22954c-.117044-.12338-.310182-.22433-.429211-.22433-.345146 0-.255679-.14733.331676-.54619.746737-.50711.840686-.45053.59473.35816-.106724.3509-.214376.6377-.239222.63734-.02487-.00036-.140939-.1016-.257973-.22498zm.216511-.41107c.03276-.053.04098-.11495.01825-.13766-.06297-.0631-.33824.0618-.33824.15334 0 .11311.247888.10096.31998-.0157zm23.058277.11879c-.20432-.22577-.35006-.65077-.28905-.84297.13865-.43687.66766-.23814.91375.34326.15227.35978.15284.34424-.0189.51602-.18658.18658-.42805.18008-.60577-.0163zm.42148-.18693c.0599-.0969-.27634-.64872-.39527-.64872-.13788 0-.11023.29475.049.52205.14637.20897.26795.25344.34629.12667zm.29312-.58589l-.31519-.55982.31635-.16368c.3782-.1957.57416-.0924.57416.30276 0 .16793.0832.31777.24848.44744.26376.20693.23067.21003-.34969.0327-.18557-.0567-.18688-.0514-.0419.16981.12952.19767.13172.23524.0163.27952-.0931.0358-.2285-.11791-.44849-.50865zm.34309-.32368c.059-.0955-.19996-.33103-.27809-.2529-.0752.0752.0336.33303.14071.33303.0483 0 .11015-.0361.13738-.0802zm-25.852152.56476c-.121964-.0497.475626-1.11715.625456-1.11715.05048 0 .228677.0846.396052.18809.649992.40172.159595 1.16363-.516181.80197-.136329-.073-.188207-.0628-.229627.0451-.05528.14395-.09488.15572-.2757.082zm1.014945-.40294c.03362-.0544-.0075-.16629-.0905-.24849-.14126-.13912-.160758-.13732-.281773.0259-.07151.0965-.130022.2083-.130022.2485 0 .1101.432051.0878.502339-.0259zm25.356427-.30782c-.26533-.44358-.30801-.67765-.12353-.67737.0344.00004.17863.20696.32064.45979.19862.35365.29765.44939.4292.41499.22333-.0584.22069.0861-.004.20626-.2732.14622-.3066.12456-.62254-.40367zm.6354-.38395l-.29745-.51292.2071-.1565c.14577-.11016.23385-.12785.29745-.0598.0608.0651.0535.11031-.0226.1382-.0621.0227-.11295.0998-.11295.17114 0 .0952.0661.11442.24849.0722.23655-.0549.23996-.051.0712.0789-.15408.1186-.16082.15635-.0514.28809.0692.0833.19785.13275.28592.10972.24864-.065.2543.14814.007.27626-.12135.063-.2465.11296-.2781.1111-.0316-.002-.19129-.2342-.3549-.51633zm-28.572754.17618l-.201068-.1628.331026-.51749c.182071-.28461.369692-.49357.41696-.46436.133341.0824.104803.19686-.149681.59996-.208709.33063-.219019.38248-.0904.45449.07983.0447.145241.11991.145241.16715 0 .13875-.235156.0987-.452115-.0769zm29.380444-.54363c-.22473-.61632-.23764-.73931-.0776-.73931.12372 0 .96796.81582.96796.93539 0 .0389-.0712.0486-.15812.0216-.17297-.0538-.40802.0563-.38497.18041.007.0429-.0233.0906-.0694.10598-.0461.0154-.17119-.21142-.27786-.504zm.41784-.0334c-.0196-.059-.0841-.12341-.14313-.1431-.0661-.022-.0862.0193-.0524.10731.0631.16424.2498.19842.1956.0358zm-30.712983.076l-.327675-.195.316234-.49677c.173918-.27322.33205-.51422.3514-.53555.05966-.0657.665423.25607.665423.35358 0 .11809-.153213.11908-.225902.001-.08485-.13723-.316255-.10793-.316255.04 0 .0717.08431.18946.187354.26164.205336.14382.110758.27967-.101281.14552-.331506-.20971-.588818.11446-.268785.33862.178219.12484.250449.30698.114974.28995-.03725-.004-.21523-.0963-.395455-.20351zm31.109403-.4821c-.15695-.27324-.28535-.5338-.28535-.57903 0-.13429.2076-.0932.49697.0985.38306.25368.44992.22422.22095-.0973-.11633-.16337-.16467-.31135-.11721-.35881.0475-.0475.21885.14009.41555.45477.38766.62018.31634.7624-.20824.41525-.39935-.26427-.4347-.22744-.18101.18862.13224.21686.14656.29698.0591.33053-.0692.0266-.22989-.15498-.40077-.4525zm1.22076-.15732c-.0269-.0701.01-.14996.0809-.17736.21824-.0838.1523-.32658-.0887-.32658-.3544 0-.50437-.0959-.50437-.32274 0-.22345.30965-.46668.40261-.31626.0287.0464.0108.10989-.0397.14111-.18768.11599-.0823.22681.21558.22681.25842 0 .32207.0421.39934.26367.0741.21262.0627.28868-.0589.39288-.2593.2221-.35616.25031-.40675.11847zM9.1628 9.62829c-.136927-.25202-.235134-.33311-.384025-.31708-.303651.0327-.239061-.0899.162125-.30769.262968-.14275.360695-.16315.360695-.0754 0 .0663-.04536.1356-.100641.15405-.06436.0215-.03191.14631.09007.34639.194622.31925.245038.53891.123597.53847-.03725-.00009-.150555-.15261-.25174-.33885zm32.307155.18096c.00018-.0373.0819-.20152.18155-.36499.11783-.19326.16169-.37498.12541-.51957-.0663-.264-.047-.26763.36902-.0693.31688.15111.39068.36819.10813.31806-.0879-.0156-.23672.11856-.37578.33885-.20725.3283-.40922.47516-.40833.29691zM9.7515 9.19462l-.224003-.41133.225892-.174c.124248-.0957.256404-.17491.293672-.17601.122584-.003.07065.15825-.06777.21138-.157546.0604-.180204.2905-.03735.37881.054.0334.143492.0155.198796-.0398.05528-.0553.143256-.0997.195433-.0985.05219.001-.0021.0768-.12142.16832-.25331.19475-.187643.42511.08036.28171.280023-.14987.331859-.0984.09082.0901-.322263.25207-.383695.22974-.63441-.23061zm31.166385.34355c-.005-.0373-.002-.17958.006-.31625.0199-.30116-.10689-.32062-.2941-.0452-.11839.17417-.14658.18238-.19679.0572-.0683-.17028.3912-.98341.55573-.98341.0596 0 .21929.0952.35463.21165.27473.23632.24961.49567-.0557.57552-.15583.0408-.23202.24043-.19096.50045.006.0373-.03.0678-.0796.0678-.0497 0-.0947-.0305-.0999-.0678zm.23547-.82077c0-.16343-.17686-.13359-.21194.0357-.0195.0942.0144.13552.0904.11019.0669-.0223.12158-.0879.12158-.14595zm-30.376206.26514c.05101-.25528.02572-.30844-.211217-.44326-.289563-.16476-.373-.34801-.112252-.24652.278859.10852.327386.0969.364846-.0874.07076-.34825.216703-.37634.152978-.0295-.05614.30592-.03895.34336.21887.47671.354537.18334.358262.26201.0085.18525-.231399-.0508-.271079-.0328-.271079.12303 0 .10043-.04696.21162-.104483.24713-.07481.0462-.08805-.0177-.04642-.2255zm28.892446-.13602c-.13266-.15984-.046-.52023.18462-.76777.29706-.31885.71181-.22021.71181.16928 0 .52439-.6164.93591-.89643.59849zm.54018-.3346c.13847-.25873-.0197-.41461-.21883-.21555-.0813.0813-.14781.2059-.14781.27689 0 .19617.25133.15412.36664-.0614zm-28.638461-.21103c-.203287-.80732-.0698-.88464.542393-.31429.217738.20283.318816.34412.224792.3142-.196457-.0625-.629489.18583-.549564.31516.02935.0475.01516.0863-.03159.0863s-.130459-.18065-.186052-.40145zm.441069-.1532c0-.0955-.256735-.21268-.322285-.14713-.02391.0239-.01878.10765.01142.18617.05582.1453.310908.11326.310908-.0391zm26.710092.2075c-.0317-.0513.0514-.31565.18476-.58746l.24238-.49422.29761.14192c.37571.17917.43012.32106.22175.57838-.13901.17168-.19896.18861-.37949.10722-.18414-.083-.23522-.0653-.36189.12535-.085.12783-.17195.18248-.20512.12881zm.79808-.65704c-.077-.12464-.28514-.0943-.34036.0496-.0273.0713-.001.1472.058.16859.13771.0496.34755-.11255.28227-.21816zm-27.00324.0445c-.287482-.51437-.287525-.52291-.0032-.65224.421111-.19186.583086-.0926.583086.35717 0 .0969.06094.19957.13554.22817.0746.0286.135539.0926.135539.14237 0 .0501-.07065.062-.158133.0269-.08698-.0349-.215486-.0868-.285604-.11528-.09413-.0382-.114077-.00053-.0762.14412.09552.36513-.09541.28934-.330481-.13117zm.347152-.4059c-.07695-.12457-.309926-.0942-.309926.0403 0 .0663.02679.14722.05944.17992.08175.0817.311965-.12079.25047-.22029zm25.282828.69254c-.3139-.17344-.31728-.18911-.12114-.56059.32454-.61469.3144-.60754.63032-.44417.15569.0805.28308.186.28308.23442 0 .1115-.0594.11093-.27154-.002-.11711-.0627-.18849-.0596-.23154.01-.0568.0919.0569.21272.27058.28768.0461.0161.0526.0798.0145.1414-.0528.0855-.0991.0872-.19556.007-.0695-.0576-.19803-.0769-.28562-.0429-.14553.0567-.14172.0763.0441.2279.33188.2708.24992.35539-.13714.14153zm-24.666977-.79525c-.111868-.21121-.203288-.43485-.203149-.49698.000266-.1351.147524-.14981.226148-.0226.09413.15224.211793.10074.242199-.10587.0159-.10793.08004-.21309.142551-.23368.08698-.0286.09221.0189.02263.20212-.12126.31893-.135977.28926.24777.49913l.338846.1853-.392187-.0569c-.36967-.0537-.386724-.0466-.296852.12123.08794.16428.05656.29228-.07161.29228-.02903 0-.144398-.17281-.256276-.38403zm23.679727.28522c-.0624-.0624-.0724-.20375-.0268-.38403.0396-.15686.0974-.3987.12857-.5374.0905-.40346.26097-.19099.19213.23953l-.0593.37126.25789-.24707c.24467-.23442.47389-.3228.47389-.18273 0 .0779-.7384.83925-.81398.83925-.0295 0-.098-.0445-.15228-.0988zm-.78697-.40292c-.0935-.0683-.21167-.13818-.26267-.15518-.10096-.0336.37195-.96956.48991-.96956.17637 0 .53204.22112.53204.33077 0 .14482-.0478.15017-.27153.0304-.22522-.12052-.35455.0768-.14889.22723.21747.15902.18283.23666-.0765.17156-.26343-.0661-.31106.10661-.0766.27799.0821.06.11212.13205.0668.16008-.0454.0281-.15892-.005-.2524-.0733zm-21.762318-.14839c-.128197-.33407-.172711-.95712-.07279-1.01886.0968-.0599.880814.54802.899587.69751.0043.0373-.108517.0678-.251548.0678-.166927 0-.306864.0705-.390759.19684-.108549.16349-.139819.17311-.184473.0568zm.383491-.37806c0-.0188-.06094-.0847-.135539-.1466-.111004-.0921-.13554-.0859-.13554.0341 0 .0806.06094.14661.13554.14661s.135539-.0154.135539-.0341zm20.629657.15078c-.0593-.0209-.0855-.0964-.0581-.16768.0273-.0713.0237-.19771-.009-.28085-.0508-.13241-.0757-.12588-.20084.0528-.0887.12658-.17491.17187-.22738.11941-.0525-.0525.0227-.2571.19828-.53946.30138-.48482.40392-.51226.7989-.21373.18272.13809.19878.19026.10978.35658-.0573.10715-.15796.19483-.22356.19483-.0656 0-.15567.11611-.20013.25803-.0445.14193-.12938.24094-.18872.22007zm.33378-.78469c0-.0693-.061-.14928-.13554-.17789-.0746-.0286-.13554-.0363-.13554-.0171s-.0247.0992-.0549.17788c-.0393.10246-.00084.14293.13554.14293.1047 0 .19039-.0567.19039-.12587zm-20.56382.16726c-.296169-.5054-.208346-.67619.230919-.44903.334932.1732.418475.13719.280385-.12084-.119285-.22288-.122551-.28476-.01505-.28476.04547 0 .185999.18493.312328.41096.266009.47595.16602.60047-.291965.36363-.375711-.19429-.399425-.18211-.241185.12388.229606.44402-.01206.40555-.275434-.0439zm19.23173.0739c-.0822-.0289-.0871-.0864-.0183-.21479.16836-.3146-.17579-.51528-.34995-.20406-.0457.0815-.12763.12062-.18223.0869-.10182-.063.38399-.95797.51997-.95797.14397 0 .1728.11725.0698.28357-.0867.13987-.0812.19072.028.26083.099.0636.1791.0347.29728-.10758.0971-.11685.19452-.16179.24376-.11243.10983.11009-.46143 1.01718-.60809.96556zm-18.137425-.6238c-.03447-.22999-.08207-.46872-.105763-.53051-.09744-.25395.247194-.196.636032.10694.380065.29611.48522.56104.175507.44219-.07246-.0279-.232316.0505-.356404.17456-.123747.12375-.238859.22498-.255807.22498-.01697 0-.05902-.18817-.09349-.41816zm.367611-.19873c-.162466-.16247-.264291-.10662-.184526.10128.03116.0812.113031.12041.189851.0909.118827-.0456.118197-.0687-.0053-.19222zm16.456984.0665c-.088-.0512-.13523-.13331-.10491-.18236.0349-.0566.10267-.0497.1848.0185.16137.13393.28829.028.14188-.11842-.28787-.28789-.002-.6639.43153-.56857.33137.0728.36456.22671.0489.22671-.23862 0-.29711.16372-.12129.33953.0792.0792.0765.13841-.0111.24397-.13284.16007-.33946.17483-.56982.0408z"/>
</svg>
