<svg xmlns="http://www.w3.org/2000/svg" width="192" height="106.591" viewBox="0 0 50.8 28.202">
    <path class="TP_svg__TP_svg__TP_svg__TP_svg__color-main TP_svg__TP_svg__TP_svg__TP_svg__color-black" d="M20.867 26.047c-2.34-1.345-3.737-2.2-3.717-2.273.018-.064.051-.36.074-.659.065-.87-.07-1.04-1.507-1.881-2.757-1.617-5.502-3.194-6.042-3.471-.844-.433-1.436-.4-2.197.124l-.333.23-1.655-.971a431.86 431.86 0 00-3.57-2.064C.866 14.48.003 13.968 0 13.943c-.004-.041 1.654-.987 3.067-1.75l2.649-1.435L7.778 9.64l.345.345c.314.314.387.344.83.343.552-.001.524.011 3.42-1.574 3.437-1.881 4.92-2.746 5.182-3.018.287-.3.453-.884.372-1.313l-.054-.287 1.882-1.033a1148.79 1148.79 0 012.152-1.179c.149-.08.998-.547 1.888-1.035L25.412 0l.913.462c1.233.625 4.805 2.505 5.907 3.11l.657.36-.058.562c-.097.951.174 1.243 1.997 2.147.447.222 1.79.933 2.982 1.582 3.003 1.632 3.422 1.835 3.797 1.835.37 0 .795-.192 1.141-.516l.24-.224.98.52c.54.285 1.834.974 2.878 1.531 1.044.557 2.345 1.247 2.892 1.533.546.287 1.024.548 1.061.582.059.053-3.614 2.19-6.83 3.973l-.978.543-.368-.266c-.46-.333-.985-.48-1.463-.407-.39.058-1.236.5-5.052 2.641-.738.414-1.353.752-1.367.752-.128 0-1.857 1.053-2.01 1.224-.259.29-.341.755-.231 1.311.062.316.059.47-.012.528-.055.044-.974.567-2.042 1.161-2.581 1.436-5.02 2.797-5.468 3.052l-.362.206zm4.14 1.523c.152-.154.148-1.457-.005-1.406-.117.04-.23.588-.242 1.175-.007.352.062.416.247.23zm-.33-.583l.03-.6-.315-.197a66.625 66.625 0 00-1.446-.833l-2.594-1.462c-.805-.454-1.5-.825-1.546-.825-.046 0-.293.087-.55.194-.309.128-.46.241-.442.33.015.076 1.084.744 2.376 1.486a739.35 739.35 0 013.34 1.929c.545.318 1.02.579 1.054.579.035 0 .077-.27.094-.6zm.78-.342c.02-.542 0-.693-.09-.663-.08.026-.126.266-.144.74-.02.544 0 .694.09.664.08-.026.126-.266.144-.74zm.397-.029c.016-.513.016-.514.05-.09.024.298.074.43.164.43.103 0 .13-.153.13-.72 0-.604-.021-.712-.135-.669-.074.029-.135.089-.135.133 0 .044-.05.07-.11.058-.112-.023-.288 1.155-.195 1.305.123.2.216.02.23-.447zm.706-.622c0-.504-.029-.67-.113-.643-.117.039-.21 1.066-.118 1.307.115.3.231-.034.231-.664zm.464.16c.011-.213.017-.217.052-.035.086.447.207.165.207-.481 0-.508-.03-.676-.113-.649-.062.021-.138.197-.168.392l-.055.354-.013-.35c-.01-.3-.032-.333-.148-.237-.143.118-.172.536-.077 1.108.045.274.08.32.18.237.067-.056.129-.209.135-.34zm.604-.358c.016-.168.08-.287.151-.287.068 0 .14-.07.161-.158.03-.125.06-.106.14.09.115.28.287.333.289.091 0-.102.025-.121.068-.053.096.151 3.47-1.768 3.434-1.955-.015-.076-.241-.253-.504-.394l-.478-.257-1.757.977-1.758.978v.664c0 .492.03.655.113.628.062-.02.125-.166.14-.324zm-1.854-.453c.507-.29 1.784-1.006 2.838-1.589s1.936-1.128 1.96-1.21c.024-.084.09-.335.147-.559.155-.611.744-1.465 1.182-1.711.28-.157.39-.182.441-.098.045.072.09.08.126.02.032-.051.01-.108-.046-.127-.057-.019.441-.334 1.106-.7a166.6 166.6 0 002.113-1.18c1.473-.839 2.815-1.535 2.962-1.535.075 0 .156-.05.18-.113.024-.063.425-.315.89-.561.806-.426.888-.45 1.661-.48.528-.02.987.016 1.31.102l.497.134 1.22-.687c2.121-1.193 2.44-1.383 2.437-1.448-.002-.035-.84-.505-1.862-1.045l-1.859-.98-.516.144c-.644.181-1.376.185-1.956.012-.245-.073-1.198-.544-2.117-1.047a448.87 448.87 0 00-2.53-1.373C33.16 7.822 32.08 7.2 31.776 6.91c-.389-.373-.788-1.112-.788-1.46 0-.13-.05-.3-.113-.379-.13-.163-5.314-2.965-5.485-2.965-.284 0-5.299 2.75-5.494 3.012-.044.058-.194.382-.334.72-.47 1.132-.537 1.181-5.02 3.657-4.6 2.54-4.481 2.482-5.148 2.53a5.637 5.637 0 01-1.208-.067l-.588-.11-1.43.77c-.786.423-1.648.89-1.916 1.038l-.486.268.215.137c.119.075.897.526 1.73 1.002 1.263.721 1.547.85 1.716.78.447-.184 1.13-.257 1.753-.187.621.07.762.137 3.66 1.768a409.75 409.75 0 014.063 2.312c1.44.843 1.943 1.433 2.177 2.549.095.451.126.49.605.753.278.153 1.52.853 2.759 1.555 1.24.703 2.289 1.278 2.331 1.278.043 0 .493-.238 1-.528zm-6.171-3.9V20.27h.5c.419 0 .54.038.734.232.192.192.224.29.18.554-.028.176-.122.398-.208.493-.16.178-.159.191.126.957.028.075-.052.113-.241.113-.19 0-.3-.052-.335-.158-.127-.394-.161-.418-.193-.136-.029.258-.066.294-.298.294h-.265zm.813-.412a.134.134 0 00-.136-.13c-.136 0-.185.19-.077.299.084.084.213-.018.213-.169zm.87.796c.12-.435.263-.963.318-1.174.09-.353.123-.384.39-.384h.292l.285 1.107c.157.608.285 1.137.285 1.174 0 .037-.143.068-.317.068-.22 0-.316-.04-.316-.136 0-.09-.09-.135-.271-.135-.18 0-.271.045-.271.135 0 .094-.095.136-.308.136h-.308zm.756-.253c0-.078-.04-.116-.09-.086-.05.031-.09.095-.09.141 0 .047.04.085.09.085.05 0 .09-.063.09-.14zm.994-.13v-1.175h.542v2.349h-.542zm.723.003v-1.179h.633v1.717h.322c.308 0 .32.012.293.294l-.028.294-.61.026-.61.027zm1.504 1.013a27.37 27.37 0 01-.196-.836 16.684 16.684 0 00-.232-.94c-.123-.395-.106-.43.204-.399.246.025.3.078.384.374.127.45.26.441.352-.02.06-.308.109-.37.286-.37s.222.059.273.36c.085.504.185.518.317.044.1-.359.143-.405.373-.405.142 0 .26.031.26.068.001.038-.131.566-.293 1.175-.265.994-.316 1.107-.496 1.107-.16 0-.225-.083-.323-.423-.132-.45-.16-.444-.33.084-.085.265-.156.339-.322.339-.125 0-.231-.065-.257-.158zm1.659.117c0-.06.258-1.043.357-1.36.046-.149.129-.444.183-.655.092-.357.12-.384.406-.384.213 0 .321.048.355.158.026.087.152.565.279 1.062.127.497.253.975.28 1.062.041.13-.009.158-.281.158-.255 0-.342-.042-.378-.18-.032-.12-.124-.182-.271-.182-.148 0-.24.062-.272.181-.035.136-.123.18-.353.18-.168 0-.305-.017-.305-.04zm1.078-.93c-.013-.139-.162-.426-.168-.324-.003.058-.031.17-.061.248-.036.094-.005.143.09.143.08 0 .142-.03.139-.068zm1 .426c0-.426-.06-.662-.271-1.082-.344-.68-.346-.813-.012-.813.224 0 .28.055.42.422l.16.422.215-.422c.193-.38.245-.422.529-.422.173 0 .314.021.314.047s-.183.411-.406.857c-.28.558-.407.922-.407 1.173 0 .343-.015.363-.27.363H29zm-5.512-2.315c-.174-.02-.66-.1-1.082-.177-2.543-.462-4.491-2.02-5.126-4.102-.177-.582-.246-1.94-.13-2.56.237-1.258 1.054-2.597 2.09-3.425a8.894 8.894 0 014.492-1.923c1.226-.163 1.826-.164 2.965-.001 2.813.4 4.76 1.636 5.7 3.618.448.946.577 1.545.537 2.485-.047 1.125-.423 2.156-1.136 3.121-.607.823-1.845 1.779-2.683 2.074a6.782 6.782 0 00-.575.226c-.079.04-.567.206-1.084.366-.86.268-1.057.295-2.296.315-.746.012-1.498.005-1.672-.016zm-2.226-3.355c.024-.039.069-.862.099-1.83.03-.968.077-1.975.104-2.24l.05-.48.467.014c1.03.03.964.067.964-.546v-.544l-2.01.025-2.011.024-.03.353c-.015.194-.003.452.028.573.054.216.068.22.694.157l.64-.065-.024 2.247a103.227 103.227 0 00-.011 2.315c.017.09.984.087 1.04-.003zm7.105-.778c0-.842.02-.868.626-.868.907 0 1.755-.518 2.077-1.267.172-.4.185-.52.106-.948-.05-.27-.152-.61-.227-.755-.198-.383-.728-.852-1.114-.986-.376-.13-2.266-.141-2.47-.015-.103.064-.133.598-.158 2.838l-.032 2.759h1.192zm.204-2.025c-.195-.03-.204-.068-.204-.886 0-.612.033-.867.116-.9.064-.023.337-.012.607.027.42.06.52.115.698.377.272.404.26.668-.045 1.01-.254.283-.74.438-1.172.372zm-6.307 1.955c.127-.057.23-.173.23-.256 0-.167.383-.381.564-.315.063.023.174.003.247-.043.116-.074.11-.152-.04-.609a9.284 9.284 0 00-.24-.66 2.562 2.562 0 01-.115-.293c-.027-.087-.08-.158-.12-.157-.202.004-.307.22-.509 1.04-.391 1.594-.39 1.463-.017 1.293zm.412-1.182c.001-.165.018-.178.09-.068.112.175.112.27 0 .27-.05 0-.09-.09-.09-.203zm1.27.2c.14-.076.175-.194.177-.61l.002-.517.252.304c.164.198.313.292.427.27.158-.03.177-.127.2-1.05.014-.558.001-1.015-.028-1.015a.853.853 0 00-.23.094c-.142.076-.174.192-.174.633v.539l-.328-.363c-.483-.535-.576-.402-.576.825 0 .54.023.983.052.983s.13-.042.225-.093zm1.91-1.112c.438-.27.663-.565.79-1.039.112-.413.066-.688-.156-.941-.181-.207-.448-.2-.81.022l-.294.179v.995c0 .547.03.994.067.992.038 0 .219-.095.403-.208zm-.019-1.046c0-.478.023-.55.17-.55.227 0 .297.304.164.704-.181.542-.334.471-.334-.154zm-17.8 1.529v-.904H7.81c-.181 0-.226-.045-.226-.226 0-.222.012-.226.723-.226s.723.004.723.226c0 .19-.043.226-.272.226h-.27v1.807h-.452zm2.62.835c0-.037.138-.296.307-.575l.306-.508-.261-.478c-.144-.263-.262-.512-.262-.554 0-.042.121-.076.27-.076.206 0 .3.062.408.271.077.15.171.271.209.271.037 0 .14-.122.228-.27.12-.204.227-.272.427-.272.245 0 .385.206.194.286-.039.017-.177.214-.307.438l-.237.408.174.358c.096.196.214.397.263.446.173.173.09.323-.18.323-.208 0-.301-.062-.41-.27-.174-.339-.232-.339-.425 0-.118.207-.217.27-.429.27-.151 0-.275-.03-.275-.068zm1.898.039c0-.016.178-.514.396-1.107l.395-1.078h.347c.34 0 .349.01.464.452.1.389.179.672.443 1.604.037.129-.013.158-.267.158-.236 0-.323-.044-.359-.18-.038-.145-.123-.181-.425-.181-.303 0-.388.036-.426.18-.034.128-.123.181-.308.181-.143 0-.26-.013-.26-.03zm1.174-1.146c0-.149-.04-.27-.09-.27-.05 0-.091.03-.092.067 0 .037-.025.16-.055.271-.04.15-.016.204.091.204.102 0 .146-.082.146-.272zm1.103 1.067c-.06-.06-.109-.223-.109-.362 0-.22.035-.253.264-.253.145 0 .28.048.299.107.05.148.34.02.34-.15 0-.1-.096-.138-.357-.138-.412 0-.546-.162-.546-.661 0-.515.247-.728.85-.734.534-.005.682.089.685.436.001.15-.047.164-.411.114-.39-.053-.412-.045-.385.146.023.158.098.209.345.232.387.037.45.128.45.657.003.558-.177.714-.823.714-.271 0-.543-.049-.602-.108zm-5.53-1.067v-1.084h.632c.615 0 .633.006.633.226 0 .203-.037.226-.362.226s-.361.022-.361.226c0 .165.048.226.18.226.121 0 .181.06.181.18s-.06.181-.18.181c-.141 0-.181.06-.181.271 0 .25.025.271.316.271.256 0 .316.035.316.181 0 .162-.06.18-.587.18h-.587zm24.255.876c-.025-.065-.034-.584-.02-1.152l.026-1.034h.606c.333 0 .651.046.707.102.056.056.124.269.152.473.065.486-.127.783-.556.864-.311.058-.321.073-.321.463 0 .388-.01.402-.274.402-.151 0-.295-.053-.32-.118zm.84-1.338c.126-.126.049-.35-.12-.35-.075 0-.126.092-.126.225 0 .243.084.286.245.125zm.386 1.407c0-.027.166-.558.368-1.18l.368-1.13.282.027c.275.028.29.054.62 1.067.186.572.34 1.09.344 1.152.01.187-.43.131-.536-.067-.068-.127-.19-.181-.407-.181-.217 0-.339.054-.406.18-.064.119-.19.181-.365.181-.147 0-.268-.022-.268-.049zm1.173-.967c-.002-.147-.176-.42-.178-.279a.88.88 0 01-.056.249c-.036.094-.005.143.09.143.08 0 .145-.051.144-.113zm1.145.851c-.118-.13-.15-.356-.15-1.081 0-1.056.035-1.103.797-1.103.494 0 .618.093.705.528.055.271.044.285-.225.285-.155 0-.282-.043-.282-.096s-.092-.084-.204-.068c-.229.032-.303.34-.206.856.041.22.104.302.233.302.097 0 .177-.04.177-.09 0-.05.122-.09.27-.09.225 0 .272.036.272.211 0 .335-.271.511-.784.511-.324 0-.496-.047-.603-.165zm1.658-1.01v-1.174h.542v2.35h-.542zm.813 0v-1.174h1.265v.271c0 .256-.02.271-.361.271-.326 0-.362.023-.362.226 0 .19.042.226.271.226.23 0 .271.035.271.226 0 .19-.042.226-.27.226-.266 0-.272.01-.272.452 0 .441-.006.451-.27.451h-.272zm1.446 0v-1.174h.542v2.35h-.542zm1.012 1.067c-.149-.149-.149-1.984 0-2.133.06-.06.322-.108.582-.108.387 0 .5.037.615.2.077.111.14.294.14.407 0 .167-.05.206-.26.206-.19 0-.275-.052-.31-.19-.028-.105-.104-.172-.17-.15-.082.027-.118.227-.118.663 0 .522.025.629.158.654.096.019.158-.025.158-.112 0-.098.085-.142.271-.142.247 0 .271.027.271.298 0 .416-.14.515-.723.515-.278 0-.554-.048-.614-.108zM23.036 5.766v-.858h-.232c-.189 0-.227-.038-.203-.204.026-.188.08-.205.729-.23.697-.026.7-.025.7.204 0 .185-.044.23-.226.23-.225 0-.226.003-.226.858v.858h-.542zm1.195-.203l.025-1.062.249-.029c.242-.028.248-.017.248.43 0 .448.005.457.271.457.265 0 .271-.01.271-.451 0-.442.006-.452.271-.452h.271v2.168h-.27c-.262 0-.272-.015-.272-.406 0-.392-.01-.407-.27-.407-.262 0-.272.015-.272.407 0 .392-.01.406-.274.406h-.274zm1.988 0l.025-1.062.565-.027c.517-.025.564-.011.564.158 0 .151-.057.185-.316.185-.274 0-.316.029-.316.22 0 .159.056.227.203.248.13.019.214.102.232.232.024.166-.014.204-.203.204-.172 0-.232.047-.232.18 0 .147.06.181.316.181.291 0 .316.022.316.271v.271h-1.18zM18.34 23.068c.235-.12.358-.244.358-.361 0-.219.017-.219-.49-.001-.298.127-.414.229-.414.361 0 .23.097.23.546.001zm13.55-.035c0-.163-.619-.53-.786-.466-.178.069-.074.202.318.41.403.212.469.22.469.056zm-13.646-.47c.245-.098.364-.201.364-.316 0-.209-.075-.212-.54-.026-.246.098-.364.201-.364.316 0 .209.074.212.54.026zm13.736.032c0-.133-.673-.538-.756-.455-.112.112-.05.213.237.389.338.205.52.229.52.066zm.091-.375c0-.07-.144-.212-.321-.316-.39-.23-.402-.23-.402-.03 0 .16.397.466.61.47.062.001.113-.054.113-.124zm-13.94-.111c.4-.153.484-.273.253-.361-.145-.056-.77.29-.77.425 0 .115.07.106.516-.064zm14.076-.3c0-.064-.13-.216-.287-.338-.282-.217-.29-.218-.383-.042-.082.152-.052.207.197.366.31.2.473.204.473.014zm-14.068-.152c.17-.11.189-.16.101-.266-.093-.113-.153-.097-.419.105-.17.13-.33.217-.354.192-.024-.024.09-.137.254-.25.165-.114.315-.22.335-.234.02-.015-.016-.09-.078-.164-.1-.12-.158-.103-.464.14-.346.274-.348.28-.193.496.172.24.427.234.818-.019zm14.342-.13c.033-.052-.015-.184-.107-.293l-.167-.197.205.174c.146.123.234.146.302.077.123-.123-.132-.537-.379-.615-.2-.063-.38.022-.305.144.028.046-.007.084-.08.084-.255 0-.233.261.042.493.3.252.4.28.49.134zm-14.973-.441c.195-.167.202-.366.013-.366-.045 0-.236.13-.424.29l-.342.289.302-.325c.415-.446.201-.573-.233-.139l-.319.319.26.136c.274.143.366.118.743-.204zm-.602-.748c-.091-.091-.173-.043-.417.247-.396.472-.22.617.218.18.252-.252.291-.335.2-.427zm16.194.69c.117-.045.099-.105-.106-.361-.252-.316-.415-.382-.52-.21-.047.075.363.625.465.625.012 0 .084-.024.161-.054zm.296-.522c-.216-.28-.512-.425-.512-.251 0 .183.461.637.595.586.11-.043.096-.102-.083-.335zm-17.005.02c.176-.209.212-.31.137-.383-.074-.074-.172-.022-.366.195-.146.162-.265.335-.265.384 0 .183.263.079.494-.195zm17.94-.334c-.226-.391-.41-.55-.54-.468-.114.071-.103.126.075.366.115.156.19.303.166.326-.024.024-.132-.08-.24-.233-.109-.152-.253-.276-.321-.276-.237 0-.24.19-.004.498l.236.31.358-.187c.289-.15.34-.215.27-.336zm-18.31.147c.167-.214.202-.32.13-.406-.144-.175-.204-.147-.461.216-.377.53-.072.705.33.19zm-.244-.565c-.069-.207-.3-.12-.499.19-.17.264-.188.344-.09.407.084.055.197-.01.37-.212.138-.16.236-.334.22-.385zm19.005.355c0-.08-.387-.673-.438-.672a.553.553 0 00-.188.083c-.107.067-.087.137.115.401.153.202.293.301.377.27.074-.03.134-.066.134-.082zm-19.606-.225c.183-.256.192-.539.017-.539-.108 0-.48.684-.409.755.108.108.196.06.392-.216zM34.97 19.6c-.181-.287-.457-.427-.457-.23 0 .06.085.247.19.416.153.248.215.287.317.202.109-.09.101-.148-.05-.388zm-20.17.084c.208-.305.202-.5-.015-.5-.145 0-.46.589-.382.714.097.157.172.117.397-.214zm20.663.04c.09-.146-.306-.72-.458-.662-.17.065-.165.109.05.46.183.302.308.363.408.202zm-21.011-.313c.192-.311.182-.5-.027-.497-.104.002-.424.549-.424.725 0 .2.27.063.451-.228zm21.367.14c.072-.116-.23-.73-.359-.73-.204 0-.214.119-.038.464.178.347.297.428.397.266zm-21.733-.357c.166-.325.165-.463-.002-.463-.086 0-.444.574-.444.711 0 .234.28.078.446-.248zm22.108.133c.067-.176-.21-.686-.373-.686-.172 0-.168.102.019.494.162.34.274.4.354.192zm-22.472-.286c.191-.324.184-.49-.022-.49-.145 0-.459.59-.381.715.103.167.205.11.403-.225zm22.865.03c-.002-.063-.073-.244-.158-.404-.116-.216-.188-.27-.287-.208-.114.07-.111.124.022.403.146.306.431.447.423.208zm-23.266-.245c.191-.368.177-.431-.133-.591-.267-.139-.273-.137-.451.155-.215.352-.23.522-.048.522.073 0 .214-.152.312-.339.099-.186.18-.298.18-.248 0 .05-.057.192-.128.316-.168.293-.169.452-.003.452.074 0 .196-.12.271-.267zm23.662.109c.071-.117-.225-.746-.351-.746-.208 0-.23.157-.07.491.143.301.326.412.421.255zm.69-.359c.148-.126.15-.163.023-.487-.14-.354-.346-.46-.437-.224-.026.07.018.257.1.415.082.158.128.309.103.334-.026.026-.108-.1-.183-.28-.075-.179-.2-.325-.277-.325-.175 0-.175.074 0 .49.113.273.172.322.325.274a1.18 1.18 0 00.347-.197zm-25.033-.195c.168-.328.166-.463-.007-.463-.103 0-.444.688-.375.757.117.117.209.046.382-.294zm-.357-.145c.194-.312.182-.498-.03-.498-.152 0-.447.521-.386.682.08.21.208.153.416-.184zm25.884.053c.081-.131-.211-.732-.357-.732-.173 0-.171.21.003.547.14.269.262.333.353.185zm-26.25-.337c.107-.18.182-.335.168-.345a21.35 21.35 0 00-.37-.214l-.343-.197-.17.38c-.094.209-.15.412-.126.451.1.161.28.053.428-.255.085-.18.18-.304.21-.274.029.03-.014.155-.095.279-.081.124-.148.288-.148.364 0 .25.25.145.447-.189zm26.625.113c.027-.07-.013-.272-.088-.451-.097-.232-.176-.31-.276-.272-.172.066-.172.042.005.484.15.374.276.458.36.239zm.399-.263c0-.148-.21-.697-.267-.695-.027 0-.1.033-.162.072-.162.103.128.835.304.768.068-.026.125-.091.125-.145zm-27.831-.29c.192-.582-.161-.707-.386-.136-.13.332-.13.368.008.444.198.111.256.064.378-.308zm28.213.175c.07-.07-.21-.763-.309-.763-.158 0-.174.261-.033.534.14.27.236.335.342.229zm-28.634-.419c.117-.296.125-.394.036-.45-.189-.12-.222-.088-.322.304-.16.632.053.74.286.146zm29.018.2c.066-.105-.114-.815-.205-.813a.546.546 0 00-.194.083c-.111.07-.112.136-.01.45.117.352.29.471.408.28zm-32.483-.124c0-.068-.026-.312-.057-.543-.057-.417-.062-.422-.847-.87-.434-.25-.875-.452-.981-.452-.106 0-.183-.051-.17-.113.016-.082-.198-.12-.784-.14-.884-.028-1.18.023-.953.166.073.046.295.09.494.096.199.006.29.03.203.053-.086.023-.158.07-.158.106 0 .08 2.988 1.807 3.14 1.814.062.003.113-.05.113-.117zm3.176-.552c.042-.23-.251-.3-.316-.076-.03.103-.04.08-.03-.06.01-.143-.036-.235-.13-.253-.207-.042-.385.651-.205.8.098.082.143.058.214-.11.075-.175.087-.181.071-.033-.01.1.018.24.064.313.066.105.105.077.192-.136.06-.147.123-.347.14-.445zm29.668.189c-.104-.52-.14-.59-.274-.54-.155.06-.16.147-.037.592.068.243.131.32.23.283.1-.039.122-.128.081-.335zm5.085-.755c.908-.519 1.627-.98 1.599-1.026-.028-.046.05-.083.175-.083.124 0 .25-.038.279-.086.031-.05-.201-.1-.56-.118-.605-.03-.603-.032.156-.05.75-.02 1.2-.134.9-.23a38.647 38.647 0 01-.268-.089c-.074-.025.099-.048.384-.052.286-.004.52-.048.52-.097 0-.13-2.05-.12-2.13.01-.034.055-.006.136.063.179.082.052-.007.08-.265.08-.236.001-.368.037-.334.092.031.05-.01.09-.089.09-.192 0-2.32 1.155-2.463 1.337-.116.147-.16 1.027-.056 1.13.069.07.039.085 2.09-1.087zm-37.53.855l-.022-.48c-.012-.254-.049-.316-.173-.292a.19.19 0 00-.151.188l.023.48c.011.254.048.316.173.292a.19.19 0 00.15-.188zm32.852-.324c-.002-.413-.102-.58-.304-.502-.152.059-.152.234 0 .778.08.28.306.074.304-.276zm-32.391.256c.03-.05.094-.068.14-.04.047.03.135.02.198-.018.139-.087.354-.097.474-.022.175.11.577.172.624.096.026-.042.075-.25.109-.461.055-.345.044-.381-.11-.352-.113.022-.192.14-.232.348l-.06.315.015-.36c.011-.278-.021-.367-.143-.39-.112-.022-.16.03-.167.179-.008.208-.01.207-.076-.016-.039-.133-.119-.211-.194-.19-.07.02-.219.03-.33.023-.162-.01-.207.039-.216.236-.011.213-.018.219-.052.044-.024-.127-.104-.203-.213-.203-.139 0-.175.064-.175.309 0 .17.025.373.055.451.062.161.267.19.353.051zm34.815-.381c-.022-.366-.064-.48-.186-.504-.133-.025-.158.04-.158.413 0 .468.042.564.246.564.094 0 .118-.117.098-.473zm-1.882-.092c-.002-.46-.095-.636-.3-.558-.273.106-.157.942.132.942.14 0 .17-.067.168-.384zm1.391.102c.031-.155.057-.354.057-.442 0-.2-.276-.317-.376-.16-.089.14-.1.74-.016.824.138.138.282.043.335-.222zm-1.028-.26c0-.399-.022-.452-.19-.452-.137 0-.175.04-.136.143.03.079.055.282.055.452 0 .214.042.309.136.309.102 0 .135-.11.135-.452zm.525-.03c.026-.41.016-.434-.18-.406-.164.023-.216.095-.238.332-.038.399.038.576.232.54.12-.023.165-.137.186-.466zM4.467 15.028c.119-.051-.124-.08-.7-.084-.531-.004-.88.03-.88.084 0 .11 1.323.11 1.58 0zm-.431-.307c.136-.136-.138-.184-.905-.16-.877.028-.999.06-.784.206.136.093 1.59.054 1.689-.046zm-.623-.309c.24-.084-.108-.194-.662-.21-.535-.014-.537-.015-.136-.069.266-.035.366-.08.29-.13-.159-.102-2.007-.185-2.006-.09.001.117.456.3.763.309.151.004.224.027.162.053-.063.025-.09.085-.059.134.053.086 1.404.088 1.648.003zm45.376-.282c0-.047-.153-.101-.34-.12-.23-.025-.158-.041.221-.051.557-.015.926-.196.4-.196-.456 0-.4-.16.08-.226.249-.034.452-.089.452-.122 0-.032-.234-.18-.52-.33a187.94 187.94 0 01-1.378-.727c-.472-.252-1.55-.818-2.394-1.258-.845-.439-1.616-.853-1.714-.92a.75.75 0 00-.352-.122c-.156 0-.168.05-.12.51.028.28.085.54.125.576.04.037 1.058.589 2.26 1.227l2.189 1.16-.268.161-.561.34-.294.18h1.107c.631.001 1.107-.034 1.107-.083zM3.77 13.369a97.253 97.253 0 011.556-.854c2.273-1.215 2.107-1.094 2.226-1.628.088-.399.085-.488-.02-.528-.07-.027-1.088.474-2.264 1.113a882.98 882.98 0 01-3.066 1.658c-.51.274-.958.528-.995.565-.037.037.367.068.9.068h.966zm5.424-2.159c.024-.29.002-.339-.158-.339-.147 0-.189.062-.198.294l-.012.294-.056-.31c-.06-.331-.275-.492-.292-.218-.01.152-.014.152-.052.007-.023-.087-.079-.158-.125-.158a.59.59 0 01-.15-.022c-.037-.013-.096.1-.13.248-.061.265-.062.264-.046-.044.012-.226-.025-.322-.13-.343-.105-.02-.16.064-.2.31-.061.38-.06.386.176.434.094.019.242.062.329.097.122.049.16.015.165-.15.006-.198.026-.173.131.167.02.065.173.102.377.09.327-.018.344-.034.371-.357zm.483 0c.012-.273.016-.276.05-.045.028.177.091.248.221.248.165 0 .176-.038.12-.384-.078-.47-.092-.486-.281-.329a.458.458 0 01-.319.098c-.139-.024-.166.032-.166.339 0 .307.03.367.18.367.141 0 .184-.065.195-.294zm32.046-.276c-.043-.433-.253-.419-.253.017 0 .294.027.356.14.312.094-.036.131-.144.113-.329zm-31.272-.07c-.057-.424-.12-.517-.254-.383-.14.14-.005.752.166.752.108 0 .127-.078.088-.37zm30.42.165c.096-.358.063-.61-.079-.61-.075 0-.136.056-.136.125 0 .068-.025.25-.056.406-.043.217-.025.283.08.283.075 0 .16-.092.19-.204zm.443-.09c.044-.284-.054-.521-.168-.407-.031.031-.076.201-.1.378-.057.43.201.458.268.029zm.878-.068c0-.26-.037-.361-.135-.361s-.136.1-.136.361.038.362.136.362.135-.1.135-.362zm.345-.075c.021-.293-.003-.377-.113-.377-.107 0-.141.1-.141.414 0 .534.214.502.254-.037zm-31.61.178c-.002-.243-.21-.74-.298-.709-.1.036-.112.506-.02.763.04.108.32.062.319-.054zm29.59-.238c.058-.393.02-.588-.118-.588-.091 0-.3.806-.236.91.13.21.296.06.353-.322zm2.467-.007c.026-.29-.093-.542-.22-.463-.12.074-.03.801.094.76.056-.018.113-.152.126-.297zm-31.672.09c.058-.059-.096-.579-.208-.703-.16-.178-.246.039-.155.393.083.329.224.449.363.31zm28.774-.352c.05-.223.071-.426.045-.452-.138-.138-.278-.003-.368.354-.129.513-.13.502.065.502.122 0 .19-.106.258-.404zm-28.345.08c0-.018-.064-.194-.143-.39-.096-.241-.185-.342-.27-.31-.161.062-.161.14.001.53.093.22.172.296.271.258.078-.03.14-.07.14-.088zm27.924-.365c.08-.357.002-.555-.175-.445-.054.033-.1.15-.1.259 0 .109-.04.257-.085.33a.204.204 0 00.015.253c.135.162.248.031.345-.397zm-27.536.181c.073-.073-.275-.757-.384-.757-.165 0-.18.168-.047.488.126.301.294.406.431.27zm27.084-.359c.098-.348.096-.427-.01-.493-.152-.094-.21-.036-.331.328-.091.274-.011.58.15.58.042 0 .127-.186.191-.415zm-26.658.04c0-.185-.283-.618-.404-.618-.263 0-.242.215.068.696.077.12.335.059.335-.078zm26.195-.18c.135-.386.125-.619-.027-.619-.14 0-.449.687-.367.82.107.172.298.075.394-.201zm-25.834-.036c0-.267-.266-.67-.407-.615-.167.063-.167.049.017.436.155.325.39.433.39.179zm25.42-.262c.119-.346.12-.416.01-.508-.105-.087-.154-.046-.264.218-.164.392-.167.444-.027.583.144.145.127.162.282-.293zm-25.175-.275c-.084-.174-.186-.317-.228-.317-.178 0-.18.133-.006.474.135.264.211.334.285.26.073-.073.06-.185-.051-.417zm24.75.079c.134-.322.117-.577-.04-.577-.102 0-.387.724-.324.826.098.16.231.068.364-.249zm-24.182.104a2.54 2.54 0 00-.152-.362c-.142-.297-.39-.44-.39-.224 0 .196.281.628.409.628.073 0 .133-.019.133-.042zm23.766-.342c.195-.32.191-.46-.012-.5-.122-.024-.35.424-.35.687 0 .201.183.106.362-.187zm-23.422.126c.094-.06.078-.144-.076-.406-.207-.35-.333-.411-.413-.203-.051.135.195.687.306.685a.494.494 0 00.183-.076zm23.028-.321c.144-.3.12-.596-.046-.596-.11 0-.393.711-.326.82.1.16.226.083.372-.224zm-22.559.028c0-.171-.305-.624-.42-.624-.197 0-.206.142-.028.436.168.276.448.394.448.188zm22.14-.265c.178-.348.176-.54-.005-.54-.046 0-.169.169-.274.374-.154.303-.167.389-.07.45a.81.81 0 00.142.079c.012 0 .105-.163.207-.363zm-21.752.127c.031-.031-.023-.213-.12-.404-.121-.236-.22-.33-.313-.295-.167.064-.167.05.017.436.143.3.287.392.416.263zm21.3-.328c.347-.569.104-.748-.258-.19-.17.263-.188.342-.09.404.164.105.147.116.348-.214zm-20.875-.01c0-.185-.417-.632-.526-.564-.16.099.215.787.391.72.075-.029.135-.099.135-.156zm20.513-.261c.185-.304.193-.44.027-.495-.094-.031-.48.535-.48.703 0 .196.287.064.453-.208zm-20.105.112c.075-.121-.295-.632-.459-.632-.18 0-.161.153.058.46.196.276.307.324.4.172zm19.693-.301c.273-.357.284-.421.073-.42-.146 0-.475.444-.475.639 0 .17.18.073.402-.22zM16.17 8.1c0-.033-.106-.199-.236-.37-.308-.403-.515-.262-.22.151.174.246.456.38.456.219zm18.926-.276c.146-.215.197-.367.14-.423-.156-.157-.708.472-.586.67.098.158.214.094.446-.247zm-18.623.085c.024-.038-.07-.207-.207-.375-.3-.369-.43-.253-.171.155.182.287.296.354.378.22zm18.206-.349c.303-.468.116-.593-.24-.16-.154.186-.258.372-.233.413.096.155.268.063.473-.253zm-17.816.168c.074-.047.028-.163-.153-.383-.178-.218-.287-.286-.352-.222-.066.065-.033.182.107.383.218.312.239.323.398.222zm17.459-.393c.16-.204.189-.298.112-.375-.077-.077-.17-.024-.37.21-.31.363-.333.449-.116.442.087-.003.255-.127.374-.277zm-16.98.124c0-.037-.12-.21-.265-.384-.203-.244-.288-.292-.371-.21-.084.083-.06.169.107.38.194.245.535.383.53.214zm16.757-.654c-.123-.122-.718.482-.624.633.046.074.168.006.391-.216.22-.22.295-.354.233-.417zm-16.437.45c.068-.111-.317-.62-.476-.627-.17-.007-.136.213.075.48.2.254.31.294.4.147zm15.875-.242c.31-.298.316-.405.028-.539-.196-.09-.267-.07-.564.166a12.86 12.86 0 00-.376.305c-.02.02.034.062.119.094.105.04.255-.037.465-.241.17-.165.31-.255.31-.2 0 .057-.102.182-.226.28-.239.188-.298.378-.118.378.06 0 .222-.11.362-.243zm-15.47-.062c0-.062-.12-.23-.268-.37-.236-.227-.276-.239-.328-.102-.04.102.026.244.192.417.247.258.404.28.404.055zm14.814-.33c.17-.146.286-.29.255-.32-.144-.144-.859.321-.754.49.09.148.151.127.499-.17zm-14.506.106c.073-.117-.458-.585-.579-.51-.071.044-.026.147.145.326.262.272.355.312.434.184zm14.208-.383c.272-.168.337-.353.123-.353-.164 0-.721.382-.672.46.077.126.216.099.549-.107zm-13.849.026c.041-.067-.502-.56-.617-.56-.115 0-.036.229.147.423.2.213.39.268.47.137zm13.555-.295c.2-.119.298-.234.266-.316-.062-.164-.05-.166-.431.06-.321.189-.375.269-.262.382.081.081.069.085.427-.126zm-13.57-.33c-.256-.209-.47-.265-.47-.122 0 .046.13.186.29.311.374.293.546.112.18-.188zm13.363-.09c.144-.085.262-.207.262-.271 0-.135-.107-.151-.23-.036a.906.906 0 01-.312.138c-.154.04-.118 0 .113-.127.186-.102.339-.246.339-.32 0-.176-.078-.167-.43.047-.312.19-.32.207-.236.52.065.244.149.253.494.049zm-12.93-.15c0-.063-.158-.203-.352-.311-.286-.16-.36-.174-.4-.07-.05.13.115.315.434.485.199.106.318.067.318-.104zm.134-.326c.058-.094-.46-.453-.654-.453-.201 0-.12.158.18.35.335.214.397.228.474.103zm12.573-.28c.29-.18.4-.354.222-.354-.165 0-.64.318-.64.429 0 .155.065.143.418-.075zM21.2 3.86c1.035-.575 1.914-1.077 1.955-1.117.04-.039.06-.27.043-.512l-.03-.442-.103.316c-.096.295-.103.3-.11.073-.013-.352-.182-.405-.248-.078-.044.223-.08.258-.178.177-.097-.08-.142-.056-.209.111-.063.157-.087.172-.091.056-.007-.163-.187-.229-.187-.068 0 .05-.06.09-.135.09-.075 0-.136.043-.136.096 0 .053-.036.073-.081.045-.045-.027-.3.066-.565.207-.985.523-2.607 1.479-2.606 1.536 0 .046.71.548.784.555.01 0 .863-.47 1.898-1.045zm10.634.586c.516-.324.554-.272-.71-.941-.448-.237-1.546-.825-2.44-1.307C25.748.616 25.559.527 25.467.669c-.046.07-.073.303-.06.517l.024.39 1.672.902c.919.496 2.139 1.15 2.71 1.454.572.303 1.12.606 1.218.673.246.168.303.156.803-.158zM23.56 2.031c.015-.307-.011-.557-.058-.557-.12 0-.161.155-.187.71-.017.37.007.475.098.444.079-.025.13-.233.147-.597zm.356-.133c.04-.475-.103-.58-.19-.142-.086.428-.069.64.049.6.058-.018.122-.225.141-.458zm.314-.176c.041-.529.034-.563-.103-.478-.117.072-.13.952-.015.952.045 0 .098-.213.118-.474zm.546.148c.126-.045.158-.163.158-.593 0-.558-.173-.682-.19-.137-.007.248-.017.26-.068.08-.104-.37-.238-.215-.267.307-.02.391 0 .495.09.453.066-.03.19-.08.277-.11zm.506-.717c-.007-.646-.202-.619-.24.034-.022.37.001.467.11.467.106 0 .135-.11.13-.501zM33.13 22.75a5.266 5.266 0 01-.245-.542c0-.106.268-.027.485.144.274.216.293.18.1-.192-.105-.204-.11-.266-.022-.265.063 0 .249.244.412.542.242.44.27.541.15.541-.081 0-.251-.082-.379-.182-.287-.226-.365-.167-.17.131.178.272.183.322.03.322-.064 0-.226-.224-.36-.499zm-17.501.302c-.238-.089-.544-.332-.544-.434 0-.033.125-.25.28-.483.314-.475.499-.523.903-.235.326.232.328.369.014.812-.295.416-.359.45-.653.34zm.356-.52c.134-.25.116-.457-.04-.457-.166 0-.445.41-.366.538.094.15.305.109.406-.08zm18.186-.036a16.557 16.557 0 00-.332-.536c-.152-.233-.15-.237.133-.383.326-.169.48-.108.217.086-.136.1-.15.152-.065.239.086.087.139.086.249-.005.086-.072.139-.079.139-.02a.2.2 0 01-.09.152c-.11.068-.115.23-.01.394.06.095.12.1.27.02.152-.083.191-.078.191.02 0 .1-.346.334-.492.334-.017 0-.112-.135-.21-.301zM14.25 22.25c-.187-.098-.34-.212-.34-.252 0-.163.128-.179.384-.047.204.106.295.114.373.036.077-.078.04-.15-.146-.286-.278-.204-.32-.448-.108-.624.117-.097.21-.083.547.08.444.216.475.424.038.26-.363-.138-.422-.04-.145.237.228.228.235.401.027.67-.117.151-.229.138-.63-.074zm20.581-.443c-.243-.248-.418-.475-.388-.505.072-.072.431.123.431.235 0 .047.043.087.095.087.059 0 .072-.119.035-.316-.072-.382.002-.396.35-.068l.263.248-.064-.406c-.089-.56.068-.367.255.313.174.631.072.874-.21.501-.193-.256-.336-.2-.189.076.245.458-.046.375-.578-.165zm-21.63-.23c-.117-.123-.31-.224-.429-.224-.345 0-.256-.148.332-.546.746-.508.84-.451.594.358-.106.35-.214.637-.239.637-.025 0-.14-.102-.258-.225zm.217-.411c.032-.053.04-.115.018-.138-.063-.063-.338.062-.338.154 0 .113.248.1.32-.016zm23.058.119c-.204-.226-.35-.651-.29-.843.14-.437.669-.238.915.343.152.36.152.344-.02.516-.186.187-.427.18-.605-.016zm.421-.187c.06-.097-.276-.649-.395-.649-.138 0-.11.295.05.522.146.21.267.254.345.127zm.294-.586l-.316-.56.317-.164c.378-.195.574-.092.574.303 0 .168.083.318.248.448.264.207.231.21-.35.032-.185-.056-.186-.051-.041.17.13.198.131.235.016.28-.093.035-.228-.118-.448-.509zm.343-.324c.059-.095-.2-.33-.278-.253-.076.076.033.333.14.333.049 0 .11-.036.138-.08zm-25.853.565c-.121-.05.476-1.117.626-1.117.05 0 .229.084.396.188.65.402.16 1.164-.516.802-.137-.073-.188-.063-.23.045-.055.144-.095.156-.276.082zm1.015-.403c.034-.054-.007-.166-.09-.248-.141-.14-.16-.138-.282.025-.071.097-.13.209-.13.249 0 .11.432.088.502-.026zm25.357-.308c-.265-.443-.308-.677-.124-.677.035 0 .179.207.321.46.199.353.298.45.43.415.223-.059.22.086-.005.206-.273.146-.306.124-.622-.404zm.635-.384l-.297-.513.207-.156c.146-.11.234-.128.297-.06.061.065.054.11-.022.138a.194.194 0 00-.113.171c0 .096.066.115.248.073.237-.055.24-.051.072.079-.155.118-.161.156-.052.288.07.083.198.132.286.11.249-.066.254.147.007.276-.121.063-.246.113-.278.11-.032-.001-.191-.233-.355-.516zm-28.572.176l-.202-.162.331-.518c.183-.284.37-.493.417-.464.134.082.105.197-.15.6-.208.33-.218.382-.09.454.08.045.146.12.146.167 0 .14-.236.1-.453-.076zm29.38-.543c-.225-.616-.238-.74-.078-.74.124 0 .968.816.968.936 0 .039-.07.049-.158.022-.173-.054-.408.056-.385.18.007.043-.023.09-.07.106-.045.015-.17-.211-.277-.504zm.418-.034a.256.256 0 00-.143-.143c-.066-.022-.087.02-.053.108.063.164.25.198.196.035zM9.2 19.333l-.328-.195.316-.496c.174-.274.332-.515.352-.536.06-.066.665.256.665.354 0 .118-.153.119-.226 0-.085-.137-.316-.107-.316.04 0 .072.084.19.187.262.206.144.111.28-.1.146-.332-.21-.59.114-.27.338.179.125.25.307.115.29-.037-.004-.215-.096-.395-.203zm31.11-.482c-.158-.273-.286-.533-.286-.579 0-.134.207-.093.497.099.383.254.45.224.22-.097-.116-.164-.164-.312-.116-.36.047-.047.218.14.415.455.388.62.316.763-.208.416-.4-.265-.435-.228-.181.188.132.217.146.297.059.33-.07.027-.23-.154-.4-.452zm1.22-.157a.139.139 0 01.08-.177c.22-.084.153-.327-.088-.327-.354 0-.504-.096-.504-.323 0-.223.31-.466.402-.316.03.047.011.11-.04.141-.187.116-.082.227.216.227.259 0 .322.042.4.264.074.212.062.288-.06.393-.259.222-.355.25-.406.118zM9.163 9.628c-.137-.252-.235-.333-.384-.317-.304.033-.24-.09.162-.307.263-.143.36-.164.36-.076 0 .066-.045.136-.1.154-.064.022-.032.146.09.347.195.319.245.538.124.538-.038 0-.15-.153-.252-.339zm32.307.181c0-.037.082-.201.182-.365.117-.193.161-.375.125-.52-.066-.263-.047-.267.369-.069.317.151.39.369.108.318-.088-.015-.237.119-.376.34-.207.328-.409.474-.408.296zM9.752 9.195l-.225-.412.226-.174c.125-.095.257-.175.294-.176.123-.003.07.159-.068.212-.157.06-.18.29-.037.378.054.034.143.016.199-.04.055-.055.143-.099.195-.098.052.001-.002.077-.121.168-.254.195-.188.426.08.282.28-.15.332-.098.09.09-.321.252-.383.23-.633-.23zm31.166.343a2.836 2.836 0 01.006-.316c.02-.301-.107-.32-.294-.045-.119.174-.147.182-.197.057-.068-.17.391-.983.556-.983.06 0 .219.095.354.211.275.236.25.496-.055.576-.156.04-.232.24-.191.5.006.037-.03.068-.08.068s-.095-.03-.1-.068zm.235-.82c0-.164-.177-.134-.212.035-.02.094.015.136.09.11.068-.022.122-.088.122-.146zm-30.376.265c.051-.256.026-.309-.211-.444-.29-.164-.373-.348-.112-.246.279.108.327.097.365-.088.07-.348.216-.376.153-.03-.057.307-.04.344.218.478.355.183.359.262.009.185-.232-.051-.271-.033-.271.123 0 .1-.047.211-.105.247-.074.046-.088-.018-.046-.226zm28.893-.136c-.133-.16-.046-.52.184-.768.297-.32.712-.22.712.169 0 .524-.616.936-.896.599zm.54-.335c.138-.259-.02-.415-.22-.216-.08.082-.147.206-.147.277 0 .196.251.154.367-.061zM11.57 8.3c-.203-.807-.07-.885.543-.314.217.202.319.344.224.314-.196-.063-.629.186-.55.315.03.047.016.086-.03.086s-.131-.18-.187-.401zm.441-.153c0-.096-.256-.213-.322-.147-.024.023-.019.107.012.186.055.145.31.113.31-.04zm26.71.207c-.031-.051.052-.315.185-.587l.243-.494.297.141c.376.18.43.321.222.579-.139.171-.199.188-.38.107-.184-.083-.235-.065-.361.125-.085.128-.172.183-.206.13zm.799-.657c-.077-.124-.286-.094-.34.05-.028.071-.002.147.057.168.138.05.348-.112.282-.218zm-27.004.045c-.287-.515-.287-.523-.003-.653.421-.191.583-.092.583.358 0 .096.061.2.136.228.074.028.135.092.135.142 0 .05-.07.062-.158.027a88.143 88.143 0 01-.285-.115c-.095-.038-.115 0-.077.144.096.365-.095.29-.33-.131zm.347-.406c-.076-.125-.31-.094-.31.04 0 .066.027.147.06.18.082.082.312-.12.25-.22zm25.283.692c-.314-.173-.317-.189-.12-.56.324-.615.314-.608.63-.444.155.08.283.186.283.234 0 .111-.06.11-.272-.002-.117-.063-.188-.06-.232.01-.056.092.057.213.271.288.046.016.053.08.015.141-.053.086-.1.087-.196.007a.316.316 0 00-.286-.043c-.145.057-.141.076.044.228.332.27.25.355-.137.142zM13.48 7.234c-.112-.211-.203-.435-.203-.497 0-.135.148-.15.226-.023.094.153.212.101.243-.105.015-.108.08-.213.142-.234.087-.029.092.019.023.202-.122.319-.136.29.247.5l.34.184-.393-.056c-.37-.054-.387-.047-.297.12.088.165.057.293-.071.293-.03 0-.145-.173-.257-.384zm23.68.285c-.062-.062-.072-.203-.027-.384.04-.157.098-.398.129-.537.09-.404.26-.191.192.24l-.06.37.259-.246c.244-.235.473-.323.473-.183 0 .078-.738.84-.814.84-.03 0-.098-.045-.152-.1zm-.787-.403a1.348 1.348 0 00-.263-.155c-.1-.033.372-.97.49-.97.177 0 .532.222.532.331 0 .145-.047.15-.271.03-.225-.12-.355.078-.15.228.218.159.184.237-.076.172-.263-.067-.31.106-.076.278.082.06.112.132.067.16-.046.028-.16-.005-.253-.074zm-21.762-.148c-.128-.334-.173-.957-.073-1.019.097-.06.88.548.9.698.004.037-.109.067-.252.067a.453.453 0 00-.39.197c-.11.164-.14.173-.185.057zm.383-.378c0-.019-.06-.085-.135-.147-.111-.092-.136-.086-.136.034 0 .081.061.147.136.147s.135-.015.135-.034zm20.63.15c-.06-.02-.086-.096-.058-.167a.452.452 0 00-.01-.28c-.05-.133-.075-.127-.2.052-.089.127-.175.172-.227.12-.053-.053.022-.258.198-.54.301-.485.404-.512.799-.214.182.138.199.19.11.357-.058.107-.158.195-.224.195s-.156.116-.2.258c-.045.142-.13.24-.189.22zm.334-.784c0-.07-.061-.15-.136-.178-.074-.029-.135-.036-.135-.017s-.025.1-.055.178c-.04.102-.001.143.135.143.105 0 .19-.057.19-.126zm-20.564.167c-.296-.505-.208-.676.23-.449.336.173.42.137.281-.12-.12-.224-.122-.285-.015-.285.046 0 .186.185.312.41.266.477.166.601-.292.364-.375-.194-.399-.182-.24.124.229.444-.013.406-.276-.044zm19.232.074c-.083-.029-.088-.086-.019-.215.169-.314-.175-.515-.35-.204-.045.082-.127.12-.182.087-.102-.063.384-.958.52-.958.144 0 .173.117.07.284-.087.14-.081.19.028.26.099.064.179.035.297-.107.097-.117.195-.162.244-.112.11.11-.462 1.017-.608.965zm-18.138-.624a4.141 4.141 0 00-.106-.53c-.097-.254.248-.196.636.107.38.296.486.56.176.442-.073-.028-.232.05-.356.175-.124.123-.24.224-.256.224-.017 0-.06-.188-.094-.418zm.368-.198c-.163-.163-.265-.107-.185.1.031.082.113.121.19.092.119-.046.118-.069-.005-.192zm16.457.066c-.088-.051-.135-.133-.105-.182.035-.057.103-.05.185.018.161.134.288.028.142-.118-.288-.288-.002-.664.431-.569.331.073.365.227.049.227-.239 0-.297.164-.121.34.079.079.076.138-.011.243-.133.16-.34.175-.57.041z"/>
</svg>
