<?xml version="1.0" encoding="UTF-8" standalone="no"?>
<svg
   xmlns="http://www.w3.org/2000/svg"
   id="svg349"
   version="1.1"
   viewBox="0 0 50.800018 28.20228"
   height="28.20228mm"
   width="50.800018mm">
  <g
     transform="translate(-76.653575,-105.25005)"
     id="layer1">
    <path
       id="path227"
       d="m 97.52049,131.29667 c -2.339282,-1.34501 -3.736939,-2.19962 -3.716619,-2.27258 0.01793,-0.0642 0.05101,-0.36088 0.07343,-0.65907 0.06553,-0.86968 -0.07012,-1.03913 -1.506622,-1.88143 -2.756816,-1.61647 -5.501778,-3.19311 -6.042377,-3.47058 -0.843503,-0.43296 -1.435555,-0.39945 -2.196955,0.12435 l -0.332872,0.229 -1.655043,-0.97054 c -0.91027,-0.53379 -2.516818,-1.46251 -3.570109,-2.06383 -1.05328,-0.60131 -1.917168,-1.11363 -1.91974,-1.13847 -0.0043,-0.0415 1.654275,-0.9879 3.066756,-1.74996 0.323032,-0.17428 1.515213,-0.82011 2.649283,-1.43519 l 2.06195,-1.11832 0.344547,0.34454 c 0.314046,0.31405 0.387462,0.34444 0.829555,0.3434 0.552713,-0.001 0.524815,0.0115 3.421709,-1.57425 3.436125,-1.88095 4.920089,-2.74531 5.181179,-3.01782 0.287162,-0.29973 0.452766,-0.88401 0.372221,-1.31332 l -0.05379,-0.28658 1.881106,-1.03251 c 1.034603,-0.56789 2.003091,-1.09863 2.152184,-1.17944 0.149094,-0.0808 0.998766,-0.54677 1.888147,-1.03547 l 1.61708,-0.88855 0.91299,0.46227 c 1.23317,0.62437 4.80492,2.5043 5.90696,3.10902 l 0.65669,0.36034 -0.0575,0.5619 c -0.0975,0.95193 0.17405,1.24394 1.99712,2.14742 0.44728,0.22166 1.78912,0.93353 2.98186,1.58192 3.00266,1.63228 3.42241,1.83513 3.79735,1.83513 0.37014,0 0.79449,-0.19181 1.14105,-0.51577 l 0.23969,-0.22405 0.98016,0.51931 c 0.5391,0.28562 1.83406,0.97495 2.87772,1.53184 1.04365,0.55688 2.34483,1.24671 2.8915,1.53294 0.54668,0.28623 1.02449,0.54817 1.06181,0.58209 0.0582,0.0528 -3.61466,2.18935 -6.82954,3.97287 l -0.97869,0.54295 -0.36805,-0.26662 c -0.45927,-0.33269 -0.98537,-0.47904 -1.46326,-0.40704 -0.38976,0.0587 -1.23587,0.50113 -5.05222,2.64173 -0.73758,0.4137 -1.35246,0.75219 -1.3664,0.75219 -0.12776,0 -1.85696,1.05286 -2.00981,1.22372 -0.25927,0.28979 -0.34135,0.75492 -0.23138,1.31109 0.0623,0.31525 0.0589,0.47037 -0.0116,0.52746 -0.055,0.0445 -0.97414,0.56711 -2.04263,1.16139 -2.58122,1.43564 -5.02033,2.79711 -5.46748,3.05186 l -0.36217,0.20632 z m 4.1392,1.52307 c 0.15323,-0.15322 0.14903,-1.4562 -0.004,-1.40526 -0.11723,0.0389 -0.23019,0.58774 -0.24179,1.17485 -0.007,0.3518 0.0612,0.41555 0.24631,0.23041 z m -0.32848,-0.58261 0.0303,-0.6007 -0.31627,-0.19604 c -0.17394,-0.10784 -0.82453,-0.48266 -1.445745,-0.83296 -0.62123,-0.3503 -1.78832,-1.00831 -2.593542,-1.46225 -0.805232,-0.45394 -1.501221,-0.82535 -1.546654,-0.82535 -0.04546,0 -0.293139,0.0875 -0.550439,0.19443 -0.307963,0.12799 -0.458753,0.24096 -0.441261,0.3306 0.01462,0.0749 1.083782,0.74342 2.375921,1.4856 1.292149,0.74218 2.795313,1.60995 3.34039,1.92838 0.54506,0.31844 1.01936,0.57898 1.054,0.57898 0.0347,0 0.0766,-0.27031 0.0933,-0.60069 z m 0.77972,-0.3416 c 0.0205,-0.54264 3e-5,-0.6931 -0.0904,-0.66319 -0.0791,0.0262 -0.12551,0.26602 -0.14346,0.74057 -0.0205,0.54265 -2e-5,0.69311 0.0904,0.66319 0.0791,-0.0261 0.1255,-0.26601 0.14345,-0.74057 z m 0.39636,-0.0291 c 0.0161,-0.51382 0.0166,-0.51483 0.0502,-0.0904 0.0236,0.29845 0.0736,0.42922 0.16444,0.42922 0.10298,0 0.13058,-0.15239 0.13058,-0.72005 0,-0.60291 -0.0221,-0.71157 -0.13554,-0.66803 -0.0746,0.0286 -0.13554,0.0884 -0.13554,0.13271 0,0.0444 -0.0495,0.0705 -0.10996,0.0581 -0.1117,-0.0229 -0.28793,1.15553 -0.19523,1.30552 0.12341,0.19969 0.21649,0.0196 0.23112,-0.44711 z m 0.70658,-0.62279 c 0,-0.50357 -0.0292,-0.67023 -0.11294,-0.64261 -0.11759,0.0388 -0.21055,1.06624 -0.11824,1.30679 0.1151,0.29997 0.23118,-0.0335 0.23118,-0.66418 z m 0.46411,0.15993 c 0.011,-0.21283 0.0163,-0.21636 0.0514,-0.0341 0.0859,0.44625 0.20732,0.16414 0.20732,-0.48192 0,-0.50777 -0.0293,-0.67559 -0.11296,-0.64805 -0.0621,0.0205 -0.13768,0.19666 -0.16789,0.39156 l -0.055,0.35438 -0.0128,-0.34992 c -0.011,-0.30015 -0.0321,-0.3339 -0.14837,-0.23741 -0.14268,0.11841 -0.17185,0.53627 -0.0774,1.108 0.0454,0.27439 0.08,0.32019 0.17972,0.23742 0.068,-0.0564 0.12908,-0.20936 0.13585,-0.33995 z m 0.60335,-0.35734 c 0.0165,-0.16799 0.0793,-0.28671 0.1515,-0.28671 0.0678,0 0.1401,-0.0712 0.16077,-0.15812 0.0297,-0.1249 0.0591,-0.10587 0.13994,0.0904 0.11469,0.27849 0.2868,0.33231 0.28891,0.0904 8.4e-4,-0.10235 0.0249,-0.12126 0.068,-0.0536 0.0966,0.15184 3.46946,-1.76781 3.43401,-1.95447 -0.0144,-0.0759 -0.24115,-0.25342 -0.50382,-0.39445 l -0.4776,-0.2564 -1.75793,0.97725 -1.75794,0.97725 v 0.66468 c 0,0.49127 0.0295,0.65499 0.11296,0.62759 0.0621,-0.0204 0.12569,-0.1661 0.14126,-0.32379 z m -1.85334,-0.45355 c 0.50679,-0.29057 1.78374,-1.00527 2.83768,-1.58825 1.05394,-0.58297 1.93592,-1.12798 1.95995,-1.21113 0.024,-0.0831 0.0901,-0.33417 0.14664,-0.55781 0.1549,-0.61175 0.74476,-1.46537 1.18263,-1.71147 0.28004,-0.15739 0.38898,-0.1815 0.44086,-0.0975 0.0445,0.072 0.0891,0.0788 0.12594,0.0192 0.0314,-0.0508 0.0107,-0.10776 -0.0461,-0.12666 -0.0567,-0.0189 0.44114,-0.3336 1.10634,-0.69931 0.6652,-0.36572 1.61608,-0.89676 2.11305,-1.18009 1.47211,-0.83924 2.81464,-1.53533 2.9612,-1.53533 0.0752,0 0.1565,-0.0511 0.18047,-0.1136 0.024,-0.0624 0.42477,-0.31491 0.89067,-0.56096 0.80539,-0.42537 0.8871,-0.44894 1.66032,-0.47916 0.52836,-0.0207 0.98733,0.0151 1.31019,0.10182 l 0.49696,0.13357 1.21988,-0.68658 c 2.12093,-1.19373 2.43981,-1.38332 2.43662,-1.44867 -0.002,-0.0351 -0.83951,-0.50509 -1.86175,-1.04444 l -1.85862,-0.98064 -0.51613,0.14481 c -0.6438,0.18064 -1.37596,0.18504 -1.95622,0.0117 -0.24508,-0.0732 -1.19784,-0.54459 -2.11726,-1.04754 -0.91941,-0.50294 -2.05794,-1.12039 -2.53006,-1.37212 -2.79654,-1.49102 -3.87807,-2.11249 -4.18119,-2.40256 -0.38928,-0.37253 -0.78859,-1.11218 -0.78859,-1.4607 0,-0.12983 -0.0508,-0.30002 -0.11295,-0.3782 -0.12919,-0.16256 -5.3136,-2.96463 -5.4852,-2.96463 -0.284,0 -5.29866,2.74877 -5.494178,3.01162 -0.04333,0.0582 -0.193373,0.38236 -0.333534,0.7204 -0.469115,1.13136 -0.537195,1.18094 -5.01959,3.65634 -4.601252,2.54102 -4.481934,2.48239 -5.148287,2.53006 -0.341025,0.0244 -0.884731,-0.005 -1.208232,-0.0666 l -0.588188,-0.11099 -1.429653,0.77013 c -0.78631,0.42357 -1.648383,0.89086 -1.915727,1.03841 l -0.486053,0.26828 0.214974,0.13699 c 0.118251,0.0754 0.89629,0.52604 1.728982,1.00154 1.263985,0.72179 1.547487,0.85075 1.716836,0.78099 0.446896,-0.18409 1.129428,-0.2572 1.752685,-0.18774 0.621336,0.0693 0.762457,0.13743 3.659564,1.76824 1.657325,0.93294 3.486125,1.97324 4.064004,2.3118 1.439482,0.84334 1.942792,1.43266 2.176934,2.54893 0.09466,0.45146 0.125859,0.49028 0.60474,0.75357 0.277685,0.15268 1.519109,0.85247 2.758708,1.55511 1.239595,0.70263 2.288785,1.27751 2.331525,1.27751 0.0427,0 0.49235,-0.23773 0.99913,-0.52829 z m -6.171805,-3.89934 v -1.17467 h 0.50109 c 0.417825,0 0.539714,0.0386 0.733621,0.23253 0.191494,0.1915 0.223352,0.28916 0.18047,0.55336 -0.0286,0.17646 -0.122423,0.39859 -0.208432,0.49362 -0.161046,0.17796 -0.159296,0.19133 0.125902,0.95689 0.02807,0.0754 -0.0524,0.11295 -0.241505,0.11295 -0.190407,0 -0.300343,-0.052 -0.334591,-0.15814 -0.127065,-0.39386 -0.161633,-0.41812 -0.193117,-0.13554 -0.02871,0.25723 -0.06564,0.29368 -0.29808,0.29368 h -0.265358 z m 0.813236,-0.41195 c 0,-0.0716 -0.06094,-0.13021 -0.135539,-0.13021 -0.136105,0 -0.185753,0.19075 -0.0778,0.29874 0.08431,0.0843 0.213299,-0.0176 0.213299,-0.16853 z m 0.869256,0.79598 c 0.120801,-0.43485 0.264099,-0.96346 0.318443,-1.17468 0.09061,-0.3522 0.122989,-0.38402 0.390823,-0.38402 h 0.29204 l 0.284857,1.1069 c 0.15666,0.6088 0.284718,1.13741 0.284569,1.17468 -1.82e-4,0.0372 -0.142594,0.0678 -0.316533,0.0678 -0.220887,0 -0.316266,-0.0409 -0.316266,-0.13554 0,-0.0904 -0.0904,-0.13554 -0.271079,-0.13554 -0.180715,0 -0.271078,0.0451 -0.271078,0.13554 0,0.0939 -0.09445,0.13554 -0.307707,0.13554 h -0.307717 z m 0.757218,-0.25382 c 0,-0.0775 -0.04066,-0.11574 -0.0904,-0.0851 -0.04973,0.0307 -0.0904,0.0941 -0.0904,0.14087 0,0.0467 0.04066,0.0851 0.0904,0.0851 0.04973,0 0.0904,-0.0634 0.0904,-0.14087 z m 0.993952,-0.13021 v -1.17467 h 0.27108 0.271083 v 1.17467 1.17468 h -0.271083 -0.27108 z m 0.722883,0.004 v -1.1788 h 0.31626 0.31625 v 0.85841 0.85841 h 0.32199 c 0.30884,0 0.32083,0.012 0.29367,0.29368 l -0.0283,0.29367 -0.60993,0.0267 -0.60993,0.0267 z m 1.5034,1.01241 c -0.0246,-0.087 -0.11265,-0.46308 -0.19545,-0.83582 -0.0828,-0.37273 -0.18733,-0.79558 -0.23228,-0.93967 -0.12328,-0.39524 -0.10576,-0.42955 0.20436,-0.39886 0.24551,0.0243 0.29996,0.0774 0.38402,0.37393 0.12727,0.44903 0.26036,0.441 0.35176,-0.0212 0.0607,-0.30713 0.10902,-0.36957 0.28574,-0.36957 0.17761,0 0.22268,0.0594 0.27362,0.36096 0.0851,0.50356 0.18427,0.51735 0.31679,0.044 0.10065,-0.35932 0.14263,-0.40498 0.37273,-0.40498 0.14263,0 0.25991,0.0305 0.26061,0.0678 7.3e-4,0.0373 -0.13144,0.56583 -0.29366,1.17458 -0.265,0.9944 -0.31532,1.10681 -0.49552,1.10689 -0.16106,9e-5 -0.22485,-0.0831 -0.32375,-0.42231 -0.13151,-0.45099 -0.15918,-0.44396 -0.32924,0.0836 -0.0854,0.26472 -0.15579,0.33885 -0.32203,0.33885 -0.12533,0 -0.23126,-0.065 -0.2577,-0.15813 z m 1.65918,0.11737 c 0,-0.0596 0.25834,-1.04342 0.35706,-1.35981 0.0465,-0.14909 0.12909,-0.44389 0.1835,-0.65511 0.092,-0.35693 0.12057,-0.38403 0.40562,-0.38403 0.21358,0 0.32123,0.048 0.35459,0.15814 0.0264,0.087 0.15207,0.56474 0.27937,1.06172 0.12731,0.49698 0.25355,0.97475 0.28053,1.06172 0.0406,0.13075 -0.009,0.15813 -0.28174,0.15813 -0.25481,0 -0.34166,-0.0415 -0.37807,-0.18071 -0.0312,-0.11936 -0.12325,-0.18073 -0.27108,-0.18073 -0.14782,0 -0.23986,0.0614 -0.27107,0.18073 -0.0355,0.13579 -0.12326,0.18071 -0.35298,0.18071 -0.16815,0 -0.30573,-0.0183 -0.30573,-0.0408 z m 1.07797,-0.93061 c -0.013,-0.13843 -0.1619,-0.4253 -0.16802,-0.32364 -0.003,0.0581 -0.031,0.16988 -0.0611,0.24849 -0.036,0.0938 -0.005,0.14292 0.0904,0.14292 0.0798,0 0.14235,-0.0305 0.13886,-0.0678 z m 1.0003,0.42664 c 0,-0.42569 -0.0592,-0.66209 -0.27108,-1.08174 -0.34363,-0.68074 -0.34563,-0.81324 -0.0123,-0.81324 0.22487,0 0.27993,0.0553 0.41988,0.4218 l 0.16109,0.42179 0.21437,-0.42179 c 0.19328,-0.38031 0.24529,-0.4218 0.52888,-0.4218 0.17299,0 0.31453,0.0211 0.31453,0.047 0,0.0258 -0.18298,0.41132 -0.40662,0.85661 -0.28022,0.55794 -0.40662,0.92255 -0.40662,1.17287 0,0.34336 -0.0148,0.36324 -0.27108,0.36324 h -0.27108 z m -5.51193,-2.31462 c -0.173946,-0.0211 -0.660886,-0.10107 -1.082094,-0.17757 -2.543424,-0.46203 -4.491221,-2.02066 -5.125567,-4.10149 -0.177535,-0.58236 -0.246297,-1.9402 -0.129659,-2.56023 0.236629,-1.25782 1.053163,-2.59709 2.088439,-3.4254 1.333889,-1.06725 2.809774,-1.69894 4.492821,-1.92294 1.22593,-0.16317 1.82576,-0.16346 2.96538,-10e-4 2.81237,0.39992 4.75948,1.63604 5.69884,3.61791 0.44852,0.94629 0.57819,1.54496 0.53825,2.48488 -0.0478,1.12495 -0.42323,2.15619 -1.13632,3.12148 -0.60764,0.82252 -1.84491,1.77888 -2.68311,2.07394 -0.23721,0.0835 -0.4959,0.18514 -0.57487,0.22584 -0.079,0.0408 -0.5669,0.2056 -1.08431,0.36644 -0.86017,0.26736 -1.05686,0.29432 -2.29615,0.31469 -0.74546,0.0123 -1.49771,0.005 -1.67165,-0.0161 z m -2.226014,-3.35572 c 0.02401,-0.0388 0.06852,-0.86224 0.09893,-1.82978 0.03042,-0.96754 0.07748,-1.97544 0.104483,-2.23977 l 0.0492,-0.4806 0.46711,0.0139 c 1.029811,0.0307 0.964091,0.0679 0.964091,-0.54537 v -0.54388 l -2.010509,0.0243 -2.010498,0.0243 -0.02892,0.35283 c -0.0159,0.19405 -0.0043,0.45214 0.02657,0.57353 0.05422,0.21604 0.06884,0.21934 0.694933,0.15647 l 0.639554,-0.0643 -0.02412,2.24666 c -0.01323,1.23568 -0.01814,2.27717 -0.01099,2.31445 0.0175,0.0902 0.984208,0.0875 1.040078,-0.003 z m 7.105434,-0.77813 c 0,-0.84164 0.019,-0.86808 0.62554,-0.86808 0.90677,0 1.75488,-0.51711 2.07728,-1.26655 0.17175,-0.39922 0.18512,-0.51914 0.10576,-0.94838 -0.0499,-0.27025 -0.1521,-0.60983 -0.22698,-0.75463 -0.19805,-0.38299 -0.72854,-0.85229 -1.11442,-0.98589 -0.37578,-0.13011 -2.26548,-0.14129 -2.47046,-0.0146 -0.10245,0.0633 -0.13213,0.59763 -0.1576,2.83727 l -0.0314,2.75928 h 0.59612 0.59612 z m 0.20331,-2.02444 c -0.19434,-0.0296 -0.20331,-0.0686 -0.20331,-0.88586 0,-0.61187 0.0329,-0.8676 0.11581,-0.8994 0.0637,-0.0244 0.33679,-0.0126 0.60686,0.0263 0.42072,0.0605 0.52063,0.11454 0.69743,0.3769 0.27207,0.40373 0.26038,0.668 -0.0447,1.00942 -0.25354,0.28375 -0.73984,0.43838 -1.17211,0.37272 z m -6.306841,1.95509 c 0.126585,-0.0576 0.23015,-0.17314 0.23015,-0.25657 0,-0.16697 0.383182,-0.38097 0.563684,-0.31479 0.06275,0.0229 0.173982,0.003 0.24728,-0.0429 0.116017,-0.0738 0.110727,-0.15251 -0.04098,-0.60898 -0.09584,-0.28834 -0.203641,-0.58526 -0.239617,-0.65981 -0.03597,-0.0745 -0.08741,-0.20669 -0.114366,-0.29367 -0.02689,-0.087 -0.08068,-0.1575 -0.119541,-0.15675 -0.202285,0.004 -0.308006,0.21989 -0.509447,1.04056 -0.391079,1.5932 -0.38934,1.46246 -0.01718,1.29291 z m 0.412253,-1.18276 c 0.0011,-0.16441 0.01814,-0.17737 0.08901,-0.0678 0.113213,0.17519 0.113213,0.27108 0,0.27108 -0.04973,0 -0.08976,-0.0915 -0.08901,-0.20331 z m 1.269598,0.20013 c 0.14098,-0.0755 0.17524,-0.19339 0.17721,-0.60993 l 0.002,-0.51639 0.25178,0.30354 c 0.16406,0.19777 0.31277,0.29185 0.42678,0.27001 0.15884,-0.0304 0.17736,-0.12731 0.20055,-1.04902 0.0141,-0.5585 0.001,-1.01546 -0.0285,-1.01546 -0.0298,0 -0.13272,0.042 -0.22886,0.0935 -0.14281,0.0764 -0.17477,0.19212 -0.17477,0.63277 v 0.53924 l -0.32798,-0.36304 c -0.48317,-0.53481 -0.57562,-0.40225 -0.57562,0.82539 0,0.54059 0.023,0.98288 0.0511,0.98288 0.0281,0 0.12977,-0.0421 0.22591,-0.0935 z m 1.91039,-1.11212 c 0.43786,-0.26928 0.66296,-0.56498 0.79042,-1.03837 0.11127,-0.41322 0.0655,-0.6886 -0.1562,-0.94115 -0.18154,-0.20674 -0.44827,-0.19964 -0.81113,0.0216 l -0.29367,0.17905 v 0.99528 c 0,0.54741 0.0305,0.99402 0.0678,0.99247 0.0373,-0.001 0.21854,-0.0955 0.40281,-0.20888 z m -0.0188,-1.0458 c 0,-0.47811 0.0222,-0.54969 0.17018,-0.54969 0.22599,0 0.29631,0.30374 0.16293,0.70377 -0.18063,0.54176 -0.33311,0.47122 -0.33311,-0.15408 z M 84.69016,119.1936 V 118.29 h -0.225903 c -0.180715,0 -0.225902,-0.0451 -0.225902,-0.22589 0,-0.22214 0.01206,-0.2259 0.722884,-0.2259 0.710824,0 0.722873,0.004 0.722873,0.2259 0,0.19076 -0.04216,0.22589 -0.271079,0.22589 h -0.271079 v 0.9036 0.9036 H 84.916052 84.69016 Z m 2.62066,0.83583 c 8.5e-5,-0.0373 0.138058,-0.29633 0.306511,-0.57569 l 0.306287,-0.50791 -0.261335,-0.47789 c -0.143735,-0.26284 -0.261335,-0.51205 -0.261335,-0.55381 0,-0.0417 0.12094,-0.0759 0.268753,-0.0759 0.207236,0 0.300854,0.0621 0.408945,0.27108 0.07705,0.14909 0.171025,0.27108 0.20873,0.27108 0.03767,0 0.14062,-0.12199 0.228688,-0.27108 0.120236,-0.20353 0.226405,-0.27108 0.426106,-0.27108 0.244996,0 0.385007,0.2056 0.194846,0.28614 -0.03917,0.0165 -0.177524,0.21367 -0.307578,0.43802 l -0.236468,0.4079 0.173885,0.35748 c 0.09562,0.1966 0.213704,0.3973 0.262402,0.44599 0.173715,0.17372 0.09029,0.32346 -0.180235,0.32346 -0.207237,0 -0.300855,-0.062 -0.408945,-0.27108 -0.174846,-0.33812 -0.232317,-0.33804 -0.425007,5.4e-4 -0.118101,0.20757 -0.217984,0.27051 -0.429201,0.27051 -0.151409,0 -0.275177,-0.0305 -0.275049,-0.0678 z m 1.897317,0.0385 c 0,-0.0161 0.178176,-0.51417 0.395946,-1.1069 l 0.395946,-1.07771 h 0.34649 c 0.339937,0 0.34872,0.009 0.463694,0.45181 0.100748,0.38855 0.179166,0.67198 0.443511,1.60388 0.0365,0.12872 -0.01313,0.15813 -0.266949,0.15813 -0.235815,0 -0.323329,-0.0441 -0.359071,-0.18073 -0.03778,-0.14442 -0.123244,-0.18071 -0.425615,-0.18071 -0.302359,0 -0.387845,0.0363 -0.425615,0.18071 -0.03351,0.12802 -0.123245,0.18073 -0.307792,0.18073 -0.143298,0 -0.260545,-0.0131 -0.260545,-0.0292 z m 1.174679,-1.14547 c 0,-0.14909 -0.04066,-0.27108 -0.0904,-0.27108 -0.04973,0 -0.09093,0.0305 -0.09157,0.0678 -7.34e-4,0.0373 -0.02572,0.15927 -0.05571,0.27108 -0.04002,0.14947 -0.01579,0.20331 0.09157,0.20331 0.102028,0 0.146083,-0.0816 0.146083,-0.27108 z m 1.102381,1.06625 c -0.05966,-0.0597 -0.108431,-0.22229 -0.108431,-0.36144 0,-0.21928 0.03511,-0.25301 0.263544,-0.25301 0.144952,0 0.279542,0.048 0.299094,0.10661 0.04941,0.14838 0.340961,0.021 0.340961,-0.14895 0,-0.10096 -0.0968,-0.13838 -0.358261,-0.13838 -0.411549,0 -0.545338,-0.16235 -0.545338,-0.66174 0,-0.51451 0.247087,-0.72793 0.849554,-0.73383 0.534335,-0.005 0.682351,0.0891 0.685179,0.43648 0.0011,0.15048 -0.04685,0.1638 -0.41141,0.11384 -0.389564,-0.0534 -0.411165,-0.0452 -0.384025,0.14584 0.02252,0.1583 0.09755,0.20896 0.344227,0.23237 0.387131,0.0367 0.449447,0.12738 0.451208,0.65635 0.0021,0.55831 -0.177962,0.71429 -0.823493,0.71429 -0.2719,0 -0.543171,-0.0488 -0.602809,-0.10843 z m -5.530006,-1.06625 v -1.08431 h 0.632521 c 0.614442,0 0.63251,0.006 0.63251,0.2259 0,0.20331 -0.03618,0.22589 -0.361431,0.22589 -0.325295,0 -0.361442,0.0226 -0.361442,0.2259 0,0.16566 0.04824,0.2259 0.180715,0.2259 0.120481,0 0.180727,0.0602 0.180727,0.18072 0,0.12048 -0.06019,0.18072 -0.180727,0.18072 -0.140555,0 -0.180715,0.0603 -0.180715,0.27108 0,0.24956 0.02508,0.27107 0.316255,0.27107 0.25602,0 0.316266,0.0345 0.316266,0.18073 0,0.16218 -0.06019,0.18072 -0.587345,0.18072 h -0.587334 z m 24.255599,0.87548 c -0.025,-0.0651 -0.0339,-0.5836 -0.0197,-1.15209 l 0.0257,-1.03361 h 0.60544 c 0.333,0 0.65134,0.0459 0.70742,0.10203 0.056,0.0561 0.12434,0.26872 0.15167,0.47248 0.0651,0.48582 -0.12645,0.78379 -0.5558,0.86433 -0.31116,0.0584 -0.3214,0.0731 -0.3214,0.46282 0,0.38793 -0.01,0.40252 -0.27391,0.40252 -0.15066,0 -0.29437,-0.0532 -0.31938,-0.11847 z m 0.83924,-1.33829 c 0.12605,-0.12605 0.0492,-0.35043 -0.12007,-0.35043 -0.0741,0 -0.12588,0.0931 -0.12588,0.22591 0,0.24333 0.0844,0.28606 0.24595,0.12452 z m 0.38657,1.40774 c 0,-0.027 0.16556,-0.55793 0.36792,-1.17991 l 0.36792,-1.13089 0.28209,0.0279 c 0.2751,0.0271 0.29046,0.0536 0.6198,1.06696 0.18575,0.57153 0.34053,1.08996 0.34395,1.15209 0.0107,0.18627 -0.42974,0.13064 -0.53592,-0.0678 -0.0679,-0.12679 -0.1892,-0.18072 -0.40662,-0.18072 -0.21743,0 -0.33876,0.0539 -0.40662,0.18072 -0.0633,0.11833 -0.1892,0.18071 -0.36462,0.18071 -0.14734,0 -0.2679,-0.0221 -0.2679,-0.049 z m 1.17329,-0.96752 c -0.002,-0.14651 -0.1761,-0.41929 -0.17795,-0.27847 -8.4e-4,0.0581 -0.026,0.16988 -0.0562,0.24849 -0.036,0.0938 -0.005,0.14293 0.0904,0.14293 0.0798,0 0.14458,-0.0508 0.14382,-0.11295 z m 1.14488,0.8513 c -0.11844,-0.13088 -0.14954,-0.35569 -0.14954,-1.08113 0,-1.0559 0.0339,-1.10297 0.79624,-1.10297 0.49415,0 0.61843,0.0931 0.70545,0.52817 0.0542,0.27119 0.0433,0.28506 -0.22535,0.28506 -0.15531,0 -0.28239,-0.0435 -0.28239,-0.0967 0,-0.0532 -0.0915,-0.0837 -0.2033,-0.0678 -0.22894,0.0326 -0.30331,0.34082 -0.20659,0.85639 0.0413,0.22009 0.10459,0.30198 0.23328,0.30198 0.0971,0 0.17661,-0.0407 0.17661,-0.0904 0,-0.0497 0.12199,-0.0904 0.27108,-0.0904 0.22414,0 0.27108,0.0367 0.27108,0.21189 0,0.33447 -0.27074,0.51099 -0.78375,0.51099 -0.32436,0 -0.49579,-0.047 -0.60282,-0.16525 z m 1.65765,-1.00943 v -1.17467 h 0.27108 0.27108 v 1.17467 1.17467 h -0.27108 -0.27108 z m 0.81324,0 v -1.17467 h 0.63252 0.63252 v 0.27108 c 0,0.25602 -0.0201,0.27107 -0.36144,0.27107 -0.3253,0 -0.36145,0.0226 -0.36145,0.22591 0,0.19076 0.0422,0.22589 0.27108,0.22589 0.22892,0 0.27108,0.0351 0.27108,0.2259 0,0.19076 -0.0422,0.2259 -0.27108,0.2259 -0.26505,0 -0.27108,0.01 -0.27108,0.4518 0,0.44176 -0.006,0.45179 -0.27107,0.45179 h -0.27108 z m 1.44575,0 v -1.17467 h 0.27108 0.27108 v 1.17467 1.17467 h -0.27108 -0.27108 z m 1.01204,1.06624 c -0.1487,-0.1487 -0.1487,-1.98378 0,-2.13248 0.0597,-0.0597 0.32163,-0.10843 0.58221,-0.10843 0.38716,0 0.4995,0.0367 0.61444,0.20082 0.0774,0.11046 0.14066,0.29344 0.14066,0.40662 0,0.16657 -0.0496,0.20579 -0.26053,0.20579 -0.18889,0 -0.27423,-0.0523 -0.31029,-0.19023 -0.0274,-0.10491 -0.1031,-0.17246 -0.16867,-0.1506 -0.083,0.0276 -0.11892,0.228 -0.11892,0.66338 0,0.52222 0.0257,0.62872 0.15813,0.65421 0.0965,0.0186 0.15812,-0.025 0.15812,-0.11172 0,-0.0978 0.0847,-0.14216 0.27108,-0.14216 0.24644,0 0.27108,0.0271 0.27108,0.29818 0,0.41549 -0.13974,0.51505 -0.72287,0.51505 -0.27831,0 -0.55481,-0.0488 -0.61444,-0.10843 z M 99.689847,111.016 v -0.85843 h -0.232178 c -0.189104,0 -0.226831,-0.0378 -0.203309,-0.2033 0.02668,-0.18815 0.08111,-0.20528 0.72916,-0.2297 0.69675,-0.0262 0.70029,-0.0252 0.70029,0.20331 0,0.18477 -0.0442,0.22969 -0.2259,0.22969 -0.2251,0 -0.2259,0.003 -0.2259,0.85843 v 0.85841 h -0.271083 -0.27108 z m 1.194403,-0.20331 0.0255,-1.06173 0.24849,-0.0286 c 0.24215,-0.0279 0.24849,-0.0169 0.24849,0.42922 0,0.44842 0.005,0.4578 0.27108,0.4578 0.26506,0 0.27108,-0.01 0.27108,-0.45181 0,-0.44175 0.006,-0.45179 0.27107,-0.45179 h 0.27108 v 1.08431 1.08432 h -0.27108 c -0.26103,0 -0.27107,-0.0151 -0.27107,-0.40662 0,-0.39156 -0.01,-0.40662 -0.27108,-0.40662 -0.26104,0 -0.27108,0.0151 -0.27108,0.40662 0,0.39251 -0.01,0.40662 -0.27395,0.40662 h -0.27394 z m 1.98791,0 0.0254,-1.06173 0.56476,-0.0269 c 0.51765,-0.0247 0.56474,-0.0115 0.56474,0.15812 0,0.15123 -0.0577,0.18504 -0.31626,0.18504 -0.27469,0 -0.31625,0.0288 -0.31625,0.21961 0,0.15895 0.0561,0.2276 0.2033,0.24849 0.13066,0.0186 0.21363,0.1015 0.23218,0.23218 0.0235,0.16558 -0.0142,0.20331 -0.20331,0.20331 -0.17194,0 -0.23217,0.0469 -0.23217,0.18073 0,0.14629 0.0602,0.18071 0.31625,0.18071 0.29115,0 0.31626,0.0216 0.31626,0.27108 v 0.27108 h -0.59021 -0.5902 z m -7.87741,17.50533 c 0.2349,-0.11983 0.357835,-0.24401 0.357835,-0.36143 0,-0.21853 0.01697,-0.21849 -0.489479,-0.001 -0.298144,0.1278 -0.41411,0.22902 -0.41411,0.36144 0,0.23046 0.09627,0.23071 0.545754,0.001 z m 13.55035,-0.0345 c 0,-0.16352 -0.6193,-0.53031 -0.78685,-0.46601 -0.17762,0.0682 -0.0735,0.20178 0.31831,0.40876 0.40329,0.213 0.46854,0.22097 0.46854,0.0572 z m -13.646134,-0.47054 c 0.244846,-0.098 0.363267,-0.20105 0.363267,-0.31625 0,-0.20844 -0.07449,-0.21197 -0.540333,-0.0255 -0.244846,0.098 -0.363267,0.20107 -0.363267,0.31627 0,0.20844 0.07439,0.21196 0.540333,0.0255 z m 13.735794,0.0324 c -8.5e-4,-0.13284 -0.6735,-0.53813 -0.75609,-0.45553 -0.1124,0.11239 -0.051,0.21303 0.23722,0.38875 0.33726,0.20564 0.51987,0.22914 0.51887,0.0668 z m 0.091,-0.3751 c 0,-0.0696 -0.14464,-0.21196 -0.32142,-0.31626 -0.38962,-0.22988 -0.40145,-0.23076 -0.40145,-0.0299 0,0.15976 0.39684,0.46578 0.60993,0.47032 0.0621,10e-4 0.11294,-0.0545 0.11294,-0.12422 z m -13.940986,-0.11156 c 0.400311,-0.15289 0.484335,-0.27232 0.2538,-0.36078 -0.1446,-0.0555 -0.770354,0.29023 -0.770354,0.4256 0,0.11432 0.07065,0.10544 0.516554,-0.0648 z m 14.076526,-0.29993 c 0,-0.064 -0.12917,-0.21604 -0.28703,-0.33778 -0.28146,-0.21706 -0.28889,-0.21788 -0.38285,-0.0423 -0.0815,0.15238 -0.0523,0.20693 0.19667,0.36628 0.31111,0.19915 0.47321,0.20388 0.47321,0.0138 z m -14.067465,-0.15176 c 0.169232,-0.1095 0.188539,-0.16056 0.100747,-0.26636 -0.09306,-0.11215 -0.15302,-0.097 -0.418603,0.10555 -0.170481,0.13003 -0.329969,0.21641 -0.354409,0.19197 -0.02444,-0.0244 0.09007,-0.13737 0.254419,-0.25095 0.164377,-0.11356 0.314836,-0.21868 0.334345,-0.23356 0.01953,-0.0149 -0.01569,-0.0887 -0.07823,-0.1641 -0.09957,-0.11997 -0.157258,-0.10256 -0.463737,0.1402 -0.34585,0.27392 -0.348145,0.27982 -0.192829,0.49628 0.172071,0.23981 0.427515,0.23387 0.818338,-0.019 z m 14.342065,-0.12906 c 0.0327,-0.0528 -0.0158,-0.18499 -0.10762,-0.29367 l -0.16698,-0.19763 0.20544,0.17407 c 0.14586,0.12359 0.23347,0.14604 0.30209,0.0775 0.12277,-0.12277 -0.13252,-0.53692 -0.37927,-0.61524 -0.19981,-0.0634 -0.3806,0.022 -0.30512,0.1441 0.0286,0.0463 -0.007,0.0841 -0.0792,0.0841 -0.25584,0 -0.23381,0.26098 0.0416,0.49271 0.29975,0.25222 0.39924,0.2795 0.4891,0.13412 z m -14.973732,-0.44206 c 0.195315,-0.16699 0.202647,-0.36549 0.01355,-0.36549 -0.04504,0 -0.235785,0.1301 -0.423876,0.28911 l -0.341997,0.28911 0.301528,-0.3241 c 0.415017,-0.44612 0.201644,-0.57356 -0.23284,-0.13907 l -0.318464,0.31846 0.259777,0.13612 c 0.273693,0.1434 0.365348,0.1182 0.742361,-0.20414 z m -0.601283,-0.74753 c -0.09178,-0.0917 -0.173159,-0.0435 -0.417194,0.24698 -0.396352,0.47183 -0.220663,0.61628 0.217919,0.17918 0.252104,-0.25125 0.291004,-0.33443 0.199275,-0.42616 z m 16.193665,0.68977 c 0.11665,-0.0447 0.099,-0.10502 -0.10555,-0.36144 -0.25214,-0.31601 -0.41506,-0.38167 -0.52115,-0.21003 -0.0463,0.075 0.36359,0.62518 0.46585,0.62518 0.0115,0 0.0839,-0.0241 0.16086,-0.0537 z m 0.2959,-0.52193 c -0.21552,-0.27981 -0.51145,-0.42514 -0.51145,-0.25116 0,0.18313 0.46094,0.6369 0.59479,0.58554 0.11059,-0.0425 0.0957,-0.10181 -0.0833,-0.33438 z m -17.00502,0.0205 c 0.176254,-0.20947 0.21237,-0.31031 0.137524,-0.38403 -0.07449,-0.0734 -0.172007,-0.0214 -0.366522,0.19512 -0.145774,0.16231 -0.265038,0.33512 -0.265038,0.38404 0,0.18313 0.263224,0.0792 0.494036,-0.19513 z m 17.94056,-0.3343 c -0.22612,-0.39153 -0.40975,-0.55039 -0.54123,-0.46823 -0.11344,0.0709 -0.10213,0.12561 0.0757,0.36617 0.11501,0.15557 0.18963,0.3023 0.16583,0.32611 -0.0238,0.0238 -0.13182,-0.081 -0.24001,-0.233 -0.10821,-0.15196 -0.25255,-0.27629 -0.32079,-0.27629 -0.23739,0 -0.23909,0.19047 -0.004,0.49814 l 0.23614,0.30959 0.35761,-0.18639 c 0.28898,-0.15063 0.34101,-0.21512 0.27115,-0.3361 z m -18.310689,0.14711 c 0.16777,-0.21436 0.202113,-0.32096 0.131025,-0.40662 -0.144729,-0.17438 -0.20442,-0.14653 -0.462137,0.21569 -0.376917,0.52974 -0.07172,0.70569 0.331112,0.19093 z m -0.243534,-0.56544 c -0.06905,-0.20752 -0.299329,-0.12001 -0.498945,0.1896 -0.17047,0.26443 -0.188154,0.34423 -0.0904,0.40779 0.08463,0.055 0.197343,-0.01 0.370898,-0.21279 0.137118,-0.16049 0.235401,-0.33357 0.21841,-0.3846 z m 19.004783,0.35449 c 0,-0.0802 -0.38664,-0.67302 -0.43813,-0.67181 -0.0323,7.3e-4 -0.11698,0.0382 -0.18803,0.0831 -0.10662,0.0675 -0.0867,0.13756 0.11483,0.40168 0.15348,0.20123 0.29361,0.3009 0.37768,0.26864 0.0735,-0.0282 0.13365,-0.065 0.13365,-0.0816 z m -19.605757,-0.2246 c 0.182444,-0.25622 0.191463,-0.53895 0.01718,-0.53895 -0.108805,0 -0.479852,0.68417 -0.409318,0.75472 0.108186,0.10817 0.195774,0.06 0.392125,-0.21577 z m 19.791947,-0.30255 c -0.18159,-0.28776 -0.45727,-0.4271 -0.45727,-0.2311 0,0.0599 0.0856,0.24732 0.19011,0.41651 0.15314,0.24778 0.21489,0.28705 0.31748,0.20189 0.10839,-0.09 0.10085,-0.14767 -0.0503,-0.3873 z m -20.169931,0.0841 c 0.207684,-0.305 0.201537,-0.50121 -0.01569,-0.50121 -0.144739,0 -0.459105,0.58947 -0.38141,0.71518 0.09701,0.15698 0.172028,0.11656 0.397109,-0.21397 z m 20.662451,0.0393 c 0.0904,-0.14624 -0.30602,-0.71987 -0.45735,-0.6618 -0.17008,0.0653 -0.16547,0.10883 0.0488,0.46015 0.18387,0.30158 0.30878,0.36321 0.40862,0.20165 z m -21.010638,-0.31295 c 0.19222,-0.31104 0.181943,-0.50072 -0.02689,-0.49641 -0.104162,0.002 -0.423873,0.54855 -0.423873,0.72437 0,0.20035 0.27065,0.0635 0.450778,-0.22796 z m 21.367228,0.14009 c 0.0714,-0.11556 -0.23092,-0.72908 -0.35928,-0.72908 -0.20416,0 -0.2138,0.11799 -0.0378,0.46299 0.17731,0.34755 0.29711,0.42783 0.39707,0.26609 z m -21.733353,-0.35646 c 0.165793,-0.32499 0.165206,-0.46299 -0.0021,-0.46299 -0.0857,0 -0.44411,0.57378 -0.44411,0.71096 0,0.23322 0.280011,0.0776 0.446095,-0.24797 z m 22.108003,0.13251 c 0.0674,-0.17579 -0.21004,-0.68585 -0.37314,-0.68585 -0.17187,0 -0.16794,0.10171 0.0191,0.49391 0.16168,0.33906 0.27421,0.40006 0.35407,0.19194 z m -22.471623,-0.28617 c 0.190951,-0.32364 0.183459,-0.49004 -0.02209,-0.49004 -0.144739,0 -0.459106,0.58947 -0.38141,0.71519 0.103415,0.16726 0.205635,0.1102 0.403491,-0.22515 z m 22.865073,0.0296 c -0.002,-0.0621 -0.0734,-0.24348 -0.15859,-0.40304 -0.11555,-0.21652 -0.18822,-0.26943 -0.28658,-0.20864 -0.11425,0.0707 -0.11137,0.12417 0.0216,0.40303 0.14623,0.30666 0.43157,0.44722 0.42357,0.20865 z m -23.266131,-0.24401 c 0.190727,-0.36881 0.176597,-0.4316 -0.133148,-0.59178 -0.267387,-0.13827 -0.273438,-0.13618 -0.451464,0.1558 -0.214536,0.35188 -0.230086,0.52186 -0.04771,0.52186 0.07332,0 0.213875,-0.15248 0.312264,-0.33885 0.0984,-0.18637 0.179243,-0.29818 0.17967,-0.24849 4.51e-4,0.0497 -0.05731,0.19202 -0.128336,0.31626 -0.167663,0.29328 -0.168474,0.4518 -0.0021,0.4518 0.07332,0 0.195262,-0.11997 0.271079,-0.2666 z m 23.661811,0.10847 c 0.0711,-0.11724 -0.22471,-0.74547 -0.35104,-0.74547 -0.20752,0 -0.23012,0.15666 -0.0708,0.49078 0.14358,0.30107 0.32664,0.4116 0.42183,0.25469 z m 0.69075,-0.35837 c 0.14751,-0.12631 0.14918,-0.16358 0.0218,-0.48783 -0.13889,-0.35357 -0.3456,-0.45959 -0.43613,-0.22368 -0.0269,0.0701 0.018,0.25682 0.0999,0.41502 0.0819,0.15819 0.12779,0.30857 0.10224,0.33417 -0.0256,0.0256 -0.10785,-0.10021 -0.18278,-0.27947 -0.0749,-0.17931 -0.19928,-0.32603 -0.27637,-0.32603 -0.17514,0 -0.17535,0.0744 -0.001,0.49099 0.11401,0.27283 0.17235,0.32169 0.32593,0.27295 0.10288,-0.0326 0.25893,-0.1209 0.34678,-0.19612 z M 89.292769,123.6324 c 0.167546,-0.32842 0.165358,-0.46299 -0.0075,-0.46299 -0.102882,0 -0.443289,0.68805 -0.374463,0.75688 0.116724,0.11672 0.208528,0.0461 0.381976,-0.29389 z m -0.356746,-0.14508 c 0.193181,-0.31257 0.181986,-0.49863 -0.02999,-0.49863 -0.152573,0 -0.447931,0.52175 -0.386288,0.68238 0.08047,0.20967 0.207931,0.1534 0.416309,-0.18375 z m 25.883107,0.0532 c 0.0815,-0.13186 -0.211,-0.73247 -0.35671,-0.73247 -0.17238,0 -0.17104,0.20907 0.003,0.54664 0.13927,0.26934 0.26175,0.33378 0.35318,0.18583 z m -26.248786,-0.33724 c 0.106297,-0.18021 0.181495,-0.33551 0.167055,-0.34511 -0.01441,-0.01 -0.180801,-0.10598 -0.369681,-0.21417 l -0.343427,-0.1967 -0.16999,0.37968 c -0.09349,0.20883 -0.150022,0.41198 -0.125625,0.45146 0.09947,0.16104 0.280279,0.0529 0.42744,-0.25568 0.08591,-0.1801 0.180247,-0.30335 0.209692,-0.2739 0.02945,0.0295 -0.01291,0.15504 -0.09424,0.27908 -0.08132,0.12405 -0.14778,0.28797 -0.14778,0.36426 0,0.25062 0.249488,0.14507 0.446543,-0.18892 z m 26.624616,0.1123 c 0.0264,-0.0687 -0.0133,-0.27165 -0.0881,-0.45088 -0.0969,-0.23184 -0.17673,-0.31033 -0.27671,-0.27197 -0.1718,0.066 -0.17204,0.0426 0.005,0.48456 0.14955,0.37377 0.27599,0.45743 0.36009,0.23829 z m 0.39817,-0.2623 c 0,-0.14813 -0.21047,-0.69722 -0.26664,-0.69565 -0.0273,7.4e-4 -0.10032,0.0335 -0.16218,0.0729 -0.1615,0.10257 0.12876,0.8348 0.30422,0.76748 0.0685,-0.0263 0.1246,-0.0914 0.1246,-0.14469 z m -27.830932,-0.2899 c 0.192264,-0.58259 -0.160961,-0.70762 -0.385337,-0.1364 -0.130289,0.33167 -0.129723,0.36788 0.0075,0.44437 0.197845,0.11071 0.255775,0.0636 0.37839,-0.30797 z m 28.213022,0.17462 c 0.07,-0.07 -0.20994,-0.76247 -0.30828,-0.76247 -0.15814,0 -0.17418,0.26072 -0.0329,0.534 0.13975,0.27026 0.23532,0.33426 0.34113,0.22847 z m -28.633578,-0.41853 c 0.116574,-0.29677 0.124451,-0.39444 0.03629,-0.45042 -0.188901,-0.11996 -0.222583,-0.0881 -0.3222,0.30433 -0.160214,0.63119 0.05262,0.73994 0.285903,0.14609 z m 29.018248,0.2003 c 0.0654,-0.10587 -0.11382,-0.81591 -0.2055,-0.81393 -0.0353,7e-4 -0.12265,0.0383 -0.19398,0.0835 -0.11089,0.0702 -0.11206,0.13547 -0.009,0.45041 0.11588,0.3511 0.28983,0.47064 0.40761,0.28007 z m -32.482988,-0.12501 c 0,-0.0676 -0.02583,-0.3117 -0.05752,-0.54241 -0.0572,-0.41704 -0.06211,-0.42214 -0.846545,-0.87104 -0.433982,-0.24834 -0.875724,-0.45154 -0.981635,-0.45154 -0.105871,0 -0.182425,-0.0508 -0.170002,-0.11294 0.01644,-0.0821 -0.197663,-0.12015 -0.783493,-0.13929 -0.884581,-0.0289 -1.179641,0.0223 -0.953397,0.16535 0.07311,0.0462 0.295658,0.0894 0.494442,0.0959 0.198794,0.006 0.29029,0.0304 0.203309,0.0531 -0.08698,0.0227 -0.158122,0.0703 -0.158122,0.10576 0,0.0813 2.987235,1.80778 3.139989,1.81475 0.06211,0.003 0.112957,-0.0502 0.112957,-0.11778 z m 3.176116,-0.55149 c 0.04109,-0.23061 -0.251655,-0.30115 -0.316309,-0.0762 -0.02956,0.10298 -0.04077,0.0807 -0.0302,-0.0604 0.01067,-0.14295 -0.03597,-0.23418 -0.129316,-0.25279 -0.207504,-0.0414 -0.385787,0.6513 -0.206042,0.80048 0.09797,0.0813 0.143587,0.0578 0.214824,-0.1104 0.07417,-0.17509 0.08687,-0.18102 0.07097,-0.0329 -0.01078,0.0994 0.01772,0.24026 0.06329,0.31302 0.06585,0.10512 0.10523,0.0773 0.191986,-0.13554 0.06009,-0.14731 0.123437,-0.34769 0.140843,-0.44528 z m 29.667522,0.18858 c -0.10417,-0.51957 -0.14008,-0.59027 -0.27362,-0.53902 -0.15513,0.0596 -0.16056,0.14647 -0.0369,0.59161 0.0675,0.24297 0.1306,0.32039 0.23007,0.28221 0.10042,-0.0385 0.12195,-0.12799 0.0805,-0.3348 z m 5.08547,-0.75513 c 0.90734,-0.51853 1.62669,-0.98003 1.59855,-1.02558 -0.0282,-0.0456 0.0505,-0.0828 0.17472,-0.0828 0.12425,0 0.24987,-0.0387 0.27916,-0.0861 0.0312,-0.0504 -0.20133,-0.0994 -0.55942,-0.11784 -0.60566,-0.0313 -0.60387,-0.0319 0.15539,-0.0508 0.75022,-0.0187 1.20048,-0.13366 0.90106,-0.2302 -0.0731,-0.0236 -0.194,-0.0632 -0.26855,-0.088 -0.0746,-0.0249 0.0983,-0.0485 0.38404,-0.0523 0.28576,-0.004 0.51956,-0.0478 0.51956,-0.0975 0,-0.12943 -2.04946,-0.1197 -2.1297,0.01 -0.0342,0.0553 -0.006,0.13596 0.0624,0.17934 0.0822,0.0521 -0.007,0.0793 -0.26484,0.0803 -0.23626,8.2e-4 -0.36741,0.0369 -0.33352,0.0918 0.0307,0.0497 -0.01,0.0904 -0.0888,0.0904 -0.19278,0 -2.31995,1.1542 -2.46382,1.33687 -0.11546,0.1466 -0.159,1.02667 -0.0559,1.12977 0.069,0.0691 0.0391,0.0846 2.08965,-1.08718 z m -37.530024,0.8557 c -0.0043,-0.0863 -0.0143,-0.30218 -0.02263,-0.47977 -0.01185,-0.25472 -0.04845,-0.31646 -0.173181,-0.29244 -0.08698,0.0168 -0.154739,0.10107 -0.150598,0.18735 0.0043,0.0863 0.0143,0.30218 0.02263,0.47977 0.01185,0.25472 0.04845,0.31646 0.173191,0.29244 0.08698,-0.0168 0.154739,-0.10107 0.150598,-0.18735 z m 32.851864,-0.32468 c -0.002,-0.41281 -0.10246,-0.5789 -0.30417,-0.50151 -0.15214,0.0584 -0.15199,0.23336 5.7e-4,0.77763 0.0785,0.28017 0.30497,0.0742 0.3035,-0.27612 z m -32.391628,0.25668 c 0.03116,-0.0505 0.09456,-0.0684 0.140876,-0.0398 0.04632,0.0286 0.134941,0.0202 0.197065,-0.0187 0.139425,-0.0873 0.354207,-0.097 0.474388,-0.0216 0.175102,0.10994 0.576833,0.17175 0.623674,0.0959 0.02604,-0.0422 0.07513,-0.24976 0.108912,-0.46126 0.05518,-0.34517 0.04397,-0.38119 -0.109649,-0.35179 -0.113255,0.0217 -0.191526,0.13936 -0.23143,0.34797 l -0.0603,0.31524 0.01473,-0.36029 c 0.01131,-0.27811 -0.02124,-0.3672 -0.14302,-0.39065 -0.11173,-0.0216 -0.160342,0.0308 -0.166725,0.17956 -0.0085,0.20763 -0.0096,0.20746 -0.07577,-0.016 -0.03938,-0.13333 -0.119029,-0.21133 -0.194301,-0.19036 -0.07012,0.0195 -0.21903,0.0302 -0.330855,0.0236 -0.161569,-0.01 -0.205828,0.0388 -0.215614,0.23555 -0.01067,0.21304 -0.01772,0.21919 -0.05144,0.0442 -0.02444,-0.12711 -0.10459,-0.20331 -0.213598,-0.20331 -0.138314,0 -0.174429,0.0639 -0.174429,0.30887 0,0.16987 0.02465,0.37318 0.05486,0.4518 0.06169,0.16086 0.266511,0.19053 0.35268,0.0511 z m 34.814858,-0.38171 c -0.0211,-0.36599 -0.0632,-0.48037 -0.18544,-0.50361 -0.13321,-0.0253 -0.15814,0.0398 -0.15814,0.4133 0,0.46751 0.0419,0.56385 0.24569,0.56385 0.0942,0 0.11844,-0.11709 0.0979,-0.47354 z m -1.88107,-0.0913 c -0.002,-0.46086 -0.0958,-0.63631 -0.29951,-0.55814 -0.27442,0.10533 -0.15832,0.94217 0.13071,0.94217 0.14019,0 0.16994,-0.0677 0.1688,-0.38403 z m 1.39066,0.1016 c 0.0311,-0.1553 0.0565,-0.35427 0.0565,-0.44213 0,-0.19916 -0.27589,-0.31642 -0.37542,-0.15957 -0.0888,0.14 -0.10054,0.7394 -0.0161,0.82384 0.13796,0.13796 0.28218,0.0424 0.33508,-0.22214 z m -1.02783,-0.25978 c 0,-0.39921 -0.0222,-0.4518 -0.19039,-0.4518 -0.13649,0 -0.17487,0.0404 -0.13554,0.14293 0.0302,0.0786 0.0549,0.28192 0.0549,0.4518 0,0.2143 0.0415,0.30886 0.13554,0.30886 0.10234,0 0.13554,-0.11044 0.13554,-0.45179 z m 0.5248,-0.0304 c 0.0261,-0.40952 0.0155,-0.43361 -0.18073,-0.40581 -0.16303,0.0232 -0.21485,0.0955 -0.2375,0.33184 -0.0382,0.39905 0.038,0.57625 0.232,0.53941 0.11992,-0.0227 0.16516,-0.13582 0.18623,-0.46544 z m -37.436713,-1.32502 c 0.118229,-0.0508 -0.12396,-0.0798 -0.70028,-0.084 -0.531336,-0.004 -0.881006,0.0296 -0.881006,0.084 0,0.1105 1.324134,0.1105 1.581286,0 z m -0.431336,-0.3066 c 0.135999,-0.136 -0.137941,-0.18444 -0.90519,-0.16007 -0.87663,0.0279 -0.998338,0.0598 -0.784303,0.20568 0.136852,0.0933 1.589802,0.0541 1.689493,-0.0456 z m -0.622809,-0.30895 c 0.240695,-0.0841 -0.108132,-0.19458 -0.662681,-0.20988 -0.534377,-0.0147 -0.53633,-0.0157 -0.135539,-0.0691 0.265774,-0.0354 0.365999,-0.0805 0.28936,-0.12996 -0.158314,-0.10224 -2.006378,-0.18524 -2.005492,-0.0901 0.0011,0.11659 0.455925,0.30052 0.762777,0.30846 0.151612,0.004 0.224569,0.0277 0.162146,0.0529 -0.06243,0.0252 -0.0889,0.0856 -0.0588,0.13426 0.05304,0.0858 1.404306,0.0886 1.648256,0.003 z m 45.375538,-0.2826 c 0,-0.0467 -0.15248,-0.10085 -0.33885,-0.12034 -0.23014,-0.0241 -0.15938,-0.0403 0.22056,-0.0506 0.55663,-0.0151 0.92579,-0.1959 0.40004,-0.1959 -0.45632,0 -0.39996,-0.15994 0.0796,-0.22589 0.24854,-0.0341 0.45179,-0.0888 0.45167,-0.12144 -9e-5,-0.0326 -0.23392,-0.1809 -0.51956,-0.32953 -0.28565,-0.14863 -0.90564,-0.47641 -1.37778,-0.72841 -0.47212,-0.25198 -1.54966,-0.81769 -2.39452,-1.25712 -0.84487,-0.43942 -1.61632,-0.85373 -1.71435,-0.92065 -0.098,-0.0669 -0.2562,-0.12171 -0.3515,-0.12171 -0.15651,0 -0.16816,0.0493 -0.12063,0.50985 0.0289,0.28042 0.0855,0.53978 0.1256,0.57635 0.0401,0.0366 1.05752,0.58875 2.26087,1.22704 l 2.1879,1.16055 -0.26776,0.16065 c -0.14726,0.0884 -0.39991,0.2413 -0.56143,0.33986 l -0.29367,0.1792 1.10691,0.001 c 0.63137,9.1e-4 1.1069,-0.0349 1.1069,-0.0834 z m -45.018546,-0.76102 c 0.383438,-0.21677 1.08344,-0.60069 1.555576,-0.85313 2.273477,-1.21567 2.107435,-1.09418 2.226134,-1.62871 0.08847,-0.39829 0.08517,-0.48762 -0.01964,-0.52783 -0.06937,-0.0266 -1.088414,0.4742 -2.264533,1.11296 -1.17613,0.63874 -2.55574,1.38502 -3.065806,1.65839 -0.510066,0.27337 -0.957847,0.52752 -0.995083,0.56475 -0.03725,0.0373 0.367429,0.0677 0.899266,0.0677 h 0.966962 z m 5.423903,-2.15853 c 0.02412,-0.29099 0.0021,-0.33885 -0.158133,-0.33885 -0.147364,0 -0.188656,0.0613 -0.198069,0.29368 l -0.01185,0.29367 -0.05592,-0.30909 c -0.05998,-0.33168 -0.274921,-0.49204 -0.292253,-0.21801 -0.0096,0.15124 -0.01409,0.1519 -0.05176,0.007 -0.02273,-0.087 -0.07898,-0.15813 -0.125059,-0.15813 -0.046,0 -0.113832,-0.0107 -0.15062,-0.0226 -0.03682,-0.0124 -0.09498,0.0994 -0.129424,0.24849 -0.06115,0.26506 -0.06222,0.26408 -0.0461,-0.0438 0.01185,-0.22646 -0.02444,-0.3228 -0.129146,-0.34306 -0.105977,-0.0205 -0.160567,0.0638 -0.200524,0.31014 -0.06169,0.38038 -0.05966,0.38545 0.175785,0.43322 0.0937,0.019 0.241516,0.0627 0.328486,0.0972 0.122732,0.0486 0.159723,0.0149 0.165262,-0.15035 0.0064,-0.19777 0.02615,-0.1729 0.131345,0.16745 0.02017,0.0651 0.172519,0.10171 0.376874,0.0904 0.327237,-0.0181 0.344356,-0.0346 0.371111,-0.35784 z m 0.482467,0 c 0.01259,-0.27333 0.01612,-0.27646 0.05123,-0.0451 0.02679,0.17671 0.0904,0.24848 0.220299,0.24848 0.164611,0 0.176394,-0.038 0.119222,-0.38402 -0.0778,-0.47063 -0.09104,-0.48627 -0.280396,-0.32914 -0.08335,0.0692 -0.226682,0.1131 -0.318443,0.0975 -0.139478,-0.0236 -0.166842,0.0319 -0.166842,0.33885 0,0.30688 0.02967,0.36712 0.180716,0.36712 0.140876,0 0.183704,-0.0648 0.194259,-0.29368 z m 32.046406,-0.27565 c -0.0432,-0.43313 -0.25336,-0.4192 -0.25336,0.0168 0,0.29396 0.0276,0.35551 0.1404,0.31225 0.094,-0.0361 0.13134,-0.1448 0.11296,-0.32905 z m -31.27239,-0.0707 c -0.05678,-0.42352 -0.118635,-0.51687 -0.253203,-0.3823 -0.139477,0.13946 -0.0053,0.75121 0.165305,0.75121 0.108581,0 0.127001,-0.0774 0.08794,-0.36891 z m 30.41992,0.1656 c 0.0962,-0.35866 0.0637,-0.60993 -0.0785,-0.60993 -0.0746,0 -0.13554,0.0559 -0.13554,0.12425 0,0.0683 -0.0254,0.25131 -0.0564,0.40662 -0.0433,0.21641 -0.0247,0.28237 0.0798,0.28237 0.0749,0 0.16081,-0.0915 0.19078,-0.20331 z m 0.44362,-0.0904 c 0.0442,-0.2838 -0.054,-0.52091 -0.1684,-0.40652 -0.0307,0.0307 -0.0754,0.20081 -0.0992,0.378 -0.058,0.43025 0.20077,0.45782 0.26763,0.0285 z m 0.87837,-0.0678 c 0,-0.26103 -0.0377,-0.36143 -0.13554,-0.36143 -0.0979,0 -0.13554,0.10043 -0.13554,0.36143 0,0.26105 0.0377,0.36144 0.13554,0.36144 0.0979,0 0.13554,-0.10042 0.13554,-0.36144 z m 0.34405,-0.0748 c 0.0216,-0.29295 -0.003,-0.377 -0.11296,-0.377 -0.10694,0 -0.14074,0.0995 -0.14074,0.41415 0,0.5333 0.21396,0.50197 0.2537,-0.0371 z m -31.608979,0.17808 c -0.0021,-0.24387 -0.211356,-0.74007 -0.298955,-0.70898 -0.100321,0.0356 -0.111996,0.50566 -0.01889,0.7623 0.03949,0.10878 0.318838,0.0619 0.317845,-0.0534 z m 29.588509,-0.23856 c 0.059,-0.39325 0.0202,-0.5876 -0.11736,-0.5876 -0.0911,0 -0.29962,0.80602 -0.23535,0.91001 0.13005,0.21042 0.29549,0.0592 0.35271,-0.32241 z m 2.46801,-0.007 c 0.0259,-0.29072 -0.0931,-0.54148 -0.21977,-0.46317 -0.11994,0.0741 -0.0309,0.80172 0.0932,0.76107 0.0567,-0.0186 0.11365,-0.15264 0.12659,-0.2979 z m -31.671832,0.0897 c 0.05795,-0.0581 -0.09595,-0.57834 -0.20792,-0.70281 -0.160086,-0.17791 -0.245871,0.0388 -0.155796,0.3937 0.08335,0.3286 0.224387,0.44842 0.363716,0.30911 z m 28.773742,-0.35171 c 0.0509,-0.22251 0.0713,-0.42582 0.0453,-0.4518 -0.13796,-0.13796 -0.2778,-0.003 -0.36782,0.35422 -0.12922,0.51317 -0.13063,0.50215 0.0643,0.50215 0.122,0 0.18983,-0.1063 0.25807,-0.40457 z m -28.344691,0.0805 c 0,-0.0186 -0.06435,-0.19459 -0.143063,-0.39124 -0.09616,-0.24033 -0.185028,-0.34143 -0.271079,-0.30841 -0.160641,0.0617 -0.160278,0.1391 0.0021,0.52875 0.09232,0.22094 0.171698,0.29664 0.271079,0.25851 0.07727,-0.0297 0.140534,-0.069 0.140534,-0.0876 z m 27.923701,-0.36507 c 0.0806,-0.35744 0.002,-0.55527 -0.17543,-0.4452 -0.054,0.0334 -0.0988,0.14979 -0.0996,0.25868 -8.5e-4,0.1089 -0.0391,0.25761 -0.0852,0.33049 -0.0535,0.0845 -0.0478,0.17587 0.0156,0.25232 0.1346,0.16218 0.24809,0.0317 0.34461,-0.39629 z m -27.536015,0.18099 c 0.07268,-0.0728 -0.274537,-0.75687 -0.384185,-0.75687 -0.164547,0 -0.18063,0.16726 -0.04685,0.48738 0.12587,0.30127 0.294099,0.40645 0.431047,0.26949 z m 27.084015,-0.35878 c 0.0977,-0.34891 0.0961,-0.42758 -0.01,-0.49321 -0.15205,-0.094 -0.20985,-0.0367 -0.33122,0.32787 -0.091,0.27359 -0.0112,0.58049 0.15095,0.58049 0.0408,0 0.12643,-0.18681 0.19035,-0.41515 z m -26.658464,0.0396 c 0,-0.18481 -0.282979,-0.61836 -0.403609,-0.61836 -0.26269,0 -0.241623,0.21527 0.06809,0.69634 0.07673,0.11918 0.335476,0.059 0.335476,-0.078 z m 26.195444,-0.18004 c 0.13467,-0.3863 0.12469,-0.61905 -0.0266,-0.61905 -0.14059,0 -0.44902,0.6874 -0.36757,0.8192 0.10672,0.17268 0.29799,0.0756 0.3941,-0.20015 z m -25.834002,-0.0362 c 0,-0.26698 -0.266383,-0.66934 -0.407334,-0.61526 -0.166403,0.0638 -0.167001,0.0492 0.0175,0.43596 0.155059,0.32517 0.389884,0.43316 0.389884,0.1793 z m 25.420522,-0.26152 c 0.11801,-0.34635 0.11918,-0.41617 0.009,-0.50803 -0.1047,-0.0869 -0.1533,-0.0466 -0.26386,0.21792 -0.16373,0.39186 -0.16616,0.44418 -0.0271,0.58323 0.14431,0.1443 0.12749,0.16175 0.28249,-0.29312 z M 89.814084,114.5411 c -0.08314,-0.17443 -0.185785,-0.31716 -0.228005,-0.31716 -0.177354,0 -0.178859,0.1336 -0.0053,0.47373 0.134846,0.26433 0.211015,0.33417 0.284377,0.2608 0.07343,-0.0733 0.05966,-0.18515 -0.05101,-0.41737 z m 24.750136,0.0789 c 0.13437,-0.32159 0.11717,-0.57679 -0.0389,-0.57679 -0.10309,0 -0.38809,0.72377 -0.3251,0.8257 0.0985,0.15935 0.23136,0.0685 0.36397,-0.24891 z m -24.181426,0.10395 c 0,-0.0232 -0.06852,-0.18581 -0.152273,-0.36143 -0.141655,-0.29704 -0.389884,-0.43996 -0.389884,-0.22449 0,0.1965 0.280982,0.62803 0.408934,0.62803 0.07332,0 0.133223,-0.019 0.133223,-0.0422 z m 23.765546,-0.34191 c 0.19503,-0.31992 0.19171,-0.46039 -0.0119,-0.49991 -0.12215,-0.0237 -0.35057,0.42394 -0.35057,0.68703 0,0.20108 0.18351,0.1063 0.36241,-0.18712 z m -23.421468,0.12559 c 0.0936,-0.0593 0.0777,-0.14362 -0.07673,-0.40523 -0.206415,-0.34987 -0.332157,-0.41174 -0.412296,-0.20291 -0.05176,0.13498 0.194398,0.68681 0.305369,0.68447 0.03597,-7.1e-4 0.118624,-0.0351 0.183629,-0.0763 z m 23.028158,-0.32069 c 0.14339,-0.30069 0.12021,-0.59555 -0.0469,-0.59555 -0.11011,0 -0.39228,0.71072 -0.32523,0.81919 0.0988,0.15983 0.22549,0.0837 0.37204,-0.22364 z m -22.559001,0.0283 c 0,-0.17151 -0.305103,-0.62387 -0.420768,-0.62387 -0.19713,0 -0.206159,0.1421 -0.02764,0.43559 0.167864,0.27603 0.448442,0.39384 0.448442,0.18828 z m 22.139681,-0.26553 c 0.17742,-0.34777 0.17563,-0.53907 -0.005,-0.53907 -0.0458,0 -0.16898,0.16817 -0.27384,0.37371 -0.15442,0.30269 -0.16764,0.38827 -0.0696,0.45041 0.0666,0.0422 0.13037,0.0774 0.14179,0.0781 0.0114,7.3e-4 0.10448,-0.16266 0.20673,-0.36315 z m -21.751996,0.12745 c 0.03095,-0.0311 -0.02337,-0.21265 -0.120811,-0.40367 -0.120705,-0.23659 -0.220268,-0.33074 -0.312381,-0.2954 -0.166842,0.064 -0.167418,0.0493 0.01708,0.43611 0.143373,0.30065 0.287419,0.39168 0.416137,0.26296 z m 21.299616,-0.32767 c 0.34718,-0.56942 0.10384,-0.74881 -0.25812,-0.19027 -0.17007,0.26242 -0.18792,0.34229 -0.0904,0.40411 0.16518,0.1047 0.14775,0.11538 0.34849,-0.21384 z m -20.874513,-0.01 c -8.19e-4,-0.18546 -0.41696,-0.63219 -0.526085,-0.56474 -0.159883,0.0988 0.21459,0.78772 0.391314,0.7199 0.07439,-0.0285 0.135016,-0.0984 0.134771,-0.15516 z m 20.513053,-0.26142 c 0.18519,-0.30377 0.19265,-0.43996 0.0271,-0.49514 -0.0939,-0.0313 -0.4799,0.53464 -0.4799,0.70361 0,0.19579 0.28683,0.0637 0.45276,-0.20847 z m -20.105613,0.11233 c 0.07524,-0.12175 -0.294772,-0.6319 -0.458326,-0.6319 -0.180513,0 -0.161399,0.15304 0.05752,0.46044 0.19618,0.27551 0.307194,0.32299 0.400845,0.17146 z m 19.693423,-0.30158 c 0.27247,-0.35723 0.28343,-0.42087 0.0724,-0.4201 -0.14513,5.3e-4 -0.47439,0.44422 -0.47439,0.63926 0,0.17085 0.17896,0.0733 0.40202,-0.21916 z m -19.287178,0.0622 c 0,-0.0326 -0.106297,-0.19867 -0.23633,-0.36908 -0.308037,-0.40386 -0.514687,-0.26297 -0.220427,0.15028 0.174888,0.2456 0.456757,0.38063 0.456757,0.2188 z m 18.925908,-0.27626 c 0.14621,-0.21517 0.19675,-0.36674 0.14092,-0.42256 -0.15711,-0.15712 -0.70906,0.47229 -0.58714,0.66957 0.0981,0.15864 0.21429,0.0942 0.44622,-0.24701 z m -18.622684,0.0855 c 0.02359,-0.0381 -0.06948,-0.20689 -0.206799,-0.3751 -0.300866,-0.36862 -0.429639,-0.25265 -0.17174,0.15468 0.1819,0.28729 0.296105,0.3538 0.378539,0.22042 z m 18.205564,-0.34889 c 0.30361,-0.46852 0.11677,-0.59302 -0.24015,-0.16002 -0.15325,0.18591 -0.2578,0.37173 -0.23234,0.41293 0.0956,0.15469 0.26823,0.0623 0.47249,-0.25291 z m -17.815702,0.1674 c 0.07375,-0.047 0.02764,-0.16258 -0.15254,-0.38264 -0.178763,-0.21827 -0.287418,-0.28658 -0.352893,-0.22185 -0.06574,0.065 -0.03298,0.18167 0.107364,0.38247 0.218058,0.31197 0.238635,0.32344 0.398069,0.22202 z m 17.458542,-0.39288 c 0.16089,-0.20345 0.18929,-0.29818 0.11246,-0.37502 -0.0768,-0.0768 -0.17024,-0.0239 -0.36971,0.20943 -0.31078,0.36357 -0.33336,0.44965 -0.11613,0.44279 0.087,-0.003 0.255,-0.12749 0.37338,-0.2772 z m -16.979383,0.12407 c -0.0011,-0.0372 -0.120811,-0.21008 -0.265497,-0.38403 -0.202936,-0.24397 -0.287717,-0.29184 -0.370951,-0.20944 -0.08346,0.0826 -0.05923,0.1684 0.107364,0.37903 0.194312,0.24574 0.535157,0.38388 0.529084,0.21444 z m 16.756433,-0.65378 c -0.12243,-0.12242 -0.71732,0.48152 -0.62362,0.63312 0.0458,0.0742 0.16823,0.006 0.39117,-0.21658 0.22028,-0.22028 0.29493,-0.35405 0.23245,-0.41654 z m -16.437094,0.44941 c 0.06862,-0.11103 -0.316916,-0.61946 -0.475039,-0.62646 -0.170053,-0.007 -0.135977,0.21244 0.07428,0.4798 0.199659,0.25382 0.309617,0.29406 0.400717,0.14666 z m 15.875104,-0.24174 c 0.31116,-0.29813 0.3167,-0.4049 0.028,-0.53883 -0.19596,-0.0909 -0.26681,-0.07 -0.56404,0.16595 -0.18696,0.14845 -0.35592,0.28576 -0.37546,0.30513 -0.0195,0.0193 0.0339,0.0619 0.1189,0.0944 0.10459,0.0401 0.25461,-0.0379 0.46473,-0.24151 0.17067,-0.16541 0.31031,-0.25507 0.31031,-0.19922 0,0.0558 -0.1016,0.18149 -0.2259,0.27921 -0.23914,0.18811 -0.29829,0.37759 -0.1179,0.37759 0.0595,0 0.22205,-0.10926 0.36144,-0.24281 z m -15.469136,-0.0619 c 0,-0.0623 -0.12079,-0.22902 -0.268411,-0.37046 -0.235945,-0.22604 -0.275615,-0.23837 -0.327995,-0.10182 -0.03938,0.10278 0.02551,0.24405 0.191879,0.41775 0.24681,0.25763 0.404527,0.2789 0.404527,0.0545 z m 14.813316,-0.32964 c 0.17083,-0.14604 0.28571,-0.29042 0.2553,-0.32083 -0.14377,-0.14377 -0.8589,0.32169 -0.75429,0.49096 0.0911,0.14752 0.15148,0.12696 0.49899,-0.17013 z m -14.50561,0.10598 c 0.07236,-0.1171 -0.45824,-0.58531 -0.57886,-0.51076 -0.07182,0.0444 -0.02604,0.14753 0.145102,0.32612 0.261431,0.27287 0.354697,0.31258 0.433758,0.18464 z m 14.2075,-0.38298 c 0.27262,-0.16849 0.33697,-0.35373 0.12288,-0.35373 -0.16317,0 -0.72061,0.38208 -0.67206,0.46065 0.0776,0.12559 0.21682,0.0985 0.54918,-0.10692 z m -13.84863,0.0257 c 0.04109,-0.0665 -0.5022,-0.56014 -0.616576,-0.56014 -0.115379,0 -0.03618,0.22897 0.146468,0.42338 0.19968,0.21255 0.38919,0.26769 0.470108,0.13676 z m 13.55479,-0.29498 c 0.2009,-0.11854 0.29817,-0.23393 0.26657,-0.31625 -0.0627,-0.16359 -0.0498,-0.16539 -0.43186,0.06 -0.32073,0.18924 -0.37502,0.26878 -0.26117,0.38263 0.0811,0.0811 0.0683,0.085 0.42646,-0.12639 z m -13.569881,-0.32917 c -0.25619,-0.20985 -0.47077,-0.26603 -0.47077,-0.12326 0,0.0461 0.131025,0.18635 0.291165,0.31167 0.373768,0.29252 0.546074,0.11176 0.179605,-0.18841 z m 13.362901,-0.091 c 0.14434,-0.0853 0.26243,-0.20725 0.26243,-0.27108 0,-0.13458 -0.10694,-0.15123 -0.23042,-0.0359 -0.0472,0.0441 -0.18749,0.1064 -0.31174,0.13842 -0.15402,0.0397 -0.11809,-8.7e-4 0.11295,-0.12754 0.18637,-0.10214 0.33885,-0.24578 0.33885,-0.31914 0,-0.17637 -0.0777,-0.16798 -0.4292,0.0463 -0.31321,0.19096 -0.32066,0.20734 -0.23673,0.52055 0.0654,0.244 0.14875,0.25215 0.49386,0.0483 z m -12.930071,-0.14994 c 0,-0.0624 -0.15825,-0.20251 -0.351666,-0.3112 -0.285657,-0.16056 -0.360834,-0.17375 -0.400524,-0.0703 -0.04995,0.13022 0.115539,0.31544 0.434003,0.48567 0.199072,0.10641 0.318187,0.0674 0.318187,-0.10416 z m 0.134675,-0.32617 c 0.05784,-0.0936 -0.460396,-0.45227 -0.65425,-0.45285 -0.201623,-6.2e-4 -0.119755,0.15827 0.180727,0.35071 0.333576,0.21363 0.396266,0.22715 0.473523,0.10213 z m 12.572776,-0.27984 c 0.29008,-0.17928 0.39932,-0.35407 0.22129,-0.35407 -0.16412,0 -0.63871,0.31864 -0.63926,0.42921 -8.5e-4,0.15483 0.065,0.14301 0.41797,-0.0751 z m -10.657753,-1.03849 c 1.034518,-0.57522 1.913902,-1.07782 1.954179,-1.11688 0.04024,-0.0391 0.05987,-0.26986 0.04354,-0.51286 l -0.02978,-0.44181 -0.103096,0.31626 c -0.09605,0.29465 -0.103629,0.29964 -0.111259,0.0731 -0.01185,-0.35199 -0.181164,-0.40529 -0.246693,-0.0777 -0.0445,0.22224 -0.08058,0.25788 -0.178752,0.17639 -0.09627,-0.0799 -0.141633,-0.0557 -0.208592,0.1115 -0.06275,0.15679 -0.08709,0.17155 -0.09125,0.0555 -0.0064,-0.16322 -0.186446,-0.22885 -0.186446,-0.0678 0,0.0497 -0.06105,0.0904 -0.13554,0.0904 -0.0746,0 -0.135539,0.043 -0.135539,0.0957 0,0.0526 -0.03671,0.073 -0.08143,0.0453 -0.04482,-0.0277 -0.298944,0.0651 -0.56474,0.20624 -0.985564,0.52328 -2.606701,1.4789 -2.606071,1.53623 5.37e-4,0.046 0.710536,0.54845 0.784015,0.55478 0.0096,7.9e-4 0.863024,-0.4692 1.897552,-1.04442 z m 10.633753,0.58563 c 0.51548,-0.32363 0.55421,-0.27234 -0.7108,-0.94149 -0.44728,-0.23659 -1.54515,-0.82465 -2.43971,-1.3068 -2.93616,-1.58253 -3.1246,-1.67216 -3.21707,-1.53021 -0.0457,0.07 -0.0724,0.303 -0.0594,0.51767 l 0.0236,0.39029 1.67165,0.90159 c 0.91942,0.49587 2.13927,1.15001 2.71079,1.45363 0.57153,0.30362 1.11934,0.60668 1.21738,0.67344 0.24583,0.16743 0.30304,0.15617 0.80364,-0.15812 z m -8.27411,-2.41586 c 0.0148,-0.30713 -0.0113,-0.55758 -0.0581,-0.55758 -0.1201,0 -0.160998,0.15555 -0.186708,0.71023 -0.01718,0.36968 0.0064,0.47493 0.09776,0.44462 0.0785,-0.0259 0.1295,-0.233 0.14708,-0.59727 z m 0.35599,-0.13355 c 0.0397,-0.4741 -0.1032,-0.58016 -0.19087,-0.14166 -0.0856,0.42781 -0.0681,0.64017 0.0494,0.60099 0.0583,-0.0194 0.1219,-0.22612 0.14145,-0.45933 z m 0.31416,-0.17554 c 0.0411,-0.52906 0.0337,-0.56301 -0.10373,-0.4781 -0.11667,0.0721 -0.13029,0.95249 -0.0147,0.95249 0.0449,0 0.0982,-0.21347 0.11844,-0.47439 z m 0.5454,0.14765 c 0.12659,-0.0446 0.15812,-0.16284 0.15812,-0.59272 0,-0.55763 -0.17269,-0.68227 -0.18972,-0.13693 -0.007,0.24837 -0.0172,0.25942 -0.0678,0.0797 -0.10406,-0.36936 -0.23871,-0.21436 -0.26686,0.30709 -0.0211,0.39113 -4.5e-4,0.49473 0.0904,0.4529 0.0648,-0.0299 0.18889,-0.0794 0.27586,-0.11003 z m 0.50675,-0.71679 c -0.007,-0.64623 -0.20225,-0.61865 -0.2404,0.0341 -0.0216,0.36913 0.001,0.46728 0.10954,0.46728 0.10651,0 0.13553,-0.11118 0.13086,-0.50137 z m 7.84774,21.59834 c -0.13459,-0.27443 -0.24472,-0.5184 -0.24472,-0.54216 0,-0.10619 0.26767,-0.0267 0.48479,0.14411 0.27391,0.21545 0.29246,0.17997 0.10022,-0.19177 -0.10555,-0.20417 -0.11087,-0.26634 -0.0226,-0.26552 0.0634,6.2e-4 0.24902,0.24456 0.41249,0.54216 0.2412,0.43913 0.26943,0.54109 0.14978,0.54109 -0.0811,0 -0.25152,-0.0819 -0.37877,-0.18199 -0.28782,-0.2264 -0.36577,-0.16672 -0.17083,0.1308 0.17832,0.27216 0.18315,0.32226 0.031,0.32226 -0.0642,0 -0.22684,-0.22454 -0.36144,-0.49898 z m -17.501549,0.30163 c -0.238112,-0.0885 -0.544015,-0.33234 -0.544015,-0.43368 0,-0.0335 0.125817,-0.25082 0.279596,-0.48297 0.314526,-0.47486 0.499564,-0.52302 0.903717,-0.23524 0.326031,0.23215 0.328379,0.36895 0.01398,0.81238 -0.294601,0.41547 -0.358892,0.44888 -0.653248,0.33951 z m 0.356394,-0.51959 c 0.13364,-0.24969 0.115497,-0.45773 -0.03991,-0.45773 -0.166105,0 -0.44506,0.41022 -0.365977,0.53818 0.09338,0.15102 0.304408,0.10918 0.405892,-0.0805 z m 18.186165,-0.0363 c -0.0979,-0.16582 -0.24715,-0.4072 -0.33181,-0.53642 -0.15218,-0.23225 -0.15066,-0.23663 0.13216,-0.38288 0.32598,-0.16858 0.48,-0.1076 0.21754,0.0861 -0.13634,0.10064 -0.15045,0.15254 -0.065,0.2392 0.0861,0.0873 0.13853,0.0862 0.24848,-0.005 0.0861,-0.0715 0.13937,-0.079 0.13937,-0.0195 0,0.0528 -0.0407,0.12122 -0.0904,0.15193 -0.11006,0.068 -0.1142,0.2291 -0.01,0.39335 0.0604,0.0954 0.11978,0.0997 0.2697,0.0194 0.15271,-0.0817 0.19221,-0.0774 0.19221,0.0213 0,0.0989 -0.3465,0.33395 -0.4923,0.33395 -0.0176,0 -0.11205,-0.13566 -0.20988,-0.30147 z M 90.902356,127.5002 c -0.186359,-0.0984 -0.338846,-0.2118 -0.338846,-0.25203 0,-0.16351 0.127471,-0.17907 0.383276,-0.0467 0.203576,0.10523 0.295241,0.11402 0.372573,0.0355 0.07684,-0.078 0.04023,-0.14985 -0.145924,-0.28631 -0.27761,-0.20354 -0.319721,-0.44731 -0.107674,-0.6233 0.117023,-0.0971 0.209404,-0.0836 0.546822,0.0804 0.443865,0.21564 0.474633,0.42362 0.03831,0.25892 -0.363459,-0.13719 -0.422744,-0.0399 -0.144985,0.2378 0.227803,0.2278 0.234633,0.40069 0.02647,0.66971 -0.116937,0.15113 -0.228517,0.13803 -0.630013,-0.074 z m 20.581464,-0.44357 c -0.24363,-0.24734 -0.4184,-0.47428 -0.38838,-0.5043 0.0722,-0.0723 0.4315,0.12281 0.4315,0.23432 0,0.0479 0.0425,0.0872 0.0945,0.0872 0.059,0 0.0721,-0.11868 0.0351,-0.31626 -0.0715,-0.38122 0.002,-0.39554 0.3497,-0.0678 l 0.26326,0.2485 -0.0644,-0.40662 c -0.0884,-0.55875 0.0685,-0.36649 0.25536,0.31299 0.17372,0.63165 0.0724,0.87449 -0.20941,0.50159 -0.1938,-0.2565 -0.33655,-0.19971 -0.18934,0.0754 0.24521,0.45817 -0.0461,0.37502 -0.57797,-0.16497 z m -21.630078,-0.22954 c -0.117044,-0.12338 -0.310182,-0.22433 -0.429211,-0.22433 -0.345146,0 -0.255679,-0.14733 0.331676,-0.54619 0.746737,-0.50711 0.840686,-0.45053 0.59473,0.35816 -0.106724,0.3509 -0.214376,0.6377 -0.239222,0.63734 -0.02487,-3.6e-4 -0.140939,-0.1016 -0.257973,-0.22498 z m 0.216511,-0.41107 c 0.03276,-0.053 0.04098,-0.11495 0.01825,-0.13766 -0.06297,-0.0631 -0.33824,0.0618 -0.33824,0.15334 0,0.11311 0.247888,0.10096 0.31998,-0.0157 z m 23.058277,0.11879 c -0.20432,-0.22577 -0.35006,-0.65077 -0.28905,-0.84297 0.13865,-0.43687 0.66766,-0.23814 0.91375,0.34326 0.15227,0.35978 0.15284,0.34424 -0.0189,0.51602 -0.18658,0.18658 -0.42805,0.18008 -0.60577,-0.0163 z m 0.42148,-0.18693 c 0.0599,-0.0969 -0.27634,-0.64872 -0.39527,-0.64872 -0.13788,0 -0.11023,0.29475 0.049,0.52205 0.14637,0.20897 0.26795,0.25344 0.34629,0.12667 z m 0.29312,-0.58589 -0.31519,-0.55982 0.31635,-0.16368 c 0.3782,-0.1957 0.57416,-0.0924 0.57416,0.30276 0,0.16793 0.0832,0.31777 0.24848,0.44744 0.26376,0.20693 0.23067,0.21003 -0.34969,0.0327 -0.18557,-0.0567 -0.18688,-0.0514 -0.0419,0.16981 0.12952,0.19767 0.13172,0.23524 0.0163,0.27952 -0.0931,0.0358 -0.2285,-0.11791 -0.44849,-0.50865 z m 0.34309,-0.32368 c 0.059,-0.0955 -0.19996,-0.33103 -0.27809,-0.2529 -0.0752,0.0752 0.0336,0.33303 0.14071,0.33303 0.0483,0 0.11015,-0.0361 0.13738,-0.0802 z m -25.852152,0.56476 c -0.121964,-0.0497 0.475626,-1.11715 0.625456,-1.11715 0.05048,0 0.228677,0.0846 0.396052,0.18809 0.649992,0.40172 0.159595,1.16363 -0.516181,0.80197 -0.136329,-0.073 -0.188207,-0.0628 -0.229627,0.0451 -0.05528,0.14395 -0.09488,0.15572 -0.2757,0.082 z m 1.014945,-0.40294 c 0.03362,-0.0544 -0.0075,-0.16629 -0.0905,-0.24849 -0.14126,-0.13912 -0.160758,-0.13732 -0.281773,0.0259 -0.07151,0.0965 -0.130022,0.2083 -0.130022,0.2485 0,0.1101 0.432051,0.0878 0.502339,-0.0259 z m 25.356427,-0.30782 c -0.26533,-0.44358 -0.30801,-0.67765 -0.12353,-0.67737 0.0344,4e-5 0.17863,0.20696 0.32064,0.45979 0.19862,0.35365 0.29765,0.44939 0.4292,0.41499 0.22333,-0.0584 0.22069,0.0861 -0.004,0.20626 -0.2732,0.14622 -0.3066,0.12456 -0.62254,-0.40367 z m 0.6354,-0.38395 -0.29745,-0.51292 0.2071,-0.1565 c 0.14577,-0.11016 0.23385,-0.12785 0.29745,-0.0598 0.0608,0.0651 0.0535,0.11031 -0.0226,0.1382 -0.0621,0.0227 -0.11295,0.0998 -0.11295,0.17114 0,0.0952 0.0661,0.11442 0.24849,0.0722 0.23655,-0.0549 0.23996,-0.051 0.0712,0.0789 -0.15408,0.1186 -0.16082,0.15635 -0.0514,0.28809 0.0692,0.0833 0.19785,0.13275 0.28592,0.10972 0.24864,-0.065 0.2543,0.14814 0.007,0.27626 -0.12135,0.063 -0.2465,0.11296 -0.2781,0.1111 -0.0316,-0.002 -0.19129,-0.2342 -0.3549,-0.51633 z m -28.572754,0.17618 -0.201068,-0.1628 0.331026,-0.51749 c 0.182071,-0.28461 0.369692,-0.49357 0.41696,-0.46436 0.133341,0.0824 0.104803,0.19686 -0.149681,0.59996 -0.208709,0.33063 -0.219019,0.38248 -0.0904,0.45449 0.07983,0.0447 0.145241,0.11991 0.145241,0.16715 0,0.13875 -0.235156,0.0987 -0.452115,-0.0769 z m 29.380444,-0.54363 c -0.22473,-0.61632 -0.23764,-0.73931 -0.0776,-0.73931 0.12372,0 0.96796,0.81582 0.96796,0.93539 0,0.0389 -0.0712,0.0486 -0.15812,0.0216 -0.17297,-0.0538 -0.40802,0.0563 -0.38497,0.18041 0.007,0.0429 -0.0233,0.0906 -0.0694,0.10598 -0.0461,0.0154 -0.17119,-0.21142 -0.27786,-0.504 z m 0.41784,-0.0334 c -0.0196,-0.059 -0.0841,-0.12341 -0.14313,-0.1431 -0.0661,-0.022 -0.0862,0.0193 -0.0524,0.10731 0.0631,0.16424 0.2498,0.19842 0.1956,0.0358 z m -30.712983,0.076 -0.327675,-0.195 0.316234,-0.49677 c 0.173918,-0.27322 0.33205,-0.51422 0.3514,-0.53555 0.05966,-0.0657 0.665423,0.25607 0.665423,0.35358 0,0.11809 -0.153213,0.11908 -0.225902,10e-4 -0.08485,-0.13723 -0.316255,-0.10793 -0.316255,0.04 0,0.0717 0.08431,0.18946 0.187354,0.26164 0.205336,0.14382 0.110758,0.27967 -0.101281,0.14552 -0.331506,-0.20971 -0.588818,0.11446 -0.268785,0.33862 0.178219,0.12484 0.250449,0.30698 0.114974,0.28995 -0.03725,-0.004 -0.21523,-0.0963 -0.395455,-0.20351 z m 31.109403,-0.4821 c -0.15695,-0.27324 -0.28535,-0.5338 -0.28535,-0.57903 0,-0.13429 0.2076,-0.0932 0.49697,0.0985 0.38306,0.25368 0.44992,0.22422 0.22095,-0.0973 -0.11633,-0.16337 -0.16467,-0.31135 -0.11721,-0.35881 0.0475,-0.0475 0.21885,0.14009 0.41555,0.45477 0.38766,0.62018 0.31634,0.7624 -0.20824,0.41525 -0.39935,-0.26427 -0.4347,-0.22744 -0.18101,0.18862 0.13224,0.21686 0.14656,0.29698 0.0591,0.33053 -0.0692,0.0266 -0.22989,-0.15498 -0.40077,-0.4525 z m 1.22076,-0.15732 c -0.0269,-0.0701 0.01,-0.14996 0.0809,-0.17736 0.21824,-0.0838 0.1523,-0.32658 -0.0887,-0.32658 -0.3544,0 -0.50437,-0.0959 -0.50437,-0.32274 0,-0.22345 0.30965,-0.46668 0.40261,-0.31626 0.0287,0.0464 0.0108,0.10989 -0.0397,0.14111 -0.18768,0.11599 -0.0823,0.22681 0.21558,0.22681 0.25842,0 0.32207,0.0421 0.39934,0.26367 0.0741,0.21262 0.0627,0.28868 -0.0589,0.39288 -0.2593,0.2221 -0.35616,0.25031 -0.40675,0.11847 z m -32.367175,-9.06575 c -0.136927,-0.25202 -0.235134,-0.33311 -0.384025,-0.31708 -0.303651,0.0327 -0.239061,-0.0899 0.162125,-0.30769 0.262968,-0.14275 0.360695,-0.16315 0.360695,-0.0754 0,0.0663 -0.04536,0.1356 -0.100641,0.15405 -0.06436,0.0215 -0.03191,0.14631 0.09007,0.34639 0.194622,0.31925 0.245038,0.53891 0.123597,0.53847 -0.03725,-9e-5 -0.150555,-0.15261 -0.25174,-0.33885 z m 32.307155,0.18096 c 1.8e-4,-0.0373 0.0819,-0.20152 0.18155,-0.36499 0.11783,-0.19326 0.16169,-0.37498 0.12541,-0.51957 -0.0663,-0.264 -0.047,-0.26763 0.36902,-0.0693 0.31688,0.15111 0.39068,0.36819 0.10813,0.31806 -0.0879,-0.0156 -0.23672,0.11856 -0.37578,0.33885 -0.20725,0.3283 -0.40922,0.47516 -0.40833,0.29691 z m -31.718455,-0.61463 -0.224003,-0.41133 0.225892,-0.174 c 0.124248,-0.0957 0.256404,-0.17491 0.293672,-0.17601 0.122584,-0.003 0.07065,0.15825 -0.06777,0.21138 -0.157546,0.0604 -0.180204,0.2905 -0.03735,0.37881 0.054,0.0334 0.143492,0.0155 0.198796,-0.0398 0.05528,-0.0553 0.143256,-0.0997 0.195433,-0.0985 0.05219,10e-4 -0.0021,0.0768 -0.12142,0.16832 -0.25331,0.19475 -0.187643,0.42511 0.08036,0.28171 0.280023,-0.14987 0.331859,-0.0984 0.09082,0.0901 -0.322263,0.25207 -0.383695,0.22974 -0.63441,-0.23061 z m 31.166385,0.34355 c -0.005,-0.0373 -0.002,-0.17958 0.006,-0.31625 0.0199,-0.30116 -0.10689,-0.32062 -0.2941,-0.0452 -0.11839,0.17417 -0.14658,0.18238 -0.19679,0.0572 -0.0683,-0.17028 0.3912,-0.98341 0.55573,-0.98341 0.0596,0 0.21929,0.0952 0.35463,0.21165 0.27473,0.23632 0.24961,0.49567 -0.0557,0.57552 -0.15583,0.0408 -0.23202,0.24043 -0.19096,0.50045 0.006,0.0373 -0.03,0.0678 -0.0796,0.0678 -0.0497,0 -0.0947,-0.0305 -0.0999,-0.0678 z m 0.23547,-0.82077 c 0,-0.16343 -0.17686,-0.13359 -0.21194,0.0357 -0.0195,0.0942 0.0144,0.13552 0.0904,0.11019 0.0669,-0.0223 0.12158,-0.0879 0.12158,-0.14595 z m -30.376206,0.26514 c 0.05101,-0.25528 0.02572,-0.30844 -0.211217,-0.44326 -0.289563,-0.16476 -0.373,-0.34801 -0.112252,-0.24652 0.278859,0.10852 0.327386,0.0969 0.364846,-0.0874 0.07076,-0.34825 0.216703,-0.37634 0.152978,-0.0295 -0.05614,0.30592 -0.03895,0.34336 0.21887,0.47671 0.354537,0.18334 0.358262,0.26201 0.0085,0.18525 -0.231399,-0.0508 -0.271079,-0.0328 -0.271079,0.12303 0,0.10043 -0.04696,0.21162 -0.104483,0.24713 -0.07481,0.0462 -0.08805,-0.0177 -0.04642,-0.2255 z m 28.892446,-0.13602 c -0.13266,-0.15984 -0.046,-0.52023 0.18462,-0.76777 0.29706,-0.31885 0.71181,-0.22021 0.71181,0.16928 0,0.52439 -0.6164,0.93591 -0.89643,0.59849 z m 0.54018,-0.3346 c 0.13847,-0.25873 -0.0197,-0.41461 -0.21883,-0.21555 -0.0813,0.0813 -0.14781,0.2059 -0.14781,0.27689 0,0.19617 0.25133,0.15412 0.36664,-0.0614 z m -28.638461,-0.21103 c -0.203287,-0.80732 -0.0698,-0.88464 0.542393,-0.31429 0.217738,0.20283 0.318816,0.34412 0.224792,0.3142 -0.196457,-0.0625 -0.629489,0.18583 -0.549564,0.31516 0.02935,0.0475 0.01516,0.0863 -0.03159,0.0863 -0.04675,0 -0.130459,-0.18065 -0.186052,-0.40145 z m 0.441069,-0.1532 c 0,-0.0955 -0.256735,-0.21268 -0.322285,-0.14713 -0.02391,0.0239 -0.01878,0.10765 0.01142,0.18617 0.05582,0.1453 0.310908,0.11326 0.310908,-0.0391 z m 26.710092,0.2075 c -0.0317,-0.0513 0.0514,-0.31565 0.18476,-0.58746 l 0.24238,-0.49422 0.29761,0.14192 c 0.37571,0.17917 0.43012,0.32106 0.22175,0.57838 -0.13901,0.17168 -0.19896,0.18861 -0.37949,0.10722 -0.18414,-0.083 -0.23522,-0.0653 -0.36189,0.12535 -0.085,0.12783 -0.17195,0.18248 -0.20512,0.12881 z m 0.79808,-0.65704 c -0.077,-0.12464 -0.28514,-0.0943 -0.34036,0.0496 -0.0273,0.0713 -0.001,0.1472 0.058,0.16859 0.13771,0.0496 0.34755,-0.11255 0.28227,-0.21816 z m -27.00324,0.0445 c -0.287482,-0.51437 -0.287525,-0.52291 -0.0032,-0.65224 0.421111,-0.19186 0.583086,-0.0926 0.583086,0.35717 0,0.0969 0.06094,0.19957 0.13554,0.22817 0.0746,0.0286 0.135539,0.0926 0.135539,0.14237 0,0.0501 -0.07065,0.062 -0.158133,0.0269 -0.08698,-0.0349 -0.215486,-0.0868 -0.285604,-0.11528 -0.09413,-0.0382 -0.114077,-5.3e-4 -0.0762,0.14412 0.09552,0.36513 -0.09541,0.28934 -0.330481,-0.13117 z m 0.347152,-0.4059 c -0.07695,-0.12457 -0.309926,-0.0942 -0.309926,0.0403 0,0.0663 0.02679,0.14722 0.05944,0.17992 0.08175,0.0817 0.311965,-0.12079 0.25047,-0.22029 z m 25.282828,0.69254 c -0.3139,-0.17344 -0.31728,-0.18911 -0.12114,-0.56059 0.32454,-0.61469 0.3144,-0.60754 0.63032,-0.44417 0.15569,0.0805 0.28308,0.186 0.28308,0.23442 0,0.1115 -0.0594,0.11093 -0.27154,-0.002 -0.11711,-0.0627 -0.18849,-0.0596 -0.23154,0.01 -0.0568,0.0919 0.0569,0.21272 0.27058,0.28768 0.0461,0.0161 0.0526,0.0798 0.0145,0.1414 -0.0528,0.0855 -0.0991,0.0872 -0.19556,0.007 -0.0695,-0.0576 -0.19803,-0.0769 -0.28562,-0.0429 -0.14553,0.0567 -0.14172,0.0763 0.0441,0.2279 0.33188,0.2708 0.24992,0.35539 -0.13714,0.14153 z m -24.666977,-0.79525 c -0.111868,-0.21121 -0.203288,-0.43485 -0.203149,-0.49698 2.66e-4,-0.1351 0.147524,-0.14981 0.226148,-0.0226 0.09413,0.15224 0.211793,0.10074 0.242199,-0.10587 0.0159,-0.10793 0.08004,-0.21309 0.142551,-0.23368 0.08698,-0.0286 0.09221,0.0189 0.02263,0.20212 -0.12126,0.31893 -0.135977,0.28926 0.24777,0.49913 l 0.338846,0.1853 -0.392187,-0.0569 c -0.36967,-0.0537 -0.386724,-0.0466 -0.296852,0.12123 0.08794,0.16428 0.05656,0.29228 -0.07161,0.29228 -0.02903,0 -0.144398,-0.17281 -0.256276,-0.38403 z m 23.679727,0.28522 c -0.0624,-0.0624 -0.0724,-0.20375 -0.0268,-0.38403 0.0396,-0.15686 0.0974,-0.3987 0.12857,-0.5374 0.0905,-0.40346 0.26097,-0.19099 0.19213,0.23953 l -0.0593,0.37126 0.25789,-0.24707 c 0.24467,-0.23442 0.47389,-0.3228 0.47389,-0.18273 0,0.0779 -0.7384,0.83925 -0.81398,0.83925 -0.0295,0 -0.098,-0.0445 -0.15228,-0.0988 z m -0.78697,-0.40292 c -0.0935,-0.0683 -0.21167,-0.13818 -0.26267,-0.15518 -0.10096,-0.0336 0.37195,-0.96956 0.48991,-0.96956 0.17637,0 0.53204,0.22112 0.53204,0.33077 0,0.14482 -0.0478,0.15017 -0.27153,0.0304 -0.22522,-0.12052 -0.35455,0.0768 -0.14889,0.22723 0.21747,0.15902 0.18283,0.23666 -0.0765,0.17156 -0.26343,-0.0661 -0.31106,0.10661 -0.0766,0.27799 0.0821,0.06 0.11212,0.13205 0.0668,0.16008 -0.0454,0.0281 -0.15892,-0.005 -0.2524,-0.0733 z M 91.264332,112.218 c -0.128197,-0.33407 -0.172711,-0.95712 -0.07279,-1.01886 0.0968,-0.0599 0.880814,0.54802 0.899587,0.69751 0.0043,0.0373 -0.108517,0.0678 -0.251548,0.0678 -0.166927,0 -0.306864,0.0705 -0.390759,0.19684 -0.108549,0.16349 -0.139819,0.17311 -0.184473,0.0568 z m 0.383491,-0.37806 c 0,-0.0188 -0.06094,-0.0847 -0.135539,-0.1466 -0.111004,-0.0921 -0.13554,-0.0859 -0.13554,0.0341 0,0.0806 0.06094,0.14661 0.13554,0.14661 0.0746,0 0.135539,-0.0154 0.135539,-0.0341 z m 20.629657,0.15078 c -0.0593,-0.0209 -0.0855,-0.0964 -0.0581,-0.16768 0.0273,-0.0713 0.0237,-0.19771 -0.009,-0.28085 -0.0508,-0.13241 -0.0757,-0.12588 -0.20084,0.0528 -0.0887,0.12658 -0.17491,0.17187 -0.22738,0.11941 -0.0525,-0.0525 0.0227,-0.2571 0.19828,-0.53946 0.30138,-0.48482 0.40392,-0.51226 0.7989,-0.21373 0.18272,0.13809 0.19878,0.19026 0.10978,0.35658 -0.0573,0.10715 -0.15796,0.19483 -0.22356,0.19483 -0.0656,0 -0.15567,0.11611 -0.20013,0.25803 -0.0445,0.14193 -0.12938,0.24094 -0.18872,0.22007 z m 0.33378,-0.78469 c 0,-0.0693 -0.061,-0.14928 -0.13554,-0.17789 -0.0746,-0.0286 -0.13554,-0.0363 -0.13554,-0.0171 0,0.0192 -0.0247,0.0992 -0.0549,0.17788 -0.0393,0.10246 -8.4e-4,0.14293 0.13554,0.14293 0.1047,0 0.19039,-0.0567 0.19039,-0.12587 z m -20.56382,0.16726 c -0.296169,-0.5054 -0.208346,-0.67619 0.230919,-0.44903 0.334932,0.1732 0.418475,0.13719 0.280385,-0.12084 -0.119285,-0.22288 -0.122551,-0.28476 -0.01505,-0.28476 0.04547,0 0.185999,0.18493 0.312328,0.41096 0.266009,0.47595 0.16602,0.60047 -0.291965,0.36363 -0.375711,-0.19429 -0.399425,-0.18211 -0.241185,0.12388 0.229606,0.44402 -0.01206,0.40555 -0.275434,-0.0439 z m 19.23173,0.0739 c -0.0822,-0.0289 -0.0871,-0.0864 -0.0183,-0.21479 0.16836,-0.3146 -0.17579,-0.51528 -0.34995,-0.20406 -0.0457,0.0815 -0.12763,0.12062 -0.18223,0.0869 -0.10182,-0.063 0.38399,-0.95797 0.51997,-0.95797 0.14397,0 0.1728,0.11725 0.0698,0.28357 -0.0867,0.13987 -0.0812,0.19072 0.028,0.26083 0.099,0.0636 0.1791,0.0347 0.29728,-0.10758 0.0971,-0.11685 0.19452,-0.16179 0.24376,-0.11243 0.10983,0.11009 -0.46143,1.01718 -0.60809,0.96556 z m -18.137425,-0.6238 c -0.03447,-0.22999 -0.08207,-0.46872 -0.105763,-0.53051 -0.09744,-0.25395 0.247194,-0.196 0.636032,0.10694 0.380065,0.29611 0.48522,0.56104 0.175507,0.44219 -0.07246,-0.0279 -0.232316,0.0505 -0.356404,0.17456 -0.123747,0.12375 -0.238859,0.22498 -0.255807,0.22498 -0.01697,0 -0.05902,-0.18817 -0.09349,-0.41816 z m 0.367611,-0.19873 c -0.162466,-0.16247 -0.264291,-0.10662 -0.184526,0.10128 0.03116,0.0812 0.113031,0.12041 0.189851,0.0909 0.118827,-0.0456 0.118197,-0.0687 -0.0053,-0.19222 z m 16.456984,0.0665 c -0.088,-0.0512 -0.13523,-0.13331 -0.10491,-0.18236 0.0349,-0.0566 0.10267,-0.0497 0.1848,0.0185 0.16137,0.13393 0.28829,0.028 0.14188,-0.11842 -0.28787,-0.28789 -0.002,-0.6639 0.43153,-0.56857 0.33137,0.0728 0.36456,0.22671 0.0489,0.22671 -0.23862,0 -0.29711,0.16372 -0.12129,0.33953 0.0792,0.0792 0.0765,0.13841 -0.0111,0.24397 -0.13284,0.16007 -0.33946,0.17483 -0.56982,0.0408 z"
       style="fill:#000000;stroke-width:0.09035962" />
  </g>
</svg>
