<svg xmlns="http://www.w3.org/2000/svg" width="191.999996" height="191.999996" viewBox="0 0 50.799999 50.799999">
    <g fill-rule="evenodd" stroke-width=".26" transform="translate(-368.241118 -50.440958) scale(3.90769)">
        <circle class="color-main color-turquoise" fill="#01a89e" cx="100.73493" cy="19.408119" r="6.5"/>
        <g class="color-white" fill="#fff">
            <path style="line-height:normal;font-variant-ligatures:normal;font-variant-position:normal;font-variant-caps:normal;font-variant-numeric:normal;font-variant-alternates:normal;font-feature-settings:normal;text-indent:0;text-align:start;text-decoration-line:none;text-decoration-style:solid;text-decoration-color:#000;text-transform:none;text-orientation:mixed;white-space:normal;shape-padding:0;isolation:auto;mix-blend-mode:normal;solid-color:#000;solid-opacity:1" d="M99.069659 15.447914c-1.54713.651358-2.634464 2.182589-2.634464 3.96565 0 .183177.015451.362313.037724.539502l.26045-.037725c-.020452-.164697-.034623-.331451-.034623-.501777 0-.67474.16772-1.308914.45992-1.867587l.393774.227377c-.254505.49199-.400492 1.048607-.400492 1.64021 0 .148498.011854.293963.029456.437698l.262515-.037206c-.015822-.131484-.026353-.264652-.026353-.400492 0-.543647.133168-1.054713.36432-1.507402l.204122.117821c.047976.027702.109243.011298.136943-.03669l.049609-.086299c.0277-.047979.0118-.109243-.036174-.136943l-.205671-.118856c.356925-.56566.880427-1.013587 1.500682-1.280024l-.097152-.246497c-.675347.288712-1.244547.778515-1.63194 1.394748l-.393258-.22686c.438317-.704686 1.086771-1.264096 1.858285-1.5906zm3.338817.003617l-.099738.248047c.768205.327061 1.414264.885002 1.851052 1.5875l-.393777.22686c-.386257-.614634-.953431-1.103543-1.626256-1.39268l-.098703.245463c.61884.266638 1.1416.713975 1.4981 1.278474l-.206187.118856c-.04798.0277-.064392.088967-.036693.136943l.050128.0863c.0277.04798.088448.064391.136425.03669l.205155-.118338c.231526.45279.36432.964107.36432 1.507918 0 .136065-.01045.269312-.026352.401008l.260448.03876c.01778-.144455.029972-.290503.029972-.439768 0-.591439-.146637-1.147804-.401008-1.639694l.394809-.227893c.292126.558625.458885 1.192926.458885 1.867587 0 .172175-.01426.340527-.035139.506945l.261998.039275c.022834-.179362.03876-.36071.03876-.54622 0-1.779534-1.083507-3.308493-2.626197-3.962033zm.325043 6.603731c-.51737.39046-1.151573.63491-1.84278.667145v-.250632c0-.055401-.044337-.100254-.099738-.100254h-.10025c-.055402 0-.099738.044853-.099738.100254v.251147c-.695923-.02967-1.333897-.274613-1.85415-.667144l-.163814.20619c.565883.428985 1.260904.696497 2.017964.726572v.453202c-.864703-.030337-1.657392-.334885-2.300634-.824756l-.165365.208256c.724136.555392 1.62686.88935 2.609144.889352.98043-.000003 1.881764-.332756 2.605527-.88625l-.163815-.209292c-.639447.486405-1.426561.789226-2.285132.822172v-.453202c.752057-.032679 1.442434-.299408 2.005044-.726054z" color="#000" font-family="sans-serif" font-weight="400" overflow="visible"/>
            <path d="M100.728475 15.101682c-.292889.002064-.87385.093535-.87385.093535s-.008943.031306.002116.037206c.29628.159103.746726.424264.746726.424264v.661458h-.2558c-.055398 0-.099734.044853-.099734.100253v.261483c0 .0554.044336.100252.099735.100252h.761195c.055399 0 .100251-.044852.100251-.100252v-.261483c0-.0554-.044852-.100253-.10025-.100253h-.23048v-.661458h-.012408s.47481-.273776.729155-.430981c.012408-.007642.007223-.042892.007223-.042892s-.581375-.083232-.873848-.081132zm-3.761162 6.471082c-.144626-.254699-.355926-.803541-.355926-.803541s.02263-.02339.03328-.01679c.285928.177032.740806.434517.740806.434517l.572839-.330728-.127898-.22153c-.0277-.04798-.01102-.108795.03696-.136496l.22645-.130741c.04798-.0277.108995-.01172.136689.03624l.380598.659215c.0277.04798.01128.109236-.03669.136947l-.226467.130747c-.04798.0277-.10925.01129-.136947-.03669l-.115239-.1996-.572841.330729-.0062-.01074s.000308.548086-.0087.846957c-.000419.01453-.03354.02768-.03354.02768.000001 0-.362766-.46187-.507184-.716209zm7.53037.00001c.144626-.254699.355927-.803542.355927-.803542s-.02269-.02338-.03328-.01679c-.285928.177032-.740804.434517-.740804.434517l-.572841-.330729.1279-.221529c.0277-.04798.01103-.108803-.03695-.136504l-.226452-.130742c-.04798-.0277-.108988-.01172-.13669.03625l-.380575.659245c-.0277.04798-.01127.109247.0367.136945l.226451.13074c.04798.0277.109241.01129.136947-.03669l.115231-.199586.572837.330731.0062-.01075s-.000309.548087.0087.846958c.000397.01451.03354.02768.03354.02768 0 .000001.362766-.461869.507184-.716208zm-4.836329-4.410753v.26665h.939996v.329179h-1.733227v1.467096h.26665v-1.200444h1.466577v3.497977h.002117c-.000183.002381-.002117.004339-.002117.00672 0 .073875.089186.133326.199988.133326h1.057814v-.266652h-.990636v-3.371371h1.466577v1.200444h.26665V17.75785h-1.733227v-.32918h.939996v-.266649h-1.207162zm-.11627 1.173573v.26665h.65319v-.26665zm1.720825 0v.26665h.65319v-.26665zm-1.720826.595828v.26665h.65319v-.26665zm1.720826 0v.26665h.65319v-.26665zm-2.190048.731221c-.110797 0-.199988.059447-.199988.133326 0 .008864.005344.016405.007752.024792h-.007752v1.119828h.002116c-.000195.00238-.002116.004312-.002116.00672 0 .073877.089188.133326.199988.133326h1.060399v-.26665h-.993219v-.291457h.99322v-.26665h-.99322v-.326593h.99322v-.266652h-.99322zm2.25671 0v.266653h.993222v.326593h-.993222v.26665h.993222v.291457h-.993222v.26665h1.0604c.1108 0 .199988-.05945.199988-.133326 0-.002382-.001852-.004313-.002117-.00672h.002117v-1.11983h-.007752c.00238-.008413.007752-.015927.007752-.024791 0-.07388-.089188-.133326-.199988-.133326h-.067178z"/>
        </g>
    </g>
</svg>
