<?xml version="1.0" encoding="UTF-8" standalone="no"?>
<svg
   xmlns="http://www.w3.org/2000/svg"
   id="svg3843"
   version="1.1"
   viewBox="0 0 50.799999 50.799999"
   height="50.799999mm"
   width="50.799999mm">
  <g
     transform="translate(-79.677378,-76.564285)"
     id="layer1">
    <g
       id="g4164"
       transform="matrix(3.9076923,0,0,3.9076923,-288.56374,26.123327)"
       style="display:inline;stroke-width:0.25999999">
      <circle
         style="fill:#01a89e;fill-opacity:1;fill-rule:evenodd;stroke-width:0.06879167"
         id="path3077-4-9"
         cx="100.73493"
         cy="19.408119"
         r="6.5" />
      <g
         style="stroke-width:0.25999999"
         id="g3770"
         transform="translate(30.677453,-9.152651)">
        <g
           style="fill:#ffffff;fill-opacity:1;stroke:none;stroke-width:0.25999999;stroke-opacity:1"
           id="g3534">
          <path
             style="color:#000000;font-style:normal;font-variant:normal;font-weight:normal;font-stretch:normal;font-size:medium;line-height:normal;font-family:sans-serif;font-variant-ligatures:normal;font-variant-position:normal;font-variant-caps:normal;font-variant-numeric:normal;font-variant-alternates:normal;font-feature-settings:normal;text-indent:0;text-align:start;text-decoration:none;text-decoration-line:none;text-decoration-style:solid;text-decoration-color:#000000;letter-spacing:normal;word-spacing:normal;text-transform:none;writing-mode:lr-tb;direction:ltr;text-orientation:mixed;dominant-baseline:auto;baseline-shift:baseline;text-anchor:start;white-space:normal;shape-padding:0;clip-rule:nonzero;display:inline;overflow:visible;visibility:visible;opacity:1;isolation:auto;mix-blend-mode:normal;color-interpolation:sRGB;color-interpolation-filters:linearRGB;solid-color:#000000;solid-opacity:1;vector-effect:none;fill:#ffffff;fill-opacity:1;fill-rule:evenodd;stroke:none;stroke-width:0.25999999;stroke-linecap:butt;stroke-linejoin:miter;stroke-miterlimit:4;stroke-dasharray:none;stroke-dashoffset:0;stroke-opacity:1;color-rendering:auto;image-rendering:auto;shape-rendering:auto;text-rendering:auto;enable-background:accumulate"
             d="m 258.49023,92.978516 c -5.84742,2.461823 -9.95703,8.249154 -9.95703,14.988284 0,0.69232 0.0584,1.36937 0.14258,2.03906 l 0.98438,-0.14258 c -0.0773,-0.62248 -0.13086,-1.25273 -0.13086,-1.89648 0,-2.5502 0.6339,-4.94708 1.73828,-7.0586 l 1.48828,0.85938 c -0.96191,1.85949 -1.51367,3.96324 -1.51367,6.19922 0,0.56125 0.0448,1.11104 0.11133,1.65429 l 0.99218,-0.14062 c -0.0598,-0.49695 -0.0996,-1.00026 -0.0996,-1.51367 0,-2.05473 0.50331,-3.98632 1.37696,-5.69727 l 0.77148,0.44531 c 0.18133,0.1047 0.41289,0.0427 0.51758,-0.13867 l 0.1875,-0.32617 c 0.10469,-0.18134 0.0446,-0.41289 -0.13672,-0.51758 l -0.77734,-0.44922 c 1.34901,-2.137929 3.3276,-3.83088 5.67187,-4.837888 l -0.36719,-0.93164 c -2.55249,1.091195 -4.7038,2.942419 -6.16796,5.271488 l -1.48633,-0.857426 c 1.65663,-2.663379 4.10748,-4.777683 7.02344,-6.011718 z m 12.61915,0.01367 -0.37696,0.9375 c 2.90345,1.236137 5.34525,3.344889 6.9961,6 l -1.48829,0.857424 c -1.45987,-2.323025 -3.60352,-4.170871 -6.14648,-5.263674 l -0.37305,0.927734 c 2.33892,1.007765 4.31471,2.69849 5.66211,4.83203 l -0.77929,0.44922 c -0.18134,0.10469 -0.24337,0.33625 -0.13868,0.51758 l 0.18946,0.32617 c 0.10469,0.18134 0.33429,0.24337 0.51562,0.13867 l 0.77539,-0.44726 c 0.87506,1.71133 1.37696,3.64387 1.37696,5.69922 0,0.51426 -0.0395,1.01787 -0.0996,1.51562 l 0.98437,0.14649 c 0.0672,-0.54597 0.11328,-1.09796 0.11328,-1.66211 0,-2.23536 -0.55422,-4.33816 -1.51562,-6.19727 l 1.49219,-0.86133 c 1.1041,2.11134 1.73437,4.5087 1.73437,7.0586 0,0.65074 -0.0539,1.28703 -0.13281,1.91601 l 0.99023,0.14844 c 0.0863,-0.6779 0.14649,-1.36331 0.14649,-2.06445 0,-6.7258 -4.09514,-12.504542 -9.92578,-14.974614 z m 1.22851,24.958984 c -1.95541,1.47575 -4.3524,2.39966 -6.96484,2.52149 v -0.94727 c 0,-0.20939 -0.16757,-0.37891 -0.37696,-0.37891 h -0.3789 c -0.20939,0 -0.37696,0.16952 -0.37696,0.37891 v 0.94922 c -2.63026,-0.11214 -5.0415,-1.03791 -7.00781,-2.52149 l -0.61914,0.7793 c 2.13877,1.62136 4.76562,2.63243 7.62695,2.7461 v 1.71289 c -3.26817,-0.11466 -6.26416,-1.26571 -8.69531,-3.11719 l -0.625,0.78711 c 2.73689,2.09912 6.14876,3.36132 9.86133,3.36133 3.70556,-1e-5 7.11218,-1.25766 9.84766,-3.34961 l -0.61914,-0.79102 c -2.41681,1.83838 -5.39173,2.9829 -8.63672,3.10742 v -1.71289 c 2.84242,-0.12351 5.45172,-1.13162 7.57812,-2.74414 z"
             transform="scale(0.26458333)"
             id="path3409" />
          <path
             style="fill:#ffffff;fill-opacity:1;fill-rule:evenodd;stroke:none;stroke-width:0.25999999;stroke-opacity:1"
             d="m 264.75977,91.669922 c -1.10698,0.0078 -3.30274,0.353516 -3.30274,0.353516 0,0 -0.0338,0.118325 0.008,0.140624 1.1198,0.601331 2.82227,1.603516 2.82227,1.603516 v 2.5 h -0.9668 c -0.20938,0 -0.37695,0.16952 -0.37695,0.378906 v 0.988282 c 0,0.209386 0.16757,0.378906 0.37695,0.378906 h 2.87696 c 0.20938,0 0.3789,-0.16952 0.3789,-0.378906 v -0.988282 c 0,-0.209386 -0.16952,-0.378906 -0.3789,-0.378906 h -0.8711 v -2.5 h -0.0469 c 0,0 1.79456,-1.034745 2.75586,-1.628906 0.0469,-0.02888 0.0273,-0.16211 0.0273,-0.16211 0,10e-7 -2.19732,-0.314577 -3.30273,-0.30664 z"
             transform="scale(0.26458333)"
             id="rect3463" />
          <path
             style="fill:#ffffff;fill-opacity:1;fill-rule:evenodd;stroke:none;stroke-width:0.06879167;stroke-opacity:1"
             d="m 66.28986,30.725415 c -0.144626,-0.254699 -0.355926,-0.803541 -0.355926,-0.803541 0,0 0.02263,-0.02339 0.03328,-0.01679 0.285928,0.177032 0.740806,0.434517 0.740806,0.434517 l 0.572839,-0.330728 -0.127898,-0.22153 c -0.0277,-0.04798 -0.01102,-0.108795 0.03696,-0.136496 l 0.22645,-0.130741 c 0.04798,-0.0277 0.108995,-0.01172 0.136689,0.03624 l 0.380598,0.659215 c 0.0277,0.04798 0.01128,0.109236 -0.03669,0.136947 l -0.226467,0.130747 c -0.04798,0.0277 -0.10925,0.01129 -0.136947,-0.03669 l -0.115239,-0.1996 -0.572841,0.330729 -0.0062,-0.01074 c 0,0 3.08e-4,0.548086 -0.0087,0.846957 -4.19e-4,0.01453 -0.03354,0.02768 -0.03354,0.02768 10e-7,0 -0.362766,-0.46187 -0.507184,-0.716209 z"
             id="rect3463-8" />
          <path
             style="fill:#ffffff;fill-opacity:1;fill-rule:evenodd;stroke:none;stroke-width:0.06879167;stroke-opacity:1"
             d="m 73.82023,30.725425 c 0.144626,-0.254699 0.355927,-0.803542 0.355927,-0.803542 0,0 -0.02269,-0.02338 -0.03328,-0.01679 -0.285928,0.177032 -0.740804,0.434517 -0.740804,0.434517 l -0.572841,-0.330729 0.1279,-0.221529 c 0.0277,-0.04798 0.01103,-0.108803 -0.03695,-0.136504 L 72.69373,29.520106 c -0.04798,-0.0277 -0.108988,-0.01172 -0.13669,0.03625 l -0.380575,0.659245 c -0.0277,0.04798 -0.01127,0.109247 0.0367,0.136945 l 0.226451,0.13074 c 0.04798,0.0277 0.109241,0.01129 0.136947,-0.03669 l 0.115231,-0.199586 0.572837,0.330731 0.0062,-0.01075 c 0,0 -3.09e-4,0.548087 0.0087,0.846958 3.97e-4,0.01451 0.03354,0.02768 0.03354,0.02768 0,1e-6 0.362766,-0.461869 0.507184,-0.716208 z"
             id="rect3463-5" />
        </g>
        <path
           id="rect3561"
           transform="scale(0.26458333)"
           d="m 260.72656,99.457031 v 1.007809 h 3.55274 v 1.24414 h -5.54297 -1.00781 v 1.00782 4.53711 h 1.00781 v -4.53711 h 5.54297 v 13.2207 h 0.008 c -6.9e-4,0.009 -0.008,0.0164 -0.008,0.0254 0,0.27921 0.33708,0.50391 0.75586,0.50391 h 0.84765 0.10938 3.04101 v -1.00782 h -3.04101 -0.10938 -0.59375 V 102.7168 h 5.54297 v 4.53711 h 1.00781 v -5.54493 h -6.55078 v -1.24414 h 3.55274 v -1.007809 h -3.55274 -1.00976 z m -0.43945,4.435549 v 1.00781 h 2.46875 v -1.00781 z m 6.50391,0 v 1.00781 h 2.46875 v -1.00781 z m -6.50391,2.25195 v 1.00781 h 2.46875 v -1.00781 z m 6.50391,0 v 1.00781 h 2.46875 v -1.00781 z m -8.27735,2.76367 c -0.41876,0 -0.75586,0.22468 -0.75586,0.50391 0,0.0335 0.0202,0.062 0.0293,0.0937 h -0.0293 v 4.23242 h 0.008 c -7.4e-4,0.009 -0.008,0.0163 -0.008,0.0254 0,0.27922 0.33709,0.50391 0.75586,0.50391 h 0.25391 0.70508 3.04882 v -1.00781 h -3.04882 -0.70508 v -1.10157 h 3.7539 v -1.00781 h -3.7539 v -1.23437 h 3.7539 v -1.00782 h -3.7539 z m 8.5293,0 v 1.00782 h 3.75391 v 1.23437 h -3.75391 v 1.00781 h 3.75391 v 1.10157 h -0.70508 -3.04883 v 1.00781 h 3.04883 0.70508 0.2539 c 0.41877,0 0.75586,-0.22469 0.75586,-0.50391 0,-0.009 -0.007,-0.0163 -0.008,-0.0254 h 0.008 v -4.23242 h -0.0293 c 0.009,-0.0318 0.0293,-0.0602 0.0293,-0.0937 0,-0.27923 -0.33709,-0.50391 -0.75586,-0.50391 h -0.2539 z"
           style="fill:#ffffff;fill-opacity:1;fill-rule:evenodd;stroke-width:0.25999999" />
      </g>
    </g>
  </g>
</svg>
