<svg xmlns="http://www.w3.org/2000/svg" width="300" height="300.30573" overflow="visible" viewBox="0 0 300 300.30571">
    <path class="color-white" fill="#FFF" fill-rule="evenodd" d="M179.70542 250.1898c-22.743668 1.526858-29.653718 15.11594-29.653718 15.11594s-6.85999-15.11594-29.654128-15.11594c-12.948548 0-30.45223-2.380356-47.336717-16.74128C59.016713 221.504065 50 203.69304 50 183.732269c0-16.500823 5.169407-29.695572 9.689253-40.677382 2.134976-5.18541 4.284313-10.180424 5.885032-15.232065 1.489518-4.699163 2.349171-9.030664 2.349171-13.393352 0-8.68434-3.53381-16.508619-9.271531-22.174942l-6.704883-6.621585L99.40686 35l6.596964 3.670041c13.021178 7.244884 28.020582 11.383118 44.0011 11.383118 15.978876 0 30.970074-4.138234 43.991662-11.383118L200.59396 35l47.458587 50.633763-6.704472 6.621585c-5.737722 5.666323-9.271121 13.4906-9.271121 22.174942 0 4.362687.858422 8.69419 2.34917 13.393352 1.599899 5.05164 3.749647 10.046244 5.884622 15.232065C244.831003 154.037517 250 167.232266 250 183.733089c0 19.960771-9.016302 37.771795-23.060856 49.716252-16.884077 14.360513-34.311847 15.8726-47.233723 16.740459z" clip-rule="evenodd"/>
    <path class="color-blue color-main" fill="#00529B" fill-rule="evenodd" d="M150.004924 59.725178c-17.67151 0-34.284355-4.580986-48.703545-12.602635L65.447491 85.37279c7.500934 7.406966 12.147573 17.679306 12.147573 29.05709 0 22.63657-17.923456 40.414767-17.923456 69.302388 0 16.979274 7.658503 32.145685 19.655893 42.349499 28.689019 24.39896 59.004198 5.635548 70.667985 25.54831 11.662556-19.912352 41.988404-1.14935 70.676602-25.54831 11.99739-10.203814 19.656303-25.370225 19.656303-42.3495 0-28.88762-17.924277-46.665818-17.924277-69.302387 0-11.377784 4.64746-21.650124 12.147573-29.05709L198.69862 47.122543c-14.41919 8.02206-31.022186 12.602635-48.693696 12.602635z" clip-rule="evenodd"/>
    <path class="color-red" fill="#EF3E42" fill-rule="evenodd" d="M74.114188 217.534478c-7.580128-9.201364-12.166448-20.963222-12.166448-33.80221 0-13.961667 4.319191-25.26682 8.790618-36.128813 1.15058-2.795615 2.29952-5.54076 3.37583-8.26785l.00041 78.184511zm13.799174 11.913272v-90.112145h13.827076v96.12315c-4.589603-1.262193-9.171-3.156712-13.827076-6.011006zm27.597526 8.45127v-98.563415h13.810253v99.530165c-2.582652-.24538-5.300715-.408694-8.122182-.59868-1.843637-.12269-3.784114-.189985-5.688071-.36807zm110.366717-20.364542c7.579717-9.201364 12.165627-20.963222 12.165627-33.80221 0-13.961667-4.319191-25.26682-8.790207-36.128813-1.150581-2.795615-2.29952-5.54076-3.37583-8.26785l-.001232 78.184511zM212.07802 229.44775v-90.112145h-13.827076v96.12315c4.590014-1.262193 9.17141-3.156712 13.827077-6.011006zm-27.596705 8.45127v-98.563415H170.66983v99.530165c2.583473-.24538 5.301535-.408694 8.123002-.59868 1.842817-.12269 3.784525-.189985 5.688482-.36807zm-34.485419 9.737672c-1.962635-2.416466-4.270772-4.162033-6.831266-5.433663V139.336015h13.661301V242.20303c-2.559262 1.27163-4.8674 3.017197-6.830035 5.433663z" clip-rule="evenodd"/>
    <path class="color-white" fill="#FFF" fill-rule="evenodd" d="M87.913362 229.467035c-2.349171-1.440278-4.773023-3.13045-7.111936-5.118936-2.442727-2.07958-4.698752-4.370894-6.736478-6.847679l.04924.019286-.00041-78.184511h13.799584zm27.597526 8.362228c-4.473888-.418542-9.072519-1.072207-13.77004-2.363533v-96.130125h13.77004zm13.810252 1.036507v-99.530165h13.84349V242.19318c-1.416068-.702084-2.91092-1.262192-4.466091-1.71192-2.586345-.745169-5.394271-1.19982-8.383976-1.514548zm82.75688-9.398735c2.349172-1.440278 4.772613-3.13045 7.111936-5.118936 2.442727-2.07958 4.697932-4.370894 6.735658-6.847679l-.04924.019286.00123-78.184511h-13.799583zm-27.596705 8.362228c4.473068-.418542 9.071287-1.072207 13.76963-2.363533v-96.130125h-13.76963zm-13.811484 1.036507v-99.530165h-13.8439V242.19318c1.4173-.702084 2.911741-1.262192 4.467323-1.71192 2.585935-.745169 5.394271-1.19982 8.383976-1.514548zm16.206202-113.749933v-21.269742h-6.255975v21.269742zm-10.255516-12.386798H168.4651v-4.12059h8.155418v-4.761123h-14.458172v21.269742h6.302754v-7.405325h8.155418zm-18.911133 12.386798v-21.269742h-6.255976v21.269742zm-54.268105-21.272614c3.969586 0 7.159534 3.218672 7.159534 7.188258 0 3.969996-3.218261 7.187847-7.188258 7.187847h-4.118948v6.903485H93.45043v-21.27918h9.99085zm20.526214 17.616935h-7.971999l-1.292557 3.663065h-5.921141l7.675736-21.28h7.047513l7.676557 21.28h-5.921962zm12.615766-6.670004c-.081247-3.19118 2.265873-5.379088 5.19772-5.452538 1.469822-.03652 3.371317.731628 5.34421 1.244958V104.7197c-.946234-.58678-3.51083-1.32046-5.129194-1.32046-5.985975 0-11.285048 4.53831-11.285048 11.331415 0 6.792695 5.299073 11.345778 11.285048 11.345778 1.617953 0 4.18296-.73409 5.129194-1.32046V118.8931c-1.972893.51333-3.874388 1.281068-5.34421 1.244958-2.931437-.07345-5.278556-2.261359-5.19772-5.452538zm59.424381 0c-.080426-3.19118 2.265873-5.379088 5.1969-5.452538 1.470232-.03652 3.372137.731628 5.34462 1.244958V104.7197c-.946234-.58678-3.511652-1.32046-5.128374-1.32046-5.986795 0-11.285868 4.53831-11.285868 11.331415 0 6.792695 5.299073 11.345778 11.285868 11.345778 1.616722 0 4.18214-.73409 5.128374-1.32046V118.8931c-1.972894.51333-3.874388 1.281068-5.34462 1.244958-2.931027-.07345-5.277326-2.261359-5.1969-5.452538z" clip-rule="evenodd"/>
    <path class="color-blue" fill="#00529B" fill-rule="evenodd" d="M117.723417 116.627637h4.461578l-2.193243-6.821008h-.04924zm-18.42981-8.040935h3.735695c1.233879 0 2.22525 1.000808 2.22525 2.234687 0 1.2347-1.000399 2.561725-2.234688 2.561725h-3.726257z" clip-rule="evenodd"/>
    <path class="color-white" fill="#FFF" fill-rule="evenodd" d="M152.819005 95.410007V74.139855h-6.255155v21.270152zm3.622031-10.598557c0-6.17555 5.056155-11.180822 11.292024-11.180822 6.23669 0 11.292844 5.005273 11.292844 11.180823 0 6.174729-5.056154 11.180822-11.292844 11.180822-6.235459-.00041-11.292024-5.006093-11.292024-11.180822zm40.127943-10.671595V85.37279h-.056216l-7.23955-11.232935h-6.354456v21.26728h6.021674V84.68917h.056216l7.217802 10.720836h6.829625V74.139855zm-61.809662 0V85.37279h-.056626l-7.23996-11.232935h-6.354046v21.26728h6.020854V84.68917h.056626l7.217802 10.720836h6.830035V74.139855z" clip-rule="evenodd"/>
    <path class="color-blue" fill="#00529B" fill-rule="evenodd" d="M162.411008 84.81145c0-2.91051 2.382819-5.269528 5.322052-5.269528s5.322052 2.35943 5.322052 5.269529c0 2.9101-2.382819 5.269118-5.322052 5.269118s-5.322052-2.359019-5.322052-5.269118z" clip-rule="evenodd"/>
    <path class="color-white" fill="#FFF" fill-rule="evenodd" d="M109.48429 74.1218h6.160367v11.845566c0 2.710266-.113663 5.392219-2.243714 7.431587-1.789474 1.731616-4.601093 2.346709-7.100446 2.346709-2.499354 0-5.310973-.615093-7.101267-2.34671-2.129641-2.039367-2.243304-4.72132-2.243304-7.431586V74.1218h6.160367v10.32281c0 2.73858-.394743 5.727464 3.183793 5.727464 3.578537 0 3.183794-2.989294 3.183794-5.727463V74.1218z" clip-rule="evenodd"/>
    <path class="color-stroke-blue" fill="none" stroke="#00529B" stroke-miterlimit="2.6131" stroke-width=".2659" d="M115.510888 237.829263c-4.473888-.418542-9.072519-1.079593-13.77004-2.370509-4.590013-1.262192-9.17141-3.15671-13.827076-6.010594-2.34917-1.440278-4.773023-3.111164-7.111935-5.09965-2.442728-2.07958-4.698753-4.370894-6.736479-6.84768m0 0l.04924.019286-.00041.014362m0 0c-7.580128-9.201364-12.166448-20.963222-12.166448-33.80221 0-13.961667 4.319191-25.26682 8.790618-36.128813 1.15058-2.795615 2.29952-5.54076 3.37583-8.26785m0 0h151.763827m-.00041 0c1.0759 2.72709 2.22525 5.472235 3.37583 8.26785 4.471016 10.861992 8.790208 22.167146 8.790208 36.128813 0 12.838988-4.58632 24.600846-12.165628 33.80221m-.00041 0l-.001231-.014362.04924-.019286m0 0c-2.037726 2.476375-4.29293 4.767689-6.735658 6.84768-2.339323 1.988486-4.762764 3.678658-7.111935 5.118935-4.656078 2.853884-9.237474 4.729117-13.827077 5.99172-4.697931 1.290915-9.296151 1.952376-13.76963 2.370508-1.904366.178086-3.845664.315138-5.68848.437418-2.821468.189985-5.53953.353299-8.123003.59868m0 0l-.993012.120228m0 0c-2.989704.315137-5.79804.769379-8.383975 1.514548-1.555582.449728-3.050024 1.007374-4.467323 1.71192-2.559263 1.27204-4.8674 3.00776-6.830035 5.424225-1.962635-2.416466-4.270772-4.162033-6.831266-5.433663-1.416068-.704546-2.91092-1.27204-4.466092-1.721357-2.586345-.74517-5.39427-1.199821-8.383975-1.514549m.00041-.00041l-.993422-.100943m0 0c-2.582652-.24538-5.300715-.408694-8.122182-.59868-1.843637-.12269-3.783704-.259742-5.688071-.437417"/>
</svg>
