<svg xmlns="http://www.w3.org/2000/svg" width="191.999996" height="191.999996" viewBox="0 0 50.799999 50.799999">
    <g fill-rule="evenodd" stroke-width=".26" transform="translate(-53.299698 -50.440958) scale(3.90769)">
        <circle class="color-main color-brown" fill="#6f533e" cx="20.139687" cy="19.408119" r="6.5"/>
        <path class="color-white" fill="#fff" d="M19.959902 15.661816c-.1662 0-.30024.133522-.30024.299723v.12764c-.000582-.000188-.000979-.000794-.0016-.0011v.08836c0 .09302-.06413.167593-.149862.19017v.000142c-1.586033.298419-2.794145 1.691214-2.794145 3.361844-.000002 1.887135 1.538495 3.426143 3.425631 3.426143 1.887136 0 3.425634-1.539005 3.425631-3.426143 0-1.683314-1.226491-3.082838-2.830318-3.36672v-.000529c-.08084-.0213-.140506-.09074-.147278-.176361v-.22376c0-.166201-.13404-.299723-.30024-.299723zm.179834 1.391129c1.481803 0 2.675805 1.194001 2.675805 2.675805.000002 1.207347-.793114 2.223455-1.888257 2.558503-.268432-.0087-.475925-.207645-.475939-.476975v-2.179712c0-.06096.04378-.108765.101285-.119891h.712618c.06925 0 .125057-.05581.125057-.125055v-.490398h-.0036c-.01915-.144077-.232297-.257347-.49661-.257347h-1.545142c-.264292 0-.476911.113286-.496094.257347h-.0036v.490401c0 .06925.05581.125055.125057.125055h.751375c.0576.01114.101803.05893.101803.119891v1.647963c0 .0065-.0027.01191-.0036.0181v.513665c-.00013.270436-.212706.476599-.47904.473874-1.089573-.338392-1.87689-1.352013-1.876888-2.555401 0-1.481805 1.194001-2.675806 2.675805-2.675806z" color="#000" font-family="sans-serif" font-weight="400" overflow="visible" style="line-height:normal;font-variant-ligatures:normal;font-variant-position:normal;font-variant-caps:normal;font-variant-numeric:normal;font-variant-alternates:normal;font-feature-settings:normal;text-indent:0;text-align:start;text-decoration-line:none;text-decoration-style:solid;text-decoration-color:#000;text-transform:none;text-orientation:mixed;white-space:normal;shape-padding:0;isolation:auto;mix-blend-mode:normal;solid-color:#000;solid-opacity:1"/>
    </g>
</svg>
