<?xml version="1.0" encoding="UTF-8" standalone="no"?>
<svg
   xmlns="http://www.w3.org/2000/svg"
   id="svg3246"
   version="1.1"
   viewBox="0 0 50.799999 50.799999"
   height="50.799999mm"
   width="50.799999mm">
  <g
     transform="translate(-85.725,-78.832142)"
     id="layer1">
    <g
       id="g1688"
       transform="matrix(3.9076923,0,0,3.9076923,32.425302,28.391184)"
       style="display:inline;stroke-width:0.25999999">
      <circle
         style="fill:#6f533e;fill-opacity:1;fill-rule:evenodd;stroke-width:0.06879167"
         id="path3077-2"
         cx="20.139687"
         cy="19.408119"
         r="6.5" />
      <path
         style="color:#000000;font-style:normal;font-variant:normal;font-weight:normal;font-stretch:normal;font-size:medium;line-height:normal;font-family:sans-serif;font-variant-ligatures:normal;font-variant-position:normal;font-variant-caps:normal;font-variant-numeric:normal;font-variant-alternates:normal;font-feature-settings:normal;text-indent:0;text-align:start;text-decoration:none;text-decoration-line:none;text-decoration-style:solid;text-decoration-color:#000000;letter-spacing:normal;word-spacing:normal;text-transform:none;writing-mode:lr-tb;direction:ltr;text-orientation:mixed;dominant-baseline:auto;baseline-shift:baseline;text-anchor:start;white-space:normal;shape-padding:0;clip-rule:nonzero;display:inline;overflow:visible;visibility:visible;opacity:1;isolation:auto;mix-blend-mode:normal;color-interpolation:sRGB;color-interpolation-filters:linearRGB;solid-color:#000000;solid-opacity:1;vector-effect:none;fill:#ffffff;fill-opacity:1;fill-rule:evenodd;stroke:none;stroke-width:0.19500002;stroke-linecap:butt;stroke-linejoin:miter;stroke-miterlimit:4;stroke-dasharray:none;stroke-dashoffset:0;stroke-opacity:1;color-rendering:auto;image-rendering:auto;shape-rendering:auto;text-rendering:auto;enable-background:accumulate"
         d="m 19.959902,15.661816 c -0.1662,0 -0.30024,0.133522 -0.30024,0.299723 v 0.12764 c -5.82e-4,-1.88e-4 -9.79e-4,-7.94e-4 -0.0016,-0.0011 v 0.08836 c 0,0.09302 -0.06413,0.167593 -0.149862,0.19017 v 1.42e-4 c -1.586033,0.298419 -2.794145,1.691214 -2.794145,3.361844 -2e-6,1.887135 1.538495,3.426143 3.425631,3.426143 1.887136,0 3.425634,-1.539005 3.425631,-3.426143 0,-1.683314 -1.226491,-3.082838 -2.830318,-3.36672 v -5.29e-4 c -0.08084,-0.0213 -0.140506,-0.09074 -0.147278,-0.176361 v -0.22376 c 0,-0.166201 -0.13404,-0.299723 -0.30024,-0.299723 z m 0.179834,1.391129 c 1.481803,0 2.675805,1.194001 2.675805,2.675805 2e-6,1.207347 -0.793114,2.223455 -1.888257,2.558503 -0.268432,-0.0087 -0.475925,-0.207645 -0.475939,-0.476975 v -0.531749 -0.791168 -0.856795 c 0,-0.06096 0.04378,-0.108765 0.101285,-0.119891 h 0.712618 c 0.06925,0 0.125057,-0.05581 0.125057,-0.125055 v -0.19172 -0.278018 -0.02066 h -0.0036 c -0.01915,-0.144077 -0.232297,-0.257347 -0.49661,-0.257347 h -1.545142 c -0.264292,0 -0.476911,0.113286 -0.496094,0.257347 h -0.0036 v 0.02066 0.421161 0.04858 c 0,0.06925 0.05581,0.125055 0.125057,0.125055 h 0.751375 c 0.0576,0.01114 0.101803,0.05893 0.101803,0.119891 v 1.647963 c 0,0.0065 -0.0027,0.01191 -0.0036,0.0181 v 0.513665 c -1.3e-4,0.270436 -0.212706,0.476599 -0.47904,0.473874 -1.089573,-0.338392 -1.87689,-1.352013 -1.876888,-2.555401 0,-1.481805 1.194001,-2.675806 2.675805,-2.675806 z"
         id="path2879" />
    </g>
  </g>
</svg>
