<svg xmlns="http://www.w3.org/2000/svg" viewBox="0 0 612 612">
    <path class="color-reserved-gray" fill="#1f1b04" d="M602.6 305.6c-.1 163.8-132.8 296.5-296.5 296.4C142.3 602 9.6 469.2 9.6 305.5 9.7 141.8 142.9 8.8 306.8 9.1c163.3.3 295.8 133.2 295.8 296.5zm-296.4-290C146 15.6 16.2 145.1 16 305.3 15.9 465.8 145.7 595.8 306 596c160 .1 290.2-129.9 290.2-290.1.3-160.2-129.8-290.3-290-290.3z"/>
    <path class="color-yellow color-reserved-white" fill="#f3cc47" d="M306.2 15.6c160.2 0 290.1 130.1 290.1 290.2-.1 160-130.2 290.2-290.2 290.1-160.3-.1-290.1-130.1-290-290.5.2-160.2 130.1-289.9 290.1-289.8zM129.3 450.7c.1.1.3.3.3.4-4.1 7.3-8.1 14.7-12.2 22-2.5 4.6-5.1 9.2-7.7 13.6-1.7 2.7-2.9 2.9-5.1.7-1-1-2.1-2.2-3.3-3.4-1 .8-2 1.6-3 2.5 6 7.1 11.8 13.9 17.8 20.9 1-.9 2-1.6 3.1-2.6-4.3-3.4-2.7-6.9-.5-10.7 8.9-15.7 17.8-31.5 26.6-47.2.9-1.6 1.6-2.7 0-4.6-1.4-1.7-2.7-1.2-4.3-.5-16.6 6.3-33.2 12.4-49.9 18.6-4.1 1.6-8.1 2.6-11.5-1.6-1 1-1.8 1.8-2.7 2.6 4.7 5.6 9.3 11 14 16.5 1-1 2-1.8 2.7-2.6-.4-.5-.7-.9-.8-1.3-3.4-4.4-2.9-7.2 2.1-9.9 2.1-1.2 4.3-2 6.5-2.9 9.3-3.7 18.6-7.1 27.9-10.5zm64.8-306.8c-3.7.3-7.3.7-10.7.9-.4 2.9-.8 5.5-1.2 8.1-1.4 1.2-3 2.2-4.3 3.4-55.6 50.4-77.6 112.8-64.8 186.7 6.5 38.2 24.5 71.3 51.4 99.2 33 34 73.1 53.8 120.4 59 27.6 3.1 54.8.4 81.3-8.1 1.2.7 2.5 1.2 3.4 2.2 12.3 12 24.5 24.2 36.8 36.4.8.8 1.7 1.6 3 2.7v-60.6h16c4.2 0 4.2 0 4.2-4.3 0-3.5.1-7.2.1-10.7.3-.1.5-.3.8-.5 42.1-35.2 66.3-80.1 71.7-134.8 3.5-37.2-3.3-72.6-20-106.1-12.6-25.1-29.8-46.7-51.8-64.4-.4-2.7-.8-5.5-1.2-8.2-3.5-.3-7.1-.5-10.6-.8-46.1-31.4-96.6-41.7-151.3-31.3-26.6 5.1-51.1 15.6-73.2 31.2zm-99.5 207c.4 1.8.7 3.4.9 5 .4 2.1-.4 3.7-2.6 4.1-7.5 1.6-14.8 3.3-22.1 4.8-2.7-6.8-1.6-10.5 4.6-13.5 4.8-2.4 9.8-4.3 14.5-6.7s6.5-5.8 5.6-10.2c-1.4-7.5-8.2-10.7-16.7-7.9.1.9.4 1.8.5 2.7 2.1 0 3.9-.1 5.8 0 .8.1 2 .8 2 1.3 0 .8-.5 2-1.2 2.4-1.8 1.2-3.8 2.1-5.8 3.1-6.4 3.7-13.2 7.1-13.7 16.6-1-2.1-1.6-3.5-2.4-4.8-3.9-7.5-10.1-10.5-17.1-8.6-7.2 1.8-11.5 7.7-11.1 16 .1 3.9 1 8 1.8 11.9 1.7 8 3.4 15.8 5.2 24.1 1.4-.4 2.5-.7 3.7-.9-1-7.6-1-7.6 6.4-9.3 12.7-2.7 25.3-5.5 37.9-8.4 6.3-1.4 8.2-2.6 9.6 5.5 0 .1.1.1.4.4 1-.3 2.1-.5 3.5-.8-2.1-9.3-4.1-18.5-6-27.7-1.2.4-2.4.6-3.7.9zM464.7 85.1c5.6 5.4 5.6 5.4.9 11l-25.5 30.6c-4.6 5.5-4.6 5.5-10.2 1.2-.1-.1-.4-.1-.7-.3-.7.9-1.4 1.7-2.4 2.9 7.3 6.2 14.5 12 21.9 18.2.9-1.2 1.6-2.1 2.4-3-1.4-1.2-2.7-2.2-3.9-3.4-1.4-1.4-1.7-3-.4-4.7 4.8-5.9 9.7-11.6 14.5-17.5 6.4 3.8 7.7 7.3 4.6 13.6-2.4 4.7-5 9.2-7.3 13.9-2.7 5.5-1.3 10.2 3.8 13.2 4.2 2.5 8.1 1.6 11.8-1.2 1.6-1.2 3-2.7 4.7-4.2-1.2-.8-1.8-1.3-2.6-1.8-1.7 1.2-3 2.4-4.6 3.3-.7.4-1.8.4-2.4 0s-.7-1.7-.5-2.4c.7-2 1.7-3.8 2.4-5.8 1.4-4.6 3-9 3.7-13.7.4-2.4-1-5-1.7-7.6 2.1.9 4.2 2 6.3 2.7 5.9 2 11.3.9 15.6-3.7 4.3-4.6 5.4-10.7 2.2-16.4-1.8-3.4-4.4-6.4-7.3-9-6.8-6-13.9-11.6-20.8-17.4-.7-.5-1.3-.9-2.1-1.4-1.1 1.1-1.8 2-2.4 2.9zm-90.9 475.6c-.1 1.8-.1 3.5-.7 5.1-.3.9-1.2 1.8-2 2.2-.5.1-1.7-.9-2.1-1.7-.8-1.6-1.3-3.4-2.1-5.1-2.9-7.2-5.5-14.7-14.9-16.4 2.5-.9 4.4-1.4 6.3-2.2 6.8-2.9 10.5-8.8 9.6-15-.9-7.2-6.2-13-13.7-13.1-9.4-.1-18.8.9-28.3 1.6-3 .1-6 .5-9.2.9.1 1.6.3 2.6.4 3.9 1-.1 1.8-.1 2.6-.3 4.2-.5 5.2.3 5.6 4.6 1.3 14.4 2.6 28.8 3.9 43.3.5 6 .3 6.3-5.5 6.9-.5 0-1 .3-1.7.5.1 1.3.3 2.4.4 3.7 9.7-.9 18.8-1.7 28.3-2.6-.1-1.4-.4-2.5-.5-3.7h-3.4c-4.4.3-5-.3-5.5-4.4-.4-3.3-.7-6.5-.9-9.8-.4-3.8-.7-7.7-.9-11.5 7.9-1.6 10.6 0 13 7.1 1.6 4.7 2.9 9.6 4.4 14.4 1.6 4.7 4.6 6.9 8.8 7.1 8 .1 13-6.9 10.6-15.7-.7-.2-1.6 0-2.5.2zm-121.5-18.4c2.1 0 4.3.1 6.4 0 5.4-.4 9.6-2.6 12.2-7.6 4.3-8.2.9-17.7-8.8-21.1-11.1-3.9-22.8-6.5-34.3-9.7-.4 1.6-.8 2.7-1 3.9.8.3 1.3.4 1.8.5 5.6 1.6 5.8 1.7 4.3 7.5-3.4 13.5-6.8 27-10.3 40.4-1.7 6.8-1.7 6.8-8.5 5.2-.1 0-.4.1-.8.1-.3 1-.5 2.1-.9 3.5 9.3 2.4 18.3 4.6 27.5 6.9.4-1.4.7-2.6.9-3.8-1.6-.5-3-.9-4.3-1.2-2.5-.5-3.5-2.1-2.9-4.6 1.8-7.3 3.7-14.5 5.5-21.7 7.1.4 10.1 3.1 10.1 9.9 0 5.6-.5 11.4-.5 17 0 5.5 3.5 8.9 8.9 9.3 6.2.4 10.5-3.7 12.2-11.9-.9-.3-2-.5-2.7-.7-.8 1.6-1.2 3-2 4.2-.7.9-2 1.4-2.9 2.1-.5-1-1.3-2-1.4-3-.3-2.2 0-4.6-.1-6.8-1.2-6.7-1.2-13.8-8.4-18.4zm295.1-227.1c.1-.3.1-.5.3-.8 9 .8 17.9 1.4 27 2.4.9.1 2 2 2.2 3.1.4 1.6.1 3.4.1 5.2h3.7c.8-9.2 1.4-18.2 2.2-27.5H579c-.1.7-.1 1-.3 1.4-.4 5.2-.7 5.5-5.9 5.1-14.1-1-28.3-2.2-42.4-3.4-6.7-.5-7.2-.8-6.7-7.1 0-.3-.3-.5-.4-1-1-.1-2.1-.1-3.4-.3-.8 9.2-1.6 18.2-2.2 27.3 1.4.1 2.6.1 3.9.3.1-1.2.3-2.1.3-3 .5-4.2.9-4.6 5.1-4.3 3.1.1 6.3.4 9.4.8 1.2.1 2.6.1 3.4.8 2.7 2.2 5.4 4.7 8.2 7.3-6.9 2.9-13.5 5.6-19.9 8.4-6.9 2.9-7.1 2.9-7.1-4.6 0-.1-.1-.4-.3-.8h-3.5c-.8 9.2-1.4 18.1-2.2 27.2h3.9c0-4.4 2.2-6.8 6.2-8.4 9.9-3.9 19.8-8.1 29.6-12.3 1.6-.7 2.9-1 4.3.5 2.6 2.6 5.5 5 8.1 7.6 3.9 3.9 7.9 8 6.9 14.5 1.4.1 2.6.1 3.9.3.7-7.7 1.3-15.3 1.8-22.9-1.6-.1-2.6-.1-3.7-.3-1.4 6-3.8 7.5-7.5 4.2-6.7-6.4-13.9-13.2-21.1-19.7zm-253.5-257c-2.9 2.5-6.2 4.6-8.6 7.3-5.4 6-6.3 13.1-2.9 20.4 2.9 6.3 9 9.4 17 9 4.8-.3 9.2-2.1 13-4.8 1.6-1.2 2.6-1.2 4.2 0 3.5 2.9 7.7 4.6 12.4 3.8 7.5-1.2 11.3-7.6 10.2-17-.9.1-2 .1-2.9.1-.4 3.7-.7 7.3-4.4 8.2-4.4 1-6.8-2.5-9.6-5.1 2.4-4.6 4.6-9 6.8-13.5 1.8-3.8 4.2-6.9 9.2-6.9-.1-1.4-.1-2.5-.1-3.1h-19.9c-.4 0-.8.1-1.4.3.1 1.2.1 2.4.3 3.4 7.1 1 8.6 3.4 6.3 9.4-.9 2.5-2.4 4.8-3.9 8.1-5-7.5-9.4-14.4-13.7-20.8 3.7-3 7.2-5.2 9.9-8.1 5-5.2 4.8-12.7.1-17-4.1-3.8-12.6-4.4-18.2-1.6-5.4 2.7-8.5 8.5-7.2 14.8.4 4.6 2.1 8.8 3.4 13.1zm195.5 357.2c7.5 3.4 14.5 6.7 21.9 10.1.4-1.3.8-2.2 1-3.1-2-1.3-3.7-2.5-5.4-3.8-5.2-4.2-8.8-9.3-7.2-16.4.8-3.7 2.5-7.2 4.2-10.6.5-.9 2.7-2 3.7-1.6 7.2 2.7 14.3 5.8 21.5 8.9-1.2 3.7-2.7 7.1-6.5 7.7-3.4.5-6.9-.3-10.7-.5-.3.5-.5 1.4-.9 2.5 9 3.8 17.9 7.5 27 11.3.4-1.2.8-2 1-2.7 0-.1-.1-.1-.1-.3-8.5-6.3-9.8-9.8-5.6-16.2 6.5 2.7 13.2 5.4 19.8 8.4.9.4 1.8 2.6 1.4 3.7-1.2 3.5-2.6 6.9-4.4 10.2-2.4 4.6-6.5 6.2-11.5 5.9-3.1-.3-6.3-.8-9.6-1.3-.4.9-.7 1.8-1.2 2.9 6.9 2.5 13.7 5 20.7 7.5 6.3-15 12.6-30 18.8-45.1-1.3-.5-2.4-1-3.5-1.6-.7 1.6-1.3 2.9-1.8 4.3-.9 2.4-2.5 3.1-5 2.1-14.5-6.2-29-12.2-43.7-18.2-2.5-1-3.1-2.9-2.1-5.2.5-1.3 1-2.7 1.7-4.2-1.4-.5-2.5-.9-3.7-1.3-6.7 15.3-13.1 30.8-19.8 46.6zm36 51.8c-.7.8-1.3 1.4-1.8 2.1-3.5 4.2-3.9 4.2-8.1.8-10.7-9-21.6-18.1-32.3-27.1-5.4-4.4-5.2-4.4-1-9.9.3-.4.4-.7.8-1.3-.9-.8-1.8-1.4-2.9-2.4-11 13.1-21.7 26-32.7 39.1 6 5.4 11.9 10.6 17.8 16 .8-1 1.4-1.8 2-2.4-2.1-3-4.1-5.5-5.6-8.4-2.7-4.8-3.4-9.9-.3-14.9 2-3.1 4.4-6 6.9-8.6.8-.8 3.1-1.2 3.9-.7 6.2 4.8 12 9.9 18.1 14.9-5 6.9-8 7.1-18.3 1.4-.5.8-1.2 1.7-1.8 2.6 7.6 6.3 14.9 12.4 22.2 18.6.9-1 1.4-1.7 2.1-2.5-7.3-7.7-6.2-13.2-.8-17.3 5.2 4.3 10.5 8.8 15.8 13.2 2.1 1.7 2.1 3.4.5 5.2-1.7 2.1-3.4 4.2-5.2 6.3-4.3 4.8-9 5.9-15 3.4-2.7-1-5.2-2.5-8-3.8-.7.8-1.2 1.4-2 2.5 5.9 4.4 11.6 8.8 17.5 13.2 10.6-12.7 20.9-25 31.4-37.6-1.4-.8-2.3-1.6-3.2-2.4zM125.3 186.9c-2.7 3.4-5.9 5-9.9 3.5-1.7-.7-3.4-1.4-4.8-2.5-8.6-6-17.1-12-25.6-18.1-.5-.4-1-.9-1.4-1.3 18.8 0 37.6-.1 56.3.1 3 0 4.6-1 5.5-3.8-.9-.7-1.8-1.3-2.7-2-12-8.5-24.2-17.1-36.2-25.6-5.8-4.1-6.5-6.2-4.6-13.1-.9-.7-1.8-1.3-3-2.1-3.9 5.6-7.9 11.1-11.8 16.7 1.3.8 2.2 1.4 3.1 2.1 5.5-4.2 8.4-4.3 14-.3 6.5 4.6 13 9.2 19.5 13.7.9.7 1.8 1.3 3.4 2.5H77.2c-1.2 0-2.9.3-3.5 1-3.3 4.2-6.2 8.6-9.4 13.1 1.2.8 2.1 1.4 3.1 2.2.5-.7.8-1 1.2-1.4 3.4-4.2 5.9-4.6 10.2-1.4 9.8 6.9 19.6 13.9 29.3 20.8 6.3 4.4 7.2 7.7 4.4 14.8.9.5 1.8 1.2 3 1.8 2.4-3.3 4.4-6.3 6.5-9.3 2.1-3 4.2-6 6.4-9-1.2-.9-2.1-1.6-3.1-2.4zm-86.8 80.8c-10.1 10.7-10.6 23.2-1.4 33.9 10.3 12.2 33.1 15.7 46.8 7.5 12.6-7.6 18.1-27.2 4.4-37.2-.1-.1-.1-.4-.3-.8 2.7-.9 5.5-2 8.2-2.7 2.1-.5 2.6-1.6 2-3.7-6.5-.8-13-1.4-19.5-2.2-5.9-.7-5.8-.8-5.8-6.7 0-.1-.1-.4-.4-.8-.9-.1-2-.3-3.3-.4-.9 9.2-2 18.1-2.9 27.1h3.8c.3-1.8.5-3.5.7-5.2.1-2.1 1.3-3 3.1-2.9 3.1.3 6.3.5 9.4 1.3 6.4 1.7 9.6 6.9 8.6 13.5-.8 5.8-4.8 10.3-11.8 10.9-7.2.7-14.7.5-21.7-.4-5.8-.8-11.6-2.4-16.6-5.1-10.3-5.6-9.9-18.2.7-23.6 3.9-2 8.4-3 12.7-4.1 2.5-.5 3-1.6 2.4-3.8-7.7-.4-15.3-.9-22.9-1.2-.7 0-1.8.5-2 1-.1.7.3 1.7.8 2.1 1.6 1.4 3.2 2.3 5 3.5zm504.2-93.5c2.2 5.9 1.2 8.8-4.3 12.3-7.9 5-15.7 9.7-23.7 14.5-1.3.8-2.7 1.4-4.1 2-7.3 2.9-13.6.5-17.4-6.3-3.5-6.3-2.1-12.3 4.3-17.1 1.2-.9 2.4-1.6 3.5-2.4 8.1-5 16.4-9.9 24.5-15 7.1-4.4 7.1-4.7 10.9 2.1.1.1.3.3.7.5.9-.5 1.8-1.2 3.1-2-5-8.1-9.8-16-14.7-23.9-1.2.8-2.2 1.3-3.3 2 .3.5.4.9.5 1.3 3.1 5.6 3.1 5.6-2.2 9-9.7 5.9-19.4 11.8-28.9 17.8-8.4 5.2-11.1 11.4-8.8 20.5 4.1 15.8 18.1 26.6 35.2 15.2 7.5-4.8 15.2-9.4 22.8-14 5.8-3.5 8.5-3.1 13.2 1.7.9-.7 1.8-1.3 2.9-2-3.8-6.2-7.5-12-11.1-18.1-1.3.6-2.2 1.3-3.1 1.9zM386.8 68.5c1.8 1.7 2.9 1.7 4.3-.3 2.2-3 4.7-6 7.5-8.6 2.4-2.4 5.4-3.8 8.9-3.3 3.8.5 5 2.2 3.5 5.9-5.9 14.3-11.8 28.5-17.7 42.8-1.2 2.7-2.7 3.8-5.5 2.4-1.3-.7-2.7-1-4.4-1.7-.5 1.2-1 2.2-1.6 3.5 9.3 3.8 18.5 7.6 27.7 11.4.5-1.3.9-2.4 1.4-3.7-1.6-.7-3-1.3-4.4-1.8-3-1-3.5-2.9-2.2-5.6 1.6-3.5 2.9-7.1 4.4-10.6 4.4-10.9 8.9-21.7 13.5-32.6 1.3-3.3 3.1-3.9 5.8-1.7 1.8 1.6 3.9 3.9 4.2 6.2.5 4.4-.1 9-.3 13.6 0 .9-.1 1.8-.3 3 1 .4 2 .7 3 1 2.6-7.6 5.2-14.9 7.9-22.5-15.3-6.3-30.2-12.4-45.4-18.7-3.7 7.3-7 14.4-10.3 21.3zM241.1 95.9c-3.9 3.1-6.5.9-9.2-1.6-13.6-12.6-27.2-25.1-40.8-37.7-1.2-1-2.1-2.2-4.2-1.2-2.1 1-1.7 2.5-1.4 4.1 2 17.5 3.8 35.1 5.8 52.6.5 4.4.5 8.8-4.1 11.5.7 1.2 1.2 2.2 1.8 3.3 6.4-3.3 12.7-6.4 19-9.6-.7-1.3-1.3-2.4-1.8-3.4-.8.3-1.2.5-1.7.8-5 2-8.4.1-9.4-5-.4-2-.8-4.1-.7-6.2 0-1 .8-2.4 1.7-2.9 2.7-1.7 5.8-3 8.6-4.4 2.6-1.3 5.5-3.9 7.9-3.5 2.5.4 4.7 3.5 6.9 5.6 5.8 5.2 5.6 5.6-1.2 9.6-.1.1-.3.4-.5.7.5.9 1 2 1.7 3.1 7.9-3.9 15.6-7.9 23.4-11.8-.5-1.6-1-2.6-1.8-4zm330.2 161.7c.8-2.1 1.7-4.1 2.2-6.2 2.7-9.9-3.1-21.1-13.7-26.2-13.9-6.8-34.7-2.4-44.6 9.6-5.4 6.4-7.5 13.6-5.8 22 2.9 14.1 18.1 19.2 27.6 16.5.3-2.2-.7-2.9-2.9-3-3.3-.1-6.5-.4-9.6-1.4-6-2.1-9.4-6.5-10.2-12.8-.7-5.8 2.2-9.9 7.1-12.6 4.3-2.4 8.8-4.4 13.3-5.9 7.6-2.4 15.4-3.9 23.6-2.7 7.9 1 13.1 6.5 11.9 13.5-.5 3.3-2.4 6.8-4.7 9-3.4 3.3-7.9 5.6-12.2 8.6.1.5.4 1.4.8 2.6 8.2-2.2 16.1-4.4 24.1-6.7-.6-4.8-4.8-2.5-6.9-4.3zm-465.1-39.3c-.7 1.7-1.2 2.9-1.7 4.2-.9 2.4-2.5 3.1-4.8 2.2-14.9-5.6-29.8-11.3-44.8-17-2-.8-2.6-2.1-2-4.2.5-1.6 1.2-3.1 1.7-5-1.4-.5-2.5-.8-3.7-1.3-3.4 9-6.8 17.9-10.2 27 1.4.5 2.5.9 3.7 1.3.4-.8.5-1.3.8-1.8 2.4-6 2.5-6 8.5-3.8 13 4.8 25.8 9.8 38.7 14.7 6.4 2.5 6.4 2.5 4.2 8.8-.1.5-.4.9-.5 1.7 1.3.5 2.4.9 3.7 1.4 3.4-9 6.8-17.9 10.2-27-1.6-.2-2.5-.6-3.8-1.2zM71.5 443.4c-.4-1-.8-1.8-1.2-2.5-2.4-4.7-2.1-5.2 2.6-7.7 12.4-6.3 24.9-12.6 37.3-18.8 6.4-3.3 6.4-3.3 9.8 2.9.3.4.5.7.8 1.2 1-.5 2.1-1 3.4-1.7-4.3-8.6-8.6-17-13-25.6-1.2.7-2.4 1.2-3.5 1.7.8 1.7 1.4 2.9 2 4.2 1 2.2.5 3.9-1.7 5.1-14.1 7.1-28.4 14.3-42.5 21.5-2.2 1.2-3.7.5-4.8-1.6-.7-1.4-1.4-2.7-2.2-4.3-1.3.8-2.2 1.3-3.4 2 4.3 8.5 8.5 16.9 13 25.6 1.3-.8 2.2-1.3 3.4-2zm47.9-335.2c.8-.7 1.4-1.2 2.1-1.7 4.1-3.4 4.6-3.4 8.1.8 9 10.6 18.1 21.2 27.1 31.8 4.7 5.5 4.7 5.5-.5 10.2-.3.3-.5.7-1 1 .8.9 1.6 1.8 2.5 2.9 7.3-6.3 14.5-12.4 21.9-18.6-.7-.8-.9-1.3-1.3-1.6-.4-.4-.9-.8-1.4-1.2-.5.4-.8.7-1.2.9-5 4.2-5.1 4.1-9.3-.8-8.8-10.3-17.5-20.5-26.3-30.9-5.5-6.4-5.8-5.5.7-11 .1-.1.1-.4.4-.8-.7-.8-1.4-1.7-2.4-2.7-7.3 6.3-14.5 12.3-21.9 18.6.9 1.1 1.6 2 2.5 3.1zm316.8 418.2c0 6.3 5.2 11.4 11.5 11.3 6.2 0 11.3-5 11.3-11.1.1-6.3-5.1-11.3-11.5-11.1-6.5-.1-11.3 4.7-11.3 10.9zm-144.1 55.1c3.4 0 6.4-3.4 6.5-7.2.1-3.9-2.9-7.2-6.4-7.2-3.5 0-6.4 3.3-6.5 7.2 0 3.8 3 7.2 6.4 7.2zm103.4-23.6c0 4.1 3.1 7.6 6.8 7.7 3.4.1 6.2-3 6.2-6.7 0-4.2-3.4-7.7-7.3-7.6-3.4.2-5.7 2.9-5.7 6.6z"/>
    <path class="color-reserved-gray" fill="#2f663d" d="M366.2 493.1c-26.6 8.5-53.7 11.3-81.3 8.1-47.2-5.2-87.4-25-120.4-59-27-27.9-44.9-60.8-51.4-99.2-12.7-73.9 9.3-136.2 64.8-186.7 1.3-1.2 2.9-2.4 4.3-3.4.3 1.4.8 2.9.8 4.3v149.7c0 2.7.5 4.8 2.6 6.7 2.4 2 4.6 4.1 6.8 6.2 19 18.7 37.9 37.6 56.9 56.3 20 19.8 40 39.5 59.9 59.3 12.6 12.4 25 25 37.6 37.4 5.2 5.1 10.6 10.1 15.7 15.2 1.4 1.5 2.5 3.4 3.7 5.1zM430.3 153c22 17.7 39.3 39.3 51.8 64.4 16.7 33.4 23.6 69 20 106.1-5.2 54.7-29.4 99.6-71.7 134.8-.3.3-.5.4-.8.5V156.3c0-1.2.4-2.2.7-3.3z"/>
    <path class="color-green color-reserved-gray" fill="#528647" d="M430.3 153c-.3 1-.7 2.1-.7 3.1v302.5c0 3.5-.1 7.2-.1 10.7 0 4.3 0 4.3-4.2 4.3h-16v60.6c-1.4-1.3-2.2-2-3-2.7-12.3-12.2-24.5-24.2-36.8-36.4-.9-.9-2.4-1.4-3.4-2.2-1.2-1.7-2.2-3.7-3.7-5.1-5.1-5.1-10.6-10.1-15.7-15.2-12.6-12.4-25-25-37.6-37.4-20-19.8-39.9-39.5-59.9-59.3-19-18.7-37.9-37.6-56.9-56.3-2.2-2.1-4.4-4.2-6.8-6.2-2.2-1.8-2.6-3.9-2.6-6.7V157c0-1.4-.5-2.9-.8-4.3.4-2.6.8-5.2 1.2-8.1 3.4-.3 7.1-.5 10.7-.9 1.3.3 2.5.5 3.8.5h216.7c1.3 0 2.5-.3 3.8-.5 3.5.3 7.1.5 10.6.8.6 3 1 5.8 1.4 8.5zm-8.5-1.1h-3.9c-74.5 0-148.9 0-223.4-.1-3.4 0-4.1 1-4.1 4.3.1 49.3.1 98.5 0 147.9 0 2.6.8 4.4 2.6 6.3 21.2 20.9 42.4 41.9 63.6 62.8 47.5 47 94.9 93.8 142.4 140.8.8.8 1.6 1.4 2.9 2.6v-50h20c-.1-105.1-.1-209.6-.1-314.6z"/>
    <path class="color-reserved-gray" fill="#2f663d" d="M418.5 144c-1.3.1-2.5.5-3.8.5H198c-1.3 0-2.5-.4-3.8-.5 22.1-15.6 46.5-26.2 73-31.1 54.6-10.5 105.1-.3 151.3 31.1z"/>
    <path class="color-reserved-gray" fill="#1f1b04" d="M94.6 350.9c1.3-.3 2.5-.5 3.8-.8 2.1 9.3 4.1 18.3 6 27.7-1.3.3-2.5.5-3.5.8-.3-.3-.4-.3-.4-.4-1.4-8.1-3.3-6.9-9.6-5.5-12.7 2.9-25.3 5.5-37.9 8.4-7.6 1.7-7.6 1.7-6.4 9.3-1 .3-2.2.5-3.7.9-1.8-8.2-3.7-16.1-5.2-24.1-.8-3.9-1.7-7.9-1.8-11.9-.3-8.2 3.9-14.1 11.1-16 7.1-1.8 13.1 1.2 17.1 8.6.7 1.3 1.3 2.7 2.4 4.8.5-9.4 7.3-12.8 13.7-16.6 1.8-1 3.9-2 5.8-3.1.7-.4 1.3-1.6 1.2-2.4 0-.5-1.2-1.3-2-1.3-1.8-.1-3.7 0-5.8 0-.3-1-.4-2-.5-2.7 8.5-2.9 15.3.4 16.7 7.9.8 4.4-.9 8-5.6 10.2-4.8 2.4-9.8 4.3-14.5 6.7-6 3-7.3 6.7-4.6 13.5 7.3-1.6 14.8-3.3 22.1-4.8 2.2-.5 3-2 2.6-4.1-.3-1.7-.7-3.3-1-5.1zm-28 14.9c-.5-2.4-.9-4.2-1.4-6-2.5-8.2-8.6-10.9-17.5-7.6-6.4 2.4-8.5 8.1-5.5 15.6.7 1.8 1.8 2.7 3.7 2.4 6.7-1.4 13.5-2.8 20.7-4.4zM464.7 85.1c.8-.9 1.4-1.8 2.2-2.9.8.5 1.4.9 2.1 1.4 6.9 5.8 14 11.4 20.8 17.4 2.9 2.6 5.5 5.6 7.3 9 3.1 5.6 2.1 11.8-2.2 16.4-4.3 4.6-9.7 5.6-15.6 3.7-2.1-.8-4.2-1.8-6.3-2.7.7 2.5 2.1 5.1 1.7 7.6-.7 4.7-2.2 9.2-3.7 13.7-.7 2-1.7 3.8-2.4 5.8-.3.7 0 2 .5 2.4s1.7.4 2.4 0c1.6-.9 3-2.1 4.6-3.3.7.5 1.4 1 2.6 1.8-1.7 1.4-3.1 3-4.7 4.2-3.7 2.9-7.6 3.8-11.8 1.2-5-3-6.4-7.7-3.8-13.2 2.4-4.7 5-9.2 7.3-13.9 3.1-6.3 1.8-9.8-4.6-13.6-4.8 5.8-9.7 11.6-14.5 17.5-1.3 1.6-1 3.3.4 4.7 1.2 1.2 2.5 2.1 3.9 3.4-.8 1-1.4 2-2.4 3-7.3-6.2-14.5-12-21.9-18.2.9-1 1.6-2 2.4-2.9.4.1.5.1.7.3 5.6 4.3 5.6 4.3 10.2-1.2l25.5-30.6c4.9-5.6 4.8-5.6-.7-11zm-.8 31.8c2.4 1.7 4.3 3.8 6.8 4.8 2.4 1 5.2 1.7 7.7 1.4 4.4-.7 10.1-7.2 10.6-11.8.7-5.4-3.1-8.2-6.7-11.1-1.7-1.3-3.4-1.3-4.8.4-4.4 5.5-8.9 10.7-13.6 16.3zm-90.1 443.8c.9-.1 1.8-.4 2.7-.5 2.4 8.8-2.6 15.8-10.6 15.7-4.2-.1-7.2-2.4-8.8-7.1-1.6-4.7-2.9-9.6-4.4-14.4-2.4-7.1-5.1-8.6-13-7.1.3 3.8.7 7.7.9 11.5.3 3.3.5 6.5.9 9.8.5 4.2 1 4.7 5.5 4.4h3.4c.1 1.2.3 2.2.5 3.7-9.4.9-18.7 1.7-28.3 2.6-.1-1.3-.3-2.5-.4-3.7.7-.1 1.2-.4 1.7-.5 5.8-.7 6-1 5.5-6.9-1.3-14.4-2.6-28.8-3.9-43.3-.4-4.3-1.3-5.1-5.6-4.6-.8.1-1.6.1-2.6.3-.1-1.2-.3-2.4-.4-3.9 3.1-.3 6.2-.7 9.2-.9 9.4-.7 18.8-1.7 28.3-1.6 7.6.1 12.7 5.8 13.7 13.1.8 6.4-2.9 12.2-9.6 15-1.8.8-3.9 1.4-6.3 2.2 9.4 1.6 12 9.2 14.9 16.4.7 1.7 1.2 3.5 2.1 5.1.4.8 1.6 1.8 2.1 1.7.8-.3 1.7-1.3 2-2.2.3-1.3.2-3 .5-4.8zm-34.6-17.5c2.5-.3 4.3-.3 6.2-.5 8.6-1.6 11.6-7.1 9.7-16.6-1.4-6.5-6.7-9.2-14.5-7.5-2 .4-3.3 1.3-3 3.5.4 7 1 13.8 1.6 21.1zm-86.9-.9c7.2 4.6 7.2 11.6 7.9 18.5.1 2.2-.1 4.6.1 6.8.1 1 .9 2.1 1.4 3 1-.7 2.2-1.2 2.9-2.1.8-1 1.3-2.5 2-4.2.9.3 1.8.4 2.7.7-1.7 8.2-6 12.3-12.2 11.9-5.5-.4-8.9-3.8-8.9-9.3 0-5.6.5-11.4.5-17 0-6.7-3-9.6-10.1-9.9-1.8 7.2-3.7 14.5-5.5 21.7-.7 2.5.4 3.9 2.9 4.6 1.3.3 2.7.8 4.3 1.2-.3 1.2-.5 2.4-.9 3.8-9.2-2.4-18.2-4.6-27.5-6.9.4-1.4.7-2.5.9-3.5.4-.1.7-.3.8-.1 6.8 1.6 6.8 1.6 8.5-5.2 3.4-13.5 6.9-27 10.3-40.4 1.4-5.8 1.3-5.9-4.3-7.5-.5-.1-1-.3-1.8-.5.4-1.3.7-2.4 1-3.9 11.5 3.3 23.2 5.8 34.3 9.7 9.8 3.4 13.2 12.8 8.8 21.1-2.6 4.8-6.8 7.2-12.2 7.6-1.6.1-3.8-.1-5.9-.1zm-12.5-4.8c4.3.3 8.4 1 12.2.5 5.4-.8 9-7.5 8.8-14.4-.3-5.2-4.1-8.5-11-9.7-2.5-.4-3.9.3-4.6 2.7-1.9 6.8-3.6 13.3-5.4 20.9zm307.6-222.3c7.2 6.5 14.4 13.3 21.7 19.8 3.7 3.3 5.9 2 7.5-4.2 1 .1 2.1.1 3.7.3-.7 7.6-1.2 15.2-1.8 22.9-1.4-.1-2.5-.1-3.9-.3.9-6.5-3-10.6-6.9-14.5-2.6-2.6-5.5-5-8.1-7.6-1.4-1.6-2.7-1.2-4.3-.5-9.8 4.2-19.6 8.4-29.6 12.3-3.8 1.6-6.2 4.1-6.2 8.4h-3.9c.8-9.2 1.4-18.1 2.2-27.2h3.5c.1.4.3.5.3.8 0 7.5 0 7.5 7.1 4.6 6.5-2.7 13.1-5.5 19.9-8.4-2.9-2.6-5.4-5.1-8.2-7.3-.8-.7-2.2-.7-3.4-.8-3.1-.3-6.3-.5-9.4-.8-4.2-.3-4.6.1-5.1 4.3-.1.9-.1 2-.3 3-1.3-.1-2.5-.1-3.9-.3.8-9.2 1.6-18.2 2.2-27.3 1.3.1 2.4.1 3.4.3.1.5.4.8.4 1-.7 6.3 0 6.5 6.7 7.1 14.1 1.2 28.3 2.4 42.4 3.4 5.4.4 5.5.1 5.9-5.1 0-.4.1-.8.3-1.4h3.9c-.8 9.3-1.6 18.3-2.2 27.5h-3.7c0-1.8.3-3.5-.1-5.2-.3-1.2-1.4-3.1-2.2-3.1-8.9-1-17.9-1.7-27-2.4-.6.1-.8.4-.9.7zm-253.5-257c-1.3-4.3-2.9-8.5-3.8-12.8-1.2-6.2 1.8-12 7.2-14.8 5.8-3 14.1-2.2 18.2 1.6 4.7 4.3 4.8 11.8-.1 17-2.7 2.9-6.2 5.1-9.9 8.1 4.3 6.5 8.8 13.3 13.7 20.8 1.6-3.3 2.9-5.6 3.9-8.1 2.4-6 .8-8.4-6.3-9.4 0-1-.1-2.2-.3-3.4.7-.1 1-.3 1.4-.3h19.9c0 .7.1 1.7.1 3.1-5 0-7.3 3.1-9.2 6.9-2.2 4.4-4.4 8.9-6.8 13.5 2.6 2.6 5.1 6.2 9.6 5.1 3.9-.9 4.1-4.7 4.4-8.2.9 0 2-.1 2.9-.1 1.2 9.3-2.7 15.7-10.2 17-4.7.8-8.8-.9-12.4-3.8-1.6-1.3-2.6-1.2-4.2 0-3.8 2.7-8.1 4.6-13 4.8-8 .4-14.1-2.7-17-9-3.4-7.3-2.4-14.4 2.9-20.4 2.9-3 6.2-5.1 9-7.6zm2.5 4.4c-6.5 4.8-6.9 14-.9 21.3 4.4 5.5 10.6 6 16 1.3-2.6-3.7-5.4-7.3-8-11.1-2.5-3.6-4.7-7.6-7.1-11.5zm6.7-9.4c7.2-3.7 9.6-9.9 7.1-16.6-.9-2.5-2.7-4.1-5.4-3.9-2.7.1-4.4 1.7-5.1 4.3-.4 1.4-.7 3.1-.3 4.4.9 3.9 2.4 7.7 3.7 11.8zm186.3 362.2c6.5-15.8 13.1-31.3 19.6-47 1.2.4 2.2.8 3.7 1.3-.7 1.4-1.2 2.9-1.7 4.2-1 2.5-.4 4.2 2.1 5.2 14.5 6 29 12.2 43.7 18.2 2.4 1 3.9.3 5-2.1.5-1.4 1.2-2.7 1.8-4.3 1.2.5 2.4.9 3.5 1.6-6.3 15-12.6 30-18.8 45.1-6.9-2.5-13.6-5-20.7-7.5.4-1 .8-2.1 1.2-2.9 3.4.5 6.4 1 9.6 1.3 5 .3 9.2-1.3 11.5-5.9 1.7-3.3 3.3-6.7 4.4-10.2.4-1-.5-3.3-1.4-3.7-6.5-3-13.2-5.6-19.8-8.4-4.2 6.4-2.9 9.9 5.6 16.2 0 .1.1.3.1.3-.3.8-.7 1.6-1 2.7-9-3.8-17.9-7.5-27-11.3.4-1 .7-2 .9-2.5 3.8.3 7.3 1 10.7.5 3.8-.7 5.4-4.1 6.5-7.7-7.2-3-14.3-6.2-21.5-8.9-.9-.4-3.1.7-3.7 1.6-1.7 3.4-3.4 6.9-4.2 10.6-1.6 7.1 2 12.2 7.2 16.4 1.6 1.3 3.4 2.4 5.4 3.8-.3.9-.7 1.8-1 3.1-7.1-3-14.2-6.3-21.7-9.7zm36 51.8c.9.8 1.8 1.6 2.9 2.5-10.5 12.6-20.8 24.9-31.4 37.6-5.9-4.4-11.6-8.8-17.5-13.2.8-.9 1.3-1.7 2-2.5 2.7 1.3 5.4 2.7 8 3.8 6 2.5 10.7 1.4 15-3.4 1.8-2 3.5-4.2 5.2-6.3 1.7-2 1.6-3.7-.5-5.2-5.4-4.3-10.6-8.8-15.8-13.2-5.4 4.2-6.5 9.6.8 17.3-.7.8-1.2 1.4-2.1 2.5-7.5-6.2-14.8-12.3-22.2-18.6.7-.9 1.3-1.8 1.8-2.6 10.3 5.6 13.2 5.4 18.3-1.4-6-5-11.9-10.1-18.1-14.9-.8-.5-3.1-.1-3.9.7-2.5 2.6-5 5.5-6.9 8.6-3.1 4.8-2.4 10.1.3 14.9 1.6 2.9 3.7 5.4 5.6 8.4-.5.7-1.2 1.4-2 2.4-6-5.4-11.8-10.6-17.8-16 11-13.1 21.7-26 32.7-39.1 1 .9 2 1.6 2.9 2.4-.4.5-.5.9-.8 1.3-4.3 5.5-4.3 5.5 1 9.9 10.7 9 21.6 18.1 32.3 27.1 4.1 3.4 4.4 3.4 8.1-.8.8-.9 1.3-1.4 2.1-2.2zM125.3 186.9c1 .8 2 1.4 3.1 2.2-2.2 3.1-4.3 6.2-6.4 9-2.1 3-4.3 6-6.5 9.3-1-.7-2-1.3-3-1.8 2.7-6.9 1.8-10.3-4.4-14.8-9.8-6.9-19.5-13.9-29.3-20.8-4.3-3-6.8-2.7-10.2 1.4-.4.4-.7.8-1.2 1.4-1-.7-2-1.4-3.1-2.2 3.1-4.4 6.2-8.9 9.4-13.1.7-.8 2.2-1 3.5-1h49.9c-1.6-1.2-2.5-1.8-3.4-2.5-6.5-4.6-13-9.2-19.5-13.7-5.6-3.9-8.5-3.9-14 .3-.9-.5-1.8-1.2-3.1-2.1 3.9-5.6 7.9-11.1 11.8-16.7 1.2.8 2.1 1.4 3 2.1-2 6.9-1.2 8.9 4.6 13.1 12 8.5 24.2 17.1 36.2 25.6.9.7 1.7 1.3 2.7 2-.9 2.7-2.5 3.8-5.5 3.8-18.7-.1-37.4-.1-56.3-.1.4.4.9.9 1.4 1.3 8.5 6 17 12 25.6 18.1 1.4 1 3.1 2 4.8 2.5 4 1.8 7.1.3 9.9-3.3zm-86.8 80.8c-1.8-1.2-3.4-2.1-4.8-3.3-.5-.4-.9-1.6-.8-2.1s1.3-1 2-1c7.6.4 15.2.8 22.9 1.2.5 2.2.1 3.3-2.4 3.8-4.3.9-8.8 2-12.7 4.1-10.6 5.4-11 17.9-.7 23.6 5 2.7 11 4.3 16.6 5.1 7.2.9 14.5 1 21.7.4 6.8-.7 10.9-5.1 11.8-10.9.9-6.5-2.2-11.8-8.6-13.5-3-.8-6.3-1-9.4-1.3-2-.1-3 .8-3.1 2.9-.1 1.7-.4 3.4-.7 5.2h-3.8c.9-9.2 2-18.1 2.9-27.1 1.3.1 2.4.3 3.3.4.1.4.4.5.4.8-.1 6-.1 6 5.8 6.7 6.5.8 13 1.4 19.5 2.2.8 2.1.1 3.1-2 3.7-2.7.8-5.5 1.8-8.2 2.7.1.4.1.7.3.8 13.6 9.9 8.1 29.6-4.4 37.2-13.7 8.2-36.5 4.7-46.8-7.5-9.4-11-9-23.4 1.2-34.1zm504.2-93.5c1-.7 2-1.2 3.1-2 3.7 6 7.3 11.9 11.1 18.1-1 .8-2 1.4-2.9 2-4.7-4.7-7.5-5.1-13.2-1.7-7.6 4.6-15.3 9.2-22.8 14-17.1 11.3-31.1.7-35.2-15.2-2.4-9 .4-15.2 8.8-20.5 9.6-6 19.2-11.9 28.9-17.8 5.5-3.4 5.5-3.4 2.2-9-.3-.4-.4-.8-.5-1.3 1-.7 2-1.2 3.3-2 5 8.1 9.8 16 14.7 23.9-1.2.8-2.2 1.4-3.1 2-.4-.3-.5-.4-.7-.5-3.8-6.9-3.8-6.5-10.9-2.1-8.1 5-16.4 10.1-24.5 15-1.2.8-2.4 1.4-3.5 2.4-6.4 4.8-7.9 10.7-4.3 17.1 3.8 6.8 10.1 9.2 17.4 6.3 1.4-.5 2.9-1.2 4.1-2 7.9-4.8 15.8-9.6 23.7-14.5 5.5-3.4 6.4-6.4 4.3-12.2zM386.8 68.5c3.3-6.9 6.7-14 10.1-21.3 15.2 6.3 30.2 12.4 45.4 18.7-2.6 7.6-5.2 14.9-7.9 22.5-1-.4-2-.7-3-1 .1-1 .3-2 .3-3 .1-4.6.8-9.2.3-13.6-.3-2.2-2.4-4.6-4.2-6.2-2.6-2.2-4.4-1.4-5.8 1.7-4.4 10.9-8.9 21.7-13.5 32.6-1.4 3.5-2.9 7.1-4.4 10.6-1.2 2.7-.7 4.6 2.2 5.6 1.4.5 2.7 1.2 4.4 1.8-.5 1.3-.9 2.4-1.4 3.7-9.3-3.8-18.5-7.6-27.7-11.4.5-1.3 1-2.4 1.6-3.5 1.6.7 3 1 4.4 1.7 2.9 1.3 4.4.4 5.5-2.4 5.8-14.3 11.8-28.5 17.7-42.8 1.4-3.5.3-5.4-3.5-5.9-3.5-.4-6.5 1-8.9 3.3-2.7 2.6-5.2 5.6-7.5 8.6-1.2 2-2.4 2-4.1.3zM241.1 95.9c.7 1.4 1.2 2.5 1.8 3.8-7.9 3.9-15.6 7.9-23.4 11.8-.7-1.2-1.2-2.2-1.7-3.1.3-.3.3-.5.5-.7 6.8-3.9 6.8-4.3 1.2-9.6-2.2-2.1-4.3-5.2-6.9-5.6-2.4-.4-5.2 2.2-7.9 3.5-2.9 1.4-5.9 2.9-8.6 4.4-.9.5-1.7 1.8-1.7 2.9-.1 2.1.3 4.2.7 6.2 1 5.1 4.4 6.9 9.4 5 .5-.3 1-.4 1.7-.8.5 1 1.2 2.1 1.8 3.4-6.3 3.1-12.4 6.3-19 9.6-.5-1-1.2-2.1-1.8-3.3 4.7-2.7 4.6-7.1 4.1-11.5-2-17.5-3.8-35.1-5.8-52.6-.1-1.6-.7-3 1.4-4.1 2.1-1 3 0 4.2 1.2 13.6 12.6 27.2 25.1 40.8 37.7 2.8 2.7 5.4 5 9.2 1.8zm-50.4-24.3c1 9 2 17 2.9 25.4 5.6-2.9 10.6-5.4 15.8-8.1-6.3-5.7-12.2-11.2-18.7-17.3zm-61.4 379.1c-9.3 3.4-18.6 6.8-27.7 10.3-2.2.8-4.4 1.7-6.5 2.9-5 2.7-5.5 5.4-2.1 9.9.3.4.5.7.8 1.3-.9.8-1.7 1.6-2.7 2.6-4.7-5.5-9.3-10.9-14-16.5.9-.8 1.7-1.6 2.7-2.6 3.4 4.2 7.5 3.1 11.5 1.6 16.6-6.2 33.2-12.4 49.9-18.6 1.6-.5 2.7-1.2 4.3.5 1.6 1.8.9 3 0 4.6-8.9 15.7-17.7 31.5-26.6 47.2-2.1 3.8-3.8 7.3.5 10.7-1.2 1-2.1 1.7-3.1 2.6-6-7.1-11.8-13.9-17.8-20.9 1-.9 2-1.6 3-2.5 1.2 1.3 2.1 2.4 3.3 3.4 2.4 2.2 3.5 2.1 5.1-.7 2.7-4.4 5.2-9 7.7-13.6 4.1-7.3 8.1-14.7 12.2-22v-.8c-.4.4-.4.5-.5.6zm442-193.1c2.1 1.8 6.3-.4 6.8 4.3-8 2.2-15.8 4.4-24.1 6.7-.4-1.2-.7-2.1-.8-2.6 4.3-3 8.8-5.2 12.2-8.6 2.4-2.2 4.2-5.8 4.7-9 1.2-6.9-4.1-12.4-11.9-13.5-8.1-1-15.8.4-23.6 2.7-4.6 1.4-9.2 3.5-13.3 5.9-4.8 2.6-7.7 6.8-7.1 12.6.7 6.3 4.2 10.7 10.2 12.8 3 1 6.4 1.3 9.6 1.4 2.2.1 3.3.7 2.9 3-9.4 2.7-24.6-2.4-27.6-16.5-1.7-8.4.4-15.6 5.8-22 9.9-11.9 30.6-16.4 44.6-9.6 10.6 5.1 16.5 16.2 13.7 26.2-.4 2-1.3 4.1-2.1 6.2zm-465.1-39.3c1.3.5 2.4.9 3.7 1.4-3.4 9-6.8 17.9-10.2 27-1.3-.5-2.4-.9-3.7-1.4.3-.7.4-1.2.5-1.7 2.2-6.4 2.2-6.4-4.2-8.8-13-4.8-25.8-9.8-38.7-14.7-6-2.2-6.2-2.2-8.5 3.8-.3.5-.4 1-.8 1.8-1.2-.4-2.2-.8-3.7-1.3 3.4-9 6.7-17.8 10.2-27 1.2.4 2.2.8 3.7 1.3-.7 1.8-1.2 3.4-1.7 5-.7 2 0 3.4 2 4.2 14.9 5.6 29.8 11.3 44.8 17 2.4.9 4.1.1 4.8-2.2.6-1.4 1.1-2.7 1.8-4.4zM71.5 443.4c-1.2.7-2.1 1.2-3.4 1.8-4.4-8.6-8.6-17.1-13-25.6 1.2-.7 2.1-1.2 3.4-2 .8 1.4 1.6 2.9 2.2 4.3 1 2.2 2.6 2.7 4.8 1.6 14.1-7.2 28.4-14.3 42.5-21.5 2.4-1.2 2.9-2.7 1.7-5.1-.7-1.3-1.2-2.5-2-4.2 1.2-.5 2.2-1.2 3.5-1.7 4.3 8.6 8.6 17 13 25.6-1.3.7-2.2 1.2-3.4 1.7-.4-.5-.7-.8-.8-1.2-3.4-6.2-3.4-6.2-9.8-2.9-12.4 6.3-24.9 12.6-37.3 18.8-4.8 2.4-5 3-2.6 7.7.4 1 .8 1.8 1.2 2.7zm47.9-335.2c-.9-1-1.6-1.8-2.6-3 7.3-6.3 14.5-12.3 21.9-18.6.9 1 1.7 1.8 2.4 2.7-.1.4-.3.7-.4.8-6.3 5.5-6 4.6-.7 11 8.8 10.3 17.5 20.5 26.3 30.9 4.2 4.8 4.3 4.8 9.3.8.4-.3.7-.5 1.2-.9.5.4.9.8 1.4 1.2.4.4.7.8 1.3 1.6-7.3 6.2-14.5 12.3-21.9 18.6-.9-1-1.7-2-2.5-2.9.4-.4.7-.8 1-1 5.2-4.8 5.2-4.7.5-10.2-9-10.6-18.1-21.2-27.1-31.8-3.5-4.2-3.9-4.2-8.1-.8-.6.2-1.2.9-2 1.6zm316.8 418.2c0-6.2 5-11 11.3-11 6.4 0 11.6 4.8 11.5 11.1-.1 6.2-5.1 11.1-11.3 11.1-6.4.2-11.5-5-11.5-11.2zm19.7 0c0-5-3.8-8.9-8.5-8.8-4.7 0-8.6 4.1-8.5 8.9 0 5 3.8 8.8 8.6 8.8 4.9-.2 8.6-4 8.4-8.9zm-163.8 55.1c-3.4 0-6.4-3.4-6.4-7.3s3-7.2 6.5-7.2 6.4 3.3 6.4 7.2c0 3.9-3 7.3-6.5 7.3zm103.4-23.6c0-3.8 2.4-6.4 5.8-6.5 3.9-.1 7.3 3.5 7.3 7.6 0 3.7-2.9 6.7-6.2 6.7-3.8-.1-6.9-3.7-6.9-7.8z"/>
    <path class="color-yellow color-reserved-white" fill="#f4dc71" d="M421.8 151.9v314.4h-20v50c-1.4-1.2-2.2-2-2.9-2.6-47.5-47-94.9-93.8-142.4-140.8-21.2-20.9-42.3-41.9-63.6-62.8-1.8-1.8-2.6-3.7-2.6-6.3.1-49.3.1-98.5 0-147.9 0-3.1.7-4.3 4.1-4.3 74.5.1 148.9.1 223.4.1 1.1.2 2.3.2 4 .2zM241.2 222c-.3-.3-.7-.5-.9-.8-.5.8-1 1.4-1.6 2.2-.5.8-1 2-1.6 2.1-.8 0-1.8-.8-2.2-1.6-.9-1.6-1.7-3.3-2.1-5.1-.3-.9 0-2.4.7-3 6.4-6.8 8-14.8 6.4-23.7-2.4-13.7-16.6-21.5-28.4-15.2-7.2 3.8-10.3 10.3-11.1 18.1-1.3 12.2 5.2 23.9 16.7 25.8 2.6.4 5.4 0 8 0 2 8.9 4.2 11.8 8.9 11.3 4.3-.5 7.1-4.5 7.2-10.1zm87.1-44.4c.3.4.5.7.8 1h2.6c2 0 3 .8 3 2.9v32.7c0 2.2-1 3.3-3.1 3.1h-2.5c-1 2.9.5 2.9 2.4 2.9h30.4c.8 0 1.7-.1 2.9-.3v-16.4c-.3-.1-.5-.3-.7-.5-.5.9-1.3 1.7-1.6 2.6-2.2 9.8-7.3 13.3-17 11.5-.8-.1-2.1-1.4-2.1-2.2-.1-5.4-.1-10.6-.1-16 5.5-.5 7.6 1.2 8.6 6.7.1.9 1 1.7 1.6 2.6.3-.1.5-.4.8-.5v-20.2c-.3-.1-.7-.3-.9-.5-.5.8-1.3 1.6-1.4 2.5-1.3 5-3.4 6.7-8.6 6v-9.4c.1-8.6-1.6-7.7 8.2-7.6 4.7 0 7.5 2.4 8.8 6.8.5 1.6.8 3.1 1.2 4.7.1.5.8.8 1.2 1.2.4-.5 1-1 1-1.6-.1-4.6-.4-9.2-.7-13.9-11.1 0-22 0-33 .1-.4.1-1.1 1.2-1.8 1.8zm-4.9 42.4v-14c0-.9-.5-1.8-.9-2.7-.7.8-1.6 1.6-1.7 2.5-2.4 9.6-7.2 13-16.9 11.4-.9-.1-2.4-1.3-2.4-2-.3-5.4-.1-10.9-.1-16.2 5.6-.3 7.5 1.2 8.6 6.2.3 1 .9 2.1 1.4 3 .3-.1.7-.3.9-.5v-20.2c-.3-.1-.7-.3-.9-.4-.5.9-1.3 1.8-1.6 2.9-1.3 4.7-3.5 6.3-8.5 5.6v-9c.1-8.9-1.6-8.1 8.6-8 4.3.1 7.1 2.4 8.4 6.5.5 1.6.7 3.3 1.3 4.7.3.7 1.2 1.2 1.8 1.7.3-.1.5-.4.8-.5-.3-5-.5-10.1-.8-15.2h-32.5c-2.1 0-2.5.8-1.8 2.6.4 0 .8.1 1.3.1 4.4.1 4.4.1 4.4 4.7 0 9.9-.1 19.9 0 29.7 0 3-.7 4.7-3.9 4.3-2.1-.3-2.4.9-1.7 2.7 11.8.1 23.5.1 36.2.1zm46.8-41.6c2.9.4 6.2.4 6.2 4.3.1 9 .1 18.1 0 27.1 0 3.5-1 6.8-5.4 7.5-.5.1-1.2 1-1.2 1.4 0 .5.9 1.3 1.4 1.3 4.2.1 8.5.1 12.7 0 .5 0 1.2-.9 1.7-1.3-.4-.5-.8-1.2-1.3-1.4-4.1-1.6-5.1-2.9-5.1-7.2-.1-7.2 0-14.4 0-21.6 0-.8.1-1.6.3-2.9 1 1.4 1.7 2.4 2.5 3.4 6.8 9.7 13.6 19.5 20.4 29.2 1 1.6 2.2 2.7 4.4 1.4v-33.9c0-3.1.7-5.8 4.2-6.9.7-.3 1-1.6 1.7-2.7h-15.4c.9 1.3 1.3 2.4 2 2.6 3.7 1.3 4.6 4.1 4.6 7.5v17c0 .7-.3 1.3-.4 2.4-6.7-9.6-13.1-18.6-19.6-27.6-.7-.9-1.7-1.8-2.6-1.8-3.5-.3-7.2-.1-10.7-.1-.4.9-.4 1.5-.4 2.3zm-108.9-2.6h-17.8c-2.1 0-2.4.9-1.7 2.6 5.2.4 5.2.4 5.2 5.8v22.9c0 5.8 2.2 10.1 7.7 12.4 12.7 5.4 23.4-1.7 23.4-15.3v-19c0-3.1.8-6.2 4.7-6.8.5-.1.9-1.4 1.4-2.5h-16c.5 1 .8 2.4 1.3 2.5 4.2.8 4.8 4.1 4.8 7.5.1 6.3 0 12.7 0 19 0 .9-.1 2-.4 2.9-.9 5.8-4.7 8.9-10.3 8.6-5.2-.3-8.5-3.8-8.6-9.7-.1-7.3 0-14.7 0-21.9 0-5.8 0-5.8 5.8-6.7.5-.6.5-1.2.5-2.3zm13.8 137v13.5c-.8.1-1.2 0-1.6.3-.7.4-1.2.8-1.7 1.3.5.3 1.2.9 1.7.9 3.5.1 7.2.1 10.7 0 .4 0 .9-.7 1.3-1-.4-.4-.8-1-1.2-1-2.1 0-2.6-.9-2.6-2.9 0-8 0-16 .1-23.8 0-.9 1.2-1.8 2-2.6.5-.5 1.3-.9 2-1.3-.1-.3-.3-.7-.4-.9h-12c-.5 0-1 .7-1.7 1 .5.4 1 .8 1.6 1.2.7.7 2 1.3 2 2 .3 3.4.1 6.9.1 10.5H264c0-3.7-.1-7.1.1-10.5 0-.7 1.2-1.3 2-2 .5-.4 1-.8 1.6-1.2-.5-.4-1-1-1.6-1-4.1-.1-8 0-13 0 .9 1.2 1.4 2.1 1.8 2.1 2.5.1 2.6 1.7 2.6 3.5v22.9c0 1.7-.1 3-2.4 3-.4 0-.9.7-1.3 1 .5.4 1 1.2 1.6 1.2 3.5.1 7.2.1 10.7 0 .5 0 1-.8 1.6-1.2-.4-.4-.8-.8-1.3-1-.5-.3-1.3-.3-2.1-.4v-13.5c3.6-.1 7.1-.1 10.8-.1zm70.3 13.4c-2.7-5.5-2.2-11.9-8.8-14.4 1-.3 1.6-.4 2-.5 4.8-1.4 7.2-4.3 6.9-8.2-.3-4.2-2.9-7.1-8-7.6-5.8-.5-11.5-.3-17.3-.4-.4 0-.9.7-1.3.9.5.4 1 1.2 1.4 1.2 2.4 0 2.6 1.3 2.6 3.1v23.2c0 1.7-.3 3-2.5 3-.5 0-1 .7-1.7 1 .7.4 1.2 1.2 1.8 1.2 3.8.1 7.6.1 11.4 0 .7 0 1.2-.7 1.8-.9-.5-.4-1.2-.9-1.7-1.3-.9-.7-2.6-1.3-2.6-2-.3-3.9-.1-8-.1-11.9 4.7-.1 5.6.4 6.5 4.4.7 2.5.9 5 1.6 7.3.9 3.7 3.5 5.2 6.8 4.4 3-.8 4.6-4.2 3.4-8.4-.5 2.1-1.2 3.4-2.2 5.9zm29.3 42c.4-.3.7-.4 1-.7v-16.4c-2.7 3-2.6 8.6-8.2 6.9 0-3.5-.1-7.1.1-10.6 0-.8 1.3-2 2.1-2.1 7.5-.9 9.4.5 11.5 7.7.3.7.8 1.3 1.2 2 .3-.1.5-.3.8-.4-.3-3.8-.5-7.5-.7-11.6h-24.6c-.5 0-.9.7-1.4.9.5.4.9 1.3 1.4 1.2 2.9-.3 3.1 1.3 3.1 3.7-.1 7.5-.1 14.8 0 22.2 0 2.2-.4 3.7-3 3.5-.5 0-1 .8-1.6 1.2.5.4 1 .9 1.7.9 3.3.1 6.5 0 9.8 0h15.8v-12.8c-.3 0-.5-.1-.9-.1-.3.9-.7 1.7-.9 2.6-1.6 6.5-6.2 9.6-12.7 8-.7-.1-1.7-1.2-1.7-1.8-.1-4.1-.1-8-.1-11.9 5.8-.8 6.1 3.8 7.3 7.6zm-87.6-56.3v2.2c.9 10.5 9.4 17 18.8 14.8 6.2-1.4 10.6-7.3 11.6-15 1.4-10.6-6-19.9-15.8-19.6-8.4.2-14.7 7.8-14.6 17.6zm60.2 52.9c-.3.1-.4.1-.7.3-3.9-5.5-8.2-10.9-11.8-16.7-2.6-4.6-6-6-11-5.2h-.3c-.7.4-1.3.8-1.8 1.2.5.4 1.2.7 1.6 1.2 1.2 1 3.1 2.2 3.1 3.4.3 6.8.1 13.7.1 20.5 0 2.4-.9 4.4-3.7 5.2-.7.1-1 1-1.8 2.1h13.3c-1.3-1.2-2-1.7-2.5-2.2-1-1.2-3-2.5-3-3.8-.3-6.3-.1-12.7-.1-19.8 1 1.4 1.7 2.2 2.4 3.1 5 7.1 9.8 14.1 14.9 21.1.7.9 1.8 1.4 3.4 2.6.1-1.7.3-2.5.3-3.3v-22.9c0-2.6.3-5 3.3-6 .5-.1.7-1.2 1.3-2.4h-9.4c-.5 0-1.2.7-1.7.9.4.5.9.9 1.3 1.6 1 1.4 2.7 2.7 2.9 4.3.2 4.7-.1 9.8-.1 14.8zm-5.1-95.7c-.3-.1-.5-.4-.9-.5.3-1 .4-2.2.8-3.3 1.4-4.8 3.1-9.6 4.3-14.4.4-1.7 0-5.1-1-5.5-1.7-.8-4.7-.7-6.3.5-2.9 2-5 4.7-7.5 7.2-.8.8-1.6 1.4-2.2 2.1l-.4-.4c2.6-8.5 5.2-17 8-26-3.9.7-7.3 1.3-10.9 1.8 5 1.4 5 1.4 3.4 6.5-1.3 4.3-2.6 8.5-3.9 12.8-2.1 7.1-4.2 14.1-6.4 21.5h4.7c.5-1.7.8-3.4 1.7-4.8 3.3-5.4 6.5-10.7 10.2-15.8 1-1.3 3.4-1.7 5.2-2.5-.1 1.7.1 3.5-.4 5.2-1.3 5.1-2.9 10.1-4.2 15-.5 2 0 3.5 2.4 3.7 2.7.3 7.6-4.1 8-7.1-1.4 1.3-3 2.7-4.6 4zm46.3 95.3c-.4.1-.7.3-1 .3V377c.4.3.8.5 1.2.9.7-1.3 1.4-2.6 2-3.5 2.7 1.2 5 2.5 7.3 3 5.5 1.3 11.5-2.4 12.8-7.5 1.7-6.2-.9-10.7-7.3-12.7-2.4-.8-4.8-1.3-7.2-2.1-3.5-1.2-5-3.5-4.2-6.4.9-3.1 4.1-4.8 7.5-4.1 3.8.9 5.8 3.7 7.2 6.9.5 1 1 2 1.7 3 .3-.1.5-.3.7-.3V342c-1.4 1.4-2.2 2.4-3.1 3.3-1-.7-2-1.3-3-1.8-5.6-2.9-12.2-.8-14.4 4.6-2.5 6 0 11.5 6.4 13.7 2.6.9 5.2 1.4 7.9 2.2 2.6.9 4.2 2.6 3.9 5.6-.3 2.9-1.8 4.6-4.6 5.2-5 1.3-9.4-1-11.8-6.3-.8-1.4-1.3-2.8-2-4.1zm-143-67c-1.3-.8-2.5-1.6-3.8-2.2-5.5-2.4-11.6-.1-13.7 5.1-2.5 6-.1 11.3 6.2 13.5 2.4.8 4.8 1.4 7.2 2.1 3.8 1.2 5.4 3.1 4.8 6.3-.5 3.1-2.9 5-6.5 5.1-5 .1-8.2-2.4-10.3-7.9-.4-1-1-2-1.6-3-.3.1-.5.3-.8.4V329c.4.3.8.5 1 .8.8-1.3 1.4-2.5 2.2-3.8 1.2.8 2.1 1.3 3 1.8 4.4 2.4 8.8 2.2 13-.7 3.8-2.5 4.7-6.3 4.1-10.6-.7-4.8-4.2-6.8-8.5-8-2.5-.7-5.1-1.2-7.5-2.2-3.7-1.6-4.3-6-1.3-8.5 2.5-2.1 5.5-2.4 7.9-.5 2.2 1.7 3.7 4.3 5.5 6.7.7.8 1.2 1.6 1.7 2.4.3-.1.4-.3.7-.4v-11.1c-.3-.1-.5-.3-.7-.4-.9 1-1.7 1.8-2.6 2.9zm104.2 10.3c.4.1.9.1 1.3.3.3-.8.5-1.7.9-2.5 1-2.4 2-4.8 3.4-6.9.7-.9 2.5-1.2 3.8-1 .4 0 1 2 1 2.9.1 7.6 0 15.3.1 22.9 0 2.2-.5 3.3-3 3.1-.7 0-1.2.7-1.8 1 .5.4 1 1 1.7 1 4.7.1 9.3 0 14 0 .1-.3.3-.5.5-.9-.7-.5-1.3-1.3-1.8-1.3-2.9.3-3.1-1.3-3.1-3.5.1-7.3 0-14.7.1-21.9 0-1.2.7-2.5 1-3.7 1.6.7 3.7.8 4.4 2 1.4 2 2 4.6 2.9 6.8.3.7.8 1.2 1.3 1.8.3-.1.5-.3.8-.4-.3-4.1-.5-8.1-.7-12.4h-26.3c-.1 4.5-.3 8.5-.5 12.7zM301.8 364c-.4-.1-.7-.3-1-.4-.4 1-1 2-1.3 3-2.1 6.5-4.6 8.4-11.1 8-2.1-.1-2.7-.9-2.7-3 .1-7.9 0-15.7 0-23.6 0-1.8.5-2.9 2.6-2.7.7 0 1.3-.7 2-1-.7-.4-1.2-1.2-1.8-1.2-3.9-.1-7.9-.1-11.8 0-.7 0-1.2.8-1.8 1.2.5.4 1.2 1 1.7 1 2.5-.1 2.9 1.2 2.9 3.3-.1 7.5-.1 15 0 22.5 0 2.1-.3 3.7-2.9 3.5-.5 0-1 .7-1.6 1 .7.4 1.3 1 2 1 5.5.1 10.9 0 16.4 0h8.2c-.2-4.4.1-8.4.2-12.6zm-2.1-133.4c-.1.5-.4 1-.3 1.6.1.9.3 2.4.7 2.5.9.3 2.4.1 2.9-.4s.8-2.4.4-2.7c-1-1-2.7-2.4-3.9-2.2-2.5.3-5.5.8-7.2 2.2-2.7 2.4-5 5.6-7.1 8.8-1.7 2.6-3 5-6.5 5.1-.5 0-1 .8-2.2 1.7 2.6.3 4.3.4 6.2.5-2.6 9.3-5 18.3-7.6 27.3-.5 2-1.4 3.9-2.5 5.6-1.4 2.1-3.4 3.7-5.2 3.1-.7-1.7-1-2.9-1.6-3.9-1 .5-2.2 1-3.3 1.6.8 1.2 1.2 2.7 2.2 3.3 1 .5 3 .5 4.1 0 2.4-1.2 5-2.5 6.5-4.6 2.4-3.1 4.4-6.8 5.8-10.5 2.4-6.5 4.1-13.3 5.9-20 .4-1.7 1-2.4 2.9-2.4.9 0 1.8-.5 2.9-.8-.1-.4-.3-.7-.3-1-1.2-.1-2.5-.3-3.7-.3.9-9.8 5.5-15.4 10.9-14.5zm-27 23.3c0-5.9-3.9-9.7-9.9-9.6-9 .3-17.8 9-18.1 18.1-.1 5.4 3.5 9.4 8.9 9.8 9.7.6 19.1-8.3 19.1-18.3zm83.1 6.4c1.4-.3 2.7-.4 4.1-.7 4.7-.8 9.4-2.1 13.1-5.5 2-1.7 3.4-3.8 2.5-6.5-1-2.9-3.7-3.1-6.2-3.1-9.4-.1-18.8 8.9-19.4 18.3-.3 4.1 2.2 7.7 5.8 9 5.4 1.8 14.7-1.7 17.1-6.4-3.3 1.2-6.9 3.1-10.7 3.5-4.7.6-7.2-3.2-6.3-8.6zm-52.7 115.5c.3.3.4.7.7.9h13.1c.5 0 1.2-.7 1.7-.9-.5-.4-1-1.2-1.4-1.2-2.7.1-2.9-1.6-2.9-3.7v-22.5c0-2 .3-3.4 2.7-3.3.5 0 1-.7 1.6-1-.5-.4-1-1-1.6-1-4.1-.1-8.1-.1-12 0-.5 0-1 .8-1.6 1.2.5.4 1.2 1 1.6 1 2.7-.1 3 1.3 3 3.5-.1 7.5-.1 15 0 22.5 0 2.1-.4 3.3-2.9 3.4-.7-.1-1.4.7-2 1.1zm15.7-138.9c-4.2 3.5-8 6.7-11.9 9.9 1.2.1 2.4.1 3.9.3-.4 1.3-.5 2.2-.9 3.3-1.7 5.8-3.4 11.4-5 17.1-.8 2.9.4 4.4 3 4.6 3.3.1 7.9-3.8 8.4-7.3-2 1.7-3.9 3.3-6.3 5.4-.1-1.7-.3-2.4-.1-3 1.8-6.3 3.7-12.4 5.8-18.7.3-.7 1.6-1 2.4-1.4 1-.4 2.1-.4 3.1-.7 0-.3-.1-.7-.1-.9-1.4-.3-2.9-.4-4.4-.7.8-2.8 1.4-5.1 2.1-7.9z"/>
    <path class="color-yellow color-reserved-white" fill="#f3cc47" d="M66.6 365.8c-7.2 1.6-14 3-20.9 4.4-1.8.4-3-.5-3.7-2.4-2.9-7.5-.9-13.2 5.5-15.6 9-3.3 15.2-.7 17.5 7.6.7 1.8 1.1 3.7 1.6 6zm397.3-248.9c4.7-5.6 9.2-10.9 13.6-16.2 1.4-1.7 3.1-1.8 4.8-.4 3.5 2.9 7.3 5.6 6.7 11.1-.5 4.4-6.2 11.1-10.6 11.8-2.5.4-5.4-.4-7.7-1.4-2.3-1.1-4.4-3-6.8-4.9zM339.2 543.2c-.7-7.2-1.3-14.1-1.8-21.1-.1-2.1 1-3 3-3.5 8-1.7 13.1.9 14.5 7.5 2.1 9.6-1 14.9-9.7 16.6-1.7.3-3.5.3-6 .5zm-99.4-5.7c2-7.5 3.7-14.1 5.4-20.7.7-2.5 2.1-3.1 4.6-2.7 6.9 1.2 10.7 4.3 11 9.7.3 6.9-3.4 13.6-8.8 14.4-4 .3-7.9-.6-12.2-.7zm56.6-474.9c2.4 3.9 4.6 7.9 7.1 11.6 2.5 3.8 5.2 7.3 8 11.1-5.4 4.7-11.5 4.2-16-1.3-6-7.4-5.8-16.5.9-21.4zm6.7-9.4c-1.3-4.1-2.7-7.9-3.8-11.6-.4-1.4-.1-3 .3-4.4.7-2.5 2.5-4.2 5.1-4.3 2.7-.1 4.4 1.4 5.4 3.9 2.5 6.5.2 12.7-7 16.4zM190.7 71.6c6.5 6.2 12.4 11.5 18.7 17.4-5.2 2.6-10.2 5.2-15.8 8.1-1.1-8.4-1.9-16.6-2.9-25.5zm-61.4 379.1l.4-.4v.8c-.3-.2-.4-.2-.4-.4zm326.6 75.7c0 5.1-3.5 8.9-8.4 8.8-4.8 0-8.6-3.8-8.6-8.8 0-4.8 3.8-8.9 8.5-8.9 4.9 0 8.5 3.8 8.5 8.9zm-4.8.5c.1 0 .3-.1.5-.1.1-1.4.9-3.4.3-4.2-2.2-2.9-5.4-1.6-8.4-1.6v11.1c3.9.5 1.6-2.9 3.4-4.6.8.8 2 1.6 2.5 2.6.7 1.4 1.2 2.9 3.5 1.6-.6-1.7-1.3-3.2-1.8-4.8z"/>
    <path class="color-reserved-gray" fill="#1f1b04" d="M241.2 222c0 5.8-2.7 9.6-7.2 10.1-4.7.5-6.9-2.4-8.9-11.3-2.6 0-5.4.4-8 0-11.5-1.8-18.1-13.6-16.7-25.8.8-7.7 4.1-14.3 11.1-18.1 11.8-6.2 26 1.6 28.4 15.2 1.6 8.9 0 16.9-6.4 23.7-.7.7-.9 2.1-.7 3 .4 1.8 1.2 3.5 2.1 5.1.4.8 1.4 1.6 2.2 1.6.5 0 1-1.3 1.6-2.1.5-.8 1-1.4 1.6-2.2.2.3.5.5.9.8zm-11.5-13.1c.3-1.8.7-3.5.8-5.2.5-6.7.9-13.3-1.7-19.6-1.6-3.8-4.2-6.3-8.6-6.3-4.1 0-6.7 2.4-8.2 5.8-2.7 5.9-2.9 21.1-.3 27.2 3.8-9.6 9.3-10.3 18-1.9zm-4.3 5.4c0-5-2.4-8.2-5.6-8.2-2.9 0-5.2 2.9-5.2 6.3 0 3.9 2 5.9 5.8 5.9 3.3-.1 5-1.4 5-4zm102.9-36.7c.7-.5 1.3-1.7 2-1.7 10.9-.1 21.7-.1 33-.1.3 4.8.5 9.4.7 13.9 0 .5-.7 1-1 1.6-.4-.4-1-.7-1.2-1.2-.5-1.6-.8-3.1-1.2-4.7-1.3-4.4-4.2-6.8-8.8-6.8-9.8-.1-8.1-.9-8.2 7.6v9.4c5.2.7 7.3-1 8.6-6 .3-.9 1-1.7 1.4-2.5.3.1.7.3.9.5v20.2c-.3.1-.5.4-.8.5-.5-.8-1.3-1.7-1.6-2.6-1-5.5-3.1-7.2-8.6-6.7 0 5.2-.1 10.6.1 16 0 .8 1.3 2 2.1 2.2 9.7 1.8 14.7-1.8 17-11.5.3-.9 1-1.7 1.6-2.6.3.1.5.3.7.5V220c-1.2.1-2 .3-2.9.3h-30.4c-1.8 0-3.4-.1-2.4-2.9h2.5c2.2.1 3.1-.9 3.1-3.1v-32.7c0-2.1-1-2.9-3-2.9h-2.6c-.4-.4-.7-.8-1-1.1zm-4.9 42.4h-36.1c-.7-1.8-.4-3 1.7-2.7 3.3.4 4.1-1.3 3.9-4.3-.1-9.9 0-19.9 0-29.7 0-4.6 0-4.6-4.4-4.7-.4 0-.8-.1-1.3-.1-.7-1.8-.3-2.6 1.8-2.6 10.7.1 21.3 0 32.5 0 .3 5.1.5 10.2.8 15.2-.3.1-.5.4-.8.5-.7-.5-1.6-1-1.8-1.7-.5-1.6-.8-3.1-1.3-4.7-1.3-4.2-3.9-6.4-8.4-6.5-10.2-.1-8.6-.9-8.6 8v9c5.1.7 7.3-.9 8.5-5.6.3-1 1-2 1.6-2.9.3.1.7.3.9.4v20.2c-.3.1-.7.3-.9.5-.5-1-1.2-2-1.4-3-1.2-5.1-3-6.5-8.6-6.2 0 5.4-.1 10.9.1 16.2 0 .8 1.4 1.8 2.4 2 9.7 1.6 14.5-1.8 16.9-11.4.3-.9 1.2-1.6 1.7-2.5.3.9.8 1.8.9 2.7 0 4.5-.1 9.1-.1 13.9zm46.8-41.6v-2.5c3.7 0 7.2-.1 10.7.1.9 0 2.1 1 2.6 1.8 6.4 9 12.8 18.1 19.6 27.6.3-1 .4-1.7.4-2.4v-17c0-3.4-.9-6.2-4.6-7.5-.7-.3-1-1.4-2-2.6h15.4c-.7 1-.9 2.5-1.7 2.7-3.5 1.2-4.2 3.8-4.2 6.9v33.9c-2.2 1.2-3.4.1-4.4-1.4-6.8-9.8-13.6-19.5-20.4-29.2-.7-.9-1.4-2-2.5-3.4-.1 1.3-.3 2.1-.3 2.9v21.6c0 4.3 1.2 5.6 5.1 7.2.5.3.9.9 1.3 1.4-.5.5-1 1.3-1.7 1.3-4.2.1-8.5.1-12.7 0-.5 0-1.3-.8-1.4-1.3 0-.5.7-1.4 1.2-1.4 4.3-.7 5.4-3.9 5.4-7.5.1-9 .1-18.1 0-27.1.4-3.7-2.9-3.7-5.8-4.1zm-108.9-2.6v2.4c-5.8.8-5.8.8-5.8 6.7 0 7.3-.1 14.7 0 21.9.1 5.8 3.4 9.3 8.6 9.7 5.6.3 9.4-2.9 10.3-8.6.1-.9.3-2 .4-2.9 0-6.3.1-12.7 0-19 0-3.4-.7-6.5-4.8-7.5-.5-.1-.8-1.3-1.3-2.5h16c-.7 1-.9 2.4-1.4 2.5-3.9.7-4.7 3.5-4.7 6.8-.1 6.3 0 12.7 0 19 0 13.6-10.7 20.7-23.4 15.3-5.5-2.4-7.7-6.7-7.7-12.4v-22.9c0-5.4 0-5.4-5.2-5.8-.7-1.7-.4-2.6 1.7-2.6 5.3 0 11.2-.1 17.3-.1zm13.8 137h-10.9v13.5c.8.1 1.4.1 2.1.4.5.3.9.7 1.3 1-.5.4-1 1.2-1.6 1.2-3.5.1-7.2.1-10.7 0-.5 0-1-.8-1.6-1.2.4-.4.9-1 1.3-1 2.2.1 2.4-1.3 2.4-3v-22.9c0-2-.1-3.5-2.6-3.5-.5 0-.9-.9-1.8-2.1h13c.5 0 1 .7 1.6 1-.5.4-1 .8-1.6 1.2-.7.7-2 1.3-2 2-.3 3.4-.1 6.9-.1 10.5h11.4c0-3.5.1-7.1-.1-10.5 0-.7-1.3-1.3-2-2-.5-.4-1-.8-1.6-1.2.5-.4 1-.9 1.7-1 4.1-.1 8 0 12 0 .1.3.3.7.4.9-.7.4-1.4.8-2 1.3-.8.8-2 1.7-2 2.6-.1 8 0 16-.1 23.8 0 1.8.7 2.9 2.6 2.9.4 0 .8.7 1.2 1-.4.4-.9 1-1.3 1-3.5.1-7.2.1-10.7 0-.7 0-1.2-.7-1.7-.9.5-.4 1.2-.9 1.7-1.3.4-.1.8-.1 1.6-.3.1-4.4.1-8.7.1-13.4zm70.3 13.4c1-2.4 1.7-3.8 2.5-5.5 1.3 4.1-.4 7.5-3.4 8.4-3.3.9-5.8-.8-6.8-4.4-.7-2.4-1-4.8-1.6-7.3-1-4.1-2-4.7-6.5-4.4 0 3.9-.1 8 .1 11.9 0 .7 1.7 1.3 2.6 2 .5.4 1.2.9 1.7 1.3-.7.3-1.2.9-1.8.9-3.8.1-7.6.1-11.4 0-.7 0-1.2-.8-1.8-1.2.5-.4 1.2-1 1.7-1 2.2 0 2.5-1.3 2.5-3v-23.2c0-1.8-.3-3.3-2.6-3.1-.5 0-1-.8-1.4-1.2.4-.3.9-.9 1.3-.9 5.8 0 11.5-.1 17.3.4 5.1.5 7.7 3.4 8 7.6.3 3.9-2.1 6.7-6.9 8.2-.5.1-.9.3-2 .5 6.2 2.1 5.7 8.5 8.5 14zm-15.9-16.1c7.6.7 10.7-2.6 9-8.9-.7-2.7-3.1-3.9-6.7-3.8-3.3.3-2.4 2.5-2.4 4.3.1 2.7.1 5.4.1 8.4zm45.2 58.1c-1-3.8-1.4-8.4-7.2-7.5 0 3.9-.1 8 .1 11.9 0 .7 1 1.6 1.7 1.8 6.5 1.6 11.1-1.4 12.7-8 .3-.9.7-1.7.9-2.6.3 0 .5.1.9.1v12.8h-25.6c-.5 0-1-.7-1.7-.9.5-.4 1-1.2 1.6-1.2 2.6.1 3-1.3 3-3.5-.1-7.5-.1-14.8 0-22.2 0-2.2-.3-3.9-3.1-3.7-.4 0-.9-.8-1.4-1.2.5-.3.9-.9 1.4-.9h24.6c.3 4.1.5 7.9.7 11.6-.3.1-.5.3-.8.4-.4-.7-1-1.2-1.2-2-2.1-7.1-4.2-8.5-11.5-7.7-.8.1-2.1 1.3-2.1 2.1-.3 3.5-.1 7.2-.1 10.6 5.6 1.6 5.5-3.9 8.2-6.9v16.4c-.5 0-.9.3-1.1.6zm-87.6-56.3c-.1-9.8 6.2-17.4 14.7-17.5 9.8-.3 17.3 9 15.8 19.6-1 7.7-5.5 13.6-11.6 15-9.4 2.2-17.9-4.4-18.8-14.8-.2-.7-.1-1.5-.1-2.3zm6.6-.7c.7 4.1 1 7.6 2 10.9.9 3.1 3.3 5.1 6.8 5.1s5.9-2.2 6.5-5.4c.9-4.6 1.2-9.3 1.2-13.9 0-2.5-.8-5.1-1.7-7.6-1-2.6-3.4-3.9-6.2-3.9-2.7 0-5 1.3-5.9 3.9-1.3 3.7-1.9 7.7-2.7 10.9zm53.6 53.6c0-5 .3-9.9-.1-14.9-.1-1.4-1.8-2.9-2.9-4.3-.4-.5-.9-1-1.3-1.6.5-.4 1.2-.9 1.7-.9 2.9-.1 5.9 0 9.4 0-.7 1.2-.8 2.2-1.3 2.4-3.1.9-3.3 3.4-3.3 6v22.9c0 .8-.1 1.4-.3 3.3-1.4-1-2.7-1.6-3.4-2.6-5-6.9-9.9-14-14.9-21.1-.7-.8-1.2-1.7-2.4-3.1 0 7.1-.1 13.5.1 19.8 0 1.3 2 2.5 3 3.8.5.5 1.2 1 2.5 2.2h-13.3c.8-.9 1.2-1.8 1.8-2.1 2.7-.8 3.5-2.9 3.7-5.2.1-6.8.3-13.7-.1-20.5 0-1.2-2-2.2-3.1-3.4-.5-.4-1-.8-1.6-1.2.7-.4 1.3-.8 1.8-1.2h.3c4.8-.8 8.2.7 11 5.2 3.4 5.9 7.9 11.3 11.8 16.7.5-.1.7-.2.9-.2zm-5.1-95.7c1.6-1.3 3.1-2.6 4.7-4.1-.4 3-5.2 7.3-8 7.1-2.4-.1-2.9-1.7-2.4-3.7 1.4-5 3-10.1 4.2-15 .4-1.7.3-3.5.4-5.2-1.8.8-4.2 1.2-5.2 2.5-3.7 5.1-6.9 10.5-10.2 15.8-.9 1.4-1.2 3.3-1.7 4.8h-4.7c2.2-7.3 4.3-14.4 6.4-21.5 1.3-4.3 2.6-8.5 3.9-12.8 1.6-5.1 1.6-5.1-3.4-6.5 3.4-.5 6.8-1.2 10.9-1.8-2.7 9-5.4 17.5-8 26l.4.4c.8-.7 1.6-1.4 2.2-2.1 2.5-2.5 4.6-5.4 7.5-7.2 1.6-1 4.6-1.3 6.3-.5 1 .5 1.4 3.8 1 5.5-1.2 4.8-2.9 9.6-4.3 14.4-.3 1-.5 2.2-.8 3.3.2.2.4.3.8.6zm46.3 95.3c.7 1.4 1.2 2.9 1.8 4.2 2.4 5.2 6.8 7.6 11.8 6.3 2.7-.7 4.3-2.4 4.6-5.2.3-3-1.3-4.7-3.9-5.6-2.6-.8-5.2-1.4-7.9-2.2-6.4-2.2-8.9-7.6-6.4-13.7 2.2-5.4 8.8-7.5 14.4-4.6 1 .5 2 1.2 3 1.8.9-.9 1.7-1.8 3.1-3.3v12.2c-.3.1-.5.3-.7.3-.5-1-1.2-2-1.7-3-1.4-3.3-3.5-6-7.2-6.9-3.4-.8-6.5.9-7.5 4.1-.8 2.7.7 5.1 4.2 6.4 2.4.8 4.8 1.3 7.2 2.1 6.4 2 9 6.5 7.3 12.7-1.3 5.1-7.3 8.8-12.8 7.5-2.4-.5-4.6-1.8-7.3-3-.5.9-1.2 2.2-2 3.5-.4-.3-.8-.5-1.2-.9v-12.3c.6-.3 1-.4 1.2-.4zm-143-67c.9-1 1.7-2 2.5-2.7.3.1.5.3.7.4v11.1c-.3.1-.4.3-.7.4-.5-.8-1-1.6-1.7-2.4-1.8-2.2-3.3-5-5.5-6.7-2.4-1.8-5.4-1.6-7.9.5-3 2.5-2.4 6.9 1.3 8.5 2.4 1 5 1.6 7.5 2.2 4.2 1.2 7.7 3.1 8.5 8 .7 4.3-.3 8.1-4.1 10.6-4.2 2.7-8.5 3-13 .7-.9-.5-1.8-1.2-3-1.8-.8 1.3-1.6 2.6-2.2 3.8-.4-.3-.8-.5-1-.8V317c.3-.1.5-.3.8-.4.5 1 1.2 2 1.6 3 2.1 5.5 5.4 8 10.3 7.9 3.7-.1 6.2-2.1 6.5-5.1.4-3-1.2-5.1-4.8-6.3-2.4-.7-4.8-1.3-7.2-2.1-6.3-2.2-8.6-7.5-6.2-13.5 2.1-5.2 8.2-7.5 13.7-5.1 1.4.4 2.6 1.2 3.9 2zm104.2 10.3c.1-4.2.4-8.4.5-12.6h26.3c.3 4.2.5 8.4.7 12.4-.3.1-.5.3-.8.4-.4-.7-1-1.2-1.3-1.8-1-2.2-1.6-4.8-2.9-6.8-.8-1.2-2.9-1.3-4.4-2-.4 1.2-1 2.5-1 3.7-.1 7.3 0 14.7-.1 21.9 0 2.2.3 3.9 3.1 3.5.5 0 1.2.8 1.8 1.3-.1.3-.3.5-.5.9h-14c-.5 0-1-.7-1.7-1 .7-.4 1.3-1.2 1.8-1 2.4.1 3-.9 3-3.1-.1-7.6 0-15.3-.1-22.9 0-1-.7-2.9-1-2.9-1.3-.1-3.1.1-3.8 1-1.4 2.1-2.4 4.6-3.4 6.9-.4.8-.5 1.6-.9 2.5-.4-.1-.9-.3-1.3-.4zM301.8 364c-.3 4.1-.4 8.2-.7 12.7h-24.6c-.7 0-1.3-.7-2-1 .5-.4 1-1 1.6-1 2.6.1 2.9-1.4 2.9-3.5-.1-7.5-.1-15 0-22.5 0-2.1-.4-3.4-2.9-3.3-.5 0-1-.7-1.7-1 .7-.4 1.2-1.2 1.8-1.2 3.9-.1 7.9-.1 11.8 0 .7 0 1.3.8 1.8 1.2-.7.4-1.3 1-2 1-2.1 0-2.6.9-2.6 2.7 0 7.9.1 15.7 0 23.6 0 2.1.7 2.9 2.7 3 6.5.4 9-1.4 11.1-8 .3-1 .9-2 1.3-3 .8 0 1.1.1 1.5.3zm-2.1-133.4c-5.5-.9-9.9 4.8-11.4 14.4 1.2.1 2.5.3 3.7.3.1.4.3.7.3 1-.9.3-2 .8-2.9.8-1.8-.1-2.4.7-2.9 2.4-1.8 6.7-3.5 13.5-5.9 20-1.3 3.7-3.4 7.3-5.8 10.5-1.6 2-4.2 3.3-6.5 4.6-1.2.5-3 .5-4.1 0-1-.5-1.6-2.2-2.2-3.3 1-.5 2.2-1 3.3-1.6.4 1 .8 2.2 1.6 3.9 2 .5 3.9-1 5.2-3.1 1.2-1.7 2-3.7 2.5-5.6 2.6-9 5-18.1 7.6-27.3-1.8-.1-3.4-.3-6.2-.5 1.2-.9 1.7-1.7 2.2-1.7 3.5 0 5-2.5 6.5-5.1 2.1-3.1 4.3-6.4 7.1-8.8 1.8-1.6 4.7-2.1 7.2-2.2 1.3-.1 2.9 1.2 3.9 2.2.4.4.3 2.2-.4 2.7s-2 .7-2.9.4c-.4-.1-.5-1.6-.7-2.5.5-.5.7-.9.8-1.5z"/>
    <path class="color-reserved-gray" fill="#1f1b04" d="M272.7 253.9c0 9.9-9.3 18.8-19.1 18.2-5.4-.3-9-4.4-8.9-9.8.3-9 9-17.8 18.1-18.1 5.9 0 9.9 3.8 9.9 9.7zm-4.5-1.8c-1-1.8-1.8-4.1-3.4-5.4-2.1-1.7-4.6-.7-6.7.7-.9.7-1.7 1.4-2.4 2.2-3.3 3.8-5.1 8.2-5.8 13.2-.4 2.9-.3 5.8 2.9 7.3 3 1.6 5.6.1 7.6-2 4.5-4.2 6.6-9.5 7.8-16zm87.6 8.2c-.9 5.4 1.6 9.2 6.2 8.6 3.8-.5 7.5-2.4 10.7-3.5-2.5 4.6-11.8 8.2-17.1 6.4-3.5-1.3-6-5-5.8-9 .5-9.4 9.9-18.5 19.4-18.3 2.6 0 5.2.3 6.2 3.1.9 2.7-.7 4.8-2.5 6.5-3.7 3.4-8.2 4.7-13.1 5.5-1.2.2-2.5.5-4 .7zm.2-1.7c5.9-.8 10.9-2.1 14-6.8.8-1.2 1.2-4.1.5-4.6-1-.9-3.5-1.3-5-.8-5.2 2-8 6.4-9.5 12.2zm-52.9 117.2c.7-.4 1.3-1.2 2-1.2 2.4 0 2.9-1.3 2.9-3.4-.1-7.5-.1-15 0-22.5 0-2.1-.3-3.7-3-3.5-.5 0-1-.7-1.6-1 .5-.4 1-1.2 1.6-1.2 4.1-.1 8.1-.1 12 0 .5 0 1 .7 1.6 1-.5.4-1 1.2-1.6 1-2.5-.3-2.7 1.2-2.7 3.3v22.5c0 2.1.1 3.7 2.9 3.7.5 0 1 .8 1.4 1.2-.5.3-1.2.9-1.7.9-4.3.1-8.6 0-13.1 0-.3-.2-.4-.5-.7-.8zm15.7-138.9c-.7 2.6-1.3 5.1-2.1 7.9 1.6.3 3 .4 4.4.7 0 .3.1.7.1.9-1 .3-2.2.3-3.1.7-.9.3-2.2.8-2.4 1.4-2.1 6.2-3.9 12.4-5.8 18.7-.1.7 0 1.4.1 3 2.5-2.1 4.3-3.7 6.3-5.4-.7 3.5-5.1 7.5-8.4 7.3-2.5-.1-3.7-1.7-3-4.6 1.6-5.8 3.3-11.5 5-17.1.3-1 .5-2 .9-3.3-1.6-.1-2.9-.3-3.9-.3 3.9-3.2 7.7-6.3 11.9-9.9zm132.3 290c.5 1.6 1.2 3.1 1.7 4.8-2.4 1.3-2.7-.1-3.5-1.6-.5-1-1.7-1.7-2.5-2.6-1.8 1.8.5 5.1-3.4 4.6V521c3 0 6.2-1.4 8.4 1.6.7.8-.1 2.7-.3 4.2-.2 0-.3 0-.4.1zm-5-1.3c.3.3.5.5.8.7l2.7-2.1c-.9-.7-2-1.3-3.4-2.4-.1 2.1-.1 2.9-.1 3.8z"/>
    <path class="color-yellow color-reserved-white" fill="#f4dc71" d="M229.7 208.9c-8.6-8.4-14.1-7.7-18.1 1.8-2.6-6.2-2.6-21.3.3-27.2 1.7-3.5 4.2-5.8 8.2-5.8 4.4 0 7.1 2.5 8.6 6.3 2.6 6.3 2.2 13 1.7 19.6-.1 1.7-.5 3.4-.7 5.3z"/>
    <path class="color-yellow color-reserved-white" fill="#f4dc71" d="M225.4 214.3c0 2.6-1.7 3.9-5.1 3.9-3.8 0-5.8-2.1-5.8-5.9 0-3.5 2.4-6.3 5.2-6.3 3.3 0 5.5 3.3 5.7 8.3zm104.1 95.8c0-3-.1-5.6 0-8.4 0-1.8-.8-4.1 2.4-4.3 3.7-.3 6 1 6.7 3.8 1.7 6.2-1.5 9.5-9.1 8.9zm-35.8 1.1c.8-3.4 1.4-7.2 2.6-10.9.8-2.6 3.1-3.9 5.9-3.9 2.9 0 5.2 1.3 6.2 3.9.9 2.4 1.7 5 1.7 7.6 0 4.6-.3 9.3-1.2 13.9-.7 3.1-2.9 5.4-6.5 5.4-3.5 0-5.9-2-6.8-5.1-.9-3.3-1.3-6.8-1.9-10.9zm-25.5-59.1c-1.2 6.5-3.3 11.9-7.6 16.2-2.1 2.1-4.6 3.4-7.6 2-3.1-1.6-3.3-4.3-2.9-7.3.7-5 2.5-9.4 5.8-13.2.7-.8 1.4-1.6 2.4-2.2 2.1-1.4 4.6-2.4 6.7-.7 1.3 1.1 2.1 3.4 3.2 5.2zm87.8 6.5c1.6-5.9 4.2-10.2 9.6-12.2 1.4-.5 3.8-.3 5 .8.7.7.3 3.4-.5 4.6-3.2 4.7-8.3 6.2-14.1 6.8z"/>
    <path class="color-yellow color-reserved-white" fill="#f3cc47" d="M446.1 525.6v-3.7c1.6 1 2.5 1.7 3.4 2.4l-2.7 2.1c-.2-.3-.4-.6-.7-.8z"/>
</svg>
