<svg xmlns="http://www.w3.org/2000/svg" viewBox="0 0 612 612">
    <path fill="#0f0b04" d="M592 305.1c-21.3 28.2-42.4 56-63.3 83.9-1.9 2.5-3.8 3.5-6.9 3.4-8.6-.2-17.1.1-25.7-.1-3-.1-4.5 1-5.9 3.6-20.1 36.3-46.7 66.5-83 87.3-24.4 14-50.6 22.6-78.6 25.5-37.8 4-74.1-1.4-108.6-17.6-41.6-19.5-73.3-49.6-94.9-90.2-.5-.9-1.2-1.8-1.5-2.8-1.3-4.1-4-5.2-8.3-5-8.3.4-16.7 0-25 .2-2.5 0-4.3-.5-6-2.7-20.8-27.7-41.7-55.3-62.6-83-.4-.5-.6-1.1-1-2 9.3-12.8 18.8-25.8 28.2-38.7 10.7-14.7 21.6-29.2 32.1-44 2.4-3.4 5-4.6 9-4.4 8.8.3 17.5-.1 26.3.2 3.5.1 5.3-1.1 6.8-4.2 13.5-27 32.1-49.9 55.9-68.4 34.4-26.7 73.3-41.2 117-43.1 31.3-1.4 61.3 3.6 90 15.8 38.3 16.2 68.6 42 91.3 76.8 4.2 6.5 8.5 13.1 12.4 19.8 1.4 2.4 3.2 2.4 5.3 2.4 9.6 0 19.3.1 28.9-.1 2.5 0 4.4.6 6 2.8 20.7 28 41.3 56.1 62.1 84.6zm-254 87.2c22.9-29.9 45-58.9 67.3-88-21.5-28.9-42.7-57.4-64.8-87h129c-28-55.2-94.9-105.1-181.3-97.5-72.5 6.4-128.2 56.5-146.8 99h130.2c-21.8 29.3-43 57.7-64.2 86.2 22.2 29.5 44.7 58 67.2 88.1H141.3c21.8 46.8 83.1 98.7 163.1 99.4 80.8.7 144.1-51.6 166.4-100.2H338zm75.9-87.9c-20.9 27-41.6 53.8-62.5 80.9 1.2.3 1.6.5 2 .5 55 0 109.9 0 164.9.1 3.1 0 4.6-1.4 6.3-3.5 7.5-9.9 15.1-19.7 22.6-29.5 12.5-16.3 24.9-32.5 37.5-48.9-.6-1.1-1.1-2.1-1.7-2.9-18.6-24.8-37.3-49.5-55.8-74.4-2.2-3-4.8-3-7.8-3H359.7c-1.8 0-3.5.2-6.1.4 20.3 27.2 40.2 53.6 60.3 80.3zM261 386.6c-21.2-27.8-41.7-54.7-62.3-81.6 20.3-27 40.3-53.6 60.7-80.6-1.5-.2-2.1-.4-2.7-.4-54.8 0-109.5 0-164.3-.1-3.5 0-5.4 1.5-7.3 4-17.6 23.7-35.2 47.3-52.9 71-1.5 2-2.9 4.1-4.4 6.2 19.9 25.7 39.6 51 59.1 76.5 2.8 3.6 5.6 5 10.1 5 52.4-.1 104.8-.1 157.2-.1 1.9.1 3.7.1 6.8.1zm226.6 6.5c-6.2-2.5-9.1.3-11.5 5.2-2.3 4.8-5.2 9.4-8.1 13.8-21.4 32.2-49.5 56.3-85.1 71.5-26.9 11.5-54.9 16.5-84.2 15.4-17-.6-33.6-3-49.8-8.1-50.4-15.8-88.5-47-114-93.3-2.2-4.1-4.7-5.4-8.9-3.8 30.9 65.7 104.9 118.1 194.7 111.5 39.6-2.9 75.2-16.6 106.9-40.4 25.7-19.2 44.4-44.3 60-71.8zm-.9-176.2c-18.2-31.5-40.5-58.8-71.1-78.6-37.3-24.1-78.1-34.9-122.3-32.4-80.4 4.6-143.1 57.4-167 112 5.6 2.2 7.4-1.9 9.5-5.7 19.6-35.2 47.3-62 83.4-79.9 33.3-16.5 68.6-22.7 105.6-19.2 21.7 2 42.4 7.5 62.1 16.7 38.3 17.9 67.8 45.6 88.7 82.4 2.5 4.6 5.2 6.5 11.1 4.7z"/>
    <path fill="#e19b34" d="M338 392.3h132.8c-22.4 48.6-85.7 100.9-166.4 100.2-80-.7-141.3-52.6-163.1-99.4h133.3c-22.4-30.1-44.9-58.7-67.2-88.1 21.2-28.5 42.3-56.9 64.2-86.2H141.4c18.7-42.5 74.4-92.6 146.8-99 86.5-7.6 153.4 42.3 181.3 97.5h-129c22 29.6 43.3 58.1 64.8 87-22.3 29.2-44.4 58.1-67.3 88zm66.9 44c3.8 1.4 7.7 2.5 11.4 4.2 3.8 1.8 6.4 1.2 8.5-2.7-4.6-5.7-9.4-11.2-13.8-16.9-2.6-3.3-4.4-1.9-6.8.5 2.9 3.8 5.6 7.4 8.4 11-.3.4-.6.7-.9 1.1-3.5-1.4-7.1-2.5-10.5-4.2-3.9-2-6.9-1.6-9.8 2.3 5.3 6.6 10.7 13.4 16.3 20.4 1.8-1.6 3.1-2.6 4.4-3.8-2.8-3.8-5.4-7.4-8-11 .3-.3.6-.6.8-.9zm-81.8-46.5c.4.3.8.6 1.1 1 0-.6-.1-1.3-.1-1.9-5.3-10.4-10.7-20.8-15.9-31.3-1-2-1.9-4.7-1.4-6.6 2.6-9.8 5.7-19.5 8.4-28.5h19.3c-1.6 8.4-8.9 10.4-14.4 14.2 6.4 1.7 12.1 2.4 16.9-3.4 5.4-6.6 11.5-12.6 17.2-19 4.1-4.7 9-7 15.3-5.8 1.9.4 3.8.5 5.7.8 3.8.5 7-.7 10-3.5-5.2-5.2-11.5-7.7-17.7-10.3-2.6-1.1-5.2-2.8-7.3-4.8-4.5-4.2-8.6-4.4-14.2.5 2.2 1.2 4.1 2.4 6.1 3.4s4 2 6.3 3.1c-8.2 5.4-13.7 5.1-20.7-1.1-8.8-7.9-18.1-14.9-29.1-19.5-8.7-3.7-16.8-3.4-25 1.7-8.1 5.1-16.5 9.8-24.9 14.5-6.9 3.9-14 7.1-22.3 7-5.5 0-11.1.6-16.6 1-1.7.1-3.4.5-5.1.8 0 .5.1 1.1.1 1.6 19.3 7.1 39.2 3.7 59.7 2 0 5.9 4.3 7.7 8.5 9.3 6.2 2.3 9.3 7.2 11.4 13 .6 1.6 1.4 3.1 1.6 4.8.5 4.1 2.4 8.9.8 12.1-3 6.3-3.2 10.5 1.7 16.1 5.3 6 8.7 13.6 13.1 20.5 1.1 1.7 2.7 3.1 4.3 4.3 2.4 1.4 4.8 2.6 7.2 4zm73.7 69c-1.4-2.1-2.5-3.6-3.5-5.2-1.8-2.8-3.9-5.1-4.2-9-.4-5.3-5.6-7.7-10.6-5.7-4.3 1.8-8.4 4.1-12.8 6.3 4.2 8.1 8.2 15.8 12.4 23.9 1.8-1.1 3.1-2 4.3-2.7-1.3-3.2-2.4-5.8-3.4-8.4 6.5-4.7 6.6-4.8 10.3 1.1 2.5 3.9 4.7 1.7 7.5-.3zm-94-330.1c0 8 .1 15.2 0 22.4-.1 4.1 2.3 3.5 4.9 3.4.7-3.4 1.3-6.5 1.9-9.7 2.7.3 4.9.5 7.1.8 1.4 9.7 1.4 9.7 7.3 9.5-.2-3.1-.2-6.3-.7-9.4-.3-1.8-.9-3.1.2-5.2 3.4-6.2.9-11-6.2-11.8-4.3-.4-8.8 0-14.5 0zm57.1 324.2c-1.7-1.7-3.1-4-3.9-3.8-5.7 1.2-11.4 3-17.2 4.6 2.6 9 4.9 17.3 7.3 25.8 3.8-1.1 6.9-1.9 9.9-2.9 3.2-1 6.3-2.1 9.2-3-.2-4.4-1.9-5.5-5.5-4-2.7 1.1-5.7 1.8-8.9 2.7-.7-2-1.2-3.6-1.9-5.6 3.6-1.1 6.7-1.8 9.6-3 .9-.4 1.2-2.2 1.7-3.4-1-.4-2.1-1.3-3-1.2-3.3.6-6.5 1.7-9.8 2.5-1.1-4.8-1.1-4.8 2.2-5.8 3-.8 6.1-1.7 10.3-2.9zM229 465.5c7.3-.1 13.5-7.4 13.4-15.9-.1-6.4-6.4-12.2-13.2-12.2-7.4 0-13.8 7.9-13.6 16.6.1 6.9 5.6 11.6 13.4 11.5zm80.2-7.9c.7 8.7 1.4 17.1 2.1 26 2.3-.3 4-.6 5.8-.8-.2-3.9-.4-7.2-.5-11h9.2c.5 3.5 1 6.8 1.5 10.3 2.1-.2 3.7-.4 5.7-.6-.6-7.4-1.2-14.4-1.8-21.3-.5-5.3-.5-5.3-6.1-3.8-.3 10.2-.3 10.2-8.9 9.8-.3-2.8-.7-5.7-1-8.6h-6zm-56.3-9.1c-1.3 4.4-2.5 8.2-3.6 12.1-.5 1.8-1 3.7-1.3 5.6-.8 5.8 1.2 8.8 7.2 11 5.7 2.1 10.4 1.1 12.6-4 2.6-5.9 4.1-12.3 6-18.2-4.9-2.8-6.8-1.3-7.7 2.7-.8 3.3-2 6.6-2.7 9.9s-2.1 5.8-5.9 5.1c-3.1-.5-3.9-2.9-2.8-7.1 1.2-4.5 2.4-9.1 3.6-13.6.1-.5-.1-1.2-.2-1.8-1.5-.6-2.9-1-5.2-1.7zm-61.7-17.3c-4.2 7.9-.1 15.1 7.4 16.2 3.3.5 6.5.1 8.6-2.9s1.6-6-.4-8.9c-1.2-1.8-2.8-3.3-3.7-5.2-.7-1.4-.7-3.2-1-4.8 1.7.4 3.7.5 5.1 1.5 1 .7 1.8 2.6 1.6 3.8-.4 3.1 1.4 4.1 3.7 5 3.8-6.8.2-14.3-7.4-16-3.6-.8-6.4.6-8.4 3.2-2.2 2.8-2 5.9.2 8.8 1.7 2.2 3.4 4.4 4.8 6.8.4.7.2 2.2-.3 2.8-.5.6-2 .9-2.8.7-2.9-.9-4.5-2.8-4.9-6-.2-1.8-1.6-3.4-2.5-5zm56.5-274c0 .7-.1 1.1 0 1.5 1.7 4 5 5.4 8.9 4.4 4.6-1.1 10-1.6 11.4-7.6 1-4.3-.9-7.9-5.2-8.8-2.8-.6-5.9-.1-8.8-.5-1.7-.2-3.2-1.2-4.8-1.8 1.3-1.2 2.3-3 3.8-3.5 1.3-.4 3.2.3 4.5 1.1 2.5 1.6 4.2.7 5.9-1.1-4.6-6-8-6.8-14.5-3.9-3.5 1.6-5.5 5.2-5 8.8.5 3.8 3.1 6.1 7.6 6.3 2.5.1 5.1-.4 7.7-.2 1 .1 2.6 1 2.8 1.8.2.9-.6 2.5-1.4 3.2-2.1 1.8-4.8 2.3-7 .4-2.3-2.1-4-1.8-5.9-.1zm-21.9-9.7c1.2 2.4 2.2 4.5 3.3 6.6 1.1 2.3 2.3 4.6 3.4 6.9 2.1 4.3 1.8 6.7-1.4 8.1-3.8 1.7-5.3-1.3-6.8-3.9-2.2-3.9-4.3-7.9-6.5-11.8-.3-.5-.9-.8-1.6-1.4-1.5 1.1-3 2.1-4.7 3.3 3.1 5.3 5.7 10.5 9 15.2 3.7 5.5 8.5 6.1 14.4 2.5 5.4-3.3 6.6-7.2 3.8-13-1.8-3.9-4-7.6-5.6-11.5-1.8-4.2-4-3.7-7.3-1zM354.3 162c-.9-8.3-2-16.3-2.5-24.3-.2-3.2-1.9-3.7-4.2-4.5-2.8-.9-3.8.8-5 2.6l-12.3 19.5c-.2.3.1.8.2 1.3 1.6.4 3.2.8 4.7 1.2.4-.4.8-.6 1.1-.9.4-.5.7-1.1 1.1-1.6 2.5-2.9 9.6-1.8 10.1 1.8.6 4.2 3.1 4.5 6.8 4.9zm58 35.3c2.9-8.2 5.8-15.7 8.2-23.4.5-1.5-.8-3.8-1.8-5.4-1.5-2.3-3.3-.8-5 .2-6.9 4.1-13.8 8.1-20.8 12.3 1.5 1.9 2.6 3.4 3.8 4.8 2.3-1.3 3.9-2.2 5.6-3.3 1.8 1.4 3.6 2.5 5.1 4.1.8.9 1.7 2.7 1.3 3.6-1.6 3.4.4 5 3.6 7.1zm-192-17.2c-7.4-4.7-14.3-9.3-21.4-13.5-1-.6-3.4-.1-4.3.8-1.1 1.1-2.3 3.4-1.9 4.7 2.4 7.9 5.3 15.6 8.2 23.6 3.3-1.4 5.2-2.5 3.9-6.3-1.2-3.4 4.6-8.5 7.8-6.8 3.3 1.8 5 .4 7.7-2.5zm73.4 282.3h5c1.9.1 4 .6 4-2.5 0-2.8-1.9-3.1-3.8-3.2-5.3-.3-10.7-.6-16-.6-1 0-2.1 1.3-3.1 2 .8.8 1.4 1.9 2.3 2.3 1.5.6 3.2.8 5.1 1.2-.5 5.5-.9 10.8-1.4 16-.5 4.7-.6 4.7 5.4 4.9.4-3.3.9-6.6 1.3-10 .4-3.2.7-6.5 1.2-10.1zm-6.1-307.2c-.9-6.7-1.9-13.5-2.9-20.1 7.3-1.5 7.3-1.5 6.7-6.5-6 .8-12.1 1.6-18.1 2.4-3.8.5-2.6 2.9-2 5 7.9.2 7.8.2 8.7 7.8.3 2.7.8 5.5 1.1 8.2.6 4.8.6 4.8 6.5 3.2zm82.4-14.3c-3.5 7.6-6.9 15.3-10.6 23.3 5.9 2.8 11.4 5.3 17.3 8.1.8-1.8 1.4-3.2 2.1-4.7-4.2-2.1-7.8-4-11.5-5.9 2.3-5.2 4.4-9.9 6.4-14.6 1.8-4.4 1.8-4.4-3.7-6.2zm17.3 37.7c4.6-7.7 9.1-15.2 13.8-23-2.2-1.2-3.6-1.9-5.3-2.8-.9 1.2-1.7 2.2-2.4 3.3-3.8 6.4-7.5 12.7-11.4 19.3 1.9 1.1 3.3 2 5.3 3.2z"/>
    <path fill="#f7dd41" d="M413.9 304.4c-20.1-26.7-40-53.1-60.5-80.3 2.6-.2 4.4-.4 6.1-.4h159.7c3 0 5.6.1 7.8 3 18.5 24.9 37.2 49.6 55.8 74.4.6.8 1.1 1.8 1.7 2.9-12.5 16.4-25 32.6-37.5 48.9-7.5 9.8-15.1 19.7-22.6 29.5-1.6 2.1-3.2 3.5-6.3 3.5-55-.1-109.9-.1-164.9-.1-.4 0-.8-.2-2-.5 21.1-27.1 41.8-53.9 62.7-80.9zm71.3 48.2c15-11.7 16.7-29.6 4.8-43.7-10-11.9-19.7-24-29.5-36.1-3.9-4.8-7.6-9.7-11.4-14.5-11.2 8.4-15.1 18.7-11.1 31.1 1.4 4.4 3.8 8.6 6.6 12.3 9.2 12.3 18.7 24.4 28.3 36.5 3.9 5 8.2 9.7 12.3 14.4zm6.7-85.3c.9-8.7.6-9.7-6.8-12.3-10-3.5-20.2-3.6-30.8.5 2.8 2.7 3.6 7.7 8.1 6.5 10.5-2.4 19.8.8 29.5 5.3zm-50.2 76.4c.8 3-2 6.5 1.8 8.8 11 6.5 22.4 6.2 34.6 2.2-1.8-2.3-3-4.1-4.4-5.6-.8-.7-2.2-1.4-3.2-1.2-10 2.4-19.3.5-28.8-4.2zM261 386.6h-6.8c-52.4 0-104.8-.1-157.2.1-4.5 0-7.3-1.4-10.1-5-19.5-25.5-39.2-50.8-59.1-76.5 1.5-2.1 2.9-4.2 4.4-6.2 17.6-23.7 35.3-47.3 52.9-71 1.9-2.6 3.8-4 7.3-4 54.8.1 109.5.1 164.3.1.6 0 1.2.1 2.7.4-20.4 27-40.4 53.6-60.7 80.6 20.5 26.9 41.1 53.8 62.3 81.5zM118.2 253.3c4.2 12 8 23 11.9 34.1l22.5 63.9c.8 2.3.8 5 4.6 4.9 10.9-.2 21.7-.1 33.2-.1-.8-2.7-1.3-5-2-7.1-3.8-11.1-7.6-22.2-11.5-33.3-6.7-19.3-13.4-38.7-20-58-.9-2.5-1.4-4.6-5-4.5-10.8.3-21.7.1-33.7.1zm-11.8 59.3c.5-1.7.8-2.7 1.2-3.7 3.3-8.2 6.3-16.5 10.1-24.5 3.3-7 1.4-13-2.4-20.5-13.1 30.7-22.3 61.5-33.7 91.9l3.2.4c6.4.2 6.4.2 8.5-5.8 2.4-6.6 4.6-13.3 7-19.9 2.8-7.9 2.8-7.9 10.9-7.9h24.4c-.4-1.8-.5-2.9-.9-3.9-2.5-7.2-.9-5.9-8.2-6-6.4-.2-12.8-.1-20.1-.1z"/>
    <path fill="#e19b34" d="M487.6 393.1c-15.6 27.5-34.4 52.6-60 71.8-31.7 23.8-67.2 37.5-106.9 40.4-89.7 6.6-163.8-45.8-194.7-111.5 4.3-1.7 6.7-.3 8.9 3.8 25.5 46.4 63.6 77.5 114 93.3 16.2 5.1 32.8 7.4 49.8 8.1 29.3 1.1 57.3-3.9 84.2-15.4 35.6-15.2 63.7-39.4 85.1-71.5 2.9-4.4 5.8-9 8.1-13.8 2.4-4.9 5.3-7.7 11.5-5.2zm-.9-176.2c-5.9 1.8-8.6-.1-11.1-4.6-20.8-36.8-50.3-64.5-88.7-82.4-19.7-9.2-40.4-14.7-62.1-16.7-37.1-3.5-72.3 2.7-105.6 19.2-36.1 17.9-63.8 44.7-83.4 79.9-2.1 3.8-3.9 7.9-9.5 5.7 23.9-54.6 86.6-107.4 167-112 44.2-2.5 85 8.2 122.3 32.4 30.6 19.7 52.9 47 71.1 78.5z"/>
    <path fill="#0f0b04" d="M323.1 389.8c-2.3-1.4-4.8-2.7-7-4.3-1.6-1.2-3.2-2.7-4.3-4.3-4.4-6.8-7.9-14.4-13.1-20.5-4.9-5.6-4.7-9.9-1.7-16.1 1.5-3.2-.3-8-.8-12.1-.2-1.6-1-3.2-1.6-4.8-2.2-5.8-5.2-10.7-11.4-13-4.2-1.6-8.4-3.5-8.5-9.3-20.5 1.8-40.4 5.1-59.7-2 0-.5-.1-1.1-.1-1.6 1.7-.3 3.4-.7 5.1-.8 5.5-.4 11.1-1 16.6-1 8.3.1 15.4-3.1 22.3-7 8.4-4.7 16.8-9.4 24.9-14.5 8.2-5.1 16.2-5.4 25-1.7 11 4.7 20.3 11.6 29.1 19.5 7 6.3 12.5 6.5 20.7 1.1-2.3-1.1-4.3-2-6.3-3.1-2-1-3.9-2.2-6.1-3.4 5.6-4.9 9.7-4.7 14.2-.5 2.1 2 4.6 3.7 7.3 4.8 6.2 2.7 12.5 5.2 17.7 10.3-3 2.9-6.2 4-10 3.5-1.9-.2-3.8-.4-5.7-.8-6.3-1.2-11.2 1.1-15.3 5.8-5.7 6.4-11.8 12.4-17.2 19-4.8 5.8-10.5 5.1-16.9 3.4 5.6-3.8 12.8-5.8 14.4-14.2h-19.3c-2.7 8.9-5.8 18.6-8.4 28.5-.5 2 .4 4.6 1.4 6.6 5.2 10.5 10.6 20.9 15.9 31.3-.5.6-.9.9-1.2 1.2zm81 47.3c2.6 3.6 5.2 7.2 8 11-1.4 1.1-2.6 2.2-4.4 3.8-5.6-7-11-13.8-16.3-20.4 2.9-4 6-4.3 9.8-2.3 3.3 1.7 7 2.8 10.5 4.2.3-.4.6-.7.9-1.1-2.7-3.6-5.5-7.2-8.4-11 2.4-2.3 4.2-3.8 6.8-.5 4.4 5.7 9.2 11.2 13.8 16.9-2.1 3.8-4.7 4.4-8.5 2.7-3.7-1.7-7.6-2.8-11.4-4.2-.5-.1-1-.2-1.4-.3.2.5.4.9.6 1.2zm-7.3 21.7c-2.8 2-5 4.2-7.6.2-3.7-5.9-3.8-5.8-10.3-1.1 1 2.6 2.1 5.3 3.4 8.4-1.2.8-2.6 1.6-4.3 2.7-4.2-8.1-8.2-15.8-12.4-23.9 4.4-2.2 8.5-4.6 12.8-6.3 5-2 10.2.4 10.6 5.7.3 4 2.4 6.2 4.2 9 1.1 1.6 2.2 3.2 3.6 5.3zm-20.3-6.2c1.8-.9 3.7-1.4 4.7-2.5 1.1-1.1 2.3-3.1 2-4.5-.4-2.3-2.6-2.4-4.6-1.5-1.8.9-3.6 1.8-5.5 2.8.8 1.6 1.2 2.8 1.8 3.9.4.4.9.9 1.6 1.8zm-73.7-323.9c5.7 0 10.2-.4 14.5.1 7 .8 9.6 5.6 6.2 11.8-1.1 2.1-.6 3.3-.2 5.2.6 3.1.5 6.2.7 9.4-5.9.3-5.9.3-7.3-9.5-2.1-.2-4.4-.5-7.1-.8-.6 3.2-1.2 6.3-1.9 9.7-2.6.1-5 .7-4.9-3.4.1-7.2 0-14.5 0-22.5zm6 4.7c.5 2.7.3 5.5 1.2 6 1.9.9 4.5 1 6.6.6 1-.1 2.1-2 2.3-3.2.1-.8-1.2-2.4-2.1-2.6-2.1-.5-4.5-.4-8-.8zm51.1 319.5c-4.2 1.2-7.3 2.1-10.3 3-3.3 1-3.2 1-2.2 5.8 3.3-.9 6.5-1.9 9.8-2.5.9-.2 2 .7 3 1.2-.6 1.2-.8 3-1.7 3.4-2.9 1.2-6 2-9.6 3 .7 1.9 1.2 3.6 1.9 5.6 3.2-1 6.2-1.6 8.9-2.7 3.6-1.4 5.2-.3 5.5 4-3 1-6.1 2.1-9.2 3-3 .9-6.1 1.8-9.9 2.9-2.4-8.5-4.7-16.8-7.3-25.8 5.9-1.6 11.5-3.4 17.2-4.6.8-.3 2.2 2 3.9 3.7zM229 465.5c-7.8.1-13.2-4.6-13.4-11.5-.2-8.7 6.2-16.6 13.6-16.6 6.9 0 13.2 5.8 13.2 12.2 0 8.5-6.2 15.8-13.4 15.9zm1.1-22.4c-3.9 0-9 5.6-9.1 10-.1 3.4 3.3 6.9 6.9 7.1 3.8.2 8.3-5.5 8.4-10.5 0-3.9-2.5-6.6-6.2-6.6zm79.1 14.5h5.9c.3 2.9.7 5.8 1 8.6 8.6.4 8.6.4 8.9-9.8 5.6-1.5 5.7-1.5 6.1 3.8.6 7 1.2 13.9 1.8 21.3-2 .2-3.6.4-5.7.6-.5-3.5-1-6.8-1.5-10.3h-9.2c.2 3.7.3 7 .5 11-1.8.2-3.5.5-5.8.8-.6-8.9-1.3-17.3-2-26zm-56.3-9.1c2.3.7 3.8 1.1 5.3 1.6.1.6.3 1.3.2 1.8-1.2 4.5-2.4 9.1-3.6 13.6-1.1 4.3-.3 6.6 2.8 7.1 3.8.7 5.2-1.8 5.9-5.1.7-3.3 1.9-6.6 2.7-9.9.9-4 2.8-5.6 7.7-2.7-1.9 5.9-3.4 12.3-6 18.2-2.2 5.1-6.9 6.1-12.6 4-6-2.2-8-5.2-7.2-11 .3-1.9.8-3.8 1.3-5.6 1-3.8 2.2-7.7 3.5-12zm-61.7-17.3c.9 1.6 2.3 3.2 2.5 4.9.4 3.2 2 5.1 4.9 6 .8.2 2.3-.1 2.8-.7s.7-2.2.3-2.8c-1.4-2.4-3.1-4.6-4.8-6.8-2.2-2.9-2.5-6.1-.2-8.8 2.1-2.5 4.9-4 8.4-3.2 7.6 1.7 11.2 9.2 7.4 16-2.3-.9-4-1.9-3.7-5 .1-1.2-.6-3.1-1.6-3.8-1.4-.9-3.4-1-5.1-1.5.3 1.6.3 3.4 1 4.8.9 1.9 2.5 3.4 3.7 5.2 1.9 2.9 2.5 5.9.4 8.9s-5.2 3.4-8.6 2.9c-7.4-1-11.6-8.2-7.4-16.1zm56.5-274c1.9-1.7 3.6-2.1 5.9 0 2.2 2 4.9 1.4 7-.4.8-.7 1.7-2.3 1.4-3.2-.2-.8-1.8-1.8-2.8-1.8-2.5-.2-5.1.3-7.7.2-4.5-.2-7.1-2.5-7.6-6.3-.5-3.7 1.5-7.3 5-8.8 6.5-2.9 9.9-2.1 14.5 3.9-1.7 1.7-3.3 2.6-5.9 1.1-1.3-.8-3.3-1.5-4.5-1.1-1.5.5-2.6 2.3-3.8 3.5 1.6.6 3.2 1.6 4.8 1.8 2.9.4 6-.1 8.8.5 4.3.9 6.2 4.5 5.2 8.8-1.4 6.1-6.8 6.5-11.4 7.6-3.9.9-7.2-.4-8.9-4.4-.1-.2 0-.7 0-1.4zm-21.9-9.7c3.2-2.7 5.5-3.1 7.2 1 1.7 3.9 3.8 7.6 5.6 11.5 2.7 5.8 1.5 9.7-3.8 13-5.9 3.6-10.7 3-14.4-2.5-3.2-4.8-5.9-9.9-9-15.2 1.7-1.2 3.2-2.2 4.7-3.3.7.6 1.3.9 1.6 1.4 2.2 3.9 4.3 7.9 6.5 11.8 1.5 2.6 2.9 5.6 6.8 3.9 3.2-1.4 3.5-3.8 1.4-8.1-1.1-2.3-2.3-4.6-3.4-6.9-.9-2.1-2-4.2-3.2-6.6zM354.3 162c-3.7-.4-6.2-.7-6.8-4.8-.5-3.6-7.7-4.7-10.1-1.8-.4.5-.7 1.1-1.1 1.6-.3.3-.6.6-1.1.9-1.5-.4-3.2-.8-4.7-1.2-.1-.6-.3-1.1-.2-1.3l12.3-19.5c1.2-1.9 2.2-3.6 5-2.6 2.4.8 4 1.3 4.2 4.5.5 8 1.6 16 2.5 24.2zm-7.6-19.8c-.4-.1-.7-.1-1.1-.2-1.1 2-2.1 3.9-3.6 6.6 2.4.2 3.8.3 5.6.4-.4-2.7-.6-4.8-.9-6.8zm65.6 55.1c-3.2-2.1-5.2-3.6-3.7-7.2.4-.8-.5-2.7-1.3-3.6-1.4-1.5-3.3-2.7-5.1-4.1-1.7 1-3.4 1.9-5.6 3.3-1.1-1.4-2.3-2.9-3.8-4.8 7.1-4.2 13.9-8.2 20.8-12.3 1.6-1 3.5-2.5 5-.2 1 1.6 2.3 3.9 1.8 5.4-2.3 7.7-5.1 15.2-8.1 23.5zm1-21c-1.9 1-3.8 2.1-6.3 3.5 2 1.4 3.1 2.2 4.9 3.5.5-2.8.9-5 1.3-7.1.3-.2.5-.4.8-.7-.3.3-.5.6-.7.8zm-193 3.8c-2.7 2.9-4.4 4.3-7.8 2.5-3.2-1.7-8.9 3.4-7.8 6.8 1.3 3.8-.5 4.9-3.9 6.3-2.8-8-5.7-15.7-8.2-23.6-.4-1.3.7-3.6 1.9-4.7.9-.9 3.3-1.4 4.3-.8 7.2 4.3 14.1 8.8 21.5 13.5zm-20.1-5.1c-.2-.3-.5-.5-.7-.8 0 .2-.1.4-.1.6.2.1.5.1.8.2.5 2.1.9 4.2 1.7 7.9 2.4-2 3.4-2.9 5.2-4.4-3.3-1.6-5.1-2.5-6.9-3.5zm93.5 287.4c-.4 3.6-.8 6.9-1.2 10.3-.4 3.3-.9 6.7-1.3 10-6-.2-5.9-.2-5.4-4.9.5-5.3.9-10.5 1.4-16-1.9-.4-3.6-.6-5.1-1.2-.9-.4-1.5-1.5-2.3-2.3 1-.7 2.1-2 3.1-2 5.3 0 10.7.3 16 .6 1.9.1 3.9.4 3.8 3.2-.1 3.1-2.1 2.6-4 2.5-1.3-.3-2.6-.2-5-.2zm-6.1-307.2c-5.9 1.6-5.8 1.6-6.5-3.2-.4-2.7-.8-5.5-1.1-8.2-.9-7.6-.8-7.6-8.7-7.8-.6-2.2-1.8-4.5 2-5 6-.9 12.1-1.6 18.1-2.4.6 5 .6 5-6.7 6.5 1 6.6 1.9 13.4 2.9 20.1zm82.4-14.3c5.5 1.9 5.6 1.9 3.7 6.2-2 4.7-4.1 9.3-6.4 14.6 3.7 1.9 7.4 3.8 11.5 5.9-.7 1.5-1.3 2.9-2.1 4.7-5.9-2.7-11.4-5.3-17.3-8.1 3.6-8 7.1-15.7 10.6-23.3zm17.3 37.7c-2.1-1.3-3.5-2.1-5.2-3.2 3.9-6.6 7.6-13 11.4-19.3.6-1.1 1.5-2 2.4-3.3 1.6.9 3 1.6 5.3 2.8-4.7 7.8-9.2 15.3-13.9 23z"/>
    <path fill="#0f0b04" d="M324.1 388.9c0 .6.1 1.3.1 1.9-.4-.3-.8-.6-1.1-1 .3-.3.7-.6 1-.9zm161.1-36.3c-4.1-4.8-8.4-9.4-12.3-14.3-9.6-12.1-19.1-24.2-28.3-36.5-2.8-3.7-5.2-8-6.6-12.3-3.9-12.4-.1-22.8 11.1-31.1 3.8 4.8 7.5 9.8 11.4 14.5C470.3 285 480 297.1 490 309c11.8 14 10.2 31.9-4.8 43.6zm6.7-85.3c-9.7-4.5-19-7.7-29.4-5.2-4.6 1.1-5.3-3.8-8.1-6.5 10.6-4.1 20.7-4 30.8-.5 7.3 2.5 7.6 3.5 6.7 12.2zm-50.2 76.4c9.5 4.7 18.8 6.6 28.9 4.2.9-.2 2.4.5 3.2 1.2 1.5 1.5 2.6 3.3 4.4 5.6-12.2 4-23.6 4.3-34.6-2.2-3.9-2.3-1.1-5.8-1.9-8.8zm-323.5-90.4c12 0 22.9.2 33.8-.1 3.6-.1 4.2 2 5 4.5 6.6 19.4 13.3 38.7 20 58 3.8 11.1 7.7 22.2 11.5 33.3.7 2.2 1.3 4.4 2 7.1-11.5 0-22.4-.1-33.2.1-3.8.1-3.8-2.6-4.6-4.9l-22.5-63.9c-4-11.1-7.8-22.1-12-34.1zm-11.8 59.3c7.3 0 13.7-.1 20.1 0 7.3.1 5.7-1.2 8.2 6 .3 1 .5 2.1.9 3.9h-24.4c-8.2 0-8.2 0-10.9 7.9-2.3 6.6-4.6 13.3-7 19.9-2.1 6-2.2 6-8.5 5.8-.8 0-1.7-.2-3.2-.4 11.4-30.4 20.6-61.2 33.7-91.9 3.8 7.5 5.7 13.5 2.4 20.5-3.8 8-6.8 16.3-10.1 24.5-.4 1.1-.7 2.1-1.2 3.8z"/>
    <path fill="#fa880a" d="M404.1 437.1c-.2-.4-.4-.8-.7-1.1.5.1 1 .2 1.4.3-.1.3-.4.6-.7.8z"/>
    <path fill="#e19b34" d="M376.5 452.6c-.8-.9-1.3-1.3-1.5-1.9-.6-1.1-1.1-2.2-1.8-3.9 1.9-1 3.7-1.9 5.5-2.8 2-.9 4.1-.8 4.6 1.5.3 1.3-.9 3.3-2 4.5-1.1 1.2-2.9 1.6-4.8 2.6zm-67.7-319.2c3.5.3 5.8.3 8 .8.9.2 2.3 1.8 2.1 2.6-.2 1.2-1.3 3.1-2.3 3.2-2.2.3-4.7.3-6.6-.6-.9-.4-.7-3.2-1.2-6zm-78.7 309.7c3.7 0 6.2 2.6 6.2 6.6-.1 5.1-4.6 10.7-8.4 10.5-3.5-.1-7-3.7-6.9-7.1.1-4.4 5.1-9.9 9.1-10zm116.6-300.9c.3 2.1.5 4.1.9 6.8-1.8-.1-3.3-.2-5.6-.4 1.5-2.7 2.5-4.7 3.6-6.6.3 0 .7.1 1.1.2z"/>
    <path fill="#fa880a" d="M413.2 176.2c-.4 2.2-.8 4.3-1.3 7.1-1.8-1.3-2.9-2.1-4.9-3.5 2.5-1.4 4.4-2.4 6.3-3.5l-.1-.1z"/>
    <path fill="#e19b34" d="M413.3 176.3c.2-.3.5-.5.7-.8-.3.2-.5.4-.8.7l.1.1z"/>
    <path fill="#fa880a" d="M200.2 175c1.8.9 3.6 1.8 6.8 3.5-1.8 1.5-2.8 2.4-5.2 4.4-.7-3.6-1.1-5.8-1.6-7.9z"/>
    <path fill="#e19b34" d="M200.2 174.9c-.3 0-.6-.1-.9-.1 0-.2.1-.4.1-.6.3.3.5.6.8.7z"/>
</svg>
