<svg xmlns="http://www.w3.org/2000/svg" viewBox="0 0 612 612">
    <g fill-rule="evenodd" clip-rule="evenodd">
        <path fill="#e19b34" d="M304.2 511.9c-113.3 0-205.6-92.2-205.6-205.6 0-114 92.2-206.3 205.6-206.3 114 0 205.6 92.3 205.6 206.3-.1 113.4-91.6 205.6-205.6 205.6z"/>
        <path fill="#010101" d="M594 306.4l-65.4-88.6h-36.3c-10.4-21.6-24.4-41.2-41.4-58.1-39.2-39.2-91.5-61-146.7-61-82.8 0-154.7 49.4-188.1 120.6H82.6L18 307.1l66.8 88.6h32.7c10.2 21.1 23.2 40 40 56.6 39.2 39.2 91.5 61 146.7 61s107.5-21.8 146.7-61c16.7-16.7 30.4-36.1 40.7-57.4h35.6l66.8-88.5zm-388.6 0l65.4-87.2H135.7c8.8-17.5 20.3-33.4 34.1-47.2 36.3-36.3 83.5-55.9 134.4-55.9 50.8 0 98.8 19.6 134.4 55.9 13.8 13.8 25.4 29.1 34.1 45.8H340.5l65.4 87.9-68.3 89.3H472c-32 60.3-95.2 101-167.8 101-50.9 0-98.1-19.6-134.4-55.9-13.1-13.1-24-28.3-32.7-44.3h136.5l-68.2-89.4zm-45.8-144.6c39.2-38.5 90.1-60.3 144.6-60.3s106 21.8 144.5 60.3c16.7 16.7 29.8 35.6 40 55.9H480c-9.4-18.2-21.8-35.6-37-50.1-37-37.8-86.4-58.1-138.7-58.1-77 0-143.1 45-175.8 109.7h-8.7c10.1-21.1 23.1-40.7 39.8-57.4zm144.6 348.7c-54.5 0-105.3-21.8-144.6-60.3-16-16-29.1-34.1-38.5-54.5h8.7c9.4 18.1 21.1 34.1 35.6 49.4 36.7 36.9 86.7 57.5 138.7 57.4 52.3 0 101.7-20.3 138.7-57.4 15.3-15.2 26.9-32 36.3-50.1h8.7c-33.3 68.3-103 115.5-183.6 115.5z"/>
        <path fill="#f7dd41" d="M86.3 225h172.1l-61.7 82.1 63.9 82.1H89.2l-62.5-82.8L86.3 225zm438.7-.7H352.8l61.8 82.1-63.9 82.1h172.2l62.5-82.1-60.4-82.1z"/>
        <path fill="#010101" d="M326 277.3c0-13.8-11.6-25.4-25.4-25.4-5.8 0-11.6 1.4-16 5.1l32 40.7c5.9-5.1 9.3-12.6 9.4-20.4zm-75.6 47.2c.7 16.7 16 33.4 29.1 34.9 8 .7 18.9.7 24-3.6L261.3 302c-6.5 5.1-10.9 13.8-10.9 22.5zm84.3-2.1l18.9-15.3-.7 12.4-13.1 9.4-5.1-6.5zm-55.9-61.8c-24.7 19.6-7.3 44.3-7.3 44.3l42.9 53H355l-76.2-97.3zm-106.1-79.9l9.4-9.4c5.1-4.4 9.4-2.2 10.9 0 2.2 2.2 2.9 4.4 1.5 7.3 2.2-.7 3.6-1.4 6.5 2.2 2.9 2.9 3.6 3.6 5.1 2.9v.7l-4.4 4.4c-.7-.7-2.2-1.5-3.6-3.6-2.9-2.9-3.6-3.6-6.5-.7l-4.4 3.6 7.3 8-4.4 3.6-17.4-19zm16 0c2.2-2.2 2.9-3.6.7-5.8-.7-.7-2.9-1.4-5.1.7l-5.1 4.4 5.1 5.1 4.4-4.4zm19.6-29.8c2.9-2.2 10.9-5.8 17.4 4.4 6.5 10.9 0 16.7-2.9 18.9-2.9 1.5-11.6 5.1-18.2-5.1-6.5-10.9.8-16.7 3.7-18.2zm11.6 18.9c2.9-1.5 5.1-5.1 1.5-11.6-3.6-5.8-8-5.1-10.9-3.6-2.2 1.5-5.1 5.1-.7 11.6 3.6 5.8 7.9 5.1 10.1 3.6zm29.8-29c-.7-1.5-2.9-3.6-7.3-2.2-2.2 1.4-5.1 4.4-2.9 10.9 2.2 4.4 5.1 8 9.4 6.5 2.9-1.5 4.4-3.6 3.6-7.3l5.1-1.4c1.5 5.8-.7 10.2-7.3 13.1-6.5 2.2-12.4-.7-16-8.7-2.9-8.7 0-15.2 6.5-17.4 7.3-2.9 12.4 1.4 13.8 5.1l-4.9 1.4zm22.5.7l1.5 10.9-5.1 1.5-4.3-26.1 5.1-.7 2.2 9.5 9.4-1.5-1.5-9.4 5.8-.7 3.6 25.4-5.1.7-2.2-11.6-9.4 2zm45.8-13.1h-13.8v5.1l12.4.7v4.4h-12.4l-.7 6.5 14.5.7v4.3l-19.6-.7.7-26.2 18.9.7v4.5zm13.8 16c0 1.5 0 4.4 4.4 5.1 2.9.7 5.8.7 6.5-2.2 0-2.2-1.5-2.9-4.4-4.4l-2.2-.7c-4.4-2.2-8-3.6-6.5-9.4 0-2.9 2.9-7.3 10.9-5.8s9.4 7.3 8.7 10.2l-5.1-.7c0-1.5 0-4.4-4.4-5.1-2.2-.7-5.1 0-5.1 2.2-.7 2.2.7 2.9 1.5 2.9l6.5 2.9c2.9 1.5 5.8 3.6 5.1 8.7-1.5 7.3-9.4 6.5-11.6 5.8-9.4-2.2-10.2-7.3-9.4-10.9l5.1 1.4zm31.9 17.4l-5.1-1.4 8-20.4-7.3-2.9 2.2-4.4 19.6 8-2.2 4.3-7.3-2.9-7.9 19.7zm41.4-1.4l-11.6-7.3-2.9 4.3 10.9 6.5-2.9 4.4-10.9-6.5-2.9 5.1 11.6 8-2.2 3.6-16.7-10.2 13.8-21.8 16 10.2-2.2 3.7zm13.1 4.3l10.2 8.7c5.1 5.1 2.2 9.4.7 10.9-2.2 2.2-4.4 3.6-7.3 2.2.7 2.2 1.5 3.6-2.2 7.3-2.2 2.9-2.9 3.6-2.2 4.4l-.7.7-4.3-4.4c.7-.7 1.5-2.2 2.9-4.4 2.9-2.2 3.6-3.6.7-6.5l-4.4-3.6-7.3 7.3-3.6-3.6 17.5-19zm1.5 16.7c1.5 1.4 3.6 2.2 5.1 0 .7-.7 2.2-2.9-.7-5.1l-4.4-4.4-5.1 5.1 5.1 4.4zM193 439.3c-1.5 1.5-2.2 3.6 1.5 6.5 2.2 1.5 4.4 2.9 6.5.7.7-1.5 0-2.9-2.2-5.1l-1.5-2.2c-2.9-3.6-5.8-6.5-2.2-11.6 2.2-2.2 6.5-5.1 13.1 0 6.5 5.1 5.1 10.2 2.9 13.1l-4.4-3.6c.7-.7 2.2-3.6-1.5-5.8-2.2-1.4-4.4-2.2-5.8-.7-1.5 1.5 0 2.9.7 3.6l4.4 5.1c2.2 2.9 3.6 6.5.7 10.2-5.1 5.8-11.6 1.5-13.1 0-8-5.8-5.8-10.9-3.6-13.1l4.5 2.9zm40.7 4.3c2.9 1.5 10.2 7.3 5.1 18.2-5.8 10.9-14.5 8-17.4 6.5-2.9-1.5-10.9-7.3-5.1-18.2 5.8-10.8 14.5-7.9 17.4-6.5zM223.6 464c2.2 1.4 7.3 1.4 10.2-5.1 3.6-6.5.7-10.2-2.2-10.9-2.9-1.4-7.3-2.2-10.2 4.4-3.7 6.5-.8 10.1 2.2 11.6zm43.5 10.2c-1.5 7.3-6.5 8.7-12.4 6.5-2.9 0-5.8-2.2-7.3-5.1-1.5-1.4-.7-3.6-.7-6.5l5.1-16.7 5.1 1.5-4.4 16.7c-.7 2.9.7 5.1 2.9 5.8 3.6 1.5 5.8 0 6.5-2.9l4.4-16.7 5.8 1.5-5 15.9zm22.6 12.3l-5.8-.7 2.2-21.1-8-.7.7-4.4 21.1 1.4-.7 5.1-8-.7-1.5 21.1zm23.2-11.6l1.5 12.4h-5.8l-2.2-26.2h5.8l.7 9.5 10.2-.7-.7-9.4 5.1-.7 2.2 26.1h-5.1l-1.4-11.6-10.3.6zm42.9-17.4l-13.1 3.6 1.5 5.1 12.3-3.6.7 5.1-11.6 2.9 1.5 6.5 13.8-3.6 1.5 4.4-18.9 5.1-7.3-24.7 18.9-5.1.7 4.3zm7.2-7.3l11.6-5.8c6.5-2.9 9.4.7 10.9 2.9 1.5 2.9.7 5.1-.7 7.3 2.2 0 3.6 0 5.8 4.4 1.5 3.6 1.5 4.4 2.9 4.4l.7.7-5.8 2.2c-.7-.7-1.5-1.5-2.9-4.4-1.5-2.9-2.2-4.4-5.8-2.2l-5.1 2.2 4.4 9.4-5.1 2.2-10.9-23.3zm15.3 5.1c2.9-1.5 3.6-2.9 2.2-5.1 0-1.4-1.5-2.9-4.4-1.4l-6.5 2.9 2.9 6.5 5.8-2.9zm23.9-28.4l3.6-2.9 16 20.4-4.4 3.6-19.6-8.7 10.9 15.3-4.4 2.9-15.2-21.1 4.3-3.6 19.6 8.7-10.8-14.6zM96.4 254.8h36.3v104.6H96.4V254.8zm53.8 58.1c14.5-2.2 25.4-14.5 25.4-29 0-16-13.8-29.1-31.2-29.1H140v58.8l27.6 45.8h10.9l-28.3-46.5zm347.9-1.5l-2.2-2.9L456 257c-23.2 18.1-6.5 41.4-6.5 41.4l2.2 2.2 40 51.6c23.1-18.2 6.4-40.8 6.4-40.8zm-36.3-57.3l5.8 7.3c16-5.8 31.2 5.1 31.2 5.1v-8.7c-13-8.8-28.3-6.6-37-3.7zm24 100.9l-5.8-7.3c-16 5.8-31.2-4.4-31.2-4.4v8c13 9.5 28.3 6.6 37 3.7z"/>
    </g>
</svg>
