<svg xmlns="http://www.w3.org/2000/svg" viewBox="0 0 612 612">
    <path fill="#e19b34" fill-rule="evenodd" stroke="#010101" stroke-miterlimit="33.89" stroke-width="3.0119" d="M306.7 512c-113.6 0-205.6-92-205.6-205.6 0-114.3 92-206.4 205.6-206.4s205.6 92 205.6 206.4c.1 113.6-92 205.6-205.6 205.6h0z" clip-rule="evenodd"/>
    <path fill="none" stroke="#010101" stroke-miterlimit="33.89" stroke-width="6.6513" d="M306.7 112.6c-106.9 0-193.7 86.1-193.7 193.7C113 413.2 199.8 500 306.7 500s193.7-86.9 193.7-193.7c.1-107.5-86.8-193.7-193.7-193.7h0z"/>
    <path fill="#010101" fill-rule="evenodd" d="M83.3 217.3h189.3l-66.1 87.6 68.3 89.8H85.5L18 305.6l65.3-88.3z" clip-rule="evenodd"/>
    <path fill="#f7dd41" fill-rule="evenodd" d="M87 223.2h173l-62.4 82.4 64.6 82.4H90l-64.6-83.1L87 223.2z" clip-rule="evenodd"/>
    <path fill="#010101" fill-rule="evenodd" d="M531.6 216.6H342.4l65.3 87.6-68.3 89.8h190l64.6-86.1v-6l-62.4-85.3z" clip-rule="evenodd"/>
    <path fill="#f7dd41" fill-rule="evenodd" d="M527.2 222.5H355l61.6 82.4-63.8 82.4H525l63.8-83.1-61.6-81.7z" clip-rule="evenodd"/>
    <path fill="#010101" fill-rule="evenodd" d="M77.4 305.6c0 28.2 21.5 52 49.7 54.2V251.5c-28.2 2.2-49.7 25.2-49.7 54.1zm108.4 3h-50.5v50.5c26.7-1.5 48.2-23 50.5-50.5zm-11.9-20.8h8.9c-6.7-20-25.2-34.9-47.5-36.4v8.9c17.1.8 31.9 11.9 38.6 27.5zm277.6-34.9l20.8 79.4-5.2 24.5h-25.2l-27.5-103.9h37.1zm44.5 0l21.5 79.4-5.9 24.5h-24.5l-27.5-103.9H496zm25.3 64.6l-4.5-18.6 11.9-46h10.4l-17.8 64.6zm-193.8-40.8c0-14.1-11.1-25.2-25.2-26-6-.1-11.8 2-16.3 5.9l31.9 40.8c6.1-5.1 9.6-12.7 9.6-20.7zm-75.7 48.2c.7 15.6 16.3 32.7 29 34.1 8.2.7 19.3.7 24.5-3.7L263 301.9c-7.1 5.5-11.3 14-11.2 23zm84.6-2.9l19.3-14.9-.7 11.9-13.4 9.7-5.2-6.7zM280 260.4c-24.5 19.3-6.7 43.8-6.7 43.8l42.3 54.2h40.8l-76.4-98zm-84.6-89.9c.7 0 2.2.7 3 1.5 1.5 1.5 1.5 2.2.7 3.7 0 .7-.7 1.5-1.5 2.2l-5.2 3.7-4.5-5.2 5.2-4.5c.8-.6 1.6-.6 2.3-1.4zm-14.8 6l17.8 20 3.7-3-6.7-8.2 4.5-3.7c1.5-1.5 2.2-1.5 3-1.5.7 0 2.2.7 3 1.5l1.5 2.2c.7.7 1.5.7 2.2 1.5l.7.7 5.2-3.7-.7-.7c-.7 0-1.5 0-1.5-.7-.7 0-1.5-.7-2.2-1.5l-.7-1.5c-1.5-1.5-2.2-2.2-3.7-3-.7 0-2.2 0-3 .7.7-1.5.7-3 .7-4.5-.7-1.5-1.5-2.2-2.2-3-.7-1.5-1.5-1.5-2.2-2.2-.8 0-1.5-.7-2.2-.7h-3c-1.5.7-2.2 1.5-3.7 2.2l-10.5 9.1zm51.9-16.3l-5.9 3-1.5-11.1 7.4 8.1zm-3.7 13.3l-.7-5.9 8.2-4.5 4.5 4.5 5.2-3-20.8-19.3-5.9 3 4.5 28.2 5-3zm24.5-40.1l8.2 26-5.2 1.5-8.2-25.2 5.2-2.3zm21.5 22.3l-4.5-26.7 5.2-.7 3.7 21.5 13.4-2.2.7 5.2-18.5 2.9zm46-24.5c.7.7 1.5 1.5 1.5 3.7 0 1.5-.7 2.2-2.2 2.2-.7.7-1.5.7-3 .7l-5.9-.7v-6.7h6.7c1.5.1 2.2.8 2.9.8zm-14.8-5.9l-1.5 26.7h5.9l.7-10.4 5.2.7c2.2 0 3 0 3.7.7.7.7.7 2.2.7 3.7v5.9l5.9.7.7-.7c-.7-.7-1.5-.7-1.5-1.5v-4.5c.7-2.2 0-3.7 0-4.5-.8-.9-1.8-1.7-3-2.2 1.6 0 3-.8 3.7-2.2.7-1.5.7-2.2.7-3.7v-3c-.7-.7-.7-1.5-1.5-2.2l-2.2-2.2c-.7 0-2.2-.7-4.5-.7l-13-.6zm40.8 25.9c-.7-2.2-.7-4.5 0-7.4 1.5-3 2.2-5.2 4.5-5.9 1.5-1.5 3-1.5 5.2-1.5 2.2.7 3.7 2.2 4.5 4.4.7 1.5.7 3.7 0 6.7-.6 2.5-1.9 4.8-3.7 6.7-1.5.7-3.7 1.5-5.9.7-2-.5-3.6-1.9-4.6-3.7zm18.6-13.3c-1.5-3-3.7-4.5-7.4-5.9-3.7-.7-6.7-.7-8.9.7-3.7 1.5-5.9 4.4-7.4 9.6-1.5 4.5-.7 8.2.7 11.9 1.5 2.2 3.7 3.7 7.4 5.2 3.7.7 7.4.7 9.7-.7 3-1.5 5.9-4.5 6.7-9.7 1.4-4.4 1.4-8.2-.8-11.1zm25.2 27.4l-5.9-3.7 8.2-7.4-2.3 11.1zm-14.1 3.8l4.4-3.7 8.9 4.5-1.5 5.9 5.2 3 5.2-28.2-5.2-3-21.5 18.6 4.5 2.9zm51.2 11.8c-.7 2.3-2 4.3-3.7 5.9-.7 1.5-2.2 2.2-3.7 3-2.2 1.5-5.2.7-6.7-.7l-3.7-3.7 11.9-12.6 3.7 3c1.5 2.2 2.2 3.6 2.2 5.1zm-7.4-15.6l-17.8 20 8.9 7.4c3 3 5.9 3.7 9.7 3 3-1.5 5.2-3 7.4-5.9 1.5-.7 2.2-2.2 3-3 .7-1.5 1.5-3 1.5-4.5 0-2.2 0-4.4-1.5-5.9 0-.7-.7-2.2-2.2-3l-9-8.1zM185 433.3l3.7 3.7c-.7 1.5-.7 2.2-.7 3 0 1.5.7 3 2.2 4.5 1.5.7 2.2 1.5 3 1.5 1.5.7 3 0 3.7-.7.7-.7.7-1.5.7-2.2-.7-1.5-1.5-2.2-2.2-3.7l-1.5-2.2c-1.6-1.5-2.8-3.2-3.7-5.2 0-2.2 0-4.5 2.2-5.9 1.5-2.2 3-3 5.9-3 2.2 0 4.4.7 7.4 3 1.5 1.5 3 3.7 3.7 6.7.7 2.2 0 4.5-1.5 6.7l-4.5-3.7c.7-.7 1.5-2.2.7-3.7-.7-.7-1.5-1.5-2.2-3-.7-.7-2.2-1.5-3-1.5-1.5 0-2.2.7-3 1.5 0 .7-.7 1.5 0 2.2 0 .7.7 1.5 1.5 3l3 3.7c1.5 2.2 2.2 3.7 2.2 4.5.7 2.1.1 4.4-1.5 5.9-1.5 2.2-3.7 3-5.9 3-3 0-5.2-1.5-8.2-3.7-2.2-2.2-3.7-4.4-4.5-6.7-.5-3.2.3-5.5 2.5-7.7zm56.4 16.3l-2.2 4.5-12.6-6.7-3 5.2 11.9 5.9-2.2 3.7-11.9-5.9-3 5.9 12.6 7.4-2.2 4.4-17.8-9.6 12.6-23.8 17.8 9zm24.5 14.1c.7.7 1.5 2.2.7 3.7 0 1.5-.7 2.2-2.2 2.2h-3l-5.9-2.2 1.5-6.7 6.7 1.5c.7.8 2.2.8 2.2 1.5zm-12.6-8.9l-7.4 26 5.2 1.5 3-10.4 5.9 1.5c1.1.6 2.1 1.3 3 2.2v3l-.7 3c0 .7-.7 1.5-.7 2.2v1.5l5.9 1.5v-5.3l.8-1.5c.7-1.5.7-3 .7-4.5l-2.2-2.2c1.4 0 2.7-.6 3.7-1.5.7-1.5 1.5-2.2 2.2-3.7v-3c0-.7 0-1.5-.8-2.2 0-1.5-.7-2.2-2.2-3-.7-.7-1.5-.7-3.7-1.5l-12.7-3.6zm42.3 29l7.4-20 5.9.7-11.1 26-5.2-.7-7.4-26.7h5.9l4.5 20.7zm29.7-20.8l3 26-5.9.7-2.2-26.7h5.1zm16.3 11.1c-1.3-3.7-1-7.7.7-11.1 1.5-3 3.7-4.5 7.4-5.9 4.5-.7 7.4 0 10.4 2.2 1.5.7 3 2.2 3 3.7l-5.2 1.5-2.2-2.2c-1.4-.7-3.1-.7-4.4 0-1.9 0-3.7 1.2-4.5 3-.7 2.2-.7 4.5.7 7.4.7 3 1.5 5.2 3 5.9 2.2 1.5 3.7 1.5 5.2.7 1.9 0 3.7-1.2 4.5-3v-3l5.2-1.5c.7 3 0 5.2-1.5 7.4s-3.7 4.5-6.7 5.2c-3.7.7-6.7.7-9.7-1.5-2.9-1.4-4.4-4.3-5.9-8.8zm48.3-33.4l2.2 4.5-12.6 5.9 3 5.2 11.1-5.9 2.2 4.5-11.9 5.9 3.7 5.9 12.6-6.7 3 3.7-18.6 9.6-12.6-23.8 17.9-8.8zm21.5 7.4l4.5-3.7c.7 1.5 1.5 1.5 2.2 1.5 1.5.7 3 0 4.5-1.5 1.5-.7 2.2-1.5 2.2-2.2.7-1.5.7-3 0-3.7-.7-.7-1.5-1.5-2.2-.7-.7 0-2.2 0-3.7.7l-2.2 1.5c-3 1.5-4.5 2.2-5.9 2.2-2.2 0-4.5-.7-5.9-3-1.6-1.5-2.2-3.8-1.5-5.9 0-2.2 1.5-4.5 3.7-6.7s5.2-3 7.4-3 4.5.7 6.7 3l-4.5 3.7c-.7-1.5-2.2-2.2-3.7-1.5-1.1.2-2.2.7-3 1.5-.7.7-1.5 2.2-2.2 3 0 .7 0 1.5.7 3 .7.7 1.5.7 2.2.7.7 0 2.2-.7 3.7-1.5l4.5-2.2c1.5-.7 3-1.5 4.5-1.5 2.2 0 3.7.7 5.2 3 1.5 1.6 2.3 3.7 2.2 5.9-.7 3-2.2 5.2-5.2 7.4-2 1.9-4.7 3-7.4 3-3.1 0-4.6-.7-6.8-3z" clip-rule="evenodd"/>
</svg>
