<svg xmlns="http://www.w3.org/2000/svg" viewBox="0 0 612 612">
    <path fill="#0c0803" d="M589.6 306c-1.3 1.8-2.4 3.5-3.7 5.2-19.1 26-38.2 52-57.1 78.2-2.7 3.7-5.5 5.1-9.9 4.9-7.3-.3-14.6.1-21.9-.2-3.6-.1-5.3 1.1-6.9 4.3-23.2 45.5-58.2 78.8-105.4 98.7-99.5 41.8-214.4-.5-263.6-96.9-2.3-4.6-4.7-6.4-9.9-6.1-7.7.5-15.4.1-23.1.2-2.3 0-3.9-.6-5.3-2.6C62.2 363.4 41.6 335.2 21 307c-.2-.3-.3-.7-.4-1.3 19-26 38.4-51.8 56.9-78.2 5.3-7.5 10.7-10.9 19.7-9.7 5.1.7 10.4-.2 15.6.2 4 .3 6-1.2 7.8-4.8 22.7-44.4 56.7-77.1 102.5-97.1 99.8-43.6 217.1-1.4 266.2 95.8 2.3 4.6 4.8 6.4 9.9 6.1 7.5-.5 15 0 22.5-.2 2.6-.1 4.3.7 5.8 2.8 20.5 28.5 41.2 56.8 62.1 85.4zM472 217.8c-25.7-53.1-94.5-109.6-186.8-100.4-72.6 7.2-127.9 57.8-146.8 100.7h133.7c-1.4 2.1-2.4 3.5-3.4 4.9-19.2 26.2-38.3 52.5-57.6 78.6-2.5 3.4-2.5 5.5 0 8.9 19.3 26.1 38.4 52.4 57.6 78.6 1.1 1.5 2 3 3.6 5.4H138.1c25.4 52.3 90.3 105.2 176.3 101 41.8-2.1 79-16.7 111.3-43.4 19.3-15.9 34.8-34.9 46.9-57.8H337.7c1.5-2.2 2.4-3.7 3.5-5.2 18.6-25.5 37.2-50.9 55.8-76.3 4.8-6.5 4.8-6.5.1-12.9-18.8-25.8-37.7-51.5-56.5-77.3-.9-1.3-1.7-2.7-2.9-4.6 45.3-.2 89.5-.2 134.3-.2zM351.2 386.9c1.5.2 2 .4 2.6.4 54.8 0 109.6 0 164.4.1 3.3 0 4.8-1.7 6.4-3.9 18-24.7 36-49.3 54-74 .9-1.2 1.6-2.5 2.4-3.8-18.8-25.7-37.4-51.1-55.8-76.6-2.4-3.3-4.9-4.5-9-4.5-53.1.1-106.1.1-159.2.1h-5.8c1.6 2.4 2.6 3.9 3.7 5.4 17.2 23.6 34.5 47.1 51.6 70.7 4.4 6.1 4.6 4-.1 10.5-7.9 10.9-15.9 21.7-23.8 32.6-10.3 14.2-20.6 28.2-31.4 43zm-322.4-81c1 1.4 1.8 2.7 2.7 4 17.8 24.3 35.7 48.6 53.3 73.1 2.4 3.4 4.9 4.5 9 4.4 52.9-.1 105.8-.1 158.7-.1h6.6c-20.2-27.6-39.7-54.4-59.4-81.3 19.7-26.9 39.2-53.7 59.1-80.8-1.2-.3-1.7-.5-2.2-.5-55 0-110 0-165-.1-2.7 0-4.2 1.1-5.6 3.1-7 9.7-14 19.2-21.1 28.8-12.1 16.5-24.1 32.9-36.1 49.4zm94.5 88.8c23.3 53.8 91.5 115.8 185.6 114.1 90.2-1.6 156.1-62.6 177.8-114.3-4.9-1.6-8.1.2-9.8 5-.3.7-.7 1.4-1.1 2C435.3 474 353 513.7 271.3 498.8c-61.6-11.2-107.5-45.2-138.3-99.6-3-5.4-3-5.5-9.7-4.5zm363.5-177.4c-23.1-53.5-93-120-195.5-113.7-84.9 5.3-147.2 63.9-167.9 113.8 6.8.7 6.8.7 9.8-4.9 39.9-73.7 123.9-114.7 205.5-99.5 61.8 11.5 107.8 45.5 138.6 100.1 2.9 5.2 2.8 5.2 9.5 4.2z"/>
    <path fill="#e19b34" d="M472 217.8H337.8c1.2 1.9 2 3.3 2.9 4.6 18.8 25.8 37.6 51.5 56.5 77.3 4.7 6.4 4.7 6.3-.1 12.9-18.6 25.4-37.2 50.9-55.8 76.3-1.1 1.5-2.1 3.1-3.5 5.2h134.9c-12.1 22.9-27.6 41.9-46.9 57.8-32.3 26.7-69.5 41.4-111.3 43.4-86 4.2-150.9-48.7-176.3-101h134.2c-1.6-2.3-2.5-3.9-3.6-5.4-19.2-26.2-38.3-52.5-57.6-78.6-2.5-3.4-2.5-5.5 0-8.9 19.3-26.1 38.4-52.4 57.6-78.6 1-1.4 1.9-2.8 3.4-4.9H138.5c18.9-42.9 74.2-93.5 146.8-100.7 92.2-9 161 47.5 186.7 100.6zM364.8 463.2c3.4 2.5 7 4.8 10.1 7.6 3.2 2.8 5.9 2.8 9 0-3.3-8-6.5-15.7-9.8-23.9-1.9.8-3.4 1.5-5.1 2.2 1.8 4.6 3.5 8.8 5.1 13.1-.4.2-.8.4-1.2.7-3.2-2.5-6.5-4.7-9.5-7.4-3.1-2.8-5.9-3.1-9.2.1 3.2 7.9 6.5 15.8 9.8 24 1.9-.9 3.4-1.6 5-2.4-1.8-4.6-3.4-8.9-5-13.2.3-.3.5-.6.8-.8zM226.5 327.5h62.1v22.8h12.2v-88.7h-12.5V285h-61.7c-.1 14.3-.1 28-.1 42.5zm81.8-66v88.7h12.6v-23.3h61.7v-42.4h-62v-23h-12.3zm102.1 171.3c-4.1-3.7-7.4-4.4-11.9-2.2-4.8 2.4-8.1 6.1-7.8 11.7.3 6.2 3.5 10.9 9 13.8 4.4 2.3 8.7 1.7 12.4-1.5 1.5-1.3 2.2-3.7 3.7-4.9 1.5-1.2 3.6-1.5 5.8-2.4-1.8-2.5-3.1-4.4-4.5-6.2-1.3-1.8-2.7-3.6-4.2-5.6-3.2 2.4-6.1 4.4-8.6 6.3 1.6 6.3 4.9 1.6 7.3 1.8.2 5.1-1.6 7.6-5.4 8.1-3.6.5-8-3.3-9.3-8-1.1-3.9.4-7.1 4-8.4.9-.3 2.1-.7 2.7-.3 3.1 1.7 4.9 0 6.8-2.2zm-147.1 24.4c-1.9 9-3.6 17.2-5.4 25.9 6.8 1.4 13.1 2.8 19.7 4.1.4-1.9.7-3.3 1-5-4.7-1.1-9.1-2.1-13.4-3 .8-5.9.8-5.9 5.4-5l4.5.9c1.9.4 3.8.3 3.7-2.1 0-1-1.5-2.3-2.6-2.7-2.1-.8-4.5-.9-6.7-1.7-.9-.3-1.3-1.8-2-2.8.9-.6 1.9-1.8 2.8-1.8 2.5.2 4.9.9 7.3 1.4 3.8.9 4.6-.9 4.3-4.5-6-1.1-12-2.3-18.6-3.7zm-14.5-4.8c-5.6-2.5-11.3-5.1-17.4-7.9-3.7 8.2-7.3 15.9-11 24.1 5.2 2.4 10.1 4.5 14.9 6.9 3.6 1.9 4.8.2 5.3-3.3-4.1-1.9-8.1-3.9-12.6-6 1-2 1.9-3.6 2.7-5.2 3.9 1.7 7.4 3.2 10.8 4.7 2.3-2.5 2.8-4.4-.7-5.8-2.6-1.1-5.2-2.4-8-3.8.7-1.5 1.4-2.8 2.1-4.2 3.1 1.4 6 2.5 8.6 3.9 3.4 1.8 4.9.5 5.3-3.4zm48.9 36.8c7.6-1.1 15.9 2.6 20.4-5.8 2.9-5.5 3.2-11.7-.7-16.9-5.3-7.1-12.9-3.1-19.7-4.1v26.8zm-41-331.9c-.9-3.6-1.6-6.5-2.3-9.3 6.4-2.6 6.4-2.6 8.7 3.1 1.6 4.1 1.9 4.2 6.7 1.7-.7-1.8-1.5-3.5-2-5.3-1.2-3.5-3.9-6.3-2.9-10.9.8-3.9-3.5-7.3-7.6-6.6-4.4.7-8.7 2.3-13.1 3.5 2.7 8.9 5.1 17 7.6 25.2 1.8-.5 3.2-.9 4.9-1.4zm50.5-8.4c-3-7.9-5.8-15.5-8.9-22.9-.5-1.2-2.5-2.4-3.7-2.4-1.3 0-3.3 1.4-3.7 2.5-2.3 7.9-4.2 15.9-6.3 24.1 3.2.5 5.4 1 6.4-3 .8-3.3 7.8-3.8 9.1-.8 1.5 3.6 3.6 3.6 7.1 2.5zM200 442.5c3.1 2.2 6.1 4.3 8.8 6.3 3-2.3 3.3-4.2.2-6-1-.6-1.8-1.4-2.8-2-3.5-2.2-3.2-4.2.3-6.4 3.3 2.4 6.5 4.7 10 7.2 1-1.4 1.9-2.5 3-4-5.1-3.8-10-7.5-15.1-11.3-5.4 7.2-10.5 14.1-15.8 21.1 1.8 1.3 3.1 2.3 4.6 3.4 2.4-2.9 4.5-5.5 6.8-8.3zm152.2-291.3c1.9-6.2 3.8-11.8 5.3-17.5.3-1-1-2.3-1.6-3.5-1.2.6-3.1.9-3.4 1.7-2.3 6.7-4.5 13.4-6.4 20.2-.2.9.9 2.9 1.8 3.2 4.4 1.7 8.9 2.9 13.7 4.4.5-2 .8-3.4 1.2-4.9-3.5-1.2-6.7-2.3-10.6-3.6zM333.4 460c1.6 8.1 3.2 15.4 4.6 22.7.4 2.1 1.2 3 3.4 2.6 2.1-.4 2.9-1.4 2.5-3.5-1.6-7.6-3.1-15.2-4.7-23.2-2.2.5-3.8.9-5.8 1.4zm-7.6-335.1c-.9 7.3-1.9 14.7-2.8 22-.2 1.9-.7 3.9 2.4 4.1 3 .2 2.9-1.8 3.2-3.7.8-6.1 1.4-12.1 2.4-18.2.5-4-1-5.2-5.2-4.2z"/>
    <path fill="#f7dd41" d="M351.2 386.9c10.8-14.8 21.1-28.8 31.4-42.9 7.9-10.9 15.9-21.7 23.8-32.6 4.7-6.5 4.6-4.4.1-10.5-17.2-23.6-34.4-47.2-51.6-70.7-1.1-1.5-2.1-3-3.7-5.4h5.8c53.1 0 106.1 0 159.2-.1 4.1 0 6.6 1.2 9 4.5 18.4 25.5 37.1 50.9 55.8 76.6-.8 1.3-1.5 2.6-2.4 3.8-18 24.7-36 49.3-54 74-1.6 2.2-3.1 3.9-6.4 3.9-54.8-.1-109.6-.1-164.4-.1-.5-.1-1.1-.3-2.6-.5zm117.2-133H431v104h37.4v-104zm41.7 46.5h-34.2v9.3h34.2v-9.3zm-34.4-37.3h34.1v-9.2h-34.1v9.2zM28.8 305.9c12-16.5 24-32.9 36.1-49.3 7-9.6 14.1-19.2 21.1-28.8 1.4-2 2.9-3.1 5.6-3.1 55 .1 110 .1 165 .1.5 0 1 .2 2.2.5-19.8 27.1-39.4 53.9-59.1 80.8 19.7 26.9 39.2 53.6 59.4 81.3h-6.6c-52.9 0-105.8 0-158.7.1-4.1 0-6.6-1.1-9-4.4-17.7-24.4-35.5-48.7-53.3-73.1-1-1.3-1.8-2.6-2.7-4.1zm107 52.2V254h-35.1v104.1h35.1zm7.3-103.7c0 18.9-.1 37.5.1 56.1 0 1.9 1.1 4 2.1 5.8 7.1 11.8 14.8 23.3 21.5 35.4 3.4 6.1 7.4 7.9 14.3 5.9-9.1-15-18.2-29.8-27.3-44.6 20.2-8.6 28.1-21.2 23.7-37.2-3.9-14.4-18.6-23.7-34.4-21.4z"/>
    <path fill="#e19b34" d="M123.3 394.7c6.8-1 6.7-.9 9.8 4.6 30.8 54.4 76.7 88.4 138.3 99.6 81.7 14.9 163.9-24.8 204.5-97.3.4-.7.8-1.3 1.1-2 1.7-4.7 4.9-6.6 9.8-5C465 446.3 399.2 507.3 309 508.9c-94.3 1.6-162.5-60.4-185.7-114.2zm363.5-177.4c-6.7 1-6.6 1-9.5-4.1-30.8-54.6-76.9-88.6-138.6-100.1-81.7-15.2-165.6 25.7-205.5 99.5-3 5.6-3 5.6-9.8 4.9 20.8-50 83-108.6 167.9-113.8 102.5-6.4 172.3 60.2 195.5 113.6z"/>
    <path fill="#0c0803" d="M226.5 327.5V285h61.7v-23.4h12.5v88.7h-12.2v-22.8h-62zm81.8-66h12.3v23h62v42.4h-61.7v23.3h-12.6v-88.7zM364 463.9c1.6 4.3 3.2 8.6 5 13.2-1.5.7-3 1.4-5 2.4-3.4-8.2-6.6-16.1-9.8-24 3.3-3.1 6.1-2.9 9.2-.1 3 2.7 6.3 5 9.5 7.4.4-.2.8-.4 1.2-.7-1.7-4.2-3.3-8.5-5.1-13.1 1.7-.7 3.2-1.4 5.1-2.2 3.4 8.1 6.5 15.9 9.8 23.9-3.1 2.8-5.8 2.8-9 0-3.1-2.8-6.7-5.1-10.1-7.6-.4-.2-.7-.4-1.1-.6.1.6.2 1 .3 1.4zm46.4-31.1c-1.8 2.1-3.7 3.9-6.8 2.2-.7-.4-1.9 0-2.7.3-3.6 1.3-5.1 4.5-4 8.4 1.3 4.7 5.7 8.5 9.3 8 3.8-.5 5.5-3 5.4-8.1-2.4-.2-5.7 4.5-7.3-1.8 2.5-1.9 5.4-3.9 8.6-6.3 1.5 2 2.9 3.8 4.2 5.6 1.4 1.8 2.7 3.7 4.5 6.2-2.2.9-4.4 1.2-5.8 2.4-1.6 1.3-2.2 3.6-3.7 4.9-3.7 3.2-8 3.8-12.4 1.5-5.5-2.9-8.7-7.6-9-13.8-.3-5.6 3-9.3 7.8-11.7 4.5-2.1 7.8-1.5 11.9 2.2zm-147.1 24.4c6.6 1.4 12.6 2.6 18.8 3.9.3 3.5-.5 5.4-4.3 4.5-2.4-.6-4.9-1.2-7.3-1.4-.9-.1-1.9 1.1-2.8 1.8.6 1 1.1 2.4 2 2.8 2.1.8 4.5.9 6.7 1.7 1.1.4 2.5 1.7 2.6 2.7.1 2.4-1.8 2.5-3.7 2.1l-4.5-.9c-4.7-.9-4.7-.9-5.4 5 4.3 1 8.7 2 13.4 3-.3 1.7-.6 3.1-1 5-6.5-1.4-12.8-2.7-19.7-4.1 1.6-8.9 3.3-17.1 5.2-26.1zm-14.5-4.8c-.4 3.9-1.8 5.2-5.3 3.3-2.7-1.4-5.5-2.5-8.6-3.9-.7 1.4-1.3 2.7-2.1 4.2 2.9 1.4 5.4 2.8 8 3.8 3.6 1.4 3 3.3.7 5.8-3.4-1.5-6.9-3-10.8-4.7-.9 1.6-1.7 3.2-2.7 5.2 4.4 2.1 8.5 4.1 12.6 6-.5 3.5-1.6 5.2-5.3 3.3-4.7-2.4-9.7-4.5-14.9-6.9 3.7-8.1 7.3-15.9 11-24.1 6.1 2.9 11.8 5.5 17.4 8zm48.9 36.8v-26.9c6.8 1.1 14.4-2.9 19.7 4.1 3.9 5.2 3.6 11.4.7 16.9-4.5 8.5-12.8 4.7-20.4 5.9zm6-21.4v15.9c8 .5 10.3-1.6 10.1-8.8-.2-6.6-2-7.9-10.1-7.1zm-47-310.5c-1.7.5-3.1.9-4.9 1.4-2.5-8.3-4.9-16.3-7.6-25.2 4.4-1.2 8.7-2.8 13.1-3.5 4-.7 8.4 2.7 7.6 6.6-1 4.6 1.7 7.4 2.9 10.9.6 1.8 1.4 3.5 2 5.3-4.8 2.5-5.1 2.4-6.7-1.7-2.3-5.7-2.3-5.7-8.7-3.1.7 2.8 1.5 5.7 2.3 9.3zm-3.8-13.9c2.9-2.3 8.1-1.1 6.5-5.9-1.7-5.2-5.2-1.1-8.5-.8.7 2.3 1.2 4 2 6.7zm54.3 5.5c-3.5 1.2-5.5 1.2-7-2.3-1.3-3.1-8.2-2.5-9.1.8-1 4-3.2 3.4-6.4 3 2.1-8.3 4-16.3 6.3-24.1.3-1.2 2.4-2.5 3.7-2.5 1.3 0 3.2 1.2 3.7 2.4 3 7.2 5.7 14.7 8.8 22.7zm-9.3-9.6c-1.2-2.9-2-5-3.3-8.1-.7 3.5-1.1 5.7-1.6 8.1h4.9zM200 442.5c-2.3 2.8-4.4 5.4-6.7 8.3-1.5-1.1-2.9-2.1-4.6-3.4 5.3-7.1 10.4-13.9 15.8-21.1 5.2 3.9 10 7.5 15.1 11.3-1.1 1.5-2 2.7-3 4-3.5-2.5-6.7-4.8-10-7.2-3.5 2.2-3.8 4.2-.3 6.4 1 .6 1.8 1.4 2.8 2 3 1.8 2.7 3.7-.2 6-2.9-2-5.8-4.1-8.9-6.3zm152.2-291.3c3.9 1.3 7.1 2.5 10.6 3.7-.4 1.5-.7 2.9-1.2 4.9-4.8-1.5-9.3-2.7-13.7-4.4-.9-.3-2-2.4-1.8-3.2 1.9-6.8 4-13.5 6.4-20.2.3-.9 2.2-1.2 3.4-1.7.6 1.2 1.8 2.5 1.6 3.5-1.5 5.6-3.4 11.2-5.3 17.4zM333.4 460c2-.5 3.6-.9 5.8-1.4 1.6 8 3.1 15.6 4.7 23.2.4 2.1-.4 3.2-2.5 3.5-2.2.4-3-.6-3.4-2.6-1.4-7.3-3-14.6-4.6-22.7zm-7.6-335.1c4.2-1 5.7.2 5.1 4.3-.9 6-1.6 12.1-2.4 18.2-.2 1.9-.2 3.9-3.2 3.7-3.1-.2-2.6-2.2-2.4-4.1 1-7.5 2-14.8 2.9-22.1zm142.6 129v104H431v-104h37.4zm41.7 46.5v9.3h-34.2v-9.3h34.2zm-34.4-37.3v-9.2h34.1v9.2h-34.1zm-339.9 95h-35.1V254h35.1v104.1zm7.3-103.7c15.9-2.2 30.5 7.1 34.4 21.3 4.4 16.1-3.5 28.6-23.7 37.2 9.1 14.9 18.1 29.7 27.3 44.6-6.8 2-10.9.1-14.3-5.9-6.7-12.1-14.3-23.6-21.5-35.4-1-1.7-2.1-3.8-2.1-5.8-.2-18.5-.1-37.1-.1-56z"/>
    <path fill="#ed8100" d="M364 463.9c-.1-.4-.2-.9-.3-1.3.4.2.7.4 1.1.6-.3.2-.5.5-.8.7z"/>
    <path fill="#e19b34" d="M303.7 467.8c8.1-.8 9.9.6 10.1 7.1.2 7.2-2.1 9.3-10.1 8.8v-15.9zm-50.8-324.4c-.8-2.7-1.3-4.5-2-6.7 3.3-.3 6.8-4.4 8.5.8 1.6 4.8-3.6 3.6-6.5 5.9zm45-4.1H293c.5-2.5.9-4.6 1.6-8.1 1.3 3.1 2.1 5.2 3.3 8.1z"/>
</svg>
