<svg xmlns="http://www.w3.org/2000/svg" viewBox="0 0 612 612">
    <g fill-rule="evenodd" clip-rule="evenodd">
        <path class="color-orange color-reserved-white" fill="#e19b34" d="M304.7 510.4c-113 0-204.1-91.6-204.1-204.1 0-113 91.1-204.6 204.1-204.6 112.5 0 204.1 91.6 204.1 204.6 0 112.5-91.6 204.1-204.1 204.1z"/>
        <path class="color-black color-reserved-gray" fill="#010101" d="M592 306.3l-64.4-87.4H491c-9.9-21.5-23.6-41.3-40.8-58.6-38.7-38.7-90.5-60.2-145.5-60.2-82.7 0-153.9 49.2-186.8 119.3H84.4L20 306.8l66.5 88.4h32.4c10.2 20.9 23.8 40 40.3 56.5 38.7 38.7 90.5 60.2 145.5 60.2s106.8-21.5 145.5-60.2c16.7-17.3 30.4-36.6 40.3-57.6h35.1l66.4-87.8zm-385.2 0l64.9-86.9H137.2c8.9-16.7 19.9-32.4 34-46.6 35.6-35.6 83.2-55.5 133.4-55.5s97.3 19.9 132.9 55.5c14.1 13.6 25.1 29.3 34 46.1H340.3l64.9 86.9-67.5 88.4h133.4c-31.9 59.7-94.7 100.5-166.4 100.5-50.2 0-97.9-19.9-133.4-55.5-13.1-13.1-24.1-28.3-33-44h135.5l-67-88.9zm-45.5-143.4c38.2-38.2 89-59.7 143.4-59.7 53.9 0 104.7 21.5 143.4 59.7 16.2 16.2 29.8 35.6 39.3 56H479c-9.4-18.3-21.5-35.6-36.6-50.8-36.6-36.6-85.8-57-137.6-57-76.4 0-142.9 44.5-174.8 108.3h-9c9.9-20.9 23.6-39.8 40.3-56.5zm143.4 345.9c-54.4 0-105.2-21.5-143.4-59.7-16.2-15.7-28.8-34-38.7-53.9h8.9c8.9 17.8 20.9 34 35.6 48.7 36.6 36.6 85.3 57 137.6 57 51.8 0 101-20.4 137.6-57 14.7-14.7 26.7-31.4 36.1-49.7h8.4c-33 68-102 114.6-182.1 114.6z"/>
        <path class="color-yellow color-reserved-white" fill="#f7dd41" d="M88 225.7h171.1l-61.2 81.1 63.3 81.6H90.7l-61.8-82.2L88 225.7zm436-1.1H352.8l61.2 81.6-63.3 81.1h170.6l62.3-81.1-59.6-81.6z"/>
        <path class="color-black color-reserved-gray" fill="#010101" d="M326.2 277.5c0-14.1-11.5-25.6-25.1-25.6-6.3 0-12 2.1-16.2 5.8l31.4 39.8c6.2-4.3 9.9-11.6 9.9-20zm-74.9 47.1c0 16.2 15.7 33 28.8 34 7.8 1.1 18.8.5 23.6-3.1l-41.9-53.4c-6.3 5.2-10.5 13.6-10.5 22.5zm83.2-2.6l19.4-14.7-1.1 12-12.6 9.9-5.7-7.2zM279 261.3c-24.1 19.4-6.8 43.4-6.8 43.4l42.4 53.4h39.8L279 261.3zm-88.4-79.6l7.8-7.3 9.9 9.9-3.1 2.6-2.1-2.1c0 2.1 0 5.2-3.7 8.4-4.2 4.2-11.5 4.7-17.8-1.6-4.7-5.2-6.3-12.6 0-18.8 5.8-5.2 11.5-3.7 14.1-1l-3.7 3.7c-1-1-4.7-2.1-7.3.5-2.6 2.6-3.7 6.8 1 12s8.9 3.7 11.5 1c1-.5 3.7-3.7.5-8.4l-4.2 4.2-2.9-3.1zm38.7-35.6l-12 6.8 2.6 4.7 11-5.8 2.1 3.7-11 6.3 3.1 5.8 12.6-6.8 2.6 4.2-17.3 9.4-12.6-23 16.7-8.9 2.2 3.6zm35.6-16.7l4.7-1 6.8 25.1-5.2 1-15.2-15.2 4.7 17.8-4.7 1.6-6.8-25.1 5.8-1.6 14.7 14.7-4.8-17.3zm48.2.5h-13.6v5.2H312v4.7h-12.6v6.8h14.1v4.2l-19.4.5v-26.2h18.8v4.8h.2zm23.5 16.2c-.5 1.6-.5 4.7 4.2 5.8 2.6.5 5.8.5 6.3-2.1.5-2.1-1.6-3.1-3.7-4.2l-2.6-1.6c-4.2-1.6-7.9-3.7-6.3-8.9.5-3.1 3.1-7.3 11.5-5.8 7.9 2.1 8.4 7.3 7.9 10.5l-5.2-1c0-1 .5-3.7-4.2-5.2-2.1-.5-4.7 0-5.2 2.1s1 2.6 2.1 3.1l5.8 3.1c3.1 1.6 6.3 3.7 5.2 8.4-2.1 7.3-9.9 6.3-12 5.8-9.4-2.1-9.4-7.8-8.9-11l5.1 1zm56 7.9l-12-6.3-2.6 4.7 11.5 5.8-2.1 4.2-11.5-5.8-2.6 5.8 12.6 6.8-2.1 3.7-17.3-8.9 11.5-23 17.3 8.9-2.7 4.1zm33.5 25.6l-10.5-9.4-3.7 4.2 9.9 8.4-3.1 3.7-9.4-8.4-4.7 4.7 11 9.9-3.1 3.1-14.7-13.1 16.7-19.4 14.7 12.6-3.1 3.7zm-231.8 236l4.7 3.7c-6.3 13.1-7.3 14.7-8.9 17.3h.5c1.6-1.6 3.7-3.1 14.1-12.6l4.7 3.7c-6.3 13.1-7.3 14.1-8.9 17.3 2.1-1.6 3.7-3.1 15.2-12l4.2 3.1-21.5 16.2-4.2-3.7c5.8-11.5 6.8-13.6 9.4-18.3-3.7 3.7-5.2 4.7-15.7 13.6l-4.2-3.1 10.6-25.2zm39.7 56l-5.2-2.1 4.2-8.9-2.1-18.3 6.3 2.6v12l9.4-7.8 5.8 2.1-14.7 11.5-3.7 8.9zm43.5-14.6c3.1.5 12 3.7 9.9 15.7-2.1 11.5-11.5 11.5-14.7 11-3.1-.5-12-3.7-9.9-15.7 2.1-11.5 11.5-11.5 14.7-11zm-3.7 22.5c2.6.5 6.8-1.1 8.4-7.9 1-7.3-2.6-9.9-5.8-9.9-2.6-.5-6.8.5-8.4 7.3-1 7.3 2.7 10 5.8 10.5zm58.6 4.7h-5.2l-2.1-21.5-2.6 22-5.8.5-6.3-20.9 1.6 21.5-4.7.5-2.1-25.6 7.9-1.1 6.3 19.9 2.6-20.4 7.8-1 2.6 26.1zm26.2-6.8l-5.2 1.6-7.3-24.6 5.2-1.6 7.3 24.6zm23-37.7l4.2-2.6 12 23-4.7 2.6-17.8-11.5 8.4 16.2-4.7 2.6-12-23 5.2-2.6 17.3 11h.5l-8.4-15.7zm35.1-11l7.9-7.3 9.4 10.5-2.6 2.1-2.6-2.1c0 2.1 0 5.2-3.1 8.4-4.7 4.2-12 4.7-18.3-2.1-4.7-5.2-6.3-12.6.5-18.3 5.8-5.8 11.5-3.7 14.1-1.6l-4.2 3.7c-.5-.5-4.2-1.6-6.8 1.1-2.6 2.1-3.7 6.8.5 11.5 4.7 5.2 8.9 4.2 11.5 1.6 1-.5 3.7-3.7 1-8.4l-4.7 4.2-2.6-3.3zm-341.2-123c0 28.3 21.5 51.3 49.2 53.9V252.4C96.9 255 75.5 278 75.5 305.7zm106.7 3.7H133v49.7c26.7-1.6 47.7-23 49.2-49.7zm-11.5-20.9h8.9c-6.8-19.9-25.1-34.5-47.1-36.1v8.9c17.3 1 31.9 12 38.2 27.2zm274.8-34.6l20.9 78.5-5.8 24.6h-24.1l-27.7-103.1h36.7zm44.4 0l20.9 78.5L505 357h-24.6l-27.2-103.1h36.7zm24.6 63.9l-4.7-18.3 12-45.5h10.5l-17.8 63.8z"/>
    </g>
</svg>
