<svg xmlns="http://www.w3.org/2000/svg" viewBox="0 0 612 612">
    <g fill-rule="evenodd" clip-rule="evenodd">
        <path fill="#e19b34" d="M304.2 511.9c-113.3 0-205.6-92.2-205.6-205.6 0-114 92.2-206.3 205.6-206.3 114.1 0 205.6 92.2 205.6 206.3 0 113.4-91.6 205.6-205.6 205.6z"/>
        <path fill="#010101" d="M594 306.4l-65.4-87.9h-36.3c-10.2-21.9-24.2-41.8-41.4-58.8-39.2-39.2-91.5-61-146.7-61-82.8 0-154.7 49.4-188.1 120.6H82.6L18 307.1l66.8 88.6h32.7c10.2 21.1 23.2 39.9 40 56.7 39.2 39.2 91.5 61 146.7 61 55.2 0 107.5-21.8 146.7-61 16.7-16.7 30.4-36.1 40.7-57.4h35.6l66.8-88.6zm-388.6 0l65.4-87.2H135.7c8.8-17.5 20.3-33.4 34.1-47.2 36.3-36.3 83.5-55.9 134.4-55.9 50.9 0 98.8 19.6 134.4 55.9 13.8 13.8 25.4 29.1 34.1 46.5H340.5l65.4 87.2-68.3 89.3H472c-32 60.3-95.2 101-167.8 101-50.8 0-98.1-19.6-134.4-55.9-13.1-13.1-24-28.3-32.7-44.3h136.6l-68.3-89.4zm-45.8-144.6c39.2-38.5 90.1-59.6 144.5-59.6 54.5 0 106.1 21.1 144.6 59.6 16.7 16.7 29.8 35.6 40 56.7H480c-9.5-18.9-21.8-36.3-37.1-50.8-37-37-86.4-58.1-138.7-58.1-77 0-143.1 45-175.8 109.7h-8.7c9.4-21.2 23.2-40.8 39.9-57.5zm144.6 348.7c-54.5 0-105.3-21.8-144.5-60.3-16-16-29.1-34.1-38.5-54.5h8.7c9.4 18.2 21.1 34.1 35.6 49.4 36.7 36.9 86.7 57.5 138.7 57.4 52.3 0 101.7-20.3 138.7-57.4 15.2-15.2 26.9-32 36.3-50.1h8.7c-33.4 68.3-103.1 115.5-183.7 115.5z"/>
        <path fill="#f7dd41" d="M86.3 225h172.2l-61.7 82.1 63.9 82.1H89.2l-62.5-82.8L86.3 225zm438.7-.7H352.9l61.7 82.1-63.9 82.1h172.2l62.5-82.1-60.4-82.1z"/>
        <path fill="#010101" d="M326 277.3c0-13.8-11.6-25.4-25.4-25.4-5.8 0-11.6 1.5-16 5.1l32 40.7c5.9-5.1 9.3-12.6 9.4-20.4zm-75.6 47.9c.7 16 16 32.7 29.1 34.1 8 .7 18.9.7 24-3.6L261.3 302c-6.5 5.8-10.9 13.8-10.9 23.2zm84.3-2.9l18.9-15.2-.7 12.4-13.1 10.2-5.1-7.4zm-56-61.7c-24.7 19.6-7.3 44.3-7.3 44.3l42.9 53H355l-76.3-97.3zM195.2 196l-3.6 3.6-18.2-18.9 8-8c3.6-3.6 8.7-3.6 11.6 0 2.2 2.2 5.1 7.3 0 12.4l-4.4 4.4 6.6 6.5zm-5.8-13.8c2.9-2.9.7-4.4 0-5.8-2.2-1.5-3.6-1.5-5.8.7l-3.6 3.6 5.8 5.1 3.6-3.6zm22.5-33.5c3.6-2.2 11.6-5.1 18.2 5.1 6.5 10.9-.7 16.7-3.6 18.2-2.9 2.2-11.6 5.1-18.1-5.1-5.9-10.9.6-16.7 3.5-18.2zm12.4 19.7c2.2-1.5 5.1-5.1 1.5-11.6-4.4-6.5-8.7-5.8-10.9-4.4-2.9 1.5-5.1 5.1-1.5 11.6 3.6 6.5 8 5.8 10.9 4.4zm16.7-33.5l13.1-4.4c6.5-1.5 9.4 2.9 10.2 5.1.7 2.2 0 5.1-2.2 7.3 2.2 0 3.6 0 5.1 5.1 1.5 3.6 1.5 4.4 2.9 4.4v.7l-5.8 2.2c-.9-1.6-1.6-3.3-2.2-5.1-.7-3.6-1.5-5.1-5.8-3.6l-5.1 2.2 2.9 9.4-5.1 1.5-8-24.8zm15.2 7.3c2.2-.7 3.6-2.2 2.9-4.4-.7-1.5-2.2-3.6-5.1-2.2l-6.5 2.2 2.2 6.5 6.5-2.1zm38.5 8h-5.8l-1.4-21.1-8 .7-.7-5.1 21.1-1.5.7 4.4-8 .7 2.1 21.9zm26.2-4.4l13.1 1.5-.7 4.4-18.2-2.2L318 124h5.1l-2.2 21.8zm28.3 10.2l-5.1-2.2 17.4-21.1 5.8 1.5v27.6l-5.8-1.5.7-5.8-9.5-2.9-3.5 4.4zm6.6-8.7l6.5 2.2v-10.2l-6.5 8zm50.1 7.3l4.4 2.2-13.8 22.5-4.4-2.9.7-21.8-10.2 16-4.4-2.9 14.5-21.8 4.4 2.9-.7 21.1 9.5-15.3zm20.3 15.2l8 8c6.5 6.5 2.2 13.1-1.4 16.7-3.6 3.6-10.9 8-17.4 1.5l-8-8 18.8-18.2zm-11.6 18.9l3.6 3.6c2.9 3.6 7.3 1.5 10.2-1.5 5.8-5.8 3.6-8.7 2.2-10.2L427 177l-12.4 11.7zM195.2 417.5l4.4 3.6c-6.5 13.1-7.3 15.2-8.7 17.4 2.2-1.5 4.4-3.6 14.5-12.4l5.1 2.9c-6.5 13.8-7.3 14.5-8.7 17.4v.7c1.4-2.2 3.6-3.6 15.2-13.1l4.4 3.6-21.8 16-4.4-2.9c5.8-11.6 6.6-14.5 9.5-18.9-3.6 3.6-5.8 5.1-16 13.8l-4.4-2.9 10.9-25.2zm53.1 38.5l-12.4-5.8-2.2 5.1 11.6 5.1-2.2 4.4-11.6-5.1-2.2 5.8 13.1 6.5-2.2 3.6-18.2-8 10.9-23.3 17.4 7.3-2 4.4zm16.7 18.9c0 1.5 0 4.4 5.1 5.1 2.2.7 5.1.7 5.8-2.2 0-2.2-1.5-2.9-4.4-4.3l-2.2-.7c-4.4-2.2-8-3.6-6.5-9.4 0-2.9 2.9-7.3 10.9-5.8s9.5 7.3 8.7 10.2l-5.1-.7c0-1.5 0-4.3-4.4-5.1-2.2-.7-5.1 0-5.1 2.2-.7 2.2.7 2.9 2.2 2.9l5.8 2.9c2.9 1.5 5.8 3.6 5.1 8-1.4 8-9.4 7.3-11.6 6.5-9.4-1.5-10.2-7.3-9.4-10.9l5.1 1.3zm45.7 12.3h-5.8v-21.1h-8V461H318v4.4h-8l.7 21.8zm40.7-27.6l-13.8 2.9 1.5 5.1 12.4-2.9.7 4.4-12.4 2.9 1.5 6.5 14.5-2.9.7 4.4-18.9 4.4-6.5-25.4 18.9-4.4 1.4 5zm13.1-10.1l11.6-5.1c6.5-3.6 10.2.7 10.9 2.9 1.5 2.2.7 5.1-.7 7.3 2.2 0 3.6 0 5.8 4.4 1.5 3.6 2.2 4.4 2.9 4.4l.7.7-5.8 2.2c-.7-.7-1.4-2.2-2.9-4.4-1.5-2.9-2.2-4.4-5.8-2.9l-5.1 2.9 4.4 8.7-4.4 2.9-11.6-24zm15.2 5.8c2.9-1.5 3.6-2.9 2.2-5.1 0-1.5-1.5-2.9-4.4-1.5l-6.5 2.9 2.9 5.8 5.8-2.1zm29.1-32.7l3.6-3.6 16.7 20.3-4.4 3.6-20.3-8 12.4 14.5-4.4 2.9-16.7-19.6 5.1-3.6 18.9 7.3-10.9-13.8zm39.9-169.3l21.8 79.9-5.8 25.4H440l-28.3-105.3h37zm45.8 0l21.1 79.9-5.8 25.4h-24.7l-28.3-105.3h37.7zm24.7 65.4l-4.3-18.9 12.4-46.5h10.2l-18.3 65.4zM97.9 253.3h36.3v105.3H97.9V253.3zm78.4 30.5c0-16.7-13.8-29.8-31.2-30.5H140v60.3h5.1c17.4-.7 31.2-13.8 31.2-29.8z"/>
    </g>
</svg>
