<svg xmlns="http://www.w3.org/2000/svg" viewBox="0 0 612 612">
    <g fill-rule="evenodd" clip-rule="evenodd">
        <path fill="#e19b34" d="M304.2 511.9c-113.3 0-205.6-92.2-205.6-206.3 0-113.3 92.2-205.6 205.6-205.6 114.1 0 206.3 92.2 206.3 205.6 0 114.1-92.3 206.3-206.3 206.3z"/>
        <path fill="#010101" d="M594 306.4l-64.6-88.6h-37.1c-10.2-21.1-24-41.4-41.4-58.8-39.2-38.5-90.8-60.3-146.7-60.3-82.8 0-154.7 49.4-188.1 119.9H82.6L18 307.1l66.8 88.6h32.7c10.2 21.1 23.2 40 40 56.6 39.2 39.2 91.5 61 146.7 61 55.9 0 107.5-21.8 146.7-61 17.4-16.7 30.5-36.3 40.7-57.4h35.6l66.8-88.5zm-388.6 0l65.4-87.9H135.7c8.7-16.7 20.3-32.7 34.1-47.2 36.3-35.6 83.5-55.2 134.4-55.2 50.9 0 98.8 19.6 134.4 55.2 13.8 14.5 25.4 29.8 34.1 46.5H340.5l65.4 87.9-67.6 89.3H472c-32 59.5-95.2 101-167.8 101-50.8 0-98.1-20.3-134.4-55.9-13.1-13.1-24-28.3-32.7-44.3h136.6l-68.3-89.4zm-45-144.6c38.5-39.2 89.3-60.3 143.8-60.3 54.5 0 106.1 21.1 144.6 60.3 16.7 16.7 29.8 35.6 40 55.9H480c-9.7-18.7-22.2-35.9-37.1-50.9-36.7-36.9-86.7-57.5-138.7-57.4-77 0-143.1 44.3-175.8 109h-8.7c10.2-21 23.2-39.9 40.7-56.6zm143.8 347.9c-54.5 0-105.3-21.1-143.8-59.6-16.7-16-29.8-34.9-39.2-54.5h8.7c9.4 17.4 21.1 34.1 35.6 48.7 36.7 36.9 86.7 57.5 138.7 57.4 52.3 0 101.7-20.3 138.7-57.4 15.2-14.5 26.9-31.2 36.3-49.4h8.7c-32.6 68.4-103.1 114.8-183.7 114.8z"/>
        <path fill="#f7dd41" d="M86.3 225h172.2l-61.7 81.3 63.9 82.1H89.2l-62.5-82.8L86.3 225zm438.7-.7H352.8l61.7 81.3-63.2 82.1h171.4l62.5-82.1-60.2-81.3z"/>
        <path fill="#010101" d="M326 277.3c0-14.5-10.9-26.2-25.4-26.2-5.8 0-11.6 2.2-16 5.8l32 40.7c5.9-5 9.3-12.5 9.4-20.3zm-75.6 47.2c.7 16 16 33.4 29.1 34.2 8 .7 18.9.7 24-2.9L261.3 302c-6.5 5.1-10.9 13.8-10.9 22.5zm84.3-2.9l18.9-14.5-.7 11.6-12.4 10.2-5.8-7.3zm-56-61c-24.7 19.6-6.5 43.6-6.5 43.6l42.1 53.7H355l-76.3-97.3zM188 195.2l9.4-9.4 2.9 3.6-12.3 13.1-18.9-18.2 3.6-4.4 15.3 15.3zm16.7-42.8c2.9-1.5 10.9-5.1 18.1 5.1 6.5 10.2 0 16-2.9 18.1s-11.6 5.8-18.1-4.4c-6.6-10.1 0-16.6 2.9-18.8zM217 172c2.9-2.2 5.1-5.8.7-11.6-3.6-6.5-8-5.1-10.9-3.6-2.2 1.5-4.4 5.1-.7 11.6 4.4 5.8 8.7 5 10.9 3.6zm40.7-25.4c2.2 6.5-.7 10.9-6.5 13.1-2.2.7-5.8 1.5-8.7 0-2.2-.7-3.6-2.9-4.4-5.1l-5.8-16.7 5.1-1.4 5.8 16c1.5 2.9 3.6 3.6 5.8 2.9 3.6-.7 4.4-3.6 3.6-6.5l-5.8-16 5.1-1.5 5.8 15.2zm21.8 5.1l-5.1.7-5.1-25.4 5.8-.7 4.4 25.4zm17.4-10.2c0 1.5.7 4.4 5.8 4.4 2.2 0 5.1-.7 5.1-3.6 0-1.4-1.5-2.2-4.4-2.9l-2.9-.7c-4.4-.7-8-1.5-8.7-7.3 0-2.9 2.2-8 10.2-8 8-.7 10.2 5.1 10.2 8h-5.1c0-1.4-.7-3.6-5.1-3.6-2.2 0-5.1.7-5.1 2.9s2.2 2.2 2.9 2.9l6.5 1.5c3.6.7 6.5 2.2 7.3 6.5 0 8-8 8.7-10.9 8.7-9.5 0-10.9-5.1-10.9-8.7l5.1-.1zm34.2 10.9l-5.1-1.5 3.6-25.4 5.8.7-4.3 26.2zm17.4 3.6l-5.8-1.5 17.4-21.8 5.8 2.2v27.6l-5.1-2.2v-5.8l-9.4-2.9-2.9 4.4zm5.8-8l6.5 2.2v-10.9l-6.5 8.7zm49.4 5.8l4.4 2.9-13.8 22.5-4.4-2.9.7-21.8-10.2 16-3.6-2.9 13.8-21.8 4.4 2.9-.7 21.1 9.4-16zm3.6 36.4l-3.6-4.4 24.7-11.6 4.4 4.4-11.6 24.7-4.4-3.6 2.9-5.1-7.3-7.3-5.1 2.9zm9.5-5.1l5.1 5.1 5.1-9.5-10.2 4.4zM237.3 445.8l10.9 4.4c8 3.6 7.3 10.9 5.1 15.3-1.5 5.8-6.5 12.3-14.5 9.4l-10.9-4.4 9.4-24.7zm-2.9 22.6l5.1 1.4c4.4 2.2 7.3-1.4 8.7-5.8 2.9-7.3 0-8.7-2.2-9.5l-5.1-2.2-6.5 16.1zm52.3-3.7l-13.8-2.2-.7 5.1 12.4 2.2-.7 4.4-13.1-2.2-.7 6.5 13.8 2.9-.7 4.4-18.9-3.6 4.4-25.4 18.9 3.6-.9 4.3zm17.5 17.4h13.1v4.4l-18.1.7-.7-26.2h5.8v21.1zm39.2.8l-5.1.7-4.4-21.1-8 1.5-.7-4.4 20.4-4.4 1.4 5.1-8 1.5 4.4 21.1zm25.4-8l-5.8 2.9-1.5-28.3 5.8-2.2 18.9 20.3-5.8 2.9-3.6-4.4-8.7 3.6.7 5.2zm-1.4-10.2l6.5-2.2-7.3-8.7.8 10.9zm-271-107.5V252.6h37.1v104.6H96.4zm79.2 0h-34.9v-8.7h34.9v8.7zm350.1-52.3c.1-27.3-20.8-50-47.9-52.3v103.9c26.9-2.2 47.9-24.7 47.9-51.6zm-91.5-52.3h37v103.9h-37V252.6z"/>
    </g>
</svg>
