<svg xmlns="http://www.w3.org/2000/svg" viewBox="0 0 612 612">
    <g fill-rule="evenodd" clip-rule="evenodd">
        <path fill="#e19b34" d="M304.9 511.2c-114 0-206.3-91.5-206.3-205.6 0-113.3 92.2-205.6 206.3-205.6 113.3 0 205.6 92.2 205.6 205.6 0 114.1-92.3 205.6-205.6 205.6z"/>
        <path fill="#010101" d="M594 305.6l-64.6-87.9h-37c-10.2-21.9-24.2-41.8-41.4-58.8-39.2-39.2-90.8-60.3-146-60.3-83.5 0-155.4 49.4-188.1 119.8H82.6l-64.6 88 66.8 89.3h32.7c10.5 20.9 24.2 40.1 40.7 56.6 39.2 39.2 90.8 61 146.7 61 55.2 0 106.8-21.8 146-61 17.1-16.3 30.9-35.8 40.7-57.4h35.6l66.8-89.3zm-387.9.8l65.4-87.9H135.7c9.2-17.4 20.9-33.3 34.9-47.2 35.6-35.6 83.5-55.2 134.4-55.2 50.1 0 98.1 19.6 133.7 55.2 13.7 13.7 25.2 29.4 34.1 46.5H340.5l65.4 87.9-67.6 89.3H472c-32 59.5-95.2 101-167.1 101-50.8 0-98.8-20.3-134.4-55.9-13.8-13.1-24.7-28.3-33.4-44.3h136.5l-67.5-89.4zm-45.7-145.3c38.5-38.5 89.3-59.6 144.5-59.6 54.5 0 105.3 21.1 143.8 59.6 16.7 16.7 30.5 36.3 40 56.7H480c-9.7-18.6-21.9-35.7-36.3-50.9C407 130 357 109.4 305 109.5c-74.5-.1-142.7 42.2-175.8 108.9h-9.4c10.1-21 23.9-39.9 40.6-57.3zm144.5 348.6c-55.2 0-106-21.1-144.5-59.6-16-16-29.1-34.9-39.2-54.5h8.7c9.4 17.4 21.1 34.1 36.3 48.7 37 37.1 85.7 57.4 138.7 57.4 52.3 0 101.7-20.3 138.7-57.4 14.5-14.5 26.9-31.2 35.6-49.4h8.7c-32.6 67.6-102.4 114.8-183 114.8z"/>
        <path fill="#f7dd41" d="M86.3 225h172.1l-61.7 81.3 63.9 82.1H89.2l-62.5-82.8L86.3 225zm439.4-1.4H353.6l61.7 82.1-63.9 82.1h171.4l63.2-82.1-60.3-82.1z"/>
        <path fill="#010101" d="M326 277.3c.7-14.5-10.9-26.2-25.4-26.2-5.8 0-11.6 2.2-16 5.8l32 40c5.7-4.3 9.4-11.6 9.4-19.6zm-74.8 47.2c0 16 15.3 32.7 28.3 34.2 8 .7 19.6.7 24-2.9L261.3 302c-6.5 5.1-10.9 13.1-10.1 22.5zm83.5-2.9l19.6-14.5-.7 11.6-13.1 10.2-5.8-7.3zm-55.9-61c-24 19.6-6.5 43.6-6.5 43.6l42.1 53.7H355l-76.2-97.3zM201 155.3l10.9-6.5c5.1-2.9 8.7-.7 10.2 1.5 2.2 3.6.7 5.8 0 6.5 3.6-.7 5.1.7 6.5 2.9 1.5 2.2 1.5 4.4.7 5.8 0 2.2-.7 3.6-5.1 6.5l-9.4 5.8-13.8-22.5zm15.3 16l5.8-3.6c2.2-1.5 2.9-2.9 1.5-5.1-.7-2.2-2.9-2.2-4.4-.7l-6.5 3.6 3.6 5.8zm-5.8-9.5l5.8-3.6c1.5-1.5 2.9-2.9 1.5-4.4-.7-2.2-2.9-1.5-5.1-.7l-5.1 3.6 2.9 5.1zm46.5-14.5c2.9 5.8 0 10.2-6.5 12.3-2.2.7-5.8 1.5-8.7 0-2.2-.7-2.9-2.9-4.4-5.1l-5.8-16 5.1-2.2 5.8 16c1.5 3.6 4.4 4.4 6.5 2.9 3.6-.7 4.4-2.9 2.9-5.8l-5.8-16.7 5.1-1.5 5.8 16.1zm18.1 5.1l-5.8.7-4.4-25.4 18.9-3.6.7 5.1-13.1 2.2.7 5.8 11.6-2.2.7 4.4-11.6 2.2 2.3 10.8zm26.2-2.9h-5.1v-26.2h18.2v5.1h-13.1v5.8h11.6v4.4h-11.6v10.9zm24.7 1.4l-5.8-.7 13.8-24 6.5.7 4.4 27.6-5.8-.7-.7-5.8-9.4-2.2-3 5.1zm5.1-8.7l6.5.7-1.5-10.2-5 9.5zm27.6 12.4l12.4 5.1-2.2 4.4-16.7-7.3 9.4-24 5.1 2.2-8 19.6zm41.4-3.7c2.9 1.5 9.4 8 2.9 18.2s-14.5 6.5-17.4 5.1c-2.9-2.2-10.2-8-3.6-18.9 6.4-10.2 15.2-6.6 18.1-4.4zm-12.4 18.9c2.9 1.5 7.3 2.2 10.9-3.6 3.6-6.5 1.5-10.2-1.5-11.6-2.2-1.5-6.5-2.2-10.2 3.6-4.3 6.5-1.4 10.1.8 11.6zm-215 261.5l-3.6-3.6 18.2-18.9 8.7 8.7c3.6 3.6 2.9 8-.7 11.6-1.5 1.4-6.5 5.1-11.6 0l-4.4-4.4-6.6 6.6zm13.1-6.5c2.9 2.9 5.1.7 5.8 0 2.2-1.5 1.5-3.6-.7-5.8l-2.9-3-5.1 5.1 2.9 3.7zm10.9 26.8l-4.4-2.9 15.3-21.1 4.3 3.6-15.2 20.4zm19.6 13.1l-4.4-2.9 10.2-18.2-6.5-4.3 2.2-3.6 18.2 10.2-2.2 4.4-6.5-4.4-11 18.8zm27.6 12.4l-5.1-2.2 7.3-20.3-7.3-2.2 1.5-4.4 20.3 7.3-1.5 4.4-8-2.9-7.2 20.3zm24-2.2c0 1.5 0 4.4 5.1 5.8 2.2 0 5.1 0 5.8-2.9 0-1.4-1.5-2.9-4.3-3.6l-2.2-1.4c-4.4-1.5-8-2.9-7.3-8.7.7-2.9 2.9-8 11.6-6.5 7.3 1.5 8.7 7.3 8 10.2l-5.1-.7c0-1.4 0-3.6-4.4-5.1-2.2 0-4.4 0-5.1 2.2 0 2.2 1.5 2.9 2.2 3.6l5.8 2.9c3.6 1.5 6.5 2.9 5.8 8-1.5 7.3-9.4 6.6-11.6 6.6-9.4-2.2-10.2-7.3-9.4-10.9l5.1.5zm26.8-13.8h13.1c5.8 0 8 3.6 8 6.6 0 3.6-2.2 4.4-3.6 5.1 3.6 1.4 4.4 3.6 4.4 6.5.1 1.9-.7 3.8-2.2 5.1-1.5 1.5-2.9 2.9-8 2.9h-11.6l-.1-26.2zm5.1 21h7.3c2.2 0 3.6-.7 3.6-3.6 0-2.2-1.5-2.9-3.6-2.9h-7.3v6.5zm0-10.8h6.5c2.2 0 3.6-.7 3.6-2.9s-1.5-2.9-3.6-2.9h-6.5v5.8zm48.7 1.4c1.5 6.5-2.2 10.2-8.7 11.6-2.2 0-5.8.7-8.7-1.4-1.6-1.6-2.9-3.6-3.6-5.8l-2.9-17.4 5.1-.7 3.6 16.7c.7 3.6 2.9 4.4 5.8 4.4 3.6-.7 4.4-2.9 3.6-6.5l-2.9-16.7 5.1-.7 3.6 16.5zm5.1-19.6L366 448c6.5-2.2 9.4 2.2 10.2 4.4 1.5 2.2.7 5.1-1.5 7.3 2.2 0 3.6 0 5.8 4.4 1.5 3.6 1.5 4.4 2.9 4.4v.7l-5.1 2.2c-1.5-.7-1.5-2.2-2.9-4.4-1.5-3.6-2.2-4.4-5.8-2.9l-5.1 2.2 3.6 9.4-5.1 2.2-9.4-24.8zm15.2 6.5c2.9-1.5 3.6-2.9 2.2-5.1 0-1.4-1.5-2.9-4.4-1.4l-6.5 2.2 2.9 6.5 5.8-2.2zm29.1-15.2l8.7-5.8 8 11.6-2.9 2.2-2.2-2.2c-.7 2.2-.7 5.1-5.1 8-5.1 2.9-12.4 2.2-17.4-5.1-3.6-5.8-4.4-13.8 2.9-18.9 6.5-4.4 12.4-1.5 14.5 1.5l-4.4 2.9c-.7-.7-4.4-2.9-7.3-.7s-5.1 6.5-1.5 12.3c4.4 5.8 8.7 5.1 11.6 2.9.7-.7 4.4-2.9 2.2-8l-5.1 3.6-2-4.3zm22.5-14.5l8.7 8-4.4 4.4-18.2-18.9 3.6-3.6 7.3 6.5 7.3-6.5-7.3-7.3 4.4-3.6L440 427l-3.6 3.6-8.7-8-7.3 7.3zM92.8 254.1h37v105.3h-37V254.1zm62.5 50.8c10.2-4.4 17.4-13.1 17.4-24 0-14.5-13.8-26.9-31.2-26.9h-5.1v105.3h5.1c17.4-.7 31.2-13.1 31.2-28.3 0-11.6-7.3-21-17.4-26.1zm288.3-50.8H480v104.6h-36.3V254.1zm79.2 29.8c0-16-14.5-29.8-31.2-29.8h-5.1v59.6h5.1c16.7-.1 31.2-13.1 31.2-29.8z"/>
    </g>
</svg>
