<svg xmlns="http://www.w3.org/2000/svg" viewBox="0 0 612 612">
    <g fill-rule="evenodd" clip-rule="evenodd">
        <path fill="#e19b34" d="M304.2 511.9c-113.3 0-205.6-92.2-205.6-206.3 0-113.3 92.2-205.6 205.6-205.6 114.1 0 206.3 92.2 206.3 205.6 0 114.1-92.3 206.3-206.3 206.3z"/>
        <path fill="#010101" d="M594 306.4l-64.6-88.6h-37.1c-10.2-21.1-24-41.4-41.4-58.8-39.2-38.5-90.8-60.3-146.7-60.3-82.8 0-154.7 49.4-188.1 119.9H82.6L18 307.1l66.8 88.6h32.7c10.2 21.1 23.2 40 40 56.7 39.2 39.2 91.5 61 146.7 61 55.9 0 107.5-21.8 146.7-61 17.4-16.7 30.5-36.3 40.7-57.4h35.6l66.8-88.6zm-388.6 0l65.4-87.9H135.7c8.7-16.7 20.3-32.7 34.1-47.2 36.3-35.6 84.2-55.2 134.4-55.2 50.9 0 98.8 19.6 134.4 55.2 13.8 14.5 25.4 29.8 34.1 46.5H340.5l65.4 87.9-67.6 89.3H472c-32 59.6-95.2 101-167.8 101-50.1 0-98.1-20.3-134.4-55.9-13.1-13.1-24-28.3-32.7-44.3h136.6l-68.3-89.4zm-45-144.6c38.5-39.2 89.3-60.3 143.8-60.3 54.5 0 106.1 21.1 144.6 60.3 16.7 16.7 30.5 35.6 40 55.9H480c-9.7-18.7-22.2-35.9-37.1-50.8-37-37-86.4-57.4-138.7-57.4-77 0-143.1 44.3-175.8 109h-8.7c10.2-21.1 23.2-40 40.7-56.7zm143.8 348c-54.5 0-105.3-21.1-143.8-59.6-16.7-16-29.8-34.9-39.2-54.5h8.7c9.4 17.4 21.1 34.1 35.6 48.7 36.7 36.9 86.7 57.5 138.7 57.4 52.3 0 101.7-20.3 138.7-57.4 15.2-14.5 26.9-31.2 36.3-49.4h8.7c-32.6 68.3-103.1 114.8-183.7 114.8z"/>
        <path fill="#f7dd41" d="M86.3 225h172.2l-61.7 81.3 63.9 82.1H89.2l-62.5-82.8L86.3 225zm438.7-.7H352.8l61.7 81.4-63.2 82.1h171.4l62.5-82.1-60.2-81.4z"/>
        <path fill="#010101" d="M326 277.3c0-14.5-10.9-26.1-25.4-26.1-5.8 0-11.6 2.2-16 5.8l32 40.7c5.9-5.1 9.3-12.6 9.4-20.4zm-75.6 47.2c.7 16 16 33.4 29.1 34.1 8 .7 18.9.7 24-2.9L261.3 302c-6.5 5.1-10.9 13.8-10.9 22.5zm84.3-2.9l18.9-14.5-.7 11.6-12.4 10.2-5.8-7.3zm-56-61c-24.7 19.6-6.5 43.6-6.5 43.6l42.1 53.7H355l-76.3-97.3zm-79.1-70.4l-3.6 4.4-18.2-18.9 3.6-4.4 18.2 18.9zm16.7-18.9l10.9-6.5 2.2 3.6-15.2 10.2-13.8-21.8 4.4-2.9 11.5 17.4zm31.9-16l12.4-4.4 1.5 4.4-17.4 5.8-8.7-24.7 5.8-1.5 6.4 20.4zm35.6-4.4l-5.1.7-3.6-25.4 5.1-.7 3.6 25.4zm36.4-26.8l5.1.7-1.4 25.4H318l-9.4-18.9-1.4 18.2H302l1.5-26.1h5.8l9.4 18.9 1.5-18.2zm39.9 7.9c3.6.7 11.6 5.1 8 16.7-3.6 11.6-13.1 10.2-16 9.4-3.6-1.5-11.6-5.8-8-17.4 3.7-11.6 13.1-10.1 16-8.7zm-6.5 21.8c2.2.7 7.3 0 9.4-6.5 2.2-7.3-1.5-10.2-4.4-10.9-2.2-.7-7.3-.7-9.5 6.5-2.1 6.6 1.6 9.5 4.5 10.9zm30.5 18.2l-5.1-2.9 13.1-22.5 5.1 2.9-13.1 22.5zm23.2 6.5c-.7 1.5-2.2 4.4 1.4 7.3 2.2 1.5 4.4 2.9 6.5.7.7-1.5 0-2.9-1.4-5.1l-2.2-2.2c-2.2-3.6-4.4-7.3-.7-11.6 2.2-2.2 6.5-5.1 13 .7 5.8 5.1 3.6 10.9 1.5 13.1l-3.6-3.6c.7-.7 2.2-2.9-1.4-6.5-1.5-1.5-3.6-2.2-5.1-.7-1.4 1.5-.7 2.9 0 4.3l3.6 5.1c2.2 2.9 3.6 6.5.7 10.2-5.8 5.8-11.6.7-13.8-.7-7.3-6.5-4.4-11.6-2.2-13.8l3.7 2.8zM201 455.3l-3.6-2.9 13.1-17.4-17.4 14.5-3.6-3.6 9.4-19.6-13.8 16.7-3.6-2.9 16-20.3 6.6 4.3-9.5 19.6 16.7-13.8 5.8 5.1-16.1 20.3zm24.7 13.8l-4.4-2.2 11.6-23.3 4.3 2.2-11.5 23.3zm28.4-16L265 456c8.7 2.2 8.7 9.4 7.3 14.5-1.4 5.1-5.8 12.4-13.8 10.2l-10.9-2.9 6.5-24.7zm0 21.8l5.1 1.5c3.6 1.5 6.5-2.9 7.3-6.5 2.2-8-.7-9.4-3.6-10.2l-4.4-1.5-4.4 16.7zm42.8 7.3H310l-.7 5.1-18.2-.7.7-26.1h5.1v21.7zm38.5 2.1l-5.8.7 3.6-26.9 6.5-1.5 13.8 24-5.8.7-2.2-5.1-9.5 2.2-.6 5.9zm.7-10.1l6.5-1.5-5.1-9.4-1.4 10.9zm41.5-31.3l5.1-2.2 10.9 23.2-5.1 2.2-17.5-12.3 8 16.7-4.3 2.9-11.6-24 5.1-2.2 17.4 11.6-8-15.9zm19.6-12.3l8.7-7.3c6.5-5.1 13.1-.7 16 2.9 3.6 4.4 7.3 11.6.7 17.4l-8.7 7.3-16.7-20.3zm17.4 13.1l4.4-2.9c3.6-2.9 1.5-7.3-.7-10.9-5.1-5.8-8.7-3.6-10.2-2.2l-4.4 2.9 10.9 13.1zM116 357.2V252.6h37.1v104.6H116zm384.3-.7l-21.1-79.2 5.8-24.7h24l27.6 103.9h-36.3zm-45 0l-21.1-79.2 5.8-24.7h24.7l27.6 103.9h-37zm-24.7-63.9l4.4 18.2-12.4 45.8h-10.2l18.2-64z"/>
    </g>
</svg>
