<svg xmlns="http://www.w3.org/2000/svg" viewBox="0 0 612 612">
    <path fill="#e19b34" fill-rule="evenodd" d="M305.3 511.7c-113.9 0-206-92.1-206-205.3 0-113.9 92.2-206 206-206 113.2 0 205.3 92.2 205.3 206 0 113.1-92.2 205.3-205.3 205.3z" clip-rule="evenodd"/>
    <path fill="none" stroke="#010101" stroke-miterlimit="33.89" stroke-width="6.3472" d="M305.3 113.4c-106.6 0-193 86.3-193 193 0 105.9 86.3 192.2 193 192.2 105.9 0 192.2-86.3 192.2-192.2 0-106.7-86.3-193-192.2-193z"/>
    <path fill="#010101" fill-rule="evenodd" d="M594 306.4l-65.3-88.5h-36.3C482 196.4 468 176.7 451 159.8c-39.2-39.2-90.7-60.9-145.8-60.9-83.4 0-155.2 49.3-187.9 120.4h-34L18 307.1l67.5 88.5h32.6c10.2 21 23.9 39.9 40.6 56.6 39.2 39.2 90.7 60.9 146.5 60.9 55.1 0 106.6-21.8 145.8-60.9 17.1-16.3 30.9-35.8 40.6-57.3h34.8l67.6-88.5zm-388.1 0l65.3-87.1H136.3c8.8-17.4 20.3-33.4 34.1-47.1 36.3-36.3 83.4-55.9 134.2-55.9 50.8 0 98.7 19.6 134.2 55.9 13.8 13.8 25.4 29 34.1 45.7h-132l65.3 87.8-68.2 89.2h134.2c-31.9 60.2-95 100.8-167.6 100.8-50.8 0-97.9-19.6-134.2-55.9-13.1-13.1-24-28.3-32.6-44.3h136.4l-68.3-89.1zm-45-144.4c38.5-38.5 89.2-60.2 144.4-60.2 54.4 0 105.2 21.8 143.6 60.2 16.7 16.7 30.5 35.6 39.9 55.9h-8.7c-9.4-18.1-21.8-35.6-37-50.1-37-37.7-86.3-58-138.6-58-76.9 0-143.6 45-175.6 109.5h-8.7c10.3-21.2 24.1-40.6 40.7-57.3zm144.4 348.2c-55.1 0-105.9-21.8-144.4-60.2-15.9-15.9-29.1-34.3-39.2-54.4h8.7c9.4 18.1 21 34.1 35.6 49.3 36.7 36.8 86.6 57.5 138.5 57.3 52 .1 101.9-20.5 138.6-57.3 14.5-15.2 26.8-31.9 36.3-50.1h8.7c-32.7 68.3-102.3 115.4-182.8 115.4z" clip-rule="evenodd"/>
    <path fill="#010101" fill-rule="evenodd" d="M374.2 322.3h-25.4l-21.8 21h-34.8l5.1-5.1h8l21.8-35.5-5.8-13.8h-14.5l-11.6 16.7h-6.5l-4.3-8.7 18.9-30.5h17.4l7.2-7.2H341l21 22.5h12.3l-.1 40.6z" clip-rule="evenodd"/>
    <path fill="#010101" fill-rule="evenodd" d="M232 281.7h20.3l26.1-25.4h34.8l-5.1 5.1h-8l-21.8 35.5 6.5 13.8h13.8l11.6-16.7h7.3l3.6 8.7-18.9 30.5H285l-7.2 7.2h-13.1l-17.4-18.1H232v-40.6z" clip-rule="evenodd"/>
    <path fill="#f7dd41" fill-rule="evenodd" d="M86.9 225.1h171.9l-61.7 82 63.8 82H89.1l-61.7-82.7 59.5-81.3zm438.2-.7H353.2l61.7 82-63.8 82H523l62.4-82-60.3-82z" clip-rule="evenodd"/>
    <path fill="#010101" fill-rule="evenodd" d="M244.3 133.7l13.1-3.6c6.5-1.4 8.7 2.9 9.4 5.1.7 2.9 0 5.1-2.2 7.2 2.2 0 3.6.7 5.1 5.1 1.5 3.6 1.5 4.4 2.9 5.1l-5.8 2.2c-.7-1.5-1.5-2.2-2.2-5.1-.7-3.6-1.5-4.4-5.1-3.6l-5.8 1.5 2.9 10.1-5.1 1.5-7.2-25.5zm14.5 8c2.9-.7 3.6-2.2 2.9-4.4 0-1.5-1.5-3.6-4.4-2.2l-6.6 1.5 2.2 6.5 5.9-1.4zm31.2 8.7l-5.8.7 8-26.8h5.8l10.9 25.4h-5.8l-2.2-5.1-9.4.7-1.5 5.1zm2.2-10.2h6.5l-3.6-10.2-2.9 10.2zm34.1 11.7l-5.1-.7 3.6-26.1 5.1.7-3.6 26.1zm21.8-.8l12.3 4.4-1.5 4.3-18.1-5.8 8-24.7 5.1 1.5-5.8 20.3zm-98.7 322.1l12.3 3.6-.7 4.4-18.1-5.1 8-24.7 5.1 1.5-6.6 20.3zm33.4 12.3l-5.8-.7 3.6-26.1 5.8.7-3.6 26.1zm33.4-25.3h5.1l1.5 26.1H317l-11.6-18.1.7 18.1-5.1.7-.7-26.1h5.8l10.9 17.4-.8-18.1zm31.2 21l-5.1 1.5L335 458l5.8-1.5 2.2 10.2 7.2-13.1 6.5-1.5-7.2 13.1 14.5 11.6-6.5 2.2-10.9-9.4-1.4 3.6 2.2 8zm-249.6-230h36.3v104.5H97.8V251.2zm52.9 58.8h-2.2c16-1.5 28.3-13.8 28.3-29 0-16.7-13.8-29.7-31.2-29.7h-5.1V310l28.3 45.7h10.9l-29-45.7zM438 355.7V251.2h37.7v104.5H438zm79.1 0h-34.8V347h34.8v8.7z" clip-rule="evenodd"/>
</svg>
