<svg viewBox="0 0 283.5 283.5">
  <symbol id="BO-1867-c" viewBox="-25.5 -25.5 51 51">
    <circle fill="#ffeb00" r="25.5"/>
    <path fill="#00afad" d="M0-8.5c-4.7 0-8.5-3.8-8.5-8.5v-7c2.7-1 5.5-1.5 8.5-1.5s5.8.5 8.5 1.5v7c0 4.7-3.8 8.5-8.5 8.5m0 17c4.7 0 8.5 3.8 8.5 8.5v7C5.8 25 3 25.5 0 25.5S-5.8 25-8.5 24v-7c0-4.7 3.8-8.5 8.5-8.5"/>
    <path d="M-6.5-3.2h.7v6.9h-.7v1.5h3.4c1.5 0 3.2-.6 3.2-2.6 0-1-.5-1.7-1.4-2C-.3.2.2-.6.2-1.7c0-1.8-1.3-2.9-3.5-2.9h-3.2zM-3.4 1c.8 0 1.2.2 1.2 1.3 0 1.3-.4 1.4-1.2 1.4zm0-4.2c.9 0 1.3.1 1.3 1.4 0 1.4-.5 1.5-1.3 1.5zm7.5 8.5c2 0 3.4-2 3.4-5.1S6.2-4.9 4.1-4.9C2.1-4.9.7-2.9.7.2S2 5.3 4.1 5.3m0-1.6c-.6 0-.8-.5-.8-3.4s.2-3.4.8-3.4.8.5.8 3.4-.2 3.4-.8 3.4"/>
  </symbol>
  <defs>
    <path id="BO-1867-a" d="M280.6 141.7c0 76.7-62.2 138.9-138.9 138.9S2.8 218.4 2.8 141.7 65 2.8 141.7 2.8 280.6 65 280.6 141.7"/>
  </defs>
  <clipPath id="BO-1867-b">
    <use href="#BO-1867-a" overflow="visible"/>
  </clipPath>
  <g clip-path="url(#BO-1867-b)">
    <use width="51" height="51" x="-25.5" y="-25.5" href="#BO-1867-c" overflow="visible" transform="matrix(7.7777 0 0 -7.7777 139.516 139.779)"/>
  </g>
  <use fill="none" stroke="#f3eebf" stroke-miterlimit="10" href="#BO-1867-a" overflow="visible"/>
</svg>
