<svg viewBox="0 0 283.5 283.5">
  <symbol id="1867-cpr-Nouveau_symbole_26" viewBox="-25.5 -25.5 51 51">
    <circle fill="#b82837" r="25.5"/>
    <path fill="#d68f81" d="m0 2.8-1.4 22.7h2.8zm-6.5 21.9-2.7-.9L-.8 2.7zm-7.3-3.2-2.3-1.7L-1.7 2.3zm-6-5.4-1.7-2.3L-2.3 1.7zm-4-6.9-.9-2.7 22-5.7zm-1.7-7.8v-2.8L-2.8 0zm.8-7.9.9-2.7L-2.7-.8zm3.2-7.3 1.7-2.3L-2.3-1.7zm5.4-6 2.3-1.7L-1.7-2.3zm6.9-4 2.7-.9 5.7 22zm7.8-1.7h2.8L0-2.8zm7.9.8 2.7.9L.9-2.7zm7.3 3.2 2.3 1.7L1.7-2.3zm6 5.4 1.7 2.3L2.3-1.7zm4 6.9.9 2.7-22 5.7zm1.7 7.8v2.8L2.8 0zm-.8 7.9-.9 2.7L2.7.9zm-3.2 7.3-1.7 2.3L2.3 1.7zm-5.4 6-2.3 1.7L1.7 2.3zm-6.9 4-2.7.9-5.7-22z"/>
    <path fill="#b82837" d="M8.5 0c0-4.7-3.8-8.5-8.5-8.5S-8.5-4.7-8.5 0-4.7 8.5 0 8.5 8.5 4.7 8.5 0"/>
    <path fill="#fff" d="M-3.93 6.49c-.01 0-.07-.01-.13-.02-.14-.02-.3-.06-.41-.1-.05-.02-.1-.03-.1-.03s-.01.02 0 .04c.01.03.01.03-.03.03a1.1 1.1 0 0 1-.29-.12c-.07-.04-.14-.07-.14-.06-.01 0-.01.02-.01.05l.01.04-.04-.02c-.08-.05-.16-.11-.3-.21-.14-.11-.28-.2-.44-.28-.1-.05-.17-.11-.19-.16a.4.4 0 0 1-.02-.12c-.01-.09-.01-.1.12-.44.05-.13.08-.19.11-.23.05-.07.19-.17.31-.23l.09-.05v-.05c0-.06.03-.1.08-.14.04-.03.08-.04.32-.12.13-.04.21-.1.33-.25.05-.06.06-.07.08-.06.04.01.07 0 .14-.06s.11-.09.22-.12.24-.12.34-.22c.1-.11.12-.15.12-.27 0-.08 0-.1-.03-.16-.08-.17-.17-.21-.49-.2-.16 0-.17 0-.17-.02.01-.03-.05-.04-.28-.08-.12-.02-.24-.04-.28-.05-.21-.05-.3-.2-.3-.46 0-.12.01-.14.06-.19.06-.05.2-.11.37-.14.11-.02.18.07.21.25 0 .03.01.06.02.08q.03.09.15.03c.06-.04.12-.04.34-.05.19-.01.28-.03.31-.06.02-.02 0-.04-.13-.11-.09-.05-.11-.07-.11-.09 0-.01 0-.03-.02-.04-.09-.06-.38-.19-.54-.23-.14-.04-.13-.03-.12-.05.02-.02.01-.03-.07-.03s-.22-.02-.33-.05c-.14-.04-.31-.28-.35-.51-.03-.15.02-.27.14-.39.08-.07.08-.08.12-.12.04-.05.1-.07.15-.06.06.01.07.03.07.14v.1L-5 .77c.08-.06.17-.02.21.08.03.06.02.1-.01.15-.02.02-.04.05-.05.06-.02.03-.02.09 0 .1s.07.01.14-.01c.06-.02.08-.02.22-.02s.15 0 .14-.01c0-.01-.01-.04-.01-.06v-.05l.04.01c.06.01.28.01.3 0 .01-.01.01-.02 0-.04-.02-.03-.02-.04 0-.05.02-.02.08-.02.23.04.12.04.25.07.25.05 0 0-.02-.03-.05-.06S-3.64.9-3.64.9c0-.04.08-.04.25 0 .05.02.11.02.11.02.01-.01.02-.02.02-.05V.82s.02.01.03.01c.03.01.24.07.24.07S-3 .87-3 .83c-.01-.05-.01-.1-.01-.21.01-.13.01-.16.02-.14.02.02.06-.04.09-.12.02-.05.04-.12.06-.16.03-.07.05-.09.05-.06 0 .01.01.01.02.01.02 0 .04-.03.08-.11.08-.16.2-.31.28-.34.02-.01.03-.01.05.02l.02.03.12-.11c.07-.07.15-.13.2-.16.04-.03.08-.05.09-.06.02-.03.02-.08-.02-.2-.02-.06-.05-.2-.07-.31s-.04-.22-.05-.23l-.01-.02-.32.01c-.13 0-.25.03-.38.04-.15 0-.34-.06-.48-.1-.07-.02-.15-.04-.2-.1s-.06-.16.01-.2a1 1 0 0 1-.22-.15h.22a.52.52 0 0 1-.3-.2l2.08.09c.04-.06.07-.14.08-.21.1-.01.18-.09.19-.19-.25-.04-.5-.03-.75.02-.19.04-.38.11-.58.1-.33-.01-.62-.21-.89-.4.14-.02.28-.02.41.01a1.2 1.2 0 0 1-.44-.3c.13.03.27.04.4.03-.08 0-.1-.12-.04-.17s.14-.06.21-.06c.68.01 1.36.21 2.03.1.16-.03.33-.07.49-.05.16.03.33.15.33.32 0 .06-.02.12-.05.17-.06.12-.17.22-.3.27.25-.15.5-.31.74-.46.02.03.03.06.05.09.17-.09.37-.14.57-.14-.03.03-.05.06-.08.09.23-.1.51-.1.75.01-.08.04-.18.05-.27.05l.7.15c-.05.01-.1.05-.12.1.17.03.34.05.51.08.04.01.09.01.13 0 .04-.02.08-.05.11-.09.14-.18.21-.41.33-.6s.3-.34.42-.53c.18-.3.19-.67.3-1 .03-.09.07-.18.1-.27.06-.24-.03-.49.04-.72.03-.1.1-.24.16-.33.25-.39.64-.59 1.09-.57.28.01.46.08.63.24.16.16.28.39.39.75.05.16.07.28.09.42.01.06.01.14.02.17.01.06-.01.43-.03.56-.08.56-.26 1.09-.48 1.39-.12.17-.34.39-.49.5-.28.21-.48.3-1 .43-.14.03-.29.08-.35.1-.11.04-.33.14-.34.16-.01.01-.02.06-.04.11-.03.12-.03.15.06.15.03 0 .03 0 .02.04-.01.08-.03.24-.03.33 0 .11.02.14.08.09l.03-.02.01.05c.01.03.01.15.01.27v.22h.06l-.01.09c0 .05-.01.17-.02.26s-.01.18-.01.19c.01.01.01.01.04-.01l.03-.02.01.08c.01.08-.01.22-.02.29-.01.02-.01.05-.01.08v.04L3.64.5l.04-.01-.01.04c-.02.13-.03.28-.03.31s.01.04.03.04.03.01.03.01c-.01.06-.07.25-.09.31-.04.1-.04.11-.03.11.02 0 .09-.04.1-.05.01-.02.02 0 .01.04-.02.06-.1.22-.15.31-.07.11-.07.11-.02.11h.04l-.04.08c-.02.05-.08.16-.14.25-.11.18-.11.2-.05.19.02 0 .04 0 .04.01 0 .03-.06.13-.14.25-.05.07-.09.15-.09.16l-.01.03.04-.01h.04c0 .02-.19.31-.27.41-.06.08-.07.1-.04.12.02.01.01.02-.03.07-.02.03-.12.14-.22.24-.19.2-.23.24-.23.26 0 .01.01.01.02.01.04 0 .02.03-.09.12s-.26.2-.34.24c-.03.02-.06.04-.07.04-.01.01-.01.02.02.03l.03.01-.05.03c-.11.07-.35.17-.65.26-.16.05-.2.08-.18.1.01.01.04.03.07.04s.06.02.06.03-.16.06-.42.12c-.32.08-.4.1-.4.12s.03.03.08.04c.03.01.05.02.06.02.02.02-.33.1-.64.14-.09.01-.16.03-.17.03-.02.01.02.05.06.07.02.01.03.02.03.02 0 .02-.49.12-.65.14-.04 0-.08.01-.09.02-.02.01-.02.02.02.08 0 0-.03.01-.07.01-.14.01-.47.12-.62.2-.04.02-.15.1-.24.17-.15.12-.18.14-.18.17-.01.05-.04.08-.13.12-.07.04-.3.13-.32.13l-.06.02c-.05.02-.05.02-.03.04s.01.04-.04.06c-.2.08-.61.12-.93.09-.24-.03-.26-.03-.27-.02s-.01.02-.01.03-.01.01-.04.01c-.07-.03-.1-.03-.11-.03"/>
  </symbol>
  <path fill="#b82837" d="M280.6 141.7c0 76.7-62.2 138.9-138.9 138.9S2.8 218.4 2.8 141.7 65 2.8 141.7 2.8 280.6 65 280.6 141.7"/>
  <defs>
    <path id="1867-cpr-SVGID_1_" d="M263.3 141.7c0 67.1-54.4 121.5-121.5 121.5S20.3 208.8 20.3 141.7 74.7 20.2 141.8 20.2s121.5 54.4 121.5 121.5"/>
  </defs>
  <clipPath id="1867-cpr-SVGID_2_">
    <use href="#1867-cpr-SVGID_1_" overflow="visible"/>
  </clipPath>
  <g clip-path="url(#1867-cpr-SVGID_2_)">
    <use width="51" height="51" x="-25.5" y="-25.5" href="#1867-cpr-Nouveau_symbole_26" overflow="visible" transform="matrix(6.8055 0 0 -6.8055 141.735 141.734)"/>
  </g>
  <use fill="none" stroke="#fff" stroke-miterlimit="10" stroke-width=".5" href="#1867-cpr-SVGID_1_" overflow="visible"/>
</svg>
