<svg xmlns="http://www.w3.org/2000/svg" xmlns:xlink="http://www.w3.org/1999/xlink" viewBox="0 0 283.5 283.5">
  <symbol id="1867-gtr-Nouveau_symbole_5" viewBox="-25.5 -25.5 51 51">
    <circle fill="#984d2d" r="25.5"/>
    <path fill="#c3967b" d="m0 2.8-1.4 22.7h2.8zm-6.5 21.9-2.7-.9L-.8 2.7zm-7.3-3.2-2.3-1.7L-1.7 2.3zm-6-5.4-1.7-2.3L-2.3 1.7zm-4-6.9-.9-2.7 22-5.7zm-1.7-7.8v-2.8L-2.8 0zm.8-7.9.9-2.7L-2.7-.8zm3.2-7.3 1.7-2.3L-2.3-1.7zm5.4-6 2.3-1.7L-1.7-2.3zm6.9-4 2.7-.9 5.7 22zm7.8-1.7h2.8L0-2.8zm7.9.8 2.7.9L.9-2.7zm7.3 3.2 2.3 1.7L1.7-2.3zm6 5.4 1.7 2.3L2.3-1.7zm4 6.9.9 2.7-22 5.7zm1.7 7.8v2.8L2.8 0zm-.8 7.9-.9 2.7L2.7.9zm-3.2 7.3-1.7 2.3L2.3 1.7zm-5.4 6-2.3 1.7L1.7 2.3zm-6.9 4-2.7.9-5.7-22z"/>
    <path fill="#fff" d="M9.9 0c0-5.5-4.4-9.9-9.9-9.9S-9.9-5.5-9.9 0-5.5 9.9 0 9.9 9.9 5.5 9.9 0"/>
    <path fill="#e1413f" d="M5.3 1.6V2c0 .1 0 .1.1.1.2.1.5.2.7.3.1 0 .1 0 .1-.1s0-.2.2-.2.4 0 .5.1l.6.3v-.2c-.1-.1-.3-.3-.4-.6q-.15-.15 0-.3s.1-.1.1-.2c-.1 0-.1-.1-.2-.2 0-.2-.1-.3-.2-.5 0-.1.1-.3.2-.3h.5s0-.1-.1-.1c-.3-.2-.7-.5-1-.7s-.3-.7 0-.9c.3-.3.5-.5.9-.5h.3s.1 0 .1-.1l-.1-.1c-.3-.1-.5-.2-.8-.3-.2-.1-.4-.1-.5-.3q-.15-.15 0-.3c.1-.1.1-.1 0-.2-.3-.1-.6-.2-.9-.4-.1-.1-.1 0-.1.1zM-.3 4.2H-3c-.2 0-.2 0-.3.2.1.3 0 .6-.1.9v.2l.1-.1c.2-.2.4-.4.6-.7.1-.1.3-.3.5-.4.3-.1.7.1.8.4s.1.6.1.9c0 .1 0 .2.2.1q.45-.15.6.3c.2.3.2.7.3 1 0 .2.1.5.3.7 0-.1.1-.2.1-.2.1-.2.1-.4.2-.6s.1-.4.2-.6.2-.4.4-.5h.2c.1 0 .2.1.3.1h.1c.1-.3-.1-.5 0-.8 0-.3.1-.5.3-.7 0 0 .1-.1.2-.1.2 0 .4 0 .5.2.3.3.7.5 1 .8 0 0 .1 0 .1.1v-.1c0-.3-.1-.6-.1-1l-.1-.1zM-5-2.4v-1c0-.1-.1-.2-.2-.1-.3 0-.5.1-.8.2-.1 0-.1.1-.1.2s0 .2-.1.2c-.3.2-.7.3-1 .5-.2.1-.3.1-.5.2.1 0 .1.1.2.1.2 0 .4.1.5.1.3.1.5.1.7.3.3.1.3.4.2.5-.1.2-.3.4-.4.6-.3.2-.5.4-.7.6l-.1.1c.1 0 .3.1.4.1.2 0 .3.2.2.4s-.3.4-.4.6c-.1.1-.1.2 0 .2.1.1.1.3 0 .4-.1.2-.2.3-.3.4s-.2.2-.2.3c.1 0 .1 0 .2-.1.3-.1.6-.3.9-.4h.3c.1 0 .2.1.2.2s0 .1.1.1c.2 0 .5-.2.8-.3 0 0 .1-.1.1-.2zm4.7-3.2c-.2-.2-.5-.4-.7-.6-.1-.1-.3-.2-.4-.3s-.1-.1-.2 0-.2.1-.3.1c-.3-.1-.6-.1-.9-.2h-.3v.1c.1.4 0 .5-.2.5-.3 0-.6 0-.9-.1-.2 0-.4-.1-.6-.1h-.1s0 .1.1.1c.2.1.4.3.6.4.1.1.3.1.4.1zq-.15 0 0 0M5-6.1h-.2c-.3.1-.7.1-1.1.1-.3 0-.4-.1-.4-.3v-.2h-.2c-.3.1-.5.2-.8.2-.2 0-.4 0-.5-.2-.1-.1-.1-.1-.1 0-.4.3-.8.6-1.1.8v.1h3.5c.2 0 .4 0 .6-.2 0 0 .2-.1.3-.3m-4.8.3c0-.3-.1-.6-.1-1C0-7 0-7.3-.1-7.5c0-.1-.1-.2-.2-.2 0 0-.1 0-.1.1v.2l.3.9c.1.2.1.5.2.8 0 0 0 .1.1.1 0 0 0-.1.1-.1-.1 0-.1-.1-.1-.1"/>
    <path d="M-5.2-5.7H5.3v10H-5.2z"/>
    <circle fill="#ffde2f" cx=".1" cy="2.6" r=".6"/>
    <circle fill="#ffde2f" cx="-1.7" cy="2.6" r=".6"/>
    <path fill="#ffde2f" d="M-2.7 2.6c0-.4-.3-.6-.6-.6s-.7.2-.7.6.3.6.6.6.7-.3.7-.6m3.8 0c0-.4.3-.6.6-.6.4 0 .6.3.6.6s-.2.6-.5.6c-.4 0-.7-.3-.7-.6m1.8 0c0-.4.3-.6.6-.6s.6.3.6.6-.2.6-.6.6-.6-.3-.6-.6"/>
    <circle fill="#ffde2f" cx=".1" cy=".6" r=".6"/>
    <circle fill="#ffde2f" cx="-1.7" cy=".6" r=".6"/>
    <path fill="#ffde2f" d="M-2.7.6c0-.4-.3-.6-.6-.6s-.7.2-.7.6.3.6.6.6.7-.3.7-.6m3.8 0c0-.4.3-.6.6-.6.4 0 .6.3.6.6s-.2.6-.5.6c-.4 0-.7-.3-.7-.6m1.8 0c0-.4.3-.6.6-.6s.6.3.6.6-.2.6-.6.6-.6-.3-.6-.6"/>
    <circle fill="#ffde2f" cx=".1" cy="-1.4" r=".6"/>
    <circle fill="#ffde2f" cx="-1.7" cy="-1.4" r=".6"/>
    <path fill="#ffde2f" d="M-2.7-1.4c0-.4-.3-.6-.6-.6s-.7.2-.7.6.3.6.6.6.7-.3.7-.6m3.8 0c0-.4.3-.6.6-.6.4 0 .6.3.6.6s-.2.6-.5.6c-.4 0-.7-.3-.7-.6m1.8 0c0-.4.3-.6.6-.6s.6.3.6.6-.2.6-.6.6-.6-.3-.6-.6m-2.2-2C.7-3.8.4-4 .1-4s-.6.3-.6.6.3.6.6.6.6-.3.6-.6m-1.7 0c0-.4-.3-.6-.7-.6s-.6.3-.6.6.3.6.6.6.7-.3.7-.6m-1.7 0c0-.4-.3-.6-.7-.6s-.6.2-.6.6.3.6.6.6.7-.3.7-.6m3.8 0c0-.4.3-.6.7-.6s.6.3.6.6-.3.6-.6.6c-.4 0-.7-.3-.7-.6m1.8 0q0-.6.6-.6c.6 0 .6.3.6.6s-.2.6-.6.6-.6-.3-.6-.6"/>
  </symbol>
  <path fill="#984d2d" d="M280.6 141.7c0 76.7-62.2 138.9-138.9 138.9S2.8 218.4 2.8 141.7 65 2.8 141.7 2.8 280.6 65 280.6 141.7"/>
  <defs>
    <path id="1867-gtr-SVGID_1_" d="M263.3 141.7c0 67.1-54.4 121.5-121.5 121.5S20.3 208.8 20.3 141.7 74.7 20.2 141.8 20.2s121.5 54.4 121.5 121.5"/>
  </defs>
  <clipPath id="1867-gtr-SVGID_2_">
    <use xlink:href="#1867-gtr-SVGID_1_" overflow="visible"/>
  </clipPath>
  <g clip-path="url(#1867-gtr-SVGID_2_)">
    <use xlink:href="#1867-gtr-Nouveau_symbole_5" width="51" height="51" x="-25.5" y="-25.5" overflow="visible" transform="matrix(6.8055 0 0 -6.8055 141.734 141.734)"/>
  </g>
  <use xlink:href="#1867-gtr-SVGID_1_" fill="none" stroke="#fff" stroke-miterlimit="10" stroke-width=".5" overflow="visible"/>
</svg>
