<svg xmlns="http://www.w3.org/2000/svg" xmlns:xlink="http://www.w3.org/1999/xlink" viewBox="0 0 283.5 283.5">
  <symbol id="1867-gwr-Nouveau_symbole_6" viewBox="-25.5 -25.5 51 51">
    <circle fill="#006684" r="25.5"/>
    <defs>
      <circle id="1867-gwr-SVGID_1_" cx="0" cy="0" r="25.5"/>
    </defs>
    <clipPath id="1867-gwr-SVGID_2_">
      <use xlink:href="#1867-gwr-SVGID_1_" overflow="visible"/>
    </clipPath>
    <path fill="#869fb4" d="m0 2.8-1.4 22.7h2.8zm-6.5 21.9-2.7-.9L-.8 2.7zm-7.3-3.2-2.3-1.7L-1.7 2.3zm-6-5.4-1.7-2.3L-2.3 1.7zm-4-6.9-.9-2.7 22-5.7zm-1.7-7.8v-2.8L-2.8 0zm.8-7.9.9-2.7L-2.7-.8zm3.2-7.3 1.7-2.3L-2.3-1.7zm5.4-6 2.3-1.7L-1.7-2.3zm6.9-4 2.7-.9 5.7 22zm7.8-1.7h2.8L0-2.8zm7.9.8 2.7.9L.9-2.7zm7.3 3.2 2.3 1.7L1.7-2.3zm6 5.4 1.7 2.3L2.3-1.7zm4 6.9.9 2.7-22 5.7zm1.7 7.8v2.8L2.8 0zm-.8 7.9-.9 2.7L2.7.9zm-3.2 7.3-1.7 2.3L2.3 1.7zm-5.4 6-2.3 1.7L1.7 2.3zm-6.9 4-2.7.9-5.7-22z" clip-path="url(#1867-gwr-SVGID_2_)"/>
    <circle fill="#fff" r="8.5"/>
    <path fill="#006684" d="M5.7 5.7c-3.6-1.2-7.6-1.3-11.4 0C-7.1 4.2-8 2.2-8 0s.9-4.2 2.3-5.7H5.7C7.1-4.2 8-2.2 8 0s-.9 4.2-2.3 5.7"/>
    <path fill="#fff" d="M-5.1-5.7c0 4.1.4 10.1.4 10.1s.4-6 .4-10.1zm1.4 0c0 3.9.4 9.8.4 9.8s.4-5.8.4-9.8zm1.3 0c0 3.9.4 9.6.4 9.6s.4-5.7.4-9.6zm1.3 0c0 3.8.4 9.5.4 9.5s.4-5.7.4-9.5zm1.4 0c0 3.8.4 9.5.4 9.5s.4-5.7.4-9.5zm1.3 0c0 3.9.4 9.6.4 9.6s.4-5.7.4-9.6zm1.3 0c0 3.9.4 9.8.4 9.8s.4-5.8.4-9.8zm1.4 0c0 4.1.4 10.1.4 10.1s.4-6 .4-10.1z"/>
    <path fill="#006684" d="M-5.4-5.7C-5.4-4.2-4.3-3-2.8-3h.4c.3 1.1 1.3 1.8 2.4 1.8S2.1-1.9 2.4-3h.4c1.4 0 2.6-1.2 2.6-2.7z"/>
    <path fill="#fff" d="M2.8-3.4c-.2 0-.5 0-.7-.1C2-2.4 1.1-1.6 0-1.6s-2-.8-2.2-1.9c-.2.1-.4.1-.7.1-1.2 0-2.2-1-2.2-2.3H5c0 1.3-1 2.3-2.2 2.3"/>
  </symbol>
  <path fill="#006684" d="M280.6 141.7c0 76.7-62.2 138.9-138.9 138.9S2.8 218.4 2.8 141.7 65 2.8 141.7 2.8 280.6 65 280.6 141.7"/>
  <defs>
    <path id="1867-gwr-SVGID_3_" d="M263.3 141.7c0 67.1-54.4 121.5-121.5 121.5S20.3 208.8 20.3 141.7 74.6 20.2 141.7 20.2c67.2 0 121.6 54.4 121.6 121.5"/>
  </defs>
  <clipPath id="1867-gwr-SVGID_4_">
    <use xlink:href="#1867-gwr-SVGID_3_" overflow="visible"/>
  </clipPath>
  <g clip-path="url(#1867-gwr-SVGID_4_)">
    <use xlink:href="#1867-gwr-Nouveau_symbole_6" width="51" height="51" x="-25.5" y="-25.5" overflow="visible" transform="matrix(6.8055 0 0 -6.8055 141.734 141.736)"/>
  </g>
  <use xlink:href="#1867-gwr-SVGID_3_" fill="none" stroke="#fff" stroke-miterlimit="10" stroke-width=".5" overflow="visible"/>
</svg>
