<svg viewBox="0 0 283.5 283.5">
  <symbol id="1867-icr-Nouveau_symbole_7" viewBox="-25.5 -25.5 51 51">
    <circle fill="#c5892f" r="25.5"/>
    <path fill="#dfbc8a" d="m0 2.8-1.4 22.7h2.8zm-6.5 21.9-2.7-.9L-.8 2.7zm-7.3-3.2-2.3-1.7L-1.7 2.3zm-6-5.4-1.7-2.3L-2.3 1.7zm-4-6.9-.9-2.7 22-5.7zm-1.7-7.8v-2.8L-2.8 0zm.8-7.9.9-2.7L-2.7-.8zm3.2-7.3 1.7-2.3L-2.3-1.7zm5.4-6 2.3-1.7L-1.7-2.3zm6.9-4 2.7-.9 5.7 22zm7.8-1.7h2.8L0-2.8zm7.9.8 2.7.9L.9-2.7zm7.3 3.2 2.3 1.7L1.7-2.3zm6 5.4 1.7 2.3L2.3-1.7zm4 6.9.9 2.7-22 5.7zm1.7 7.8v2.8L2.8 0zm-.8 7.9-.9 2.7L2.7.9zm-3.2 7.3-1.7 2.3L2.3 1.7zm-5.4 6-2.3 1.7L1.7 2.3zm-6.9 4-2.7.9-5.7-22z"/>
    <path fill="#c5892f" d="M8.5 0c0-4.7-3.8-8.5-8.5-8.5S-8.5-4.7-8.5 0-4.7 8.5 0 8.5 8.5 4.7 8.5 0"/>
    <path fill="#ef4130" d="M6.7-.3a6.7 6.7 0 1 0-13.4 0 6.7 6.7 0 0 0 13.4 0M0 4.9c-2.8 0-5.1-2.3-5.1-5.1S-2.8-5.4 0-5.4 5.1-3.1 5.1-.3 2.8 4.9 0 4.9"/>
    <path fill="#fff" d="M7.5-2.1c-.5.2-2.2.6-2.1 1.2 0 .6.7 1.4 1.1 1.4.3.2.2.5.2.5s-.3-.1-.5 0-.1.5 0 .7c.2.2.2.3-.1.5s0 1.2.1 1.6.1.6-.3.1c-.3-.6-.4-.3-.4.1s-.1 1-.3.1c-.3-.9-.6-.5-.7 0s-.7 3.6-.5-.7-1.1-4.6-1.9-4.7H2c.4.6.2 1.5.2 1.5C1.6.2.9.2.7-1.5c-.3 0-.5.1-.7.1s-.4 0-.7-.1C-.8.3-1.6.2-2.2.2c0 0-.2-.8.2-1.5h-.1c-.8.1-2.2.4-1.9 4.7.2 4.3-.3 1.2-.5.7-.1-.5-.4-.9-.7 0-.2.9-.3.4-.3-.1 0-.4-.1-.7-.5-.2s-.3.4-.3-.1c.1-.4.3-1.4.1-1.6-.2-.1-.2-.2 0-.4.1-.2.2-.6 0-.7s-.5 0-.5 0-.2-.3.2-.4 1-.8 1.1-1.4c0-.6-1.6-1.1-2.1-1.2-.5-.3-.2-.5.3-.3.6.2 2.1.7 2.4.3s0-1.2-.1-1.6c-.2-.4-.3-.9-.2-1.2 0-.2 0-.3.2.1s.9 1.9 1.6 2.4c.6.5 1.4.3 1.7-.1 0-.1-.1-.3-.1-.4 0-1.2.2-1.8.6-2.6-.2-.9-.3-1.8.2-1.8 0 0 .4-.4.8-.4s.8.4.8.4c.5 0 .4.9.2 1.8.5.8.6 1.4.6 2.6 0 .2 0 .3-.1.4.5.4 1.3.6 1.9.1.7-.5 1.3-2 1.6-2.4.2-.4.2-.4.2-.1 0 .2-.1.8-.2 1.2-.1.3-.4 1.2-.1 1.6s1.8-.1 2.4-.3c.5-.2.8 0 .3.2"/>
  </symbol>
  <path fill="#c5892f" d="M280.6 141.7c0 76.7-62.2 138.9-138.9 138.9S2.8 218.4 2.8 141.7 65 2.8 141.7 2.8 280.6 65 280.6 141.7"/>
  <defs>
    <path id="1867-icr-SVGID_1_" d="M263.3 141.7c0 67.1-54.4 121.5-121.5 121.5S20.3 208.8 20.3 141.7 74.7 20.2 141.8 20.2s121.5 54.4 121.5 121.5"/>
  </defs>
  <clipPath id="1867-icr-SVGID_2_">
    <use href="#1867-icr-SVGID_1_" overflow="visible"/>
  </clipPath>
  <g clip-path="url(#1867-icr-SVGID_2_)">
    <use width="51" height="51" x="-25.5" y="-25.5" href="#1867-icr-Nouveau_symbole_7" overflow="visible" transform="matrix(6.8055 0 0 -6.8055 141.733 141.734)"/>
  </g>
  <use fill="none" stroke="#fff" stroke-miterlimit="10" stroke-width=".5" href="#1867-icr-SVGID_1_" overflow="visible"/>
</svg>
