<svg xmlns="http://www.w3.org/2000/svg" xmlns:xlink="http://www.w3.org/1999/xlink" viewBox="0 0 283.5 283.5">
  <symbol id="1867-ntr-Nouveau_symbole_9" viewBox="-25.5 -25.5 51 51">
    <circle fill="#6a7840" r="25.5"/>
    <defs>
      <circle id="1867-ntr-SVGID_1_" cx="0" cy="0" r="25.5"/>
    </defs>
    <clipPath id="1867-ntr-SVGID_2_">
      <use xlink:href="#1867-ntr-SVGID_1_" overflow="visible"/>
    </clipPath>
    <path fill="#19181d" d="m0 2.8-1.4 22.7h2.8zm-6.5 21.9-2.7-.9L-.8 2.7zm-7.3-3.2-2.3-1.7L-1.7 2.3zm-6-5.4-1.7-2.3L-2.3 1.7zm-4-6.9-.9-2.7 22-5.7zm-1.7-7.8v-2.8L-2.8 0zm.8-7.9.9-2.7L-2.7-.8zm3.2-7.3 1.7-2.3L-2.3-1.7zm5.4-6 2.3-1.7L-1.7-2.3zm6.9-4 2.7-.9 5.7 22zm7.8-1.7h2.8L0-2.8zm7.9.8 2.7.9L.9-2.7zm7.3 3.2 2.3 1.7L1.7-2.3zm6 5.4 1.7 2.3L2.3-1.7zm4 6.9.9 2.7-22 5.7zm1.7 7.8v2.8L2.8 0zm-.8 7.9-.9 2.7L2.7.9zm-3.2 7.3-1.7 2.3L2.3 1.7zm-5.4 6-2.3 1.7L1.7 2.3zm-6.9 4-2.7.9-5.7-22z" clip-path="url(#1867-ntr-SVGID_2_)"/>
    <circle fill="#6a7840" r="8.5"/>
    <path fill="#ed1a3b" stroke="#fff" stroke-miterlimit="10" stroke-width=".5" d="M-6.273-4.6 4.6-6.273 6.273 4.6-4.6 6.273z"/>
    <path fill="#fff" d="m-1.2 2.5-.7-.1-.3 1.9.7.1zm.9 2.1-.7-.1.2-1.4.7.1zm1.2.2-.8-.2.2-1.4.7.1zM-.9.7l-.7-.1-.2 1.4h.7zM0 2.2l-.7-.1.2-1.4.7.1zM-2-.1l-.7-.1-.3 2 .7.1zm3.2 2.5-.7-.1L.7.9l.7.1zm1.2.2-.7-.1.2-1.4.7.1zm-2-6.5L-.3-4l-.2 1.4.7.1zm.9 1.5-.7-.1.2-1.4.7.1zm-2-2.2-.7-.1-.3 1.9.7.1zm3.2 2.4-.7-.1.2-1.4.7.1zm-2.9.6-.5-.1-.2 1.4.5.1zM.3-.1l-.5-.1.2-1.4.5.1zm-1.5-1.7-.5-.1L-2-.5l.5.1zm-.9-.1-.5-.1-.2 1.4.5.1zM-3-2l-.5-.1-.2 1.4.5.1zm-.8-.7-.5-.1-.3 1.9.5.1zM1.1 0 .6-.1l.2-1.4.5.1zm.9.1L1.5 0l.2-1.4.5.1zm.9.2L2.4.2l.2-1.4.5.1zm.9.1L3.2.3 3.5-1H4zm.9.1h-.6l.2-1.4.5.1zM-.793 2.95l1.878-.29.015.1-1.878.288z"/>
    <path fill="#fff" d="m-1.588.727 4.25-.655.015.1-4.25.654zm1.291-4.788 3.064-.472.015.099-3.064.471zm-3.157 2.813 8.5-1.308.015.099-8.5 1.308z"/>
  </symbol>
  <path fill="#6a7840" d="M280.6 141.7c0 76.7-62.2 138.9-138.9 138.9S2.8 218.4 2.8 141.7 65 2.8 141.7 2.8 280.6 65 280.6 141.7"/>
  <defs>
    <path id="1867-ntr-SVGID_3_" d="M263.3 141.7c0 67.1-54.4 121.5-121.5 121.5S20.3 208.8 20.3 141.7 74.6 20.2 141.7 20.2c67.2 0 121.6 54.4 121.6 121.5"/>
  </defs>
  <clipPath id="1867-ntr-SVGID_4_">
    <use xlink:href="#1867-ntr-SVGID_3_" overflow="visible"/>
  </clipPath>
  <g clip-path="url(#1867-ntr-SVGID_4_)">
    <use xlink:href="#1867-ntr-Nouveau_symbole_9" width="51" height="51" x="-25.5" y="-25.5" overflow="visible" transform="matrix(6.8055 0 0 -6.8055 141.735 141.736)"/>
  </g>
  <use xlink:href="#1867-ntr-SVGID_3_" fill="none" stroke="#fff" stroke-miterlimit="10" stroke-width=".5" overflow="visible"/>
</svg>
