<svg xmlns="http://www.w3.org/2000/svg" viewBox="0 0 612 612">
    <circle class="color-violet" fill="#6e0fc0" cx="306.2" cy="306" r="306"/>
    <path fill="#fff" d="M422.8 418.1c63.8-63.9 115.9-117.9 115.9-119.9 0-4.9-232.8-230.2-232.8-230.2S71.4 294.4 72.6 301.7c1.1 7 233.4 232.4 233.4 232.4s53.1-52 116.8-116zm-163 50.9c-1-1 .5-5.3 3.2-9.6 4.1-6.3 5.8-11.2 5.1-32.9l-1-25.4-20.3-13.3c-17.5-12.1-32.7-32.5-39.1-52.7-7.8-24.5-4.3-60.8 8.2-84.3 9.3-17.4 16.9-25.8 36.6-40.3l15-11v-24.8c0-13.6-1.4-25.7-3.2-26.7-1.7-1.1-3.2-4-3.2-6.5 0-10.1 54.8-2.4 73.4 10.3 14.1 9.6 24.9 26.1 27.4 41.7 1.5 9.5 3.2 11.5 10.6 12.3 7.4.9 8.4 2.1 6.6 7.9-4.9 15.6-7.6 21.1-10.6 21.1-1.8 0-5.3 4.6-7.8 10.3-2.6 5.6-17.5 29.9-33.2 53.9-15.7 24-28.5 44.2-28.5 44.8 0 .7-3.6 6.5-8 13-11 16.2-9.6 29.6 3.3 33.3 5.2 1.5 16.1 2 24.2 1.2 16.4-1.7 46.1-15.4 48.8-22.5 2.7-7 9.6-5.5 11.7 2.5 3.5 13 2.1 16.6-8.3 20.2-5.6 2-16.6 6.1-24.4 9.2-8.7 3.4-23.4 5.7-37.9 5.8l-23.7.3-.9 24.7c-.6 15.8.4 26.4 2.8 29.3 2.1 2.5 2.9 5.3 1.9 6.4-2.5 2.5-26.4 4-28.7 1.8zm7.1-169.6c.5-51.6.2-79.7.2-79.7s-12.4 9.4-20.3 17.4c-17.2 17.7-24.3 33.8-26 59.5-1.3 20.2-.5 24.4 8.5 43.2 10 21 38.9 41.2 38.9 41.2s-1.9-14.7-1.3-81.6zm35.2 10.3c5.4-9.1 17.7-29 27.2-44.2 9.6-15.2 18.2-32.5 19.2-38.4.7-4.4 2-9.8 2-9.8s-13.3-9.6-30.1-9.6c-14.5 0-26.8 0-35 3.6-.1 5-2.4 110.5-.2 112.8 4.4 4.3 7.2 1.9 16.9-14.4zm47.8-111.3c-.9-2.1-15.6-29.4-25.2-34.2-12.4-6.3-31.9-9.1-36.4-5.4-3.3 2.8-5.5 11.9-3.8 35 5.9.1 15.5-2.6 32-2.6 23.2-.1 30.6 5.6 33.4 7.2zm-19.3 147.3h-13.2l-3.7 6.4-8.2.1 18.8-27.5 18.2 27.5-7.5.2-4.4-6.7z"/>
    <path class="color-black" d="M281.6 540.7C236.4 498.7 48 301.1 48 301.1s28.7-33.9 126.9-131.6c65-64.6 131.1-125 131.1-125s42 36.7 80.2 74.5c35.4 35 89.9 88.9 121.1 119.8s56.7 57.8 56.7 59.9-34.1 38-75.7 79.6-99.1 99.5-127.7 128.6c-28.6 29-54.6 52.3-54.6 52.3s-13.2-8-24.4-18.5zm141.2-122.6c63.8-63.9 115.9-117.9 115.9-119.9 0-4.9-232.8-230.2-232.8-230.2S71.4 294.4 72.6 301.7c1.1 7 233.4 232.4 233.4 232.4s53.1-52 116.8-116zm-163 50.9c-1-1 .5-5.3 3.2-9.6 4.1-6.3 5.6-10 5.1-32.9l-1-25.4-20.3-13.3c-17.5-12.1-32.7-32.5-39.1-52.7-7.8-24.5-4.3-60.8 8.2-84.3 9.3-17.4 16.9-25.8 36.6-40.3l15-11v-24.8c0-13.6-1.4-25.7-3.2-26.7-1.7-1.1-3.2-4-3.2-6.5 0-10.1 54.8-2.4 73.4 10.3 14.1 9.6 24.9 26.1 27.4 41.7 1.5 9.5 3.2 11.5 10.6 12.3 7.4.9 8.4 2.1 6.6 7.9-4.9 15.6-7.6 21.1-10.6 21.1-1.8 0-5.3 4.6-7.8 10.3-2.6 5.6-17.5 29.9-33.2 53.9-15.7 24-28.5 44.2-28.5 44.8 0 .7-3.6 6.5-8 13-11 16.2-9.6 29.6 3.3 33.3 5.2 1.5 16.1 2 24.2 1.2 16.4-1.7 46.1-15.4 48.8-22.5 2.7-7 9.6-5.5 11.7 2.5 3.5 13 2.1 16.6-8.3 20.2-5.6 2-16.6 6.1-24.4 9.2-8.7 3.4-23.4 5.7-37.9 5.8l-23.7.3-.9 24.7c-.6 15.8.4 26.4 2.8 29.3 2.1 2.5 2.9 5.3 1.9 6.4-2.5 2.5-26.4 4-28.7 1.8zm7.1-169.6c.5-50.9.2-79.7.2-79.7s-12.2 9.2-20.3 17.4c-17.2 17.7-24.3 33.8-26 59.5-1.3 20.2-.5 24.4 8.5 43.2 10 21 38.9 41.2 38.9 41.2s-1.9-14.7-1.3-81.6zm35.2 10.3c5.4-9.1 17.7-29 27.2-44.2 9.6-15.2 18.2-32.5 19.2-38.4.7-4.4 2-9.8 2-9.8s-12.8-9.6-30.1-9.6c-14.5 0-27.6.1-35 3.6-.2 10.6-2.4 110.5-.2 112.8 4.4 4.3 7.2 1.9 16.9-14.4zm47.8-111.3c-.8-1.9-15.6-29.4-25.2-34.2-12.4-6.3-31.9-9.1-36.4-5.4-3.3 2.8-5.5 11.9-3.8 35 6.4-.2 15.5-2.6 32-2.6 23.2-.1 31.2 5.8 33.4 7.2zm-19.3 147.3h-13.2l-3.7 6.4-8.2.1 18.8-27.5 18.2 27.5-7.5.2-4.4-6.7z"/>
    <path fill="#fff" d="M323.9 333.7c-1.9 3.2-4.6 8.1-4.6 8.1s4.9.2 9 0"/>
</svg>
