<svg xmlns="http://www.w3.org/2000/svg" viewBox="0 0 612 612">
    <path fill="#f6f7f7" d="M522 495.1c-.2.4-.3 1-.5 1-1.4.1-2.8 0-4.2 0H90.1V120.6c0-1.6.7-3.2 1-4.8.1.3.2.5.3.8-.1 1.6-.3 3.1-.3 4.7v373.8h425.5c1.6 0 3.1-.3 4.7-.4l.3.3.4.1z"/>
    <path fill="#cc5e62" d="M522 495.1l-.4.1-.3-.3c-.1-3-.2-6-.2-9V116.8H97.7c-2.1 0-4.2-.1-6.3-.1-.1-.2-.2-.5-.3-.8H522v379.2z"/>
    <path fill="#101619" d="M91.4 116.7c2.1 0 4.2.1 6.3.1h423.4v369.1c0 3 .1 6 .2 9-1.6.1-3.1.4-4.7.4H91.1V121.5c0-1.7.1-3.3.3-4.8zm15.4 17.7v335.7c0 1.2-.1 2.5 0 3.7.3 3.9 2.1 5.7 5.9 6 1.9.1 3.9 0 5.8 0h378.6c3.6 0 6.7-.4 8.6-4.8V144.7c0-2.5.1-4.9 0-7.4-.2-4.5-2.7-7.1-7.2-7.5-2.3-.2-4.6 0-6.9 0H126.2c-3.7 0-7.4.1-11.1 0-3.3 0-6.1 1-8.3 4.6z"/>
    <path fill="#f6f7f7" d="M106.8 134.4c2.2-3.7 5-4.6 8.4-4.6 3.7.1 7.4 0 11.1 0h365.4c2.3 0 4.6-.1 6.9 0 4.5.3 7 2.9 7.2 7.5.1 2.5 0 4.9 0 7.4V475c-1.9 4.5-5 4.8-8.6 4.8-40.7-.1-81.3 0-122 0H118.6c-1.9 0-3.9.1-5.8 0-3.9-.3-5.6-2-5.9-6-.1-1.2 0-2.5 0-3.7V141.2c-.1-2.4-.1-4.9-.1-6.8zm6.9 2.1v336.4h384.9V136.5H113.7z"/>
    <path fill="#101619" d="M113.7 136.5h384.9v336.4H113.7V136.5zm132.4 194c1.3.7 2.5 1.3 3.8 2 .2-.4.3-.8.5-1.2-1.3-.5-2.5-.9-3.8-1.4-1.5-1-3.1-2-4.6-3.1-1.1-.9-2.1-1.9-3.1-2.9 9.3-.3 16 6.3 23.8 8.8-3.9 1.1-8 2.2-11 3-7.6-1.6-14.2-3-21.4-4.6.6 2.3 1.1 4.1 1.6 5.9-2 .9-3.8 1.7-5.5 2.4-1.9-1.3-3.7-2.5-5.7-3.8.7-.8 1.2-1.4 2.1-2.4-3.7-2.2-7.2-4.3-11.5-6.8-.3 4.3-3.2 2.6-5.2 3-.1.4-.2.8-.4 1.2 5.2 2.8 10.5 5.7 15.7 8.5-3.4-.6-6.7-1.7-9.8-3.2-3.2-1.5-5.7-4.4-9.8-4.4 1.1 1.5 2.3 2.7 2.9 4.1 2.6 5.9 8.2 8.7 14.3 7.5 6.3-1.3 12.6-3.1 19.1-1.6.2.5.4 1 .6 1.4 17.8 30.1 57.5 46.8 92.8 37.1 22.3-6.2 39.3-18.2 51.3-37.9 10.9-17.9 13.6-36.8 9.5-57.1-8.1-40.1-46.7-68.4-89.6-64.1-35.1 3.5-62.5 25.1-73.2 60.7-.6 2-.9 4.2-1.3 6 4.8-.5 8.9-.7 12.9-1.5 6.7-1.4 12.6-6.1 19.9-4.8.1 0 .3-.2.4-.3 7.5-21.8 33.5-34.7 55.7-31.6 25.3 3.5 44.4 20.6 47.3 48.9 2.2 21-10 41.3-30.1 50.7-21.9 10.2-49.3 6-64.5-13.3-3.3-.1-6.3 3.6-9.9.8 4.6-1.3 9.1-2.7 13.7-4 .8-.2 1.8 0 2.6-.1 2.8-.3 5.6-.5 8.3-1 8.8-1.9 17.6-4 26.4-6.1 10.2-2.4 20.4-5 30.6-7.5 6.8-1.7 13.5-3.5 20.4-5.4v-21c-5.8-1-11.1 3.5-17.2-.7 3.1-.4 5.2-.7 7.8-1 1.3-1.2 2.8-2.6 4.3-4-.2-.2-.4-.5-.6-.7-1.1.2-2.3.5-3.4.7l.1.1v-5c-.1 0-.6-.1-1.1-.2 1.1-1.4 2.2-2.9 3.4-4.6-1.1-.9-1.9-1.5-2.9-2.3-2.1 1.3-3.9 2.5-5.8 3.7 1.5-1.9 2.9-3.8 4.7-6.1-2.5-.6-4.4-1.1-6.3-1.7 0 .3 0 .7.1 1-8.8.8-17.6 1.5-26.4 2.3 0-.2-.1-.4-.1-.7-1.5.9-2.9 1.9-4.4 2.8-1.2-.4-2.3-.7-3.5-1 0 .4 0 .8.1 1.2-3.3.4-6.5 1-9.8 1.3-3.2.3-6.3.5-9.5.7v1.1c-1-.6-2.1-1.1-2.8-1.5-6.5 2.7-12.6 5.2-18.7 7.7-.9-.7-1.7-1.2-2.3-1.7-2.2 1.7-4.1 3.1-6.1 4.6-1.8-1.7-3.4-3.2-5-4.6-6.2 1.6-7 2.2-9 6 .7.3 1.5.5 2.1.8-4.1 3.6-8.1 7.2-12.1 10.8-.7.7-1.5 1.3-2.2 2-4.8 3.1-9.6 6.2-14.9 9.6-.6-3.1-1-5.6-1.5-8.2.7-1 1.5-1.9 2.2-2.9l5.1-.3c-.2 1.2-.4 2.5-.8 4.7 6.8-5.3 13.4-9.7 19-15.8-3.8-2.1-5.6.2-7.7 1.7-.5-2.9-2.1-2.2-3.7-1.1-1.3.8-2.3 2.1-3.7 2.6-3.9 1.5-7 3.8-8.9 7.6-6.5-.1-7.9 6.3-12.3 8.6-1.8.9-3.7 1.7-5.5 2.6.1-1.1.1-2.3.2-3.1 1.2-.9 2.1-1.8 3.1-2.6 1.5-1.2 2.9-3.2 4.5-3.3 3.8-.1 4.7-2.7 6.4-5.5-2-.9-3.6-1.7-5.4-2.6-5.7 6.6-12.9 11.5-16.8 20.1-.6.1-1.9.4-3.3.6-.8-1-1.5-1.8-2.8-3.4-3.9 5.2-7.4 10.1-11.7 15.9-7.7 3.2-16.7 7-25.7 10.8.2.6.3 1.1.5 1.7 1.9-.4 3.9-.5 5.6-1.2 5.5-2.2 10.9-4.7 16.5-6.8 2.1-.8 4.5-.8 7.8-1.4.4-.3 1.4-1.8 2.9-2.5 3.3-1.5 6.8-2.8 10.4-3.7 10.8-2.9 21.7-5.6 32.6-8.5.8-.2 1.5-.9 2.2-1.3l-.3-.6c-2.8.4-5.5.7-8.3 1.1.6-1.2 1.4-2.2 2-2.1 3.8.7 5.8-1.8 8-4.1 1.8-1.9 3.5-3.9 5.3-5.8l2.1-2.1c1-.4 1.9-.8 2.9-1.2.7.7 1.5 1.5 2.2 2.3-.4.6-.7 1.2-1.2 1.8.8.4 1.5.7 2.2 1-.6.9-1.1 1.6-2 3 2-.2 3.2-.4 4.2-.5.4 1 .7 1.7.9 2.1 4.8-.3 9.1-.5 13.3-.8.4.3.7.7 1.1 1 1.1 1.5 2.2 2.9 3.7 4.8-3.6.2-6.3.4-9 .6l-.1-.2c-.3-.2-.1-.1.2.1.3 1.4.7 2.8 1 4.2l.1-.1c-2.1-.7-4.3-1.4-6.4-2-.5-.3-1-.5-1.5-.8-.1.2-.1.5-.2.7h1.7c.5 1 1 1.9 1.7 3.5-2.4-1-4.1-1.8-5.7-2.5-1.7.6-3.4.9-4.8 1.8-1.5.9-2.6 2.4-4 3.6l-6.3-.9c-.2.4-.4.7-.7 1.1.9 1.1 1.5 2.6 2.7 3.1 3.9 2 7.1 5.6 11.7 3.7zm203-43.5c-1.3.1-2.5.3-3.9.4.5 1 .9 1.6 1.4 2.7-3.7-1-6.8-1.9-8.5-2.4-2 .9-2.9 1.3-3.9 1.8 1.5 1 2.2 1.5 2.7 1.9-1.3 1.7-2.4 3.2-4.3 5.6-2-.1-4.9-.6-7.7-.3-6.2.6-12.3 1-18.1-2.1-.8-.4-2.1-.1-3.1-.1-.1-.2-.2-.4-.2-.3l.3.3c-1.1.4-2.1.7-3.2 1.1-.1-.1-.3-.1-.4-.2.2 0 .3.1.5.1-.7 1.1-1.3 2.3-2.1 3.7.2 1.6.5 3.4.9 6.1 5.5-1 10.5-2 15.5-2.9 4.8-.9 9.5-1.9 14.3-2.6 3.4-.5 7-.3 10.4-1.1 10-2.2 20-4.8 30-7.2 3.2-.8 6.7-.7 9.5-2.1 4.9-2.4 9.3-5.6 14.1-8.6v-4.6c-3.6-2.9-7.1-4.7-12.1-3.7-2.7.5-5.9-1.7-8.8-2.8-1.2-.5-2.2-1.7-3.4-1.9-5.5-.8-11.1-1.4-16.6-1.8-3.6-.3-7.5-1.2-10.9-.2-5 1.5-9.2 1.2-13.7-2-8.2 1.8-16.6 3.7-24.9 5.5.1.4.1.7.2 1.1 1.4.5 2.8.9 4.2 1.4 1.2-.6 2.5-1.1 3.9-1.7 5.4 5 9.9.6 14.7-1.6-.1 2.8 1 3.5 3.5 2.8 2.8-.9 5.8-1.4 8.6-2.1.8.8 1.4 1.5 2.5 2.6.7-1.1 1.2-1.9 1.7-2.6l-.1.1h7.1c-2.4 1.9-4.2 3.3-6 4.6 2.4-.2 4.7-.8 6.2-2.3 4.2-4.2 8.7-4.2 13.8-1.6-2.3 1.2-4.4 2.2-6.4 3.3-1.2.4-2.3.7-3.5 1.1.1.3.2.6.4 1 1.1-.6 2.3-1.2 3.4-1.7 1.2.4 2.3.8 4.6 1.5 6.2-5.2 14.1.2 21-.4 2.7 1.8 4.8 3.2 7.8 5.1-4.6-.3-8.3-.5-12.2-.7.1.4.2 1 .4 1.9-2.5-.2-4.8-.4-6.9-.5-1.7 1-3.2 1.8-4.6 2.6-1.8-.5-3.3-.9-4.5-1.2-2.4.6-4.6 1-6.8 1.6 1.1 1.5 2.3 3 4 5.3-4.1-1.3-7.3-2.3-10.7-3.4-.3.5-.2 1-.1 1.5zM208.9 148.9c.4 3.1 1 5.2 1 7.4.1 26.7.2 53.5.2 80.2 0 4.5-.6 9.1-.9 14h28.6c2.1-2.8 4-5.3 6-7.9-.2-.4-.3-.9-.5-1.3h-15.5v-47.5h13.1v-9.4c-4.6-.2-8.9-.4-13-.6v-26.6h15.8c-.7-3.6-1.3-6.3-2-9.6-11.5.4-22.8-1.3-35.3.6-3.5-1.6-15.8-1.6-18.7.3 0 3.6.2 6.8-.1 10-.3 3.8-1.1 7.7-1.7 11.5-1.5 8.8-3 17.5-4.5 26.3h-.9c-2.7-14.4-5.4-28.9-8-43.3.6-1.4 1.2-2.8 2.1-4.8-5.9-1.2-11.2-1.6-15.7-.1.3 3.7.9 6.4.5 9-1.1 7.3-2.5 14.5-3.9 21.8-1 5.3-2.1 10.5-3.1 15.8-.3 0-.7-.1-1-.1-1.9-13.9-3.9-27.7-5.8-41.1 1-1.9 1.8-3.4 3.1-5.9h-24.5c-.8 0-1.5.7-2.3 1 .5.2 1.1.4 1.6.7.9 3 1.9 6 2.5 9.1 1 5 1.7 10 2.5 15.1 3.4 21.2 6.7 42.3 10 63.5 2.5 15.4 4.9 30.9 7.5 46.3.3 1.5 1.5 2.9 2.3 4.3.6-.1 1.3-.2 1.9-.3 4.8-22.1 8.5-44.5 13.8-66.5 2.6 11.1 4.8 22.1 6.9 33.2 2.1 11.1 3.5 22.3 6.6 32.9 3.9.3 4-1.9 4.3-4.1 4.2-25.1 8.5-50.2 12.8-75.3 3.2-18.5 6.4-37 9.6-55.3 1.3-.9 2.3-1.6 4.7-3.3zm260.4 179.2v62.1c7 .8 9.9-1.4 10.5-7.5.1-.7.1-1.4.1-2.1v-55.4c0-1.2-.3-2.4-.5-4-2.1-.5-4-1.2-6.1-1.4-12.3-1.2-23.4 2.4-33.1 9.6-14.2 10.6-22.6 25.2-27.2 42.1-5.2 18.8-4.2 37.6 1.1 56.1 4.6 16.1 14 28.3 30.5 33.7 11.9 3.9 23.4 2.9 33.8-3.9V448c-2.8.8-5.1 1.5-7.4 2.2-13 3.8-22.2-.6-28-10.4-1.9-3.3-3.2-7-4.3-10.7-4.3-14.4-5.7-29.1-4.4-44.2 1.4-16.4 6.1-31.7 15.7-45.1 4.5-6.3 10.1-11.1 19.3-11.7zm-88.6-180.9c.8 3.7 1.9 6.1 1.9 8.5.1 29.2.1 58.4 0 87.6v2.4c-1.3 1.5-2.1 2.4-3.1 3.5 5 2.3 22.6 1.9 25.7-.7-1.6-.8-3.1-1.5-4.3-2.2v-26.9c.3-.1.6-.1.9-.2 4.7 10.1 9.3 20.3 13.9 30.4h18.7c-6.4-14.4-12.6-28.3-18.9-42.4 1.5-1.7 2.9-3.2 4.3-4.8 11.5-13.1 13.8-29.9 5.7-43.9-3.7-6.2-9-10.9-16.8-11.1-5.8-.2-11.6-.2-17.4-.3-3.5.1-6.9.1-10.6.1zM136.9 354.3v104.2c-1.3.8-2.7 1.7-4.4 2.8 4.3 2.7 22.7 2.8 26.6.5-1-1.2-1.9-2.4-2.8-3.6V420c1.3-.6 2.5-1.2 3.7-1.9 4.4-2.5 9.1-4.6 13.2-7.5 13.1-9.5 18.5-22.6 16.3-38.6-1.9-14.6-10.9-22.5-25.5-22.7-8.3-.1-16.5-.1-24.8 0-1.6 0-3.1.4-5.5.8 1.5 1.9 2.3 3 3.2 4.2zm313.4-153.8c.3 0 .7-.1 1-.1 6.6 16.6 13.2 33.1 19.8 49.6h13.4c-1.7-2.1-2.6-3.2-3.5-4.2v-92.4c.9-1.4 1.7-2.7 2.5-4-5.8-2.6-15.6-2.1-16.3.9.9 1 1.8 2 2.3 2.6v45.4c-.2.1-.5.1-.7.2-6.9-17-13.8-33.9-20.7-50.9-4.6 0-8.6-1.2-13 1 1.5 1.8 2.4 2.9 3.5 4.2 0 27.8 0 55.6-.1 83.4 0 4.5-.7 9-1.1 13.7 3.7 1.2 11.2 1.1 14.7-.4-.6-2.1-1.8-4.1-1.8-6.2v-42.8zM192.7 463c.2-12.2 4.1-22.6 6-33.4h20.1c2.3 9.7 4.5 19.2 6.7 28.4-1 1.6-1.8 2.8-3.2 4.9 9.2.9 17.5.7 25.8.2.2-.5.4-.9.5-1.4-1.5-1.1-2.9-2.2-4.9-3.7-8.3-35.4-16.7-71.5-25.2-107.7-5.6.1-10.9-.5-16.9.5 1.6 2.3 2.6 3.7 3.4 4.8-7.1 29-14 57.7-21 86.3-1.7 7-2.3 14.3-7.2 21.1h15.9zm193.1-105.5v100.2c-1.3 1.7-2.4 3.1-3.7 4.9 7.6 1.4 22.4 1 26.4-.8-1.7-1.5-3.2-2.7-4.5-3.8V357c1.4-.8 2.7-1.5 5.1-3-2.3-1-3.7-2-5.1-2.2-10.3-1.1-19.2-.2-21.8 2.4 1.2 1.1 2.3 2.1 3.6 3.3zm-91 29.8c-3-.7-5.7-1.5-8.4-1.8-18.9-2.5-33.4 2.9-40.9 21.6-4.6 11.4-3.4 23.4.5 35.1 7.7 22.9 30.9 27.4 49.4 15.1-.1-2.3-.3-4.8-.4-7.9-3.1.6-5.4 1.1-7.8 1.5-10.6 1.9-18.3-2.7-21.3-13-2.9-10.2-2.8-20.4.3-30.6 2.9-9.8 12.3-14.7 21.9-11.2 2.1.8 4.2 1.4 6.8 2.3-.1-3.9-.1-7.2-.1-11.1zm47.5 70.9c-1.5 1.6-2.6 2.8-4.1 4.3 7.3 2 22.9 1.4 26-.9-1.3-.9-2.5-1.8-3.5-2.5v-38.4h16.4v-11.5h-16.3v-25c7.1-4 13.7-7.8 20.8-11.8-2.3-4.2-4.3-7.7-6.7-12.1-10.3 11.6-22.5 18.3-35.7 24.2 1.6 2 2.5 3.2 3.2 4.1-.1 23.5-.1 46.5-.1 69.6zm-88.4-226.5c2.9-1 5.8-1.7 8.4-2.9 7.6-3.5 15.6-6.6 22.5-11.2 8.8-5.7 11.2-15.3 6.7-24.5-1.8-3.6-5-6.7-8.2-9.4-5.8-4.8-12.2-8.9-18.2-13.6-2.1-1.6-3.7-3.9-5.2-5.5 1.9-6.4 4-7.9 9.3-7.5 5.7.4 11.4.7 17.6 1.1-.5-3.9-.9-7-1.4-10.4-9.2-.8-17.9-1.6-26.6.5-7.2 1.8-11.9 6.5-13.8 13.8-2 7.4.8 13 6.4 17.6 5.4 4.5 10.7 9 16.1 13.6 6.1 5.2 7.9 14.4.5 21.2-3.9 3.6-8.6 5.2-13.7 6.2-2.1.4-4.3.8-7.3 1.3 2.5 3.4 4.3 6.1 6.9 9.7zm123.3-1.7c-6.3-3.2-12.1-6.3-17.7-9.2v-28.2h13.2v-9.4H360v-26.6h15.7c-.8-3.4-1.5-6-2.1-8.5-10.1-1.7-32.2-.9-35.2 1.4 1.1 1.1 2.2 2.1 3.7 3.5v58.7c0 2.5-.7 5-1 7.5 10.2 5.7 20.5 11.5 31 17.5 1.5-2 3.1-4.1 5.1-6.7zm-53.8 228.3v-66.9c1.2-1.4 2.3-2.5 3.7-4.1h-25.8c-.1.4-.1.8-.2 1.2 1.2.8 2.4 1.7 3.8 2.6v66.6c-1.7 1.8-2.9 3.1-4.1 4.4.2.4.5.7.7 1.1 8.3-.1 16.7.8 25-.5.4-.7.7-1.3 1.1-2-1.3-.7-2.6-1.5-4.2-2.4zm8.7-310.7h-40c-.2 2.2-.3 4-.5 6.1h12.6v58.5c-1.2 1.1-2.2 2.1-4.1 3.8h24.6c.1-.3.2-.6.2-1-1.2-1-2.4-2-3.8-3.2v-58.5h12.1c-.4-2.2-.7-3.9-1.1-5.7z"/>
    <path fill="#f6f7f7" d="M260.1 336.6c3.5 2.8 6.6-.9 9.9-.8 15.2 19.3 42.6 23.6 64.5 13.3 20.1-9.4 32.2-29.6 30.1-50.7-2.9-28.3-22-45.3-47.3-48.9-22.2-3.1-48.2 9.7-55.7 31.6-.1.1-.3.3-.4.3-7.4-1.3-13.3 3.4-19.9 4.8-4 .8-8.1 1-12.9 1.5.4-1.8.7-3.9 1.3-6 10.6-35.6 38-57.3 73.2-60.7 42.9-4.2 81.5 24 89.6 64.1 4.1 20.3 1.4 39.2-9.5 57.1-12 19.7-29 31.7-51.3 37.9-35.3 9.8-75-7-92.8-37.1-.3-.4-.4-1-.6-1.4 2.1-.5 4.1-1 6.2-1.4 5.1-.7 10.6.5 15-3.5l.5.1.1-.2zm8 28.6c1.1-2.7 2.1-5.4 3.2-8.1 1.7-.5 3.4-1 4.8-1.5 3.4-5.9 2.3-8-6-12.6-10.8 11.4-11.7 12.7-10.4 16.2 2.1-2.2 3.9-4.1 5.9-6.3 1 .9 1.9 1.7 2.5 2.2.2 3.7-3.3 6.4 0 10.1zm51 9.9c.7-10.1.4-13.6-2-16.5-1.8 5.6.2 11-1.3 16.5h-6.1c-.3-5.7-.5-10.8-.8-15.9-.5-.1-1-.3-1.5-.4-.5 1-1.2 1.9-1.3 2.9-.2 3 0 6 0 8.9 0 3.6 1.1 6.7 4.7 8 3.3 1.1 6.2-.2 8.3-3.5zm-28.9-.6c4.5-2.8 5.5-7.4 6.6-11.8.8-3.1-.9-5.4-3.7-6.8-2.7-1.4-5.4-1-7.1 1.4-1.6 2.2-3.1 4.7-3.9 7.3-2.2 7 .3 10.1 8.1 9.9zm73.7-48.1c-.1.6-.2 1.1-.3 1.7 3.1.4 6.3.7 9.3 1.1 1 1.4 1.9 2.6 2.9 4 1.9.2 3.8.3 6.2.5 1.2-2.8 2.3-5.4 3.6-8.4-6.4-2.4-12.4-4.7-18.4-7l-.9 1.8c2.7 1.6 5.5 3.2 8.2 4.7-.2.5-.3.9-.5 1.4-3.4.2-6.8.2-10.1.2zm-8.9 38.3c7.5-5.2 7.9-5.5 8.1-9.4-2.8 2-5.2 3.7-7.8 5.5-1.1-1.7-2-3.1-3-4.6 1.5-1.2 2.7-2.1 4.1-3.1-2.8-1.5-2.8-1.5-7 .7-.8-1.1-1.7-2.3-2.5-3.4 5.3-4.7 5.3-4.7 4.3-7.3-3 2.3-5.8 4.5-9 7 4.3 4.9 8.4 9.6 12.8 14.6zm17.7-110c-5.8 3.8-11.4 6.9-16.2 10.9.3.5.6 1 .8 1.5 2.8-1.4 5.6-2.9 8.9-4.5.9 4.9-5.7 6.2-3.9 11.5 2.4-2.6 4.3-4.8 6.4-7.1 3.9.1 7.5-.6 8.7-5.7-1.4-2-2.9-4.1-4.7-6.6zm-71.5-29c-.7.1-1.3.2-2 .4.2 3.4.2 6.9.5 10.3.6 7.3.7 7.3 3.4 8.6v-8.7h4.5c.7 2.9 1.3 5.5 2 8.1.6-.1 1.2-.3 1.8-.4-.6-6.3-1.2-12.6-1.8-19H308c-.2 2.7-.5 5.4-.7 8.4-1.8-.1-3.3-.2-4.6-.2-.6-2.8-1.1-5.2-1.5-7.5zm41 26.6c.2-1.8.3-3.2.6-4.6.3-1.4.7-2.7 1-3.9 5.4-3.2 5.7-3.9 4.2-9.4-2.1-1-4.4-2.2-6.6-3.3-5.4 8.2-8.4 15.5-7.1 18.8 1.8-3 3.4-5.7 5-8.3.5.2 1 .3 1.4.5-.4 3.2-.7 6.5-1.1 9.9.7 0 1.3.1 2.6.3zM268.3 237c-.6.3-1.1.6-1.7.9.6 6.7 4.4 12.4 6.1 18.7l1.8-.3c-.2-2-.4-4.1-.6-6.2.9-.5 1.8-1 2.7-1.6 1.6 1.2 3 2.2 4.5 3.3.6-.4 1.1-.8 2-1.5-5-4.5-9.9-8.9-14.8-13.3zm62.1-7.3c.1-.7.2-1.3.3-2-3-.6-6.1-1.2-9.4-1.9-1.3 6.7-2.5 12.8-3.7 19.3 3.6-.1 6.7 1.9 10.4-.6-2.8-.8-4.8-1.5-7.2-2.1.3-2 .6-3.9.9-5.6 1.8-.1 3.2-.2 4.6-.3.1-.4.2-.9.3-1.3-1.3-.6-2.7-1.1-4.2-1.7.4-1.4.8-2.9 1.2-4.3 2.5.1 4.7.3 6.8.5zm51.9 78.2c1.1.2 2.3.3 3.7.5v6.8c.4.1.8.1 1.2.2 2.4-2.7 2.1-6 1.5-9.6-6.3-.6-12.3-1.1-18.9-1.7-.3 3.4-.7 6.3-1 9.2.5.1 1.1.3 1.6.4.8-2.2 1.5-4.4 2.2-6.6h5.3c.4 1.7.8 3.2 1.4 5.6 1.3-2.1 2.1-3.4 3-4.8zm6.6-12c.1-.6.2-1.2.2-1.8-3.6-.6-7.2-1.3-11.7-2 4-2.1 7.1-3.7 10.2-5.3-.3-.6-.5-1.1-.8-1.7-6 2.7-12.6 4.1-18.2 8 .1.4.2.7.3 1.1 6.8.6 13.4 1.2 20 1.7zM337.4 355c-5.5-.7-9.5 1-11.5 4.2 1.9-.1 3.5-.3 5.2-.4 1.2 2.9 2.3 5.6 3.3 8.4 2 5.5 2 5.5 5.4 5.8-2-5.4-4-10.5-5.8-15.5 1.3-.9 2.4-1.7 3.4-2.5zm-74-87.9c1.7-3.6 5.9-4.3 5.7-9.1-2.5 2-4.4 3.5-6.5 5.2-1.8-1.6-3.2-2.8-4.5-4 .7-1.4 1.3-2.5 2.3-4.2-2 .5-3.4.9-5 1.4-.8-.9-1.6-1.8-2.3-2.6 1.4-2 2.6-3.7 3.8-5.4-4.6-.4-5.5 3.1-8 5.5 4.8 4.3 9.3 8.5 14.5 13.2zm-7.2 11.7c.2-.6.5-1.1.7-1.7-2.5-1.4-5-2.8-7.4-4.2.2-1.5.3-2.9.5-4.2-.4-.2-.9-.5-1.3-.7-.6 1.3-1.1 2.6-1.8 4-2.1-1.5-3.3-2.3-4.1-2.9.8-2.5 1.4-4.4 2-6.3l-1.5-.6c-1.5 2.6-3 5.2-4.8 8.2 6.2 2.9 11.5 6.5 17.7 8.4zm33.5-49.8c-.2-.4-.4-.7-.6-1.1-2.9 1-5.9 2.1-8.8 3.1.1.4.1.8.2 1.1 1.3.2 2.5.4 3.6.6 2.8 4.9 2.9 10.8 6.6 15 .5-.2.9-.4 1.4-.5-1.7-5.2-3.4-10.4-5.2-15.6 1-1 1.9-1.8 2.8-2.6zm94.1 44.6c-6.3 1.5-12.6 3.3-18.3 6.7 3.4 1.1 13.5-2.3 18.3-6.7zM208.9 148.9c-2.3 1.7-3.3 2.4-4.5 3.2-3.2 18.3-6.4 36.8-9.6 55.3-4.3 25.1-8.5 50.2-12.8 75.3-.4 2.2-.4 4.4-4.3 4.1-3.1-10.6-4.5-21.8-6.6-32.9-2.1-11-4.3-22-6.9-33.2-5.3 22-9 44.4-13.8 66.5-.6.1-1.3.2-1.9.3-.8-1.4-2.1-2.8-2.3-4.3-2.6-15.4-5-30.9-7.5-46.3-3.4-21.2-6.7-42.3-10-63.5-.8-5-1.5-10.1-2.5-15.1-.6-3.1-1.7-6.1-2.5-9.1-.5-.2-1.1-.4-1.6-.7.8-.4 1.5-1 2.3-1 7.8-.1 15.6 0 24.5 0-1.4 2.6-2.1 4-3.1 5.9 1.9 13.4 3.8 27.2 5.8 41.1.3 0 .7.1 1 .1 1-5.3 2.1-10.5 3.1-15.8 1.4-7.3 2.8-14.5 3.9-21.8.4-2.6-.3-5.3-.5-9 4.5-1.5 9.8-1.2 15.7.1-.9 2-1.5 3.3-2.1 4.8 2.7 14.4 5.4 28.8 8 43.3h.9c1.5-8.8 3-17.5 4.5-26.3.6-3.8 1.4-7.6 1.7-11.5.3-3.1.1-6.3.1-10 2.9-1.9 15.2-1.9 18.7-.3 12.5-2 23.8-.2 35.3-.6.7 3.3 1.2 6 2 9.6h-15.8v26.6c4.1.2 8.4.4 13 .6v9.4H228v47.5h15.5c.2.4.3.9.5 1.3-1.9 2.6-3.9 5.1-6 7.9h-28.6c.3-5 .9-9.5.9-14 0-26.7 0-53.5-.2-80.2-.2-2.1-.8-4.2-1.2-7.3z"/>
    <path fill="#cc5e62" d="M260.1 336.6l-.5.2-.5-.1c-3.8.6-7.7 1.2-11.5 1.9-1.2.2-2.3 1-3.4 1.6-2.1.5-4.1 1-6.2 1.4-6.5-1.6-12.8.3-19.1 1.6-6.1 1.2-11.7-1.6-14.3-7.5-.6-1.4-1.8-2.5-2.9-4.1 4 0 6.6 2.9 9.8 4.4 3.1 1.5 6.4 2.5 9.8 3.2-5.2-2.8-10.5-5.7-15.7-8.5.1-.4.2-.8.4-1.2 2-.5 4.9 1.2 5.2-3 4.3 2.5 7.9 4.6 11.5 6.8-.9 1.1-1.4 1.6-2.1 2.4 1.9 1.3 3.8 2.5 5.7 3.8 1.7-.8 3.5-1.5 5.5-2.4-.5-1.8-1-3.6-1.6-5.9 7.2 1.5 13.8 3 21.4 4.6 3-.8 7.1-1.9 11-3-7.8-2.5-14.5-9.1-23.8-8.8l.1.1c1.3-1.2 2.5-2.7 4-3.6 1.4-.9 3.1-1.2 4.8-1.8 1.6.7 3.4 1.4 5.7 2.5-.8-1.6-1.3-2.5-1.7-3.5l-.1.1c2.1.7 4.3 1.4 6.4 2l.3.3c-.1-.1-.2-.2-.3-.2-.3-1.4-.7-2.8-1-4.2l-.1.1c2.7-.2 5.4-.3 9-.6-1.4-1.9-2.5-3.3-3.7-4.8l-.1.1c1.6.4 3.3.7 4.9 1.3 2.7 1 5.3 2.3 8 3.5-1.4-2.8-2.6-5.3-3.7-7.5 5.5 1.5 11 3 16.6 4.5-1-1.5-1.8-2.8-2.6-4h2.1c.4.3.9.6 1.3.8.1-.2.2-.4.2-.7-.5 0-1.1-.1-1.6-.1-1.3-2.8 2.2-3.1 2.6-5.4-2.9.5-5.7 1-8.7 1.5.4 1.2.6 2 .8 2.8-1.5-.7-3-1.4-4.7-2.2-4.7.3-9.9 1.3-11.8-4.5-1.5.1-2.6.2-3.7.3 2-3 4.3-5.4 8.3-5.3-.6-.9-1.1-1.7-1.5-2.4-3 1.9-5.9 3.7-8.9 5.6-.4-.5-.8-1-1.5-2-1.4 1.4-2.6 2.8-3.8 4.1l-1.5 1.5c.2.2.4.3.7.5.3-.6.6-1.3.9-1.9 1.8-.7 3.5-1.4 5.3-2.2v2.2l-2.1 2.1-6 4.2c.2.3.4.5.6.8 1.1-.6 2.2-1.3 3.3-1.9.4.7.8 1.4 1.1 1.9 2.6-.9 5.2-1.7 7.7-2.5.2.4.3.9.5 1.3-1.4.9-2.7 1.7-4.1 2.6-4.3.2-8.6.5-13.3.8-.1-.3-.5-1-.9-2.1-1 .1-2.2.2-4.2.5.9-1.4 1.4-2.2 2-3-.7-.3-1.4-.6-2.2-1l1.2-1.8c-.8-.8-1.5-1.5-2.2-2.3-1 .4-1.9.8-2.9 1.2-.3-.3-.6-.6-.9-1 4-3.6 8-7.2 12.1-10.8-.7-.3-1.4-.5-2.1-.8 2-3.9 2.8-4.4 9-6 1.6 1.4 3.2 3 5 4.6 2-1.5 3.9-2.9 6.1-4.6.7.5 1.4 1.1 2.3 1.7 6.1-2.5 12.2-5 18.7-7.7.8.4 1.8 1 2.8 1.5v-1.1c3.2-.2 6.3-.4 9.5-.7 3.3-.3 6.6-.9 9.8-1.3 0-.4 0-.8-.1-1.2 1.1.3 2.3.7 3.5 1 1.5-.9 2.9-1.9 4.4-2.8 0 .2.1.4.1.7 8.8-.8 17.6-1.5 26.4-2.3 0-.3 0-.7-.1-1 1.9.5 3.9 1 6.3 1.7-1.7 2.3-3.2 4.2-4.7 6.1-.7.4-1.4.7-2.2 1.1l.1-.1c-2.6 1.6-5.1 3.3-7.7 4.9.3.6.6 1.1 1 1.7 3.1-1.2 6.3-2.4 9.4-3.6.1.2.1.4.2.5 1.5-.5 3-.9 4.5-1.4l-.1.1c.5.1 1 .2 1.1.2v5c-.1.2-.3.3-.3.3l.2-.4c1.1-.2 2.3-.5 3.4-.7.2.2.4.5.6.7-1.5 1.4-3 2.8-4.3 4-2.5.3-4.7.6-7.8 1 6.1 4.2 11.5-.3 17.2.7v21c-6.9 1.8-13.7 3.7-20.4 5.4-10.2 2.6-20.4 5.1-30.6 7.5-8.8 2.1-17.6 4.1-26.4 6.1-2.7.6-5.5.7-8.3 1-.9.1-1.8-.1-2.6.1-4.1 1.1-8.7 2.5-13.3 3.8zm72.8-55.9c.6-.2 1.2-.5 1.8-.7-.2-.3-.3-.5-.5-.8-.4.4-.8.9-1.3 1.5-.4.3-.7.7-1.1 1-1.5-.2-3-.3-3.8-.4-3.3 1.4-6.1 2.5-8.8 3.7-.2-.5-.4-1.1-.7-1.9-.6.9-1 1.4-1.4 1.9-2.5 1.8-4.9 3.5-7.4 5.3-.2.2-.4.3-.2.2-.1.2 0 0 .2-.2.5.1.9.3 1.5.5l-.9 2.1-2.7 2.7c-1.9 1.1-3.9 2.2-6 3.3-1.1-.4-2.2-.8-4.3-1.5-1.5 1.2-3.3 2.7-5.6 4.5 5.5 1.4 9.1 2.3 12.7 3.3l4.2 2.1c.7.3 1.4.7 2.2 1 1 .4 2.1.7 3.1 1.1.4.3.8.6 1.1.9l.3-.6-1.5-.3c-1-.4-2.1-.7-3.1-1.1-.7-.3-1.4-.7-2.2-1l-4.2-2.1c-.5-.6-.9-1.2-1.4-1.7.3-.3.5-.6.8-.9 3.5 1.5 6.9 3.2 10.4 4.6 3.3 1.3 6.8 2.2 10.2 3.3 1.8.7 3.6 1.4 5.3 2.1 1 .7 1.9 1.3 2.9 2 .2-.3.3-.6.5-.9-1.1-.3-2.3-.7-3.4-1-1.8-.7-3.5-1.4-5.3-2.1-.4-.7-.7-1.4-1.1-2.1 1.1-.1 2.1-.2 3.2-.4 0-.2 0-.5.1-.7l-5.4-.9c-2.5-1.6-5-3.2-7.5-4.7l.3-.6c6.7 2.4 13.5 4.9 20.2 7.3.1-.3.2-.5.3-.8-2.5-1.3-4.9-2.5-8-4.1 1.6-.3 2.6-.5 3.7-.7-.6-.8-1.1-1.3-1.5-1.8l-.1.1c1.3-.2 2.7-.4 4-.6-.1-.3-.1-.7-.2-1-1.9-.4-3.8-.8-5.7-1.1 0-.3.1-.6.1-1 1.2.1 2.4.1 3.6.2.1-1.4.1-2.5.1-2.6 2.8-2.6 4.9-4.6 6.9-6.5-.9-1.2-1.5-2-2.3-3-.9 1-1.7 1.9-2.5 2.7-.4.3-.8.6-1.3 1-2.3 1.5-4.6 2.9-6.6 4.2-1.7-.6-3.2-1.2-4.6-1.7 1-.9 1.8-1.9 2.9-2.7 2.9-2.3 5.9-4.6 8.8-6.8.5-.9.9-1.3 1.2-1.6zm-14.8-4.3c.8-.6 1.7-1.2 2.5-1.7-.3-.3-.6-.5-.9-.8-.5.8-1 1.7-1.6 2.5 0 .1-.1.2-.2.3.1-.1.2-.2.2-.3zm37 26.4c.3.3.6.5.2.1.6.2.2.1-.2-.1.6-.5 1.3-1.1 2-1.8-2.3-1.4-4.5-2.7-7.1-4.2-.7.4-1.5.9-2.3 1.4-3.6-1.5-7.1-2.9-10.7-4.4-.1.3-.3.7-.4 1 1.4.6 2.9 1 4.2 1.8 1.2.7 2.1 1.8 2.4 2.1 4.5 1.6 8.2 2.8 11.9 4.1zm-58.1 7.5c-.1-.2-.2-.5-.1-.1-.4-.3-.1-.1.1.1 1.9 1.3 3.7 2.6 5.6 3.9-.1.2-.3.4-.4.5-.3.1-.7.2-1.8.5 3.6 1.7 6.5 3.2 9.2 4.5.9-1.6 1.6-2.8 2.3-4 3.8 1.4 7.5 2.7 11.2 4.1.1-.2.2-.5.2-.7-2.1-1.2-4.1-2.3-6.2-3.5h4.5c0-.2.1-.4.1-.7-2.3-.9-4.6-1.8-7.8-3.1 1.6 1.9 2.4 2.9 3.2 3.8-5.3-2-10.5-3.9-16.3-6.1-.8.2-2.3.5-3.8.8zm-12.7-10.7c2.6.2 5.2.4 7.8.7-.2-.5-.3-.9-.5-1.4 1.4-2 2.5-4.3 4.2-6 1.9-1.9 4.3-3.3 6.8-5.1-3.1-1.4-10.4.7-11.5 2.6-.8 1.6-1.8 3.2-2.9 4.6-1.1 1.7-2.5 3.1-3.9 4.6-.2.2-.4.3-.1.1-.2.4 0 .2.1-.1zm15.9 24.9c-.1-.2-.1-.5-.2-.7-2.2-.9-4.3-1.9-6.4-2.8.9 1.3 1.6 2.4 2.4 3.5h4.2zm-33.7 5.3h6.3c0-.2.1-.4.1-.6-1.5-.7-3-1.4-4.7-2.2-.6 1.1-1.1 1.9-1.7 2.8zm25.7-25.7c-.1.1-.2.1-.3.2.1.1.2.3.3.3.1 0 .2-.1.3-.2l-.3-.3z"/>
    <path fill="#f6f7f7" d="M469.3 328.1c-9.2.6-14.8 5.4-19.4 11.7-9.7 13.5-14.3 28.7-15.7 45.1-1.3 15 .2 29.7 4.4 44.2 1.1 3.7 2.4 7.4 4.3 10.7 5.9 9.9 15.1 14.2 28 10.4 2.3-.7 4.6-1.3 7.4-2.2v9.4c-10.4 6.8-21.8 7.8-33.8 3.9-16.5-5.4-25.8-17.6-30.5-33.7-5.4-18.6-6.3-37.3-1.1-56.1 4.7-16.9 13-31.5 27.2-42.1 9.7-7.3 20.8-10.8 33.1-9.6 2 .2 4 .9 6.1 1.4.2 1.6.5 2.8.5 4v55.4c0 .7 0 1.4-.1 2.1-.6 6-3.6 8.3-10.5 7.5.1-20.4.1-40.9.1-62.1zm-88.6-180.9h10.6c5.8.1 11.6.1 17.4.3 7.8.3 13.2 4.9 16.8 11.1 8.2 14 5.8 30.7-5.7 43.9-1.4 1.6-2.8 3.1-4.3 4.8 6.3 14.1 12.5 28 18.9 42.4h-18.7c-4.6-10.1-9.3-20.2-13.9-30.4-.3.1-.6.1-.9.2v26.9c1.2.6 2.7 1.4 4.3 2.2-3.1 2.6-20.7 3-25.7.7.9-1.1 1.8-2 3.1-3.5v-2.4c0-29.2.1-58.4 0-87.6 0-2.5-1.1-4.9-1.9-8.6zm19.4 8.4V205c6.8-4.8 9.3-10.8 10.5-17.2 1.6-8.6 2.8-17.4-.8-25.9-1.6-4-4.3-6.6-9.7-6.3zM136.9 354.3c-.9-1.2-1.7-2.3-3.2-4.3 2.4-.3 4-.7 5.5-.8 8.3-.1 16.5-.1 24.8 0 14.7.2 23.6 8.1 25.5 22.7 2.1 16.1-3.3 29.1-16.3 38.6-4.1 3-8.8 5.1-13.2 7.5-1.2.7-2.5 1.3-3.7 1.9v38.2c.9 1.1 1.9 2.3 2.8 3.6-3.9 2.2-22.3 2.2-26.6-.5 1.7-1.1 3.1-2 4.4-2.8V354.3zm19.5 54.8c4.7-1.7 8-4.6 10.2-8.3 7.1-12.3 6.9-25.1 1.1-37.8-2.4-5.3-5-6-11.2-4.7-.1 16.7-.1 33.5-.1 50.8zm293.9-208.6c0 14.2-.1 28.5.1 42.7 0 2.1 1.2 4.1 1.8 6.2-3.5 1.6-11 1.7-14.7.4.4-4.7 1.1-9.2 1.1-13.7.1-27.8.1-55.6.1-83.4-1.1-1.3-2-2.5-3.5-4.2 4.3-2.3 8.4-1 13-1 6.9 16.9 13.8 33.9 20.7 50.9.2-.1.5-.1.7-.2v-45.4c-.6-.7-1.5-1.7-2.3-2.6.7-2.9 10.6-3.5 16.3-.9-.8 1.3-1.6 2.6-2.5 4v92.4c.8 1 1.8 2.2 3.5 4.2h-13.4c-6.5-16.4-13.1-33-19.8-49.6-.4.1-.7.2-1.1.2zM192.7 463h-15.9c4.9-6.7 5.5-14.1 7.2-21.1 7-28.6 14-57.3 21-86.3-.8-1.1-1.8-2.5-3.4-4.8 6-1 11.3-.4 16.9-.5 8.5 36.2 16.9 72.3 25.2 107.7 2 1.5 3.4 2.6 4.9 3.7-.2.5-.4.9-.5 1.4-8.3.5-16.7.7-25.8-.2 1.4-2.1 2.2-3.3 3.2-4.9-2.2-9.2-4.4-18.8-6.7-28.4h-20.1c-1.8 10.8-5.8 21.2-6 33.4zm16.8-75.1c-2.8 10.5-5.6 21.1-8.4 31.8h16.3c-2.1-10.8-4.1-21.3-6.1-31.7-.2-.8-.4-1.7-.6-2.5-.3 0-.6.1-.8.1-.2.8-.3 1.6-.4 2.3z"/>
    <path fill="#f6f7f7" d="M385.8 357.5c-1.3-1.2-2.4-2.2-3.5-3.2 2.6-2.6 11.5-3.5 21.8-2.4 1.4.2 2.7 1.1 5.1 2.2-2.5 1.4-3.7 2.2-5.1 3v101c1.3 1.1 2.8 2.3 4.5 3.8-4 1.8-18.8 2.1-26.4.8 1.4-1.8 2.4-3.2 3.7-4.9-.1-33.2-.1-66.6-.1-100.3zm-91 29.8v11.1c-2.6-.9-4.7-1.5-6.8-2.3-9.6-3.5-19 1.4-21.9 11.2-3 10.2-3.2 20.4-.3 30.6 3 10.4 10.7 14.9 21.3 13 2.4-.4 4.7-.9 7.8-1.5.2 3.1.3 5.6.4 7.9-18.5 12.3-41.7 7.8-49.4-15.1-3.9-11.7-5.1-23.7-.5-35.1 7.5-18.7 22-24.1 40.9-21.6 2.8.3 5.5 1.1 8.5 1.8zm47.5 70.9v-69.6c-.7-.9-1.6-2.1-3.2-4.1 13.2-5.9 25.4-12.7 35.7-24.2 2.5 4.4 4.4 7.9 6.7 12.1-7 4-13.7 7.8-20.8 11.8v25H377v11.5h-16.4v38.4c1.1.8 2.2 1.6 3.5 2.5-3.1 2.3-18.7 2.9-26 .9 1.5-1.5 2.7-2.7 4.2-4.3zm-88.4-226.5c-2.5-3.6-4.4-6.3-6.7-9.8 3-.5 5.2-.9 7.3-1.3 5.1-1 9.7-2.5 13.7-6.2 7.3-6.7 5.5-16-.5-21.2-5.3-4.6-10.7-9.1-16.1-13.6-5.6-4.6-8.4-10.2-6.4-17.6 2-7.3 6.7-12 13.8-13.8 8.6-2.1 17.4-1.3 26.6-.5.4 3.4.9 6.4 1.4 10.4-6.2-.4-11.9-.7-17.6-1.1-5.3-.3-7.4 1.2-9.3 7.5 1.5 1.6 3.1 3.9 5.2 5.5 6 4.6 12.3 8.8 18.2 13.6 3.2 2.6 6.4 5.7 8.2 9.4 4.5 9.2 2.1 18.8-6.7 24.5-7 4.5-14.9 7.6-22.5 11.2-2.9 1.3-5.7 2.1-8.6 3zm123.3-1.7c-2 2.7-3.6 4.7-5.1 6.8-10.6-5.9-20.8-11.7-31-17.5.4-2.5 1-5 1-7.5.1-19.7 0-39.3 0-58.7-1.5-1.4-2.6-2.5-3.7-3.5 3-2.3 25.1-3.1 35.2-1.4.6 2.4 1.3 5.1 2.1 8.5H360v26.6h12.7v9.4h-13.2v28.2c5.6 2.8 11.4 5.8 17.7 9.1zm-53.8 228.3c1.6.9 2.8 1.7 4.1 2.5-.4.7-.7 1.3-1.1 2-8.3 1.3-16.7.4-25 .5-.2-.4-.5-.7-.7-1.1 1.2-1.3 2.5-2.6 4.1-4.4v-66.6c-1.4-1-2.6-1.8-3.8-2.6.1-.4.1-.8.2-1.2H327c-1.4 1.6-2.5 2.8-3.7 4.1.1 22 .1 44.3.1 66.8zm8.7-310.7c.4 1.8.7 3.5 1.2 5.6h-12.1v58.5c1.3 1.1 2.5 2.1 3.8 3.2-.1.3-.2.6-.2 1h-24.6c1.8-1.7 2.9-2.6 4.1-3.8v-58.5h-12.6c.2-2.1.3-3.9.5-6.1 13.2.1 26.2.1 39.9.1z"/>
    <path fill="#cc5e62" d="M456.4 273.1c2-1 4.1-2.1 6.4-3.3-5.1-2.6-9.6-2.6-13.8 1.6-1.5 1.5-3.8 2.1-6.2 2.3 1.8-1.4 3.6-2.8 6-4.6h-7.1c-.5-.3-1-.6-1.5-.8-.1.2-.1.3-.2.5l1.8.3c-.5.8-1 1.5-1.7 2.6-1-1.1-1.7-1.8-2.5-2.6-2.8.7-5.7 1.3-8.6 2.1-2.4.7-3.6.1-3.5-2.8-4.8 2.2-9.3 6.6-14.7 1.6-1.4.6-2.7 1.2-3.9 1.7-1.4-.5-2.8-.9-4.2-1.4-.1-.4-.1-.7-.2-1.1 8.4-1.9 16.8-3.7 24.9-5.5 4.5 3.2 8.7 3.5 13.7 2 3.3-1 7.2-.1 10.9.2 5.6.5 11.1 1.1 16.6 1.8 1.2.2 2.2 1.5 3.4 1.9 2.9 1.1 6.1 3.3 8.8 2.8 5-.9 8.5.8 12.1 3.7v4.6c-4.8 3-9.2 6.2-14.1 8.6-2.8 1.4-6.3 1.3-9.5 2.1-10 2.4-19.9 5-30 7.2-3.4.8-6.9.6-10.4 1.1-4.8.7-9.5 1.7-14.3 2.6-5 .9-10 1.9-15.5 2.9-.4-2.7-.6-4.5-.9-6.1.8-1.4 1.5-2.5 2.1-3.7l-.1.1c1.1-.4 2.1-.7 3.2-1.1l-.1.1c1 0 2.3-.3 3.1.1 5.8 3.1 11.9 2.6 18.1 2.1 2.8-.3 5.7.2 7.7.3 1.9-2.4 3-4 4.3-5.6-.5-.4-1.2-.9-2.7-1.9 1.1-.5 2-.9 3.9-1.8 1.7.5 4.8 1.3 8.5 2.4-.6-1.1-.9-1.7-1.4-2.7 1.4-.1 2.7-.3 3.9-.4.9 3.5 3.5 1 5.3 1.2-1.8-.4-3.6-.8-5.3-1.2-.1-.5-.2-1-.3-2 3.4 1.1 6.6 2.1 10.7 3.4-1.7-2.2-2.8-3.7-4-5.3 2.2-.5 4.3-1 6.8-1.6 1.2.3 2.7.8 4.5 1.2 1.4-.8 2.9-1.6 4.6-2.6 2 .2 4.4.3 6.9.5-.2-.9-.3-1.4-.4-1.9 3.9.2 7.6.4 12.2.7-2.9-1.9-5.1-3.4-7.8-5.1-7 .6-14.8-4.8-21 .4-2.3-.7-3.4-1.1-4.6-1.5l.1-.1zm24.1 11.4c0-.3.1-.6.1-1-1.1-.2-2.1-.3-3.2-.5 0 .2-.1.4-.1.6 1.1.3 2.1.6 3.2.9zm-5.6-2v-.4h-2.4v.4h2.4zm-238.5 21c-1.8 2-3.5 3.9-5.3 5.8-2.2 2.3-4.3 4.7-8 4.1-.6-.1-1.4.8-2 2.1 2.8-.4 5.5-.7 8.3-1.1l.3.6c-.7.4-1.4 1.1-2.2 1.3-10.8 2.9-21.7 5.6-32.6 8.5-3.5 1-7 2.2-10.4 3.7-1.5.7-2.5 2.2-2.9 2.5-3.3.5-5.7.6-7.8 1.4-5.6 2.1-11 4.6-16.5 6.8-1.8.7-3.7.8-5.6 1.2-.2-.6-.3-1.1-.5-1.7 9-3.8 18-7.6 25.7-10.8 4.3-5.8 7.9-10.7 11.7-15.9 1.3 1.6 2 2.4 2.8 3.4 1.4-.3 2.7-.5 3.3-.6 3.9-8.6 11.1-13.6 16.8-20.1 1.8.8 3.4 1.6 5.4 2.6-1.6 2.8-2.6 5.3-6.4 5.5-1.5.1-3 2.1-4.5 3.3-1 .8-2 1.6-3.1 2.6 0 .8-.1 2-.2 3.1 1.8-.9 3.7-1.7 5.5-2.6 4.4-2.4 5.8-8.8 12.3-8.6.2.2.5.4.7.7-.7 1-1.5 1.9-2.2 2.9.5 2.6.9 5.1 1.5 8.2 5.3-3.4 10.1-6.5 14.9-9.6.3 0 .7.3 1 .7z"/>
    <path fill="#cc5e62" d="M236.8 291.2c2-1.5 3.8-3.8 7.7-1.7-5.6 6.1-12.2 10.5-19 15.8.4-2.2.6-3.4.8-4.7l-.1.1c.7-.7 1.4-1.5 2.2-2.2l-.1.1 1.1-1.1-.1.1c3-.6 4.7-2.4 5.3-5.4l-.1.1c.9-.4 1.6-.7 2.3-1.1z"/>
    <path fill="#cc5e62" d="M226.3 300.7l-5.1.3c-.2-.3-.4-.5-.7-.7 1.9-3.7 5-6 8.9-7.6 1.4-.5 2.4-1.8 3.7-2.6 1.7-1.1 3.2-1.8 3.7 1.1h.1c-.7.4-1.5.7-2.2 1.1l.1-.1c-1.8 1.8-3.6 3.6-5.3 5.4l.1-.1-1.1 1.1.1-.1c-.9.8-1.7 1.5-2.3 2.2zm19.8 29.8c-4.6 1.9-7.8-1.7-11.4-3.3-1.1-.5-1.8-2-2.7-3.1.2-.4.4-.7.7-1.1l6.3.9-.1-.1c1 1 2 2 3.1 2.9 1.5 1.1 3.1 2.1 4.6 3.1-.2.3-.3.5-.5.7zm100.6-53c1.9-1.2 3.7-2.4 5.8-3.7 1 .8 1.8 1.5 2.9 2.3-1.3 1.7-2.3 3.1-3.4 4.6l.1-.1c-1.1-.3-2.1-.7-3.2-1l.3-.3c0-.1-.1.1-.2.4-1.9.6-3.9 1.1-6.3 1.8.9-1.3 1.5-2.2 2-3l-.1.1c.6-.4 1.4-.8 2.1-1.1zm109.9-4.1c-1.1.6-2.3 1.2-3.4 1.7-.1-.3-.2-.6-.4-1 1.2-.4 2.3-.7 3.5-1.1l.3.4z"/>
    <path fill="#cc5e62" d="M246.6 329.9c1.3.5 2.5.9 3.8 1.4-.2.4-.3.8-.5 1.2-1.3-.7-2.5-1.3-3.8-2 .2-.2.3-.4.5-.6zm-11.2-27.5c.7-.7 1.5-1.3 2.2-2 .3.3.6.6.9 1l-2.1 2.1c-.3-.4-.7-.7-1-1.1zm16.3 15.1H250c.1-.2.1-.5.2-.7.4.3.9.6 1.5.7zm148.9-22.1c-.2 0-.3-.1-.5-.1.2 0 .3.1.5.1zm3.1-1l-.3-.3c0-.1.1.1.3.3zm-141.5 15.8c-.4-.3-.7-.7-1.1-1 .3.3.7.7 1.1 1zm-5.3 5.3c-.2-.1-.5-.3-.2-.1-.1-.3 0-.1.2.1z"/>
    <path fill="#101619" d="M268.1 365.2c-3.3-3.7.2-6.4.1-10-.6-.5-1.5-1.3-2.5-2.2-2 2.1-3.9 4.1-5.9 6.3-1.3-3.6-.4-4.9 10.4-16.2 8.2 4.6 9.3 6.7 6 12.6-1.5.5-3.1 1-4.8 1.5-1.2 2.6-2.2 5.3-3.3 8zm3.2-19c-1.2 1.6-2.2 2.7-3.3 4.1 1.7 1.3 3.1 2.5 5.3 4.2 1.1-1 1.9-1.7 3-2.7-2-2.2-3.2-3.6-5-5.6zm47.8 28.9c-2.1 3.3-5 4.6-8.3 3.5-3.6-1.2-4.8-4.3-4.7-8 0-3-.1-6 0-8.9.1-1 .8-1.9 1.3-2.9.5.1 1 .3 1.5.4.3 5.1.5 10.3.8 15.9h6.1c1.5-5.5-.5-11 1.3-16.5 2.4 3 2.7 6.5 2 16.5zm-28.9-.6c-7.8.2-10.4-2.9-8.1-10 .8-2.6 2.3-5.1 3.9-7.3 1.8-2.4 4.5-2.7 7.1-1.4 2.7 1.4 4.5 3.7 3.7 6.8-1.1 4.5-2.1 9-6.6 11.9zm-.5-16.7c-4.5 4.4-5.6 7.3-4.9 12.7 4.6 1.9 5.9 1.3 8-4 2.1-5 1.4-6.9-3.1-8.7zm74.2-31.4H374c.2-.5.3-.9.5-1.4-2.7-1.6-5.5-3.2-8.2-4.7l.9-1.8c6 2.3 12.1 4.6 18.4 7-1.3 2.9-2.4 5.5-3.6 8.4-2.4-.2-4.3-.3-6.2-.5-1-1.4-1.9-2.7-2.9-4-3-.4-6.2-.7-9.3-1.1.1-.7.2-1.3.3-1.9zm12 3.1c2.2 1.9 3.9 2.2 5.2.2.5-.7.3-1.9.5-3.1-1.6-.2-2.8-.4-4.2-.7-.5 1.3-.9 2.3-1.5 3.6zM355 364.7c-4.3-5-8.4-9.7-12.8-14.7 3.2-2.5 6-4.7 9-7 1 2.6 1 2.6-4.3 7.3.8 1.1 1.7 2.3 2.5 3.4 4.2-2.2 4.2-2.2 7-.7-1.4 1-2.6 2-4.1 3.1 1 1.5 1.9 2.9 3 4.6 2.6-1.9 5.1-3.6 7.8-5.5-.3 4-.6 4.3-8.1 9.5zm17.7-110c1.7 2.5 3.2 4.6 4.7 6.6-1.2 5.1-4.8 5.8-8.7 5.7-2.1 2.4-4.1 4.5-6.4 7.1-1.8-5.3 4.8-6.6 3.9-11.5-3.2 1.7-6.1 3.1-8.9 4.5-.3-.5-.6-1-.8-1.5 4.9-4 10.4-7.1 16.2-10.9zm-4.5 6.1c1.1 2.7 2.4 4 4.9 2.8.5-.3.9-1 1.5-1.6-.8-1.2-1.6-2.3-2.6-3.6-1.4.8-2.5 1.5-3.8 2.4zm-67-35.1c.5 2.4.9 4.7 1.5 7.5 1.4.1 2.9.1 4.6.2.2-2.9.5-5.6.7-8.4h1.6c.6 6.3 1.2 12.6 1.8 19-.6.1-1.2.3-1.8.4-.6-2.6-1.3-5.2-2-8.1h-4.5v8.7c-2.7-1.3-2.8-1.3-3.4-8.6-.3-3.4-.3-6.8-.5-10.3.6-.2 1.3-.3 2-.4zm41 26.6c-1.2-.2-1.9-.3-2.6-.4.4-3.4.8-6.7 1.1-9.9-.5-.2-1-.3-1.4-.5-1.6 2.6-3.2 5.3-5 8.3-1.2-3.2 1.8-10.6 7.1-18.8 2.2 1.1 4.5 2.3 6.6 3.3 1.5 5.5 1.2 6.2-4.2 9.4-.3 1.2-.7 2.6-1 3.9-.3 1.4-.4 2.8-.6 4.7zm4.4-15.3c-1.3-.8-2.6-1.6-4.2-2.6l-2.1 4.2c2.7 2 4.8 2.7 6.3-1.6zm-78.3 0c4.9 4.4 9.8 8.8 14.8 13.4-.9.7-1.4 1.1-2 1.5-1.5-1.1-2.9-2.1-4.5-3.3-.9.5-1.8 1-2.7 1.6.2 2.2.4 4.2.6 6.2l-1.8.3c-1.7-6.3-5.5-12-6.1-18.7.6-.4 1.2-.7 1.7-1zm4.7 10.3c.5-.6.7-.8 1.1-1.3-.6-.5-1.2-.9-1.8-1.3-.2.2-.4.4-.7.5.5.7.9 1.4 1.4 2.1zm57.4-17.6c-2.1-.2-4.3-.4-6.7-.6-.4 1.4-.8 2.9-1.2 4.3 1.5.6 2.8 1.2 4.2 1.7-.1.4-.2.9-.3 1.3-1.4.1-2.8.2-4.6.3-.3 1.8-.6 3.6-.9 5.6 2.3.7 4.4 1.3 7.2 2.1-3.7 2.5-6.8.6-10.4.6 1.3-6.5 2.4-12.6 3.7-19.3 3.3.7 6.4 1.3 9.4 1.9-.2.7-.3 1.4-.4 2.1zm51.9 78.2c-.9 1.4-1.6 2.7-2.9 4.8-.6-2.4-1-3.9-1.4-5.6h-5.3c-.7 2.2-1.5 4.4-2.2 6.6-.5-.1-1.1-.3-1.6-.4.3-2.9.6-5.8 1-9.2 6.6.6 12.7 1.1 18.9 1.7.6 3.6.9 6.9-1.5 9.6-.4-.1-.8-.1-1.2-.2v-6.8c-1.6-.2-2.7-.3-3.8-.5zm6.6-12c-6.6-.5-13.2-1.1-19.9-1.6-.1-.4-.2-.7-.3-1.1 5.6-3.8 12.1-5.3 18.2-8 .3.6.5 1.1.8 1.7-3.1 1.6-6.2 3.2-10.2 5.3 4.5.8 8.1 1.4 11.7 2-.1.6-.2 1.1-.3 1.7zM337.4 355c-1 .8-2 1.6-3.4 2.6 1.9 4.9 3.8 10.1 5.8 15.5-3.4-.4-3.4-.4-5.4-5.8-1-2.8-2.2-5.5-3.3-8.4-1.7.1-3.3.3-5.2.4 2-3.3 6-5 11.5-4.3zm-74-87.9c-5.2-4.7-9.7-8.9-14.5-13.2 2.5-2.4 3.4-5.9 8-5.5-1.2 1.7-2.4 3.4-3.8 5.4.7.8 1.5 1.6 2.3 2.6 1.6-.4 3-.8 5-1.4-.9 1.7-1.5 2.8-2.3 4.2 1.3 1.2 2.7 2.4 4.5 4 2.1-1.7 4-3.2 6.5-5.2.2 4.8-4.1 5.5-5.7 9.1zm-7.2 11.7c-6.1-1.9-11.5-5.5-17.7-8.4 1.8-3 3.3-5.6 4.8-8.2l1.5.6c-.6 1.9-1.2 3.8-2 6.3.9.6 2 1.4 4.1 2.9.7-1.5 1.2-2.7 1.8-4 .4.2.9.5 1.3.7-.1 1.3-.3 2.7-.5 4.2 2.4 1.4 4.9 2.8 7.4 4.2-.2.5-.5 1.1-.7 1.7zm33.5-49.8c-.9.8-1.8 1.7-2.7 2.6 1.7 5.2 3.4 10.4 5.2 15.6-.5.2-.9.4-1.4.5-3.7-4.2-3.8-10.1-6.6-15-1.1-.2-2.4-.4-3.6-.6-.1-.4-.1-.8-.2-1.1 2.9-1 5.9-2.1 8.8-3.1.1.3.3.7.5 1.1zm94.1 44.6c-4.8 4.3-14.8 7.8-18.3 6.7 5.6-3.4 11.9-5.1 18.3-6.7zm-139.6 66.7c1.1-.5 2.2-1.3 3.4-1.6 3.8-.8 7.7-1.3 11.5-1.9-4.3 3.9-9.8 2.8-14.9 3.5zm80.3-30.1c-3.4-1.1-6.9-2-10.2-3.3-3.5-1.4-7-3-10.4-4.6-.7-.4-1.5-.8-2.2-1.3-.2.2-.3.5-.5.7.6.5 1.2 1 1.9 1.4.5.6.9 1.2 1.4 1.7l.1-.1c-3.6-.9-7.2-1.9-12.7-3.3 2.2-1.8 4-3.2 5.6-4.5 2.1.7 3.3 1.1 4.3 1.5 2.1-1.1 4-2.2 6-3.3l.1.1c.4.4 1 1.4 1.3 1.3 2.7-1 5.1-2.8 8.4-2.3.8.1 1.9-2.1 2.9-3.3l-.1.1c1.5.5 2.9 1.1 4.6 1.7 2-1.3 4.3-2.7 6.6-4.2.2.2.4.3.6.5.8.1 1.7.1 2.5.2 0-.3.1-.7.1-1-.6-.1-1.1-.1-1.7-.2l-.3-.4c.8-.9 1.6-1.8 2.5-2.7.8 1 1.4 1.8 2.3 3-2 1.9-4.1 3.9-6.9 6.5 0 .1-.1 1.2-.1 2.6-1.2-.1-2.4-.1-3.6-.2 0 .3-.1.6-.1 1 1.9.4 3.8.8 5.7 1.1.1.3.1.7.2 1-1.3.2-2.7.4-4 .6l-.2-.1c-.7-.1-.2 0 .3 0 .4.5.9 1 1.5 1.8-1.1.2-2.1.4-3.7.7 3 1.5 5.5 2.8 8 4.1-.1.3-.2.5-.3.8-6.7-2.4-13.5-4.9-20.2-7.3l-.3.6c2.5 1.6 5 3.2 7.5 4.7l.1-.1c-1.1.1-2.2.3-3.2.4v.6l5.4 1.2-.1-.1c.2 1 .5 1.7.9 2.4zm-62.4.1c-.3-.4-.7-.7-1-1.1 1.4-.9 2.7-1.7 4.1-2.6-.2-.4-.3-.9-.5-1.3-2.5.8-5 1.6-7.7 2.5-.3-.5-.7-1.2-1.1-1.9l-.1.1c.7-.4 1.5-.7 2.2-1.1l-.1.1c2.3-.6 4.3-1.4 4.3-4.3l-.1.1c1.1-.1 2.2-.2 3.7-.3 2 5.8 7.1 4.8 11.8 4.5 1.6.8 3.1 1.5 4.7 2.2l-.1-.1c1.1.4 2.2.7 3.3 1.1l-.1-.1c.8 1.3 1.6 2.5 2.6 4-5.6-1.5-11.1-3-16.6-4.5 1.1 2.2 2.3 4.6 3.7 7.5-2.7-1.2-5.3-2.4-8-3.5-1.6-.6-3.3-.9-5-1.3z"/>
    <path fill="#101619" d="M331.9 281.7c-2.9 2.3-5.9 4.5-8.8 6.8-1 .8-1.9 1.8-2.9 2.7l.1-.1h-4.9c-1.3.8-2.8 1.7-4.3 2.6-.3-.3-.6-.7-.9-1l.9-2.1c-.5-.2-1-.3-1.5-.5 2.5-1.8 4.9-3.5 7.4-5.3l-.1-.1c-.2.6-.3 1.2-.5 1.8.5.5 1 .9 1.5 1.4.4-1.1.8-2.1 1.2-3.2l-.1.1c2.8-1.2 5.6-2.3 8.8-3.7 1.1.2 2.6.4 4.1.6zm-47.5 18c1.3-1.5 2.7-3 3.9-4.7 1.1-1.5 2.1-3 2.9-4.6 1-1.9 8.4-4 11.5-2.6-2.5 1.8-4.9 3.2-6.8 5.1-1.7 1.7-2.8 4-4.2 6 .2.5.3.9.5 1.4-2.7-.2-5.3-.4-7.8-.6zm18.2 14.4c-1.8-1.3-3.7-2.6-5.5-3.9l-.1.1c1.5-.3 3-.6 3.9-.8 5.8 2.1 11 4.1 16.3 6.1l-.1-.1c2.1 1.2 4.1 2.3 6.2 3.5-.1.2-.2.5-.2.7-3.7-1.3-7.3-2.7-11.2-4.1-.7 1.2-1.4 2.4-2.3 4-2.7-1.3-5.7-2.8-9.2-4.5 1.2-.3 1.5-.4 1.8-.5 1.1.3 2.3.5 3.4.8l.1.2c.3.2.1 0-.2-.1-1-.4-2-.9-2.9-1.4zm52.5-11.3c-3.7-1.3-7.4-2.5-11.9-4-.3-.3-1.2-1.4-2.4-2.1-1.3-.8-2.8-1.2-4.2-1.8.1-.3.3-.7.4-1 3.6 1.5 7.1 2.9 10.7 4.4.8-.5 1.7-1 2.3-1.4 2.5 1.5 4.8 2.8 7.1 4.2-.7.6-1.4 1.2-2 1.7zm-10.5-24.3c-.6.8-1.1 1.7-2 3 2.4-.7 4.4-1.3 6.3-1.8l-.1-.1c1.1.3 2.1.7 3.2 1-1.5.5-3 .9-4.5 1.4-.1-.2-.1-.4-.2-.5-3.1 1.2-6.3 2.4-9.4 3.6-.3-.6-.6-1.1-1-1.7 2.6-1.6 5.1-3.3 7.7-4.9zm-57.1 29.6h-2.1l.1.1c-1.1-.4-2.2-.7-3.3-1.1l.1.1c-.2-.8-.5-1.6-.8-2.8 2.9-.5 5.7-1 8.7-1.5-.5 2.2-4 2.5-2.7 5.2zm-27.4-7.4v-2.2l-.1.1c2.9-1.9 5.9-3.7 8.9-5.6.4.7 1 1.5 1.5 2.4-4-.1-6.3 2.4-8.3 5.3l.1-.1c-.7.1-1.4.1-2.1.1zm40.1 23.8H296c-.7-1.1-1.5-2.2-2.4-3.5 2.1.9 4.2 1.8 6.4 2.8.1.2.1.5.2.7zm-33.7 5.3c.6-.9 1.1-1.7 1.7-2.8 1.7.8 3.2 1.5 4.7 2.2 0 .2-.1.4-.1.6h-6.3z"/>
    <path fill="#101619" d="M260.1 298.6c-1.8.7-3.5 1.4-5.3 2.2 1.2-1.3 2.4-2.6 3.8-4.1.7.9 1.1 1.4 1.5 1.9zm57 17c-.8-1-1.7-2-3.2-3.8 3.2 1.3 5.5 2.2 7.8 3.1 0 .2-.1.4-.1.7-1.5-.1-3-.1-4.5 0zm-61.2-9.7c-1.1.6-2.2 1.3-3.3 1.9-.2-.3-.4-.5-.6-.8l6-4.2-.1-.1v2.2l.1-.1c-.7.5-1.5.8-2.1 1.1zm65.4.1l5.4.9c0 .2 0 .5-.1.7-1.1.1-2.1.2-3.2.4l.1.1c-.7-.7-1.5-1.4-2.2-2.1zm3.2 4.2c1.8.7 3.5 1.4 5.3 2.1l.1-.1c-1.9-.6-3.6-1.3-5.4-2zm5.2 2.1c1.1.3 2.3.7 3.4 1-.2.3-.3.6-.5.9-.9-.6-1.8-1.3-2.9-1.9zm-11.5-35.9c.5-.9 1-1.7 1.6-2.6.3.3.6.5.9.8-.9.6-1.7 1.2-2.5 1.8zM304.3 305l4.2 2.1.1-.1c-1.4-.7-2.8-1.4-4.3-2 .1-.1 0 0 0 0zm3.2-9.6l2.7-2.7c.3.3.6.7.9 1-1.1.6-2.3 1.2-3.4 1.8l-.2-.1z"/>
    <path fill="#101619" d="M258 302.9l2.1-2.1h-.1c-.7.6-1.4 1.3-2 2.1zm-3.2-2.2c-.3.6-.6 1.3-.9 1.9-.2-.2-.4-.3-.7-.5.5-.4 1-.9 1.6-1.4zm59.1 8.4c-1-.4-2.1-.7-3.1-1.1l-.1.1c1.1.4 2.1.8 3.2 1zm19-28.5c.5-.5.9-1 1.4-1.5.2.3.3.5.5.8-.6.3-1.2.5-1.9.7 0 .1 0 0 0 0zm-15.8 4.3c.4-.5.8-1.1 1.4-1.9.3.9.5 1.4.7 1.9l.1-.1c-.8 0-1.5 0-2.2.1zm38 18c.4.1.8.3.2.1.5.3.2 0-.2-.1zm-41.2 6.3l1.5.3-.3.6c-.4-.4-.8-.7-1.2-.9zm32.8-31.7c-.7.4-1.4.7-2.2 1.1.7-.4 1.5-.8 2.2-1.1zm-59.2 30.7c.5 0 1.1.1 1.6.1-.1.2-.2.4-.2.7-.5-.3-.9-.6-1.4-.8z"/>
    <path fill="#101619" d="M308.6 307.1c.7.3 1.4.7 2.2 1l.1-.1c-.8-.3-1.6-.6-2.3-.9zm24.3-26.4c-.3.4-.7.7-1 1.1.3-.5.7-.8 1-1.1 0-.1 0 0 0 0zm-48.6 18.9c-.2.2-.3.5-.1.1-.3.2-.1.1.1-.1.1.1 0 0 0 0zm33.8-23.2c-.1.1-.2.2-.2.3.1-.1.2-.2.2-.3.1 0 0 0 0 0zm-60.2 43.3c.1.1.2.2.3.2 0 0-.1-.1-.3-.2zm73.6-30.9c.4-.3.8-.6 1.3-1l.3.4c-.3.4-.6.7-.9 1.1-.3-.2-.5-.4-.7-.5zm-39.3 15.3l.3.3c-.1.1-.2.2-.3.2-.1 0-.2-.2-.3-.3.1 0 .2-.1.3-.2zm60.7-18.2l-.2.4s.2-.2.2-.4zM297 310.2c-.2-.2-.5-.3-.1-.1-.2-.3 0-.1.1.1zm12.7-20.1c-.1.2-.3.4-.2.2l.2-.2zm90.4-134.5c5.3-.3 8.1 2.3 9.7 6.3 3.6 8.5 2.4 17.3.8 25.9-1.2 6.4-3.7 12.4-10.5 17.2 0-17 .1-33.1 0-49.4zM156.4 409.1v-50.9c6.2-1.3 8.8-.5 11.2 4.7 5.9 12.7 6.1 25.5-1.1 37.8-2.1 3.9-5.4 6.8-10.1 8.4zm54.9-21.1c2 10.4 4 20.9 6.1 31.7h-16.3c2.8-10.7 5.6-21.2 8.4-31.8.6.1 1.2.1 1.8.1z"/>
    <path fill="#cc5e62" d="M211.3 388h-1.8l.3-2.4c.3 0 .6-.1.8-.1.3.8.5 1.7.7 2.5z"/>
    <path fill="#101619" d="M449.1 287c1.8.4 3.6.8 5.3 1.2-1.8-.2-4.4 2.3-5.3-1.2zm31.4-2.5c-1.1-.3-2.1-.6-3.2-.9 0-.2.1-.4.1-.6 1.1.2 2.1.3 3.2.5 0 .3-.1.7-.1 1zm-5.6-2h-2.4v-.4h2.4v.4zM441.8 269l-1.8-.3c.1-.2.1-.3.2-.5.5.3 1 .6 1.6.8zm-212.4 28.6c1.8-1.8 3.6-3.6 5.3-5.4-.6 3-2.3 4.8-5.3 5.4zm-3.2 3.1c.7-.7 1.4-1.5 2.2-2.2-.7.8-1.5 1.5-2.2 2.2zm8.5-8.4c.7-.4 1.5-.7 2.2-1.1-.8.4-1.5.7-2.2 1.1z"/>
    <path fill="#101619" d="M228.3 298.6l1.1-1.1c-.3.4-.7.8-1.1 1.1zm120.5-18.9l.2-.4c.1 0-.1.1-.2.4z"/>
    <path fill="#f6f7f7" d="M271.3 346.2c1.8 2 3 3.4 5 5.6-1.1 1-1.9 1.7-3 2.7-2.2-1.7-3.6-2.8-5.3-4.2 1.1-1.4 2-2.5 3.3-4.1zm18.4 11.6c4.5 1.8 5.1 3.7 3.1 8.7-2.1 5.3-3.4 5.9-8 4-.7-5.4.4-8.3 4.9-12.7zm86.2-28.3c.5-1.2 1-2.3 1.5-3.6 1.4.2 2.7.4 4.2.7-.2 1.3 0 2.4-.5 3.1-1.3 2-3 1.6-5.2-.2zm-7.7-68.7c1.4-.9 2.5-1.6 3.8-2.5 1 1.4 1.7 2.4 2.6 3.6-.6.7-.9 1.4-1.5 1.6-2.5 1.3-3.9 0-4.9-2.7zM346.6 237c-1.5 4.3-3.6 3.6-6.3 1.7.6-1.3 1.2-2.5 2.1-4.2 1.6.9 2.9 1.7 4.2 2.5zM273 247.3c-.5-.8-.9-1.4-1.3-2 .2-.2.4-.4.7-.5.6.4 1.2.9 1.8 1.3-.5.4-.7.6-1.2 1.2z"/>
    <path fill="#cc5e62" d="M307.7 295.5c1.1-.6 2.3-1.2 3.4-1.8 1.5-.9 3-1.8 4.3-2.6h4.9c-1 1.2-2.1 3.4-2.9 3.3-3.3-.5-5.7 1.4-8.4 2.3-.3.2-.9-.7-1.3-1.2zm13.6 10.5c.7.7 1.4 1.4 2.1 2.2L318 307v-.6c1.2-.2 2.3-.3 3.3-.4zm10.8-16.8c.3-.4.6-.7.9-1.1.6.1 1.1.1 1.7.2 0 .3-.1.7-.1 1-.8.1-1.7 0-2.5-.1zM303 303.3c-.6-.5-1.2-1-1.9-1.4.2-.2.3-.5.5-.7.7.4 1.5.8 2.2 1.3-.3.2-.5.5-.8.8zm25.8-2.6c-.5-.1-1-.1-.3 0-.7-.4-.2-.2.3 0zm-70.9 2.1l2.1-2.1h2.2c0 2.9-2 3.7-4.3 4.3v-2.2zm24.3 4.2c1.1.4 2.2.7 3.3 1.1-1.1-.3-2.2-.7-3.3-1.1z"/>
    <path fill="#cc5e62" d="M255.8 306c.7-.4 1.5-.7 2.2-1.1-.7.4-1.5.7-2.2 1.1zm61.3-21.2h2.2c-.4 1.1-.8 2.1-1.2 3.2-.5-.5-1-.9-1.5-1.4.2-.6.3-1.2.5-1.8zm-11.6 30.7c-1.1-.3-2.3-.5-3.4-.8.1-.2.3-.3.4-.5 1 .4 2 .9 3 1.3zm-.1 0c.2.1.5.3.2.1.1.3 0 .1-.2-.1z"/>
</svg>
