<svg xmlns="http://www.w3.org/2000/svg" viewBox="0 0 612 612">
    <path class="color-red color-main" fill="#8d191c" d="M578.7 305.5c.3 151.5-123.3 277-279 275.2C151.8 579 26.6 457.9 28.3 301.8 29.9 153.6 151.4 28 308 30.4c148 2.1 270.5 122 270.7 275.1zM310.2 565.3c137.4-3.5 248.8-114.8 252.3-251.5 2.1-84.1-29.6-154.1-93.6-208.1-49.3-41.6-107.4-61.6-172.2-59.8-70.5 1.9-131.3 28-180 78.6-57.3 59.6-81.4 131.9-71.3 214C53.4 403.9 82.9 459 133 502c50.6 43.7 110 64.8 177.2 63.3z"/>
    <path fill="#fff" d="M310.2 565.3c-67.2 1.5-126.6-19.6-177.4-63.2-50.1-43-79.6-98.2-87.6-163.5-10-82.2 14-154.4 71.3-214C165.2 74 226.1 47.9 296.5 46c64.8-1.8 123 18.2 172.2 59.8 64 54 95.7 124.1 93.6 208.1-3.3 136.5-114.7 247.9-252.1 251.4zm244.2-289.5c-4.8-58.2-33.8-117-87.6-163-53.9-46.1-116.9-65.6-187.1-59.4-64.6 5.7-119.2 33.2-163.2 81C72.4 182.3 50.1 239.5 50 304.2c-.1 72.8 27 135.3 80.2 185.3 47.1 44.3 103.7 67.1 168.5 68 74.4 1.1 137.7-25.7 188.6-79.7 50-53.1 71.8-117 67.1-202z"/>
    <path class="color-red color-main" fill="#8d191c" d="M554.4 275.8c4.7 85-17 148.9-67 202-50.9 54-114.2 80.8-188.6 79.7-64.8-.9-121.4-23.7-168.5-68C77 439.5 49.9 377.1 50 304.2c.1-64.7 22.4-121.9 66.5-169.9 44-47.8 98.6-75.4 163.2-81 70.2-6.2 133.2 13.3 187.1 59.4 53.8 46.1 82.7 104.9 87.6 163.1zM324.8 518c99.6-8.1 192-92.4 193.9-209.1 2-123.5-96.1-218.2-213.3-218.6-119.6-.4-214.5 95-215 213.5-.3 60.8 21.7 113.4 65.7 155.4 47 44.9 103.8 64.1 168.7 58.8zm-164.2-46.9c-.9-1-2.1-3.7-3.7-3.9-1.5-.2-3.6 2-5 3.5-4.3 4.7-8.5 9.5-12.6 14.4-.7.9-1.3 3.2-.9 3.6 1.7 1.6 3.9 3.4 5.9 3.6 1.2.1 2.4-3.1 3.8-4.7.9-1 2.1-1.7 3.1-2.5.4 1.6 1.3 3.2 1 4.7-1.6 7.2 0 9.7 5.8 8.7 1.7-.3 3.4-1.1 5.2-1.5.7-.2 1.9-.1 2.3.3.4.5.5 1.8.2 2.4-.9 1.5-2.2 2.6-3.1 4.1-.6 1-1.4 2.9-.9 3.4 1.3 1.5 3.1 2.8 4.9 3.7.4.2 2-.9 2.6-1.7 4.1-6.2 8.2-12.4 12.1-18.7.7-1.1 1.3-3.4.9-3.7-1.8-1.2-4.1-2.9-5.8-2.6-4.4.9-8.5 3.1-12.9 4.3-1.1.3-3.8-1.4-3.8-2.2.1-4.6.6-9.3.9-15.2zM422.4 94.3c-.8-2.9-.8-6.3-2.5-8.4-3.2-4-6.3-3.5-8.1-.1-3.4 6.3-7 12.5-10.3 18.9-.5.9.2 3.4 1.1 3.8 1.4.7 4.3 1.1 5 .3 1.7-2.1 2.5-4.9 3.8-7.4.3-.7 1.2-1.7 1.6-1.6.8.2 2 1 2 1.5.2 3.5.1 7.1.3 10.7.1.8 1.4 2.3 1.7 2.2 3.2-1.1 6.3-2.6 9.5-3.7.6-.2 1.5.8 2.3 1.2-1.3 2.1-2.6 4.2-3.8 6.3-.5.8-1.1 2.4-.7 2.7 1.4 1.4 3.2 2.4 4.9 3.5.3.2 1.3-.4 1.6-.9 3.9-6.2 7.8-12.4 11.5-18.7.8-1.3 1.3-4.4.8-4.7-2.4-1.2-5-2.3-7.6-2.3-2 0-4 1.6-6.1 2.3-7.7 2.6-7.7 2.5-7-5.6zm-60.8 436.3c-.2.3-.9 1.4-1.5 2.5-.9-.8-2-1.4-2.7-2.4-1.9-2.8-3.5-5.7-5.4-8.5-.4-.6-1.4-.7-2.1-1.1-.3.7-.7 1.3-.8 2-.1 2.7.1 5.5-.1 8.2-.1 1.1-1 2.1-1.6 3.2-.7-.8-1.7-1.6-2.2-2.5-.9-2.2-1.4-4.5-2.4-6.6-1.1-2.3-1.8-5.2-5.5-4.9-5.4.4-5.9 1.1-4.1 5.5 2.5 6 4.6 12.1 7.1 18.1.7 1.7 1.8 3.9 3.3 4.5 4.3 1.9 8.9-2.1 9.2-7.3.1-1.5.9-3 1.3-4.5 1.1 1.1 2.2 2.1 3.3 3.3.4.4.7.8.9 1.3 1.6 3.8 4.4 4.3 8 3.3 3.3-1 3.5-3.4 3.4-6.2-.1-6.7-.1-13.5-.2-20.2 0-1.3-.1-3.5-.5-3.6-1.6-.4-3.5-.4-5.1.2-1 .4-2.2 1.9-2.3 3-.2 3.9 0 7.8 0 12.7zm-123.5-11.3c-2.2-2.9-3.4-5.8-5.6-7-6.2-3.4-12.8-6.2-19.4-9-.6-.3-2.3.8-2.7 1.6-3.1 7.3-5.6 14.9-8.9 22.1-2.4 5.2 2.4 4.5 4.3 5.8 2.2 1.6 3.1-.5 4-2.4.8-1.6 2.2-3 3.3-4.5 2.2 1.8 4.8 3.3 6.5 5.4 1.4 1.7 1.3 4.9 2.9 6.3 1.8 1.7 4.7 2.3 7.1 3.3-.2-1.7-.1-3.6-.8-5.1-1.9-4.1-2.6-7.2 2.9-9.3 2.5-1 4-4.4 6.4-7.2zM120.2 140.8c-.6.5-1.9 1.1-2.7 2.1-.3.4.4 1.9 1.1 2.5 5.1 5 10.3 10 15.5 14.9 1.1 1 2.9 2.6 3.6 2.2 1.3-.6 2.5-2.3 2.8-3.7.2-.9-1.3-2.2-2.3-3.2-.8-.9-2-1.5-2.8-2.4-.5-.5-.8-1.5-.6-2.1.1-.4 1.2-.8 1.8-.8 1.6.1 3.1.7 4.6.7 2.4 0 6.2 2.4 6.3-2.6.1-2.6-.9-5.2-1.1-7.9-.1-1 .5-2.2 1.2-2.9.3-.3 1.9.3 2.6.9 1.2 1.1 1.8 2.8 3.1 3.7.9.7 2.9 1 3.6.5 1.5-1.1 3.7-2.6 1.3-5-5.1-5.2-10.1-10.6-15.3-15.7-.9-.9-3-2.1-3.3-1.9-1.3 1.3-3.2 3.2-2.9 4.5.9 5.4 2.6 10.7 3.9 16 .2.9.3 2.3-.2 2.8-.7.6-2 .8-3 .6-5.4-1-10.9-2.1-17.2-3.2zm149.6 409.1c.2-.6 1.3-1.7 1.1-2.7-1.1-7.2-2.4-14.3-3.6-21.4-.4-2.7-.3-5.6-3.8-6.3-1.7-.4-3.3-.7-5-1.2-3.1-.8-5.4-1-7.1 2.7-3 6.6-6.6 12.9-9.9 19.4-.6 1.1-.4 2.7-.5 4 2.3 0 5.8 1 6.6 0 2.3-3.2 4.7-3.6 7.9-2.4 2 .8 5.4 1.4 5.7 2.7 1.1 4.1 3.5 5.4 8.6 5.2zm31.5-493.6c-.3.1-.9 0-1.4.2-4.3 1.6-1 4.9-1.5 7.4-.4 1.9-.1 3.9-.1 5.9-1.8-1-3.6-1.8-5.3-3-3.8-2.9-7.4-6-11.3-8.8-.8-.6-2.6-.5-3.6 0-.6.3-1 1.8-1 2.7.8 7.8 1.7 15.6 2.6 23.3.1.6 1.1 1.6 1.8 1.7 5 .3 6.2-2 4.8-8.1-.3-1.2.2-2.6.4-3.9 1 .4 2.3.5 3 1.1 3.1 2.6 5.9 5.5 9.1 8 1.3 1.1 3.2 1.5 4.8 2.3.4-1.6 1.1-3.1 1.1-4.7 0-6.4-.4-12.9-.1-19.3.3-2.9.2-4.7-3.3-4.8zm202.4 392.1c-.2-7.8-5.6-15.6-15.4-15.5-7.4.1-16.2 9.1-15.7 17.2.5 7.3 4.1 15.4 15.9 14.8 6.5-.4 15.2-9.4 15.2-16.5zm-280-348.6c4.3 0 7.3-3.9 8.1-8.3.3-1.5 1.5-2.8 2.3-4.1 1.1.6 2.3 1.2 3.3 1.9 3.3 2.3 6.5 4.9 10.9 3.1.7-.3 1.7-.9 1.7-1.3 0-.7-.6-1.5-1.2-2-3.5-2.8-7.5-5.3-10.5-8.5-1.2-1.3-1.1-4.4-.8-6.6s1.7-4.3 2.3-6.5c.2-.6-.7-1.5-1.1-2.3-2.3 1.4-5.7 2.3-6.8 4.4-2.3 4.2-3.2 9-4.9 13.5-.2.7-1.2 1.1-1.9 1.6-.4-.7-1-1.3-1.3-2-1.3-3.4-2.4-6.8-3.9-10.1-.3-.6-2.6-.7-3.6-.2-1.1.5-2.6 2.2-2.4 2.9 2.3 6.5 4.8 13 7.3 19.4.8 1.9 1.8 3.7 2.5 5.1zm222.1 34.9c.3-.5.5-.9.8-1.4l7.2 6.6c.1.1.1.4 0 .6-2.1 3.4.4 5.3 2.5 7 .6.5 3.1 0 3.5-.7 3.2-5.9 6.3-11.8 9-17.9 1-2.3 1.4-5.3 1-7.7-.2-1.5-2.5-2.8-4.1-3.8-1.9-1.1-5-3.1-6.1-2.4-6.9 4.2-13.2 9.2-19.9 13.6-3 1.9-1.7 3.3.1 4.3 1.7 1 3.9 1.2 6 1.8zM379.7 526h.3c0 1.7.1 3.5 0 5.2-.1 1.8-.5 3.5-.5 5.3.1 2.4 1 3.8 4 3 3.3-.9 3.8-3.7 5.3-6.1 2.3-3.7 9.1-4.3 13.1-2.8 1.9.7 4.6-.9 7-1.5-.5-1.3-.7-3-1.6-4-5.3-5.6-10.7-11.1-16.2-16.5-1-1-3-1.7-4.4-1.6-1.9.2-3.8 1.3-5.6 2.2-.6.3-1.4 1.3-1.4 1.9-.1 5 0 9.9 0 14.9zm-256.3-94.3c-2.5-5.5-5-10.9-7.6-16.3-.2-.4-1.8-.7-2.3-.4-6.9 3.8-13.8 7.7-20.7 11.7-.8.5-1.8 2.3-1.5 2.7 3.3 4.7 6.3 9.8 10.4 13.8 3.6 3.6 8.8 3.1 13.1 1.2 4.9-2.2 7.5-6.6 8.6-12.7zM155 107.2c.3 1.1.4 1.5.6 2 2.7 7.4 5.3 14.8 8.1 22.2.4 1 1.4 2.8 1.7 2.7 1.3-.4 3-1 3.5-2.1.7-1.4.1-3.4.6-5 1.1-3.7 8.3-6.4 11.9-5.5 1.5.4 3.6-1.5 5.4-2.3-.5-1-.8-2.3-1.6-2.9-5.6-4.5-11.3-9-17.1-13.3-1.6-1.2-3.7-2.5-5.4-2.3s-3.3 2.1-4.8 3.4c-1.1.9-2.1 2.2-2.9 3.1zm185.3-33.9c.2 0 .3-.1.5-.1-.3-1.4-.5-2.8-.8-4.2-1.2-4.8.7-11.9-8.2-10.9-.3 0-.6 0-.8-.1-4-1.8-5.2.7-6.4 3.8-2.5 6.3-5.2 12.5-7.8 18.8-.5 1.3-.7 2.7-1 4 1.8.1 3.9.9 5.2.2 1.7-.8 2.5-3.4 4.1-4.2 3.2-1.7 8.2.8 9.8 4.1.5 1.1 1.7 2.1 2.8 2.5 1.3.4 3 .4 4.3-.1.4-.2.5-2.2.3-3.3-.6-3.5-1.4-7-2-10.5zm85.8 425.3c-.2-2.5-.2-5-.7-7.4-.3-1.2-2.1-3.2-2.3-3.1-2.1 1.2-4.8 2.3-5.6 4.2-1 2.1-.1 5-.2 7.6-.1 1.1-.5 3-1.1 3.1-1.1.3-2.5-.2-3.7-.8-2-1-3.9-3.1-6-3.3-1.8-.2-3.9 1.4-5.9 2.1 1 1.1 1.8 2.5 2.9 3.2 6.7 4.4 13.7 8.1 17.9 15.5 2.5 4.3 5.1-.8 7.7-1.4.7-.2 1-1.7 1.5-2.7.1-.1-.1-.5-.3-.6-4.9-4.5-3.8-10.7-4.2-16.4zM183.9 95.7c1.4 2.8 2.4 5.8 4.1 8.4 2.8 4.4 9.8 8.8 15.7 5.5 3.4-2 6.5-4.7 9.5-7.4.6-.6.4-3.1-.3-3.7-3.4-3.1-5 .7-6.8 2.4-4.7 4.3-11.4 3.9-13.2-1-2.4-6.8 1.6-12.6 9.1-13.6 1.6-.2 3.1-2.1 4.6-3.2-1-1.3-1.7-3.1-2.9-3.8-1-.5-2.8.6-4.2.7-6.3.1-15.9 7.6-15.6 15.7zm292.3 63.2c0-7.6 4.7-12.3 8.9-10.2 3.1 1.6 4.9 5.8 7.5 8.6 1.1 1.2 2.9 1.9 4.4 2.8.4-1.6 1.2-3.3 1.2-4.9 0-1.2-1.1-2.3-1.6-3.6-1.8-4.7-5.1-8.3-9.5-10.3-5-2.3-9.5-.1-13.6 3-4.9 3.8-4.4 9.1-3.8 14.1.8 5.6 4.5 9.6 9.3 12.6 1 .6 2.6 1.3 3.6 1 .9-.3 1.9-1.9 1.9-3 0-.9-1.1-2.2-2-2.8-3.4-2.2-6.2-4.8-6.3-7.3zM314.1 535.2c-.2-2.8-.3-5.8-.8-8.8-.7-4.5-4.3-3.3-7-3-.9.1-2.2 2.2-2.2 3.4-.3 7.6-.4 15.2-.3 22.8 0 .8 1.2 2.4 1.8 2.4 5.7.1 11.5.1 17.2-.2 1.4-.1 3.4-1 3.8-2.1.6-1.4.5-4.4-.3-4.8-1.6-.9-3.9-.7-6-.7-2.8 0-6.1 1.1-6.6-3.2-.1-1.9.3-3.8.4-5.8zm-194.9-82.6c-1.5 1.3-4.5 2.7-5.1 4.7-.7 2.4-.2 5.9 1.2 8 2.3 3.4 5.7 6 8.9 8.8.7.6 2.3.4 3.4.1 1.3-.4 2.5-1.3 3.8-2 .4-.2 1.1-.4 1.3-.7.1-.3-.1-1.1-.4-1.4-.8-.8-2.1-1.2-2.5-2.1-.6-1.4-1-3.2-.7-4.6.2-.7 2.3-1.6 3.2-1.4 3.8.9 6.7-.4 9-3.2 2.1-2.5 2.4-5.3.1-7.5-1.9-1.8-4.4-3.6-6.8-4-2.9-.5-5.5 1.3-6.3 4.6-.7 3-2.5 3.5-5.1 1.9-.8-.5-1.8-.6-4-1.2zm357.6 21.7c-.8-.6-2.2-2.1-3.6-2.2-.8-.1-2.5 2.1-2.7 3.3-.4 3.7-4.6 8.4-8.2 8.4-3.5 0-8.5-4.8-8.3-8.4.3-4.7 3.8-6.8 7.4-8.9 1.1-.7 1.6-2.3 2.4-3.6-1.2-.7-2.5-2.2-3.5-2-8.7 1.8-13.9 9.7-12.9 18.3.7 5.6 11.7 11.8 15.7 11.5 6.4-.4 13.7-8.9 13.7-16.4zM350.4 79.8c1 1.8 2.3 5 4.4 7.4 3.7 4.3 8.9 5.4 14.4 5.7 3.4.2 4.6-1.3 3.3-3.8-.8-1.5-3.6-2.3-5.6-2.6-4.5-.7-9.6-5.6-8.9-8.9 1.7-7.2 9.3-9.6 15.4-5.1.8.6 3.1-.3 4.5-.9.5-.3.7-2.6.6-2.7-5-1.9-10.1-5-15.3-5.2-7.6-.5-12.4 8.7-12.8 16.1zm-62.9 472.3l1.2.6c.8-1.3 1.9-2.6 2.2-4 .6-3.2.9-6.4 1.1-9.6.3-4.7.8-9.4.4-14-.1-1-3.6-1.9-5.6-2.4-1.1-.3-2.4.5-3.6.8-.1 0-.1.6-.1 1-.7 7.1-1.4 14.2-2 21.2-.2 2.2-1.7 5.2 2.1 6 1.3.3 2.8.3 4.3.4zM266.8 86.9c-.7-4.9-1-8.3-1.7-11.7-.7-3.4-2.2-6.8-2.3-10.2-.2-6-3.7-4.7-7-3.6-.9.3-1.9 2.4-1.6 3.5 1.3 6.6 2.7 13.2 4.4 19.7.4 1.6 1.7 4.1 2.5 4.1 2.1 0 4.1-1.2 5.7-1.8z"/>
    <path fill="#fff" d="M324.8 518c-64.9 5.3-121.7-13.9-168.7-58.7-44-42-65.9-94.6-65.7-155.4.5-118.5 95.4-213.9 215-213.5 117.2.4 215.3 95 213.3 218.6-1.9 116.6-94.3 200.9-193.9 209zm186.6-196.6c-.3-74.2-20.3-123-59.9-163.2-39.7-40.3-88.4-61.6-145-62-116.7-.9-211.7 92-209.9 212.7.8 55.7 21.9 103.8 61.2 142.7 43.7 43.1 97.4 63.5 158.8 59.8 58.1-3.5 106.9-27.9 144.8-72.2 33.1-38.8 50.3-83.8 50-117.8zM160.6 471.1c-.4 5.9-.9 10.6-.8 15.3 0 .8 2.7 2.4 3.8 2.2 4.4-1.2 8.5-3.4 12.9-4.3 1.7-.4 4.1 1.3 5.8 2.6.4.3-.3 2.6-.9 3.7-4 6.3-8 12.5-12.1 18.7-.6.8-2.1 2-2.6 1.7-1.8-1-3.6-2.2-4.9-3.7-.4-.5.3-2.4.9-3.4.9-1.5 2.2-2.6 3.1-4.1.3-.6.3-1.9-.2-2.4-.4-.4-1.6-.5-2.3-.3-1.7.4-3.4 1.1-5.2 1.5-5.9 1-7.4-1.5-5.8-8.7.3-1.4-.7-3.1-1-4.7-1 .8-2.2 1.5-3.1 2.5-1.4 1.6-2.7 4.8-3.8 4.7-2.1-.1-4.2-2-5.9-3.6-.5-.4.1-2.7.9-3.6 4.1-4.9 8.3-9.7 12.6-14.4 1.4-1.5 3.5-3.7 5-3.5 1.5.1 2.8 2.8 3.6 3.8z"/>
    <path fill="#fff" d="M422.4 94.3c-.7 8.1-.7 8.2 6.8 5.7 2.1-.7 4.1-2.3 6.1-2.3 2.6 0 5.2 1.1 7.6 2.3.4.2 0 3.3-.8 4.7-3.7 6.3-7.6 12.5-11.5 18.7-.3.5-1.3 1.1-1.6.9-1.7-1-3.4-2.1-4.9-3.5-.3-.3.3-1.8.7-2.7 1.2-2.2 2.5-4.2 3.8-6.3-.8-.4-1.8-1.4-2.3-1.2-3.2 1.1-6.3 2.6-9.5 3.7-.3.1-1.6-1.4-1.7-2.2-.2-3.5-.1-7.1-.3-10.7 0-.6-1.3-1.4-2-1.5-.4-.1-1.2.9-1.6 1.6-1.3 2.5-2 5.3-3.8 7.4-.7.8-3.5.4-5-.3-.8-.4-1.5-2.9-1.1-3.8 3.3-6.4 6.9-12.6 10.3-18.9 1.9-3.5 4.9-3.9 8.1.1 1.9 2 1.9 5.4 2.7 8.3zm-60.8 436.3c0-5-.2-8.9.1-12.8.1-1.1 1.3-2.6 2.3-3 1.5-.6 3.4-.5 5.1-.2.4.1.5 2.4.5 3.6.1 6.7.1 13.5.2 20.2.1 2.8-.1 5.2-3.4 6.2-3.6 1.1-6.4.5-8-3.3-.2-.5-.5-.9-.9-1.3l-3.3-3.3c-.5 1.5-1.2 3-1.3 4.5-.3 5.2-4.9 9.3-9.2 7.3-1.5-.7-2.6-2.8-3.3-4.5-2.5-6-4.6-12.1-7.1-18.1-1.8-4.4-1.3-5.1 4.1-5.5 3.7-.3 4.4 2.6 5.5 4.9 1 2.1 1.5 4.5 2.4 6.6.4 1 1.4 1.7 2.2 2.5.5-1.1 1.5-2.1 1.6-3.2.2-2.7 0-5.4.1-8.2 0-.7.5-1.4.8-2 .7.3 1.7.5 2.1 1.1 1.9 2.8 3.5 5.7 5.4 8.5.6 1 1.8 1.6 2.7 2.4.5-1 1.2-2.1 1.4-2.4zm-123.5-11.3c-2.5 2.9-3.9 6.2-6.4 7.2-5.6 2.2-4.8 5.2-2.9 9.3.7 1.5.5 3.4.8 5.1-2.4-1.1-5.3-1.6-7.1-3.3-1.6-1.5-1.5-4.6-2.9-6.3-1.8-2.2-4.3-3.7-6.5-5.4-1.1 1.5-2.5 2.9-3.3 4.5-.9 1.9-1.8 4-4 2.4-1.9-1.3-6.7-.6-4.3-5.8 3.3-7.2 5.9-14.8 8.9-22.1.3-.8 2.1-1.8 2.7-1.6 6.5 2.8 13.1 5.6 19.4 9 2.2 1.1 3.4 4.1 5.6 7zm-20.2 2.3c4.5-.6 9-1.1 8.1-4.9-.6-2.4-5.3-3.9-8.1-5.8-1.3 2.4-3.2 4.7-3.7 7.3-.2 1 2.8 2.6 3.7 3.4zm-97.7-380.8c6.3 1.2 11.8 2.3 17.3 3.2 1 .2 2.3 0 3-.6.5-.5.4-1.9.2-2.8-1.3-5.3-3-10.6-3.9-16-.2-1.3 1.7-3.2 2.9-4.5.2-.2 2.4 1 3.3 1.9 5.1 5.2 10.1 10.5 15.3 15.7 2.4 2.5.2 3.9-1.3 5-.8.5-2.7.2-3.6-.5-1.3-.9-1.9-2.6-3.1-3.7-.6-.6-2.3-1.2-2.6-.9-.7.7-1.2 2-1.2 2.9.2 2.6 1.1 5.3 1.1 7.9-.1 5-3.9 2.6-6.3 2.6-1.5 0-3.1-.6-4.6-.7-.6 0-1.7.4-1.8.8-.2.6.1 1.6.6 2.1.8.9 2 1.5 2.8 2.4.9 1 2.4 2.3 2.3 3.2-.3 1.4-1.5 3.2-2.8 3.7-.8.3-2.6-1.2-3.6-2.2-5.2-4.9-10.4-9.9-15.5-14.9-.6-.6-1.3-2.2-1.1-2.5.7-1 2-1.7 2.6-2.1zm149.6 409.1c-5.1.2-7.5-1.1-8.6-5.3-.3-1.3-3.7-1.9-5.7-2.7-3.2-1.2-5.6-.8-7.9 2.4-.7 1-4.3.1-6.6 0 .1-1.3-.1-2.9.5-4 3.2-6.5 6.9-12.8 9.9-19.4 1.7-3.8 4.1-3.6 7.1-2.7 1.6.4 3.3.8 5 1.2 3.5.8 3.4 3.7 3.8 6.3 1.1 7.2 2.5 14.3 3.6 21.4.2 1.1-.9 2.3-1.1 2.8zM258 538.3c1.3-2.1 2.7-3.3 2.5-4.3-.5-2.2-1.7-4.3-2.6-6.4-1.3 2.1-3 4.2-3.7 6.5-.3.7 1.9 2.2 3.8 4.2zm43.3-482c3.5.1 3.5 2 3.4 4.8-.2 6.4.2 12.9.1 19.3 0 1.6-.7 3.1-1.1 4.7-1.6-.7-3.4-1.2-4.8-2.3-3.1-2.5-6-5.4-9.1-8-.8-.7-2-.8-3-1.1-.2 1.3-.7 2.7-.4 3.9 1.4 6.1.2 8.4-4.8 8.1-.7 0-1.7-1-1.8-1.7-1-7.8-1.9-15.5-2.6-23.3-.1-.9.3-2.5 1-2.7 1-.4 2.8-.6 3.6 0 3.9 2.8 7.5 5.9 11.3 8.8 1.6 1.2 3.5 2 5.3 3 0-2-.3-4 .1-5.9.5-2.5-2.8-5.8 1.5-7.4.4-.2 1-.2 1.3-.2zm202.4 392.1c0 7-8.7 16.1-15.2 16.4-11.9.6-15.4-7.4-15.9-14.8-.6-8.1 8.3-17 15.7-17.2 9.7 0 15.1 7.9 15.4 15.6zm-7.3 1.3c0-5-3.9-9.7-8-9.7-4.6 0-9 4.2-9.3 8.3-.5 6.9 4.9 9.8 9.6 10.3 3.1.4 7.7-5.1 7.7-8.9zM223.7 99.8c-.6-1.4-1.6-3.2-2.4-5.1-2.5-6.4-5.1-12.9-7.3-19.4-.2-.7 1.3-2.4 2.4-2.9 1-.5 3.4-.4 3.6.2 1.5 3.3 2.6 6.7 3.9 10.1.3.7.9 1.3 1.3 2 .6-.5 1.6-.9 1.9-1.6 1.6-4.5 2.6-9.3 4.9-13.5 1.1-2.1 4.5-3 6.8-4.4.4.8 1.2 1.7 1.1 2.3-.6 2.2-2 4.3-2.3 6.5s-.5 5.3.8 6.6c3.1 3.3 7 5.7 10.5 8.5.6.5 1.2 1.3 1.2 2 0 .5-1 1.1-1.7 1.3-4.4 1.8-7.6-.8-10.9-3.1-1-.7-2.2-1.3-3.3-1.9-.8 1.4-2 2.7-2.3 4.1-1 4.4-4 8.3-8.2 8.3zm222.1 34.9c-2-.6-4.3-.8-6.1-1.8-1.8-1-3.1-2.4-.1-4.3 6.7-4.4 13.1-9.4 19.9-13.6 1.1-.7 4.2 1.3 6.1 2.4 1.6.9 3.9 2.3 4.1 3.8.4 2.5 0 5.4-1 7.7-2.7 6.1-5.8 12-9 17.9-.4.7-2.8 1.2-3.5.7-2.1-1.7-4.7-3.6-2.5-7 .1-.1.1-.5 0-.6l-7.2-6.6c-.2.5-.5.9-.7 1.4zm9.2.4c1.1-.8 2-1.2 2.4-1.8.8-1.2 1.5-2.6 2-4s.6-2.9.9-4.4c-1.3.4-2.6.8-3.8 1.2-.5.2-1.1.5-1.4.9-1.2 1.4-3.1 2.7-3.3 4.2-.2 1.1 2 2.5 3.2 3.9zM379.7 526c0-4.9-.1-9.9.1-14.8 0-.7.7-1.6 1.4-1.9 1.8-.9 3.6-2 5.6-2.2 1.4-.2 3.3.6 4.4 1.6 5.5 5.4 10.9 10.9 16.2 16.5.9 1 1.1 2.6 1.6 4-2.4.6-5.1 2.2-7 1.5-4-1.5-10.7-.9-13.1 2.8-1.5 2.4-2 5.2-5.3 6.1-3 .8-3.9-.5-4-3-.1-1.7.4-3.5.5-5.3.1-1.7 0-3.5 0-5.2-.3-.1-.3-.1-.4-.1zm15.1-2.6c-1.9-2.4-2.9-3.9-4.2-5.2-.8-.8-2-1.2-3.1-1.8-.3 1.3-.6 2.6-.7 3.8-.1.6 0 1.4.3 2 .7 1.4 1.6 3.7 2.4 3.7 1.5 0 3.1-1.4 5.3-2.5zm-271.4-91.7c-1.1 6.1-3.6 10.5-8.7 12.7-4.3 1.9-9.5 2.4-13.1-1.2-4-4.1-7.1-9.1-10.4-13.8-.3-.4.7-2.2 1.5-2.7 6.8-4 13.7-7.9 20.7-11.7.6-.3 2.1 0 2.3.4 2.7 5.4 5.2 10.8 7.7 16.3zm-17.3 7.3c5.7-.3 9.2-1.9 9.8-5.9.4-2.3-.9-5.1-2-7.4-.3-.7-2.6-1.1-3.7-.7-2.2.9-4.3 2.2-6.2 3.7-1.6 1.3-6.2 1-4 4.7 1.6 2.6 4.7 4.3 6.1 5.6zM155 107.2c.8-.9 1.8-2.2 2.9-3.2 1.5-1.3 3.1-3.2 4.8-3.4 1.7-.2 3.8 1.1 5.4 2.3 5.8 4.3 11.5 8.8 17.1 13.3.8.6 1.1 1.9 1.6 2.9-1.8.8-3.9 2.7-5.4 2.3-3.6-.9-10.9 1.8-11.9 5.5-.5 1.6.1 3.6-.6 5-.5 1.1-2.2 1.7-3.5 2.1-.3.1-1.3-1.7-1.7-2.7l-8.1-22.2c-.2-.3-.3-.8-.6-1.9zm8.9 4.3c1 3.1 1.8 6 3.1 8.6.2.5 3.3-.1 4.7-.9.8-.5 1.6-3 1.1-3.6-1.6-1.9-3.7-3.5-5.7-5-.6-.4-1.6-.4-2.3-.3-.5.1-.7.9-.9 1.2zm176.4-38.2c.7 3.5 1.4 7 2 10.6.2 1.1.1 3.2-.3 3.3-1.3.4-3 .5-4.3.1-1.1-.3-2.3-1.4-2.8-2.5-1.6-3.3-6.6-5.8-9.8-4.1-1.7.9-2.5 3.4-4.1 4.2-1.4.7-3.5-.1-5.2-.2.3-1.3.5-2.8 1-4 2.6-6.3 5.3-12.5 7.8-18.8 1.2-3.1 2.4-5.6 6.4-3.8.2.1.6.1.8.1 8.9-1 7 6.1 8.2 10.9.3 1.4.5 2.8.8 4.2-.2-.1-.4 0-.5 0zM329.1 76c4.3.3 4.8-1.2 4.2-3.9-.3-1.3-.2-2.7-.4-4-.1-.9-.5-1.7-.8-2.6-1.1.6-2.5 1-3.2 1.9-.8 1-1 2.5-1.3 3.8-.3 1.2-1 2.6-.6 3.5.5 1 2 1.3 2.1 1.3zm97 422.6c.5 5.7-.7 11.9 4.3 16.3.2.1.3.5.3.6-.4.9-.8 2.5-1.5 2.7-2.6.6-5.2 5.7-7.7 1.4-4.3-7.4-11.3-11.1-17.9-15.5-1.2-.8-2-2.1-2.9-3.2 2-.8 4-2.4 5.9-2.1 2.1.3 3.9 2.3 6 3.3 1.1.6 2.6 1.1 3.7.8.6-.2 1-2 1.1-3.1.1-2.6-.7-5.5.2-7.6.9-1.9 3.6-3 5.6-4.2.1-.1 2 1.9 2.3 3.1.4 2.5.4 5 .6 7.5zM183.9 95.7c-.3-8.2 9.3-15.6 15.6-15.8 1.4-.1 3.2-1.2 4.2-.7 1.3.6 2 2.5 2.9 3.8-1.5 1.1-3 3-4.6 3.2-7.5 1-11.5 6.8-9.1 13.6 1.8 5 8.4 5.4 13.2 1 1.9-1.7 3.4-5.5 6.8-2.4.7.6.9 3.2.3 3.7-3 2.7-6 5.4-9.5 7.4-5.9 3.4-12.9-1.1-15.7-5.5-1.7-2.5-2.8-5.5-4.1-8.3zm292.3 63.2c.1 2.4 2.8 5 6.3 7.2.9.6 2 1.8 2 2.8 0 1.1-1 2.7-1.9 3-1 .3-2.5-.3-3.6-1-4.8-2.9-8.5-7-9.3-12.6-.7-5-1.2-10.3 3.8-14.1 4.1-3.1 8.6-5.3 13.6-3 4.5 2 7.7 5.6 9.5 10.3.5 1.2 1.6 2.4 1.6 3.6 0 1.7-.8 3.3-1.2 4.9-1.5-.9-3.3-1.5-4.4-2.8-2.6-2.8-4.4-7-7.5-8.6-4.1-2-8.9 2.8-8.9 10.3zM314.1 535.2c-.2 2.1-.6 3.9-.4 5.7.5 4.4 3.8 3.2 6.6 3.2 2 0 4.4-.2 6 .7.8.5.9 3.4.3 4.8-.4 1.1-2.5 2-3.8 2.1-5.7.3-11.4.3-17.2.2-.6 0-1.8-1.6-1.8-2.4 0-7.6 0-15.2.3-22.8 0-1.2 1.4-3.3 2.2-3.4 2.7-.3 6.3-1.5 7 3 .5 3.1.6 6.1.8 8.9zm-194.9-82.6c2.2.6 3.2.7 4 1.2 2.6 1.6 4.3 1 5.1-1.9.8-3.4 3.4-5.1 6.3-4.6 2.4.4 4.9 2.2 6.8 4 2.3 2.2 1.9 5.1-.1 7.5-2.4 2.8-5.2 4.1-9 3.2-1-.2-3.1.7-3.2 1.4-.3 1.4.1 3.2.7 4.6.4.9 1.7 1.3 2.5 2.1.3.3.6 1 .4 1.4-.1.4-.8.5-1.3.7-1.3.7-2.4 1.6-3.8 2-1.1.3-2.7.5-3.4-.1-3.2-2.7-6.6-5.4-8.9-8.8-1.4-2-1.9-5.6-1.2-8 .6-2 3.6-3.4 5.1-4.7zm15 6.7c1.9-2.1 3.7-3.2 3.9-4.6.1-.9-2-2.2-3.2-3.3-1.1 1.4-2.4 2.6-3.1 4.2-.3.5 1.1 1.8 2.4 3.7zm-8.1 2.2c-2-1.2-3.1-2.5-4.1-2.4-1.1.2-2.1 1.5-3.2 2.3 1.1 1.4 2.3 2.8 3.4 4.2 1-1 2-2.1 3.9-4.1zm350.7 12.8c0 7.5-7.3 16-13.6 16.4-4 .3-15-5.9-15.7-11.5-1.1-8.6 4.1-16.4 12.9-18.3 1-.2 2.3 1.3 3.5 2-.8 1.2-1.3 2.9-2.4 3.6-3.6 2.1-7.2 4.3-7.4 8.9-.2 3.6 4.7 8.4 8.3 8.4 3.6 0 7.8-4.7 8.2-8.4.1-1.3 1.8-3.4 2.7-3.3 1.4.1 2.7 1.6 3.5 2.2zM350.4 79.8c.4-7.4 5.2-16.5 12.8-16.2 5.2.3 10.2 3.3 15.3 5.2.2.1-.1 2.4-.6 2.7-1.4.7-3.6 1.6-4.5.9-6.1-4.5-13.7-2.1-15.4 5.1-.8 3.4 4.3 8.2 8.9 8.9 2 .3 4.8 1.1 5.6 2.6 1.4 2.5.2 4-3.3 3.8-5.5-.3-10.7-1.3-14.4-5.7-2.1-2.4-3.4-5.6-4.4-7.3zm-62.9 472.3c-1.4-.1-2.9-.1-4.3-.4-3.8-.8-2.3-3.8-2.1-6 .6-7.1 1.3-14.2 2-21.2 0-.3 0-.9.1-1 1.2-.4 2.5-1.1 3.6-.8 2 .5 5.6 1.4 5.6 2.4.4 4.6-.1 9.3-.4 14-.2 3.2-.5 6.5-1.1 9.6-.3 1.4-1.4 2.7-2.2 4l-1.2-.6zM266.8 86.9c-1.6.6-3.7 1.9-5.7 1.9-.9 0-2.1-2.5-2.5-4.1-1.6-6.5-3.1-13.1-4.4-19.7-.2-1.1.8-3.2 1.6-3.5 3.3-1.1 6.8-2.5 7 3.6.1 3.4 1.7 6.8 2.3 10.2.7 3.3 1.1 6.7 1.7 11.6z"/>
    <path class="color-red color-main" fill="#8d191c" d="M511.4 321.4c.4 34-16.8 79-50 117.7-38 44.3-86.8 68.6-144.8 72.2-61.5 3.8-115.1-16.7-158.8-59.8-39.4-38.9-60.4-87-61.2-142.7-2-120.7 93.1-213.6 209.8-212.6 56.6.4 105.3 21.7 145 62 39.7 40.2 59.7 89 60 163.2zm-121.3 53.1c-.4-6.5-1.2-17.1-5.6-27.1-6.1-14-12.3-28-21.5-40.3-.5-.7-1.3-1.1-2-1.6-.5.8-1.1 1.6-1.4 2.5-.6 2.3-.8 4.8-1.6 7-.9 2.5-3.1 5.1-5.6 3.1-4.9-3.9-9.4-8.8-7.6-15.9.6-2.4 3.3-5.1 5.7-5.9 3-1 5.3-1.3 4-5.2-.1-.3.1-1 .4-1.1 4-1.7 1-3.6.2-5.4-.2-.4-.9-.6-1.4-.8-.3.6-1 1.4-.9 1.7 1.5 3-.5 4.4-2.5 5.8-5.1 3.6-10.4 6.9-15.3 10.8-1.8 1.4-6.3.9-5 5.1 1.9 6.2 4.4 12.2 6.3 18.4 4 12.6 7.3 25.3 7.6 38.7.3 13.4 0 26.8-3.2 39.9-3.2 13.4-7.1 26.5-14.7 38.2-.5.8-2.2 1-3.3 1.4 0-1.2-.2-2.5.1-3.6.2-.8 1.2-1.4 1.6-2.2 3.2-7.8 6.4-15.5 9.5-23.3 4.4-11.2 6.2-22.9 6.5-34.8.4-13.9.7-28-4-41.4-3.3-9.6-6.7-19.3-10.3-28.8-.5-1.2-2.7-2.3-4.2-2.4-1.6-.1-3.4.9-5.1 1.5-8.9 3.1-18.1 3.7-27.5 2.8-1-.1-3.2 1.3-3.2 1.7.6 3.1 1.9 6 2.4 9.1 2.3 12.2 5.3 24.4 6.5 36.7 1.6 16.6-1.6 33-4.9 49.1-2.3 11.1-6 21.9-9 32.8-.3 1 .7 3.2 1.3 3.3 3 .5 6 .7 9 .7 5.7 0 11.5-.5 17.1 0 1.6.1 3.1 2.9 4.3 4.7.3.4-.6 2.3-.7 2.3-1.6-.4-3.1-.9-4.7-1.4-2-.7-4-1.8-6.1-1.9-11.4-.6-22.7-1-34.1-1.5-.7 0-1.4.2-2.2.3.2.6.5 1.2.5 1.8.1.9 0 1.8-.1 2.7-.1 1.4-.6 2.9-.4 4.3.2 2.3.7 4.5 1.4 6.7.4 1.5.9 3.7 2 4.3 6.1 2.9 12.4 5.4 18.7 8.1 5.2 2.2 10.9 3.7 15.7 6.7 5.3 3.3 9.9 7.8 14.7 11.8 4.6 3.9 4.9 5.8.6 7.9-1.5.7-4.5-.5-6.2-1.7-5.2-3.5-9.6-8.3-15.1-11.1-7.9-4-16.4-6.9-24.9-9.6-8.2-2.7-15.7-7.3-24.9-6.8-7.1.4-14.2-.7-21.3-1-5.7-.2-11.5-.2-17.2 0-3.6.1-7.1.8-10.7 1.1-1.8.2-3.6.2-5.4.2l3.9 3.9.3.3c12.7 6.1 25 13 38.1 18 10.4 4 21.6 6.3 32.7 8.3 11.1 1.9 22.4 2.7 33.6 3.6 4.6.4 9.4.1 14-.6 12.7-1.7 25.6-2.9 38.1-5.9 11.5-2.8 22.5-7.6 33.6-11.5.8-.3 1.3-1.1 1.9-1.7-.7-.5-1.4-1.3-2.2-1.5-4.3-1.1-8.7-2.1-13-3.2-6.7-1.7-13.4-3.6-20.5-2.2-13.2 2.6-26.4 2.4-39.3-2.1-3.6-1.3-7.6-2.5-6.9-8 .4-3.6-.1-7.3-.2-10.9 0-1.3.1-2.7.4-4 0-.2 1.6-.1 2.5 0 4.9.8 9.9 3 14.6 2.3 10-1.4 20-3.6 29.7-6.6 13-4 25-10.3 35.5-19.1.5-.5 1.9-.6 2.4-.2.6.4.5 1.6.8 2.4.7 2 1 4.4 2.3 5.9 2.6 3 6.2 5.2 6 9.9 0 .6 1.2 1.7 1.9 1.9 10.2 1.9 20.5 3.6 30.8 5.3 1.2.2 2.9.2 3.7-.5 7.5-7.3 15.7-14.2 22-22.5 9.1-12 16.9-25 25.1-37.6 1.2-1.8 1.1-3.8-1.7-4.1-7.9-.7-15.9-1.1-23.8-1.8-1.2-.1-2.3-.8-3.3-1.5-.3-.2-.1-1.8.2-1.9 1.2-.5 2.5-.9 3.7-.8 9 .7 18 1.7 27.1 1.9 1.3 0 2.7-3.4 3.8-5.4.1-.1-1.8-1.6-2.9-2.1-.7-.3-1.8.1-2.7.1-10.1-.8-20.2-1.5-30.3-2.3-5.2-.4-10.5-.8-15.7-1.6-1-.1-1.7-1.8-2.6-2.8 1.1-.3 2.2-.8 3.3-.9 1.2-.1 2.4.2 3.6.3 5.6.3 11.2.6 16.7.9 10.5.6 20.9 1.6 31.4 1.7 1.3 0 2.7-3.8 3.8-5.9.1-.3-1.6-2-2.5-2.1-5.8-.6-11.7-.9-17.5-1.3-13.9-.8-27.9-1.5-41.8-2.4-1.1-.1-2.1-1.6-3.1-2.4 1.1-.5 2.1-1.6 3.2-1.5 3.6.2 7.2.8 10.8 1 16.6.9 33.2 1.8 49.8 2.5 1.4.1 3.7-1.4 4.1-2.6 2.1-6.8 4.4-13.7 5.5-20.7 1.5-9.6 2.9-19.3 2.9-28.9-.1-13.5-1.5-27-2.4-40.5-.2-3.1-1.7-4.4-5-4.3-5.1 0-10.3-.3-15.4-.9-1.5-.2-2.7-1.9-4.1-2.9 1.1-.5 2.2-1.6 3.2-1.5 5.3.2 10.5.8 15.8 1 1 0 2.1-.9 3.2-1.3-.8-1.2-1.4-3.2-2.5-3.4-3-.6-6.1-.5-9.2-.7-9.2-.6-18.3-1.1-27.5-1.8-1.2-.1-2.3-1.4-3.5-2.2 1.2-.6 2.4-1.7 3.5-1.7 5.1.1 10.2.4 15.3.8 5.8.4 11.6 1.1 17.5 1.4 1.4.1 2.8-.7 4.2-1-1-1.7-1.9-4.7-3.2-4.9-6.8-.9-13.7-1.2-20.6-1.7-8.8-.5-17.7-.9-26.5-1.6-1.2-.1-2.2-1.7-3.3-2.6 1.2-.7 2.4-1.9 3.6-1.9 9.5.5 19.1 1.3 28.6 1.9 4.7.3 9.5.7 14.3.8 1.3 0 2.7-.9 4-1.4-1.5-2.1-2.7-5.7-4.4-5.9-9.7-1.1-19.6-1.5-29.3-2-12-.6-24-1.1-36-1.8-1-.1-2.4-.7-2.8-1.5s-.2-2.4.4-3c.6-.5 2-.2 3.1-.1.7.1 1.4.5 2 .5 15.2.7 30.3 1.4 45.5 2.1 4.1.2 8.3.5 12.4.7 1.4 0 3.2.1 3.9-.6.6-.6 0-2.6-.4-3.8-1.3-3.9-3.6-5.2-8.1-5.2-8.2.2-16.4-1-24.6-1.5-6.1-.3-12.3-.3-18.4-.7-1.3-.1-2.5-1.8-3.7-2.8.9-.5 1.8-1.4 2.6-1.4 9.7.5 19.5 1.1 29.2 1.7 4.4.3 8.9.6 13.3.5 1.8 0 6.4 2.1 4.3-2.7-2.7-6.3-6.1-12.3-9.9-17.9-5.5-8.3-11-16.8-17.6-24.3-7.7-8.7-16-17.2-25.1-24.5-10.7-8.6-22.1-16.6-34-23.5-16.1-9.5-33.7-15.9-52.1-19.3-12.4-2.2-25.1-3.6-37.7-4.6-7.6-.6-15.4.2-23.1.5-.6 0-1.2.6-1.8.9.4.7.6 1.6 1.2 1.9 8.5 5.3 13.3 13.5 15.2 22.8 2 9.9 2.3 20.2 3.4 30.3.8 6.8 2.8 13.1 8.1 18 1.1 1 1.6 2.8 2.2 4.3.1.3-.9 1.3-1.5 1.5-1.8.7-3.8 1.1-5.6 1.9-1 .5-2.5 1.6-2.5 2.4 0 1.3 1 2.7 1.7 4 1.2-.5 2.3-1.2 3.6-1.6.9-.3 1.9-.2 2.9-.1.3 0 .8 1 .8 1.1-1.7 1.7-3.4 4.5-5.4 4.8-4.5.6-6.2-2.9-7.3-6.8-1-3.3 2.1-7.7 5.5-7.9.9-.1 1.8-.5 2.6-.9.1 0-.1-1.5-.5-1.6-1-.4-2.3-.9-3.2-.7-3.3.9-6.5 2.5-9.9 3.3-15.6 3.9-28.9 12.4-41.4 22-9.7 7.4-18.2 16.5-27.2 24.9-.6.5-.6 1.6-.8 2.4 1 .2 2 .5 3 .4 4-.3 8-.7 12-1.2 1.3-.1 2.9 0 4-.7 7.9-4.8 15.4-10.2 23.5-14.4 8.3-4.4 17.1-7.8 25.8-11.5.5-.2 1.6.7 2.4 1.1-.4.7-.6 1.9-1.1 2.2-7.8 3.3-15.6 6.5-23.4 9.8-.6.2-1.3 1-1.2 1.5 0 .5.9 1.2 1.4 1.3 4.5.8 9.2 2.3 13.6 1.9 6.4-.6 13.2-1.6 18.9-4.3 7-3.3 13.4-8 19.5-12.9 7-5.6 13.4-12 20-18.1 10.3-9.4 21.4-17.5 35.8-19.2 7.4-.9 14.8-1.6 21.8 2.2 5.5 2.9 8.9 7.5 8.7 13.6-.2 4.3-1.5 8.9-3.4 12.9-3.3 6.8-6.4 14.2-11.5 19.5-5.8 6.1-13.1 11.3-20.7 15.1-8.1 4.1-17.3 6.1-25.9 9-2.1.7-5.4 1-6 2.4-1 2.3-.2 5.3-.2 8 0 3.3.5 6.7-.1 9.8-.5 2.5 0 3.5 2.3 3.9 2 .3 4 .5 5.9.9 2.3.5 5.2 0 4.7 4.3-.8 6.9-.3 13.8 3.5 19.9.7 1.1 2.6 1.3 3.9 1.9.2-.8.7-1.6.6-2.4-.7-3.6-1.7-7.1-2.2-10.7-.1-1.1 1-2.3 1.6-3.5.7 1.2 1.8 2.3 2.1 3.7 1 4.1 1.2 8.5 2.8 12.3.7 1.6 4.1 2.1 6.2 3.2-.1-1.6-.2-3.2-.2-4.8-.1-3.1-.2-6.3 0-9.4 0-.5 1.3-.9 2-1.4.4.7 1.1 1.4 1.2 2.1.2 2.5.3 5.1.3 7.7.1 4.6 1.4 8.4 6.4 9.7 1.2.3 2.6-.3 3.9-.5-.3-1.1-.4-2.2-.9-3.2-1.8-3.2-3.5-6.3-.8-9.8.5-.7 1.6-1 2.4-1.4.3 1 .8 2 .9 3 .1.9-.5 1.9-.4 2.7.7 4.3 2.5 7.5 7.5 7.6.9 0 2.4.7 2.6.3 1.1-1.3 2.1-2.9 2.4-4.6.1-.7-1.3-2.3-2.2-2.6-4-1.1-5.3-3.9-5.1-7.5.2-3.2 4.7-7.8 7.3-7.4 6 .8 12 1.9 18 2.9 6.7 1.1 13.5 2.1 20.1 3.6 3.2.7 5.5 3.2 4.8 6.7-.7 3.6-1.9 7.8-6.5 7.3-9-.8-18-2.4-27-3.6-1.8-.2-4-1.9-5.1 1.4-.8 2.5-2.5 4.6-3.3 7.1-.3.9.3 2.4.9 3.4 1.5 2.5 3.6 4.7 4.9 7.4 2.6 5.3 4 11.3 7.3 16.1 6.1 8.7 6.5 14.9-2.2 21.5-5.7 4.4-13.1 6.6-19.6 10-1.2.7-2.5 2.9-2.4 4.3.7 5.5 2.4 11 2.8 16.5.8 10.5-2.2 20.6-4.6 30.8-2.1 8.9-10.1 16-7.4 26.2.1.6-.7 1.4-1.1 2.1-.7-.5-1.6-1-1.9-1.7-2.6-6.2-1.5-12 1.5-18 5.8-10.7 10-22.3 9.5-39.3zM185.6 392c6.1-.7 10.5-3.8 12.6-9.4 2.5-6.8 5-13.6 11.8-17.6.5-.3.9-1.5.8-2.2-.1-.4-1.2-.9-1.9-.9-1.7 0-3.5.8-5.1.3-8.8-2.5-16.2-7.5-21.6-14.7-5.3-7-10.2-14.3-14.6-21.9-4-6.9-6.9-14.4-6.4-22.7.1-1.7.6-3.5 1.2-5 .3-.7 1.5-.9 2.3-1.4.5.8 1.5 1.8 1.3 2.5-2.1 8.9 1.5 16.5 4.9 24.2.3.6 1.2 1.2 1.8 1.2s1.3-.7 1.6-1.3c.8-1.3 1.2-2.8 2.1-4 3.2-5 6.8-9.7 9.7-14.8 4.2-7.2 7.7-14.9 11.9-22.1 2.1-3.5 2.1-4.3-2.2-4.9-3.7-.5-7.4-.7-11.1-1.3-1-.2-1.9-1.3-2.9-2 .7-.6 1.3-1.3 2-1.7 4.3-2.3 8.8-4.3 13-6.9 3.9-2.3 4.4-5.1 1.8-6.9-1.8-1.2-3.4-2.7-5.1-3.9-.9-.7-1.9-1.4-3-1.6-6.9-1.2-13.8-2.2-20.7-3.2-3.1-.5-5.4-.1-8 2.5-3.3 3.3-7.7 6.8-12.1 7.4-13.4 1.9-26.7-5.4-29.1-21.1-.1-.7 1.4-2.5 2-2.4 2.3.2 4.6 1.1 6.9 1.4 3.2.5 7.3 3.3 8.5-2.4.7-3.2 1-6.6 1.3-9.9.1-.5-.7-1.5-1.2-1.6-3.5-.8-7.1-1.3-10.5-2.3-1.7-.5-3.2-1.8-4.8-2.7 3.8-3.9 6.9-8.8 11.4-11.5 7.1-4.3 14.9-4.2 22.7-.5 5.5 2.6 12.6 11.8 13.2 17.8.1 1.6 2 3.9 3.4 4.3 3.6.8 7.5.7 11.2.9 1.1.1 2.3-.2 3.3.2 1.7.7 3.2 2.3 4.9 2.7 7.3 1.4 14.6 2.3 21.9 3.7 4.8.9 8.2-2.4 7.2-7.3-.2-1.2.1-2.8.8-3.7 2.7-3.3 5.7-6.6 8.7-9.6 2.8-2.9 5.2-5 1-9.2-4.8-4.8-8.1-11.1-12.7-16.1-3.9-4.2-9.1-7.1-13-11.3-9.2-9.9-11.4-22-9.3-35.1.1-.8-.2-1.6-.4-2.4-.7.1-1.7 0-2.1.4-4.4 4.4-9.4 8.4-12.9 13.5-5.6 8.2-5.8 17.8-4.8 27.5 1.2 11 7.1 18.9 15.9 24.4 7.8 4.9 16.6 8.2 24.9 12.3.8.4 1.3 1.9 1.4 2.9.1.6-.8 1.8-1.4 1.9-.9.1-2.1-.3-3-.8-2.6-1.5-5.1-3.2-7.8-4.6-6.4-3.2-13.3-5.4-19.1-9.4-8.4-5.8-12.9-14.6-15-24.6-3.1-14.9.5-28.1 10.6-39.4 8.9-10 20.8-15.1 33.3-18.8 9.3-2.8 16.4-8.9 23.2-15.4.2-.2.2-.8.3-1.2-.4-.1-.9-.3-1.2-.2-2.3.9-4.6 1.9-6.9 2.9-7.2 3.1-14.7 5.6-21.5 9.5-9.9 5.6-19.4 11.8-28.7 18.3-12.8 8.9-24.5 19.2-33.7 31.8-8.5 11.7-17 23.5-23.9 36.2-5.7 10.4-10 21.9-13.5 33.3-3.6 11.7-5.5 23.8-8 35.8-.4 2-2.3 5.4 1.4 5.8 8.1.9 16.3 1.1 24.4 1.6.8.1 2 .8 2.2 1.5s-.5 2.3-1 2.4c-2 .4-4.2.5-6.3.4-6.3-.3-12.6-.9-18.9-1-1.1 0-2.3 1.5-3.4 2.3 1.1 1.1 2 3.1 3.3 3.3 5.3.7 10.6 1 15.9 1.3 7.3.4 14.6.5 21.9 1.1 1.3.1 2.4 1.9 3.6 2.9-1 .7-2 2.1-2.9 2.1-5.3-.1-10.6-.5-16-.9-7.6-.6-15.2-1.4-22.8-1.8-1-.1-3.2 1.6-3.1 1.9.5 1.5 1.3 3.6 2.4 4 2.3.8 4.9.6 7.4.7 7.9.3 15.8.5 23.7 1 1 .1 1.8 1.8 2.7 2.7-.9.7-1.8 1.9-2.8 2-2.1.2-4.3 0-6.5-.2-7.7-.6-15.5-1.4-23.2-1.9-1.2-.1-3.6.9-3.6 1.1.4 2.1-1.5 5.6 2.7 5.8 8.3.5 16.5.9 24.8 1.6.9.1 1.8 1.7 2.3 2.8.1.4-1.3 1.9-2 1.9-3 0-6.1-.5-9.1-.7-5.1-.4-10.1-.9-15.2-1.1-1.1 0-2.2 1.3-3.3 2 .8 1.2 1.4 3.3 2.5 3.6 2.5.6 5.3.2 7.9.5.9.1 2 .9 2.6 1.6.3.4.2 1.8-.2 2.1-.8.6-1.9.9-2.9.9-1.9-.1-3.9-1-5.8-.8-5.1.6-2.7 4.7-2.2 6.9 2.1 10 4 20.3 7.5 29.9 4.9 13.5 11.1 26.6 16.8 39.8.2.6 1.1 1.2 1.7 1.2.5 0 1.1-.8 1.5-1.4 1.9-2.2 3.7-4.5 5.5-6.8.9-1.1 1.7-2.3 2.4-3.6 2.7-5.5 5.3-11.1 8.1-16.6.3-.5 1.7-.5 2.6-.7.1.9.5 2 .2 2.8-1.6 3-3.3 6-5.1 8.9-2.3 3.6-1.5 6.3 2.7 7 3.8.6 3.6 2.7 2.8 5.5-.8 2.6-.9 4.8 2.6 5.6.8.2 1.8 1.5 1.8 2.4 0 .7-1.5 2.2-1.8 2.1-2.2-.7-4.5-1.5-6.3-3-.9-.7-1-2.8-.9-4.2.3-2.4 1.8-5.2-2.5-5.2-1.1 0-2.2 1.2-3.2 1.9-6.5 4.3-8.2 9.9-4.2 16.3 3.6 5.7 7.3 11.7 12.2 16.2 5.1 4.6 11.8 7.4 17.8 11 2.1 1.3 3.1.6 3.1-1.9-.1-9.1 4.4-19.1 15-21.9.7-.2 1.5-2.9 1.1-3.9-1.1-2.2-3.1-3.9-4.5-6-.5-.7-.2-1.9-.2-2.8.7.1 1.7 0 2.1.5 2.7 3.1 4.9 6.7 8 9.3 1.3 1.1 4.4 0 6.6-.4.1 0 .3-2.2-.1-3.2-1.4-3.6-3.7-7-4.3-10.7-1.1-6.4-2.8-9.4-7.7-10.3-3-.6-6.1-.6-9-1.3-1.4-.4-2.5-1.8-3.7-2.9-.1-.1.1-1 .3-1 1.3-.1 2.7-.4 4-.1 3 .4 6 1.3 9 2.2zm78.5-86.9v-.6c-1.7-.2-3.4 0-5-.6-1.9-.6-5-1.5-5.3-2.8-2.3-8.8-5.6-17-12.2-23.5-.9-.9-2.3-1.4-3.4-2.1.1 1.1.2 2.2.2 3.2v.1c-.3 3.1-5.1 7.4-8.5 7.6-3 .2-7.5-3.8-8.2-6.9-.2-1-1.5-2.6-2.2-2.6-3.6.4-7.1 1.2-10.6 1.9-1.2.3-2.6.7-3.2 1.5-3.7 4.8-7.5 9.5-10.6 14.6-4.2 7.1-7.8 14.7-11.8 22-2 3.7-4.5 7.2-6.6 11-.6 1.2-1.1 3.3-.5 4.1 4.5 5.9 8.9 12.1 14.2 17.3 3.5 3.4 8.2 6 12.8 7.6 5.2 1.7 7.2-3.7 9.1-7 6.1-10.5 9.2-22.8 18.6-31.3.8-.7 1.6-1.3 2.5-1.8.1-.1 1.3 1.1 1.1 1.5-.3 1-.9 1.9-1.5 2.7-1.8 2.2-3.8 4.2-5.7 6.4-.3.3 0 1 0 1.6.5 0 1 .1 1.4-.1 4.4-1.6 8.7-3.4 13.1-4.9.7-.2 1.8.5 2.7.9-.6 1-.9 2.7-1.7 3-3.1 1.3-6.6 1.6-9.4 3.2-4.3 2.5-8.9 5.2-12.1 8.9-3.7 4.3-6.2 9.7-9.1 14.7-.4.6-.3 1.5-.5 2.2.9-.2 1.8-.3 2.6-.7.5-.2.8-1.1 1.4-1.3.9-.3 1.9-.5 2.7-.2.3.1.6 1.6.3 2.2-1.6 3.5-3.5 6.8-5.1 10.3-.3.7-.4 1.9-.1 2.6 2.5 4.9 4.9 9.8 7.6 14.5 4.7 8.2 16.6 13.1 25 6.1 6-5 8.9-11.6 10.5-19.2 1.9-9.1 4.8-17.9 3.3-27.4-1.4-8.8-2.4-17.6-4-26.3-1.1-6.1-.2-10 3.9-11.7 1.4-.2 2.9-.4 4.3-.7zm-2-75.6c-.3-.5-.5-1-.8-1.4-1.5.7-3.1 1.3-4.4 2.2-2.4 1.8-4.5 4.5-7.5.9-.4-.5-1.6-.6-2.4-.6-2.8-.1-5.7.5-8.4-.2-6.2-1.6-14.5 2.8-16.2 9-1.9 6.8.3 12.4 4.5 17.6 4.3 5.4 14.9 10.2 21.9 6 .9-.5 3.1-.1 3.8.7 9 9.2 17.9 18.6 22.4 31.1 1.4 3.7 4.8 8-2.7 9.1-.4.1-.8.8-1.2 1.1.5.3.9.7 1.4.8 2.5.4 5.1.3 7.5 1 12.4 3.7 24.4.9 36.5-1.2 9.8-1.8 17.9-6.8 26-12.1 1.4-1 2.5-2.5 3.8-3.7-1.7.4-3.4.6-5.1 1.1-2.4.7-4.4 1.8-6.3-1.3-2.9-4.9-6.4-9.5-9.7-14.2-2.2-3.2-3.7-1.3-5.7.5-3.8 3.2-7.6 6.9-12 8.5-4.5 1.7-9.9 1.4-14.9 1.5-3.4 0-6.8-.9-10.1-1.4-2.2-.3-4.5-.5-6.6-1.1-.8-.2-1.1-1.8-1.7-2.7 1.2-.1 2.4-.2 3.6-.2 1.2.1 2.4.4 3.6.6-.5-1.1-1-2.1-1.4-3.2-.4-1-.7-2-1-3 1.2.3 2.9.3 3.5 1.1 4.6 5.8 16.4 8.3 23.4 5.2 6.2-2.7 10.9-6.9 15.4-11.9 3.5-3.8 9.2-5.4 13.4-8.7 2.5-2 4-5.3 6.6-8.9-2 0-2.3-.1-2.5 0-3.1 1.9-6.2 3.9-9.3 5.6-.8.4-2 .5-2.8.3-1.7-.5-3.2-1.6-4.9-2.1-1.5-.5-3.2-.7-4.8-.7-5.6 0-11.3-.3-16.9.4-4.1.5-7.8-1-8.9-4.7-.2-.5-2-1.2-2.8-.9-2 .8-3.7 2-5.6 3.1-.5.3-1 .8-1.5 1.1.5.4 1 1 1.5 1.3 2 1.1 4.3 1.7 6 3.1 5.4 4.5 14.3 5.7 20.5 2.6 2.9-1.4 6-2.5 9.1-3.5.7-.2 1.9.4 2.6 1 .4.3.5 1.9.3 2-.7.4-1.6.4-2.5.4-1.2.1-2.5-.2-3.5.3-2.6 1.2-4.9 3.3-7.5 3.8-3.6.7-7.6 1-10.9 0-5.8-1.9-11.5-4.6-16.8-7.6-1.7-1-2.9-3.1-4.6-1.3-1.1 1.1-.8 3.5-1.1 5.3-.2 1.1-.4 2.2-.6 3.2-1.2-.6-2.9-1-3.4-2-.7-1.2-.1-3.1-.6-4.5s-1.5-2.6-2.5-3.7c-.9-1-2.1-1.7-3.2-2.5 1.4-.3 3-1.2 4.3-.8 7.3 2 14.9-.1 19.5-5.9 2-2.6 4-4.9 7.4-2 .6.5.9 1.8.8 2.6-.2 1.3-1.5 3.5-1.2 3.8 1.3 1 3.3 2.2 4.5 1.8 8.8-3 17.1-.1 25.5 1.6 4.3.8 11.6-2.8 13.4-6.9 2.1-5-1.2-10.3-8.2-10.9-5.5-.5-11.1 1.1-16.7 1.6-1.2.1-2.5-.5-3.7-1.1-.4-.2-.6-1.8-.5-1.8 1-.4 2.2-.6 3.1-1 .9-.5 2-1.1 2.4-1.9 1.8-3.1 3.2-6.5 5.2-9.6 2.1-3.2 5.5-4.8 9.1-3.5 4.3 1.6 6 6.2 5 10.7-.2.8.4 1.8.6 2.7.8-.5 2.1-.8 2.2-1.4.4-2.3 1.2-4.9.4-6.9-2-5.1-4.8-9.8-7-14.8-1.2-2.7-2.4-3.1-5-1.5-5.8 3.4-11.6 6.8-17.7 9.8-3.1 1.6-8 1.5-4.7 7.1.1.1 0 .3 0 .4.1 9.2-2.8 12.8-12.2 14.9-8.1 1.8-16.2-6.2-15.1-14.7.2-1.2-1.3-3.1-2.5-3.8-2-1.2-4.4-1.8-6.7-2.4-.7-.2-2.4.7-2.5 1.2-.4 2.9-1.2 4.9-4.7 4.3-.4-.1-1.1.8-1.5 1.3-.1.1 0 .5.1.6 2.1 1.2 4.2 2.3 6.3 3.5.6.3 1.5.9 1.4 1.3-.1.7-.5 1.6-1.1 2.1-2.1 1.5-4.2 2.9-6.4 4.2-.6.4-1.6.5-2.3.2-.6-.2-1.2-1.3-1.1-1.8.1-.6 1-1 1.6-1.5 2.1-1.1 4-2.4 6-3.7zm7.3 78.8c-.1.2-.1.5-.2.7H265c-4.4.1-7.1 2.9-6.1 6.4.7 2.4 1.7 4.8 2.1 7.3 1.4 9.8 3 19.6 3.8 29.5.4 4.3-1.2 8.7-1.6 13.1-1 11.8-7 20.9-15.6 28.5-1.7 1.5-4.5 3.4-4.3 4.9.6 7.3 1.6 14.7 3.4 21.8 1.8 7.3 2.8 14.3-.3 21.4-.3.7.9 2.7 1.8 3.1 1.9.9 4.1 1.4 6.1 1.4 1.8 0 3.7-.7 5.5-1.4 1.3-.5 2.4-2.1 3.7-2.1 2.7 0 5.4 1.1 8 .9 2-.2 5-1.3 5.6-2.8 2.7-7.2 5.3-14.5 6.9-21.9 2.2-9.6 3.7-19.3 5-29 1.2-8.7 3-17.6 2.4-26.2-.8-13.1-3.4-26-5.3-39-.1-.5-.8-1.1-1.4-1.3-.3-.1-1.1.6-1.3 1.1-1.3 3.1-2.1 6.6-3.9 9.3-1.3 1.9-3.8 3.4-6 4.1-.8.2-2.8-2.1-3.6-3.7-1.1-2.2-1.7-4.7-2.4-7.1-.7-2.3-2.3-4.9-1.8-7 1.8-7.8 8.3-9.8 14.6-5 .5.4 1.6.1 2.4 0-.7-1.5-1.2-3.8-2.3-4.2-3.5-1.2-7.3-1.9-11-2.8zM231.1 125c-1.2.6-1.7.9-2.3 1.2-5.4 2.5-10.9 5-16.3 7.5-3.9 1.7-9 2.1-9.6 7.5-.8 6.6-2.5 13.5-1.1 19.7s5.2 12.7 9.9 17c9.5 8.6 19.8 16.1 25.3 28.2.3.7 2.8 1.4 3.4 1 7.3-5.2 14.5-10.4 21.5-15.9 1.4-1.1 3.4-3.7 2.9-4.7-3.4-7.7-7-15.3-11-22.7-5.9-11-12.2-21.8-18.4-32.7-1.2-2.3-2.8-4.1-4.3-6.1zm50.1 25.9c.5-.2 1-.3 1.6-.5-.7-4-1.3-8-2.1-11.9-2.1-10.5-5.1-20.7-13.7-28-3-2.5-5.9-6.1-10.6-3.1-6.3 4.1-12.7 8.1-18.9 12.5-1.2.8-2.4 3.5-1.9 4.3 4.5 8 9.7 15.5 14 23.6 6.1 11.7 11.5 23.8 17.5 35.6.5 1 3 2 4.1 1.5 5.8-2.4 11.4-5.1 17-8 .8-.4 1.6-2.3 1.3-3.2-2.8-7.7-5.6-15.2-8.3-22.8zm77.2 138.5c-.3.4-.7.7-1 1.1 1.2 3 2 6.3 3.7 9 3.9 6.3 8.6 12.2 12.2 18.6 4.9 8.8 9.1 18 13.8 26.9 1.1 2 3.4 5.4 4.4 5.1 8-1.9 16-4.2 21.5-10.9 2.4-2.9 4.9-6.7 1.9-10.1-5.8-6.4-8.2-14.2-10.4-22.2-1.4-4.8-6.2-7.1-10.2-5.4-3.7 1.6-7.8 2.4-11.8 3.1-.8.2-1.9-1.2-2.9-1.9.8-.6 1.4-1.5 2.3-1.7 3.6-1 7.3-1.5 10.8-2.6 1.7-.5 3-2 4.5-3.1-2.4-.7-4.2-.4-6 0-2.6.5-5.2 1.8-7.7 1.5-3.5-.5-6.9-2.2-10.4-3.2-4.8-1.4-9.8-2.8-14.7-4.2zm-14.5 189.1c4.8-1.1 8.7-1.6 12.2-3 10.1-3.9 20.2-7.8 29.9-12.3 4.9-2.3 9-6.3 9.8-12.2.9-6.2-5.4-8.1-8-12.4-.1-.1-1.2.2-1.8.5-6.6 3.8-13 7.9-19.7 11.5-9.8 5.3-20.4 8.5-31.5 9.6-6 .6-12 .8-18 1.2-1.8.1-4.6-.2-5.1.6-2.7 5.2 2.1 13.6 7.9 14.2 8.6 1.1 16.9 1.7 24.3 2.3zM245 431.9c-.3-1.7-.5-2.7-.7-3.8-1.7-8.4-3.2-16.9-5.1-25.3-.3-1.4-1.8-3.4-2.8-3.5-11-.6-16.8-7.8-21.9-16.2-.2-.4-.8-.8-1.2-.8s-1.1.6-1.1.9c0 2 0 4 .3 5.9.8 7.3 1.4 14.6 2.6 21.9 1.1 6.5 3.2 12.8-.6 19-.3.5.2 2.1.7 2.3 6.7 3.5 13.4 7.1 20.3 10.1 1.8.8 5.7.6 6.2-.4 1.7-3.1 2.4-7 3.3-10.1zm54.3-290.3c-.8-5.5-1.4-11-2.5-16.4-2.8-12.5-12.6-18-23.4-22.1-1.9-.7-4.6.5-6.9.8 1.1 1.4 2 3 3.3 4.2 9.3 8.8 12.8 20.4 15.3 32.4 1.3 6.3 1.5 12.8 2.8 19 1 4.9 2.9 9.6 4.5 14.3.2.6 1.8 1.2 2.5 1 2.7-.7 5.5-1.5 8.1-2.6.7-.3 1.6-2 1.3-2.6-4.2-8.8-5.6-18.2-5-28zm109.6 333.1c-1-.7-1.9-1.1-2.2-1.8-.2-.6.2-1.7.7-2.2 4-3.1 8-6.1 12-9.2.6-.5.9-1.4 1.3-2.1-.8-.1-1.8-.5-2.3-.2-6.1 4-12.1 8.2-18.3 12.1-1.3.8-3.2.6-4.8.9.4-1.2.4-2.8 1.2-3.5 3.8-3.2 7.9-6.2 11.8-9.4.6-.5.6-1.6.9-2.5-3.4-.1-6.7-.3-10.1-.4-.2 0-.4.7-.6 1-2.3 2.3-4.2 5.2-6.9 6.7-7.2 3.9-14.8 7.1-22.2 10.7-.7.3-1.2 1.1-1.7 1.7.7.5 1.3 1.2 2 1.4 6.5 1.8 13.1 3.7 19.7 5.2 2.7.6 6 1.7 8.1.7 6.5-3.2 12.6-7.1 18.6-11 4-2.6 7.7-5.6 11.5-8.5.3-.2.2-.7.4-1.1-.4-.1-1-.4-1.3-.2-4.2 2.3-8.5 4.5-12.6 7-1.8 1.4-3.3 3.1-5.2 4.7zm-146.8-14.3c-.4-1.6-1.2-4.7-2.2-7.6-.3-.8-1.4-1.7-2.3-1.8-4.3-.7-8.7-.7-12.8-1.9-8.5-2.5-17.3-4.7-25.2-8.6-7.4-3.6-13.9-9.1-20.8-13.7-.7-.5-1.8-.4-2.7-.6 0 1-.1 2.1 0 3.1.3 2.5.5 5 1.1 7.4.3 1.2 1 2.9 2 3.4 4.7 2.1 9.6 3.8 14.4 5.7 7.1 2.9 14.1 5.9 21.2 8.8 8 3.3 15.9 6.5 23.9 9.8 2.5.8 4 .5 3.4-4zm-22.5-191.9c-.1-.3-.1-.6-.2-.8-.5.3-1.3.4-1.4.8-.1.4.2 1.2.5 1.6 1.9 1.8 4.4 3.2 5.7 5.3 4.2 6.8 7.8 13.9 11.9 20.8 1 1.7 2.9 3.6 4.7 3.9 3.1.6 6.3.1 9.5-.2.9-.1 2.4-1.6 2.2-2-.8-2.5-1.7-5.2-3.2-7.4-4.5-6.4-9.1-12.8-14-18.9-1.6-2-4.1-3.9-6.5-4.3-3-.5-6.2.7-9.2 1.2zm-31.2 107.2c.4-.1.8-.1 1.2-.2-.4-.6-.8-1.8-1.1-1.8-.7 0-1.7.5-2 1.1-2.5 4.5-4.5 9.5-7.4 13.7-2.5 3.6-1.5 6.6 0 9.8 1.5 3.2 3.5 6.3 4.3 9.7.6 2.7-.4 5.7-.7 8.6-.1 1.3-.4 2.5-.4 3.8 0 1.2-.2 3 .4 3.5 2.1 1.7 4.7 2.8 7.1 4.2.1 0 .7-.5.8-.9.5-4 1.6-8 1.2-12-.6-6.9-2.5-13.7-3.1-20.7-.8-6.1-.3-12.5-.3-18.8zm-35.1 66.7c-.2 5.9 1.4 10.1 5.8 10.8 3.1.5 6.8-1.7 10-3.1.6-.3 1.2-2.4.8-3.2-1.8-3.4-1-5.9 1.6-8.7 1.3-1.3 1.9-4.2 1.5-6.1-.8-3.6-2.7-7-7.3-5.8-7.4 2.1-12.4 9.4-12.4 16.1zm68.5 27c.1-.6.2-1.1.3-1.7-3-1.1-6.1-2.1-9.1-3.2-12.8-4.7-25.5-9.5-38.3-14-1.1-.4-2.9 1-4.1 1.8-.4.3-.1 2.3.4 2.6 6.5 3.4 12.9 7.3 19.8 9.6 6.6 2.2 13.7 2.8 20.6 4 3.4.6 6.9.7 10.4.9zm-48.4-225.8c-.4.2-.7.4-1.1.5 1.9 3.4 3.2 7.3 5.8 10 2 2.1 4.5 5.8 8.7 2.9 1.4-.9 2.8-1.8 4.2-2.6 5.3-2.7 5.6-4.9.4-8.1-5.6-3.4-11.4-6.4-17.2-9.4-.3-.1-1.7.9-1.7 1.4 0 1.8.5 3.5.9 5.3zm33.7 211.1c-.1.2-.7 1.1-.5 1.8.2.9.8 2.2 1.6 2.5 7 2.9 14.1 5.6 21.1 8.3 11.8 4.5 23.7 9 35.5 13.4 4.4 1.6 9.1 2.6 13.1 4.9 4.4 2.5 8.1 6.3 12.2 9.3.7.6 2 .5 2.9.7-.4-.7-.8-1.5-1.4-2.2-.5-.6-1.2-1.1-1.8-1.6-3.1-2.6-6-5.7-9.5-7.5-4.5-2.4-9.5-3.6-14.3-5.6-7.9-3.2-15.7-6.5-23.6-9.8-7.5-3.1-15.1-6-22.7-9-3.7-1.5-7.5-3.1-12.6-5.2zm-30.2 13.4v.3c.9 0 1.8.2 2.6-.1 1.2-.5 2.4-1.3 3.5-2-.8-.5-1.6-1.2-2.5-1.6-4.4-2.1-8.7-4.4-13.2-6.1-2.7-1-6.1-.2-8.8-1.3-4.8-2-9.2-4.8-13.8-7.1-.6-.3-1.4-.1-2.1-.2.3.7.3 1.5.8 1.9 5 4.4 9.9 9 15.3 13.1 2.7 2 6.1 3.7 9.3 4.3 2.9.5 6-.8 8.9-1.2zm143-180.5c2.9-.9 5.5-1.6 8-2.7.6-.2 1.2-2.1.8-2.5-4.1-5.1-8.1-10.3-12.5-15.2-2.2-2.4-8.8-.6-10 2.5-.2.6 0 1.7.5 2.3 3.5 4.6 7.1 9.2 10.8 13.7.6.9 1.6 1.4 2.4 1.9zm-50.2-52.1c2.8.3 4.8-.6 4.8-4.3 0-2.7.7-5.4 1.2-8.1.1-.8.6-1.7.3-2.2-.2-.4-1.4-.5-2.1-.5-3.8.3-7.6.6-11.3 1.2-1.2.2-2.9 1.1-3.2 2.1-1.7 5.9 3.4 11.8 10.3 11.8zm-71.3 20l-.9.9c-1.1.3-2.3.6-3.4 1-2.4.8-4.5 1.8-2.5 4.9 1.2 1.9 1.9 4.3 3.6 5.7 2.2 1.8 5.1 2.7 7.7 4 1.4-3.1 4.5-6.9 3.7-9.2-1.1-3-5.3-4.9-8.2-7.3zm63.4 67.9c-3-3.1-5-5.2-7.1-7.3-1.6 1.9-4.3 3.6-4.6 5.6-.5 3.2 1 7.1 4.9 7.2 1.9 0 3.9-3 6.8-5.5zm69-12.1c.7 0 1.4.1 2.2.1 1.3-2.4 3.4-4.8 3.6-7.3.1-1.6-2.5-4.6-4.1-4.8-4.3-.6-4.4 3.3-4.1 6.2.1 2 1.5 3.8 2.4 5.8zm-20.8-89c-1.4-.4-2.3-1-2.8-.7-2.3 1-4.9 1.8-6.4 3.5-1.3 1.4-1.4 4-1.7 6.1 0 .2 1.8 1.1 2.8 1.1 6.2 0 3.5-6.6 8.1-10zM204 450.5c.9-.7 2.1-1.3 2.2-1.9.1-.8-.7-2-1.4-2.4-3-1.4-6-2.7-9.1-3.8-.6-.2-2.1.2-2.2.4-.1 1-.1 2.6.4 2.9 3.2 1.8 6.6 3.1 10.1 4.8zm10.1-175.1c1-.7 1.7-1 2.1-1.6.2-.2-.1-1.1-.4-1.4-2.5-3-5-6.1-7.6-9-.5-.6-1.6-.7-2.5-1-.2.8-.8 1.7-.6 2.2 1.2 2.3 2.4 4.6 4 6.6 1.5 1.5 3.3 2.7 5 4.2zm-10.3.3c1.3-1 2.1-1.5 2.9-2.1-1.6-2-3.3-4.1-4.9-6.1-1.9 1.5-3.7 3-5.6 4.5 2.4 1.3 4.9 2.5 7.6 3.7zm17.6 182c1.2-1.3 1.8-2 2.4-2.7-1.8-1.2-3.6-2.5-5.5-3.5-.3-.2-1.2.8-1.8 1.3l4.9 4.9zm-10.9-2.6c.7-.5 1.5-1.1 2.2-1.6.7-.6 1.3-1.2 2-1.8-1.3-1.2-2.4-2.5-3.8-3.4-.2-.1-2.2 1.4-2.1 2.1.2 1.6 1.1 3.1 1.7 4.7zm-12.6-52.5c-.8 1.6-1.5 2.3-1.4 2.7.3.9 1.1 1.7 1.7 2.6.5-.6 1.4-1.2 1.3-1.7-.1-.9-.7-1.7-1.6-3.6zm35.7-132.7c-1.1-.9-1.8-1.6-2.6-2-.2-.1-.9.6-1.3.9.7.6 1.4 1.3 2.2 1.9.2.1.7-.3 1.7-.8zM352.7 282c.4-.3.8-.6 1.1-.9-.7-.9-1.3-1.8-2-2.7-.3.4-1.1 1-1 1.1.6.9 1.2 1.7 1.9 2.5zM217.9 521.6c-.9-.8-3.9-2.4-3.7-3.4.5-2.6 2.4-4.9 3.7-7.3 2.8 1.9 7.6 3.4 8.1 5.8.9 3.8-3.6 4.3-8.1 4.9zm40.1 16.7c-1.8-1.9-4.1-3.5-3.9-4.2.8-2.3 2.4-4.4 3.7-6.5.9 2.1 2.2 4.2 2.6 6.4.2.9-1.2 2.2-2.4 4.3zm238.4-88.6c0 3.7-4.5 9.2-7.6 8.9-4.8-.5-10.2-3.4-9.6-10.3.3-4.1 4.7-8.3 9.3-8.3 4 0 7.9 4.7 7.9 9.7zM455 135.1c-1.3-1.4-3.4-2.8-3.3-3.9.2-1.5 2.1-2.9 3.3-4.2.4-.4.9-.7 1.4-.9 1.3-.5 2.6-.8 3.8-1.2-.3 1.5-.5 3-.9 4.4-.5 1.4-1.2 2.7-2 4-.3.6-1.1 1-2.3 1.8zm-60.2 388.3c-2.2 1.1-3.8 2.4-5.4 2.4-.8 0-1.7-2.3-2.4-3.7-.3-.6-.4-1.3-.3-2 .2-1.3.5-2.6.7-3.8 1 .6 2.2 1 3.1 1.8 1.3 1.4 2.4 3 4.3 5.3zM106.1 439c-1.4-1.3-4.5-3-6-5.6-2.2-3.7 2.4-3.4 4-4.7 1.9-1.5 4-2.8 6.2-3.7 1-.4 3.4 0 3.7.7 1.1 2.3 2.4 5.1 2 7.4-.7 4-4.2 5.6-9.9 5.9zm57.8-327.5c.2-.3.5-1.1.9-1.2.8-.1 1.8-.1 2.3.3 2 1.5 4.1 3 5.7 5 .5.6-.2 3.1-1.1 3.6-1.3.8-4.4 1.3-4.7.9-1.4-2.6-2.1-5.5-3.1-8.6zM329.1 76c-.1 0-1.6-.4-2-1.2-.4-.9.3-2.3.6-3.5.3-1.3.5-2.8 1.3-3.8.7-.9 2.1-1.3 3.2-1.9.3.9.6 1.7.8 2.6.2 1.3.1 2.7.4 4 .5 2.6 0 4.2-4.3 3.8zM134.2 459.3c-1.3-2-2.7-3.2-2.4-3.8.7-1.5 2.1-2.8 3.1-4.2 1.1 1.1 3.3 2.4 3.2 3.3-.2 1.5-2 2.7-3.9 4.7zm-8.1 2.2c-1.8 2-2.8 3.1-3.9 4.2-1.1-1.4-2.3-2.8-3.4-4.2 1.1-.8 2-2.2 3.2-2.3.9-.2 2.1 1.1 4.1 2.3z"/>
    <path fill="#fff" d="M390.1 374.5c.5 16.9-3.7 28.6-9.2 39.7-3 6-4.1 11.8-1.5 18 .3.7 1.3 1.1 1.9 1.7.4-.7 1.3-1.5 1.1-2.1-2.8-10.2 5.3-17.4 7.4-26.2 2.4-10.2 5.4-20.2 4.6-30.8-.4-5.5-2.1-11-2.8-16.5-.2-1.3 1.1-3.6 2.4-4.3 6.5-3.5 13.8-5.7 19.6-10 8.7-6.6 8.3-12.8 2.2-21.5-3.3-4.7-4.7-10.8-7.3-16.1-1.3-2.6-3.4-4.9-4.9-7.4-.6-1-1.2-2.5-.9-3.4.8-2.4 2.5-4.6 3.3-7.1 1.1-3.4 3.3-1.7 5.1-1.4 9 1.2 18 2.8 27 3.6 4.5.4 5.8-3.8 6.5-7.3.6-3.5-1.7-6-4.8-6.7-6.6-1.5-13.4-2.5-20.1-3.6-6-1-12-2.1-18-2.9-2.7-.3-7.1 4.2-7.3 7.4-.2 3.6 1.2 6.4 5.1 7.5 1 .3 2.4 1.9 2.2 2.6-.3 1.6-1.4 3.2-2.4 4.6-.3.4-1.7-.3-2.6-.3-5-.1-6.8-3.3-7.5-7.6-.1-.9.5-1.9.4-2.7-.1-1-.6-2-.9-3-.8.5-1.9.7-2.4 1.4-2.7 3.5-1 6.6.8 9.8.5.9.6 2.1.9 3.2-1.3.2-2.7.8-3.9.5-4.9-1.3-6.3-5.1-6.4-9.7 0-2.6-.1-5.1-.3-7.7-.1-.7-.8-1.4-1.2-2.1-.7.5-2 .9-2 1.4-.1 3.1 0 6.3 0 9.4 0 1.6.2 3.2.2 4.8-2.2-1-5.5-1.5-6.2-3.2-1.6-3.8-1.8-8.2-2.8-12.3-.3-1.3-1.4-2.4-2.1-3.7-.6 1.2-1.7 2.4-1.6 3.5.5 3.6 1.5 7.1 2.2 10.7.1.7-.4 1.6-.6 2.4-1.3-.6-3.3-.9-3.9-1.9-3.8-6.1-4.3-13-3.5-19.9.5-4.2-2.5-3.7-4.7-4.3-1.9-.5-3.9-.6-5.9-.9-2.3-.4-2.7-1.4-2.3-3.9.6-3.2.1-6.5.1-9.8 0-2.7-.8-5.8.2-8 .6-1.4 3.9-1.7 6-2.4 8.7-2.9 17.8-4.9 25.9-9 7.6-3.8 14.9-8.9 20.7-15.1 5.1-5.4 8.2-12.7 11.5-19.5 1.9-3.9 3.3-8.5 3.4-12.9.2-6.1-3.2-10.6-8.7-13.6-7-3.7-14.4-3.1-21.8-2.2-14.4 1.7-25.5 9.9-35.8 19.2-6.7 6-13 12.5-20 18.1-6.1 4.9-12.5 9.6-19.5 12.9-5.7 2.7-12.5 3.7-18.9 4.3-4.4.4-9.1-1.1-13.6-1.9-.6-.1-1.4-.8-1.4-1.3s.7-1.3 1.2-1.5c7.8-3.3 15.6-6.5 23.4-9.8.6-.2.8-1.4 1.1-2.2-.8-.4-1.9-1.3-2.4-1.1-8.7 3.7-17.5 7.1-25.8 11.5-8.1 4.3-15.6 9.7-23.5 14.4-1.1.7-2.6.5-4 .7l-12 1.2c-1 .1-2-.3-3-.4.3-.8.3-1.9.8-2.4 9-8.4 17.5-17.5 27.2-24.9 12.5-9.5 25.8-18.1 41.4-22 3.4-.8 6.5-2.4 9.9-3.3 1-.3 2.2.2 3.2.7.3.1.6 1.6.5 1.6-.8.4-1.7.8-2.6.9-3.4.2-6.5 4.6-5.5 7.9 1.1 3.8 2.8 7.4 7.3 6.8 2-.3 3.6-3.1 5.4-4.8.1-.1-.4-1.1-.8-1.1-.9-.1-2-.2-2.9.1-1.2.4-2.4 1-3.6 1.6-.6-1.3-1.6-2.7-1.7-4 0-.8 1.5-1.9 2.5-2.4 1.8-.8 3.8-1.2 5.6-1.9.6-.3 1.6-1.2 1.5-1.5-.5-1.5-1-3.3-2.2-4.3-5.3-4.9-7.4-11.1-8.1-18-1.1-10.1-1.4-20.4-3.4-30.3-1.9-9.3-6.7-17.5-15.2-22.8-.6-.4-.8-1.3-1.2-1.9.6-.3 1.2-.9 1.8-.9 7.7-.3 15.4-1.1 23.1-.5 12.6 1 25.3 2.3 37.7 4.6 18.4 3.3 36 9.8 52.1 19.3 11.8 7 23.2 14.9 34 23.5 9.1 7.3 17.4 15.7 25.1 24.5 6.6 7.5 12.1 15.9 17.6 24.3 3.8 5.7 7.2 11.7 9.9 17.9 2.1 4.9-2.6 2.7-4.3 2.7-4.4.1-8.9-.3-13.3-.5-9.7-.6-19.5-1.2-29.2-1.7-.8 0-1.7.9-2.6 1.4 1.2 1 2.4 2.7 3.7 2.8 6.1.5 12.3.4 18.4.7 8.2.5 16.4 1.7 24.6 1.5 4.5-.1 6.9 1.2 8.1 5.2.4 1.3 1 3.2.4 3.8-.7.8-2.6.7-3.9.6-4.1-.1-8.3-.5-12.4-.7-15.2-.7-30.3-1.4-45.5-2.1-.7 0-1.4-.5-2-.5-1-.1-2.5-.4-3.1.1-.6.6-.8 2.3-.4 3 .4.8 1.8 1.4 2.8 1.5 12 .7 24 1.2 36 1.8 9.8.5 19.6.9 29.3 2 1.7.2 2.9 3.8 4.4 5.9-1.3.5-2.7 1.4-4 1.4-4.8-.1-9.5-.5-14.3-.8-9.5-.7-19.1-1.4-28.6-1.9-1.2-.1-2.4 1.2-3.6 1.9 1.1.9 2.1 2.5 3.3 2.6 8.8.7 17.7 1 26.5 1.6 6.9.4 13.8.7 20.6 1.7 1.3.2 2.1 3.2 3.2 4.9-1.4.4-2.8 1.1-4.2 1-5.8-.3-11.6-1-17.5-1.4-5.1-.4-10.2-.7-15.3-.8-1.2 0-2.4 1.1-3.5 1.7 1.2.8 2.3 2.1 3.5 2.2 9.1.8 18.3 1.3 27.5 1.8 3.1.2 6.2.1 9.2.7 1 .2 1.7 2.2 2.5 3.4-1.1.5-2.1 1.4-3.2 1.3-5.3-.2-10.5-.8-15.8-1-1 0-2.1 1-3.2 1.5 1.4 1 2.6 2.8 4.1 2.9 5.1.6 10.3 1 15.4.9 3.3 0 4.8 1.2 5 4.3.9 13.5 2.4 27 2.4 40.5.1 9.6-1.3 19.4-2.9 28.9-1.1 7-3.4 13.9-5.5 20.7-.4 1.2-2.7 2.7-4.1 2.6-16.6-.7-33.2-1.6-49.8-2.5-3.6-.2-7.2-.9-10.8-1-1 0-2.1 1-3.2 1.5 1 .8 2 2.3 3.1 2.4 13.9.9 27.8 1.6 41.8 2.4 5.8.3 11.7.7 17.5 1.3 1 .1 2.7 1.9 2.5 2.1-1.1 2.2-2.5 6-3.8 5.9-10.5-.2-20.9-1.1-31.4-1.7-5.6-.3-11.2-.6-16.7-.9-1.2-.1-2.4-.4-3.6-.3-1.1.1-2.2.6-3.3.9.9 1 1.6 2.6 2.6 2.8 5.2.7 10.5 1.1 15.7 1.6 10.1.8 20.2 1.6 30.3 2.3.9.1 1.9-.4 2.7-.1 1.1.5 3 1.9 2.9 2.1-1.1 2-2.6 5.4-3.8 5.4-9-.3-18.1-1.3-27.1-1.9-1.2-.1-2.6.3-3.7.8-.3.1-.5 1.7-.2 1.9 1 .7 2.2 1.4 3.3 1.5 7.9.7 15.9 1.2 23.8 1.8 2.9.2 2.9 2.3 1.7 4.1-8.2 12.6-16 25.6-25.1 37.6-6.3 8.3-14.5 15.1-22 22.5-.7.7-2.5.7-3.7.5-10.3-1.7-20.6-3.4-30.8-5.3-.8-.1-1.9-1.3-1.9-1.9.2-4.7-3.4-6.9-6-9.9-1.3-1.5-1.6-3.9-2.3-5.9-.3-.8-.3-2-.8-2.4s-1.9-.2-2.4.2c-10.5 8.8-22.5 15.2-35.5 19.1-9.7 2.9-19.7 5.2-29.7 6.6-4.7.6-9.7-1.5-14.6-2.3-.8-.1-2.4-.2-2.5 0-.3 1.3-.4 2.7-.4 4 0 3.6.6 7.3.2 10.9-.7 5.5 3.3 6.7 6.9 8 12.9 4.5 26 4.7 39.3 2.1 7.1-1.4 13.8.5 20.5 2.2 4.3 1.1 8.7 2 13 3.2.8.2 1.5 1 2.2 1.5-.6.6-1.2 1.4-1.9 1.7-11.2 4-22.2 8.8-33.6 11.5-12.5 3-25.4 4.2-38.1 5.9-4.6.6-9.4.9-14 .6-11.2-.9-22.5-1.6-33.6-3.6-11.1-1.9-22.3-4.3-32.7-8.3-13.1-5-25.4-11.9-38.1-18l-.3-.3-3.9-3.9c1.8-.1 3.6-.1 5.4-.2 3.6-.3 7.1-1 10.7-1.1 5.7-.2 11.5-.2 17.2 0 7.1.2 14.3 1.4 21.3 1 9.2-.5 16.8 4.1 24.9 6.8 8.5 2.8 17 5.7 24.9 9.6 5.5 2.8 10 7.5 15.1 11.1 1.7 1.2 4.7 2.4 6.2 1.7 4.2-2 4-4-.6-7.9-4.8-4.1-9.4-8.6-14.7-11.8-4.8-2.9-10.4-4.5-15.7-6.7-6.3-2.6-12.6-5.1-18.7-8.1-1.1-.5-1.6-2.7-2-4.3-.6-2.2-1.1-4.5-1.4-6.7-.1-1.4.3-2.9.4-4.3.1-.9.1-1.8.1-2.7-.1-.6-.3-1.2-.5-1.8.7-.1 1.5-.4 2.2-.3 11.4.4 22.7.8 34.1 1.5 2.1.1 4.1 1.2 6.1 1.9 1.6.5 3.1 1.1 4.7 1.4.1 0 1-1.9.7-2.3-1.3-1.8-2.7-4.6-4.3-4.7-5.7-.5-11.4 0-17.1 0-3 0-6.1-.2-9-.7-.6-.1-1.6-2.3-1.3-3.3 2.9-11 6.7-21.7 9-32.8 3.3-16.2 6.6-32.6 4.9-49.1-1.2-12.3-4.2-24.5-6.5-36.7-.6-3.1-1.8-6-2.4-9.1-.1-.4 2.1-1.8 3.2-1.7 9.4.9 18.6.3 27.5-2.8 1.7-.6 3.4-1.6 5.1-1.5 1.5.1 3.7 1.2 4.2 2.4 3.6 9.5 7 19.2 10.3 28.8 4.7 13.5 4.4 27.5 4 41.4-.3 11.9-2.2 23.6-6.5 34.8-3 7.8-6.3 15.6-9.5 23.3-.3.8-1.4 1.4-1.6 2.2-.3 1.1-.1 2.4-.1 3.6 1.1-.5 2.8-.6 3.3-1.4 7.6-11.7 11.5-24.8 14.7-38.2 3.1-13.2 3.5-26.5 3.2-39.9-.3-13.3-3.6-26.1-7.6-38.7-2-6.2-4.4-12.2-6.3-18.4-1.3-4.2 3.2-3.7 5-5.1 4.9-3.9 10.2-7.2 15.3-10.8 2-1.4 4-2.8 2.5-5.8-.2-.3.6-1.1.9-1.7.5.3 1.2.4 1.4.8.9 1.8 3.8 3.7-.2 5.4-.3.1-.5.8-.4 1.1 1.3 3.9-1.1 4.2-4 5.2-2.4.8-5.1 3.5-5.7 5.9-1.8 7 2.7 11.9 7.6 15.9 2.5 2 4.7-.6 5.6-3.1.8-2.2 1-4.7 1.6-7 .2-.9.9-1.7 1.4-2.5.7.5 1.5.9 2 1.6 9.2 12.4 15.3 26.3 21.5 40.3 4 9.6 4.9 20.2 5.3 26.7zm-11.4-10c-1.1-7.6-1.8-17-4.1-25.9-2.1-8-5.9-15.6-9.2-23.3-.5-1.1-2-1.8-3-2.7.1 1.3-.2 2.8.2 4 3.1 8.7 7.9 17.1 9.3 26.1 2 12.7 2.1 25.8 2.3 38.7.1 14.4-6.2 27.1-12.6 39.6-1.8 3.4-3 7.2-3.7 11-.5 2.8.1 5.8.5 8.7.2 1.3.8 2.6 1.4 3.7.1.3 1.8.1 1.8-.1.3-1.4.7-2.9.6-4.4-.4-5.4-1.7-10.8 1.4-15.9 6.3-10.4 10.7-21.6 12.9-33.4 1.5-7.9 1.5-16.2 2.2-26.1zM292.6 191c-.2.5-.7 1.5-1.3 2.5-.9-.9-1.9-1.7-2.7-2.6-.4-.5-.3-1.5-.7-2-1-1.1-2.1-2-3.2-2.9-.5 1.5-1 2.9-1.5 4.4-.3 1-.2 2.5-.8 2.9-.6.4-2-.2-2.9-.5-.6-.2-1.1-1.1-1.7-1.3-.9-.3-2.1-.7-2.8-.3-.5.3-.7 1.8-.4 2.6 1 2.5 2.1 4.8 3.4 7.1.3.6 1.3 1.1 1.9 1.1.5 0 .9-1 1.4-1.5s1-1 1.6-1.3c1.2-.5 2.4-.8 3.7-1.1.8-.2 1.7-.5 2.5-.6 1.5-.2 3.3 0 4.5-.7 2.3-1.4 4-4.3 7.3-2.1.2.1 1.3-.6 1.3-1 .1-.8 0-1.8-.5-2.4-1.7-2.2-3.4-4.5-5.3-6.5-.9-.9-2.2-1.4-3.4-2-.3 1.2-.8 2.5-.9 3.7-.1 1.1.3 2.4.5 4.5zm77.9 58.3c-.1-.6-.3-1.1-.4-1.7-4.1 2.7-8.3 5.5-12.3 8.3-.2.2-.2 1.3.1 1.6.4.4 1.5.8 1.8.5 2.1-1.3 3.9-3.2 6.2-4.2 1.6-.7 5.2-.8 5.4-.2 1.1 3.1 2.5 3.1 5.1 1.9 1.9-.8 4.5-3.8 6.2.3 1.1 2.8 2.2 5.1 5.8 2.8.2-.1.7-.2.8 0 2.2 2.9 5 4.6 8.6 5.2.6.1.9 1.4 1.5 1.6 1.1.3 2.3.2 3.4.2-.1-1 .2-2.6-.3-3-3.5-2.7-7.2-5.1-10.8-7.6-.2-.1-.5-.3-.6-.3-3.3 1.3-4.8-1.2-6.6-3-.4-.4-.9-.9-1.4-1-4.1-.5-8.3-.9-12.5-1.4zm61.3-11.4c-1.6 1.7-2.5 2.7-3.4 3.6 1.2.8 2.4 2.1 3.6 2.2 1.1.1 2.2-1.3 3.4-2-1-1-1.9-2-3.6-3.8zm12.9 18.2c1.6-1.4 2.6-2.2 3.5-3-1.2-.8-2.4-2.2-3.6-2.3s-2.4 1.2-3.7 1.9c1.1 1 2.2 2 3.8 3.4z"/>
    <path fill="#fff" d="M185.6 392c-3-.8-5.9-1.8-8.9-2.5-1.3-.3-2.7 0-4 .1-.1 0-.4.9-.3 1 1.2 1 2.3 2.5 3.7 2.9 2.9.8 6 .8 9 1.3 4.9 1 6.5 4 7.7 10.3.7 3.7 3 7.1 4.3 10.7.4 1 .2 3.2.1 3.2-2.2.3-5.3 1.4-6.6.4-3.1-2.6-5.3-6.2-8-9.3-.4-.4-1.4-.3-2.1-.5.1 1-.2 2.1.2 2.8 1.4 2.1 3.4 3.8 4.5 6 .5.9-.4 3.7-1.1 3.9-10.5 2.9-15 12.9-15 21.9 0 2.4-1 3.1-3.1 1.9-6-3.6-12.7-6.4-17.8-11-4.9-4.4-8.6-10.5-12.2-16.2-4-6.4-2.4-12 4.2-16.3 1.1-.7 2.1-1.9 3.2-1.9 4.3-.1 2.8 2.7 2.5 5.2-.2 1.4 0 3.5.9 4.2 1.8 1.4 4.1 2.2 6.3 3 .4.1 1.9-1.4 1.8-2.1 0-.8-1-2.2-1.8-2.4-3.5-.8-3.4-3-2.6-5.6.8-2.7 1-4.9-2.8-5.5-4.1-.7-4.9-3.3-2.7-7 1.8-2.9 3.5-5.9 5.1-8.9.4-.7-.1-1.8-.2-2.8-.9.2-2.3.2-2.6.7-2.8 5.5-5.4 11-8.1 16.6-.6 1.3-1.5 2.5-2.4 3.6-1.8 2.3-3.6 4.6-5.5 6.8-.4.5-1 1.4-1.5 1.4s-1.4-.6-1.7-1.2c-5.7-13.2-11.9-26.3-16.8-39.8-3.5-9.6-5.4-19.8-7.5-29.9-.5-2.2-2.9-6.2 2.2-6.9 1.9-.2 3.8.7 5.8.8 1 .1 2.1-.3 2.9-.9.4-.3.5-1.7.2-2.1-.6-.8-1.7-1.5-2.6-1.6-2.6-.3-5.4.1-7.9-.5-1.1-.3-1.7-2.3-2.5-3.6 1.1-.7 2.2-2 3.3-2 5.1.1 10.1.7 15.2 1.1 3 .2 6.1.7 9.1.7.7 0 2.1-1.6 2-1.9-.4-1.1-1.4-2.7-2.3-2.8-8.2-.7-16.5-1.1-24.8-1.6-4.2-.3-2.4-3.7-2.7-5.8 0-.2 2.4-1.2 3.6-1.1 7.7.5 15.5 1.3 23.2 1.9 2.2.2 4.4.4 6.5.2 1-.1 1.8-1.3 2.8-2-.9-1-1.8-2.7-2.7-2.7-7.9-.5-15.8-.7-23.7-1-2.5-.1-5.1 0-7.4-.7-1.2-.4-2-2.5-2.4-4-.1-.3 2-2 3.1-1.9 7.6.5 15.2 1.2 22.8 1.8 5.3.4 10.6.8 16 .9 1 0 2-1.3 2.9-2.1-1.2-1-2.3-2.8-3.6-2.9-7.3-.6-14.6-.7-21.9-1.1-5.3-.3-10.7-.5-15.9-1.3-1.2-.2-2.2-2.1-3.3-3.3 1.1-.8 2.3-2.3 3.4-2.3 6.3.1 12.6.7 18.9 1 2.1.1 4.2 0 6.3-.4.5-.1 1.2-1.7 1-2.4-.2-.7-1.4-1.5-2.2-1.5-8.1-.6-16.3-.7-24.4-1.6-3.7-.4-1.8-3.8-1.4-5.8 2.5-12 4.4-24.1 8-35.8 3.5-11.4 7.8-22.9 13.5-33.3 7-12.6 15.4-24.5 23.9-36.2 9.2-12.6 20.9-22.9 33.7-31.8 9.3-6.5 18.9-12.7 28.7-18.3 6.8-3.8 14.3-6.4 21.5-9.5 2.3-1 4.6-2 6.9-2.9.3-.1.8.1 1.2.2-.1.4 0 .9-.3 1.2-6.8 6.5-13.9 12.6-23.2 15.4-12.5 3.8-24.4 8.8-33.3 18.8-10 11.3-13.7 24.5-10.6 39.4 2.1 9.9 6.6 18.8 15 24.6 5.8 4 12.7 6.2 19.1 9.4 2.7 1.3 5.2 3.1 7.8 4.6.9.5 2 .9 3 .8.6-.1 1.5-1.3 1.4-1.9-.1-1-.6-2.5-1.4-2.9-8.3-4.2-17.1-7.5-24.9-12.3-8.8-5.5-14.7-13.4-15.9-24.4-1.1-9.8-.8-19.3 4.8-27.5 3.5-5.1 8.5-9.1 12.9-13.5.4-.4 1.4-.3 2.1-.4.1.8.5 1.6.4 2.4-2.1 13.1 0 25.2 9.3 35.1 3.9 4.2 9.1 7.1 13 11.3 4.6 5 8 11.3 12.7 16.1 4.2 4.2 1.8 6.4-1 9.2-3 3.1-6 6.3-8.7 9.6-.7.9-1 2.5-.8 3.7 1 4.9-2.4 8.2-7.2 7.3-7.3-1.4-14.6-2.3-21.9-3.7-1.7-.3-3.2-1.9-4.9-2.7-1-.4-2.2-.2-3.3-.2-3.7-.2-7.6-.1-11.2-.9-1.4-.3-3.2-2.7-3.4-4.3-.6-6-7.7-15.2-13.2-17.8-7.8-3.7-15.7-3.9-22.7.5-4.5 2.7-7.7 7.6-11.4 11.5 1.6.9 3.1 2.3 4.8 2.7 3.4 1 7 1.4 10.5 2.3.5.1 1.2 1.1 1.2 1.6-.3 3.3-.6 6.6-1.3 9.9-1.3 5.7-5.4 3-8.5 2.4-2.3-.4-4.6-1.3-6.9-1.4-.6-.1-2.1 1.7-2 2.4 2.4 15.7 15.7 22.9 29.1 21.1 4.3-.6 8.8-4.1 12.1-7.4 2.6-2.6 4.9-3 8-2.5 6.9 1.1 13.8 2.1 20.7 3.2 1 .2 2.1.9 3 1.6 1.7 1.3 3.3 2.7 5.1 3.9 2.6 1.8 2.1 4.5-1.8 6.9-4.2 2.5-8.7 4.5-13 6.9-.8.4-1.4 1.1-2 1.7.9.7 1.8 1.8 2.9 2 3.7.6 7.4.8 11.1 1.3 4.2.6 4.2 1.3 2.2 4.9-4.2 7.2-7.7 14.8-11.9 22.1-2.9 5.1-6.5 9.9-9.7 14.8-.8 1.3-1.3 2.7-2.1 4-.4.6-1.1 1.3-1.6 1.3-.6 0-1.6-.6-1.8-1.2-3.4-7.7-7-15.4-4.9-24.2.2-.7-.8-1.7-1.3-2.5-.8.4-2 .7-2.3 1.4-.7 1.6-1.1 3.3-1.2 5-.6 8.3 2.3 15.8 6.4 22.7 4.4 7.6 9.3 14.9 14.6 21.9 5.5 7.2 12.9 12.2 21.6 14.7 1.5.4 3.4-.3 5.1-.3.7 0 1.8.5 1.9.9.1.7-.2 1.9-.8 2.2-6.8 4-9.3 10.8-11.8 17.6-2.2 5.8-6.7 9-12.7 9.7zM150 376.1c.2-1.4 1.1-3.7.4-4.6-3.2-4-1.9-8.5-1.3-12.6 1.3-10.2 3.4-20.4 5-30.6 1.5-9.7 2.6-19.4 4.2-29.1.4-2.1 2.3-3.9 3.7-5.8 2.4-3.2 4-.3 5.8.9.5.3 1.4.3 2 .1.4-.2.6-1.1.6-1.6-.3-3-5.2-5.4-8-4.3-5.1 2.1-7.6 6.5-8.4 11.1-1.9 10.3-2.7 20.7-4.3 31.1-1.8 11.9-3.9 23.8-6 35.6-.7 3.8 2.2 9.8 6.3 9.8zm7.9-36.9l-2.4 1.5c-.1.8-.6 1.8-.3 2.5 2 5.8 2.1 11.1-2.7 15.8-.6.6-.5 1.8-.7 2.8 1 0 2.2.4 3 0 2.2-1.1 3.4-1.1 4 1.7.5 2.2 1.6 4.2 2.5 6.2.7-2.2 1.1-4.6 2.2-6.6 1.2-2.1 2.9-3.8 4.6-5.6.9-.9 2.3-1.4 3.1-2.4.2-.3-.7-2-1.5-2.5-3.5-1.9-3.9-4.3-2.2-7.8.7-1.4.1-3.4.2-5.1-1.2 1.1-2.8 2.1-3.6 3.4-1.6 2.5-2.9 2.8-4.4.2-.8-1.3-1.2-2.7-1.8-4.1zm9.2 84.2c.4-.5 1.5-1.5 1.7-2.7.1-.6-1.6-2.2-2.4-2.1-3.5.4-4.3-1.5-4.6-4.4-.1-1.1-1.4-2-2.2-3-.8.8-2 1.5-2.2 2.5-.9 3.8 4.4 9.7 9.7 9.7zm-32.8-135.5c2.5 1.5 3.7 2.7 5.1 2.8.8.1 1.8-1.4 2.7-2.3-1.2-.9-2.3-2.2-3.7-2.7-.6-.2-1.8 1-4.1 2.2z"/>
    <path fill="#fff" d="M264.1 305.1c-1.4.3-2.9.4-4.2 1-4.1 1.7-5.1 5.7-3.9 11.7 1.7 8.7 2.6 17.6 4 26.3 1.5 9.5-1.4 18.3-3.3 27.4-1.6 7.6-4.5 14.2-10.5 19.2-8.5 7.1-20.3 2.2-25-6.1-2.7-4.7-5.2-9.7-7.6-14.5-.3-.7-.2-1.8.1-2.6 1.6-3.5 3.5-6.8 5.1-10.3.3-.6 0-2.1-.3-2.2-.8-.2-1.9-.1-2.7.2-.5.2-.8 1-1.4 1.3-.8.4-1.7.5-2.6.7.2-.8.1-1.6.5-2.2 2.9-5 5.4-10.4 9.1-14.7 3.2-3.7 7.7-6.4 12.1-8.9 2.8-1.6 6.3-1.9 9.4-3.2.8-.3 1.2-2 1.7-3-.9-.3-2-1.1-2.7-.9-4.4 1.5-8.7 3.3-13.1 4.9-.4.2-1 .1-1.4.1 0-.5-.2-1.3 0-1.6 1.8-2.2 3.8-4.2 5.7-6.4.7-.8 1.3-1.7 1.5-2.7.1-.4-1-1.6-1.1-1.5-.9.5-1.7 1.1-2.5 1.8-9.4 8.6-12.4 20.9-18.6 31.3-1.9 3.3-3.8 8.7-9.1 7-4.6-1.5-9.3-4.2-12.8-7.6-5.3-5.2-9.7-11.4-14.2-17.3-.6-.8-.2-3 .5-4.1 2-3.8 4.5-7.3 6.6-11 4-7.3 7.5-14.8 11.8-22 3.1-5.2 6.9-9.9 10.6-14.6.7-.8 2.1-1.3 3.2-1.5 3.5-.8 7.1-1.6 10.6-1.9.7-.1 2 1.6 2.2 2.6.7 3.1 5.2 7.1 8.2 6.9 3.4-.2 8.2-4.5 8.5-7.6v-.1c-.1-1.1-.2-2.2-.2-3.2 1.1.7 2.5 1.2 3.4 2.1 6.6 6.5 10 14.7 12.2 23.5.3 1.3 3.4 2.2 5.3 2.8 1.5.5 3.3.4 5 .6-.1-.1-.1.1-.1.3zm-2-75.6c-2 1.3-3.9 2.6-5.9 4-.6.4-1.5.9-1.6 1.5-.1.5.5 1.6 1.1 1.8.6.3 1.6.1 2.3-.2 2.2-1.3 4.3-2.7 6.4-4.2.6-.4 1.1-1.3 1.1-2.1 0-.4-.9-1-1.4-1.3-2.1-1.2-4.2-2.3-6.3-3.5-.1-.1-.2-.5-.1-.6.5-.5 1.1-1.3 1.5-1.3 3.5.6 4.3-1.5 4.7-4.3.1-.5 1.8-1.4 2.5-1.2 2.3.5 4.7 1.2 6.7 2.4 1.2.7 2.6 2.6 2.5 3.8-1.1 8.5 7 16.5 15.1 14.7 9.4-2.1 12.3-5.7 12.2-14.9 0-.1.1-.3 0-.4-3.3-5.6 1.6-5.5 4.7-7.1 6-3 11.9-6.3 17.7-9.8 2.6-1.5 3.8-1.2 5 1.5 2.2 5 5 9.7 7 14.8.8 2 0 4.6-.4 6.9-.1.6-1.5.9-2.2 1.4-.2-.9-.8-1.9-.6-2.7 1.1-4.5-.6-9.1-5-10.7-3.6-1.3-7 .3-9.1 3.5-2 3-3.3 6.4-5.2 9.6-.5.8-1.5 1.5-2.4 1.9-1 .5-2.1.6-3.1 1-.1.1.1 1.6.5 1.8 1.1.6 2.5 1.2 3.7 1.1 5.6-.5 11.2-2.1 16.7-1.6 7 .6 10.3 5.9 8.2 10.9-1.7 4.1-9 7.7-13.4 6.9-8.4-1.6-16.7-4.6-25.5-1.6-1.2.4-3.3-.8-4.5-1.8-.3-.2 1-2.4 1.2-3.8.1-.8-.2-2.1-.8-2.6-3.3-2.9-5.3-.6-7.4 2-4.6 5.8-12.2 7.9-19.5 5.9-1.3-.4-2.9.5-4.3.8 1.1.8 2.3 1.5 3.2 2.5 1 1.1 2.1 2.3 2.5 3.7.5 1.4-.1 3.2.6 4.5.5 1 2.2 1.3 3.4 2 .2-1.1.4-2.2.6-3.2.3-1.8 0-4.2 1.1-5.3 1.7-1.8 2.9.4 4.6 1.3 5.3 3.1 11 5.8 16.8 7.6 3.3 1.1 7.4.7 10.9 0 2.7-.5 5-2.7 7.5-3.8 1-.5 2.3-.2 3.5-.3.8-.1 1.8-.1 2.5-.4.2-.1.1-1.6-.3-2-.7-.6-1.9-1.2-2.6-1-3.1 1-6.2 2.1-9.1 3.5-6.2 3.1-15.2 1.9-20.5-2.6-1.7-1.4-4-2.1-6-3.1-.6-.3-1-.9-1.5-1.3.5-.4.9-.8 1.5-1.1 1.8-1.1 3.6-2.3 5.6-3.1.7-.3 2.6.3 2.8.9 1.1 3.7 4.8 5.2 8.9 4.7 5.6-.7 11.3-.4 16.9-.4 1.6 0 3.3.3 4.8.7 1.7.5 3.2 1.6 4.9 2.1.8.3 2 .2 2.8-.3 3.2-1.8 6.2-3.8 9.3-5.6.2-.1.6 0 2.5 0-2.6 3.6-4.1 6.9-6.6 8.9-4.2 3.3-9.9 4.9-13.4 8.7-4.6 5-9.2 9.2-15.4 11.9-7 3.1-18.8.5-23.4-5.2-.6-.8-2.3-.7-3.5-1.1.3 1 .6 2 1 3 .4 1.1 1 2.1 1.4 3.2-1.2-.2-2.4-.5-3.6-.6s-2.4.1-3.6.2c.5.9.9 2.4 1.7 2.7 2.1.7 4.4.8 6.6 1.1 3.4.5 6.8 1.4 10.1 1.4 5-.1 10.4.2 14.9-1.5 4.5-1.6 8.2-5.3 12-8.5 2.1-1.7 3.5-3.6 5.7-.5 3.3 4.7 6.7 9.3 9.7 14.2 1.9 3.1 3.9 2 6.3 1.3 1.7-.5 3.4-.8 5.1-1.1-1.3 1.2-2.3 2.7-3.8 3.7-8 5.3-16.2 10.3-26 12.1-12.1 2.2-24.2 5-36.5 1.2-2.4-.7-5-.7-7.5-1-.5-.1-.9-.5-1.4-.8.4-.4.8-1.1 1.2-1.1 7.6-1.1 4.1-5.4 2.7-9.1-4.6-12.5-13.4-21.8-22.4-31.1-.8-.8-3-1.2-3.8-.7-7.1 4.2-17.6-.6-21.9-6-4.2-5.2-6.4-10.8-4.5-17.6 1.7-6.2 10-10.6 16.2-9 2.6.7 5.6.1 8.4.2.8 0 1.9.1 2.4.6 3.1 3.6 5.1.9 7.5-.9 1.3-1 3-1.5 4.4-2.2.1.1.4.6.7 1.1zm-27.6 5c-1.6.7-4.7 1.3-6.4 3.1-4.5 4.8-3.5 8.6-.5 14.1 2.2 4.2 6.4 7.4 12 6.2 1.9-.4 3.5-1.7 5.3-2.7-1.1-1.6-2.3-3.1-3.1-4.7-.4-.8.1-2 0-3 0-1.1-.2-2.2-.3-3.2-1.8 1.1-3.6 2.1-5.2 3.4-.2.2 1.1 2.1 1.7 3.3.4.9.9 1.8.9 2.8 0 .3-1.8 1.1-2.1.8-2-1.7-4.6-3.2-5.7-5.5-3-6.2-1.9-8.7 4-10 1.8-.4 3.8.2 5.7.1.8 0 1.5-.8 2.3-1.2-.5-.8-.9-2.1-1.6-2.3-1.9-.7-3.9-.8-7-1.2zm63.4 38.5c.9-1.3 1.7-2.3 2.3-3.4.1-.1-1.1-1.1-1.9-1.3-2.6-.7-5.3-1.2-7.9-1.8-.9-.2-1.9-.2-2.9-.2.4 1.1.5 2.8 1.2 3.2 2.7 1.3 5.7 2.2 9.2 3.5z"/>
    <path fill="#fff" d="M269.4 308.3c3.7.9 7.5 1.6 11 2.9 1.1.4 1.6 2.8 2.3 4.2-.8 0-1.9.3-2.4 0-6.3-4.8-12.7-2.8-14.6 5-.5 2.1 1.1 4.7 1.8 7 .7 2.4 1.3 4.9 2.4 7.1.8 1.5 2.9 3.9 3.6 3.7 2.2-.7 4.8-2.2 6-4.1 1.8-2.8 2.6-6.2 3.9-9.3.2-.5 1-1.2 1.3-1.1.6.2 1.3.8 1.4 1.3 1.9 13 4.5 25.9 5.3 39 .5 8.7-1.2 17.5-2.4 26.2-1.3 9.7-2.9 19.4-5 29-1.7 7.5-4.2 14.8-6.9 21.9-.6 1.5-3.6 2.6-5.6 2.8-2.6.2-5.4-.9-8-.9-1.2 0-2.4 1.6-3.7 2.1-1.8.7-3.7 1.4-5.5 1.4-2.1 0-4.2-.6-6.1-1.4-.9-.4-2.1-2.4-1.8-3.1 3-7.2 2.1-14.1.3-21.4-1.8-7.1-2.7-14.5-3.4-21.8-.1-1.5 2.7-3.4 4.3-4.9 8.6-7.7 14.6-16.7 15.6-28.5.4-4.4 1.9-8.8 1.6-13.1-.8-9.9-2.4-19.7-3.8-29.5-.4-2.5-1.5-4.8-2.1-7.3-.9-3.5 1.7-6.3 6.1-6.4h4.2c.1-.3.2-.6.2-.8zM231.1 125c1.5 2 3.1 3.8 4.3 5.9 6.2 10.9 12.5 21.7 18.4 32.7 4 7.4 7.6 15 11 22.7.4 1-1.5 3.6-2.9 4.7-7 5.5-14.2 10.8-21.5 15.9-.6.5-3.1-.2-3.4-1-5.5-12.1-15.8-19.6-25.3-28.2-4.7-4.2-8.4-10.8-9.9-17-1.4-6.2.3-13.1 1.1-19.7.7-5.4 5.8-5.8 9.6-7.5 5.5-2.4 10.9-5 16.3-7.5.6-.1 1.2-.4 2.3-1zm50.1 25.9c2.7 7.6 5.5 15.1 8 22.8.3.9-.5 2.8-1.3 3.2-5.6 2.9-11.2 5.6-17 8-1 .4-3.6-.5-4.1-1.5-5.9-11.8-11.3-23.9-17.5-35.6-4.2-8.1-9.5-15.7-14-23.6-.5-.9.8-3.5 1.9-4.3 6.2-4.3 12.6-8.4 18.9-12.5 4.7-3 7.7.6 10.6 3.1 8.6 7.3 11.6 17.5 13.7 28 .8 3.9 1.4 7.9 2.1 11.9-.2.2-.7.3-1.3.5zm77.2 138.5c4.9 1.4 9.9 2.8 14.8 4.3 3.5 1.1 6.9 2.8 10.4 3.2 2.4.3 5.1-.9 7.7-1.5 1.8-.4 3.6-.7 6 0-1.5 1.1-2.9 2.6-4.5 3.1-3.5 1.1-7.2 1.7-10.8 2.6-.9.2-1.5 1.1-2.3 1.7 1 .7 2.1 2.1 2.9 1.9 4-.8 8.1-1.6 11.8-3.1 4-1.7 8.8.6 10.2 5.4 2.2 7.9 4.6 15.7 10.4 22.2 3 3.4.5 7.2-1.9 10.1-5.5 6.7-13.6 9-21.5 10.9-1 .2-3.3-3.1-4.4-5.1-4.7-8.9-8.9-18.1-13.8-26.9-3.6-6.4-8.3-12.3-12.2-18.6-1.7-2.7-2.5-6-3.7-9 .2-.5.6-.8.9-1.2zm-14.5 189.1c-7.5-.6-15.7-1.2-24-2.1-5.9-.6-10.6-8.9-7.9-14.2.4-.9 3.3-.5 5.1-.6 6-.4 12-.6 18-1.2 11.1-1.2 21.7-4.3 31.5-9.6 6.7-3.6 13.1-7.7 19.7-11.5.5-.3 1.7-.7 1.8-.5 2.5 4.2 8.9 6.1 8 12.4-.9 5.8-5 9.9-9.8 12.2-9.8 4.6-19.8 8.5-29.9 12.3-3.8 1.2-7.7 1.7-12.5 2.8zM245 431.9c-.9 3.1-1.6 6.9-3.3 10.2-.5 1-4.4 1.2-6.2.4-6.9-3.1-13.6-6.6-20.3-10.1-.5-.3-1-1.9-.7-2.3 3.8-6.3 1.7-12.6.6-19-1.2-7.2-1.8-14.6-2.6-21.9-.2-2-.3-3.9-.3-5.9 0-.3.7-.9 1.1-.9.4 0 1 .4 1.2.8 5.1 8.4 10.9 15.6 21.9 16.2 1 .1 2.5 2.1 2.8 3.5 1.8 8.4 3.4 16.9 5.1 25.3.2 1 .4 2.1.7 3.7z"/>
    <path fill="#fff" d="M299.3 141.6c-.5 9.8.8 19.2 5 28.1.3.6-.6 2.3-1.3 2.6-2.6 1.1-5.3 1.9-8.1 2.6-.8.2-2.3-.4-2.5-1-1.7-4.7-3.5-9.4-4.5-14.3-1.3-6.3-1.5-12.8-2.8-19-2.5-12-5.9-23.6-15.3-32.4-1.3-1.2-2.2-2.8-3.3-4.2 2.3-.3 5-1.5 6.9-.8 10.7 4.1 20.6 9.6 23.4 22.1 1.1 5.3 1.7 10.9 2.5 16.3zm109.6 333.1c1.9-1.7 3.4-3.4 5.2-4.5 4.1-2.5 8.3-4.7 12.6-7 .3-.2.8.1 1.3.2-.1.4-.1.9-.4 1.1-3.8 2.9-7.5 5.9-11.5 8.5-6.1 3.9-12.2 7.9-18.6 11-2.1 1-5.4 0-8.1-.7-6.6-1.6-13.1-3.4-19.7-5.2-.7-.2-1.4-.9-2-1.4.6-.6 1-1.4 1.7-1.7 7.4-3.6 15-6.8 22.2-10.7 2.7-1.5 4.6-4.4 6.9-6.7.3-.3.4-1 .6-1 3.4.1 6.7.2 10.1.4-.3.8-.3 2-.9 2.5-3.9 3.2-7.9 6.1-11.8 9.4-.8.7-.8 2.3-1.2 3.5 1.6-.3 3.5-.1 4.8-.9 6.2-3.9 12.1-8.1 18.3-12.1.5-.3 1.5.1 2.3.2-.4.7-.7 1.6-1.3 2.1-4 3.1-8 6.1-12 9.2-.5.4-.9 1.6-.7 2.2.3.5 1.2.9 2.2 1.6zm-146.8-14.3c.6 4.5-.9 4.9-3.3 3.9-8-3.3-15.9-6.5-23.9-9.8-7.1-2.9-14.1-5.9-21.2-8.8-4.8-1.9-9.7-3.6-14.4-5.7-1-.4-1.7-2.1-2-3.4-.6-2.4-.8-4.9-1.1-7.4-.1-1 0-2.1 0-3.1.9.2 1.9.1 2.7.6 6.9 4.6 13.4 10.1 20.8 13.7 7.9 3.8 16.7 6.1 25.2 8.6 4.1 1.2 8.5 1.2 12.8 1.9.9.1 2 1 2.3 1.8 1 3 1.7 6.1 2.1 7.7zm-22.5-191.9c3.1-.5 6.2-1.7 9.1-1.3 2.4.4 4.9 2.3 6.5 4.3 4.9 6.1 9.5 12.5 14 18.9 1.5 2.2 2.4 4.8 3.2 7.4.1.4-1.4 2-2.2 2-3.2.3-6.4.8-9.5.2-1.8-.3-3.6-2.2-4.7-3.9-4.1-6.8-7.7-14-11.9-20.8-1.3-2.1-3.8-3.5-5.7-5.3-.4-.4-.7-1.2-.5-1.6.1-.4.9-.5 1.4-.8.2.3.2.6.3.9zm-31.2 107.2c0 6.3-.4 12.6.1 18.9.6 6.9 2.5 13.7 3.1 20.7.3 3.9-.7 8-1.2 12 0 .3-.7.9-.8.9-2.4-1.3-4.9-2.5-7.1-4.2-.7-.5-.4-2.3-.4-3.5 0-1.3.3-2.5.4-3.8.3-2.9 1.3-5.9.7-8.6-.8-3.4-2.8-6.5-4.3-9.7s-2.6-6.2 0-9.8c3-4.2 4.9-9.1 7.4-13.7.3-.6 1.3-1.1 2-1.1.4 0 .8 1.1 1.1 1.8-.3 0-.6.1-1 .1zm-35.1 66.7c0-6.7 5-14 12.4-16 4.6-1.2 6.5 2.3 7.3 5.8.4 1.9-.2 4.7-1.5 6.1-2.6 2.8-3.4 5.2-1.6 8.7.4.8-.1 2.9-.8 3.2-3.3 1.3-6.9 3.5-10 3.1-4.4-.7-5.9-5-5.8-10.9zm5.9-1.8c.3.3.6.5.9.8 0 .4-.2 1.1 0 1.3 1 1 2.1 1.9 3.1 2.9.5-.7 1.6-1.7 1.4-2.2-1.3-3 .4-4.4 2.4-6 .7-.6.6-2.1.9-3.3-.9-.1-2.2-.6-2.7-.1-2.1 2.1-4 4.4-6 6.6zm62.6 28.8c-3.5-.3-7-.3-10.5-.9-6.9-1.1-14-1.7-20.6-4-6.9-2.3-13.3-6.2-19.8-9.6-.5-.2-.7-2.3-.4-2.6 1.2-.9 3-2.2 4.1-1.8 12.8 4.5 25.5 9.3 38.3 14 3 1.1 6 2.1 9.1 3.2 0 .6-.1 1.2-.2 1.7zm-48.4-225.8c-.4-1.8-.9-3.5-1-5.3 0-.4 1.4-1.5 1.7-1.4 5.8 3 11.7 6 17.2 9.4 5.2 3.2 5 5.4-.4 8.1-1.5.7-2.9 1.6-4.2 2.6-4.2 2.9-6.7-.8-8.7-2.9-2.6-2.7-3.9-6.6-5.8-10 .4-.2.8-.3 1.2-.5zm33.7 211.1c5 2.1 8.9 3.7 12.7 5.3 7.6 3 15.1 6 22.7 9 7.9 3.2 15.7 6.6 23.6 9.8 4.7 1.9 9.8 3.2 14.3 5.6 3.5 1.9 6.4 5 9.5 7.5.6.5 1.3 1 1.8 1.6s.9 1.4 1.4 2.2c-1-.2-2.2-.1-2.9-.7-4.1-3.1-7.8-6.8-12.2-9.3-4-2.3-8.7-3.2-13.1-4.9-11.9-4.4-23.7-8.9-35.5-13.4-7.1-2.7-14.1-5.5-21.1-8.3-.8-.3-1.4-1.6-1.6-2.5-.3-.8.4-1.7.4-1.9zm-30.2 13.4c-3 .5-6.1 1.7-8.8 1.2-3.3-.6-6.6-2.3-9.3-4.3-5.3-4-10.2-8.6-15.3-13.1-.5-.4-.5-1.3-.8-1.9.7 0 1.5-.1 2.1.2 4.6 2.4 9 5.2 13.8 7.1 2.6 1.1 6 .3 8.8 1.3 4.6 1.6 8.9 4 13.2 6.1.9.4 1.6 1.1 2.5 1.6-1.2.7-2.3 1.5-3.5 2-.8.3-1.7.1-2.6.1 0-.2-.1-.2-.1-.3zm143-180.5c-.8-.5-1.8-1-2.4-1.7-3.7-4.5-7.3-9.1-10.8-13.7-.4-.6-.7-1.7-.5-2.3 1.2-3.2 7.8-5 10-2.5 4.4 4.9 8.5 10 12.5 15.2.3.4-.3 2.2-.8 2.5-2.5.9-5.1 1.6-8 2.5zm-50.2-52.1c-6.9 0-12-5.9-10.3-11.9.3-.9 2-1.9 3.2-2.1 3.7-.6 7.6-.9 11.3-1.2.7-.1 1.9.1 2.1.5.3.6-.2 1.5-.3 2.2-.4 2.7-1.2 5.4-1.2 8.1 0 3.8-2 4.6-4.8 4.4zm-71.3 20c2.9 2.4 7.1 4.3 8.2 7.3.8 2.3-2.3 6.1-3.7 9.2-2.6-1.3-5.5-2.2-7.7-4-1.6-1.3-2.4-3.8-3.6-5.7-2-3.1.1-4.1 2.5-4.9 1.1-.4 2.3-.7 3.4-1l.9-.9zm63.4 67.9c-2.9 2.5-4.9 5.6-6.8 5.5-3.8-.1-5.4-4-4.9-7.2.3-2.1 3-3.8 4.6-5.6 2.1 2 4.1 4.1 7.1 7.3zm69-12.1c-.9-1.9-2.3-3.8-2.5-5.8-.2-2.8-.2-6.7 4.1-6.2 1.7.2 4.3 3.2 4.1 4.8-.2 2.5-2.3 4.9-3.6 7.3-.6-.1-1.4-.1-2.1-.1zm-20.8-89c-4.6 3.4-1.9 10-8.2 10-1 0-2.8-.9-2.8-1.1.4-2.1.4-4.7 1.7-6.1 1.6-1.7 4.2-2.5 6.4-3.5.6-.3 1.5.3 2.9.7zM204 450.5c-3.5-1.6-6.9-3-10-4.7-.5-.3-.5-1.9-.4-2.9 0-.2 1.5-.7 2.2-.4 3.1 1.1 6.1 2.4 9.1 3.8.7.3 1.4 1.6 1.4 2.4-.2.5-1.4 1-2.3 1.8zm10.1-175.1c-1.7-1.5-3.6-2.6-4.8-4.2-1.6-2-2.8-4.3-4-6.6-.3-.5.4-1.5.6-2.2.8.3 1.9.4 2.5 1 2.6 2.9 5.1 6 7.6 9 .3.4.5 1.2.4 1.4-.6.5-1.3.9-2.3 1.6zm-10.3.3c-2.6-1.2-5.1-2.4-7.6-3.6 1.9-1.5 3.7-3 5.6-4.5 1.6 2 3.3 4.1 4.9 6.1-.8.5-1.6 1.1-2.9 2zm17.6 182c-1.9-1.9-3.4-3.4-4.8-4.9.6-.5 1.5-1.5 1.8-1.3 1.9 1 3.7 2.3 5.5 3.5-.7.7-1.3 1.4-2.5 2.7zm-10.9-2.6c-.6-1.6-1.5-3.1-1.7-4.7-.1-.6 1.9-2.2 2.1-2.1 1.4 1 2.6 2.2 3.8 3.4-.7.6-1.3 1.2-2 1.8-.7.5-1.4 1.1-2.2 1.6z"/>
    <path fill="#fff" d="M197.9 402.6c.9 1.8 1.6 2.7 1.7 3.6.1.5-.9 1.1-1.3 1.7-.6-.8-1.4-1.6-1.7-2.6-.3-.4.4-1.1 1.3-2.7zm35.7-132.7c-1 .5-1.5.9-1.7.8-.8-.5-1.5-1.2-2.2-1.9.4-.3 1.1-1.1 1.3-.9.8.4 1.4 1.1 2.6 2zM352.7 282c-.6-.8-1.3-1.6-1.8-2.4-.1-.1.6-.8 1-1.1.7.9 1.3 1.8 2 2.7-.5.2-.9.5-1.2.8z"/>
    <path class="color-red color-main" fill="#8d191c" d="M378.7 364.5c-.8 9.9-.7 18.2-2.2 26.2-2.2 11.8-6.6 23-12.9 33.4-3.1 5.1-1.9 10.5-1.4 15.9.1 1.4-.3 2.9-.6 4.4 0 .2-1.7.3-1.8.1-.6-1.1-1.2-2.4-1.4-3.7-.4-2.9-1-5.9-.5-8.7.7-3.8 2-7.6 3.7-11 6.4-12.5 12.8-25.1 12.6-39.6-.1-12.9-.2-26-2.3-38.7-1.4-8.9-6.2-17.4-9.3-26.1-.4-1.2-.2-2.7-.2-4 1 .9 2.6 1.5 3 2.7 3.3 7.7 7.1 15.3 9.2 23.3 2.4 8.9 3 18.2 4.1 25.8zM292.6 191c-.2-2-.5-3.3-.4-4.6s.6-2.5.9-3.7c1.1.7 2.5 1.1 3.4 2 1.9 2 3.7 4.2 5.3 6.5.4.6.6 1.6.5 2.4-.1.4-1.2 1.1-1.3 1-3.4-2.2-5 .8-7.3 2.1-1.2.7-3 .4-4.5.7-.8.1-1.7.4-2.5.6-1.2.3-2.5.6-3.7 1.1-.6.2-1.1.8-1.6 1.3s-.9 1.5-1.4 1.5c-.6 0-1.6-.5-1.9-1.1-1.3-2.3-2.4-4.7-3.4-7.1-.3-.7-.1-2.3.4-2.6.7-.4 1.9 0 2.8.3.6.2 1.1 1 1.7 1.3.9.4 2.3.9 2.9.5s.5-1.9.8-2.9c.5-1.5 1-2.9 1.5-4.4 1.1 1 2.3 1.9 3.2 2.9.4.5.3 1.5.7 2 .8 1 1.8 1.8 2.7 2.6.4-1 .9-2 1.2-2.4zm77.9 58.3c4.2.5 8.3.9 12.5 1.5.5.1.9.6 1.4 1 1.9 1.8 3.3 4.3 6.6 3 .2-.1.4.1.6.3 3.6 2.5 7.3 4.9 10.8 7.6.6.4.2 2 .3 3-1.1 0-2.3.1-3.4-.2-.6-.2-.9-1.5-1.5-1.6-3.6-.5-6.5-2.2-8.6-5.2-.1-.1-.6-.1-.8 0-3.5 2.3-4.6 0-5.8-2.8-1.7-4.2-4.3-1.2-6.2-.3-2.6 1.2-4 1.2-5.1-1.9-.2-.5-3.8-.5-5.4.2-2.2 1-4.1 2.8-6.2 4.2-.4.2-1.4-.1-1.8-.5-.3-.3-.4-1.4-.1-1.6 4.1-2.8 8.2-5.5 12.3-8.3.2.5.3 1 .4 1.6zm61.3-11.4c1.6 1.8 2.6 2.8 3.6 3.9-1.1.7-2.3 2.1-3.4 2-1.3-.1-2.4-1.4-3.6-2.2.9-1 1.8-2 3.4-3.7zm12.9 18.2c-1.6-1.4-2.7-2.4-3.7-3.4 1.2-.7 2.5-2 3.7-1.9 1.3.1 2.4 1.5 3.6 2.3-1.1.8-2 1.7-3.6 3zM150 376.1c-4.2 0-7.1-6-6.4-9.8 2.1-11.9 4.2-23.7 6-35.6 1.6-10.3 2.4-20.8 4.3-31.1.9-4.6 3.4-9.1 8.4-11.1 2.8-1.1 7.6 1.3 8 4.3.1.5-.2 1.5-.6 1.6-.5.3-1.5.2-2-.1-1.9-1.2-3.4-4.1-5.8-.9-1.4 1.8-3.3 3.7-3.7 5.8-1.7 9.6-2.7 19.4-4.2 29.1-1.6 10.2-3.6 20.3-5 30.6-.5 4.1-1.9 8.6 1.3 12.6.9.9-.1 3.2-.3 4.6z"/>
    <path class="color-red color-main" fill="#8d191c" d="M157.9 339.2c.6 1.4 1 2.9 1.7 4.2 1.5 2.6 2.9 2.3 4.4-.2.9-1.4 2.4-2.3 3.6-3.4 0 1.7.5 3.7-.2 5.1-1.7 3.5-1.3 5.9 2.2 7.8.8.4 1.7 2.2 1.5 2.5-.8 1-2.2 1.4-3.1 2.4-1.7 1.7-3.5 3.5-4.6 5.6-1.1 2-1.5 4.4-2.2 6.6-.8-2.1-2-4.1-2.5-6.2-.6-2.8-1.8-2.8-4-1.7-.8.4-2 0-3 0 .2-.9.1-2.2.7-2.8 4.7-4.7 4.7-10 2.7-15.8-.2-.7.2-1.6.3-2.5.9-.6 1.7-1.1 2.5-1.6zm9.2 84.2c-5.3 0-10.5-5.9-9.6-9.8.2-1 1.5-1.7 2.2-2.5.8 1 2.1 2 2.2 3 .3 2.9 1.1 4.7 4.6 4.4.8-.1 2.5 1.5 2.4 2.1-.3 1.3-1.5 2.3-1.8 2.8zm-32.8-135.5c2.3-1.2 3.4-2.4 4.1-2.1 1.4.5 2.5 1.8 3.7 2.7-.9.8-1.9 2.4-2.7 2.3-1.3-.2-2.6-1.4-5.1-2.9zm100.2-53.4c3.2.5 5.2.6 7 1.2.7.2 1.1 1.5 1.6 2.3-.8.4-1.5 1.2-2.3 1.2-1.9.1-3.9-.5-5.7-.1-5.9 1.2-7 3.7-4 10 1.1 2.2 3.7 3.8 5.7 5.5.3.2 2.1-.5 2.1-.8 0-.9-.5-1.9-.9-2.8-.5-1.2-1.9-3.1-1.7-3.3 1.5-1.3 3.4-2.3 5.2-3.4.1 1.1.3 2.1.3 3.2 0 1-.4 2.2 0 3 .8 1.7 2.1 3.2 3.1 4.7-1.8.9-3.4 2.2-5.3 2.7-5.6 1.3-9.8-2-12-6.2-3-5.5-3.9-9.3.5-14.1 1.6-1.9 4.7-2.4 6.4-3.1zm63.4 38.5c-3.5-1.3-6.5-2.2-9.2-3.6-.7-.4-.8-2.1-1.2-3.2 1 .1 1.9 0 2.9.2 2.6.5 5.3 1.1 7.9 1.8.7.2 1.9 1.2 1.9 1.3-.6 1.2-1.4 2.2-2.3 3.5zM179.2 440.6c2-2.2 4-4.5 6.1-6.6.4-.4 1.7.1 2.7.1-.3 1.1-.2 2.7-.9 3.3-2 1.6-3.7 3-2.4 6 .2.4-.9 1.4-1.4 2.2-1-.9-2.1-1.8-3.1-2.9-.2-.2 0-.8 0-1.3-.4-.2-.7-.5-1-.8z"/>
</svg>
